<?xml version="1.0" encoding="UTF-8"?>
<svg xmlns="http://www.w3.org/2000/svg" version="1.1" viewBox="0 0 640 640"><path fill="currentColor" d="M216,104c-13.3,0-24,10.7-24,24s10.7,24,24,24h208c13.3,0,24-10.7,24-24s-10.7-24-24-24h-208ZM120,232c-13.3,0-24,10.7-24,24s10.7,24,24,24h400c13.3,0,24-10.7,24-24s-10.7-24-24-24H120ZM192,384c0,13.3,10.7,24,24,24h208c13.3,0,24-10.7,24-24s-10.7-24-24-24h-208c-13.3,0-24,10.7-24,24M120,488c-13.3,0-24,10.7-24,24s10.7,24,24,24h400c13.3,0,24-10.7,24-24s-10.7-24-24-24H120Z"/>
</svg>
