<?xml version="1.0" encoding="UTF-8"?>
<svg id="a" data-name="Layer 1" xmlns="http://www.w3.org/2000/svg" xmlns:xlink="http://www.w3.org/1999/xlink" viewBox="0 0 512 512">
  <defs>
    <style>
      .c {
        fill: none;
      }

      .d {
        fill: #4285f4;
      }

      .e {
        fill: #e94235;
      }

      .f {
        fill: #34a853;
      }

      .g {
        fill: #fbbc04;
      }

      .h {
        clip-path: url(#b);
      }
    </style>
    <clipPath id="b">
      <rect class="c" width="512" height="512"/>
    </clipPath>
  </defs>
  <g class="h">
    <g>
      <path class="d" d="M501.76,261.82c0-18.15-1.63-35.61-4.65-52.36h-241.11v99.03h137.77c-5.93,32-23.97,59.11-51.08,77.27v64.23h82.73c48.41-44.57,76.33-110.2,76.33-188.16Z"/>
      <path class="f" d="M256,512c69.12,0,127.07-22.92,169.42-62.02l-82.73-64.23c-22.92,15.36-52.25,24.44-86.69,24.44-66.68,0-123.11-45.03-143.24-105.54H27.23v66.33c42.12,83.67,128.7,141.03,228.77,141.03Z"/>
      <path class="g" d="M112.76,304.64c-5.12-15.36-8.03-31.77-8.03-48.64s2.91-33.28,8.03-48.64v-66.33H27.23C9.89,175.59,0,214.69,0,256s9.89,80.41,27.23,114.97l85.53-66.33Z"/>
      <path class="e" d="M256,101.82c37.58,0,71.33,12.92,97.86,38.28l73.43-73.43C382.95,25.37,325,0,256,0,155.93,0,69.35,57.37,27.23,141.03l85.53,66.33c20.13-60.51,76.57-105.54,143.24-105.54Z"/>
    </g>
  </g>
</svg>