<?xml version="1.0" encoding="UTF-8"?>
<svg xmlns="http://www.w3.org/2000/svg" version="1.1" viewBox="0 0 640 640"><path d="M108.05,151.95c0-13.3-10.7-24-24-24s-24,10.7-24,24v336c0,13.3,10.7,24,24,24s24-10.7,24-24v-144h128v144c0,13.3,10.7,24,24,24s24-10.7,24-24V151.95c0-13.3-10.7-24-24-24s-24,10.7-24,24v144H108.05v-144ZM388.05,127.95c-13.3,0-24,10.7-24,24s10.7,24,24,24h93.3c28,0,50.7,22.7,50.7,50.7,0,18.9-10.5,36.2-27.3,45l-82.5,43.1c-45.6,23.8-74.2,71-74.2,122.5v50.8c0,13.3,10.7,24,24,24h176c13.3,0,24-10.7,24-24s-10.7-24-24-24h-152v-26.8c0-33.6,18.7-64.4,48.4-79.9l82.5-43c32.6-17,53-50.7,53-87.5,0-54.5-44.2-98.7-98.7-98.7l-93.2-.2Z"/>
</svg>
