<?xml version="1.0" encoding="UTF-8"?>
<svg xmlns="http://www.w3.org/2000/svg" version="1.1" viewBox="0 0 640 640"><path d="M108,152c0-13.3-10.7-24-24-24s-24,10.7-24,24v336c0,13.3,10.7,24,24,24s24-10.7,24-24v-144h128v144c0,13.3,10.7,24,24,24s24-10.7,24-24V152c0-13.3-10.7-24-24-24s-24,10.7-24,24v144H108v-144ZM380,320c0,13.3,10.7,24,24,24h68c33.1,0,60,26.9,60,60s-26.9,60-60,60h-100c-13.3,0-24,10.7-24,24s10.7,24,24,24h100c59.6,0,108-48.4,108-108,0-33.9-15.6-64.2-40.1-84,24.5-19.8,40.1-50.1,40.1-84,0-59.6-48.4-108-108-108h-100c-13.3,0-24,10.7-24,24s10.7,24,24,24h100c33.1,0,60,26.9,60,60s-26.9,60-60,60h-68c-13.3,0-24,10.7-24,24"/>
</svg>
