<?xml version="1.0" encoding="UTF-8"?>
<svg xmlns="http://www.w3.org/2000/svg" version="1.1" viewBox="0 0 640 640"><path fill="currentColor" d="M459.5,152c-21.4,0-42.2,6.9-59.3,19.4-11.4-11.7-24.4-22.1-38.4-30.7,27-23.6,61.7-36.7,97.7-36.7,82,0,148.5,66.5,148.5,148.5,0,39.4-15.6,77.1-43.5,105l-79.1,79.1c-27.8,27.8-65.6,43.5-105,43.5-82,0-148.5-66.5-148.5-148.5,0-17.9,3.2-35.5,9.4-51.9,4.6-12.4,18.5-18.7,30.9-14.1s18.8,18.4,14.2,30.8c-4.2,11.1-6.4,23-6.4,35.2,0,55.5,45,100.5,100.5,100.5,26.6,0,52.2-10.6,71-29.4l79.1-79.1c18.8-19,29.4-44.5,29.4-71.1,0-55.5-45-100.5-100.5-100.5M259.5,208c-26.6,0-52.2,10.6-71,29.4l-79.1,79.1c-18.8,18.8-29.4,44.4-29.4,71,0,55.5,45,100.5,100.5,100.5,21.4,0,42.2-6.9,59.3-19.4,11.4,11.8,24.4,22.1,38.4,30.7-27,23.6-61.7,36.7-97.7,36.7-82,0-148.5-66.5-148.5-148.5,0-39.4,15.6-77.1,43.5-105l79.1-79.1c27.8-27.8,65.6-43.5,105-43.5,82,0,148.5,66.5,148.5,148.5,0,17.9-3.2,35.5-9.4,51.9-4.6,12.4-18.5,18.7-30.9,14.1s-18.8-18.4-14.2-30.8c4.2-11.1,6.4-23,6.4-35.1,0-55.5-45-100.5-100.5-100.5"/>
</svg>
