<?xml version="1.0" encoding="UTF-8"?>
<svg xmlns="http://www.w3.org/2000/svg" version="1.1" viewBox="0 0 640 640"><path fill="currentColor" d="M544,360c0,66.3-53.7,120-120,120h-16c-13.3,0-24-10.7-24-24s10.7-24,24-24h16c39.8,0,72-32.2,72-72v-10c-5.1,1.3-10.5,2-16,2h-64c-35.3,0-64-28.7-64-64v-64c0-35.3,28.7-64,64-64h64c35.3,0,64,28.7,64,64v136ZM496,288v-64c0-8.8-7.2-16-16-16h-64c-8.8,0-16,7.2-16,16v64c0,8.8,7.2,16,16,16h64c8.8,0,16-7.2,16-16M160,304h64c8.8,0,16-7.2,16-16v-64c0-8.8-7.2-16-16-16h-64c-8.8,0-16,7.2-16,16v64c0,8.8,7.2,16,16,16M288,256v104c0,66.3-53.7,120-120,120h-16c-13.3,0-24-10.7-24-24s10.7-24,24-24h16c39.8,0,72-32.2,72-72v-10c-5.1,1.3-10.5,2-16,2h-64c-35.3,0-64-28.7-64-64v-64c0-35.3,28.7-64,64-64h64c35.3,0,64,28.7,64,64v32Z"/>
</svg>
