<svg xmlns="http://www.w3.org/2000/svg" data-name="Livello 1" viewBox="0 0 512 512"><defs><linearGradient id="a" x1="256" x2="256" y1="2" y2="514" gradientTransform="matrix(1 0 0 -1 0 514)" gradientUnits="userSpaceOnUse"><stop offset="0" stop-color="#1d93d2"/><stop offset="1" stop-color="#38b0e3"/></linearGradient></defs><circle cx="256" cy="256" r="256" style="fill:url(#a)"/><path d="m173.29 274.71 30.37 84.07s3.8 7.87 7.86 7.87 64.54-62.92 64.54-62.92l67.25-129.9-168.95 79.18-1.08 21.7Z" style="fill:#c8daea"/><path d="m213.56 296.27-5.83 61.96s-2.44 18.99 16.54 0 37.15-33.63 37.15-33.63" style="fill:#a9c6d8"/><path d="m173.84 277.71-62.48-20.36s-7.47-3.03-5.06-9.9c.49-1.42 1.49-2.62 4.48-4.69 13.84-9.65 256.23-96.77 256.23-96.77s6.84-2.31 10.88-.77c2.03.63 3.57 2.3 4.02 4.38.44 1.8.62 3.66.54 5.51-.02 1.6-.21 3.09-.36 5.42-1.48 23.82-45.65 201.59-45.65 201.59s-2.64 10.4-12.11 10.76c-4.7.15-9.26-1.61-12.64-4.89-18.58-15.99-82.81-59.15-97.01-68.64a2.68 2.68 0 0 1-1.16-1.92c-.2-1 .89-2.24.89-2.24s111.84-99.41 114.82-109.85c.23-.81-.64-1.21-1.81-.85-7.43 2.73-136.2 84.05-150.41 93.03-1.02.31-2.1.38-3.16.19Z" style="fill:#fff"/></svg>