<svg xmlns="http://www.w3.org/2000/svg" data-name="Layer 1" viewBox="0 0 512 512"><defs><radialGradient id="a" cx="231.94" cy="-156.05" r="26.8" fx="231.94" fy="-156.05" gradientTransform="rotate(164.25 1741.444 644.574)scale(12.2 -8.79)" gradientUnits="userSpaceOnUse"><stop offset="0" stop-color="#ff005f"/><stop offset="1" stop-color="#fc01d8"/></radialGradient><radialGradient id="b" cx="192.9" cy="-58.08" r="26.8" fx="192.9" fy="-58.08" gradientTransform="matrix(0 -15.25 -16.18 0 -803.49 3492.64)" gradientUnits="userSpaceOnUse"><stop offset="0" stop-color="#fc0"/><stop offset=".12" stop-color="#fc0"/><stop offset=".57" stop-color="#fe4a05"/><stop offset=".69" stop-color="#ff0f3f"/><stop offset="1" stop-color="#fe0657" stop-opacity="0"/></radialGradient><radialGradient id="c" cx="229.22" cy="-18.63" r="33.28" fx="229.22" fy="-18.63" gradientTransform="rotate(120.13 -628.314 603.39)scale(-5.08 6.61)" gradientUnits="userSpaceOnUse"><stop offset="0" stop-color="#fc0"/><stop offset="1" stop-color="#fc0" stop-opacity="0"/></radialGradient><radialGradient id="d" cx="150.21" cy="449.11" r="34.35" fx="150.21" fy="449.11" gradientTransform="rotate(164.27 641.27 -803.103)scale(9.42 -3.21)" gradientUnits="userSpaceOnUse"><stop offset="0" stop-color="#780cff"/><stop offset="1" stop-color="#820bff" stop-opacity="0"/></radialGradient></defs><path d="M256.08 0C149.21 0 117.95.11 111.87.61 89.94 2.43 76.29 5.89 61.42 13.29c-11.46 5.69-20.5 12.29-29.41 21.54C15.76 51.7 5.92 72.45 2.36 97.11.62 109.09.12 111.53.02 172.69c-.04 20.39 0 47.22 0 83.21 0 106.82.12 138.05.63 144.12 1.77 21.35 5.12 34.78 12.21 49.47 13.55 28.12 39.42 49.23 69.89 57.11 10.55 2.72 22.21 4.21 37.17 4.92 6.34.28 70.96.47 135.62.47s129.31-.08 135.5-.39c17.33-.82 27.39-2.17 38.51-5.04 30.67-7.92 56.07-28.71 69.89-57.23 6.95-14.34 10.47-28.28 12.07-48.51.35-4.41.49-74.75.49-144.99s-.16-140.46-.5-144.87c-1.61-20.56-5.14-34.39-12.31-49-5.89-11.96-12.42-20.9-21.91-30.03-16.94-16.18-37.65-26.03-62.33-29.59C402.99.61 400.61.1 339.42-.01H256.1Z" style="fill:url(#a)"/><path d="M256.08 0C149.21 0 117.95.11 111.87.61 89.94 2.43 76.29 5.89 61.42 13.29c-11.46 5.69-20.5 12.29-29.41 21.54C15.76 51.7 5.92 72.45 2.36 97.11.62 109.09.12 111.53.02 172.69c-.04 20.39 0 47.22 0 83.21 0 106.82.12 138.05.63 144.12 1.77 21.35 5.12 34.78 12.21 49.47 13.55 28.12 39.42 49.23 69.89 57.11 10.55 2.72 22.21 4.21 37.17 4.92 6.34.28 70.96.47 135.62.47s129.31-.08 135.5-.39c17.33-.82 27.39-2.17 38.51-5.04 30.67-7.92 56.07-28.71 69.89-57.23 6.95-14.34 10.47-28.28 12.07-48.51.35-4.41.49-74.75.49-144.99s-.16-140.46-.5-144.87c-1.61-20.56-5.14-34.39-12.31-49-5.89-11.96-12.42-20.9-21.91-30.03-16.94-16.18-37.65-26.03-62.33-29.59C402.99.61 400.61.1 339.42-.01H256.1Z" style="fill:url(#b)"/><path d="M256.08 0C149.21 0 117.95.11 111.87.61 89.94 2.43 76.29 5.89 61.42 13.29c-11.46 5.69-20.5 12.29-29.41 21.54C15.76 51.7 5.92 72.45 2.36 97.11.62 109.09.12 111.53.02 172.69c-.04 20.39 0 47.22 0 83.21 0 106.82.12 138.05.63 144.12 1.77 21.35 5.12 34.78 12.21 49.47 13.55 28.12 39.42 49.23 69.89 57.11 10.55 2.72 22.21 4.21 37.17 4.92 6.34.28 70.96.47 135.62.47s129.31-.08 135.5-.39c17.33-.82 27.39-2.17 38.51-5.04 30.67-7.92 56.07-28.71 69.89-57.23 6.95-14.34 10.47-28.28 12.07-48.51.35-4.41.49-74.75.49-144.99s-.16-140.46-.5-144.87c-1.61-20.56-5.14-34.39-12.31-49-5.89-11.96-12.42-20.9-21.91-30.03-16.94-16.18-37.65-26.03-62.33-29.59C402.99.61 400.61.1 339.42-.01H256.1Z" style="fill:url(#c)"/><path d="M256.08 0C149.21 0 117.95.11 111.87.61 89.94 2.43 76.29 5.89 61.42 13.29c-11.46 5.69-20.5 12.29-29.41 21.54C15.76 51.7 5.92 72.45 2.36 97.11.62 109.09.12 111.53.02 172.69c-.04 20.39 0 47.22 0 83.21 0 106.82.12 138.05.63 144.12 1.77 21.35 5.12 34.78 12.21 49.47 13.55 28.12 39.42 49.23 69.89 57.11 10.55 2.72 22.21 4.21 37.17 4.92 6.34.28 70.96.47 135.62.47s129.31-.08 135.5-.39c17.33-.82 27.39-2.17 38.51-5.04 30.67-7.92 56.07-28.71 69.89-57.23 6.95-14.34 10.47-28.28 12.07-48.51.35-4.41.49-74.75.49-144.99s-.16-140.46-.5-144.87c-1.61-20.56-5.14-34.39-12.31-49-5.89-11.96-12.42-20.9-21.91-30.03-16.94-16.18-37.65-26.03-62.33-29.59C402.99.61 400.61.1 339.42-.01H256.1Z" style="fill:url(#d)"/><path d="M256.1 65.74c-51.7 0-58.19.23-78.49 1.15-20.27.93-34.1 4.13-46.2 8.84-12.52 4.86-23.14 11.36-33.72 21.93-10.59 10.57-17.09 21.19-21.97 33.69-4.72 12.1-7.93 25.93-8.84 46.17-.91 20.29-1.15 26.78-1.15 78.44s.23 58.13 1.15 78.42c.93 20.25 4.14 34.07 8.84 46.17 4.87 12.51 11.37 23.12 21.96 33.7 10.58 10.58 21.2 17.1 33.71 21.96 12.11 4.7 25.95 7.91 46.21 8.84 20.31.92 26.79 1.15 78.49 1.15s58.17-.23 78.48-1.15c20.27-.93 34.12-4.13 46.23-8.84 12.52-4.86 23.12-11.37 33.7-21.95 10.59-10.57 17.09-21.19 21.97-33.69 4.68-12.1 7.89-25.93 8.84-46.17.91-20.29 1.15-26.76 1.15-78.42s-.24-58.15-1.15-78.44c-.95-20.25-4.16-34.07-8.84-46.17-4.88-12.51-11.38-23.12-21.97-33.7s-21.18-17.08-33.71-21.94c-12.14-4.7-25.98-7.91-46.24-8.84-20.31-.92-26.77-1.15-78.49-1.15h.06Zm-17.07 34.28h17.08c50.83 0 56.85.18 76.92 1.09 18.56.85 28.63 3.95 35.34 6.55 8.88 3.45 15.22 7.57 21.88 14.23s10.79 13 14.25 21.88c2.61 6.7 5.71 16.76 6.56 35.31.91 20.05 1.11 26.08 1.11 76.84s-.2 56.79-1.11 76.84c-.85 18.55-3.95 28.61-6.56 35.31-3.45 8.88-7.58 15.2-14.25 21.85-6.66 6.66-12.99 10.78-21.88 14.23-6.7 2.62-16.78 5.71-35.34 6.55-20.07.91-26.1 1.11-76.92 1.11s-56.86-.2-76.92-1.11c-18.56-.86-28.63-3.95-35.35-6.56-8.88-3.45-15.23-7.57-21.89-14.23s-10.79-12.98-14.25-21.86c-2.61-6.7-5.71-16.76-6.56-35.31-.91-20.05-1.09-26.08-1.09-76.87s.18-56.79 1.09-76.84c.85-18.55 3.95-28.61 6.56-35.32 3.45-8.88 7.58-15.22 14.25-21.88 6.66-6.66 13.01-10.78 21.89-14.24 6.71-2.62 16.79-5.71 35.35-6.56 17.56-.79 24.37-1.03 59.85-1.07v.05Zm118.69 31.59c-12.61 0-22.84 10.21-22.84 22.82s10.23 22.83 22.84 22.83 22.84-10.22 22.84-22.83-10.23-22.83-22.84-22.83ZM256.1 158.28c-53.99 0-97.76 43.74-97.76 97.69s43.77 97.67 97.76 97.67 97.74-43.72 97.74-97.67-43.76-97.69-97.75-97.69Zm0 34.28c35.04 0 63.46 28.39 63.46 63.41s-28.41 63.41-63.46 63.41-63.46-28.39-63.46-63.41 28.41-63.41 63.46-63.41" style="fill:#fff"/></svg>