<svg xmlns="http://www.w3.org/2000/svg" viewBox="0 0 524.95 512">
  <path fill="currentColor" fill-rule="evenodd" d="M262.48,0C117.46,0,0,117.46,0,262.48c0,116.15,75.13,214.25,179.47,249.02,13.12,2.3,18.05-5.58,18.05-12.47,0-6.23-.33-26.9-.33-48.89-65.95,12.14-83.01-16.08-88.26-30.84-2.95-7.55-15.75-30.84-26.9-37.07-9.19-4.92-22.31-17.06-.33-17.39,20.67-.33,35.43,19.03,40.36,26.9,23.62,39.7,61.35,28.54,76.45,21.65,2.3-17.06,9.19-28.54,16.73-35.11-58.4-6.56-119.43-29.2-119.43-129.6,0-28.54,10.17-52.17,26.9-70.54-2.62-6.56-11.81-33.47,2.62-69.56,0,0,21.98-6.89,72.18,26.9,21-5.91,43.31-8.86,65.62-8.86s44.62,2.95,65.62,8.86c50.2-34.12,72.18-26.9,72.18-26.9,14.44,36.09,5.25,62.99,2.62,69.56,16.73,18.37,26.9,41.67,26.9,70.54,0,100.72-61.35,123.04-119.75,129.6,9.51,8.2,17.72,23.95,17.72,48.56,0,35.11-.33,63.32-.33,72.18,0,6.89,4.92,15.09,18.05,12.47,103.68-34.78,178.81-133.21,178.81-249.02C524.95,117.46,407.49,0,262.48,0Z"/>
</svg>
