<svg xmlns="http://www.w3.org/2000/svg" viewBox="0 0 675.43 512"><path d="M432.8 0c-6.6 11.72-12.53 23.84-17.92 36.23-51.19-7.68-103.32-7.68-154.64 0-5.25-12.39-11.32-24.52-17.92-36.23-48.09 8.22-94.96 22.63-139.42 42.97C14.82 173.5-9.02 300.65 2.83 426.06c51.59 38.12 109.38 67.22 170.94 85.8 13.87-18.59 26.13-38.39 36.64-59-19.94-7.41-39.2-16.7-57.65-27.48 4.85-3.5 9.56-7.14 14.14-10.64 108.17 50.92 233.44 50.92 341.74 0 4.58 3.77 9.29 7.41 14.14 10.64-18.45 10.91-37.72 20.07-57.79 27.61 10.51 20.61 22.76 40.41 36.64 59 61.56-18.59 119.34-47.55 170.94-85.67 14.01-145.48-23.98-271.56-100.36-383.23A554.5 554.5 0 0 0 432.93.27zM225.49 348.88c-33.27 0-60.88-30.17-60.88-67.49s26.54-67.62 60.75-67.62 61.42 30.44 60.88 67.62-26.81 67.49-60.75 67.49m224.42 0c-33.41 0-60.75-30.17-60.75-67.49s26.54-67.62 60.75-67.62 61.29 30.44 60.75 67.62-26.81 67.49-60.75 67.49" style="fill:#5865f2"/></svg>