<?xml version="1.0" encoding="UTF-8"?>
<svg id="Layer_1" data-name="Layer 1" xmlns="http://www.w3.org/2000/svg" viewBox="0 0 442.27 512" fill="currentColor">
  <defs>
    <style>
      .tiktok-cyan {
        fill: #00f7ef;
      }

      .tiktok-red {
        fill: #ff004f;
      }
    </style>
  </defs>
  <path class="tiktok-red" d="M442.27,147.99v79.1c-4.26,0-9.36.86-14.46.86-37.09-.19-72.93-13.45-101.21-37.44v168.4c.16,33.15-10.6,65.44-30.61,91.87-28.6,38.47-73.68,61.17-121.62,61.22-52.28,0-100.85-27.02-128.43-71.44,27.22,25.51,63.77,41.68,103.76,41.68,47.74.11,92.64-22.66,120.75-61.24,18.72-25.51,30.63-56.98,30.63-91.85v-169.26c27.22,23.82,62.08,37.44,101.21,37.44,5.1,0,9.36,0,14.46-.86v-51.02c7.65,1.71,14.46,2.55,22.11,2.55,0,0,3.39,0,3.39,0Z"/>
  <path class="tiktok-red" d="M195.64,206.66v87.61c-6.1-1.68-12.39-2.54-18.72-2.55-37.44,0-68.05,31.47-68.05,69.74,0,8.52,1.71,16.17,4.26,23.82-17.01-12.75-28.92-33.18-28.92-56.14,0-38.26,30.61-69.74,68.05-69.74,6.79,0,12.75.86,18.7,2.55v-56.14h5.1c6.81,0,13.62,0,19.56.86l.02-.02ZM339.35,85.04c-15.3-13.62-26.37-32.32-32.32-51.88h20.43v11.91c1.87,13.87,5.88,27.36,11.89,39.99v-.02Z"/>
  <path d="M417.6,146.28v51.02c-4.26.86-9.36.86-14.46.86-37.08-.18-72.92-13.42-101.21-37.4v168.4c.15,33.14-10.61,65.41-30.61,91.83-28.08,37.44-71.44,61.24-120.77,61.24-39.99,0-76.55-16.15-103.76-41.68-14.98-24.29-22.92-52.25-22.96-80.78,0-82.51,65.5-149.7,147.13-152.25v56.14c-6.09-1.68-12.38-2.54-18.7-2.55-37.44,0-68.05,31.45-68.05,69.74,0,22.96,11.07,44.23,28.92,56.14,9.36,26.37,34.87,45.91,63.77,45.91,37.44,0,68.05-31.47,68.05-69.74V33.16h62.08c5.97,20.43,17.01,38.26,32.32,51.88,15.65,31.06,44.35,53.51,78.25,61.24Z"/>
  <g>
    <path class="tiktok-cyan" d="M170.95,176.91v28.88c-81.65,2.55-147.13,69.74-147.13,152.25,0,29.77,8.5,56.98,22.96,80.8C16.66,409.64-.23,369.41,0,327.46,0,243.24,68.05,175.21,151.39,175.21c6.81,0,13.62.86,19.56,1.71Z"/>
    <path class="tiktok-cyan" d="M307.03,33.16h-62.08v328.3c0,38.26-30.61,69.76-68.03,69.76-29.77,0-54.43-18.72-63.79-45.94,11.05,7.65,24.64,12.75,39.13,12.75,37.4,0,68.03-30.61,68.03-68.89V0h82.51v1.71c0,3.39,0,6.79.84,10.2,0,6.81,1.71,14.46,3.39,21.25ZM417.6,114.81v30.63c-34.03-6.81-62.93-29.77-79.1-60.4,21.38,20.01,49.83,30.72,79.1,29.77Z"/>
  </g>
</svg>
