<?xml version="1.0" encoding="UTF-8"?>
<svg xmlns="http://www.w3.org/2000/svg" version="1.1" viewBox="0 0 640 640"><path fill="currentColor" d="M87.97,64.02c13.3,0,24,10.7,24,24v78.1l27.1-27.1c100-100,262.1-100,362,0s100,262.1,0,362c-100,99.9-262.1,100-362,0-14.9-14.9-27.6-31.2-38.1-48.5-6.9-11.3-3.2-26.1,8.1-33s26.1-3.2,33,8.1c8.5,14,18.8,27.3,31,39.4,81.2,81.2,212.9,81.2,294.2,0s81.2-212.9,0-294.2-212.9-81.2-294.2,0l-27.1,27.1h78.2c13.3,0,24,10.7,24,24s-10.7,24-24,24l-136.2.1c-13.3,0-24-10.7-24-24V88.02c0-13.3,10.7-24,24-24"/>
</svg>
