<?xml version="1.0" encoding="UTF-8"?>
<svg xmlns="http://www.w3.org/2000/svg" version="1.1" viewBox="0 0 640 640"><path fill="currentColor" d="M296,48c3.3,0,6.2,2,7.4,5l14.8,36.8,36.8,14.8c3,1.2,5,4.2,5,7.4s-2,6.2-5,7.4l-36.8,14.8-14.8,36.8c-1.2,3-4.2,5-7.4,5s-6.2-2-7.4-5l-14.8-36.8-36.8-14.8c-3-1.2-5-4.2-5-7.4s2-6.2,5-7.4l36.8-14.8,14.8-36.8c1.2-3,4.2-5,7.4-5M500,128c-1.3,0-2.6.5-3.5,1.5l-106.6,106.5,38.1,38.1,106.5-106.6c.9-.9,1.5-2.2,1.5-3.5s-.5-2.6-1.5-3.5l-31-31c-.9-.9-2.2-1.5-3.5-1.5M121.5,504.5c-.9.9-1.5,2.2-1.5,3.5s.5,2.6,1.5,3.5l31,31c.9.9,2.2,1.5,3.5,1.5s2.6-.5,3.5-1.5l234.6-234.5-38.1-38.1-234.5,234.6ZM462.6,95.5c9.9-9.9,23.4-15.5,37.4-15.5s27.5,5.6,37.5,15.5l31,31c9.9,10,15.5,23.5,15.5,37.5s-5.6,27.5-15.5,37.5l-375,375c-10,9.9-23.5,15.5-37.5,15.5s-27.5-5.6-37.5-15.5l-31-31c-9.9-10-15.5-23.5-15.5-37.5s5.6-27.5,15.5-37.5L462.5,95.5h.1ZM150.7,121.7l21.5,50.1,50.1,21.5c5.9,2.5,9.7,8.3,9.7,14.7s-3.8,12.2-9.7,14.7l-50.1,21.5-21.5,50.1c-2.5,5.9-8.3,9.7-14.7,9.7s-12.2-3.8-14.7-9.7l-21.5-50.1-50.1-21.5c-5.9-2.5-9.7-8.3-9.7-14.7s3.8-12.2,9.7-14.7l50.1-21.5,21.5-50.1c2.5-5.9,8.3-9.7,14.7-9.7s12.2,3.8,14.7,9.7M518.7,393.7l21.5,50.1,50.1,21.5c5.9,2.5,9.7,8.3,9.7,14.7s-3.8,12.2-9.7,14.7l-50.1,21.5-21.5,50.1c-2.5,5.9-8.3,9.7-14.7,9.7s-12.2-3.8-14.7-9.7l-21.5-50.1-50.1-21.5c-5.9-2.5-9.7-8.3-9.7-14.7s3.8-12.2,9.7-14.7l50.1-21.5,21.5-50.1c2.5-5.9,8.3-9.7,14.7-9.7s12.2,3.8,14.7,9.7"/>
</svg>
