<svg xmlns="http://www.w3.org/2000/svg" viewBox="0 0 48 48"><path d="M5.127.207c-.522.14-.807.306-1.647.959C2.271 2.104.785 3.795.389 4.683.125 5.275.093 6.211.315 6.866c.348 1.029.855 1.57 2.347 2.502 1.889 1.18 3.878 2.143 6.267 3.032.898.335 1.16.4 1.612.399 1.283-.002 2.339-1.048 2.339-2.317 0-1.032-1.738-5.044-3.299-7.617C8.54 1.149 7.957.59 6.852.249 6.219.054 5.739.042 5.127.207m36.16-.005c-.971.272-1.652.846-2.436 2.053-1.157 1.78-2.22 3.907-3.11 6.225-.754 1.962-.724 2.787.132 3.643.72.721 1.568.857 2.772.447 3.016-1.027 6.885-3.03 8.161-4.224 1.017-.95 1.375-2.444.868-3.621-.575-1.338-3.056-3.822-4.39-4.396-.551-.237-1.411-.292-1.997-.127M6.222 3.26c.214.188 1.083 1.603 1.699 2.769.51.963 1.539 3.258 1.485 3.312-.053.052-1.756-.675-2.756-1.176C5.611 7.644 4.172 6.81 3.624 6.41c-.569-.415-.571-.476-.033-1.145.756-.94 2.056-2.129 2.34-2.14.072-.003.203.058.291.135m36.608.343c.829.667 2.05 2.055 2.05 2.331 0 .065-.081.194-.18.286-.263.246-1.775 1.156-2.89 1.74-1.07.56-3.077 1.439-3.141 1.375-.132-.131 1.534-3.569 2.417-4.99.62-.997.807-1.225 1.003-1.225.078 0 .411.217.741.483M23.2 7.606c-.411.187-.762.494-.93.815-.063.122-.559 1.418-1.102 2.88-1.162 3.129-1.324 3.524-1.74 4.238a10.62 10.62 0 0 1-4.948 4.41c-.286.123-1.689.656-3.117 1.185-1.429.528-2.725 1.026-2.88 1.106-1.269.653-1.383 2.552-.202 3.352.156.105 1.515.649 3.021 1.209 3.257 1.21 3.553 1.332 4.34 1.798a10.376 10.376 0 0 1 4.077 4.398c.238.486.89 2.125 1.449 3.643.558 1.518 1.108 2.891 1.222 3.051.356.501 1.03.862 1.61.862.58 0 1.254-.361 1.61-.862.114-.16.664-1.533 1.222-3.051.559-1.518 1.211-3.157 1.449-3.643a10.376 10.376 0 0 1 4.077-4.398c.787-.466 1.083-.588 4.34-1.798 1.506-.56 2.865-1.104 3.021-1.209 1.196-.81 1.061-2.72-.24-3.375-.132-.067-1.41-.554-2.84-1.083a129.849 129.849 0 0 1-3.178-1.21c-1.98-.845-3.753-2.436-4.889-4.385-.416-.714-.578-1.109-1.74-4.238-.543-1.462-1.039-2.758-1.102-2.88-.296-.567-1.023-.977-1.73-.977-.272 0-.578.062-.8.162m1.391 6.294c1.107 3.019 1.989 4.465 3.752 6.155 1.643 1.576 2.922 2.306 6 3.43.695.253 1.235.486 1.2.516-.035.031-.765.317-1.623.636-1.816.675-2.707 1.102-3.76 1.802a13.318 13.318 0 0 0-4.558 5.158c-.21.419-.645 1.474-.965 2.343-.321.869-.607 1.58-.637 1.58-.03 0-.316-.711-.637-1.58-.32-.869-.755-1.924-.965-2.343a13.318 13.318 0 0 0-4.558-5.158c-1.046-.695-1.935-1.122-3.76-1.803-.858-.321-1.588-.607-1.623-.637-.035-.029.649-.315 1.52-.636 2.831-1.042 4.078-1.774 5.733-3.362 1.171-1.123 2.215-2.574 2.851-3.961.162-.352.542-1.315.846-2.14.304-.825.571-1.5.593-1.5.022 0 .288.675.591 1.5M9.28 35.428c-2.367.81-5.068 2.135-7.124 3.494-.924.611-1.371 1.079-1.704 1.785-.231.491-.251.599-.251 1.373-.001.765.019.879.225 1.28.692 1.351 2.863 3.522 4.214 4.214.4.206.516.226 1.28.226.788 0 .876-.017 1.418-.271.9-.422 1.573-1.218 2.681-3.171 1.363-2.404 2.861-5.994 2.861-6.857 0-1.24-.964-2.254-2.236-2.354-.365-.028-.607.021-1.364.281M37 35.194c-1.037.251-1.806 1.198-1.811 2.229-.006 1.35 2.458 6.711 4.102 8.924.752 1.013 1.82 1.538 3.011 1.479 1.085-.053 2.101-.698 3.673-2.331 1.512-1.571 2.018-2.532 1.92-3.645-.081-.919-.55-1.823-1.241-2.394-1.253-1.035-4.282-2.64-6.921-3.669-1.643-.641-2.113-.743-2.733-.593M9.325 38.86c-.572 1.582-2.366 4.971-3.052 5.766-.233.268-.268.284-.443.189-.541-.292-2.221-1.969-2.575-2.571-.145-.246-.145-.246.08-.469.353-.35 1.614-1.101 3.185-1.897 1.095-.555 2.635-1.253 2.896-1.314.009-.002-.032.131-.091.296m31.145.489c2.01.91 4.293 2.275 4.379 2.618.06.241-.467.921-1.431 1.847-.792.76-1.259 1.091-1.442 1.021-.225-.086-1.378-1.956-2.12-3.441-.389-.778-1.057-2.29-1.168-2.648l-.055-.173.384.146c.21.08.865.364 1.453.63" fill-rule="evenodd"/></svg>