<svg xmlns="http://www.w3.org/2000/svg" viewBox="0 0 48 48"><path d="M9.44 1.6c-4.039.076-4.919.127-5.528.316-1.2.374-2.025 1.257-2.282 2.444-.129.596-.141 2.447-.02 3.153.218 1.27 1.081 2.21 2.39 2.605.918.277 3.38.316 20 .316s19.082-.039 20-.316c.618-.187 1.205-.538 1.584-.95.682-.74.894-1.48.893-3.128 0-2.068-.376-2.988-1.521-3.723-.732-.469-1.195-.559-3.316-.646-2.439-.099-27.787-.155-32.2-.071m30.589 3.045c1.71.043 3.171.112 3.248.153.302.162.292 2.247-.012 2.41-.271.145-4.646.229-14.625.282-6.46.034-11.995.018-16.24-.046-6.637-.101-7.607-.139-7.773-.305-.067-.067-.097-.43-.097-1.148 0-.901.019-1.065.137-1.151.197-.144 2.239-.212 8.493-.284 6.491-.073 22.577-.02 26.869.089M7.388 13.604c-1.239.033-2.504.101-2.812.153-1.436.243-2.589 1.257-2.944 2.591-.149.557-.149 2.747 0 3.304.245.922.958 1.797 1.818 2.233.694.352 1.297.436 3.695.516 2.92.098 16.79.098 19.71 0 3.008-.1 3.562-.236 4.517-1.11.866-.791 1.106-1.505 1.106-3.291s-.24-2.5-1.106-3.291c-.992-.908-1.441-1.003-5.184-1.107-3.211-.089-15.336-.088-18.8.002m20.024 3.028c1.972.073 1.989.079 2.071.845.03.288.03.758 0 1.046-.079.733-.152.771-1.632.848-4.044.211-21.991.138-22.822-.093-.47-.13-.509-.229-.509-1.297 0-.899.011-.964.183-1.104.101-.081.335-.171.52-.199 1.143-.171 17.838-.206 22.189-.046M8.4 25.609c-1.694.035-3.368.101-3.72.148-1.225.162-2.33.896-2.777 1.843-.324.687-.404 1.273-.366 2.691.027 1.027.065 1.355.2 1.722.362.988 1.082 1.683 2.113 2.041 1.019.355 2.186.381 17.15.381 14.965 0 16.131-.026 17.15-.381 1.02-.355 1.755-1.064 2.113-2.041.135-.367.173-.695.2-1.722.038-1.418-.042-2.004-.366-2.691-.44-.932-1.552-1.679-2.737-1.838-1.613-.216-20.91-.318-28.96-.153m26.26 3.033c1.354.04 2.529.109 2.612.154.191.102.29.946.208 1.766-.045.449-.089.579-.22.649-.279.149-3.533.223-12.22.278-8.186.051-18.817-.055-19.863-.199-.255-.035-.505-.106-.557-.158-.063-.063-.096-.447-.097-1.14-.003-.917.015-1.058.141-1.15.213-.156 1.704-.216 7.016-.286 5.488-.071 19.442-.019 22.98.086M6.24 37.601c-2.071.076-2.772.302-3.665 1.18a3.535 3.535 0 0 0-.97 1.708c-.105.455-.105 2.567 0 3.022.145.632.487 1.234.97 1.708.493.484.855.703 1.581.954.681.236 2.623.302 8.844.302 6.221 0 8.163-.066 8.844-.302.726-.251 1.089-.47 1.58-.954.823-.81 1.054-1.517 1.054-3.219 0-1.703-.231-2.408-1.054-3.219-.923-.909-1.51-1.085-3.944-1.183-2.071-.083-10.976-.081-13.24.003m11.41 2.957c3.558.081 3.639.095 3.784.616.109.391.11 1.258.002 1.646-.143.515-.277.545-2.786.624-2.823.089-8.361.089-11.259 0-2.553-.078-2.683-.107-2.827-.624-.108-.388-.107-1.255.002-1.646.144-.519.287-.546 3.274-.611 3.866-.084 6.328-.085 9.81-.005" fill-rule="evenodd"/></svg>