<svg xmlns="http://www.w3.org/2000/svg" viewBox="0 0 48 48"><path d="M9.44 1.6c-4.039.076-4.919.127-5.528.316-1.2.374-2.025 1.257-2.282 2.444-.129.596-.141 2.447-.02 3.153.218 1.27 1.081 2.21 2.39 2.605.918.277 3.38.316 20 .316s19.082-.039 20-.316c.618-.187 1.205-.538 1.584-.95.682-.74.894-1.48.893-3.128 0-2.068-.376-2.988-1.521-3.723-.732-.469-1.195-.559-3.316-.646-2.439-.099-27.787-.155-32.2-.071m30.589 3.045c1.71.043 3.171.112 3.248.153.302.162.292 2.247-.012 2.41-.271.145-4.646.229-14.625.282-6.46.034-11.995.018-16.24-.046-6.637-.101-7.607-.139-7.773-.305-.067-.067-.097-.43-.097-1.148 0-.901.019-1.065.137-1.151.197-.144 2.239-.212 8.493-.284 6.491-.073 22.577-.02 26.869.089m-25.608 8.954c-2.584.074-2.938.111-3.621.379-1.634.641-2.319 1.829-2.319 4.022 0 1.52.304 2.473 1.017 3.186.957.956 1.545 1.112 4.582 1.214 2.953.099 16.887.099 19.84 0 3.037-.102 3.625-.258 4.582-1.214.713-.713 1.017-1.666 1.017-3.186 0-2.204-.676-3.366-2.348-4.033-.436-.174-.763-.235-1.6-.296-1.337-.098-18.256-.156-21.15-.072M30.68 16.56c2.64.043 4.958.101 5.151.13.588.086.649.205.649 1.275 0 .509-.037.994-.081 1.078-.045.083-.217.188-.382.232-1.125.303-22.909.303-24.034 0-.165-.044-.337-.149-.382-.232-.044-.084-.081-.569-.081-1.078 0-1.1.058-1.201.733-1.285 1.233-.154 12.018-.224 18.427-.12M11.6 25.6c-3.447.076-4.101.121-4.671.317-.959.33-1.736.997-2.089 1.795-.497 1.125-.474 3.564.044 4.654.446.938 1.509 1.692 2.636 1.869.999.157 6.836.243 16.52.243 9.655 0 15.432-.085 16.44-.243 1.126-.177 2.19-.931 2.636-1.869.518-1.09.541-3.529.044-4.654-.225-.508-.799-1.146-1.292-1.435-.733-.429-1.165-.522-2.828-.606-1.978-.099-23.656-.156-27.44-.071m26.071 3.042c1.967.06 2.468.098 2.62.198.182.119.189.161.189 1.122 0 1.223-.032 1.275-.851 1.351-.977.092-9.594.205-15.629.205s-14.652-.113-15.629-.205c-.819-.076-.851-.128-.851-1.351 0-1.247-.046-1.205 1.4-1.286 3.278-.182 23.118-.206 28.751-.034M17.2 37.606c-.938.038-1.653.107-1.954.19-.648.177-1.306.595-1.832 1.163-.68.734-.933 1.559-.933 3.041 0 1.48.253 2.307.93 3.038.95 1.026 1.58 1.261 3.669 1.365 1.877.093 11.983.093 13.84-.001 1.975-.1 2.51-.271 3.388-1.084.529-.49.792-.891 1.021-1.558.219-.638.22-2.878.001-3.52a3.729 3.729 0 0 0-1.681-2.05c-.729-.43-1.168-.512-3.169-.591-2.119-.084-11.149-.079-13.28.007m13.992 3.026c.859.057.924.074 1.1.279.173.2.188.29.188 1.1 0 .86-.006.887-.225 1.106-.212.212-.282.229-1.18.293-1.242.088-12.908.088-14.15 0-.898-.064-.968-.081-1.18-.293-.219-.219-.225-.247-.225-1.1 0-.993.105-1.236.581-1.343.757-.17 12.653-.203 15.091-.042" fill-rule="evenodd"/></svg>