<svg xmlns="http://www.w3.org/2000/svg" viewBox="0 0 48 48"><path d="M22.8 1.367c-.8.039-1.204.098-1.56.225-1.473.529-2.621 1.905-2.914 3.494-.134.722-.467 10.569-.647 19.114a417.075 417.075 0 0 1-.102 4.288c-.016.195-.096.143-1.217-.777-1.898-1.558-2.633-1.908-4-1.906-.86.001-1.405.15-2.1.572-1.489.903-2.677 2.294-3.119 3.649-.335 1.027-.175 2.314.418 3.374.833 1.488 6.313 6.821 10.161 9.888 2.692 2.145 3.946 2.944 5.08 3.237.632.163 1.86.183 2.52.041 1.183-.254 2.666-1.198 5.386-3.426 3.474-2.847 8.936-8.312 9.735-9.74.715-1.277.782-2.799.178-4-.704-1.397-2.291-2.883-3.642-3.409-.357-.139-.631-.179-1.257-.183-1.444-.011-2.127.308-4.107 1.922l-1.19.969-.054-2.569c-.152-7.21-.495-18.546-.607-20.098-.058-.792-.128-1.191-.29-1.64-.483-1.34-1.474-2.362-2.712-2.796-.651-.228-2.177-.316-3.96-.229m2.84 3.041c.408.111.737.415.943.872.146.323.173.65.265 3.16.214 5.869.439 14.288.557 20.84.045 2.449.071 2.884.191 3.163.344.796 1.384 1.144 2.084.698.11-.071 1.256-.989 2.546-2.042 1.29-1.053 2.496-2.001 2.68-2.106.531-.304.967-.266 1.571.138.489.326 1.171 1.06 1.403 1.509.156.301.153.903-.004 1.208-.266.514-2.819 3.237-4.897 5.223-3.489 3.333-6.967 6.126-8.086 6.492-.552.181-1.287.125-1.864-.141-.78-.36-3.483-2.434-5.709-4.378-2.734-2.389-6.629-6.267-7.14-7.108a1.302 1.302 0 0 1-.18-.707c0-.347.05-.486.321-.891a4.386 4.386 0 0 1 1.342-1.304c.469-.298.955-.313 1.424-.045.18.103 1.419 1.078 2.753 2.166 1.335 1.089 2.52 2.015 2.633 2.058.581.221 1.116.132 1.563-.26.508-.447.506-.423.602-5.713.114-6.29.353-14.839.557-19.967.059-1.487.091-1.77.229-2.04.213-.413.551-.722.896-.819.385-.109 2.925-.113 3.32-.006" fill-rule="evenodd"/></svg>