<svg xmlns="http://www.w3.org/2000/svg" viewBox="0 0 48 48"><path d="M21.84.566c-2.115.092-2.845.359-3.922 1.433a4.696 4.696 0 0 0-1.306 2.321c-.163.683-.555 7.52-.769 13.4-.101 2.776-.15 3.734-.194 3.778-.019.019-.767-.603-1.662-1.382-1.975-1.719-2.362-2.021-3.012-2.349-1.051-.53-2.451-.707-3.483-.44-1.698.438-4.158 2.577-5.359 4.659-.775 1.343-1.08 2.557-.926 3.672.175 1.259.609 2.08 2.134 4.034 3.697 4.738 9.338 10.418 15.345 15.447 1.765 1.478 2.522 1.897 3.948 2.185.888.179 2.437.125 3.236-.114 1.179-.352 1.823-.734 3.25-1.923 5.213-4.347 10.63-9.665 14.184-13.927 2.895-3.471 3.522-4.605 3.519-6.36-.001-.602-.044-.844-.263-1.48-.486-1.414-1.345-2.713-2.611-3.947-1.203-1.172-2.462-1.994-3.441-2.246-1.032-.267-2.432-.09-3.483.44-.65.328-1.037.63-3.012 2.349-.895.779-1.644 1.4-1.663 1.38-.049-.048-.095-.941-.192-3.696-.166-4.711-.587-12.492-.715-13.208-.327-1.827-1.705-3.377-3.41-3.834C27.731.677 26.94.605 25.84.559c-1.894-.08-1.987-.08-4 .007m4.823 3.027c.892.078 1.267.307 1.602.976.213.426.231.548.338 2.28.27 4.369.492 9.375.739 16.631.053 1.555.079 1.797.226 2.08.349.67 1.297.979 1.958.637.151-.078 1.012-.793 1.914-1.59 4.006-3.537 4.617-4.046 5.11-4.258.434-.186 1.183-.171 1.57.031 1.17.61 2.652 2.142 3.309 3.42.702 1.365.568 1.847-1.111 4-3.555 4.555-8.725 9.766-14.798 14.914-.638.54-1.34 1.087-1.56 1.214a3.996 3.996 0 0 1-2.56.475c-.904-.139-1.523-.499-3.001-1.745-6.167-5.2-11.798-10.936-15.174-15.458-.758-1.015-1.065-1.626-1.065-2.119 0-1.05 1.406-3.047 2.96-4.206.718-.536 1.02-.662 1.57-.659.879.006 1.027.119 6.645 5.073.84.74 1.129.948 1.42 1.021.776.196 1.593-.278 1.787-1.036.05-.195.112-1.182.138-2.194.106-4.21.421-11.34.716-16.242.108-1.801.122-1.893.338-2.294.337-.624.755-.883 1.527-.948.883-.074 4.569-.076 5.402-.003" fill-rule="evenodd"/></svg>