<svg xmlns="http://www.w3.org/2000/svg" viewBox="0 0 48 48"><path d="M22.445 1.214c-1.242.125-2.16.595-4.073 2.085C13.606 7.01 7.754 12.84 2.614 18.998 1.14 20.764.66 21.871.583 23.68c-.048 1.15.074 1.976.423 2.847.358.895.718 1.43 1.958 2.907 5.525 6.586 12.017 12.897 16.731 16.267 1.182.845 2.62 1.266 3.773 1.106 1.14-.159 2.678-.885 3.81-1.8 1.168-.943 2.547-2.551 3.046-3.55.828-1.658.56-3.761-.685-5.377-.186-.242-.976-1.172-1.755-2.067-.779-.895-1.401-1.643-1.382-1.662.044-.043.997-.093 3.778-.194 4.987-.183 12.498-.592 13.156-.716 1.784-.339 3.245-1.61 3.769-3.281.393-1.255.414-6.945.03-8.24-.36-1.214-1.282-2.299-2.44-2.871a5.826 5.826 0 0 0-1.275-.448c-.81-.156-8.076-.556-13.8-.761l-2.871-.103-.471-.017 1.461-1.68c1.827-2.101 2.095-2.45 2.439-3.167.585-1.221.685-2.731.255-3.856-.514-1.343-2.375-3.489-3.894-4.492-1.564-1.031-2.881-1.443-4.194-1.311m1.162 3.095c1.136.393 2.561 1.532 3.517 2.811.526.704.661 1.021.657 1.545-.008.838-.222 1.142-3.206 4.549-1.491 1.702-2.758 3.208-2.815 3.347-.275.662.046 1.542.68 1.87.347.18.023.161 5.96.365 3.6.124 7.54.306 11.304.521 3.26.187 3.265.188 3.72.415.304.152.533.34.688.564.207.298.241.438.307 1.24.041.497.059 1.956.04 3.241-.034 2.293-.038 2.345-.231 2.719a1.883 1.883 0 0 1-1.286.974c-.905.176-10.546.642-18.182.88-1.819.057-2.03.078-2.333.235-.402.207-.627.503-.749.988-.163.648-.047.864 1.263 2.352 4.789 5.441 4.832 5.497 4.84 6.41.005.51-.103.778-.571 1.425-1.319 1.819-3.298 3.176-4.459 3.056-.761-.079-1.574-.632-4.471-3.046-3.852-3.209-8.706-8.15-12.938-13.169-1.284-1.523-1.623-2.115-1.736-3.026-.1-.806.029-1.679.337-2.295.212-.425.411-.688 1.451-1.92 5.179-6.136 10.951-11.812 15.353-15.096 1.537-1.147 1.927-1.277 2.86-.955" fill-rule="evenodd"/></svg>