<svg xmlns="http://www.w3.org/2000/svg" viewBox="0 0 48 48"><path d="M19.28 1.808c-3.672.14-7.941.452-8.708.637-.293.07-.874.294-1.292.497-.651.316-.87.478-1.529 1.135-.669.666-.816.864-1.132 1.524-.572 1.196-.661 1.763-.857 5.439-.197 3.684-.24 7.047-.241 18.642-.001 12.177 0 12.286.165 12.879.252.909.592 1.482 1.311 2.208.998 1.009 2.096 1.482 3.434 1.48 1.14-.001 2.008-.256 2.827-.83.266-.186 2.467-1.941 4.891-3.899 2.425-1.958 4.61-3.666 4.857-3.796a2.086 2.086 0 0 1 1.988 0c.247.13 2.432 1.838 4.857 3.796 2.424 1.958 4.625 3.713 4.891 3.899 1.417.993 3.392 1.121 4.975.323 1.303-.659 2.205-1.766 2.601-3.194.159-.576.162-.778.161-12.826-.001-11.581-.046-15.043-.24-18.682-.198-3.679-.287-4.244-.858-5.439-.316-.66-.463-.858-1.132-1.524-.659-.657-.878-.819-1.529-1.135-.991-.481-1.51-.598-3.293-.743-3.742-.303-5.528-.371-10.467-.394-2.75-.013-5.306-.011-5.68.003m11.04 3.074c2.139.101 5.072.304 5.88.407.352.044.828.166 1.057.27.595.27 1.18.849 1.468 1.451.219.459.25.631.354 1.967.328 4.194.46 11.648.425 24.023l-.024 8.8-.177.331c-.496.927-1.467 1.347-2.4 1.037-.31-.103-1.408-.949-5.148-3.967-2.939-2.371-4.96-3.945-5.291-4.121-1.5-.797-3.428-.797-4.928 0-.331.176-2.351 1.75-5.289 4.119-4.813 3.884-5.089 4.081-5.706 4.081-.723 0-1.483-.473-1.844-1.15l-.177-.33-.025-8.96c-.033-12.356.097-19.648.426-23.863.104-1.336.135-1.508.354-1.967.287-.602.873-1.181 1.468-1.451.232-.106.719-.227 1.097-.274 1.45-.179 5.876-.431 9.08-.517 1.576-.043 7.638.031 9.4.114" fill-rule="evenodd"/></svg>