<svg xmlns="http://www.w3.org/2000/svg" viewBox="0 0 48 48"><path d="M38 3.28c-1.516.155-2.992.979-4.002 2.236-.612.76-7.636 10.729-11.234 15.944-.873 1.265-1.611 2.3-1.641 2.3-.029 0-.609-.639-1.287-1.42-3.084-3.55-6.249-6.955-6.963-7.492-1.061-.798-2.222-1.173-3.642-1.176-1.921-.005-2.89.504-5.161 2.711-2.099 2.039-3.044 3.325-3.359 4.575-.224.886-.183 2.318.089 3.12.395 1.164.599 1.467 2.637 3.911 3.472 4.162 6.336 7.3 10.52 11.522 4.108 4.144 4.432 4.416 5.84 4.902 2.388.823 4.909.13 6.612-1.816 4.229-4.833 12.572-16.27 19.022-26.077 1.677-2.551 2.009-3.367 2.009-4.939 0-1.316-.383-2.309-1.35-3.501-1.912-2.356-5.099-4.595-6.779-4.763a27.573 27.573 0 0 1-.631-.069 4.803 4.803 0 0 0-.68.032m1.164 3.086c.885.3 2.415 1.363 3.545 2.463.975.948 1.577 1.78 1.693 2.342.115.551.005 1.223-.297 1.818-.475.939-6.201 9.373-9.449 13.92-3.832 5.364-8.999 12.088-10.565 13.75-1.122 1.19-2.572 1.43-3.922.65-.435-.251-4.987-4.746-7.321-7.229-3.783-4.023-8.509-9.506-8.965-10.4-.397-.776-.44-1.668-.116-2.357.453-.96 3.363-3.922 4.342-4.418.707-.358 1.636-.333 2.509.067.243.112.66.455 1.144.942 1.393 1.4 5.367 5.835 7.569 8.446.445.528.895 1.037.999 1.13.432.387 1.186.434 1.715.107.165-.102.88-1.071 2.08-2.816 4.543-6.61 11.93-17.09 12.385-17.569.802-.846 1.758-1.151 2.654-.846" fill-rule="evenodd"/></svg>