<svg xmlns="http://www.w3.org/2000/svg" viewBox="0 0 48 48"><path d="M14.08 1.906c-1.626.546-3.355 1.894-4.332 3.374-.781 1.185-.999 2.127-.757 3.28.15.719.711 1.884 1.174 2.44.183.22 2.319 2.47 4.747 5 7.092 7.391 7.608 7.933 7.608 8.003 0 .072-.964 1.087-6.759 7.117a1939.772 1939.772 0 0 0-4.763 4.97c-1.541 1.626-2.082 2.731-2.07 4.23.008.931.175 1.422.818 2.396 1.005 1.524 2.839 2.937 4.409 3.397.906.265 2.153.128 3.179-.349 1.309-.609 4.685-3.297 8.545-6.803 3.166-2.876 9.249-9.152 10.506-10.841.994-1.336 1.486-3.162 1.297-4.82-.222-1.953-.718-2.865-2.795-5.14-5.718-6.263-10.991-11.2-15.755-14.75-1.748-1.303-2.354-1.565-3.732-1.618-.709-.028-.965-.005-1.32.114m2.166 3.151c.537.301 2.483 1.785 4.083 3.117 3.705 3.081 7.898 7.148 11.952 11.59 1.564 1.715 1.745 1.943 2.042 2.577.618 1.321.447 2.979-.422 4.086-.824 1.05-4.817 5.279-7.078 7.496-3.447 3.381-6.454 6.004-9.463 8.257-1.025.768-1.655 1.098-2.094 1.099-.781.002-2.373-1.208-3.096-2.355-.369-.584-.321-1.061.182-1.817.136-.205 1.888-2.077 3.892-4.16 8.594-8.933 9.369-9.755 9.54-10.136a2.075 2.075 0 0 0 0-1.611c-.17-.382-.409-.635-8.7-9.268-2.466-2.568-4.596-4.836-4.732-5.04-.504-.755-.551-1.232-.181-1.816a6.063 6.063 0 0 1 2.276-2.083c.483-.253.602-.284.941-.244.218.025.594.16.858.308" fill-rule="evenodd"/></svg>