<svg xmlns="http://www.w3.org/2000/svg" viewBox="0 0 48 48"><path d="M22.44 10.447c-1.173.258-2.172.804-3.337 1.826C13.081 17.553 6.548 24.51 2.982 29.44c-1.194 1.652-1.517 3.187-.988 4.707.741 2.128 2.935 4.336 4.793 4.824 1.329.349 2.971-.104 4.262-1.177.193-.16 2.007-1.882 4.031-3.825 6.771-6.502 8.861-8.489 8.928-8.489.066 0 1.561 1.424 8.872 8.448 2.046 1.965 3.9 3.722 4.12 3.904 1.183.978 2.847 1.46 4.06 1.177 1.831-.428 3.959-2.445 4.842-4.587.246-.597.294-.816.322-1.466.054-1.24-.301-2.278-1.211-3.538-2.479-3.434-6.269-7.729-10.465-11.858-2.125-2.092-5.336-5.078-6.202-5.768-.677-.54-1.567-1.008-2.348-1.236-.8-.233-2.726-.292-3.558-.109m2.28 2.918a3.855 3.855 0 0 1 1.707.734c.519.407 2.804 2.502 4.611 4.23 4.295 4.105 7.97 8.144 10.837 11.911 1.34 1.761 1.549 2.26 1.262 3.015-.202.532-.648 1.193-1.146 1.699-1.51 1.534-2.143 1.504-3.905-.188l-3.006-2.891c-7.961-7.663-9.909-9.497-10.253-9.649-.467-.207-1.188-.207-1.646-.001-.35.157-.767.548-8.461 7.934-5.883 5.648-5.704 5.483-6.21 5.722-.644.305-1.073.257-1.659-.186-.92-.694-1.678-1.624-1.987-2.437-.298-.786-.092-1.252 1.43-3.231 3.388-4.409 7.731-9.029 13.321-14.172 1.706-1.569 2.153-1.925 2.773-2.203.782-.351 1.435-.431 2.332-.287" fill-rule="evenodd"/></svg>