<svg xmlns="http://www.w3.org/2000/svg" viewBox="0 0 48 48"><path d="M20.56.563c-3.49.096-4.15.195-5.038.756-.365.23-.912.752-1.21 1.155-.189.254-.239.276-.718.303-2.416.138-4.085.293-4.619.427-2.252.568-4.143 2.434-4.728 4.667-.693 2.649-.975 19.459-.485 28.929.146 2.826.315 4.679.485 5.329.59 2.25 2.46 4.089 4.749 4.671 1.425.362 8.865.718 15.004.718 6.139 0 13.579-.356 15.004-.718 2.6-.661 4.561-2.858 4.911-5.503.045-.339.135-1.445.2-2.457.285-4.411.325-6.109.325-13.84s-.04-9.429-.325-13.84c-.143-2.217-.23-2.916-.446-3.577-.701-2.149-2.491-3.836-4.644-4.379-.534-.134-2.203-.289-4.619-.427-.479-.027-.529-.048-.717-.303-.584-.791-1.459-1.414-2.29-1.631-.975-.254-6.564-.398-10.839-.28m8.08 3.042c2.303.105 2.495.171 2.718.946.079.279-.027 2.116-.161 2.777-.115.564-.391.815-1.004.911-1.977.309-10.409.309-12.386 0-.613-.096-.889-.347-1.004-.911-.146-.719-.24-2.492-.15-2.82.102-.368.474-.728.813-.786 1.056-.181 8.129-.255 11.174-.117M13.632 6.18c.17 1.64.22 1.988.339 2.342.425 1.264 1.614 2.336 2.917 2.631.938.212 3.364.321 7.112.321s6.174-.109 7.112-.321c1.303-.295 2.492-1.367 2.917-2.631.119-.354.169-.702.339-2.342l.044-.42.414.039c.228.022.99.078 1.694.124 1.939.128 2.613.353 3.389 1.128.752.753.991 1.437 1.125 3.229.517 6.899.591 18.944.164 26.84-.131 2.425-.241 3.692-.364 4.192-.314 1.273-1.271 2.23-2.565 2.568-.492.128-2.539.294-5.629.457-2.672.141-14.608.141-17.28 0-3.09-.163-5.137-.329-5.629-.457-1.526-.398-2.499-1.573-2.683-3.24-.393-3.568-.629-13.151-.493-20.109.102-5.267.276-9.204.493-11.171.149-1.351.841-2.412 1.925-2.954.629-.314 1.03-.388 2.827-.517l1.654-.119c.105-.008.144.082.178.41m-.022 12.38c-.783.185-1.266 1.038-1.048 1.848.118.436.576.905 1 1.023.449.124 20.427.124 20.876 0 .175-.049.451-.221.613-.383.826-.826.433-2.229-.697-2.491-.387-.09-20.363-.087-20.744.003m0 8c-.783.185-1.266 1.038-1.048 1.848.118.436.576.905 1 1.023.449.124 20.427.124 20.876 0 .175-.049.451-.221.613-.383.826-.826.433-2.229-.697-2.491-.387-.09-20.363-.087-20.744.003m0 8c-.783.185-1.266 1.038-1.048 1.848.118.436.576.905 1 1.023.449.124 20.427.124 20.876 0 .175-.049.451-.221.613-.383.826-.826.433-2.229-.697-2.491-.387-.09-20.363-.087-20.744.003" fill-rule="evenodd"/></svg>