<svg xmlns="http://www.w3.org/2000/svg" viewBox="0 0 48 48"><path d="M21.28 6.243c-5.314.162-6.116.275-7.707 1.085-.792.403-1.041.585-2.413 1.76-1.531 1.311-4.273 4.051-5.572 5.569-1.97 2.301-3.68 4.65-4.27 5.863a7.94 7.94 0 0 0-.001 6.96c.575 1.188 2.308 3.566 4.281 5.873 2.098 2.454 6.101 6.223 7.522 7.082.736.445 1.93.884 2.831 1.041 1.619.283 11.813.477 18.929.362 5.138-.084 6.172-.142 7.124-.402 2.367-.648 4.412-2.71 5.035-5.076.234-.889.3-2.131.407-7.618.07-3.589.07-5.904-.001-9.541-.105-5.464-.17-6.659-.406-7.561-.627-2.389-2.709-4.467-5.097-5.087-.342-.089-1.09-.197-1.662-.239-1.389-.103-16.118-.158-19-.071m17.88 3.032c1.948.077 2.373.179 3.266.782.874.589 1.517 1.505 1.738 2.472.242 1.062.385 11.347.244 17.591-.122 5.438-.142 5.594-.863 6.695a4.048 4.048 0 0 1-2.441 1.739c-1.921.491-23.162.39-25.061-.12-.695-.186-1.382-.521-1.883-.917-1.586-1.254-4.463-4.028-5.971-5.757-1.792-2.054-3.581-4.452-4.129-5.531a5.027 5.027 0 0 1 0-4.458c.548-1.079 2.337-3.477 4.129-5.531 1.506-1.727 4.42-4.537 5.956-5.743a5.394 5.394 0 0 1 1.942-.936c.576-.139 2.83-.252 7.153-.359 3.121-.077 13.318-.031 15.92.073m-16.807 4.087c-.516.103-.993.361-1.681.911-1.194.956-2.283 2.243-2.595 3.069-.343.907-.165 2.182.429 3.066.159.238.956 1.133 1.772 1.99.815.856 1.482 1.576 1.482 1.6-.001.023-.618.69-1.373 1.482-2.085 2.189-2.301 2.509-2.456 3.649-.099.721-.018 1.212.307 1.876.397.812 1.703 2.22 2.824 3.045 1.026.755 2.267.862 3.469.299.564-.264.808-.469 2.531-2.123l1.502-1.443.634.589A733.4 733.4 0 0 1 30.942 33c1.176 1.101 1.62 1.399 2.381 1.597 1.378.359 2.415-.051 3.968-1.57.892-.872 1.438-1.545 1.72-2.12.21-.428.229-.54.229-1.347-.001-.855-.009-.898-.302-1.498-.318-.651-.719-1.117-2.652-3.082l-.964-.98.965-.98c2.533-2.573 2.889-3.089 2.972-4.306.084-1.226-.313-2.055-1.629-3.397-1.689-1.723-2.677-2.204-4.03-1.963-1.077.193-1.37.406-4.122 3l-.927.874-1.016-1c-1.721-1.696-2.384-2.271-2.915-2.529-.792-.385-1.497-.489-2.267-.337m1.563 3.554c.357.328 1.369 1.291 2.248 2.14.88.849 1.698 1.587 1.818 1.64.315.14.945.125 1.242-.028.141-.073 1.03-.877 1.976-1.787 2.384-2.294 2.687-2.561 2.906-2.561.305 0 1.831 1.425 2.128 1.987.085.161.072.226-.1.48-.11.161-1.034 1.157-2.055 2.213-2.367 2.45-2.279 2.334-2.279 2.994 0 .371.041.584.139.722.076.108 1.048 1.146 2.16 2.306 1.112 1.16 2.07 2.202 2.129 2.314.154.292.044.463-.93 1.439-.834.836-1.092.99-1.404.843-.096-.045-1.131-1-2.3-2.121-1.169-1.121-2.239-2.097-2.376-2.168-.306-.158-.894-.167-1.241-.019-.141.06-.96.789-1.82 1.62-2.8 2.706-2.85 2.75-3.117 2.75-.202 0-.396-.152-1.157-.908-.956-.95-1.107-1.203-.902-1.513.065-.098 1.057-1.159 2.204-2.357 2.348-2.451 2.393-2.521 2.169-3.329-.068-.243-.527-.767-2.169-2.48-1.146-1.195-2.138-2.254-2.203-2.352-.178-.267-.083-.477.507-1.125.679-.746 1.354-1.296 1.592-1.296.119 0 .416.212.835.596" fill-rule="evenodd"/></svg>