<svg xmlns="http://www.w3.org/2000/svg" viewBox="0 0 48 48"><path d="M13.28 5.607c-3.475.125-7.008.41-7.899.638-2.075.531-3.772 2.257-4.258 4.332C.489 13.282.288 26.054.763 33.36c.225 3.448.319 4 .879 5.16a6.112 6.112 0 0 0 2.798 2.796c1.143.565 1.662.659 4.84.879 3.471.241 6.275.305 11.36.26 4.902-.043 6.179-.09 9.24-.339 3.761-.306 4.618-.477 6.041-1.204.911-.466 1.795-1.189 2.9-2.372 2.82-3.018 4.928-6.085 6.775-9.86 1.191-2.434 1.413-3.276 1.338-5.08-.062-1.492-.229-2.08-1.126-3.958a39.71 39.71 0 0 0-6.667-9.846C37.675 8.212 36.895 7.564 35.8 7.02c-1.391-.69-2.731-.917-7.2-1.218-4.021-.271-10.807-.358-15.32-.195m9.68 2.955c4.543.116 9.244.46 10.44.762 1.233.312 2.069.906 3.563 2.532a36.75 36.75 0 0 1 6.196 9.212c.725 1.527.909 2.368.764 3.507-.105.826-.231 1.164-1.087 2.905-1.614 3.284-3.591 6.18-6.008 8.801-1.054 1.143-1.727 1.704-2.44 2.036-.947.441-1.495.535-4.628.798-3.392.284-5.58.357-10.68.357-4.86 0-6.664-.056-10.28-.319-2.511-.183-3-.324-3.817-1.096-.548-.519-.863-1.169-.976-2.017-.14-1.045-.314-3.971-.415-6.96-.103-3.078-.053-11.215.084-13.52.131-2.222.249-3.652.339-4.12.252-1.32 1.263-2.202 2.745-2.394 1.531-.199 6.351-.465 9.28-.511 3.15-.051 4.053-.047 6.92.027m-8.946 5.997a3.94 3.94 0 0 0-.926.311c-1.005.495-2.778 2.276-3.27 3.285-.241.494-.256.577-.255 1.405.001 1.391.26 1.901 1.771 3.477l.922.963-.922.963c-1.511 1.576-1.77 2.086-1.771 3.477-.001.827.014.912.253 1.402.472.966 2.201 2.727 3.2 3.258 1.128.6 2.512.501 3.659-.26.239-.159.848-.683 1.352-1.164.504-.482.942-.876.973-.876.031 0 .469.394.973.876.504.481 1.113 1.005 1.352 1.164 1.147.761 2.531.86 3.658.261 1.008-.536 2.715-2.275 3.2-3.261.242-.492.256-.568.253-1.4-.006-1.399-.25-1.879-1.76-3.464l-.931-.977.922-.962c1.506-1.572 1.763-2.078 1.769-3.477.003-.83-.011-.909-.252-1.402-.489-1.001-2.273-2.796-3.263-3.283-.624-.308-1.416-.428-2.053-.313-1.069.194-1.575.502-2.895 1.762-.504.482-.942.876-.973.876-.031 0-.469-.394-.973-.876-.504-.481-1.118-1.008-1.364-1.172-.755-.501-1.769-.728-2.649-.593m1.184 3.239c.183.153.926.846 1.652 1.54.725.694 1.416 1.305 1.534 1.358.278.124.955.124 1.229 0 .118-.053.928-.772 1.8-1.599s1.667-1.524 1.766-1.549c.347-.087.587.06 1.362.834.956.954 1.055 1.121.884 1.479-.069.143-.768.936-1.555 1.764-1.457 1.534-1.706 1.88-1.706 2.375-.001.504.285.899 1.787 2.471.985 1.032 1.498 1.629 1.532 1.783.065.294-.145.586-1.065 1.487-.682.667-.906.795-1.243.71-.101-.025-.878-.704-1.726-1.509-.847-.804-1.655-1.525-1.794-1.602-.313-.174-.945-.182-1.283-.017-.139.068-.954.789-1.811 1.603s-1.64 1.501-1.74 1.526c-.351.088-.596-.065-1.422-.891-.858-.858-.983-1.064-.852-1.404.042-.108.737-.893 1.544-1.744.808-.851 1.531-1.679 1.607-1.84a1.325 1.325 0 0 0 0-1.15c-.076-.164-.68-.866-1.343-1.56-2.199-2.306-2.118-2.133-1.398-2.966.681-.79 1.399-1.377 1.682-1.377.141 0 .352.105.559.278" fill-rule="evenodd"/></svg>