<svg xmlns="http://www.w3.org/2000/svg" viewBox="0 0 48 48"><path d="M17 1.124c-3.947.155-7.192.399-8.034.603-1.198.292-2.539 1.144-3.392 2.159-.559.663-1.117 1.761-1.333 2.622-.379 1.506-.719 9.234-.72 16.367-.001 3.867.003 3.962.169 4.305.251.52.689.78 1.31.78.403 0 .552-.04.824-.22.651-.431.628-.255.688-5.22.06-4.992.156-8.307.33-11.44.21-3.762.283-4.181.878-5.046.51-.74 1.289-1.236 2.24-1.428.581-.116 3.301-.311 6.28-.448 2.2-.102 10.59-.2 10.971-.129l.289.054.053.979c.143 2.614.393 5.657.534 6.498.259 1.543 1.015 2.926 2.208 4.042a6.783 6.783 0 0 0 3.424 1.763c.743.149 3.712.413 6.235.555.788.044 1.441.089 1.452.1.01.011.044 2.018.076 4.46.065 5.009.041 4.828.694 5.26.272.18.421.22.824.22.621 0 1.059-.26 1.31-.78.167-.344.17-.433.169-4.545 0-2.346-.037-4.512-.083-4.915-.115-1.015-.332-1.68-.953-2.92-1.366-2.732-2.874-4.785-5.323-7.247-2.58-2.594-4.864-4.269-7.685-5.636-1.806-.876-1.423-.83-6.995-.844-2.662-.006-5.56.017-6.44.051m14.795 5.069c3.079 2.06 5.679 4.678 7.644 7.697.309.474.561.896.561.938 0 .158-5.116-.243-5.954-.467-.703-.187-1.223-.499-1.813-1.086a3.97 3.97 0 0 1-1.147-2.115c-.153-.763-.545-5.72-.453-5.72.02 0 .543.339 1.162.753M4.36 31.153c-.298.133-.642.495-.755.792-.118.314-.119 13.796 0 14.11.199.528.794.921 1.395.921s1.196-.393 1.395-.921c.052-.138.085-1.042.085-2.334v-2.108l2.18-.031c2.001-.029 2.226-.047 2.74-.214 1.77-.575 3.167-2.033 3.613-3.768.178-.692.175-1.958-.006-2.633-.504-1.877-2.125-3.451-3.951-3.837-.647-.137-6.382-.117-6.696.023m14.64.02c-.371.196-.53.359-.69.707-.138.303-.146.691-.146 7.12 0 6.471.007 6.816.149 7.129.193.426.59.723 1.114.836.286.061 1.376.078 3.436.054 3.3-.04 3.4-.052 4.409-.549.671-.33 1.637-1.282 1.993-1.965.55-1.051.575-1.294.575-5.505 0-3.497-.012-3.82-.158-4.392-.232-.909-.585-1.518-1.279-2.209-.66-.659-1.455-1.113-2.227-1.272-.267-.055-1.628-.086-3.68-.084-2.813.003-3.289.021-3.496.13m14.543.08c-.18.117-.413.36-.516.54l-.187.327v13.76l.197.344c.6 1.048 2.156.992 2.65-.095.137-.302.15-.57.151-3.225l.002-2.896 3.22-.024 3.22-.024.333-.191c.86-.493 1.065-1.524.448-2.257-.456-.542-.504-.548-4.041-.55l-3.18-.002V34h3.735c3.642 0 3.743-.004 4.085-.17.844-.408 1.09-1.586.477-2.284-.458-.522-.286-.506-5.518-.506h-4.747l-.329.213M10.807 34.21c.444.205.889.635 1.131 1.092.273.515.256 1.471-.036 2.029a2.83 2.83 0 0 1-.548.696c-.57.487-.824.533-2.968.533H6.48v-4.57l1.98.025c1.819.023 2.01.039 2.347.195m14.793-.131c.391.109.873.53 1.049.915.137.302.147.597.147 4.006 0 3.389-.011 3.705-.145 4.001-.183.403-.636.805-1.029.914-.174.049-1.171.084-2.362.085H21.2V34h2.06c1.133.001 2.186.036 2.34.079" fill-rule="evenodd"/></svg>