<svg xmlns="http://www.w3.org/2000/svg" viewBox="0 0 48 48"><path d="M35.343 3.404c-.831.202-1.564.637-2.265 1.347-.54.547-.794.908-1.61 2.289-1.714 2.902-2.991 5.239-4.83 8.84a121.107 121.107 0 0 1-1.18 2.28c-.02.022-.07-.014-.11-.08l-2.175-3.64c-2.686-4.496-3.578-5.948-3.994-6.498-.606-.804-1.625-1.495-2.715-1.844-.311-.099-.702-.135-1.464-.133-.919.001-1.108.026-1.627.213a5.169 5.169 0 0 0-2.015 1.262c-.674.659-.882 1.023-2.015 3.52C5.498 19.434 2.926 27.501.952 37.28c-.478 2.366-.529 2.882-.364 3.659.333 1.567 1.317 2.625 3.092 3.323 1.133.446 2.801.593 3.803.335 1.038-.266 1.935-.942 2.583-1.946.404-.624.584-1.179 1.697-5.211 1.135-4.115 2.22-7.725 2.982-9.92.83-2.392 1.045-2.963 1.111-2.94.031.011.627.866 1.325 1.9 2.54 3.766 4.837 6.907 5.464 7.473.973.878 2.456 1.271 3.771.999.983-.203 2.143-.971 2.696-1.784.219-.321 3.256-5.891 4.403-8.073.32-.608.596-1.09.615-1.072.092.092 1.483 6.223 2.514 11.083.348 1.643.686 3.163.75 3.379.293.987.967 1.999 1.749 2.625.503.404 1.354.785 1.99.892 1.04.176 3.048-.146 4.147-.664 1.391-.655 2.324-2.356 2.207-4.021-.065-.917-1.858-10.662-2.934-15.947-1.354-6.643-3.241-14.367-3.76-15.383-.646-1.268-1.897-2.268-3.234-2.587-.599-.143-1.617-.141-2.216.004m1.947 3.082c.335.17.686.559.844.936.296.707 1.592 5.864 2.456 9.778 1.259 5.698 3.89 19.47 3.89 20.362 0 .437-.188.88-.445 1.049-.242.158-1.564.427-2.108.428-.567.001-1.022-.261-1.357-.783-.291-.453-.261-.336-1.256-5.016-1.355-6.375-3.081-13.581-3.403-14.217-.213-.419-.762-.726-1.299-.726-.477 0-.827.156-1.111.493-.11.13-.875 1.526-1.702 3.103-1.939 3.7-4.963 9.273-5.212 9.606-.5.669-1.469.723-2.046.114-.744-.786-4.969-6.871-7.461-10.747-.352-.546-.566-.794-.8-.925-.582-.325-1.391-.189-1.854.311-.197.213-.987 2.075-1.76 4.148-1.142 3.062-2.377 7.052-3.91 12.63a361.039 361.039 0 0 1-.916 3.295c-.283.956-.796 1.437-1.532 1.434-.942-.004-2.358-.54-2.64-.999-.225-.367-.186-.829.257-3.029 1.892-9.383 4.403-17.238 8.174-25.571.983-2.172 1.126-2.432 1.514-2.759.41-.346.767-.464 1.387-.46 1.065.007 1.579.384 2.43 1.782 1.25 2.052 5.11 8.514 6.014 10.068 1.102 1.893 1.276 2.082 1.986 2.15.474.046 1.036-.179 1.281-.513.092-.125.575-1.074 1.073-2.108 1.348-2.798 3.493-6.9 4.999-9.56.882-1.557 2.135-3.636 2.315-3.842a1.797 1.797 0 0 1 2.192-.432" fill-rule="evenodd"/></svg>