<svg xmlns="http://www.w3.org/2000/svg" viewBox="0 0 48 48"><path d="M31.953 3.598c-.913.04-1.611.111-1.89.192-1.036.301-1.967 1.224-2.28 2.258-.092.304-.695 3.27-1.341 6.592-1.572 8.09-2.091 10.623-2.147 10.48-.025-.066-.538-1.992-1.138-4.28-1.68-6.402-3.295-12.375-3.478-12.863-.311-.833-1.062-1.579-1.914-1.902-.875-.333-3.439-.476-8.405-.471-4.699.006-5.648.056-6.257.335-.592.271-1.13.776-1.388 1.304-.421.86-.44 3.318-.033 4.264.268.622 1.021 1.293 1.706 1.517.294.097.691.176.881.176.674 0 .683.049.494 2.92-.337 5.106-.696 13.728-1.009 24.2-.049 1.65-.098 3.009-.109 3.021-.011.011-.413.056-.893.099-.479.043-.99.099-1.134.123-.528.09-1.134.858-1.134 1.437 0 .519.484 1.207.981 1.395.152.057 2.203.085 6.303.085 6.663 0 6.381.02 6.853-.485a1.445 1.445 0 0 0-.006-1.985c-.348-.367-.624-.469-1.451-.536l-.707-.058.047-.808c.025-.444.164-3.589.309-6.988.145-3.399.282-6.18.305-6.18.023 0 .272.891.552 1.98 1.412 5.478 3.422 12.45 3.811 13.22.213.421.823 1.051 1.281 1.323.729.433 1.111.476 4.238.476 2.748.001 2.906-.007 3.441-.176.972-.305 1.667-.887 2.079-1.741.288-.598 1.764-6.607 3.094-12.602l.506-2.28.054 1.6c.103 3.03.226 8.741.226 10.457v1.719l-.692.054c-.874.067-1.308.252-1.592.681-.516.781-.253 1.809.558 2.177.31.141.702.149 7.989.15 8.434.002 7.965.03 8.435-.505.522-.594.521-1.41-.003-1.963-.347-.366-.624-.469-1.431-.535-.379-.031-.722-.078-.765-.105-.042-.028-.188-2.308-.331-5.17-.431-8.668-.835-15.581-1.262-21.617-.21-2.973-.212-3.061-.069-3.22.105-.116.247-.163.494-.163.19 0 .587-.079.881-.176.684-.224 1.438-.895 1.706-1.516.41-.953.391-3.398-.032-4.264-.248-.507-.873-1.114-1.374-1.336-.234-.103-.68-.187-1.257-.237-1.178-.1-9.852-.155-11.702-.073m10.15 3.014 1.503.05-.023.769-.023.769-.5.055c-1.362.15-2.614 1.338-2.908 2.759-.079.383-.08.741-.004 1.715.432 5.583 1.174 18.284 1.53 26.191.045 1.012.099 2.011.118 2.22l.036.38h-6.369l-.054-3.3c-.134-8.109-.398-15.166-.734-19.62-.185-2.447-.247-2.895-.442-3.211a1.698 1.698 0 0 0-1.04-.71c-.576-.104-1.286.246-1.555.765-.064.123-.312 1.208-.552 2.41-1.904 9.544-5.034 23.224-5.372 23.478-.255.192-4.634.237-5.374.055-.199-.049-.269-.25-1.251-3.587-1.821-6.19-3.271-11.875-5.282-20.704-.234-1.024-.421-1.667-.531-1.821-.183-.257-.603-.502-1.009-.59-.597-.129-1.426.371-1.611.971-.058.189-.291 4.873-.613 12.344-.286 6.622-.541 12.373-.569 12.78l-.049.74h-2.73l.055-2.18c.207-8.27.636-18.757 1.024-25.046.19-3.091.18-3.323-.182-4.092-.1-.214-.395-.616-.655-.894-.579-.619-1.239-.969-1.981-1.051L4.44 8.2l-.023-.767-.022-.767 1.695-.053c4.196-.131 10.322.042 10.677.302.163.12 2.784 9.844 5.393 20.012 1.047 4.079 1.074 4.151 1.711 4.44.181.082.455.149.609.149.598 0 1.243-.475 1.432-1.054.184-.565 2.034-9.73 3.807-18.862.696-3.584.957-4.785 1.058-4.86.073-.055.334-.105.578-.111.245-.006 1.309-.038 2.365-.07 1.958-.061 5.68-.037 8.383.053" fill-rule="evenodd"/></svg>