<svg xmlns="http://www.w3.org/2000/svg" viewBox="0 0 48 48"><path d="M8.96 2.559c-3.073.193-4.293.644-5.245 1.937-.621.842-.76 1.394-1.11 4.384-.53 4.536-1.014 10.125-1.362 15.76-.389 6.289-.724 14.684-.671 16.8.026 1.058.048 1.2.244 1.62.228.487.883 1.242 1.297 1.493.432.263 1.02.417 2.007.527 2.998.332 6.462.165 7.6-.367.826-.386 1.546-1.355 1.717-2.313.043-.242.224-4.022.401-8.4.177-4.378.331-8.041.342-8.14.011-.099.646 1.647 1.412 3.88.766 2.233 1.486 4.257 1.6 4.497.265.557.907 1.202 1.471 1.478 1.454.712 7.549.857 10.015.239.912-.229 1.734-.892 2.131-1.719.114-.239.834-2.261 1.6-4.492.765-2.232 1.4-3.996 1.41-3.92.01.075.164 3.755.341 8.177.177 4.422.356 8.25.398 8.507.166 1.011.778 1.874 1.626 2.291 1.07.526 3.648.818 5.836.661 1.655-.119 3.001-.36 3.62-.65.782-.365 1.426-1.122 1.693-1.99.139-.452.147-2.085.026-5.619-.395-11.562-1.071-21.17-2.043-29.016-.309-2.501-.446-3.061-.921-3.773-.816-1.222-2.016-1.647-5.232-1.853-2.792-.178-6.979.237-8.283.822-.917.411-1.757 1.214-2.255 2.154-.121.23-1.203 3.363-2.403 6.962-1.2 3.599-2.2 6.544-2.222 6.544-.023 0-1.008-2.907-2.19-6.46-1.183-3.553-2.266-6.712-2.407-7.02-.499-1.086-1.495-1.999-2.563-2.349-1.503-.492-5.351-.811-7.88-.652m5.08 3.159c1.206.164 1.906.323 2.165.493.111.072.286.28.389.46.103.181 1.509 4.299 3.124 9.152 2.146 6.444 2.992 8.888 3.14 9.063.424.505 1.131.684 1.721.438.645-.27.542-.005 3.662-9.376 1.594-4.79 2.993-8.884 3.108-9.099.283-.531.623-.734 1.532-.918 1.475-.298 2.381-.37 4.679-.37 2.234 0 3.006.064 3.934.324.354.099.426.153.498.375.092.283.468 3.203.724 5.62.784 7.388 1.391 17.258 1.684 27.358.062 2.141.057 2.739-.021 2.817-.054.054-.459.162-.899.239-1.12.197-4.353.199-5.272.004-.347-.074-.646-.149-.663-.167-.018-.017-.26-5.607-.539-12.422-.402-9.807-.532-12.449-.625-12.671-.328-.786-1.308-1.144-2.061-.756-.556.288-.528.216-3.246 8.129-3.064 8.918-2.948 8.601-3.178 8.656-1.403.338-6.39.338-7.793 0-.224-.054 0 .555-3.075-8.387-1.408-4.092-2.628-7.584-2.712-7.76-.43-.896-1.698-1.075-2.403-.339-.412.429-.381-.01-.915 13.045-.277 6.768-.524 12.327-.55 12.352-.229.23-3.98.332-5.641.154-.741-.08-1.176-.161-1.219-.228-.069-.109-.057-.633.136-6.104.293-8.283.803-16.174 1.479-22.905.363-3.612.702-6.234.841-6.503.232-.449.706-.608 2.356-.794.943-.106 4.54-.029 5.64.12" fill-rule="evenodd"/></svg>