<svg xmlns="http://www.w3.org/2000/svg" viewBox="0 0 48 48"><path d="M6.932.568c-.653.036-1.391.124-1.64.195-1.221.35-2.184 1.327-2.595 2.634l-.177.563v15.92c0 13.22.019 15.995.11 16.36.333 1.336 1.476 2.576 2.736 2.968.79.246 2.852.361 4.418.247 1.914-.139 2.619-.393 3.456-1.247.264-.27.594-.706.733-.969.509-.962.507-.933.507-6.591V25.52h5.993l.025 5.3c.025 5.228.027 5.307.202 5.826.433 1.283 1.386 2.24 2.574 2.587.993.29 4.244.358 5.886.124 1.493-.214 2.753-1.349 3.172-2.858.142-.513.148-1.196.148-16.499 0-15.303-.006-15.986-.148-16.499-.372-1.34-1.492-2.467-2.756-2.772-1.127-.273-5.291-.247-6.296.039-1.185.336-2.146 1.299-2.58 2.586-.175.519-.177.598-.202 5.826l-.025 5.3H14.48V9.258c0-4.84-.011-5.261-.148-5.757-.372-1.34-1.492-2.467-2.756-2.772C11.238.647 8.703.466 8.28.493c-.088.006-.695.04-1.348.075m3.982 3.119c.127.062.307.215.399.339.165.223.167.294.207 6.36.029 4.456.065 6.178.133 6.294.155.267.53.584.844.716.258.107.925.124 4.96.124 3.155-.001 4.766-.029 4.981-.089.408-.113.88-.585.993-.993.061-.219.088-2.166.089-6.238.001-5.775.005-5.926.16-6.182.088-.144.259-.304.38-.356.149-.063.926-.095 2.42-.098 2.401-.004 2.5.012 2.833.462l.167.226v31.496l-.167.226c-.333.45-.433.466-2.833.464-2.412-.002-2.535-.022-2.8-.456-.155-.256-.159-.407-.16-6.182-.001-3.825-.03-6.025-.084-6.218-.099-.359-.406-.739-.746-.925-.228-.125-.67-.137-5.09-.137-2.662 0-4.938.028-5.059.061-.246.069-.738.475-.884.73-.073.126-.107 1.688-.137 6.209-.039 5.893-.044 6.047-.203 6.317-.313.534-.503.585-2.307.624-1.934.041-2.777-.045-3.065-.314-.454-.424-.425.685-.425-16.227 0-16.638-.018-15.847.36-16.16.205-.17 1.058-.229 3.001-.207 1.358.015 1.859.048 2.033.134M38.84 30.532c-.556.064-1.143.219-1.48.391-1.727.883-2.873 3.153-2.147 4.251.233.351.787.666 1.174.666.661 0 1.218-.391 1.453-1.02.238-.635.442-.944.753-1.136.234-.144.396-.164 1.336-.163.902 0 1.106.023 1.293.146.767.506.986 1.768.452 2.609-.312.492-.607.626-1.474.668-.862.042-1.228.2-1.532.66-.44.664-.278 1.492.396 2.028.29.232.345.244 1.28.286 1.084.05 1.337.137 1.67.577.385.509.487.932.454 1.88-.026.771-.053.906-.25 1.242a2.463 2.463 0 0 1-.513.6c-.289.221-.305.223-1.651.248-.748.014-1.443.005-1.545-.021-.347-.087-.769-.548-1.034-1.13-.358-.786-.858-1.156-1.555-1.152-.56.004-1.204.539-1.364 1.134-.118.437-.047.776.323 1.544.559 1.162 1.567 2.066 2.73 2.446.553.181.705.194 2.351.194 1.631 0 1.799-.014 2.295-.185a4.64 4.64 0 0 0 1.891-1.253c.537-.59.838-1.111 1.11-1.922.197-.588.214-.744.214-1.92 0-1.179-.017-1.332-.217-1.937-.2-.602-.834-1.695-1.123-1.935-.097-.08-.073-.163.155-.541.504-.837.635-1.372.635-2.587 0-1.297-.15-1.833-.775-2.767-.699-1.046-1.747-1.725-2.889-1.873-.549-.072-1.904-.087-2.416-.028" fill-rule="evenodd"/></svg>