<svg xmlns="http://www.w3.org/2000/svg" viewBox="0 0 48 48"><path d="M6.932.568c-.653.036-1.391.124-1.64.195-1.221.35-2.184 1.327-2.595 2.634l-.177.563v15.92c0 13.22.019 15.995.11 16.36.333 1.336 1.476 2.576 2.736 2.968.79.246 2.852.361 4.418.247 1.914-.139 2.619-.393 3.456-1.247.264-.27.594-.706.733-.969.509-.962.507-.933.507-6.591V25.52h5.993l.025 5.3c.025 5.228.027 5.307.202 5.826.433 1.283 1.386 2.24 2.574 2.587.993.29 4.244.358 5.886.124 1.493-.214 2.753-1.349 3.172-2.858.142-.513.148-1.196.148-16.499 0-15.303-.006-15.986-.148-16.499-.372-1.34-1.492-2.467-2.756-2.772-1.127-.273-5.291-.247-6.296.039-1.185.336-2.146 1.299-2.58 2.586-.175.519-.177.598-.202 5.826l-.025 5.3H14.48V9.258c0-4.84-.011-5.261-.148-5.757-.372-1.34-1.492-2.467-2.756-2.772C11.238.647 8.703.466 8.28.493c-.088.006-.695.04-1.348.075m3.982 3.119c.127.062.307.215.399.339.165.223.167.294.207 6.36.029 4.456.065 6.178.133 6.294.155.267.53.584.844.716.258.107.925.124 4.96.124 3.155-.001 4.766-.029 4.981-.089.408-.113.88-.585.993-.993.061-.219.088-2.166.089-6.238.001-5.775.005-5.926.16-6.182.088-.144.259-.304.38-.356.149-.063.926-.095 2.42-.098 2.401-.004 2.5.012 2.833.462l.167.226v31.496l-.167.226c-.333.45-.433.466-2.833.464-2.412-.002-2.535-.022-2.8-.456-.155-.256-.159-.407-.16-6.182-.001-3.825-.03-6.025-.084-6.218-.099-.359-.406-.739-.746-.925-.228-.125-.67-.137-5.09-.137-2.662 0-4.938.028-5.059.061-.246.069-.738.475-.884.73-.073.126-.107 1.688-.137 6.209-.039 5.893-.044 6.047-.203 6.317-.313.534-.503.585-2.307.624-1.934.041-2.777-.045-3.065-.314-.454-.424-.425.685-.425-16.227 0-16.638-.018-15.847.36-16.16.205-.17 1.058-.229 3.001-.207 1.358.015 1.859.048 2.033.134m30.001 26.868c-.802.128-.821.149-4.569 5.145-1.919 2.558-3.563 4.815-3.655 5.015-.236.516-.229 1.348.015 1.885.237.521.675.972 1.174 1.209.399.189.405.189 3.5.19l3.1.001v1.06c.001 1.262.081 1.6.472 1.991.804.804 2.183.453 2.484-.633.046-.164.083-.77.084-1.347v-1.049l.527-.042c.627-.051 1.005-.302 1.299-.865.501-.96-.237-2.075-1.373-2.075h-.453v-4.215c0-4.839-.003-4.864-.614-5.543-.54-.601-1.223-.851-1.991-.727m-.435 7.605v2.88h-2.16c-1.188 0-2.16-.018-2.16-.041 0-.052 4.25-5.719 4.29-5.719.016 0 .03 1.296.03 2.88" fill-rule="evenodd"/></svg>