<svg xmlns="http://www.w3.org/2000/svg" viewBox="0 0 48 48"><path d="M6.932.568c-.653.036-1.391.124-1.64.195-1.221.35-2.184 1.327-2.595 2.634l-.177.563v15.92c0 13.22.019 15.995.11 16.36.333 1.336 1.476 2.576 2.736 2.968.79.246 2.852.361 4.418.247 1.914-.139 2.619-.393 3.456-1.247.264-.27.594-.706.733-.969.509-.962.507-.933.507-6.591V25.52h5.993l.025 5.3c.025 5.228.027 5.307.202 5.826.433 1.283 1.386 2.24 2.574 2.587.993.29 4.244.358 5.886.124 1.493-.214 2.753-1.349 3.172-2.858.142-.513.148-1.196.148-16.499 0-15.303-.006-15.986-.148-16.499-.372-1.34-1.492-2.467-2.756-2.772-1.127-.273-5.291-.247-6.296.039-1.185.336-2.146 1.299-2.58 2.586-.175.519-.177.598-.202 5.826l-.025 5.3H14.48V9.258c0-4.84-.011-5.261-.148-5.757-.372-1.34-1.492-2.467-2.756-2.772C11.238.647 8.703.466 8.28.493c-.088.006-.695.04-1.348.075m3.982 3.119c.127.062.307.215.399.339.165.223.167.294.207 6.36.029 4.456.065 6.178.133 6.294.155.267.53.584.844.716.258.107.925.124 4.96.124 3.155-.001 4.766-.029 4.981-.089.408-.113.88-.585.993-.993.061-.219.088-2.166.089-6.238.001-5.775.005-5.926.16-6.182.088-.144.259-.304.38-.356.149-.063.926-.095 2.42-.098 2.401-.004 2.5.012 2.833.462l.167.226v31.496l-.167.226c-.333.45-.433.466-2.833.464-2.412-.002-2.535-.022-2.8-.456-.155-.256-.159-.407-.16-6.182-.001-3.825-.03-6.025-.084-6.218-.099-.359-.406-.739-.746-.925-.228-.125-.67-.137-5.09-.137-2.662 0-4.938.028-5.059.061-.246.069-.738.475-.884.73-.073.126-.107 1.688-.137 6.209-.039 5.893-.044 6.047-.203 6.317-.313.534-.503.585-2.307.624-1.934.041-2.777-.045-3.065-.314-.454-.424-.425.685-.425-16.227 0-16.638-.018-15.847.36-16.16.205-.17 1.058-.229 3.001-.207 1.358.015 1.859.048 2.033.134M38.32 30.562c-1.597.222-3.143 1.711-3.653 3.518-.135.476-.147.894-.147 4.92s.012 4.444.147 4.92c.252.892.663 1.577 1.369 2.282 1.079 1.076 1.799 1.315 3.964 1.315s2.885-.239 3.964-1.315c.708-.706 1.12-1.395 1.367-2.282.111-.401.143-.803.141-1.76-.003-1.126-.023-1.299-.217-1.88-.27-.81-.572-1.332-1.109-1.922-.53-.58-1.218-1.032-1.889-1.239-.446-.138-.744-.159-2.253-.159-1.276 0-1.84.03-2.118.114l-.38.115.028-1.215c.03-1.307.087-1.518.535-2.001.388-.418.537-.453 1.931-.453 1.393 0 1.539.034 1.935.453.118.125.321.461.45.747.262.58.476.813.914.996 1.075.449 2.265-.572 1.984-1.702-.375-1.505-1.736-2.952-3.151-3.348-.5-.141-3.051-.21-3.812-.104m3.412 9.647c.514.415.703.89.735 1.834.031.938-.053 1.323-.389 1.787-.439.606-.577.649-2.062.65-1.411 0-1.558-.034-1.947-.453-.403-.434-.499-.729-.534-1.628-.037-.986.051-1.384.407-1.847.457-.594.624-.642 2.151-.615l1.333.023.306.249" fill-rule="evenodd"/></svg>