<svg xmlns="http://www.w3.org/2000/svg" viewBox="0 0 48 48"><path d="M16.64 1.606c-4.013.114-8.514.395-9.44.59C4.826 2.694 2.832 4.624 2.236 7c-.412 1.645-.715 8.828-.715 16.96.001 8.215.302 15.391.715 17.04.573 2.282 2.481 4.191 4.76 4.762 1.65.414 8.84.716 17.004.716 8.164 0 15.354-.302 17.004-.716 2.277-.57 4.188-2.481 4.758-4.758.414-1.65.716-8.84.716-17.004 0-8.164-.302-15.354-.716-17.004-.594-2.371-2.59-4.302-4.962-4.8-.974-.205-5.277-.466-9.84-.596-3.108-.089-11.11-.086-14.32.006m15.6 3.037c3.795.131 6.952.325 7.84.481 1.345.237 2.564 1.455 2.797 2.796.383 2.209.734 14.084.583 19.732l-.06 2.253-.8-.722c-1.64-1.478-3.773-3.278-4.335-3.658-1.546-1.044-3.462-1.225-5.116-.483-.874.392-3.015 1.901-5.093 3.59l-1.178.956-.233.188-1.386-1.308c-2.902-2.737-5.703-5.202-6.819-6.001-1.549-1.11-3.586-1.327-5.256-.561-1.344.617-4.728 3.168-7.904 5.96l-.68.597-.061-1.331c-.183-3.994.216-17.119.584-19.204.21-1.189 1.144-2.274 2.316-2.688 1.619-.571 15.717-.91 24.801-.597m.993 3.923c-1.168.139-2.195.656-3.104 1.562a5.377 5.377 0 0 0-1.384 2.232c-.183.554-.211.774-.211 1.64 0 .866.028 1.086.211 1.64.29.88.712 1.561 1.383 2.232.671.671 1.352 1.093 2.232 1.383.554.183.774.211 1.64.211.866 0 1.086-.028 1.64-.211.88-.29 1.561-.712 2.232-1.383.671-.671 1.093-1.352 1.383-2.232.183-.554.211-.774.211-1.64 0-.864-.028-1.087-.21-1.64-.851-2.589-3.283-4.121-6.023-3.794m1.823 3.18c.478.234.962.718 1.199 1.198.265.539.265 1.574-.001 2.114-.929 1.885-3.591 1.885-4.505 0-.222-.457-.288-1.24-.148-1.742.195-.696.86-1.406 1.572-1.676.464-.176 1.415-.122 1.883.106M16.383 24.711c.725.37 4.374 3.591 7.937 7.006.77.738 1.523 1.394 1.673 1.459.316.136.834.152 1.136.036.116-.044.512-.336.88-.648 2.968-2.516 5.826-4.631 6.599-4.887.415-.137 1.276-.06 1.689.151.841.429 6.908 5.828 6.971 6.203.064.379-.251 5.237-.391 6.049-.113.65-.511 1.372-1.032 1.869-.846.806-1.359.962-3.718 1.128-8.279.581-19.975.581-28.254 0-2.359-.166-2.872-.322-3.718-1.128-.52-.497-.919-1.219-1.032-1.869-.096-.553-.219-2.144-.321-4.16l-.127-2.485-.047-.925 1.226-1.119c2.015-1.838 3.674-3.245 5.426-4.6.936-.723 2.614-1.894 2.994-2.088.622-.318 1.476-.315 2.109.008" fill-rule="evenodd"/></svg>