<svg xmlns="http://www.w3.org/2000/svg" viewBox="0 0 48 48"><path d="M23.232 2.562c-1.462.154-2.68.788-3.806 1.983-1.519 1.609-2.017 3.922-1.319 6.117.278.875.779 1.678 1.486 2.381 1.293 1.286 2.613 1.844 4.37 1.848 1.287.003 2.409-.312 3.384-.947.656-.428 1.614-1.424 2.008-2.086 1.103-1.857 1.123-4.296.05-6.214-.532-.951-1.685-2.023-2.753-2.56-.868-.436-2.246-.646-3.42-.522m1.626 3.071c1.454.387 2.451 1.84 2.31 3.367-.125 1.349-1.072 2.454-2.408 2.811-1.84.492-3.748-.874-3.928-2.811-.205-2.227 1.85-3.946 4.026-3.367M17.2 17.363c-1.158.073-1.594.176-2.212.521-.886.495-1.587 1.479-1.792 2.516-.048.244-.087 1.333-.088 2.44-.003 2.755.161 3.39 1.116 4.343.81.807 1.785 1.129 3.436 1.134l.82.003v5.2l-.34.001c-.929.002-3.115.177-3.531.282-1.355.343-2.361 1.342-2.698 2.677-.156.62-.156 4.34 0 4.96a3.698 3.698 0 0 0 2.481 2.644c.949.293 2.574.353 9.608.353 7.034 0 8.659-.06 9.608-.353a3.698 3.698 0 0 0 2.481-2.644c.154-.609.156-4.242.003-4.92-.302-1.339-1.333-2.373-2.713-2.719-.389-.098-2.725-.281-3.579-.281h-.262l-.042-5.66c-.024-3.113-.081-6.058-.127-6.543-.112-1.18-.324-1.835-.792-2.454-.768-1.015-1.531-1.384-3.112-1.506-1.089-.084-6.9-.08-8.265.006m8.884 3.165c.121.121.189.335.242.76.111.88.231 6.253.233 10.387.001 3.49.007 3.648.164 3.971.091.188.305.435.486.56l.323.224 2.334.102c2.742.121 2.95.144 3.14.354.189.209.287 1.69.203 3.046-.077 1.23-.133 1.298-1.14 1.378-3.255.26-12.883.26-16.138 0-.994-.079-1.058-.153-1.142-1.32-.092-1.275.015-2.893.205-3.104.193-.213.426-.239 3.139-.355l2.334-.1.312-.217c.172-.119.39-.354.485-.523.171-.304.173-.353.178-4.767.006-5.046.034-4.81-.636-5.284l-.34-.24-1.853-.052c-1.019-.029-1.95-.09-2.068-.136a.692.692 0 0 1-.312-.265c-.12-.225-.197-2.489-.117-3.452.072-.855.183-1.022.733-1.101.215-.031 2.343-.051 4.729-.045 4.294.011 4.339.013 4.506.179" fill-rule="evenodd"/></svg>