<svg xmlns="http://www.w3.org/2000/svg" viewBox="0 0 48 48"><path d="M27.64 1.569c-3.411.355-6.544 1.612-9.194 3.69-.311.244-1.453 1.33-2.537 2.413-1.95 1.948-1.974 1.976-2.332 2.728-.382.804-.499 1.223-.584 2.1l-.052.54h-.494c-.669 0-1.315.175-2.127.577-.628.31-.814.468-2.429 2.06-1.854 1.827-2.728 2.811-3.44 3.871A17.309 17.309 0 0 0 2.371 34.6a17.558 17.558 0 0 0 2.574 4.973c.676.909 2.573 2.806 3.482 3.482 4.603 3.421 10.632 4.36 15.996 2.493 2.08-.724 3.787-1.687 5.429-3.064.412-.345 1.526-1.414 2.477-2.375 1.679-1.699 1.739-1.771 2.092-2.509.376-.785.496-1.208.582-2.053l.051-.493.493-.051c.845-.086 1.268-.206 2.053-.582.738-.353.81-.413 2.509-2.092 1.858-1.838 2.731-2.821 3.44-3.877a17.309 17.309 0 0 0 2.08-15.052c-.82-2.517-2.108-4.646-3.989-6.59-2.166-2.24-4.639-3.739-7.612-4.615-1.491-.439-2.656-.604-4.468-.633-.88-.015-1.744-.011-1.92.007m3.48 3.084c4.025.5 7.701 2.808 10.028 6.295 1.105 1.654 1.916 3.831 2.212 5.932.123.875.123 2.965 0 3.84-.225 1.6-.723 3.15-1.49 4.64-.829 1.61-1.375 2.305-3.47 4.412-1.717 1.727-1.92 1.906-2.343 2.06a2.548 2.548 0 0 1-1.794-.004c-.403-.15-.625-.333-1.719-1.42-1.483-1.474-1.617-1.697-1.617-2.688 0-1.01.098-1.162 1.98-3.071 1.718-1.742 1.976-2.061 2.416-2.989.451-.954.616-1.712.621-2.86.008-1.901-.572-3.34-1.896-4.707-1.336-1.38-2.88-2.036-4.808-2.043-1.137-.004-1.847.145-2.814.592-1.001.462-1.296.698-3.106 2.479-1.491 1.467-1.732 1.672-2.143 1.826a2.505 2.505 0 0 1-1.794.001c-.403-.15-.625-.333-1.719-1.42-1.485-1.475-1.621-1.701-1.623-2.688-.002-1.042.121-1.222 2.259-3.328 2.03-1.997 2.768-2.573 4.34-3.382 2.675-1.377 5.429-1.857 8.48-1.477m-1.015 10.506a3.662 3.662 0 0 1 1.753 1.006c1.129 1.129 1.407 2.837.701 4.299-.238.494-.704.981-5.909 6.186s-5.692 5.671-6.186 5.909c-1.462.706-3.17.428-4.299-.701-1.339-1.339-1.493-3.375-.369-4.876.19-.254 2.789-2.894 5.775-5.866 4.058-4.039 5.532-5.459 5.837-5.619.843-.442 1.823-.565 2.697-.338m-16.226 1.072c.293.13.716.495 1.616 1.394 1.44 1.44 1.577 1.672 1.58 2.655.003.987-.112 1.164-1.996 3.08-1.736 1.766-1.973 2.064-2.439 3.066-.42.904-.596 1.737-.592 2.814.006 1.84.618 3.339 1.904 4.667 1.346 1.39 2.931 2.051 4.888 2.038 1.105-.007 1.884-.179 2.82-.622.928-.44 1.247-.698 2.989-2.416 1.909-1.882 2.061-1.98 3.071-1.98.983 0 1.213.137 2.655 1.578 1.426 1.427 1.579 1.679 1.583 2.615.004 1.042-.081 1.176-1.91 3.027-.884.895-1.878 1.846-2.208 2.114-3.844 3.115-8.992 4.055-13.6 2.482-2.298-.785-4.075-1.919-5.765-3.679-2.115-2.203-3.393-4.852-3.833-7.944-.125-.871-.125-2.962-.002-3.84.313-2.223 1.243-4.564 2.542-6.399.57-.804 3.818-4.184 4.318-4.494.684-.422 1.636-.484 2.379-.156" fill-rule="evenodd"/></svg>