<svg xmlns="http://www.w3.org/2000/svg" viewBox="0 0 48 48"><path d="M10.762 1.043c-1.42.161-2.526 1.093-3.025 2.549-.114.332-.165.761-.196 1.655l-.042 1.207-.729.097c-2.744.363-4.913 2.271-5.559 4.889C.657 13.687.313 24.852.56 32.56c.142 4.412.402 8.06.642 9.02.574 2.295 2.492 4.181 4.82 4.742 1.501.362 10.401.716 17.978.716 7.577 0 16.477-.354 17.978-.716a6.65 6.65 0 0 0 4.427-3.628c.483-1.033.634-2.113.873-6.254.47-8.14.194-22.23-.489-25-.417-1.689-1.503-3.135-3.059-4.069-.624-.375-1.635-.706-2.51-.822l-.74-.098v-.909c0-1.647-.346-2.683-1.174-3.512-.63-.631-1.238-.893-2.306-.995-1.01-.097-2.202-.039-2.839.139-.617.171-1.046.444-1.544.982-.733.792-.999 1.521-1.071 2.944l-.05.98h-.848a24.797 24.797 0 0 1-1.508-.052l-.66-.052-.001-.608c-.001-1.688-.516-2.884-1.585-3.686-.717-.537-1.258-.661-2.894-.663-1.635-.001-2.172.122-2.894.663-1.069.802-1.584 1.998-1.585 3.686l-.001.608-.732.052a25.49 25.49 0 0 1-1.508.052h-.776l-.05-.98c-.072-1.423-.338-2.152-1.071-2.944-.487-.526-.915-.803-1.519-.982-.52-.154-2.253-.227-3.102-.131m2.345 3.085c.101.071.218.22.261.332.045.118.077 1.381.077 2.988 0 2.965-.03 3.231-.393 3.426-.214.114-1.87.111-2.123-.004-.384-.175-.408-.376-.408-3.39 0-2.979.027-3.212.385-3.385.096-.046.589-.087 1.096-.09.723-.004.962.023 1.105.123m12.086.093.221.22.047 1.68c.026.923.023 2.303-.007 3.066l-.055 1.387-.224.193c-.209.181-.285.193-1.175.193-.89 0-.966-.012-1.175-.193l-.224-.193-.055-1.387a55.518 55.518 0 0 1-.007-3.066l.047-1.68.221-.22C23.024 4.004 23.045 4 24 4c.955 0 .976.004 1.193.221m11.878-.131c.109.05.234.185.279.3.125.325.194 2.786.129 4.541l-.06 1.582-.223.224c-.219.219-.242.223-1.155.223-.514 0-1.004-.039-1.093-.086-.364-.195-.395-.463-.395-3.426.001-1.615.033-2.867.079-2.986.147-.388.362-.462 1.342-.462.497 0 .987.04 1.097.09m-17.55 5.57c.001 1.437.384 2.497 1.193 3.305C21.507 13.757 22.278 14 24 14c1.717 0 2.478-.241 3.286-1.039.808-.799 1.192-1.861 1.193-3.301l.001-.62 1.34.001c.737.001 1.416.022 1.508.046.154.042.173.12.218.899.082 1.419.387 2.192 1.176 2.974.807.801 1.567 1.038 3.323 1.039 1.706.001 2.459-.246 3.278-1.075.742-.753 1.152-1.798 1.156-2.944.001-.45.006-.46.224-.46.123 0 .42.051.66.114 1.142.298 2.033 1.142 2.447 2.315.209.591.44 3.721.598 8.091.106 2.961.053 12.906-.082 15.28-.134 2.361-.331 4.919-.412 5.36-.243 1.313-1.466 2.52-2.794 2.757-1.764.315-9.296.562-17.12.562-7.824 0-15.356-.247-17.12-.562-1.174-.209-2.271-1.157-2.68-2.316-.219-.621-.447-3.68-.606-8.112-.108-3.005-.055-13.047.08-15.369.18-3.072.337-4.979.447-5.419.321-1.28 1.277-2.263 2.516-2.587.24-.063.537-.114.66-.114.218 0 .223.01.224.46.004 1.146.414 2.191 1.156 2.944.54.547 1.112.855 1.838.989.598.11 2.244.112 2.913.003 1.331-.216 2.49-1.295 2.863-2.664.061-.227.132-.772.157-1.212.025-.44.059-.845.076-.9.023-.075.397-.1 1.513-.1h1.483l.001.62M11.8 20.098c-.686.243-.891.585-1.195 1.992-.791 3.672-1.126 6.649-1.065 9.473.05 2.303.268 3.43.921 4.753 1.032 2.092 3.416 2.834 5.533 1.722 1.494-.786 2.667-2.34 4.706-6.238 1.373-2.625 1.933-3.578 2.593-4.414 1.121-1.417 2.225-1.312 2.679.254.121.419.14.909.15 3.88.007 2.234.043 3.586.106 3.941.408 2.312 1.778 3.606 3.805 3.594.965-.006 1.821-.374 2.633-1.134.885-.828 1.618-2.03 2.658-4.361 1.3-2.916 2.036-4.143 2.687-4.484.132-.069.434-.107.8-.1.649.012.924-.088 1.284-.469.521-.551.519-1.459-.004-2.055-.21-.238-.524-.366-1.106-.448a3.765 3.765 0 0 0-2.225.354c-1.409.697-2.39 2.012-3.759 5.042-.798 1.765-1.491 3.148-1.847 3.685-.514.773-1.036 1.111-1.436.929-.513-.234-.633-1.099-.568-4.094.077-3.536-.085-4.936-.724-6.24-.723-1.478-2.318-2.406-3.946-2.296-1.394.094-2.678.944-3.871 2.562-.618.838-1.265 1.943-2.326 3.974-2.222 4.251-3.037 5.364-4.103 5.604-.907.205-1.432-.829-1.632-3.214-.17-2.034.145-5.283.863-8.902.234-1.174.351-1.952.324-2.149-.119-.891-1.077-1.465-1.935-1.161" fill-rule="evenodd"/></svg>