<svg xmlns="http://www.w3.org/2000/svg" viewBox="0 0 48 48"><path d="M40.88 1.757c-6.026 1.249-15.185 4.724-25.188 9.558-5.577 2.694-11.717 6.096-12.969 7.184-.853.741-1.244 1.683-1.188 2.857.063 1.331.502 1.921 2.941 3.953 1.507 1.256 3.361 2.688 5.511 4.258l1.653 1.207.055 1.033c.291 5.512.777 9.208 1.507 11.452.685 2.108 1.695 3.207 2.958 3.217.794.006 2.553-.548 3.928-1.238 1.94-.973 3.517-2.126 5.512-4.03.418-.399.772-.726.787-.727.014-.001.572.336 1.24.747 2.6 1.603 5.367 3.133 6.178 3.416.938.328 2.189.187 3.016-.34.583-.37.969-.87 1.53-1.975 1.774-3.498 3.754-10.315 5.52-19.01 1.34-6.599 2.44-13.951 2.583-17.279.053-1.228-.024-1.67-.431-2.474-.255-.502-1.053-1.298-1.589-1.584-.965-.515-1.877-.573-3.554-.225m2.036 2.836c.437.183.566.459.545 1.163-.061 1.976-.808 7.582-1.622 12.159-1.824 10.262-4.302 19.487-6.223 23.165-.323.618-.408.724-.599.746-.333.038-2.588-1.179-5.577-3.011-3.145-1.927-2.859-1.775-3.336-1.775-.239 0-.513.04-.609.089-.096.049-.715.634-1.375 1.3-1.24 1.251-2.23 2.124-3.2 2.82-.924.663-2.44 1.546-2.44 1.42 0-.029.125-.507.277-1.061.551-2.004 1.292-5.507 1.685-7.968.186-1.16.228-1.31.457-1.6 2.729-3.468 9.813-11.451 17.512-19.735 2.261-2.432 2.362-2.576 2.288-3.235-.111-.986-1.244-1.606-2.119-1.16-.349.178-1.741 1.638-6.188 6.491-7.975 8.703-13.954 15.619-14.444 16.707-.126.28-.302 1.057-.507 2.24-.566 3.278-1.488 7.525-1.674 7.716-.059.06-.319-1.304-.484-2.544-.255-1.906-.461-4.471-.556-6.925-.08-2.07-.122-2.265-.577-2.682-.149-.135-.792-.619-1.43-1.075-3.788-2.705-7.915-6.012-8.152-6.533-.172-.378.053-.568 2.226-1.884 3.257-1.972 9.231-5.032 14.446-7.399 8.225-3.733 15.018-6.194 20.16-7.304 1.255-.27 1.182-.264 1.516-.125" fill-rule="evenodd"/></svg>