<svg xmlns="http://www.w3.org/2000/svg" viewBox="0 0 48 48"><path d="M27.09 1.731A3.29 3.29 0 0 0 25.364 3c-.739 1.072-2.157 6.193-2.685 9.693l-.051.332-.854.054c-3.353.21-9.17.917-10.609 1.29-1.873.485-3.494 1.874-4.37 3.743-.575 1.226-2.269 7.466-3.347 12.328-.983 4.436-1.928 9.973-1.928 11.301 0 1.463.841 2.972 2.155 3.867 1.245.847 2.116.996 4.205.718 4.425-.589 10.739-1.908 16.485-3.444 4.459-1.193 5.665-1.61 6.621-2.293 1.258-.898 2.229-2.262 2.641-3.709.36-1.267 1.092-7.242 1.3-10.617l.055-.897.369-.051c2.376-.333 5.927-1.222 8.279-2.073 1.338-.485 1.781-.785 2.257-1.529.56-.874.623-1.611.281-3.28-1.302-6.348-5.536-11.827-11.421-14.783-1.763-.885-3.376-1.442-5.249-1.814-1.313-.261-1.827-.284-2.408-.105m1.937 3.067c6.987 1.427 12.754 7.199 14.179 14.189.245 1.205.277 1.145-.806 1.511-2.247.759-4.684 1.389-6.56 1.698l-1.014.167c-.25.041-.262.029-.715-.78-1.847-3.293-4.402-5.848-7.694-7.694-.622-.349-.815-.495-.786-.595.021-.074.061-.332.091-.574.213-1.766 1.184-5.535 1.973-7.66.185-.496.186-.496 1.332-.262m-4.897 11.33c.171.071.652.328 1.07.571 2.628 1.531 4.563 3.466 6.102 6.101.711 1.219.729 1.284.665 2.506-.172 3.336-.918 9.667-1.283 10.894-.222.75-.817 1.527-1.529 2-.545.362-1.021.528-3.435 1.2-5.423 1.511-11.067 2.796-15.6 3.554-1.548.258-3.329.504-3.369.464-.014-.014 2.127-2.176 4.756-4.805l4.781-4.78.436.202c.741.344 1.491.469 2.543.425 1.545-.065 2.527-.495 3.612-1.581.684-.683 1.126-1.386 1.384-2.199.148-.468.177-.745.177-1.68 0-1.29-.137-1.867-.657-2.759-.388-.666-1.358-1.636-2.024-2.024-.892-.52-1.469-.657-2.759-.657-.935 0-1.212.029-1.68.177-.813.258-1.516.7-2.199 1.384-1.086 1.085-1.516 2.067-1.581 3.612-.044 1.052.081 1.802.425 2.543l.203.436-4.805 4.804-4.805 4.804.049-.4c.492-4.034 1.777-10.304 3.283-16.018 1.23-4.665 1.611-5.775 2.221-6.476.383-.439 1.162-.954 1.677-1.108.891-.266 4.962-.809 8.052-1.074 3.232-.276 3.861-.293 4.29-.116m-3.982 10.668c.347.179.904.744 1.081 1.095.287.571.288 1.645.002 2.213-.18.358-.734.92-1.088 1.103-.62.32-1.668.319-2.291-.003-.344-.178-.904-.743-1.076-1.086-.308-.614-.309-1.621-.001-2.235.174-.346.733-.91 1.082-1.09.62-.32 1.668-.319 2.291.003" fill-rule="evenodd"/></svg>