<svg xmlns="http://www.w3.org/2000/svg" viewBox="0 0 48 48"><path d="M22.615 1.65c-1.464.314-2.346 1.166-2.737 2.644-.175.658-.263 3.293-.329 9.754l-.055 5.447-4.927.056c-5.67.065-9.472.173-10.094.289-.238.044-.685.203-.993.354-1.374.674-1.957 1.808-1.957 3.806 0 2.333.862 3.616 2.771 4.123.651.172 3.308.262 9.793.328l5.407.055.055 5.447c.066 6.46.154 9.095.329 9.753.505 1.908 1.789 2.771 4.122 2.771 2.328 0 3.617-.866 4.123-2.771.172-.649.261-3.297.327-9.793l.056-5.407 5.407-.055c6.485-.066 9.142-.156 9.793-.328 1.909-.507 2.771-1.79 2.771-4.123 0-1.998-.583-3.132-1.957-3.806-.308-.151-.755-.31-.993-.354-.622-.116-4.424-.224-10.094-.289l-4.927-.056-.056-5.407c-.066-6.497-.155-9.144-.327-9.794-.505-1.902-1.842-2.787-4.18-2.767a8.126 8.126 0 0 0-1.328.123m2.24 2.956c.235.036.261.072.339.457.107.534.243 6.162.253 10.497.005 1.848.032 3.96.061 4.693l.052 1.332.244.302c.518.639.032.595 7.365.675 7.143.078 9.134.128 9.767.249l.416.079.058.375c.073.475.073.993.001 1.463-.053.339-.081.376-.354.457-.384.116-4.838.234-11.337.302-4.683.049-5.144.065-5.4.195-.346.176-.601.443-.721.758-.065.168-.113 2.188-.161 6.72-.102 9.503-.134 10.136-.52 10.233-.463.116-1.155.139-1.575.052l-.454-.094-.083-.416c-.107-.533-.243-6.104-.254-10.375a199.054 199.054 0 0 0-.06-4.726c-.051-1.382-.056-1.412-.277-1.701-.469-.616-.202-.586-5.935-.646-6.493-.068-10.953-.187-11.336-.301-.237-.071-.307-.139-.351-.337-.071-.322-.07-1.38.002-1.705.051-.232.093-.262.47-.334.632-.12 2.627-.171 9.766-.248 7.333-.08 6.847-.036 7.365-.675l.244-.302.052-1.412c.028-.777.055-2.907.06-4.733.011-4.278.147-9.842.255-10.377.09-.45.065-.435.833-.531.24-.03.735 0 1.215.074" fill-rule="evenodd"/></svg>