<svg xmlns="http://www.w3.org/2000/svg" viewBox="0 0 48 48"><path d="M26.113.599c-1.356.295-2.704 1.39-4.223 3.429-1.906 2.56-3.351 6.306-4.024 10.435-.302 1.848-.338 1.883-2.066 1.974-3.13.165-6.523 1.147-7.965 2.305-1.143.917-1.74 2.72-1.403 4.234.23 1.035 1.457 3.157 3.145 5.442.33.446.493.734.453.8-.035.056-.768 1.11-1.631 2.342C2.51 39.975.545 43.398.526 45.28c-.007.682.1 1.009.487 1.492.61.763 1.665.918 3.042.446 2.158-.739 5.844-3.018 12.905-7.979.946-.664 1.761-1.233 1.812-1.263.052-.032.599.307 1.256.776 1.291.924 2.995 1.99 3.852 2.411 1.049.515 2.028.64 3.076.393 1.364-.321 2.31-1.109 2.96-2.465.947-1.974 1.535-4.419 1.651-6.863.084-1.757.116-1.791 1.97-2.094 4.847-.79 8.795-2.49 11.65-5.015 2.043-1.806 2.576-3.143 2.213-5.55-.664-4.402-3.475-9.103-7.805-13.051C35.837 3.092 32.114 1.144 28.28.597c-.971-.138-1.525-.138-2.167.002m3.092 3.227c3.112.791 6.275 2.769 9.324 5.829 3.492 3.506 5.727 7.575 5.924 10.787.045.728.033.834-.131 1.16-.235.465-1.316 1.512-2.234 2.164-2.451 1.738-5.324 2.799-9.412 3.475-1.593.264-2.09.479-2.845 1.233-.553.552-.937 1.202-1.098 1.857-.05.205-.129.974-.175 1.709-.143 2.259-.526 3.967-1.24 5.52-.428.932-.945 1.243-1.736 1.042-.619-.157-2.895-1.577-4.628-2.887-2.918-2.206-6.528-5.826-8.691-8.715-.726-.969-1.932-2.791-2.462-3.72-.393-.688-.52-1.193-.411-1.629.134-.533.817-.968 2.25-1.435 1.448-.471 2.56-.67 4.358-.778 1.947-.117 2.62-.359 3.529-1.269.767-.77.977-1.262 1.269-2.98.305-1.796.415-2.302.756-3.483.888-3.077 2.217-5.544 3.911-7.26.846-.856 1.034-.94 2.017-.893a9.155 9.155 0 0 1 1.725.273M27.88 8.029c-.301.14-.643.501-.755.796a2.145 2.145 0 0 0-.085.61c0 .332.071.502.525 1.25 2.016 3.325 5.511 6.938 8.915 9.216 1.316.88 1.831 1.139 2.27 1.139 1.017 0 1.724-.952 1.437-1.937-.129-.442-.39-.685-1.356-1.267-2.309-1.39-5.05-3.862-7.044-6.354A35.7 35.7 0 0 1 30.4 9.544c-.462-.69-.939-1.327-1.061-1.416-.28-.204-1.111-.26-1.459-.099M13.175 32.724a69.867 69.867 0 0 0 2.105 2.112c.594.565 1.08 1.057 1.08 1.093 0 .073-1.331 1.018-4.44 3.151-3.42 2.346-5.846 3.879-7.279 4.599l-.645.325.292-.579c.538-1.069 1.81-3.128 3.427-5.546 2.039-3.05 4.303-6.287 4.377-6.26.031.012.519.509 1.083 1.105" fill-rule="evenodd"/></svg>