<svg xmlns="http://www.w3.org/2000/svg" viewBox="0 0 48 48"><path d="M30.956.565c-.691.102-1.252.347-2.133.934-1.761 1.173-3.257 2.793-3.898 4.223-.683 1.522-.316 3.182 1.045 4.732l.444.506h-3.147c-4.258 0-5.625.114-7.814.648C9.833 12.981 4.996 16.77 2.58 21.692-.849 28.68.39 36.711 5.719 42.041c2.873 2.873 6.802 4.787 11.001 5.359 1.222.167 4.314.246 5.219.133 1.812-.225 3.269-1.157 3.943-2.521.943-1.908.974-5.744.061-7.632-.285-.588-1.114-1.422-1.743-1.752-.901-.474-1.461-.597-3.04-.668-1.545-.07-2.294-.202-3.171-.559-1.125-.458-2.186-1.426-2.661-2.428-.34-.715-.448-1.229-.447-2.117.002-1.359.392-2.339 1.279-3.216.945-.934 2.089-1.445 3.588-1.604.429-.046 2.084-.072 3.729-.059l2.956.023-.504.557c-.819.903-1.2 1.713-1.327 2.816-.111.968.272 2.025 1.171 3.239 1.284 1.733 3.58 3.456 4.996 3.75.914.19 2.222-.026 3.065-.507 1.276-.727 6.088-5.293 8.268-7.844 1.931-2.26 4.113-5.24 4.693-6.411.842-1.697.924-3.477.237-5.127-.293-.703-1.349-2.338-2.409-3.73-2.245-2.948-5.821-6.613-9.285-9.516C34.029 1.13 33.383.768 32.437.599c-.706-.126-.838-.129-1.481-.034m1.258 3.076c.609.254 3.89 3.179 6.066 5.407 2.23 2.284 4.313 4.824 5.476 6.677 1.055 1.683.994 2.647-.288 4.558-1.894 2.822-3.793 5.096-6.581 7.881-2.351 2.348-4.298 4.037-4.84 4.198-.651.194-1.169-.032-2.465-1.075-.991-.797-1.982-2.101-1.982-2.607 0-.452.33-.894 1.953-2.611.876-.927 1.659-1.815 1.74-1.974a1.45 1.45 0 0 0 .024-1.195c-.16-.382-.327-.561-.702-.752-.294-.151-.486-.155-6-.125-6.195.033-5.973.017-7.403.508-2.214.759-4.042 2.448-4.817 4.452a7.928 7.928 0 0 0 .131 6.102c.808 1.828 2.621 3.48 4.62 4.209 1.171.427 1.83.546 3.485.624 1.438.068 1.582.089 1.987.287.546.267.695.509.856 1.386.197 1.076.16 2.249-.114 3.571-.123.593-.493 1.011-1.089 1.235-.392.146-.62.163-2.217.163-3.284 0-5.497-.463-8.014-1.678-3.38-1.632-5.976-4.341-7.326-7.646-1.512-3.704-1.343-8.256.445-11.986 2.065-4.306 6.148-7.537 11.041-8.737 1.858-.455 1.872-.456 8.24-.506 5.303-.042 5.945-.061 6.16-.179.694-.384 1.02-1.243.731-1.933-.059-.143-.857-1.051-1.773-2.018-1.755-1.852-2.014-2.219-1.931-2.73.067-.416.694-1.289 1.435-2 .629-.604 1.678-1.384 2.078-1.545.278-.111.756-.094 1.074.039" fill-rule="evenodd"/></svg>