<svg xmlns="http://www.w3.org/2000/svg" viewBox="0 0 48 48"><path d="M28.421 3.158c-.587.165-1.059.419-2.193 1.177-1.607 1.074-2.897 2.523-3.488 3.918-.192.452-.215.607-.214 1.427.001.807.027.987.214 1.461.305.773.594 1.161 1.774 2.379l1.046 1.08-2.96.058c-1.628.032-5.174.093-7.88.136-2.969.047-5.094.113-5.36.167A9.613 9.613 0 0 0 7 15.76c-2.772 1.334-4.84 3.75-5.883 6.871C.503 24.468.52 24.191.52 32.36c0 6.82.009 7.313.147 7.8.426 1.509 1.511 2.749 2.801 3.203 1.639.576 5.575.568 7.147-.014 1.222-.452 2.209-1.51 2.659-2.848.277-.826.323-1.772.325-6.654l.001-4.673.193-.33c.107-.181.281-.376.387-.433.155-.084 1.354-.091 6.239-.037l6.047.066-1.394 1.44c-1.592 1.644-2.023 2.194-2.327 2.97-.187.476-.217.668-.22 1.43-.003 1.024.124 1.456.705 2.388.817 1.31 1.965 2.396 3.59 3.393 1.103.677 1.532.83 2.46.879 1.431.075 2.269-.272 3.851-1.595 4.497-3.759 9.139-8.69 12.449-13.225 1.175-1.609 1.585-2.583 1.674-3.968.105-1.657-.294-2.722-1.798-4.789-2.777-3.817-7.324-8.544-11.933-12.405-1.855-1.553-2.426-1.834-3.843-1.886-.581-.022-.969.005-1.259.086m1.882 3.085c.861.508 4.476 3.751 6.828 6.128 2.937 2.967 4.926 5.295 6.459 7.563.568.84.677 1.193.634 2.052-.043.844-.19 1.162-1.127 2.446-2.987 4.095-7.319 8.73-11.419 12.217-1.259 1.071-1.526 1.25-1.954 1.315-.44.066-.826-.099-1.823-.779-.888-.606-1.583-1.281-2.042-1.984-.285-.437-.339-.584-.338-.92 0-.261.054-.483.155-.635.085-.129 1.383-1.49 2.885-3.024 1.632-1.668 2.776-2.9 2.845-3.063.279-.669.046-1.47-.542-1.859l-.332-.22-3.966-.051c-2.181-.028-5.964-.059-8.406-.069-4.4-.018-4.444-.016-4.903.158-1.109.421-2.069 1.478-2.495 2.75l-.202.6v5.113c0 5.459-.006 5.545-.397 6.094-.243.342-.553.483-1.354.613-1.361.221-4.043.078-4.53-.241-.276-.181-.57-.602-.676-.967-.068-.235-.085-2.221-.066-7.44l.025-7.12.215-.782c.871-3.173 3.315-5.662 6.103-6.216.227-.045 4.493-.134 9.88-.205 5.579-.075 9.605-.159 9.784-.206.72-.188 1.196-1.045 1.004-1.807-.086-.34-.314-.6-2.42-2.766-1.279-1.315-2.389-2.487-2.466-2.605-.087-.131-.141-.366-.141-.614-.001-.335.054-.485.335-.92.184-.285.557-.739.828-1.007.532-.527 1.939-1.505 2.42-1.683.358-.132.838-.079 1.199.134" fill-rule="evenodd"/></svg>