<svg xmlns="http://www.w3.org/2000/svg" viewBox="0 0 48 48"><path d="M19.56.529C13.251.614 7.242.9 6.222 1.165c-1.808.468-3.383 1.96-3.943 3.735-.729 2.308-1.017 14.537-.517 21.98.205 3.064.385 4.144.839 5.041.319.63.93 1.366 1.534 1.846 1.156.919 2.105 1.21 4.385 1.346 8.874.531 22.086.531 30.96 0 2.28-.136 3.229-.427 4.385-1.346a5.499 5.499 0 0 0 1.885-2.753c.701-2.273.975-14.603.487-21.894-.264-3.937-.501-4.851-1.6-6.164-.64-.764-1.98-1.587-2.976-1.827-1.547-.372-13.975-.71-22.101-.6M31.88 3.6c3.207.083 5.745.189 7.8.324 1.101.072 1.295.107 1.733.311.862.402 1.399 1.116 1.547 2.057.077.489.273 2.975.365 4.636.05.902.044.971-.095 1.013-.083.025-.78.331-1.55.68-4.226 1.916-9.582 3.976-12.842 4.938-2.915.861-4.586 1.073-6.318.804-3.082-.479-9.281-2.661-15.8-5.562-.814-.362-1.618-.718-1.788-.79l-.307-.131.051-1c.074-1.47.279-4.05.364-4.588.148-.941.685-1.655 1.547-2.057.55-.256 1.027-.303 4.813-.479 4.837-.224 14.886-.301 20.48-.156M8.52 16.838c6.589 2.751 11.477 4.3 14.555 4.612 2.007.203 4.763-.344 9.045-1.797 2.933-.995 7.167-2.671 10.411-4.119l.891-.398.057 1.081c.137 2.553-.208 11.516-.519 13.491a2.709 2.709 0 0 1-2.251 2.288c-.424.073-2.049.172-5.469.331-2.816.132-15.865.186-19.52.081-5.115-.146-8.343-.327-8.84-.497-.749-.256-1.466-.952-1.719-1.669-.119-.337-.3-2.08-.44-4.242-.129-1.992-.27-8.748-.205-9.849l.059-1.01.892.397c.491.219 1.865.803 3.053 1.3m4.88 20.796c-.34.152-.595.417-.767.798-.136.299-.15.566-.151 3.008-.001 1.602.032 2.8.082 2.978.216.78 1.039 1.237 1.84 1.021.44-.119.909-.575 1.027-1.001.056-.203.088-1.284.087-2.998-.002-2.957-.017-3.057-.528-3.535a1.508 1.508 0 0 0-1.59-.271m20 0c-.34.152-.595.417-.767.798-.136.299-.15.566-.151 3.008-.001 1.602.032 2.8.082 2.978.216.78 1.039 1.237 1.84 1.021.44-.119.909-.575 1.027-1.001.056-.203.088-1.284.087-2.998-.002-2.957-.017-3.057-.528-3.535a1.508 1.508 0 0 0-1.59-.271m-10 2c-.34.152-.595.417-.767.798-.136.299-.15.566-.151 3.008-.001 1.602.032 2.8.082 2.978.216.78 1.039 1.237 1.84 1.021.44-.119.909-.575 1.027-1.001.056-.203.088-1.284.087-2.998-.002-2.957-.017-3.057-.528-3.535a1.508 1.508 0 0 0-1.59-.271" fill-rule="evenodd"/></svg>