<svg xmlns="http://www.w3.org/2000/svg" viewBox="0 0 48 48"><path d="M4.101 2.116C2.607 2.456 1.308 3.76.959 5.27c-.126.543-.062 1.668.126 2.21.59 1.706 5.106 11.032 6.116 12.632.404.64 1.267 1.454 1.894 1.787.256.136 1.662.652 3.125 1.146 1.463.494 2.66.925 2.66.957 0 .032-1.197.462-2.66.954-1.463.492-2.886 1.021-3.163 1.175-.663.369-1.451 1.116-1.859 1.761C6.19 29.488 1.674 38.816 1.085 40.52c-.188.542-.252 1.667-.126 2.21.456 1.971 2.33 3.378 4.327 3.247.696-.046 3.073-.802 7.354-2.341 11.648-4.187 22.436-9.274 31.029-14.633 1.494-.932 1.835-1.2 2.319-1.827A4.982 4.982 0 0 0 47.063 24c-.004-1.184-.274-2.038-.955-3.011-.483-.691-.91-1.039-2.424-1.978-9.855-6.114-22.567-11.91-35.527-16.198-2.464-.816-3.074-.921-4.056-.697m3.305 3.595C19.293 9.714 30.475 14.689 39.52 20c1.875 1.102 3.688 2.228 3.908 2.429.352.322.589.83.63 1.354.083 1.045-.263 1.604-1.461 2.359-9.492 5.986-21.522 11.508-35.161 16.14-2.568.872-2.825.889-3.333.223-.365-.48-.309-.781.481-2.545 1.52-3.393 4.594-9.626 5.165-10.473.485-.719-.053-.502 8.36-3.366 2.462-.839 2.684-.953 2.941-1.518.186-.41.186-.796 0-1.206-.257-.565-.479-.679-2.941-1.518-7.189-2.447-7.561-2.581-7.855-2.817-.435-.35-.588-.611-2.081-3.542-1.989-3.905-4.174-8.602-4.284-9.21-.068-.377.05-.674.4-1.004.455-.428.757-.389 3.117.405" fill-rule="evenodd"/></svg>