<svg xmlns="http://www.w3.org/2000/svg" viewBox="0 0 48 48"><path d="M38.304 1.683a1.947 1.947 0 0 0-.52.45l-.224.294-.023 2.547-.023 2.546h-2.44c-2.748 0-2.834.016-3.289.613-.199.26-.225.362-.225.873 0 .525.023.607.242.878.48.593.495.596 3.257.596h2.461v2.461c0 2.758.003 2.778.59 3.252.538.436 1.526.354 1.98-.164.378-.431.39-.526.39-3.105V10.48h2.443c2.24 0 2.468-.013 2.74-.151.34-.174.503-.341.687-.705.256-.506.099-1.345-.321-1.714-.431-.378-.526-.39-3.105-.39H40.48V5.077c0-2.24-.013-2.468-.151-2.74a1.788 1.788 0 0 0-.3-.427c-.467-.41-1.197-.505-1.725-.227M17.161 7.608c-1.644.111-2.681.422-3.782 1.135a7.056 7.056 0 0 0-2.523 2.817c-.484.974-2.947 8.627-5.445 16.92-1.73 5.746-3.505 11.769-3.767 12.783-.6 2.325.795 4.607 3.116 5.096.667.141 3.6.165 4.72.039 1.331-.15 2.162-.529 3.022-1.378.893-.881 1.127-1.412 1.75-3.973l.508-2.086h10.48l.508 2.086c.623 2.561.857 3.092 1.75 3.973.86.849 1.691 1.228 3.022 1.378 1.12.126 4.053.102 4.72-.039 1.223-.258 2.225-1.01 2.772-2.079.358-.7.481-1.197.477-1.936-.004-.705-.003-.703-1.342-5.264-3.644-12.421-7.32-24.142-8.004-25.52-.929-1.871-2.644-3.252-4.623-3.723-1.199-.285-4.843-.399-7.359-.229m4.559 2.952c.836.044 1.711.118 1.945.166 1.275.262 2.307 1.119 2.884 2.399.645 1.432 4.511 13.857 7.763 24.955 1.327 4.527 1.27 4.276 1.065 4.739-.279.632-.384.659-2.617.657-2.135-.002-2.565-.065-3.023-.443-.158-.13-.377-.425-.487-.655-.11-.23-.471-1.543-.803-2.918-.332-1.376-.655-2.6-.718-2.72a1.543 1.543 0 0 0-.788-.696c-.259-.109-1.124-.124-6.941-.124s-6.682.015-6.941.124c-.35.146-.631.393-.785.69-.061.117-.4 1.392-.753 2.834-.675 2.752-.817 3.134-1.303 3.502-.456.345-.837.397-2.938.404-2.273.007-2.376-.018-2.654-.648-.201-.454-.217-.371.625-3.258 3.407-11.669 7.525-24.953 8.2-26.443.581-1.286 1.605-2.134 2.897-2.403.397-.082 2.136-.2 3.372-.229a42.7 42.7 0 0 1 2 .067m-2.36 5.515c-.737.135-1.39.565-1.751 1.153-.086.138-1.022 2.959-2.082 6.268-1.424 4.446-1.927 6.118-1.927 6.405 0 .503.331 1.047.769 1.265.296.146.563.155 5.471.178 3.744.018 5.247-.001 5.479-.069.652-.19 1.08-.738 1.081-1.384 0-.288-.496-1.937-1.927-6.4-1.059-3.306-1.997-6.127-2.085-6.269-.244-.397-.841-.88-1.254-1.015-.474-.155-1.307-.217-1.774-.132m2.093 7.825 1.401 4.38-1.427.022c-.785.012-2.069.012-2.853 0l-1.426-.022 1.402-4.38c.771-2.409 1.424-4.38 1.452-4.38.027 0 .68 1.971 1.451 4.38" fill-rule="evenodd"/></svg>