<svg xmlns="http://www.w3.org/2000/svg" viewBox="0 0 48 48"><path d="M5.96 1.633c-1.476.372-2.723 1.545-3.111 2.927-.229.814-.303 2.022-.344 5.64-.036 3.137-.025 3.671.088 4.152.358 1.521 1.578 2.735 3.065 3.05.631.134 2.307.153 3.062.036 1.081-.169 2.276-.982 2.82-1.918.215-.37.474-1.207.626-2.02l.085-.46h5.509V36.789l-.46.091c-2.111.418-2.804.705-3.591 1.489-.902.9-1.186 1.783-1.179 3.671.004.986.034 1.289.169 1.7.318.968.979 1.742 1.912 2.237.981.521.637.503 9.389.503 8.752 0 8.408.018 9.389-.503.934-.496 1.597-1.272 1.91-2.237.131-.401.164-.729.172-1.66.014-1.88-.284-2.817-1.18-3.711-.787-.784-1.48-1.071-3.591-1.489l-.46-.091V13.04h5.513l.049.3c.116.7.374 1.61.57 2.011.486.996 1.756 1.907 2.908 2.087.755.117 2.431.098 3.062-.036 1.559-.33 2.832-1.666 3.1-3.253.072-.427.086-1.505.055-4.065-.056-4.448-.16-5.424-.676-6.324a4.777 4.777 0 0 0-2.381-2.02l-.48-.18-17.8-.014c-14.083-.01-17.884.008-18.2.087m35.773 3.1c.177.117.378.333.447.48.201.428.3 2.257.3 5.539 0 2.655-.016 3.05-.131 3.245-.247.417-.469.483-1.641.483-.926-.001-1.103-.022-1.33-.16-.336-.205-.383-.339-.671-1.88-.279-1.493-.439-1.886-.891-2.185l-.324-.215-4.486-.023c-4.993-.025-4.927-.031-5.399.507a1.79 1.79 0 0 0-.325.587c-.057.215-.077 4.548-.063 13.827l.021 13.514.223.337c.123.185.33.402.461.482.131.079.984.298 1.897.487 2.53.522 2.584.564 2.643 2.048.042 1.068-.051 1.323-.569 1.559-.321.145-.641.152-7.898.153l-7.563.002-.357-.18c-.196-.099-.404-.27-.461-.38-.143-.274-.089-2.044.071-2.305.215-.351.591-.488 2.359-.86 1.913-.402 2.194-.519 2.524-1.05l.19-.305.021-13.508c.014-9.275-.006-13.606-.063-13.821a1.79 1.79 0 0 0-.325-.587c-.472-.538-.406-.532-5.399-.507l-4.486.023-.341.226c-.456.301-.586.626-.874 2.174-.287 1.54-.335 1.675-.671 1.88-.228.139-.401.159-1.342.157-1.176-.003-1.345-.05-1.604-.442-.146-.222-.155-.405-.155-3.27-.001-3.274.098-5.124.296-5.547.142-.303.494-.576.852-.662.138-.033 8.012-.055 17.497-.048l17.246.012.321.213" fill-rule="evenodd"/></svg>