<svg xmlns="http://www.w3.org/2000/svg" viewBox="0 0 48 48"><path d="M18.92 3.012c-1.622.061-3.747.215-4.24.308a5.497 5.497 0 0 0-3.708 2.569C10.21 7.161 6.034 20.455 1.688 35.44a297.989 297.989 0 0 0-1.095 3.84c-.17.666-.117 1.624.125 2.246.386.991 1.341 1.917 2.268 2.196 1.178.355 5.462.376 7.126.035.72-.148 1.406-.54 2.01-1.15.87-.877 1.012-1.214 1.716-4.078l.607-2.473.383-.097A1.582 1.582 0 0 0 16 34.445c0-.407-.309-.922-.707-1.174-.353-.224-.397-.231-1.392-.231-.873 0-1.075.024-1.344.162-.563.287-.646.505-1.427 3.732-.395 1.635-.772 3.075-.837 3.2-.152.293-.435.554-.716.66-.421.159-3.125.275-4.44.189-1.109-.073-1.241-.097-1.42-.265-.145-.137-.197-.269-.197-.502 0-.318.941-3.634 3.093-10.896 3.399-11.472 6.536-21.313 7.018-22.02.291-.426.875-.858 1.316-.975 1.356-.359 7.255-.406 9.653-.078.781.107 1.335.453 1.775 1.111.59.884.922 1.122 1.558 1.122.847 0 1.625-.905 1.474-1.713-.119-.634-.906-1.738-1.661-2.332-.963-.756-1.881-1.09-3.386-1.231-.888-.084-4.424-.253-4.72-.227a21.36 21.36 0 0 1-.72.035M30 10.087c-2.232.191-3.105.475-4.339 1.412-.831.631-1.541 1.605-1.932 2.649-.737 1.966-4.507 15.582-6.773 24.462-.514 2.013-.559 2.43-.353 3.303.25 1.06 1.068 2.157 1.937 2.597.761.385 1.346.476 3.06.475 2.28-.001 3.187-.245 4.162-1.122.849-.764 1.204-1.55 1.636-3.63.16-.766.309-1.456.332-1.534.039-.132.294-.139 4.292-.12l4.25.021.293 1.4c.385 1.84.438 2.02.782 2.68.592 1.132 1.6 1.889 2.893 2.173.856.188 3.498.187 4.272-.001 1.128-.276 1.962-.923 2.507-1.945.631-1.184.649-1.927.096-4.085-1.776-6.927-4.237-15.984-5.724-21.062-1.163-3.975-1.267-4.245-1.999-5.2a5.993 5.993 0 0 0-3.712-2.271c-1.452-.264-3.932-.352-5.68-.202m-11.144 2.025c-.694.255-1.201.735-1.447 1.368-.1.26-1.326 4.094-3.899 12.197-.216.682-.231.793-.149 1.12.121.481.426.866.83 1.05.28.127.535.15 1.724.151 1.617.002 1.929-.086 2.306-.655.281-.425.334-1.105.115-1.501-.235-.426-.665-.734-1.094-.782-.223-.025-.359-.077-.341-.131.017-.049.73-2.291 1.584-4.982l1.554-4.893.44-.055c.595-.075.997-.296 1.261-.695.181-.274.22-.421.219-.826-.002-.566-.19-.919-.666-1.245-.251-.173-.377-.195-1.207-.213-.638-.013-1.02.015-1.23.092m14.544.964c1.8.077 2.442.244 3.143.818.549.451.851 1.001 1.246 2.276.904 2.918 2.889 10.027 4.599 16.47 1.675 6.313 2.092 7.973 2.092 8.326-.001.51-.229.843-.656.959-.511.137-2.895.062-3.276-.103-.513-.223-.656-.592-1.148-2.948-.242-1.163-.477-2.225-.522-2.36-.085-.256-.473-.671-.773-.824-.124-.064-1.885-.09-6.104-.09-6.53 0-6.148-.029-6.619.507-.264.3-.244.226-.863 3.213-.393 1.897-.548 2.27-1.042 2.519-.324.163-3.19.175-3.491.015-.279-.149-.466-.502-.466-.879 0-.731 4.367-16.952 6.455-23.975.598-2.015.766-2.388 1.313-2.935.71-.71 1.388-.905 3.531-1.016.627-.032 1.231-.049 1.341-.038.11.012.668.041 1.24.065m-2.049 4.709c-.404.115-.934.47-1.196.803-.237.302-.3.501-1.868 5.901-.821 2.831-1.407 4.988-1.407 5.183 0 .183.049.45.108.592.13.31.611.75.913.835.121.033 1.965.061 4.099.061 2.134 0 3.978-.028 4.099-.061.279-.078.754-.494.912-.799.067-.13.126-.386.131-.568.01-.333-2.876-10.415-3.11-10.868-.164-.316-.643-.755-1.026-.941-.432-.209-1.181-.271-1.655-.138m.699 10.357c-.876.012-1.612.003-1.635-.02-.037-.037 1.335-4.895 1.525-5.402.063-.167.21.263.89 2.6l.814 2.8-1.594.022" fill-rule="evenodd"/></svg>