<svg xmlns="http://www.w3.org/2000/svg" viewBox="0 0 48 48"><path d="M5.233.566c-1.168.139-2.195.656-3.104 1.562A5.377 5.377 0 0 0 .745 4.36C.562 4.914.534 5.134.534 6c0 .866.028 1.086.211 1.64.29.88.712 1.561 1.383 2.232.468.467 1.316 1.076 1.661 1.191.049.016.042.677-.019 1.821-.346 6.454-.346 15.755 0 22.232.061 1.144.068 1.805.019 1.821-.345.115-1.193.724-1.661 1.191-.671.671-1.093 1.352-1.383 2.232-.183.554-.211.774-.211 1.64 0 .866.028 1.086.211 1.64.29.88.712 1.561 1.383 2.232.671.671 1.352 1.093 2.232 1.383.554.183.774.211 1.64.211.866 0 1.086-.028 1.64-.211.88-.29 1.561-.712 2.232-1.383.467-.468 1.076-1.316 1.191-1.661.016-.049.677-.042 1.821.019 6.434.345 15.798.345 22.232 0 1.144-.061 1.805-.068 1.821-.019.115.345.724 1.193 1.191 1.661.671.671 1.352 1.093 2.232 1.383.554.183.774.211 1.64.211.866 0 1.086-.028 1.64-.211.88-.29 1.561-.712 2.232-1.383.671-.671 1.093-1.352 1.383-2.232.183-.554.211-.774.211-1.64 0-.866-.028-1.086-.211-1.64-.29-.88-.712-1.561-1.383-2.232-.468-.467-1.316-1.076-1.661-1.191-.049-.016-.042-.677.019-1.821.189-3.53.246-6.109.246-11.116s-.057-7.586-.246-11.116c-.061-1.144-.068-1.805-.019-1.821.345-.115 1.193-.724 1.661-1.191.671-.671 1.093-1.352 1.383-2.232.183-.554.211-.774.211-1.64 0-.866-.028-1.086-.211-1.64a7.158 7.158 0 0 0-.513-1.152c-.37-.627-1.285-1.555-1.892-1.918-1.704-1.02-3.996-1.02-5.7 0-.613.367-1.53 1.298-1.87 1.899-.434.767-.318.714-1.4.643-4.137-.273-12.985-.391-18.08-.241-3.05.09-5.902.216-6.418.284-.244.032-.272.008-.502-.424C9.787 1.402 7.599.284 5.233.566m1.823 3.18c.478.234.962.718 1.199 1.198.265.539.265 1.574-.001 2.114-.267.543-.832 1.067-1.366 1.269-.553.208-1.382.182-1.928-.062-.455-.203-.976-.723-1.212-1.209-.221-.455-.287-1.24-.147-1.74.195-.696.86-1.406 1.572-1.676.464-.176 1.415-.122 1.883.106m36 0c.478.234.962.718 1.199 1.198.149.304.185.507.185 1.056 0 .803-.171 1.231-.705 1.768-.932.936-2.503.95-3.437.029a3.286 3.286 0 0 1-.549-.739c-.222-.457-.288-1.24-.148-1.742.195-.696.86-1.406 1.572-1.676.464-.176 1.415-.122 1.883.106M28.52 6.56c3.465.075 6.384.186 7.484.286l.523.047.213.693c.28.911.692 1.59 1.388 2.286s1.375 1.108 2.286 1.388l.693.213.047.523c.105 1.16.21 3.983.291 7.856.107 5.121-.037 13.155-.289 16.128-.047.547-.062.583-.263.627-1.087.239-1.968.724-2.765 1.521-.697.697-1.108 1.375-1.389 2.29l-.214.697-.323.042c-1.181.153-8.198.361-12.202.361s-11.021-.208-12.202-.361l-.323-.042-.214-.697c-.281-.915-.692-1.593-1.389-2.29-.797-.797-1.678-1.282-2.765-1.521-.201-.044-.216-.08-.262-.627-.258-3.061-.399-10.91-.289-16.127.081-3.897.178-6.535.287-7.816l.048-.564.694-.213c.912-.28 1.591-.692 2.287-1.388s1.108-1.375 1.387-2.284l.213-.693.484-.047c1.499-.146 7.176-.322 11.404-.353.858-.007 3.18.023 5.16.065m-11.062 4.01c-.805.132-1.651.702-2.109 1.422-.141.222-1.091 2.953-2.555 7.347-2.325 6.98-2.33 6.994-2.236 7.367.244.971 1.183 1.46 2.042 1.062.604-.279.705-.463 1.425-2.609l.671-1.999 3.325-.021 3.325-.021.652 1.957c.359 1.077.731 2.073.827 2.215.096.142.337.345.535.45.905.484 2.042-.139 2.141-1.173.034-.349-.206-1.121-2.223-7.179-1.243-3.733-2.345-6.958-2.449-7.165-.607-1.213-1.973-1.883-3.371-1.653m11.732 2.779c-.378.24-.607.605-.686 1.096-.099.607.425 1.366 1.075 1.556.204.06 1.37.08 3.627.064l3.326-.025.281-.193c.49-.336.667-.679.667-1.294 0-.481-.026-.571-.246-.846-.48-.601-.376-.587-4.238-.587h-3.445l-.361.229m-9.957 3.431c.598 1.793 1.087 3.287 1.087 3.32 0 .033-1.026.06-2.28.06-1.785 0-2.28-.022-2.28-.101 0-.077 1.921-5.919 2.117-6.439.141-.373.311.024 1.356 3.16m10.377 5.778c-.785.191-1.266 1.04-1.048 1.85.118.436.576.905 1 1.023.208.058 1.425.088 3.518.087 2.945-.001 3.226-.013 3.52-.15.973-.45 1.237-1.613.535-2.355-.477-.504-.382-.492-3.975-.507-1.804-.007-3.402.016-3.55.052m-18.078 9.447c-.804.324-1.193 1.232-.864 2.019.13.31.611.75.913.835.121.033 5.745.061 12.499.061 12.122 0 12.284-.002 12.595-.16.173-.088.425-.298.56-.467.219-.275.245-.366.245-.846 0-.615-.177-.958-.667-1.294l-.281-.193-12.406-.015c-7.67-.01-12.478.013-12.594.06m-4.476 7.742c.478.233.962.717 1.199 1.197.149.304.185.507.185 1.056 0 .816-.175 1.241-.738 1.797-1.183 1.166-3.213.786-3.953-.739-.222-.457-.288-1.24-.148-1.742.202-.721.906-1.452 1.622-1.684.501-.162 1.377-.108 1.833.115m36.005.004c.472.228.958.714 1.194 1.193.149.304.185.507.185 1.056 0 .816-.175 1.241-.738 1.797-1.183 1.166-3.213.786-3.953-.739-.222-.457-.288-1.24-.148-1.742.195-.696.859-1.404 1.572-1.677.451-.173 1.419-.115 1.888.112" fill-rule="evenodd"/></svg>