<svg xmlns="http://www.w3.org/2000/svg" viewBox="0 0 48 48"><path d="M17.92.565c-3.173.147-4.183.402-5.496 1.39a6.077 6.077 0 0 0-1.837 2.215c-.348.695-2.421 7.018-4.38 13.365C4.375 23.473.859 35.322.587 36.477.171 38.241 1.12 40.215 2.76 41c.845.405 1.341.469 3.64.472 3.536.004 4.503-.269 5.788-1.631.782-.829 1.002-1.353 1.613-3.841.286-1.166.538-2.201.561-2.3l.041-.18h11.194l.041.18c.023.099.275 1.134.561 2.3.609 2.486.828 3.009 1.613 3.841.871.923 1.702 1.346 3.005 1.529.979.137 4.631.137 5.343-.001a4.103 4.103 0 0 0 3.334-3.769c.052-.736.02-.878-.975-4.28-4.133-14.137-8.369-27.642-9.174-29.25a6.245 6.245 0 0 0-1.797-2.127C26.164.923 25.334.722 21.84.56c-1.861-.086-1.954-.086-3.92.005m4.8 3.038c.726.045 1.518.121 1.76.168.923.179 1.768.813 2.185 1.642.241.479 2.101 6.09 3.449 10.41 2.746 8.791 6.366 21.035 6.366 21.525-.001.346-.226.747-.533.948-.2.131-.438.144-2.544.142-1.74-.001-2.401-.028-2.633-.109-.414-.144-.922-.613-1.1-1.014-.079-.179-.435-1.529-.791-3-.355-1.471-.72-2.829-.81-3.016a1.262 1.262 0 0 0-.537-.56l-.372-.219H12.84l-.366.215c-.246.145-.425.33-.542.56-.097.19-.465 1.551-.819 3.025-.354 1.474-.708 2.824-.786 3-.175.397-.685.866-1.097 1.009-.232.081-.893.108-2.633.109-2.106.002-2.344-.011-2.544-.142-.307-.201-.532-.602-.533-.949 0-.577 4.665-16.227 7.288-24.449 1.306-4.096 2.298-7.036 2.522-7.478a3.171 3.171 0 0 1 2.23-1.656c1.179-.22 4.886-.303 7.16-.161M33.397 7.35c-.66.3-1.019 1.016-.844 1.682.131.499.337.749.911 1.112.582.368.936.744 1.211 1.286.217.428 1.208 3.369 2.524 7.49 2.562 8.021 7.281 23.855 7.281 24.427-.001.347-.226.748-.533.949-.2.13-.435.144-2.504.141-1.574-.002-2.387-.034-2.619-.102-.431-.127-.78-.423-1.114-.945-.311-.487-.639-.742-1.078-.841-.986-.221-1.97.703-1.793 1.684.141.782 1.283 2.115 2.242 2.618.661.346 1.318.491 2.719.597 1.296.098 3.616.049 4.403-.094 1.79-.324 3.159-1.887 3.291-3.754.054-.764.051-.777-1.364-5.603-4.053-13.826-8.002-26.365-8.813-27.987a6.107 6.107 0 0 0-2.025-2.263c-.869-.568-1.314-.661-1.895-.397M18.88 9.652c-.59.204-1.163.701-1.412 1.224-.18.38-4.098 12.61-4.159 12.985-.104.634.41 1.391 1.069 1.574.197.055 2.175.084 5.685.085 5.813 0 5.697.008 6.166-.424.245-.225.487-.747.49-1.056.001-.132-.919-3.12-2.045-6.64-1.557-4.871-2.107-6.491-2.3-6.78-.304-.456-.813-.839-1.314-.99-.492-.148-1.724-.136-2.18.022m2.674 7.848c.829 2.585 1.525 4.763 1.546 4.84.036.132-.149.14-3.099.14-2.475 0-3.131-.021-3.104-.1.018-.055.715-2.233 1.547-4.84.833-2.607 1.534-4.74 1.558-4.74.025 0 .723 2.115 1.552 4.7m-.693 19.055c-.42.135-.759.406-.931.744-.096.188-.463 1.547-.817 3.021-.354 1.474-.708 2.824-.786 3-.175.397-.685.866-1.097 1.009-.232.081-.892.108-2.63.109-2.851.002-2.699.051-3.145-1.007-.286-.677-1.066-1.058-1.763-.863-.469.131-.934.592-1.056 1.047-.186.691.192 1.667.967 2.496.857.915 1.543 1.207 3.157 1.341 1.137.094 3.446.043 4.507-.1 1.215-.163 2.064-.603 2.921-1.511.782-.829 1.002-1.353 1.613-3.841.286-1.166.538-2.201.561-2.3.036-.158.092-.18.46-.182.944-.004 1.658-.657 1.658-1.518 0-.402-.118-.705-.385-.987-.409-.433-.599-.484-1.855-.507-.638-.011-1.258.011-1.379.049" fill-rule="evenodd"/></svg>