<svg xmlns="http://www.w3.org/2000/svg" viewBox="0 0 48 48"><path d="M23.36.531a9.602 9.602 0 0 0-6.121 2.79c-.536.534-1.539 1.865-1.649 2.188-.02.058-.833.114-2.43.169-3.804.129-5.797.244-6.397.37-1.073.225-2.175.896-2.78 1.694-.658.866-1.395 2.753-1.477 3.778-.093 1.166.381 2.4 1.258 3.278.465.465 1.382 1.042 1.657 1.042.051 0 .099.887.131 2.46.237 11.508.573 21.369.771 22.633.368 2.342 1.955 4.436 4.119 5.436 1.153.532 2.115.66 7.238.963 4.584.271 11.101.17 16.44-.256.836-.066 1.819-.192 2.184-.278 2.738-.647 4.93-3.041 5.372-5.865.199-1.272.572-12.115.77-22.39l.052-2.697.291-.094c.821-.265 1.799-1.14 2.233-1.998.337-.666.526-1.559.472-2.234-.082-1.025-.819-2.912-1.477-3.778-.605-.798-1.707-1.469-2.78-1.694-.6-.126-2.593-.241-6.397-.37-1.597-.055-2.41-.111-2.43-.169-.016-.048-.249-.416-.518-.817-1.364-2.04-3.712-3.586-6.086-4.007-.7-.124-1.871-.198-2.446-.154m2.329 3.185c1.858.511 3.337 1.757 4.232 3.564.395.798.496.925.905 1.133.273.139.571.165 2.72.229 3.744.113 6.452.239 6.926.322.703.122 1.06.384 1.395 1.022.338.644.61 1.461.612 1.837.002.405-.276.872-.62 1.044-.502.251-4.866.451-12.559.577-7.275.119-14.945-.002-21.1-.333-1.427-.076-1.817-.122-2.059-.244-.344-.172-.622-.64-.62-1.044.002-.376.274-1.193.612-1.837.335-.638.692-.9 1.395-1.022.474-.083 3.182-.209 6.926-.322 3.072-.092 2.976-.055 3.648-1.402.49-.981 1.126-1.768 1.898-2.35.934-.704 1.947-1.149 3-1.318.464-.075 2.242.02 2.689.144M12 16.329c.99.044 5.331.101 9.646.126 7.621.044 12.492-.022 16.224-.221.831-.044 1.531-.06 1.556-.035.059.06-.121 9.161-.271 13.681-.221 6.626-.416 10.519-.554 11.034-.29 1.087-1.151 2.144-2.146 2.636-.726.359-.992.409-2.976.562-3.696.286-4.887.327-9.479.327s-5.783-.041-9.479-.327c-1.984-.153-2.25-.203-2.976-.562-.664-.328-1.44-1.085-1.802-1.758-.413-.767-.46-1.13-.623-4.792-.253-5.712-.56-16.568-.56-19.787v-1.068l.82.052a201 201 0 0 0 2.62.132m5.621 4.227c-.304.074-.781.42-.909.658a2.594 2.594 0 0 0-.159.412c-.058.202.304 13.656.433 16.102.042.781.207 1.168.631 1.475a1.485 1.485 0 0 0 2.266-.681c.127-.33.12-.808-.115-8.416-.138-4.436-.27-8.195-.294-8.353-.126-.826-1.016-1.401-1.853-1.197m12 0c-.551.135-.996.626-1.094 1.207-.026.152-.158 3.907-.295 8.343-.235 7.608-.242 8.086-.115 8.416.454 1.191 2.119 1.303 2.691.182.213-.418.186.106.475-9.229.155-5.045.209-7.695.158-7.87a1.53 1.53 0 0 0-1.82-1.049" fill-rule="evenodd"/></svg>