<svg xmlns="http://www.w3.org/2000/svg" viewBox="0 0 48 48"><path d="M15.526.602c-.901.163-1.577.547-2.864 1.625-3.471 2.909-7.036 6.563-9.285 9.516-1.06 1.392-2.116 3.027-2.409 3.73-.687 1.65-.605 3.43.237 5.127.58 1.169 2.777 4.17 4.701 6.423 2.191 2.563 6.961 7.087 8.26 7.831.839.481 2.15.698 3.065.508 1.416-.294 3.712-2.017 4.996-3.75.959-1.295 1.309-2.352 1.14-3.444-.165-1.062-.524-1.774-1.342-2.664L21.562 25l2.959-.023c3.236-.025 4.176.037 5.131.34 1.693.537 2.991 1.829 3.345 3.33.142.604.159 1.73.035 2.329-.294 1.421-1.524 2.816-3.021 3.425-.877.357-1.626.489-3.171.559-1.579.071-2.139.194-3.04.668-.629.33-1.458 1.164-1.743 1.753-.704 1.456-.873 3.898-.422 6.095.331 1.611.98 2.611 2.148 3.31 1.139.682 2.188.855 4.777.787 2.09-.055 3.19-.188 4.8-.582 5.545-1.356 10.098-4.978 12.37-9.839 2.243-4.8 2.124-10.541-.32-15.473-2.451-4.948-7.241-8.698-12.863-10.071-2.189-.534-3.556-.648-7.817-.648h-3.15l.454-.517c1.361-1.55 1.724-3.197 1.041-4.721-.641-1.43-2.137-3.05-3.898-4.223-.913-.608-1.425-.826-2.203-.939-.652-.094-.706-.092-1.448.042m2.039 3.43c1.302.866 2.694 2.411 2.808 3.115.083.511-.176.877-1.955 2.757-1.153 1.218-1.718 1.874-1.783 2.071-.222.672.089 1.445.733 1.825.263.155.46.161 6.192.207 6.368.05 6.382.051 8.24.506 3.168.777 6.178 2.509 8.333 4.795 4.288 4.548 5.413 11.302 2.787 16.732-1.423 2.944-3.871 5.351-6.96 6.842-2.517 1.215-4.73 1.678-8.014 1.678-1.597 0-1.825-.017-2.217-.163-.596-.224-.966-.642-1.089-1.235-.274-1.322-.311-2.495-.114-3.571.161-.877.31-1.119.856-1.386.405-.198.549-.219 1.987-.287 2.959-.14 4.788-.867 6.52-2.592 2.204-2.193 2.861-5.385 1.716-8.343-.914-2.362-3.058-4.084-5.972-4.795-.486-.119-1.245-.139-6.248-.165-5.514-.03-5.706-.026-6 .125-.375.191-.542.37-.702.752a1.45 1.45 0 0 0 .024 1.195c.081.159.864 1.047 1.74 1.974 1.625 1.719 1.953 2.159 1.953 2.613 0 .638-1.365 2.226-2.7 3.14-1.372.939-1.595.893-3.46-.715-1.523-1.314-4.569-4.325-5.73-5.667-2.327-2.688-4.457-5.632-4.806-6.64-.221-.638-.235-1.398-.037-1.97.298-.861 1.993-3.252 3.764-5.31 1.82-2.114 4.713-4.943 7.137-6.979 1.087-.912 1.318-1.034 1.89-.996.351.023.527.101 1.107.487" fill-rule="evenodd"/></svg>