<svg xmlns="http://www.w3.org/2000/svg" data-name="Layer 1" style="" viewBox="0 0 512 512"><g><defs><linearGradient id="1770301554794-7657097_b" x1="256" x2="256" y1="2" y2="514" gradientTransform="matrix(1 0 0 -1 0 514)" gradientUnits="userSpaceOnUse"><stop offset="0" stop-color="#ff9500"></stop><stop offset=".19" stop-color="#ffad00"></stop><stop offset=".55" stop-color="#ffd500"></stop><stop offset=".83" stop-color="#ffed00"></stop><stop offset="1" stop-color="#fff600"></stop></linearGradient><linearGradient id="1770301554794-7657097_d" x1="552.54" x2="552.54" y1="56.24" y2="144.15" gradientTransform="rotate(.45 61906.371 37082.147) scale(1.18 -1)" gradientUnits="userSpaceOnUse"><stop offset=".05" stop-color="#c4eeff" stop-opacity="0"></stop><stop offset=".45" stop-color="#cdf0ff" stop-opacity=".42"></stop><stop offset="1" stop-color="#d4f2ff"></stop></linearGradient><radialGradient id="1770301554794-7657097_c" cx="-263.33" cy="1306.8" r="81.46" fx="-234.34" fy="1348.1" gradientTransform="matrix(.6191 -.78532 -1.23457 -.96992 2141.72 1432.49)" gradientUnits="userSpaceOnUse"><stop offset=".06" stop-color="#73efff"></stop><stop offset=".28" stop-color="#70edff"></stop><stop offset=".45" stop-color="#67e5ff"></stop><stop offset=".59" stop-color="#57d8ff"></stop><stop offset=".72" stop-color="#42c7ff"></stop><stop offset=".84" stop-color="#25afff"></stop><stop offset=".95" stop-color="#0393ff"></stop><stop offset=".96" stop-color="#0091ff"></stop></radialGradient></defs><circle cx="256" cy="256" r="256" fill="url(#1770301554794-7657097_b)"></circle><path d="M321.45 413.61c-16.47-34.3-114.43-34.3-130.9 0C177.41 441 211.8 426.92 256 426.92c44.12 0 78.59 14.08 65.45-13.31m-105.9-161.96c-25.34 18.69-71 19.97-98.39 0-6.31-4.61-16.81-1.45-14.51 3.93 23.89 54.78 103.51 54.7 127.4 0 2.39-5.29-8.19-8.53-14.51-3.93Zm80.9 0c25.34 18.69 71 19.97 98.39 0 6.31-4.61 16.81-1.45 14.51 3.93-23.89 54.78-103.51 54.7-127.4 0-2.39-5.29 8.19-8.53 14.51-3.93Z" fill="#1a1626"></path><path d="M112.9 152.75c-87.55 41.9-35.41 57.26 42.84 30.81 44.12-14.85 14.76-58.45-42.84-30.81m286.2.17c-57.6-27.65-87.04 15.96-42.84 30.81 78.25 26.37 130.39 11.09 42.84-30.81" fill="#d69600"></path><path d="M421.8 339.71c-51.71-23.55-132.61 1.28-139.26 6.91-2.65 2.3-2.82 5.12 2.82 7.85 32.17 15.45 47.27 30.89 70.49 75.01 64 121.43 200.87-28.33 65.96-89.77Z" fill="url(#1770301554794-7657097_c)"></path><path d="M400.73 344.83c-39.34-14.93-101.12-.94-106.33 2.65-2.05 1.45-2.22 3.24 1.96 5.03 24.23 10.33 39.17 20.65 54.87 47.53 40.87 70.31 135.77-22.53 49.49-55.21Z" fill="url(#1770301554794-7657097_d)"></path></g></svg>
