<svg xmlns="http://www.w3.org/2000/svg" data-name="Layer 1" style="" viewBox="0 0 512 512.04"><g><defs><linearGradient id="1770301554805-7155607_b" x1="255.76" x2="255.76" y1="2.02" y2="514.06" gradientTransform="matrix(1 0 0 -1 0 514.06)" gradientUnits="userSpaceOnUse"><stop offset="0" stop-color="#ff9500"></stop><stop offset=".19" stop-color="#ffad00"></stop><stop offset=".55" stop-color="#ffd500"></stop><stop offset=".83" stop-color="#ffed00"></stop><stop offset="1" stop-color="#fff600"></stop></linearGradient><linearGradient id="1770301554805-7155607_c" x1="255.76" x2="255.76" y1="2.02" y2="514.06" gradientTransform="matrix(1 0 0 -1 0 514.06)" gradientUnits="userSpaceOnUse"><stop offset=".25" stop-color="#fff600" stop-opacity="0"></stop><stop offset=".32" stop-color="#ffd500" stop-opacity=".11"></stop><stop offset=".52" stop-color="#ff7b00" stop-opacity=".44"></stop><stop offset=".68" stop-color="#ff3900" stop-opacity=".71"></stop><stop offset=".8" stop-color="#ff1000" stop-opacity=".9"></stop><stop offset=".86" stop-color="red"></stop></linearGradient><linearGradient id="1770301554805-7155607_d" x1="422.03" x2="483.34" y1="382.19" y2="382.19" gradientTransform="rotate(-45 -369.375 -106.79) scale(1 -.99)" gradientUnits="userSpaceOnUse"><stop offset=".41" stop-color="#f2f8ff"></stop><stop offset=".79" stop-color="#dadee6"></stop></linearGradient><linearGradient id="1770301554805-7155607_e" x1="433.01" x2="472.42" y1="348.95" y2="348.95" gradientTransform="rotate(-45 -369.375 -106.79) scale(1 -.99)" gradientUnits="userSpaceOnUse"><stop offset="0" stop-color="#ffadad"></stop><stop offset=".14" stop-color="#ff2121"></stop><stop offset="1" stop-color="#d1000b"></stop></linearGradient><linearGradient id="1770301554805-7155607_f" x1="313.61" x2="326.64" y1="141.19" y2="157.84" gradientTransform="matrix(1 0 0 -1 0 514.06)" gradientUnits="userSpaceOnUse"><stop offset="0" stop-color="#1a1626"></stop><stop offset=".84" stop-color="#1a1626" stop-opacity="0"></stop></linearGradient></defs><path d="M255.77 0c141.24 0 255.77 114.61 255.77 256.02S397.01 512.04 255.77 512.04 0 397.43 0 256.02 114.53 0 255.77 0" fill="url(#1770301554805-7155607_b)"></path><path d="M255.77 0c141.24 0 255.77 114.61 255.77 256.02S397.01 512.04 255.77 512.04 0 397.43 0 256.02 114.53 0 255.77 0" style="isolation:isolate" fill="url(#1770301554805-7155607_c)" opacity=".6"></path><path d="M348.11 360.48c-58.97-34.39-144.14-31.58-191.68 10.75-3.93 3.5-.94 9.13 4.27 7 42.16-17.49 121.01-17.15 170.25 13.57 18.86 11.78 37.29-19.63 17.15-31.32Z" class="m" fill="#1a1626"></path><path d="m339.4 390.35-55.81-30.72s125.45-125.54 176.74-176.91c26.88-26.88 70.06 16.39 43.18 43.27-48.81 48.9-164.11 164.37-164.11 164.37Z" fill="url(#1770301554805-7155607_d)"></path><path d="m329.42 384.89-35.84-19.8S393.6 265.07 426.54 232.04c17.24-17.32 45.06 10.5 27.74 27.82-31.41 31.41-124.85 125.02-124.85 125.02Z" fill="url(#1770301554805-7155607_e)"></path><path d="m443.515 199.541 6.76-6.76 12.672 12.672-6.76 6.76zm-30.68 30.785 6.766-6.754 12.66 12.683-6.765 6.754zm-30.701 30.604 6.766-6.755 12.66 12.682-6.766 6.755zm-17.984 43.48-12.63-12.72 6.74-6.82 12.63 12.71zm-43.348 18.02 6.758-6.762 12.675 12.667-6.757 6.762z" fill="#6e8189"></path><path d="M278.72 360.31c36.53-48.73 110.86-12.29 63.92 31.23-9.64 0-42.84-20.82-63.92-31.23" fill="url(#1770301554805-7155607_f)"></path><path d="M170.77 187.75c18.86 0 34.14 19.12 34.14 42.67s-15.28 42.67-34.14 42.67-34.14-19.12-34.14-42.67 15.28-42.67 34.14-42.67" class="m" fill="#1a1626"></path><ellipse cx="341.28" cy="230.42" class="m" rx="34.14" ry="42.67" fill="#1a1626"></ellipse><path d="M135.52 110c-78.85 56.5-24.92 62.47 47.53 22.96 40.88-22.36 4.35-60.17-47.53-22.96m240.92.17c-51.89-37.21-88.41.6-47.53 22.96 72.45 39.51 126.39 33.54 47.53-22.96" fill="#ab1f00"></path></g></svg>
