<svg xmlns="http://www.w3.org/2000/svg" data-name="Layer 1" style="" viewBox="0 0 512 529.07"><g><defs><linearGradient id="1770301554799-1715122_b" x1="256" x2="256" y1="17.07" y2="529.07" gradientTransform="matrix(1 0 0 -1 0 529.07)" gradientUnits="userSpaceOnUse"><stop offset="0" stop-color="#ff9500"></stop><stop offset=".19" stop-color="#ffad00"></stop><stop offset=".55" stop-color="#ffd500"></stop><stop offset=".83" stop-color="#ffed00"></stop><stop offset="1" stop-color="#fff600"></stop></linearGradient><linearGradient id="1770301554799-1715122_c" x1="256" x2="256" y1="192.34" y2="0" gradientTransform="matrix(1 0 0 -1 0 529.07)" gradientUnits="userSpaceOnUse"><stop offset="0" stop-color="#690900"></stop><stop offset=".02" stop-color="#76120b"></stop><stop offset=".08" stop-color="#9a2c2b"></stop><stop offset=".14" stop-color="#b94247"></stop><stop offset=".21" stop-color="#d2545d"></stop><stop offset=".29" stop-color="#e5626e"></stop><stop offset=".38" stop-color="#f36c7a"></stop><stop offset=".5" stop-color="#fb7181"></stop><stop offset=".71" stop-color="#fd7383"></stop></linearGradient><linearGradient id="1770301554799-1715122_d" x1="256" x2="256" y1="61.53" y2="190.04" gradientTransform="matrix(1 0 0 -1 0 529.07)" gradientUnits="userSpaceOnUse"><stop offset="0" stop-color="#c21000" stop-opacity=".06"></stop><stop offset=".18" stop-color="#be1000" stop-opacity=".08"></stop><stop offset=".36" stop-color="#b20f00" stop-opacity=".1"></stop><stop offset=".53" stop-color="#9e0d00" stop-opacity=".12"></stop><stop offset=".71" stop-color="#820b00" stop-opacity=".14"></stop><stop offset=".88" stop-color="#5f0800" stop-opacity=".17"></stop><stop offset="1" stop-color="#420600" stop-opacity=".18"></stop></linearGradient></defs><circle cx="256" cy="256" r="256" fill="url(#1770301554799-1715122_b)"></circle><path d="M381.01 301.14c-19.63 4.78-65.19 14.59-125.01 14.59s-105.39-9.81-125.01-14.59c-12.71-3.07-20.65 6.31-19.54 17.41C117.34 377.09 167.51 435.2 256 435.2s138.67-58.11 144.55-116.65c1.02-11.09-6.83-20.48-19.54-17.41" class="h" fill="#1a1626"></path><path d="M170.67 365.65v51.11c0 74.75 38.23 112.3 85.33 112.3s85.33-37.55 85.33-112.3v-51.11c0-44.63-85.33-24.32-85.33-24.32s-85.33-20.31-85.33 24.32" fill="url(#1770301554799-1715122_c)"></path><path d="M243.88 339.03 256 467.54l12.12-128.43c-7.34 1.11-12.12 2.22-12.12 2.22s-4.86-1.11-12.12-2.3" fill="url(#1770301554799-1715122_d)"></path><path d="M397.31 259.5c-27.31-13.99-81.92-36.52-111.45-45.4-5.46-1.62-5.72-7.34-.43-9.81 35.5-16.38 68.27-33.19 107.01-54.19 7.17-3.84 14.25 6.91 8.36 12.89-15.87 16.04-38.4 31.06-54.95 42.15 18.86 9.81 44.8 27.14 61.53 42.58 6.66 6.23-3.33 15.27-10.07 11.78m-292.69-11.69c16.81-15.45 42.75-32.77 61.53-42.58-16.47-11.09-39.08-26.11-54.95-42.15-5.97-5.97 1.19-16.81 8.36-12.89 38.74 20.99 71.59 37.72 107.01 54.19 5.29 2.47 5.03 8.11-.43 9.81-29.53 8.87-84.14 31.4-111.45 45.4-6.74 3.41-16.73-5.63-10.07-11.78" class="h" fill="#1a1626"></path></g></svg>
