<svg xmlns="http://www.w3.org/2000/svg" data-name="Layer 1" style="" viewBox="0 0 512 546.14"><g><defs><linearGradient id="1770301554796-4633368_c" x1="384.34" x2="359.27" y1="215.61" y2="284.5" gradientTransform="matrix(1 0 0 -1 0 548.14)" gradientUnits="userSpaceOnUse"><stop offset="0" stop-color="#c9ff00"></stop><stop offset=".27" stop-color="#c7fc00"></stop><stop offset=".43" stop-color="#c0f400"></stop><stop offset=".56" stop-color="#b5e600"></stop><stop offset=".68" stop-color="#a5d100"></stop><stop offset=".78" stop-color="#91b700"></stop><stop offset=".88" stop-color="#779700"></stop><stop offset=".98" stop-color="#5a7100"></stop><stop offset="1" stop-color="#516600"></stop></linearGradient><linearGradient id="1770301554796-4633368_d" x1="127.64" x2="152.72" y1="215.61" y2="284.5" gradientTransform="matrix(1 0 0 -1 0 548.14)" gradientUnits="userSpaceOnUse"><stop offset="0" stop-color="#c9ff00"></stop><stop offset=".27" stop-color="#c7fc00"></stop><stop offset=".43" stop-color="#c0f400"></stop><stop offset=".56" stop-color="#b5e600"></stop><stop offset=".68" stop-color="#a5d100"></stop><stop offset=".78" stop-color="#91b700"></stop><stop offset=".88" stop-color="#779700"></stop><stop offset=".98" stop-color="#5a7100"></stop><stop offset="1" stop-color="#516600"></stop></linearGradient><radialGradient id="1770301554796-4633368_b" cx="256" cy="258" r="256" fx="256" fy="258" gradientTransform="matrix(1 0 0 -1 0 548.14)" gradientUnits="userSpaceOnUse"><stop offset="0" stop-color="#d773ff"></stop><stop offset=".41" stop-color="#c63bff"></stop><stop offset=".78" stop-color="#b300ff"></stop><stop offset="1" stop-color="#9c00e2"></stop></radialGradient></defs><circle cx="256" cy="290.14" r="256" fill="url(#1770301554796-4633368_b)"></circle><path d="M332.33 403.32c-46.5 39.77-106.21 39.75-152.7 0-6.58-5.61-10.51.47-8.4 5.23 35.69 81.05 133.84 81.03 169.53 0 2.09-4.77-1.83-10.85-8.43-5.23M174.88 99.59c-8.47-8.12-109.21-.71-108.15-92.16.1-8.3-6.62-9.54-9.98-4.24-75.86 119.79 8.91 193.96 22.8 200.34 64.61 29.61 131.03-69.74 95.33-103.94m162.24 0c8.47-8.12 109.21-.71 108.15-92.16-.1-8.3 6.62-9.54 9.98-4.24 75.85 119.79-8.92 193.96-22.8 200.34-64.62 29.61-131.04-69.74-95.33-103.94" class="i" fill="#1a1626"></path><path d="M447.92 250.36c13.63 41.63-5.67 87.83-46.38 106.79-40.66 18.98-88.4 4.11-111.55-32.99l60.7-67.97 97.23-5.84Z" class="j" fill="#430062"></path><path d="M416.6 254.4c13.41 28.71 1 62.83-27.71 76.24-28.71 13.38-62.82.95-76.25-27.73-8.47-18.25 95.47-66.74 103.95-48.5Z" fill="url(#1770301554796-4633368_c)"></path><path d="M64.06 250.36c-13.62 41.63 5.7 87.83 46.4 106.79 40.64 18.98 88.39 4.11 111.54-32.99l-60.7-67.97-97.25-5.84Z" class="j" fill="#430062"></path><path d="M95.38 254.4c-13.4 28.71-.97 62.83 27.72 76.24 28.73 13.38 62.84.95 76.25-27.73 8.48-18.25-95.46-66.74-103.97-48.5Z" fill="url(#1770301554796-4633368_d)"></path><path d="M387.27 261.92c-4.46-10.83-59.05 17.91-54.6 28.71 7.05 17 24.97 24.35 40.04 16.44 15.07-7.93 21.59-28.14 14.56-45.15m-262.54-.01c-7.03 17.01-.51 37.21 14.56 45.15 15.09 7.94 33 .57 40.04-16.43 4.45-10.8-50.13-39.53-54.6-28.72" class="i" fill="#1a1626"></path><path d="M447.92 250.37c-13.96-9.11-30.57-12.88-47.43-12.81-16.9.16-33.8 4.12-49.22 11.27-15.35 7.04-29.45 17.43-40.46 30.29-10.92 12.87-19.04 28.45-20.82 45.03 11.72-11.71 22.95-21.4 34.98-29.82 11.96-8.44 24.34-15.47 37.41-21.56 12.98-6.02 26.5-10.95 40.69-14.66 14.21-3.81 28.38-6.15 44.85-7.75Zm-383.86 0c13.96-9.11 30.58-12.88 47.43-12.81 16.9.16 33.81 4.12 49.23 11.27 15.36 7.04 29.46 17.43 40.47 30.29 10.92 12.87 19.04 28.45 20.82 45.03-11.72-11.71-22.95-21.4-34.97-29.82-11.96-8.44-24.34-15.47-37.43-21.56-12.99-6.02-26.51-10.95-40.69-14.66-14.22-3.81-28.38-6.15-44.86-7.75Z" fill="#8219b3"></path></g></svg>
