<svg xmlns="http://www.w3.org/2000/svg" data-name="Layer 1" style="" viewBox="0 0 512 512"><g><defs><radialGradient id="1770301554798-5189305_c" cx="104.02" cy="206.8" r="93.87" fx="104.02" fy="206.8" gradientTransform="matrix(1 0 0 -1 0 514)" gradientUnits="userSpaceOnUse"><stop offset="0" stop-color="#ff6399" stop-opacity=".55"></stop><stop offset=".2" stop-color="#ff6596" stop-opacity=".44"></stop><stop offset=".36" stop-color="#ff6c8c" stop-opacity=".35"></stop><stop offset=".51" stop-color="#ff767b" stop-opacity=".27"></stop><stop offset=".65" stop-color="#ff8663" stop-opacity=".19"></stop><stop offset=".79" stop-color="#ff9a44" stop-opacity=".12"></stop><stop offset=".92" stop-color="#ffb21f" stop-opacity=".05"></stop><stop offset="1" stop-color="#ffc403" stop-opacity="0"></stop></radialGradient><radialGradient id="1770301554798-5189305_d" cx="407.98" cy="206.8" r="93.87" fx="407.98" fy="206.8" gradientTransform="matrix(1 0 0 -1 0 514)" gradientUnits="userSpaceOnUse"><stop offset="0" stop-color="#ff6399" stop-opacity=".55"></stop><stop offset=".2" stop-color="#ff6596" stop-opacity=".44"></stop><stop offset=".36" stop-color="#ff6c8c" stop-opacity=".35"></stop><stop offset=".51" stop-color="#ff767b" stop-opacity=".27"></stop><stop offset=".65" stop-color="#ff8663" stop-opacity=".19"></stop><stop offset=".79" stop-color="#ff9a44" stop-opacity=".12"></stop><stop offset=".92" stop-color="#ffb21f" stop-opacity=".05"></stop><stop offset="1" stop-color="#ffc403" stop-opacity="0"></stop></radialGradient><linearGradient id="1770301554798-5189305_b" x1="256" x2="256" y1="2" y2="514" gradientTransform="matrix(1 0 0 -1 0 514)" gradientUnits="userSpaceOnUse"><stop offset="0" stop-color="#ff9500"></stop><stop offset=".19" stop-color="#ffad00"></stop><stop offset=".55" stop-color="#ffd500"></stop><stop offset=".83" stop-color="#ffed00"></stop><stop offset="1" stop-color="#fff600"></stop></linearGradient></defs><circle cx="256" cy="256" r="256" fill="url(#1770301554798-5189305_b)"></circle><circle cx="104.02" cy="307.2" r="93.87" fill="url(#1770301554798-5189305_c)"></circle><circle cx="407.98" cy="307.2" r="93.87" fill="url(#1770301554798-5189305_d)"></circle><path d="M332.37 335.02c-46.51 39.77-106.24 39.77-152.66 0-6.57-5.63-10.5.43-8.45 5.21 35.67 81.07 133.89 81.07 169.56 0 2.05-4.69-1.88-10.75-8.45-5.21m-35.92-100.27c25.34-18.69 71-19.97 98.39 0 6.31 4.61 16.81 1.45 14.51-3.93-23.89-54.78-103.51-54.7-127.4 0-2.39 5.29 8.19 8.53 14.51 3.93Zm-80.9 0c-25.34-18.69-71-19.97-98.39 0-6.31 4.61-16.81 1.45-14.51-3.93 23.89-54.78 103.51-54.7 127.4 0 2.39 5.29-8.19 8.53-14.51 3.93Z" fill="#1a1626"></path><path d="M131.33 107.78c-90.79 34.13-40.28 53.93 40.02 34.47 45.31-11.01 19.8-56.92-40.02-34.47m249.26.17c-59.82-22.53-85.33 23.47-40.02 34.47 80.3 19.46 130.9-.34 40.02-34.47" fill="#d69600"></path></g></svg>
