<svg xmlns="http://www.w3.org/2000/svg" data-name="Layer 1" style="" viewBox="0 0 512 512"><g><defs><radialGradient id="1770301554792-6442243_c" cx="121.09" cy="172.58" r="93.87" fx="121.09" fy="172.58" gradientTransform="matrix(1 0 0 -1 0 514)" gradientUnits="userSpaceOnUse"><stop offset="0" stop-color="#ff6399" stop-opacity=".55"></stop><stop offset=".2" stop-color="#ff6596" stop-opacity=".44"></stop><stop offset=".36" stop-color="#ff6c8c" stop-opacity=".35"></stop><stop offset=".51" stop-color="#ff767b" stop-opacity=".27"></stop><stop offset=".65" stop-color="#ff8663" stop-opacity=".19"></stop><stop offset=".79" stop-color="#ff9a44" stop-opacity=".12"></stop><stop offset=".92" stop-color="#ffb21f" stop-opacity=".05"></stop><stop offset="1" stop-color="#ffc403" stop-opacity="0"></stop></radialGradient><radialGradient id="1770301554792-6442243_d" cx="390.91" cy="172.58" r="93.87" fx="390.91" fy="172.58" gradientTransform="matrix(1 0 0 -1 0 514)" gradientUnits="userSpaceOnUse"><stop offset="0" stop-color="#ff6399" stop-opacity=".55"></stop><stop offset=".2" stop-color="#ff6596" stop-opacity=".44"></stop><stop offset=".36" stop-color="#ff6c8c" stop-opacity=".35"></stop><stop offset=".51" stop-color="#ff767b" stop-opacity=".27"></stop><stop offset=".65" stop-color="#ff8663" stop-opacity=".19"></stop><stop offset=".79" stop-color="#ff9a44" stop-opacity=".12"></stop><stop offset=".92" stop-color="#ffb21f" stop-opacity=".05"></stop><stop offset="1" stop-color="#ffc403" stop-opacity="0"></stop></radialGradient><linearGradient id="1770301554792-6442243_b" x1="256" x2="256" y1="2" y2="514" gradientTransform="matrix(1 0 0 -1 0 514)" gradientUnits="userSpaceOnUse"><stop offset="0" stop-color="#ff9500"></stop><stop offset=".19" stop-color="#ffad00"></stop><stop offset=".55" stop-color="#ffd500"></stop><stop offset=".83" stop-color="#ffed00"></stop><stop offset="1" stop-color="#fff600"></stop></linearGradient></defs><path d="M256 0c141.4 0 256 114.6 256 256S397.4 512 256 512 0 397.4 0 256 114.6 0 256 0" fill="url(#1770301554792-6442243_b)"></path><circle cx="121.09" cy="341.42" r="93.87" fill="url(#1770301554792-6442243_c)"></circle><circle cx="390.91" cy="341.42" r="93.87" fill="url(#1770301554792-6442243_d)"></circle><circle id="1770301554792-6442243_e" cx="149.33" cy="272.73" r="81.07" class="r" data-name="Oval" fill="#fff"></circle><path id="1770301554792-6442243_f" d="M153.43 198.31c33.02 0 59.73 26.71 59.73 59.73s-26.71 59.73-59.73 59.73-59.73-26.71-59.73-59.73 26.71-59.73 59.73-59.73" class="q" data-name="Oval" fill="#1a1626"></path><path id="1770301554792-6442243_g" d="M154.71 274.6c12.97 0 23.47 12.12 23.47 27.14s-10.5 27.14-23.47 27.14-23.47-12.12-23.47-27.14 10.5-27.14 23.47-27.14" class="r" data-name="Oval" fill="#fff"></path><path id="1770301554792-6442243_h" d="M117.5 238.34c9.47 0 17.07 8.79 17.07 19.71s-7.68 19.71-17.07 19.71-17.07-8.87-17.07-19.71 7.68-19.71 17.07-19.71" class="r" data-name="Oval" fill="#fff"></path><circle id="1770301554792-6442243_i" cx="362.67" cy="272.73" r="81.07" class="r" data-name="Oval" fill="#fff"></circle><path id="1770301554792-6442243_j" d="M358.66 198.31c33.02 0 59.73 26.71 59.73 59.73s-26.71 59.73-59.73 59.73-59.73-26.71-59.73-59.73 26.71-59.73 59.73-59.73" class="q" data-name="Oval" fill="#1a1626"></path><path id="1770301554792-6442243_k" d="M368.04 274.6c12.97 0 23.47 12.12 23.47 27.14s-10.5 27.14-23.47 27.14-23.47-12.12-23.47-27.14 10.5-27.14 23.47-27.14" class="r" data-name="Oval" fill="#fff"></path><path id="1770301554792-6442243_l" d="M330.84 238.34c9.47 0 17.07 8.79 17.07 19.71s-7.68 19.71-17.07 19.71-17.07-8.87-17.07-19.71 7.68-19.71 17.07-19.71" class="r" data-name="Oval" fill="#fff"></path><path d="M195.33 434.69c31.23-21.93 87.55-23.38 121.26 0 7.85 5.38 20.74 1.62 17.83-4.69-29.53-64.34-127.57-64.17-157.01 0-2.82 6.4 10.15 10.15 17.92 4.69" class="q" fill="#1a1626"></path><path d="M118.36 125.1c-78.93 56.49-24.92 62.46 47.53 22.95 40.96-22.36 4.44-60.16-47.53-22.95m275.28.17c-51.97-37.21-88.49.6-47.53 22.95 72.45 39.59 126.38 33.54 47.53-22.95" fill="#d69600"></path></g></svg>
