<svg xmlns="http://www.w3.org/2000/svg" data-name="Layer 1" style="" viewBox="0 0 512 512"><g><defs><linearGradient id="1770301554779-4018098_b" x1="256" x2="256" y1="2" y2="514" gradientTransform="matrix(1 0 0 -1 0 514)" gradientUnits="userSpaceOnUse"><stop offset="0" stop-color="#ff9500"></stop><stop offset=".19" stop-color="#ffad00"></stop><stop offset=".55" stop-color="#ffd500"></stop><stop offset=".83" stop-color="#ffed00"></stop><stop offset="1" stop-color="#fff600"></stop></linearGradient><linearGradient id="1770301554779-4018098_c" x1="119.53" x2="392.46" y1="194" y2="194" gradientTransform="matrix(1 0 0 -1 0 514)" gradientUnits="userSpaceOnUse"><stop offset="0" stop-color="#cfd7e6"></stop><stop offset=".04" stop-color="#dae0ec"></stop><stop offset=".13" stop-color="#eef1f6"></stop><stop offset=".21" stop-color="#fbfcfd"></stop><stop offset=".3" stop-color="#fff"></stop><stop offset=".7" stop-color="#fff"></stop><stop offset=".79" stop-color="#fbfcfd"></stop><stop offset=".87" stop-color="#eef1f6"></stop><stop offset=".96" stop-color="#dae0ec"></stop><stop offset="1" stop-color="#cfd7e6"></stop></linearGradient></defs><circle cx="256" cy="256" r="256" fill="url(#1770301554779-4018098_b)"></circle><ellipse cx="170.67" cy="179.2" class="g" rx="34.13" ry="59.73" fill="#1a1626"></ellipse><ellipse cx="341.33" cy="179.2" class="g" rx="34.13" ry="59.73" fill="#1a1626"></ellipse><path d="M386.05 292.95c-31.06-5.8-74.84-11.35-130.05-11.35s-99.07 5.55-130.13 11.35c-15.7 2.9-24.23 15.96-23.47 29.1 3.84 66.13 54.61 121.69 153.6 121.69s149.76-55.55 153.51-121.77c.77-13.14-7.77-26.11-23.47-29.01Z" class="g" fill="#1a1626"></path><path d="M183.21 409.6s32.34 17.07 72.79 17.07 72.79-17.07 72.79-17.07S304.56 384 256 392.53c-48.47-8.53-72.79 17.07-72.79 17.07" fill="#fd7383"></path><path d="M379.82 309.25c-21.42-3.84-66.73-10.58-123.82-10.58s-102.4 6.74-123.82 10.58c-13.4 2.39-13.65 8.28-11.86 19.46 1.54 9.81 2.65 12.37 12.97 12.54 9.56.17 122.71 0 122.71 0s113.15.17 122.71 0c10.41-.17 11.43-2.73 12.97-12.54 1.79-11.18 1.45-16.98-11.86-19.46" fill="url(#1770301554779-4018098_c)"></path></g></svg>
