<svg xmlns="http://www.w3.org/2000/svg" data-name="Layer 1" style="" viewBox="0 0 512 512"><g><defs><linearGradient id="1770301554791-6375505_b" x1="256" x2="256" y1="2" y2="514" gradientTransform="matrix(1 0 0 -1 0 514)" gradientUnits="userSpaceOnUse"><stop offset="0" stop-color="#ff9500"></stop><stop offset=".19" stop-color="#ffad00"></stop><stop offset=".55" stop-color="#ffd500"></stop><stop offset=".83" stop-color="#ffed00"></stop><stop offset="1" stop-color="#fff600"></stop></linearGradient></defs><path d="M256 0C114.6 0 0 114.6 0 256s114.6 256 256 256 256-114.6 256-256S397.4 0 256 0" fill="url(#1770301554791-6375505_b)"></path><path d="M215.64 281.17c-25.34 18.69-71 19.97-98.39 0-6.31-4.61-16.81-1.45-14.51 3.93 23.89 54.78 103.51 54.7 127.4 0 2.3-5.29-8.28-8.53-14.51-3.93Zm80.81 0c25.34 18.69 71 19.97 98.39 0 6.31-4.61 16.81-1.45 14.51 3.93-23.89 54.78-103.51 54.7-127.4 0-2.39-5.29 8.19-8.53 14.51-3.93ZM195.33 435.2c31.23-21.93 87.55-23.38 121.26 0 7.85 5.38 20.74 1.62 17.83-4.69-29.53-64.34-127.57-64.17-157.01 0-2.82 6.31 10.15 10.07 17.92 4.69" fill="#1a1626"></path><path d="M111.36 174.42c-83.54 49.41-30.29 60.07 45.4 26.97 42.67-18.69 9.56-59.56-45.4-26.97m289.28.09c-54.95-32.51-88.06 8.28-45.4 26.97 75.69 33.11 128.94 22.44 45.4-26.97" fill="#d69600"></path></g></svg>
