<svg xmlns="http://www.w3.org/2000/svg" data-name="Layer 1" style="" viewBox="0 0 512 529.07"><g><defs><linearGradient id="1770301554771-4403750_b" x1="-502" x2="-502" y1="-658.93" y2="-146.93" gradientTransform="matrix(1 0 0 -1 758 -146.93)" gradientUnits="userSpaceOnUse"><stop offset="0" stop-color="#05f"></stop><stop offset=".98" stop-color="#0ef"></stop></linearGradient><linearGradient id="1770301554771-4403750_c" x1="-444.53" x2="-171.47" y1="1043.91" y2="1043.91" gradientTransform="translate(564 -724)" gradientUnits="userSpaceOnUse"><stop offset="0" stop-color="#cfd7e6"></stop><stop offset=".04" stop-color="#dae0ec"></stop><stop offset=".13" stop-color="#eef1f6"></stop><stop offset=".21" stop-color="#fbfcfd"></stop><stop offset=".3" stop-color="#fff"></stop><stop offset=".7" stop-color="#fff"></stop><stop offset=".79" stop-color="#fbfcfd"></stop><stop offset=".87" stop-color="#eef1f6"></stop><stop offset=".96" stop-color="#dae0ec"></stop><stop offset="1" stop-color="#cfd7e6"></stop></linearGradient><linearGradient id="1770301554771-4403750_d" x1="-936.66" x2="-680.68" y1="78.58" y2="78.58" gradientTransform="rotate(180 -276.33 229.2)" gradientUnits="userSpaceOnUse"><stop offset="0" stop-color="#cfd7e6"></stop><stop offset=".04" stop-color="#dae0ec"></stop><stop offset=".13" stop-color="#eef1f6"></stop><stop offset=".21" stop-color="#fbfcfd"></stop><stop offset=".3" stop-color="#fff"></stop><stop offset=".7" stop-color="#fff"></stop><stop offset=".79" stop-color="#fbfcfd"></stop><stop offset=".87" stop-color="#eef1f6"></stop><stop offset=".96" stop-color="#dae0ec"></stop><stop offset="1" stop-color="#cfd7e6"></stop></linearGradient><linearGradient id="1770301554771-4403750_e" x1="-425.14" x2="-425.14" y1="1253.07" y2="1124.83" gradientTransform="translate(564 -724)" gradientUnits="userSpaceOnUse"><stop offset=".43" stop-color="#a1e4ff"></stop><stop offset="1" stop-color="#c9edff"></stop></linearGradient><linearGradient id="1770301554771-4403750_f" x1="-401.08" x2="-401.08" y1="1236.77" y2="1127.89" gradientTransform="translate(564 -724)" gradientUnits="userSpaceOnUse"><stop offset=".43" stop-color="#a1e4ff"></stop><stop offset="1" stop-color="#c9edff"></stop></linearGradient><linearGradient id="1770301554771-4403750_g" x1="-224.99" x2="-224.99" y1="1253.07" y2="1128.19" gradientTransform="translate(564 -724)" gradientUnits="userSpaceOnUse"><stop offset=".43" stop-color="#a1e4ff"></stop><stop offset="1" stop-color="#c9edff"></stop></linearGradient><linearGradient id="1770301554771-4403750_h" x1="-198.03" x2="-198.03" y1="1219.46" y2="1128.19" gradientTransform="translate(564 -724)" gradientUnits="userSpaceOnUse"><stop offset=".43" stop-color="#a1e4ff"></stop><stop offset="1" stop-color="#c9edff"></stop></linearGradient><linearGradient id="1770301554771-4403750_i" x1="-271.19" x2="-271.19" y1="1216.17" y2="1131.5" gradientTransform="translate(564 -724)" gradientUnits="userSpaceOnUse"><stop offset=".43" stop-color="#a1e4ff"></stop><stop offset="1" stop-color="#c9edff"></stop></linearGradient><linearGradient id="1770301554771-4403750_j" x1="-370.66" x2="-370.66" y1="1216.17" y2="1131.5" gradientTransform="translate(564 -724)" gradientUnits="userSpaceOnUse"><stop offset=".43" stop-color="#a1e4ff"></stop><stop offset="1" stop-color="#c9edff"></stop></linearGradient><linearGradient id="1770301554771-4403750_k" x1="-344" x2="-344" y1="1190.64" y2="1133.92" gradientTransform="translate(564 -724)" gradientUnits="userSpaceOnUse"><stop offset=".43" stop-color="#a1e4ff"></stop><stop offset="1" stop-color="#c9edff"></stop></linearGradient><linearGradient id="1770301554771-4403750_l" x1="-510.35" x2="-510.35" y1="936.33" y2="814.64" gradientTransform="translate(564 -724)" gradientUnits="userSpaceOnUse"><stop offset=".43" stop-color="#a1e4ff"></stop><stop offset="1" stop-color="#c9edff"></stop></linearGradient><linearGradient id="1770301554771-4403750_m" x1="-475.59" x2="-475.59" y1="955.05" y2="762.23" gradientTransform="translate(564 -724)" gradientUnits="userSpaceOnUse"><stop offset=".43" stop-color="#a1e4ff"></stop><stop offset="1" stop-color="#c9edff"></stop></linearGradient><linearGradient id="1770301554771-4403750_n" x1="-107.33" x2="-107.33" y1="1006.21" y2="798.82" gradientTransform="translate(564 -724)" gradientUnits="userSpaceOnUse"><stop offset=".43" stop-color="#a1e4ff"></stop><stop offset="1" stop-color="#c9edff"></stop></linearGradient><linearGradient id="1770301554771-4403750_o" x1="-201.14" x2="-201.14" y1="1179.43" y2="1131.5" gradientTransform="translate(564 -724)" gradientUnits="userSpaceOnUse"><stop offset="0" stop-color="#fff" stop-opacity="0"></stop><stop offset="1" stop-color="#fff" stop-opacity=".6"></stop></linearGradient><linearGradient id="1770301554771-4403750_p" x1="-228.68" x2="-228.68" y1="1206.1" y2="1133.1" gradientTransform="translate(564 -724)" gradientUnits="userSpaceOnUse"><stop offset="0" stop-color="#fff" stop-opacity="0"></stop><stop offset="1" stop-color="#fff" stop-opacity=".6"></stop></linearGradient><linearGradient id="1770301554771-4403750_q" x1="80.77" x2="80.77" y1="373.39" y2="480.37" gradientTransform="matrix(1 0 0 -1 0 529.07)" gradientUnits="userSpaceOnUse"><stop offset="0" stop-color="#fff" stop-opacity="0"></stop><stop offset="1" stop-color="#fff" stop-opacity=".8"></stop></linearGradient><linearGradient id="1770301554771-4403750_r" x1="47.84" x2="47.84" y1="361.52" y2="427.32" gradientTransform="matrix(1 0 0 -1 0 529.07)" gradientUnits="userSpaceOnUse"><stop offset="0" stop-color="#fff" stop-opacity="0"></stop><stop offset="1" stop-color="#fff" stop-opacity=".8"></stop></linearGradient><linearGradient id="1770301554771-4403750_s" x1="229.23" x2="229.23" y1="339.23" y2="439.78" gradientTransform="rotate(180 342.135 264.535)" gradientUnits="userSpaceOnUse"><stop offset="0" stop-color="#fff" stop-opacity="0"></stop><stop offset="1" stop-color="#fff" stop-opacity=".8"></stop></linearGradient><linearGradient id="1770301554771-4403750_t" x1="-273.15" x2="-273.15" y1="1179.43" y2="1135.73" gradientTransform="translate(564 -724)" gradientUnits="userSpaceOnUse"><stop offset="0" stop-color="#fff" stop-opacity="0"></stop><stop offset="1" stop-color="#fff" stop-opacity=".6"></stop></linearGradient><linearGradient id="1770301554771-4403750_u" x1="-372.89" x2="-372.89" y1="1175.93" y2="1133.93" gradientTransform="translate(564 -724)" gradientUnits="userSpaceOnUse"><stop offset="0" stop-color="#fff" stop-opacity="0"></stop><stop offset="1" stop-color="#fff" stop-opacity=".6"></stop></linearGradient><linearGradient id="1770301554771-4403750_v" x1="-402.84" x2="-402.84" y1="1186.19" y2="1131.52" gradientTransform="translate(564 -724)" gradientUnits="userSpaceOnUse"><stop offset="0" stop-color="#fff" stop-opacity="0"></stop><stop offset="1" stop-color="#fff" stop-opacity=".6"></stop></linearGradient><linearGradient id="1770301554771-4403750_w" x1="-427.73" x2="-427.73" y1="1206.1" y2="1129.03" gradientTransform="translate(564 -724)" gradientUnits="userSpaceOnUse"><stop offset="0" stop-color="#fff" stop-opacity="0"></stop><stop offset="1" stop-color="#fff" stop-opacity=".6"></stop></linearGradient></defs><circle cx="256" cy="256" r="256" fill="url(#1770301554771-4403750_b)"></circle><path d="M402.25 308.96c-44.8-24.31-250.3-25.88-293.13 0-34.98 21.15-28.4 68.57 0 92.65 40.23 34.15 250.14 32.61 293.13 0 29.41-22.29 35.66-73.31 0-92.65" fill="#75d6ff"></path><path d="M402.25 300.42c-44.8-24.31-250.3-25.88-293.13 0-34.98 21.15-28.4 68.57 0 92.65 40.23 34.15 250.14 32.61 293.13 0 29.41-22.29 35.66-73.31 0-92.65" class="au" fill="#013366"></path><path d="M379.78 307.52c-21.42-3.23-66.71-8.85-123.78-8.85s-102.35 5.62-123.77 8.85c-12.62 1.88-13.38 6.48-12.52 12.97.54 3.84 1.35 8.53 2.59 13.55 1.38 5.56 2.48 7.02 12.35 7.12h242.71c9.86-.09 10.92-1.56 12.34-7.12 1.25-5.02 2.07-9.71 2.55-13.55.93-6.49.13-11.09-12.47-12.97" fill="url(#1770301554771-4403750_c)"></path><path d="M139.95 392.23c20.09 3.22 62.54 8.84 116.05 8.84s95.95-5.62 116.04-8.84c11.82-1.88 12.54-6.49 11.73-12.98-.5-3.84-1.25-8.53-2.43-13.55-1.27-5.56-2.31-7.02-11.55-7.12H142.24c-9.25.09-10.25 1.55-11.57 7.12-1.16 5.02-1.95 9.71-2.38 13.55-.9 6.49-.15 11.1 11.67 12.98Z" fill="url(#1770301554771-4403750_d)"></path><ellipse cx="170.67" cy="196.27" class="au" rx="34.13" ry="42.67" fill="#013366"></ellipse><ellipse cx="341.33" cy="196.27" class="au" rx="34.13" ry="42.67" fill="#013366"></ellipse><path d="M122.8 409.77c-2.95 26.09 16.09 119.3 16.09 119.3s18.2-93.5 16.18-119.3c-.9-11.47-30.86-12.36-32.27 0" fill="url(#1770301554771-4403750_e)"></path><path d="M149.88 409.63c-2.28 19.98 13.83 103.14 13.83 103.14s13.9-80.89 12.36-100.63c-.67-8.76-25.12-11.96-26.19-2.51" fill="url(#1770301554771-4403750_f)"></path><path d="M321.55 412.89c-3.22 25.41 17.49 116.18 17.49 116.18s19.75-91.06 17.59-116.18c-.98-11.16-33.57-12.01-35.08 0" fill="url(#1770301554771-4403750_g)"></path><path d="M352.61 410.85c-2.45 19.43 13.4 84.62 13.4 84.62s15.12-65.4 13.44-84.62c-.72-8.54-25.67-9.2-26.84 0" fill="url(#1770301554771-4403750_h)"></path><path d="M283.12 412.88c-1.78 15.74 9.72 79.29 9.72 79.29s10.97-63.74 9.76-79.29c-.56-6.91-18.64-7.42-19.48 0" fill="url(#1770301554771-4403750_i)"></path><path d="M183.65 412.88c-1.78 15.74 9.72 79.29 9.72 79.29s10.97-63.74 9.75-79.29c-.55-6.91-18.62-7.42-19.47 0" fill="url(#1770301554771-4403750_j)"></path><path d="M213.51 413.53c-1.21 10.52 6.5 53.11 6.5 53.11s7.35-42.68 6.54-53.11c-.37-4.63-12.47-4.97-13.04 0" fill="url(#1770301554771-4403750_k)"></path><path d="M36.8 112.64c-3.07 21.03 18.05 99.69 18.05 99.69s17.87-94.47 15.77-115.28c-1.55-15.29-31.47-.44-33.82 15.59" fill="url(#1770301554771-4403750_l)"></path><path d="M59.75 72.8c-4.9 33.37 28.65 158.25 28.65 158.25S120.62 82.21 117.32 49.2c-2.59-25.15-53.72-2.66-57.57 23.6" fill="url(#1770301554771-4403750_m)"></path><path d="M437.73 80.87c-3.52 24.23 23.4 201.34 23.4 201.34s14.52-134 14.78-158.07c.24-21.73-35-65.27-38.18-43.26Z" fill="url(#1770301554771-4403750_n)"></path><path d="M356.92 411c-1.09 10.21 5.96 44.43 5.96 44.43s6.73-34.34 5.98-44.43c-.32-4.49-11.42-4.83-11.95 0Z" fill="url(#1770301554771-4403750_o)"></path><path d="M326.23 414.42c-1.66 15.55 9.11 67.68 9.11 67.68s10.29-52.31 9.16-67.68c-.49-6.84-17.45-7.36-18.26 0Z" fill="url(#1770301554771-4403750_p)"></path><path d="M64.87 67.87c-2.71 18.51 15.9 87.8 15.9 87.8s17.88-82.59 16.04-100.9C95.38 40.82 67 53.29 64.87 67.87" fill="url(#1770301554771-4403750_q)"></path><path d="M40.35 113.54c-1.27 11.38 7.49 54 7.49 54s8.41-50.79 7.55-62.05c-.67-8.59-14.03-.91-15.04 8.06Z" fill="url(#1770301554771-4403750_r)"></path><path d="M445.7 95c-1.07 17.22 9.34 94.83 9.34 94.83s10.85-65.13 9.27-82.53c-1.25-13.69-17.77-25.41-18.6-12.31Z" fill="url(#1770301554771-4403750_s)"></path><path d="M285.59 414.92c-.96 9.31 5.27 40.51 5.27 40.51s5.95-31.31 5.29-40.51c-.28-4.1-10.09-4.41-10.56 0" fill="url(#1770301554771-4403750_t)"></path><path d="M185.86 412.99c-.96 8.95 5.27 38.94 5.27 38.94s5.95-30.1 5.29-38.94c-.28-3.93-10.09-4.23-10.56 0" fill="url(#1770301554771-4403750_u)"></path><path d="M154.42 411.51c-1.23 11.64 6.75 50.68 6.75 50.68s7.64-39.18 6.78-50.68c-.36-5.13-12.94-5.51-13.53 0" fill="url(#1770301554771-4403750_v)"></path><path d="M127.26 410.66c-1.63 16.4 9.03 71.44 9.03 71.44s10.21-55.23 9.07-71.44c-.48-7.23-17.3-7.77-18.1 0" fill="url(#1770301554771-4403750_w)"></path></g></svg>
