<svg xmlns="http://www.w3.org/2000/svg" data-name="Layer 1" style="" viewBox="0 0 512 512"><g><defs><linearGradient id="1770301554804-3414583_b" x1="256" x2="256" y1="2" y2="514" gradientTransform="matrix(1 0 0 -1 0 514)" gradientUnits="userSpaceOnUse"><stop offset="0" stop-color="#ff9500"></stop><stop offset=".19" stop-color="#ffad00"></stop><stop offset=".55" stop-color="#ffd500"></stop><stop offset=".83" stop-color="#ffed00"></stop><stop offset="1" stop-color="#fff600"></stop></linearGradient><linearGradient id="1770301554804-3414583_c" x1="-980.6" x2="-870.27" y1="320.7" y2="320.7" gradientTransform="rotate(201.19 -413.014 265.303)" gradientUnits="userSpaceOnUse"><stop offset="0" stop-color="#d8e0f0"></stop><stop offset="0" stop-color="#dae1f1"></stop><stop offset=".11" stop-color="#eef2f9"></stop><stop offset=".21" stop-color="#fbfcfd"></stop><stop offset=".3" stop-color="#fff"></stop><stop offset=".7" stop-color="#fff"></stop><stop offset=".79" stop-color="#fbfcfd"></stop><stop offset=".89" stop-color="#eef2f9"></stop><stop offset=".99" stop-color="#dae1f1"></stop><stop offset="1" stop-color="#d8e0f0"></stop></linearGradient><linearGradient id="1770301554804-3414583_d" x1="-1012.67" x2="-858.59" y1="350.55" y2="350.55" gradientTransform="rotate(197.73 -439.861 237.445)" gradientUnits="userSpaceOnUse"><stop offset="0" stop-color="#d8e0f0"></stop><stop offset="0" stop-color="#dae1f1"></stop><stop offset=".11" stop-color="#eef2f9"></stop><stop offset=".21" stop-color="#fbfcfd"></stop><stop offset=".3" stop-color="#fff"></stop><stop offset=".7" stop-color="#fff"></stop><stop offset=".79" stop-color="#fbfcfd"></stop><stop offset=".89" stop-color="#eef2f9"></stop><stop offset=".99" stop-color="#dae1f1"></stop><stop offset="1" stop-color="#d8e0f0"></stop></linearGradient><linearGradient id="1770301554804-3414583_e" x1="805.62" x2="915.95" y1="-371.64" y2="-371.64" gradientTransform="scale(1 -1) rotate(21.19 716.48 -1544.073)" gradientUnits="userSpaceOnUse"><stop offset="0" stop-color="#d8e0f0"></stop><stop offset="0" stop-color="#dae1f1"></stop><stop offset=".11" stop-color="#eef2f9"></stop><stop offset=".21" stop-color="#fbfcfd"></stop><stop offset=".3" stop-color="#fff"></stop><stop offset=".7" stop-color="#fff"></stop><stop offset=".79" stop-color="#fbfcfd"></stop><stop offset=".89" stop-color="#eef2f9"></stop><stop offset=".99" stop-color="#dae1f1"></stop><stop offset="1" stop-color="#d8e0f0"></stop></linearGradient><linearGradient id="1770301554804-3414583_f" x1="812.06" x2="966.14" y1="-232.79" y2="-232.79" gradientTransform="scale(1 -1) rotate(17.73 820.536 -1679.672)" gradientUnits="userSpaceOnUse"><stop offset="0" stop-color="#d8e0f0"></stop><stop offset="0" stop-color="#dae1f1"></stop><stop offset=".11" stop-color="#eef2f9"></stop><stop offset=".21" stop-color="#fbfcfd"></stop><stop offset=".3" stop-color="#fff"></stop><stop offset=".7" stop-color="#fff"></stop><stop offset=".79" stop-color="#fbfcfd"></stop><stop offset=".89" stop-color="#eef2f9"></stop><stop offset=".99" stop-color="#dae1f1"></stop><stop offset="1" stop-color="#d8e0f0"></stop></linearGradient><linearGradient id="1770301554804-3414583_g" x1="256" x2="256" y1="26.41" y2="258" gradientTransform="matrix(1 0 0 -1 0 514)" gradientUnits="userSpaceOnUse"><stop offset="0" stop-color="#aedcfb"></stop><stop offset="1" stop-color="#d6efff"></stop></linearGradient></defs><path d="M256 0c141.4 0 256 114.6 256 256S397.4 512 256 512 0 397.4 0 256 114.6 0 256 0" fill="url(#1770301554804-3414583_b)"></path><path d="M32.51 381.01 131.92 402l4.1 17.24-93.35-21.67s-5.72-7.17-10.15-16.55Z" fill="url(#1770301554804-3414583_c)"></path><path d="M127.32 325.97C41.05 291.5.09 249.17.09 249.17c0-8.53.85-15.53.85-15.53s43.95 39.34 131.58 75.95c6.91 2.99 1.71 19.2-5.21 16.38Z" fill="url(#1770301554804-3414583_d)"></path><path d="M293.46 208.3c28.25-13.99 73.39-7.34 96.85 17.07 5.46 5.63 16.3 4.35 14.93-1.37-14.08-58.11-92.42-71.85-125.44-22.1-3.16 4.86 6.66 9.81 13.65 6.4Zm-74.92 0c-28.25-13.99-73.39-7.34-96.94 17.07-5.46 5.63-16.3 4.35-14.93-1.37 14.08-58.11 92.42-71.85 125.44-22.1 3.33 4.86-6.57 9.81-13.57 6.4" fill="#1a1626"></path><path d="M479.49 381.01 380.08 402l-4.1 17.24 93.35-21.67s5.72-7.17 10.15-16.55Z" fill="url(#1770301554804-3414583_e)"></path><path d="M384.68 325.97c86.27-34.47 127.23-76.8 127.23-76.8 0-8.53-.85-15.53-.85-15.53s-43.95 39.34-131.58 75.95c-6.91 2.99-1.71 19.2 5.21 16.38Z" fill="url(#1770301554804-3414583_f)"></path><path d="M410.97 311.47C388.19 283.74 295.86 256 256 256s-132.18 27.73-154.97 55.47c-8.96 10.92-6.23 81.24-1.37 98.99 12.8 46.93 101.97 77.14 156.33 77.14s143.45-30.21 156.33-77.14c4.86-17.75 7.59-88.06-1.37-98.99Z" fill="url(#1770301554804-3414583_g)"></path><path d="M256 411.73c-45.14 0-108.97-12.63-152.92-34.3 29.87 35.24 104.45 56.92 152.92 56.92s123.05-21.67 152.92-56.92c-43.95 21.59-107.78 34.3-152.92 34.3m152.92-52.82c-29.87-17.58-104.45-28.42-152.92-28.42s-123.05 10.84-152.92 28.5c43.95-10.92 261.89-10.92 305.83-.09Zm-5.38-30.72s-20.31-12.8-69.03-15.7c43.01 11.52 68.01 24.23 68.01 24.23zm-295.08 0s20.22-12.8 69.03-15.7c-43.01 11.52-68.01 24.23-68.01 24.23z" class="p" style="isolation:isolate" fill="#93c7ec" opacity=".5"></path><path d="M408.75 372.48s-14.76 9.9-50.43 6.49c31.4-5.72 49.58-15.02 49.58-15.02zm-305.5 0s14.76 9.9 50.43 6.49c-31.4-5.72-49.58-15.02-49.58-15.02zM256 449.54c-47.36 0-115.71-25.6-158.29-50.35.6 4.69 1.28 8.62 1.96 11.26 12.8 46.93 101.97 77.14 156.33 77.14s143.45-30.21 156.33-77.14c.77-2.65 1.37-6.66 1.96-11.26-42.58 24.75-110.93 50.35-158.29 50.35" class="p" style="isolation:isolate" fill="#93c7ec" opacity=".5"></path><path d="M256 273.07c37.97 0 121.69 26.79 141.06 48.38 4.44 12.2 3.07 69.12-1.19 84.57-9.39 34.22-86.02 64.6-139.86 64.6s-130.47-30.46-139.86-64.6c-4.18-15.36-5.63-72.28-1.19-84.57 19.37-21.59 103.08-48.38 141.06-48.38M256 256c-39.85 0-132.18 27.73-154.97 55.47-8.96 10.92-6.23 81.24-1.37 98.99 12.8 46.93 101.97 77.14 156.33 77.14s143.45-30.21 156.33-77.14c4.86-17.75 7.59-88.06-1.37-98.99C388.17 283.74 295.84 256 255.98 256Z" fill="#fff"></path></g></svg>
