<svg xmlns="http://www.w3.org/2000/svg" data-name="Layer 1" style="" viewBox="0 0 512 548.57"><g><defs><linearGradient id="1770301554793-7032696_b" x1="256" x2="256" y1="21.93" y2="550.57" gradientTransform="matrix(1 0 0 -1 0 550.57)" gradientUnits="userSpaceOnUse"><stop offset=".45" stop-color="#ffb800"></stop><stop offset=".85" stop-color="#06f"></stop></linearGradient><linearGradient id="1770301554793-7032696_c" x1="256" x2="256" y1="57.89" y2="259.1" gradientTransform="matrix(1 0 0 -1 0 550.57)" gradientUnits="userSpaceOnUse"><stop offset=".13" stop-color="#ab5c10"></stop><stop offset=".24" stop-color="#8c4d15"></stop><stop offset=".4" stop-color="#63391b"></stop><stop offset=".57" stop-color="#432a20"></stop><stop offset=".72" stop-color="#2c1f23"></stop><stop offset=".87" stop-color="#1f1825"></stop><stop offset="1" stop-color="#1a1626"></stop></linearGradient></defs><path d="M256 0C114.65 0 0 116.66 0 260.57c0 34.29 17.65 44.16 17.65 44.16s144.64 136.32 176.64 195.66c20.3 37.67 103.04 37.67 123.34 0 32-59.34 176.73-195.66 176.73-195.66s17.65-9.87 17.65-44.16C512 116.66 397.44 0 256 0" fill="url(#1770301554793-7032696_b)"></path><path d="M420.94 166.67c23.86 41.23 16.37 90.15-16.64 109.17s-79.09 1.1-102.86-40.23c-23.86-41.23-16.37-90.15 16.64-109.17 32.91-19.02 78.99-1.01 102.86 40.23m-210.29 68.94c-23.77 41.23-69.85 59.25-102.86 40.14-33.01-19.02-40.41-67.93-16.64-109.17 23.77-41.23 69.85-59.25 102.86-40.23 32.91 19.2 40.41 68.02 16.64 109.26" class="g" fill="#fff"></path><path d="M256 291.47c-31.27-.64-78.63 156.07-40.96 191.27 14.17 13.26 67.75 13.26 81.92 0 37.67-35.2-9.69-191.82-40.96-191.27" fill="url(#1770301554793-7032696_c)"></path><path d="M9.14 293.49c0-33.46 41.69-33.1 46.45 0 14.9 104.14 55.86 87.41 95.73 122.06 25.42 22.13 32.82 52.85 32.82 95.82 0 37.67-95.63 37.67-95.63 0v-30.72C67.48 469.77 9.15 444.99 9.15 293.5Z" class="g" fill="#fff"></path><path d="M136.32 548.57c-33.46 0-56.78-15.27-56.78-37.21v-25.23C53.58 472.69.18 440.14.18 293.49c0-22.31 15.27-33.92 30.35-33.92 14.08 0 30.72 10.24 33.92 32.64 10.06 70.4 31.18 81.1 57.78 94.54 10.79 5.39 22.95 11.61 34.93 22.03 31.63 27.52 35.93 67.38 35.93 102.67 0 21.85-23.31 37.12-56.78 37.12ZM30.45 277.49c-5.94 0-12.34 4.21-12.34 16 0 141.35 50.65 167.04 72.32 178.1l6.95 3.57v36.21c0 12.53 20.02 19.29 38.86 19.29s38.86-6.77 38.86-19.29c0-44.89-8.59-70.67-29.81-89.05-10.33-8.96-20.94-14.35-31.27-19.57-28.8-14.54-56.05-28.34-67.47-107.98-1.55-11.98-9.23-17.28-16.09-17.28Z" class="f" fill="#99a8ae"></path><path d="M502.86 293.49c0-33.46-41.69-33.1-46.45 0-14.9 104.14-55.86 87.41-95.73 122.06-25.42 22.13-32.82 52.85-32.82 95.82 0 37.67 95.63 37.67 95.63 0v-30.81c21.03-10.79 79.36-35.57 79.36-187.06Z" class="g" fill="#fff"></path><path d="M375.68 548.57c-33.46 0-56.78-15.27-56.78-37.21 0-35.29 4.3-75.06 35.93-102.67 11.98-10.42 24.14-16.55 34.93-22.03 26.7-13.44 47.73-24.14 57.78-94.54 3.2-22.4 19.84-32.64 33.92-32.64 15.09 0 30.35 11.7 30.35 33.92 0 146.74-53.39 179.29-79.27 192.64v25.23c0 22.03-23.41 37.3-56.87 37.3Zm105.87-271.08c-6.86 0-14.45 5.3-16.18 17.28-11.43 79.73-38.67 93.44-67.47 107.98-10.33 5.21-20.94 10.61-31.27 19.57-21.12 18.38-29.81 44.16-29.81 89.05 0 12.53 20.02 19.29 38.86 19.29s38.86-6.77 38.86-19.29v-36.21l6.95-3.57c21.67-10.97 72.32-36.75 72.32-178.1.09-11.79-6.31-16-12.25-16Z" class="f" fill="#99a8ae"></path></g></svg>
