<svg xmlns="http://www.w3.org/2000/svg" data-name="Layer 1" style="" viewBox="0 0 512 512"><g><defs><linearGradient id="1770301554768-9447940_b" x1="256" x2="256" y1="2" y2="514" gradientTransform="matrix(1 0 0 -1 0 514)" gradientUnits="userSpaceOnUse"><stop offset=".3" stop-color="#fa0"></stop><stop offset=".85" stop-color="#26b0ff"></stop></linearGradient><linearGradient id="1770301554768-9447940_d" x1="681.16" x2="706.39" y1="704.61" y2="726.9" gradientTransform="matrix(2.73 0 0 -3.09 -1828.66 2574.67)" gradientUnits="userSpaceOnUse"><stop offset=".05" stop-color="#c4eeff" stop-opacity="0"></stop><stop offset=".45" stop-color="#cdf0ff" stop-opacity=".42"></stop><stop offset="1" stop-color="#d4f2ff"></stop></linearGradient><radialGradient id="1770301554768-9447940_c" cx="761.01" cy="771.72" r="22" fx="761.01" fy="787.66" gradientTransform="matrix(3.15 0 0 -4.48 -2331.01 3814.05)" gradientUnits="userSpaceOnUse"><stop offset="0" stop-color="#73efff"></stop><stop offset=".19" stop-color="#6fecff"></stop><stop offset=".36" stop-color="#64e3ff"></stop><stop offset=".54" stop-color="#51d3ff"></stop><stop offset=".71" stop-color="#36bdff"></stop><stop offset=".87" stop-color="#14a1ff"></stop><stop offset=".96" stop-color="#0091ff"></stop></radialGradient></defs><circle cx="256" cy="256" r="256" fill="url(#1770301554768-9447940_b)"></circle><ellipse cx="170.67" cy="264.53" class="h" rx="34.13" ry="42.67" fill="#1a1626"></ellipse><ellipse cx="341.33" cy="264.53" class="h" rx="34.13" ry="42.67" fill="#1a1626"></ellipse><path d="M349.27 424.7c5.8-35.41-34.99-74.84-93.27-74.84s-99.84 39.68-93.27 74.84c6.23 33.37 48.9 12.46 93.27 12.46 45.91.09 87.72 21.08 93.27-12.46" class="h" fill="#1a1626"></path><path d="M136.96 152.66c-83.54 49.41-30.29 60.07 45.4 26.97 42.67-18.69 9.56-59.48-45.4-26.97m238.08.17c-54.95-32.51-88.06 8.28-45.4 26.97 75.69 33.11 128.94 22.36 45.4-26.97" fill="#016abd"></path><path d="M74.92 293.46c-3.75-10.84-9.56-10.92-13.31 0-11.01 32.09-44.54 75.43-44.54 112.98 0 27.39 22.95 49.58 51.2 49.58s51.2-22.19 51.2-49.58c0-37.46-33.62-81.32-44.54-112.98Z" fill="url(#1770301554768-9447940_c)"></path><path d="M72.36 290.99c-1.28-4.95-6.91-4.95-8.19 0-6.83 25.6-30.63 68.18-30.63 98.22 0 36.1 69.46 36.1 69.46 0 0-30.04-23.89-72.96-30.63-98.22Z" fill="url(#1770301554768-9447940_d)"></path></g></svg>
