<svg xmlns="http://www.w3.org/2000/svg" data-name="Layer 1" style="" viewBox="0 0 512 512"><g><defs><linearGradient id="1770301554802-8517300_b" x1="-458.93" x2="-458.93" y1="504.83" y2="496.3" gradientTransform="matrix(60 0 0 60 27791.9 -29777.93)" gradientUnits="userSpaceOnUse"><stop offset="0" stop-color="#ff9500"></stop><stop offset=".19" stop-color="#ffad00"></stop><stop offset=".55" stop-color="#ffd500"></stop><stop offset=".83" stop-color="#ffed00"></stop><stop offset="1" stop-color="#fff600"></stop></linearGradient></defs><path id="1770301554802-8517300_c" d="M256 0c141.4 0 256 114.6 256 256S397.4 512 256 512 0 397.4 0 256 114.6 0 256 0" data-name="Oval" fill="url(#1770301554802-8517300_b)"></path><path d="M232.11 221.18c-28.59-33.19-115.8-23.3-145.41 26.54-1.96 3.33.68 7.42 5.21 4.61 28.59-17.58 64.6-16.73 64.6-16.73.09 23.98 19.03 43.35 42.41 43.35 33.79 0 49.92-38.31 33.19-57.77m216.15 0c-28.59-33.19-115.8-23.3-145.41 26.54-1.96 3.33.68 7.42 5.21 4.61 28.59-17.58 64.6-16.73 64.6-16.73.09 23.98 19.03 43.35 42.41 43.35 33.79 0 49.92-38.31 33.19-57.77m-91.65 146.69c-53.33-17.32-121.17-.26-151.98 42.07-2.47 3.5.85 7.51 4.61 4.86 30.81-21.42 94.21-34.9 139.01-18.77 17.24 6.14 26.54-22.27 8.36-28.16" fill="#1a1626"></path></g></svg>
