<svg xmlns="http://www.w3.org/2000/svg" data-name="Layer 1" style="" viewBox="0 0 512 512"><g><defs><linearGradient id="1770301554799-3983916_b" x1="256" x2="256" y1="2" y2="514" gradientTransform="matrix(1 0 0 -1 0 514)" gradientUnits="userSpaceOnUse"><stop offset="0" stop-color="#ff9500"></stop><stop offset=".19" stop-color="#ffad00"></stop><stop offset=".55" stop-color="#ffd500"></stop><stop offset=".83" stop-color="#ffed00"></stop><stop offset="1" stop-color="#fff600"></stop></linearGradient></defs><circle cx="256" cy="256" r="256" fill="url(#1770301554799-3983916_b)"></circle><path d="M367.62 273.66c-15.79 0-32.34-6.14-47.45-21.25-26.71-26.71-20.99-61.18-2.13-80.04 16.38-16.38 44.97-23.21 68.78.68 17.15 17.15 13.91 38.91 2.13 50.69-10.5 10.5-28.67 13.48-43.26-1.02-4.35-4.35-4.35-11.43 0-15.79s11.43-4.35 15.87 0c5.21 5.21 9.22 3.41 11.61 1.02 4.1-4.1 5.12-11.78-2.13-19.03-13.91-13.91-28.33-9.47-37.12-.68-11.18 11.18-15.19 31.06 2.13 48.38 23.89 23.89 50.09 14.76 65.19-.34 20.22-20.22 26.2-55.3-1.62-83.11-32.26-32.26-73.9-19.46-100.78 7.42-4.35 4.35-11.43 4.35-15.87 0-4.35-4.35-4.35-11.43 0-15.79 41.22-41.22 95.66-44.29 132.52-7.42 37.8 37.8 29.01 87.3 1.62 114.77-12.8 12.71-30.55 21.5-49.49 21.5Zm-194.82 7.6c-58.28 0-98.9-36.35-98.99-88.41 0-53.42 41.22-82.26 80.04-82.26 33.11 0 68.69 21.33 68.69 68.27 0 37.72-28.42 58.11-55.13 58.11-23.21 0-48.13-15.36-48.13-49.15 0-24.23 17.75-37.29 34.3-37.29 14.85 0 29.87 10.75 29.87 31.32 0 6.14-5.03 11.18-11.18 11.18s-11.18-5.03-11.18-11.18c0-7.42-4.01-8.96-7.42-8.96-5.72 0-11.95 4.69-11.95 14.93 0 19.71 13.31 26.71 25.77 26.71 15.79 0 32.68-11.18 32.68-35.67 0-33.88-25-45.82-46.34-45.82-28.67 0-57.69 20.57-57.69 59.9 0 45.57 38.49 65.96 76.54 65.96 6.23 0 11.18 5.03 11.18 11.18.17 6.23-4.86 11.18-11.09 11.18Zm173.57 125.27c-15.45 0-25.09-12.12-32.77-21.93-3.84-4.86-9.64-12.2-12.71-12.2s-8.62 7.25-12.29 12.12c-7.59 9.81-17.07 22.02-32.6 22.02s-25-12.2-32.6-22.02c-3.75-4.78-9.39-12.12-12.29-12.12-3.07 0-8.87 7.34-12.71 12.2-7.77 9.73-17.32 21.93-32.77 21.93-26.62 0-39.68-33.28-41.05-37.03-2.47-6.66.94-13.99 7.59-16.47 6.57-2.47 13.99.94 16.38 7.51 3.16 8.28 11.01 20.31 17.07 20.31 3.07 0 8.87-7.34 12.71-12.2 7.77-9.73 17.32-21.93 32.77-21.93s25 12.2 32.6 22.02c3.75 4.78 9.39 12.12 12.29 12.12s8.62-7.25 12.37-12.12c7.59-9.81 17.07-22.02 32.6-22.02s25.09 12.2 32.77 21.93c3.84 4.86 9.64 12.2 12.71 12.2 6.06 0 13.99-12.03 17.07-20.31 2.47-6.57 9.81-9.98 16.47-7.51s9.98 9.81 7.51 16.38c-1.45 3.93-14.51 37.12-41.13 37.12Z" fill="#1a1626"></path></g></svg>
