<svg xmlns="http://www.w3.org/2000/svg" data-name="Layer 1" style="" viewBox="0 0 512 478.99"><g><defs><linearGradient id="1770301554787-7526100_b" x1="-292.63" x2="-292.63" y1="2" y2="480.99" gradientTransform="rotate(180 -26.61 240.495)" gradientUnits="userSpaceOnUse"><stop offset="0" stop-color="#ff9500"></stop><stop offset=".19" stop-color="#ffad00"></stop><stop offset=".55" stop-color="#ffd500"></stop><stop offset=".83" stop-color="#ffed00"></stop><stop offset="1" stop-color="#fff600"></stop></linearGradient><linearGradient id="1770301554787-7526100_c" x1="378.7" x2="362.04" y1="172.36" y2="118.64" gradientTransform="matrix(1 0 0 -1 0 480.99)" gradientUnits="userSpaceOnUse"><stop offset="0" stop-color="#c48324" stop-opacity=".8"></stop><stop offset=".86" stop-color="#c48324" stop-opacity="0"></stop></linearGradient><linearGradient id="1770301554787-7526100_d" x1="370.96" x2="390.96" y1="288.82" y2="202.28" gradientTransform="matrix(1 0 0 -1 0 480.99)" gradientUnits="userSpaceOnUse"><stop offset=".34" stop-color="#c48324" stop-opacity="0"></stop><stop offset="1" stop-color="#c48324" stop-opacity=".39"></stop></linearGradient><linearGradient id="1770301554787-7526100_e" x1="209.87" x2="449.05" y1="192.65" y2="192.65" gradientTransform="matrix(1.07998 .00697 -.00693 -1.00007 22.56 482.88)" gradientUnits="userSpaceOnUse"><stop offset="0" stop-color="#ffba0c" stop-opacity="0"></stop><stop offset=".15" stop-color="#ffba0c"></stop><stop offset="1" stop-color="#ffcd4f"></stop></linearGradient><linearGradient id="1770301554787-7526100_f" x1="362.55" x2="372.88" y1="229.12" y2="132.46" gradientTransform="matrix(1 0 0 -1 0 480.99)" gradientUnits="userSpaceOnUse"><stop offset=".23" stop-color="#ffba0c" stop-opacity="0"></stop><stop offset=".61" stop-color="#e69806" stop-opacity=".49"></stop><stop offset="1" stop-color="#cf7800"></stop></linearGradient><linearGradient id="1770301554787-7526100_g" x1="386.79" x2="358.82" y1="269.15" y2="165.74" gradientTransform="matrix(1 0 0 -1 0 480.99)" gradientUnits="userSpaceOnUse"><stop offset=".1" stop-color="#fffad1"></stop><stop offset=".13" stop-color="#fff9c8" stop-opacity=".97"></stop><stop offset=".34" stop-color="#fff38b" stop-opacity=".71"></stop><stop offset=".54" stop-color="#ffee5a" stop-opacity=".48"></stop><stop offset=".72" stop-color="#ffeb37" stop-opacity=".28"></stop><stop offset=".86" stop-color="#ffe922" stop-opacity=".11"></stop><stop offset=".95" stop-color="#ffe81a" stop-opacity="0"></stop></linearGradient></defs><path d="M239.41 0C107.19 0 0 107.19 0 239.49s107.19 239.49 239.41 239.49 239.41-107.19 239.41-239.49S371.63 0 239.41 0" fill="url(#1770301554787-7526100_b)"></path><path d="M286.48 314.73c60.37 11.64 125.12 55.74 129 87.04 42.04-45.75 55.41-99.6 55.41-99.6s-73.67 23.95-184.41 12.55Z" fill="url(#1770301554787-7526100_c)"></path><path d="M280.79 248.83c70.69 20.32 154.18 19.08 196.96 13.38 5.45-46-8.59-90.26-8.59-90.26s-89.77 36.5-188.37 76.89Z" fill="url(#1770301554787-7526100_d)"></path><path d="M250.15 308.95c69.29 10.82 136.18 22.38 205.3 28.16 70.53 5.95 77.55-78.46 7.1-84.32-64.99-5.45-159.06-4.46-207.2-5.62-42.28-1.07-48.31 55-5.2 61.77Z" fill="url(#1770301554787-7526100_e)"></path><path d="M250.15 308.95c69.29 10.82 136.18 22.38 205.3 28.16 70.53 5.95 77.55-78.46 7.1-84.32-64.99-5.45-159.06-4.46-207.2-5.62-42.28-1.07-48.31 55-5.2 61.77Z" fill="url(#1770301554787-7526100_f)"></path><path d="M184.41 160.21c17.59 0 31.96 17.84 31.96 39.89s-14.29 39.89-31.96 39.89-31.96-17.84-31.96-39.89c.08-22.05 14.37-39.89 31.96-39.89m159.72 0c17.67 0 31.96 17.84 31.96 39.89s-14.29 39.89-31.96 39.89-31.96-17.84-31.96-39.89 14.29-39.89 31.96-39.89M319.68 374.6c-13.96-29.07-96.87-29.07-110.83 0-11.15 23.21 18 11.23 55.41 11.23 37.33.08 66.56 11.97 55.41-11.23Z" fill="#1a1626"></path><path d="M250.15 308.95c69.29 10.82 136.18 22.38 205.3 28.16 70.53 5.95 77.55-78.46 7.1-84.32-64.99-5.45-159.06-4.46-207.2-5.62-42.28-1.07-48.31 55-5.2 61.77Z" fill="url(#1770301554787-7526100_g)"></path><path d="M139.32 85.47c-76.39 54.67-24.11 60.45 46 22.22 39.64-21.64 4.29-58.22-46-22.22m234.04 18.17c-57.89-21.64-82.5 22.88-38.65 33.45 77.71 18.66 126.6-.58 38.65-33.45" fill="#d69600"></path></g></svg>
