<svg xmlns="http://www.w3.org/2000/svg" data-name="Layer 1" style="" viewBox="0 0 512 511.97"><g><defs><linearGradient id="1770301554804-6893458_b" x1="255.86" x2="255.86" y1="2" y2="513.97" gradientTransform="matrix(1 0 0 -1 0 513.97)" gradientUnits="userSpaceOnUse"><stop offset="0" stop-color="#ff9500"></stop><stop offset=".19" stop-color="#ffad00"></stop><stop offset=".55" stop-color="#ffd500"></stop><stop offset=".83" stop-color="#ffed00"></stop><stop offset="1" stop-color="#fff600"></stop></linearGradient><linearGradient id="1770301554804-6893458_c" x1="326.87" x2="270.73" y1="358.57" y2="278.2" gradientTransform="matrix(1 0 0 -1 0 513.97)" gradientUnits="userSpaceOnUse"><stop offset="0" stop-color="#c48324"></stop><stop offset=".28" stop-color="#d1932c" stop-opacity=".72"></stop><stop offset=".84" stop-color="#f2bc40" stop-opacity=".16"></stop><stop offset="1" stop-color="#fdca47" stop-opacity="0"></stop></linearGradient><linearGradient id="1770301554804-6893458_d" x1="316.56" x2="289.38" y1="515.09" y2="405.87" gradientTransform="matrix(1 0 0 -1 0 513.97)" gradientUnits="userSpaceOnUse"><stop offset=".25" stop-color="#e6e9f2"></stop><stop offset=".96" stop-color="#c2c6cc"></stop></linearGradient><linearGradient id="1770301554804-6893458_e" x1="425.65" x2="398.59" y1="301.82" y2="252.02" gradientTransform="matrix(1 0 0 -1 0 513.97)" gradientUnits="userSpaceOnUse"><stop offset=".04" stop-color="#c2c6cc"></stop><stop offset="1" stop-color="#dadee6"></stop></linearGradient><linearGradient id="1770301554804-6893458_f" x1="21.42" x2="512" y1="359.79" y2="359.79" gradientTransform="matrix(1 0 0 -1 0 513.97)" gradientUnits="userSpaceOnUse"><stop offset=".1" stop-color="#dadee6"></stop><stop offset=".18" stop-color="#e3e7ef"></stop><stop offset=".34" stop-color="#eef4fb"></stop><stop offset=".5" stop-color="#f2f8ff"></stop><stop offset=".66" stop-color="#eef4fb"></stop><stop offset=".82" stop-color="#e3e7ef"></stop><stop offset=".9" stop-color="#dadee6"></stop></linearGradient></defs><path d="M255.9 0c141.3 0 255.81 114.51 255.81 255.99S397.2 511.98 255.9 511.98 0 397.29 0 255.99 114.6 0 255.9 0" fill="url(#1770301554804-6893458_b)"></path><path d="M21.42 153.42c126.8-91.81 429.45-132.26 466.32 210.93C339.09 550.79-77.05 427.24 21.42 153.42" fill="url(#1770301554804-6893458_c)"></path><path d="M338.75 359.66c-58.11-20.82-133.37-4.1-168.61 41.38-2.9 3.75.68 8.28 4.95 5.55 34.56-22.61 104.78-35.41 153.59-16.21 18.69 7.34 29.86-23.64 10.07-30.72" class="l" fill="#1a1626"></path><ellipse cx="170.57" cy="243.19" class="l" rx="34.13" ry="42.66" fill="#1a1626"></ellipse><ellipse cx="341.23" cy="243.19" class="l" rx="34.13" ry="42.66" fill="#1a1626"></ellipse><path d="M475.11 123.9C422.89 74.92 295.75 13.65 196.17 6.31a243.5 243.5 0 0 0-79.87 35.16c38.48 19.88 271.77 70.91 358.81 82.43" fill="url(#1770301554804-6893458_d)"></path><path d="M302.74 172.02c71.08 51.03 156.07 134.73 184.91 192.33 23.64-49.23 23.72-96.51 23.72-96.51s-86.01-76.54-208.63-95.82" fill="url(#1770301554804-6893458_e)"></path><path d="M330.39 192.93c68.86 21.67 127.31 49.15 181.07 75-36.35-53.76-54.1-117.84-36.35-143.95C367.42 61.01 211.7 34.64 117.92 40.45c-7.59 45.82-54.52 83.54-96.51 113.06 120.65-4.52 213.06 12.03 295.07 36.78 61.78 51.11 157.69 147.02 171.25 174.07-25.26-50.26-93.18-120.48-157.35-171.42Z" style="isolation:isolate" fill="#302c3b" opacity=".2"></path><path d="M117.92 40.45c123.9-.51 246.43 28.16 357.18 83.54 24.75 34.39 40.02 98.55 36.35 143.95-146.16-90.46-318.86-130.9-490.03-114.52 15.7-43.35 54.44-91.05 96.51-112.97Z" fill="url(#1770301554804-6893458_f)"></path></g></svg>
