<svg xmlns="http://www.w3.org/2000/svg" data-name="Layer 1" style="" viewBox="0 0 512 529.05"><g><defs><linearGradient id="1770301554789-8361850_b" x1="256" x2="256" y1="17.05" y2="529.05" gradientTransform="matrix(1 0 0 -1 0 529.05)" gradientUnits="userSpaceOnUse"><stop offset="0" stop-color="#ff9500"></stop><stop offset=".19" stop-color="#ffad00"></stop><stop offset=".55" stop-color="#ffd500"></stop><stop offset=".83" stop-color="#ffed00"></stop><stop offset="1" stop-color="#fff600"></stop></linearGradient><linearGradient id="1770301554789-8361850_c" x1="366.34" x2="366.34" y1="205.21" y2="400.62" gradientTransform="matrix(1 0 0 -1 0 529.05)" gradientUnits="userSpaceOnUse"><stop offset="0" stop-color="#fff" stop-opacity="0"></stop><stop offset="1" stop-color="#fff"></stop></linearGradient></defs><circle cx="256" cy="256" r="256" fill="url(#1770301554789-8361850_b)"></circle><path d="M282.54 392.53h-87.21c-21.5 0-21.5-34.13 0-34.13h87.13c21.59 0 21.59 34.13.09 34.13Z" class="i" fill="#1a1626"></path><ellipse cx="170.67" cy="234.67" class="i" rx="34.13" ry="38.4" fill="#1a1626"></ellipse><ellipse cx="341.33" cy="226.13" class="i" rx="34.13" ry="46.93" fill="#1a1626"></ellipse><path d="M490.58 247.47c0 11.35-17.07 11.35-17.07 0s17.07-11.35 17.07 0" class="f" fill="#6e8189"></path><path d="M490.58 264.53c0 11.35-17.07 11.35-17.07 0s17.07-11.35 17.07 0" class="j" fill="#99a8ae"></path><path d="M490.58 281.6c0 11.35-17.07 11.35-17.07 0s17.07-11.35 17.07 0" class="f" fill="#6e8189"></path><path d="M490.58 298.67c0 11.35-17.07 11.35-17.07 0s17.07-11.35 17.07 0" class="j" fill="#99a8ae"></path><path d="M490.58 315.73c0 11.35-17.07 11.35-17.07 0s17.07-11.35 17.07 0" class="f" fill="#6e8189"></path><path d="M490.58 332.8c0 11.35-17.07 11.35-17.07 0s17.07-11.35 17.07 0" class="j" fill="#99a8ae"></path><path d="M490.58 349.87c0 11.35-17.07 11.35-17.07 0s17.07-11.35 17.07 0" class="f" fill="#6e8189"></path><path d="M490.58 366.93c0 11.35-17.07 11.35-17.07 0s17.07-11.35 17.07 0" class="j" fill="#99a8ae"></path><path d="M490.58 384c0 11.35-17.07 11.35-17.07 0s17.07-11.35 17.07 0" class="f" fill="#6e8189"></path><path d="M490.58 401.07c0 11.35-17.07 11.35-17.07 0s17.07-11.35 17.07 0" class="j" fill="#99a8ae"></path><path d="M490.58 418.13c0 11.35-17.07 11.35-17.07 0s17.07-11.35 17.07 0" class="f" fill="#6e8189"></path><path d="M490.58 435.2c0 11.35-17.07 11.35-17.07 0s17.07-11.35 17.07 0" class="j" fill="#99a8ae"></path><path d="M490.58 452.27c0 11.35-17.07 11.35-17.07 0s17.07-11.35 17.07 0" class="f" fill="#6e8189"></path><path d="M490.58 469.33c0 11.35-17.07 11.35-17.07 0s17.07-11.35 17.07 0" class="j" fill="#99a8ae"></path><path d="M490.58 486.4c0 11.35-17.07 11.35-17.07 0s17.07-11.35 17.07 0" class="f" fill="#6e8189"></path><path d="M490.58 503.47c0 11.35-17.07 11.35-17.07 0s17.07-11.35 17.07 0" class="j" fill="#99a8ae"></path><path d="M490.58 520.53c0 11.35-17.07 11.35-17.07 0s17.07-11.35 17.07 0" class="f" fill="#6e8189"></path><path d="M461.74 252.16c-1.11 0-1.11-51.97 0-51.97 29.01-.09 29.01 51.97 0 51.97" fill="#445159"></path><path d="M366.34 323.84c-54.02 0-97.79-43.78-97.79-97.71s43.78-97.71 97.79-97.71 97.79 43.78 97.79 97.71c-.09 54.02-43.86 97.71-97.79 97.71" style="isolation:isolate" fill="url(#1770301554789-8361850_c)" opacity=".8"></path><path d="M366.34 123.73c-56.58 0-102.4 45.82-102.4 102.4s45.82 102.4 102.4 102.4 102.4-45.82 102.4-102.4-45.91-102.4-102.4-102.4m0 195.5c-51.46 0-93.1-41.64-93.1-93.1s41.64-93.1 93.1-93.1 93.1 41.64 93.1 93.1-41.73 93.1-93.1 93.1" fill="#4e5e67"></path><path d="M335.7 79.96c96.85-5.21 58.54 33.19-22.78 47.62-45.91 8.11-40.96-44.2 22.78-47.62M155.65 137.9c62.29-13.99 81.24 35.07 34.82 39.68-82.18 8.11-129.54-18.52-34.82-39.68" fill="#d69600"></path></g></svg>
