<svg xmlns="http://www.w3.org/2000/svg" data-name="Layer 1" style="" viewBox="0 0 512 512"><g><defs><linearGradient id="1770301554786-861806_b" x1="255.98" x2="255.98" y1="1.81" y2="513.81" gradientTransform="matrix(1 0 0 -1 .02 513.81)" gradientUnits="userSpaceOnUse"><stop offset="0" stop-color="#ff9500"></stop><stop offset=".19" stop-color="#ffad00"></stop><stop offset=".55" stop-color="#ffd500"></stop><stop offset=".83" stop-color="#ffed00"></stop><stop offset="1" stop-color="#fff600"></stop></linearGradient></defs><path d="M256 0c141.4 0 256 114.6 256 256S397.4 512 256 512 0 397.4 0 256 114.6 0 256 0" fill="url(#1770301554786-861806_b)"></path><ellipse cx="170.67" cy="196.27" class="d" rx="34.13" ry="42.67" fill="#1a1626"></ellipse><path d="M341.33 153.6c18.86 0 34.13 19.11 34.13 42.67s-15.27 42.67-34.13 42.67-34.13-19.11-34.13-42.67 15.27-42.67 34.13-42.67m-60.67 276.14h-12.97c-6.74 0-12.2-5.46-12.2-12.2s5.46-12.2 12.2-12.2h12.97c9.05 0 16.13-1.71 19.97-4.86 2.3-1.88 3.41-4.27 3.41-7.25 0-16.04-20.05-24.41-20.05-24.41s19.97-8.02 19.97-24.49c0-2.99-1.11-5.38-3.41-7.25-3.84-3.16-10.92-4.86-19.97-4.86h-12.97c-6.74 0-12.2-5.46-12.2-12.2s5.46-12.2 12.2-12.2h12.97c15.02 0 26.97 3.5 35.33 10.33 8.02 6.49 12.46 15.79 12.46 26.2 0 9.22-3.33 17.83-8.62 24.41 5.38 6.57 8.7 15.27 8.7 24.49 0 10.41-4.44 19.71-12.46 26.2-8.36 6.83-20.22 10.33-35.33 10.33Z" class="d" fill="#1a1626"></path></g></svg>
