<svg xmlns="http://www.w3.org/2000/svg" viewBox="0 0 640 640"><path d="M505.978 34.054c-3.615 2.204-4.247 3.643-18.528 42.213-3.693 9.973-7.24 18.66-7.882 19.303-.643.644-13.845 5.893-29.34 11.666-15.494 5.772-29.414 11.564-30.933 12.871-2.309 1.986-2.762 3.279-2.762 7.893s.453 5.907 2.762 7.893c1.519 1.307 15.439 7.099 30.933 12.871 15.495 5.773 28.699 11.022 29.342 11.666.644.643 5.873 13.793 11.621 29.222 5.747 15.428 11.362 29.21 12.476 30.627 4.316 5.487 14.999 4.101 18.275-2.372.828-1.636 5.964-14.974 11.413-29.64 5.449-14.667 10.434-27.194 11.076-27.837.643-.644 13.846-5.893 29.341-11.666 15.494-5.772 29.414-11.564 30.933-12.871 2.309-1.986 2.762-3.279 2.762-7.893s-.453-5.907-2.762-7.893c-1.519-1.307-15.439-7.099-30.933-12.871-15.495-5.773-28.698-11.022-29.341-11.666-.642-.643-5.627-13.17-11.076-27.837-11.705-31.503-11.95-32.028-15.987-34.115-4.168-2.155-7.339-2.034-11.39.436m-287.845 95.452c-4.788 2.128-7.472 5.588-12.091 15.582a3960.112 3960.112 0 0 1-9.956 21.312c-3.177 6.747-13.425 28.866-22.771 49.154l-16.995 36.887-58.693 27.086c-39.863 18.396-59.624 28.06-61.593 30.123-5.488 5.747-5.231 15.582.552 21.145 2.316 2.228 21.888 11.791 60.847 29.731 31.588 14.545 57.919 26.933 58.514 27.527.594.595 12.982 26.926 27.527 58.514 17.94 38.959 27.503 58.531 29.731 60.847 5.806 6.036 15.784 6.036 21.59 0 2.225-2.312 11.774-21.832 29.588-60.481 14.466-31.386 26.647-57.602 27.067-58.256.421-.655 26.577-13.09 58.124-27.636 31.548-14.545 58.62-27.32 60.161-28.389 3.424-2.375 6.265-8.084 6.265-12.589 0-1.841-.971-5.252-2.159-7.58-2.508-4.916-1.409-4.357-76.243-38.802l-45.868-21.113-26.04-56.684c-14.322-31.176-26.995-58.301-28.163-60.277-2.263-3.828-8.98-7.573-13.527-7.542-1.467.01-4.107.659-5.867 1.441m12.787 105.961c16.447 36.042 20.546 43.845 26.136 49.755 6.267 6.627 11.66 9.635 43.211 24.102 11.733 5.38 21.665 10.103 22.072 10.496.406.392-11.594 6.382-26.667 13.31-15.073 6.928-29.668 14.239-32.433 16.248-8.538 6.203-12.584 12.677-25.847 41.361-6.967 15.067-12.993 27.394-13.392 27.394-.399 0-6.438-12.36-13.42-27.466-13.297-28.771-17.32-35.169-26.058-41.443-2.634-1.891-17.206-9.198-32.383-16.237-27.524-12.767-27.587-12.804-24.534-14.364 1.684-.86 11.702-5.515 22.262-10.344 29.425-13.455 34.905-16.531 41.077-23.057 5.59-5.91 9.689-13.713 26.136-49.755 3.413-7.48 6.527-13.6 6.92-13.6.393 0 3.507 6.12 6.92 13.6m243.058 182.587c-3.615 2.204-4.247 3.643-18.528 42.213-3.693 9.973-7.24 18.66-7.882 19.303-.643.644-13.845 5.893-29.34 11.666-15.494 5.772-29.414 11.564-30.933 12.871-2.309 1.986-2.762 3.279-2.762 7.893s.453 5.907 2.762 7.893c1.519 1.307 15.439 7.099 30.933 12.871 15.495 5.773 28.699 11.022 29.342 11.666.644.643 5.893 13.847 11.666 29.342 5.772 15.494 11.564 29.414 12.871 30.933 1.986 2.309 3.279 2.762 7.893 2.762s5.907-.453 7.893-2.762c1.307-1.519 7.099-15.439 12.871-30.933 5.773-15.495 11.022-28.698 11.666-29.341.643-.642 13.17-5.627 27.837-11.076 14.666-5.449 28.004-10.585 29.64-11.413 6.473-3.276 7.859-13.959 2.372-18.275-1.417-1.114-15.199-6.729-30.627-12.476-15.429-5.748-28.578-10.977-29.221-11.621-.642-.643-5.627-13.17-11.076-27.837-11.705-31.503-11.95-32.028-15.987-34.115-4.168-2.155-7.339-2.034-11.39.436" fill="currentColor" fill-rule="evenodd"/></svg>