<svg xmlns="http://www.w3.org/2000/svg" viewBox="0 0 640 640"><path d="M110.965 105.716c-5.179 2.075-9.902 6.654-12.403 12.026-6.652 14.287 1.338 30.344 16.745 33.648 7.48 1.604 401.906 1.604 409.386 0 11.062-2.372 19.273-12.358 19.297-23.465.014-6.925-4.598-15.572-10.482-19.652l-4.625-3.206-207.641-.204c-134.997-.132-208.564.166-210.277.853m0 128c-5.179 2.075-9.902 6.654-12.403 12.026-6.652 14.287 1.338 30.344 16.745 33.648 7.48 1.604 401.906 1.604 409.386 0 11.062-2.372 19.273-12.358 19.297-23.465.014-6.925-4.598-15.572-10.482-19.652l-4.625-3.206-207.641-.204c-134.997-.132-208.564.166-210.277.853m0 128c-5.179 2.075-9.902 6.654-12.403 12.026-6.652 14.287 1.338 30.344 16.745 33.648 7.48 1.604 401.906 1.604 409.386 0 11.062-2.372 19.273-12.358 19.297-23.465.014-6.925-4.598-15.572-10.482-19.652l-4.625-3.206-207.641-.204c-134.997-.132-208.564.166-210.277.853m0 128c-5.179 2.075-9.902 6.654-12.403 12.026-6.652 14.287 1.338 30.344 16.745 33.648 7.48 1.604 401.906 1.604 409.386 0 11.062-2.372 19.273-12.358 19.297-23.465.014-6.925-4.598-15.572-10.482-19.652l-4.625-3.206-207.641-.204c-134.997-.132-208.564.166-210.277.853" fill="currentColor" fill-rule="evenodd"/></svg>