<svg xmlns="http://www.w3.org/2000/svg" viewBox="0 0 640 640"><path d="M248.411 129.408c-2.121.793-5.241 2.449-6.934 3.679-1.692 1.231-41.335 40.55-88.096 87.376-90.398 90.524-89.308 89.309-89.358 99.594-.049 10.177-.562 9.608 92.481 102.439C250.342 516.119 245.731 512 256.714 512c8.8 0 19.417-8.089 22.175-16.894 1.343-4.287.779-12.753-1.129-16.949-1.195-2.628-24.233-26.493-66.441-68.824l-64.612-64.8h202.327c139.918 0 203.972-.352 207.659-1.143 11.062-2.372 19.273-12.358 19.297-23.465.014-6.925-4.598-15.572-10.482-19.652l-4.625-3.206-206.841-.275c-113.763-.151-206.842-.633-206.842-1.07 0-.437 28.581-29.354 63.514-64.259 34.933-34.905 64.427-64.917 65.542-66.695 7.023-11.193 3.273-26.491-8.131-33.174-5.546-3.25-14.278-4.219-19.714-2.186" fill="currentColor" fill-rule="evenodd"/></svg>