<svg xmlns="http://www.w3.org/2000/svg" viewBox="0 0 640 640"><path d="M144.219 97.206c-5.112 1.474-13.623 10.148-15.04 15.327-2.649 9.684-.715 17.291 6.141 24.147 3.06 3.059 6.574 5.396 9.213 6.127 2.469.683 13.371 1.184 25.867 1.187L192 144v352l-21.6.006c-11.943.003-23.423.512-25.678 1.138-8.745 2.429-16.71 13.323-16.71 22.856 0 9.585 7.836 20.403 16.521 22.807 5.874 1.626 248.671 1.672 260.337.049 18.809-2.616 42.705-12.357 57.03-23.247 8.959-6.81 22.833-21.271 28.705-29.918 33.161-48.831 26.899-115.196-14.801-156.873-8.467-8.462-25.784-21.295-30.949-22.934-2.05-.651-1.803-1.171 3.211-6.761 33.56-37.417 41.282-90.757 19.733-136.32-6.003-12.695-11.882-21.23-21.831-31.692-20.008-21.045-46.372-34.514-74.235-37.929-12.201-1.495-222.323-1.473-227.514.024m231.248 49.222c8.706 2.629 22.119 9.645 29.003 15.172 11.079 8.893 21.884 26.279 25.523 41.067 2.054 8.348 1.827 27.732-.424 36.266-8.021 30.398-34.326 52.919-66.078 56.57-4.854.558-34.624 1.018-66.158 1.022l-57.333.008v-152.64l64.8.382c56.589.333 65.543.606 70.667 2.153m31.335 200.205c20.398 5.217 39.435 20.323 48.433 38.434 6.294 12.668 8.159 20.57 8.182 34.666.023 13.7-1.389 20.294-6.847 32-9.644 20.683-26.375 35.029-48.686 41.747-5.73 1.726-13.413 1.924-87.084 2.244l-80.8.352V344.533h79.296c75.381 0 79.701.104 87.506 2.1" fill="currentColor" fill-rule="evenodd"/></svg>