<svg xmlns="http://www.w3.org/2000/svg" viewBox="0 0 640 640"><path d="M250.66 96.997c-10.821 3.291-18.127 12.562-18.127 23.003 0 9.782-2.483 7.053 96.829 106.4l93.567 93.6-93.567 93.6c-98.958 98.993-96.829 96.659-96.829 106.144 0 12.726 11.435 24.256 24.056 24.256 9.75 0 6.424 3.05 116.056-106.431 78.433-78.324 103.829-104.301 105.457-107.868 2.732-5.986 2.733-13.41.004-19.402-1.629-3.576-26.963-29.462-105.99-108.298-98.402-98.164-104.112-103.661-108.855-104.8-5.612-1.347-8.682-1.397-12.601-.204" fill="currentColor" fill-rule="evenodd"/></svg>