<svg xmlns="http://www.w3.org/2000/svg" viewBox="0 0 640 640"><path d="M80.219 129.206c-5.112 1.474-13.623 10.148-15.04 15.327-1.66 6.07-1.647 344.934.014 350.934 2.404 8.685 13.222 16.521 22.807 16.521 9.585 0 20.403-7.836 22.807-16.521.811-2.929 1.183-27.269 1.187-77.6l.006-73.334h128l.006 73.334c.004 50.331.376 74.671 1.187 77.6 2.404 8.685 13.222 16.521 22.807 16.521 9.585 0 20.403-7.836 22.807-16.521 1.661-6 1.674-344.864.014-350.934-2.321-8.484-13.423-16.521-22.821-16.521-9.398 0-20.5 8.037-22.821 16.521-.792 2.898-1.169 27.975-1.173 78.134L240 296.533H112l-.006-73.866c-.004-50.159-.381-75.236-1.173-78.134-1.497-5.473-9.941-13.833-15.543-15.389-4.858-1.349-10.244-1.327-15.059.062m304-.038c-1.934.578-5.846 3.312-8.694 6.075-7.089 6.877-9.054 14.393-6.332 24.224 1.567 5.661 9.679 13.773 15.34 15.34 2.841.786 21.068 1.183 54.521 1.187 29.13.003 52.67.457 56 1.078 14.975 2.795 28.205 13.073 35.327 27.447 4.248 8.572 4.532 9.724 4.904 19.89.453 12.385-1.596 20.336-7.699 29.876-6.772 10.587-11.455 13.627-59.951 38.909-25.173 13.123-49.848 26.531-54.835 29.796-11.183 7.321-29.584 25.569-36.781 36.477-11.495 17.419-19.515 37.937-22.456 57.447-1.885 12.503-2.203 71.939-.419 78.361 1.445 5.207 7.769 12.236 13.256 14.735 4.024 1.832 9.583 1.943 97.6 1.943 105.128 0 97.852.567 105.796-8.244 10.549-11.701 7.175-29.155-7.129-36.873-4.247-2.292-4.632-2.304-83.467-2.596l-79.2-.293V447.58c0-25.54 3.411-40.388 12.99-56.543 5.22-8.804 18.097-22.583 26.021-27.842 3.143-2.086 25.785-14.265 50.317-27.065 24.531-12.801 46.555-24.506 48.941-26.013 18.41-11.621 33.725-31.55 40.768-53.05 3.49-10.656 4.497-17.579 4.497-30.934.001-25.685-9.236-48.493-27.154-67.049-13.463-13.943-29.267-23.236-47.694-28.047-8.583-2.241-11.264-2.35-64.953-2.63-34.608-.18-57.342.111-59.514.761" fill="currentColor" fill-rule="evenodd"/></svg>