<svg xmlns="http://www.w3.org/2000/svg" viewBox="0 0 640 640"><path d="M80.219 129.206c-5.112 1.474-13.623 10.148-15.04 15.327-1.66 6.07-1.647 344.934.014 350.934 2.404 8.685 13.222 16.521 22.807 16.521 9.585 0 20.403-7.836 22.807-16.521.811-2.929 1.183-27.269 1.187-77.6l.006-73.334h128l.006 73.334c.004 50.331.376 74.671 1.187 77.6 2.404 8.685 13.222 16.521 22.807 16.521 9.585 0 20.403-7.836 22.807-16.521 1.661-6 1.674-344.864.014-350.934-2.321-8.484-13.423-16.521-22.821-16.521-9.398 0-20.5 8.037-22.821 16.521-.792 2.898-1.169 27.975-1.173 78.134L240 296.533H112l-.006-73.866c-.004-50.159-.381-75.236-1.173-78.134-1.497-5.473-9.941-13.833-15.543-15.389-4.858-1.349-10.244-1.327-15.059.062m288 0c-5.112 1.474-13.623 10.148-15.04 15.327-.786 2.873-1.169 25.633-1.173 69.645-.007 71.317.154 73.597 6.225 88.515 7.665 18.835 24.241 35.411 43.076 43.076 14.505 5.903 18.447 6.231 74.915 6.231H528l.006 69.6c.004 47.601.379 70.949 1.187 73.867 2.404 8.685 13.222 16.521 22.807 16.521 9.585 0 20.403-7.836 22.807-16.521 1.661-6 1.674-344.864.014-350.934-2.321-8.484-13.423-16.521-22.821-16.521-9.398 0-20.5 8.037-22.821 16.521-.795 2.907-1.169 29.005-1.173 81.867L528 304h-50.627c-48.082 0-50.914-.108-56.351-2.142-7.763-2.905-13.892-8.424-17.49-15.752L400.533 280 400 212.267c-.598-75.975-.031-70.876-8.702-78.298-6.589-5.639-14.429-7.257-23.079-4.763" fill="currentColor" fill-rule="evenodd"/></svg>