<svg xmlns="http://www.w3.org/2000/svg" viewBox="0 0 640 640"><path d="M272.219 97.206c-5.112 1.474-13.623 10.148-15.04 15.327-2.453 8.966-.789 16.732 4.945 23.078 7.32 8.103 5.322 7.794 54.245 8.389l43.835.533L294.402 320 228.6 495.467l-42.034.533c-41.491.526-42.083.565-45.958 2.974-10.571 6.574-14.659 16.776-11.415 28.493 1.567 5.661 9.679 13.773 15.34 15.34 6.008 1.663 216.926 1.663 222.934 0 5.661-1.567 13.773-9.679 15.34-15.34 3.244-11.717-.844-21.919-11.415-28.493-3.884-2.415-4.389-2.446-47.761-2.974l-43.835-.533L345.598 320 411.4 144.533l42.034-.533c46.908-.595 45.146-.313 52.442-8.389 5.734-6.346 7.398-14.112 4.945-23.078-1.497-5.473-9.941-13.833-15.543-15.389-5.284-1.467-217.961-1.408-223.059.062" fill="currentColor" fill-rule="evenodd"/></svg>