<svg xmlns="http://www.w3.org/2000/svg" viewBox="0 0 640 640"><path d="M435.2 106.106c-25.321 4.287-52.504 16.595-69.333 31.394-3.347 2.943-3.543 3.398-1.887 4.4 5.035 3.046 23.506 17.475 29.718 23.216 5.993 5.538 7.253 6.281 8.533 5.033 2.686-2.619 17.556-10.113 25.278-12.739 11.656-3.965 21.964-5.233 37.267-4.584 15.703.666 25.015 2.939 38.354 9.363 45.761 22.038 67.557 74.466 51.088 122.891-7.02 20.642-8.741 22.77-60.87 75.265-25.821 26.004-49.802 49.439-53.291 52.079-8.261 6.25-23.459 13.543-34.19 16.407-10.665 2.845-29.21 3.861-40 2.192-4.4-.681-12.686-2.837-18.414-4.792-25.295-8.634-46.672-27.945-57.946-52.346-6.94-15.02-8.44-22.514-8.44-42.152 0-16.836.156-18.138 3.606-30.012 4.177-14.379 4.026-19.052-.861-26.759-8.135-12.828-28.653-14.011-38.378-2.213-8.011 9.719-15.048 44.854-13.415 66.984 4.043 54.779 34.293 100.585 82.405 124.779 18.518 9.312 37.461 14.172 59.015 15.14 35.158 1.58 66.2-7.798 95.361-28.808 8.957-6.454 95.944-92.579 105.757-104.711 23.316-28.822 34.888-64.039 33.092-100.705-1.889-38.565-17.556-72.819-45.66-99.828-21.66-20.816-48.449-34.395-77.644-39.358-12.033-2.045-37.451-2.115-49.145-.136m-190.933 54.562c-26.74 3.385-52.496 13.422-72.899 28.406-10.157 7.459-95.392 91.787-105.921 104.793-32.737 40.44-42.076 94.068-24.893 142.933 7.692 21.871 20.003 40.785 37.653 57.844 45.334 43.82 113.063 53.729 170.175 24.899 7.7-3.887 24.518-15.079 27.333-18.189 1.832-2.025 1.895-2.448.482-3.238-5.129-2.871-20.23-14.44-27.73-21.245l-8.698-7.892-2.818 1.808c-41.331 26.518-93.396 21.641-126.927-11.889-27.611-27.611-36.804-67.041-24.242-103.978 7.029-20.669 8.687-22.715 61.403-75.81 51.523-51.894 57.451-56.934 74.863-63.649 14.6-5.63 21.263-6.807 38.219-6.747 12.343.044 17.189.518 24 2.348 34.979 9.4 62.168 36.16 72.211 71.071 2.119 7.363 2.455 10.948 2.455 26.134 0 16.836-.156 18.138-3.606 30.012-4.177 14.379-4.026 19.052.861 26.759 8.135 12.828 28.653 14.011 38.378 2.213 8.011-9.719 15.048-44.854 13.415-66.984-2.542-34.439-15.161-65.111-36.947-89.804-21.567-24.444-51.432-41.603-83.23-47.822-8.618-1.686-36.004-2.926-43.537-1.973" fill="currentColor" fill-rule="evenodd"/></svg>