<svg xmlns="http://www.w3.org/2000/svg" viewBox="0 0 640 640"><path d="M80.034 113.397c-5.336 1.7-13.437 9.955-14.855 15.136-2.649 9.684-.715 17.291 6.141 24.147 6.303 6.302 10.022 7.307 27.08 7.314L112 160v80l-13.6.006c-16.928.007-20.385.941-26.905 7.266-7.057 6.846-9.019 14.379-6.302 24.195 1.567 5.661 9.679 13.773 15.34 15.34 5.902 1.634 105.032 1.634 110.934 0 5.661-1.567 13.773-9.679 15.34-15.34 2.717-9.816.755-17.349-6.302-24.195-6.52-6.325-9.977-7.259-26.905-7.266L160 240l-.006-53.6c-.004-35.483-.4-55.042-1.173-57.867-1.497-5.473-9.941-13.833-15.543-15.389-5.5-1.527-58.321-1.316-63.244.253m190.931 24.317c-5.182 2.08-9.902 6.657-12.403 12.028-6.652 14.287 1.338 30.344 16.745 33.648 7.442 1.596 273.944 1.596 281.386 0 11.062-2.372 19.273-12.358 19.297-23.465.014-6.925-4.598-15.572-10.482-19.652l-4.625-3.206-143.641-.205c-92.943-.133-144.572.168-146.277.852m0 160c-5.182 2.08-9.902 6.657-12.403 12.028-6.652 14.287 1.338 30.344 16.745 33.648 7.442 1.596 273.944 1.596 281.386 0 11.062-2.372 19.273-12.358 19.297-23.465.014-6.925-4.598-15.572-10.482-19.652l-4.625-3.206-143.641-.205c-92.943-.133-144.572.168-146.277.852m-149.179 55.48c-10.611 1.765-20.253 6.772-36.787 19.102-14.067 10.49-16.085 12.394-18.389 17.344-3.325 7.14-3.339 13.549-.048 20.618 4.632 9.948 15.339 15.361 26.005 13.146 4.552-.945 8.215-3.076 18.598-10.82 7.112-5.304 14.513-10.306 16.448-11.114 4.545-1.899 12.279-1.878 16.884.046 6.602 2.758 9.303 13.363 4.847 19.029-1.168 1.484-17.848 14.142-37.067 28.128s-36.966 27.281-39.438 29.544c-11.548 10.575-11.539 29.701.019 41.044 8.901 8.736 8.928 8.74 65.02 8.733 32.771-.004 50.754-.402 53.589-1.187 5.661-1.567 13.773-9.679 15.34-15.34 3.244-11.717-.844-21.919-11.415-28.493-3.628-2.256-5.445-2.481-23.959-2.974l-20.034-.533 12.034-8.684c21.976-15.858 27.525-22.327 33.152-38.654 7.796-22.616 1.514-46.833-16.472-63.509-14.963-13.872-35.312-19.254-58.327-15.426m149.179 104.52c-5.182 2.08-9.902 6.657-12.403 12.028-6.652 14.287 1.338 30.344 16.745 33.648 7.442 1.596 273.944 1.596 281.386 0 11.062-2.372 19.273-12.358 19.297-23.465.014-6.925-4.598-15.572-10.482-19.652l-4.625-3.206-143.641-.205c-92.943-.133-144.572.168-146.277.852" fill="currentColor" fill-rule="evenodd"/></svg>