<svg xmlns="http://www.w3.org/2000/svg" viewBox="0 0 640 640"><path d="M176.255 97.424c-6.647 2.41-10.639 7.045-30.608 35.531-11.045 15.755-20.251 28.843-20.459 29.085-.209.242-5.541-4.577-11.85-10.709-13.76-13.373-17.066-15.176-26.804-14.619-5.829.333-7.937 1.003-12.028 3.824-9.462 6.524-12.951 18.762-8.286 29.064 3.185 7.033 44.386 48.391 51.647 51.843 10.856 5.162 22.545 1.954 30.151-8.276 13.642-18.349 57.417-82.03 58.546-85.167 3.2-8.9 1.066-17.816-5.878-24.553-7.12-6.91-15.971-9.091-24.431-6.023m94.71 40.29c-5.182 2.08-9.902 6.657-12.403 12.028-6.652 14.287 1.338 30.344 16.745 33.648 7.442 1.596 273.944 1.596 281.386 0 11.062-2.372 19.273-12.358 19.297-23.465.014-6.925-4.598-15.572-10.482-19.652l-4.625-3.206-143.641-.205c-92.943-.133-144.572.168-146.277.852m-94.71 119.71c-6.647 2.41-10.639 7.045-30.608 35.531-11.045 15.755-20.252 28.844-20.461 29.087-.209.243-5.788-4.843-12.397-11.301-13.484-13.175-16.383-14.686-26.904-14.016-8.384.534-14.129 4.054-18.359 11.251-2.467 4.197-2.986 6.308-2.957 12.024.024 4.593.696 8.194 1.99 10.667 1.075 2.053 11.859 13.747 23.964 25.987 23.742 24.004 28.297 27.325 37.477 27.325 7.468 0 15.006-4.072 20.018-10.812 13.642-18.349 57.417-82.03 58.546-85.167 3.2-8.9 1.066-17.816-5.878-24.553-7.12-6.91-15.971-9.091-24.431-6.023m94.71 40.29c-5.182 2.08-9.902 6.657-12.403 12.028-6.652 14.287 1.338 30.344 16.745 33.648 7.442 1.596 273.944 1.596 281.386 0 11.062-2.372 19.273-12.358 19.297-23.465.014-6.925-4.598-15.572-10.482-19.652l-4.625-3.206-143.641-.205c-92.943-.133-144.572.168-146.277.852M117.688 449.909c-22.507 8.045-28.912 35.768-12.139 52.542 23.914 23.914 64.145-1.796 52.309-33.429-6.03-16.117-24.271-24.796-40.17-19.113m121.277 7.806c-5.181 2.078-9.902 6.656-12.403 12.027-6.652 14.287 1.338 30.344 16.745 33.648 7.455 1.599 305.931 1.599 313.386 0 11.062-2.372 19.273-12.358 19.297-23.465.014-6.925-4.598-15.572-10.482-19.652l-4.625-3.206-159.641-.205c-103.456-.132-160.569.168-162.277.853" fill="currentColor" fill-rule="evenodd"/></svg>