<svg xmlns="http://www.w3.org/2000/svg" viewBox="0 0 640 640"><path d="M146.133 161.664c-16.62 3.583-34.705 17.266-42.472 32.134C96.618 207.281 96 212.301 96 256c0 43.713.62 48.743 7.671 62.202 4.995 9.533 17.544 21.785 27.259 26.611 13.879 6.895 18.069 7.349 64.321 6.964 22.559-.187 41.856-.745 42.882-1.24 1.694-.815 1.867-.141 1.867 7.261 0 28.732-15.132 54.034-39.513 66.07-12.637 6.238-21.378 8.088-38.354 8.119-16.663.031-20.141.982-26.638 7.285-7.057 6.846-9.019 14.379-6.302 24.195 1.567 5.661 9.679 13.773 15.34 15.34 6.405 1.773 31.657 1.462 43.279-.533 50.507-8.668 89.794-47.955 98.462-98.462 1.481-8.624 1.726-20.928 1.726-86.496 0-72.633-.105-76.852-2.107-84.68-3.103-12.132-7.8-20.237-17.126-29.552-9.361-9.349-19.461-14.966-31.434-17.479-10.432-2.191-80.976-2.145-91.2.059m256 0c-16.62 3.583-34.705 17.266-42.472 32.134C352.618 207.281 352 212.301 352 256c0 43.713.62 48.743 7.671 62.202 4.995 9.533 17.544 21.785 27.259 26.611 13.879 6.895 18.069 7.349 64.321 6.964 22.559-.187 41.856-.745 42.882-1.24 1.694-.815 1.867-.141 1.867 7.261 0 28.732-15.132 54.034-39.513 66.07-12.637 6.238-21.378 8.088-38.354 8.119-16.663.031-20.141.982-26.638 7.285-7.057 6.846-9.019 14.379-6.302 24.195 1.567 5.661 9.679 13.773 15.34 15.34 6.405 1.773 31.657 1.462 43.279-.533 50.507-8.668 89.794-47.955 98.462-98.462 1.481-8.624 1.726-20.928 1.726-86.496 0-72.633-.105-76.852-2.107-84.68-3.103-12.132-7.8-20.237-17.126-29.552-9.361-9.349-19.461-14.966-31.434-17.479-10.432-2.191-80.976-2.145-91.2.059m-170.671 48.595c2.211 1.243 5.036 4.068 6.279 6.279 2.175 3.87 2.259 5.337 2.259 39.514v35.494l-2.63 4.488c-4.612 7.87-5.159 7.966-45.37 7.966s-40.758-.096-45.37-7.966l-2.63-4.488v-35.494c0-34.127.087-35.649 2.249-39.497 1.237-2.201 3.997-5.015 6.133-6.254 3.739-2.168 5.219-2.253 39.473-2.276 34.296-.024 35.734.057 39.607 2.234m256 0c2.211 1.243 5.036 4.068 6.279 6.279 2.175 3.87 2.259 5.337 2.259 39.514v35.494l-2.63 4.488c-4.612 7.87-5.159 7.966-45.37 7.966s-40.758-.096-45.37-7.966l-2.63-4.488v-35.494c0-34.127.087-35.649 2.249-39.497 1.237-2.201 3.997-5.015 6.133-6.254 3.739-2.168 5.219-2.253 39.473-2.276 34.296-.024 35.734.057 39.607 2.234" fill="currentColor" fill-rule="evenodd"/></svg>