<svg xmlns="http://www.w3.org/2000/svg" viewBox="0 0 640 640"><path d="M394.526 65.611c-3.545 1.926-3.108.792-11.508 29.856L375.928 120l-23.964 6.972c-13.18 3.834-25.049 7.348-26.376 7.809-2.667.926-5.588 5.745-5.588 9.219 0 3.139 2.757 8.12 5.027 9.083 1.049.445 12.931 3.998 26.406 7.897l24.499 7.088 7.088 24.499c3.899 13.475 7.452 25.357 7.897 26.406.963 2.27 5.944 5.027 9.083 5.027 3.139 0 8.12-2.757 9.083-5.027.445-1.049 3.998-12.931 7.897-26.406l7.088-24.499 24.499-7.088c13.475-3.899 25.357-7.452 26.406-7.897 2.27-.963 5.027-5.944 5.027-9.083 0-3.474-2.921-8.293-5.588-9.219-1.327-.461-13.196-3.975-26.376-7.809L424.072 120l-7.09-24.533c-3.9-13.494-7.454-25.391-7.899-26.44-.999-2.356-6.008-5.042-9.297-4.984-1.349.023-3.716.729-5.26 1.568M245.867 210.468c-2.934 1.421-6.379 3.727-7.657 5.124-1.277 1.398-13.084 24.421-26.237 51.164l-23.915 48.622-11.096 1.698c-6.102.933-30.245 4.474-53.65 7.868-40.158 5.823-42.859 6.353-47.954 9.413-4.062 2.44-6.137 4.66-8.378 8.965-6.301 12.098-3.25 21.159 12.078 35.878 5.499 5.28 22.846 22.16 38.55 37.511l28.552 27.91-9.08 52.808c-4.994 29.044-9.08 53.868-9.08 55.165 0 13.189 13.847 24.868 27.298 23.025 4.187-.574 48.15-22.883 94.457-47.931l6.021-3.257 48.293 25.425c52.774 27.784 53.91 28.224 63.459 24.577 8.578-3.276 13.972-9.532 15.893-18.434.514-2.381-2.157-20.385-8.527-57.467l-9.275-53.999 7.324-7.207c4.028-3.964 21.004-20.531 37.724-36.815 16.72-16.285 31.696-31.498 33.28-33.808 7.938-11.574 2.495-28.727-10.88-34.283-2.054-.853-27.494-5.008-56.534-9.233-29.04-4.224-52.836-7.75-52.879-7.834a143318 143318 0 0 1-22.868-46.553c-12.534-25.52-23.98-48.228-25.437-50.462-5.985-9.18-19.389-12.758-29.482-7.87m260.906 15.399c-1.629 1.344-3.867 7.482-7.993 21.92-3.152 11.029-6.003 20.325-6.336 20.657-.332.333-9.628 3.184-20.657 6.336C450.498 280.864 448 282.252 448 288s2.498 7.136 23.787 13.22c11.029 3.152 20.325 6.003 20.657 6.336.333.332 3.184 9.628 6.336 20.657C504.864 349.502 506.252 352 512 352s7.136-2.498 13.22-23.787c3.152-11.029 6.003-20.325 6.336-20.657.332-.333 9.628-3.184 20.657-6.336C573.502 295.136 576 293.748 576 288s-2.498-7.136-23.787-13.22c-11.029-3.152-20.325-6.003-20.657-6.336-.333-.332-3.184-9.628-6.336-20.657C519.136 226.498 517.748 224 512 224c-1.63 0-3.982.84-5.227 1.867M269.92 314.774c21.789 43.552 23.721 44.967 70.419 51.575 14.92 2.112 27.998 4.196 29.061 4.631 1.593.651-1.93 4.602-19.967 22.392-22.255 21.952-26.181 26.901-29.63 37.357-2.911 8.823-2.409 17.097 2.913 48.018 2.668 15.497 4.708 28.318 4.534 28.492-.175.174-12.549-6.107-27.5-13.96C271.921 478.664 266.973 476.8 256 476.8c-11.006 0-15.972 1.868-43.786 16.47-14.931 7.839-27.292 13.865-27.469 13.392-.177-.473 1.91-13.745 4.637-29.494 5.503-31.775 5.72-38.651 1.568-49.704-3.093-8.232-6.963-12.814-30.652-36.288-16.76-16.608-19.829-20.108-17.986-20.511 1.222-.268 12.781-1.966 25.688-3.774 29.029-4.067 35.439-5.507 43.413-9.757 11.29-6.018 15.622-12.059 30.623-42.708 7.387-15.092 13.549-27.452 13.693-27.466.145-.015 6.531 12.502 14.191 27.814" fill="currentColor" fill-rule="evenodd"/></svg>