<svg xmlns="http://www.w3.org/2000/svg" viewBox="0 0 640 640"><path d="M197.809 50.635c-4.022 2.01-20.008 17.403-67.293 64.8-34.109 34.191-62.893 63.845-63.964 65.898-3.117 5.978-2.725 16.416.843 22.4 3.594 6.028 124.84 127.072 129.938 129.722 5.986 3.11 16.409 2.712 22.484-.859 10.869-6.39 15.133-20.902 9.423-32.078-.67-1.312-19.514-20.745-41.877-43.185l-40.659-40.8h127.527c139.981 0 137.047-.12 156.926 6.457 21.673 7.171 39.622 18.287 55.776 34.543 25.186 25.344 38.675 55.876 40.69 92.1 3.433 61.716-36.902 120.175-96.156 139.362-20.833 6.746-11.047 6.308-155.2 6.951l-131.734.587-3.925 2.441c-10.571 6.574-14.659 16.776-11.415 28.493 1.567 5.661 9.679 13.773 15.34 15.34 3.011.833 41.325 1.177 130.134 1.166 135.936-.016 136.748-.045 159.401-5.772 91.912-23.234 152.483-112.233 140.299-206.146-7.068-54.478-37.217-102.653-83.167-132.895-19.438-12.792-41.582-22.031-66.133-27.592l-10.667-2.416-133.6-.341c-73.48-.187-133.6-.689-133.6-1.115 0-.425 17.531-18.291 38.959-39.701 21.427-21.411 40.122-40.608 41.545-42.662 13.711-19.787-8.39-45.439-29.895-34.698" fill="currentColor" fill-rule="evenodd"/></svg>