<svg xmlns="http://www.w3.org/2000/svg" data-name="Layer 1" style="" viewBox="0 0 512 512"><g><defs><linearGradient id="1770301554792-8705549_b" x1="-458.93" x2="-458.93" y1="504.83" y2="496.3" gradientTransform="matrix(60 0 0 60 27791.9 -29777.93)" gradientUnits="userSpaceOnUse"><stop offset="0" stop-color="#ff9500"></stop><stop offset=".19" stop-color="#ffad00"></stop><stop offset=".55" stop-color="#ffd500"></stop><stop offset=".83" stop-color="#ffed00"></stop><stop offset="1" stop-color="#fff600"></stop></linearGradient></defs><circle id="1770301554792-8705549_c" cx="256" cy="256" r="256" data-name="Oval" fill="url(#1770301554792-8705549_b)"></circle><path d="M346.79 352.26c-45.91 35.33-135.59 35.5-181.67 0-7.85-5.97-13.48 4.78-10.92 9.9 42.84 86.87 160.77 86.87 203.61 0 2.47-5.12-3.16-15.96-11.01-9.9ZM211.11 216.58c-21.67 22.78-66.47 32-96.85 17.07-7.08-3.41-16.81 1.54-13.57 6.4 33.11 49.83 111.45 35.93 125.44-22.1 1.37-5.72-9.64-7.08-15.02-1.37m89.78 0c21.67 22.78 66.47 32 96.94 17.07 7-3.41 16.81 1.54 13.57 6.4-33.11 49.83-111.36 35.93-125.44-22.1-1.45-5.72 9.56-7.08 14.93-1.37" fill="#1a1626"></path><path d="M101.21 126.38c-78.93 56.49-24.92 62.46 47.53 22.95 40.96-22.36 4.44-60.16-47.53-22.95m309.5.17c-51.97-37.21-88.49.6-47.53 22.95 72.53 39.51 126.46 33.54 47.53-22.95" fill="#d69600"></path></g></svg>
