<svg xmlns="http://www.w3.org/2000/svg" data-name="Layer 1" style="" viewBox="0 0 512 529.1"><g><defs><radialGradient id="1770301554797-8690350_c" cx="100.06" cy="283.76" r="92.66" fx="100.06" fy="283.76" gradientTransform="matrix(1 0 0 -1 -.27 528.65)" gradientUnits="userSpaceOnUse"><stop offset="0" stop-color="#ff6399" stop-opacity=".55"></stop><stop offset=".2" stop-color="#ff6596" stop-opacity=".44"></stop><stop offset=".36" stop-color="#ff6c8c" stop-opacity=".35"></stop><stop offset=".51" stop-color="#ff767b" stop-opacity=".27"></stop><stop offset=".65" stop-color="#ff8663" stop-opacity=".19"></stop><stop offset=".79" stop-color="#ff9a44" stop-opacity=".12"></stop><stop offset=".92" stop-color="#ffb21f" stop-opacity=".05"></stop><stop offset="1" stop-color="#ffc403" stop-opacity="0"></stop></radialGradient><radialGradient id="1770301554797-8690350_d" cx="398.96" cy="338.71" r="92.66" fx="398.96" fy="338.71" gradientTransform="matrix(1 0 0 -1 -.27 528.65)" gradientUnits="userSpaceOnUse"><stop offset="0" stop-color="#ff6399" stop-opacity=".55"></stop><stop offset=".2" stop-color="#ff6596" stop-opacity=".44"></stop><stop offset=".36" stop-color="#ff6c8c" stop-opacity=".35"></stop><stop offset=".51" stop-color="#ff767b" stop-opacity=".27"></stop><stop offset=".65" stop-color="#ff8663" stop-opacity=".19"></stop><stop offset=".79" stop-color="#ff9a44" stop-opacity=".12"></stop><stop offset=".92" stop-color="#ffb21f" stop-opacity=".05"></stop><stop offset="1" stop-color="#ffc403" stop-opacity="0"></stop></radialGradient><linearGradient id="1770301554797-8690350_b" x1="-136.07" x2="-136.07" y1="1410.34" y2="898.29" gradientTransform="rotate(-10 -5073.969 -1535.95)" gradientUnits="userSpaceOnUse"><stop offset="0" stop-color="#ff9500"></stop><stop offset=".19" stop-color="#ffad00"></stop><stop offset=".55" stop-color="#ffd500"></stop><stop offset=".83" stop-color="#ffed00"></stop><stop offset="1" stop-color="#fff600"></stop></linearGradient></defs><path d="M256.02 0C397.41 0 512 114.59 512 255.98S397.41 511.96 256.02 511.96.04 397.36.04 255.98 114.64 0 256.02 0" fill="url(#1770301554797-8690350_b)"></path><path d="M99.79 152.22c51.2 0 92.66 41.47 92.66 92.66s-41.47 92.66-92.66 92.66-92.66-41.46-92.66-92.65 41.47-92.66 92.66-92.66Z" fill="url(#1770301554797-8690350_c)"></path><path d="M398.69 97.27c51.2 0 92.66 41.47 92.66 92.66s-41.47 92.66-92.66 92.66-92.66-41.47-92.66-92.66 41.47-92.66 92.66-92.66" fill="url(#1770301554797-8690350_d)"></path><path d="M330.51 238.91c-38.91 47.19-97.61 57.6-150.34 26.54-7.42-4.35-10.24 2.3-7.34 6.66 49.23 73.64 145.82 56.57 166.9-29.44 1.28-5.12-3.67-10.41-9.22-3.75Z" class="h" fill="#1a1626"></path><path d="M301.84 369.55c-7.17 7.25-10.15 18.77-7.59 29.35-1.71 1.02-3.33 2.3-4.86 3.75-6.91 7-9.47 18.26-6.66 28.75 1.79 6.57 5.55 12.2 10.67 16.21-1.45 5.03-1.45 10.67-.09 16.21 2.9 11.35 11.35 20.14 22.7 23.55-.09 3.33.34 6.74 1.28 10.24 3.33 12.03 12.46 21.08 24.57 24.06 26.79 6.66 63.65 12.71 110.5-.09 12.97-3.58 24.4-10.24 33.87-19.88 21.93-22.27 30.89-58.62 22.78-92.58-7.42-31.23-27.82-54.44-55.89-63.48-49.75-16.13-75.68-16.98-89.42-2.99-3.5 3.58-8.53 10.75-8.02 22.44-9.47-.6-20.05-1.62-31.49-3.16-8.45-1.11-16.47 1.54-22.36 7.59Z" class="i" fill="#99a8ae"></path><path d="M306.71 412.21c46.16 7.42 73.72 0 73.72 0s-40.79-1.79-63.06-8.53c-12.37-3.67-9.9-27.47 4.86-25.51 54.44 7.25 89.25 2.73 89.25 2.73s-33.45-4.1-38.74-11.26c-7.25-29.27 32.08-22.61 75.68-8.53 64.42 20.9 62.63 127.48-.09 144.63-43.17 11.77-77.31 6.23-102.48 0-16.98-4.18-16.13-27.22-7.76-25.51 27.13 5.46 42.41 0 42.41 0s-41.13-3.33-59.39-8.53c-16.98-4.86-15.7-28.58-2.56-25.51 32.34 7.59 61.95 0 61.95 0s-40.96-.94-70.82-8.53c-17.15-4.27-13.82-27.22-2.99-25.43Z" class="j" fill="#fff"></path><path d="M210.2 369.55c-5.89-6.06-13.91-8.7-22.44-7.59-11.43 1.54-22.01 2.47-31.49 3.16.51-11.69-4.44-18.94-8.02-22.44-13.82-13.99-39.68-13.14-89.42 2.99-28.07 9.13-48.38 32.25-55.89 63.48-8.11 33.87.85 70.22 22.78 92.58 9.47 9.64 20.9 16.3 33.96 19.88 46.84 12.8 83.62 6.74 110.5.09 12.03-2.99 21.16-12.03 24.49-24.06.94-3.5 1.37-6.91 1.28-10.24 11.26-3.41 19.71-12.2 22.7-23.55 1.45-5.55 1.37-11.18 0-16.21 5.12-4.01 8.87-9.64 10.67-16.21 2.82-10.41.26-21.67-6.66-28.75-1.45-1.54-3.07-2.73-4.86-3.75 2.47-10.67-.43-22.1-7.59-29.35Z" class="i" fill="#99a8ae"></path><path d="M202.44 437.72c-29.86 7.59-70.82 8.53-70.82 8.53s29.61 7.59 61.95 0c13.14-3.07 14.42 20.65-2.56 25.51-18.26 5.2-59.39 8.53-59.39 8.53s15.36 5.46 42.49 0c8.36-1.71 9.22 21.33-7.76 25.51-25.17 6.23-59.3 11.77-102.48 0-62.71-17.07-64.51-123.72-.09-144.63 43.6-14.16 82.94-20.73 75.68 8.53-5.29 7.17-38.74 11.26-38.74 11.26s34.81 4.44 89.25-2.73c14.76-1.96 17.24 21.76 4.86 25.51-22.27 6.66-63.06 8.53-63.06 8.53s27.47 7.42 73.72 0c10.67-1.88 13.99 21.08-3.07 25.43Z" class="j" fill="#fff"></path><path d="M104.57 196.16c27.73-52.73 52.82-57.17 96.93-17.07 6.66 6.06 16.89-1.11 13.4-7.51-46.33-84.3-110.75-72.95-125.43 22.1-1.19 7.25 10.84 10.5 15.1 2.47Zm176.45-31.05c27.73-52.73 52.82-57.17 96.93-17.07 6.66 6.06 16.89-1.11 13.4-7.51-46.33-84.3-110.75-72.95-125.43 22.1-1.19 7.17 10.84 10.41 15.1 2.47Z" class="h" fill="#1a1626"></path></g></svg>
