<svg xmlns="http://www.w3.org/2000/svg" data-name="Layer 1" style="" viewBox="0 0 512 529.04"><g><defs><linearGradient id="1770301554802-7144243_c" x1="256" x2="256" y1="17.04" y2="529.04" gradientTransform="matrix(1 0 0 -1 0 529.04)" gradientUnits="userSpaceOnUse"><stop offset="0" stop-color="#ff7400"></stop><stop offset=".22" stop-color="#ffa000"></stop><stop offset=".46" stop-color="#ffc700"></stop><stop offset=".68" stop-color="#e1e100"></stop><stop offset=".86" stop-color="#c5f000"></stop><stop offset="1" stop-color="#a6f600"></stop></linearGradient><linearGradient id="1770301554802-7144243_d" x1="255.67" x2="255.67" y1="13.8" y2="153.57" gradientTransform="matrix(1 0 0 -1 0 529.04)" gradientUnits="userSpaceOnUse"><stop offset="0" stop-color="#a6e639"></stop><stop offset=".12" stop-color="#a1e138"></stop><stop offset=".27" stop-color="#92d436"></stop><stop offset=".43" stop-color="#7abd32"></stop><stop offset=".6" stop-color="#599e2c"></stop><stop offset=".77" stop-color="#2e7525"></stop><stop offset=".79" stop-color="#297124"></stop><stop offset=".87" stop-color="#215b1d"></stop><stop offset="1" stop-color="#12300f"></stop></linearGradient><linearGradient id="1770301554802-7144243_e" x1="152.69" x2="359.31" y1="187.79" y2="187.79" gradientTransform="matrix(1 0 0 -1 0 529.04)" gradientUnits="userSpaceOnUse"><stop offset="0" stop-color="#cfd7e6"></stop><stop offset=".04" stop-color="#dae0ec"></stop><stop offset=".13" stop-color="#eef1f6"></stop><stop offset=".21" stop-color="#fbfcfd"></stop><stop offset=".3" stop-color="#fff"></stop><stop offset=".7" stop-color="#fff"></stop><stop offset=".79" stop-color="#fbfcfd"></stop><stop offset=".87" stop-color="#eef1f6"></stop><stop offset=".96" stop-color="#dae0ec"></stop><stop offset="1" stop-color="#cfd7e6"></stop></linearGradient><radialGradient id="1770301554802-7144243_b" cx="254.78" cy="-2545.07" r="223.89" fx="254.78" fy="-2545.07" gradientTransform="matrix(1 0 0 -.22 0 -31.42)" gradientUnits="userSpaceOnUse"><stop offset=".5" stop-color="#a6e639"></stop><stop offset=".61" stop-color="#a2e339"></stop><stop offset=".71" stop-color="#98dc39"></stop><stop offset=".8" stop-color="#86cf39"></stop><stop offset=".89" stop-color="#6cbc3a"></stop><stop offset=".98" stop-color="#4ca53a"></stop><stop offset="1" stop-color="#429e3a"></stop></radialGradient></defs><path d="M441.17 492.29c13.4 13.57-93.01 8.96-78.25 20.14 48.3 36.78-72.79-.26-127.23 8.28-92.67 14.51-163.75 4.52-124.59-17.75 20.39-11.61-35.67-6.66-41.22-10.67-37.63-27.48 335.1-36.61 371.29 0" fill="url(#1770301554802-7144243_b)"></path><circle cx="256" cy="256" r="256" fill="url(#1770301554802-7144243_c)"></circle><path d="M397.31 293.03c-27.31-13.99-81.92-36.52-111.45-45.4-5.46-1.62-5.72-7.34-.43-9.81 35.5-16.38 68.27-33.19 107.01-54.19 7.17-3.84 14.25 6.91 8.36 12.97-15.87 16.04-38.4 31.06-54.95 42.15 18.86 9.81 44.8 27.14 61.53 42.58 6.66 6.14-3.33 15.1-10.07 11.69Zm-292.69-11.69c16.81-15.45 42.75-32.77 61.53-42.58-16.47-11.09-39.08-26.11-54.95-42.15-5.97-5.97 1.19-16.81 8.36-12.97 38.74 20.99 71.59 37.72 107.01 54.19 5.29 2.47 5.03 8.19-.43 9.81-29.53 8.87-84.14 31.4-111.45 45.4-6.74 3.41-16.73-5.55-10.07-11.69ZM256 307.2c-54.61 0-163.5 15.7-130.39 93.87 33.28 78.59 227.5 78.59 260.78 0C419.5 322.9 310.61 307.2 256 307.2" fill="#1a1626"></path><path d="M337.07 375.47H174.94c-24.75 24.75-17.07 139.78-17.07 139.78h196.27S359 402.7 337.07 375.47" fill="url(#1770301554802-7144243_d)"></path><path d="M311.64 476.33c0-114.69 18.86-114.69 18.86 0 0 20.74-18.86 20.74-18.86 0m-83.2-3.75c0-122.03 18.86-122.03 18.86 0-.09 16.98-18.86 16.98-18.86 0m36.18-25.77c0-87.38 26.97-87.38 26.97 0 0 20.74-26.97 20.74-26.97 0m-80.73 4.26c0-92.59 26.97-92.59 26.97 0 0 16.73-26.97 16.73-26.97 0" class="k" style="isolation:isolate" fill="#244d05" opacity=".15"></path><path d="M359 349.53c.85-2.22-.09-5.29-1.96-6.83 0 0-23.13-18.52-101.03-18.52S154.98 342.7 154.98 342.7c-1.88 1.54-2.82 4.61-1.96 6.83l1.79 4.78c.85 2.22 3.5 4.01 5.97 4.01h190.46c2.47 0 5.21-1.79 6.06-4.01l1.71-4.78Z" fill="url(#1770301554802-7144243_e)"></path><path d="M298.24 419.84c0-8.96 10.41-8.96 10.41 0 0 8.02-10.41 8.02-10.41 0m42.75 32.43c0-6.74 7.94-6.74 7.94 0 0 6.06-7.94 6.06-7.94 0m-176.38-5.81c0-11.69 13.65-11.69 13.65 0-.09 10.5-13.65 10.5-13.65 0m49.06-35.07c0-9.81 11.43-9.81 11.43 0 0 8.87-11.43 8.87-11.43 0" class="k" style="isolation:isolate" fill="#244d05" opacity=".15"></path><path d="M267.26 498.35c.17-13.57 15.96-14.08 22.87-6.23 4.18-17.41 28.42-19.03 36.44-4.95 6.4-7.85 26.62-5.63 28.84 6.06 4.95-2.9 17.24 4.01 15.1 11.35-1.28 4.35-122.03 5.38-123.65.26-3.33-11.01 16.9-14.76 20.39-6.49Z" class="m" fill="#a6e639"></path><path d="M151.98 498.94c.17-13.57 15.19-14.08 21.85-6.23 4.01-17.41 27.05-19.03 34.73-4.95 6.06-7.77 25.34-5.63 27.48 6.06 4.69-2.9 16.47 4.01 14.42 11.35-1.19 4.35-116.31 5.38-117.76.26-3.24-11.01 16.04-14.76 19.29-6.49Z" class="m" fill="#a6e639"></path><path d="M328.02 501.76c0 8.7 13.06 8.7 13.06 0-.09-8.7-13.06-8.7-13.06 0" class="k" style="isolation:isolate" fill="#244d05" opacity=".15"></path><path d="M289.19 468.82c0 8.7 13.06 8.7 13.06 0s-13.06-8.62-13.06 0" class="m" fill="#a6e639"></path><path d="M178.18 501.76c0 4.27 6.31 4.27 6.31 0 .09-4.27-6.31-4.27-6.31 0m120.06 1.28c0 4.27 6.31 4.27 6.31 0 .09-4.18-6.31-4.18-6.31 0" class="k" style="isolation:isolate" fill="#244d05" opacity=".15"></path><path d="M264.62 483.24c0 4.27 6.31 4.27 6.31 0 .09-4.27-6.31-4.27-6.31 0m104.19.6c0 4.27 6.4 4.27 6.4 0s-6.4-4.27-6.4 0m-162.47-15.7c0 4.27 6.31 4.27 6.31 0s-6.31-4.27-6.31 0" class="m" fill="#a6e639"></path><path d="M135.94 506.28c0 4.27 6.31 4.27 6.31 0s-6.31-4.27-6.31 0m81.57-11.01c0 6.31 9.39 6.31 9.39 0 .09-6.31-9.39-6.31-9.39 0" class="k" style="isolation:isolate" fill="#244d05" opacity=".15"></path><path d="M135.94 485.29c0 6.31 9.39 6.31 9.39 0s-9.39-6.23-9.39 0" class="m" fill="#a6e639"></path><path d="M126.89 107.09c-78.93 56.49-24.92 62.46 47.53 22.95 40.96-22.36 4.44-60.16-47.53-22.95m258.22.17c-51.97-37.21-88.49.6-47.53 22.95 72.45 39.51 126.46 33.54 47.53-22.95" fill="#529320"></path></g></svg>
