<svg xmlns="http://www.w3.org/2000/svg" data-name="Layer 1" style="" viewBox="0 0 512 512"><g><defs><linearGradient id="1770301554792-2574367_b" x1="256" x2="256" y1="2" y2="514" gradientTransform="matrix(1 0 0 -1 0 514)" gradientUnits="userSpaceOnUse"><stop offset="0" stop-color="#ff9500"></stop><stop offset=".19" stop-color="#ffad00"></stop><stop offset=".55" stop-color="#ffd500"></stop><stop offset=".83" stop-color="#ffed00"></stop><stop offset="1" stop-color="#fff600"></stop></linearGradient></defs><path d="M256 0c141.4 0 256 114.6 256 256S397.4 512 256 512 0 397.4 0 256 114.6 0 256 0" fill="url(#1770301554792-2574367_b)"></path><path d="M231.77 199.77c12.2 45.57-14.85 92.33-60.33 104.53-45.57 12.2-92.33-14.76-104.53-60.33-12.2-45.48 14.76-92.33 60.33-104.53 45.48-12.2 92.33 14.85 104.53 60.33" class="e" fill="#fff"></path><path d="M172.29 159.15c5.46 20.48-6.66 41.56-27.14 47.02s-41.56-6.66-47.02-27.14 8.62-34.13 29.18-39.59c20.39-5.46 39.51-.77 44.97 19.71Z" class="d" fill="#1a1626"></path><path d="M445.1 199.77c12.2 45.57-14.85 92.33-60.33 104.53-45.57 12.2-92.33-14.76-104.53-60.33-12.2-45.48 14.85-92.33 60.33-104.53s92.33 14.85 104.53 60.33" class="e" fill="#fff"></path><path d="M385.62 159.15c5.46 20.48-6.74 41.56-27.14 47.02-20.48 5.46-41.56-6.66-47.02-27.14s8.62-34.13 29.18-39.59c20.39-5.46 39.51-.77 44.97 19.71Zm-76.63 217.17c-38.66-6.83-90.28 4.61-115.03 23.21-6.31 4.69-3.41 9.98 1.71 8.79 26.54-6.06 72.87-6.06 109.91-.51 14.17 2.05 18.26-28.84 3.41-31.49" class="d" fill="#1a1626"></path></g></svg>
