<svg xmlns="http://www.w3.org/2000/svg" data-name="Layer 1" style="" viewBox="0 0 512 548.56"><g><defs><radialGradient id="1770301555102-1872365_c" cx="-1002.78" cy="133.1" r="124.51" fx="-1002.78" fy="133.1" gradientTransform="matrix(-1.04 0 0 -1 -903.7 550.56)" gradientUnits="userSpaceOnUse"><stop offset="0" stop-color="#a3b5bd"></stop><stop offset=".3" stop-color="#9fb0b8"></stop><stop offset=".65" stop-color="#93a3aa"></stop><stop offset="1" stop-color="#818f94"></stop></radialGradient><radialGradient id="1770301555102-1872365_d" cx="55.1" cy="570.64" r="47.65" fx="55.1" fy="570.64" gradientTransform="matrix(.98 0 0 -2.87 -7.49 1956.3)" gradientUnits="userSpaceOnUse"><stop offset="0" stop-color="#cfdde6"></stop><stop offset=".12" stop-color="#c9d7e0"></stop><stop offset=".28" stop-color="#b7c5ce"></stop><stop offset=".47" stop-color="#9aa9b0"></stop><stop offset=".58" stop-color="#86959c"></stop><stop offset="1" stop-color="#bfd1d9"></stop></radialGradient><radialGradient id="1770301555102-1872365_g" cx="223.56" cy="133.1" r="124.56" fx="223.56" fy="133.1" gradientTransform="matrix(1.04 0 0 -1 146.07 550.56)" gradientUnits="userSpaceOnUse"><stop offset="0" stop-color="#a3b5bd"></stop><stop offset=".3" stop-color="#9fb0b8"></stop><stop offset=".65" stop-color="#93a3aa"></stop><stop offset="1" stop-color="#818f94"></stop></radialGradient><radialGradient id="1770301555102-1872365_h" cx="-1240.11" cy="570.64" r="47.66" fx="-1240.11" fy="570.64" gradientTransform="matrix(-.98 0 0 -2.87 -750.02 1956.3)" gradientUnits="userSpaceOnUse"><stop offset="0" stop-color="#cfdde6"></stop><stop offset=".12" stop-color="#c9d7e0"></stop><stop offset=".28" stop-color="#b7c5ce"></stop><stop offset=".47" stop-color="#9aa9b0"></stop><stop offset=".58" stop-color="#86959c"></stop><stop offset="1" stop-color="#bfd1d9"></stop></radialGradient><radialGradient id="1770301555102-1872365_i" cx="130.03" cy="419.38" r="46.07" fx="130.03" fy="419.38" gradientTransform="matrix(1 0 0 -1 0 550.56)" gradientUnits="userSpaceOnUse"><stop offset="0" stop-color="#cfdde6"></stop><stop offset=".17" stop-color="#c9d7e0"></stop><stop offset=".4" stop-color="#b7c5ce"></stop><stop offset=".67" stop-color="#9aa9b0"></stop><stop offset=".82" stop-color="#86959c"></stop><stop offset="1" stop-color="#99a8ae"></stop></radialGradient><radialGradient id="1770301555102-1872365_j" cx="367.74" cy="419.38" r="46.07" fx="367.74" fy="419.38" gradientTransform="matrix(1 0 0 -1 0 550.56)" gradientUnits="userSpaceOnUse"><stop offset="0" stop-color="#cfdde6"></stop><stop offset=".17" stop-color="#c9d7e0"></stop><stop offset=".4" stop-color="#b7c5ce"></stop><stop offset=".67" stop-color="#9aa9b0"></stop><stop offset=".82" stop-color="#86959c"></stop><stop offset="1" stop-color="#99a8ae"></stop></radialGradient><radialGradient id="1770301555102-1872365_k" cx="246.1" cy="506.37" r="65.15" fx="246.1" fy="506.37" gradientTransform="matrix(1 0 0 -1 0 550.56)" gradientUnits="userSpaceOnUse"><stop offset="0" stop-color="#cfdde6"></stop><stop offset=".17" stop-color="#c9d7e0"></stop><stop offset=".4" stop-color="#b7c5ce"></stop><stop offset=".67" stop-color="#9aa9b0"></stop><stop offset=".82" stop-color="#86959c"></stop><stop offset="1" stop-color="#99a8ae"></stop></radialGradient><linearGradient id="1770301555102-1872365_b" x1="19.83" x2="265.19" y1="233.99" y2="233.99" gradientTransform="matrix(1 0 0 -1 0 550.56)" gradientUnits="userSpaceOnUse"><stop offset="0" stop-color="#cfdde6"></stop><stop offset=".09" stop-color="#c9d7e0"></stop><stop offset=".21" stop-color="#b7c5ce"></stop><stop offset=".35" stop-color="#9aa9b0"></stop><stop offset=".43" stop-color="#86959c"></stop><stop offset="1" stop-color="#bfd1d9"></stop></linearGradient><linearGradient id="1770301555102-1872365_e" x1="-1249.7" x2="-1013.61" y1="233.99" y2="233.99" gradientTransform="rotate(180 -378.8 275.28)" gradientUnits="userSpaceOnUse"><stop offset="0" stop-color="#bfd1d9"></stop><stop offset=".57" stop-color="#86959c"></stop><stop offset=".65" stop-color="#9aa9b0"></stop><stop offset=".79" stop-color="#b7c5ce"></stop><stop offset=".91" stop-color="#c9d7e0"></stop><stop offset="1" stop-color="#cfdde6"></stop></linearGradient><linearGradient id="1770301555102-1872365_f" x1="256.01" x2="256.01" y1="372.28" y2="436.28" gradientTransform="matrix(1 0 0 -1 0 550.56)" gradientUnits="userSpaceOnUse"><stop offset=".2" stop-color="#86959c"></stop><stop offset=".39" stop-color="#aab8c0"></stop><stop offset=".57" stop-color="#c5d3dc"></stop><stop offset=".67" stop-color="#cfdde6"></stop><stop offset=".71" stop-color="#c8d7e0"></stop><stop offset=".79" stop-color="#c1d2db"></stop><stop offset="1" stop-color="#bfd1d9"></stop></linearGradient></defs><path d="M236.78 84.57c-5.28 54.83-2.72 246.8-19.39 326.85-15.42 74.09-152.51-.87-181.1-76.4-4.92 2.77-9.81 5.54-14.68 8.31 3.88 26.7 16.59 82.73 48.12 104.66 59.08 41.12 134.48 55.59 186.28 100.57l9.19-463.99z" fill="url(#1770301555102-1872365_b)"></path><path d="M21.6 343.33c-2.38 1.35-6.28 2.52-8.65 3.87C21.8 521.4 208.06 502.02 256 548.56c-29.63-65.04-205.74-66.57-234.4-205.23" fill="url(#1770301555102-1872365_c)"></path><path d="M32.39 271.34c-2.37-12.07-42.38 27.82-30.03 108.32 1.74 11.37 16.95-13.11 65.95-19.15 13.4-1.65-20.23-9.22-35.91-89.17Z" fill="url(#1770301555102-1872365_d)"></path><path d="M275.24 84.57c5.28 54.83 2.72 246.8 19.38 326.85 15.43 74.09 152.52-.87 181.11-76.4q7.365 4.155 14.67 8.31c-3.87 26.7-16.58 82.73-48.11 104.66C383.2 489.11 307.8 503.58 256 548.56V84.57z" fill="url(#1770301555102-1872365_e)"></path><path d="M256 114.28c-20.1 17.54-119.35 16-119.35 16v32s101.62.54 119.35 16c17.75-15.46 119.36-16 119.36-16v-32s-99.25 1.54-119.36-16" fill="url(#1770301555102-1872365_f)"></path><path d="M490.4 343.33c2.38 1.35 6.29 2.52 8.65 3.87C490.2 521.39 303.92 502.03 256 548.56c29.63-65.04 205.74-66.57 234.4-205.23" fill="url(#1770301555102-1872365_g)"></path><path d="M479.61 271.34c2.37-12.07 42.38 27.82 30.02 108.33-1.74 11.36-16.95-13.13-65.95-19.16-13.4-1.65 20.24-9.22 35.92-89.17Z" fill="url(#1770301555102-1872365_h)"></path><circle cx="137.15" cy="146.28" r="32" fill="url(#1770301555102-1872365_i)"></circle><circle cx="374.86" cy="146.28" r="32" fill="url(#1770301555102-1872365_j)"></circle><path d="M256 0c-30.29 0-54.86 24.58-54.86 54.86s24.58 54.86 54.86 54.86 54.86-24.58 54.86-54.86S286.29 0 256 0m0 82.28c-15.12 0-27.43-12.3-27.43-27.43S240.88 27.42 256 27.42s27.43 12.3 27.43 27.43S271.14 82.28 256 82.28" fill="url(#1770301555102-1872365_k)"></path></g></svg>
