<svg xmlns="http://www.w3.org/2000/svg" data-name="Layer 1" style="" viewBox="0 0 512 590.78"><g><defs><linearGradient id="1770301555104-1730940_b" x1="53.35" x2="162.56" y1="25.21" y2="25.21" gradientTransform="matrix(1 0 0 -1 0 592.78)" gradientUnits="userSpaceOnUse"><stop offset="0" stop-color="#cfd8dd"></stop><stop offset=".33" stop-color="#bdc7cc"></stop><stop offset=".98" stop-color="#8f9ba0"></stop><stop offset="1" stop-color="#8d999e"></stop></linearGradient><linearGradient id="1770301555104-1730940_c" x1="169.38" x2="177.3" y1="153.03" y2="274.44" gradientTransform="matrix(1 0 0 -1 0 592.78)" gradientUnits="userSpaceOnUse"><stop offset=".08" stop-color="#8d999e"></stop><stop offset="1" stop-color="#4e5e67"></stop></linearGradient><linearGradient id="1770301555104-1730940_d" x1="176.81" x2="176.81" y1="-4.16" y2="184.54" gradientTransform="matrix(1 0 0 -1 0 592.78)" gradientUnits="userSpaceOnUse"><stop offset=".48" stop-color="#8d999e"></stop><stop offset=".6" stop-color="#929da2"></stop><stop offset=".73" stop-color="#9faaaf"></stop><stop offset=".88" stop-color="#b5bfc4"></stop><stop offset="1" stop-color="#cfd8dd"></stop></linearGradient><linearGradient id="1770301555104-1730940_e" x1="65.3" x2="399.86" y1="514.64" y2="118.18" gradientTransform="matrix(1 0 0 -1 0 592.78)" gradientUnits="userSpaceOnUse"><stop offset="0" stop-color="#cfd8dd"></stop><stop offset=".2" stop-color="#b3c2c6"></stop><stop offset=".34" stop-color="#9fadb1"></stop><stop offset=".48" stop-color="#929ea3"></stop><stop offset=".6" stop-color="#8d999e"></stop><stop offset="1" stop-color="#4e5e67"></stop></linearGradient><linearGradient id="1770301555104-1730940_f" x1="71.99" x2="500.71" y1="487.43" y2="239.91" gradientTransform="matrix(1 0 0 -1 0 592.78)" gradientUnits="userSpaceOnUse"><stop offset="0" stop-color="#4e5e67"></stop><stop offset=".4" stop-color="#8d999e"></stop><stop offset=".52" stop-color="#929ea3"></stop><stop offset=".66" stop-color="#9fadb1"></stop><stop offset=".8" stop-color="#b3c2c6"></stop><stop offset="1" stop-color="#cfd8dd"></stop></linearGradient><linearGradient id="1770301555104-1730940_g" x1="458.81" x2="458.81" y1="518.49" y2="431.5" gradientTransform="matrix(1 0 0 -1 0 592.78)" gradientUnits="userSpaceOnUse"><stop offset="0" stop-color="#cfd8dd"></stop><stop offset=".2" stop-color="#b3c2c6"></stop><stop offset=".34" stop-color="#9fadb1"></stop><stop offset=".48" stop-color="#929ea3"></stop><stop offset=".6" stop-color="#8d999e"></stop><stop offset="1" stop-color="#4e5e67"></stop></linearGradient><linearGradient id="1770301555104-1730940_h" x1="472.76" x2="472.76" y1="514.6" y2="449.86" gradientTransform="matrix(1 0 0 -1 0 592.78)" gradientUnits="userSpaceOnUse"><stop offset="0" stop-color="#cfd8dd"></stop><stop offset=".2" stop-color="#b3c2c6"></stop><stop offset=".34" stop-color="#9fadb1"></stop><stop offset=".48" stop-color="#929ea3"></stop><stop offset=".6" stop-color="#8d999e"></stop><stop offset="1" stop-color="#4e5e67"></stop></linearGradient><linearGradient id="1770301555104-1730940_i" x1="488.46" x2="488.46" y1="515.67" y2="465.2" gradientTransform="matrix(1 0 0 -1 0 592.78)" gradientUnits="userSpaceOnUse"><stop offset="0" stop-color="#cfd8dd"></stop><stop offset=".2" stop-color="#b3c2c6"></stop><stop offset=".34" stop-color="#9fadb1"></stop><stop offset=".48" stop-color="#929ea3"></stop><stop offset=".6" stop-color="#8d999e"></stop><stop offset="1" stop-color="#4e5e67"></stop></linearGradient></defs><path d="M0 574.07v-29.72l285.57 3.06v29.72s-155.7 13.65-167.2 13.65C100.62 590.78 0 574.07 0 574.07" fill="url(#1770301555104-1730940_b)"></path><path d="M0 544.35c0-2.33 159.72-3.62 159.72-3.62s125.84 3.62 125.84 6.69c0 0-155.7 8.12-167.2 8.12-17.75 0-118.37-11.19-118.37-11.19Z" class="r" fill="#6e8189"></path><path d="M121.25 415.61c16.93 76.64 159.67 31.96 159.67 31.96v-7.41s-137.36-75.73-159.67-24.55" fill="#302c3b"></path><path d="M69.04 255.46c14.01 73.32 72.73 146.59 72.73 146.59h20.85s17.01 17.12 5.25 38.1h111.35c29.01-38.52-154.6-184.69-154.6-184.69z" fill="url(#1770301555104-1730940_c)"></path><path d="m218.1 545.14 62.82-97.58h-40.83s13.73-19.71 3.92-32.87c-5.05-6.77-42.15-9.45-35.26-1.92 12.84 14.06-3.37 34.79-3.37 34.79h-43.69c11.43-16.3 9.96-30.56-1.89-36.72h-27.03L72.7 549.94z" fill="url(#1770301555104-1730940_d)"></path><path d="m43.97 542.71 28.74 7.23s47.69-76 72.29-115.64c11.28-18.17-15.67-33.58-26.41-15.12-18.85 32.43-74.62 123.54-74.62 123.54Z" class="r" fill="#6e8189"></path><path d="m69.04 255.46-24.23 18.08 73.79 145.63 23.16-17.12z" class="r" fill="#6e8189"></path><path d="M111.69 36.58s-40.76 59.09-32.14 154.5C101.68 435.09 391.95 537.25 461 421.64c0 0-70.02-227.65-349.31-385.05Z" fill="url(#1770301555104-1730940_e)"></path><path d="M358.62 104.96C262.15-1.37 151.59-31.98 111.69 36.58c-39.93 68.56 5.91 210.33 102.37 316.65 96.47 106.34 207.01 136.96 246.94 68.4 39.92-68.57-5.92-210.33-102.39-316.67Z" fill="url(#1770301555104-1730940_f)"></path><path d="m407.45 409.66 2.57-12.48c.56-3.53 14.3-1.65 13.75 1.89l-2.56 12.48c-.81 5.09-14.63 3.67-13.76-1.89M238.83 86.39l11.51-.28c4.46-.48 5.13 12.58.32 12.89 0 0-.02-.37-11.49.29-5.82.34-6.41-12.5-.33-12.9Z" class="t" fill="#4e5e67"></path><path d="m133.68 206.74 310.85-105.15c2.68-.95 6.26 8.26 3.54 9.19 0 0-301.75 102.06-310.85 105.15-5.63 1.9-9.43-7.2-3.54-9.19" class="r" fill="#6e8189"></path><path d="m122.25 209.35 14.84-5.59c3.54-1.23 8.28 10.93 4.71 12.14 0 0-2.36 1.15-14.4 5.22-3.1-4.93-5.14-11.77-5.14-11.77Z" class="t" fill="#4e5e67"></path><path d="m411.78 397.62 63.95-277.54c.6-2.64 10.83-.58 10.23 2.07l-63.95 277.53c-.81 3.5-11.1 1.79-10.23-2.06M249.84 87.47l191.24-4.05c2.57-.28 3.67 9.55.8 9.76 0 0-179.8 3.26-191.24 4.05-4 .28-5.07-9.45-.8-9.76" class="r" fill="#6e8189"></path><path d="m437.17 74.29-3.74 2.02c-9.33 5.02-5.25 27.89 9.12 51.08 14.37 23.2 33.58 37.93 42.9 32.91l3.75-2.01z" fill="url(#1770301555104-1730940_g)"></path><path d="M480.07 107.2c-14.37-23.19-33.57-37.93-42.89-32.91-9.33 5.02-5.24 27.89 9.12 51.08 14.38 23.2 33.58 37.95 42.9 32.93s5.24-27.9-9.13-51.1" class="s" fill="#99a8ae"></path><path d="m464.62 78.18-15.03 8.08c-6.22 3.35-3.51 18.6 6.07 34.06 9.59 15.46 22.38 25.27 28.6 21.95l15.02-8.09-34.66-55.99Z" fill="url(#1770301555104-1730940_h)"></path><path d="M493.21 100.13c-9.57-15.47-22.39-25.28-28.58-21.95-6.23 3.36-3.51 18.6 6.06 34.07 9.59 15.45 22.38 25.27 28.6 21.93 6.23-3.35 3.51-18.6-6.08-34.05" class="s" fill="#99a8ae"></path><path d="m483.97 77.11-15.02 8.07c-4.16 2.24-1.7 13.44 5.49 25.04 7.18 11.6 16.35 19.2 20.52 16.96l15.03-8.08z" fill="url(#1770301555104-1730940_i)"></path><path d="M504.48 94.06c-7.19-11.6-16.36-19.18-20.51-16.96-4.16 2.24-1.7 13.44 5.49 25.03 7.18 11.61 16.35 19.19 20.53 16.96 4.15-2.24 1.67-13.45-5.51-25.04Z" class="s" fill="#99a8ae"></path></g></svg>
