<svg xmlns="http://www.w3.org/2000/svg" data-name="Layer 1" style="" viewBox="0 0 512 426.67"><g><defs><radialGradient id="1770301555108-2606234_b" cx="-405.23" cy="264.59" r="185.02" fx="-405.23" fy="264.59" gradientTransform="matrix(1 0 0 8.28 564 -1786.39)" gradientUnits="userSpaceOnUse"><stop offset="0" stop-color="#ba6918"></stop><stop offset="1" stop-color="#6b3815"></stop></radialGradient><radialGradient id="1770301555108-2606234_c" cx="-370.57" cy="257.9" r="167.65" fx="-370.57" fy="257.9" gradientTransform="matrix(1 0 0 8.28 564 -1763.6)" gradientUnits="userSpaceOnUse"><stop offset="0" stop-color="#ba6918"></stop><stop offset="1" stop-color="#783f17"></stop></radialGradient><radialGradient id="1770301555108-2606234_d" cx="-364.75" cy="912.31" r="207.03" fx="-364.75" fy="912.31" gradientTransform="matrix(1 0 0 1.07 564 -683.27)" gradientUnits="userSpaceOnUse"><stop offset="0" stop-color="#ffd500"></stop><stop offset="1" stop-color="#ffb300"></stop></radialGradient><radialGradient id="1770301555108-2606234_e" cx="-306.4" cy="1187.05" r="357.96" fx="-306.4" fy="1187.05" gradientTransform="matrix(1 0 0 .81 564 -644.49)" gradientUnits="userSpaceOnUse"><stop offset="0" stop-color="#ffd500"></stop><stop offset=".53" stop-color="#faa600"></stop><stop offset=".75" stop-color="#ffd500"></stop></radialGradient><radialGradient id="1770301555108-2606234_f" cx="970.55" cy=".14" r="233.36" fx="970.55" fy=".14" gradientTransform="matrix(.35824 .48132 -.71216 .5673 -239.82 -318.64)" gradientUnits="userSpaceOnUse"><stop offset="0" stop-color="#fff" stop-opacity=".5"></stop><stop offset="1" stop-color="#fff" stop-opacity="0"></stop></radialGradient><radialGradient id="1770301555108-2606234_g" cx="-2290.67" cy="-1763.04" r="141.31" fx="-2290.67" fy="-1763.04" gradientTransform="matrix(-.46155 .36753 -.5497 -.73832 -1593.55 -257.95)" gradientUnits="userSpaceOnUse"><stop offset="0" stop-color="#fff" stop-opacity=".5"></stop><stop offset="1" stop-color="#fff" stop-opacity="0"></stop></radialGradient><radialGradient id="1770301555108-2606234_j" cx="-317.57" cy="2170.82" r="44.4" fx="-317.57" fy="2170.82" gradientTransform="matrix(1 0 0 .41 564 -892.55)" gradientUnits="userSpaceOnUse"><stop offset="0" stop-color="#ffd500"></stop><stop offset="1" stop-color="#ffb300"></stop></radialGradient><radialGradient id="1770301555108-2606234_k" cx="-317.59" cy="696.98" r="35.59" fx="-317.59" fy="696.98" gradientTransform="matrix(1 0 0 1.1 564 -676.04)" gradientUnits="userSpaceOnUse"><stop offset="0" stop-color="#ffd500"></stop><stop offset="1" stop-color="#ffb300"></stop></radialGradient><radialGradient id="1770301555108-2606234_l" cx="-313.6" cy="677.76" r="24.72" fx="-313.6" fy="677.76" gradientTransform="matrix(1 0 0 1.1 564 -676.04)" gradientUnits="userSpaceOnUse"><stop offset="0" stop-color="#ffd500"></stop><stop offset="1" stop-color="#ffb300"></stop></radialGradient><linearGradient id="1770301555108-2606234_h" x1="1302.8" x2="1347.19" y1="387.32" y2="387.32" gradientTransform="matrix(.41 0 0 1.56 -283.87 -555.92)" gradientUnits="userSpaceOnUse"><stop offset="0" stop-color="#ffb300"></stop><stop offset="1" stop-color="#d98200"></stop></linearGradient><linearGradient id="1770301555108-2606234_i" x1="-2575.65" x2="-2530.72" y1="-2323.21" y2="-2323.21" gradientTransform="matrix(-1 0 0 -.53 -2297.06 -1209.17)" gradientUnits="userSpaceOnUse"><stop offset="0" stop-color="#d98200"></stop><stop offset="1" stop-color="#ffb300"></stop></linearGradient></defs><path d="M512 394.48c0 42.92-512 42.92-512 0 0-112.14 512-112.14 512 0" fill="url(#1770301555108-2606234_b)"></path><path d="M489.98 358.43c0 39.26-467.96 39.26-467.96 0 0-70.6 467.96-70.6 467.96 0" fill="url(#1770301555108-2606234_c)"></path><path d="M478.57 334.21c0 37.33-445.14 37.33-445.14 0 0-89.26 445.14-89.26 445.14 0" fill="url(#1770301555108-2606234_d)"></path><path d="M465.95 318.33c0 29.45-419.88 29.45-419.88 0 0-70.32 419.88-70.32 419.88 0" class="x" fill="#ab5c10"></path><path d="M478.57 296.71c0 37.33-445.14 37.33-445.14 0 0-135.75 99.65-191.02 222.57-191.02s222.57 55.26 222.57 191.02" fill="url(#1770301555108-2606234_e)"></path><path d="M198.35 273.25C150.73 311.2 92.76 315.93 68.93 283.9c-23.9-32.09-4.63-88.83 42.99-126.75 47.62-37.95 105.59-42.7 129.48-10.64 23.88 32.1 4.57 88.85-43.05 126.75Z" fill="url(#1770301555108-2606234_f)"></path><path d="M370.28 253.91c-22.23-29.82-25.02-66.13-6.24-81.06 18.79-14.97 52-2.9 74.21 26.95 22.23 29.84 25.01 66.14 6.23 81.11-18.78 14.96-52.04 2.85-74.2-27" fill="url(#1770301555108-2606234_g)"></path><path d="M282.87 109.91c0 4.51-53.5 4.51-53.5 0 0-30.6 53.5-30.6 53.5 0" class="x" fill="#ab5c10"></path><path d="M246.95 29.61h18.08v36.53h-18.08z" fill="url(#1770301555108-2606234_h)"></path><path d="M233.92 19.87c4.69-2.1 39.97-1.95 44.4 0 1 .45-1.11 11.78-2.25 12.45-3.11 1.95-36.67 1.99-39.9 0-1.14-.67-3.26-12-2.24-12.45Z" fill="url(#1770301555108-2606234_i)"></path><path d="M293.73 21.32c-7.94 2.67-67.7 2.5-75.21 0-1.7-.55 1.87-15.05 3.79-15.94 15.47-7.11 51.96-7.23 67.63 0 1.93.89 5.52 15.39 3.8 15.94Z" fill="url(#1770301555108-2606234_j)"></path><path d="M293.15 100.58c-7.84 6.98-66.88 6.6-74.29 0-1.7-1.48 1.83-9.75 3.74-12.07 5.22-6.31 61.41-6.59 66.83 0 1.89 2.33 5.42 10.59 3.72 12.07" fill="url(#1770301555108-2606234_k)"></path><path d="M278.32 87.58c-4.69 4.16-39.97 3.95-44.4 0-1-.89 1.1-23.55 2.24-24.93 3.12-3.77 36.68-3.95 39.92 0 1.13 1.38 3.24 24.04 2.24 24.93" fill="url(#1770301555108-2606234_l)"></path></g></svg>
