<svg xmlns="http://www.w3.org/2000/svg" data-name="Layer 1" style="" viewBox="0 0 512 546.15"><g><defs><linearGradient id="1770301555119-7903424_b" x1="35.58" x2="512" y1="322.57" y2="322.57" gradientTransform="matrix(1 0 0 -1 0 548.15)" gradientUnits="userSpaceOnUse"><stop offset="0" stop-color="#1f1c26"></stop><stop offset=".15" stop-color="#2c2b36"></stop><stop offset=".33" stop-color="#373743"></stop><stop offset=".5" stop-color="#3a3b47"></stop><stop offset=".67" stop-color="#373743"></stop><stop offset=".85" stop-color="#2c2b36"></stop><stop offset="1" stop-color="#1f1c26"></stop></linearGradient><linearGradient id="1770301555119-7903424_c" x1="34.17" x2="509.16" y1="440.63" y2="440.63" gradientTransform="matrix(1 0 0 -1 0 548.15)" gradientUnits="userSpaceOnUse"><stop offset="0" stop-color="#e7edf2"></stop><stop offset=".06" stop-color="#ebf0f4"></stop><stop offset=".28" stop-color="#f8f9fa"></stop><stop offset=".5" stop-color="#fcfcfc"></stop><stop offset=".72" stop-color="#f8f9fa"></stop><stop offset=".94" stop-color="#ebf0f4"></stop><stop offset="1" stop-color="#e7edf2"></stop></linearGradient><linearGradient id="1770301555119-7903424_d" x1="34.15" x2="509.17" y1="454.71" y2="454.71" gradientTransform="matrix(1 0 0 -1 0 548.15)" gradientUnits="userSpaceOnUse"><stop offset="0" stop-color="#e7edf2"></stop><stop offset=".06" stop-color="#ebf0f4"></stop><stop offset=".28" stop-color="#f8f9fa"></stop><stop offset=".5" stop-color="#fcfcfc"></stop><stop offset=".72" stop-color="#f8f9fa"></stop><stop offset=".94" stop-color="#ebf0f4"></stop><stop offset="1" stop-color="#e7edf2"></stop></linearGradient><linearGradient id="1770301555119-7903424_e" x1="34.16" x2="509.19" y1="357.08" y2="357.08" gradientTransform="matrix(1 0 0 -1 0 548.15)" gradientUnits="userSpaceOnUse"><stop offset="0" stop-color="#e7edf2"></stop><stop offset=".06" stop-color="#ebf0f4"></stop><stop offset=".28" stop-color="#f8f9fa"></stop><stop offset=".5" stop-color="#fcfcfc"></stop><stop offset=".72" stop-color="#f8f9fa"></stop><stop offset=".94" stop-color="#ebf0f4"></stop><stop offset="1" stop-color="#e7edf2"></stop></linearGradient><linearGradient id="1770301555119-7903424_f" x1="34.17" x2="509.16" y1="371.34" y2="371.34" gradientTransform="matrix(1 0 0 -1 0 548.15)" gradientUnits="userSpaceOnUse"><stop offset="0" stop-color="#e7edf2"></stop><stop offset=".06" stop-color="#ebf0f4"></stop><stop offset=".28" stop-color="#f8f9fa"></stop><stop offset=".5" stop-color="#fcfcfc"></stop><stop offset=".72" stop-color="#f8f9fa"></stop><stop offset=".94" stop-color="#ebf0f4"></stop><stop offset="1" stop-color="#e7edf2"></stop></linearGradient><linearGradient id="1770301555119-7903424_g" x1="34.17" x2="509.16" y1="273.89" y2="273.89" gradientTransform="matrix(1 0 0 -1 0 548.15)" gradientUnits="userSpaceOnUse"><stop offset="0" stop-color="#e7edf2"></stop><stop offset=".06" stop-color="#ebf0f4"></stop><stop offset=".28" stop-color="#f8f9fa"></stop><stop offset=".5" stop-color="#fcfcfc"></stop><stop offset=".72" stop-color="#f8f9fa"></stop><stop offset=".94" stop-color="#ebf0f4"></stop><stop offset="1" stop-color="#e7edf2"></stop></linearGradient><linearGradient id="1770301555119-7903424_h" x1="34.15" x2="509.17" y1="288.15" y2="288.15" gradientTransform="matrix(1 0 0 -1 0 548.15)" gradientUnits="userSpaceOnUse"><stop offset="0" stop-color="#e7edf2"></stop><stop offset=".06" stop-color="#ebf0f4"></stop><stop offset=".28" stop-color="#f8f9fa"></stop><stop offset=".5" stop-color="#fcfcfc"></stop><stop offset=".72" stop-color="#f8f9fa"></stop><stop offset=".94" stop-color="#ebf0f4"></stop><stop offset="1" stop-color="#e7edf2"></stop></linearGradient><linearGradient id="1770301555119-7903424_i" x1="34.16" x2="509.19" y1="190.34" y2="190.34" gradientTransform="matrix(1 0 0 -1 0 548.15)" gradientUnits="userSpaceOnUse"><stop offset="0" stop-color="#e7edf2"></stop><stop offset=".06" stop-color="#ebf0f4"></stop><stop offset=".28" stop-color="#f8f9fa"></stop><stop offset=".5" stop-color="#fcfcfc"></stop><stop offset=".72" stop-color="#f8f9fa"></stop><stop offset=".94" stop-color="#ebf0f4"></stop><stop offset="1" stop-color="#e7edf2"></stop></linearGradient><linearGradient id="1770301555119-7903424_j" x1="34.17" x2="509.16" y1="204.6" y2="204.6" gradientTransform="matrix(1 0 0 -1 0 548.15)" gradientUnits="userSpaceOnUse"><stop offset="0" stop-color="#e7edf2"></stop><stop offset=".06" stop-color="#ebf0f4"></stop><stop offset=".28" stop-color="#f8f9fa"></stop><stop offset=".5" stop-color="#fcfcfc"></stop><stop offset=".72" stop-color="#f8f9fa"></stop><stop offset=".94" stop-color="#ebf0f4"></stop><stop offset="1" stop-color="#e7edf2"></stop></linearGradient><linearGradient id="1770301555119-7903424_k" x1="12.8" x2="38.4" y1="246.5" y2="246.5" gradientTransform="matrix(1 0 0 -1 0 548.15)" gradientUnits="userSpaceOnUse"><stop offset="0" stop-color="#9ca4a6"></stop><stop offset=".08" stop-color="#b6bec0"></stop><stop offset=".17" stop-color="#ced6d8"></stop><stop offset=".27" stop-color="#dfe7e9"></stop><stop offset=".37" stop-color="#eaf1f4"></stop><stop offset=".5" stop-color="#edf4f7"></stop><stop offset="1" stop-color="#9ca4a6"></stop></linearGradient><linearGradient id="1770301555119-7903424_m" x1="16.73" x2="34.51" y1="492.55" y2="492.55" gradientTransform="matrix(1 0 0 -1 0 548.15)" gradientUnits="userSpaceOnUse"><stop offset="0" stop-color="#9ca4a6"></stop><stop offset=".02" stop-color="#a2aaac"></stop><stop offset=".13" stop-color="#bac2c4"></stop><stop offset=".24" stop-color="#cbd3d5"></stop><stop offset=".36" stop-color="#d5dde0"></stop><stop offset=".5" stop-color="#d8e0e3"></stop><stop offset="1" stop-color="#9ca4a6"></stop></linearGradient><radialGradient id="1770301555119-7903424_l" cx="19.2" cy="531.09" r="32.82" fx="19.2" fy="531.09" gradientTransform="matrix(1 0 0 -1 0 548.15)" gradientUnits="userSpaceOnUse"><stop offset="0" stop-color="#edf4f7"></stop><stop offset=".19" stop-color="#e7eef1"></stop><stop offset=".46" stop-color="#d5dcdf"></stop><stop offset=".77" stop-color="#b7bfc1"></stop><stop offset="1" stop-color="#9ca4a6"></stop></radialGradient></defs><path d="M512 392.28c-39.68-12.54-79.36-15.62-119.13-14.08-65.96-57.26-119.13 14.08-119.13 14.08-39.68 6.23-79.36 12.46-119.13 14.08L35.57 308.91V58.88C75.25 71.34 114.93 74.5 154.7 72.96c0 0 66.99 69.29 119.13-14.08 39.68-6.23 79.36-14.08 119.13-14.08L512 142.17v83.37c-37.55 40.87 0 83.37 0 83.37z" fill="url(#1770301555119-7903424_b)"></path><path d="M273.75 142.17c-39.68 6.23-79.36 12.46-119.13 14.08V72.88c39.68-1.54 79.36-7.77 119.13-14.08z" fill="url(#1770301555119-7903424_c)"></path><path d="M512 142.17c-39.68-12.46-79.36-15.62-119.13-14.08V44.71c41.22 0 79.36 1.54 119.13 14.08v83.37Z" fill="url(#1770301555119-7903424_d)"></path><path d="M154.71 239.62c-39.68 1.54-79.36-1.54-119.13-14.08v-83.37c39.68 12.46 79.36 15.62 119.13 14.08z" fill="url(#1770301555119-7903424_e)"></path><path d="M392.87 211.46c-39.68 1.54-79.36 7.85-119.13 14.08v-83.37c39.68-6.23 79.36-12.46 119.13-14.08z" fill="url(#1770301555119-7903424_f)"></path><path d="M273.75 308.91c-39.68 6.23-79.36 12.46-119.13 14.08v-83.37c39.68-1.54 79.36-7.85 119.13-14.08z" fill="url(#1770301555119-7903424_g)"></path><path d="M512 308.91c-39.68-12.54-79.36-15.62-119.13-14.08v-83.37c39.68-1.54 79.36 1.54 119.13 14.08z" fill="url(#1770301555119-7903424_h)"></path><path d="M154.71 406.36c-39.68 1.54-79.36-1.54-119.13-14.08v-83.37c39.68 12.46 79.36 15.62 119.13 14.08z" fill="url(#1770301555119-7903424_i)"></path><path d="M392.87 378.2c-39.68 1.54-79.36 7.85-119.13 14.08v-83.37c39.68-6.23 79.36-12.54 119.13-14.08z" fill="url(#1770301555119-7903424_j)"></path><path d="M12.8 60.16v479.66c0 8.45 25.6 8.45 25.6 0V60.16c0-4.01-25.6-4.01-25.6 0" fill="url(#1770301555119-7903424_k)"></path><circle cx="25.6" cy="25.6" r="25.6" fill="url(#1770301555119-7903424_l)"></circle><path d="M16.73 49.66v9.9c0 2.65 17.75 2.65 17.75 0v-9.9z" fill="url(#1770301555119-7903424_m)"></path></g></svg>
