<svg xmlns="http://www.w3.org/2000/svg" data-name="Layer 1" style="" viewBox="0 0 512 511.88"><g><defs><linearGradient id="1770301555128-1128336_b" x1="385.79" x2="46.21" y1="411.43" y2="382.18" gradientTransform="matrix(1 0 0 -1 0 513.89)" gradientUnits="userSpaceOnUse"><stop offset="0" stop-color="#007ed6"></stop><stop offset=".15" stop-color="#1897e1"></stop><stop offset=".37" stop-color="#33b3ee"></stop><stop offset=".58" stop-color="#47c8f8"></stop><stop offset=".79" stop-color="#53d4fd"></stop><stop offset="1" stop-color="#57d8ff"></stop></linearGradient><linearGradient id="1770301555128-1128336_c" x1="-701.81" x2="-676.48" y1="384.67" y2="605.04" gradientTransform="rotate(186.56 -155.031 271.64)" gradientUnits="userSpaceOnUse"><stop offset="0" stop-color="#f80"></stop><stop offset=".21" stop-color="#ffa113"></stop><stop offset=".54" stop-color="#ffc32b"></stop><stop offset=".82" stop-color="#ffd83a"></stop><stop offset="1" stop-color="#ffdf40"></stop></linearGradient><linearGradient id="1770301555128-1128336_d" x1="400.44" x2="400.44" y1="308.87" y2="494.7" gradientTransform="matrix(1 0 0 -1 0 513.89)" gradientUnits="userSpaceOnUse"><stop offset="0" stop-color="#fa0"></stop><stop offset=".03" stop-color="#ffad00"></stop><stop offset=".46" stop-color="#ffd500"></stop><stop offset=".79" stop-color="#ffed00"></stop><stop offset="1" stop-color="#fff600"></stop></linearGradient><linearGradient id="1770301555128-1128336_e" x1="168.19" x2="508.05" y1="158.31" y2="206.66" gradientTransform="matrix(1 0 0 -1 0 513.89)" gradientUnits="userSpaceOnUse"><stop offset="0" stop-color="#007ed6"></stop><stop offset=".15" stop-color="#1897e1"></stop><stop offset=".37" stop-color="#33b3ee"></stop><stop offset=".58" stop-color="#47c8f8"></stop><stop offset=".79" stop-color="#53d4fd"></stop><stop offset="1" stop-color="#57d8ff"></stop></linearGradient><linearGradient id="1770301555128-1128336_f" x1="-206.58" x2="-63.14" y1="-356.55" y2="-104.36" gradientTransform="scale(1 -1) rotate(29.63 262.89 230.51)" gradientUnits="userSpaceOnUse"><stop offset="0" stop-color="#f80"></stop><stop offset=".21" stop-color="#ffa113"></stop><stop offset=".54" stop-color="#ffc32b"></stop><stop offset=".82" stop-color="#ffd83a"></stop><stop offset="1" stop-color="#ffdf40"></stop></linearGradient><linearGradient id="1770301555128-1128336_g" x1="145.25" x2="145.25" y1="18.35" y2="277.13" gradientTransform="matrix(1 0 0 -1 0 513.89)" gradientUnits="userSpaceOnUse"><stop offset="0" stop-color="#fa0"></stop><stop offset=".03" stop-color="#ffad00"></stop><stop offset=".46" stop-color="#ffd500"></stop><stop offset=".79" stop-color="#ffed00"></stop><stop offset="1" stop-color="#fff600"></stop></linearGradient></defs><path d="M3.99 230.35C-31.5 56.04 175.58-40.63 386.66 73.62l-31.31 61.35C221.05 50.24 21.74 53.91 3.99 230.35" fill="url(#1770301555128-1128336_b)"></path><path d="M414.48 6.55c-1.62-8.28-5.89-8.79-9.39-1.11l-31.83 70.31-75.17-8.62c-8.7-1.02-10.67 2.99-4.35 8.87l55.97 51.96-31.83 70.22c-3.5 7.76-.17 10.58 7.34 6.23l66.12-37.8 55.89 51.79c6.31 5.89 10.15 3.92 8.53-4.44l-15.02-75.6 66.21-37.88c7.51-4.35 6.48-8.7-2.22-9.64l-75.17-8.62-15.1-75.68Z" fill="url(#1770301555128-1128336_c)"></path><path d="m408.34 19.18 14.08 70.9 71.33 8.19-62.63 35.84 14.08 70.9-52.64-48.89-62.46 35.66 29.86-65.95-52.81-49.06 71.33 8.19z" fill="url(#1770301555128-1128336_d)"></path><path d="M491.87 187.69c15.7 128.58-72.44 264.16-292.91 149.23l-40.87 91.12c221.5 83.87 418.42-32.42 333.78-240.35" fill="url(#1770301555128-1128336_e)"></path><path d="M71.74 232.15c-2.3-10.92 2.56-13.65 10.67-6.14l74.06 68.51 85.49-48.98c9.98-5.63 14.33-1.88 9.73 8.53l-40.36 91.21 73.97 68.34c8.19 7.51 5.63 12.63-5.55 11.35l-98.55-11.69-40.44 91.12c-4.61 10.32-10.24 9.9-12.46-.94l-20.56-98.89L9.11 392.8c-11.18-1.28-12.2-7.08-2.3-12.8l85.58-48.89-20.65-98.97Z" fill="url(#1770301555128-1128336_f)"></path><path d="m81.38 236.75 73.8 68.26 86.43-49.49L201 347.41l74.06 68.43-99.14-11.77-40.61 91.47-20.56-98.72-99.32-11.86 86.6-49.49z" fill="url(#1770301555128-1128336_g)"></path></g></svg>
