<svg xmlns="http://www.w3.org/2000/svg" data-name="Layer 1" style="" viewBox="0 0 512 878.97"><g><defs><linearGradient id="1770301555128-7968544_b" x1="256" x2="256" y1="2" y2="880.97" gradientTransform="matrix(1 0 0 -1 0 880.97)" gradientUnits="userSpaceOnUse"><stop offset="0" stop-color="#00a661"></stop><stop offset=".19" stop-color="#00b970"></stop><stop offset=".47" stop-color="#00cd80"></stop><stop offset=".74" stop-color="#00da8a"></stop><stop offset="1" stop-color="#00de8d"></stop></linearGradient></defs><path d="M492.51 493.98c-13.04-21.97-30.32-39.99-51.71-54.06-21.39-13.92-44.83-25.05-70.32-33.11-19.92-6.3-39.7-11.72-59.62-16.7V216.22c46.88 8.06 93.17 28.86 138.73 62.11l47.46-104.3c-17.43-14.94-38.67-27.98-63.72-39.11-25.2-11.13-52.3-19.92-81.45-26.08-10.84-2.34-21.68-4.1-32.52-5.42V0H205.83v104.6c-25.93 4.25-50.25 11.28-72.66 21.53-38.53 17.73-68.85 41.9-91.27 72.66-22.41 30.76-33.55 65.63-33.55 104.74 0 34.72 6.3 63.29 19.04 85.7 12.75 22.41 29.74 40.58 51.27 54.5 21.39 13.92 44.97 25.2 70.76 33.55 22.41 7.32 44.53 13.62 66.51 19.34v168.47c-25.78-2.2-50.25-7.03-73.54-14.8-32.96-10.84-64.6-27.39-94.93-49.81L0 704.78c31.06 23.59 68.27 41.9 111.78 54.94 29.59 8.94 60.94 14.5 94.05 17.29v101.96h113.53V773.79c24.9-4.25 48.2-10.69 69.29-20.07 38.82-17.14 69-40.73 90.83-70.76C501.16 652.93 512 617.92 512 578.22c.15-34.13-6.45-62.26-19.48-84.23ZM172.28 339.43c-13.04-10.84-19.63-25.93-19.63-45.12 0-26.08 10.25-46.29 30.76-60.5 9.38-6.59 20.36-11.43 32.52-14.94v144.59c-17.58-6.59-32.38-14.65-43.66-24.03Zm164.36 306.32c-7.18 4.98-16.11 8.79-25.64 12.01V523.42c14.5 5.57 26.52 12.16 36.33 19.92 13.04 10.25 19.63 24.03 19.63 41.46-.15 26.66-10.25 46.88-30.32 60.94Z" fill="url(#1770301555128-7968544_b)"></path></g></svg>
