<svg xmlns="http://www.w3.org/2000/svg" data-name="Layer 1" style="" viewBox="0 0 512 307.2"><g><defs><linearGradient id="1770301555131-906913_b" x1="256" x2="256" y1="2" y2="309.2" gradientTransform="matrix(1 0 0 -1 0 309.2)" gradientUnits="userSpaceOnUse"><stop offset="0" stop-color="#e6ebed"></stop><stop offset=".51" stop-color="#dbe2e5"></stop><stop offset="1" stop-color="#ccd5d9"></stop></linearGradient><linearGradient id="1770301555131-906913_c" x1="256" x2="256" y1="2" y2="247.76" gradientTransform="matrix(1 0 0 -1 0 309.2)" gradientUnits="userSpaceOnUse"><stop offset="0" stop-color="#e6ebed"></stop><stop offset=".26" stop-color="#e3e9eb"></stop><stop offset=".45" stop-color="#dae1e4"></stop><stop offset=".58" stop-color="#cfd8dd"></stop></linearGradient><linearGradient id="1770301555131-906913_d" x1="256" x2="256" y1="106.6" y2="869.07" gradientTransform="matrix(1 0 0 -1 0 309.2)" gradientUnits="userSpaceOnUse"><stop offset="0" stop-color="#b9c2c7"></stop><stop offset=".05" stop-color="#c2cacf"></stop><stop offset=".2" stop-color="#dce2e5"></stop><stop offset=".3" stop-color="#e6ebed"></stop></linearGradient><linearGradient id="1770301555131-906913_e" x1="256" x2="256" y1="99.41" y2="309.2" gradientTransform="matrix(1 0 0 -1 0 309.2)" gradientUnits="userSpaceOnUse"><stop offset="0" stop-color="#e6ebed"></stop><stop offset=".58" stop-color="#e3e9ec"></stop><stop offset="1" stop-color="#dae3e8"></stop></linearGradient><linearGradient id="1770301555131-906913_f" x1="255.85" x2="255.85" y1="34.43" y2="242.55" gradientTransform="matrix(1 0 0 -1 0 309.2)" gradientUnits="userSpaceOnUse"><stop offset="0" stop-color="#0194d6"></stop><stop offset="1" stop-color="#0fb4d4"></stop></linearGradient></defs><path d="M0 0h512v307.2H0z" fill="url(#1770301555131-906913_b)"></path><path d="M256 51.2 0 307.2h512z" class="l" fill="#99a8ae"></path><path d="M256 61.44 0 307.2h512z" fill="url(#1770301555131-906913_c)"></path><path d="M295.51 152.58v37.37L512 0H0l213.67 187.48v-34.9z" class="l" fill="#99a8ae"></path><path d="M244.99 205.82 0 0h512L267.01 205.82a17.26 17.26 0 0 1-22.02 0" fill="url(#1770301555131-906913_d)"></path><path d="M244.99 205.82 0 0h512L267.01 205.82a17.26 17.26 0 0 1-22.02 0" fill="url(#1770301555131-906913_e)"></path><path d="M352 120.66c-4.27-10.84-10.67-20.22-19.2-28.25s-18.94-14.34-31.32-18.94c-12.37-4.61-26.62-6.83-42.67-6.83-15.02 0-28.93 2.39-41.73 7.08-12.89 4.69-23.98 11.69-33.45 20.91s-16.81 20.39-22.1 33.62c-5.29 13.14-7.94 28.16-7.94 45.06 0 19.88 4.18 37.38 12.63 52.65 8.45 15.19 20.48 27.14 36.18 35.84s34.3 12.97 55.89 12.97 38.23-3.67 52.22-10.92 23.98-16.3 29.78-27.22h-33.11c-4.1 4.86-10.33 8.79-18.6 11.69s-18.43 4.35-30.38 4.35c-16.38 0-30.55-3.33-42.33-9.9-11.86-6.66-20.91-15.87-27.22-27.65-6.31-11.86-9.47-25.77-9.47-41.9 0-13.57 1.96-25.6 5.89-36.18s9.47-19.46 16.64-26.62 15.62-12.63 25.34-16.47c9.73-3.75 20.22-5.72 31.57-5.72 12.46 0 23.38 1.62 32.85 4.86s17.32 7.85 23.64 13.82c6.31 5.97 11.01 13.06 14.17 21.25s4.69 17.24 4.69 27.22c0 8.53-.68 15.7-2.05 21.67-1.37 5.89-3.07 10.58-5.21 14.08s-4.44 5.97-6.83 7.42c-2.47 1.45-4.69 2.22-6.74 2.22-5.97 0-9.64-2.13-11.01-6.4s-1.28-10.58.09-18.94l10.15-56.32H286.6l-2.39 13.48h-.68c-2.05-5.03-5.63-8.87-10.67-11.61-5.03-2.65-10.75-4.01-16.98-4.01-7.42 0-14.17 1.54-20.31 4.69s-11.43 7.51-15.87 12.97c-4.44 5.55-7.85 12.03-10.33 19.54-2.47 7.51-3.67 15.53-3.67 23.98 0 12.8 3.24 23.13 9.73 31.06s15.7 11.95 27.65 11.95c8.7 0 15.7-1.96 21.08-5.89s9.9-8.7 13.74-14.17h.51c1.28 5.97 4.44 10.84 9.56 14.59 5.12 3.67 12.03 5.55 20.65 5.55 7.08 0 13.65-1.45 19.63-4.27s11.26-7.08 15.7-12.63c4.52-5.63 7.94-12.54 10.41-20.82s3.67-17.66 3.67-28.25c.34-12.2-1.79-23.89-6.06-34.65Zm-75.95 58.8c-2.22 6.31-5.63 11.43-10.15 15.45-4.61 4.01-10.15 6.06-16.81 6.06-5.21 0-9.3-2.05-12.37-6.14s-4.61-9.56-4.61-16.3c0-6.31 1.02-12.54 3.16-18.77s5.29-11.43 9.56-15.62 9.56-6.23 15.87-6.23c5.63 0 10.24 1.88 13.57 5.55 3.41 3.67 5.12 9.22 5.12 16.47a58.7 58.7 0 0 1-3.33 19.54Z" fill="url(#1770301555131-906913_f)"></path></g></svg>
