<svg xmlns="http://www.w3.org/2000/svg" data-name="Layer 1" style="" viewBox="0 0 512 307.2"><g><defs><linearGradient id="1770301555131-3937477_b" x1="256" x2="256" y1="2" y2="309.2" gradientTransform="matrix(1 0 0 -1 0 309.2)" gradientUnits="userSpaceOnUse"><stop offset="0" stop-color="#e6ebed"></stop><stop offset=".51" stop-color="#dbe2e5"></stop><stop offset="1" stop-color="#ccd5d9"></stop></linearGradient><linearGradient id="1770301555131-3937477_c" x1="256" x2="256" y1="2" y2="247.76" gradientTransform="matrix(1 0 0 -1 0 309.2)" gradientUnits="userSpaceOnUse"><stop offset="0" stop-color="#e6ebed"></stop><stop offset=".26" stop-color="#e3e9eb"></stop><stop offset=".45" stop-color="#dae1e4"></stop><stop offset=".58" stop-color="#cfd8dd"></stop></linearGradient><linearGradient id="1770301555131-3937477_d" x1="256" x2="256" y1="106.6" y2="869.04" gradientTransform="matrix(1 0 0 -1 0 309.2)" gradientUnits="userSpaceOnUse"><stop offset="0" stop-color="#b9c2c7"></stop><stop offset=".05" stop-color="#c2cacf"></stop><stop offset=".2" stop-color="#dce2e5"></stop><stop offset=".3" stop-color="#e6ebed"></stop></linearGradient><linearGradient id="1770301555131-3937477_e" x1="256" x2="256" y1="99.38" y2="309.2" gradientTransform="matrix(1 0 0 -1 0 309.2)" gradientUnits="userSpaceOnUse"><stop offset="0" stop-color="#e6ebed"></stop><stop offset=".58" stop-color="#e3e9ec"></stop><stop offset="1" stop-color="#dae3e8"></stop></linearGradient><linearGradient id="1770301555131-3937477_f" x1="-668.89" x2="-668.89" y1="441.18" y2="381.32" gradientTransform="matrix(2.91 0 0 3.14 2199.74 -1136.16)" gradientUnits="userSpaceOnUse"><stop offset="0" stop-color="#db0100"></stop><stop offset=".58" stop-color="#f31317"></stop><stop offset="1" stop-color="#ff1c23"></stop></linearGradient></defs><path d="M0 0h512v307.2H0z" fill="url(#1770301555131-3937477_b)"></path><path d="M256 51.2 0 307.2h512z" class="l" fill="#99a8ae"></path><path d="M256 61.44 0 307.2h512z" fill="url(#1770301555131-3937477_c)"></path><path d="M244.73 214.72 0 0h512L267.25 214.72c-6.43 5.65-16.06 5.65-22.52 0" class="l" fill="#99a8ae"></path><path d="M245.01 205.82 0 0h512L266.97 205.82c-6.35 5.33-15.6 5.33-21.96 0" fill="url(#1770301555131-3937477_d)"></path><path d="M245.01 205.82 0 0h512L266.97 205.82c-6.35 5.33-15.6 5.33-21.96 0" fill="url(#1770301555131-3937477_e)"></path><path d="M256 87.27c-29.46-48.6-110.93-29.62-110.93 31.41 0 40.94 37.58 68.32 110.93 128.79 73.34-60.47 110.93-87.84 110.93-128.79 0-61.03-81.5-80.01-110.93-31.41" fill="url(#1770301555131-3937477_f)"></path></g></svg>
