<svg xmlns="http://www.w3.org/2000/svg" data-name="Layer 1" style="" viewBox="0 0 512 512.34"><g><defs><radialGradient id="1770301555136-3553127_d" cx="342.93" cy="91.8" r="274.57" fx="342.93" fy="91.8" gradientTransform="rotate(-10 -777.164 -409.642) scale(.99 -.44)" gradientUnits="userSpaceOnUse"><stop offset=".3" stop-color="#cfdde6"></stop><stop offset=".47" stop-color="#cad8e1"></stop><stop offset=".68" stop-color="#bccbd3"></stop><stop offset=".9" stop-color="#a6b4bb"></stop><stop offset="1" stop-color="#99a8ae"></stop></radialGradient><radialGradient id="1770301555136-3553127_f" cx="320.23" cy="-4.27" r="263.89" fx="320.23" fy="-4.27" gradientTransform="rotate(-10 -884.96 -417.483) scale(.99 -.46)" gradientUnits="userSpaceOnUse"><stop offset=".3" stop-color="#cfdde6"></stop><stop offset=".47" stop-color="#cad8e1"></stop><stop offset=".68" stop-color="#bccbd3"></stop><stop offset=".9" stop-color="#a6b4bb"></stop><stop offset="1" stop-color="#99a8ae"></stop></radialGradient><radialGradient id="1770301555136-3553127_h" cx="322.85" cy="492.32" r="134.77" fx="322.85" fy="492.32" gradientTransform="rotate(-10 -1878.815 -510.318) scale(1 -.7)" gradientUnits="userSpaceOnUse"><stop offset="0" stop-color="#75d6ff"></stop><stop offset=".34" stop-color="#4ac2f6"></stop><stop offset=".78" stop-color="#15aaec"></stop><stop offset="1" stop-color="#01a1e8"></stop></radialGradient><radialGradient id="1770301555136-3553127_i" cx="940.49" cy="1236.91" r="119.99" fx="940.49" fy="1236.91" gradientTransform="matrix(.14822 .57108 .87116 -.226 -981.93 -248.02)" gradientUnits="userSpaceOnUse"><stop offset="0" stop-color="#fff"></stop><stop offset="1" stop-color="#fff" stop-opacity="0"></stop></radialGradient><linearGradient id="1770301555136-3553127_b" x1="256.33" x2="256.33" y1="44.07" y2="317.89" gradientTransform="scale(1 -1) rotate(-10 -2942.267 122.439)" gradientUnits="userSpaceOnUse"><stop offset="0" stop-color="#75d6ff" stop-opacity=".1"></stop><stop offset=".26" stop-color="#72d4fe" stop-opacity=".33"></stop><stop offset=".43" stop-color="#69cef9" stop-opacity=".49"></stop><stop offset=".59" stop-color="#5ac4f2" stop-opacity=".63"></stop><stop offset=".73" stop-color="#44b6e8" stop-opacity=".76"></stop><stop offset=".86" stop-color="#28a4db" stop-opacity=".88"></stop><stop offset=".99" stop-color="#058ecb" stop-opacity=".99"></stop><stop offset="1" stop-color="#018bc9"></stop></linearGradient><linearGradient id="1770301555136-3553127_c" x1="154.04" x2="525.73" y1="352.26" y2="352.26" gradientTransform="scale(1 -1) rotate(-10 -3176.537 624.024)" gradientUnits="userSpaceOnUse"><stop offset="0" stop-color="#99a8ae"></stop><stop offset=".63" stop-color="#7e8c93"></stop><stop offset="1" stop-color="#6d7a82"></stop></linearGradient><linearGradient id="1770301555136-3553127_e" x1=".4" x2="511.56" y1="337.27" y2="337.27" gradientTransform="matrix(1 0 0 -1 .36 515.07)" gradientUnits="userSpaceOnUse"><stop offset="0" stop-color="#5b666e"></stop><stop offset=".64" stop-color="#3d3e4b"></stop><stop offset="1" stop-color="#302c3b"></stop></linearGradient><linearGradient id="1770301555136-3553127_g" x1="213.83" x2="466.02" y1="506.26" y2="506.26" gradientTransform="scale(1 -1) rotate(-10 -3176.537 624.024)" gradientUnits="userSpaceOnUse"><stop offset=".28" stop-color="#99a8ae"></stop><stop offset=".51" stop-color="#96a5ab"></stop><stop offset=".71" stop-color="#8c9aa1"></stop><stop offset=".89" stop-color="#7b8990"></stop><stop offset="1" stop-color="#6d7a82"></stop></linearGradient></defs><path d="M337.4 486.38H59.23l113.11-258.1 138.53 24.42z" fill="url(#1770301555136-3553127_b)"></path><path d="M337.4 486.38c-.02 34.61-278.18 34.61-278.18 0 0-34.59 278.18-34.6 278.18 0" fill="#e3f7ff"></path><path d="M424.66 272.93c-1.76 10.24-66.49 35.6-191.09 13.61-124.63-21.96-176.74-67.9-174.96-78.11 4.42-25.09 370.5 39.45 366.04 64.5Z" fill="url(#1770301555136-3553127_c)"></path><path d="M.14 135.36c-3.64 20.53 62.7 114.76 234.41 145.02 171.69 30.27 266.31-35.57 269.91-56.1C513.37 173.78 9.03 84.86.14 135.36" fill="url(#1770301555136-3553127_d)"></path><path d="M511.92 201.94.76 111.82s2.31 12.01 1.02 19.37c-.14.75-.53 13.46 11.88 22.94 34.42 26.34 132.14 53.61 230.71 70.76 98.49 17.6 199.65 25.4 241 12.42 14.88-4.66 18.86-16.75 19.02-17.51 1.27-7.34 7.55-17.86 7.55-17.86Z" fill="url(#1770301555136-3553127_e)"></path><path d="M270.15 78.6C96.92 48.04 3.57 95.88.76 111.82c-11.36 64.55 499.77 154.66 511.16 90.12 2.81-15.93-68.53-92.79-241.77-123.34" fill="url(#1770301555136-3553127_f)"></path><path d="M392.07 113.86c-1.42 8-9.79 35.31-130.53 14.02-120.75-21.29-119.24-49.8-117.83-57.8 3.45-19.64 251.83 24.16 248.36 43.78" fill="url(#1770301555136-3553127_g)"></path><path d="M283.71 1.89c-79.34-14.06-130.36 54.58-132.76 68.14-7.16 40.51 227.07 81.82 234.23 41.31 2.38-13.57-22.1-95.51-101.47-109.45" fill="url(#1770301555136-3553127_h)"></path><path d="M260.8 277.21c-.51 2.88-11.32 17.39-28.11 14.41-16.8-2.95-21.98-20.3-21.52-23.17 1.56-8.57 51.11.16 49.63 8.75Z" fill="#ffe12c"></path><path d="M402.57 277.56c.24 2.85-6.34 19.46-23.11 20.93-16.78 1.47-26.15-13.74-26.42-16.6-.75-8.57 48.78-12.89 49.53-4.33" fill="#a6e639"></path><path d="M77.85 220.29c-1.22 2.61-.71 20.46 14.56 27.57 15.26 7.14 29.28-3.95 30.48-6.57 3.64-7.8-41.41-28.79-45.03-21.01Z" fill="#ff7b00"></path><path d="M256.02 81.49c-29.94 7.77-58.27-1.72-63.31-21.18-5.07-19.49 15.09-41.57 45.01-49.31 29.92-7.78 58.28 1.69 63.34 21.18s-15.11 41.56-45.04 49.31" fill="url(#1770301555136-3553127_i)"></path></g></svg>
