<svg xmlns="http://www.w3.org/2000/svg" data-name="Layer 1" style="" viewBox="0 0 512 640"><g><defs><linearGradient id="1770301555139-8911358_b" x1="-1292.58" x2="-1207.25" y1="458.96" y2="458.96" gradientTransform="rotate(180 -390.29 321)" gradientUnits="userSpaceOnUse"><stop offset=".19" stop-color="#ff000e"></stop><stop offset=".4" stop-color="#f4000b"></stop><stop offset=".78" stop-color="#d80005"></stop><stop offset="1" stop-color="#c40000"></stop></linearGradient><linearGradient id="1770301555139-8911358_c" x1="-1292.58" x2="-1154.02" y1="213.63" y2="213.63" gradientTransform="rotate(180 -390.29 321)" gradientUnits="userSpaceOnUse"><stop offset="0" stop-color="#5b666e"></stop><stop offset=".09" stop-color="#494e59"></stop><stop offset=".19" stop-color="#3b3b48"></stop><stop offset=".3" stop-color="#33303e"></stop><stop offset=".41" stop-color="#302c3b"></stop><stop offset=".47" stop-color="#302c3b"></stop></linearGradient><linearGradient id="1770301555139-8911358_d" x1="-983.25" x2="-983.25" y1="23.33" y2="364.67" gradientTransform="rotate(180 -390.29 321)" gradientUnits="userSpaceOnUse"><stop offset="0" stop-color="#c40000"></stop><stop offset=".22" stop-color="#d80005"></stop><stop offset=".6" stop-color="#f4000b"></stop><stop offset=".81" stop-color="#ff000e"></stop></linearGradient><linearGradient id="1770301555139-8911358_e" x1="-983.25" x2="-983.25" y1="364.56" y2="631.33" gradientTransform="rotate(180 -390.29 321)" gradientUnits="userSpaceOnUse"><stop offset="0" stop-color="#ff000e"></stop><stop offset=".02" stop-color="#fd000e"></stop><stop offset=".67" stop-color="#d40004"></stop><stop offset="1" stop-color="#c40000"></stop></linearGradient><linearGradient id="1770301555139-8911358_h" x1="132.67" x2="132.67" y1="439.33" y2="556.67" gradientTransform="matrix(1 0 0 -1 -10 642)" gradientUnits="userSpaceOnUse"><stop offset="0" stop-color="#302c3b"></stop><stop offset="1" stop-color="#6e7b85"></stop></linearGradient></defs><path d="M417.92 64.21s5.23 13.23-6.19 23.79l-8-1.28 1.92-24.43z" class="v" fill="#768b94"></path><path d="M429.55 68.91s1.92 13.33-9.92 21.87l-7.89-2.77 6.19-23.79 11.63 4.69Z" class="p" fill="#6e8189"></path><path d="M440.32 75.84s1.71 14.83-13.65 19.52l-7.15-4.69 9.92-21.87z" class="v" fill="#768b94"></path><path d="M450.45 83.84s0 16.21-17.07 17.71l-6.72-6.08 13.65-19.52 10.13 7.89Z" class="p" fill="#6e8189"></path><path d="M458.45 93.44s-3.09 13.65-20.48 13.65l-4.59-5.55 17.07-17.71 8 9.6Z" class="v" fill="#768b94"></path><path d="M464 104.64s-6.51 14.19-22.93 8.96l-3.09-6.51 20.48-13.65 5.55 11.2Z" class="p" fill="#6e8189"></path><path d="M467.41 116.69s-11.31 5.87-23.89 6.61l-2.45-9.71 22.93-8.96 3.41 12.05Z" class="v" fill="#768b94"></path><path d="M352 513.71h21.33v42.67H352z" class="p" fill="#6e8189"></path><path d="M469.33 209.71c-10.67 11.84-10.67 26.67-10.67 26.67s-8.43 3.52-8 .85c1.81-12.37 8-22.93 11.52-29.23 5.12-9.28-3.52-12.48-10.56-2.99-19.2 25.81-13.55 13.97.11-7.04 9.07-14.19 29.76-1.92 17.6 11.73Z" class="s" fill="#99a8ae"></path><path d="m448 140.37-10.67-21.33 32-10.67L480 122.56l10.67-3.52L512 140.37l-10.67 10.67S512 172.37 512 193.71v64h-21.33v-64H448l-21.33-21.33 21.33-32Z" fill="url(#1770301555139-8911358_b)"></path><path d="M426.67 229.55v-57.28L448 193.6v30.93c0 10.56 3.95 11.73 14.08 11.73h28.59v21.33h-37.33c-19.09.11-26.67-10.56-26.67-28.05Z" class="x" fill="#302c3b"></path><path d="m469.33 257.71-10.66 21.33H384v-21.33z" class="p" fill="#6e8189"></path><path d="M384 524.37c17.6 0 32 14.4 32 32 0 11.73 9.6 21.33 21.33 21.33s21.33-9.6 21.33-21.33c0-8.43-5.44-18.67-11.73-30.61-9.07-17.28-20.27-38.72-20.27-65.39 0-76.16 64-125.01 64-192V257.7h21.33v10.67c0 67.95-64 117.44-64 192 0 21.44 9.49 39.57 17.92 55.47 7.25 13.87 14.19 26.88 14.19 40.53 0 23.57-19.2 42.67-42.67 42.67s-42.67-19.09-42.67-42.67c0-5.87-4.8-10.67-10.67-10.67h-10.67v-21.33h10.56Z" fill="url(#1770301555139-8911358_c)"></path><path d="M377.17 213.33H28.16l25.17 405.34H352z" class="s" fill="#99a8ae"></path><path d="M362.67 277.33h-320L64 618.67h277.33z" fill="url(#1770301555139-8911358_d)"></path><path d="M42.67 618.67h320c5.87 0 10.67 4.8 10.67 10.67v10.67H32v-10.67c0-5.87 4.8-10.67 10.67-10.67" class="p" fill="#6e8189"></path><path d="M21.33 0H384c11.73 0 21.33 9.6 21.33 21.33v245.33c0 11.73-9.6 21.33-21.33 21.33H21.33C9.6 287.99 0 278.39 0 266.66V21.33C0 9.6 9.6 0 21.33 0" class="s" fill="#99a8ae"></path><path d="M383.47 10.67c6.19 0 11.2 5.23 11.2 11.63v243.52c0 6.4-5.01 11.63-11.2 11.63H21.87c-6.19-.11-11.2-5.33-11.2-11.73V22.29c0-6.4 5.01-11.63 11.2-11.63h361.6Z" fill="url(#1770301555139-8911358_e)"></path><path id="1770301555139-8911358_f" d="M202.67 365.33c39.68 0 72 32.32 72 72s-32.32 72-72 72-72-32.32-72-72 32.32-72 72-72m0-24c-53.01 0-96 42.99-96 96s42.99 96 96 96 96-42.99 96-96-42.99-96-96-96" class="r" data-name="Shape" fill="#f46c60"></path><path id="1770301555139-8911358_g" d="M221.87 446.93q-4.8 0-4.8-4.8v-9.6q0-4.8 4.8-4.8h31.15q4.8 0 4.8 4.8v4.8c0 30.51-24.75 55.25-55.25 55.25-14.83 0-28.69-5.87-39.04-16.21-2.24-2.35-2.24-4.48 0-6.83l10.24-10.13q3.36-3.36 6.72 0c5.87 5.76 13.65 9.17 22.08 9.17 13.87 0 25.6-9.07 29.76-21.65h-10.45Z" class="r" data-name="Combined-Shape" fill="#f46c60"></path><path d="M42.67 42.67h320v202.67h-320z" class="x" fill="#302c3b"></path><path d="M53.33 85.33H192v117.33H53.33z" fill="url(#1770301555139-8911358_h)"></path><path d="M202.67 85.33h42.67v117.33h-42.67z" fill="#ffe12c"></path><path d="M256 85.33h42.67v117.33H256z" fill="#fff"></path><path d="M309.33 85.33H352v117.33h-42.67z" fill="#7ab51d"></path><path d="M208 165.33h32v32h-32z" fill="#f9b700"></path><path d="M261.33 165.33h32v32h-32z" class="n" fill="#cfd8dd"></path><path d="M314.67 165.33h32v32h-32z" fill="#428210"></path><path d="M69.33 101.33H176v85.33H69.33z" class="n" fill="#cfd8dd"></path><path d="M101.33 109.12h64v32h-64zm0 40h64v32h-64z" class="s" fill="#99a8ae"></path><path d="M91.2 125.12c-.64-.43-1.39-.75-2.13-.96-.64-.21-1.17-.32-1.81-.53v-5.33c1.39.21 2.88.85 4.16 1.92l1.49-3.2c-.53-.43-1.17-.85-1.92-1.17s-1.6-.64-2.45-.75c-.32-.11-.64-.11-.96-.11v-3.09h-3.41v3.2c-.75.11-1.49.32-2.24.64-1.17.53-2.13 1.28-2.77 2.24s-1.07 2.03-1.07 3.2c0 1.07.21 1.92.53 2.56.43.64.85 1.28 1.6 1.6.64.43 1.39.75 2.13 1.07.64.21 1.39.43 2.03.53v5.12c-.75-.11-1.49-.21-2.24-.43-.96-.32-1.92-.85-2.88-1.49l-1.49 3.2c.96.75 2.03 1.28 3.41 1.71.85.32 1.81.43 2.88.53v3.09h3.41v-3.2c.75-.11 1.49-.32 2.13-.64 1.17-.53 2.13-1.28 2.77-2.13.64-.96.96-1.92.96-3.2 0-1.07-.21-1.92-.64-2.56-.32-.85-.85-1.39-1.49-1.81Zm-8.21-3.09c-.43-.32-.64-.75-.64-1.39 0-.75.32-1.39.96-1.81.32-.21.64-.32.96-.43v4.37c-.43-.21-.96-.43-1.28-.75Zm5.01 9.38c-.21.11-.53.21-.75.32v-4.05c.43.21.85.32 1.07.53.43.32.64.75.64 1.28q0 1.275-.96 1.92m-4.16 40.64v-17.6h-4.69v21.34h14.18v-3.74z" class="x" fill="#302c3b"></path></g></svg>
