<svg xmlns="http://www.w3.org/2000/svg" data-name="Layer 1" style="" viewBox="0 0 512 460.8"><g><defs><linearGradient id="1770301555144-7859293_b" x1="-576.83" x2="-576.83" y1="899.69" y2="1066.2" gradientTransform="matrix(2.91 0 0 -2.77 1932.16 2950.71)" gradientUnits="userSpaceOnUse"><stop offset="0" stop-color="#ff9d8b"></stop><stop offset=".27" stop-color="#ffa496"></stop><stop offset=".74" stop-color="#ffb8b4"></stop><stop offset="1" stop-color="#ffc5c8"></stop></linearGradient><linearGradient id="1770301555144-7859293_c" x1="-550.43" x2="-550.43" y1="752.71" y2="919.28" gradientTransform="matrix(2.13 0 0 -1.99 1428.92 1896.18)" gradientUnits="userSpaceOnUse"><stop offset="0" stop-color="#eb3838"></stop><stop offset=".28" stop-color="#ef4341"></stop><stop offset=".78" stop-color="#fa6158"></stop><stop offset="1" stop-color="#ff7164"></stop></linearGradient><linearGradient id="1770301555144-7859293_d" x1="-476.49" x2="-476.49" y1="533.06" y2="680.81" gradientTransform="matrix(1.45 0 0 -1.38 948.29 1068.78)" gradientUnits="userSpaceOnUse"><stop offset="0" stop-color="#a30000"></stop><stop offset=".26" stop-color="#b70000"></stop><stop offset=".73" stop-color="#d50000"></stop><stop offset="1" stop-color="#e00000"></stop></linearGradient></defs><path d="M255.97 65.03C188.02-55.03 0 1.13 0 151.91 0 253.06 86.72 311.46 255.97 460.8 425.22 311.46 512 253.06 512 151.91 512 1.13 323.95-55.03 255.97 65.03" fill="url(#1770301555144-7859293_b)"></path><path d="M255.98 110.58C205.01 23.89 64 67.03 64 175.89c0 73.04 65.05 112.62 191.98 220.45C382.91 288.51 448 248.93 448 175.89c0-108.87-141.03-152-192.02-65.31" fill="url(#1770301555144-7859293_c)"></path><path d="M255.98 156.67c-32.09-52.94-120.89-32.26-120.89 34.2 0 44.59 40.97 74.42 120.89 140.25 79.95-65.83 120.93-95.67 120.93-140.25 0-66.46-88.81-87.14-120.93-34.2" fill="url(#1770301555144-7859293_d)"></path></g></svg>
