<svg xmlns="http://www.w3.org/2000/svg" data-name="Layer 1" style="" viewBox="0 0 512 426.66"><g><defs><linearGradient id="1770301555153-1149109_b" x1="-576.83" x2="-576.83" y1="888.79" y2="1042.96" gradientTransform="matrix(2.91 0 0 -2.77 1932.16 2886.4)" gradientUnits="userSpaceOnUse"><stop offset="0" stop-color="#db0100"></stop><stop offset=".58" stop-color="#f31317"></stop><stop offset="1" stop-color="#ff1c23"></stop></linearGradient><linearGradient id="1770301555153-1149109_c" x1="4.07" x2="507.94" y1="207.22" y2="207.22" gradientTransform="matrix(1 0 0 -1 0 428.66)" gradientUnits="userSpaceOnUse"><stop offset=".48" stop-color="#ffb700"></stop><stop offset=".65" stop-color="#ffc20a"></stop><stop offset=".93" stop-color="#ffde26"></stop><stop offset="1" stop-color="#ffe72e"></stop></linearGradient><linearGradient id="1770301555153-1149109_d" x1="146.82" x2="146.82" y1="18.25" y2="175.7" gradientTransform="matrix(1 0 0 -1 0 428.66)" gradientUnits="userSpaceOnUse"><stop offset=".21" stop-color="#ffe12c"></stop><stop offset=".49" stop-color="#ffd620"></stop><stop offset="1" stop-color="#ffb700"></stop><stop offset="1" stop-color="#ffb700"></stop></linearGradient><linearGradient id="1770301555153-1149109_e" x1="246.08" x2="246.08" y1="71.61" y2="207.22" gradientTransform="matrix(1 0 0 -1 0 428.66)" gradientUnits="userSpaceOnUse"><stop offset=".21" stop-color="#ffe12c"></stop><stop offset=".49" stop-color="#ffd620"></stop><stop offset="1" stop-color="#ffb700"></stop><stop offset="1" stop-color="#ffb700"></stop></linearGradient><linearGradient id="1770301555153-1149109_h" x1="-981.82" x2="-981.82" y1="-423.36" y2="-331.07" gradientTransform="matrix(.98717 -.57017 -.4998 -.86614 930.46 -658.85)" gradientUnits="userSpaceOnUse"><stop offset=".1" stop-color="#ffb700"></stop><stop offset=".55" stop-color="#ffe12c"></stop></linearGradient><radialGradient id="1770301555153-1149109_f" cx="1583.42" cy="1626.47" r="386.28" fx="1274.34" fy="1766.62" gradientTransform="matrix(-.83147 .47985 .38003 .65816 754.98 -1347.48)" gradientUnits="userSpaceOnUse"><stop offset=".26" stop-color="#ffe12c"></stop><stop offset=".36" stop-color="#ffb700"></stop><stop offset=".5" stop-color="#ffe12c"></stop></radialGradient><radialGradient id="1770301555153-1149109_g" cx="-972.46" cy="1625.85" r="386.31" fx="-1281.56" fy="1766.01" gradientTransform="matrix(.83122 -.48029 .3798 .6583 617.98 -1268.64)" gradientUnits="userSpaceOnUse"><stop offset=".26" stop-color="#ffe12c"></stop><stop offset=".36" stop-color="#ffb700"></stop><stop offset=".5" stop-color="#ffe12c"></stop></radialGradient></defs><path d="M255.98 62.58C188.02-47.86 0-4.73 0 133.98c0 93.04 86.73 155.3 255.98 292.68C425.23 289.27 512 227.01 512 133.98c0-138.71-188.05-181.84-256.02-71.4" fill="url(#1770301555153-1149109_b)"></path><path d="M445.99 265.24a1802.7 1802.7 0 0 1-379.96 0C7.29 218.98 4.07 167.62 4.07 167.62a1714.2 1714.2 0 0 0 503.87 0s-2.25 45.71-61.95 97.62" fill="url(#1770301555153-1149109_c)"></path><path d="M114.55 273.72s20.86 38.43-6.55 103.25l43.76-20.41 25.1 53.85s28.72-57.49-17.89-157.46l-44.42 20.76Z" fill="url(#1770301555153-1149109_d)"></path><path d="M226.66 221.45s16.03 40.7 83.3 61.35l-43.77 20.4 25.11 53.85s-62.51-14.96-109.12-114.92l44.48-20.69Z" fill="url(#1770301555153-1149109_e)"></path><path d="M145.76 230.49c23.25 77.42-49.02 143.79-59.72 136.59C64.27 352.36 7.36 275.1.01 218.49c-1.13-8.74 88.7-58.46 145.75 12" fill="url(#1770301555153-1149109_f)"></path><path d="M161.2 221.57c55.43 58.85 149.03 29.4 148.14 16.54-1.87-26.21-40.32-114.13-85.66-148.81-7-5.36-94.95 47.6-62.48 132.27" fill="url(#1770301555153-1149109_g)"></path><path d="M175.3 263.7c-22.23 12.87-18.88 31.34-49.66-21.8-30.75-53.19-16.38-41.05 5.85-53.95 22.22-12.87 18.84-31.42 49.65 21.8 30.73 53.14 16.4 41.07-5.84 53.95" fill="url(#1770301555153-1149109_h)"></path></g></svg>
