<svg xmlns="http://www.w3.org/2000/svg" data-name="Layer 1" style="" viewBox="0 0 512 877.71"><g><defs><linearGradient id="1770301555154-8213110_b" x1="0" x2="512" y1="50.28" y2="50.28" gradientTransform="matrix(1 0 0 -1 0 879.71)" gradientUnits="userSpaceOnUse"><stop offset="0" stop-color="#8a6859"></stop><stop offset=".12" stop-color="#7f5f50"></stop><stop offset=".33" stop-color="#725345"></stop><stop offset=".53" stop-color="#6e4f41"></stop></linearGradient><linearGradient id="1770301555154-8213110_c" x1="14.63" x2="497.37" y1="110.8" y2="110.8" gradientTransform="matrix(1 0 0 -1 0 879.71)" gradientUnits="userSpaceOnUse"><stop offset="0" stop-color="#8a6859"></stop><stop offset=".12" stop-color="#7f5f50"></stop><stop offset=".33" stop-color="#725345"></stop><stop offset=".53" stop-color="#6e4f41"></stop></linearGradient><linearGradient id="1770301555154-8213110_f" x1="84.7" x2="427.36" y1="376.67" y2="376.67" gradientTransform="matrix(1 0 0 -1 0 879.71)" gradientUnits="userSpaceOnUse"><stop offset="0" stop-color="#fae0a5"></stop><stop offset="1" stop-color="#c79e3e"></stop></linearGradient><linearGradient id="1770301555154-8213110_h" x1="12.2" x2="499.83" y1="744.4" y2="744.4" gradientTransform="matrix(1 0 0 -1 0 879.71)" gradientUnits="userSpaceOnUse"><stop offset="0" stop-color="#8a6859"></stop><stop offset=".07" stop-color="#7e5e50"></stop><stop offset=".23" stop-color="#684c40"></stop><stop offset=".39" stop-color="#5b4236"></stop><stop offset=".53" stop-color="#573e33"></stop></linearGradient><linearGradient id="1770301555154-8213110_i" x1="0" x2="512" y1="787.55" y2="787.55" gradientTransform="matrix(1 0 0 -1 0 879.71)" gradientUnits="userSpaceOnUse"><stop offset="0" stop-color="#8a6859"></stop><stop offset=".12" stop-color="#7f5f50"></stop><stop offset=".33" stop-color="#725345"></stop><stop offset=".53" stop-color="#6e4f41"></stop></linearGradient><radialGradient id="1770301555154-8213110_d" cx="254.78" cy="320.11" r="227.57" fx="254.78" fy="320.11" gradientTransform="matrix(1 0 0 -1.34 0 1188.54)" gradientUnits="userSpaceOnUse"><stop offset=".67" stop-color="#e6ebef"></stop><stop offset=".79" stop-color="#dfe7ee"></stop><stop offset=".95" stop-color="#ccdbea"></stop><stop offset="1" stop-color="#c5d7e8"></stop></radialGradient><radialGradient id="1770301555154-8213110_e" cx="-1552.5" cy="1560.31" r="227.57" fx="-1552.5" fy="1560.31" gradientTransform="matrix(-1 0 0 1.34 -1295.28 -1986.06)" gradientUnits="userSpaceOnUse"><stop offset=".67" stop-color="#e6ebef"></stop><stop offset=".79" stop-color="#dfe7ee"></stop><stop offset=".95" stop-color="#ccdbea"></stop><stop offset="1" stop-color="#c5d7e8"></stop></radialGradient><radialGradient id="1770301555154-8213110_g" cx="230.14" cy="321.41" r="59.64" fx="230.14" fy="321.41" gradientTransform="matrix(1.03 0 0 -.52 21.83 432.78)" gradientUnits="userSpaceOnUse"><stop offset="0" stop-color="#9c7321"></stop><stop offset=".14" stop-color="#a27926"></stop><stop offset="1" stop-color="#c49a45"></stop></radialGradient></defs><path d="M512 781.15v52.68c0 24.22-114.6 43.89-256 43.89S0 858.05 0 833.83v-52.68z" fill="url(#1770301555154-8213110_b)"></path><ellipse cx="256" cy="781.15" class="s" rx="256" ry="43.89" fill="#573e33"></ellipse><path d="M497.37 733.26v35.09c0 20.01-108.06 36.22-241.37 36.22S14.63 788.36 14.63 768.35v-35.09z" fill="url(#1770301555154-8213110_c)"></path><ellipse cx="256" cy="733.26" class="s" rx="241.37" ry="36.22" fill="#573e33"></ellipse><path d="M322.66 456.67c-22.03-7.07-35.39-10.43-35.39-22.16-4.9-19.51-57.65-19.49-62.54 0 0 11.73-13.33 15.08-35.36 22.16C70.34 490.78 36.56 577.94 36.56 724.99c0 19.21 98.23 34.79 219.43 34.79s219.43-15.58 219.43-34.79c0-147.05-33.75-234.17-152.77-268.32Z" fill="url(#1770301555154-8213110_d)"></path><path d="M189.34 412.35c22.03 7.07 35.39 10.43 35.39 22.16 3.91 19.54 58.65 19.46 62.54 0 0-11.73 13.33-15.08 35.36-22.16 119.03-34.11 152.81-121.27 152.81-268.3 0-19.21-98.23-34.79-219.43-34.79S36.58 124.84 36.58 144.05c0 147.03 33.75 234.16 152.77 268.3Z" fill="url(#1770301555154-8213110_e)"></path><path d="M309.34 413.67c62.17-22.25 103.83-67.45 116.46-167.32H86.24c11.82 97.41 54.32 145.07 116.46 167.34 17.63 7.02 24.85 9.96 28.32 18.14 20.92 49.15 21.01 135.9 11.26 173.85-17.29 67.35-138.8 83-157.55 126.96-1.29 3.04 35.34 27.12 171.29 27.12s172.63-24.08 171.32-27.12c-18.71-43.99-140.23-59.61-157.52-126.96-9.74-37.95-9.65-124.66 11.23-173.85 3.47-8.16 10.66-11.09 28.29-18.15Z" fill="url(#1770301555154-8213110_f)"></path><path d="M86.79 247.76c2.43 29.17 299.3 62.74 338.45 0 16.98-27.3-343.36-58.87-338.45 0" fill="#c49a45"></path><path d="M189.4 245.73c.97 16.46 120.98 35.4 136.82 0 6.88-15.39-138.78-33.22-136.82 0" fill="url(#1770301555154-8213110_g)"></path><path d="M499.83 95.09v43.9c0 20.19-109.17 36.56-243.83 36.56S12.2 159.17 12.2 138.99v-43.9z" fill="url(#1770301555154-8213110_h)"></path><path d="M512 43.89v52.68c0 24.22-114.6 43.89-256 43.89S0 120.79 0 96.56V43.88h512Z" fill="url(#1770301555154-8213110_i)"></path><ellipse cx="256" cy="43.89" class="s" rx="256" ry="43.89" fill="#573e33"></ellipse></g></svg>
