<svg xmlns="http://www.w3.org/2000/svg" data-name="Layer 1" style="" viewBox="0 0 512 698.18"><g><defs><linearGradient id="1770301554699-9118112_b" x1="256" x2="256" y1="2" y2="700.18" gradientTransform="matrix(1 0 0 -1 0 700.18)" gradientUnits="userSpaceOnUse"><stop offset="0" stop-color="#e6ebef"></stop><stop offset=".11" stop-color="#e8ecf0"></stop><stop offset="1" stop-color="#f2f5f7"></stop></linearGradient><linearGradient id="1770301554699-9118112_c" x1="256" x2="256" y1="2" y2="700.18" gradientTransform="matrix(1 0 0 -1 0 700.18)" gradientUnits="userSpaceOnUse"><stop offset="0" stop-color="#cfd8dd"></stop><stop offset=".54" stop-color="#d9e0e5"></stop><stop offset="1" stop-color="#e6ebef"></stop></linearGradient><linearGradient id="1770301554699-9118112_d" x1="187.91" x2="163.67" y1="206.05" y2="248.22" gradientTransform="matrix(1 0 0 -1 0 700.18)" gradientUnits="userSpaceOnUse"><stop offset="0" stop-color="#bc2af7"></stop><stop offset=".22" stop-color="#b928f3"></stop><stop offset=".44" stop-color="#b121e6"></stop><stop offset=".67" stop-color="#a217d2"></stop><stop offset=".9" stop-color="#8e08b5"></stop><stop offset=".99" stop-color="#8400a6"></stop></linearGradient><linearGradient id="1770301554699-9118112_e" x1="318.8" x2="350.8" y1="206.78" y2="245.57" gradientTransform="matrix(1 0 0 -1 0 700.18)" gradientUnits="userSpaceOnUse"><stop offset="0" stop-color="#ff3b3b"></stop><stop offset=".26" stop-color="#fb3737"></stop><stop offset=".52" stop-color="#f02b2a"></stop><stop offset=".79" stop-color="#dd1616"></stop><stop offset="1" stop-color="#c90100"></stop></linearGradient><linearGradient id="1770301554699-9118112_f" x1="256" x2="327.24" y1="193.44" y2="193.44" gradientTransform="matrix(1 0 0 -1 0 700.18)" gradientUnits="userSpaceOnUse"><stop offset="0" stop-color="#bc2af7"></stop><stop offset=".22" stop-color="#b928f3"></stop><stop offset=".44" stop-color="#b121e6"></stop><stop offset=".67" stop-color="#a217d2"></stop><stop offset=".9" stop-color="#8e08b5"></stop><stop offset=".99" stop-color="#8400a6"></stop></linearGradient><linearGradient id="1770301554699-9118112_g" x1="184.76" x2="256" y1="193.44" y2="193.44" gradientTransform="matrix(1 0 0 -1 0 700.18)" gradientUnits="userSpaceOnUse"><stop offset="0" stop-color="#c90100"></stop><stop offset=".21" stop-color="#dd1616"></stop><stop offset=".48" stop-color="#f02b2a"></stop><stop offset=".74" stop-color="#fb3737"></stop><stop offset="1" stop-color="#ff3b3b"></stop></linearGradient><linearGradient id="1770301554699-9118112_i" x1="-134.35" x2="35.82" y1="1198.97" y2="1198.97" gradientTransform="translate(194 -854)" gradientUnits="userSpaceOnUse"><stop offset="0" stop-color="#ff3b3b"></stop><stop offset=".17" stop-color="#fb3737"></stop><stop offset=".34" stop-color="#f02b2a"></stop><stop offset=".52" stop-color="#dd1616"></stop><stop offset=".65" stop-color="#c90100"></stop></linearGradient><linearGradient id="1770301554699-9118112_j" x1="107.71" x2="202.47" y1="1108.87" y2="1273" gradientTransform="translate(194 -854)" gradientUnits="userSpaceOnUse"><stop offset="0" stop-color="#00abf1"></stop><stop offset=".11" stop-color="#00a0ec"></stop><stop offset=".29" stop-color="#0084df"></stop><stop offset=".48" stop-color="#0062d0"></stop></linearGradient><linearGradient id="1770301554699-9118112_k" x1="25.34" x2="150.12" y1="1011.78" y2="1227.9" gradientTransform="translate(194 -854)" gradientUnits="userSpaceOnUse"><stop offset=".01" stop-color="#ffc300"></stop><stop offset=".22" stop-color="#f90"></stop><stop offset=".41" stop-color="#ff8900"></stop><stop offset=".69" stop-color="#ff6a00"></stop></linearGradient><linearGradient id="1770301554699-9118112_l" x1="223.58" x2="283.09" y1="1162.76" y2="1162.76" gradientTransform="translate(194 -854)" gradientUnits="userSpaceOnUse"><stop offset="0" stop-color="#00abf1"></stop><stop offset=".36" stop-color="#0084df"></stop><stop offset=".64" stop-color="#006bd4"></stop><stop offset=".82" stop-color="#0062d0"></stop></linearGradient><linearGradient id="1770301554699-9118112_m" x1="179.11" x2="221.06" y1="1000" y2="1041.94" gradientTransform="translate(194 -854)" gradientUnits="userSpaceOnUse"><stop offset=".01" stop-color="#ffc300"></stop><stop offset=".31" stop-color="#f90"></stop><stop offset=".46" stop-color="#ff8900"></stop><stop offset=".69" stop-color="#ff6a00"></stop></linearGradient><linearGradient id="1770301554699-9118112_n" x1="-144.14" x2="-114.51" y1="1114.84" y2="1166.15" gradientTransform="translate(194 -854)" gradientUnits="userSpaceOnUse"><stop offset="0" stop-color="#ff3b3b"></stop><stop offset=".15" stop-color="#f53030"></stop><stop offset=".7" stop-color="#d50e0d"></stop><stop offset="1" stop-color="#c90100"></stop></linearGradient><linearGradient id="1770301554699-9118112_o" x1="-107.2" x2="-95.62" y1="1357" y2="1377.05" gradientTransform="translate(194 -854)" gradientUnits="userSpaceOnUse"><stop offset="0" stop-color="#c90100"></stop><stop offset=".21" stop-color="#dd1616"></stop><stop offset=".48" stop-color="#f02b2a"></stop><stop offset=".74" stop-color="#fb3737"></stop><stop offset="1" stop-color="#ff3b3b"></stop></linearGradient><linearGradient id="1770301554699-9118112_p" x1="-11.74" x2="-.17" y1="1429.59" y2="1449.64" gradientTransform="translate(194 -854)" gradientUnits="userSpaceOnUse"><stop offset="0" stop-color="#bc2af7"></stop><stop offset=".22" stop-color="#b928f3"></stop><stop offset=".44" stop-color="#b121e6"></stop><stop offset=".67" stop-color="#a217d2"></stop><stop offset=".9" stop-color="#8e08b5"></stop><stop offset=".99" stop-color="#8400a6"></stop></linearGradient><linearGradient id="1770301554699-9118112_q" x1="123.89" x2="135.47" y1="1429.59" y2="1449.64" gradientTransform="translate(194 -854)" gradientUnits="userSpaceOnUse"><stop offset="0" stop-color="#c90100"></stop><stop offset=".21" stop-color="#dd1616"></stop><stop offset=".48" stop-color="#f02b2a"></stop><stop offset=".74" stop-color="#fb3737"></stop><stop offset="1" stop-color="#ff3b3b"></stop></linearGradient><linearGradient id="1770301554699-9118112_r" x1="219.64" x2="231.22" y1="1357" y2="1377.05" gradientTransform="translate(194 -854)" gradientUnits="userSpaceOnUse"><stop offset="0" stop-color="#bc2af7"></stop><stop offset=".22" stop-color="#b928f3"></stop><stop offset=".44" stop-color="#b121e6"></stop><stop offset=".67" stop-color="#a217d2"></stop><stop offset=".9" stop-color="#8e08b5"></stop><stop offset=".99" stop-color="#8400a6"></stop></linearGradient><radialGradient id="1770301554699-9118112_h" cx="255.16" cy="177.26" r="78.09" fx="255.16" fy="177.26" gradientTransform="matrix(1 0 0 -.88 0 602.31)" gradientUnits="userSpaceOnUse"><stop offset=".22" stop-color="#302c3b"></stop><stop offset=".93" stop-color="#302c3b" stop-opacity="0"></stop></radialGradient></defs><path d="M512 663.27c0 19.19-15.72 34.91-34.91 34.91H34.91C15.71 698.18 0 682.46 0 663.27V34.91C0 15.71 15.71 0 34.91 0h442.18C496.28 0 512 15.71 512 34.91z" fill="url(#1770301554699-9118112_b)"></path><path d="M477.09 5.82c16.03 0 29.09 13.06 29.09 29.09v628.36c0 16.03-13.06 29.09-29.09 29.09H34.91c-16.03 0-29.09-13.06-29.09-29.09V34.91c0-16.03 13.06-29.09 29.09-29.09zm0-5.82H34.91C15.71 0 0 15.71 0 34.91v628.36c0 19.19 15.71 34.91 34.91 34.91h442.18c19.19 0 34.91-15.72 34.91-34.91V34.91C512 15.71 496.28 0 477.09 0" fill="url(#1770301554699-9118112_c)"></path><path d="m92.59 513.02 100.08-19.7L256 427.88s-70.3-17.26-163.41 85.14" fill="url(#1770301554699-9118112_d)"></path><path d="m419.43 513.02-100.08-19.7-63.33-65.43s70.28-17.27 163.41 85.13" fill="url(#1770301554699-9118112_e)"></path><path d="m256 528.59 67.7 57.02c22.25-146-67.7-157.73-67.7-157.73z" fill="url(#1770301554699-9118112_f)"></path><path d="m256 528.59-67.7 57.02c-22.25-146 67.7-157.73 67.7-157.73z" fill="url(#1770301554699-9118112_g)"></path><path d="M333.51 444.51s0 84.08-77.51 84.08c-71.25 0-80.64-82.64-80.64-82.64z" fill="url(#1770301554699-9118112_h)"></path><path d="M229.82 270.84C156.5 164.59 33.25 217.77 64.69 294.39c31.64-37.7 96.33 5.81 92.86 32.65-14.91 115.33 34.91 143.28 66.43 151.74 0 0 1.48-102.06-20.19-162.86z" fill="url(#1770301554699-9118112_i)"></path><path d="m287.86 270.09 18.49 49.99c-26.05 57.93-18.3 158.67-18.3 158.67 31.5-8.47 73.13-43.47 60.38-135.14-5.57-40.23 72.73-65.89 98.21-22.19 43.88-70.16-68.62-143.56-158.78-51.33" fill="url(#1770301554699-9118112_j)"></path><path d="M394.09 168.24c-28.85-104.19-244.06-62.88-219.16 209.68l97.99-32 64.24 32c4-83.7-19.29-77.8-19.29-141.22-.01-52.74 26.04-87.24 76.22-68.46" fill="url(#1770301554699-9118112_k)"></path><path d="M319.57 315.87c-31.52-31.52-63.52 17.06-63.52 17.06s-32-48.58-63.52-17.06c-9.63 9.63-19.3 32.26-17.59 62.05.69 12.09 7.37 50.71 15.24 65.59 7.25 13.71 31.42 36.72 46.25 41.37 4.64 1.44 12.23 2.16 19.64 2.19 7.4-.02 14.98-.73 19.63-2.19 14.84-4.63 39.01-27.66 46.27-41.37 7.87-14.88 14.55-53.5 15.24-65.59 1.66-29.79-8.01-52.41-17.64-62.05" fill="#f2f5f7"></path><path d="M273.7 416.91c0 11.52-35.37 11.52-35.37 0 0-2.63 35.37-2.63 35.37 0" class="al" fill="#99a8ae"></path><path d="M317.09 382.57c-7.61 19.93-38.63 17.01-44.32 3.05 4.33-22.43 40.15-24.33 44.32-3.05m-122.16 0c7.62 19.93 38.64 17.01 44.31 3.05-4.31-22.45-40.12-24.33-44.31-3.05" class="an" fill="#fff"></path><path d="M323.18 358.68c-12.01-18.72-45.6-15.63-53.33-1.58-1.86 2.29-.07 5.84 1.5 4.14 12.07-15.41 40.19-14.64 51.14.66 1.5 1.79 2.55-.93.69-3.22m-134.31-.01c12.01-18.71 45.58-15.63 53.33-1.57 1.86 2.29.07 5.84-1.51 4.13-12.1-15.41-40.19-14.63-51.14.67-1.5 1.79-2.54-.93-.67-3.23Z" class="ak" fill="#1a1626"></path><path d="M280.69 380.43c0 17.51 25.33 17.51 25.33 0-.01-16.26-25.33-16.26-25.33 0" class="aj" fill="#613f34"></path><path d="M283.19 386.04c0 10.04 20.33 10.04 20.33 0 0-9.31-20.33-9.31-20.33 0" class="am" fill="#7d5037"></path><path d="M288.09 380.71c0 7.28 10.52 7.28 10.52 0 .01-6.73-10.52-6.73-10.52 0" class="ak" fill="#1a1626"></path><path d="M284.51 378.58c0 3.67 5.32 3.67 5.32 0-.01-3.39-5.32-3.39-5.32 0" class="ap" fill="#ab968c"></path><path d="M206.02 380.43c0 17.51 25.32 17.51 25.32 0 0-16.26-25.32-16.26-25.32 0" class="aj" fill="#613f34"></path><path d="M208.52 386.04c0 10.04 20.33 10.04 20.33 0 0-9.33-20.33-9.33-20.33 0" class="am" fill="#7d5037"></path><path d="M213.42 380.71c0 7.25 10.52 7.25 10.52 0 .01-6.76-10.52-6.76-10.52 0" class="ak" fill="#1a1626"></path><path d="M209.84 378.58c0 3.67 5.31 3.67 5.31 0 0-3.4-5.31-3.4-5.31 0" class="ap" fill="#ab968c"></path><path d="M317.09 382.42c0-21.42-44.32-21.42-44.32 3.4 6.34-20.38 37.99-20.38 44.32-3.4m-122.16 0c0-21.42 44.31-21.42 44.31 3.4-6.32-20.38-37.97-20.38-44.31-3.4" class="al" fill="#99a8ae"></path><ellipse cx="447.34" cy="308.76" rx="29.75" ry="29.57" fill="url(#1770301554699-9118112_l)"></ellipse><ellipse cx="394.09" cy="166.97" rx="29.75" ry="29.57" fill="url(#1770301554699-9118112_m)"></ellipse><ellipse cx="64.67" cy="286.5" rx="29.77" ry="29.57" fill="url(#1770301554699-9118112_n)"></ellipse><ellipse cx="92.59" cy="513.02" rx="11.64" ry="11.55" fill="url(#1770301554699-9118112_o)"></ellipse><ellipse cx="188.04" cy="585.61" rx="11.64" ry="11.55" fill="url(#1770301554699-9118112_p)"></ellipse><ellipse cx="323.68" cy="585.61" rx="11.64" ry="11.55" fill="url(#1770301554699-9118112_q)"></ellipse><ellipse cx="419.43" cy="513.02" rx="11.64" ry="11.55" fill="url(#1770301554699-9118112_r)"></ellipse><path d="M34.92 108.33c-.15-2.4 1.12-3.64 3.39-3.64h13.51c2.12 0 3.32 1.25 3.69 3.48.97 8.48 6.18 11.78 14.25 11.78 9.16 0 14.51-4.25 14.51-12.68V38.4c0-2.23 1.27-3.49 3.54-3.49h13.41c2.26 0 3.51 1.25 3.51 3.49v68.88c0 22.19-16.94 32.36-34.98 32.36s-33.28-9.18-34.83-31.3Zm442.16 481.52c.16 2.39-1.12 3.64-3.39 3.64h-13.5c-2.13 0-3.32-1.25-3.69-3.49-.97-8.48-6.17-11.79-14.25-11.79-9.15 0-14.51 4.25-14.51 12.7v68.88c0 2.23-1.27 3.49-3.53 3.49H410.8c-2.28 0-3.54-1.25-3.54-3.49v-68.88c0-22.19 16.94-32.36 34.98-32.36s33.28 9.17 34.83 31.3Z" fill="#302c3b"></path><path d="M199.24 426.91c0 10.82 13.54 10.82 13.54 0 0-10.1-13.54-10.1-13.54 0" class="ao" fill="#e81c27"></path><path d="M256.06 437.74c-12.68-12.24-27.04 7.41-52.43-14.98 4.86 13.07 13.04 13.72 20.29 24.25 8.7 12.66 15.62 16.12 32.14 16.12s23.44-3.46 32.14-16.12c7.25-10.53 15.41-11.18 20.29-24.25-25.39 22.39-39.75 2.73-52.43 14.98" class="ao" fill="#e81c27"></path><path d="M299.36 426.91c0 10.82 13.52 10.82 13.52 0 0-10.1-13.54-10.1-13.52 0" class="ao" fill="#e81c27"></path><path d="M224.64 439.61c15.63 18.66 47.2 18.72 62.87 0-16.62 1.04-46.09 1.07-62.87 0" class="ak" fill="#1a1626"></path><path d="M230.43 442.08c12.74 12.1 38.49 12.16 51.3 0-13.57.66-37.62.69-51.3 0" class="an" fill="#fff"></path></g></svg>
