<svg xmlns="http://www.w3.org/2000/svg" data-name="Layer 1" style="" viewBox="0 0 512 494.93"><g><defs><linearGradient id="1770301555156-928775_b" x1="-72.06" x2="-72.06" y1="-26.46" y2="361.08" gradientTransform="scale(1 -1) rotate(45 637.437 332.664)" gradientUnits="userSpaceOnUse"><stop offset="0" stop-color="#ffd94d"></stop><stop offset="1" stop-color="#f5af31"></stop></linearGradient><linearGradient id="1770301555156-928775_c" x1="129.01" x2="129.01" y1="-6.81" y2="344.71" gradientTransform="scale(1 -1) rotate(45 637.437 332.664)" gradientUnits="userSpaceOnUse"><stop offset="0" stop-color="#ffc55e"></stop><stop offset="1" stop-color="#ffd94d"></stop></linearGradient><linearGradient id="1770301555156-928775_d" x1="130.75" x2="206.74" y1="143.93" y2="219.92" gradientTransform="scale(1 -1) rotate(45 637.437 332.664)" gradientUnits="userSpaceOnUse"><stop offset="0" stop-color="#e09500"></stop><stop offset=".47" stop-color="#ffe173"></stop><stop offset=".55" stop-color="#fddd6d"></stop><stop offset=".66" stop-color="#f8d15b"></stop><stop offset=".79" stop-color="#f0bd3d"></stop><stop offset=".94" stop-color="#e5a214"></stop><stop offset="1" stop-color="#e09500"></stop></linearGradient><linearGradient id="1770301555156-928775_e" x1="-184.2" x2="-184.2" y1="136.1" y2="173.38" gradientTransform="scale(1 -1) rotate(45 637.437 332.664)" gradientUnits="userSpaceOnUse"><stop offset="0" stop-color="#ffd94d"></stop><stop offset="1" stop-color="#d68e00"></stop></linearGradient><linearGradient id="1770301555156-928775_f" x1="-204.44" x2="-204.44" y1="198.55" y2="241.21" gradientTransform="scale(1 -1) rotate(45 637.437 332.664)" gradientUnits="userSpaceOnUse"><stop offset="0" stop-color="#ffd94d"></stop><stop offset="1" stop-color="#d68e00"></stop></linearGradient><linearGradient id="1770301555156-928775_g" x1="16.17" x2="205.09" y1="90.64" y2="279.55" gradientTransform="scale(1 -1) rotate(45 637.437 332.664)" gradientUnits="userSpaceOnUse"><stop offset="0" stop-color="#e09500"></stop><stop offset=".47" stop-color="#ffe173"></stop><stop offset=".55" stop-color="#fddd6d"></stop><stop offset=".66" stop-color="#f8d15b"></stop><stop offset=".79" stop-color="#f0bd3d"></stop><stop offset=".94" stop-color="#e5a214"></stop><stop offset="1" stop-color="#e09500"></stop></linearGradient></defs><path d="M268.37 42.21c-36.33 36.72-48.95 88.28-37.91 135.32h-.02c1.76 8.37 3.97 19.74-.9 24.65C169.05 263.3 55.59 377.33 1.82 431.65l-.46 19.17s8.65 13.7-1.36 43.62c0 2.09 28.13-3.17 54.98-3.44 0 0 82.1-77.7 198.78-198.61 1.25-1.29 27.94 27.58 29.09 26.44 15.85-15.85 12.38-18.59 24.89-31.23 6.8-6.89 16.09-4.79 33.94-1.96 45.09 8.94 93.61-4.25 128.52-39.51 55.74-56.31 55.74-147.59 0-203.9-55.74-56.29-146.07-56.29-201.82 0Zm166.99 81.16c-12.57 12.69-32.93 12.69-45.48 0-12.57-12.67-12.56-33.25 0-45.95a31.907 31.907 0 0 1 45.48.02c12.54 12.68 12.54 33.26 0 45.94Z" fill="url(#1770301555156-928775_b)"></path><path d="M277.75 51.7c-25.62 25.88-38.24 59.93-37.88 93.87l128.06 129.35c33.59.36 67.28-12.38 92.9-38.26 50.58-51.07 50.58-133.9 0-184.95C410.26.63 328.31.63 277.75 51.71Zm157.61 71.67c-12.57 12.69-32.93 12.69-45.48 0-12.57-12.67-12.56-33.25 0-45.95a31.907 31.907 0 0 1 45.48.02c12.54 12.68 12.54 33.26 0 45.94Z" fill="url(#1770301555156-928775_c)"></path><path d="M384.78 72.28c-15.39 15.53-15.38 40.71 0 56.25 15.37 15.55 40.28 15.55 55.67 0 15.37-15.53 15.38-40.71 0-56.26-15.39-15.53-40.3-15.52-55.67 0Zm49.78 50.29c-12.13 12.25-31.8 12.25-43.9 0-12.13-12.25-12.13-32.09.02-44.36 12.09-12.25 31.76-12.25 43.88 0 12.13 12.27 12.13 32.12 0 44.36" fill="url(#1770301555156-928775_d)"></path><path d="M283.96 259.76c18.68-18.87 37.64.28 18.97 19.17-10.72 10.82-44.7 45.14-48.5 49-1.67 1.69-20.92-.67-21.98.42-3.17 3.17-9.63 9.73-12.8 12.92-1.25 1.25-2.48 24.31-4.72 26.56-2.59 2.61-16.35 2.43-17.6 3.69-2.07 2.1-10.96 11.07-12.12 12.24-.74.75.11 9.34-2.38 11.84-2.65 2.69-23.47 3.32-24.87 4.74-2.26 2.27-7.65 7.71-9.87 9.97-1.16 1.18-2.57 23.62-3.95 25.04-2.31 2.35-25.1 8.35-26.26 9.51-2.44 2.42-6.56 6.61-8.95 9.07-1.27 1.24-4.45 17.44-6.2 19.22-2.24 2.27-17.35 2.98-21.32 5.96-1.19.87-9.02 13.29-10.06 13.06-7.77-1.72-16.36-1.17-16.36-1.17s222.65-224.81 228.98-231.24Z" fill="url(#1770301555156-928775_e)"></path><path d="M258.13 233.67 0 494.44l1.36-43.62S228.4 221.45 237.23 212.56c19.16-19.36 40.06 1.76 20.9 21.11" fill="url(#1770301555156-928775_f)"></path><path d="M462.81 238.65c-25.34 25.6-59.06 39.49-94.92 39.12l-1.16-.02-129.68-131v-1.16c-.38-36.25 13.36-70.32 38.72-95.91 51.58-52.09 135.48-52.09 187.03 0 51.61 52.11 51.61 136.87.02 188.97Zm-93.73 33.43c33.92.05 65.78-13.22 89.75-37.46 49.37-49.89 49.37-131.04 0-180.92-49.38-49.89-129.71-49.89-179.06 0-24 24.23-37.14 56.4-37.09 90.67z" fill="url(#1770301555156-928775_g)"></path></g></svg>
