<svg xmlns="http://www.w3.org/2000/svg" data-name="Layer 1" style="" viewBox="0 0 512 698.18"><g><defs><linearGradient id="1770301554717-7639087_b" x1="162.91" x2="372.36" y1="537.27" y2="537.27" gradientTransform="matrix(1 0 0 -1 0 700.18)" gradientUnits="userSpaceOnUse"><stop offset="0" stop-color="#ff000e"></stop><stop offset=".73" stop-color="#dd0004"></stop><stop offset="1" stop-color="#cf0000"></stop></linearGradient><linearGradient id="1770301554717-7639087_c" x1="279.27" x2="512" y1="537.27" y2="537.27" gradientTransform="matrix(1 0 0 -1 0 700.18)" gradientUnits="userSpaceOnUse"><stop offset="0" stop-color="#005687"></stop><stop offset=".26" stop-color="#0b669b"></stop><stop offset=".74" stop-color="#1c7fbb"></stop><stop offset="1" stop-color="#2289c7"></stop></linearGradient><linearGradient id="1770301554717-7639087_d" x1="221.09" x2="442.18" y1="537.27" y2="537.27" gradientTransform="matrix(1 0 0 -1 0 700.18)" gradientUnits="userSpaceOnUse"><stop offset=".33" stop-color="#eef2f5"></stop><stop offset=".65" stop-color="#e4e8ea"></stop><stop offset="1" stop-color="#d4d7d9"></stop></linearGradient><linearGradient id="1770301554717-7639087_e" x1="139.64" x2="349.09" y1="537.27" y2="537.27" gradientTransform="matrix(1 0 0 -1 0 700.18)" gradientUnits="userSpaceOnUse"><stop offset="0" stop-color="#005687"></stop><stop offset=".26" stop-color="#0b669b"></stop><stop offset=".74" stop-color="#1c7fbb"></stop><stop offset="1" stop-color="#2289c7"></stop></linearGradient><linearGradient id="1770301554717-7639087_f" x1="0" x2="221.09" y1="537.27" y2="537.27" gradientTransform="matrix(1 0 0 -1 0 700.18)" gradientUnits="userSpaceOnUse"><stop offset="0" stop-color="#cf0000"></stop><stop offset=".27" stop-color="#dd0004"></stop><stop offset="1" stop-color="#ff000e"></stop></linearGradient><linearGradient id="1770301554717-7639087_h" x1="208.16" x2="208.16" y1="109.17" y2="432.13" gradientTransform="matrix(1.14 0 0 -1.14 18.1 819.69)" gradientUnits="userSpaceOnUse"><stop offset="0" stop-color="#ffe600"></stop><stop offset=".12" stop-color="#ffe71e"></stop><stop offset=".3" stop-color="#ffe943"></stop><stop offset=".48" stop-color="#ffea60"></stop><stop offset=".66" stop-color="#ffea74"></stop><stop offset=".83" stop-color="#ffeb81"></stop><stop offset="1" stop-color="#ffeb85"></stop></linearGradient><radialGradient id="1770301554717-7639087_g" cx="174.55" cy="537.27" r="136.94" fx="174.55" fy="537.27" gradientTransform="matrix(1 0 0 -1 0 700.18)" gradientUnits="userSpaceOnUse"><stop offset=".33" stop-color="#eef2f5"></stop><stop offset=".65" stop-color="#e4e8ea"></stop><stop offset="1" stop-color="#d4d7d9"></stop></radialGradient><radialGradient id="1770301554717-7639087_i" cx="476.45" cy="769.22" r="147.66" fx="476.45" fy="769.22" gradientTransform="matrix(.80975 .80244 1.61957 -1.60494 -1372.35 1360.83)" gradientUnits="userSpaceOnUse"><stop offset=".16" stop-color="#fad103"></stop><stop offset=".35" stop-color="#f9cd09"></stop><stop offset=".61" stop-color="#f7c31a"></stop><stop offset=".9" stop-color="#f4b235"></stop><stop offset="1" stop-color="#f2ab41"></stop></radialGradient></defs><path d="M302.55 0 162.91 325.82h58.18L372.36 0z" fill="url(#1770301554717-7639087_b)"></path><path d="M442.18 0 279.27 325.82h69.82L512 0z" fill="url(#1770301554717-7639087_c)"></path><path d="M372.36 0 221.09 325.82h58.18L442.18 0z" fill="url(#1770301554717-7639087_d)"></path><path d="M349.09 302.55H162.91s-46.55 0-46.55 46.55v46.55h23.27V349.1c0-23.27 23.27-23.27 23.27-23.27h186.18s23.27 0 23.27 23.27v46.55h23.27V349.1c0-46.55-46.55-46.55-46.55-46.55Z" class="w" fill="#f9b700"></path><path d="M209.45 0h-69.81l139.63 325.82h69.82z" fill="url(#1770301554717-7639087_e)"></path><path d="M69.82 0H0l162.91 325.82h58.18z" fill="url(#1770301554717-7639087_f)"></path><path d="M221.09 325.82h58.18L139.64 0H69.82z" fill="url(#1770301554717-7639087_g)"></path><ellipse cx="256" cy="513.63" class="s" rx="186.18" ry="184.55" fill="#d47706"></ellipse><ellipse cx="256" cy="510.37" rx="186.18" ry="184.55" fill="url(#1770301554717-7639087_h)"></ellipse><path d="M256 339.67c93.21 0 168.73 74.94 168.73 167.21S349.21 674.09 256 674.09 87.27 599.15 87.27 506.88 162.79 339.67 256 339.67" class="s" fill="#d47706"></path><path d="M256 343.16c93.21 0 168.73 74.94 168.73 167.21S349.21 677.58 256 677.58 87.27 602.64 87.27 510.37 162.79 343.16 256 343.16" fill="url(#1770301554717-7639087_i)"></path><path d="M347.11 483.72 389 466.85h-91.92l-12.92 16.87zm-119.27 0-12.92-16.87H123l41.89 16.87z" fill="#ffe12c"></path><path d="m284.16 483.72 12.92-16.87L256 365.15v83.2z" class="v" fill="#f59e01"></path><path d="m289.28 523.64 33.16 11.28L389 466.85l-41.89 16.87z" fill="#ea8800"></path><path d="M256 548.89v36.88l82.15 45.39-41.07-59.47z" class="w" fill="#f9b700"></path><path d="m222.84 523.64-33.28 11.28-15.71 96.24 41.07-59.47zM256 448.35v-83.2l-41.08 101.7 12.92 16.87z" fill="#feec9a"></path><path d="m289.28 523.64 7.8 48.05 41.07 59.47-15.71-96.24zm-74.36 48.05-41.07 59.47L256 585.77v-36.88z" class="v" fill="#f59e01"></path><path d="M164.89 483.72 123 466.85l66.56 68.07 33.28-11.28z" class="w" fill="#f9b700"></path><path d="M347.11 483.72h-62.95L256 411.34l-28.16 72.38h-62.95l45.61 43.99-10.71 65.98 56.2-31.07 56.32 31.07-10.82-65.98 45.61-43.99Z" fill="#fad103"></path></g></svg>
