<svg xmlns="http://www.w3.org/2000/svg" data-name="Layer 1" style="" viewBox="0 0 512 511.99"><g><defs><linearGradient id="1770301555167-7421555_b" x1="274.67" x2="512.74" y1="110.87" y2="110.87" gradientTransform="matrix(1 0 0 -1 -.74 512.2)" gradientUnits="userSpaceOnUse"><stop offset="0" stop-color="#ecf1f5"></stop><stop offset=".41" stop-color="#e9eef3"></stop><stop offset=".72" stop-color="#e0e6eb"></stop><stop offset=".99" stop-color="#d0d8dd"></stop><stop offset="1" stop-color="#cfd8dd"></stop></linearGradient><linearGradient id="1770301555167-7421555_c" x1="2.5" x2="220.34" y1="393.16" y2="393.16" gradientTransform="matrix(1 0 0 -1 -.74 512.2)" gradientUnits="userSpaceOnUse"><stop offset="0" stop-color="#cfd8dd"></stop><stop offset="0" stop-color="#d0d8dd"></stop><stop offset=".28" stop-color="#e0e6eb"></stop><stop offset=".59" stop-color="#e9eef3"></stop><stop offset="1" stop-color="#ecf1f5"></stop></linearGradient></defs><path d="M464.53 174.64c-48.25-44.07-334.23 71.01-448.49 140.03-3.1 14.52-6.22 28.85-9.68 42.85 49.91 45.59 104.34 100.65 154.22 146.24 174.98-98.56 309.75-271.52 309.75-271.52-2.39-19.52-2.9-37.74-5.8-57.61Z" class="g" fill="#529320"></path><path d="M161.31 490.7C100.61 433.5 8.48 348.8 8.48 348.8s107.1 102.94 152.5 147.74c190.15-111.4 307.58-275.67 307.58-275.67S322.79 405.42 161.3 490.7Z" class="h" fill="#447a1b"></path><path d="M162.02 477.7C98.11 417.67 11.4 338.8 11.4 338.8s85.43 82.62 150.31 144.61c191.88-110.8 305.25-275.84 305.25-275.84S340.34 379.83 162.02 477.69Z" class="h" fill="#447a1b"></path><path d="M162.92 461.55C98.72 403.21 14.6 326.58 14.6 326.58s84.51 80.78 147.98 141.21C352.6 361.44 465.56 191.62 465.56 191.62S343.63 363.98 162.93 461.55Z" class="h" fill="#447a1b"></path><path d="M163.58 449.4c-49.19-44.89-98.36-89.79-147.55-134.72 122.19-69.05 225.32-163.21 300.93-274.76 49.19 44.89 98.38 89.78 147.57 134.72-75.62 111.57-178.75 205.71-300.94 274.76Z" fill="#92c932"></path><path d="M151.92 418.56c-32.54-29.7-65.05-59.38-97.55-89.08 1.99-1.17 3.99-2.36 5.97-3.53 6.58-3.87 7.47-11.17 2.08-16.07-1.6-1.5-3.25-2.99-4.86-4.47 98.3-60.47 182.99-137.79 249.23-227.57 1.61 1.48 3.25 2.97 4.86 4.45 5.38 4.91 13.35 4.09 17.61-1.91 1.28-1.82 2.59-3.66 3.87-5.48 32.52 29.7 65.05 59.4 97.57 89.08-1.28 1.82-2.59 3.64-3.87 5.47-4.27 6-3.48 14.81 1.91 19.74 1.62 1.5 3.25 3 4.87 4.45-66.22 89.78-150.93 167.12-249.24 227.62q-2.445-2.25-4.86-4.5c-5.37-4.88-15.05-5.61-21.6-1.72-2.01 1.19-4 2.36-6 3.52Zm-76.49-87.83c26.42 24.12 52.85 48.26 79.27 72.38 10.1-3.4 21.96-2.6 30.95 2.31 89.97-57.07 168.15-128.49 230.7-210.67-5.38-8.18-6.28-19.02-2.55-28.24-26.44-24.13-52.86-48.26-79.28-72.4-7.29 6-17.17 6.96-25.48 2.65-62.55 82.17-140.73 153.58-230.73 210.67 4.73 7.59 3.68 16.63-2.87 23.3Z" class="g" fill="#529320"></path><path d="M262.12 211.14c13.12 0 24.71 4.51 34.48 13.45 14.46 13.21 18.88 28.51 12.77 44.26-8.35 21.54-33.6 37.79-58.73 37.79-14.43 0-27.97-5.4-39.17-15.62-12.71-11.61-16.25-25-10.51-39.78 8.71-22.49 35.59-40.11 61.17-40.11m-.01-12.79c-52.67 0-104.52 60.8-59.28 102.14 14.64 13.36 31.45 18.97 47.8 18.97 53.73 0 102.68-60.4 54.6-104.3-12.94-11.83-28.07-16.8-43.12-16.8Z" class="g" fill="#529320"></path><path d="M168.6 380.9c-14.67-13.39 11.15-34.91 25.81-21.51 15.81 14.44-10 35.94-25.81 21.51m-60.52-55.73c-14.68-13.4 11.14-34.92 25.8-21.51 15.8 14.43-9.99 35.94-25.8 21.51m261.85-121.44c-18.46-7.36-1.91-36.59 16.54-29.24 19.9 7.93 3.35 37.17-16.54 29.24m-60.33-57.42c-18.8-6.42-3.76-36.45 15.04-30.05 20.27 6.88 5.23 36.92-15.04 30.05" fill="#7ab51d"></path><path d="M164.66 210.37s64.77 75.69 147.32 134.97c22.13-17.17 38.45-34.99 38.45-34.99C294.98 243.09 202.32 176 202.32 176c-17.56 15.28-37.66 34.36-37.66 34.36Z" fill="#ecf1f5"></path><path d="M311.98 345.35 164.66 210.37l-9.08 7.71 146.93 135.26zm38.44-34.98 8.77-8.78-147.75-134.54-9.13 8.97z" fill="#ffe12c"></path><path d="M512 506.5c-55.34 13.41-80.46-13.54-80.46-13.54-45.3 21.5-80.29-21.15-80.29-21.15-94.06-19.91-34.02-116.28-77.32-165.27C434.51 238.86 418.01 432.41 512 506.5" fill="url(#1770301555167-7421555_b)" fill-rule="evenodd"></path><path d="M370.66 414.2c43.56 79.41 99.11 101.19 141.34 92.3-74.39 25.24-116.82-41.79-141.34-92.3" class="l" fill-rule="evenodd" fill="#b3c2c6"></path><path d="M323.8 387.49c15.76 92.56 62.23 118.36 105.38 106.54-56.29 28.02-105.44-37-105.38-106.54" class="l" fill-rule="evenodd" fill="#b3c2c6"></path><path d="M292.22 364.35c.32 63.44 14.08 92.87 58.4 107.33-60.98-7.73-60.92-54.96-58.4-107.33" class="l" fill-rule="evenodd" fill="#b3c2c6"></path><path d="M205.48 238.08c-49-43.3-145.39 16.68-165.28-77.34 0 0-42.64-34.99-21.16-80.27 0 0-26.96-25.09-13.54-80.47 74.12 94.03 267.65 77.53 199.99 238.08Z" fill-rule="evenodd" fill="url(#1770301555167-7421555_c)"></path><path d="M97.81 141.34C18.41 97.79-3.38 42.25 5.5 0c-25.24 74.4 41.82 116.81 92.31 141.34" class="l" fill-rule="evenodd" fill="#b3c2c6"></path><path d="M124.48 188.2C31.97 172.43 6.16 125.98 17.95 82.82c-28.01 56.31 37.01 105.45 106.53 105.39Z" class="l" fill-rule="evenodd" fill="#b3c2c6"></path><path d="M147.67 219.8c-63.45-.34-92.89-14.11-107.33-58.43 7.71 60.97 54.95 60.93 107.33 58.43" class="l" fill-rule="evenodd" fill="#b3c2c6"></path></g></svg>
