<svg xmlns="http://www.w3.org/2000/svg" data-name="Layer 1" style="" viewBox="0 0 512 640"><g><defs><linearGradient id="1770301555175-1016038_b" x1="488.33" x2="329.55" y1="540.86" y2="434.73" gradientTransform="matrix(1 0 0 -1 0 642)" gradientUnits="userSpaceOnUse"><stop offset="0" stop-color="#4e5e67"></stop><stop offset=".04" stop-color="#5b6a72"></stop><stop offset=".19" stop-color="#859198"></stop><stop offset=".35" stop-color="#a8b1b7"></stop><stop offset=".51" stop-color="#c3cbd0"></stop><stop offset=".67" stop-color="#d7dde1"></stop><stop offset=".83" stop-color="#e2e7ec"></stop><stop offset="1" stop-color="#e6ebef"></stop></linearGradient><linearGradient id="1770301555175-1016038_c" x1="23.11" x2="-57.32" y1="54.83" y2="135.26" gradientTransform="matrix(0 -1 -1 0 503.06 111.32)" gradientUnits="userSpaceOnUse"><stop offset="0" stop-color="#d3d7db"></stop><stop offset=".02" stop-color="#d6dade"></stop><stop offset=".16" stop-color="#e9ebed"></stop><stop offset=".32" stop-color="#f5f6f7"></stop><stop offset=".54" stop-color="#fdfdfd"></stop><stop offset="1" stop-color="#fff"></stop></linearGradient></defs><path d="M512 640V231.49C512 162.61 368.46 0 329.25 0H0v640z" fill="#e6ebef"></path><path d="M329.25.16C366.01.16 512 145.28 512 231.49V464S-58.44 390.72 73.11 0z" fill="url(#1770301555175-1016038_b)"></path><path d="M53.33 74.67h128v10.67h-128zm0 85.33h405.33v10.67H53.33zm0 42.67h405.33v10.67H53.33zm0 42.66h405.33V256H53.33zm0 42.67h405.33v10.67H53.33zm0 42.67h352v10.67h-352zm0 85.33h224v10.67h-224zm0 42.67h405.33v10.67H53.33zm0 42.66h405.33V512H53.33zm0 42.67H192v10.67H53.33zm0 42.67h64v10.67h-64z" fill="#99a8ae"></path><path d="M329.25.16C378.23.16 512 138.18 512 231.49c0 0-14.67-88.86-151.54-70.2C377.33 54.62 346.01 2.61 329.25.16" fill="url(#1770301555175-1016038_c)"></path></g></svg>
