<svg xmlns="http://www.w3.org/2000/svg" data-name="Layer 1" style="" viewBox="0 0 512 512"><g><defs><linearGradient id="1770301555176-6243661_b" x1="312" x2="312" y1="1104" y2="1616" gradientTransform="translate(-56 -1104)" gradientUnits="userSpaceOnUse"><stop offset="0" stop-color="#00c9ff"></stop><stop offset=".5" stop-color="#5d2dff"></stop><stop offset="1" stop-color="#f600ff"></stop></linearGradient></defs><path d="M256 0C114.63 0 0 114.61 0 256s114.63 256 256 256 256-114.64 256-256S397.36 0 256 0m25.6 303.09 107.96 107.96c-29.76 25.68-66.97 42.85-107.96 47.99zm-51.2 155.94c-41-5.13-78.19-22.31-107.96-47.99L230.4 303.08v155.96ZM51.2 256c0-104.42 78.22-190.4 179.2-203.03v177.69L88.06 373C64.88 339.83 51.2 299.55 51.2 256.01Zm372.74 117L281.6 230.67V52.97C382.6 65.6 460.8 151.58 460.8 256c0 43.54-13.69 83.82-36.86 117" fill="url(#1770301555176-6243661_b)"></path></g></svg>
