<svg xmlns="http://www.w3.org/2000/svg" data-name="Layer 1" style="" viewBox="0 0 512 546.13"><g><defs><radialGradient id="1770301555178-8759950_c" cx="256" cy="191.72" r="348.27" fx="256" fy="191.72" gradientTransform="matrix(1 0 0 -.72 0 334.25)" gradientUnits="userSpaceOnUse"><stop offset="0" stop-color="#fff"></stop><stop offset=".27" stop-color="#f8f9fa"></stop><stop offset=".67" stop-color="#e4e9ec"></stop><stop offset="1" stop-color="#cfd8dd"></stop></radialGradient><linearGradient id="1770301555178-8759950_b" x1="221.87" x2="290.13" y1="275.07" y2="275.07" gradientTransform="matrix(1 0 0 -1 0 548.13)" gradientUnits="userSpaceOnUse"><stop offset="0" stop-color="#dba57b"></stop><stop offset=".31" stop-color="#d49e75"></stop><stop offset=".78" stop-color="#bf8c66"></stop><stop offset="1" stop-color="#b3815d"></stop></linearGradient></defs><path d="M226.13 546.13c-2.3 0-4.27-3.5-4.27-7.77V7.85c.01-4.35 1.97-7.85 4.27-7.85h59.73c2.39 0 4.27 3.5 4.27 7.85v530.52c0 4.27-1.96 7.77-4.27 7.77h-59.73Z" fill="url(#1770301555178-8759950_b)"></path><path d="M232.87 546.13h17.83c-1.11-53.16-1.88-119.55-1.88-191.83 0-174.17 4.01-315.31 8.96-315.31 1.45 0 2.73 11.52 3.93 31.91.26-25.69.68-49.41 1.19-70.91h-15.62c1.02 41.81 1.54 91.65 1.54 145.32 0 147.03-4.27 266.15-9.56 266.15s-9.56-119.13-9.56-266.15c.02-53.66.61-103.5 1.55-145.31h-5.12c-2.3 0-4.27 3.5-4.27 7.85v275.37c6.91 11.52 12.2 90.62 12.2 186.54 0 27.22-.43 52.99-1.19 76.37m37.3-160.34c-1.28 0-2.47-7.34-3.58-20.39-.09 68.01-.77 130.3-1.88 180.74h14.42c-.09-11.35-.17-23.13-.17-35.41 0-83.37 1.96-151.04 4.35-150.95 2.39 0 4.35 67.58 4.35 151.04 0 12.03-.09 23.47-.17 34.56 1.45-1.28 2.47-3.93 2.47-7V7.85c.17-4.35-1.7-7.85-4.09-7.85h-8.28c.94 39.59 1.54 87.38 1.54 139.01 0 136.28-4.01 246.78-8.96 246.78" style="isolation:isolate" fill="#472e27" opacity=".1"></path><path d="M512 349.87c0 4.69-3.84 8.53-8.53 8.53H8.53c-4.69 0-8.53-3.84-8.53-8.53V42.67c0-4.69 3.84-8.53 8.53-8.53h494.93c4.69 0 8.53 3.84 8.53 8.53v307.2Z" fill="url(#1770301555178-8759950_c)"></path></g></svg>
