<svg xmlns="http://www.w3.org/2000/svg" data-name="Layer 1" style="" viewBox="0 0 512 568.89"><g><defs><linearGradient id="1770301555211-3594240_b" x1="298.41" x2="298.41" y1="2" y2="570.89" gradientTransform="matrix(1 0 0 -1 0 570.89)" gradientUnits="userSpaceOnUse"><stop offset="0" stop-color="#c1cccf"></stop><stop offset=".51" stop-color="#d6dee1"></stop><stop offset="1" stop-color="#e6ebef"></stop></linearGradient><linearGradient id="1770301555211-3594240_c" x1="0" x2="226.95" y1="364.31" y2="364.31" gradientTransform="matrix(1 0 0 -1 0 570.89)" gradientUnits="userSpaceOnUse"><stop offset="0" stop-color="#e6ebef"></stop><stop offset="1" stop-color="#c1cccf"></stop></linearGradient><linearGradient id="1770301555211-3594240_d" x1="65.03" x2="153.7" y1="365.59" y2="365.59" gradientTransform="matrix(1 0 0 -1 0 570.89)" gradientUnits="userSpaceOnUse"><stop offset="0" stop-color="#a89588"></stop><stop offset=".1" stop-color="#9d8a7d"></stop><stop offset=".49" stop-color="#786557"></stop><stop offset=".8" stop-color="#614e40"></stop><stop offset="1" stop-color="#594638"></stop></linearGradient></defs><path d="m129.72 385.03 264.55-28.42C336.19 12.76 75.37 41.72 129.72 385.03" fill="#b3c2c6"></path><path d="M496.12 248.87C505.51 76.69 426.78-5.96 341.3.33 274.05 5.28 84.82 29.25 84.82 29.25c156.94 26.62 154.47 210.1 145.83 334.23-8.17 117.38 6.31 205.41 6.31 205.41s29.21-11.06 39.41-12.85c6.5-1.15 21.9 1.08 28.44.29 9.12-1.09 8.5-4.34 17.48-6.22 7.65-1.6 36.45-8.3 41.19-6.22l5.03-7.26 1.19 5.77c11.56-5.63 83.33-15.56 88.59-16.89 1.24-.31 3.71-12.59 3.71-12.59l1.78 10.96c5.39-1.13 48.19-12.41 48.19-12.41s-24.9-97.11-15.88-262.61Z" fill="url(#1770301555211-3594240_b)"></path><path d="M225.02 195.36C213.57 96.99 154.37 22.27 92.76 28.48 31.14 34.67-9.52 119.43 1.93 217.8c11.44 98.37 70.65 173.09 132.26 166.88 61.62-6.19 102.28-90.95 90.83-189.32" fill="url(#1770301555211-3594240_c)"></path><path d="M62.87 211.23c1.92 41.04 24.2 67.47 54.85 69.22 25.65 1.46 42.39-37.73 37.67-78.52-5.21-45.01-30.62-76-55.88-71.38-27.55 5.03-38.82 34.07-36.64 80.67Z" fill="#a89588"></path><path d="M65.28 210.93c1.81 38.89 22.93 63.93 51.97 65.59 24.3 1.38 40.16-35.75 35.7-74.4-4.94-42.65-29.01-72.02-52.95-67.64-26.11 4.79-36.78 32.29-34.71 76.45Z" fill="url(#1770301555211-3594240_d)"></path><path d="M172.04 257.49c7.59-14.17 7.59-61.15 0-75.29 4.63 18.95 4.63 56.34 0 75.29M49.46 189.78c-6.63 16.3 3.95 62.92 16.97 74.74-10.27-17.45-18.7-54.56-16.97-74.74m3-91.23c-12.34 12.35-26.9 61.18-23.33 78.27 1.01-21.15 12.6-60.04 23.33-78.27m130.9 30.46c-2.76-20.74-41.07-63.08-61.42-67.88 20.84 12.23 51.33 45.94 61.42 67.88m-120 202.73c4.23 11.87 32.16 32.27 44.74 32.68-13.82-4.73-36.04-20.95-44.74-32.68m48.85-1.13c10.3 7.71 35.85.92 40.95-10.88-8.72 8.68-29.06 14.11-40.95 10.88m1.29-213.22c-8.72-9.65-30.17-5.26-34.38 7.05 7.27-8.5 24.34-11.98 34.38-7.05m181.01-3.05c-14.34-.72-59.51 8.43-72.42 14.68 17.79-5.83 53.76-13.11 72.42-14.68m16.55-8.88c-14.28-1.44-59.87 5.4-73.06 10.99 18.05-4.91 54.35-10.37 73.06-10.99M452.7 265.11c-17.33-2.6-73.37 3.09-89.81 9.14 22.34-4.95 66.94-9.48 89.81-9.14m21.2-8.81c-17.19-3.46-73.44-.61-90.16 4.59 22.56-3.81 67.33-6.08 90.16-4.59M369.52 412.99c-20.25-3.03-85.66 3.62-104.86 10.68 26.07-5.77 78.15-11.06 104.86-10.68m24.75-10.26c-20.07-4.05-85.75-.72-105.27 5.36 26.33-4.46 78.61-7.11 105.27-5.36m-35.95-18.48c-20.07-4.04-85.75-.71-105.27 5.36 26.33-4.44 78.61-7.09 105.27-5.36" style="isolation:isolate" fill="#b3c2c6" opacity=".4"></path></g></svg>
