<svg xmlns="http://www.w3.org/2000/svg" data-name="Layer 1" style="" viewBox="0 0 512 768"><g><defs><linearGradient id="1770301555212-9161454_b" x1="76.8" x2="435.2" y1="386" y2="386" gradientTransform="matrix(1 0 0 -1 0 770)" gradientUnits="userSpaceOnUse"><stop offset="0" stop-color="#5b666e"></stop><stop offset=".04" stop-color="#494e59"></stop><stop offset=".08" stop-color="#3b3b48"></stop><stop offset=".12" stop-color="#33303e"></stop><stop offset=".17" stop-color="#302c3b"></stop></linearGradient><linearGradient id="1770301555212-9161454_c" x1="256" x2="256" y1="475.6" y2="296.4" gradientTransform="matrix(1 0 0 -1 0 770)" gradientUnits="userSpaceOnUse"><stop offset="0" stop-color="#ffe72e"></stop><stop offset=".29" stop-color="#ffe52a"></stop><stop offset=".59" stop-color="#ffde1d"></stop><stop offset=".9" stop-color="#ffd209"></stop><stop offset="1" stop-color="#ffcd00"></stop></linearGradient><linearGradient id="1770301555212-9161454_d" x1="256" x2="256" y1="232.4" y2="53.2" gradientTransform="matrix(1 0 0 -1 0 770)" gradientUnits="userSpaceOnUse"><stop offset="0" stop-color="#47de00"></stop><stop offset=".31" stop-color="#45da00"></stop><stop offset=".63" stop-color="#41cd00"></stop><stop offset=".95" stop-color="#38b900"></stop><stop offset="1" stop-color="#37b500"></stop></linearGradient><linearGradient id="1770301555212-9161454_e" x1="162" x2="162" y1="1005.2" y2="1184.4" gradientTransform="translate(94 -954)" gradientUnits="userSpaceOnUse"><stop offset="0" stop-color="#ff3b3b"></stop><stop offset=".26" stop-color="#fb3737"></stop><stop offset=".52" stop-color="#f02b2a"></stop><stop offset=".79" stop-color="#dd1616"></stop><stop offset="1" stop-color="#c90100"></stop></linearGradient></defs><path d="M435.2 742.4c0 14.08-11.52 25.6-25.6 25.6H102.4c-14.08 0-25.6-11.52-25.6-25.6V25.6C76.8 11.52 88.32 0 102.4 0h307.2c14.08 0 25.6 11.52 25.6 25.6z" fill="url(#1770301555212-9161454_b)"></path><path d="M435.2 25.6v51.2L512 51.2V25.6zm0 243.2V320l76.8-25.6v-25.6zm0 243.2v51.2l76.8-25.6V512zM76.8 25.6v51.2L0 51.2V25.6zm0 243.2V320L0 294.4v-25.6zm0 243.2v51.2L0 537.6V512zM177.72 96.29c37.58-59.83 119.08-59.88 156.58.03 8.87 14.14 30.95 1.02 22.03-13.22C308.3 6.42 203.77 6.47 155.7 83.07c-8.96 14.26 13.15 27.38 22.02 13.22m0 243.2c37.58-59.83 119.08-59.88 156.58.03 8.87 14.14 30.95 1.02 22.03-13.22-48.03-76.67-152.55-76.62-200.63-.03-8.96 14.26 13.15 27.38 22.02 13.22m0 243.2c37.58-59.83 119.08-59.88 156.58.03 8.87 14.13 30.95 1.02 22.03-13.22-48.03-76.67-152.55-76.62-200.63-.03-8.96 14.26 13.15 27.38 22.02 13.22" fill="#4e5e67"></path><circle cx="256" cy="384" r="89.6" fill="url(#1770301555212-9161454_c)"></circle><circle cx="256" cy="627.2" r="89.6" fill="url(#1770301555212-9161454_d)"></circle><path d="M345.6 140.8c0 49.48-40.1 89.6-89.6 89.6s-89.6-40.12-89.6-89.6 40.09-89.6 89.6-89.6 89.6 40.13 89.6 89.6" fill="url(#1770301555212-9161454_e)"></path></g></svg>
