<svg xmlns="http://www.w3.org/2000/svg" data-name="Layer 1" style="" viewBox="0 0 512 614.19"><g><defs><linearGradient id="1770301555213-1196202_b" x1="203.58" x2="308.42" y1="54.21" y2="54.21" gradientTransform="matrix(1 0 0 -1 0 616.19)" gradientUnits="userSpaceOnUse"><stop offset="0" stop-color="#ffd94f"></stop><stop offset=".27" stop-color="#fcca3c"></stop><stop offset=".73" stop-color="#f8b523"></stop><stop offset="1" stop-color="#f7ad19"></stop></linearGradient><linearGradient id="1770301555213-1196202_c" x1="134.46" x2="134.46" y1="90.44" y2="442.29" gradientTransform="matrix(1 0 0 -1 0 616.19)" gradientUnits="userSpaceOnUse"><stop offset="0" stop-color="#ffd94f"></stop><stop offset=".35" stop-color="#ffdd59"></stop><stop offset=".95" stop-color="#ffe772"></stop><stop offset="1" stop-color="#ffe875"></stop></linearGradient><linearGradient id="1770301555213-1196202_d" x1="119.36" x2="119.36" y1="69.25" y2="437.89" gradientTransform="matrix(1 0 0 -1 0 616.19)" gradientUnits="userSpaceOnUse"><stop offset="0" stop-color="#f7ad19"></stop><stop offset=".27" stop-color="#f8b523"></stop><stop offset=".73" stop-color="#fcca3c"></stop><stop offset="1" stop-color="#ffd94f"></stop></linearGradient><linearGradient id="1770301555213-1196202_e" x1="40.72" x2="40.72" y1="401.02" y2="546.62" gradientTransform="matrix(1 0 0 -1 0 616.19)" gradientUnits="userSpaceOnUse"><stop offset="0" stop-color="#ffd94f"></stop><stop offset=".35" stop-color="#ffdd59"></stop><stop offset=".95" stop-color="#ffe772"></stop><stop offset="1" stop-color="#ffe875"></stop></linearGradient><linearGradient id="1770301555213-1196202_f" x1="72.39" x2="72.39" y1="427.94" y2="546.84" gradientTransform="matrix(1 0 0 -1 0 616.19)" gradientUnits="userSpaceOnUse"><stop offset="0" stop-color="#f7ad19"></stop><stop offset=".27" stop-color="#f8b523"></stop><stop offset=".73" stop-color="#fcca3c"></stop><stop offset="1" stop-color="#ffd94f"></stop></linearGradient><linearGradient id="1770301555213-1196202_g" x1="-285.16" x2="-285.16" y1="90.44" y2="442.29" gradientTransform="rotate(180 46.19 308.095)" gradientUnits="userSpaceOnUse"><stop offset="0" stop-color="#ffd94f"></stop><stop offset=".35" stop-color="#ffdd59"></stop><stop offset=".95" stop-color="#ffe772"></stop><stop offset="1" stop-color="#ffe875"></stop></linearGradient><linearGradient id="1770301555213-1196202_h" x1="-300.26" x2="-300.26" y1="69.25" y2="437.89" gradientTransform="rotate(180 46.19 308.095)" gradientUnits="userSpaceOnUse"><stop offset="0" stop-color="#f7ad19"></stop><stop offset=".27" stop-color="#f8b523"></stop><stop offset=".73" stop-color="#fcca3c"></stop><stop offset="1" stop-color="#ffd94f"></stop></linearGradient><linearGradient id="1770301555213-1196202_i" x1="-378.9" x2="-378.9" y1="401.02" y2="546.62" gradientTransform="rotate(180 46.19 308.095)" gradientUnits="userSpaceOnUse"><stop offset="0" stop-color="#ffd94f"></stop><stop offset=".35" stop-color="#ffdd59"></stop><stop offset=".95" stop-color="#ffe772"></stop><stop offset="1" stop-color="#ffe875"></stop></linearGradient><linearGradient id="1770301555213-1196202_j" x1="-347.23" x2="-347.23" y1="427.94" y2="546.84" gradientTransform="rotate(180 46.19 308.095)" gradientUnits="userSpaceOnUse"><stop offset="0" stop-color="#f7ad19"></stop><stop offset=".27" stop-color="#f8b523"></stop><stop offset=".73" stop-color="#fcca3c"></stop><stop offset="1" stop-color="#ffd94f"></stop></linearGradient><linearGradient id="1770301555213-1196202_k" x1="232.4" x2="232.4" y1="109.38" y2="517.82" gradientTransform="matrix(1 0 0 -1 0 616.19)" gradientUnits="userSpaceOnUse"><stop offset="0" stop-color="#ffd94f"></stop><stop offset=".35" stop-color="#ffdd59"></stop><stop offset=".95" stop-color="#ffe772"></stop><stop offset="1" stop-color="#ffe875"></stop></linearGradient><linearGradient id="1770301555213-1196202_l" x1="279.6" x2="279.6" y1="109.38" y2="517.82" gradientTransform="matrix(1 0 0 -1 0 616.19)" gradientUnits="userSpaceOnUse"><stop offset=".1" stop-color="#ffd94f"></stop><stop offset=".34" stop-color="#fcca3c"></stop><stop offset=".75" stop-color="#f8b523"></stop><stop offset="1" stop-color="#f7ad19"></stop></linearGradient><linearGradient id="1770301555213-1196202_m" x1="229.85" x2="229.85" y1="482.5" y2="616.19" gradientTransform="matrix(1 0 0 -1 0 616.19)" gradientUnits="userSpaceOnUse"><stop offset="0" stop-color="#ffd94f"></stop><stop offset=".35" stop-color="#ffdd59"></stop><stop offset=".95" stop-color="#ffe772"></stop><stop offset="1" stop-color="#ffe875"></stop></linearGradient><linearGradient id="1770301555213-1196202_n" x1="282.15" x2="282.15" y1="482.5" y2="616.19" gradientTransform="matrix(1 0 0 -1 0 616.19)" gradientUnits="userSpaceOnUse"><stop offset="0" stop-color="#f7ad19"></stop><stop offset=".27" stop-color="#f8b523"></stop><stop offset=".73" stop-color="#fcca3c"></stop><stop offset="1" stop-color="#ffd94f"></stop></linearGradient><linearGradient id="1770301555213-1196202_o" x1="256" x2="256" y1="2" y2="166.09" gradientTransform="matrix(1 0 0 -1 0 616.19)" gradientUnits="userSpaceOnUse"><stop offset="0" stop-color="#ffd94f"></stop><stop offset=".35" stop-color="#ffdd59"></stop><stop offset=".95" stop-color="#ffe772"></stop><stop offset="1" stop-color="#ffe875"></stop></linearGradient></defs><path d="M299.91 604.06c-15.56 13.51-72.27 13.51-87.83 0-19.14-16.69 0-94.28 0-94.28h87.83s19.14 77.59 0 94.28" fill="url(#1770301555213-1196202_b)"></path><path d="M63.86 174.64c35.32 131.95-19.14 121-16.69 208.52 1.74 59.06 44.94 85.88 91.31 98.07 38.08 9.93 66.54.41 74.01-31.12 3.58-15.25 44.12 75.65 34.09 75.65-61.11 0-220.5-7.88-225.61-131.54-3.99-96.33 48.01-103.39 27.23-210.77-2.56-13.31 15.66-8.8 15.66-8.8Z" fill="url(#1770301555213-1196202_c)"></path><path d="M51.78 178.63C84.54 300.96 12.57 305.46 26.5 404.35c16.17 114.34 164.6 107.79 199.41 107.79 15.66 0 16.07 34.8 6.04 34.8-61.11 0-226.54-7.88-231.76-131.54-3.99-96.33 57.02-119.26 36.34-226.54-2.46-13.41 15.25-10.24 15.25-10.24Z" fill="url(#1770301555213-1196202_d)"></path><path d="m16.98 215.17 37.26-26.82s20.27-121 14.23-118.74C53.63 74.93-5.75 146.9 16.98 215.17" fill="url(#1770301555213-1196202_e)"></path><path d="m54.24 188.25 46.06-10.03C59.87 136.76 74.5 67.26 68.46 69.41c-14.84 5.53-36.95 50.67-14.23 118.85Z" fill="url(#1770301555213-1196202_f)"></path><path d="M448.14 174.64c-35.32 131.95 19.14 121 16.69 208.52-1.74 59.06-44.94 85.88-91.31 98.07-38.08 9.93-66.54.41-74.01-31.12-3.58-15.25-44.12 75.65-34.09 75.65 61.11 0 220.5-7.88 225.61-131.54 3.99-96.33-48.01-103.39-27.23-210.77 2.56-13.31-15.66-8.8-15.66-8.8Z" fill="url(#1770301555213-1196202_g)"></path><path d="M460.22 178.63c-32.86 122.33 39.21 126.83 25.28 225.72-16.17 114.34-164.6 107.79-199.41 107.79-15.66 0-16.07 34.8-6.04 34.8 61.11 0 226.54-7.88 231.76-131.54 3.99-96.33-57.02-119.26-36.34-226.54 2.46-13.41-15.25-10.24-15.25-10.24Z" fill="url(#1770301555213-1196202_h)"></path><path d="m495.02 215.17-37.26-26.82s-20.27-121-14.23-118.74c14.84 5.32 74.22 77.29 51.49 145.56" fill="url(#1770301555213-1196202_i)"></path><path d="m457.76 188.25-46.06-10.03c40.43-41.46 25.8-110.96 31.84-108.81 14.84 5.53 36.95 50.67 14.23 118.85Z" fill="url(#1770301555213-1196202_j)"></path><path d="M256 499.34V98.37h-20.37l-26.82 408.44z" fill="url(#1770301555213-1196202_k)"></path><path d="M256 499.34V98.37h20.37l26.82 408.44z" fill="url(#1770301555213-1196202_l)"></path><path d="M256 0v118.33l-52.31 15.35c0 .1 6.35-52.72 52.31-133.69Z" fill="url(#1770301555213-1196202_m)"></path><path d="M256 0v118.33l52.31 15.35c0 .1-6.35-52.72-52.31-133.69Z" fill="url(#1770301555213-1196202_n)"></path><path d="M256 450.1s-23.75 53.03-77.59 61.01C232.25 522.98 256 614.19 256 614.19s23.75-91.21 77.59-103.08C279.75 503.02 256 450.1 256 450.1" fill="url(#1770301555213-1196202_o)"></path></g></svg>
