<svg xmlns="http://www.w3.org/2000/svg" data-name="Layer 1" style="" viewBox="0 0 512 512.02"><g><defs><linearGradient id="1770301555214-8476734_b" x1="-416.67" x2="-471.34" y1="1025.15" y2="1148.25" gradientTransform="matrix(2.63736 1.22982 1.17065 -2.51047 102.93 3598.689)" gradientUnits="userSpaceOnUse"><stop offset="0" stop-color="#db0100"></stop><stop offset=".58" stop-color="#f31317"></stop><stop offset="1" stop-color="#ff1c23"></stop></linearGradient><linearGradient id="1770301555214-8476734_c" x1="-689.84" x2="-660.02" y1="980.06" y2="1047.2" gradientTransform="matrix(2.63736 -1.22982 -1.17065 -2.51047 3363.339 1817.9)" gradientUnits="userSpaceOnUse"><stop offset="0" stop-color="#db0100"></stop><stop offset=".58" stop-color="#f31317"></stop><stop offset="1" stop-color="#ff1c23"></stop></linearGradient></defs><path d="M229.9 236.51C217.45 128.95 59.95 95.25 11.01 200.21c-32.84 70.4 10.83 148.12 90.41 311.81 176.54-44.25 264.19-60.73 297.03-131.14 48.94-104.96-78.15-203.95-168.56-144.36Z" fill="url(#1770301555214-8476734_b)"></path><path d="M386.59 54.54c-49.3-32.5-118.6 21.49-91.91 78.73 17.9 38.4 65.68 47.41 161.97 71.54C500.07 115.53 523.9 73.14 506 34.73 479.31-22.51 393.39-4.12 386.59 54.54" fill="url(#1770301555214-8476734_c)"></path></g></svg>
