<svg xmlns="http://www.w3.org/2000/svg" viewBox="0 0 14 14"><g fill="currentColor"><path fill="currentColor" fill-rule="evenodd" d="M8.17 1.4c-0.26-1.2-1.96-1.19-2.22 0.01l-0.05 0.19c-0.48 2.25-2.25 3.97-4.47 4.37-1.23 0.22-1.22 2 0 2.21 2.23 0.4 4 2.11 4.47 4.37l0.05 0.18c0.26 1.21 1.96 1.21 2.22 0.01l0.06-0.22c0.5-2.24 2.28-3.95 4.49-4.34 1.23-0.22 1.23-2 0-2.22-2.22-0.4-4-2.1-4.49-4.34z m-7.44-0.67a0.76 0.76 0 0 1 1.07 0l1.51 1.51a0.76 0.76 0 0 1-1.07 1.07l-1.51-1.51a0.76 0.76 0 0 1 0-1.07m11.62 0a0.76 0.76 0 1 1 1.07 1.07l-1.51 1.51a0.76 0.76 0 1 1-1.08-1.07z m-11.62 12.69a0.76 0.76 0 0 0 1.07 0l1.51-1.51a0.76 0.76 0 1 0-1.07-1.08l-1.51 1.52a0.76 0.76 0 0 0 0 1.07m11.62 0a0.76 0.76 0 1 0 1.07-1.07l-1.51-1.52a0.76 0.76 0 1 0-1.08 1.08l1.53 1.51z" clip-rule="evenodd"></path></g></svg>
