<svg xmlns="http://www.w3.org/2000/svg" viewBox="0 0 14 14"><g fill="currentColor"><g fill="none"><desc>Heading 1 Paragraph Styles Heading</desc><path fill="currentColor" fill-rule="evenodd" d="M1.52 0.76a0.76 0.76 0 0 0-1.52 0v10.6a0.76 0.76 0 0 0 1.52 0v-4.54h4.04v4.54a0.76 0.76 0 0 0 1.52 0v-10.6a0.76 0.76 0 0 0-1.52 0v4.55h-4.05v-4.55z m10.61 6.56a0.76 0.76 0 0 0-1.53 0 0.76 0.76 0 0 1-0.74 0.76h-0.51a0.76 0.76 0 0 0 0 1.51h0.51c0.26 0 0.52-0.04 0.74-0.12v3.17h-1.25a0.76 0.76 0 0 0 0 1.5h4.03a0.76 0.76 0 0 0 0-1.5h-1.25z" clip-rule="evenodd"></path></g></g></svg>
