<svg xmlns="http://www.w3.org/2000/svg" viewBox="0 0 14 14"><g fill="currentColor"><g fill="none"><desc>Heading 3 Paragraph Styles Heading</desc><path fill="currentColor" fill-rule="evenodd" d="M1.52 0.76a0.76 0.76 0 0 0-1.52 0v10.6a0.76 0.76 0 0 0 1.52 0v-4.54h4.04v4.54a0.76 0.76 0 0 0 1.52 0v-10.6a0.76 0.76 0 0 0-1.52 0v4.55h-4.05v-4.55z m10.23 5.81h-0.75c-0.99 0-1.81 0.66-2.07 1.56a0.76 0.76 0 0 0 1.45 0.41 0.63 0.63 0 0 1 0.62-0.46h0.75a0.63 0.63 0 1 1 0 1.27h-0.38a0.76 0.76 0 0 0 0 1.51h0.5a0.76 0.76 0 0 1 0.77 0.76v0.25a0.76 0.76 0 0 1-0.77 0.77h-1.01a0.76 0.76 0 0 1-0.71-0.51 0.76 0.76 0 1 0-1.43 0.51 2.27 2.27 0 0 0 2.14 1.5h1.01a2.27 2.27 0 0 0 2.28-2.27v-0.25c0-0.63-0.26-1.21-0.68-1.61a2.15 2.15 0 0 0-1.72-3.44" clip-rule="evenodd"></path></g></g></svg>
