<svg xmlns="http://www.w3.org/2000/svg" viewBox="0 0 14 14"><g fill="currentColor"><g fill="none"><desc>Heading 6 Paragraph Styles Heading</desc><path fill="currentColor" fill-rule="evenodd" d="M1.52 0.76a0.76 0.76 0 0 0-1.52 0v10.6a0.76 0.76 0 0 0 1.52 0v-4.54h4.04v4.54a0.76 0.76 0 0 0 1.52 0v-10.6a0.76 0.76 0 0 0-1.52 0v4.55h-4.05v-4.55z m9.34 7.32a0.76 0.76 0 0 0-0.76 0.76v0.64c0.24-0.09 0.49-0.13 0.76-0.13h1.01a2.27 2.27 0 0 1 2.27 2.27v0.25a2.27 2.27 0 0 1-2.27 2.27h-1.01a2.27 2.27 0 0 1-2.27-2.27v-3.03a2.27 2.27 0 0 1 2.27-2.27h1.01c0.99 0 1.83 0.63 2.14 1.51a0.76 0.76 0 0 1-1.43 0.51 0.76 0.76 0 0 0-0.71-0.51z m-0.76 3.79c0 0.41 0.33 0.76 0.76 0.77h1.01a0.76 0.76 0 0 0 0.77-0.77v-0.25a0.76 0.76 0 0 0-0.77-0.76h-1.01a0.76 0.76 0 0 0-0.76 0.76z" clip-rule="evenodd"></path></g></g></svg>
