<svg xmlns="http://www.w3.org/2000/svg" viewBox="0 0 14 14"><g fill="currentColor"><g fill="none"><desc>Link Chain</desc><path fill="currentColor" fill-rule="evenodd" d="M12.8 1.34a4.58 4.58 0 0 0-6.48 0l-1.01 1.01a1.01 1.01 0 1 0 1.43 1.43l1.01-1.01a2.56 2.56 0 1 1 3.62 3.62l-1.01 1.01a1.01 1.01 0 0 0 1.43 1.44l1.01-1.02a4.58 4.58 0 0 0 0-6.48m-3.5 3.5a1.01 1.01 0 0 1 0 1.43l-3.03 3.03a1.01 1.01 0 0 1-1.43-1.43l3.03-3.03a1.01 1.01 0 0 1 1.43 0m-5.52 0.47a1.01 1.01 0 0 1 0 1.43l-1.01 1.01a2.56 2.56 0 0 0 3.62 3.62l1.01-1.01a1.01 1.01 0 1 1 1.44 1.43l-1.02 1.01a4.58 4.58 0 0 1-6.48-6.48l1.01-1.01a1.01 1.01 0 0 1 1.43 0" clip-rule="evenodd"></path></g></g></svg>
