<svg xmlns="http://www.w3.org/2000/svg" viewBox="0 0 14 14"><g fill="currentColor"><g fill="none"><desc>List To Do Tasks Checklist</desc><path fill="currentColor" fill-rule="evenodd" d="M6.36 1.28a0.76 0.76 0 1 0-1.11-1.04l-2.31 2.45-0.63-0.65a0.76 0.76 0 0 0-1.09 1.06l1.18 1.21a0.76 0.76 0 0 0 1.1 0z m0 4.8a0.76 0.76 0 1 0-1.11-1.05l-2.31 2.47-0.63-0.65a0.76 0.76 0 0 0-1.09 1.05l1.18 1.22a0.76 0.76 0 0 0 1.1-0.01z m-0.03 3.72a0.76 0.76 0 0 1 0.03 1.08l-2.86 3.03a0.76 0.76 0 0 1-1.1 0.01l-1.18-1.21a0.76 0.76 0 1 1 1.09-1.07l0.63 0.64 2.31-2.44a0.76 0.76 0 0 1 1.08-0.04m1.75-7.78a0.76 0.76 0 0 0 0 1.52h4.29a0.76 0.76 0 0 0 0-1.52z m-0.76 5.06a0.76 0.76 0 0 1 0.76-0.77h4.29a0.76 0.76 0 0 1 0 1.52h-4.29a0.76 0.76 0 0 1-0.76-0.75m0.76 3.53a0.76 0.76 0 0 0 0 1.52h4.29a0.76 0.76 0 0 0 0-1.52z" clip-rule="evenodd"></path></g></g></svg>
