<svg xmlns="http://www.w3.org/2000/svg" viewBox="0 0 14 14"><g fill="currentColor"><g fill="none"><desc>Quotation 3</desc><path fill="currentColor" fill-rule="evenodd" d="M1.9 1.51a39.94 39.94 0 0 1 1.52-0.02c0.63 0 1.13 0.01 1.53 0.02 0.91 0.04 1.57 0.73 1.58 1.63 0.01 0.39 0.02 0.88 0.02 1.5v2.81c0 2.85-1.89 4.61-4.09 5.3-0.3 0.1-0.68 0.06-0.96-0.21-0.19-0.21-0.33-0.45-0.43-0.66-0.25-0.54 0.1-1.06 0.5-1.3 0.63-0.39 1.09-0.82 1.39-1.32 0.26-0.43 0.4-0.93 0.44-1.52-0.56 0-1.03-0.01-1.39-0.01-0.95-0.03-1.67-0.75-1.69-1.7a64.22 64.22 0 0 1 0-2.89c0.03-0.9 0.68-1.59 1.58-1.63m7.45 0c0.4-0.02 0.89-0.03 1.51-0.02s1.13 0.01 1.52 0.02c0.91 0.04 1.57 0.73 1.59 1.63 0.01 0.39 0.02 0.88 0.02 1.5v2.81c0 2.85-1.89 4.61-4.1 5.3-0.3 0.1-0.68 0.06-0.95-0.21-0.19-0.2-0.33-0.45-0.43-0.66-0.25-0.54 0.1-1.06 0.49-1.3 0.63-0.39 1.09-0.82 1.39-1.32 0.26-0.43 0.4-0.93 0.45-1.52-0.56 0-1.03-0.01-1.4-0.01-0.95-0.03-1.67-0.75-1.69-1.7a64.22 64.22 0 0 1 0-2.89c0.03-0.9 0.68-1.59 1.6-1.63" clip-rule="evenodd"></path></g></g></svg>
