<svg xmlns="http://www.w3.org/2000/svg" viewBox="0 0 14 14"><g fill="currentColor"><g fill="none"><desc>Text Bar</desc><path fill="currentColor" fill-rule="evenodd" d="M2.27 0.76a0.76 0.76 0 0 1 0.76-0.76h2.02c0.8 0 1.51 0.33 2.03 0.87a2.77 2.77 0 0 1 2.01-0.87h2.02a0.76 0.76 0 0 1 0 1.52h-2.02c-0.7 0-1.26 0.56-1.26 1.26v4.54h1.52a0.76 0.76 0 0 1 0 1.52h-1.52v2.52c0 0.7 0.56 1.26 1.26 1.28h2.02a0.76 0.76 0 0 1 0 1.5h-2.02a2.77 2.77 0 0 1-2.01-0.86 2.77 2.77 0 0 1-2.03 0.86h-2.02a0.76 0.76 0 0 1 0-1.51h2.02c0.7 0 1.26-0.56 1.26-1.27v-2.52h-1.51a0.76 0.76 0 0 1 0-1.52h1.51v-4.54c0-0.7-0.56-1.26-1.26-1.27h-2.02a0.76 0.76 0 0 1-0.76-0.75" clip-rule="evenodd"></path></g></g></svg>
