<svg xmlns="http://www.w3.org/2000/svg" data-name="Layer 1" style="" viewBox="0 0 512 512"><g><defs><radialGradient id="1770301555005-8391402_b" cx="257.07" cy="-159.61" r="986" fx="257.07" fy="-159.61" gradientTransform="matrix(1 0 0 -.81 0 382.14)" gradientUnits="userSpaceOnUse"><stop offset="0" stop-color="#dbedb3"></stop><stop offset=".42" stop-color="#006dae"></stop><stop offset=".69" stop-color="#011b36"></stop></radialGradient><linearGradient id="1770301555005-8391402_c" x1="256" x2="256" y1="2" y2="95.53" gradientTransform="matrix(1 0 0 -1 0 514)" gradientUnits="userSpaceOnUse"><stop offset="0" stop-color="#013366"></stop><stop offset="1" stop-color="#006dae"></stop></linearGradient></defs><path d="M0 0h512v512H0z" fill="url(#1770301555005-8391402_b)"></path><path d="M489.3 127.49c7.51 0 7.51-11.26 0-11.26-7.51.09-7.51 11.26 0 11.26M319.57 99.24c7.51 0 7.51-11.18 0-11.18s-7.42 11.18 0 11.18M28.59 121.86c7.51 0 7.51-11.18 0-11.26-7.51.09-7.51 11.26 0 11.26m354.98-60.59c7.51 0 7.51-11.26 0-11.26s-7.51 11.26 0 11.26m29.1 105.64c7.51 0 7.51-11.18 0-11.18s-7.51 11.18 0 11.18m8.71 154.8c7.51 0 7.51-11.18 0-11.18s-7.51 11.18 0 11.18m-268.04-2.82c7.51 0 7.51-11.18 0-11.18-7.51-.09-7.51 11.18 0 11.18M25.09 280.06c7.51 0 7.51-11.18 0-11.18s-7.51 11.18 0 11.18M147.46 138.5c4.95 0 4.95-7.51 0-7.51s-4.95 7.51 0 7.51M108.54 22.44c4.95 0 5.03-7.51 0-7.51s-5.03 7.51 0 7.51" class="l" style="isolation:isolate" fill="#87ccff" opacity=".7"></path><path d="M37.97 199.17c4.95 0 5.03-7.51 0-7.51-5.03.09-5.03 7.51 0 7.51m62.98 92.84c4.95 0 5.03-7.51 0-7.51s-4.95 7.51 0 7.51m268.12-10.75c4.95 0 5.03-7.51 0-7.51s-5.03 7.51 0 7.51m119.21 18.86c4.95 0 5.03-7.51 0-7.51s-5.03 7.51 0 7.51M93.53 100.69c4.95 0 5.03-7.51 0-7.51-5.03.09-5.03 7.51 0 7.51m92.5-62.72c4.95 0 5.03-7.51 0-7.51s-5.03 7.51 0 7.51m-34.56 168.54c4.95 0 5.03-7.51 0-7.51-4.95 0-4.95 7.51 0 7.51m204.54-37.72c4.95 0 5.03-7.51 0-7.51s-5.03 7.51 0 7.51m-29.7-150.1c4.95 0 5.03-7.51 0-7.51-4.95.09-4.95 7.51 0 7.51m168.62 21.84c4.95 0 5.03-7.51 0-7.51-5.03.09-5.03 7.51 0 7.51" class="k" fill="#fff"></path><path d="M237.4 128.17c4.95 0 4.95-7.51 0-7.51-5.03 0-5.03 7.51 0 7.51m33.96 28.42c7.51 0 7.51-11.26 0-11.26s-7.51 11.26 0 11.26M237.4 277.5c7.51 0 7.51-11.26 0-11.26-7.51.09-7.51 11.26 0 11.26M50.69 48.04c7.42 0 7.42-11.26 0-11.26-7.51.09-7.51 11.26 0 11.26m200.53 7.51c5.21 0 5.21-7.51 0-7.51s-5.21 7.51 0 7.51" class="l" style="isolation:isolate" fill="#87ccff" opacity=".7"></path><path d="M448.85 37.97c21.59 32.09-9.05 85.16-47.62 82.52 54.36 30.29 101.03-50.6 47.62-82.52" class="k" fill="#fff"></path><path d="M0 418.47h512V512H0z" fill="url(#1770301555005-8391402_c)"></path><path d="M366.59 466.52c0 9.13-222.04 9.13-222.04 0s222.04-9.13 222.04 0" fill="#018bc9"></path><path d="M296.7 42.67h1.79v4.1h-1.79z" class="i" fill="#822d39"></path><path d="M297.3 42.67h1.79v4.1h-1.79z" class="h" fill="#e95349"></path><path d="M293.63 45.74h3.67v9.9h-3.67z" class="i" fill="#822d39"></path><path d="M296.28 45.74h5.89v9.9h-5.89z" class="h" fill="#e95349"></path><path d="M219.73 42.67h1.79v4.1h-1.79z" class="i" fill="#822d39"></path><path d="M220.33 42.67h1.79v4.1h-1.79z" class="h" fill="#e95349"></path><path d="M216.66 45.74h3.67v9.9h-3.67z" class="i" fill="#822d39"></path><path d="M219.31 45.74h5.89v9.9h-5.89z" class="h" fill="#e95349"></path><path d="M197.63 440.92V297.39l3.16-4.01V175.27l2.82-3.66V62.89l8.1-8.45 17.67 386.48z" class="i" fill="#822d39"></path><path d="M205.65 440.92V297.39l3.24-4.01V175.19l2.82-3.58V54.44c0-2.22 1.79-4.01 4.01-4.01h10.92c2.22 0 4.01 1.79 4.01 4.01v115.54l4.01 4.44v118.53l2.82 2.82v145.15z" class="h" fill="#e95349"></path><path d="m221.53 167.25-5.04 3.25v60.92l-2.99 3.59v205.91h4.01V235.95l2.56-4.27V170.5zm-1.54 153.01v120.66h17.41V332.37zm-3.67-195.84v-22.87l-2.65-2.82V58.96l2.65-4.52v9.13h58.28l14.08-9.13-6.06 49.58-10.41-6.74h-44.54c-3.5 0-6.4 2.65-6.83 6.14l-1.71 16.98-2.82 4.01Z" class="i" fill="#822d39"></path><path d="M216.32 240.3v-22.87l-2.65-2.82v-39.77l6.4-2.22 5.03 6.83h49.49l6.06-4.01v43.18l-8.45-5.46h-44.54c-3.5 0-6.4 2.65-6.83 6.14l-1.71 16.98-2.82 4.01Zm0 119.98-2.65-65.45 6.4-2.22 5.03 6.83h46.93l8.53-6.83v59.05l-3.07-3.93c-3.33-4.27-8.53-6.74-13.91-6.74h-25.77c-3.5 0-6.4 2.65-6.83 6.14l-1.71 9.13-12.97 4.01Z" class="i" fill="#822d39"></path><path d="M274.6 440.92V297.39l3.25-4.01V175.27l2.81-3.66V59.56l8.02-5.12 17.67 386.48z" class="i" fill="#822d39"></path><path d="M282.62 440.92V297.39l3.24-4.01V175.19l2.82-3.58V54.44c0-2.22 1.79-4.01 4.01-4.01h10.92c2.22 0 4.01 1.79 4.01 4.01v115.54l4.01 4.44v118.53l2.82 2.82v145.15z" class="h" fill="#e95349"></path><path d="m298.5 167.25-5.04 3.25v60.92l-2.99 3.59v205.91h4.02V235.95l2.64-4.27V170.5zm3.49 121.01-4.94 3.32v149.34h3.58V291.58z" class="i" fill="#822d39"></path><path d="M512 230.57s-121.26-41.9-216.83-171.18c-.51-.68 0-10.24 0-10.24C390.74 176.72 512 220.33 512 220.33zm0 43.86s-115.54-20.22-216.58-154.79c-.51-.68-.6-10.92 0-10.24C407.12 251.39 512 266.84 512 266.84zM0 196.35s121.26-41.64 216.58-136.96c.6-.6.6-10.92 0-10.24C121.26 146.18 0 186.11 0 186.11z" class="h" fill="#e95349"></path><path d="M0 243.29S147.8 189.87 295.17 59.4c.68-.6 0-10.24 0-10.24C147.71 179.63 0 233.05 0 233.05zm332.46 154.96h5.97V102.23l-5.97-5.21z" class="h" fill="#e95349"></path><path d="M179.54 398.25h-5.97V89.09l5.97-3.42zm205.23 0h5.97V147.46l-5.97-4.36zm-257.54 0h-5.97V128.26l5.97-4.27zm309.93 0h5.98V184.92l-5.98-4.18zm-362.32 0h-5.98V158.98l5.98-2.22zm414.72 0h5.97V212.22l-5.97-2.64zm-467.12 0h-5.97V181.16l5.97 1.97zm317.27-293.29c0 2.56-8.53-5.38-8.53-7.94v-5.03c0-2.47 8.53 5.29 8.53 7.77v5.21Z" class="h" fill="#e95349"></path><path d="M392.02 153.26c0 2.56-8.53-4.1-8.53-6.57v-5.03c0-2.47 8.53 3.93 8.53 6.4v5.21Zm52.4 37.03c0 2.56-8.53-3.33-8.53-5.8v-5.03c0-2.47 8.53 3.16 8.53 5.63v5.21Zm52.39 28.33c0 2.56-8.53-2.3-8.53-4.78v-5.03c0-2.47 8.53 2.13 8.53 4.61v5.21ZM172.29 91.9c0 2.82 8.53-2.82 8.53-5.63v-4.18c0-2.82-8.53 2.65-8.53 5.46zm-52.31 38.32c0 2.82 8.53-2.82 8.53-5.63v-4.18c0-2.82-8.53 2.65-8.53 5.46zm-52.4 30.38c0 2.82 8.53-1.71 8.53-4.52v-4.18c0-2.82-8.53 1.54-8.53 4.35zM15.1 184.58c0 2.82 8.53-.77 8.53-3.58v-4.18c0-2.82-8.53.6-8.53 3.41zM0 389.72h512v17.07H0z" class="h" fill="#e95349"></path><path d="M191.49 434.86v31.66h81.58v-31.66z" fill="#6e8189"></path><path d="M273.07 434.86v31.66h46.59v-31.66z" fill="#b3c2c6"></path></g></svg>
