<svg xmlns="http://www.w3.org/2000/svg" data-name="Layer 1" style="" viewBox="0 0 512 512.01"><g><defs><linearGradient id="1770301555032-8214976_b" x1="546.46" x2="395.78" y1="304.32" y2="141.26" gradientTransform="scale(1 -1) rotate(-7.11 -3996.78 668.442)" gradientUnits="userSpaceOnUse"><stop offset="0" stop-color="#92c932"></stop><stop offset="1" stop-color="#529320"></stop></linearGradient><linearGradient id="1770301555032-8214976_c" x1="-635.99" x2="-572.77" y1="494.58" y2="494.58" gradientTransform="scale(1 -1) rotate(76.88 471.567 642.578)" gradientUnits="userSpaceOnUse"><stop offset="0" stop-color="#c4b400"></stop><stop offset="1" stop-color="#f5ea1b"></stop></linearGradient><linearGradient id="1770301555032-8214976_d" x1="-608.01" x2="-546.07" y1="513.17" y2="513.17" gradientTransform="scale(1 -1) rotate(76.88 471.567 642.578)" gradientUnits="userSpaceOnUse"><stop offset="0" stop-color="#c4b400"></stop><stop offset="1" stop-color="#f5ea1b"></stop></linearGradient><linearGradient id="1770301555032-8214976_e" x1="-590.25" x2="-515.86" y1="540.44" y2="540.44" gradientTransform="scale(1 -1) rotate(76.88 471.567 642.578)" gradientUnits="userSpaceOnUse"><stop offset="0" stop-color="#c4b400"></stop><stop offset="1" stop-color="#f5ea1b"></stop></linearGradient><linearGradient id="1770301555032-8214976_f" x1="369.35" x2="412.68" y1="375.75" y2="375.75" gradientTransform="matrix(-.95538 .29537 -.36251 -1.06023 590.1 553.881)" gradientUnits="userSpaceOnUse"><stop offset="0" stop-color="#92c932"></stop><stop offset="1" stop-color="#529320"></stop></linearGradient><linearGradient id="1770301555032-8214976_g" x1="352.09" x2="391.62" y1="376.3" y2="376.3" gradientTransform="matrix(-.95538 .29537 -.36251 -1.06023 590.1 553.881)" gradientUnits="userSpaceOnUse"><stop offset="0" stop-color="#92c932"></stop><stop offset="1" stop-color="#529320"></stop></linearGradient><linearGradient id="1770301555032-8214976_h" x1="335.66" x2="370.72" y1="377.52" y2="377.52" gradientTransform="matrix(-.95538 .29537 -.36251 -1.06023 590.1 553.881)" gradientUnits="userSpaceOnUse"><stop offset="0" stop-color="#92c932"></stop><stop offset="1" stop-color="#529320"></stop></linearGradient><linearGradient id="1770301555032-8214976_i" x1="319.45" x2="351.27" y1="378.62" y2="378.62" gradientTransform="matrix(-.95538 .29537 -.36251 -1.06023 590.1 553.881)" gradientUnits="userSpaceOnUse"><stop offset="0" stop-color="#92c932"></stop><stop offset="1" stop-color="#529320"></stop></linearGradient><linearGradient id="1770301555032-8214976_j" x1="303.45" x2="332.65" y1="379.03" y2="379.03" gradientTransform="matrix(-.95538 .29537 -.36251 -1.06023 590.1 553.881)" gradientUnits="userSpaceOnUse"><stop offset="0" stop-color="#92c932"></stop><stop offset="1" stop-color="#529320"></stop></linearGradient><linearGradient id="1770301555032-8214976_k" x1="285.63" x2="316.74" y1="380.41" y2="380.41" gradientTransform="matrix(-.95538 .29537 -.36251 -1.06023 590.1 553.881)" gradientUnits="userSpaceOnUse"><stop offset="0" stop-color="#92c932"></stop><stop offset="1" stop-color="#529320"></stop></linearGradient><linearGradient id="1770301555032-8214976_l" x1="268.71" x2="299.81" y1="383.69" y2="383.69" gradientTransform="matrix(-.95538 .29537 -.36251 -1.06023 590.1 553.881)" gradientUnits="userSpaceOnUse"><stop offset="0" stop-color="#92c932"></stop><stop offset="1" stop-color="#529320"></stop></linearGradient><linearGradient id="1770301555032-8214976_m" x1="307.81" x2="294.96" y1="464.03" y2="375.66" gradientTransform="matrix(-.93383 .35772 -.43146 -1.03409 652.81 522.41)" gradientUnits="userSpaceOnUse"><stop offset="0" stop-color="#92c932"></stop><stop offset=".23" stop-color="#8dc531"></stop><stop offset=".5" stop-color="#7fb92d"></stop><stop offset=".8" stop-color="#67a526"></stop><stop offset="1" stop-color="#529320"></stop></linearGradient><linearGradient id="1770301555032-8214976_n" x1="244.55" x2="385.91" y1="134.33" y2="134.33" gradientTransform="scale(1 -1) rotate(-7.11 -3996.78 668.442)" gradientUnits="userSpaceOnUse"><stop offset="0" stop-color="#529320"></stop><stop offset=".28" stop-color="#457b18"></stop><stop offset=".87" stop-color="#243c05"></stop><stop offset="1" stop-color="#1d2e00"></stop></linearGradient><linearGradient id="1770301555032-8214976_o" x1="9.77" x2="26.98" y1="-308.41" y2="-104.15" gradientTransform="matrix(.92285 -.17872 -.14427 -.71562 157.33 245.24)" gradientUnits="userSpaceOnUse"><stop offset="0" stop-color="#f50"></stop><stop offset=".21" stop-color="#fb5200"></stop><stop offset=".4" stop-color="#f04900"></stop><stop offset=".59" stop-color="#de3a00"></stop><stop offset=".77" stop-color="#c42500"></stop><stop offset=".94" stop-color="#a30a00"></stop><stop offset="1" stop-color="#960000"></stop></linearGradient><linearGradient id="1770301555032-8214976_p" x1="12.62" x2="27.49" y1="-273.64" y2="-97.09" gradientTransform="matrix(.92285 -.17872 -.14427 -.71562 157.33 245.24)" gradientUnits="userSpaceOnUse"><stop offset="0" stop-color="#f50"></stop><stop offset=".14" stop-color="#ed4600"></stop><stop offset=".53" stop-color="#be2000"></stop><stop offset=".83" stop-color="#a10900"></stop><stop offset="1" stop-color="#960000"></stop></linearGradient><linearGradient id="1770301555032-8214976_q" x1="207.08" x2="265.07" y1="249.8" y2="103.76" gradientTransform="matrix(1 0 0 -1 0 514.01)" gradientUnits="userSpaceOnUse"><stop offset="0" stop-color="#92c932"></stop><stop offset="1" stop-color="#529320"></stop></linearGradient><linearGradient id="1770301555032-8214976_r" x1="293.06" x2="261.83" y1="138.45" y2="146.49" gradientTransform="matrix(1 0 0 -1 0 514.01)" gradientUnits="userSpaceOnUse"><stop offset="0" stop-color="#92c932"></stop><stop offset="1" stop-color="#92c932" stop-opacity="0"></stop></linearGradient><linearGradient id="1770301555032-8214976_s" x1="215.41" x2="177.62" y1="139.82" y2="149.55" gradientTransform="scale(1 -1) rotate(7.4 4116.715 657.336)" gradientUnits="userSpaceOnUse"><stop offset="0" stop-color="#92c932"></stop><stop offset="1" stop-color="#92c932" stop-opacity="0"></stop></linearGradient><linearGradient id="1770301555032-8214976_t" x1="107.47" x2="64.88" y1="157.67" y2="168.64" gradientTransform="scale(1 -1) rotate(17.02 1859.607 655.927)" gradientUnits="userSpaceOnUse"><stop offset="0" stop-color="#92c932"></stop><stop offset="1" stop-color="#92c932" stop-opacity="0"></stop></linearGradient><linearGradient id="1770301555032-8214976_u" x1="25.92" x2="-17" y1="192.39" y2="203.45" gradientTransform="matrix(1.07182 -.46916 -.43804 -.89986 391.38 490.58)" gradientUnits="userSpaceOnUse"><stop offset="0" stop-color="#92c932"></stop><stop offset="1" stop-color="#92c932" stop-opacity="0"></stop></linearGradient><linearGradient id="1770301555032-8214976_v" x1="70.55" x2="32.28" y1="1612.22" y2="1622.07" gradientTransform="matrix(1.08 -.45 .34728 .93863 -333.84 -1208.31)" gradientUnits="userSpaceOnUse"><stop offset="0" stop-color="#92c932"></stop><stop offset="1" stop-color="#92c932" stop-opacity="0"></stop></linearGradient><linearGradient id="1770301555032-8214976_w" x1="-21.52" x2="-55.16" y1="1574.67" y2="1583.34" gradientTransform="matrix(1.0239 -.56616 .4485 .8947 -418.69 -1151.33)" gradientUnits="userSpaceOnUse"><stop offset="0" stop-color="#92c932"></stop><stop offset="1" stop-color="#92c932" stop-opacity="0"></stop></linearGradient><linearGradient id="1770301555032-8214976_x" x1="-47.76" x2="-75.4" y1="1562.14" y2="1569.26" gradientTransform="matrix(1.0239 -.56616 .4485 .8947 -418.69 -1151.33)" gradientUnits="userSpaceOnUse"><stop offset="0" stop-color="#92c932"></stop><stop offset="1" stop-color="#92c932" stop-opacity="0"></stop></linearGradient><linearGradient id="1770301555032-8214976_y" x1="341.98" x2="391.78" y1="355.43" y2="284.63" gradientTransform="scale(1 -1) rotate(-13.93 -1962.124 661.861)" gradientUnits="userSpaceOnUse"><stop offset="0" stop-color="#92c932"></stop><stop offset=".25" stop-color="#7fb92d"></stop><stop offset=".73" stop-color="#5e9d23"></stop><stop offset="1" stop-color="#529320"></stop></linearGradient><linearGradient id="1770301555032-8214976_z" x1="307.66" x2="321.5" y1="347.39" y2="334.25" gradientTransform="scale(1 -1) rotate(-.72 -40764.137 673.217)" gradientUnits="userSpaceOnUse"><stop offset="0" stop-color="#92c932"></stop><stop offset="1" stop-color="#529320"></stop></linearGradient><linearGradient id="1770301555032-8214976_aa" x1="377.04" x2="401.5" y1="391.82" y2="380.52" gradientTransform="scale(1 -1) rotate(-10.09 -2771.473 679.45)" gradientUnits="userSpaceOnUse"><stop offset="0" stop-color="#92c932"></stop><stop offset=".25" stop-color="#8ec631"></stop><stop offset=".5" stop-color="#82bb2d"></stop><stop offset=".75" stop-color="#6eaa28"></stop><stop offset="1" stop-color="#529320"></stop></linearGradient><linearGradient id="1770301555032-8214976_ab" x1="371.41" x2="391.23" y1="390.29" y2="384.19" gradientTransform="scale(1 -1) rotate(-11.72 -2366.974 678.749)" gradientUnits="userSpaceOnUse"><stop offset="0" stop-color="#92c932"></stop><stop offset=".22" stop-color="#8cc430"></stop><stop offset=".52" stop-color="#7bb62c"></stop><stop offset=".86" stop-color="#5f9e24"></stop><stop offset="1" stop-color="#529320"></stop></linearGradient><linearGradient id="1770301555032-8214976_ac" x1="284.61" x2="314.02" y1="366.05" y2="366.05" gradientTransform="scale(1 -1) rotate(-8.11 -3492.988 677.92)" gradientUnits="userSpaceOnUse"><stop offset="0" stop-color="#92c932"></stop><stop offset="1" stop-color="#529320"></stop></linearGradient><linearGradient id="1770301555032-8214976_ad" x1="276.76" x2="313.3" y1="343.83" y2="343.83" gradientTransform="scale(1 -1) rotate(-9.01 -3131.508 675.712)" gradientUnits="userSpaceOnUse"><stop offset="0" stop-color="#92c932"></stop><stop offset="1" stop-color="#529320"></stop></linearGradient><linearGradient id="1770301555032-8214976_ae" x1="322.08" x2="362.3" y1="338.03" y2="338.03" gradientTransform="scale(1 -1) rotate(-14.23 -1930.15 672.651)" gradientUnits="userSpaceOnUse"><stop offset="0" stop-color="#92c932"></stop><stop offset="1" stop-color="#529320"></stop></linearGradient><linearGradient id="1770301555032-8214976_af" x1="335.24" x2="354.7" y1="385.45" y2="380.7" gradientTransform="scale(1 -1) rotate(-10.27 -2724.658 679.22)" gradientUnits="userSpaceOnUse"><stop offset="0" stop-color="#92c932"></stop><stop offset="1" stop-color="#529320"></stop></linearGradient><linearGradient id="1770301555032-8214976_ag" x1="419.39" x2="344.9" y1="196.29" y2="181.46" gradientTransform="matrix(1 0 0 -1 0 514.01)" gradientUnits="userSpaceOnUse"><stop offset="0" stop-color="#92c932"></stop><stop offset="1" stop-color="#529320"></stop></linearGradient><linearGradient id="1770301555032-8214976_ah" x1="422.32" x2="325.09" y1="182.65" y2="163.29" gradientTransform="matrix(1 0 0 -1 0 514.01)" gradientUnits="userSpaceOnUse"><stop offset="0" stop-color="#92c932"></stop><stop offset="1" stop-color="#529320"></stop></linearGradient><linearGradient id="1770301555032-8214976_ai" x1="407.12" x2="308.89" y1="156.54" y2="148.98" gradientTransform="matrix(1 0 0 -1 0 514.01)" gradientUnits="userSpaceOnUse"><stop offset="0" stop-color="#92c932"></stop><stop offset="1" stop-color="#529320"></stop></linearGradient><linearGradient id="1770301555032-8214976_aj" x1="363.54" x2="305.77" y1="133.69" y2="132.76" gradientTransform="matrix(1 0 0 -1 0 514.01)" gradientUnits="userSpaceOnUse"><stop offset="0" stop-color="#92c932"></stop><stop offset=".98" stop-color="#529320"></stop></linearGradient></defs><path d="M500.87 60.72c-32.08 36.16-101.92 7.2-182.08 105.12-3.12 3.76 22.96 29.76 33.36 22.16 60-101.2 131.52-74.72 156-121.36 2.24-4.08-4.88-8.56-7.28-5.92" class="bx" fill="#6ba81e"></path><path d="M481.51 273.28c17.04.4 30.48 2.72 30.48 2.72s-19.12-19.2-45.76-28.8c21.92-2.16 41.84.16 41.84.16s-29.92-26.48-65.92-29.44c26.72-6.56 53.12-7.92 53.12-7.92s-38.64-18.64-79.92-17.92c28.32-12.56 61.44-18.48 61.44-18.48s-56.8-19.2-103.52-2.56c-19.12 6.8 97.12 141.76 113.84 150.48 14.48 7.6 24.88 15.2 24.88 15.2s-6.4-18.88-20.56-37.12c12.16 3.76 20.56 7.52 20.56 7.52s-11.2-18.64-30.48-33.84" class="by" fill="#529320"></path><path d="M278.23 393.28c22.48-1.2 50.32 31.2 55.12 57.28 9.52 51.6 180.32-45.2 178.64-72.4-7.04-114.8-78.96-176.32-117.6-191.28-126.96-25.44-128.56 207.04-116.16 206.4" fill="url(#1770301555032-8214976_b)"></path><path d="M334.47 460.72c.8 1.84 25.36 17.04 84.4-13.12-.64-6.56-8.64-35.36-14.56-33.2-58.16 21.2-81.68 11.52-79.84 14.8 8.88 15.6 6 22.24 10 31.52" fill="url(#1770301555032-8214976_c)"></path><path d="M325.43 431.52c1.6 1.2 30.64 10.24 83.84-13.28-.64-6.56-16.96-37.6-22.88-35.44-58.16 21.2-81.52 23.36-78.72 25.84 8.96 8.08 11.6 18.24 17.76 22.88" fill="url(#1770301555032-8214976_d)"></path><path d="M308.47 409.68c1.92.64 30.08-.32 83.28-23.84-.64-6.56-25.84-42.4-31.76-40.24-58.16 21.2-82.8 45.36-79.2 46.32 14.72 4 23.92 16.64 27.68 17.76" fill="url(#1770301555032-8214976_e)"></path><path d="M414.63 449.76s13.6-5.68 26.72-13.28c-20.96-69.68-78.88-109.04-78.88-109.04l-20.4 20.16s50.64 38.32 72.56 102.16" class="by" fill="#529320"></path><path d="M51.04 253.36c2.8 2.56 26.16 17.36 38.4 41.84 30.72-6.4 6.48-36.88-2-47.36-4.4-5.52-44.24-1.68-36.4 5.52" fill="url(#1770301555032-8214976_f)"></path><path d="M71.68 248.48c2.56 2.32 23.84 15.76 35.04 38.16 28-5.84 5.92-33.6-1.84-43.2-4-4.96-40.4-1.44-33.2 5.04" fill="url(#1770301555032-8214976_g)"></path><path d="M92 243.36c2.24 2.08 21.2 14 31.04 33.84 24.88-5.2 5.28-29.84-1.6-38.32-3.6-4.4-35.84-1.36-29.44 4.48" fill="url(#1770301555032-8214976_h)"></path><path d="M110.8 238.08c2 1.84 19.2 12.72 28.16 30.72 22.56-4.72 4.72-27.04-1.44-34.8-3.28-4-32.56-1.12-26.72 4.08" fill="url(#1770301555032-8214976_i)"></path><path d="M128.88 233.52c1.84 1.68 17.6 11.68 25.84 28.16 20.72-4.32 4.4-24.8-1.36-31.92-2.96-3.6-29.84-1.04-24.48 3.76" fill="url(#1770301555032-8214976_j)"></path><path d="M143.68 227.84c1.84 2 17.84 11.68 26.72 29.44 22.32-4.64 6.64-30.8-8.24-38.48-4.56-2.4-22.72 4.56-18.48 9.04" fill="url(#1770301555032-8214976_k)"></path><path d="M158.64 219.36c1.84 2 17.84 11.68 26.72 29.44 22.32-4.64 6.64-30.8-8.24-38.48-4.56-2.4-22.64 4.56-18.48 9.04" fill="url(#1770301555032-8214976_l)"></path><path d="M290.79 186.32c27.2-27.44 47.04-67.68 35.28-124.64-1.04-4.96-15.36 1.84-16.16 5.36-8.72 40.56-26.48 64.4-50.96 82.48 4.72 5.6 24.96 29.52 31.84 36.8" class="bu" fill="#bf7f55"></path><path d="M199.44 186.56c-8.88 6.8-17.36 14.32-25.28 23.28-1.84 2.08 13.28 10.8 24.32 26.72.56.8 14.48-2.24 32.96-10.32-10.4-13.52-20.72-26.96-32-39.68" fill="url(#1770301555032-8214976_m)"></path><path d="M168.64 492.79c23.36 10.8 44.48 2.08 53.52-8.24 9.36-10.64-20.64 4.72-42.16-15.12-6.08-5.68-19.28 19.68-11.36 23.36" class="by" fill="#529320"></path><path d="M182.56 482.87c25.6 2.72 42.72-12.4 47.84-25.04 5.28-13.04-17.92 11.12-44.8-.72-7.6-3.36-11.76 24.88-3.04 25.76m-40.8 17.52c20.16 16.32 42.48 12.96 53.52 5.04 11.36-8.16-20.96-.4-37.44-25.2-4.56-7.04-22.88 14.56-16.08 20.16" class="by" fill="#529320"></path><path d="M166.96 290.64c14.08-7.92 85.6 1.84 129.04 33.92-95.6 75.92-76.4 157.92-149.28 165.84-9.52 1.04-16-7.04-10.16-19.92 15.68-34.64 111.52-120.72 30.4-179.84" fill="url(#1770301555032-8214976_n)"></path><path d="m313.91 357.2 37.28-61.28c-67.6 3.04-129.36 29.84-167.2 80-37.92 50.32-88.56 94.8-132.48 51.92 16.16 74.88 107.6 52.64 148-6.56 32.8-48.16 77.92-64.32 114.4-64.08" fill="url(#1770301555032-8214976_o)"></path><path d="m333.43 321.76 17.68-25.92c-70.56-8.4-136.4 21.2-174.24 71.36-37.92 50.32-71.92 96.56-125.44 60.56 38.08 52.4 97.92 11.2 138.32-48 32.88-48.08 107.28-58.24 143.68-58" fill="url(#1770301555032-8214976_p)"></path><path d="M185.84 295.76c-1.04 19.6 10.64 33.2 16.4 38.72 1.28 1.28 3.12-.48 3.2-3.04.24-8.8 1.52-26.08 6.88-40.88 3.6-9.76-25.92-5.68-26.48 5.2" class="bw" fill="#ffdeb8"></path><path d="M206 292.72c-1.04 19.6 10.64 33.2 16.4 38.72 1.28 1.28 3.12-.48 3.2-3.04.24-8.8 1.52-26.08 6.88-40.88 3.6-9.76-25.92-5.6-26.48 5.2" class="bw" fill="#ffdeb8"></path><path d="M224.47 290c-1.04 19.6 10.64 33.2 16.4 38.72 1.28 1.28 3.12-.48 3.2-3.04.24-8.8 1.52-26.08 6.88-40.88 3.6-9.76-25.92-5.6-26.48 5.2" class="bw" fill="#ffdeb8"></path><path d="M240.63 288.56c-1.04 19.6 10.64 33.2 16.4 38.72 1.28 1.28 3.12-.48 3.2-3.04.24-8.8 1.52-26.08 6.88-40.88 3.6-9.76-25.92-5.68-26.48 5.2m-75.91 6.16c-1.12 20.96 11.36 35.6 17.6 41.52 1.44 1.36 3.36-.48 3.44-3.2.32-9.44 1.6-28 7.44-43.84 3.76-10.56-27.92-6.08-28.48 5.52" class="bw" fill="#ffdeb8"></path><path d="M140.32 299.12c-1.2 22.4 12.16 38.08 18.8 44.4 1.52 1.44 3.6-.56 3.68-3.44.32-10.08 1.68-29.92 7.92-46.88 4.08-11.2-29.76-6.48-30.4 5.92" class="bw" fill="#ffdeb8"></path><path d="M114 303.36c-1.2 23.52 12.72 39.92 19.68 46.56 1.6 1.52 3.76-.56 3.84-3.6.32-10.56 1.84-31.36 8.32-49.12 4.32-11.76-31.12-6.88-31.84 6.16" class="bw" fill="#ffdeb8"></path><path d="M84.4 314.48c-1.28 24.8 13.44 42.16 20.8 49.12 1.68 1.6 4-.56 4.08-3.84.32-11.12 1.92-33.12 8.8-51.84 4.48-12.4-32.96-7.12-33.68 6.56" class="bw" fill="#ffdeb8"></path><path d="M48.32 323.12c.88 28.48 19.44 46.8 28.56 54.08 2.08 1.68 4.48-1.04 4.32-4.8-.64-12.8-.96-38 5.12-60.16 4.08-14.56-38.4-4.88-38 10.88m202.55 71.68c-15.84-12.32-18.56-30.32-18.96-38.48-.08-1.84 2.48-2.08 4.48-.4 6.96 5.68 21.2 16.32 36.24 22.08 9.92 3.84-13.04 23.68-21.76 16.8" class="bw" fill="#ffdeb8"></path><path d="M266.15 384.64c-15.84-12.32-18.56-30.32-18.96-38.48-.08-1.84 2.48-2.08 4.48-.4 6.96 5.68 21.2 16.32 36.24 22.08 9.92 3.76-13.04 23.6-21.76 16.8" class="bw" fill="#ffdeb8"></path><path d="M279.99 375.36c-15.84-12.32-18.56-30.32-18.96-38.48-.08-1.84 2.48-2.08 4.48-.4 6.96 5.68 21.2 16.32 36.24 22.08 10 3.84-12.96 23.6-21.76 16.8m-43.68 36c-16.96-13.2-19.92-32.56-20.32-41.28-.08-2 2.64-2.24 4.8-.48 7.44 6.08 22.72 17.52 38.88 23.68 10.64 4.16-13.92 25.36-23.36 18.08" class="bw" fill="#ffdeb8"></path><path d="M220.39 429.04c-18.16-14.08-21.28-34.8-21.76-44.08-.08-2.08 2.8-2.4 5.12-.48 8 6.48 24.24 18.72 41.52 25.36 11.44 4.32-14.88 26.96-24.88 19.2" class="bw" fill="#ffdeb8"></path><path d="M202.8 449.2c-18.96-14.8-22.32-36.48-22.8-46.24-.08-2.24 2.96-2.48 5.36-.48 8.4 6.8 25.44 19.6 43.52 26.56 12 4.56-15.6 28.32-26.08 20.16" class="bw" fill="#ffdeb8"></path><path d="M182.88 469.36c-20.08-15.6-23.52-38.48-24.08-48.8-.08-2.32 3.12-2.64 5.68-.56 8.8 7.2 26.88 20.72 46 28 12.64 4.88-16.48 30-27.6 21.36" class="bw" fill="#ffdeb8"></path><path d="M151.68 490.39c-21.44-19.76-23.12-46.24-22.72-58.08.08-2.72 3.84-2.72 6.56-.08 9.44 9.04 28.72 26.16 49.92 36.32 14.08 6.72-21.84 32.72-33.76 21.84" class="bw" fill="#ffdeb8"></path><path d="M500.71 1.85c-28.8 56.16-126.48 42.24-196.08 192.16-2.72 5.84 38.72 30.16 49.36 17.2 42.88-147.53 142-137.29 157.84-204.16 1.44-6-8.96-9.36-11.12-5.2" class="cb" fill="#5c9c0b"></path><path d="M450.71 1.85c-28.8 56.16-126.48 42.24-196.08 192.16-2.72 5.84 38.64 30.16 49.36 17.2 42.96-147.53 142-137.29 157.92-204.16 1.44-6-9.04-9.36-11.2-5.2m-78.96 300.63c49.92-15.92 98.56-68.88 108-92.08 11.76-28.96-56.08 47.6-111.76 50.64-15.76.88-13.2 46.8 3.76 41.44" class="bx" fill="#6ba81e"></path><path d="M391.43 259.2c45.44-23.28 76.48-72.56 84.4-95.52 9.52-27.68-40 42.16-92.16 54.64-14.72 3.52-7.68 48.8 7.76 40.88m-8.96 73.44c41.52-15.92 80.56-50.08 93.52-72.16 17.2-29.2-34.72 29.6-92.48 32.72-16.32.8-18.96 46.32-1.04 39.44" class="bx" fill="#6ba81e"></path><path d="M380.07 365.76c43.36-10.64 85.44-41.92 100.16-64.32 19.52-29.6-37.36 26.96-96.32 20.64-16.64-1.84-22.56 48.32-3.84 43.68m4.64-133.04c50.24-37.28 80.56-97.6 86.64-126.24 7.36-34.64-41.2 58.24-100.96 84.32-16.96 7.44-2.8 54.64 14.32 41.92" class="bx" fill="#6ba81e"></path><path d="M362.95 274.4c31.92 0 66.24-28.32 74-43.52 9.68-18.96-38.4 22.48-72.72 11.44-9.68-3.12-12.08 32.16-1.28 32.08" class="cb" fill="#5c9c0b"></path><path d="M354.47 250.16c31.84-1.44 57.52-25.76 65.52-40.8 9.68-18.24-30.88 18.24-65.6 8.72-9.84-2.72-10.8 32.56.08 32.08m20.24 50.88c28.8-.56 58.4-18.88 69.6-34.96 14.8-21.36-26.16 15.6-63.84-1.44-10.64-4.8-18.16 36.64-5.76 36.4" class="cb" fill="#5c9c0b"></path><path d="M372.87 327.36c28.64 3.36 60.4-10.72 73.76-25.12 17.68-19.12-28.08 11.84-63.04-10.16-9.92-6.24-23.12 33.84-10.72 35.28m-36.16-98.24c33.52-3.2 62-26.4 71.36-40.32 11.28-16.88-33.6 18.16-69.44 11.76-10.08-1.84-13.36 29.6-1.92 28.56" class="cb" fill="#5c9c0b"></path><path d="M351.91 193.36c19.84-17.44 46.08-53.04 36.96-135.28-.48-4.64-16.96-2.4-17.68 1.84-14.24 89.6-64.96 76.88-110.8 104.88.96.24 88.4 26.24 91.52 28.56" class="bu" fill="#bf7f55"></path><path d="M385.03 297.28c0-.16.08-.24.08-.4 14.4-2.24 20.4-21.84-.4-27.92 12.8-9.76 8.48-27.44-10.16-23.04 9.76-9.92 3.68-19.92-12.4-14.24 6.4-12.56-1.12-21.92-15.44-11.6-7.36-32.96-230.07 48.8-304.71 104.72 72.8-4.96 143.76-28.32 217.19-9.92 13.84 3.44 18.56 20.72 8.24 30.56-70.64 67.12-64.32 122.32-124.72 138.48-9.2 2.48-6.16-13.44-6.16-13.44s-22.8 32.24 17.2 32c62.16-.48 65.36-102.64 158.88-112.24 12.24-1.28 46.8-30.4 63.92-66.72 19.44-1.68 28.4-22.48 8.48-26.24" fill="url(#1770301555032-8214976_q)"></path><path d="M310.31 220.8c1.92-14.56-12.56-63.12 109.68-93.44-31.6 36.48-33.12 92.72-109.68 93.44" class="bx" fill="#6ba81e"></path><path d="M255.91 375.6c14.08 3.76 31.28-.24 39.2-5.84 10.48-7.36-15.12 3.28-30.8-9.44-4.4-3.6-14.48 13.68-8.4 15.28" fill="url(#1770301555032-8214976_r)"></path><path d="M270.07 363.84c17.52 2.48 37.44-4.72 46-12.48 11.36-10.32-17.6 6-38.56-7.04-5.92-3.68-14.96 18.4-7.44 19.52" fill="url(#1770301555032-8214976_s)"></path><path d="M281.83 347.44c20.08-.16 40.8-11.6 48.72-21.76 10.48-13.44-18.32 9.76-44.48-1.28-7.44-3.12-12.96 23.12-4.24 23.04" fill="url(#1770301555032-8214976_t)"></path><path d="M282.79 326.48c23.12-3.52 45.2-18.64 53.6-29.84 5.12-6.8-25.44 6.48-58.08 8.32-9.12.48-5.44 22.96 4.48 21.52" fill="url(#1770301555032-8214976_u)"></path><path d="M256.07 295.68c17.12-11.52 42.08-15.04 55.6-12.96 8.16 1.28-20.8 11.04-42.64 29.2-6.16 5.04-20.32-11.28-12.96-16.24" fill="url(#1770301555032-8214976_v)"></path><path d="M227.43 293.84c13.92-11.68 35.52-16.96 47.68-16.32 7.36.4-17.12 11.52-34.48 29.52-4.88 5.04-19.2-8.16-13.2-13.2" fill="url(#1770301555032-8214976_w)"></path><path d="M202.08 293.68c11.44-9.6 29.2-13.92 39.2-13.44 6.08.32-14.08 9.52-28.32 24.24-4.08 4.16-15.84-6.64-10.88-10.8" fill="url(#1770301555032-8214976_x)"></path><path d="M419.99 127.44c-102.56 13.12-118.32 56-124.08 56.24-90.72 3.36-161.68 103.44-238.55 66.48C49.28 246.24 0 234.96 0 291.6c0 28.8 21.68 56.8 53.12 34.56 98.08-69.52 193.36-33.92 241.19-68.96 30-22 37.84-42.16 36.4-55.6-.88-8.64-3.6-42.24 89.28-74.16" fill="url(#1770301555032-8214976_y)"></path><path d="M57.28 276.64c4 3.68-26.96 30.96-31.12 26.88-11.6-11.44 15.44-41.44 31.12-26.88" class="bt" fill="#297124"></path><path d="M217.11 190.8c-20.4-8.56 7.12-85.68-6.08-63.84-44.88 74.4-12 105.12 6.08 63.84" class="by" fill="#529320"></path><path d="M201.84 188.72c-19.76.32-3.12-66.8-11.2-46.88-27.52 67.36 1.28 82.64 11.2 46.88" class="by" fill="#529320"></path><path d="M243.91 182.96C220.47 162 292.23 75.84 267.27 97.92c-85.68 75.92-63.28 130.24-23.36 85.04" class="by" fill="#529320"></path><path d="M275.35 164.8c-17.28-20.96 55.6-85.6 31.28-69.92-82.56 53.44-71.12 103.2-31.28 69.92m33.6 6.32c11.68-32.48 50.56-27.2 48.72-63.68-9.68 26.96-67.92 25.12-81.2 68.48z" class="by" fill="#529320"></path><path d="M284.71 172.08c8.88-33.36 51.04-40.4 46.16-76.48-7.44 27.68-64.24 38.4-73.84 82.72z" class="by" fill="#529320"></path><path d="M309.51 182.88c23.76-16.24 29.2-42.32 25.2-48.88-15.28 37.12-142.32 91.2-25.2 48.88" fill="url(#1770301555032-8214976_z)"></path><path d="M288.31 182.48c20.48-15.04 31.28-59.44 25.12-56.96-21.92 44.4-110.32 88.08-25.12 56.96" fill="url(#1770301555032-8214976_aa)"></path><path d="M263.19 184.16c23.12-22.96 26.24-67.2 21.36-62.8-24.8 37.36-86.48 120.16-21.36 62.8" fill="url(#1770301555032-8214976_ab)"></path><path d="M228.07 194.72c-24.72-11.36 14.64-88.32-.48-68.64-51.28 66.96-20.96 106.88.48 68.64" fill="url(#1770301555032-8214976_ac)"></path><path d="M216.47 206.4c-22.96 8.8-22.64-64.88-27.68-49.28-17.44 52.88 12.32 82.96 27.68 49.28" fill="url(#1770301555032-8214976_ad)"></path><path d="M207.28 215.36c-20.56 8.48-31.28-45.76-31.36-28.4-.48 58.96 36 57.76 31.36 28.4" fill="url(#1770301555032-8214976_ae)"></path><path d="M248.63 192.32c-7.2-19.44 29.52-90.8 11.36-72-58.88 60.72-40.8 107.92-11.36 72" fill="url(#1770301555032-8214976_af)"></path><path d="M256.31 211.6c9.92 22.24-21.6 41.2-46.4 22.96 8.8-34.48 41.12-34.8 46.4-22.96" fill="#fff"></path><path d="M243.43 224.8c.88 19.2-27.28 21.52-28.08 2.16-.8-19.2 27.44-21.52 28.08-2.16" fill="#302c3b"></path><path d="M235.03 214.4c6.16-.56 6.48 7.6.32 8.24-6.24.4-6.56-7.76-.32-8.24" fill="#6e8189"></path><path d="M194 237.2c6.48 8.96 70.88 27.28 74.96-35.36 0 0 13.12-11.44 49.68-18.4-37.84-10.96-116.96 4.64-124.64 53.76m17.83-3.36c5.6-25.52 33.28-28 39.84-19.12 12.96 17.44-24.56 29.6-39.84 19.12" class="bt" fill="#297124"></path><path d="M370.87 314.8c-7.52-3.44-12.88 25.84-4.08 25.68 20.32-.32 41.28-13.2 49.2-24.56 10.48-15.04-18.56 10.96-45.12-1.12" fill="url(#1770301555032-8214976_ag)"></path><path d="M344.07 361.52c28.48 4.16 60.72-9.04 74.48-23.04 18.16-18.56-28.4 11.04-62.72-11.92-9.76-6.56-24.08 33.12-11.76 34.96" fill="url(#1770301555032-8214976_ah)"></path><path d="M324.63 378c27.76 7.76 61.36-1.36 76.8-13.52 20.4-16.16-29.6 7.44-60.72-19.68-8.8-7.68-28.08 29.84-16.08 33.2" fill="url(#1770301555032-8214976_ai)"></path><path d="M324.95 369.44c-4.8-5.6-20.24 16.24-13.04 19.44 16.72 7.28 38.56 4.56 49.36-1.76 14.16-8.4-19.28 2-36.32-17.68" fill="url(#1770301555032-8214976_aj)"></path></g></svg>
