<svg xmlns="http://www.w3.org/2000/svg" data-name="Layer 1" style="" viewBox="0 0 512 512.01"><g><defs><linearGradient id="1770301555034-5381536_b" x1="26.37" x2="115.85" y1="232.4" y2="232.4" gradientTransform="matrix(1 0 0 -1 0 514.01)" gradientUnits="userSpaceOnUse"><stop offset=".3" stop-color="#e6ebef"></stop><stop offset=".59" stop-color="#e1e7eb"></stop><stop offset=".93" stop-color="#d3dbe0"></stop><stop offset="1" stop-color="#cfd8dd"></stop></linearGradient><linearGradient id="1770301555034-5381536_c" x1="26.37" x2="115.84" y1="283.6" y2="283.6" gradientTransform="matrix(1 0 0 -1 0 514.01)" gradientUnits="userSpaceOnUse"><stop offset="0" stop-color="#ff000e"></stop><stop offset=".73" stop-color="#dd0004"></stop><stop offset="1" stop-color="#cf0000"></stop></linearGradient><linearGradient id="1770301555034-5381536_d" x1="26.37" x2="115.85" y1="334.81" y2="334.81" gradientTransform="matrix(1 0 0 -1 0 514.01)" gradientUnits="userSpaceOnUse"><stop offset=".3" stop-color="#e6ebef"></stop><stop offset=".59" stop-color="#e1e7eb"></stop><stop offset=".93" stop-color="#d3dbe0"></stop><stop offset="1" stop-color="#cfd8dd"></stop></linearGradient><linearGradient id="1770301555034-5381536_e" x1="26.37" x2="115.85" y1="388.14" y2="388.14" gradientTransform="matrix(1 0 0 -1 0 514.01)" gradientUnits="userSpaceOnUse"><stop offset="0" stop-color="#ff000e"></stop><stop offset=".73" stop-color="#dd0004"></stop><stop offset="1" stop-color="#cf0000"></stop></linearGradient><linearGradient id="1770301555034-5381536_f" x1="168.59" x2="258.06" y1="232.4" y2="232.4" gradientTransform="matrix(1 0 0 -1 0 514.01)" gradientUnits="userSpaceOnUse"><stop offset=".3" stop-color="#e6ebef"></stop><stop offset=".59" stop-color="#e1e7eb"></stop><stop offset=".93" stop-color="#d3dbe0"></stop><stop offset="1" stop-color="#cfd8dd"></stop></linearGradient><linearGradient id="1770301555034-5381536_g" x1="168.59" x2="258.06" y1="283.6" y2="283.6" gradientTransform="matrix(1 0 0 -1 0 514.01)" gradientUnits="userSpaceOnUse"><stop offset="0" stop-color="#ff000e"></stop><stop offset=".73" stop-color="#dd0004"></stop><stop offset="1" stop-color="#cf0000"></stop></linearGradient><linearGradient id="1770301555034-5381536_h" x1="168.59" x2="258.06" y1="334.81" y2="334.81" gradientTransform="matrix(1 0 0 -1 0 514.01)" gradientUnits="userSpaceOnUse"><stop offset=".3" stop-color="#e6ebef"></stop><stop offset=".59" stop-color="#e1e7eb"></stop><stop offset=".93" stop-color="#d3dbe0"></stop><stop offset="1" stop-color="#cfd8dd"></stop></linearGradient><linearGradient id="1770301555034-5381536_i" x1="168.58" x2="258.07" y1="386" y2="386" gradientTransform="matrix(1 0 0 -1 0 514.01)" gradientUnits="userSpaceOnUse"><stop offset="0" stop-color="#ff000e"></stop><stop offset=".73" stop-color="#dd0004"></stop><stop offset="1" stop-color="#cf0000"></stop></linearGradient></defs><path d="M485.2 68.13c0 6.59-8.31 14.99-21.94 10.88-4.68 13.42-22.87 16.71-34.19 9.83-6.37 11.86-33.95 15.44-42.39 8.35-7.2 8.92-36.2 10.41-44.54.48-3.5 4.51-24.26 7.97-28.62 4.75-5.22 5.19-26.14 5.42-33.6 2.63-11.47 9.34-32.44 1.41-39.53-2.63-5.91 3.92-29.82 10.8-54.12 0 2.04-16.73 11.68-21.84 24.76-16.58 7.53-21.17 33.95-25.52 44.51-20.28 3.53-5.76 10.13-9.59 17.51-9.8 9.87-14.04 30.97-17.41 44.83-11.17 8.63-10.73 30.36-12.89 41.24-3.75 8-3.88 18.13-1.72 23.29 2.22 14.33-8.94 40.71-4.51 50.07 10.74 7.9-3.11 17.71-2.23 24.4 2.76 4.74-4.87 13.02-5.87 19.27-3 9.75-7.58 18.01-.79 32.25-2.44 8-.93-5.75 18.81-23.18 17.02Z" fill="#b3c2c6"></path><path d="m38.75 256.02-1.78 51.19h68.27l-1.77-51.19z" fill="url(#1770301555034-5381536_b)"></path><path d="M38.75 256.02h64.72l-1.76-51.22h-61.2z" fill="url(#1770301555034-5381536_c)"></path><path d="M40.51 204.8h61.2l-1.77-51.19H42.27z" fill="url(#1770301555034-5381536_d)"></path><path d="M42.27 153.61h57.67l-1.77-51.19c-27.06-9.64-54.12 0-54.12 0l-1.77 51.19Z" fill="url(#1770301555034-5381536_e)"></path><path d="m180.97 256.02-1.78 51.19h68.27l-1.78-51.19z" fill="url(#1770301555034-5381536_f)"></path><path d="M180.97 256.02h64.71l-1.75-51.22h-61.21z" fill="url(#1770301555034-5381536_g)"></path><path d="M182.72 204.8h61.21l-1.77-51.19h-57.67z" fill="url(#1770301555034-5381536_h)"></path><path d="M184.49 153.61h57.67l-1.78-51.19h-54.11z" fill="url(#1770301555034-5381536_i)"></path><path d="M284.43 512.01s34.15-116.47 0-244.62L142.2 317.05v-49.66L0 317.06v194.95z" fill="#ba8f6b"></path><path d="M142.2 260.28 0 309.94v8.54l142.2-49.67zm0 49.66v8.54l142.23-49.67v-8.53z" class="y" fill="#4e5e67"></path><path d="M0 494.95h284.43v17.07H0z" fill="#dbb002"></path><path d="M18.48 426.68h106.67v85.33H18.48z" class="y" fill="#4e5e67"></path><path d="M22.75 430.91h98.13v81.1H22.75z" class="t" fill="#6e8189"></path><path d="M63.82 496.01h16v5.33h-16zm95.46-69.33h106.67v85.33H159.28z" class="y" fill="#4e5e67"></path><path d="M163.55 430.91h98.13v81.1h-98.13z" class="t" fill="#6e8189"></path><path d="M204.62 496.01h16v5.33h-16z" class="y" fill="#4e5e67"></path><path d="M284.43 187.75H512v324.27H284.43z" fill="#d6a57c"></path><path d="M284.43 494.95H512v17.07H284.43z" fill="#f9c802"></path><path d="M284.43 179.21H512v8.53H284.43z" class="y" fill="#4e5e67"></path><path d="M496.35 409.61H300.08a4.28 4.28 0 0 0-4.27 4.27v98.13h204.8v-98.13a4.28 4.28 0 0 0-4.27-4.27Z" class="v" fill="#997558"></path><path d="M304.35 439.48h38.4v72.53h-38.4zm42.67-21.33h102.4v17.07h-102.4zm0 21.33h49.07v72.53h-49.07zm-42.67-21.33h38.4v17.07h-38.4zm149.33 0h38.4v17.07h-38.4zm0 21.33h38.4v72.53h-38.4zm-53.33 0h49.07v72.53h-49.07z" class="z" fill="#302c3b"></path><path d="M409.48 468.05v11.14a.773.773 0 0 0 1.54 0v-11.14a.773.773 0 0 0-1.54 0m-22.54 0v11.14a.764.764 0 0 1-1.52 0v-11.14a.764.764 0 0 1 1.52 0" fill="#fff"></path><path d="M304.89 217.61h186.67v59.73H304.89z" class="v" fill="#997558"></path><path d="M309.15 221.88h178.13v51.2H309.15z" class="z" fill="#302c3b"></path><path d="M426.49 217.61h4.27v59.73h-4.27zm-60.8 0h4.27v59.73h-4.27zm-60.8 98.14h186.67v59.73H304.89z" class="v" fill="#997558"></path><path d="M309.15 320.01h178.13v51.2H309.15z" class="z" fill="#302c3b"></path><path d="M426.49 315.75h4.27v59.73h-4.27zm-60.8 0h4.27v59.73h-4.27zM18.48 338.5h247.47v59.73H18.48z" class="v" fill="#997558"></path><path d="M22.75 342.77h238.93v51.2H22.75z" class="z" fill="#302c3b"></path><path d="M200.88 338.5h4.27v59.73h-4.27zm-60.8 0h4.27v59.73h-4.27zm-60.8 0h4.27v59.73h-4.27z" class="v" fill="#997558"></path><path d="M431.15 42.99c0 8.58-10.07 19.51-26.62 14.17-5.69 17.47-27.72 21.74-41.46 12.78-7.72 15.45-41.17 20.07-51.4 10.85-8.73 11.6-43.9 13.52-54.01.61-4.26 5.87-22.21 7.41-27.53 3.23-6.31 6.75-20.23 8.12-29.26 4.48-9.24 16.21-47.16 12.42-55.79 7.18-7.13 5.09-46.92 6.12-46.92 6.12H44.04c2.47-21.78 38.71-43.22 54.6-36.39 9.11-27.55 41.16-33.22 53.96-26.39a25.42 25.42 0 0 1 21.22-12.76c11.97-18.25 37.55-22.65 54.37-14.52C238.64-1.61 265-4.41 278.2 7.47c9.69-5.06 22.01-2.27 28.24 2.88 17.37-11.63 49.35-5.87 60.71 13.99 9.56-4.09 21.47-2.91 29.59 3.57 5.73-6.31 15.81-7.63 23.36-3.87 11.8-9.88 21.84-1.07 39.11-3.2 9.69-1.2-6.96 24.51-28.07 22.17Z" fill="#cfd8dd"></path></g></svg>
