<svg xmlns="http://www.w3.org/2000/svg" data-name="Layer 1" style="" viewBox="0 0 512 564.95"><g><defs><linearGradient id="1770301555037-300113_b" x1="256" x2="256" y1="2" y2="518.66" gradientTransform="matrix(1 0 0 -1 0 566.95)" gradientUnits="userSpaceOnUse"><stop offset=".1" stop-color="#f90"></stop><stop offset="1" stop-color="red"></stop></linearGradient><linearGradient id="1770301555037-300113_c" x1="271.32" x2="271.32" y1="10.65" y2="391.64" gradientTransform="matrix(1 0 0 -1 0 566.95)" gradientUnits="userSpaceOnUse"><stop offset="0" stop-color="#ffe600"></stop><stop offset=".16" stop-color="#ffc600"></stop><stop offset=".43" stop-color="#ff9700"></stop><stop offset=".67" stop-color="#ff7500"></stop><stop offset=".87" stop-color="#ff6100"></stop><stop offset="1" stop-color="#ff5900"></stop></linearGradient><linearGradient id="1770301555037-300113_d" x1="-1047.17" x2="-1047.17" y1="19.04" y2="194.79" gradientTransform="rotate(180 -398.12 283.475)" gradientUnits="userSpaceOnUse"><stop offset="0" stop-color="#fff8e3"></stop><stop offset=".21" stop-color="#ffeca9"></stop><stop offset=".49" stop-color="#ffdd61"></stop><stop offset=".73" stop-color="#ffd12d"></stop><stop offset=".9" stop-color="#ffcb0c"></stop><stop offset="1" stop-color="#ffc800"></stop></linearGradient><linearGradient id="1770301555037-300113_e" x1="70.27" x2="70.27" y1="298.33" y2="415.91" gradientTransform="matrix(1 0 0 -1 0 566.95)" gradientUnits="userSpaceOnUse"><stop offset="0" stop-color="#f90"></stop><stop offset=".18" stop-color="#ff9500"></stop><stop offset=".34" stop-color="#ff8b00"></stop><stop offset=".5" stop-color="#ff7800"></stop><stop offset=".65" stop-color="#ff5f00"></stop><stop offset=".79" stop-color="#ff3e00"></stop><stop offset=".93" stop-color="#ff1600"></stop><stop offset="1" stop-color="red"></stop></linearGradient><linearGradient id="1770301555037-300113_f" x1="432.3" x2="432.3" y1="261.61" y2="362.77" gradientTransform="matrix(1 0 0 -1 0 566.95)" gradientUnits="userSpaceOnUse"><stop offset="0" stop-color="#f90"></stop><stop offset=".18" stop-color="#ff9500"></stop><stop offset=".34" stop-color="#ff8b00"></stop><stop offset=".5" stop-color="#ff7800"></stop><stop offset=".65" stop-color="#ff5f00"></stop><stop offset=".79" stop-color="#ff3e00"></stop><stop offset=".93" stop-color="#ff1600"></stop><stop offset="1" stop-color="red"></stop></linearGradient></defs><path d="M475.18 258.2c23.57 96.57-48.37 134.44-91.01 94.81-78.65-72.91 102.13-154.83-41.67-240.99 49.17 103.46-70.09 119.79-70.53 57.2-.53-66.56-28.6-109.64-107.78-120.93 54.11 76.53 9.97 121.91-42.11 216.89-25.86 47.23-9.18 112.81-9.18 112.81S80.59 297.13 0 299.6c47.76 50.67 20.39 71.68 36.9 136.65 18.89 74.68 107.16 128.7 223.24 128.7 218.92 0 308.69-207.44 215.03-306.75Z" fill="url(#1770301555037-300113_b)"></path><path d="M454.52 391.23c-34.6 45.73-120.14 39.37-120.14 39.37 52.79-87.66-13.51-111.67 6.97-195.97-59.14 31.34-54.02 79.18-82.09 100.1-36.99 27.45-60.47-63.56-34.43-159.42C90.3 307.28 182.9 456.9 182.9 456.9s-61.97-3.71-94.28-54.82c-8.03 34.78 4.77 154.21 179.81 154.21 151.83-.09 195.7-119.96 186.08-165.07Z" fill="url(#1770301555037-300113_c)"></path><path d="M263.14 547.91c-113.08 0-128.53-45.28-128.53-80.42 33.19 59.32 104.52 32.31 86.86-4.24-15.54-32.04 4.41-88.45 66.03-91.1-48.46 68.24 19.68 125.17 79.09 93.3 6.36 38.4-35.13 82.45-103.46 82.45Z" fill="url(#1770301555037-300113_d)"></path><path d="M53.32 151.04c13.15 31.78 90.39 64.53 18.71 117.58-4.15-39.55-59.41-69.82-18.71-117.58" fill="url(#1770301555037-300113_e)"></path><path d="M450.02 204.18c-13.15 27.01-82.01 51.82-22.77 101.16 5.74-34.07 55.44-57.82 22.77-101.16" fill="url(#1770301555037-300113_f)"></path><path d="M308.87 0c-.26 25.95-42.46 67.79 18.45 88.71C319.73 59.4 348.06 24.54 308.87 0" fill="red"></path></g></svg>
