<svg xmlns="http://www.w3.org/2000/svg" data-name="Layer 1" style="" viewBox="0 0 512 546.06"><g><defs><radialGradient id="1770301555040-7306149_b" cx="256.89" cy="-1904.58" r="208.26" fx="256.89" fy="-1904.58" gradientTransform="matrix(1 0 0 -.26 0 6.27)" gradientUnits="userSpaceOnUse"><stop offset=".15" stop-color="#e8f1f7"></stop><stop offset=".42" stop-color="#dce7ed"></stop><stop offset=".92" stop-color="#bcccd3"></stop><stop offset="1" stop-color="#b6c7cf"></stop></radialGradient><radialGradient id="1770301555040-7306149_c" cx="260.8" cy="-683.32" r="262.12" fx="260.8" fy="-683.32" gradientTransform="matrix(1 0 0 -.45 0 129.32)" gradientUnits="userSpaceOnUse"><stop offset=".15" stop-color="#e8f1f7"></stop><stop offset=".42" stop-color="#dce7ed"></stop><stop offset=".92" stop-color="#bcccd3"></stop><stop offset="1" stop-color="#b6c7cf"></stop></radialGradient><radialGradient id="1770301555040-7306149_e" cx="256" cy="135.81" r="171.74" fx="256" fy="135.81" gradientTransform="matrix(1 0 0 -1.05 0 551.65)" gradientUnits="userSpaceOnUse"><stop offset=".15" stop-color="#e8f1f7"></stop><stop offset=".42" stop-color="#dce7ed"></stop><stop offset=".92" stop-color="#bcccd3"></stop><stop offset="1" stop-color="#b6c7cf"></stop></radialGradient><radialGradient id="1770301555040-7306149_f" cx="256.37" cy="-967.21" r="82.29" fx="256.37" fy="-967.21" gradientTransform="matrix(1 0 0 -.36 0 62.7)" gradientUnits="userSpaceOnUse"><stop offset=".15" stop-color="#e8f1f7"></stop><stop offset=".42" stop-color="#dce7ed"></stop><stop offset=".92" stop-color="#bcccd3"></stop><stop offset="1" stop-color="#b6c7cf"></stop></radialGradient><radialGradient id="1770301555040-7306149_g" cx="257.14" cy="-597.58" r="61.34" fx="257.14" fy="-597.58" gradientTransform="matrix(1 0 0 -.45 0 126.56)" gradientUnits="userSpaceOnUse"><stop offset=".15" stop-color="#e8f1f7"></stop><stop offset=".42" stop-color="#dce7ed"></stop><stop offset=".92" stop-color="#bcccd3"></stop><stop offset="1" stop-color="#b6c7cf"></stop></radialGradient><radialGradient id="1770301555040-7306149_h" cx="31.18" cy="598.9" r="40.91" fx="31.18" fy="598.9" gradientTransform="matrix(1.33 0 0 -4.42 214.41 2971.02)" gradientUnits="userSpaceOnUse"><stop offset="0" stop-color="#e8f1f7"></stop><stop offset=".61" stop-color="#cbd8e0"></stop><stop offset="1" stop-color="#b6c7cf"></stop></radialGradient><radialGradient id="1770301555040-7306149_i" cx="257.59" cy="-258.2" r="73.6" fx="257.59" fy="-258.2" gradientTransform="matrix(1 0 0 -.45 0 115.63)" gradientUnits="userSpaceOnUse"><stop offset=".15" stop-color="#e8f1f7"></stop><stop offset=".42" stop-color="#dce7ed"></stop><stop offset=".92" stop-color="#bcccd3"></stop><stop offset="1" stop-color="#b6c7cf"></stop></radialGradient><radialGradient id="1770301555040-7306149_j" cx="258.41" cy="-178.69" r="134.21" fx="258.41" fy="-178.69" gradientTransform="matrix(1 0 0 -.45 0 113.07)" gradientUnits="userSpaceOnUse"><stop offset=".15" stop-color="#e8f1f7"></stop><stop offset=".42" stop-color="#dce7ed"></stop><stop offset=".92" stop-color="#bcccd3"></stop><stop offset="1" stop-color="#b6c7cf"></stop></radialGradient><radialGradient id="1770301555040-7306149_k" cx="258.88" cy="-150.38" r="151.66" fx="258.88" fy="-150.38" gradientTransform="matrix(1 0 0 -.45 0 112.16)" gradientUnits="userSpaceOnUse"><stop offset=".15" stop-color="#e8f1f7"></stop><stop offset=".42" stop-color="#dce7ed"></stop><stop offset=".92" stop-color="#bcccd3"></stop><stop offset="1" stop-color="#b6c7cf"></stop></radialGradient><radialGradient id="1770301555040-7306149_m" cx="256" cy="368.1" r="103.02" fx="256" fy="368.1" gradientTransform="matrix(1 0 0 -1.05 0 551.65)" gradientUnits="userSpaceOnUse"><stop offset=".15" stop-color="#e8f1f7"></stop><stop offset=".42" stop-color="#dce7ed"></stop><stop offset=".92" stop-color="#bcccd3"></stop><stop offset="1" stop-color="#b6c7cf"></stop></radialGradient><linearGradient id="1770301555040-7306149_d" x1="256" x2="256" y1="99.48" y2="149.8" gradientTransform="matrix(1 0 0 -1 0 548.06)" gradientUnits="userSpaceOnUse"><stop offset="0" stop-color="#75d6ff"></stop><stop offset=".12" stop-color="#66cefe"></stop><stop offset=".72" stop-color="#1da9f9"></stop><stop offset="1" stop-color="#009af7"></stop></linearGradient><linearGradient id="1770301555040-7306149_l" x1="256" x2="256" y1="358.35" y2="388.54" gradientTransform="matrix(1 0 0 -1 0 548.06)" gradientUnits="userSpaceOnUse"><stop offset="0" stop-color="#75d6ff"></stop><stop offset=".12" stop-color="#66cefe"></stop><stop offset=".72" stop-color="#1da9f9"></stop><stop offset="1" stop-color="#009af7"></stop></linearGradient></defs><path d="M54.44 483.91v25.51c38.31 48.9 364.63 48.81 403.2 0v-25.51z" fill="url(#1770301555040-7306149_b)"></path><path d="M0 424.17c0 60.67 53.33 80.3 85.33 90.37 83.2 26.11 255.32 26.28 341.33 0 32-9.81 85.33-29.7 85.33-90.37z" fill="url(#1770301555040-7306149_c)"></path><path d="M256 388.33c141.4 0 256 16.04 256 35.84s-114.6 35.84-256 35.84S0 443.97 0 424.17s114.6-35.84 256-35.84" class="ab" fill="#e1ebf0"></path><path d="M256 398.23c133.8 0 242.26 21.67 242.26 21.67 0 15.79-108.46 28.59-242.26 28.59S13.74 435.69 13.74 419.9c0 .09 108.46-21.67 242.26-21.67" fill="url(#1770301555040-7306149_d)"></path><path d="M498.26 419.99c0-15.87-108.46-28.67-242.26-28.67s-242.26 12.8-242.26 28.67c0 2.65 3.07 5.21 8.79 7.68 13.74-14.25 112.98-25.26 233.47-25.26s219.73 11.01 233.47 25.26c5.72-2.47 8.79-5.03 8.79-7.68" fill="url(#1770301555040-7306149_e)"></path><path d="M328.19 407.02c0-5.55-32.34-10.07-72.19-10.07s-72.19 4.52-72.19 10.07l-2.82 13.23c0 9.05 33.54 16.3 75.01 16.3s74.92-7.34 75.01-16.3z" fill="url(#1770301555040-7306149_f)"></path><path d="M195.07 392.17v13.82c0 4.69 27.31 8.53 60.93 8.53s60.93-3.84 60.93-8.53v-13.82z" fill="url(#1770301555040-7306149_g)"></path><path d="M256 383.64c33.62 0 60.93 3.84 60.93 8.53s-27.31 8.53-60.93 8.53-60.93-3.84-60.93-8.53 27.31-8.53 60.93-8.53" class="ab" fill="#e1ebf0"></path><path d="M313.09 252.48H198.91c13.48 14.93 28.25 33.54 28.25 58.45 0 53.16-28.25 58.28-28.25 79.96 0 9.56 114.09 9.56 114.09 0 0-21.67-28.25-26.79-28.25-79.96.09-25 14.85-43.52 28.33-58.45Z" fill="url(#1770301555040-7306149_h)"></path><path d="M189.95 235.41c0 7.77 2.65 16.9 7.25 18.52 26.54 9.22 87.98 9.3 117.59 0 4.69-1.45 7.25-10.67 7.25-18.52h-132.1Z" fill="url(#1770301555040-7306149_i)"></path><path d="M127.57 186.52c0 41.9 26.79 48.9 42.84 53.93 41.73 13.14 128.09 13.23 171.26 0 16.04-4.95 42.84-12.03 42.84-53.93z" fill="url(#1770301555040-7306149_j)"></path><path d="M102.4 175.08c0 16.64 8.87 23.98 15.96 26.37 68.35 22.7 206.85 22.7 275.2 0 7.08-2.39 15.96-9.73 15.96-26.37z" fill="url(#1770301555040-7306149_k)"></path><path d="M256 153.58c84.82 0 153.6 9.64 153.6 21.5s-68.78 21.5-153.6 21.5-153.6-9.64-153.6-21.5 68.78-21.5 153.6-21.5" class="ab" fill="#e1ebf0"></path><path d="M256 159.55c80.3 0 145.32 12.97 145.32 12.97 0 9.47-65.11 17.15-145.32 17.15s-145.32-7.68-145.32-17.15c0 0 65.02-12.97 145.32-12.97" fill="url(#1770301555040-7306149_l)"></path><path d="M401.32 172.52c0-9.47-65.11-17.15-145.32-17.15s-145.32 7.68-145.32 17.15c0 1.62 1.88 3.16 5.29 4.61 8.28-8.53 67.75-15.19 140.03-15.19s131.84 6.66 140.03 15.19c3.41-1.45 5.29-2.99 5.29-4.61" fill="url(#1770301555040-7306149_m)"></path><path d="M280.66 177.13c0-140.2-24.66-140.2-24.66 0 2.13-128.34 23.38-133.12 24.66 0" class="z" style="isolation:isolate" opacity=".5" fill="#7dd9ff"></path><path d="M312.32 177.13c0-140.2-56.32-140.2-56.32 0 4.78-128.34 53.25-133.12 56.32 0" class="z" style="isolation:isolate" opacity=".5" fill="#7dd9ff"></path><path d="M347.22 177.13c0-138.41-91.22-138.41-91.22 0 7.77-126.72 86.19-131.5 91.22 0" class="z" style="isolation:isolate" opacity=".5" fill="#7dd9ff"></path><path d="M378.11 177.13c0-131.58-122.11-131.58-122.11 0 10.41-120.41 115.46-124.93 122.11 0" class="z" style="isolation:isolate" opacity=".5" fill="#7dd9ff"></path><path d="M231.42 177.13c0-140.2 24.66-140.2 24.66 0-2.05-128.34-23.3-133.12-24.66 0" class="z" style="isolation:isolate" opacity=".5" fill="#7dd9ff"></path><path d="M199.77 177.13c0-140.2 56.32-140.2 56.32 0-4.78-128.34-53.25-133.12-56.32 0" class="z" style="isolation:isolate" opacity=".5" fill="#7dd9ff"></path><path d="M164.95 177.13c0-138.41 91.22-138.41 91.22 0-7.77-126.72-86.27-131.5-91.22 0" class="z" style="isolation:isolate" opacity=".5" fill="#7dd9ff"></path><path d="M133.97 177.13c0-131.58 122.11-131.58 122.11 0-10.33-120.41-115.37-124.93-122.11 0" class="z" style="isolation:isolate" opacity=".5" fill="#7dd9ff"></path><path d="M278.27 177.13c0-126.55-22.27-126.55-22.27 0 1.88-115.88 21.08-120.23 22.27 0" class="z" style="isolation:isolate" opacity=".5" fill="#7dd9ff"></path><path d="M310.27 177.13c0-126.55-54.27-126.55-54.27 0 4.61-115.88 51.29-120.23 54.27 0" class="z" style="isolation:isolate" opacity=".5" fill="#7dd9ff"></path><path d="M345.43 177.13c0-125.01-89.43-125.01-89.43 0 7.59-114.43 84.57-118.7 89.43 0" class="z" style="isolation:isolate" opacity=".5" fill="#7dd9ff"></path><path d="M375.21 177.13c0-118.78-119.21-118.78-119.21 0 10.15-108.71 112.73-112.81 119.21 0" class="z" style="isolation:isolate" opacity=".5" fill="#7dd9ff"></path><path d="M233.9 177.13c0-126.55 22.27-126.55 22.27 0-1.96-115.88-21.08-120.23-22.27 0" class="z" style="isolation:isolate" opacity=".5" fill="#7dd9ff"></path><path d="M201.9 177.13c0-126.55 54.27-126.55 54.27 0-4.69-115.88-51.37-120.23-54.27 0" class="z" style="isolation:isolate" opacity=".5" fill="#7dd9ff"></path><path d="M166.66 177.13c0-125.01 89.43-125.01 89.43 0-7.59-114.43-84.57-118.7-89.43 0" class="z" style="isolation:isolate" opacity=".5" fill="#7dd9ff"></path><path d="M136.96 177.13c0-118.78 119.21-118.78 119.21 0-10.15-108.71-112.73-112.81-119.21 0" class="z" style="isolation:isolate" opacity=".5" fill="#7dd9ff"></path><path d="M151.04 136.26c-.85 3.16-5.03 2.47-4.18-.6.94-3.16 5.12-2.56 4.18.6m32 12.54c-.85 3.16-5.03 2.47-4.18-.6.94-3.16 5.12-2.56 4.18.6m11.78-17.32c-.85 3.16-5.03 2.47-4.18-.6.85-3.16 5.03-2.47 4.18.6m29.01 28.67c-.85 3.16-5.03 2.47-4.18-.6.85-3.16 5.03-2.56 4.18.6m3.84-37.63c-.85 3.16-5.03 2.47-4.18-.6s5.03-2.56 4.18.6M221.61 104c-.85 3.16-5.03 2.47-4.18-.6.85-3.16 5.03-2.56 4.18.6m-37.63 69.46c-.85 3.16-5.03 2.47-4.18-.6.85-3.16 5.03-2.56 4.18.6m-34.13-8.1c-.85 3.16-5.03 2.47-4.18-.6.85-3.16 5.03-2.47 4.18.6m42.75-4.7c-.85 3.16-5.03 2.47-4.18-.6.85-3.16 5.03-2.56 4.18.6m51.54-13.82c-.85 3.16-5.03 2.47-4.18-.6.85-3.16 5.03-2.47 4.18.6m5.03 25c-.85 3.16-5.03 2.47-4.18-.6.85-3.16 5.03-2.56 4.18.6m-15.78-36.61c-.85 3.16-5.03 2.47-4.18-.6.85-3.16 5.03-2.47 4.18.6m-29.61-16.64c-.85 3.16-5.03 2.47-4.18-.6s5.12-2.56 4.18.6m-39.68 12.8c-.6 2.22-3.58 1.79-2.9-.43.51-2.22 3.5-1.79 2.9.43m0-12.88c-.6 2.22-3.58 1.79-2.9-.43.51-2.22 3.5-1.79 2.9.43m-13.32 34.22c-.6 2.22-3.58 1.79-2.9-.43.6-2.22 3.5-1.79 2.9.43m63.49-12.8c-.6 2.22-3.58 1.79-2.9-.43.6-2.22 3.5-1.79 2.9.43m-24.49-31.75c-.6 2.22-3.58 1.79-2.9-.43.6-2.22 3.5-1.79 2.9.43m55.89 49.5c-.6 2.22-3.58 1.79-2.9-.43.6-2.22 3.58-1.79 2.9.43m-34.47 15.7c-.6 2.22-3.58 1.79-2.9-.43.6-2.22 3.5-1.79 2.9.43m147.29-36.7c.85 3.16 5.03 2.47 4.18-.6-.85-3.16-5.03-2.56-4.18.6m-29.44 12.12c.85 3.16 5.03 2.47 4.18-.6s-5.03-2.56-4.18.6m-11.7-17.32c.85 3.16 5.03 2.47 4.18-.6-.85-3.16-5.03-2.47-4.18.6m-29.01 23.72c.85 3.16 5.03 2.47 4.18-.6-.85-3.16-5.03-2.56-4.18.6m-1.11-31.83c.85 3.16 5.03 2.47 4.18-.6-.85-3.16-5.03-2.56-4.18.6m3.33-19.37c.85 3.16 5.03 2.47 4.18-.6-.85-3.16-5.03-2.56-4.18.6m37.55 71.08c.85 3.16 5.03 2.47 4.18-.6-.85-3.16-5.03-2.56-4.18.6m34.22-3.24c.85 3.16 5.03 2.47 4.18-.6-.94-3.16-5.12-2.56-4.18.6m-42.76-11.18c.85 3.16 5.03 2.47 4.18-.6-.94-3.16-5.12-2.56-4.18.6m-51.54-13.82c.85 3.16 5.03 2.47 4.18-.6-.85-3.16-5.03-2.47-4.18.6m-2.22 27.31c.85 3.16 5.03 2.47 4.18-.6-.85-3.16-5.03-2.47-4.18.6m12.97-38.92c.85 3.16 5.03 2.47 4.18-.6-.85-3.16-5.03-2.47-4.18.6m32.52-17.32c.85 3.16 5.03 2.47 4.18-.6s-5.03-2.56-4.18.6m23.21 18.69c.6 2.22 3.58 1.79 2.9-.43-.6-2.22-3.5-1.79-2.9.43m12.03-22.79c.6 2.22 3.58 1.79 2.9-.43-.6-2.22-3.5-1.79-2.9.43m14.85 38.92c.6 2.22 3.58 1.79 2.9-.43-.6-2.22-3.58-1.79-2.9.43m-63.58-12.8c.6 2.22 3.58 1.79 2.9-.43-.51-2.22-3.5-1.79-2.9.43m24.58-31.75c.6 2.22 3.58 1.79 2.9-.43-.6-2.22-3.5-1.79-2.9.43m-52.22 54.7c.6 2.22 3.58 1.79 2.9-.43-.51-2.22-3.5-1.71-2.9.43m26.88 8.79c.6 2.22 3.58 1.79 2.9-.43-.6-2.22-3.5-1.71-2.9.43M266.67 64.66C276.74-60.35 229.12 8 256.34 166.29 253.01 58 264.19-10.52 266.67 64.66" class="z" style="isolation:isolate" opacity=".5" fill="#7dd9ff"></path><path d="M269.14 64.32c-2.9-113.41-29.44-40.11-12.8 101.97-2.99-119.3 6.4-201.73 12.8-101.97" class="z" style="isolation:isolate" opacity=".5" fill="#7dd9ff"></path><path d="M273.32 72.26c-4.01-96-32.85-39.68-16.98 93.95-4.1-106.58 5.38-169.81 16.98-93.95" class="z" style="isolation:isolate" opacity=".5" fill="#7dd9ff"></path><path d="M265.22 95.21c3.75-100.44-19.46-52.99-8.87 71 1.28-103 8.79-153.34 8.87-71" class="z" style="isolation:isolate" opacity=".5" fill="#7dd9ff"></path><path d="M260.18 439.53h8.53c21.25-195.75 116.91-235.78 133.63-7.77.09-240.13-133.8-204.71-142.17 7.77Z" class="aa" style="isolation:isolate" opacity=".5" fill="#21beff"></path><path d="M260.44 439.53h9.05c18.94-157.44 96.26-193.96 112.9-6.83-.09-197.55-113.66-164.61-121.94 6.83Z" class="aa" style="isolation:isolate" opacity=".5" fill="#21beff"></path><path d="M278.7 439.53h9.05c29.18-148.48 141.23-192 158.72-16.38 0-185.51-146.26-145.07-167.77 16.38" class="z" style="isolation:isolate" opacity=".5" fill="#7dd9ff"></path><path d="M279.55 439.53h9.3c29.61-120.06 123.65-159.15 136.87-14.76-.09-154.54-124.67-117.42-146.18 14.76Z" class="z" style="isolation:isolate" opacity=".5" fill="#7dd9ff"></path><path d="M292.95 436.63h8.45c39.51-169.56 156.76-206.85 173.65-7.68 0-211.54-156.33-165.21-182.1 7.68" class="aa" style="isolation:isolate" opacity=".5" fill="#21beff"></path><path d="M294.49 436.63h9.05c39-129.79 141.99-162.22 157.95-6.06 0-167.17-138.5-127.23-167 6.06" class="aa" style="isolation:isolate" opacity=".5" fill="#21beff"></path><path d="M251.82 439.53c-8.36-212.48-148.05-237.14-142.25-7.77 22.02-222.81 106.67-181.85 133.63 7.77z" class="z" style="isolation:isolate" opacity=".5" fill="#7dd9ff"></path><path d="M242.6 439.53h9.05c-8.36-171.43-121.94-204.37-121.94-6.83 11.35-188.5 97.19-148.74 112.9 6.83Z" class="z" style="isolation:isolate" opacity=".5" fill="#7dd9ff"></path><path d="M233.3 439.53c-21.5-161.45-167.77-201.9-167.77-16.38 15.62-174.25 130.56-130.22 158.72 16.38z" class="z" style="isolation:isolate" opacity=".5" fill="#7dd9ff"></path><path d="M232.45 439.53c-21.5-132.18-146.09-169.3-146.09-14.76 12.89-143.87 107.18-104.79 136.87 14.76z" class="z" style="isolation:isolate" opacity=".5" fill="#7dd9ff"></path><path d="M219.05 436.63c-25.77-172.89-182.02-219.22-182.02-7.68 13.48-193.54 132.95-163.41 173.65 7.68h8.36Z" class="aa" style="isolation:isolate" opacity=".5" fill="#21beff"></path><path d="M217.51 436.63c-28.5-133.29-167-173.23-167-6.06 15.96-157.27 119.47-124.25 157.95 6.06z" class="aa" style="isolation:isolate" opacity=".5" fill="#21beff"></path><path d="M445.18 386.03c1.02 3.84 5.72 3.07 4.69-.77-.94-3.84-5.72-3.07-4.69.77m-78.33 3.41c.94 3.84 5.72 3.07 4.69-.77-.94-3.93-5.72-3.16-4.69.77m-24.66-26.88c1.02 3.84 5.72 3.07 4.69-.77-.94-3.93-5.63-3.16-4.69.77m69.71 38.91c1.02 3.84 5.72 3.07 4.69-.77-.94-3.84-5.63-3.07-4.69.77m-61.18-21.24c.94 3.84 5.72 3.07 4.69-.77-.94-3.93-5.72-3.16-4.69.77m40.02-10.5c.94 3.84 5.72 3.07 4.69-.77-.94-3.93-5.72-3.16-4.69.77m-33.45 38.91c1.02 3.84 5.72 3.07 4.69-.77-.94-3.93-5.63-3.16-4.69.77m46.08 4.27c1.02 3.84 5.72 3.07 4.69-.77-.94-3.93-5.72-3.16-4.69.77m-67.58 2.9c1.02 3.84 5.72 3.07 4.69-.77-.94-3.93-5.72-3.07-4.69.77m51.45 7.42c1.02 3.84 5.72 3.07 4.69-.77-.94-3.84-5.63-3.07-4.69.77m45.83-21.76c1.02 3.84 5.72 3.07 4.69-.77-.94-3.84-5.63-3.07-4.69.77m22.87 1.54c1.02 3.84 5.72 3.07 4.69-.77-.94-3.93-5.72-3.16-4.69.77m-52.57-34.65c1.02 3.84 5.72 3.07 4.69-.77-.94-3.84-5.72-3.07-4.69.77m-76.12 11.69c.68 2.73 4.01 2.13 3.33-.51-.77-2.73-4.1-2.22-3.33.51m40.28 43.1c.68 2.73 4.01 2.13 3.33-.51-.68-2.73-4.01-2.22-3.33.51m-12.03-66.56c.68 2.73 4.01 2.13 3.33-.51-.68-2.73-4.01-2.22-3.33.51m46.76 34.39c.68 2.73 4.01 2.13 3.33-.51-.68-2.82-4.01-2.22-3.33.51m39.34 28.41c.68 2.73 4.01 2.13 3.33-.51-.68-2.73-4.01-2.22-3.33.51m-10.33-39.34c.68 2.73 4.01 2.13 3.33-.51-.68-2.73-4.01-2.22-3.33.51m-53.5-29.35c.68 2.73 4.01 2.13 3.33-.51-.68-2.73-4.01-2.22-3.33.51m46.93 8.79c.68 2.73 4.01 2.13 3.33-.51-.68-2.73-4.01-2.22-3.33.51M66.82 386.03c-.94 3.84-5.72 3.07-4.69-.77.94-3.84 5.72-3.07 4.69.77m78.33 3.41c-1.02 3.84-5.72 3.07-4.69-.77.94-3.93 5.72-3.16 4.69.77m24.66-26.88c-.94 3.84-5.72 3.07-4.69-.77.94-3.93 5.63-3.16 4.69.77m-69.71 38.91c-.94 3.84-5.72 3.07-4.69-.77.94-3.84 5.63-3.07 4.69.77m61.18-21.24c-1.02 3.84-5.72 3.07-4.69-.77.94-3.93 5.72-3.16 4.69.77m-40.02-10.5c-1.02 3.84-5.72 3.07-4.69-.77.94-3.93 5.72-3.16 4.69.77m33.45 38.91c-.94 3.84-5.72 3.07-4.69-.77.94-3.93 5.63-3.16 4.69.77m-46.08 4.27c-.94 3.84-5.72 3.07-4.69-.77.94-3.93 5.72-3.16 4.69.77m67.58 2.9c-.94 3.84-5.72 3.07-4.69-.77s5.72-3.07 4.69.77m-51.45 7.42c-.94 3.84-5.72 3.07-4.69-.77.94-3.84 5.63-3.07 4.69.77m-45.83-21.76c-.94 3.84-5.72 3.07-4.69-.77.94-3.84 5.63-3.07 4.69.77m-22.87 1.54c-1.02 3.84-5.72 3.07-4.69-.77.94-3.93 5.72-3.16 4.69.77m52.57-34.65c-.94 3.84-5.72 3.07-4.69-.77.94-3.84 5.72-3.07 4.69.77m76.12 11.69c-.68 2.73-4.01 2.13-3.33-.51.77-2.73 4.1-2.22 3.33.51m-40.28 43.1c-.68 2.73-4.01 2.13-3.33-.51.68-2.73 4.01-2.22 3.33.51m12.03-66.56c-.68 2.73-4.01 2.13-3.33-.51.68-2.73 4.01-2.22 3.33.51m-46.76 34.39c-.68 2.73-4.01 2.13-3.33-.51.68-2.82 4.01-2.22 3.33.51M70.4 419.39c-.68 2.73-4.01 2.13-3.33-.51.68-2.73 4.01-2.22 3.33.51m10.33-39.34c-.68 2.73-4.01 2.13-3.33-.51.68-2.73 4.01-2.22 3.33.51m53.5-29.35c-.68 2.73-4.01 2.13-3.33-.51s4.01-2.22 3.33.51m-46.93 8.79c-.68 2.73-4.01 2.13-3.33-.51.68-2.73 4.01-2.22 3.33.51M237.31 40.51c.6 2.22 3.58 1.79 2.9-.43-.6-2.22-3.5-1.79-2.9.43m-4.95 27.82c.6 2.22 3.58 1.79 2.9-.43-.51-2.22-3.5-1.79-2.9.43m14-13.22c.6 2.22 3.58 1.79 2.9-.43-.6-2.22-3.5-1.79-2.9.43m2.22-33.88c.6 2.22 3.58 1.79 2.9-.43-.6-2.22-3.5-1.79-2.9.43m19.45-8.79c-1.37 1.88.85 3.84 2.22 2.05 1.28-1.88-.85-3.93-2.22-2.05m5.72 22.36c-1.37 1.88.85 3.84 2.22 2.05 1.28-1.88-.94-3.84-2.22-2.05m10.84 11.26c-1.37 1.88.85 3.84 2.22 2.05 1.28-1.96-.85-3.93-2.22-2.05m-9.13 15.36c-1.02 1.45.68 2.99 1.71 1.54 1.02-1.37-.68-2.99-1.71-1.54m-37.12-8.96c-1.02 1.45.68 2.99 1.71 1.54 1.02-1.45-.68-2.99-1.71-1.54m2.3-35.93c-1.02 1.45.68 2.99 1.71 1.54 1.02-1.45-.68-2.99-1.71-1.54" class="z" style="isolation:isolate" opacity=".5" fill="#7dd9ff"></path><path d="M104.87 424c0-94.12 94.55-82.94 94.55 11.18-8.02-86.19-89.34-100.61-94.55-11.18" class="z" style="isolation:isolate" opacity=".5" fill="#7dd9ff"></path><path d="M107.26 424.94c0-86.19 92.16-75.95 92.16 10.24-7.85-78.85-87.13-92.07-92.16-10.24" class="z" style="isolation:isolate" opacity=".5" fill="#7dd9ff"></path><path d="M60.07 424.68c0-89.43 122.28-81.66 122.28 7.77-10.41-81.83-115.63-92.67-122.28-7.77" class="aa" style="isolation:isolate" opacity=".5" fill="#21beff"></path><path d="M63.32 425.62c0-78.68 118.95-71.85 118.95 6.83-10.07-71.94-112.38-81.49-118.95-6.83" class="aa" style="isolation:isolate" opacity=".5" fill="#21beff"></path><path d="M407.13 424c0-94.12-94.55-82.94-94.55 11.18 8.02-86.19 89.34-100.61 94.55-11.18" class="z" style="isolation:isolate" opacity=".5" fill="#7dd9ff"></path><path d="M404.74 424.94c0-86.19-92.16-75.95-92.16 10.24 7.85-78.85 87.13-92.07 92.16-10.24" class="z" style="isolation:isolate" opacity=".5" fill="#7dd9ff"></path><path d="M451.93 424.68c0-89.43-122.28-81.66-122.28 7.77 10.41-81.83 115.63-92.67 122.28-7.77" class="aa" style="isolation:isolate" opacity=".5" fill="#21beff"></path><path d="M448.68 425.62c0-78.68-118.95-71.85-118.95 6.83 10.07-71.94 112.38-81.49 118.95-6.83" class="aa" style="isolation:isolate" opacity=".5" fill="#21beff"></path></g></svg>
