<svg xmlns="http://www.w3.org/2000/svg" data-name="Layer 1" style="" viewBox="0 0 512 512.01"><g><defs><radialGradient id="1770301555056-6657714_b" cx="207.3" cy="325.41" r="48.64" fx="207.3" fy="325.41" gradientTransform="matrix(1 0 0 -1.28 -.09 638.16)" gradientUnits="userSpaceOnUse"><stop offset=".19" stop-color="#fff"></stop><stop offset=".95" stop-color="#fff" stop-opacity="0"></stop></radialGradient><linearGradient id="1770301555056-6657714_c" x1="226.46" x2="226.46" y1="2.03" y2="290.25" gradientTransform="matrix(1 0 0 -1 0 514.01)" gradientUnits="userSpaceOnUse"><stop offset="0" stop-color="#4ecee6"></stop><stop offset=".2" stop-color="#46c9e8"></stop><stop offset=".5" stop-color="#30baec"></stop><stop offset=".88" stop-color="#0da3f4"></stop><stop offset="1" stop-color="#009af7"></stop></linearGradient></defs><path d="M433.67 144.13s-22.44-62.58-27.33-67.53c-1.15-1.19-25.57-17.37-25.57-17.37l-4.34 169.27h71.1z" class="g" fill="#6e8189"></path><path d="M343.94 70.41c3.9 34.39 57.62 37.42 57.62 37.42-.02-5.68-13.99-29.29-13.99-29.29-2.78-2.91-6.78-19.32-6.78-19.32l-36.84 11.19Zm-145.88-2.53s-16.13 17.69-17.12 18.76c-4.04 4.51-5.07 55.08-8.67 66.97-6.96 20.46-25.86 74.87-25.86 74.87l79.39-122.19-27.75-38.42Z" class="k" fill="#99a8ae"></path><path d="M198.06 67.88s3.92 20.72-6.28 33.99l-9.52 80.25 48.55-80.52-32.74-33.72Z" class="g" fill="#6e8189"></path><path d="m297.75 0-50.64 22.73-19.35 81.37-81.35 124.38h270.76S365.61 104.92 297.75 0" class="g" fill="#6e8189"></path><path d="m191.78 101.87-8.67 39.31 1.96 13.55-38.66 73.76 49.49-72.65-6.28-10.24zm201.85 13.31s-35.5-71.77-54.46-91.03C317.07 13.61 297.76 0 297.76 0c1.96 19.13-18.85 40.16-34.88 56.76l34.27 1.13 16.03 43.99-39.01-23.52-17.42 46.57-59.3 76.11 85.3-78.21-30.42 52.01-17.6 53.65 61.55-51.79-7.24 51.79h57.22l-6.06-61.76 56.06 47.23-57.05-94.23 84.92 108.77-30.48-113.31Z" fill="#4e5e67"></path><path d="M228.83 99.59c-2.32-2.4-14.58 3.28-16.19 6.51-19.49 39.25-28.54 122.39-28.54 122.39h37.16s-6.68-73.84 7.57-128.9" class="l" fill="#b1e5fd"></path><path d="M259.38 220.57H156.3c0-87.76 103.08-87.76 103.08 0" fill="url(#1770301555056-6657714_b)"></path><path d="M76.75 234.25s1.42-16.98 20.4-16.98c8.67-16.36 17.31-19.76 26.81-8.39 5.21-8.2 17.08-8.2 25.86 2.05 9.73-6.95 20.33-1.09 24.19 5.13 4.68-7.75 22.86-14.45 26.34 3.34 6.12-12.66 28.27-10.5 36.76-2.12 5.92-13.78 28.96-21.66 34.65-4.04 10.16-19.52 29.78-12.01 41.05-3.85 3.02-5.21 24.12-12.41 35.34 1.54 8.93-7.83 21.4-11.36 28.31.51-3.06-22.25 28.16-15.63 30.77-2.82 6.63-11.12 22.92-9.32 26.57-.25 5.2-3.29 19.15-.29 18.5 12.96 7.86-1.19 23.48 20.86 23.48 20.86l-399.03-7.95Z" fill="#77b516"></path><path d="M86.52 234.31C43.62 250.12 0 297.89 0 350.32c0 215.59 506.41 215.59 506.41 0 0-54.25-47.49-115.01-83.58-121.82-117-22.12-202.24-4.73-202.24-4.73-50.34 0-72.94-11.99-134.07 10.54" fill="#92c932"></path><path d="M202.78 255.11c-32.91-9.62 17.82-31.35 17.82-31.35-45.08 0-216.01 21.32-49.43 70.89 113.19 31.21-27.3 110.57-127.93 150.94 57.37 53.08 162.59 74.34 258.3 63.74 237.76-141 27.52-217.25-98.76-254.23Z" fill="url(#1770301555056-6657714_c)"></path><path d="M276.36 214.3c1.16.49 2.04.96 2.04.96-2.42-6.03-4.35-11.34-5.93-15.98.67.18 1.65.79 3.13 2.07-2.17-5.69-3.78-10.49-5.1-14.57 1.32.18 2.88 1.04 2.88 1.04-12.11-30.23-4.04-31.06-17.31-.41 1.37-1.09 2.15-1.45 2.66-1.43-1.59 4.14-3.56 9.03-6.2 14.82 0 0 1.22-.61 2.57-.96-1.65 4.32-3.63 9.22-6.01 14.75 1.03-.81 1.89-1.39 2.59-1.79-1.76 4.65-3.69 8.1-5.89 14.1 0 0 4.51 5.32 9.73 2.11 5.59 4.36 10.68 4.36 14.24 0 2.96 1.55 8.3 2.21 10.67-2.73-1.51-5.08-2.84-7.83-4.06-11.96Zm-138.8-1.79c.99.43 1.78.85 1.78.85-2.13-5.3-3.83-9.97-5.21-14.05.59.17 1.43.68 2.75 1.82-1.91-4.99-3.35-9.2-4.5-12.8 1.16.15 2.54.91 2.54.91-10.65-26.58-3.55-27.32-15.23-.36 1.22-.96 1.91-1.28 2.35-1.28-1.38 3.65-3.13 7.95-5.46 13.05 0 0 1.07-.54 2.26-.85-1.43 3.81-3.18 8.11-5.27 12.96.89-.73 1.65-1.23 2.26-1.57-1.54 4.09-3.24 7.12-5.15 12.37 0 0 3.95 4.68 8.54 1.85 4.92 3.84 9.4 3.84 12.52 0 2.61 1.37 7.3 1.95 9.38-2.38-1.31-4.46-2.49-6.89-3.55-10.52Z" class="q" fill="#014f27"></path><path d="M114.56 215.96c1.31.72 2.28 1.38 2.28 1.38-2.34-7.95-4.16-14.97-5.67-21.08.77.3 1.84 1.13 3.46 2.91a408 408 0 0 1-4.8-19.21c1.52.32 3.23 1.55 3.23 1.55-11.74-40-2.38-40.41-19.94-1.85 1.66-1.31 2.6-1.71 3.18-1.67-2.13 5.27-4.77 11.45-8.24 18.71 0 0 1.47-.7 3.03-1.08-2.22 5.45-4.83 11.64-8 18.6 1.25-.96 2.27-1.66 3.11-2.11-2.37 5.86-4.86 10.16-7.83 17.76 0 0 4.8 7.2 11.04 3.47 6.11 6.06 11.98 6.46 16.41 1.09 3.3 2.21 9.42 3.48 12.5-2.73-1.32-6.68-2.67-10.34-3.77-15.76Z" class="f" fill="#297124"></path><path d="M323.35 219.78c1.09.38 1.94.75 1.94.75-2.3-4.67-4.12-8.77-5.62-12.36.64.14 1.55.59 2.96 1.6-2.04-4.41-3.58-8.12-4.82-11.27 1.25.13 2.71.79 2.71.79-11.46-23.41-3.81-24.04-16.4-.32 1.29-.84 2.05-1.13 2.53-1.13-1.5 3.23-3.38 7-5.87 11.5 0 0 1.14-.48 2.43-.76-1.57 3.35-3.43 7.14-5.7 11.41.99-.62 1.78-1.08 2.44-1.38-1.64 3.6-3.49 6.26-5.56 10.91 0 0 4.27 4.11 9.22 1.64 5.27 3.38 10.12 3.38 13.49 0 2.8 1.2 7.86 1.71 10.11-2.12-1.43-3.94-2.71-6.06-3.85-9.27Z" class="q" fill="#014f27"></path><path d="M395.29 213.53c1.65.55 2.9 1.13 2.9 1.13a343 343 0 0 1-8.45-18.57c.97.2 2.35.9 4.45 2.4-3.05-6.6-5.38-12.18-7.25-16.92 1.89.2 4.1 1.19 4.1 1.19-17.22-35.1-5.75-36.05-24.63-.46 1.95-1.25 3.05-1.7 3.77-1.68a256 256 0 0 1-8.81 17.24s1.73-.7 3.67-1.13c-2.35 5.02-5.15 10.72-8.55 17.14 1.48-.96 2.67-1.63 3.67-2.08-2.47 5.39-5.25 9.39-8.36 16.37 0 0 6.4 6.18 13.83 2.46 7.92 5.06 15.17 5.06 20.24 0 4.2 1.79 11.78 2.56 15.16-3.18-2.11-5.91-4.03-9.1-5.75-13.89Zm58.13-13.13c1.81.74 3.18 1.52 3.18 1.52a506 506 0 0 1-9.25-25.01c1.06.28 2.56 1.22 4.88 3.25a470 470 0 0 1-7.95-22.81c2.07.28 4.48 1.61 4.48 1.61-18.87-47.27-6.28-48.55-26.98-.62 2.14-1.71 3.37-2.29 4.15-2.26a372 372 0 0 1-9.67 23.2s1.92-.94 4.04-1.52a592 592 0 0 1-9.4 23.06c1.63-1.28 2.93-2.19 4.03-2.8-2.7 7.27-5.75 12.64-9.16 22.04 0 0 7.01 8.32 15.15 3.31 8.69 6.82 16.62 6.82 22.19 0 4.61 2.41 12.93 3.46 16.63-4.28-2.32-7.94-4.41-12.24-6.31-18.7Zm-208.3 20.5c1.14.38 2.01.74 2.01.74-2.41-4.68-4.34-8.79-5.92-12.38.67.14 1.65.6 3.11 1.6-2.15-4.41-3.77-8.13-5.09-11.29 1.32.13 2.88.79 2.88.79-12.12-23.43-4.04-24.07-17.32-.31 1.37-.85 2.18-1.13 2.67-1.12-1.58 3.22-3.56 7-6.2 11.5 0 0 1.21-.47 2.57-.75-1.65 3.35-3.63 7.14-6.02 11.43 1.05-.64 1.89-1.1 2.59-1.4-1.74 3.61-3.69 6.27-5.88 10.93 0 0 4.51 4.11 9.74 1.64 5.56 3.38 10.68 3.38 14.23 0 2.97 1.19 8.31 1.71 10.68-2.12-1.52-3.95-2.84-6.07-4.04-9.28Zm57.86 14.59c1.5.47 2.64.96 2.64.96-3.14-6.09-5.65-11.46-7.73-16.15.89.18 2.16.79 4.09 2.09-2.82-5.76-4.94-10.59-6.64-14.75 1.72.18 3.75 1.04 3.75 1.04-15.8-30.54-5.27-31.39-22.58-.4 1.78-1.09 2.82-1.48 3.46-1.47-2.05 4.2-4.63 9.14-8.07 15.01 0 0 1.59-.61 3.35-.96-2.16 4.35-4.73 9.3-7.84 14.89 1.35-.84 2.47-1.42 3.37-1.83-2.29 4.7-4.82 8.18-7.68 14.26 0 0 5.89 5.36 12.69 2.14 7.28 4.39 13.92 4.39 18.56 0 3.87 1.55 10.82 2.23 13.91-2.78-1.95-5.12-3.69-7.88-5.27-12.05Z" class="f" fill="#297124"></path><path d="M430.87 231.82c2.18.69 3.83 1.41 3.83 1.41a413 413 0 0 1-11.2-23.42c1.26.25 3.11 1.13 5.91 3.02a366 366 0 0 1-9.64-21.38c2.51.26 5.44 1.52 5.44 1.52-22.9-44.31-7.65-45.53-32.74-.59 2.58-1.58 4.09-2.15 5.01-2.12-2.95 6.09-6.72 13.26-11.7 21.77 0 0 2.3-.89 4.86-1.42-3.12 6.33-6.85 13.51-11.37 21.62 1.96-1.22 3.56-2.07 4.88-2.66-3.3 6.83-7.01 11.88-11.14 20.68 0 0 8.53 7.78 18.4 3.09 10.54 6.39 20.19 6.39 26.92 0 5.6 2.27 15.68 3.24 20.16-4-2.8-7.43-5.32-11.47-7.63-17.52Z" class="q" fill="#014f27"></path><path d="M353.18 242.21c1.89.6 3.31 1.23 3.31 1.23-3.95-7.66-7.09-14.4-9.69-20.28 1.09.22 2.69.98 5.12 2.63-3.54-7.23-6.2-13.3-8.33-18.5 2.17.22 4.71 1.31 4.71 1.31-19.83-38.33-6.62-39.39-28.34-.51 2.24-1.37 3.53-1.83 4.34-1.83-2.58 5.26-5.82 11.46-10.13 18.82 0 0 1.98-.75 4.22-1.23-2.72 5.49-5.94 11.7-9.85 18.71 1.68-1.04 3.09-1.77 4.22-2.29-2.86 5.89-6.03 10.27-9.64 17.89 0 0 7.39 6.73 15.92 2.68 9.12 5.51 17.48 5.51 23.29 0 4.86 1.95 13.59 2.81 17.47-3.47-2.45-6.42-4.63-9.91-6.61-15.14Z" class="m" fill="#529320"></path><path d="M75.91 250.97c1.5.38 2.67.84 2.67.84-4.01-7.18-7.29-13.5-10.04-19.04.86.1 2.18.66 4.22 2.01-3.64-6.78-6.44-12.5-8.76-17.41 1.66-.03 3.75.74 3.75.74-20.1-35.79-10.22-38.38-21.54 2.82 1.51-1.61 2.42-2.24 3.05-2.32-1.26 5.54-2.9 12.1-5.2 19.91 0 0 1.43-.97 3.03-1.71a526 526 0 0 1-4.97 19.74c1.13-1.23 2.09-2.12 2.88-2.76-1.4 6.21-3.23 10.92-4.93 18.93 0 0 6.5 5.84 12.41.79 7.65 4.41 13.99 3.43 17.66-2.75 3.94 1.37 10.67 1.19 12.78-5.51-2.72-6.11-4.82-9.34-7.01-14.28" class="f" fill="#297124"></path><path d="M409.76 264.18c2.06.66 3.63 1.34 3.63 1.34-4.33-8.41-7.79-15.81-10.63-22.25 1.21.26 2.94 1.07 5.61 2.87-3.87-7.92-6.79-14.59-9.14-20.3 2.36.25 5.15 1.44 5.15 1.44-21.76-42.09-7.27-43.24-31.1-.56 2.47-1.5 3.87-2.01 4.78-2-2.83 5.78-6.39 12.59-11.14 20.68 0 0 2.2-.86 4.65-1.37-3 6.02-6.53 12.84-10.82 20.53 1.87-1.13 3.38-1.95 4.63-2.51-3.13 6.49-6.64 11.28-10.57 19.64 0 0 8.11 7.39 17.48 2.94 10.01 6.06 19.17 6.06 25.55 0 5.32 2.15 14.91 3.06 19.17-3.81-2.69-7.08-5.07-10.91-7.24-16.65Z" class="m" fill="#529320"></path><path d="M459.93 296.06H440.9s-2.59 29.93-2.59 45.14c0 7.38 24.2 7.38 24.2 0 0-9.11-2.59-45.14-2.59-45.14Z" class="h" fill="#785647"></path><path d="M512 313.07c-61.87-120.87-58.18-124.97-128.23 3.32 0 0 51.03-18.89 27.99 15.88 28.19-4.03 35.02-39.03 66.41 0 12.65-11.12-2.07-39.86 33.83-19.2" class="f" fill="#297124"></path><path d="M394.77 283.54c78.82-121.21 28.25-117.23 108.67 0 0 0-44.01-14.57-24.13 12.25-29.41 4.15-31.95-36.23-57.28 0-10.91-8.59 3.72-28.16-27.26-12.25" class="m" fill="#529320"></path><path d="M491.9 251.53c-62.05-95.39-22.24-92.26-85.56 0 0 0 34.66-11.43 19.02 9.66 23.13 3.27 25.13-28.53 45.06 0 8.58-6.76-2.92-22.17 21.48-9.66" class="f" fill="#297124"></path><path d="M418.33 220.39c46.52-71.55 16.67-69.21 64.16 0 0 0-25.99-8.6-14.26 7.22-17.37 2.46-18.85-21.38-33.79 0-6.44-5.06 2.18-16.62-16.11-7.22" class="m" fill="#529320"></path><path d="M301.76 365.71c-1.3 10.11 37.87 15.73 37.87 15.73l4.3-4.99-8.38-16.54s-21.43-.89-33.79 5.8" class="g" fill="#6e8189"></path><path d="M292.81 381.44h46.83l-11.06-16.65-26.82.92z" class="k" fill="#99a8ae"></path><path d="M227.31 346.97c-.52 6.72 15.11 10.46 15.11 10.46l7.49-5.54-8.61-6.14s-9.07-3.23-13.99 1.21Z" class="g" fill="#6e8189"></path><path d="M223.74 357.44h18.67l-4.63-7.18-10.47-3.29z" class="k" fill="#99a8ae"></path><path d="M255.38 412.13c-.87 11.36 25.58 17.67 25.58 17.67l9.44-8.84v-7.59s-26.68-8.79-35.02-1.25Z" class="g" fill="#6e8189"></path><path d="M243.92 429.8h37.04l2.45-12.32-28.03-5.35z" class="k" fill="#99a8ae"></path><path d="M213.74 360.41c17.67 2.41 44.25-1.6 37.64 1.39-2.91 1.32-26.27 2.82-37.64-1.39m96.75 35.64c17.84.64 43.89-5.98 37.6-2.34-2.75 1.6-25.85 5.4-37.6 2.34m-58.08 40.63c17.84.65 43.89-5.98 37.61-2.33-2.76 1.6-25.86 5.39-37.61 2.33m32.66-50.53c28.36 4.44 71.39-5.89 60.6 1.14-4.75 3.11-42.5 7.65-60.6-1.14" class="l" fill="#b1e5fd"></path><path d="M225.81 282.56s-184.27-40.38-15.56-56.02c0 0-135.44 11.29 15.56 56.02" fill="#018bc9"></path><path d="M323.3 470.14c54.55-46.18 121.09-115.4-66.88-177.38 0 0 256.03 56.52 66.88 177.38" class="j" fill="#7ed2fc"></path><path d="M132.11 475.09c192.56-95.11 207.51-158.05 63.79-182.34 54.01 16.83 174.17 47.04-63.79 182.34" fill="#0198db"></path><path d="M98.44 325.91H79.59s-2.56 29.68-2.56 44.73c0 7.33 23.98 7.33 23.98 0 0-9.04-2.57-44.73-2.57-44.73" class="h" fill="#785647"></path><path d="M150.03 342.77C88.74 223 92.4 218.97 22.99 346.05c0 0 50.56-18.71 27.72 15.76 27.93-3.99 34.67-38.67 65.79 0 12.54-11.04-2.07-39.5 33.52-19.04Z" class="f" fill="#297124"></path><path d="M33.9 313.48c78.08-120.06 27.98-116.13 107.66 0 0 0-43.6-14.41-23.92 12.13-29.15 4.12-31.64-35.87-56.72 0-10.83-8.49 3.65-27.87-27.02-12.13" class="m" fill="#529320"></path><path d="M130.12 281.79c-61.47-94.51-22.02-91.42-84.78 0 0 0 34.34-11.34 18.85 9.57 22.94 3.23 24.91-28.25 44.64 0 8.53-6.68-2.88-21.95 21.29-9.57" class="f" fill="#297124"></path><path d="M57.25 250.94c46.08-70.9 16.52-68.57 63.55 0 0 0-25.76-8.52-14.13 7.14-17.19 2.44-18.68-21.17-33.48 0-6.39-4.99 2.16-16.45-15.94-7.14" class="m" fill="#529320"></path><path d="M214.52 115.23s-13.87 43.96-14.8 90c5.2-54.1 14.8-90 14.8-90m7.76-6.97s-13.26 38.48-12.52 78.11c3.55-46.79 12.52-78.11 12.52-78.11" class="j" fill="#7ed2fc"></path></g></svg>
