<svg xmlns="http://www.w3.org/2000/svg" data-name="Layer 1" style="" viewBox="0 0 512 698.19"><g><defs><linearGradient id="1770301555060-3034890_d" x1="375.61" x2="375.61" y1="52.89" y2="183.67" gradientTransform="matrix(1 0 0 -1 0 700.19)" gradientUnits="userSpaceOnUse"><stop offset="0" stop-color="#916b3e"></stop><stop offset=".05" stop-color="#987245"></stop><stop offset=".35" stop-color="#c49f72"></stop><stop offset=".62" stop-color="#e4bf92"></stop><stop offset=".85" stop-color="#f8d3a6"></stop><stop offset="1" stop-color="#ffdaad"></stop></linearGradient><linearGradient id="1770301555060-3034890_e" x1="136.4" x2="136.4" y1="52.89" y2="183.67" gradientTransform="matrix(1 0 0 -1 0 700.19)" gradientUnits="userSpaceOnUse"><stop offset="0" stop-color="#916b3e"></stop><stop offset=".05" stop-color="#987245"></stop><stop offset=".35" stop-color="#c49f72"></stop><stop offset=".62" stop-color="#e4bf92"></stop><stop offset=".85" stop-color="#f8d3a6"></stop><stop offset="1" stop-color="#ffdaad"></stop></linearGradient><linearGradient id="1770301555060-3034890_f" x1="295.84" x2="295.84" y1="46.14" y2="176.91" gradientTransform="matrix(1 0 0 -1 0 700.19)" gradientUnits="userSpaceOnUse"><stop offset="0" stop-color="#916b3e"></stop><stop offset=".05" stop-color="#987245"></stop><stop offset=".35" stop-color="#c49f72"></stop><stop offset=".62" stop-color="#e4bf92"></stop><stop offset=".85" stop-color="#f8d3a6"></stop><stop offset="1" stop-color="#ffdaad"></stop></linearGradient><linearGradient id="1770301555060-3034890_g" x1="216.14" x2="216.14" y1="46.14" y2="176.91" gradientTransform="matrix(1 0 0 -1 0 700.19)" gradientUnits="userSpaceOnUse"><stop offset="0" stop-color="#916b3e"></stop><stop offset=".05" stop-color="#987245"></stop><stop offset=".35" stop-color="#c49f72"></stop><stop offset=".62" stop-color="#e4bf92"></stop><stop offset=".85" stop-color="#f8d3a6"></stop><stop offset="1" stop-color="#ffdaad"></stop></linearGradient><linearGradient id="1770301555060-3034890_h" x1="96.72" x2="96.72" y1="95.48" y2="242.55" gradientTransform="matrix(1 0 0 -1 0 700.19)" gradientUnits="userSpaceOnUse"><stop offset="0" stop-color="#916b3e"></stop><stop offset=".05" stop-color="#987245"></stop><stop offset=".35" stop-color="#c49f72"></stop><stop offset=".62" stop-color="#e4bf92"></stop><stop offset=".85" stop-color="#f8d3a6"></stop><stop offset="1" stop-color="#ffdaad"></stop></linearGradient><linearGradient id="1770301555060-3034890_i" x1="415.28" x2="415.28" y1="95.48" y2="242.55" gradientTransform="matrix(1 0 0 -1 0 700.19)" gradientUnits="userSpaceOnUse"><stop offset="0" stop-color="#916b3e"></stop><stop offset=".05" stop-color="#987245"></stop><stop offset=".35" stop-color="#c49f72"></stop><stop offset=".62" stop-color="#e4bf92"></stop><stop offset=".85" stop-color="#f8d3a6"></stop><stop offset="1" stop-color="#ffdaad"></stop></linearGradient><linearGradient id="1770301555060-3034890_j" x1="176.36" x2="176.36" y1="82.02" y2="229.1" gradientTransform="matrix(1 0 0 -1 0 700.19)" gradientUnits="userSpaceOnUse"><stop offset="0" stop-color="#916b3e"></stop><stop offset=".05" stop-color="#987245"></stop><stop offset=".35" stop-color="#c49f72"></stop><stop offset=".62" stop-color="#e4bf92"></stop><stop offset=".85" stop-color="#f8d3a6"></stop><stop offset="1" stop-color="#ffdaad"></stop></linearGradient><linearGradient id="1770301555060-3034890_k" x1="335.65" x2="335.65" y1="82.02" y2="229.1" gradientTransform="matrix(1 0 0 -1 0 700.19)" gradientUnits="userSpaceOnUse"><stop offset="0" stop-color="#916b3e"></stop><stop offset=".05" stop-color="#987245"></stop><stop offset=".35" stop-color="#c49f72"></stop><stop offset=".62" stop-color="#e4bf92"></stop><stop offset=".85" stop-color="#f8d3a6"></stop><stop offset="1" stop-color="#ffdaad"></stop></linearGradient><linearGradient id="1770301555060-3034890_l" x1="256" x2="256" y1="82.02" y2="229.1" gradientTransform="matrix(1 0 0 -1 0 700.19)" gradientUnits="userSpaceOnUse"><stop offset="0" stop-color="#916b3e"></stop><stop offset=".05" stop-color="#987245"></stop><stop offset=".35" stop-color="#c49f72"></stop><stop offset=".62" stop-color="#e4bf92"></stop><stop offset=".85" stop-color="#f8d3a6"></stop><stop offset="1" stop-color="#ffdaad"></stop></linearGradient><linearGradient id="1770301555060-3034890_m" x1="87.53" x2="87.53" y1="183.99" y2="337.36" gradientTransform="matrix(1 0 0 -1 0 700.19)" gradientUnits="userSpaceOnUse"><stop offset="0" stop-color="#916b3e"></stop><stop offset=".05" stop-color="#987245"></stop><stop offset=".35" stop-color="#c49f72"></stop><stop offset=".62" stop-color="#e4bf92"></stop><stop offset=".85" stop-color="#f8d3a6"></stop><stop offset="1" stop-color="#ffdaad"></stop></linearGradient><linearGradient id="1770301555060-3034890_n" x1="424.45" x2="424.45" y1="183.99" y2="337.36" gradientTransform="matrix(1 0 0 -1 0 700.19)" gradientUnits="userSpaceOnUse"><stop offset="0" stop-color="#916b3e"></stop><stop offset=".05" stop-color="#987245"></stop><stop offset=".35" stop-color="#c49f72"></stop><stop offset=".62" stop-color="#e4bf92"></stop><stop offset=".85" stop-color="#f8d3a6"></stop><stop offset="1" stop-color="#ffdaad"></stop></linearGradient><linearGradient id="1770301555060-3034890_o" x1="373.13" x2="373.13" y1="163.86" y2="317.21" gradientTransform="matrix(1 0 0 -1 0 700.19)" gradientUnits="userSpaceOnUse"><stop offset="0" stop-color="#916b3e"></stop><stop offset=".05" stop-color="#987245"></stop><stop offset=".35" stop-color="#c49f72"></stop><stop offset=".62" stop-color="#e4bf92"></stop><stop offset=".85" stop-color="#f8d3a6"></stop><stop offset="1" stop-color="#ffdaad"></stop></linearGradient><linearGradient id="1770301555060-3034890_p" x1="138.87" x2="138.87" y1="163.86" y2="317.21" gradientTransform="matrix(1 0 0 -1 0 700.19)" gradientUnits="userSpaceOnUse"><stop offset="0" stop-color="#916b3e"></stop><stop offset=".05" stop-color="#987245"></stop><stop offset=".35" stop-color="#c49f72"></stop><stop offset=".62" stop-color="#e4bf92"></stop><stop offset=".85" stop-color="#f8d3a6"></stop><stop offset="1" stop-color="#ffdaad"></stop></linearGradient><linearGradient id="1770301555060-3034890_q" x1="295.07" x2="295.07" y1="155.9" y2="309.3" gradientTransform="matrix(1 0 0 -1 0 700.19)" gradientUnits="userSpaceOnUse"><stop offset="0" stop-color="#916b3e"></stop><stop offset=".05" stop-color="#987245"></stop><stop offset=".35" stop-color="#c49f72"></stop><stop offset=".62" stop-color="#e4bf92"></stop><stop offset=".85" stop-color="#f8d3a6"></stop><stop offset="1" stop-color="#ffdaad"></stop></linearGradient><linearGradient id="1770301555060-3034890_r" x1="216.95" x2="216.95" y1="155.9" y2="309.3" gradientTransform="matrix(1 0 0 -1 0 700.19)" gradientUnits="userSpaceOnUse"><stop offset="0" stop-color="#916b3e"></stop><stop offset=".05" stop-color="#987245"></stop><stop offset=".35" stop-color="#c49f72"></stop><stop offset=".62" stop-color="#e4bf92"></stop><stop offset=".85" stop-color="#f8d3a6"></stop><stop offset="1" stop-color="#ffdaad"></stop></linearGradient><linearGradient id="1770301555060-3034890_s" x1="123.42" x2="123.42" y1="256.32" y2="409.67" gradientTransform="matrix(1 0 0 -1 0 700.19)" gradientUnits="userSpaceOnUse"><stop offset="0" stop-color="#916b3e"></stop><stop offset=".05" stop-color="#987245"></stop><stop offset=".35" stop-color="#c49f72"></stop><stop offset=".62" stop-color="#e4bf92"></stop><stop offset=".85" stop-color="#f8d3a6"></stop><stop offset="1" stop-color="#ffdaad"></stop></linearGradient><linearGradient id="1770301555060-3034890_t" x1="388.59" x2="388.59" y1="256.32" y2="409.67" gradientTransform="matrix(1 0 0 -1 0 700.19)" gradientUnits="userSpaceOnUse"><stop offset="0" stop-color="#916b3e"></stop><stop offset=".05" stop-color="#987245"></stop><stop offset=".35" stop-color="#c49f72"></stop><stop offset=".62" stop-color="#e4bf92"></stop><stop offset=".85" stop-color="#f8d3a6"></stop><stop offset="1" stop-color="#ffdaad"></stop></linearGradient><linearGradient id="1770301555060-3034890_u" x1="179.4" x2="179.4" y1="240.55" y2="393.9" gradientTransform="matrix(1 0 0 -1 0 700.19)" gradientUnits="userSpaceOnUse"><stop offset="0" stop-color="#916b3e"></stop><stop offset=".05" stop-color="#987245"></stop><stop offset=".35" stop-color="#c49f72"></stop><stop offset=".62" stop-color="#e4bf92"></stop><stop offset=".85" stop-color="#f8d3a6"></stop><stop offset="1" stop-color="#ffdaad"></stop></linearGradient><linearGradient id="1770301555060-3034890_v" x1="332.62" x2="332.62" y1="240.55" y2="393.9" gradientTransform="matrix(1 0 0 -1 0 700.19)" gradientUnits="userSpaceOnUse"><stop offset="0" stop-color="#916b3e"></stop><stop offset=".05" stop-color="#987245"></stop><stop offset=".35" stop-color="#c49f72"></stop><stop offset=".62" stop-color="#e4bf92"></stop><stop offset=".85" stop-color="#f8d3a6"></stop><stop offset="1" stop-color="#ffdaad"></stop></linearGradient><linearGradient id="1770301555060-3034890_w" x1="256" x2="256" y1="224.78" y2="378.15" gradientTransform="matrix(1 0 0 -1 0 700.19)" gradientUnits="userSpaceOnUse"><stop offset="0" stop-color="#916b3e"></stop><stop offset=".05" stop-color="#987245"></stop><stop offset=".35" stop-color="#c49f72"></stop><stop offset=".62" stop-color="#e4bf92"></stop><stop offset=".85" stop-color="#f8d3a6"></stop><stop offset="1" stop-color="#ffdaad"></stop></linearGradient><linearGradient id="1770301555060-3034890_x" x1="510.62" x2="510.62" y1="75.4" y2="514.93" gradientTransform="matrix(.9187 .04879 .05197 -.97862 -50.589 688.18)" gradientUnits="userSpaceOnUse"><stop offset="0" stop-color="#5c3f1e"></stop><stop offset=".33" stop-color="#795731"></stop><stop offset="1" stop-color="#bd915f"></stop></linearGradient><linearGradient id="1770301555060-3034890_y" x1="-347.16" x2="-347.16" y1="27.45" y2="466.98" gradientTransform="matrix(-.9187 .04879 -.05197 -.97862 -226.85 682.96)" gradientUnits="userSpaceOnUse"><stop offset="0" stop-color="#5c3f1e"></stop><stop offset=".33" stop-color="#795731"></stop><stop offset="1" stop-color="#bd915f"></stop></linearGradient><linearGradient id="1770301555060-3034890_z" x1="256" x2="256" y1="347.82" y2="700.19" gradientTransform="matrix(1 0 0 -1 0 700.19)" gradientUnits="userSpaceOnUse"><stop offset="0" stop-color="#bd915f"></stop><stop offset=".67" stop-color="#795731"></stop><stop offset="1" stop-color="#5c3f1e"></stop></linearGradient><linearGradient id="1770301555060-3034890_aa" x1="249.01" x2="249.01" y1="336.93" y2="633.91" gradientTransform="matrix(1.02 0 0 -1 3.18 700.19)" gradientUnits="userSpaceOnUse"><stop offset="0" stop-color="#916b3e"></stop><stop offset=".07" stop-color="#a78154"></stop><stop offset=".2" stop-color="#c6a174"></stop><stop offset=".34" stop-color="#dfba8d"></stop><stop offset=".48" stop-color="#f1cc9f"></stop><stop offset=".63" stop-color="#fcd7aa"></stop><stop offset=".8" stop-color="#ffdaad"></stop></linearGradient><linearGradient id="1770301555060-3034890_ab" x1="294.31" x2="432.71" y1="498.31" y2="498.31" gradientTransform="matrix(1 0 0 -1 0 700.19)" gradientUnits="userSpaceOnUse"><stop offset="0" stop-color="#ffc800"></stop><stop offset=".03" stop-color="#ffc500"></stop><stop offset=".39" stop-color="#ffad00"></stop><stop offset=".73" stop-color="#ff9e00"></stop><stop offset="1" stop-color="#f90"></stop></linearGradient><linearGradient id="1770301555060-3034890_ac" x1="79.29" x2="217.69" y1="498.31" y2="498.31" gradientTransform="matrix(1 0 0 -1 0 700.19)" gradientUnits="userSpaceOnUse"><stop offset="0" stop-color="#ffc800"></stop><stop offset=".03" stop-color="#ffc500"></stop><stop offset=".39" stop-color="#ffad00"></stop><stop offset=".73" stop-color="#ff9e00"></stop><stop offset="1" stop-color="#f90"></stop></linearGradient><linearGradient id="1770301555060-3034890_ae" x1="256" x2="256" y1="544.65" y2="691.69" gradientTransform="matrix(1 0 0 -1 0 700.19)" gradientUnits="userSpaceOnUse"><stop offset=".05" stop-color="#ffdaad"></stop><stop offset=".08" stop-color="#f5d1a4"></stop><stop offset=".24" stop-color="#c7a47c"></stop><stop offset=".4" stop-color="#a0805a"></stop><stop offset=".56" stop-color="#826440"></stop><stop offset=".71" stop-color="#6d4f2d"></stop><stop offset=".86" stop-color="#604322"></stop><stop offset="1" stop-color="#5c3f1e"></stop></linearGradient><radialGradient id="1770301555060-3034890_b" cx="149.93" cy="96.46" r="101.67" fx="149.93" fy="96.46" gradientTransform="matrix(.97 0 0 -1 -1.12 700.19)" gradientUnits="userSpaceOnUse"><stop offset="0" stop-color="#916958"></stop><stop offset=".22" stop-color="#8c6554"></stop><stop offset=".47" stop-color="#7e594a"></stop><stop offset=".75" stop-color="#664639"></stop><stop offset="1" stop-color="#4a2f24"></stop></radialGradient><radialGradient id="1770301555060-3034890_c" cx="378.45" cy="96.46" r="101.67" fx="378.45" fy="96.46" gradientTransform="matrix(.97 0 0 -1 -.96 700.19)" gradientUnits="userSpaceOnUse"><stop offset="0" stop-color="#916958"></stop><stop offset=".22" stop-color="#8c6554"></stop><stop offset=".47" stop-color="#7e594a"></stop><stop offset=".75" stop-color="#664639"></stop><stop offset="1" stop-color="#4a2f24"></stop></radialGradient><radialGradient id="1770301555060-3034890_ad" cx="320.93" cy="762.99" r="20.86" fx="320.93" fy="762.99" gradientTransform="matrix(.84 0 0 -4.08 -14.06 3371.95)" gradientUnits="userSpaceOnUse"><stop offset="0" stop-color="#916958"></stop><stop offset=".21" stop-color="#8a6353"></stop><stop offset=".53" stop-color="#755243"></stop><stop offset=".91" stop-color="#53372b"></stop><stop offset="1" stop-color="#4a2f24"></stop></radialGradient></defs><path d="M130.86 396.28c119.98 37.29-75.67 95.84-22.27 240.53-115.38-81.83-49.46-243.24 22.27-240.53" class="bm" fill="#4a2f24"></path><path d="M100.05 395.43c-69-1.61-133.9 151.11-23.67 226.6-50.01-135.44 138.71-193.12 23.67-226.6m311.93 0c-115.07 33.48 73.66 91.16 23.63 226.6 110.23-75.47 45.35-228.19-23.63-226.6" class="bm" fill="#4a2f24"></path><path d="M381.14 396.28c-119.98 37.29 75.66 95.84 22.28 240.53 115.4-81.83 49.48-243.24-22.28-240.53" class="bm" fill="#4a2f24"></path><path d="M193.04 636.71c-2.42-18.12-.61-36.07 3.05-52.39h-28.13c-9.03 75.57-45.34 67.68-43.79 76.68-7.21 11.16-67.5.88-67.79 15.41-25.46 15.52-19.64 16.38-.84 10.34 12.52 2.12 95.86 5.48 100.88-5.89 6.26 11.6 10.95 17.32 16.31 17.32 4.42 0 10.18-12.66 16.97-19.01 27.25 9.51 42.08-2.83 60.52 4.24-4-20.95-51.49-4.24-57.18-46.7" fill="url(#1770301555060-3034890_b)"></path><path d="M455.65 676.42c-.31-14.52-60.58-4.25-67.79-15.41 1.52-8.99-34.78-1.12-43.82-76.68h-28.11c3.65 16.31 5.48 34.27 3.07 52.39-5.69 42.46-53.2 25.75-57.22 46.71 18.44-7.06 33.27 5.27 60.53-4.24 6.81 6.34 12.56 19 16.99 19 5.32 0 10.04-5.71 16.29-17.32 5 11.37 88.34 8.01 100.92 5.89 18.75 6.04 24.58 5.18-.86-10.34" fill="url(#1770301555060-3034890_c)"></path><path d="M427.81 531.41c-16.8-19.86-87.62-19.86-104.39 0-20.61 24.3 48.92 115.89 52.17 115.89s72.79-91.59 52.22-115.89" fill="url(#1770301555060-3034890_d)"></path><path d="M188.61 531.41c-16.81-19.86-87.61-19.86-104.43 0-20.57 24.3 48.93 115.89 52.22 115.89s72.79-91.59 52.2-115.89Z" fill="url(#1770301555060-3034890_e)"></path><path d="M348.02 538.14c-16.76-19.82-87.54-19.82-104.38 0-20.6 24.32 48.94 115.91 52.21 115.91s72.8-91.59 52.17-115.91" fill="url(#1770301555060-3034890_f)"></path><path d="M268.32 538.14c-16.79-19.82-87.59-19.82-104.37 0-20.62 24.32 48.91 115.91 52.18 115.91s72.79-91.59 52.19-115.91" fill="url(#1770301555060-3034890_g)"></path><path d="M148.86 474.37c-16.78-22.32-87.52-22.32-104.29 0-20.56 27.32 48.87 130.34 52.12 130.34s72.74-103.03 52.17-130.34" fill="url(#1770301555060-3034890_h)"></path><path d="M467.42 474.37c-16.77-22.32-87.52-22.32-104.3 0-20.54 27.32 48.9 130.34 52.15 130.34s72.68-103.03 52.14-130.34Z" fill="url(#1770301555060-3034890_i)"></path><path d="M228.48 487.85c-16.74-22.34-87.51-22.34-104.25 0-20.54 27.3 48.88 130.32 52.12 130.32s72.73-103.02 52.13-130.32" fill="url(#1770301555060-3034890_j)"></path><path d="M387.81 487.85c-16.83-22.34-87.52-22.34-104.29 0-20.62 27.3 48.84 130.32 52.12 130.32s72.67-103.02 52.17-130.32" fill="url(#1770301555060-3034890_k)"></path><path d="M308.13 487.85c-16.76-22.34-87.49-22.34-104.25 0-20.61 27.3 48.87 130.32 52.12 130.32s72.69-103.02 52.13-130.32" fill="url(#1770301555060-3034890_l)"></path><path d="M122.45 380.28c-16.43-23.27-50.65-23.27-67.08 0-20.15 28.47 12.8 135.91 16 135.91 3.2-.01 71.27-107.44 51.08-135.91" fill="url(#1770301555060-3034890_m)"></path><path d="M456.61 380.28c-16.43-23.27-50.64-23.27-67.08 0-20.19 28.47 47.91 135.91 51.14 135.91 3.18-.01 36.11-107.44 15.94-135.91" fill="url(#1770301555060-3034890_n)"></path><path d="M424.25 400.41c-16.47-23.25-85.75-23.25-102.25 0-20.15 28.45 47.95 135.91 51.15 135.91s71.25-107.46 51.1-135.91" fill="url(#1770301555060-3034890_o)"></path><path d="M190 400.41c-16.48-23.25-85.82-23.25-102.25 0-20.19 28.45 47.93 135.91 51.11 135.91S210.17 428.86 190 400.41" fill="url(#1770301555060-3034890_p)"></path><path d="M346.18 408.35c-16.45-23.27-85.8-23.27-102.23 0-20.18 28.5 47.9 135.94 51.1 135.94 3.18-.01 71.3-107.44 51.13-135.94" fill="url(#1770301555060-3034890_q)"></path><path d="M268.07 408.35c-16.43-23.27-85.8-23.27-102.23 0-20.19 28.5 47.93 135.94 51.1 135.94 3.21-.01 71.3-107.44 51.13-135.94" fill="url(#1770301555060-3034890_r)"></path><path d="M174.12 307.97c-16.16-23.27-84.19-23.27-100.32 0-19.77 28.49 35.46 135.9 38.59 135.9s81.5-107.42 61.73-135.9" fill="url(#1770301555060-3034890_s)"></path><path d="M438.2 307.97c-16.16-23.27-84.18-23.27-100.31 0-19.78 28.49 58.6 135.9 61.72 135.9s58.38-107.42 38.59-135.9" fill="url(#1770301555060-3034890_t)"></path><path d="M229.54 323.74c-16.13-23.27-84.17-23.27-100.27 0-19.81 28.5 47.02 135.9 50.13 135.9s69.94-107.4 50.14-135.9" fill="url(#1770301555060-3034890_u)"></path><path d="M382.76 323.74c-16.14-23.27-84.18-23.27-100.28 0-19.78 28.5 47.02 135.9 50.13 135.9s69.94-107.4 50.15-135.9" fill="url(#1770301555060-3034890_v)"></path><path d="M306.18 339.51c-16.17-23.28-84.17-23.28-100.34 0-19.77 28.47 47.02 135.9 50.16 135.9s69.94-107.43 50.18-135.9" fill="url(#1770301555060-3034890_w)"></path><path d="M398.8 208.06c-123.87 100.18 97.21 154.72 62.65 433.2 111.66-180.28 14.45-457.31-62.65-433.2" fill="url(#1770301555060-3034890_x)"></path><path d="M384.23 274.04c-8.7 46.14 67.24 80.37 91.11 248.95 8.93-117.62-73.08-226.07-91.11-248.95m115.29 119.53c-2.84-66.57-32.8-125.15-62.24-167.41-28.6 29.78 19.32 2.73 62.24 167.41" class="bk" fill="#704c25"></path><path d="M396.37 252.26c6.47 30.32 100.96 91.43 91.78 295.64 29.52-167.59-46.58-278.83-91.78-295.64" class="bk" fill="#704c25"></path><path d="M113.21 208.06C237 308.24 16 362.78 50.57 641.26-61.09 460.98 36 183.95 113.21 208.06" fill="url(#1770301555060-3034890_y)"></path><path d="M127.69 274.04c8.79 46.13-67.14 80.37-91.01 248.95-8.95-117.62 73.05-226.1 91.01-248.95M12.51 393.59c2.72-66.58 32.71-125.16 62.24-167.45 28.59 29.81-19.32 2.75-62.24 167.45" class="bk" fill="#704c25"></path><path d="M115.65 252.24C109.2 282.6 14.7 343.68 23.86 547.89c-29.53-167.59 46.6-278.83 91.79-295.65" class="bk" fill="#704c25"></path><path d="M495.27 213.94C512.69 140.07 497.21 0 255.98 0 14.8 0-.69 140.07 16.73 213.94 35.59 294.07 190.23 352.37 256 352.37s220.41-58.3 239.27-138.43" fill="url(#1770301555060-3034890_z)"></path><path d="M473.54 241.19c15.84-60.42 1.79-174.91-217.57-174.91-219.3 0-233.37 114.53-217.52 174.91 17.14 65.52 157.73 122.07 217.54 122.07s200.4-56.55 217.54-122.07Z" fill="url(#1770301555060-3034890_aa)"></path><path d="M364.38 82.03c164.25 42.15 118.46 210.89-17.28 259.68 186.63-38.02 172.81-275.44 17.28-259.68m-216.76 0c-164.25 42.15-118.46 210.89 17.29 259.68C-21.73 303.69-7.91 66.27 147.62 82.03" class="bm" fill="#4a2f24"></path><path d="M363.49 125.8c-53.05 0-73.82 44.95-69.18 80.02 3.43 26.04 135.01 26.04 138.42 0 4.9-37.96-20.76-80.02-69.24-80.02" class="bm" fill="#4a2f24"></path><path d="M363.51 138.32c-38.23 0-69.2 28.45-69.2 63.55 0 30.34 30.98 63.57 69.2 63.57s69.2-38.75 69.2-63.57c.01-35.1-30.95-63.55-69.2-63.55" fill="url(#1770301555060-3034890_ab)"></path><ellipse cx="356.85" cy="201.24" class="bj" rx="51.68" ry="50.61" fill="#1a1626"></ellipse><path d="M352.74 175.96c0 18.36-28.18 18.36-28.18 0 .01-18.43 28.18-18.43 28.18 0" class="bl" fill="#fff"></path><path d="M148.49 125.8c53.07 0 73.85 44.95 69.2 80.02-3.46 26.04-135.03 26.04-138.42 0-4.92-37.96 20.78-80.02 69.21-80.02Z" class="bm" fill="#4a2f24"></path><path d="M148.49 138.32c38.25 0 69.2 28.45 69.2 63.55 0 30.34-30.95 63.57-69.2 63.57s-69.2-38.75-69.2-63.57c-.01-35.1 30.98-63.55 69.2-63.55" fill="url(#1770301555060-3034890_ac)"></path><ellipse cx="155.15" cy="201.24" class="bj" rx="51.69" ry="50.61" fill="#1a1626"></ellipse><path d="M159.23 175.96c0 18.36 28.21 18.36 28.21 0s-28.21-18.43-28.21 0" class="bl" fill="#fff"></path><path d="M255.99 240.03c-14.05 0-8.37 18.71-26.34 61.3 9.41 8.08 16.14 29.98 20.46 37.97 3.93 7.28 7.84 7.28 11.78 0 4.34-7.99 11.04-29.88 20.48-37.97-17.98-42.59-12.3-61.3-26.37-61.3Z" fill="url(#1770301555060-3034890_ad)"></path><path d="M447.61 87.84c-4.71-10.23-18.09-25.52-42.43-39.16-12.31-6.87-36.6 39.46-11.96 39.32 19.88-.08 36.95.93 47.81 3.68 7.4 1.87 8.7.77 6.57-3.84Z" class="bm" fill="#4a2f24"></path><path d="M470.37 69.87c-5.32-9.93-19.61-24.37-44.72-36.52-12.71-6.1-34.15 41.58-9.57 39.97 19.82-1.28 36.92-1.3 47.95.78 7.49 1.43 8.75.27 6.33-4.24Z" class="bm" fill="#4a2f24"></path><path d="M487.38 45.36c-7.61-8.3-25-18.78-52.34-24.38-13.81-2.79-22.82 48.72.59 41.09 18.89-6.11 35.47-10.36 46.66-11.05 7.62-.45 8.54-1.9 5.09-5.66" class="bm" fill="#4a2f24"></path><path d="M494.84 17.94c-10.81-6.48-28.27-11.02-48.2-8.9-14 1.5-16.84 53.76 3.41 39.76 16.34-11.29 31.02-20.11 41.53-23.98 7.18-2.62 7.65-4.25 3.26-6.88M64.38 87.84c4.72-10.23 18.09-25.52 42.43-39.16 12.32-6.87 36.6 39.46 11.97 39.32-19.88-.08-36.95.93-47.81 3.68-7.4 1.87-8.72.77-6.59-3.84" class="bm" fill="#4a2f24"></path><path d="M41.63 69.87c5.32-9.93 19.6-24.37 44.71-36.52 12.71-6.1 34.16 41.58 9.58 39.97-19.83-1.28-36.91-1.3-47.95.78-7.51 1.43-8.76.27-6.33-4.24Z" class="bm" fill="#4a2f24"></path><path d="M24.61 45.36c7.61-8.3 25-18.78 52.34-24.38 13.82-2.79 22.83 48.72-.59 41.09-18.89-6.11-35.46-10.36-46.65-11.05-7.62-.45-8.54-1.9-5.1-5.66" class="bm" fill="#4a2f24"></path><path d="M17.16 17.94c10.8-6.48 28.24-11.02 48.19-8.9 14 1.5 16.84 53.76-3.41 39.76-16.35-11.29-31.01-20.11-41.53-23.98-7.18-2.62-7.63-4.25-3.25-6.88" class="bm" fill="#4a2f24"></path><path d="M460.55 8.49C318.08 8.49 256 63.81 256 63.81S193.95 8.49 51.45 8.49c9.27 98.62 136.52 62.55 180.85 132.36 12.42 19.57 34.99 19.57 47.41 0 44.31-69.82 171.51-33.77 180.83-132.36Z" fill="url(#1770301555060-3034890_ae)"></path><path d="M51.46 8.49C92.53 60.9 205.14 75.92 232.31 140.85c-44.34-69.81-172.06-32-180.85-132.36m409.09 0C419.48 60.9 306.87 75.92 279.72 140.85c44.31-69.82 172.05-32.01 180.83-132.36" class="bm" fill="#4a2f24"></path></g></svg>
