<svg xmlns="http://www.w3.org/2000/svg" data-name="Layer 1" style="" viewBox="0 0 512 320.01"><g><defs><linearGradient id="1770301555061-2546312_b" x1="156.07" x2="156.07" y1="188.41" y2="501.8" gradientTransform="scale(1 -1) rotate(30 1145.03 278.747)" gradientUnits="userSpaceOnUse"><stop offset=".04" stop-color="#ffcf99"></stop><stop offset=".04" stop-color="#ffcc9a"></stop><stop offset=".12" stop-color="#fdb4a7"></stop><stop offset=".17" stop-color="#fcabab"></stop><stop offset=".27" stop-color="#febda2"></stop><stop offset=".35" stop-color="#ffcf99"></stop><stop offset=".65" stop-color="#ffcf99"></stop><stop offset=".7" stop-color="#efcb95"></stop><stop offset=".78" stop-color="#cfc48e"></stop><stop offset=".88" stop-color="#cfc48e"></stop><stop offset=".9" stop-color="#cfc48e"></stop><stop offset="1" stop-color="#5dbaae"></stop></linearGradient><linearGradient id="1770301555061-2546312_d" x1="156.07" x2="156.07" y1="188.41" y2="380.77" gradientTransform="scale(1 -1) rotate(30 1145.03 278.747)" gradientUnits="userSpaceOnUse"><stop offset=".58" stop-color="#1a1a1a" stop-opacity="0"></stop><stop offset=".9" stop-color="#1a1a1a"></stop></linearGradient><linearGradient id="1770301555061-2546312_e" x1="156.07" x2="156.07" y1="295.75" y2="398" gradientTransform="scale(1 -1) rotate(30 1145.03 278.747)" gradientUnits="userSpaceOnUse"><stop offset="0" stop-color="#798694"></stop><stop offset=".66" stop-color="#d4c17a"></stop><stop offset="1" stop-color="#c98d64"></stop></linearGradient><linearGradient id="1770301555061-2546312_f" x1="11.93" x2="11.94" y1="166.62" y2="266.67" gradientTransform="scale(1 -1) rotate(30 841.305 485.555)" gradientUnits="userSpaceOnUse"><stop offset="0" stop-color="#524239"></stop><stop offset="1" stop-color="#8c7a6d"></stop></linearGradient><linearGradient id="1770301555061-2546312_g" x1="11.9" x2="11.9" y1="177.61" y2="246.68" gradientTransform="scale(1 -1) rotate(30 841.305 485.555)" gradientUnits="userSpaceOnUse"><stop offset="0" stop-color="#524239"></stop><stop offset="1" stop-color="#8c7a6d"></stop></linearGradient><linearGradient id="1770301555061-2546312_h" x1="11.92" x2="11.92" y1="172.43" y2="256.72" gradientTransform="scale(1 -1) rotate(30 841.305 485.555)" gradientUnits="userSpaceOnUse"><stop offset="0" stop-color="#524239"></stop><stop offset="1" stop-color="#8c7a6d"></stop></linearGradient><radialGradient id="1770301555061-2546312_c" cx="134.03" cy="388.55" r="154.1" fx="134.03" fy="388.55" gradientTransform="matrix(.8698 -.51337 -.5016 -.88836 292.78 558.4)" gradientUnits="userSpaceOnUse"><stop offset="0" stop-color="#fff" stop-opacity="0"></stop><stop offset=".1" stop-color="#f9f9f9" stop-opacity=".1"></stop><stop offset=".23" stop-color="#e8e8e8" stop-opacity=".23"></stop><stop offset=".39" stop-color="#cbcbcb" stop-opacity=".39"></stop><stop offset=".56" stop-color="#a3a3a3" stop-opacity=".56"></stop><stop offset=".74" stop-color="#717171" stop-opacity=".74"></stop><stop offset=".93" stop-color="#333" stop-opacity=".93"></stop><stop offset="1" stop-color="#1a1a1a"></stop></radialGradient></defs><path d="M388.84 79.48c42.54 75.37 17.3 171.72-56.39 215.22-73.71 43.51-167.98 17.69-210.51-57.66-42.57-75.36-17.32-171.72 56.38-215.2C252.05-21.7 346.3 4.14 388.84 79.47Z" fill="url(#1770301555061-2546312_b)"></path><path d="M388.84 79.48c42.54 75.37 17.3 171.72-56.39 215.22-73.71 43.51-167.98 17.69-210.51-57.66-42.57-75.36-17.32-171.72 56.38-215.2C252.05-21.7 346.3 4.14 388.84 79.47Z" style="isolation:isolate" fill="url(#1770301555061-2546312_c)" opacity=".2"></path><path d="M388.84 79.48c42.54 75.37 17.29 171.73-56.39 215.22-73.71 43.51-167.98 17.69-210.51-57.66C98.58 195.67 365.5 38.13 388.84 79.47Z" style="isolation:isolate" fill="url(#1770301555061-2546312_d)" opacity=".3"></path><path d="M509.05 8.55c-14.34-25.39-112.01 4.82-279.63 103.78C61.82 211.23-12.6 282.6 1.73 308c10.45 18.5 41.9 21.22 150.15-32.98-5.06-4.68-9.83-9.72-14.27-15.15-23.7 9.17-39.15 12.24-41.91 7.34-6.66-11.81 62.21-65.22 153.83-119.3 91.65-54.09 171.33-88.38 177.99-76.57 2.77 4.91-7.57 17.05-27.18 33.43 2.36 6.67 4.26 13.42 5.7 20.23C506.05 56.27 519.5 27.05 509.05 8.54Z" fill="url(#1770301555061-2546312_e)"></path><path d="M503.98 15.73C490.61-7.95 369.26 38.1 232.96 118.55 96.64 199.01-3.03 283.43 10.34 307.11c8.8 15.54 64.3.94 140.09-33.77-.62-.6-1.3-1.14-1.9-1.74-72.06 32.88-124.5 46.78-132.74 32.18-12.75-22.55 84.96-104.65 218.26-183.32C367.33 41.79 485.73-3.67 498.45 18.87c8.25 14.6-29.75 54.09-93.64 101.45.22.84.33 1.7.53 2.55 67.28-49.73 107.42-91.58 98.64-107.14" style="isolation:isolate" opacity=".5" fill="url(#1770301555061-2546312_f)"></path><path d="M446.33 54.87c-9.14-16.17-100.26 20.12-203.54 81.08C139.52 196.91 63.2 259.45 72.34 275.62c4.63 8.23 30.55 2.83 68.41-12.42-.46-.5-.94-1.02-1.4-1.54-33.51 13.12-56.27 17.57-60.46 10.15-8.7-15.37 65.06-75.55 164.73-134.38S431.13 43.4 439.84 58.77c4.18 7.43-10.99 25.35-38.86 48.47.23.66.4 1.34.62 2.01 31.86-25.9 49.38-46.14 44.74-54.38Z" style="isolation:isolate" fill="url(#1770301555061-2546312_g)" opacity=".5"></path><path d="M479.57 32.51c-11.21-19.83-98.36 10.12-241.7 94.72C94.51 211.85 25.55 274.03 36.78 293.89c7.17 12.7 45.53 4.89 109.66-24.42-1.03-1.06-1.98-2.2-3-3.29-48.96 20.55-83.3 28.16-89.3 17.52-10.66-18.86 72.05-88.12 184.76-154.66C351.6 62.52 451.6 23.93 462.26 42.81c6 10.62-17.59 37.22-59.5 70.3.42 1.44.9 2.86 1.3 4.28 56.9-42.1 82.68-72.18 75.51-84.88" fill="url(#1770301555061-2546312_h)"></path></g></svg>
