<svg xmlns="http://www.w3.org/2000/svg" data-name="Layer 1" style="" viewBox="0 0 512 512"><g><defs><radialGradient id="1770301555074-6971117_b" cx="256.11" cy="261.88" r="254.43" fx="256.11" fy="261.88" gradientTransform="matrix(1 0 0 -1 -.16 515.14)" gradientUnits="userSpaceOnUse"><stop offset="0" stop-color="#e6fbff"></stop><stop offset="1" stop-color="#94e6ff"></stop></radialGradient></defs><path d="M474.08 316.32v-5.92L440 270.96l72-12.08v-5.92l-72-6.16 34.08-45.28v-5.92l-71.28 51.2-38.8-1.12 18.64-38.32v-6.56l-40.56-7.44 26.32-28.56 82.8-17.76v-5.92l-56.48-2.32L437.04 80v-5.92L322.72 174.24l-14.24-40.16-38.72 18.48-1.52-38.72 45.84-70.48v-5.92L256 90.24l-58-52.8v5.92l45.84 70.48-1.52 38.72-38.72-18.48-14.24 40.16L74.96 74.08V80l42.32 58.88-56.48 2.32v5.92l82.8 17.76 26.32 28.56-40.56 7.44v6.64L148 245.84l-38.8 1.12-71.28-51.2v5.92L72 246.88l-72 6.16v5.92l72 12.08-34.08 39.36v5.92l71.28-45.28 38.8 1.92-18.64 31.68v6.64l40.56 14.08-26.32 27.84-82.8 11.76v5.92l56.48 8.16L74.96 432v5.92l59.52-41.84 8.24 55.92 18-81.84 28.48-25.68 14.24 40.16 38.72-18.48 1.52 38-45.84 64.56v5.92l45.84-33.76L256 512l12.16-71.2L314 474.56v-5.92l-45.84-64.56 1.52-38 38.72 18.48 14.24-40.16 28.48 25.68 18 81.84 8.24-55.92 59.52 41.84V432l-42.32-52.96 56.48-8.16v-5.92l-82.8-11.92-26.32-27.84 40.56-14.08v-6.64l-18.64-31.68 38.8-1.92zm-280.8-99.76 33.28 30.4h-37.12l-14.32-21.12zm0 85.52-18.24-10 14.32-21.12h37.12zm48.96 31.36-24 15.92-5.6-28.08 29.6-29.2zm0-106.88-29.6-29.2 5.6-28.08 24 15.92zm27.52-41.36 24-15.92 5.6 28.08-29.6 29.2zm24 164.16-24-15.92v-41.36l29.6 29.2zm24.96-47.28-33.28-31.12 45.52 1.92 16.16 23.76zm12.24-56.32-45.52 1.12 33.28-30.4 28.4 5.52z" fill="#40c6ff"></path><path d="M474.08 310.4 440 265.12l72-12.08-72-12.08 34.08-45.28-71.28 45.28-38.8-1.92 18.64-38.32-40.56-14.08 26.32-27.84 82.8-17.76-56.48-8.16L437.04 74l-59.52 41.84-8.24-55.92-18.08 82-28.48 25.68-14.24-40.16-38.72 18.48-1.52-38 45.84-70.48-45.92 33.76L256 0l-12.16 71.2L198 37.44l45.84 70.48-1.52 38-38.72-18.48-14.24 40.16-28.48-25.68-18.08-81.84-8.24 55.92-59.6-41.92 42.32 58.88-56.48 8.24 82.8 17.76 26.32 27.84-40.56 14.08L148 239.2l-38.8 1.92-71.28-45.28L72 241.04 0 253.12l72 12.08-34.08 45.2 71.28-45.28 38.8 1.12-18.64 38.32 40.56 14.08-26.32 28.56-82.8 17.76 56.48 8.16L74.96 432l59.52-41.84 8.24 55.92 18-81.84 28.48-26.4L203.44 378l38.72-18.48 1.52 38.72-45.84 70.48 45.84-33.76 12.16 71.2 12.16-71.2 45.84 33.76L268 398.24l1.52-38.72L308.24 378l14.24-40.16 28.48 26.4 18 81.84 8.24-55.92L437.04 432l-42.32-58.88 56.48-8.16-82.8-17.76-26.32-28.56 40.56-14.08L364 266.24l38.8-1.12zm-280.8-100.48 33.28 31.12h-37.12l-14.32-21.12zm0 85.52-18.24-9.28 14.32-21.04h37.12zm48.96 31.36-24 15.92-5.6-28.08 31.12-32.48zm0-106.88-29.6-29.2 5.6-28.08 24 15.92zm27.52-41.28 24-15.92 5.6 28.08-29.6 29.2zm24 164.08-24-15.92-1.52-44.64 31.12 32.48zm24.96-47.28-33.28-30.4 45.52 1.12 16.16 23.76zm12.24-56.32-45.52 1.92 33.28-31.12 28.4 5.52z" fill="url(#1770301555074-6971117_b)"></path></g></svg>
