<svg xmlns="http://www.w3.org/2000/svg" data-name="Layer 1" style="" viewBox="0 0 512 512.01"><g><defs><linearGradient id="1770301555078-469244_b" x1="256.01" x2="256.01" y1="183.64" y2="280.69" gradientTransform="matrix(1 0 0 -1 0 514.01)" gradientUnits="userSpaceOnUse"><stop offset="0" stop-color="#629621"></stop><stop offset=".36" stop-color="#79ae29"></stop><stop offset=".74" stop-color="#8bc230"></stop><stop offset="1" stop-color="#92c932"></stop></linearGradient></defs><path d="M504.5 394.09c0 14.11-3.93 27.42-11.1 39.01-20.95 3.81-23.68 25.53-23.68 25.53-14.52 11.58-32.89 22.1-53.96 29.99-34.48-7.94-47.62 15.88-47.62 15.88-24.09 5.27-43.87 7.5-43.87 7.5s-61.52-21.37-136.53 0c0 0-19.81-2.24-43.87-7.5 0 0-11.14-21.61-47.62-15.88-21.01-7.87-39.48-18.43-53.96-29.99 0 0 0-24.92-23.68-25.53-7.3-11.67-11.09-24.76-11.09-39.01 0-24-7.5-174.06-7.5-174.06h512s-7.5 154.57-7.5 174.06Z" fill="#99a8ae"></path><path d="m469.72 427.41 23.68 5.7v-35.32l-23.68 21.09z" class="h" fill="#1a1626"></path><path d="M469.72 427.41v31.23l23.68-25.53z" class="x" fill="#4e5e67"></path><path d="M469.72 409.16v9.72l23.68-21.09v-9.71z" class="n" fill="#92c932"></path><path d="m368.14 471.44 47.62 17.19v-39.99l-47.62 14.27z" class="h" fill="#1a1626"></path><path d="M368.14 471.44v33.07l47.62-15.88z" class="x" fill="#4e5e67"></path><path d="M368.14 452.68v10.23l47.61-14.27v-10.23z" class="q" fill="#c21413"></path><path d="m42.27 427.41-23.68 5.7v-35.32l23.68 21.09z" class="h" fill="#1a1626"></path><path d="M42.27 427.41v31.23l-23.68-25.53z" class="x" fill="#4e5e67"></path><path d="M42.27 409.16v9.72l-23.68-21.09v-9.71z" class="n" fill="#92c932"></path><path d="m143.85 471.44-47.62 17.19v-39.99l47.62 14.27z" class="h" fill="#1a1626"></path><path d="M143.85 471.44v33.07l-47.62-15.88z" class="x" fill="#4e5e67"></path><path d="M143.85 452.68v10.23l-47.61-14.27v-10.23z" class="q" fill="#c21413"></path><path d="M448.52 473.11V302.56l-5.99 4.26v169.66zm-385.04 0V302.56l5.98 4.26v169.66z" class="g" fill="#798e96"></path><path d="M324.27 455.89a852.5 852.5 0 0 1-136.53 0v-6.35c45.47 3.64 91.07 3.64 136.53 0zm0-13.55a848 848 0 0 1-136.53 0v-6.37c45.47 3.69 91.07 3.69 136.53 0zm0-13.53a852.5 852.5 0 0 1-136.53 0v-6.37a848 848 0 0 0 136.53 0zm0-13.52a855 855 0 0 1-136.53 0v-6.38a852.5 852.5 0 0 0 136.53 0zm0-13.55a848 848 0 0 1-136.53 0v-6.37c45.47 3.64 91.07 3.64 136.53 0zm0-13.53a855 855 0 0 1-136.53 0v-6.37a852.5 852.5 0 0 0 136.53 0zm0-13.55a848 848 0 0 1-136.53 0v-6.37c45.47 3.69 91.07 3.69 136.53 0zm0-13.52a855 855 0 0 1-136.53 0v-6.38a852.5 852.5 0 0 0 136.53 0zm0-13.57a848 848 0 0 1-136.53 0v-6.37a848 848 0 0 0 136.53 0z" class="e" fill="#6e8189"></path><path d="M187.73 467.39h136.53v44.62H187.73z" class="h" fill="#1a1626"></path><path d="m196.27 495.81-8.54 16.2v-44.62h8.54z" class="x" fill="#4e5e67"></path><path d="M228.27 467.39h4.27v44.62h-4.27zm51.2 0h4.27v44.62h-4.27z" class="e" fill="#6e8189"></path><path d="M279.47 512.01h-46.94l9.5-44.62h27.94z" fill="#014f27"></path><path d="m324.27 512.01-8.54-16.2v-28.42h8.54z" class="x" fill="#4e5e67"></path><path d="M324.27 467.39c-45.44 4-91.09 4-136.53 0v-11.17c45.44 4 91.09 4 136.53 0z" class="n" fill="#92c932"></path><path d="M384.03 121.21c0 1.68-6.18 1.68-6.18 0V29.88c0-1.7 6.18-1.7 6.18 0z" class="y" fill="#302c3b"></path><path d="M384.03 32.96v24.61l37.88-12.32z" fill="#e81c27"></path><path d="M127.97 121.21c0 1.68 6.17 1.68 6.17 0V29.88c0-1.7-6.17-1.7-6.17 0z" class="y" fill="#302c3b"></path><path d="M127.97 32.96v24.61L90.09 45.25z" class="n" fill="#92c932"></path><path d="M302.79 84.22c0 1.5-5.5 1.5-5.5 0V1.13c0-1.5 5.5-1.5 5.5 0v83.1Z" class="y" fill="#302c3b"></path><path d="M302.79 3.88v21.89l33.68-10.95z" fill="#e635de"></path><path d="M209.22 84.22c0 1.5 5.49 1.5 5.49 0V1.13c0-1.5-5.49-1.5-5.49 0v83.1Z" class="y" fill="#302c3b"></path><path d="M209.22 3.88v21.89l-33.68-10.95z" fill="#fc6"></path><path d="M465.95 163.58c0 2.07-7.49 2.07-7.49 0V81.33c0-2.05 7.49-2.05 7.49 0z" class="y" fill="#302c3b"></path><path d="M465.95 85.09v29.9l46.03-14.95z" fill="#ffe12c"></path><path d="M46.04 163.58c0 2.07 7.51 2.07 7.51 0V81.33c0-2.05-7.51-2.05-7.51 0z" class="y" fill="#302c3b"></path><path d="M46.04 85.09v29.9L.02 100.04z" fill="#0fb4d4"></path><path d="M512 220.03c0 167.16-512 167.16-512 0 0-156.81 512-156.81 512 0" class="g" fill="#798e96"></path><path d="M12.47 217.18c0 54.35 63.16 89.13 144 104.31l-143-114.74c-.6 3.41-1 6.87-1 10.44Z" class="r" fill="#d12624"></path><path d="m292.75 329.21 102.33-200.99c-41.07-11.49-90.07-17.24-139.08-17.24v219.38c12.28.03 24.58-.39 36.75-1.16Z" class="q" fill="#c21413"></path><path d="M256 330.39V110.98c-49.02 0-98.01 5.75-139.09 17.24l102.32 200.99c12.19.77 24.47 1.19 36.77 1.19Zm99.53-8.9c80.82-15.18 143.98-49.98 143.98-104.31 0-3.57-.38-7.01-1-10.42z" class="r" fill="#d12624"></path><path d="M395.08 128.22 292.75 329.21c21.55-1.38 42.72-3.93 62.78-7.71l142.98-114.75c-6.55-36.75-47.63-62.94-103.43-78.52Zm-278.17 0C61.1 143.8 20.02 169.99 13.47 206.76l143 114.75c20.07 3.78 41.22 6.33 62.76 7.7z" class="p" fill="#e03636"></path><path d="m365.59 186.15 29.5-57.92c-41.07-11.49-90.07-17.24-139.08-17.24v61.18c38.2.02 76.4 4.68 109.59 13.99Z" class="r" fill="#d12624"></path><path d="M12.47 217.18c0 23.87 12.2 43.93 32.7 60.26.17-13.38 4.15-25.46 11.16-36.29l-42.85-34.4c-.61 3.4-1.01 6.86-1.01 10.43" class="k" fill="#b00505"></path><path d="M256 172.18v-61.19c-49.02 0-98.01 5.75-139.09 17.24l29.49 57.94c33.2-9.32 71.38-13.99 109.6-13.99" class="p" fill="#e03636"></path><path d="m146.4 186.15-29.49-57.92C61.1 143.81 20.02 170 13.47 206.77l42.85 34.38c16.39-25.3 49.48-43.61 90.08-55" class="q" fill="#c21413"></path><path d="M455.66 241.14c7.01 10.85 10.98 22.92 11.15 36.29 20.5-16.32 32.7-36.39 32.7-60.25 0-3.58-.38-7.03-1-10.44l-42.85 34.39Z" class="k" fill="#b00505"></path><path d="m395.08 128.22-29.5 57.92c40.6 11.38 73.7 29.7 90.09 55l42.85-34.38c-6.55-36.77-47.63-62.96-103.43-78.54Z" class="q" fill="#c21413"></path><path d="M95.39 304.76c89.62 34.15 231.6 34.15 321.25 0-14.3-95.25-306.97-95.25-321.25 0" style="isolation:isolate" opacity=".5" fill="#92c932"></path><path d="M95.39 304.76c89.62 34.15 231.6 34.15 321.25 0-14.3-95.25-306.97-95.25-321.25 0" fill="url(#1770301555078-469244_b)"></path><path d="M333.07 124.76a705.6 705.6 0 0 0-154.15 0V56.49a705.6 705.6 0 0 1 154.15 0z" class="y" fill="#302c3b"></path><path d="M326.66 118.97a704.2 704.2 0 0 0-141.34 0V60.93c46.99-4.74 94.34-4.74 141.34 0z" fill="#18b5f8"></path><path d="M233.78 157.79c-1.12-6.52 7.29-8.45 8.38-1.94 1.13 6.52-7.28 8.45-8.38 1.94" class="w" fill="#fffb87"></path><path d="M219.87 133.36c0 6.65-8.57 6.65-8.57 0s8.57-6.65 8.57 0" class="l" fill="#ff8585"></path><path d="M247.94 133.36c0 6.65-8.55 6.65-8.55 0s8.55-6.65 8.55 0" class="j" fill="#6fecfd"></path><path d="M221.4 151.83c0 6.65-8.57 6.65-8.57 0s8.57-6.66 8.57 0" class="o" fill="#84f72c"></path><path d="M192.55 139.32c-1.12-6.54 7.29-8.47 8.39-1.94 1.12 6.52-7.28 8.45-8.39 1.94" class="w" fill="#fffb87"></path><path d="M184.09 143.35c0 6.65-8.57 6.65-8.57 0s8.57-6.65 8.57 0" class="l" fill="#ff8585"></path><path d="M177.81 165.15c0 6.63-8.57 6.63-8.57 0s8.57-6.65 8.57 0" class="o" fill="#84f72c"></path><path d="M156.54 147.8c-1.12-6.52 7.29-8.45 8.39-1.94 1.12 6.54-7.28 8.47-8.39 1.94" class="w" fill="#fffb87"></path><path d="M162.71 127.44c-1.11-6.52 7.29-8.47 8.41-1.94 1.11 6.52-7.29 8.47-8.41 1.94" class="j" fill="#6fecfd"></path><path d="M115.53 140.37c0 6.65-8.57 6.65-8.57 0s8.57-6.66 8.57 0" class="l" fill="#ff8585"></path><path d="M124.25 161.81c0 6.65-8.57 6.65-8.57 0s8.57-6.65 8.57 0" class="w" fill="#fffb87"></path><path d="M132.92 179.05c0 6.65-8.57 6.65-8.57 0s8.57-6.65 8.57 0" class="j" fill="#6fecfd"></path><path d="M112.86 186.7c0 6.66-8.56 6.66-8.56 0s8.56-6.65 8.56 0" class="o" fill="#84f72c"></path><path d="M139.37 165.52c-1.11-6.52 7.29-8.47 8.4-1.95 1.12 6.53-7.29 8.48-8.4 1.95" class="l" fill="#ff8585"></path><path d="M90.05 170.04c-1.11-6.55 7.29-8.47 8.4-1.95 1.11 6.53-7.28 8.48-8.4 1.95" class="w" fill="#fffb87"></path><path d="M139.37 142.8c-1.12-6.52 7.29-8.45 8.39-1.94 1.13 6.54-7.28 8.47-8.39 1.94m-49.74 61.87c0 6.65-8.57 6.65-8.57 0s8.57-6.65 8.57 0" class="o" fill="#84f72c"></path><path d="M55.91 208.11c-1.11-6.54 7.29-8.47 8.4-1.95 1.12 6.54-7.28 8.47-8.4 1.95" class="w" fill="#fffb87"></path><path d="M77.86 187.68c-1.11-6.52 7.29-8.47 8.41-1.95 1.11 6.54-7.3 8.48-8.41 1.95" class="j" fill="#6fecfd"></path><path d="M92.07 149.55c-1.12-6.54 7.29-8.47 8.39-1.94 1.12 6.52-7.29 8.46-8.39 1.94" class="o" fill="#84f72c"></path><path d="M37.71 199.68c0 6.65-8.57 6.65-8.57 0s8.57-6.65 8.57 0" class="l" fill="#ff8585"></path><path d="M133.14 133.35c0 6.66-8.57 6.66-8.57 0s8.57-6.65 8.57 0" class="j" fill="#6fecfd"></path><path d="M60.21 189.5c-1.11-6.52 7.29-8.47 8.4-1.95 1.11 6.54-7.28 8.48-8.4 1.95" class="l" fill="#ff8585"></path><path d="M20.92 218.88c-1.11-6.52 7.29-8.45 8.4-1.94 1.12 6.54-7.28 8.47-8.4 1.94m17.19-34.36c-1.11-6.52 7.29-8.47 8.41-1.95s-7.29 8.48-8.41 1.95" class="j" fill="#6fecfd"></path><path d="M35.28 239.3c0 6.66-8.57 6.66-8.57 0s8.57-6.66 8.57 0" class="l" fill="#ff8585"></path><path d="M60.89 165.43c0 6.65-8.57 6.65-8.57 0s8.57-6.65 8.57 0" class="w" fill="#fffb87"></path><path d="M70.87 165.8c-1.11-6.54 7.29-8.48 8.4-1.95 1.11 6.55-7.28 8.48-8.4 1.95" class="l" fill="#ff8585"></path><path d="M38.12 252.99c-1.12-6.52 7.29-8.45 8.39-1.94 1.13 6.52-7.28 8.46-8.39 1.94" class="w" fill="#fffb87"></path><path d="M39.93 228.03c-1.12-6.52 7.29-8.47 8.39-1.94 1.12 6.52-7.28 8.46-8.39 1.94" class="o" fill="#84f72c"></path><path d="M244.1 194.5c-1.12-6.54 7.29-8.47 8.4-1.94 1.13 6.53-7.28 8.46-8.4 1.94" class="w" fill="#fffb87"></path><path d="M244.1 221c-1.12-6.52 7.29-8.47 8.4-1.95s-7.28 8.47-8.4 1.95" class="j" fill="#6fecfd"></path><path d="M229.96 176.73c0 6.65-8.57 6.65-8.57 0s8.57-6.65 8.57 0" class="l" fill="#ff8585"></path><path d="M230.54 223.91c0 6.65-8.57 6.65-8.57 0s8.57-6.66 8.57 0" class="w" fill="#fffb87"></path><path d="M255.11 173.54c0 6.65-8.57 6.65-8.57 0 0-6.66 8.57-6.66 8.57 0" class="j" fill="#6fecfd"></path><path d="M226.33 203.11c-1.12-6.54 7.29-8.47 8.4-1.95 1.11 6.54-7.28 8.47-8.4 1.95" class="l" fill="#ff8585"></path><path d="M181.77 224c-1.11-6.52 7.29-8.47 8.4-1.94 1.13 6.54-7.28 8.47-8.4 1.94m15.07-38.36c-1.11-6.52 7.29-8.47 8.4-1.94 1.12 6.54-7.28 8.47-8.4 1.94" class="w" fill="#fffb87"></path><path d="M180.38 195.99c-1.12-6.52 7.29-8.47 8.4-1.94 1.12 6.52-7.29 8.47-8.4 1.94" class="j" fill="#6fecfd"></path><path d="M204.36 207.34c-1.11-6.52 7.29-8.45 8.4-1.94 1.12 6.54-7.28 8.47-8.4 1.94" class="o" fill="#84f72c"></path><path d="M158.3 223.74c0 6.65-8.57 6.65-8.57 0s8.57-6.65 8.57 0" class="w" fill="#fffb87"></path><path d="M173.53 236.16c0 6.65-8.56 6.65-8.56 0s8.56-6.65 8.56 0" class="j" fill="#6fecfd"></path><path d="M200.06 227.48c-1.11-6.54 7.29-8.47 8.4-1.95s-7.28 8.47-8.4 1.95" class="l" fill="#ff8585"></path><path d="M139.37 203.87c-1.11-6.54 7.29-8.48 8.41-1.95 1.11 6.52-7.3 8.47-8.41 1.95" class="j" fill="#6fecfd"></path><path d="M165.13 209.91c-1.12-6.54 7.29-8.47 8.39-1.95 1.12 6.54-7.28 8.47-8.39 1.95" class="o" fill="#84f72c"></path><path d="M106.93 241.14c0 6.65-8.57 6.65-8.57 0s8.57-6.65 8.57 0" class="l" fill="#ff8585"></path><path d="M130.4 240.74c0 6.65-8.56 6.65-8.56 0s8.56-6.65 8.56 0" class="w" fill="#fffb87"></path><path d="M198.84 164.06c0 6.65-8.57 6.65-8.57 0s8.57-6.65 8.57 0" class="o" fill="#84f72c"></path><path d="M120.16 195.67c-1.11-6.54 7.29-8.47 8.4-1.94 1.12 6.52-7.29 8.46-8.4 1.94" class="w" fill="#fffb87"></path><path d="M104.38 226.59c-1.12-6.52 7.29-8.47 8.41-1.95 1.11 6.54-7.3 8.49-8.41 1.95" class="j" fill="#6fecfd"></path><path d="M130.83 219.72c-1.12-6.54 7.29-8.47 8.39-1.94 1.12 6.52-7.29 8.45-8.39 1.94" class="o" fill="#84f72c"></path><path d="M100.55 275.36c0 6.65-8.57 6.65-8.57 0s8.57-6.66 8.57 0" class="w" fill="#fffb87"></path><path d="M161.63 183.53c0 6.65-8.57 6.65-8.57 0s8.57-6.66 8.57 0" class="j" fill="#6fecfd"></path><path d="M76.61 282.68c-1.12-6.54 7.29-8.47 8.39-1.95 1.12 6.52-7.28 8.47-8.39 1.95" class="w" fill="#fffb87"></path><path d="M66.57 262c-1.12-6.52 7.29-8.47 8.4-1.94 1.13 6.51-7.29 8.47-8.4 1.94" class="j" fill="#6fecfd"></path><path d="M94.14 255.68c-1.12-6.52 7.29-8.47 8.39-1.94 1.12 6.53-7.28 8.47-8.39 1.94" class="o" fill="#84f72c"></path><path d="M85.34 246.13c0 6.65-8.57 6.65-8.57 0s8.57-6.65 8.57 0" class="l" fill="#ff8585"></path><path d="M89.62 227.05c0 6.65-8.56 6.65-8.56 0s8.56-6.65 8.56 0" class="w" fill="#fffb87"></path><path d="M152.14 238.74c0 6.65-8.57 6.65-8.57 0s8.57-6.65 8.57 0" class="j" fill="#6fecfd"></path><path d="M58.7 262.02c0 6.65-8.57 6.65-8.57 0s8.57-6.66 8.57 0" class="o" fill="#84f72c"></path><path d="M102.75 206.87c-1.11-6.54 7.29-8.48 8.4-1.96 1.11 6.53-7.29 8.47-8.4 1.96" class="l" fill="#ff8585"></path><path d="M56.7 235.27c-1.12-6.54 7.29-8.47 8.4-1.95 1.12 6.54-7.29 8.48-8.4 1.95" class="j" fill="#6fecfd"></path><path d="M111.48 257.99c-1.12-6.52 7.29-8.47 8.39-1.94 1.12 6.52-7.28 8.46-8.39 1.94" class="o" fill="#84f72c"></path><path d="M278.22 157.79c1.12-6.52-7.29-8.45-8.38-1.94-1.13 6.52 7.28 8.45 8.38 1.94" class="w" fill="#fffb87"></path><path d="M292.13 133.36c0 6.65 8.57 6.65 8.57 0s-8.57-6.65-8.57 0" class="l" fill="#ff8585"></path><path d="M264.06 133.36c0 6.65 8.55 6.65 8.55 0s-8.55-6.65-8.55 0" class="j" fill="#6fecfd"></path><path d="M290.6 151.83c0 6.65 8.57 6.65 8.57 0s-8.57-6.66-8.57 0" class="o" fill="#84f72c"></path><path d="M319.45 139.32c1.12-6.54-7.29-8.47-8.38-1.94-1.13 6.52 7.28 8.45 8.38 1.94" class="w" fill="#fffb87"></path><path d="M327.92 143.35c0 6.65 8.57 6.65 8.57 0s-8.57-6.65-8.57 0" class="l" fill="#ff8585"></path><path d="M334.1 170.43c0 6.63 8.57 6.63 8.57 0 0-6.65-8.57-6.65-8.57 0" class="o" fill="#84f72c"></path><path d="M355.46 147.8c1.12-6.52-7.29-8.45-8.4-1.94-1.12 6.54 7.28 8.47 8.4 1.94" class="w" fill="#fffb87"></path><path d="M349.3 127.44c1.1-6.52-7.3-8.47-8.41-1.94-1.11 6.52 7.3 8.47 8.41 1.94" class="j" fill="#6fecfd"></path><path d="M396.47 140.37c0 6.65 8.57 6.65 8.57 0s-8.57-6.66-8.57 0" class="l" fill="#ff8585"></path><path d="M387.75 161.81c0 6.65 8.57 6.65 8.57 0s-8.57-6.65-8.57 0" class="w" fill="#fffb87"></path><path d="M379.08 179.05c0 6.65 8.57 6.65 8.57 0s-8.57-6.65-8.57 0" class="j" fill="#6fecfd"></path><path d="M399.13 186.7c0 6.66 8.57 6.66 8.57 0s-8.57-6.65-8.57 0" class="o" fill="#84f72c"></path><path d="M372.63 165.52c1.1-6.52-7.3-8.47-8.4-1.95-1.12 6.53 7.28 8.48 8.4 1.95" class="l" fill="#ff8585"></path><path d="M421.95 170.04c1.1-6.55-7.29-8.47-8.4-1.95-1.12 6.53 7.28 8.48 8.4 1.95" class="w" fill="#fffb87"></path><path d="M372.62 142.8c1.12-6.52-7.29-8.45-8.38-1.94-1.12 6.54 7.28 8.47 8.38 1.94m49.75 61.87c0 6.65 8.57 6.65 8.57 0s-8.57-6.65-8.57 0" class="o" fill="#84f72c"></path><path d="M456.08 208.11c1.12-6.54-7.29-8.47-8.4-1.95-1.1 6.54 7.28 8.47 8.4 1.95" class="w" fill="#fffb87"></path><path d="M434.15 187.68c1.1-6.52-7.3-8.47-8.41-1.95-1.1 6.54 7.3 8.48 8.41 1.95" class="j" fill="#6fecfd"></path><path d="M419.93 149.55c1.12-6.54-7.29-8.47-8.38-1.94-1.12 6.52 7.28 8.46 8.38 1.94" class="o" fill="#84f72c"></path><path d="M474.28 199.68c0 6.65 8.57 6.65 8.57 0s-8.57-6.65-8.57 0" class="l" fill="#ff8585"></path><path d="M378.86 133.35c0 6.66 8.57 6.66 8.57 0s-8.57-6.65-8.57 0" class="j" fill="#6fecfd"></path><path d="M451.78 189.5c1.12-6.52-7.29-8.47-8.4-1.95-1.1 6.54 7.29 8.48 8.4 1.95" class="l" fill="#ff8585"></path><path d="M491.08 218.88c1.12-6.52-7.29-8.45-8.4-1.94-1.12 6.54 7.28 8.47 8.4 1.94m-17.2-34.36c1.12-6.52-7.29-8.47-8.4-1.95s7.28 8.48 8.4 1.95" class="j" fill="#6fecfd"></path><path d="M476.71 239.3c0 6.66 8.57 6.66 8.57 0s-8.57-6.66-8.57 0" class="l" fill="#ff8585"></path><path d="M451.1 165.43c0 6.65 8.57 6.65 8.57 0s-8.57-6.65-8.57 0" class="w" fill="#fffb87"></path><path d="M441.13 165.8c1.1-6.54-7.29-8.48-8.4-1.95-1.12 6.55 7.28 8.48 8.4 1.95" class="l" fill="#ff8585"></path><path d="M473.88 252.99c1.12-6.52-7.29-8.45-8.4-1.94s7.28 8.46 8.4 1.94" class="w" fill="#fffb87"></path><path d="M472.06 228.03c1.12-6.52-7.29-8.47-8.38-1.94-1.12 6.52 7.28 8.46 8.38 1.94" class="o" fill="#84f72c"></path><path d="M278.22 185c1.12-6.55-7.29-8.47-8.38-1.94-1.13 6.52 7.28 8.46 8.38 1.94" class="w" fill="#fffb87"></path><path d="M269.67 211.86c1.12-6.52-7.29-8.47-8.4-1.95s7.28 8.47 8.4 1.95" class="j" fill="#6fecfd"></path><path d="M289.35 175.41c0 6.65 8.57 6.65 8.57 0s-8.57-6.65-8.57 0" class="l" fill="#ff8585"></path><path d="M275.34 223.91c0 6.65 8.57 6.65 8.57 0s-8.57-6.66-8.57 0" class="w" fill="#fffb87"></path><path d="M252.6 151.83c0 6.65 8.57 6.65 8.57 0s-8.57-6.66-8.57 0" class="j" fill="#6fecfd"></path><path d="M288.1 203.11c1.12-6.54-7.29-8.47-8.4-1.95-1.11 6.54 7.28 8.47 8.4 1.95" class="l" fill="#ff8585"></path><path d="M330.23 224c1.1-6.52-7.3-8.47-8.4-1.94-1.12 6.54 7.28 8.47 8.4 1.94m-15.06-38.36c1.1-6.52-7.3-8.47-8.4-1.94-1.13 6.54 7.28 8.47 8.4 1.94" class="w" fill="#fffb87"></path><path d="M331.61 195.99c1.12-6.52-7.29-8.47-8.4-1.94-1.12 6.52 7.3 8.47 8.4 1.94" class="j" fill="#6fecfd"></path><path d="M307.65 207.34c1.1-6.52-7.29-8.45-8.4-1.94-1.12 6.54 7.28 8.47 8.4 1.94" class="o" fill="#84f72c"></path><path d="M353.7 223.74c0 6.65 8.57 6.65 8.57 0s-8.57-6.65-8.57 0" class="w" fill="#fffb87"></path><path d="M338.47 236.16c0 6.65 8.57 6.65 8.57 0s-8.57-6.65-8.57 0" class="j" fill="#6fecfd"></path><path d="M311.95 227.48c1.1-6.54-7.29-8.47-8.4-1.95s7.28 8.47 8.4 1.95" class="l" fill="#ff8585"></path><path d="M372.63 203.87c1.1-6.54-7.3-8.48-8.41-1.95-1.1 6.52 7.3 8.47 8.41 1.95" class="j" fill="#6fecfd"></path><path d="M346.86 209.91c1.12-6.54-7.29-8.47-8.38-1.95-1.12 6.54 7.29 8.47 8.38 1.95" class="o" fill="#84f72c"></path><path d="M405.07 241.14c0 6.65 8.57 6.65 8.57 0s-8.57-6.65-8.57 0" class="l" fill="#ff8585"></path><path d="M381.6 240.74c0 6.65 8.57 6.65 8.57 0s-8.57-6.65-8.57 0" class="w" fill="#fffb87"></path><path d="M313.16 164.06c0 6.65 8.57 6.65 8.57 0s-8.57-6.65-8.57 0" class="o" fill="#84f72c"></path><path d="M391.85 195.67c1.1-6.54-7.3-8.47-8.4-1.94-1.12 6.52 7.28 8.46 8.4 1.94" class="w" fill="#fffb87"></path><path d="M407.62 226.59c1.12-6.52-7.29-8.47-8.4-1.95-1.13 6.54 7.3 8.49 8.4 1.95" class="j" fill="#6fecfd"></path><path d="M381.17 219.72c1.12-6.54-7.29-8.47-8.38-1.94-1.12 6.52 7.28 8.45 8.38 1.94" class="o" fill="#84f72c"></path><path d="M411.45 275.36c0 6.65 8.57 6.65 8.57 0s-8.57-6.66-8.57 0" class="w" fill="#fffb87"></path><path d="M350.37 183.53c0 6.65 8.57 6.65 8.57 0s-8.57-6.66-8.57 0" class="j" fill="#6fecfd"></path><path d="M435.38 282.68c1.12-6.54-7.29-8.47-8.38-1.95-1.12 6.52 7.29 8.47 8.38 1.95" class="w" fill="#fffb87"></path><path d="M445.43 262c1.12-6.52-7.3-8.47-8.4-1.94-1.12 6.51 7.28 8.47 8.4 1.94" class="j" fill="#6fecfd"></path><path d="M417.87 255.68c1.12-6.52-7.29-8.47-8.4-1.94-1.12 6.53 7.28 8.47 8.4 1.94" class="o" fill="#84f72c"></path><path d="M426.65 246.13c0 6.65 8.57 6.65 8.57 0s-8.57-6.65-8.57 0" class="l" fill="#ff8585"></path><path d="M422.38 227.05c0 6.65 8.55 6.65 8.55 0s-8.55-6.65-8.55 0" class="w" fill="#fffb87"></path><path d="M359.87 238.74c0 6.65 8.57 6.65 8.57 0s-8.57-6.65-8.57 0" class="j" fill="#6fecfd"></path><path d="M453.3 262.02c0 6.65 8.57 6.65 8.57 0s-8.57-6.66-8.57 0" class="o" fill="#84f72c"></path><path d="M409.25 206.87c1.12-6.54-7.29-8.48-8.4-1.96-1.1 6.53 7.28 8.47 8.4 1.96" class="l" fill="#ff8585"></path><path d="M455.3 235.27c1.12-6.54-7.29-8.47-8.4-1.95-1.12 6.54 7.3 8.48 8.4 1.95" class="j" fill="#6fecfd"></path><path d="M400.52 257.99c1.12-6.52-7.29-8.47-8.38-1.94-1.13 6.52 7.28 8.46 8.38 1.94" class="o" fill="#84f72c"></path></g></svg>
