<svg xmlns="http://www.w3.org/2000/svg" data-name="Layer 1" style="" viewBox="0 0 512 495.48"><g><defs><linearGradient id="1770301555007-8831899_b" x1="256" x2="256" y1="43.29" y2="274.52" gradientTransform="matrix(1 0 0 -1 0 497.48)" gradientUnits="userSpaceOnUse"><stop offset="0" stop-color="#5b666e"></stop><stop offset=".24" stop-color="#565f68"></stop><stop offset=".58" stop-color="#484c58"></stop><stop offset=".98" stop-color="#312e3d"></stop><stop offset="1" stop-color="#302c3b"></stop></linearGradient><linearGradient id="1770301555007-8831899_c" x1="75.88" x2="114.05" y1="164.35" y2="164.35" gradientTransform="matrix(1 0 0 -1 0 497.48)" gradientUnits="userSpaceOnUse"><stop offset="0" stop-color="#f3f8fc"></stop><stop offset="1" stop-color="#c6cfd4"></stop></linearGradient><linearGradient id="1770301555007-8831899_d" x1="72.84" x2="117.09" y1="233.58" y2="233.58" gradientTransform="matrix(1 0 0 -1 0 497.48)" gradientUnits="userSpaceOnUse"><stop offset="0" stop-color="#ecf1f5"></stop><stop offset=".14" stop-color="#e2e8ed"></stop><stop offset=".7" stop-color="#c0cacf"></stop><stop offset="1" stop-color="#b3bec4"></stop></linearGradient><linearGradient id="1770301555007-8831899_e" x1="57.81" x2="132.13" y1="268.97" y2="268.97" gradientTransform="matrix(1 0 0 -1 0 497.48)" gradientUnits="userSpaceOnUse"><stop offset="0" stop-color="#ecf1f5"></stop><stop offset=".14" stop-color="#e2e8ed"></stop><stop offset=".7" stop-color="#c0cacf"></stop><stop offset="1" stop-color="#b3bec4"></stop></linearGradient><linearGradient id="1770301555007-8831899_f" x1="69.16" x2="120.77" y1="249.14" y2="249.14" gradientTransform="matrix(1 0 0 -1 0 497.48)" gradientUnits="userSpaceOnUse"><stop offset="0" stop-color="#ecf1f5"></stop><stop offset=".14" stop-color="#e2e8ed"></stop><stop offset=".7" stop-color="#c0cacf"></stop><stop offset="1" stop-color="#b3bec4"></stop></linearGradient><linearGradient id="1770301555007-8831899_g" x1="57.81" x2="132.13" y1="256.58" y2="256.58" gradientTransform="matrix(1 0 0 -1 0 497.48)" gradientUnits="userSpaceOnUse"><stop offset="0" stop-color="#f3f8fc"></stop><stop offset="1" stop-color="#c6cfd4"></stop></linearGradient><linearGradient id="1770301555007-8831899_h" x1="72.84" x2="117.09" y1="82.67" y2="82.67" gradientTransform="matrix(1 0 0 -1 0 497.48)" gradientUnits="userSpaceOnUse"><stop offset="0" stop-color="#ecf1f5"></stop><stop offset=".14" stop-color="#e2e8ed"></stop><stop offset=".7" stop-color="#c0cacf"></stop><stop offset="1" stop-color="#b3bec4"></stop></linearGradient><linearGradient id="1770301555007-8831899_i" x1="70.3" x2="119.64" y1="80.05" y2="80.05" gradientTransform="matrix(1 0 0 -1 0 497.48)" gradientUnits="userSpaceOnUse"><stop offset="0" stop-color="#f3f8fc"></stop><stop offset="1" stop-color="#c6cfd4"></stop></linearGradient><linearGradient id="1770301555007-8831899_j" x1="66.84" x2="123.1" y1="69.11" y2="69.11" gradientTransform="matrix(1 0 0 -1 0 497.48)" gradientUnits="userSpaceOnUse"><stop offset="0" stop-color="#ecf1f5"></stop><stop offset=".14" stop-color="#e2e8ed"></stop><stop offset=".7" stop-color="#c0cacf"></stop><stop offset="1" stop-color="#b3bec4"></stop></linearGradient><linearGradient id="1770301555007-8831899_k" x1="64.28" x2="125.65" y1="53.6" y2="53.6" gradientTransform="matrix(1 0 0 -1 0 497.48)" gradientUnits="userSpaceOnUse"><stop offset="0" stop-color="#f3f8fc"></stop><stop offset="1" stop-color="#c6cfd4"></stop></linearGradient><linearGradient id="1770301555007-8831899_l" x1="397.94" x2="436.12" y1="164.35" y2="164.35" gradientTransform="matrix(1 0 0 -1 0 497.48)" gradientUnits="userSpaceOnUse"><stop offset="0" stop-color="#f3f8fc"></stop><stop offset="1" stop-color="#c6cfd4"></stop></linearGradient><linearGradient id="1770301555007-8831899_m" x1="394.9" x2="439.16" y1="233.58" y2="233.58" gradientTransform="matrix(1 0 0 -1 0 497.48)" gradientUnits="userSpaceOnUse"><stop offset="0" stop-color="#ecf1f5"></stop><stop offset=".14" stop-color="#e2e8ed"></stop><stop offset=".7" stop-color="#c0cacf"></stop><stop offset="1" stop-color="#b3bec4"></stop></linearGradient><linearGradient id="1770301555007-8831899_n" x1="379.87" x2="454.19" y1="268.97" y2="268.97" gradientTransform="matrix(1 0 0 -1 0 497.48)" gradientUnits="userSpaceOnUse"><stop offset="0" stop-color="#ecf1f5"></stop><stop offset=".14" stop-color="#e2e8ed"></stop><stop offset=".7" stop-color="#c0cacf"></stop><stop offset="1" stop-color="#b3bec4"></stop></linearGradient><linearGradient id="1770301555007-8831899_o" x1="391.22" x2="442.84" y1="249.14" y2="249.14" gradientTransform="matrix(1 0 0 -1 0 497.48)" gradientUnits="userSpaceOnUse"><stop offset="0" stop-color="#ecf1f5"></stop><stop offset=".14" stop-color="#e2e8ed"></stop><stop offset=".7" stop-color="#c0cacf"></stop><stop offset="1" stop-color="#b3bec4"></stop></linearGradient><linearGradient id="1770301555007-8831899_p" x1="379.87" x2="454.19" y1="256.58" y2="256.58" gradientTransform="matrix(1 0 0 -1 0 497.48)" gradientUnits="userSpaceOnUse"><stop offset="0" stop-color="#f3f8fc"></stop><stop offset="1" stop-color="#c6cfd4"></stop></linearGradient><linearGradient id="1770301555007-8831899_q" x1="394.9" x2="439.16" y1="82.67" y2="82.67" gradientTransform="matrix(1 0 0 -1 0 497.48)" gradientUnits="userSpaceOnUse"><stop offset="0" stop-color="#ecf1f5"></stop><stop offset=".14" stop-color="#e2e8ed"></stop><stop offset=".7" stop-color="#c0cacf"></stop><stop offset="1" stop-color="#b3bec4"></stop></linearGradient><linearGradient id="1770301555007-8831899_r" x1="392.37" x2="441.71" y1="80.05" y2="80.05" gradientTransform="matrix(1 0 0 -1 0 497.48)" gradientUnits="userSpaceOnUse"><stop offset="0" stop-color="#f3f8fc"></stop><stop offset="1" stop-color="#c6cfd4"></stop></linearGradient><linearGradient id="1770301555007-8831899_s" x1="388.9" x2="445.17" y1="69.11" y2="69.11" gradientTransform="matrix(1 0 0 -1 0 497.48)" gradientUnits="userSpaceOnUse"><stop offset="0" stop-color="#ecf1f5"></stop><stop offset=".14" stop-color="#e2e8ed"></stop><stop offset=".7" stop-color="#c0cacf"></stop><stop offset="1" stop-color="#b3bec4"></stop></linearGradient><linearGradient id="1770301555007-8831899_t" x1="386.35" x2="447.72" y1="53.6" y2="53.6" gradientTransform="matrix(1 0 0 -1 0 497.48)" gradientUnits="userSpaceOnUse"><stop offset="0" stop-color="#f3f8fc"></stop><stop offset="1" stop-color="#c6cfd4"></stop></linearGradient><linearGradient id="1770301555007-8831899_u" x1="290.58" x2="328.77" y1="164.35" y2="164.35" gradientTransform="matrix(1 0 0 -1 0 497.48)" gradientUnits="userSpaceOnUse"><stop offset="0" stop-color="#f3f8fc"></stop><stop offset="1" stop-color="#c6cfd4"></stop></linearGradient><linearGradient id="1770301555007-8831899_v" x1="287.55" x2="331.8" y1="233.58" y2="233.58" gradientTransform="matrix(1 0 0 -1 0 497.48)" gradientUnits="userSpaceOnUse"><stop offset="0" stop-color="#ecf1f5"></stop><stop offset=".14" stop-color="#e2e8ed"></stop><stop offset=".7" stop-color="#c0cacf"></stop><stop offset="1" stop-color="#b3bec4"></stop></linearGradient><linearGradient id="1770301555007-8831899_w" x1="272.52" x2="346.84" y1="268.97" y2="268.97" gradientTransform="matrix(1 0 0 -1 0 497.48)" gradientUnits="userSpaceOnUse"><stop offset="0" stop-color="#ecf1f5"></stop><stop offset=".14" stop-color="#e2e8ed"></stop><stop offset=".7" stop-color="#c0cacf"></stop><stop offset="1" stop-color="#b3bec4"></stop></linearGradient><linearGradient id="1770301555007-8831899_x" x1="283.87" x2="335.48" y1="249.14" y2="249.14" gradientTransform="matrix(1 0 0 -1 0 497.48)" gradientUnits="userSpaceOnUse"><stop offset="0" stop-color="#ecf1f5"></stop><stop offset=".14" stop-color="#e2e8ed"></stop><stop offset=".7" stop-color="#c0cacf"></stop><stop offset="1" stop-color="#b3bec4"></stop></linearGradient><linearGradient id="1770301555007-8831899_y" x1="272.52" x2="346.84" y1="256.58" y2="256.58" gradientTransform="matrix(1 0 0 -1 0 497.48)" gradientUnits="userSpaceOnUse"><stop offset="0" stop-color="#f3f8fc"></stop><stop offset="1" stop-color="#c6cfd4"></stop></linearGradient><linearGradient id="1770301555007-8831899_z" x1="287.55" x2="331.8" y1="82.67" y2="82.67" gradientTransform="matrix(1 0 0 -1 0 497.48)" gradientUnits="userSpaceOnUse"><stop offset="0" stop-color="#ecf1f5"></stop><stop offset=".14" stop-color="#e2e8ed"></stop><stop offset=".7" stop-color="#c0cacf"></stop><stop offset="1" stop-color="#b3bec4"></stop></linearGradient><linearGradient id="1770301555007-8831899_aa" x1="285.01" x2="334.35" y1="80.05" y2="80.05" gradientTransform="matrix(1 0 0 -1 0 497.48)" gradientUnits="userSpaceOnUse"><stop offset="0" stop-color="#f3f8fc"></stop><stop offset="1" stop-color="#c6cfd4"></stop></linearGradient><linearGradient id="1770301555007-8831899_ab" x1="281.55" x2="337.81" y1="69.11" y2="69.11" gradientTransform="matrix(1 0 0 -1 0 497.48)" gradientUnits="userSpaceOnUse"><stop offset="0" stop-color="#ecf1f5"></stop><stop offset=".14" stop-color="#e2e8ed"></stop><stop offset=".7" stop-color="#c0cacf"></stop><stop offset="1" stop-color="#b3bec4"></stop></linearGradient><linearGradient id="1770301555007-8831899_ac" x1="278.99" x2="340.36" y1="53.6" y2="53.6" gradientTransform="matrix(1 0 0 -1 0 497.48)" gradientUnits="userSpaceOnUse"><stop offset="0" stop-color="#f3f8fc"></stop><stop offset="1" stop-color="#c6cfd4"></stop></linearGradient><linearGradient id="1770301555007-8831899_ad" x1="183.23" x2="221.42" y1="164.35" y2="164.35" gradientTransform="matrix(1 0 0 -1 0 497.48)" gradientUnits="userSpaceOnUse"><stop offset="0" stop-color="#f3f8fc"></stop><stop offset="1" stop-color="#c6cfd4"></stop></linearGradient><linearGradient id="1770301555007-8831899_ae" x1="180.19" x2="224.45" y1="233.58" y2="233.58" gradientTransform="matrix(1 0 0 -1 0 497.48)" gradientUnits="userSpaceOnUse"><stop offset="0" stop-color="#ecf1f5"></stop><stop offset=".14" stop-color="#e2e8ed"></stop><stop offset=".7" stop-color="#c0cacf"></stop><stop offset="1" stop-color="#b3bec4"></stop></linearGradient><linearGradient id="1770301555007-8831899_af" x1="165.16" x2="239.48" y1="268.97" y2="268.97" gradientTransform="matrix(1 0 0 -1 0 497.48)" gradientUnits="userSpaceOnUse"><stop offset="0" stop-color="#ecf1f5"></stop><stop offset=".14" stop-color="#e2e8ed"></stop><stop offset=".7" stop-color="#c0cacf"></stop><stop offset="1" stop-color="#b3bec4"></stop></linearGradient><linearGradient id="1770301555007-8831899_ag" x1="176.52" x2="228.12" y1="249.14" y2="249.14" gradientTransform="matrix(1 0 0 -1 0 497.48)" gradientUnits="userSpaceOnUse"><stop offset="0" stop-color="#ecf1f5"></stop><stop offset=".14" stop-color="#e2e8ed"></stop><stop offset=".7" stop-color="#c0cacf"></stop><stop offset="1" stop-color="#b3bec4"></stop></linearGradient><linearGradient id="1770301555007-8831899_ah" x1="165.16" x2="239.48" y1="256.58" y2="256.58" gradientTransform="matrix(1 0 0 -1 0 497.48)" gradientUnits="userSpaceOnUse"><stop offset="0" stop-color="#f3f8fc"></stop><stop offset="1" stop-color="#c6cfd4"></stop></linearGradient><linearGradient id="1770301555007-8831899_ai" x1="180.19" x2="224.45" y1="82.67" y2="82.67" gradientTransform="matrix(1 0 0 -1 0 497.48)" gradientUnits="userSpaceOnUse"><stop offset="0" stop-color="#ecf1f5"></stop><stop offset=".14" stop-color="#e2e8ed"></stop><stop offset=".7" stop-color="#c0cacf"></stop><stop offset="1" stop-color="#b3bec4"></stop></linearGradient><linearGradient id="1770301555007-8831899_aj" x1="177.66" x2="227" y1="80.05" y2="80.05" gradientTransform="matrix(1 0 0 -1 0 497.48)" gradientUnits="userSpaceOnUse"><stop offset="0" stop-color="#f3f8fc"></stop><stop offset="1" stop-color="#c6cfd4"></stop></linearGradient><linearGradient id="1770301555007-8831899_ak" x1="174.19" x2="230.46" y1="69.11" y2="69.11" gradientTransform="matrix(1 0 0 -1 0 497.48)" gradientUnits="userSpaceOnUse"><stop offset="0" stop-color="#ecf1f5"></stop><stop offset=".14" stop-color="#e2e8ed"></stop><stop offset=".7" stop-color="#c0cacf"></stop><stop offset="1" stop-color="#b3bec4"></stop></linearGradient><linearGradient id="1770301555007-8831899_al" x1="171.64" x2="233.01" y1="53.6" y2="53.6" gradientTransform="matrix(1 0 0 -1 0 497.48)" gradientUnits="userSpaceOnUse"><stop offset="0" stop-color="#f3f8fc"></stop><stop offset="1" stop-color="#c6cfd4"></stop></linearGradient><linearGradient id="1770301555007-8831899_am" x1="256" x2="256" y1="322.87" y2="453.82" gradientTransform="matrix(1 0 0 -1 0 497.48)" gradientUnits="userSpaceOnUse"><stop offset="0" stop-color="#e7ecf0"></stop><stop offset="1" stop-color="#99a8ae"></stop></linearGradient></defs><path d="M82.58 222.97h346.84V454.2H82.58z" fill="url(#1770301555007-8831899_b)"></path><path d="M75.88 245.82h38.18v174.63H75.88z" fill="url(#1770301555007-8831899_c)"></path><path d="M72.84 261.28h44.25v5.25H72.84z" fill="url(#1770301555007-8831899_d)"></path><path d="M132.13 236.48c-13.14 13.14-74.32 0-74.32 0v-21.77h74.32z" fill="url(#1770301555007-8831899_e)"></path><path d="M117.1 254.08H72.84s-5.36-5.35-3.14-8.75c2.36-3.62 48.17-3.62 50.53 0 2.23 3.39-3.13 8.75-3.13 8.75" fill="url(#1770301555007-8831899_f)"></path><path d="M125.3 245.32H64.64l-6.83-8.84h74.32z" fill="url(#1770301555007-8831899_g)"></path><path d="M72.84 412.18h44.25v5.25H72.84z" fill="url(#1770301555007-8831899_h)"></path><path d="M70.3 414.81h49.34v5.25H70.3z" fill="url(#1770301555007-8831899_i)"></path><path d="M122.77 433.56c-31.12 7.01-55.61 0-55.61 0-1.92-3.03 5.23-13.5 5.23-13.5h45.16s7.14 10.47 5.22 13.5" fill="url(#1770301555007-8831899_j)"></path><path d="M64.28 433.56h61.37v20.63H64.28z" fill="url(#1770301555007-8831899_k)"></path><path d="M93.21 268.87h3.52v138.62h-3.52zm6.13 0h3.53v138.62h-3.53zm-12.28 0h3.53v138.62h-3.53zm18.21 0h2.79v138.62h-2.79zm-23.4 0h2.79v138.62h-2.79zm27.51 0h1.91v138.62h-1.91zm-30.74 0h1.91v138.62h-1.91z" class="cb" style="isolation:isolate" fill="#99a8ae" opacity=".2"></path><path d="M397.94 245.82h38.18v174.63h-38.18z" fill="url(#1770301555007-8831899_l)"></path><path d="M394.9 261.28h44.25v5.25H394.9z" fill="url(#1770301555007-8831899_m)"></path><path d="M454.19 236.48c-13.14 13.14-74.32 0-74.32 0v-21.77h74.32z" fill="url(#1770301555007-8831899_n)"></path><path d="M439.16 254.08H394.9s-5.36-5.35-3.14-8.75c2.36-3.62 48.17-3.62 50.53 0 2.23 3.39-3.13 8.75-3.13 8.75" fill="url(#1770301555007-8831899_o)"></path><path d="M447.36 245.32H386.7l-6.83-8.84h74.32z" fill="url(#1770301555007-8831899_p)"></path><path d="M394.9 412.18h44.25v5.25H394.9z" fill="url(#1770301555007-8831899_q)"></path><path d="M392.37 414.81h49.34v5.25h-49.34z" fill="url(#1770301555007-8831899_r)"></path><path d="M444.84 433.56c-31.12 7.01-55.61 0-55.61 0-1.92-3.03 5.23-13.5 5.23-13.5h45.16s7.14 10.47 5.22 13.5" fill="url(#1770301555007-8831899_s)"></path><path d="M386.35 433.56h61.37v20.63h-61.37z" fill="url(#1770301555007-8831899_t)"></path><path d="M415.27 268.87h3.52v138.62h-3.52zm6.14 0h3.53v138.62h-3.53zm-12.29 0h3.53v138.62h-3.53zm18.22 0h2.79v138.62h-2.79zm-23.41 0h2.79v138.62h-2.79zm27.51 0h1.91v138.62h-1.91zm-30.73 0h1.91v138.62h-1.91z" class="cb" style="isolation:isolate" fill="#99a8ae" opacity=".2"></path><path d="M290.58 245.82h38.19v174.63h-38.19z" fill="url(#1770301555007-8831899_u)"></path><path d="M287.55 261.28h44.25v5.25h-44.25z" fill="url(#1770301555007-8831899_v)"></path><path d="M346.84 236.48c-13.14 13.14-74.32 0-74.32 0v-21.77h74.32z" fill="url(#1770301555007-8831899_w)"></path><path d="M331.81 254.08h-44.26s-5.35-5.35-3.14-8.75c2.36-3.62 48.17-3.62 50.53 0 2.22 3.39-3.13 8.75-3.13 8.75" fill="url(#1770301555007-8831899_x)"></path><path d="M340.01 245.32h-60.66l-6.83-8.84h74.32z" fill="url(#1770301555007-8831899_y)"></path><path d="M287.55 412.18h44.25v5.25h-44.25z" fill="url(#1770301555007-8831899_z)"></path><path d="M285.01 414.81h49.34v5.25h-49.34z" fill="url(#1770301555007-8831899_aa)"></path><path d="M337.48 433.56c-31.12 7.01-55.61 0-55.61 0-1.92-3.03 5.23-13.5 5.23-13.5h45.16s7.14 10.47 5.22 13.5" fill="url(#1770301555007-8831899_ab)"></path><path d="M278.99 433.56h61.37v20.63h-61.37z" fill="url(#1770301555007-8831899_ac)"></path><path d="M307.92 268.87h3.52v138.62h-3.52zm6.13 0h3.53v138.62h-3.53zm-12.28 0h3.53v138.62h-3.53zm18.21 0h2.79v138.62h-2.79zm-23.4 0h2.79v138.62h-2.79zm27.51 0H326v138.62h-1.91zm-30.74 0h1.91v138.62h-1.91z" class="cb" style="isolation:isolate" fill="#99a8ae" opacity=".2"></path><path d="M183.23 245.82h38.19v174.63h-38.19z" fill="url(#1770301555007-8831899_ad)"></path><path d="M180.19 261.28h44.25v5.25h-44.25z" fill="url(#1770301555007-8831899_ae)"></path><path d="M239.48 236.48c-13.14 13.14-74.32 0-74.32 0v-21.77h74.32z" fill="url(#1770301555007-8831899_af)"></path><path d="M224.45 254.08h-44.26s-5.35-5.35-3.14-8.75c2.36-3.62 48.17-3.62 50.53 0 2.22 3.39-3.13 8.75-3.13 8.75" fill="url(#1770301555007-8831899_ag)"></path><path d="M232.65 245.32h-60.66l-6.83-8.84h74.32z" fill="url(#1770301555007-8831899_ah)"></path><path d="M180.19 412.18h44.25v5.25h-44.25z" fill="url(#1770301555007-8831899_ai)"></path><path d="M177.66 414.81H227v5.25h-49.34z" fill="url(#1770301555007-8831899_aj)"></path><path d="M230.13 433.56c-31.12 7.01-55.61 0-55.61 0-1.92-3.03 5.23-13.5 5.23-13.5h45.16s7.14 10.47 5.22 13.5" fill="url(#1770301555007-8831899_ak)"></path><path d="M171.64 433.56h61.37v20.63h-61.37z" fill="url(#1770301555007-8831899_al)"></path><path d="M200.56 268.87h3.52v138.62h-3.52zm6.14 0h3.53v138.62h-3.53zm-12.29 0h3.53v138.62h-3.53zm18.22 0h2.79v138.62h-2.79zm-23.4 0h2.79v138.62h-2.79zm27.5 0h1.91v138.62h-1.91zm-30.73 0h1.91v138.62H186z" class="cb" style="isolation:isolate" fill="#99a8ae" opacity=".2"></path><path d="M503.74 483.1H8.26C4 483.1 0 486.98 0 491.19v4.29h512v-4.29c0-4.21-4-8.09-8.26-8.09m-33.03-24.78H41.29c-4.26 0-8.26 4-8.26 8.26v4.13h445.94v-4.13c0-4.26-4-8.26-8.26-8.26" class="bz" fill="#cfd8dd"></path><path d="M487.48 470.71H24.51c-4.19 0-7.99 3.88-7.99 8.09v4.29h478.97v-4.29c0-4.21-3.81-8.09-8-8.09Zm-33.29-24.77H57.81c-4.26 0-8.26 4-8.26 8.26v4.13h412.9v-4.13c0-4.26-4-8.26-8.26-8.26" fill="#e6ebef"></path><path d="M35.35 185.58h441.29v23.89H35.35z" class="ca" fill="#99a8ae"></path><path d="M480 222.97H32c-12.8 0-12.8-17.92 0-17.92h448c12.8 0 12.8 17.92 0 17.92" class="bz" fill="#cfd8dd"></path><path d="M255.91 14.65 27.7 161.15v21.93h456.6v-21.93z" class="ca" fill="#99a8ae"></path><path d="M255.91 0 8.26 163.39l15.48 12.2L255.91 22.41l232.35 153.18 15.48-12.2z" class="bz" fill="#cfd8dd"></path><path d="M255.91 29.4 23.74 182.58v6.98h464.52v-6.98z" class="bz" fill="#cfd8dd"></path><path d="M255.91 43.66 63.09 174.62h385.82z" fill="url(#1770301555007-8831899_am)"></path><path d="M45.52 201.36c0 .53-.08.92-.24 1.16s-.47.38-.92.41c-.45.04-1.13.02-2.03-.07v2.76c1.86.22 3.3.21 4.35-.03 1.07-.25 1.81-.73 2.23-1.45.43-.71.64-1.66.64-2.83v-12.04h-4.03v12.1Zm56.85-11.09c-1.2-.67-2.63-1.01-4.29-1.01s-3.08.34-4.29 1.01-2.15 1.62-2.81 2.87c-.66 1.23-1 2.69-1 4.36s.34 3.15.98 4.39c.66 1.24 1.59 2.2 2.81 2.88s2.64 1.02 4.3 1.02 3.1-.34 4.29-1.02 2.13-1.64 2.79-2.88c.64-1.23.98-2.69.98-4.39s-.34-3.13-.98-4.36a6.87 6.87 0 0 0-2.78-2.87m-1.46 11.01c-.71.84-1.64 1.26-2.82 1.26s-2.11-.42-2.81-1.26-1.03-2.1-1.03-3.79.34-2.92 1.03-3.76c.69-.83 1.63-1.24 2.81-1.24s2.11.42 2.82 1.26c.69.84 1.05 2.08 1.05 3.74s-.36 2.93-1.05 3.78Zm151.42-11.81h4.26v16.1h-4.26zm62.71 0h-4.92l-3.56 4.88-3.49-4.88h-4.91l6 7.96-6.13 8.15h4.93l3.62-5.02 3.6 5.02h4.95l-6.15-8.15zm37.92 16.11h11.49v-3.26h-7.35v-3.3h6.87v-3.26h-6.87v-3.03h7.35v-3.26h-11.49zm56.61-16.11h-4.26v16.11h11.06v-3.44h-6.8zm59.85 9.65c-.19-.5-.5-.93-.92-1.34-.44-.4-1.03-.76-1.78-1.07s-1.68-.59-2.79-.82c-.92-.19-1.61-.38-2.06-.55s-.76-.36-.9-.55a.98.98 0 0 1-.24-.66c0-.5.22-.89.69-1.19s1.1-.45 1.86-.45 1.55.13 2.34.39c.78.26 1.54.64 2.25 1.16l1.3-3.01c-.4-.36-.92-.68-1.56-.93-.64-.26-1.34-.47-2.1-.61s-1.52-.21-2.29-.21c-1.32 0-2.49.22-3.48.68-.98.45-1.76 1.07-2.32 1.86a4.53 4.53 0 0 0-.84 2.64c0 .62.1 1.18.26 1.68.17.5.49.95.9 1.35.44.4 1.03.75 1.79 1.07.76.31 1.73.57 2.89.81.84.17 1.5.36 1.95.52.45.17.76.36.92.56.17.21.26.44.26.69 0 .44-.24.78-.73 1.04-.47.26-1.16.39-2.08.39s-1.78-.13-2.66-.39-1.73-.64-2.5-1.16l-1.34 3.01c.5.36 1.1.68 1.81.94.69.26 1.45.46 2.24.6.81.15 1.59.21 2.4.21 1.49 0 2.76-.2 3.79-.61 1.05-.4 1.84-.98 2.39-1.74.55-.75.81-1.65.81-2.69 0-.59-.08-1.11-.26-1.61Zm-261.85-8.32c-1-.88-2.44-1.33-4.3-1.33h-7.66v16.1h4.24v-6.29h3.42c1.84 0 3.27-.45 4.28-1.33 1.02-.89 1.52-2.09 1.52-3.58s-.51-2.68-1.49-3.57Zm-3.05 4.88c-.39.29-1 .44-1.83.44h-2.86v-3.44h2.86c.84 0 1.45.15 1.84.45.37.29.56.73.56 1.3 0 .54-.19.96-.58 1.26Zm-54.34.23-4.08-6.44h-4.8l6.78 9.93v6.18h4.26v-6.15l6.75-9.86v-.1h-4.77z" class="bz" fill="#cfd8dd"></path></g></svg>
