<svg xmlns="http://www.w3.org/2000/svg" data-name="Layer 1" style="" viewBox="0 0 512 400.01"><g><defs><radialGradient id="1770301555008-6383808_b" cx="270.48" cy="2787.9" r="93.87" fx="270.48" fy="2787.9" gradientTransform="matrix(0 1 .23 0 -377.69 -66.92)" gradientUnits="userSpaceOnUse"><stop offset="0" stop-color="#3e4a52"></stop><stop offset=".26" stop-color="#3a444d"></stop><stop offset=".61" stop-color="#2d323d"></stop><stop offset="1" stop-color="#1a1626"></stop></radialGradient><linearGradient id="1770301555008-6383808_c" x1="256" x2="256" y1="181.69" y2="243.94" gradientTransform="matrix(1 0 0 -1 0 402.01)" gradientUnits="userSpaceOnUse"><stop offset=".09" stop-color="#ffe8bb" stop-opacity="0"></stop><stop offset="1" stop-color="#ffe8bb"></stop></linearGradient></defs><path d="M251.63 190.75C362.75 21.69 455.15-6.17 493.26 1.01c24.16 4.55 23.94 42.6 5.2 71.75-52.83 82.2-24.39 148.8-84.74 134.82-19.4-4.51-147.31-16.51-162.09-16.82Z" class="i" fill="#1a1626"></path><path d="M253.74 190.28c102.49-22.17 158.56 30.74 172.71 58.9 42.8 85.2-94.19 197.43-127.94 130.43-12.84-25.5-21.74-71.95-40.82-106.05-10.71-19.13-3.94-83.27-3.94-83.27Z" class="i" fill="#1a1626"></path><path d="M258.13 212.89c8.04 21.93 4.24 58.98 7.46 66.53s36.82 102.48 40.02 102.48 4.1-.63 3.82-3.13c-.2-1.69-23.34-53.68-36.16-100.52-6.38-23.34.88-45.61-13.86-68.9-4.94-7.82-3.1-1.44-1.28 3.54" class="k" fill="#ffd817"></path><path d="M262.83 211.18c9.78 23.1 12.62 59.04 14.61 67.06 5.93 23.98 32.19 92.88 34.29 95.5 6.82 8.46 12.37-.09 12.08-2.59-.17-1.47-21.91-45.95-34.86-86.13-9.11-28.3-11.84-63.21-26.3-78.45-6.28-6.62-1.89-.26.18 4.61" class="k" fill="#ffd817"></path><path d="M289.87 270.33c2.88 24.62 36.32 96.69 38.42 99.29 6.8 8.46 21.58-.79 21.28-3.3-.17-1.48-18.91-102.12-76.52-151.31-6.89-5.89 12.5 18.44 16.82 55.32" class="k" fill="#ffd817"></path><path d="M322.66 272.71c-6.83-5.5 23.33 32.6 30.78 90.25 1.43 11.06 20.3-3.05 20.3-11.65 0-1.48-14.5-34.53-21.75-56.5-2.94-8.91-8-4.86-29.33-22.1m31.37 18.12c-3.83.68 17.98 34.84 21.17 54.02 1.82 11 20.3-3.06 20.3-11.63 0-1.48-21.54-34.1-25.87-39.21-3.18-3.78-11.64-3.89-15.59-3.18Z" class="k" fill="#ffd817"></path><path d="M367.09 286.48c2.34 3.34 22.86 23.54 32.22 40.26 2.97 5.29 10.97-11.99 10.97-20.57 0-1.49-34.42-38.5-51.6-49.25-4.1-2.56-.05 17.56 8.41 29.55Zm-12.73-37.27c3.68 2.85 42.18 31.26 58.14 46.47 5.05 4.82.95-25.74-2.22-30.32-1-1.42-47.43-28.22-68.76-36.95-4.99-2.04-.41 10.58 12.83 20.8Zm-15.92-25.81c2.43 4.11 35.58 12.26 67.53 33.3 5.77 3.79-2.97-15.98-6.16-20.55-.98-1.43-41.73-32.42-74.43-23.38-5.15 1.42 7.79 1.7 13.06 10.62Z" class="d" fill="#ffb117"></path><path d="M318.5 209.6c3.77 1.64 11.97-2.22 30.93-.59 1.87.16 7.02-5.28 5.7-6.3-1.35-1.05-61.22-13.55-93.93-4.5-1.77.49 2.41 11.72 6.48 10.34 23.57-7.98 43.02-2.31 50.82 1.06Z" class="j" fill="#f2841e"></path><path d="M354.75 194.03c1.88.17 7.47-5.66 6.15-6.7-1.34-1.04-76.21-5.95-101.63 5.21-1.69.75-2.72 4.67 1.36 3.29 23.57-7.98 75.18-3.43 94.12-1.8" class="j" fill="#f2841e"></path><path d="M422.87 186.79c2.82.21 14.19-7.06 14.19-10.03 0-5 2.41-17.5 0-18.68-12.58-6.1-77.83-16.44-98.91-10.48-1.76.5-82.75 44.24-78.75 42.64 35.31-14.26 117.98-6.89 163.47-3.45" class="j" fill="#f2841e"></path><path d="M431.59 149.16c4.39.94 10.44-7.21 10.44-10.81 0-5.63-11.26-18.97-15.65-20.84-1.54-.66-32.17-5.17-46.23-2.19-1.79.37-34.1 27.2-29.84 26.8 14.03-1.34 62.62 3.08 81.28 7.04" class="e" fill="#e6591c"></path><path d="M342.54 140.4c4.16-1.76 34.94-26.4 36.44-29.63 2.05-4.42 20.72-30.75 16.1-29.78-1.64.34-38.62 13.01-72.28 46.7-1.33 1.34-48.58 51.07-45.2 48.26 11.11-9.27 47.26-28.04 64.94-35.54Z" class="m" fill="#c21413"></path><path d="M271.46 179.62c2.08-1.86 40.17-46.86 48.77-55.02 5.34-5.06 34.56-30.57 62.62-43.64 9.83-4.58-26.1.5-73.59 41.06-1.43 1.21-52.64 63.77-48.39 64.18 1.18.12 6.8-3.18 10.59-6.58m156.07-69.58c4.69.06 19.23-8.3 19.18-10.96-.11-4.58 1.77-23.95-1.42-26.32-1.38-1.02-23.32 1.32-37.42 4.22-1.78.37-24.38 33.41-20.11 33.06 13.48-1.1 20.76-.23 39.76 0Z" class="m" fill="#c21413"></path><path d="M316.29 260.41c6.41 11.53 33.25 23.9 35.03 24.61 5.82 2.3 11.64 1.5 11.42.17-.94-5.5-8.38-11.21-8.53-30.06-.04-5.16-18.01-12.58-19.52-30.26-.51-5.96-36.94-23.5-62.54-15.06-5.21 1.72 20.88 8.67 44.14 50.59Z" class="d" fill="#ffb117"></path><path d="M436.32 54.19c-2.97-6.84 12.99-8.5 37.55-7.17 1.61.08.5 10.58-1.82 11.69-7.06 3.36-33.8-.06-35.74-4.52Zm-3.39-13.18c-2.97-6.83 9.7-12.11 36.51-12.95 1.61-.06 4.06 13.43 1.53 13.3-12.21-.58-36.1 4.11-38.04-.35m-10.54-12.33c-3-5.43 4.61-11.17 34.17-17.38 1.27-.26 8.26 9.31 6.12 9.5-10.66.9-38.32 11.41-40.29 7.88" class="m" fill="#c21413"></path><path d="M406.81 37.34c-1.36-2.38-14.11 6.24-12.47 11.38 1.06 3.34 13.97-.46 17.26-4.95 1.08-1.48-4.26-5.5-4.79-6.42Zm-27.69 15.53c-2.9.16-15.94 11.14-12.32 15.28 2.35 2.68 17.82-5.12 20.81-10.89.98-1.9-5.71-4.54-8.49-4.39m-20.94 19.97c-3.38-1.34-26.58 15.62-21.87 19.38 3.06 2.43 22.87-6.1 28.03-12.64 1.7-2.14-4.86-6.23-6.16-6.74" class="f" fill="#ffe8bb"></path><path d="M408.89 53.34c-14.26 1.33-28.17 15.26-25.68 18.02 1.62 1.78 22.55-3.84 24.69-7.78.7-1.28 1.75-10.32.99-10.25Zm5.81-1.15c-1.92.48-2.06 10.82-.64 10.88 2.31.14 15.3-2.61 17.44-6.52.7-1.29-2.42-7.87-16.8-4.36m3.34-11.8c-1.59.39-4.27 6.18-2.2 8.46 1.34 1.47 9.89-3.03 11.66-6.27.58-1.07 2.43-5.1-9.46-2.19" class="l" fill="#ffbf42"></path><path d="M357.98 207.57c-3.21-6.72 11.87-4.78 14.58-1.36 4.58 5.81-12.1 6.5-14.58 1.36m79.03-15.01c-3.21-6.71 10.84-18.29 13.54-14.86 4.58 5.8-11.07 20.01-13.54 14.86m7.46-37.53c-3.21-6.72 13.73-5.26 12.82-.46-2.98 15.72-6.44 13.76-12.82.46m2.26-25.86c.24-7.44 12.86-1.77 15.56 1.66 7.31 9.26-16.12 15.1-15.56-1.66m5.31-19.29c-3.2-6.71 20.47-7.31 18.02.77-3.42 11.29-13.48 8.71-18.02-.77m9.24-20.27c-3.2-6.72 21.1-9.55 18.02.78-3.37 11.29-13.46 8.7-18.02-.78m-3.97-15.37c-5.34-12.28 41.3-11.64 30.7.2-4.53 5.07-28.14 5.72-30.7-.2m25.99-21.13c-.94-2.17-.91-13.75 8.5-13.75 10.29 0 7.94 7.44 7.25 11.82-1.09 6.87-13.19 7.85-15.75 1.94Zm-4.88-23.74c-2.97-6.83 4.94-6.81 7.56-3.29 4.06 5.46-4.99 9.22-7.56 3.29m-6.79-12.82c-2.97-6.84 4.94-6.8 7.56-3.27 4.07 5.43-4.99 9.19-7.56 3.27m15.3-4.31c-2.98-6.83 4.94-6.8 7.56-3.28 4.06 5.45-4.99 9.21-7.56 3.28m6.57 15.07c-2.96-6.83 4.95-6.78 7.56-3.27 4.07 5.45-4.98 9.21-7.56 3.27M380.07 213.36c-2.42-7.08 12.18 2.92 14.88 6.34 4.58 5.8-11.96 2.2-14.88-6.34m27.09 26.13c-2.43-7.08 10.31-.66 12.5 6.86 2.05 7.1-9.58 1.68-12.5-6.86m11.92 61.94c.42-9.58 10.86-5.44 6.97 4.27-2.62 6.57-7.46 7.28-6.97-4.27m-1.93-40.36c.42-9.58 7.22-5.29 7.83 4.71.43 7.06-8.33 6.84-7.83-4.71m3.92 20.26c1.2-9.2 7.44-1.5 7.94 2.22.85 6.3-9.39 8.86-7.94-2.22m-13.64 55.9c-2.55-9.62 13.58-24.53 12.75-14.75-.38 4.51-10.75 22.28-12.75 14.75m-22 20c.67-6.42 13.26-11.91 13.74-9.27 1.87 10.48-15.2 23.17-13.74 9.27m-24.87 20.35c1.14-8.02 17-14.21 16.25-7.51-.61 5.46-17.64 17.18-16.25 7.51m-23.34 6.22c1.14-8.02 13.87-3.25 14.25-.02.65 5.47-15.62 9.68-14.25.02m-22.16 4.34c.94-6.92 13.4-4.28 13.75-1.49.59 4.73-14.9 9.83-13.75 1.49" class="f" fill="#ffe8bb"></path><path d="M260.37 190.75C149.25 21.69 56.85-6.17 18.74 1.01c-24.16 4.55-23.94 42.6-5.2 71.75 52.83 82.2 24.39 148.8 84.74 134.82 19.4-4.51 147.31-16.51 162.09-16.82Z" class="i" fill="#1a1626"></path><path d="M258.26 190.28c-102.49-22.17-158.56 30.74-172.71 58.9-42.8 85.2 94.19 197.43 127.94 130.43 12.84-25.5 21.74-71.95 40.82-106.05 10.71-19.13 3.94-83.27 3.94-83.27Z" class="i" fill="#1a1626"></path><path d="M253.87 212.89c-8.04 21.93-4.24 58.98-7.46 66.53S209.59 381.9 206.39 381.9s-4.1-.63-3.82-3.13c.2-1.69 23.34-53.68 36.16-100.52 6.38-23.34-.88-45.61 13.86-68.9 4.94-7.82 3.1-1.44 1.28 3.54" class="k" fill="#ffd817"></path><path d="M249.17 211.18c-9.78 23.1-12.62 59.04-14.61 67.06-5.93 23.98-32.19 92.88-34.29 95.5-6.82 8.46-12.37-.09-12.08-2.59.17-1.47 21.91-45.95 34.86-86.13 9.11-28.3 11.84-63.21 26.3-78.45 6.28-6.62 1.89-.26-.18 4.61" class="k" fill="#ffd817"></path><path d="M222.13 270.33c-2.88 24.62-36.32 96.69-38.42 99.29-6.8 8.46-21.58-.79-21.28-3.3.17-1.48 18.91-102.12 76.52-151.31 6.89-5.89-12.5 18.44-16.82 55.32" class="k" fill="#ffd817"></path><path d="M189.34 272.71c6.83-5.5-23.33 32.6-30.78 90.25-1.43 11.06-20.3-3.05-20.3-11.65 0-1.48 14.5-34.53 21.75-56.5 2.94-8.91 8-4.86 29.33-22.1m-31.37 18.12c3.83.68-17.98 34.84-21.17 54.02-1.82 11-20.3-3.06-20.3-11.63 0-1.48 21.54-34.1 25.88-39.21 3.18-3.78 11.63-3.89 15.58-3.18Z" class="k" fill="#ffd817"></path><path d="M144.91 286.48c-2.34 3.34-22.86 23.54-32.22 40.26-2.97 5.29-10.98-11.99-10.97-20.57 0-1.49 34.42-38.5 51.6-49.25 4.1-2.56.05 17.56-8.41 29.55Zm12.73-37.27c-3.68 2.85-42.18 31.26-58.14 46.47-5.06 4.82-.95-25.74 2.22-30.32 1-1.42 47.43-28.22 68.76-36.95 4.99-2.04.41 10.58-12.83 20.8Zm15.92-25.81c-2.43 4.11-35.58 12.26-67.54 33.3-5.76 3.79 2.97-15.98 6.16-20.55.98-1.43 41.74-32.42 74.44-23.38 5.15 1.42-7.79 1.7-13.06 10.62Z" class="d" fill="#ffb117"></path><path d="M193.5 209.6c-3.77 1.64-11.97-2.22-30.93-.59-1.87.16-7.02-5.28-5.7-6.3 1.35-1.05 61.22-13.55 93.93-4.5 1.77.49-2.41 11.72-6.48 10.34-23.57-7.98-43.02-2.31-50.82 1.06Z" class="j" fill="#f2841e"></path><path d="M157.25 194.03c-1.88.17-7.47-5.66-6.15-6.7 1.34-1.04 76.21-5.95 101.63 5.21 1.69.75 2.72 4.67-1.36 3.29-23.57-7.98-75.18-3.43-94.12-1.8" class="j" fill="#f2841e"></path><path d="M89.13 186.79c-2.82.21-14.19-7.06-14.19-10.03 0-5-2.41-17.5 0-18.68 12.58-6.1 77.83-16.44 98.91-10.48 1.76.5 82.75 44.24 78.75 42.64-35.31-14.26-117.98-6.89-163.47-3.45" class="j" fill="#f2841e"></path><path d="M80.41 149.16c-4.39.94-10.44-7.21-10.44-10.81 0-5.63 11.26-18.97 15.65-20.84 1.54-.66 32.17-5.17 46.23-2.19 1.79.37 34.1 27.2 29.84 26.8-14.03-1.34-62.62 3.08-81.28 7.04" class="e" fill="#e6591c"></path><path d="M169.46 140.4c-4.16-1.76-34.94-26.4-36.44-29.63-2.05-4.42-20.72-30.75-16.1-29.78 1.64.34 38.62 13.01 72.28 46.7 1.33 1.34 48.58 51.07 45.2 48.26-11.11-9.27-47.26-28.04-64.94-35.54Z" class="m" fill="#c21413"></path><path d="M240.54 179.62c-2.08-1.86-40.17-46.86-48.77-55.02-5.34-5.06-34.56-30.57-62.62-43.64-9.83-4.58 26.1.5 73.59 41.06 1.43 1.21 52.64 63.77 48.39 64.18-1.18.12-6.8-3.18-10.59-6.58M84.46 110.04c-4.68.06-19.23-8.3-19.18-10.96.11-4.58-1.77-23.95 1.42-26.32 1.38-1.02 23.32 1.32 37.42 4.22 1.78.37 24.38 33.41 20.11 33.06-13.48-1.1-20.76-.23-39.77 0" class="m" fill="#c21413"></path><path d="M195.71 260.41c-6.41 11.53-33.25 23.9-35.03 24.61-5.82 2.3-11.64 1.5-11.42.17.94-5.5 8.38-11.21 8.53-30.06.04-5.16 18.01-12.58 19.52-30.26.51-5.96 36.94-23.5 62.54-15.06 5.21 1.72-20.88 8.67-44.14 50.59Z" class="d" fill="#ffb117"></path><path d="M75.68 54.19c2.97-6.84-12.99-8.5-37.55-7.17-1.61.08-.5 10.58 1.82 11.69 7.06 3.36 33.8-.06 35.74-4.52Zm3.39-13.18c2.97-6.83-9.7-12.11-36.51-12.95-1.62-.06-4.06 13.43-1.54 13.3 12.22-.58 36.11 4.11 38.05-.35m10.54-12.33c3-5.43-4.61-11.17-34.17-17.38-1.27-.26-8.26 9.32-6.11 9.5 10.66.9 38.31 11.41 40.28 7.88" class="m" fill="#c21413"></path><path d="M105.19 37.34c1.36-2.38 14.11 6.24 12.47 11.38-1.06 3.34-13.97-.46-17.26-4.95-1.08-1.48 4.26-5.5 4.79-6.42Zm27.69 15.53c2.9.16 15.94 11.14 12.32 15.28-2.35 2.68-17.82-5.12-20.81-10.89-.98-1.9 5.71-4.54 8.49-4.39m20.94 19.97c3.38-1.34 26.58 15.62 21.87 19.38-3.06 2.43-22.87-6.1-28.03-12.64-1.7-2.14 4.86-6.23 6.16-6.74" class="f" fill="#ffe8bb"></path><path d="M103.11 53.34c14.26 1.33 28.17 15.26 25.68 18.02-1.62 1.78-22.55-3.84-24.69-7.78-.7-1.28-1.75-10.32-.99-10.25Zm-5.81-1.15c1.92.48 2.06 10.82.64 10.88-2.31.14-15.3-2.61-17.44-6.52-.7-1.29 2.42-7.87 16.8-4.36m-3.34-11.8c1.59.39 4.27 6.18 2.2 8.46-1.34 1.47-9.89-3.03-11.66-6.27-.58-1.07-2.43-5.1 9.46-2.19" class="l" fill="#ffbf42"></path><path d="M154.02 207.57c3.21-6.72-11.87-4.78-14.58-1.36-4.58 5.81 12.1 6.5 14.58 1.36m-79.03-15.01c3.21-6.71-10.84-18.29-13.54-14.86-4.58 5.8 11.07 20.01 13.54 14.86m-7.46-37.53c3.21-6.72-13.73-5.26-12.82-.46 2.98 15.72 6.44 13.76 12.82.46m-2.26-25.86c-.25-7.44-12.86-1.77-15.56 1.66-7.31 9.26 16.12 15.1 15.56-1.66m-5.31-19.29c3.2-6.71-20.47-7.31-18.02.77 3.42 11.29 13.48 8.71 18.02-.77m-9.25-20.27c3.21-6.72-21.1-9.55-18.02.78 3.38 11.29 13.47 8.7 18.02-.78m3.98-15.37c5.34-12.28-41.3-11.64-30.7.2 4.53 5.07 28.14 5.72 30.7-.2m-26-21.13c.94-2.17.92-13.75-8.5-13.75-10.29 0-7.94 7.44-7.25 11.82 1.1 6.87 13.19 7.85 15.75 1.94Zm4.89-23.74c2.97-6.83-4.94-6.81-7.56-3.29-4.06 5.46 4.99 9.22 7.56 3.29m6.79-12.82c2.97-6.84-4.94-6.8-7.56-3.27-4.07 5.43 4.99 9.19 7.56 3.27m-15.3-4.31c2.98-6.83-4.94-6.8-7.56-3.28-4.06 5.45 4.99 9.21 7.56 3.28M18.5 27.31c2.96-6.83-4.95-6.78-7.56-3.27-4.07 5.45 4.98 9.21 7.56 3.27m113.43 186.05c2.42-7.08-12.18 2.92-14.88 6.34-4.58 5.8 11.96 2.2 14.88-6.34m-27.09 26.13c2.43-7.08-10.32-.66-12.5 6.86-2.05 7.1 9.58 1.68 12.5-6.86m-11.93 61.94c-.42-9.58-10.86-5.44-6.97 4.27 2.63 6.57 7.46 7.28 6.97-4.27m1.94-40.36c-.42-9.58-7.22-5.29-7.83 4.71-.43 7.06 8.33 6.84 7.83-4.71m-3.92 20.26c-1.2-9.2-7.44-1.5-7.94 2.22-.85 6.3 9.39 8.86 7.94-2.22m13.64 55.9c2.55-9.62-13.58-24.53-12.75-14.75.38 4.51 10.75 22.28 12.75 14.75m22 20c-.67-6.42-13.26-11.91-13.74-9.27-1.87 10.48 15.19 23.17 13.74 9.27m24.86 20.35c-1.14-8.02-17-14.21-16.25-7.51.62 5.46 17.64 17.18 16.25 7.51m23.35 6.22c-1.14-8.02-13.88-3.25-14.26-.02-.65 5.47 15.63 9.68 14.26.02m22.16 4.34c-.94-6.92-13.4-4.28-13.75-1.49-.59 4.73 14.9 9.83 13.75 1.49" class="f" fill="#ffe8bb"></path><path d="M295.12 51.46c-18.83 24.49-19.98 64.56-30.93 77.47-1.02 1.2-5.25-9.51-4.76-1.62.2 3.06-1.64 4.61-3.43 4.64-1.79-.03-3.63-1.58-3.44-4.64.5-7.9-3.73 2.82-4.75 1.62-10.95-12.9-12.1-52.98-30.93-77.47-6.75-8.76-19.58-1.16-.92 3.37 18.67 25.83 12.78 42.5 29.09 79.34-3.99 7.14-5.22 15.3-.76 20.17-7.24 9.06-13.7 96.8-5.74 122.67 2.12 6.88 4.87 75.58 17.45 75.58s15.33-68.7 17.45-75.58c7.96-25.86 1.5-113.61-5.74-122.67 4.47-4.86 3.23-13.02-.76-20.17 16.3-36.83 10.42-53.5 29.09-79.34 18.66-4.52 5.82-12.13-.92-3.37" fill="url(#1770301555008-6383808_b)" fill-rule="evenodd"></path><path d="M270.58 275.49s-15.59 4.28-29.23-.17c0 0 0 5 1.31 8.75 9.86 4.21 26.5.87 26.5.87s1.84-5.09 1.42-9.46Zm-1.6 12.7s-13.88 4.28-26.02-.17c0 0 0 5 1.17 8.75 8.77 4.21 23.58.87 23.58.87s1.65-5.08 1.28-9.46Zm-1.55 13.84s-12.22 3.36-22.9-.13c0 0 0 3.91 1.03 6.86 7.72 3.3 20.76.68 20.76.68s1.44-3.98 1.11-7.41m-1.26 12.71s-10.86 3.35-20.38-.14c0 0 0 3.92.91 6.86 6.86 3.3 18.48.69 18.48.69s1.29-3.98.99-7.41m-1.77 11.71s-8.98 3.74-16.83-.15c0 0 0 4.38.76 7.66 5.67 3.68 15.24.77 15.24.77s1.06-4.45.83-8.28" style="isolation:isolate" fill="#ffe8bb" opacity=".2"></path><path d="M264.47 146.64c-2.21-2.27-6.69.18-4.06 4.65 2.02 3.41 7.79-.81 4.06-4.65m-17.37 4.65c2.02 3.42 7.8-.81 4.06-4.65-2.22-2.28-6.68.18-4.06 4.65m15.51-15.73c-1.73-1.86-5.21.16-3.17 3.81 1.58 2.79 6.09-.66 3.17-3.81m-13.55 3.8c1.57 2.8 6.09-.66 3.16-3.81-1.73-1.86-5.22.16-3.16 3.81" class="f" fill="#ffe8bb"></path><path d="M258.5 220.33h-5.02s-6.8-50.37 0-61.19c.89-1.41 4.13-1.41 5.02 0 6.8 10.82 0 61.19 0 61.19" style="isolation:isolate" fill="url(#1770301555008-6383808_c)" opacity=".2"></path></g></svg>
