<svg xmlns="http://www.w3.org/2000/svg" data-name="Layer 1" style="" viewBox="0 0 512 512"><g><defs><linearGradient id="1770301555013-998935_b" x1="256" x2="256" y1="10.53" y2="514" gradientTransform="matrix(1 0 0 -1 0 514)" gradientUnits="userSpaceOnUse"><stop offset="0" stop-color="#ffab8c"></stop><stop offset=".03" stop-color="#ffa38c"></stop><stop offset=".23" stop-color="#ff7b8e"></stop><stop offset=".39" stop-color="#ff6290"></stop><stop offset=".48" stop-color="#ff5990"></stop><stop offset=".61" stop-color="#e44696"></stop><stop offset=".88" stop-color="#a017a4"></stop><stop offset="1" stop-color="#8000ab"></stop></linearGradient><linearGradient id="1770301555013-998935_d" x1="373.97" x2="373.97" y1="154.23" y2="348.88" gradientTransform="matrix(1 0 0 -1 0 514)" gradientUnits="userSpaceOnUse"><stop offset="0" stop-color="#ba6381"></stop><stop offset=".23" stop-color="#9f4574"></stop><stop offset=".56" stop-color="#7d1f64"></stop><stop offset=".83" stop-color="#69085a"></stop><stop offset="1" stop-color="#610056"></stop></linearGradient><linearGradient id="1770301555013-998935_e" x1="422.27" x2="422.27" y1="154.23" y2="348.88" gradientTransform="matrix(1 0 0 -1 0 514)" gradientUnits="userSpaceOnUse"><stop offset="0" stop-color="#852460"></stop><stop offset=".1" stop-color="#7b1f5c"></stop><stop offset=".49" stop-color="#550e50"></stop><stop offset=".8" stop-color="#3e0448"></stop><stop offset="1" stop-color="#360045"></stop></linearGradient><linearGradient id="1770301555013-998935_f" x1="312.02" x2="312.02" y1="14.12" y2="241.1" gradientTransform="matrix(1 0 0 -1 0 514)" gradientUnits="userSpaceOnUse"><stop offset="0" stop-color="#ba6381"></stop><stop offset=".23" stop-color="#9f4574"></stop><stop offset=".56" stop-color="#7d1f64"></stop><stop offset=".83" stop-color="#69085a"></stop><stop offset="1" stop-color="#610056"></stop></linearGradient><linearGradient id="1770301555013-998935_g" x1="359.89" x2="359.89" y1="14.12" y2="241.1" gradientTransform="matrix(1 0 0 -1 0 514)" gradientUnits="userSpaceOnUse"><stop offset="0" stop-color="#852460"></stop><stop offset=".1" stop-color="#7b1f5c"></stop><stop offset=".49" stop-color="#550e50"></stop><stop offset=".8" stop-color="#3e0448"></stop><stop offset="1" stop-color="#360045"></stop></linearGradient><linearGradient id="1770301555013-998935_h" x1="70.23" x2="189.7" y1="304.93" y2="304.93" gradientTransform="matrix(1 0 0 -1 0 514)" gradientUnits="userSpaceOnUse"><stop offset="0" stop-color="#ba6381"></stop><stop offset=".06" stop-color="#af5a7c"></stop><stop offset=".37" stop-color="#7b3464"></stop><stop offset=".65" stop-color="#551853"></stop><stop offset=".86" stop-color="#3e0649"></stop><stop offset="1" stop-color="#360045"></stop></linearGradient><linearGradient id="1770301555013-998935_i" x1="61.7" x2="198.23" y1="172.67" y2="172.67" gradientTransform="matrix(1 0 0 -1 0 514)" gradientUnits="userSpaceOnUse"><stop offset="0" stop-color="#ba6381"></stop><stop offset=".06" stop-color="#af5a7c"></stop><stop offset=".37" stop-color="#7b3464"></stop><stop offset=".65" stop-color="#551853"></stop><stop offset=".86" stop-color="#3e0649"></stop><stop offset="1" stop-color="#360045"></stop></linearGradient><linearGradient id="1770301555013-998935_j" x1="129.96" x2="129.96" y1="10.53" y2="147.07" gradientTransform="matrix(1 0 0 -1 0 514)" gradientUnits="userSpaceOnUse"><stop offset="0" stop-color="#ba6381"></stop><stop offset=".06" stop-color="#af5a7c"></stop><stop offset=".37" stop-color="#7b3464"></stop><stop offset=".65" stop-color="#551853"></stop><stop offset=".86" stop-color="#3e0649"></stop><stop offset="1" stop-color="#360045"></stop></linearGradient><linearGradient id="1770301555013-998935_k" x1="417.96" x2="417.96" y1="2" y2="164.13" gradientTransform="matrix(1 0 0 -1 0 514)" gradientUnits="userSpaceOnUse"><stop offset="0" stop-color="#ba6381"></stop><stop offset=".23" stop-color="#9f4574"></stop><stop offset=".56" stop-color="#7d1f64"></stop><stop offset=".83" stop-color="#69085a"></stop><stop offset="1" stop-color="#610056"></stop></linearGradient><linearGradient id="1770301555013-998935_l" x1="476.5" x2="476.5" y1="2" y2="164.13" gradientTransform="matrix(1 0 0 -1 0 514)" gradientUnits="userSpaceOnUse"><stop offset="0" stop-color="#852460"></stop><stop offset=".1" stop-color="#7b1f5c"></stop><stop offset=".49" stop-color="#550e50"></stop><stop offset=".8" stop-color="#3e0448"></stop><stop offset="1" stop-color="#360045"></stop></linearGradient><linearGradient id="1770301555013-998935_m" x1="208.47" x2="208.47" y1="7.63" y2="171.47" gradientTransform="matrix(1 0 0 -1 0 514)" gradientUnits="userSpaceOnUse"><stop offset="0" stop-color="#ba6381"></stop><stop offset=".23" stop-color="#9f4574"></stop><stop offset=".56" stop-color="#7d1f64"></stop><stop offset=".83" stop-color="#69085a"></stop><stop offset="1" stop-color="#610056"></stop></linearGradient><linearGradient id="1770301555013-998935_n" x1="269.99" x2="269.99" y1="7.63" y2="171.47" gradientTransform="matrix(1 0 0 -1 0 514)" gradientUnits="userSpaceOnUse"><stop offset="0" stop-color="#852460"></stop><stop offset=".1" stop-color="#7b1f5c"></stop><stop offset=".49" stop-color="#550e50"></stop><stop offset=".8" stop-color="#3e0448"></stop><stop offset="1" stop-color="#360045"></stop></linearGradient><linearGradient id="1770301555013-998935_o" x1="48.98" x2="48.98" y1="10.53" y2="125.73" gradientTransform="matrix(1 0 0 -1 0 514)" gradientUnits="userSpaceOnUse"><stop offset="0" stop-color="#ba6381"></stop><stop offset=".23" stop-color="#9f4574"></stop><stop offset=".56" stop-color="#7d1f64"></stop><stop offset=".83" stop-color="#69085a"></stop><stop offset="1" stop-color="#610056"></stop></linearGradient><linearGradient id="1770301555013-998935_p" x1="78.34" x2="78.34" y1="10.53" y2="125.73" gradientTransform="matrix(1 0 0 -1 0 514)" gradientUnits="userSpaceOnUse"><stop offset="0" stop-color="#852460"></stop><stop offset=".1" stop-color="#7b1f5c"></stop><stop offset=".49" stop-color="#550e50"></stop><stop offset=".8" stop-color="#3e0448"></stop><stop offset="1" stop-color="#360045"></stop></linearGradient><radialGradient id="1770301555013-998935_c" cx="256" cy="154.97" r="274.65" fx="256" fy="154.97" gradientTransform="matrix(1 0 0 -1 0 514)" gradientUnits="userSpaceOnUse"><stop offset=".35" stop-color="#ffab8c"></stop><stop offset="1" stop-color="#ffab8c" stop-opacity="0"></stop></radialGradient></defs><path d="M0 0h512v503.47H0z" fill="url(#1770301555013-998935_b)"></path><path d="M0 0h512v503.47H0z" fill="url(#1770301555013-998935_c)"></path><path d="M342.7 165.12h62.55v194.65H342.7z" fill="url(#1770301555013-998935_d)"></path><path d="M399.53 165.12h45.48v194.65h-45.48z" fill="url(#1770301555013-998935_e)"></path><path d="M291.93 263.34h55.47v11.95h-55.47z" class="ah" fill="#852460"></path><path d="M332.2 263.34h30.21v11.95H332.2z" class="ag" fill="#360045"></path><path d="M276.74 272.9h70.57v226.99h-70.57z" fill="url(#1770301555013-998935_f)"></path><path d="M342.27 272.9h35.24v226.99h-35.24z" fill="url(#1770301555013-998935_g)"></path><path d="M87.3 119.47h85.33v17.07H87.3z" class="ah" fill="#852460"></path><path d="M70.23 128H189.7v162.13H70.23z" fill="url(#1770301555013-998935_h)"></path><path d="M61.7 256h136.53v170.67H61.7z" fill="url(#1770301555013-998935_i)"></path><path d="M53.16 366.93h153.6v136.53H53.16z" fill="url(#1770301555013-998935_j)"></path><path d="M382.21 336.21H473v17.07h-90.79z" class="ah" fill="#852460"></path><path d="M453.63 336.21h21.85v17.07h-21.85z" class="ag" fill="#360045"></path><path d="M362.84 349.87h110.25V512H362.84z" fill="url(#1770301555013-998935_k)"></path><path d="M458.07 349.87h36.86V512h-36.86z" fill="url(#1770301555013-998935_l)"></path><path d="M172.89 333.14h75.18v11.69h-75.18z" class="ah" fill="#852460"></path><path d="M241.75 333.14h37.55v11.69h-37.55z" class="ag" fill="#360045"></path><path d="M160.34 342.53h96.26v163.84h-96.26z" fill="url(#1770301555013-998935_m)"></path><path d="M248.06 342.53h43.86v163.84h-43.86z" fill="url(#1770301555013-998935_n)"></path><path d="M17.07 388.27H80.9v115.2H17.07z" fill="url(#1770301555013-998935_o)"></path><path d="M58.03 388.27h40.62v115.2H58.03z" fill="url(#1770301555013-998935_p)"></path><path d="M401.07 486.4c-51.2 21.33-110.93 0-119.47 0-27.14 0-52.74 18.43-68.27 17.07-16.21-1.45-43.52-17.07-59.73-17.07-7.08 0-25.34 11.52-42.67 8.53-7.59-1.28-43.52-17.07-51.2-17.07C47.95 477.86 0 494.93 0 494.93V512h512v-25.6s-39.85-17.07-51.2-17.07c-9.56 0-43.95 10.5-59.73 17.07" fill="#942458"></path><path d="M424.62 362.67h17.07v8.53h-17.07z" class="af" fill="#ff7c30"></path><path d="M311.04 290.13h17.07v8.53h-17.07zm-19.37 31.32h17.07v8.53h-17.07zm27.9 63.32h17.07v8.53h-17.07zm56.07-148.74h17.07v8.53h-17.07zM351.4 195.5h17.07v8.53H351.4zm-197.89-50.18h17.07v8.53h-17.07zm-39.25 82.18h17.07v8.53h-17.07zm39.25-32h17.07v8.53h-17.07zm-66.9-20.82h17.07v8.53H86.61zm0 96.34h17.07v8.53H86.61zm55.3 29.1h17.07v8.53h-17.07zm-55.3 17.06h17.07v8.53H86.61zm32 24.15h17.07v8.53h-17.07zm11.35 56.75h17.07v8.53h-17.07zm-24.23 53.85h17.07v8.53h-17.07zm194.47-17.92h17.07v8.53H300.2z" fill="#ffac30"></path><path d="M408.06 382.21h17.07v8.53h-17.07zm19.97 45.57h17.07v8.53h-17.07zm-50.43 29.86h17.07v8.53H377.6zM175.36 355.5h17.07v8.53h-17.07zm38.06 36.35h17.07v8.53h-17.07zM31.91 447.66h17.07v8.53H31.91zm-8.53-31.75h17.07v8.53H23.38zm160.51 24.67h17.07v8.53h-17.07z" class="af" fill="#ff7c30"></path></g></svg>
