<svg xmlns="http://www.w3.org/2000/svg" style="" viewBox="0 0 512 600.2"><g><defs><linearGradient id="1770301555017-4784048_c" x1="239.59" x2="270.95" y1="134.12" y2="134.12" gradientTransform="translate(0 -50)" gradientUnits="userSpaceOnUse"><stop offset="0" stop-color="#ffb326"></stop><stop offset=".5" stop-color="#a75f00"></stop><stop offset="1" stop-color="#824300"></stop></linearGradient><linearGradient id="1770301555017-4784048_d" x1="435.2" x2="76.8" y1="577.34" y2="218.93" gradientTransform="translate(0 -50)" gradientUnits="userSpaceOnUse"><stop offset="0" stop-color="#824300"></stop><stop offset=".05" stop-color="#935000"></stop><stop offset=".1" stop-color="#9e5800"></stop><stop offset=".18" stop-color="#a55e00"></stop><stop offset=".39" stop-color="#a75f00"></stop><stop offset=".54" stop-color="#c57c0d"></stop><stop offset=".73" stop-color="#e59a1b"></stop><stop offset=".89" stop-color="#f8ac23"></stop><stop offset="1" stop-color="#ffb326"></stop></linearGradient><linearGradient id="1770301555017-4784048_e" x1="430.55" x2="81.44" y1="572.69" y2="223.57" gradientTransform="translate(0 -50)" gradientUnits="userSpaceOnUse"><stop offset="0" stop-color="#824300"></stop><stop offset=".53" stop-color="#ffd045"></stop><stop offset=".6" stop-color="#f9c940"></stop><stop offset=".71" stop-color="#e9b434"></stop><stop offset=".84" stop-color="#cf921f"></stop><stop offset=".98" stop-color="#ab6403"></stop><stop offset="1" stop-color="#a75f00"></stop></linearGradient><linearGradient id="1770301555017-4784048_f" x1="425.45" x2="86.44" y1="567.68" y2="228.67" gradientTransform="translate(0 -50)" gradientUnits="userSpaceOnUse"><stop offset="0" stop-color="#e88b00"></stop><stop offset=".05" stop-color="#e58900"></stop><stop offset=".1" stop-color="#db8200"></stop><stop offset=".14" stop-color="#ca7700"></stop><stop offset=".18" stop-color="#b26700"></stop><stop offset=".19" stop-color="#a75f00"></stop><stop offset=".25" stop-color="#aa6100"></stop><stop offset=".28" stop-color="#b26700"></stop><stop offset=".32" stop-color="#c17100"></stop><stop offset=".34" stop-color="#d67f00"></stop><stop offset=".36" stop-color="#e88b00"></stop><stop offset=".39" stop-color="#d57e00"></stop><stop offset=".45" stop-color="#bc6d00"></stop><stop offset=".5" stop-color="#ac6300"></stop><stop offset=".54" stop-color="#a75f00"></stop><stop offset=".57" stop-color="#cd8310"></stop><stop offset=".59" stop-color="#e89d1c"></stop><stop offset=".62" stop-color="#f9ad23"></stop><stop offset=".64" stop-color="#ffb326"></stop><stop offset=".66" stop-color="#f8ac23"></stop><stop offset=".7" stop-color="#e4991a"></stop><stop offset=".75" stop-color="#c47a0c"></stop><stop offset=".78" stop-color="#a75f00"></stop><stop offset=".82" stop-color="#b06804"></stop><stop offset=".89" stop-color="#c97f0f"></stop><stop offset=".97" stop-color="#f0a520"></stop><stop offset="1" stop-color="#ffb326"></stop></linearGradient><linearGradient id="1770301555017-4784048_g" x1="407.27" x2="104.49" y1="549.6" y2="246.82" gradientTransform="translate(0 -50)" gradientUnits="userSpaceOnUse"><stop offset="0" stop-color="#ffd045"></stop><stop offset=".5" stop-color="#a75f00"></stop><stop offset="1" stop-color="#824300"></stop></linearGradient><linearGradient id="1770301555017-4784048_i" x1="193.26" x2="238.86" y1="327.02" y2="305.42" gradientTransform="translate(0 -50)" gradientUnits="userSpaceOnUse"><stop offset=".45" stop-color="red"></stop><stop offset=".5" stop-color="#ff4545"></stop><stop offset=".55" stop-color="#c20000"></stop></linearGradient><linearGradient id="1770301555017-4784048_j" x1="271.27" x2="317.33" y1="491.56" y2="470.35" gradientTransform="translate(0 -50)" gradientUnits="userSpaceOnUse"><stop offset=".45" stop-color="#a7b7bf"></stop><stop offset=".5" stop-color="#b2c3cc"></stop><stop offset=".55" stop-color="#859299"></stop></linearGradient><radialGradient id="1770301555017-4784048_b" cx="508.88" cy="170.41" r="48.16" fx="508.88" fy="170.41" gradientTransform="translate(0 -50)" gradientUnits="userSpaceOnUse"><stop offset=".6" stop-color="#824300"></stop><stop offset=".64" stop-color="#a3610a"></stop><stop offset=".7" stop-color="#cb8416"></stop><stop offset=".75" stop-color="#e79e1f"></stop><stop offset=".8" stop-color="#f9ad24"></stop><stop offset=".83" stop-color="#ffb326"></stop><stop offset=".86" stop-color="#faaf25"></stop><stop offset=".89" stop-color="#eda320"></stop><stop offset=".92" stop-color="#d68e1a"></stop><stop offset=".96" stop-color="#b67210"></stop><stop offset=".99" stop-color="#8e4e04"></stop><stop offset="1" stop-color="#824300"></stop></radialGradient><radialGradient id="1770301555017-4784048_h" cx="255.27" cy="398.54" r="205.64" fx="255.27" fy="398.54" gradientTransform="translate(0 -50)" gradientUnits="userSpaceOnUse"><stop offset=".68" stop-color="#fff"></stop><stop offset=".83" stop-color="#fffffd"></stop><stop offset=".88" stop-color="#fffdf6"></stop><stop offset=".92" stop-color="#fffaeb"></stop><stop offset=".95" stop-color="#fff6da"></stop><stop offset=".98" stop-color="#fff1c4"></stop><stop offset="1" stop-color="#ffecad"></stop></radialGradient><radialGradient id="1770301555017-4784048_k" cx="255.22" cy="398.4" r="14.47" fx="246.69" fy="398.4" gradientTransform="translate(0 -50)" gradientUnits="userSpaceOnUse"><stop offset="0" stop-color="#ffa238"></stop><stop offset=".18" stop-color="#fb9f36"></stop><stop offset=".35" stop-color="#ef9631"></stop><stop offset=".52" stop-color="#db8729"></stop><stop offset=".69" stop-color="#c0721d"></stop><stop offset=".86" stop-color="#9c560f"></stop><stop offset="1" stop-color="#7a3c00"></stop></radialGradient></defs><path d="M208.23 47.03c0-12.86 4.63-23.92 13.87-33.17 9.24-9.24 20.3-13.87 33.17-13.87s23.92 4.63 33.17 13.87c9.24 9.24 13.87 20.3 13.87 33.17s-4.63 23.92-13.87 33.17-20.3 13.87-33.17 13.87-23.92-4.63-33.17-13.87-13.87-20.3-13.87-33.17m18.69 0c0 8.04 2.82 14.78 8.44 20.2 5.63 5.43 12.26 8.14 19.9 8.14s14.27-2.71 19.9-8.14 8.44-12.16 8.44-20.2-2.82-14.27-8.44-19.9c-5.63-5.63-12.26-8.44-19.9-8.44s-14.27 2.82-19.9 8.44c-5.63 5.63-8.44 12.26-8.44 19.9" fill="url(#1770301555017-4784048_b)"></path><path d="M239.59 71.15c0-3.22 2.61-5.22 7.84-6.03 5.22-.8 10.45-.8 15.68 0 5.22.8 7.84 2.82 7.84 6.03v32.56h-31.36z" fill="url(#1770301555017-4784048_c)"></path><path d="M512 348.14c0 68.26-24.95 127.35-74.83 177.23-49.89 49.89-111.59 74.83-185.11 74.83-68.26 0-127.35-24.94-177.23-74.83S0 416.4 0 348.14s24.95-127.35 74.83-177.23c49.89-49.89 108.96-74.83 177.23-74.83 73.52 0 135.22 24.95 185.11 74.83C487.06 220.8 512 279.87 512 348.14" fill="url(#1770301555017-4784048_d)"></path><path d="M505.36 348.13c0 66.5-24.3 124.04-72.89 172.64s-108.7 72.89-180.31 72.89c-66.5 0-124.04-24.3-172.64-72.89-48.59-48.6-72.89-106.14-72.89-172.64s24.3-124.04 72.89-172.64c48.6-48.6 106.14-72.89 172.64-72.89 71.61 0 131.72 24.3 180.31 72.89 48.6 48.6 72.89 106.14 72.89 172.64" fill="url(#1770301555017-4784048_e)"></path><path d="M498.1 348.17c0 64.58-23.59 120.45-70.78 167.64s-105.55 70.78-175.1 70.78c-64.58 0-120.45-23.59-167.64-70.78S13.8 412.74 13.8 348.17s23.59-120.45 70.78-167.64 103.07-70.78 167.64-70.78c69.54 0 127.91 23.59 175.1 70.78S498.1 283.6 498.1 348.17" fill="url(#1770301555017-4784048_f)"></path><path d="M472.15 348.21c0 57.67-21.08 107.58-63.22 149.72s-94.27 63.22-156.38 63.22c-57.67 0-107.58-21.08-149.73-63.22-42.14-42.14-63.22-92.06-63.22-149.72s21.08-107.58 63.22-149.73c42.14-42.14 92.06-63.22 149.73-63.22 62.11 0 114.24 21.08 156.38 63.22s63.22 92.06 63.22 149.73" fill="url(#1770301555017-4784048_g)"></path><path d="M49.63 348.54c0-28.14 5.33-54.67 15.98-79.6 10.65-24.92 25.43-46.84 44.32-65.73 18.9-18.9 40.71-33.67 65.43-44.32s51.36-15.98 79.9-15.98 55.18 5.33 79.9 15.98 46.53 25.43 65.43 44.32c18.9 18.9 33.67 40.8 44.32 65.73 10.65 24.92 15.98 51.46 15.98 79.6s-5.33 55.18-15.98 79.9-25.43 46.53-44.32 65.43-40.8 33.67-65.73 44.32c-24.92 10.65-51.46 15.98-79.6 15.98s-55.18-5.33-79.9-15.98-46.53-25.43-65.43-44.32c-18.9-18.9-33.67-40.71-44.32-65.43s-15.98-51.36-15.98-79.9" fill="url(#1770301555017-4784048_h)"></path><path d="M255.27 227.94c22.11 0 42.31 5.43 60.61 16.28 18.29 10.86 32.86 25.43 43.72 43.72s16.28 38.49 16.28 60.6-5.43 42.31-16.28 60.61c-10.86 18.29-25.43 32.86-43.72 43.72s-38.49 16.28-60.61 16.28-42.31-5.43-60.6-16.28-32.86-25.43-43.72-43.72-16.28-38.49-16.28-60.61 5.43-42.31 16.28-60.6c10.86-18.29 25.43-32.86 43.72-43.72s38.49-16.28 60.6-16.28m0 238.19c21.71 0 41.51-5.22 59.4-15.68 17.89-10.45 32.06-24.63 42.51-42.51s15.68-37.69 15.68-59.4-5.22-41.41-15.68-59.09-24.63-31.86-42.51-42.51c-17.89-10.65-37.69-15.98-59.4-15.98s-41.41 5.33-59.09 15.98q-26.535 15.975-42.51 42.51c-15.975 26.535-15.98 37.39-15.98 59.09s5.33 41.51 15.98 59.4 24.82 32.06 42.51 42.51 37.39 15.68 59.09 15.68" class="x" fill="#eddeab"></path><path d="M255.27 220.11c23.72 0 45.32 5.73 64.82 17.18 19.49 11.45 34.97 26.94 46.43 46.44s17.18 41.11 17.18 64.82-5.73 45.32-17.18 64.82c-11.45 19.49-26.94 34.97-46.43 46.44-19.5 11.45-41.11 17.18-64.82 17.18s-45.32-5.73-64.82-17.18c-19.5-11.46-34.97-26.94-46.44-46.44-11.45-19.5-17.18-41.11-17.18-64.82s5.73-45.32 17.18-64.82 26.94-34.97 46.44-46.44c19.5-11.45 41.11-17.18 64.82-17.18m0 253.86c23.32 0 44.42-5.63 63.32-16.88 18.9-11.26 33.97-26.33 45.23-45.23s16.88-40 16.88-63.32-5.63-43.92-16.88-63.02c-11.26-19.09-26.33-34.27-45.23-45.53s-40-16.88-63.32-16.88-43.92 5.63-63.02 16.88c-19.09 11.26-34.27 26.43-45.53 45.53-11.26 19.09-16.88 40.1-16.88 63.02s5.63 44.42 16.88 63.32 26.43 33.97 45.53 45.23c19.09 11.26 40.1 16.88 63.02 16.88" class="x" fill="#eddeab"></path><path d="M255.27 200.2c27.34 0 52.26 6.63 74.77 19.9 22.51 13.26 40.4 31.16 53.67 53.67 13.26 22.51 19.9 47.44 19.9 74.77s-6.63 52.26-19.9 74.77q-19.905 33.765-53.67 53.67c-22.51 13.26-47.44 19.9-74.77 19.9s-52.26-6.63-74.77-19.9c-22.51-13.26-40.4-31.16-53.67-53.67-13.26-22.51-19.9-47.44-19.9-74.77s6.63-52.26 19.9-74.77c13.26-22.51 31.16-40.4 53.67-53.67 22.51-13.26 47.44-19.9 74.77-19.9m0 293.67c26.94 0 51.36-6.53 73.27-19.6s39.4-30.55 52.46-52.46c13.07-21.91 19.6-46.33 19.6-73.27s-6.53-50.86-19.6-72.96c-13.07-22.11-30.55-39.7-52.46-52.76-21.91-13.07-46.33-19.6-73.27-19.6s-51.36 6.53-73.27 19.6-39.4 30.65-52.46 52.76c-13.07 22.11-19.6 46.44-19.6 72.96s6.53 51.36 19.6 73.27 30.55 39.4 52.46 52.46c21.91 13.07 46.33 19.6 73.27 19.6" class="x" fill="#eddeab"></path><path d="m219.98 474.21 2.85.77-3.43 12.83-2.85-.77zm70.89-264.65 2.85.77-3.43 12.83-2.85-.77zM188.71 460.82l2.56 1.48-6.64 11.52-2.56-1.48zm136.94-237.33 2.55 1.47-6.64 11.52-2.55-1.47zM161.88 439.72l2.08 2.08-9.4 9.4-2.08-2.08zm193.75-193.71 2.09 2.09-9.4 9.4-2.09-2.09zM141.48 412.5l1.48 2.56-11.52 6.64-1.48-2.56zm237.27-136.97 1.47 2.55-11.52 6.64-1.47-2.55zM128.84 380.96l.76 2.85-12.83 3.43-.76-2.85zm264.7-70.99.77 2.85-12.83 3.45-.77-2.85zm-276.85.04 12.95 3.46-.75 2.81-12.95-3.46zm264.04 73.69 12.85 3.47.85-2.77-12.85-3.47zM131.37 275.48l11.6 6.71-1.46 2.53-11.6-6.71zm237.27 137.05 11.6 6.71-1.46 2.53-11.6-6.71zM154.63 246.04l9.39 9.39-2.12 1.98-9.39-9.39zM348.3 439.77l9.48 9.48-2.06 2.06-9.48-9.48zM184.51 223.42l6.71 11.6-2.53 1.46-6.71-11.6zm137.03 237.34 6.71 11.6-2.53 1.46-6.71-11.6zM219.35 209.45l3.46 12.95-2.81.75-3.46-12.95zm70.9 264.75 3.43 12.84-2.8.73-3.48-12.83 2.84-.73m7.24-295.11v-3.62q48.24 12.06 83.52 47.34c23.51 23.52 39.3 51.56 47.34 84.12l-3.62-.61c-7.64-31.36-22.92-58.39-45.83-81.11-22.92-22.71-50.05-38.09-81.41-46.13M85.81 306.33l-3.62.61q12.06-48.84 47.34-84.12t83.52-47.34v3.62c-31.36 7.64-58.5 22.92-81.41 45.83-22.92 22.92-38.19 50.05-45.83 81.41M213.05 518v3.62c-32.16-7.64-60-23.32-83.52-47.03q-35.28-35.58-47.34-83.82h3.62c7.64 31.36 22.92 58.5 45.83 81.41 22.92 22.92 50.05 38.19 81.41 45.83m211.66-127.25h3.62q-12.06 48.24-47.34 83.82c-23.52 23.72-51.36 39.4-83.52 47.03v-3.62c31.36-7.64 58.5-22.92 81.41-45.83 22.92-22.92 38.19-50.05 45.83-81.41M255.27 203.22v145.33h15.68z" class="x" fill="#eddeab"></path><path d="m255.27 493.87 15.68-145.33h-15.68zm0-290.65v145.33h-15.68z" class="w" fill="#fff3cc"></path><path d="m255.27 493.87-15.68-145.33h15.68zm145.32-145.33H255.26v15.68z" class="x" fill="#eddeab"></path><path d="m110.01 348.62 145.33 15.68v-15.68zm290.66 0H255.34v-15.68z" class="w" fill="#fff3cc"></path><path d="m109.94 348.54 145.33-15.68v15.68zm228.54-83.21-83.22 83.22 9.05 9.05 74.17-92.26" class="x" fill="#eddeab"></path><path d="m172.08 431.86 92.25-74.29-8.98-8.98-83.28 83.28m166.55-166.55-83.28 83.28-8.98-8.98 92.25-74.29" class="w" fill="#fff3cc"></path><path d="m171.97 432.06 73.98-92.04 9.03 9.03zm92.34-92.56-9.05 9.05-83.22-83.22 92.26 74.17" class="x" fill="#eddeab"></path><path d="m338.48 431.76-74.17-92.26-9.05 9.05 83.22 83.22M172.05 265.33l83.22 83.22-9.05 9.05-74.17-92.26" class="w" fill="#fff3cc"></path><path d="m338.69 431.92-91.99-74.03 8.98-8.98z" class="x" fill="#eddeab"></path><path d="M268.53 525.23c.8.8 1.41 2.01 1.81 3.62.4 1.2.61 2.61.61 4.22 0 2.82-.61 5.03-1.81 6.63-1.2 2.01-3.01 3.62-5.43 4.82-2.82 1.2-5.83 1.81-9.05 1.81-2.01 0-4.02-.2-6.03-.61-1.61-.4-3.41-1.01-5.43-1.81-1.61-.4-3.01-1.2-4.22-2.41l3.01-7.84c2.01 1.2 4.02 2.21 6.03 3.01q3.015 1.2 6.63 1.2c2.01 0 3.62-.4 4.82-1.2s1.81-1.81 1.81-3.01c0-.4-.2-1.01-.61-1.81-.4-.4-1.2-.8-2.41-1.2-.8-.4-2.21-.8-4.22-1.2-2.82-.8-5.22-1.61-7.24-2.41-1.61-.8-3.01-1.61-4.22-2.41-1.2-1.2-2.01-2.41-2.41-3.62s-.61-2.61-.61-4.22c0-2.82.8-5.22 2.41-7.24 1.2-2.01 3.01-3.62 5.43-4.82s5.22-1.81 8.44-1.81c3.62 0 7.03.8 10.25 2.41 1.61.8 2.82 1.61 3.62 2.41l-3.01 7.84c-2.01-1.2-3.82-2.21-5.43-3.01q-3.015-1.2-5.43-1.2c-2.415 0-3.01.4-4.22 1.2s-1.81 1.81-1.81 3.01c0 .8.2 1.41.61 1.81.4.8 1.01 1.2 1.81 1.2 1.2.8 2.82 1.41 4.82 1.81 2.82.4 5.22 1.01 7.24 1.81 1.2.8 2.61 1.81 4.22 3.01M85.21 336.48l-27.14-8.44v-9.65l42.21 13.87v8.44l-25.33 7.84 25.33 8.44v7.84l-42.21 13.87v-10.86l26.53-7.84-26.53-8.44v-6.63zm324.43-1.81h42.82v27.74h-9.05v-17.49h-7.84v16.28h-8.44v-16.28h-9.05v17.49h-8.44zM262.5 151.36h9.65v42.82h-7.24l-17.49-24.12v24.12h-9.65v-42.82h7.24l17.49 24.12z" fill="#5c3612"></path><path d="M255.27 289.45c16.48 0 30.55 5.73 42.21 17.18q17.49 17.19 17.49 41.91c0 24.72-5.83 30.55-17.49 42.21s-25.73 17.49-42.21 17.49-30.45-5.83-41.91-17.49c-11.45-11.66-17.18-25.73-17.18-42.21s5.73-30.45 17.18-41.91c11.45-11.45 25.43-17.18 41.91-17.18m0 116.38c15.68 0 29.15-5.63 40.4-16.88 11.26-11.26 16.88-24.72 16.88-40.4s-5.63-29.15-16.88-40.4c-11.26-11.26-24.72-16.88-40.4-16.88s-29.15 5.63-40.4 16.88c-11.26 11.26-16.88 24.72-16.88 40.4s5.63 29.15 16.88 40.4c11.26 11.26 24.72 16.88 40.4 16.88" class="x" fill="#eddeab"></path><path d="m234.16 360.6-53.07-176.68 98.29 153.77 56.08 177.29-101.31-154.37"></path><path d="m278.18 337.69-45.83 21.71-54.27-176.08z" fill="url(#1770301555017-4784048_i)"></path><path d="m232.35 359.55 45.83-21.71 54.27 176.08z" fill="url(#1770301555017-4784048_j)"></path><path d="M242 348.54c0-5.63 2.21-9.45 6.63-11.45q6.63-3.015 13.26 0c6.63 3.015 6.63 5.83 6.63 11.45q0 9.045-6.63 11.76c-6.63 2.715-8.84 1.81-13.26 0s-6.63-5.73-6.63-11.76" fill="url(#1770301555017-4784048_k)"></path></g></svg>
