<svg xmlns="http://www.w3.org/2000/svg" data-name="Layer 1" style="" viewBox="0 0 512 853.32"><g><defs><radialGradient id="1770301555033-8943881_b" cx="821.74" cy="984.88" r="109.98" fx="821.74" fy="1064.58" gradientTransform="matrix(3.15 0 0 -4.48 -2331.01 4757.96)" gradientUnits="userSpaceOnUse"><stop offset="0" stop-color="#73efff"></stop><stop offset=".19" stop-color="#6fecff"></stop><stop offset=".36" stop-color="#64e3ff"></stop><stop offset=".54" stop-color="#51d3ff"></stop><stop offset=".71" stop-color="#36bdff"></stop><stop offset=".87" stop-color="#14a1ff"></stop><stop offset=".96" stop-color="#0091ff"></stop></radialGradient><linearGradient id="1770301555033-8943881_c" x1="696.98" x2="823.14" y1="879.6" y2="991.06" gradientTransform="matrix(2.73 0 0 -3.09 -1828.31 3272.77)" gradientUnits="userSpaceOnUse"><stop offset=".05" stop-color="#c4eeff" stop-opacity="0"></stop><stop offset=".45" stop-color="#cdf0ff" stop-opacity=".42"></stop><stop offset="1" stop-color="#d4f2ff"></stop></linearGradient></defs><path d="M289.28 40.8c-18.77-54.33-47.93-54.47-66.7 0C167.54 200.8 0 417.69 0 605.42c0 136.82 114.63 247.89 256 247.89s256-111.08 256-247.89c0-187.31-168.11-406.76-222.72-564.62" fill="url(#1770301555033-8943881_b)"></path><path d="M276.62 28.14c-6.54-24.6-34.56-24.6-41.1 0C201.53 156.28 82.49 368.9 82.49 519.23c0 180.62 347.16 180.62 347.16 0 0-150.04-119.32-364.66-153.03-491.09" fill="url(#1770301555033-8943881_c)"></path></g></svg>
