<svg xmlns="http://www.w3.org/2000/svg" data-name="Layer 1" style="" viewBox="0 0 512 548.57"><g><defs><linearGradient id="1770301555037-7341790_b" x1="224" x2="288" y1="500.29" y2="500.29" gradientTransform="matrix(1 0 0 -1 0 550.57)" gradientUnits="userSpaceOnUse"><stop offset="0" stop-color="#4ecee6"></stop><stop offset=".2" stop-color="#45c8e8"></stop><stop offset=".53" stop-color="#2db8ed"></stop><stop offset=".95" stop-color="#059ef6"></stop><stop offset="1" stop-color="#009af7"></stop></linearGradient><linearGradient id="1770301555037-7341790_c" x1="224" x2="288" y1="541.43" y2="541.43" gradientTransform="matrix(1 0 0 -1 0 550.57)" gradientUnits="userSpaceOnUse"><stop offset="0" stop-color="#4ecee6"></stop><stop offset=".2" stop-color="#45c8e8"></stop><stop offset=".53" stop-color="#2db8ed"></stop><stop offset=".95" stop-color="#059ef6"></stop><stop offset="1" stop-color="#009af7"></stop></linearGradient><linearGradient id="1770301555037-7341790_d" x1="224" x2="288" y1="52.29" y2="52.29" gradientTransform="matrix(1 0 0 -1 0 550.57)" gradientUnits="userSpaceOnUse"><stop offset="0" stop-color="#4ecee6"></stop><stop offset=".2" stop-color="#45c8e8"></stop><stop offset=".53" stop-color="#2db8ed"></stop><stop offset=".95" stop-color="#059ef6"></stop><stop offset="1" stop-color="#009af7"></stop></linearGradient><linearGradient id="1770301555037-7341790_e" x1="224" x2="288" y1="93.43" y2="93.43" gradientTransform="matrix(1 0 0 -1 0 550.57)" gradientUnits="userSpaceOnUse"><stop offset="0" stop-color="#4ecee6"></stop><stop offset=".2" stop-color="#45c8e8"></stop><stop offset=".53" stop-color="#2db8ed"></stop><stop offset=".95" stop-color="#059ef6"></stop><stop offset="1" stop-color="#009af7"></stop></linearGradient><linearGradient id="1770301555037-7341790_f" x1="339.91" x2="403.91" y1="470.95" y2="470.95" gradientTransform="matrix(1 0 0 -1 0 550.57)" gradientUnits="userSpaceOnUse"><stop offset="0" stop-color="#f02beb"></stop><stop offset=".24" stop-color="#e725e2"></stop><stop offset=".64" stop-color="#cf14ca"></stop><stop offset="1" stop-color="#b300af"></stop></linearGradient><linearGradient id="1770301555037-7341790_g" x1="339.91" x2="403.91" y1="512.09" y2="512.09" gradientTransform="matrix(1 0 0 -1 0 550.57)" gradientUnits="userSpaceOnUse"><stop offset="0" stop-color="#f02beb"></stop><stop offset=".24" stop-color="#e725e2"></stop><stop offset=".64" stop-color="#cf14ca"></stop><stop offset="1" stop-color="#b300af"></stop></linearGradient><linearGradient id="1770301555037-7341790_h" x1="108.1" x2="172.1" y1="470.95" y2="470.95" gradientTransform="matrix(1 0 0 -1 0 550.57)" gradientUnits="userSpaceOnUse"><stop offset="0" stop-color="#92c932"></stop><stop offset=".34" stop-color="#89c131"></stop><stop offset=".9" stop-color="#71ac2f"></stop><stop offset="1" stop-color="#6ca82e"></stop></linearGradient><linearGradient id="1770301555037-7341790_i" x1="108.1" x2="172.1" y1="512.09" y2="512.09" gradientTransform="matrix(1 0 0 -1 0 550.57)" gradientUnits="userSpaceOnUse"><stop offset="0" stop-color="#92c932"></stop><stop offset=".34" stop-color="#89c131"></stop><stop offset=".9" stop-color="#71ac2f"></stop><stop offset="1" stop-color="#6ca82e"></stop></linearGradient><linearGradient id="1770301555037-7341790_j" x1="108.1" x2="172.1" y1="86.95" y2="86.95" gradientTransform="matrix(1 0 0 -1 0 550.57)" gradientUnits="userSpaceOnUse"><stop offset="0" stop-color="#f02beb"></stop><stop offset=".24" stop-color="#e725e2"></stop><stop offset=".64" stop-color="#cf14ca"></stop><stop offset="1" stop-color="#b300af"></stop></linearGradient><linearGradient id="1770301555037-7341790_k" x1="108.1" x2="172.1" y1="128.09" y2="128.09" gradientTransform="matrix(1 0 0 -1 0 550.57)" gradientUnits="userSpaceOnUse"><stop offset="0" stop-color="#f02beb"></stop><stop offset=".24" stop-color="#e725e2"></stop><stop offset=".64" stop-color="#cf14ca"></stop><stop offset="1" stop-color="#b300af"></stop></linearGradient><linearGradient id="1770301555037-7341790_l" x1="339.91" x2="403.91" y1="86.95" y2="86.95" gradientTransform="matrix(1 0 0 -1 0 550.57)" gradientUnits="userSpaceOnUse"><stop offset="0" stop-color="#92c932"></stop><stop offset=".34" stop-color="#89c131"></stop><stop offset=".9" stop-color="#71ac2f"></stop><stop offset="1" stop-color="#6ca82e"></stop></linearGradient><linearGradient id="1770301555037-7341790_m" x1="339.91" x2="403.91" y1="128.09" y2="128.09" gradientTransform="matrix(1 0 0 -1 0 550.57)" gradientUnits="userSpaceOnUse"><stop offset="0" stop-color="#92c932"></stop><stop offset=".34" stop-color="#89c131"></stop><stop offset=".9" stop-color="#71ac2f"></stop><stop offset="1" stop-color="#6ca82e"></stop></linearGradient><linearGradient id="1770301555037-7341790_n" x1="0" x2="64" y1="276.29" y2="276.29" gradientTransform="matrix(1 0 0 -1 0 550.57)" gradientUnits="userSpaceOnUse"><stop offset="0" stop-color="#fa0"></stop><stop offset=".13" stop-color="#ff9c00"></stop><stop offset=".5" stop-color="#ff7a00"></stop><stop offset=".8" stop-color="#ff6500"></stop><stop offset="1" stop-color="#ff5e00"></stop></linearGradient><linearGradient id="1770301555037-7341790_o" x1="0" x2="64" y1="317.43" y2="317.43" gradientTransform="matrix(1 0 0 -1 0 550.57)" gradientUnits="userSpaceOnUse"><stop offset="0" stop-color="#fa0"></stop><stop offset=".13" stop-color="#ff9c00"></stop><stop offset=".5" stop-color="#ff7a00"></stop><stop offset=".8" stop-color="#ff6500"></stop><stop offset="1" stop-color="#ff5e00"></stop></linearGradient><linearGradient id="1770301555037-7341790_p" x1="448" x2="512" y1="276.29" y2="276.29" gradientTransform="matrix(1 0 0 -1 0 550.57)" gradientUnits="userSpaceOnUse"><stop offset="0" stop-color="#fa0"></stop><stop offset=".13" stop-color="#ff9c00"></stop><stop offset=".5" stop-color="#ff7a00"></stop><stop offset=".8" stop-color="#ff6500"></stop><stop offset="1" stop-color="#ff5e00"></stop></linearGradient><linearGradient id="1770301555037-7341790_q" x1="448" x2="512" y1="317.44" y2="317.44" gradientTransform="matrix(1 0 0 -1 0 550.57)" gradientUnits="userSpaceOnUse"><stop offset="0" stop-color="#fa0"></stop><stop offset=".13" stop-color="#ff9c00"></stop><stop offset=".5" stop-color="#ff7a00"></stop><stop offset=".8" stop-color="#ff6500"></stop><stop offset="1" stop-color="#ff5e00"></stop></linearGradient><linearGradient id="1770301555037-7341790_r" x1="424" x2="488" y1="168.09" y2="168.09" gradientTransform="matrix(1 0 0 -1 0 550.57)" gradientUnits="userSpaceOnUse"><stop offset="0" stop-color="#ff3b3b"></stop><stop offset=".25" stop-color="#f73232"></stop><stop offset=".65" stop-color="#e21a1a"></stop><stop offset="1" stop-color="#cc0100"></stop></linearGradient><linearGradient id="1770301555037-7341790_s" x1="424" x2="488" y1="209.23" y2="209.23" gradientTransform="matrix(1 0 0 -1 0 550.57)" gradientUnits="userSpaceOnUse"><stop offset="0" stop-color="#ff3b3b"></stop><stop offset=".25" stop-color="#f73232"></stop><stop offset=".65" stop-color="#e21a1a"></stop><stop offset="1" stop-color="#cc0100"></stop></linearGradient><linearGradient id="1770301555037-7341790_t" x1="24" x2="88" y1="168.09" y2="168.09" gradientTransform="matrix(1 0 0 -1 0 550.57)" gradientUnits="userSpaceOnUse"><stop offset="0" stop-color="#ffe02e"></stop><stop offset=".27" stop-color="#ffd726"></stop><stop offset=".7" stop-color="#ffbf12"></stop><stop offset="1" stop-color="#fa0"></stop></linearGradient><linearGradient id="1770301555037-7341790_u" x1="24" x2="88" y1="209.23" y2="209.23" gradientTransform="matrix(1 0 0 -1 0 550.57)" gradientUnits="userSpaceOnUse"><stop offset="0" stop-color="#ffe02e"></stop><stop offset=".27" stop-color="#ffd726"></stop><stop offset=".7" stop-color="#ffbf12"></stop><stop offset="1" stop-color="#fa0"></stop></linearGradient><linearGradient id="1770301555037-7341790_v" x1="24" x2="88" y1="384.48" y2="384.48" gradientTransform="matrix(1 0 0 -1 0 550.57)" gradientUnits="userSpaceOnUse"><stop offset="0" stop-color="#ff3b3b"></stop><stop offset=".25" stop-color="#f73232"></stop><stop offset=".65" stop-color="#e21a1a"></stop><stop offset="1" stop-color="#cc0100"></stop></linearGradient><linearGradient id="1770301555037-7341790_w" x1="24" x2="88" y1="425.63" y2="425.63" gradientTransform="matrix(1 0 0 -1 0 550.57)" gradientUnits="userSpaceOnUse"><stop offset="0" stop-color="#ff3b3b"></stop><stop offset=".25" stop-color="#f73232"></stop><stop offset=".65" stop-color="#e21a1a"></stop><stop offset="1" stop-color="#cc0100"></stop></linearGradient><linearGradient id="1770301555037-7341790_x" x1="424" x2="488" y1="384.48" y2="384.48" gradientTransform="matrix(1 0 0 -1 0 550.57)" gradientUnits="userSpaceOnUse"><stop offset="0" stop-color="#ffe02e"></stop><stop offset=".27" stop-color="#ffd726"></stop><stop offset=".7" stop-color="#ffbf12"></stop><stop offset="1" stop-color="#fa0"></stop></linearGradient><linearGradient id="1770301555037-7341790_y" x1="424" x2="488" y1="425.63" y2="425.63" gradientTransform="matrix(1 0 0 -1 0 550.57)" gradientUnits="userSpaceOnUse"><stop offset="0" stop-color="#ffe02e"></stop><stop offset=".27" stop-color="#ffd726"></stop><stop offset=".7" stop-color="#ffbf12"></stop><stop offset="1" stop-color="#fa0"></stop></linearGradient></defs><path d="m363.56 539.43-99.29-272.77-18.38 6.67 96.84 266.1z" class="ay" fill="#cfd8dd"></path><path d="m169.28 539.43 96.84-266.08-18.38-6.69-99.29 272.77z" class="ay" fill="#cfd8dd"></path><path d="M251.43 9.14h9.14v457.14h-9.14z" class="bj" fill="#e6ebef"></path><path d="m137.848 41.972 7.926-4.571 228.363 396.015-7.927 4.57z" class="bj" fill="#e6ebef"></path><path d="M27.43 233.14h457.14v9.14H27.43z" class="bj" fill="#e6ebef"></path><path d="m55.794 127.304 4.567-7.905L456.16 348.097l-4.568 7.905z" class="bj" fill="#e6ebef"></path><path d="M55.828 348.128 451.626 119.43l4.568 7.906L60.396 356.034z" class="bj" fill="#e6ebef"></path><path d="m138.175 433.671 227.681-396.43 7.926 4.553-227.68 396.43z" class="bj" fill="#e6ebef"></path><path d="M256 9.14c-126.24 0-228.57 102.32-228.57 228.57S129.77 466.28 256 466.28s228.57-102.34 228.57-228.57S382.24 9.14 256 9.14m0 448c-121.19 0-219.43-98.23-219.43-219.43S134.81 18.29 256 18.29s219.43 98.23 219.43 219.43S377.2 457.15 256 457.15Z" fill="#6e8189"></path><path d="M256 54.86c-100.98 0-182.86 81.86-182.86 182.86S155.01 420.58 256 420.58s182.86-81.86 182.86-182.86S357 54.86 256 54.86m0 358.39c-96.94 0-175.54-78.59-175.54-175.53S159.06 62.16 256 62.16s175.56 78.59 175.56 175.55c0 96.95-78.61 175.53-175.56 175.53Z" class="bb" fill="#99a8ae"></path><path d="M280.9 64h-49.8L224 36.57h64z" fill="url(#1770301555037-7341790_b)"></path><path d="M256 0c-29.53 0-32 18.29-32 18.29h64S285.53 0 256 0" fill="url(#1770301555037-7341790_c)"></path><path d="M253.71 16h4.57v22.86h-4.57z" class="be" fill="#018bc9"></path><path d="M224 13.71h64v4.57h-64zm0 22.86h64v4.57h-64z" class="be" fill="#018bc9"></path><path d="M280.9 512h-49.8l-7.1-27.43h64z" fill="url(#1770301555037-7341790_d)"></path><path d="M256 448c-29.53 0-32 18.29-32 18.29h64S285.53 448 256 448" fill="url(#1770301555037-7341790_e)"></path><path d="M253.71 464h4.57v22.86h-4.57z" class="be" fill="#018bc9"></path><path d="M224 461.71h64v4.57h-64zm0 22.86h64v4.57h-64z" class="be" fill="#018bc9"></path><path d="M396.78 93.34h-49.76l-7.11-27.43h64z" fill="url(#1770301555037-7341790_f)"></path><path d="M371.91 29.34c-29.53 0-32 18.29-32 18.29h64s-2.47-18.29-32-18.29" fill="url(#1770301555037-7341790_g)"></path><path d="M369.63 45.34h4.57V68.2h-4.57z" class="ba" fill="#a30b9e"></path><path d="M339.91 43.05h64v4.57h-64zm0 22.86h64v4.57h-64z" class="ba" fill="#a30b9e"></path><path d="M164.98 93.34h-49.76l-7.12-27.43h64z" fill="url(#1770301555037-7341790_h)"></path><path d="M140.1 29.34c-29.54 0-32 18.29-32 18.29h64s-2.46-18.29-32-18.29" fill="url(#1770301555037-7341790_i)"></path><path d="M137.81 45.34h4.57V68.2h-4.57z" class="bd" fill="#529320"></path><path d="M108.1 43.05h64v4.57h-64zm0 22.86h64v4.57h-64z" class="bd" fill="#529320"></path><path d="M164.98 477.34h-49.76l-7.12-27.43h64z" fill="url(#1770301555037-7341790_j)"></path><path d="M140.1 413.34c-29.53 0-32 18.29-32 18.29h64s-2.46-18.29-32-18.29" fill="url(#1770301555037-7341790_k)"></path><path d="M137.81 429.34h4.57v22.86h-4.57z" class="ba" fill="#a30b9e"></path><path d="M108.1 427.05h64v4.57h-64zm0 22.86h64v4.57h-64z" class="ba" fill="#a30b9e"></path><path d="M396.78 477.34h-49.76l-7.11-27.43h64z" fill="url(#1770301555037-7341790_l)"></path><path d="M371.91 413.34c-29.55 0-32 18.29-32 18.29h64s-2.47-18.29-32-18.29" fill="url(#1770301555037-7341790_m)"></path><path d="M369.63 429.34h4.57v22.86h-4.57z" class="bd" fill="#529320"></path><path d="M339.91 427.05h64v4.57h-64zm0 22.86h64v4.57h-64z" class="bd" fill="#529320"></path><path d="M56.9 288H7.1L0 260.57h64z" fill="url(#1770301555037-7341790_n)"></path><path d="M32 224c-29.53 0-32 18.29-32 18.29h64S61.53 224 32 224" fill="url(#1770301555037-7341790_o)"></path><path d="M29.71 240h4.57v22.86h-4.57z" class="bk" fill="#d45c06"></path><path d="M0 237.71h64v4.57H0zm0 22.86h64v4.57H0z" class="bk" fill="#d45c06"></path><path d="M504.9 287.99h-49.8l-7.1-27.43h64z" fill="url(#1770301555037-7341790_p)"></path><path d="M480 223.99c-29.53 0-32 18.29-32 18.29h64s-2.47-18.29-32-18.29" fill="url(#1770301555037-7341790_q)"></path><path d="M477.71 239.99h4.57v22.86h-4.57z" class="bk" fill="#d45c06"></path><path d="M448 237.71h64v4.57h-64zm0 22.85h64v4.57h-64z" class="bk" fill="#d45c06"></path><path d="M480.9 396.2h-49.8l-7.1-27.43h64z" fill="url(#1770301555037-7341790_r)"></path><path d="M456 332.2c-29.53 0-32 18.29-32 18.29h64s-2.47-18.29-32-18.29" fill="url(#1770301555037-7341790_s)"></path><path d="M453.71 348.2h4.57v22.86h-4.57z" class="bc" fill="#b00505"></path><path d="M424 345.91h64v4.57h-64zm0 22.86h64v4.57h-64z" class="bc" fill="#b00505"></path><path d="M80.9 396.2H31.1L24 368.77h64z" fill="url(#1770301555037-7341790_t)"></path><path d="M56 332.2c-29.53 0-32 18.29-32 18.29h64s-2.47-18.29-32-18.29" fill="url(#1770301555037-7341790_u)"></path><path d="M53.71 348.2h4.57v22.86h-4.57z" class="bg" fill="#f9b700"></path><path d="M24 345.91h64v4.57H24zm0 22.86h64v4.57H24z" class="bg" fill="#f9b700"></path><path d="M80.9 179.8H31.1L24 152.37h64z" fill="url(#1770301555037-7341790_v)"></path><path d="M56 115.8c-29.53 0-32 18.29-32 18.29h64s-2.47-18.29-32-18.29" fill="url(#1770301555037-7341790_w)"></path><path d="M53.71 131.8h4.57v22.86h-4.57z" class="bc" fill="#b00505"></path><path d="M24 129.52h64v4.57H24zm0 22.85h64v4.57H24z" class="bc" fill="#b00505"></path><path d="M480.9 179.8h-49.8l-7.1-27.43h64z" fill="url(#1770301555037-7341790_x)"></path><path d="M456 115.8c-29.53 0-32 18.29-32 18.29h64s-2.47-18.29-32-18.29" fill="url(#1770301555037-7341790_y)"></path><path d="M453.71 131.8h4.57v22.86h-4.57z" class="bg" fill="#f9b700"></path><path d="M424 129.52h64v4.57h-64zm0 22.85h64v4.57h-64z" class="bg" fill="#f9b700"></path><path d="m373.32 539.43-99.28-272.77-18.39 6.67 96.85 266.1z" class="ax" fill="#b3c2c6"></path><path d="m159.5 539.43 96.84-266.08-18.38-6.69-99.28 272.77z" class="ax" fill="#b3c2c6"></path><path d="m256 195.64 32.19-35.66-2.44 48 47.96-2.46-35.65 32.19 35.65 32.2-47.96-2.46 2.44 47.98L256 279.77l-32.2 35.66 2.49-47.98-48 2.46 35.65-32.2-35.65-32.19 48 2.46-2.49-48z" fill="#e635de"></path><path d="M256 196.57c22.74 0 41.14 18.38 41.14 41.14s-18.41 41.14-41.14 41.14-41.14-18.4-41.14-41.14 18.4-41.14 41.14-41.14" fill="#b30bad"></path><circle cx="256" cy="237.71" r="22.86" fill="#c28fef"></circle><path d="M73.14 530.29h365.71v18.29H73.14z" class="bb" fill="#99a8ae"></path></g></svg>
