<svg xmlns="http://www.w3.org/2000/svg" data-name="Layer 1" style="" viewBox="0 0 512 367.99"><g><defs><linearGradient id="1770301555038-6842740_b" x1="255.53" x2="255.53" y1="186.59" y2="369.99" gradientTransform="matrix(1 0 0 -1 0 369.99)" gradientUnits="userSpaceOnUse"><stop offset="0" stop-color="#f9c802"></stop><stop offset=".22" stop-color="#face0a"></stop><stop offset=".56" stop-color="#fcde20"></stop><stop offset=".98" stop-color="#fff843"></stop><stop offset="1" stop-color="#fff945"></stop></linearGradient><linearGradient id="1770301555038-6842740_c" x1="318.72" x2="318.72" y1="8.25" y2="130.58" gradientTransform="matrix(1 0 0 -1 0 369.99)" gradientUnits="userSpaceOnUse"><stop offset="0" stop-color="#94bad1"></stop><stop offset=".08" stop-color="#a3c3d6"></stop><stop offset=".26" stop-color="#c0d4e1"></stop><stop offset=".45" stop-color="#d5e1e9"></stop><stop offset=".62" stop-color="#e2e8ed"></stop><stop offset=".79" stop-color="#e6ebef"></stop></linearGradient><linearGradient id="1770301555038-6842740_d" x1="184.27" x2="184.27" y1="2" y2="55.78" gradientTransform="matrix(1 0 0 -1 0 369.99)" gradientUnits="userSpaceOnUse"><stop offset="0" stop-color="#94bad1"></stop><stop offset=".08" stop-color="#a3c3d6"></stop><stop offset=".26" stop-color="#c0d4e1"></stop><stop offset=".45" stop-color="#d5e1e9"></stop><stop offset=".62" stop-color="#e2e8ed"></stop><stop offset=".79" stop-color="#e6ebef"></stop></linearGradient><linearGradient id="1770301555038-6842740_e" x1="231.67" x2="231.67" y1="30.37" y2="314.92" gradientTransform="matrix(1 0 0 -1 0 369.99)" gradientUnits="userSpaceOnUse"><stop offset="0" stop-color="#003f7a"></stop><stop offset="1" stop-color="#2a93f5"></stop></linearGradient><linearGradient id="1770301555038-6842740_f" x1="29.59" x2="164.75" y1="166.25" y2="166.25" gradientTransform="matrix(1 0 0 -1 0 369.99)" gradientUnits="userSpaceOnUse"><stop offset="0" stop-color="#94bad1"></stop><stop offset=".26" stop-color="#b2ccdc"></stop><stop offset=".55" stop-color="#cfdde6"></stop><stop offset=".81" stop-color="#e0e7ed"></stop><stop offset="1" stop-color="#e6ebef"></stop></linearGradient><linearGradient id="1770301555038-6842740_h" x1="355.95" x2="431.61" y1="162.72" y2="162.72" gradientTransform="matrix(1 0 0 -1 0 369.99)" gradientUnits="userSpaceOnUse"><stop offset="0" stop-color="#ffe375"></stop><stop offset=".2" stop-color="#ffe271"></stop><stop offset=".38" stop-color="#fedf66"></stop><stop offset=".56" stop-color="#fddb53"></stop><stop offset=".74" stop-color="#fcd539"></stop><stop offset=".91" stop-color="#facd17"></stop><stop offset="1" stop-color="#f9c802"></stop></linearGradient><linearGradient id="1770301555038-6842740_i" x1="425.78" x2="512" y1="171.67" y2="171.67" gradientTransform="matrix(1 0 0 -1 0 369.99)" gradientUnits="userSpaceOnUse"><stop offset=".21" stop-color="#e6ebef"></stop><stop offset=".38" stop-color="#e2e8ed"></stop><stop offset=".55" stop-color="#d5e1e9"></stop><stop offset=".74" stop-color="#c0d4e1"></stop><stop offset=".92" stop-color="#a3c3d6"></stop><stop offset="1" stop-color="#94bad1"></stop></linearGradient><linearGradient id="1770301555038-6842740_j" x1="118.51" x2="196.21" y1="191.77" y2="191.77" gradientTransform="matrix(1 0 0 -1 0 369.99)" gradientUnits="userSpaceOnUse"><stop offset="0" stop-color="#fff945"></stop><stop offset=".29" stop-color="#e0e967"></stop><stop offset=".92" stop-color="#92bfbe"></stop><stop offset="1" stop-color="#88bac9"></stop></linearGradient><radialGradient id="1770301555038-6842740_g" cx="40.81" cy="279.67" r="89.94" fx="40.81" fy="279.67" gradientTransform="matrix(1 0 0 -1.27 0 509.02)" gradientUnits="userSpaceOnUse"><stop offset="0" stop-color="#2289c7"></stop><stop offset="1" stop-color="#002c45"></stop></radialGradient></defs><path d="M110.62 63.31s10.9-24.5 42.1-52.29c86.02-41.26 268.44 38.4 245.79 154.18-11.1 56.6-196.71-30.5-287.89-101.89" fill="url(#1770301555038-6842740_b)"></path><path d="M398.5 239.41s17.3 9.29 16.65 24.74c-37.38 87.15-120.68 129.02-192.87 70.32-.3-44.94 127.25-86.38 176.22-95.06" fill="url(#1770301555038-6842740_c)"></path><path d="M234.77 349.68s4.79 8.74 1.11 13.36c-31.17 13.71-95.3-.96-104.63-45.22 9.98-14.14 86.3 16.89 103.52 31.86" fill="url(#1770301555038-6842740_d)"></path><path d="M76.69 308.83c-29-21.62 2.22-208.2 18.9-243.36 63.57-30.49 296.15 0 302.91 173.94-48.65 75.53-230.65 140.88-321.81 69.42" fill="url(#1770301555038-6842740_e)"></path><path d="M109.77 98.66c-79.31 30.66-87.43 137.45-76.04 171.12 0 0 18.46 29.06 42.97 39.06 17.39-53.61 74.74-39.06 88.06-57.14-29.64-43.19 4.3-113.5-54.98-153.03Z" fill="url(#1770301555038-6842740_f)"></path><path d="M95.59 65.46c-79.31 30.61-60.3 133.7-85.43 149.63-13.95 8.86-13.66 32.17 1.66 31.69-10.68 23 15.24 18.33 21.9 23 15.58-35.1 44.03-12.22 52.02-27.43 16.06-30.61 39.1-4.38 46.36-19.58-29.65-43.18 10.62-94.64-36.52-157.3Z" fill="url(#1770301555038-6842740_g)"></path><path d="M382.63 259.12c-9.57-18.57-29.58-30.61-26.33-48.22 3.7-20 18.64-34.32 19.27-51.33 0 0 29.18 33 51.04-4.14-2.89 47.26 12.57 52.65 0 96.5 0 0-18.78-13.9-43.98 7.19" fill="url(#1770301555038-6842740_h)"></path><path d="M433.82 251.93c-9.57-18.57-10.55-80.92-3.22-96.5 7.61-16.11 51.34-68.22 51.34-68.22s8.38-8.46 18.04-10.84c7.71 90.62-31.1 130.93 12.02 243.9 0 0-9.22-1.92-12.88-3.83 0 0-46.58-34.86-65.3-64.51" fill="url(#1770301555038-6842740_i)"></path><path d="M426.62 251.93c-9.57-18.57-6.97-64.81 0-96.5 0 0 25.89-40.18 55.32-68.22-9.24 28.03-50.32 59.06-48.11 74.1 4.54 30.84 7.32 49.65 2.57 78.1-3.51 21.02 37.58 43.79 62.72 77.03 0 0-46.61-26.42-72.5-64.51" class="u" fill="#1a1626"></path><path d="M118.7 227.61c-4.06-25.4 55.94-120.75 66.88-122.13 10.95-1.38 16.32 95.77 1.73 114.04-6.11 7.66 0 20.06-5.59 26.66-3.32 3.96-57.72 14.56-63.02-18.57" fill="url(#1770301555038-6842740_j)"></path><path d="M145.84 220.72c17.5-8.56 42.2-21.02 42.2-21.02-13.09 1.14-34.88 9.1-46.17 14.38 16.9-14.19 42.5-34.38 42.5-34.38-11.58 3.95-31.17 15.09-41.2 23 16.7-21.38 41.15-49.34 41.15-49.34-13.34 8.81-33.54 29.58-43.94 42.34 13.06-25.74 32.74-61.09 32.74-61.09-30.35 30.25-49.7 72-51.58 95.35 16.27 19.41 55.68 9.05 55.68 9.05-15.67-4.74-33.18-5.7-40.9-8.46 15.83-3.17 40.79-10.9 40.79-10.9-7.58-2.1-23.27.06-31.26 1.07Z" fill="#fff945"></path><path d="M19.78 212.34s14.76 24.8 12.88 48.16c13.1-28.58-12.88-48.16-12.88-48.16" fill="#6892e6"></path><path d="M74.46 133.17c-23.44 0-32.62 20.16-30.56 35.86 1.52 11.67 59.63 11.67 61.14 0 2.14-17-9.21-35.86-30.58-35.86" class="u" fill="#1a1626"></path><path d="M74.46 138.79c-16.91 0-30.56 12.74-30.56 28.5 0 13.58 13.65 28.49 30.56 28.49s30.58-17.38 30.58-28.49c0-15.76-13.71-28.5-30.58-28.5" class="w" fill="#fff"></path><path d="M71.51 144.33c12.61 0 22.82 10.15 22.82 22.66s-10.21 22.67-22.82 22.67-22.82-10.15-22.82-22.67 10.2-22.66 22.82-22.66" class="u" fill="#1a1626"></path><path d="M69.7 155.66c0 8.23-12.47 8.23-12.47 0 0-8.26 12.47-8.26 12.47 0" class="w" fill="#fff"></path></g></svg>
