<svg xmlns="http://www.w3.org/2000/svg" data-name="Layer 1" style="" viewBox="0 0 512 495.01"><g><defs><linearGradient id="1770301555042-4948876_b" x1="262.81" x2="207.43" y1="260.1" y2="26.27" gradientTransform="matrix(1 0 0 -1 0 497.02)" gradientUnits="userSpaceOnUse"><stop offset=".07" stop-color="#820036"></stop><stop offset=".08" stop-color="#87033b"></stop><stop offset=".21" stop-color="#b21f64"></stop><stop offset=".33" stop-color="#d33584"></stop><stop offset=".45" stop-color="#eb459b"></stop><stop offset=".56" stop-color="#fa4fa9"></stop><stop offset=".65" stop-color="#ff52ae"></stop></linearGradient><linearGradient id="1770301555042-4948876_c" x1="262.87" x2="15.85" y1="261.09" y2="216.12" gradientTransform="matrix(1 0 0 -1 0 497.02)" gradientUnits="userSpaceOnUse"><stop offset=".07" stop-color="#820036"></stop><stop offset=".08" stop-color="#87033b"></stop><stop offset=".21" stop-color="#b21c62"></stop><stop offset=".33" stop-color="#d33082"></stop><stop offset=".45" stop-color="#eb3e98"></stop><stop offset=".56" stop-color="#fa47a5"></stop><stop offset=".65" stop-color="#ff4aaa"></stop></linearGradient><linearGradient id="1770301555042-4948876_d" x1="266.53" x2="127.23" y1="263.67" y2="472.62" gradientTransform="matrix(1 0 0 -1 0 497.02)" gradientUnits="userSpaceOnUse"><stop offset=".07" stop-color="#820036"></stop><stop offset=".08" stop-color="#87033b"></stop><stop offset=".21" stop-color="#b21961"></stop><stop offset=".33" stop-color="#d32b7f"></stop><stop offset=".45" stop-color="#eb3894"></stop><stop offset=".56" stop-color="#fa3fa2"></stop><stop offset=".65" stop-color="#ff42a6"></stop></linearGradient><linearGradient id="1770301555042-4948876_e" x1="285.82" x2="394.01" y1="334.3" y2="562.77" gradientTransform="scale(1 -1) rotate(-9.06 -3398.774 196.33)" gradientUnits="userSpaceOnUse"><stop offset=".07" stop-color="#820036"></stop><stop offset=".08" stop-color="#87033b"></stop><stop offset=".21" stop-color="#b21f64"></stop><stop offset=".33" stop-color="#d33584"></stop><stop offset=".45" stop-color="#eb459b"></stop><stop offset=".56" stop-color="#fa4fa9"></stop><stop offset=".65" stop-color="#ff52ae"></stop></linearGradient><linearGradient id="1770301555042-4948876_f" x1="258.99" x2="496.47" y1="254.15" y2="146.53" gradientTransform="matrix(1 0 0 -1 0 497.02)" gradientUnits="userSpaceOnUse"><stop offset=".07" stop-color="#820036"></stop><stop offset=".08" stop-color="#87033b"></stop><stop offset=".21" stop-color="#b21961"></stop><stop offset=".33" stop-color="#d32b7f"></stop><stop offset=".45" stop-color="#eb3894"></stop><stop offset=".56" stop-color="#fa3fa2"></stop><stop offset=".65" stop-color="#ff42a6"></stop></linearGradient></defs><path d="M175.52 336.54C218.7 466.34 41.37 452.6 41.37 452.6s70.4-100.95 134.15-116.06" class="q" fill="#7ac700"></path><path d="M175.52 336.54C115.96 359.24 41.37 452.6 41.37 452.6s13.06-169.9 134.15-116.06" class="o" fill="#90e300"></path><path d="M288.42 314.61c-85.59 141.06 85.25 180.4 85.25 180.4s-30.72-142.43-85.25-180.4" class="q" fill="#7ac700"></path><path d="M288.42 314.61c47.87 45.74 85.25 180.4 85.25 180.4s46.94-206.43-85.25-180.4" class="o" fill="#90e300"></path><path d="M337.06 219.12C436.31 324.94 512 158.53 512 158.53s-129.11 11.09-174.94 60.59" class="q" fill="#7ac700"></path><path d="M337.06 219.12C387.92 177.31 512 158.53 512 158.53S347.39 82.5 337.06 219.12" class="o" fill="#90e300"></path><path d="M260.94 237.64c51.63 25.77 112.73 123.23 45.57 198.24-3.93 38.91-47.36 42.84-47.36 42.84s-24.06 19.46-57.43.94c-39.85-5.97-43.61-33.62-43.61-33.62s-28.08-18.43-23.81-48.98c-30.81-76.97 61.95-128.35 126.64-159.41Z" fill="url(#1770301555042-4948876_b)"></path><path d="M261.45 238.15c2.99 56.49-69.81 145.58-177.07 131.5 0 0-38.4 9.47-51.37-29.53 0 0-33.03-15.96-24.06-57.43-24.58-51.88 9.3-74.24 9.3-74.24 8.28-31.32 43.86-35.93 43.86-35.93 58.28-48.3 145.07 18.01 199.35 65.62Z" fill="url(#1770301555042-4948876_c)"></path><path d="M261.28 237.64c25.94-63.15 44.89-174.68-21.42-214.96-21.16-33.37-61.53-20.06-61.53-20.06-44.8-4.95-56.32 26.28-56.32 26.28-35.41 8.02-37.55 52.31-37.55 52.31-17.24 35.07 2.82 55.55 2.82 55.55 21.93 84.91 121.26 112.13 174 100.87Z" fill="url(#1770301555042-4948876_d)"></path><path d="M255.56 243.53c94.72-3.07 192.6-31.4 193.37-95.66 0 0 28.16-43.52-11.95-77.66 0 0-5.63-35.07-41.56-37.55 0 0-23.3-30.55-63.4-14.59 0 0-40.88-8.53-57.77 26.97-57.69 45.4-53.16 158.04-18.69 198.49" fill="url(#1770301555042-4948876_e)"></path><path d="M260.94 236.87c36.1-58.63 155.31-59.31 199.77-15.1 40.19 15.87 32.77 53.25 32.77 53.25s26.97 31.15.09 66.73c-1.71 48.56-41.39 54.7-41.39 54.7s-14.34 48.04-67.16 18.6c0 0-40.71-4.86-50.09-38.06-4.35-90.46-62.21-96.34-73.99-140.12" fill="url(#1770301555042-4948876_f)"></path><path d="M77.47 334.41c104.79 3.41 176.56-85.59 176.56-85.59s-72.71 109.4-176.56 85.59" class="t" style="isolation:isolate" fill="#820036" opacity=".2"></path><path d="M61.94 289.35c115.97 16.73 188.25-40.45 188.25-40.45s-71.94 72.02-188.25 40.45" class="t" style="isolation:isolate" fill="#820036" opacity=".2"></path><path d="M64.75 237.04c97.97 23.21 187.48 10.33 187.48 10.33s-93.87 26.71-187.48-10.33m40.2-167.68C128.59 179.79 232.7 233.55 232.7 233.55S108.62 183.71 104.95 69.36" class="t" style="isolation:isolate" fill="#820036" opacity=".2"></path><path d="M144.46 42.3c13.65 125.27 87.21 187.14 87.21 187.14s-87.9-57.94-87.21-187.14" class="t" style="isolation:isolate" fill="#820036" opacity=".2"></path><path d="M195.57 32.75c2.73 108.04 38.15 198.58 38.15 198.58s-49.84-91.82-38.15-198.58m82.1 375.48c33.37-74.41-12.89-153.95-12.89-153.95s61.44 86.62 12.89 153.95" class="t" style="isolation:isolate" fill="#820036" opacity=".2"></path><path d="M232.18 421.79c41.9-83.97 31.49-164.7 31.49-164.7s26.11 90.46-31.49 164.7" class="t" style="isolation:isolate" fill="#820036" opacity=".2"></path><path d="M200.18 386.81c46.34-63.23 62.89-131.76 62.89-131.76s-7.25 76.03-62.89 131.76m113.58-324.2c-66.9 46.17-55.13 154.8-55.13 154.8s-24.06-126.3 55.13-154.8" class="t" style="isolation:isolate" fill="#820036" opacity=".2"></path><path d="M365.99 82.84c-79.79 48.98-105.05 132.87-105.05 132.87s13.65-104.45 105.05-132.87" class="t" style="isolation:isolate" fill="#820036" opacity=".2"></path><path d="M382.97 138.99c-75.18 26.2-122.37 78.94-122.37 78.94s41.22-66.48 122.37-78.94m43.61 159.24c-53.25-65.71-145.93-61.19-145.93-61.19s105.73-14.93 145.93 61.19" class="t" style="isolation:isolate" fill="#820036" opacity=".2"></path><path d="M460.29 262.22c-80.22-59.39-177.67-38.23-177.67-38.23s107.78-34.48 177.67 38.23m-41.31 83.97c-58.2-78-136.37-106.67-136.37-106.67s93.96 19.03 136.37 106.67" class="t" style="isolation:isolate" fill="#820036" opacity=".2"></path><path d="M373.16 358.82c-37.38-72.28-92.59-119.81-92.59-119.81s66.05 42.67 92.59 119.81" class="t" style="isolation:isolate" fill="#820036" opacity=".2"></path><path d="M126.54 84.12c111.19 110.85 122.97 173.92 139.61 161.71 7.17-15.28-94.89-160.69-139.61-161.71" fill="#fa5f7c"></path><path d="M128.24 108.01c-4.86 13.74-25.34 6.49-20.48-7.34 4.86-13.74 25.34-6.49 20.48 7.34m20.82-30.38c-4.86 13.74-25.34 6.49-20.48-7.25 4.78-13.82 25.26-6.49 20.48 7.25" class="p" fill="#fae420"></path><path d="M134.98 125.08c-4.86 13.74-25.34 6.4-20.48-7.34s25.34-6.4 20.48 7.34" class="s" fill="#fef970"></path><path d="M145.57 105.2c-4.52 12.97-23.89 6.14-19.37-6.91 4.52-12.97 23.89-6.06 19.37 6.91" fill="#ffb5c2"></path><path d="M145.99 86c-4.61 13.14-24.24 6.23-19.54-7 4.52-13.14 24.15-6.23 19.54 7" fill="#ffa1b1"></path><path d="M162.72 141.64c-5.8 16.38-30.12 7.68-24.32-8.62 5.72-16.38 30.04-7.68 24.32 8.62" class="p" fill="#fae420"></path><path d="M170.57 132.93c-4.86 13.74-25.34 6.49-20.48-7.34 4.86-13.74 25.34-6.49 20.48 7.34m22.7 26.97c-4.86 13.74-25.34 6.49-20.48-7.34 4.86-13.74 25.34-6.4 20.48 7.34m-25.43-86.02c-4.86 13.82-25.34 6.49-20.48-7.34 4.86-13.74 25.34-6.4 20.48 7.34" class="s" fill="#fef970"></path><path d="M161.35 94.79c-4.86 13.82-25.34 6.49-20.48-7.34 4.86-13.65 25.34-6.4 20.48 7.34" class="m" fill="#ffc2cc"></path><path d="M188.58 136.51c-4.86 13.82-25.34 6.49-20.48-7.34 4.86-13.74 25.34-6.4 20.48 7.34" class="p" fill="#fae420"></path><path d="M193.52 110.49c-4.86 13.82-25.34 6.49-20.48-7.25 4.78-13.82 25.26-6.49 20.48 7.25" class="p" fill="#fae420"></path><path d="M132.85 94.61c-4.86 13.82-25.34 6.49-20.48-7.25 4.86-13.82 25.34-6.49 20.48 7.25" class="m" fill="#ffc2cc"></path><path d="M181.58 119.02c-4.86 13.74-25.34 6.49-20.48-7.34 4.86-13.74 25.34-6.49 20.48 7.34m23.12 12.03c-4.86 13.74-25.26 6.49-20.48-7.34 4.78-13.74 25.26-6.49 20.48 7.34m-25.09 20.48c-4.86 13.74-25.34 6.49-20.48-7.25 4.78-13.82 25.26-6.57 20.48 7.25" class="n" fill="#ffdc82"></path><path d="M186.44 89.75c-5.63 16.04-29.36 7.51-23.81-8.45 5.63-16.04 29.44-7.59 23.81 8.45" class="p" fill="#fae420"></path><path d="M187.81 100.84c-4.61 13.23-24.32 6.23-19.71-7s24.41-6.23 19.71 7m30.21 46.26c-4.69 13.23-24.32 6.23-19.71-7 4.69-13.23 24.41-6.23 19.71 7" class="s" fill="#fef970"></path><path d="M156.74 124.57c-5.63 16.04-29.44 7.51-23.81-8.45 5.72-16.04 29.44-7.59 23.81 8.45" class="n" fill="#ffdc82"></path></g></svg>
