<svg xmlns="http://www.w3.org/2000/svg" data-name="Layer 1" style="" viewBox="0 0 512 512"><g><defs><linearGradient id="1770301555054-9908924_d" x1="17.07" x2="102.39" y1="202.53" y2="202.53" gradientTransform="matrix(1 0 0 -1 0 514)" gradientUnits="userSpaceOnUse"><stop offset="0" stop-color="#ebbb96"></stop><stop offset="1" stop-color="#cf9770"></stop></linearGradient><linearGradient id="1770301555054-9908924_e" x1="0" x2="119.46" y1="10.53" y2="10.53" gradientTransform="matrix(1 0 0 -1 0 514)" gradientUnits="userSpaceOnUse"><stop offset=".51" stop-color="#ebbb96"></stop><stop offset=".66" stop-color="#e7b691"></stop><stop offset=".84" stop-color="#dda983"></stop><stop offset="1" stop-color="#cf9770"></stop></linearGradient><linearGradient id="1770301555054-9908924_f" x1="0" x2="119.46" y1="294.16" y2="294.16" gradientTransform="matrix(1 0 0 -1 0 514)" gradientUnits="userSpaceOnUse"><stop offset="0" stop-color="#ffe1bd"></stop><stop offset=".34" stop-color="#f5cda9"></stop><stop offset=".69" stop-color="#edc09b"></stop><stop offset="1" stop-color="#ebbb96"></stop></linearGradient><linearGradient id="1770301555054-9908924_g" x1="0" x2="119.46" y1="322" y2="322" gradientTransform="matrix(1 0 0 -1 0 514)" gradientUnits="userSpaceOnUse"><stop offset=".12" stop-color="#ffe1bd"></stop><stop offset=".44" stop-color="#fddeba"></stop><stop offset=".68" stop-color="#f9d5b1"></stop><stop offset=".9" stop-color="#f0c5a0"></stop><stop offset="1" stop-color="#ebbb96"></stop></linearGradient><linearGradient id="1770301555054-9908924_j" x1="409.61" x2="494.93" y1="202.53" y2="202.53" gradientTransform="matrix(1 0 0 -1 0 514)" gradientUnits="userSpaceOnUse"><stop offset="0" stop-color="#ebbb96"></stop><stop offset="1" stop-color="#cf9770"></stop></linearGradient><linearGradient id="1770301555054-9908924_k" x1="392.54" x2="512" y1="10.53" y2="10.53" gradientTransform="matrix(1 0 0 -1 0 514)" gradientUnits="userSpaceOnUse"><stop offset=".51" stop-color="#ebbb96"></stop><stop offset=".66" stop-color="#e7b691"></stop><stop offset=".84" stop-color="#dda983"></stop><stop offset="1" stop-color="#cf9770"></stop></linearGradient><linearGradient id="1770301555054-9908924_l" x1="392.54" x2="512" y1="294.16" y2="294.16" gradientTransform="matrix(1 0 0 -1 0 514)" gradientUnits="userSpaceOnUse"><stop offset="0" stop-color="#ffe1bd"></stop><stop offset=".34" stop-color="#f5cda9"></stop><stop offset=".69" stop-color="#edc09b"></stop><stop offset="1" stop-color="#ebbb96"></stop></linearGradient><linearGradient id="1770301555054-9908924_m" x1="392.54" x2="512" y1="322" y2="322" gradientTransform="matrix(1 0 0 -1 0 514)" gradientUnits="userSpaceOnUse"><stop offset=".12" stop-color="#ffe1bd"></stop><stop offset=".44" stop-color="#fddeba"></stop><stop offset=".68" stop-color="#f9d5b1"></stop><stop offset=".9" stop-color="#f0c5a0"></stop><stop offset="1" stop-color="#ebbb96"></stop></linearGradient><radialGradient id="1770301555054-9908924_b" cx="266.35" cy="284.81" r="150.42" fx="266.35" fy="284.81" gradientTransform="matrix(.94 0 0 -.94 -10.55 471.6)" gradientUnits="userSpaceOnUse"><stop offset="0" stop-color="#ffd500"></stop><stop offset=".29" stop-color="#ffd200"></stop><stop offset=".54" stop-color="#ffc700"></stop><stop offset=".77" stop-color="#ffb500"></stop><stop offset="1" stop-color="#ff9c00"></stop></radialGradient><radialGradient id="1770301555054-9908924_c" cx="1422" cy="911.54" r="84.78" fx="1422" fy="911.54" gradientTransform="matrix(.28778 .4687 .80422 -.4867 -921.46 -1.08)" gradientUnits="userSpaceOnUse"><stop offset="0" stop-color="#fff7d1"></stop><stop offset="1" stop-color="#fff7d1" stop-opacity="0"></stop></radialGradient><radialGradient id="1770301555054-9908924_h" cx="676.86" cy="304.14" r="147.49" fx="676.86" fy="304.14" gradientTransform="matrix(.36 0 0 -.47 -188.09 193.67)" gradientUnits="userSpaceOnUse"><stop offset="0" stop-color="#ffd500"></stop><stop offset=".29" stop-color="#ffd200"></stop><stop offset=".54" stop-color="#ffc700"></stop><stop offset=".77" stop-color="#ffb500"></stop><stop offset="1" stop-color="#ff9c00"></stop></radialGradient><radialGradient id="1770301555054-9908924_i" cx="1757.64" cy="1271.66" r="84.83" fx="1757.64" fy="1271.66" gradientTransform="matrix(.10972 .23572 .30553 -.2441 -533.4 -42.7)" gradientUnits="userSpaceOnUse"><stop offset="0" stop-color="#fff7d1"></stop><stop offset="1" stop-color="#fff7d1" stop-opacity="0"></stop></radialGradient><radialGradient id="1770301555054-9908924_n" cx="1773.45" cy="304.14" r="147.49" fx="1773.45" fy="304.14" gradientTransform="matrix(.36 0 0 -.47 -188.09 193.67)" gradientUnits="userSpaceOnUse"><stop offset="0" stop-color="#ffd500"></stop><stop offset=".29" stop-color="#ffd200"></stop><stop offset=".54" stop-color="#ffc700"></stop><stop offset=".77" stop-color="#ffb500"></stop><stop offset="1" stop-color="#ff9c00"></stop></radialGradient><radialGradient id="1770301555054-9908924_o" cx="2729.34" cy="2208.04" r="84.77" fx="2729.34" fy="2208.04" gradientTransform="matrix(.10972 .23572 .30553 -.2441 -533.4 -42.7)" gradientUnits="userSpaceOnUse"><stop offset="0" stop-color="#fff7d1"></stop><stop offset="1" stop-color="#fff7d1" stop-opacity="0"></stop></radialGradient></defs><path d="M85.33 375.47h341.33V512H85.33z" class="ab" fill="#f5d9a6"></path><path d="M375.47 324.27H136.54c-4.69 0-8.53 3.84-8.53 8.53V512h256V332.8c0-4.69-3.84-8.53-8.53-8.53Z" fill="#ffe8bb"></path><path d="M307.2 375.47H204.8c-4.69 0-8.53 3.84-8.53 8.53v128h119.47V384c0-4.69-3.84-8.53-8.53-8.53Z" class="ab" fill="#f5d9a6"></path><path d="M256 418.13s-38.4 11.77-38.4 40.57V512h76.8v-53.3c0-28.8-38.4-40.57-38.4-40.57" class="ad" fill="#785647"></path><path d="M256 425.16s-31.47 11.24-31.47 31.68v55.15h62.93v-55.15c0-20.44-31.46-31.68-31.46-31.68" fill="#b47d56"></path><path d="M221.89 454.09h68.22v3.11h-68.22z" class="ad" fill="#785647"></path><path d="M254.35 456.65h3.3V512h-3.3z" class="ad" fill="#785647"></path><path d="M260.99 479.66h1.68v8.27h-1.68zm-11.66 0h1.68v8.27h-1.68z" fill="#d6a57c"></path><path d="M136.53 298.67h238.93v25.6H136.53z" class="ab" fill="#f5d9a6"></path><path d="M333.82 192.22c-52.53-24.7-77.82-44.21-77.82-44.21s-25.3 19.52-77.8 44.22c-82.19 38.66-56.01 92.18-41.67 106.44h238.93c14.36-14.28 40.51-67.76-41.65-106.44Z" fill="url(#1770301555054-9908924_b)"></path><path d="M282.63 102.4c1.31 8.23-1.13 16.91-7.52 23.27-10.55 10.48-27.69 10.48-38.25 0-6.38-6.32-8.82-15.04-7.5-23.26-6.25 11.45-4.63 26.02 5.1 35.7 11.9 11.81 31.16 11.81 43.05 0 9.75-9.69 11.35-24.25 5.11-35.71Z" class="aa" fill="#ffd710"></path><path d="M248.76 262.65c-37.76 22.87-79.33 23.53-92.83 1.51-13.52-22.02 6.11-58.41 43.85-81.25 37.78-22.87 79.33-23.54 92.84-1.54 13.55 22.06-6.11 58.44-43.87 81.28Z" style="isolation:isolate" opacity=".5" fill="url(#1770301555054-9908924_c)"></path><path d="M248.41 146.01h15.16v7.54h-15.16z" class="al" fill="#ffb33b"></path><path d="M349.87 426.67q-17.07 17.08-17.07 34.12v17.08h34.13v-17.08q0-17.05-17.07-34.12Z" class="aj" fill="#cf9770"></path><path d="M349.87 433.07q-12.8 12.81-12.8 25.59v14.87h25.6v-14.87q0-12.78-12.8-25.59" class="ak" fill="#45332c"></path><path d="M162.13 426.67q-17.07 17.08-17.07 34.12v17.08h34.13v-17.08q0-17.05-17.07-34.12Z" class="aj" fill="#cf9770"></path><path d="M162.13 433.07q-12.8 12.81-12.8 25.59v14.87h25.6v-14.87q0-12.78-12.8-25.59" class="ak" fill="#45332c"></path><path d="M17.07 110.93h85.32V512H17.07z" fill="url(#1770301555054-9908924_d)"></path><path d="M0 494.93h119.46V512H0z" fill="url(#1770301555054-9908924_e)"></path><path d="M102.39 234.67H17.07L0 209.07s59.05-9.11 119.46 0z" fill="url(#1770301555054-9908924_f)"></path><path d="M59.73 123.73q-17.07 15.17-17.07 30.34v37.92h34.13v-37.92q0-15.17-17.07-30.34Z" class="ak" fill="#45332c"></path><path d="M102.39 174.93v8.54H85.33v-8.54H68.27v8.54H51.2v-8.54H34.13v8.54H17.07v-8.54H0v34.14h119.46v-34.14z" fill="url(#1770301555054-9908924_g)"></path><path d="M17.07 98.13h85.33v12.8H17.07z" class="ab" fill="#f5d9a6"></path><path d="M89.22 44.92C69.31 32.56 59.73 22.81 59.73 22.81s-9.6 9.75-29.5 22.11C-.91 64.24 11.63 91.01 17.07 98.13h85.33c5.44-7.14 17.96-33.89-13.18-53.21" fill="url(#1770301555054-9908924_h)"></path><path d="M74.71 0c.74 4.1-.63 8.46-4.22 11.63-5.94 5.25-15.57 5.25-21.52 0C45.38 8.47 44 4.11 44.75.01c-3.52 5.73-2.61 13 2.87 17.85 6.7 5.9 17.53 5.9 24.22 0 5.49-4.84 6.39-12.13 2.88-17.85Z" class="aa" fill="#ffd710"></path><path d="M56.99 80.13c-14.31 11.43-30.06 11.77-35.18.76-5.13-11.02 2.31-29.21 16.61-40.64 14.32-11.43 30.07-11.78 35.19-.77 5.14 11.03-2.31 29.22-16.62 40.64Z" style="isolation:isolate" fill="url(#1770301555054-9908924_i)" opacity=".5"></path><path d="M56.86 21.81h5.75v3.77h-5.75z" class="al" fill="#ffb33b"></path><path d="M409.61 110.93h85.32V512h-85.32z" fill="url(#1770301555054-9908924_j)"></path><path d="M392.54 494.93H512V512H392.54z" fill="url(#1770301555054-9908924_k)"></path><path d="M494.93 234.67h-85.32l-17.07-25.6s59.05-9.11 119.46 0z" fill="url(#1770301555054-9908924_l)"></path><path d="M452.28 123.73q-17.07 15.17-17.07 30.34v37.92h34.13v-37.92q0-15.17-17.07-30.34Z" class="ak" fill="#45332c"></path><path d="M494.93 174.93v8.54h-17.05v-8.54h-17.07v8.54h-17.07v-8.54h-17.06v8.54h-17.07v-8.54h-17.07v34.14H512v-34.14z" fill="url(#1770301555054-9908924_m)"></path><path d="M409.61 98.13h85.33v12.8h-85.33z" class="ab" fill="#f5d9a6"></path><path d="M481.77 44.92c-19.91-12.36-29.5-22.11-29.5-22.11s-9.58 9.76-29.48 22.11c-31.16 19.33-18.62 46.09-13.18 53.21h85.33c5.44-7.14 17.96-33.89-13.18-53.21Z" fill="url(#1770301555054-9908924_n)"></path><path d="M467.25 0c.75 4.1-.63 8.46-4.22 11.63-5.94 5.24-15.58 5.24-21.52 0-3.6-3.16-4.97-7.52-4.23-11.62-3.51 5.73-2.6 13 2.88 17.85 6.69 5.9 17.53 5.9 24.23 0 5.49-4.84 6.38-12.13 2.87-17.85Z" class="aa" fill="#ffd710"></path><path d="M449.53 80.13c-14.31 11.43-30.06 11.77-35.17.76-5.14-11.02 2.31-29.21 16.61-40.64 14.32-11.43 30.06-11.78 35.18-.77 5.14 11.03-2.32 29.22-16.62 40.64Z" style="isolation:isolate" opacity=".5" fill="url(#1770301555054-9908924_o)"></path><path d="M449.4 21.81h5.75v3.77h-5.75z" class="al" fill="#ffb33b"></path></g></svg>
