<svg xmlns="http://www.w3.org/2000/svg" id="a" data-name="Layer 1" viewBox="0 0 512 512"><defs><linearGradient id="b" x1="256" x2="256" y1="2" y2="360.4" gradientTransform="matrix(1 0 0 -1 0 514)" gradientUnits="userSpaceOnUse"><stop offset="0" stop-color="#637682"/><stop offset="1" stop-color="#4e5e67"/></linearGradient><linearGradient id="c" x1="102.4" x2="119.47" y1="407.33" y2="407.33" gradientTransform="matrix(1 0 0 -1 0 514)" gradientUnits="userSpaceOnUse"><stop offset=".15" stop-color="#cfd8dd"/><stop offset=".41" stop-color="#c3cdd2"/><stop offset=".88" stop-color="#a3b0b6"/><stop offset="1" stop-color="#99a8ae"/></linearGradient><linearGradient id="d" x1="392.53" x2="409.6" y1="407.33" y2="407.33" gradientTransform="matrix(1 0 0 -1 0 514)" gradientUnits="userSpaceOnUse"><stop offset=".15" stop-color="#cfd8dd"/><stop offset=".41" stop-color="#c3cdd2"/><stop offset=".88" stop-color="#a3b0b6"/><stop offset="1" stop-color="#99a8ae"/></linearGradient><style>.o{fill:#fff}.p{fill:#bec3cf}.q{fill:#4e5e67}</style></defs><path d="M0 153.6h512V512H0z" style="fill:#92c932"/><path d="M401.07 128c-51.2 21.3-110.93 0-119.47 0-27.15 0-52.7 18.42-68.27 17.07-16.18-1.41-43.49-17.07-59.73-17.07-7.06 0-25.34 11.54-42.67 8.53-7.59-1.31-43.52-17.07-51.2-17.07C48 119.46 0 136.53 0 136.53v17.07h512V128s-39.82-17.07-51.2-17.07c-9.6 0-43.96 10.51-59.73 17.07" style="fill:#c5dca8"/><path d="M273.07 153.6h-34.14L0 324.27V512h512V324.27z" style="fill:url(#b)"/><path d="M0 358.4v34.13L238.93 153.6zm512 0v34.13L273.07 153.6z" style="fill:#ffe463"/><path d="M110.93 25.6h290.13v17.07H110.93zm0 59.73h290.13v17.07H110.93z" class="p"/><path d="M34.13 179.2c81.07-25.6 187.73-25.6 187.73-25.6H0v136.53s62.69-48.41 119.47-76.8c34.13-17.07-105.08-27.9-85.33-34.13Zm452.27 0c23.22 11.6-86.61 7.25-68.27 25.6C474.31 260.98 512 324.27 512 324.27L273.07 153.6s164.98 1.43 213.33 25.6" style="fill:#7ab51d"/><path d="M85.33 209.07v8.53h34.14l17.06-8.53v-8.54z" class="q"/><path d="m102.4 200.53-17.07 8.54h34.14l17.06-8.54z" class="p"/><path d="M136.53 0h238.93v119.47H136.53z" style="fill:#529320"/><path d="M110.93 8.53c-4.71 0-8.53 3.82-8.53 8.53v187.73h17.07V17.07c0-4.71-3.82-8.53-8.53-8.53Z" style="fill:url(#c)"/><path d="M426.67 209.07v8.53h-34.14l-17.06-8.53v-8.54z" class="q"/><path d="m409.6 200.53 17.07 8.54h-34.14l-17.06-8.54z" class="p"/><path d="M401.07 8.53c-4.72 0-8.53 3.82-8.53 8.53v187.73h17.07V17.07c0-4.71-3.81-8.53-8.53-8.53Z" style="fill:url(#d)"/><path d="M273.07 51.2h76.8v17.07h-76.8zm0-34.13h76.8v17.07h-76.8zm0 68.26h76.8v17.07h-76.8zm-73.96 238.94L221.87 256h-9.76l-29.24 68.27zm27.62-102.4h6.51l11.39-34.14h-3.25zm-65.82 153.6L102.4 512h34.13l45.51-136.53zm89.4-204.8L256 153.6l-7.32 17.07zm78.82 153.6L299.89 256h-9.76l22.77 68.27zm-50.36-102.4h6.5l-14.64-34.14h-3.25zm-15.46-51.2L256 153.6l5.69 17.07zm87.78 204.8h-21.12L375.47 512h34.13z" class="o"/><path id="e" d="M204.8 27.73c17.65 0 32 14.36 32 32s-14.35 32-32 32-32-14.36-32-32 14.36-32 32-32m0-10.66c-23.55 0-42.67 19.11-42.67 42.67s19.11 42.67 42.67 42.67 42.67-19.11 42.67-42.67-19.11-42.67-42.67-42.67" class="o" data-name="Shape"/><path id="f" d="M213.34 64.01c-1.43 0-2.14-.72-2.14-2.13v-4.27c0-1.43.72-2.15 2.14-2.15h13.86c1.43 0 2.15.72 2.15 2.15v2.12c0 13.56-10.98 24.54-24.54 24.54-6.58 0-12.77-2.63-17.33-7.19-1.02-1.02-1.02-2-.02-3.02l4.55-4.52c1-1 2-1 3 0 2.59 2.59 6.08 4.07 9.8 4.07 6.17 0 11.39-4.02 13.21-9.6z" class="o" data-name="Combined-Shape"/></svg>