<svg xmlns="http://www.w3.org/2000/svg" data-name="Layer 1" style="" viewBox="0 0 512 426.66"><g><defs><linearGradient id="1770301555055-2163883_b" x1="256" x2="256" y1="-8" y2="387.64" gradientTransform="matrix(1 0 0 -1 0 418.66)" gradientUnits="userSpaceOnUse"><stop offset="0" stop-color="#288f28"></stop><stop offset=".09" stop-color="#3f8636"></stop><stop offset=".2" stop-color="#567c45"></stop><stop offset=".32" stop-color="#66754f"></stop><stop offset=".45" stop-color="#707155"></stop><stop offset=".63" stop-color="#737057"></stop></linearGradient><linearGradient id="1770301555055-2163883_c" x1="342.07" x2="342.07" y1="-8" y2="335.59" gradientTransform="matrix(1 0 0 -1 0 418.66)" gradientUnits="userSpaceOnUse"><stop offset="0" stop-color="#1a5e1a"></stop><stop offset=".06" stop-color="#22591c"></stop><stop offset=".22" stop-color="#324e20"></stop><stop offset=".4" stop-color="#3c4722"></stop><stop offset=".63" stop-color="#3f4523"></stop></linearGradient></defs><path d="M467.99 279.68c-1.55-14.82-46.46-114.48-46.46-114.48s-2.76-80.32-128.1-49.64C334.15 177.02 420.47 256.69 468 279.68Z" class="h" fill="#474d2c"></path><path d="M343.95 144.28s33.59-12.4 46.22 7.9c30.28 52.88 14.85-8.84 14.85-8.84l27.52 46.63s-5.5-44.63-44.07-104.42c-9.16-8.21-24.94-43.47-31.5-50.51-1.95-.58-39.42 86.29-39.42 86.29l26.42 22.95Z" class="g" fill="#cfd8dd"></path><path d="M280.53 130.4c64.63-57.63 76.63-31.44 94.02-25.25 9.34 3.32-6.45-25.95-18.71-32.38-5.44-2.85 4.14-26.34 1.12-37.73-2.11-.64-65.57 72.83-76.42 95.37Z" class="j" fill="#e6ebef"></path><path d="M58.08 261.3c1.1-11.72 14.84-24.81 23.42-54.48 4.42-17.24 14.52-34.06 14.52-34.06s1.14-63.84 108.65-32.16C170.84 187.22 98.32 245.72 58.08 261.3" class="h" fill="#474d2c"></path><path d="M184.19 143.81s-33.34-71.37-35-71.04c-5.5 5.24-12.4 19.57-13.62 21.15-4.98 6.54-11.68 13.09-15.48 21.04-25.1 31.04-24.07 57.8-24.07 57.8l13.77-16.45s-12.24 48.28 12.82 7.9c10.49-15.46 39.36-3.64 39.36-3.64l22.23-16.77Z" class="j" fill="#e6ebef"></path><path d="M149.19 72.76c-2.4 8.92 2.17 23.36-.68 27.21 0 0-13.4 19.75-13.29 27.65 0 0 16.46-11.21 17.37-6.14 1.82 10.15 14.4 16.89 16.22 21.3 7.36 17.84 35.53-.29 47.12 10.37-9.61-18.57-64.95-80.75-66.74-80.38Z" class="g" fill="#cfd8dd"></path><path d="M.33 331.33c46.45-55.26 90.32-114.42 131.16-161.01 82.26-89.5 149.98-139.29 149.98-139.29L512 331.33c-9.42 22.03-71.3 34.83-87.29 52.61-20.28 12.09-97.18 17.77-97.18 17.77l-90.93 24.95s-70.13-12.53-88.34-34.19l-75.21-12.8S-5.69 338.5.33 331.33" fill="url(#1770301555055-2163883_b)"></path><path d="m259.3 83.07-37.91 98.1-49.24 82.02 81.24-85.08-37.44 97.42-11.26 72.77 65.19-72.77-33.27 151.12 90.93-24.95V292.47l97.18 91.45-95.68-158.09 10.9-56.65S454.92 327.4 512 331.31c-2-23.85-39.2-57.98-61.46-99.4-18.4-17.61-60.72-64.9-60.72-64.9L259.3 83.04Z" fill="url(#1770301555055-2163883_c)"></path><path d="m164.21 174.28-12.35 34.92L29.14 318.11l137.59-79.6 19.32-62.95 47.81-63.88z" class="h" fill="#474d2c"></path><path d="M148.26 289.39c-49.51 25.31-75.21 90.28-75.21 90.28l75.21 12.8s-20.63-81.13 0-103.08" fill="#3b5216"></path><path d="M327.11 161.84C316.7 118.89 275.63 0 271.85 0c-1.77 0-37 43.3-55.91 57.96-34.74 53.75-94.86 98.13-113.03 146.21-5.01 13.27 79.26-79.8 61.3-29.88-10.57 29.4 37.87-28.42 35.43-14.28-5.89 34.08-10.97 73.47-1.16 59.31 17.46-25.18 44.17-26.95 57.51-56 6.61-14.39 42.96 67.17 48.89 46.8 10.68-36.61 13.88-44.25 22.23-48.28" class="j" fill="#e6ebef"></path><path d="M315.29 52.27C293.43 37.34 287.56 8.54 271.85 0c1.84 35.03-24.29 59.73-30.16 93.06-2.59 14.69 53.69-41.73 49.94-32.68-8.6 20.68-15.75 46.16-1.4 52.58 17.72 7.94 16.26 29.97 36.88 48.88 13.52 1.09 37.49-6.93 84.18 32.29 34.65 29.08-73.04-117.33-96-141.87Z" class="f" fill="#b3c2c6"></path><path d="M215.28 282.01s-2.3-44.73 33.55-92.04c-5.09 49.16-33.55 92.04-33.55 92.04" class="g" fill="#cfd8dd"></path><path d="M230.58 161.42s1.46-34.88 30.58-58.67c-10.32 29.02-30.58 58.67-30.58 58.67m199.94 114.95s-106.85-86.4-90.59-107.17c54.2 30.93 90.59 107.17 90.59 107.17" class="f" fill="#b3c2c6"></path><path d="M145.8 276.37s35.2-22.14 73.22-62.27c-36.61 59.33-73.22 62.27-73.22 62.27m-68.6-3.17s58.03-49.24 77.87-73.07c-8.1 49.82-77.87 73.07-77.87 73.07" class="g" fill="#cfd8dd"></path></g></svg>
