<svg xmlns="http://www.w3.org/2000/svg" data-name="Layer 1" viewBox="0 0 512 512"><g><defs></defs><path d="M401.07 59.73h102.4v452.26h-102.4zm-392.53 0h102.4v452.26H8.54z" fill="#cfd8dd"></path><path d="M110.94 51.2h290.13V512H110.94z" fill="#e6ebef"></path><path d="M59.74 0h392.53v8.53H59.74z" class="e" fill="#6e8189"></path><path d="M59.74 8.53h392.53v34.13H59.74z" class="b" fill="#b3c2c6"></path><path d="M354.13 409.6H157.86a4.28 4.28 0 0 0-4.27 4.27V512h204.8v-98.13a4.28 4.28 0 0 0-4.27-4.27Z" class="f" fill="#99a8ae"></path><path d="M162.13 439.46h38.4v72.53h-38.4zm42.67-21.33h102.4v17.07H204.8zm0 21.33h49.07v72.53H204.8zm-42.67-21.33h38.4v17.07h-38.4zm149.34 0h38.4v17.07h-38.4zm0 21.33h38.4v72.53h-38.4zm-53.34 0h49.07v72.53h-49.07z" class="j" fill="#302c3b"></path><path d="M267.27 468.03v11.14a.773.773 0 0 0 1.54 0v-11.14a.773.773 0 0 0-1.54 0m-22.55 0v11.14a.764.764 0 0 1-1.52 0v-11.14a.764.764 0 0 1 1.52 0" fill="#fff"></path><path d="M401.07 51.2h106.67v8.53H401.07z" class="b" fill="#b3c2c6"></path><path d="M401.07 34.13H512V51.2H401.07z" class="i" fill="#4e5e67"></path><path d="M4.27 51.2h106.67v8.53H4.27z" class="b" fill="#b3c2c6"></path><path d="M0 34.13h110.93V51.2H0z" class="i" fill="#4e5e67"></path><path d="M106.67 42.67h298.67v8.53H106.67z" class="b" fill="#b3c2c6"></path><path d="M401.07 358.4H512V384H401.07z" class="i" fill="#4e5e67"></path><path d="M401.07 384h106.67v8.53H401.07z" class="b" fill="#b3c2c6"></path><path d="M0 358.4h110.93V384H0z" class="i" fill="#4e5e67"></path><path d="M4.27 384h106.67v8.53H4.27z" class="b" fill="#b3c2c6"></path><path d="M102.4 349.87h307.2v25.6H102.4z" class="e" fill="#6e8189"></path><path d="M106.67 375.46h298.67v8.53H106.67z" class="b" fill="#b3c2c6"></path><path d="M102.4 17.07h307.2v25.6H102.4z" class="e" fill="#6e8189"></path><path d="M132.27 68.27h247.47V128H132.27z" class="f" fill="#99a8ae"></path><path d="M136.54 72.53h238.93v51.2H136.54z" class="j" fill="#302c3b"></path><path d="M314.67 68.27h4.27V128h-4.27zm-60.8 0h4.27V128h-4.27zm-60.8 0h4.27V128h-4.27z" class="f" fill="#99a8ae"></path><path d="M132.27 87.47h247.47v4.27H132.27zm0 78.93h247.47v59.73H132.27z" class="f" fill="#99a8ae"></path><path d="M136.54 170.67h238.93v51.2H136.54z" class="j" fill="#302c3b"></path><path d="M314.67 166.4h4.27v59.73h-4.27zm-60.8 0h4.27v59.73h-4.27zm-60.8 0h4.27v59.73h-4.27z" class="f" fill="#99a8ae"></path><path d="M132.27 185.6h247.47v4.27H132.27zM419.74 76.8h65.07v59.73h-65.07z" class="f" fill="#99a8ae"></path><path d="M424 81.07h56.53v51.2H424z" class="j" fill="#302c3b"></path><path d="M419.74 96h65.07v4.27h-65.07zm0 78.93h65.07v59.73h-65.07z" class="f" fill="#99a8ae"></path><path d="M424 179.2h56.53v51.2H424z" class="j" fill="#302c3b"></path><path d="M419.74 194.13h65.07v4.27h-65.07zm0 215.47h65.07v59.73h-65.07z" class="f" fill="#99a8ae"></path><path d="M424 413.86h56.53v51.2H424z" class="j" fill="#302c3b"></path><path d="M419.74 428.8h65.07v4.27h-65.07zM27.21 76.8h65.07v59.73H27.21z" class="f" fill="#99a8ae"></path><path d="M31.47 81.07H88v51.2H31.47z" class="j" fill="#302c3b"></path><path d="M27.21 96h65.07v4.27H27.21zm0 78.93h65.07v59.73H27.21z" class="f" fill="#99a8ae"></path><path d="M31.47 179.2H88v51.2H31.47z" class="j" fill="#302c3b"></path><path d="M27.21 194.13h65.07v4.27H27.21zm105.06 70.4h247.47v59.73H132.27z" class="f" fill="#99a8ae"></path><path d="M136.54 268.8h238.93V320H136.54z" class="j" fill="#302c3b"></path><path d="M314.67 264.53h4.27v59.73h-4.27zm-60.8 0h4.27v59.73h-4.27zm-60.8 0h4.27v59.73h-4.27z" class="f" fill="#99a8ae"></path><path d="M132.27 283.73h247.47V288H132.27zm287.47-10.66h65.07v59.73h-65.07z" class="f" fill="#99a8ae"></path><path d="M424 277.33h56.53v51.2H424z" class="j" fill="#302c3b"></path><path d="M419.74 292.27h65.07v4.27h-65.07zm-392.53-19.2h65.07v59.73H27.21z" class="f" fill="#99a8ae"></path><path d="M31.47 277.33H88v51.2H31.47z" class="j" fill="#302c3b"></path><path d="M27.21 292.27h65.07v4.27H27.21zm0 117.33h65.07v59.73H27.21z" class="f" fill="#99a8ae"></path><path d="M31.47 413.86H88v51.2H31.47z" class="j" fill="#302c3b"></path><path d="M27.21 428.8h65.07v4.27H27.21z" class="f" fill="#99a8ae"></path><path d="M418.85 486.67a8.616 8.616 0 0 0-10.21 2.8c-2.2-1.25-9.08-.48-9.51 6.62-1.9 1.23-4.55 5.38-2.71 8.49-6.18 1.39-3.12 7.42-3.12 7.42h49.07s4.79-5.25-1.2-8.91c1.33-2.67-1.43-9.48-6.66-9.54 1.45-1.55-2.33-4-5.2-4.33-1.57-3.78-6.32-5.55-10.44-2.55Zm67.83 4.57c-6.65-2-10.21 2.3-10.21 2.3-2.2-1.02-9.08-.38-9.51 5.44-1.9 1-4.55 4.4-2.71 6.95-6.17 1.13-3.12 6.07-3.12 6.07h49.07s4.79-4.31-1.2-7.3c1.33-2.18-1.43-7.77-6.66-7.83 1.45-1.27-2.33-3.28-5.2-3.54-1.57-3.11-6.31-4.55-10.44-2.1Z" class="d" fill="#7ab51d"></path><path d="M452.77 491.42c-6.65-1.98-10.21 2.28-10.21 2.28-2.2-1.02-9.08-.38-9.51 5.38-1.9.99-4.55 4.38-2.71 6.91-6.18 1.11-3.12 6.01-3.12 6.01h49.07s4.79-4.27-1.2-7.25c1.33-2.15-1.43-7.69-6.66-7.75 1.45-1.25-2.33-3.25-5.2-3.52-1.57-3.06-6.32-4.5-10.44-2.07Z" class="g" fill="#92c932"></path><path d="M93.15 486.67a8.61 8.61 0 0 1 10.21 2.8c2.2-1.25 9.08-.48 9.52 6.62 1.89 1.23 4.55 5.38 2.71 8.49 6.17 1.39 3.12 7.42 3.12 7.42H69.64s-4.79-5.25 1.2-8.91c-1.33-2.67 1.44-9.48 6.67-9.54-1.45-1.55 2.33-4 5.2-4.33 1.56-3.78 6.31-5.55 10.43-2.55Zm-67.84 4.57c6.66-2 10.21 2.3 10.21 2.3 2.2-1.02 9.08-.38 9.52 5.44 1.89 1 4.55 4.4 2.71 6.95 6.18 1.13 3.12 6.07 3.12 6.07H1.81s-4.79-4.31 1.2-7.3c-1.33-2.18 1.44-7.77 6.67-7.83-1.45-1.27 2.33-3.28 5.2-3.54 1.57-3.11 6.32-4.55 10.43-2.1Z" class="d" fill="#7ab51d"></path><path d="M59.23 491.42c6.66-1.98 10.21 2.28 10.21 2.28 2.2-1.02 9.08-.38 9.52 5.38 1.89.99 4.55 4.38 2.71 6.91 6.17 1.11 3.12 6.01 3.12 6.01H35.72s-4.79-4.27 1.2-7.25c-1.33-2.15 1.44-7.69 6.67-7.75-1.45-1.25 2.33-3.25 5.2-3.52 1.56-3.06 6.31-4.5 10.43-2.07Z" class="g" fill="#92c932"></path></g></svg>
