<svg xmlns="http://www.w3.org/2000/svg" data-name="Layer 1" style="" viewBox="0 0 512 819.18"><g><defs><linearGradient id="1770301555079-3658563_c" x1="34.27" x2="120.08" y1="767.12" y2="767.12" gradientTransform="matrix(1 0 0 -1 0 821.18)" gradientUnits="userSpaceOnUse"><stop offset="0" stop-color="#ffe14d"></stop><stop offset=".65" stop-color="#ffc418"></stop><stop offset="1" stop-color="#ffb700"></stop></linearGradient><linearGradient id="1770301555079-3658563_d" x1="258.71" x2="258.71" y1="2" y2="720.49" gradientTransform="matrix(1 0 0 -1 0 821.18)" gradientUnits="userSpaceOnUse"><stop offset="0" stop-color="#5dcfbe"></stop><stop offset="1" stop-color="#9ef2e6"></stop></linearGradient><radialGradient id="1770301555079-3658563_b" cx="160.5" cy="780.51" r="63.44" fx="160.5" fy="780.51" gradientTransform="matrix(.89 0 0 -.85 -56.71 706.45)" gradientUnits="userSpaceOnUse"><stop offset="0" stop-color="#ffe14d"></stop><stop offset=".25" stop-color="#ffdf4a"></stop><stop offset=".47" stop-color="#ffd93f"></stop><stop offset=".68" stop-color="#ffcf2d"></stop><stop offset=".88" stop-color="#ffc214"></stop><stop offset="1" stop-color="#ffb700"></stop></radialGradient></defs><path d="M87.49 89.45C136.64 77.17 138.55 19.46 149.98 0c-28.94 16.2-36.57 5.75-56.36 20.02C89.18 23.21 66.1 4.21 62.36 7.18c-4.39 3.48-5.71 22.02-20.56 34.28-54.58 45.06 26.28 58.29 45.68 47.99Z" fill="url(#1770301555079-3658563_b)"></path><path d="M72.72 97.66s-.83-68.47 47.36-87.21c-41.71 0-56.96 45.44-77.53 12.98-29.73 45.8 30.17 74.23 30.17 74.23" fill="url(#1770301555079-3658563_c)"></path><path d="M37.04 87.72c10.41-10.48 48.51-10.48 58.92 0 22.87 23.04-81.8 23.04-58.92 0" fill="#115e5e"></path><path d="M427.7 686.94s-36.36-41.13-32.74-145.8c0 0 8.76-22.44-5.63-44.7 35.01-4.36 122.66-9.08 122.66-9.08L383.8 471.12l111.35-47.3-135.9 22.04 68.65-79.08-103.12 64.79-20.21-102.41-18.46 105.21-102.04-63.73 69.48 73.05-115.31 7.68c-61.27-183.82-29.52-238.1-49.69-279.74l37.68-12.47-25.75-58.5-79.64 3.07c-29.58 56.84-10.59 66.89 7.49 71.28 7.32 67.1-7.99 88.32 14.35 107.02 22 32.91 2.89 111.53 30.62 213.19-1.52 6.31-75.9 149.94-2.24 162.51 53.89 50.67 10.15 57.45 46.86 150.97 0 0 60.49 10.44 182.91 10.44 146.33 0 196.61-13.59 196.61-13.59-27.99-86.94-14.58-100.58-69.72-118.64ZM211.23 572.99c-31.94 1.28-24.17-74.19-24.17-74.19l33.6-2.78c35.61 35.08-9.43 76.97-9.43 76.97m21.81-105.23-67.39 16.06-16.37-25.51z" fill="url(#1770301555079-3658563_d)"></path><path d="M186.65 815.72c14.52 1.83 34.73 1.93 34.73 1.93s37-40.31 49.96-123.49c-19.47 48.55-84.68 121.56-84.68 121.56Z" fill="#198787"></path><path d="M432.12 685.74c-1.19-30.26-37.73-54.09-35.02-142.64 1.13-3.71 12.68-2.15 7-45.38 34.97-4.35 107.9-10.37 107.9-10.37l-107.65-.83c.17-10.93-4.48-21.22-4.48-21.22 31.12-14.45 95.28-41.47 95.28-41.47l-98.6 30.95s-5.67-13.48-21.9-23.18c16.87-21.57 53.25-64.81 53.25-64.81l-68.31 56.65s-13.77-7.65-34.51-9.68l-20.51-84.59-4.57 84.77s-25.1 3.42-39.07 10.79l-76.86-54.08 59.46 66.89c-11.53 8.04-20.56 17.8-20.56 17.8l-71.13-4.3c-9.52-67.94-37.73-112.51-51.02-184.31 15.54-19.93-11.57-50.48 7.45-84.88 30.23 1.38 53.54-19.57 17.34-55.59 8.28-10.02 6.64-32.6-54.76-32.6-67.32.02-72.67 14.5-64.07 34.2-14.72 15.99-3.46 49.6 14.62 54.02 4.24 7.37-.91 17.05 8.58 26.59-4.22 1.06-9.54 18.93-2.53 33.02-4.88 16.61-2.33 33.43 15.87 42.5 20.25 106.71-9.66 108.4 25.33 216.1-56.98 73.78-50.96 172.68 6.13 168.79-10.01 42.91 10.05 54.12 23.85 64.84-10.41 17.6-10.28 35.85 4.17 42.78 0 0-9.46 9.57-9.46 22.45 0 9.33 56.74 13.93 56.74 13.93s52.2-60.54 71.51-193.52c-46.23 123.62-110.92 147.99-110.92 147.99-5.09-76.56 92.47-158.41 121.71-212.09 2.18-4.01 3.65-8.81 4.84-14.17 2.21.97 4.71 1.69 7.32 2.27 1 7.67 1.83 20.16 10.33 15.64 3.12-1.68-6.9-18.24-6.9-18.24l6.05-5.22s4.53 9.89 7.74 13.9c4.7-8.47 1.11-21.94 0-32.13 8.44-24.23 37.08-22.17 49.93-41.92 6.68 16.69 42.67 6.77 44.85 28.02-21.99-3.08-29.13 2.69-32.74 8.7-2.07 13.96 7.59 41.19-2.59 41.69-7.24.31-16.77-5.7-18.96 3.47-1.04 4.36 17.36.04 18.09 4.34 1.04 6.12-4.53 5.48-7.73 3.47-3.25 3.44-12.94 8.69-12.94 8.69 12.33 1.32 33.95-7.48 27.57.87-4.1 5.38-18.39 0-23.27 4.35 4.53 5.73 22.39 6.08 29.31 1.37 3.7-2.47 4.12-6.77 6.89-10.06-6.64-1.42-13.4-2.71-13.8-10.42 16.59-.17 5.15-8.81 5.15-8.81v-23.58s22.83-.04 26.93 8.92c7.31 16.19-1.97 32.54-15.3 59.57-4.79 9.73-47.51 20.35-71.94-10.97-2 23.47 22.03 42.74 33.63 59.03 19.37 27.34 2.66 62.4-31.03-1.74 8.79 35.84 34.01 69.57 69.81 57.33-25.59 2.56-40.83-20.42-15.44-17.38 3.57-51.22 33.48-60.34 50.78-148.49l5.48 7.01s-4.3 15.94-2.02 17.32c4.34 2.62 7.77-1.2 10.09-6.11-.44 3.93-.97 7.78-1.59 11.61-.56 1.6-5.61 14.91-16.27 8.38-10.11 27.25 8.91 98.7-5 100.22-11.83 1.27-6.18-60.3-6.18-60.3s-24.05 46.98-31.04 70.34c9.86 10.59 61.39 19.87 81.64-1.48 9.79 9.01 22.51 18.15 38.94 27.49-70.4-10.39-118.46 7.12-118.46 7.12s17.38 34.66-26.52 102.28c0 0 38.51-15.87 73.05-84.15 0 0 85.38-17.06 106.23 74.33 0 0 21.06-3.23 21.06-8.9-.01-28.48-4.31-98.12-76.24-113.19ZM86.11 106.16c2.83.32 3.43 10.29.63 10.5-107.3 8-71.53-19.12-.63-10.5m-75.2 52.46c-13.9-51.61 91.77-31.1 107.69-6.81-54.85-7.37-69.75-.44-107.69 6.81m66.01 41.65c-.7-10.62 10.55-7.62 16.56 23.33 6.67 34.38-14.25 13.67-16.56-23.33m-30.23 74.44c-17.57-5.89-15.04-25.25-10.8-35.34-5.72-15.77-1.68-27.48.42-29.03-8.6-13.15-4.24-20.2-6.36-34.3 19.28 1.89 2.12 21.04 18 35.35 4.86 2.09 19.48-5.89 26.05 4.42-9.52 6.95-22.66-.83-30.55 9.47 11.48.2 33.09-.01 32.4 13-12.88 2.97-21.15-6.62-30.86 1.51 17.98 1.04 31.24 10.92 25.11 17.22-11.87-.83-14.31-7.13-26.19-5.64.03 0 1.52 14.85 2.79 23.35Zm3.88 14.85s25.88-7.81 26.83 1.01c5.76 54.04-24.55 45.7-26.83-1.01m14.96 365.05c-28.99-140.76 19.85-76.4 46.07-61.57-36.45-95.73-58.78-129.93-52.84-241.33 47.72-4.2 7.63 67.6 76.59 201.02 23.3-83.56 25.04 57.79-69.82 101.87ZM336.78 514.2c4.61-7.83 19.15-4.6 19.7-.31.56 4.02-9.38-3.06-19.7.31m-183.52-54.07 68.65 7.77s-3.29 7.32-2.18 12.67l-44.06 4.19c-12.36-4.11-22.41-24.63-22.41-24.63m57.44 111.5c-26.38-3.93-6.3-55.28-20.71-70.66l30.54-1.95c7.4 19.47-6.69 28.74 6.99 46.66-5 9.23-12.63 16-16.82 25.95m150.15-83.9c-17-8.27-43.47-9.73-49.46-29.39-3.83 16.96-25.07 18.65-38.43 29.39-10.34 8.29-12.76 20.98-29.31 16.5.46 5.3 4.76 6.76 7.73 9.56-6.23 2.87-8.9 9.34-12.33 15.07.59-6.12 1.01-12.77 1.08-20.77.5-59.11 92.18-95.24 135.27-32.1-.44 2.1-4.02 16.88-14.55 11.75Z" class="j" fill-rule="evenodd" fill="#198787"></path><path d="M309.12 520.74c-.96 6.23-10.84 11.64-22.4 11.29 2.3-1.45 5.22-2.28 7.77-3.47-9.93.12-21.23-1.88-26.74-8.69 7.96-2.98 13.12-8.77 24.15-8.69-3.35-1.83-12.2-2.75-16.37-.87 2.41-6.45 36.76-9.72 33.59 10.43m-70.65 28.64c2.93 12.63 7.74 27.12 24.15 23.45 8.19 15.96 1.95 41.36 3.43 63.4-6.08-4.26-37.11-68.36-27.58-86.85" class="j" fill-rule="evenodd" fill="#198787"></path><path d="M250.26 469.79c-2.44 3.02-4.16 6.04-4.16 6.04-10.43-9.52-19.16-9.08-19.16-9.08 2.79-15 12.8-5.89 23.32 3.03Zm7.47-8.73c-3.08 2.25-5.24 5.09-5.24 5.09-8.76-11.15-18.25-12.93-18.25-12.93 8.2-13.56 14.57-2.7 23.49 7.83Zm9.13-7.46c-3.21 1.95-5.91 4.36-5.91 4.36-6.41-12.65-15.73-16.03-15.73-16.03 10.69-11.7 14.95-.44 21.64 11.66Zm10.19-5.98c-3.66 1.46-6.46 3.51-6.46 3.51-4.26-13.54-12.85-18.37-12.85-18.37 12.43-9.75 14.67 1.83 19.32 14.86Zm12.32-4.64c-4.13.96-7.55 2.73-7.55 2.73-2.56-13.88-9.65-20.72-9.65-20.72 14.09-7.17 14.3 3.88 17.2 18Zm13.24-2.42c-4.33.51-8.41 1.37-8.41 1.37-1.98-14.35-6.46-21.85-6.46-21.85 14.57-6 13.58 4.39 14.87 20.48M244.53 479c-1.86 3.4-2.91 6.95-2.91 6.95-7.18-5.98-13.91-4.89-18.78-5.58.81-15.92 14.22-7.31 21.68-1.37Zm129.97-10.23a56 56 0 0 1 4.21 6.05c10.64-9.55 19.55-9.09 19.55-9.09-2.88-14.99-13.07-5.88-23.76 3.03Zm-7.64-8.74c3.12 2.28 5.32 5.09 5.32 5.09 8.92-11.14 18.61-12.92 18.61-12.92-8.36-13.54-14.87-2.7-23.94 7.82Zm-9.3-7.47c3.26 1.93 6.04 4.36 6.04 4.36 6.55-12.65 16.01-16.03 16.01-16.03-10.89-11.69-15.22-.42-22.05 11.66Zm-10.38-5.96c3.74 1.46 6.59 3.51 6.59 3.51 4.35-13.53 13.09-18.36 13.09-18.36-12.68-9.75-14.98 1.83-19.69 14.85Zm-12.57-4.63c4.22.93 7.71 2.71 7.71 2.71 2.61-13.88 9.82-20.72 9.82-20.72-14.34-7.16-14.55 3.88-17.52 18.01Zm-13.49-2.44c4.43.51 8.59 1.37 8.59 1.37 2.01-14.35 6.58-21.84 6.58-21.84-14.87-6-13.84 4.39-15.17 20.47m59.18 38.45c1.88 3.4 2.94 6.92 2.94 6.92 7.3-5.95 14.18-4.86 19.12-5.56-.78-15.94-14.45-7.32-22.07-1.37Zm-62.63-61.37c-1.43 8.86-.68 23.1-.68 23.1-4.79-.37-10.33.17-10.33.17s-.12-12.52-1.98-22.69c2.87-1.47 9.93-2.44 12.99-.58" fill="#115e5e" fill-rule="evenodd"></path></g></svg>
