<svg xmlns="http://www.w3.org/2000/svg" id="a" data-name="Layer 1" viewBox="0 0 512 512"><defs><linearGradient id="b" x1="-23.33" x2="-23.33" y1="1238" y2="947.87" gradientTransform="translate(194 -854)" gradientUnits="userSpaceOnUse"><stop offset="0" stop-color="#c6cfd4"/><stop offset=".51" stop-color="#dce3e7"/><stop offset=".86" stop-color="#e6ebef"/></linearGradient><linearGradient id="c" x1="-23.33" x2="-23.33" y1="1178.27" y2="990.54" gradientTransform="translate(194 -854)" gradientUnits="userSpaceOnUse"><stop offset="0" stop-color="#302c3b"/><stop offset=".24" stop-color="#41424f"/><stop offset=".74" stop-color="#616b76"/><stop offset="1" stop-color="#6e7b85"/></linearGradient><style>.f{fill:#b3c2c6}.i{fill:#99a8ae}.k{fill:#018bc9}.l{fill:#fff}.m{fill:#f9b700}.o{fill:#4e5e67}.p{fill:#302c3b}</style></defs><path d="M253.37 260.5v45.74L392.53 512l8.53-68.26z" class="o"/><path d="M512 512H392.53v-68.26L512 435.2z" style="fill:#47565e"/><path d="m259.35 273.07 133.18 170.67H512V273.07z" style="fill:#6e8189"/><path d="M271.17 263.88h-7.59l146.46 179.86h18.37L271.18 263.88Z" class="m"/><path d="M460.8 414.27c-.18-37.2 0-409.74 0-409.74 0-6.03-17.06-6.03-17.06 0 0 0 .2 372.54 0 409.74-.02 5.16 17.1 5.16 17.06 0" class="i"/><path d="M366.94 12.8h76.8v76.8h-76.8z" class="k"/><path d="M425.82 25.6h-40.96c-2.81 0-5.12 2.38-5.12 5.28v40.63c0 2.9 2.31 5.29 5.12 5.29h40.98c2.81 0 5.13-2.37 5.13-5.29V30.88c-.02-2.9-2.33-5.28-5.14-5.28Zm-35.84 47.69c-2.35 0-4.26-1.98-4.26-4.42s1.91-4.41 4.26-4.41 4.26 1.98 4.26 4.41c0 2.44-1.92 4.42-4.26 4.42m30.72 0c-2.35 0-4.26-1.98-4.26-4.42s1.91-4.41 4.26-4.41 4.26 1.98 4.26 4.41c0 2.44-1.92 4.42-4.26 4.42m3.84-17.62c0 1.45-1.17 2.65-2.56 2.65H388.7c-1.41 0-2.55-1.18-2.55-2.65V34.53c0-1.45 1.15-2.65 2.55-2.65h33.28c1.4 0 2.56 1.18 2.56 2.65z" class="l"/><path d="M247.42 51.2H93.92C81.83 51.2 72 61.01 72 73.13c0 3.02 2.46 5.48 5.5 5.48s5.49-2.46 5.49-5.48c0-6.06 4.91-10.96 10.95-10.96h29.83c12.77 0 14.02 6.08 16.17 16.14.63 3.03 1.4 15.12 2.82 18.49h13.35c-2.89-1.75-4.03-13.98-5.43-20.74-.9-4.24-1.98-9.38-4.66-13.89h49.34c-2.66 4.51-3.74 9.66-4.64 13.89-1.43 6.76-2.57 18.98-5.45 20.74h13.32c1.42-3.37 2.2-15.46 2.83-18.49 2.14-10.06 3.43-16.14 16.16-16.14h29.86c6.03 0 10.94 4.9 10.94 10.96 0 3.02 2.47 5.48 5.5 5.48s5.47-2.46 5.47-5.48c-.03-12.12-9.85-21.93-21.94-21.93Z" class="i"/><path d="M225.17 318.15h-109L30.05 512h281.23z" class="o"/><path d="M284.83 512h13.39L177.37 225.43z" class="p"/><path d="M311.28 512h30.05L177.37 225.43z" class="f"/><path d="M43.12 512H56.5l107.48-286.57z" class="p"/><path d="M30.05 512H0l163.98-286.57z" class="f"/><path d="M34.14 366.94c0 17.06 17.06 68.26 25.6 68.26H281.6c8.53 0 25.6-51.2 25.6-68.26v-42.67H34.14z" style="fill:#014d87"/><path d="M34.14 281.61v51.19c0 17.08 17.06 68.26 42.66 68.26h187.73c25.6 0 42.67-51.18 42.67-68.26v-51.18H34.14Z" class="k"/><path d="M256 93.87H85.34c-39.42 0-51.2 26-51.2 42.66V281.6l51.2 34.13c41.4 27.6 34.13 68.27 68.26 68.27h34.14c34.14 0 36.42-47.03 68.26-68.26l51.2-34.13V136.54c0-16.67-11.76-42.67-51.2-42.67" style="fill:url(#b)"/><circle cx="76.8" cy="358.4" r="17.07" class="l"/><circle cx="264.53" cy="358.4" r="17.07" class="l"/><path d="M187.74 418.15H153.6l-8.54 17.06h51.2l-8.53-17.06Z" style="fill:#013366"/><path d="M264.53 128H76.8c-25.6 0-17.06 59.74-17.06 59.74H281.6S290.14 128 264.53 128" class="i"/><path d="M264.53 136.54H76.8c-17.06 0-17.06 51.2-17.06 51.2s5.06 90.41 25.6 110.94c34.14 34.13 136.54 34.13 170.66 0 20.51-20.51 25.6-110.94 25.6-110.94s0-51.2-17.07-51.2" style="fill:url(#c)"/><path d="M252.08 180.84H89.29c-22.68 0-22.68-37.39 0-37.39h162.79c22.67 0 22.67 37.39 0 37.39" class="p"/><path d="M138.22 167.43c-.03-.57.27-.87.8-.87h3.2c.5 0 .78.3.86.83.23 2.03 1.47 2.82 3.38 2.82 2.17 0 3.43-1.02 3.43-3.04v-16.53c0-.54.29-.83.83-.83h3.17c.54 0 .83.3.83.83v16.53c0 5.33-4 7.77-8.27 7.77s-7.87-2.21-8.24-7.51Zm19.63-5.3c0-7.2 5.68-12.8 12.8-12.8s12.8 5.6 12.8 12.8-5.7 12.81-12.8 12.81-12.8-5.6-12.8-12.81m20.75 0c0-4.74-3.49-8.08-7.95-8.08s-7.97 3.34-7.97 8.08 3.49 8.08 7.97 8.08c4.47 0 7.95-3.34 7.95-8.08m24.38-11.32-7.49 12.7v10.1c0 .53-.3.83-.85.83h-3.17c-.54 0-.83-.3-.83-.83v-10.12l-7.48-12.7c-.34-.58-.09-1 .57-1h3.68c.45 0 .77.19.97.59l4.7 8.45 4.68-8.45c.22-.39.52-.59.98-.59h3.66c.66 0 .93.42.58 1.01Z" class="m"/></svg>