<svg xmlns="http://www.w3.org/2000/svg" data-name="Layer 1" style="" viewBox="0 0 512 477.87"><g><defs><linearGradient id="1770301555080-4865160_c" x1="-748.65" x2="-748.65" y1="60.52" y2="68.48" gradientTransform="matrix(60 0 0 42 45192 -2398.27)" gradientUnits="userSpaceOnUse"><stop offset="0" stop-color="#a3f3ff"></stop><stop offset="1" stop-color="#38deff"></stop></linearGradient></defs><circle cx="170.67" cy="170.67" r="78.93" class="f" fill="#fcd449"></circle><path d="M202.58 77.87 170.68 0l-31.92 77.87c10.37-1.83 21-2.94 31.91-2.94s21.55 1.1 31.91 2.94m60.9 124.73 77.85-31.91-77.85-31.91c1.83 10.37 2.94 21 2.94 31.9s-1.11 21.56-2.94 31.93ZM77.85 138.77 0 170.68l77.85 31.91c-1.82-10.37-2.94-21-2.94-31.93s1.12-21.53 2.94-31.9Zm181.03-11.17L291.35 50l-77.61 32.47c8.62 6.05 16.91 12.78 24.64 20.5 7.71 7.72 14.45 16.03 20.5 24.64ZM82.47 213.73l-32.49 77.62 77.63-32.49c-8.63-6.05-16.92-12.78-24.64-20.5s-14.46-16.02-20.5-24.64Zm45.14-131.26L49.98 50l32.49 77.6c6.04-8.6 12.77-16.91 20.5-24.64 7.72-7.71 16.02-14.45 24.64-20.5Z" class="f" fill="#fcd449"></path><path id="1770301555080-4865160_b" d="M129.66 461.95c-8.49 0-16.9-1.37-24.99-4.07-32.66-10.79-54.6-41.16-54.6-75.58 0-22.96 9.95-44.83 27.3-59.98a79.3 79.3 0 0 1 14.56-10.12l-.26-.02 5.29-18.41c13.18-46 55.75-78.11 103.52-78.11 4.77 0 9.65.38 15.39 1.21 4.42.61 8.72 1.52 12.95 2.66l2.1-3.81c19.3-34.8 55.95-56.41 95.65-56.41 60.26 0 109.31 49.08 109.31 109.39 0 2.97-.2 5.84-.44 8.7l-.16 2.15c4.65 1.77 9.18 3.93 13.56 6.47 29.15 16.8 47.26 48.1 47.26 81.65 0 44.19-30.05 81.95-73.08 91.82-7.01 1.65-14.14 2.48-21.15 2.48H129.66z" data-name="Path" fill="#fff"></path><path id="1770301555080-4865160_d" d="M326.55 175.22c51.57 0 93.37 41.85 93.37 93.46 0 2.52-.18 4.97-.38 7.42-21.58 1.65-41.2 10.27-56.61 23.65 11.47-6.58 24.72-10.44 38.92-10.44 5.24 0 10.37.54 15.33 1.54 8.47 1.66 16.43 4.75 23.67 8.93 23.44 13.53 39.28 38.82 39.28 67.87 0 37.18-25.94 68.32-60.71 76.3-5.65 1.31-11.52 2.07-17.59 2.07H129.66c-6.98 0-13.68-1.15-19.96-3.25-25.39-8.38-43.71-32.28-43.71-60.47 0-19.17 8.47-36.32 21.86-47.97a62.8 62.8 0 0 1 20.84-12.15c6.58-2.3 13.61-3.62 20.97-3.62 20.53 0 38.73 9.77 50.38 24.87h.57c-13.52-24.9-38.79-42.47-68.37-45.29 11-38.38 46.31-66.57 88.21-66.57 4.49 0 8.84.44 13.13 1.04 8.5 1.24 16.64 3.58 24.22 6.95 28.25 12.62 48.88 39.03 53.47 70.7 0-.18.02-.38.02-.54 0-36.07-18.48-67.8-46.46-86.3 15.95-28.71 46.56-48.2 81.73-48.2m-.01-31.85c-42.97 0-82.81 22.09-105.74 58.14-.87-.15-1.77-.27-2.66-.41-6.55-.93-12.16-1.37-17.69-1.37-54.84 0-103.71 36.86-118.84 89.64l-3.59 12.57c-3.93 2.5-7.65 5.33-11.19 8.41a95.5 95.5 0 0 0-32.71 71.94c0 41.32 26.35 77.76 65.57 90.72a94.5 94.5 0 0 0 29.95 4.85h272.19c8.22 0 16.55-.96 24.8-2.88C476.86 463.43 512 419.3 512 367.65c0-39.24-21.16-75.82-55.24-95.47-1.65-.93-3.32-1.85-5-2.7.02-.26.02-.52.02-.8 0-69.09-56.18-125.31-125.23-125.31" data-name="Shape" fill="url(#1770301555080-4865160_c)"></path></g></svg>
