<svg xmlns="http://www.w3.org/2000/svg" data-name="Layer 1" style="" viewBox="0 0 512 1560.26"><g><defs><linearGradient id="1770301555086-8765755_b" x1="710.43" x2="-181.45" y1="782.14" y2="782.14" gradientTransform="matrix(1 0 0 -1 0 1562.26)" gradientUnits="userSpaceOnUse"><stop offset="0" stop-color="#c5d7e8"></stop><stop offset="1" stop-color="#e6ebef"></stop></linearGradient><linearGradient id="1770301555086-8765755_c" x1="153.62" x2="358.41" y1="1360.41" y2="1360.41" gradientTransform="matrix(1 0 0 -1 0 1562.26)" gradientUnits="userSpaceOnUse"><stop offset="0" stop-color="#b8c9d9"></stop><stop offset="1" stop-color="#e6ebef"></stop></linearGradient><linearGradient id="1770301555086-8765755_d" x1="153.62" x2="358.41" y1="811.29" y2="811.29" gradientTransform="matrix(1 0 0 -1 0 1562.26)" gradientUnits="userSpaceOnUse"><stop offset="0" stop-color="#a30008"></stop><stop offset=".06" stop-color="#bd090f"></stop><stop offset=".14" stop-color="#da1417"></stop><stop offset=".21" stop-color="#ee1b1c"></stop><stop offset=".29" stop-color="#fb2020"></stop><stop offset=".36" stop-color="#ff2121"></stop><stop offset=".45" stop-color="#f01c1d"></stop><stop offset=".82" stop-color="#b9080e"></stop><stop offset="1" stop-color="#a30008"></stop></linearGradient><linearGradient id="1770301555086-8765755_e" x1="256.02" x2="256.02" y1="27.01" y2="479.98" gradientTransform="matrix(1 0 0 -1 0 1562.26)" gradientUnits="userSpaceOnUse"><stop offset=".29" stop-color="#940000"></stop><stop offset=".63" stop-color="#d60000"></stop><stop offset=".84" stop-color="red"></stop></linearGradient><linearGradient id="1770301555086-8765755_f" x1="256.14" x2="256.14" y1="416.69" y2="542.49" gradientTransform="matrix(1 0 0 -1 0 1562.26)" gradientUnits="userSpaceOnUse"><stop offset="0" stop-color="red"></stop><stop offset=".27" stop-color="#ff3939"></stop><stop offset=".45" stop-color="#ff6161"></stop><stop offset=".56" stop-color="#fb5d5d" stop-opacity=".8"></stop><stop offset=".67" stop-color="#f05050" stop-opacity=".6"></stop><stop offset=".78" stop-color="#dd3c3c" stop-opacity=".39"></stop><stop offset=".9" stop-color="#c21f1f" stop-opacity=".18"></stop><stop offset="1" stop-color="#a60000" stop-opacity="0"></stop></linearGradient><radialGradient id="1770301555086-8765755_g" cx="-658.24" cy="434.68" r="145.19" fx="-658.24" fy="434.68" gradientTransform="matrix(.8201 -.80619 -.66327 -.6521 1001.35 991.29)" gradientUnits="userSpaceOnUse"><stop offset="0" stop-color="#fff" stop-opacity=".5"></stop><stop offset="1" stop-color="#fff" stop-opacity="0"></stop></radialGradient></defs><path d="M384.01 1076.93V131.25c0-65.82-49-124.33-115.31-130.67-76.31-7.07-140.67 51.68-140.67 125.31v951.04c0 8.78-4.63 16.58-12.19 21.45-76.31 49.25-124.33 137.26-114.58 235.5 11.46 116.53 107.27 211.86 225.51 224.78 154.57 16.82 285.24-101.66 285.24-250.13 0-88.01-46.08-165.29-115.8-210.39-7.56-4.63-12.19-12.43-12.19-21.21Z" fill="url(#1770301555086-8765755_b)"></path><path d="M153.62 125.89v251.59h204.79V125.89c0-132.87-204.79-132.87-204.79 0" fill="url(#1770301555086-8765755_c)"></path><path d="M153.62 377.48h204.79v746.98H153.62z" fill="url(#1770301555086-8765755_d)"></path><ellipse cx="256.02" cy="1308.77" rx="230.38" ry="226.48" fill="url(#1770301555086-8765755_e)"></ellipse><path d="M234.56 198.29H128.02V160.5h106.54c28.52 0 28.52 37.79 0 37.79m0 138.97H128.02v-37.79h106.54c28.52 0 28.52 37.79 0 37.79m0 138.96H128.02v-37.79h106.54c28.52 0 28.52 37.79 0 37.79m0 138.96H128.02v-37.79h106.54c28.52 0 28.52 37.79 0 37.79m0 138.72H128.02v-37.79h106.54c28.52.24 28.52 37.79 0 37.79m0 138.96H128.02v-37.79h106.54c28.52.24 28.52 37.79 0 37.79m0 138.96H128.02v-37.79h106.54c28.52 0 28.52 37.79 0 37.79" style="isolation:isolate" fill="#fff" opacity=".6"></path><path d="M358.41 1019.63H153.62c0 101.42-6.09 76.31-57.54 125.8h320.1c-51.68-49.25-57.78-24.14-57.78-125.8Z" fill="url(#1770301555086-8765755_f)"></path><path d="M303.31 1111.54c57.54 56.56 45.59 159.68-26.57 230.63-72.16 70.94-176.99 82.65-234.53 26.09s-45.59-159.68 26.57-230.63c72.16-70.94 176.99-82.65 234.53-26.09" fill="url(#1770301555086-8765755_g)"></path></g></svg>
