<svg xmlns="http://www.w3.org/2000/svg" data-name="Layer 1" style="" viewBox="0 0 512 512.01"><g><defs><linearGradient id="1770301555095-3458899_b" x1="200.79" x2="200.79" y1="2" y2="514.01" gradientTransform="matrix(1 0 0 -1 0 514.01)" gradientUnits="userSpaceOnUse"><stop offset="0" stop-color="#585e0f"></stop><stop offset="1" stop-color="#7d8717"></stop></linearGradient><linearGradient id="1770301555095-3458899_c" x1="297.39" x2="455.67" y1="126.17" y2="126.17" gradientTransform="matrix(1 0 0 -1 0 514.01)" gradientUnits="userSpaceOnUse"><stop offset="0" stop-color="#d62020"></stop><stop offset=".21" stop-color="#c91b1b"></stop><stop offset=".59" stop-color="#a60f0f"></stop><stop offset="1" stop-color="#7a0000"></stop></linearGradient><linearGradient id="1770301555095-3458899_d" x1="-1236.47" x2="-1139.86" y1="618.29" y2="618.29" gradientTransform="scale(-1 1) rotate(30 -6.568 1760.96)" gradientUnits="userSpaceOnUse"><stop offset="0" stop-color="#d62020"></stop><stop offset=".01" stop-color="#d41f1f"></stop><stop offset=".19" stop-color="#b31414"></stop><stop offset=".38" stop-color="#9a0b0b"></stop><stop offset=".57" stop-color="#880505"></stop><stop offset=".77" stop-color="#7d0101"></stop><stop offset="1" stop-color="#7a0000"></stop></linearGradient><linearGradient id="1770301555095-3458899_e" x1="-1171.3" x2="-1045.88" y1="622.9" y2="622.9" gradientTransform="scale(-1 1) rotate(30 -6.568 1760.96)" gradientUnits="userSpaceOnUse"><stop offset="0" stop-color="#d62020"></stop><stop offset=".01" stop-color="#d41f1f"></stop><stop offset=".19" stop-color="#b31414"></stop><stop offset=".38" stop-color="#9a0b0b"></stop><stop offset=".57" stop-color="#880505"></stop><stop offset=".77" stop-color="#7d0101"></stop><stop offset="1" stop-color="#7a0000"></stop></linearGradient><linearGradient id="1770301555095-3458899_f" x1="-1111.6" x2="-1001.53" y1="584.14" y2="584.14" gradientTransform="scale(-1 1) rotate(30 -6.568 1760.96)" gradientUnits="userSpaceOnUse"><stop offset="0" stop-color="#7a0000"></stop><stop offset=".23" stop-color="#7d0101"></stop><stop offset=".43" stop-color="#880505"></stop><stop offset=".62" stop-color="#9a0b0b"></stop><stop offset=".81" stop-color="#b31414"></stop><stop offset=".99" stop-color="#d41f1f"></stop><stop offset="1" stop-color="#d62020"></stop></linearGradient><linearGradient id="1770301555095-3458899_g" x1="-1620.82" x2="-1730.07" y1="542.95" y2="605.56" gradientTransform="matrix(-.53688 .3101 .54498 .94398 -832.86 186.27)" gradientUnits="userSpaceOnUse"><stop offset="0" stop-color="#d62020"></stop><stop offset=".41" stop-color="#a11"></stop><stop offset=".79" stop-color="#870505"></stop><stop offset="1" stop-color="#7a0000"></stop></linearGradient><linearGradient id="1770301555095-3458899_h" x1="-1116.69" x2="-1209.6" y1="528.81" y2="621.72" gradientTransform="scale(-1 1) rotate(30 -6.568 1760.96)" gradientUnits="userSpaceOnUse"><stop offset="0" stop-color="#7a0000"></stop><stop offset=".23" stop-color="#7d0101"></stop><stop offset=".43" stop-color="#880505"></stop><stop offset=".62" stop-color="#9a0b0b"></stop><stop offset=".81" stop-color="#b31414"></stop><stop offset=".99" stop-color="#d41f1f"></stop><stop offset="1" stop-color="#d62020"></stop></linearGradient><linearGradient id="1770301555095-3458899_i" x1="704" x2="778.4" y1="580.32" y2="580.32" gradientTransform="rotate(-30 -161.279 1136.106)" gradientUnits="userSpaceOnUse"><stop offset="0" stop-color="#7a0000"></stop><stop offset=".23" stop-color="#7d0101"></stop><stop offset=".43" stop-color="#880505"></stop><stop offset=".62" stop-color="#9a0b0b"></stop><stop offset=".81" stop-color="#b31414"></stop><stop offset=".99" stop-color="#d41f1f"></stop><stop offset="1" stop-color="#d62020"></stop></linearGradient><linearGradient id="1770301555095-3458899_j" x1="-1132.66" x2="-1087.05" y1="595.11" y2="595.11" gradientTransform="scale(-1 1) rotate(30 -6.568 1760.96)" gradientUnits="userSpaceOnUse"><stop offset="0" stop-color="#7a0000"></stop><stop offset=".23" stop-color="#7d0101"></stop><stop offset=".43" stop-color="#880505"></stop><stop offset=".62" stop-color="#9a0b0b"></stop><stop offset=".81" stop-color="#b31414"></stop><stop offset=".99" stop-color="#d41f1f"></stop><stop offset="1" stop-color="#d62020"></stop></linearGradient><linearGradient id="1770301555095-3458899_k" x1="328.26" x2="392.65" y1="532.81" y2="532.81" gradientTransform="scale(1 -1) rotate(-15 -2335.998 23.228)" gradientUnits="userSpaceOnUse"><stop offset="0" stop-color="#d62020"></stop><stop offset=".01" stop-color="#d41f1f"></stop><stop offset=".19" stop-color="#b31414"></stop><stop offset=".38" stop-color="#9a0b0b"></stop><stop offset=".57" stop-color="#880505"></stop><stop offset=".77" stop-color="#7d0101"></stop><stop offset="1" stop-color="#7a0000"></stop></linearGradient><linearGradient id="1770301555095-3458899_l" x1="-1171.66" x2="-1085.57" y1="594.42" y2="594.42" gradientTransform="scale(-1 1) rotate(30 -6.568 1760.96)" gradientUnits="userSpaceOnUse"><stop offset="0" stop-color="#d62020"></stop><stop offset=".01" stop-color="#d41f1f"></stop><stop offset=".19" stop-color="#b31414"></stop><stop offset=".38" stop-color="#9a0b0b"></stop><stop offset=".57" stop-color="#880505"></stop><stop offset=".77" stop-color="#7d0101"></stop><stop offset="1" stop-color="#7a0000"></stop></linearGradient><linearGradient id="1770301555095-3458899_m" x1="700.54" x2="835.4" y1="576.91" y2="576.91" gradientTransform="rotate(-30 -161.279 1136.106)" gradientUnits="userSpaceOnUse"><stop offset="0" stop-color="#d62020"></stop><stop offset=".01" stop-color="#d41f1f"></stop><stop offset=".19" stop-color="#b31414"></stop><stop offset=".38" stop-color="#9a0b0b"></stop><stop offset=".57" stop-color="#880505"></stop><stop offset=".77" stop-color="#7d0101"></stop><stop offset="1" stop-color="#7a0000"></stop></linearGradient><linearGradient id="1770301555095-3458899_n" x1="-1199.1" x2="-1001.35" y1="596.67" y2="596.67" gradientTransform="scale(-1 1) rotate(30 -6.568 1760.96)" gradientUnits="userSpaceOnUse"><stop offset="0" stop-color="#7a0000"></stop><stop offset=".23" stop-color="#7d0101"></stop><stop offset=".43" stop-color="#880505"></stop><stop offset=".62" stop-color="#9a0b0b"></stop><stop offset=".81" stop-color="#b31414"></stop><stop offset=".99" stop-color="#d41f1f"></stop><stop offset="1" stop-color="#d62020"></stop></linearGradient><linearGradient id="1770301555095-3458899_o" x1="-1148.56" x2="-997.51" y1="573.48" y2="573.48" gradientTransform="scale(-1 1) rotate(30 -6.568 1760.96)" gradientUnits="userSpaceOnUse"><stop offset="0" stop-color="#7a0000"></stop><stop offset=".23" stop-color="#7d0101"></stop><stop offset=".43" stop-color="#880505"></stop><stop offset=".62" stop-color="#9a0b0b"></stop><stop offset=".81" stop-color="#b31414"></stop><stop offset=".99" stop-color="#d41f1f"></stop><stop offset="1" stop-color="#d62020"></stop></linearGradient><linearGradient id="1770301555095-3458899_p" x1="-1306.54" x2="-1122.59" y1="514.93" y2="514.93" gradientTransform="rotate(-150 -455.767 19.864) scale(.9 -.88)" gradientUnits="userSpaceOnUse"><stop offset="0" stop-color="#d62020"></stop><stop offset=".34" stop-color="#ba1616"></stop><stop offset="1" stop-color="#7a0000"></stop></linearGradient><linearGradient id="1770301555095-3458899_q" x1="-1016.43" x2="-1195.74" y1="539.94" y2="539.94" gradientTransform="scale(-1 1) rotate(30 -6.568 1760.96)" gradientUnits="userSpaceOnUse"><stop offset="0" stop-color="#d62020"></stop><stop offset=".28" stop-color="#b21414"></stop><stop offset=".57" stop-color="#940909"></stop><stop offset=".82" stop-color="#810202"></stop><stop offset="1" stop-color="#7a0000"></stop></linearGradient><linearGradient id="1770301555095-3458899_r" x1="-1238.76" x2="-1108.55" y1="534.62" y2="534.62" gradientTransform="scale(-1 1) rotate(30 -6.568 1760.96)" gradientUnits="userSpaceOnUse"><stop offset="0" stop-color="#d62020"></stop><stop offset=".21" stop-color="#c91b1b"></stop><stop offset=".59" stop-color="#a60f0f"></stop><stop offset="1" stop-color="#7a0000"></stop></linearGradient></defs><path d="M106.38 165.25c12.61 84.36 76.19 147.66 76.19 328.86 0 24.21 55.32 23.52 55.32 0 0-150.39-79.7-257.07-100.69-332.94C102.65 36.28 220.91-21.39 289.6 40.4l8.15-4.09C222.11-43.06 83.3 11.13 106.38 165.25" fill="url(#1770301555095-3458899_b)"></path><path d="M115.94 136.58c55.4 94.52-78.06 184.82-78.06 184.82s-23.85-143.29 78.06-184.82" fill="#95a11a"></path><path d="M297.75 355.45c4.07-52.5 78.2 45.3 157.92 35.93-8.45 52.59-166.71 77.67-157.92-35.93" fill="url(#1770301555095-3458899_c)"></path><path d="M115.94 136.58C51.07 172.26 37.88 321.4 37.88 321.4s-124.57-161.75 78.06-184.82" class="ak" fill="#a8b51d"></path><path d="M114.44 130.41c-73.6 59.45-74.85 166.82-76.56 191 3.29-25.28 22.69-137.21 84.56-186.11 1.86-1.46-1.88-9.84-8-4.89" fill="#848f17"></path><path d="M122.21 71.07c-63.16 2.22-57.89-13.87-7.7 23.29 4.04 2.96 12.77-23.43 7.7-23.29m61.51 328.15c-56.41 27.44-58.56 10.7 3.08 24.23 4.96 1.08 1.47-26.44-3.08-24.23m-5.22-128.75c62.82 6.64 58.77-9.76 5.96 23.78-4.26 2.65-10.99-24.26-5.96-23.78" fill="#768015"></path><path d="M288.78 35.69c46.34-25.83 55.86.06 55.86.06l-83.7 46.64s-18.47-20.91 27.84-46.7" class="an" fill="#899320"></path><path d="M271.99 66.68c101.68-84.18 138.21 1.83 214.62-6.19-93.04 64.33-128.44-21.23-214.62 6.19" class="an" fill="#899320"></path><path d="M507.96 169.62c26.38 48.71-113.92 117.93-92.2-19.99 10.92-2.3 75.31.98 92.2 19.99" fill="url(#1770301555095-3458899_d)"></path><path d="M423.92 270.9c14.51-8.07 99.93-66.75-52.92-99.54-99.06 122.75 35.93 109.01 52.92 99.54" fill="url(#1770301555095-3458899_e)"></path><path d="M311.3 291.55c40.23 26.35 194.04-83.59-42.61-129.36 44.29 35.7 5.81 105.28 42.61 129.36" fill="url(#1770301555095-3458899_f)"></path><path d="M411.83 255.34c9.05-5.03 59.94-45.44-59.83-106.92-47.63 99.97 49.25 112.82 59.83 106.92" fill="url(#1770301555095-3458899_g)"></path><path d="M470.72 202.72c-.15 9.7-105.75 75.29-103.18-122.43 6.72 66.13 103.93 70.35 103.18 122.43" fill="url(#1770301555095-3458899_h)"></path><path d="M362.16 272.5c41.88-33.47 27.1-103.81-43.33-136.17-2.1 92.71 13.18 160.28 43.33 136.17" fill="url(#1770301555095-3458899_i)"></path><path d="M380.59 240.59c7.81 3.27 69.11-52.1-29.25-68.29 24.17 19.46 7.13 59.04 29.25 68.29" fill="url(#1770301555095-3458899_j)"></path><path d="M427.76 204.83c-1.02 8.58-85.51 33.36-49.07-61.6 5.66 31.48 51.99 37.33 49.07 61.6" fill="url(#1770301555095-3458899_k)"></path><path d="M380.59 240.59c-25.51-29.26 142-115.66-30.65-67.53 24.14 19.47 4.31 57.98 30.65 67.53" fill="url(#1770301555095-3458899_l)"></path><path d="M348.79 277.28c-52.09-52.14 196.69-154.75-22.33-149.92-2.08 92.71-12.94 142.13 22.33 149.92" fill="url(#1770301555095-3458899_m)"></path><path d="M470.72 202.72c-3.77-62.42-159.22-6.22-176.03 67.75 12.15-147.59 185.25-161.8 176.03-67.75" fill="url(#1770301555095-3458899_n)"></path><path d="M392.27 145.07c-4.89 51.43-139.29 103.65-78.58 147.84-52.09-24.58-12.66-91.4-47.39-130.5 20.75-25.68 96.74-35.5 125.96-17.34Z" fill="url(#1770301555095-3458899_o)"></path><path d="M434.73 124.5c.43 11.38-36.1 67.76-158.54 45.97-79.58-59.28 51.69-235.87 158.54-45.97" fill="url(#1770301555095-3458899_p)"></path><path d="M434.73 124.5c9.94 9.98-37.63 79.89-177.59 50.77 8-47.95 107.4-5.76 133.32-19.11 19.76-10.2 37.83-23.32 44.27-31.66" fill="url(#1770301555095-3458899_q)"></path><path d="M511.23 183.99c7.73-25.77-44.66-57.37-63.92-82.8-28.8-38.09-88.43-87.1-149.57-54.9 62.63 195.5 178.72 78.69 213.48 137.7Z" fill="url(#1770301555095-3458899_r)"></path><path d="M307.41 41.91c-59.91 7.01-129.18 70.96-97.93 135.2 16.58-62.02 81.99-96.75 97.93-135.2" class="ak" fill="#a8b51d"></path></g></svg>
