<svg xmlns="http://www.w3.org/2000/svg" data-name="Layer 1" style="" viewBox="0 0 512 447.99"><g><defs><linearGradient id="1770301555003-5794275_b" x1="425.5" x2="462.49" y1="135.28" y2="135.28" gradientTransform="matrix(1 0 0 -1 0 445.99)" gradientUnits="userSpaceOnUse"><stop offset="0" stop-color="#f3f8fc"></stop><stop offset="1" stop-color="#c6cfd4"></stop></linearGradient><linearGradient id="1770301555003-5794275_c" x1="422.56" x2="465.43" y1="194.34" y2="194.34" gradientTransform="matrix(1 0 0 -1 0 445.99)" gradientUnits="userSpaceOnUse"><stop offset="0" stop-color="#ecf1f5"></stop><stop offset=".14" stop-color="#e2e8ed"></stop><stop offset=".7" stop-color="#c0cacf"></stop><stop offset="1" stop-color="#b3bec4"></stop></linearGradient><linearGradient id="1770301555003-5794275_d" x1="408" x2="480" y1="227.45" y2="227.45" gradientTransform="matrix(1 0 0 -1 0 445.99)" gradientUnits="userSpaceOnUse"><stop offset="0" stop-color="#ecf1f5"></stop><stop offset=".14" stop-color="#e2e8ed"></stop><stop offset=".7" stop-color="#c0cacf"></stop><stop offset="1" stop-color="#b3bec4"></stop></linearGradient><linearGradient id="1770301555003-5794275_e" x1="419" x2="468.99" y1="209.41" y2="209.41" gradientTransform="matrix(1 0 0 -1 0 445.99)" gradientUnits="userSpaceOnUse"><stop offset="0" stop-color="#ecf1f5"></stop><stop offset=".14" stop-color="#e2e8ed"></stop><stop offset=".7" stop-color="#c0cacf"></stop><stop offset="1" stop-color="#b3bec4"></stop></linearGradient><linearGradient id="1770301555003-5794275_f" x1="408" x2="480" y1="216.62" y2="216.62" gradientTransform="matrix(1 0 0 -1 0 445.99)" gradientUnits="userSpaceOnUse"><stop offset="0" stop-color="#f3f8fc"></stop><stop offset="1" stop-color="#c6cfd4"></stop></linearGradient><linearGradient id="1770301555003-5794275_g" x1="422.56" x2="465.43" y1="64.15" y2="64.15" gradientTransform="matrix(1 0 0 -1 0 445.99)" gradientUnits="userSpaceOnUse"><stop offset="0" stop-color="#ecf1f5"></stop><stop offset=".14" stop-color="#e2e8ed"></stop><stop offset=".7" stop-color="#c0cacf"></stop><stop offset="1" stop-color="#b3bec4"></stop></linearGradient><linearGradient id="1770301555003-5794275_h" x1="420.1" x2="467.9" y1="61.61" y2="61.61" gradientTransform="matrix(1 0 0 -1 0 445.99)" gradientUnits="userSpaceOnUse"><stop offset="0" stop-color="#f3f8fc"></stop><stop offset="1" stop-color="#c6cfd4"></stop></linearGradient><linearGradient id="1770301555003-5794275_i" x1="416.75" x2="471.25" y1="51.01" y2="51.01" gradientTransform="matrix(1 0 0 -1 0 445.99)" gradientUnits="userSpaceOnUse"><stop offset="0" stop-color="#ecf1f5"></stop><stop offset=".14" stop-color="#e2e8ed"></stop><stop offset=".7" stop-color="#c0cacf"></stop><stop offset="1" stop-color="#b3bec4"></stop></linearGradient><linearGradient id="1770301555003-5794275_j" x1="414.27" x2="473.72" y1="39.99" y2="39.99" gradientTransform="matrix(1 0 0 -1 0 445.99)" gradientUnits="userSpaceOnUse"><stop offset="0" stop-color="#f3f8fc"></stop><stop offset="1" stop-color="#c6cfd4"></stop></linearGradient><linearGradient id="1770301555003-5794275_k" x1="49.51" x2="86.5" y1="135.28" y2="135.28" gradientTransform="matrix(1 0 0 -1 0 445.99)" gradientUnits="userSpaceOnUse"><stop offset="0" stop-color="#f3f8fc"></stop><stop offset="1" stop-color="#c6cfd4"></stop></linearGradient><linearGradient id="1770301555003-5794275_l" x1="46.56" x2="89.43" y1="194.34" y2="194.34" gradientTransform="matrix(1 0 0 -1 0 445.99)" gradientUnits="userSpaceOnUse"><stop offset="0" stop-color="#ecf1f5"></stop><stop offset=".14" stop-color="#e2e8ed"></stop><stop offset=".7" stop-color="#c0cacf"></stop><stop offset="1" stop-color="#b3bec4"></stop></linearGradient><linearGradient id="1770301555003-5794275_m" x1="32" x2="104" y1="227.45" y2="227.45" gradientTransform="matrix(1 0 0 -1 0 445.99)" gradientUnits="userSpaceOnUse"><stop offset="0" stop-color="#ecf1f5"></stop><stop offset=".14" stop-color="#e2e8ed"></stop><stop offset=".7" stop-color="#c0cacf"></stop><stop offset="1" stop-color="#b3bec4"></stop></linearGradient><linearGradient id="1770301555003-5794275_n" x1="43" x2="93" y1="209.41" y2="209.41" gradientTransform="matrix(1 0 0 -1 0 445.99)" gradientUnits="userSpaceOnUse"><stop offset="0" stop-color="#ecf1f5"></stop><stop offset=".14" stop-color="#e2e8ed"></stop><stop offset=".7" stop-color="#c0cacf"></stop><stop offset="1" stop-color="#b3bec4"></stop></linearGradient><linearGradient id="1770301555003-5794275_o" x1="32" x2="104" y1="216.62" y2="216.62" gradientTransform="matrix(1 0 0 -1 0 445.99)" gradientUnits="userSpaceOnUse"><stop offset="0" stop-color="#f3f8fc"></stop><stop offset="1" stop-color="#c6cfd4"></stop></linearGradient><linearGradient id="1770301555003-5794275_p" x1="46.56" x2="89.43" y1="64.15" y2="64.15" gradientTransform="matrix(1 0 0 -1 0 445.99)" gradientUnits="userSpaceOnUse"><stop offset="0" stop-color="#ecf1f5"></stop><stop offset=".14" stop-color="#e2e8ed"></stop><stop offset=".7" stop-color="#c0cacf"></stop><stop offset="1" stop-color="#b3bec4"></stop></linearGradient><linearGradient id="1770301555003-5794275_q" x1="44.11" x2="91.91" y1="61.61" y2="61.61" gradientTransform="matrix(1 0 0 -1 0 445.99)" gradientUnits="userSpaceOnUse"><stop offset="0" stop-color="#f3f8fc"></stop><stop offset="1" stop-color="#c6cfd4"></stop></linearGradient><linearGradient id="1770301555003-5794275_r" x1="40.75" x2="95.26" y1="51.01" y2="51.01" gradientTransform="matrix(1 0 0 -1 0 445.99)" gradientUnits="userSpaceOnUse"><stop offset="0" stop-color="#ecf1f5"></stop><stop offset=".14" stop-color="#e2e8ed"></stop><stop offset=".7" stop-color="#c0cacf"></stop><stop offset="1" stop-color="#b3bec4"></stop></linearGradient><linearGradient id="1770301555003-5794275_s" x1="38.28" x2="97.73" y1="39.99" y2="39.99" gradientTransform="matrix(1 0 0 -1 0 445.99)" gradientUnits="userSpaceOnUse"><stop offset="0" stop-color="#f3f8fc"></stop><stop offset="1" stop-color="#c6cfd4"></stop></linearGradient><linearGradient id="1770301555003-5794275_z" x1="256" x2="256" y1="276.84" y2="403.7" gradientTransform="matrix(1 0 0 -1 0 445.99)" gradientUnits="userSpaceOnUse"><stop offset="0" stop-color="#e7ecf0"></stop><stop offset="1" stop-color="#99a8ae"></stop></linearGradient></defs><path d="M56 216h399.99v192H56z" class="bf" fill="#e6ebef"></path><path d="M425.5 234.13h36.99V387.3H425.5z" fill="url(#1770301555003-5794275_b)"></path><path d="M422.56 249.11h42.87v5.09h-42.87z" fill="url(#1770301555003-5794275_c)"></path><path d="M408 212h72v13.09h-72z" fill="url(#1770301555003-5794275_d)"></path><path d="M465.44 242.13h-42.88s-5.18-5.18-3.04-8.48c2.29-3.5 46.66-3.5 48.95 0 2.15 3.29-3.03 8.48-3.03 8.48" fill="url(#1770301555003-5794275_e)"></path><path d="M473.38 233.65h-58.77l-6.61-8.57h72z" fill="url(#1770301555003-5794275_f)"></path><path d="M422.56 379.3h42.87v5.09h-42.87z" fill="url(#1770301555003-5794275_g)"></path><path d="M420.1 381.84h47.8v5.09h-47.8z" fill="url(#1770301555003-5794275_h)"></path><path d="M470.93 400.01c-30.15 6.79-53.87 0-53.87 0-1.86-2.94 5.06-13.08 5.06-13.08h43.75s6.92 10.14 5.06 13.08" fill="url(#1770301555003-5794275_i)"></path><path d="M414.27 400.01h59.45v11.98h-59.45z" fill="url(#1770301555003-5794275_j)"></path><path d="M442.29 256.46h3.41v118.29h-3.41zm5.95 0h3.42v118.29h-3.42zm-11.91 0h3.42v118.29h-3.42zm17.65 0h2.7v118.29h-2.7zm-22.67 0h2.7v118.29h-2.7zm26.65 0h1.85v118.29h-1.85zm-29.78 0h1.85v118.29h-1.85z" class="az" style="isolation:isolate" fill="#99a8ae" opacity=".2"></path><path d="M49.51 234.13H86.5V387.3H49.51z" fill="url(#1770301555003-5794275_k)"></path><path d="M46.56 249.11h42.87v5.09H46.56z" fill="url(#1770301555003-5794275_l)"></path><path d="M32 212h72v13.09H32z" fill="url(#1770301555003-5794275_m)"></path><path d="M89.44 242.13H46.56s-5.18-5.18-3.04-8.48c2.29-3.5 46.66-3.5 48.95 0 2.15 3.29-3.03 8.48-3.03 8.48" fill="url(#1770301555003-5794275_n)"></path><path d="M97.39 233.65H38.62L32 225.08h72z" fill="url(#1770301555003-5794275_o)"></path><path d="M46.56 379.3h42.87v5.09H46.56z" fill="url(#1770301555003-5794275_p)"></path><path d="M44.11 381.84h47.8v5.09h-47.8z" fill="url(#1770301555003-5794275_q)"></path><path d="M94.94 400.01c-30.15 6.79-53.87 0-53.87 0-1.86-2.94 5.06-13.08 5.06-13.08h43.75s6.92 10.14 5.06 13.08" fill="url(#1770301555003-5794275_r)"></path><path d="M38.28 400.01h59.45v11.98H38.28z" fill="url(#1770301555003-5794275_s)"></path><path d="M66.3 256.46h3.41v118.29H66.3zm5.94 0h3.42v118.29h-3.42zm-11.9 0h3.42v118.29h-3.42zm17.65 0h2.7v118.29h-2.7zm-22.67 0h2.7v118.29h-2.7zm26.64 0h1.85v118.29h-1.85zm-29.77 0h1.85v118.29h-1.85z" class="az" style="isolation:isolate" fill="#99a8ae" opacity=".2"></path><path d="M32 407.99h447.99v40H32z" fill="#ccd3d9"></path><path d="M256 240c-30.94 0-56 25.08-56 56v112h112V296c0-30.92-25.06-56-56-56" class="ay" fill="#99a8ae"></path><path d="M256 248c-26.51 0-48 21.49-48 48v112h96V296c0-26.51-21.49-48-48-48" fill="#9e6c49"></path><path d="M296 307.99v44h-30v-44zm4-4h-38v52h38zm-4 60v36h-30v-36zm4-4h-38v44h38zm-54-52v44h-30v-44zm4-4h-38v52h38zm-4 60v36h-30v-36zm4-4h-38v44h38zm4-64h4v112h-4z" class="ax" fill="#785647"></path><path d="M208 295.99h96v4h-96z" class="ax" fill="#785647"></path><path d="M253 288.75v-36.59c-9.89.66-18.86 4.58-25.89 10.7zm11.24 3.25h35.55c-.86-9.5-4.74-18.1-10.66-24.89zM259 252.16v36.59l25.89-25.89c-7.02-6.13-16-10.05-25.89-10.7M247.76 292l-24.89-24.89c-5.93 6.78-9.81 15.39-10.66 24.89z" class="be" fill="#302c3b"></path><path id="1770301555003-5794275_t" d="M259 368.93v-21.87c0-1.42 2-1.42 2 0v21.87c0 1.41-2 1.41-2 0" class="at" data-name="Rectangle" fill="#b3c2c6"></path><path id="1770301555003-5794275_u" d="M259.06 347.59h1.87c1.42 0 1.42 2 0 2h-1.87c-1.42 0-1.42-2 0-2" class="bg" data-name="Rectangle" fill="#cfdbde"></path><path id="1770301555003-5794275_v" d="M259.06 366.39h1.87c1.42 0 1.42 2 0 2h-1.87c-1.42 0-1.42-2 0-2" class="bg" data-name="Rectangle" fill="#cfdbde"></path><path id="1770301555003-5794275_w" d="M251 368.93v-21.87c0-1.42 2-1.42 2 0v21.87c0 1.41-2 1.41-2 0" class="at" data-name="Rectangle" fill="#b3c2c6"></path><path id="1770301555003-5794275_x" d="M251.06 347.59h1.87c1.42 0 1.42 2 0 2h-1.87c-1.42 0-1.42-2 0-2" class="bg" data-name="Rectangle" fill="#cfdbde"></path><path id="1770301555003-5794275_y" d="M251.06 366.39h1.87c1.42 0 1.42 2 0 2h-1.87c-1.42 0-1.42-2 0-2" class="bg" data-name="Rectangle" fill="#cfdbde"></path><path d="M137.52 402.7c11.74-4.37 18.04 5.01 18.04 5.01 3.9-2.22 16.05-.84 16.82 11.86 3.34 2.18 8.04 9.62 4.78 15.19 10.9 2.46 5.5 13.24 5.5 13.24H96.02s-8.46-9.38 2.13-15.93c-2.35-4.76 2.54-16.95 11.78-17.06-2.57-2.78 4.11-7.16 9.17-7.74 2.76-6.76 11.17-9.92 18.42-4.57" class="av" fill="#7ab51d"></path><path d="M44.69 410.87c11.76-3.57 18.06 4.12 18.06 4.12 3.88-1.84 16.03-.7 16.82 9.7 3.33 1.8 8.03 7.87 4.78 12.46 10.89 2.02 5.5 10.84 5.5 10.84H3.2s-8.46-7.7 2.12-13.05c-2.35-3.91 2.54-13.9 11.78-13.99-2.57-2.29 4.13-5.86 9.18-6.34 2.77-5.54 11.17-8.12 18.41-3.74" class="av" fill="#7ab51d"></path><path d="M87.11 406.5c11.76-4 18.06 4.58 18.06 4.58 3.89-2.03 16.04-.76 16.82 10.87 3.34 1.99 8.04 8.82 4.78 13.92 10.88 2.25 5.5 12.13 5.5 12.13H45.62s-8.46-8.58 2.12-14.6c-2.35-4.35 2.54-15.51 11.78-15.62-2.56-2.54 4.12-6.56 9.18-7.09 2.78-6.2 11.16-9.1 18.42-4.18Z" class="bc" fill="#92c932"></path><path d="M374.48 402.7c-11.74-4.37-18.05 5-18.05 5-3.89-2.22-16.04-.83-16.82 11.86-3.34 2.17-8.04 9.62-4.78 15.19-10.9 2.46-5.51 13.24-5.51 13.24h86.64s8.47-9.38-2.11-15.93c2.35-4.77-2.54-16.96-11.79-17.07 2.58-2.77-4.11-7.14-9.17-7.73-2.76-6.76-11.17-9.93-18.42-4.57Z" class="av" fill="#7ab51d"></path><path d="M467.3 410.87c-11.75-3.57-18.05 4.11-18.05 4.11-3.89-1.83-16.03-.69-16.82 9.7-3.33 1.81-8.03 7.88-4.78 12.46-10.88 2.02-5.49 10.85-5.49 10.85h86.64s8.46-7.69-2.12-13.05c2.34-3.91-2.54-13.9-11.78-13.99 2.57-2.29-4.12-5.87-9.18-6.34-2.78-5.54-11.17-8.12-18.42-3.74" class="av" fill="#7ab51d"></path><path d="M424.89 406.5c-11.75-4-18.05 4.59-18.05 4.59-3.9-2.05-16.04-.78-16.82 10.84-3.34 2-8.04 8.83-4.78 13.94-10.89 2.25-5.5 12.13-5.5 12.13h86.64s8.46-8.59-2.12-14.61c2.34-4.34-2.54-15.5-11.78-15.62 2.56-2.54-4.12-6.55-9.18-7.1-2.78-6.18-11.16-9.09-18.42-4.17Z" class="bc" fill="#92c932"></path><path d="M357.25 439.99h-202.5c-3.49 0-6.75 2.5-6.75 5.23v2.77h216v-2.77c0-2.73-3.26-5.23-6.74-5.23Z" class="au" fill="#cfd8dd"></path><path d="M345.25 431.99H166.76c-3.49 0-6.75 2.5-6.75 5.23v2.77h192v-2.77c0-2.73-3.26-5.23-6.75-5.23Z" class="bf" fill="#e6ebef"></path><path d="M333.25 423.99H178.76c-3.49 0-6.75 2.5-6.75 5.23v2.77h168v-2.77c0-2.73-3.26-5.23-6.75-5.23Z" class="au" fill="#cfd8dd"></path><path d="M321.25 415.99H190.76c-3.49 0-6.75 2.5-6.75 5.23v2.77h144v-2.77c0-2.73-3.26-5.23-6.75-5.23Z" class="bf" fill="#e6ebef"></path><path d="M309.25 407.99H202.76c-3.49 0-6.75 2.5-6.75 5.23v2.77h120v-2.77c0-2.73-3.26-5.23-6.75-5.23Z" class="au" fill="#cfd8dd"></path><path d="M340 272h64v80h-64z" class="ay" fill="#99a8ae"></path><path d="M344 276h56v72h-56z" class="be" fill="#302c3b"></path><path d="M342 309.99h60v4h-60z" class="ay" fill="#99a8ae"></path><path d="M370 274h4v76h-4zm-262-2h64v80h-64z" class="ay" fill="#99a8ae"></path><path d="M112 276h56v72h-56z" class="be" fill="#302c3b"></path><path d="M110 309.99h60v4h-60z" class="ay" fill="#99a8ae"></path><path d="M138 274h4v76h-4z" class="ay" fill="#99a8ae"></path><path d="M25.6 179.78h460.79v23.14H25.6z" class="bf" fill="#e6ebef"></path><path d="M487.47 216H24.53c-13.22 0-13.22-17.36 0-17.36h462.93c13.23 0 13.23 17.36 0 17.36Z" class="au" fill="#cfd8dd"></path><path d="M255.9 14.19 20.1 156.11v21.25h471.8v-21.25z" class="bf" fill="#e6ebef"></path><path d="M255.9 0 0 158.29l16 11.81L255.9 21.71 496 170.1l16-11.82z" fill="#b9c7cf"></path><path d="M255.9 28.48 16 176.87v6.77h480v-6.77z" class="au" fill="#cfd8dd"></path><path d="M255.9 42.3 56.66 169.16h398.68z" fill="url(#1770301555003-5794275_z)"></path><path d="M200.88 133.85c1.91-.65 3.5-1.66 4.62-3.15 1.24-1.64 1.86-3.54 1.86-5.76q0-4.83-3.66-7.62c-2.43-1.84-5.7-2.78-9.83-2.78h-18.42v40h18.99c4.34 0 7.76-.99 10.25-2.96s3.74-4.63 3.74-7.99c0-2.58-.71-4.74-2.12-6.47-1.27-1.57-3.14-2.62-5.42-3.26Zm-16.82-12.55h8.36c2.26 0 3.91.38 5 1.14 1.09.77 1.62 1.98 1.62 3.63s-.52 2.81-1.59 3.58c-1.06.8-2.75 1.18-5.03 1.18h-8.36v-9.54Zm14.51 25.32c-1.07.79-2.78 1.18-5.14 1.18h-9.38v-10.22h9.38c2.36 0 4.07.42 5.14 1.27 1.07.83 1.6 2.14 1.6 3.9s-.53 3.09-1.6 3.87m29.68-32.07-18.37 40h8.83l3.83-8.88h18.65l3.81 8.88h8.7l-18.36-40zm-2.83 24.44 6.48-14.98 6.42 14.98zm58.1 1.02-19.94-25.46h-6.45v40h8.19v-25.48l19.94 25.48h6.52v-40h-8.26zm53.02 14.54-19.32-20.86 18.59-19.14h-10.45l-16.79 17.62v-17.62h-8.75v40h8.75v-18.49l17.41 18.49z" fill="#6e8189"></path></g></svg>
