<svg xmlns="http://www.w3.org/2000/svg" data-name="Layer 1" style="" viewBox="0 0 512 512.06"><g><defs><radialGradient id="1770301555033-4792498_b" cx="-198.88" cy="1421.34" r="17.09" fx="-198.88" fy="1430" gradientTransform="matrix(5.48255 -6.54776 -10.28932 -8.58431 16021.63 10970.36)" gradientUnits="userSpaceOnUse"><stop offset=".06" stop-color="#73efff"></stop><stop offset=".28" stop-color="#70edff"></stop><stop offset=".45" stop-color="#67e5ff"></stop><stop offset=".59" stop-color="#57d8ff"></stop><stop offset=".72" stop-color="#42c7ff"></stop><stop offset=".84" stop-color="#25afff"></stop><stop offset=".95" stop-color="#0393ff"></stop><stop offset=".96" stop-color="#0091ff"></stop></radialGradient><radialGradient id="1770301555033-4792498_d" cx="-87.84" cy="497.94" r="13.29" fx="-87.84" fy="504.68" gradientTransform="matrix(8.35338 -1.77557 -2.80934 -13.10222 2431.75 6703)" gradientUnits="userSpaceOnUse"><stop offset=".06" stop-color="#73efff"></stop><stop offset=".28" stop-color="#70edff"></stop><stop offset=".45" stop-color="#67e5ff"></stop><stop offset=".59" stop-color="#57d8ff"></stop><stop offset=".72" stop-color="#42c7ff"></stop><stop offset=".84" stop-color="#25afff"></stop><stop offset=".95" stop-color="#0393ff"></stop><stop offset=".96" stop-color="#0091ff"></stop></radialGradient><radialGradient id="1770301555033-4792498_f" cx="168.2" cy="98.72" r="13.29" fx="168.2" fy="105.46" gradientTransform="matrix(8.46983 1.09252 1.69209 -13.29275 -1494.21 1326.77)" gradientUnits="userSpaceOnUse"><stop offset=".06" stop-color="#73efff"></stop><stop offset=".28" stop-color="#70edff"></stop><stop offset=".45" stop-color="#67e5ff"></stop><stop offset=".59" stop-color="#57d8ff"></stop><stop offset=".72" stop-color="#42c7ff"></stop><stop offset=".84" stop-color="#25afff"></stop><stop offset=".95" stop-color="#0393ff"></stop><stop offset=".96" stop-color="#0091ff"></stop></radialGradient><linearGradient id="1770301555033-4792498_c" x1="516.62" x2="516.62" y1="326.5" y2="483.93" gradientTransform="matrix(1.17973 .02533 .02147 -.99977 -312.39 485.65)" gradientUnits="userSpaceOnUse"><stop offset=".05" stop-color="#c4eeff" stop-opacity="0"></stop><stop offset=".45" stop-color="#cdf0ff" stop-opacity=".42"></stop><stop offset="1" stop-color="#d4f2ff"></stop></linearGradient><linearGradient id="1770301555033-4792498_e" x1="1149.8" x2="1149.8" y1="-335.41" y2="-212.98" gradientTransform="matrix(.91326 .74723 .63325 -.77395 -591.86 -728.41)" gradientUnits="userSpaceOnUse"><stop offset=".05" stop-color="#c4eeff" stop-opacity="0"></stop><stop offset=".45" stop-color="#cdf0ff" stop-opacity=".42"></stop><stop offset="1" stop-color="#d4f2ff"></stop></linearGradient><linearGradient id="1770301555033-4792498_g" x1="1340.4" x2="1340.4" y1="-432.25" y2="-309.85" gradientTransform="rotate(-58.65 985.255 -1050.698) scale(1.18 -1)" gradientUnits="userSpaceOnUse"><stop offset=".05" stop-color="#c4eeff" stop-opacity="0"></stop><stop offset=".45" stop-color="#cdf0ff" stop-opacity=".42"></stop><stop offset="1" stop-color="#d4f2ff"></stop></linearGradient></defs><path d="M413.1 20.84c-91.32-44.89-237.51-4.78-249.71 5.12-4.86 3.93-5.29 9.05 4.61 14.17 56.75 29.36 83.04 57.86 122.29 137.91C398.33 398.9 651.2 137.93 413.1 20.84" fill="url(#1770301555033-4792498_b)"></path><path d="M375.04 29.03c-69.72-28.76-181.01-7-190.4-.85-3.76 2.47-4.18 5.72 3.33 9.22 42.84 19.8 69.04 39 95.67 87.99 69.38 127.84 244.08-33.37 91.4-96.35Z" fill="url(#1770301555033-4792498_c)"></path><path d="M387.93 352.14c-34.39-71.26-143.12-116.75-155.32-116.49-4.86.09-7.6 2.99-3.93 10.84 20.65 45.15 23.13 75.19 8.7 143.03-39.6 186.98 240.24 148.41 150.54-37.38Z" fill="url(#1770301555033-4792498_d)"></path><path d="M360.79 338.91c-28.85-51.03-107.45-90.97-116.15-91.74-3.5-.26-5.29 1.54-2.39 7.17 16.73 32.69 23.55 56.92 16.39 99.76-18.78 111.54 165.39 96.52 102.15-15.19" fill="url(#1770301555033-4792498_e)"></path><path d="M176.02 242.3C167.23 163.7 79.67 84.76 68.15 80.92c-4.61-1.54-8.11.34-7.34 8.96 4.52 49.41-3.07 78.6-39.17 137.83-99.42 163.26 177.34 219.67 154.38 14.59" fill="url(#1770301555033-4792498_f)"></path><path d="M154.69 220.8c-10.33-57.69-71.18-121.44-79.2-125.03-3.16-1.45-5.46-.34-4.61 5.97 4.95 36.36 3.41 61.53-17.58 99.51-54.7 99 124.09 145.93 101.39 19.54Z" fill="url(#1770301555033-4792498_g)"></path></g></svg>
