<svg xmlns="http://www.w3.org/2000/svg" data-name="Layer 1" style="" viewBox="0 0 512 548.55"><g><defs><linearGradient id="1770301555048-4130803_b" x1="36.57" x2="475.41" y1="129.99" y2="129.99" gradientTransform="matrix(1 0 0 -1 0 550.55)" gradientUnits="userSpaceOnUse"><stop offset="0" stop-color="#ffd491"></stop><stop offset=".12" stop-color="#ebc384"></stop><stop offset=".54" stop-color="#a88b58"></stop><stop offset=".84" stop-color="#7e673c"></stop><stop offset="1" stop-color="#6e5a32"></stop></linearGradient><linearGradient id="1770301555048-4130803_c" x1="255.99" x2="255.99" y1="131.73" y2="257.99" gradientTransform="matrix(1 0 0 -1 0 550.55)" gradientUnits="userSpaceOnUse"><stop offset=".25" stop-color="#0f0b06" stop-opacity="0"></stop><stop offset="1" stop-color="#0f0b06"></stop></linearGradient><linearGradient id="1770301555048-4130803_d" x1="1728.54" x2="1728.54" y1="-733.53" y2="-465.53" gradientTransform="matrix(.51 0 0 -.69 -620.22 34.89)" gradientUnits="userSpaceOnUse"><stop offset="0" stop-color="#4d3624"></stop><stop offset="1" stop-color="#120c08"></stop></linearGradient><linearGradient id="1770301555048-4130803_e" x1="0" x2="512" y1="265.8" y2="265.8" gradientTransform="matrix(1 0 0 -1 0 550.55)" gradientUnits="userSpaceOnUse"><stop offset="0" stop-color="#ffd491"></stop><stop offset=".12" stop-color="#ebc384"></stop><stop offset=".54" stop-color="#a88b58"></stop><stop offset=".84" stop-color="#7e673c"></stop><stop offset="1" stop-color="#6e5a32"></stop></linearGradient><linearGradient id="1770301555048-4130803_f" x1="49.99" x2="461.98" y1="344.43" y2="344.43" gradientTransform="matrix(1 0 0 -1 0 550.55)" gradientUnits="userSpaceOnUse"><stop offset="0" stop-color="#ffd491"></stop><stop offset=".17" stop-color="#f1c887"></stop><stop offset=".49" stop-color="#cba86d"></stop><stop offset=".92" stop-color="#8e7543"></stop><stop offset="1" stop-color="#826b3b"></stop></linearGradient><linearGradient id="1770301555048-4130803_g" x1="86.07" x2="425.92" y1="394.23" y2="394.23" gradientTransform="matrix(1 0 0 -1 0 550.55)" gradientUnits="userSpaceOnUse"><stop offset="0" stop-color="#ffd491"></stop><stop offset=".12" stop-color="#ebc384"></stop><stop offset=".54" stop-color="#a88b58"></stop><stop offset=".84" stop-color="#7e673c"></stop><stop offset="1" stop-color="#6e5a32"></stop></linearGradient><linearGradient id="1770301555048-4130803_h" x1="125.6" x2="386.33" y1="454.62" y2="454.62" gradientTransform="matrix(1 0 0 -1 0 550.55)" gradientUnits="userSpaceOnUse"><stop offset="0" stop-color="#ffd491"></stop><stop offset=".17" stop-color="#f1c887"></stop><stop offset=".49" stop-color="#cba86d"></stop><stop offset=".92" stop-color="#8e7543"></stop><stop offset="1" stop-color="#826b3b"></stop></linearGradient><linearGradient id="1770301555048-4130803_i" x1="28.15" x2="185.09" y1="572.34" y2="572.34" gradientTransform="matrix(1.11 0 0 -1.07 137.26 659.87)" gradientUnits="userSpaceOnUse"><stop offset="0" stop-color="#ffd491"></stop><stop offset=".12" stop-color="#ebc384"></stop><stop offset=".54" stop-color="#a88b58"></stop><stop offset=".84" stop-color="#7e673c"></stop><stop offset="1" stop-color="#6e5a32"></stop></linearGradient></defs><path d="M461.71 533.35a1399.4 1399.4 0 0 1-411.57-.02c-11.51-1.71-13.58-8.98-13.58-14.84V292.56H475.4v221.4c0 12.05-2.25 17.67-13.7 19.38Z" fill="url(#1770301555048-4130803_b)"></path><path d="M36.57 292.57h438.84v126.26H36.57z" style="isolation:isolate" fill="url(#1770301555048-4130803_c)" opacity=".4"></path><path d="M331.27 534.58c-24.72 4.22-122.06 8.86-150.63-1.14-12.32-4.32-3.79-36-3.79-56.35 0-17.83-2.09-42.3-2.09-61.17s-4.48-61.71 7.09-59.31c49.65 10.33 104.79-6.44 143.59 0 11.79 1.96 7.84 44.28 7.84 63.09s3.59 40.36 3.59 58.21c0 20.34 5.98 54.7-5.6 56.67" fill="url(#1770301555048-4130803_d)"></path><path d="M81.01 217.92C46.99 270.03 3.42 303.75.04 320.56c-1.2 5.96 27.95-11.72 27.95-11.72s-10.45 22.83-7.31 24.66c7.14 4.16 23.72-20.53 23.72-20.53s1.43 12.21 4.91 17.72c4.76 7.52 23.43-22.38 23.43-22.38s-2.77 21.48 2.63 24.02c8.18 3.87 29.07-21.83 29.07-21.83s-3.36 35.23 2.38 36.82c7.8 2.17 27.14-29.88 27.14-29.88s4.14 16.08 11.56 22.77c5.49 4.95 21.51-27.24 21.51-27.24s3.81 30.69 10.05 31.55c6.44.88 21.03-25.32 21.03-25.32s6.87 15.24 13.59 15.83c6.62.58 21.8-15.83 21.8-15.83s21.1 32.41 28.9 32.41 16.05-32.41 16.05-32.41 13.91 22.91 20.52 22.33c6.73-.59 14.88-22.33 14.88-22.33s15.74 21.06 22.18 20.17c6.24-.85 8.9-26.41 8.9-26.41s16.03 32.18 21.51 27.24c7.42-6.69 11.57-22.77 11.57-22.77s14.78 18.64 22.59 16.47c5.74-1.59 6.94-23.42 6.94-23.42s20.88 25.7 29.06 21.83c5.41-2.54 2.64-24.02 2.64-24.02s18.66 29.9 23.43 22.38c3.48-5.51 4.91-17.72 4.91-17.72s13.81 19.62 20.95 15.46c3.14-1.83 4.34-13.97 4.34-13.97s20.27 12.07 19.07 6.11c-3.38-16.81-46.96-50.53-80.97-102.64H81.01v.02Z" fill="url(#1770301555048-4130803_e)"></path><path d="M46 303.13s21.66-43.8 62.15-104.11C75.69 257.51 46 303.13 46 303.13m29.37 0s17.66-41.76 54.02-104.11c-27.92 59.9-54.02 104.11-54.02 104.11m31.45 2.65s11.87-43.64 43.1-106.76c-23.78 60.97-43.1 106.76-43.1 106.76m30.48 0s7.3-44.5 33.63-106.76c-18.23 57.55-33.63 106.76-33.63 106.76m29.73 3.06s2.54-47.79 26.03-109.82c-15.81 58.82-26.03 109.82-26.03 109.82m28.75 6.65s1.39-59.33 19.27-116.47c-11.08 60.76-19.27 116.47-19.27 116.47m31.72 0s-5.2-54 8.93-116.47c-6.43 61.81-8.93 116.47-8.93 116.47m238.46-12.36s-21.66-43.8-62.15-104.11c32.46 58.49 62.15 104.11 62.15 104.11m-29.37 0s-17.66-41.76-54.01-104.11c27.91 59.9 54.01 104.11 54.01 104.11m-31.45 2.65s-11.87-43.64-43.1-106.76c23.78 60.97 43.1 106.76 43.1 106.76m-30.49 0s-7.3-44.5-33.62-106.76c18.24 57.55 33.62 106.76 33.62 106.76m-29.72 3.06s-2.54-47.79-26.04-109.82c15.81 58.82 26.04 109.82 26.04 109.82m-28.76 6.65s-1.39-59.33-19.27-116.47c11.09 60.76 19.27 116.47 19.27 116.47m-31.71 0s5.2-54-8.93-116.47c6.43 61.81 8.93 116.47 8.93 116.47m-28.47.01s4.07-73.9 0-116.47c-4.12 40.73 0 116.47 0 116.47" class="r" style="isolation:isolate" fill="#1a1626" opacity=".15"></path><path d="M379.88 142.55H130.91c-34.47 52.33-73.59 87.89-80.75 99.88-2.72 4.54 28.04-9.49 28.04-9.49s-9.33 14.02-5.53 14.73c5.19.99 19.4-12.05 19.4-12.05s.67 13.84 5.46 14.64c5.89.96 22.74-14.93 22.74-14.93s-3.81 20.85 2.14 21.15c5.38.25 20.93-19.71 20.93-19.71s-.58 25.74 4.5 26.56c6.53 1.05 20.47-24.49 20.47-24.49s6.86 16.39 12.31 16.79c5.51.41 13.42-18.07 13.42-18.07s.36 22.29 6.03 22.49c5.29.18 17.86-20.31 17.86-20.31s6.88 21.96 13.11 21.82c5.72-.14 11.16-20.63 11.16-20.63s11.91 28.77 17.91 28.77 8.5-28.77 8.5-28.77 7.81 19.6 13.52 19.73c6.23.15 10.74-20.92 10.74-20.92s8.65 21.38 13.93 21.19c5.67-.19 9.96-23.39 9.96-23.39s7.91 18.48 13.41 18.07c5.46-.4 10.67-19.65 10.67-19.65s11.42 21.06 17.96 20c5.07-.82 8.66-19.22 8.66-19.22s16.28 21.75 21.66 21.5c5.95-.27 6.63-24.67 6.63-24.67s11.63 17.64 17.52 16.67c4.79-.79 5.06-14.03 5.06-14.03s14.62 12.44 19.81 11.46c3.79-.71-1.62-13.24-1.62-13.24s27.64 13.24 25.33 8.46c-4.96-10.34-45.57-46.37-81.96-100.35Z" fill="url(#1770301555048-4130803_f)"></path><path d="M415.7 224.9s-19.25-26.9-49.01-66.65c22.51 38.22 49.01 66.65 49.01 66.65m-24.52 2.38s-16.99-28.79-42.55-69.03c19.18 38.87 42.55 69.03 42.55 69.03m-31.85 4.23s-7.52-33.57-29.16-73.26c14.72 36.73 29.16 73.26 29.16 73.26m-26.81 0s-2.34-33.72-21.8-73.26c12.88 37.53 21.8 73.26 21.8 73.26m-25.72 0s-.44-36.78-15.43-73.26c9.04 38.74 15.43 73.26 15.43 73.26m-27.09 0s4.83-33.43-7.14-73.26c5.31 39.41 7.14 73.26 7.14 73.26m-24.31.01s3.54-46 0-73.27c-3.58 26.1 0 73.27 0 73.27m-160.15-4.24s19.09-29.27 48.86-69.03c-22.54 38.22-48.86 69.03-48.86 69.03m28.03 1.49s13.32-30.29 38.87-70.52c-19.17 38.87-38.87 70.52-38.87 70.52m28.17 2.74s7.53-33.57 29.16-73.26c-14.72 36.73-29.16 73.26-29.16 73.26m26.82 0s2.34-33.72 21.8-73.26c-12.87 37.53-21.8 73.26-21.8 73.26m25.72 0s.44-36.78 15.43-73.26c-9.05 38.74-15.43 73.26-15.43 73.26m27.08 0s-4.84-33.43 7.14-73.26c-5.3 39.41-7.14 73.26-7.14 73.26" class="r" style="isolation:isolate" fill="#1a1626" opacity=".15"></path><path d="M359.43 113.28H151.86c-32.36 39.98-63.71 62.74-65.71 69.66-1.94 6.76 28.4-11.03 28.4-11.03s-5.64 17.71-2.31 19.35c5.57 2.77 18.38-17.55 18.38-17.55s.74 13.28 5.03 14.87c6.6 2.45 20.76-16.97 20.76-16.97s.29 16.71 5.35 18.13c6.57 1.86 19.5-19.65 19.5-19.65s2.21 21.48 7.94 22.64c6.3 1.27 17.19-19.65 17.19-19.65s5.19 23.96 11.02 24.74c6.67.89 23.55-20.54 23.55-20.54s8.24 17.25 14.95 17.25 18.39-20.1 18.39-20.1 12.46 20.38 19.14 19.5c5.83-.77 11.99-20.84 11.99-20.84s13.47 27.5 19.77 26.22c5.73-1.15 5.38-29.2 5.38-29.2s12.93 21.51 19.5 19.65c5.06-1.42 5.49-20.86 5.49-20.86s19.11 25.12 25.7 22.67c4.31-1.59.04-23.09.04-23.09s14.8 17.21 20.38 14.44c3.32-1.65-2.19-11.58-2.19-11.58s29.3 17.9 26.21 11.62c-3.81-7.74-33.46-27.89-66.26-69.67Z" fill="url(#1770301555048-4130803_g)"></path><path d="M379.79 166.09s-15.73-28.97-42.78-61.4c21.08 31.29 42.78 61.4 42.78 61.4m-25.48 0s-10.68-29.43-33.35-61.4c16.1 29.48 33.35 61.4 33.35 61.4m-25.38 0s-4.99-29.55-24.9-61.4c13.79 30.15 24.9 61.4 24.9 61.4m-24.35 0s-2.48-32.14-17.38-61.4c9.63 31.18 17.38 61.4 17.38 61.4m-25.64 0s3.49-29.31-8.07-61.4c5.49 31.73 8.07 61.4 8.07 61.4m-23.02 0s3.17-39.75 0-61.41c-3.2 20.7 0 61.41 0 61.41m-123.87 0s15.73-28.97 42.78-61.4c-21.07 31.29-42.78 61.4-42.78 61.4m25.48 0s10.68-29.43 33.35-61.4c-16.1 29.48-33.35 61.4-33.35 61.4m25.39 0s4.98-29.55 24.89-61.4c-13.77 30.15-24.89 61.4-24.89 61.4m24.33 0s2.47-32.14 17.38-61.4c-9.62 31.18-17.38 61.4-17.38 61.4m25.65 0s-3.5-29.31 8.07-61.4c-5.5 31.73-8.07 61.4-8.07 61.4" class="r" style="isolation:isolate" fill="#1a1626" opacity=".15"></path><path d="M307.92 51.65H203.93c-33.56 42.13-73.83 68.9-78.15 74.77-2.34 3.18 18.77-4.29 18.77-4.29s-4.85 8.27-2.2 9.44c4.84 2.13 18.62-9.03 18.62-9.03s-.16 8.77 2.76 9.79c4.74 1.65 16.19-12.06 16.19-12.06s-1.1 16.21 2.19 17.26c4.53 1.44 16.77-13.2 16.77-13.2s1.13 9.52 4.38 10.39c4.78 1.27 14.74-13.54 14.74-13.54s3.15 11.14 7.44 11.69c5.06.66 11.73-10.54 11.73-10.54s5.84 14.29 10.29 14.19c4.15-.1 8.45-14.74 8.45-14.74s6.34 14.98 10.5 15.07c4.44.11 7.68-15.72 7.68-15.72s8.71 19.75 13.76 19.09c4.32-.57 5.97-19.04 5.97-19.04s11.6 17.53 16.37 16.26c3.25-.87 2.83-15.76 2.83-15.76s9.4 10.46 13.93 9.01c3.28-1.05 4.93-10.41 4.93-10.41s11.46 13.71 16.19 12.06c2.93-1.02 3.56-12.21 3.56-12.21s12.49 12.14 17.84 11.46c2.85-.36-.41-9.59-.41-9.59s19.99 6.95 16.96 4.43c-11.07-9.23-49.61-36.04-78.1-74.76Z" fill="url(#1770301555048-4130803_h)"></path><path d="M350.88 114.54s-15.43-20.42-37.91-45.9c17.98 24.55 37.91 45.9 37.91 45.9m-19.54 1.78s-10.96-22.57-29.69-47.69c13.7 23.08 29.69 47.69 29.69 47.69m-19.45 2.6s-5.99-25.3-22.14-50.29c11.55 23.62 22.14 50.29 22.14 50.29m-18.65 0s-3.5-27.38-15.33-50.29c8.04 24.47 15.33 50.29 15.33 50.29m-19.63 0s1.81-25.1-7.17-50.29c4.52 24.92 7.17 50.29 7.17 50.29m-17.66 0s2.28-33.52-.04-50.29c-2.31 16 .04 50.29.04 50.29m-97.33-3.19s17.78-21.6 40.26-47.08c-17.98 24.54-40.26 47.08-40.26 47.08m20.13 0s12.72-21.97 31.45-47.08c-13.7 23.07-31.45 47.08-31.45 47.08m21.2 3.19s5.99-25.3 22.14-50.29c-11.56 23.62-22.14 50.29-22.14 50.29m18.65 0s3.5-27.38 15.33-50.29c-8.04 24.47-15.33 50.29-15.33 50.29m19.64 0s-1.81-25.1 7.18-50.29c-4.52 24.92-7.18 50.29-7.18 50.29" class="r" style="isolation:isolate" fill="#1a1626" opacity=".15"></path><path d="M331.18 75.65s16.28 5.52 11.22 1.19C329.03 65.39 315.81 46.93 257.12 0c-51.01 40.43-79.95 68.57-87.88 80.25-3.99 5.88 12.24-3.82 12.24-3.82s-3.04 10.02-.63 10.39c2.94.46 15.23-11.56 15.23-11.56s-1.21 11.23.98 12.49c4.2 2.42 13.88-13.51 13.88-13.51s1.78 9.72 5.06 11.29c2.79 1.33 12.24-12.18 12.24-12.18s.69 15.31 4.33 16.58c5.04 1.77 14.47-19.08 14.47-19.08s2.32 20.13 6.53 20.13c2.43 0 11.48-16.58 11.48-16.58s8.76 21.63 13.81 19.86c3.64-1.29 2.46-20.4 2.46-20.4s11.26 18.55 14.74 15.48c2.86-2.53 2.45-14.39 2.45-14.39s14.02 16.21 15.82 12.71c2.16-4.19.49-13.15.49-13.15s13.46 13.38 15.72 10.83c2.4-2.72.65-9.7.65-9.7Z" fill="url(#1770301555048-4130803_i)"></path><path d="M257.11 0s-29.23 20.96-54.74 65.69C230.33 23.59 257.11 0 257.11 0" class="r" style="isolation:isolate" fill="#1a1626" opacity=".15"></path><path d="M257.11 0s-19.73 22.07-36.06 65.69C236.38 31.26 257.11 0 257.11 0m0 0s-11.32 24.81-18.03 65.69C247.75 34.71 257.11 0 257.11 0m0 0s24.52 18.97 54.86 65.69C285.25 18.39 257.11 0 257.11 0" class="r" style="isolation:isolate" fill="#1a1626" opacity=".15"></path><path d="M257.11 0s18.76 25.96 35.41 66.89C277.83 20.09 257.11 0 257.11 0" class="r" style="isolation:isolate" fill="#1a1626" opacity=".15"></path><path d="M257.11 0s8.84 17.85 17.7 66.89c-4-44.45-17.7-66.89-17.7-66.89m0 0s.94 32.16 0 67.93c4.79-34.42 0-67.93 0-67.93" class="r" style="isolation:isolate" fill="#1a1626" opacity=".15"></path></g></svg>
