<svg xmlns="http://www.w3.org/2000/svg" data-name="Layer 1" style="" viewBox="0 0 512 445.93"><g><defs><linearGradient id="1770301555073-5004438_b" x1="211.62" x2="260.82" y1="90.43" y2="90.43" gradientTransform="matrix(1 0 0 -1 0 441.93)" gradientUnits="userSpaceOnUse"><stop offset="0" stop-color="#677339"></stop><stop offset=".3" stop-color="#647037"></stop><stop offset=".54" stop-color="#5a6632"></stop><stop offset=".74" stop-color="#4a562a"></stop><stop offset=".94" stop-color="#333f1e"></stop><stop offset="1" stop-color="#2a361a"></stop></linearGradient></defs><path d="M272.11 269.37C395.5 409.63 512 248.66 512 248.66s-168.07-56.49-239.89 20.71" class="d" fill="#7ab51d"></path><path d="M270.33 255.6c88.19-54.86 241.67-6.94 241.67-6.94s-182.64-186.6-241.67 6.94" class="f" fill="#92c932"></path><path d="M253.75 267.13c-17.37 17.84-15.66 49.23 4 22.74 65.07-87.72 214.1-49.65 254.26-41.22-38.71-11.12-179.01-62.93-258.25 18.47Z" class="e" fill="#529320"></path><path d="M240.85 262.89c-3.82-12.74-25.9-3.91-18.68 20.34 10.84 36.4 4.72 123.63-10.21 156.04-4.39 9.5 33.68 8.76 34.67-1.71 7.19-76.13-2.4-127.78 13.05-147.21 6.24-7.84-15.19-15.34-18.83-27.47Z" fill="url(#1770301555073-5004438_b)"></path><path d="M203.44 200.74C0 285.89 0 0 0 0s137.56 91.81 203.44 200.74" class="d" fill="#7ab51d"></path><path d="M203.44 200.74C159.49 108.06 0 0 0 0s274.97 0 203.44 200.74" class="f" fill="#92c932"></path><path d="M236.06 258.34C195.86 126.84 41.17 24.98 0 0c41.79 28.73 203.44 172.26 222.54 277.74.84 4.59 18.06-4.55 13.52-19.41Z" class="e" fill="#529320"></path></g></svg>
