<svg xmlns="http://www.w3.org/2000/svg" data-name="Layer 1" style="" viewBox="0 0 512 512"><g><defs><linearGradient id="1770301555082-7842980_b" x1="128.56" x2="200.94" y1="506.05" y2="506.05" gradientTransform="scale(1 -1) rotate(22.5 1969.405 416.425)" gradientUnits="userSpaceOnUse"><stop offset="0" stop-color="#ffc800"></stop><stop offset=".87" stop-color="#ffba00"></stop><stop offset="1" stop-color="#ffb700"></stop></linearGradient><linearGradient id="1770301555082-7842980_c" x1="102.97" x2="152.1" y1="506.05" y2="506.05" gradientTransform="scale(1 -1) rotate(22.5 1969.405 416.425)" gradientUnits="userSpaceOnUse"><stop offset="0" stop-color="#ffc800"></stop><stop offset=".87" stop-color="#ffba00"></stop><stop offset="1" stop-color="#ffb700"></stop></linearGradient><linearGradient id="1770301555082-7842980_d" x1="896.85" x2="969.24" y1="55.82" y2="55.82" gradientTransform="scale(1 -1) rotate(-67.5 399.489 426.864)" gradientUnits="userSpaceOnUse"><stop offset="0" stop-color="#ffc800"></stop><stop offset=".87" stop-color="#ffba00"></stop><stop offset="1" stop-color="#ffb700"></stop></linearGradient><linearGradient id="1770301555082-7842980_e" x1="871.26" x2="920.39" y1="55.81" y2="55.81" gradientTransform="scale(1 -1) rotate(-67.5 399.489 426.864)" gradientUnits="userSpaceOnUse"><stop offset="0" stop-color="#ffc800"></stop><stop offset=".87" stop-color="#ffba00"></stop><stop offset="1" stop-color="#ffb700"></stop></linearGradient><linearGradient id="1770301555082-7842980_f" x1="424.63" x2="497.02" y1="123.53" y2="123.53" gradientTransform="scale(1 -1) rotate(-22.5 -452.008 446.594)" gradientUnits="userSpaceOnUse"><stop offset="0" stop-color="#ffc800"></stop><stop offset=".87" stop-color="#ffba00"></stop><stop offset="1" stop-color="#ffb700"></stop></linearGradient><linearGradient id="1770301555082-7842980_g" x1="399.04" x2="448.18" y1="123.53" y2="123.53" gradientTransform="scale(1 -1) rotate(-22.5 -452.008 446.594)" gradientUnits="userSpaceOnUse"><stop offset="0" stop-color="#ffc800"></stop><stop offset=".87" stop-color="#ffba00"></stop><stop offset="1" stop-color="#ffb700"></stop></linearGradient><linearGradient id="1770301555082-7842980_h" x1="1279.49" x2="1351.88" y1="351.92" y2="351.92" gradientTransform="scale(-1 1) rotate(67.5 640.026 -892.463)" gradientUnits="userSpaceOnUse"><stop offset="0" stop-color="#ffc800"></stop><stop offset=".87" stop-color="#ffba00"></stop><stop offset="1" stop-color="#ffb700"></stop></linearGradient><linearGradient id="1770301555082-7842980_i" x1="1253.9" x2="1303.03" y1="351.91" y2="351.91" gradientTransform="scale(-1 1) rotate(67.5 640.026 -892.463)" gradientUnits="userSpaceOnUse"><stop offset="0" stop-color="#ffc800"></stop><stop offset=".87" stop-color="#ffba00"></stop><stop offset="1" stop-color="#ffb700"></stop></linearGradient><linearGradient id="1770301555082-7842980_j" x1="242.13" x2="269.85" y1="96.75" y2="96.75" gradientTransform="matrix(1 0 0 -1 0 514)" gradientUnits="userSpaceOnUse"><stop offset="0" stop-color="#677339"></stop><stop offset=".24" stop-color="#626e37"></stop><stop offset=".51" stop-color="#546030"></stop><stop offset=".81" stop-color="#3e4a24"></stop><stop offset="1" stop-color="#2a361a"></stop></linearGradient><linearGradient id="1770301555082-7842980_k" x1="232.61" x2="305" y1="317.74" y2="317.74" gradientTransform="matrix(1 0 0 -1 0 514)" gradientUnits="userSpaceOnUse"><stop offset="0" stop-color="#ffe354"></stop><stop offset=".23" stop-color="#ffde46"></stop><stop offset=".67" stop-color="#ffd220"></stop><stop offset="1" stop-color="#ffc800"></stop></linearGradient><linearGradient id="1770301555082-7842980_l" x1="207.01" x2="256.15" y1="317.74" y2="317.74" gradientTransform="matrix(1 0 0 -1 0 514)" gradientUnits="userSpaceOnUse"><stop offset="0" stop-color="#ffe354"></stop><stop offset=".23" stop-color="#ffde46"></stop><stop offset=".67" stop-color="#ffd220"></stop><stop offset="1" stop-color="#ffc800"></stop></linearGradient><linearGradient id="1770301555082-7842980_m" x1="1085.33" x2="1157.72" y1="159.44" y2="159.44" gradientTransform="matrix(0 1 1 0 96.56 -912.45)" gradientUnits="userSpaceOnUse"><stop offset="0" stop-color="#ffe354"></stop><stop offset=".23" stop-color="#ffde46"></stop><stop offset=".67" stop-color="#ffd220"></stop><stop offset="1" stop-color="#ffc800"></stop></linearGradient><linearGradient id="1770301555082-7842980_n" x1="1059.73" x2="1108.86" y1="159.44" y2="159.44" gradientTransform="matrix(0 1 1 0 96.56 -912.45)" gradientUnits="userSpaceOnUse"><stop offset="0" stop-color="#ffe354"></stop><stop offset=".23" stop-color="#ffde46"></stop><stop offset=".67" stop-color="#ffd220"></stop><stop offset="1" stop-color="#ffc800"></stop></linearGradient><linearGradient id="1770301555082-7842980_o" x1="631.32" x2="703.68" y1="63.49" y2="63.49" gradientTransform="scale(1 -1) rotate(-45 141.76 415.001)" gradientUnits="userSpaceOnUse"><stop offset="0" stop-color="#ffe354"></stop><stop offset=".23" stop-color="#ffde46"></stop><stop offset=".67" stop-color="#ffd220"></stop><stop offset="1" stop-color="#ffc800"></stop></linearGradient><linearGradient id="1770301555082-7842980_p" x1="605.71" x2="654.85" y1="63.49" y2="63.49" gradientTransform="scale(1 -1) rotate(-45 141.76 415.001)" gradientUnits="userSpaceOnUse"><stop offset="0" stop-color="#ffe354"></stop><stop offset=".23" stop-color="#ffde46"></stop><stop offset=".67" stop-color="#ffd220"></stop><stop offset="1" stop-color="#ffc800"></stop></linearGradient><linearGradient id="1770301555082-7842980_q" x1="1339.45" x2="1411.82" y1="557.98" y2="557.98" gradientTransform="scale(-1 1) rotate(45 990.146 -1577.027)" gradientUnits="userSpaceOnUse"><stop offset="0" stop-color="#ffe354"></stop><stop offset=".23" stop-color="#ffde46"></stop><stop offset=".67" stop-color="#ffd220"></stop><stop offset="1" stop-color="#ffc800"></stop></linearGradient><linearGradient id="1770301555082-7842980_r" x1="1313.84" x2="1362.97" y1="557.98" y2="557.98" gradientTransform="scale(-1 1) rotate(45 990.146 -1577.027)" gradientUnits="userSpaceOnUse"><stop offset="0" stop-color="#ffe354"></stop><stop offset=".23" stop-color="#ffde46"></stop><stop offset=".67" stop-color="#ffd220"></stop><stop offset="1" stop-color="#ffc800"></stop></linearGradient><radialGradient id="1770301555082-7842980_s" cx="311.89" cy="304.66" r="122.57" fx="311.89" fy="304.66" gradientTransform="matrix(.92 0 0 -.91 -29.71 472.91)" gradientUnits="userSpaceOnUse"><stop offset=".54" stop-color="#4a2f24"></stop><stop offset=".67" stop-color="#4d3126"></stop><stop offset=".77" stop-color="#56392d"></stop><stop offset=".86" stop-color="#664639"></stop><stop offset=".94" stop-color="#7d5949"></stop><stop offset="1" stop-color="#916958"></stop></radialGradient><radialGradient id="1770301555082-7842980_t" cx="252.11" cy="314.47" r="68.41" fx="252.11" fy="314.47" gradientTransform="matrix(1.01 0 0 -.98 1.13 502.78)" gradientUnits="userSpaceOnUse"><stop offset="0" stop-color="#7d503d"></stop><stop offset=".69" stop-color="#694435"></stop><stop offset="1" stop-color="#5e3e31"></stop></radialGradient></defs><path d="m234.18 204.72 97.06 172.81s32.61-48.79-30.18-200.5C238.11 24.95 181.03 14.88 181.03 14.88z" fill="url(#1770301555082-7842980_b)"></path><path d="M210.53 214.52C274 367.49 331.24 377.54 331.24 377.54L181.03 14.88s-34.1 46.33 29.51 199.64Z" fill="url(#1770301555082-7842980_c)"></path><path d="M247.53 174.45 74.71 271.51s48.8 32.61 200.52-30.18C427.3 178.4 437.37 121.3 437.37 121.3z" fill="url(#1770301555082-7842980_d)"></path><path d="M237.73 150.8C84.78 214.27 74.71 271.51 74.71 271.51l362.66-150.22s-46.32-34.1-199.64 29.51" fill="url(#1770301555082-7842980_e)"></path><path d="m234.49 186.86-53.57 190.82s57.56-11.43 120.45-163.11C364.4 62.52 331.14 15.04 331.14 15.04l-96.65 171.83Z" fill="url(#1770301555082-7842980_f)"></path><path d="M210.84 177.06c-63.29 153.05-29.93 200.63-29.93 200.63L331.14 15.04s-56.87 8.64-120.3 162.02" fill="url(#1770301555082-7842980_g)"></path><path d="M265.4 174.76 74.57 121.19s11.45 57.57 163.12 120.45c152.05 63.03 199.53 29.77 199.53 29.77l-171.83-96.65Z" fill="url(#1770301555082-7842980_h)"></path><path d="M275.19 151.12C122.15 87.84 74.56 121.19 74.56 121.19l362.66 150.22s-8.63-56.87-162.03-120.29" fill="url(#1770301555082-7842980_i)"></path><path d="M264.29 441.01c79.97-36.22 213.07-24.98 247.71-20.53-36.6-3.15-185.3-11.03-248.1 33.02-2.34 1.63-8.77-8.34.38-12.48Z" class="aq" fill="#677339"></path><path d="M307.85 429.43c82.4 105.2 204.15-8.96 204.15-8.96s-119.33-11.49-204.15 8.96" class="an" fill="#7ab51d"></path><path d="M512 420.47s-139.05-12.66-204.15 8.96C351.62 324.24 512 420.47 512 420.47" class="ap" fill="#92c932"></path><path d="M307.85 429.43c80.3-17.58 204.15-8.96 204.15-8.96s-133.91-28.52-204.15 8.96" class="ao" fill="#529320"></path><path d="M242.13 322.51v184.3c0 6.92 27.72 6.92 27.72 0v-184.3z" fill="url(#1770301555082-7842980_j)"></path><path d="M244.92 477.97C165.88 440.59 34.27 452.19 0 456.77c36.2-3.25 183.22-11.37 245.3 34.07 2.3 1.69 8.67-8.59-.38-12.88Z" class="aq" fill="#677339"></path><path d="M201.85 466.02C120.38 574.61 0 456.77 0 456.77s118-11.85 201.85 9.25" class="an" fill="#7ab51d"></path><path d="M0 456.77s137.48-13.07 201.85 9.25C158.57 357.45 0 456.77 0 456.77" class="ap" fill="#92c932"></path><path d="M201.85 466.02C122.47 447.88 0 456.77 0 456.77s132.42-29.43 201.85 9.25" class="ao" fill="#529320"></path><path d="m232.61 195.74 23.53 196.8s48.8-32.59 48.85-196.8C305.03 31.15 256.14 0 256.14 0z" fill="url(#1770301555082-7842980_k)"></path><path d="M207.01 195.74c.1 165.61 49.13 196.8 49.13 196.8V0s-49.24 29.75-49.13 195.74" fill="url(#1770301555082-7842980_l)"></path><path d="m256.54 172.88-196.8 23.53s32.6 48.8 196.8 48.85c164.58.04 195.73-48.85 195.73-48.85z" fill="url(#1770301555082-7842980_m)"></path><path d="M256.54 147.28c-165.61.1-196.8 49.13-196.8 49.13h392.53s-29.75-49.24-195.73-49.13" fill="url(#1770301555082-7842980_n)"></path><path d="M239.74 179.35 117.22 335.13s57.55 11.47 173.69-104.61C407.34 114.18 394.79 57.57 394.79 57.57L239.74 179.34Z" fill="url(#1770301555082-7842980_o)"></path><path d="M221.64 161.25C104.61 278.42 117.22 335.14 117.22 335.14L394.79 57.58s-55.85-13.77-173.15 103.66Z" fill="url(#1770301555082-7842980_p)"></path><path d="M272.91 180 117.12 57.48s-11.45 57.56 104.62 173.7C338.09 347.6 394.69 335.05 394.69 335.05L272.91 180.01Z" fill="url(#1770301555082-7842980_q)"></path><path d="M291.02 161.9C173.85 44.88 117.12 57.48 117.12 57.48l277.56 277.56s13.78-55.84-103.66-173.14" fill="url(#1770301555082-7842980_r)"></path><path d="M367.8 199.14c0-2.82-1.07-4.94-2.65-6.42 1.58-1.48 2.65-3.6 2.65-6.42 0-4.44-2.55-7.22-5.72-8.29.8-1.29 1.41-2.79 1.41-4.72 0-4.36-2.45-7.07-5.51-8.2.56-1.15.9-2.47.9-4.04 0-5.44-3.81-8.24-7.89-8.65 1.1-1.4 1.89-3.12 1.89-5.44 0-5.32-3.69-8.12-7.68-8.61.19-.74.45-1.41.45-2.29 0-5.97-4.57-8.87-9.11-8.79.07-.36.21-.61.21-1.02 0-6.78-5.91-9.52-10.91-8.45 0-.15.05-.22.05-.36 0-6.47-5.36-9.25-10.19-8.6 0-.08.04-.15.04-.21 0-8.02-8.18-10.44-13.45-7.54-1.4-7.13-10.04-8.8-14.65-4.75-1.67-4.31-6.34-5.94-10.43-4.99-1.97-6.44-10.27-7.7-14.63-3.64-3.75-4.7-12.02-4.32-14.86 1.29-4.35-4.1-12.68-2.85-14.63 3.62-4.44-4.03-12.75-2.67-14.6 3.88-4.96-4.58-15.13-2.42-15.13 6.47 0 .06.04.09.04.14-3.38.29-6.46 2.28-7.56 5.91-5.09-1.25-11.26 1.49-11.26 8.43 0 .54.21.9.26 1.4-4.95-.89-10.65 1.86-10.65 8.54 0 .39.17.69.2 1.06-4.23.28-8.28 3.12-8.28 8.71 0 .15.06.22.06.37-3.65.79-6.79 3.54-6.79 8.46 0 1.61.35 2.95.91 4.11-4.22.26-8.31 3.1-8.31 8.71 0 1.67.44 3.06 1.07 4.26-3.64.81-6.77 3.54-6.77 8.46 0 2.86 1.07 4.99 2.67 6.46-2.31 1.41-4.07 3.76-4.07 7.34 0 3.02 1.18 5.23 2.9 6.7-2.07 1.43-3.58 3.73-3.58 7.08 0 3.82 1.95 6.26 4.5 7.6-1.9 1.48-3.24 3.72-3.24 6.89 0 3.46 1.6 5.78 3.79 7.23-.71 1.24-1.19 2.65-1.19 4.43 0 3.37 1.52 5.66 3.62 7.1-.66 1.23-1.12 2.62-1.12 4.34 0 5.06 3.31 7.81 7.06 8.52-.38.99-.66 2.08-.66 3.36 0 6 4.63 8.9 9.19 8.77-.08.49-.29.89-.29 1.43 0 4.5 2.63 7.26 5.84 8.3-.06.48-.26.84-.26 1.36 0 6.31 5.11 9.12 9.87 8.66.73 5.38 5.37 7.79 9.78 7.28 0 .08-.02.13-.02.2 0 7.48 7.15 10.16 12.4 8.15 1.3 5.59 7.16 7.68 11.78 6.02 2.17 5.97 10.09 7.13 14.4 3.35 2.68 4.68 9.39 5.48 13.41 2.28 3.17 4.63 10.4 4.89 14.03.75 3.45 3.95 10.18 3.91 13.59-.12 4.39 2.54 10.89 1.25 12.92-4 4.38 2.31 10.58 1.08 12.63-3.94 4.41 1.37 9.74-.51 11.3-5.48 4.44.83 9.34-1.4 10.34-6.68 5.07 1.14 11.09-1.59 11.09-8.47 0-.03-.03-.05-.03-.1 3.99-.28 7.69-2.92 8.07-7.94 4.37-.11 8.64-3 8.64-8.77 0-.78-.24-1.37-.39-2.06 3.87-.61 7.36-3.38 7.36-8.56 0-1.94-.61-3.44-1.41-4.74 3.35-.99 6.14-3.73 6.14-8.35 0-1.14-.29-2.07-.59-3 3.25-1.04 5.88-3.8 5.88-8.32 0-2.94-1.12-5.15-2.79-6.61 3.17-1.07 5.72-3.84 5.72-8.29 0-1.46-.27-2.73-.76-3.81 1.76-1.45 2.99-3.67 2.99-6.71Z" fill="url(#1770301555082-7842980_s)"></path><path d="M315.95 202.25c2.75-1.49 4.87-4.16 4.87-8.3s-2.12-6.84-4.89-8.33c2.76-1.5 4.89-4.16 4.89-8.31 0-6.6-5.16-9.8-10.25-9.71.07-.46.28-.83.28-1.34 0-5.27-3.32-8.27-7.22-9.27.84-1.38 1.44-3 1.44-5.04 0-9.88-11.55-12.17-17.07-7-1.22-6.78-8.29-9.19-13.69-7.07.19-.75.48-1.45.48-2.35 0-11.8-16.36-12.75-19.35-3.07-4.19-6.36-15.32-5.56-17.69 2.39-4.97-6.49-17.91-4.63-17.91 5.87 0 .67.24 1.13.34 1.72-5.38-.61-11.27 2.47-11.27 9.51 0 .21.09.38.14.56-5.84-1.83-13.39 1.21-13.39 9.18 0 2.38.84 4.17 1.95 5.71-3.73 1.09-6.78 4.11-6.78 9.19 0 2.55.9 4.45 2.17 6.02-3.31 1.31-5.91 4.21-5.91 8.86s2.59 7.55 5.86 8.88c-1.83 1.61-3.05 4.01-3.05 7.2 0 5.99 4.27 9.07 8.86 9.54-1.85 1.63-3.09 4.04-3.09 7.26 0 8.07 7.76 11.1 13.6 9.12.94 5.9 6.26 8.49 11.24 7.77-.32 1.03-.65 2.05-.65 3.32 0 9.05 9.59 11.63 15.47 8.08 2.99 6.6 12.76 7.07 16.99 1.65 2.03 10.68 19.1 10.2 19.5-1.6 5.03 6.43 17.89 4.56 17.89-5.9 0-.49-.2-.84-.26-1.3 5.79 4.19 16.17 1.73 16.17-7.68 0-1.53-.32-2.83-.8-4 4.39-.65 8.38-3.69 8.38-9.45 0-1.23-.32-2.24-.64-3.22 5.19.3 10.62-2.87 10.62-9.62-.02-5.28-3.34-8.29-7.25-9.29Z" fill="url(#1770301555082-7842980_t)"></path><path d="M229.67 142.75c2.13 9.78 14.92 10.11 17.55.47-5.27 2.13-12.42 1.93-17.55-.47m35.11 1.48c2.15 9.78 14.92 10.1 17.57.47-5.24 2.14-12.42 1.93-17.57-.47m-3.51 39.38c2.15 9.76 14.91 10.12 17.54.48-5.21 2.11-12.39 1.9-17.54-.48m30.36 7.25c2.12 9.76 14.91 10.12 17.54.47-5.24 2.12-12.4 1.92-17.54-.47m-9.28-25.39c2.14 9.76 14.91 10.12 17.56.47-5.25 2.12-12.41 1.91-17.56-.47m-52.68 18.14c2.13 9.76 14.92 10.12 17.55.48-5.27 2.1-12.42 1.94-17.55-.48m-16.78-23.12c2.15 9.76 14.92 10.11 17.57.48-5.26 2.1-12.42 1.95-17.57-.48m32.35-.73c2.15 9.78 14.92 10.13 17.58.49-5.27 2.08-12.42 1.93-17.58-.49m31.79 53.03c2.13 9.79 14.92 10.13 17.55.49-5.27 2.12-12.42 1.93-17.55-.49m-75.05-23.43c2.14 9.78 14.91 10.12 17.55.47-5.27 2.14-12.42 1.94-17.55-.47m45.24 16.98c2.15 9.8 14.92 10.13 17.57.49-5.27 2.11-12.42 1.92-17.57-.49M230.46 231c2.14 9.78 14.92 10.14 17.56.48-5.26 2.12-12.43 1.92-17.56-.48m28.3 2.42c2.12 9.79 14.9 10.13 17.54.48-5.23 2.12-12.39 1.95-17.54-.48m-44.21-23.31c2.14 9.79 14.92 10.13 17.56.48-5.27 2.12-12.42 1.94-17.56-.48" style="isolation:isolate" fill="#969900" opacity=".5"></path></g></svg>
