<svg xmlns="http://www.w3.org/2000/svg" data-name="Layer 1" style="" viewBox="0 0 512 512"><g><defs><linearGradient id="1770301555088-242089_b" x1="198.4" x2="313.6" y1="206.8" y2="206.8" gradientTransform="matrix(1 0 0 -1 0 514)" gradientUnits="userSpaceOnUse"><stop offset=".29" stop-color="#ecf1f5"></stop><stop offset=".44" stop-color="#e7edf1"></stop><stop offset=".6" stop-color="#dae1e6"></stop><stop offset=".77" stop-color="#c4ced3"></stop><stop offset=".94" stop-color="#a5b2b8"></stop><stop offset="1" stop-color="#99a8ae"></stop></linearGradient><linearGradient id="1770301555088-242089_c" x1="251.74" x2="260.27" y1="496.93" y2="496.93" gradientTransform="matrix(1 0 0 -1 0 514)" gradientUnits="userSpaceOnUse"><stop offset=".19" stop-color="#ff000e"></stop><stop offset=".4" stop-color="#f4000b"></stop><stop offset=".78" stop-color="#d80005"></stop><stop offset="1" stop-color="#c40000"></stop></linearGradient><linearGradient id="1770301555088-242089_d" x1="236.8" x2="275.2" y1="445.73" y2="445.73" gradientTransform="matrix(1 0 0 -1 0 514)" gradientUnits="userSpaceOnUse"><stop offset=".19" stop-color="#ff000e"></stop><stop offset=".4" stop-color="#f4000b"></stop><stop offset=".78" stop-color="#d80005"></stop><stop offset="1" stop-color="#c40000"></stop></linearGradient><linearGradient id="1770301555088-242089_e" x1="249.6" x2="262.4" y1="471.33" y2="471.33" gradientTransform="matrix(1 0 0 -1 0 514)" gradientUnits="userSpaceOnUse"><stop offset=".29" stop-color="#ecf1f5"></stop><stop offset=".44" stop-color="#e7edf1"></stop><stop offset=".6" stop-color="#dae1e6"></stop><stop offset=".77" stop-color="#c4ced3"></stop><stop offset=".94" stop-color="#a5b2b8"></stop><stop offset="1" stop-color="#99a8ae"></stop></linearGradient><linearGradient id="1770301555088-242089_f" x1="236.8" x2="275.21" y1="420.13" y2="420.13" gradientTransform="matrix(1 0 0 -1 0 514)" gradientUnits="userSpaceOnUse"><stop offset=".29" stop-color="#ecf1f5"></stop><stop offset=".44" stop-color="#e7edf1"></stop><stop offset=".6" stop-color="#dae1e6"></stop><stop offset=".77" stop-color="#c4ced3"></stop><stop offset=".94" stop-color="#a5b2b8"></stop><stop offset="1" stop-color="#99a8ae"></stop></linearGradient><linearGradient id="1770301555088-242089_g" x1="256" x2="256" y1="2" y2="189.74" gradientTransform="matrix(1 0 0 -1 0 514)" gradientUnits="userSpaceOnUse"><stop offset="0" stop-color="#c40000"></stop><stop offset=".22" stop-color="#d80005"></stop><stop offset=".6" stop-color="#f4000b"></stop><stop offset=".81" stop-color="#ff000e"></stop></linearGradient><linearGradient id="1770301555088-242089_h" x1="231.5" x2="280.5" y1="309.2" y2="309.2" gradientTransform="matrix(1 0 0 -1 0 514)" gradientUnits="userSpaceOnUse"><stop offset=".29" stop-color="#ecf1f5"></stop><stop offset=".44" stop-color="#e7edf1"></stop><stop offset=".6" stop-color="#dae1e6"></stop><stop offset=".77" stop-color="#c4ced3"></stop><stop offset=".94" stop-color="#a5b2b8"></stop><stop offset="1" stop-color="#99a8ae"></stop></linearGradient><linearGradient id="1770301555088-242089_i" x1="217.62" x2="294.4" y1="249.47" y2="249.47" gradientTransform="matrix(1 0 0 -1 0 514)" gradientUnits="userSpaceOnUse"><stop offset=".19" stop-color="#ff000e"></stop><stop offset=".4" stop-color="#f4000b"></stop><stop offset=".78" stop-color="#d80005"></stop><stop offset="1" stop-color="#c40000"></stop></linearGradient><linearGradient id="1770301555088-242089_j" x1="243.34" x2="268.7" y1="368.93" y2="368.93" gradientTransform="matrix(1 0 0 -1 0 514)" gradientUnits="userSpaceOnUse"><stop offset=".19" stop-color="#ff000e"></stop><stop offset=".4" stop-color="#f4000b"></stop><stop offset=".78" stop-color="#d80005"></stop><stop offset="1" stop-color="#c40000"></stop></linearGradient><linearGradient id="1770301555088-242089_k" x1="246.4" x2="265.6" y1="403.06" y2="403.06" gradientTransform="matrix(1 0 0 -1 0 514)" gradientUnits="userSpaceOnUse"><stop offset="0" stop-color="#cfd8dd"></stop><stop offset=".26" stop-color="#cad4d9"></stop><stop offset=".55" stop-color="#bdc8cd"></stop><stop offset=".85" stop-color="#a7b4ba"></stop><stop offset="1" stop-color="#99a8ae"></stop></linearGradient></defs><path d="M246.4 324.26h19.2L275.2 512h-38.4z" fill="#b00505"></path><path d="M198.4 290.14v25.6l9.6 8.52h96l9.6-8.52v-25.6z" fill="url(#1770301555088-242089_b)"></path><path d="M251.74 0h8.53v34.14h-8.53z" fill="url(#1770301555088-242089_c)"></path><path d="M263.53 68.26V51.2h-15.05v17.06H236.8v17.08h38.4V68.26z" fill="url(#1770301555088-242089_d)"></path><path d="M249.6 34.14h12.8v17.07h-12.8z" fill="url(#1770301555088-242089_e)"></path><path d="M236.8 85.34h38.41v17.06H236.8z" fill="url(#1770301555088-242089_f)"></path><path d="M309.68 341.34c-1.91-5.61-3.83-11.25-5.68-17.07h-96c-1.97 5.81-3.98 11.46-6.02 17.07C152.1 479.24 102.4 512 102.4 512h38.41s41.77-59.22 115.19-59.22S371.23 512.01 371.2 512h38.4s-52.42-31.55-99.92-170.66m3.92 51.19-24-32 8-10.66zm-28.8-51.19-4.8 6.4-4.8-6.4zm-14.4 19.19-14.4 19.2-14.4-19.2 14.4-19.19zm-33.6-19.19-4.8 6.4-4.8-6.4zm-22.4 8.52 8 10.66-24 32zm-20.8 76.8 14.4-19.19 14.4 19.19zm24-34.13 14.4-19.19 14.4 19.19-14.4 19.2zm24 34.13 14.4-19.19 14.4 19.19zm24-34.13 14.4-19.19 14.4 19.19-14.4 19.2zm24 34.13 14.4-19.19 14.4 19.19z" fill="url(#1770301555088-242089_g)"></path><path d="m238.95 238.75 14.38-17.91v18.1h5.37v-18.1l14.38 17.91-.14.18h7.56c-4.46-19.44-8.93-43.03-11.8-68.27h-3.16l-8.03 9.38v-9.38h-3.02v9.38l-8.03-9.38h-3.14c-2.88 25.24-7.37 48.83-11.82 68.27h7.57zm32.62-10.03L261.53 216l6.87-8.74zM266 176.34l2.54 15.9-8.08-9.45 5.54-6.46Zm-8.16 12.28 9.82 10.68-9.82 10.69zm-3.65 21.36-9.82-10.69 9.82-10.68zm-8.17-33.64 5.53 6.46-8.08 9.45zm-2.41 30.92 6.88 8.74-10.03 12.72z" fill="url(#1770301555088-242089_h)"></path><path d="M280.51 238.94h-7.56l-14.24 17.73v-17.73h-5.37v17.73l-14.24-17.73h-7.57c-7.03 30.78-13.91 51.19-13.91 51.19h12.17l22.12-22.12v22.12h8.25v-22.12l22.12 22.12h12.13s-6.89-20.41-13.9-51.19m-49.47 37.6 5.07-27.98 11.03 11.39-16.1 16.58Zm33.84-16.59 11.04-11.39 5.07 27.98-16.11-16.58Z" fill="url(#1770301555088-242089_i)"></path><path d="m246.42 170.6 8.09-9.44v9.5h3.02v-9.5l8.09 9.44-.06.06h3.14c-1.89-16.59-3.09-33.9-3.09-51.19h-2.31l-6.14 8.9v-8.9h-2.28v8.9l-6.14-8.9h-2.33c0 17.3-1.19 34.6-3.06 51.19h3.14l-.06-.06Zm18.34-6.45-5.63-6.58 3.86-4.52zm-3.25-36.66 1.42 14.48-5.77-8.58zm-4.47 12.54 5.53 7.01-5.53 7.02zm-2.05 0v14.03l-5.52-7.02zm-4.48-12.54 4.35 5.89-5.75 8.58zm-1.47 25.56 3.86 4.52-5.63 6.58z" fill="url(#1770301555088-242089_j)"></path><path d="M254.87 110.57v8.9h2.29v-8.9l6.13 8.9h2.31V102.4h-2.68v10.58l-5.76-10.58h-2.31l-5.74 10.58V102.4h-2.71v17.07h2.33z" fill="url(#1770301555088-242089_k)"></path><path d="M495.77 501.79c1.95-4.57-15.52-8.91-22.76-3.07-4.33-3.68-22.23-2.74-22.79 2.12-2.12-4.4-15.83-5.29-19.29-.83-5.49-4.4-26.54-1.82-28.26 2.79-8.03-3.62-16.94-2.11-21.35 1.89-2.36-1.54-6.25-2.74-12.65-2.9 1.97-4.57-15.51-8.91-22.76-3.07-4.31-3.68-22.22-2.74-22.79 2.12-2.12-4.4-15.82-5.29-19.28-.83-5.48-4.4-26.55-1.82-28.26 2.79-7.41-3.34-15.57-2.31-20.24 1-2.43-1.09-5.91-1.88-11.01-2.01 1.95-4.57-15.52-8.91-22.75-3.07-4.33-3.68-22.23-2.74-22.81 2.12-2.12-4.4-15.82-5.29-19.28-.83-5.48-4.4-26.54-1.82-28.26 2.79-8.03-3.62-16.94-2.11-21.34 1.89-2.38-1.54-6.25-2.74-12.65-2.9 1.96-4.57-15.52-8.91-22.76-3.07-4.32-3.68-22.23-2.74-22.79 2.12-2.11-4.4-15.83-5.29-19.29-.83-5.47-4.4-26.55-1.82-28.26 2.79-11.96-5.4-25.91.57-23.94 9.2h511.64s2.98-9.77-16.06-10.21Z" fill="#7ab51d"></path></g></svg>
