<svg xmlns="http://www.w3.org/2000/svg" data-name="Layer 1" style="" viewBox="0 0 512 495.47"><g><defs><linearGradient id="1770301554801-3407531_b" x1="256" x2="256" y1="2" y2="497.47" gradientTransform="matrix(1 0 0 -1 0 497.47)" gradientUnits="userSpaceOnUse"><stop offset="0" stop-color="#ff9500"></stop><stop offset=".19" stop-color="#ffad00"></stop><stop offset=".55" stop-color="#ffd500"></stop><stop offset=".83" stop-color="#ffed00"></stop><stop offset="1" stop-color="#fff600"></stop></linearGradient><linearGradient id="1770301554801-3407531_c" x1="123.94" x2="388.06" y1="229.1" y2="229.1" gradientTransform="matrix(1 0 0 -1 0 497.47)" gradientUnits="userSpaceOnUse"><stop offset="0" stop-color="#cfd7e6"></stop><stop offset=".04" stop-color="#dae0ec"></stop><stop offset=".13" stop-color="#eef1f6"></stop><stop offset=".21" stop-color="#fbfcfd"></stop><stop offset=".3" stop-color="#fff"></stop><stop offset=".7" stop-color="#fff"></stop><stop offset=".79" stop-color="#fbfcfd"></stop><stop offset=".87" stop-color="#eef1f6"></stop><stop offset=".96" stop-color="#dae0ec"></stop><stop offset="1" stop-color="#cfd7e6"></stop></linearGradient><linearGradient id="1770301554801-3407531_e" x1="917.17" x2="917.17" y1="876.25" y2="945.94" gradientTransform="rotate(-39.38 -899.862 -1210.982) scale(1.18 -1)" gradientUnits="userSpaceOnUse"><stop offset=".05" stop-color="#c4eeff" stop-opacity="0"></stop><stop offset=".45" stop-color="#cdf0ff" stop-opacity=".42"></stop><stop offset="1" stop-color="#d4f2ff"></stop></linearGradient><linearGradient id="1770301554801-3407531_g" x1="8.4" x2="8.4" y1="-7.49" y2="62.21" gradientTransform="matrix(-.91209 .74866 -.63446 -.77296 91.55 295.979)" gradientUnits="userSpaceOnUse"><stop offset=".05" stop-color="#c4eeff" stop-opacity="0"></stop><stop offset=".45" stop-color="#cdf0ff" stop-opacity=".42"></stop><stop offset="1" stop-color="#d4f2ff"></stop></linearGradient><radialGradient id="1770301554801-3407531_d" cx="644.93" cy="1418.41" r="64.58" fx="667.92" fy="1451.16" gradientTransform="matrix(.97847 -.20637 -.32674 -1.53562 283.633 2586.379)" gradientUnits="userSpaceOnUse"><stop offset=".06" stop-color="#73efff"></stop><stop offset=".28" stop-color="#70edff"></stop><stop offset=".45" stop-color="#67e5ff"></stop><stop offset=".59" stop-color="#57d8ff"></stop><stop offset=".72" stop-color="#42c7ff"></stop><stop offset=".84" stop-color="#25afff"></stop><stop offset=".95" stop-color="#0393ff"></stop><stop offset=".96" stop-color="#0091ff"></stop></radialGradient><radialGradient id="1770301554801-3407531_f" cx="-720.34" cy="1614.05" r="64.58" fx="-697.35" fy="1646.79" gradientTransform="matrix(-.97847 -.20637 .32674 -1.53562 -1172.433 2604.628)" gradientUnits="userSpaceOnUse"><stop offset=".06" stop-color="#73efff"></stop><stop offset=".28" stop-color="#70edff"></stop><stop offset=".45" stop-color="#67e5ff"></stop><stop offset=".59" stop-color="#57d8ff"></stop><stop offset=".72" stop-color="#42c7ff"></stop><stop offset=".84" stop-color="#25afff"></stop><stop offset=".95" stop-color="#0393ff"></stop><stop offset=".96" stop-color="#0091ff"></stop></radialGradient></defs><path d="M256 0c136.83 0 247.74 110.9 247.74 247.74S392.84 495.48 256 495.48 8.26 384.57 8.26 247.74 119.17 0 256 0" fill="url(#1770301554801-3407531_b)"></path><path d="M121.73 190.76c35.26-45.58 59.95-45.58 95.21 0 5.37 6.85 16.27 1.73 14.04-4.95-29.98-88.19-93.31-88.19-123.29 0-2.31 6.77 8.67 11.89 14.04 4.95m173.33 0c35.26-45.58 59.95-45.58 95.21 0 5.37 6.85 16.27 1.73 14.04-4.95-29.98-88.19-93.31-88.19-123.29 0-2.23 6.77 8.75 11.89 14.04 4.95m86.87 51.44c-30.14-5.62-72.5-10.98-125.93-10.98s-95.87 5.37-125.93 10.98c-15.19 2.81-23.45 15.44-22.71 28.16 3.72 64 52.85 117.76 148.64 117.76s144.93-53.76 148.64-117.84c.66-12.72-7.6-25.27-22.71-28.08" fill="#1a1626"></path><path d="M185.56 355.09s31.3 16.52 70.36 16.52 70.44-16.52 70.44-16.52-23.45-24.77-70.36-16.52c-46.9-8.26-70.44 16.52-70.44 16.52" fill="#fd7383"></path><path d="M375.82 257.98c-20.73-3.72-64.58-10.24-119.82-10.24s-99.09 6.52-119.82 10.24c-12.96 2.31-13.21 8.01-11.48 18.83 1.49 9.5 2.56 11.97 12.55 12.14 9.25.17 118.75 0 118.75 0s109.5.17 118.75 0c10.07-.17 11.07-2.64 12.55-12.14 1.73-10.82 1.49-16.43-11.48-18.83" fill="url(#1770301554801-3407531_c)"></path><path d="M501.92 284.48c-19.49-40.63-81.42-66.56-88.36-66.48-2.81.08-4.29 1.73-2.23 6.19 11.73 25.76 13.13 42.86 4.87 81.42-22.79 106.44 136.59 84.73 85.72-21.14Z" fill="url(#1770301554801-3407531_d)"></path><path d="M486.4 276.89c-16.43-29.07-61.11-51.94-66.06-52.36-1.98-.17-3.06.83-1.32 4.13 9.5 18.58 13.38 32.45 9.25 56.81-10.82 63.5 94.14 55.08 58.14-8.59Z" fill="url(#1770301554801-3407531_e)"></path><path d="M10.08 284.48C29.57 243.85 91.5 217.92 98.44 218c2.81.08 4.29 1.73 2.23 6.19-11.73 25.76-13.13 42.86-4.87 81.42 22.79 106.44-136.59 84.73-85.72-21.14Z" fill="url(#1770301554801-3407531_f)"></path><path d="M25.6 276.89c16.43-29.07 61.11-51.94 66.06-52.36 1.98-.17 3.06.83 1.32 4.13-9.5 18.58-13.38 32.45-9.25 56.81 10.82 63.5-94.14 55.08-58.14-8.59Z" fill="url(#1770301554801-3407531_g)"></path></g></svg>
