<svg xmlns="http://www.w3.org/2000/svg" style="" viewBox="0 0 512 511.99"><g><defs><radialGradient id="1770301554788-2911146_c" cx="505.93" cy="65.4" r="17.83" fx="517.99" fy="72.74" gradientTransform="translate(0 -46)" gradientUnits="userSpaceOnUse"><stop offset="0" stop-color="#fb0" stop-opacity=".8"></stop><stop offset="1" stop-color="#fb0" stop-opacity="0"></stop></radialGradient><radialGradient id="1770301554788-2911146_d" cx="-28.31" cy="3.53" r="25.17" fx="-9.96" fy="3.53" gradientTransform="translate(0 -46)" gradientUnits="userSpaceOnUse"><stop offset="0" stop-color="#fb0" stop-opacity=".8"></stop><stop offset="1" stop-color="#fb0" stop-opacity="0"></stop></radialGradient><radialGradient id="1770301554788-2911146_e" cx="-81.79" cy="-102.9" r="25.17" fx="-63.44" fy="-102.9" gradientTransform="translate(0 -46)" gradientUnits="userSpaceOnUse"><stop offset="0" stop-color="#fb0" stop-opacity=".8"></stop><stop offset="1" stop-color="#fb0" stop-opacity="0"></stop></radialGradient><radialGradient id="1770301554788-2911146_f" cx="439.87" cy="202.76" r="25.17" fx="458.22" fy="202.76" gradientTransform="translate(0 -46)" gradientUnits="userSpaceOnUse"><stop offset="0" stop-color="#fb0" stop-opacity=".8"></stop><stop offset="1" stop-color="#fb0" stop-opacity="0"></stop></radialGradient><radialGradient id="1770301554788-2911146_h" cx="-34.6" cy="60.68" r="17.3" fx="-23.07" fy="67.5" gradientTransform="translate(0 -46)" gradientUnits="userSpaceOnUse"><stop offset="0" stop-color="#fb0" stop-opacity=".8"></stop><stop offset="1" stop-color="#fb0" stop-opacity="0"></stop></radialGradient><radialGradient id="1770301554788-2911146_i" cx="108" cy="-276.43" r="57.15" fx="148.9" fy="-265.42" gradientTransform="translate(0 -46)" gradientUnits="userSpaceOnUse"><stop offset="0" stop-color="#fb0" stop-opacity=".8"></stop><stop offset="1" stop-color="#fb0" stop-opacity="0"></stop></radialGradient><radialGradient id="1770301554788-2911146_j" cx="369.62" cy="114.16" r="34.6" fx="394.79" fy="107.34" gradientTransform="translate(0 -46)" gradientUnits="userSpaceOnUse"><stop offset="0" stop-color="#fb0" stop-opacity=".8"></stop><stop offset="1" stop-color="#fb0" stop-opacity="0"></stop></radialGradient><radialGradient id="1770301554788-2911146_k" cx="-104.86" cy="-60.95" r="35.13" fx="-79.17" fy="-54.14" gradientTransform="translate(0 -46)" gradientUnits="userSpaceOnUse"><stop offset="0" stop-color="#fb0" stop-opacity=".8"></stop><stop offset="1" stop-color="#fb0" stop-opacity="0"></stop></radialGradient><linearGradient id="1770301554788-2911146_b" x1="256" x2="256" y1="557.99" y2="107.44" gradientTransform="translate(0 -46)" gradientUnits="userSpaceOnUse"><stop offset="0" stop-color="#ff9500"></stop><stop offset=".19" stop-color="#ffad00"></stop><stop offset=".54" stop-color="#ffd500"></stop><stop offset=".83" stop-color="#ffed00"></stop><stop offset="1" stop-color="#fff600"></stop></linearGradient><linearGradient id="1770301554788-2911146_g" x1="258.62" x2="258.62" y1="530.1" y2="46" gradientTransform="translate(0 -46)" gradientUnits="userSpaceOnUse"><stop offset="0" stop-color="#ff9500"></stop><stop offset=".19" stop-color="#ffad00"></stop><stop offset=".54" stop-color="#ffd500"></stop><stop offset=".83" stop-color="#ffed00"></stop><stop offset="1" stop-color="#fff600"></stop></linearGradient></defs><path d="M0 458.23q0 7.17 8.19 11.01c5.46 2.56 12.03 4.44 19.71 5.63 7.68 1.2 15.27 2.13 22.79 2.82 9.22 1.02 16.47 2.13 21.76 3.33s5.71 3.5 1.28 6.91c-7.85 5.8-10.75 10.5-8.7 14.08s7.25 6.14 15.62 7.68c8.36 1.54 18 2.3 28.92 2.3h2.05c10.24 0 20.39-.6 30.46-1.79 10.07-1.2 18.52-2.65 25.34-4.35 12.29-3.75 25.43-6.14 39.43-7.17 13.99-1.02 27.56-1.28 40.71-.77q19.71.765 34.56 3.33c31.75 4.78 61.01 7.94 87.81 9.47 26.8 1.54 49.15 1.45 67.07-.26s29.18-5.12 33.79-10.24.6-11.78-12.03-19.97c-6.49-4.09-9.73-7-9.73-8.7s2.13-2.56 6.4-2.56 9.47.17 15.62.51q9.21 1.02 18.69 1.02c9.48 0 11.61-.6 15.87-1.79 4.27-1.2 6.4-3.67 6.4-7.42 0-4.78-3.07-9.47-9.22-14.08-6.14-4.61-13.74-9.38-22.79-14.33-9.04-4.95-18-10.5-26.88-16.64s-16.38-12.97-22.53-20.48c-6.14-7.51-9.22-16.21-9.22-26.11 0-5.12-7.68-8.7-23.04-10.75s-34.64-3.07-57.85-3.07c-19.46 0-40.28.6-62.46 1.79-22.19 1.2-44.03 2.82-65.54 4.87s-41.13 4.27-58.88 6.66-31.91 4.87-42.49 7.42c-10.58 2.56-15.87 5.03-15.87 7.42 0 8.54-3.16 15.79-9.47 21.76s-14.25 11.26-23.81 15.87-19.03 8.88-28.42 12.8c-9.38 3.93-17.32 7.76-23.81 11.52C3.25 449.7 0 453.79 0 458.23" fill="url(#1770301554788-2911146_b)"></path><path d="M493.05 469.5c4.78.34 8.96-.26 12.54-1.79 3.59-1.54 5.37-3.67 5.37-6.4q.51-3.585-4.35-6.66c-3.24-2.05-7.26-3.24-12.03-3.59-4.44-.34-8.45.26-12.03 1.79s-5.55 3.67-5.89 6.4c0 2.39 1.54 4.61 4.61 6.66s7 3.24 11.78 3.59" fill="url(#1770301554788-2911146_c)"></path><path d="M27.14 443.9c-6.83 0-12.63 1.28-17.41 3.84s-7.34 5.71-7.68 9.47c0 3.41 2.3 6.49 6.91 9.22s10.32 4.09 17.15 4.09 12.63-1.28 17.41-3.84 7.34-5.72 7.68-9.47c0-3.75-2.3-6.91-6.91-9.47s-10.32-3.84-17.15-3.84" fill="url(#1770301554788-2911146_d)"></path><path d="M90.11 483.33c-6.49 1.02-11.86 3.16-16.13 6.4s-6.06 6.57-5.37 9.98c.68 3.75 3.67 6.49 8.96 8.19 5.29 1.71 11.18 2.05 17.66 1.02 6.83-1.02 12.29-3.16 16.38-6.4s5.8-6.74 5.12-10.5c-.68-3.41-3.59-5.97-8.7-7.68-5.12-1.71-11.09-2.05-17.92-1.02" fill="url(#1770301554788-2911146_e)"></path><path d="M438.27 505.34c6.49 2.39 12.54 2.99 18.18 1.79 5.63-1.2 9.3-3.84 11.01-7.94 1.71-3.75 1.02-7.85-2.05-12.29s-7.85-7.85-14.33-10.24c-6.14-2.05-12.03-2.47-17.66-1.28-5.63 1.2-9.3 3.67-11.01 7.42-2.05 4.09-1.45 8.28 1.79 12.55s7.94 7.6 14.08 9.98" fill="url(#1770301554788-2911146_f)"></path><path d="M486.39 415.74c-3.75-.68-8.28-1.96-13.57-3.84s-9.98-4.69-14.08-8.45-6.31-8.7-6.66-14.85 2.56-13.99 8.7-23.55c6.14-9.22 11.86-19.37 17.15-30.46s9.64-24.15 13.05-39.17 5.12-33.45 5.12-55.3q0-49.665-18.69-93.18c-12.46-29.01-29.7-54.53-51.71-76.55-22.01-22.01-47.53-39.25-76.55-51.71C320.17 6.23 289.11 0 256 0s-64.17 6.23-93.18 18.69-54.53 29.7-76.55 51.71c-22.01 22.01-39.25 47.53-51.71 76.55q-18.69 43.515-18.69 93.18c0 25.26 3.33 47.1 9.98 65.54 6.66 18.43 14.08 34.13 22.27 47.1 8.54 12.97 12.97 23.29 13.31 30.97s-1.79 13.31-6.4 16.9-9.98 5.89-16.13 6.91c-9.9 2.05-16.72 4.87-20.48 8.45-3.75 3.59-4.95 7.17-3.59 10.75 1.36 3.59 4.61 5.89 9.73 6.91 7.17 1.71 15.87 2.65 26.11 2.82s19.88.42 28.93.77c9.04.34 15.45 1.45 19.2 3.33s2.9 5.37-2.56 10.5c-8.88 7.85-12.2 14.25-9.98 19.2s8.19 8.54 17.92 10.75 21.67 3.24 35.84 3.07 29.18-1.36 45.06-3.59c15.87-2.22 30.81-5.37 44.8-9.47 14.67-4.09 28.84-5.12 42.49-3.07s29.87 5.29 48.64 9.73c8.54 2.05 18.26 3.59 29.18 4.61s20.65.94 29.18-.26c8.54-1.2 14.17-4.01 16.9-8.45s.34-10.92-7.17-19.46c-6.83-8.19-9.64-13.57-8.45-16.13s5.21-3.59 12.03-3.07c6.83.51 15.36 1.79 25.6 3.84s21.16 3.84 32.77 5.37 22.7 1.79 33.28.77c7.17-.68 12.37-3.07 15.61-7.17 3.24-4.09 3.84-8.28 1.79-12.55s-7.17-7.42-15.36-9.47" fill="url(#1770301554788-2911146_g)"></path><path d="M33.28 434.17c4.78-.68 8.7-2.31 11.78-4.87s4.61-5.37 4.61-8.45c-.34-3.41-2.22-6.06-5.63-7.94s-7.51-2.65-12.29-2.31q-6.66.51-11.52 4.35c-4.86 3.84-4.69 5.55-4.35 8.96q0 4.605 5.37 7.68c3.59 2.05 7.6 2.9 12.03 2.56" fill="url(#1770301554788-2911146_h)"></path><path d="M476.25 415.67c-6.74.06-12.47 1.46-17.2 4.19-4.72 2.73-6.99 6.03-6.8 9.91.12 4.01 2.64 7.4 7.57 10.19q7.395 4.185 17.7 4.2c6.79.14 12.53-1.17 17.18-3.94s6.93-6.16 6.82-10.16c-.19-3.88-2.75-7.22-7.68-10-4.93-2.79-10.79-4.25-17.58-4.39" fill="url(#1770301554788-2911146_i)"></path><path d="M365.57 441.34c-8.88-1.71-16.9-1.2-24.06 1.54-7.17 2.73-11.09 6.83-11.78 12.29-1.02 5.46 1.28 10.75 6.91 15.87s13.05 8.54 22.27 10.24 17.32 1.2 24.32-1.54c7-2.73 11.01-6.83 12.03-12.29s-1.36-10.75-7.17-15.87c-5.8-5.12-13.31-8.54-22.53-10.24" fill="url(#1770301554788-2911146_j)"></path><path d="M131.58 479.74c8.88-3.07 15.53-7.6 19.97-13.57s5.46-11.69 3.07-17.15-7.6-8.96-15.62-10.5-16.47-.77-25.34 2.3c-8.54 3.07-15.1 7.6-19.71 13.57s-5.55 11.69-2.82 17.15q3.585 8.19 15.36 10.5c7.85 1.54 16.21.77 25.09-2.31" fill="url(#1770301554788-2911146_k)"></path><path d="M305.15 414.21c-4.09-1.71-4.87-4.01-2.3-6.91 2.56-2.9 6.74-6.14 12.55-9.73q8.7-5.385 18.18-11.01c9.48-5.625 11.27-7.51 14.85-11.26 3.59-3.75 4.52-7.34 2.82-10.75s-7.68-6.31-17.92-8.7-26.11-4.09-47.62-5.12c-27.3-1.36-53.42-7.51-78.33-18.43s-46.42-27.48-64.51-49.67c-3.41-4.44-5.8-5.71-7.17-3.84-1.36 1.88-1.71 4.35-1.02 7.42 4.44 23.21 14.42 41.47 29.95 54.78s33.96 22.53 55.3 27.65c21.33 5.12 42.92 7.17 64.77 6.14 16.38-1.02 27.9-1.28 34.56-.77 6.65.51 9.9 1.62 9.73 3.33s-2.22 3.84-6.14 6.4c-3.93 2.56-8.45 5.37-13.57 8.45s-9.22 6.31-12.29 9.73-3.93 6.83-2.56 10.24c1.36 3.41 6.66 6.66 15.87 9.73 3.07 1.02 4.18.6 3.33-1.28s-3.67-4.01-8.45-6.4M184.83 152.58c8.88 1.36 15.79 6.4 20.74 15.1s6.57 18.52 4.87 29.44c-1.71 10.92-6.23 19.71-13.57 26.37s-15.45 9.3-24.32 7.94c-8.54-1.36-15.36-6.31-20.48-14.85s-6.83-18.26-5.12-29.18 6.23-19.8 13.57-26.62 15.45-9.56 24.32-8.19m154.61 47.6c-8.88-1.02-16.98 1.79-24.32 8.45s-11.86 15.45-13.57 26.37 0 20.74 5.12 29.44 11.95 13.74 20.48 15.1c8.88 1.36 16.98-1.36 24.32-8.19s11.86-15.7 13.57-26.62 0-20.74-5.12-29.44-11.95-13.74-20.48-15.1" fill="#1a1626"></path></g></svg>
