<svg xmlns="http://www.w3.org/2000/svg" data-name="Layer 1" style="" viewBox="0 0 512 529.09"><g><defs><linearGradient id="1770301554806-9707176_b" x1="-458.93" x2="-458.93" y1="512.25" y2="503.72" gradientTransform="matrix(60 0 0 60 27791.9 -30222.92)" gradientUnits="userSpaceOnUse"><stop offset="0" stop-color="#ff9500"></stop><stop offset=".19" stop-color="#ffad00"></stop><stop offset=".55" stop-color="#ffd500"></stop><stop offset=".83" stop-color="#ffed00"></stop><stop offset="1" stop-color="#fff600"></stop></linearGradient><linearGradient id="1770301554806-9707176_d" x1="196.27" x2="315.73" y1="204.82" y2="204.82" gradientTransform="matrix(1 0 0 -1 0 529.08)" gradientUnits="userSpaceOnUse"><stop offset="0" stop-color="#cfd7e6"></stop><stop offset=".04" stop-color="#dae0ec"></stop><stop offset=".13" stop-color="#eef1f6"></stop><stop offset=".21" stop-color="#fbfcfd"></stop><stop offset=".3" stop-color="#fff"></stop><stop offset=".7" stop-color="#fff"></stop><stop offset=".79" stop-color="#fbfcfd"></stop><stop offset=".87" stop-color="#eef1f6"></stop><stop offset=".96" stop-color="#dae0ec"></stop><stop offset="1" stop-color="#cfd7e6"></stop></linearGradient></defs><path id="1770301554806-9707176_c" d="M256 0c141.4 0 256 114.6 256 256S397.4 512 256 512 0 397.4 0 256 114.6 0 256 0" data-name="Oval" fill="url(#1770301554806-9707176_b)"></path><path d="M211.11 196.69c-21.67 22.87-66.47 32-96.85 17.07-7.08-3.41-16.81 1.54-13.57 6.4 33.11 49.83 111.45 35.93 125.44-22.1 1.37-5.72-9.64-7.08-15.02-1.37m89.78 0c21.67 22.87 66.47 32 96.94 17.07 7-3.41 16.81 1.54 13.57 6.4-33.11 49.83-111.36 35.93-125.44-22.1-1.45-5.72 9.56-7.08 14.93-1.37m40.44 185.52c0 104.87-170.67 104.87-170.67 0v-13.4c0-104.87 170.67-104.87 170.67 0z" fill="#1a1626"></path><path d="M196.27 341.33c11.95-20.39 34.22-34.13 59.73-34.13s47.79 13.74 59.73 34.13H196.26Z" fill="url(#1770301554806-9707176_d)"></path><path d="M256 420.44c-32.77-8.36-46.93 9.13-46.93 9.13 13.57 8.96 29.18 14.17 46.93 14.17s33.37-5.21 46.93-14.17c0 0-14.17-17.58-46.93-9.13" fill="#fd7383"></path><path d="M264.96 328.02c-4.78-4.78-11.52-7.42-18.35-7-1.88.09-3.75.43-5.55.94-1.19-2.65-2.9-5.12-5.12-7.34a25.33 25.33 0 0 0-19.63-7.34c-8.62.51-16.81 5.29-23.04 13.4-13.57 17.66-28.25 33.45-40.28 45.48-1.79-7.42-5.21-14.76-11.18-20.74a38.4 38.4 0 0 0-8.96-6.66c-9.81-5.29-17.15-3.41-21.5-1.02-10.5 5.89-11.18 17.66-11.95 31.23-.77 12.8-1.71 28.67-9.13 43.35-15.36 30.29-8.7 66.39 16.9 91.99 27.31 27.31 66.3 32.6 94.89 13.06 27.56-18.86 55.21-45.74 82.35-79.79 13.57-17.07 10.24-34.39 1.37-43.26-.85-.85-1.79-1.62-2.65-2.3 7.42-14.51 4.1-27.73-3.41-35.24a23.2 23.2 0 0 0-7.68-5.12c1.54-9.81-1.71-18.26-7.08-23.64" fill="#99a8ae"></path><path d="M252.16 360.11C233.73 385.45 200.28 423 200.28 423s30.21-23.81 51.54-51.54c12.2-15.79 28.93-.94 14.93 18.26-17.24 23.55-44.37 55.38-44.37 55.38s18.6-13.91 38.66-38.66c9.73-11.95 26.2 3.16 11.52 21.67-17.24 21.59-44.97 53.33-79.1 76.71-48.38 33.19-118.36-29.53-89.86-85.85 18.6-36.69 2.82-77.48 22.1-67.24 21.85 11.86 11.69 49.32 11.69 49.32s36.52-30.72 67.75-71.34c13.06-16.9 30.98-2.39 19.8 13.4-16.38 23.13-46.76 57.77-46.76 57.77s31.15-24.58 59.31-59.31c11.18-13.74 28.67-.68 14.68 18.52Z" fill="#fff"></path><path d="M111.36 102.49c-83.54 49.41-30.29 60.07 45.4 26.97 42.67-18.69 9.56-59.48-45.4-26.97m289.28.08c-54.95-32.51-88.06 8.28-45.4 26.97 75.69 33.19 128.94 22.44 45.4-26.97" fill="#d69600"></path></g></svg>
