<svg xmlns="http://www.w3.org/2000/svg" data-name="Layer 1" style="" viewBox="0 0 512 512"><g><defs><linearGradient id="1770301554775-7778575_b" x1="256" x2="256" y1="2" y2="514" gradientTransform="matrix(1 0 0 -1 0 514)" gradientUnits="userSpaceOnUse"><stop offset="0" stop-color="#ff9500"></stop><stop offset=".19" stop-color="#ffad00"></stop><stop offset=".55" stop-color="#ffd500"></stop><stop offset=".83" stop-color="#ffed00"></stop><stop offset="1" stop-color="#fff600"></stop></linearGradient><linearGradient id="1770301554775-7778575_c" x1="291.13" x2="324.2" y1="119.39" y2="28.21" gradientTransform="matrix(1 0 0 -1 0 514)" gradientUnits="userSpaceOnUse"><stop offset=".03" stop-color="#bdebff"></stop><stop offset=".17" stop-color="#75d6ff"></stop><stop offset=".4" stop-color="#72d5fe"></stop><stop offset=".55" stop-color="#69d2fa"></stop><stop offset=".68" stop-color="#5acdf4"></stop><stop offset=".81" stop-color="#44c6ea"></stop><stop offset=".92" stop-color="#29bddf"></stop><stop offset="1" stop-color="#0fb4d4"></stop></linearGradient></defs><path d="M256 0c141.4 0 256 114.6 256 256S397.4 512 256 512 0 397.4 0 256 114.6 0 256 0" fill="url(#1770301554775-7778575_b)"></path><path d="M163.75 336.38c67.24 30.81 158.46 24.49 185.34 24.49 7.17 0 11.43 2.56 9.64 7.85-19.37 58.79-164.69 58.79-204.63-23.04-4.44-9.22 3.5-12.12 9.64-9.3Z" class="g" fill="#1a1626"></path><path d="M238.34 406.1c6.83-11.43 49.41-7.94 49.41-7.94 23.04-15.19 49.07-16.81 58.03-9.98-14.93 49.32 20.22 99.58-16.64 99.58s14.17-86.95-36.27-77.82c-28.93 5.21-54.53-3.84-54.53-3.84" fill="url(#1770301554775-7778575_c)"></path><path d="M296.45 243.29c25.34-18.69 71-19.97 98.39 0 6.31 4.61 16.81 1.45 14.51-3.93-23.89-54.78-103.51-54.7-127.4 0-2.39 5.29 8.19 8.53 14.51 3.93Zm-80.9 0c-25.34-18.69-71-19.97-98.39 0-6.31 4.61-16.81 1.45-14.51-3.93 23.89-54.78 103.51-54.7 127.4 0 2.39 5.29-8.19 8.53-14.51 3.93Z" class="g" fill="#1a1626"></path><path d="M120.75 101.55c-78.93 56.49-24.92 62.46 47.53 22.95 40.96-22.36 4.35-60.16-47.53-22.95m272.38 23.72c-57.6-27.65-87.04 15.96-42.84 30.81 78.25 26.45 130.3 11.09 42.84-30.81" fill="#d69600"></path></g></svg>
