<svg xmlns="http://www.w3.org/2000/svg" data-name="Layer 1" style="" viewBox="0 0 512 512"><g><defs><linearGradient id="1770301554775-1526605_b" x1="312" x2="312" y1="1616" y2="1104" gradientTransform="translate(-56 -1104)" gradientUnits="userSpaceOnUse"><stop offset="0" stop-color="red"></stop><stop offset="1" stop-color="#ffc000"></stop></linearGradient></defs><circle cx="256" cy="256" r="256" fill="url(#1770301554775-1526605_b)"></circle><ellipse cx="170.67" cy="248.08" class="d" rx="34.13" ry="42.67" fill="#1a1626"></ellipse><ellipse cx="341.33" cy="248.08" class="d" rx="34.13" ry="42.67" fill="#1a1626"></ellipse><path d="M195.35 403.02c31.26-21.96 87.55-23.42 121.3 0 7.82 5.4 20.77 1.65 17.87-4.67-29.5-64.32-127.59-64.18-157.03 0-2.91 6.31 10.08 10.11 17.86 4.67" class="d" fill="#1a1626"></path><path d="M177.15 144.09c-93.99-24.12-63.9 21.09 13 51.17 43.39 16.97 48.87-35.31-13-51.17m157.68.13c-61.87 15.86-56.4 68.14-13 51.16 76.93-30.08 107.02-75.3 13-51.16" fill="#c92400"></path></g></svg>
