<svg xmlns="http://www.w3.org/2000/svg" data-name="Layer 1" style="" viewBox="0 0 512 495.4"><g><defs><linearGradient id="1770301554770-8969347_b" x1="247.67" x2="247.67" y1="1.64" y2="497.04" gradientTransform="matrix(1 0 0 -1 .03 497.04)" gradientUnits="userSpaceOnUse"><stop offset="0" stop-color="#ff9500"></stop><stop offset=".19" stop-color="#ffad00"></stop><stop offset=".55" stop-color="#ffd500"></stop><stop offset=".83" stop-color="#ffed00"></stop><stop offset="1" stop-color="#fff600"></stop></linearGradient><linearGradient id="1770301554770-8969347_c" x1="381.23" x2="355.76" y1="208.72" y2="72.85" gradientTransform="matrix(1 0 0 -1 64.51 478.87)" gradientUnits="userSpaceOnUse"><stop offset="0" stop-color="#ff1c23"></stop><stop offset=".42" stop-color="#f31317"></stop><stop offset="1" stop-color="#db0100"></stop></linearGradient></defs><path d="M247.7 0c136.81 0 247.7 110.89 247.7 247.7S384.51 495.4 247.7 495.4 0 384.52 0 247.7 110.89 0 247.7 0" fill="url(#1770301554770-8969347_b)"></path><path d="m300.38 409.12-12.3 2.15c-6.44 1.16-12.55-3.14-13.71-9.58s3.14-12.55 9.58-13.71l12.39-2.15c8.59-1.49 15.11-4.38 18.25-8.01 1.9-2.15 2.56-4.62 2.06-7.51-2.72-15.27-23.2-19.9-23.2-19.9s17.67-10.98 14.94-26.67c-.5-2.89-1.98-4.95-4.46-6.36-4.21-2.31-11.23-2.81-19.82-1.24l-12.3 2.15c-6.44 1.16-12.55-3.14-13.71-9.58s3.14-12.55 9.58-13.71l12.39-2.15c14.28-2.56 26.26-1.24 35.42 3.88 8.75 4.87 14.45 12.96 16.27 22.87 1.57 8.75-.17 17.59-4.13 24.77 6.19 5.37 10.9 13.05 12.39 21.88 1.73 9.91-.91 19.49-7.43 27.08-7.02 7.93-17.83 13.29-32.2 15.77Zm-3.88-173.97c22.79-17.83 58.54-24.94 88.18-15.52 6.85 2.15 13.38-5.04 9.66-9.16-33.6-38.23-91.65-27.91-110.06 19.4-2.06 5.2 6.52 9.74 12.22 5.28m-141.36-36.74c17.92-3.14 35.75 12.47 39.71 34.93s-7.43 43.27-25.35 46.4c-18 3.14-35.75-12.47-39.71-34.93s7.43-43.27 25.35-46.4" fill="#1a1626"></path><path d="M94.04 133.18c-71.34 61.1-18.74 62.34 47.72 18.08 37.57-25.02-.83-58.38-47.72-18.08m229.46-13.62c-61.02 10.07-60.11 60.93-16.84 48.22 76.71-22.46 109.48-63.49 16.84-48.22" fill="#d69600"></path><path d="M435.46 303.52c-20.31-33.03-76.46-20.15-76.46 21.3 0 24.94 20.89 42.52 61.68 75.47 13.79 11.15 15.77 11.15 29.64 0 40.71-32.94 61.68-50.53 61.68-75.47-.08-41.37-56.23-54.25-76.54-21.3" fill="url(#1770301554770-8969347_c)"></path></g></svg>
