<svg xmlns="http://www.w3.org/2000/svg" data-name="Layer 1" style="" viewBox="0 0 512 530.96"><g><defs><radialGradient id="1770301554808-7544760_b" cx="140.43" cy="408.96" r="250.87" fx="140.43" fy="408.96" gradientTransform="matrix(1.12 0 0 -1.13 44.33 669.8)" gradientUnits="userSpaceOnUse"><stop offset=".4" stop-color="#f5000d"></stop><stop offset=".62" stop-color="#f2010d"></stop><stop offset=".76" stop-color="#ea040e"></stop><stop offset=".88" stop-color="#db0a10"></stop><stop offset=".98" stop-color="#c61213"></stop><stop offset="1" stop-color="#c21413"></stop></radialGradient><radialGradient id="1770301554808-7544760_c" cx="188.42" cy="87.54" r="96.13" fx="188.42" fy="87.54" gradientTransform="matrix(1.12 0 0 -.51 44.33 177.16)" gradientUnits="userSpaceOnUse"><stop offset="0" stop-color="#b30100"></stop><stop offset="1" stop-color="#c21413" stop-opacity="0"></stop></radialGradient><radialGradient id="1770301554808-7544760_d" cx="269.82" cy="1653.88" r="107.24" fx="269.82" fy="1653.88" gradientTransform="matrix(1.17437 -.11515 .19875 1.19631 -514.78 -1724.92)" gradientUnits="userSpaceOnUse"><stop offset="0" stop-color="#ff4f42"></stop><stop offset="1" stop-color="#ff4f42" stop-opacity="0"></stop></radialGradient></defs><path d="M254.88 103.16C234.5 103.16 0 25.27 0 247.08c0 134.63 138.68 283.89 199.22 283.89 27.46 0 39.72-17.66 55.66-17.66s19.05 17.66 54.22 17.66c60.53 0 202.9-164.72 202.9-283.89 0-222.05-236.74-143.92-257.12-143.92" fill="url(#1770301554808-7544760_b)"></path><path d="M256 140.42c58.02 0 54.64-29.59 187.46-32.78-71.59-37.13-175.39-4.49-188.59-4.49s-115.84-32.46-186.79 4.48c133.25 3.12 129.81 32.79 187.91 32.79Z" fill="url(#1770301554808-7544760_c)"></path><path d="M260 217.47c-11.81-71.12-78.02-123.22-147.84-116.36C42.29 107.96-4.75 171.14 7.05 242.27c11.83 71.12 78.03 123.21 147.87 116.36 69.85-6.83 116.91-70.03 105.07-141.16Z" fill="url(#1770301554808-7544760_d)"></path><path d="M255.91 129.86C379.64 130.77 384.88 0 384.88 0S281.76 78.56 255.91 129.86" fill="#449c00"></path><path d="M255.91 129.86C288 83.01 384.88 0 384.88 0S251.22-.4 255.91 129.86" class="j" fill="#56ab15"></path><path d="M266.08 116.38c-2.71-9.43-3.03-19.53-1.94-29.21 1.24-9.66 4.16-19.03 8.89-26.97-3.75 8.58-6.5 17.71-7.58 27.26-.64 4.74-.84 9.57-.75 14.41.12 4.83.46 9.71 1.37 14.52Zm16.4-18.93c-3.36-10.6-3.81-22.18-2.15-33.1.93-5.44 2.42-10.75 4.52-15.7 2.11-4.94 4.82-9.5 7.98-13.56-5.5 8.87-9.58 18.85-11.21 29.6-.92 5.34-1.22 10.85-1.08 16.32.16 5.49.7 11.04 1.93 16.44Zm18.73-19.64c-1.99-10.88-1.42-22.22 1.05-32.8 1.36-5.26 3.2-10.36 5.71-15 2.48-4.66 5.67-8.76 9.23-12.27-6.46 7.83-11.21 17.33-13.65 27.73-1.34 5.16-2.07 10.52-2.47 15.95-.37 5.39-.42 10.89.12 16.38Zm22.63-22.29c-.16-8.9 1.51-17.73 4.25-25.97 1.49-4.06 3.23-8.04 5.44-11.63 2.16-3.63 4.8-6.85 7.75-9.6-5.2 6.33-9.22 13.76-11.94 21.85-1.46 3.99-2.52 8.17-3.47 12.41-.88 4.24-1.63 8.54-2.03 12.94m21.83-20.49c.89-6.67 3.26-12.93 6.33-18.59 1.63-2.79 3.43-5.44 5.56-7.73 2.1-2.33 4.52-4.29 7.11-5.76-4.61 3.99-8.5 8.82-11.55 14.35-1.61 2.7-2.94 5.61-4.17 8.56-1.22 2.97-2.37 6.02-3.28 9.17" fill="#5fbd17"></path><path d="M266.08 116.38c7.93 4.71 16.96 6.54 25.88 6.54 8.96-.17 18-2.5 26.11-7.3-8.5 3.5-17.28 5.62-26.07 5.63-4.42.14-8.8-.3-13.14-1.11-4.34-.84-8.66-1.96-12.78-3.76m16.4-18.93c9.61 6.08 20.61 8.87 31.34 8.98 5.37-.05 10.69-.8 15.78-2.38 5.04-1.57 9.85-3.94 14.24-6.96-9.35 4.88-19.57 7.84-30.13 7.73-5.25.08-10.55-.64-15.8-1.87-5.24-1.28-10.45-2.98-15.43-5.5m18.73-19.64c10.33 4.67 21.43 6.55 32.07 6.08 5.31-.39 10.51-1.39 15.34-3.24 4.85-1.8 9.26-4.54 13.13-7.87a56.37 56.37 0 0 1-28.74 9.54c-5.21.38-10.53 0-15.85-.72-5.34-.81-10.69-1.96-15.95-3.78Zm22.63-22.29c8.42 2.83 17.12 3.63 25.49 3.03 4.15-.44 8.26-1.19 12.11-2.57 3.87-1.33 7.45-3.32 10.65-5.77-7.05 3.89-14.89 6.15-23.11 6.78-4.09.43-8.27.37-12.46.14-4.18-.28-8.42-.75-12.68-1.61m21.83-20.49c7.05.76 13.88-.27 20.14-2.29 3.05-1.16 6.03-2.51 8.66-4.34 2.65-1.77 4.91-4.03 6.76-6.61-4.65 4.23-10.11 7.41-16.21 9.42-2.99 1.12-6.17 1.86-9.41 2.5-3.23.63-6.53 1.11-9.94 1.32" class="j" fill="#56ab15"></path><path d="M261.93 140.42c-22.52-22.51-14.76-107.2 2.46-107.2 28.49 0-21.09 29.31-2.46 107.2" fill="#785647"></path></g></svg>
