<svg xmlns="http://www.w3.org/2000/svg" data-name="Layer 1" style="" viewBox="0 0 512 512"><g><defs><linearGradient id="1770301554811-9024690_c" x1="178.37" x2="505.92" y1="190.98" y2="190.98" gradientTransform="matrix(1 0 0 -1 0 514)" gradientUnits="userSpaceOnUse"><stop offset=".59" stop-color="#ffe12c"></stop><stop offset=".77" stop-color="#fde32c"></stop><stop offset=".86" stop-color="#f5e82c"></stop><stop offset=".94" stop-color="#e7f22c"></stop><stop offset="1" stop-color="#d5ff2c"></stop></linearGradient><linearGradient id="1770301554811-9024690_d" x1="246.39" x2="221.18" y1="177.24" y2="322.24" gradientTransform="matrix(1 0 0 -1 0 514)" gradientUnits="userSpaceOnUse"><stop offset=".32" stop-color="#ffe12c"></stop><stop offset=".46" stop-color="#fbda28"></stop><stop offset=".66" stop-color="#f0c71c"></stop><stop offset=".9" stop-color="#dda80a"></stop><stop offset="1" stop-color="#d49800"></stop></linearGradient><linearGradient id="1770301554811-9024690_e" x1="488.4" x2="57.47" y1="52.49" y2="197.55" gradientTransform="matrix(1 0 0 -1 0 514)" gradientUnits="userSpaceOnUse"><stop offset="0" stop-color="#b2d424"></stop><stop offset=".1" stop-color="#ffcd00"></stop><stop offset=".17" stop-color="#ffcd00"></stop><stop offset=".63" stop-color="#ffcd00"></stop><stop offset=".72" stop-color="#fbc800"></stop><stop offset=".84" stop-color="#efb900"></stop><stop offset=".96" stop-color="#dba100"></stop><stop offset="1" stop-color="#d49800"></stop></linearGradient><linearGradient id="1770301554811-9024690_f" x1="60.88" x2="60.88" y1="2" y2="286.92" gradientTransform="matrix(1 0 0 -1 0 514)" gradientUnits="userSpaceOnUse"><stop offset="0" stop-color="#ebd3a7"></stop><stop offset=".34" stop-color="#ffeac2"></stop></linearGradient><linearGradient id="1770301554811-9024690_g" x1="197.96" x2="428.7" y1="264.77" y2="264.77" gradientTransform="matrix(1 0 0 -1 0 514)" gradientUnits="userSpaceOnUse"><stop offset=".66" stop-color="#ffeac2"></stop><stop offset="1" stop-color="#ebd3a7"></stop></linearGradient><radialGradient id="1770301554811-9024690_b" cx="192.74" cy="592.73" r="113.56" fx="192.74" fy="592.73" gradientTransform="matrix(1.07 0 0 -1.74 5.84 1109.09)" gradientUnits="userSpaceOnUse"><stop offset=".34" stop-color="#ffeac2"></stop><stop offset=".66" stop-color="#fee8bf"></stop><stop offset=".92" stop-color="#f9e1b5"></stop><stop offset="1" stop-color="#f7deb0"></stop></radialGradient></defs><path d="M230.22 239.38C146.23 104.31 198.63-2 133.47.03 76.86 1.8 25.2 113.54 108.98 284.53c91.55 52.93 121.24-45.15 121.24-45.15" fill="url(#1770301554811-9024690_b)"></path><path d="M426.29 316.67c-34.85 22.84-89.07-117.8-185.64-98.47 0 100.17 98.3 169.82 226.76 158.91 6.7-.56 14.63 4.79 28.25-.45 10.27 5.23 10.27 12.62 10.27 12.62-117.26 116.89-325.26 2.26-327.55-110.81 33.42-150.46 226.61-23.22 247.92 38.21Z" fill="url(#1770301554811-9024690_c)"></path><path d="M180.28 279.31s2.12-45.52 60.36-61.11c1.13 80.49 61.89 118.72 61.89 118.72-37.79 59-104.58 19.66-122.26-57.61Z" fill="url(#1770301554811-9024690_d)"></path><path d="M503.58 386.41c-83.21 76.03-265.62 50.17-325.24-112.21-27.07-73.74-187.68-82.94-81.09 165.85-32.84-119.92-19.14-212.34 7.89-148.85 91.91 215.78 267.6 220.62 365.03 150.04 27.06-19.6 16.73-22.44 41.63-44.72z" fill="url(#1770301554811-9024690_e)"></path><path d="M121.76 229.15C1.11 255.36 154.35 536.76 97.3 510.25c-105.18-48.86-161.57-308.84 24.46-281.1" fill="url(#1770301554811-9024690_f)"></path><path d="M398.71 306.79c-19.23-14.77-110.81-150.73-200.75-72.67 135.28-178.29 299.13 148.3 200.75 72.67" fill="url(#1770301554811-9024690_g)"></path><path d="M495.65 376.66c10.27 6.7 13.47 25.83 16.15 19.85 1.82-4.09-9.33-18.88-16.15-19.85" fill="#785647"></path></g></svg>
