<svg xmlns="http://www.w3.org/2000/svg" data-name="Layer 1" style="" viewBox="0 0 512 548.58"><g><defs><linearGradient id="1770301554813-796771_f" x1="332.1" x2="332.1" y1="650.96" y2="708.9" gradientTransform="scale(1 -1) rotate(-24.97 -1511.632 -56.53)" gradientUnits="userSpaceOnUse"><stop offset="0" stop-color="#16203b"></stop><stop offset=".16" stop-color="#1a2541"></stop><stop offset=".38" stop-color="#263353"></stop><stop offset=".64" stop-color="#3a4a71"></stop><stop offset=".92" stop-color="#566a9a"></stop><stop offset="1" stop-color="#5e73a6"></stop></linearGradient><linearGradient id="1770301554813-796771_g" x1="353.85" x2="353.85" y1="-158.3" y2="-96.04" gradientTransform="scale(1 -1) rotate(44.99 388.246 -51.906)" gradientUnits="userSpaceOnUse"><stop offset="0" stop-color="#16203b"></stop><stop offset=".16" stop-color="#1a2541"></stop><stop offset=".38" stop-color="#263353"></stop><stop offset=".64" stop-color="#3a4a71"></stop><stop offset=".92" stop-color="#566a9a"></stop><stop offset="1" stop-color="#5e73a6"></stop></linearGradient><linearGradient id="1770301554813-796771_h" x1="-719.14" x2="-719.14" y1="-313.38" y2="-278.51" gradientTransform="scale(-1 1) rotate(-34.87 176.69 -605.065)" gradientUnits="userSpaceOnUse"><stop offset="0" stop-color="#16203b"></stop><stop offset=".16" stop-color="#1a2541"></stop><stop offset=".38" stop-color="#263353"></stop><stop offset=".64" stop-color="#3a4a71"></stop><stop offset=".92" stop-color="#566a9a"></stop><stop offset="1" stop-color="#5e73a6"></stop></linearGradient><linearGradient id="1770301554813-796771_i" x1="286.86" x2="296.7" y1="611.4" y2="630.62" gradientTransform="scale(1 -1) rotate(-24.97 -1511.632 -56.53)" gradientUnits="userSpaceOnUse"><stop offset="0" stop-color="#5e73a6"></stop><stop offset=".08" stop-color="#566a9a"></stop><stop offset=".36" stop-color="#3a4a71"></stop><stop offset=".62" stop-color="#263353"></stop><stop offset=".84" stop-color="#1a2541"></stop><stop offset="1" stop-color="#16203b"></stop></linearGradient><linearGradient id="1770301554813-796771_j" x1="-975.44" x2="-952.09" y1="416.15" y2="435.29" gradientTransform="scale(-1 1) rotate(25.69 -272.098 1477.078)" gradientUnits="userSpaceOnUse"><stop offset="0" stop-color="#16203b"></stop><stop offset=".26" stop-color="#263253"></stop><stop offset=".8" stop-color="#4e618f"></stop><stop offset="1" stop-color="#5e73a6"></stop></linearGradient><linearGradient id="1770301554813-796771_k" x1="61.82" x2="61.82" y1="866.26" y2="924.46" gradientTransform="scale(1 -1) rotate(-54.17 -819.839 -72.019)" gradientUnits="userSpaceOnUse"><stop offset="0" stop-color="#16203b"></stop><stop offset=".16" stop-color="#1a2541"></stop><stop offset=".38" stop-color="#263353"></stop><stop offset=".64" stop-color="#3a4a71"></stop><stop offset=".92" stop-color="#566a9a"></stop><stop offset="1" stop-color="#5e73a6"></stop></linearGradient><linearGradient id="1770301554813-796771_l" x1="-3.82" x2="105.04" y1="165.41" y2="167.19" gradientTransform="matrix(1 0 0 -1 0 550.58)" gradientUnits="userSpaceOnUse"><stop offset="0" stop-color="#8094d9"></stop><stop offset=".31" stop-color="#687cbd"></stop><stop offset=".97" stop-color="#2c4176"></stop><stop offset="1" stop-color="#293e73"></stop></linearGradient><linearGradient id="1770301554813-796771_m" x1="-770.12" x2="-696.16" y1="588.79" y2="590" gradientTransform="scale(-1 1) rotate(68.57 -65.49 717.604)" gradientUnits="userSpaceOnUse"><stop offset="0" stop-color="#8094d9"></stop><stop offset=".31" stop-color="#687cbd"></stop><stop offset=".97" stop-color="#2c4176"></stop><stop offset="1" stop-color="#293e73"></stop></linearGradient><radialGradient id="1770301554813-796771_b" cx="382.2" cy="1467.51" r="152.62" fx="382.2" fy="1467.51" gradientTransform="matrix(.98 0 0 .97 -258.95 -1264.79)" gradientUnits="userSpaceOnUse"><stop offset="0" stop-color="#8094d9"></stop><stop offset=".31" stop-color="#687cbd"></stop><stop offset=".97" stop-color="#2c4176"></stop><stop offset="1" stop-color="#293e73"></stop></radialGradient><radialGradient id="1770301554813-796771_c" cx="596.28" cy="1527.43" r="152.62" fx="596.28" fy="1527.43" gradientTransform="matrix(.98 0 0 .97 -254.66 -1258.58)" gradientUnits="userSpaceOnUse"><stop offset="0" stop-color="#8094d9"></stop><stop offset=".31" stop-color="#687cbd"></stop><stop offset=".97" stop-color="#2c4176"></stop><stop offset="1" stop-color="#293e73"></stop></radialGradient><radialGradient id="1770301554813-796771_d" cx="441.07" cy="1671.27" r="170.19" fx="441.07" fy="1671.27" gradientTransform="matrix(.98 0 0 .97 -258.95 -1264.78)" gradientUnits="userSpaceOnUse"><stop offset="0" stop-color="#8094d9"></stop><stop offset=".31" stop-color="#687cbd"></stop><stop offset=".97" stop-color="#2c4176"></stop><stop offset="1" stop-color="#293e73"></stop></radialGradient><radialGradient id="1770301554813-796771_e" cx="240.83" cy="1174.04" r="52.39" fx="240.83" fy="1174.04" gradientTransform="matrix(.55785 .95964 .54429 -.43664 -336.47 470.83)" gradientUnits="userSpaceOnUse"><stop offset="0" stop-color="#4e6aa6"></stop><stop offset=".27" stop-color="#4d68a3"></stop><stop offset=".45" stop-color="#48629a"></stop><stop offset=".61" stop-color="#41588b"></stop><stop offset=".76" stop-color="#374a75"></stop><stop offset=".89" stop-color="#2a3859"></stop></radialGradient></defs><path d="M300.41 325.48c-50.56 244.28 206.98 222.61 206.98 222.61S392.11 363.87 300.41 325.48" class="z" fill="#449c00"></path><path d="M300.41 325.48c80.36 51.84 207.07 222.61 207.07 222.61s53.39-263.75-207.07-222.61" class="aa" fill="#56ab15"></path><path d="M323.18 342.21c19.75-7.59 39.95-10.7 58.78-10.97 18.74.09 36.2 3.57 50.1 10.97-15.54-5.3-32.55-8.5-51.11-8.32-9.14-.09-18.65.73-28.34 2.01-9.69 1.46-19.56 3.38-29.44 6.31Zm31.08 27.7c22.4-9.23 45.53-12.98 66.56-12.34 10.42.46 20.39 2.1 29.44 5.03 8.96 2.93 16.91 7.22 23.77 12.43-15.45-8.69-33.64-14.26-54.4-14.81-10.24-.46-21.03.27-32 1.83-10.88 1.74-22.12 4.11-33.37 7.86m31.63 32.18c22.4-6.58 44.71-8.23 64.73-5.94 9.97 1.37 19.38 3.75 27.52 7.59 8.23 3.75 15.18 8.96 20.75 15.18-12.98-10.79-29.99-17.92-49.73-20.2-9.69-1.37-20.11-1.46-30.72-.91-10.51.64-21.39 1.92-32.55 4.3Zm35.29 39.13c17.74-2.47 34.65-1.37 49.92 2.01 7.5 1.92 14.72 4.39 20.94 7.86 6.4 3.38 11.7 7.86 16 12.98-10.51-8.69-23.68-14.81-38.67-18.19-7.31-1.92-15.27-3.02-23.31-3.84-7.95-.64-16.27-1.1-24.87-.82Zm32.09 38.03c12.89.09 24.41 3.29 34.47 7.95 4.85 2.56 9.42 5.39 13.16 9.05 3.84 3.57 6.67 7.86 8.69 12.62-6.13-8.14-14.17-14.63-23.95-19.2-4.75-2.47-9.97-4.39-15.36-6.13-5.49-1.74-11.06-3.2-17-4.3Z" class="ab" fill="#5fbd17"></path><path d="M323.18 342.21c-12.52 16.82-19.66 35.11-23.22 52.66-3.2 17.64-2.1 34.92 4.21 49.73-3.57-15.91-4.39-32.73-.91-50.1 1.46-8.69 4.11-17.37 7.41-26.15 3.38-8.69 7.31-17.55 12.52-26.15Zm31.08 27.7c-15.82 20.48-25.69 42.88-30.17 64-2.01 10.61-2.56 20.84-1.46 30.54 1.1 9.6 3.93 18.47 8.14 26.42-6.03-17.28-7.86-36.66-3.47-57.5 1.92-10.33 5.49-20.94 9.97-31.63 4.57-10.61 10.06-21.3 17-31.82Zm31.63 32.18c-13.35 21.48-21.48 43.88-24.68 64.73-1.28 10.33-1.37 20.39.37 29.44 1.65 9.14 5.3 17.19 10.42 23.95-7.95-15.27-10.7-33.92-7.59-54.4 1.28-10.15 4.11-20.75 7.68-31.45 3.75-10.61 8.14-21.48 13.8-32.27m35.29 39.13c-8.96 17.28-13.99 34.65-16.09 51.01-.82 8.14-.91 16 .27 23.31 1.1 7.31 3.66 13.9 7.22 19.56-4.94-12.98-6.31-27.88-4.39-43.88.73-7.95 2.56-16.18 4.66-24.59 2.38-8.32 5.03-16.82 8.32-25.42Zm32.09 38.03c-4.3 14.08-4.94 27.34-3.38 39.13 1.01 5.76 2.56 11.34 5.21 16 2.47 4.75 6.03 8.69 10.51 11.7-6.58-8.14-10.79-18.1-12.34-29.71-1.1-5.58-1.28-11.7-1.28-17.92.09-6.13.37-12.52 1.28-19.2" class="aa" fill="#56ab15"></path><path d="M206.89 208.09C450.07 263.68 433.62 5.68 433.62 5.68s-186.5 111.54-226.73 202.41" class="z" fill="#449c00"></path><path d="M206.89 208.09C260.37 128.83 433.62 5.68 433.62 5.68S171.05-53.2 206.89 208.09" class="aa" fill="#56ab15"></path><path d="M224.08 185.69c-7.22-19.93-9.97-40.13-9.78-58.97.46-18.65 4.3-36.11 11.98-49.83-5.67 15.45-9.14 32.45-9.33 50.92-.37 9.14.27 18.65 1.46 28.34s2.93 19.56 5.67 29.53Zm28.34-30.53c-8.78-22.58-12.07-45.8-10.97-66.83.73-10.42 2.56-20.39 5.67-29.35 3.11-8.87 7.5-16.82 12.89-23.5-8.96 15.27-14.9 33.37-15.91 54.03-.73 10.24-.18 21.03 1.19 32 1.37 11.06 3.57 22.4 7.13 33.64Zm32.73-30.99c-6.13-22.49-7.31-44.8-4.66-64.82 1.55-9.87 4.21-19.29 8.14-27.43a61.7 61.7 0 0 1 15.63-20.39c-11.06 12.8-18.47 29.62-21.21 49.28-1.55 9.69-1.92 20.02-1.55 30.72.46 10.61 1.55 21.48 3.66 32.64ZM325.1 89.7c-2.1-17.83-.64-34.65 3.11-49.83 2.1-7.5 4.66-14.63 8.23-20.84 3.57-6.31 8.05-11.52 13.35-15.72-8.96 10.33-15.36 23.4-19.02 38.31-2.1 7.31-3.29 15.18-4.3 23.22-.91 8.05-1.46 16.27-1.37 24.87Zm38.67-31.36c.37-12.89 3.75-24.32 8.69-34.28 2.65-4.85 5.67-9.33 9.33-12.98 3.66-3.75 7.95-6.49 12.8-8.41-8.23 5.94-14.9 13.9-19.75 23.59-2.56 4.66-4.57 9.87-6.49 15.27-1.83 5.39-3.47 10.97-4.57 16.82Z" class="ab" fill="#5fbd17"></path><path d="M224.08 185.69c16.55 12.89 34.65 20.39 52.2 24.32 17.55 3.57 34.83 2.83 49.83-3.2-16 3.29-32.73 3.75-50.1-.09-8.59-1.65-17.28-4.39-26.06-7.95-8.69-3.57-17.37-7.68-25.87-13.07Zm28.34-30.53c20.11 16.27 42.33 26.6 63.36 31.45 10.51 2.19 20.84 3.02 30.44 2.1 9.6-.91 18.56-3.57 26.51-7.59-17.37 5.67-36.84 7.13-57.6 2.29-10.33-2.1-20.84-5.85-31.45-10.61-10.33-4.75-20.94-10.42-31.27-17.64Zm32.73-30.99c21.21 13.8 43.43 22.4 64.18 25.96 10.33 1.55 20.39 1.83 29.44.18 9.14-1.46 17.28-5.03 24.23-9.97-15.45 7.59-34.1 9.97-54.49 6.49-10.15-1.46-20.66-4.57-31.27-8.32s-21.3-8.41-32.09-14.35ZM325.1 89.7c17.1 9.23 34.37 14.63 50.65 17.1 8.05.91 16 1.28 23.31.18a50.15 50.15 0 0 0 19.75-6.86c-13.07 4.66-27.98 5.76-43.97 3.47-7.95-.91-16.18-2.83-24.41-5.12-8.41-2.47-16.82-5.21-25.32-8.78Zm38.67-31.36c13.99 4.57 27.15 5.49 39.04 4.11 5.76-.91 11.34-2.38 16.09-4.85 4.85-2.38 8.87-5.85 11.88-10.24-8.32 6.4-18.28 10.33-29.9 11.7-5.58.91-11.79 1.01-17.92.91-6.22-.09-12.62-.55-19.2-1.65Z" class="aa" fill="#56ab15"></path><path d="M298.4 183.86c0 196.47-298.4 196.47-298.4 0s298.4-196.38 298.4 0" fill="url(#1770301554813-796771_b)"></path><path d="M511.97 247.95c0 196.38-298.4 196.38-298.4 0s298.4-196.47 298.4 0" fill="url(#1770301554813-796771_c)"></path><path d="M377.12 384.26c0 219.05-332.78 219.05-332.78 0s332.78-219.05 332.78 0" fill="url(#1770301554813-796771_d)"></path><path d="M404.36 140.16c38.12-30.08 97 70.85 58.88 101.02-38.12 29.99-97-70.94-58.88-101.02" fill="url(#1770301554813-796771_e)"></path><path d="M431.88 182.04c4.11-3.29 10.51 7.68 6.4 10.88-4.11 3.29-10.51-7.68-6.4-10.88" fill="#304373"></path><path d="M479.33 139.89c-13.44-3.11-40.32 3.66-32.82 10.33 13.62 12.16 22.58 27.34 25.78 48.55 1.46 10.06 34.74-22.49 36.11-42.42.18-3.75-24.68-15.45-29.07-16.46" fill="url(#1770301554813-796771_f)"></path><path d="M390.47 125.54c-3.38 16.73 7.13 28.43 9.42 25.14 10.24-14.44 26.79-16 42.51-4.02 7.22 5.49-2.83-43.79-26.7-58.51-2.56-1.74-23.5 28.62-25.23 37.39" fill="url(#1770301554813-796771_g)"></path><path d="M381.69 166.13c2.56 8.32 14.63 29.35 13.9 25.23-2.1-12.16-2.38-24.68 1.55-36.48 1.65-5.12-25.14-26.06-38.12-12.98-2.38 2.29 19.2 12.98 22.67 24.23" fill="url(#1770301554813-796771_h)"></path><path d="M409.02 180.66c11.7 8.14 6.49 47.17 4.3 45.71-11.98-8.05-16.36-20.94-17.74-29.99-1.19-7.77 9.69-18.38 13.44-15.72" fill="url(#1770301554813-796771_i)"></path><path d="M453 224.64c1.92 2.29 8.59 19.29 5.3 21.21-10.79 6.4-30.26-2.83-41.69-15.08-6.31-6.86 11.15-20.66 16.36-20.48 3.02.09 14.72 7.95 20.02 14.35Z" fill="url(#1770301554813-796771_j)"></path><path d="M511.78 214.31c-10.88-15.18-39.04-15.18-38.76-10.97 1.01 12.71-1.46 28.71-11.88 39.22-3.57 3.66 28.89.09 32.27-9.78 3.29-9.42 20.39-15.63 18.38-18.47Z" fill="url(#1770301554813-796771_k)"></path><path d="M49.55 351.62c-5.03-6.58-12.43 11.79-26.06 20.94-5.21 3.47 13.62 11.61 28.89 40.59 1.83 3.29 14.72-38.67-2.83-61.53m5.39-18.46c-3.66 3.84-10.97 3.75-16 3.2-6.31-.64 5.39 10.51 16.91 16.18 3.38 1.74 2.38-22.86-.91-19.38m-10.69 77.25c-4.11 1.19-6.58 6.58-8.96 13.16-2.19 6.03 13.16 2.01 25.14 12.98 2.83 2.56-11.52-27.43-16.18-26.15Z" class="ac" fill="#213159"></path><path d="M53.39 331.69c-13.53 13.9-23.59 13.71-22.86 17.55 2.19 11.7 16.46 12.16 22.12 19.84 3.66 4.94-18.65 17.46-25.96 29.71-2.19 3.75 18.47 10.06 31.27 36.39 6.03 12.25 20.39-10.24 15.63-58.05-3.66-36.39-12.52-53.3-20.2-45.44" fill="url(#1770301554813-796771_l)"></path><path d="M220.05 62.55c8.14-.91-7.95-11.34-12.89-22.58-1.92-4.3-15.91 4.57-49.64 4.57-3.84 0 34.19 21.39 62.53 18.01m-46.99-26.06c.18-2.93-4.57-6.13-10.42-9.69-5.39-3.29-6.03 7.41-20.84 11.15-3.47.91 31.08 1.83 31.27-1.46Z" class="ac" fill="#213159"></path><path d="M242.64 67.39c-9.69-12.71-6.4-18.74-10.42-19.56-12.43-2.38-17.28 6.13-26.79 7.13-6.13.64-11.7-16.91-21.67-25.32-3.11-2.56-15.82 7.95-46.17 7.41-14.17-.27 3.93 15.72 53.3 28.16 37.57 9.42 57.32 9.42 51.75 2.19Z" fill="url(#1770301554813-796771_m)"></path></g></svg>
