<svg xmlns="http://www.w3.org/2000/svg" data-name="Layer 1" style="" viewBox="0 0 512 548.57"><g><defs><radialGradient id="1770301554823-1020387_b" cx="254.5" cy="531.37" r="196.84" fx="254.5" fy="531.37" gradientTransform="matrix(1.01 0 0 -1.17 -.53 671.57)" gradientUnits="userSpaceOnUse"><stop offset="0" stop-color="#daefa7"></stop><stop offset=".16" stop-color="#d6eba3"></stop><stop offset=".32" stop-color="#cade98"></stop><stop offset=".49" stop-color="#b5c985"></stop><stop offset=".67" stop-color="#99ac6b"></stop><stop offset=".84" stop-color="#75864a"></stop><stop offset="1" stop-color="#4c5c25"></stop></radialGradient><linearGradient id="1770301554823-1020387_c" x1="108.24" x2="108.24" y1="294.12" y2="577.91" gradientTransform="scale(1 -1) rotate(30 1124.43 221.792)" gradientUnits="userSpaceOnUse"><stop offset="0" stop-color="#fff" stop-opacity="0"></stop><stop offset=".11" stop-color="#fff" stop-opacity=".11"></stop><stop offset="1" stop-color="#fff"></stop></linearGradient></defs><path d="M306.4 481.96c-7.53-5.8-15.66-13.81-21.6-25.42-11.99-23.47-11.52-164.85-11.52-164.85 0-61.1 153.8-183.49 238.73-261.09H.02c84.91 77.6 238.71 199.99 238.71 261.09 0 11.02 1.46 139.46-11.5 164.85-5.92 11.62-14.09 19.62-21.62 25.42-51.34 5.02-87.75 17.5-87.75 32.09 0 19.07 61.86 34.52 138.16 34.52s138.12-15.45 138.12-34.52c0-14.59-36.38-27.07-87.73-32.09Z" class="m" fill="#c5d7e8"></path><path d="M254.59 535.16c89.43 0-124.78-11.4-75.8-34.74 39.93-19.04-44.59 1.16-44.59 11.16 0 11 46.56 23.58 120.39 23.58" style="isolation:isolate" opacity=".3" fill="#e6ebef"></path><path d="M271.41 456.4c27.86 33.87 51.39 50.23 47.1 50.67-42.08 4.32-59.82-66.14-47.1-50.67" class="g" style="isolation:isolate" opacity=".3" fill="#93b0c0"></path><path d="M256 48.19c-108.48 0-196.46 7.61-196.46 16.96S197.7 199.94 218.15 207.37c16.56 6.01 58.34 7.41 75.71 0 19.47-8.31 158.6-134.62 158.6-142.21 0-9.35-87.96-16.97-196.46-16.97" fill="url(#1770301554823-1020387_b)"></path><ellipse cx="256" cy="65.16" rx="196.46" ry="16.97" style="isolation:isolate" fill="#e6f0cf" opacity=".3"></ellipse><path d="M282.64 235.51c8.95 14.3-59.88 15.17-54.37 0-32.28-23.08 90.82-21.94 54.37 0" class="g" style="isolation:isolate" opacity=".3" fill="#93b0c0"></path><path d="m329.33 44.4-51.84 103.53c1.33.79 2.7 1.58 4.05 2.32L339.4 44.2c-3.31.08-6.67.15-10.07.19Z" class="i" fill="#d48942"></path><path d="M219.48 146.44c-14.41 44.96 74.47 75 88.88 30.04 14.41-44.97-74.47-75.03-88.88-30.04" fill="#6f992d"></path><path d="M223.38 147.77c-7.95 24.8 16.21 32.96 24.16 8.16 7.95-24.82-16.2-32.99-24.16-8.16" fill="#e81c27"></path><path d="m262.16 178.57-15.79 31.5c-.28.39 1.89 1.07 2.12.79l17.07-31.31c-1.24-.17-2.42-.44-3.4-.98" class="i" fill="#d48942"></path><path d="M34.48 36.15S136.4 141.7 212.96 199.85c9.57 7.28 33.11 13.94 22.5-1.15-43.55-61.98-66.4-156.26-66.4-156.26S63.3 38.47 34.49 36.15Z" style="isolation:isolate" fill="url(#1770301554823-1020387_c)" opacity=".7"></path><ellipse cx="256" cy="29.89" class="m" rx="256" ry="15.17" fill="#c5d7e8"></ellipse><ellipse cx="256.01" cy="28.86" rx="241.24" ry="11.04" fill="#e6ebef"></ellipse><path d="m342.16 39.18 17.37-31.87c2.89-5.51-6.27-10.4-9.14-4.89l-18.5 36.93c3.47-.05 6.89-.1 10.27-.16Z" fill="#d46a06"></path></g></svg>
