<svg xmlns="http://www.w3.org/2000/svg" data-name="Layer 1" style="" viewBox="0 0 512 512"><g><defs><linearGradient id="1770301554842-7539760_b" x1="256" x2="256" y1="2" y2="514" gradientTransform="matrix(1 0 0 -1 0 514)" gradientUnits="userSpaceOnUse"><stop offset=".07" stop-color="#f2d1a9"></stop><stop offset=".15" stop-color="#f7dfbf"></stop><stop offset=".27" stop-color="#fdefd9"></stop><stop offset=".33" stop-color="#fff5e3"></stop><stop offset=".54" stop-color="#fae6cc"></stop><stop offset=".79" stop-color="#f2d1a9"></stop></linearGradient><linearGradient id="1770301554842-7539760_c" x1="294.26" x2="258" y1="6.28" y2="509.75" gradientTransform="matrix(1 0 0 -1 0 514)" gradientUnits="userSpaceOnUse"><stop offset="0" stop-color="#d9b285"></stop><stop offset=".75" stop-color="#ffe0bc" stop-opacity="0"></stop></linearGradient><linearGradient id="1770301554842-7539760_d" x1="348.51" x2="312.24" y1="10.2" y2="513.64" gradientTransform="matrix(1 0 0 -1 0 514)" gradientUnits="userSpaceOnUse"><stop offset="0" stop-color="#d9b285"></stop><stop offset=".75" stop-color="#ffe0bc" stop-opacity="0"></stop></linearGradient><linearGradient id="1770301554842-7539760_e" x1="396.26" x2="360" y1="13.63" y2="517.09" gradientTransform="matrix(1 0 0 -1 0 514)" gradientUnits="userSpaceOnUse"><stop offset="0" stop-color="#d9b285"></stop><stop offset=".75" stop-color="#ffe0bc" stop-opacity="0"></stop></linearGradient><linearGradient id="1770301554842-7539760_f" x1="426.6" x2="390.33" y1="15.83" y2="519.28" gradientTransform="matrix(1 0 0 -1 0 514)" gradientUnits="userSpaceOnUse"><stop offset="0" stop-color="#d9b285"></stop><stop offset=".75" stop-color="#ffe0bc" stop-opacity="0"></stop></linearGradient><linearGradient id="1770301554842-7539760_g" x1="335.13" x2="298.86" y1="9.22" y2="512.69" gradientTransform="matrix(1 0 0 -1 0 514)" gradientUnits="userSpaceOnUse"><stop offset="0" stop-color="#d9b285"></stop><stop offset=".75" stop-color="#ffe0bc" stop-opacity="0"></stop></linearGradient><linearGradient id="1770301554842-7539760_h" x1="316.55" x2="280.28" y1="7.89" y2="511.35" gradientTransform="matrix(1 0 0 -1 0 514)" gradientUnits="userSpaceOnUse"><stop offset="0" stop-color="#d9b285"></stop><stop offset=".75" stop-color="#ffe0bc" stop-opacity="0"></stop></linearGradient><linearGradient id="1770301554842-7539760_i" x1="275.19" x2="238.92" y1="4.9" y2="508.36" gradientTransform="matrix(1 0 0 -1 0 514)" gradientUnits="userSpaceOnUse"><stop offset="0" stop-color="#d9b285"></stop><stop offset=".75" stop-color="#ffe0bc" stop-opacity="0"></stop></linearGradient><linearGradient id="1770301554842-7539760_j" x1="163.72" x2="127.45" y1="-3.12" y2="500.34" gradientTransform="matrix(1 0 0 -1 0 514)" gradientUnits="userSpaceOnUse"><stop offset="0" stop-color="#d9b285"></stop><stop offset=".75" stop-color="#ffe0bc" stop-opacity="0"></stop></linearGradient><linearGradient id="1770301554842-7539760_k" x1="185.79" x2="149.52" y1="-1.53" y2="501.93" gradientTransform="matrix(1 0 0 -1 0 514)" gradientUnits="userSpaceOnUse"><stop offset="0" stop-color="#d9b285"></stop><stop offset=".75" stop-color="#ffe0bc" stop-opacity="0"></stop></linearGradient><linearGradient id="1770301554842-7539760_l" x1="213.59" x2="177.32" y1=".47" y2="503.94" gradientTransform="matrix(1 0 0 -1 0 514)" gradientUnits="userSpaceOnUse"><stop offset="0" stop-color="#d9b285"></stop><stop offset=".75" stop-color="#ffe0bc" stop-opacity="0"></stop></linearGradient><linearGradient id="1770301554842-7539760_m" x1="247.98" x2="211.71" y1="2.95" y2="506.41" gradientTransform="matrix(1 0 0 -1 0 514)" gradientUnits="userSpaceOnUse"><stop offset="0" stop-color="#d9b285"></stop><stop offset=".75" stop-color="#ffe0bc" stop-opacity="0"></stop></linearGradient><linearGradient id="1770301554842-7539760_n" x1="148.9" x2="112.63" y1="-4.19" y2="499.27" gradientTransform="matrix(1 0 0 -1 0 514)" gradientUnits="userSpaceOnUse"><stop offset="0" stop-color="#d9b285"></stop><stop offset=".75" stop-color="#ffe0bc" stop-opacity="0"></stop></linearGradient><linearGradient id="1770301554842-7539760_o" x1="135.24" x2="98.97" y1="-5.18" y2="498.29" gradientTransform="matrix(1 0 0 -1 0 514)" gradientUnits="userSpaceOnUse"><stop offset="0" stop-color="#d9b285"></stop><stop offset=".75" stop-color="#ffe0bc" stop-opacity="0"></stop></linearGradient><linearGradient id="1770301554842-7539760_p" x1="128.55" x2="92.28" y1="-5.67" y2="497.81" gradientTransform="matrix(1 0 0 -1 0 514)" gradientUnits="userSpaceOnUse"><stop offset="0" stop-color="#d9b285"></stop><stop offset=".75" stop-color="#ffe0bc" stop-opacity="0"></stop></linearGradient><linearGradient id="1770301554842-7539760_q" x1="256" x2="256" y1="2" y2="329.06" gradientTransform="matrix(1 0 0 -1 0 514)" gradientUnits="userSpaceOnUse"><stop offset="0" stop-color="#c7761c" stop-opacity=".36"></stop><stop offset=".86" stop-color="#fff5e3" stop-opacity="0"></stop></linearGradient></defs><path d="M214.07 0c8.6 0 35.49 24.95 57.05 124.45C291.18 217.02 512 193.08 512 360.46c0 54.5-34.62 86.31-87.29 97.28-62.53 43.89-121.79 32.67-129.47 32.67s-30.71 21.58-98.6 21.58c-46.16 0-86.81-21.09-113.14-49.13C28.65 434.71 0 397.42 0 342.92c0-119.59 203.09-136.4 203.09-218.47 0-51.8-18.93-95.72-23.29-107.39-1.57-4.22 4.36-10.56 14.63-10.56 9.57 0 14.42-6.51 19.64-6.51Z" fill="url(#1770301554842-7539760_b)"></path><path d="M295.25 490.42c96.56-162.63-50.05-323.87-88.98-487.38 59.55 196.93 196.03 322.15 88.97 487.38Z" fill="url(#1770301554842-7539760_c)"></path><path d="M424.71 457.75C475.74 223.57 293.77 299.05 214.07 0c93.3 308.66 270.9 220.65 210.64 457.75" fill="url(#1770301554842-7539760_d)"></path><path d="M453.68 445.72c43.8-150.78-72.72-196.6-162.56-287.53 93.94 90.93 217.32 126.11 162.56 287.53" fill="url(#1770301554842-7539760_e)"></path><path d="M482.84 429.36c43.79-150.78-84.55-189.06-158.36-248.56 78.39 58.48 213.12 87.15 158.36 248.56" fill="url(#1770301554842-7539760_f)"></path><path d="M398.18 472.32C438.04 237.68 293.77 302.09 214.07 3.04c93.3 308.66 241.57 246.09 184.11 469.28" fill="url(#1770301554842-7539760_g)"></path><path d="M357.39 481.36c47.58-195.64-71.35-212.71-143.32-478.33 84.78 275.23 204.24 296.02 143.32 478.33" fill="url(#1770301554842-7539760_h)"></path><path d="M254.87 500.81c71.81-205.36 1.13-325.89-48.6-494.05 65.78 197.32 131.58 291.23 48.6 494.05" fill="url(#1770301554842-7539760_i)"></path><path d="M83.5 462.87C0 274.7 310.75 301.01 191.17 6.75 315.87 299.18 23.11 268.31 83.5 462.87" fill="url(#1770301554842-7539760_j)"></path><path d="M118.45 490.42c-67.6-201.5 197.57-188.33 77.99-482.6 124.7 292.42-125.23 275.73-77.99 482.6" fill="url(#1770301554842-7539760_k)"></path><path d="M159.89 506.41c-44.4-214.29 161.9-204.32 42.32-498.59 124.7 292.42-66.62 282.11-42.32 498.59" fill="url(#1770301554842-7539760_l)"></path><path d="M212.65 506.41c-6.37-213.55 109.14-204.32-10.43-498.59 124.7 292.42 17.69 289.62 10.43 498.59" fill="url(#1770301554842-7539760_m)"></path><path d="M50.04 439.32C-6.76 226.35 306.31 286.26 186.85 7.82 312.71 287.91 2.81 232.46 50.04 439.32" fill="url(#1770301554842-7539760_n)"></path><path d="M26.6 419.78C-30.21 206.8 305.43 278.25 182.99 9.98 306.13 279.32-20.64 212.9 26.6 419.78" fill="url(#1770301554842-7539760_o)"></path><path d="M8.92 390.66c-33.8-223.34 292.23-124.49 171.89-376.23C306.14 267.45-13.15 168.03 8.92 390.66" fill="url(#1770301554842-7539760_p)"></path><path d="M334.95 186.05C406.74 220.53 512 244.89 512 360.47c0 54.5-34.62 86.31-87.29 97.28-62.53 43.89-121.79 32.67-129.47 32.67S264.53 512 196.64 512c-46.16 0-86.81-21.09-113.14-49.13C28.65 434.71 0 397.42 0 342.92 0 259 99.99 225.7 159.65 184.94c-46.12 38.63-125.71 69.92-139.59 139.89-13.61 68.62 42.88 118.76 53.2 76.81C65.79 512 366.23 535.32 325.5 318.08c12.55 18.35 32.19 57.24 24.73 91.74-10.13 46.83 95.65 62.51 80-74.31 29.5 68.98 133.68-50.31-95.28-149.45Z" fill="url(#1770301554842-7539760_q)"></path><path d="M195.95 18.99C293.77 237.68 71.64 249.53 55.11 393.45 77.13 267.96 303.96 253.78 195.95 18.99" class="ah" style="isolation:isolate" fill="#fff" opacity=".4"></path><path d="M203.71 148.68c-48.07 91.44-165.93 77.58-180.37 191.08 26.16-100.18 137.1-89.24 180.37-191.08m62.94 60.75c6.13 96.69-15.78 143.18-30.23 256.69 55.21-77.9 50.86-172.09 30.23-256.69m27.41-33.21c51.9 95.64 130.07 110.21 123.37 227.2 34.13-109.15-70.69-152.83-123.37-227.2" class="ah" style="isolation:isolate" fill="#fff" opacity=".4"></path><path d="M206.27 22.97c97.82 218.69-79.7 271.64-76.16 428.08 19.61-149.11 184.17-193.3 76.16-428.08" class="ah" style="isolation:isolate" fill="#fff" opacity=".4"></path></g></svg>
