<svg xmlns="http://www.w3.org/2000/svg" data-name="Layer 1" style="" viewBox="0 0 512 512"><g><defs><linearGradient id="1770301554869-9156943_b" x1="255.99" x2="255.99" y1="2.01" y2="275.07" gradientTransform="matrix(1 0 0 -1 0 514)" gradientUnits="userSpaceOnUse"><stop offset="0" stop-color="#1f2420"></stop><stop offset=".54" stop-color="#2b342c"></stop><stop offset="1" stop-color="#374538"></stop></linearGradient></defs><path d="M511.46 252.1c-5.73-28.94-4.74-56.7-19.16-77.52-11.92-17.25-9.56-41.02-24.13-53.98-22.22-19.76-29.8-52.22-55.67-63.82-29.26-13.06-53.08-42.61-86.32-44.92-25.29-1.73-49.6-16-75.25-10.68-25.07 5.16-52.74-1.77-73.74 10.23-17.54 10-43.39 11.4-59.25 25.53-15.09 13.45-46.45 26.58-58.9 48.89-12.07 21.67-35.7 39.3-40.76 64.89C14.6 169.22-.37 186 2.01 205.42c1.93 15.5-4.75 28.59-.65 57.51 1.85 13.08-1 53.67 13.42 74.49 11.93 17.25 9.57 41.02 24.14 53.98 22.23 19.76 29.8 52.21 55.67 63.82 29.24 13.06 53.07 42.61 86.31 44.92 25.3 1.73 49.6 16 75.26 10.68 25.07-5.16 52.74 1.77 73.74-10.23 17.53-10 43.37-11.4 59.24-25.53 15.09-13.45 46.45-26.58 58.9-48.89 12.07-21.67 35.69-39.3 40.75-64.89 3.69-18.5 18.65-35.28 16.27-54.7-1.92-15.5 9.5-38.77 6.38-54.48Z" fill="#d98930"></path><path d="M423.04 326.48c5.73 13.78 72.58 15.05 77.83-1.35-7.67-16.82-73.08-12.34-77.83 1.35" class="e" fill="#ffb545"></path><path d="M433.83 322.62c-8.98 12.28 29.2 61.85 46.96 56.05 10.6-15.46-31.88-60.6-46.96-56.05M38.41 265.31c-9 12.28 29.16 61.85 46.96 56.05 10.56-15.46-31.88-60.59-46.96-56.05" class="e" fill="#ffb545"></path><path d="M36.73 301.14c-9 12.27 29.16 61.83 46.98 56.03 10.56-15.46-31.9-60.59-46.98-56.03" class="e" fill="#ffb545"></path><path d="M73.66 334.72c-16.28.65-38.28 57.65-22.61 67.23 20.06-1.37 35.56-58.9 22.61-67.23" class="e" fill="#ffb545"></path><path d="M433.57 318.45c-16.3.67-38.27 57.67-22.65 67.25 20.1-1.37 35.57-58.9 22.65-67.25" class="f" fill="#f2a024"></path><path d="M483.72 269.86c-10.15-11.52-74.15 5.93-73.55 23 13.04 13.85 73.69-8.64 73.55-23m-56.54 136.36c16.15-2.05 32.03-60.69 15.45-68.88-19.85 3.08-29.2 61.7-15.45 68.88m-415.3-90.25c16.09-2.45 30.16-61.46 13.34-69.25-19.75 3.58-27.32 62.4-13.34 69.25m74.65 111.97c15.27-5.16 16.67-65.52-1.49-70.26-18.64 6.92-13.67 65.95 1.49 70.26" class="e" fill="#ffb545"></path><path d="M114.91 262.54c12.86 9.02-5.66 67.03-24.58 66.68-15.48-11.59 8.69-66.64 24.58-66.68m-54.2 10.87c8.99 12.28-29.18 61.85-46.98 56.05-10.56-15.46 31.9-60.59 46.98-56.05m409.86 102.07c9 12.27-29.16 61.83-46.96 56.03-10.6-15.46 31.88-60.59 46.96-56.03m-8.35-87.34c16.28.65 38.3 57.65 22.63 67.23-20.08-1.37-35.57-58.9-22.63-67.23" class="f" fill="#f2a024"></path><path d="M87.92 321.76c16.31.67 38.28 57.67 22.63 67.25-20.08-1.37-35.57-58.9-22.63-67.25m-31.51 74.89c15.13-5.49 61.28 38.19 51.42 52.77-18.9 6.25-59.4-40.34-51.42-52.77" class="f" fill="#f2a024"></path><path d="M398.15 325.86c-4.33-14.2 48.92-50.68 63.85-40.22 4.77 17.66-51.07 48.75-63.85 40.22" class="e" fill="#ffb545"></path><path d="M45.25 384.42c-16.19-1.98-32.38-60.54-15.85-68.81 19.86 2.99 29.56 61.56 15.85 68.81m443.45-64.38c-14.79-6.2-11.14-66.47 7.37-69.97 17.97 8.15 8.11 66.68-7.37 69.97" class="f" fill="#f2a024"></path><path d="M195.3 18.53c-16.23-1.45-46.99 52.15-33 63.65 20.09 1.22 44.49-53.73 33-63.65m89.35 184.75c-10.04-11.6-74.22 5.33-73.78 22.42 12.89 13.95 73.78-8.06 73.78-22.42" class="e" fill="#ffb545"></path><path d="M195.41 144.73c13.36-8.46-2.01-67.18-20.94-67.69-16.11 10.91 5.06 66.93 20.94 67.69m79.05-1.06c13.36-8.46-2.01-67.18-20.93-67.69-16.12 10.91 5.06 66.93 20.93 67.69m-190.4 41.84c-5.73-13.78-72.57-15.05-77.83 1.35 7.65 16.82 73.06 12.34 77.83-1.35" class="e" fill="#ffb545"></path><path d="M209.06 230.03c-5.73-13.8-72.58-15.05-77.84 1.35 7.65 16.8 73.05 12.34 77.84-1.35M114.4 72.83c-16.35-.22-42.1 55.47-27.13 65.89 20.15-.27 39.47-56.85 27.13-65.89" class="f" fill="#f2a024"></path><path d="M323.5 147.14c-5.73-13.78-72.56-15.05-77.82 1.35 7.65 16.82 73.06 12.36 77.82-1.35m80.09-5.42c-2.51-14.54-67.74-27.92-76.53-12.81 3.73 17.88 68.8 25.37 76.53 12.81m-45.18-29.94c8.98-12.3-29.18-61.86-46.97-56.07-10.57 15.46 31.88 60.6 46.97 56.07M139.56 266.51c8.99-12.27-29.17-61.85-46.98-56.03-10.56 15.47 31.91 60.6 46.98 56.03m-66.31-77.13c8.99-12.28-29.18-61.85-46.96-56.05-10.58 15.47 31.88 60.6 46.96 56.05m395.44 57.31c8.99-12.28-29.18-61.85-46.97-56.05-10.56 15.46 31.88 60.59 46.97 56.05m-107.24-2.72c-1.91-14.63-66.47-30.26-75.91-15.48 2.98 17.99 67.66 27.73 75.91 15.48" class="e" fill="#ffb545"></path><path d="M470.36 210.86c8.99-12.27-29.17-61.83-46.98-56.03-10.56 15.46 31.9 60.59 46.98 56.03" class="e" fill="#ffb545"></path><path d="M433.42 177.28c16.28-.65 38.28-57.65 22.62-67.23-20.07 1.37-35.57 58.9-22.62 67.23m-33.27 102.01c9.4 12.03 74.45-2.04 74.92-19.11-12.13-14.52-74.13 4.79-74.92 19.11m-185.88-97.74c16.29-.65 38.3-57.65 22.62-67.23-20.07 1.37-35.56 58.92-22.62 67.23" class="e" fill="#ffb545"></path><path d="M79.26 193.55c16.31-.67 38.28-57.67 22.64-67.25-20.09 1.37-35.57 58.9-22.64 67.25" class="f" fill="#f2a024"></path><path d="M69.61 97.25c15.12 5.49 61.27-38.19 51.41-52.77-18.9-6.25-59.39 40.33-51.41 52.77m293.75 160.9c10.15 11.52 74.18-5.93 73.55-23-13.02-13.85-73.69 8.64-73.55 23m-97.43-91.6c.64 14.72 63.66 34.9 74.38 20.82-1.41-18.13-65.05-32.45-74.38-20.82" class="e" fill="#ffb545"></path><path d="M244.21 79.96c10.17 11.52 74.19-5.96 73.57-23.01-13.04-13.87-73.71 8.65-73.57 23.01" class="f" fill="#f2a024"></path><path d="M95.46 124.49c10.15 11.5 74.19-5.93 73.56-23.01-13.02-13.85-73.69 8.64-73.56 23.01m68.19 129.79c10.17 11.52 74.18-5.93 73.57-23-13.05-13.86-73.7 8.64-73.57 23M23.38 242.14c10.15 11.52 74.16-5.93 73.56-23-13.04-13.85-73.7 8.64-73.56 23" class="e" fill="#ffb545"></path><path d="M57.65 245.2c-4.33 14.18 48.93 50.68 63.86 40.2 4.74-17.66-51.05-48.75-63.86-40.2M264.79 88.13c-4.33 14.18 48.91 50.68 63.85 40.2 4.77-17.65-51.06-48.73-63.85-40.2m66.89 62.59c.34 14.73 62.97 35.88 73.94 21.99-1.05-18.16-64.43-33.48-73.94-21.99m-62.7-135.21c-4.36 14.18 48.9 50.68 63.83 40.2 4.78-17.66-51.05-48.73-63.83-40.2" class="e" fill="#ffb545"></path><path d="M151.39 123.25c-4.33 14.2 48.91 50.68 63.85 40.22 4.76-17.66-51.07-48.75-63.85-40.22" class="f" fill="#f2a024"></path><path d="M94.35 175.77c10.91 10.93 73.64-9.96 71.89-26.96-13.93-13.12-72.99 12.62-71.89 26.96m-14.42-69.99c-16.16 2.05-32.03 60.69-15.45 68.88 19.85-3.08 29.21-61.7 15.45-68.88m415.28 90.25c-16.09 2.45-30.16 61.46-13.34 69.25 19.75-3.58 27.32-62.4 13.34-69.25M364.43 29.73c-15.27 5.16-16.67 65.52 1.5 70.27 18.61-6.92 13.64-65.95-1.5-70.27m56.14 54.32c-15.27 5.16-16.67 65.52 1.49 70.26 18.64-6.92 13.67-65.95-1.49-70.26m-105.68 51.64c-8.89 12.33 29.62 61.69 47.37 55.77 10.46-15.53-32.32-60.41-47.37-55.77M272.91 54.1c-3.81-14.32-70-22.97-77.46-7.29 5.34 17.54 70.84 20.34 77.46 7.29m-90.97 86.13c-15.28 5.16-16.68 65.52 1.48 70.26 18.63-6.9 13.66-65.95-1.48-70.26" class="e" fill="#ffb545"></path><path d="M382.25 42.69c16.31.2 40.23 56.57 24.91 66.58-20.14-.81-37.55-57.89-24.91-66.58" class="e" fill="#ffb545"></path><path d="M227.66 174.78c10.05-11.6 74.21 5.33 73.78 22.42-12.9 13.95-73.78-8.06-73.78-22.42m55.83-59.76c-7.74-12.97 35.18-59.24 52.34-52.02 8.99 16.27-37.78 57.77-52.34 52.02m116.66 131.6c5.73-13.78 72.58-15.05 77.85 1.35-7.67 16.82-73.08 12.34-77.85-1.35m-109.36-31.29c5.73-13.8 72.59-15.05 77.85 1.35-7.64 16.8-73.04 12.34-77.85-1.35M253.21 20.77c5.73-13.78 72.58-15.05 77.82 1.37-7.65 16.82-73.04 12.34-77.82-1.37" class="f" fill="#f2a024"></path><path d="M181.3 174.37c10.74-11.07 73.76 9.09 72.27 26.12-13.75 13.28-73.18-11.79-72.27-26.12m2.06-92.22c10.74-11.07 73.75 9.09 72.25 26.12-13.76 13.28-73.18-11.78-72.25-26.12m-92.4 71.8c-2.52-14.53 55.06-45.26 68.54-33.29 2.49 18.06-56.93 43.12-68.54 33.29" class="e" fill="#ffb545"></path><path d="M135.94 108.63c-8.96-12.3 29.19-61.86 46.98-56.07 10.57 15.47-31.88 60.61-46.98 56.07m256.24 140.82c-12.87-9.02 5.65-67.03 24.57-66.68 15.49 11.59-8.67 66.64-24.57 66.68m54.2-10.86c-8.99-12.28 29.19-61.85 46.98-56.05 10.57 15.46-31.89 60.59-46.98 56.05M92.27 258.25c-8.99-12.28 29.17-61.85 46.98-56.05 10.55 15.46-31.89 60.59-46.98 56.05" class="f" fill="#f2a024"></path><path d="M94.3 222.48c-8.99-12.28 29.17-61.83 46.95-56.05 10.58 15.48-31.88 60.61-46.95 56.05" class="e" fill="#ffb545"></path><path d="M36.52 136.52c-8.99-12.27 29.17-61.84 46.97-56.03 10.59 15.46-31.88 60.59-46.97 56.03m8.34 87.33c-16.28-.65-38.29-57.65-22.62-67.23 20.07 1.37 35.57 58.9 22.62 67.23m42.27 57.77c-11.78 10.17-72.63-14.88-69.47-31.72 14.96-12.14 71.74 17.52 69.47 31.72m168.7-100.05c-16.29-.65-38.29-57.65-22.61-67.23 20.07 1.37 35.56 58.92 22.61 67.23m125.74 17.42c13.98 7.6 3.13 67.16-15.68 68.83-16.91-9.85-.12-67.08 15.68-68.83m37.61-8.75c-16.32-.67-38.28-57.67-22.64-67.25 20.08 1.37 35.57 58.9 22.64 67.25m31.5-74.89c-15.11 5.49-61.27-38.19-51.41-52.77 18.91-6.25 59.4 40.34 51.41 52.77m-93.75-33.1c-16.3-.65-38.29-57.67-22.63-67.25 20.09 1.37 35.57 58.91 22.63 67.25" class="f" fill="#f2a024"></path><path d="M225.45 221.82c-10.17 11.52-74.18-5.93-73.57-23 13.05-13.85 73.71 8.64 73.57 23" class="e" fill="#ffb545"></path><path d="M248.75 78.46c-8.51 12.56-74.42 2.35-76.12-14.63 11.03-15.21 74.31.38 76.12 14.63m153.33 44.26c-10.15 11.5-74.19-5.93-73.56-23.01 13.02-13.85 73.69 8.64 73.56 23.01" class="f" fill="#f2a024"></path><path d="M409.42 121.04c-15.84 3.5-54.63-45.69-42.55-58.84 19.69-3.77 52.41 47.56 42.55 58.84m-166.77-16.35c4.33 14.18-48.93 50.68-63.86 40.2-4.76-17.66 51.06-48.73 63.86-40.2" class="f" fill="#f2a024"></path><path d="M110.99 178.75c4.33 14.2-48.92 50.68-63.85 40.22-4.76-17.66 51.08-48.75 63.85-40.22M245.7 11.48c-1.55 14.65-65.77 31.52-75.55 16.9 2.54-18.02 67-29 75.55-16.9" class="e" fill="#ffb545"></path><path d="M340.06 101.49c4.33 14.2-48.9 50.68-63.84 40.22-4.76-17.67 51.05-48.75 63.84-40.22" class="f" fill="#f2a024"></path><path d="M304.03 207.55c4.34 14.2-48.9 50.68-63.85 40.22-4.76-17.66 51.07-48.75 63.85-40.22m106.34-23.43c-2.91 14.48-68.42 26.5-76.86 11.21 4.22-17.77 69.43-23.92 76.86-11.21" class="e" fill="#ffb545"></path><path d="M461.85 127.58c16.18 1.98 32.38 60.54 15.84 68.81-19.87-2.99-29.55-61.56-15.84-68.81M18.39 191.96c14.79 6.2 11.14 66.47-7.37 69.97-17.98-8.15-8.1-66.68 7.37-69.97" class="f" fill="#f2a024"></path><path d="M166.05 21.13c11.35 10.58-16.03 65.65-34.71 62.92-13.53-13.46 18.97-64.89 34.71-62.92" class="e" fill="#ffb545"></path><path d="M131.18 33.01c15.27 5.16 16.67 65.52-1.49 70.27-18.64-6.92-13.67-65.95 1.49-70.27m37.58 124.89c11.96 10-12.06 66.33-30.86 64.52-14.34-12.77 15.03-65.71 30.86-64.52M273.07 5.36c2.07 14.6-56.4 43.9-69.52 31.62-1.93-18.1 58.21-41.69 69.52-31.62m35.91 127.44c15.27 5.16 16.68 65.52-1.49 70.26-18.62-6.9-13.65-65.95 1.49-70.26" class="f" fill="#f2a024"></path><path d="M299.57 76.73c8.98-12.3-29.18-61.86-46.98-56.07-10.56 15.47 31.9 60.6 46.98 56.07" class="e" fill="#ffb545"></path><path d="M208.44 142.39c-4.25 5.58-24.81-9.86-20.57-15.44 4.25-5.58 24.81 9.85 20.57 15.44M82.7 354.5c-4.25 5.58-24.83-9.85-20.58-15.44 4.25-5.58 24.83 9.87 20.58 15.44m395.77-65.89c-4.24 5.58-24.81-9.85-20.57-15.44 4.25-5.58 24.81 9.87 20.57 15.44m-159.62-99.95c-4.86-5.05 13.78-22.75 18.65-17.68 4.86 5.05-13.77 22.73-18.65 17.68M73.22 112.33c-4.87-5.05 13.77-22.75 18.64-17.68 4.86 5.05-13.78 22.73-18.64 17.68M334.1 87.15c.52-6.96 26.24-5.1 25.73 1.89-.53 6.96-26.24 5.08-25.73-1.89M69.67 237.48c.51-6.96 26.24-5.09 25.72 1.89s-26.24 5.09-25.72-1.89" fill="#302c3b"></path><path d="M407.58 245.88c-2.36-2.56-35.96.02-60.61-1.43-13.18-.79-28.43-3.49-44.76-3.91-14.41-.37-29.69 2.55-44.91 2.49-15.21-.06-30.49-4.38-44.93-4.09-16.32.31-31.56 4.44-44.77 5.21-23.74 1.37-50.77-1.31-54.23 1.72-5.9 5.23-.03 25.78-3.87 47.56-2.41 13.69-5.86 29.33-7.37 45.93-1.39 15.23-4.48 31.08-5.07 46.5-.61 16.49 1.68 32.59 2.03 46.75.52 20.58 1.32 37.72 4.06 46.57 2.79 8.95 15.85 16.83 33.84 22.4 11.2 3.46 25.16 3.4 40 5.56 12.56 1.82 25.94 3.64 39.98 4.52 13.16.84 26.67-.32 40.26-.32s27.02-.73 40.19-1.55c14.05-.87 27.52-1.17 40.07-3 14.87-2.16 28.61-2.88 39.82-6.34 18-5.56 31.14-12.41 33.94-21.37 2.59-8.33 3.47-25.45 3.71-46.4.14-14.06-.1-30.01-.88-46.45-.72-15.34-4.7-30.9-6.14-46.09-1.55-16.54.8-32.97-1.48-46.68-3.63-21.87 6.21-42.08 1.11-47.61Z" fill="url(#1770301554869-9156943_b)"></path><path d="M259.46 396.53c4.72 32.56 35.92 32.03 54.37 22.58 18.79-9.59-57.64-45.25-54.37-22.58m26.16-29.51c22.09 16.02 31.44-2.67 31.17-18.94-.32-16.56-46.59 7.77-31.17 18.94m-96.61-42.74c22.09 16.02 31.44-2.67 31.17-18.94-.32-16.56-46.58 7.77-31.17 18.94m7.9 30.94c-24.14 1.56-15.2 24.24-2.81 38.09 12.67 14.12 19.69-39.17 2.81-38.09m140.94-11.19c4.67 32.5 35.91 31.98 54.31 22.53 18.76-9.62-57.62-45.28-54.31-22.53m31.73 68.36c22.08 15.98 31.39-2.71 31.12-18.99-.3-16.55-46.55 7.8-31.12 18.99m-31.13-25.72c-24.12 1.58-15.17 24.23-2.8 38.12 12.67 14.17 19.68-39.18 2.8-38.12m26.57-128.65c3.02 21.1 23.28 20.71 35.23 14.61 12.19-6.21-37.38-29.35-35.23-14.61m-22.08 58.91c14.3 10.34 20.35-1.77 20.16-12.33-.21-10.78-30.19 5.07-20.16 12.33M243 315.7c14.3 10.35 20.33-1.77 20.16-12.32-.2-10.78-30.18 5.07-20.16 12.32m-115.92-15.12c14.28 10.35 20.33-1.77 20.16-12.32-.22-10.78-30.21 5.07-20.16 12.32m20.43 73.19c14.28 10.35 20.33-1.77 20.16-12.32-.21-10.78-30.2 5.07-20.16 12.32m153.11 18.91c14.28 10.34 20.33-1.77 20.16-12.32-.22-10.79-30.2 5.06-20.16 12.32m13.58-58.59c14.3 10.35 20.35-1.77 20.17-12.32-.21-10.78-30.2 5.08-20.17 12.32m71.04-36.32c-15.65 1-9.84 15.72-1.8 24.75 8.23 9.13 12.78-25.45 1.8-24.75m-105.26-21.5c-15.64 1-9.84 15.72-1.8 24.75 8.23 9.14 12.78-25.45 1.8-24.75M234.46 383.1c-15.64 1.01-9.84 15.71-1.79 24.75 8.22 9.13 12.77-25.46 1.79-24.75M351.9 282.84c-4.72-32.55-35.95-32.03-54.37-22.58-18.78 9.59 57.62 45.27 54.37 22.58m-74.06-27.33c-22.09-16.02-31.44 2.67-31.15 18.94.31 16.56 46.58-7.77 31.15-18.94m39.81 40.25c-22.09-16.02-31.45 2.67-31.17 18.94.31 16.56 46.57-7.77 31.17-18.94m-100.05-1.22c24.12-1.57 15.17-24.25 2.81-38.1-12.69-14.13-19.71 39.17-2.81 38.1m-36.74 45.36c-4.67-32.49-35.91-31.98-54.33-22.53-18.77 9.62 57.63 45.28 54.33 22.53" class="d" style="isolation:isolate" fill="#1f2420" opacity=".4"></path><path d="M152.35 260.15c-22.08-15.98-31.38 2.71-31.11 18.99.29 16.54 46.56-7.8 31.11-18.99" class="d" style="isolation:isolate" fill="#1f2420" opacity=".4"></path><path d="M166.54 304.97c24.12-1.58 15.17-24.23 2.79-38.12-12.67-14.17-19.67 39.18-2.79 38.12m84.13 60.89c21.64 11.15 24.87-13.1 20.89-31.53-4.1-18.83-36.02 23.71-20.89 31.53m-89.98 43.99c-3.02-21.1-23.25-20.71-35.2-14.61-12.19 6.22 37.35 29.36 35.2 14.61m-30.42-52.7c-14.27-10.34-20.33 1.77-20.16 12.33.23 10.78 30.2-5.08 20.16-12.33m96.42-2.8c15.64-1 9.84-15.72 1.79-24.74-8.22-9.14-12.77 25.45-1.79 24.74" class="d" style="isolation:isolate" fill="#1f2420" opacity=".4"></path></g></svg>
