<svg xmlns="http://www.w3.org/2000/svg" data-name="Layer 1" viewBox="0 0 512 655.4"><g><defs></defs><path d="M0 223.27c44.95 37.38 223.64 66.05 223.64 66.05L512 207.4l-87.55-46.69-104.86-17.41S38.09 181.08 0 223.27" fill="#cfd8dd"></path><path d="M229.58 655.4c106.29-24.47 214.53-79.67 214.53-79.67L512 207.4s-162.2 19.35-288.36 81.92z" class="g" fill="#e6ebef"></path><path d="M353.28 148.82 223.64 289.31c-17-29.9-69.73-57.65-76.9-61.64-3.17-1.74 5.53-15.36 5.53-15.36-31.74-.61-108.24 0-152.27 10.96 34.61-37.38 353.28-74.44 353.28-74.44Z" style="isolation:isolate" fill="#b3c2c6" opacity=".5"></path><path d="m361.78 146.67-200.4 55.71S33.69 202.89 0 223.17c4.81-43.62 319.59-85.91 319.59-85.91l42.19 9.42Z" class="g" fill="#e6ebef"></path><path d="m223.64 179.44-22.12-1.02 21.2-3.28 65.74-16.28 4.61-2.97-2.56 4.81z" class="b" fill="#b3c2c6"></path><path d="M223.64 289.32C340.99 241.09 512 207.4 512 207.4s-72.7-44.34-79.36-45.57c-7.27-1.43-86.22-8.5-86.22-8.5l-24.37 1.02-28.57 6.55-3.99-1.13-65.13 16.79-3.38 3.79-57.24 17.72s-17.92 22.43-13.41 25.29c67.99 42.8 73.32 65.95 73.32 65.95Z" class="h" fill="#f2f5f7"></path><path d="M512 207.4 407.55 326.59l-54.27 98.2 90.83 150.94z" class="b" fill="#b3c2c6"></path><path d="m0 223.27 65.64 367.41c88.37 28.77 163.94 64.72 163.94 64.72s27.14-251.08-5.94-366.08c0 0-88.17-56.93-223.64-66.05" class="h" fill="#f2f5f7"></path><path d="M174.9 551.46c-3.69-16.9 16.28-8.29 16.49-23.86-17.2-5.02-20.68-21.81-28.16-35.02 3.89-4.92 11.06-5.53 14.03-11.78-17.31-8.29-21.81-24.17-26.21-36.66 6.25-2.56 9.83-8.7 16.28-10.96-13.62-7.17-20.17-20.28-25.91-34.2.92-7.37 5.22-10.44 9.42-13.62-16.18-11.47-34-46.9-34-46.9s-10.85 24.68-25.7 24.58c5.32 6.66 10.75 13.41 13.52 22.22-2.87 10.65-6.86 19.87-19.97 16.9 7.68 7.58 13 17 20.48 24.78-1.74 10.24-2.87 23.96-19.76 19.46 4.71 9.11 12.6 15.46 18.12 23.86-5.12 8.5-4.71 24.06-22.32 16.08 3.99 17.1 23.65 23.35 23.65 38.91l-35.74-13.41 2.25 19.25 141.62 53.25-2.25-19.35-35.84-13.52Zm-28.16-125.64c-4.61 8.5-34.3-2.66-41.37-15.56 2.56-7.58 36.76 5.22 41.37 15.56m7.47 46.18c-5.02 7.99-38.6-4.81-45.88-17.2 2.25-8.91 41.27 5.73 45.88 17.2m5.94 39.01c-7.27 7.58-39.73-5.32-48.84-18.33 3.07-11.67 42.6 3.17 48.84 18.33m-44.75 5.23c6.35-.2 38.91 11.98 45.88 17.2.51 4.51 1.02 9.01 1.54 13.52l-45.88-17.2c-.51-4.61-1.02-9.01-1.54-13.52" fill="#e81c27" fill-rule="evenodd"></path><path d="M512 207.4 410.01 328.64l-50.48 98 84.58 149.09z" class="g" fill="#e6ebef"></path><path d="m229.58 655.4 194.87-273.62-74.96-44.13-125.85-48.33z" class="b" fill="#b3c2c6"></path><path d="m229.58 655.4 185.86-272.28-65.54-41.89-126.26-51.91z" class="g" fill="#e6ebef"></path><path d="M394.85 320.86c0 3.89-3.07 6.96-6.86 6.96s-6.86-3.07-6.86-6.96 3.07-6.96 6.86-6.96 6.86 3.07 6.86 6.96" fill="#7e898c"></path><path d="M392.91 320.96c-.41 5.84-10.85 4.81-10.44-1.13.2-2.46 24.68-231.83 24.68-231.83 1.43-13.52-7.48-25.91-20.68-28.77L163.53 10.79c-2.36-.51-4.81 0-6.86 1.33-2.05 1.43-3.38 3.48-3.89 5.94l-27.24 153.5-11.57 2.66 28.47-158c.92-5.32 3.89-9.83 8.29-12.9 4.4-2.97 9.73-3.99 14.95-2.87L388.6 48.78c18.53 3.99 30.92 21.3 28.88 40.24.1 0-24.47 229.89-24.58 231.94Z" fill="#a1afb3"></path></g></svg>
