<svg xmlns="http://www.w3.org/2000/svg" data-name="Layer 1" style="" viewBox="0 0 512 511.98"><g><defs><radialGradient id="1770301554889-5218732_b" cx="189.46" cy="71.72" r="440.02" fx="189.46" fy="71.72" gradientTransform="matrix(.69 0 0 -.75 46.69 233.55)" gradientUnits="userSpaceOnUse"><stop offset="0" stop-color="#ffab00"></stop><stop offset=".31" stop-color="#ffa800"></stop><stop offset=".54" stop-color="#ff9e00"></stop><stop offset=".75" stop-color="#ff8e00"></stop><stop offset=".94" stop-color="#ff7800"></stop><stop offset="1" stop-color="#ff6f00"></stop></radialGradient><radialGradient id="1770301554889-5218732_c" cx="95.56" cy="-44.07" r="196.27" fx="95.56" fy="-44.07" gradientTransform="matrix(.80817 -.1891 -.14006 -.63479 108.17 149.67)" gradientUnits="userSpaceOnUse"><stop offset="0" stop-color="#ff6f00"></stop><stop offset=".62" stop-color="#ff9200" stop-opacity=".38"></stop><stop offset="1" stop-color="#ffa200" stop-opacity="0"></stop></radialGradient><linearGradient id="1770301554889-5218732_d" x1="176.66" x2="221.69" y1="398.15" y2="398.15" gradientTransform="matrix(1 0 0 -1 0 509.99)" gradientUnits="userSpaceOnUse"><stop offset="0" stop-color="#77b516"></stop><stop offset="1" stop-color="#297124"></stop></linearGradient><linearGradient id="1770301554889-5218732_e" x1="165.31" x2="205.48" y1="428.5" y2="428.5" gradientTransform="matrix(1 0 0 -1 0 509.99)" gradientUnits="userSpaceOnUse"><stop offset="0" stop-color="#77b516"></stop><stop offset="1" stop-color="#297124"></stop></linearGradient></defs><path d="M483.5 272.19c0 319.73-483.5 319.73-483.5 0s483.5-319.77 483.5 0" fill="url(#1770301554889-5218732_b)"></path><path d="M22.2 184.57c46.23-43.41 155.61-76.13 155.61-76.13s-58.48-6.3-99.61-11.04c41.13-6.9 107.87 4.96 107.87 4.96s-7.63-17.7-47.59-45.54c48.02 16.89 59.35 43.2 59.35 43.2s19.24-63.19 23.86-63.59c4.14-.38-9.36 61.65-9.36 61.65s71.4-24.69 150.48-18.77c-84.82 12.14-146.48 28.42-146.48 28.42s89.14 15.65 129.77 36.83c-56.12-13.3-130.05-28-130.05-28s79.34 81.33 100.27 146.89c-44.57-83.24-108-136.82-108-136.82s-1.66 115.65 8.53 171.31c-21.23-64.39-18.92-172.4-18.92-172.4s-70.38 112.58-88.26 183.44c6.99-90.6 75.77-180.6 75.77-180.6s-92.3 59.23-128.58 99.77c38.41-61.52 127.2-112.97 127.2-112.97S66.14 158.45 22.2 184.56Z" fill="url(#1770301554889-5218732_c)"></path><path d="M182.57 115.69s-6.38-4.82-5.89-8.33c.57-4.05 12.77-8.22 12.77-8.22s4.44-8.02 7.87-8.32c3.07-.27 8.35 4.91 8.35 4.91s13.65-2.09 15.71 2.06c1.97 4.07-5.97 12.32-5.97 12.32s4.81 13.52 1.39 17.09c-3.62 3.77-16.52-1.71-16.52-1.71s-13.48 9.76-17.85 6.82c-4.04-2.72.14-16.61.14-16.61Z" fill="url(#1770301554889-5218732_d)"></path><path d="M182.17 44.12c-1.12-2.63-17.67 6.88-16.83 9.55 14.87 18.61 27.01 55.99 26.7 62.9-.24 5.43 12.46 1.58 13.12-1.65 1.12-5.6.62-31.78-22.98-70.81Z" fill="url(#1770301554889-5218732_e)"></path><path d="M182.17 44.12c3.8 5.71-13.48 12.52-16.83 9.55-4.76-4.2 13.11-15.15 16.83-9.55" class="l" fill="#5fbd17"></path><path d="M237.9 29.37c50.63 49.86 106.85 96.1 163.82 101.37 54.83 9.81 110.38-21.36 110.28-21.1-2.36 4.97-51.72-6.42-104.77-34.69C352.58 50.01 294.31 8.17 237.9 29.37" class="j" fill="#449c00"></path><path d="M237.9 29.37c55.25-16.41 113.43 25.65 168.37 49.32 53.37 27.06 103.48 35.71 105.72 30.95.25-.52-28.81-24.22-70.31-61.57-43.69-32.75-99.85-79.13-203.78-18.7" class="k" fill="#56ab15"></path><path d="M267.24 27.52c12.55-9.51 27.64-16.57 42.53-20.7 15.03-4 30.25-4.9 44.17-2.09-14.24-1.28-29-.31-43.68 3.77-7.37 1.88-14.66 4.57-21.88 7.74-7.19 3.21-14.38 6.91-21.14 11.28m39.62 6.27c13.17-9.51 29.43-15.62 45.66-17.89 8.16-1.03 16.38-1.12 24.42-.14 8.01 1.01 15.81 3.04 23.2 5.83-15.32-4.24-31.34-6.14-47.31-3.86-8 .97-15.9 2.95-23.61 5.66-7.72 2.73-15.32 6.13-22.36 10.4m39.28 14.79c13.92-6.9 29.83-10.28 45.77-10.68 7.98-.06 16.06.59 23.89 2.19 7.85 1.57 15.43 4.15 22.49 7.26-14.87-5.01-30.62-8.01-46.29-7.58-7.83.05-15.61.98-23.3 2.43-7.64 1.51-15.27 3.51-22.56 6.37Zm43.69 22.18c12.17-3.45 25.27-4.49 38.45-4.38 6.62.19 13.25.63 19.78 1.65 6.54.93 12.89 2.45 18.86 4.33-12.74-2.48-25.77-4.02-38.74-4.14-6.48-.2-12.92.06-19.32.45-6.38.46-12.77 1.04-19.04 2.09Zm41.43 20.29c10-1.92 20.5-2.18 30.92-1.88 5.17.27 10.38.67 15.32 1.46 5 .73 9.7 1.87 13.93 3.31-9.62-1.61-19.6-2.7-29.76-3.02-5.05-.29-10.17-.28-15.24-.28-5.06.06-10.13.13-15.18.41Z" class="l" fill="#5fbd17"></path><path d="M267.24 27.52c-1.34 11.2 2.48 21.52 8.59 31.43 6.42 9.78 15.73 19.14 27.48 27.2-10.14-9.12-18.93-18.38-24.98-28.18-3.2-4.84-5.61-9.82-7.52-14.88-1.83-5.07-3.27-10.18-3.58-15.57Zm39.62 6.27c-2.54 14.56.48 29.18 6.83 42.92 3.33 6.8 7.57 13.4 12.74 19.5 5.15 6.07 11.15 11.61 17.8 16.45-12.04-10.86-22.08-23.27-28.32-36.8-3.3-6.68-5.56-13.64-7.09-20.66-1.49-7.05-2.39-14.17-1.97-21.4Zm39.28 14.79c-.43 15.41 3.43 30.9 10.18 45.09 3.57 7 7.9 13.71 13.22 19.52 5.27 5.87 11.57 10.75 18.48 14.51-12.85-8.88-23.03-21.07-29.71-34.97-3.48-6.88-6.04-14.17-8.11-21.54-1.97-7.45-3.49-14.96-4.05-22.61Zm43.69 22.18c.94 12.36 4.85 24.31 10.61 35.02 3.06 5.28 6.57 10.29 10.88 14.56 4.23 4.33 9.27 7.88 14.86 10.48-10.09-6.56-18-15.62-23.75-26.08-3.02-5.15-5.37-10.71-7.48-16.38-2.05-5.71-3.86-11.57-5.12-17.58Zm41.43 20.29c3.28 9.18 9.08 17 16.21 23.08 3.7 2.91 7.74 5.44 12.3 7.12 4.53 1.77 9.57 2.61 14.91 2.61-9.94-1.61-18.49-5.6-25.5-11.48-3.63-2.8-6.79-6.17-9.76-9.74a84.6 84.6 0 0 1-8.16-11.58Z" class="k" fill="#56ab15"></path><path d="M195.07 74.84C214.57 46.92 246 35.02 246 35.02l-8.11-5.65s-30.66 15.24-47.92 40.07c-1.6 2.43 3.79 7.38 5.09 5.39Z" class="j" fill="#449c00"></path></g></svg>
