<svg xmlns="http://www.w3.org/2000/svg" data-name="Layer 1" style="" viewBox="0 0 512 511.89"><g><defs><linearGradient id="1770301554898-169626_b" x1="297.99" x2="297.99" y1="8.34" y2="506.83" gradientTransform="matrix(1.12 0 0 -1 -73.8 513.88)" gradientUnits="userSpaceOnUse"><stop offset="0" stop-color="#ffae2c"></stop><stop offset=".01" stop-color="#ffaf2d"></stop><stop offset=".15" stop-color="#ffbe38"></stop><stop offset=".32" stop-color="#ffc63e"></stop><stop offset=".59" stop-color="#ffc940"></stop></linearGradient></defs><path d="M257.5 78.5c28.16 36.27 43.18 24.23 53.42 26.62 30.72 7.08 34.22 20.56 62.03 23.81 38.65 4.44 25-24.58 9.56-35.84C343.34 64.42 253.23 73.12 257.5 78.5" fill="#ffae2c"></path><path d="M384.05 103.16c5.72 6.4 18.77 22.78-10.41 19.37-26.71-3.07-28.84-16.21-61.35-23.64-9.47-2.22-18.09 5.03-34.3-8.02-4.35 1.79-8.7 3.75-12.97 5.8 22.7 21.42 36.35 12.71 44.29 14.68 27.65 6.31 34.99 20.74 62.72 23.89 30.8 3.5 39.93-14.25 26.03-34.81-4.52 1.02-9.22 1.88-13.99 2.73Z" class="e" fill="#db942d"></path><path d="M252.47 92.58c14.51 6.06 29.69.43 35.92-5.21 10.58.77 25.26-1.37 25.26-1.37-2.99 23.72 12.97 20.91 46.42 22.7 5.55 2.47 22.61 1.28 22.19-10.24 5.46 2.13 27.48 3.24 24.58-10.32 5.29-.68 15.02-1.54 13.48-9.81-1.28-7-24.4-76.97-59.05-70.91-5.03.85-62.55 1.71-68.01 4.01-28.59 12.2-59.05 12.2-73.21 26.03C40.6 212.46 52.97 282.44 16.7 343.62c-31.23 52.65 18.09 84.31 27.48 87.55 199.33 68.43 197.03 100.26 445.59 49.24 13.4-2.73 58.96-97.19-39.51-169.55-89.26-65.62-185.59-48.81-257.7-2.99 37.63-113.23-22.78-110.84 59.9-215.29Z" fill="url(#1770301554898-169626_b)"></path><path d="M305.29 499.09c-89.68 0-149.75-38.23-259.06-73.98-10.24-3.33-51.28-32.34-23.98-78.25 42.15-71.08 20.14-127.14 202.23-304.8 12.03-11.78 47.27-14.42 70.99-24.58 4.01-1.19 64.77-3.33 66.81-3.67 13.57-2.39 23.04-2.47 23.64 9.98.85 16.64 25.6 47.44 28.07 56.15-.85.94-4.69 1.54-7.34 1.88-.34-.68-13.91-25.6-16.38-32.94 1.37 14.59 7.25 30.04 10.15 41.9.68 2.82-9.3 2.82-12.12 2.56-1.79-27.31-5.38-39.08-5.72-66.05-.26-16.3-20.05-6.49-40.87-8.53 20.22 4.35 37.12-1.88 36.01 8.28-6.31 64 7.68 78.08-13.99 76.2 1.37-16.04-1.45-46.85-1.19-62.21.26-13.65-22.61-4.1-38.06-8.96 14.51 6.49 30.72 1.79 33.19 7 1.28 2.05-3.07 59.73-5.72 62.89-26.37-1.11-33.36 0-32.25-13.48.26-.09 3.33-1.54 4.69-2.22 5.55 4.52 12.63 7.42 20.99 4.69-6.4-.85-11.35-5.12-13.14-8.87 6.14-3.84 10.92-9.3 13.91-15.27-13.06 16.81-60.24 14.08-60.24 14.08s-14.16 15.1-35.67 4.01c-90.79 114.6-25.86 120.74-64 221.09-12.71 33.45-28.07 57.6-49.66 81.32 27.56-21.33 51.62-46.33 61.78-75.35 83.71-52.14 175.61-49.24 251.72-1.02-72.53-61.01-164.6-62.46-245.84-17.41 25.86-94.63-21.93-100.35 50.34-193.19 3.58 1.02 7.25 1.45 11.01 1.45 10.58 0 19.46-3.84 24.83-7.77 5.55.26 11.69-.26 16.3-.68 1.54 23.98 31.23 20.74 51.8 21.84 10.41 3.5 24.32-.77 28.41-9.04 12.03 1.19 23.89-2.22 26.11-12.29 7.25-1.54 15.36-6.06 13.4-16.47-2.39-12.97-26.2-40.96-27.73-54.95-2.22-19.8-15.27-25.26-38.74-21.16-2.13.34-61.52 1.19-69.46 4.44-29.44 12.2-59.13 11.6-75.18 27.31C31.98 211.95 52.71 270.23 11.16 340.37c-33.11 55.81 16.64 91.99 30.89 96.85C164.58 479.2 218 511.88 305.29 511.88c43.94 0 101.54-6.4 184.4-31.57-81.06 10.5-141.39 18.77-184.4 18.77Z" class="e" fill="#db942d"></path><path d="M203.06 378.09c45.31 80.72 183.2 83.62 242.93 22.1-80.55 49.41-189.69 36.61-242.93-22.1" class="e" fill="#db942d"></path></g></svg>
