<svg xmlns="http://www.w3.org/2000/svg" data-name="Layer 1" style="" viewBox="0 0 512 443.83"><g><defs><radialGradient id="1770301554901-2743884_b" cx="291.4" cy="134.38" r="288.92" fx="291.4" fy="-79.92" gradientTransform="matrix(.99643 .08437 .02397 -.6804 -35.6 257.32)" gradientUnits="userSpaceOnUse"><stop offset="0" stop-color="#fec6db"></stop><stop offset=".2" stop-color="#fec2d8"></stop><stop offset=".41" stop-color="#feb5cf"></stop><stop offset=".62" stop-color="#fea0bf"></stop><stop offset=".84" stop-color="#fe82aa"></stop><stop offset="1" stop-color="#fe6897"></stop></radialGradient></defs><path d="M313.24 367.35c.6 33.97 27.57 29.53 31.66 73.57.26 2.99 26.46.85 26.71-2.39 10.24-111.88-58.89-98.49-58.37-71.18" class="g" fill="#b44467"></path><path d="M316.48 367.27c1.62 34.48 29.7 29.53 31.06 75.02.09 2.99 20.91 1.28 21.25-1.96 10.24-111.97-53.6-100.36-52.32-73.05Z" class="f" fill="#d9527c"></path><path d="M273.47 302.58c-4.35 23.04 18.86 64.69 42.24 65.03 19.03.26 69.04 18.01 68.36-7.85-2.65-99.34-105.57-84.06-110.6-57.18" class="d" fill="#ab385c"></path><path d="M316.74 367.87c-.26 17.58 17.75 37.29 25.35 35.08 33.37-9.56 6.23-36.27 3.33-38.15-12.89-8.62-28.59-.68-28.68 3.07m-41.82-48.82c14.76 21.51 44.55-.09 77.06 5.8 17.24 3.07.34-29.44-21.76-31.24-23.47-1.96-60.68 17.67-55.3 25.43Z" class="g" fill="#b44467"></path><path d="M344.13 362.75c-15.53 42.59 35.76 59.06 50.78 23.98 7.51-17.24-45.74-37.72-50.78-23.98" class="d" fill="#ab385c"></path><path d="M342.34 368.98s3.67 34.91 48.65 24.92c-38.75.94-48.65-24.92-48.65-24.92" class="g" fill="#b44467"></path><path d="M342.51 381.35s3.24 27.05 41.65 19.29c-34.31 1.28-41.65-19.29-41.65-19.29" class="g" fill="#b44467"></path><path d="M337.99 345.25c-9.3 74.42 184.08 48.05 118.11-34.39-31.06-38.92-113.16-44.72-135.78-2.65-13.31 24.75 17.67 37.04 17.67 37.04" class="f" fill="#d9527c"></path><path d="M337.99 345.25s-.6 46.68 90.72 39.09c-75.61 1.71-90.72-39.09-90.72-39.09" class="g" fill="#b44467"></path><path d="M342.94 331.77s6.83 55.9 105.91 43.7c-88.07 2.9-105.91-43.7-105.91-43.7" class="g" fill="#b44467"></path><path d="M347.2 325.28s31.75 63.5 117.69 34.99c-73.22 16.56-117.69-34.99-117.69-34.99m30.3-19.8s53.77 17.07 91.74 22.45c-38.15-17.84-91.74-22.45-91.74-22.45m-43.1-10.33s-35.93 24.32 5.89 42.93c-28.16-21.51-5.89-42.93-5.89-42.93" class="g" fill="#b44467"></path><path d="M343.45 289.86s-30.21 26.11 3.76 35.5c-20.99-19.29-3.76-35.5-3.76-35.5" class="g" fill="#b44467"></path><path d="M354.71 290.29s-25.26 18.26 0 29.19c-17.58-13.4 0-29.19 0-29.19" class="g" fill="#b44467"></path><path d="M374.17 282.35s-32.69 24.83-10.07 31.41c-15.11-9.3 10.07-31.41 10.07-31.41" class="g" fill="#b44467"></path><path d="M382.45 277.15s-24.83 26.11-4.69 28.33c-12.72-5.04 4.69-28.33 4.69-28.33m-27.74 42.33c34.48 15.36 35.59 43.78 114.02 32.09-69.3 1.11-65.71-21.51-114.02-32.09" class="g" fill="#b44467"></path><path d="M364.1 313.67c49.5 5.55 37.47 30.47 105.74 26.46-59.4-4.61-73.22-32.52-105.74-26.46" class="g" fill="#b44467"></path><path d="M142.72 287.64C67.79 302.4 6.43 271.85 10.01 225.08c-17.15-30.55-9.47-58.46 2.22-78 1.96-40.79 30.04-58.72 49.93-82.36 21.93-33.37 51.97-23.98 69.81-37.21C146.56 15.48 167.13 1.99 198.45 13c32.77-18.77 73.99-13.39 80.57-7.42 20.48-11.44 55.39-1.28 68.02 15.28 37.55-.68 49.58 23.9 49.58 23.9 58.8 10.75 75.96 83.04 75.96 83.04 29.44 26.2 50.1 94.56 33.54 127.25 9.99 75.27-37.98 102.16-121.1 34.56-46.6 32.69-72.97 8.19-124.94 43.1-28.33 46.94-101.3 35.76-117.35-45.06Z" fill="url(#1770301554901-2743884_b)"></path><path d="M394.06 191.46c.94-5.21.09-10.75-1.37-15.62-1.54-4.86-3.58-9.3-5.21-13.48-1.54-4.27-2.99-8.36-1.88-13.31-3.41 3.41-3.84 9.73-2.73 14.68.94 5.12 2.73 9.64 4.01 14 1.37 4.35 2.3 8.62 2.39 12.97s-.68 8.88-2.05 13.65c3.24-3.16 5.97-7.68 6.83-12.89Z" class="e" style="isolation:isolate" opacity=".8" fill="#d9527c"></path><path d="M470.44 248.3c-17.5-24.41-47.62 9.05-62.39-11.01-4.52-6.14-3.41-7.51-9.13-12.8.09-.77 12.12-9.47 7.85-25.26-.6 15.11-12.55 19.12-13.14 20.23-11.09-4.78-27.82-8.19-42.16-.85-2.22-1.45-10.67-14-12.12-18.26.09 4.52 3.84 18.52 5.12 20.91-6.74 2.9-13.65 11.44-27.4 18.6 21.08-.34 52.91-41.65 83.89.77 19.12 26.2 50.78-10.75 63.41 11.69 12.97 23.04 36.53 13.74 41.82 2.65-16.04 9.73-29.19 2.56-35.76-6.66Z" class="e" style="isolation:isolate" opacity=".8" fill="#d9527c"></path><path d="M366.49 252.82c1.19-1.88 6.91-11.61 15.19-14.08-13.14-2.65-20.14 8.88-23.04 12.55-6.49-.43-12.63 1.11-18.52 2.73-4.61 1.28-8.88 2.47-13.23 2.65-2.99.17-6.06-.17-9.3-.43-2.73-.26-5.55-.51-8.28-.51-1.96 0-3.84.26-5.8.51-1.02-2.13-1.71-4.78-2.22-7.51l-1.02-6.23c-.34-2.13-.6-4.35-1.45-6.32.17 4.18-1.11 8.19-1.62 12.55-.26 2.73-.6 5.72-.26 8.88-3.84 1.02-7.6 2.39-11.35 4.35-2.73-1.62-5.38-2.99-7.94-4.52-3.24-2.05-6.74-4.1-8.19-8.19 0 4.44 3.07 8.36 5.63 11.61 1.37 1.71 2.73 3.24 4.1 4.86-1.02.68-2.13 1.28-3.16 2.05l-2.3 1.79c-2.47 1.88-4.78 3.76-7.25 4.86-3.16 1.45-6.74 1.96-10.58 2.56l-3.24.51c-11.86 1.96-23.21 6.83-33.28 13.91-1.79-.26-3.41-.43-5.04-.68-2.39-.26-4.61-.77-6.83-1.54s-4.35-1.88-6.49-3.24c-2.22-1.28-4.1-3.16-6.14-4.95 2.05 5.29 5.89 10.16 11.01 12.97 2.47 1.45 5.21 2.3 7.85 2.99.68.17 1.37.26 2.05.34a24 24 0 0 0-2.56 6.06c-1.19 4.18-.85 8.96 1.02 12.72.43-2.05.68-3.93 1.37-5.63.6-1.71 1.37-3.33 2.13-4.78.77-1.37 1.62-2.65 2.56-3.84 9.99-7.94 21.68-13.31 34.05-15.36l1.45-.26c.43 1.28.85 2.73 1.19 4.27.77 3.16 1.54 6.66 3.33 9.39-.77-4.95 1.11-9.22 1.54-14.68 2.73-.51 5.46-1.11 8.11-2.39.17-.09.26-.17.43-.26.51.26 1.11.51 1.62.77l4.52 2.47c3.07 1.54 6.66 3.07 9.9 2.3-3.24-.85-5.46-3.41-7.6-5.97l-2.56-3.41c.77-.6 1.62-1.19 2.39-1.79l2.22-1.71c6.4-4.78 16.64-10.58 28.68-10.5 2.47 0 5.04.26 7.51.51 3.41.34 6.91.68 10.41.51 5.12-.26 10.07-1.62 14.85-2.9 6.14-1.71 11.95-2.3 17.75-2.39 18.01-.43 34.22 11.78 36.36 13.31-17.07 12.8-34.22.17-57.69 10.41 29.36-1.62 36.53 10.07 64.18-5.04 20.31 13.4 24.83 43.44 57.44 26.46-49.16-3.5-27.65-42.84-93.88-52.74Z" class="e" style="isolation:isolate" opacity=".8" fill="#d9527c"></path><path d="M255.29 309.83c-4.52-1.19-9.39-2.3-14.25-2.82 4.18 2.99 8.36 5.72 12.89 7.85 4.44 2.3 9.56 4.01 14.68 4.1 10.24.17 19.54-3.5 27.65-8.96-9.81.43-18.86 2.56-27.74 2.22-4.44-.09-8.62-1.19-13.23-2.39m214.21-33.54c-5.72-.77-25.94 5.21-40.03 3.84 13.48 7.42 36.27 4.01 36.36 4.1 2.56 6.91 1.11 15.11-1.45 16.98 9.56-2.73 8.02-10.16 8.36-11.78 19.71-.51 20.14 27.22-6.14 35.67 47.88-9.99 24.58-45.91 2.9-48.82Z" class="e" style="isolation:isolate" opacity=".8" fill="#d9527c"></path><path d="M481.79 304.71c-5.63 3.58-11.18 6.32-17.07 8.62s-11.69 4.44-18.09 5.72c3.24 1.28 6.66 1.28 9.99.94 3.33-.26 6.57-1.19 9.64-2.39 6.14-2.56 12.12-6.66 15.53-12.89M108.5 127.37c-4.18.85-8.53 2.9-11.44 6.57-2.99 3.58-4.52 8.02-5.12 12.55 2.22-3.84 4.35-7.42 7.34-9.99 2.9-2.47 6.4-4.01 10.16-4.69 3.76-.85 7.77-.85 11.86-1.37 4.01-.51 8.62-1.11 11.78-4.27-3.93 1.45-7.85 1.02-11.95.77-4.1-.26-8.28-.43-12.63.43" class="e" style="isolation:isolate" opacity=".8" fill="#d9527c"></path><path d="M213.47 332.45c-12.55-14.94-20.4-38.06-26.88-56.92-.94-2.73-1.88-5.8-1.28-8.02.34-1.28 1.37-2.56 2.9-3.93 4.18-3.5 9.56-4.95 15.28-6.49 3.16-.85 6.32-1.79 9.39-2.99 4.01 2.82 8.28 4.86 12.46 5.72-2.65-2.65-4.69-5.72-6.32-8.88.26-.17.51-.26.85-.51 1.96-1.37 3.84-2.99 5.63-4.69 3.24-2.9 6.32-5.72 9.73-6.06 1.96-.26 4.18.34 6.57.94 2.82.68 5.97 1.45 9.3 1.11 6.23-.68 10.67-5.21 14.51-9.05 2.47-2.47 4.69-4.78 7.25-6.14 2.47-1.28 5.46-1.88 8.62-2.39 3.5-.6 7-1.19 10.5-2.99 5.97-2.99 9.73-8.36 13.48-13.57 2.9-4.1 5.63-7.94 9.13-10.33s7.85-3.33 12.55-4.35c4.44-.94 9.13-1.96 13.4-4.35 9.99-5.46 16.73-17.84 19.03-34.73.17-1.02.17-2.13.26-3.16 3.93-.94 17.5-10.75 22.19-10.33-4.44-2.05-19.12 2.47-21.51 2.39-3.07-14.85 3.41-38.92 3.41-38.92-5.97 7.34-11.27 16.9-11.35 34.14 0 4.78-.6 9.56-1.28 14.25-1.11 8.11-4.52 22.62-14.76 28.25-3.33 1.88-7.25 2.65-11.35 3.58-5.12 1.11-10.41 2.22-15.19 5.46-4.78 3.16-8.02 7.85-11.27 12.37-3.24 4.61-6.32 8.96-10.58 11.09-2.47 1.19-5.29 1.71-8.36 2.3-2.39.43-4.78.94-7.17 1.79-1.19-2.9-4.35-18.6-5.8-23.47.09 4.86-1.11 22.79-.6 26.8a57 57 0 0 0-6.4 5.55c-3.41 3.5-6.49 6.4-10.07 6.83-1.96.26-4.27-.34-6.66-.94-2.82-.68-5.89-1.45-9.3-1.11-.77-2.82-3.07-18.09-3.93-22.87-1.11 8.19-2.9 16.22-2.73 25.26-2.65 1.54-5.04 3.58-7.25 5.55-1.54 1.45-3.16 2.82-4.86 4.01-3.33 2.3-7.25 3.58-11.52 4.78-.34-.68-6.66-16.73-8.02-21.17 0 4.61 1.28 22.27 1.45 22.96-4.95 1.45-9.81 3.33-14.08 6.91-1.62 1.37-2.82 2.9-3.84 4.44-.77-.77-1.54-1.71-2.47-2.82-9.9-11.95-22.45-18.86-34.14-19.03-1.11-.85-1.88-2.05-2.22-3.07-.85-2.47-.77-5.63.26-8.02 1.96-4.61 6.06-7.85 11.61-11.27 15.11-9.56 27.31-12.97 38.15-10.84l1.11.26c.17 0 .26.09.43.09.26 4.78 1.28 9.22 2.56 13.48.68-4.52 1.79-9.22 3.41-12.97 3.41-.43 6.23-2.22 8.62-3.76l1.02-.68c7.6-4.86 16.39-7.51 25.26-7.51h1.02c2.47 0 5.21 0 7.94-1.11 3.24 3.07 5.97 7.51 7.51 12.63.43-5.04-.26-10.67-2.56-15.96.77-.68 1.45-1.45 2.22-2.22 14.17-15.28 52.57-31.06 53.08-31.24 5.29 4.78 11.52 7.42 17.41 7.68-5.46-2.82-12.03-6.91-12.2-12.63-.09-2.22 2.73-43.18 15.45-67.08 0 0-9.39 9.39-14.34 22.36-.51-.09-13.57.34-20.23-13.31 2.56 15.96 18.09 20.06 18.35 20.23-2.65 10.07-5.55 22.7-6.74 33.88-.17.09-14.94 4.52-21.42 7.6-4.95-5.04-9.81-10.24-13.48-16.22-4.18-6.91-6.14-14.17-5.38-20.4.6-5.12 3.24-9.56 6.66-12.03 1.88 6.74 17.75 22.02 17.75 22.02-4.61-7.51-11.44-24.49-10.75-31.58.51-5.38 3.5-10.07 7.42-15.7 4.61-6.57 9.3-13.4 15.19-18.52 6.14-5.38 12.97-8.19 19.29-7.94 3.76.17 7.51 1.37 11.52 2.65 3.33 1.11 6.83 2.05 10.41 2.65-.6.34-1.11.6-1.79.94-3.76 1.71-8.02 3.16-12.03 4.95-4.1 1.79-8.19 3.93-11.69 6.91-3.5 2.9-6.4 6.83-7.94 11.27 4.52-8.36 12.8-11.86 20.99-13.83 4.18-1.02 8.45-1.71 12.8-2.82 2.22-.6 4.52-1.37 6.91-2.65 1.54-.94 3.16-2.47 4.35-4.52 2.13-.17 4.35-.34 6.49-.26 11.01.51 23.64 5.38 29.02 17.5-22.02 1.02-26.54 13.4-46.94 7.94 25.01 15.79 27.31-7 63.67 3.5 1.45 4.69 2.82 19.54 21.51 18.35-13.74-3.33-13.57-14.17-13.91-16.73 8.62-.51 15.45 1.79 19.46 5.12l16.98 14.08c.51.43.94.85 1.45 1.28-.43-.34-2.82 2.56-3.07 2.9-1.11 1.37-2.05 2.9-3.24 4.18-1.37 1.45-2.56 1.96-4.52 2.05-4.95.26-9.9.68-14.51 2.39-1.88.68-3.76 1.62-5.29 2.99-1.62 1.28-2.56 2.99-3.76 4.78-4.01 5.8-23.13 5.89-21.25-15.45-4.1 7.85-1.62 19.03 5.46 24.41 7 5.38 17.24 3.84 22.36-3.24 1.11-1.54 2.05-3.16 3.76-4.1 2.13-1.19 4.69-1.71 7.08-2.05.68-.09 7.68-1.19 7.77-.77 2.13 3.84 3.93 7.85 5.46 11.95-1.54 3.58-4.78 6.83-9.22 8.11 3.5 1.19 7.68 1.11 11.61-.43.43 1.62.85 3.24 1.19 4.95l.26 1.28c.43 2.22.94 4.52 1.79 6.91s2.05 4.44 3.16 6.4c.51.85 1.02 1.79 1.45 2.65 1.62 3.24 2.56 6.83 3.16 10.5-5.97.09-11.27 2.05-16.13 5.46 6.32 1.54 12.2.85 17.41 1.28 5.29.17 9.9 2.05 15.96 4.78-1.37-3.16-3.5-6.06-6.32-8.11-.68-.51-1.54-.85-2.3-1.19-.43-5.8-1.96-11.61-4.61-16.73-.51-1.02-1.11-2.05-1.62-2.99-.94-1.62-1.79-3.24-2.47-5.04-.68-1.71-1.02-3.58-1.37-5.38l-.26-1.37c-1.88-9.13-5.12-17.84-9.39-26.03-1.88-6.57 3.33-13.48 3.33-13.48.68.68 1.37 1.37 1.96 2.13 1.71 2.47 2.39 5.55 2.99 8.53 1.71 9.73 2.39 19.63 6.32 28.76 1.19 2.73 2.56 5.38 4.01 8.02 1.19 2.13 2.39 4.35 3.33 6.57 1.45 3.33 2.56 6.91 3.58 10.41l3.84 12.63c1.37 4.52 2.82 9.22 2.47 13.57-.26 3.33-1.88 7.25-4.78 7.85-10.07 1.96-15.11-11.44-37.47-4.95-1.02-5.72-3.41-12.12-5.29-17.58.6-.94.43-15.02 12.37-23.04-14 4.27-16.39 17.24-16.39 17.24-2.82-6.4-6.91-8.19-14.51-27.14-1.11 34.99 23.81 48.39 9.81 74.25 0 0 10.41-3.93 16.04-14.94 10.92-6.74 22.62 9.05 42.07 2.65 5.12.51 7.08 15.53 20.91 22.1-11.44-13.91-6.06-22.1-16.47-28.08 1.02-2.3 1.62-4.86 1.79-7.25.43-6.14-1.37-12.03-2.9-17.15l-3.84-12.63c-1.11-3.58-2.3-7.68-4.01-11.61a85 85 0 0 0-3.76-7.34c-1.28-2.3-2.56-4.69-3.58-7.17-2.22-5.29-3.33-10.92-4.18-16.56-.85-5.38-1.19-11.01-2.9-16.22-.77-2.22-1.71-4.35-3.07-6.32-1.96-2.82-4.52-4.95-6.74-6.74l-16.98-14.08c-4.1-3.33-10.16-8.36-17.32-7.94.68-.6 1.37-1.19 2.22-1.62 2.9-1.62 6.49-2.47 10.07-2.39 7.25-.09 14.76 3.67 20.65 9.56-4.86-6.83-12.03-12.46-20.4-14-4.1-.85-8.53-.77-12.8.6-3.67 1.19-7.51 3.84-9.81 8.36-1.45-.43-12.37-3.67-12.63-3.76-6.06-18.35-22.96-25.77-37.64-26.37-.68 0-1.37.09-2.05.09-1.11-3.24-2.3-6.49-3.76-9.73 3.33-1.45 7.6-1.88 11.52-1.45 5.12.43 9.81 3.33 14.85 6.49 4.95 3.16 9.99 6.74 15.62 8.79 5.55 2.05 11.86 2.65 16.98 0-5.38 1.96-11.27.51-16.22-2.05-5.04-2.65-9.47-6.57-14.17-10.41-2.3-1.96-4.78-3.84-7.34-5.55-2.65-1.79-5.8-3.07-8.79-3.93-5.29-1.19-10.92-1.54-16.56.51-1.96-2.82-4.27-5.38-7.17-7.17-4.52-2.73-9.56-3.07-14.08-2.47-4.52.68-8.79 2.22-12.89 3.93 4.35-1.02 8.7-1.79 13.06-1.62 4.35.09 8.62 1.28 11.78 3.93 5.46 4.86 7.68 12.97 9.22 20.99-2.05.09-4.01.17-5.97 0-3.41-.34-6.83-1.45-10.41-2.65-4.27-1.37-8.79-2.82-13.48-3.07-2.22-.09-4.52.17-6.83.6-.43-1.54-.94-3.07-1.62-4.44-1.54-3.16-3.84-5.63-6.14-7.51-4.61-3.93-9.99-5.38-13.57-9.99 1.11 2.73 3.24 4.95 5.21 7s4.01 4.01 5.55 6.23c2.65 3.5 3.67 7.25 3.58 11.09-3.67 1.62-7.34 3.93-10.75 6.91-.68.6-1.19 1.19-1.88 1.79-4.95-5.8-10.67-10.24-16.73-13.4 5.21 5.38 9.3 11.78 11.95 18.43-3.58 4.18-6.83 8.7-9.9 13.23-3.41 4.95-7.51 11.01-8.7 18.52-2.13-.68-4.35-2.13-6.14-4.44 0 2.99.85 6.14 2.65 9.13-5.55 3.76-9.64 10.5-10.5 18.35-.94 8.45 1.45 17.92 6.83 26.71 3.58 5.8 7.94 10.75 12.37 15.45-5.04 2.9-9.99 6.23-14.59 9.9-6.83-1.96-13.48-7-17.32-14.85 1.28 7.42 5.46 14.68 11.44 19.88-2.47 2.3-4.95 4.61-7.25 7.17-1.28 1.37-2.39 2.65-3.67 3.16-1.37.68-3.41.68-5.55.68h-1.11c-6.23.09-12.29 1.28-18.09 3.41-14.68-33.63 1.45-64.43 22.62-101.13 2.13-3.76 6.91-7.17 6.74-13.23 0-1.62-.34-2.99-.68-4.18-.17-.6-.34-1.19-.34-1.79-.34-3.16 1.96-6.49 4.86-10.24 1.37-1.79 5.04-6.57 4.52-12.12 1.88-2.56 4.69-9.47 14.25-10.84-7.77-2.82-16.73 4.44-16.73 4.44s1.28-29.1 32.26-19.71c-8.45-6.49-17.92-6.14-17.92-6.14S266.5 7.56 281 7.05c-16.39-6.14-26.29 6.4-26.29 6.4-1.45-1.28-7.17-7.51-17.5-8.45 10.41 3.84 12.97 14.59 12.97 14.59-3.07 4.52-8.36 16.56-8.62 18.01-1.19-.77-9.64-7.6-24.15.43 15.7-4.52 23.9 7.17 25.94 10.84-.43.85-.94 1.96-2.13 3.41-2.99 3.84-7.6 9.73-6.74 17.07.09 1.02.34 1.96.6 2.99.17.85.34 1.62.43 2.13.09 2.13-2.22 4.52-4.27 6.66-10.75 11.18-18.35 24.15-22.36 37.47-2.3-2.05-15.45-18.43-21.08-19.71 5.29 2.9 17.24 26.37 19.12 28.08 4.1 37.89-14.59 26.37-.09 65.37-1.19.68-2.39 1.19-3.58 1.96l-1.02.68c-1.96 1.28-3.84 2.39-5.46 2.65-1.11.09-2.47-.17-3.84-.51l-1.19-.26c-12.63-2.47-24.66 1.54-34.39 6.57-.85-6.66-1.02-13.4 1.19-19.2.43-1.11.94-2.22 1.45-3.33.85-1.79 1.62-3.58 2.22-5.46 1.88-6.06 1.45-12.29 1.02-18.35-.43-5.89-.85-11.44 1.11-15.87.51-1.11 1.11-2.05 1.71-3.07 5.46 13.14 13.14 17.24 14.68 32.17 3.41-17.67-8.11-24.49-10.75-42.76.77-5.12.26-10.41-.34-15.53-3.67-30.47 30.81-41.14 42.16-64.69-9.99 8.28-18.35 11.52-18.35 11.52-5.63-26.2 27.14-39.17 27.14-39.17-18.6 4.1-42.76 2.82-54.19 5.46-10.41 2.39-21.17 4.86-31.32 9.64-3.67 1.71-7.25 3.76-10.75 5.72-3.93 2.22-7.6 4.27-11.52 6.06-5.55 2.47-11.35 4.1-17.58 5.89-8.02 2.3-16.3 4.52-23.81 8.96-23.9 13.91-43.61 53.42-41.82 54.88 7.6 6.23 14.25-12.89 39.51-14.76 0 0-13.14-5.38-26.71 2.3 13.23-21.42 28.5-31.83 33.03-34.39 6.83-3.84 14.34-5.97 22.19-8.28 6.14-1.71 12.46-3.58 18.52-6.23 4.18-1.88 8.28-4.18 12.12-6.4 3.41-1.88 6.74-3.84 10.24-5.46 9.39-4.44 19.8-6.83 29.87-9.13 8.7-2.05 32.69-7.17 32.69-7.17s-22.19 14.08-14.17 38.15c0 0-20.65 19.71-22.79 23.47-2.9-1.79-37.81-12.97-12.29-43.78-32.43 31.49 6.4 49.07 9.39 51.63-.94 5.38-.34 11.01.26 16.39.77 6.32 1.45 12.37-.68 17.07-.51 1.11-1.11 2.13-1.71 3.16-.77 1.28-1.54 2.65-2.13 4.01-.26.51-.34 1.11-.51 1.62-15.19-3.33-31.49 1.71-42.76 13.83-.85.94-1.71 1.88-2.56 2.39-.94.51-2.22.77-3.67 1.02s-2.82.51-4.18 1.02c-4.86 1.79-8.88 6.32-11.35 12.72-1.19 3.07-1.96 6.23-2.65 9.3-.43 1.79-.85 3.5-1.37 5.29-.17.51-.51 1.79-.94 2.13-.51.43-2.13.43-3.24.51H82.6c-2.22.09-4.35.6-6.32 1.28-3.93-1.62-7.6-4.69-10.5-9.05-1.62-2.3-3.16-4.86-4.95-7.34s-4.27-4.69-7-5.04c2.65 1.19 4.18 3.67 5.29 6.23 1.11 2.65 1.96 5.46 3.16 8.36 1.45 3.93 3.84 7.94 7 11.27-.94.68-1.62 1.28-2.13 2.05-.77 1.02-1.28 2.3-1.71 3.5-5.8-3.41-12.2-6.74-19.2-7.77-.68-.09-1.37-.09-1.96-.17-2.65-7.77-4.78-15.96-2.82-23.3 1.11-3.84 3.76-7.08 7.08-9.64 3.33-2.47 7.25-4.44 10.67-7-3.84 1.88-7.85 3.07-11.78 5.04-3.84 1.96-7.68 5.04-9.9 9.64-2.13 4.61-2.65 9.9-2.47 14.76.09 3.16.43 6.32.94 9.39-.85-.17-1.71-.34-2.47-.68-5.46-2.56-7.94-10.41-7.51-16.47.51-6.83 3.67-13.23 8.28-20.57 4.86-8.02 11.01-16.9 19.2-22.1 6.49-4.18 16.39-7.08 25.69-3.93-.94 5.55-1.02 11.18.17 16.64 1.96-6.91 4.1-13.14 7-18.95 2.82-6.14 6.06-8.88 11.61-9.9 5.38-1.11 11.35-.17 17.92.43 6.4.51 14.17.34 19.37-4.35-6.57 1.02-12.37-.85-18.6-2.56-6.06-1.88-13.14-3.67-20.48-2.3a21.6 21.6 0 0 0-6.14 2.3c-.51-.94-.94-1.96-1.54-2.82-1.62-2.73-3.93-4.78-5.63-6.4-2.99-2.56-5.29-8.19-3.16-10.33 2.65-2.82 8.02-3.84 12.46-5.72 4.52-1.79 9.13-4.52 11.61-9.05-3.07 4.1-7.68 5.89-12.29 6.91-4.61 1.37-9.47.94-14.51 4.44-2.82 2.05-3.16 6.74-2.39 9.56.51 2.9 2.05 6.32 3.93 8.45 3.07 3.67 4.52 6.74 5.38 10.67-.94 1.45-1.79 2.9-2.3 4.35-11.95-4.18-24.41-.6-32.52 4.52-9.47 6.14-16.3 15.96-21.68 24.66-4.44 7.6-8.7 15.7-9.47 24.92-.34 3.84.17 8.02 1.54 12.03-12.72 16.04 1.28 24.32-2.82 33.54-6.74 15.28-3.93 26.11 1.71 32.17 13.31 14.51 44.63-.34 69.04 11.52-12.55 2.22-22.53 10.92-28.25 16.73 19.63-10.67 34.22-7.94 43.18-14.08 3.07.51 10.16 5.55 22.1 3.07 0 0-13.06-2.3-22.45-12.2 3.33-.26 30.04-8.36 30.04-8.36-4.18 4.95-2.47 14-.51 17.67-1.96 2.56-3.07 5.89-2.9 9.39 21.17-12.46 22.96 12.2 56.07 20.65 6.57 14.76 28.85 39.6 28.85 39.6ZM87.85 246.59c-7.94-1.62-29.02-23.47-50.78-19.63 25.35 5.12 33.88 18.86 39.86 22.02-25.35-7.25-45.06 5.12-53.34-7.25-8.02-11.95 1.88-12.89 1.28-24.92-.68-14.08-8.45-16.13-1.02-25.77 1.88 2.3 4.1 4.27 6.83 5.55 3.58 1.71 7.17 1.88 10.67 2.13 1.37.09 2.73.17 4.1.43 6.57.94 12.89 4.69 18.95 8.28.43 2.47 1.11 4.86 2.56 6.83 2.3 3.16 5.38 4.86 8.11 6.32 16.64 8.53 34.82 12.72 52.83 12.29-.09.09-19.71 18.01-40.03 13.74Zm-9.65-34.13c-1.88-.94-3.84-2.05-4.95-3.58-1.62-2.22-1.45-6.06.43-8.62 1.88-2.65 5.38-4.27 9.22-4.44h1.02c2.3 0 5.38-.17 7.85-2.22.77 1.19 1.45 2.39 2.3 3.5 2.65 3.33 6.23 5.8 9.9 6.4-3.24-2.05-5.21-5.38-6.4-8.7-1.02-2.9-1.37-5.97-1.71-9.13.34-1.37.77-2.73 1.11-4.18.68-2.9 1.37-5.63 2.3-8.11.94-2.39 3.07-6.66 6.66-7.94.94-.34 1.96-.51 2.9-.68 1.96-.34 4.1-.68 6.23-1.96l.26-.26c1.45 3.84 3.07 7.68 5.38 11.18 1.54 2.47 3.58 4.69 5.46 6.57 1.71 1.88 3.76 4.1 3.16 6.83 1.37-2.65-.34-5.89-1.62-8.19-1.45-2.47-2.65-4.69-3.41-7.25-1.62-4.78-2.13-9.81-2.56-15.02 8.79-8.28 21.17-11.78 32.77-9.39-.17 3.33.09 6.74.34 10.07.43 5.38.77 10.41-.6 14.68-.51 1.54-1.19 2.9-1.79 4.35-.6 1.28-1.19 2.56-1.71 3.93-3.33 8.79-2.56 18.52-1.19 27.31-.51.34-1.02.6-1.54.94-5.8 3.67-11.61 8.02-14.59 14.85-18.86 1.79-37.89-1.96-55.22-10.92Zm60.43 49.41c-4.95-.51-3.33-12.63 3.67-13.91 9.47-.09 23.64 4.86 34.65 22.1.17 2.82 3.16 11.52 3.76 13.14-18.09-4.69-22.87-19.46-42.07-21.34Z" class="e" style="isolation:isolate" opacity=".8" fill="#d9527c"></path><path d="M180.87 311.88c-5.63-4.01-9.39-9.22-14.34-14.17-2.47-2.39-5.21-4.86-8.45-6.32-3.24-1.54-6.91-1.96-10.07-.77 3.24.68 6.14 1.96 8.62 3.84s4.78 4.18 7.17 6.57c2.39 2.3 4.78 4.86 7.68 6.91 2.82 1.96 6.06 3.67 9.39 3.93Zm22.79 32.94c-6.74-1.37-13.23-4.35-18.95-8.88-5.8-4.61-10.84-10.75-16.04-17.15 2.3 8.11 6.14 15.96 12.03 22.36 5.89 6.49 13.74 10.75 21.76 12.55 8.11 1.62 16.56.85 23.9-2.3 7.34-3.07 13.83-8.19 18.35-14.85-13.48 7.42-27.4 11.27-41.05 8.28ZM496.3 192.83c2.13 2.73 1.54 6.66.51 10.75 1.19-1.54 2.22-3.24 2.9-5.38.6-2.13.26-4.86-.68-6.91-1.96-4.35-5.04-6.83-6.57-10.07-3.58-6.49-4.78-14.34-3.33-22.45-4.52 6.66-4.44 16.9-.17 24.66 2.22 3.84 5.46 6.49 7.34 9.39Z" class="e" style="isolation:isolate" opacity=".8" fill="#d9527c"></path></g></svg>
