<svg xmlns="http://www.w3.org/2000/svg" data-name="Layer 1" style="" viewBox="0 0 512 667.82"><g><defs><linearGradient id="1770301554902-3488957_b" x1="221.83" x2="63.09" y1="55.66" y2="330.59" gradientTransform="matrix(1 0 0 -1 0 669.82)" gradientUnits="userSpaceOnUse"><stop offset=".32" stop-color="#ff4d94"></stop><stop offset=".47" stop-color="#fb4a91"></stop><stop offset=".61" stop-color="#f04086"></stop><stop offset=".75" stop-color="#dd3075"></stop><stop offset=".88" stop-color="#c3195d"></stop><stop offset="1" stop-color="#a60042"></stop></linearGradient><linearGradient id="1770301554902-3488957_c" x1="-335.77" x2="-494.49" y1="55.67" y2="330.59" gradientTransform="rotate(180 -22.795 334.91)" gradientUnits="userSpaceOnUse"><stop offset=".32" stop-color="#ff4d94"></stop><stop offset=".47" stop-color="#fb4a91"></stop><stop offset=".61" stop-color="#f04086"></stop><stop offset=".75" stop-color="#dd3075"></stop><stop offset=".88" stop-color="#c3195d"></stop><stop offset="1" stop-color="#a60042"></stop></linearGradient><linearGradient id="1770301554902-3488957_d" x1="263.3" x2="88.19" y1="31.45" y2="334.74" gradientTransform="matrix(1 0 0 -1 0 669.82)" gradientUnits="userSpaceOnUse"><stop offset=".32" stop-color="#ff599c"></stop><stop offset=".47" stop-color="#fb5598"></stop><stop offset=".61" stop-color="#f04a8d"></stop><stop offset=".75" stop-color="#de387a"></stop><stop offset=".88" stop-color="#c31d60"></stop><stop offset="1" stop-color="#a60042"></stop></linearGradient><linearGradient id="1770301554902-3488957_e" x1="-294.3" x2="-469.39" y1="31.46" y2="334.73" gradientTransform="rotate(180 -22.795 334.91)" gradientUnits="userSpaceOnUse"><stop offset=".32" stop-color="#ff599c"></stop><stop offset=".47" stop-color="#fb5598"></stop><stop offset=".61" stop-color="#f04a8d"></stop><stop offset=".75" stop-color="#de387a"></stop><stop offset=".88" stop-color="#c31d60"></stop><stop offset="1" stop-color="#a60042"></stop></linearGradient><linearGradient id="1770301554902-3488957_f" x1="335.8" x2="132.55" y1="-3.95" y2="348.08" gradientTransform="matrix(1 0 0 -1 0 669.82)" gradientUnits="userSpaceOnUse"><stop offset=".32" stop-color="#ff66a4"></stop><stop offset=".46" stop-color="#fc62a0"></stop><stop offset=".59" stop-color="#f25796"></stop><stop offset=".72" stop-color="#e14483"></stop><stop offset=".85" stop-color="#ca2a6a"></stop><stop offset=".97" stop-color="#ad0849"></stop><stop offset="1" stop-color="#a60042"></stop></linearGradient><linearGradient id="1770301554902-3488957_g" x1="155.59" x2="155.59" y1="582.49" y2="669.82" gradientTransform="matrix(1 0 0 -1 0 669.82)" gradientUnits="userSpaceOnUse"><stop offset="0" stop-color="#a60042"></stop><stop offset=".03" stop-color="#ad0849"></stop><stop offset=".15" stop-color="#ca2a6a"></stop><stop offset=".28" stop-color="#e14483"></stop><stop offset=".41" stop-color="#f25796"></stop><stop offset=".54" stop-color="#fc62a0"></stop><stop offset=".68" stop-color="#ff66a4"></stop></linearGradient><linearGradient id="1770301554902-3488957_h" x1="356.42" x2="356.42" y1="582.49" y2="669.82" gradientTransform="matrix(1 0 0 -1 0 669.82)" gradientUnits="userSpaceOnUse"><stop offset="0" stop-color="#a60042"></stop><stop offset=".03" stop-color="#ad0849"></stop><stop offset=".15" stop-color="#ca2a6a"></stop><stop offset=".28" stop-color="#e14483"></stop><stop offset=".41" stop-color="#f25796"></stop><stop offset=".54" stop-color="#fc62a0"></stop><stop offset=".68" stop-color="#ff66a4"></stop></linearGradient><linearGradient id="1770301554902-3488957_i" x1="256" x2="256" y1="596.3" y2="422.02" gradientTransform="matrix(1 0 0 -1 0 669.82)" gradientUnits="userSpaceOnUse"><stop offset=".32" stop-color="#ff66a4"></stop><stop offset=".46" stop-color="#fc62a0"></stop><stop offset=".59" stop-color="#f25796"></stop><stop offset=".72" stop-color="#e14483"></stop><stop offset=".85" stop-color="#ca2a6a"></stop><stop offset=".97" stop-color="#ad0849"></stop><stop offset="1" stop-color="#a60042"></stop></linearGradient><linearGradient id="1770301554902-3488957_j" x1="180.65" x2="331.34" y1="415.24" y2="415.24" gradientTransform="matrix(1 0 0 -1 0 669.82)" gradientUnits="userSpaceOnUse"><stop offset="0" stop-color="#b35e00"></stop><stop offset=".01" stop-color="#b86507"></stop><stop offset=".07" stop-color="#ce8525"></stop><stop offset=".12" stop-color="#e0a03e"></stop><stop offset=".19" stop-color="#eeb451"></stop><stop offset=".26" stop-color="#f8c25f"></stop><stop offset=".35" stop-color="#fdca67"></stop><stop offset=".5" stop-color="#ffcd69"></stop><stop offset=".65" stop-color="#fdca67"></stop><stop offset=".74" stop-color="#f7c25f"></stop><stop offset=".81" stop-color="#eeb451"></stop><stop offset=".88" stop-color="#e0a03e"></stop><stop offset=".94" stop-color="#cd8525"></stop><stop offset=".99" stop-color="#b76506"></stop><stop offset="1" stop-color="#b35f00"></stop></linearGradient></defs><path d="M236.37 602.5c0 25.96-236.37 25.96-236.37 0 0-152.62 179.61-346.68 215.18-346.68 65.27-.01 21.18 194.06 21.18 346.68Z" fill="url(#1770301554902-3488957_b)"></path><path d="M275.63 602.49c0 25.97 236.37 25.97 236.37 0 0-152.61-179.6-346.67-215.2-346.67-65.26-.01-21.17 194.05-21.17 346.67" fill="url(#1770301554902-3488957_c)"></path><path d="M280.23 625.33c0 25.96-236.38 25.96-236.38 0 0-152.62 129.86-369.51 195.13-369.51s41.25 216.89 41.25 369.51" fill="url(#1770301554902-3488957_d)"></path><path d="M231.77 625.32c0 25.97 236.38 25.97 236.38 0 0-152.62-129.86-369.5-195.13-369.5s-41.25 216.88-41.25 369.5" fill="url(#1770301554902-3488957_e)"></path><path d="M374.18 648.35c0 25.97-236.37 25.97-236.37 0 0-152.62 52.91-391.48 118.18-391.48s118.18 238.86 118.18 391.48Z" fill="url(#1770301554902-3488957_f)"></path><path d="m168.06 87.33-29.6-13.8L146.39 0h26.32z" fill="url(#1770301554902-3488957_g)"></path><path d="m373.55 73.53-29.6 13.8L339.3 0h26.3z" fill="url(#1770301554902-3488957_h)"></path><path d="M331.34 232.99c0-39.58 60.2-87.04 42.21-159.45 0 0-74.47 0-117.56 35.64-43.06-35.65-117.53-35.65-117.53-35.65-18.01 72.41 42.17 119.89 42.17 159.45 0 19.76 150.71 19.76 150.71.01" fill="url(#1770301554902-3488957_i)"></path><path d="M180.65 232.99h150.69v43.19H180.65z" fill="url(#1770301554902-3488957_j)"></path></g></svg>
