<svg xmlns="http://www.w3.org/2000/svg" data-name="Layer 1" style="" viewBox="0 0 512 614.34"><g><defs><radialGradient id="1770301554913-414950_b" cx="180.87" cy="321.97" r="442.93" fx="180.87" fy="321.97" gradientTransform="matrix(.98 0 0 -.85 -12.06 501.77)" gradientUnits="userSpaceOnUse"><stop offset=".44" stop-color="#ffc940"></stop><stop offset=".69" stop-color="#ffc73e"></stop><stop offset=".8" stop-color="#ffc039"></stop><stop offset=".88" stop-color="#ffb330"></stop><stop offset=".9" stop-color="#ffae2c"></stop></radialGradient><radialGradient id="1770301554913-414950_c" cx="73.67" cy="491.9" r="75.99" fx="73.67" fy="491.9" gradientTransform="matrix(1.42 0 0 -2.01 209.77 1427.69)" gradientUnits="userSpaceOnUse"><stop offset=".28" stop-color="#faa00f"></stop><stop offset=".48" stop-color="#fbaa1b" stop-opacity=".67"></stop><stop offset=".85" stop-color="#ffc53c" stop-opacity=".07"></stop><stop offset=".89" stop-color="#ffc940" stop-opacity="0"></stop></radialGradient><radialGradient id="1770301554913-414950_d" cx="412.67" cy="-373.05" r="78.61" fx="412.67" fy="-373.05" gradientTransform="matrix(.99 0 0 -.62 -3.57 328.19)" gradientUnits="userSpaceOnUse"><stop offset=".52" stop-color="#ffc940"></stop><stop offset=".85" stop-color="#ffae2c"></stop></radialGradient><radialGradient id="1770301554913-414950_e" cx="422.32" cy="-161.97" r="92.08" fx="422.32" fy="-161.97" gradientTransform="matrix(.99 0 0 -.68 -3.57 370.98)" gradientUnits="userSpaceOnUse"><stop offset=".52" stop-color="#ffc940"></stop><stop offset=".85" stop-color="#ffae2c"></stop></radialGradient><radialGradient id="1770301554913-414950_f" cx="429.96" cy="-75.58" r="95.68" fx="429.96" fy="-75.58" gradientTransform="matrix(.99 0 0 -.65 -3.57 349.1)" gradientUnits="userSpaceOnUse"><stop offset=".52" stop-color="#ffc940"></stop><stop offset=".85" stop-color="#ffae2c"></stop></radialGradient><radialGradient id="1770301554913-414950_g" cx="439.23" cy="46.72" r="101.97" fx="439.23" fy="46.72" gradientTransform="matrix(.99 0 0 -.64 -3.57 337.2)" gradientUnits="userSpaceOnUse"><stop offset=".52" stop-color="#ffc940"></stop><stop offset=".85" stop-color="#ffae2c"></stop></radialGradient></defs><path d="M394.93 283.3c-62.26-9.11 52.32-125.43-12.39-235.1-38.4-65.12-91.64-39.42-88.67-9.63 21.4 219.63-162.4 290.08-242.57 277.69-69.12-10.65-67.68 260.08 0 248.71 36.45-6.14 108.74-7.47 112.74-5.12 97.68 57.14 221.48 33.99 231 32.15V283.28h-.1Z" fill="url(#1770301554913-414950_b)"></path><path d="M322.95 605.74c-46.59 0-107.82-7.58-161.88-39.01-9.11-1.33-70.86-4.81-109.77-1.84 35.12-10.34 108.84-16.18 116.52-11.67 85.19 49.87 192.81 36.66 219.63 32.36V289.36c-6.66-2.05-11.67-5.63-14.95-10.75-9.01-14.13-2.36-36.25 6.14-64.3 13.31-44.13 31.43-104.65-2.56-162.29-19.86-33.69-43.21-40.45-58.47-35.43-10.44 3.38-17.1 12.08-16.18 21.2 11.16 114.99-33.48 183.59-72.9 220.97-55.09 52.22-116.93 69.01-177.24 57.55 63.89 1.54 115.3-19.66 166.9-68.5 36.96-35.02 78.84-99.53 68.19-208.47C284.74 23.16 295.7 7.91 313 2.27c20.79-6.86 51.61.72 76.08 42.08 37.37 63.28 18.02 127.48 3.99 174.27-6.76 22.42-13.11 43.62-7.88 51.91.61 1.02 2.66 4.1 10.85 5.32l6.45.92v321.31l-6.04 1.23c-6.25 1.23-34.92 6.45-73.52 6.45Z" class="n" fill="#db942d"></path><path d="M327.05 285.76c-167.72-7.07-170.9 302.78-7.27 310.05 79.56 3.48 86.52-306.67 7.27-310.05" fill="url(#1770301554913-414950_c)"></path><path d="M455.04 530.89c-43.72 0-63.18.61-104.75.61s-50.99 45.36-32.25 61.74c19.86 17.41 103.83 14.95 126.05 9.83 28.16-6.45 45.67-72.19 10.96-72.19Z" fill="url(#1770301554913-414950_d)"></path><path d="M463.33 451.02H337.8c-42.49 0-42.39 77.31 0 79.76 29.39 1.74 79.36 3.99 117.14 0 40.24-4.1 48.84-79.76 8.4-79.76Z" fill="url(#1770301554913-414950_e)"></path><path d="M476.85 360.61c-62.46 0-80.99 5.02-140.48 5.02-48.64 0-47.82 76.59 0 85.5 34.71 6.45 82.84 5.22 126.97 0 38.91-4.61 52.73-90.52 13.52-90.52Z" fill="url(#1770301554913-414950_f)"></path><path d="M474.9 272.65c-34.3-4.61-87.34-9.73-142.74 19.66-27.44 14.54-16.59 69.42 6.35 73.31 24.06 3.99 75.67 0 138.44-5.02 38.7-3.07 34.81-82.94-2.05-87.96Z" fill="url(#1770301554913-414950_g)"></path><path d="M392.99 614.34c-31.23 0-66.45-3.58-80.17-15.46-11.67-10.24-15.36-28.98-9.01-45.57 7.07-18.33 24.37-29.39 46.38-29.39v15.05c-15.56 0-27.24 7.17-32.05 19.56-4.1 10.75-2.05 22.83 4.81 28.88 16.59 14.44 95.64 13.62 119.29 8.19 13.11-2.97 26.21-27.75 24.06-45.57-1.23-10.44-6.76-11.78-11.37-11.78V523.2c14.85 0 24.78 9.42 26.62 25.09 2.76 23.65-13.21 56.83-35.84 62.05-8.29 2.05-29.39 3.99-52.73 3.99Z" class="n" fill="#db942d"></path><path d="M404.35 540.62c-19.76 0-42.08-.72-66.97-2.25-26.52-1.64-39.73-26.52-39.01-50.38.82-26.21 17-44.54 39.42-44.54v15.05c-16.08 0-23.65 15.05-24.16 29.9-.51 16.49 7.78 33.79 24.57 34.81 49.05 2.97 88.06 2.97 115.91 0 17.92-1.84 28.88-23.45 27.85-42.39-.41-6.76-2.87-22.42-18.64-22.42v-15.05c19.45 0 32.77 14.44 33.99 36.66 1.33 25.7-14.13 55.29-41.47 58.16-14.44 1.74-31.64 2.46-51.5 2.46Z" class="n" fill="#db942d"></path><path d="M393.09 463c-22.22 0-42.08-1.54-58.16-4.51-30.51-5.73-44.44-34.81-42.19-59.18 2.36-24.68 19.86-41.16 43.62-41.16v15.05c-18.94 0-27.03 14.23-28.36 27.54-1.74 17.82 8.19 38.91 29.8 43.01 30.51 5.73 75.98 5.63 124.61-.1 18.33-2.15 31.43-31.23 30.1-53.76-.51-8.09-3.17-21.61-15.67-21.61v-15.05c17.71 0 29.59 13.72 30.92 35.74 1.84 30.31-15.56 66.45-43.52 69.73-24.98 2.76-49.15 4.3-71.16 4.3Z" class="n" fill="#db942d"></path><path d="M365.44 374.74c-11.98 0-21.2-.61-28.26-1.74-13.72-2.25-24.68-16.79-28.06-36.86-3.79-22.42 3.89-42.29 19.35-50.48 30.62-16.28 63.38-24.16 100.35-24.16 17.82 0 33.79 1.84 47.1 3.69 24.68 3.38 36.76 31.13 36.04 56.83-.72 26.42-14.23 44.54-34.4 46.18-43.11 3.38-83.76 6.55-112.12 6.55Zm63.39-98.09c-34.3 0-64.71 7.27-93.08 22.32-11.78 6.25-13.52 22.63-11.57 34.71 2.15 12.8 8.81 23.35 15.46 24.47 21.5 3.58 77-.31 136.59-5.02 14.44-1.13 19.97-17.71 20.38-31.54.51-18.74-7.88-39.42-22.83-41.37-12.8-1.84-28.16-3.58-44.95-3.58ZM174.17 557.31s-21.91-13.21-29.18-31.33c-1.13 24.98 14.03 38.5 14.03 38.5zm131.27-122.57c-23.55 23.24-53.96 43.21-88.37 52.53 41.67 1.54 78.64-15.67 105.26-38.81-5.63-4.71-11.26-9.32-16.89-13.72" class="n" fill="#db942d"></path></g></svg>
