<svg xmlns="http://www.w3.org/2000/svg" data-name="Layer 1" style="" viewBox="0 0 512 564.98"><g><defs><radialGradient id="1770301554915-1417194_b" cx="76.91" cy="302.88" r="231.13" fx="76.91" fy="302.88" gradientTransform="matrix(.94263 -.38968 -.5276 -1.2427 385.82 669.7)" gradientUnits="userSpaceOnUse"><stop offset=".44" stop-color="#ffc940"></stop><stop offset=".69" stop-color="#ffc73e"></stop><stop offset=".8" stop-color="#ffc039"></stop><stop offset=".88" stop-color="#ffb330"></stop><stop offset=".9" stop-color="#ffae2c"></stop></radialGradient></defs><path d="M107.52 132.79c-29.84-38.4-67.8-2.65-53.76 21.98 3.09 5.3 8.56 12.71 8.56 12.71-21.36-23.39-63.21.35-37.61 45.99 4.68 8.3 33.28 60.74 33.28 60.74-30.9-45.2-64.44-14.65-46.08 26.04 25.51 56.32 63.38 112.64 109.73 165.43 42.02 47.76 75.3 32.75 116.7 77.51 19.6 21.19 126.5-52.26 110.53-87.75C299.43 345 126.76 157.5 107.52 132.78Z" fill="#f7b448"></path><path d="M238.44 543.2c-19.24-20.75-39.9-25.07-58-32.66-19.6-8.12-41.23-14.92-63.74-40.52C68.68 415.38 31.42 359.14 5.91 302.91c-11.83-26.22-4.41-47.41 9.18-54.82 5.47-3 12.45-4.06 20.22-1.68-7.15-12.98-14.21-25.95-16.33-29.75-16.42-29.31-7.5-50.14 5.21-59.06 6.36-4.5 13.77-6.44 21.19-5.65-3.88-13.07 1.59-28.16 14.12-36.46 10.06-6.71 26.04-9.45 41.4 1.94 14.21 10.42 1.41 19.69 1.41 19.69-11.3-13.86-24.54-17.83-35.31-10.59-7.68 5.12-12.54 15.98-7.33 25.16 2.82 4.94 8.12 12.01 8.12 12.09l-10.42 8.21c-8.21-9-18.98-8.21-25.42-3.62-8.21 5.83-13.51 20.22-1.32 41.93 4.68 8.3 33.02 61.09 33.02 61.09l-11.39 6.18c-10.59-15.54-22.42-22.33-30.63-17.83-8.12 4.41-11.56 19.77-3.44 37.78 24.89 55 61.44 110.17 108.67 163.85 20.48 23.31 37.96 32.66 57.03 40.61 18.54 7.77 41.14 20.66 54.56 41.23Z" class="f" fill="#db942d"></path><path d="M39.37 162.72c30.37-4.15 117.59 176.29 140.1 176.29C160.05 324.97 101.08 199 59.5 153.45c-2.21-2.47-23.31 9.62-20.13 9.27m79.45 219.11c1.32-.79 2.65-1.59 3.88-2.38-13.77-19.07-35.49-70.62-70.62-127.21-1.06-1.68-10.95 10.33-9.71 11.83 36.72 48.2 59.32 101.61 76.45 117.76" class="f" fill="#db942d"></path><path d="M113.52 370.35c3.09 13.15-6.27 22.95-6.27 22.95s9.18-6.18 27.01-15.45c.09 0-12.8.79-20.75-7.5Z" class="f" fill="#db942d"></path><path d="M401.22 53.52c-13.42 23.31-17.66 56.5-17.66 56.5s26.48-20.22 39.9-43.61c21.8-37.78-.53-50.67-22.25-12.89Zm-64.09-20.75c0 26.93 12.89 57.82 12.89 57.82s12.89-30.81 12.89-57.82c0-43.7-25.78-43.7-25.78 0m123.24 56.5c-23.31 13.51-43.43 40.08-43.43 40.08s33.02-4.24 56.23-17.66c37.7-21.8 24.81-44.32-12.8-22.42" fill="#0fb4d4"></path><path d="M447.3 186.91c-7.42-37.61-67.71-22.07-61.53 31.07 0 0-67.18-112.73-102.14-145.75-28.87-27.19-63.12-6.53-59.32 11.39 0 0-7.33-7.95-15.8-17.04-31.43-33.9-69.3-.97-60.21 27.9 3.88 12.27 5.74 14.04 5.74 14.04-18.01-15.98-66.21 2.82-42.9 53.41 4.24 9.27 35.4 73.8 35.4 73.8-28.96-50.67-69.83-20.04-53.59 24.81 22.42 62.24 63.47 150.07 116.7 207.72 24.45 26.48 79.98 46.61 100.2 84.31 24.19 45.02 218.05-42.82 191.21-97.11-12.09-24.45 6.8-99.93 4.15-121.65-7.86-64.36-44.4-78.66-57.91-146.9" fill="url(#1770301554915-1417194_b)"></path><path d="M436.09 229.64c-4.15-4.06-14.04-35.14-11.3-39.9 6.71-11.92 15.01-10.68 16.77-5.83 2.74 7.42 8.56 30.63 12.54 42.73 1.68 5.12-15.27 5.65-18.01 3M246.82 107.99c-3.62-3.53-10.33-11.21-12.18-14.39-8.03-14.04 19.42-34.08 30.63-22.6 2.82 2.91 8.83 11.83 11.12 16.42 6.8 13.95-18.19 31.52-29.57 20.57m-73.8.53c-4.06-3.88-11.48-12.45-13.51-15.98-8.92-15.63 21.63-37.78 34.08-25.07 3.18 3.18 9.8 13.07 12.27 18.19 7.5 15.63-20.22 35.14-32.84 22.86m-45.9 46.43c-3.27-4.24-9-13.33-10.42-16.95-6.18-15.98 25.78-32.66 35.66-18.8 2.47 3.44 7.42 13.77 9 18.98 4.94 15.63-24.1 30.1-34.25 16.77Zm-19.78 101.52c-2.65-3.8-7.24-11.92-8.3-15.18-4.59-14.12 23.84-27.1 31.78-14.74 2.03 3.09 5.74 12.18 6.89 16.77 3.62 13.77-22.25 25.07-30.37 13.15" style="isolation:isolate" fill="#fff" opacity=".3"></path><path d="M375.53 212.95c30.1 54.47 53.06 101.43 72.21 98.52-20.04-14.12-43.7-55.62-58.71-105.32-.53-1.85-14.39 5.21-13.51 6.8ZM210.72 77.53c79.36 98.43 101.34 188.83 122.53 190.59-20.57-18.19-29.75-75.57-106.99-192.36-1.94-3.09-17.74-.97-15.54 1.77m-75.13 30.46c39.46-3.35 109.11 188.74 132.86 190.33-19.33-16.42-50.94-123.33-112.73-200.66-2.21-2.74-23.57 10.68-20.13 10.33m4.5 130.12c12.98 22.25 47.85 110 67.53 107.97-13.07-8.92-22.6-54.2-61.18-124.39-1.06-1.77-7.42 14.65-6.36 16.42Z" class="f" fill="#db942d"></path><path d="M511.75 333.01c-4.15-34.52-16.07-54.82-28.69-76.36-11.21-19.16-22.86-39.02-29.22-71.06-3.62-18.1-18.19-28.43-36.46-25.6-16.24 2.47-32.05 15.45-37.08 36.19-20.75-33.63-65.15-103.37-92.07-128.71-19.86-18.72-42.11-17.04-55.09-9.98-5.74 3.18-10.06 7.33-12.8 12.09l-6.97-7.5c-18.45-19.95-39.2-19.07-52.44-11.56-16.51 9.36-24.54 28.69-19.16 45.91 0 .09 0 .18.09.18-9.18-.97-19.42 1.41-27.72 7.42-6.53 4.77-26.48 23.13-9.18 60.65 2.12 4.68 10.95 23.04 19.24 40.34 0 0-11.83-2.21-21.63 3-16.95 9-26.22 26.57-16.07 54.82 14.65 40.52 55.44 142.04 118.03 209.93 10.24 11.12 26.84 19.16 42.55 29.4 23.13 15.1 48.64 29.66 62.68 50.5-11.03-24.28-34.25-43.7-57.65-58.97-15.01-9.8-28.51-19.95-37.7-29.84-62.68-67.97-104.08-174.44-115.29-205.43-7.24-20.04-3.53-32.13 9.36-37.78 16.33-7.24 22.6 0 31.6 17.57l12.36-5.21c-.35-.62-31.16-64.62-35.31-73.71-9-19.51-7.24-35.75 4.94-44.49 8.74-6.36 21.01-6.89 27.37-1.32l6.27-6.71 3.53-2.3c-.09-.09-1.59-2.47-4.59-11.92-3.53-11.21 2.12-24.37 12.98-30.54 11.48-6.53 24.54-3.18 35.84 9l32.4 34.96-5.03-23.66c-.97-4.41 3-9.36 8.83-13.15 13.51-8.83 24.72-5.83 39.28 7.95 33.9 31.96 100.37 143.19 100.99 144.34l15.98 26.84-3.53-30.99c-2.91-25.6 11.74-41.84 27.01-44.14 8.56-1.32 18.72 1.94 21.28 15.1 6.8 34.16 18.98 55 30.72 75.13 11.92 20.3 23.13 39.46 27.01 71.33.88 7.33-1.15 23.13-3.27 39.81-4.06 31.34-4.94 61.62 5.83 81.04-5.56-18.1-.26-53.5 5.74-79.54 3.71-16.07 6.09-33.99 5.03-42.99Z" class="f" fill="#db942d"></path></g></svg>
