<svg xmlns="http://www.w3.org/2000/svg" data-name="Layer 1" style="" viewBox="0 0 512 655.53"><g><defs><radialGradient id="1770301554904-6442341_b" cx="120.91" cy="581.75" r="63.92" fx="120.91" fy="581.75" gradientTransform="matrix(1.3 0 0 -2.43 151.52 1829.58)" gradientUnits="userSpaceOnUse"><stop offset=".28" stop-color="#faa00f"></stop><stop offset=".48" stop-color="#fbaa1b" stop-opacity=".67"></stop><stop offset=".85" stop-color="#ffc53c" stop-opacity=".07"></stop><stop offset=".89" stop-color="#ffc940" stop-opacity="0"></stop></radialGradient><radialGradient id="1770301554904-6442341_c" cx="432.92" cy="46.05" r="84.22" fx="432.92" fy="46.05" gradientTransform="matrix(1.01415 .1091 .07928 -.6754 -40.11 447.77)" gradientUnits="userSpaceOnUse"><stop offset=".52" stop-color="#ffc940"></stop><stop offset=".85" stop-color="#ffae2c"></stop></radialGradient><radialGradient id="1770301554904-6442341_d" cx="439.9" cy="127.73" r="87.52" fx="439.9" fy="127.73" gradientTransform="matrix(1.01415 .1091 .07572 -.6456 -37.42 424.81)" gradientUnits="userSpaceOnUse"><stop offset=".52" stop-color="#ffc940"></stop><stop offset=".85" stop-color="#ffae2c"></stop></radialGradient><radialGradient id="1770301554904-6442341_e" cx="448.4" cy="240.93" r="93.27" fx="448.4" fy="240.93" gradientTransform="matrix(1.01415 .1091 .07465 -.63566 -36 412.64)" gradientUnits="userSpaceOnUse"><stop offset=".52" stop-color="#ffc940"></stop><stop offset=".85" stop-color="#ffae2c"></stop></radialGradient></defs><path d="M486.17 587.02c-27.14-21.91-80.08-70.66-103.63-88.79l43.22-209.73s-124.53-16.18-80.59-90.83c29.49-50.18 40.04-98.72 9.73-151.87-37.79-66.46-93.19-30.41-91.45-1.84 8.4 143.06-57.76 222.73-200.31 222.73-84.18 0-84.18 252.64 0 252.64 9.52 0 96.98 1.02 99.74 3.69 44.34 42.81 110.39 52.64 158.63 53.15 63.59 20.07 106.19 54.79 125.96 65.54 39.63 21.81 75.99-24.58 38.71-54.68Z" fill="#ffc940"></path><path d="M63.13 266.69c36.05 3.48 121.15-8.19 150.23-37.79 42.19-42.81 62.98-108.65 58.47-185.35-.51-9.32 8.7-22.12 23.25-26.11 18.74-5.12 37.89 6.66 52.43 32.26 25.5 44.85 22.53 89.3-9.73 144.08-11.88 20.28-13.72 38.71-5.33 54.99 19.66 37.99 89.2 47.41 92.06 47.72l2.25-15.98c-17.61-2.25-66.26-13.72-79.36-39.02-5.84-11.26-4.3-24.37 4.92-39.94 35.43-60.21 38.4-109.47 9.83-159.75-26.52-46.59-58.98-43.51-71.78-40.03-20.89 5.73-36.46 24.37-35.43 42.5 4.3 72.2-14.85 133.84-53.87 173.48-25.81 26.42-67.08 44.65-137.94 48.95ZM491.6 580.87c-12.49-10.04-30.93-26.32-48.75-41.99-20.69-18.23-42.19-37.07-54.99-46.9l-10.45 12.6c12.39 9.52 33.59 28.16 54.17 46.29 17.92 15.77 36.56 32.16 49.26 42.4 15.87 12.8 14.34 27.24 8.19 35.64-6.86 9.42-20.99 14.85-37.48 5.94-4.4-2.46-10.55-6.45-17.61-11.06-24.07-15.77-60.52-39.63-109.88-55.2l-2.56-.41c-46.29-.51-110.29-9.73-152.79-50.79-5.22-5.02-60.11-2.15-105.68 1.95 73.32.61 87.86 9.22 95.03 10.65 45.98 43.42 113.06 53.56 161.9 54.28 46.59 14.85 81.41 37.69 104.45 52.74 7.68 5.02 13.72 9.01 18.74 11.78 8.6 4.71 17 6.76 24.78 6.76 15.05 0 27.65-7.58 34.72-17.41 11.06-15.16 11.88-38.71-11.06-57.24Z" class="k" fill="#db942d"></path><path d="M342.6 250.51c-153.71-13.42-159.14 328.83-6.66 323.19 72.81-2.66 78.95-316.84 6.66-323.19" fill="url(#1770301554904-6442341_b)"></path><path d="M450.84 441.8c-55.09-5.94-64.93-6.96-117.46-12.6-39.73-4.3-47.93 65.95-8.5 72.5 27.34 4.61 73.73 11.57 109.57 11.78 38.1.2 54.17-67.59 16.38-71.68Z" fill="url(#1770301554904-6442341_c)"></path><path d="M473.17 360.9c-58.47-6.25-76.29-3.58-131.9-9.63-45.47-4.92-52.84 64.72-9.11 77.62 31.75 9.42 77.01 13.11 118.79 12.8 36.76-.2 58.88-76.8 22.22-80.8Z" fill="url(#1770301554904-6442341_d)"></path><path d="M480.64 280.82c-31.54-7.68-80.7-17.72-135.69 3.48-27.24 10.45-22.94 61.44-1.84 67.28 22.02 6.04 70.76 7.58 130.06 9.42 36.56 1.02 41.47-71.89 7.48-80.18Z" fill="url(#1770301554904-6442341_e)"></path><path d="M434.66 521.48h-.2c-27.14-.2-64.52-4.2-111.01-11.88-25.4-4.2-35.33-28.78-32.05-50.9 3.69-24.47 21.3-39.84 42.91-37.58l-1.84 15.98c-16.18-1.64-23.04 14.13-24.47 23.86-2.15 14.44 3.48 30.31 18.33 32.77 45.57 7.58 81.92 11.57 108.24 11.67h.1c16.18 0 28.16-17.92 29.19-34.61.41-5.84-.31-19.56-14.03-20.99l1.84-15.98c18.84 2.05 30.21 16.9 28.88 37.99-1.33 23.86-19.35 49.67-45.88 49.67Z" class="k" fill="#db942d"></path><path d="M446.13 449.89c-45.88 0-88.07-4.71-116.54-13.11-28.57-8.4-38.81-36.87-33.9-59.29 4.92-22.84 23.76-36.35 46.49-34l-1.84 15.98c-21.3-2.25-26.93 15.67-28.16 21.3-3.38 15.57 3.38 35.02 22.43 40.66 27.85 8.19 70.25 12.9 116.23 12.39 16.79-.1 31.64-24.58 32.67-44.75.41-6.96-.61-18.84-11.26-19.97l1.84-15.98c17.31 1.84 27.34 15.98 26.22 36.87-1.54 28.26-22.22 59.91-49.36 60.01-1.64-.2-3.17-.1-4.81-.1Z" class="k" fill="#db942d"></path><path d="M473.99 368.99h-1.13c-58.27-1.74-108.65-3.28-132.1-9.73-13.11-3.58-22.22-18.23-23.14-37.38-1.13-21.3 8.4-38.91 24.27-45.06 60.62-23.35 114.8-10.14 140.81-3.79 23.35 5.63 32.05 32.67 28.57 56.53-3.58 24.07-18.13 39.43-37.28 39.43m-59.5-89.29c-20.17 0-42.81 2.97-66.46 12.08-11.06 4.3-14.34 18.43-13.72 29.29.61 11.37 5.33 21.2 11.06 22.73 21.4 5.84 73.22 7.48 128.01 9.11 12.6.72 19.46-13.62 21.2-25.6 2.46-16.49-2.97-35.43-16.08-38.61-13.93-3.48-36.66-9.01-64-9.01Z" class="k" fill="#db942d"></path><path d="M321.4 334.18c-24.27 25.09-56.02 47.21-92.57 58.17 44.75-.1 83.67-19.46 111.32-44.65-6.25-4.61-12.49-9.11-18.74-13.52Zm-145.01 191.8s-22.32-21.4-24.68-40.96c-8.7 22.84 5.02 43.83 5.02 43.83z" class="k" fill="#db942d"></path></g></svg>
