<svg xmlns="http://www.w3.org/2000/svg" style="" viewBox="0 0 512 442.88"><g><defs><radialGradient id="1770301554910-1912339_c" cx="584.4" cy="-41.28" r="238.36" fx="584.4" fy="-41.28" gradientTransform="matrix(1 0 0 -1 0 215.5)" gradientUnits="userSpaceOnUse"><stop offset=".8" stop-color="#ffc940"></stop><stop offset=".84" stop-color="#ffc23b"></stop><stop offset="1" stop-color="#ffae2c"></stop></radialGradient><radialGradient id="1770301554910-1912339_d" cx="505.69" cy="-82.59" r="153.51" fx="505.69" fy="-82.59" gradientTransform="matrix(1 0 0 -1 0 215.5)" gradientUnits="userSpaceOnUse"><stop offset=".5" stop-color="#ffc940"></stop><stop offset="1" stop-color="#ffae2c"></stop></radialGradient><radialGradient id="1770301554910-1912339_e" cx="423.63" cy="-5" r="200.4" fx="423.63" fy="-5" gradientTransform="matrix(1 0 0 -1 0 215.5)" gradientUnits="userSpaceOnUse"><stop offset=".8" stop-color="#ffc940"></stop><stop offset=".84" stop-color="#ffc23b"></stop><stop offset="1" stop-color="#ffae2c"></stop></radialGradient><radialGradient id="1770301554910-1912339_f" cx="233.28" cy="5.61" r="177.51" fx="233.28" fy="5.61" gradientTransform="matrix(1 0 0 -1 0 215.5)" gradientUnits="userSpaceOnUse"><stop offset=".8" stop-color="#ffc940"></stop><stop offset=".84" stop-color="#ffc23b"></stop><stop offset="1" stop-color="#ffae2c"></stop></radialGradient><linearGradient id="1770301554910-1912339_b" x1="404.39" x2="376.54" y1="-109.47" y2="-19.91" gradientTransform="matrix(1 0 0 -1 0 215.5)" gradientUnits="userSpaceOnUse"><stop offset=".69" stop-color="#ffc940"></stop><stop offset="1" stop-color="#ffae2c"></stop></linearGradient><linearGradient id="1770301554910-1912339_g" x1="367.28" x2="367.28" y1="-219.01" y2="18.71" gradientTransform="matrix(1 0 0 -1 0 215.5)" gradientUnits="userSpaceOnUse"><stop offset="0" stop-color="#ffae2c"></stop><stop offset=".5" stop-color="#ffc940"></stop></linearGradient></defs><path d="M444.4 183.71c.73 3.63 2.55 9.45 5.45 17.44s5.82 17.26 8.72 27.8 4.63 21.53 5.18 32.98-1 22.44-4.63 32.98-10.45 19.72-20.44 27.53c-9.99 7.82-24.26 13.36-42.79 16.62s-42.34 3.27-71.41 0c-.73-9.81-1.64-21.35-2.72-34.61-1.09-13.26-2.18-26.89-3.27-40.88s-2.18-27.07-3.27-39.25c-1.09-12.17-1.91-21.99-2.46-29.43-.55-7.45-.82-11.18-.82-11.18z" fill="url(#1770301554910-1912339_b)"></path><path d="M289.58 45.79c5.09 12.36 9.36 27.98 12.81 46.88s6.36 39.71 8.72 62.42 4.36 46.15 6 70.32 3 47.7 4.09 70.59c1.09 22.9 2.18 43.98 3.27 63.23-15.26 13.81-29.17 22.62-41.7 26.44-12.54 3.82-23.53 5-32.98 3.54-9.45-1.45-16.72-3.72-21.8-6.82-5.09-3.09-7.63-4.63-7.63-4.63-3.63-6.54-8.27-18.35-13.9-35.44s-11.26-37.43-16.9-61.06c-5.63-23.62-10.72-48.61-15.26-74.96s-7.99-52.24-10.35-77.68-2.82-48.15-1.36-68.14c5.82-10.18 14.63-18.63 26.44-25.35s26.26-9.63 43.34-8.72 36.16 7.36 57.24 19.35" fill="url(#1770301554910-1912339_c)"></path><path d="M425.87 62.69c5.82 16.72 12.09 29.62 18.81 38.71s12.35 16.72 16.9 22.89c4.54 6.18 6.63 12.9 6.27 20.17-1.45 15.62-6.72 28.71-15.81 39.25s-20.35 18.35-33.8 23.44q-20.175 7.635-41.7 6.27c-14.36-.91-27.71-4.63-40.07-11.18-12.36-6.54-21.8-16.36-28.35-29.43-6.54-6.91-11.45-16.53-14.72-28.89a220.4 220.4 0 0 1-6.54-37.89c-1.09-12.9-1.27-24.35-.55-34.34q1.095-14.985 3.27-18.81c7.27-12.36 16.99-22.62 29.17-30.8 12.17-8.18 25.07-12.81 38.71-13.9 13.63-1.09 26.53 2.63 38.71 11.18 12.17 8.54 22.08 22.99 29.71 43.34" fill="url(#1770301554910-1912339_d)"></path><path d="M162.57 60.51c1.45 14.9 3.82 32.98 7.09 54.24s7.09 43.79 11.45 67.59 8.81 47.25 13.36 70.32c4.54 23.08 8.81 43.98 12.81 62.69 4 18.72 7.18 33.71 9.54 44.98l3.54 16.9s-2.55 2.09-7.63 6.27c-5.09 4.18-11.99 8.36-20.72 12.54-8.72 4.18-18.26 6.08-28.62 5.72-10.35-.36-20.8-5.09-31.34-14.17-5.82-6.54-11.63-17.63-17.44-33.25-5.82-15.62-11.36-33.71-16.63-54.24s-9.9-41.7-13.9-63.51c-4-21.8-7.18-42.07-9.54-60.78-2.36-18.72-3.46-34.25-3.27-46.61s1.72-19.08 4.63-20.17c3.27-3.27 7.18-7.82 11.72-13.63s10.27-11.63 17.17-17.44 15.08-10.54 24.53-14.17 20.53-4.72 33.25-3.27" fill="url(#1770301554910-1912339_e)"></path><path d="M75.89 109.02c1.09 9.45 3.36 23.35 6.82 41.7 3.45 18.35 7.54 38.71 12.26 61.06s9.54 44.88 14.45 67.59a7476 7476 0 0 1 13.35 62.96c4 19.26 7.09 34.53 9.27 45.79-15.62 5.45-30.98 6.82-46.06 4.09-15.08-2.72-28.71-11.81-40.88-27.26s-21.71-39.25-28.62-71.41-9.81-74.96-8.72-128.38c0-9.81 3.91-17.81 11.72-23.99s17.08-11.63 27.8-16.36Q63.36 117.73 75.9 109" fill="url(#1770301554910-1912339_f)"></path><path d="M431.86 59.42c2.18 9.09 5.72 17.53 10.63 25.35a345 345 0 0 0 15.26 22.35c5.27 7.08 9.54 13.9 12.81 20.44s4.18 13.08 2.72 19.63c-3.27 18.17-10.35 33.25-21.26 45.24-10.9 11.99-23.8 20.44-38.71 25.35-14.9 4.91-30.17 5.82-45.79 2.72-15.62-3.09-30.07-10.63-43.34-22.62-13.26-11.99-23.53-28.71-30.8-50.15s-9.63-47.97-7.09-79.59c2.18 30.89 7.45 56.15 15.81 75.77 8.36 19.63 18.62 34.53 30.8 44.7s25.07 16.26 38.71 18.26c13.63 2 26.62.64 38.97-4.09 12.36-4.72 23.08-12.09 32.16-22.08 9.09-9.99 15.08-21.71 17.99-35.16 1.09-4-.09-8.72-3.54-14.17s-7.73-11.54-12.81-18.26c-5.09-6.72-9.99-13.99-14.72-21.8-4.72-7.82-7.99-16.08-9.81-24.8-.73-6.91-3.54-14.9-8.45-23.99s-10.81-15.99-17.72-20.72c-12.36-7.63-25.35-10.35-38.97-8.18-13.63 2.18-26.26 7.09-37.89 14.72s-20.72 15.99-27.26 25.08l-3.27-1.64c-18.9-10.54-35.25-16.36-49.06-17.44-13.81-1.09-24.71-.73-32.71 1.09-17.08 5.45-29.26 14.9-36.52 28.35l-2.18 3.27H162c-13.45-1.45-24.99 0-34.61 4.36s-17.72 9.9-24.26 16.63c-6.54 6.72-11.99 12.81-16.36 18.26a75 75 0 0 1-3.54 4.36c-1.27 1.45-2.27 2.55-3 3.27l-1.09 1.09c-4 2.91-8.27 5.63-12.81 8.18s-8.99 4.91-13.36 7.08C42.43 135 33.25 140 25.44 145.27c-7.82 5.27-11.72 12.09-11.72 20.44-1.09 56.69 2.82 103.03 11.72 139.01q13.35 53.97 41.16 73.05c16.36 11.63 37.25 13.08 62.69 4.36l3.27-1.64 2.72 2.72c9.09 7.99 18.26 12.17 27.53 12.54 9.27.36 17.81-1.18 25.62-4.63 7.82-3.45 14.17-7.09 19.08-10.9s7.54-5.91 7.9-6.27l4.36-4.36 4.36 3.27c.36.73.81 2.36 1.36 4.91s.45 4.82-.27 6.82-2.36 2.45-4.91 1.36c-6.54 5.45-14.72 10.54-24.53 15.26s-20.53 7.09-32.16 7.09-23.08-4.36-34.34-13.08c-27.62 9.09-51.42 6.72-71.41-7.09C17.56 359.06-1.7 284.74.12 165.18c0-8.36 2.36-15.36 7.09-20.99 4.72-5.63 10.63-10.54 17.72-14.72s14.08-7.9 20.99-11.18c4.72-2.18 9.18-4.36 13.36-6.54s7.9-4.54 11.18-7.09c1.09-.73 2.18-1.72 3.27-3s2-2.63 2.72-4.09c4.36-5.09 10.09-11.35 17.17-18.81 7.09-7.45 15.99-13.72 26.71-18.81q16.08-7.635 37.89-6.54c4.72-7.63 10.81-13.99 18.26-19.08s15.54-8.9 24.26-11.45c9.45-2.55 21.53-3.54 36.25-3s31.89 6.08 51.52 16.63c8.36-12.36 19.08-21.53 32.16-27.53S347.2-.01 361.01-.01s25.8 3.09 35.98 9.27c8.36 5.09 15.81 12.72 22.35 22.9s10.72 19.26 12.54 27.26" class="o" fill="#db942d"></path><path d="M124.41 390.86c-12.72-48.7-22.26-88.77-28.62-120.2-6.36-31.44-5-56.06 4.09-73.86q-3.27 23.985 6 70.05t32.16 118.02c.36 1.82-1.72 3.54-6.27 5.18-4.54 1.64-6.99 1.91-7.36.82m89.4-9.28c-15.26-58.15-25.44-106.12-30.53-143.91q-7.635-56.7 6-80.13c-1.09 11.99-.18 29.71 2.72 53.15 2.91 23.44 7.36 49.61 13.36 78.5s13.36 57.88 22.08 86.95c.36 1.45-1.72 3.09-6.27 4.91s-6.99 2-7.36.55m100.3-202.81q-1.635-2.175-3.54-3.54c-1.27-.91-2.63-2.09-4.09-3.54-1.45 13.08-1.18 27.89.82 44.43 2 16.53 4.18 36.52 6.54 59.96s3 51.52 1.91 84.22c0 1.09 1.27 1.91 3.82 2.45 2.55.55 5.09.82 7.63.82s3.63-.55 3.27-1.64c-1.45-32.71-3.27-60.51-5.45-83.4-2.18-22.9-4.27-42.34-6.27-58.33s-3.54-29.8-4.63-41.43" class="o" fill="#db942d"></path><path d="M94.43 230.59c-4.72-5.45-7.45-10.9-8.18-16.36-.73-5.45-1.09-8.18-1.09-8.18s.91 1.36 2.72 4.09c1.82 2.72 4.54 5.36 8.18 7.9l-1.64 12.54m90.5-39.24c-4.72-5.45-7.45-11.63-8.18-18.53-.73-6.91-1.09-10.35-1.09-10.35s1 1.64 3 4.91 4.82 7.09 8.45 11.45q1.095 0-.27 6.27c-.91 4.18-1.55 6.27-1.91 6.27" class="o" fill="#db942d"></path><path d="M430.77 101.94c2.18 2.18 4.72 5.27 7.63 9.27s5.27 7.72 7.09 11.18c1.82 3.45 2 5.18.55 5.18-5.82-.73-13.26-.55-22.35.55s-18.53 2.63-28.35 4.63-18.81 4.27-26.98 6.82c-8.18 2.55-14.26 5.09-18.26 7.63-1.45.73-2.63-.73-3.54-4.36s-1.64-7.82-2.18-12.54c-.55-4.72-.64-8.18-.27-10.35q1.095-7.08 12.54-12.54c7.63-3.63 16.63-6.36 26.98-8.18 10.35-1.81 20.08-2.63 29.17-2.45s15.08 1.91 17.99 5.18" class="n" fill="#ffc66c"></path><path d="M239.98 351.61c13.81-11.26 27.98-18.9 42.52-22.9s28.62-6.36 42.25-7.09 25.9-1.27 36.8-1.64c10.9-.36 19.63-2.27 26.17-5.72s9.81-10.27 9.81-20.44c.36-16.36 3.72-31.34 10.09-44.98 6.36-13.63 13.72-25.07 22.08-34.34s15.26-15.17 20.72-17.72c-2.18 9.45-1.82 17.9 1.09 25.35s7.27 14.26 13.08 20.44a437 437 0 0 0 18.26 18.26q9.54 9 16.08 19.35c4.36 6.91 6.72 14.9 7.09 23.99 0 9.09-1.36 20.35-4.09 33.8-2.72 13.45-6.36 26.8-10.9 40.07s-9.54 24.71-14.99 34.34-10.54 15.17-15.26 16.62c-11.63 4-23.9 5.82-36.8 5.45-12.9-.36-27.35-1.64-43.34-3.82s-34.16-4-54.52-5.45c-20.35-1.45-43.98-.91-70.87 1.64-9.81.73-16.72-2.18-20.72-8.72s-6-14.54-6-23.99 1.18-18.26 3.54-26.44 5-13.54 7.9-16.08" fill="url(#1770301554910-1912339_g)"></path><path d="M321.2 382.14c1.09.36 2.55 2.55 4.36 6.54 1.82 4 3.45 8.63 4.91 13.9 1.45 5.27 2.27 9.99 2.45 14.17s-.64 6.63-2.45 7.36c-6.54 2.18-14.99 3.63-25.35 4.36-10.35.73-20.17.91-29.44.55s-15.72-.91-19.35-1.64c-4.72-1.45-8.45-4.91-11.18-10.35-2.72-5.45-3.36-11.54-1.91-18.26s5.82-12.45 13.08-17.17c1.82-1.09 5.72-1.82 11.72-2.18s12.72-.45 20.17-.27 14.26.55 20.44 1.09c6.18.55 10.35 1.18 12.54 1.91" class="n" fill="#ffc66c"></path><path d="M465.12 230.59c9.45 11.26 17.63 20.44 24.53 27.53 6.91 7.09 12.26 14.26 16.08 21.53s5.91 17.26 6.27 29.98q0 9.27-3 25.62c-2 10.9-5 22.44-8.99 34.61s-8.63 23.53-13.9 34.07-10.81 18.72-16.62 24.53c-9.45 8.72-20.89 13.45-34.34 14.17s-29.07-.27-46.88-3c-17.81-2.72-37.7-5.18-59.69-7.36s-46.06-1.82-72.23 1.09c-9.45 1.09-17.17-1.82-23.17-8.72-6-6.91-9.9-15.81-11.72-26.71s-.91-21.99 2.72-33.25 10.35-20.53 20.17-27.8c13.45-8.72 26.98-14.54 40.61-17.44s26.8-4.36 39.52-4.36 24.26.09 34.61.27c10.36.18 18.99-1.18 25.9-4.09s11.09-9.09 12.54-18.53c.36 10.9-2.46 18.53-8.45 22.9-6 4.36-14.26 7.09-24.8 8.18s-22.26 2-35.16 2.72c-12.9.73-26.17 2.63-39.8 5.72s-26.26 8.99-37.89 17.72c-6.91 5.09-11.26 11.63-13.08 19.63-1.82 7.99-2 15.9-.55 23.71 1.45 7.82 3.82 14.26 7.09 19.35s6.72 7.45 10.35 7.09c26.89-3.27 50.88-4 71.96-2.18s39.71 4.09 55.88 6.82c16.17 2.72 30.44 4.09 42.79 4.09s23.08-3.45 32.16-10.35c5.09-4 10.18-10.54 15.26-19.63 5.09-9.09 9.54-19.26 13.36-30.53 3.82-11.26 6.91-22.08 9.27-32.44 2.36-10.35 3.36-18.99 3-25.9 0-8.72-1.64-16.17-4.91-22.35s-8.27-12.72-14.99-19.63-15.36-15.81-25.9-26.71c-5.09-5.09-7.99-10.54-8.72-16.36s-.91-11.72-.55-17.72-.73-11.9-3.27-17.72c1.82-1.82 3.63-3.72 5.45-5.72s3.63-4.09 5.45-6.27c3.63 9.09 5.45 16.53 5.45 22.35s.18 11.09.55 15.81c.36 4.72 2.91 9.81 7.63 15.26" class="o" fill="#db942d"></path><path d="M451.48 198.43c-6.18 5.45-12.26 11.54-18.26 18.26s-10.99 12.54-14.99 17.44c-4 4.91-6 7.36-6 7.36s1.55-3.27 4.63-9.81c3.09-6.54 6.91-13.99 11.45-22.35s9.18-14.9 13.9-19.63l9.27 8.72" class="o" fill="#db942d"></path></g></svg>
