<svg xmlns="http://www.w3.org/2000/svg" data-name="Layer 1" style="" viewBox="0 0 512 655.24"><g><defs><radialGradient id="1770301554910-2289446_b" cx="1137.48" cy="684.65" r="442.68" fx="1137.48" fy="684.65" gradientTransform="matrix(.00587 1.01998 -.68004 -.00445 768.48 -971.09)" gradientUnits="userSpaceOnUse"><stop offset=".69" stop-color="#ffc940"></stop><stop offset=".97" stop-color="#ffb12e"></stop><stop offset="1" stop-color="#ffae2c"></stop></radialGradient></defs><path d="M436.21 633.35c.61-23.25 2.05-38.3 31.85-87.55 32.87-54.37-332.8-40.35-286.62 14.54 25.6 30.31 32.46 53.56 32.46 73.01.1 29.18 221.49 29.18 222.31 0" fill="#ffae2c"></path><path d="M176.01 536.79c34.3-35.74 250.47-45.88 292.87-13.62 9.42 7.17 8.4 16.79 2.66 26.32-29.8 49.36-30.62 61.03-35.33 83.87.72-24.58-5.12-41.17 25.29-91.55 1.23-2.05 2.15-3.48-1.95-6.55-36.66-27.85-242.89-18.74-272.39 12.08-2.46 2.56-2.97 4.3.2 8.09 23.35 27.75 26.62 52.53 26.62 77.93-5.22-22.84-15.56-43.83-36.56-68.61-7.88-9.32-9.63-19.46-1.43-27.96Z" class="e" fill="#db942d"></path><path d="M52.42 280.48c79.77 4.1 121.86 155.75 133.02 29.9 4.71-53.97 4.81-128.1 5.43-224.16.31-50.07 68.2-42.8 69.43-7.07 2.46 68.3 9.52-26.73 9.73-40.65.41-37.68 73.01-46.08 74.86 3.89 2.56 68.1 7.07 74.55 9.93 24.27 1.95-34.82 62.16-35.23 65.43 6.45 3.17 39.94 8.4 109.47 7.88 86.22-.92-41.47 54.48-35.33 59.9 2.05 7.68 52.33 7.88 110.08 11.88 157.29 15.77 185.14-5.53 308.12-166.4 292.46-152.17 21.71-215.55-85.5-217.19-128.62-1.43-38.3-25.09-97.38-104.86-158.21-12.8-9.83 7.78-45.57 40.96-43.83Z" fill="url(#1770301554910-2289446_b)"></path><path d="M71.56 344.79c-2.66-6.14-32.15-29.7-38.4-28.88-15.67 2.15-17.72 11.57-13.21 15.46 6.86 6.04 29.59 22.02 40.96 31.33 4.71 3.99 12.39-13.82 10.65-17.92Zm213.1-287.24c-.92-5.73-1.84-17.51-1.23-21.71 2.66-18.53 45.26-18.43 47.82 0 .61 4.61-.1 17-1.33 22.94-3.89 17.61-42.19 16.9-45.26-1.23M205.3 97.9c-.92-5.22-1.64-15.97-1.13-19.76 2.36-16.59 41.27-16.38 43.52 0 .61 4.2-.1 15.46-1.23 20.79-3.58 16.08-38.5 15.36-41.17-1.02Zm160.36-9.63c-.82-5.22-1.64-15.87-1.13-19.66 2.36-16.38 40.96-16.28 43.21 0 .61 4.2-.1 15.46-1.23 20.68-3.48 15.97-38.2 15.26-40.86-1.02Zm73.63 87.45c-.72-4.51-1.33-13.62-.92-16.9 1.84-13.52 33.69-13.41 35.53 0 .51 3.58-.1 13.31-1.02 17.82-2.87 13.72-31.33 13.11-33.59-.92" style="isolation:isolate" fill="#fff" opacity=".3"></path><path d="M1.93 305.16c6.14-16.69 26.21-33.69 50.89-32.36 37.79 1.95 67.17 33.49 88.58 56.63 8.4 9.01 22.53 24.17 26.32 23.14.31-.1 6.55-2.36 10.14-42.8 4.4-50.07 4.81-118.38 5.22-204.7l.1-18.84c.2-29.49 20.89-43.01 41.27-43.32h.72c14.13 0 28.77 6.35 36.76 17.72.31-11.88.41-19.87.41-22.12.3-24.68 23.55-38.3 45.26-38.51 22.02-.2 43.83 12.7 44.95 42.29.1 2.25.2 4.61.2 7.07 6.45-9.52 17.92-15.46 31.85-15.67h.51c19.25 0 40.65 12.19 42.8 39.01.92 11.37 1.74 33.49 2.56 59.49 5.73-5.53 13.11-8.19 19.97-8.81 19.35-1.54 41.57 11.88 45.26 37.17 4.92 33.89 6.76 69.33 8.6 103.73 1.02 19.15 1.95 37.17 3.38 53.97 11.37 133.63 6.66 255.18-94.93 287.03 67.38-35.43 94.41-111.51 79.67-285.7-1.43-17.1-2.36-35.23-3.38-54.48-1.74-34-3.99-69.02-8.5-102.3-3.69-27.65-47.82-25.09-49.25-.92-4.71 80.59-5.84 131.48-3.58 160.36-11.06-13.82-11.98-209-15.05-248.32-1.33-17.2-14.64-24.88-27.44-24.88h-.31c-10.65.1-23.25 6.76-24.27 19.25-4.71 55.91-11.67 235.73-6.04 259.38-12.6-11.98-13.41-215.25-17.31-284.78-1.13-20.28-15.36-27.55-28.88-27.55h-.51c-14.64.2-29.59 9.01-30.11 23.45-5.63 157.9-9.42 273.82-1.54 292.66-17.61-21.2-10.34-100.25-23.55-251.91-1.13-13.52-14.34-21.4-27.96-21.3-6.04.1-26.01 2.36-26.11 28.06l-.1 18.84c-.51 86.73-.82 155.24-5.32 205.93-3.17 36.35-8.91 52.12-20.48 56.01-13.21 4.51-25.5-8.81-42.6-27.24-20.68-22.32-46.49-50.07-78.03-51.71-19.46-1.13-32.26 13.21-35.64 22.43-1.43 3.48-1.43 6.76-.2 7.68 94.52 71.99 106.91 138.65 107.83 163.94 1.13 29.7 37.68 94.52 106.39 122.47-87.25-22.53-120.53-90.32-121.65-121.96-.82-23.14-12.49-84.28-101.89-152.37-6.96-5.22-8.81-14.64-5.02-25.19Z" class="e" fill="#db942d"></path></g></svg>
