<svg xmlns="http://www.w3.org/2000/svg" data-name="Layer 1" style="" viewBox="0 0 512 511.96"><g><defs><linearGradient id="1770301554925-1754089_b" x1="-1.69" x2="90.54" y1="12.4" y2="12.4" gradientTransform="scale(1 -1) rotate(20 305.234 320.807)" gradientUnits="userSpaceOnUse"><stop offset="0" stop-color="#473834"></stop><stop offset=".06" stop-color="#4b3b36"></stop><stop offset=".67" stop-color="#6d564d"></stop><stop offset="1" stop-color="#7a6056"></stop></linearGradient><linearGradient id="1770301554925-1754089_c" x1="-1.14" x2="112.67" y1="1.68" y2="1.68" gradientTransform="scale(1 -1) rotate(20 305.234 320.807)" gradientUnits="userSpaceOnUse"><stop offset="0" stop-color="#7a6056"></stop><stop offset=".31" stop-color="#775d54"></stop><stop offset=".57" stop-color="#6d554d"></stop><stop offset=".8" stop-color="#5b4842"></stop><stop offset="1" stop-color="#473834"></stop></linearGradient><linearGradient id="1770301554925-1754089_e" x1="12.8" x2="12.8" y1="-25.52" y2="-11.3" gradientTransform="scale(1 -1) rotate(20 305.234 320.807)" gradientUnits="userSpaceOnUse"><stop offset="0" stop-color="#a6694a"></stop><stop offset="1" stop-color="#4f2a1e"></stop></linearGradient></defs><path d="M184.57 151.55c8.41-8.57 23.68-3.62 25.7-.12 6.72 11.45 38.43-16.4 28.15-28.6-8.95-10.62-8.27-27.45-8.27-27.45-8.22-1.39-49-36.19-45.59 56.17Z" fill="#f5bb51"></path><path d="M148.65 27.03c-29.13 16.2-32.45 42.44-17.98 66.67 3.27 5.49 3.15 16.93-1.98 26.14-1.85 3.34-.98 6.55 1.1 8.15 4.1 3.15 9.85 1.1 12.82 1.75 6.6 1.47 2.6 7.2 8.1 9.77 2.5 1.15 6.87-3.18 4.86 8.55 7.82 2.27 1.47 16.89 17.96 12.78 8.65-2.17 36.68-34.88 38.58-43.35 2-8.9-3.93-21.8-3.93-21.8 21.27-15.5 22.1-39.29 9.07-59.12-18.18-27.73-49.7-20.04-68.6-9.54" class="q" fill="#ffc940"></path><path d="M150.7 139.5c3.55.72 3.3 3.99 3.3 3.99-1.38.5-.07 5.25 2.01 4.48 7.25-2.64 11.63-11.28 12.43-15.83-11.55 3.57-25.86 2.98-17.75 7.36Z" class="ab" fill="#f0a429"></path><path d="M150.7 139.5s2.57 3.55 3.3 3.99c2.29-.84 9.08-5.15 12.55-9.81l-15.85 5.83Z" class="v" fill="#fff"></path><path d="M200.53 24.37c-34.04-25.1-85.13 16.18-86.31 25.8-.4 3.45 4.07 9.98 8.17 13.75 9.27-3.37 24.83-17.83 39.31-16.5 21.47 1.95 14.22 46.75 31.86 42.62 2.77-.64 22.36-52.61 6.97-65.66Z" fill="url(#1770301554925-1754089_b)"></path><path d="M215.07 18.41c-10.16-8.35-27.43-16.2-56.3-5.62-26.09 9.55-43.37 27.77-44.55 37.38 9.58-3.5 34.25-26.32 53.58-20.46 30.1 9.05 18.22 40.6 29.3 53.67 17.33 20.45 33.83 21.82 33.83 21.82 13.39-19.74 10.45-65.19-15.86-86.78Z" fill="url(#1770301554925-1754089_c)"></path><path d="M129.87 127.98c4.22 4.93 18.38 1.19 20.23-7.35-5.32 7.87-22.68 4.51-20.23 7.35" class="ab" fill="#f0a429"></path><path d="M197.8 66.81c-10.68 6.61-4.79 34 5.93 36.51 1.5.35 8.06-1.24 9.08-8.85.56-4.22 5.9-10.21 4.3-17.5-2.07-9.32-8.7-16.7-19.31-10.16" class="q" fill="#ffc940"></path><path id="1770301554925-1754089_d" d="M200.17 71.44c-2.57 2.07-4.1 6.45-3.06 11.93 9.39-6.61 13.17 5.27 4.42 10 .72 1.03 1.48 2.07 2.38 3.1 1.96-6.05 7.24-6.73 8.06-14.65.79-7.18-5.44-15.51-11.8-10.38" class="ab" data-name="Path" fill="#f0a429"></path><path d="M158.87 92.29c.77 1.6-2.31 9.53-8.83 12.55-3.7 1.7-6.15-.75-8.17-3.64-5.45-12.38 11.14-13.32 17-8.92Z" class="v" fill="#fff"></path><path id="1770301554925-1754089_f" d="M141.01 99.69c3.37 9.23 14.06 5.33 10.7-3.9-3.11-8.58-13.83-4.68-10.7 3.9" data-name="Path" fill="url(#1770301554925-1754089_e)"></path><path id="1770301554925-1754089_g" d="M142 98.87c1.66 4.62 7.01 2.67 5.33-1.94-1.57-4.31-6.9-2.36-5.33 1.94" data-name="Path" fill="#1a1626"></path><path id="1770301554925-1754089_h" d="M144.61 95.8c.68 1.92 3.8.79 3.1-1.13-.67-1.82-3.76-.68-3.1 1.13" data-name="Path" fill="#ab968c"></path><path d="M158.87 92.29c-4.97-4.74-20.83-3.7-18.38 4.23.12-5.98 11.78-6.96 18.38-4.23" class="ab" fill="#f0a429"></path><path id="1770301554925-1754089_i" d="M156.85 78.16c-8.08-1.72-20.75 2.67-24.4 7.24-.82.91 1.26 4.57 1.98 3.9 5.44-5.44 15.95-9.35 23.3-8.18.99.11.32-2.76-.88-2.95Z" data-name="Path" fill="#966f42"></path><path d="M409.6 315.7c-51.85 0-93.87 42.02-93.87 93.87s42.02 93.87 93.87 93.87 93.87-42.02 93.87-93.87-42.04-93.87-93.87-93.87m0 170.66c-42.42 0-76.8-34.38-76.8-76.8s34.38-76.8 76.8-76.8 76.8 34.38 76.8 76.8-34.38 76.8-76.8 76.8M102.4 315.7c-51.85 0-93.87 42.02-93.87 93.87s42.02 93.87 93.87 93.87 93.87-42.02 93.87-93.87-42.04-93.87-93.87-93.87m0 170.66c-42.42 0-76.8-34.38-76.8-76.8s34.38-76.8 76.8-76.8 76.8 34.38 76.8 76.8-34.38 76.8-76.8 76.8" class="t" fill="#99a8ae"></path><path d="M102.4 307.16C45.85 307.16 0 353.01 0 409.56s45.85 102.4 102.4 102.4 102.4-45.83 102.4-102.4-45.87-102.4-102.4-102.4m0 187.76c-47.13 0-85.33-38.22-85.33-85.35s38.2-85.33 85.33-85.33 85.32 38.22 85.32 85.33c0 47.15-38.19 85.35-85.32 85.35m307.2-187.76c-56.55 0-102.4 45.85-102.4 102.4s45.85 102.4 102.4 102.4S512 466.13 512 409.56s-45.87-102.4-102.4-102.4m0 187.76c-47.13 0-85.33-38.22-85.33-85.35s38.2-85.33 85.33-85.33 85.32 38.22 85.32 85.33-38.19 85.35-85.32 85.35" class="ad" fill="#302c3b"></path><path d="M223.18 253.72c-14.62 30.24 20.16 30.24 54.43 87.65l16.5-25c-22.5-23.55-11.12-28.98-26.15-57.31l-44.79-5.33Z" fill="#f7c259"></path><path d="m321.31 259.57-22.65-46.26c-22.31 12.8-61 19.99-75.49 40.41 0 0 13.5 13.76 53.07 26.79 16.63-6.61 45.06-20.95 45.06-20.95Z" class="ae" fill="#25a898"></path><path d="M162.13 221.84c-6.12-2.87-25.6-8.53-25.6-8.53v17.07l16.07 4.02-7.53 30.11 17.07 8.53 8.53-34.13s13.35-6.8-8.53-17.07Z" class="ad" fill="#302c3b"></path><path d="m415.23 403.03-86.52-102.75 11.72-23.42c2.1-4.22-13.17-11.85-15.27-7.65l-11.23 22.49-166.35-37.27-53.23 152.31c-3.37 9.57 13.01 14.37 16.1 5.68l45.97-130.22 101.35 132.55c.07.1.18.14.25.2.75.9 5.28 3.13 6.54 3.13H409.8c4.68 0 7.32-13.51 5.44-15.06Zm-109.16-95.6L263 393.55l-88.36-115.58 131.43 29.47Zm-27.74 93.6 42.09-84.11 70.84 84.11H278.34Z" fill="#0fb4d4"></path><path d="M119.47 409.56c0 22.77-34.13 22.77-34.13 0s34.13-22.75 34.13 0" class="ad" fill="#302c3b"></path><path d="m409.6 392.5-145.08-8.54v-8.53l145.08 8.53zm0 42.66-145.07 8.54v-8.54l145.07-8.53z" fill="#bec3cf"></path><path d="M435.2 409.56c0 34.13-51.2 34.13-51.2 0s51.2-34.13 51.2 0M264.52 443.7c-45.48 0-45.48-68.27 0-68.27s45.53 68.27 0 68.27" class="ad" fill="#302c3b"></path><path d="M247.47 469.3H230.4l25.6-59.74h17.07z" fill="#6e8189"></path><path d="M273.07 409.6c0 11.35-17.07 11.35-17.07 0s17.07-11.42 17.07 0" class="t" fill="#99a8ae"></path><path d="M366.93 281.56c-17.07 8.53-34.13-8.53-68.27-8.53 0 0 0-17.07 17.07-17.07 35.18 0 46.37-6.68 59.73 0 17.07 8.54 2.25 20.22-8.53 25.6" class="ad" fill="#302c3b"></path><path d="M255.86 319.5c-4.39 17.94 22.8 59.68 10.12 120.81H302c-9.45-61.13 5.73-73.72 1.47-119.19 0 0-42.26-23.41-47.61-1.63Z" class="q" fill="#ffc940"></path><path d="M377.48 200.18C335.6 110 222.8 88.32 209.45 122.65c-8.99 23.15 53.05 45.82 89.22 90.66-13.93 25.6-40.65 75.28-42.8 106.2 0 0 16.73.37 48.37 12.6 21.62-64.51 97.38-79.92 73.25-131.93Z" fill="#3ab0a2"></path><path d="m292.45 327.83-17.03-5c8.06-36.57 28.22-58 44-75.44 13.9-15.35 21.65-24.58 19.65-35.9-4.81-27.2-39.85-53.37-98.65-73.7l5.58-16.14c45.92 15.88 102.25 43.84 109.87 86.85 3.57 20.1-9.11 34.12-23.78 50.33-15.17 16.79-32.54 36.88-39.63 69Z" fill="#47d6c6"></path><path d="M214.38 182.8c1.33 7.57 2.76 11.43 3.22 16-27.2 14.13-34.1 21.03-59.58 5.96-17.07-10.09-50.13-10.86-43.1 23.87 3.02 14.92 21.84-25.07 29.03-11.2 11.37 21.87 15.37 17.22 31.51 16.37 38.31-2.01 77.82-3.41 76.33-18.12-.9-8.9.45-28.17.45-28.17z" class="q" fill="#ffc940"></path><path d="M251.33 133.66c-4.53-33.52-45.4-28.27-43.38-.73 1.15 15.85 6.43 49.89 6.43 49.89 20.62 6.31 37.87 4.72 37.87 4.72 1.14-18.01 1.37-36.94-.92-53.87Z" class="ae" fill="#25a898"></path><path d="M153.6 221.88c0 22.68-34.13 22.68-34.13 0s34.13-22.79 34.13 0" class="ad" fill="#302c3b"></path><path d="M145.07 221.85c0 11.35-17.07 11.35-17.07 0s17.07-11.39 17.07 0m68.26 247.45s-3.55 14.72 0 17.07c4.18 2.76 19.8-5.95 19.88.03h.03c.09-5.98 19.8-5.98 19.88 0h.03c.09-5.98 15.7 2.73 19.88-.03 3.55-2.35.02-17.07.02-17.07h-59.73Z" class="t" fill="#99a8ae"></path><path d="M247.47 475.43c0 5.7-8.53 5.7-8.53 0s8.53-5.68 8.53 0m-14.07 0c0 2.85-17.07 2.85-17.07 0s17.07-2.83 17.07 0m36.66 0c0 2.85-17.07 2.85-17.07 0 0-2.83 17.07-2.83 17.07 0M224.3 54.2s-9.83-2.25-9.55.14c1.13 9.93-4.8 33.89-4.8 33.89s-26.45-12.6-38.25-38.42c-1-2.2-7.62 3.25-7.85 5.65-1.47 14.57 42.7 43.77 42.7 43.77s-10.21 39.19-19.99 51.48c26.7 3.83 37.73-96.5 37.73-96.5Z" class="ad" fill="#302c3b"></path><path d="M301.1 433.65c-9.15 8.83-28.89 7.1-34.55 2.64-19.08 7-22.07 16.37-47.77 18.92-10.65 1.07-7.4 13.1-5.45 14.1 9.81 5.05 44.59-3.62 79.23 2.5 16.39 2.88 10.99-38.4 8.54-38.15Z" fill="#e81c27"></path><path d="M262.31 437.98c-6.31 1.45-9.32 4.8-9.32 4.8 12.06 9.97 21.64 7.21 9.32-4.8m-10.42 5.72c-6.31 1.47-9.32 4.8-9.32 4.8 9.98 8.26 19.68 5.33 9.32-4.8m-10.21 5.52c-6.31 1.45-6.52 2.68-6.52 2.68 7.41 6.12 14.51 5.1 6.52-2.68" class="ad" fill="#302c3b"></path><path d="M246.15 36.1c1.94 1.3 11.26 6.19 11.58 8.45.15 1.1-.87 2.85-.84 4.15.07 2.1 10.18 14.25 8.58 15.82-13.4 13.13 4.22 9.02-4.07 15.58-6.3 4.98-13.29 9.74-19.27 13.4-7.57 4.63-15.25-1.1-51.93-18.36-.73-.35-9.92 4.18-13.9 3.95-2.83-.17-15.11-4.1-18.03-4.67-8.57-1.66-45.08-3.62-49.65-7.38-5.6-41.81 63.8-104.08 150.15-38.45 3.42 2.6-12.63 7.52-12.63 7.52Z" fill-rule="evenodd" fill="#e81c27"></path><path d="M117.58 51.6c-2.4 3.4 28.17-30.62 82.47-34.53-15.2-14.71-66.83 2.24-82.47 34.53m130.69-14.22s9.25-3.55 10.88-7.6c-12.94-1.37-21.15-3.95-23.99.2l13.11 7.41Zm-26.05 13.27c24.76 9.23 38.14 22.28 38.14 22.28s.79-3.55 4.58-7.87c-6.28-11-22.58-24.25-25.81-24.35-4.8-.16-20.33 8.68-16.9 9.94Zm-95.39 4.53c-4.16 6.54 14.65 5.91 34.75 3.58 7.25-.85 53.79-18.38 56.92-23.36.68-1.07-2.47-10.1-5.14-10.16-19.31-.45-76.69 17.31-86.53 29.94" fill="#8a0404" fill-rule="evenodd"></path></g></svg>
