<svg xmlns="http://www.w3.org/2000/svg" data-name="Layer 1" style="" viewBox="0 0 512 495.49"><g><defs><linearGradient id="1770301554931-6359975_m" x1="-620.03" x2="-620.03" y1="355.66" y2="349.4" gradientTransform="matrix(6.57 0 0 6.57 4240.73 -2092.89)" gradientUnits="userSpaceOnUse"><stop offset="0" stop-color="#a6694a"></stop><stop offset="1" stop-color="#4f2a1e"></stop></linearGradient><linearGradient id="1770301554931-6359975_s" x1="-605.79" x2="-605.79" y1="355.66" y2="349.4" gradientTransform="matrix(6.57 0 0 6.57 4258.46 -2092.89)" gradientUnits="userSpaceOnUse"><stop offset="0" stop-color="#a6694a"></stop><stop offset="1" stop-color="#4f2a1e"></stop></linearGradient><linearGradient id="1770301554931-6359975_x" x1="222.96" x2="222.96" y1="251.47" y2="428.03" gradientTransform="matrix(1 0 0 -1 0 497.49)" gradientUnits="userSpaceOnUse"><stop offset=".5" stop-color="#473834"></stop><stop offset=".64" stop-color="#503f3a"></stop><stop offset=".86" stop-color="#68524a"></stop><stop offset="1" stop-color="#7a6056"></stop></linearGradient><linearGradient id="1770301554931-6359975_y" x1="417.73" x2="512" y1="176.29" y2="176.29" gradientTransform="matrix(1 0 0 -1 0 497.49)" gradientUnits="userSpaceOnUse"><stop offset="0" stop-color="#01b3ff"></stop><stop offset="1" stop-color="#baffff"></stop></linearGradient><linearGradient id="1770301554931-6359975_z" x1="418.77" x2="495.74" y1="175.68" y2="175.68" gradientTransform="matrix(1 0 0 -1 0 497.49)" gradientUnits="userSpaceOnUse"><stop offset="0" stop-color="#fff" stop-opacity=".69"></stop><stop offset="1" stop-color="#fff" stop-opacity="0"></stop></linearGradient></defs><path d="M39.52 418.83c22.31-10.64 109.12-38.88 109.12-38.88l148.65-.24s87.45 28.42 109.63 39.09c32.25 15.46 39.02 36.57 39.02 56.53 0 26.87-445.94 26.87-445.94 0 0-19.98 7.19-41.1 39.52-56.5" fill="#006dae"></path><path d="M209.04 433.42h27.87v62.07h-27.87z" class="am" fill="#0198db"></path><path d="M280.94 408.23c-17.79 4.97-37.47 7.8-57.97 7.8s-40.19-2.84-57.97-7.8l57.97 72.85z" class="an" fill="#fff"></path><path d="M148.66 379.43c0 52.5 148.65 52.5 148.65 0v-58.1H148.66z" fill="#f5bb51"></path><path d="M297.29 372.6c0 17.53-49.43 43.37-74.32 106.27-24.91-62.9-74.32-88.74-74.32-106.27 0 0-34.5 19.14-19.87 52.74 17.11-4.55 42.03.87 42.03.87-4 6.89-7.19 30.32-7.19 30.32 31.95 6.6 59.35 27.65 59.35 27.65s27.4-21.05 59.34-27.65c0 0-3.2-23.44-7.19-30.32 0 0 24.94-5.42 42.03-.87 14.64-33.59-19.86-52.74-19.86-52.74" class="am" fill="#0198db"></path><path id="1770301554931-6359975_b" d="M358.72 193.18c-21.02 2.54-36.2 72.79-22.97 91.34 1.86 2.58 12.68 6.72 20.71-9.65 4.45-9.07 17.28-16.63 21.26-35.32 5.1-23.96 1.92-48.91-19-46.38Z" class="ah" data-name="Path" fill="#ffc940"></path><path id="1770301554931-6359975_c" d="M87.2 193.18c21.02 2.54 36.2 72.79 22.97 91.34-1.86 2.58-12.68 6.72-20.73-9.65-4.43-9.07-17.28-16.63-21.24-35.32-5.11-23.96-1.92-48.91 19-46.38Z" class="ah" data-name="Path" fill="#ffc940"></path><path id="1770301554931-6359975_d" d="M358.16 206.63c-5.48 1.73-11.47 10.08-14.71 23.93 19.16-4.11 14.37 27.76-2.29 28.36.17 3.21.37 6.5.78 9.97 8.02-11.63 16.18-6.97 24.26-24.27 7.27-15.6 5.54-42.22-8.04-37.99" class="ar" data-name="Path" fill="#f0a429"></path><path id="1770301554931-6359975_e" d="M102.47 230.53c-3.26-13.84-9.22-22.18-14.71-23.91-13.57-4.24-15.32 22.39-8.04 37.99 8.08 17.31 16.24 12.64 24.27 24.27.39-3.47.61-6.77.74-9.98-16.47-.77-21.21-32.26-2.27-28.37Z" class="ar" data-name="Path" fill="#f0a429"></path><path id="1770301554931-6359975_f" d="M222.95 58.08c-91.06 0-134.94 68.77-129.45 164.4 1.1 19.24 13.06 82 24.34 104.51 11.54 23.03 50.16 58.55 73.81 65.9 14.96 4.63 47.67 4.63 62.61 0 23.66-7.36 62.29-42.87 73.82-65.9 11.31-22.52 23.24-85.26 24.32-104.51 5.52-95.63-38.35-164.4-129.45-164.4" class="ah" data-name="Path" fill="#ffc940"></path><path id="1770301554931-6359975_g" d="M321.9 186.16c-20.82-11.03-60.68-11.56-75.53-3.87-3.2 1.47-1.08 11.9 1.59 10.92 20.68-8.18 54.07-8.36 73.44.69 2.58 1.18 3.66-6.2.5-7.74" class="ap" data-name="Path" fill="#966f42"></path><path id="1770301554931-6359975_h" d="M124.02 186.16c20.82-11.03 60.66-11.56 75.53-3.87 3.18 1.47 1.08 11.9-1.59 10.92-20.73-8.18-54.07-8.36-73.46.69-2.56 1.18-3.63-6.2-.48-7.74" class="ap" data-name="Path" fill="#966f42"></path><path id="1770301554931-6359975_i" d="M247.54 281.66c-2.59-1.81-8.7.98-24.58.98s-21.97-2.79-24.57-.98c-3.11 2.2 1.84 12.07 24.57 12.07 22.74 0 27.71-9.87 24.58-12.07" class="ar" data-name="Path" fill="#f0a429"></path><path id="1770301554931-6359975_j" d="M222.95 319.13c-20.47-6.02-50.82 2.86-50.82 2.86 11.54 12.56 20.02 28.85 50.82 28.85 35.3 0 41.31-18.5 50.84-28.85 0 0-30.35-8.93-50.84-2.86" class="ar" data-name="Path" fill="#f0a429"></path><path id="1770301554931-6359975_k" d="M179.75 324.11c21.49 17.97 64.84 18.09 86.44 0-22.89.97-63.39.98-86.44 0" class="an" data-name="Path" fill="#fff"></path><path id="1770301554931-6359975_l" d="M202.69 223.66c.78 6.03-3.32 13.16-14.64 18.51-7.19 3.4-22.18 7.4-41.84-.88-8.8-3.71-17.4-15.26-16.63-21.66 10.65-20.07 63.12-23 73.11 4.03" class="an" data-name="Path" fill="#fff"></path><circle id="1770301554931-6359975_n" cx="167.09" cy="223.27" r="20.58" data-name="Oval" fill="url(#1770301554931-6359975_m)"></circle><path id="1770301554931-6359975_o" d="M156.79 222.89c0 14.25 20.61 14.25 20.61 0 0-13.2-20.61-13.2-20.61 0" class="ai" data-name="Path" fill="#1a1626"></path><path id="1770301554931-6359975_p" d="M153.66 217.11c0 5.97 8.63 5.97 8.63 0 0-5.52-8.63-5.52-8.63 0" class="ao" data-name="Path" fill="#ab968c"></path><path id="1770301554931-6359975_q" d="M202.79 224.45c-8.37-26.84-65.45-22.87-73.21-4.82 2.87-23.11 66.07-29.23 73.21 4.82" class="ar" data-name="Path" fill="#f0a429"></path><path id="1770301554931-6359975_r" d="M243.22 223.66c-.78 6.03 3.3 13.16 14.64 18.51 7.19 3.4 22.16 7.4 41.82-.88 8.84-3.71 17.42-15.26 16.65-21.66-10.65-20.07-63.14-23-73.11 4.03" class="an" data-name="Path" fill="#fff"></path><circle id="1770301554931-6359975_t" cx="278.35" cy="223.27" r="20.58" data-name="Oval" fill="url(#1770301554931-6359975_s)"></circle><path id="1770301554931-6359975_u" d="M268.07 222.89c0 14.25 20.61 14.25 20.61 0 0-13.2-20.61-13.2-20.61 0" class="ai" data-name="Path" fill="#1a1626"></path><path id="1770301554931-6359975_v" d="M264.92 217.11c0 5.97 8.65 5.97 8.65 0 0-5.52-8.65-5.52-8.65 0" class="ao" data-name="Path" fill="#ab968c"></path><path id="1770301554931-6359975_w" d="M243.13 224.45c8.36-26.82 65.4-22.98 73.21-4.82-2.9-23.11-66.07-29.23-73.21 4.82" class="ar" data-name="Path" fill="#f0a429"></path><path d="M339.27 80.87c-19.93-26.94-56.42-47.84-116.32-47.84s-96.36 20.9-116.29 47.84c-28.23 38.11 260.82 38.11 232.61 0" fill="#7a6056"></path><path d="M339.27 80.87c-19.93-26.94-56.42 2.27-116.32 2.27s-96.36-29.21-116.29-2.27c-28.23 38.11-18.65 165.14-6.08 165.14 1.98 0 2.27-44.44 6.08-75.18 3.08-25.01 9.03-49.29 15.89-53.26 20.9-12.11 61.21 5.21 100.4 5.21s79.52-17.33 100.43-5.21c6.84 3.96 12.78 28.24 15.89 53.26 3.79 30.74 4.08 75.18 6.06 75.18 12.57 0 22.15-127.03-6.06-165.14" fill="url(#1770301554931-6359975_x)"></path><path d="M355.37 193.22c-86.97-33.35-180.66-33.35-267.61 0-3.64-13.23-7.27-26.42-10.89-39.63 94.03-36.06 195.34-36.06 289.4 0-3.63 13.21-7.27 26.41-10.9 39.63" class="aj" fill="#99a8ae"></path><path d="M57.81 189.46v28.87L74.19 224v-40.18zm330.32 0v28.87L371.75 224v-40.18z" class="af" fill="#6e8189"></path><path d="M381.16 264.26c0-170.63-22.69-258.63-158.17-258.63-135.5 0-158.17 88-158.17 258.63 0 0 22.68-154.13 158.17-154.13s158.17 154.13 158.17 154.13" class="as" fill="#302c3b"></path><path d="M222.97 50.51c49.33 0 84.84 10.53 110.36 31.26L317.66 23.3c-94.68-23.3-189.37 0-189.37 0l-15.67 58.47c25.5-20.72 61.04-31.26 110.34-31.26Z" class="af" fill="#6e8189"></path><path d="M317.66 23.3 304.21 0H141.85l-13.44 23.3z" class="aq" fill="#4e5e67"></path><path d="m307.51 23.3-6.73-11.64H145.26l-6.71 11.64z" class="as" fill="#302c3b"></path><path d="M381.16 264.26c0-113.04-83.61-154.67-158.17-154.67S64.82 151.22 64.82 264.26c0 0 22.68-135.43 158.17-135.43s158.17 135.43 158.17 135.43" class="aq" fill="#4e5e67"></path><path d="m349.37 457.1-15.48-4.05 20.93-75.08c3.45-12.54 10.73-38.58 46.57-48.47l4.4 14.98c-27.14 7.45-32.17 25.55-35.52 37.52z" class="aj" fill="#99a8ae"></path><path d="M512 300.03s-26.62-10.1-80.14 8.45c-25.94 9.05-12.92 44.16 13.03 35.16 51.46-17.87 67.11-43.61 67.11-43.61" fill="url(#1770301554931-6359975_y)"></path><path d="M437.17 336.38c-19.66 6.9-26.19-10.76-6.5-17.55 22.98-8.02 65.07-13.18 65.07-13.18s-35.56 22.75-58.57 30.73" fill="url(#1770301554931-6359975_z)"></path><path d="m404.92 352.13-8.94-29.88 17.62 3.15 4.5 14.91z" class="af" fill="#6e8189"></path><path d="m347.89 492.35 11.64-41.91-30.97-8.11-14.31 51.57z" class="as" fill="#302c3b"></path></g></svg>
