<svg xmlns="http://www.w3.org/2000/svg" data-name="Layer 1" style="" viewBox="0 0 512 640.01"><g><defs><linearGradient id="1770301554940-8098884_b" x1="-9.36" x2="93.5" y1="457.53" y2="457.53" gradientTransform="scale(1 -1) rotate(10 2998.434 654.405)" gradientUnits="userSpaceOnUse"><stop offset="0" stop-color="#473834"></stop><stop offset=".06" stop-color="#4b3b36"></stop><stop offset=".67" stop-color="#6d564d"></stop><stop offset="1" stop-color="#7a6056"></stop></linearGradient><linearGradient id="1770301554940-8098884_c" x1="-8.73" x2="118.18" y1="445.6" y2="445.6" gradientTransform="scale(1 -1) rotate(10 2998.434 654.405)" gradientUnits="userSpaceOnUse"><stop offset="0" stop-color="#7a6056"></stop><stop offset=".31" stop-color="#775d54"></stop><stop offset=".57" stop-color="#6d554d"></stop><stop offset=".8" stop-color="#5b4842"></stop><stop offset="1" stop-color="#473834"></stop></linearGradient><linearGradient id="1770301554940-8098884_e" x1="6.81" x2="6.81" y1="415.24" y2="431.11" gradientTransform="scale(1 -1) rotate(10 2998.434 654.405)" gradientUnits="userSpaceOnUse"><stop offset="0" stop-color="#a6694a"></stop><stop offset="1" stop-color="#4f2a1e"></stop></linearGradient></defs><path d="M123.91 159.02c10.89-7.78 16.15 2.04 17.71 6.25 5.14 13.88 55.94-11.96 47-27.37-7.78-13.4-3.78-31.73-3.78-31.73-8.74-3.15-46.81-49.25-60.93 52.85" class="o" fill="#f5bb51"></path><path d="M108.59 15.32C73.44 27.47 64.74 55.63 75.92 85.05c2.53 6.67.19 19.22-7.23 28.31-2.71 3.32-2.37 7.02-.37 9.18 3.89 4.23 10.6 3.1 13.72 4.39 6.97 2.89 1.49 8.41 7.02 12.27 2.53 1.78 8.16-2.15 3.68 10.36 8.15 4-1.64 18.83 17.26 17.5 9.93-.68 47.05-31.21 50.78-40.12 3.91-9.39-.11-24.71-.11-24.71 26.36-12.9 31.87-38.88 21.42-63.17-14.6-33.97-50.72-31.64-73.49-23.74Z" class="m" fill="#ffc940"></path><path d="M89.06 139.22c3.77 1.5 2.86 5.02 2.86 5.02-1.63.29-1.1 5.75 1.33 5.33 8.47-1.5 14.97-10.12 16.74-14.99-13.39 1.66-29-1.75-20.93 4.63Z" class="s" fill="#f0a429"></path><path d="M89.06 139.22s2.12 4.42 2.86 5.02c2.66-.47 10.97-3.89 15.68-8.35z" class="p" fill="#fff"></path><path d="M166.08 22.43c-32.53-34.14-96.65 1.3-99.79 11.61-1.12 3.73 2.52 11.79 6.28 16.7 10.86-1.92 30.75-14.76 46.41-10.51 23.19 6.3 6.55 54.09 26.73 52.98 3.16-.18 34.74-53.45 20.36-70.78Z" fill="url(#1770301554940-8098884_b)"></path><path d="M183.21 18.7c-9.56-11.15-27-23.11-60.76-17.09-30.49 5.44-53.01 22.1-56.16 32.41 11.2-1.97 42.7-22.25 62.82-12.09 31.3 15.78 12.15 48.13 21.77 64.62 15.07 25.85 32.94 30.51 32.94 30.51 18.52-19.05 24.11-69.54-.61-98.36" fill="url(#1770301554940-8098884_c)"></path><path d="M68.39 122.57c3.69 6.21 19.96 4.83 23.65-4.17-7.37 7.59-25.78.54-23.65 4.17" class="s" fill="#f0a429"></path><path d="M154.86 68.51c-13.01 5.18-11.83 36.43-.57 41.25 1.58.68 9.11.21 11.71-7.95 1.44-4.53 8.45-10.09 8.11-18.4-.47-10.62-6.34-20.03-19.25-14.9" class="m" fill="#ffc940"></path><path id="1770301554940-8098884_d" d="M156.57 74.04c-3.23 1.77-5.76 6.3-5.69 12.51 11.58-5.43 13.45 8.33 2.91 11.86.59 1.25 1.23 2.52 2.02 3.85 3.34-6.26 9.25-6.01 11.71-14.55 2.24-7.71-2.98-18.07-10.95-13.67" class="s" data-name="Path" fill="#f0a429"></path><path d="M107.17 88.96c.54 1.92-4.39 10.02-12.13 12.05-4.39 1.18-6.61-2.01-8.27-5.56-3.58-14.67 14.79-12.47 20.39-6.5Z" class="p" fill="#fff"></path><path id="1770301554940-8098884_f" d="M86.12 93.63c1.91 10.79 14.42 8.6 12.52-2.21-1.77-10.04-14.29-7.83-12.52 2.21" data-name="Path" fill="url(#1770301554940-8098884_e)"></path><path id="1770301554940-8098884_g" d="M87.35 92.91c.95 5.4 7.19 4.3 6.23-1.1-.87-5.02-7.13-3.94-6.23 1.1" class="n" data-name="Path" fill="#1a1626"></path><path id="1770301554940-8098884_h" d="M90.83 90.03c.39 2.26 4.03 1.61 3.64-.64-.38-2.11-4.02-1.47-3.64.64" data-name="Path" fill="#ab968c"></path><path d="M107.17 88.96c-4.54-6.15-22.17-8.11-21.02 1.09 1.28-6.54 14.31-5.39 21.02-1.09" class="s" fill="#f0a429"></path><path id="1770301554940-8098884_i" d="M107.68 73.05c-8.53-3.46-23.31-1.11-28.2 3.21-1.07.86.51 5.26 1.42 4.66 7.03-4.9 19.35-7.16 27.19-4.47 1.03.32.87-2.97-.41-3.4" data-name="Path" fill="#966f42"></path><path d="M0 606.95s28.73 28.67 69.81 26.72l27.79 6.34c2.19-3.52.98-4.8.98-4.8S79.52 615.56 3.19 603.9c0 0-2.08-.44-3.19 3.05" class="t" fill="#3ab0a2"></path><path d="M71 587.74c-12.06 12.9-59.75-9.56-67.81 16.17 0 0 26.54 26.93 67.61 24.98l27.79 6.33c37.94-60.78-27.58-47.48-27.58-47.48Z" class="u" fill="#302c3b"></path><path d="M37.31 591.11c7.06 11.71 13.12 15.18 15.61 8.9 5.16 6.28 9.77 3.51 10.84-.33 6.08 4.8 10.19-.66 3.87-9.57-3.71-4.82-32.21-2.15-30.31 1Zm472.73-36.63s9.53-39.61-13.4-73.98l-8.98-27.22c-4.13-.07-4.59 1.63-4.59 1.63s-6.86 26.59 22.73 98.4c.01.01.71 2.04 4.23 1.17Z" class="t" fill="#3ab0a2"></path><path d="M456.98 503.25c17.21 3.73 22.79 56.45 48.83 50.07 0 0 9.16-36.8-13.75-71.18l-8.98-27.22c-44.59 3.98-36.19 20.19-26.1 48.33" class="u" fill="#302c3b"></path><path d="M477.27 530.51c6.31-12.13 6.12-19.16-.48-18.03 2.67-7.7-2.08-10.25-5.9-9.16.94-7.73-5.83-8.44-10.14 1.61-2.19 5.67 14.84 28.85 16.52 25.58" class="t" fill="#3ab0a2"></path><path d="M168.46 336.74c-31.23 29.8-82.91 93.69-82.25 115.42 1.66 55.37-11.58 123.14-11.58 123.14 2.56 11.62 30.44 16.67 36.73 8.27 11.78-53.13 35.78-61.82 27.46-121 44.87-29.59 68.42-78.04 89.14-83.23 2.42 62.09 56.19 129.31 67.54 132.01 12.33 2.92 62.67-13.5 147.83-11.22 6.95.18 2.14-34.59-1.31-34.56-64.02.71-94.4-17.62-127.71-.07-3.98-40.97-21.56-62.43-22.42-103.07-.14-7.37-123.41-25.67-123.41-25.67Z" class="o" fill="#f5bb51"></path><path d="M74.62 575.31c-1.5 9.01-2.54 15.62-2.54 15.62s12.09 11.49 35.25 9.96c1.35-6.29 2.47-11.86 4.02-17.3-5.48 3.93-30.4-.15-36.74-8.28Zm380.94-110.14c-4.68.22-9.18.34-13.55.41 4.87 10.37 4.11 28.22 1.31 34.56 4.04.02 8.09.05 12.22.17 6.97.19 3.49-35.29.01-35.14Z" fill="#f2f5f7"></path><path d="M237.56 435.07s44.63-1.11 69.64-16.42c-4.87-49.75-15.63-90.38-34.01-115.94-53.88 10.57-93.28 42.49-35.64 132.35Z" class="n" fill="#1a1626"></path><path d="M173.48 311.62c-15.25 25.06-40.83 61.19-57.27 76.82 0 0 24.57 32.03 68.92 38.42 33.96-29.13 160.35-49.76 88.09-124.15-53.9 10.57-99.73 8.91-99.73 8.91Z" class="u" fill="#302c3b"></path><path d="M166.45 202.54c-26.17-13.29-39.91 36.57-39.83 50.29-23.54-11.97-63.73-22.67-63.15-26.95 1.55-11-.81-11.7-11.23-24.85-2.88-3.64-9.14 2.22-9.14 2.22-9-6.7-8.57 2.59-14.45 5.47-5.5 2.67-3.27 7.21-8.46 10.99-11.52 8.42 5.96 25.45 26.47 31.79 14.69 4.55 60.63 52.83 99.25 51.17 12.83-.54 47.68-79.58 20.53-100.12Z" class="o" fill="#f5bb51"></path><path d="M187.56 135.88c-10.18 6.21-31.3 27.9-45.94 29.4-36.77 67.18 20.5 91.22 25.88 153.81 8.57 14.04 100.7 7.2 109.27-15.08-48.64-58.08 27.79-172.84-89.21-168.13" class="t" fill="#3ab0a2"></path><path d="M232.7 167.53c-27.41 35.43 43.81 51.81 57.98 53.87-16.25 20.23-57 81.01-61.07 79.16-11.83-5.33-12.19-1.06-27.5 6.7-4.25 2.12.79 8.92.79 8.92-8.44 7.42 1.25 8.44 3.23 14.44 1.86 5.56 6.91 4.18 9.94 9.62 6.79 12.13 27.27-1.62 37.21-19.89 7.1-13.1 81.12-68.67 85.79-105.24 1.57-12.12-80.68-69.88-106.38-47.57Z" class="o" fill="#f5bb51"></path><path d="M245.53 214.43c11.52-25.06 26.31-43.69 32.75-48.71-91.32-77.59-136.85 12.09-32.75 48.71" fill="#25a898"></path><path d="M43.1 203.25c20.11 12.99 7.96 20.54 7.96 20.54s16.46-7.5-7.96-20.54" class="s" fill="#f0a429"></path><path d="M37.69 210.8c19.61 12.04 8.7 19.18 8.7 19.18s15.11-7.08-8.7-19.18" class="s" fill="#f0a429"></path><path d="M32.52 215.63c21.33 14.35 8.81 19.49 8.81 19.49s16.35-4.04-8.81-19.49" class="s" fill="#f0a429"></path><path d="M29.35 222.9c23.91 11.13 9.75 25.6-6.84 6.06 17.02 15.5 27.27 6.17 6.84-6.06" class="s" fill="#f0a429"></path></g></svg>
