<svg xmlns="http://www.w3.org/2000/svg" data-name="Layer 1" style="" viewBox="0 0 512 548.58"><g><defs><linearGradient id="1770301554926-5182231_d" x1="192.53" x2="291.48" y1="502.25" y2="502.25" gradientTransform="matrix(1 0 0 -1 0 550.58)" gradientUnits="userSpaceOnUse"><stop offset="0" stop-color="#473834"></stop><stop offset=".06" stop-color="#4b3b36"></stop><stop offset=".67" stop-color="#6d564d"></stop><stop offset="1" stop-color="#7a6056"></stop></linearGradient><linearGradient id="1770301554926-5182231_e" x1="193.13" x2="315.23" y1="490.75" y2="490.75" gradientTransform="matrix(1 0 0 -1 0 550.58)" gradientUnits="userSpaceOnUse"><stop offset="0" stop-color="#7a6056"></stop><stop offset=".31" stop-color="#775d54"></stop><stop offset=".57" stop-color="#6d554d"></stop><stop offset=".8" stop-color="#5b4842"></stop><stop offset="1" stop-color="#473834"></stop></linearGradient><linearGradient id="1770301554926-5182231_g" x1="208.08" x2="208.08" y1="461.56" y2="476.83" gradientTransform="matrix(1 0 0 -1 0 550.58)" gradientUnits="userSpaceOnUse"><stop offset="0" stop-color="#a6694a"></stop><stop offset="1" stop-color="#4f2a1e"></stop></linearGradient><radialGradient id="1770301554926-5182231_b" cx="40.54" cy="191.64" r="65.92" fx="40.54" fy="191.64" gradientTransform="matrix(1.05 0 0 -1.05 7.1 555.39)" gradientUnits="userSpaceOnUse"><stop offset="0" stop-color="#f80"></stop><stop offset=".29" stop-color="#fc8500"></stop><stop offset=".53" stop-color="#f27e00"></stop><stop offset=".75" stop-color="#e17000"></stop><stop offset=".93" stop-color="#cc6000"></stop></radialGradient><radialGradient id="1770301554926-5182231_c" cx="1342.2" cy="676.87" r="44.6" fx="1342.2" fy="676.87" gradientTransform="matrix(.3608 .46682 .79362 -.60843 -980.75 133.56)" gradientUnits="userSpaceOnUse"><stop offset="0" stop-color="#ffdada"></stop><stop offset="1" stop-color="#ffdada" stop-opacity="0"></stop></radialGradient></defs><path d="M211.66 187.08c-26.7 26-34.83 43.18-49.39 46.78-22.37-1.86-60.1 5.28-67.2 5.36-6.87.05-26.27-6-30.95-3.84-19.88 9.11-22.39 8.32-29.6 19.11-5.47 8.16 1.72 5.49 5.45 1.75 5.79-5.77 19.29-9.66 20.73-2.3-15.13 1.31-17.77 11.45-12.17 10.59 14.45-2.27 23.29-.52 30.93-7.31 3.09-2.73 16.11-3.11 44.95 2.4 25.33 4.82 41.29 6.78 50.14 6.78 14.97 0 65.05-53.5 65.05-53.5s8.59-100.02-27.93-25.81Zm-28.79 320.65c18.18-54.09 40.82-53.75 42.16-105.12 3.93-.79 7.93-1.59 11.88-2.41-3.37-23.79-13.81-36.39-29.81-46.22-14.88 5.15-22.84 14.41-23.87 16.02-6.05 9.52-2.83 57.65-29.7 128.68-2.19 5.81 28.36 12 29.34 9.06Z" class="s" fill="#f5bb51"></path><path d="M162.14 544.95h23.12c3.39 0 1.44-5.55 1.44-5.55s-21.6-13.17-90.25-6.11c0 0 15.86 24.26 65.68 11.66Z" class="y" fill="#3ab0a2"></path><path d="M184.84 516.84c3.59-6.45 2.81-13.79.58-12.61-4.29 2.25-21.75 1.31-25.33-1.14 4.29-13.91-6.22-17.75-6.67-13.49-3.93 35.99-59.56 15.75-56.95 43.68 0 0 29.81 17.16 64.91 6.3l25.33-.19c3.07-14.92-1.87-22.53-1.87-22.55" class="z" fill="#302c3b"></path><path d="M121.46 515.84c8.69 8.5 13.6 9.03 14.34 3.11 5.88 4.23 9.25.82 9.33-2.72 6.34 2.75 8.66-2.83 1.22-9.07-4.27-3.29-27.22 6.41-24.88 8.68Z" class="y" fill="#3ab0a2"></path><path d="M452.18 409.2c-51.07-4.31-55.59-24.07-100.72-14.34-1.54-3.25-3.07-6.54-4.63-9.8-20.05 7.98-28.95 15.82-34.14 31.82 7.66 11.82 17.43 24.21 19.05 24.77 9.59 3.25 51.02-13.32 118.75-5.04 5.54.68 4.47-27.18 1.68-27.41Z" class="s" fill="#f5bb51"></path><path d="M280.82 351.5s-6.73 69.98 40.5 88.9c0 0 30.46-4 32.56-54.37-28.21-14.07 6.48-57.05-23.34-96.47z" fill="#25a898"></path><path d="M353.87 386.02c-2.1 44.55-28.66 48.6-32.56 54.37 3.59 1.5 7.27 2.79 11.04 3.71 0 0 28.82-2.59 30.91-52.96-3.94-1.46-6.9-3.21-9.39-5.12" class="u" fill="#47d6c6"></path><path d="M292.2 143.16c-29.75 78.43-62.69 110.29-59.64 16.8 10.44-1.72 32.25-23.66 59.64-16.8" class="s" fill="#f5bb51"></path><path d="m334.3 289.35-93.9 7.36c-8 15.41-32.45 34.4-47.16 55.85 0 0 7.48 26.41 62.78 42.47 21.72-35.6 113.21-35.59 78.27-105.68Z" class="y" fill="#3ab0a2"></path><path d="M193.25 352.58s-4.27 3.82-8.34 10.62c0 0 20.48 34.14 67.5 47.09 1.03-8.34 3.62-15.25 3.62-15.25-32.3-11.11-57.03-32.64-62.78-42.46" class="u" fill="#47d6c6"></path><path d="m327.98 289.95-13.32-1.73c22.18 50.86-64.82 45.73-80.28 101.52 0 0 8.18 5.98 13.77 7.61 13.62-57.83 109.38-47.63 79.84-107.4Z" class="u" fill="#47d6c6"></path><path d="M315.37 143.26c-4.36-7.87-27.25-1.44-29-.27-17.5 11.86-34.4 58.5-34.4 58.5-2.14.39-22.48-10.79-8.95-43.71 3.26-7.93-13.16 2.66-13.16 2.66-15.66 64.23 4.03 90.75 10.62 121.97 72.52 22.79 94.32-6.37 94.32-6.37s18.42-64.66-19.44-132.77Z" class="y" fill="#3ab0a2"></path><path d="M285.53 143.59c-18.36 10.53-34.83 55.27-34.83 55.27-2.16.41-14.67-15.43-6.14-44.41-2.79-1.2-4.12.64-4.12.64-13.25 46.54 12.03 53.96 12.03 53.96 9.99-20.4 22.1-56.34 33.06-65.46M240.5 282.4c.13 4.43.13 9.14-.09 14.31 72.54 22.78 93.9-7.36 93.9-7.36s.39-4.95.52-13.33c-14.56 3.46-37.93 20.87-94.33 6.38m96.08-89.28c11.43 53.04-23.59 60.89-42.66 10.12-26.82-71.43 27.07-82.38 42.66-10.12" class="u" fill="#47d6c6"></path><path d="M333.04 187.77c9.05 42.02-18.57 47.5-34.61 7.61-23.68-58.99 21.64-67.82 34.61-7.61" class="s" fill="#f5bb51"></path><ellipse cx="60.88" cy="368.3" rx="60.88" ry="60.63" fill="url(#1770301554926-5182231_b)"></ellipse><path d="M91.04 382.16c-22.43-7.4-41.75-13.77-49.39-29.09-.54-1.03-.95-2.09-1.31-3.16 29.15-11.15 63.55-13.73 78.14-1.29-.52-1.48-1.09-2.93-1.68-4.34-7.07-4.75-19.05-7.48-32.56-6.95-14.07.58-30.14 4.03-44.66 9.5-1.07-6.35.54-13.19 4.72-19.24 7.2-10.41 19.97-16.5 35.11-17.07-1.87-.59-3.8-1.11-5.73-1.52-15.34 1.41-25.68 7.72-31.96 16.8-4.8 6.93-6.54 14.86-5.11 22.18-2.5 1-4.93 2.06-7.29 3.16-1.75.84-3.43 1.68-5.06 2.55-1.66-6.67-2.53-13.11-2.43-19.02.07-5.02.9-10.96 3.75-15.81-1.35.96-2.7 2-3.97 3.09-5.15 11.69-2.08 25.87-.18 33.27-3.18 1.8-6.07 3.66-8.62 5.57-1.66-5.82-4.11-11.34-7.98-16.23-.5 1.14-.96 2.3-1.35 3.48 3.16 4.5 5.21 9.54 6.61 14.86-4.41 3.64-7.72 7.4-9.8 11.15.13 1.54.34 3.04.59 4.53 1.8-3.54 4.7-7.7 10-12.29 1.29 6.11 1.86 12.52 2.45 18.84.86 9.44 2.02 21.86 6.67 28.05a65 65 0 0 0 5.19 4.21c-6.48-7.95-7.53-19.64-8.71-32.56-.64-6.99-1.27-14.05-2.84-20.78 2.55-1.95 5.45-3.86 8.68-5.71 2.61 9.09 6.54 18.62 11.56 27.73 10.12 18.36 23.59 37 43.84 40.48 1.73-.5 3.45-1.07 5.11-1.72-3.86-.05-7.91-1.09-12.12-3.16-18.77-9.18-38.07-38.14-45.6-64.9 1.78-.95 3.66-1.89 5.6-2.81 2.19-1.03 4.44-2.02 6.71-2.94.39 1.14.86 2.29 1.41 3.39 8.21 16.5 28.14 23.07 51.24 30.69 8.43 2.79 17.09 5.64 25.82 9.16.48-.95.91-1.91 1.31-2.89-8.87-3.53-17.6-6.43-26.12-9.24Z" class="r" fill="#1a1626"></path><path d="M56.6 366.09C37 381.11 13.92 384 5.07 372.54c-8.85-11.47-.18-32.95 19.45-47.96 19.59-15.04 42.64-17.91 51.52-6.45 8.85 11.47.14 32.92-19.44 47.96" style="isolation:isolate" fill="url(#1770301554926-5182231_c)" opacity=".5"></path><path d="M298.06 149.3c-19.62 22.61 50.98 56.47 76.2 69.23-13.27 16.5-42.12 66.11-45.43 64.58-9.66-4.34-13.88-3.54-26.38 2.79-3.48 1.73.62 7.27.62 7.27-6.88 6.05 1.03 6.88 2.66 11.77 1.5 4.53 5.64 3.41 8.11 7.84 5.55 9.89 22.29-1.33 30.39-16.21 5.81-10.66 51.11-42.49 70.09-85.75 4-9.11-95.27-79.7-116.26-61.51Z" class="s" fill="#f5bb51"></path><path d="m488.77 410.12-10.81-20.48c-1.57-3-5.55 1.33-5.55 1.33s-1.55 25.29 36.76 82.77c0 0 14.03-25.4-20.41-63.62Z" class="y" fill="#3ab0a2"></path><path d="M453.36 403.16c-7.36-.16-13.47 3.97-11.39 5.38 4 2.77 11.32 18.68 10.83 22.99-14.29 2.7-12.75 13.79-8.77 12.2 33.59-13.34 41.73 45.36 65.16 30.02 0 0 1.23-34.41-24.77-60.42l-12-22.34c-14.65 4.26-19.04 12.19-19.05 12.19Z" class="z" fill="#302c3b"></path><path d="M482.1 459.73c3.43-11.66 1.63-16.27-3.97-14.14 1-7.18-3.61-8.58-6.75-6.97-.54-6.91-6.54-6.35-8.58 3.15-.91 5.32 18.39 21.11 19.29 17.97Z" class="y" fill="#3ab0a2"></path><path d="M226.84 149.37c11.62-5.53 20.11 11.26 24.07 29.06 13.41-18.19 22.04-31.77 41.55-37.45-2.49-9.52-1.85-21.34-1.85-21.34-7.76-4.43-33.33-64.64-63.77 29.73" class="s" fill="#f5bb51"></path><path d="M236.34 10.66c-35.33 5.64-48.3 30.88-42.61 60.63 1.29 6.71-3.04 18.23-11.59 25.61-3.11 2.7-3.41 6.25-1.87 8.62 2.96 4.68 9.53 4.72 12.27 6.46 6.12 3.91 0 8.21 4.59 12.8 2.09 2.1 8.09-.68 1.76 10.41 7.05 5.16-4.72 17.57 13.43 19.48 9.52 1 49.77-21.7 54.81-29.53 5.27-8.23 4.02-23.43 4.02-23.43 27.12-7.82 36.71-31.5 30.85-56.26C293.84 10.8 259.24 7 236.35 10.66Z" class="q" fill="#ffc940"></path><path d="M197.13 124.78c3.32 2.04 1.87 5.23 1.87 5.23-1.59 0-1.99 5.28.37 5.28 8.28 0 15.87-7.1 18.37-11.41-12.96-.64-27.18-6.5-20.6.9Z" class="x" fill="#f0a429"></path><path d="M197.13 124.78s1.28 4.53 1.87 5.23c2.6 0 11.04-1.86 16.24-5.28l-18.1.05Z" class="t" fill="#fff"></path><path d="M289.61 27.02c-25.11-37.81-91.77-14.93-96.48-5.69-1.69 3.34.42 11.57 3.17 16.88 10.59 0 31.59-8.86 45.71-2.21 20.91 9.84-2.83 52.36 16.47 54.66 3.04.36 41.86-44.85 31.12-63.64Z" fill="url(#1770301554926-5182231_d)"></path><path d="M306.47 26.33C299.26 14.17 284.75-.07 251.75 0c-29.79.07-53.91 12.09-58.61 21.34 10.93 0 44.17-13.94 61.52-.96 27.02 20.18 3.47 47.61 9.84 64.86 9.97 26.98 26.1 34.41 26.1 34.41 20.75-14.99 34.48-61.87 15.87-93.32" fill="url(#1770301554926-5182231_e)"></path><path d="M180.34 105.56c2.45 6.5 18.09 7.91 23.1 0-8.25 5.97-24.52-3.79-23.1 0" class="x" fill="#f0a429"></path><path d="M271.27 68.8c-13.17 2.73-17.29 32.52-7.41 38.99 1.38.91 8.59 1.72 12.41-5.59 2.12-4.03 9.7-8.15 10.76-16.05 1.35-10.17-2.64-20.06-15.75-17.34Z" class="q" fill="#ffc940"></path><path id="1770301554926-5182231_f" d="M271.96 74.31c-3.34 1.14-6.5 5.02-7.46 10.91 11.88-3.22 11.34 10.12.79 11.71.34 1.29.73 2.62 1.26 3.99 4.21-5.36 9.76-4.12 13.52-11.8 3.41-6.94.19-17.62-8.11-14.8Z" class="x" data-name="Path" fill="#f0a429"></path><path d="M222.69 80.19c.18 1.89-5.85 8.77-13.52 9.41-4.36.37-5.92-3.02-6.91-6.67-.92-14.47 16.13-9.33 20.43-2.74" class="t" fill="#fff"></path><path id="1770301554926-5182231_h" d="M201.97 81.11c0 10.55 12.23 10.55 12.23 0 0-9.81-12.23-9.81-12.23 0" data-name="Path" fill="url(#1770301554926-5182231_g)"></path><path id="1770301554926-5182231_i" d="M203.25 80.64c0 5.27 6.09 5.27 6.09 0 0-4.91-6.09-4.91-6.09 0" class="r" data-name="Path" fill="#1a1626"></path><path id="1770301554926-5182231_j" d="M207.02 78.49c0 2.19 3.56 2.19 3.56 0 0-2.07-3.56-2.07-3.56 0" data-name="Path" fill="#ab968c"></path><path d="M222.69 80.19c-3.28-6.59-19.66-11.37-20.11-2.48 2.3-5.99 14.45-2.72 20.11 2.48" class="x" fill="#f0a429"></path><path id="1770301554926-5182231_k" d="M225.83 65.19c-7.52-4.68-21.91-4.91-27.25-1.65-1.16.62-.4 5.07.57 4.64 7.48-3.47 19.51-3.55 26.5.31.93.48 1.32-2.64.18-3.31Z" data-name="Path" fill="#966f42"></path></g></svg>
