<svg xmlns="http://www.w3.org/2000/svg" data-name="Layer 1" style="" viewBox="0 0 512 590.79"><g><defs><radialGradient id="1770301554936-3099479_b" cx="264.1" cy="324.21" r="11.54" fx="264.1" fy="324.21" gradientTransform="matrix(9.92 0 0 -9.85 -2243.96 3223.62)" gradientUnits="userSpaceOnUse"><stop offset="0" stop-color="#9be022"></stop><stop offset=".36" stop-color="#99de22"></stop><stop offset=".58" stop-color="#93d522"></stop><stop offset=".75" stop-color="#87c722"></stop><stop offset=".9" stop-color="#78b423"></stop><stop offset="1" stop-color="#69a123"></stop></radialGradient><radialGradient id="1770301554936-3099479_c" cx="264.1" cy="324.21" r="11.54" fx="264.1" fy="324.21" gradientTransform="matrix(9.92 0 0 -9.85 -2243.96 3223.62)" gradientUnits="userSpaceOnUse"><stop offset="0" stop-color="#ff000e"></stop><stop offset=".22" stop-color="#f8000c"></stop><stop offset=".55" stop-color="#e40008"></stop><stop offset=".94" stop-color="#c40001"></stop><stop offset="1" stop-color="#bf0000"></stop></radialGradient><radialGradient id="1770301554936-3099479_d" cx="264.1" cy="324.21" r="11.54" fx="264.1" fy="324.21" gradientTransform="matrix(9.92 0 0 -9.85 -2243.96 3223.62)" gradientUnits="userSpaceOnUse"><stop offset="0" stop-color="#ff000e"></stop><stop offset=".22" stop-color="#f8000c"></stop><stop offset=".55" stop-color="#e40008"></stop><stop offset=".94" stop-color="#c40001"></stop><stop offset="1" stop-color="#bf0000"></stop></radialGradient><radialGradient id="1770301554936-3099479_e" cx="264.1" cy="324.21" r="11.55" fx="264.1" fy="324.21" gradientTransform="matrix(9.92 0 0 -9.85 -2243.96 3223.62)" gradientUnits="userSpaceOnUse"><stop offset="0" stop-color="#ff000e"></stop><stop offset=".22" stop-color="#f8000c"></stop><stop offset=".55" stop-color="#e40008"></stop><stop offset=".94" stop-color="#c40001"></stop><stop offset="1" stop-color="#bf0000"></stop></radialGradient><linearGradient id="1770301554936-3099479_f" x1="168.74" x2="280.06" y1="515.85" y2="515.85" gradientTransform="matrix(1 0 0 -1 0 592.79)" gradientUnits="userSpaceOnUse"><stop offset="0" stop-color="#473834"></stop><stop offset=".06" stop-color="#4b3b36"></stop><stop offset=".67" stop-color="#6d564d"></stop><stop offset="1" stop-color="#7a6056"></stop></linearGradient><linearGradient id="1770301554936-3099479_g" x1="169.42" x2="306.77" y1="502.91" y2="502.91" gradientTransform="matrix(1 0 0 -1 0 592.79)" gradientUnits="userSpaceOnUse"><stop offset="0" stop-color="#7a6056"></stop><stop offset=".31" stop-color="#775d54"></stop><stop offset=".57" stop-color="#6d554d"></stop><stop offset=".8" stop-color="#5b4842"></stop><stop offset="1" stop-color="#473834"></stop></linearGradient><linearGradient id="1770301554936-3099479_i" x1="186.23" x2="186.23" y1="470.06" y2="487.24" gradientTransform="matrix(1 0 0 -1 0 592.79)" gradientUnits="userSpaceOnUse"><stop offset="0" stop-color="#a6694a"></stop><stop offset="1" stop-color="#4f2a1e"></stop></linearGradient></defs><path d="M184.09 216.48s-31.15 19.08-46.14 22.77c-22.99-1.9-66.39 2.87-73.67 2.92-7.06.08-27-6.09-31.82-3.9-20.41 9.29-23.01 8.5-30.43 19.49-5.61 8.33 1.77 5.59 5.59 1.79 5.95-5.89 19.84-9.87 21.31-2.34-15.56 1.31-18.26 11.68-12.51 10.79 14.86-2.32 23.94-.54 31.78-7.44 3.19-2.79 22.48-.52 51.29 8.44 22.77 7.08 42.93 5.55 51.81 3.5 24.62-5.75 44.1-17.65 44.1-17.65l-11.31-38.36Z" class="w" fill="#f5bb51"></path><path d="M510.33 590.59s8.41-35.63-12.5-66.44l-8.27-24.42c-3.73-.04-4.14 1.5-4.14 1.5s-6.08 23.93 21.06 88.33c0 0 .66 1.83 3.85 1.03" class="ac" fill="#3ab0a2"></path><path d="M462.02 544.78c15.62 3.27 20.9 50.62 44.47 44.77 0 0 8.13-33.11-12.79-63.9l-8.27-24.42c-40.35 3.76-32.68 18.3-23.4 43.55Z" class="ad" fill="#302c3b"></path><path d="M480.52 569.21c5.67-10.94 5.46-17.27-.52-16.21 2.38-6.94-1.94-9.22-5.39-8.21.81-6.96-5.31-7.56-9.18 1.5-1.94 5.11 13.56 25.86 15.08 22.92Zm-70.81.79s-3.47-36.44-33.17-59.02l-15.68-20.54c-3.55 1.13-3.47 2.73-3.47 2.73s1.92 24.62 48.31 77.08c0 0 1.22 1.5 4.01-.25" class="ac" fill="#3ab0a2"></path><path d="M348.65 541.13c15.82-1.83 36.64 42.09 57.06 29.12 0 0-2.9-33.96-32.62-56.54l-15.7-20.54c-37.01 16.34-25.67 26.98-8.74 47.96" class="ad" fill="#302c3b"></path><path d="M374.62 559.15c1.85-12.15-.38-18.08-5.73-15.19.02-7.33-4.79-8.11-7.73-6.08-1.46-6.84-7.48-5.48-8.23 4.31-.2 5.47 21.17 20.24 21.69 16.96" class="ac" fill="#3ab0a2"></path><path d="M343.02 507.03c-47.4-4.1-57.14-41.24-104.58-30.67 2.94-19.31 6.75-32.35 6.75-32.35s-47.19 7.5-66.52 8.01c-4.25 35.56 15.94 61.7 23 65.33 10.17 5.27 60.55-.56 134.86 20.12 6.08 1.66 9.61-30.17 6.48-30.43Z" class="w" fill="#f5bb51"></path><path d="M346.27 507.03c-2.08-2.25-12.02-2.62-12.02-2.62s7.73 19.19 2.28 33.03c3.53.91 7.1 1.81 10.71 2.83 6.07 1.7 7.08-24.45-.97-33.24" class="ae" fill="#f2f5f7"></path><path d="M240.25 469.64c1.23 1.44 3.96 4.12 5.57 5.1 4.62 44.51-14.04 48.14-14.04 48.14-36.32 11.36-49.41-24.58-49.41-24.58 11.27-14.78 43.35-26.79 57.88-28.66" class="ac" fill="#3ab0a2"></path><path d="M460.45 510.28c-54.92-18.4-51.21-47.58-103.37-48.93-3.85-19.15-11.12-32.93-17.33-47.15-18.96 4.88-36.21 32.44-54.19 39.44 13.6 25.46 29.25 47.72 35.96 51.96 9.65 6.15 57.6 7.16 129.74 34.38 5.89 2.22 12.17-28.7 9.2-29.71Z" class="w" fill="#f5bb51"></path><path d="M463.46 507.36c-.73-.96-11.16 0-11.16 0 4.36 7.58 4.36 28.39-1.05 32.63 3.43 1.21 6.84 2.52 10.41 3.77 4.26 1.51 9.5-26.59 1.8-36.4" class="ae" fill="#f2f5f7"></path><path d="M355.43 449.57c1.96 8.39 5.59 9.6 14.65 11.98-3.89 43.02-22.7 51.43-22.7 51.43-18.14 0-39.5-10.52-44.13-27.22 3.17-12.43 24.62-20.32 52.18-36.2Z" class="ac" fill="#3ab0a2"></path><path d="M314.07 350.17H192.71c-6.98 28.13-27.42 65.39-18.28 127.18 13.96 6.66 73.85-24.88 73.85-24.88 2.22-23.89 4.68-30.21 12.89-34.34 2.36-1.19 13.73 30.69 27.42 45.88l65.98-39.16-40.5-74.67Z" class="ad" fill="#302c3b"></path><path d="M348.1 428.68c-4.8 3.61-13.15 7.81-13.15 7.81l-47.19-86.33h15.11z" class="y" fill="#47d6c6"></path><path d="m364.17 154.22 27.9-54.29 30.1 12.77s-20.38 55.27-30.97 71.69c-8.09 12.54-48.27 28.12-48.27 28.12l-14.16-41.32 35.39-16.97Z" class="w" fill="#f5bb51"></path><path d="M455.18 9.09c33.03 18.73 44.35 60.17 25.29 92.61-19.08 32.44-61.27 43.52-94.27 24.79-33-18.69-44.35-60.13-25.27-92.58 19.05-32.46 61.26-43.54 94.25-24.83Z" fill="url(#1770301554936-3099479_b)"></path><path d="M453.1 8.04c-43.06 48.85-110.12 55.19-35.56-7.5.18-.16.34-.29.5-.42 11.85-.46 23.94 2.1 35.05 7.93Z" fill="url(#1770301554936-3099479_c)"></path><path d="M445.52 131.02c-34.3-89.38 13.96-109.74 25.36-16.75-7.23 7.5-15.9 13.17-25.36 16.75" fill="url(#1770301554936-3099479_d)"></path><path d="M352.02 61.59c78.75 18.28 77.33 60.17 5.21 32.67-4.42-10.26-6.26-21.47-5.21-32.67" fill="url(#1770301554936-3099479_e)"></path><path d="M349.58 210.77c-11.75-7.87-17.6-42.88-17.6-42.88-69.92 21.19-116.19 21.19-166.81 52.16l23.44 41.87c2.92-1.48 5.87-3.09 8.77-4.75-7.87 44.04-8.05 99.79-8.05 99.79l126.96-5.95s-22.17-56.27-8.64-103.52c3.42-11.89 41.92-36.72 41.92-36.72Z" class="ac" fill="#3ab0a2"></path><path d="M296.09 177.64c-9.73.93-14.95 3.53-14.95 3.53-15.94 81.03-2.4 171.58-2.4 171.58h16.16s-14.09-94.06 1.19-175.12Z" class="y" fill="#47d6c6"></path><path d="M207.34 190.62c13.08-6.23 22.62 12.67 27.08 32.67 15.07-20.46 42.16-29.38 46.74-42.11-2.79-10.71-2.08-24.01-2.08-24.01-8.73-4.97-37.48-72.72-71.74 33.45" class="w" fill="#f5bb51"></path><path d="M218.01 34.57c-39.73 6.35-54.33 34.73-47.92 68.2 1.44 7.56-3.42 20.5-13.03 28.81-3.49 3.02-3.84 7.04-2.13 9.71 3.35 5.25 10.73 5.29 13.8 7.27 6.88 4.38 0 9.24 5.17 14.41 2.34 2.36 9.1-.77 1.97 11.71 7.94 5.81-5.3 19.75 15.1 21.91 10.71 1.13 56.01-24.41 61.67-33.21 5.94-9.27 4.53-26.37 4.53-26.37 30.5-8.79 41.3-35.43 34.72-63.31-9.19-38.95-48.12-43.23-73.89-39.11Z" class="u" fill="#ffc940"></path><path d="M173.92 162.96c3.73 2.28 2.1 5.89 2.1 5.89-1.79 0-2.25 5.95.41 5.95 9.31 0 17.85-8.01 20.66-12.85-14.58-.71-30.57-7.29-23.17 1.01" class="ab" fill="#f0a429"></path><path d="M173.92 162.96s1.43 5.1 2.1 5.89c2.92 0 12.43-2.1 18.26-5.95z" class="x" fill="#fff"></path><path d="M277.96 52.96c-28.25-42.52-103.24-16.79-108.54-6.38-1.89 3.75.47 13.02 3.55 18.98 11.92 0 35.55-9.96 51.44-2.48 23.53 11.06-3.18 58.88 18.53 61.48 3.4.42 47.08-50.42 35.01-71.6Z" fill="url(#1770301554936-3099479_f)"></path><path d="M296.9 52.21c-8.07-13.68-24.42-29.74-61.54-29.64-33.52.06-60.64 13.6-65.94 24.01 12.31 0 49.69-15.7 69.21-1.09 30.41 22.72 3.9 53.57 11.08 72.98 11.21 30.35 29.37 38.72 29.37 38.72 23.33-16.87 38.76-69.6 17.82-104.97Z" fill="url(#1770301554936-3099479_g)"></path><path d="M155.03 141.33c2.75 7.33 20.35 8.9 25.98 0-9.28 6.72-27.59-4.25-25.98 0" class="ab" fill="#f0a429"></path><path d="M257.32 99.96c-14.83 3.08-19.46 36.6-8.34 43.87 1.55 1.02 9.67 1.92 13.97-6.29 2.37-4.54 10.91-9.16 12.1-18.06 1.51-11.42-2.97-22.56-17.73-19.52" class="u" fill="#ffc940"></path><path id="1770301554936-3099479_h" d="M258.11 106.2c-3.77 1.29-7.33 5.63-8.41 12.27 13.36-3.61 12.76 11.38.89 13.17.38 1.46.83 2.94 1.42 4.48 4.74-6.04 10.98-4.64 15.22-13.29 3.83-7.79.24-19.81-9.12-16.63" class="ab" data-name="Path" fill="#f0a429"></path><path d="M202.66 112.79c.21 2.14-6.57 9.87-15.19 10.57-4.91.42-6.68-3.39-7.78-7.48-1.05-16.31 18.13-10.5 22.97-3.09" class="x" fill="#fff"></path><path id="1770301554936-3099479_j" d="M179.36 113.83c0 11.86 13.75 11.86 13.75 0 0-11.04-13.75-11.04-13.75 0" data-name="Path" fill="url(#1770301554936-3099479_i)"></path><path id="1770301554936-3099479_k" d="M180.8 113.29c0 5.93 6.85 5.93 6.85 0 0-5.51-6.85-5.51-6.85 0" data-name="Path" fill="#1a1626"></path><path id="1770301554936-3099479_l" d="M185.04 110.88c0 2.48 3.99 2.48 3.99 0 0-2.32-3.99-2.32-3.99 0" data-name="Path" fill="#ab968c"></path><path d="M202.66 112.79c-3.69-7.4-22.11-12.79-22.62-2.79 2.6-6.73 16.28-3.04 22.62 2.79" class="ab" fill="#f0a429"></path><path id="1770301554936-3099479_m" d="M206.21 95.93c-8.46-5.27-24.64-5.54-30.65-1.86-1.31.71-.46 5.71.63 5.23 8.41-3.9 21.95-4 29.79.34 1.07.53 1.5-2.98.23-3.71" data-name="Path" fill="#966f42"></path></g></svg>
