<svg xmlns="http://www.w3.org/2000/svg" data-name="Layer 1" style="" viewBox="0 0 512 512"><g><defs><linearGradient id="1770301554932-174794_m" x1="-615.06" x2="-615.06" y1="359.38" y2="352.45" gradientTransform="matrix(6.57 0 0 6.57 4235.16 -2127.75)" gradientUnits="userSpaceOnUse"><stop offset="0" stop-color="#a6694a"></stop><stop offset="1" stop-color="#4f2a1e"></stop></linearGradient><linearGradient id="1770301554932-174794_s" x1="-599.01" x2="-599.01" y1="359.38" y2="352.45" gradientTransform="matrix(6.57 0 0 6.57 4252.89 -2127.75)" gradientUnits="userSpaceOnUse"><stop offset="0" stop-color="#a6694a"></stop><stop offset="1" stop-color="#4f2a1e"></stop></linearGradient><linearGradient id="1770301554932-174794_x" x1="256" x2="256" y1="274.19" y2="469.67" gradientTransform="matrix(1 0 0 -1 0 510)" gradientUnits="userSpaceOnUse"><stop offset=".5" stop-color="#473834"></stop><stop offset=".64" stop-color="#503f3a"></stop><stop offset=".86" stop-color="#68524a"></stop><stop offset="1" stop-color="#7a6056"></stop></linearGradient><linearGradient id="1770301554932-174794_y" x1="210.53" x2="177.77" y1="164.2" y2="213.74" gradientTransform="matrix(1 0 0 -1 0 510)" gradientUnits="userSpaceOnUse"><stop offset="0" stop-color="#2b998d"></stop><stop offset="1" stop-color="#3ab0a2"></stop></linearGradient><linearGradient id="1770301554932-174794_z" x1="294" x2="352.28" y1="143.26" y2="89.55" gradientTransform="matrix(1 0 0 -1 0 510)" gradientUnits="userSpaceOnUse"><stop offset="0" stop-color="#2b998d"></stop><stop offset="1" stop-color="#3ab0a2"></stop></linearGradient></defs><path id="1770301554932-174794_b" d="M406.31 177.32c-23.27 2.81-40.07 80.59-25.43 101.13 2.06 2.86 14.03 7.44 22.93-10.68 4.93-10.04 19.13-18.41 23.53-39.1 5.64-26.53 2.13-54.15-21.04-51.35Z" class="af" data-name="Path" fill="#ffc940"></path><path id="1770301554932-174794_c" d="M105.69 177.32c23.27 2.81 40.07 80.59 25.43 101.13-2.06 2.86-14.03 7.44-22.95-10.68-4.91-10.04-19.13-18.41-23.52-39.1-5.66-26.53-2.13-54.15 21.04-51.35" class="af" data-name="Path" fill="#ffc940"></path><path id="1770301554932-174794_d" d="M405.69 192.2c-6.07 1.91-12.7 11.16-16.28 26.5 21.21-4.55 15.91 30.73-2.53 31.4.18 3.56.41 7.2.86 11.04 8.88-12.87 17.91-7.72 26.86-26.87 8.05-17.27 6.13-46.75-8.91-42.06Z" class="an" data-name="Path" fill="#f0a429"></path><path id="1770301554932-174794_e" d="M122.59 218.67c-3.61-15.32-10.21-24.56-16.28-26.47-15.02-4.7-16.96 24.79-8.9 42.06 8.95 19.16 17.98 14 26.87 26.87.43-3.84.68-7.5.82-11.05-18.25-.85-23.48-35.71-2.51-31.41" class="an" data-name="Path" fill="#f0a429"></path><path id="1770301554932-174794_f" d="M255.99 27.74c-100.82 0-149.4 76.14-143.32 182.02 1.22 21.3 14.46 90.79 26.94 115.71 12.78 25.5 55.53 64.82 81.72 72.96 16.56 5.13 52.78 5.13 69.32 0 26.19-8.15 68.97-47.46 81.73-72.96 12.52-24.93 25.73-94.39 26.93-115.71 6.12-105.88-42.46-182.02-143.32-182.02" class="af" data-name="Path" fill="#ffc940"></path><path id="1770301554932-174794_g" d="M365.54 169.55c-23.05-12.21-67.18-12.8-83.62-4.29-3.54 1.63-1.2 13.17 1.76 12.09 22.89-9.05 59.86-9.25 81.31.77 2.85 1.31 4.05-6.88.55-8.57" class="am" data-name="Path" fill="#966f42"></path><path id="1770301554932-174794_h" d="M146.46 169.55c23.05-12.21 67.16-12.8 83.62-4.29 3.52 1.63 1.2 13.17-1.76 12.09-22.95-9.05-59.86-9.25-81.33.77-2.83 1.31-4.01-6.88-.53-8.57" class="am" data-name="Path" fill="#966f42"></path><path id="1770301554932-174794_i" d="M283.21 275.28c-2.87-2-9.63 1.09-27.22 1.09s-24.32-3.09-27.2-1.09c-3.45 2.43 2.04 13.36 27.2 13.36s30.67-10.93 27.22-13.36" class="an" data-name="Path" fill="#f0a429"></path><path id="1770301554932-174794_j" d="M255.99 316.77c-22.67-6.67-56.27 3.16-56.27 3.16 12.78 13.91 22.16 31.95 56.27 31.95 39.09 0 45.73-20.48 56.28-31.95 0 0-33.61-9.88-56.28-3.16" class="an" data-name="Path" fill="#f0a429"></path><path id="1770301554932-174794_k" d="M208.15 322.28c23.79 19.89 71.79 20.03 95.7 0-25.34 1.07-70.18 1.09-95.7 0" class="aj" data-name="Path" fill="#fff"></path><path id="1770301554932-174794_l" d="M233.56 211.06c.86 6.67-3.68 14.57-16.21 20.5-7.96 3.77-24.56 8.19-46.32-.98-9.75-4.11-19.26-16.9-18.41-23.98 11.79-22.22 69.89-25.46 80.94 4.46" class="aj" data-name="Path" fill="#fff"></path><circle id="1770301554932-174794_n" cx="194.15" cy="210.63" r="22.78" data-name="Oval" fill="url(#1770301554932-174794_m)"></circle><path id="1770301554932-174794_o" d="M182.74 210.2c0 15.77 22.82 15.77 22.82 0 0-14.62-22.82-14.62-22.82 0" class="ag" data-name="Path" fill="#1a1626"></path><path id="1770301554932-174794_p" d="M179.27 203.81c0 6.61 9.55 6.61 9.55 0 0-6.11-9.55-6.11-9.55 0" class="al" data-name="Path" fill="#ab968c"></path><path id="1770301554932-174794_q" d="M233.67 211.94c-9.27-29.71-72.47-25.33-81.05-5.34 3.17-25.59 73.15-32.36 81.05 5.34" class="an" data-name="Path" fill="#f0a429"></path><path id="1770301554932-174794_r" d="M278.43 211.06c-.86 6.67 3.66 14.57 16.21 20.5 7.96 3.77 24.54 8.19 46.3-.98 9.78-4.11 19.28-16.9 18.43-23.98-11.79-22.22-69.91-25.46-80.94 4.46" class="aj" data-name="Path" fill="#fff"></path><circle id="1770301554932-174794_t" cx="317.33" cy="210.63" r="22.78" data-name="Oval" fill="url(#1770301554932-174794_s)"></circle><path id="1770301554932-174794_u" d="M305.94 210.2c0 15.77 22.82 15.77 22.82 0 0-14.62-22.82-14.62-22.82 0" class="ag" data-name="Path" fill="#1a1626"></path><path id="1770301554932-174794_v" d="M302.45 203.81c0 6.61 9.57 6.61 9.57 0 0-6.11-9.57-6.11-9.57 0" class="al" data-name="Path" fill="#ab968c"></path><path id="1770301554932-174794_w" d="M278.32 211.94c9.25-29.7 72.41-25.44 81.05-5.34-3.21-25.59-73.15-32.36-81.05 5.34" class="an" data-name="Path" fill="#f0a429"></path><path d="M384.78 52.96C362.7 23.15 322.31 0 255.99 0S149.31 23.15 127.24 52.96c-31.25 42.2 288.77 42.2 257.54 0" fill="#7a6056"></path><path d="M384.78 52.96c-22.07-29.82-62.46 2.51-128.79 2.51s-106.68-32.33-128.75-2.51c-31.25 42.2-20.64 182.85-6.73 182.85 2.19 0 2.51-49.2 6.73-83.24 3.41-27.69 10-54.57 17.59-58.96 23.14-13.41 67.77 5.77 111.16 5.77s88.04-19.18 111.2-5.77c7.57 4.39 14.14 31.27 17.59 58.96 4.2 34.04 4.52 83.24 6.71 83.24 13.92 0 24.52-140.65-6.71-182.85" fill="url(#1770301554932-174794_x)"></path><path d="M443.67 397.15c-60.57-55.81-323.45-61.39-377.41.1C20.9 448.93 81.85 512 81.85 512h346.27s65.66-68.68 15.55-114.85" fill="#2b998d"></path><path d="M16.02 176.5c7.91 5.88 133.43 83.19 133.43 83.19l-14.56 49.32c-41.44-23.23-69.53-47.23-129.8-111.86-11.16-11.96-2.4-30.51 10.93-20.64Zm479.69.95c-8.02 5.86-135.63 83.19-135.63 83.19l14.82 49.31c42.1-23.23 70.65-47.25 131.93-111.86 11.32-11.96 2.42-30.51-11.13-20.64Z" fill="#f5bb51"></path><path d="M340.76 352.52c19.8-16.86 54.46-48.54 54.46-48.54l-25.65-57.12s-47.7 26.87-115.71 57.98c-68.02-31.11-115.74-57.98-115.74-57.98l-25.66 57.12s34.68 31.68 54.48 48.54C66.27 401.56-.52 453.64 58.85 503.56c36.38 30.59 105.07-27.58 195-85.45 89.91 57.87 158.65 116.02 195 85.45 59.37-49.91-7.41-102-108.09-151.03Z" fill="#3ab0a2"></path><path d="M253.87 304.85c-68.02-31.11-115.74-57.99-115.74-57.99l-25.66 57.13s34.68 31.68 54.48 48.54z" fill="url(#1770301554932-174794_y)"></path><path d="m340.76 352.53-86.91 65.59c89.91 57.87 158.65 116.01 195 85.45 59.37-49.92-7.41-102.01-108.09-151.04" fill="url(#1770301554932-174794_z)"></path></g></svg>
