<svg xmlns="http://www.w3.org/2000/svg" data-name="Layer 1" style="" viewBox="0 0 512 512.02"><g><defs><linearGradient id="1770301554969-1268224_b" x1="256" x2="256" y1="2" y2="508.18" gradientTransform="matrix(1 0 0 -1 0 514.02)" gradientUnits="userSpaceOnUse"><stop offset="0" stop-color="#0174a8"></stop><stop offset="1" stop-color="#019be0"></stop></linearGradient><linearGradient id="1770301554969-1268224_c" x1="64.55" x2="64.55" y1="285.96" y2="474.99" gradientTransform="matrix(1 0 0 -1 0 514.02)" gradientUnits="userSpaceOnUse"><stop offset="0" stop-color="#0174a8"></stop><stop offset=".69" stop-color="#0174a8" stop-opacity="0"></stop></linearGradient><linearGradient id="1770301554969-1268224_d" x1="447.45" x2="447.45" y1="285.96" y2="474.99" gradientTransform="matrix(1 0 0 -1 0 514.02)" gradientUnits="userSpaceOnUse"><stop offset="0" stop-color="#0174a8"></stop><stop offset=".69" stop-color="#0174a8" stop-opacity="0"></stop></linearGradient></defs><path d="M422.91 39.02c-8.18-11.03-46.42-20.9-80.76-32.09C320.9-.01 256 28.05 256 28.05c0 .01-64.92-28.05-86.15-21.11-34.33 11.19-72.59 21.05-80.76 32.09-30.66 41.42-88 129.31-88 129.31 26.53 36.3 103.52 59.72 103.52 59.72l23.4-33.61-11.43 298.35c44.68 25.63 234.16 25.63 278.85 0L384 194.45l23.38 33.61s77-23.42 103.54-59.72c0 0-57.36-87.88-88-129.31Z" fill="url(#1770301554969-1268224_b)"></path><path d="M89.09 39.02c-30.66 41.43-88 129.32-88 129.32 26.53 36.3 103.52 59.72 103.52 59.72l23.4-33.61s-8.53-85.33-38.92-155.42Z" fill="url(#1770301554969-1268224_c)"></path><path d="M422.91 39.02c-30.39 70.08-38.92 155.42-38.92 155.42l23.38 33.61s77-23.42 103.54-59.72c0 0-57.36-87.88-88-129.31" fill="url(#1770301554969-1268224_d)"></path><path d="M256 8.97s-31.8.38-78.02-8.97v21.33L256 66.12l78.02-44.78V0C287.8 9.34 256 8.96 256 8.96Z" fill="#013366"></path><path d="M256 24.64s-37.64-.52-78.02-8.95l22.75 36.02L256 63.9l55.25-12.19 22.77-36.02C293.64 24.13 256 24.64 256 24.64" fill="#006dae"></path><path d="M334.02 0C324.8 31.55 288.34 54.89 256 54.89S187.2 31.56 177.98 0l-16.37 9.62c17.6 42.93 54.25 64.79 94.39 64.79s76.76-21.85 94.37-64.79zm59.14 208.9 14.14 20.46s77.87-23.85 104.7-60.8c0 0-5.52-7.43-14.12-19.02-36.68 33.51-104.72 59.36-104.72 59.36m-274.32 0-14.13 20.46S26.84 205.52 0 168.57c0 0 5.52-7.43 14.12-19.02 36.68 33.51 104.72 59.36 104.72 59.36Z" fill="#014d87"></path></g></svg>
