<svg xmlns="http://www.w3.org/2000/svg" data-name="Layer 1" style="" viewBox="0 0 512 443.73"><g><defs><linearGradient id="1770301554969-4328535_b" x1="1239.58" x2="1239.58" y1="-6" y2="393.87" gradientTransform="matrix(1 0 0 -1 -984.69 437.73)" gradientUnits="userSpaceOnUse"><stop offset="0" stop-color="#283136"></stop><stop offset="1" stop-color="#3a464d"></stop></linearGradient><linearGradient id="1770301554969-4328535_d" x1="1301.49" x2="1182.41" y1="357.17" y2="336.78" gradientTransform="matrix(1 0 0 -1 -984.69 437.73)" gradientUnits="userSpaceOnUse"><stop offset="0" stop-color="#157569"></stop><stop offset=".08" stop-color="#1a7c70"></stop><stop offset=".45" stop-color="#2b998b"></stop><stop offset=".76" stop-color="#36aa9c"></stop><stop offset="1" stop-color="#3ab0a2"></stop></linearGradient><linearGradient id="1770301554969-4328535_e" x1="1364.39" x2="1380.46" y1="158.76" y2="164.12" gradientTransform="matrix(1 0 0 -1 -984.69 437.73)" gradientUnits="userSpaceOnUse"><stop offset="0" stop-color="#157569"></stop><stop offset=".02" stop-color="#16776b"></stop><stop offset=".67" stop-color="#30a093"></stop><stop offset="1" stop-color="#3ab0a2"></stop></linearGradient><linearGradient id="1770301554969-4328535_f" x1="1095.39" x2="1095.39" y1="255.49" y2="300.07" gradientTransform="matrix(1 0 0 -1 -984.69 437.73)" gradientUnits="userSpaceOnUse"><stop offset="0" stop-color="#157569"></stop><stop offset=".08" stop-color="#1a7c70"></stop><stop offset=".45" stop-color="#2b998b"></stop><stop offset=".76" stop-color="#36aa9c"></stop><stop offset="1" stop-color="#3ab0a2"></stop></linearGradient><linearGradient id="1770301554969-4328535_g" x1="1322.87" x2="1191.37" y1="142.39" y2="324.72" gradientTransform="matrix(1 0 0 -1 -984.69 437.73)" gradientUnits="userSpaceOnUse"><stop offset="0" stop-color="#1a8f80"></stop><stop offset=".04" stop-color="#1ea897"></stop><stop offset=".08" stop-color="#21c1ad"></stop><stop offset=".14" stop-color="#24d5bf"></stop><stop offset=".2" stop-color="#26e3cc"></stop><stop offset=".27" stop-color="#28ebd3"></stop><stop offset=".41" stop-color="#28edd5"></stop><stop offset="1" stop-color="#3ab0a2"></stop></linearGradient><radialGradient id="1770301554969-4328535_c" cx="1444.17" cy="486.83" r="315.7" fx="1444.17" fy="486.83" gradientTransform="matrix(.76654 .62651 .2174 -.24851 -954.32 -561.81)" gradientUnits="userSpaceOnUse"><stop offset="0" stop-color="#2c353b"></stop><stop offset="1" stop-color="#4e5e67"></stop></radialGradient></defs><path d="M1.25 47.64C-.47 79.75-2.13 99.12 8.67 113.3 137.8 282.94 146.4 343.02 256.62 404.74c171.14 95.82 270.57-3.71 250.62-97.19C456.4 266.18 3.27 9.91 1.25 47.64" fill="url(#1770301554969-4328535_b)"></path><path d="M150.48 22.77C97.18-28.89-28.95 16.91 7.88 65.31c129.13 169.64 146.26 242.6 259 300.3 174.77 89.48 328.29-6.05 194.06-115.29-50.83-41.38-158.29-80.06-310.48-227.56Z" fill="url(#1770301554969-4328535_c)"></path><path d="M312.76 155.97c1.36 14.46 23.14 109.3 31.65 118.16 23.83 24.81 11.96 23.4-3.53 22.6-15.5-.79-162.45 3.29-192.3-73.09-8.43-31.29-38.43-91.56-57.53-78.52-2.59 19.33 71.06 129.66 123.62 155.02 28.92 13.97 75.14 33.39 173.39 10.91 19.32 0-58.05-134.95-61.32-145.73-4.9-3.4-13.98-9.37-13.98-9.37Zm-130.19-46.69c24.35 17.61 46.04 11.04 95.82 22.35-15.21-11.28-26.29-19.95-26.29-19.95s-83.02-12.16-69.53-2.4" style="isolation:isolate" fill="#1a1626" opacity=".3"></path><path d="M185.02 107.57c43.25 24.18 93.02-10.13 132.6-10.52 1.23-6.96-11.29-31.69-30.05-31.68-13.56-.57-117.13 34.04-102.55 42.21Z" fill="url(#1770301554969-4328535_d)"></path><path d="M388.06 311.07c.69 4.1 13.34 6.05 16.05-2.76-.68-28.25-17-65.98-32.37-67.97-31.15 12.36 5.16 4.21 16.32 70.73" fill="url(#1770301554969-4328535_e)"></path><path d="M102.23 138.14c16.23 4.28 25.4 25.84 28.12 44.11-16.49-7.13-27.09-16.8-37.39-31.29-4.95-8.19.31-15.19 9.28-12.82Z" fill="url(#1770301554969-4328535_f)"></path><path d="M92.95 150.94c47.86 51.27 104.99 49.83 146.47 53.63 26.96 2.48 119.35 48.43 107.71 28.98-34.4-57.44-10.81-149.26-59.56-168.2 17.75-1.19 33.25 18.36 47.12 26.03 25.22 13.93 30.67 85.19 49.71 138.82 10.23 28.83-20.39 29.6-37.27 25.44-78.53-19.33-147.9-1.96-182.16-16.96-34.62-15.12-48.35-51.26-72.01-87.74Z" fill="url(#1770301554969-4328535_g)"></path></g></svg>
