<svg xmlns="http://www.w3.org/2000/svg" data-name="Layer 1" style="" viewBox="0 0 512 477.87"><g><defs><linearGradient id="1770301554997-3894939_b" x1="334.22" x2="334.22" y1="87.63" y2="474.9" gradientTransform="matrix(1 0 0 -1 0 475.87)" gradientUnits="userSpaceOnUse"><stop offset=".05" stop-color="#473834"></stop><stop offset=".23" stop-color="#594640"></stop><stop offset=".52" stop-color="#715950"></stop><stop offset=".7" stop-color="#7a6056"></stop></linearGradient><linearGradient id="1770301554997-3894939_c" x1="1195.42" x2="1195.42" y1="87.63" y2="474.9" gradientTransform="rotate(180 635.41 237.935)" gradientUnits="userSpaceOnUse"><stop offset=".05" stop-color="#473834"></stop><stop offset=".23" stop-color="#594640"></stop><stop offset=".52" stop-color="#715950"></stop><stop offset=".7" stop-color="#7a6056"></stop></linearGradient><linearGradient id="1770301554997-3894939_d" x1="0" x2="409.59" y1="55.19" y2="55.19" gradientTransform="matrix(1 0 0 -1 0 475.87)" gradientUnits="userSpaceOnUse"><stop offset=".7" stop-color="#8e3ed6"></stop><stop offset="1" stop-color="#5d1e96"></stop></linearGradient><linearGradient id="1770301554997-3894939_f" x1="-622.21" x2="-622.21" y1="342.76" y2="336.28" gradientTransform="matrix(6.57 0 0 6.57 4235.15 -2032.68)" gradientUnits="userSpaceOnUse"><stop offset="0" stop-color="#a6694a"></stop><stop offset="1" stop-color="#4f2a1e"></stop></linearGradient><linearGradient id="1770301554997-3894939_l" x1="-607.44" x2="-607.44" y1="342.76" y2="336.28" gradientTransform="rotate(80.78 -670.057 3713.736) scale(6.57)" gradientUnits="userSpaceOnUse"><stop offset="0" stop-color="#a6694a"></stop><stop offset="1" stop-color="#4f2a1e"></stop></linearGradient><linearGradient id="1770301554997-3894939_q" x1="204.81" x2="204.81" y1="87.63" y2="474.9" gradientTransform="matrix(1 0 0 -1 0 475.87)" gradientUnits="userSpaceOnUse"><stop offset=".05" stop-color="#473834"></stop><stop offset=".23" stop-color="#594640"></stop><stop offset=".52" stop-color="#715950"></stop><stop offset=".7" stop-color="#7a6056"></stop></linearGradient></defs><path d="M269.5 381.79c129.43-51.76 116.48-174.73 116.48-174.73H23.6S10.66 330.02 140.06 381.79c0 0 25.9 6.47 64.72 6.47s64.72-6.47 64.72-6.47" class="x" fill="#473834"></path><path d="M335.64 220.19c13.25 55.74 6.26 110.92-66.13 161.6 77.67-12.95 129.43-86.28 129.43-142.55z" fill="url(#1770301554997-3894939_b)"></path><path d="M73.96 220.19c-13.23 55.74-6.25 110.92 66.15 161.6-77.67-12.94-129.43-86.28-129.43-142.55z" fill="url(#1770301554997-3894939_c)"></path><path d="M36.3 398.66c20.5-11 90.67-34.88 90.67-34.88l155.46-.3s70.95 24.11 91.32 35.15c29.62 15.98 35.84 37.8 35.84 58.42 0 27.77-409.59 27.77-409.59 0 0-20.65 6.61-42.47 36.3-58.38Z" fill="url(#1770301554997-3894939_d)"></path><path d="m73.96 473.46-5.69-.56c0-42.96 5.69-42.4 5.69.56m53.01-109.68c0 65.43 155.46 65.13 155.46-.3l-13.99-4.83H141.81z" fill="#732eb0"></path><path d="M139.27 360.48c0 51.22 131.07 51.22 131.07 0v-56.67H139.27z" class="ac" fill="#f5bb51"></path><path d="M204.8 19.42c-93.92 0-139.15 76.47-133.5 174.8 1.17 19.75 6.66 48.27 13.45 72.7 14.09 50.78 88.4 101.92 120.05 101.92s105.96-51.13 120.05-101.91c6.78-24.43 12.28-52.95 13.43-72.7 5.65-98.34-39.57-174.81-133.48-174.81" fill="#ffc940"></path><path d="M204.79 289.01c-22-9.67-22.19-.38-56.15 1.89 12.75 14.5 22.14 33.12 56.13 33.12 39.03 0 45.64-21.15 56.2-33.12-34.02-2.27-34.15-11.55-56.18-1.89" fill="#d47706"></path><path d="M158.84 294.51c22.19 23.08 70.01 22.78 91.91.02-34.15 3.66-57.76 3.66-91.91-.02" class="ad" fill="#fff"></path><path d="M304.58 161.51c-20.4-12.16-57-13.66-71.48-5.37-3.06 1.67-2.25 10.46.42 9.36 20.65-8.6 52.12-9.03 71.5.92 2.6 1.31 2.67-3.15-.44-4.92Zm-199.58 0c20.4-12.16 56.98-13.66 71.5-5.37 3.06 1.67 2.25 10.46-.42 9.36-20.67-8.6-52.1-9.05-71.52.92-2.59 1.31-2.65-3.15.44-4.92Z" fill="#966f42"></path><path d="M225.9 257.81c-2.24-1.57-7.48.85-21.12.85s-18.87-2.41-21.1-.85c-2.68 1.89 1.57 10.38 21.1 10.38s23.82-8.48 21.12-10.38" class="ai" fill="#f0a429"></path><path id="1770301554997-3894939_e" d="M183.9 198.4c.8 6.2-3.41 13.58-15.1 19.1-7.42 3.51-22.85 7.65-43.14-.91-9.1-3.82-17.95-15.76-17.15-22.36 10.99-20.72 65.11-23.76 75.39 4.17" class="ad" data-name="Path" fill="#fff"></path><circle id="1770301554997-3894939_g" cx="147.19" cy="197.98" r="21.25" data-name="Oval" fill="url(#1770301554997-3894939_f)"></circle><path id="1770301554997-3894939_h" d="M136.56 197.59c0 14.7 21.26 14.7 21.26 0 0-13.65-21.26-13.65-21.26 0" class="ab" data-name="Path" fill="#1a1626"></path><path id="1770301554997-3894939_i" d="M133.34 191.64c0 6.17 8.92 6.17 8.92 0 0-5.71-8.92-5.71-8.92 0" class="af" data-name="Path" fill="#ab968c"></path><path id="1770301554997-3894939_j" d="M184 199.22c-8.64-27.74-67.48-23.65-75.48-4.99 2.97-23.88 68.14-30.19 75.48 4.99" class="ag" data-name="Path" fill="#45332c"></path><path id="1770301554997-3894939_k" d="M225.69 198.4c-.79 6.2 3.43 13.58 15.11 19.1 7.42 3.51 22.85 7.65 43.14-.91 9.1-3.82 17.95-15.76 17.15-22.36-10.98-20.72-65.1-23.76-75.4 4.17" class="ad" data-name="Path" fill="#fff"></path><circle id="1770301554997-3894939_m" cx="261.92" cy="197.98" r="21.25" data-name="Oval" transform="rotate(-80.78 261.927 197.978)" fill="url(#1770301554997-3894939_l)"></circle><path id="1770301554997-3894939_n" d="M251.3 197.59c0 14.7 21.27 14.7 21.27 0 0-13.65-21.27-13.65-21.27 0" class="ab" data-name="Path" fill="#1a1626"></path><path id="1770301554997-3894939_o" d="M248.07 191.64c0 6.17 8.92 6.17 8.92 0 0-5.71-8.92-5.71-8.92 0" class="af" data-name="Path" fill="#ab968c"></path><path id="1770301554997-3894939_p" d="M225.6 199.22c8.62-27.72 67.44-23.76 75.48-4.99-2.98-23.88-68.14-30.19-75.48 4.99" class="ag" data-name="Path" fill="#45332c"></path><path d="M310.49 33.14c10.73-15.31-80.1-47.63-165.87-25.8C58.96 26.97 10.68 155.31 10.68 239.24c7.66 6.08 54.58-9.08 63.28-19.05 3.55-14.69 9.15-29.8 14.37-45.46 64.33-37.25 137.13-46.02 187.67-90.6-6.49 19.41 27.78 43.9 45.3 90.6 5.68 15.15 10.75 30.33 14.35 45.46 14.28 13.16 42.79 19.35 63.3 19.05-.02-71-54.13-216.01-88.46-206.1" fill="url(#1770301554997-3894939_q)"></path><path d="M26.09 226.49c59.26-78.91 251.22-73.56 284.4-193.34-64.44 100.53-268.2 117.49-284.4 193.34" class="x" fill="#473834"></path><path d="M436.01 297.28c5.21-2.92 4.81-15.23-7.83-11.98-30.4 7.82-48.73 13.62-57.44 29.83-5.9 10.93 28.53-1.19 65.27-17.85" class="ai" fill="#f0a429"></path><path d="M425.34 446.73c0-31.32-3.98-98.33-8.79-103.4-8.99-9.42-49.7-5.68-56.63.18-6.92 5.85-19.42 129.58-19.42 129.58s84.84-5.1 84.84-26.37Z" fill="#8e3ed6"></path><path d="M413.48 347.73c-.76-5.65 2.79-10.53 2.79-10.53s110.61-23.95 94.04-47.02c-7.13-9.92-43.61 2.22-75.96 5.93-19.69 2.27-75.83-8.52-70.55 51.62 1.1 12.38 50.58 6.75 49.68 0" class="ac" fill="#f5bb51"></path></g></svg>
