<svg xmlns="http://www.w3.org/2000/svg" data-name="Layer 1" style="" viewBox="0 0 512 568.89"><g><defs><linearGradient id="1770301554972-9264366_b" x1="248.25" x2="248.25" y1="329.11" y2="567.93" gradientTransform="matrix(.97 0 0 -1 -28.54 570.57)" gradientUnits="userSpaceOnUse"><stop offset=".05" stop-color="#473834"></stop><stop offset=".23" stop-color="#594640"></stop><stop offset=".52" stop-color="#715950"></stop><stop offset=".7" stop-color="#7a6056"></stop></linearGradient><linearGradient id="1770301554972-9264366_d" x1="-609.89" x2="-609.89" y1="363.84" y2="361.31" gradientTransform="matrix(6.57 0 0 6.57 4235.16 -2297.33)" gradientUnits="userSpaceOnUse"><stop offset="0" stop-color="#a6694a"></stop><stop offset="1" stop-color="#4f2a1e"></stop></linearGradient><linearGradient id="1770301554972-9264366_j" x1="-605.77" x2="-605.77" y1="363.84" y2="361.31" gradientTransform="matrix(6.57 0 0 6.57 4252.89 -2297.33)" gradientUnits="userSpaceOnUse"><stop offset="0" stop-color="#a6694a"></stop><stop offset="1" stop-color="#4f2a1e"></stop></linearGradient></defs><path d="M326.17 93.32c0-45.17-25.94-75.13-35.76-74.32 3.54-5.77-23.16-22.05-54.94-14.32-82.73 20.15-78.48 78.87-118.48 129.85 19.26-6.84 28.83-24.09 28.83-24.09s-9.87 32.7-49.37 52.07c0 0 29.82 11.85 60.25 9.07 0 0-27.65 11.07-54.72 10.28 13.27 25.28 43.17 55.76 83.31 49.54 0 0-9.6 5.34-24.83 7.35 97.36 18.38 165.68-60.03 165.7-145.44Z" fill="url(#1770301554972-9264366_b)"></path><path d="M11.74 308.71c-34.23 71.41 16.96 74.07 20.4 115.67 4.7 57.09 85.2.41 100.06 39.69 21.61 57.15 81.41-33.69 131.76 18.03 37.97 38.98 40.22-59.26 110.75-36.49 74.45 24.05 9.23-75.13 75.26-57.72 44.92 11.83 93.65-61.73 35.15-119.02-23.11 61.02-436.18 121.23-473.39 39.84Z" fill="#b00505"></path><path d="M262.3 318.37c-115.57-3.05-73.46 25.04-60.83 104.04-40.3 26.04-39.69 37-71.95 72.52-20.81 22.93-72.3 66.3-38.3 67.32 27.35.82 17.26-42.2 51.65-59.8 68.86-35.21 67.93-46.36 98.1-68.82 7-5.18 40.88-67.09 21.33-115.26" class="w" fill="#f5bb51"></path><path d="M125.81 493.41c-3.3 3.63 6.61 17.85 12.48 15.26 4.1-1.79-5.72-22.72-12.48-15.26m175.43 41.08c2.72 5.19 12.89-9.04 12.89-9.04 8.86 55.49 26.93-22.65 15.46-28.52-34.43-.33-11.13 12.06-28.35 37.56" class="x" fill="#e03636"></path><path d="M246.7 310.17c22.6 24.87 13.5 60.76 87.09 100.14-32.06 40.02 4.93 60.6-10.78 93.11-13.27 27.5-4.68 72.04 28.39 64.66 11.09-2.48-17.19 2.78-7.02-71.04 6.13-44.63 26.6-76.78 21.16-90.25-13.86-34.33-40.51-109.53-118.84-96.63Z" class="w" fill="#f5bb51"></path><path d="M320.64 493.41c0 6.98 27.55 12.39 27.18 4.74-.2-4.26-27.18-8.43-27.18-4.74m1.12 60.17c-7.85 8.43 10.43 14.92 10.76 12.22 1.05-8.7 8-11.74 14.15-12.74 4.18-8.76-22.34-2.24-24.91.52m-214.1-.83c-.83-7.5-17.04-18.69-25.76-4.31 4.26-29.39 42.12-12.32 25.76 4.31" class="x" fill="#e03636"></path><path d="M334.74 38.1c-2.65-4.7 25.09-20.3 10.8-17.8C330.04 22.98 373.2 0 362.09 0c-9.6 0-55.69 22.33-47.1 36.47 18.65 30.7 22.61 60.37 26.29 80.09-42.32 17.11-38 8.9-73.04 22.48 0 0-50.25-49.66-38.22 10.63.83 4.2-8.39 11.48-8.39 11.48s-12.59 0-26.63 11.85c-10.61 8.98-39.04 18.36-52.15 25-10.65 5.4-51.85 26.11-76.69 50.85-6.28 6.24-42.43-13.19-24.91 1.4 13.39 11.15-37.34-13.89-24.63-1.38 19.93 19.66 50.22 25.39 57.82 16.5 21.78-25.5 45.89-18.87 77.35-41.83 43.87-14.61 52.15-25.22 66.02-25.3 12.55 21.33 90.55 17.02 82.27-35.28 2.41-9.37 41.19-16.11 66.12-29.3 7.05-3.72-3.56-45.66-31.46-95.57Z" class="w" fill="#f5bb51"></path><path d="M217.83 198.24c13.35 25.9 13.35 65.24-1.01 70.35-34.66 12.32-110.83 93.24-205.08 40.11-27.63 77.19 42.22 36.3 56.43 89.2 17.95 66.87 47.41-27.65 102.65 2.41 56.95 31 54.6-51.87 125-36.1 71.39 15.99 37.19-54.3 82.56-19.15 33.94 26.31 131.37-47.93 106.76-76.2-62.52 54.02-205.84 31.09-189.76-1.83 15.22-31.15 5.93-48.39 11.23-51.06 13.58-6.87 31.83-25.72-1.36-49.7-6.84-4.94-12.59-28.64-34-34.06-14.13 6.14 19.47 4.52 19.47 35.52-7.58 18.42-22.32 14.13-36.26 5.98-27.09-15.82-29.5-19.35-33.19-14.48-1.78 4.61 24.69 20.19 20.28 37.44-10.76 14.91-23.7 1.56-23.7 1.56Z" class="x" fill="#e03636"></path><path d="M211.55 310.82C156.7 372.69 90.72 369.44 58.31 379.5c4.22 4.47 7.71 10.33 9.87 18.4 11.66 43.52 28.25 18.71 53.59 4.33 10.18-29.21 56.21-31.66 89.78-91.42Zm27.3-6.89c-8.51 52.24-39.05 80.02-60.78 99.79 16.61 6.8 27.8 2.97 37.79-4.65 1.2-21.99 25.57-44.88 22.98-95.15Zm31.7-14.22c-1.07 45.19 25.72 52.81 22 73.91 1.09.2 2.15.35 3.28.61 25.7 5.76 37.69.31 44.67-7.35-15.5-11.43-58.56-16.53-69.95-67.17m106.43 57.22c20.03 18.42 81.78-13.63 100.06-41.24-31.01 40.06-119.28 33.89-167.65-5.07 16.46 21.04 33.19 29.05 47.02 34.87 4.28-1.39 9.61 1.37 20.58 11.44Zm-192.82-59.87c-40.47 25.49-101.28 61.74-172.41 21.65-11.35 31.71-6.24 43.46 4.68 50.02 24.67-23.17 135.8-14.82 167.73-71.66Zm65.92-65.66c7.37 15.64 35.21 13.87 39.37-1.69-8.88 8.14-29.33 6.37-39.37 1.69" fill="#d12828"></path><path d="M278.43 40.26c-19.74 17.43-48.19 20.85-73.33 35.4-5.59 9.07-3.09 29.96-1.4 36.02 5.5 19.85 34.56 39.85 46.92 39.85s41.41-20 46.92-39.85c1.67-6.06 3.09-12.69 4.08-18.76-1.82-22.4-23.31-35.47-23.19-52.66" fill="#ffc940"></path><path d="M250.63 120.33c-8.61-3.77-8.67-.15-21.96.72 5 5.67 8.67 12.94 21.94 12.94 15.26 0 17.83-8.26 21.96-12.94-13.29-.86-13.35-4.49-21.94-.72" fill="#d47706"></path><path d="M232.67 122.48c8.67 9.02 27.37 8.89 35.93 0-13.36 1.44-22.58 1.44-35.93 0" class="y" fill="#fff"></path><path d="M289.62 70.51c-7.98-4.76-22.28-5.34-27.94-2.11-1.19.66-.87 4.1.17 3.67 8.07-3.36 20.37-3.54 27.94.37 1.01.49 1.03-1.24-.17-1.92Zm-77.99 0c7.96-4.76 22.28-5.34 27.94-2.11 1.2.66.87 4.1-.17 3.67-8.08-3.36-20.37-3.54-27.94.37-1.01.49-1.05-1.24.17-1.92Z" fill="#966f42"></path><path d="M258.86 108.13c-.87-.61-2.91.33-8.24.33s-7.39-.95-8.24-.33c-1.05.74.61 4.06 8.24 4.06s9.3-3.3 8.24-4.06" fill="#f0a429"></path><path id="1770301554972-9264366_c" d="M242.46 84.93c.31 2.41-1.34 5.3-5.91 7.44-2.89 1.38-8.92 3-16.85-.35-3.56-1.5-7.02-6.14-6.7-8.74 4.29-8.11 25.44-9.27 29.46 1.65" class="y" data-name="Path" fill="#fff"></path><circle id="1770301554972-9264366_e" cx="228.11" cy="84.75" r="8.31" data-name="Oval" fill="url(#1770301554972-9264366_d)"></circle><path id="1770301554972-9264366_f" d="M223.96 84.59c0 5.74 8.32 5.74 8.32 0 0-5.34-8.32-5.34-8.32 0" class="u" data-name="Path" fill="#1a1626"></path><path id="1770301554972-9264366_g" d="M222.7 82.28c0 2.41 3.48 2.41 3.48 0 0-2.25-3.48-2.25-3.48 0" class="z" data-name="Path" fill="#ab968c"></path><path id="1770301554972-9264366_h" d="M242.5 85.24c-3.37-10.86-26.37-9.24-29.5-1.96 1.16-9.33 26.62-11.8 29.5 1.96" class="aa" data-name="Path" fill="#45332c"></path><path id="1770301554972-9264366_i" d="M258.79 84.93c-.31 2.41 1.34 5.3 5.91 7.44 2.88 1.38 8.92 3 16.85-.35 3.56-1.5 7.02-6.14 6.7-8.74-4.3-8.11-25.44-9.27-29.46 1.65" class="y" data-name="Path" fill="#fff"></path><circle id="1770301554972-9264366_k" cx="272.94" cy="84.75" r="8.31" data-name="Oval" fill="url(#1770301554972-9264366_j)"></circle><path id="1770301554972-9264366_l" d="M268.79 84.59c0 5.74 8.32 5.74 8.32 0 0-5.34-8.32-5.34-8.32 0" class="u" data-name="Path" fill="#1a1626"></path><path id="1770301554972-9264366_m" d="M267.53 82.28c0 2.41 3.48 2.41 3.48 0 0-2.25-3.48-2.25-3.48 0" class="z" data-name="Path" fill="#ab968c"></path><path id="1770301554972-9264366_n" d="M258.76 85.24c3.37-10.84 26.35-9.29 29.5-1.96-1.18-9.33-26.63-11.8-29.5 1.96" class="aa" data-name="Path" fill="#45332c"></path><path d="M180.77 95.89C203.93 65.06 278.49 72.85 290.42 19c-23.91 44.5-103.31 47.24-109.65 76.89" fill="#473834"></path></g></svg>
