<svg xmlns="http://www.w3.org/2000/svg" data-name="Layer 1" style="" viewBox="0 0 512 640.01"><g><defs><linearGradient id="1770301554984-6279638_b" x1="407.1" x2="407.1" y1="114.03" y2="598.11" gradientTransform="matrix(1 0 0 -1 0 642)" gradientUnits="userSpaceOnUse"><stop offset=".05" stop-color="#473834"></stop><stop offset=".23" stop-color="#594640"></stop><stop offset=".52" stop-color="#715950"></stop><stop offset=".7" stop-color="#7a6056"></stop></linearGradient><linearGradient id="1770301554984-6279638_c" x1="1165.92" x2="1165.92" y1="114.03" y2="598.11" gradientTransform="rotate(180 635.405 321)" gradientUnits="userSpaceOnUse"><stop offset=".05" stop-color="#473834"></stop><stop offset=".23" stop-color="#594640"></stop><stop offset=".52" stop-color="#715950"></stop><stop offset=".7" stop-color="#7a6056"></stop></linearGradient><linearGradient id="1770301554984-6279638_e" x1="-616.61" x2="-616.61" y1="428.02" y2="419.93" gradientTransform="matrix(6.57 0 0 6.57 4235.16 -2495.38)" gradientUnits="userSpaceOnUse"><stop offset="0" stop-color="#a6694a"></stop><stop offset="1" stop-color="#4f2a1e"></stop></linearGradient><linearGradient id="1770301554984-6279638_k" x1="-597.48" x2="-597.48" y1="428.02" y2="419.93" gradientTransform="matrix(6.57 0 0 6.57 4252.89 -2495.38)" gradientUnits="userSpaceOnUse"><stop offset="0" stop-color="#a6694a"></stop><stop offset="1" stop-color="#4f2a1e"></stop></linearGradient><linearGradient id="1770301554984-6279638_p" x1="256.01" x2="256.01" y1="114.04" y2="598.12" gradientTransform="matrix(1 0 0 -1 0 642)" gradientUnits="userSpaceOnUse"><stop offset=".05" stop-color="#473834"></stop><stop offset=".23" stop-color="#594640"></stop><stop offset=".52" stop-color="#715950"></stop><stop offset=".7" stop-color="#7a6056"></stop></linearGradient></defs><path d="M336.87 519.91c161.79-64.7 124.27-218.42 124.27-218.42H50.84S13.34 455.2 175.09 519.91c0 0 32.37 8.09 80.9 8.09s80.9-8.09 80.9-8.09Z" class="v" fill="#473834"></path><path d="M419.54 317.92c12.5 52.61-16.57 155.73-82.67 202.01 97.09-16.19 140.46-107.85 140.46-178.19z" fill="url(#1770301554984-6279638_b)"></path><path d="M92.44 317.92c-12.5 52.61 16.59 155.73 82.69 202.01-97.09-16.19-140.46-107.86-140.46-178.2z" fill="url(#1770301554984-6279638_c)"></path><path d="M45.38 540.99C71 527.25 176 490.77 176 490.77l160-.31s105.74 36.7 131.21 50.5C504.22 560.93 512 588.2 512 613.97c0 34.71-512 34.71-512 0 0-25.81 8.26-53.09 45.38-72.98" class="ag" fill="#302c3b"></path><path d="M176 490.77c-.16-.09 7.75 61.64 80 61.55 72.59-.09 79.88-61.79 80-61.86v-64.73H176v65.03Z" fill="#f5bb51"></path><path d="m168.96 568.44-33.85-22.27 33.51-51.08-47.13 55.56 36.91 19.58s-25.16 25.79-29.18 30.75c0 0 24.73 26.95 28.41 37.23l10.55.37s-12.38-22.62-25.09-37.6c0 0 16.15-24.06 25.87-32.54m184.65 1.79 36.91-19.58-47.14-55.56 33.55 51.08-33.89 22.27c9.72 8.48 25.91 32.54 25.91 32.54-12.73 14.98-25.12 37.6-25.12 37.6l10.56-.37c3.71-10.27 28.39-37.23 28.39-37.23-4-4.96-29.17-30.75-29.17-30.75" class="z" fill="#1a1626"></path><path d="m256 551.63-81.64 11.94s2.28 39.2 15.97 75.66c0 0 14.77.78 43.23.78 0 0 22.45-7.79 44.85 0 25.95 0 43.27-.78 43.27-.78 13.7-36.46 15.99-75.66 15.99-75.66z" fill="#e6ebef"></path><path d="M270.52 603.13c-3.9-12.35-25.14-12.35-29.07 0-3.1 9.81-5.72 22.69-7.9 36.87h44.85c-2.17-14.19-4.79-27.06-7.88-36.87" class="z" fill="#1a1626"></path><path d="M269.41 603.13c-3.03 4.48-24.15 4.96-26.82 0-6.36-11.75-16.76-35.02-16.76-35.02s26.29-15.79 30.14-15.79 30.19 15.79 30.19 15.79-9.48 24.25-16.76 35.02Z" class="ag" fill="#302c3b"></path><path d="M256 551.63c-73.39-25.23-80-60.85-80-60.85s-5.16 35.63-1.64 72.79c9.94 13.98 26.55 34.6 34.43 34.6 10.98 0 47.22-42.34 47.22-42.34s36.23 42.34 47.22 42.34c7.89 0 24.49-20.63 34.44-34.6 3.49-37.16-1.67-73.11-1.67-73.11s-6.59 35.95-80 61.17" class="ab" fill="#fff"></path><path d="M417.96 613.42h15.33v-2.6h-19.35zm4.38-5.75-2.19-2.05h-16.92l5.36 3.5h12.31l1.33.63h15.35l-2.89-2.08z" class="x" fill="#ffe12c"></path><path d="M416.22 605.09h5.03l1.5 1.62h10.65l-2.19-2.96-13.98-.14-2.83-2.63h-18.94l5.37 3.5h14.34z" class="x" fill="#ffe12c"></path><path d="m409.16 600.35 6.07.26 2.83 2.37 12.85.29-.62-3.16h-16.96l-3.62-3.86h-21.29l5.35 3.5h14.34zm37.31 13.07h15.34l4-2.6h-19.34zm10.95-5.75h-12.35l-2.88 2.08h15.36l1.31-.63h12.33l5.35-3.5h-16.91z" class="x" fill="#ffe12c"></path><path d="m462.52 603.61-13.95.14-2.19 2.96h10.64l1.5-1.62h5.02l1.07-.61h14.32l5.36-3.5h-18.94z" class="x" fill="#ffe12c"></path><path d="m470.06 596.25-3.62 3.86h-16.98l-.61 3.16 12.86-.29 2.81-2.37 6.06-.26 1.07-.6h14.33l5.36-3.5z" class="x" fill="#ffe12c"></path><path d="M448.83 599.37h16.37l4.06-4.44-23.43 1.5c.27.73.42 1.5.42 2.31 0 3.52-2.84 6.38-6.38 6.38s-6.38-2.86-6.38-6.38c0-.81.15-1.58.44-2.31l-23.43-1.5 4.06 4.44h16.35c.33 4.68 4.19 8.39 8.96 8.39s8.65-3.7 8.96-8.39" class="x" fill="#ffe12c"></path><circle cx="439.87" cy="615.96" r="11" class="x" fill="#ffe12c"></circle><circle cx="439.88" cy="615.96" r="7.78" class="ag" fill="#302c3b"></circle><path d="m439.87 607.56 1.9 5.79h6.08l-4.92 3.59 1.88 5.79-4.94-3.58-4.92 3.58 1.88-5.79-4.92-3.59h6.1z" class="ab" fill="#fff"></path><path d="M256 66.93c-117.4 0-173.94 95.61-166.88 218.52 1.46 24.68 8.33 60.33 16.81 90.88 17.61 63.48 110.51 127.4 150.07 127.4s132.44-63.91 150.06-127.39c8.48-30.54 15.35-66.19 16.79-90.88C429.92 162.54 373.4 66.93 256 66.93" fill="#ffc940"></path><path d="M255.98 403.96c-27.5-12.11-27.73-.5-70.19 2.36 15.94 18.1 27.67 41.38 70.17 41.38 48.79 0 57.05-26.44 70.25-41.38-42.52-2.86-42.69-14.46-70.23-2.36" fill="#d47706"></path><path d="M198.54 410.82c27.73 28.85 87.52 28.48 114.89.02-42.68 4.58-72.2 4.58-114.89-.02" class="ab" fill="#fff"></path><path d="M380.73 244.57c-25.5-15.21-71.25-17.07-89.35-6.71-3.83 2.08-2.79 13.07.52 11.69 25.81-10.73 65.14-11.27 89.38 1.16 3.25 1.62 3.34-3.94-.54-6.14Zm-249.48 0c25.5-15.21 71.23-17.07 89.38-6.71 3.83 2.08 2.82 13.07-.52 11.69-25.83-10.73-65.12-11.3-89.4 1.16-3.25 1.62-3.32-3.94.54-6.14" fill="#966f42"></path><path d="M282.38 364.94c-2.79-1.96-9.35 1.07-26.4 1.07s-23.58-3.02-26.38-1.07c-3.35 2.36 1.96 13 26.38 13s29.77-10.62 26.4-13" fill="#f0a429"></path><path id="1770301554984-6279638_d" d="M229.88 290.67c1 7.78-4.27 16.98-18.88 23.87-9.27 4.39-28.57 9.56-53.92-1.14-11.35-4.77-22.44-19.69-21.44-27.94 13.74-25.92 81.39-29.71 94.24 5.21" class="ab" data-name="Path" fill="#fff"></path><circle id="1770301554984-6279638_f" cx="183.98" cy="290.14" r="26.56" data-name="Oval" fill="url(#1770301554984-6279638_e)"></circle><path id="1770301554984-6279638_g" d="M170.71 289.66c0 18.38 26.58 18.38 26.58 0 0-17.06-26.58-17.06-26.58 0" class="z" data-name="Path" fill="#1a1626"></path><path id="1770301554984-6279638_h" d="M166.67 282.21c0 7.73 11.15 7.73 11.15 0 0-7.13-11.15-7.13-11.15 0" class="ac" data-name="Path" fill="#ab968c"></path><path id="1770301554984-6279638_i" d="M230.01 291.69c-10.79-34.67-84.35-29.55-94.36-6.23 3.7-29.86 85.16-37.75 94.36 6.23" class="ad" data-name="Path" fill="#45332c"></path><path id="1770301554984-6279638_j" d="M282.1 290.67c-.98 7.78 4.29 16.98 18.89 23.87 9.27 4.39 28.57 9.56 53.92-1.14 11.37-4.77 22.44-19.69 21.44-27.94-13.73-25.92-81.38-29.71-94.25 5.21" class="ab" data-name="Path" fill="#fff"></path><circle id="1770301554984-6279638_l" cx="327.41" cy="290.14" r="26.56" data-name="Oval" fill="url(#1770301554984-6279638_k)"></circle><path id="1770301554984-6279638_m" d="M314.14 289.66c0 18.38 26.56 18.38 26.56 0 0-17.06-26.56-17.06-26.56 0" class="z" data-name="Path" fill="#1a1626"></path><path id="1770301554984-6279638_n" d="M310.08 282.21c0 7.73 11.15 7.73 11.15 0 0-7.13-11.15-7.13-11.15 0" class="ac" data-name="Path" fill="#ab968c"></path><path id="1770301554984-6279638_o" d="M282.01 291.69c10.77-34.65 84.29-29.69 94.36-6.23-3.73-29.86-85.17-37.75-94.36 6.23" class="ad" data-name="Path" fill="#45332c"></path><path d="M388.11 84.11c13.42-19.15-100.13-59.54-207.34-32.25C73.69 76.37 34.67 236.81 34.67 341.73c9.58 7.61 46.89-11.35 57.77-23.81 4.44-18.38 11.43-37.27 17.96-56.83 80.42-46.56 171.41-57.53 234.58-113.25-8.09 24.27 34.73 54.88 56.63 113.25 7.08 18.91 13.44 37.9 17.94 56.83 17.86 16.42 32.15 24.19 57.79 23.81-.01-88.73-46.3-270.02-89.24-257.62Z" fill="url(#1770301554984-6279638_p)"></path><path d="M53.96 325.77c74.06-98.62 292.67-91.94 334.14-241.66C307.56 209.77 74.19 230.95 53.96 325.77" class="v" fill="#473834"></path><path d="M479.83 125.75C472.96 64.02 404.87 0 256 0S39 64 32.15 125.75c-2.29 20.5 21.12 34.31 40.81 66.84 10.69 17.55 355.43 17.55 366.04 0 19.73-32.52 43.13-46.34 40.83-66.84" class="ag" fill="#302c3b"></path><path d="M55.87 161.18v14.12h400.27v-14.12c-45.12-40.16-355.14-40.16-400.27 0" class="x" fill="#ffe12c"></path><path d="M55.87 175.32v20.25s0 49.69 200.15 49.69 200.13-49.69 200.13-49.69v-20.25c-45.13-40.19-355.15-40.19-400.28 0" class="ag" fill="#302c3b"></path><path d="M208.22 83.23h33.38v-5.65h-42.1zm9.55-12.52L213 66.29h-36.81l11.64 7.61h26.84l2.88 1.35h33.4l-6.27-4.54z" class="x" fill="#ffe12c"></path><path d="M204.48 65.11h10.91l3.28 3.52h23.16l-4.76-6.42-30.4-.35-6.15-5.69H159.3l11.65 7.61h31.22z" class="x" fill="#ffe12c"></path><path d="m189.12 54.82 13.22.53 6.12 5.17 27.98.62-1.34-6.89h-36.91l-7.9-8.39h-46.33l11.65 7.6h31.21zm81.22 28.41h33.39l8.71-5.65h-42.1zm23.83-12.52h-26.9l-6.25 4.54h33.4l2.87-1.35h26.82l11.67-7.61h-36.83z" class="x" fill="#ffe12c"></path><path d="m305.27 61.86-30.38.35-4.79 6.42h23.19l3.28-3.52h10.91l2.31-1.33h31.19l11.67-7.61h-41.22z" class="x" fill="#ffe12c"></path><path d="m321.66 45.86-7.89 8.39h-36.94l-1.33 6.89 27.98-.62 6.14-5.17 13.2-.53 2.3-1.36h31.23l11.65-7.6z" class="x" fill="#ffe12c"></path><path d="M275.48 52.67h35.61l8.85-9.64-51.02 3.26c.63 1.56.94 3.25.94 5.02 0 7.67-6.21 13.88-13.88 13.88s-13.9-6.21-13.9-13.88c0-1.77.33-3.46.94-5.02l-51-3.27 8.83 9.64h35.61c.7 10.21 9.12 18.29 19.52 18.29 10.38 0 18.79-8.07 19.5-18.28" class="x" fill="#ffe12c"></path><circle cx="255.98" cy="88.75" r="23.94" class="x" transform="rotate(-80.78 255.982 88.744)" fill="#ffe12c"></circle><circle cx="255.99" cy="88.75" r="16.93" class="ag" transform="rotate(-80.78 255.993 88.743)" fill="#302c3b"></circle><path d="m255.98 70.5 4.08 12.6h13.27l-10.73 7.79 4.11 12.63-10.73-7.79-10.73 7.79 4.08-12.63-10.71-7.79h13.25z" class="ab" fill="#fff"></path><path d="M85.25 184.15c.33-.22-10.25 13.9 12.9 29.31 0-.23 6.34-21.11-12.9-29.31" class="x" fill="#ffe12c"></path><path d="M116.37 174.6c-22.62-3.46-31.17 9.16-31.1 9.5 18.95 10.73 31.32-9.69 31.1-9.5m-10.66 18.82c.29-.22-7.91 13.79 14.98 26.08-.03-.2 3.73-20.22-14.98-26.08" class="x" fill="#ffe12c"></path><path d="M133.64 181.77c-21.53-1.29-27.98 11.34-27.91 11.61 18.65 8.2 28.06-11.78 27.91-11.61m-6.8 18.77c.21-.22-5.96 13.75 16.92 23.34-.02-.19 1.39-19.53-16.92-23.34" class="x" fill="#ffe12c"></path><path d="M152 187c-20.61.65-25.27 13.25-25.16 13.5 18.5 6.04 25.31-13.66 25.16-13.5m-3.33 18.6c.17-.22-4.02 13.4 18.36 20.37-.03-.16-.76-18.45-18.36-20.37" class="x" fill="#ffe12c"></path><path d="M170.88 190.67c-19.37 2.4-22.31 14.67-22.21 14.89 17.97 4 22.33-15.06 22.21-14.89m.01 17.9c.17-.21-2.27 12.98 19.56 17.58-.03-.14-2.65-17.38-19.56-17.58" class="x" fill="#ffe12c"></path><path d="M190.36 192.48c-18.21 4-19.54 15.87-19.48 16.04 17.45 2.14 19.56-16.17 19.48-16.04m-4.02 16.59c-.37-.09 11.48 9.69 29.02-.42-.45.14-18.05-9.5-29.02.42" class="x" fill="#ffe12c"></path><path d="M76.02 178.98c.02-.68 28.44 15.83 59.61 22.54 30.73 8.35 64.22 6.86 63.89 7.5.59.81-33.48 3.02-64.5-5.42-31.5-6.76-59.96-24.16-59-24.62m350.73 5.17c-.33-.22 10.23 13.9-12.9 29.31 0-.23-6.34-21.11 12.9-29.31" class="x" fill="#ffe12c"></path><path d="M395.61 174.6c22.62-3.46 31.19 9.16 31.13 9.5-18.95 10.73-31.34-9.69-31.13-9.5m10.68 18.82c-.29-.22 7.89 13.79-15 26.08.04-.2-3.71-20.22 15-26.08" class="x" fill="#ffe12c"></path><path d="M378.36 181.77c21.5-1.29 27.98 11.34 27.91 11.61-18.67 8.2-28.06-11.78-27.91-11.61m6.8 18.77c-.22-.22 5.94 13.75-16.94 23.34.04-.19-1.37-19.53 16.94-23.34" class="x" fill="#ffe12c"></path><path d="M359.98 187c20.63.65 25.27 13.25 25.18 13.5-18.5 6.04-25.31-13.66-25.18-13.5m3.36 18.6c-.19-.22 4 13.4-18.38 20.37.04-.16.75-18.45 18.38-20.37" class="x" fill="#ffe12c"></path><path d="M341.11 190.67c19.41 2.4 22.34 14.67 22.23 14.89-18.01 4-22.36-15.06-22.23-14.89m-.02 17.9c-.15-.21 2.27 12.98-19.56 17.58.03-.14 2.67-17.38 19.56-17.58" class="x" fill="#ffe12c"></path><path d="M321.62 192.48c18.23 4 19.56 15.87 19.48 16.04-17.45 2.14-19.55-16.17-19.48-16.04m4.04 16.59c.35-.09-11.5 9.69-29.05-.42.47.14 18.05-9.5 29.05.42" class="x" fill="#ffe12c"></path><path d="M435.98 178.98c-.04-.68-28.44 15.83-59.61 22.54-30.73 8.35-64.25 6.86-63.89 7.5-.61.81 33.46 3.02 64.48-5.42 31.5-6.76 59.98-24.16 59.02-24.62" class="x" fill="#ffe12c"></path></g></svg>
