<svg xmlns="http://www.w3.org/2000/svg" data-name="Layer 1" style="" viewBox="0 0 512 745.49"><g><defs><linearGradient id="1770301555001-455391_b" x1="183.66" x2="183.66" y1="536.29" y2="746.93" gradientTransform="matrix(1 0 0 -1 11.87 747.49)" gradientUnits="userSpaceOnUse"><stop offset=".05" stop-color="#473834"></stop><stop offset=".23" stop-color="#594640"></stop><stop offset=".52" stop-color="#715950"></stop><stop offset=".7" stop-color="#7a6056"></stop></linearGradient><linearGradient id="1770301555001-455391_c" x1="1227.97" x2="1227.97" y1="536.29" y2="746.93" gradientTransform="rotate(180 641.345 373.745)" gradientUnits="userSpaceOnUse"><stop offset=".05" stop-color="#473834"></stop><stop offset=".23" stop-color="#594640"></stop><stop offset=".52" stop-color="#715950"></stop><stop offset=".7" stop-color="#7a6056"></stop></linearGradient><linearGradient id="1770301555001-455391_e" x1="-632.15" x2="-632.15" y1="442.68" y2="439.16" gradientTransform="matrix(6.57 0 0 6.57 4247.03 -2789.15)" gradientUnits="userSpaceOnUse"><stop offset="0" stop-color="#a6694a"></stop><stop offset="1" stop-color="#4f2a1e"></stop></linearGradient><linearGradient id="1770301555001-455391_k" x1="-625.34" x2="-625.34" y1="442.68" y2="439.16" gradientTransform="matrix(6.57 0 0 6.57 4264.76 -2789.15)" gradientUnits="userSpaceOnUse"><stop offset="0" stop-color="#a6694a"></stop><stop offset="1" stop-color="#4f2a1e"></stop></linearGradient><linearGradient id="1770301555001-455391_p" x1="113.25" x2="113.25" y1="536.28" y2="746.96" gradientTransform="matrix(1 0 0 -1 11.87 747.49)" gradientUnits="userSpaceOnUse"><stop offset=".05" stop-color="#473834"></stop><stop offset=".23" stop-color="#594640"></stop><stop offset=".52" stop-color="#715950"></stop><stop offset=".7" stop-color="#7a6056"></stop></linearGradient><linearGradient id="1770301555001-455391_q" x1="457.28" x2="457.28" y1="536.29" y2="746.93" gradientTransform="matrix(1 0 0 -1 0 747.49)" gradientUnits="userSpaceOnUse"><stop offset=".05" stop-color="#473834"></stop><stop offset=".23" stop-color="#594640"></stop><stop offset=".52" stop-color="#715950"></stop><stop offset=".7" stop-color="#7a6056"></stop></linearGradient><linearGradient id="1770301555001-455391_r" x1="954.34" x2="954.34" y1="536.29" y2="746.93" gradientTransform="rotate(180 635.405 373.745)" gradientUnits="userSpaceOnUse"><stop offset=".05" stop-color="#473834"></stop><stop offset=".23" stop-color="#594640"></stop><stop offset=".52" stop-color="#715950"></stop><stop offset=".7" stop-color="#7a6056"></stop></linearGradient><linearGradient id="1770301555001-455391_t" x1="-590.5" x2="-590.5" y1="442.68" y2="439.16" gradientTransform="matrix(6.57 0 0 6.57 4235.16 -2789.15)" gradientUnits="userSpaceOnUse"><stop offset="0" stop-color="#a6694a"></stop><stop offset="1" stop-color="#4f2a1e"></stop></linearGradient><linearGradient id="1770301555001-455391_z" x1="-583.7" x2="-583.7" y1="442.68" y2="439.16" gradientTransform="matrix(6.57 0 0 6.57 4252.89 -2789.15)" gradientUnits="userSpaceOnUse"><stop offset="0" stop-color="#a6694a"></stop><stop offset="1" stop-color="#4f2a1e"></stop></linearGradient><linearGradient id="1770301555001-455391_ae" x1="386.86" x2="386.86" y1="536.28" y2="746.96" gradientTransform="matrix(1 0 0 -1 0 747.49)" gradientUnits="userSpaceOnUse"><stop offset=".05" stop-color="#473834"></stop><stop offset=".23" stop-color="#594640"></stop><stop offset=".52" stop-color="#715950"></stop><stop offset=".7" stop-color="#7a6056"></stop></linearGradient></defs><path d="M260.44 412.4c-1.27-9.07-18.48-78.3-29.5-109-9.31-25.91-23.77-95.73-42.79-95.73l-1.99 49.29s8.25 44.44 13.88 61.73c5.44 16.72 10.9 33.25 23.04 52.98 19.94 32.42 20.5 59.85 17.43 64.22-5.96 8.5-3.16 18-4.81 22.28-2.66 6.87 8.21 9.57 7.57 4.66 2.63.12 6.01 11.12 6.01 11.12-.39 4.99 1.04 8.78 4.9 5.19 12.24-11.38 9.24-.51 17.05-27.71 1.86-6.44-9.54-30.19-10.78-39.03ZM5.53 419.22c.11-8.91 3.9-72.08 13.53-110.17 6.75-26.69 24.14-101.34 43.18-101.34l1.86 49.24s-10.57 53.51-14.26 71.29c-3.12 15-6.5 28.27-14.03 47.33-13.72 34.68-13.51 60.37-10.54 64.46 7.38 10.11 5.19 21.52 7.36 40.33.84 7.28-10.46 3.57-11.51-16.09-8.27 1.63-4.27 19.27 2.04 26.94 4.08 4.95 6.9 14.34-2.1 7.01-11.87-9.65-10.93-12.93-20.61-38.95-2.3-6.14 4.97-31.11 5.08-40.04Z" class="at" fill="#f5bb51"></path><path d="M60.57 739.51c.39 7.18 52.3 9.06 53.72-.92 4.91-34.37-55.9-40.24-53.72.92" class="as" fill="#1a1626"></path><path d="M61.13 735.23c0 7.23 53.21 9.47 53.21 0 0-10.11-6.16-19.51-6.62-28.51-1.45-28.42-29.17-20.62-35.65-12.3-7.11 9.07-10.95 23.78-10.95 40.82Z" class="ba" fill="#302c3b"></path><path d="M103.44 698.32c.78 7.59-28.95 8.1-28.97-1.02 1.84-38.85-27.27-156.28 3.16-187.1 6.19-6.29 31.04 0 31.04 0 9.46 67.39-11.87 122.82-5.22 188.12Z" class="at" fill="#f5bb51"></path><path d="M189.7 739.51c-.36 7.18-52.3 9.06-53.72-.92-4.91-34.37 55.91-40.24 53.72.92" class="as" fill="#1a1626"></path><path d="M189.17 735.23c0 7.23-53.24 9.47-53.24 0 0-10.11 6.16-19.51 6.62-28.51 1.48-28.42 29.17-20.62 35.67-12.3 7.09 9.07 10.95 23.78 10.95 40.82Z" class="ba" fill="#302c3b"></path><path d="M146.85 698.32c-.78 7.59 28.95 8.1 29-1.02-1.86-38.85 27.25-156.28-3.16-187.1-6.19-6.29-31.06 0-31.06 0-9.44 67.39 11.87 122.82 5.22 188.12" class="at" fill="#f5bb51"></path><path d="M160.32 207.69c70.42-28.15 63.39-95.05 63.39-95.05H26.55s-7.03 66.91 63.37 95.05c0 0 14.08 3.52 35.19 3.52s35.21-3.52 35.21-3.52" class="ap" fill="#473834"></path><path d="M196.3 119.8c7.21 30.3 3.39 60.32-35.98 87.89 42.24-7.03 70.42-46.93 70.42-77.53z" fill="url(#1770301555001-455391_b)"></path><path d="M53.95 119.8c-7.21 30.3-3.42 60.32 35.97 87.89-42.24-7.03-70.4-46.93-70.4-77.53z" fill="url(#1770301555001-455391_c)"></path><path d="m188.15 207.67-20.12-6.47-85.83.07-19.97 6.46s-7.45 45.52-5.16 63.94c3.78 29.82 12.82 39.05 13.15 62.07.24 17.13-32.25 181.28-32.25 181.28 0 39.61 174.21 39.61 174.21 0 0 0-32.48-163.99-32.25-180.95.26-22.99 9.34-32.47 13.12-62.38 2.29-18.44-4.9-64.01-4.9-64.01Z" fill="#8e3ed6"></path><path d="M93.34 197.33v-30.02h63.43v29.89l11.26 3.98c0 28.08-36.74 44.89-42.98 44.89S82.2 229.25 82.2 201.25l11.14-3.93Z" class="at" fill="#f5bb51"></path><path d="M125.13 10.58c-51.1 0-75.72 41.6-72.63 95.1.63 10.72 3.62 26.25 7.31 39.54 7.67 27.64 48.1 55.45 65.33 55.45s57.64-27.81 65.3-55.45c3.69-13.27 6.67-28.8 7.31-39.54 3.08-53.51-21.53-95.1-72.61-95.1Z" class="ar" fill="#ffc940"></path><path d="M125.11 157.24c-11.96-5.27-12.06-.22-30.55 1.02 6.95 7.89 12.06 18 30.55 18 21.23 0 24.82-11.51 30.58-18-18.51-1.23-18.59-6.29-30.58-1.02" class="aq" fill="#d47706"></path><path d="M100.11 160.23c12.06 12.55 38.09 12.37 50.01 0-18.59 1.99-31.42 1.99-50.01 0" class="au" fill="#fff"></path><path d="M179.41 87.86c-11.12-6.62-31.01-7.43-38.9-2.91-1.68.89-1.22 5.68.22 5.09 11.23-4.68 28.37-4.92 38.93.48 1.4.73 1.43-1.7-.25-2.67Zm-108.59 0c11.12-6.62 31.01-7.43 38.9-2.91 1.68.89 1.24 5.68-.22 5.09-11.23-4.68-28.34-4.92-38.9.48-1.43.73-1.45-1.7.22-2.67Z" class="ay" fill="#966f42"></path><path d="M136.61 140.25c-1.22-.84-4.08.46-11.51.46s-10.26-1.3-11.48-.46c-1.45 1.02.87 5.65 11.48 5.65s12.96-4.61 11.51-5.65" class="az" fill="#f0a429"></path><path id="1770301555001-455391_d" d="M113.75 107.94c.43 3.37-1.86 7.38-8.2 10.39-4.05 1.91-12.45 4.17-23.47-.48-4.95-2.09-9.78-8.56-9.34-12.16 5.99-11.28 35.44-12.93 41.01 2.26Z" class="au" data-name="Path" fill="#fff"></path><circle id="1770301555001-455391_f" cx="93.77" cy="107.7" r="11.57" data-name="Oval" fill="url(#1770301555001-455391_e)"></circle><path id="1770301555001-455391_g" d="M88.01 107.49c0 8.01 11.58 8.01 11.58 0-.01-7.42-11.58-7.42-11.58 0" class="as" data-name="Path" fill="#1a1626"></path><path id="1770301555001-455391_h" d="M86.25 104.27c0 3.35 4.83 3.35 4.83 0 0-3.13-4.83-3.13-4.83 0" class="aw" data-name="Path" fill="#ab968c"></path><path id="1770301555001-455391_i" d="M113.82 108.4c-4.71-15.1-36.71-12.88-41.09-2.72 1.63-13.01 37.08-16.43 41.09 2.72" class="ax" data-name="Path" fill="#45332c"></path><path id="1770301555001-455391_j" d="M136.49 107.94c-.43 3.37 1.86 7.38 8.23 10.39 4.03 1.91 12.42 4.17 23.47-.48 4.95-2.09 9.75-8.56 9.32-12.16-5.98-11.28-35.41-12.93-41.01 2.26Z" class="au" data-name="Path" fill="#fff"></path><circle id="1770301555001-455391_l" cx="156.19" cy="107.7" r="11.57" data-name="Oval" fill="url(#1770301555001-455391_k)"></circle><path id="1770301555001-455391_m" d="M150.42 107.49c0 8.01 11.58 8.01 11.58 0 0-7.42-11.58-7.42-11.58 0" class="as" data-name="Path" fill="#1a1626"></path><path id="1770301555001-455391_n" d="M148.66 104.27c0 3.35 4.86 3.35 4.86 0 0-3.13-4.86-3.13-4.86 0" class="aw" data-name="Path" fill="#ab968c"></path><path id="1770301555001-455391_o" d="M136.44 108.4c4.68-15.1 36.69-12.93 41.06-2.72-1.63-13.01-37.06-16.43-41.06 2.72" class="ax" data-name="Path" fill="#45332c"></path><path d="M182.62 18.02c5.83-8.32-43.59-25.89-90.23-14.03-46.62 10.69-72.87 80.5-72.87 126.17 4.17 3.3 29.68-4.95 34.43-10.36 1.91-8.01 4.95-16.21 7.79-24.75 35.01-20.26 74.62-25.02 102.09-49.29-3.52 10.59 15.12 23.88 24.65 49.29 3.08 8.25 5.85 16.5 7.82 24.75 7.77 7.13 23.27 10.51 34.43 10.36.01-38.64-29.42-117.53-48.11-112.15Z" fill="url(#1770301555001-455391_p)"></path><path d="M27.92 123.22c32.23-42.93 136.65-40.02 154.7-105.2-35.08 54.71-145.92 63.92-154.7 105.2" class="ap" fill="#473834"></path><path d="M323.85 207.67c-19.02 0-33.55 69.8-42.79 95.73-14.23 39.88-26.05 100.14-27.31 109.21-1.24 8.83-17.34 32.19-16.34 38.79 1.91 12.76 8.98 22.54 11.89 22.53 6.5-11.02 17.47-20.24 14.75-2.4 2.15 7.41 11.27-5.42 13.02-17.44.47-3.3-4.27-11.65-5.55-18.2-1.03-5.24.07-30.02 20.02-62.43 12.14-19.73 14.85-34.4 20.12-53.43 4.86-17.52 14.21-63.06 14.21-63.06l-2.01-49.3Zm182.62 211.55c-.11-8.91-3.9-72.08-13.53-110.17-6.75-26.69-24.14-101.34-43.18-101.34l-1.86 49.24s10.57 53.51 14.26 71.29c3.12 15 6.5 28.27 14.03 47.33 13.72 34.68 13.51 60.37 10.54 64.46-7.38 10.11-5.19 21.52-7.36 40.33-.84 7.28 10.46 3.57 11.51-16.09 8.27 1.63 4.27 19.27-2.04 26.94-4.08 4.95-6.9 14.34 2.1 7.01 11.87-9.65 10.93-12.93 20.61-38.95 2.3-6.14-4.97-31.11-5.08-40.04Z" class="at" fill="#f5bb51"></path><path d="M451.43 739.51c-.39 7.18-52.3 9.06-53.72-.92-4.91-34.37 55.9-40.24 53.72.92" class="as" fill="#1a1626"></path><path d="M450.87 735.23c0 7.23-53.21 9.47-53.21 0 0-10.11 6.16-19.51 6.62-28.51 1.45-28.42 29.17-20.62 35.65-12.3 7.11 9.07 10.95 23.78 10.95 40.82Z" class="ba" fill="#302c3b"></path><path d="M408.56 698.32c-.78 7.59 28.95 8.1 28.97-1.02-1.84-38.85 27.27-156.28-3.16-187.1-6.19-6.29-31.04 0-31.04 0-9.46 67.39 11.87 122.82 5.22 188.12Z" class="at" fill="#f5bb51"></path><path d="M322.3 739.51c.36 7.18 52.3 9.06 53.72-.92 4.91-34.37-55.91-40.24-53.72.92" class="as" fill="#1a1626"></path><path d="M322.83 735.23c0 7.23 53.24 9.47 53.24 0 0-10.11-6.16-19.51-6.62-28.51-1.48-28.42-29.17-20.62-35.67-12.3-7.09 9.07-10.95 23.78-10.95 40.82Z" class="ba" fill="#302c3b"></path><path d="M365.15 698.32c.78 7.59-28.95 8.1-29-1.02 1.86-38.85-27.25-156.28 3.16-187.1 6.19-6.29 31.06 0 31.06 0 9.44 67.39-11.87 122.82-5.22 188.12" class="at" fill="#f5bb51"></path><path d="M422.06 207.69c70.42-28.15 63.39-95.05 63.39-95.05H288.31s-7.03 66.91 63.37 95.05c0 0 14.08 3.52 35.19 3.52s35.2-3.52 35.2-3.52Z" class="ap" fill="#473834"></path><path d="M458.05 119.8c7.21 30.3 3.39 60.32-35.98 87.89 42.24-7.03 70.42-46.93 70.42-77.53z" fill="url(#1770301555001-455391_q)"></path><path d="M315.7 119.8c-7.21 30.3-3.42 60.32 35.97 87.89-42.24-7.03-70.4-46.93-70.4-77.53z" fill="url(#1770301555001-455391_r)"></path><path d="m323.85 207.67 20.12-6.47 85.83.07 19.97 6.46s7.45 45.52 5.16 63.94c-3.78 29.82-12.82 39.05-13.15 62.07-.24 17.13 32.25 181.28 32.25 181.28 0 39.61-174.21 39.61-174.21 0 0 0 32.48-163.99 32.25-180.95-.26-22.99-9.34-32.47-13.12-62.38-2.29-18.44 4.9-64.01 4.9-64.01Z" fill="#d63e93"></path><path d="M418.66 197.33v-30.02h-63.43v29.89l-11.26 3.98c0 28.08 36.74 44.89 42.98 44.89s42.85-16.82 42.85-44.82l-11.14-3.93Z" class="at" fill="#f5bb51"></path><path d="M386.87 10.58c-51.1 0-75.72 41.6-72.63 95.1.63 10.72 3.62 26.25 7.31 39.54 7.67 27.64 48.1 55.45 65.33 55.45s57.64-27.81 65.3-55.45c3.69-13.27 6.67-28.8 7.31-39.54 3.08-53.51-21.52-95.1-72.61-95.1Z" class="ar" fill="#ffc940"></path><path d="M386.84 157.24c-11.96-5.27-12.06-.22-30.55 1.02 6.95 7.89 12.06 18 30.55 18 21.23 0 24.82-11.51 30.58-18-18.51-1.23-18.59-6.29-30.58-1.02" class="aq" fill="#d47706"></path><path d="M361.86 160.23c12.06 12.55 38.09 12.37 50.01 0-18.59 1.99-31.42 1.99-50.01 0" class="au" fill="#fff"></path><path d="M441.15 87.86c-11.12-6.62-31.01-7.43-38.9-2.91-1.68.89-1.22 5.68.22 5.09 11.23-4.68 28.37-4.92 38.93.48 1.4.73 1.43-1.7-.25-2.67Zm-108.59 0c11.12-6.62 31.01-7.43 38.9-2.91 1.68.89 1.24 5.68-.22 5.09-11.23-4.68-28.34-4.92-38.9.48-1.43.73-1.45-1.7.22-2.67Z" class="ay" fill="#966f42"></path><path d="M398.35 140.25c-1.22-.84-4.08.46-11.51.46s-10.26-1.3-11.48-.46c-1.45 1.02.87 5.65 11.48 5.65s12.96-4.61 11.51-5.65" class="az" fill="#f0a429"></path><path id="1770301555001-455391_s" d="M375.49 107.94c.43 3.37-1.86 7.38-8.2 10.39-4.05 1.91-12.45 4.17-23.47-.48-4.95-2.09-9.78-8.56-9.34-12.16 6-11.28 35.44-12.93 41.01 2.26Z" class="au" data-name="Path" fill="#fff"></path><circle id="1770301555001-455391_u" cx="355.52" cy="107.7" r="11.57" data-name="Oval" fill="url(#1770301555001-455391_t)"></circle><path id="1770301555001-455391_v" d="M349.74 107.49c0 8.01 11.58 8.01 11.58 0 0-7.42-11.58-7.42-11.58 0" class="as" data-name="Path" fill="#1a1626"></path><path id="1770301555001-455391_w" d="M347.99 104.27c0 3.35 4.83 3.35 4.83 0 0-3.13-4.83-3.13-4.83 0" class="aw" data-name="Path" fill="#ab968c"></path><path id="1770301555001-455391_x" d="M375.56 108.4c-4.71-15.1-36.71-12.88-41.09-2.72 1.63-13.01 37.09-16.43 41.09 2.72" class="ax" data-name="Path" fill="#45332c"></path><path id="1770301555001-455391_y" d="M398.23 107.94c-.43 3.37 1.86 7.38 8.23 10.39 4.03 1.91 12.42 4.17 23.47-.48 4.95-2.09 9.75-8.56 9.32-12.16-5.96-11.28-35.41-12.93-41.01 2.26Z" class="au" data-name="Path" fill="#fff"></path><circle id="1770301555001-455391_aa" cx="417.93" cy="107.7" r="11.57" data-name="Oval" fill="url(#1770301555001-455391_z)"></circle><path id="1770301555001-455391_ab" d="M412.15 107.49c0 8.01 11.58 8.01 11.58 0 0-7.42-11.58-7.42-11.58 0" class="as" data-name="Path" fill="#1a1626"></path><path id="1770301555001-455391_ac" d="M410.41 104.27c0 3.35 4.86 3.35 4.86 0-.01-3.13-4.86-3.13-4.86 0" class="aw" data-name="Path" fill="#ab968c"></path><path id="1770301555001-455391_ad" d="M398.18 108.4c4.68-15.1 36.69-12.93 41.06-2.72-1.63-13.01-37.05-16.43-41.06 2.72" class="ax" data-name="Path" fill="#45332c"></path><path d="M444.36 18.02c5.83-8.32-43.59-25.89-90.23-14.03-46.62 10.67-72.87 80.5-72.87 126.16 4.17 3.3 29.68-4.95 34.43-10.36 1.91-8.01 4.95-16.21 7.79-24.75 35.01-20.26 74.62-25.02 102.09-49.29-3.52 10.59 15.12 23.88 24.65 49.29 3.08 8.25 5.85 16.5 7.82 24.75 7.77 7.13 23.27 10.51 34.43 10.36.01-38.63-29.42-117.51-48.11-112.13" fill="url(#1770301555001-455391_ae)"></path><path d="M289.66 123.22c32.23-42.93 136.65-40.02 154.7-105.2-35.06 54.71-145.92 63.93-154.7 105.2" class="ap" fill="#473834"></path></g></svg>
