<svg xmlns="http://www.w3.org/2000/svg" style="" viewBox="0 0 512 532"><g><defs><linearGradient id="1770301554709-7208289_b" x1="209.85" x2="209.85" y1="-52.79" y2="101.58" gradientTransform="matrix(1 0 0 -1 0 479.21)" gradientUnits="userSpaceOnUse"><stop offset="0" stop-color="#555f69"></stop><stop offset=".46" stop-color="#535d66"></stop><stop offset=".74" stop-color="#4b555e"></stop><stop offset=".97" stop-color="#3f4850"></stop><stop offset="1" stop-color="#3c454d"></stop></linearGradient><linearGradient id="1770301554709-7208289_d" x1="356.38" x2="402.77" y1="283.83" y2="300.55" gradientTransform="matrix(1 0 0 -1 0 479.21)" gradientUnits="userSpaceOnUse"><stop offset="0" stop-color="#a1afb3"></stop><stop offset=".26" stop-color="#95a2a6"></stop><stop offset=".63" stop-color="#8a979a"></stop><stop offset="1" stop-color="#879396"></stop></linearGradient><linearGradient id="1770301554709-7208289_e" x1="419.8" x2="420.77" y1="165.27" y2="175.49" gradientTransform="matrix(1 0 0 -1 0 479.21)" gradientUnits="userSpaceOnUse"><stop offset="0" stop-color="#879396"></stop><stop offset=".37" stop-color="#8a979a"></stop><stop offset=".74" stop-color="#95a2a6"></stop><stop offset="1" stop-color="#a1afb3"></stop></linearGradient><linearGradient id="1770301554709-7208289_h" x1="152.97" x2="152.97" y1="242.15" y2="279.67" gradientTransform="matrix(1 0 0 -1 0 479.21)" gradientUnits="userSpaceOnUse"><stop offset="0" stop-color="#a6694a"></stop><stop offset="1" stop-color="#4f2a1e"></stop></linearGradient><linearGradient id="1770301554709-7208289_i" x1="266.38" x2="266.38" y1="242.15" y2="279.67" gradientTransform="matrix(1 0 0 -1 0 479.21)" gradientUnits="userSpaceOnUse"><stop offset="0" stop-color="#a6694a"></stop><stop offset="1" stop-color="#4f2a1e"></stop></linearGradient><linearGradient id="1770301554709-7208289_j" x1="386.42" x2="403.36" y1="272.92" y2="290.92" gradientTransform="matrix(1 0 0 -1 0 479.21)" gradientUnits="userSpaceOnUse"><stop offset="0" stop-color="#a1afb3"></stop><stop offset=".26" stop-color="#95a2a6"></stop><stop offset=".63" stop-color="#8a979a"></stop><stop offset="1" stop-color="#879396"></stop></linearGradient><linearGradient id="1770301554709-7208289_k" x1="402.13" x2="400.1" y1="267.56" y2="282.32" gradientTransform="matrix(1 0 0 -1 0 479.21)" gradientUnits="userSpaceOnUse"><stop offset="0" stop-color="#879396"></stop><stop offset=".37" stop-color="#8a979a"></stop><stop offset=".74" stop-color="#95a2a6"></stop><stop offset="1" stop-color="#a1afb3"></stop></linearGradient><radialGradient id="1770301554709-7208289_c" cx="2021.54" cy="537.62" r="546" fx="2021.54" fy="537.62" gradientTransform="matrix(.55 0 0 -.55 115.13 383.33)" gradientUnits="userSpaceOnUse"><stop offset="0" stop-color="#f2f9ff"></stop><stop offset=".39" stop-color="#eff6fc"></stop><stop offset=".68" stop-color="#e6edf3"></stop><stop offset=".94" stop-color="#d6dde3"></stop><stop offset="1" stop-color="#d1d8de"></stop></radialGradient><radialGradient id="1770301554709-7208289_f" cx="-1142.46" cy="834.62" r="18" fx="-1142.46" fy="834.62" gradientTransform="matrix(.55 0 0 -.55 115.13 383.33)" gradientUnits="userSpaceOnUse"><stop offset=".51" stop-color="#f0a429" stop-opacity=".8"></stop><stop offset="1" stop-color="#f0a429" stop-opacity="0"></stop></radialGradient><radialGradient id="1770301554709-7208289_g" cx="20.54" cy="-107.38" r="67" fx="20.54" fy="-107.38" gradientTransform="matrix(.55 0 0 -.55 115.13 383.33)" gradientUnits="userSpaceOnUse"><stop offset=".51" stop-color="#f0a429" stop-opacity=".8"></stop><stop offset="1" stop-color="#f0a429" stop-opacity="0"></stop></radialGradient></defs><path d="M370.8 420.76c7.16 3.94 13.7 9.85 19.62 17.74 5.91 7.88 11.02 16.57 15.31 26.06s7.7 18.45 10.21 26.87 3.76 15.14 3.76 20.15c0 3.58-5.91 6.63-17.74 9.13q-17.745 3.765-47.82 6.45c-20.06 1.79-42.54 3.04-67.44 3.76s-50.6 1.07-77.12 1.07-52.22-.36-77.12-1.07c-24.9-.72-47.38-1.97-67.44-3.76s-35.92-3.94-47.56-6.45-17.47-5.55-17.47-9.13c0-5.01 1.17-11.73 3.49-20.15 2.33-8.42 5.73-17.37 10.21-26.87 4.48-9.49 9.67-18.18 15.58-26.06s12.45-13.8 19.61-17.74c5.01-2.51 11.73-5.73 20.15-9.67S86.67 403.12 96.7 399s19.71-7.79 29.02-11.02c9.32-3.22 17.2-5.38 23.65-6.45 10.03-1.79 22.66-2.95 37.89-3.49s30.36-.54 45.41 0 27.59 1.7 37.62 3.49q10.215 1.605 24.18 6.45c9.32 3.22 18.9 6.81 28.75 10.75s19.08 7.97 27.67 12.09 15.23 7.43 19.88 9.94" fill="url(#1770301554709-7208289_b)"></path><path d="M142.41 386.91c0-7.88 4.57-14.24 13.7-19.08s20.33-7.97 33.59-9.4 26.6-1.43 40.03 0 24.63 4.57 33.59 9.4c8.96 4.84 13.43 11.2 13.43 19.08 0 7.16-4.48 12.81-13.43 16.93-8.96 4.12-20.15 6.89-33.59 8.33-13.43 1.43-26.78 1.43-40.03 0-13.26-1.43-24.45-4.21-33.59-8.33-9.13-4.12-13.7-9.76-13.7-16.93" fill="#3c454d"></path><path d="M144.56 383.15V327.8h130.59v55.35c0 6.81-4.39 12.27-13.17 16.39s-19.71 6.81-32.78 8.06-26.06 1.25-38.96 0-23.73-3.94-32.51-8.06-13.17-9.58-13.17-16.39" fill="url(#1770301554709-7208289_c)"></path><path d="M103.03 88.66s-.54-2.95-1.61-8.86-1.07-12.9 0-20.96 5.01-15.67 11.82-22.84z" class="ac" fill="#f9a307"></path><path d="M104.89 80.07s.36-3.58 1.07-10.75 3.31-15.58 7.79-25.26 12.09-17.91 22.84-24.72l-31.71 60.72" class="ac" fill="#f9a307"></path><path d="m365.09 48.44 1.07-1.07s1.52 5.01 4.57 15.04c3.04 10.03 6.81 22.84 11.29 38.42s9.13 31.88 13.97 48.9 9.05 32.87 12.63 47.56 6.09 25.8 7.52 33.32c-.72 4.3-2.33 8.86-4.84 13.7s-4.66 10.3-6.45 16.39-1.97 12.8-.54 20.15 5.73 15.31 12.9 23.92c.72.36 1.25 1.52 1.61 3.49s0 3.31-1.07 4.03c-3.58.72-7.08 2.51-10.48 5.38s-6.89 5.46-10.48 7.79c-3.58 2.33-7.35 3.22-11.29 2.69-3.94-.54-8.24-3.67-12.9-9.4-3.22-4.66-5.19-10.12-5.91-16.39s.27-12.27 2.95-18c2.69-5.73 7.61-10.03 14.77-12.9 5.02-2.15 7.7-5.11 8.06-8.86s.54-12.45.54-26.06c-.36-2.51-.72-5.64-1.07-9.4s-.54-5.64-.54-5.64c-5.38-31.53-10.03-60.37-13.97-86.52s-6.99-47.11-9.13-62.87c-2.15-15.77-3.22-23.65-3.22-23.65M405.39 301c.36-9.32-2.15-15.77-7.52-19.35s-10.93-4.03-16.66-1.34-8.78 8.69-9.13 18c-.72 10.39 1.61 17.38 6.99 20.96 5.37 3.58 10.93 3.85 16.66.81s8.96-9.4 9.67-19.08" class="y" fill="#6e787a"></path><path d="m366.17 47.36 3.22.54s1.43 5.01 4.3 15.04 6.45 22.75 10.75 38.15 8.78 31.53 13.43 48.36c4.66 16.84 8.78 32.51 12.36 47.02s5.91 25.53 6.99 33.05c-.72 4.3-2.33 8.96-4.84 13.97s-4.66 10.48-6.45 16.39-1.97 12.54-.54 19.88c1.43 7.35 5.73 15.31 12.9 23.92.72.72 1.25 1.97 1.61 3.76s0 3.04-1.07 3.76c-3.58.72-7.08 2.51-10.48 5.38s-6.89 5.46-10.48 7.79c-3.58 2.33-7.35 3.22-11.29 2.69-3.94-.54-8.06-3.67-12.36-9.4-3.58-4.66-5.73-10.12-6.45-16.39s.36-12.27 3.22-18c2.87-5.73 7.7-10.03 14.51-12.9 5.38-2.15 8.15-5.11 8.33-8.86.18-3.76.45-12.45.81-26.06-.36-2.51-.81-5.64-1.34-9.4-.54-3.76-.8-5.64-.8-5.64-5.38-31.53-10.03-60.37-13.97-86.52s-6.98-47.11-9.13-62.87c-2.15-15.77-3.22-23.65-3.22-23.65m40.29 252.56c.36-9.32-2.15-15.67-7.52-19.08-5.37-3.4-10.93-3.85-16.66-1.34s-8.78 8.42-9.13 17.74c-.72 10.39 1.61 17.38 6.99 20.96 5.37 3.58 10.93 3.85 16.66.81s8.96-9.4 9.67-19.08" fill="url(#1770301554709-7208289_d)"></path><path d="M416.67 312.83c-.72 0-.9-1.7-.54-5.11.36-3.4 1.25-4.92 2.69-4.57q6.45 1.08 5.64 6.45c-.54 3.58-3.14 4.66-7.79 3.22" fill="url(#1770301554709-7208289_e)"></path><path d="M333.87 207.56c.52-2.06 2.84-4.78 6.97-8.13 4.13-3.36 8.13-4.9 12-4.64s6.06 5.04 6.58 14.32c1.03 12.9-.78 23.87-5.42 32.9s-7.48 16.13-8.52 21.29c-2.58 8.26-5.81 13.03-9.68 14.32s-7.48.64-10.84-1.94-5.03-5.68-5.03-9.29q-1.545-13.935 4.26-31.74c3.87-11.87 7.1-20.9 9.68-27.1" class="v" fill="#ffc940"></path><path d="M350.5 204.08q5.805-2.91 3.63 12.33c-1.45 10.16-3.63 18.63-6.53 25.4-2.9 5.81-7.01 10.16-12.33 13.07s-5.08 1.45.73-4.35c3.87-4.84 4.11-8.95.73-12.34-3.38-3.38-3.15-7.49.73-12.34 3.87-5.81 6.04-10.41 6.53-13.79s2.66-6.05 6.53-7.98" fill="url(#1770301554709-7208289_f)"></path><path d="M350.5 204.08q5.805-2.91 3.63 12.33c-1.45 10.16-3.63 18.63-6.53 25.4-2.9 5.81-7.01 10.16-12.33 13.07s-5.08 1.45.73-4.35c3.87-4.84 4.11-8.95.73-12.34-3.38-3.38-3.15-7.49.73-12.34 3.87-5.81 6.04-10.41 6.53-13.79s2.66-6.05 6.53-7.98" class="ae" fill="#faba37"></path><path d="M351.07 203.89c1.87-.8 2.94.07 3.2 2.6.26 2.54.13 5.67-.4 9.41q-.795-8.01-2.4-8.01c-1.605 0-2.73 1.67-5.01 5-2.27 3.33-5.27 7.54-9.01 12.61 3.74-5.61 6-10.14 6.81-13.61q1.2-5.205 6.81-8.01" class="ae" fill="#faba37"></path><path d="M59.8 209.09c.52-9.29 2.71-14.07 6.58-14.32 3.87-.26 7.87 1.29 12 4.64 4.13 3.36 6.45 6.06 6.97 8.13 3.1 6.2 6.58 15.23 10.45 27.1s5.29 22.45 4.25 31.74c-.52 3.62-2.45 6.71-5.81 9.29s-6.97 3.22-10.84 1.93-7.09-6.06-9.67-14.32c-1.03-5.16-3.87-12.26-8.51-21.29s-6.45-20-5.41-32.9" class="v" fill="#ffc940"></path><path d="M72.38 241.91c-2.14-4.54-3.93-10.01-5.4-16.41-1.47-6.41-2.2-11.87-2.2-16.41s1.2-6.27 3.6-5.21c3.74 1.6 6 4.2 6.81 7.81s3.07 8.07 6.81 13.41c2.4 4 3.07 7.34 2 10.01s-2.07 5.14-3 7.41c-.94 2.27-.2 4.74 2.2 7.41 3.74 4.27 4.87 6.41 3.4 6.41s-3.8-1.4-7.01-4.2c-3.2-2.8-5.61-6.21-7.21-10.21" fill="url(#1770301554709-7208289_g)"></path><path d="M72.38 241.91c-2.14-4.54-3.93-10.01-5.4-16.41-1.47-6.41-2.2-11.87-2.2-16.41s1.2-6.27 3.6-5.21c3.74 1.6 6 4.2 6.81 7.81s3.07 8.07 6.81 13.41c2.4 4 3.07 7.34 2 10.01s-2.07 5.14-3 7.41c-.94 2.27-.2 4.74 2.2 7.41 3.74 4.27 4.87 6.41 3.4 6.41s-3.8-1.4-7.01-4.2c-3.2-2.8-5.61-6.21-7.21-10.21" class="ae" fill="#faba37"></path><path d="M65.51 215.87c-.53-3.74-.67-6.87-.4-9.41s1.34-3.41 3.2-2.6q5.61 2.805 6.81 8.01c.8 3.47 3.07 8.01 6.81 13.61-3.74-5.07-6.74-9.28-9.01-12.61s-4.01-5.01-5.21-5.01-1.94 2.67-2.2 8.01" class="ae" fill="#faba37"></path><path d="M209.68 53.12c45.48 0 79.11 15.49 100.88 46.45s31.21 70.15 28.31 117.57q0 10.155-4.35 30.48c-2.91 13.55-6.05 27.57-9.43 42.09s-7.02 25.16-10.88 31.93c-5.81 11.61-16.45 24.67-31.93 39.19q-23.22 21.78-42.09 27.57c-6.77 1.94-16.93 2.9-30.48 2.9s-24.19-.97-31.93-2.91c-11.61-3.87-25.16-13.06-40.64-27.58s-26.13-27.58-31.93-39.19c-3.87-6.77-7.74-17.42-11.61-31.93-3.87-14.52-7.02-28.55-9.44-42.09q-3.63-20.325-3.63-30.48c-2.91-47.42 6.53-86.6 28.3-117.57 21.77-30.96 55.4-46.44 100.88-46.44" class="v" fill="#ffc940"></path><path d="M118.36 180.62c-4.27 4.54-6.14 8.54-5.61 12.01s2.27 3.87 5.21 1.2c4.01-3.47 9.21-5.87 15.62-7.21a86.2 86.2 0 0 1 19.42-1.8c6.54.13 12.22.47 17.02 1 2.4.53 4.2-.26 5.41-2.4 1.2-2.14 1.8-4.47 1.8-7.01s-.94-4.34-2.8-5.4c-2.94-1.34-8.14-2-15.62-2s-15.15.94-23.02 2.8c-7.87 1.87-13.68 4.8-17.42 8.81m182.6 0c4.27 4.54 6.14 8.54 5.61 12.01s-2.27 3.87-5.21 1.2c-4.01-3.47-9.21-5.87-15.62-7.21a86.2 86.2 0 0 0-19.42-1.8c-6.54.13-12.22.47-17.02 1-2.4.53-4.2-.26-5.4-2.4s-1.8-4.47-1.8-7.01.94-4.34 2.8-5.4c2.94-1.34 8.14-2 15.62-2s15.15.94 23.02 2.8c7.87 1.87 13.68 4.8 17.42 8.81" fill="#d48100"></path><path d="M209.73 316.46c2.14 0 5.74-.34 10.81-1 5.07-.67 10.87-1.2 17.42-1.6 6.54-.4 12.74-.34 18.62.2 0 0-.67 1.54-2 4.61s-3.74 6.54-7.21 10.41-8.28 7.34-14.41 10.41c-6.14 3.07-13.88 4.61-23.22 4.61s-17.08-1.54-23.22-4.61-10.94-6.54-14.41-10.41-5.87-7.34-7.21-10.41-2-4.61-2-4.61c5.87-.53 12.08-.6 18.62-.2s12.34.94 17.42 1.6c5.07.67 8.67 1 10.81 1" class="af" fill="#f0a429"></path><path d="M251.06 318.12c-6.45 6.81-14.96 11.29-25.53 13.43q-15.855 3.225-31.71-.27c-15.855-3.495-19.08-6.72-25.53-13.17 15.4 1.43 29.2 2.15 41.38 2.15s25.97-.72 41.38-2.15" fill="#fff"></path><path d="M52.77 141.86s.8-2.78 2.42-8.33 4.21-11.91 7.79-19.08 8.33-13.7 14.24-19.61 13.17-9.22 21.76-9.94zm17.2 51.06s-.54-2.51-1.61-7.52-1.88-11.02-2.42-18c-.54-6.99-.27-13.61.81-19.88 1.07-6.27 3.58-10.48 7.52-12.63 1.43 10.75 1.7 20.51.8 29.29s-1.97 15.77-3.22 20.96l-1.88 7.79" class="ac" fill="#f9a307"></path><path d="M54.92 117.68s1.7-2.87 5.11-8.6c3.4-5.73 8.78-11.46 16.12-17.2s16.93-8.78 28.75-9.13z" class="ac" fill="#f9a307"></path><path d="M72.65 84.9s1.7-.98 5.11-2.95c3.4-1.97 7.79-2.95 13.17-2.95s11.1 2.87 17.2 8.6l-35.47-2.69m8.05 42.98c-3.94 6.81-7.43 14.06-10.48 21.76-3.04 7.7-5.46 14.24-7.25 19.61-1.79 5.38-2.69 8.06-2.69 8.06l-.54-8.86c-.36-5.91-.18-13.34.54-22.3s2.6-18 5.64-27.14c3.04-9.13 7.79-16.93 14.24-23.38l.54 32.24" class="ac" fill="#f9a307"></path><path d="m102.32 82.15 17.42 24.67c-11.61 1.94-19.84 10.16-24.68 24.68s-7.5 31.21-7.98 50.08-.24 35.32.73 49.35 1.45 21.05 1.45 21.05-1.94-7.02-5.81-21.04c-3.87-14.03-7.26-29.27-10.16-45.72-3.87-23.22-4.84-45.72-2.9-67.5 1.94-21.77 12.58-33.63 31.94-35.57" class="ac" fill="#f9a307"></path><path d="M119.81 112.11c-14.11 3.19-23.42 16.96-27.93 41.29s-5.37 57.07-2.56 98.21c-.35-.5-1.35-5.37-2.99-14.62s-2.9-20.72-3.76-34.43c-.86-13.7-.59-27.63.81-41.81 1.41-14.18 4.44-26.42 9.1-36.75s11.99-16.57 21.99-18.74l5.35 6.84" class="ad" fill="#e68c00"></path><path d="M108.66 99.95c-6.81 1.43-12.54 4.66-17.2 9.67s-8.42 10.3-11.29 15.85-4.92 10.3-6.18 14.24c-1.25 3.94-1.88 5.91-1.88 5.91s.27-2.42.8-7.25c.54-4.84 1.88-10.57 4.03-17.2s5.46-12.54 9.94-17.74c4.48-5.19 10.83-7.97 19.08-8.33l2.69 4.84" class="ah" fill="#ffb80d"></path><path d="M104.89 90.81c-8.24 0-15.31 2.95-21.22 8.86s-10.48 11.73-13.7 17.47c-3.22 5.73-4.84 8.6-4.84 8.6l1.88-5.91c1.25-3.94 3.31-8.6 6.18-13.97 2.87-5.38 6.72-10.03 11.56-13.97s10.83-5.91 18-5.91l2.15 4.84" class="ah" fill="#ffb80d"></path><path d="M192.26 279.03c2.49.44 5.07 1.15 7.72 2.14 2.65.98 5.77 1.54 9.35 1.65 4.17-.29 7.63-.97 10.38-2.03 2.76-1.06 5.43-1.61 8.01-1.67 1.99.35 3.13 1.19 3.41 2.53q.42 2.01-2.97 3.72c-1.76 1.23-4.61 2.79-8.53 4.67s-7.19 2.84-9.77 2.91c-2.58.06-5.9-.79-9.97-2.53-4.06-1.74-7-3.3-8.82-4.64s-2.59-2.77-2.33-4.27 1.44-2.32 3.52-2.47" class="af" fill="#f0a429"></path><path d="M101.67 82.75s4.48 3.49 13.43 10.48c8.96 6.98 23.11 16.03 42.45 27.14 19.35 11.1 44.42 22.75 75.23 34.93s68.25 23.46 112.31 33.85c-26.87 3.94-52.76 4.3-77.65 1.07-24.9-3.22-47.82-8.78-68.78-16.66s-38.96-17.01-54-27.4-26.42-21.14-34.12-32.24-10.66-21.49-8.86-31.17" class="ac" fill="#f9a307"></path><path d="M350.2 135.62c.03 5.66-.79 6.67-2.47 3.04-1.67-3.64-5.1-9-10.27-16.08-5.18-7.09-12.63-12.9-22.37-17.45s-22.46-4.6-38.15-.17q-14.655 4.365-40.53 6.75c-25.875 2.385-35.09 2.17-53.53 1.75s-34.82-2.28-49.15-5.58-23.94-8.6-28.82-15.88c-4.89-7.29-1.85-17.17 9.09-29.65q3.915-4.71 15.36-12.72c11.445-8.01 18.25-10.16 31.86-14.44 13.61-4.29 31.24-6.58 52.89-6.88q45.45.3 72.63 12.42c18.12 8.08 31.63 18.18 40.54 30.3 8.92 12.12 14.92 23.98 18.02 35.58 3.09 11.61 4.73 21.28 4.9 29.03" class="ah" fill="#ffb80d"></path><path d="M113.49 61.8c-4.3 5.73-6.72 10.93-7.25 15.58-.54 4.66 1.16 5.73 5.11 3.22 6.09-3.94 14.87-9.13 26.33-15.58s24.27-12.09 38.42-16.93 28.39-6.89 42.72-6.18c-12.9 1.07-25.97 4.3-39.23 9.67-13.26 5.38-24.72 11.37-34.39 18q-14.505 9.945-18.54 18.54c-2.69 5.73-.27 9.49 7.25 11.29 11.46 2.87 20.96 2.69 28.48-.54s15.23-7.62 23.11-13.17 17.47-11.02 28.75-16.39c11.29-5.38 26.42-9.13 45.41-11.29q-15.045 4.305-31.44 12.63c-10.93 5.55-20.33 11.2-28.21 16.93s-12.36 10.57-13.43 14.51 2.78 5.91 11.56 5.91 24.63-3.04 47.56-9.13c27.94-7.52 51.41-9.67 70.4-6.45s30.09 14.69 33.32 34.39c1.43 7.52 1.7 16.39.81 26.6-.9 10.21-2.42 20.87-4.57 31.98a423 423 0 0 1-6.45 31.44q-3.765 15.315-6.45 24.99c-1.79 6.45-2.69 9.67-2.69 9.67l.81-11.29c.54-7.52 1.07-17.11 1.61-28.75s.54-23.92 0-36.81c-.54-12.9-2.06-24.72-4.57-35.47q-3.765-16.125-11.82-24.18c-4.3-4.66-12.99-6-26.06-4.03s-30.9 5.11-53.47 9.4c-19.71 3.94-39.23 5.28-58.58 4.03s-35.92-4.66-49.71-10.21-22.48-12.81-26.06-21.76c-3.58-8.96.18-19.17 11.29-30.63" class="ac" fill="#f9a307"></path><path d="M304.62 108.65c10.32.95 17.92 6.22 22.78 15.81 4.86 9.6 7.93 21.28 9.22 35.06s1.47 27.57.57 41.4c-.91 13.82-2.22 25.61-3.94 35.36s-2.87 15.01-3.44 15.78c2.94-41.44 2.1-74.47-2.52-99.1s-13.71-38.15-27.27-40.53c-5.93-1.05-9.46-2.11-10.58-3.18q-1.68-1.605 15.18-.6" class="ad" fill="#e68c00"></path><path d="M101.67 82.75c5.37 11.82 15.58 23.11 30.63 33.85 15.04 10.75 33.05 20.15 54 28.21 20.96 8.06 43.17 13.97 66.63 17.74s46.58 4.57 69.32 2.42c22.75-2.15 43.35-7.88 61.8-17.2s33.05-22.93 43.8-40.84c-8.24 21.85-20.33 38.87-36.27 51.05q-23.91 18.27-55.08 24.45c-20.78 4.12-42.27 5.19-64.49 3.22-22.21-1.97-43.8-6.36-64.76-13.17q-31.44-10.215-56.43-24.99c-16.66-9.85-29.47-20.42-38.42-31.71-8.96-11.29-12.54-22.3-10.75-33.05" class="ad" fill="#e68c00"></path><path d="M117.57 220.69c1.87-9.34 6.27-16.01 13.21-20.02q10.41-6 22.62-4.2c8.14 1.2 15.22 5.07 21.22 11.61s8.88 15.68 8.61 27.43c-2.67-1.07-7.21-1.2-13.61-.4-6.41.8-13.28 1.47-20.62 2s-13.94-.26-19.82-2.4q-8.805-3.21-11.61-14.01" class="ab" fill="#edebea"></path><path d="M171.74 218.32c0 2.59-.48 5.02-1.46 7.29s-2.32 4.26-4.04 5.99-3.71 3.07-5.99 4.04c-2.27.97-4.7 1.46-7.29 1.46s-5.02-.49-7.29-1.46-4.26-2.32-5.99-4.04-3.07-3.71-4.04-5.99c-.97-2.27-1.46-4.7-1.46-7.29s.49-5.02 1.46-7.29 2.32-4.26 4.04-5.99 3.71-3.07 5.99-4.04c2.27-.97 4.7-1.46 7.29-1.46s5.02.49 7.29 1.46 4.26 2.32 5.99 4.04 3.07 3.71 4.04 5.99c.97 2.27 1.46 4.7 1.46 7.29" fill="url(#1770301554709-7208289_h)"></path><path d="M163.6 218.02c0 3.66-1.09 6.41-3.27 8.24s-4.67 2.75-7.46 2.75-5.28-.92-7.46-2.75-3.27-4.58-3.27-8.24 1.09-6.11 3.27-7.85 4.67-2.62 7.46-2.62 5.28.87 7.46 2.62 3.27 4.36 3.27 7.85" class="w" fill="#1a1626"></path><path d="M165.06 212.65c0 1.92-.65 3.19-1.96 3.8s-2.62.61-3.93 0-1.96-1.88-1.96-3.8q.27-2.355 2.22-3.27c1.31-.61 2.58-.61 3.8 0s1.83 1.7 1.83 3.27" class="ab" fill="#edebea"></path><path d="M181.61 221.92c-5.87-10.14-13.15-16.61-21.82-19.42-8.67-2.8-17.01-2.54-25.02.8-8.01 3.33-13.75 9.14-17.21 17.42 0-6.94 2.73-12.74 8.2-17.42s12.08-7.41 19.82-8.2c7.74-.8 15.01.8 21.82 4.8s11.54 11.34 14.21 22.02" class="ag" fill="#bd751b"></path><path d="M301.73 220.67c-1.87 7.21-5.74 11.87-11.61 14.01s-12.47 2.93-19.82 2.4-14.21-1.2-20.62-2-10.94-.67-13.61.4c-.27-11.74 2.6-20.88 8.61-27.43 6-6.54 13.08-10.41 21.22-11.61s15.68.2 22.62 4.2c6.94 4.01 11.34 10.68 13.21 20.02" class="ab" fill="#edebea"></path><path d="M285.16 218.32c0 2.59-.49 5.02-1.46 7.29s-2.32 4.26-4.04 5.99-3.71 3.07-5.99 4.04c-2.27.97-4.69 1.46-7.29 1.46s-5.02-.49-7.29-1.46-4.26-2.32-5.99-4.04-3.07-3.71-4.04-5.99c-.97-2.27-1.46-4.7-1.46-7.29s.49-5.02 1.46-7.29 2.32-4.26 4.04-5.99 3.71-3.07 5.99-4.04c2.27-.97 4.7-1.46 7.29-1.46s5.02.49 7.29 1.46 4.26 2.32 5.99 4.04 3.07 3.71 4.04 5.99c.97 2.27 1.46 4.7 1.46 7.29" fill="url(#1770301554709-7208289_i)"></path><path d="M255.68 218.02c0-3.49 1.09-6.11 3.27-7.85s4.67-2.62 7.46-2.62 5.28.87 7.46 2.62 3.27 4.36 3.27 7.85c0 3.66-1.09 6.41-3.27 8.24s-4.67 2.75-7.46 2.75-5.28-.92-7.46-2.75-3.27-4.58-3.27-8.24" class="w" fill="#1a1626"></path><path d="M254.31 212.65q0-2.355 1.83-3.27c1.22-.61 2.49-.61 3.8 0s2.05 1.7 2.22 3.27c0 1.92-.65 3.19-1.96 3.8s-2.62.61-3.93 0-1.96-1.88-1.96-3.8" class="ab" fill="#edebea"></path><path d="M237.71 221.88q4.005-16.02 14.22-22.02c6.81-4.01 14.08-5.6 21.82-4.8s14.35 3.54 19.82 8.21 8.21 10.48 8.2 17.42c-3.47-8.28-9.21-14.09-17.22-17.42-8.01-3.34-16.35-3.6-25.03-.8s-15.95 9.27-21.83 19.42" class="ag" fill="#bd751b"></path><path d="M201.62 116.6c16.84 5.73 31.79 10.21 44.87 13.43s25.62 5.19 37.62 5.91 24.63.09 37.89-1.88 28.39-5.28 45.41-9.94c17.01-4.66 37.17-10.39 60.45-17.2-7.88 18.63-19.35 33.32-34.39 44.07s-32.15 18.18-51.32 22.3-39.32 5.46-60.45 4.03c-21.14-1.43-41.74-5.01-61.8-10.75-20.06-5.73-38.6-12.99-55.62-21.76-17.01-8.78-31.08-18.45-42.18-29.02s-17.91-21.59-20.42-33.05c7.52 10.03 17.2 16.66 29.02 19.88q17.73 4.83 36.54 6.72c18.81 1.89 24 3.67 34.39 7.25" class="ac" fill="#f9a307"></path><path d="M186.58 102.1c.72-5.38 4.66-10.83 11.82-16.39 7.16-5.55 16.03-10.83 26.6-15.85 10.57-5.01 21.49-9.22 32.78-12.63 11.29-3.4 21.49-5.64 30.63-6.72 9.13-1.07 15.67-.18 19.62 2.69 10.39 6.81 18.54 13.61 24.45 20.42s11.1 12.99 15.58 18.54 9.58 10.03 15.31 13.44c5.73 3.4 13.53 5.37 23.38 5.91s23.56-.98 41.11-4.57c-9.32 12.54-21.85 22.39-37.62 29.56-15.77 7.16-32.96 12.09-51.59 14.78s-37.08 3.31-55.35 1.88-34.93-4.39-49.98-8.86c-15.04-4.48-26.87-10.39-35.47-17.74s-12.36-15.5-11.29-24.45" class="ah" fill="#ffb80d"></path><path d="M427.86 106.94c-10.39 14.33-21.85 24.54-34.39 30.63s-25.43 9.32-38.69 9.67-26.06-1.07-38.42-4.3c-12.36-3.22-23.38-7.08-33.05-11.56s-17.38-8.51-23.11-12.09-8.6-5.38-8.6-5.38l11.02 4.57c7.35 3.04 17.38 6.18 30.09 9.4q19.08 4.83 42.18 6.18c15.4.9 31.17-.63 47.29-4.57s31.35-11.46 45.68-22.57" class="ac" fill="#f9a307"></path><path d="M492.35 278.9c-.72 2.51.72 4.21 4.3 5.11s7.52 1.52 11.82 1.88c2.87 0 3.85.9 2.95 2.69s-2.78 2.69-5.64 2.69c-16.12.72-28.12-.63-36-4.03s-13.7-7.97-17.47-13.7c-3.76-5.73-7.25-12-10.48-18.81-3.22-6.81-7.97-13.43-14.24-19.88s-16.03-11.64-29.29-15.58c-21.85-22.93-41.47-43.26-58.84-60.99-17.38-17.74-30.99-31.61-40.84-41.64s-14.78-15.04-14.78-15.04l-.54-1.61L394 188.66h3.22c10.03 9.67 17.28 16.66 21.76 20.96s7.79 7.35 9.94 9.13c2.15 1.79 4.84 3.22 8.06 4.3 1.07.36 1.88 2.06 2.42 5.11.54 3.04 1.79 5.82 3.76 8.33s5.82 3.22 11.56 2.15c8.24-2.15 15.85-1.97 22.84.54s12 7.08 15.04 13.7c3.04 6.63 2.95 15.31-.27 26.06m-33.84-8.64c6.45 7.16 12.72 9.94 18.81 8.33s10.03-5.46 11.82-11.56q2.685-9.135-5.91-18.81c-5.73-6.45-11.64-8.78-17.74-6.99-6.09 1.79-10.21 5.55-12.36 11.29-2.15 5.73-.36 11.64 5.38 17.74" class="y" fill="#6e787a"></path><path d="M493.42 277.82c-1.07 2.87.18 4.57 3.76 5.11s8.06 1.17 13.43 1.88c1.07.36 1.52 1.34 1.34 2.95s-.98 2.42-2.42 2.42c-17.2 1.07-29.91 0-38.16-3.22-8.24-3.22-14.24-7.79-18-13.7s-7.16-12.27-10.21-19.08-7.7-13.53-13.97-20.15c-6.27-6.63-16.39-12.09-30.36-16.39-21.85-22.93-41.47-43.26-58.84-60.99-17.37-17.74-31.17-31.61-41.38-41.64L283.3 99.97l1.07-1.07 106.4 91.35 6.99-2.69c10.39 9.67 17.74 16.75 22.03 21.22 4.3 4.48 7.52 7.52 9.67 9.13s5.01 2.95 8.6 4.03c1.07.36 1.79 2.06 2.15 5.11s1.52 5.82 3.49 8.33 5.82 3.04 11.56 1.61c8.24-1.79 15.85-1.43 22.84 1.07 6.98 2.51 12 7.08 15.04 13.7s3.14 15.31.27 26.06m-34.38-8.6c6.45 7.16 12.72 9.85 18.81 8.06q9.135-2.685 12.09-11.82t-6.18-18.27c-5.73-6.45-11.56-8.78-17.47-6.99s-10.03 5.55-12.36 11.29c-2.33 5.73-.63 11.64 5.11 17.74" fill="url(#1770301554709-7208289_j)"></path><path d="M397.87 187.62c-1.43 1.07-3.31 2.33-5.64 3.76s-3.49 2.15-3.49 2.15L284.49 98.41l1.61-1.07 108.55 90.28z" class="y" fill="#6e787a"></path><path d="M395.72 209.11c-3.22-3.58-3.04-6.99.54-10.21s6.99-3.04 10.21.54 3.14 7.08-.27 10.48c-3.4 3.41-6.89 3.14-10.48-.8" fill="url(#1770301554709-7208289_k)"></path><path d="M218.28 33.31s3.58-.63 10.75-1.88 16.21-1.88 27.14-1.88 22.12 1.52 33.59 4.57c11.46 3.04 21.32 9.05 29.56 18L218.29 33.31m-97.81 23.65 7.25-8.6c4.83-5.73 11.46-12.36 19.88-19.88s18.54-14.15 30.36-19.88S202.69 0 216.66 0l-96.19 56.96" class="ah" fill="#ffb80d"></path><path d="m140.66 49.97 7.25-7.25c4.83-4.83 12.18-10.39 22.03-16.66s22.21-11.37 37.08-15.31 32.51-4.66 52.93-2.15l-119.3 41.38" class="ah" fill="#ffb80d"></path><path d="M161.07 40.3s2.87-1.34 8.6-4.03 13.34-5.64 22.84-8.86 19.88-6 31.17-8.33 22.84-3.31 34.66-2.95 22.75 3.04 32.78 8.06L161.07 40.31m-52.13 29.01s1.17-2.42 3.49-7.25c2.33-4.84 5.73-10.66 10.21-17.47s10.03-13.34 16.66-19.61 14.42-10.66 23.38-13.17l-25.26 31.17z" class="ah" fill="#ffb80d"></path></g></svg>
