<svg xmlns="http://www.w3.org/2000/svg" style="" viewBox="0 0 512 568.78"><g><defs><radialGradient id="1770301554712-8388714_b" cx="-287.91" cy="192.56" r="103.14" fx="-370.54" fy="230.46" gradientTransform="matrix(1 0 0 -1 0 465.31)" gradientUnits="userSpaceOnUse"><stop offset=".26" stop-color="#3ab0a2"></stop><stop offset=".36" stop-color="#2b998d"></stop><stop offset=".5" stop-color="#3ab0a2"></stop></radialGradient><radialGradient id="1770301554712-8388714_c" cx="306.68" cy="191.94" r="98.79" fx="227.77" fy="227.35" gradientTransform="matrix(1 0 0 -1 0 465.31)" gradientUnits="userSpaceOnUse"><stop offset=".26" stop-color="#3ab0a2"></stop><stop offset=".36" stop-color="#2b998d"></stop><stop offset=".5" stop-color="#3ab0a2"></stop></radialGradient><radialGradient id="1770301554712-8388714_e" cx="441.11" cy="-21.85" r="48.92" fx="441.11" fy="-21.85" gradientTransform="matrix(1 0 0 -1 0 465.31)" gradientUnits="userSpaceOnUse"><stop offset=".25" stop-color="#ff7070"></stop><stop offset=".36" stop-color="#fb6767"></stop><stop offset=".55" stop-color="#f04f4f"></stop><stop offset=".79" stop-color="#de2827"></stop><stop offset="1" stop-color="#cc0100"></stop></radialGradient><radialGradient id="1770301554712-8388714_f" cx="439.93" cy="-21.92" r="18.97" fx="439.93" fy="-21.92" gradientTransform="matrix(1 0 0 -1 0 465.31)" gradientUnits="userSpaceOnUse"><stop offset=".5" stop-color="#fff" stop-opacity=".3"></stop><stop offset="1" stop-color="#fff" stop-opacity="0"></stop></radialGradient><radialGradient id="1770301554712-8388714_g" cx="76.5" cy="327.01" r="48.92" fx="76.5" fy="327.01" gradientTransform="matrix(1 0 0 -1 0 465.31)" gradientUnits="userSpaceOnUse"><stop offset=".25" stop-color="#b9ff40"></stop><stop offset=".38" stop-color="#b1f63d"></stop><stop offset=".6" stop-color="#9dde36"></stop><stop offset=".87" stop-color="#7bb62a"></stop><stop offset="1" stop-color="#69a123"></stop></radialGradient><radialGradient id="1770301554712-8388714_h" cx="75.28" cy="326.96" r="18.96" fx="75.28" fy="326.96" gradientTransform="matrix(1 0 0 -1 0 465.31)" gradientUnits="userSpaceOnUse"><stop offset=".5" stop-color="#fff" stop-opacity=".5"></stop><stop offset="1" stop-color="#fff" stop-opacity="0"></stop></radialGradient><radialGradient id="1770301554712-8388714_i" cx="436.2" cy="431.08" r="48.92" fx="436.2" fy="431.08" gradientTransform="matrix(1 0 0 -1 0 465.31)" gradientUnits="userSpaceOnUse"><stop offset=".25" stop-color="#ffe65c"></stop><stop offset=".38" stop-color="#ffe053"></stop><stop offset=".6" stop-color="#ffd03b"></stop><stop offset=".88" stop-color="#ffb713"></stop><stop offset="1" stop-color="#fa0"></stop></radialGradient><radialGradient id="1770301554712-8388714_j" cx="435.02" cy="431.02" r="18.97" fx="435.02" fy="431.02" gradientTransform="matrix(1 0 0 -1 0 465.31)" gradientUnits="userSpaceOnUse"><stop offset=".5" stop-color="#fff" stop-opacity=".5"></stop><stop offset="1" stop-color="#fff" stop-opacity="0"></stop></radialGradient><radialGradient id="1770301554712-8388714_k" cx="-610.98" cy="551.67" r="11.18" fx="-610.98" fy="551.67" gradientTransform="matrix(1 0 0 -1 0 465.31)" gradientUnits="userSpaceOnUse"><stop offset=".51" stop-color="#f0a429" stop-opacity=".8"></stop><stop offset="1" stop-color="#f0a429" stop-opacity="0"></stop></radialGradient><radialGradient id="1770301554712-8388714_l" cx="-136.93" cy="-50.37" r="24.85" fx="-136.93" fy="-50.37" gradientTransform="matrix(1 0 0 -1 0 465.31)" gradientUnits="userSpaceOnUse"><stop offset=".51" stop-color="#f0a429" stop-opacity=".8"></stop><stop offset="1" stop-color="#f0a429" stop-opacity="0"></stop></radialGradient><radialGradient id="1770301554712-8388714_o" cx="257.59" cy="-2281.45" r="191.36" fx="257.59" fy="-2281.45" gradientTransform="matrix(1 0 0 -1 0 465.31)" gradientUnits="userSpaceOnUse"><stop offset=".66" stop-color="#1a1626" stop-opacity=".5"></stop><stop offset="1" stop-color="#1a1626" stop-opacity="0"></stop></radialGradient><radialGradient id="1770301554712-8388714_q" cx="350.79" cy="60.84" r="137.93" fx="350.79" fy="60.84" gradientTransform="matrix(1 0 0 -1 0 465.31)" gradientUnits="userSpaceOnUse"><stop offset="0" stop-color="#3ab0a2"></stop><stop offset=".28" stop-color="#35aa9c"></stop><stop offset=".66" stop-color="#27988b"></stop><stop offset="1" stop-color="#168277"></stop></radialGradient><linearGradient id="1770301554712-8388714_d" x1="274.06" x2="275.12" y1="106.83" y2="123.83" gradientTransform="matrix(1 0 0 -1 0 465.31)" gradientUnits="userSpaceOnUse"><stop offset=".1" stop-color="#2b998d"></stop><stop offset=".55" stop-color="#3ab0a2"></stop></linearGradient><linearGradient id="1770301554712-8388714_m" x1="326.92" x2="326.92" y1="240.29" y2="264.79" gradientTransform="matrix(1 0 0 -1 0 465.31)" gradientUnits="userSpaceOnUse"><stop offset="0" stop-color="#a6694a"></stop><stop offset="1" stop-color="#4f2a1e"></stop></linearGradient><linearGradient id="1770301554712-8388714_n" x1="252.83" x2="252.83" y1="240.29" y2="264.79" gradientTransform="matrix(1 0 0 -1 0 465.31)" gradientUnits="userSpaceOnUse"><stop offset="0" stop-color="#a6694a"></stop><stop offset="1" stop-color="#4f2a1e"></stop></linearGradient><linearGradient id="1770301554712-8388714_p" x1="292.38" x2="307.65" y1="305.82" y2="399.26" gradientTransform="matrix(1 0 0 -1 0 465.31)" gradientUnits="userSpaceOnUse"><stop offset="0" stop-color="#23212b"></stop><stop offset=".31" stop-color="#32333c"></stop><stop offset=".94" stop-color="#576169"></stop><stop offset="1" stop-color="#5b666e"></stop></linearGradient><linearGradient id="1770301554712-8388714_r" x1="289.27" x2="293.91" y1="286.43" y2="313.66" gradientTransform="matrix(1 0 0 -1 0 465.31)" gradientUnits="userSpaceOnUse"><stop offset="0" stop-color="#23212b"></stop><stop offset=".31" stop-color="#32333c"></stop><stop offset=".94" stop-color="#576169"></stop><stop offset="1" stop-color="#5b666e"></stop></linearGradient></defs><path d="M85.41 381.54c-.81 4.45-4.04 8.8-9.7 13.05s-12.13 7.28-19.42 9.1c-7.28 1.82-13.55 1.52-18.81-.91 4.85-8.49 11.12-14.16 18.81-16.99s14.46-4.25 20.32-4.25z" class="aj" fill="#cfd8dd"></path><path d="M20.49 354.23s-1.42-4.14-4.25-12.44c-2.83-8.29-7.89-15.87-15.17-22.75-1.62-1.21-1.42-2.93.61-5.16 2.03-2.22 6.67-2.12 13.95.3 2.43.81 5.06 2.83 7.88 6.07 2.83 3.24 5.46 6.27 7.88 9.1 2.43 2.83 3.64 4.25 3.64 4.25.81 1.21.2 3.64-1.82 7.28s-4.45 6.98-7.28 10.01-4.65 4.14-5.46 3.34" class="as" fill="#f0a429"></path><path d="M45.37 279.6c-1.21 9.7-2.73 16.79-4.55 21.24s-2.73 11.53-2.73 21.24c6.88-16.18 13.55-32.36 20.02-48.54 2.03-5.26 4.65-6.07 7.89-2.43s4.65 7.48 4.25 11.53c-1.62 7.28-3.84 14.56-6.67 21.84s-4.45 15.77-4.85 25.49c0 0 2.63-3.84 7.89-11.53s9.1-15.17 11.53-22.45c2.03-5.66 4.45-6.47 7.28-2.43s3.84 8.09 3.03 12.13c-1.21 7.69-3.64 14.16-7.28 19.42s-6.27 10.92-7.89 16.99c3.24-4.04 6.27-7.59 9.1-10.62s6.07-7.38 9.7-13.05c2.83-4.04 4.65-4.45 5.46-1.21q1.215 4.86 0 8.49c-1.21 4.45-3.34 9.3-6.37 14.56s-5.96 9.3-8.8 12.13c0 9.3-.81 15.98-2.43 20.02s-1.21 9.51 1.21 16.38c.81 2.83-1.11 6.07-5.77 9.7-4.65 3.64-9.91 6.27-15.77 7.89-5.87 1.62-9.81 1.01-11.83-1.82-.81-1.21-3.34-5.26-7.59-12.13-4.25-6.88-8.59-13.95-13.05-21.24-4.45-7.28-6.88-12.13-7.28-14.56-.81-1.62-1.42-4.85-1.82-9.7s-.71-9.61-.91-14.26-.3-7.59-.3-8.8c.81-7.69 3.13-15.07 6.98-22.14 3.84-7.08 6.77-16.28 8.8-27.6.4-4.04 2.73-4.85 6.98-2.43 4.25 2.43 6.17 5.06 5.77 7.89" class="ak" fill="#ffc940"></path><path d="M195.23 341.49c2.83 9.3 4.35 20.43 4.55 33.37.21 12.94-.4 26.39-1.82 40.35-1.42 13.95-2.93 27-4.55 39.14s-3.14 21.94-4.55 29.42c-1.42 7.49-2.12 11.23-2.12 11.23s-1.82 1.62-5.46 4.85c-3.64 3.24-8.49 6.78-14.56 10.62q-9.105 5.76-21.24 8.19c-12.135 2.43-16.69.91-25.78-2.12-9.1-3.03-18.3-10.01-27.6-20.93-4.04-4.45-7.48-9-10.31-13.65s-5.06-8.19-6.67-10.62c-7.28-12.94-10.41-23.56-9.41-31.85 1.01-8.29 4.14-14.66 9.41-19.11 5.26-4.45 10.31-7.69 15.17-9.7 4.85-2.03 7.28-3.03 7.28-3.03 4.45 10.11 10.31 18.61 17.6 25.49 7.28 6.88 14.56 13.95 21.84 21.24 8.49-17.39 15.17-33.17 20.02-47.32 4.85-14.16 9.91-26.7 15.17-37.62s12.94-20.22 23.06-27.91" class="aw" fill="#e6ebef"></path><path d="M98.16 410.05q-4.245 7.89-10.62 13.05a152 152 0 0 0-11.83 10.62c-3.64 3.64-5.87 8.29-6.67 13.95-.81 5.66 1.21 13.55 6.07 23.67-8.09-11.73-14.36-22.25-18.81-31.55s-6.67-13.95-6.67-13.95l48.54-15.77" class="aj" fill="#cfd8dd"></path><path d="M99.37 408.24c-3.24 4.85-7.99 9.2-14.26 13.05-6.27 3.84-12.54 6.98-18.81 9.41s-11.02 4.04-14.26 4.85c-2.83-4.85-5.36-10.11-7.59-15.77s-4.55-11.33-6.98-16.99c9.3.81 17.6-.61 24.88-4.25s12.94-7.38 16.99-11.23c4.04-3.84 6.06-5.77 6.06-5.77 4.85 10.52 9.51 19.42 13.95 26.7" class="aw" fill="#e6ebef"></path><path d="M136.99 454.34q6.06-15.165 13.65-24.57c5.06-6.27 10.31-12.13 15.77-17.6 5.46-5.46 10.92-11.94 16.38-19.42s10.82-17.5 16.08-30.03c1.21 12.94 1.21 27 0 42.17s-2.73 29.63-4.55 43.38c-1.82 13.76-3.54 24.98-5.16 33.67l-2.43 13.05c-6.47 14.56-14.36 25.49-23.67 32.76-9.31 7.28-19.82 8.9-31.55 4.85-11.73-4.04-24.88-16.38-39.44-37.01 12.94 9.7 24.17 15.07 33.67 16.08 9.51 1.01 16.58-1.11 21.24-6.37q6.975-7.89 5.16-21.54c-1.21-9.1-6.27-18.91-15.17-29.42" class="aj" fill="#cfd8dd"></path><path d="M393.63 353.02c11.33 6.07 20.93 14.97 28.82 26.7s14.86 24.98 20.93 39.74c6.07 14.77 12.13 29.93 18.2 45.5s12.94 30.03 20.63 43.38c-4.04 8.9-7.38 15.37-10.01 19.42-2.63 4.04-5.56 6.67-8.8 7.89-3.24 1.21-8.09 1.82-14.56 1.82-10.11.4-18.5-3.84-25.18-12.74s-13.45-19.92-20.33-33.07-15.58-25.78-26.09-37.92c-6.07-7.69-9.91-16.58-11.53-26.7s-1.32-20.22.91-30.34c2.22-10.11 5.77-19.11 10.62-27s10.31-13.45 16.38-16.69" class="aw" fill="#e6ebef"></path><path d="M455.52 455.56c2.43 4.85 4.25 11.73 5.46 20.63s1.82 18 1.82 27.31-1.11 17.29-3.34 23.96c-2.22 6.67-5.77 10.01-10.62 10.01-10.11.4-18.5-3.84-25.18-12.74s-13.45-19.92-20.33-33.07-15.58-25.78-26.09-37.92c-5.26-6.47-7.89-15.77-7.89-27.91s6.27-25.28 18.81-39.44c-3.64 18.2-3.54 32.06.3 41.56 3.84 9.51 9.61 16.18 17.29 20.02 7.69 3.84 16.08 6.07 25.18 6.67 9.1.61 17.29.91 24.57.91" class="aj" fill="#cfd8dd"></path><path d="M195.23 341.49q7.89-4.86 18.51-7.89c10.62-3.03 13.35-3.54 18.81-4.55s8.19-1.52 8.19-1.52h106.79s2.53 1.42 7.59 4.25 11.23 6.17 18.51 10.01 13.95 7.59 20.02 11.23c0 0-.5 4.14-1.52 12.44-1.01 8.29-2.63 18.4-4.85 30.34a578 578 0 0 1-7.59 34.89c-2.83 11.33-5.87 20.02-9.1 26.09-6.47 11.73-11.73 23.06-15.77 33.98s-6.07 17.39-6.07 19.42 2.12 6.47 6.37 13.35 5.77 13.35 4.55 19.42c-.81 6.07-5.56 11.02-14.26 14.87-8.7 3.84-19.72 6.67-33.07 8.49s-27.5 2.63-42.47 2.43c-14.97-.21-29.13-1.32-42.47-3.34-13.35-2.03-24.57-5.06-33.67-9.1s-14.26-8.9-15.47-14.56c-.4-2.03-.71-6.37-.91-13.05-.21-6.67-.21-14.26 0-22.75s.4-16.28.61-23.36.1-11.63-.3-13.65c-1.21-22.65-.71-41.15 1.52-55.52s4.96-27 8.19-37.92c3.24-10.92 5.87-22.25 7.89-33.98" class="aw" fill="#e6ebef"></path><path d="M381.5 422.79c-1.62 6.88-3.03 13.35-4.25 19.42-1.21 6.07-2.63 10.92-4.25 14.56-6.47 12.13-11.02 23.56-13.65 34.28s-3.95 17.09-3.95 19.11q0 3.645 3.03 13.65c2.03 6.67 2.43 13.05 1.21 19.11-.81 6.47-6.07 11.63-15.77 15.47s-21.84 6.67-36.4 8.49-29.53 2.32-44.9 1.52c19.01-2.83 33.37-8.7 43.08-17.6 9.7-8.9 17.6-19.92 23.67-33.07s12.74-27.81 20.02-43.99 18-33.17 32.16-50.97" class="aj" fill="#cfd8dd"></path><path d="M240.74 327.54c-6.88 19.42-12.13 36.3-15.77 50.66s-6.07 27.91-7.28 40.65-1.72 25.89-1.52 39.44c.21 13.55.71 28.72 1.52 45.5.81 16.79 1.62 36.91 2.43 60.37-6.47-.4-11.83-1.62-16.08-3.64s-6.37-3.03-6.37-3.03c-.81-25.89-1.92-48.64-3.34-68.26-1.42-19.61-2.12-37.62-2.12-54s1.52-32.66 4.55-48.84 8.8-33.77 17.29-52.79c.81-1.21 3.24-2.32 7.28-3.34s7.99-1.72 11.83-2.12 6.37-.61 7.59-.61m134.08 14.57c-9.3 9.7-17.5 23.26-24.57 40.65q-10.62 26.085-16.38 70.08c-3.84 29.33-5.36 66.03-4.55 110.12-3.64 2.43-8.49 3.74-14.56 3.95s-9.1.3-9.1.3c-2.03-63.5.71-114.27 8.19-152.29s21.34-65.73 41.56-83.12c2.03 0 5.66 1.42 10.92 4.25s8.09 4.85 8.49 6.07" fill="#3ab0a2"></path><path d="m275.32 347.56 4.25 1.21a8820 8820 0 0 0-9.41 35.8 311 311 0 0 0-6.37 30.94c-1.62 10.52-3.03 23.46-4.25 38.83-1.21 22.25-1.62 41.97-1.21 59.16.4 17.19 1.01 30.64 1.82 40.35.81 9.7 1.21 14.56 1.21 14.56h-3.64s-.5-5.06-1.52-15.17c-1.01-10.11-1.72-24.07-2.12-41.86s0-37.82 1.21-60.07c.81-15.77 2.12-28.92 3.95-39.44s4.04-20.63 6.67-30.34c2.63-9.7 5.77-21.03 9.41-33.98" class="aj" fill="#cfd8dd"></path><path d="M49.61 420.37c0-2.83 1.52-4.25 4.55-4.25s4.55 1.42 4.55 4.25c0 3.24-1.52 4.85-4.55 4.85s-4.55-1.62-4.55-4.85m196.59-26.09c0-3.24 1.52-4.85 4.55-4.85s4.55 1.62 4.55 4.85c0 2.83-1.52 4.25-4.55 4.25s-4.55-1.42-4.55-4.25m-7.28 62.49c0-2.83 1.52-4.25 4.55-4.25s4.55 1.42 4.55 4.25c0 3.24-1.52 4.85-4.55 4.85s-4.55-1.62-4.55-4.85m0 63.71c0-3.24 1.52-4.85 4.55-4.85s4.55 1.62 4.55 4.85c0 2.83-1.52 4.35-4.55 4.55s-4.55-1.32-4.55-4.55" fill="#302c3b"></path><path d="M252.87 316.01v-18.2h83.12v15.17c.4 14.56-3.44 25.59-11.53 33.07s-17.6 11.43-28.52 11.83-20.73-2.83-29.42-9.7q-13.05-10.32-13.65-32.16" class="as" fill="#f0a429"></path><path d="M335.99 312.97c3.24 2.83 5.96 5.96 8.19 9.41 2.22 3.44 3.34 5.16 3.34 5.16-3.24 7.69-6.88 13.65-10.92 17.9s-7.69 8.39-10.92 12.44-5.66 9.7-7.28 16.99c-4.45-1.21-9.7-4.14-15.77-8.8-6.07-4.65-11.33-9.1-15.77-13.35l-6.67-6.37s2.32-1.01 6.98-3.03c4.65-2.02 10.21-4.75 16.69-8.19a289 289 0 0 0 18.81-10.92c6.07-3.84 10.52-7.59 13.35-11.23m-83.15 3.03c-4.85 2.03-8.09 4.45-9.7 7.28s-2.43 4.25-2.43 4.25l3.03 30.34 30.94-12.74s-2.83-3.24-8.49-9.7c-5.66-6.47-10.11-12.94-13.35-19.42" class="an" fill="#fff"></path><path d="M274.72 349.99c-2.43 3.24-6.27 6.17-11.53 8.8s-10.31 4.55-15.17 5.77-7.48 1.42-7.89.61c-1.21-2.83-1.72-8.19-1.52-16.08.21-7.88 2.32-14.26 6.37-19.11.4-.4 2.73.21 6.98 1.82s8.7 4.04 13.35 7.28 7.78 6.88 9.41 10.92" fill="url(#1770301554712-8388714_b)"></path><path d="M280.18 350.59c-.4-4.45 2.12-7.59 7.59-9.41a59 59 0 0 1 16.68-3.03q8.49-.3 8.49.3c1.62 1.62 1.92 4.85.91 9.7s-2.43 9.7-4.25 14.56c-1.82 4.85-3.34 7.89-4.55 9.1-.81.81-3.64.21-8.49-1.82s-9.2-4.85-13.05-8.49-4.96-7.28-3.34-10.92" fill="url(#1770301554712-8388714_c)"></path><path d="M274.72 357.87q-6.675-.6-7.89 0c-1.215.6-1.01-2.43-.61-8.49.4-5.66 1.32-8.39 2.73-8.19 1.42.21 3.95.3 7.59.3 4.04.4 6.27 1.01 6.67 1.82s0 3.24-1.21 7.28c-.81 3.64-1.11 5.96-.91 6.98.2 1.01-1.92 1.11-6.37.3" fill="url(#1770301554712-8388714_d)"></path><path d="M496.78 547.18c-1.62 1.62-4.25 3.14-7.89 4.55-3.64 1.42-6.27 1.11-7.89-.91-1.62-16.99-.91-29.83 2.12-38.53S490 497.83 494.65 495s8.8-4.14 12.44-3.95c3.64.21 5.26.91 4.85 2.12-2.43 5.26-2.93 10.01-1.52 14.26 1.42 4.25 1.11 7.99-.91 11.23-3.64 5.66-6.07 11.12-7.28 16.38s-3.03 9.3-5.46 12.13" class="ak" fill="#ffc940"></path><path d="M450.18 452.93c6.77 0 13.1 1.28 19.01 3.83s11.11 6.06 15.61 10.53c4.5 4.46 8.01 9.67 10.53 15.61s3.78 12.26 3.78 18.96-1.26 13.12-3.78 19.06-6.03 11.14-10.53 15.61c-4.5 4.46-9.7 7.95-15.61 10.48-5.9 2.52-12.24 3.78-19.01 3.78s-13.1-1.26-19.01-3.78c-5.9-2.52-11.11-6.01-15.61-10.48s-8.01-9.67-10.53-15.61-3.78-12.3-3.78-19.06 1.26-13.02 3.78-18.96 6.03-11.14 10.53-15.61c4.5-4.46 9.7-7.97 15.61-10.53 5.9-2.55 12.24-3.83 19.01-3.83" fill="url(#1770301554712-8388714_e)"></path><path d="M439.93 468.26c2.62 0 5.08.5 7.37 1.48s4.31 2.35 6.05 4.08c1.75 1.73 3.11 3.75 4.08 6.05.98 2.31 1.47 4.75 1.47 7.35s-.49 5.09-1.47 7.39c-.98 2.31-2.34 4.32-4.08 6.05a19.3 19.3 0 0 1-6.05 4.06c-2.29.98-4.75 1.47-7.37 1.47s-5.08-.49-7.37-1.47-4.31-2.33-6.05-4.06-3.11-3.75-4.08-6.05-1.47-4.77-1.47-7.39.49-5.04 1.47-7.35 2.34-4.32 4.08-6.05 3.76-3.09 6.05-4.08 4.75-1.48 7.37-1.48" fill="url(#1770301554712-8388714_f)"></path><path d="M457.34 520.48q-2.43-7.275 3.03-7.59 5.46-.3 8.49 5.16c2.83 4.45 6.07 9.1 9.7 13.95q5.46 7.275 7.89 13.05c1.62 3.84.81 6.17-2.43 6.98-4.04 1.21-7.28 2.63-9.7 4.25-2.43 1.62-5.26 2.22-8.49 1.82q-4.245-.6-7.89.3c-2.43.61-5.66.71-9.7.3-5.66 0-11.43-1.72-17.29-5.16-5.87-3.44-12.44-7.78-19.72-13.05-2.03-1.62-2.63-3.24-1.82-4.85s3.44-1.62 7.89 0c2.83.81 6.67 3.03 11.53 6.67s7.28 5.46 7.28 5.46l-7.89-7.59c-5.26-5.06-8.49-9.61-9.7-13.65-.81-2.83.5-4.35 3.95-4.55 3.44-.21 5.96.91 7.59 3.34 3.64 5.66 8.29 10.72 13.95 15.17s8.49 6.67 8.49 6.67l-3.95-4.55q-3.945-4.545-8.49-10.92c-4.545-6.375-5.16-7.99-6.37-11.23-1.62-3.24-.5-5.06 3.34-5.46s6.78.81 8.8 3.64c4.45 7.69 9.51 13.76 15.17 18.2s8.49 6.67 8.49 6.67-1.62-2.73-4.85-8.19c-3.24-5.46-5.66-10.41-7.28-14.87" class="ak" fill="#ffc940"></path><path d="M85.57 104.06c6.77 0 13.1 1.28 19.01 3.83s11.11 6.06 15.61 10.53c4.5 4.46 8.01 9.67 10.53 15.61s3.78 12.26 3.78 18.96-1.26 13.12-3.78 19.06-6.03 11.14-10.53 15.61c-4.5 4.46-9.7 7.96-15.61 10.48s-12.24 3.78-19.01 3.78-13.1-1.26-19.01-3.78c-5.9-2.52-11.11-6.01-15.61-10.48-4.5-4.46-8.01-9.67-10.53-15.61s-3.78-12.3-3.78-19.06 1.26-13.02 3.78-18.96 6.03-11.14 10.53-15.61c4.5-4.46 9.7-7.97 15.61-10.53 5.9-2.55 12.24-3.83 19.01-3.83" fill="url(#1770301554712-8388714_g)"></path><path d="M75.32 119.39c2.62 0 5.08.5 7.37 1.48 2.29.99 4.31 2.35 6.05 4.08s3.11 3.75 4.08 6.05 1.47 4.75 1.47 7.34-.49 5.09-1.47 7.39c-.98 2.31-2.34 4.32-4.08 6.05a19.3 19.3 0 0 1-6.05 4.06c-2.29.98-4.75 1.47-7.37 1.47s-5.08-.49-7.37-1.47-4.31-2.33-6.05-4.06-3.11-3.75-4.08-6.05-1.47-4.77-1.47-7.39.49-5.04 1.47-7.34c.98-2.31 2.34-4.32 4.08-6.05a19.6 19.6 0 0 1 6.05-4.08c2.29-.99 4.75-1.48 7.37-1.48" fill="url(#1770301554712-8388714_h)"></path><path d="M445.27 0c6.76 0 13.1 1.28 19 3.83s11.11 6.06 15.61 10.53c4.5 4.46 8.01 9.67 10.53 15.61q3.78 8.91 3.78 18.96c0 10.05-1.26 13.12-3.78 19.06s-6.03 11.14-10.53 15.61-9.7 7.96-15.61 10.48c-5.9 2.52-12.24 3.78-19.01 3.78s-13.1-1.26-19.01-3.78c-5.9-2.52-11.11-6.01-15.61-10.48-4.5-4.46-8.01-9.67-10.53-15.61s-3.78-12.3-3.78-19.06 1.26-13.02 3.78-18.96 6.03-11.14 10.53-15.61c4.5-4.46 9.7-7.97 15.61-10.53C432.15 1.28 438.49 0 445.26 0" fill="url(#1770301554712-8388714_i)"></path><path d="M435.02 15.32c2.62 0 5.08.5 7.37 1.48s4.31 2.35 6.05 4.08c1.75 1.73 3.11 3.75 4.08 6.05.98 2.31 1.47 4.75 1.47 7.35s-.49 5.09-1.47 7.39c-.98 2.31-2.34 4.32-4.08 6.05s-3.76 3.08-6.05 4.06-4.75 1.47-7.37 1.47-5.08-.49-7.37-1.47-4.31-2.33-6.05-4.06-3.11-3.75-4.08-6.05-1.47-4.77-1.47-7.39.49-5.04 1.47-7.35 2.34-4.32 4.08-6.05a19.6 19.6 0 0 1 6.05-4.08c2.29-.99 4.75-1.48 7.37-1.48" fill="url(#1770301554712-8388714_j)"></path><path d="M207.8 207.84c1.27 4.42 3.16 10.43 5.69 18.01 2.53 7.59 3.48 14.54 2.85 20.86 0 3.79-2.21 6.48-6.64 8.06s-7.59-1.74-9.48-9.95c-1.26-3.16-3.32-7.74-6.16-13.75-2.85-6.01-3.95-13.43-3.32-22.28s3.32-11.69 8.06-8.53 7.74 5.68 9.01 7.59" class="ak" fill="#ffc940"></path><path d="M196.43 205.95c2.53 1.27 3.95 3 4.26 5.21.32 2.21 1.73 5.21 4.26 9 2.53 3.16 2.68 5.85.47 8.06s-2.06 4.9.47 8.06c3.79 3.79 3.95 4.74.47 2.85-3.47-1.89-6.16-4.74-8.05-8.53-1.89-4.42-3.32-9.95-4.26-16.59s-.16-9.32 2.37-8.06" fill="url(#1770301554712-8388714_k)"></path><path d="M196.43 205.95c2.53 1.27 3.95 3 4.26 5.21.32 2.21 1.73 5.21 4.26 9 2.53 3.16 2.68 5.85.47 8.06s-2.06 4.9.47 8.06c3.79 3.79 3.95 4.74.47 2.85-3.47-1.89-6.16-4.74-8.05-8.53-1.89-4.42-3.32-9.95-4.26-16.59s-.16-9.32 2.37-8.06" class="ar" fill="#faba37"></path><path d="M195.89 205.71c2.57 1.22 4.05 2.98 4.45 5.26s1.93 5.2 4.57 8.76c-3.52-4.75-6.07-8.24-7.64-10.49-1.57-2.24-2.58-.8-3.01 4.31-.76-6.24-.22-8.86 1.63-7.84" class="ar" fill="#faba37"></path><path d="M386.03 208.79c.63 8.85-.48 16.27-3.32 22.28-2.85 6-4.9 10.59-6.16 13.74-1.89 8.21-5.06 11.53-9.48 9.95s-6.64-4.27-6.64-8.06c-.63-6.32.32-13.27 2.85-20.86s4.42-13.59 5.69-18.01c1.27-1.89 4.27-4.42 9.01-7.59 4.74-3.16 7.42-.32 8.06 8.54" class="ak" fill="#ffc940"></path><path d="M378.3 230.72a19 19 0 0 1-5.02 6.77c-2.18 1.89-3.71 2.84-4.59 2.84s-.14-1.45 2.18-4.37c1.75-1.75 2.26-3.42 1.53-5.02s-1.39-3.27-1.96-5.02c-.58-1.75-.15-3.78 1.3-6.11 2.62-3.49 4.14-6.41 4.58-8.73.43-2.33 1.96-4.08 4.58-5.24 1.45-.87 2.18.22 2.18 3.27s-.51 6.62-1.52 10.69c-1.02 4.08-2.11 7.71-3.27 10.92" fill="url(#1770301554712-8388714_l)"></path><path d="M378.3 230.72a19 19 0 0 1-5.02 6.77c-2.18 1.89-3.71 2.84-4.59 2.84s-.14-1.45 2.18-4.37c1.75-1.75 2.26-3.42 1.53-5.02s-1.39-3.27-1.96-5.02c-.58-1.75-.15-3.78 1.3-6.11 2.62-3.49 4.14-6.41 4.58-8.73.43-2.33 1.96-4.08 4.58-5.24 1.45-.87 2.18.22 2.18 3.27s-.51 6.62-1.52 10.69c-1.02 4.08-2.11 7.71-3.27 10.92" class="ar" fill="#faba37"></path><path d="M382.21 213.53c0-5.06-.79-6.48-2.37-4.27s-4.27 5.85-8.06 10.9c2.53-3.79 3.95-6.79 4.27-9s2.06-3.95 5.22-5.21c1.89-1.26 2.21 1.27.94 7.59" class="ar" fill="#faba37"></path><path d="M288.35 107.35c29.7 0 51.67 10.11 65.89 30.34 14.22 20.22 20.38 45.82 18.48 76.79 0 4.42-.79 11.06-2.37 19.91s-3.63 18.01-6.16 27.49-5.06 16.43-7.59 20.86c-3.79 7.59-10.74 16.12-20.86 25.6-10.11 9.48-18.96 15.48-26.54 18.01-5.06 1.27-12.01 1.89-20.86 1.89s-15.48-.63-19.91-1.89c-8.22-2.53-17.38-8.53-27.49-18.01s-17.07-18.01-20.86-25.6c-2.53-4.42-4.9-11.38-7.11-20.86s-4.27-18.65-6.16-27.49c-1.89-8.85-2.85-15.48-2.85-19.91-1.89-30.97 4.27-56.56 18.48-76.79 14.22-20.22 36.18-30.34 65.89-30.34" class="ak" fill="#ffc940"></path><path d="M347.84 190.48c-2.35-2.35-6.13-4.19-11.33-5.54s-10.23-2.01-15.1-2.01-8.14.5-9.82 1.51c-2.01 1.01-2.6 2.94-1.76 5.79s2.27 4.11 4.28 3.78c4.7-.67 10.57-.84 17.62-.5s12.59 2.18 16.61 5.54c2.01 2.01 3.19 1.85 3.52-.5s-1.01-5.03-4.03-8.05m-119.3-.02c2.68-2.35 6.54-4.19 11.58-5.54 5.03-1.34 10.07-2.01 15.1-2.01s8.39.5 10.07 1.51c2.01 1.01 2.6 2.94 1.76 5.79s-2.27 4.11-4.28 3.78c-4.7-.67-10.57-.84-17.62-.5s-12.59 2.18-16.61 5.54c-2.01 2.01-3.19 1.85-3.52-.5s.84-5.03 3.52-8.05" fill="#d48100"></path><path d="M288.37 279.35c1.39 0 3.75-.22 7.06-.65s7.1-.78 11.38-1.04c4.27-.26 8.33-.22 12.16.13 0 0-.43 1-1.3 3.01s-2.44 4.27-4.71 6.8-5.41 4.8-9.41 6.8c-4.01 2.01-9.06 3.01-15.17 3.01s-11.16-1-15.17-3.01-7.14-4.27-9.41-6.8-3.83-4.8-4.71-6.8c-.87-2.01-1.31-3.01-1.31-3.01 3.83-.35 7.89-.39 12.16-.13s8.06.61 11.38 1.04c3.31.43 5.67.65 7.06.65" class="as" fill="#f0a429"></path><path d="M261.18 280.39c10.11 1.04 19.18 1.57 27.19 1.57s17.09-.52 27.19-1.57c-4.36 4.36-9.98 7.23-16.87 8.63a51.7 51.7 0 0 1-20.66 0c-6.88-1.39-12.51-4.27-16.87-8.63" class="an" fill="#fff"></path><path d="M366.93 178.28h12.74c-.81 4.85-1.62 9.91-2.43 15.17-2.03 10.92-4.25 20.93-6.67 30.03-2.43 9.1-3.64 13.65-3.64 13.65s.3-3.03.91-9.1.91-13.65.91-22.75-.61-18.1-1.82-27" class="ap" fill="#f9a307"></path><path d="M366.33 178.28h4.25c.81 8.9 1.01 17.8.61 26.7s-1.11 16.38-2.12 22.45-1.72 9.3-2.12 9.7c1.62-24.67 1.42-44.29-.61-58.86" class="aq" fill="#e68c00"></path><path d="M299.74 255.23c1.26 0 2.06.47 2.37 1.42s-.16 1.74-1.42 2.37c-1.26 1.26-3.16 2.37-5.69 3.32s-4.74 1.42-6.64 1.42-4.11-.47-6.64-1.42-4.42-2.06-5.69-3.32c-1.26-.63-1.74-1.42-1.42-2.37s1.11-1.42 2.37-1.42 2.85.32 4.74.95 4.11.95 6.64.95 4.74-.32 6.64-.94c1.89-.63 3.48-.94 4.74-.94" class="as" fill="#f0a429"></path><path d="M213.43 157.05c-2.43 6.47-4.04 14.16-4.85 23.06s-1.01 17.69-.61 26.39.81 15.98 1.21 21.84c.4 5.87.61 8.8.61 8.8s-1.21-4.55-3.64-13.65-4.65-19.11-6.67-30.03c-1.21-6.47-2.12-12.94-2.73-19.42-.61-6.47-.5-12.13.3-16.99z" class="ap" fill="#f9a307"></path><path d="M216.47 157.05c-3.64 7.28-5.96 17.69-6.98 31.25s-.91 29.83.3 48.84c-.4-.4-1.11-3.54-2.12-9.41s-1.82-13.15-2.43-21.84-.61-17.39 0-26.09 2.32-16.28 5.16-22.75z" class="aq" fill="#e68c00"></path><path d="M348.54 216.78q-1.83 7.065-7.59 9.15c-3.83 1.39-8.15 1.92-12.95 1.57s-9.28-.78-13.47-1.3c-4.18-.52-7.15-.43-8.89.26-.17-7.67 1.7-13.64 5.62-17.91q5.88-6.405 13.86-7.59c5.32-.78 10.25.13 14.77 2.75 4.54 2.62 7.41 6.97 8.63 13.07" class="ao" fill="#edebea"></path><path d="M326.92 200.52c1.7 0 3.28.32 4.77.96 1.48.64 2.78 1.52 3.91 2.64s2.01 2.42 2.64 3.91.94 3.07.94 4.75-.32 3.29-.94 4.78c-.63 1.49-1.51 2.79-2.64 3.91a12.6 12.6 0 0 1-3.91 2.63c-1.48.63-3.07.94-4.77.94s-3.29-.32-4.77-.94-2.78-1.5-3.91-2.63c-1.13-1.12-2.01-2.42-2.64-3.91s-.94-3.08-.94-4.78.32-3.26.94-4.75c.63-1.49 1.51-2.79 2.64-3.91s2.43-2 3.91-2.64 3.07-.96 4.77-.96" fill="url(#1770301554712-8388714_m)"></path><path d="M319.96 212.53c0-2.28.71-3.99 2.14-5.13s3.05-1.71 4.88-1.71 3.45.57 4.88 1.71c1.42 1.14 2.14 2.85 2.14 5.13 0 2.4-.71 4.19-2.14 5.39-1.42 1.2-3.05 1.8-4.88 1.8s-3.45-.6-4.88-1.8c-1.42-1.2-2.14-2.99-2.14-5.39" class="al" fill="#1a1626"></path><path d="M319.24 209.17c0-1.89.79-2.85 2.37-2.85s2.37.94 2.37 2.85-.79 2.85-2.37 2.85-2.37-.94-2.37-2.85" class="ao" fill="#edebea"></path><path d="M306.68 217.57c1.75-6.97 4.84-11.77 9.28-14.38s9.2-3.66 14.25-3.14c5.06.52 9.37 2.31 12.94 5.36s5.36 6.84 5.36 11.38c-2.27-5.41-6.01-9.2-11.25-11.38s-10.68-2.35-16.35-.52-10.42 6.06-14.25 12.68" class="au" fill="#bd751b"></path><path d="M228.23 216.78c1.22-6.1 4.09-10.46 8.63-13.07 4.54-2.62 9.46-3.53 14.77-2.75 5.32.78 9.93 3.31 13.86 7.59 3.92 4.27 5.8 10.24 5.62 17.91-1.75-.7-4.71-.78-8.89-.26s-8.67.96-13.47 1.3-9.11-.17-12.94-1.57c-3.83-1.39-6.36-4.45-7.59-9.15" class="ao" fill="#edebea"></path><path d="M252.83 200.52q2.55 0 4.77.96c2.22.96 2.78 1.52 3.91 2.64s2.01 2.42 2.64 3.91.94 3.07.94 4.75-.32 3.29-.94 4.78c-.63 1.49-1.51 2.79-2.64 3.91s-2.43 1.99-3.91 2.63-3.07.94-4.77.94-3.28-.32-4.77-.94-2.78-1.5-3.91-2.63c-1.13-1.12-2.01-2.42-2.64-3.91s-.94-3.08-.94-4.78.32-3.26.94-4.75c.63-1.49 1.51-2.79 2.64-3.91s2.43-2 3.91-2.64 3.07-.96 4.77-.96" fill="url(#1770301554712-8388714_n)"></path><path d="M259.82 212.58c0 2.39-.71 4.19-2.14 5.39-1.42 1.2-3.05 1.8-4.87 1.8s-3.45-.6-4.87-1.8-2.14-2.99-2.14-5.39.71-3.99 2.14-5.13c1.42-1.14 3.05-1.71 4.87-1.71s3.45.57 4.87 1.71 2.14 2.85 2.14 5.13" class="al" fill="#1a1626"></path><path d="M260.48 209.17c0 1.89-.79 2.85-2.37 2.85s-2.37-.94-2.37-2.85.79-2.85 2.37-2.85 2.37.94 2.37 2.85" class="ao" fill="#edebea"></path><path d="M269.86 217.72c-5.66-10.11-13.15-14.76-22.45-13.95s-15.77 5.06-19.42 12.74c0-6.07 3.03-10.72 9.1-13.95s12.54-3.84 19.42-1.82 11.33 7.69 13.35 16.99" class="au" fill="#bd751b"></path><path d="M375.43 201.34c2.43-1.21 4.75-1.52 6.98-.91 2.22.61 3.54 3.54 3.95 8.8H190.38c.4-5.26 1.72-8.19 3.95-8.8 2.22-.61 4.55-.3 6.98.91-.81-2.43-1.42-5.06-1.82-7.89-1.21-6.47-2.12-12.94-2.73-19.42-.61-6.47-.5-12.13.3-16.99l182.63 21.24c-.81 4.85-1.62 9.91-2.43 15.17-.4 2.83-1.01 5.46-1.82 7.89" fill="url(#1770301554712-8388714_o)"></path><path d="M386.35 152.19c-.81 4.85-5.77 8.19-14.87 10.01s-20.73 2.43-34.89 1.82-28.92-2.12-44.29-4.55-29.73-5.56-43.08-9.41c-13.35-3.84-24.17-8.09-32.46-12.74s-12.03-9.41-11.23-14.26c2.03-12.94 6.57-24.47 13.65-34.58s17.69-17.4 31.85-21.84c14.16-4.45 32.97-4.65 56.43-.61 23.86 3.64 41.76 9.7 53.7 18.2 11.94 8.49 19.72 18.71 23.36 30.64 3.64 11.94 4.25 24.37 1.82 37.32" fill="url(#1770301554712-8388714_p)"></path><path d="M206.76 119.43c3.24 2.43 10.82 5.26 22.75 8.49 11.94 3.24 25.89 6.27 41.86 9.1 15.98 2.83 32.05 5.36 48.24 7.59 16.18 2.22 30.44 3.74 42.78 4.55s20.53.61 24.57-.61c.4-.4.61-.21.61.61 0 6.07-.61 12.13-1.82 18.2-.4 3.64-5.26 5.96-14.56 6.98q-13.95 1.515-35.19-.3c-14.16-1.21-29.13-3.03-44.9-5.46s-30.54-5.36-44.29-8.8-24.88-7.08-33.37-10.92c-8.49-3.85-12.54-7.59-12.13-11.23 1.21-6.06 2.63-11.94 4.25-17.6 0-.81.4-1.01 1.21-.61" fill="url(#1770301554712-8388714_q)"></path><path d="M415.48 184.35c-.81 3.24-7.28 4.96-19.42 5.16-12.13.2-27.71-.61-46.72-2.43s-39.04-4.45-60.07-7.89-40.86-7.18-59.46-11.23c-18.61-4.04-33.67-8.09-45.2-12.13s-17.09-7.69-16.69-10.92c1.21-6.88 3.84-10.72 7.89-11.53 4.04-.81 10.62.2 19.72 3.03s21.44 6.57 37.01 11.23c15.58 4.65 35.49 8.8 59.76 12.44 24.27 4.04 44.6 6.37 60.98 6.98s29.23.91 38.53.91 15.77 1.01 19.42 3.03c3.64 2.03 5.06 6.47 4.25 13.35" fill="url(#1770301554712-8388714_r)"></path></g></svg>
