<svg xmlns="http://www.w3.org/2000/svg" style="" viewBox="0 0 512 480.1"><g><defs><linearGradient id="1770301554706-4754569_b" x1="341.89" x2="341.89" y1="3.41" y2="-11.43" gradientTransform="matrix(1 0 0 -1 0 376.03)" gradientUnits="userSpaceOnUse"><stop offset="0" stop-color="#596770"></stop><stop offset=".03" stop-color="#5f6d77"></stop><stop offset=".13" stop-color="#6c7c87"></stop><stop offset=".23" stop-color="#748591"></stop><stop offset=".38" stop-color="#768894"></stop><stop offset=".74" stop-color="#667680"></stop><stop offset="1" stop-color="#596770"></stop></linearGradient><linearGradient id="1770301554706-4754569_c" x1="237.48" x2="237.48" y1="137.5" y2="120.1" gradientTransform="matrix(1 0 0 -1 0 376.03)" gradientUnits="userSpaceOnUse"><stop offset="0" stop-color="#596770"></stop><stop offset=".03" stop-color="#5f6d77"></stop><stop offset=".13" stop-color="#6c7c87"></stop><stop offset=".23" stop-color="#748591"></stop><stop offset=".38" stop-color="#768894"></stop><stop offset=".74" stop-color="#667680"></stop><stop offset="1" stop-color="#596770"></stop></linearGradient><linearGradient id="1770301554706-4754569_d" x1="371.76" x2="359.81" y1="64.58" y2="55.44" gradientTransform="matrix(1 0 0 -1 0 376.03)" gradientUnits="userSpaceOnUse"><stop offset="0" stop-color="#596770"></stop><stop offset=".03" stop-color="#5f6d77"></stop><stop offset=".13" stop-color="#6c7c87"></stop><stop offset=".23" stop-color="#748591"></stop><stop offset=".38" stop-color="#768894"></stop><stop offset=".74" stop-color="#667680"></stop><stop offset="1" stop-color="#596770"></stop></linearGradient><linearGradient id="1770301554706-4754569_e" x1="97.04" x2="119.07" y1="8.41" y2="-7.53" gradientTransform="matrix(1 0 0 -1 0 376.03)" gradientUnits="userSpaceOnUse"><stop offset="0" stop-color="#596770"></stop><stop offset=".02" stop-color="#5f6d77"></stop><stop offset=".09" stop-color="#6c7c87"></stop><stop offset=".16" stop-color="#748591"></stop><stop offset=".26" stop-color="#768894"></stop><stop offset=".33" stop-color="#70818d"></stop><stop offset=".59" stop-color="#5f6e78"></stop><stop offset=".76" stop-color="#596770"></stop></linearGradient><linearGradient id="1770301554706-4754569_f" x1="214.58" x2="203.12" y1="64.19" y2="52.13" gradientTransform="matrix(1 0 0 -1 0 376.03)" gradientUnits="userSpaceOnUse"><stop offset="0" stop-color="#596770"></stop><stop offset=".03" stop-color="#5f6d77"></stop><stop offset=".13" stop-color="#6c7c87"></stop><stop offset=".23" stop-color="#748591"></stop><stop offset=".38" stop-color="#768894"></stop><stop offset=".74" stop-color="#667680"></stop><stop offset="1" stop-color="#596770"></stop></linearGradient><linearGradient id="1770301554706-4754569_g" x1="136.66" x2="136.66" y1="328.87" y2="344.06" gradientTransform="matrix(1 0 0 -1 0 376.03)" gradientUnits="userSpaceOnUse"><stop offset="0" stop-color="#596770"></stop><stop offset=".03" stop-color="#5f6d77"></stop><stop offset=".13" stop-color="#6c7c87"></stop><stop offset=".23" stop-color="#748591"></stop><stop offset=".38" stop-color="#768894"></stop><stop offset=".74" stop-color="#667680"></stop><stop offset="1" stop-color="#596770"></stop></linearGradient></defs><path d="M242.6 175.06c8.19 3.75 13.82 9.3 16.89 16.63 3.07 7.34 5.54 15.86 7.42 25.59 1.88 9.72 4.78 20.39 8.7 31.99 3.93 11.6 10.83 23.88 20.73 36.85l-19.96 17.4q-17.4-27.645-33.27-47.34c-10.58-13.13-18.59-24.57-24.06-34.29-5.46-9.73-6.74-18.34-3.84-25.85 2.9-7.5 12.03-14.5 27.38-20.98" class="ag" fill="#f0a429"></path><path d="m315.27 151.52 9.72 65.51-57.33 8.7c-2.39-8.19-5.54-16.12-9.47-23.8s-7.5-14.07-10.75-19.19l-4.86-7.68c9.55-4.09 19.96-7.93 31.22-11.51s20.98-6.48 29.17-8.7l12.28-3.33" class="af" fill="#1c807c"></path><path d="M251.81 171.48c6.14 7.5 11.09 15.36 14.84 23.54s6.4 15.1 7.93 20.73 2.3 8.44 2.3 8.44l-9.21 1.54c-2.39-8.19-5.54-16.12-9.47-23.8s-7.5-14.07-10.75-19.19l-4.86-7.68c1.36-.68 2.9-1.36 4.61-2.05 1.71-.68 3.24-1.19 4.61-1.54" class="v" fill="#1c9490"></path><path d="M248.23 347.55c13.99-7.5 27.72-14.76 41.2-21.75 13.48-7 24.48-11.17 33.01-12.54 0 2.05-2.05 4.01-6.14 5.89s-8.62 3.84-13.56 5.89-8.96 4.61-12.03 7.68c-6.48 6.82-14.24 11.6-23.29 14.33-9.04 2.73-15.44 2.9-19.19.51" class="ah" fill="#302c3b"></path><path d="M312.71 288.17c4.43 4.09 7.59 8.1 9.47 12.03s1.96 8.28.26 13.05q-4.605 4.605-15.36 7.68c-7.16 2.05-12.97 5.29-17.4 9.72-6.82 6.82-13.65 11.43-20.47 13.82s-13.82 3.41-20.98 3.07c-.68-.68-1.45-2.22-2.3-4.61s-.77-4.09.26-5.12c.34-.68 1.79-1.62 4.35-2.81q3.84-1.785 5.37-3.84c4.77-6.82 8.1-11.6 9.98-14.33s3.67-5.03 5.37-6.91c1.71-1.88 4.61-4.52 8.7-7.93l32.76-13.82" class="ab" fill="#e81c27"></path><path d="M312.71 288.17q4.605 4.095 7.68 8.19c-3.07.68-5.54 2.22-7.42 4.61s-4.43 4.52-7.68 6.4c-3.24 1.88-8.1 2.81-14.59 2.81-1.71-.68-1.11-2.73 1.79-6.14s6.4-6.74 10.49-9.98 7.34-5.2 9.72-5.89"></path><path d="M411.5 361.87c6.14 0 10.75 1.79 13.82 5.37s4.61 7.76 4.61 12.54-1.54 9.04-4.61 12.79-7.5 5.63-13.31 5.63c-8.19 1.02-18.51 2.22-30.96 3.58s-25.68 2.65-39.66 3.84-27.21 2.22-39.66 3.07-22.6 1.28-30.45 1.28c-10.24 0-17.83-2.99-22.78-8.96s-7.42-12.97-7.42-20.98 2.47-15.02 7.42-20.98c4.95-5.97 12.54-8.96 22.78-8.96l140.24 11.77m-.02 33.79v-31.22l-140.24-10.75v53.23-.51c7.5 0 17.49-.34 29.94-1.02s25.68-1.62 39.66-2.81c13.99-1.19 27.29-2.39 39.92-3.58s22.86-2.31 30.71-3.33" class="y" fill="#768894"></path><path d="M427.87 379.79c0 7.5-2.73 12.45-8.19 14.84q-8.19 3.585-16.38 0c-8.19-3.585-8.19-7.34-8.19-14.84s2.73-11.94 8.19-14.33q8.19-3.585 16.38 0c8.19 3.585 8.19 7.16 8.19 14.33m-156.61 27.63q-13.815 0-20.73-8.19c-4.61-5.46-6.91-11.85-6.91-19.19s2.3-13.74 6.91-19.19c4.61-5.46 11.51-8.19 20.73-8.19s15.61 2.73 20.21 8.19c4.61 5.46 6.91 11.85 6.91 19.19s-2.31 13.73-6.91 19.19c-4.61 5.46-11.35 8.19-20.21 8.19" class="ac" fill="#596770"></path><path d="m425.82 285.1-25.59 190.39-2.05-.51 25.59-190.39z" class="n" fill="#c8d3d9"></path><path d="m506.6 393.74-190.02-25.68.59-1.77 189.71 25.43-.27 2.02" class="n" fill="#c8d3d9"></path><path d="M488.78 322.46 336.26 439.15l-1.02-1.54 152.52-116.69z" class="n" fill="#c8d3d9"></path><path d="M469.41 456.94 352.72 304.42l1.54-1.02 116.69 152.52z" class="n" fill="#c8d3d9"></path><path d="M472.4 305.58 352.63 455.54l-1.54-1.02 119.77-150.47 1.54 1.54" class="n" fill="#c8d3d9"></path><path d="M487.74 439.11 337.32 319.39l-1.01 1.78 149.92 119.32 1.5-1.38" class="n" fill="#c8d3d9"></path><path d="m507.2 370.06-190.39 22.01-.51-2.05 190.91-22.01v2.05" class="n" fill="#c8d3d9"></path><path d="m421.79 475.37-22.01-190.39 2.05-.51 22.01 190.91h-2.05" class="n" fill="#c8d3d9"></path><path d="M421.83 379.99c0 1.7-.29 3.2-.86 4.48s-1.34 2.35-2.32 3.21c-.98.85-2.08 1.49-3.29 1.92s-2.46.64-3.76.63c-1.29 0-2.55-.21-3.77-.64a9.6 9.6 0 0 1-3.28-1.92c-.97-.86-1.75-1.92-2.32-3.2s-.86-2.76-.88-4.47c0-1.7.29-3.2.86-4.48s1.34-2.35 2.32-3.2 2.08-1.49 3.29-1.92 2.46-.64 3.76-.63c1.29 0 2.55.21 3.77.64a9.6 9.6 0 0 1 3.28 1.92c.97.86 1.75 1.92 2.32 3.2s.86 2.77.88 4.47" class="y" fill="#768894"></path><path d="M113.89 283.65 87.9 477.62l-1.38-4.86 25.99-193.97z" class="n" fill="#c8d3d9"></path><path d="M194.72 393.74 4.7 368.05l.59-1.77L195 391.71l-.27 2.02" class="n" fill="#c8d3d9"></path><path d="M186.54 314.74 12.3 448.15l13.45-13.03L162.45 331z" class="n" fill="#c8d3d9"></path><path d="M157.5 456.92 40.81 304.4l1.54-1.02L159.04 455.9z" class="n" fill="#c8d3d9"></path><path d="M160.44 305.62 41.12 455.54l-1.78-1.01 119.71-150.42 1.38 1.5" class="n" fill="#c8d3d9"></path><path d="M175.86 439.11 25.44 319.39l-1.01 1.78 149.92 119.32 1.5-1.38" class="n" fill="#c8d3d9"></path><path d="M195.32 370.06 4.93 392.07l-.51-2.05 190.91-22.01v2.05" class="n" fill="#c8d3d9"></path><path d="M109.91 475.37 87.9 284.98l2.05-.51 22.01 190.91h-2.05" class="n" fill="#c8d3d9"></path><path d="M99.8 288.17q25.59 0 46.32 12.54c13.82 8.36 24.82 19.45 33.01 33.27s12.28 29.09 12.28 45.81-4.09 32.5-12.28 46.32-19.19 24.82-33.01 33.01-29.26 12.28-46.32 12.28-31.99-4.09-45.81-12.28-24.91-19.19-33.27-33.01Q8.18 405.38 8.18 379.79c0-25.59 4.18-31.99 12.54-45.81q12.54-20.73 33.27-33.27t45.81-12.54m0 166.85c13.99 0 26.61-3.41 37.88-10.24 11.26-6.82 20.3-15.86 27.13-27.13 6.82-11.26 10.24-23.88 10.24-37.88s-3.41-26.19-10.24-37.62c-6.82-11.43-15.86-20.47-27.13-27.13-11.26-6.66-23.88-9.98-37.88-9.98s-26.19 3.33-37.62 9.98c-11.43 6.66-20.47 15.7-27.13 27.13s-9.98 23.97-9.98 37.62 3.33 26.61 9.98 37.88c6.66 11.26 15.7 20.3 27.13 27.13s23.97 10.24 37.62 10.24" class="u" fill="#99a8ae"></path><path d="M99.8 279.98c18.43 0 35.23 4.52 50.41 13.56s27.29 21.15 36.34 36.34c9.04 15.18 13.56 31.82 13.56 49.9s-4.52 35.23-13.56 50.41-21.15 27.29-36.34 36.34c-15.18 9.04-31.99 13.56-50.41 13.56s-35.15-4.52-50.16-13.56c-15.02-9.04-27.04-21.15-36.08-36.34C4.52 415.01 0 398.2 0 379.78s4.52-34.72 13.56-49.9 21.07-27.29 36.08-36.34c15.02-9.04 31.73-13.56 50.16-13.56m0 183.23c15.36 0 29.34-3.75 41.97-11.26 12.63-7.5 22.69-17.57 30.2-30.2 7.5-12.63 11.26-26.61 11.26-41.97s-3.75-29.26-11.26-41.71-17.57-22.44-30.2-29.94-26.61-11.26-41.97-11.26-29.34 3.75-41.97 11.26-22.6 17.49-29.94 29.94-11.01 26.36-11.01 41.71 3.67 29.34 11.01 41.97 17.32 22.69 29.94 30.2c12.63 7.5 26.61 11.26 41.97 11.26" class="ah" fill="#302c3b"></path><path d="M411.68 288.17q25.59 0 46.32 12.54c20.73 12.54 24.82 19.45 33.01 33.27s12.28 29.09 12.28 45.81-4.09 32.5-12.28 46.32-19.19 24.82-33.01 33.01-29.26 12.28-46.32 12.28-31.99-4.09-45.81-12.28-24.91-19.19-33.27-33.01q-12.54-20.73-12.54-46.32c0-25.59 4.18-31.99 12.54-45.81q12.54-20.73 33.27-33.27t45.81-12.54m0 166.85c13.99 0 26.61-3.41 37.88-10.24 11.26-6.82 20.3-15.86 27.13-27.13s10.24-23.88 10.24-37.88-3.41-26.19-10.24-37.62c-6.82-11.43-15.86-20.47-27.13-27.13-11.26-6.66-23.88-9.98-37.88-9.98s-26.19 3.33-37.62 9.98c-11.43 6.66-20.47 15.7-27.13 27.13s-9.98 23.97-9.98 37.62 3.33 26.61 9.98 37.88c6.66 11.26 15.7 20.3 27.13 27.13s23.97 10.24 37.62 10.24" class="u" fill="#99a8ae"></path><path d="M411.68 279.98c18.43 0 35.23 4.52 50.41 13.56s27.29 21.15 36.34 36.34c9.04 15.18 13.56 31.82 13.56 49.9s-4.52 35.23-13.56 50.41-21.15 27.29-36.34 36.34c-15.18 9.04-31.99 13.56-50.41 13.56s-35.15-4.52-50.16-13.56-27.04-21.15-36.08-36.34c-9.04-15.18-13.56-31.99-13.56-50.41s4.52-34.72 13.56-49.9 21.07-27.29 36.08-36.34c15.02-9.04 31.73-13.56 50.16-13.56m0 183.23c15.36 0 29.34-3.75 41.97-11.26 12.63-7.5 22.69-17.57 30.2-30.2 7.5-12.63 11.26-26.61 11.26-41.97s-3.75-29.26-11.26-41.71-17.57-22.44-30.2-29.94-26.61-11.26-41.97-11.26-29.34 3.75-41.97 11.26c-12.63 7.5-22.6 17.49-29.94 29.94s-11.01 26.36-11.01 41.71 3.67 29.34 11.01 41.97 17.32 22.69 29.94 30.2c12.63 7.5 26.61 11.26 41.97 11.26" class="ah" fill="#302c3b"></path><path d="M101.85 185.81c3.75-1.02 9.89-1.96 18.43-2.81s17.32-1.62 26.36-2.3 16.8-1.19 23.29-1.54 9.72-.51 9.72-.51l-12.79 37.88-13.31-3.58 4.09-14.84-53.74 5.63s.68 2.05 2.05 6.14 2.31 8.19 2.81 12.28c.51 4.09-.42 6.48-2.81 7.16-12.63 1.71-22.09.94-28.41-2.3q-9.465-4.86-9.72-13.05t8.19-16.38c5.63-5.46 14.24-9.38 25.85-11.77" class="x" fill="#323b3d"></path><path d="M112.52 380.02c-.01 2.09-.37 3.92-1.06 5.49s-1.65 2.88-2.85 3.93-2.55 1.83-4.03 2.35c-1.49.52-3.02.78-4.61.78s-3.13-.27-4.62-.79-2.83-1.3-4.03-2.36-2.14-2.36-2.84-3.93-1.06-3.4-1.06-5.48c.01-2.09.37-3.92 1.06-5.49s1.65-2.88 2.85-3.93 2.55-1.83 4.03-2.35c1.49-.52 3.02-.78 4.61-.78s3.13.27 4.62.79 2.83 1.3 4.03 2.36 2.14 2.36 2.85 3.93c.7 1.57 1.06 3.39 1.06 5.48" class="y" fill="#768894"></path><path d="M270.23 372.62h143.31v14.84H270.23z" fill="url(#1770301554706-4754569_b)"></path><path d="m155.08 236.99 172.99 3.58-.51 16.89-180.67-3.58z" fill="url(#1770301554706-4754569_c)"></path><path d="m326.53 248.25 91.1 125.9-12.28 8.7-86.5-120.27z" fill="url(#1770301554706-4754569_d)"></path><path d="m348.52 218.29-70.61 165.67-14.84-6.32 70.61-165.67 14.84 6.33" class="ac" fill="#596770"></path><path d="M103.14 359.64s1.8.24 5.39.7 7.42 2.11 11.49 4.92c0 0-1.25 2.34-3.75 7.03s-5.94 8.75-10.31 12.19c-4.06 3.44-7.74 3.6-11.02.47-3.28-3.12-3.36-6.56-.24-10.31 3.44-4.38 6.25-9.38 8.44-15" fill="url(#1770301554706-4754569_e)"></path><path d="m150.47 246.72 128.47 130-11.77 11.26-122.32-123.34 5.63-17.91" fill="url(#1770301554706-4754569_f)"></path><path d="m103.2 359.62 49.97-152.78 16.93 5.54-49.97 152.78z" fill="url(#1770301554706-4754569_g)"></path><path d="M419.68 379.79c0-3.07-1.28-5.2-3.84-6.4s-5.12-1.19-7.68 0-3.84 3.33-3.84 6.4c0 3.41 1.28 5.72 3.84 6.91q3.84 1.785 7.68 0c2.56-1.19 3.84-3.5 3.84-6.91m-148.42 10.75c4.43 0 7.42-1.79 8.96-5.37s1.54-7.08 0-10.49-4.52-5.12-8.96-5.12c-4.77 0-7.93 1.71-9.47 5.12s-1.54 6.91 0 10.49 4.69 5.37 9.47 5.37m-42.48 38.38c2.73-1.71 6.91-3.07 12.54-4.09s11.26-1.54 16.89-1.54 9.98.68 13.05 2.05c1.02.34 1.62 1.54 1.79 3.58.17 2.05-.26 3.58-1.28 4.61-2.73 1.71-7 2.99-12.79 3.84-5.8.85-11.51 1.28-17.14 1.28s-9.81-.51-12.54-1.54c-1.36-.68-2.13-2.05-2.3-4.09-.17-2.05.42-3.41 1.79-4.09" class="ac" fill="#596770"></path><path d="M308.11 217.03c.34-4.43 3.24-8.19 8.7-11.26s11.77-5.46 18.94-7.16c7.16-1.71 13.73-2.81 19.71-3.33 5.97-.51 9.98-.42 12.03.26 2.73.68 5.54 2.39 8.44 5.12s4.69 5.54 5.37 8.44-1.02 4.86-5.12 5.89q-8.7 2.565-25.59 5.37-16.89 2.82-42.48-3.33" class="ah" fill="#302c3b"></path><path d="m128.47 278.45 4.09-11.26 18.43 6.14-3.58 10.75z" class="x" fill="#323b3d"></path><path d="m162.76 109.55 18.94-49.13 6.14 2.56.51 3.33c.34 2.22 2.05 4.35 5.12 6.4 0 0-1.02 3.41-3.07 10.24-2.05 6.82-3.75 16.2-5.12 28.15-2.39-3.07-5.29-4.61-8.7-4.61s-6.57.51-9.47 1.54-4.35 1.54-4.35 1.54" class="ag" fill="#f0a429"></path><path d="M266.14 259c0-5.12 1.54-11.43 4.61-18.94s6.66-16.21 10.75-26.1c18.43 4.78 31.99 10.32 40.69 16.63 8.7 6.32 13.05 9.47 13.05 9.47-5.8 11.26-11.94 19.11-18.43 23.54-6.48 4.43-9.55 8.19-9.21 11.26q2.04 17.4 0 29.43c-1.36 8.02-3.16 15.27-5.37 21.75s-4.43 13.39-6.65 20.73-3.5 16.46-3.84 27.38c-3.07 4.09-6.82 5.97-11.26 5.63-4.43-.34-9.04-2.73-13.82-7.16-.34-24.22-.68-45.21-1.02-62.95q-.51-26.61.51-50.67" class="r" fill="#ffc940"></path><path d="M368.5 160.22c3.41 11.6 1.45 24.22-5.89 37.88-7.34 13.65-16.29 28.49-26.87 44.53-7.5-7.16-15.61-12.88-24.31-17.14-8.7-4.27-16.12-7.25-22.26-8.96s-9.21-2.56-9.21-2.56c2.05-7.5 4.43-14.67 7.16-21.49s4.95-12.71 6.66-17.66 1.71-8.1 0-9.47l56.3-39.41c5.12 5.12 9.04 10.49 11.77 16.12s4.95 11.69 6.66 18.17" class="v" fill="#1c9490"></path><path d="M283.54 202.7c14.33 2.05 26.1 5.97 35.31 11.77s16.89 12.28 23.03 19.45l-6.14 8.7c-7.5-7.16-15.61-12.88-24.31-17.14-8.7-4.27-16.12-7.25-22.26-8.96s-9.21-2.56-9.21-2.56c1.02-3.75 2.22-7.5 3.58-11.26" class="q" fill="#43c9b9"></path><path d="M350.08 125.93c-.68 5.12-4.18 11.43-10.49 18.94a90 90 0 0 1-22.01 18.94c-8.36 5.12-15.95 7-22.78 5.63.34-2.05 0-3.41-1.02-4.09l56.3-39.41" fill="#1c8a86"></path><path d="M291.73 374.16c0 7.16.17 12.2.51 15.1s.68 6.06 1.02 9.47c-4.09 5.46-8.02 8.62-11.77 9.47s-7.25.42-10.49-1.28c-3.24-1.71-5.8-3.58-7.68-5.63s-2.81-3.07-2.81-3.07l3.58-6.4c2.39-4.27 3.24-10.67 2.56-19.19 0 0 2.47.77 7.42 2.3 4.95 1.54 10.83 1.28 17.66-.77" fill="#d6dce3"></path><path d="M263.58 386.44c1.71 1.36 2.47 2.3 2.3 2.81s-.6 1.62-1.28 3.33c1.36-.34 2.3-.68 2.81-1.02s.94-.34 1.28 0c1.71 3.07 1.54 5.37-.51 6.91s-5.12-.94-9.21-7.42c0 0 .26-.17.77-.51s1.79-1.71 3.84-4.09" class="ab" fill="#e81c27"></path><path d="M211.89 420.22c16.04-.68 31.56-1.11 46.58-1.28s26.61 1.28 34.8 4.35c-.68 2.05-3.24 2.99-7.68 2.81-4.43-.17-9.38-.51-14.84-1.02s-10.24-.08-14.33 1.28c-8.87 3.75-17.91 4.61-27.13 2.56-9.21-2.05-15.02-4.95-17.4-8.7" class="ah" fill="#302c3b"></path><path d="M295.82 394.12c2.39 5.8 3.5 11.17 3.33 16.12s-2.13 9.3-5.89 13.05c-3.75 1.36-9.3 1.28-16.63-.26s-14.07-1.28-20.21.77c-8.87 3.75-16.98 5.03-24.31 3.84-7.34-1.19-14.08-3.67-20.21-7.42 0-1.02-.08-2.81-.26-5.37s.94-4.18 3.33-4.86c1.02-.34 2.56-.34 4.61 0s3.75.17 5.12-.51c7.5-3.41 12.97-6.14 16.38-8.19s6.4-3.84 8.96-5.37 6.23-3.16 11.01-4.86c2.05 1.71 4.77 3.84 8.19 6.4 3.41 2.56 7.5 3.67 12.28 3.33 4.43-.34 7.16-1.88 8.19-4.61 1.02-2.73 3.07-3.41 6.14-2.05" class="ab" fill="#e81c27"></path><path d="M295.82 394.12c1.71 4.09 2.73 7.85 3.07 11.26q-4.095-1.02-8.19 1.02c-2.73 1.36-5.97 2.22-9.72 2.56s-8.53-1.02-14.33-4.09c-1.71-2.39-3.41-4.43-5.12-6.14q-2.565-2.565-.51-7.68c2.05 1.71 4.77 3.84 8.19 6.4 3.41 2.56 7.5 3.67 12.28 3.33 4.43-.34 7.16-1.88 8.19-4.61 1.02-2.73 3.07-3.41 6.14-2.05"></path><path d="M261.02 393.09c1.71 1.71 3.41 3.58 5.12 5.63s2.39 4.27 2.05 6.66c0 1.02-.94 2.3-2.81 3.84s-3.84 1.96-5.89 1.28c-1.02-.68-2.22-2.56-3.58-5.63s-2.05-5.63-2.05-7.68c0 0 .6-.34 1.79-1.02l5.37-3.07" class="ac" fill="#596770"></path><path d="M263.07 409.99c-2.73-4.09-3.16-6.82-1.28-8.19s3.5.51 4.86 5.63c.34.68-.08 1.45-1.28 2.3-1.19.85-1.96.94-2.3.26" class="y" fill="#768894"></path><path d="M235.95 404.87c1.71.68 1.88 1.54.51 2.56s-2.9 1.62-4.61 1.79q-2.565.255-.51-2.31s.6-.08 1.79-.26 2.13-.77 2.81-1.79m11.26-7.16q2.565 1.53.51 3.33c-1.36 1.19-2.9 1.96-4.61 2.3s-2.05-.51-1.02-2.56l1.79-.51c1.19-.34 2.3-1.19 3.33-2.56m13.31-8.7c1.71 2.39 2.05 3.93 1.02 4.61-1.02.68-1.36 1.19-1.02 1.54 3.07 3.41 4.77 5.97 5.12 7.68 0 .68-.6 1.62-1.79 2.81s-2.3 1.62-3.33 1.28c-.68-.34-1.45-1.36-2.3-3.07s-1.62-3.58-2.3-5.63c-.34-.68-1.11-.77-2.3-.26s-1.62-.42-1.28-2.81l2.05-2.05c1.36-1.36 3.41-2.73 6.14-4.09" class="ah" fill="#302c3b"></path><path d="M350.08 125.93c-2.39 5.12-6.48 10.32-12.28 15.61s-11.94 9.98-18.43 14.07-12.2 7.16-17.15 9.21-8.1 2.39-9.47 1.02c-7.16-7.5-17.06-14.16-29.68-19.96-12.63-5.8-26.45-10.41-41.46-13.82-15.02-3.41-29.68-5.12-44.01-5.12 2.05-19.45 7.25-33.69 15.61-42.73s18.59-13.99 30.71-14.84c12.11-.85 25.42 1.28 39.92 6.4s29.17 12.11 44.01 20.98 28.92 18.59 42.23 29.17" class="v" fill="#1c9490"></path><path d="M350.08 125.93c-8.19-6.14-18.85-12.79-31.99-19.96-13.14-7.16-26.95-13.39-41.46-18.68-14.5-5.29-28.15-8.1-40.94-8.44s-23.29 3.07-31.48 10.24c-8.19 7.16-12.45 19.96-12.79 38.38-5.8-.34-10.41-.51-13.82-.51 1.02-22.18 4.09-37.19 9.21-45.04s10.07-12.79 14.84-14.84c11.94-4.43 25.16-5.37 39.66-2.81s28.92 7.34 43.25 14.33c14.33 7 27.38 14.76 39.15 23.29s20.55 16.55 26.36 24.06" class="q" fill="#43c9b9"></path><path d="m177.6 126.96 11.26-1.79c7.5-1.19 18.25-.26 32.24 2.81-1.02 5.12-2.05 11.43-3.07 18.94-1.02 7.5-2.13 14.5-3.33 20.98s-1.96 10.75-2.3 12.79c-1.02 2.73-4.86 5.2-11.51 7.42-6.66 2.22-14.67 4.18-24.06 5.89-9.38 1.71-18.77 2.9-28.15 3.58s-17.32.68-23.8 0c-6.82-1.71-10.92-4.52-12.28-8.44-1.36-3.93-1.36-6.06 0-6.4 10.92-1.36 19.19-2.99 24.82-4.86 5.63-1.88 10.07-3.75 13.31-5.63s6.66-3.67 10.24-5.37c3.58-1.71 8.78-2.9 15.61-3.58-.34-4.09-.34-8.96 0-14.59s.6-10.67.77-15.1.26-6.65.26-6.65m-96.23 82.91c.34 3.75.94 5.97 1.79 6.65s1.96 1.02 3.33 1.02c3.75 4.43 6.65 5.63 8.7 3.58.34.34 1.62.85 3.84 1.54 2.22.68 3.67-.17 4.35-2.56-1.02-2.05-1.45-3.58-1.28-4.61s-.08-3.75-.77-8.19c-1.7.34-4.43-.6-8.19-2.81-3.75-2.22-7.25-4.09-10.49-5.63s-4.86-1.11-4.86 1.28q0 5.625 1.02 7.68c1.02 2.055 1.54 2.05 2.56 2.05" class="r" fill="#ffc940"></path><path d="M77.8 200.14c-1.37-3.41-.51-6.14 2.56-8.19 1.36-1.02 3.75-2.56 7.16-4.61s5.8-3.24 7.16-3.58c1.02 0 4.01-.26 8.96-.77s7.93-.6 8.96-.26q2.565.51 7.68 4.35c3.41 2.56 4.95 6.06 4.61 10.49-1.02 1.36-2.3 2.65-3.84 3.84s-2.3 1.79-2.3 1.79q0 3.075-6.66 5.37c-4.43 1.54-7.85 2.13-10.24 1.79-4.09-1.71-6.82-2.22-8.19-1.54q-1.53-1.02-3.33-2.31c-1.8-1.29-2.13-.77-2.81.26-.68-1.71-1.62-2.81-2.81-3.33s-1.79-.26-1.79.77c-3.07-4.77-4.77-6.14-5.12-4.09" class="v" fill="#1c9490"></path><path d="M229.8 96.76c15.7 9.89 30.88 16.8 45.55 20.73s27.89 6.91 39.66 8.96 21.07 5.46 27.89 10.24c-6.82 8.19-14.08 14.67-21.75 19.45-7.68 4.77-14.24 8.02-19.71 9.72-5.46 1.71-8.53 2.22-9.21 1.54-4.43-5.46-10.83-10.07-19.19-13.82s-17.32-7.34-26.87-10.75-18.09-7.34-25.59-11.77l5.12-31.22 4.09-3.07" class="af" fill="#1c807c"></path><path d="M107.48 38.92c2.05-9.21 6.48-15.02 13.31-17.4 6.82-2.39 14.33-2.13 22.52.77s15.61 7.59 22.26 14.08c6.66 6.48 11.35 14.16 14.08 23.03s1.54 18.09-3.58 27.64c0 4.43-1.88 9.21-5.63 14.33s-8.28 9.55-13.56 13.31-10.24 5.8-14.84 6.14-7.59-2.22-8.96-7.68c-.34-1.7-1.54-2.3-3.58-1.79-2.05.51-3.24-.94-3.58-4.35 1.02-.34.85-.85-.51-1.54-3.41-.68-4.77-1.88-4.09-3.58s.51-3.07-.51-4.09c-3.41 0-6.23-.6-8.44-1.79s-2.3-2.99-.26-5.37c1.36-3.41 2.65-7.16 3.84-11.26 1.19-4.09-.08-8.87-3.84-14.33-4.09-6.14-6.06-11.35-5.89-15.61s.6-7.76 1.28-10.49" class="r" fill="#ffc940"></path><path d="m125.41 105.76 3.38-.9c2.25-.6 3.84-1.43 4.76-2.48.38-.1.61.04.71.41.1.38.15.56.15.56-1.2 1.53-2.83 2.57-4.9 3.12s-3.1.83-3.1.83-.15-.16-.43-.49-.48-.68-.58-1.05" class="w" fill="#d48100"></path><path d="M111.06 94.2s.77.6 2.31 1.79 4.18.42 7.93-2.31c2.05-1.36 3.24-1.19 3.58.51q1.02 3.585-1.02 4.35c-1.36.51-2.22 1.11-2.56 1.79 0-1.7-.34-2.56-1.02-2.56-1.36.34-3.16.26-5.37-.26q-3.33-.765-3.84-3.33" class="ag" fill="#f0a429"></path><path d="M131.26 55.07c2.1.43 2.36.79.8 1.07-6.34.72-10.68 2.49-13.01 5.33-.32.46-.86.25-1.62-.62-.76-.88-.94-1.35-.56-1.42 3.49-5.46 8.28-6.92 14.39-4.36" class="w" fill="#d48100"></path><path d="M129 79.6c-.36.09-1.32-1.29-2.86-4.16-1.55-2.87-2.51-5.03-2.9-6.47-.48-1.8.58-2.86 3.2-3.18 2.62-.31 5.84.17 9.67 1.46q1.23.255-1.05 5.79c-1.52 3.69-3.54 5.88-6.06 6.56" fill="#f2f7fc"></path><path d="M123.62 69.91c-.42-1.56.12-3.07 1.61-4.51s2.78.61 3.86 6.18c1.57 5.85 1.45 8.5-.38 7.95s-3.52-3.76-5.09-9.61" fill="#945231"></path><path d="M124.88 71.68c-.68-2.05-.6-3.07.26-3.07s1.62 1.37 2.3 4.09c.68 3.07.6 4.35-.26 3.84s-1.62-2.13-2.3-4.86" fill="#1a1626"></path><path d="M136.12 67.25c-1.18-.07-3.12-.13-5.84-.17-2.71-.04-5.01.77-6.89 2.43.09.36-.58.35-2.04-.03s-2.05-.8-1.79-1.26c2.21-3.3 5.21-4.69 9.03-4.16 3.81.52 6.32 1.59 7.52 3.2" fill="#45332c"></path><path d="M124.89 94.6c.58 2.16.26 3.12-.97 2.87s-2.33-.05-3.32.6q1.335-1.515 3.18-1.14c1.23.25 1.6-.52 1.12-2.33" class="w" fill="#d48100"></path><path d="M167.33 52.29c3.02-2.09 5.71-1.86 8.06.69 2.35 2.54 3.21 5.52 2.59 8.93-.25 3.3-1.32 5.52-3.2 6.67s-3.24 3.06-4.09 5.72q-1.605-1.35-1.92-2.46c1.54-1.66 1.69-3.91.45-6.78-1.23-2.87-2.86-3.61-4.87-2.21-.66-5.05.34-8.56 2.99-10.54" class="ag" fill="#f0a429"></path><path d="M188.86 63.49c-2.39 2.39-4.35 7.42-5.89 15.1s-4.01 13.74-7.42 18.17c-2.73 3.75-5.37 6.74-7.93 8.96l-3.84 3.33c4.09-6.82 5.29-12.54 3.58-17.14s-4.43-9.64-8.19-15.1-7-12.79-9.72-22.01c-.34-1.02 1.36-.77 5.12.77 3.75 1.54 5.63 2.3 5.63 2.3s.6 1.54 1.79 4.61 2.73 6.31 4.61 9.72 3.58 5.89 5.12 7.42c1.54 1.54 2.47.77 2.81-2.31 1.02-4.09 2.39-7.85 4.09-11.26 1.71-3.41 2.56-5.12 2.56-5.12z" fill="#2d2d30"></path><path d="M90.59 57.35c5.12-1.71 11.17-3.24 18.17-4.61 7-1.36 13.82-1.62 20.47-.77 6.66.85 12.03 3.33 16.12 7.42-1.02 0-3.07-.34-6.14-1.02q-2.565-.51-5.37-1.02-2.82-.51-4.86 0c-1.7 0-3.41.17-5.12.51l-5.12 1.02c-6.48 1.02-12.45 1.7-17.91 2.05-5.46.34-8.87-.85-10.24-3.58" class="aa" fill="#8a0404"></path><path d="M196.02 23.06c.68.68 2.47 1.62 5.37 2.81s4.35 2.13 4.35 2.81v3.07c0 .68 1.19 2.22 3.58 4.61 1.36 1.71 2.56 3.24 3.58 4.61 1.02 1.36 1.36 2.22 1.02 2.56-2.39 3.07-3.41 5.12-3.07 6.14s1.02 1.71 2.05 2.05c1.36 1.02 1.19 2.39-.51 4.09a142 142 0 0 1-13.82 11.26c-2.05 1.71-4.86 2.13-8.44 1.28s-9.81-2.81-18.68-5.89c-2.39-.68-4.86-1.45-7.42-2.31-2.56-.85-5.37-1.79-8.44-2.81l-3.07.51-4.09 1.02c-1.36.34-2.39.51-3.07.51s-2.05-.34-4.09-1.02c-2.05-.68-4.35-1.45-6.91-2.3s-5.2-1.11-7.93-.77c-2.05.34-4.09.6-6.14.77a72 72 0 0 0-6.14.77c-5.8 1.02-11.09 1.71-15.86 2.05-4.78.34-7.34-.17-7.68-1.54-2.05-7.85-.77-16.29 3.84-25.33s12.03-16.72 22.26-23.03c10.22-6.31 22.84-9.29 37.85-8.95 15.02.34 31.9 5.8 50.67 16.38.68.68.26 1.54-1.28 2.56s-3.24 1.96-5.12 2.81-2.81 1.28-2.81 1.28" class="ab" fill="#e81c27"></path><path d="M103.39 47.11c1.7-2.73 5.29-5.71 10.75-8.96 5.46-3.24 11.69-6.4 18.68-9.47 7-3.07 13.82-5.63 20.47-7.68 6.66-2.05 11.85-3.24 15.61-3.58q1.53 0 3.33 3.33c1.8 3.33 1.79 3.67 1.79 4.35-.68.68-2.9 2.22-6.66 4.61-3.75 2.39-8.19 4.86-13.31 7.42s-9.81 4.77-14.08 6.66c-4.27 1.88-7.08 2.99-8.44 3.33-7.85 1.71-14.76 2.81-20.73 3.33-5.97.51-8.44-.6-7.42-3.33m-7.67-2.05c3.07-8.53 8.7-15.86 16.89-22.01q12.285-9.21 25.08-12.54c12.795-3.33 15.18-1.62 19.96 1.79-12.28 2.05-22.69 5.37-31.22 9.98s-15.27 9.04-20.21 13.31-8.1 7.25-9.47 8.96q-1.02 1.02-1.02.51m82.9-8.7c-1.36-.34-.17-1.88 3.58-4.61s6.66-4.27 8.7-4.61c1.36 0 4.77 1.79 10.24 5.37s9.72 7.42 12.79 11.51c-1.36 1.71-2.22 3.16-2.56 4.35l-.51 1.79s-2.81-1.71-8.44-5.12-13.56-6.31-23.8-8.7m7.68-16.87c.68-1.36 2.13-2.13 4.35-2.3s4.86-.08 7.93.26h6.66c-.34 1.71-1.71 3.24-4.09 4.61-2.39 1.36-3.58 2.05-3.58 2.05l-11.26-4.61" class="aa" fill="#8a0404"></path></g></svg>
