<svg xmlns="http://www.w3.org/2000/svg" data-name="Layer 1" style="" viewBox="0 0 512 426.67"><g><defs><linearGradient id="1770301554721-958230_c" x1="86" x2="86" y1="75.26" y2="166.43" gradientTransform="matrix(1 0 0 -1 0 418.67)" gradientUnits="userSpaceOnUse"><stop offset="0" stop-color="#de9400"></stop><stop offset=".39" stop-color="#edba00"></stop><stop offset=".78" stop-color="#fada00"></stop><stop offset="1" stop-color="#ffe600"></stop></linearGradient><linearGradient id="1770301554721-958230_d" x1="292.47" x2="292.47" y1="64.93" y2="338.44" gradientTransform="matrix(1 0 0 -1 0 418.67)" gradientUnits="userSpaceOnUse"><stop offset="0" stop-color="#de9400"></stop><stop offset=".03" stop-color="#e09902"></stop><stop offset=".2" stop-color="#eaad08"></stop><stop offset=".4" stop-color="#f2bc0d"></stop><stop offset=".63" stop-color="#f6c410"></stop><stop offset="1" stop-color="#f7c711"></stop></linearGradient><linearGradient id="1770301554721-958230_e" x1="349.27" x2="349.27" y1="210.79" y2="252.16" gradientTransform="matrix(1 0 0 -1 0 418.67)" gradientUnits="userSpaceOnUse"><stop offset="0" stop-color="#302c3b"></stop><stop offset=".36" stop-color="#3d3e4b"></stop><stop offset="1" stop-color="#5b666e"></stop></linearGradient><linearGradient id="1770301554721-958230_f" x1="114.57" x2="114.57" y1="283.74" y2="338.44" gradientTransform="matrix(1 0 0 -1 0 418.67)" gradientUnits="userSpaceOnUse"><stop offset="0" stop-color="#626c75"></stop><stop offset=".01" stop-color="#646e77"></stop><stop offset=".18" stop-color="#7b878f"></stop><stop offset=".35" stop-color="#8c9aa0"></stop><stop offset=".53" stop-color="#96a4ab"></stop><stop offset=".73" stop-color="#99a8ae"></stop></linearGradient><linearGradient id="1770301554721-958230_h" x1="392.45" x2="392.45" y1="36.25" y2="95.48" gradientTransform="matrix(1 0 0 -1 0 418.67)" gradientUnits="userSpaceOnUse"><stop offset="0" stop-color="#626c75"></stop><stop offset=".01" stop-color="#646e77"></stop><stop offset=".24" stop-color="#7b878f"></stop><stop offset=".48" stop-color="#8c9aa0"></stop><stop offset=".72" stop-color="#96a4ab"></stop><stop offset="1" stop-color="#99a8ae"></stop></linearGradient><linearGradient id="1770301554721-958230_i" x1="405.08" x2="405.08" y1="64.93" y2="192.56" gradientTransform="matrix(1 0 0 -1 0 418.67)" gradientUnits="userSpaceOnUse"><stop offset="0" stop-color="#de9400"></stop><stop offset=".39" stop-color="#edba00"></stop><stop offset=".78" stop-color="#fada00"></stop><stop offset="1" stop-color="#ffe600"></stop></linearGradient><linearGradient id="1770301554721-958230_j" x1="487.8" x2="487.8" y1="126.75" y2="150.62" gradientTransform="matrix(1 0 0 -1 0 418.67)" gradientUnits="userSpaceOnUse"><stop offset="0" stop-color="#de9400"></stop><stop offset=".03" stop-color="#e09902"></stop><stop offset=".2" stop-color="#eaad08"></stop><stop offset=".4" stop-color="#f2bc0d"></stop><stop offset=".63" stop-color="#f6c410"></stop><stop offset="1" stop-color="#f7c711"></stop></linearGradient><radialGradient id="1770301554721-958230_b" cx="72.93" cy="64.88" r="72.93" fx="72.93" fy="64.88" gradientTransform="matrix(1 0 0 -1 0 418.62)" gradientUnits="userSpaceOnUse"><stop offset=".49" stop-color="#5b666e"></stop><stop offset=".64" stop-color="#525a64"></stop><stop offset=".92" stop-color="#3c3b49"></stop><stop offset="1" stop-color="#343040"></stop></radialGradient><radialGradient id="1770301554721-958230_g" cx="420.83" cy="64.88" r="72.93" fx="420.83" fy="64.88" gradientTransform="matrix(1 0 0 -1 0 418.62)" gradientUnits="userSpaceOnUse"><stop offset=".49" stop-color="#5b666e"></stop><stop offset=".64" stop-color="#525a64"></stop><stop offset=".92" stop-color="#3c3b49"></stop><stop offset="1" stop-color="#343040"></stop></radialGradient></defs><path d="M72.92 280.81C32.62 280.81 0 313.42 0 353.74s32.61 72.93 72.92 72.93 72.95-32.64 72.95-72.93-32.63-72.93-72.95-72.93m0 116.38c-23.99 0-43.46-19.45-43.46-43.43s19.47-43.49 43.46-43.49 43.47 19.46 43.47 43.49-19.44 43.43-43.47 43.43" fill="url(#1770301554721-958230_b)"></path><path d="M81.78 342.94v21.58h32.26v-21.58zm20.55 16.34h-8.84c-7.65 0-7.65-11.11 0-11.11h8.84c7.64 0 7.64 11.11 0 11.11m-43.18-3.32-16.12 27.96 18.7 10.82 16.12-27.96zm3.89 26c-3.81 6.62-13.43 1.07-9.61-5.55l4.42-7.65c3.81-6.6 13.43-1.07 9.62 5.55zm-1.31-69.25-18.7 10.8 16.16 27.97 18.7-10.81zm-3.88 25.98-4.41-7.64c-3.83-6.61 5.79-12.17 9.6-5.56l4.43 7.65c3.82 6.6-5.79 12.17-9.62 5.54Z" class="v" fill="#cfd8dd"></path><path d="M72.9 306.32c-26.14 0-47.37 21.21-47.37 47.46s21.22 47.36 47.37 47.36 47.45-21.27 47.45-47.36-21.26-47.46-47.45-47.46m0 86.92c-21.77 0-39.47-17.72-39.47-39.47s17.7-39.55 39.47-39.55 39.54 17.7 39.54 39.55-17.72 39.47-39.54 39.47" class="t" fill="#b3c2c6"></path><path d="M72.94 367.71c-7.73 0-13.99-6.28-13.99-13.97s6.25-13.99 13.99-13.99 13.98 6.25 13.98 13.99c0 7.68-6.29 13.97-13.98 13.97" class="t" fill="#b3c2c6"></path><path d="m66.12 350.59 26.99-76.92c1.4-4.05 5.83-6.17 9.83-4.74 4.02 1.43 6.13 5.83 4.73 9.85l-26.98 76.93c-2.82 8.07-17.54 3.39-14.57-5.11Z" class="ac" fill="#302c3b"></path><path d="M53.5 306.94c36.45 0 54.7 36.46 82.05 36.46h28.56c0-45.6-28.56-91.17-92.38-91.17-45.59 0-63.82 27.34-63.82 36.46s.79 18.24 18.24 18.24h27.36Z" fill="url(#1770301554721-958230_c)"></path><path d="M502.89 244.33h-9.11v36.47h9.11c9.11 0 9.11-8.18 9.11-18.23s0-18.24-9.11-18.24" fill="#e81c27"></path><path d="M161.48 311.31h127.81v11.86H161.48z" class="ac" fill="#302c3b"></path><path d="M457.3 244.33h45.59v36.47H457.3z" class="ab" fill="#4e5e67"></path><path d="M127.64 134.93v-54.7h36.45c27.35 0 18.24 54.7 0 54.7-19.75 0-20.66 52.43-20.66 91.19 0 59.25 19.45 91.16 46.8 91.16h94.61s-1.48-36.45 15.8-64.22c-28.64-16.3-45.13-26.93-45.13-45.18 49.59-14.28 179.91 0 179.91 0C510.35 242.31 512 353.74 512 353.74s-70.78-60.38-199.5-10.33H136.75c0-44.07-63.81-80.84-63.81-99.07s54.71-91.17 54.71-109.41" fill="url(#1770301554721-958230_d)"></path><path d="M164.1 89.35c10.07 0 18.24 8.15 18.24 18.23s-8.17 18.24-18.24 18.24-18.24-8.17-18.24-18.24c0-10.08 8.19-18.23 18.24-18.23" class="w" fill="#6e8189"></path><path d="M164.1 98.47c-5.03 0-9.11 4.08-9.11 9.11s4.09 9.11 9.11 9.11h18.24V98.45H164.1Z" fill="#282433"></path><path d="M424.64 166.5c-25.57 0-83.76 8.52-151.94 8.52-17.07 0-17.19 32.85-17.19 32.85h179.5s23.71-41.37-10.37-41.37" fill="url(#1770301554721-958230_e)"></path><path d="M101.5 80.23h26.14v54.7H109.4z" fill="url(#1770301554721-958230_f)"></path><path d="M182.33 98.47c5.05 0 9.11 4.08 9.11 9.11s-4.07 9.11-9.11 9.11-9.11-4.1-9.11-9.11 4.08-9.11 9.11-9.11m-41.38-9.12c2.7 0 5.29-2.03 5.75-4.51l8.24-45.7c.44-2.48-1.43-4.49-4.12-4.49s-4.5 2.01-4.94 4.49l-9.06 45.7c-.45 2.47 1.42 4.51 4.13 4.51" class="w" fill="#6e8189"></path><path d="M164.1 0h-9.11v54.71h9.11c2.51 0 9.11-9.13 9.11-27.37S166.6 0 164.1 0" fill="#99a8ae"></path><path d="M154.98 0c-2.5 0-9.11 9.11-9.11 27.34s6.61 27.37 9.11 27.37 9.11-9.13 9.11-27.37S157.5 0 154.98 0" class="w" fill="#6e8189"></path><path d="M420.8 280.81c-40.29 0-72.91 32.61-72.91 72.93s32.61 72.93 72.91 72.93 72.96-32.64 72.96-72.93-32.63-72.93-72.96-72.93m0 116.38c-24 0-43.45-19.45-43.45-43.43s19.46-43.49 43.45-43.49 43.48 19.46 43.48 43.49-19.43 43.43-43.48 43.43" fill="url(#1770301554721-958230_g)"></path><path d="M429.67 342.94v21.58h32.27v-21.58zm20.55 16.34h-8.83c-7.65 0-7.65-11.11 0-11.11h8.83c7.64 0 7.64 11.11 0 11.11m-43.17-3.32-16.14 27.96 18.7 10.82 16.14-27.96zm3.89 26c-3.82 6.62-13.43 1.07-9.63-5.55l4.44-7.65c3.81-6.6 13.43-1.07 9.61 5.55z" class="v" fill="#cfd8dd"></path><path d="M420.8 306.32c-26.14 0-47.39 21.21-47.39 47.46s21.24 47.36 47.39 47.36 47.44-21.27 47.44-47.36c0-26.24-21.26-47.46-47.44-47.46m0 86.92c-21.79 0-39.48-17.72-39.48-39.47s17.7-39.55 39.48-39.55 39.53 17.7 39.53 39.55c0 21.75-17.72 39.47-39.53 39.47" class="t" fill="#b3c2c6"></path><path d="M421.76 382.41c-16.08 0-88.45-12.1-88.45-27.92 0-8.66 3.24-24.11 9.4-29.38 5.11-4.33 71.77 0 79.05 0 39.75 0 39.75 57.3 0 57.3" fill="url(#1770301554721-958230_h)"></path><circle cx="420.83" cy="353.74" r="21.87" class="t" fill="#b3c2c6"></circle><path d="M330.15 326.07c-12.89-1.32-23.36 21.18-30.15 35.32-4.94 10.27 6.43 23.48 22.97 21.98 60.33-5.46 69.38-40.82 7.18-57.3" class="ab" fill="#4e5e67"></path><ellipse cx="343.25" cy="352.82" class="ac" rx="35.54" ry="26.18" fill="#302c3b"></ellipse><path d="M343.26 374.01h.15-.32.16Z" style="isolation:isolate" fill="#ab5c10" opacity=".5"></path><path d="M361.93 336.32c-5.15-2.9-11.58-4.71-18.67-4.71s-13.54 1.81-18.67 4.71zm-46.86 9.42h56.36c-.84-1.66-1.87-3.25-3.23-4.71h-49.89c-1.36 1.46-2.39 3.05-3.23 4.71Zm-1.83 7.08c0 .79.2 1.56.32 2.34h59.38c.12-.79.34-1.55.34-2.34s-.22-1.58-.34-2.37h-59.38c-.11.79-.32 1.56-.32 2.37m5.06 11.76h49.91c1.37-1.44 2.39-3.03 3.23-4.7h-56.37c.84 1.66 1.86 3.26 3.23 4.7m6.26 4.69c5.11 2.92 11.5 4.7 18.53 4.73h.32c7.05-.03 13.43-1.81 18.55-4.73z" class="ab" fill="#4e5e67"></path><path d="M393.48 226.11c-112.59 0-107.93 128.65-74.56 117.27C422.34 308.14 512 353.75 512 353.75s0-127.63-118.52-127.63" fill="url(#1770301554721-958230_i)"></path><path d="M499.81 269.56h-5.95v20.85h5.95c5.96 0 5.96-4.68 5.96-10.44s0-10.41-5.96-10.41" fill="#ea8c00"></path><path d="M477.57 273.23c3.52-4 22.25-5.18 22.25-5.18v23.87s-18.73-1.18-22.25-5.16c-2.36-2.7-2.36-10.86 0-13.53" fill="url(#1770301554721-958230_j)"></path></g></svg>
