<svg xmlns="http://www.w3.org/2000/svg" data-name="Layer 1" style="" viewBox="0 0 512 512"><g><defs><radialGradient id="1770301554731-6661981_b" cx="192.89" cy="306.5" r="278.33" fx="192.89" fy="306.5" gradientTransform="matrix(1.05 0 0 -1.05 7.02 517.89)" gradientUnits="userSpaceOnUse"><stop offset=".27" stop-color="#3a3547"></stop><stop offset=".52" stop-color="#373244"></stop><stop offset=".72" stop-color="#2d283a"></stop><stop offset=".9" stop-color="#1d1929"></stop><stop offset=".93" stop-color="#1a1626"></stop></radialGradient><radialGradient id="1770301554731-6661981_c" cx="1192.95" cy="884.16" r="139.72" fx="1192.95" fy="884.16" gradientTransform="matrix(.3599 .46751 .7924 -.61 -962.2 104.12)" gradientUnits="userSpaceOnUse"><stop offset="0" stop-color="#586167"></stop><stop offset="1" stop-color="#586167" stop-opacity="0"></stop></radialGradient></defs><circle cx="256" cy="256" r="256" fill="url(#1770301554731-6661981_b)"></circle><path d="M215.89 185c-61.18 47.1-133.12 56.15-160.77 20.22s-.51-103.17 60.67-150.27c61.19-47.1 133.13-56.14 160.78-20.22C304.22 70.66 277 137.98 215.9 185Z" fill="url(#1770301554731-6661981_c)"></path><path d="M378.79 118.53c41.64 50.35 36.69 123.22-11.01 162.65-47.7 39.51-120.15 30.63-161.79-19.71C164.35 211.12 169.3 138.25 217 98.82c47.7-39.42 120.15-30.63 161.79 19.71" fill="#fff"></path><path d="M347.05 164.86c-7.25-2.05-15.19-1.37-23.72 1.11 5.38-5.46 9.3-11.43 10.84-18.26 1.96-8.28.6-16.38-4.1-24.41-4.18-7.17-9.64-12.37-16.55-15.62-6.91-3.24-14.76-4.61-23.38-4.01-8.79.6-17.83 3.07-27.14 7.51-9.47 4.61-17.32 10.24-23.38 17.07-6.14 6.91-9.98 14.42-11.35 22.44-1.37 8.11.17 16.13 4.78 24.15 5.03 8.62 12.29 14.34 21.85 16.98 7.59 2.05 15.79 1.54 24.15-.51-7.17 6.66-12.63 13.82-15.1 22.02-3.07 10.15-1.71 20.31 4.1 30.29 4.86 8.45 11.35 14.08 19.46 17.07 8.02 2.9 16.9 3.33 26.54 1.28 9.47-1.96 19.03-6.31 28.59-12.8 9.39-6.4 16.55-13.4 21.76-21.16 5.12-7.59 8.02-15.36 8.7-23.3.68-7.85-1.19-15.53-5.55-23.13-4.95-8.62-11.78-14.17-20.48-16.73Zm-83.71-19.03c2.3-4.95 6.57-8.96 12.71-12.12 6.06-3.07 11.78-4.18 17.15-3.33 5.38.85 9.64 4.1 12.89 9.81 3.16 5.46 3.75 10.75 1.79 15.87-1.96 5.21-5.55 9.98-10.75 14.25-6.49 2.3-12.63 2.99-18.43 1.96-5.89-1.02-10.41-4.35-13.74-9.98-3.41-5.97-3.93-11.43-1.62-16.47Zm80.13 65.88c-2.39 5.63-7 10.67-13.74 15.02-6.91 4.44-13.4 6.57-19.63 6.31s-11.18-3.41-14.68-9.56c-3.33-5.8-3.75-11.78-1.11-17.92 2.65-6.06 7.08-11.69 13.4-16.9 7.51-2.9 14.25-4.01 20.39-3.33 6.06.68 10.67 3.75 13.91 9.3 3.33 5.8 3.84 11.52 1.45 17.07Z" fill="#302c3b"></path></g></svg>
