<svg xmlns="http://www.w3.org/2000/svg" data-name="Layer 1" style="" viewBox="0 0 512 512"><g><defs><linearGradient id="1770301554735-7078317_b" x1="-727.4" x2="-727.4" y1="343.34" y2="304.94" gradientTransform="matrix(-1 0 0 1 -418.62 83.33)" gradientUnits="userSpaceOnUse"><stop offset="0" stop-color="#302c3b"></stop><stop offset=".29" stop-color="#454754"></stop><stop offset=".76" stop-color="#636d78"></stop><stop offset="1" stop-color="#6e7b85"></stop></linearGradient><linearGradient id="1770301554735-7078317_c" x1="328.53" x2="328.53" y1="181.2" y2="198.26" gradientTransform="matrix(1 0 0 -1 0 514)" gradientUnits="userSpaceOnUse"><stop offset="0" stop-color="#99a8ae"></stop><stop offset=".12" stop-color="#a3b0b6"></stop><stop offset=".59" stop-color="#c3cdd2"></stop><stop offset=".85" stop-color="#cfd8dd"></stop></linearGradient><linearGradient id="1770301554735-7078317_d" x1="260.57" x2="328.83" y1="496.93" y2="496.93" gradientTransform="matrix(1 0 0 -1 0 514)" gradientUnits="userSpaceOnUse"><stop offset="0" stop-color="#c40000"></stop><stop offset=".22" stop-color="#d80005"></stop><stop offset=".6" stop-color="#f4000b"></stop><stop offset=".81" stop-color="#ff000e"></stop></linearGradient><linearGradient id="1770301554735-7078317_e" x1="247.46" x2="264.53" y1="303.41" y2="303.41" gradientTransform="matrix(1 0 0 -1 0 514)" gradientUnits="userSpaceOnUse"><stop offset=".15" stop-color="#cfd8dd"></stop><stop offset=".41" stop-color="#c3cdd2"></stop><stop offset=".88" stop-color="#a3b0b6"></stop><stop offset="1" stop-color="#99a8ae"></stop></linearGradient><linearGradient id="1770301554735-7078317_f" x1="263.15" x2="393.55" y1="321.86" y2="321.86" gradientTransform="matrix(1 0 0 -1 0 514)" gradientUnits="userSpaceOnUse"><stop offset="0" stop-color="#de9400"></stop><stop offset=".03" stop-color="#e09902"></stop><stop offset=".2" stop-color="#eaad08"></stop><stop offset=".4" stop-color="#f2bc0d"></stop><stop offset=".63" stop-color="#f6c410"></stop><stop offset="1" stop-color="#f7c711"></stop></linearGradient><linearGradient id="1770301554735-7078317_g" x1="59.74" x2="247.46" y1="295.52" y2="295.52" gradientTransform="matrix(1 0 0 -1 0 514)" gradientUnits="userSpaceOnUse"><stop offset="0" stop-color="#ffe600"></stop><stop offset="1" stop-color="#f9c802"></stop></linearGradient><linearGradient id="1770301554735-7078317_h" x1="145.89" x2="230.57" y1="290.51" y2="290.51" gradientTransform="matrix(1 0 0 -1 0 514)" gradientUnits="userSpaceOnUse"><stop offset=".19" stop-color="#ff000e"></stop><stop offset=".4" stop-color="#f4000b"></stop><stop offset=".78" stop-color="#d80005"></stop><stop offset="1" stop-color="#c40000"></stop></linearGradient><linearGradient id="1770301554735-7078317_i" x1="42.66" x2="503.46" y1="44.66" y2="44.66" gradientTransform="matrix(1 0 0 -1 0 514)" gradientUnits="userSpaceOnUse"><stop offset="0" stop-color="#ffe8bb"></stop><stop offset="1" stop-color="#e6ca93"></stop></linearGradient><linearGradient id="1770301554735-7078317_j" x1="34.99" x2="511.15" y1="81.24" y2="81.24" gradientTransform="matrix(1 0 0 -1 0 514)" gradientUnits="userSpaceOnUse"><stop offset=".19" stop-color="#ff000e"></stop><stop offset=".4" stop-color="#f4000b"></stop><stop offset=".78" stop-color="#d80005"></stop><stop offset="1" stop-color="#c40000"></stop></linearGradient><linearGradient id="1770301554735-7078317_k" x1="70.57" x2="502.42" y1="8.09" y2="8.09" gradientTransform="matrix(1 0 0 -1 0 514)" gradientUnits="userSpaceOnUse"><stop offset="0" stop-color="#e6ca93"></stop><stop offset="1" stop-color="#d1b475"></stop></linearGradient><linearGradient id="1770301554735-7078317_l" x1="-93.91" x2="-89.64" y1="806.38" y2="806.38" gradientTransform="matrix(0 1 1 0 -533.31 516.31)" gradientUnits="userSpaceOnUse"><stop offset=".15" stop-color="#cfd8dd"></stop><stop offset=".41" stop-color="#c3cdd2"></stop><stop offset=".88" stop-color="#a3b0b6"></stop><stop offset="1" stop-color="#99a8ae"></stop></linearGradient><linearGradient id="1770301554735-7078317_m" x1="-121.64" x2="-117.38" y1="789.31" y2="789.31" gradientTransform="matrix(0 1 1 0 -533.31 516.31)" gradientUnits="userSpaceOnUse"><stop offset=".15" stop-color="#cfd8dd"></stop><stop offset=".41" stop-color="#c3cdd2"></stop><stop offset=".88" stop-color="#a3b0b6"></stop><stop offset="1" stop-color="#99a8ae"></stop></linearGradient></defs><path d="M206.02 375.47h230.4l8.53 51.2H154.82z" class="ag" fill="#e6ebef"></path><path d="M412.9 392.44c-.5-2.3-2.84-4.17-5.18-4.17h-179.2c-2.34 0-5.62 1.36-7.28 3.02l-19.57 19.57c-1.66 1.66-1.1 3.02 1.25 3.02h210.49c2.34 0 3.85-1.87 3.34-4.17l-3.85-17.26Z" fill="url(#1770301554735-7078317_b)"></path><path d="M275.77 384.72h8.53v34.14h-8.53zm75.21 0h8.53v34.14h-8.53z" class="ag" fill="#e6ebef"></path><path d="M391.46 315.74H256v17.06h135.46c5.33 0 9.61-3.8 9.61-8.51s-4.28-8.55-9.61-8.55" fill="url(#1770301554735-7078317_c)"></path><path d="M251.43 0h9.12v82.3h-9.12z" fill="#302c3b"></path><path d="M260.57 0v34.14c23.14 0 45.46-21.62 68.26-17.06-22.8-15.93-45.48-1.13-68.26-17.07Z" fill="url(#1770301554735-7078317_d)"></path><path d="M256 45.71c-4.66 0-8.54 4.11-8.54 9.15v320.6h17.06V54.86c0-5.04-3.82-9.15-8.53-9.15Z" fill="url(#1770301554735-7078317_e)"></path><path d="M263.15 66.4s28.72 152.44.1 251.47c60.26-27.55 130.3-.89 130.3-.89z" fill="url(#1770301554735-7078317_f)"></path><path d="M42.66 418.46s0-32.85 45.54-97.1c0 0-23.38 36.43-45.54 97.1m395.88-30.2s-30.59-19.58-45-71.29c0 0 18.94 46.22 45 71.29m-175.39 4.27s-32.26-31.33-42.4-76.8c0 0 12.66 37.47 42.4 76.8" fill="#99a8ae"></path><path d="M247.46 68.26S122.3 253.38 59.74 366.94c0 0 85.28 12.1 170.66-27.14 0 0-8.22-146.18 17.06-271.53Z" fill="url(#1770301554735-7078317_g)"></path><path d="m229.5 248.8 1.06-31.62s-13.68-11.84-68.42-18.99c-5.34 8.36-10.8 16.9-16.26 25.53l83.62 25.09Z" fill="url(#1770301554735-7078317_h)"></path><path d="m229.14 287.47.37-38.66s-25.55-19.34-83.62-25.09c-9.46 14.94-19.02 30.18-28.38 45.36 74.44.52 111.63 18.39 111.63 18.39" fill="#ffe8bb"></path><path d="m13.51 396.26 29.15 26.14h8.54l-29.15-26.14zm98.14 0h4.27v26.14h-4.27zm77.09 0H193v26.14h-4.26zm77.08 0h4.26v26.14h-4.26zm77.08 0h4.27v26.14h-4.27zm77.08 0h4.26v26.14h-4.26zm81.28 0h-4.2v26.14h4.27v-26.16z" fill="#b3c2c6"></path><path d="M494.94 512H76.8c0-39.25-34.14-85.33-34.14-85.33h460.8L494.93 512Z" fill="url(#1770301554735-7078317_i)"></path><path d="M503.47 426.67H42.66l8.11 12.19h451.48z" fill="url(#1770301554735-7078317_j)"></path><path d="M76.8 512h418.14l1.21-12.18H75.8z" fill="url(#1770301554735-7078317_k)"></path><path d="M38.4 426.67c-2.34 0-4.26-.97-4.26-2.14s1.92-2.14 4.26-2.14h469.34c2.34 0 4.26.97 4.26 2.14s-1.92 2.14-4.26 2.14z" fill="url(#1770301554735-7078317_l)"></path><path d="M4.26 398.94c-2.34 0-4.26-.96-4.26-2.14 0-1.17 1.92-2.13 4.26-2.13h503.47c2.34 0 4.26.95 4.26 2.13s-1.92 2.14-4.26 2.14z" fill="url(#1770301554735-7078317_m)"></path><path d="M445.02 430.94h5.96v11.94h-5.96zm0 47.76h5.96v11.94h-5.96zm20.9-20.88h11.94v5.95h-11.94zm-47.78 0h11.94v5.95h-11.94z" fill="#f2f5f7"></path><path d="M434.74 460.8h-10.63c0-13.16 10.73-23.89 23.88-23.89v10.62c-7.31 0-13.25 5.94-13.25 13.26Zm13.24 23.9v-10.62c7.33 0 13.3-5.96 13.3-13.28h10.6c0 13.15-10.72 23.9-23.9 23.9" fill="#ff000e"></path><path d="M447.98 484.7c-13.16 0-23.88-10.75-23.88-23.9h10.63c0 7.32 5.94 13.28 13.25 13.28zm23.9-23.9h-10.6c0-7.32-5.97-13.26-13.3-13.26v-10.62c13.18-.02 23.9 10.72 23.9 23.89Z" fill="#fff"></path><path d="M422.6 457.82h-2.98c.02-.5.53-12.23 7.12-18.86 6.93-6.94 17.79-6.51 18.26-6.53v2.98c-.06-.02-10.14-.34-16.14 5.64-5.76 5.78-6.26 16.63-6.26 16.76Zm53.78 5.96c-.03.5-.53 12.23-7.15 18.86-6.92 6.91-17.82 6.5-18.26 6.52v-2.98c.09.02 10.16.34 16.14-5.62 5.81-5.81 6.26-16.64 6.26-16.78h3Zm-3.01-5.96c0-.13-.45-10.98-6.25-16.77-6-5.97-16.07-5.66-16.14-5.64v-2.97c.45 0 11.32-.41 18.24 6.51 6.63 6.62 7.13 18.36 7.16 18.86h-3.01Zm-28.87 31.35c-2.37 0-11.62-.41-17.75-6.52-6.59-6.63-7.1-18.37-7.12-18.88h2.98c0 .13.5 10.98 6.28 16.78 5.98 5.96 16.06 5.66 16.14 5.64v2.96c-.06.02-.2.02-.52.02Z" fill="#785647"></path></g></svg>
