<svg xmlns="http://www.w3.org/2000/svg" data-name="Layer 1" style="" viewBox="0 0 512 352"><g><defs><linearGradient id="1770301554751-3042291_b" x1="256" x2="256" y1="46.11" y2="312.26" gradientTransform="matrix(1 0 0 -1 0 338)" gradientUnits="userSpaceOnUse"><stop offset="0" stop-color="#f9c802"></stop><stop offset="1" stop-color="#ffe600"></stop></linearGradient><linearGradient id="1770301554751-3042291_c" x1="-677.64" x2="-667.48" y1="735.27" y2="735.27" gradientTransform="matrix(0 -1 -1 0 1031.71 -476.05)" gradientUnits="userSpaceOnUse"><stop offset="0" stop-color="#ffe600"></stop><stop offset="1" stop-color="#f9c802"></stop></linearGradient><linearGradient id="1770301554751-3042291_d" x1="299.97" x2="299.97" y1="200.46" y2="295.32" gradientTransform="matrix(1 0 0 -1 0 338)" gradientUnits="userSpaceOnUse"><stop offset="0" stop-color="#302c3b"></stop><stop offset=".29" stop-color="#454754"></stop><stop offset=".76" stop-color="#636d78"></stop><stop offset="1" stop-color="#6e7b85"></stop></linearGradient><radialGradient id="1770301554751-3042291_e" cx="282.37" cy="86.65" r="51.83" fx="282.37" fy="86.65" gradientTransform="matrix(1.15 0 0 -1.16 84.35 392.37)" gradientUnits="userSpaceOnUse"><stop offset=".49" stop-color="#5b666e"></stop><stop offset=".64" stop-color="#525a64"></stop><stop offset=".92" stop-color="#3c3b49"></stop><stop offset="1" stop-color="#343040"></stop></radialGradient><radialGradient id="1770301554751-3042291_f" cx="15.48" cy="86.64" r="51.83" fx="15.48" fy="86.64" gradientTransform="matrix(1.15 0 0 -1.16 84.35 392.37)" gradientUnits="userSpaceOnUse"><stop offset=".49" stop-color="#5b666e"></stop><stop offset=".64" stop-color="#525a64"></stop><stop offset=".92" stop-color="#3c3b49"></stop><stop offset="1" stop-color="#343040"></stop></radialGradient></defs><path d="M270.27 0h-16.02v25.75H288S284.1 0 270.26 0Z" class="o" fill="#f59e01"></path><path d="M258.48 4.31h-4.22v21.45h4.22z" fill="#ab5110"></path><path d="M465.89 301.13H69.5C3.74 301.13 0 274.7 0 274.7h505.47s-7.62 26.42-39.58 26.42Z" class="r" fill="#4e5e67"></path><path d="M499.75 191.86s-7.1-18.38-.54-31.33c0 0 2.76-14.67-4.62-23-7.41-5.62-26.16-5.82-31.11-13.72-10.94-17.43-39.22-65.62-48.53-81.14-4.58-7.64-17.51-16.92-32.02-16.92H245.87c-16.07 0-27.14 10.66-33.6 16.92-15.18 14.7-86.4 90.26-86.4 90.26C24.79 152.77 8.42 183.01 8.42 183.01v18.28c0 6.68-8.42 15.12-8.42 23.98v49.44s1.22 17.18 50.62 17.18h428.43c47.77 0 33-90.95 20.83-90.95-2.38-4.2-.14-9.08-.14-9.08Z" fill="url(#1770301554751-3042291_b)"></path><path d="m499.87 200.94-.14-9.08s-315.14-2.54-406.74 4.83c91.81 7.38 406.87 4.25 406.87 4.25Z" fill="url(#1770301554751-3042291_c)"></path><path d="M499.2 160.53h-17.34l-6.34 31.33h24.21s9.69-10.3-.54-31.33Z" fill="#e81c27"></path><path d="M173.74 123.74c-5.58 7.58-2.49 13.8 6.9 13.8H417.5c9.4 0 13.93-7.05 10.1-15.67l-28.23-63.5c-3.83-8.63-14.65-15.68-24.04-15.68H250.49c-9.38 0-18.77 5.94-24.36 13.54l-52.39 67.52Z" fill="url(#1770301554751-3042291_d)"></path><path d="M328.54 42.67h-15.38l-3.57 94.86h21.85z" class="o" fill="#f59e01"></path><path d="M337.69 280.1H166.24l-.14-.9c-4.3-26.67-7.87-48.08-10.75-65.34-10.44-62.7-11.78-70.77-6.41-77.02 2.4-2.78 11.13-13.41 22.17-26.86 15.83-19.27 35.53-43.26 46.54-56.28 10.38-12.25 19.69-19.34 36.6-19.34H375.8c16.17 0 26.75 6.74 33.31 21.2 1.96 4.33 38.58 80.56 38.58 92.9v79.58c-10.11-12.34-91.84-29.23-109.83 51.2l-.18.86Zm-169.63-2.15h167.91c17.74-82.05 100.17-64.26 109.61-54.1v-75.41c0-11.86-36.42-87.66-38.41-92.02-6.17-13.61-16.13-19.94-31.36-19.94H254.26c-16.17 0-24.77 6.53-34.97 18.59-11.02 13.01-30.72 36.99-46.54 56.26-11.05 13.46-19.78 24.09-22.2 26.89-4.73 5.5-3.18 14.78 6.9 75.25 2.85 17.08 6.37 38.21 10.61 64.47Z" class="m" fill="#f9c802"></path><path d="M319.46 35.42h2.14v243.59h-2.14z" class="m" fill="#f9c802"></path><path d="M10.55 183.02h25.92v18.28H10.55z" class="t" fill="#e6ebef"></path><path d="M44.89 183.02h-8.42v18.28h18.77s-.65-13.59-10.35-18.28" class="o" fill="#f59e01"></path><path d="M17.66 250.39H4.39v23.41h29.59s-1.04-17.39-16.33-23.41Z" class="n" fill="#1a1626"></path><path d="M25.33 255.41H1.84v4.28h27.14c-.99-1.5-2.22-2.92-3.66-4.28ZM1.84 269.26h31.33c-.32-1.28-.76-2.72-1.39-4.3H1.84z" class="r" fill="#4e5e67"></path><path d="M319.28 170.77h25.3v25.75h-25.3zm-25.33 25.74h25.33v25.75h-25.33z" class="s" fill="#302c3b"></path><path d="M268.66 170.77h25.3v25.75h-25.3zm-25.32 25.74h25.31v25.75h-25.31zm-25.3-25.74h25.3v25.75h-25.3z" class="s" fill="#302c3b"></path><path d="M192.73 196.51h25.32v25.75h-25.32zm-25.31-25.74h25.3v25.75h-25.3z" class="s" fill="#302c3b"></path><path d="M197.74 139.61v-20.97c0-8.84-36.34-1.62-36.33 5.86v14.95c0 3.14 36.33 7.44 36.33.16m104.64 15.77c0-4.08 0-7.39-10.34-7.39h-10.85c-10.35 0-10.35 3.31-10.35 7.39 0 2.46 31.54 2.46 31.54 0m125.29 0c0-4.08 0-7.39-10.34-7.39H406.5c-10.35 0-10.35 3.31-10.35 7.39 0 2.46 31.53 2.46 31.53 0Z" class="o" fill="#f59e01"></path><path d="M478.08 291.9c0-37.97-30.53-68.7-68.26-68.7-37.67-.02-68.23 30.8-68.26 68.7h136.53Z" class="n" fill="#1a1626"></path><ellipse cx="409.82" cy="291.89" rx="59.74" ry="60.1" fill="url(#1770301554751-3042291_e)"></ellipse><ellipse cx="409.82" cy="291.89" class="t" rx="41.31" ry="41.56" fill="#e6ebef"></ellipse><path d="M439.92 302.17a31.6 31.6 0 0 0 0-20.56l-17.71 10.28zm-23.91-21.09 17.7-10.28c-4.54-5.18-10.7-8.9-17.7-10.31zm-36.3.53c-1.09 3.23-1.72 6.69-1.72 10.28s.63 7.05 1.72 10.28l17.71-10.28zm36.3 21.08v20.59c7.02-1.39 13.17-5.11 17.72-10.31zm-12.4-21.61v-20.59c-7 1.41-13.17 5.13-17.7 10.31zm0 21.62-17.7 10.26c4.55 5.2 10.7 8.92 17.7 10.31v-20.58Z" class="r" fill="#4e5e67"></path><ellipse cx="409.82" cy="291.89" class="l" rx="16.23" ry="16.33" fill="#cfd8dd"></ellipse><circle cx="409.82" cy="291.89" r="5.39" class="t" fill="#e6ebef"></circle><path d="M412.15 282.11c0 3.11-4.65 3.11-4.65 0s4.65-3.1 4.65 0m0 19.56c0 3.1-4.65 3.1-4.65 0s4.65-3.11 4.65 0m7.24-12.65c-2.68 1.56-5-2.49-2.31-4.03 2.66-1.56 4.98 2.49 2.31 4.03m-16.83 9.78c-2.67 1.54-4.98-2.49-2.32-4.05 2.68-1.57 5 2.48 2.32 4.05m14.51 0c-2.67-1.56-.35-5.61 2.33-4.05 2.67 1.56.35 5.59-2.33 4.05m-16.83-9.78c-2.68-1.54-.35-5.59 2.32-4.03 2.68 1.54.36 5.59-2.32 4.03" class="r" fill="#4e5e67"></path><path d="M170.46 291.9c0-37.97-30.53-68.7-68.28-68.7-37.66-.02-68.22 30.8-68.26 68.7z" class="n" fill="#1a1626"></path><ellipse cx="102.19" cy="291.9" rx="59.74" ry="60.1" fill="url(#1770301554751-3042291_f)"></ellipse><ellipse cx="102.2" cy="291.9" class="t" rx="41.31" ry="41.56" fill="#e6ebef"></ellipse><path d="M132.31 302.2c1.1-3.25 1.71-6.69 1.71-10.3s-.62-7.05-1.71-10.28l-17.7 10.28zm-23.92-21.1 17.7-10.28c-4.53-5.18-10.7-8.9-17.7-10.31zm-36.3.51c-1.08 3.25-1.7 6.69-1.7 10.3s.62 7.05 1.7 10.28l17.72-10.28zm36.3 21.09v20.61c7.03-1.41 13.17-5.13 17.72-10.31zm-12.4-21.6v-20.59c-7 1.41-13.17 5.13-17.7 10.31zm0 21.62L78.29 313c4.55 5.18 10.7 8.9 17.7 10.31z" class="r" fill="#4e5e67"></path><ellipse cx="102.19" cy="291.9" class="l" rx="16.23" ry="16.33" fill="#cfd8dd"></ellipse><circle cx="102.21" cy="291.9" r="5.4" class="t" fill="#e6ebef"></circle><path d="M104.52 282.14c0 3.1-4.65 3.1-4.65 0 0-3.13 4.65-3.13 4.65 0m0 19.53c0 3.13-4.65 3.13-4.65 0 0-3.1 4.65-3.1 4.65 0m7.26-12.64c-2.68 1.56-4.98-2.49-2.3-4.03 2.66-1.56 4.97 2.49 2.3 4.03m-16.84 9.79c-2.66 1.54-4.98-2.49-2.32-4.05 2.69-1.57 5 2.5 2.32 4.05m14.5 0c-2.66-1.54-.35-5.61 2.34-4.05 2.66 1.56.35 5.59-2.34 4.05m-16.82-9.79c-2.68-1.54-.35-5.59 2.32-4.03 2.68 1.54.37 5.59-2.32 4.03" class="r" fill="#4e5e67"></path></g></svg>
