<svg xmlns="http://www.w3.org/2000/svg" style="" viewBox="0 0 512 480.16"><g><defs><linearGradient id="1770301554764-5428458_b" x1="256" x2="256" y1="282.64" y2="307.2" gradientTransform="matrix(1 0 0 -1 0 376.33)" gradientUnits="userSpaceOnUse"><stop offset="0" stop-color="#5b666e"></stop><stop offset="1" stop-color="#a0a8ad"></stop></linearGradient><linearGradient id="1770301554764-5428458_c" x1="15.55" x2="7.98" y1="74.42" y2="-89.21" gradientTransform="matrix(1 0 0 -1 0 376.33)" gradientUnits="userSpaceOnUse"><stop offset="0" stop-color="#5b666e"></stop><stop offset="1" stop-color="#a0a8ad"></stop></linearGradient><linearGradient id="1770301554764-5428458_d" x1="34.3" x2="71.68" y1="292.42" y2="294.47" gradientTransform="matrix(1 0 0 -1 0 376.33)" gradientUnits="userSpaceOnUse"><stop offset="0" stop-color="#5b666e"></stop><stop offset="1" stop-color="#302c3b"></stop></linearGradient><linearGradient id="1770301554764-5428458_e" x1="68.11" x2="110.06" y1="294.14" y2="296.7" gradientTransform="matrix(1 0 0 -1 0 376.33)" gradientUnits="userSpaceOnUse"><stop offset="0" stop-color="#5b666e"></stop><stop offset="1" stop-color="#302c3b"></stop></linearGradient><linearGradient id="1770301554764-5428458_f" x1="55.28" x2="47.12" y1="213.51" y2="373.26" gradientTransform="matrix(1 0 0 -1 0 376.33)" gradientUnits="userSpaceOnUse"><stop offset="0" stop-color="#302c3b"></stop><stop offset=".16" stop-color="#33303f"></stop><stop offset=".32" stop-color="#3d3d4b"></stop><stop offset=".49" stop-color="#4d515e"></stop><stop offset=".66" stop-color="#646e79"></stop><stop offset=".74" stop-color="#72808a"></stop><stop offset=".81" stop-color="#707d87"></stop><stop offset=".86" stop-color="#68737e"></stop><stop offset=".91" stop-color="#5b636f"></stop><stop offset=".96" stop-color="#494c59"></stop><stop offset="1" stop-color="#322f3e"></stop><stop offset="1" stop-color="#302c3b"></stop></linearGradient><linearGradient id="1770301554764-5428458_g" x1="77.93" x2="69.75" y1="68.11" y2="-95.48" gradientTransform="matrix(1 0 0 -1 0 376.33)" gradientUnits="userSpaceOnUse"><stop offset="0" stop-color="#302c3b"></stop><stop offset=".16" stop-color="#33303f"></stop><stop offset=".32" stop-color="#3d3d4b"></stop><stop offset=".49" stop-color="#4d515e"></stop><stop offset=".66" stop-color="#646e79"></stop><stop offset=".74" stop-color="#72808a"></stop><stop offset=".81" stop-color="#707d87"></stop><stop offset=".86" stop-color="#68737e"></stop><stop offset=".91" stop-color="#5b636f"></stop><stop offset=".96" stop-color="#494c59"></stop><stop offset="1" stop-color="#322f3e"></stop><stop offset="1" stop-color="#302c3b"></stop></linearGradient><linearGradient id="1770301554764-5428458_h" x1="475.37" x2="467.8" y1="54.17" y2="-109.44" gradientTransform="matrix(1 0 0 -1 0 376.33)" gradientUnits="userSpaceOnUse"><stop offset="0" stop-color="#5b666e"></stop><stop offset="1" stop-color="#a0a8ad"></stop></linearGradient><linearGradient id="1770301554764-5428458_i" x1="477.71" x2="440.33" y1="292.43" y2="294.45" gradientTransform="matrix(1 0 0 -1 0 376.33)" gradientUnits="userSpaceOnUse"><stop offset="0" stop-color="#5b666e"></stop><stop offset="1" stop-color="#302c3b"></stop></linearGradient><linearGradient id="1770301554764-5428458_j" x1="444.22" x2="402.23" y1="292.38" y2="294.94" gradientTransform="matrix(1 0 0 -1 0 376.33)" gradientUnits="userSpaceOnUse"><stop offset="0" stop-color="#5b666e"></stop><stop offset="1" stop-color="#302c3b"></stop></linearGradient><linearGradient id="1770301554764-5428458_k" x1="456.75" x2="465.45" y1="211.26" y2="371.49" gradientTransform="matrix(1 0 0 -1 0 376.33)" gradientUnits="userSpaceOnUse"><stop offset="0" stop-color="#302c3b"></stop><stop offset=".16" stop-color="#33303f"></stop><stop offset=".32" stop-color="#3d3d4b"></stop><stop offset=".49" stop-color="#4d515e"></stop><stop offset=".66" stop-color="#646e79"></stop><stop offset=".74" stop-color="#72808a"></stop><stop offset=".81" stop-color="#707d87"></stop><stop offset=".86" stop-color="#68737e"></stop><stop offset=".91" stop-color="#5b636f"></stop><stop offset=".96" stop-color="#494c59"></stop><stop offset="1" stop-color="#322f3e"></stop><stop offset="1" stop-color="#302c3b"></stop></linearGradient><linearGradient id="1770301554764-5428458_l" x1="409.28" x2="400.39" y1="46.85" y2="-117.22" gradientTransform="matrix(1 0 0 -1 0 376.33)" gradientUnits="userSpaceOnUse"><stop offset="0" stop-color="#302c3b"></stop><stop offset=".16" stop-color="#33303f"></stop><stop offset=".32" stop-color="#3d3d4b"></stop><stop offset=".49" stop-color="#4d515e"></stop><stop offset=".66" stop-color="#646e79"></stop><stop offset=".74" stop-color="#72808a"></stop><stop offset=".81" stop-color="#707d87"></stop><stop offset=".86" stop-color="#68737e"></stop><stop offset=".91" stop-color="#5b636f"></stop><stop offset=".96" stop-color="#494c59"></stop><stop offset="1" stop-color="#322f3e"></stop><stop offset="1" stop-color="#302c3b"></stop></linearGradient><linearGradient id="1770301554764-5428458_n" x1="276.01" x2="276.01" y1="194.72" y2="207.93" gradientTransform="matrix(1 0 0 -1 0 376.33)" gradientUnits="userSpaceOnUse"><stop offset="0" stop-color="#a6694a"></stop><stop offset="1" stop-color="#4f2a1e"></stop></linearGradient><linearGradient id="1770301554764-5428458_o" x1="235.99" x2="235.99" y1="194.72" y2="207.93" gradientTransform="matrix(1 0 0 -1 0 376.33)" gradientUnits="userSpaceOnUse"><stop offset="0" stop-color="#a6694a"></stop><stop offset="1" stop-color="#4f2a1e"></stop></linearGradient><radialGradient id="1770301554764-5428458_m" cx="-1377.29" cy="448.68" r="9.96" fx="-1377.29" fy="448.68" gradientTransform="matrix(1 0 0 -1 0 376.33)" gradientUnits="userSpaceOnUse"><stop offset=".51" stop-color="#f0a429" stop-opacity=".8"></stop><stop offset="1" stop-color="#f0a429" stop-opacity="0"></stop></radialGradient></defs><path d="M240.13 114.17s.6 4.01 1.79 12.03 2.3 17.84 3.32 29.44c1.03 11.61 1.45 23.29 1.28 35.07s-1.45 21.51-3.84 29.18q-3.585 11.52-12.54 11.52c-8.955 0-14.08-5.97-24.32-17.92-7.51-25.94-10.75-46.5-9.73-61.7 1.03-15.19 4.27-26.2 9.73-33.02q8.19-10.245 18.18-10.5c6.65-.17 12.03 1.79 16.13 5.89" class="am" fill="#e68c00"></path><path d="M242.69 114.69c-7.85-1.36-14.93-1.71-21.25-1.02q-9.465 1.02-15.36 10.5c-3.93 6.31-5.89 17.24-5.89 32.77s2.56 37.46 7.68 65.79c-10.58-24.58-16.21-45.74-16.89-63.49s1.7-31.49 7.17-41.21c5.46-9.73 12.37-14.93 20.74-15.62 8.36-.68 16.3 3.41 23.81 12.29" class="al" fill="#f9a307"></path><path d="M245.25 111.1s-.25 1.02-.77 3.07c-.51 2.05-2.65 4.27-6.4 6.66s-10.41 4.09-19.96 5.12c-1.71-2.05-1.71-4.52 0-7.42 1.7-2.9 4.35-5.46 7.93-7.68 3.59-2.22 7.17-3.5 10.75-3.84 3.59-.34 6.4 1.02 8.45 4.09" class="ad" fill="#732eb0"></path><path d="m247.81 113.67-.51 3.07q-.51 3.075-6.66 6.66c-4.09 2.39-11.43 4.09-22.01 5.12-1.7-2.05-1.54-4.52.51-7.42s4.95-5.46 8.7-7.68 7.6-3.5 11.52-3.84c3.93-.34 6.74 1.02 8.45 4.09m41.98 108.54 18.43 59.39s-.6 2.47-1.79 7.42c-1.2 4.95-2.47 10.58-3.84 16.9-1.37 6.31-2.39 12.03-3.07 17.15 0 1.02.26 4.61.77 10.75s1.03 13.57 1.54 22.27 1.03 17.41 1.54 26.11.6 16.13.26 22.27-1.36 9.56-3.07 10.24c-8.87 5.12-16.47 7.76-22.78 7.94-6.32.17-11.27-.42-14.85-1.79-3.59-1.36-5.89-2.05-6.92-2.05s-3.33.68-6.91 2.05c-3.59 1.36-8.54 1.96-14.85 1.79-6.32-.17-13.91-2.82-22.79-7.94-1.7-.68-2.64-4.09-2.82-10.24-.17-6.14-.08-13.57.26-22.27s.77-17.41 1.28-26.11 1.02-16.13 1.54-22.27.77-9.73.77-10.75c-.68-5.12-1.7-10.84-3.07-17.15-1.36-6.31-2.64-11.95-3.84-16.9s-1.79-7.42-1.79-7.42l18.43-59.39 33.79 5.63 33.79-5.63" class="ak" fill="#8e3ed6"></path><path d="M256 299.01c2.73 0 6.57.68 11.52 2.05s10.07 2.3 15.36 2.82q7.935.765 14.85-3.84c4.61-3.07 8.11-9.22 10.5-18.43-1.36 8.88-2.82 16.13-4.35 21.76-1.54 5.63-2.65 12.21-3.33 19.71-.34 3.41-3.5 6.23-9.47 8.45-5.98 2.22-13.31 3.75-22.02 4.61-8.7.85-17.32.85-25.85 0-8.54-.85-15.88-2.39-22.01-4.61-6.14-2.22-9.39-5.03-9.73-8.45q-1.02-11.265-3.33-19.71c-2.31-8.445-2.98-12.89-4.35-21.76 2.39 9.22 5.89 15.36 10.5 18.43q6.915 4.605 14.85 3.84c7.935-.765 10.41-1.45 15.36-2.82s8.79-2.05 11.52-2.05" class="ad" fill="#732eb0"></path><path d="m300.54 323.07 1.54 25.09s-4.27 2.05-12.8 6.14c-8.54 4.09-19.63 6.14-33.28 6.14s-24.75-2.05-33.28-6.14c-8.54-4.09-12.8-6.14-12.8-6.14l1.54-25.09s4.01 1.36 12.03 4.09 18.86 4.09 32.51 4.09 24.49-1.36 32.51-4.09 12.03-4.09 12.03-4.09" fill="#302c3b"></path><path d="m289.28 222.21-.77 9.73c-.51 6.49.51 14.42 3.07 23.81 2.56 9.38 8.11 18 16.64 25.86 0 0 1.62-3.33 4.87-9.98 3.24-6.65 4.69-13.23 4.35-19.71 4.44-5.8 9.73-12.8 15.87-20.99s11.61-16.38 16.38-24.58c4.78-8.19 7.34-14.67 7.68-19.46 4.78-8.54 7.85-18.18 9.22-28.93 1.36-10.75 2.56-21.51 3.59-32.25 1.02-10.75 3.07-20.74 6.14-29.95h-23.55c-1.7 12.97-3.75 23.29-6.14 30.98-2.39 7.68-4.61 14.67-6.65 20.99-2.05 6.31-3.25 14.08-3.59 23.29-3.75 1.71-8.02 6.14-12.8 13.31s-7.51 13.65-8.19 19.46c-8.87 2.05-15.45 5.63-19.71 10.75-4.27 5.12-6.4 7.68-6.4 7.68m-66.57-.01s.25 3.24.77 9.73-.51 14.42-3.07 23.81c-2.56 9.38-8.11 18-16.64 25.86 0 0-1.62-3.33-4.86-9.98-3.25-6.65-4.7-13.23-4.36-19.71-4.44-5.8-9.73-12.8-15.87-20.99s-11.6-16.38-16.38-24.58c-4.78-8.19-7.34-14.67-7.68-19.46-4.78-8.54-7.85-18.18-9.22-28.93-1.36-10.75-2.56-21.51-3.58-32.25-1.02-10.75-3.07-20.74-6.14-29.95h23.55c1.71 12.97 3.75 23.29 6.14 30.98s4.61 14.67 6.66 20.99c2.04 6.31 3.24 14.08 3.58 23.29 3.75 1.71 8.02 6.14 12.8 13.31s7.51 13.65 8.19 19.46c8.88 2.05 15.45 5.63 19.71 10.75 4.27 5.12 6.4 7.68 6.4 7.68m9.22 10.23c-1.36-3.41-2.04-8.28-2.04-14.59v-9.47h52.22v9.47c0 6.31-.69 11.18-2.05 14.59-3.41 10.24-8.28 17.07-14.59 20.48-6.32 3.41-12.63 3.41-18.94 0-6.32-3.41-11.18-10.24-14.6-20.48" class="ae" fill="#ffc940"></path><path d="m282.11 222.72-3.59 4.61c-2.39 3.07-5.55 6.06-9.47 8.96q-5.88 4.35-13.05 4.35c-4.78.34-9.13-1.02-13.05-4.09s-7.08-6.14-9.47-9.22c-2.39-3.07-3.58-4.61-3.58-4.61h52.22" class="ap" fill="#f0a429"></path><path d="m330.75 397.83-7.17 1.02c-4.78.68-10.33.77-16.64.26s-11.78-2.3-16.38-5.37-6.74-8.36-6.4-15.87c.68-9.56 3.25-17.32 7.68-23.29s9.47-10.67 15.1-14.08 10.84-6.66 15.61-9.73l8.19 67.07" class="ae" fill="#ffc940"></path><path d="M300.54 414.21c-1.7.34-4.01-1.28-6.91-4.87s-5.37-8.19-7.42-13.83c-2.05-5.63-2.73-11.52-2.05-17.66.68 4.78 3.07 7.85 7.17 9.22 4.1 1.36 8.71.6 13.83-2.3s9.56-8.45 13.31-16.64c0 0 .43 1.96 1.28 5.89s1.28 8.62 1.28 14.08-1.54 10.66-4.61 15.62c-3.07 4.95-8.36 8.45-15.88 10.5" class="ap" fill="#f0a429"></path><path d="M310.78 429.57c2.73-10.24 3.76-18.43 3.07-24.58-.68-6.14-1.11-11.86-1.28-17.15s1.79-11.86 5.89-19.71c7.17-8.19 13.65-13.14 19.46-14.85s10.84-1.71 15.1 0 7.51 3.67 9.73 5.89 3.32 3.33 3.32 3.33c.68 6.49-.68 12.37-4.09 17.66s-7.34 11.69-11.78 19.2-8.19 17.58-11.27 30.21c-8.53 3.07-14.85 4.52-18.94 4.35s-6.65-.94-7.68-2.31c-1.02-1.36-1.54-2.05-1.54-2.05" class="ae" fill="#ffc940"></path><path d="M360.45 371.2c0-2.05.77-3.67 2.31-4.87 1.53-1.2 2.64-2.47 3.32-3.84-.34 1.71-1.2 3.16-2.56 4.35-1.36 1.2-2.39 2.65-3.07 4.35m-45.57-119.8c-3.75-1.02-6.49-2.9-8.19-5.63s-3.41-4.95-5.12-6.66c3.07 1.36 5.37 3.33 6.91 5.89s3.67 4.69 6.4 6.4m-117.76 0c3.75-1.02 6.49-2.9 8.19-5.63 1.71-2.73 3.41-4.95 5.12-6.66-3.07 1.36-5.38 3.33-6.92 5.89s-3.66 4.69-6.4 6.4" class="ap" fill="#f0a429"></path><path d="M318.46 368.13c-1.7-.68-2.64-3.93-2.82-9.73-.17-5.8.34-11.52 1.54-17.15q1.8-8.445 5.37-10.5c10.59-4.44 19.2-5.8 25.86-4.09s11.52 5.03 14.59 9.98 4.87 9.98 5.38 15.1-.26 8.7-2.31 10.75c-5.8-4.09-11.6-6.23-17.41-6.4q-8.7-.255-15.36 2.82c-4.44 2.05-8.02 4.09-10.75 6.14l-4.09 3.07" class="as" fill="#a0a8ad"></path><path d="M338.94 429.57c.69-.34.26 1.45-1.28 5.37s-2.64 7.6-3.32 11.01c-12.97 4.78-20.91 5.37-23.81 1.79-2.9-3.59-3.5-7.6-1.79-12.03.34-.68.6-1.96.77-3.84s.6-2.64 1.28-2.3c3.41 1.36 8.45 1.88 15.1 1.54 6.66-.34 11.01-.85 13.05-1.54" class="ag" fill="#d6dce3"></path><path d="M358.4 454.66c6.83.68 11.43 2.64 13.83 5.89 2.39 3.24 3.41 6.4 3.07 9.47-.68 2.05-3.84 3.41-9.47 4.09s-12.46.77-20.48.26-16.04-1.45-24.06-2.82-14.76-3.24-20.22-5.63c-.68-9.56 0-15.7 2.05-18.43 2.04-2.73 2.56-5.29 1.54-7.68-.35-1.71.25-2.82 1.79-3.33s2.31-.77 2.31-.77q-2.565 8.7 2.04 8.7c4.605 0 5.46-1.2 7.17-3.59 3.07-4.09 6.57-6.4 10.5-6.91 3.92-.51 7.08.17 9.47 2.05s3.07 4.35 2.05 7.42c9.22 3.75 14.42 6.57 15.61 8.45 1.2 1.88 2.13 2.82 2.82 2.82" class="ak" fill="#8e3ed6"></path><path d="M375.3 470.01c.34 0 .51 1.02.51 3.07s-.17 3.24-.51 3.59q-10.755 2.565-23.04 3.33c-8.19.51-16.22-.26-24.06-2.3-3.75-.68-6.32-1.54-7.68-2.56-1.37-1.02-3.07-1.79-5.12-2.31-2.04-.51-5.8-.77-11.26-.77-2.39 0-3.75-1.2-4.09-3.59s-.17-3.59.51-3.59c8.54.34 14.25 1.28 17.15 2.82q4.35 2.31 12.03 3.84c7.85 1.36 15.79 1.96 23.81 1.79s15.27-1.28 21.76-3.33m-23.05-20.97c1.36.34 2.56 1.11 3.58 2.31s1.37 1.96 1.02 2.3c-4.09-.68-7.25-.42-9.47.77-2.22 1.2-4.09 1.96-5.63 2.31-1.54.34-3.16-1.02-4.87-4.09-1.71.34-3.41 0-5.12-1.02-1.7-1.02-2.22-1.88-1.54-2.56-2.04.68-3.75.42-5.12-.77-1.37-1.2-1.11-2.47.77-3.84 1.88-1.36 6.57-1.71 14.08-1.02 2.73.34 4.44.85 5.12 1.54.69.68 1.03 1.02 1.03 1.02l2.3.51c1.54.34 2.82 1.2 3.84 2.56" class="ag" fill="#d6dce3"></path><path d="m181.26 397.83 8.19-67.07c4.78 3.07 9.99 6.31 15.62 9.73s10.66 8.11 15.1 14.08 6.99 13.74 7.68 23.29c.34 7.51-1.79 12.8-6.4 15.87s-10.07 4.87-16.38 5.37c-6.31.51-11.86.42-16.64-.26l-7.17-1.02" class="ae" fill="#ffc940"></path><path d="M211.76 415.97q-11.265-3.075-15.87-10.5c-4.605-7.425-4.61-10.16-4.61-15.62s.42-10.16 1.28-14.08c.85-3.93 1.28-5.89 1.28-5.89 3.75 8.19 8.19 13.74 13.31 16.64s9.73 3.67 13.83 2.3c4.09-1.36 6.49-4.44 7.17-9.22.68 6.14 0 12.03-2.05 17.66s-4.52 10.24-7.42 13.83-5.21 5.21-6.91 4.87" class="ap" fill="#f0a429"></path><path d="m201.23 429.57-1.54 2.05q-1.545 2.04-7.68 2.31c-4.1.17-10.41-1.28-18.95-4.35-3.07-12.63-6.83-22.7-11.26-30.21-4.44-7.51-8.36-13.91-11.78-19.2s-4.78-11.18-4.09-17.66c0 0 1.11-1.11 3.32-3.33 2.22-2.22 5.46-4.18 9.73-5.89s9.3-1.71 15.1 0 12.28 6.66 19.46 14.85c4.09 7.85 6.06 14.42 5.89 19.71s-.6 11.01-1.28 17.15c-.69 6.14.34 14.33 3.07 24.58" class="ae" fill="#ffc940"></path><path d="M151.55 371.2c-.68-1.71-1.7-3.16-3.07-4.35-1.36-1.2-2.22-2.65-2.56-4.35.68 1.36 1.79 2.65 3.33 3.84 1.54 1.2 2.3 2.82 2.3 4.87" class="ap" fill="#f0a429"></path><path d="m193.84 369.89-4.09-3.07c-2.73-2.05-6.32-4.09-10.75-6.14q-6.66-3.075-15.36-2.82c-5.8.17-11.61 2.31-17.41 6.4-2.05-2.05-2.82-5.63-2.3-10.75.51-5.12 2.3-10.16 5.37-15.1 3.07-4.95 7.94-8.28 14.59-9.98 6.66-1.71 15.27-.34 25.86 4.09 2.39 1.36 4.18 4.87 5.37 10.5s1.71 11.35 1.54 17.15-1.11 9.04-2.82 9.73" class="as" fill="#a0a8ad"></path><path d="M173.36 431.32c2.05.68 6.4 1.2 13.05 1.54s11.69-.17 15.1-1.54c.68-.34 1.11.42 1.28 2.3s.42 3.16.77 3.84c1.71 4.44 1.11 8.45-1.79 12.03s-10.84 2.99-23.81-1.79q-1.02-5.115-3.33-11.01c-2.31-5.895-1.96-5.72-1.28-5.37" class="ag" fill="#d6dce3"></path><path d="M153.9 456.41q1.02 0 2.82-2.82c1.8-2.82 6.4-4.69 15.62-8.45-1.02-3.07-.34-5.55 2.05-7.42 2.39-1.88 5.55-2.56 9.47-2.05 3.93.51 7.42 2.82 10.5 6.91 1.71 2.39 4.09 3.59 7.17 3.59s3.75-2.9 2.05-8.7c0 0 .77.26 2.3.77 1.54.51 2.13 1.62 1.79 3.33-1.02 2.39-.51 4.95 1.54 7.68s2.73 8.88 2.05 18.43c-5.46 2.39-12.2 4.27-20.22 5.63s-16.04 2.31-24.06 2.82-14.85.42-20.48-.26-8.79-2.05-9.47-4.09c-.34-3.07.68-6.23 3.07-9.47s7-5.21 13.83-5.89" class="ak" fill="#8e3ed6"></path><path d="M159.75 449.03c1.02-1.36 2.3-2.22 3.84-2.56l2.31-.51 1.02-1.02c.68-.68 2.39-1.2 5.12-1.54 7.51-.68 12.2-.34 14.08 1.02s2.13 2.65.77 3.84c-1.37 1.2-3.07 1.45-5.12.77.68.68.17 1.54-1.54 2.56-1.7 1.02-3.41 1.36-5.12 1.02-1.7 3.07-3.32 4.44-4.86 4.09s-3.41-1.11-5.63-2.31-5.38-1.45-9.47-.77c-.34-.34 0-1.11 1.02-2.3 1.03-1.2 2.22-1.96 3.59-2.31m-23.06 21c6.49 2.05 13.74 3.16 21.76 3.33s15.95-.42 23.81-1.79q7.68-1.53 12.03-3.84c2.9-1.54 8.61-2.47 17.15-2.82.68 0 .85 1.2.51 3.59s-1.71 3.59-4.1 3.59c-5.46 0-9.21.26-11.26.77s-3.75 1.28-5.12 2.31c-1.36 1.02-3.92 1.88-7.68 2.56-7.85 2.05-15.88 2.82-24.06 2.3-8.19-.51-15.88-1.62-23.04-3.33-.34-.34-.51-1.54-.51-3.59s.17-3.07.51-3.07" class="ag" fill="#d6dce3"></path><path d="m384 83.97-34.3-2.56c-.34 8.19 1.03 14.08 4.1 17.66 3.07 3.59 6.91 5.21 11.52 4.87s8.7-2.22 12.29-5.63c3.58-3.41 5.71-8.19 6.4-14.33M128 83.97l34.3-2.56c.34 8.19-1.02 14.08-4.09 17.66s-6.92 5.21-11.52 4.87c-4.61-.34-8.71-2.22-12.29-5.63-3.59-3.41-5.72-8.19-6.4-14.33" class="ae" fill="#ffc940"></path><path d="m0 79.36 15.1-1.02c10.07-.68 23.72-1.54 40.96-2.56s36.87-2.05 58.88-3.07 45.14-1.88 69.37-2.56c24.24-.68 48.13-1.02 71.68-1.02s47.45.34 71.68 1.02 47.36 1.54 69.37 2.56c22.02 1.02 41.64 2.05 58.88 3.07s30.89 1.88 40.96 2.56l15.1 1.02-1.54 14.33-14.85-1.02c-9.9-.68-23.38-1.54-40.45-2.56s-36.52-2.05-58.36-3.07c-21.85-1.02-44.89-1.88-69.12-2.56s-48.13-1.02-71.68-1.02-47.44.34-71.68 1.02c-24.23.68-47.28 1.54-69.12 2.56-21.85 1.02-41.3 2.05-58.37 3.07s-30.55 1.88-40.45 2.56L1.51 93.69-.03 79.36" fill="url(#1770301554764-5428458_b)"></path><path d="M378.37 73.22s-.85.51-2.56 1.54c-1.71 1.02-3.75.51-6.14-1.54-1.02 2.39-2.65 3.33-4.87 2.82s-3.84-1.45-4.87-2.82c-.34 1.02-1.36 1.62-3.07 1.79-1.7.17-2.56.26-2.56.26s1.28.51 3.84 1.54c2.56 1.02 5.03 2.47 7.42 4.35s3.75 3.84 4.09 5.89c.34 4.78-.68 8.02-3.07 9.73s-4.95 2.47-7.68 2.3-4.78-.6-6.14-1.28c-5.46-4.09-8.36-8.62-8.7-13.57s-1.54-10.84-3.59-17.66c-.34-1.36 0-2.9 1.03-4.61 1.02-1.71 3.92-1.2 8.7 1.54 0 0 .51-1.2 1.54-3.59s3.93-2.56 8.7-.51c0-3.07 1.62-4.44 4.87-4.09 3.24.34 5.03 1.7 5.37 4.09 3.07-1.7 5.63-1.96 7.68-.77 2.05 1.2 3.07 2.47 3.07 3.84 3.75.34 5.8 2.05 6.14 5.12s-.43 5.55-2.31 7.42-4.18 1.28-6.91-1.79" class="ae" fill="#ffc940"></path><path d="M378.37 73.22c.68-1.7 1.36-3.93 2.05-6.65l1.02-4.09s-.08 1.28-.26 3.84c-.17 2.56-1.11 4.87-2.82 6.91m-8.69-.01c1.02-2.05 1.45-4.87 1.28-8.45-.17-3.59-.26-5.37-.26-5.37l1.02 5.12c.69 3.41 0 6.31-2.04 8.7m-9.73 0c.69-2.05.94-4.87.77-8.45-.17-3.59-.26-5.37-.26-5.37l1.02 5.12c.69 3.41.17 6.31-1.54 8.7m-5.63 2.04c-2.39-2.05-3.67-4.52-3.84-7.42s-.26-4.35-.26-4.35l1.02 4.09c.68 2.73 1.71 5.29 3.07 7.68" class="ap" fill="#f0a429"></path><path d="M133.93 74.97c-2.73 3.07-5.03 3.67-6.91 1.79s-2.65-4.35-2.3-7.42c.34-3.07 2.39-4.78 6.14-5.12 0-1.36 1.02-2.65 3.07-3.84 2.05-1.2 4.61-.94 7.68.77.34-2.39 2.13-3.75 5.37-4.09s4.87 1.02 4.87 4.09q7.17-3.075 8.7.51c1.02 2.39 1.54 3.59 1.54 3.59 4.78-2.73 7.68-3.25 8.7-1.54 1.02 1.7 1.36 3.24 1.02 4.61-2.05 6.83-3.24 12.71-3.59 17.66-.34 4.95-3.24 9.47-8.7 13.57-1.36.68-3.41 1.11-6.14 1.28s-5.29-.6-7.68-2.3c-2.39-1.71-3.41-4.95-3.07-9.73.34-2.05 1.71-4.01 4.09-5.89 2.39-1.88 4.87-3.33 7.42-4.35s3.84-1.54 3.84-1.54-.85-.08-2.56-.26c-1.71-.17-2.73-.77-3.07-1.79-1.02 1.37-2.65 2.31-4.87 2.82s-3.84-.42-4.87-2.82c-2.39 2.05-4.44 2.56-6.14 1.54s-2.56-1.54-2.56-1.54" class="ae" fill="#ffc940"></path><path d="M133.93 74.97c-1.71-2.05-2.65-4.35-2.82-6.91s-.26-3.84-.26-3.84l1.02 4.09c.68 2.73 1.36 4.95 2.05 6.65m8.71.01c-2.05-2.39-2.73-5.29-2.05-8.7l1.02-5.12s-.08 1.79-.26 5.37c-.17 3.59.26 6.4 1.28 8.45m9.74 0c-1.71-2.39-2.22-5.29-1.54-8.7l1.02-5.12s-.08 1.79-.26 5.37c-.17 3.59.08 6.4.77 8.45m5.64 2.05c1.36-2.39 2.39-4.95 3.07-7.68l1.02-4.09s-.08 1.45-.26 4.35c-.17 2.9-1.45 5.37-3.84 7.42" class="ap" fill="#f0a429"></path><path d="m17.92 102.71-1.75-35.56 17.14-.81 1.75 35.44-17.15.93" fill="url(#1770301554764-5428458_c)"></path><path d="M72.19 158.21c.34 2.39-.85 3.75-3.59 4.09l-26.62 1.54c-2.39 0-3.59-1.36-3.59-4.09L30.21 7.68c-.34-2.39.85-3.75 3.58-4.09l26.62-1.02c2.39-.34 3.76.85 4.1 3.59 1.36 7.51 2.73 18.18 4.09 32 1.36 13.83 2.47 28.5 3.33 44.03s1.28 30.12 1.28 43.78-.34 24.41-1.02 32.25" fill="url(#1770301554764-5428458_d)"></path><path d="M114.17 155.65c.35 2.73-.85 4.09-3.58 4.09l-34.3 2.05c-2.73 0-4.09-1.36-4.09-4.09L64.51 6.14c-.34-2.73.85-4.09 3.58-4.09L102.4 0c2.39 0 3.75 1.36 4.1 4.09l7.68 151.55" fill="url(#1770301554764-5428458_e)"></path><path d="M41.99 163.84 33.79 3.59l26.62-1.02 8.19 159.75-26.62 1.54" fill="url(#1770301554764-5428458_f)"></path><path d="M76.02 162.06 67.88 2.09 102.54.64l8.15 159.47-34.67 1.96" fill="url(#1770301554764-5428458_g)"></path><path d="m476.93 101.79 1.75-35.44 17.14.81-1.74 35.56z" fill="url(#1770301554764-5428458_h)"></path><path d="M439.81 158.21c-.68-7.85-1.03-18.6-1.03-32.25s.43-28.24 1.28-43.78c.85-15.53 1.96-30.21 3.32-44.03 1.37-13.83 2.73-24.49 4.1-32 .34-2.73 1.7-3.93 4.09-3.59l26.62 1.02c2.73.34 3.93 1.71 3.59 4.09l-8.19 152.06c0 2.73-1.2 4.09-3.59 4.09l-26.62-1.54c-2.73-.34-3.92-1.71-3.58-4.09" fill="url(#1770301554764-5428458_i)"></path><path d="M398.12 157.4 405.8 5.85c.34-2.73 1.71-4.09 4.09-4.09l34.3 2.05c2.73 0 3.93 1.36 3.59 4.09l-7.68 151.55c0 2.73-1.36 4.09-4.09 4.09l-34.3-2.05c-2.73 0-3.93-1.36-3.59-4.09" fill="url(#1770301554764-5428458_j)"></path><path d="m443.69 164.06 8.19-159.75 26.62 1.02-8.19 160.25-26.62-1.54" fill="url(#1770301554764-5428458_k)"></path><path d="M401.31 160.1 409.46.63l34.66 1.45-8.14 159.98z" fill="url(#1770301554764-5428458_l)"></path><path d="M256 116.74c15.7 0 27.31 5.8 34.82 17.41s10.75 25.77 9.73 42.49c-.34 7.85-1.88 16.38-4.61 25.6-1.36 5.8-4.44 11.26-9.21 16.38-4.78 5.12-9.99 9.3-15.62 12.55s-10.66 4.87-15.1 4.87-9.47-1.62-15.1-4.87c-5.63-3.24-10.84-7.42-15.61-12.55-4.78-5.12-7.85-10.58-9.22-16.38-2.73-9.22-4.27-17.75-4.61-25.6-1.02-16.72 2.22-30.89 9.73-42.49 7.51-11.61 19.11-17.41 34.81-17.41" class="ae" fill="#ffc940"></path><path d="M212.46 170.5c.69 2.39 1.71 5.63 3.07 9.73 1.37 4.09 1.88 7.85 1.54 11.26 0 2.05-1.2 3.5-3.58 4.35-2.39.85-4.1-.94-5.12-5.37-.68-1.71-1.79-4.18-3.33-7.42s-2.13-7.25-1.79-12.03 1.79-6.31 4.35-4.61c2.56 1.71 4.18 3.07 4.86 4.09" class="ae" fill="#ffc940"></path><path d="M206.33 169.48c1.36.68 2.13 1.62 2.3 2.82s.94 2.82 2.31 4.87c1.36 1.71 1.45 3.16.26 4.35s-1.11 2.65.26 4.35c2.04 2.05 2.13 2.56.25 1.54s-3.32-2.56-4.35-4.61c-1.02-2.39-1.79-5.37-2.3-8.96s-.08-5.03 1.28-4.35" fill="url(#1770301554764-5428458_m)"></path><path d="M206.33 169.48c1.36.68 2.13 1.62 2.3 2.82s.94 2.82 2.31 4.87c1.36 1.71 1.45 3.16.26 4.35s-1.11 2.65.26 4.35c2.04 2.05 2.13 2.56.25 1.54s-3.32-2.56-4.35-4.61c-1.02-2.39-1.79-5.37-2.3-8.96s-.08-5.03 1.28-4.35" class="an" fill="#faba37"></path><path d="M206.33 169.48c1.36.68 2.13 1.62 2.3 2.82s.94 2.82 2.31 4.87c-2.05-2.73-3.5-4.69-4.35-5.89s-1.28-.42-1.28 2.3c-.69-3.41-.34-4.78 1.02-4.09" class="an" fill="#faba37"></path><path d="M284.67 158.72c2.05.68 3.16 1.71 3.33 3.07s-.43 1.71-1.79 1.02c-2.39-1.02-5.46-.94-9.22.26-3.75 1.2-6.65 2.3-8.7 3.33q-2.04 1.02-3.33-1.02c-1.29-2.04-.94-2.39-.26-3.07 1.37-1.36 4.35-2.65 8.96-3.84s8.28-1.11 11.01.26m-57.34-.01c-2.04.68-3.16 1.71-3.32 3.07-.17 1.36.42 1.71 1.79 1.02 2.39-1.02 5.46-.94 9.22.26 3.75 1.2 6.66 2.3 8.7 3.33 1.37.68 2.47.34 3.33-1.02s.94-2.39.26-3.07c-1.36-1.36-4.35-2.65-8.96-3.84s-8.28-1.11-11.01.26" fill="#d48100"></path><path d="M288.42 175.85c-.66 2.54-2.02 4.19-4.09 4.94s-4.4 1.04-6.99.85-5.02-.45-7.27-.78q-3.39-.495-4.8.21c0-4.24 1.03-7.48 3.1-9.74s4.57-3.6 7.49-4.03c2.92-.42 5.58.07 7.98 1.48s3.93 3.76 4.59 7.06" class="aj" fill="#edebea"></path><path d="M276.01 168.39c.91 0 1.77.17 2.57.51.8.35 1.5.82 2.11 1.43s1.08 1.31 1.43 2.11.51 1.66.51 2.57-.17 1.77-.51 2.57-.82 1.5-1.43 2.11-1.32 1.09-2.11 1.43c-.8.35-1.66.51-2.57.51s-1.77-.17-2.57-.51-1.5-.82-2.11-1.43c-.6-.61-1.08-1.31-1.43-2.11-.34-.8-.51-1.66-.51-2.57s.17-1.77.51-2.57c.35-.8.82-1.5 1.43-2.11s1.32-1.09 2.11-1.43c.8-.35 1.66-.51 2.57-.51" fill="url(#1770301554764-5428458_n)"></path><path d="M272.24 174.89c0-1.23.38-2.15 1.15-2.77.77-.61 1.65-.92 2.63-.92s1.87.31 2.63.92c.77.61 1.16 1.54 1.16 2.77 0 1.29-.39 2.26-1.16 2.91-.77.64-1.65.97-2.63.97s-1.86-.33-2.63-.97-1.15-1.61-1.15-2.91" class="af" fill="#1a1626"></path><path d="M271.88 173.06c0-1.02.42-1.54 1.28-1.54s1.28.51 1.28 1.54-.43 1.54-1.28 1.54-1.28-.51-1.28-1.54" class="aj" fill="#edebea"></path><path d="M265.62 175.91c2.13-7.26 6.51-10.35 13.12-9.29s9.92 4.16 9.92 9.28c-2.13-4.27-5.76-6.62-10.88-7.04s-9.18 1.92-12.16 7.04" class="aq" fill="#bd751b"></path><path d="M288.26 175.62c-.35 4.09-2.22 7.08-5.64 8.96s-6.91 2.47-10.5 1.79c-3.58-.68-5.89-2.39-6.91-5.12.68-1.36 4.09-2.73 10.24-4.09 6.14-1.36 10.41-1.88 12.8-1.54" class="ae" fill="#ffc940"></path><path d="M223.6 175.82c.56-3.3 2.07-5.65 4.52-7.07s5.13-1.91 8.05-1.48c2.92.42 5.42 1.77 7.49 4.03s3.11 5.51 3.11 9.75c-1.04-.47-2.66-.54-4.88-.21s-4.61.59-7.21.78c-2.59.19-4.92-.09-6.99-.85-2.07-.75-3.44-2.4-4.09-4.94" class="aj" fill="#edebea"></path><path d="M235.99 168.39c.92 0 1.77.17 2.57.51s1.5.82 2.11 1.43 1.09 1.31 1.43 2.11c.35.8.51 1.66.51 2.57s-.17 1.77-.51 2.57-.82 1.5-1.43 2.11-1.31 1.09-2.11 1.43-1.66.51-2.57.51-1.77-.17-2.57-.51c-.8-.35-1.5-.82-2.11-1.43s-1.09-1.31-1.43-2.11-.51-1.66-.51-2.57.17-1.77.51-2.57c.35-.8.82-1.5 1.43-2.11s1.31-1.09 2.11-1.43c.8-.35 1.66-.51 2.57-.51" fill="url(#1770301554764-5428458_o)"></path><path d="M239.78 174.89c0 1.29-.39 2.26-1.16 2.91-.77.64-1.65.97-2.63.97s-1.86-.33-2.63-.97-1.15-1.61-1.15-2.91.38-2.15 1.15-2.77c.77-.61 1.65-.92 2.63-.92s1.87.31 2.63.92c.77.61 1.16 1.54 1.16 2.77" class="af" fill="#1a1626"></path><path d="M240.13 173.06c0 1.02-.43 1.54-1.28 1.54s-1.28-.51-1.28-1.54.42-1.54 1.28-1.54 1.28.51 1.28 1.54" class="aj" fill="#edebea"></path><path d="M246.78 176.13c-3.41-5.46-7.68-7.94-12.8-7.42s-8.54 2.82-10.24 6.91c0-3.07 1.54-5.46 4.61-7.17s6.49-2.05 10.24-1.02c3.75 1.02 6.49 3.93 8.19 8.7" class="aq" fill="#bd751b"></path><path d="M223.75 175.62c2.39-.34 6.65.17 12.8 1.54s9.56 2.73 10.24 4.09c-1.02 2.73-3.32 4.44-6.91 5.12s-7.08.08-10.5-1.79-5.29-4.87-5.63-8.96" class="ae" fill="#ffc940"></path><path d="M262.14 196.61c.68 0 1.11.26 1.28.77s-.08.94-.77 1.28c-.68.68-1.71 1.28-3.07 1.79-1.37.51-2.56.77-3.59.77s-2.22-.26-3.58-.77c-1.37-.51-2.39-1.11-3.07-1.79-.69-.34-.94-.77-.77-1.28s.6-.77 1.28-.77 1.54.17 2.56.51 2.22.51 3.58.51 2.56-.17 3.59-.51c1.02-.34 1.88-.51 2.56-.51m10.24 8.19c1.37 1.02 1.97 2.73 1.79 5.12s-1.28 4.44-3.33 6.14c-1.02 1.36-2.22 2.3-3.58 2.82-1.37.51-5.12.77-11.27.77s-9.9-.26-11.26-.77c-1.37-.51-2.56-1.45-3.59-2.82-2.04-1.71-3.16-3.75-3.33-6.14s.43-4.09 1.79-5.12c.34-.68 1.97-.6 4.87.26s6.74 1.28 11.52 1.28 8.62-.42 11.52-1.28c2.9-.85 4.52-.94 4.87-.26" class="ap" fill="#f0a429"></path><path d="M272.38 204.8c1.37 1.02 1.88 2.65 1.54 4.87s-1.36 4.35-3.07 6.4h-29.7c-1.7-2.05-2.64-4.18-2.82-6.4-.17-2.22.26-3.84 1.28-4.87 0 0 1.28.68 3.84 2.05 2.56 1.36 6.74 2.05 12.54 2.05s9.98-.68 12.55-2.05c2.56-1.36 3.84-2.05 3.84-2.05" fill="#45332c"></path><path d="M272.38 204.8c.34 1.36-.68 2.82-3.07 4.35-2.39 1.54-6.83 2.3-13.31 2.3s-10.92-.77-13.31-2.3c-2.39-1.54-3.41-2.99-3.07-4.35.68-.34 1.97 0 3.84 1.02s6.06 1.54 12.54 1.54 10.67-.51 12.55-1.54q2.82-1.53 3.84-1.02M256 213.51c5.12 0 8.7.17 10.75.51s3.41 1.02 4.09 2.05c-1.02 1.02-2.22 1.54-3.58 1.54h-22.27c-1.2 0-2.47-.51-3.84-1.54.68-1.02 2.05-1.71 4.09-2.05 2.05-.34 5.64-.51 10.75-.51" fill="#fff"></path><path d="M225.79 120.32c2.39-4.09 6.92-7.08 13.57-8.96 6.66-1.88 14.17-2.39 22.53-1.54s15.79 3.5 22.27 7.94c8.19 5.46 14.25 12.8 18.18 22.01 3.93 9.22 5.46 18.94 4.61 29.18s-4.01 19.28-9.47 27.14c2.05-11.26 1.88-19.8-.51-25.6s-6.23-10.07-11.52-12.8-11.35-4.87-18.17-6.4-13.4-3.41-19.71-5.63c-6.32-2.22-11.69-6.06-16.13-11.52 1.02 6.83 0 12.29-3.07 16.38s-6.4 8.19-9.99 12.29c-3.58 4.09-5.37 9.56-5.37 16.38-9.56-13.99-12.12-25.86-7.68-35.58 4.44-9.73 11.27-17.5 20.48-23.29" class="al" fill="#f9a307"></path><path d="M231.43 134.14c1.7 7.17 1.11 12.8-1.79 16.9-2.9 4.09-6.32 8.11-10.24 12.03-3.93 3.93-6.06 9.3-6.4 16.13-.68-6.83.68-12.29 4.09-16.38s6.74-8.11 9.99-12.03c3.24-3.93 4.69-9.47 4.35-16.64" class="am" fill="#e68c00"></path><path d="M227.33 129.02c4.44 6.49 10.24 11.09 17.41 13.83s14.42 4.87 21.76 6.4 13.99 3.59 19.97 6.14c5.97 2.56 10.16 6.91 12.54 13.05 2.39 6.14 1.88 15.36-1.54 27.65 1.71-12.29 1.11-21.33-1.79-27.14-2.9-5.8-7.17-9.81-12.8-12.03s-11.95-4.01-18.94-5.37c-7-1.36-13.74-3.5-20.23-6.4s-11.94-8.28-16.38-16.13" class="am" fill="#e68c00"></path></g></svg>
