<svg xmlns="http://www.w3.org/2000/svg" viewBox="0 0 512 476.68"><g><defs></defs><path d="M310.79 188.27c-1.5.38-5.93.66-13.27.84-7.35.19-16.1.28-26.26.28h-30.78c-10.35 0-19.2-.09-26.55-.28s-11.77-.47-13.27-.84c-4.89-.75-8.66-4.42-11.3-11.01s-4.62-14.5-5.93-23.73c-1.32-9.23-2.16-18.36-2.54-27.39s-.47-16.47-.28-22.31.28-8.57.28-8.19H331.7c0-.38-.19 2.45-.57 8.47q-.57 9.045-1.98 22.59c-1.41 13.545-2.16 18.17-3.67 27.39-1.5 9.23-3.48 17.04-5.93 23.44s-5.37 9.98-8.76 10.73" fill="#bf6000"></path><path d="M261.65 380.31v31.07s-4.23 2.07-12.71 6.21q-12.705 6.21-32.19 15.54-19.485 9.315-40.11 18.36c-20.625 9.045-26.17 11.2-37.28 15.53s-18.73 6.5-22.88 6.5c-8.28 1.13-16.76 1.5-25.42 1.13s-15.44-2.26-20.34-5.65c-5.27-3.39-9.32-8.47-12.15-15.25-2.82-6.78-3.3-13.74-1.41-20.9 3.77-14.69 10.35-25.04 19.77-31.07s20.34-9.88 32.76-11.58c12.42-1.69 25.32-3.39 38.69-5.08q20.055-2.535 36.99-11.58c.75-.75 4.99-.75 12.71 0s16.57 1.6 26.55 2.54 18.64 1.89 25.98 2.82c7.35.94 11.01 1.41 11.01 1.41" class="p" fill="#666970"></path><path d="M326.61 373.53c11.3 6.03 23.63 9.88 36.99 11.58 13.37 1.69 26.26 3.39 38.69 5.08s23.34 5.55 32.76 11.58 16 16.38 19.77 31.07c1.89 7.15 1.41 14.12-1.41 20.9s-6.87 11.86-12.15 15.25c-4.89 3.39-11.67 5.27-20.34 5.65-8.66.38-17.13 0-25.42-1.13-4.14 0-11.77-2.16-22.88-6.5s-23.53-9.51-37.28-15.53c-13.74-6.02-27.11-12.15-40.11-18.36q-19.485-9.315-32.19-15.54c-8.47-4.14-12.71-6.21-12.71-6.21V380.3l11.01-1.41c7.35-.94 16-1.89 25.98-2.82 9.98-.94 18.83-1.79 26.55-2.54s11.96-.75 12.71 0" class="p" fill="#666970"></path><path d="M330.56 372.96c8.66 3.39 12.81 7.44 12.42 12.15s-3.86 9.42-10.45 14.12c-6.59 4.71-14.69 8.66-24.29 11.86s-19.11 5.08-28.53 5.65-17.32-.84-23.73-4.23q-9.6 5.085-23.73 4.23c-9.42-.57-18.92-2.45-28.53-5.65-9.6-3.2-17.7-7.15-24.29-11.86s-10.08-9.42-10.45-14.12 3.77-8.76 12.42-12.15c3.01-1.5 6.03-3.01 9.03-4.52.38 0 4.99-.09 13.84-.28s19.68-.38 32.48-.57c12.81-.19 25.61-.19 38.41 0 12.81.19 23.63.38 32.48.57s13.46.28 13.84.28c3.01 1.5 6.03 3.01 9.03 4.52" class="j" fill="#484a52"></path><path d="M276.9 436.23c-21.46 6.03-39.35 11.3-53.66 15.81s-26.26 8.38-35.87 11.58-17.98 5.84-25.14 7.91a176 176 0 0 1-21.46 4.8c-1.89 0-6.03.09-12.42.28q-9.6.285-20.61-.57c-7.35-.57-13.46-1.6-18.36-3.11s-6.96-4.14-6.21-7.91q-1.125-3.96-2.82-12.15c-1.13-5.46.75-11.01 5.65-16.66q15.255-18.075 32.19-24c11.3-3.95 24-6.03 38.13-6.21q21.18-.285 48.57.57c18.27.57 39.45-.66 63.54-3.67 1.13 0 2.64 2.64 4.52 7.91 1.89 5.27 3.39 10.73 4.52 16.38q1.695 8.475-.57 9.03" class="p" fill="#666970"></path><path d="M115.92 429.45c9.03-8.28 17.61-14.12 25.7-17.51 8.1-3.39 17.23-5.27 27.39-5.65s23.16-.57 38.97-.57 35.96-.94 60.44-2.82c-23.73 3.01-43.3 4.8-58.74 5.37q-23.16.855-38.97 1.41c-10.54.38-19.96 1.89-28.24 4.52-8.28 2.64-17.13 7.72-26.55 15.25" class="j" fill="#484a52"></path><path d="M380.83 386.52q-18.075.57-26.55 2.82c-8.475 2.25-9.98 3.67-12.99 6.5s-6.5 6.3-10.45 10.45c-3.96 4.14-9.98 8.66-18.07 13.56-8.1 4.89-20.05 10.35-35.87 16.38-1.13.75-2.64-1.69-4.52-7.35q-2.835-8.475-4.23-16.95c-.94-5.65-.84-8.66.28-9.03 1.5-.38 2.35-2.45 2.54-6.21.19-3.77 1.98-7.15 5.37-10.17s10.92-3.77 22.59-2.26c7.91.75 14.31 0 19.2-2.26s9.42-4.8 13.56-7.62 8.76-4.71 13.84-5.65 11.77.28 20.05 3.67c5.65-1.13 9.88-.47 12.71 1.98 2.82 2.45 4.33 5.08 4.52 7.91s-.47 4.23-1.98 4.23" class="d" fill="#ffc940"></path><path d="M351.46 388.22c6.03-3.01 10.92-4.05 14.69-3.11s7.53 1.41 11.3 1.41c-3.77.38-7.44.28-11.01-.28s-8.57.09-14.97 1.98m-79.09 16.94c2.26-4.89 5.37-7.35 9.32-7.35h5.93s-1.69.38-5.08 1.13q-5.085 1.125-10.17 6.21" class="n" fill="#f0a429"></path><path d="M256 442.44c-5.65 0-10.54-1.04-14.69-3.11s-6.21-3.11-6.21-3.11l9.03.57c6.03.38 9.98 2.26 11.86 5.65" class="j" fill="#484a52"></path><path d="M243.57 402.9c24.1 3.01 45.28 4.23 63.54 3.67 18.27-.57 34.45-.75 48.58-.57q21.18.285 38.13 6.21 16.95 5.94 32.19 24c4.89 5.65 6.78 11.2 5.65 16.66s-2.07 9.51-2.82 12.15c.75 3.77-1.32 6.4-6.21 7.91-4.89 1.5-11.01 2.54-18.36 3.11s-14.22.75-20.62.57c-6.4-.19-10.54-.28-12.42-.28-7.15-1.13-14.31-2.73-21.46-4.8s-15.54-4.71-25.14-7.91-21.56-7.06-35.87-11.58-32.19-9.79-53.66-15.81q-2.25-.57-.57-9.03c1.13-5.65 2.64-11.11 4.52-16.38 1.89-5.27 3.39-7.91 4.52-7.91" class="p" fill="#666970"></path><path d="M243.57 402.9c24.48 1.89 44.62 2.82 60.44 2.82s28.8.19 38.97.57 19.3 2.26 27.39 5.65c8.1 3.39 16.66 9.23 25.7 17.51-9.42-7.53-18.27-12.61-26.55-15.25s-17.7-4.14-28.24-4.52q-15.81-.57-38.97-1.41c-15.44-.57-35.02-2.35-58.74-5.37" class="j" fill="#484a52"></path><path d="M146.42 372.4c8.28-3.39 14.97-4.62 20.05-3.67s9.69 2.82 13.84 5.65c4.14 2.82 8.66 5.37 13.56 7.62 4.89 2.26 11.3 3.01 19.2 2.26 11.67-1.5 19.2-.75 22.59 2.26q5.085 4.515 5.37 10.17c.285 5.655 1.04 5.84 2.54 6.21 1.13.38 1.23 3.39.28 9.03q-1.41 8.475-4.23 16.95c-1.89 5.65-3.39 8.1-4.52 7.35-15.81-6.03-27.77-11.49-35.87-16.38s-14.12-9.42-18.07-13.56-7.44-7.62-10.45-10.45c-3.01-2.82-7.35-4.99-12.99-6.5-5.65-1.5-14.5-2.45-26.55-2.82q-2.25 0-1.98-4.23c.19-2.82 1.69-5.46 4.52-7.91s7.06-3.11 12.71-1.98" class="d" fill="#ffc940"></path><path d="M134.57 386.52c3.77 0 7.53-.47 11.3-1.41s8.66.09 14.69 3.11c-6.4-1.89-11.39-2.54-14.97-1.98s-7.25.66-11.01.28m89.79 11.3h5.93c3.96 0 7.06 2.45 9.32 7.35-4.14-4.14-9.23-6.59-15.25-7.35" class="n" fill="#f0a429"></path><path d="M506.79 393.87c3.39.75 5.08 2.35 5.08 4.8s-1.69 4.05-5.08 4.8c-.75 0-1.98-.09-3.67-.28s-2.73-.28-3.11-.28c2.26 1.13 3.3 3.01 3.11 5.65s-2.54 3.96-7.06 3.96c-6.4-.38-12.42-.47-18.07-.28s-9.79.28-12.42.28c-1.13-.38-3.96-1.23-8.47-2.54-4.52-1.32-9.42-3.01-14.69-5.08s-9.42-4.05-12.42-5.93c-12.05-7.15-23.34-14.78-33.89-22.88-10.54-8.1-19.68-15.72-27.39-22.88-7.72-7.15-13.27-12.61-16.66-16.38-.75-.75-3.11-5.37-7.06-13.84s-8.38-18.83-13.27-31.07a264 264 0 0 1-11.86-37.56c-4.89-21.09-7.35-37.56-7.35-49.42v-17.79c14.69 0 25.42 5.37 32.19 16.1q10.17 16.095 12.99 41.52c.38 3.39 1.89 8.66 4.52 15.81s5.55 14.69 8.76 22.59 6.21 14.78 9.03 20.61 4.61 9.13 5.37 9.88c10.54 7.91 19.3 16.76 26.26 26.55s12.9 18.36 17.79 25.7c4.89 7.35 9.6 11.2 14.12 11.58 1.5 0 4.61-2.07 9.32-6.21s7.81-6.78 9.32-7.91c1.89-1.89 3.77-2.45 5.65-1.69s5.08.38 9.6-1.13c1.5-.75 2.82-.19 3.96 1.69s0 3.77-3.39 5.65c.75 0 1.5.19 2.26.57q1.695 1.125 6.21 1.98c3.01.57 4.71 1.41 5.08 2.54.38 2.64.66 5.46.85 8.47s.28 4.52.28 4.52 1.6-.57 4.8-1.69 6.5-1.69 9.88-1.69q3.39 0 4.23 3.39c.57 2.26-.66 3.96-3.67 5.08-1.13.38-3.2.94-6.21 1.69s-4.52 1.13-4.52 1.13h9.6m-26.55-10.18c1.89-2.64 2.26-4.89 1.13-6.78-5.65-2.64-7.53-5.27-5.65-7.91-2.26 1.13-5.08 2.07-8.47 2.82-1.13 1.13-1.69 2.64-1.69 4.52v2.82q3.39 3.39 4.23 6.21c.57 1.89 4.05 1.32 10.45-1.69" class="d" fill="#ffc940"></path><path d="M450.31 385.28q8.475-1.125 12.99 5.37c3.01 4.33 4.52 7.81 4.52 10.45-1.13-2.64-3.01-5.55-5.65-8.76-2.64-3.2-6.59-5.55-11.86-7.06m61-.56c1.5 3.77.57 6.21-2.82 7.35-3.39 1.13-7.81 1.79-13.27 1.98s-10.64.47-15.53.84c3.77-.75 8.19-1.32 13.27-1.69s9.51-1.13 13.27-2.26c3.77-1.13 5.46-3.2 5.08-6.21m-18.64 1.12c-3.39 1.13-5.84 1.69-7.35 1.69h-2.26s.84-.28 2.54-.84c1.69-.57 4.05-1.41 7.06-2.54v1.69m-14.68 18.08c5.65-1.89 11.01-2.64 16.1-2.26s9.23.57 12.43.57 4.8-1.69 4.8-5.08c1.13 4.14.09 6.31-3.11 6.5q-4.8.285-12.99-.57c-8.19-.855-11.2-.28-17.22.84M332.25 232.78c-2.26 13.18-2.54 26.17-.85 38.97 1.69 12.81 3.86 23.44 6.5 31.92l3.96 12.71-19.2-44.06 1.41-11.3c.94-7.53 3.67-16.95 8.19-28.24" class="n" fill="#f0a429"></path><path d="M5.21 403.47c-3.39-.75-5.08-2.35-5.08-4.8s1.69-4.05 5.08-4.8h9.6s-1.5-.38-4.52-1.13c-3.01-.75-5.08-1.32-6.21-1.69-3.01-1.13-4.23-2.82-3.67-5.08q.855-3.39 4.23-3.39c3.39 0 6.69.57 9.88 1.69s4.8 1.69 4.8 1.69.09-1.5.28-4.52.47-5.84.84-8.47c.38-1.13 2.07-1.98 5.08-2.54q4.515-.855 6.21-1.98c.75-.38 1.5-.57 2.26-.57-3.39-1.89-4.52-3.77-3.39-5.65s2.45-2.45 3.96-1.69c4.52 1.5 7.72 1.89 9.6 1.13 1.89-.75 3.77-.19 5.65 1.69 1.5 1.13 4.62 3.77 9.32 7.91s7.81 6.21 9.32 6.21c4.52-.38 9.23-4.23 14.12-11.58s10.83-15.91 17.79-25.7 15.72-18.64 26.26-26.55c.75-.75 2.45-4.05 5.08-9.88s5.65-12.71 9.03-20.61q5.085-11.865 9.03-22.59c2.64-7.15 4.14-12.43 4.52-15.81 1.89-16.95 6.21-30.78 12.99-41.52 6.78-10.73 17.51-16.1 32.19-16.1v17.79c0 11.86-2.45 28.34-7.35 49.42a262.4 262.4 0 0 1-11.86 37.56c-4.89 12.24-9.42 22.59-13.56 31.07s-6.4 13.08-6.78 13.84c-3.39 3.77-8.94 9.23-16.66 16.38s-16.85 14.78-27.39 22.88-21.84 15.72-33.89 22.88c-3.39 1.89-7.62 3.86-12.71 5.93-5.08 2.07-9.88 3.77-14.4 5.08-4.52 1.32-7.34 2.16-8.47 2.54-2.64 0-6.78-.09-12.43-.28s-11.67-.09-18.07.28c-4.52 0-6.87-1.32-7.06-3.96s.84-4.52 3.11-5.65c-.38 0-1.41.09-3.11.28-1.69.19-2.92.28-3.67.28m25.47-26.54c-1.13 1.89-.75 4.14 1.13 6.78 6.4 3.01 9.88 3.57 10.45 1.69q.855-2.835 4.23-6.21v-2.82c0-1.89-.57-3.39-1.69-4.52-3.39-.75-6.21-1.69-8.47-2.82 1.89 2.64 0 5.27-5.65 7.91" class="d" fill="#ffc940"></path><path d="M61.7 385.28c-5.27 1.51-9.23 3.86-11.86 7.06-2.64 3.2-4.52 6.12-5.65 8.76 0-2.64 1.5-6.12 4.52-10.45s7.35-6.12 12.99-5.37m-61-.56c-.38 3.01 1.32 5.08 5.08 6.21 3.77 1.13 8.19 1.89 13.27 2.26 5.08.38 9.51.94 13.27 1.69-4.89-.38-10.08-.66-15.54-.85s-9.88-.84-13.27-1.98c-3.39-1.13-4.33-3.57-2.82-7.35m18.65 1.15v-1.69c3.01 1.13 5.37 1.98 7.06 2.54 1.69.57 2.54.85 2.54.85h-2.26c-1.5 0-3.96-.57-7.35-1.69m14.69 18.07c-6.03-1.13-11.76-1.41-17.22-.85-5.46.57-9.79.75-12.99.57-3.2-.19-4.23-2.35-3.11-6.5 0 3.39 1.6 5.08 4.8 5.08s7.35-.19 12.42-.57c5.08-.38 10.45.38 16.1 2.26m145.73-171.14c4.52 11.3 7.25 20.71 8.19 28.24l1.41 11.3-19.2 44.06s1.32-4.23 3.96-12.71c2.64-8.47 4.8-19.11 6.5-31.92q2.535-19.215-.84-38.97" class="n" fill="#f0a429"></path><path d="M318.7 287.67c-3.01 12.42-4.99 22.22-5.93 29.37s-1.04 13.08-.28 17.79 2.26 9.51 4.52 14.4 5.27 11.3 9.03 19.2c.75 1.89-2.26 3.86-9.03 5.93s-15.63 3.86-26.55 5.37c-10.92 1.5-22.41 2.26-34.45 2.26s-23.53-.75-34.45-2.26c-10.92-1.5-19.77-3.3-26.55-5.37s-9.79-4.05-9.03-5.93q5.655-11.865 9.03-19.2c2.26-4.89 3.77-9.69 4.52-14.4s.66-10.64-.28-17.79-2.92-16.95-5.93-29.37l-4.23-7.62c-2.82-5.08-3.86-14.03-3.11-26.83 2.64-4.14 4.8-9.79 6.5-16.95 1.69-7.15 3.11-14.5 4.23-22.03s1.89-13.93 2.26-19.2l.57-7.91q7.335-1.695 12.15-1.41c3.2.19 4.8.28 4.8.28h79.08s1.6-.09 4.8-.28q4.8-.285 12.15 1.41l.57 7.91c.38 5.27 1.13 11.67 2.26 19.2s2.54 14.88 4.24 22.03c1.69 7.15 3.86 12.81 6.5 16.95.75 12.81-.28 21.75-3.11 26.83s-4.23 7.62-4.23 7.62" fill="#8e3ed6"></path><path d="M281.99 295.02c13.56 1.89 23.07 1.13 28.53-2.26s8.19-5.08 8.19-5.08l-1.69 8.47s-3.3.94-9.88 2.82q-9.885 2.835-25.14-3.96m-88.69-7.34s2.73 1.69 8.19 5.08 14.97 4.14 28.53 2.26c-10.17 4.52-18.54 5.84-25.14 3.96-6.59-1.89-9.88-2.82-9.88-2.82l-1.69-8.47" fill="#732eb0"></path><path d="M284.25 180.36c1.13 2.26 3.3 3.77 6.5 4.52s4.8 1.13 4.8 1.13c0 5.27-1.41 11.67-4.24 19.2-2.82 7.53-7.15 14.22-12.99 20.05-5.84 5.84-13.27 8.76-22.31 8.76s-16.47-2.92-22.31-8.76-10.17-12.52-12.99-20.05-4.23-13.93-4.23-19.2c0 0 1.6-.38 4.8-1.13s5.37-2.26 6.5-4.52c1.5-2.26 2.26-5.46 2.26-9.6s-.28-7.81-.84-11.01c-.57-3.2-.84-4.8-.84-4.8h55.35l-.84 4.8c-.57 3.2-.85 6.87-.85 11.01s.75 7.35 2.26 9.6" class="d" fill="#ffc940"></path><path d="M228.89 167.36h54.22s-1.41 1.69-4.23 5.08-6.3 6.69-10.45 9.88q-6.21 4.8-12.42 4.8c-6.21 0-8.28-1.6-12.42-4.8s-7.62-6.5-10.45-9.88c-2.82-3.39-4.23-5.08-4.23-5.08" class="n" fill="#f0a429"></path><path d="M195.01 87.7c.95 3.34 2.39 7.88 4.3 13.62 1.91 5.73 2.63 10.99 2.15 15.77q0 4.305-5.01 6.09c-3.34 1.2-5.73-1.31-7.17-7.52-.95-2.39-2.51-5.85-4.66-10.39s-2.98-10.16-2.51-16.84q.72-10.035 6.09-6.45c3.59 2.39 5.85 4.3 6.81 5.73" class="d" fill="#ffc940"></path><path d="M186.48 86.25c1.91.95 2.98 2.27 3.22 3.94s1.31 3.94 3.22 6.81q2.865 3.585.36 6.09c-2.505 2.505-1.56 3.7.35 6.09 2.86 2.87 2.98 3.59.36 2.15s-4.66-3.59-6.09-6.45c-1.43-3.34-2.5-7.52-3.22-12.54-.72-5.01-.12-7.04 1.79-6.09" class="n" fill="#f0a429"></path><path d="M329.78 88.42c.48 6.69-.36 12.3-2.5 16.84-2.15 4.54-3.7 8-4.66 10.39-1.43 6.21-3.82 8.72-7.17 7.52q-5.01-1.785-5.01-6.09c-.48-4.78.24-10.04 2.15-15.77s3.34-10.27 4.3-13.62c.95-1.43 3.23-3.34 6.81-5.73s5.62-.24 6.09 6.45" class="d" fill="#ffc940"></path><path d="M323.8 104.97c-.79 1.98-1.98 3.66-3.56 5.04s-2.74 2.08-3.46 2.08-.17-1.05 1.68-3.16c1.19-1.32 1.55-2.54 1.09-3.66s-.95-2.34-1.49-3.66q-.795-1.98.99-4.95c1.85-2.64 2.96-4.85 3.36-6.62.39-1.78 1.52-3.07 3.36-3.86 1.19-.53 1.78.33 1.78 2.57s-.36 4.95-1.09 8.1q-1.08 4.74-2.67 8.1" class="n" fill="#f0a429"></path><path d="M255.92 12.38c22.15 0 38.4 8.13 48.76 24.39s14.84 35.93 13.42 59.02q-.705 16.965-6.36 36.75-2.835 12.015-12.72 22.62c-6.6 7.07-13.9 12.84-21.91 17.32s-15.08 6.72-21.2 6.71q-9.195 0-20.85-6.72c-7.77-4.48-15.08-10.25-21.91-17.32s-11.19-14.61-13.07-22.62q-5.655-19.785-6.36-36.75c-1.41-23.09 3.19-42.76 13.79-59.01s26.74-24.38 48.42-24.38" class="d" fill="#ffc940"></path><path d="M264.82 124.28c.87 0 1.39.35 1.56 1.04s-.26 1.39-1.3 2.08c-.87.52-2.26 1.21-4.16 2.08-1.91.87-3.56 1.3-4.95 1.3s-3.04-.43-4.95-1.3-3.3-1.56-4.16-2.08c-1.04-.69-1.47-1.39-1.3-2.08s.69-1.04 1.56-1.04c1.39 0 2.74.26 4.04.78s2.91.78 4.82.78 3.56-.26 4.95-.78q2.085-.78 3.9-.78" class="n" fill="#f0a429"></path><path d="M277.87 142.48c-6.42 8.33-13.8 12.33-22.13 11.98s-15.54-4.34-21.61-11.98a230 230 0 0 0 43.74 0" fill="#d47706"></path><path d="M255.99 141.93c3.12-1.21 6.25-1.26 9.38-.13 3.12 1.13 7.29 1.35 12.5.65-2.6 1.56-5.95 2.65-10.02 3.26s-8.03 1-11.85 1.17c-3.82-.17-7.77-.57-11.85-1.17-4.08-.61-7.42-1.69-10.02-3.26 5.21.69 9.42.47 12.63-.65 3.21-1.13 6.29-1.09 9.24.13" fill="#b06000"></path><path d="M302.88 82.07c.75.75.94 1.32.57 1.69s-.94.38-1.69 0q-8.475-3.96-15.81-1.98c-7.335 1.98-9.03 2.35-12.42 3.11-2.26.38-3.48-.38-3.67-2.26-.19-1.89.85-3.2 3.11-3.96 4.52-1.13 9.79-1.69 15.81-1.69s10.73 1.69 14.12 5.08m-93.78.01c-.75.75-.94 1.32-.57 1.69s.94.38 1.69 0q8.475-3.96 15.81-1.98c7.335 1.98 9.03 2.35 12.42 3.11 2.26.38 3.48-.38 3.67-2.26.19-1.89-.84-3.2-3.11-3.96-4.52-1.13-9.79-1.69-15.81-1.69s-10.73 1.69-14.12 5.08" fill="#d48100"></path><path d="M273.69 100.55c-.87 0-1.39.17-1.56.52s-.09.52.26.52q3.39.525 4.68 1.56c1.29 1.035 2 1.39 3.38 2.08 1.39.69 3.9 1.04 7.55 1.04 1.74 0 3.82-.43 6.25-1.3q3.645-1.305 6.51-5.73c.17-.35 0-.57-.52-.65q-.78-.135-1.56.39c-3.82 2.26-7.29 3.43-10.42 3.52-3.12.09-5.9-.22-8.33-.91s-4.51-1.04-6.25-1.04m-35.4 0c.87 0 1.39.17 1.56.52s.09.52-.26.52q-3.39.525-4.68 1.56c-1.29 1.035-2 1.39-3.38 2.08-1.39.69-3.9 1.04-7.55 1.04-1.74 0-3.82-.43-6.25-1.3q-3.645-1.305-6.51-5.73c-.17-.35 0-.57.52-.65q.78-.135 1.56.39c3.82 2.26 7.29 3.43 10.42 3.52 3.12.09 5.9-.22 8.33-.91s4.51-1.04 6.25-1.04" fill="#45332c"></path><path d="M277.23 8.02c9.59-1.69 18.24-.11 25.94 4.75 7.7 4.85 14.3 12.06 19.79 21.61q8.235 14.34 12.99 32.7t5.34 37.86c.585 19.5-.77 25.49-3.47 37.51-2.7 12.01-7 22.47-12.92 31.37-5.91 8.9-13.59 15.33-23.04 19.27 4.49-3.33 7.95-9.2 10.4-17.62s3.88-18.31 4.28-29.66c.41-11.35-.28-23.15-2.05-35.39s-4.7-23.77-8.76-34.59-9.35-19.97-15.87-27.44c-6.51-7.47-14.38-12.18-23.59-14.1-3.5 3.15-7.65 7.31-12.45 12.46s-10.74 10.26-17.84 15.32-15.97 9.03-26.62 11.91c-6.44 9.5-11.04 20.08-13.81 31.72-2.76 11.64-4.01 23.27-3.74 34.89.27 11.61 1.93 22.1 4.97 31.45s7.38 16.32 13 20.91c-13.49-7.51-23.37-17.12-29.61-28.82-6.25-11.71-9.73-24.28-10.45-37.72s.59-26.85 3.94-40.25c3.34-13.4 8.04-25.95 14.09-37.66q9.075-17.58 19.74-29.34 10.665-11.775 20.37-15c13.48-4.14 24.83-5.19 34.07-3.14s14.34 4.38 15.3 7" fill="#f9a307"></path><path d="M301.95 193.25q5.61-4.905 8.94-17.52c2.22-8.41 3.51-18.23 3.85-29.43.35-11.21-.29-22.83-1.93-34.87-1.64-12.03-4.44-23.48-8.41-34.34s-9.05-20.15-15.24-27.86-13.73-12.61-22.6-14.72l1.4-1.4c.94-.94 2.39-1.52 4.38-1.75 1.98-.23 4.5.82 7.54 3.15 7.47 4.44 13.84 11.04 19.1 19.8S308.44 73 311.59 84.1s5.32 22.49 6.48 34.17c1.17 11.68 1.28 22.78.35 33.29-.94 10.52-2.75 19.45-5.43 26.81s-6.37 12.33-11.04 14.89" class="k" fill="#e68c00"></path><path d="M344.28 124.24c0 14.85-3.59 29.45-10.76 43.8-7.18 14.35-17.69 22.77-31.55 25.24 8.41-4.45 14.48-13.73 18.18-27.84 3.71-14.1 5.07-30.19 4.08-48.25s-4.2-35.01-9.65-50.85c-5.44-15.84-13.36-27.47-23.75-34.89q11.88 3.72 23.01 14.1c7.42 6.93 14.35 18.31 20.78 34.15-4.95-20.29-11.87-34.89-20.78-43.8s-18.06-14.1-27.46-15.59l-.74-.74c-.49-4.95 2.11-7.05 7.8-6.31s12.25 3.59 19.67 8.54c-4.45-4.95-10.14-8.54-17.07-10.76s-13.11-3.09-18.55-2.6c10.89-3.46 21.4-.74 31.55 8.17 10.14 8.91 18.56 22.64 25.24 41.2 6.68 18.55 10.02 40.7 10.02 66.43M196.56 48.52c6.43-7.92 15.71-14.97 27.84-21.16 12.12-6.18 23.38-10.39 33.77-12.62s16.09-1.36 17.07 2.6c0 3.46-1.24 5.44-3.71 5.94q-9.645 2.97-18.18 12.99c-5.69 6.68-12.99 13.48-21.9 20.41s-21.03 12.12-36.37 15.59l2.97.74c-8.91 13.36-13.73 28.7-14.48 46.02s1.36 32.91 6.31 46.76 11.63 23.01 20.04 27.46c-14.85-2.48-25.48-10.76-31.92-24.86-6.43-14.1-9.65-28.83-9.65-44.17 0-27.22 4.95-52.45 14.85-75.72 9.9-23.26 24.74-38.1 44.54-44.54C237.14 1 246.3.02 255.21 1c8.91.99 13.36 2.48 13.36 4.45-.5 2.48-4.7 4.7-12.62 6.68s-17.44 5.69-28.58 11.13c-11.13 5.44-21.4 13.86-30.81 25.24m-15.58 114.34c-2.97-17.81-3.96-33.65-2.97-47.51s3.46-26.23 7.42-37.12c-4.45 5.94-7.67 13.98-9.65 24.12s-2.6 20.66-1.86 31.55 3.09 20.54 7.05 28.95" fill="#ffb80d"></path><path d="M201.99 181.09q-7.995-13.035-9.75-29.46c-1.17-10.95-.98-21.76.57-32.42s3.81-20.13 6.79-28.39 5.93-14.16 8.86-17.72c8.98-.82 16.67-3.57 23.08-8.25s12.11-9.68 17.13-15 10.03-9.62 15.03-12.92c5-3.29 10.44-4.05 16.33-2.31q-8.07-.48-14.88 5.1c-4.55 3.71-9.27 8.16-14.19 13.34s-10.54 9.97-16.86 14.38-14.1 7.04-23.33 7.91c-4.69 7.92-8.24 16.92-10.65 26.98s-3.79 20.19-4.15 30.39.02 19.52 1.12 27.94c1.1 8.43 2.75 15.23 4.93 20.43" fill="#ffb80f"></path><path d="M209.77 193.31c-5.56-3.48-10.08-9.55-13.55-18.25s-5.62-18.83-6.43-30.41c-.81-11.59 0-23.58 2.44-35.97s6.78-23.92 13.03-34.58c0 0 .4-.23 1.21-.69s2.03-.23 3.65.69c-3.01 3.94-5.73 9.79-8.17 17.55s-4.23 16.45-5.38 26.07c-1.16 9.61-1.62 19.29-1.39 29.02s1.5 18.71 3.82 26.94c2.32 8.22 5.91 14.77 10.78 19.64" class="k" fill="#e68c00"></path><path d="M279.87 34.72c-3.96-.66-7.84.06-11.67 2.17-3.82 2.11-7.65 4.97-11.46 8.6-3.82 3.63-7.84 7.44-12.06 11.46s-8.8 7.58-13.74 10.68c-4.95 3.09-10.38 5.17-16.31 6.23-5.93 1.05-12.52.46-19.77-1.78 7.77.79 14.66.29 20.66-1.48 6-1.78 11.37-4.29 16.11-7.51s9.09-6.72 13.05-10.48c3.96-3.75 7.71-7.35 11.27-10.78 3.56-3.42 7.18-6.26 10.87-8.5s7.65-3.36 11.86-3.36c1.58-4.62 2.11-8.93 1.58-12.95s-1.52-6.95-2.97-8.8c3.03 2.5 4.84 5.57 5.44 9.19.59 3.63.49 7.09-.29 10.38-.79 3.3-1.65 5.6-2.57 6.92" class="k" fill="#e68c00"></path></g></svg>
