<svg xmlns="http://www.w3.org/2000/svg" style="" viewBox="0 0 512 512.19"><g><defs><linearGradient id="1770301554760-350133_b" x1="240.08" x2="240.08" y1="-44.98" y2="184.9" gradientTransform="matrix(1 0 0 -1 0 467.21)" gradientUnits="userSpaceOnUse"><stop offset="0" stop-color="#484258"></stop><stop offset=".59" stop-color="#4a445a"></stop><stop offset=".81" stop-color="#504b60"></stop><stop offset=".96" stop-color="#5c566a"></stop><stop offset="1" stop-color="#605b6e"></stop></linearGradient><linearGradient id="1770301554760-350133_c" x1="376.95" x2="376.95" y1="-41.38" y2="90.19" gradientTransform="matrix(1 0 0 -1 0 467.21)" gradientUnits="userSpaceOnUse"><stop offset="0" stop-color="#e38a47"></stop><stop offset=".29" stop-color="#eba053"></stop><stop offset="1" stop-color="#fdd36f"></stop></linearGradient><linearGradient id="1770301554760-350133_k" x1="6.96" x2="28.37" y1="377.56" y2="381.64" gradientTransform="matrix(1 0 0 -1 0 467.21)" gradientUnits="userSpaceOnUse"><stop offset="0" stop-color="#9be022"></stop><stop offset=".27" stop-color="#91d422"></stop><stop offset=".75" stop-color="#78b423"></stop><stop offset="1" stop-color="#69a123"></stop></linearGradient><linearGradient id="1770301554760-350133_l" x1="16.05" x2="31.92" y1="332.2" y2="334.76" gradientTransform="matrix(1 0 0 -1 0 467.21)" gradientUnits="userSpaceOnUse"><stop offset="0" stop-color="#b3c2c6"></stop><stop offset=".21" stop-color="#aebdc1"></stop><stop offset=".48" stop-color="#a0adb2"></stop><stop offset=".77" stop-color="#889499"></stop><stop offset="1" stop-color="#717b80"></stop></linearGradient><linearGradient id="1770301554760-350133_m" x1="24.81" x2="24.81" y1="330.82" y2="328.26" gradientTransform="matrix(1 0 0 -1 0 467.21)" gradientUnits="userSpaceOnUse"><stop offset="0" stop-color="#717b80"></stop><stop offset=".23" stop-color="#889499"></stop><stop offset=".52" stop-color="#a0adb2"></stop><stop offset=".79" stop-color="#aebdc1"></stop><stop offset="1" stop-color="#b3c2c6"></stop></linearGradient><linearGradient id="1770301554760-350133_n" x1="24.05" x2="24.46" y1="333.42" y2="331.36" gradientTransform="matrix(1 0 0 -1 0 467.21)" gradientUnits="userSpaceOnUse"><stop offset="0" stop-color="#717b80"></stop><stop offset=".23" stop-color="#889499"></stop><stop offset=".52" stop-color="#a0adb2"></stop><stop offset=".79" stop-color="#aebdc1"></stop><stop offset="1" stop-color="#b3c2c6"></stop></linearGradient><linearGradient id="1770301554760-350133_o" x1="305.37" x2="305.37" y1="297.68" y2="327.04" gradientTransform="matrix(1 0 0 -1 0 467.21)" gradientUnits="userSpaceOnUse"><stop offset="0" stop-color="#a6694a"></stop><stop offset="1" stop-color="#4f2a1e"></stop></linearGradient><linearGradient id="1770301554760-350133_p" x1="216.86" x2="216.86" y1="297.68" y2="327.04" gradientTransform="matrix(1 0 0 -1 0 467.21)" gradientUnits="userSpaceOnUse"><stop offset="0" stop-color="#a6694a"></stop><stop offset="1" stop-color="#4f2a1e"></stop></linearGradient><linearGradient id="1770301554760-350133_r" x1="265.54" x2="247.11" y1="333.39" y2="466.43" gradientTransform="matrix(1 0 0 -1 0 467.21)" gradientUnits="userSpaceOnUse"><stop offset=".26" stop-color="#484258"></stop><stop offset="1" stop-color="#605b6e"></stop></linearGradient><radialGradient id="1770301554760-350133_d" cx="331.33" cy="432.61" r="30.93" fx="331.33" fy="454.63" gradientTransform="matrix(1 0 0 -1 0 467.21)" gradientUnits="userSpaceOnUse"><stop offset="0" stop-color="#ff562b"></stop><stop offset=".21" stop-color="#fd5229"></stop><stop offset=".43" stop-color="#f84523"></stop><stop offset=".65" stop-color="#ef3118"></stop><stop offset=".87" stop-color="#e3140a"></stop><stop offset="1" stop-color="#db0000"></stop></radialGradient><radialGradient id="1770301554760-350133_e" cx="409.44" cy="675.34" r="27.26" fx="409.44" fy="694.73" gradientTransform="matrix(1 0 0 -1 0 467.21)" gradientUnits="userSpaceOnUse"><stop offset="0" stop-color="#ffa200"></stop><stop offset=".26" stop-color="#ff9e00"></stop><stop offset=".53" stop-color="#ff9100"></stop><stop offset=".81" stop-color="#ff7d00"></stop><stop offset="1" stop-color="#ff6a00"></stop></radialGradient><radialGradient id="1770301554760-350133_f" cx="371.69" cy="727.24" r="28.31" fx="371.69" fy="747.68" gradientTransform="matrix(1 0 0 -1 0 467.21)" gradientUnits="userSpaceOnUse"><stop offset="0" stop-color="#f20fea"></stop><stop offset=".25" stop-color="#ee0fe6"></stop><stop offset=".5" stop-color="#e10eda"></stop><stop offset=".76" stop-color="#cd0dc6"></stop><stop offset="1" stop-color="#b30bad"></stop></radialGradient><radialGradient id="1770301554760-350133_g" cx="-289.91" cy="282.15" r="26.74" fx="-289.91" fy="301.02" gradientTransform="matrix(1 0 0 -1 0 467.21)" gradientUnits="userSpaceOnUse"><stop offset="0" stop-color="#a7ff19"></stop><stop offset=".21" stop-color="#a3fc18"></stop><stop offset=".43" stop-color="#96f414"></stop><stop offset=".65" stop-color="#82e70e"></stop><stop offset=".87" stop-color="#65d406"></stop><stop offset="1" stop-color="#50c700"></stop></radialGradient><radialGradient id="1770301554760-350133_h" cx="281.52" cy="353.45" r="30.41" fx="281.52" fy="375.46" gradientTransform="matrix(1 0 0 -1 0 467.21)" gradientUnits="userSpaceOnUse"><stop offset="0" stop-color="#00a2ff"></stop><stop offset=".2" stop-color="#009efb"></stop><stop offset=".41" stop-color="#0294ee"></stop><stop offset=".62" stop-color="#0481da"></stop><stop offset=".84" stop-color="#0768bd"></stop><stop offset="1" stop-color="#0a50a1"></stop></radialGradient><radialGradient id="1770301554760-350133_i" cx="207.6" cy="664.33" r="26.21" fx="207.6" fy="683.2" gradientTransform="matrix(1 0 0 -1 0 467.21)" gradientUnits="userSpaceOnUse"><stop offset="0" stop-color="#ffeb7d"></stop><stop offset=".17" stop-color="#ffea79"></stop><stop offset=".35" stop-color="#ffe56c"></stop><stop offset=".54" stop-color="#ffde58"></stop><stop offset=".72" stop-color="#ffd43b"></stop><stop offset=".91" stop-color="#ffc716"></stop><stop offset="1" stop-color="#ffbf00"></stop></radialGradient><radialGradient id="1770301554760-350133_j" cx="128.44" cy="58.29" r="34.6" fx="128.44" fy="58.29" gradientTransform="matrix(1 0 0 -1 0 467.21)" gradientUnits="userSpaceOnUse"><stop offset=".51" stop-color="#f0a429" stop-opacity=".8"></stop><stop offset="1" stop-color="#f0a429" stop-opacity="0"></stop></radialGradient><radialGradient id="1770301554760-350133_q" cx="275.23" cy="-299.25" r="190.3" fx="275.23" fy="-299.25" gradientTransform="matrix(1 0 0 -1 0 467.21)" gradientUnits="userSpaceOnUse"><stop offset=".9" stop-color="#1a1626" stop-opacity="0"></stop><stop offset="1" stop-color="#1a1626" stop-opacity=".2"></stop></radialGradient></defs><path d="M169.86 225.83v91.67h182.93v-91.67z" class="av" fill="#e68c00"></path><path d="M371.92 209.6c2.05-9.56 3.93-20.57 5.63-33.02 1.7-12.46 2.39-25.43 2.05-38.91s-2.56-26.62-6.66-39.42c-4.09-12.8-10.75-24.49-19.97-35.07 0 0-.68 11.61-2.05 34.82-1.36 23.21-4.09 53.92-8.19 92.15-3.07 26.96-3.33 50.17-.77 69.63 2.56 19.45 6.91 34.13 13.05 44.03s13.48 13.99 22.01 12.29 17.41-10.58 26.62-26.62c-12.29 6.48-21.42 7-27.39 1.54s-9.22-15.44-9.72-29.95c-.51-14.51 1.28-31.65 5.37-51.45" class="bb" fill="#ffb80d"></path><path d="m366.4 181.55-27.75 10.86c-5.63 19.3-7.95 37.4-6.94 54.29 1 16.89 4.22 31.37 9.65 43.43s12.26 20.71 20.51 25.94c8.24 5.23 16.89 5.93 25.94 2.11s17.59-13.57 25.64-29.25q-22.32 18.09-38.31 11.76c-10.66-4.23-17.19-16.39-19.6-36.49-2.41-20.11 1.21-47.65 10.87-82.64" class="at" fill="#f9a307"></path><path d="M404.69 329.41c-3.75-2.39-9.38-5.46-16.9-9.22-7.51-3.75-15.62-7.76-24.32-12.03s-17.06-8.36-25.09-12.29q-12.03-5.895-19.71-9.72l-7.68-3.84h-96.76l-9.22 2.82c-6.15 1.88-13.57 4.18-22.27 6.91s-16.9 5.37-24.58 7.94c-7.68 2.56-13.05 4.52-16.13 5.89-8.88 4.09-17.24 8.96-25.09 14.59s-14.42 13.82-19.71 24.58-8.62 26.02-9.98 45.82c-6.48 1.71-13.31 4.09-20.48 7.17s-13.31 6.57-18.43 10.5-7.68 7.6-7.68 11.01c0 4.78 1.36 11.18 4.09 19.2s6.23 16.13 10.5 24.32 8.88 15.36 13.82 21.5c4.95 6.14 9.81 9.9 14.59 11.26 10.58 2.73 19.62 2.05 27.14-2.05 7.51-4.09 13.65-9.56 18.43-16.38 4.78-6.83 8.28-13.05 10.5-18.68s3.33-8.45 3.33-8.45l1.02 9.47c.68 6.31 1.02 12.55 1.02 18.68q0 12.285 15.87 19.71c15.87 7.425 24.66 8.53 42.24 10.75s36.78 3.33 57.59 3.33 41.73-.85 62.72-2.56 40.19-4.18 57.59-7.42c17.41-3.24 31.49-7 42.24-11.26 10.75-4.27 16.13-8.79 16.13-13.57 0-4.09-.34-11.26-1.02-21.5s-1.71-21.85-3.07-34.82a370 370 0 0 0-6.14-38.65c-2.73-12.8-6.06-24.06-9.98-33.79-3.93-9.72-8.79-16.13-14.59-19.2" fill="url(#1770301554760-350133_b)"></path><path d="M311 284.35v-48.13h-99.83v48.13c0 6.14 3.41 11.18 10.24 15.1s15.19 6.57 25.09 7.94c9.9 1.36 19.8 1.36 29.69 0 9.9-1.36 18.18-4.01 24.83-7.94 6.66-3.93 9.98-8.96 9.98-15.1" fill="#484258"></path><path d="M506.57 429.24c-4.78-2.39-9.81-3.24-15.1-2.56s-10.58 1.96-15.87 3.84-10.07 3.16-14.33 3.84-7.59-.34-9.98-3.07q-3.585-4.095.51-7.68c4.095-3.585 6.31-4.87 10.75-7.42 4.44-2.56 8.02-5.63 10.75-9.22s2.73-7.94 0-13.05L422.62 440l-180.21 9.22c0 10.92 4.52 20.56 13.57 28.93q13.56 12.54 35.07 20.73c14.33 5.46 29.78 9.22 46.33 11.26 16.56 2.05 32.34 2.56 47.36 1.54 27.99-2.73 51.03-7.94 69.12-15.61 18.09-7.68 31.83-16.13 41.21-25.34 9.38-9.22 14.85-17.75 16.38-25.6 1.54-7.85-.08-13.14-4.87-15.87" class="aw" fill="#ab6a22"></path><path d="M505.55 427.19c-4.44-2.39-9.38-3.24-14.85-2.56s-10.84 1.88-16.13 3.59-10.07 2.9-14.33 3.59-7.6-.17-9.98-2.56c-2.73-2.73-2.3-5.55 1.28-8.45 3.59-2.9 7.85-5.97 12.8-9.22s8.36-6.66 10.24-10.24-.26-7.76-6.4-12.55c-2.73-2.05-8.53-4.09-17.41-6.14s-19.54-3.59-32-4.61-25.52-1.28-39.17-.77-26.79 2.13-39.42 4.87c-20.14 4.09-37.89 9.9-53.24 17.41s-26.96 15.79-34.82 24.83c-7.85 9.04-10.92 18.34-9.22 27.9 1.71 9.56 7.08 18.09 16.13 25.6 9.04 7.51 20.57 13.74 34.56 18.68 13.99 4.95 28.93 8.36 44.8 10.24s31.31 2.13 46.33.77q41.985-3.585 69.12-14.85c18.09-7.51 31.74-15.79 40.95-24.83 9.22-9.04 14.59-17.41 16.13-25.09s-.26-12.89-5.37-15.61m-129.02-10.24c-1.02-3.75.77-6.91 5.37-9.47 4.61-2.56 10.24-4.27 16.9-5.12s12.89-.6 18.68.77c5.8 1.36 9.22 3.93 10.24 7.68 1.02 4.09-.77 7.42-5.37 9.98s-10.33 4.18-17.15 4.87c-6.83.68-13.05.34-18.68-1.02s-8.96-3.93-9.98-7.68" fill="url(#1770301554760-350133_c)"></path><path d="M254.68 421.56c-4.78 5.12-8.19 10.07-10.24 14.85 7.17 2.05 15.87 5.37 26.11 9.98s20.65 9.9 31.23 15.87 20.22 11.86 28.93 17.66q13.05 8.7 20.22 14.85c7.17 6.15 6.48 6.66 5.12 7.68-3.07 1.36-9.98.34-20.73-3.07s-24.06-8.7-39.93-15.87-32.85-15.7-50.94-25.6c2.05 6.14 5.97 11.86 11.77 17.15s12.63 9.98 20.48 14.08c6.83-1.02 16.38.17 28.67 3.59s25.6 8.36 39.93 14.85q20.475 1.53 39.42 0c4.09-.34 8.36-.85 12.8-1.54-7.85-4.44-18.43-10.41-31.74-17.92s-27.3-15.53-41.98-24.06c-14.67-8.53-28.24-16.64-40.7-24.32q-18.69-11.52-28.41-18.18m14.84-12.29c6.48 3.75 14.67 8.53 24.58 14.33 9.9 5.8 20.22 12.12 30.97 18.94q16.125 10.245 30.21 19.2c9.38 5.97 16.81 11.09 22.27 15.36s7.68 6.57 6.66 6.91c-1.36 1.02-5.29.51-11.77-1.54 6.48 3.75 12.89 7.51 19.2 11.26s12.37 7.34 18.18 10.75c8.19-1.36 16.04-3.24 23.55-5.63-13.31-7.51-23.98-14.08-32-19.71s-11.35-8.79-9.98-9.47c1.36-1.02 7.42.94 18.18 5.89 10.75 4.95 23.47 11.35 38.14 19.2 1.71-.68 3.59-1.36 5.63-2.05l-167.41-92.67c-5.8 2.73-11.26 5.8-16.38 9.22m145.88 14.34a71.3 71.3 0 0 1-14.85 2.56c11.26 5.46 23.47 11.61 36.6 18.43 13.14 6.83 26.71 14.17 40.7 22.01 2.05 1.02 3.93 2.05 5.63 3.07s3.59 2.05 5.63 3.07q4.605-3.585 8.19-7.68l-8.7-3.33c-5.8-2.22-13.14-5.29-22.01-9.22s-17.92-8.36-27.14-13.31-17.24-10.15-24.06-15.61m-80.88-23.54c1.36-1.02 5.8-.17 13.31 2.56s16.9 6.66 28.16 11.77c.34-1.02.68-1.88 1.02-2.56-16.72-6.83-34.82-15.36-54.27-25.6q-12.285 3.075-24.06 7.68c10.58 5.8 23.12 12.89 37.63 21.25s29.69 17.06 45.56 26.11 30.89 17.75 45.05 26.11c14.17 8.36 26.2 15.44 36.09 21.25 3.75-2.05 7.34-3.93 10.75-5.63-8.88-4.44-19.54-9.9-32-16.38s-25.17-13.48-38.14-20.99-24.83-14.59-35.58-21.25-19.28-12.29-25.6-16.9-8.96-7.08-7.94-7.42m169.99 56.83c3.41-4.78 5.63-9.22 6.66-13.31-9.9-5.8-19.8-11.43-29.69-16.9-3.75.68-7.51 1.62-11.26 2.82s-7.17 1.96-10.24 2.3l44.54 25.09m-76.8-46.07c.34 1.36.34 2.39 0 3.07l20.99 11.77c.34-1.71 1.71-3.59 4.09-5.63s5.12-4.09 8.19-6.14q-20.985-12.795-34.56-22.53c-9.04-6.48-14.59-11.09-16.64-13.82-7.17-.34-14.17-.51-20.99-.51 6.14 4.09 10.84 7.42 14.08 9.98q4.86 3.84 3.84 4.35c-1.02.34-4.44-.68-10.24-3.07s-13.31-5.97-22.53-10.75l-10.24 1.02 42.49 23.55c5.12 0 9.72.68 13.82 2.05 4.09 1.36 6.66 3.59 7.68 6.66" fill="#e8a253"></path><path d="M427.73 412.34c0-4.44-2.64-7.51-7.94-9.22-5.29-1.71-11.35-2.3-18.18-1.79q-10.245.765-18.18 4.35c-5.29 2.39-7.76 5.46-7.42 9.22 2.39-3.75 7.34-6.57 14.85-8.45s15.02-2.39 22.53-1.54 12.29 3.33 14.33 7.42" class="aw" fill="#ab6a22"></path><path d="M348.88 403.13q-1.53-1.02-10.5-1.02c-8.97 0-12.8.34-20.48 1.02s-14.51 1.54-20.48 2.56-9.3 2.22-9.98 3.59c-2.05 3.07-2.3 5.03-.77 5.89 1.54.85 3.67 1.54 6.4 2.05s4.95 1.45 6.66 2.82c2.39 1.71 7.08 2.13 14.08 1.28s12.71-1.28 17.15-1.28c5.8 0 8.96-.94 9.47-2.82s1.96-2.99 4.35-3.33c4.44-1.02 6.74-2.56 6.91-4.61s-.77-4.09-2.82-6.14" class="aj" fill="#cc860f"></path><path d="M348.88 402.1q-3.585-1.02-5.37-2.82c-1.2-1.2-2.82-1.79-4.87-1.79-5.46-.34-9.47-.94-12.03-1.79s-5.37-.77-8.45.26c-5.12 1.71-8.7 2.64-10.75 2.82-2.05.17-4.44.6-7.17 1.28-4.09.68-7 1.62-8.7 2.82-1.71 1.2-3.07 3.16-4.09 5.89-2.39 4.09-1.54 6.31 2.56 6.66 4.09.34 7.34 1.54 9.72 3.59 2.39 1.71 7.08 2.22 14.08 1.54s12.71-1.02 17.15-1.02c5.8 0 8.96-1.02 9.47-3.07s1.96-3.24 4.35-3.59c4.44-1.02 7-2.73 7.68-5.12s-.51-4.27-3.59-5.63" fill="url(#1770301554760-350133_d)"></path><path d="M494.79 447.15c1.36-2.73-.34-4.61-5.12-5.63s-10.24-1.71-16.38-2.05c-7.17 0-11.77.6-13.82 1.79-2.05 1.2-5.63 1.96-10.75 2.31-4.09.68-6.48 2.05-7.17 4.09q-1.02 3.075-1.02 6.66c-.34 1.71.51 2.9 2.56 3.59 2.05.68 3.41 1.88 4.09 3.59.34 1.36 1.96 2.22 4.87 2.56 2.9.34 5.71.85 8.45 1.54 7.17 1.71 12.12 1.62 14.85-.26s5.97-3.16 9.72-3.84c4.44-.68 6.14-1.79 5.12-3.33s-.17-2.82 2.56-3.84c2.39-1.02 3.16-2.13 2.3-3.33-.85-1.2-.94-2.47-.26-3.84" class="aj" fill="#cc860f"></path><path d="M494.79 445.62c1.36-2.39-.34-4.09-5.12-5.12-4.78-1.02-10.24-1.71-16.38-2.05-7.17-.34-11.77.08-13.82 1.28s-5.63 2.13-10.75 2.82q-6.135.51-7.17 3.84c-1.035 3.33-1.02 4.35-1.02 6.4-.34 2.05.51 3.33 2.56 3.84s3.41 1.79 4.09 3.84c.34 1.36 1.96 2.13 4.87 2.3 2.9.17 5.71.6 8.45 1.28q10.755 3.075 14.85 0c4.095-3.075 5.97-3.41 9.72-4.09 4.44-.68 6.14-1.79 5.12-3.33s-.17-2.82 2.56-3.84c2.39-1.02 3.16-2.13 2.3-3.33-.85-1.2-.94-2.47-.26-3.84" fill="url(#1770301554760-350133_e)"></path><path d="M444.62 468.14c-2.73-1.02-6.83-1.36-12.29-1.02s-11.26 1.2-17.41 2.56c-6.14 1.36-11.26 3.16-15.36 5.37-4.09 2.22-5.97 4.52-5.63 6.91 1.02 4.09 4.35 6.4 9.98 6.91s11.69.77 18.18.77c5.8 0 10.41-1.11 13.82-3.33s7.17-3.33 11.26-3.33c4.09-.34 6.23-2.39 6.4-6.14s-2.82-6.66-8.96-8.7" class="aj" fill="#cc860f"></path><path d="M444.62 467.12q-9.21-3.585-11.01-3.33c-1.2.17-3.84.08-7.94-.26q-9.21-1.02-12.03 1.02c-1.88 1.36-5.72 2.56-11.52 3.59-4.09.68-6.66 2.31-7.68 4.87s-1.2 5.21-.51 7.94c1.36 4.09 4.78 6.31 10.24 6.66 5.46.34 11.43.51 17.92.51 5.8 0 10.41-1.02 13.82-3.07s7.17-3.24 11.26-3.59c4.09 0 6.14-1.88 6.14-5.63s-2.9-6.66-8.7-8.7" fill="url(#1770301554760-350133_f)"></path><path d="M351.44 500.4c2.05 2.39 4.69 3.16 7.94 2.31 3.24-.85 6.23-1.11 8.96-.77 4.78.68 8.53.42 11.26-.77 2.73-1.2 4.09-2.47 4.09-3.84 0-2.39 1.11-4.69 3.33-6.91s1.79-4.01-1.28-5.37c-2.73-1.02-4.27-2.39-4.61-4.09s-2.73-3.41-7.17-5.12c-5.12-2.05-11.09-3.41-17.92-4.09s-12.97.51-18.43 3.59c-2.73 1.71-3.93 3.33-3.59 4.87s1.02 3.16 2.05 4.87c1.02 1.71 1.36 3.41 1.02 5.12-.68 2.39 1.28 4.35 5.89 5.89s7.42 2.99 8.45 4.35" class="aj" fill="#cc860f"></path><path d="M351.44 499.37c2.05 2.39 4.69 3.16 7.94 2.3 3.24-.85 6.23-1.11 8.96-.77 4.78.68 8.53.42 11.26-.77 2.73-1.2 4.09-2.47 4.09-3.84 0-2.39 1.11-4.69 3.33-6.91s1.79-4.01-1.28-5.37c-2.73-1.02-4.27-2.39-4.61-4.09-.34-1.71-2.73-3.41-7.17-5.12-5.12-2.05-11.09-3.41-17.92-4.09s-12.97.51-18.43 3.59c-2.73 1.71-3.93 3.33-3.59 4.87s1.02 3.16 2.05 4.87 1.36 3.41 1.02 5.12c-.68 2.39 1.28 4.35 5.89 5.89s7.42 2.99 8.45 4.35" fill="url(#1770301554760-350133_g)"></path><path d="M318.68 441.52c2.73-2.73 2.13-5.03-1.79-6.91q-5.895-2.82-12.03-5.37c-3.07-1.36-7.59-2.13-13.57-2.3-5.97-.17-11.77.34-17.41 1.54q-8.445 1.8-12.03 5.37c-1.71 2.39-2.22 5.46-1.54 9.22.68 3.75 5.97 5.8 15.87 6.14 4.44 0 8.02.51 10.75 1.54s7.85 1.02 15.36 0c6.14-.68 9.9-1.45 11.26-2.31s2.05-1.79 2.05-2.82 1.02-2.39 3.07-4.09" class="aj" fill="#cc860f"></path><path d="M318.68 440.6c2.73-2.73 2.13-5.03-1.79-6.91s-7.94-3.67-12.03-5.37c-3.07-1.36-7.59-2.13-13.57-2.3-5.97-.17-11.77.34-17.41 1.54q-8.445 1.8-12.03 5.37c-1.71 2.39-2.22 5.46-1.54 9.22.68 3.75 5.97 5.8 15.87 6.14 4.44 0 8.02.51 10.75 1.54s7.85 1.02 15.36 0c6.14-.68 9.9-1.45 11.26-2.31s2.05-1.79 2.05-2.82 1.02-2.39 3.07-4.09" fill="url(#1770301554760-350133_h)"></path><path d="M281.82 460.98c-6.14 1.71-9.81 3.59-11.01 5.63-1.2 2.05-1.36 4.01-.51 5.89s1.28 3.67 1.28 5.37c-.34 1.71 1.54 3.24 5.63 4.61 4.09 1.36 9.9 1.54 17.41.51q7.68-1.02 11.52 0c3.84 1.02 6.4-.17 11.52-2.56 4.44-2.05 7.85-4.78 10.24-8.19s.85-6.66-4.61-9.72c-10.58-6.14-24.4-6.66-41.47-1.54" class="aj" fill="#cc860f"></path><path d="M323.8 461.49c-10.92-6.14-24.92-6.66-41.98-1.54-6.14 1.71-9.81 3.59-11.01 5.63-1.2 2.05-1.36 4.01-.51 5.89s1.28 3.5 1.28 4.87c0 1.71 2.05 3.33 6.14 4.87s9.9 1.79 17.41.77c5.12-.68 8.88-.68 11.26 0s6.31-.17 11.77-2.56c4.09-2.05 7.42-4.78 9.98-8.19s1.11-6.66-4.35-9.72" fill="url(#1770301554760-350133_i)"></path><path d="M421.58 416.95c2.39 2.39 1.54 5.29-2.56 8.7-4.09 3.41-7.85 6.66-11.26 9.72-2.05 2.05-4.78 2.56-8.19 1.54s-5.97-2.9-7.68-5.63-1.2-5.63 1.54-8.7 7.17-5.71 13.31-7.94q9.21-3.33 14.85 2.31m-43.53-270.83c-.34-6.83-2.05-10.41-5.12-10.75s-6.23.77-9.47 3.33-5.21 4.69-5.89 6.4c-2.05 5.12-4.52 12.29-7.42 21.5-2.9 9.22-4.01 17.41-3.33 24.58q.51 4.605 4.35 7.68c3.84 3.075 5.37 2.47 8.45 1.28s5.46-5.03 7.17-11.52c1.02-3.75 3.33-9.13 6.91-16.13 3.59-7 5.03-15.79 4.35-26.36" class="al" fill="#ffc940"></path><path d="M368.23 172.07c1.67-3.54 3.07-7.81 4.21-12.8 1.15-5 1.72-9.26 1.72-12.8s-.93-4.89-2.81-4.06q-4.365 1.875-5.31 6.09c-.62 2.81-2.4 6.3-5.31 10.46-1.87 3.12-2.4 5.72-1.56 7.81s1.61 4.01 2.34 5.78.16 3.7-1.72 5.78c-2.91 3.33-3.8 5-2.65 5s2.97-1.09 5.46-3.28c2.5-2.19 4.37-4.84 5.62-7.96" fill="url(#1770301554760-350133_j)"></path><path d="M368.23 172.07c1.67-3.54 3.07-7.81 4.21-12.8 1.15-5 1.72-9.26 1.72-12.8s-.93-4.89-2.81-4.06q-4.365 1.875-5.31 6.09c-.62 2.81-2.4 6.3-5.31 10.46-1.87 3.12-2.4 5.72-1.56 7.81s1.61 4.01 2.34 5.78.16 3.7-1.72 5.78c-2.91 3.33-3.8 5-2.65 5s2.97-1.09 5.46-3.28c2.5-2.19 4.37-4.84 5.62-7.96" fill="#faba37"></path><path d="M261.07 26.13c-23.21.09-42.3 5.96-57.26 17.6-14.97 11.65-25.9 27.39-32.82 47.23-6.91 19.84-9.77 42.27-8.56 67.28.52 7.52 1.73 16.61 3.61 27.29s4.04 20.61 6.45 29.8c3.42 12.61 10.34 24.61 20.76 35.98 10.42 11.38 21.96 20.66 34.64 27.83 12.68 7.18 23.82 10.72 33.41 10.63s20.68-3.64 33.26-10.67c12.58-7.02 24.06-16.26 34.46-27.7s17.28-23.47 20.67-36.08c2.37-9.23 4.52-19.22 6.43-29.97s3.02-19.75 3.34-27.02c1.58-25.11-1.07-47.57-7.97-67.37-6.89-19.81-17.89-35.59-32.98-47.35-15.09-11.75-34.23-17.59-57.45-17.5" class="al" fill="#ffc940"></path><path d="M261.14 227.84c-4.16-1.87-7.55-2.97-10.15-3.28s-5.15-.16-7.65.47c-2.5.62-5.62 1.35-9.37 2.19-3.75.83-8.85 1.46-15.3 1.87 3.33 3.75 6.61 7.55 9.83 11.4 3.23 3.85 7.34 7.08 12.34 9.68s11.76 3.91 20.3 3.91c9.79 0 17.23-1.46 22.33-4.37s9.06-6.3 11.87-10.15 5.57-7.34 8.28-10.46c-6.45-.41-11.55-1.04-15.3-1.87s-6.87-1.56-9.37-2.19-5.05-.78-7.65-.47-5.99 1.4-10.15 3.28" fill="#d47706"></path><path d="M226.47 231.93c5.62 5.83 12.8 9.68 21.55 11.55s17.54 1.87 26.39 0q13.275-2.805 21.39-11.55c-12.91 1.46-24.46 2.19-34.66 2.19s-21.76-.73-34.66-2.19" fill="#fff"></path><path d="M337.34 133.22c1.25 1.25 1.56 2.19.94 2.81s-1.67.52-3.12-.31c-8.12-5.42-16.14-8.43-24.05-9.06-7.91-.62-14.78-.52-20.61.31-2.08.41-3.49-.1-4.21-1.56-.73-1.46-.68-3.02.16-4.69.83-1.67 2.4-2.81 4.69-3.43 5-.83 10.41-.68 16.24.47s11.45 3.07 16.87 5.78 9.79 5.93 13.12 9.68m-152.43 0c-1.25 1.25-1.56 2.19-.94 2.81s1.67.52 3.12-.31c8.12-5.42 16.14-8.43 24.05-9.06 7.91-.62 14.78-.52 20.61.31 2.08.41 3.49-.1 4.21-1.56s.68-3.02-.16-4.69c-.83-1.67-2.4-2.81-4.68-3.43-5-.83-10.41-.68-16.24.47s-11.45 3.07-16.87 5.78-9.78 5.93-13.12 9.68" fill="#d48100"></path><path d="M274.69 202.53c-1.89 0-3.87.38-5.95 1.13s-4.63 1.13-7.65 1.13-5.57-.38-7.65-1.14c-2.08-.75-4.06-1.13-5.95-1.14-1.89 0-2.93.57-3.12 1.7s.66 2.26 2.55 3.4c1.51.75 3.78 1.8 6.8 3.12s5.48 1.99 7.37 1.99c2.27 0 4.91-.66 7.94-1.98s5.1-2.36 6.23-3.12c1.89-1.13 2.74-2.26 2.55-3.4-.19-1.13-1.23-1.7-3.12-1.7" class="az" fill="#f0a429"></path><path d="M6.89 228.04c2.05 2.39 3.59 1.79 4.61-1.79s1.71-8.19 2.05-13.82.34-10.15 0-13.57c-.34-2.73 1.11-7.25 4.35-13.57 3.24-6.31 6.23-11.01 8.96-14.08 1.71-2.39 1.62-5.46-.26-9.22-1.88-3.75-3.5-4.78-4.87-3.07-2.05 3.07-5.46 8.1-10.24 15.1s-8.02 12.71-9.72 17.15c-.68 1.71-1.11 4.95-1.28 9.72-.17 4.78.17 9.72 1.02 14.85.85 5.12 2.65 9.22 5.37 12.29M44.27 423.6c2.39 2.05 6.31 2.39 11.77 1.02 5.46-1.36 11.35-3.67 17.66-6.91s11.95-6.91 16.9-11.01c4.95-4.09 8.1-8.02 9.47-11.77-2.39-11.95-5.29-21.76-8.7-29.44s-6.83-15.19-10.24-22.53-6.4-15.87-8.96-25.6c-2.56-9.72-4.18-22.27-4.87-37.63 0-3.07-2.47-5.03-7.42-5.89s-10.5-.85-16.64 0-11.35 2.56-15.62 5.12-5.89 5.72-4.87 9.47c6.14 22.53 10.07 41.98 11.77 58.36 1.71 16.38 2.9 30.81 3.59 43.26.68 12.46 2.73 23.64 6.14 33.54" class="al" fill="#ffc940"></path><path d="M22.76 288.45c.68 2.73 3.84 4.27 9.47 4.61s11.77-.34 18.43-2.05c6.65-1.71 11.52-4.27 14.59-7.68 2.39-3.07 3.67-7.6 3.84-13.57s-.17-11.95-1.02-17.92-1.45-10.67-1.79-14.08c-.34-3.75-2.05-8.62-5.12-14.59s-6.57-12.12-10.5-18.43-7.42-11.52-10.5-15.62c-1.02-1.36-1.71-.34-2.05 3.07q-.51 5.115-1.02 13.05a90.4 90.4 0 0 1-2.3 15.36c-1.2 4.95-3.07 8.28-5.63 9.98s-6.4.34-11.52-4.09c-3.75-2.73-7.85-1.96-12.29 2.3-4.44 4.27-5.97 9.3-4.61 15.1 3.07 10.92 7.25 20.05 12.55 27.39 5.29 7.34 8.45 13.05 9.47 17.15" class="al" fill="#ffc940"></path><path d="M24.3 172.74c-.34-2.73-1.2-3.59-2.56-2.56-.34.34-1.45 1.71-3.33 4.09-1.88 2.39-3.67 4.69-5.37 6.91-1.71 2.22-2.56 3.33-2.56 3.33l3.33-2.82c2.22-1.88 4.52-3.75 6.91-5.63s3.59-2.99 3.59-3.33" class="az" fill="#f0a429"></path><path d="M30.95 125.64s.42-2.73 1.28-8.19c.85-5.46.42-10.92-1.28-16.38-1.71-5.8-4.09-9.38-7.17-10.75-3.07-1.36-6.06-1.11-8.96.77s-4.87 4.52-5.89 7.94c-1.02 4.09-.85 8.96.51 14.59s3.41 10.84 6.14 15.62l15.36-3.59" fill="#302c3b"></path><path d="M18.16 128.71s-1.11-2.13-3.33-6.4-4.01-10.32-5.37-18.18c0 6.83 1.28 12.71 3.84 17.66s3.84 7.42 3.84 7.42l1.02-.51m2.04-.5s-1.02-2.73-3.07-8.19-3.75-12.12-5.12-19.97c0 6.83 1.11 13.31 3.33 19.45s3.33 9.22 3.33 9.22l1.54-.51m4.09 5.63-2.82-8.19c-1.88-5.46-3.5-12.12-4.87-19.97 0 6.83 1.11 13.31 3.33 19.45s3.33 9.22 3.33 9.22l1.02-.51" class="am" fill="#1a1626"></path><path d="M9.45 71.89c1.36 3.07 1.79 7.17 1.28 12.29s-1.11 9.38-1.79 12.8c-.68 3.41-.51 4.09.51 2.05 1.36-2.39 2.56-3.16 3.59-2.3 1.02.85 1.88 1.79 2.56 2.82s1.2.85 1.54-.51c.68-2.05 1.62-2.73 2.82-2.05s2.22 1.54 3.07 2.56 1.45 1.02 1.79 0c0-2.39.68-2.99 2.05-1.79 1.36 1.2 2.56 2.47 3.59 3.84 1.02 1.36 1.2.85.51-1.54q-3.585-14.85-8.7-20.73c-5.115-5.88-6.4-6.14-8.96-6.66s-3.84-.77-3.84-.77" fill="url(#1770301554760-350133_k)"></path><path d="M31.47 234.69c2.05 11.95 4.78 21.76 8.19 29.44q5.115 11.52 8.19 10.5c2.39-.34 3.93-4.78 4.61-13.31s0-18.6-2.05-30.21c-2.39-13.31-5.29-28.5-8.7-45.56q-5.115-25.59-8.7-46.59s-1.88-.68-5.63-2.05c-3.75-1.36-7 .34-9.72 5.12 2.39 13.99 4.69 29.61 6.91 46.85s4.52 32.51 6.91 45.82" fill="#7d625a"></path><path d="M30.95 125.64c-5.46.34-10.75 1.36-15.87 3.07l2.56 13.31c4.78-1.71 9.9-2.73 15.36-3.07z" fill="url(#1770301554760-350133_l)"></path><path d="m33 136.39-.51-1.02c-5.46.34-10.58 1.36-15.36 3.07q-.51.51-.51 1.02 0 1.02.51.51c5.12-1.71 10.24-2.73 15.36-3.07q.51 0 .51-.51" fill="url(#1770301554760-350133_m)"></path><path d="m32.49 133.32-.51-.51c-5.46 0-10.58 1.02-15.36 3.07q-.51 0-.51.51 0 1.02.51 1.02c5.12-2.05 10.24-3.07 15.36-3.07q.51 0 .51-1.02" fill="url(#1770301554760-350133_n)"></path><path d="M27.89 253.12c0-4.09-1.45-9.22-4.35-15.36s-3.5-11.95-1.79-17.41c.68-2.39 3.5-4.87 8.45-7.42s9.3-4.18 13.05-4.87c2.73-.68 4.27-2.82 4.61-6.4s-.51-5.21-2.56-4.87c-2.73.68-7.76 1.28-15.1 1.79s-14.25 3.33-20.73 8.45c-1.36 1.36-2.99 4.35-4.87 8.96s-3.24 9.72-4.09 15.36c-.85 5.63-.6 10.32.77 14.08 1.02 2.73 3.67 5.21 7.94 7.42 4.27 2.22 8.45 3.5 12.55 3.84s6.14-.85 6.14-3.59" class="al" fill="#ffc940"></path><path d="M16.62 248q0-2.04-.51-7.17V224.7c0-5.97.68-11.01 2.05-15.1.68-2.39 3.59-5.8 8.7-10.24 5.12-4.44 9.38-7.34 12.8-8.7 2.39-1.36 3.5-3.67 3.33-6.91s-.94-4.87-2.3-4.87h-1.02c-2.39 1.36-6.66 3.16-12.8 5.37-6.14 2.22-12.46 6.06-18.94 11.52-1.71 1.02-3.41 5.12-5.12 12.29S.25 222.23.25 229.05v1.02c0 4.09.34 7.34 1.02 9.72 1.71 4.09 4.69 7.42 8.96 9.98s6.4 1.96 6.4-1.79" class="al" fill="#ffc940"></path><path d="M2.79 226.5c1.36 2.39 3.07 1.96 5.12-1.28s3.93-7.51 5.63-12.8c1.71-5.29 2.73-9.64 3.07-13.05.34-2.73 2.82-6.83 7.42-12.29s8.45-9.38 11.52-11.77c2.39-1.71 3.07-4.61 2.05-8.7s-2.22-5.46-3.59-4.09c-3.07 2.39-7.76 6.48-14.08 12.29-6.31 5.8-10.67 10.58-13.05 14.33-1.02 1.36-2.22 4.35-3.59 8.96-1.36 4.61-2.22 9.56-2.56 14.85s.34 9.81 2.05 13.57" class="al" fill="#ffc940"></path><path d="M26.35 184.52c-3.07.68-6.4 2.3-9.98 4.87-3.59 2.56-5.37 3.84-5.37 3.84l15.36-8.7m.5 14.83c-3.07-.34-6.14.42-9.22 2.3-3.07 1.88-4.61 2.82-4.61 2.82l13.82-5.12" class="az" fill="#f0a429"></path><path d="M332.85 156.67c-1.46-7.29-4.84-12.49-10.15-15.62s-11.19-4.21-17.65-3.28c-6.45.94-11.97 3.91-16.55 8.9s-6.87 12.18-6.87 21.55c2.08-1.04 5.62-1.2 10.62-.47s10.36 1.3 16.08 1.72c5.72.41 10.88-.21 15.46-1.87s7.6-5.31 9.05-10.93" class="as" fill="#edebea"></path><path d="M305.37 140.17c-4.08 0-7.54 1.43-10.4 4.28s-4.28 6.32-4.28 10.4 1.43 7.54 4.28 10.4c2.86 2.86 6.32 4.28 10.4 4.28s7.54-1.43 10.4-4.28 4.28-6.32 4.28-10.4-1.43-7.54-4.28-10.4c-2.85-2.85-6.32-4.28-10.4-4.28" fill="url(#1770301554760-350133_o)"></path><path d="M297.01 154.57c0 2.86.85 5 2.55 6.43s3.64 2.14 5.82 2.14 4.12-.71 5.82-2.14 2.55-3.57 2.55-6.43-.85-4.76-2.55-6.12-3.64-2.04-5.82-2.04-4.12.68-5.82 2.04q-2.55 2.04-2.55 6.12" class="am" fill="#1a1626"></path><path d="M295.93 150.41c0 1.5.51 2.48 1.53 2.96s2.04.48 3.06 0 1.53-1.46 1.53-2.96c-.14-1.23-.71-2.08-1.74-2.55s-2.01-.48-2.96 0-1.43 1.33-1.43 2.55" class="as" fill="#edebea"></path><path d="m334.04 152.77 1.79-.51c1.2-.34 1.96-1.02 2.31-2.05-2.05.68-3.59.6-4.61-.26-1.02-.85-1.54-1.28-1.54-1.28h2.05c1.36 0 2.22-.51 2.56-1.54-2.73.68-4.87.42-6.4-.77-1.54-1.2-2.64-2.13-3.33-2.82-2.73-3.41-7.08-5.89-13.05-7.42s-11.95-.85-17.92 2.05q-8.955 4.35-13.05 19.2 5.625-11.775 15.87-14.85c10.245-3.075 13.57-1.79 20.22.77s11.35 7.08 14.08 13.57c.68 0 1.71-.17 3.07-.51s2.39-1.02 3.07-2.05c-1.36.68-2.56.6-3.59-.26s-1.54-1.28-1.54-1.28" class="au" fill="#85521e"></path><path d="M189.42 156.67c1.46 5.62 4.48 9.26 9.05 10.93 4.58 1.67 9.74 2.29 15.46 1.87 5.72-.41 11.04-.99 15.93-1.72s8.48-.57 10.77.47c0-9.37-2.29-16.55-6.87-21.55s-10.1-7.96-16.55-8.9-12.39.16-17.8 3.28-8.74 8.33-9.99 15.62" class="as" fill="#edebea"></path><path d="M216.86 140.17c4.08 0 7.54 1.43 10.4 4.28 2.86 2.86 4.28 6.32 4.28 10.4s-1.43 7.54-4.28 10.4-6.32 4.28-10.4 4.28-7.54-1.43-10.4-4.28c-2.86-2.86-4.28-6.32-4.28-10.4s1.43-7.54 4.28-10.4c2.86-2.85 6.32-4.28 10.4-4.28" fill="url(#1770301554760-350133_p)"></path><path d="M225.23 154.57q0-4.08-2.55-6.12c-2.55-2.04-3.64-2.04-5.82-2.04s-4.12.68-5.82 2.04-2.55 3.4-2.55 6.12c0 2.86.85 5 2.55 6.43s3.64 2.14 5.82 2.14 4.12-.71 5.82-2.14 2.55-3.57 2.55-6.43" class="am" fill="#1a1626"></path><path d="M226.32 150.41c0-1.23-.48-2.08-1.43-2.55s-1.94-.48-2.96 0q-1.53.72-1.74 2.55c0 1.5.51 2.48 1.53 2.96s2.04.48 3.07 0 1.53-1.46 1.53-2.96" class="as" fill="#edebea"></path><path d="M188.19 152.77s-.51.42-1.54 1.28c-1.02.85-2.22.94-3.59.26.68 1.02 1.71 1.71 3.07 2.05s2.39.51 3.07.51c2.73-6.48 7.42-11.01 14.08-13.57s13.39-2.82 20.22-.77q10.245 3.075 15.87 14.85-4.095-14.85-13.05-19.2c-5.97-2.9-11.95-3.59-17.92-2.05s-10.32 4.01-13.05 7.42q-1.02 1.02-3.33 2.82c-2.31 1.8-3.67 1.45-6.4.77.34 1.02 1.2 1.54 2.56 1.54h2.05s-.51.42-1.54 1.28c-1.02.85-2.56.94-4.61.26.34 1.02 1.11 1.71 2.3 2.05 1.2.34 1.79.51 1.79.51" class="au" fill="#85521e"></path><path d="M294.64 24.17q-3.615-3.615-16.89-6.33c-13.275-2.715-19.4-2.01-31.66-.6-12.26 1.4-25.03 5.43-38.3 12.06s-25.63 16.99-37.09 31.06-21.01 32.97-28.65 56.69c-5.23 17.69-7.54 35.38-6.94 53.07s2.31 34.28 5.13 49.76 4.92 28.85 6.33 40.11.5 19.3-2.72 24.13c-3.22 4.82-10.86 5.43-22.92 1.81 6.43 6.43 13.77 10.76 22.01 12.96 8.24 2.21 15.88 1.71 22.92-1.51s12.16-9.75 15.38-19.6q4.83-14.775.6-41.31c-2.82-13.67-2.61-29.85.6-48.55 3.22-18.69 9.25-36.99 18.09-54.88s20.91-33.37 36.18-46.44c15.28-13.07 33.77-21.01 55.49-23.82 15.68 10.45 29.96 25.13 42.82 44.03 12.87 18.89 19.9 41.41 21.11 67.54 10.45-13.67 16.38-27.94 17.79-42.82 1.4-14.88-.2-29.25-4.82-43.12s-11.26-26.03-19.9-36.49c-8.64-10.45-17.79-18.3-27.44-23.52-9.65-5.23-18.69-6.63-27.14-4.22" class="bb" fill="#ffb80d"></path><path d="m308.95 60.62.51-7.17c.34-4.78-.42-10.07-2.3-15.87s-6.06-10.24-12.55-13.31c.34 2.39.85 5.55 1.54 9.47s.77 7.34.26 10.24-2.47 4.18-5.89 3.84c-23.55-.68-43.6 3.07-60.16 11.26s-30.21 19.28-40.95 33.28c-10.75 13.99-18.86 29.44-24.32 46.33-5.46 16.9-8.62 33.62-9.47 50.17-.85 16.56.08 31.49 2.82 44.8 3.75 17.75 3.67 31.83-.26 42.24s-10.32 16.64-19.2 18.68c-8.88 2.05-19.11-.68-30.72-8.19 8.88 12.63 18.34 20.91 28.41 24.83 10.07 3.93 19.28 3.5 27.64-1.28s14.51-13.74 18.43-26.88 4.52-30.12 1.79-50.94c-2.39-15.36-2.39-32 0-49.91q3.585-26.88 15.87-51.96c12.285-25.08 19.62-31.15 34.3-43.26 14.67-12.12 33.28-19.71 55.81-22.78 15.36 9.56 27.39 19.71 36.09 30.46s15.1 21.42 19.2 32 6.83 20.05 8.19 28.41 2.05 14.93 2.05 19.71c3.41-9.56 4.35-20.22 2.82-32q-2.31-17.655-9.72-34.56c-7.41-16.905-10.92-21.16-17.92-29.69s-14.42-14.51-22.27-17.92" class="at" fill="#f9a307"></path><path d="M343.26 117.08c-5.26-9.63-12.34-19.45-21.22-29.47S304.49 70.39 296.03 66c-7.66-5.2-13.09-6.48-16.3-3.86l-4.81 3.94q17.505 3.555 33.24 18.87c10.49 10.21 19.38 20.93 26.66 32.17 5.66 8.42 10.22 17.75 13.67 28q5.175 15.36 7.65 29.22c.37-8.04-.47-17.29-2.52-27.73s-5.5-20.28-10.36-29.51" class="aj" fill="#cc860f"></path><path d="M344.7 117.02c-4.82-10.06-11.56-20.21-20.2-30.46s-17.19-17.59-25.64-22.02c-7.64-5.63-13.07-7.14-16.29-4.52l-4.82 3.92c11.66 2.82 22.62 9.35 32.88 19.61 10.25 10.25 19 21.42 26.24 33.48 4.82 8.45 8.85 17.79 12.06 28.05 3.22 10.25 5.63 20.01 7.24 29.25.8-8.04.2-17.29-1.81-27.75-2.01-10.45-5.23-20.31-9.65-29.56" class="av" fill="#e68c00"></path><path d="M299.74 59.09c-13.99.34-28.67 4.27-44.03 11.77-15.36 7.51-29.27 18.6-41.73 33.28-12.46 14.67-21.67 32.68-27.64 54.01s-6.57 45.99-1.79 73.98c-1.36-23.21 1.02-44.62 7.17-64.25 6.14-19.63 14.85-36.78 26.11-51.45 11.26-14.68 24.15-26.36 38.65-35.07 14.51-8.7 29.61-13.74 45.31-15.1z" class="aj" fill="#cc860f"></path><path d="M294.61 24.27c2.39 3.07 4.01 7.6 4.87 13.57s.08 12.37-2.31 19.2c-14.33.68-29.1 4.95-44.28 12.8s-28.84 19.11-40.95 33.79c-12.12 14.67-20.99 32.77-26.62 54.27s-5.89 46.25-.77 74.23c-1.71-23.21.34-44.62 6.14-64.25s14.17-36.95 25.09-51.96c10.92-15.02 23.63-26.96 38.14-35.84s29.61-14.17 45.31-15.87c1.36-2.05 2.65-5.55 3.84-10.5 1.2-4.95 1.28-10.15.26-15.62s-3.93-10.07-8.7-13.82" class="av" fill="#e68c00"></path><path d="M378.58 168.64c1.36-12.97 1.54-26.36.51-40.19s-4.27-27.05-9.72-39.68c0 0-5.12-1.36-15.36-4.09s-25.09-4.61-44.54-5.63-43.18 1.11-71.16 6.4c-27.99 5.29-59.9 15.79-95.74 31.49-2.73 8.53-4.61 17.15-5.63 25.86-1.02 8.7-1.54 17.32-1.54 25.86h243.18" fill="url(#1770301554760-350133_q)"></path><path d="M376.53 98.51c-5.8-7.85-15.27-14.33-28.41-19.45s-28.41-8.19-45.82-9.22c-17.41-1.02-35.84.34-55.29 4.09s-38.57 10.32-57.34 19.71c-18.77 9.38-35.84 21.93-51.2 37.63q19.455-11.775 54.78-19.71c23.55-5.29 51.03-7.94 82.43-7.94s65.19 4.09 101.37 12.29c0 0 .08-1.96.26-5.89.17-3.93-.08-7.76-.77-11.52" fill="#605b6e"></path><path d="M359.12 101.07c10.24 3.75 18.94 3.5 26.11-.77S397 89.46 399.05 80.59c2.05-8.88.68-18.6-4.09-29.18-4.78-10.58-14.17-20.48-28.16-29.69-15.7-10.24-32.94-16.81-51.71-19.71s-37.89-2.65-57.34.77a207.4 207.4 0 0 0-55.81 18.18c-17.75 8.7-33.53 19.54-47.36 32.51-13.82 12.97-24.32 27.64-31.49 44.03-3.75 8.53-4.61 15.79-2.56 21.76s5.29 10.32 9.73 13.05 8.36 3.24 11.77 1.54c11.95-6.48 25.51-13.39 40.7-20.73s31.83-13.57 49.91-18.69c18.09-5.12 37.71-7.51 58.87-7.17s43.69 4.95 67.58 13.82" fill="url(#1770301554760-350133_r)"></path></g></svg>
