<svg xmlns="http://www.w3.org/2000/svg" data-name="Layer 1" style="" viewBox="0 0 512 511.83"><g><defs><linearGradient id="1770301554768-545752_b" x1="-496.39" x2="-393.06" y1="1505.98" y2="1327.01" gradientTransform="rotate(-30 -2056.714 -90.935)" gradientUnits="userSpaceOnUse"><stop offset="0" stop-color="#005eff"></stop><stop offset=".1" stop-color="#006eff"></stop><stop offset=".33" stop-color="#018bff"></stop><stop offset=".56" stop-color="#019fff"></stop><stop offset=".78" stop-color="#01acff"></stop><stop offset="1" stop-color="#01b0ff"></stop></linearGradient><linearGradient id="1770301554768-545752_c" x1="-171.28" x2="-81.65" y1="1422.34" y2="1176.07" gradientTransform="rotate(-20 -2955.419 -189.648)" gradientUnits="userSpaceOnUse"><stop offset="0" stop-color="#005eff"></stop><stop offset=".1" stop-color="#006eff"></stop><stop offset=".33" stop-color="#018bff"></stop><stop offset=".56" stop-color="#019fff"></stop><stop offset=".78" stop-color="#01acff"></stop><stop offset="1" stop-color="#01b0ff"></stop></linearGradient><linearGradient id="1770301554768-545752_d" x1="330.26" x2="330.26" y1="1209.94" y2="954" gradientTransform="translate(94 -954)" gradientUnits="userSpaceOnUse"><stop offset="0" stop-color="#005eff"></stop><stop offset=".1" stop-color="#006eff"></stop><stop offset=".33" stop-color="#018bff"></stop><stop offset=".56" stop-color="#019fff"></stop><stop offset=".78" stop-color="#01acff"></stop><stop offset="1" stop-color="#01b0ff"></stop></linearGradient></defs><path d="M163.49 423.84c3.41-1.96 6.48-1.19 8.53 2.3l12.97 22.44c1.96 3.5 1.19 6.57-2.3 8.53L89.7 510.77c-3.5 1.96-6.57 1.19-8.53-2.3l-10.24-17.75c-1.54-2.56-1.96-4.95-1.96-7.85L74 362.32l-51.44 29.69c-3.41 1.96-6.57 1.19-8.53-2.3L1.06 367.19c-1.96-3.5-1.19-6.57 2.3-8.53l90.77-52.38c3.41-2.05 6.48-1.19 8.53 2.3l10.24 17.75c1.54 2.56 1.96 4.86 1.96 7.85l-5.03 120.55 53.66-30.88Z" fill="url(#1770301554768-545752_b)"></path><path d="M298.72 277.52c4.86-1.79 8.62 0 10.41 4.86l11.52 31.74c1.79 4.86 0 8.62-4.86 10.41l-131.13 47.69c-4.86 1.79-8.62 0-10.41-4.86l-9.13-25c-1.28-3.67-1.37-6.74-.68-10.49l33.7-153.22-72.6 26.45c-4.86 1.79-8.62.09-10.41-4.86l-11.52-31.74c-1.79-4.86 0-8.62 4.86-10.41l128.06-46.58c4.86-1.79 8.62 0 10.41 4.86l9.13 25.08c1.37 3.67 1.45 6.74.68 10.49l-33.7 153.14z" fill="url(#1770301554768-545752_c)"></path><path d="M502.87 199.63c5.8 0 9.13 3.24 9.13 9.13v38.05c0 5.8-3.33 9.13-9.13 9.13H345.64c-5.89 0-9.13-3.33-9.13-9.13v-29.95c0-4.35 1.11-7.68 3.24-11.35l94.7-149.21h-87.02c-5.8 0-9.13-3.24-9.13-9.13V9.13c0-5.8 3.33-9.13 9.13-9.13h153.56c5.89 0 9.13 3.33 9.13 9.13v29.95c0 4.44-1.11 7.68-3.24 11.35l-94.7 149.21h90.69Z" fill="url(#1770301554768-545752_d)"></path></g></svg>
