<svg xmlns="http://www.w3.org/2000/svg" data-name="Layer 1" style="" viewBox="0 0 512 512"><g><defs><radialGradient id="1770301555112-3696192_c" cx="-915.2" cy="206.65" r="98.1" fx="-915.2" fy="206.65" gradientTransform="matrix(-.75303 -.76016 .75293 -.76033 -446.76 -408.2)" gradientUnits="userSpaceOnUse"><stop offset="0" stop-color="#e0dad8"></stop><stop offset=".46" stop-color="#ded8d5"></stop><stop offset=".75" stop-color="#d7d0cd"></stop><stop offset="1" stop-color="#ccc2be"></stop><stop offset="1" stop-color="#ccc2be"></stop></radialGradient><radialGradient id="1770301555112-3696192_d" cx="-920.6" cy="1304.29" r="98.11" fx="-920.6" fy="1304.29" gradientTransform="matrix(-.76016 -.75303 -.76033 .75293 418.59 -1273.81)" gradientUnits="userSpaceOnUse"><stop offset="0" stop-color="#e0dad8"></stop><stop offset=".46" stop-color="#ded8d5"></stop><stop offset=".75" stop-color="#d7d0cd"></stop><stop offset="1" stop-color="#ccc2be"></stop><stop offset="1" stop-color="#ccc2be"></stop></radialGradient><linearGradient id="1770301555112-3696192_b" x1="-1226.1" x2="-1071.42" y1="1220.45" y2="1220.45" gradientTransform="scale(-1 1) rotate(-45 -1878.093 -367.258)" gradientUnits="userSpaceOnUse"><stop offset=".12" stop-color="#ccc2be"></stop><stop offset=".29" stop-color="#d3cac7"></stop><stop offset=".66" stop-color="#ddd6d4"></stop><stop offset="1" stop-color="#e0dad8"></stop></linearGradient></defs><path d="M55.56 460.57c63.7 7.39 114.14-52.27 114.14-52.27 131.18-174.24 222.25-237.93 229.72-239.73 89.12-21.42 61.17-113.02 61.17-113.02-30.43-101.32-158.74-51.19-125.51 47.48 2.95 8.89-80.83 101.62-232.03 232.02-98.68-33.21-148.82 95.11-47.48 125.52Z" fill="url(#1770301555112-3696192_b)"></path><path d="M460.59 55.55c84.22 23.42 65.73 164.37-61.17 113.02-43.5-17.54-23.18-136.46 61.17-113.02" fill="url(#1770301555112-3696192_c)"></path><path d="M55.56 460.59c23.4 84.22 164.35 65.73 113.03-61.18-17.57-43.5-136.46-23.18-113.03 61.18" fill="url(#1770301555112-3696192_d)"></path></g></svg>
