<svg xmlns="http://www.w3.org/2000/svg" data-name="Layer 1" style="" viewBox="0 0 512 375.47"><g><defs><radialGradient id="1770301555140-2829933_f" cx="324.2" cy="170.53" r="40.51" fx="324.2" fy="170.53" gradientTransform="matrix(1 0 0 -1 0 377.47)" gradientUnits="userSpaceOnUse"><stop offset="0" stop-color="#7b9099"></stop><stop offset=".32" stop-color="#788d95"></stop><stop offset=".62" stop-color="#70828a"></stop><stop offset=".92" stop-color="#617077"></stop><stop offset="1" stop-color="#5c6a70"></stop></radialGradient><radialGradient id="1770301555140-2829933_h" cx="172.25" cy="170.53" r="40.51" fx="172.25" fy="170.53" gradientTransform="matrix(1 0 0 -1 0 377.47)" gradientUnits="userSpaceOnUse"><stop offset="0" stop-color="#7b9099"></stop><stop offset=".32" stop-color="#788d95"></stop><stop offset=".62" stop-color="#70828a"></stop><stop offset=".92" stop-color="#617077"></stop><stop offset="1" stop-color="#5c6a70"></stop></radialGradient><radialGradient id="1770301555140-2829933_o" cx="394.9" cy="326.24" r="23.43" fx="394.9" fy="326.24" gradientTransform="matrix(1 0 0 -1 0 377.47)" gradientUnits="userSpaceOnUse"><stop offset="0" stop-color="#ffe02e"></stop><stop offset=".37" stop-color="#ffdd2c"></stop><stop offset=".6" stop-color="#ffd525"></stop><stop offset=".78" stop-color="#ffc719"></stop><stop offset=".95" stop-color="#ffb307"></stop><stop offset="1" stop-color="#fa0"></stop></radialGradient><radialGradient id="1770301555140-2829933_p" cx="429.89" cy="290.46" r="23.43" fx="429.89" fy="290.46" gradientTransform="matrix(1 0 0 -1 0 377.47)" gradientUnits="userSpaceOnUse"><stop offset="0" stop-color="#ff3b3b"></stop><stop offset=".36" stop-color="#fd3938"></stop><stop offset=".58" stop-color="#f63030"></stop><stop offset=".76" stop-color="#e92222"></stop><stop offset=".92" stop-color="#d80e0e"></stop><stop offset="1" stop-color="#cc0100"></stop></radialGradient><radialGradient id="1770301555140-2829933_q" cx="393.83" cy="255.46" r="23.43" fx="393.83" fy="255.46" gradientTransform="matrix(1 0 0 -1 0 377.47)" gradientUnits="userSpaceOnUse"><stop offset="0" stop-color="#9be022"></stop><stop offset=".36" stop-color="#9d2"></stop><stop offset=".57" stop-color="#92d522"></stop><stop offset=".74" stop-color="#87c722"></stop><stop offset=".9" stop-color="#77b323"></stop><stop offset="1" stop-color="#69a123"></stop></radialGradient><radialGradient id="1770301555140-2829933_r" cx="359.38" cy="291.25" r="23.44" fx="359.38" fy="291.25" gradientTransform="matrix(1 0 0 -1 0 377.47)" gradientUnits="userSpaceOnUse"><stop offset="0" stop-color="#2289c7"></stop><stop offset=".35" stop-color="#2187c4"></stop><stop offset=".57" stop-color="#1c80bc"></stop><stop offset=".74" stop-color="#1575ae"></stop><stop offset=".89" stop-color="#0a659a"></stop><stop offset="1" stop-color="#005687"></stop></radialGradient><radialGradient id="1770301555140-2829933_s" cx="80.85" cy="282.28" r="17.91" fx="80.85" fy="282.28" gradientTransform="matrix(1 0 0 -1 0 377.47)" gradientUnits="userSpaceOnUse"><stop offset="0" stop-color="#7b9099"></stop><stop offset=".45" stop-color="#768a92"></stop><stop offset="1" stop-color="#6a7b82"></stop></radialGradient><radialGradient id="1770301555140-2829933_t" cx="144.21" cy="282.28" r="17.92" fx="144.21" fy="282.28" gradientTransform="matrix(1 0 0 -1 0 377.47)" gradientUnits="userSpaceOnUse"><stop offset="0" stop-color="#7b9099"></stop><stop offset=".45" stop-color="#768a92"></stop><stop offset="1" stop-color="#6a7b82"></stop></radialGradient><radialGradient id="1770301555140-2829933_u" cx="112.55" cy="313.94" r="17.94" fx="112.55" fy="313.94" gradientTransform="matrix(1 0 0 -1 0 377.47)" gradientUnits="userSpaceOnUse"><stop offset="0" stop-color="#7b9099"></stop><stop offset=".45" stop-color="#768a92"></stop><stop offset="1" stop-color="#6a7b82"></stop></radialGradient><radialGradient id="1770301555140-2829933_v" cx="112.55" cy="250.58" r="17.92" fx="112.55" fy="250.58" gradientTransform="matrix(1 0 0 -1 0 377.47)" gradientUnits="userSpaceOnUse"><stop offset="0" stop-color="#7b9099"></stop><stop offset=".45" stop-color="#768a92"></stop><stop offset="1" stop-color="#6a7b82"></stop></radialGradient><linearGradient id="1770301555140-2829933_b" x1="256" x2="256" y1="125.14" y2="363.39" gradientTransform="matrix(1 0 0 -1 0 377.47)" gradientUnits="userSpaceOnUse"><stop offset=".12" stop-color="#302c3b"></stop><stop offset=".24" stop-color="#393945"></stop><stop offset=".47" stop-color="#454a53"></stop><stop offset=".71" stop-color="#4c555b"></stop><stop offset="1" stop-color="#4e585e"></stop></linearGradient><linearGradient id="1770301555140-2829933_c" x1="-595.14" x2="-698.39" y1="81.09" y2="129.24" gradientTransform="rotate(180 -100.695 188.735)" gradientUnits="userSpaceOnUse"><stop offset=".32" stop-color="#302c3b"></stop><stop offset=".37" stop-color="#33303e"></stop><stop offset=".77" stop-color="#474d55"></stop><stop offset="1" stop-color="#4e585e"></stop></linearGradient><linearGradient id="1770301555140-2829933_d" x1="741.6" x2="641.57" y1="48.55" y2="149.68" gradientTransform="matrix(1 0 0 -1 -643.75 377.47)" gradientUnits="userSpaceOnUse"><stop offset=".32" stop-color="#302c3b"></stop><stop offset=".37" stop-color="#33303e"></stop><stop offset=".77" stop-color="#474d55"></stop><stop offset="1" stop-color="#4e585e"></stop></linearGradient><linearGradient id="1770301555140-2829933_e" x1="331.95" x2="331.95" y1="108.07" y2="210.47" gradientTransform="matrix(1 0 0 -1 0 377.47)" gradientUnits="userSpaceOnUse"><stop offset="0" stop-color="#302c3b"></stop><stop offset=".34" stop-color="#3f424c"></stop><stop offset=".72" stop-color="#4a5259"></stop><stop offset="1" stop-color="#4e585e"></stop></linearGradient><linearGradient id="1770301555140-2829933_g" x1="180.05" x2="180.05" y1="108.07" y2="210.47" gradientTransform="matrix(1 0 0 -1 0 377.47)" gradientUnits="userSpaceOnUse"><stop offset="0" stop-color="#302c3b"></stop><stop offset=".34" stop-color="#3f424c"></stop><stop offset=".72" stop-color="#4a5259"></stop><stop offset="1" stop-color="#4e585e"></stop></linearGradient><linearGradient id="1770301555140-2829933_k" x1="399.45" x2="399.45" y1="205.43" y2="359.03" gradientTransform="matrix(1 0 0 -1 0 377.47)" gradientUnits="userSpaceOnUse"><stop offset="0" stop-color="#4e585e"></stop><stop offset=".28" stop-color="#4a5259"></stop><stop offset=".66" stop-color="#3f424c"></stop><stop offset="1" stop-color="#302c3b"></stop></linearGradient><linearGradient id="1770301555140-2829933_l" x1="112.55" x2="112.55" y1="205.43" y2="359.03" gradientTransform="matrix(1 0 0 -1 0 377.47)" gradientUnits="userSpaceOnUse"><stop offset="0" stop-color="#4e585e"></stop><stop offset=".28" stop-color="#4a5259"></stop><stop offset=".66" stop-color="#3f424c"></stop><stop offset="1" stop-color="#302c3b"></stop></linearGradient><linearGradient id="1770301555140-2829933_m" x1="399.45" x2="399.45" y1="213.97" y2="350.5" gradientTransform="matrix(1 0 0 -1 0 377.47)" gradientUnits="userSpaceOnUse"><stop offset="0" stop-color="#302c3b" stop-opacity=".3"></stop><stop offset=".34" stop-color="#3f424c" stop-opacity=".54"></stop><stop offset=".72" stop-color="#4a5259" stop-opacity=".8"></stop><stop offset="1" stop-color="#4e585e"></stop></linearGradient><linearGradient id="1770301555140-2829933_n" x1="112.55" x2="112.55" y1="213.97" y2="350.5" gradientTransform="matrix(1 0 0 -1 0 377.47)" gradientUnits="userSpaceOnUse"><stop offset="0" stop-color="#302c3b" stop-opacity=".3"></stop><stop offset=".34" stop-color="#3f424c" stop-opacity=".54"></stop><stop offset=".72" stop-color="#4a5259" stop-opacity=".8"></stop><stop offset="1" stop-color="#4e585e"></stop></linearGradient></defs><path d="M200.28 17.66S175.53 0 163.33 0C71.25 0 59.39 41.47 56.06 53.59c-3.24 12.2 139.86-33.96 144.21-35.93Zm111.44 0S336.47 0 348.67 0c92.07 0 103.94 41.47 107.26 53.59 3.24 12.2-139.86-33.96-144.21-35.93" fill="#302c3b"></path><path d="M485.03 130.9s-8.28-36.61-16.04-59.73c-14.59-43.18-89-57.09-212.99-57.09S57.51 27.9 43.01 71.17C35.24 94.3 26.97 130.9 26.97 130.9s-7.51 105.22 120.15 121.43h217.77C492.55 236.12 485.04 130.9 485.04 130.9Z" fill="url(#1770301555140-2829933_b)"></path><path d="M485.03 130.9C498.77 191.91 512 315.82 512 341.84c0 17.49-13.57 33.62-29.87 33.62-17.32 0-47.36-12.8-61.95-27.31-10.67-10.67-55.3-95.83-55.3-95.83 30.89-8.7 117.16-83.46 120.15-121.43Z" fill="url(#1770301555140-2829933_c)"></path><path d="M26.97 130.9C13.23 191.91 0 315.82 0 341.85c0 17.49 13.57 33.62 29.87 33.62 17.32 0 47.36-12.8 61.95-27.31 10.67-10.67 55.3-95.83 55.3-95.83-30.89-8.7-117.16-83.46-120.15-121.43" fill="url(#1770301555140-2829933_d)"></path><circle cx="331.95" cy="218.2" r="51.2" fill="url(#1770301555140-2829933_e)"></circle><circle cx="331.95" cy="218.2" r="42.67" class="aq" style="isolation:isolate" fill="#1a1626" opacity=".5"></circle><circle cx="331.95" cy="218.2" r="36.27" fill="url(#1770301555140-2829933_f)"></circle><circle cx="180.05" cy="218.2" r="51.2" fill="url(#1770301555140-2829933_g)"></circle><circle cx="180.05" cy="218.2" r="42.67" class="aq" style="isolation:isolate" fill="#1a1626" opacity=".5"></circle><circle cx="180.05" cy="218.2" r="36.27" fill="url(#1770301555140-2829933_h)"></circle><path id="1770301555140-2829933_i" d="M256 86.36c14.08 0 25.6 11.52 25.6 25.6s-11.52 25.6-25.6 25.6-25.6-11.52-25.6-25.6 11.52-25.6 25.6-25.6m0-8.54c-18.86 0-34.13 15.27-34.13 34.13s15.27 34.13 34.13 34.13 34.13-15.27 34.13-34.13S274.86 77.82 256 77.82" class="ap" data-name="Shape" fill="#556670"></path><path id="1770301555140-2829933_j" d="M262.83 115.37c-1.11 0-1.71-.6-1.71-1.71v-3.41c0-1.11.6-1.71 1.71-1.71h11.09c1.11 0 1.71.6 1.71 1.71v1.71c0 10.84-8.79 19.63-19.63 19.63-5.29 0-10.24-2.13-13.91-5.72-.77-.85-.77-1.62 0-2.39l3.67-3.58c.77-.77 1.62-.77 2.39 0a11.1 11.1 0 0 0 7.85 3.24c4.95 0 9.13-3.24 10.58-7.68h-3.75z" class="ap" data-name="Combined-Shape" fill="#556670"></path><circle cx="399.45" cy="95.23" r="76.8" fill="url(#1770301555140-2829933_k)"></circle><circle cx="112.55" cy="95.23" r="76.8" fill="url(#1770301555140-2829933_l)"></circle><circle cx="399.45" cy="95.23" r="68.27" fill="url(#1770301555140-2829933_m)"></circle><circle cx="112.55" cy="95.23" r="68.27" fill="url(#1770301555140-2829933_n)"></circle><path d="M399.45 39.77c-10.84 0-19.71 8.87-19.71 19.71s8.79 19.71 19.71 19.71 19.71-8.79 19.71-19.71-8.79-19.71-19.71-19.71" fill="url(#1770301555140-2829933_o)"></path><path d="M435.29 75.52c-10.92 0-19.71 8.79-19.71 19.71s8.79 19.71 19.71 19.71S455 106.15 455 95.23c-.09-10.92-8.87-19.71-19.71-19.71" fill="url(#1770301555140-2829933_p)"></path><path d="M399.45 111.27c-10.84 0-19.71 8.79-19.71 19.71s8.79 19.71 19.71 19.71 19.71-8.79 19.71-19.71c0-10.84-8.79-19.71-19.71-19.71" fill="url(#1770301555140-2829933_q)"></path><path d="M363.69 75.52c-10.92 0-19.71 8.87-19.71 19.71s8.79 19.71 19.71 19.71 19.71-8.79 19.71-19.71-8.87-19.71-19.71-19.71" fill="url(#1770301555140-2829933_r)"></path><path d="M93.18 84.39c-2.73-2.99-8.36-5.38-12.37-5.38H68.69c-4.01 0-7.34 3.33-7.34 7.34v17.66c0 4.01 3.33 7.34 7.34 7.34h12.12c4.1 0 9.64-2.39 12.37-5.38l5.12-5.46c2.73-2.99 2.73-7.77 0-10.75l-5.12-5.38Z" fill="url(#1770301555140-2829933_s)"></path><path d="M131.84 105.98c2.73 2.99 8.36 5.38 12.37 5.38h12.2c4.01 0 7.34-3.33 7.34-7.34V86.36c0-4.01-3.33-7.34-7.34-7.34h-12.2c-4.01 0-9.64 2.39-12.37 5.38l-5.12 5.46c-2.73 2.99-2.73 7.77 0 10.75l5.12 5.38Z" fill="url(#1770301555140-2829933_t)"></path><path d="M123.39 75.86c2.9-2.82 5.38-8.36 5.38-12.37V51.37c0-4.01-3.33-7.34-7.34-7.34h-17.66c-4.01 0-7.34 3.33-7.34 7.34v12.12c0 4.01 2.39 9.64 5.38 12.37l5.46 5.12c2.9 2.73 7.77 2.73 10.75 0l5.38-5.12Z" fill="url(#1770301555140-2829933_u)"></path><path d="M101.72 114.52c-2.99 2.73-5.38 8.36-5.38 12.37v12.2c0 4.01 3.33 7.34 7.34 7.34h17.66c4.01 0 7.34-3.33 7.34-7.34v-12.2c0-4.01-2.39-9.64-5.38-12.37l-5.46-5.12c-2.99-2.73-7.77-2.73-10.75 0l-5.38 5.12Z" fill="url(#1770301555140-2829933_v)"></path></g></svg>
