<svg xmlns="http://www.w3.org/2000/svg" data-name="Layer 1" style="" viewBox="0 0 512 614.4"><g><defs><linearGradient id="1770301555172-5906716_b" x1="81.92" x2="0" y1="329.68" y2="329.68" gradientTransform="matrix(1 0 0 -1 0 616.4)" gradientUnits="userSpaceOnUse"><stop offset="0" stop-color="#302c3b"></stop><stop offset=".31" stop-color="#2d2938"></stop><stop offset=".55" stop-color="#231f2e"></stop><stop offset=".68" stop-color="#1a1626"></stop></linearGradient><linearGradient id="1770301555172-5906716_c" x1="440.32" x2="440.32" y1="2" y2="616.4" gradientTransform="matrix(1 0 0 -1 0 616.4)" gradientUnits="userSpaceOnUse"><stop offset=".1" stop-color="#3f4c54"></stop><stop offset=".1" stop-color="#425058"></stop><stop offset=".12" stop-color="#4b5b63"></stop><stop offset=".15" stop-color="#4e5e67"></stop></linearGradient></defs><path d="M512 20.48S512 0 491.52 0H81.92c-97.79 97.69 0 552.96 0 552.96S512 663.45 512 532.48z" fill="#839aa3"></path><path d="M0 573.44V20.48C0 0 20.48 0 20.48 0h61.44v552.96z" fill="url(#1770301555172-5906716_b)"></path><path d="M491.52 552.96H20.48S0 552.96 0 573.44v20.48c0 20.48 20.48 20.48 20.48 20.48h471.04s20.48 0 20.48-20.48v-61.44c0 20.48-20.48 20.48-20.48 20.48" class="h" fill="#4e5e67"></path><path d="M491.52 563.2H20.48c-10.24 0-10.24 10.24-10.24 10.24v20.48s0 10.24 10.24 10.24h471.04c5.63 0 10.24-4.61 10.24-10.24v-33.28c-5.12 2.56-10.24 2.56-10.24 2.56" fill="#e6ebef"></path><path d="M10.24 581.12v5.12l487.63-2.56zm0 10.24v2.56s0 1.13.41 2.56l487.22-2.56zm.41-20.48c-.41 1.43-.41 2.56-.41 2.56V576l487.63-2.56z" fill="#cfd8dd"></path><path d="M430.08 0h20.48v614.4h-20.48z" fill="url(#1770301555172-5906716_c)"></path><path d="m196.71 173.77-26.93-34.92h-6.76v49.98h8.5v-34.92l26.83 34.92h6.86v-49.98h-8.5zm54.37-32.46c-3.58-2.05-7.78-3.07-12.7-3.07s-9.11 1.02-12.7 3.07-6.35 5.02-8.19 8.81c-1.95 3.79-2.87 8.4-2.87 13.72s.92 9.83 2.87 13.62c1.95 3.89 4.71 6.76 8.19 8.91 3.58 2.05 7.78 3.07 12.7 3.07s9.11-1.02 12.7-3.07c3.58-2.05 6.25-5.02 8.19-8.91 1.95-3.89 2.97-8.4 2.97-13.72s-.92-9.83-2.87-13.62c-2.05-3.79-4.71-6.76-8.29-8.81m-1.94 36.25c-2.66 3.17-6.25 4.71-10.85 4.71s-8.09-1.54-10.75-4.71-3.89-7.78-3.89-13.72 1.33-10.55 3.89-13.72c2.66-3.07 6.25-4.71 10.75-4.71s8.19 1.54 10.85 4.71c2.66 3.07 3.89 7.68 3.89 13.72.1 5.94-1.23 10.55-3.89 13.72m14.74-31.33h16.39v42.6h9.11v-42.6h16.28v-7.38h-41.78zm48.03 42.6h33.49v-7.07h-24.58v-14.75h23.24v-7.16h-23.24v-13.93h24.58v-7.07h-33.49zm76.8-19.56c-.82-1.54-2.05-2.87-3.58-3.89-1.64-1.13-3.48-2.05-5.84-2.87-2.25-.82-4.92-1.54-7.78-2.15-2.56-.61-4.61-1.23-6.25-1.84s-2.76-1.33-3.58-2.25-1.13-2.05-1.13-3.38c0-2.36.92-4.2 2.76-5.53s4.4-1.95 7.68-1.95c2.66 0 5.22.41 7.68 1.33 2.46.82 4.81 2.25 7.07 3.99l3.07-6.66a17.6 17.6 0 0 0-4.81-3.17c-1.84-.82-3.89-1.54-6.14-2.05s-4.51-.72-6.86-.72c-3.89 0-7.27.61-10.14 1.95-2.87 1.33-5.12 3.07-6.76 5.43-1.64 2.25-2.36 4.92-2.36 7.88 0 2.15.41 3.99 1.13 5.63.82 1.54 1.95 2.97 3.38 4.1 1.54 1.13 3.38 2.05 5.63 2.97 2.25.82 4.81 1.54 7.78 2.05 2.46.51 4.61 1.13 6.25 1.74s2.97 1.33 3.79 2.25c.82.82 1.23 1.95 1.23 3.28 0 2.25-.92 3.89-2.87 5.12s-4.61 1.84-8.09 1.84c-3.17 0-6.04-.41-8.6-1.23-2.66-.82-5.22-2.15-7.78-4.1l-3.07 6.66c1.54 1.23 3.38 2.36 5.43 3.28s4.2 1.54 6.55 2.05c2.36.41 4.81.72 7.37.72 4.1 0 7.68-.61 10.65-1.84s5.22-2.87 6.86-5.12 2.36-4.81 2.36-7.88c.2-2.36-.2-4.2-1.02-5.63Z" class="h" fill="#4e5e67"></path></g></svg>
