<svg xmlns="http://www.w3.org/2000/svg" data-name="Layer 1" style="" viewBox="0 0 512 511.99"><g><defs><linearGradient id="1770301555182-949034_b" x1="76.26" x2="242.79" y1="114.94" y2="114.94" gradientTransform="matrix(1 0 0 -1 0 513.99)" gradientUnits="userSpaceOnUse"><stop offset="0" stop-color="#006b2b"></stop><stop offset=".18" stop-color="#077527"></stop><stop offset=".49" stop-color="#188e1a"></stop><stop offset=".88" stop-color="#35b807"></stop><stop offset="1" stop-color="#3fc700"></stop></linearGradient><linearGradient id="1770301555182-949034_c" x1="148.96" x2="40.16" y1="322.43" y2="148.21" gradientTransform="matrix(1 0 0 -1 0 513.99)" gradientUnits="userSpaceOnUse"><stop offset="0" stop-color="#47de00"></stop><stop offset=".39" stop-color="#46db00"></stop><stop offset=".62" stop-color="#43d300"></stop><stop offset=".81" stop-color="#3ec500"></stop><stop offset=".98" stop-color="#36b100"></stop><stop offset="1" stop-color="#35ad00"></stop></linearGradient><linearGradient id="1770301555182-949034_d" x1="387.83" x2="466.76" y1="318.42" y2="171.23" gradientTransform="matrix(1 0 0 -1 0 513.99)" gradientUnits="userSpaceOnUse"><stop offset="0" stop-color="#3fc700"></stop><stop offset=".12" stop-color="#35b807"></stop><stop offset=".51" stop-color="#188e1a"></stop><stop offset=".82" stop-color="#077527"></stop><stop offset="1" stop-color="#006b2b"></stop></linearGradient><linearGradient id="1770301555182-949034_e" x1="253.78" x2="512" y1="127.29" y2="127.29" gradientTransform="matrix(1 0 0 -1 0 513.99)" gradientUnits="userSpaceOnUse"><stop offset="0" stop-color="#47de00"></stop><stop offset=".39" stop-color="#46db00"></stop><stop offset=".62" stop-color="#43d300"></stop><stop offset=".81" stop-color="#3ec500"></stop><stop offset=".98" stop-color="#36b100"></stop><stop offset="1" stop-color="#35ad00"></stop></linearGradient><linearGradient id="1770301555182-949034_f" x1="144.05" x2="228.67" y1="351.05" y2="491.85" gradientTransform="matrix(1 0 0 -1 0 513.99)" gradientUnits="userSpaceOnUse"><stop offset="0" stop-color="#3fc700"></stop><stop offset=".12" stop-color="#35b807"></stop><stop offset=".51" stop-color="#188e1a"></stop><stop offset=".82" stop-color="#077527"></stop><stop offset="1" stop-color="#006b2b"></stop></linearGradient><linearGradient id="1770301555182-949034_g" x1="372.56" x2="273" y1="328.58" y2="510.63" gradientTransform="matrix(1 0 0 -1 0 513.99)" gradientUnits="userSpaceOnUse"><stop offset="0" stop-color="#47de00"></stop><stop offset=".39" stop-color="#46db00"></stop><stop offset=".62" stop-color="#43d300"></stop><stop offset=".81" stop-color="#3ec500"></stop><stop offset=".98" stop-color="#36b100"></stop><stop offset="1" stop-color="#35ad00"></stop></linearGradient></defs><path d="M129.5 464.84h113.29V333.26H82.14s-5.47 45.99-5.85 61.4c-1.69 69.28 53.2 70.19 53.2 70.19Z" fill="url(#1770301555182-949034_b)"></path><path d="m156.03 278.03 52.02 30.04-68.53-121.5L0 187.96l52.04 30.02-41.75 72.32c-4.23 7.33-8.7 19.18-2.52 29.9l70.89 122.78c12.7 22 34.81 21.87 50.84 21.87 0 0-72.7-14.93-26.23-95.43z" fill="url(#1770301555182-949034_c)"></path><path d="m499.77 261.41-56.67-98.12-113.93 65.79 80.34 139.12s42.53-18.25 56.06-25.63c60.87-33.16 34.2-81.16 34.2-81.16" fill="url(#1770301555182-949034_d)"></path><path d="M324.73 331.83V271.8l-70.95 120.1L324.75 512v-60.06h83.46c8.46 0 20.98-2.07 27.17-12.77l70.88-122.77c12.69-22.02 1.54-41.1-6.48-54.98 0 0 23.4 70.42-69.52 70.42H324.73Z" fill="url(#1770301555182-949034_e)"></path><path d="m144.19 33.09-56.67 98.12 113.95 65.78L281.8 57.85s-37.09-27.72-50.23-35.74c-59.18-36.1-87.39 10.97-87.39 10.97Z" fill="url(#1770301555182-949034_f)"></path><path d="m292.69 149.49-52 30.04 139.49 1.37 68.53-121.51-52.02 30.05-41.74-72.3C350.73 9.8 342.66.01 330.31.01H188.55c-25.42 0-36.36 19.22-44.36 33.09 0 0 49.26-55.48 95.75 25.01l52.73 91.39Z" fill="url(#1770301555182-949034_g)"></path></g></svg>
