<svg xmlns="http://www.w3.org/2000/svg" data-name="Layer 1" style="" viewBox="0 0 512 512"><g><defs><linearGradient id="1770301555182-4831651_b" x1="256" x2="256" y1="514" y2="2" gradientTransform="matrix(1 0 0 -1 0 514)" gradientUnits="userSpaceOnUse"><stop offset="0" stop-color="#00abf1"></stop><stop offset=".23" stop-color="#00a7ef"></stop><stop offset=".47" stop-color="#009ae9"></stop><stop offset=".71" stop-color="#0086e0"></stop><stop offset=".95" stop-color="#0069d3"></stop><stop offset="1" stop-color="#0062d0"></stop></linearGradient></defs><path d="M512 443.73c0 37.55-30.72 68.27-68.27 68.27H68.27C30.72 512 0 481.28 0 443.73V68.27C0 30.72 30.72 0 68.27 0h375.47c37.55 0 68.27 30.72 68.27 68.27v375.47Z" fill="url(#1770301555182-4831651_b)"></path><path d="M216.1 154.1c13.05-5.84 27.22-8.88 41.77-8.88 56.22 0 101.96 43.77 101.96 102.25h66.83c0-91.91-75.73-169.07-168.8-169.07-32.82 0-64.49 9.27-91.85 27.05L136.53 76.8v112.18h115.46l-35.9-34.88Zm78.3 192.05c-12.5 5.65-26.05 8.67-40.03 8.67-56.3 0-102.12-45.62-102.12-107.35H85.33c0 97 75.84 177.9 169.04 177.9 31.63 0 61.85-9.32 88.15-26.35l32.95 36.18v-126H260.76l33.65 36.95Z" fill="#fff"></path></g></svg>
