<svg xmlns="http://www.w3.org/2000/svg" data-name="Layer 1" style="" viewBox="0 0 512 512.01"><g><defs><radialGradient id="1770301555192-6865007_b" cx="546.72" cy="411.78" r="63.95" fx="546.72" fy="411.78" gradientTransform="matrix(.86382 .61434 1.2198 -1.79532 -643.35 553.94)" gradientUnits="userSpaceOnUse"><stop offset="0" stop-color="#faa803"></stop><stop offset=".04" stop-color="#f9a303"></stop><stop offset=".48" stop-color="#ea7002"></stop><stop offset=".82" stop-color="#e15002"></stop><stop offset="1" stop-color="#de4402"></stop></radialGradient><radialGradient id="1770301555192-6865007_c" cx="1051.73" cy="505.42" r="63.47" fx="1051.73" fy="505.42" gradientTransform="matrix(-.30282 1.02625 2.0449 .63144 -337.2 -1104.47)" gradientUnits="userSpaceOnUse"><stop offset="0" stop-color="#faa803"></stop><stop offset=".04" stop-color="#f9a303"></stop><stop offset=".48" stop-color="#ea7002"></stop><stop offset=".82" stop-color="#e15002"></stop><stop offset="1" stop-color="#de4402"></stop></radialGradient><radialGradient id="1770301555192-6865007_d" cx="906.78" cy="906.57" r="64.22" fx="906.78" fy="906.57" gradientTransform="matrix(-1.04976 .02254 .04478 2.17954 1168.05 -1615.07)" gradientUnits="userSpaceOnUse"><stop offset="0" stop-color="#faa803"></stop><stop offset=".04" stop-color="#f9a303"></stop><stop offset=".48" stop-color="#ea7002"></stop><stop offset=".82" stop-color="#e15002"></stop><stop offset="1" stop-color="#de4402"></stop></radialGradient><radialGradient id="1770301555192-6865007_e" cx="312.42" cy="1061.1" r="63.54" fx="312.42" fy="1061.1" gradientTransform="matrix(-.34482 -1.01291 -2.01608 .7183 2383.81 -147.23)" gradientUnits="userSpaceOnUse"><stop offset="0" stop-color="#faa803"></stop><stop offset=".04" stop-color="#f9a303"></stop><stop offset=".48" stop-color="#ea7002"></stop><stop offset=".82" stop-color="#e15002"></stop><stop offset="1" stop-color="#de4402"></stop></radialGradient><radialGradient id="1770301555192-6865007_f" cx="90.39" cy="755.35" r="63.93" fx="90.39" fy="755.35" gradientTransform="matrix(.83722 -.65012 -1.28705 -1.73534 1079.72 1525.11)" gradientUnits="userSpaceOnUse"><stop offset="0" stop-color="#faa803"></stop><stop offset=".04" stop-color="#f9a303"></stop><stop offset=".48" stop-color="#ea7002"></stop><stop offset=".82" stop-color="#e15002"></stop><stop offset="1" stop-color="#de4402"></stop></radialGradient><radialGradient id="1770301555192-6865007_g" cx="859.54" cy="380.68" r="88.85" fx="859.54" fy="380.68" gradientTransform="matrix(.32371 1.01986 1.91709 -.63712 -633 -416.58)" gradientUnits="userSpaceOnUse"><stop offset="0" stop-color="#fff273"></stop><stop offset=".16" stop-color="#ffed69"></stop><stop offset=".42" stop-color="#fdde50"></stop><stop offset=".76" stop-color="#fcc726"></stop><stop offset="1" stop-color="#fab403"></stop></radialGradient><radialGradient id="1770301555192-6865007_h" cx="1069.82" cy="710.05" r="88.88" fx="1069.82" fy="710.05" gradientTransform="matrix(-.85077 .6323 1.18703 1.67196 394.48 -1498.5)" gradientUnits="userSpaceOnUse"><stop offset="0" stop-color="#fff273"></stop><stop offset=".16" stop-color="#ffed69"></stop><stop offset=".42" stop-color="#fdde50"></stop><stop offset=".76" stop-color="#fcc726"></stop><stop offset="1" stop-color="#fab403"></stop></radialGradient><radialGradient id="1770301555192-6865007_i" cx="605.24" cy="1067.82" r="88.97" fx="605.24" fy="1067.82" gradientTransform="matrix(-.85077 -.6323 -1.18703 1.67196 1960.52 -1040.79)" gradientUnits="userSpaceOnUse"><stop offset="0" stop-color="#fff273"></stop><stop offset=".16" stop-color="#ffed69"></stop><stop offset=".42" stop-color="#fdde50"></stop><stop offset=".76" stop-color="#fcc726"></stop><stop offset="1" stop-color="#fab403"></stop></radialGradient><radialGradient id="1770301555192-6865007_j" cx="107.81" cy="959.48" r="88.91" fx="107.81" fy="959.48" gradientTransform="matrix(.32371 -1.01986 -1.91709 -.63712 1941.72 938.47)" gradientUnits="userSpaceOnUse"><stop offset="0" stop-color="#fff273"></stop><stop offset=".16" stop-color="#ffed69"></stop><stop offset=".42" stop-color="#fdde50"></stop><stop offset=".76" stop-color="#fcc726"></stop><stop offset="1" stop-color="#fab403"></stop></radialGradient><radialGradient id="1770301555192-6865007_k" cx="264.71" cy="535.08" r="88.88" fx="264.71" fy="535.08" gradientTransform="matrix(1.05 0 0 -2.06 -21.26 1232.04)" gradientUnits="userSpaceOnUse"><stop offset="0" stop-color="#fff273"></stop><stop offset=".16" stop-color="#ffed69"></stop><stop offset=".42" stop-color="#fdde50"></stop><stop offset=".76" stop-color="#fcc726"></stop><stop offset="1" stop-color="#fab403"></stop></radialGradient><radialGradient id="1770301555192-6865007_l" cx="243.46" cy="266.72" r="157.7" fx="243.46" fy="266.72" gradientTransform="matrix(.97 0 0 -.99 20.86 506.46)" gradientUnits="userSpaceOnUse"><stop offset="0" stop-color="#1a1626"></stop><stop offset=".11" stop-color="#1f1725"></stop><stop offset=".24" stop-color="#2f1b23"></stop><stop offset=".38" stop-color="#48211f"></stop><stop offset=".54" stop-color="#6c2a1a"></stop><stop offset=".7" stop-color="#993613"></stop><stop offset=".87" stop-color="#d0430a"></stop><stop offset="1" stop-color="#ff4f03"></stop></radialGradient><radialGradient id="1770301555192-6865007_m" cx="243.46" cy="266.73" r="141.62" fx="243.46" fy="266.73" gradientTransform="matrix(.97 0 0 -.99 20.86 506.46)" gradientUnits="userSpaceOnUse"><stop offset="0" stop-color="#faa803"></stop><stop offset=".19" stop-color="#faa303"></stop><stop offset=".42" stop-color="#fb9303"></stop><stop offset=".67" stop-color="#fd7a03"></stop><stop offset=".95" stop-color="#ff5703"></stop><stop offset="1" stop-color="#ff4f03"></stop></radialGradient><radialGradient id="1770301555192-6865007_n" cx="230.04" cy="347.31" r="120.28" fx="230.04" fy="347.31" gradientTransform="matrix(.96932 -.03639 -.04278 -1.18923 48.98 682.04)" gradientUnits="userSpaceOnUse"><stop offset=".12" stop-color="#fa6800"></stop><stop offset=".22" stop-color="#fa8e2c"></stop><stop offset=".33" stop-color="#fab255"></stop><stop offset=".44" stop-color="#face76"></stop><stop offset=".55" stop-color="#fae38d"></stop><stop offset=".65" stop-color="#faef9b"></stop><stop offset=".73" stop-color="#faf3a0"></stop></radialGradient><linearGradient id="1770301555192-6865007_o" x1="255.95" x2="255.95" y1="214.45" y2="300.65" gradientTransform="matrix(1 0 0 -1 0 514.01)" gradientUnits="userSpaceOnUse"><stop offset="0" stop-color="#fa8003"></stop><stop offset=".23" stop-color="#fca623"></stop><stop offset=".51" stop-color="#fdce45"></stop><stop offset=".73" stop-color="#ffe759"></stop><stop offset=".87" stop-color="#fff061"></stop></linearGradient></defs><path d="M399.74 45.06c52.63 35.79-90.39 246.37-143.04 210.6-52.64-35.77 90.41-246.38 143.04-210.6" fill="url(#1770301555192-6865007_b)"></path><path d="M496.61 329.75c-18.55 59.98-258.47-14.12-239.94-74.11 18.52-59.98 258.49 14.12 239.94 74.11" fill="url(#1770301555192-6865007_c)"></path><path d="M261.89 512.01c-64.09 1.28-69.33-255.09-5.24-256.39 64.11-1.31 69.34 255.1 5.24 256.39" fill="url(#1770301555192-6865007_d)"></path><path d="M19.96 339.92C-1.09 280.73 235.6 196.4 256.67 255.58c21.09 59.18-215.64 143.53-236.71 84.34" fill="url(#1770301555192-6865007_e)"></path><path d="M105.17 51.32c51.07-37.87 202.6 166.39 151.54 204.27C205.63 293.49 54.07 89.2 105.17 51.32" fill="url(#1770301555192-6865007_f)"></path><path d="M481.41 182.02s23.72-115.61-90.56-77.61C281.38 140.8 256.1 256.94 256.1 256.94c-.02 0 89.71 76.84 196.32 41.38 114.28-38 28.98-116.31 28.98-116.31Z" fill="url(#1770301555192-6865007_g)"></path><path d="M394.8 452.84s114.8-12.64 44.17-112.11c-67.66-95.27-183.42-83.99-183.42-83.99 0-.02-43.7 111.04 22.18 203.82 70.62 99.47 117.06-7.72 117.06-7.72Z" fill="url(#1770301555192-6865007_h)"></path><path d="M116.29 452.25s47.24 107.79 117.87 8.32c67.66-95.26 21.39-204.42 21.39-204.42.02 0-116.73-8.21-182.62 84.58-70.64 99.48 43.36 111.53 43.36 111.53Z" fill="url(#1770301555192-6865007_i)"></path><path d="M30.79 181.05s-85.6 79.26 28.67 117.27c109.46 36.4 196.65-42.36 196.65-42.36 0 .02-28.45-116.12-135.06-151.55-114.29-38-90.26 76.64-90.26 76.64" fill="url(#1770301555192-6865007_j)"></path><path d="M256.44 14.05S156.3-44.75 156.3 78.2s100.14 178.23 100.14 178.23c-.02 0 99.14-63.55 99.14-178.23 0-122.95-99.14-64.15-99.14-64.15" fill="url(#1770301555192-6865007_k)"></path><path d="M173.61 280.06s-35.55 92.99-13.47 109.64c22.45 16.91 97.71-45.99 97.71-45.99s75.27 62.91 97.72 45.99c22.05-16.65-13.51-109.64-13.51-109.64s82.35-48.49 73.9-75.5c-8.55-27.31-102.61-21.77-102.61-21.77s-27.99-92.64-55.51-92.64-55.53 92.64-55.53 92.64-94.05-5.54-102.61 21.77c-8.47 27 73.89 75.5 73.89 75.5Z" fill="url(#1770301555192-6865007_l)"></path><path d="M182.19 276.1s-31.93 83.53-12.11 98.46c20.17 15.21 87.77-41.3 87.77-41.3s67.58 56.5 87.75 41.3c19.83-14.94-12.1-98.46-12.1-98.46s73.94-43.55 66.35-67.8c-7.68-24.51-92.14-19.54-92.14-19.54s-25.13-83.21-49.84-83.21-49.86 83.21-49.86 83.21-84.46-4.97-92.14 19.54c-7.6 24.25 66.34 67.8 66.34 67.8Z" fill="url(#1770301555192-6865007_m)"></path><path d="M254.1 383.57c-16.54 0-31.61-7.32-40.31-19.58-5.76-8.1-11.12-21.6-7.66-42.07-8.55 6.3-17.74 9.58-27.1 9.58-27.45 0-47.71-26.79-48.73-50.85-.42-9.69 2-40.35 47.1-47.94-24.32-25.16-21.44-47.64-17.2-59.32 7.52-20.7 29.55-35.74 52.34-35.74s39.08 13.26 48.03 36.14c9.32-23.97 25.79-37.43 46.43-37.43 24.54 0 49.78 19.73 56.26 44.02 4.77 17.84-1.29 34.75-16.69 47.71 29.7 5.23 40.33 26.47 40.03 46.14-.41 26.85-20.8 55.57-50.52 55.57-10.89 0-21.85-3.81-32.67-11.36 4.61 20.6-.49 34.68-6.23 43.32-9.09 13.68-25.19 21.83-43.07 21.83Z" fill="#fac80a"></path><path d="M332.58 232.03c77.36-46.58-46.28-146.63-72.17-41.84-20.75-93.95-148.86-21.65-71.52 46.35-101.09 8.96-29.72 133.8 25.97 71.28-30.38 94.38 114.5 87.9 79.3-2.88 72 67.73 128.13-70.05 38.42-72.91" fill="url(#1770301555192-6865007_n)"></path><ellipse cx="255.95" cy="256.46" rx="42.21" ry="43.1" fill="url(#1770301555192-6865007_o)"></ellipse></g></svg>
