<svg xmlns="http://www.w3.org/2000/svg" data-name="Layer 1" style="" viewBox="0 0 512 493.11"><g><defs><linearGradient id="1770301555202-1604182_b" x1="-576.83" x2="-576.83" y1="915.52" y2="1069.68" gradientTransform="matrix(2.91 0 0 -2.77 1932.16 3011.56)" gradientUnits="userSpaceOnUse"><stop offset="0" stop-color="#db0100"></stop><stop offset=".58" stop-color="#f31317"></stop><stop offset="1" stop-color="#ff1c23"></stop></linearGradient></defs><path d="M255.97 113.79C188.02 3.35 0 46.48 0 185.18c0 93.05 86.72 155.31 255.97 292.68C425.21 340.48 512 278.22 512 185.18c0-138.7-188.05-181.83-256.03-71.39" fill="url(#1770301555202-1604182_b)"></path><path d="M420.97 58.18c0 67.07-43.55 87.79-94.65 87.79 51.1 0 87.33 60.01 87.33 127.1 0-67.08 36.3-127.1 87.4-127.1-51.09 0-80.08-20.72-80.08-87.79M174.74 273.97c-51.1 0-80.09-29.25-80.09-96.32 0 54.34-28.59 83.84-66.61 93.09C44 294.51 66.75 318.61 96.2 345.4c13.72-41.34 42.39-71.42 78.55-71.42Zm168.39 14.61c0 67.06-43.55 96.32-94.64 96.32 27.86 0 51.23 17.92 66.8 45 24.2-19.58 46.17-37.51 65.96-54.28-24.67-13.32-38.12-41.41-38.12-87.03Z" style="isolation:isolate" fill="#1a1626" opacity=".25"></path><path d="M424.6 0c0 67.07-36.22 127.07-87.31 127.07 51.1 0 87.31 60.02 87.31 127.1 0-67.08 36.3-127.1 87.4-127.1-51.1 0-87.4-59.99-87.4-127.07M98.28 128c0 67.07-36.22 127.08-87.3 127.08 51.09 0 87.3 60.01 87.3 127.1 0-67.08 36.3-127.1 87.4-127.1-51.1 0-87.4-60-87.4-127.08m248.49 110.93C346.77 306 310.55 366 259.46 366c51.1 0 87.31 60.02 87.31 127.1 0-67.07 36.3-127.1 87.4-127.1-51.1 0-87.4-59.99-87.4-127.07" fill="#ffe12c"></path></g></svg>
