<svg xmlns="http://www.w3.org/2000/svg" data-name="Layer 1" style="" viewBox="0 0 512 511.95"><g><defs><linearGradient id="1770301555205-4897728_b" x1="873.75" x2="883.14" y1="577.77" y2="577.77" gradientTransform="scale(1 -1) rotate(-45 -98.23 776.458)" gradientUnits="userSpaceOnUse"><stop offset="0" stop-color="#cfd8dd"></stop><stop offset=".18" stop-color="#cad3d8"></stop><stop offset=".4" stop-color="#bac3c8"></stop><stop offset=".65" stop-color="#a1aaaf"></stop><stop offset=".92" stop-color="#7e888d"></stop><stop offset="1" stop-color="#717b80"></stop></linearGradient><linearGradient id="1770301555205-4897728_c" x1="870.15" x2="888.05" y1="501.77" y2="501.77" gradientTransform="scale(1 -1) rotate(-45 -98.23 776.458)" gradientUnits="userSpaceOnUse"><stop offset="0" stop-color="#9ef2ff"></stop><stop offset=".22" stop-color="#9aeffc"></stop><stop offset=".45" stop-color="#8de6f2"></stop><stop offset=".69" stop-color="#79d7e2"></stop><stop offset=".92" stop-color="#5cc3cc"></stop><stop offset="1" stop-color="#51bbc4"></stop></linearGradient><linearGradient id="1770301555205-4897728_d" x1="864.55" x2="894.02" y1="489.44" y2="489.44" gradientTransform="scale(1 -1) rotate(-45 -98.23 776.458)" gradientUnits="userSpaceOnUse"><stop offset="0" stop-color="#9ef2ff"></stop><stop offset=".22" stop-color="#9aeffc"></stop><stop offset=".45" stop-color="#8de6f2"></stop><stop offset=".69" stop-color="#79d7e2"></stop><stop offset=".92" stop-color="#5cc3cc"></stop><stop offset="1" stop-color="#51bbc4"></stop></linearGradient><linearGradient id="1770301555205-4897728_e" x1="855.5" x2="903.53" y1="454.08" y2="454.08" gradientTransform="scale(1 -1) rotate(-45 -98.23 776.458)" gradientUnits="userSpaceOnUse"><stop offset="0" stop-color="#9ef2ff"></stop><stop offset=".22" stop-color="#9aeffc"></stop><stop offset=".45" stop-color="#8de6f2"></stop><stop offset=".69" stop-color="#79d7e2"></stop><stop offset=".92" stop-color="#5cc3cc"></stop><stop offset="1" stop-color="#51bbc4"></stop></linearGradient><linearGradient id="1770301555205-4897728_f" x1="821.57" x2="911.74" y1="422.61" y2="422.61" gradientTransform="scale(1 -1) rotate(-45 -99.066 757.855)" gradientUnits="userSpaceOnUse"><stop offset="0" stop-color="#9ef2ff"></stop><stop offset=".22" stop-color="#9aeffc"></stop><stop offset=".45" stop-color="#8de6f2"></stop><stop offset=".69" stop-color="#79d7e2"></stop><stop offset=".92" stop-color="#5cc3cc"></stop><stop offset="1" stop-color="#51bbc4"></stop></linearGradient><linearGradient id="1770301555205-4897728_g" x1="874.42" x2="883.21" y1="495.46" y2="495.46" gradientTransform="scale(1 -1) rotate(-45 -98.23 776.458)" gradientUnits="userSpaceOnUse"><stop offset="0" stop-color="#9ef2ff"></stop><stop offset=".22" stop-color="#9aeffc"></stop><stop offset=".45" stop-color="#8de6f2"></stop><stop offset=".69" stop-color="#79d7e2"></stop><stop offset=".92" stop-color="#5cc3cc"></stop><stop offset="1" stop-color="#51bbc4"></stop></linearGradient><linearGradient id="1770301555205-4897728_h" x1="869.44" x2="888.79" y1="454.17" y2="454.17" gradientTransform="scale(1 -1) rotate(-45 -98.23 776.458)" gradientUnits="userSpaceOnUse"><stop offset="0" stop-color="#9ef2ff"></stop><stop offset=".22" stop-color="#9aeffc"></stop><stop offset=".45" stop-color="#8de6f2"></stop><stop offset=".69" stop-color="#79d7e2"></stop><stop offset=".92" stop-color="#5cc3cc"></stop><stop offset="1" stop-color="#51bbc4"></stop></linearGradient><linearGradient id="1770301555205-4897728_i" x1="828.96" x2="928.07" y1="143.69" y2="143.69" gradientTransform="scale(1 -1) rotate(-45 -100.228 774.147)" gradientUnits="userSpaceOnUse"><stop offset="0" stop-color="#e6ebed"></stop><stop offset=".5" stop-color="#b3bbbf"></stop><stop offset="1" stop-color="#e6ebed"></stop></linearGradient><linearGradient id="1770301555205-4897728_j" x1="852.38" x2="906.06" y1="100.84" y2="100.84" gradientTransform="scale(1 -1) rotate(-45 -100.228 774.147)" gradientUnits="userSpaceOnUse"><stop offset="0" stop-color="#e6ebed"></stop><stop offset=".5" stop-color="#b3bbbf"></stop><stop offset="1" stop-color="#e6ebed"></stop></linearGradient><linearGradient id="1770301555205-4897728_k" x1="825.22" x2="932.09" y1="127.48" y2="127.48" gradientTransform="scale(1 -1) rotate(-45 -100.228 774.147)" gradientUnits="userSpaceOnUse"><stop offset="0" stop-color="#e6ebed"></stop><stop offset=".5" stop-color="#b3bbbf"></stop><stop offset="1" stop-color="#e6ebed"></stop></linearGradient><linearGradient id="1770301555205-4897728_l" x1="849.66" x2="908.61" y1="125.58" y2="125.58" gradientTransform="scale(1 -1) rotate(-45 -100.228 774.147)" gradientUnits="userSpaceOnUse"><stop offset="0" stop-color="#e6ebed"></stop><stop offset=".5" stop-color="#b3bbbf"></stop><stop offset="1" stop-color="#e6ebed"></stop></linearGradient><linearGradient id="1770301555205-4897728_m" x1="604.86" x2="745.07" y1="835.67" y2="835.67" gradientTransform="scale(1 -1) rotate(-45 -1199.335 940.201)" gradientUnits="userSpaceOnUse"><stop offset=".24" stop-color="#e6ebed"></stop><stop offset="1" stop-color="#c6cfd4"></stop></linearGradient><linearGradient id="1770301555205-4897728_n" x1="817.78" x2="916.32" y1="310.77" y2="310.77" gradientTransform="scale(1 -1) rotate(-45 -99.066 757.855)" gradientUnits="userSpaceOnUse"><stop offset="0" stop-color="#87b5d4"></stop><stop offset=".06" stop-color="#98c3e1"></stop><stop offset=".17" stop-color="#acd5f2"></stop><stop offset=".27" stop-color="#b9dffc"></stop><stop offset=".37" stop-color="#bde3ff"></stop><stop offset="1" stop-color="#87b5d4"></stop></linearGradient><linearGradient id="1770301555205-4897728_p" x1="591.29" x2="758.06" y1="930.93" y2="930.93" gradientTransform="scale(1 -1) rotate(-45 -1199.335 940.201)" gradientUnits="userSpaceOnUse"><stop offset=".24" stop-color="#e6ebed"></stop><stop offset="1" stop-color="#c6cfd4"></stop></linearGradient><radialGradient id="1770301555205-4897728_o" cx="856.51" cy="266.07" r="38.55" fx="856.51" fy="266.07" gradientTransform="matrix(.7071 .7071 4.24264 -4.24264 -1554.97 838.14)" gradientUnits="userSpaceOnUse"><stop offset="0" stop-color="#5f727d"></stop><stop offset=".25" stop-color="#5b6d78"></stop><stop offset=".56" stop-color="#506069"></stop><stop offset=".89" stop-color="#3d4a50"></stop><stop offset="1" stop-color="#364147"></stop></radialGradient></defs><path d="M493.68 6.24 391.76 109.2l6.08 6.16L512 0z" fill="url(#1770301555205-4897728_b)"></path><path d="m394.32 100.48-3.92 4 12.48 12.72 4-4z" fill="url(#1770301555205-4897728_c)"></path><path d="m404.72 115.36-12.48-12.72-6.72-1.28-14.32 14.48 20.56 20.88 14.4-14.48z" fill="url(#1770301555205-4897728_d)"></path><path d="m397.92 130.56-20.64-20.88-10.8-2.08-40.64 41.2 33.68 33.68 40.4-40.96z" fill="url(#1770301555205-4897728_e)"></path><path d="m367.12 174.8-33.68-33.68s-10-5.76-13.84-8.48c-4.24-3.04-8.56 1.36-8.56 1.36l63.76 63.76s3.76-4.88.56-9.28c-2.72-3.76-8.24-13.68-8.24-13.68" fill="url(#1770301555205-4897728_f)"></path><path d="m397.36 103.52-12.96 13.04 6.16 6.16 12.88-13.04z" fill="url(#1770301555205-4897728_g)"></path><path d="m390.56 122.72-6.16-6.16-8.32 1.2-40.32 40.88 13.36 13.44 40.24-40.88z" fill="url(#1770301555205-4897728_h)"></path><path d="m174.47 335.85-35.2-35.45-56 56.65 35.04 35.36 34.48 34.64 55.93-56.72z" fill="url(#1770301555205-4897728_i)"></path><path d="M161.67 311.12 33.35 440.25l37.44 37.68 128.25-129.12z" fill="url(#1770301555205-4897728_j)"></path><path d="m150.87 359.69-37.92-38.25-31.76 31.93 37.92 38.24 37.28 37.52 31.77-31.92z" fill="url(#1770301555205-4897728_k)"></path><path d="m128.15 340.81-30.48 30.56 41.52 41.76 30.4-30.56z" fill="url(#1770301555205-4897728_l)"></path><path d="m54.39 461.45-4.64-4.72L177.99 327.6l4.72 4.73z" fill="#e6ebed"></path><path d="m.63 416.09 93.6 95.2c3.12 3.2 12.4-6.08 9.28-9.28l-93.6-95.2c-3.12-3.2-12.4 6.08-9.28 9.28" fill="url(#1770301555205-4897728_m)"></path><path d="M305.84 133.84 157.12 282.56l69.68 69.68 148.72-148.72c1.76-1.76 1.76-4.64 0-6.48l-63.28-63.28a4.47 4.47 0 0 0-6.4.08" fill="url(#1770301555205-4897728_n)"></path><path d="m164.87 274.72-25.6 25.68 69.45 69.93 25.6-25.6z" fill="url(#1770301555205-4897728_o)"></path><path d="m218.16 360.89-33.52-34.57-3.45 3.53 33.53 34.48zm10.72-10.64-22.4-23.05-3.44 3.53 22.32 22.96zm10.64-10.64-22.48-23.13-3.44 3.44 22.4 23.13zm10.64-10.72-22.56-23.21-3.44 3.52 22.56 23.21zm10.64-10.65-22.64-23.36-3.44 3.52 22.64 23.28zm10.72-10.64-34.08-35.12L234 276l34 35.04zm10.64-10.64-22.88-23.6-3.44 3.52 22.8 23.52zm10.64-10.72-22.96-23.6-3.44 3.44 22.96 23.68zm10.64-10.64-23.12-23.76-3.36 3.52L300 279.04zm10.72-10.64-23.2-23.92-3.44 3.52 23.12 23.84zm10.64-10.72-34.64-35.6-3.36 3.52 34.56 35.6zm10.64-10.64L312 219.52l-3.36 3.52 23.36 24zm10.64-10.64-23.52-24.16-3.36 3.44 23.44 24.16zm10.72-10.64L333.12 198l-3.36 3.52 23.52 24.24zm10.64-10.72-23.76-24.4-3.44 3.52 23.76 24.4z" fill="#1a1626"></path><path d="m58.39 339.13 112.32 114.08c3.12 3.2 12.4-6.16 9.28-9.28L67.75 329.77c-3.2-3.2-12.4 6.16-9.36 9.36" fill="url(#1770301555205-4897728_p)"></path></g></svg>
