<svg xmlns="http://www.w3.org/2000/svg" data-name="Layer 1" style="" viewBox="0 0 512 571.07"><g><defs><linearGradient id="1770301555210-5020577_b" x1="142.65" x2="512" y1="66.34" y2="66.34" gradientTransform="matrix(1 0 0 -1 0 573.07)" gradientUnits="userSpaceOnUse"><stop offset=".28" stop-color="#de000d"></stop><stop offset=".46" stop-color="#d8000c"></stop><stop offset=".7" stop-color="#c80008"></stop><stop offset=".96" stop-color="#ac0001"></stop><stop offset="1" stop-color="#a80000"></stop></linearGradient><linearGradient id="1770301555210-5020577_c" x1="250.32" x2="492.06" y1="130.96" y2="130.96" gradientTransform="matrix(1 0 0 -1 0 573.07)" gradientUnits="userSpaceOnUse"><stop offset=".22" stop-color="#a80000"></stop><stop offset=".26" stop-color="#ac0001"></stop><stop offset=".55" stop-color="#c80008"></stop><stop offset=".81" stop-color="#d8000c"></stop><stop offset="1" stop-color="#de000d"></stop></linearGradient><linearGradient id="1770301555210-5020577_d" x1="0" x2="317.78" y1="100.41" y2="100.41" gradientTransform="matrix(1 0 0 -1 0 573.07)" gradientUnits="userSpaceOnUse"><stop offset="0" stop-color="#bd8359"></stop><stop offset=".32" stop-color="#b77d53"></stop><stop offset=".76" stop-color="#a56b41"></stop><stop offset="1" stop-color="#995f34"></stop></linearGradient><linearGradient id="1770301555210-5020577_e" x1="0" x2="317.78" y1="135.73" y2="135.73" gradientTransform="matrix(1 0 0 -1 0 573.07)" gradientUnits="userSpaceOnUse"><stop offset="0" stop-color="#cc946c"></stop><stop offset=".26" stop-color="#c78f66"></stop><stop offset=".62" stop-color="#bb7f54"></stop><stop offset="1" stop-color="#a86939"></stop></linearGradient><linearGradient id="1770301555210-5020577_f" x1="33.47" x2="284.34" y1="322.53" y2="322.53" gradientTransform="matrix(1 0 0 -1 0 573.07)" gradientUnits="userSpaceOnUse"><stop offset="0" stop-color="#ff000e"></stop><stop offset=".21" stop-color="#f9000c"></stop><stop offset=".49" stop-color="#e90007"></stop><stop offset=".78" stop-color="#cf0000"></stop></linearGradient><linearGradient id="1770301555210-5020577_g" x1="33.47" x2="284.35" y1="322.27" y2="322.27" gradientTransform="matrix(1 0 0 -1 0 573.07)" gradientUnits="userSpaceOnUse"><stop offset="0" stop-color="#de000d"></stop><stop offset=".23" stop-color="#d8000b"></stop><stop offset=".54" stop-color="#c80006"></stop><stop offset=".78" stop-color="#b50000"></stop></linearGradient><linearGradient id="1770301555210-5020577_h" x1="33.47" x2="284.35" y1="254.16" y2="254.16" gradientTransform="matrix(1 0 0 -1 0 573.07)" gradientUnits="userSpaceOnUse"><stop offset="0" stop-color="#de000d"></stop><stop offset=".19" stop-color="#d8000c"></stop><stop offset=".45" stop-color="#c80008"></stop><stop offset=".74" stop-color="#ac0001"></stop><stop offset=".78" stop-color="#a80000"></stop></linearGradient><linearGradient id="1770301555210-5020577_i" x1="33.47" x2="284.35" y1="401.57" y2="401.57" gradientTransform="matrix(1 0 0 -1 0 573.07)" gradientUnits="userSpaceOnUse"><stop offset="0" stop-color="#de000d"></stop><stop offset=".23" stop-color="#d8000b"></stop><stop offset=".54" stop-color="#c80006"></stop><stop offset=".78" stop-color="#b50000"></stop></linearGradient><linearGradient id="1770301555210-5020577_j" x1="33.47" x2="284.35" y1="366.13" y2="366.13" gradientTransform="matrix(1 0 0 -1 0 573.07)" gradientUnits="userSpaceOnUse"><stop offset="0" stop-color="#de000d"></stop><stop offset=".19" stop-color="#d8000c"></stop><stop offset=".45" stop-color="#c80008"></stop><stop offset=".74" stop-color="#ac0001"></stop><stop offset=".78" stop-color="#a80000"></stop></linearGradient><linearGradient id="1770301555210-5020577_k" x1="33.47" x2="284.35" y1="445.95" y2="445.95" gradientTransform="matrix(1 0 0 -1 0 573.07)" gradientUnits="userSpaceOnUse"><stop offset="0" stop-color="#de000d"></stop><stop offset=".19" stop-color="#d8000c"></stop><stop offset=".45" stop-color="#c80008"></stop><stop offset=".74" stop-color="#ac0001"></stop><stop offset=".78" stop-color="#a80000"></stop></linearGradient><linearGradient id="1770301555210-5020577_l" x1="33.47" x2="284.35" y1="299.53" y2="299.53" gradientTransform="matrix(1 0 0 -1 0 573.07)" gradientUnits="userSpaceOnUse"><stop offset="0" stop-color="#de000d"></stop><stop offset=".23" stop-color="#d8000b"></stop><stop offset=".54" stop-color="#c80006"></stop><stop offset=".78" stop-color="#b50000"></stop></linearGradient><linearGradient id="1770301555210-5020577_m" x1="33.47" x2="284.35" y1="242.72" y2="242.72" gradientTransform="matrix(1 0 0 -1 0 573.07)" gradientUnits="userSpaceOnUse"><stop offset="0" stop-color="#de000d"></stop><stop offset=".23" stop-color="#d8000b"></stop><stop offset=".54" stop-color="#c80006"></stop><stop offset=".78" stop-color="#b50000"></stop></linearGradient><linearGradient id="1770301555210-5020577_n" x1="33.47" x2="284.35" y1="200.47" y2="200.47" gradientTransform="matrix(1 0 0 -1 0 573.07)" gradientUnits="userSpaceOnUse"><stop offset="0" stop-color="#de000d"></stop><stop offset=".19" stop-color="#d8000c"></stop><stop offset=".45" stop-color="#c80008"></stop><stop offset=".74" stop-color="#ac0001"></stop><stop offset=".78" stop-color="#a80000"></stop></linearGradient><linearGradient id="1770301555210-5020577_o" x1="0" x2="317.78" y1="493.38" y2="493.38" gradientTransform="matrix(1 0 0 -1 0 573.07)" gradientUnits="userSpaceOnUse"><stop offset="0" stop-color="#bd8359"></stop><stop offset=".32" stop-color="#b77d53"></stop><stop offset=".76" stop-color="#a56b41"></stop><stop offset="1" stop-color="#995f34"></stop></linearGradient><linearGradient id="1770301555210-5020577_p" x1="0" x2="317.78" y1="505.64" y2="505.64" gradientTransform="matrix(1 0 0 -1 0 573.07)" gradientUnits="userSpaceOnUse"><stop offset="0" stop-color="#cc946c"></stop><stop offset=".26" stop-color="#c78f66"></stop><stop offset=".62" stop-color="#bb7f54"></stop><stop offset="1" stop-color="#a86939"></stop></linearGradient></defs><path d="M482.82 468.93c-41.01-25.78-115.9-37.51-147.39-13.36-17.63 13.53-17.82 25.82-14.86 33.74 8.25 22.19 47.24 28.58 85.19 25.35l6.42-12.33c-38.62 4.15-79.5-1.77-79.5-18.4 0-40.3 93.1-35.73 141.14-7.62 34.64 20.27 37.06 49.83-12.31 71.66-35.24 15.58-78.99 10.53-124.64 2.34-53.82-9.62-114.78-20.52-186.04 2.24-14.02 4.5-8.6 15.54 5.37 11.08 67.08-21.47 125.77-10.95 177.57-1.67 25.9 4.63 50.99 9.12 75.06 9.12 19.2 0 37.76-2.86 55.58-10.74 30.82-13.63 46.35-29.32 47.52-47.96.68-11.04-3.82-27.57-29.11-43.44Z" fill="url(#1770301555210-5020577_b)"></path><path d="M489.64 445.41c-8.4-18.38-36.72-25.13-70.51-33.46-33.16-8.17-111.44-18.28-138.24-42.38v16.94c28.92 20.2 103.33 29.28 134.05 36.84 46.38 11.43 62.02 15.68 65.43 29.59 5.68 23.26-34.07 45.88-66.48 49.21-2.17.22-6.02.63-8.1.78v11.73c63.25-4.7 95.77-43.02 83.85-69.25" fill="url(#1770301555210-5020577_c)"></path><path d="M0 431.35v40.09c0 56.47 318.02 56.77 317.78.52v-40.62H0Z" fill="url(#1770301555210-5020577_d)"></path><path d="M20.5 404.31S0 416.8 0 431.34c0 52.05 317.78 52.05 317.78 0 0-12.58-20.51-27.03-20.51-27.03z" fill="url(#1770301555210-5020577_e)"></path><path d="M300.14 409.23c.1 29.48-282.47 29.48-282.47 0 0-29.72 282.42-29.48 282.47 0" class="af" fill="#a16437"></path><path d="M33.47 78.27v321.91c.15 29.94 251.01 30.3 250.88.32V78.27z" fill="url(#1770301555210-5020577_f)"></path><path d="M33.47 221.25v22.86c.15 48.01 251.05 48.46 250.88.42v-22.86c.16 40.02-250.77 39.59-250.88-.42" fill="url(#1770301555210-5020577_g)"></path><path d="M33.47 289.36v22.86c.15 48.04 251.05 48.46 250.88.43v-22.86c.16 40.01-250.77 39.59-250.88-.43" fill="url(#1770301555210-5020577_h)"></path><path d="M33.47 136.88v26.79c.15 56.25 251.05 56.78 250.88.5v-26.78c.16 46.9-250.77 46.37-250.88-.51" fill="url(#1770301555210-5020577_i)"></path><path d="M33.47 171.11v25.15c.15 39.3 251.05 66.68 250.88 27.4v-22.33c.16 32.76-250.77 2.51-250.88-30.22" fill="url(#1770301555210-5020577_j)"></path><path d="M33.47 91.3v25.16c.15 39.3 251.05 66.67 250.88 27.39v-22.31c.16 32.75-250.77 2.5-250.88-30.24" fill="url(#1770301555210-5020577_k)"></path><path d="M33.47 229.76v30.75c.15 48.02 251.05 81.49 250.88 33.48v-27.27c.16 40.02-250.77 3.05-250.88-36.95Z" fill="url(#1770301555210-5020577_l)"></path><path d="M33.47 286.56v30.75c.15 48.02 251.05 81.51 250.88 33.48v-27.24c.16 40-250.77 3.05-250.88-36.98Z" fill="url(#1770301555210-5020577_m)"></path><path d="M33.47 328.82v30.74c.15 48.02 251.05 81.5 250.88 33.48v-27.27c.16 40.02-250.77 3.06-250.88-36.94Z" fill="url(#1770301555210-5020577_n)"></path><path d="M317.78 64.85C317.78 12.83 0 12.83 0 64.85c0 12.38 22.02 44.7 22.02 44.7s26.95 23.99 137.16 23.99 136.55-23.95 136.55-23.95 22.07-30.26 22.07-44.74Z" fill="url(#1770301555210-5020577_o)"></path><path d="M0 32.97v28.84c.21 53.13 318.02 53.59 317.78.48V33.45z" fill="url(#1770301555210-5020577_p)"></path><path d="M317.78 33.46C317.98 77.71.15 77.24 0 32.96c-.17-44.27 317.64-43.8 317.78.49Z" class="af" fill="#a16437"></path><path d="M211.86 30.54c.08 14.74-105.89 14.59-105.9-.17-.06-14.74 105.87-14.59 105.9.17" fill="#1a1626"></path></g></svg>
