<svg xmlns="http://www.w3.org/2000/svg" data-name="Layer 1" style="" viewBox="0 0 512 358.4"><g><defs><linearGradient id="1770301555211-5359830_b" x1="256" x2="256" y1="232.4" y2="317.73" gradientTransform="matrix(1 0 0 -1 0 360.4)" gradientUnits="userSpaceOnUse"><stop offset=".05" stop-color="#cf0000"></stop><stop offset=".05" stop-color="#d00000"></stop><stop offset=".09" stop-color="#e10000"></stop><stop offset=".14" stop-color="#ec0000"></stop><stop offset=".21" stop-color="#f30000"></stop><stop offset=".41" stop-color="#f50000"></stop><stop offset=".5" stop-color="#ff7259"></stop><stop offset=".6" stop-color="#f3594b"></stop></linearGradient><linearGradient id="1770301555211-5359830_c" x1="256" x2="256" y1="293.14" y2="360.4" gradientTransform="matrix(1 0 0 -1 0 360.4)" gradientUnits="userSpaceOnUse"><stop offset=".7" stop-color="#302c3b"></stop><stop offset="1" stop-color="#4e585e"></stop></linearGradient></defs><path d="M512 341.33c0 9.42-7.64 17.07-17.07 17.07H17.07C7.65 358.4 0 350.75 0 341.33V119.47c268.07-16.55 512 0 512 0v221.87Z" class="h" fill="#f50000"></path><path d="M456.76 45.35c-2.89-1.72-6.42-2.68-9.97-2.68H65.2c-3.55 0-7.07.96-9.97 2.68C0 78.23 0 78.58 0 92.44V128h512V92.44c0-13.86 0-14.22-55.24-47.1Z" fill="url(#1770301555211-5359830_b)"></path><path d="M494.93 320c0 11.73-9.6 21.33-21.33 21.33H38.4c-11.73 0-21.33-9.6-21.33-21.33V179.2h477.87V320Z" fill="#c40000"></path><path d="M490.67 236.8c0 10.61-7.78 19.2-17.38 19.2H38.72c-9.6 0-17.38-8.59-17.38-19.2v-53.33h469.33zm0 81.07c0 10.6-7.78 19.2-17.38 19.2H38.72c-9.6 0-17.38-8.6-17.38-19.2v-57.6h469.33z" class="h" fill="#f50000"></path><path d="M98.13 128H89.6a4.28 4.28 0 0 1-4.27-4.27v-17.07a4.28 4.28 0 0 1 4.27-4.27h8.53a4.28 4.28 0 0 1 4.27 4.27v17.07a4.28 4.28 0 0 1-4.27 4.27M64 128h-8.53a4.28 4.28 0 0 1-4.27-4.27v-17.07a4.28 4.28 0 0 1 4.27-4.27H64a4.28 4.28 0 0 1 4.27 4.27v17.07A4.28 4.28 0 0 1 64 128" class="j" fill="#e6ebef"></path><path d="m102.4 145.07-4.27 4.27-3.3 9.88a4.245 4.245 0 0 1-4.04 2.92H62.8c-1.83 0-3.46-1.17-4.04-2.92l-3.29-9.88-4.27-4.27v-12.8a4.28 4.28 0 0 1 4.27-4.27h42.67a4.28 4.28 0 0 1 4.27 4.27v12.8Z" class="f" fill="#b3c2c6"></path><path d="M81.07 132.27h-8.53a4.28 4.28 0 0 1-4.27-4.27v-17.07a4.28 4.28 0 0 1 4.27-4.27h8.53a4.28 4.28 0 0 1 4.27 4.27V128a4.28 4.28 0 0 1-4.27 4.27" class="g" fill="#cfd8dd"></path><path d="M64 149.33c-2.36 0-4.27-1.9-4.27-4.27v-25.6c0-2.35 1.9-4.27 4.27-4.27s4.27 1.92 4.27 4.27v25.6c0 2.36-1.92 4.27-4.27 4.27m25.6 0c-2.36 0-4.27-1.9-4.27-4.27v-25.6c0-2.35 1.9-4.27 4.27-4.27s4.27 1.92 4.27 4.27v25.6c0 2.36-1.92 4.27-4.27 4.27" class="k" fill="#f2f5f7"></path><path d="M456.53 128H448a4.28 4.28 0 0 1-4.27-4.27v-17.07a4.28 4.28 0 0 1 4.27-4.27h8.53a4.28 4.28 0 0 1 4.27 4.27v17.07a4.28 4.28 0 0 1-4.27 4.27m-34.13 0h-8.53a4.28 4.28 0 0 1-4.27-4.27v-17.07a4.28 4.28 0 0 1 4.27-4.27h8.53a4.28 4.28 0 0 1 4.27 4.27v17.07a4.28 4.28 0 0 1-4.27 4.27" class="j" fill="#e6ebef"></path><path d="m460.8 145.07-4.27 4.27-3.3 9.88a4.245 4.245 0 0 1-4.04 2.92h-27.98c-1.83 0-3.46-1.17-4.04-2.92l-3.3-9.88-4.27-4.27v-12.8a4.28 4.28 0 0 1 4.27-4.27h42.67a4.28 4.28 0 0 1 4.27 4.27v12.8Z" class="f" fill="#b3c2c6"></path><path d="M439.47 132.27h-8.53a4.28 4.28 0 0 1-4.27-4.27v-17.07a4.28 4.28 0 0 1 4.27-4.27h8.53a4.28 4.28 0 0 1 4.27 4.27V128a4.28 4.28 0 0 1-4.27 4.27" class="g" fill="#cfd8dd"></path><path d="M422.4 149.33c-2.36 0-4.27-1.9-4.27-4.27v-25.6c0-2.35 1.9-4.27 4.27-4.27s4.27 1.92 4.27 4.27v25.6c0 2.36-1.92 4.27-4.27 4.27m25.6 0c-2.36 0-4.27-1.9-4.27-4.27v-25.6c0-2.35 1.9-4.27 4.27-4.27s4.27 1.92 4.27 4.27v25.6c0 2.36-1.92 4.27-4.27 4.27" class="k" fill="#f2f5f7"></path><path d="M256 0c-68.85 0-84.13 12.32-91.3 59.98-1.1 7.28 7.25 7.28 18.43 7.28C184.15 10.12 220.9 25.8 256 25.8s71.87-15.68 72.87 41.46c11.2 0 19.53 0 18.43-7.28C340.13 12.32 324.85 0 256 0" fill="url(#1770301555211-5359830_c)"></path><path d="M295.7 67.26h33.17c1.59 0-.21-14.86-1.3-14.86h-16.93c-7.48 0-14.94 7.92-14.94 14.86m-79.4 0h-33.17c-1.59 0 .21-14.86 1.31-14.86h16.93c7.46 0 14.92 7.92 14.92 14.86Z" class="f" fill="#b3c2c6"></path><path d="M490.67 279.47H21.33v-19.2h469.33v19.2Zm0-76.8H21.33v-19.2h469.33v19.2Z" class="g" fill="#cfd8dd"></path></g></svg>
