<svg xmlns="http://www.w3.org/2000/svg" data-name="Layer 1" style="" viewBox="0 0 512 512.01"><g><defs><linearGradient id="1770301555216-9392568_b" x1="272.16" x2="272.16" y1="337.79" y2="355.8" gradientTransform="matrix(1 0 0 -1 0 512.01)" gradientUnits="userSpaceOnUse"><stop offset="0" stop-color="#005687"></stop><stop offset=".26" stop-color="#066093"></stop><stop offset=".74" stop-color="#1779b3"></stop><stop offset="1" stop-color="#2289c7"></stop></linearGradient><linearGradient id="1770301555216-9392568_c" x1="34.39" x2="34.39" y1="56.18" y2="79.35" gradientTransform="matrix(1 0 0 -1 0 512.01)" gradientUnits="userSpaceOnUse"><stop offset="0" stop-color="#005687"></stop><stop offset=".26" stop-color="#066093"></stop><stop offset=".74" stop-color="#1779b3"></stop><stop offset="1" stop-color="#2289c7"></stop></linearGradient><linearGradient id="1770301555216-9392568_d" x1="366.93" x2="366.93" y1="0" y2="290.15" gradientTransform="matrix(1 0 0 -1 0 512.01)" gradientUnits="userSpaceOnUse"><stop offset="0" stop-color="#23212b"></stop><stop offset=".31" stop-color="#32333c"></stop><stop offset=".94" stop-color="#576169"></stop><stop offset="1" stop-color="#5b666e"></stop></linearGradient></defs><path d="M395.46 28.83c-20.23 89.01-28.51 116.94-20.07 195.87 36.67-57.48 20.07-195.87 20.07-195.87" fill="#013366"></path><path d="M166.4 226.13h204.8v59.74H166.4z" class="o" fill="#014d86"></path><path d="M358.41 426.67V196.26c0-4.71-3.83-8.54-8.54-8.54H187.73c-4.7 0-8.54 3.83-8.54 8.54v93.87c0 11.29-17.06 11.26-17.06 0v-93.87c0-14.12 11.48-25.6 25.6-25.6h162.14c14.12 0 25.59 11.48 25.59 25.6v230.41c0 11.28-17.05 11.26-17.05 0" class="h" fill="#b3c2c6"></path><path d="M345.59 162.21c-38.14-3.5-139.44-7.99-153.08-5.06-10.9 2.34-15.43 17.06-8.54 17.06h174.7c12.58 0-1.48-10.93-13.08-12.01Z" fill="url(#1770301555216-9392568_b)"></path><path d="M63.98 438.12s-39.86-7.1-50.39-5.11c-4.65.88-8.79 13.16-8.79 13.16l54.7 9.66z" fill="url(#1770301555216-9392568_c)"></path><path d="M51.71 452.49 81.96 333.7c3.36-10.74 13.19-17.96 24.43-17.96h30.14v17.06h-30.12c-3.75 0-7.04 2.4-8.15 5.99l-30.27 118.8-16.29-5.1Z" class="j" fill="#98a7ad"></path><path d="M136.54 371.2H76.8v-8.53h59.74z" class="j" fill="#98a7ad"></path><path d="M375.46 235.37V179.2c0-9.68 2.09-22.22 5.31-35.91h-17.42c-3 13.5-4.95 25.94-4.95 35.91v56.17zM384 435.2h-68.26c-23.95 0-44.97-9.82-67.21-20.21-23.63-11.04-48.08-22.46-77.85-22.46h-34.14c-11.28 0-11.28-12.8 0-12.8h34.14c33.56 0 60.93 12.78 85.06 24.06 20.49 9.56 39.85 18.61 60 18.61H384c11.29 0 11.26 12.8 0 12.8" class="l" fill="#79858a"></path><path d="m134.964 490.503 48.257-48.29 6.041 6.036-48.257 48.291z" class="n" fill="#4e5e67"></path><path d="m135.018 448.202 6.036-6.028 48.226 48.294-6.036 6.027z" class="n" fill="#4e5e67"></path><path d="M128.01 465.07h68.25v8.54h-68.25z" class="n" fill="#4e5e67"></path><path d="M157.88 435.2h8.5v68.26h-8.5z" class="n" fill="#4e5e67"></path><path d="M161.63 512c-23.53-.28-42.44-19.64-42.17-43.18.28-23.53 19.65-42.45 43.17-42.15 23.53.27 42.44 19.65 42.17 43.18-.28 23.52-19.65 42.43-43.17 42.15m.89-74.67c-17.66-.2-32.17 13.97-32.38 31.63-.2 17.66 13.97 32.17 31.62 32.37 17.66.21 32.18-13.97 32.38-31.62.2-17.66-13.97-32.17-31.62-32.38" class="i" fill="#1a1626"></path><path d="M128 401.07V307.2c0-14.12 11.48-25.59 25.6-25.59h213.34c11.28 0 11.26 17.07 0 17.07H153.6c-4.7 0-8.54 3.82-8.54 8.53v93.87H128Z" class="h" fill="#b3c2c6"></path><path d="M72.17 455.66 3.35 442.67 0 461.32l67.68 12.04z" class="i" fill="#1a1626"></path><path d="m440.66 7.3-38.36.9c-12.08.25-22.11 8.72-24.49 20.55-3.35 16.66 14.2 15.85 16.73 3.35a8.545 8.545 0 0 1 8.17-6.85l38.35-.9c11.28-.27 10.85-17.31-.41-17.05Z" class="l" fill="#79858a"></path><path d="M477.33.01 401.95 5.9c-2.38.19-4.16 2.28-3.95 4.66L399.37 26c.34 3.82 7.84 6.12 11.08 5.86 5.23-.41 4.97-3.5 10.2-3.92 5.24-.41 5.52 2.7 10.76 2.29 5.25-.41 4.97-3.5 10.22-3.92 5.24-.41 5.53 2.7 10.76 2.27 5.24-.41 4.97-3.5 10.22-3.91s5.53 2.69 10.81 2.28c3.32-.26 10.26-3.69 9.93-7.57l-1.36-15.42c-.21-2.34-2.31-4.1-4.68-3.94Z" class="i" fill="#1a1626"></path><path d="M355.85 168.35c-.04-23.14 15.1-127.05 17.79-140.45 1.67-8.31 26.75-3.26 25.11 5.03-2.62 13.02-17.34 113.39-17.29 135.37 0 8.58-25.58 8.48-25.6.04Z" class="o" fill="#014d86"></path><path d="M396.84 422.4H384v12.8h12.84c5.64 0 5.65-12.8 0-12.8" class="i" fill="#1a1626"></path><path d="m48.42 474.79 6.38-25.33 12.93 2.29-6.4 25.33z" fill="#ced7dc"></path><path d="M166.94 460.38c-19.1-12.54-29.69-26.45-29.69-44.26v-24.5l-18.45-.02v27.52c0 23.46 12.34 39.47 38.06 57.94 11.76 8.47 22.62-8.46 10.07-16.68Z" class="l" fill="#79858a"></path><path d="M162.06 475.74c-3.52-.04-6.36-2.95-6.33-6.47.05-3.52 2.95-6.36 6.47-6.33 3.52.04 6.36 2.95 6.33 6.48-.04 3.51-2.95 6.36-6.47 6.32" class="i" fill="#1a1626"></path><path d="m265.14 461.311 196.048-196.254 7.542 7.534-196.05 196.254z" class="n" fill="#4e5e67"></path><path d="m265.097 272.633 7.538-7.538 196.151 196.152-7.538 7.538z" class="n" fill="#4e5e67"></path><path d="M228.24 361.61h277.4v10.66h-277.4z" class="n" fill="#4e5e67"></path><path d="M361.6 228.23h10.67v277.41H361.6z" class="n" fill="#4e5e67"></path><path d="M366.94 512c-80 0-145.07-65.07-145.07-145.07s65.07-145.07 145.07-145.07c79.99 0 145.06 65.09 145.06 145.07S446.92 512 366.94 512m0-268.8c-68.24 0-123.75 55.51-123.75 123.74s55.5 123.75 123.75 123.75 123.73-55.51 123.73-123.75-55.5-123.74-123.73-123.74" fill="url(#1770301555216-9392568_d)"></path><path d="M366.94 494.93c-70.59 0-128-57.41-128-128s57.41-128 128-128 128 57.42 128 128-57.42 128-128 128m0-247.46c-65.88 0-119.47 53.59-119.47 119.46s53.59 119.46 119.47 119.46S486.4 432.81 486.4 366.93c0-65.87-53.59-119.46-119.46-119.46" class="i" fill="#1a1626"></path><path d="M366.94 477.87c-61.18 0-110.94-49.76-110.94-110.94S305.77 256 366.94 256s110.93 49.76 110.93 110.93-49.75 110.94-110.93 110.94m0-209.07c-54.12 0-98.14 44.01-98.14 98.13s44.01 98.14 98.14 98.14 98.12-44.01 98.12-98.14c0-54.1-44.01-98.13-98.12-98.13" class="j" fill="#98a7ad"></path><circle cx="366.94" cy="366.94" r="34.14" fill="#3b484f"></circle><circle cx="366.94" cy="366.93" r="25.6" class="j" fill="#98a7ad"></circle><circle cx="366.94" cy="366.94" r="12.8" class="n" fill="#4e5e67"></circle><path d="M117.48 366.29v46.95c0 3.15 21.05 3.28 21.05 0v-46.95c0-3.16-21.05-3.18-21.05 0" class="o" fill="#014d86"></path></g></svg>
