<svg xmlns="http://www.w3.org/2000/svg" data-name="Layer 1" style="" viewBox="0 0 512 606.81"><g><defs><linearGradient id="1770301555135-7793613_c" x1="-204.34" x2="-204.34" y1="1134.32" y2="1246.27" gradientTransform="translate(564 -724)" gradientUnits="userSpaceOnUse"><stop offset="0" stop-color="#f9b700"></stop><stop offset=".43" stop-color="#f7aa01"></stop><stop offset=".73" stop-color="#f59e01"></stop><stop offset=".79" stop-color="#ef9903"></stop><stop offset=".88" stop-color="#e08b0a"></stop><stop offset=".97" stop-color="#c67415"></stop><stop offset=".99" stop-color="#c17017"></stop></linearGradient><linearGradient id="1770301555135-7793613_d" x1="-163.41" x2="-163.41" y1="1019.23" y2="1156.39" gradientTransform="translate(564 -724)" gradientUnits="userSpaceOnUse"><stop offset=".23" stop-color="#f9b700"></stop><stop offset=".39" stop-color="#f7aa01"></stop><stop offset=".51" stop-color="#f59e01"></stop><stop offset=".63" stop-color="#ef9903"></stop><stop offset=".79" stop-color="#e08b0a"></stop><stop offset=".96" stop-color="#c67415"></stop><stop offset=".99" stop-color="#c17017"></stop></linearGradient><linearGradient id="1770301555135-7793613_f" x1="-411.64" x2="-411.64" y1="1134.32" y2="1246.27" gradientTransform="translate(564 -724)" gradientUnits="userSpaceOnUse"><stop offset="0" stop-color="#f9b700"></stop><stop offset=".43" stop-color="#f7aa01"></stop><stop offset=".73" stop-color="#f59e01"></stop><stop offset=".79" stop-color="#ef9903"></stop><stop offset=".88" stop-color="#e08b0a"></stop><stop offset=".97" stop-color="#c67415"></stop><stop offset=".99" stop-color="#c17017"></stop></linearGradient><linearGradient id="1770301555135-7793613_g" x1="-452.6" x2="-452.6" y1="1019.23" y2="1156.39" gradientTransform="translate(564 -724)" gradientUnits="userSpaceOnUse"><stop offset=".23" stop-color="#f9b700"></stop><stop offset=".46" stop-color="#f7aa01"></stop><stop offset=".62" stop-color="#f59e01"></stop><stop offset=".72" stop-color="#ef9903"></stop><stop offset=".83" stop-color="#e08b0a"></stop><stop offset=".97" stop-color="#c67415"></stop><stop offset=".99" stop-color="#c17017"></stop></linearGradient><linearGradient id="1770301555135-7793613_i" x1="296.9" x2="296.9" y1="140.96" y2="608.81" gradientTransform="matrix(1 0 0 -1 0 608.81)" gradientUnits="userSpaceOnUse"><stop offset=".01" stop-color="#c17017"></stop><stop offset=".68" stop-color="#f9b700"></stop></linearGradient><linearGradient id="1770301555135-7793613_k" x1="-275.73" x2="-275.73" y1="1189.75" y2="1330.81" gradientTransform="translate(564 -724)" gradientUnits="userSpaceOnUse"><stop offset=".23" stop-color="#f9b700"></stop><stop offset=".52" stop-color="#f7aa01"></stop><stop offset=".73" stop-color="#f59e01"></stop><stop offset=".79" stop-color="#ef9903"></stop><stop offset=".88" stop-color="#e08b0a"></stop><stop offset=".97" stop-color="#c67415"></stop><stop offset=".99" stop-color="#c17017"></stop></linearGradient><linearGradient id="1770301555135-7793613_m" x1="-274.61" x2="-274.61" y1="1114.46" y2="1133.42" gradientTransform="translate(564 -724)" gradientUnits="userSpaceOnUse"><stop offset=".23" stop-color="#f9b700"></stop><stop offset=".65" stop-color="#f7aa01"></stop><stop offset=".93" stop-color="#f59e01"></stop></linearGradient><linearGradient id="1770301555135-7793613_n" x1="-284.22" x2="-284.22" y1="1133.42" y2="1142.9" gradientTransform="translate(564 -724)" gradientUnits="userSpaceOnUse"><stop offset=".23" stop-color="#f9b700"></stop><stop offset=".65" stop-color="#f7aa01"></stop><stop offset=".93" stop-color="#f59e01"></stop></linearGradient><linearGradient id="1770301555135-7793613_o" x1="-284.22" x2="-284.22" y1="1104.98" y2="1114.46" gradientTransform="translate(564 -724)" gradientUnits="userSpaceOnUse"><stop offset=".23" stop-color="#f9b700"></stop><stop offset=".65" stop-color="#f7aa01"></stop><stop offset=".93" stop-color="#f59e01"></stop></linearGradient><radialGradient id="1770301555135-7793613_b" cx="19.87" cy="174.53" r="115.51" fx="19.87" fy="174.53" gradientTransform="matrix(.85943 .76412 -1.5921 1.66209 661.19 84.2)" gradientUnits="userSpaceOnUse"><stop offset="0" stop-color="#f59e01"></stop><stop offset=".16" stop-color="#f7aa01"></stop><stop offset=".4" stop-color="#f9b700"></stop><stop offset=".55" stop-color="#fbc50f"></stop><stop offset=".82" stop-color="#feda24"></stop><stop offset=".99" stop-color="#ffe12c"></stop></radialGradient><radialGradient id="1770301555135-7793613_e" cx="-1013.35" cy="777.17" r="106.59" fx="-1013.35" fy="777.17" gradientTransform="matrix(.85943 -.76412 1.5921 1.66209 -251.39 -1677.53)" gradientUnits="userSpaceOnUse"><stop offset="0" stop-color="#f59e01"></stop><stop offset=".16" stop-color="#f7aa01"></stop><stop offset=".4" stop-color="#f9b700"></stop><stop offset=".55" stop-color="#fbc50f"></stop><stop offset=".82" stop-color="#feda24"></stop><stop offset=".99" stop-color="#ffe12c"></stop></radialGradient><radialGradient id="1770301555135-7793613_h" cx="222.44" cy="374.88" r="284.38" fx="222.44" fy="374.88" gradientTransform="matrix(1 0 0 -1 0 608.81)" gradientUnits="userSpaceOnUse"><stop offset=".01" stop-color="#ffe12c"></stop><stop offset=".22" stop-color="#feda24"></stop><stop offset=".55" stop-color="#fbc50f"></stop><stop offset=".73" stop-color="#f9b700"></stop><stop offset=".89" stop-color="#f7aa01"></stop><stop offset="1" stop-color="#f59e01"></stop></radialGradient><radialGradient id="1770301555135-7793613_j" cx="-337.33" cy="1260.28" r="55.72" fx="-337.33" fy="1260.28" gradientTransform="translate(564 -724)" gradientUnits="userSpaceOnUse"><stop offset=".01" stop-color="#ffe12c"></stop><stop offset=".22" stop-color="#feda24"></stop><stop offset=".55" stop-color="#fbc50f"></stop><stop offset=".73" stop-color="#f9b700"></stop><stop offset=".89" stop-color="#f7aa01"></stop><stop offset="1" stop-color="#f59e01"></stop></radialGradient><radialGradient id="1770301555135-7793613_l" cx="-482.07" cy="1611.5" r="201.63" fx="-482.07" fy="1611.5" gradientTransform="matrix(.82957 -.02665 .06753 .92831 546.5 -1173.58)" gradientUnits="userSpaceOnUse"><stop offset=".01" stop-color="#ffe12c"></stop><stop offset=".18" stop-color="#feda24"></stop><stop offset=".45" stop-color="#fbc50f"></stop><stop offset=".6" stop-color="#f9b700"></stop><stop offset=".84" stop-color="#f7aa01"></stop><stop offset="1" stop-color="#f59e01"></stop></radialGradient></defs><path d="M363.34 272.15c-106.94 57.37-85.01 216.6-13.46 243.12 102.47 38.02 98.89-122.63 32.36-105.4 42.24 70.75-76.4 83.45-55.74-22.97 17.6-90.69 160.01-80.32 126.68 45.49 116.02-21.58 46.89-233.54-89.84-160.23Z" fill="url(#1770301555135-7793613_b)"></path><path d="M289.64 410.32c2.46 48.32 25.5 93.37 60.07 106.18 74.21 27.52 92.74-50.4 72.07-88.24 15.82 84.69-100.18 118.82-132.14-17.94" fill="url(#1770301555135-7793613_c)"></path><path d="M364.89 307.13c-34.45 18.24-42.57 61.3-38.41 79.77 17.14-88.25 159.38-77.97 126.68 45.49 53.48-53.32 6.85-175.59-88.27-125.26" fill="url(#1770301555135-7793613_d)"></path><path d="M394.07 444.42c-.91-5.4.51 19.59-25.52 23.89-7.41 1.2 30.53 7.31 25.52-23.89" class="ad" fill="#ffe463"></path><path d="M148.67 272.15c106.94 57.36 84.99 216.6 13.44 243.13-102.46 38-98.87-122.64-32.36-105.41-42.24 70.76 76.41 83.46 55.75-22.97-17.6-90.68-160-80.31-126.71 45.49-115.99-21.58-46.85-233.54 89.87-160.23Z" fill="url(#1770301555135-7793613_e)"></path><path d="M222.38 410.32c-2.47 48.33-25.51 93.36-60.09 106.18-74.21 27.53-92.72-50.4-72.07-88.24-15.83 84.69 100.19 118.82 132.16-17.94" fill="url(#1770301555135-7793613_f)"></path><path d="M147.1 307.13c34.45 18.24 42.56 61.3 38.41 79.77-17.15-88.24-159.38-77.96-126.71 45.49C5.35 379.07 52 256.8 147.1 307.13" fill="url(#1770301555135-7793613_g)"></path><path d="M183 447.01c1.18-5.88-7.23 20.84-38.03 21.67-8.74.26 31.19 12.15 38.03-21.67" class="ad" fill="#ffe463"></path><path d="M256.01 0s-90.51 101.7-81.1 201.88c5.97 63.67 45.4 114.04 52.7 159.49 3.36 20.87 0 94.05 0 94.05s23.24-2.78 28.42 12.43c32.92-204.53 0-467.85 0-467.85Z" fill="url(#1770301555135-7793613_h)"></path><path d="M256.01 0v410.59-.02 57.28c5.17-15.21 28.42-12.43 28.42-12.43s-3.36-73.21 0-94.09c7.3-45.43 46.71-95.8 52.68-159.45C346.52 101.67 256.01 0 256.01 0" fill="url(#1770301555135-7793613_i)"></path><path d="M256.01 479.85s-8.63-18.09-26.07-13.28c-21.98 6.04-10.74 30.97-12.91 40.81-5.49 24.97-25.5 24.97-25.5 24.97s9.62 16.37 25.39 16.37c11.43 0 14.55-7.04 14.55-7.04-2.46 27.25 24.54 65.12 24.54 65.12 13.04-70.52 0-126.96 0-126.96Z" fill="url(#1770301555135-7793613_j)"></path><path d="M295.01 507.38c-2.15-9.84 9.05-34.77-12.92-40.81-17.41-4.81-26.07 13.28-26.07 13.28v126.96s26.99-37.87 24.56-65.13c0 0 3.14 7.04 14.56 7.04 15.77 0 25.4-16.37 25.4-16.37s-20.03 0-25.52-24.96Z" fill="url(#1770301555135-7793613_k)"></path><path d="M219.56 485.46c.55 5.07 7.71-4.86 14.98-13.4 4.69-5.48-16.64-1.87-14.98 13.4" class="ad" fill="#ffe463"></path><path d="M336.46 409.42h-5.05c13.22 0 13.22-18.96 0-18.96h5.05c6.51 0 6.51-9.48 0-9.48H175.54c-6.5 0-6.5 9.48 0 9.48h5.03c-13.11.02-13.19 18.69-.25 18.94.09 0 .16.02.25.02h-5.03c-6.5 0-6.5 9.47 0 9.47h160.92c6.51 0 6.51-9.47 0-9.47" fill="url(#1770301555135-7793613_l)"></path><path d="M331.41 409.42h-93.94c103.87 0 93.94-18.96 93.94-18.96 13.22 0 13.22 18.96 0 18.96" fill="url(#1770301555135-7793613_m)"></path><path d="M336.46 418.9H218.22c135.81 0 118.24-9.48 118.24-9.48 6.51 0 6.51 9.48 0 9.48" fill="url(#1770301555135-7793613_n)"></path><path d="M336.46 390.46H218.22c135.81 0 118.24-9.48 118.24-9.48 6.51 0 6.51 9.48 0 9.48" fill="url(#1770301555135-7793613_o)"></path></g></svg>
