<svg xmlns="http://www.w3.org/2000/svg" data-name="Layer 1" style="" viewBox="0 0 512 698.18"><g><defs><linearGradient id="1770301555172-8297499_b" x1="44.99" x2="467.03" y1="291.53" y2="291.53" gradientTransform="matrix(1 0 0 -1 0 700.18)" gradientUnits="userSpaceOnUse"><stop offset="0" stop-color="#00b3e8"></stop><stop offset=".21" stop-color="#00ade3"></stop><stop offset=".49" stop-color="#009dd6"></stop><stop offset=".8" stop-color="#0083bf"></stop><stop offset="1" stop-color="#006ead"></stop></linearGradient><linearGradient id="1770301555172-8297499_c" x1="465.41" x2="46.06" y1="505.09" y2="505.09" gradientTransform="matrix(1 0 0 -1 0 700.18)" gradientUnits="userSpaceOnUse"><stop offset="0" stop-color="#9c0000"></stop><stop offset=".18" stop-color="#bc0000"></stop><stop offset=".39" stop-color="#d90000"></stop><stop offset=".6" stop-color="#e00"></stop><stop offset=".81" stop-color="#fb0000"></stop><stop offset="1" stop-color="red"></stop></linearGradient><linearGradient id="1770301555172-8297499_e" x1="646.56" x2="-135.53" y1="255.67" y2="255.67" gradientTransform="matrix(1 0 0 -1 0 700.18)" gradientUnits="userSpaceOnUse"><stop offset="0" stop-color="#c7956b"></stop><stop offset=".25" stop-color="#ddb285"></stop><stop offset=".53" stop-color="#f0ca9b"></stop><stop offset=".79" stop-color="#fbd9a8"></stop><stop offset="1" stop-color="#ffdead"></stop></linearGradient><linearGradient id="1770301555172-8297499_f" x1="0" x2="512" y1="128.84" y2="128.84" gradientTransform="matrix(1 0 0 -1 0 700.18)" gradientUnits="userSpaceOnUse"><stop offset="0" stop-color="#00b3e8"></stop><stop offset=".21" stop-color="#00ade3"></stop><stop offset=".49" stop-color="#009dd6"></stop><stop offset=".8" stop-color="#0083bf"></stop><stop offset="1" stop-color="#006ead"></stop></linearGradient><linearGradient id="1770301555172-8297499_g" x1="510.58" x2="187.53" y1="241.18" y2="241.18" gradientTransform="matrix(1 0 0 -1 0 700.18)" gradientUnits="userSpaceOnUse"><stop offset="0" stop-color="#9c0000"></stop><stop offset=".18" stop-color="#bc0000"></stop><stop offset=".39" stop-color="#d90000"></stop><stop offset=".6" stop-color="#e00"></stop><stop offset=".81" stop-color="#fb0000"></stop><stop offset="1" stop-color="red"></stop></linearGradient><linearGradient id="1770301555172-8297499_h" x1="-2506.23" x2="-2829.3" y1="241.18" y2="241.18" gradientTransform="rotate(180 -1252.405 350.09)" gradientUnits="userSpaceOnUse"><stop offset="0" stop-color="#9c0000"></stop><stop offset=".18" stop-color="#bc0000"></stop><stop offset=".39" stop-color="#d90000"></stop><stop offset=".6" stop-color="#e00"></stop><stop offset=".81" stop-color="#fb0000"></stop><stop offset="1" stop-color="red"></stop></linearGradient></defs><path d="M426.72 265.82c-17.65-32.01-323.78-32.01-341.42 0C-24.63 465.2 121.86 575.5 151.88 575.5h208.24c30.02 0 176.52-110.29 66.6-309.68" fill="url(#1770301555172-8297499_b)"></path><path d="M235.24 478.95c25.84-9.97 33.38-36.18 16.88-58.57-23.44 5-35.56 36.89-16.88 58.57" class="aa" fill="#7aba14"></path><path d="M172.48 409c21.76 21.53 51.6 17.22 66.66-9.57-15.65-21.34-53.29-19.06-66.66 9.57" class="ae" fill="#84c916"></path><path d="M221.15 325.64c-17.49 37.33.91 75.99 41.09 86.33 19.96-29.02.69-78.95-41.09-86.33" class="ae" fill="#84c916"></path><path d="M314.34 337.37c-38.73.55-65.86 32.37-60.59 71.1 32.38 5 69.04-32.26 60.59-71.1" class="ae" fill="#84c916"></path><path d="M276.95 388.48c-8.52 37.77 16.05 71.54 54.88 75.5 12.42-30.29-15.17-74.59-54.88-75.5" class="aa" fill="#7aba14"></path><path d="M385.2 392.27c-38.2 6.16-60.4 41.53-49.61 79.05 32.73.24 63.56-41.89 49.61-79.05" class="ae" fill="#84c916"></path><path d="M172.79 392.57c-29.92 21.79-32.22 60.2-5.19 85.82 28.24-14.2 34.76-61.86 5.19-85.82" class="aa" fill="#7aba14"></path><path d="M92.98 385.7c0 30.84-46.65 30.84-46.65 0s46.65-30.84 46.65 0" class="v" fill="#fed0ac"></path><path d="M133.03 372.33c0 30.82-46.66 30.82-46.66 0 0-30.84 46.66-30.84 46.66 0" class="v" fill="#fed0ac"></path><path d="M170.42 354.6c0 30.84-46.64 30.84-46.64 0s46.64-30.84 46.64 0" class="v" fill="#fed0ac"></path><path d="M205.82 334.1c0 30.85-46.65 30.85-46.65 0-.01-30.82 46.65-30.82 46.65 0" class="v" fill="#fed0ac"></path><path d="M235.86 305.08c0 30.84-46.66 30.84-46.66 0-.01-30.85 46.66-30.85 46.66 0" class="v" fill="#fed0ac"></path><path d="M256.14 275.48c0 30.85-46.66 30.85-46.66 0s46.66-30.84 46.66 0m162.9 110.22c0 30.84 46.66 30.84 46.66 0s-46.66-30.84-46.66 0" class="v" fill="#fed0ac"></path><path d="M378.98 372.33c0 30.82 46.67 30.82 46.67 0 0-30.84-46.67-30.84-46.67 0" class="v" fill="#fed0ac"></path><path d="M341.59 354.6c0 30.84 46.65 30.84 46.65 0s-46.65-30.84-46.65 0" class="v" fill="#fed0ac"></path><path d="M306.2 334.1c0 30.85 46.65 30.85 46.65 0 0-30.82-46.65-30.82-46.65 0" class="v" fill="#fed0ac"></path><path d="M276.16 305.08c0 30.84 46.66 30.84 46.66 0 0-30.85-46.66-30.85-46.66 0" class="v" fill="#fed0ac"></path><path d="M255.86 275.48c0 30.85 46.67 30.85 46.67 0s-46.67-30.84-46.67 0" class="v" fill="#fed0ac"></path><path d="M401.28 124.4C401.28 72.42 350.77 0 256 0S110.72 72.42 110.72 124.4c0 136.49-55.3 142.09-65.18 265.18-.34 4.27 144.72-12.36 210.46-119.3 65.73 106.94 210.78 123.57 210.44 119.31-9.88-123.09-65.16-128.69-65.16-265.19" fill="url(#1770301555172-8297499_c)"></path><ellipse cx="256" cy="146.32" class="v" rx="101.71" ry="100.26" fill="#fed0ac"></ellipse><ellipse cx="187.15" cy="186.75" class="ad" rx="17.09" ry="16.86" fill="#f89987"></ellipse><ellipse cx="324.86" cy="186.75" class="ad" rx="17.09" ry="16.86" fill="#f89987"></ellipse><path d="M236.44 161.96c0 10.43-8.59-2.26-19.18-2.26s-19.19 12.68-19.19 2.26 8.6-18.92 19.19-18.92 19.18 8.48 19.18 18.92m77.5 0c0 10.43-8.6-2.26-19.19-2.26s-19.18 12.68-19.18 2.26 8.6-18.92 19.18-18.92 19.19 8.48 19.19 18.92" fill="#302c3b"></path><path d="M357.72 146.32c0-55.37-45.54-100.25-101.71-100.25s-101.7 44.88-101.7 100.25c61.22 0 92.63-37.02 101.7-67.71 9.08 30.7 40.48 67.71 101.71 67.71" fill="#473834"></path><path id="1770301555172-8297499_d" d="M255.99 196.29c-13.52-5.06-33.57 2.4-33.57 2.4 7.63 10.6 13.23 24.32 33.57 24.32 23.31 0 27.28-15.58 33.58-24.32 0 0-20.06-7.49-33.58-2.4" data-name="Path" fill="#e81c27"></path><path d="M351.99 137.61c-71.54-24.97-92.73-84.92-92.73-84.92s2.8 75.94 92.73 84.92" class="x" fill="#7a6056"></path><path d="M348.58 123.82c-40.82-32.64-74.73-68.34-74.73-68.34s12.39 48.97 74.73 68.34m-53.83-61.75C313.93 85.85 340 105.44 340 105.44s-12.79-27.97-45.25-43.37m-134.73 75.54c71.54-24.97 92.73-84.92 92.73-84.92s-2.8 75.94-92.73 84.92" class="x" fill="#7a6056"></path><path d="M163.41 123.82c40.83-32.64 74.74-68.34 74.74-68.34s-12.39 48.97-74.74 68.34m53.85-61.75c-19.18 23.78-45.25 43.37-45.25 43.37s12.8-27.97 45.25-43.37" class="x" fill="#7a6056"></path><path d="M338.42 475.75c22.8-13.04 37.5-63.91.5-56.59-32.38-7.51-21.29 37.9-.5 56.59" class="t" fill="#ffadcc"></path><path d="M257.61 397.36c23.59-10.86 42.51-59.61 5.46-55.65-31.23-10.21-24.29 35.43-5.46 55.65" class="y" fill="#ffc4da"></path><path d="M257.28 397.36c33.19 19.78 79.3 11 51.51-20.88-10.89-30.39-45.96-3.85-51.51 20.88" class="t" fill="#ffadcc"></path><path d="M257.68 397.2c26.9 6.73 60.26 43.53 26.16 53.06-40.69 21.47-36.84-30.48-26.16-53.06" class="p" fill="#ffb3cf"></path><path d="M257.55 397.31c1.43 26.54-37.55 66.97-45.53 30.44-23.11-23.92 19.48-38.45 45.53-30.44" class="y" fill="#ffc4da"></path><path d="M257.58 397.46c-24.35 9.36-81.93-8.48-51.34-31.72 16.56-31.66 46.53 3.64 51.34 31.72" class="p" fill="#ffb3cf"></path><path d="M258.06 398.1c1.55-10.3 3.93-29.65 2.54-30.25-1.82-.8-4.47 15.01-2.54 30.25" class="q" fill="#ed74a4"></path><path d="M257.8 398.1c9.9-3.37 28.13-10.24 27.79-11.69-.47-1.84-15.81 3.18-27.79 11.69" class="q" fill="#ed74a4"></path><path d="M258.09 397.95c5.39 9.77 14.98 28.15 13.84 28.97-1.45 1.05-9.97-13.86-13.84-28.97m-.1.12c-8.18 6.16-23.77 17.19-24.96 16.21-1.51-1.3 10.91-10.96 24.96-16.21" class="q" fill="#ed74a4"></path><path d="M257.99 398.2c-9.87-5.52-28.02-16.2-27.66-17.56.45-1.73 15.74 6.52 27.66 17.56m1.49-.79c10.43 2.78 29.94 7.46 30.5 6.12.69-1.71-15.31-6.21-30.5-6.12" class="q" fill="#ed74a4"></path><path d="M259.79 397.48c-1.18 10.71-3.93 30.58-5.36 30.59-1.85.05-.27-16.48 5.36-30.59m-.13.04c-10.57.34-30.37.47-30.77-1-.51-1.84 15.77-2.63 30.77 1" class="q" fill="#ed74a4"></path><path d="M259.59 397.62c-5.11-9.82-14.21-28.35-13.07-29.2 1.41-1.14 9.52 13.86 13.07 29.2" class="q" fill="#ed74a4"></path><path d="M258.02 389.21c-1.86-4.26 4.65-6.64 6.52-2.37s-4.65 6.64-6.52 2.37" class="w" fill="#fabf49"></path><path d="M259.67 396.64c-2.77-6.41 6.96-9.95 9.75-3.55 2.78 6.41-6.98 9.97-9.75 3.55" class="ab" fill="#ffd582"></path><path d="M248.99 405.53c-2.78-6.41 6.96-9.97 9.73-3.55 2.8 6.41-6.95 9.96-9.73 3.55" class="w" fill="#fabf49"></path><path d="M250.36 402.19c-3.72-8.55 9.3-13.28 13-4.74 3.7 8.56-9.3 13.3-13 4.74" class="s" fill="#feec9a"></path><path d="M246.1 396.44c-2.77-6.42 6.96-9.96 9.75-3.56 2.78 6.41-6.95 10-9.75 3.56" class="w" fill="#fabf49"></path><path d="M256.85 393.46c-1.85-4.27 4.65-6.63 6.5-2.36s-4.64 6.66-6.5 2.36m-12.09-1.85c-1.84-4.27 4.63-6.61 6.5-2.34s-4.64 6.61-6.5 2.34" class="s" fill="#feec9a"></path><path d="M257.68 407.73c-1.86-4.29 4.64-6.66 6.5-2.39 1.85 4.28-4.67 6.66-6.5 2.39" class="ab" fill="#ffd582"></path><path d="M262.19 403.56c-1.86-4.28 4.63-6.64 6.48-2.37 1.85 4.29-4.62 6.64-6.48 2.37M244 400.55c-1.83-4.27 4.65-6.64 6.52-2.37 1.85 4.28-4.65 6.67-6.52 2.37" class="s" fill="#feec9a"></path><path d="M254.08 397.84c-1.86-4.27 4.63-6.64 6.49-2.36s-4.65 6.66-6.49 2.36" class="ab" fill="#ffd582"></path><path d="M249.46 392.32c-2.77-6.41 6.97-9.96 9.75-3.57 2.79 6.45-6.97 9.98-9.75 3.57" class="ab" fill="#ffd582"></path><path d="M232.09 413.73c-1.16-2.68 2.91-4.15 4.07-1.48 1.18 2.66-2.91 4.15-4.07 1.48" class="o" fill="#b82e61"></path><path d="M227.61 397.3c-1.16-2.68 2.9-4.15 4.07-1.48 1.15 2.65-2.92 4.14-4.07 1.48" class="u" fill="#c94376"></path><path d="M228.72 381.11c-1.16-2.69 2.91-4.17 4.07-1.48 1.15 2.68-2.91 4.15-4.07 1.48" class="o" fill="#b82e61"></path><path d="M244.68 369.05c-1.15-2.66 2.9-4.17 4.06-1.49s-2.9 4.17-4.06 1.49" class="u" fill="#c94376"></path><path d="M258.02 368.7c-1.14-2.69 2.91-4.17 4.08-1.49 1.15 2.68-2.91 4.17-4.08 1.49m25.36 17.91c-1.16-2.66 2.93-4.17 4.08-1.49 1.16 2.68-2.93 4.15-4.08 1.49" class="o" fill="#b82e61"></path><path d="M288.07 404.29c-1.18-2.7 2.9-4.18 4.08-1.5 1.13 2.69-2.92 4.19-4.08 1.5" class="u" fill="#c94376"></path><path d="M484.01 465.09h-456c-7.76 0-7.76-41.16 0-41.16h456c7.74 0 7.74 41.16 0 41.16" fill="url(#1770301555172-8297499_e)"></path><path d="M4.12 444.51C-24.01 608.93 99.9 698.18 129.65 698.18h252.7c29.75 0 153.66-89.25 125.52-253.67z" fill="url(#1770301555172-8297499_f)"></path><path d="M230.81 581.05c31.34-12.09 40.49-43.88 20.48-71.04-28.44 6.05-43.12 44.74-20.48 71.04" class="aa" fill="#7aba14"></path><path d="M154.65 496.19c26.4 26.11 62.62 20.9 80.9-11.59-19-25.9-64.68-23.17-80.9 11.59" class="ae" fill="#84c916"></path><path d="M281.43 471.3c-10.34 45.8 19.48 86.8 66.6 91.58 15.06-36.74-18.44-90.48-66.6-91.58" class="aa" fill="#7aba14"></path><path d="M355.76 580.6c-7.47-46.36-50.41-73.3-95.92-60.2-.3 39.71 50.82 77.1 95.92 60.2" class="ae" fill="#84c916"></path><path d="M349.34 569.59c-38.06-27.5-87.49-16.19-110.38 25.25 27.86 28.3 90.46 18.62 110.38-25.25" class="aa" fill="#7aba14"></path><path d="M357.36 574.55c-41.95 21.11-54.7 70.16-28.46 109.59 37.96-11.68 58.19-71.7 28.46-109.59m55.43-98.67c-46.36 7.48-73.32 50.4-60.21 95.88 39.73.33 77.14-50.79 60.21-95.88" class="ae" fill="#84c916"></path><path d="M452.12 611.84c-19.64-42.67-68.22-57.1-108.54-32.27 10.36 38.34 69.64 60.66 108.54 32.27" class="ae" fill="#84c916"></path><path d="M462.31 541.66c-38.05-27.49-87.48-16.19-110.38 25.26 27.88 28.3 90.48 18.59 110.38-25.26m-307.3-65.41c-36.29 26.43-39.09 73.02-6.28 104.1 34.27-17.21 42.18-75.03 6.28-104.1" class="aa" fill="#7aba14"></path><path d="M160.76 587.43c-12.67-48.79-61.29-73.26-108.61-54.66 3.68 42.5 62.1 77.3 108.61 54.66" class="ae" fill="#84c916"></path><path d="M163.91 584.58c-43.47-25.55-95.15-8.48-115.44 38.11 32.63 27.46 98.58 10.79 115.44-38.11" class="aa" fill="#7aba14"></path><path d="M158.2 573.64c-48.8 12.67-73.27 61.28-54.67 108.58 42.5-3.67 77.32-62.08 54.67-108.58" class="ae" fill="#84c916"></path><path d="M156.11 593.21c-25.39 36-12.01 76.7 29.88 90.92 26.65-27.39 14.27-79.55-29.88-90.92" class="ae" fill="#84c916"></path><path d="M245.75 641.72c-.29-49.25-38.1-75.3-84.45-58.24-6.28 42.64 37.93 79.38 84.45 58.24" class="aa" fill="#7aba14"></path><path d="M248.7 586.97c-18.12-32-57-40.09-86.85-18.05 10.6 29.24 58.34 42.78 86.85 18.05" class="ae" fill="#84c916"></path><path d="M461.51 444.51h-98.19c7.8 15.58 28.9 18.26 42.05 8.72 1.22 27.45 33.65 33.52 48.79 18.23 3.56 33.71 56.27 32.61 56.27-3.55l-48.93-23.4Z" class="v" fill="#fed0ac"></path><path d="M398.14 444.51c62.49 27.74 113.48 31.01 113.23 28.13-.81-10.31-1.69-19.1-2.99-28.13z" fill="url(#1770301555172-8297499_g)"></path><path d="M50.48 444.51h98.19c-7.8 15.58-28.9 18.26-42.05 8.72-1.22 27.45-33.65 33.52-48.79 18.23-3.56 33.71-56.27 32.61-56.27-3.55l48.93-23.4Z" class="v" fill="#fed0ac"></path><path d="M113.87 444.51C51.38 472.25.39 475.52.62 472.64c.83-10.31 1.69-19.1 2.99-28.13h110.25Z" fill="url(#1770301555172-8297499_h)"></path><path d="M356.02 577.16c27.67-15.83 45.52-77.52.62-68.65-39.3-9.1-25.84 45.98-.62 68.65" class="t" fill="#ffadcc"></path><path d="M355.62 577.19c42.76 20.61 98.23 4.82 60.77-31.14-16.64-35.98-56.67.3-60.77 31.14" class="y" fill="#ffc4da"></path><path d="M356.09 576.93c33.64 5.32 78.45 46.71 37.78 62.05-47.45 30.73-48.41-33.25-37.78-62.05" class="y" fill="#ffc4da"></path><path d="M355.95 577.09c4.63 32.31-38.66 86-52.4 42.19-30.87-26.75 19.64-49.15 52.4-42.19" class="t" fill="#ffadcc"></path><path d="M356 577.28c-28.79 14.1-101.17-1.48-66.26-33.21 16.8-40.53 57.32-.59 66.26 33.21" class="y" fill="#ffc4da"></path><path d="M356.64 578.03c.78-12.78 1.61-36.7-.19-37.28-2.28-.81-3.82 18.84.19 37.28" class="q" fill="#ed74a4"></path><path d="M356.33 578.05c11.75-5.22 33.29-15.59 32.73-17.31-.78-2.22-19 5.59-32.73 17.31" class="q" fill="#ed74a4"></path><path d="M356.67 577.84c7.65 11.36 21.36 32.78 20.1 33.93-1.69 1.43-13.72-15.86-20.1-33.93m-.1.14c-9.34 8.42-27.23 23.61-28.75 22.53-2-1.42 12.14-14.59 28.75-22.53" class="q" fill="#ed74a4"></path><path d="M356.59 578.14c-12.68-5.67-36.07-16.76-35.76-18.46.37-2.2 19.98 6.25 35.76 18.46m1.73-1.11c13.06 2.26 37.45 5.84 37.98 4.15.65-2.18-19.4-5.95-37.98-4.15" class="q" fill="#ed74a4"></path><path d="M358.7 577.06c-.27 13.24-1.48 37.83-3.25 38.02-2.25.24-2.09-20.14 3.25-38.02m-.14.06c-12.89 1.57-37.1 3.89-37.75 2.15-.84-2.2 18.98-4.96 37.75-2.15" class="q" fill="#ed74a4"></path><path d="M358.49 577.25c-7.34-11.45-20.49-33.12-19.19-34.29 1.59-1.52 13.16 15.91 19.19 34.29" class="q" fill="#ed74a4"></path><path d="M355.65 567.13c-2.73-5.02 4.97-8.61 7.69-3.61 2.72 5.04-4.97 8.63-7.69 3.61" class="w" fill="#fabf49"></path><path d="M358.47 576.05c-4.11-7.54 7.44-12.94 11.54-5.39 4.08 7.53-7.47 12.93-11.54 5.39" class="ab" fill="#ffd582"></path><path d="M346.36 588.07c-4.1-7.52 7.44-12.95 11.52-5.39 4.11 7.55-7.44 12.95-11.52 5.39" class="w" fill="#fabf49"></path><path d="M347.66 583.86c-5.49-10.05 9.93-17.25 15.38-7.19 5.48 10.04-9.91 17.25-15.38 7.19" class="s" fill="#feec9a"></path><path d="M341.85 577.27c-4.1-7.54 7.42-12.93 11.53-5.41 4.11 7.55-7.42 12.99-11.53 5.41" class="w" fill="#fabf49"></path><path d="M354.67 572.46c-2.72-5.04 4.98-8.62 7.68-3.61 2.76 5.04-4.92 8.65-7.68 3.61m-15-.94c-2.7-5.03 4.97-8.61 7.71-3.58 2.73 5.04-4.96 8.61-7.71 3.58" class="s" fill="#feec9a"></path><path d="M357.23 589.83c-2.75-5.04 4.96-8.63 7.69-3.61 2.73 5.03-4.97 8.62-7.69 3.61" class="ab" fill="#ffd582"></path><path d="M362.29 584.23c-2.72-5.03 4.97-8.62 7.68-3.61 2.72 5.06-4.93 8.63-7.68 3.61m-22.57-1.69c-2.72-5.04 4.97-8.65 7.7-3.62 2.73 5.04-4.97 8.65-7.7 3.62" class="s" fill="#feec9a"></path><path d="M351.76 578.14c-2.75-5.05 4.96-8.66 7.67-3.62 2.75 5.05-4.93 8.63-7.67 3.62" class="ab" fill="#ffd582"></path><path d="M345.51 571.88c-4.11-7.55 7.44-12.96 11.54-5.42 4.1 7.56-7.45 12.95-11.54 5.42" class="ab" fill="#ffd582"></path><path d="M373.92 612.38c-1.71-3.15 3.13-5.4 4.81-2.25 1.71 3.12-3.1 5.4-4.81 2.25" class="u" fill="#c94376"></path><path d="M352.47 615.72c-1.72-3.15 3.12-5.38 4.81-2.23 1.72 3.15-3.1 5.4-4.81 2.23m-25.89-15.77c-1.71-3.15 3.12-5.4 4.82-2.25 1.72 3.14-3.11 5.4-4.82 2.25" class="o" fill="#b82e61"></path><path d="M319.29 580.34c-1.71-3.15 3.11-5.41 4.82-2.26s-3.1 5.4-4.82 2.26" class="u" fill="#c94376"></path><path d="M318.9 560.42c-1.7-3.17 3.12-5.42 4.82-2.26s-3.1 5.41-4.82 2.26" class="o" fill="#b82e61"></path><path d="M337.13 543.91c-1.71-3.12 3.1-5.39 4.81-2.25 1.71 3.15-3.11 5.43-4.81 2.25" class="u" fill="#c94376"></path><path d="M353.4 542.05c-1.7-3.17 3.11-5.41 4.82-2.27s-3.08 5.41-4.82 2.27m32.99 19.15c-1.71-3.15 3.13-5.42 4.81-2.27 1.73 3.17-3.08 5.41-4.81 2.27" class="o" fill="#b82e61"></path><path d="M394.04 582.32c-1.7-3.17 3.1-5.43 4.83-2.27 1.7 3.13-3.12 5.41-4.83 2.27" class="u" fill="#c94376"></path><path d="M257.95 483.55c14.73-6.63 27.78-23.23 31.03-39.03h-50.51c1.77 14.02 9.44 28.45 19.48 39.03" class="y" fill="#ffc4da"></path><path d="M257.56 483.53c40.26 23.52 96.24 13.07 62.5-24.8-13.64-29.98-55.76-4.57-62.5 24.8" class="t" fill="#ffadcc"></path><path d="M258.03 483.32c32.65 8.01 73.12 51.72 31.76 63.03-49.38 25.53-44.72-36.19-31.76-63.03" class="p" fill="#ffb3cf"></path><path d="M257.88 483.47c1.72 31.53-45.56 79.55-55.25 36.15-28.04-28.42 23.63-45.67 55.25-36.15" class="y" fill="#ffc4da"></path><path d="M257.9 483.64c-29.54 11.12-98.61-11.54-61.49-39.13h43.01s15.66 22.99 18.48 39.13" class="p" fill="#ffb3cf"></path><path d="M258.49 484.41c1.89-12.23 4.78-35.22 3.08-35.93-2.2-.97-5.42 17.82-3.08 35.93" class="q" fill="#ed74a4"></path><path d="M258.18 484.41c12.02-4.03 34.14-12.16 33.72-13.88-.57-2.2-19.19 3.77-33.72 13.88" class="q" fill="#ed74a4"></path><path d="M258.53 484.24c6.55 11.6 18.18 33.42 16.8 34.42-1.77 1.23-12.11-16.47-16.8-34.42m-.11.12c-9.94 7.32-28.86 20.42-30.29 19.25-1.85-1.54 13.24-13.02 30.29-19.25" class="q" fill="#ed74a4"></path><path d="M258.42 484.53c-11.97-6.55-34.02-19.23-33.58-20.85.56-2.08 19.13 7.73 33.58 20.85m1.8-.93c12.66 3.3 36.34 8.84 37.03 7.26.84-2.04-18.57-7.39-37.03-7.26" class="q" fill="#ed74a4"></path><path d="M260.59 483.65c-1.41 12.73-4.75 36.33-6.5 36.35-2.23.03-.31-19.57 6.5-36.35m-.14.05c-12.83.41-36.86.57-37.34-1.16-.62-2.19 19.13-3.13 37.34 1.16" class="q" fill="#ed74a4"></path><path d="M260.36 483.83c-6.2-11.67-17.25-33.68-15.87-34.69 1.71-1.35 11.55 16.47 15.87 34.69" class="q" fill="#ed74a4"></path><path d="M258.45 473.85c-2.25-5.07 5.63-7.88 7.9-2.82 2.23 5.09-5.66 7.9-7.9 2.82" class="w" fill="#fabf49"></path><path d="M260.46 482.67c-3.37-7.62 8.45-11.83 11.83-4.2 3.36 7.6-8.48 11.83-11.83 4.2" class="ab" fill="#ffd582"></path><path d="M247.5 493.23c-3.39-7.61 8.45-11.87 11.81-4.21 3.36 7.62-8.45 11.82-11.81 4.21" class="w" fill="#fabf49"></path><path d="M249.14 489.28c-4.51-10.18 11.29-15.77 15.77-5.63 4.51 10.16-11.28 15.79-15.77 5.63" class="s" fill="#feec9a"></path><path d="M244 482.43c-3.36-7.62 8.44-11.83 11.82-4.22 3.37 7.62-8.44 11.86-11.82 4.22" class="w" fill="#fabf49"></path><path d="M257.04 478.88c-2.25-5.07 5.66-7.87 7.89-2.79 2.25 5.09-5.63 7.9-7.89 2.79m-14.69-2.17c-2.22-5.07 5.64-7.88 7.91-2.79 2.25 5.09-5.64 7.85-7.91 2.79" class="s" fill="#feec9a"></path><path d="M258.04 495.83c-2.27-5.09 5.63-7.9 7.88-2.8 2.26 5.07-5.66 7.89-7.88 2.8" class="ab" fill="#ffd582"></path><path d="M263.52 490.89c-2.26-5.1 5.63-7.89 7.87-2.82 2.25 5.11-5.62 7.88-7.87 2.82m-22.1-3.57c-2.22-5.1 5.66-7.91 7.91-2.82 2.25 5.06-5.66 7.9-7.91 2.82" class="s" fill="#feec9a"></path><path d="M253.68 484.11c-2.25-5.09 5.63-7.9 7.87-2.8 2.26 5.07-5.63 7.88-7.87 2.8" class="ab" fill="#ffd582"></path><path d="M248.07 477.55c-3.37-7.62 8.46-11.86 11.83-4.22 3.39 7.63-8.46 11.83-11.83 4.22" class="ab" fill="#ffd582"></path><path d="M272.47 519.01c-1.41-3.18 3.56-4.95 4.96-1.75 1.38 3.14-3.55 4.92-4.96 1.75" class="u" fill="#c94376"></path><path d="M251.07 520.39c-1.41-3.18 3.54-4.92 4.95-1.75 1.41 3.18-3.53 4.92-4.95 1.75m-24.08-17.42c-1.41-3.19 3.53-4.95 4.93-1.76 1.42 3.18-3.53 4.93-4.93 1.76" class="o" fill="#b82e61"></path><path d="M221.54 483.46c-1.41-3.19 3.53-4.95 4.93-1.77 1.43 3.18-3.53 4.93-4.93 1.77" class="u" fill="#c94376"></path><path d="M222.89 464.23c-1.4-3.2 3.54-4.96 4.95-1.76 1.4 3.18-3.54 4.93-4.95 1.76" class="o" fill="#b82e61"></path><path d="M242.26 449.89c-1.41-3.17 3.53-4.95 4.93-1.76 1.41 3.19-3.53 4.96-4.93 1.76" class="u" fill="#c94376"></path><path d="M258.45 449.48c-1.38-3.2 3.53-4.96 4.95-1.77 1.41 3.18-3.53 4.95-4.95 1.77m30.78 21.27c-1.41-3.18 3.55-4.96 4.95-1.77 1.41 3.18-3.53 4.96-4.95 1.77" class="o" fill="#b82e61"></path><path d="M294.93 491.77c-1.42-3.21 3.51-4.97 4.95-1.78 1.37 3.18-3.54 4.95-4.95 1.78" class="u" fill="#c94376"></path><path d="M148.58 586.04c14.58-25.44.07-82.68-31.44-54.78-35.42 11.05.86 48.51 31.44 54.78" class="y" fill="#ffc4da"></path><path d="M148.26 586.25c43.5-3.53 80.19-41.82 33.73-52.93-29.93-20.84-44.81 26.54-33.73 52.93" class="t" fill="#ffadcc"></path><path d="M148.51 585.85c29.15-11.42 83.98.59 58.83 31.69-23.39 46.42-53.88-3.92-58.83-31.69" class="p" fill="#ffb3cf"></path><path d="M148.47 586.02c18.71 23.51 9.31 86.2-21.97 57.82-36.93-6.88-7.25-48.12 21.97-57.82" class="y" fill="#ffc4da"></path><path d="M148.6 586.16c-16.29 24.55-80.97 45.82-68.03 4.42-5.5-39.97 45.22-27.1 68.03-4.42" class="p" fill="#ffb3cf"></path><path d="M149.46 586.43c-5.32-10.5-15.79-29.86-17.48-29.5-2.2.43 5.71 16.74 17.48 29.5" class="q" fill="#ed74a4"></path><path d="M149.22 586.59c6.9-9.61 19.19-27.85 17.92-28.95-1.64-1.38-12.47 13.28-17.92 28.95" class="q" fill="#ed74a4"></path><path d="M149.39 586.28c11.36 5.46 32.2 16.09 31.71 17.59-.65 1.91-18.25-6.23-31.71-17.59m-.01.15c-3.5 11.02-10.64 31.38-12.37 31.24-2.22-.2 2.87-17.21 12.37-31.24" class="q" fill="#ed74a4"></path><path d="M149.46 586.54c-12.7 1.4-36.4 3.46-36.96 1.98-.72-1.91 18.77-4.34 36.96-1.98m.86-1.67c11.4-4.27 32.43-12.77 32.07-14.35-.48-2.04-18.15 4.29-32.07 14.35" class="q" fill="#ed74a4"></path><path d="M150.64 584.72c5.95 10.62 16.42 30.71 15.09 31.67-1.66 1.22-11.02-15-15.09-31.67m-.08.11c-9.51 7.24-27.65 20.33-28.96 19.23-1.68-1.36 12.78-12.74 28.96-19.23" class="q" fill="#ed74a4"></path><path d="M150.56 584.97c-11.15-5.69-31.65-16.77-31.17-18.3.57-1.97 17.85 6.52 31.17 18.3" class="q" fill="#ed74a4"></path><path d="M143.6 578.27c-4.5-2.71-.07-9.16 4.43-6.45 4.5 2.73.08 9.16-4.43 6.45" class="w" fill="#fabf49"></path><path d="M150 584.02c-6.76-4.08-.12-13.73 6.66-9.63 6.75 4.07.08 13.73-6.66 9.63" class="ab" fill="#ffd582"></path><path d="M145.97 599.18c-6.76-4.07-.14-13.73 6.63-9.61 6.77 4.07.13 13.72-6.63 9.61" class="w" fill="#fabf49"></path><path d="M145.04 595.25c-9.02-5.46-.15-18.32 8.87-12.88 9.02 5.45.15 18.32-8.87 12.88" class="s" fill="#feec9a"></path><path d="M137.37 592.73c-6.75-4.1-.12-13.73 6.63-9.66 6.77 4.08.13 13.74-6.63 9.66" class="w" fill="#fabf49"></path><path d="M145.31 582.95c-4.5-2.71-.06-9.16 4.43-6.43 4.51 2.72.09 9.15-4.43 6.43m-12.34 6.21c-4.49-2.72-.07-9.13 4.45-6.43 4.53 2.75.07 9.13-4.45 6.43" class="s" fill="#feec9a"></path><path d="M155.4 595.53c-4.51-2.71-.07-9.15 4.42-6.43 4.53 2.7.08 9.16-4.42 6.43" class="ab" fill="#ffd582"></path><path d="M156.84 588.74c-4.5-2.72-.08-9.15 4.41-6.45 4.5 2.75.09 9.16-4.41 6.45m-18.71 9.15c-4.5-2.75-.08-9.17 4.42-6.46 4.51 2.73.08 9.17-4.42 6.46" class="s" fill="#feec9a"></path><path d="M145.63 588.8c-4.51-2.72-.09-9.17 4.41-6.43 4.53 2.72.09 9.16-4.41 6.43" class="ab" fill="#ffd582"></path><path d="M137.77 586.74c-6.76-4.11-.12-13.75 6.63-9.67 6.8 4.08.12 13.73-6.63 9.67" class="ab" fill="#ffd582"></path><path d="M179.13 605.69c-2.82-1.71-.02-5.75 2.78-4.04 2.8 1.7.05 5.74-2.78 4.04" class="u" fill="#c94376"></path><path d="M163.66 618.3c-2.82-1.7-.02-5.73 2.79-4.03 2.83 1.71.05 5.73-2.79 4.03m-27.87-.5c-2.82-1.7-.03-5.73 2.78-4.03 2.83 1.71.05 5.74-2.78 4.03" class="o" fill="#b82e61"></path><path d="M120.91 605.63c-2.83-1.71-.06-5.74 2.77-4.04s.03 5.73-2.77 4.04" class="u" fill="#c94376"></path><path d="M111.33 590c-2.84-1.72-.06-5.75 2.77-4.04 2.82 1.72.05 5.75-2.77 4.04" class="o" fill="#b82e61"></path><path d="M118.11 568.44c-2.8-1.69-.05-5.71 2.77-4.03 2.83 1.71.07 5.75-2.77 4.03" class="u" fill="#c94376"></path><path d="M130.17 559.38c-2.82-1.72-.06-5.73 2.77-4.05 2.83 1.71.06 5.74-2.77 4.05m35.06-.12c-2.82-1.7-.02-5.74 2.78-4.03 2.83 1.7.05 5.73-2.78 4.03" class="o" fill="#b82e61"></path><path d="M181.14 572.48c-2.84-1.72-.07-5.75 2.78-4.07 2.79 1.73.03 5.76-2.78 4.07" class="u" fill="#c94376"></path></g></svg>
