<svg xmlns="http://www.w3.org/2000/svg" data-name="Layer 1" style="" viewBox="0 0 512 555.84"><g><defs><linearGradient id="1770301555174-95582_b" x1="-338.17" x2="125.41" y1="838.05" y2="838.05" gradientTransform="scale(1 -1) rotate(-45 -933.581 -151.757)" gradientUnits="userSpaceOnUse"><stop offset=".16" stop-color="#ffbd2c"></stop><stop offset=".28" stop-color="#f9b72c"></stop><stop offset=".44" stop-color="#e7a72b"></stop><stop offset=".64" stop-color="#c98d2a"></stop><stop offset=".84" stop-color="#a06928"></stop><stop offset="1" stop-color="#7d4a26"></stop></linearGradient><linearGradient id="1770301555174-95582_c" x1="91.64" x2="158.05" y1="125.18" y2="58.77" gradientTransform="matrix(1 0 0 -1 -6.3 564.39)" gradientUnits="userSpaceOnUse"><stop offset="0" stop-color="#7d4a26"></stop><stop offset=".36" stop-color="#a97128"></stop><stop offset="1" stop-color="#ffbd2c"></stop></linearGradient><linearGradient id="1770301555174-95582_d" x1="-74.07" x2="-42.27" y1="557.83" y2="557.83" gradientTransform="scale(1 -1) rotate(-45 -986.172 -185.805)" gradientUnits="userSpaceOnUse"><stop offset="0" stop-color="#ffbd2c"></stop><stop offset=".64" stop-color="#a97128"></stop><stop offset="1" stop-color="#7d4a26"></stop></linearGradient><linearGradient id="1770301555174-95582_e" x1="-983.37" x2="-967.28" y1="340.48" y2="340.48" gradientTransform="scale(-1 1) rotate(45 -469.866 1060.675)" gradientUnits="userSpaceOnUse"><stop offset="0" stop-color="#ffbd2c"></stop><stop offset=".52" stop-color="#cc882b"></stop><stop offset="1" stop-color="#a15c2a"></stop></linearGradient></defs><path d="m357.25 154.78-43.05-6.14 6.15 43.02 43.03 6.16z" fill="#b8762a"></path><path d="M512 175.01c0-26.13-14.48-48.92-35.93-60.98 17.16-9.72 28.72-27.99 28.72-48.91 0-15.9-6.72-30.2-17.41-40.46h.02c-10.27-10.71-24.57-17.41-40.46-17.42-20.94 0-39.19 11.56-48.92 28.73C385.95 14.48 363.16 0 337.03 0c-38.76 0-70.15 31.79-70.15 71.02-.02 39.23 31.4 71.05 70.13 71.05 3.33.02 7 .31 10.21-.14l22.87 22.88c-.45 3.21-.15 6.86-.15 10.22 0 38.73 31.83 70.14 71.05 70.12 39.22.02 71.02-31.39 71-70.14Zm-70.94 46.72c-26.18.05-47.37-21.21-47.35-47.36-.02-10.14 3.15-19.44 8.6-27.13 0 0-7.02-7.04-1.67-35.85-28.82 5.36-35.84-1.67-35.84-1.67-7.71 5.46-16.99 8.62-27.14 8.61-26.16 0-47.39-21.19-47.37-47.36-.02-26.2 21.21-47.39 47.37-47.38 26.16-.02 47.39 21.19 47.39 47.35 0 .06.02.07 0 .09h26.78a38 38 0 0 1-.69-6.76c0-19.47 15.78-35.26 35.25-35.26 10.1 0 19.14 4.29 25.55 11.1 6.78 6.41 11.07 15.46 11.09 25.52 0 19.49-15.8 35.25-35.27 35.27-2.3 0-4.58-.29-6.75-.69l-.02 26.82s.06 0 .09-.02c26.18 0 47.37 21.21 47.37 47.38-.02 26.14-21.21 47.38-47.39 47.35Z" fill="url(#1770301555174-95582_b)"></path><path d="m55.02 509.34-19.9-19.9 100.46-100.46 19.9 19.9-9 9 12.69 12.73 9.03-9.02 33.77 33.79-24.27 24.26-26.06-26.06-16.9 16.9 26.07 26.06-17.91 17.92-26.07-26.05-16.9 16.89L126 531.35l-24.48 24.49-33.79-33.78 8.89-8.89-12.72-12.72z" fill="url(#1770301555174-95582_c)"></path><path d="M364.68 124.87C289.5 200.06 73.78 415.78 4.56 485.01c-14.26 14.26 8.22 36.72 22.47 22.47 65.49-65.47 291.81-291.81 360.12-360.12 14.27-14.28-8.2-36.75-22.47-22.49" fill="url(#1770301555174-95582_d)"></path><path d="m340.24 204.85-33.07-33.07c-8.29-8.28-19.63 3.09-11.37 11.38l33.05 33.07c8.29 8.27 19.65-3.09 11.39-11.38" fill="url(#1770301555174-95582_e)"></path></g></svg>
