<svg xmlns="http://www.w3.org/2000/svg" data-name="Layer 1" style="" viewBox="0 0 512 512.01"><g><defs><linearGradient id="1770301555176-588283_b" x1="159.79" x2="178.9" y1="222.61" y2="222.61" gradientTransform="scale(1 -1) rotate(-45 -779.84 50.488)" gradientUnits="userSpaceOnUse"><stop offset="0" stop-color="#e9f0f5"></stop><stop offset=".43" stop-color="#b6bdc1"></stop><stop offset="1" stop-color="#6e7578"></stop></linearGradient><linearGradient id="1770301555176-588283_e" x1="457.97" x2="521.72" y1="897.01" y2="897.01" gradientTransform="scale(1 -1) rotate(-45 -1371.2 748.691)" gradientUnits="userSpaceOnUse"><stop offset="0" stop-color="#889194"></stop><stop offset=".04" stop-color="#949ca0"></stop><stop offset=".2" stop-color="#c2cace"></stop><stop offset=".32" stop-color="#dee6ea"></stop><stop offset=".39" stop-color="#e9f0f5"></stop><stop offset=".64" stop-color="#b5bec1"></stop><stop offset=".85" stop-color="#889194"></stop></linearGradient><linearGradient id="1770301555176-588283_f" x1="450.01" x2="529.67" y1="1211.53" y2="1211.53" gradientTransform="scale(1 -1) rotate(-45 -1371.2 748.691)" gradientUnits="userSpaceOnUse"><stop offset="0" stop-color="#889194"></stop><stop offset="0" stop-color="#899295"></stop><stop offset=".1" stop-color="#b2babe"></stop><stop offset=".19" stop-color="#d0d8dc"></stop><stop offset=".27" stop-color="#e2eaee"></stop><stop offset=".32" stop-color="#e9f0f5"></stop><stop offset=".6" stop-color="#b5bec1"></stop><stop offset=".82" stop-color="#889194"></stop></linearGradient><linearGradient id="1770301555176-588283_h" x1="455.27" x2="524.41" y1="1490.44" y2="1490.44" gradientTransform="scale(1 -1) rotate(-45 -1371.2 748.691)" gradientUnits="userSpaceOnUse"><stop offset="0" stop-color="#889194"></stop><stop offset="0" stop-color="#899295"></stop><stop offset=".1" stop-color="#b2babe"></stop><stop offset=".19" stop-color="#d0d8dc"></stop><stop offset=".27" stop-color="#e2eaee"></stop><stop offset=".32" stop-color="#e9f0f5"></stop><stop offset=".6" stop-color="#b5bec1"></stop><stop offset=".82" stop-color="#889194"></stop></linearGradient><linearGradient id="1770301555176-588283_i" x1="456.38" x2="523.32" y1="944.48" y2="944.48" gradientTransform="scale(1 -1) rotate(-45 -1371.2 748.691)" gradientUnits="userSpaceOnUse"><stop offset="0" stop-color="#889194"></stop><stop offset="0" stop-color="#899295"></stop><stop offset=".1" stop-color="#b2babe"></stop><stop offset=".19" stop-color="#d0d8dc"></stop><stop offset=".27" stop-color="#e2eaee"></stop><stop offset=".32" stop-color="#e9f0f5"></stop><stop offset=".6" stop-color="#b5bec1"></stop><stop offset=".82" stop-color="#889194"></stop></linearGradient><linearGradient id="1770301555176-588283_j" x1="116.27" x2="154.19" y1="754.63" y2="754.63" gradientTransform="scale(1 -1) rotate(-45 -779.84 50.488)" gradientUnits="userSpaceOnUse"><stop offset="0" stop-color="#9eaaae"></stop><stop offset=".06" stop-color="#b3bdc1"></stop><stop offset=".17" stop-color="#d0d9de"></stop><stop offset=".26" stop-color="#e2eaef"></stop><stop offset=".32" stop-color="#e9f0f5"></stop><stop offset=".67" stop-color="#b5c0c4"></stop><stop offset=".82" stop-color="#9eaaae"></stop></linearGradient><radialGradient id="1770301555176-588283_c" cx="490.4" cy="1219.97" r="41.65" fx="490.4" fy="1219.97" gradientTransform="rotate(-45.008 -17401.535 -7389.243) scale(1 -12)" gradientUnits="userSpaceOnUse"><stop offset="0" stop-color="#4e5e67"></stop><stop offset=".17" stop-color="#49555f"></stop><stop offset=".46" stop-color="#3a3d4a"></stop><stop offset=".62" stop-color="#302c3b"></stop></radialGradient><radialGradient id="1770301555176-588283_d" cx="490.4" cy="1165.63" r="45.65" fx="490.4" fy="1165.63" gradientTransform="rotate(-45.008 -16958.36 -7205.67) scale(1 -12)" gradientUnits="userSpaceOnUse"><stop offset="0" stop-color="#4e5e67"></stop><stop offset=".17" stop-color="#49555f"></stop><stop offset=".46" stop-color="#3a3d4a"></stop><stop offset=".62" stop-color="#302c3b"></stop></radialGradient><radialGradient id="1770301555176-588283_g" cx="491.1" cy="1448.45" r="36.54" fx="491.1" fy="1448.45" gradientTransform="matrix(.7071 .7071 .86986 -.86962 -1131.45 949.88)" gradientUnits="userSpaceOnUse"><stop offset="0" stop-color="#4e5e67"></stop><stop offset=".17" stop-color="#49555f"></stop><stop offset=".46" stop-color="#3a3d4a"></stop><stop offset=".62" stop-color="#302c3b"></stop></radialGradient></defs><path d="M3.97 501.77c-6.43 12.07-5.51 12.51 6.26 6.26z" fill="#302c3b"></path><path d="m25.73 499.8-13.52-13.51s-.03.06-8.25 15.47l6.26 6.26c15.44-8.19 15.51-8.23 15.51-8.23Z" fill="url(#1770301555176-588283_b)"></path><path d="m256.45 199.24 56.33 56.33L483.35 73.7l-45.03-45.08z" fill="url(#1770301555176-588283_c)"></path><path d="m60.64 406.29 45.1 45.07 179.58-172.89-51.77-51.78z" fill="url(#1770301555176-588283_d)"></path><path d="M8.43 488.33 23.7 503.6l82.04-52.24-45.1-45.07z" fill="url(#1770301555176-588283_e)"></path><path d="m256.45 199.24 56.3 56.34-25.15 25.17-56.33-56.33z" fill="url(#1770301555176-588283_f)"></path><path d="m455.12 11.83 45.03 45.06c33.59-33.57-11.48-78.62-45.03-45.06" fill="url(#1770301555176-588283_g)"></path><path d="m436.42 26.72 48.85 48.89 16.8-16.78-48.87-48.9z" fill="url(#1770301555176-588283_h)"></path><path d="M62.68 402.01 110 449.33l-6.29 6.32-47.33-47.33z" fill="url(#1770301555176-588283_i)"></path><path d="M455.24 35.36c-.98-5.08-14.2-13.84-18.07-11.14-31.26 21.79-118.45 95.99-161.9 140.69 1.08 7.33 10.95 8.99 18.35 5.16 5.72-2.94 26.79-19.62 21.9-25.28 0 0 100.88-95.24 122.97-106.39 2.48-1.25 8.93-1.71 11.67 2.2 1.43 2.02 5.36-3.81 5.09-5.26Z" fill="#99a8ae"></path><path d="M455.24 35.36c-.72-7.26-15.15-16.42-22.08-12.11-6.54 4.05-153.47 126.31-157.62 140.62-1.15 3.99 10.47 7.24 20.28-2.86 41.3-42.49 140.38-131.86 150.57-132.24 3.96-.16 8.85 6.59 8.85 6.59" fill="url(#1770301555176-588283_j)"></path></g></svg>
