<svg xmlns="http://www.w3.org/2000/svg" data-name="Layer 1" style="" viewBox="0 0 512 447.94"><g><defs><linearGradient id="1770301555179-3148052_b" x1="227.17" x2="261.31" y1="66.57" y2="66.57" gradientTransform="matrix(1 0 0 -1 3.21 449.11)" gradientUnits="userSpaceOnUse"><stop offset="0" stop-color="#ff3641"></stop><stop offset=".27" stop-color="#fc343f"></stop><stop offset=".48" stop-color="#f22e39"></stop><stop offset=".66" stop-color="#e2242e"></stop><stop offset=".83" stop-color="#cc151f"></stop><stop offset=".98" stop-color="#af020b"></stop><stop offset="1" stop-color="#ab0009"></stop></linearGradient><linearGradient id="1770301555179-3148052_c" x1="237" x2="251.52" y1="121.18" y2="121.18" gradientTransform="matrix(1 0 0 -1 3.21 449.11)" gradientUnits="userSpaceOnUse"><stop offset="0" stop-color="#ff3641"></stop><stop offset=".27" stop-color="#fc343f"></stop><stop offset=".48" stop-color="#f22e39"></stop><stop offset=".66" stop-color="#e2242e"></stop><stop offset=".83" stop-color="#cc151f"></stop><stop offset=".98" stop-color="#af020b"></stop><stop offset="1" stop-color="#ab0009"></stop></linearGradient><linearGradient id="1770301555179-3148052_d" x1="179.65" x2="213.79" y1="49.33" y2="49.33" gradientTransform="matrix(1 0 0 -1 3.21 449.11)" gradientUnits="userSpaceOnUse"><stop offset="0" stop-color="#ff3641"></stop><stop offset=".27" stop-color="#fc343f"></stop><stop offset=".48" stop-color="#f22e39"></stop><stop offset=".66" stop-color="#e2242e"></stop><stop offset=".83" stop-color="#cc151f"></stop><stop offset=".98" stop-color="#af020b"></stop><stop offset="1" stop-color="#ab0009"></stop></linearGradient><linearGradient id="1770301555179-3148052_e" x1="189.47" x2="203.99" y1="103.93" y2="103.93" gradientTransform="matrix(1 0 0 -1 3.21 449.11)" gradientUnits="userSpaceOnUse"><stop offset="0" stop-color="#ff3641"></stop><stop offset=".27" stop-color="#fc343f"></stop><stop offset=".48" stop-color="#f22e39"></stop><stop offset=".66" stop-color="#e2242e"></stop><stop offset=".83" stop-color="#cc151f"></stop><stop offset=".98" stop-color="#af020b"></stop><stop offset="1" stop-color="#ab0009"></stop></linearGradient><linearGradient id="1770301555179-3148052_f" x1="371.91" x2="391.64" y1="383" y2="176.58" gradientTransform="matrix(1 0 0 -1 3.21 449.11)" gradientUnits="userSpaceOnUse"><stop offset="0" stop-color="#f7dd45"></stop><stop offset=".18" stop-color="#f5d742"></stop><stop offset=".43" stop-color="#efc538"></stop><stop offset=".72" stop-color="#e5a729"></stop><stop offset="1" stop-color="#d98416"></stop></linearGradient><linearGradient id="1770301555179-3148052_g" x1="-900.99" x2="-880.09" y1="522.67" y2="522.67" gradientTransform="scale(-1 1) rotate(45 -192.186 860.223)" gradientUnits="userSpaceOnUse"><stop offset="0" stop-color="#e69800"></stop><stop offset=".15" stop-color="#e19500"></stop><stop offset=".31" stop-color="#d48c00"></stop><stop offset=".48" stop-color="#be7d00"></stop><stop offset=".65" stop-color="#9e6800"></stop><stop offset=".83" stop-color="#774e00"></stop><stop offset="1" stop-color="#4a3000"></stop></linearGradient><linearGradient id="1770301555179-3148052_h" x1="61.68" x2="61.68" y1="279.06" y2="353.18" gradientTransform="scale(1 -1) rotate(-18.1 -1628.255 -135.391)" gradientUnits="userSpaceOnUse"><stop offset="0" stop-color="#d98416"></stop><stop offset=".28" stop-color="#e5a729"></stop><stop offset=".57" stop-color="#efc538"></stop><stop offset=".82" stop-color="#f5d742"></stop><stop offset="1" stop-color="#f7dd45"></stop></linearGradient><linearGradient id="1770301555179-3148052_j" x1="161.08" x2="172.96" y1="187.03" y2="187.03" gradientTransform="matrix(1 0 0 -1 3.21 449.11)" gradientUnits="userSpaceOnUse"><stop offset="0" stop-color="#ff3641"></stop><stop offset=".27" stop-color="#fc343f"></stop><stop offset=".48" stop-color="#f22e39"></stop><stop offset=".66" stop-color="#e2242e"></stop><stop offset=".83" stop-color="#cc151f"></stop><stop offset=".98" stop-color="#af020b"></stop><stop offset="1" stop-color="#ab0009"></stop></linearGradient><linearGradient id="1770301555179-3148052_k" x1="172.97" x2="184.85" y1="183.54" y2="183.54" gradientTransform="matrix(1 0 0 -1 3.21 449.11)" gradientUnits="userSpaceOnUse"><stop offset="0" stop-color="#ff3641"></stop><stop offset=".27" stop-color="#fc343f"></stop><stop offset=".48" stop-color="#f22e39"></stop><stop offset=".66" stop-color="#e2242e"></stop><stop offset=".83" stop-color="#cc151f"></stop><stop offset=".98" stop-color="#af020b"></stop><stop offset="1" stop-color="#ab0009"></stop></linearGradient><linearGradient id="1770301555179-3148052_l" x1="184.84" x2="196.73" y1="182.01" y2="182.01" gradientTransform="matrix(1 0 0 -1 3.21 449.11)" gradientUnits="userSpaceOnUse"><stop offset="0" stop-color="#ff3641"></stop><stop offset=".27" stop-color="#fc343f"></stop><stop offset=".48" stop-color="#f22e39"></stop><stop offset=".66" stop-color="#e2242e"></stop><stop offset=".83" stop-color="#cc151f"></stop><stop offset=".98" stop-color="#af020b"></stop><stop offset="1" stop-color="#ab0009"></stop></linearGradient><linearGradient id="1770301555179-3148052_m" x1="196.73" x2="208.62" y1="179.11" y2="179.11" gradientTransform="matrix(1 0 0 -1 3.21 449.11)" gradientUnits="userSpaceOnUse"><stop offset="0" stop-color="#ff3641"></stop><stop offset=".27" stop-color="#fc343f"></stop><stop offset=".48" stop-color="#f22e39"></stop><stop offset=".66" stop-color="#e2242e"></stop><stop offset=".83" stop-color="#cc151f"></stop><stop offset=".98" stop-color="#af020b"></stop><stop offset="1" stop-color="#ab0009"></stop></linearGradient><linearGradient id="1770301555179-3148052_n" x1="208.62" x2="220.5" y1="177.72" y2="177.72" gradientTransform="matrix(1 0 0 -1 3.21 449.11)" gradientUnits="userSpaceOnUse"><stop offset="0" stop-color="#ff3641"></stop><stop offset=".27" stop-color="#fc343f"></stop><stop offset=".48" stop-color="#f22e39"></stop><stop offset=".66" stop-color="#e2242e"></stop><stop offset=".83" stop-color="#cc151f"></stop><stop offset=".98" stop-color="#af020b"></stop><stop offset="1" stop-color="#ab0009"></stop></linearGradient><linearGradient id="1770301555179-3148052_o" x1="268.03" x2="279.91" y1="190.52" y2="190.52" gradientTransform="matrix(1 0 0 -1 3.21 449.11)" gradientUnits="userSpaceOnUse"><stop offset="0" stop-color="#ff3641"></stop><stop offset=".27" stop-color="#fc343f"></stop><stop offset=".48" stop-color="#f22e39"></stop><stop offset=".66" stop-color="#e2242e"></stop><stop offset=".83" stop-color="#cc151f"></stop><stop offset=".98" stop-color="#af020b"></stop><stop offset="1" stop-color="#ab0009"></stop></linearGradient><linearGradient id="1770301555179-3148052_p" x1="256.14" x2="268.03" y1="185.83" y2="185.83" gradientTransform="matrix(1 0 0 -1 3.21 449.11)" gradientUnits="userSpaceOnUse"><stop offset="0" stop-color="#ff3641"></stop><stop offset=".27" stop-color="#fc343f"></stop><stop offset=".48" stop-color="#f22e39"></stop><stop offset=".66" stop-color="#e2242e"></stop><stop offset=".83" stop-color="#cc151f"></stop><stop offset=".98" stop-color="#af020b"></stop><stop offset="1" stop-color="#ab0009"></stop></linearGradient><linearGradient id="1770301555179-3148052_q" x1="244.25" x2="256.14" y1="182.01" y2="182.01" gradientTransform="matrix(1 0 0 -1 3.21 449.11)" gradientUnits="userSpaceOnUse"><stop offset="0" stop-color="#ff3641"></stop><stop offset=".27" stop-color="#fc343f"></stop><stop offset=".48" stop-color="#f22e39"></stop><stop offset=".66" stop-color="#e2242e"></stop><stop offset=".83" stop-color="#cc151f"></stop><stop offset=".98" stop-color="#af020b"></stop><stop offset="1" stop-color="#ab0009"></stop></linearGradient><linearGradient id="1770301555179-3148052_r" x1="232.39" x2="244.26" y1="179.11" y2="179.11" gradientTransform="matrix(1 0 0 -1 3.21 449.11)" gradientUnits="userSpaceOnUse"><stop offset="0" stop-color="#ff3641"></stop><stop offset=".27" stop-color="#fc343f"></stop><stop offset=".48" stop-color="#f22e39"></stop><stop offset=".66" stop-color="#e2242e"></stop><stop offset=".83" stop-color="#cc151f"></stop><stop offset=".98" stop-color="#af020b"></stop><stop offset="1" stop-color="#ab0009"></stop></linearGradient><linearGradient id="1770301555179-3148052_s" x1="220.5" x2="232.39" y1="177.72" y2="177.72" gradientTransform="matrix(1 0 0 -1 3.21 449.11)" gradientUnits="userSpaceOnUse"><stop offset="0" stop-color="#ff3641"></stop><stop offset=".27" stop-color="#fc343f"></stop><stop offset=".48" stop-color="#f22e39"></stop><stop offset=".66" stop-color="#e2242e"></stop><stop offset=".83" stop-color="#cc151f"></stop><stop offset=".98" stop-color="#af020b"></stop><stop offset="1" stop-color="#ab0009"></stop></linearGradient><linearGradient id="1770301555179-3148052_t" x1="-435.21" x2="-380.15" y1="446.04" y2="446.04" gradientTransform="scale(1 -1) rotate(45 568.229 667.438)" gradientUnits="userSpaceOnUse"><stop offset="0" stop-color="#d98416"></stop><stop offset=".42" stop-color="#e6ab2b"></stop><stop offset="1" stop-color="#f7dd45"></stop></linearGradient><radialGradient id="1770301555179-3148052_i" cx="217.67" cy="331.38" r="153.7" fx="217.67" fy="331.38" gradientTransform="matrix(1 0 0 -1 3.21 449.11)" gradientUnits="userSpaceOnUse"><stop offset="0" stop-color="#f7dd45"></stop><stop offset=".44" stop-color="#f6db44"></stop><stop offset=".61" stop-color="#f4d440"></stop><stop offset=".73" stop-color="#f0c83a"></stop><stop offset=".83" stop-color="#eab731"></stop><stop offset=".92" stop-color="#e3a025"></stop><stop offset="1" stop-color="#d98517"></stop><stop offset="1" stop-color="#d98416"></stop></radialGradient></defs><path d="M251.54 270.65v53.68c0 6.16-8.08 6.16-8.08 0v-53.68c-.08-6.64 8.08-6.64 8.08 0" class="an" fill="#b00505"></path><path d="M247.46 334.89c-14.88-6.96-18.16 53.68-16.8 75.36.16-1.52.56-14.24 1.76-22.72-.88 16.16-.48 33.84-.48 35.6s2.32 2.64 2.32 2.64c-.4-9.92.56-19.92.56-19.92s-.72 12.8.24 20.8c2.96 2.16 5.52 2.64 5.52 2.64-.56-12 1.68-46.24 1.68-46.24s-1.6 31.44-.32 46.96c2.08.64 5.68.72 5.68.72s3.6-.08 5.6-.72c1.28-15.52-.32-46.96-.32-46.96s2.24 34.24 1.68 46.24c0 0 2.56-.48 5.52-2.64.96-8 .16-20.8.16-20.8s.96 10 .56 19.92c0 0 2.32-.88 2.32-2.64s.4-19.52-.48-35.6c1.2 8.48 1.6 21.28 1.76 22.72 1.2-21.6-2.08-82.32-16.96-75.36" fill="url(#1770301555179-3148052_b)"></path><path d="M252.66 334.89c0 2.72-10.48 2.72-10.48 0s10.48-2.72 10.48 0" class="an" fill="#b00505"></path><path d="M254.74 327.93c0 9.92-14.48 9.92-14.48 0-.08-9.92 14.48-9.92 14.48 0" fill="url(#1770301555179-3148052_c)"></path><path d="M204.02 287.85v53.68c0 6.16-8.08 6.16-8.08 0v-53.68c-.08-6.64 8.08-6.64 8.08 0" class="an" fill="#b00505"></path><path d="M199.94 352.18c-14.88-6.96-18.16 53.68-16.8 75.36.16-1.52.56-14.24 1.76-22.8-.88 16.16-.48 33.84-.48 35.6s2.32 2.64 2.32 2.64c-.4-9.92.56-19.92.56-19.92s-.72 12.8.24 20.8c2.96 2.16 5.52 2.64 5.52 2.64-.56-12 1.68-46.24 1.68-46.24s-1.6 31.44-.32 46.96c2.08.64 5.68.72 5.68.72s3.6-.08 5.6-.72c1.28-15.52-.32-46.96-.32-46.96s2.24 34.24 1.68 46.24c0 0 2.56-.48 5.52-2.64.96-8 .24-20.8.24-20.8s.88 10 .56 19.92c0 0 2.32-.88 2.32-2.64s.4-19.52-.48-35.6c1.2 8.48 1.6 21.28 1.76 22.8 1.12-21.68-2.16-82.32-17.04-75.36" fill="url(#1770301555179-3148052_d)"></path><path d="M205.14 352.18c0 2.72-10.48 2.72-10.48 0 .08-2.72 10.48-2.72 10.48 0" class="an" fill="#b00505"></path><path d="M207.22 345.22c0 9.92-14.56 9.92-14.56 0s14.56-10 14.56 0" fill="url(#1770301555179-3148052_e)"></path><path d="M383.79 65.28c-4.08 12.88 6.16 58.32-7.36 87.92-14.4 31.52-53.84 70-102.56 93.2v37.68c60.48-26.8 124.65-68.56 154.81-78.24 18.08-5.84 67.28-8.56 80.56-13.92L383.79 65.27Z" fill="url(#1770301555179-3148052_f)"></path><path d="M384.35 62.8C372.19 75.12 499.4 203.69 511.56 191.29c8.88-8.96-118.33-137.45-127.21-128.49" fill="#f7dd45"></path><path d="M385.63 63.04c-11.36 11.44 114.32 138.49 125.69 127.05 8.24-8.32-117.45-135.37-125.69-127.05" fill="url(#1770301555179-3148052_g)"></path><path d="M186.82 252.97c-73.2-6.96-94.16-35.2-128.33-69.28l-19.04 19.04c30 28.88 72.08 77.6 144.25 84.48 9.52.96 12.72-33.36 3.12-34.24" fill="url(#1770301555179-3148052_h)"></path><path d="M219.54 0C139.46 0 74.58 65.52 74.58 146.41s64.96 146.41 144.97 146.41 144.97-65.52 144.97-146.41S299.63 0 219.54 0m0 253.45c-58.56 0-106-47.92-106-107.04s47.44-107.04 106-107.04 106 47.92 106 107.04-47.44 107.04-106 107.04" fill="url(#1770301555179-3148052_i)"></path><path d="M164.26 235.45v53.68c0 6.08 11.92 6.08 11.92 0v-53.68c0-6.64-11.92-6.64-11.92 0" fill="url(#1770301555179-3148052_j)"></path><path d="M176.18 238.97v53.68c0 6.08 11.92 6.08 11.92 0v-53.68c-.08-6.72-11.92-6.72-11.92 0" fill="url(#1770301555179-3148052_k)"></path><path d="M188.02 240.41v53.68c0 6.16 11.92 6.16 11.92 0v-53.68c0-6.56-11.92-6.56-11.92 0" fill="url(#1770301555179-3148052_l)"></path><path d="M199.94 243.37v53.68c0 6.08 11.92 6.08 11.92 0v-53.68c0-6.64-11.92-6.64-11.92 0" fill="url(#1770301555179-3148052_m)"></path><path d="M211.86 244.73v53.68c0 6.16 11.92 6.16 11.92 0v-53.68c-.08-6.64-11.92-6.64-11.92 0" fill="url(#1770301555179-3148052_n)"></path><path d="M283.15 231.93v53.68c0 6.16-11.92 6.16-11.92 0v-53.68c0-6.64 11.92-6.64 11.92 0" fill="url(#1770301555179-3148052_o)"></path><path d="M271.23 236.65v53.68c0 6.08-11.92 6.08-11.92 0v-53.68c.08-6.64 11.92-6.64 11.92 0" fill="url(#1770301555179-3148052_p)"></path><path d="M259.39 240.41v53.68c0 6.16-11.92 6.16-11.92 0v-53.68c0-6.56 11.92-6.56 11.92 0" fill="url(#1770301555179-3148052_q)"></path><path d="M247.46 243.37v53.68c0 6.08-11.84 6.08-11.84 0v-53.68c0-6.64 11.84-6.64 11.84 0" fill="url(#1770301555179-3148052_r)"></path><path d="M235.62 244.73v53.68c0 6.16-11.92 6.16-11.92 0v-53.68c0-6.64 11.92-6.64 11.92 0" fill="url(#1770301555179-3148052_s)"></path><path d="M37.94 144.57c-3.6-1.04-13.52 6.72-22.32 15.52-8.81 8.8-16.57 18.72-15.53 22.32.56 1.92 5.2 7.68 8.16 4.72 5.92-5.92 20.64-3.6 20.64 6.56 0 7.04 9.2 3.12 9.2 9.52 0 7.36 8.24 2.56 15.76-4.96s12.32-15.76 4.96-15.76c-6.48 0-2.48-9.2-9.52-9.2-10.16 0-12.48-14.72-6.56-20.64 2.88-2.88-2.88-7.52-4.8-8.08Z" fill="url(#1770301555179-3148052_t)"></path><path d="M42.82 151.93S25.7 170.09 7.54 187.21c21.84-16.48 35.28-35.28 35.28-35.28m11.44 27.36s-9.44 10-19.44 19.44c12-9.12 19.44-19.44 19.44-19.44m-25.2 13.68s9.44-10 19.44-19.44c-12 9.12-19.44 19.44-19.44 19.44m29.68-10.24s-9.92 10.56-20.48 20.48c12.64-9.6 20.48-20.48 20.48-20.48" style="isolation:isolate" fill="#d98416" opacity=".3"></path></g></svg>
