<svg xmlns="http://www.w3.org/2000/svg" data-name="Layer 1" style="" viewBox="0 0 512 667.82"><g><defs><radialGradient id="1770301555193-7491127_b" cx="305.85" cy="1348.22" r="504.99" fx="305.85" fy="1348.22" gradientTransform="matrix(.94 0 0 .9 -30.28 -874.48)" gradientUnits="userSpaceOnUse"><stop offset="0" stop-color="#f90"></stop><stop offset=".33" stop-color="#ff9600"></stop><stop offset=".59" stop-color="#ff8c00"></stop><stop offset=".83" stop-color="#ff7b00"></stop><stop offset="1" stop-color="#ff6a00"></stop></radialGradient><radialGradient id="1770301555193-7491127_e" cx="234.45" cy="1645.66" r="293.27" fx="234.45" fy="1645.66" gradientTransform="matrix(1.05 0 0 .75 10.89 -793.11)" gradientUnits="userSpaceOnUse"><stop offset="0" stop-color="#99a8ae"></stop><stop offset=".3" stop-color="#95a4aa"></stop><stop offset=".62" stop-color="#88989f"></stop><stop offset=".95" stop-color="#72848c"></stop><stop offset="1" stop-color="#6e8088"></stop></radialGradient><linearGradient id="1770301555193-7491127_c" x1="-886.32" x2="-438.91" y1="1686.8" y2="1686.8" gradientTransform="rotate(-90 -875.375 425.535)" gradientUnits="userSpaceOnUse"><stop offset="0" stop-color="#99a8ae"></stop><stop offset=".29" stop-color="#94a3aa"></stop><stop offset=".63" stop-color="#85969d"></stop><stop offset="1" stop-color="#6e8088"></stop></linearGradient><linearGradient id="1770301555193-7491127_d" x1="-886.32" x2="-438.91" y1="369.73" y2="369.73" gradientTransform="matrix(0 -1 -1 0 495.81 -449.84)" gradientUnits="userSpaceOnUse"><stop offset="0" stop-color="#99a8ae"></stop><stop offset=".29" stop-color="#94a3aa"></stop><stop offset=".63" stop-color="#85969d"></stop><stop offset="1" stop-color="#6e8088"></stop></linearGradient></defs><path d="M506.04 290.42c-72.12-44.13-64.43-157.39-64.43-195.48V27.77L331.72 5.74C310.94 17.27 275.66 25.73 256 25.73s-54.96-8.46-75.75-19.98L70.39 27.78v67.17c0 38.09 7.67 151.35-64.43 195.48 0 0 22.83 92.19 22.83 156.35s-24.5 193.48-9.57 207.5c7.45 7.02 209.85 10.54 221.32 10.54 5.18 0 10.1-23.37 15.47-23.37s12.72 23.06 14.31 23.06c62.08 0 216.26-4.37 222.49-10.24 14.94-14.05-9.61-143.35-9.61-207.5s22.83-156.35 22.83-156.35Z" fill="url(#1770301555193-7491127_b)"></path><path d="M357.1 415.65h55.19c5.77-131.1-.09-263.69-5.48-394.84L363 12.03c5.98 134.82.16 268.79-5.91 403.63Z" fill="url(#1770301555193-7491127_c)"></path><path d="M351.28 415.65h11.63c6-134.02 6-269.56.11-403.63l-11.79-2.37c6.02 134.82 6.1 271.19.04 406Zm55.11 0h11.74c5.71-130.35 5.71-262.06.41-392.5l-11.7-2.35c5.39 131.21 5.32 263.73-.46 394.84Z" class="m" fill="#fbff00"></path><path d="M154.87 415.65H99.69c-5.78-131.1.07-263.69 5.44-394.84l43.84-8.78c-5.98 134.82-.13 268.79 5.9 403.63Z" fill="url(#1770301555193-7491127_d)"></path><path d="M160.69 415.65h-11.61c-6-134.02-6-269.56-.11-403.63l11.8-2.37c-6.04 134.82-6.12 271.19-.08 406m-55.11 0H93.86c-5.74-130.35-5.74-262.06-.41-392.5l11.68-2.35c-5.39 131.21-5.31 263.73.46 394.84Z" class="m" fill="#fbff00"></path><path d="M485.9 403.04a3826 3826 0 0 1-459.84 0c1.64 15.07 2.72 30.04 2.72 43.72 0 5.5-.2 11.48-.5 17.81 151.69 8.89 303.74 8.89 455.41 0-.28-6.32-.5-12.3-.5-17.81 0-13.68 1.07-28.66 2.72-43.72Z" fill="url(#1770301555193-7491127_e)"></path><path d="M485.26 408.84c.39-3.85.82-7.71 1.28-11.59-152.97 9.24-308.13 9.24-461.1 0 .46 3.87.89 7.74 1.27 11.59 152.18 9.09 306.38 9.09 458.55 0M28.52 458.87c-.13 3.65-.33 7.48-.57 11.41 75.77 4.45 152.32 6.8 228.04 6.8s152.24-2.35 228.02-6.8c-.23-3.94-.43-7.76-.57-11.41-150.99 8.84-303.93 8.84-454.93 0Z" class="m" fill="#fbff00"></path><path d="M256 228.5S323.02 67.66 331.71 5.74c0 0-63.88 45.96-151.47 0 .02 38.01 49.81 145.94 75.75 222.76Z" fill="#ff8100"></path><path d="M506.01 296.13c-1.09 0-2.17-.3-3.17-.91-69.31-42.37-67.92-145.93-67.3-190.15.07-3.76.11-7.18.11-10.13V27.77c0-3.15 2.67-5.72 5.98-5.72s5.95 2.56 5.95 5.72v67.17c0 3.01-.04 6.46-.11 10.28-.66 45.89-1.94 141.39 61.74 180.34 2.78 1.69 3.65 5.24 1.85 7.91-1.14 1.7-3.06 2.65-5.04 2.65Zm-500.05 0c-1.98 0-3.9-.96-5.02-2.63-1.77-2.69-.96-6.22 1.83-7.91 63.7-38.98 62.4-134.45 61.76-180.34-.04-3.85-.09-7.3-.09-10.28v-67.2c0-3.15 2.65-5.72 5.95-5.72s5.98 2.56 5.98 5.72v67.17c0 2.96.04 6.37.09 10.13.59 44.22 2.03 147.78-67.29 190.15-.98.61-2.1.91-3.21.91" class="o" fill="#302c3b"></path><path d="M258.58 30.55c-45.22 0-79.22-18.68-81.32-19.85-2.84-1.63-3.8-5.11-2.16-7.85 1.66-2.74 5.31-3.65 8.14-2.07.75.41 73.75 40.35 145.47 0 2.83-1.59 6.48-.7 8.13 2.05 1.67 2.76.71 6.24-2.15 7.87-26.46 14.87-52.78 19.85-76.11 19.85" fill="#1a1626"></path><path d="M250.05 265.37v346.38h11.89V265.37c0-44.68-20.52-93.74-40.37-141.15-18.21-43.5-35.39-84.57-35.39-118.48 0-3.17-2.65-5.72-5.94-5.72s-5.95 2.55-5.95 5.72c0 36.11 17.62 78.19 36.25 122.76 19.42 46.4 39.52 94.42 39.52 136.88Z" class="o" fill="#302c3b"></path><path d="M261.95 641.43V265.37c0-42.45 20.07-90.48 39.5-136.87 18.63-44.57 36.22-86.63 36.22-122.76 0-3.17-2.65-5.72-5.95-5.72s-5.95 2.55-5.95 5.72c0 33.91-17.2 74.97-35.35 118.48-19.85 47.41-40.37 96.48-40.37 141.15v376.06h11.91Z" class="o" fill="#302c3b"></path><path d="M422.58 165.44h-67.63v-17h67.41zm-333.17 0h67.63v-17H89.62z" fill="#607078"></path><path d="M494.36 652.97c-73.62 4.02-142.76 6.41-221.99 6.41-1.51 0-10.42-24.95-16.37-24.95s-14.86 24.95-16.37 24.95c-79.24 0-148.38-2.39-221.99-6.41-2.83-.2-3.17 3.97-.37 4.29 72.81 6.91 144.59 10.56 224.01 10.56 7.96 0 11.74-22.26 14.71-22.26s6.76 22.26 14.73 22.26c79.41 0 151.2-3.65 224.02-10.56 2.8-.31 2.46-4.49-.37-4.29Z" fill="#ea7d00"></path></g></svg>
