<svg xmlns="http://www.w3.org/2000/svg" data-name="Layer 1" style="" viewBox="0 0 512 336.02"><g><defs><radialGradient id="1770301555202-6223147_b" cx="477.3" cy="191.83" r="24.81" fx="477.3" fy="191.83" gradientTransform="matrix(1 0 0 -1.04 0 365.05)" gradientUnits="userSpaceOnUse"><stop offset="0" stop-color="#defbff"></stop><stop offset=".29" stop-color="#dafafe"></stop><stop offset=".58" stop-color="#cef7fc"></stop><stop offset=".87" stop-color="#b9f2f9"></stop><stop offset="1" stop-color="#aeeff7"></stop></radialGradient><radialGradient id="1770301555202-6223147_c" cx="488.7" cy="150.07" r="38.14" fx="488.7" fy="150.07" gradientTransform="matrix(1 0 0 -1.04 0 365.05)" gradientUnits="userSpaceOnUse"><stop offset="0" stop-color="#defbff"></stop><stop offset=".29" stop-color="#dafafe"></stop><stop offset=".58" stop-color="#cef7fc"></stop><stop offset=".87" stop-color="#b9f2f9"></stop><stop offset="1" stop-color="#aeeff7"></stop></radialGradient><radialGradient id="1770301555202-6223147_g" cx="105.8" cy="336.93" r="22.32" fx="105.8" fy="336.93" gradientTransform="matrix(1 0 0 -1.04 0 365.05)" gradientUnits="userSpaceOnUse"><stop offset="0" stop-color="#defbff"></stop><stop offset=".29" stop-color="#dafafe"></stop><stop offset=".58" stop-color="#cef7fc"></stop><stop offset=".87" stop-color="#b9f2f9"></stop><stop offset="1" stop-color="#aeeff7"></stop></radialGradient><radialGradient id="1770301555202-6223147_h" cx="67.75" cy="324.84" r="32.76" fx="67.75" fy="324.84" gradientTransform="matrix(1 0 0 -1.04 0 365.05)" gradientUnits="userSpaceOnUse"><stop offset="0" stop-color="#defbff"></stop><stop offset=".29" stop-color="#dafafe"></stop><stop offset=".58" stop-color="#cef7fc"></stop><stop offset=".87" stop-color="#b9f2f9"></stop><stop offset="1" stop-color="#aeeff7"></stop></radialGradient><radialGradient id="1770301555202-6223147_i" cx="37.93" cy="301.51" r="20.02" fx="37.93" fy="301.51" gradientTransform="matrix(1 0 0 -1.04 0 365.05)" gradientUnits="userSpaceOnUse"><stop offset="0" stop-color="#defbff"></stop><stop offset=".29" stop-color="#dafafe"></stop><stop offset=".58" stop-color="#cef7fc"></stop><stop offset=".87" stop-color="#b9f2f9"></stop><stop offset="1" stop-color="#aeeff7"></stop></radialGradient><radialGradient id="1770301555202-6223147_j" cx="174.32" cy="322.53" r="20.02" fx="174.32" fy="322.53" gradientTransform="matrix(1 0 0 -1.04 0 365.05)" gradientUnits="userSpaceOnUse"><stop offset="0" stop-color="#defbff"></stop><stop offset=".29" stop-color="#dafafe"></stop><stop offset=".58" stop-color="#cef7fc"></stop><stop offset=".87" stop-color="#b9f2f9"></stop><stop offset="1" stop-color="#aeeff7"></stop></radialGradient><radialGradient id="1770301555202-6223147_k" cx="473.35" cy="116.92" r="43.85" fx="473.35" fy="116.92" gradientTransform="matrix(1 0 0 -1.04 0 365.05)" gradientUnits="userSpaceOnUse"><stop offset="0" stop-color="#defbff"></stop><stop offset=".29" stop-color="#dafafe"></stop><stop offset=".58" stop-color="#cef7fc"></stop><stop offset=".87" stop-color="#b9f2f9"></stop><stop offset="1" stop-color="#aeeff7"></stop></radialGradient><radialGradient id="1770301555202-6223147_l" cx="431.52" cy="77.08" r="38.14" fx="431.52" fy="77.08" gradientTransform="matrix(1 0 0 -1.04 0 365.05)" gradientUnits="userSpaceOnUse"><stop offset="0" stop-color="#defbff"></stop><stop offset=".29" stop-color="#dafafe"></stop><stop offset=".58" stop-color="#cef7fc"></stop><stop offset=".87" stop-color="#b9f2f9"></stop><stop offset="1" stop-color="#aeeff7"></stop></radialGradient><radialGradient id="1770301555202-6223147_m" cx="371.6" cy="57.6" r="24.81" fx="371.6" fy="57.6" gradientTransform="matrix(1 0 0 -1.04 0 365.05)" gradientUnits="userSpaceOnUse"><stop offset="0" stop-color="#defbff"></stop><stop offset=".29" stop-color="#dafafe"></stop><stop offset=".58" stop-color="#cef7fc"></stop><stop offset=".87" stop-color="#b9f2f9"></stop><stop offset="1" stop-color="#aeeff7"></stop></radialGradient><radialGradient id="1770301555202-6223147_n" cx="267.85" cy="57.96" r="20.02" fx="267.85" fy="57.96" gradientTransform="matrix(1 0 0 -1.04 0 365.05)" gradientUnits="userSpaceOnUse"><stop offset="0" stop-color="#defbff"></stop><stop offset=".29" stop-color="#dafafe"></stop><stop offset=".58" stop-color="#cef7fc"></stop><stop offset=".87" stop-color="#b9f2f9"></stop><stop offset="1" stop-color="#aeeff7"></stop></radialGradient><linearGradient id="1770301555202-6223147_d" x1="233.03" x2="233.03" y1="58.48" y2="326.63" gradientTransform="matrix(1 0 0 -1 0 338.02)" gradientUnits="userSpaceOnUse"><stop offset="0" stop-color="#ffadc9"></stop><stop offset="1" stop-color="#f69"></stop></linearGradient><linearGradient id="1770301555202-6223147_e" x1="233.05" x2="233.05" y1="128.4" y2="314.21" gradientTransform="matrix(1 0 0 -1 0 338.02)" gradientUnits="userSpaceOnUse"><stop offset="0" stop-color="#f69"></stop><stop offset="1" stop-color="#f9b"></stop></linearGradient><linearGradient id="1770301555202-6223147_f" x1="233.01" x2="233.01" y1="17.1" y2="161.37" gradientTransform="matrix(1 0 0 -1 0 338.02)" gradientUnits="userSpaceOnUse"><stop offset="0" stop-color="#ffa6c4"></stop><stop offset="1" stop-color="#f69"></stop></linearGradient></defs><path d="M454.39 156c-14.96 19.84-7.52 45.28 22.8 42.08 43.12-4.48 3.28-76.72-22.8-42.08" fill="url(#1770301555202-6223147_b)"></path><path d="M450.31 190.32c-39.6 30.32 9.28 82.64 45.12 62.72 35.76-19.84 10.4-105.28-45.12-62.72" fill="url(#1770301555202-6223147_c)"></path><path d="M465.43 174.64c-6.64-31.04-30.16-103.2-44.72-131.75-21.35-42-354.06-42-375.42 0C30.73 71.53 7.21 143.6.57 174.64c-3.52 16.64 10.32 85.52 10.32 85.52 3.92 25.84 440.06 25.84 443.9 0 .08 0 14.4-67.84 10.64-85.52" fill="url(#1770301555202-6223147_d)"></path><path d="M450.15 173.52c-6.24-28.48-28.16-94.56-41.76-120.79-20-38.56-330.79-38.56-350.71 0-13.6 26.24-35.6 92.32-41.76 120.79-10.4 47.68 444.78 48.56 434.22 0Z" fill="url(#1770301555202-6223147_e)"></path><path d="M.33 176.64c-2.32 19.36 10.56 83.52 10.56 83.52 3.92 25.84 34.08 43.44 50.24 46.96 84.24 18.4 259.19 18.4 343.43 0 16.16-3.52 46.4-21.12 50.24-46.96 0 0 13.28-62.88 10.88-83.28 0 60.48-465.34 65.92-465.34-.24Z" fill="url(#1770301555202-6223147_f)"></path><path d="M88.89 129.77c4.96 5.76 12.24 9.84 19.68 9.84 8.4 0 13.12-3.52 14.16-9.12 1.04-5.84-3.6-7.6-10.48-10.96l-10.08-4.96c-8.08-3.68-14.64-11.04-11.6-23.28 3.36-13.28 17.68-23.36 34.08-23.36 9.12 0 18.16 3.52 24 10.08l-11.12 11.36c-4.72-4.08-9.44-6.4-15.92-6.4s-10.96 2.72-12 7.28c-1.12 5.04 4 6.8 10.72 9.84l9.92 4.4c9.6 4.24 15.04 11.36 13.12 24.16-2.32 15.76-17.2 30.16-39.2 30.16-12.08 0-23.6-4.96-30.64-14.4zm67.68-20.16c3.6-27.2 20.24-41.6 41.52-41.6s36 14.64 36 41.6c-.08 29.84-17.12 49.28-42.08 49.28s-39.36-19.44-35.44-49.28m57.75 0c.56-16.88-6.08-26.56-17.2-26.56s-19.12 9.68-20.8 26.56c-1.76 18 4.88 30 16.96 30s20.4-12 21.04-30m76.8 24.16h-27.28l-4.56 23.28h-21.2l24.64-87.68h21.52l36.64 87.68H298.8zm-5.44-16.16-2.8-8.08c-3.04-8.56-5.92-18.4-8.8-26.8h-.48c-1.28 8.56-3.04 18.24-4.88 26.8l-1.68 8.08zm31.92-48.24h29.04c17.36 0 32.72 6.08 37.68 25.52 5.12 20.08-8.16 29.52-26.64 29.52H345.6l5.92 32.64h-20.96zm35.68 39.04c10.56 0 14.64-4.72 12.64-13.52-1.92-8.48-7.84-11.6-17.6-11.6h-10.16l4.48 25.12z" fill="#e65181"></path><path d="M95.69 8.41c-13.44 17.92-6.8 40.72 20.56 37.84 38.72-4 2.88-68.96-20.56-37.84" fill="url(#1770301555202-6223147_g)"></path><path d="M50.89 13.85c-19.76 26.24-9.92 59.76 30.08 55.52 56.96-5.92 4.4-101.2-30.08-55.52" fill="url(#1770301555202-6223147_h)"></path><path d="M28.33 44.09c-12.08 16.08-6.08 36.48 18.4 33.92 34.72-3.6 2.64-61.84-18.4-33.92" fill="url(#1770301555202-6223147_i)"></path><path d="M163.29 22.33c-12.08 16.08-6.08 36.48 18.4 33.92 34.8-3.6 2.64-61.84-18.4-33.92" fill="url(#1770301555202-6223147_j)"></path><path d="M442.31 211.76c-61.12 33.6 4.32 106.48 45.36 84.56 40.88-21.92-4.64-106.96-45.36-84.56" fill="url(#1770301555202-6223147_k)"></path><path d="M400.24 265.92c-39.6 30.32 9.28 82.64 45.12 62.72 35.76-19.84 10.4-105.28-45.12-62.72" fill="url(#1770301555202-6223147_l)"></path><path d="M359.04 293.68c-14.96 19.84-7.52 45.2 22.8 42.08 43.04-4.56 3.28-76.72-22.8-42.08" fill="url(#1770301555202-6223147_m)"></path><path d="M258.24 296.88c-12.08 16-6.08 36.48 18.4 33.92 34.72-3.68 2.64-61.92-18.4-33.92" fill="url(#1770301555202-6223147_n)"></path></g></svg>
