<svg xmlns="http://www.w3.org/2000/svg" data-name="Layer 1" style="" viewBox="0 0 512 512"><g><defs><linearGradient id="1770301555203-6022591_b" x1="162" x2="162" y1="1466" y2="954" gradientTransform="translate(94 -954)" gradientUnits="userSpaceOnUse"><stop offset="0" stop-color="#d3d9de"></stop><stop offset=".13" stop-color="#d9dee3"></stop><stop offset=".64" stop-color="#ecf0f4"></stop><stop offset="1" stop-color="#f3f7fa"></stop></linearGradient><linearGradient id="1770301555203-6022591_c" x1="162" x2="162" y1="1439.52" y2="980.48" gradientTransform="translate(94 -954)" gradientUnits="userSpaceOnUse"><stop offset="0" stop-color="#c90100"></stop><stop offset="1" stop-color="#ff4a4a"></stop></linearGradient></defs><path d="M512 353.5c0 4.69-2.72 11.25-6.04 14.57l-137.9 137.9c-3.32 3.32-9.88 6.04-14.57 6.04h-195c-4.69 0-11.25-2.72-14.57-6.04L6.04 368.07C2.72 364.75 0 358.19 0 353.5V158.51c0-4.69 2.72-11.25 6.04-14.57L143.93 6.04C147.25 2.72 153.81 0 158.5 0h195c4.69 0 11.25 2.72 14.57 6.04l137.9 137.9c3.32 3.32 6.04 9.88 6.04 14.57V353.5Z" fill="url(#1770301555203-6022591_b)"></path><path d="M485.52 342.86c0 4.5-2.61 10.8-5.79 13.98L356.88 479.72c-3.2 3.19-9.49 5.79-13.99 5.79H169.14c-4.51 0-10.8-2.6-13.99-5.79L32.29 356.84c-3.18-3.19-5.79-9.48-5.79-13.98V169.13c0-4.51 2.61-10.81 5.79-13.99L155.15 32.27c3.2-3.19 9.48-5.79 13.99-5.79h173.75c4.5 0 10.8 2.6 13.99 5.79l122.85 122.86c3.18 3.19 5.79 9.49 5.79 14z" fill="url(#1770301555203-6022591_c)"></path></g></svg>
