<?xml version="1.0" encoding="UTF-8"?>
<svg id="a" data-name="Layer 1" xmlns="http://www.w3.org/2000/svg" xmlns:xlink="http://www.w3.org/1999/xlink" viewBox="0 0 512 512">
  <defs>
    <style>
      .c {
        fill: url(#b);
      }

      .d {
        fill: #0174a8;
      }
    </style>
    <linearGradient id="b" x1="0" y1="223.87" x2="358.4" y2="223.87" gradientTransform="translate(0 514) scale(1 -1)" gradientUnits="userSpaceOnUse">
      <stop offset="0" stop-color="#0085d4"/>
      <stop offset=".19" stop-color="#0b90df"/>
      <stop offset=".69" stop-color="#22a7f6"/>
      <stop offset="1" stop-color="#2bb0ff"/>
    </linearGradient>
  </defs>
  <path class="d" d="M480.63,350.62c-14.04-7.53-69.45-28.78-88.15-35.74v-26.49h.07c15.85-12.83,31.04-29.35,37.37-41.89,3.92-7.77,7.92-20.74,11.45-34.82,24.69-3.74,42.23-82.22,11.33-79.75C451.23,54.19,410.77,0,332.82,0s-118.43,54.19-119.89,131.93c-30.92-2.48-13.35,76.01,11.34,79.75,3.52,14.09,7.53,27.06,11.44,34.82,6.33,12.54,21.51,29.08,37.38,41.89h.03v26.69c-19.05,7.09-73.76,28.12-87.75,35.55-25.98,13.8-31.77,57.15-31.77,75.04,0,24.07,358.4,24.07,358.4,0,0-17.86-5.45-61.23-31.37-75.06Z"/>
  <path class="c" d="M327.03,418.88c-14.04-7.53-69.44-28.79-88.15-35.74v-26.49h.06c15.85-12.82,31.04-29.35,37.37-41.88,3.92-7.77,7.92-20.74,11.45-34.83,24.69-3.74,42.23-82.21,11.33-79.74-1.46-77.74-41.92-131.93-119.88-131.93S60.79,122.46,59.32,200.2c-30.92-2.48-13.35,76.01,11.34,79.74,3.52,14.1,7.53,27.07,11.44,34.83,6.33,12.54,21.51,29.08,37.38,41.89h.03v26.68c-19.04,7.09-73.75,28.13-87.75,35.55C5.79,432.7,0,476.06,0,493.95c0,24.06,358.4,24.06,358.4,0,0-17.87-5.45-61.23-31.37-75.07Z"/>
</svg>