<?xml version="1.0" encoding="UTF-8"?>
<svg id="a" data-name="Layer 1" xmlns="http://www.w3.org/2000/svg" xmlns:xlink="http://www.w3.org/1999/xlink" viewBox="0 0 512 640.01">
  <defs>
    <style>
      .c {
        fill: url(#b);
      }
    </style>
    <linearGradient id="b" x1="256" y1="2" x2="256" y2="642" gradientTransform="translate(0 642) scale(1 -1)" gradientUnits="userSpaceOnUse">
      <stop offset="0" stop-color="#008fe3"/>
      <stop offset="1" stop-color="#2bb0ff"/>
    </linearGradient>
  </defs>
  <path class="c" d="M467.21,505.7c-20.06-10.87-99.21-41.53-125.94-51.54v-38.21h.09c22.65-18.47,44.33-42.34,53.4-60.42,5.6-11.19,11.32-29.9,16.35-50.23,35.25-5.4,60.33-118.56,16.19-115.02C425.21,78.17,367.39,0,256.01,0S86.84,78.17,84.75,190.28c-44.18-3.56-19.07,109.62,16.2,115.02,5.05,20.33,10.76,39.04,16.35,50.23,9.05,18.08,30.73,41.96,53.39,60.44h.04v38.47c-27.2,10.23-105.35,40.57-125.34,51.29C8.26,525.62,0,588.16,0,613.97c0,34.71,512,34.71,512,0,0-25.77-7.78-88.31-44.79-108.28Z"/>
</svg>