<svg xmlns="http://www.w3.org/2000/svg" style="" viewBox="0 0 511.99 512"><g class="nc-icon-wrapper"><defs><linearGradient id="1776732453037-4315019_linear-gradient" x1="390.66" y1="-134.91" x2="263.65" y2="-219.81" gradientTransform="matrix(1 0 0 -1 0 -54)" gradientUnits="userSpaceOnUse"><stop offset="0" stop-color="#4e5e67"></stop><stop offset=".04" stop-color="#5b6a72"></stop><stop offset=".19" stop-color="#859198"></stop><stop offset=".35" stop-color="#a8b1b7"></stop><stop offset=".51" stop-color="#c3cbd0"></stop><stop offset=".67" stop-color="#d7dde1"></stop><stop offset=".83" stop-color="#e2e7ec"></stop><stop offset="1" stop-color="#e6ebef"></stop></linearGradient><linearGradient id="1776732453037-4315019_linear-gradient-2" x1="-1009.25" y1="-907.51" x2="-1073.6" y2="-843.16" gradientTransform="matrix(0 -1 -1 0 -548.93 -938.68)" gradientUnits="userSpaceOnUse"><stop offset="0" stop-color="#d3d7db"></stop><stop offset=".02" stop-color="#d6dade"></stop><stop offset=".16" stop-color="#e9ebed"></stop><stop offset=".32" stop-color="#f5f6f7"></stop><stop offset=".54" stop-color="#fdfdfd"></stop><stop offset="1" stop-color="#fff"></stop></linearGradient><radialGradient id="1776732453037-4315019_radial-gradient" cx="556.88" cy="-392.9" fx="556.88" fy="-392.9" r="29.65" gradientTransform="matrix(.97607 -.08763 .08624 -.99168 -26.92 -105.87)" gradientUnits="userSpaceOnUse"><stop offset="0" stop-color="#ff709b"></stop><stop offset=".26" stop-color="#f96d97"></stop><stop offset=".61" stop-color="#e8638b"></stop><stop offset="1" stop-color="#cc5478"></stop></radialGradient><linearGradient id="1776732453037-4315019_linear-gradient-3" x1="508" y1="-348.38" x2="473.58" y2="-313.01" gradientTransform="matrix(1 0 0 -1 -28.02 -67.62)" gradientUnits="userSpaceOnUse"><stop offset="0" stop-color="#6e787a"></stop><stop offset=".61" stop-color="#d6dbde"></stop><stop offset=".69" stop-color="#d2d8da"></stop><stop offset=".77" stop-color="#c7cdd0"></stop><stop offset=".84" stop-color="#b4bbbe"></stop><stop offset=".91" stop-color="#9aa2a4"></stop><stop offset=".98" stop-color="#788284"></stop><stop offset="1" stop-color="#6e787a"></stop></linearGradient><linearGradient id="1776732453037-4315019_linear-gradient-4" x1="417.68" y1="669.49" x2="390.47" y2="697.44" gradientTransform="scale(1 -1) rotate(-45 -695.95 134.112)" gradientUnits="userSpaceOnUse"><stop offset="0" stop-color="#6e787a"></stop><stop offset=".61" stop-color="#d6dbde"></stop><stop offset=".69" stop-color="#d2d8da"></stop><stop offset=".77" stop-color="#c7cdd0"></stop><stop offset=".84" stop-color="#b4bbbe"></stop><stop offset=".91" stop-color="#9aa2a4"></stop><stop offset=".98" stop-color="#788284"></stop><stop offset="1" stop-color="#6e787a"></stop></linearGradient><linearGradient id="1776732453037-4315019_linear-gradient-5" x1="417.68" y1="663.52" x2="390.48" y2="691.46" gradientTransform="scale(1 -1) rotate(-45 -695.95 134.112)" gradientUnits="userSpaceOnUse"><stop offset="0" stop-color="#6e787a"></stop><stop offset=".61" stop-color="#d6dbde"></stop><stop offset=".69" stop-color="#d2d8da"></stop><stop offset=".77" stop-color="#c7cdd0"></stop><stop offset=".84" stop-color="#b4bbbe"></stop><stop offset=".91" stop-color="#9aa2a4"></stop><stop offset=".98" stop-color="#788284"></stop><stop offset="1" stop-color="#6e787a"></stop></linearGradient><linearGradient id="1776732453037-4315019_linear-gradient-6" x1="417.68" y1="657.54" x2="390.48" y2="685.48" gradientTransform="scale(1 -1) rotate(-45 -695.95 134.112)" gradientUnits="userSpaceOnUse"><stop offset="0" stop-color="#6e787a"></stop><stop offset=".61" stop-color="#d6dbde"></stop><stop offset=".69" stop-color="#d2d8da"></stop><stop offset=".77" stop-color="#c7cdd0"></stop><stop offset=".84" stop-color="#b4bbbe"></stop><stop offset=".91" stop-color="#9aa2a4"></stop><stop offset=".98" stop-color="#788284"></stop><stop offset="1" stop-color="#6e787a"></stop></linearGradient><linearGradient id="1776732453037-4315019_linear-gradient-7" x1="300.59" y1="-495.22" x2="324.06" y2="-521.39" gradientTransform="matrix(1 0 0 -1 -28.02 -67.62)" gradientUnits="userSpaceOnUse"><stop offset="0" stop-color="#fed0ac"></stop><stop offset=".25" stop-color="#fccda8"></stop><stop offset=".5" stop-color="#f5c39b"></stop><stop offset=".77" stop-color="#ebb286"></stop><stop offset="1" stop-color="#de9e6d"></stop></linearGradient><linearGradient id="1776732453037-4315019_linear-gradient-8" x1="287.82" y1="-519.87" x2="301.53" y2="-533.27" gradientTransform="matrix(1 0 0 -1 -28.02 -67.62)" gradientUnits="userSpaceOnUse"><stop offset="0" stop-color="#4e5e67"></stop><stop offset=".37" stop-color="#3f4450"></stop><stop offset=".74" stop-color="#343241"></stop><stop offset="1" stop-color="#302c3b"></stop></linearGradient></defs><path class="cls-14" d="M409.59,512V185.19C409.59,130.09,294.76,0,263.39,0H0v512h409.59Z" fill="#e6ebef"></path><path class="cls-12" d="M263.39.13c29.39,0,146.19,116.11,146.19,185.07v186.01S-46.75,312.57,58.5,0l204.9.13h0Z" fill="url(#1776732453037-4315019_linear-gradient)"></path><path class="cls-11" d="M40 56H136V64H40z" fill="#99a8ae"></path><path class="cls-11" d="M40 128H360V136H40z" fill="#99a8ae"></path><path class="cls-11" d="M40 160H360V168H40z" fill="#99a8ae"></path><path class="cls-11" d="M40 192H360V200H40z" fill="#99a8ae"></path><path class="cls-11" d="M40 224H360V232H40z" fill="#99a8ae"></path><path class="cls-11" d="M40 256H328V264H40z" fill="#99a8ae"></path><path class="cls-11" d="M40 328H216V336H40z" fill="#99a8ae"></path><path class="cls-11" d="M40 360H360V368H40z" fill="#99a8ae"></path><path class="cls-11" d="M40 392H360V400H40z" fill="#99a8ae"></path><path class="cls-11" d="M40 424H152V432H40z" fill="#99a8ae"></path><path class="cls-11" d="M40 456H88V464H40z" fill="#99a8ae"></path><path class="cls-9" d="M263.39.13c39.18,0,146.19,110.42,146.19,185.07,0,0-11.74-71.09-121.23-56.16C301.85,43.7,276.79,2.09,263.39.13Z" fill="url(#1776732453037-4315019_linear-gradient-2)"></path><path class="cls-2" transform="rotate(-45 377.144 348.212)" d="M266.24 323.45H488.04V372.96999999999997H266.24z" fill="#f9c802"></path><path class="cls-10" d="M504.97,224.8l-4.45-4.44c-8.46-8.44-20.36-10.22-30.44-.14l-15.14,15.15,35,35.02,15.15-15.15c10.09-10.08,8.3-21.99-.13-30.44h.01Z" fill="url(#1776732453037-4315019_radial-gradient)"></path><path class="cls-8" d="M489.96 270.39L454.94 235.37 435.08 255.23 470.11 290.25 489.96 270.39z" fill="url(#1776732453037-4315019_linear-gradient-3)"></path><path class="cls-7" d="M489.96,270.39c-6-6.01-28.4-28.42-35.02-35.02-1.5-1.5-5.72,2.72-4.22,4.22,5.93,5.95,26.74,26.74,35.02,35.02,1.5,1.51,5.72-2.72,4.22-4.22Z" fill="url(#1776732453037-4315019_linear-gradient-4)"></path><path class="cls-5" d="M485.74,274.61c-5.99-6-28.42-28.41-35.02-35.02-1.5-1.5-5.73,2.73-4.22,4.22,5.94,5.95,26.75,26.74,35.02,35.02,1.51,1.5,5.72-2.71,4.22-4.22Z" fill="url(#1776732453037-4315019_linear-gradient-5)"></path><path class="cls-6" d="M481.51,278.83c-6-6-28.41-28.41-35.02-35.02-1.5-1.5-5.72,2.71-4.22,4.22,5.94,5.95,26.74,26.74,35.02,35.02,1.5,1.5,5.74-2.72,4.22-4.22Z" fill="url(#1776732453037-4315019_linear-gradient-6)"></path><path class="cls-1" transform="rotate(-44.98 363.087 337.09)" d="M254.29 330.09H471.88V344.09999999999997H254.29z" fill="#ffe463"></path><path class="cls-13" transform="rotate(-45.02 388.232 362.26)" d="M279.43 355.25H497.03V369.27H279.43z" fill="#ea8800"></path><path class="cls-4" d="M281.23,409.11l-20.51,45.04,10.42,10.51,45.1-20.54c.98-11.01-8.41-5.42-7.8-12.02.53-5.9-9.29-15.73-15.2-15.2-7.53.67-.95-8.79-12.02-7.8h0Z" fill="url(#1776732453037-4315019_linear-gradient-7)"></path><path class="cls-3" d="M257.11,462.02c-2.83,6.26-.04,9.04,6.19,6.21l21.87-9.96-18.1-18.11-9.97,21.86h.01Z" fill="url(#1776732453037-4315019_linear-gradient-8)"></path></g></svg>