<svg data-name="Layer 1" xmlns="http://www.w3.org/2000/svg" style="" viewBox="0 0 512.01 512"><g class="nc-icon-wrapper"><defs><linearGradient id="1776867897418-2255815_linear-gradient" x1="117.42" y1="173.58" x2="167.83" y2="202.69" gradientTransform="matrix(1 0 0 -1 0 514)" gradientUnits="userSpaceOnUse"><stop offset=".22" stop-color="#013366"></stop><stop offset="1" stop-color="#006dae"></stop></linearGradient><linearGradient id="1776867897418-2255815_linear-gradient-2" x1="124.55" y1="398.51" x2="156.53" y2="367.62" gradientTransform="matrix(1 0 0 -1 0 514)" gradientUnits="userSpaceOnUse"><stop offset=".22" stop-color="#014f27"></stop><stop offset="1" stop-color="#529320"></stop></linearGradient><linearGradient id="1776867897418-2255815_linear-gradient-3" x1="95.24" y1="362.18" x2="494.08" y2="362.18" gradientTransform="matrix(1 0 0 -1 0 514)" gradientUnits="userSpaceOnUse"><stop offset="0" stop-color="#cf0000"></stop><stop offset="1" stop-color="#ff000e"></stop></linearGradient><linearGradient id="1776867897418-2255815_linear-gradient-4" x1="153.74" y1="293.99" x2="197.22" y2="319.09" gradientTransform="matrix(1 0 0 -1 0 514)" gradientUnits="userSpaceOnUse"><stop offset=".22" stop-color="#870000"></stop><stop offset=".49" stop-color="#9d0000"></stop><stop offset=".78" stop-color="#ad0000"></stop><stop offset="1" stop-color="#b30000"></stop></linearGradient></defs><path class="cls-10" d="M442.65,325.54l57.87,59.26s-191.53,95.11-255.9,125.79c-10.45,4.99-16.84-4.84-16.84-4.84-50.57-138.69,214.87-180.21,214.87-180.21Z" fill="#013366"></path><path class="cls-12" d="M238.14,436.91s-21.74,15.28-14.42,49.36c4.66,21.7,11.5,21.44,22.71,15.89,67.43-33.38,243.09-117.36,243.09-117.36,0,0-13.65-37.16,11.02-62.45l-262.39,114.56Z" fill="#e6ebef"></path><path class="cls-9" d="M222.22,475.11l254.2-114.02-253.96,109.81c-.15,1.41-.15,2.82-.24,4.21Z" fill="#bec3cf"></path><path class="cls-9" d="M479.36,342.7l-250.86,102.51c-.59,1.46-1.23,2.89-1.79,4.35l252.65-106.87Z" fill="#bec3cf"></path><path class="cls-9" d="M474.95,370.12l-251.79,112.34c.2,1.25.46,2.53.55,3.81l251.24-116.15Z" fill="#bec3cf"></path><path class="cls-9" d="M223.65,462.57l254.22-110.61-253.91,106.46c-.05,1.38-.19,2.77-.31,4.15Z" fill="#bec3cf"></path><path class="cls-9" d="M225.47,493.32s.32,2.14,1.48,3.87l250.92-119.09-252.4,115.22Z" fill="#bec3cf"></path><path class="cls-9" d="M230.27,502.57c.67,1.6,3.37,2.37,3.37,2.37l248.96-121.85-252.33,119.48Z" fill="#bec3cf"></path><path class="cls-2" d="M279.36 85.34L512.01 320.55 240.61 437.37 49.58 150.68 279.36 85.34z" fill="#0fb4d4"></path><path class="cls-7" d="M227.79,505.76c-12.73-56.3,12.83-68.39,12.83-68.39L52.72,149.89c-35.87,10.95-15.39,52.22-5.19,69.46,49.9,84.4,180.25,286.4,180.25,286.4Z" fill="url(#1776867897418-2255815_linear-gradient)"></path><path class="cls-11" d="M512.01,128.97L251.37,47.98,7.03,243.14c-7.08,4.39-13,39.56,4.13,49.31,4.14,2.36,305.75,151.3,305.75,151.3l195.1-314.78Z" fill="#014f27"></path><path class="cls-12" d="M12.43,245.87c-6.76-2.71-9.9,34.66-1.96,40.88,4.08,3.18,303.89,148.43,303.89,148.43l-1.51-74.38S53.15,262.19,12.43,245.87Z" fill="#e6ebef"></path><path class="cls-1" d="M502.3,84.83l-189.27,272.94c-9.93,21.77-13.59,55.3,1.31,77.38l187.95-304.54c-5.44-16.01-3.31-40.84,0-45.78Z" fill="#cfd8dd"></path><path class="cls-9" d="M307.85,421.04c.38,1.19.72,2.4,1.18,3.57L496.76,123.51l-188.91,297.53Z" fill="#bec3cf"></path><path class="cls-9" d="M304.55,400.82c.05,1.71.03,3.41.18,5.12L494.63,111.16l-190.08,289.66Z" fill="#bec3cf"></path><path class="cls-9" d="M305.05,387.36c-.21,2-.33,4.01-.45,6.02L496.76,100.43l-191.71,286.93Z" fill="#bec3cf"></path><path class="cls-9" d="M495.42,117.58l-189.79,294.27c.23,1.43.38,2.89.73,4.3L495.42,117.58Z" fill="#bec3cf"></path><path class="cls-9" d="M310.93,428.81c.48.98,1.02,1.93,1.54,2.88l186.42-302.93-187.97,300.06Z" fill="#bec3cf"></path><path class="cls-9" d="M6.28,259.14c-.24.89-.28,2.84-.28,2.84l293.43,131.49L6.28,259.14Z" fill="#bec3cf"></path><path class="cls-9" d="M7.36,252.98c-.42,1.91-.55,2.68-.55,2.68l291.28,128.52L7.36,252.98Z" fill="#bec3cf"></path><path class="cls-9" d="M5.77,265.86c-.23,1.51.13,2.85.13,2.85l294.94,134.22L5.77,265.86Z" fill="#bec3cf"></path><path class="cls-9" d="M7.03,280.05s0,2.3,1.14,3.41l295.5,138.86L7.03,280.05Z" fill="#bec3cf"></path><path class="cls-9" d="M5.93,272.58c-.16,1.8.31,3.17.31,3.17l296,136.77L5.93,272.58Z" fill="#bec3cf"></path><path class="cls-9" d="M8.34,249.75l288.39,125.3L9.49,247.38c-1.15,1.08-1.15,2.37-1.15,2.37Z" fill="#bec3cf"></path><path class="cls-8" d="M289.44,8.75C277.53,5.47,12.43,245.87,12.43,245.87l299.76,129.23,199.82-304.72L289.44,8.75Z" fill="#92c932"></path><path class="cls-6" d="M267.75,2.76c-11.89-3.31-17.98-5.11-26.85,3.38C199.18,46.05,24.77,219.41,17.79,226.13,7.06,236.49,1.78,245.87.28,261.47c0,0,6.75-18.06,12.14-15.6,11.66,5.31,22.91,9.88,33.77,14.57L289.44,8.75l-21.69-5.99Z" fill="url(#1776867897418-2255815_linear-gradient-2)"></path><path class="cls-3" d="M434.27,207.19l49.91,51.12s-165.19,82.03-220.73,108.5c-9,4.31-14.52-4.17-14.52-4.17-43.62-119.63,185.33-155.44,185.33-155.44Z" fill="#7a0000"></path><path class="cls-12" d="M257.87,303.25s-18.75,13.18-12.44,42.57c4.03,18.71,9.92,18.49,19.57,13.7,58.17-28.78,209.69-101.22,209.69-101.22,0,0-11.78-32.06,9.49-53.87l-226.3,98.82Z" fill="#e6ebef"></path><path class="cls-9" d="M244.14,336.2l219.25-98.36-219.05,94.72c-.12,1.21-.13,2.43-.2,3.64Z" fill="#bec3cf"></path><path class="cls-9" d="M465.93,221.99l-216.38,88.42c-.51,1.25-1.05,2.49-1.55,3.75l217.93-92.16Z" fill="#bec3cf"></path><path class="cls-9" d="M462.13,245.63l-217.18,96.89c.18,1.09.4,2.18.48,3.3l216.7-100.19Z" fill="#bec3cf"></path><path class="cls-9" d="M245.38,325.38l219.26-95.41-219,91.83c-.04,1.19-.16,2.38-.26,3.58Z" fill="#bec3cf"></path><path class="cls-9" d="M246.94,351.91s.28,1.84,1.28,3.33l216.42-102.7-217.7,99.37Z" fill="#bec3cf"></path><path class="cls-9" d="M251.08,359.88c.56,1.37,2.9,2.05,2.9,2.05l214.74-105.1-217.64,103.05Z" fill="#bec3cf"></path><path class="cls-5" d="M293.44 0L494.08 202.89 260 303.65 95.24 56.36 293.44 0z" fill="url(#1776867897418-2255815_linear-gradient-3)"></path><path class="cls-4" d="M248.93,362.62c-10.98-48.55,11.07-58.98,11.07-58.98L97.94,55.68c-30.93,9.46-13.28,45.04-4.48,59.91,43.04,72.79,155.47,247.03,155.47,247.03Z" fill="url(#1776867897418-2255815_linear-gradient-4)"></path></g></svg>