<svg data-name="Layer 1" xmlns="http://www.w3.org/2000/svg" style="" viewBox="0 0 384.03 512"><g class="nc-icon-wrapper"><defs><linearGradient id="1776732453028-5860486_linear-gradient" x1="52.78" y1="35.57" x2="233.45" y2="35.57" gradientTransform="matrix(.95 0 0 -.94 55.73 482.15)" gradientUnits="userSpaceOnUse"><stop offset="0" stop-color="#c47a43"></stop><stop offset=".02" stop-color="#c27842"></stop><stop offset=".48" stop-color="#a25d2a"></stop><stop offset=".73" stop-color="#965221"></stop></linearGradient><linearGradient id="1776732453028-5860486_linear-gradient-2" x1="42.29" y1="118.97" x2="243.87" y2="118.97" gradientTransform="matrix(.95 0 0 -.94 55.73 482.15)" gradientUnits="userSpaceOnUse"><stop offset="0" stop-color="#c47a43"></stop><stop offset=".28" stop-color="#be753f"></stop><stop offset=".64" stop-color="#ae6733"></stop><stop offset="1" stop-color="#965221"></stop></linearGradient><linearGradient id="1776732453028-5860486_linear-gradient-3" x1="102" y1="180.59" x2="282.17" y2="180.59" gradientTransform="matrix(1 0 0 -1 0 514)" gradientUnits="userSpaceOnUse"><stop offset="0" stop-color="#73421b"></stop><stop offset="1" stop-color="#9e6237"></stop></linearGradient><linearGradient id="1776732453028-5860486_linear-gradient-4" x1="262.29" y1="403.12" x2="316.12" y2="480.96" gradientTransform="matrix(1 0 0 -1 0 514)" gradientUnits="userSpaceOnUse"><stop offset="0" stop-color="#408000"></stop><stop offset=".24" stop-color="#4b8d00"></stop><stop offset=".7" stop-color="#69af00"></stop><stop offset="1" stop-color="#80c900"></stop></linearGradient><linearGradient id="1776732453028-5860486_linear-gradient-5" x1="178.24" y1="399.75" x2="130.35" y2="483.27" gradientTransform="matrix(1 0 0 -1 0 514)" gradientUnits="userSpaceOnUse"><stop offset="0" stop-color="#408000"></stop><stop offset=".23" stop-color="#448400"></stop><stop offset=".47" stop-color="#4e9000"></stop><stop offset=".7" stop-color="#60a400"></stop><stop offset=".94" stop-color="#79c100"></stop><stop offset="1" stop-color="#80c900"></stop></linearGradient><linearGradient id="1776732453028-5860486_linear-gradient-6" x1="230.87" y1="401.93" x2="203.04" y2="509.88" gradientTransform="matrix(1 0 0 -1 0 514)" gradientUnits="userSpaceOnUse"><stop offset="0" stop-color="#4b9400"></stop><stop offset=".43" stop-color="#6eba00"></stop><stop offset=".78" stop-color="#84d200"></stop><stop offset="1" stop-color="#8cdb00"></stop></linearGradient><linearGradient id="1776732453028-5860486_linear-gradient-7" x1="242.94" y1="394.88" x2="387.25" y2="356.75" gradientTransform="matrix(1 0 0 -1 0 514)" gradientUnits="userSpaceOnUse"><stop offset="0" stop-color="#408000"></stop><stop offset=".09" stop-color="#4c8d00"></stop><stop offset=".3" stop-color="#63a700"></stop><stop offset=".53" stop-color="#73ba00"></stop><stop offset=".75" stop-color="#7dc500"></stop><stop offset="1" stop-color="#80c900"></stop></linearGradient><linearGradient id="1776732453028-5860486_linear-gradient-8" x1="132.19" y1="390.9" x2="111.24" y2="487.42" gradientTransform="matrix(1 0 0 -1 0 514)" gradientUnits="userSpaceOnUse"><stop offset="0" stop-color="#408000"></stop><stop offset=".38" stop-color="#5da200"></stop><stop offset=".77" stop-color="#77be00"></stop><stop offset="1" stop-color="#80c900"></stop></linearGradient><linearGradient id="1776732453028-5860486_linear-gradient-9" x1="108.57" y1="302.05" x2="18.56" y2="217.96" gradientTransform="matrix(1 0 0 -1 0 514)" gradientUnits="userSpaceOnUse"><stop offset="0" stop-color="#408000"></stop><stop offset=".24" stop-color="#4b8d00"></stop><stop offset=".7" stop-color="#69af00"></stop><stop offset="1" stop-color="#80c900"></stop></linearGradient><linearGradient id="1776732453028-5860486_linear-gradient-10" x1="120.61" y1="399.57" x2="-4.73" y2="353.18" gradientTransform="matrix(1 0 0 -1 0 514)" gradientUnits="userSpaceOnUse"><stop offset="0" stop-color="#4b9400"></stop><stop offset=".23" stop-color="#549e00"></stop><stop offset=".62" stop-color="#6eba00"></stop><stop offset="1" stop-color="#8cdb00"></stop></linearGradient><linearGradient id="1776732453028-5860486_linear-gradient-11" x1="166.82" y1="269.92" x2="61.01" y2="160.42" gradientTransform="matrix(1 0 0 -1 0 514)" gradientUnits="userSpaceOnUse"><stop offset="0" stop-color="#4b9400"></stop><stop offset=".21" stop-color="#519b00"></stop><stop offset=".51" stop-color="#63af00"></stop><stop offset=".88" stop-color="#81cf00"></stop><stop offset="1" stop-color="#8cdb00"></stop></linearGradient><linearGradient id="1776732453028-5860486_linear-gradient-12" x1="2126.37" y1="-272.54" x2="2068.51" y2="-165.9" gradientTransform="scale(-1 1) rotate(61.52 505.575 -2026)" gradientUnits="userSpaceOnUse"><stop offset="0" stop-color="#4b9400"></stop><stop offset=".25" stop-color="#4e9800"></stop><stop offset=".48" stop-color="#58a300"></stop><stop offset=".7" stop-color="#69b500"></stop><stop offset=".92" stop-color="#81cf00"></stop><stop offset="1" stop-color="#8cdb00"></stop></linearGradient><linearGradient id="1776732453028-5860486_linear-gradient-13" x1="271.05" y1="225.84" x2="334.42" y2="85.45" gradientTransform="scale(1 -1) rotate(-3.42 -7418.82 262.972)" gradientUnits="userSpaceOnUse"><stop offset="0" stop-color="#4b9400"></stop><stop offset=".31" stop-color="#5ca700"></stop><stop offset=".94" stop-color="#88d600"></stop><stop offset="1" stop-color="#8cdb00"></stop></linearGradient><linearGradient id="1776732453028-5860486_linear-gradient-14" x1="209.63" y1="287.21" x2="230.22" y2="152.84" gradientTransform="matrix(1 0 0 -1 0 514)" gradientUnits="userSpaceOnUse"><stop offset="0" stop-color="#4b9400"></stop><stop offset=".43" stop-color="#6eba00"></stop><stop offset=".78" stop-color="#84d200"></stop><stop offset="1" stop-color="#8cdb00"></stop></linearGradient><linearGradient id="1776732453028-5860486_linear-gradient-15" x1="181.8" y1="367.05" x2="105.04" y2="266.64" gradientTransform="matrix(1 0 0 -1 0 514)" gradientUnits="userSpaceOnUse"><stop offset="0" stop-color="#408000"></stop><stop offset=".24" stop-color="#4b8d00"></stop><stop offset=".7" stop-color="#69af00"></stop><stop offset="1" stop-color="#80c900"></stop></linearGradient><linearGradient id="1776732453028-5860486_linear-gradient-16" x1="257.82" y1="311.35" x2="299.39" y2="214.21" gradientTransform="matrix(1 0 0 -1 0 514)" gradientUnits="userSpaceOnUse"><stop offset=".14" stop-color="#408000"></stop><stop offset=".34" stop-color="#5b9f00"></stop><stop offset=".57" stop-color="#76bd00"></stop><stop offset=".71" stop-color="#80c900"></stop></linearGradient><linearGradient id="1776732453028-5860486_linear-gradient-17" x1="261.23" y1="795.21" x2="345.7" y2="795.21" gradientTransform="scale(1 -1) rotate(24.83 2520.179 313.623)" gradientUnits="userSpaceOnUse"><stop offset="0" stop-color="#4b9400"></stop><stop offset=".21" stop-color="#529b00"></stop><stop offset=".52" stop-color="#64af00"></stop><stop offset=".89" stop-color="#82d000"></stop><stop offset="1" stop-color="#8cdb00"></stop></linearGradient><linearGradient id="1776732453028-5860486_linear-gradient-18" x1="126.19" y1="630.49" x2="3.86" y2="563.8" gradientTransform="scale(1 -1) rotate(11.5 3881.673 314.866)" gradientUnits="userSpaceOnUse"><stop offset="0" stop-color="#4b9400"></stop><stop offset=".43" stop-color="#6eba00"></stop><stop offset=".78" stop-color="#84d200"></stop><stop offset="1" stop-color="#8cdb00"></stop></linearGradient><linearGradient id="1776732453028-5860486_linear-gradient-19" x1="1267.11" y1="1743.08" x2="1359.23" y2="1743.08" gradientTransform="rotate(75 1721.267 255.237)" gradientUnits="userSpaceOnUse"><stop offset="0" stop-color="#4b9400"></stop><stop offset=".43" stop-color="#6eba00"></stop><stop offset=".78" stop-color="#84d200"></stop><stop offset="1" stop-color="#8cdb00"></stop></linearGradient><linearGradient id="1776732453028-5860486_linear-gradient-20" x1="189.83" y1="393.58" x2="287.44" y2="284.25" gradientTransform="matrix(1 0 0 -1 0 514)" gradientUnits="userSpaceOnUse"><stop offset="0" stop-color="#4b9400"></stop><stop offset=".43" stop-color="#6eba00"></stop><stop offset=".78" stop-color="#84d200"></stop><stop offset="1" stop-color="#8cdb00"></stop></linearGradient><linearGradient id="1776732453028-5860486_linear-gradient-21" x1="138.43" y1="442.27" x2="173.02" y2="367.63" gradientTransform="matrix(1 0 0 -1 0 514)" gradientUnits="userSpaceOnUse"><stop offset="0" stop-color="#8cdb00"></stop><stop offset=".22" stop-color="#84d200"></stop><stop offset=".57" stop-color="#6eba00"></stop><stop offset="1" stop-color="#4b9400"></stop></linearGradient></defs><path class="cls-11" d="M124.32,492.74l-18.32-107.12h172.09l-18.32,107.12c-3.6,25.68-131.93,25.68-135.45,0Z" fill="url(#1776732453028-5860486_linear-gradient)"></path><path class="cls-12" d="M174.01,423.3c-.08.08-.16.16-.24.16.16,0,.24-.08.24-.16Z" style="isolation:isolate" fill="#3e4347" opacity=".5"></path><path class="cls-10" d="M192.01,361.93s-75.04-1.28-96-20.96l4.24,42.16s6.08,17.12,91.76,17.12,91.76-17.12,91.76-17.12l4.24-42.16c-20.96,19.68-96,20.96-96,20.96Z" fill="url(#1776732453028-5860486_linear-gradient-2)"></path><path class="cls-14" d="M192.01,320.01c-53.04,0-96,9.36-96,20.96s42.96,20.96,96,20.96,96-9.36,96-20.96-42.96-20.96-96-20.96Z" fill="#c4895e"></path><path class="cls-9" d="M280.33,344.89c1.2-1.2,1.84-2.56,1.84-3.84,0-10.4-38.8-19.12-90.16-19.12s-90,8.8-90,19.12c0,1.28.64,2.56,1.76,3.76l176.57.08Z" fill="url(#1776732453028-5860486_linear-gradient-3)"></path><path class="cls-2" d="M192.01,359.29c44.8,0,80.08-5.92,88.32-14.4-8.08-8.8-44.56-15.36-88.32-15.36s-80,6.56-88.24,15.28c8.08,8.48,43.28,14.48,88.24,14.48Z" fill="#402312"></path><path class="cls-1" d="M207.85,344.89c.4,5.12-28.08,4.88-26.8-.32,4.08-16.48,0-71.36,0-71.36h20.64s4.8,55.2,6.16,71.68Z" fill="#397a07"></path><path class="cls-8" d="M323.37,36.72c-29.12-12.08-99.6,23.12-68.88,78.96,95.52-2.08,39.04-41.84,68.88-78.96Z" fill="url(#1776732453028-5860486_linear-gradient-4)"></path><path class="cls-13" d="M254.49,115.6c6.16-64,68.88-78.96,68.88-78.96,0,0-71.52,12.8-68.88,78.96Z" style="isolation:isolate" fill="#006102" opacity=".3"></path><path class="cls-5" d="M131.37,36.24s-27.04,104.32,54.88,86.56c44.96-68.56-54.88-86.56-54.88-86.56Z" fill="url(#1776732453028-5860486_linear-gradient-5)"></path><path class="cls-13" d="M186.25,122.8c-13.84-40.8-54.88-86.56-54.88-86.56,0,0,54.88,40.16,54.88,86.56Z" style="isolation:isolate" fill="#006102" opacity=".3"></path><path class="cls-6" d="M198.25,0s-67.92,102.56,39.92,123.6C316.65,69.76,198.25,0,198.25,0Z" fill="url(#1776732453028-5860486_linear-gradient-6)"></path><path class="cls-13" d="M238.09,123.6C241.69,66.4,198.25,0,198.25,0c0,0,55.12,72,39.84,123.6Z" style="isolation:isolate" fill="#006102" opacity=".3"></path><path class="cls-4" d="M237.53,117.2c22.72,100.16,137.05,34.72,137.05,34.72,0,0-76.8-109.04-137.05-34.72Z" fill="url(#1776732453028-5860486_linear-gradient-7)"></path><path class="cls-13" d="M237.53,117.2c69.28-2.88,137.05,34.72,137.05,34.72,0,0-79.6-50-137.05-34.72Z" style="isolation:isolate" fill="#006102" opacity=".3"></path><path class="cls-3" d="M119.44,26.32c-30.4,9.28-54.96,78.64,9.76,100.16,67.92-60.8-3.28-54.64-9.76-100.16Z" fill="url(#1776732453028-5860486_linear-gradient-8)"></path><path class="cls-13" d="M129.21,126.48c-44-47.68-9.76-100.16-9.76-100.16,0,0-42.4,53.68,9.76,100.16Z" style="isolation:isolate" fill="#006102" opacity=".3"></path><path class="cls-7" d="M19.2,289.45c-22.88-38.64,29.44-138.09,125.36-101.2,5.28,130.57-66.16,57.12-125.36,101.2Z" fill="url(#1776732453028-5860486_linear-gradient-9)"></path><path class="cls-13" d="M144.57,188.17c-104.88,15.12-125.36,101.28-125.36,101.28,0,0,14.72-98.88,125.36-101.28Z" style="isolation:isolate" fill="#006102" opacity=".3"></path><path class="cls-15" d="M127.04,108.64C43.28,49.44,0,161.61,0,161.61c0,0,122.16,47.44,127.04-52.96Z" fill="url(#1776732453028-5860486_linear-gradient-10)"></path><path class="cls-13" d="M127.04,108.64C56.4,113.44,0,161.61,0,161.61c0,0,51.36-58.32,127.04-52.96Z" style="isolation:isolate" fill="#006102" opacity=".3"></path><path class="cls-16" d="M178.41,232.09c-117.28-20.72-128.81,79.68-122.8,121.44,38.96-24.96,164.41,4.72,122.8-121.44Z" fill="url(#1776732453028-5860486_linear-gradient-11)"></path><path class="cls-13" d="M178.41,232.09c-101.76,45.36-122.8,121.44-122.8,121.44,0,0,11.84-83.2,122.8-121.44Z" style="isolation:isolate" fill="#006102" opacity=".3"></path><path class="cls-17" d="M373.77,295.37c29.44-34.72-4.16-140.25-105.2-118.08-28.72,127.77,54.8,65.92,105.2,118.08Z" fill="url(#1776732453028-5860486_linear-gradient-12)"></path><path class="cls-13" d="M268.49,177.21c103.36,26.96,105.2,118.08,105.2,118.08,0,0,3.36-99.44-105.2-118.08Z" style="isolation:isolate" fill="#006102" opacity=".3"></path><path class="cls-18" d="M307.69,374.09c40.4-23.68,47.12-133.29-56.32-143.37-73.6,111.52,27.68,78.88,56.32,143.37Z" fill="url(#1776732453028-5860486_linear-gradient-13)"></path><path class="cls-13" d="M251.37,230.73c84.4,55.04,56.32,143.37,56.32,143.37,0,0,39.28-92.64-56.32-143.37Z" style="isolation:isolate" fill="#006102" opacity=".3"></path><path class="cls-20" d="M231.05,349.45s88.08-101.76-23.2-134.25h0c-99.52,63.76,23.12,134.25,23.2,134.25h0Z" fill="url(#1776732453028-5860486_linear-gradient-14)"></path><path class="cls-13" d="M207.85,215.21c29.76,52.56,23.2,134.25,23.2,134.25,0,0,19.2-91.12-23.2-134.25Z" style="isolation:isolate" fill="#006102" opacity=".3"></path><path class="cls-23" d="M198.89,126.4c-131.61-30.16-92.32,111.68-92.32,111.68,0,0,162.65,1.12,92.32-111.68Z" fill="url(#1776732453028-5860486_linear-gradient-15)"></path><path class="cls-13" d="M198.89,126.4c-63.12,39.2-92.32,111.68-92.32,111.68,0,0,26.56-94.72,92.32-111.68Z" style="isolation:isolate" fill="#006102" opacity=".3"></path><path class="cls-24" d="M257.45,191.45c94.8,22.08,32.96,96.8,32.96,96.8,0,0-108.08-49.44-32.96-96.8Z" fill="url(#1776732453028-5860486_linear-gradient-16)"></path><path class="cls-13" d="M257.45,191.45c31.44,36,32.96,96.8,32.96,96.8,0,0,6.32-66.08-32.96-96.8Z" style="isolation:isolate" fill="#006102" opacity=".3"></path><path class="cls-25" d="M269.13,141.45c-41.36,88.56,81.44,74,81.44,74,0,0,14.8-107.2-81.44-74Z" fill="url(#1776732453028-5860486_linear-gradient-17)"></path><path class="cls-13" d="M269.13,141.45c48.4,19.92,81.44,74,81.44,74,0,0-30-67.12-81.44-74Z" style="isolation:isolate" fill="#006102" opacity=".3"></path><path class="cls-26" d="M143.37,119.12c-83.92-19.84-127.68,60.96-104.8,96,28.72-14.96,148.17-18.48,104.8-96Z" fill="url(#1776732453028-5860486_linear-gradient-18)"></path><path class="cls-13" d="M143.37,119.12c-76.48,32.8-104.8,96-104.8,96,0,0,13.92-73.68,104.8-96Z" style="isolation:isolate" fill="#006102" opacity=".3"></path><path class="cls-19" d="M114.32,298.73c-19.68-39.92,40.08-135.29,132.49-92.48-5.04,130.17-70.16,52.56-132.49,92.48Z" fill="url(#1776732453028-5860486_linear-gradient-19)"></path><path class="cls-13" d="M246.81,206.33c-106.88,8.88-132.49,92.4-132.49,92.4,0,0,22.4-97.2,132.49-92.4Z" style="isolation:isolate" fill="#006102" opacity=".3"></path><path class="cls-22" d="M184.97,116c-64.8,111.2,98.48,103.52,98.48,103.52,0,0,32.08-137.77-98.48-103.52Z" fill="url(#1776732453028-5860486_linear-gradient-20)"></path><path class="cls-13" d="M184.97,116c63.76,29.6,98.48,103.52,98.48,103.52,0,0-31.6-89.84-98.48-103.52Z" style="isolation:isolate" fill="#006102" opacity=".3"></path><path class="cls-21" d="M84,111.76c16.88-32.32,95.52-77.28,145.29-1.44-50.88,71.44-102.32,14.48-145.29,1.44Z" fill="url(#1776732453028-5860486_linear-gradient-21)"></path><path class="cls-13" d="M229.21,110.4c-73.92-43.68-145.29,1.44-145.29,1.44,0,0,71.76-56.88,145.29-1.44Z" style="isolation:isolate" fill="#006102" opacity=".3"></path></g></svg>