<svg data-name="Layer 1" xmlns="http://www.w3.org/2000/svg" style="" viewBox="0 0 494.77 512"><g class="nc-icon-wrapper"><defs><radialGradient id="1776732453017-3516050_radial-gradient" cx="-433.02" cy="-1702.05" fx="-433.02" fy="-1702.05" r="280.01" gradientTransform="matrix(.70352 -.71068 -.50653 -.51174 -356.39 -938.69)" gradientUnits="userSpaceOnUse"><stop offset="0" stop-color="#ecf1f5"></stop><stop offset=".41" stop-color="#e9eff3"></stop><stop offset=".69" stop-color="#e0e7eb"></stop><stop offset=".93" stop-color="#d1d9de"></stop><stop offset="1" stop-color="#cbd4d9"></stop></radialGradient><linearGradient id="1776732453017-3516050_linear-gradient" x1="482.56" y1="-963.11" x2="272.17" y2="-837.42" gradientTransform="matrix(1 0 0 -1 0 -568.02)" gradientUnits="userSpaceOnUse"><stop offset="0" stop-color="#bac3c6"></stop><stop offset=".34" stop-color="#bec7ca"></stop><stop offset=".67" stop-color="#c9d2d5"></stop><stop offset=".99" stop-color="#dde4e8"></stop><stop offset="1" stop-color="#dde4e8"></stop></linearGradient><linearGradient id="1776732453017-3516050_linear-gradient-2" x1="34.66" y1="-983.67" x2="202.6" y2="-815.17" gradientTransform="matrix(1 0 0 -1 0 -568.02)" gradientUnits="userSpaceOnUse"><stop offset="0" stop-color="#dbe3e6"></stop><stop offset=".88" stop-color="#f2f8fc"></stop><stop offset="1" stop-color="#f6fbff"></stop></linearGradient><linearGradient id="1776732453017-3516050_linear-gradient-3" x1="246.99" y1="-798.89" x2="246.99" y2="-568.02" gradientTransform="matrix(1 0 0 -1 0 -568.02)" gradientUnits="userSpaceOnUse"><stop offset="0" stop-color="#f6fbff"></stop><stop offset=".12" stop-color="#f2f8fc"></stop><stop offset="1" stop-color="#dbe3e6"></stop></linearGradient></defs><path class="cls-4" d="M462.31,98.8c2.55-.73,6.1,2.64,10.64,10.1,4.55,7.46,8.82,17.01,12.83,28.66,4,11.28,6.73,21.29,8.19,30.02,1.46,8.73.91,13.65-1.64,14.74-.36,0-3.46,4.55-9.28,13.65s-13.56,21.2-23.2,36.3-20.47,32.11-32.48,51.04c-12.01,18.92-24.29,38.48-36.84,58.68-12.55,20.2-24.74,39.76-36.57,58.68-11.83,18.92-22.47,36.03-31.93,51.31-9.46,15.28-17.01,27.47-22.65,36.57-5.64,9.1-8.46,13.83-8.46,14.19,0,2.55-4.28,4.73-12.83,6.55-8.55,1.82-18.83,2.73-30.84,2.73s-22.29-.91-30.84-2.73c-8.55-1.82-12.83-4-12.83-6.55,0-.36-2.82-5.09-8.46-14.19-5.64-9.1-13.19-21.29-22.65-36.57-9.46-15.28-20.11-32.39-31.93-51.31-11.83-18.92-24.11-38.48-36.84-58.68-12.74-20.2-25.02-39.76-36.84-58.68-11.83-18.92-22.56-36.03-32.2-51.31-9.64-15.28-17.38-27.38-23.2-36.3-5.82-8.92-8.92-13.37-9.28-13.37-2.18-1.09-2.64-6-1.36-14.74s3.91-18.74,7.91-30.02c4-11.64,8.28-21.2,12.83-28.66s8.1-10.83,10.64-10.1c.36.36,6.64.55,18.83.55s28.57.09,49.13.27c20.56.18,43.49.27,68.78.27h157.19c25.29,0,48.13-.09,68.5-.27,20.38-.18,36.66-.27,48.85-.27s18.47-.18,18.83-.55h-.01Z" fill="url(#1776732453017-3516050_radial-gradient)"></path><path class="cls-5" d="M455.21,159.92c10.92-5.82,20.2-6.64,27.84-2.46s11.46,12.1,11.46,23.74v171.38c0,11.64-3.82,23.74-11.46,36.3s-16.92,21.74-27.84,27.57l-158.83,86.24c-10.92,5.82-20.2,6.64-27.84,2.46s-11.46-12.1-11.46-23.74v-171.93c0-11.64,3.82-23.65,11.46-36.03,7.64-12.37,16.92-21.47,27.84-27.29l158.83-86.24h0Z" fill="url(#1776732453017-3516050_linear-gradient)"></path><path class="cls-2" d="M0,352.6v-171.38c0-11.64,3.82-19.56,11.46-23.74,7.64-4.18,16.92-3.37,27.84,2.46l158.83,86.24c10.92,5.82,20.2,14.92,27.84,27.29s11.46,24.38,11.46,36.03v171.93c0,11.64-3.82,19.56-11.46,23.74s-16.92,3.37-27.84-2.46l-158.83-86.79c-10.92-5.82-20.2-14.92-27.84-27.29C3.82,376.26,0,364.25,0,352.6Z" fill="url(#1776732453017-3516050_linear-gradient-2)"></path><path class="cls-1" d="M288.74,8.73l168.66,85.7c11.28,5.82,16.92,12.83,16.92,21.01s-5.64,15.19-16.92,21.01l-168.66,85.7c-11.64,5.82-25.56,8.73-41.76,8.73s-29.93-2.91-41.21-8.73L37.12,136.45c-11.64-5.82-17.47-12.83-17.47-21.01s5.82-15.19,17.47-21.01L205.77,8.73c11.28-5.82,25.11-8.73,41.48-8.73s30.2,2.91,41.48,8.73h.01Z" fill="url(#1776732453017-3516050_linear-gradient-3)"></path><path class="cls-3" d="M330.77,392.99c7.64-3.64,13.46-3.28,17.47,1.09,4,4.73,5.09,12.1,3.28,22.11-1.82,10.01-5.82,19.74-12.01,29.2-6.55,9.46-13.46,16.01-20.74,19.65-7.64,3.64-13.28,3.09-16.92-1.64-4-4.37-5.19-11.55-3.55-21.56s5.73-19.74,12.28-29.2c6.19-9.83,12.92-16.38,20.2-19.65h-.01ZM390.8,297.47c7.28-3.64,12.92-3.09,16.92,1.64,4,4.37,5.19,11.55,3.55,21.56s-5.73,19.74-12.28,29.2c-6.55,9.83-13.46,16.38-20.74,19.65-7.28,3.64-12.92,3.09-16.92-1.64-4-4.37-5.19-11.55-3.55-21.56s5.73-19.74,12.28-29.2c6.55-9.46,13.46-16.01,20.74-19.65ZM449.21,207.96c7.64-3.64,13.46-3.28,17.47,1.09,4,4.73,5.09,12.1,3.28,22.11s-5.82,19.74-12.01,29.2c-6.55,9.46-13.46,16.01-20.74,19.65-7.28,3.64-12.92,3.09-16.92-1.64-4-4.37-5.19-11.55-3.55-21.56s5.73-19.92,12.28-29.75c6.19-9.46,12.92-15.83,20.2-19.1h-.01Z" fill="#1a1626"></path><path class="cls-7" d="M131.54,384.26c1.09-8.73,4.91-13.65,11.46-14.74,6.19-1.09,13.28,2,21.29,9.28,8.01,7.28,14.56,16.74,19.65,28.38,4.73,11.28,6.73,21.29,6,30.02-1.46,9.1-5.28,14.19-11.46,15.28-6.55,1.09-13.83-2.09-21.83-9.55-8.01-7.46-14.37-16.83-19.1-28.11-5.09-11.64-7.1-21.83-6-30.57h0ZM27.84,217.24c1.09-8.73,4.91-13.65,11.46-14.74s13.83,2,21.83,9.28,14.37,16.74,19.1,28.38c5.09,11.28,7.1,21.29,6,30.02-1.09,9.1-4.91,14.19-11.46,15.28-6.19,1.09-13.28-2.09-21.29-9.55s-14.56-16.83-19.65-28.11c-5.09-11.64-7.1-21.83-6-30.57h.01Z" fill="#302c3b"></path><path class="cls-6" d="M301.29,107.53c0,8.01-5.28,14.74-15.83,20.2-10.55,5.46-23.29,8.19-38.21,8.19s-27.66-2.73-38.21-8.19-15.83-12.19-15.83-20.2,5.28-14.28,15.83-19.92,23.29-8.46,38.21-8.46,27.66,2.82,38.21,8.46,15.83,12.28,15.83,19.92Z" fill="#e81c27"></path></g></svg>