<svg data-name="Layer 1" xmlns="http://www.w3.org/2000/svg" style="" viewBox="0 0 477.87 512"><g class="nc-icon-wrapper"><defs><radialGradient id="1776732453051-2383702_radial-gradient" cx="425.53" cy="34.19" fx="425.53" fy="34.19" r="32.19" gradientTransform="rotate(-180 237.77 257)" gradientUnits="userSpaceOnUse"><stop offset="0" stop-color="#4e5e67"></stop><stop offset=".41" stop-color="#434c57"></stop><stop offset="1" stop-color="#302c3b"></stop></radialGradient><linearGradient id="1776732453051-2383702_linear-gradient" x1="24.23" y1="89.07" x2="24.23" y2="64.92" gradientTransform="matrix(1 0 0 -1 0 514)" gradientUnits="userSpaceOnUse"><stop offset="0" stop-color="#b3c2c6"></stop><stop offset=".21" stop-color="#aebdc1"></stop><stop offset=".48" stop-color="#a0adb2"></stop><stop offset=".77" stop-color="#889499"></stop><stop offset="1" stop-color="#717b80"></stop></linearGradient><radialGradient id="1776732453051-2383702_radial-gradient-2" cx="411.97" cy="34.19" fx="411.97" fy="34.19" r="32.19" gradientTransform="matrix(1 0 0 -1 -.57 514)" gradientUnits="userSpaceOnUse"><stop offset="0" stop-color="#4e5e67"></stop><stop offset=".41" stop-color="#434c57"></stop><stop offset="1" stop-color="#302c3b"></stop></radialGradient><linearGradient id="1776732453051-2383702_linear-gradient-2" x1="-408.74" y1="89.07" x2="-408.74" y2="64.92" gradientTransform="rotate(-180 -10.065 257)" gradientUnits="userSpaceOnUse"><stop offset="0" stop-color="#b3c2c6"></stop><stop offset=".21" stop-color="#aebdc1"></stop><stop offset=".48" stop-color="#a0adb2"></stop><stop offset=".77" stop-color="#889499"></stop><stop offset="1" stop-color="#717b80"></stop></linearGradient></defs><ellipse class="cls-5" cx="64.6" cy="463.71" rx="32.31" ry="32.18" fill="#1a1626"></ellipse><path class="cls-2" d="M53.78,430.23c10.33,10.3,23.95,32.22,18.77,37.38-5.16,5.15-27.17-8.41-37.51-18.71-17.14-17.08,1.6-35.75,18.74-18.66Z" fill="#6e8189"></path><ellipse class="cls-2" cx="40.37" cy="420.92" rx="24.23" ry="12.07" fill="#6e8189"></ellipse><ellipse class="cls-5" cx="396.68" cy="463.71" rx="32.3" ry="32.18" fill="#1a1626"></ellipse><path class="cls-2" d="M385.87,430.23c10.33,10.3,23.95,32.22,18.78,37.38s-27.19-8.41-37.51-18.71c-17.15-17.08,1.59-35.75,18.73-18.66Z" fill="#6e8189"></path><ellipse class="cls-2" cx="372.45" cy="420.92" rx="24.23" ry="12.07" fill="#6e8189"></ellipse><path class="cls-1" d="M254.29 313.07L247.37 308.93 409.58 38.64 419.8 37.53 254.29 313.07z" fill="#b3c2c6"></path><circle class="cls-1" cx="259.39" cy="308.75" r="8.33" fill="#b3c2c6"></circle><path class="cls-7" d="M384.56,396.78h-.13l-177.67,5.36c-.86.03-1.69.32-2.38.88l-16.14,12.73c-.6.48-.95,1.08-1.2,1.75h12l9.32-7.34,176.33-5.33c2.23-.08,3.99-1.94,3.92-4.14-.07-2.2-1.86-3.91-4.04-3.91Z" fill="#99a8ae"></path><path class="cls-7" d="M311.89,372.63h-20.19c-11.14,0-20.18-9.03-20.18-20.12v-20.45l-85.16-7.71c-2.23-.2-3.87-2.17-3.67-4.38.2-2.22,2.12-3.81,4.39-3.64l88.84,8.04c2.07.19,3.67,1.94,3.67,4.02v24.13c0,6.66,5.44,12.07,12.12,12.07h20.19c2.24,0,4.04,1.8,4.04,4.03s-1.81,4.02-4.04,4.02Z" fill="#99a8ae"></path><path class="cls-7" d="M384.45,380.67l-185.74,5.37c-.78.03-1.54.28-2.18.72l-23.29,16.12-103.82,4.63c-.73.03-1.43.26-2.04.66l-15.27,10.15h14.56l4.26-2.83,103.88-4.65c.75-.03,1.48-.28,2.11-.71l23.24-16.09,184.53-5.32c2.23-.07,3.99-1.92,3.93-4.14-.07-2.21-1.95-3.89-4.16-3.91Z" fill="#99a8ae"></path><path class="cls-7" d="M29.24,437.01c-1.3,0-2.59-.62-3.36-1.79-1.24-1.86-.73-4.35,1.13-5.57l16.15-10.74c.64-.43,1.4-.66,2.18-.67l339.18-5.36c2.33-.11,4.06,1.72,4.1,3.96.04,2.22-1.74,4.04-3.98,4.09l-337.99,5.34-15.16,10.08c-.7.46-1.47.67-2.24.67Z" fill="#99a8ae"></path><path class="cls-7" d="M384.56,376.59v54.3h8.08v-54.3c0-3.62-.97-7.15-2.82-10.23l-12.31-20.77c-5.53-9.34-15.24-15.48-25.96-16.48l-50.18-4.61c-4.74-.38-9.07,1.78-11.5,5.8-2.41,4.01-2.31,8.94.26,12.84l17.95,27.22c1.3,1.97,1.98,4.27,1.98,6.62v55.99c0,2.22,1.81,4.03,4.04,4.03s4.04-1.81,4.04-4.03v-55.98c0-3.93-1.14-7.75-3.31-11.04l-17.95-27.22c-.87-1.31-.9-2.93-.09-4.28.83-1.36,2.29-2.12,3.83-1.94l50.18,4.62c8.14.74,15.53,5.44,19.74,12.55l12.32,20.78c1.11,1.83,1.69,3.96,1.69,6.13Z" fill="#99a8ae"></path><path class="cls-1" d="M378.64,251.91s-13.96-.75-337.5-14.33c-19.2-.81-28-16.5-28.05-30.75-.05-16.01,10.21-32.72,29.98-33.69,241.73-11.83,357.45-17.81,357.45-17.81,2.44-.09,4.13,1.6,4.24,3.82.12,2.22-1.6,4.1-3.83,4.22,0,0-115.73,5.97-357.47,17.81-15.38.75-22.33,13.8-22.29,25.62.03,10.09,5.38,22.1,20.32,22.73,168.57,7.07,339.17,14.23,339.17,14.23l-2.02,8.13Z" fill="#b3c2c6"></path><path class="cls-7" d="M388.61,437.01H25.21c-2.24,0-4.04-1.81-4.04-4.03s1.81-4.03,4.04-4.03h363.4c2.24,0,4.04,1.79,4.04,4.03s-1.81,4.03-4.04,4.03Z" fill="#99a8ae"></path><path class="cls-7" transform="rotate(-85.44 51.467 210.491)" d="M-40.49 206.46H143.42V214.53H-40.49z" fill="#99a8ae"></path><path class="cls-7" transform="rotate(-83.78 122.055 208.347)" d="M22.53 204.31H221.57V212.39000000000001H22.53z" fill="#99a8ae"></path><path class="cls-7" transform="rotate(-81.65 195.126 206.782)" d="M87.61 202.74H302.68V210.83H87.61z" fill="#99a8ae"></path><path class="cls-7" transform="rotate(-80.49 232.713 205.438)" d="M120.1 201.4H345.32V209.47H120.1z" fill="#99a8ae"></path><path class="cls-7" transform="rotate(-77.78 310.053 203.394)" d="M186.77 199.36H433.3V207.43H186.77z" fill="#99a8ae"></path><path class="cls-7" transform="rotate(-76.52 349.416 201.383)" d="M221.98 197.35H476.85V205.43H221.98z" fill="#99a8ae"></path><path class="cls-7" transform="rotate(-79.25 270.92 204.19)" d="M152.98 200.14H388.83V208.23H152.98z" fill="#99a8ae"></path><path class="cls-7" transform="rotate(-82.77 158.336 207.428)" d="M54.77 203.38H261.87V211.46H54.77z" fill="#99a8ae"></path><path class="cls-7" transform="rotate(-84.68 86.374 209.227)" d="M-9.43 205.19H182.2V213.27H-9.43z" fill="#99a8ae"></path><path class="cls-1" d="M361.55,332.39c-.13,0-.25,0-.37-.02l-341.24-29.82c-6.36-.55-11.14-5.83-10.88-12.01l6.53-159.65h0c.22-5.63,4.57-10.27,10.33-11.03l398.5-53c1.36-.19,2.65.31,3.55,1.3.89.99,1.23,2.36.9,3.65l-63.42,257.51c-.44,1.82-2.07,3.06-3.91,3.06ZM23.65,131.23l-6.53,159.65c-.08,1.89,1.46,3.48,3.52,3.67l337.79,29.53,61.18-248.44L26.99,127.84c-1.87.25-3.27,1.68-3.34,3.39h0Z" fill="#b3c2c6"></path><path class="cls-1" d="M428.12 74.88L440.98 24.37 433.16 22.39 419.8 74.88 428.12 74.88z" fill="#b3c2c6"></path><path class="cls-9" d="M466.28.32c-30.04,7.54-56.7,38.32-56.7,38.32l26.3,5.84s10.46-12.22,35.03-23.03c11.93-5.26,7.3-24.12-4.63-21.13Z" fill="#e81c27"></path><ellipse class="cls-6" cx="48.44" cy="479.81" rx="32.3" ry="32.19" fill="url(#1776732453051-2383702_radial-gradient)"></ellipse><path class="cls-7" d="M37.63,446.33c10.34,10.3,23.95,32.22,18.76,37.38-5.15,5.15-27.17-8.41-37.51-18.72-17.13-17.09,1.6-35.75,18.75-18.66Z" fill="#99a8ae"></path><ellipse class="cls-8" cx="24.23" cy="437.01" rx="24.23" ry="12.07" fill="url(#1776732453051-2383702_linear-gradient)"></ellipse><path class="cls-3" d="M380.53,479.81c0-17.77,14.48-32.19,32.3-32.19s32.31,14.41,32.31,32.19-14.46,32.19-32.31,32.19-32.3-14.41-32.3-32.19Z" fill="url(#1776732453051-2383702_radial-gradient-2)"></path><path class="cls-7" d="M402.01,446.33c10.34,10.3,23.95,32.22,18.78,37.38-5.18,5.15-27.19-8.41-37.51-18.72-17.15-17.09,1.59-35.75,18.73-18.66Z" fill="#99a8ae"></path><ellipse class="cls-4" cx="388.61" cy="437.01" rx="24.23" ry="12.07" fill="url(#1776732453051-2383702_linear-gradient-2)"></ellipse></g></svg>