<svg data-name="Layer 1" xmlns="http://www.w3.org/2000/svg" style="" viewBox="0 0 477.85 512"><g class="nc-icon-wrapper"><defs><linearGradient id="1776867897601-2521497_linear-gradient" x1="238.93" y1="2" x2="238.93" y2="514" gradientTransform="matrix(1 0 0 -1 0 514)" gradientUnits="userSpaceOnUse"><stop offset="0" stop-color="#80c900"></stop><stop offset=".04" stop-color="#82cc00"></stop><stop offset=".42" stop-color="#93e800"></stop><stop offset=".75" stop-color="#9df900"></stop><stop offset="1" stop-color="#a1ff00"></stop></linearGradient><radialGradient id="1776867897601-2521497_radial-gradient" cx="148.27" cy="-113.7" fx="148.27" fy="-113.7" r="94.58" gradientTransform="rotate(40.87 491.72 -139.6) scale(1 -.65)" gradientUnits="userSpaceOnUse"><stop offset="0" stop-color="#726e7a"></stop><stop offset=".1" stop-color="#615d69"></stop><stop offset=".25" stop-color="#4c4854"></stop><stop offset=".35" stop-color="#45414d"></stop><stop offset=".35" stop-color="#45414d"></stop><stop offset=".61" stop-color="#2c2931"></stop><stop offset=".83" stop-color="#1c1a20"></stop><stop offset="1" stop-color="#17151a"></stop></radialGradient><radialGradient id="1776867897601-2521497_radial-gradient-2" cx="152.18" cy="338.67" fx="152.18" fy="338.67" r="94.58" gradientTransform="rotate(-139.13 134.554 240.842) scale(1 .65)" gradientUnits="userSpaceOnUse"><stop offset="0" stop-color="#726e7a"></stop><stop offset=".1" stop-color="#615d69"></stop><stop offset=".25" stop-color="#4c4854"></stop><stop offset=".35" stop-color="#45414d"></stop><stop offset=".35" stop-color="#45414d"></stop><stop offset=".61" stop-color="#2c2931"></stop><stop offset=".83" stop-color="#1c1a20"></stop><stop offset="1" stop-color="#17151a"></stop></radialGradient></defs><path class="cls-5" d="M238.93,0C1.43,4.11-32.88,183.38,23.81,317.48c46.22,110.81,151.45,193.62,215.12,194.52,63.64-.91,168.93-83.67,215.11-194.52C510.74,183.38,476.42,4.11,238.93,0Z" fill="url(#1776867897601-2521497_linear-gradient)"></path><path class="cls-1" d="M25.46,211.25c-9.04,13.57,13.37,153.69,151.97,129.68,9.81-1.68,22.82-11.15,24-21,19.77-166.4-165.24-124.78-175.97-108.68Z" fill="#8ad900"></path><path class="cls-1" d="M452.4,211.25c-10.73-16.12-195.76-57.72-175.97,108.68,1.17,9.86,14.17,19.32,23.99,21.02,138.61,23.99,161.01-116.15,151.98-129.7Z" fill="#8ad900"></path><path class="cls-3" d="M304.1,397.59c-42,29.32-88.58,29.13-130.36,0-5.02-3.5-9.55,2.57-6.15,8.18,12.73,20.95,38.43,39.62,71.35,39.62s58.6-18.67,71.33-39.62c3.4-5.61-1.13-11.67-6.16-8.18Z" fill="#1a1626"></path><path class="cls-4" d="M442.02,221c-10.47-15.67-191-56.15-171.7,105.72,1.15,9.58,13.83,18.8,23.4,20.44,135.25,23.33,157.12-112.97,148.3-126.16Z" fill="url(#1776867897601-2521497_radial-gradient)"></path><path class="cls-2" d="M35.84,221c10.47-15.67,191-56.15,171.7,105.72-1.15,9.58-13.83,18.8-23.4,20.44C48.89,370.48,27.02,234.18,35.84,221Z" fill="url(#1776867897601-2521497_radial-gradient-2)"></path></g></svg>