<svg data-name="Layer 1" xmlns="http://www.w3.org/2000/svg" style="" viewBox="0 0 477.88 512"><g class="nc-icon-wrapper"><defs><linearGradient id="1777677194274-7365785_linear-gradient" x1="18.51" y1="218.53" x2="247.52" y2="218.53" gradientTransform="matrix(1 0 0 -1 0 514)" gradientUnits="userSpaceOnUse"><stop offset="0" stop-color="#cfdde6"></stop><stop offset=".09" stop-color="#c9d7e0"></stop><stop offset=".21" stop-color="#b7c5ce"></stop><stop offset=".35" stop-color="#9aa9b0"></stop><stop offset=".43" stop-color="#86959c"></stop><stop offset="1" stop-color="#bfd1d9"></stop></linearGradient><radialGradient id="1777677194274-7365785_radial-gradient" cx="-524.39" cy="124.37" fx="-524.39" fy="124.37" r="116.21" gradientTransform="matrix(-1.04 0 0 -1 -417.39 514)" gradientUnits="userSpaceOnUse"><stop offset="0" stop-color="#a3b5bd"></stop><stop offset=".3" stop-color="#9fb0b8"></stop><stop offset=".65" stop-color="#93a3aa"></stop><stop offset="1" stop-color="#818f94"></stop></radialGradient><radialGradient id="1777677194274-7365785_radial-gradient-2" cx="47.09" cy="386.46" fx="47.09" fy="386.46" r="44.47" gradientTransform="matrix(.9801 0 0 -2.8728 -2.73 1406.073)" gradientUnits="userSpaceOnUse"><stop offset="0" stop-color="#cfdde6"></stop><stop offset=".12" stop-color="#c9d7e0"></stop><stop offset=".28" stop-color="#b7c5ce"></stop><stop offset=".47" stop-color="#9aa9b0"></stop><stop offset=".58" stop-color="#86959c"></stop><stop offset="1" stop-color="#bfd1d9"></stop></radialGradient><linearGradient id="1777677194274-7365785_linear-gradient-2" x1="-739.03" y1="218.53" x2="-518.67" y2="218.53" gradientTransform="rotate(-180 -139.865 257)" gradientUnits="userSpaceOnUse"><stop offset="0" stop-color="#bfd1d9"></stop><stop offset=".57" stop-color="#86959c"></stop><stop offset=".65" stop-color="#9aa9b0"></stop><stop offset=".79" stop-color="#b7c5ce"></stop><stop offset=".91" stop-color="#c9d7e0"></stop><stop offset="1" stop-color="#cfdde6"></stop></linearGradient><linearGradient id="1777677194274-7365785_linear-gradient-3" x1="238.95" y1="347.6" x2="238.95" y2="407.33" gradientTransform="matrix(1 0 0 -1 0 514)" gradientUnits="userSpaceOnUse"><stop offset=".2" stop-color="#86959c"></stop><stop offset=".39" stop-color="#aab8c0"></stop><stop offset=".57" stop-color="#c5d3dc"></stop><stop offset=".67" stop-color="#cfdde6"></stop><stop offset=".71" stop-color="#c8d7e0"></stop><stop offset=".79" stop-color="#c1d2db"></stop><stop offset="1" stop-color="#bfd1d9"></stop></linearGradient><radialGradient id="1777677194274-7365785_radial-gradient-3" cx="207.4" cy="124.37" fx="207.4" fy="124.37" r="116.26" gradientTransform="matrix(1.04 0 0 -1 137.64 514)" gradientUnits="userSpaceOnUse"><stop offset="0" stop-color="#a3b5bd"></stop><stop offset=".3" stop-color="#9fb0b8"></stop><stop offset=".65" stop-color="#93a3aa"></stop><stop offset="1" stop-color="#818f94"></stop></radialGradient><radialGradient id="1777677194274-7365785_radial-gradient-4" cx="-725.73" cy="386.46" fx="-725.73" fy="386.46" r="44.48" gradientTransform="matrix(-.9801 0 0 -2.8728 -276.898 1406.073)" gradientUnits="userSpaceOnUse"><stop offset="0" stop-color="#cfdde6"></stop><stop offset=".12" stop-color="#c9d7e0"></stop><stop offset=".28" stop-color="#b7c5ce"></stop><stop offset=".47" stop-color="#9aa9b0"></stop><stop offset=".58" stop-color="#86959c"></stop><stop offset="1" stop-color="#bfd1d9"></stop></radialGradient><radialGradient id="1777677194274-7365785_radial-gradient-5" cx="121.36" cy="391.56" fx="121.36" fy="391.56" r="43" gradientTransform="matrix(1 0 0 -1 0 514)" gradientUnits="userSpaceOnUse"><stop offset="0" stop-color="#cfdde6"></stop><stop offset=".17" stop-color="#c9d7e0"></stop><stop offset=".4" stop-color="#b7c5ce"></stop><stop offset=".67" stop-color="#9aa9b0"></stop><stop offset=".82" stop-color="#86959c"></stop><stop offset="1" stop-color="#99a8ae"></stop></radialGradient><radialGradient id="1777677194274-7365785_radial-gradient-6" cx="343.23" cy="391.56" fx="343.23" fy="391.56" r="43" gradientTransform="matrix(1 0 0 -1 0 514)" gradientUnits="userSpaceOnUse"><stop offset="0" stop-color="#cfdde6"></stop><stop offset=".17" stop-color="#c9d7e0"></stop><stop offset=".4" stop-color="#b7c5ce"></stop><stop offset=".67" stop-color="#9aa9b0"></stop><stop offset=".82" stop-color="#86959c"></stop><stop offset="1" stop-color="#99a8ae"></stop></radialGradient><radialGradient id="1777677194274-7365785_radial-gradient-7" cx="229.7" cy="472.76" fx="229.7" fy="472.76" r="60.8" gradientTransform="matrix(1 0 0 -1 0 514)" gradientUnits="userSpaceOnUse"><stop offset="0" stop-color="#cfdde6"></stop><stop offset=".17" stop-color="#c9d7e0"></stop><stop offset=".4" stop-color="#b7c5ce"></stop><stop offset=".67" stop-color="#9aa9b0"></stop><stop offset=".82" stop-color="#86959c"></stop><stop offset="1" stop-color="#99a8ae"></stop></radialGradient></defs><path class="cls-10" d="M221,78.93c-4.93,51.17-2.54,230.35-18.1,305.07-14.4,69.15-142.34-.81-169.03-71.3-4.59,2.59-9.16,5.17-13.7,7.76,3.62,24.92,15.49,77.22,44.91,97.68,55.14,38.38,125.52,51.88,173.87,93.87l8.58-433.07h-26.52Z" fill="url(#1777677194274-7365785_linear-gradient)"></path><path class="cls-9" d="M20.16,320.45c-2.22,1.26-5.86,2.36-8.07,3.61,8.26,162.59,182.11,144.5,226.85,187.94-27.66-60.71-192.03-62.13-218.78-191.55Z" fill="url(#1777677194274-7365785_radial-gradient)"></path><path class="cls-6" d="M30.23,253.26c-2.21-11.26-39.55,25.97-28.03,101.1,1.62,10.62,15.82-12.24,61.55-17.88,12.51-1.54-18.88-8.61-33.52-83.23Z" fill="url(#1777677194274-7365785_radial-gradient-2)"></path><path class="cls-8" d="M256.9,78.93c4.93,51.17,2.54,230.35,18.09,305.07,14.4,69.15,142.35-.81,169.04-71.3,4.58,2.59,9.15,5.17,13.7,7.76-3.61,24.92-15.48,77.22-44.9,97.68-55.15,38.38-125.53,51.88-173.88,93.87V78.93h17.95Z" fill="url(#1777677194274-7365785_linear-gradient-2)"></path><path class="cls-7" d="M238.94,106.67c-18.76,16.37-111.39,14.93-111.39,14.93v29.87s94.85.5,111.39,14.93c16.56-14.43,111.4-14.93,111.4-14.93v-29.87s-92.64,1.43-111.4-14.93Z" fill="url(#1777677194274-7365785_linear-gradient-3)"></path><path class="cls-5" d="M457.72,320.45c2.22,1.26,5.87,2.36,8.07,3.61-8.26,162.59-182.13,144.51-226.85,187.94,27.66-60.71,192.03-62.13,218.78-191.55Z" fill="url(#1777677194274-7365785_radial-gradient-3)"></path><path class="cls-4" d="M447.65,253.26c2.21-11.26,39.55,25.97,28.02,101.11-1.62,10.61-15.82-12.25-61.55-17.89-12.51-1.54,18.89-8.61,33.53-83.23Z" fill="url(#1777677194274-7365785_radial-gradient-4)"></path><circle class="cls-3" cx="128.01" cy="136.53" r="29.87" fill="url(#1777677194274-7365785_radial-gradient-5)"></circle><circle class="cls-2" cx="349.87" cy="136.53" r="29.87" fill="url(#1777677194274-7365785_radial-gradient-6)"></circle><path class="cls-1" d="M238.94,0c-28.27,0-51.2,22.94-51.2,51.2s22.94,51.2,51.2,51.2,51.2-22.94,51.2-51.2S267.21,0,238.94,0ZM238.94,76.8c-14.11,0-25.6-11.48-25.6-25.6s11.49-25.6,25.6-25.6,25.6,11.48,25.6,25.6-11.47,25.6-25.6,25.6Z" fill="url(#1777677194274-7365785_radial-gradient-7)"></path></g></svg>