<svg data-name="Layer 1" xmlns="http://www.w3.org/2000/svg" style="" viewBox="0 0 443.73 512"><g class="nc-icon-wrapper"><defs><linearGradient id="1777811038023-726030_linear-gradient" x1="46.24" y1="22.12" x2="140.89" y2="22.12" gradientTransform="matrix(1 0 0 -1 0 514)" gradientUnits="userSpaceOnUse"><stop offset="0" stop-color="#cfd8dd"></stop><stop offset=".33" stop-color="#bdc7cc"></stop><stop offset=".98" stop-color="#8f9ba0"></stop><stop offset="1" stop-color="#8d999e"></stop></linearGradient><linearGradient id="1777811038023-726030_linear-gradient-2" x1="146.8" y1="132.89" x2="153.66" y2="238.11" gradientTransform="matrix(1 0 0 -1 0 514)" gradientUnits="userSpaceOnUse"><stop offset=".08" stop-color="#8d999e"></stop><stop offset="1" stop-color="#4e5e67"></stop></linearGradient><linearGradient id="1777811038023-726030_linear-gradient-3" x1="153.23" y1="-3.34" x2="153.23" y2="160.2" gradientTransform="matrix(1 0 0 -1 0 514)" gradientUnits="userSpaceOnUse"><stop offset=".48" stop-color="#8d999e"></stop><stop offset=".6" stop-color="#929da2"></stop><stop offset=".73" stop-color="#9faaaf"></stop><stop offset=".88" stop-color="#b5bfc4"></stop><stop offset="1" stop-color="#cfd8dd"></stop></linearGradient><linearGradient id="1777811038023-726030_linear-gradient-4" x1="56.59" y1="446.28" x2="346.54" y2="102.69" gradientTransform="matrix(1 0 0 -1 0 514)" gradientUnits="userSpaceOnUse"><stop offset="0" stop-color="#cfd8dd"></stop><stop offset=".2" stop-color="#b3c2c6"></stop><stop offset=".34" stop-color="#9fadb1"></stop><stop offset=".48" stop-color="#929ea3"></stop><stop offset=".6" stop-color="#8d999e"></stop><stop offset="1" stop-color="#4e5e67"></stop></linearGradient><linearGradient id="1777811038023-726030_linear-gradient-5" x1="62.39" y1="422.7" x2="433.94" y2="208.19" gradientTransform="matrix(1 0 0 -1 0 514)" gradientUnits="userSpaceOnUse"><stop offset="0" stop-color="#4e5e67"></stop><stop offset=".4" stop-color="#8d999e"></stop><stop offset=".52" stop-color="#929ea3"></stop><stop offset=".66" stop-color="#9fadb1"></stop><stop offset=".8" stop-color="#b3c2c6"></stop><stop offset="1" stop-color="#cfd8dd"></stop></linearGradient><linearGradient id="1777811038023-726030_linear-gradient-6" x1="397.62" y1="449.61" x2="397.62" y2="374.23" gradientTransform="matrix(1 0 0 -1 0 514)" gradientUnits="userSpaceOnUse"><stop offset="0" stop-color="#cfd8dd"></stop><stop offset=".2" stop-color="#b3c2c6"></stop><stop offset=".34" stop-color="#9fadb1"></stop><stop offset=".48" stop-color="#929ea3"></stop><stop offset=".6" stop-color="#8d999e"></stop><stop offset="1" stop-color="#4e5e67"></stop></linearGradient><linearGradient id="1777811038023-726030_linear-gradient-7" x1="409.72" y1="446.24" x2="409.72" y2="390.14" gradientTransform="matrix(1 0 0 -1 0 514)" gradientUnits="userSpaceOnUse"><stop offset="0" stop-color="#cfd8dd"></stop><stop offset=".2" stop-color="#b3c2c6"></stop><stop offset=".34" stop-color="#9fadb1"></stop><stop offset=".48" stop-color="#929ea3"></stop><stop offset=".6" stop-color="#8d999e"></stop><stop offset="1" stop-color="#4e5e67"></stop></linearGradient><linearGradient id="1777811038023-726030_linear-gradient-8" x1="423.32" y1="447.17" x2="423.32" y2="403.44" gradientTransform="matrix(1 0 0 -1 0 514)" gradientUnits="userSpaceOnUse"><stop offset="0" stop-color="#cfd8dd"></stop><stop offset=".2" stop-color="#b3c2c6"></stop><stop offset=".34" stop-color="#9fadb1"></stop><stop offset=".48" stop-color="#929ea3"></stop><stop offset=".6" stop-color="#8d999e"></stop><stop offset="1" stop-color="#4e5e67"></stop></linearGradient></defs><path class="cls-10" d="M0,497.52v-25.75l247.49,2.65v25.75s-134.93,11.83-144.9,11.83c-15.39,0-102.59-14.48-102.59-14.48Z" fill="url(#1777811038023-726030_linear-gradient)"></path><path class="cls-1" d="M0,471.77c0-2.02,138.42-3.14,138.42-3.14,0,0,109.06,3.14,109.06,5.79,0,0-134.93,7.04-144.9,7.04-15.39,0-102.59-9.69-102.59-9.69Z" fill="#6e8189"></path><path class="cls-12" d="M105.08,360.19c14.67,66.42,138.38,27.7,138.38,27.7v-6.43s-119.05-65.63-138.38-21.27Z" fill="#302c3b"></path><path class="cls-8" d="M59.83,221.39c12.14,63.55,63.03,127.04,63.03,127.04h18.07s14.75,14.84,4.55,33.02h96.5c25.14-33.38-133.99-160.07-133.99-160.07h-48.17Z" fill="url(#1777811038023-726030_linear-gradient-2)"></path><path class="cls-7" d="M189.02,472.45l54.44-84.56h-35.39s11.9-17.08,3.4-28.48c-4.38-5.87-36.53-8.19-30.56-1.66,11.13,12.19-2.92,30.15-2.92,30.15h-37.86c9.91-14.12,8.64-26.49-1.64-31.82h-23.42l-52.06,120.55,126.01-4.16Z" fill="url(#1777811038023-726030_linear-gradient-3)"></path><path class="cls-1" d="M38.11,470.34l24.91,6.26s41.33-65.87,62.65-100.22c9.78-15.74-13.58-29.1-22.89-13.11-16.33,28.11-64.67,107.07-64.67,107.07Z" fill="#6e8189"></path><path class="cls-1" d="M59.83 221.39L38.83 237.06 102.78 363.28 122.86 348.44 59.83 221.39z" fill="#6e8189"></path><path class="cls-6" d="M96.8,31.7s-35.33,51.21-27.85,133.89c19.18,211.47,270.74,300.01,330.58,199.81,0,0-60.68-197.3-302.73-333.71Z" fill="url(#1777811038023-726030_linear-gradient-4)"></path><path class="cls-4" d="M310.79,90.97C227.2-1.18,131.38-27.71,96.8,31.7c-34.6,59.42,5.12,182.29,88.72,274.43,83.61,92.16,179.41,118.7,214.01,59.28,34.59-59.42-5.13-182.29-88.74-274.44Z" fill="url(#1777811038023-726030_linear-gradient-5)"></path><path class="cls-11" d="M353.12,355.03l2.23-10.81c.49-3.06,12.39-1.43,11.91,1.64l-2.22,10.81c-.7,4.41-12.68,3.18-11.92-1.64Z" fill="#4e5e67"></path><path class="cls-11" d="M206.98,74.87l9.98-.24c3.87-.42,4.45,10.91.27,11.17,0,0-.02-.32-9.96.25-5.04.3-5.56-10.84-.29-11.18Z" fill="#4e5e67"></path><path class="cls-1" d="M115.85,179.17l269.4-91.13c2.32-.82,5.43,7.16,3.07,7.96,0,0-261.52,88.45-269.4,91.13-4.88,1.65-8.17-6.24-3.07-7.96Z" fill="#6e8189"></path><path class="cls-11" d="M105.95,181.43l12.86-4.85c3.07-1.07,7.18,9.47,4.08,10.52,0,0-2.05,1-12.48,4.52-2.69-4.28-4.45-10.2-4.45-10.2Z" fill="#4e5e67"></path><path class="cls-1" d="M356.87,344.6l55.42-240.53c.52-2.29,9.39-.5,8.87,1.79l-55.42,240.52c-.7,3.03-9.62,1.55-8.87-1.78Z" fill="#6e8189"></path><path class="cls-1" d="M216.52,75.8l165.74-3.51c2.23-.24,3.18,8.28.69,8.46,0,0-155.82,2.82-165.74,3.51-3.46.24-4.39-8.19-.69-8.46Z" fill="#6e8189"></path><path class="cls-5" d="M378.87,64.38l-3.24,1.75c-8.09,4.35-4.55,24.17,7.9,44.27,12.45,20.1,29.1,32.87,37.18,28.52l3.25-1.74-45.09-72.8Z" fill="url(#1777811038023-726030_linear-gradient-6)"></path><path class="cls-9" d="M416.05,92.9c-12.45-20.1-29.09-32.87-37.17-28.52-8.09,4.35-4.54,24.17,7.9,44.27,12.46,20.1,29.1,32.89,37.18,28.53,8.08-4.35,4.54-24.18-7.91-44.29Z" fill="#99a8ae"></path><path class="cls-3" d="M402.66,67.76l-13.02,7.01c-5.39,2.9-3.04,16.12,5.26,29.52,8.31,13.4,19.4,21.9,24.79,19.02l13.01-7.01-30.04-48.53Z" fill="url(#1777811038023-726030_linear-gradient-7)"></path><path class="cls-9" d="M427.44,86.78c-8.29-13.41-19.4-21.91-24.77-19.02-5.4,2.91-3.04,16.12,5.25,29.52,8.31,13.39,19.4,21.9,24.79,19,5.4-2.9,3.04-16.12-5.26-29.51Z" fill="#99a8ae"></path><path class="cls-2" d="M419.43,66.82l-13.01,7c-3.6,1.94-1.48,11.65,4.76,21.7,6.22,10.05,14.17,16.64,17.78,14.7l13.02-7.01-22.55-36.39Z" fill="url(#1777811038023-726030_linear-gradient-8)"></path><path class="cls-9" d="M437.21,81.52c-6.23-10.05-14.18-16.62-17.77-14.69-3.6,1.94-1.48,11.65,4.76,21.69,6.22,10.06,14.17,16.63,17.79,14.7,3.59-1.94,1.45-11.66-4.78-21.7Z" fill="#99a8ae"></path></g></svg>