<svg data-name="Layer 1" xmlns="http://www.w3.org/2000/svg" style="" viewBox="0 0 512 512"><g class="nc-icon-wrapper"><defs><linearGradient id="1776131386294-4834736_linear-gradient" x1="271.79" y1="1617.12" x2="271.79" y2="1284.15" gradientTransform="matrix(.97 0 0 .97 -6.73 -1072.11)" gradientUnits="userSpaceOnUse"><stop offset="0" stop-color="#302c3b"></stop><stop offset="1" stop-color="#4e5e67"></stop></linearGradient><linearGradient id="1776131386294-4834736_linear-gradient-2" x1="256" y1="1476.83" x2="256" y2="1374.21" gradientTransform="translate(0 -1080)" gradientUnits="userSpaceOnUse"><stop offset="0" stop-color="#7e8a8f"></stop><stop offset="1" stop-color="#cfd8dd"></stop></linearGradient><linearGradient id="1776131386294-4834736_linear-gradient-3" x1="256" y1="1472.46" x2="256" y2="1378.58" gradientTransform="translate(0 -1080)" gradientUnits="userSpaceOnUse"><stop offset="0" stop-color="#fff"></stop><stop offset=".75" stop-color="#fff"></stop><stop offset=".81" stop-color="#fbfcfc"></stop><stop offset=".87" stop-color="#f0f1f2"></stop><stop offset=".93" stop-color="#dce0e2"></stop><stop offset=".98" stop-color="#c1c7cc"></stop><stop offset="1" stop-color="#b8bfc4"></stop></linearGradient><linearGradient id="1776131386294-4834736_linear-gradient-4" x1="256" y1="1252.49" x2="256" y2="1110.02" gradientTransform="translate(0 -1080)" gradientUnits="userSpaceOnUse"><stop offset="0" stop-color="#302c3b"></stop><stop offset="1" stop-color="#4e5e67"></stop></linearGradient><linearGradient id="1776131386294-4834736_linear-gradient-5" x1="374.45" y1="1140.04" x2="374.45" y2="1080" gradientTransform="translate(0 -1080)" gradientUnits="userSpaceOnUse"><stop offset="0" stop-color="#517813"></stop><stop offset="1" stop-color="#a2eb2d"></stop></linearGradient><linearGradient id="1776131386294-4834736_linear-gradient-6" x1="477.09" y1="1104.62" x2="477.09" y2="1044.58" gradientTransform="translate(-226 -1002)" gradientUnits="userSpaceOnUse"><stop offset="0" stop-color="#08677a"></stop><stop offset="1" stop-color="#00d6ff"></stop></linearGradient><linearGradient id="1776131386294-4834736_linear-gradient-7" x1="580.18" y1="1070.56" x2="580.18" y2="1010.51" gradientTransform="translate(-453 -927)" gradientUnits="userSpaceOnUse"><stop offset="0" stop-color="#990009"></stop><stop offset="1" stop-color="#ff000e"></stop></linearGradient><linearGradient id="1776131386294-4834736_linear-gradient-8" x1="256" y1="1252.49" x2="256" y2="1199.54" gradientTransform="translate(0 -1080)" gradientUnits="userSpaceOnUse"><stop offset="0" stop-color="#ffd699"></stop><stop offset="1" stop-color="#ffe7ba"></stop></linearGradient></defs><path class="cls-13" d="M8.73,512L0,179.04h512l-8.73,332.96H8.73Z" fill="#4e5e67"></path><path class="cls-9" d="M16.98,503.46L8.54,179.05h494.95l-8.44,324.41H16.98Z" fill="url(#1776131386294-4834736_linear-gradient)"></path><path class="cls-1" d="M0,179.04L68.23,25.65h375.54l68.23,153.38H0Z" fill="#6e8189"></path><path class="cls-8" d="M345.52,388.09c0,5.82-2.91,8.73-8.73,8.73h-161.57c-5.82,0-8.73-2.91-8.73-8.73v-85.15c0-5.82,2.91-8.73,8.73-8.73h161.57c5.82,0,8.73,2.91,8.73,8.73v85.15Z" fill="url(#1776131386294-4834736_linear-gradient-2)"></path><path class="cls-7" d="M341.15,388.09c0,2.91-1.46,4.37-4.37,4.37h-161.57c-2.91,0-4.37-1.46-4.37-4.37v-85.15c0-2.91,1.46-4.37,4.37-4.37h161.57c2.91,0,4.37,1.46,4.37,4.37v85.15Z" fill="url(#1776131386294-4834736_linear-gradient-3)"></path><path class="cls-6" d="M12.01,172.49L72.05,30.02h367.9l60.04,142.46H12.01Z" fill="url(#1776131386294-4834736_linear-gradient-4)"></path><path class="cls-12" d="M435.82,32.34v34.93H77.49v-34.93h358.33Z" fill="#fff"></path><path class="cls-4" d="M311.68,60.04v-23.47c1.46-.73,2.73-2,3.82-3.82l4.91-27.84c1.82-3.28,4.55-4.91,8.19-4.91h88.97c3.64,0,6.19,1.64,7.64,4.91l4.37,25.65c.73,1.46,1.82,2.82,3.28,4.09s2.91,1.91,4.37,1.91v23.47h-125.54Z" fill="url(#1776131386294-4834736_linear-gradient-5)"></path><path class="cls-11" d="M448.14,163.75H63.86V44.21c0-5.46,2.91-8.19,8.73-8.19h366.81c5.82,0,8.73,2.73,8.73,8.19v119.54Z" fill="#e6ba7a"></path><path class="cls-12" d="M445.32,74.98v34.93H66.68v-34.93h378.64Z" fill="#fff"></path><path class="cls-5" d="M188.32,102.62v-23.47c1.46-.73,2.73-2,3.82-3.82l4.91-27.84c1.82-3.28,4.55-4.91,8.19-4.91h88.97c3.64,0,6.19,1.64,7.64,4.91l4.37,25.65c.73,1.46,1.82,2.82,3.28,4.09s2.91,1.91,4.37,1.91v23.47h-125.54Z" fill="url(#1776131386294-4834736_linear-gradient-6)"></path><path class="cls-10" d="M456.32,172.49H55.68v-85.7c0-5.46,2.73-8.19,8.19-8.19h384.27c5.46,0,8.19,2.73,8.19,8.19v85.7Z" fill="#f7d094"></path><path class="cls-12" d="M452.89,116v34.93H60.43v-34.93h392.46Z" fill="#fff"></path><path class="cls-3" d="M64.41,143.56v-23.47c1.46-.73,2.73-2,3.82-3.82l4.91-27.84c1.82-3.28,4.55-4.91,8.19-4.91h88.97c3.64,0,6.19,1.64,7.64,4.91l4.37,25.65c.73,1.46,1.82,2.82,3.28,4.09s2.91,1.91,4.37,1.91v23.47h-125.54Z" fill="url(#1776131386294-4834736_linear-gradient-7)"></path><path class="cls-2" d="M456.32,119.54c5.82,0,8.73,2.91,8.73,8.73v44.21H46.94v-44.21c0-5.82,2.91-8.73,8.73-8.73h400.65Z" fill="url(#1776131386294-4834736_linear-gradient-8)"></path></g></svg>