<svg data-name="Layer 1" xmlns="http://www.w3.org/2000/svg" style="" viewBox="0 0 512 512"><g class="nc-icon-wrapper"><defs><linearGradient id="1776302860526-2795667_linear-gradient" x1="256.27" y1="1006.53" x2="256.27" y2="528.92" gradientTransform="translate(0 -512)" gradientUnits="userSpaceOnUse"><stop offset="0" stop-color="#0086e6"></stop><stop offset=".5" stop-color="#0086e6"></stop><stop offset="1" stop-color="#14bbff"></stop></linearGradient></defs><path class="cls-1" d="M443.77,512H68.23c-12.37,0-23.74-3.09-34.12-9.28s-18.65-14.46-24.84-24.84c-6.19-10.37-9.28-21.74-9.28-34.12V68.23c0-12.37,3.09-23.74,9.28-34.12s14.46-18.65,24.84-24.84S55.86,0,68.23,0h375.54c12.37,0,23.74,3.09,34.12,9.28,10.37,6.19,18.65,14.46,24.84,24.84s9.28,21.74,9.28,34.12v375.54c0,12.37-3.09,23.74-9.28,34.12-6.19,10.37-14.46,18.65-24.84,24.84-10.37,6.19-21.74,9.28-34.12,9.28Z" fill="#0086e6"></path><path class="cls-2" d="M443.77,494.53H68.23c-14.19,0-26.2-4.91-36.03-14.74-9.83-9.83-14.74-21.83-14.74-36.03V68.23c0-14.19,4.91-26.29,14.74-36.3s21.83-15.01,36.03-15.01h375.54c14.19,0,26.29,5,36.3,15.01s15.01,22.11,15.01,36.3v375.54c0,14.19-5,26.2-15.01,36.03-10.01,9.83-22.11,14.74-36.3,14.74Z" fill="url(#1776302860526-2795667_linear-gradient)"></path><path class="cls-3" d="M375.54,325.32l-64.96-63.32-114.63,113.54-59.5-60.04,112.99-114.63-62.77-64.41h188.86v188.86Z" fill="#fff"></path></g></svg>