<svg data-name="Layer 1" xmlns="http://www.w3.org/2000/svg" style="" viewBox="0 0 494.35 512"><g class="nc-icon-wrapper"><defs><radialGradient id="1777685729943-6105352_radial-gradient" cx="369.02" cy="-109.39" fx="369.02" fy="-109.39" r="232.64" gradientTransform="rotate(45.02 -55.24 26.526) skewX(.05)" gradientUnits="userSpaceOnUse"><stop offset=".44" stop-color="#356628"></stop><stop offset=".63" stop-color="#305e24"></stop><stop offset=".91" stop-color="#224918"></stop><stop offset="1" stop-color="#1d4013"></stop></radialGradient><radialGradient id="1777685729943-6105352_radial-gradient-2" cx="404.89" cy="-57.5" fx="404.89" fy="-57.5" r="234.04" gradientTransform="matrix(.6667 .6679 -1.6098 1.6129 -115.023 49.121)" gradientUnits="userSpaceOnUse"><stop offset=".16" stop-color="#fdf286"></stop><stop offset=".4" stop-color="#edee75"></stop><stop offset=".86" stop-color="#c3e24a"></stop><stop offset=".94" stop-color="#bce042"></stop></radialGradient><radialGradient id="1777685729943-6105352_radial-gradient-3" cx="-84.23" cy="389.76" fx="-84.23" fy="471.01" r="108.59" gradientTransform="matrix(.8762 -.87742 .59362 .59432 23.91 -41.26)" gradientUnits="userSpaceOnUse"><stop offset=".21" stop-color="#3d4a11" stop-opacity=".4"></stop><stop offset=".31" stop-color="#424e14" stop-opacity=".35"></stop><stop offset=".42" stop-color="#4f5a1c" stop-opacity=".29"></stop><stop offset=".54" stop-color="#656d29" stop-opacity=".23"></stop><stop offset=".66" stop-color="#84883c" stop-opacity=".17"></stop><stop offset=".79" stop-color="#acab54" stop-opacity=".1"></stop><stop offset=".91" stop-color="#dbd572" stop-opacity=".04"></stop><stop offset=".99" stop-color="#fdf286" stop-opacity="0"></stop></radialGradient><radialGradient id="1777685729943-6105352_radial-gradient-4" cx="231.42" cy="-13.8" fx="231.42" fy="-13.8" r="102.42" gradientTransform="matrix(.70686 .70735 -1.08834 1.08955 -2.74 52.12)" gradientUnits="userSpaceOnUse"><stop offset="0" stop-color="#e6a157"></stop><stop offset=".13" stop-color="#db974f"></stop><stop offset=".36" stop-color="#bd7b3a"></stop><stop offset=".65" stop-color="#8e4e18"></stop><stop offset=".78" stop-color="#783a09"></stop><stop offset="1" stop-color="#542906"></stop></radialGradient><radialGradient id="1777685729943-6105352_radial-gradient-5" cx="888.86" cy="47.63" fx="888.86" fy="47.63" r="194.38" gradientTransform="matrix(.35966 .4677 -.6019 .46402 -156.21 -253.73)" gradientUnits="userSpaceOnUse"><stop offset="0" stop-color="#fff" stop-opacity=".2"></stop><stop offset=".76" stop-color="#fff" stop-opacity="0"></stop></radialGradient></defs><path class="cls-5" d="M450.59,13.6C402.45-18.08-26.28,367.45,27.48,421.26c201.73,201.93,359.72,23.31,413.02-115.17,41.56-107.93,91.85-238.66,10.1-292.49h-.01Z" fill="url(#1777685729943-6105352_radial-gradient)"></path><path class="cls-6" d="M441.56,167.19c75.7-126.74,10.42-222.31-133.55-131.04-77.76,49.29-159.31,68.66-236.96,155.31-185.86,207.35,29.68,372.36,225.58,199.05,75.63-66.9,113.67-170.92,144.94-223.32h-.01Z" fill="#bce042"></path><path class="cls-4" d="M425.95,166.34c73.23-118.29,16.73-203.49-117.71-115.39-72.6,47.58-147.7,67.94-221.45,149.65-176.47,195.55,14.98,339.31,199.54,174.55,71.24-63.62,109.35-159.92,139.63-208.81h0Z" fill="url(#1777685729943-6105352_radial-gradient-2)"></path><path class="cls-3" d="M297.89,162.25c116.13,116.27-100.3,332.94-216.41,216.68-116.12-116.26,100.3-332.94,216.41-216.68" fill="url(#1777685729943-6105352_radial-gradient-3)"></path><path class="cls-2" d="M278.55,206.13c-5.41,92.19-69.68,148.57-123.8,155.53-50.7,6.53-79.52-47.97-74.27-97.43,6.49-61.07,66.46-110.29,157.06-101.62,30.29,2.9,42.33,21.04,41.01,43.52" fill="url(#1777685729943-6105352_radial-gradient-4)"></path><path class="cls-7" d="M189.69,167.72c-56.28,18.49-93.79,70.01-101.7,127.73,16.96-54.28,52.63-99.09,101.7-127.73M174.04,342.57c54.37-23.53,87.07-78.24,89.7-136.45-11.97,55.6-43.43,103.46-89.7,136.45" style="isolation:isolate" fill="#16002b" opacity=".1"></path><path class="cls-7" d="M107.15,317.94c30-30.12,43.32-108.19,61.63-123.2-39.76,28.99-39.39,83.35-61.63,123.2M250.75,185.83c-14.99,32.64-107.84,90.27-117.85,144.01,23.38-58.58,102.06-81.82,117.85-144.01M241.57,233.9c-42.57,25.94-54.73,80.07-96.98,106.49,49.71-15.24,74.02-90.82,96.98-106.49M218.9,169.22c-46.74,10.74-57.38,101.38-69.47,112.94,36.19-29.64,26.91-89.06,69.47-112.94" style="isolation:isolate" fill="#16002b" opacity=".1"></path><path class="cls-1" d="M207.38,283.28c-33.24,25.63-76.28,25.47-96.1-.34-19.87-25.85-9.03-67.53,24.21-93.15,33.24-25.64,76.28-25.48,96.16.34,19.87,25.83,8.98,67.54-24.27,93.15" fill="url(#1777685729943-6105352_radial-gradient-5)"></path></g></svg>