<svg data-name="Layer 1" xmlns="http://www.w3.org/2000/svg" style="" viewBox="0 0 512.24 511.99"><g class="nc-icon-wrapper"><defs><linearGradient id="1777685729957-9994919_linear-gradient" x1="196.62" y1="-194.89" x2="291.07" y2="-289.34" gradientTransform="matrix(1 0 0 -1 0 .02)" gradientUnits="userSpaceOnUse"><stop offset="0" stop-color="#f29933"></stop><stop offset=".16" stop-color="#f29933"></stop><stop offset=".19" stop-color="#ea9029"></stop><stop offset=".23" stop-color="#e28820"></stop><stop offset=".3" stop-color="#e0851d"></stop><stop offset=".45" stop-color="#e2871f"></stop><stop offset=".51" stop-color="#e78d26"></stop><stop offset=".55" stop-color="#f19831"></stop><stop offset=".55" stop-color="#f29933"></stop><stop offset=".64" stop-color="#f39c36"></stop><stop offset=".7" stop-color="#f6a640"></stop><stop offset=".76" stop-color="#fbb650"></stop><stop offset=".8" stop-color="#ffc35c"></stop><stop offset="1" stop-color="#ffc35c"></stop></linearGradient><linearGradient id="1777685729957-9994919_linear-gradient-2" x1="26.32" y1="-414.72" x2="57.99" y2="-423.45" gradientTransform="matrix(1 0 0 -1 0 .02)" gradientUnits="userSpaceOnUse"><stop offset="0" stop-color="#ffdead"></stop><stop offset=".23" stop-color="#ffdead"></stop><stop offset=".34" stop-color="#fcd8a4"></stop><stop offset=".51" stop-color="#f2c98d"></stop><stop offset=".63" stop-color="#ebbd7a"></stop><stop offset="1" stop-color="#ebbd7a"></stop></linearGradient><linearGradient id="1777685729957-9994919_linear-gradient-3" x1="100" y1="-330.74" x2="138.77" y2="-340.57" gradientTransform="matrix(1 0 0 -1 0 .02)" gradientUnits="userSpaceOnUse"><stop offset="0" stop-color="#ffdead"></stop><stop offset=".23" stop-color="#ffdead"></stop><stop offset=".34" stop-color="#fcd8a4"></stop><stop offset=".51" stop-color="#f2c98d"></stop><stop offset=".63" stop-color="#ebbd7a"></stop><stop offset="1" stop-color="#ebbd7a"></stop></linearGradient><linearGradient id="1777685729957-9994919_linear-gradient-4" x1="172.67" y1="-250.83" x2="211.43" y2="-260.66" gradientTransform="matrix(1 0 0 -1 0 .02)" gradientUnits="userSpaceOnUse"><stop offset="0" stop-color="#ffdead"></stop><stop offset=".23" stop-color="#ffdead"></stop><stop offset=".34" stop-color="#fcd8a4"></stop><stop offset=".51" stop-color="#f2c98d"></stop><stop offset=".63" stop-color="#ebbd7a"></stop><stop offset="1" stop-color="#ebbd7a"></stop></linearGradient><linearGradient id="1777685729957-9994919_linear-gradient-5" x1="261.02" y1="-169.3" x2="297.6" y2="-179.13" gradientTransform="matrix(1 0 0 -1 0 .02)" gradientUnits="userSpaceOnUse"><stop offset="0" stop-color="#ffdead"></stop><stop offset=".23" stop-color="#ffdead"></stop><stop offset=".34" stop-color="#fcd8a4"></stop><stop offset=".51" stop-color="#f2c98d"></stop><stop offset=".63" stop-color="#ebbd7a"></stop><stop offset="1" stop-color="#ebbd7a"></stop></linearGradient><linearGradient id="1777685729957-9994919_linear-gradient-6" x1="345.89" y1="-101.29" x2="376.32" y2="-109.98" gradientTransform="matrix(1 0 0 -1 0 .02)" gradientUnits="userSpaceOnUse"><stop offset="0" stop-color="#ffdead"></stop><stop offset=".23" stop-color="#ffdead"></stop><stop offset=".34" stop-color="#fcd8a4"></stop><stop offset=".51" stop-color="#f2c98d"></stop><stop offset=".63" stop-color="#ebbd7a"></stop><stop offset="1" stop-color="#ebbd7a"></stop></linearGradient><linearGradient id="1777685729957-9994919_linear-gradient-7" x1="423.7" y1="-44.33" x2="444.44" y2="-49.79" gradientTransform="matrix(1 0 0 -1 0 .02)" gradientUnits="userSpaceOnUse"><stop offset="0" stop-color="#ffdead"></stop><stop offset=".23" stop-color="#ffdead"></stop><stop offset=".34" stop-color="#fcd8a4"></stop><stop offset=".51" stop-color="#f2c98d"></stop><stop offset=".63" stop-color="#ebbd7a"></stop><stop offset="1" stop-color="#ebbd7a"></stop></linearGradient></defs><path class="cls-7" d="M3.89,435.68c5.46-17.11,11.1-30.57,16.92-40.4,5.82-9.83,11.28-17.2,16.38-22.11s9.37-8.46,12.83-10.65c3.46-2.18,5.55-4,6.28-5.46,4.73-10.56,11.28-20.84,19.65-30.85s16.83-19.2,25.39-27.57,15.92-15.38,22.11-21.02c6.19-5.64,9.65-9.01,10.37-10.1,12.38-19.65,23.93-34.67,34.67-45.04s20.11-18.38,28.12-24.02,14.38-11.56,19.11-17.74c13.47-16.38,24.2-28.48,32.21-36.31s14.56-13.28,19.65-16.38c5.1-3.09,9.55-5.73,13.38-7.92s8.28-5.82,13.38-10.92c13.83-14.56,26.48-25.39,37.94-32.48s20.84-12.1,28.12-15.01,11.47-5.28,12.56-7.1c5.46-9.46,13.19-17.29,23.2-23.48,10.01-6.19,19.84-11.28,29.48-15.29s16.65-7.64,21.02-10.92c4-3.28,10.19-4.91,18.56-4.91s16.56,1.55,24.57,4.64c8.01,3.09,13.83,7.37,17.47,12.83,5.1,8.37,6.28,17.02,3.55,25.93s-5.55,17.2-8.46,24.84c-2.91,7.64-8.19,15.29-15.83,22.93l-19.65,19.65c-14.19,14.56-29.39,30.3-45.59,47.23s-31.57,32.48-46.13,46.68c-14.19,13.83-30.85,30.3-49.96,49.41-19.11,19.11-39.31,39.31-60.6,60.6s-42.22,42.4-62.79,63.33c-20.56,20.93-39.85,40.22-57.87,57.87-18.02,17.65-33.3,32.3-45.86,43.95-12.56,11.65-21.02,18.74-25.39,21.29-6.55,3.64-14.29,6.73-23.2,9.28-8.92,2.55-17.56,1.91-25.93-1.91-8.37-3.82-15.1-13.38-20.2-28.66-2.55-7.64-3.64-15.2-3.28-22.66.36-7.46,1.64-14.65,3.82-21.57v.02Z" fill="url(#1777685729957-9994919_linear-gradient)"></path><path class="cls-6" d="M44.29,370.72c4-6.19,6.73-8.74,8.19-7.64,1.46,1.09,2.55,3.09,3.28,6.01,4.37,16.01,5.73,30.21,4.09,42.58-1.64,12.38-4.09,22.93-7.37,31.67s-5.46,15.65-6.55,20.75c-1.09,6.55-3.28,10.56-6.55,12.01s-5.82-.36-7.64-5.46c-7.64-19.29-9.46-37.22-5.46-53.78s10.01-31.94,18.02-46.13h-.01Z" fill="url(#1777685729957-9994919_linear-gradient-2)"></path><path class="cls-9" d="M32.83,472.81c1.09,2.55.91,3-.55,1.36s-2.91-3.91-4.37-6.82c-9.1-20.02-11.56-38.13-7.37-54.32,4.19-16.2,11.74-30.85,22.66-43.95,1.82-1.82,3.37-3.18,4.64-4.09s1.36-.45.27,1.36c-8.37,13.83-15.01,29.66-19.93,47.5-4.91,17.83-3.37,37.49,4.64,58.96h0ZM53.57,363.62c-.36-1.46.36-.82,2.18,1.91s3.46,5.91,4.91,9.55c3.64,9.83,5.1,20.47,4.37,31.94s-2.55,22.2-5.46,32.21c-2.91,10.01-5.82,17.56-8.74,22.66-1.82,4-3.64,7.28-5.46,9.83s-2.55,2.55-2.18,0c2.18-8.37,5-18.11,8.46-29.21s5.73-23.29,6.82-36.58c1.09-13.28-.55-27.39-4.91-42.31h0Z" fill="#cc740e"></path><path class="cls-5" d="M121.82,281.18c4-5.82,6.82-8.37,8.46-7.64s2.82,2.55,3.55,5.46c6.19,23.66,7.19,45.22,3,64.7-4.19,19.47-9.55,35.76-16.11,48.86-2.91,5.46-5.19,7.64-6.82,6.55s-3.37-4.19-5.19-9.28c-6.92-19.29-9.37-38.31-7.37-57.05s8.83-35.94,20.47-51.59h.01Z" fill="url(#1777685729957-9994919_linear-gradient-3)"></path><path class="cls-9" d="M132.74,275.72c-.36-1.46.09-1.36,1.36.27s3,5.73,5.19,12.28c5.1,16.74,7.37,31.12,6.82,43.13s-2.73,22.38-6.55,31.12-7.73,16.38-11.74,22.93c-3.28,5.46-6.19,9.46-8.74,12.01s-2.91,1.82-1.09-2.18c5.46-12.38,10.01-23.84,13.65-34.4s5.73-22.29,6.28-35.21-1.18-29.57-5.19-49.96h0ZM113.08,396.92c1.09,2.55,1,3.28-.27,2.18s-2.82-3.09-4.64-6.01c-11.28-16.01-16.2-32.12-14.74-48.32,1.46-16.2,6.19-32.12,14.19-47.77,3.28-5.82,6.46-10.01,9.55-12.56s4.09-2.91,3-1.09c-5.46,8.74-10.01,19.38-13.65,31.94s-5.28,25.84-4.91,39.85c.36,14.01,4.19,27.93,11.47,41.77h0Z" fill="#cc740e"></path><path class="cls-4" d="M188.97,206.93c3.64-6.19,8.19-11.1,13.65-14.74s8.55-4,9.28-1.09c3.28,12.01,4.46,24.66,3.55,37.94s-2.82,26.12-5.73,38.49c-2.91,12.38-6.01,23.11-9.28,32.21-3.28,9.1-5.64,15.29-7.1,18.56-2.18,5.82-3.82,8.37-4.91,7.64s-2.55-3.82-4.37-9.28c-7.64-19.29-10.92-38.95-9.83-58.96,1.09-20.02,6.01-36.94,14.74-50.77Z" fill="url(#1777685729957-9994919_linear-gradient-4)"></path><path class="cls-9" d="M211.35,190c0-2.91.73-1.91,2.18,3s2.37,9.55,2.73,13.92c.36,4.73.91,12.83,1.64,24.3s0,24.39-2.18,38.76-7.46,28.48-15.83,42.31c-.36,1.09-1.46,2.91-3.28,5.46s-3.37,4.55-4.64,6.01-1.36.91-.27-1.64c8.37-21.84,13.83-40.76,16.38-56.78,2.55-16.01,3.64-30.03,3.28-42.04-.36-12.01-.36-23.11,0-33.3h0ZM187.33,324.31c.73,2.91,0,2.91-2.18,0s-3.82-5.82-4.91-8.74c-4.37-11.28-7.1-24.11-8.19-38.49s-.36-28.03,2.18-40.95,6.92-23.2,13.1-30.85c1.46-1.82,3.28-3.55,5.46-5.19s2.73-1.55,1.64.27c-10.19,16.74-15.29,36.4-15.29,58.96s2.73,44.22,8.19,64.97v.02Z" fill="#cc740e"></path><path class="cls-2" d="M277.42,121.76c1.09-1.82,3.73-4.09,7.92-6.82s6.64-2.64,7.37.27c4.37,15.65,5.91,31.85,4.64,48.59-1.27,16.74-3.82,31.3-7.64,43.68s-7.37,20.2-10.65,23.48c-4.37,4.37-6.82,6.19-7.37,5.46s-1.55-3.82-3-9.28c-2.91-9.83-4.73-21.29-5.46-34.4-.73-13.1,0-25.93,2.18-38.49s6.19-23.39,12.01-32.48h0Z" fill="url(#1777685729957-9994919_linear-gradient-5)"></path><path class="cls-9" d="M272.5,233.68c.36,2.91.09,4.37-.82,4.37s-1.73-1.46-2.46-4.37c-7.28-24.39-10.74-45.13-10.37-62.24.36-17.11,4.91-32.76,13.65-46.95,1.46-1.82,3.09-3.46,4.91-4.91s2.18-1.27,1.09.55c-8.74,14.19-13.1,31.12-13.1,50.77s2.37,40.58,7.1,62.79h0Z" fill="#cc740e"></path><path class="cls-9" d="M291.61,113.57c.36-2.18,1.09-1.82,2.18,1.09s1.82,6.73,2.18,11.47c.73,9.83,2.09,19.02,4.09,27.57s3.09,17.11,3.28,25.66c.18,8.55-1.82,17.47-6.01,26.75s-12.1,19.75-23.75,31.39c-1.09,1.09-1.46.64-1.09-1.36s1.82-4.64,4.37-7.92c9.1-12.74,14.83-24.57,17.2-35.49,2.37-10.92,3-21.02,1.91-30.3s-2.37-17.93-3.82-25.93c-1.46-8.01-1.64-15.65-.55-22.93h.01Z" fill="#cc740e"></path><path class="cls-3" d="M365.31,62.25c5.46-5.46,8.46-7.46,9.01-6.01s.36,4.09-.55,7.92c-.91,3.83-1,6.82-.27,9.01,2.91,10.56,3.82,20.84,2.73,30.85s-3.18,18.93-6.28,26.75-5.91,13.74-8.46,17.74c-3.28,5.1-5.64,7.92-7.1,8.46s-3.28-1.73-5.46-6.82c-5.46-14.56-6.46-30.39-3-47.5s9.92-30.57,19.38-40.4h0Z" fill="url(#1777685729957-9994919_linear-gradient-6)"></path><path class="cls-9" d="M372.96,54.61c.73-1.46,1.27-1.18,1.64.82s.55,4.09.55,6.28c-.36,8.01,0,15.38,1.09,22.11s1.73,13.56,1.91,20.47-1.09,14.38-3.82,22.38c-2.73,8.01-8.1,17.47-16.11,28.39-1.09,1.46-2.64,2.64-4.64,3.55s-1.91-.45.27-4.09c8.01-13.47,13.01-25.11,15.01-34.94s2.55-18.47,1.64-25.93c-.91-7.46-1.55-14.29-1.91-20.47s1.09-12.38,4.37-18.56h0Z" fill="#cc740e"></path><path class="cls-9" d="M352.76,157.25c0,1.46-.64,1.64-1.91.55s-2.27-3.64-3-7.64c-2.18-10.19-4.37-19.65-6.55-28.39-2.18-8.74-2.18-17.65,0-26.75s8.74-19.47,19.65-31.12c1.82-2.18,4.09-4,6.82-5.46s2.82-.73.27,2.18c-8.37,9.46-14.01,18.84-16.92,28.12s-4.09,18.29-3.55,27.02,1.55,16.65,3,23.75,2.18,13.01,2.18,17.74h.01Z" fill="#cc740e"></path><path class="cls-1" d="M440.66,12.02c3.28-4.73,5.46-6.73,6.55-6.01s1.82,2.18,2.18,4.37c1.46,11.65.73,22.02-2.18,31.12s-6.37,16.83-10.37,23.2-6.55,11.37-7.64,15.01c-1.46,5.1-2.55,8.19-3.28,9.28s-1.46-.18-2.18-3.82c-3.64-14.19-3.64-27.3,0-39.31s9.28-23.29,16.92-33.85h0Z" fill="url(#1777685729957-9994919_linear-gradient-7)"></path><path class="cls-9" d="M422.09,76.44c0,1.46-.64,1-1.91-1.36s-1.91-6.1-1.91-11.19c-.36-6.19.73-14.01,3.28-23.48,2.55-9.46,6.19-16.92,10.92-22.38,2.91-3.64,5.37-6.1,7.37-7.37s2.82-1.55,2.46-.82c-5.82,8.74-10.19,16.29-13.1,22.66s-4.91,12.83-6.01,19.38c-1.09,6.55-1.46,14.74-1.09,24.57h0ZM449.39,9.84c0-1.46.36-.82,1.09,1.91s1.27,6.64,1.64,11.74c.36,6.19-1,13.56-4.09,22.11s-6.46,15.92-10.1,22.11c-2.55,4.37-4.73,7.73-6.55,10.1s-2.55,3-2.18,1.91c2.55-6.92,5.37-13.56,8.46-19.93s5.73-13.38,7.92-21.02c2.18-7.64,3.46-17.29,3.82-28.94h-.01Z" fill="#cc740e"></path><path class="cls-8" d="M313.45,241.32c6.55-8.37,13.74-16.2,21.57-23.48s15.56-14.74,23.2-22.38c6.92-7.28,11.83-9.65,14.74-7.1s.36,8.19-7.64,16.92c-22.93,25.11-46.04,48.68-69.34,70.7-23.29,22.02-46.68,43.86-70.16,65.52-23.48,21.66-46.86,44.68-70.16,69.06-4.73,5.1-10.56,11.56-17.47,19.38-6.92,7.83-12.74,14.47-17.47,19.93-8.37,8.74-13.56,13.19-15.56,13.38s-1.82-1.82.55-6.01,5.91-8.46,10.65-12.83c9.83-10.19,18.38-20.56,25.66-31.12s15.65-21.11,25.11-31.67c14.92-16.38,31.03-31.94,48.32-46.68s34.49-29.66,51.59-44.77c17.11-15.1,32.58-31.39,46.41-48.86h0Z" fill="#ffd48a"></path><path class="cls-8" d="M495.25,19.66c-2.55-4.73-3.09-7.28-1.64-7.64s3.55.82,6.28,3.55,5,6.92,6.82,12.56,1.82,12.1,0,19.38c-3.28,13.83-10.37,26.75-21.29,38.76s-24.66,25.11-41.22,39.31c-16.56,14.19-35.21,31.67-55.96,52.41-4.37,4.37-6.1,5.1-5.19,2.18s3.64-7.55,8.19-13.92,10.1-12.47,16.65-18.29c12.38-11.28,21.57-20.66,27.57-28.12s10.65-13.74,13.92-18.84,6.92-10.01,10.92-14.74,9.1-8.92,15.29-12.56,11.83-7.64,16.92-12.01,8.28-9.92,9.55-16.65c1.27-6.73-1-15.2-6.82-25.39h0ZM56.85,492.46c3.28-1.46,7.83-3.46,13.65-6.01s10.83-4.46,15.01-5.73,5-.27,2.46,3c-4.37,5.82-10.83,11.1-19.38,15.83-8.55,4.73-17.38,7.46-26.48,8.19s-16.74-1.82-22.93-7.64c-4-4.73-5.37-7.37-4.09-7.92,1.28-.55,4.19-.36,8.74.55s9.83,1.64,15.83,2.18,11.74-.27,17.2-2.46h-.01Z" fill="#ffd48a"></path></g></svg>