<svg data-name="Layer 1" xmlns="http://www.w3.org/2000/svg" style="" viewBox="0 0 512.01 512"><g class="nc-icon-wrapper"><defs><linearGradient id="1776585740438-373049_linear-gradient" x1="67.94" y1="210.52" x2="263.15" y2="210.52" gradientTransform="matrix(1 0 0 -1 0 514)" gradientUnits="userSpaceOnUse"><stop offset="0" stop-color="#ffadc6"></stop><stop offset=".23" stop-color="#ff7393"></stop><stop offset=".68" stop-color="#ff7393"></stop><stop offset="1" stop-color="#e36b8f"></stop></linearGradient><linearGradient id="1776585740438-373049_linear-gradient-2" x1="159" y1="143.62" x2="159" y2="369.05" gradientTransform="matrix(1 0 0 -1 0 514)" gradientUnits="userSpaceOnUse"><stop offset="0" stop-color="#e3c0b1"></stop><stop offset=".13" stop-color="#e9cabd"></stop><stop offset=".45" stop-color="#f5ddd5"></stop><stop offset=".75" stop-color="#fce8e3"></stop><stop offset="1" stop-color="#ffece8"></stop></linearGradient><linearGradient id="1776585740438-373049_linear-gradient-3" x1="286.2" y1="204.44" x2="491.08" y2="204.44" gradientTransform="matrix(1 0 0 -1 0 514)" gradientUnits="userSpaceOnUse"><stop offset="0" stop-color="#ffadc6"></stop><stop offset=".23" stop-color="#ff7393"></stop><stop offset=".68" stop-color="#ff7393"></stop><stop offset="1" stop-color="#e36b8f"></stop></linearGradient><linearGradient id="1776585740438-373049_linear-gradient-4" x1="358.1" y1="106.25" x2="358.1" y2="372.95" gradientTransform="matrix(1 0 0 -1 0 514)" gradientUnits="userSpaceOnUse"><stop offset="0" stop-color="#e3c0b1"></stop><stop offset=".13" stop-color="#e9cabd"></stop><stop offset=".45" stop-color="#f5ddd5"></stop><stop offset=".75" stop-color="#fce8e3"></stop><stop offset="1" stop-color="#ffece8"></stop></linearGradient><linearGradient id="1776585740438-373049_linear-gradient-5" x1="286.2" y1="343.4" x2="491.08" y2="343.4" gradientTransform="matrix(1 0 0 -1 0 514)" gradientUnits="userSpaceOnUse"><stop offset="0" stop-color="#ffadc6"></stop><stop offset=".23" stop-color="#ff7393"></stop><stop offset=".68" stop-color="#ff7393"></stop><stop offset="1" stop-color="#e36b8f"></stop></linearGradient><linearGradient id="1776585740438-373049_linear-gradient-6" x1="257.01" y1="367.27" x2="422.4" y2="367.27" gradientTransform="matrix(1 0 0 -1 0 514)" gradientUnits="userSpaceOnUse"><stop offset="0" stop-color="#ffadc6"></stop><stop offset=".23" stop-color="#ff7393"></stop><stop offset=".68" stop-color="#ff7393"></stop><stop offset="1" stop-color="#e36b8f"></stop></linearGradient><linearGradient id="1776585740438-373049_linear-gradient-7" x1="84" y1="352.49" x2="174.77" y2="352.49" gradientTransform="matrix(1 0 0 -1 0 514)" gradientUnits="userSpaceOnUse"><stop offset="0" stop-color="#ffadc6"></stop><stop offset=".23" stop-color="#ff7393"></stop><stop offset=".68" stop-color="#ff7393"></stop><stop offset="1" stop-color="#e36b8f"></stop></linearGradient><linearGradient id="1776585740438-373049_linear-gradient-8" x1="0" y1="358.79" x2="175.04" y2="358.79" gradientTransform="matrix(1 0 0 -1 0 514)" gradientUnits="userSpaceOnUse"><stop offset="0" stop-color="#ffadc6"></stop><stop offset=".23" stop-color="#ff7393"></stop><stop offset=".68" stop-color="#ff7393"></stop><stop offset="1" stop-color="#e36b8f"></stop></linearGradient></defs><path class="cls-8" d="M247.29,123.72c25.04,30.34,17.54,76.45-2.48,110.3-19.08,32.23-41.43,76.88-39.08,105.73,4.05,49.55-14.97,85.9-39.33,146.43-10.12,25.16-27.73,25.4-51.43,25.4-29.64,0-35.57-20.55-39.68-40.69-6.19-30.28-13.3-84.21,1-131.15,17.84-58.64,74.3-178.73,91.83-215.5,23.88-46.69,57.47-29.15,79.18-.53Z" fill="url(#1776585740438-373049_linear-gradient)"></path><path class="cls-10" d="M176.6,117.71c-.26.33-60.38,127.44-85.33,196.18-12.47,34.36-4.09,48.93,7.43,54.89,12.57,6.49,112.14-197.59,128.15-231.9,10.7-22.95-16.12-60.22-50.25-19.17Z" fill="#edbab2"></path><path class="cls-7" d="M222.37,145.97c-9.63-4.68-32.44,7.88-38.66,16.31-31.86,42.98-3.9,58.85-85.33,196.18-1.61,2.71-1.95,5.74-2.73,8.42,9.25,6.81,31.27,3.46,39.43-8.07,38.23-49.25,36.36-117.01,87.3-212.84Z" fill="url(#1776585740438-373049_linear-gradient-2)"></path><path class="cls-9" d="M172.6,127.21c-18.3,56.17-92.36,198.19-85.45,223.55,9.2,33.77,40.29,15.49,52.83-3.3,34.6-51.82,34.27-118.19,62.75-173.35,8.95-17.31,39.33-53.49,12.63-70.58-16.43-10.5-39.87,14.76-42.76,23.68ZM176.26,117.44c26.67-37.44,63.45-15.47,52.02,23.79-9.35,32.11-30.2,61.16-40.06,93.81-10.16,33.6-15.25,68.51-33.35,99.17-11.3,19.16-32.05,51.23-58.27,34.67-27.32-17.25-4.95-63.04,3.18-85.2,21.09-57.49,49.79-111.28,76.48-166.24Z" fill="#fdd1c8"></path><path class="cls-6" d="M292.35,141.32c-20.48,52.29.93,121.59-5.87,205.74-1.47,18.16-1.1,36.44,1.45,54.49,6.02,42.79,20.3,111.47,49.9,110.44,41.27-1.47,70.28,10.82,86.38-113.96,18.71-144.99-45.9-292.1-84.48-290.74-.02,0-32.26-4.57-47.39,34.03Z" fill="url(#1776585740438-373049_linear-gradient-3)"></path><path class="cls-10" d="M329,119.73s-59.12-1.47-32.09,150.91c25.39,143.07,57.53,152.52,85.44,126.48,31.07-29.02,34.52-86.38,18.76-168.99-19.13-100.4-40.69-109.5-72.11-108.4Z" fill="#edbab2"></path><path class="cls-5" d="M410.23,313.82c-18.34-65.95-25.78-119.59-29.28-137.15-10.67-53.6-73.4-42.59-74.93,5.6-1,31.04,14.93,106.93,15.1,183.15,17.55,55.18,78.35,73.3,89.11-51.6Z" fill="url(#1776585740438-373049_linear-gradient-4)"></path><path class="cls-9" d="M329,120.17c-53.03,5.68-34.82,105.68-30.3,138.08,4.53,32.35,15.95,149.46,64.68,146.96,48.49-2.48,48.96-115.9,39.88-155.52-13.88-60.6-14.7-134.36-74.27-129.52ZM330.21,115.69c57.22-4.68,74.68,100.16,80.85,145.87,4.42,32.75,6.9,69.07-3.99,100.91-6.87,20.13-26.07,52.3-51.97,47.41-40.38-7.68-53.21-97.76-59.82-129.95-7.49-36.54-26.11-157.34,34.92-164.24Z" fill="#fdd1c8"></path><path class="cls-3" d="M512.01,76.77l-23.47-25.58v-17.06s-81.08,1.6-83.02,108.55c-.9,49.77-77.52,71.99-116.56,114.29,1.68,16.78,3.99,33.48,6.89,50.11,25.77-52.61,63.79-72.64,89.15-92.27,27.12-21.01,33.98-55.06,37.4-86.84,5.38-49.98,89.62-51.19,89.62-51.19Z" fill="url(#1776585740438-373049_linear-gradient-5)"></path><path class="cls-4" d="M411.61,247.38c-49.82-11.4-116.81-52.51-122.37-144.39-2.91-48.27,47.82-94.45,47.82-94.45l-27.73,8.53-8.53-17.07s-156.27,161,121.6,293.45c-.3-6.7-2.33-44.95-10.79-46.07Z" fill="url(#1776585740438-373049_linear-gradient-6)"></path><path class="cls-2" d="M162.13,17.07l-9.83,25.58-25.6-8.52c11.61,48.49,32.54,110.02,10.18,143.4-18.97,28.3-72.18,31.81-45.57,128.42,6.08-17.01,12.71-33.9,19.64-50.59-5.03-25.06,20.86-45.16,31.97-57.24,11.28-12.28,25.62-23.78,30.15-59.5,5.79-45.37-4.51-76.9-10.93-121.55Z" fill="url(#1776585740438-373049_linear-gradient-7)"></path><path class="cls-1" d="M155.66,228.91c-17.15-20-39.85-29.64-59.58-46.09-17.08-14.28-38.49-20.76-47.18-54.24-7.9-30.43-1.78-87.41-6.24-128.59l-19.2,25.6L0,0c5.7,45.73,16.33,103.02,25.6,136.48,13.87,50.1,46.6,55.35,72.11,79.59,25.53,24.28,58.33,57.04,61.03,94.35,6.72-17.37,11.58-35.53,16.3-53.8-5.27-9.22-11.65-18.68-19.38-27.71-5.48-6.41,7.73,9.03,0,0Z" fill="url(#1776585740438-373049_linear-gradient-8)"></path></g></svg>