<svg data-name="Layer 1" xmlns="http://www.w3.org/2000/svg" style="" viewBox="0 0 512.03 512"><g class="nc-icon-wrapper"><defs><linearGradient id="1777685730028-7728858_linear-gradient" x1="478.41" y1="173.41" x2="495.48" y2="173.41" gradientTransform="translate(0 2)" gradientUnits="userSpaceOnUse"><stop offset="0" stop-color="#767f82"></stop><stop offset=".18" stop-color="#7d8689"></stop><stop offset=".44" stop-color="#90999d"></stop><stop offset=".76" stop-color="#b0b9bd"></stop><stop offset="1" stop-color="#cdd6db"></stop></linearGradient><radialGradient id="1777685730028-7728858_radial-gradient" cx="419.22" cy="82.04" fx="419.22" fy="82.04" r="77.03" gradientTransform="matrix(1 0 0 .95 0 3.44)" gradientUnits="userSpaceOnUse"><stop offset=".76" stop-color="#767f82"></stop><stop offset=".8" stop-color="#7e878a"></stop><stop offset=".87" stop-color="#939ca0"></stop><stop offset=".95" stop-color="#b6bfc3"></stop><stop offset="1" stop-color="#cdd6db"></stop></radialGradient><linearGradient id="1777685730028-7728858_linear-gradient-2" x1="478.41" y1="78.9" x2="495.48" y2="78.9" gradientTransform="translate(0 2)" gradientUnits="userSpaceOnUse"><stop offset="0" stop-color="#767f82"></stop><stop offset=".33" stop-color="#788184"></stop><stop offset=".52" stop-color="#80898d"></stop><stop offset=".68" stop-color="#8e979a"></stop><stop offset=".81" stop-color="#a1aaae"></stop><stop offset=".93" stop-color="#bac3c7"></stop><stop offset="1" stop-color="#cdd6db"></stop></linearGradient><linearGradient id="1777685730028-7728858_linear-gradient-3" x1="835.4" y1="325.65" x2="864.8" y2="325.65" gradientTransform="rotate(45.06 964.212 -402.185)" gradientUnits="userSpaceOnUse"><stop offset="0" stop-color="#cdd6db"></stop><stop offset="0" stop-color="#ccd5da"></stop><stop offset=".68" stop-color="#8e979b"></stop><stop offset="1" stop-color="#767f82"></stop></linearGradient><linearGradient id="1777685730028-7728858_linear-gradient-4" x1="802.8" y1="351.84" x2="894.34" y2="351.84" gradientTransform="rotate(45.06 964.212 -402.185)" gradientUnits="userSpaceOnUse"><stop offset="0" stop-color="#cdd6db"></stop><stop offset="0" stop-color="#ccd5da"></stop><stop offset=".68" stop-color="#8e979b"></stop><stop offset="1" stop-color="#767f82"></stop></linearGradient><linearGradient id="1777685730028-7728858_linear-gradient-5" x1="802.74" y1="361.97" x2="894.34" y2="361.97" gradientTransform="rotate(45.06 964.212 -402.185)" gradientUnits="userSpaceOnUse"><stop offset="0" stop-color="#9ea5a8"></stop><stop offset=".14" stop-color="#899093"></stop><stop offset=".34" stop-color="#72797c"></stop><stop offset=".53" stop-color="#646b6e"></stop><stop offset=".69" stop-color="#5f6669"></stop></linearGradient><linearGradient id="1777685730028-7728858_linear-gradient-6" x1="872.5" y1="393.04" x2="824.64" y2="345.18" gradientTransform="rotate(45.06 964.212 -402.185)" gradientUnits="userSpaceOnUse"><stop offset="0" stop-color="#cdd6db"></stop><stop offset=".08" stop-color="#c1cacf"></stop><stop offset=".34" stop-color="#a0a9ad"></stop><stop offset=".58" stop-color="#899295"></stop><stop offset=".81" stop-color="#7b8487"></stop><stop offset="1" stop-color="#767f82"></stop></linearGradient><radialGradient id="1777685730028-7728858_radial-gradient-2" cx="242.85" cy="268.08" fx="242.85" fy="268.08" r="319.29" gradientTransform="matrix(1 0 0 .75 0 8.42)" gradientUnits="userSpaceOnUse"><stop offset="0" stop-color="#fff"></stop><stop offset=".28" stop-color="#fafbfc"></stop><stop offset=".58" stop-color="#edf1f2"></stop><stop offset=".9" stop-color="#d7dfe3"></stop><stop offset="1" stop-color="#cfd8dd"></stop></radialGradient><linearGradient id="1777685730028-7728858_linear-gradient-7" x1="-143.15" y1="556.67" x2="-125.43" y2="433.16" gradientTransform="matrix(-1 0 0 .81 290.32 60.91)" gradientUnits="userSpaceOnUse"><stop offset="0" stop-color="#cdd6db"></stop><stop offset=".02" stop-color="#c7d0d4"></stop><stop offset=".15" stop-color="#a4adb1"></stop><stop offset=".27" stop-color="#8b9497"></stop><stop offset=".37" stop-color="#7b8487"></stop><stop offset=".46" stop-color="#767f82"></stop><stop offset=".59" stop-color="#879094"></stop><stop offset=".86" stop-color="#b4bdc1"></stop><stop offset="1" stop-color="#cdd6db"></stop></linearGradient><linearGradient id="1777685730028-7728858_linear-gradient-8" x1="78.3" y1="556.67" x2="96.02" y2="433.16" gradientTransform="matrix(1 0 0 .81 0 60.91)" gradientUnits="userSpaceOnUse"><stop offset="0" stop-color="#cdd6db"></stop><stop offset=".02" stop-color="#c7d0d4"></stop><stop offset=".15" stop-color="#a4adb1"></stop><stop offset=".27" stop-color="#8b9497"></stop><stop offset=".37" stop-color="#7b8487"></stop><stop offset=".46" stop-color="#767f82"></stop><stop offset=".59" stop-color="#879094"></stop><stop offset=".86" stop-color="#b4bdc1"></stop><stop offset="1" stop-color="#cdd6db"></stop></linearGradient><linearGradient id="1777685730028-7728858_linear-gradient-9" x1="1303.51" y1="292.74" x2="1303.51" y2="267.14" gradientTransform="matrix(-1 0 0 1 1559.526 1.996)" gradientUnits="userSpaceOnUse"><stop offset="0" stop-color="#cfd8dd"></stop><stop offset=".29" stop-color="#d8dfe4"></stop><stop offset=".78" stop-color="#f1f4f5"></stop><stop offset="1" stop-color="#fff"></stop></linearGradient><linearGradient id="1777685730028-7728858_linear-gradient-10" x1="1309.61" y1="307.08" x2="1309.61" y2="211.29" gradientTransform="matrix(-1 0 0 1 1559.526 1.996)" gradientUnits="userSpaceOnUse"><stop offset="0" stop-color="#c2f8ff"></stop><stop offset=".13" stop-color="#c8f9ff"></stop><stop offset="1" stop-color="#ebfcff"></stop></linearGradient><linearGradient id="1777685730028-7728858_linear-gradient-11" x1="1349.97" y1="178.55" x2="1349.97" y2="160.07" gradientTransform="matrix(-1 0 0 1.0362 1559.526 4.637)" gradientUnits="userSpaceOnUse"><stop offset="0" stop-color="#c2f8ff"></stop><stop offset=".13" stop-color="#c8f9ff"></stop><stop offset="1" stop-color="#ebfcff"></stop></linearGradient><linearGradient id="1777685730028-7728858_linear-gradient-12" x1="1430.28" y1="293.94" x2="1430.28" y2="275.46" gradientTransform="matrix(-1 0 0 1.0362 1559.526 4.637)" gradientUnits="userSpaceOnUse"><stop offset="0" stop-color="#c2f8ff"></stop><stop offset=".13" stop-color="#c8f9ff"></stop><stop offset="1" stop-color="#ebfcff"></stop></linearGradient><linearGradient id="1777685730028-7728858_linear-gradient-13" x1="1253.97" y1="326.47" x2="1253.97" y2="307.99" gradientTransform="matrix(-1 0 0 1.0362 1559.526 4.637)" gradientUnits="userSpaceOnUse"><stop offset="0" stop-color="#c2f8ff"></stop><stop offset=".13" stop-color="#c8f9ff"></stop><stop offset="1" stop-color="#ebfcff"></stop></linearGradient><linearGradient id="1777685730028-7728858_linear-gradient-14" x1="1464.85" y1="154.59" x2="1464.85" y2="136.11" gradientTransform="matrix(-1 0 0 1.0362 1559.526 4.637)" gradientUnits="userSpaceOnUse"><stop offset="0" stop-color="#c2f8ff"></stop><stop offset=".13" stop-color="#c8f9ff"></stop><stop offset="1" stop-color="#ebfcff"></stop></linearGradient><linearGradient id="1777685730028-7728858_linear-gradient-15" x1="1253.97" y1="219.84" x2="1253.97" y2="201.37" gradientTransform="matrix(-1 0 0 1.0362 1559.526 4.637)" gradientUnits="userSpaceOnUse"><stop offset="0" stop-color="#c2f8ff"></stop><stop offset=".13" stop-color="#c8f9ff"></stop><stop offset="1" stop-color="#ebfcff"></stop></linearGradient><linearGradient id="1777685730028-7728858_linear-gradient-16" x1="1162.5" y1="201.78" x2="1162.5" y2="183.3" gradientTransform="matrix(-1 0 0 1.0362 1559.526 4.637)" gradientUnits="userSpaceOnUse"><stop offset="0" stop-color="#c2f8ff"></stop><stop offset=".13" stop-color="#c8f9ff"></stop><stop offset="1" stop-color="#ebfcff"></stop></linearGradient><linearGradient id="1777685730028-7728858_linear-gradient-17" x1="1398.25" y1="203.79" x2="1398.25" y2="192.55" gradientTransform="matrix(-1 0 0 1.0362 1559.526 4.637)" gradientUnits="userSpaceOnUse"><stop offset="0" stop-color="#c2f8ff"></stop><stop offset=".13" stop-color="#c8f9ff"></stop><stop offset="1" stop-color="#ebfcff"></stop></linearGradient><linearGradient id="1777685730028-7728858_linear-gradient-18" x1="1277.15" y1="178.13" x2="1277.15" y2="166.88" gradientTransform="matrix(-1 0 0 1.0362 1559.526 4.637)" gradientUnits="userSpaceOnUse"><stop offset="0" stop-color="#c2f8ff"></stop><stop offset=".13" stop-color="#c8f9ff"></stop><stop offset="1" stop-color="#ebfcff"></stop></linearGradient><linearGradient id="1777685730028-7728858_linear-gradient-19" x1="1158.7" y1="298.57" x2="1158.7" y2="287.33" gradientTransform="matrix(-1 0 0 1.0362 1559.526 4.637)" gradientUnits="userSpaceOnUse"><stop offset="0" stop-color="#c2f8ff"></stop><stop offset=".13" stop-color="#c8f9ff"></stop><stop offset="1" stop-color="#ebfcff"></stop></linearGradient><linearGradient id="1777685730028-7728858_linear-gradient-20" x1="1088.98" y1="285.58" x2="1088.98" y2="274.34" gradientTransform="matrix(-1 0 0 1.0362 1559.526 4.637)" gradientUnits="userSpaceOnUse"><stop offset="0" stop-color="#c2f8ff"></stop><stop offset=".13" stop-color="#c8f9ff"></stop><stop offset="1" stop-color="#ebfcff"></stop></linearGradient><linearGradient id="1777685730028-7728858_linear-gradient-21" x1="1343.71" y1="298.57" x2="1343.71" y2="287.33" gradientTransform="matrix(-1 0 0 1.0362 1559.526 4.637)" gradientUnits="userSpaceOnUse"><stop offset="0" stop-color="#c2f8ff"></stop><stop offset=".13" stop-color="#c8f9ff"></stop><stop offset="1" stop-color="#ebfcff"></stop></linearGradient><linearGradient id="1777685730028-7728858_linear-gradient-22" x1="1523.95" y1="298.57" x2="1523.95" y2="287.33" gradientTransform="matrix(-1 0 0 1.0362 1559.526 4.637)" gradientUnits="userSpaceOnUse"><stop offset="0" stop-color="#c2f8ff"></stop><stop offset=".13" stop-color="#c8f9ff"></stop><stop offset="1" stop-color="#ebfcff"></stop></linearGradient><linearGradient id="1777685730028-7728858_linear-gradient-23" x1="1488.95" y1="187.36" x2="1488.95" y2="176.12" gradientTransform="matrix(-1 0 0 1.0362 1559.526 4.637)" gradientUnits="userSpaceOnUse"><stop offset="0" stop-color="#c2f8ff"></stop><stop offset=".13" stop-color="#c8f9ff"></stop><stop offset="1" stop-color="#ebfcff"></stop></linearGradient><linearGradient id="1777685730028-7728858_linear-gradient-24" x1="1426.24" y1="169.3" x2="1426.24" y2="158.05" gradientTransform="matrix(-1 0 0 1.0362 1559.526 4.637)" gradientUnits="userSpaceOnUse"><stop offset="0" stop-color="#c2f8ff"></stop><stop offset=".13" stop-color="#c8f9ff"></stop><stop offset="1" stop-color="#ebfcff"></stop></linearGradient><linearGradient id="1777685730028-7728858_linear-gradient-25" x1="1191.72" y1="219.83" x2="1191.72" y2="208.57" gradientTransform="matrix(-1 0 0 1.0362 1559.526 4.637)" gradientUnits="userSpaceOnUse"><stop offset="0" stop-color="#c2f8ff"></stop><stop offset=".13" stop-color="#c8f9ff"></stop><stop offset="1" stop-color="#ebfcff"></stop></linearGradient><linearGradient id="1777685730028-7728858_linear-gradient-26" x1="1101.52" y1="221.85" x2="1101.52" y2="210.6" gradientTransform="matrix(-1 0 0 1.0362 1559.526 4.637)" gradientUnits="userSpaceOnUse"><stop offset="0" stop-color="#c2f8ff"></stop><stop offset=".13" stop-color="#c8f9ff"></stop><stop offset="1" stop-color="#ebfcff"></stop></linearGradient></defs><path class="cls-9" d="M101.55,446.28c-.85,8.11-2.3,43.18-2.3,43.18,0,0,32.51.94,35.5-5.38,4.61-9.81,9.56-24.49,10.33-37.8h-43.53Z" fill="#5d696e"></path><path class="cls-9" d="M410.21,446.28c.85,8.11,2.3,43.18,2.3,43.18,0,0-32.51.94-35.5-5.38-4.61-9.81-9.56-24.49-10.33-37.8h43.53Z" fill="#5d696e"></path><path class="cls-13" d="M105.31,449.01c.17-17.58-15.1-32.94-14-33.28,1.11-.43,20.4,14.42,19.54,34.22,0,1.11-5.55.17-5.55-.94h.01Z" style="isolation:isolate" fill="#545f63" opacity=".25"></path><path class="cls-13" d="M95.15,447.56c-3.75-21.42-23.04-31.15-22.19-31.83s21.85,8.53,27.05,32.51c.26,1.02-4.61.43-4.86-.68h0Z" style="isolation:isolate" fill="#545f63" opacity=".25"></path><path class="cls-13" d="M86.96,446.37c-11.78-20.74-22.61-20.22-21.85-20.99s14.76,0,26.03,21.76c.51.94-3.58.17-4.18-.77h0Z" style="isolation:isolate" fill="#545f63" opacity=".25"></path><path class="cls-13" d="M406.46,449.01c-.17-17.58,15.1-32.94,14-33.28-1.11-.43-20.4,14.42-19.54,34.22,0,1.11,5.55.17,5.55-.94h0Z" style="isolation:isolate" fill="#545f63" opacity=".25"></path><path class="cls-13" d="M416.53,447.56c3.75-21.42,23.04-31.15,22.19-31.83s-21.85,8.53-27.05,32.51c-.26,1.02,4.69.43,4.86-.68h0Z" style="isolation:isolate" fill="#545f63" opacity=".25"></path><path class="cls-13" d="M424.72,446.37c11.78-20.74,22.61-20.22,21.85-20.99s-14.76,0-26.03,21.76c-.43.94,3.67.17,4.18-.77h0Z" style="isolation:isolate" fill="#545f63" opacity=".25"></path><path class="cls-11" d="M495.48,272.03h-17.07V80.61c0-2.65,17.07-2.22,17.07,0v191.41h0Z" fill="url(#1777685730028-7728858_linear-gradient)"></path><path class="cls-10" d="M478.41,80.61c0-26.97-12.63-47.96-34.65-57.77-26.8-11.86-48.47-5.72-75.52,18.77l-11.52-12.54C388.88-.03,417.55-7.28,450.59,7.31c28.08,12.46,44.8,39.85,44.8,73.3h-16.98,0Z" fill="url(#1777685730028-7728858_radial-gradient)"></path><path class="cls-8" d="M478.41,79.59v1.02c0,2.13,17.07,2.13,17.07,0v-1.02c-3.07,1.19-14,1.19-17.07,0Z" fill="url(#1777685730028-7728858_linear-gradient-2)"></path><path class="cls-7" d="M372.67,47.67l-20.74-20.82,9.47-9.47c3.67-3.67,24.41,17.15,20.74,20.82l-9.47,9.47Z" fill="url(#1777685730028-7728858_linear-gradient-3)"></path><path class="cls-6" d="M368.91,93.16c-5.46,5.46-70.15-59.31-64.69-64.77,11.26-11.26,43.1-14,60.93,3.93,17.92,17.84,15.02,49.58,3.75,60.85h.01Z" fill="url(#1777685730028-7728858_linear-gradient-4)"></path><path class="cls-12" d="M368.91,93.16c2.3-2.3,4.27-5.46,5.72-9.22-.43-8.28-9.64-23.13-23.89-37.38-14.17-14.25-29.1-23.47-37.38-23.89-3.75,1.45-6.91,3.41-9.22,5.72-5.38,5.46,59.31,70.23,64.77,64.77h0Z" style="isolation:isolate" fill="url(#1777685730028-7728858_linear-gradient-5)" opacity=".2"></path><path class="cls-4" d="M368.91,93.16c-5.46,5.46-24.41-4.61-42.33-22.44-17.84-17.92-27.91-36.87-22.36-42.33,5.46-5.46,24.41,4.61,42.33,22.44,17.84,17.84,27.91,36.78,22.36,42.33h0Z" fill="url(#1777685730028-7728858_linear-gradient-6)"></path><path class="cls-9" d="M328.97,68.58c-.51-.51-1.02-1.02-1.54-1.54l1.11-1.11c.51.51,1.02,1.02,1.54,1.54.43.43.85.85,1.37,1.28l-1.11,1.11c-.51-.34-.94-.77-1.37-1.28ZM324.62,64.06c-.94-1.02-1.88-2.05-2.73-3.07l1.19-1.02c.85,1.02,1.79,1.96,2.65,2.99l-1.11,1.11h0ZM333.24,72.76l1.02-1.11c1.02.94,2.05,1.79,2.99,2.65l-1.02,1.19c-.94-.94-1.96-1.79-2.99-2.73ZM319.33,57.92c-.85-1.11-1.71-2.13-2.47-3.24l1.19-.94c.77,1.02,1.62,2.13,2.47,3.16l-1.19,1.02ZM339.47,78.05l.94-1.19c1.11.85,2.13,1.71,3.16,2.47l-.94,1.19c-1.02-.77-2.13-1.62-3.16-2.47ZM314.38,51.43c-.77-1.19-1.54-2.3-2.22-3.41l1.28-.77c.68,1.11,1.37,2.22,2.13,3.33l-1.19.85ZM345.96,83l.85-1.28c1.19.77,2.3,1.54,3.33,2.22l-.77,1.28c-1.11-.68-2.22-1.45-3.41-2.22ZM310.2,44.35c-.68-1.37-1.28-2.65-1.71-3.75l1.45-.51c.43,1.11.94,2.3,1.62,3.58l-1.37.68h0ZM352.95,87.19l.68-1.37c1.28.68,2.47,1.19,3.58,1.62l-.51,1.45c-1.11-.43-2.39-1.02-3.75-1.71h0ZM307.47,36.5c-.17-1.96.17-3.41,1.19-4.44l1.11,1.11c-.6.68-.85,1.71-.77,3.16l-1.54.17h.01ZM360.89,89.92l.17-1.54c1.45.17,2.47-.09,3.16-.77l1.19.94-.17.17c-.94.94-2.39,1.37-4.35,1.19h0ZM312.85,32.4l.17-1.54c1.19.09,2.56.43,4.1,1.02l-.51,1.37c-1.37-.51-2.65-.77-3.75-.85h-.01ZM364.99,84.37c-.09-1.11-.43-2.3-.94-3.75l1.45-.51c.6,1.54.94,2.9,1.02,4.1l-1.54.17h.01ZM320.27,34.87l.68-1.37c1.11.6,2.39,1.28,3.58,2.05l-.77,1.28c-1.28-.77-2.39-1.37-3.5-1.96h.01ZM362.34,77.03c-.6-1.11-1.19-2.3-1.96-3.5l1.28-.77c.77,1.19,1.45,2.39,2.05,3.58l-1.37.68h0ZM327.1,38.97l.85-1.28c1.11.77,2.22,1.54,3.33,2.39l-.94,1.19c-1.11-.77-2.22-1.54-3.24-2.3ZM358.24,70.12c-.77-1.02-1.54-2.13-2.3-3.24l1.19-.94c.85,1.11,1.62,2.22,2.39,3.33l-1.28.85h0ZM333.5,43.83l1.02-1.19c1.02.85,2.05,1.71,3.16,2.65l-1.02,1.19c-1.11-.94-2.13-1.88-3.16-2.65ZM353.47,63.72c-.85-1.02-1.71-2.05-2.56-3.07l1.19-1.02c.94,1.02,1.79,2.13,2.65,3.16l-1.28.94h0ZM339.64,49.04l1.02-1.11c1.02.94,1.96,1.88,2.99,2.82l-1.11,1.11c-.94-.94-1.96-1.88-2.9-2.82ZM348.17,57.66c-.85-.94-1.79-1.96-2.73-2.9l1.11-1.11c.94,1.02,1.88,1.96,2.82,2.99l-1.19,1.02h0Z" fill="#5d696e"></path><path class="cls-9" d="M332.39,64.91l1.11-1.11c1.02,1.02,1.96,1.96,2.99,2.9l-1.02,1.11c-1.02-.85-2.05-1.88-3.07-2.9h0ZM329.49,61.93c-1.02-1.02-1.96-2.13-2.82-3.16l1.19-1.02c.85,1.02,1.79,2.05,2.82,3.07l-1.19,1.11ZM338.53,70.72l1.02-1.19c1.11.94,2.13,1.79,3.16,2.65l-.94,1.19c-1.02-.85-2.13-1.71-3.24-2.65ZM324.02,55.53c-.94-1.19-1.79-2.3-2.56-3.41l1.28-.85c.77,1.11,1.54,2.22,2.47,3.33l-1.19.94h0ZM345.19,75.92l.85-1.28c1.19.85,2.39,1.62,3.41,2.22l-.77,1.37c-1.02-.68-2.22-1.45-3.5-2.3h0ZM319.16,48.61c-.85-1.45-1.45-2.73-1.88-3.84l1.45-.51c.43,1.02,1.02,2.3,1.79,3.58l-1.37.77h0ZM352.61,80.1l.51-1.45c1.54.6,2.73.68,3.16.26l1.19.94-.09.09c-.94,1.02-2.56,1.02-4.78.17h0ZM317.28,39.99h0c.94-.94,2.56-1.02,4.78-.17l-.51,1.45c-1.54-.6-2.65-.68-3.07-.26l-1.19-1.02h0ZM356.03,75.67c-.43-1.02-1.02-2.22-1.79-3.58l1.37-.77c.85,1.45,1.45,2.73,1.88,3.84l-1.45.51h0ZM325.13,43.07l.77-1.37c1.11.68,2.3,1.45,3.58,2.3l-.85,1.28c-1.28-.85-2.39-1.62-3.5-2.22h0ZM351.93,68.67c-.77-1.02-1.62-2.13-2.47-3.33l1.19-.94c.94,1.19,1.79,2.3,2.56,3.33l-1.28.94ZM331.88,47.76l.94-1.19c1.02.85,2.13,1.71,3.24,2.73l-1.02,1.19c-1.02-1.02-2.05-1.88-3.16-2.73ZM346.81,62.18c-.85-1.02-1.79-2.05-2.82-3.07l1.11-1.02c1.02,1.02,1.96,2.13,2.82,3.16l-1.11.94h0ZM338.19,53.22l1.02-1.11c1.02.94,2.05,1.88,2.99,2.9l-1.11,1.11c-.94-1.02-1.88-1.96-2.9-2.9Z" fill="#5d696e"></path><path class="cls-9" d="M345.7,68.33c-1.02,1.02-5.63-1.88-10.24-6.49s-7.51-9.22-6.49-10.24c1.02-1.02,5.63,1.88,10.24,6.49,4.61,4.61,7.51,9.22,6.49,10.24Z" fill="#5d696e"></path><path class="cls-1" d="M9.56,291.14s17.41,12.63,17.41,68.1c0,105.48,81.07,105.31,81.07,105.31h295.61s81.07.17,81.07-105.31c0-55.47,17.41-68.1,17.41-68.1H9.56Z" fill="url(#1777685730028-7728858_radial-gradient-2)"></path><path class="cls-3" d="M432.23,481.2c22.1,2.13,30.12,20.65,19.37,21.5,0,0,.17,8.11-11.26,5.63-2.82,8.19-28.84,1.19-32.34-6.4-5.97-12.8-12.63-32.77-12.63-49.75-8.02-2.82-6.66-19.03,3.67-19.03,5.72-13.57,16.64-22.61,21.42-17.41,5.38-8.45,18.94-7.68,18.26,0,4.61-3.41,14,3.16,7.94,9.64,7,7.77-9.64,4.95-18.6,21.76-3.67,6.74,4.35,31.32,4.18,34.05h-.01Z" fill="url(#1777685730028-7728858_linear-gradient-7)"></path><path class="cls-2" d="M79.53,481.2c-22.1,2.13-30.12,20.65-19.37,21.5,0,0-.17,8.11,11.26,5.63,2.82,8.19,28.84,1.19,32.34-6.4,5.97-12.8,12.63-32.77,12.63-49.75,8.02-2.82,6.66-19.03-3.67-19.03-5.72-13.57-16.64-22.61-21.42-17.41-5.38-8.45-18.94-7.68-18.26,0-4.61-3.41-14,3.16-7.94,9.64-7,7.77,9.64,4.95,18.6,21.76,3.58,6.74-4.35,31.32-4.18,34.05h.01Z" fill="url(#1777685730028-7728858_linear-gradient-8)"></path><path class="cls-13" d="M71.34,508.33c0-.17-4.01-16.64,15.96-19.54,1.19-.17,4.78,1.62,3.58,1.79-16.04,2.3-19.46,18.77-19.54,17.75Z" style="isolation:isolate" fill="#545f63" opacity=".25"></path><path class="cls-13" d="M60.16,502.7c-.17-5.21,1.62-15.7,15.19-17.75,1.19-.17,4.78,2.22,3.58,2.39-13.23,2.05-18.77,16.38-18.77,15.36Z" style="isolation:isolate" fill="#545f63" opacity=".25"></path><path class="cls-13" d="M440.34,508.33c0-.17,4.01-16.64-15.96-19.54-1.19-.17-4.78,1.62-3.58,1.79,16.13,2.3,19.54,18.77,19.54,17.75h0Z" style="isolation:isolate" fill="#545f63" opacity=".25"></path><path class="cls-13" d="M451.61,502.7c.17-5.21-1.62-15.7-15.19-17.75-1.19-.17-4.78,2.22-3.58,2.39,13.14,2.05,18.69,16.38,18.77,15.36Z" style="isolation:isolate" fill="#545f63" opacity=".25"></path><path class="cls-5" d="M12.8,294.73h486.43c7.08,0,12.8-5.72,12.8-12.8h0c0-7.08-5.72-12.8-12.8-12.8H12.8c-7.08,0-12.8,5.72-12.8,12.8h0c0,7.08,5.72,12.8,12.8,12.8Z" fill="url(#1777685730028-7728858_linear-gradient-9)"></path><path class="cls-14" d="M18.86,248.73c-2.3-15.45,17.24-44.8,31.32-32.51.43.43,22.19-4.27,27.73,5.12,8.28-11.35,25.86-8.53,33.11,5.38,1.45,2.82,16.81-7,23.98,1.28,8.02-11.78,27.73-13.91,37.04-2.39,1.02,1.28,8.02-6.4,11.95,3.16,5.29-2.47,11.61-3.5,17.75-1.79,8.96-10.33,37.8-.09,39.94,16.21.6,4.27,14.42-6.14,18.43,6.4,6.83-3.67,15.53-4.86,23.47-.6,8.19-11.44,28.76-16.98,36.52-.94,1.79,3.75,18.43-6.14,29.53,3.41,6.14-2.39,13.31-2.65,19.97.77,7.68-12.2,23.04-24.75,40.11-8.45,3.75,3.58,16.3-7.77,28.5,5.89,8.11-4.27,35.93,3.67,33.96,8.45,12.12,1.37,21.59,4.27,22.87,15.19,1.37,12.03-25.86-5.03-32.51,6.66-6.91,12.12-18.01-2.47-21.85,13.31-4.95,20.14-20.91,20.74-30.72,3.41-7.25-12.8-24.75-4.27-33.28-10.67-12.46-9.39-10.33-17.75-36.27-3.93-27.73,14.76-30.64-18.86-58.11,0-10.16,7-21.76,5.12-20.57,12.8,1.79,11.35-17.84,15.7-15.87,3.93,2.05-12.8-14-6.31-18.26-9.22-9.47-6.31-4.78-17.75-23.89-7.85-28.08,14.42-39.6-18.69-66.9-3.07-10.58,6.06-17.84,6.74-28.16,19.54-11.78,14.68-27.39,13.82-38.15-4.95-8.53-14.93-15.62-9.81-23.21-13.48-17.58-8.53-21.42-3.5-32-5.63-15.02-3.16-14.17-19.29,3.58-25.43h0Z" fill="url(#1777685730028-7728858_linear-gradient-10)"></path><path class="cls-15" d="M215.99,172.69c7.94,5.8,3.07,19.46-8.96,16.56-16.56-4.01-3.41-25.6,8.96-16.56Z" fill="url(#1777685730028-7728858_linear-gradient-11)"></path><path class="cls-16" d="M135.69,292.25c7.94,5.8,3.07,19.46-8.96,16.56-16.56-3.93-3.5-25.6,8.96-16.56Z" fill="url(#1777685730028-7728858_linear-gradient-12)"></path><path class="cls-17" d="M311.99,325.96c7.94,5.8,3.07,19.46-8.96,16.56-16.56-3.93-3.41-25.6,8.96-16.56Z" fill="url(#1777685730028-7728858_linear-gradient-13)"></path><path class="cls-19" d="M101.12,147.86c7.94,5.8,3.07,19.46-8.96,16.56-16.56-3.93-3.5-25.6,8.96-16.56Z" fill="url(#1777685730028-7728858_linear-gradient-14)"></path><path class="cls-25" d="M311.99,215.53c7.94,5.8,3.07,19.46-8.96,16.56-16.56-4.01-3.41-25.69,8.96-16.56Z" fill="url(#1777685730028-7728858_linear-gradient-15)"></path><path class="cls-26" d="M403.47,196.76c7.94,5.8,3.07,19.46-8.96,16.56-16.56-3.93-3.5-25.6,8.96-16.56Z" fill="url(#1777685730028-7728858_linear-gradient-16)"></path><path class="cls-27" d="M165.21,205.46c4.78,3.5,1.88,11.86-5.46,10.07-10.07-2.39-2.13-15.53,5.46-10.07h0Z" fill="url(#1777685730028-7728858_linear-gradient-17)"></path><path class="cls-28" d="M286.31,178.92c4.78,3.5,1.88,11.86-5.46,10.07-10.07-2.47-2.13-15.62,5.46-10.07h0Z" fill="url(#1777685730028-7728858_linear-gradient-18)"></path><path class="cls-18" d="M404.75,303.69c4.78,3.5,1.88,11.86-5.46,10.07-10.07-2.39-2.13-15.62,5.46-10.07Z" fill="url(#1777685730028-7728858_linear-gradient-19)"></path><path class="cls-21" d="M474.48,290.29c4.78,3.5,1.88,11.86-5.46,10.07-10.07-2.47-2.13-15.62,5.46-10.07Z" fill="url(#1777685730028-7728858_linear-gradient-20)"></path><path class="cls-20" d="M219.74,303.69c4.78,3.5,1.88,11.86-5.46,10.07-10.07-2.39-2.05-15.62,5.46-10.07Z" fill="url(#1777685730028-7728858_linear-gradient-21)"></path><path class="cls-22" d="M39.51,303.69c4.78,3.5,1.88,11.86-5.46,10.07-10.07-2.39-2.13-15.62,5.46-10.07Z" fill="url(#1777685730028-7728858_linear-gradient-22)"></path><path class="cls-23" d="M74.5,188.48c4.78,3.5,1.88,11.86-5.46,10.07-10.07-2.39-2.05-15.62,5.46-10.07h0Z" fill="url(#1777685730028-7728858_linear-gradient-23)"></path><path class="cls-29" d="M137.22,169.79c4.78,3.5,1.88,11.86-5.46,10.07-10.07-2.47-2.13-15.62,5.46-10.07h0Z" fill="url(#1777685730028-7728858_linear-gradient-24)"></path><path class="cls-24" d="M371.73,222.1c4.78,3.5,1.88,11.86-5.46,10.07-10.07-2.39-2.05-15.62,5.46-10.07Z" fill="url(#1777685730028-7728858_linear-gradient-25)"></path><path class="cls-30" d="M461.94,224.24c4.78,3.5,1.88,11.86-5.46,10.07-10.07-2.47-2.13-15.62,5.46-10.07h0Z" fill="url(#1777685730028-7728858_linear-gradient-26)"></path></g></svg>