<svg data-name="Layer 1" xmlns="http://www.w3.org/2000/svg" style="" viewBox="0 0 512.02 512"><g class="nc-icon-wrapper"><defs><linearGradient id="1776131386300-2562271_linear-gradient" x1="311.65" y1="-616.33" x2="461.68" y2="-766.36" gradientTransform="matrix(1 0 0 -1 0 -565.99)" gradientUnits="userSpaceOnUse"><stop offset="0" stop-color="#302c3b"></stop><stop offset=".37" stop-color="#4e5e67"></stop><stop offset=".55" stop-color="#49555f"></stop><stop offset=".84" stop-color="#3a3d4a"></stop><stop offset="1" stop-color="#302c3b"></stop></linearGradient><linearGradient id="1776131386300-2562271_linear-gradient-2" x1="261.82" y1="-672.69" x2="405.31" y2="-816.18" gradientTransform="matrix(1 0 0 -1 0 -565.99)" gradientUnits="userSpaceOnUse"><stop offset="0" stop-color="#b88100"></stop><stop offset=".07" stop-color="#c9991b"></stop><stop offset=".22" stop-color="#e6c349"></stop><stop offset=".33" stop-color="#f8dd65"></stop><stop offset=".39" stop-color="#ffe770"></stop><stop offset=".61" stop-color="#deb83c"></stop><stop offset=".85" stop-color="#b88100"></stop><stop offset="1" stop-color="#b88100"></stop></linearGradient><linearGradient id="1776131386300-2562271_linear-gradient-3" x1="252.16" y1="-688.89" x2="389.65" y2="-825.3" gradientTransform="matrix(1 0 0 -1 0 -565.99)" gradientUnits="userSpaceOnUse"><stop offset="0" stop-color="#b88100"></stop><stop offset=".07" stop-color="#c9991b"></stop><stop offset=".22" stop-color="#e6c349"></stop><stop offset=".33" stop-color="#f8dd65"></stop><stop offset=".39" stop-color="#ffe770"></stop><stop offset=".5" stop-color="#eac84e"></stop><stop offset=".66" stop-color="#cfa224"></stop><stop offset=".78" stop-color="#be8a0a"></stop><stop offset=".85" stop-color="#b88100"></stop><stop offset="1" stop-color="#b88100"></stop></linearGradient><linearGradient id="1776131386300-2562271_linear-gradient-4" x1="242.54" y1="-701.82" x2="377.03" y2="-834.66" gradientTransform="matrix(1 0 0 -1 0 -565.99)" gradientUnits="userSpaceOnUse"><stop offset="0" stop-color="#b88100"></stop><stop offset=".07" stop-color="#c08d0d"></stop><stop offset=".19" stop-color="#d6ab2f"></stop><stop offset=".36" stop-color="#f8dd65"></stop><stop offset=".39" stop-color="#ffe770"></stop><stop offset=".4" stop-color="#fce26b"></stop><stop offset=".45" stop-color="#e7c54a"></stop><stop offset=".51" stop-color="#d6ac2f"></stop><stop offset=".57" stop-color="#c9991a"></stop><stop offset=".64" stop-color="#bf8b0b"></stop><stop offset=".72" stop-color="#ba8303"></stop><stop offset=".85" stop-color="#b88100"></stop><stop offset="1" stop-color="#b88100"></stop></linearGradient><linearGradient id="1776131386300-2562271_linear-gradient-5" x1="238.26" y1="-716.98" x2="362.1" y2="-840.27" gradientTransform="matrix(1 0 0 -1 0 -565.99)" gradientUnits="userSpaceOnUse"><stop offset="0" stop-color="#302c3b"></stop><stop offset=".36" stop-color="#4e5e67"></stop><stop offset=".54" stop-color="#49555f"></stop><stop offset=".83" stop-color="#3a3d4a"></stop><stop offset="1" stop-color="#302c3b"></stop></linearGradient><linearGradient id="1776131386300-2562271_linear-gradient-6" x1="87.2" y1="-852.77" x2="225.24" y2="-990.8" gradientTransform="matrix(1 0 0 -1 0 -565.99)" gradientUnits="userSpaceOnUse"><stop offset="0" stop-color="#687073"></stop><stop offset=".05" stop-color="#888f93"></stop><stop offset=".14" stop-color="#b1b9bd"></stop><stop offset=".22" stop-color="#d0d7dc"></stop><stop offset=".28" stop-color="#e2e9ee"></stop><stop offset=".33" stop-color="#e9f0f5"></stop><stop offset=".36" stop-color="#e1e8ed"></stop><stop offset=".42" stop-color="#cbd3d8"></stop><stop offset=".49" stop-color="#a8b1b5"></stop><stop offset=".52" stop-color="#949da1"></stop><stop offset=".6" stop-color="#9aa3a7"></stop><stop offset=".72" stop-color="#acb4b9"></stop><stop offset=".77" stop-color="#b6bdc2"></stop><stop offset=".84" stop-color="#b3babf"></stop><stop offset=".88" stop-color="#abb2b6"></stop><stop offset=".92" stop-color="#9ca3a7"></stop><stop offset=".96" stop-color="#878e92"></stop><stop offset=".99" stop-color="#6c7477"></stop><stop offset=".99" stop-color="#687073"></stop><stop offset="1" stop-color="#687073"></stop></linearGradient></defs><path class="cls-1" d="M212.89,359.68c-15.28,17.82-32.01,34.28-50.19,49.37-18.19,15.09-36.37,28.55-54.56,40.37-18.19,11.82-34.83,21.91-49.92,30.28-15.09,8.37-27.19,14.73-36.28,19.1-9.09,4.36-13.64,6.55-13.64,6.55l-1.64-1.64s2.18-4.55,6.55-13.64c4.36-9.09,10.73-21.28,19.1-36.55,8.37-15.28,18.46-31.92,30.28-49.92,11.82-18,25.28-36.19,40.37-54.56,15.09-18.37,31.55-35.19,49.37-50.47,1.82-1.45,5.27-.64,10.37,2.46s10.82,7.46,17.19,13.09c6.37,5.64,12.37,11.55,18,17.73,5.63,6.18,9.91,11.91,12.82,17.19s3.64,8.82,2.18,10.64Z" fill="#4b5052"></path><path class="cls-7" d="M509.14,153.45l-94.93,94.38c-4,4-11,3.82-21-.55-10-4.36-21.37-11.55-34.1-21.55-12.73-10-25.46-21.37-38.19-34.1-12.73-12.73-24.1-25.55-34.1-38.46-10-12.91-17.28-24.37-21.82-34.37-4.55-10-4.64-17-.27-21L359.11,2.87c4.36-4,11.46-3.82,21.28.55,9.82,4.37,21.19,11.64,34.1,21.82,12.91,10.18,25.73,21.64,38.46,34.37,12.73,12.73,24.1,25.46,34.1,38.19s17.19,24.1,21.55,34.1c4.36,10,4.55,17.19.55,21.55h0Z" fill="url(#1776131386300-2562271_linear-gradient)"></path><path class="cls-6" d="M263.63,105.44c3.64-4.36,10.27-4.36,19.91,0s20.55,11.37,32.73,21c12.18,9.64,24.37,20.55,36.55,32.73,12.18,12.18,23.1,24.46,32.73,36.83,9.63,12.37,16.64,23.28,21,32.73,4.36,9.46,4.36,16.19,0,20.19-2.55,2.18-4.91,4.36-7.09,6.55l-3.27,3.27c-2.55,2.55-8,1.09-16.37-4.36s-18.37-13.18-30.01-23.19c-11.64-10.01-23.46-21.19-35.46-33.55-12-12.37-22.91-24.37-32.73-36.01-9.82-11.64-17.46-21.64-22.91-30.01s-7.09-13.64-4.91-15.82c0,0,1-1.09,3-3.27s4.27-4.55,6.82-7.09h0Z" fill="url(#1776131386300-2562271_linear-gradient-2)"></path><path class="cls-5" d="M254.9,120.71c4-4,10.55-4,19.64,0s19.55,10.46,31.37,19.37c11.82,8.91,23.55,19.28,35.19,31.1,11.64,11.82,22,23.55,31.1,35.19s15.55,22.1,19.37,31.37c3.82,9.27,3.73,15.91-.27,19.91l-12,12c-2.55,2.18-7.82.82-15.82-4.09s-17.55-12.28-28.64-22.1c-11.09-9.82-22.37-20.55-33.83-32.19-11.46-11.64-22-23.1-31.64-34.37-9.64-11.28-17-20.91-22.1-28.92s-6.55-13.09-4.36-15.28l12-12h0Z" fill="url(#1776131386300-2562271_linear-gradient-3)"></path><path class="cls-4" d="M243.45,134.9c4-4,10.55-4.09,19.64-.27,9.09,3.82,19.37,10.09,30.82,18.82,11.45,8.73,22.91,18.82,34.37,30.28,11.46,11.46,21.55,22.91,30.28,34.37s15,21.73,18.82,30.82c3.82,9.09,3.91,15.64.27,19.64l-9.82,8.18c-2.55,2.55-7.73,1.45-15.55-3.27-7.82-4.72-17.09-11.82-27.82-21.28s-21.73-19.91-33.01-31.37c-11.28-11.46-21.55-22.64-30.82-33.55s-16.28-20.37-21-28.37c-4.73-8-6.18-12.91-4.36-14.73l8.18-9.27h0Z" fill="url(#1776131386300-2562271_linear-gradient-4)"></path><path class="cls-2" d="M239.63,149.63s2.82.64,8.46,1.91,13.91,5.09,24.82,11.46c10.91,6.37,24.37,17.55,40.37,33.55,15.64,15.64,26.91,29.19,33.83,40.65s11.18,20.28,12.82,26.46,2.46,9.27,2.46,9.27c0,0-.45.55-1.36,1.64s-1.73,2-2.46,2.73c-2.18,2.55-7.46,1.36-15.82-3.55s-17.82-11.73-28.37-20.46-20.19-17.46-28.92-26.19c-8.73-8.73-17.37-18.37-25.91-28.92-8.55-10.55-15.28-20-20.19-28.37s-6.27-13.64-4.09-15.82l2.73-2.73,1.64-1.64h0Z" fill="url(#1776131386300-2562271_linear-gradient-5)"></path><path class="cls-3" d="M347.65,268.56c-20,20-39.19,40.83-57.56,62.47-18.37,21.64-34.64,41.74-48.83,60.29-14.19,18.55-25.37,33.64-33.55,45.28-8.18,11.64-12.28,17.46-12.28,17.46,0,0-5.46.73-16.37,2.18-10.91,1.45-25.28,4.18-43.1,8.18-17.82,4-37.46,9.73-58.92,17.19-21.46,7.46-42.55,17.37-63.29,29.73-1.82,1.09-3.64.82-5.46-.82s-2-3.18-.55-4.64l128.21-127.66c3.64,3.64,8.64,5.64,15,6,6.37.36,12.09-1.82,17.19-6.55,4.73-4.73,7.09-10.37,7.09-16.91s-2.36-12.18-7.09-16.91-10.37-7.09-16.91-7.09-12.18,2.36-16.91,7.09c-4.73,5.09-6.91,10.82-6.55,17.19s2.36,11.37,6,15L6.11,504.26c-1.45,1.45-3,1.27-4.64-.55s-1.91-3.64-.82-5.46c12.37-20.73,22.37-41.83,30.01-63.29,7.64-21.46,13.37-41.1,17.19-58.92,3.82-17.82,6.46-32.19,7.91-43.1s2.18-16.37,2.18-16.37c0,0,5.73-4.18,17.19-12.55,11.46-8.37,26.55-19.64,45.28-33.83,18.73-14.18,38.83-30.37,60.29-48.56s42.19-37.28,62.2-57.29c2.91-2.91,7.73-2.73,14.46.55,6.73,3.27,14.55,8.46,23.46,15.55s17.82,15.09,26.73,24.01c8.91,8.91,16.82,17.73,23.73,26.46s12,16.55,15.28,23.46c3.28,6.91,3.64,11.64,1.09,14.18v.02Z" fill="url(#1776131386300-2562271_linear-gradient-6)"></path></g></svg>