<svg data-name="Layer 1" xmlns="http://www.w3.org/2000/svg" style="" viewBox="0 0 477.86 512"><g class="nc-icon-wrapper"><defs><radialGradient id="1776867897662-4074031_radial-gradient" cx="368.9" cy="936.46" fx="368.9" fy="936.46" r="142.44" gradientTransform="matrix(.98 0 0 .97 -253.6 -762.33)" gradientUnits="userSpaceOnUse"><stop offset="0" stop-color="#8094d9"></stop><stop offset=".31" stop-color="#687cbd"></stop><stop offset=".97" stop-color="#2c4176"></stop><stop offset="1" stop-color="#293e73"></stop></radialGradient><radialGradient id="1776867897662-4074031_radial-gradient-2" cx="568.41" cy="991.96" fx="568.41" fy="991.96" r="142.45" gradientTransform="matrix(.98 0 0 .97 -249.3 -756.13)" gradientUnits="userSpaceOnUse"><stop offset="0" stop-color="#8094d9"></stop><stop offset=".31" stop-color="#687cbd"></stop><stop offset=".97" stop-color="#2c4176"></stop><stop offset="1" stop-color="#293e73"></stop></radialGradient><radialGradient id="1776867897662-4074031_radial-gradient-3" cx="423.85" cy="1126.63" fx="423.85" fy="1126.63" r="158.84" gradientTransform="matrix(.98 0 0 .97 -253.6 -762.33)" gradientUnits="userSpaceOnUse"><stop offset="0" stop-color="#8094d9"></stop><stop offset=".31" stop-color="#687cbd"></stop><stop offset=".97" stop-color="#2c4176"></stop><stop offset="1" stop-color="#293e73"></stop></radialGradient><radialGradient id="1776867897662-4074031_radial-gradient-4" cx="148.09" cy="745.9" fx="148.09" fy="745.9" r="48.9" gradientTransform="matrix(.55785 .95964 .54429 -.43664 -81.76 360.65)" gradientUnits="userSpaceOnUse"><stop offset="0" stop-color="#4e6aa6"></stop><stop offset=".27" stop-color="#4d68a3"></stop><stop offset=".45" stop-color="#48629a"></stop><stop offset=".61" stop-color="#41588b"></stop><stop offset=".76" stop-color="#374a75"></stop><stop offset=".89" stop-color="#2a3859"></stop></radialGradient><linearGradient id="1776867897662-4074031_linear-gradient" x1="220.91" y1="490.1" x2="220.91" y2="544.18" gradientTransform="scale(1 -1) rotate(-24.97 -1190.134 -312.531)" gradientUnits="userSpaceOnUse"><stop offset="0" stop-color="#16203b"></stop><stop offset=".16" stop-color="#1a2541"></stop><stop offset=".38" stop-color="#263353"></stop><stop offset=".64" stop-color="#3a4a71"></stop><stop offset=".92" stop-color="#566a9a"></stop><stop offset="1" stop-color="#5e73a6"></stop></linearGradient><linearGradient id="1776867897662-4074031_linear-gradient-2" x1="578.27" y1="-67.68" x2="578.27" y2="-9.57" gradientTransform="scale(1 -1) rotate(44.99 583.007 -307.867)" gradientUnits="userSpaceOnUse"><stop offset="0" stop-color="#16203b"></stop><stop offset=".16" stop-color="#1a2541"></stop><stop offset=".38" stop-color="#263353"></stop><stop offset=".64" stop-color="#3a4a71"></stop><stop offset=".92" stop-color="#566a9a"></stop><stop offset="1" stop-color="#5e73a6"></stop></linearGradient><linearGradient id="1776867897662-4074031_linear-gradient-3" x1="-121.29" y1="-639.19" x2="-121.29" y2="-606.65" gradientTransform="scale(-1 1) rotate(-34.87 991.85 137.473)" gradientUnits="userSpaceOnUse"><stop offset="0" stop-color="#16203b"></stop><stop offset=".16" stop-color="#1a2541"></stop><stop offset=".38" stop-color="#263353"></stop><stop offset=".64" stop-color="#3a4a71"></stop><stop offset=".92" stop-color="#566a9a"></stop><stop offset="1" stop-color="#5e73a6"></stop></linearGradient><linearGradient id="1776867897662-4074031_linear-gradient-4" x1="178.69" y1="453.18" x2="187.87" y2="471.12" gradientTransform="scale(1 -1) rotate(-24.97 -1190.134 -312.531)" gradientUnits="userSpaceOnUse"><stop offset="0" stop-color="#5e73a6"></stop><stop offset=".08" stop-color="#566a9a"></stop><stop offset=".36" stop-color="#3a4a71"></stop><stop offset=".62" stop-color="#263353"></stop><stop offset=".84" stop-color="#1a2541"></stop><stop offset="1" stop-color="#16203b"></stop></linearGradient><linearGradient id="1776867897662-4074031_linear-gradient-5" x1="-603.69" y1="-201.8" x2="-581.89" y2="-183.93" gradientTransform="scale(-1 1) rotate(25.69 -1394.847 410.948)" gradientUnits="userSpaceOnUse"><stop offset="0" stop-color="#16203b"></stop><stop offset=".26" stop-color="#263253"></stop><stop offset=".8" stop-color="#4e618f"></stop><stop offset="1" stop-color="#5e73a6"></stop></linearGradient><linearGradient id="1776867897662-4074031_linear-gradient-6" x1="-62.54" y1="521.99" x2="-62.54" y2="576.31" gradientTransform="scale(1 -1) rotate(-54.17 -545.16 -328.006)" gradientUnits="userSpaceOnUse"><stop offset="0" stop-color="#16203b"></stop><stop offset=".16" stop-color="#1a2541"></stop><stop offset=".38" stop-color="#263353"></stop><stop offset=".64" stop-color="#3a4a71"></stop><stop offset=".92" stop-color="#566a9a"></stop><stop offset="1" stop-color="#5e73a6"></stop></linearGradient><linearGradient id="1776867897662-4074031_linear-gradient-7" x1="-3.57" y1="154.51" x2="98.03" y2="156.17" gradientTransform="matrix(1 0 0 -1 0 514)" gradientUnits="userSpaceOnUse"><stop offset="0" stop-color="#8094d9"></stop><stop offset=".31" stop-color="#687cbd"></stop><stop offset=".97" stop-color="#2c4176"></stop><stop offset="1" stop-color="#293e73"></stop></linearGradient><linearGradient id="1776867897662-4074031_linear-gradient-8" x1="-661.11" y1="-7.71" x2="-592.09" y2="-6.58" gradientTransform="scale(-1 1) rotate(68.57 -440.996 348.85)" gradientUnits="userSpaceOnUse"><stop offset="0" stop-color="#8094d9"></stop><stop offset=".31" stop-color="#687cbd"></stop><stop offset=".97" stop-color="#2c4176"></stop><stop offset="1" stop-color="#293e73"></stop></linearGradient></defs><path class="cls-4" d="M280.38,303.77c-47.19,227.99,193.18,207.77,193.18,207.77,0,0-107.6-171.93-193.18-207.77Z" fill="#449c00"></path><path class="cls-14" d="M280.38,303.77c75,48.38,193.26,207.77,193.26,207.77,0,0,49.83-246.16-193.26-207.77Z" fill="#56ab15"></path><path class="cls-15" d="M301.63,319.39c18.43-7.08,37.29-9.98,54.86-10.24,17.49.09,33.79,3.33,46.76,10.24-14.51-4.95-30.38-7.94-47.7-7.76-8.53-.09-17.41.68-26.45,1.88-9.04,1.37-18.26,3.16-27.47,5.89Z" fill="#5fbd17"></path><path class="cls-15" d="M330.64,345.24c20.9-8.62,42.49-12.12,62.12-11.52,9.73.43,19.03,1.96,27.47,4.69,8.36,2.73,15.79,6.74,22.18,11.6-14.42-8.11-31.4-13.31-50.77-13.82-9.56-.43-19.62.26-29.86,1.71-10.15,1.62-20.65,3.84-31.14,7.34Z" fill="#5fbd17"></path><path class="cls-15" d="M360.16,375.28c20.9-6.14,41.72-7.68,60.41-5.55,9.3,1.28,18.09,3.5,25.68,7.08,7.68,3.5,14.16,8.36,19.37,14.16-12.12-10.07-27.99-16.72-46.42-18.86-9.04-1.28-18.77-1.37-28.67-.85-9.81.6-19.97,1.79-30.38,4.01Z" fill="#5fbd17"></path><path class="cls-15" d="M393.1,411.8c16.55-2.3,32.34-1.28,46.59,1.88,7,1.79,13.74,4.1,19.54,7.34,5.97,3.16,10.92,7.34,14.93,12.12-9.81-8.11-22.1-13.82-36.09-16.98-6.83-1.79-14.25-2.82-21.76-3.58-7.42-.6-15.19-1.02-23.21-.77Z" fill="#5fbd17"></path><path class="cls-15" d="M423.05,447.29c12.03.09,22.78,3.07,32.17,7.42,4.52,2.39,8.79,5.03,12.29,8.45,3.58,3.33,6.23,7.34,8.11,11.77-5.72-7.59-13.23-13.65-22.36-17.92-4.44-2.3-9.3-4.1-14.33-5.72-5.12-1.62-10.32-2.99-15.87-4.01Z" fill="#5fbd17"></path><path class="cls-14" d="M301.63,319.39c-11.69,15.7-18.35,32.77-21.67,49.15-2.99,16.47-1.96,32.59,3.92,46.42-3.33-14.85-4.1-30.55-.85-46.76,1.37-8.11,3.84-16.21,6.91-24.4,3.16-8.11,6.83-16.38,11.69-24.4Z" fill="#56ab15"></path><path class="cls-14" d="M330.64,345.24c-14.76,19.11-23.98,40.02-28.16,59.73-1.88,9.9-2.39,19.45-1.37,28.5,1.02,8.96,3.67,17.24,7.59,24.66-5.63-16.13-7.34-34.22-3.24-53.67,1.79-9.64,5.12-19.54,9.3-29.52,4.27-9.9,9.39-19.88,15.87-29.69Z" fill="#56ab15"></path><path class="cls-14" d="M360.16,375.28c-12.46,20.05-20.05,40.96-23.04,60.41-1.19,9.64-1.28,19.03.34,27.47,1.54,8.53,4.95,16.04,9.73,22.36-7.42-14.25-9.98-31.66-7.08-50.77,1.19-9.47,3.84-19.37,7.17-29.35,3.5-9.9,7.59-20.05,12.88-30.12Z" fill="#56ab15"></path><path class="cls-14" d="M393.1,411.8c-8.36,16.13-13.05,32.34-15.02,47.61-.77,7.59-.85,14.93.26,21.76,1.02,6.83,3.41,12.97,6.74,18.26-4.61-12.12-5.89-26.02-4.1-40.96.68-7.42,2.39-15.1,4.35-22.95,2.22-7.76,4.69-15.7,7.76-23.72Z" fill="#56ab15"></path><path class="cls-14" d="M423.05,447.29c-4.01,13.14-4.61,25.51-3.16,36.52.94,5.38,2.39,10.58,4.86,14.93,2.3,4.44,5.63,8.11,9.81,10.92-6.14-7.59-10.07-16.89-11.52-27.73-1.02-5.2-1.19-10.92-1.19-16.72.09-5.72.34-11.69,1.19-17.92Z" fill="#56ab15"></path><path class="cls-4" d="M193.09,194.21C420.06,246.09,404.7,5.3,404.7,5.3c0,0-174.06,104.1-211.61,188.91Z" fill="#449c00"></path><path class="cls-14" d="M193.09,194.21C243.01,120.24,404.7,5.3,404.7,5.3c0,0-245.06-54.95-211.61,188.91Z" fill="#56ab15"></path><path class="cls-15" d="M209.13,173.31c-6.74-18.6-9.3-37.46-9.13-55.04.43-17.41,4.01-33.7,11.18-46.5-5.29,14.42-8.53,30.29-8.7,47.53-.34,8.53.26,17.41,1.37,26.45,1.11,9.04,2.73,18.26,5.29,27.56Z" fill="#5fbd17"></path><path class="cls-15" d="M235.58,144.81c-8.19-21.08-11.26-42.75-10.24-62.37.68-9.73,2.39-19.03,5.29-27.39,2.9-8.28,7-15.7,12.03-21.93-8.36,14.25-13.91,31.14-14.85,50.43-.68,9.56-.17,19.62,1.11,29.86,1.28,10.32,3.33,20.9,6.66,31.4Z" fill="#5fbd17"></path><path class="cls-15" d="M266.13,115.89c-5.72-20.99-6.83-41.81-4.35-60.5,1.45-9.22,3.92-18,7.59-25.6,3.67-7.68,8.7-13.99,14.59-19.03-10.32,11.95-17.24,27.65-19.8,45.99-1.45,9.04-1.79,18.69-1.45,28.67.43,9.9,1.45,20.05,3.41,30.46Z" fill="#5fbd17"></path><path class="cls-15" d="M303.42,83.72c-1.96-16.64-.6-32.34,2.9-46.5,1.96-7,4.35-13.65,7.68-19.45,3.33-5.89,7.51-10.75,12.46-14.68-8.36,9.64-14.33,21.84-17.75,35.75-1.96,6.83-3.07,14.16-4.01,21.67-.85,7.51-1.37,15.19-1.28,23.21Z" fill="#5fbd17"></path><path class="cls-15" d="M339.51,54.45c.34-12.03,3.5-22.7,8.11-32,2.47-4.52,5.29-8.7,8.7-12.12,3.41-3.5,7.42-6.06,11.95-7.85-7.68,5.55-13.91,12.97-18.43,22.01-2.39,4.35-4.27,9.22-6.06,14.25-1.71,5.03-3.24,10.24-4.27,15.7Z" fill="#5fbd17"></path><path class="cls-14" d="M209.13,173.31c15.44,12.03,32.34,19.03,48.72,22.7,16.38,3.33,32.51,2.65,46.5-2.99-14.93,3.07-30.55,3.5-46.76-.09-8.02-1.54-16.13-4.1-24.32-7.42-8.11-3.33-16.21-7.17-24.15-12.2Z" fill="#56ab15"></path><path class="cls-14" d="M235.58,144.81c18.77,15.19,39.51,24.83,59.13,29.35,9.81,2.05,19.45,2.82,28.41,1.96,8.96-.85,17.32-3.33,24.74-7.08-16.21,5.29-34.39,6.66-53.76,2.13-9.64-1.96-19.45-5.46-29.35-9.9-9.64-4.44-19.54-9.73-29.18-16.47Z" fill="#56ab15"></path><path class="cls-14" d="M266.13,115.89c19.8,12.88,40.53,20.9,59.9,24.23,9.64,1.45,19.03,1.71,27.47.17,8.53-1.37,16.13-4.69,22.61-9.3-14.42,7.08-31.83,9.3-50.85,6.06-9.47-1.37-19.28-4.27-29.18-7.76-9.9-3.5-19.88-7.85-29.95-13.4Z" fill="#56ab15"></path><path class="cls-14" d="M303.42,83.72c15.96,8.62,32.08,13.65,47.27,15.96,7.51.85,14.93,1.19,21.76.17,6.83-.85,13.05-3.16,18.43-6.4-12.2,4.35-26.11,5.38-41.04,3.24-7.42-.85-15.1-2.65-22.78-4.78-7.85-2.3-15.7-4.86-23.64-8.19Z" fill="#56ab15"></path><path class="cls-14" d="M339.51,54.45c13.05,4.27,25.34,5.12,36.43,3.84,5.38-.85,10.58-2.22,15.02-4.52,4.52-2.22,8.28-5.46,11.09-9.56-7.76,5.97-17.07,9.64-27.9,10.92-5.2.85-11.01.94-16.72.85-5.8-.09-11.77-.51-17.92-1.54Z" fill="#56ab15"></path><path class="cls-12" d="M278.5,171.6c0,183.37-278.5,183.37-278.5,0s278.5-183.28,278.5,0Z" fill="url(#1776867897662-4074031_radial-gradient)"></path><path class="cls-3" d="M477.82,231.42c0,183.28-278.5,183.28-278.5,0s278.5-183.37,278.5,0Z" fill="url(#1776867897662-4074031_radial-gradient-2)"></path><path class="cls-2" d="M351.97,358.64c0,204.44-310.59,204.44-310.59,0,0-204.44,310.59-204.44,310.59,0Z" fill="url(#1776867897662-4074031_radial-gradient-3)"></path><path class="cls-1" d="M377.4,130.82c35.58-28.07,90.53,66.13,54.95,94.28-35.58,27.99-90.53-66.21-54.95-94.28Z" fill="url(#1776867897662-4074031_radial-gradient-4)"></path><path class="cls-17" d="M403.08,169.9c3.84-3.07,9.81,7.17,5.97,10.15-3.84,3.07-9.81-7.17-5.97-10.15Z" fill="#304373"></path><path class="cls-13" d="M447.36,130.56c-12.54-2.9-37.63,3.41-30.63,9.64,12.71,11.35,21.08,25.51,24.06,45.31,1.37,9.39,32.42-20.99,33.7-39.59.17-3.5-23.04-14.42-27.13-15.36Z" fill="url(#1776867897662-4074031_linear-gradient)"></path><path class="cls-11" d="M364.43,117.17c-3.16,15.61,6.66,26.54,8.79,23.46,9.56-13.48,25-14.93,39.68-3.75,6.74,5.12-2.65-40.87-24.92-54.61-2.39-1.62-21.93,26.71-23.55,34.9Z" fill="url(#1776867897662-4074031_linear-gradient-2)"></path><path class="cls-10" d="M356.24,155.05c2.39,7.76,13.65,27.39,12.97,23.55-1.96-11.35-2.22-23.04,1.45-34.04,1.54-4.78-23.46-24.32-35.58-12.12-2.22,2.13,17.92,12.12,21.16,22.61Z" fill="url(#1776867897662-4074031_linear-gradient-3)"></path><path class="cls-9" d="M381.75,168.62c10.92,7.59,6.06,44.03,4.01,42.66-11.18-7.51-15.27-19.54-16.55-27.99-1.11-7.25,9.04-17.15,12.54-14.68Z" fill="url(#1776867897662-4074031_linear-gradient-4)"></path><path class="cls-7" d="M422.79,209.66c1.79,2.13,8.02,18,4.95,19.8-10.07,5.97-28.24-2.65-38.91-14.08-5.89-6.4,10.41-19.28,15.27-19.11,2.82.09,13.74,7.42,18.69,13.4Z" fill="url(#1776867897662-4074031_linear-gradient-5)"></path><path class="cls-8" d="M477.65,200.02c-10.15-14.16-36.43-14.16-36.18-10.24.94,11.86-1.37,26.79-11.09,36.6-3.33,3.41,26.96.09,30.12-9.13,3.07-8.79,19.03-14.59,17.15-17.24Z" fill="url(#1776867897662-4074031_linear-gradient-6)"></path><path class="cls-16" d="M46.25,328.18c-4.69-6.14-11.6,11.01-24.32,19.54-4.86,3.24,12.71,10.84,26.96,37.88,1.71,3.07,13.74-36.09-2.65-57.42Z" fill="#213159"></path><path class="cls-16" d="M51.28,310.94c-3.41,3.58-10.24,3.5-14.93,2.99-5.89-.6,5.03,9.81,15.79,15.1,3.16,1.62,2.22-21.33-.85-18.09Z" fill="#213159"></path><path class="cls-16" d="M41.3,383.04c-3.84,1.11-6.14,6.14-8.36,12.29-2.05,5.63,12.29,1.88,23.46,12.12,2.65,2.39-10.75-25.6-15.1-24.4Z" fill="#213159"></path><path class="cls-6" d="M49.83,309.57c-12.63,12.97-22.01,12.8-21.33,16.38,2.05,10.92,15.36,11.35,20.65,18.52,3.41,4.61-17.41,16.3-24.23,27.73-2.05,3.5,17.24,9.39,29.18,33.96,5.63,11.43,19.03-9.56,14.59-54.18-3.41-33.96-11.69-49.74-18.86-42.41Z" fill="url(#1776867897662-4074031_linear-gradient-7)"></path><path class="cls-16" d="M205.38,58.38c7.59-.85-7.42-10.58-12.03-21.08-1.79-4.01-14.85,4.27-46.33,4.27-3.58,0,31.91,19.97,58.36,16.81Z" fill="#213159"></path><path class="cls-16" d="M161.52,34.06c.17-2.73-4.27-5.72-9.73-9.04-5.03-3.07-5.63,6.91-19.45,10.41-3.24.85,29.01,1.71,29.18-1.37Z" fill="#213159"></path><path class="cls-5" d="M226.45,62.9c-9.04-11.86-5.97-17.49-9.73-18.26-11.6-2.22-16.13,5.72-25,6.66-5.72.6-10.92-15.79-20.22-23.64-2.9-2.39-14.76,7.42-43.09,6.91-13.23-.26,3.67,14.68,49.74,26.28,35.07,8.79,53.5,8.79,48.29,2.05Z" fill="url(#1776867897662-4074031_linear-gradient-8)"></path></g></svg>