<svg xmlns="http://www.w3.org/2000/svg" data-name="Layer 1" style="" viewBox="0 0 512.01 512"><g class="nc-icon-wrapper"><defs><radialGradient id="1776867897666-7946544_radial-gradient" cx="207.03" cy="1605.25" r="378.12" fx="207.03" fy="1605.25" gradientTransform="scale(.97 -.97) rotate(-45 -1858.143 533.596)" gradientUnits="userSpaceOnUse"><stop offset="0" stop-color="#c78b54"></stop><stop offset=".17" stop-color="#bd8250"></stop><stop offset=".47" stop-color="#a16844"></stop><stop offset=".86" stop-color="#753f31"></stop><stop offset="1" stop-color="#632f2a"></stop></radialGradient></defs><path d="M512.01 469.56c0-219.79-10.88-370.72-54.86-414.71C413.16 10.89 262.24 0 42.44 0-9.39 0-13.27 56.04 28.19 64.63c205.08 42.5 300.52 60.73 329.49 89.71 28.97 28.95 47.2 124.39 89.69 329.48 8.6 41.45 64.64 37.59 64.64-14.25Z" fill="url(#1776867897666-7946544_radial-gradient)"></path><path d="M72.93.13 62.13 10.3l5.98 12.66 11.95-12.05z" class="cls-5" fill="#2e769e"></path><path d="M68.11 22.96 58.02 36.39l7.84 13.15 9.81-11.79z" class="cls-4" fill="#528aa9"></path><path d="m65.86 49.54-8.81 9.25 8.65 13.6 8.96-11.71zM145.72.99l-10.81 11.93 5.84 14.59 11.96-13.26z" class="cls-5" fill="#2e769e"></path><path d="m140.75 27.51-10.08 15.83 7.84 15.51 8.81-13.39z" class="cls-4" fill="#528aa9"></path><path d="m138.51 58.85-9.56 14.38 10.03 14.38 7.42-15.27z" class="cls-5" fill="#2e769e"></path><path d="m110.05.52-11.1 10.93 5.98 13.88 11.68-13.11z" class="cls-1" fill="#a37a45"></path><path d="M104.93 25.33 94.85 40.04l7.83 14.42 8.81-13.89z" class="cls-3" fill="#cf9a58"></path><path d="m102.68 54.46-8.8 10.12 8.8 15.48 8.05-12.8z" class="cls-1" fill="#a37a45"></path><path d="M64.73.04C58.25.02 51.69.01 45.1.01c-4.18 14.54-8.04 36.83-6.76 66.72 6.48 1.33 12.85 2.67 19.1 3.95-1.77-30.23 2.74-54.66 7.29-70.65Z" class="cls-6" fill="#1f8b96"></path><path d="M102.61.3 83.07.12c-4.75 14.7-9.9 39.42-8.02 74.2 6.5 1.35 12.86 2.67 19.11 3.95-2.48-34.54 3.4-61.8 8.45-77.97" class="cls-3" fill="#cf9a58"></path><path d="M139.57.87C133.15.75 126.66.63 120.1.53c-5.16 14.83-11.48 41.83-8.74 81.33 6.57 1.36 13.02 2.71 19.3 4.03-3.54-38.64 3.46-68.62 8.91-85.01Z" class="cls-6" fill="#1f8b96"></path><path d="M176.03 1.78c-6.36-.19-12.81-.38-19.33-.53-5.46 14.56-13.01 43.94-9.32 88.13 6.66 1.39 13.06 2.75 19.35 4.1-4.67-42.7 3.63-75.45 9.3-91.7" class="cls-3" fill="#cf9a58"></path><path d="m511.87 439.06-10.17 10.82-12.65-5.98 12.05-11.94z" class="cls-5" fill="#2e769e"></path><path d="m489.05 443.9-13.43 10.08-13.15-7.84 11.8-9.81z" class="cls-4" fill="#528aa9"></path><path d="m462.47 446.14-9.25 8.81-13.6-8.64 11.7-8.97zM511.02 366.28l-11.95 10.8-14.56-5.82 13.25-11.96z" class="cls-5" fill="#2e769e"></path><path d="m484.51 371.26-15.85 10.08-15.52-7.84 13.4-8.81z" class="cls-4" fill="#528aa9"></path><path d="m453.14 373.5-14.37 9.56-14.38-10.05 15.27-7.4z" class="cls-5" fill="#2e769e"></path><path d="m511.47 401.96-10.92 11.09-13.87-5.97 13.1-11.68z" class="cls-1" fill="#a37a45"></path><path d="m486.68 407.08-14.73 10.09-14.39-7.85 13.86-8.8z" class="cls-3" fill="#cf9a58"></path><path d="m457.56 409.32-10.14 8.8-15.46-8.8 12.8-8.06z" class="cls-1" fill="#a37a45"></path><path d="M511.96 447.27c.03 6.48.04 13.03.04 19.64-14.56 4.16-36.84 8.04-66.74 6.76-1.33-6.49-2.66-12.85-3.95-19.11 30.24 1.78 54.66-2.73 70.64-7.29Z" class="cls-6" fill="#1f8b96"></path><path d="M511.7 409.39c.08 6.44.13 12.96.19 19.54-14.7 4.76-39.42 9.89-74.2 8.02-1.33-6.5-2.67-12.87-3.95-19.12 34.55 2.48 61.8-3.39 77.97-8.44Z" class="cls-3" fill="#cf9a58"></path><path d="M511.14 372.43c.12 6.41.23 12.91.33 19.47-14.82 5.16-41.83 11.48-81.31 8.73-1.37-6.56-2.72-13.02-4.02-19.3 38.63 3.54 68.63-3.46 85-8.9" class="cls-6" fill="#1f8b96"></path><path d="M510.22 335.97c.19 6.36.38 12.8.54 19.33-14.57 5.46-43.94 13-88.13 9.32-1.4-6.65-2.76-13.06-4.1-19.36 42.69 4.68 75.42-3.61 91.69-9.3Z" class="cls-3" fill="#cf9a58"></path></g></svg>