<svg data-name="Layer 1" xmlns="http://www.w3.org/2000/svg" style="" viewBox="0 0 512 512"><g class="nc-icon-wrapper"><defs><linearGradient id="1776131386308-7940032_linear-gradient" x1="182.03" y1="1337.96" x2="82.69" y2="1201.5" gradientTransform="translate(0 -1080)" gradientUnits="userSpaceOnUse"><stop offset="0" stop-color="#ffe600"></stop><stop offset=".33" stop-color="#ffda00"></stop><stop offset=".91" stop-color="#ffba00"></stop><stop offset="1" stop-color="#ffb500"></stop></linearGradient><linearGradient id="1776131386308-7940032_linear-gradient-2" x1="231.47" y1="1302.11" x2="134.31" y2="1168.92" gradientTransform="translate(0 -1080)" gradientUnits="userSpaceOnUse"><stop offset="0" stop-color="#ffb500"></stop><stop offset=".09" stop-color="#ffba00"></stop><stop offset=".67" stop-color="#ffda00"></stop><stop offset="1" stop-color="#ffe600"></stop></linearGradient><linearGradient id="1776131386308-7940032_linear-gradient-3" x1="197.06" y1="1444.01" x2="28.28" y2="1404.68" gradientTransform="translate(0 -1080)" gradientUnits="userSpaceOnUse"><stop offset="0" stop-color="#ab11a7"></stop><stop offset=".09" stop-color="#b512b1"></stop><stop offset=".29" stop-color="#c613c2"></stop><stop offset=".52" stop-color="#d114cc"></stop><stop offset=".78" stop-color="#d414cf"></stop><stop offset="1" stop-color="#d414cf"></stop></linearGradient><linearGradient id="1776131386308-7940032_linear-gradient-4" x1="210.57" y1="1386.64" x2="43.44" y2="1347.32" gradientTransform="translate(0 -1080)" gradientUnits="userSpaceOnUse"><stop offset="0" stop-color="#d414cf"></stop><stop offset=".22" stop-color="#d414cf"></stop><stop offset=".48" stop-color="#d114cc"></stop><stop offset=".71" stop-color="#c613c2"></stop><stop offset=".91" stop-color="#b512b1"></stop><stop offset="1" stop-color="#ab11a7"></stop></linearGradient><linearGradient id="1776131386308-7940032_linear-gradient-5" x1="320.53" y1="1282.48" x2="287.21" y2="1151.92" gradientTransform="translate(0 -1080)" gradientUnits="userSpaceOnUse"><stop offset="0" stop-color="#7a0032"></stop><stop offset=".14" stop-color="#8b0539"></stop><stop offset="1" stop-color="#f22462"></stop></linearGradient><linearGradient id="1776131386308-7940032_linear-gradient-6" x1="299.27" y1="1327.79" x2="259.41" y2="1173.83" gradientTransform="translate(0 -1080)" gradientUnits="userSpaceOnUse"><stop offset="0" stop-color="#ff70ab"></stop><stop offset="1" stop-color="#ff3672"></stop></linearGradient><linearGradient id="1776131386308-7940032_linear-gradient-7" x1="357.15" y1="1313.18" x2="317.89" y2="1161.57" gradientTransform="translate(0 -1080)" gradientUnits="userSpaceOnUse"><stop offset="0" stop-color="#ff99c3"></stop><stop offset="1" stop-color="#ff3672"></stop></linearGradient><linearGradient id="1776131386308-7940032_linear-gradient-8" x1="405.02" y1="1536.87" x2="450.32" y2="1491.57" gradientTransform="translate(0 -1080)" gradientUnits="userSpaceOnUse"><stop offset="0" stop-color="#d414cf"></stop><stop offset=".22" stop-color="#d414cf"></stop><stop offset=".48" stop-color="#d114cc"></stop><stop offset=".71" stop-color="#c613c2"></stop><stop offset=".91" stop-color="#b512b1"></stop><stop offset="1" stop-color="#ab11a7"></stop></linearGradient><linearGradient id="1776131386308-7940032_linear-gradient-9" x1="295" y1="1439.26" x2="158.19" y2="1366.22" gradientTransform="translate(0 -1080)" gradientUnits="userSpaceOnUse"><stop offset="0" stop-color="#ffe600"></stop><stop offset=".33" stop-color="#ffda00"></stop><stop offset=".91" stop-color="#ffba00"></stop><stop offset="1" stop-color="#ffb500"></stop></linearGradient><linearGradient id="1776131386308-7940032_linear-gradient-10" x1="321.48" y1="1390.09" x2="187.74" y2="1318.58" gradientTransform="translate(0 -1080)" gradientUnits="userSpaceOnUse"><stop offset="0" stop-color="#ffb500"></stop><stop offset=".09" stop-color="#ffba00"></stop><stop offset=".67" stop-color="#ffda00"></stop><stop offset="1" stop-color="#ffe600"></stop></linearGradient></defs><path class="cls-3" d="M285.48,258.18c10.55-14.56,21.56-24.38,33.02-29.48s22.74-7.1,33.84-6,21.65,4.09,31.66,9.01,18.74,10.28,26.2,16.1,13.37,10.92,17.74,15.28,6.55,6.55,6.55,6.55c-19.29,13.46-36.84,21.83-52.67,25.11s-29.75,3.37-41.76.27c-12.01-3.09-22.11-7.55-30.29-13.37-8.19-5.82-14.28-11.19-18.29-16.1s-6-7.37-6-7.37Z" fill="#449c00"></path><path class="cls-15" d="M434.49,269.65c-19.65,15.65-37.39,25.29-53.22,28.93-15.83,3.64-29.75,3.73-41.76.27s-22.02-8.37-30.02-14.74c-8.01-6.37-14.01-12.28-18.01-17.74s-6-8.19-6-8.19c0,0,4-.73,12.01-2.18s18.92-2.55,32.75-3.28,29.75.09,47.76,2.46,36.84,7.19,56.49,14.46Z" fill="#56ab15"></path><path class="cls-3" d="M484.71,495.62c.73,4-1.36,7.37-6.28,10.1s-9.73,4.46-14.46,5.19c-7.28-9.46-16.65-20.83-28.11-34.12-11.46-13.28-25.84-27.11-43.12-41.48-17.29-14.37-37.75-27.75-61.41-40.12-23.65-12.37-50.95-22.47-81.88-30.29-30.93-7.82-66.05-12.1-105.35-12.83-8.37,0-12.01-3.55-10.92-10.64s5.73-16.47,13.92-28.11c8.19-11.64,18.65-24.47,31.39-38.48,12.74-14.01,26.56-28.02,41.48-42.03,14.92-14.01,29.84-26.93,44.76-38.75,14.92-11.83,28.38-21.38,40.39-28.66,12.01-7.28,21.56-11.28,28.66-12.01s10.46,3.28,10.1,12.01c-2.55,34.57-.45,65.86,6.28,93.88s16.19,53.13,28.38,75.33c12.19,22.2,25.93,41.57,41.21,58.13,15.28,16.56,30.39,30.66,45.3,42.3,14.92,11.64,28.2,21.11,39.85,28.38,1.09,4,.36,7.55-2.18,10.64s-5.55,6.28-9.01,9.55-6.46,7.28-9.01,12.01Z" fill="#449c00"></path><path class="cls-3" d="M277.29,354.25s-2.64,3.18-7.91,9.55c-5.28,6.37-13.46,13.83-24.56,22.38s-25.2,16.1-42.3,22.65c-17.1,6.55-37.57,10.19-61.41,10.92-23.84.73-51.22-3.64-82.15-13.1,0,0,2.91-3,8.73-9.01s13.83-13.19,24.02-21.56c10.19-8.37,22.2-16.56,36.03-24.56,13.83-8.01,28.84-14.1,45.03-18.29,16.19-4.18,33.21-5,51.04-2.46,17.83,2.55,35.66,10.37,53.49,23.47Z" fill="#449c00"></path><path class="cls-15" d="M58.95,406.65c28.02-13.46,55.13-23.84,81.33-31.11,26.2-7.28,49.58-12.37,70.14-15.28s36.84-4.64,48.85-5.19c12.01-.55,18.01-.82,18.01-.82,0,0-2.55,3.46-7.64,10.37s-13.1,15.01-24.02,24.29-24.93,17.38-42.03,24.29c-17.1,6.91-37.66,10.46-61.68,10.64-24.02.18-51.67-5.55-82.97-17.19Z" fill="#56ab15"></path><path class="cls-3" d="M264.19,288.2s-3.46,1.27-10.37,3.82-16.65,5.09-29.2,7.64-27.2,3.64-43.94,3.28c-16.74-.36-35.02-3.28-54.86-8.73-19.83-5.46-40.39-14.83-61.68-28.11-21.29-13.28-42.67-31.75-64.14-55.4,0,0,5-1.36,15.01-4.09,10.01-2.73,23.29-5.46,39.85-8.19,16.56-2.73,34.75-4,54.58-3.82,19.83.18,39.66,3,59.5,8.46s38.12,14.92,54.86,28.38c16.74,13.46,30.2,32.39,40.39,56.77Z" fill="#449c00"></path><path class="cls-15" d="M0,210.7c38.57,2.91,73.96,8.46,106.17,16.65,32.2,8.19,60.13,17.01,83.79,26.47s41.94,17.56,54.86,24.29,19.38,10.1,19.38,10.1c0,0-3.55,1.55-10.64,4.64-7.1,3.09-17.1,6.28-30.02,9.55s-27.84,5-44.76,5.19c-16.92.18-35.21-2.46-54.86-7.91-19.65-5.46-40.03-15.19-61.13-29.2-21.11-14.01-42.03-33.93-62.77-59.77Z" fill="#56ab15"></path><path class="cls-3" d="M268.01,244.54c-20.74-8.37-36.66-19.2-47.76-32.48-11.1-13.28-18.83-27.66-23.2-43.12-4.37-15.47-6.37-30.84-6-46.12.36-15.28,1.91-29.29,4.64-42.03,2.73-12.74,5.37-22.93,7.91-30.57s3.82-11.46,3.82-11.46c24.02,20.38,41.57,40.57,52.67,60.59,11.1,20.01,17.92,38.75,20.47,56.22s2.73,32.84.55,46.12c-2.18,13.28-4.91,23.74-8.19,31.39l-4.91,11.46Z" fill="#449c00"></path><path class="cls-15" d="M207.42,38.75c21.83,16.74,38.57,33.39,50.22,49.94,11.64,16.56,19.56,32.48,23.74,47.76s6,29.48,5.46,42.58c-.55,13.1-2.37,24.56-5.46,34.39s-6.1,17.47-9.01,22.93-4.37,8.19-4.37,8.19c0,0-2.73-5.09-8.19-15.28-5.46-10.19-12.01-24.47-19.65-42.85-7.64-18.38-14.65-40.12-21.01-65.23-6.37-25.11-10.28-52.58-11.74-82.42Z" fill="#56ab15"></path><path class="cls-2" d="M140.28,97.16c5.46-10.92,11.92-19.47,19.38-25.65s12.83-10.55,16.1-13.1c4.37,33.11,1.36,58.59-9.01,76.42s-26.47,28.11-48.31,30.84c-21.83,2.73-47.85-1.73-78.06-13.37,3.64-2.55,9.46-6,17.47-10.37,8.01-4.37,18.56-7.1,31.66-8.19,1.46-10.19,3.73-19.2,6.82-27.02s5.19-13.74,6.28-17.74c6.91,2.91,13.46,4.91,19.65,6,6.19,1.09,12.19,1.82,18.01,2.18Z" fill="#d47706"></path><path class="cls-14" d="M111.9,205.24c-6.91-8.73-10.73-17.01-11.46-24.84s0-15.56,2.18-23.2,4.46-15.1,6.82-22.38,3.37-14.74,3-22.38-3.64-15.47-9.83-23.47c5.46.36,14.46,1.64,27.02,3.82,12.55,2.18,26.02,6.73,40.39,13.65s27.2,17.65,38.48,32.2c6.91,8.73,9.1,18.01,6.55,27.84s-7.91,18.92-16.1,27.29-17.83,15.01-28.93,19.92c-11.1,4.91-21.92,7-32.48,6.28s-19.1-5.64-25.65-14.74Z" fill="#ea8800"></path><path class="cls-12" d="M182.31,177.94c11.64,8.73,19.83,17.38,24.56,25.93s6.91,15.92,6.55,22.11-2.18,10.55-5.46,13.1c-9.1,6.19-19.65,10.19-31.66,12.01s-24.11.36-36.3-4.37-22.83-13.65-31.93-26.75c-11.28-15.65-21.01-27.2-29.2-34.66s-15.47-13.28-21.83-17.47c-6.37-4.18-11.92-9.37-16.65-15.56,2.91-2.18,8.28-4.73,16.1-7.64,7.82-2.91,17.83-4.55,30.02-4.91s26.29,2.18,42.3,7.64c16.01,5.46,33.84,15.65,53.49,30.57Z" fill="url(#1776131386308-7940032_linear-gradient)"></path><path class="cls-11" d="M153.93,197.05c-8.73-21.83-13.19-41.03-13.37-57.59-.18-16.56,2-30.39,6.55-41.48s9.73-19.92,15.56-26.47,10.19-10.92,13.1-13.1c4.73,6.55,7.91,13.56,9.55,21.01s4.55,16.28,8.73,26.47,12.65,22.56,25.38,37.12c10.19,12.37,15.83,24.74,16.92,37.12,1.09,12.37-1.09,23.74-6.55,34.12s-12.92,18.83-22.38,25.38c-3.28,2.18-8.1,2.46-14.46.82s-13.1-5.91-20.2-12.83c-7.1-6.91-13.37-17.1-18.83-30.57Z" fill="url(#1776131386308-7940032_linear-gradient-2)"></path><path class="cls-3" d="M330.23,272.92c-10.55-15.65-16.47-30.93-17.74-45.85s.64-28.93,5.73-42.03,11.83-25.11,20.2-36.03,16.83-20.38,25.38-28.38,15.74-14.19,21.56-18.56,8.73-6.55,8.73-6.55c6.55,26.2,8.64,49.13,6.28,68.78-2.37,19.65-7.19,36.39-14.46,50.22-7.28,13.83-15.19,25.02-23.74,33.57s-16.01,14.83-22.38,18.83-9.55,6-9.55,6Z" fill="#449c00"></path><path class="cls-15" d="M394.1,95.52c8.37,26.93,11.64,50.31,9.83,70.14-1.82,19.83-6.46,36.57-13.92,50.22s-15.83,24.65-25.11,33.02-17.38,14.46-24.29,18.29c-6.91,3.82-10.37,5.73-10.37,5.73,0,0,.64-5,1.91-15.01,1.27-10.01,4.09-23.38,8.46-40.12,4.37-16.74,10.83-35.66,19.38-56.77,8.55-21.11,19.92-42.94,34.12-65.5Z" fill="#56ab15"></path><path class="cls-3" d="M309.49,187.22c-15.65-11.28-26.66-23.74-33.02-37.39-6.37-13.65-9.55-27.47-9.55-41.48s1.91-27.47,5.73-40.39c3.82-12.92,8.37-24.47,13.65-34.66s9.92-18.29,13.92-24.29c4-6,6-9.01,6-9.01,15.65,22.56,25.84,43.49,30.57,62.77s6.1,36.57,4.09,51.86c-2,15.28-5.46,28.38-10.37,39.3-4.91,10.92-9.64,19.2-14.19,24.84-4.55,5.64-6.82,8.46-6.82,8.46Z" fill="#449c00"></path><path class="cls-15" d="M306.22,0c17.47,22.56,28.84,43.49,34.12,62.77,5.28,19.29,6.82,36.57,4.64,51.86-2.18,15.28-6.1,28.38-11.74,39.3-5.64,10.92-11.01,19.2-16.1,24.84-5.09,5.64-7.64,8.46-7.64,8.46,0,0-1.18-4.82-3.55-14.46-2.37-9.64-4.55-23.11-6.55-40.39-2-17.29-2.73-37.21-2.18-59.77s3.55-46.76,9.01-72.6Z" fill="#56ab15"></path><path class="cls-3" d="M318.23,292.03s-3.73.36-11.19,1.09-17.38.36-29.75-1.09c-12.37-1.46-26.02-5.37-40.94-11.74-14.92-6.37-29.84-16.47-44.76-30.29-14.92-13.83-28.38-32.93-40.39-57.31,0,0,3.73-.09,11.19-.27s17.1.27,28.93,1.36c11.83,1.09,24.56,3.37,38.21,6.82s26.84,8.82,39.57,16.1c12.74,7.28,23.56,17.01,32.48,29.2,8.92,12.19,14.46,27.57,16.65,46.12Z" fill="#449c00"></path><path class="cls-15" d="M151.2,192.68c25.84,8.73,49.13,18.74,69.87,30.02s38.3,22.2,52.67,32.75c14.37,10.55,25.38,19.29,33.02,26.2,7.64,6.91,11.46,10.37,11.46,10.37,0,0-3.91.55-11.74,1.64-7.82,1.09-18.1,1.18-30.84.27s-26.56-4.46-41.48-10.64c-14.92-6.19-29.66-16.38-44.21-30.57-14.56-14.19-27.47-34.21-38.75-60.04ZM98.25,272.92s5.28.82,15.83,2.46c10.55,1.64,25.75,5.46,45.58,11.46s43.67,15.28,71.51,27.84c27.84,12.55,59.04,29.57,93.61,51.04,34.57,21.47,71.87,48.76,111.9,81.88,20.01,16.74,39.48,34.02,58.41,51.86l-15.28,12.55c-8.73-10.55-18.1-20.11-28.11-28.66-10.01-8.55-19.56-16.28-28.66-23.2-52.4-40.03-98.71-72.32-138.92-96.89-40.21-24.56-74.14-43.39-101.8-56.49-27.66-13.1-48.58-22.02-62.77-26.75-14.19-4.73-21.29-7.1-21.29-7.1Z" fill="#56ab15"></path><path class="cls-15" d="M246.72,155.02s4.18,7.28,12.55,21.83c8.37,14.56,21.01,34.39,37.94,59.5s38.21,53.95,63.86,86.52c25.65,32.57,55.77,66.87,90.34,102.89,8.73,9.1,18.29,17.29,28.66,24.56,10.37,7.28,21.01,14.92,31.93,22.93l-6,15.83c-11.28-6.91-22.56-14.46-33.84-22.65-11.28-8.19-21.29-16.65-30.02-25.38-27.66-27.29-52.04-54.58-73.14-81.88-21.11-27.29-39.39-53.22-54.86-77.78s-28.2-46.31-38.21-65.23c-10.01-18.92-17.38-33.84-22.11-44.76s-7.1-16.38-7.1-16.38Z" fill="#56ab15"></path><path class="cls-15" d="M271.28,269.1c21.83,24.38,46.49,50.76,73.96,79.15,27.47,28.38,58.13,56.4,91.97,84.06l-1.64,7.64c-35.66-25.47-68.5-51.67-98.52-78.6-30.02-26.93-55.77-53.86-77.24-80.78,4-3.64,7.82-7.46,11.46-11.46Z" fill="#56ab15"></path><path class="cls-1" d="M54.58,269.65c-3.28-12.01-4.28-22.65-3-31.93s2.46-15.92,3.55-19.92c25.84,22.93,41.03,44.21,45.58,63.86s-.55,37.3-15.28,52.95-37.57,28.38-68.5,38.21c.73-4.37,2.73-10.73,6-19.1s9.46-16.92,18.56-25.65c-5.82-8.37-10.28-16.56-13.37-24.56-3.09-8.01-5.73-13.83-7.91-17.47,7.28-1.82,13.65-4.28,19.1-7.37s10.55-6.1,15.28-9.01Z" fill="#7a107a"></path><path class="cls-13" d="M107.53,368.99c-10.92-2.55-19.47-6.55-25.65-12.01-6.19-5.46-11.01-11.74-14.46-18.83s-6.91-14.19-10.37-21.29c-3.46-7.1-7.91-13.37-13.37-18.83s-13.28-9.46-23.47-12.01c4.73-2.91,12.55-7.46,23.47-13.65,10.92-6.19,24.2-11.01,39.85-14.46s32.75-3.18,51.31.82c11.28,2.55,19.38,8.28,24.29,17.19s7.1,19.1,6.55,30.57c-.55,11.46-3.28,22.47-8.19,33.02s-11.64,18.74-20.2,24.56c-8.55,5.82-18.47,7.46-29.75,4.91Z" fill="#ab11a7"></path><path class="cls-10" d="M141.92,304.58c14.92-.36,27.11,1.27,36.57,4.91,9.46,3.64,16.28,7.91,20.47,12.83s5.91,9.19,5.19,12.83c-2.91,10.55-8.28,20.29-16.1,29.2s-17.92,15.28-30.29,19.1c-12.37,3.82-26.75,3.55-43.12-.82-18.92-5.09-34.12-7.91-45.58-8.46-11.46-.55-21.11-.55-28.93,0-7.82.55-15.56.09-23.2-1.36.73-3.64,3-9.01,6.82-16.1s10.28-14.46,19.38-22.11,21.65-14.28,37.66-19.92,36.39-9.01,61.13-10.1Z" fill="url(#1776131386308-7940032_linear-gradient-3)"></path><path class="cls-9" d="M133.73,336.78c-21.83-11.28-38.48-23.11-49.94-35.48-11.46-12.37-19.29-24.2-23.47-35.48s-6.37-21.2-6.55-29.75.27-14.65,1.36-18.29c8.01,2.18,15.19,5.55,21.56,10.1s14.65,9.46,24.84,14.74,25.11,9.73,44.76,13.37c16.38,2.91,29.2,8.73,38.48,17.47,9.28,8.73,15.37,18.74,18.29,30.02,2.91,11.28,3.09,22.2.55,32.75-.73,3.64-4.18,6.82-10.37,9.55-6.19,2.73-14.28,3.64-24.29,2.73s-21.74-4.82-35.21-11.74Z" fill="url(#1776131386308-7940032_linear-gradient-4)"></path><path class="cls-17" d="M320.96,91.16c9.1-8.01,18.1-13.56,27.02-16.65s15.37-5.19,19.38-6.28c-8.73,31.29-21.01,53.13-36.84,65.5s-34.02,16.1-54.58,11.19c-20.56-4.91-42.3-17.74-65.23-38.48,4.37-1.09,11.01-2.18,19.92-3.28s19.38,0,31.39,3.28c5.09-8.37,10.46-15.56,16.1-21.56s9.73-10.64,12.28-13.92c5.09,4.73,10.19,8.64,15.28,11.74s10.19,5.91,15.28,8.46Z" fill="#b81d4b"></path><path class="cls-6" d="M254.91,177.94c-2.55-10.19-2.73-18.92-.55-26.2s5.64-13.92,10.37-19.92c4.73-6,9.55-11.92,14.46-17.74,4.91-5.82,8.64-12.19,11.19-19.1s2.55-14.92,0-24.02c4.73,2.18,12.28,6.37,22.65,12.55,10.37,6.19,20.74,14.74,31.11,25.65,10.37,10.92,17.92,24.93,22.65,42.03,2.55,9.83.91,18.74-4.91,26.75s-14.01,14.28-24.56,18.83-21.65,7.19-33.3,7.91-22.02-1-31.11-5.19-15.1-11.37-18.01-21.56Z" fill="url(#1776131386308-7940032_linear-gradient-5)"></path><path class="cls-7" d="M328.6,176.85c6.91,12.01,10.92,22.56,12.01,31.66,1.09,9.1.36,16.47-2.18,22.11s-5.82,8.82-9.83,9.55c-10.55,2.55-21.56,2.64-33.02.27s-21.74-7.73-30.84-16.1c-9.1-8.37-15.28-20.01-18.56-34.93-4-17.47-8.37-30.93-13.1-40.39s-9.1-17.1-13.1-22.93-7.1-12.37-9.28-19.65c3.64-.73,9.55-1.09,17.74-1.09s17.74,1.91,28.66,5.73,22.56,10.83,34.93,21.01c12.37,10.19,24.56,25.11,36.57,44.76Z" fill="url(#1776131386308-7940032_linear-gradient-6)"></path><path class="cls-5" d="M295.85,185.04c.36-22.93,3.55-41.76,9.55-56.49s13.1-26.29,21.29-34.66,16.1-14.46,23.74-18.29,13.28-6.28,16.92-7.37c1.82,7.28,2.09,14.56.82,21.83-1.27,7.28-2,16.19-2.18,26.75-.18,10.55,2.64,24.56,8.46,42.03,4.73,14.56,5.19,27.47,1.36,38.75-3.82,11.28-10.1,20.56-18.83,27.84s-18.38,12.37-28.93,15.28c-4,.73-8.55-.73-13.65-4.37s-9.55-9.73-13.37-18.29c-3.82-8.55-5.55-19.56-5.19-33.02Z" fill="url(#1776131386308-7940032_linear-gradient-7)"></path><path class="cls-4" d="M433.94,401.74c2.55-.36,5.91,1.09,10.1,4.37s7.64,6.82,10.37,10.64,3.18,6.46,1.36,7.91-4.18,5.55-7.1,12.28c-2.91,6.73-6.64,13.01-11.19,18.83-4.55,5.82-9.92,8.55-16.1,8.19-2.55,0-6.46-1.73-11.74-5.19-5.28-3.46-9.83-7.1-13.65-10.92-3.82-3.82-4.64-6.1-2.46-6.82,7.28-2.91,12.83-7.46,16.65-13.65,3.82-6.19,7.37-11.92,10.64-17.19,3.28-5.28,7.64-8.1,13.1-8.46Z" fill="url(#1776131386308-7940032_linear-gradient-8)"></path><path class="cls-13" d="M441.59,408.29c-4.73,2.55-8.92,7-12.55,13.37-3.64,6.37-7.64,12.28-12.01,17.74s-9.64,8.19-15.83,8.19c7.28-2.91,12.83-7.46,16.65-13.65,3.82-6.19,7.37-11.92,10.64-17.19,3.28-5.28,7.64-8.1,13.1-8.46ZM453.05,418.12c-4.73,2.55-9.01,7-12.83,13.37-3.82,6.37-7.82,12.28-12.01,17.74s-9.55,8.19-16.1,8.19c7.64-2.91,13.37-7.46,17.19-13.65,3.82-6.19,7.28-11.92,10.37-17.19,3.09-5.28,7.55-8.1,13.37-8.46Z" fill="#ab11a7"></path><path class="cls-3" d="M306.22,294.21c13.83-9.46,26.38-14.01,37.66-13.65s21.29,3.55,30.02,9.55c8.73,6,16.01,13.01,21.83,21.01,5.82,8.01,10.28,15.01,13.37,21.01s4.64,9.01,4.64,9.01c-18.19,5.09-33.57,6.73-46.12,4.91s-22.83-5.37-30.84-10.64c-8.01-5.28-14.28-11.1-18.83-17.47-4.55-6.37-7.64-11.92-9.28-16.65s-2.46-7.1-2.46-7.1Z" fill="#449c00"></path><path class="cls-15" d="M413.75,341.15c-18.56,6.19-34.21,8.64-46.94,7.37s-23.11-4.64-31.11-10.1-14.19-11.64-18.56-18.56c-4.37-6.91-7.28-12.92-8.73-18.01s-2.18-7.64-2.18-7.64c0,0,5.37,1,16.1,3s24.38,6.28,40.94,12.83c16.56,6.55,33.39,16.92,50.49,31.11Z" fill="#56ab15"></path><path class="cls-3" d="M254.91,312.77s2.46,2.09,7.37,6.28c4.91,4.18,10.19,10.37,15.83,18.56,5.64,8.19,9.92,18.38,12.83,30.57,2.91,12.19,2.55,26.11-1.09,41.76-3.64,15.65-12.37,32.93-26.2,51.86l-6.55-6.55c-4.37-4.37-9.46-10.37-15.28-18.01s-11.01-16.47-15.56-26.47c-4.55-10.01-7.28-20.56-8.19-31.66-.91-11.1,1.36-22.29,6.82-33.57s15.47-22.2,30.02-32.75Z" fill="#449c00"></path><path class="cls-15" d="M263.64,461.78c-7.28-19.65-11.83-38.48-13.65-56.49-1.82-18.01-2.27-33.93-1.36-47.76s2.18-24.74,3.82-32.75,2.46-12.01,2.46-12.01c0,0,2.73,2.09,8.19,6.28,5.46,4.18,11.28,10.37,17.47,18.56s10.92,18.29,14.19,30.29,2.82,25.93-1.36,41.76c-4.18,15.83-14.1,33.21-29.75,52.13Z" fill="#56ab15"></path><path class="cls-2" d="M195.96,243.45c.36-11.64,2.37-21.47,6-29.48s6.37-13.65,8.19-16.92c16.74,25.84,24.38,48.13,22.93,66.87-1.46,18.74-10.64,33.57-27.57,44.49s-40.3,17.65-70.14,20.2c2.18-3.64,5.73-8.92,10.64-15.83,4.91-6.91,12.46-13.28,22.65-19.1-2.55-9.1-4.18-17.56-4.91-25.38s-1.46-13.56-2.18-17.19c6.91-.36,13.19-1.27,18.83-2.73s10.83-3.09,15.56-4.91Z" fill="#d47706"></path><path class="cls-14" d="M215.91,343.7c-9.21-4.47-15.68-9.8-19.41-15.97s-6.22-12.86-7.47-20.04-2.36-14.25-3.31-21.21-3.11-13.52-6.47-19.69-9.19-11.34-17.51-15.5c4.66-1.87,12.61-4.39,23.87-7.57s24.2-4.77,38.85-4.77c14.65,0,29.55,3.78,44.69,11.33,9.21,4.47,14.73,11.27,16.55,20.41,1.82,9.13,1.03,18.78-2.4,28.95-3.42,10.17-8.74,19.49-15.95,27.96s-15.32,14.5-24.34,18.09-18.05,2.93-27.1-1.99Z" fill="#ea8800"></path><path class="cls-8" d="M263.1,293.12c20.01,4,33.3,10.55,39.85,19.65,6.55,9.1,8.55,16.01,6,20.74-5.09,8.73-12.28,16.28-21.56,22.65s-19.83,10.01-31.66,10.92c-11.83.91-24.29-2.27-37.39-9.55-15.28-8.73-27.84-14.46-37.66-17.19s-18.19-4.64-25.11-5.73c-6.91-1.09-13.65-3.09-20.2-6,1.82-3.28,5.37-7.64,10.64-13.1,5.28-5.46,12.83-10.73,22.65-15.83s22.47-8.55,37.94-10.37c15.47-1.82,34.3-.55,56.49,3.82Z" fill="url(#1776131386308-7940032_linear-gradient-9)"></path><path class="cls-16" d="M247.27,320.41c-16.01-14.92-27.38-29.11-34.12-42.58s-10.46-25.75-11.19-36.84,0-20.47,2.18-28.11,4.18-12.92,6-15.83c6.55,3.28,11.92,7.64,16.1,13.1s10.1,11.64,17.74,18.56c7.64,6.91,19.65,14.01,36.03,21.29,13.46,5.82,23.11,13.65,28.93,23.47,5.82,9.83,8.46,20.11,7.91,30.84-.55,10.73-3.37,20.65-8.46,29.75-1.82,3.28-5.73,5.46-11.74,6.55-6,1.09-13.28.18-21.83-2.73s-17.74-8.73-27.57-17.47Z" fill="url(#1776131386308-7940032_linear-gradient-10)"></path><path class="cls-3" d="M306.22,307.86c17.83,6.19,30.39,14.56,37.66,25.11,7.28,10.55,11.1,21.74,11.46,33.57.36,11.83-1.09,23.11-4.37,33.84s-6.64,19.47-10.1,26.2c-3.46,6.73-5.19,10.1-5.19,10.1-16.74-13.1-28.57-25.84-35.48-38.21s-10.64-24.02-11.19-34.93c-.55-10.92.64-20.56,3.55-28.93,2.91-8.37,5.91-14.92,9.01-19.65s4.64-7.1,4.64-7.1Z" fill="#449c00"></path><path class="cls-15" d="M335.69,436.67c-18.19-12.74-31.02-25.2-38.48-37.39s-11.28-23.84-11.46-34.93,1.36-20.92,4.64-29.48,6.73-15.19,10.37-19.92,5.46-7.1,5.46-7.1c0,0,1.64,3.18,4.91,9.55,3.28,6.37,7,15.28,11.19,26.75s7.73,25.02,10.64,40.67c2.91,15.65,3.82,32.93,2.73,51.86Z" fill="#56ab15"></path></g></svg>