<svg data-name="Layer 1" xmlns="http://www.w3.org/2000/svg" style="" viewBox="0 0 512.11 511.98"><g class="nc-icon-wrapper"><defs><linearGradient id="1777685730123-2797610_linear-gradient" x1="241.05" y1="-465.62" x2="452.95" y2="-253.73" gradientTransform="matrix(1 0 0 -1 0 -.02)" gradientUnits="userSpaceOnUse"><stop offset="0" stop-color="#9da3a6"></stop><stop offset=".35" stop-color="#e7edf0"></stop><stop offset=".42" stop-color="#d3d9dc"></stop><stop offset=".54" stop-color="#b6bcbf"></stop><stop offset=".64" stop-color="#a3a9ac"></stop><stop offset=".71" stop-color="#9da3a6"></stop><stop offset=".74" stop-color="#afb5b8"></stop><stop offset=".8" stop-color="#c7cdd0"></stop><stop offset=".86" stop-color="#d9dfe2"></stop><stop offset=".92" stop-color="#e4eaed"></stop><stop offset="1" stop-color="#e7edf0"></stop></linearGradient><linearGradient id="1777685730123-2797610_linear-gradient-2" x1="236.42" y1="-255.5" x2="472.74" y2="-448.7" gradientTransform="matrix(1 0 0 -1 0 -.02)" gradientUnits="userSpaceOnUse"><stop offset="0" stop-color="#3c3e40" stop-opacity=".9"></stop><stop offset=".06" stop-color="#3c3e40" stop-opacity=".9"></stop><stop offset="1" stop-color="#e7edf0" stop-opacity="0"></stop></linearGradient><linearGradient id="1777685730123-2797610_linear-gradient-3" x1="210.88" y1="-323.64" x2="133.57" y2="-216.38" gradientTransform="matrix(1 0 0 -1 0 -.02)" gradientUnits="userSpaceOnUse"><stop offset="0" stop-color="#c78752"></stop><stop offset=".2" stop-color="#ce925e"></stop><stop offset=".55" stop-color="#e1b07d"></stop><stop offset="1" stop-color="#ffdead"></stop></linearGradient><radialGradient id="1777685730123-2797610_radial-gradient" cx="-95.87" cy="-773.88" fx="-95.87" fy="-773.88" r="79.64" gradientTransform="matrix(-.95266 .30403 -.09118 -.39078 .19 -.25)" gradientUnits="userSpaceOnUse"><stop offset="0" stop-color="#ad491c"></stop><stop offset=".1" stop-color="#b95215" stop-opacity=".77"></stop><stop offset=".28" stop-color="#da6903" stop-opacity=".36"></stop><stop offset=".31" stop-color="#e06d00" stop-opacity=".3"></stop><stop offset=".67" stop-color="#ffcb7d" stop-opacity="0"></stop><stop offset="1" stop-color="#ffcb7d" stop-opacity="0"></stop></radialGradient><radialGradient id="1777685730123-2797610_radial-gradient-2" cx="-34.24" cy="-932.14" fx="-34.24" fy="-932.14" r="48.56" gradientTransform="matrix(-.98268 .18532 -.05227 -.2649 .64 1.9)" gradientUnits="userSpaceOnUse"><stop offset="0" stop-color="#ad491c"></stop><stop offset=".1" stop-color="#b95215" stop-opacity=".77"></stop><stop offset=".28" stop-color="#da6903" stop-opacity=".36"></stop><stop offset=".31" stop-color="#e06d00" stop-opacity=".3"></stop><stop offset=".67" stop-color="#ffcb7d" stop-opacity="0"></stop><stop offset="1" stop-color="#ffcb7d" stop-opacity="0"></stop></radialGradient><linearGradient id="1777685730123-2797610_linear-gradient-4" x1="301.92" y1="-212.33" x2="155.09" y2="-182.97" gradientTransform="matrix(1 0 0 -1 0 -.02)" gradientUnits="userSpaceOnUse"><stop offset="0" stop-color="#c78752"></stop><stop offset="0" stop-color="#c88853"></stop><stop offset=".19" stop-color="#dca774"></stop><stop offset=".37" stop-color="#ebbf8d"></stop><stop offset=".56" stop-color="#f6d09f"></stop><stop offset=".77" stop-color="#fddbaa"></stop><stop offset="1" stop-color="#ffdead"></stop></linearGradient><radialGradient id="1777685730123-2797610_radial-gradient-3" cx="-133.61" cy="-552.17" fx="-133.61" fy="-552.17" r="70.3" gradientTransform="matrix(.03507 -.99938 -.50868 -.04668 -1.2 .25)" gradientUnits="userSpaceOnUse"><stop offset="0" stop-color="#ad491c"></stop><stop offset=".1" stop-color="#b95215" stop-opacity=".77"></stop><stop offset=".28" stop-color="#da6903" stop-opacity=".36"></stop><stop offset=".31" stop-color="#e06d00" stop-opacity=".3"></stop><stop offset=".37" stop-color="#da7314" stop-opacity=".25"></stop><stop offset=".5" stop-color="#d07e36" stop-opacity=".15"></stop><stop offset=".6" stop-color="#c9854a" stop-opacity=".06"></stop><stop offset=".67" stop-color="#c78752" stop-opacity="0"></stop><stop offset="1" stop-color="#c78752" stop-opacity="0"></stop></radialGradient><radialGradient id="1777685730123-2797610_radial-gradient-4" cx="-11.28" cy="-1008.32" fx="-11.28" fy="-1008.32" r="51.85" gradientTransform="matrix(.07515 -.99717 -.22552 -.06815 2.17 .45)" gradientUnits="userSpaceOnUse"><stop offset="0" stop-color="#ad491c"></stop><stop offset=".1" stop-color="#b95215" stop-opacity=".77"></stop><stop offset=".28" stop-color="#da6903" stop-opacity=".36"></stop><stop offset=".31" stop-color="#e06d00" stop-opacity=".3"></stop><stop offset=".67" stop-color="#ffcb7d" stop-opacity="0"></stop><stop offset="1" stop-color="#ffcb7d" stop-opacity="0"></stop></radialGradient><radialGradient id="1777685730123-2797610_radial-gradient-5" cx="-68.4" cy="-907.28" fx="-68.4" fy="-907.28" r="57.31" gradientTransform="matrix(.35772 -.93383 -.24502 -.11517 -2.18 -.6)" gradientUnits="userSpaceOnUse"><stop offset="0" stop-color="#ad491c"></stop><stop offset=".1" stop-color="#b95215" stop-opacity=".77"></stop><stop offset=".28" stop-color="#da6903" stop-opacity=".36"></stop><stop offset=".31" stop-color="#e06d00" stop-opacity=".3"></stop><stop offset=".67" stop-color="#ffcb7d" stop-opacity="0"></stop><stop offset="1" stop-color="#ffcb7d" stop-opacity="0"></stop></radialGradient><radialGradient id="1777685730123-2797610_radial-gradient-6" cx="-63.83" cy="-696.86" fx="-63.83" fy="-696.86" r="46.93" gradientTransform="matrix(.5797 -.81482 -.4058 -.32663 1.56 1.3)" gradientUnits="userSpaceOnUse"><stop offset="0" stop-color="#ad491c"></stop><stop offset=".1" stop-color="#b95215" stop-opacity=".77"></stop><stop offset=".28" stop-color="#da6903" stop-opacity=".36"></stop><stop offset=".31" stop-color="#e06d00" stop-opacity=".3"></stop><stop offset=".37" stop-color="#da7314" stop-opacity=".25"></stop><stop offset=".5" stop-color="#d07e36" stop-opacity=".15"></stop><stop offset=".6" stop-color="#c9854a" stop-opacity=".06"></stop><stop offset=".67" stop-color="#c78752" stop-opacity="0"></stop><stop offset="1" stop-color="#c78752" stop-opacity="0"></stop></radialGradient><radialGradient id="1777685730123-2797610_radial-gradient-7" cx="-169.79" cy="-455.38" fx="-169.79" fy="-455.38" r="44.75" gradientTransform="matrix(.20518 -.97872 -.49353 -.13147 -.71 .08)" gradientUnits="userSpaceOnUse"><stop offset="0" stop-color="#ad491c"></stop><stop offset=".1" stop-color="#b95215" stop-opacity=".77"></stop><stop offset=".28" stop-color="#da6903" stop-opacity=".36"></stop><stop offset=".31" stop-color="#e06d00" stop-opacity=".3"></stop><stop offset=".67" stop-color="#ffcb7d" stop-opacity="0"></stop><stop offset="1" stop-color="#ffcb7d" stop-opacity="0"></stop></radialGradient><linearGradient id="1777685730123-2797610_linear-gradient-5" x1="97.07" y1="-389.6" x2="366.48" y2="-119.64" gradientTransform="matrix(1 0 0 -1 0 -.02)" gradientUnits="userSpaceOnUse"><stop offset="0" stop-color="#e7edf0"></stop><stop offset=".05" stop-color="#cad0d3"></stop><stop offset=".1" stop-color="#b1b7ba"></stop><stop offset=".14" stop-color="#a2a8ab"></stop><stop offset=".18" stop-color="#9da3a6"></stop><stop offset=".23" stop-color="#b0b6b9"></stop><stop offset=".34" stop-color="#d8dee1"></stop><stop offset=".4" stop-color="#e7edf0"></stop><stop offset=".55" stop-color="#e4eaed"></stop><stop offset=".64" stop-color="#dce2e5"></stop><stop offset=".72" stop-color="#cdd3d6"></stop><stop offset=".79" stop-color="#b8bec1"></stop><stop offset=".86" stop-color="#9ea4a7"></stop><stop offset=".86" stop-color="#9da3a6"></stop><stop offset=".91" stop-color="#bbc1c4"></stop><stop offset=".98" stop-color="#e7edf0"></stop><stop offset="1" stop-color="#e7edf0"></stop></linearGradient></defs><path class="cls-8" d="M200.94,11.51c5.46,2.91,6.91,10.28,4.37,22.1s-8,26.11-16.37,42.84c-8.37,16.74-18.56,34.11-30.56,52.12s-25.01,34.84-39.02,50.48c-14.01,15.65-28.02,28.2-42.02,37.66s-26.93,14.01-38.75,13.64-21.74-7.64-29.74-21.83c-6.19-10.92-7.91-24.56-5.18-40.93s8.73-33.47,18.01-51.3,20.83-34.84,34.66-51.03,28.93-29.84,45.3-40.93S134.72,6.15,151.82,3.05c17.1-3.09,33.47-.27,49.12,8.46Z" fill="#ffdead"></path><path class="cls-29" d="M203.12,13.15c5.46,3.27,6.91,10.82,4.37,22.65s-7.91,26.11-16.1,42.84-18.37,34.11-30.56,52.12-25.29,34.75-39.3,50.21c-14.01,15.46-27.93,27.93-41.75,37.39s-26.74,14.01-38.75,13.64-21.83-7.46-29.47-21.29c-6.19-11.28-8-25.01-5.46-41.21,2.55-16.19,8.46-33.2,17.74-51.03,9.28-17.83,20.83-34.84,34.66-51.03s29.02-29.93,45.57-41.21c16.56-11.28,33.38-18.47,50.48-21.56,17.1-3.09,33.29-.27,48.57,8.46v.02Z" fill="#ebb469"></path><path class="cls-18" d="M212.4,429.58c-3.64-5.46-9.55-11.55-17.74-18.28s-16.46-13.19-24.83-19.38-14.55-11.64-18.56-16.37c-.73-1.09,1.91-6.28,7.91-15.55s14.37-21.19,25.11-35.75,22.74-30.2,36.02-46.94,26.65-33.38,40.11-49.94,25.92-31.66,37.39-45.3c11.46-13.64,20.92-24.29,28.38-31.93,7.46-7.64,11.73-11.1,12.83-10.37,12.73,13.83,27.11,29.29,43.12,46.39s32.38,34.47,49.12,52.12,32.38,34.29,46.94,49.94c3.64,4,7.28,8,10.92,12.01s6.91,8.19,9.82,12.55c6.91,11.28,11.1,22.92,12.55,34.93.73,5.46.82,10.92.27,16.37s-1.18,10.73-1.91,15.83c-1.09,8.37-2.37,16.74-3.82,25.11-1.46,8.37-3.82,16.37-7.1,24.01-2.91,6.19-6.46,12.01-10.64,17.46s-8.64,10.55-13.37,15.28c-12.37,13.46-26.2,25.65-41.48,36.57-2.91,2.55-6,4.73-9.28,6.55s-6.73,3.46-10.37,4.91c-4,1.09-8.19,1.73-12.55,1.91s-8.73.27-13.1.27h-28.93c-8.37-.36-16.65-.82-24.83-1.36s-16.46-2.27-24.83-5.18c-7.28-2.55-14.37-6.09-21.29-10.64s-13.64-9.19-20.19-13.92c-6.19-4.73-10.82-9.37-13.92-13.92-3.09-4.55-7.55-9.01-13.37-13.37-1.82-1.09-3.46-2.27-4.91-3.55-1.46-1.27-2.91-2.64-4.37-4.09-2.18-2.55-5.46-5.18-9.82-7.91s-7.46-5.55-9.28-8.46h0Z" fill="url(#1777685730123-2797610_linear-gradient)"></path><path class="cls-12" d="M212.4,429.58c-3.64-5.46-9.55-11.55-17.74-18.28s-16.46-13.19-24.83-19.38-14.55-11.64-18.56-16.37c-.73-1.09,1.91-6.28,7.91-15.55s14.37-21.19,25.11-35.75,22.74-30.2,36.02-46.94,26.65-33.38,40.11-49.94,25.92-31.66,37.39-45.3c11.46-13.64,20.92-24.29,28.38-31.93,7.46-7.64,11.73-11.1,12.83-10.37,12.73,13.83,27.11,29.29,43.12,46.39s32.38,34.47,49.12,52.12,32.38,34.29,46.94,49.94c3.64,4,7.28,8,10.92,12.01s6.91,8.19,9.82,12.55c6.91,11.28,11.1,22.92,12.55,34.93.73,5.46.82,10.92.27,16.37s-1.18,10.73-1.91,15.83c-1.09,8.37-2.37,16.74-3.82,25.11-1.46,8.37-3.82,16.37-7.1,24.01-2.91,6.19-6.46,12.01-10.64,17.46s-8.64,10.55-13.37,15.28c-12.37,13.46-26.2,25.65-41.48,36.57-2.91,2.55-6,4.73-9.28,6.55s-6.73,3.46-10.37,4.91c-4,1.09-8.19,1.73-12.55,1.91s-8.73.27-13.1.27h-28.93c-8.37-.36-16.65-.82-24.83-1.36s-16.46-2.27-24.83-5.18c-7.28-2.55-14.37-6.09-21.29-10.64s-13.64-9.19-20.19-13.92c-6.19-4.73-10.82-9.37-13.92-13.92-3.09-4.55-7.55-9.01-13.37-13.37-1.82-1.09-3.46-2.27-4.91-3.55-1.46-1.27-2.91-2.64-4.37-4.09-2.18-2.55-5.46-5.18-9.82-7.91s-7.46-5.55-9.28-8.46h0Z" fill="url(#1777685730123-2797610_linear-gradient-2)"></path><path class="cls-13" d="M489.11,382.09c-.36-.36-.73-.91-1.09-1.64s-.73-1.46-1.09-2.18c1.09,1.46,1.82,2.73,2.18,3.82Z" fill="#dee4e7"></path><path class="cls-13" d="M502.21,370.63c.36,7.28.18,15.37-.55,24.29-.73,8.91-3.64,16.1-8.73,21.56,1.82-4,3-7.55,3.55-10.64s-.09-6.28-1.91-9.55c-6.91,13.46-16.92,24.01-30.02,31.66,2.55-5.09,6.19-9.82,10.92-14.19s8.73-9.01,12.01-13.92,3.82-10.82,1.64-17.74c1.82,4.37,4,8.37,6.55,12.01,4-4.73,5.28-10.82,3.82-18.28s-4.91-13.55-10.37-18.28c-3.27,4-3.82,8.91-1.64,14.74-2.55-3.27-4.64-7-6.28-11.19s-1.18-7.55,1.36-10.1c-7.28-4-13.19-9.55-17.74-16.65s-7-14.28-7.37-21.56c3.64,9.46,9.64,17.65,18.01,24.56-.36-7.64-2.82-15.1-7.37-22.38s-10.46-13.28-17.74-18.01c.73,5.82,1.27,11.55,1.64,17.19.36,5.64,1.27,11.19,2.73,16.65,1.82,4.73,4.73,8.82,8.73,12.28s7.82,7,11.46,10.64c-7.28-3.27-12.55-6.64-15.83-10.1-3.27-3.46-6.19-6.82-8.73-10.1-2.55-3.27-6.28-6.09-11.19-8.46s-12.64-3.73-23.2-4.09c3.27,4,4.91,8.37,4.91,13.1,18.19,9.46,31.84,23.47,40.93,42.02-9.1-1.09-15.92.73-20.47,5.46-4.55,4.73-8.55,10.55-12.01,17.46-3.46,6.91-7.91,13.37-13.37,19.38-5.46,6-13.64,9.55-24.56,10.64,5.46,3.64,11.37,4.55,17.74,2.73s10.1-5.64,11.19-11.46c8.37,2.55,16.1,2.09,23.2-1.36,7.1-3.46,13.37-8.37,18.83-14.74s10.01-12.64,13.64-18.83c.73-.36,1.46-.55,2.18-.55s1.64-.18,2.73-.55c-4.73,9.46-10.19,18.56-16.37,27.29-6.19,8.73-14.55,14.37-25.11,16.92,7.64,2.55,15.1,3.82,22.38,3.82-2.18,6.19-6.09,9.19-11.73,9.01s-12.19-1.27-19.65-3.27-15.01-2.73-22.65-2.18-14.55,4.64-20.74,12.28c12.01,8,24.83,11.19,38.48,9.55,13.64-1.64,26.29-5.91,37.93-12.83-6.91,7.28-15.1,12.73-24.56,16.37,7.64-.36,14.1-3,19.38-7.91s10.46-10.19,15.55-15.83c5.09-5.64,11.1-9.73,18.01-12.28-5.46,5.82-10.82,12.64-16.1,20.47-5.28,7.82-10.92,15.28-16.92,22.38s-12.64,12.73-19.92,16.92c-7.28,4.18-15.83,5.73-25.65,4.64,24.38-9.82,35.93-15.83,34.66-18.01s-14.28,0-39.02,6.55c4.73-2.55,9.37-5.09,13.92-7.64s9.19-5.09,13.92-7.64c-6.91-1.09-14.1-2.18-21.56-3.27s-14.65-.82-21.56.82-12.73,5.37-17.46,11.19c-7.64-2.55-15.1-3.27-22.38-2.18,7.28,3.27,14.65,6.46,22.1,9.55,7.46,3.09,14.83,6.28,22.1,9.55-19.28-2.18-38.75-6-58.4-11.46,4,2.55,7.91,5.28,11.73,8.19s7.91,5.28,12.28,7.1c8.37-.73,16.56-.73,24.56,0s15.65,4.18,22.92,10.37c-6.55-4.73-13.46-6.28-20.74-4.64s-14.55,1.91-21.83.82c-3.64-.36-7.37-1-11.19-1.91s-7.55-.82-11.19.27c4.73,2.18,8.73,5.64,12.01,10.37-6.91,0-13.83-1.46-20.74-4.37,2.55,1.46,4.18,3.27,4.91,5.46-7.64-2.55-15.28-5.82-22.92-9.82s-13.83-9.64-18.56-16.92c14.55,10.55,30.2,17.46,46.94,20.74-5.46-2.55-11.01-5.09-16.65-7.64-5.64-2.55-11.01-5.09-16.1-7.64,12.37-2.18,25.29-2,38.75.55-13.1-5.46-26.2-10.55-39.3-15.28s-26.2-7.1-39.3-7.1c10.92.73,20.56,5.46,28.93,14.19-9.82.73-19.56-1.18-29.2-5.73s-17.92-10.82-24.83-18.83c5.09,1.82,10.01,2.37,14.74,1.64-7.28-4.37-12.73-10.55-16.37-18.56,7.64,8.73,16.74,15.65,27.29,20.74,10.55,5.09,21.29,7.82,32.2,8.19-10.92-5.82-21.65-11.64-32.2-17.46-10.55-5.82-21.1-11.64-31.66-17.46,3.64,1.09,7.28,2,10.92,2.73s7.28,1.46,10.92,2.18c-2.55-4-4.37-8.19-5.46-12.55,8-.73,15.83.18,23.47,2.73l-17.46-.55c1.82,7.28,5.18,12.73,10.1,16.37,4.91,3.64,10.64,6.28,17.19,7.91s13.1,3.37,19.65,5.18c6.55,1.82,12.37,4.55,17.46,8.19l-10.37,6.55c8.73,1.82,17.46,3.55,26.2,5.18s17.65,3.18,26.74,4.64c-9.82-6.91-20.19-10.55-31.11-10.92,1.09-1.09,2-2.18,2.73-3.27s1.64-2.18,2.73-3.27c-7.28-4.37-12.37-10.37-15.28-18.01,18.92,6.91,38.2,10.37,57.85,10.37-5.82-2.91-7.37-6.73-4.64-11.46,2.73-4.73,7-6.55,12.83-5.46-4-3.27-8.37-4.82-13.1-4.64s-9.1.64-13.1,1.36c-28.02,4.73-55.85,2.18-83.5-7.64,4.73-2.18,10.19-1.91,16.37.82s11.64,3,16.37.82c3.64-1.46,6.37-4.18,8.19-8.19s4.37-6.91,7.64-8.73c2.55,7.64,6.64,12.01,12.28,13.1,5.64,1.09,11.83,1.36,18.56.82s13.01,1,18.83,4.64c-6.55-8-14.65-14.19-24.29-18.56s-18.83-9.1-27.56-14.19c7.64,2.91,16.1,6.82,25.38,11.73s18.56,8.46,27.83,10.64,17.74.73,25.38-4.37c4.37-4,7.28-9.37,8.73-16.1s4.55-12.1,9.28-16.1c-20.01,7.64-40.75,8.55-62.22,2.73-8.73-1.09-17.28-.82-25.65.82s-16.74.64-25.11-3c18.92-3.64,32.11-6.55,39.57-8.73s10.37-4.28,8.73-6.28-6.55-4.91-14.74-8.73-18.47-9.55-30.84-17.19c-3.27,1.82-6.64,3.46-10.1,4.91s-7,2.91-10.64,4.37c9.46,5.46,18.01,12.73,25.65,21.83-9.82-4.73-20.19-7.19-31.11-7.37-10.92-.18-20.92,2.18-30.02,7.1-9.1,4.91-15.28,13.01-18.56,24.29,7.64,1.82,15.37,3.46,23.2,4.91,7.82,1.46,15.74,2.91,23.74,4.37l.55-15.83c8,0,14.92-2.18,20.74-6.55,3.27.36,5.46,2.27,6.55,5.73s.91,6.46-.55,9.01c-2.18,2.91-5.28,4.82-9.28,5.73s-8,1.64-12.01,2.18-7.46,1.82-10.37,3.82-4.37,5.55-4.37,10.64c-6.55-5.46-13.83-8.73-21.83-9.82s-16.19-1.73-24.56-1.91-16.19-1.91-23.47-5.18c8.37,5.09,15.46,11.64,21.29,19.65-22.19-4-41.48-14.01-57.85-30.02-.36-.36,2.73-1.73,9.28-4.09s14.83-5.82,24.83-10.37c10.01-4.55,20.47-10.46,31.38-17.74s20.65-16.01,29.2-26.2,14.46-22.19,17.74-36.02c9.46-15.28,18.56-26.2,27.29-32.75s17.01-10.01,24.83-10.37c7.82-.36,14.83.91,21.01,3.82s11.37,6.19,15.55,9.82,7,6.19,8.46,7.64c-2.91,9.82-2,18.92,2.73,27.29s11.28,15.28,19.65,20.74c-3.64-4-5.46-8.55-5.46-13.64v-14.74c-2.18-11.64-6.64-22.19-13.37-31.66s-14.19-18.65-22.38-27.56-15.28-18.28-21.29-28.11c-6-9.82-9.37-20.74-10.1-32.75,4,3.64,6.64,8.28,7.91,13.92s3.37,10.82,6.28,15.55c2.91,5.09,6.91,9.46,12.01,13.1s9.64,7.82,13.64,12.55c8.37,10.92,14.83,22.83,19.38,35.75,4.55,12.92,11.19,24.83,19.92,35.75,1.46-7.28-.55-14.37-6-21.29s-9.64-14.01-12.55-21.29c-1.82-4.37-3-8.73-3.55-13.1s-2.09-8.55-4.64-12.55c-5.82-7.28-12.1-14.65-18.83-22.1s-12.37-15.46-16.92-24.01-6.46-17.74-5.73-27.56c6.91,15.65,15.55,30.75,25.92,45.3s20.1,29.47,29.2,44.75c9.1,15.28,14.92,31.84,17.46,49.67,2.55,4.37,6.19,8.55,10.92,12.55s9.64,6.91,14.74,8.73c2.18-1.09,2.27-3.73.27-7.91s-4.91-8.73-8.73-13.64-7.46-9.64-10.92-14.19-5.55-7.91-6.28-10.1c4,.36,5.46-1.18,4.37-4.64s-2.73-5.91-4.91-7.37c-9.46-8.73-17.37-18.74-23.74-30.02s-12.28-22.83-17.74-34.66-11.46-22.83-18.01-33.02c6.91,7.28,12.92,15.1,18.01,23.47s10.64,16.46,16.65,24.29,13.55,14.1,22.65,18.83c3.64,14.19,9.28,27.93,16.92,41.21s18.92,23.74,33.84,31.38c-8.37-14.92-18.19-28.93-29.47-42.02,15.28,5.82,27.02,15.92,35.2,30.29,8.19,14.37,14.83,28.65,19.92,42.84-4.73-11.28-12.01-20.92-21.83-28.93,1.46,6.91,4.28,13.55,8.46,19.92s8.28,12.83,12.28,19.38c4,6.55,6.73,13.46,8.19,20.74l.04-.03ZM443.81,358.63c-9.1-9.46-19.1-17.92-30.02-25.38-10.92-7.46-20.92-15.74-30.02-24.83-10.92,10.92-20.92,21.83-30.02,32.75-4-.73-7.91-1.46-11.73-2.18s-7.73-1.64-11.73-2.73c9.82,0,18.65-2.91,26.47-8.73s15.19-11.83,22.1-18.01c-4.73-1.09-9.28-1-13.64.27s-8.91,2.09-13.64,2.46c-3.27-.36-5.82.36-7.64,2.18-2.55,1.82-5.18,4.18-7.91,7.1s-5.73,3.64-9.01,2.18c3.64-5.82,5.37-9.82,5.18-12.01s-4.28-2.37-12.28-.55c-1.46,4.37-2.64,8.91-3.55,13.64s-2.64,9.1-5.18,13.1c5.09,2.55,10.82,4.46,17.19,5.73,6.37,1.27,12.64,1.73,18.83,1.36,6.19,1.82,11.46,5.46,15.83,10.92s8.73,10.37,13.1,14.74c1.46-8,4.73-15.01,9.82-21.01s10.55-11.73,16.37-17.19c-4.37,6.19-8.46,12.55-12.28,19.1s-6.64,13.46-8.46,20.74c-1.09,1.46-2.64,2.55-4.64,3.27s-3.37,1.82-4.09,3.27c6.19,2.18,12.55,3.09,19.1,2.73,6.55-.36,12.73-1.27,18.56-2.73,7.64.73,15.37.82,23.2.27s14.83-3,21.01-7.37c-1.46-2.55-3.18-4.82-5.18-6.82s-3.91-4.09-5.73-6.28h0Z" fill="#dee4e7"></path><path class="cls-31" d="M164.37,8.78c2.91-2.91,6.46-4,10.64-3.27s8.64,2,13.37,3.82c4.73,1.82,9.28,2.91,13.64,3.27,20.01,16.74,33.66,34.2,40.93,52.39,7.27,18.19,9.64,36.2,7.1,54.03s-8.91,34.84-19.1,51.03-22.74,30.65-37.66,43.39c-14.92,12.73-31.02,22.92-48.3,30.56s-34.57,11.92-51.85,12.83-33.2-2.37-47.76-9.82c-14.55-7.46-26.38-19.92-35.48-37.39-.36-4-.73-9.1-1.09-15.28s-.27-12.1.27-17.74,2.27-9.37,5.18-11.19c-1.82-10.19-.45-19.56,4.09-28.11,4.55-8.55,9.91-14.1,16.1-16.65-.73-4.73.91-10.46,4.91-17.19s8.91-12.64,14.74-17.74c5.82-5.09,11.28-8,16.37-8.73.73-7.64,3.82-14.65,9.28-21.01s11.37-11.55,17.74-15.55,11.37-6.19,15.01-6.55c1.82-5.46,5.46-10.64,10.92-15.55,5.46-4.91,11.83-8.37,19.1-10.37s14.55-1.73,21.83.82h.02Z" fill="#ed9610"></path><path class="cls-14" d="M.64,183.43c-1.09-1.82.18-4.37,3.82-7.64,3.64-3.27,7.64-6,12.01-8.19s7.1-2.37,8.19-.55c1.46,2.55.36,4.82-3.27,6.82-3.64,2-6.19,3.55-7.64,4.64-1.82,1.09-4.09,2.64-6.82,4.64s-4.82,2.09-6.28.27h0Z" fill="#ffab2b"></path><path class="cls-25" d="M41.03,167.6c.36,1.82-1.82,3.37-6.55,4.64s-9.46,1.91-14.19,1.91-7.28-.91-7.64-2.73c-.36-2.91,1.46-4.55,5.46-4.91,4-.36,7.1-.55,9.28-.55,2.18-.36,4.82-.82,7.91-1.36s5,.45,5.73,3Z" fill="#ffb545"></path><path class="cls-14" d="M37.21,134.31c-1.82-.73-1.91-3.55-.27-8.46s3.82-9.46,6.55-13.64,5-5.91,6.82-5.18c2.55,1.46,2.73,4,.55,7.64s-3.82,6.55-4.91,8.73c-1.09,1.82-2.27,4.37-3.55,7.64-1.28,3.27-3,4.37-5.18,3.27h0ZM24.65,149.59c1.46-1.46,3.91-.82,7.37,1.91,3.46,2.73,6.46,6.09,9.01,10.1s3.09,6.73,1.64,8.19c-2.18,2.18-4.46,1.73-6.82-1.36-2.37-3.09-4.28-5.37-5.73-6.82-1.09-1.82-2.82-3.73-5.18-5.73s-2.46-4.09-.27-6.28h-.02Z" fill="#ffab2b"></path><path class="cls-25" d="M18.11,140.86c1.82-.73,3.82.91,6,4.91s3.64,8.37,4.37,13.1,0,7.46-2.18,8.19c-2.91.73-4.82-.82-5.73-4.64s-1.55-6.64-1.91-8.46c-.73-1.82-1.64-4.18-2.73-7.1s-.36-4.91,2.18-6ZM47.58,163.78c-1.82,0-3.18-2.37-4.09-7.1s-1.09-9.46-.55-14.19,1.91-7.1,4.09-7.1c2.91,0,4.28,2,4.09,6s-.27,7.1-.27,9.28.18,4.91.55,8.19-.91,4.91-3.82,4.91h0Z" fill="#ffb545"></path><path class="cls-23" d="M1.19,198.17c-1.82-1.09-1.55-3.64.82-7.64,2.37-4,5.28-7.55,8.73-10.64s6.09-4.09,7.91-3c2.55,1.82,2.46,4.18-.27,7.1s-4.82,5.09-6.28,6.55-3.09,3.46-4.91,6-3.82,3.09-6,1.64h0Z" fill="#ffc161"></path><path class="cls-25" d="M33.39,133.77c-.73-1.82,1.36-3.55,6.28-5.18s9.82-2.64,14.74-3,7.55.36,7.91,2.18c.73,3.27-1.09,5.18-5.46,5.73s-7.46.82-9.28.82c-2.18.36-5,1-8.46,1.91s-5.37.09-5.73-2.46h0Z" fill="#ffb545"></path><path class="cls-14" d="M8.28,140.32c0-2.18,2.37-3.18,7.1-3s9.37.91,13.92,2.18,6.64,3,6.28,5.18c-.73,3.27-3,4.37-6.82,3.27s-6.64-1.82-8.46-2.18-4.37-.64-7.64-.82-4.73-1.73-4.37-4.64h-.01Z" fill="#ffab2b"></path><path class="cls-25" d="M135.99,75.37c-1.46,1.46-3.55.27-6.28-3.55s-5-8.1-6.82-12.83c-1.82-4.73-1.82-7.64,0-8.73,2.18-2.18,4.09-1.36,5.73,2.46s3,6.64,4.09,8.46c.73,2.18,2,4.64,3.82,7.37s1.64,5-.55,6.82h0Z" fill="#ffb545"></path><path class="cls-14" d="M96.15,62.27c-.73-1.46.91-3.73,4.91-6.82s8.28-5.55,12.83-7.37,7.37-1.82,8.46,0c1.09,2.91-.27,5.18-4.09,6.82s-6.64,3-8.46,4.09-4.18,2.55-7.1,4.37c-2.92,1.82-5.09,1.46-6.55-1.09ZM81.42,67.18c-1.82.73-3.37-.73-4.64-4.37s-1.91-7.46-1.91-11.46.91-6.37,2.73-7.1c2.55-1.09,4,.09,4.37,3.55s.55,6.09.55,7.91c.36,1.46.91,3.55,1.64,6.28s-.18,4.46-2.73,5.18h-.01Z" fill="#ffab2b"></path><path class="cls-23" d="M72.14,105.93c-1.82,0-2.64-2-2.46-6s.91-8,2.18-12.01,2.82-5.82,4.64-5.46c2.55,0,3.37,1.73,2.46,5.18s-1.55,6.09-1.91,7.91c-.36,1.46-.64,3.64-.82,6.55s-1.55,4.18-4.09,3.82h0ZM75.41,60.09c-1.09-1.46-.09-3.55,3-6.28s6.46-5,10.1-6.82,6-1.82,7.1,0c1.09,2.18.18,4.18-2.73,6s-5.09,3.09-6.55,3.82c-1.46,1.09-3.27,2.46-5.46,4.09s-4,1.36-5.46-.82h0Z" fill="#ffc161"></path><path class="cls-23" d="M118.53,61.18c-.73,1.82-3.27,2-7.64.55s-8.37-3.64-12.01-6.55-5.09-5.28-4.37-7.1c1.82-2.91,4.28-3.27,7.37-1.09s5.55,3.64,7.37,4.37c1.82,1.09,4.18,2.27,7.1,3.55s3.64,3.37,2.18,6.28h0Z" fill="#ffc161"></path><path class="cls-14" d="M68.86,110.84c-.73,2.18-3.46,2.82-8.19,1.91s-9.19-2.37-13.37-4.37-5.91-4.09-5.18-6.28c.73-2.91,3-3.64,6.82-2.18s6.64,2.55,8.46,3.27,4.37,1.46,7.64,2.18c3.27.72,4.55,2.55,3.82,5.46h0ZM69.41,99.93c-.73,1.82-3.37,2.18-7.91,1.09s-8.91-2.91-13.1-5.46-5.91-4.73-5.18-6.55c1.09-3.27,3.46-4,7.1-2.18s6.37,3.27,8.19,4.37c1.82.73,4.37,1.64,7.64,2.73s4.37,3.09,3.27,6h0Z" fill="#ffab2b"></path><path class="cls-25" d="M76.5,84.1c0,2.18-2.46,3.73-7.37,4.64s-9.73,1-14.46.27-7.1-2.18-7.1-4.37c0-2.91,2.09-4.28,6.28-4.09,4.18.18,7.19.27,9.01.27,2.18,0,5-.18,8.46-.55s5.18.91,5.18,3.82h0ZM129.99,43.71c0,2.18-2.55,3.73-7.64,4.64s-10.1,1-15.01.27-7.37-2-7.37-3.82c0-3.27,2.09-4.82,6.28-4.64s7.37.27,9.55.27,5-.09,8.46-.27,5.37,1,5.73,3.55ZM114.16,87.92c-1.82,1.46-4.09.18-6.82-3.82s-4.82-8.37-6.28-13.1-1.27-7.82.55-9.28c2.55-1.82,4.64-.73,6.28,3.27,1.64,4,2.82,6.91,3.55,8.73.73,2.18,1.91,4.73,3.55,7.64s1.36,5.09-.82,6.55h-.01Z" fill="#ffb545"></path><path class="cls-25" d="M102.7,95.02c-1.82,1.09-3.91-.55-6.28-4.91s-3.91-9.1-4.64-14.19,0-8,2.18-8.73c2.91-1.46,4.82-.09,5.73,4.09s1.73,7.19,2.46,9.01c.36,2.18,1.27,4.82,2.73,7.91s.73,5.37-2.18,6.82Z" fill="#ffb545"></path><path class="cls-23" d="M148,51.9c-.36,2.18-2.91,3.09-7.64,2.73s-9.19-1.36-13.37-3-6.09-3.55-5.73-5.73c.73-3.27,2.91-4.28,6.55-3s6.37,2.09,8.19,2.46c2.18.73,4.82,1.36,7.91,1.91s4.46,2.09,4.09,4.64h0Z" fill="#ffc161"></path><path class="cls-25" d="M88.51,95.56c1.46,1.82.27,4.55-3.55,8.19s-8,6.64-12.55,9.01-7.37,2.82-8.46,1.36c-1.82-2.55-.91-5,2.73-7.37,3.64-2.37,6.37-4.09,8.19-5.18,1.82-1.46,4.18-3.37,7.1-5.73s5.09-2.46,6.55-.27h-.01Z" fill="#ffb545"></path><path class="cls-23" d="M146.36,34.43c0,2.18-2.46,3.91-7.37,5.18s-10.01,1.82-15.28,1.64c-5.28-.18-7.91-1.36-7.91-3.55,0-2.91,2.09-4.46,6.28-4.64,4.18-.18,7.37-.45,9.55-.82,2.18,0,5.09-.36,8.73-1.09s5.64.36,6,3.27h0Z" fill="#ffc161"></path><path class="cls-14" d="M188.93,3.87c.73,1.46-.73,3.27-4.37,5.46-3.64,2.19-7.46,3.73-11.46,4.64s-6.19.64-6.55-.82c-1.09-2.55,0-4.37,3.27-5.46s5.82-2,7.64-2.73c1.46-.36,3.46-1.18,6-2.46s4.37-.82,5.46,1.36h0Z" fill="#ffab2b"></path><path class="cls-25" d="M154.55,36.62c-1.46.73-3.18-.64-5.18-4.09s-3.46-7.37-4.37-11.73-.64-6.91.82-7.64c2.18-1.09,3.82.09,4.91,3.55s1.82,5.91,2.18,7.37c.73,1.82,1.64,4,2.73,6.55s.73,4.55-1.09,6h0Z" fill="#ffb545"></path><path class="cls-14" d="M144.18,20.24c.73,1.82-.82,4.46-4.64,7.91s-8,6.28-12.55,8.46-7.37,2.37-8.46.55c-1.09-2.91.18-5.46,3.82-7.64s6.37-3.82,8.19-4.91,4.18-2.73,7.1-4.91,5.09-2,6.55.55h-.01ZM135.45,70.46c-.73,1.82-3.73,2.64-9.01,2.46-5.28-.18-10.28-1.09-15.01-2.73s-6.73-3.55-6-5.73c1.09-2.91,3.73-3.82,7.91-2.73s7.19,1.82,9.01,2.18c2.18.73,5.09,1.27,8.73,1.64s5.09,2,4.37,4.91ZM156.19,33.89c-2.18-.73-2.91-3.64-2.18-8.73s2.09-10.01,4.09-14.74,4.09-6.55,6.28-5.46c2.91,1.46,3.64,4.18,2.18,8.19s-2.55,6.91-3.27,8.73c-.73,2.18-1.46,5-2.18,8.46-.72,3.46-2.37,4.64-4.91,3.55h0Z" fill="#ffab2b"></path><path class="cls-25" d="M90.69,76.46c-1.82-.36-2.46-3.18-1.91-8.46s1.73-10.46,3.55-15.55,3.64-7.28,5.46-6.55c2.55.73,3.18,3.27,1.91,7.64s-2.09,7.64-2.46,9.82c-.73,2.18-1.36,5.09-1.91,8.73s-2.09,5.09-4.64,4.37Z" fill="#ffb545"></path><path class="cls-25" d="M89.6,42.62c-.36-1.82,1.82-3.82,6.55-6s9.55-3.64,14.46-4.37,7.55,0,7.91,2.18c.36,2.91-1.55,4.82-5.73,5.73s-7.37,1.73-9.55,2.46c-2.18.36-4.91,1.18-8.19,2.46s-5.09.45-5.46-2.46h.01Z" fill="#ffb545"></path><path class="cls-14" d="M78.69,94.47c-1.09-1.82,0-4.73,3.27-8.73s7.1-7.46,11.46-10.37,7.1-3.46,8.19-1.64c1.82,2.18,1,4.64-2.46,7.37s-6.09,4.82-7.91,6.28-4,3.46-6.55,6-4.55,2.91-6,1.09ZM149.09,44.8c-1.46,1.09-3.09-.18-4.91-3.82s-3.18-7.46-4.09-11.46-.64-6.55.82-7.64c1.82-1.09,3.27.09,4.37,3.55s1.82,5.91,2.18,7.37c.73,1.82,1.64,4,2.73,6.55s.73,4.37-1.09,5.46h0ZM157.28,15.33c-.73,1.46-2.91,1.64-6.55.55s-7-2.82-10.1-5.18-4.28-4.46-3.55-6.28c.73-2.55,2.55-2.91,5.46-1.09,2.91,1.82,5.09,3.09,6.55,3.82s3.37,1.64,5.73,2.73,3.18,2.91,2.46,5.46h0Z" fill="#ffab2b"></path><path class="cls-25" d="M169.83,4.42c.36,1.82-1.46,3-5.46,3.55-4,.55-7.91.45-11.73-.27s-5.73-2-5.73-3.82c0-2.91,1.64-4.18,4.91-3.82s5.82.55,7.64.55c1.46.36,3.55.45,6.28.27s4.09,1,4.09,3.55h0ZM132.17,19.7c.73,1.46-.73,3.46-4.37,6s-7.55,4.55-11.73,6-6.64,1.27-7.37-.55c-1.09-2.91,0-5,3.27-6.28s5.82-2.27,7.64-3,4.09-1.91,6.82-3.55,4.64-1.18,5.73,1.36v.02Z" fill="#ffb545"></path><path class="cls-23" d="M144.73,15.33c0,2.18-2.09,3.46-6.28,3.82s-8.37,0-12.55-1.09c-4.18-1.09-6.28-2.73-6.28-4.91,0-2.91,1.82-4.09,5.46-3.55,3.64.55,6.37,1,8.19,1.36s4.18.55,7.1.55,4.37,1.27,4.37,3.82h0ZM101.06,89.56c1.46,1.82.18,4.46-3.82,7.91s-8.28,6.46-12.83,9.01-7.37,2.91-8.46,1.09c-1.82-2.55-.82-4.91,3-7.1s6.64-4,8.46-5.46c1.82-1.09,4.18-2.82,7.1-5.18s5.09-2.46,6.55-.27Z" fill="#ffc161"></path><path class="cls-19" d="M135.45,41.53c.73-.36,2.73.36,6,2.18s6.37,4.37,9.28,7.64,4,6.91,3.27,10.92c-1.09,5.09-4,8.28-8.73,9.55s-9.28,1.46-13.64.55-6.55-1.73-6.55-2.46.91-1.55,2.73-2.46,2.18-1.36,1.09-1.36c-1.46.36-3,.36-4.64,0s-2.09-1.27-1.36-2.73c.36-1.09,1.36-1.91,3-2.46s1.91-1,.82-1.36c-3.27-.73-4.64-2.18-4.09-4.37s2.46-2.91,5.73-2.18c1.46.36,1.73-.27.82-1.91s-1.18-3-.82-4.09c.36-1.46,1.18-1.91,2.46-1.36s2.46,1,3.55,1.36c1.09.73,1.27.18.55-1.64s-.55-3.09.55-3.82h-.02Z" fill="#5fb300"></path><path class="cls-32" d="M145.82,60.63c-.73.36-2.09,1.27-4.09,2.73-2,1.46-4.09,3.64-6.28,6.55,1.46-2.91,3.09-5.09,4.91-6.55s3.09-2.55,3.82-3.27c-4.37-1.09-9.1-2.37-14.19-3.82,2.55.36,5,.82,7.37,1.36s4.82,1,7.37,1.36c-.36-.73-1-2.09-1.91-4.09s-1.18-4.82-.82-8.46c0,3.64.55,6.55,1.64,8.73s2,3.64,2.73,4.37c2.91.73,5.46,1.27,7.64,1.64l-.55,2.18c-1.09-.36-2.27-.82-3.55-1.36s-2.64-1-4.09-1.36h0Z" fill="#559e00"></path><path class="cls-19" d="M67.77,104.29c1.46,0,2.37.73,2.73,2.18s.55,2.91.55,4.37c0,.36.45-.55,1.36-2.73s2.27-2.37,4.09-.55c1.09,1.46,2.27,4.46,3.55,9.01s.27,9.19-3,13.92c-2.91,4-7.28,6.28-13.1,6.82s-10.01-.27-12.55-2.46c-1.46-1.46-1.09-2.64,1.09-3.55s2.91-1.36,2.18-1.36c-6.19.73-8.73-.36-7.64-3.27.36-.73,1.55-1.18,3.55-1.36s2.64-.27,1.91-.27c-1.46-.73-2.82-1.55-4.09-2.46s-1.55-1.91-.82-3c1.09-.73,2.46-1,4.09-.82s2.09-.09,1.36-.82c-2.55-1.82-3.18-3.73-1.91-5.73s3.37-1.91,6.28.27c.73.73,1.09.18,1.09-1.64s.36-3.27,1.09-4.37c1.09-1.09,2.73-.18,4.91,2.73.73,1.09,1.18.64,1.36-1.36s.82-3.18,1.91-3.55h0Z" fill="#5fb300"></path><path class="cls-32" d="M70.5,126.13c-1.09,0-2.82.27-5.18.82s-5,1.91-7.91,4.09c2.55-2.18,4.91-3.64,7.1-4.37s3.82-1.09,4.91-1.09c-2.18-1.82-4.18-3.46-6-4.91s-3.82-2.91-6-4.37c3.64,2.18,7.82,4.91,12.55,8.19-.36-1.09-.45-2.73-.27-4.91s1-4.91,2.46-8.19c-1.09,3.64-1.55,6.64-1.36,9.01s.27,3.91.27,4.64c1.09.73,2.18,1.55,3.27,2.46,1.09.91,2.18,1.73,3.27,2.46l-1.09,1.09c-1.09-.73-2.09-1.55-3-2.46s-1.91-1.73-3-2.46h-.02Z" fill="#559e00"></path><path class="cls-23" d="M37.21,118.48c-1.82,0-2.64-2.37-2.46-7.1s1.09-9.46,2.73-14.19,3.37-6.91,5.18-6.55c3.27.36,4.37,2.46,3.27,6.28s-2,6.82-2.73,9.01c-.36,2.18-.73,4.82-1.09,7.91s-2,4.64-4.91,4.64h0Z" fill="#ffc161"></path><path class="cls-14" d="M68.86,90.1c-1.46-1.46-.64-4.09,2.46-7.91s6.73-7,10.92-9.55,6.82-3.09,7.91-1.64c1.82,2.18,1.09,4.55-2.18,7.1s-5.64,4.55-7.1,6c-1.82,1.09-3.91,2.82-6.28,5.18s-4.28,2.64-5.73.82Z" fill="#ffab2b"></path><path class="cls-23" d="M92.33,66.64c1.09,1.82-.45,3.82-4.64,6s-8.73,3.73-13.64,4.64-7.91.45-9.01-1.36c-1.46-2.55-.18-4.37,3.82-5.46s7.1-2,9.28-2.73c1.82-.36,4.28-1.18,7.37-2.46s5.37-.82,6.82,1.36h0Z" fill="#ffc161"></path><path class="cls-25" d="M31.75,145.23c-2.18.73-3.91-1-5.18-5.18s-1.82-8.73-1.64-13.64,1.36-7.73,3.55-8.46c3.27-.73,5,.82,5.18,4.64s.27,6.82.27,9.01c.36,1.82.82,4.28,1.36,7.37s-.64,5.18-3.55,6.28v-.02Z" fill="#ffb545"></path><path class="cls-23" d="M42.67,163.78c-2.18.73-4-1-5.46-5.18s-2.27-8.73-2.46-13.64.64-7.73,2.46-8.46c3.27-.73,5.09.91,5.46,4.91s.73,6.91,1.09,8.73c.36,2.18.91,4.82,1.64,7.91s-.18,5-2.73,5.73ZM18.65,169.24c-1.46,1.09-3.09-.18-4.91-3.82-1.82-3.64-3.09-7.46-3.82-11.46s-.18-6.37,1.64-7.1c2.55-1.09,4.18,0,4.91,3.27s1.27,5.82,1.64,7.64c.73,1.46,1.64,3.46,2.73,6s.36,4.37-2.18,5.46h-.01Z" fill="#ffc161"></path><path class="cls-21" d="M92.33,99.38c4.37,1.09,6.82,3.91,7.37,8.46s-.09,9.28-1.91,14.19-4.46,8.91-7.91,12.01-7,3.91-10.64,2.46c-5.09-1.46-7.73-3.64-7.91-6.55s.55-5.82,2.18-8.73,2.82-5.28,3.55-7.1c1.09-1.82,1.82-4.18,2.18-7.1s1.46-5.28,3.27-7.1,5.09-2,9.82-.55h0ZM112.53,91.74c-2.18-3.64-2.09-7.19.27-10.64s6-6.28,10.92-8.46c4.92-2.18,9.73-3.18,14.46-3s8.19,2.09,10.37,5.73c2.55,4.73,3,8.19,1.36,10.37s-4.18,3.64-7.64,4.37-6.09,1.46-7.91,2.18-3.91,1.91-6.28,3.55-4.82,2.46-7.37,2.46-5.28-2.18-8.19-6.55h.01ZM45.94,187.25c-4-1.46-6.09-4.46-6.28-9.01s.82-9.19,3-13.92,5.09-8.55,8.73-11.46,7.28-3.46,10.92-1.64c5.09,2.18,7.64,4.73,7.64,7.64s-1,5.73-3,8.46-3.55,5-4.64,6.82c-.73,1.46-1.46,3.64-2.18,6.55s-2.09,5.18-4.09,6.82-5.37,1.55-10.1-.27h0Z" fill="#36273d"></path><path class="cls-20" d="M31.75,224.91c-3.64,2.18-7.28,1.91-10.92-.82-3.64-2.73-6.82-6.64-9.55-11.73s-4.18-10.01-4.37-14.74,1.36-8,4.64-9.82c4.37-2.55,7.73-2.82,10.1-.82s4.09,4.73,5.18,8.19,2.18,6.09,3.27,7.91c.73,1.82,2,4,3.82,6.55s2.91,5.18,3.27,7.91-1.46,5.18-5.46,7.37h.02Z" fill="#44374b"></path><path class="cls-17" d="M200.4,8.78c2.55,3.64,2.73,7.28.55,10.92s-5.55,6.73-10.1,9.28-9.19,3.91-13.92,4.09-8.19-1.36-10.37-4.64c-3.27-4.37-4.09-7.73-2.46-10.1s4.09-4.09,7.37-5.18,5.64-2,7.1-2.73c1.82-1.09,3.82-2.55,6-4.37s4.64-2.82,7.37-3,5.55,1.73,8.46,5.73Z" fill="#51475a"></path><path class="cls-21" d="M173.11,30.61c2.18,4,1.91,7.64-.82,10.92s-6.55,5.82-11.46,7.64-9.73,2.55-14.46,2.18-8-2.37-9.82-6c-2.55-4.73-2.91-8.1-1.09-10.1s4.46-3.37,7.91-4.09,6.09-1.27,7.91-1.64c1.82-.73,3.91-1.82,6.28-3.27s4.91-2.18,7.64-2.18,5.37,2.18,7.91,6.55h0Z" fill="#36273d"></path><path class="cls-20" d="M176.93,27.34c4,1.82,6.09,5,6.28,9.55s-.91,9.1-3.27,13.64-5.37,8.19-9.01,10.92c-3.64,2.73-7.28,3.18-10.92,1.36-5.09-2.55-7.55-5.28-7.37-8.19s1.27-5.64,3.27-8.19,3.55-4.73,4.64-6.55c.73-1.46,1.55-3.64,2.46-6.55s2.37-5.09,4.37-6.55,5.18-1.27,9.55.55h0Z" fill="#44374b"></path><path class="cls-17" d="M158.92,42.62c4.37,1.09,7,3.82,7.91,8.19s.64,9.1-.82,14.19-3.73,9.28-6.82,12.55-6.64,4.37-10.64,3.27c-5.09-1.46-7.91-3.64-8.46-6.55s0-5.91,1.64-9.01,2.64-5.55,3-7.37c.73-1.82,1.27-4.18,1.64-7.1s1.36-5.28,3-7.1,4.82-2.18,9.55-1.09v.02ZM15.38,194.35c-2.18-3.64-2.09-7.19.27-10.64,2.36-3.45,5.91-6.37,10.64-8.73s9.46-3.46,14.19-3.27,8.19,1.91,10.37,5.18c2.91,4.73,3.46,8.19,1.64,10.37s-4.37,3.73-7.64,4.64-5.82,1.73-7.64,2.46-3.91,1.91-6.28,3.55-4.82,2.55-7.37,2.73-5.28-1.91-8.19-6.28h.01ZM90.15,144.14c.36,4-1.46,6.82-5.46,8.46s-8.82,2.09-14.46,1.36-10.55-2.27-14.74-4.64c-4.18-2.37-6.46-5.55-6.82-9.55,0-5.46,1.36-8.55,4.09-9.28s5.82-.64,9.28.27c3.46.91,6.28,1.55,8.46,1.91,1.82.36,4.28.45,7.37.27s5.82.36,8.19,1.64,3.73,4.46,4.09,9.55h0Z" fill="#51475a"></path><path class="cls-20" d="M115.8,113.57c3.27,3.27,4,7,2.18,11.19s-4.91,8-9.28,11.46-9.01,5.64-13.92,6.55-8.82-.27-11.73-3.55c-4-4-5.28-7.37-3.82-10.1s3.73-5,6.82-6.82,5.55-3.27,7.37-4.37c1.46-1.09,3.27-2.82,5.46-5.18s4.64-3.82,7.37-4.37,5.91,1.18,9.55,5.18h0Z" fill="#44374b"></path><path class="cls-17" d="M113.07,125.58c-4.37.73-7.82-.73-10.37-4.37s-4.28-8.19-5.18-13.64-.73-10.46.55-15.01,3.91-7.19,7.91-7.91c5.09-.73,8.37.18,9.82,2.73s2.18,5.64,2.18,9.28.18,6.37.55,8.19c0,2.18.55,4.73,1.64,7.64s1.27,5.64.55,8.19-3.27,4.18-7.64,4.91h-.01Z" fill="#51475a"></path><path class="cls-20" d="M129.44,129.4c-4.73-.36-7.73-1.82-9.01-4.37s-1.82-5.28-1.64-8.19.09-5.46-.27-7.64c-.36-1.82-1.09-4.46-2.18-7.91s-1.18-6.55-.27-9.28,3.91-4.09,9.01-4.09c4,.36,7.28,2.64,9.82,6.82s4.09,9.1,4.64,14.74.09,10.46-1.36,14.46-4.37,5.82-8.73,5.46h-.01Z" fill="#44374b"></path><path class="cls-17" d="M105.17,154.13c3.27,3.27,7,4,11.19,2.18s8-4.91,11.46-9.28,5.64-9.01,6.55-13.92-.27-8.82-3.55-11.73c-4-4-7.37-5.28-10.1-3.82s-5,3.73-6.82,6.82-3.27,5.55-4.37,7.37c-1.09,1.46-2.82,3.27-5.18,5.46s-3.82,4.64-4.37,7.37,1.18,5.91,5.18,9.55h.01Z" fill="#51475a"></path><path class="cls-21" d="M102.16,176.88c-4.73,1.09-7.91.55-9.55-1.64s-2.64-4.73-3-7.64-.73-5.46-1.09-7.64c-.73-1.82-1.82-4.37-3.27-7.64s-2-6.37-1.64-9.28,2.91-5.09,7.64-6.55c4-1.09,7.46.18,10.37,3.82s5.09,8.1,6.55,13.37,1.82,10.19,1.09,14.74-3.09,7.37-7.1,8.46h0Z" fill="#36273d"></path><path class="cls-19" d="M146.36,69.91c1.46-.36,2.55.18,3.27,1.64l2.18,4.37c.36.73.82-.45,1.36-3.55s1.73-3.55,3.55-1.36c8,9.82,10.73,18.37,8.19,25.65s-11.46,11.1-26.74,11.46c-2.91,0-3.18-1.18-.82-3.55s3.18-3.37,2.46-3c-2.91,1.09-5.28,1.36-7.1.82s-2.73-1.36-2.73-2.46c.36-1.09,1.64-2,3.82-2.73s2.73-1.09,1.64-1.09c-1.82,0-3.64-.36-5.46-1.09s-2.37-1.82-1.64-3.27c.73-1.09,2.09-1.73,4.09-1.91s2.46-.64,1.36-1.36c-3.64-1.46-5-3.46-4.09-6s3.18-2.91,6.82-1.09c1.46.73,1.82,0,1.09-2.18s-.73-3.82,0-4.91c.36-1.46,1.18-1.82,2.46-1.09s2.64,1.64,4.09,2.73c1.09.73,1.36,0,.82-2.18s-.09-3.46,1.36-3.82l.02-.03Z" fill="#5fb300"></path><path class="cls-32" d="M156.19,93.38c-.73.36-2.46,1.09-5.18,2.18s-5.37,3.09-7.91,6c2.18-2.91,4.37-5.09,6.55-6.55s3.82-2.37,4.91-2.73c-4.73-1.82-10.19-4.18-16.37-7.1,1.82.73,4.73,1.82,8.73,3.27s7.91,2.91,11.73,4.37,6.09,2.37,6.82,2.73l-.55,2.18c-1.46-.73-2.91-1.46-4.37-2.18s-2.91-1.46-4.37-2.18h0Z" fill="#559e00"></path><path class="cls-19" d="M84.14,147.41c1.82.36,2.73,1.46,2.73,3.27s-.18,3.46-.55,4.91c0,.73.82,0,2.46-2.18s3-2,4.09.55c1.09,2.18,1.82,6.09,2.18,11.73s-1.82,10.64-6.55,15.01c-4,3.64-9.37,4.73-16.1,3.27s-11.19-3.82-13.37-7.1c-1.46-2.18-.82-3.46,1.91-3.82s3.55-.55,2.46-.55c-3.27-.73-5.55-1.73-6.82-3s-1.55-2.46-.82-3.55c.73-.73,2.18-.82,4.37-.27s2.91.45,2.18-.27c-1.46-.73-2.82-1.91-4.09-3.55s-1.18-2.82.27-3.55c1.09-.73,2.55-.73,4.37,0s2.37.55,1.64-.55c-2.55-2.91-2.82-5.28-.82-7.1s4.28-.91,6.82,2.73c.73,1.09,1.27.55,1.64-1.64s1.09-3.64,2.18-4.37c1.46-1.09,2.55-1,3.27.27s1.46,2.64,2.18,4.09c.36,1.46.91,1,1.64-1.36s1.64-3.37,2.73-3v.03Z" fill="#5fb300"></path><path class="cls-32" d="M81.96,173.06c-1.09,0-3-.18-5.73-.55s-6.09.18-10.1,1.64c3.27-1.82,6.28-2.73,9.01-2.73s4.64.18,5.73.55c-1.82-2.55-3.64-5-5.46-7.37s-3.64-4.82-5.46-7.37c2.18,2.18,4.28,4.46,6.28,6.82s3.91,4.64,5.73,6.82c0-1.09.27-2.91.82-5.46s2.09-5.28,4.64-8.19c-2.18,3.27-3.46,6.37-3.82,9.28s-.55,4.91-.55,6c2.18,2.55,4.18,4.91,6,7.1l-1.64,1.64c-.73-1.46-1.55-2.82-2.46-4.09s-1.91-2.64-3-4.09h0Z" fill="#559e00"></path><path class="cls-27" d="M137.63,126.13c2.18-.73,6.73.82,13.64,4.64,6.91,3.82,13.64,11.01,20.19,21.56.36.73-1.73,2.37-6.28,4.91s-9.91,5.28-16.1,8.19-11.73,5.37-16.65,7.37-7.37,2.82-7.37,2.46c-6.19-2.91-9.1-7.1-8.73-12.55s2.64-11.37,6.82-17.74c4.18-6.37,9.01-12.64,14.46-18.83h.02Z" fill="#4a2710"></path><path class="cls-22" d="M115.25,156.69c1.09-1.82,2.91-5,5.46-9.55,2.55-4.55,5.37-9.01,8.46-13.37s5.91-6.91,8.46-7.64c1.82-.36,4.37.91,7.64,3.82,0,0-2.46,2.55-7.37,7.64s-11.37,11.64-19.38,19.65c-.36.73.82-.18,3.55-2.73s6-5.55,9.82-9.01,7.28-6.46,10.37-9.01,4.64-3.82,4.64-3.82c.36,0-1.18,1.73-4.64,5.18s-6.55,6.64-9.28,9.55-3.37,3.82-1.91,2.73c3.27-2.91,6.82-6.19,10.64-9.82s5.73-5.28,5.73-4.91c.36.36,1.09,1,2.18,1.91s1.64,1.55,1.64,1.91c.36.36-1,2-4.09,4.91s-6,5.73-8.73,8.46-3.91,3.91-3.55,3.55c4.37-3.64,8.1-6.73,11.19-9.28s4.82-3.46,5.18-2.73c0,0-5.09,5.46-15.28,16.37-.73.36.36-.55,3.27-2.73s5.91-4.46,9.01-6.82,4.46-3.55,4.09-3.55c-.73,2.18-2.64,5.37-5.73,9.55s-6.28,8.19-9.55,12.01-5.64,6.28-7.1,7.37c-1.46.73-3.64.18-6.55-1.64-2.91-1.82-5.37-4.37-7.37-7.64s-2.27-6.73-.82-10.37h.02Z" fill="#8c4f32"></path><path class="cls-28" d="M48.12,186.71c2.18,0,5.64,3.64,10.37,10.92s7.64,15.46,8.73,24.56c.36.36-1.09,1.91-4.37,4.64s-7.37,5-12.28,6.82-10.19,2.27-15.83,1.36-10.82-4.46-15.55-10.64c-6.19-7.64-5.55-14.65,1.91-21.01,7.46-6.37,16.46-11.92,27.02-16.65h0Z" fill="#6f3b17"></path><path class="cls-26" d="M18.11,204.17c1.09-.73,3.55-2.64,7.37-5.73s7.91-5.91,12.28-8.46,7.82-3.64,10.37-3.27c1.82.36,3.46,2.37,4.91,6,.36.36-2.18,1.73-7.64,4.09s-12.73,5.91-21.83,10.64c-.73.36.45,0,3.55-1.09s6.73-2.46,10.92-4.09,7.91-3.09,11.19-4.37,4.91-1.91,4.91-1.91c0,0-1.46.82-4.37,2.46s-6.19,3.46-9.82,5.46-6.55,3.64-8.73,4.91-2.55,1.55-1.09.82c4-1.09,8.82-2.91,14.46-5.46s8.46-3.64,8.46-3.27c.36.36.55,2,.55,4.91s-.18,4.55-.55,4.91c-1.46,1.46-4.28,3.46-8.46,6s-8.46,4.82-12.83,6.82-7.28,3-8.73,3c-1.46.36-3.09-.82-4.91-3.55s-3-5.91-3.55-9.55.64-6.73,3.55-9.28h0Z" fill="#b36540"></path><path class="cls-30" d="M52.49,177.43c1.09-1.82,5.46-2.55,13.1-2.18,7.64.37,16.74,3.64,27.29,9.82.73.36.82,3.37.27,9.01s-1.46,11.46-2.73,17.46-2.09,9.37-2.46,10.1c-1.46,2.55-4,4.18-7.64,4.91s-7.19,1.18-10.64,1.36-5.37.27-5.73.27c-6.91,0-11.46-2.73-13.64-8.19s-2.91-12.1-2.18-19.92,2.18-15.37,4.37-22.65h0Z" fill="#542c12"></path><path class="cls-24" d="M47.58,211.81v-9.55c0-4.91.27-9.91.82-15.01s1.91-8.37,4.09-9.82c1.46-1.46,4.18-1.64,8.19-.55,0,0-.91,3.27-2.73,9.82s-4.18,14.74-7.1,24.56c0,.73.55-.55,1.64-3.82s2.55-7.19,4.37-11.73,3.37-8.55,4.64-12.01,1.91-5.18,1.91-5.18c.36,0-.09,2.18-1.36,6.55s-2.46,8.37-3.55,12.01-1.27,4.55-.55,2.73c1.82-4,3.37-8.28,4.64-12.83s2.09-6.64,2.46-6.28c.36,0,1.27.18,2.73.55s2.37.73,2.73,1.09l-1.64,5.73c-1.09,3.82-2.18,7.46-3.27,10.92s-1.46,4.82-1.09,4.09c1.82-4.73,3.46-8.82,4.91-12.28s2.37-5,2.73-4.64c.36,0-1.27,6.73-4.91,20.19,0,.73.64-.45,1.91-3.55s2.55-6.28,3.82-9.55,1.91-4.73,1.91-4.37c.36,1.82.27,5.18-.27,10.1s-1.27,9.73-2.18,14.46-1.91,7.64-3,8.73c-.73,1.46-2.82,2-6.28,1.64s-6.82-1.55-10.1-3.55-5.09-4.82-5.46-8.46h-.01Z" fill="#9c5838"></path><path class="cls-15" d="M75.41,201.44c0-.73,1.27-3.46,3.82-8.19s5.09-9.46,7.64-14.19,4.18-7.28,4.91-7.64c.73,0,2.82,1.27,6.28,3.82s5.18,4.18,5.18,4.91c.36.73.55,3.37.55,7.91s-.18,7.37-.55,8.46-3,3.09-7.91,6-7.91,4.37-9.01,4.37c-1.09.36-3.18-.27-6.28-1.91s-4.64-2.82-4.64-3.55h.01Z" fill="#d6b894"></path><path class="cls-1" d="M75.41,201.44c0-.36.18-2.09.55-5.18s.73-6.28,1.09-9.55.55-5.09.55-5.46c.36-.73,2.73-2.55,7.1-5.46s6.73-4.37,7.1-4.37c0,.36-.09,2-.27,4.91s-.45,5.91-.82,9.01-.55,4.82-.55,5.18c-.36.73-1.73,2-4.09,3.82s-4.64,3.55-6.82,5.18-3.46,2.27-3.82,1.91h-.02Z" fill="#ffe1bd"></path><path class="cls-15" d="M127.81,127.76c0-.36,1.27-3,3.82-7.91s5.09-9.73,7.64-14.46,4.18-7.1,4.91-7.1,2.82,1.27,6.28,3.82,5.18,4,5.18,4.37c.36.73.55,3.37.55,7.91s-.18,7.37-.55,8.46-3,3.09-7.91,6c-4.91,2.91-7.91,4.37-9.01,4.37-1.09.36-3.18-.27-6.28-1.91s-4.64-2.82-4.64-3.55h0Z" fill="#d6b894"></path><path class="cls-1" d="M127.81,127.76c0-.36.18-2.09.55-5.18.37-3.09.73-6.19,1.09-9.28s.55-5,.55-5.73c.36-.73,2.73-2.55,7.1-5.46s6.73-4.18,7.1-3.82c0,0-.09,1.46-.27,4.37s-.36,5.91-.55,9.01-.45,4.82-.82,5.18c-.36.73-1.73,2.09-4.09,4.09s-4.64,3.73-6.82,5.18-3.46,2-3.82,1.64h-.02Z" fill="#ffe1bd"></path><path class="cls-15" d="M105.43,153.96c0-.36,2.73-.55,8.19-.55s11.01.09,16.65.27,8.64.45,9.01.82c0,.36.09,2.37.27,6s.09,5.82-.27,6.55c-.36,0-2.09.82-5.18,2.46s-6.19,3.09-9.28,4.37c-3.09,1.27-5,1.91-5.73,1.91-.36.36-2-.45-4.91-2.46s-4.73-3.18-5.46-3.55c-.36-.73-1-3.27-1.91-7.64s-1.36-7.1-1.36-8.19h-.02Z" fill="#d6b894"></path><path class="cls-1" d="M105.43,153.96c0-.36,1.46-1.09,4.37-2.18s5.91-2.09,9.01-3,5-1.36,5.73-1.36c1.09,0,3.91,1.09,8.46,3.27s6.64,3.46,6.28,3.82-2,1.27-4.91,2.73-6,2.82-9.28,4.09-5.28,2.09-6,2.46c-1.09,0-3.73-1.46-7.91-4.37s-6.09-4.73-5.73-5.46h-.02Z" fill="#ffe1bd"></path><path class="cls-28" d="M92.88,174.7c18.56-12.37,31.29-16.01,38.2-10.92,1.09.73,3.09,2.91,6,6.55s5.91,7.82,9.01,12.55,5.55,9.1,7.37,13.1,2.18,6.91,1.09,8.73c-.36.73-3.37.73-9.01,0s-11.92-1.82-18.83-3.27c-6.91-1.46-13.1-2.91-18.56-4.37s-8.37-2.73-8.73-3.82c-.73-1.82-2.18-4.91-4.37-9.28s-2.91-7.46-2.18-9.28h.01Z" fill="#6f3b17"></path><path class="cls-24" d="M121.26,160.51c3.27-.36,6.37.55,9.28,2.73s5.09,4.73,6.55,7.64,1.64,5.09.55,6.55c-.73,1.09-2.91,2.73-6.55,4.91s-7.46,4.28-11.46,6.28-7.1,3-9.28,3c0,.36,1.18-.55,3.55-2.73s4.64-4.37,6.82-6.55,3.09-3.09,2.73-2.73c-10.55,6.91-15.83,10.37-15.83,10.37-.36-.36.64-1.64,3-3.82s5.37-4.91,9.01-8.19c.36-.36-.82.45-3.55,2.46s-5.46,4-8.19,6-4.28,3-4.64,3c-.36-.36-.91-1.09-1.64-2.18s-1.27-1.82-1.64-2.18c-.36,0,1.27-1.36,4.91-4.09s6.91-5.37,9.82-7.91c1.09-1.09.27-.64-2.46,1.36s-5.82,4.18-9.28,6.55-5.18,3.55-5.18,3.55c0-.36,2.09-2.27,6.28-5.73s8.37-6.91,12.55-10.37c4.18-3.46,6.09-5,5.73-4.64-8,5.46-14.46,9.91-19.38,13.37s-7.37,5-7.37,4.64c-2.55-2.91-3.46-5.28-2.73-7.1.73-2.18,3.18-4.28,7.37-6.28,4.18-2,8.37-3.64,12.55-4.91s7-2.27,8.46-3h.02Z" fill="#9c5838"></path><path class="cls-30" d="M193.3,10.42c6.55,2.55,11.83,6.82,15.83,12.83s6.28,12.55,6.82,19.65-1,13.19-4.64,18.28c0,0-1.82-.64-5.46-1.91s-7.64-2.82-12.01-4.64-8.28-3.64-11.73-5.46-5.18-3.09-5.18-3.82v-3.82c0-2.18.18-4,.55-5.46.36-.36.82-.64,1.36-.82s.82-.45.82-.82c.36-.36.18-.73-.55-1.09s-1.09-.73-1.09-1.09c1.82-4.73,4.37-9.55,7.64-14.46s5.82-7.37,7.64-7.37h0Z" fill="#542c12"></path><path class="cls-24" d="M221.68,25.7c3.64,3.64,4.37,8.28,2.18,13.92s-4.37,8.46-6.55,8.46c-1.46,0-4.18-.91-8.19-2.73s-7.91-3.82-11.73-6-6.46-4-7.91-5.46c0-.36,1.55-.18,4.64.55s6.19,1.46,9.28,2.18,4.28,1.09,3.55,1.09c-11.64-4.73-17.46-7.28-17.46-7.64s1.64-.18,4.91.55,7.1,1.64,11.46,2.73c.73.36-.55,0-3.82-1.09l-9.82-3.27c-3.27-1.09-4.91-1.82-4.91-2.18s.27-1.18.82-2.46.82-2.09.82-2.46,2.09.18,6.28,1.64,8.1,2.55,11.73,3.27c1.82.36,1.09,0-2.18-1.09s-6.82-2.37-10.64-3.82-5.73-2.18-5.73-2.18c0-.36,2.73.27,8.19,1.91s10.82,3.18,16.1,4.64,7.55,2,6.82,1.64c-9.1-3.27-16.46-5.91-22.1-7.91s-8.46-3.18-8.46-3.55c1.09-3.64,2.55-5.64,4.37-6,2.55-.36,5.82.55,9.82,2.73s7.82,4.55,11.46,7.1,6,4.37,7.1,5.46l-.03-.03Z" fill="#9c5838"></path><path class="cls-28" d="M177.47,135.95c2.91-.36,6.28,1.27,10.1,4.91s6.46,6.19,7.91,7.64c1.82,1.46,3.64,3.46,5.46,6s3.82,5.09,6,7.64c.36.36,0,.91-1.09,1.64s-1.46,1.27-1.09,1.64,1.09.73,2.18,1.09,1.64.55,1.64.55c1.46,1.82,2.37,4.37,2.73,7.64s.73,5.09,1.09,5.46c.36,1.82-.91,3.37-3.82,4.64s-4,2.27-3.27,3c1.09.73-1,2.18-6.28,4.37s-11.01,4.37-17.19,6.55-10.01,3.46-11.46,3.82c-3.64.73-7.37,0-11.19-2.18s-7.1-4.55-9.82-7.1-4.28-4-4.64-4.37c-6.55-6.19-8.73-12.46-6.55-18.83s6.91-12.46,14.19-18.28,15.65-11.1,25.11-15.83h0Z" fill="#6f3b17"></path><path class="cls-26" d="M138.72,162.69c1.82-1.46,5.09-4.46,9.82-9.01s9.82-8.73,15.28-12.55,10.01-5.55,13.64-5.18c2.55,0,5.28,2.37,8.19,7.1.36.36-3.73,2.64-12.28,6.82s-18.65,10.28-30.29,18.28c-.73.73,1,0,5.18-2.18s9.19-4.73,15.01-7.64,11.01-5.46,15.55-7.64,6.82-3.09,6.82-2.73.73,2.09,2.18,5.18,2.37,4.82,2.73,5.18c0,.73-2.37,2.73-7.1,6s-11.28,6.91-19.65,10.92c-.73.73,1.09.27,5.46-1.36s8.91-3.27,13.64-4.91,6.91-2.27,6.55-1.91c-1.82,2.18-5.37,5.09-10.64,8.73s-10.73,7.1-16.37,10.37-9.55,5.09-11.73,5.46-4.82-1.18-7.91-4.64-5.28-7.46-6.55-12.01-.45-8.64,2.46-12.28h0Z" fill="#b36540"></path><path class="cls-19" d="M32.84,217.27c.36-.73,1.73-.64,4.09.27s3.18.82,2.46-.27c-2.55-3.27-3.09-5.09-1.64-5.46,1.46,0,3.18.55,5.18,1.64s2.82,1.09,2.46,0c-1.82-3.27-1.46-4.91,1.09-4.91s4.55,1.46,6,4.37c.36,1.09.73.91,1.09-.55s1.09-2.18,2.18-2.18c1.82-.36,3,.18,3.55,1.64s.82,2.91.82,4.37c0,.73.36.36,1.09-1.09s1.64-2.18,2.73-2.18c3.64.73,4,3.27,1.09,7.64-.36.36.36,0,2.18-1.09s3.27-.73,4.37,1.09c1.09,2.91-.27,6.19-4.09,9.82s-8.91,5.46-15.28,5.46-12.64-3.64-18.83-10.92c-1.46-1.82-.73-2.55,2.18-2.18s4,.36,3.27,0c-1.46-.73-2.91-1.55-4.37-2.46s-2-1.91-1.64-3h.02Z" fill="#5fb300"></path><path class="cls-32" d="M56.31,229.82c.73,1.09,1.36,2.27,1.91,3.55s1.18,2.46,1.91,3.55h-2.18c-.36-1.09-.82-2.27-1.36-3.55s-1-2.46-1.36-3.55c-1.09-.36-2.91-1.27-5.46-2.73s-6-2.55-10.37-3.27c4,.36,7.28,1.09,9.82,2.18s4.18,2,4.91,2.73c-1.82-5.09-3.46-9.64-4.91-13.64,2.18,4.73,4.37,9.28,6.55,13.64.36-.73,1.18-1.73,2.46-3s3.55-2.46,6.82-3.55c-2.91,1.46-5,2.91-6.28,4.37s-2.09,2.55-2.46,3.27h0Z" fill="#559e00"></path><path class="cls-30" d="M192.75,101.57c1.82,1.82,4,5,6.55,9.55s3.82,7.73,3.82,9.55c0,1.09-.73,3.64-2.18,7.64s-2.91,7.91-4.37,11.73-2.18,5.73-2.18,5.73c-.36,1.09-3,1.46-7.91,1.09s-9.91-1.09-15.01-2.18-8.19-2-9.28-2.73c-3.27-2.55-6.82-5.18-10.64-7.91s-5.73-4.64-5.73-5.73c1.09-17.1,6.19-26.83,15.28-29.2s19.65-1.55,31.66,2.46h-.01Z" fill="#542c12"></path><path class="cls-22" d="M158.92,97.74c1.82-.36,5.18-.64,10.1-.82s9.91.09,15.01.82,8.37,2.55,9.82,5.46c1.09,2.18.73,6.19-1.09,12.01,0,.36-4.91-.18-14.74-1.64-.73,0,0,.45,2.18,1.36s4.55,1.91,7.1,3,3.64,1.64,3.27,1.64c0,.36-2.55-.18-7.64-1.64s-9.82-2.73-14.19-3.82-5.64-1.27-3.82-.55c3.64,2.18,8.55,4.09,14.74,5.73s9.1,2.64,8.73,3c0,.73-.36,2.09-1.09,4.09s-1.27,3.18-1.64,3.55c0,.36-1.46,0-4.37-1.09s-5.64-2.09-8.19-3-3.46-1.36-2.73-1.36c4.37,2.91,7.37,4.91,9.01,6s2.27,1.82,1.91,2.18c0,.36-6.55-1.82-19.65-6.55-.73-.36.45.36,3.55,2.18s6.19,3.73,9.28,5.73,4.46,3,4.09,3c-2.18.73-5.64.55-10.37-.55s-9.37-2.37-13.92-3.82-7.37-2.73-8.46-3.82c-1.09-1.46-1.27-4.55-.55-9.28s2.27-9.37,4.64-13.92,5.37-7.19,9.01-7.91v.02Z" fill="#8c4f32"></path><path class="cls-15" d="M159.46,160.51c-.36-.36,1.46-1.91,5.46-4.64s8.19-5.37,12.55-7.91,6.73-3.64,7.1-3.27c.73.73,2.27,2.09,4.64,4.09s3.73,3.18,4.09,3.55c0,.36-.18,1.91-.55,4.64s-.73,5.46-1.09,8.19-.73,4.09-1.09,4.09c-.73,0-3.09-.09-7.1-.27s-7.91-.45-11.73-.82-6.09-.55-6.82-.55-1.82-1-3.27-3-2.18-3.37-2.18-4.09h-.01Z" fill="#d6b894"></path><path class="cls-1" d="M163.28,143.59c1.09-.36,3.27-.64,6.55-.82s6.46-.18,9.55,0,4.82.82,5.18,1.91c.73,1.82,1,5.18.82,10.1s-.64,7.55-1.36,7.91-2.91.55-6.55.55-7.37-.18-11.19-.55-6.09-1.09-6.82-2.18c-1.09-.73-.91-3.73.55-9.01s2.55-7.91,3.27-7.91h0Z" fill="#ffe1bd"></path><path class="cls-15" d="M172.01,45.35c0-.36,2.82-.36,8.46,0s11.28.73,16.92,1.09,8.64.73,9.01,1.09v6c0,3.64-.18,5.64-.55,6,0,.36-1.64,1.18-4.91,2.46s-6.55,2.55-9.82,3.82-5.09,1.91-5.46,1.91c-.73.36-2.55-.45-5.46-2.46s-4.55-3.37-4.91-4.09c-.36-.36-1-2.73-1.91-7.1s-1.36-7.28-1.36-8.73h0Z" fill="#d6b894"></path><path class="cls-1" d="M172.01,45.35s1.55-.55,4.64-1.64,6.19-2,9.28-2.73,5-1.09,5.73-1.09c1.09.36,3.91,1.64,8.46,3.82s6.64,3.46,6.28,3.82-2.09,1.18-5.18,2.46-6.28,2.55-9.55,3.82-5.28,1.91-6,1.91c-1.09,0-3.73-1.55-7.91-4.64s-6.09-5-5.73-5.73h-.02Z" fill="#ffe1bd"></path><path class="cls-30" d="M151.28,88.47c1.46-10.19,4.18-19.01,8.19-26.47s9.64-9.01,16.92-4.64c.36.36,2.91,1.55,7.64,3.55s7.28,4.82,7.64,8.46c0,1.09-.55,4.28-1.64,9.55-1.09,5.28-2.37,10.37-3.82,15.28s-2.55,7.37-3.27,7.37c0,0-1,.18-3,.55s-3.73.36-5.18,0l-.55-1.09c-.36-.73-.73-1.09-1.09-1.09s-.64.36-.82,1.09-.45,1.09-.82,1.09c-1.82-.73-3.64-1.46-5.46-2.18s-3.27-1.46-4.37-2.18c-1.09-1.09-3-2.37-5.73-3.82s-4.28-3.27-4.64-5.46h0Z" fill="#542c12"></path><path class="cls-24" d="M160.01,58.99c2.18-4,5.82-5.28,10.92-3.82s7.82,3.27,8.19,5.46c0,1.46-.45,4.28-1.36,8.46s-2,8.37-3.27,12.55-2.27,7-3,8.46c-.36,0-.45-1.64-.27-4.91s.36-6.46.55-9.55.27-4.28.27-3.55c-2.18,12.37-3.46,18.56-3.82,18.56v-4.91c0-3.27.18-7.28.55-12.01,0-.73-.18.55-.55,3.82s-.82,6.64-1.36,10.1-.82,5.18-.82,5.18c-.36,0-1.18-.09-2.46-.27s-1.91-.27-1.91-.27c-.36,0-.27-2.18.27-6.55s1-8.55,1.36-12.55c0-1.82-.27-1-.82,2.46s-1.09,7.19-1.64,11.19-1,6-1.36,6c0,0,.18-2.82.55-8.46s.82-11.1,1.36-16.37.82-7.55.82-6.82c-1.46,9.1-2.64,16.65-3.55,22.65s-1.55,9.01-1.91,9.01c-3.27-1.09-5.09-2.37-5.46-3.82-1.09-2.55-.91-5.91.55-10.1s3-8.19,4.64-12.01,2.82-6.46,3.55-7.91l-.02-.02Z" fill="#9c5838"></path><path class="cls-28" d="M212.4,57.9c1.09.73,1.64,3.64,1.64,8.73s-.27,10.92-.82,17.46-1.27,12.19-2.18,16.92-1.91,6.91-3,6.55c-2.18-.73-5.46-1.91-9.82-3.55s-8.28-3.27-11.73-4.91-5.18-2.64-5.18-3c-4.37-15.28-3-25.47,4.09-30.56s16.1-7.64,27.02-7.64h-.02Z" fill="#6f3b17"></path><path class="cls-26" d="M183.48,63.91c1.09-.36,3.73-1.36,7.91-3s8.46-2.82,12.83-3.55,7.64-.18,9.82,1.64c1.82,1.46,2.73,5.09,2.73,10.92,0,.36-3,.36-9.01,0s-13.74-.91-23.2-1.64c-.73,0,1.64.45,7.1,1.36s11.01,1.91,16.65,3,8.46,1.82,8.46,2.18c-.36,0-2.55-.09-6.55-.27s-7.73-.36-11.19-.55-4.28-.09-2.46.27c3.64.73,7.64,1.27,12.01,1.64s6.55.91,6.55,1.64v7.64c0,.36-1.73.36-5.18,0s-6.82-.73-10.1-1.09-4.73-.55-4.37-.55c4.73,1.09,8.73,2.09,12.01,3s4.91,1.55,4.91,1.91-6.19.18-18.56-.55c-.73,0,.45.45,3.55,1.36s6.19,1.82,9.28,2.73,4.64,1.36,4.64,1.36c-1.82,1.09-4.91,1.91-9.28,2.46s-8.64.91-12.83,1.09-6.82-.09-7.91-.82c-1.46-.73-2.55-3.37-3.27-7.91s-.73-9.28,0-14.19,2.55-8.28,5.46-10.1v.02Z" fill="#b36540"></path><path class="cls-19" d="M149.09,183.43c1.09,1.09,1.09,2.27,0,3.55s-2.18,2.46-3.27,3.55c-.36.36.82.27,3.55-.27s3.55.45,2.46,3c-2.18,6.55-6.37,10.82-12.55,12.83s-12.01,1.64-17.46-1.09-8.55-8.1-9.28-16.1c-.36-2.55.73-3.09,3.27-1.64s3.46,1.82,2.73,1.09c-2.18-2.55-3.37-4.64-3.55-6.28s.45-2.64,1.91-3c.73-.36,1.82.36,3.27,2.18s2,2.18,1.64,1.09c-.73-1.46-1.09-3.09-1.09-4.91s.73-2.73,2.18-2.73c1.46.36,2.64,1.46,3.55,3.27s1.36,2,1.36.55c0-3.64,1.27-5.55,3.82-5.73s3.82,1.91,3.82,6.28c0,1.09.73,1,2.18-.27s2.91-1.91,4.37-1.91c1.46.36,2.09,1.18,1.91,2.46s-.45,2.64-.82,4.09.36,1.55,2.18.27,3.09-1.36,3.82-.27h0Z" fill="#5fb300"></path><path class="cls-32" d="M132.17,199.81c-.73-.73-2.09-2-4.09-3.82s-4.82-3.46-8.46-4.91c3.64.73,6.46,1.91,8.46,3.55s3.37,2.82,4.09,3.55v-16.92c.36,2.91.64,5.82.82,8.73s.27,5.82.27,8.73c.73-1.09,2.09-2.37,4.09-3.82s4.82-2.37,8.46-2.73c-3.64,1.09-6.46,2.55-8.46,4.37s-3.37,3.09-4.09,3.82v8.73h-1.64c0-1.46.09-2.91.27-4.37s.27-3.09.27-4.91h0Z" fill="#559e00"></path><path class="cls-19" d="M200.94,83.55c1.46-1.09,2.64-1,3.55.27s1.91,2.64,3,4.09c0,.36-.45,3.37-1.36,9.01s-2,11.19-3.27,16.65-2.27,8.55-3,9.28c-2.55,2.18-4.73,3.37-6.55,3.55s-2.73-.45-2.73-1.91c0-1.09,1-2.55,3-4.37s2.46-2.55,1.36-2.18c-1.46.73-3.09,1.09-4.91,1.09s-2.55-1.09-2.18-3.27c.36-1.82,1.55-3.18,3.55-4.09s2.27-1.55.82-1.91c-3.64,0-5.28-1.64-4.91-4.91s2.55-4.73,6.55-4.37c1.46.36,1.64-.55.55-2.73s-1.46-4-1.09-5.46c.36-1.82,1.27-2.55,2.73-2.18s2.73.73,3.82,1.09c1.46.73,1.73-.09.82-2.46s-.82-4.09.27-5.18h-.02Z" fill="#5fb300"></path><path class="cls-28" d="M130.54,201.44c.73.73-.82,3-4.64,6.82s-8.37,8-13.64,12.55-10.01,8.28-14.19,11.19-6.46,4-6.82,3.27c-2.55-2.91-4.82-6.46-6.82-10.64s-3-6.64-3-7.37c5.82-15.65,13.19-23.83,22.1-24.56s17.92,2.18,27.02,8.73h0Z" fill="#6f3b17"></path><path class="cls-26" d="M102.16,190.53c1.82,0,4.91.45,9.28,1.36s8.64,2.18,12.83,3.82c4.18,1.64,6.46,3.91,6.82,6.82.36,2.55-1.09,6.37-4.37,11.46,0,0-2.46-1.73-7.37-5.18s-11.37-7.55-19.38-12.28c-.73-.36,1,1.18,5.18,4.64s8.37,7,12.55,10.64,6.28,5.64,6.28,6c-.36,0-2.55-1.27-6.55-3.82s-7.82-4.91-11.46-7.1-4.91-2.73-3.82-1.64c2.91,2.91,6.28,6.37,10.1,10.37s5.55,6.19,5.18,6.55-1.91,2-4.64,4.91-4.28,4.37-4.64,4.37c-2.18,0-5.28-.91-9.28-2.73s-7.73-3.91-11.19-6.28-5.55-4.09-6.28-5.18c-.73-1.46,0-4.37,2.18-8.73s5-8.55,8.46-12.55,6.82-5.82,10.1-5.46h.02Z" fill="#b36540"></path><path class="cls-11" d="M182.38,171.97c10.19-6.55,19.74-8.19,28.65-4.91s16.74,9.82,23.47,19.65,12.01,21.65,15.83,35.48,6.09,28.2,6.82,43.12c.73,14.92-.55,29.02-3.82,42.3-3.27,13.28-8.64,24.47-16.1,33.57s-17.37,14.55-29.74,16.37c-9.1,1.46-20.83.36-35.2-3.27s-31.2-12.19-50.48-25.65-41.3-34.2-66.04-62.22c-4.73-5.46-10.73-11.83-18.01-19.1s-13.74-14.37-19.38-21.29c-5.64-6.91-8.28-12.37-7.91-16.37,9.82,18.92,29.29,24.38,58.4,16.37,29.11-8,66.95-26.02,113.52-54.03v-.02Z" fill="url(#1777685730123-2797610_linear-gradient-3)"></path><path class="cls-16" d="M96.15,289.31c-1.82-8,1.09-15.46,8.73-22.38,7.64-6.91,17.83-12.83,30.56-17.74s25.83-8.19,39.3-9.82c13.46-1.64,25.29-1.09,35.48,1.64s16.19,8.28,18.01,16.65c2.18,8.37-.55,16.1-8.19,23.2s-17.83,13.01-30.56,17.74c-12.73,4.73-25.92,7.82-39.57,9.28-13.64,1.46-25.56.73-35.75-2.18s-16.19-8.37-18.01-16.37v-.02Z" fill="url(#1777685730123-2797610_radial-gradient)"></path><path class="cls-7" d="M39.39,244.56c-.73-3.27,1.64-6.37,7.1-9.28s12.37-5.37,20.74-7.37c8.37-2,16.83-3.46,25.38-4.37s15.83-.91,21.83,0,9.37,3,10.1,6.28c.36,3.27-2.09,6.37-7.37,9.28s-12.1,5.46-20.47,7.64-16.92,3.64-25.65,4.37-16.1.64-22.1-.27-9.19-3-9.55-6.28h0Z" fill="url(#1777685730123-2797610_radial-gradient-2)"></path><path class="cls-10" d="M210.22,373.91c-5.09-1.09-10.46-6.09-16.1-15.01s-10.73-20.65-15.28-35.2c-4.55-14.55-7.82-30.56-9.82-48.03s-2.09-35.2-.27-53.21,6.37-34.84,13.64-50.48c10.19-22.56,17.46-44.75,21.83-66.58s6.28-41.02,5.73-57.58-3.18-28.29-7.91-35.2c2.55-.36,7.28,2.27,14.19,7.91s15.19,13.19,24.83,22.65,20.01,19.83,31.11,31.11,22.01,22.47,32.75,33.57c10.73,11.1,20.47,21.01,29.2,29.74,0,28.02-2.91,55.49-8.73,82.41s-14.19,51.58-25.11,73.95c-10.92,22.38-24.01,40.66-39.3,54.85-15.28,14.19-32.2,22.56-50.76,25.11h0Z" fill="url(#1777685730123-2797610_linear-gradient-4)"></path><path class="cls-6" d="M276.26,82.46c9.46.36,17.56,4.55,24.29,12.55s11.83,18.1,15.28,30.29c3.46,12.19,5.28,24.92,5.46,38.2s-1.36,25.74-4.64,37.39c-3.27,11.64-8.19,20.92-14.74,27.83s-14.92,9.64-25.11,8.19c-9.46-1.09-17.37-5.64-23.74-13.64s-11.1-17.92-14.19-29.74c-3.09-11.83-4.64-24.29-4.64-37.39s1.55-25.29,4.64-36.57c3.09-11.28,7.73-20.47,13.92-27.56,6.19-7.1,14.01-10.28,23.47-9.55h0Z" fill="url(#1777685730123-2797610_radial-gradient-3)"></path><path class="cls-5" d="M224.41,34.43c2.91.73,5.09,4.37,6.55,10.92s2.27,14.55,2.46,24.01c.19,9.46-.18,18.65-1.09,27.56s-2.46,16.19-4.64,21.83-4.73,8.1-7.64,7.37-5.09-4.46-6.55-11.19-2.18-14.74-2.18-24.01.45-18.37,1.36-27.29,2.37-16.19,4.37-21.83,4.46-8.1,7.37-7.37h-.01Z" fill="url(#1777685730123-2797610_radial-gradient-4)"></path><path class="cls-4" d="M216.77,123.4c3.64,1.46,5.55,5.91,5.73,13.37s-.91,16.1-3.27,25.92-5.46,19.38-9.28,28.65-7.91,16.56-12.28,21.83-8.55,7-12.55,5.18c-3.64-1.82-5.46-6.46-5.46-13.92s1.18-16.1,3.55-25.92,5.46-19.28,9.28-28.38,7.91-16.28,12.28-21.56,8.37-7,12.01-5.18h0Z" fill="url(#1777685730123-2797610_radial-gradient-5)"></path><path class="cls-3" d="M266.43,244.01c5.09,4,7.55,9.55,7.37,16.65s-2.18,14.37-6,21.83-8.55,14.19-14.19,20.19-11.46,10.1-17.46,12.28c-6,2.18-11.55,1.09-16.65-3.27-4.73-4-6.91-9.46-6.55-16.37s2.37-14.1,6-21.56,8.19-14.1,13.64-19.92,11.28-9.82,17.46-12.01,11.64-1.46,16.37,2.18h.01Z" fill="url(#1777685730123-2797610_radial-gradient-6)"></path><path class="cls-2" d="M197.12,187.25c5.46,1.46,9.37,5.37,11.73,11.73s3.46,13.64,3.27,21.83-1.46,16.01-3.82,23.47-5.73,13.37-10.1,17.74-9.28,5.64-14.74,3.82c-5.46-1.46-9.37-5.37-11.73-11.73s-3.37-13.55-3-21.56,1.73-15.74,4.09-23.2,5.64-13.37,9.82-17.74,9.01-5.82,14.46-4.37h.02Z" fill="url(#1777685730123-2797610_radial-gradient-7)"></path><path class="cls-9" d="M55.76,266.39l74.23,64.95,46.94,21.83,23.47-7.1,20.74,8.19,41.48-12.55,9.82-33.84,49.67-120.07-16.37-74.23-26.2-29.47-33.84-36.02s1.73.18,5.18.55,7.1.82,10.92,1.36,6.28,1,7.37,1.36c.73.36,3.46,2.09,8.19,5.18s9.37,6.28,13.92,9.55,7,5.09,7.37,5.46c.73.36,3.91,1.82,9.55,4.37s11.37,5,17.19,7.37,8.91,3.91,9.28,4.64c0,.73,1,3.46,3,8.19s4.18,10.1,6.55,16.1,4.37,11.37,6,16.1c1.63,4.73,2.46,7.28,2.46,7.64,0,1.09-.73,4-2.18,8.73s-2.91,9.37-4.37,13.92-2.37,7.19-2.73,7.91c-.36.36-1,2.73-1.91,7.1s-1.73,8.55-2.46,12.55-1.09,6-1.09,6c0,0,2.18,1.46,6.55,4.37s7.1,5.28,8.19,7.1c.73.73,2.91,2.91,6.55,6.55s7.28,7.28,10.92,10.92,5.28,6.19,4.91,7.64c0,1.09,1.55,4,4.64,8.73s6.73,9.73,10.92,15.01c4.19,5.28,7.82,9.91,10.92,13.92s4.64,6,4.64,6l-32.75-.55-24.01,16.92-34.38,6-10.92,11.46,8.19,12.55-7.1,24.56-9.28-2.18-12.55,18.01-26.74,6.55-4.09,6.55c-2.73,4.37-5.46,9.46-8.19,15.28s-4.28,10.92-4.64,15.28c0,.36-2.27.91-6.82,1.64s-9.28,1.36-14.19,1.91-7.91.45-9.01-.27c-1.09-.36-4.37-1.91-9.82-4.64s-10.82-5.37-16.1-7.91-8.64-3.82-10.1-3.82c-1.09.36-4,1.73-8.73,4.09s-10.28,5-16.65,7.91-12.28,5.37-17.74,7.37-9.1,2.64-10.92,1.91c-2.18-.36-4.73-3.37-7.64-9.01s-5.91-12.01-9.01-19.1-5.82-13.46-8.19-19.1-3.91-8.82-4.64-9.55c-.73-1.09-4-2.55-9.82-4.37s-11.73-3.64-17.74-5.46c-6-1.82-9.73-3.27-11.19-4.37-.73-.73-1.36-3.37-1.91-7.91s-.82-9.82-.82-15.83.09-11.37.27-16.1.64-7.64,1.36-8.73c.73-1.46,1.55-4.18,2.46-8.19.91-4,1.64-7.82,2.18-11.46s.82-5.46.82-5.46h-.01Z" fill="url(#1777685730123-2797610_linear-gradient-5)"></path><path class="cls-13" d="M263.71,62.27c6.55,6.55,13.64,13.37,21.29,20.47,7.64,7.1,16.74,10.82,27.29,11.19,2.18.73,4.55,1.09,7.1,1.09s4.91.73,7.1,2.18c1.09.73,2,1.82,2.73,3.27s1.82,2.37,3.27,2.73c1.09-6.19-.45-11.01-4.64-14.46s-9.46-6.09-15.83-7.91-12.73-3.73-19.1-5.73-11.19-4.82-14.46-8.46c-1.82-4-4.73-7.28-8.73-9.82s-8.19-3.09-12.55-1.64c-.73.73,0,1.82,2.18,3.27s3.64,2.73,4.37,3.82h-.02ZM329.74,117.39c2.91-.36,5.46,1,7.64,4.09s4.28,6.73,6.28,10.92,4.09,7.19,6.28,9.01c-5.09,4.37-9.64,9.46-13.64,15.28-4-3.27-7.46-7-10.37-11.19s-4.37-8.64-4.37-13.37c0-2.55-1.27-4.55-3.82-6s-3.46-3.27-2.73-5.46,2.91-3.09,6.55-2.73,6.37.18,8.19-.55h0ZM345.03,205.26c6.91,8.37,12.92,15.19,18.01,20.47s8.37,11.1,9.82,17.46.36,15.37-3.27,27.02c-1.82,0-3.64-.82-5.46-2.46s-3.64-3.18-5.46-4.64c-5.46-5.09-12.01-8.1-19.65-9.01s-15.1-1.73-22.38-2.46c-3.27-.73-5-3-5.18-6.82s-.64-7-1.36-9.55c1.82-3.27,5-5.09,9.55-5.46s9.28-.18,14.19.55,9.01,1.46,12.28,2.18c1.82-5.82,2.09-10.28.82-13.37s-3.27-5.91-6-8.46-5.55-6-8.46-10.37c-.73-3.27-.18-4.55,1.64-3.82s3.91,2.18,6.28,4.37,3.91,3.64,4.64,4.37h-.01ZM301.36,293.13c8-.73,16.01-1.82,24.01-3.27s16.01-3.27,24.01-5.46c-5.09-2.18-11.01-5.37-17.74-9.55-6.73-4.18-13.19-6.82-19.38-7.91-6.55-2.55-10.46-2.27-11.73.82s-1.46,7.28-.55,12.55,1.36,9.55,1.36,12.83h.02ZM309.55,323.7c-2.18,6.91-3.73,11.01-4.64,12.28s-2.46,1.55-4.64.82-6-.73-11.46,0c0-1.82.55-5.37,1.64-10.64s2.64-9.64,4.64-13.1,4.46-3.55,7.37-.27c.36.36,1.64,2.27,3.82,5.73s3.27,5.18,3.27,5.18ZM290.45,302.41c1.82-2.18,1.64-4.73-.55-7.64s-4.37-4-6.55-3.27c-1.46,3.27-2.18,6.91-2.18,10.92s-.91,7.82-2.73,11.46c-1.46,2.55-1.27,5,.55,7.37s3.64,4.28,5.46,5.73c1.09-4,1.91-8.1,2.46-12.28s1.73-8.28,3.55-12.28h0Z" fill="#dee4e7"></path><path class="cls-13" d="M235.33,405.02c-5.09-2.55-10.19-3.73-15.28-3.55s-10.19.45-15.28.82c-4.73-2.91-9.46-5.82-14.19-8.73s-9.64-5.28-14.74-7.1c9.82-16.37,17.19-26.74,22.1-31.11s8.82-4.37,11.73,0,6.19,11.1,9.82,20.19c3.64,9.1,8.91,18.92,15.83,29.47h.01Z" fill="#dee4e7"></path><path class="cls-13" d="M94.51,354.81c1.46-.73,4.28-2.82,8.46-6.28s8.64-6.82,13.37-10.1,8.73-4.91,12.01-4.91l-1.64,6.55c-1.09,4.37-2.37,9.37-3.82,15.01-1.46,5.64-2.73,10.64-3.82,15.01s-1.46,6.55-1.09,6.55c2.55,1.82,6.82,3.46,12.83,4.91,6.01,1.45,12.1,2.73,18.28,3.82,6.19,1.09,10.92,2.18,14.19,3.27-3.27,5.46-7.55,8.64-12.83,9.55-5.28.91-10.64,2.46-16.1,4.64-1.46.73-4.09,1.82-7.91,3.27s-6.64,1.64-8.46.55c-4.37-7.64-8.37-16.19-12.01-25.65s-7.46-18.19-11.46-26.2h0Z" fill="#dee4e7"></path><path class="cls-13" d="M175.29,354.26c1.09,1.09-.27,2.37-4.09,3.82s-8.73,2.73-14.74,3.82c-6,1.09-11.64,1.55-16.92,1.36s-8.64-1.55-10.1-4.09l4.37-22.38c1.09.36,4.82,1.82,11.19,4.37s12.73,5.18,19.1,7.91,10.1,4.46,11.19,5.18h0Z" fill="#dee4e7"></path><path class="cls-13" d="M50.85,325.33c0-2.55.45-7.1,1.36-13.64.91-6.55,1.91-10.92,3-13.1,1.09-1.82,2-1.82,2.73,0s1.46,4.18,2.18,7.1c.73,2.91,1.64,4.91,2.73,6,5.09,4,11.1,6.19,18.01,6.55s13.46,1.09,19.65,2.18c-1.46,1.82-1.91,5.28-1.36,10.37s.73,9.55.55,13.37-2.27,4.82-6.28,3c-2.91-3.27-6.73-5.37-11.46-6.28s-9.46-1.64-14.19-2.18-8.73-1.73-12.01-3.55-4.91-5.09-4.91-9.82h0Z" fill="#dee4e7"></path></g></svg>