<svg data-name="Layer 1" xmlns="http://www.w3.org/2000/svg" style="" viewBox="0 0 655.34 512"><g class="nc-icon-wrapper"><defs><radialGradient id="1776585740486-7306543_radial-gradient" cx="343.14" cy="1461.63" fx="343.14" fy="1461.63" r="120.15" gradientTransform="matrix(0 1 .23 0 -4.56 -82.59)" gradientUnits="userSpaceOnUse"><stop offset="0" stop-color="#3e4a52"></stop><stop offset=".26" stop-color="#3a444d"></stop><stop offset=".61" stop-color="#2d323d"></stop><stop offset="1" stop-color="#1a1626"></stop></radialGradient><linearGradient id="1776585740486-7306543_linear-gradient" x1="327.66" y1="231.99" x2="327.66" y2="311.67" gradientTransform="matrix(1 0 0 -1 0 514)" gradientUnits="userSpaceOnUse"><stop offset=".09" stop-color="#ffe8bb" stop-opacity="0"></stop><stop offset="1" stop-color="#ffe8bb"></stop></linearGradient></defs><path class="cls-6" d="M322.08,244.15C464.3,27.76,582.58-7.9,631.35,1.29c30.92,5.83,30.64,54.53,6.66,91.83-67.62,105.21-31.22,190.46-108.46,172.56-24.83-5.78-188.55-21.13-207.47-21.53Z" fill="#1a1626"></path><path class="cls-6" d="M324.78,243.55c131.18-28.37,202.95,39.34,221.06,75.39,54.78,109.05-120.55,252.7-163.76,166.94-16.43-32.63-27.82-92.09-52.25-135.74-13.71-24.48-5.05-106.59-5.05-106.59Z" fill="#1a1626"></path><path class="cls-8" d="M330.39,272.48c10.29,28.07,5.43,75.5,9.55,85.15,4.12,9.67,47.12,131.17,51.23,131.17s5.25-.81,4.88-4c-.26-2.16-29.87-68.71-46.28-128.66-8.17-29.87,1.13-58.38-17.75-88.19-6.33-10-3.97-1.84-1.64,4.53Z" fill="#ffd817"></path><path class="cls-8" d="M336.41,270.3c12.52,29.56,16.16,75.57,18.7,85.84,7.59,30.7,41.21,118.88,43.89,122.23,8.72,10.83,15.83-.11,15.46-3.32-.22-1.88-28.05-58.82-44.61-110.24-11.66-36.22-15.15-80.9-33.66-100.41-8.04-8.47-2.42-.34.23,5.9Z" fill="#ffd817"></path><path class="cls-8" d="M371.02,346.01c3.69,31.51,46.49,123.76,49.18,127.09,8.7,10.83,27.62-1.01,27.24-4.22-.22-1.89-24.21-130.71-97.94-193.68-8.82-7.54,15.99,23.6,21.52,70.81Z" fill="#ffd817"></path><path class="cls-8" d="M413,349.06c-8.74-7.04,29.86,41.73,39.4,115.52,1.83,14.16,25.99-3.9,25.98-14.91,0-1.89-18.56-44.2-27.84-72.32-3.76-11.41-10.24-6.22-37.54-28.28Z" fill="#ffd817"></path><path class="cls-8" d="M453.14,372.25c-4.9.87,23.01,44.59,27.09,69.15,2.32,14.08,25.98-3.91,25.98-14.89,0-1.89-27.57-43.64-33.12-50.19-4.08-4.83-14.9-4.98-19.96-4.08Z" fill="#ffd817"></path><path class="cls-1" d="M469.86,366.68c3,4.27,29.27,30.14,41.25,51.54,3.8,6.77,14.04-15.35,14.04-26.33,0-1.9-44.05-49.28-66.05-63.04-5.24-3.28-.06,22.48,10.76,37.83Z" fill="#ffb117"></path><path class="cls-1" d="M453.57,318.97c4.71,3.65,53.99,40.01,74.42,59.48,6.46,6.16,1.22-32.94-2.84-38.81-1.28-1.82-60.71-36.13-88.01-47.3-6.39-2.61-.52,13.54,16.42,26.62Z" fill="#ffb117"></path><path class="cls-1" d="M433.19,285.94c3.11,5.26,45.54,15.69,86.43,42.63,7.38,4.85-3.8-20.45-7.88-26.31-1.26-1.83-53.41-41.49-95.27-29.92-6.59,1.81,9.97,2.17,16.72,13.6Z" fill="#ffb117"></path><path class="cls-7" d="M407.66,268.28c4.82,2.1,15.32-2.85,39.59-.76,2.4.2,8.99-6.76,7.3-8.07-1.73-1.34-78.37-17.35-120.23-5.77-2.26.62,3.08,15,8.29,13.23,30.17-10.22,55.06-2.96,65.04,1.36Z" fill="#f2841e"></path><path class="cls-7" d="M454.06,248.35c2.41.22,9.56-7.25,7.87-8.57-1.71-1.33-97.54-7.62-130.09,6.67-2.16.96-3.48,5.98,1.74,4.21,30.17-10.22,96.22-4.39,120.47-2.3Z" fill="#f2841e"></path><path class="cls-7" d="M541.25,239.08c3.6.27,18.17-9.03,18.17-12.84-.01-6.4,3.08-22.4,0-23.91-16.1-7.81-99.62-21.04-126.61-13.41-2.25.63-105.92,56.63-100.8,54.58,45.2-18.26,151.01-8.82,209.24-4.41Z" fill="#f2841e"></path><path class="cls-3" d="M552.41,190.92c5.62,1.2,13.36-9.23,13.36-13.83,0-7.21-14.41-24.28-20.03-26.67-1.97-.85-41.17-6.61-59.18-2.81-2.29.47-43.65,34.82-38.19,34.3,17.96-1.72,80.16,3.94,104.04,9.01Z" fill="#e6591c"></path><path class="cls-11" d="M438.43,179.7c5.32-2.25,44.73-33.79,46.64-37.93,2.62-5.66,26.52-39.36,20.6-38.12-2.1.44-49.44,16.65-92.52,59.78-1.7,1.71-62.19,65.37-57.85,61.77,14.22-11.87,60.49-35.89,83.13-45.5Z" fill="#c21413"></path><path class="cls-11" d="M347.46,229.91c2.66-2.38,51.41-59.98,62.42-70.42,6.84-6.48,44.24-39.13,80.16-55.86,12.58-5.86-33.4.65-94.2,52.55-1.83,1.55-67.38,81.62-61.94,82.15,1.52.15,8.7-4.08,13.56-8.43Z" fill="#c21413"></path><path class="cls-11" d="M547.22,140.84c6,.08,24.62-10.62,24.56-14.03-.14-5.86,2.26-30.66-1.81-33.69-1.76-1.3-29.85,1.69-47.89,5.41-2.28.47-31.2,42.76-25.74,42.31,17.25-1.41,26.57-.3,50.89,0Z" fill="#c21413"></path><path class="cls-1" d="M404.84,333.32c8.2,14.76,42.56,30.6,44.84,31.5,7.44,2.95,14.9,1.93,14.61.22-1.21-7.03-10.73-14.35-10.92-38.47-.05-6.6-23.05-16.1-24.99-38.73-.66-7.63-47.29-30.08-80.05-19.27-6.67,2.2,26.73,11.1,56.5,64.76Z" fill="#ffb117"></path><path class="cls-11" d="M558.47,69.36c-3.8-8.76,16.63-10.88,48.07-9.17,2.06.1.65,13.55-2.32,14.96-9.03,4.3-43.26-.08-45.74-5.79Z" fill="#c21413"></path><path class="cls-11" d="M554.13,52.49c-3.8-8.74,12.42-15.5,46.73-16.58,2.06-.07,5.19,17.19,1.96,17.03-15.63-.75-46.21,5.26-48.69-.45Z" fill="#c21413"></path><path class="cls-11" d="M540.64,36.7c-3.84-6.95,5.9-14.29,43.73-22.25,1.63-.34,10.58,11.92,7.83,12.16-13.65,1.15-49.05,14.6-51.57,10.09Z" fill="#c21413"></path><path class="cls-4" d="M520.7,47.79c-1.74-3.04-18.06,7.99-15.96,14.56,1.36,4.27,17.88-.58,22.1-6.34,1.38-1.89-5.46-7.04-6.13-8.22Z" fill="#ffe8bb"></path><path class="cls-4" d="M485.26,67.67c-3.72.2-20.41,14.26-15.77,19.56,3.01,3.43,22.8-6.55,26.63-13.94,1.25-2.44-7.31-5.82-10.86-5.62Z" fill="#ffe8bb"></path><path class="cls-4" d="M458.45,93.23c-4.32-1.71-34.02,19.99-28,24.8,3.92,3.11,29.28-7.81,35.88-16.18,2.18-2.74-6.22-7.98-7.88-8.62Z" fill="#ffe8bb"></path><path class="cls-10" d="M523.36,68.27c-18.26,1.7-36.05,19.54-32.87,23.07,2.08,2.27,28.87-4.92,31.6-9.95.9-1.64,2.24-13.21,1.27-13.12Z" fill="#ffbf42"></path><path class="cls-10" d="M530.8,66.8c-2.46.61-2.63,13.84-.82,13.93,2.96.18,19.59-3.34,22.32-8.35.89-1.65-3.1-10.08-21.5-5.58Z" fill="#ffbf42"></path><path class="cls-10" d="M535.08,51.69c-2.04.5-5.47,7.91-2.82,10.83,1.72,1.88,12.66-3.88,14.92-8.03.74-1.37,3.11-6.52-12.1-2.81Z" fill="#ffbf42"></path><path class="cls-4" d="M458.2,265.69c-4.11-8.6,15.2-6.12,18.66-1.74,5.87,7.43-15.49,8.32-18.66,1.74Z" fill="#ffe8bb"></path><path class="cls-4" d="M559.36,246.47c-4.11-8.59,13.87-23.41,17.34-19.02,5.87,7.42-14.17,25.61-17.34,19.02Z" fill="#ffe8bb"></path><path class="cls-4" d="M568.9,198.43c-4.11-8.6,17.57-6.73,16.4-.58-3.82,20.12-8.24,17.61-16.4.58Z" fill="#ffe8bb"></path><path class="cls-4" d="M571.8,165.34c.31-9.52,16.46-2.26,19.92,2.12,9.36,11.86-20.63,19.33-19.92-2.12Z" fill="#ffe8bb"></path><path class="cls-4" d="M578.6,140.65c-4.1-8.59,26.2-9.36,23.07.98-4.38,14.45-17.25,11.15-23.07-.98Z" fill="#ffe8bb"></path><path class="cls-4" d="M590.42,114.7c-4.1-8.6,27.01-12.23,23.06.99-4.31,14.45-17.23,11.14-23.06-.99Z" fill="#ffe8bb"></path><path class="cls-4" d="M585.34,95.02c-6.84-15.72,52.87-14.9,39.3.26-5.8,6.49-36.02,7.32-39.3-.26Z" fill="#ffe8bb"></path><path class="cls-4" d="M618.6,67.98c-1.2-2.77-1.17-17.6,10.88-17.6,13.17,0,10.17,9.52,9.28,15.12-1.39,8.8-16.89,10.05-20.16,2.48Z" fill="#ffe8bb"></path><path class="cls-4" d="M612.36,37.59c-3.8-8.74,6.32-8.71,9.68-4.21,5.2,6.98-6.39,11.8-9.68,4.21Z" fill="#ffe8bb"></path><path class="cls-4" d="M603.66,21.19c-3.8-8.76,6.33-8.7,9.68-4.19,5.21,6.95-6.39,11.77-9.68,4.19Z" fill="#ffe8bb"></path><path class="cls-4" d="M623.25,15.67c-3.81-8.74,6.32-8.7,9.68-4.2,5.2,6.97-6.39,11.79-9.68,4.2Z" fill="#ffe8bb"></path><path class="cls-4" d="M631.66,34.95c-3.79-8.74,6.34-8.68,9.68-4.19,5.21,6.97-6.38,11.79-9.68,4.19Z" fill="#ffe8bb"></path><path class="cls-4" d="M486.48,273.09c-3.1-9.06,15.58,3.74,19.05,8.12,5.87,7.42-15.31,2.82-19.05-8.12Z" fill="#ffe8bb"></path><path class="cls-4" d="M521.15,306.53c-3.11-9.06,13.2-.85,15.99,8.78,2.62,9.09-12.26,2.15-15.99-8.78Z" fill="#ffe8bb"></path><path class="cls-4" d="M536.41,385.82c.54-12.27,13.91-6.96,8.92,5.47-3.36,8.41-9.54,9.32-8.92-5.47Z" fill="#ffe8bb"></path><path class="cls-4" d="M533.93,334.16c.53-12.27,9.25-6.77,10.02,6.03.55,9.03-10.66,8.76-10.02-6.03Z" fill="#ffe8bb"></path><path class="cls-4" d="M538.95,360.09c1.54-11.78,9.52-1.93,10.17,2.84,1.09,8.07-12.02,11.35-10.17-2.84Z" fill="#ffe8bb"></path><path class="cls-4" d="M521.5,431.64c-3.27-12.32,17.39-31.4,16.32-18.88-.49,5.78-13.76,28.52-16.32,18.88Z" fill="#ffe8bb"></path><path class="cls-4" d="M493.34,457.24c.86-8.21,16.98-15.25,17.58-11.87,2.4,13.41-19.46,29.65-17.58,11.87Z" fill="#ffe8bb"></path><path class="cls-4" d="M461.5,483.28c1.46-10.27,21.76-18.19,20.8-9.62-.78,6.99-22.58,22-20.8,9.62Z" fill="#ffe8bb"></path><path class="cls-4" d="M431.62,491.25c1.46-10.27,17.76-4.16,18.24-.02.83,7-20,12.39-18.24.02Z" fill="#ffe8bb"></path><path class="cls-4" d="M403.26,496.8c1.21-8.86,17.15-5.48,17.6-1.9.76,6.05-19.08,12.58-17.6,1.9Z" fill="#ffe8bb"></path><path class="cls-6" d="M333.26,244.15C191.04,27.76,72.76-7.9,23.99,1.29-6.94,7.12-6.65,55.82,17.33,93.12c67.62,105.21,31.22,190.46,108.46,172.56,24.83-5.78,188.55-21.13,207.47-21.53Z" fill="#1a1626"></path><path class="cls-6" d="M330.56,243.55c-131.18-28.37-202.95,39.34-221.06,75.39-54.78,109.05,120.55,252.7,163.76,166.94,16.43-32.63,27.82-92.09,52.25-135.74,13.71-24.48,5.05-106.59,5.05-106.59Z" fill="#1a1626"></path><path class="cls-8" d="M324.95,272.48c-10.29,28.07-5.43,75.5-9.55,85.15-4.12,9.67-47.12,131.17-51.23,131.17s-5.25-.81-4.88-4c.26-2.16,29.87-68.71,46.28-128.66,8.17-29.87-1.13-58.38,17.75-88.19,6.33-10,3.97-1.84,1.64,4.53Z" fill="#ffd817"></path><path class="cls-8" d="M318.92,270.3c-12.52,29.56-16.16,75.57-18.7,85.84-7.59,30.7-41.21,118.88-43.89,122.23-8.72,10.83-15.83-.11-15.46-3.32.22-1.88,28.05-58.82,44.61-110.24,11.66-36.22,15.15-80.9,33.66-100.41,8.04-8.47,2.42-.34-.23,5.9Z" fill="#ffd817"></path><path class="cls-8" d="M284.31,346.01c-3.69,31.51-46.49,123.76-49.18,127.09-8.7,10.83-27.62-1.01-27.24-4.22.22-1.89,24.21-130.71,97.94-193.68,8.82-7.54-15.99,23.6-21.52,70.81Z" fill="#ffd817"></path><path class="cls-8" d="M242.34,349.06c8.74-7.04-29.86,41.73-39.4,115.52-1.83,14.16-25.99-3.9-25.98-14.91,0-1.89,18.56-44.2,27.84-72.32,3.76-11.41,10.24-6.22,37.54-28.28Z" fill="#ffd817"></path><path class="cls-8" d="M202.2,372.25c4.9.87-23.02,44.59-27.09,69.15-2.32,14.08-25.98-3.91-25.98-14.89,0-1.89,27.58-43.64,33.13-50.19,4.07-4.83,14.89-4.98,19.95-4.08Z" fill="#ffd817"></path><path class="cls-1" d="M185.48,366.68c-3,4.27-29.27,30.14-41.25,51.54-3.8,6.77-14.05-15.35-14.04-26.33,0-1.9,44.05-49.28,66.05-63.04,5.24-3.28.06,22.48-10.76,37.83Z" fill="#ffb117"></path><path class="cls-1" d="M201.77,318.97c-4.71,3.65-53.99,40.01-74.42,59.48-6.47,6.16-1.22-32.94,2.84-38.81,1.28-1.82,60.71-36.13,88.01-47.3,6.39-2.61.52,13.54-16.42,26.62Z" fill="#ffb117"></path><path class="cls-1" d="M222.15,285.94c-3.11,5.26-45.55,15.69-86.44,42.63-7.37,4.85,3.8-20.45,7.88-26.31,1.26-1.83,53.42-41.49,95.28-29.92,6.59,1.81-9.97,2.17-16.72,13.6Z" fill="#ffb117"></path><path class="cls-7" d="M247.68,268.28c-4.82,2.1-15.32-2.85-39.59-.76-2.4.2-8.99-6.76-7.3-8.07,1.73-1.34,78.37-17.35,120.23-5.77,2.26.62-3.08,15-8.29,13.23-30.17-10.22-55.06-2.96-65.04,1.36Z" fill="#f2841e"></path><path class="cls-7" d="M201.28,248.35c-2.41.22-9.56-7.25-7.87-8.57,1.71-1.33,97.54-7.62,130.09,6.67,2.16.96,3.48,5.98-1.74,4.21-30.17-10.22-96.22-4.39-120.47-2.3Z" fill="#f2841e"></path><path class="cls-7" d="M114.09,239.08c-3.6.27-18.17-9.03-18.17-12.84.01-6.4-3.08-22.4,0-23.91,16.1-7.81,99.62-21.04,126.61-13.41,2.25.63,105.92,56.63,100.8,54.58-45.2-18.26-151.01-8.82-209.24-4.41Z" fill="#f2841e"></path><path class="cls-3" d="M102.93,190.92c-5.62,1.2-13.36-9.23-13.36-13.83,0-7.21,14.41-24.28,20.03-26.67,1.97-.85,41.17-6.61,59.18-2.81,2.29.47,43.65,34.82,38.19,34.3-17.96-1.72-80.16,3.94-104.04,9.01Z" fill="#e6591c"></path><path class="cls-11" d="M216.91,179.7c-5.32-2.25-44.73-33.79-46.64-37.93-2.62-5.66-26.52-39.36-20.6-38.12,2.1.44,49.44,16.65,92.52,59.78,1.7,1.71,62.19,65.37,57.85,61.77-14.22-11.87-60.49-35.89-83.13-45.5Z" fill="#c21413"></path><path class="cls-11" d="M307.88,229.91c-2.66-2.38-51.41-59.98-62.42-70.42-6.84-6.48-44.24-39.13-80.16-55.86-12.58-5.86,33.4.65,94.2,52.55,1.83,1.55,67.38,81.62,61.94,82.15-1.52.15-8.7-4.08-13.56-8.43Z" fill="#c21413"></path><path class="cls-11" d="M108.11,140.84c-5.99.08-24.62-10.62-24.54-14.03.14-5.86-2.26-30.66,1.81-33.69,1.76-1.3,29.85,1.69,47.89,5.41,2.28.47,31.2,42.76,25.74,42.31-17.25-1.41-26.57-.3-50.9,0Z" fill="#c21413"></path><path class="cls-1" d="M250.5,333.32c-8.2,14.76-42.56,30.6-44.84,31.5-7.44,2.95-14.9,1.93-14.61.22,1.21-7.03,10.73-14.35,10.92-38.47.05-6.6,23.05-16.1,24.99-38.73.66-7.63,47.29-30.08,80.05-19.27,6.67,2.2-26.73,11.1-56.5,64.76Z" fill="#ffb117"></path><path class="cls-11" d="M96.86,69.36c3.8-8.76-16.63-10.88-48.07-9.17-2.06.1-.65,13.55,2.32,14.96,9.03,4.3,43.26-.08,45.74-5.79Z" fill="#c21413"></path><path class="cls-11" d="M101.21,52.49c3.8-8.74-12.42-15.5-46.73-16.58-2.07-.07-5.19,17.19-1.97,17.03,15.64-.75,46.22,5.26,48.7-.45Z" fill="#c21413"></path><path class="cls-11" d="M114.7,36.7c3.84-6.95-5.9-14.29-43.73-22.25-1.63-.34-10.58,11.93-7.82,12.16,13.64,1.15,49.04,14.6,51.56,10.09Z" fill="#c21413"></path><path class="cls-4" d="M134.64,47.79c1.74-3.04,18.06,7.99,15.96,14.56-1.36,4.27-17.88-.58-22.1-6.34-1.38-1.89,5.46-7.04,6.13-8.22Z" fill="#ffe8bb"></path><path class="cls-4" d="M170.08,67.67c3.72.2,20.41,14.26,15.77,19.56-3.01,3.43-22.8-6.55-26.63-13.94-1.25-2.44,7.31-5.82,10.86-5.62Z" fill="#ffe8bb"></path><path class="cls-4" d="M196.89,93.23c4.32-1.71,34.02,19.99,28,24.8-3.92,3.11-29.28-7.81-35.88-16.18-2.18-2.74,6.22-7.98,7.88-8.62Z" fill="#ffe8bb"></path><path class="cls-10" d="M131.98,68.27c18.26,1.7,36.05,19.54,32.87,23.07-2.08,2.27-28.87-4.92-31.6-9.95-.9-1.64-2.24-13.21-1.27-13.12Z" fill="#ffbf42"></path><path class="cls-10" d="M124.54,66.8c2.46.61,2.63,13.84.82,13.93-2.96.18-19.59-3.34-22.32-8.35-.89-1.65,3.1-10.08,21.5-5.58Z" fill="#ffbf42"></path><path class="cls-10" d="M120.26,51.69c2.04.5,5.47,7.91,2.82,10.83-1.72,1.88-12.66-3.88-14.92-8.03-.74-1.37-3.11-6.52,12.1-2.81Z" fill="#ffbf42"></path><path class="cls-4" d="M197.14,265.69c4.11-8.6-15.2-6.12-18.66-1.74-5.87,7.43,15.49,8.32,18.66,1.74Z" fill="#ffe8bb"></path><path class="cls-4" d="M95.98,246.47c4.11-8.59-13.87-23.41-17.34-19.02-5.87,7.42,14.17,25.61,17.34,19.02Z" fill="#ffe8bb"></path><path class="cls-4" d="M86.44,198.43c4.11-8.6-17.57-6.73-16.4-.58,3.82,20.12,8.24,17.61,16.4.58Z" fill="#ffe8bb"></path><path class="cls-4" d="M83.54,165.34c-.32-9.52-16.46-2.26-19.92,2.12-9.36,11.86,20.63,19.33,19.92-2.12Z" fill="#ffe8bb"></path><path class="cls-4" d="M76.74,140.65c4.1-8.59-26.2-9.36-23.07.98,4.37,14.45,17.25,11.15,23.07-.98Z" fill="#ffe8bb"></path><path class="cls-4" d="M64.91,114.7c4.11-8.6-27-12.23-23.06.99,4.32,14.45,17.24,11.14,23.06-.99Z" fill="#ffe8bb"></path><path class="cls-4" d="M69.99,95.02c6.84-15.72-52.87-14.9-39.3.26,5.8,6.49,36.02,7.32,39.3-.26Z" fill="#ffe8bb"></path><path class="cls-4" d="M36.73,67.98c1.2-2.77,1.18-17.6-10.88-17.6-13.17,0-10.17,9.52-9.28,15.12,1.4,8.8,16.89,10.05,20.16,2.48Z" fill="#ffe8bb"></path><path class="cls-4" d="M42.98,37.59c3.8-8.74-6.32-8.71-9.68-4.21-5.2,6.98,6.39,11.8,9.68,4.21Z" fill="#ffe8bb"></path><path class="cls-4" d="M51.68,21.19c3.8-8.76-6.33-8.7-9.68-4.19-5.21,6.95,6.39,11.77,9.68,4.19Z" fill="#ffe8bb"></path><path class="cls-4" d="M32.09,15.67c3.81-8.74-6.32-8.7-9.68-4.2-5.2,6.97,6.39,11.79,9.68,4.2Z" fill="#ffe8bb"></path><path class="cls-4" d="M23.68,34.95c3.79-8.74-6.34-8.68-9.68-4.19-5.21,6.97,6.38,11.79,9.68,4.19Z" fill="#ffe8bb"></path><path class="cls-4" d="M168.86,273.09c3.1-9.06-15.59,3.74-19.05,8.12-5.87,7.42,15.31,2.82,19.05-8.12Z" fill="#ffe8bb"></path><path class="cls-4" d="M134.19,306.53c3.11-9.06-13.21-.85-15.99,8.78-2.62,9.09,12.26,2.15,15.99-8.78Z" fill="#ffe8bb"></path><path class="cls-4" d="M118.92,385.82c-.53-12.27-13.9-6.96-8.92,5.47,3.37,8.41,9.55,9.32,8.92-5.47Z" fill="#ffe8bb"></path><path class="cls-4" d="M121.41,334.16c-.53-12.27-9.25-6.77-10.02,6.03-.55,9.03,10.66,8.76,10.02-6.03Z" fill="#ffe8bb"></path><path class="cls-4" d="M116.39,360.09c-1.54-11.78-9.52-1.93-10.17,2.84-1.09,8.07,12.02,11.35,10.17-2.84Z" fill="#ffe8bb"></path><path class="cls-4" d="M133.84,431.64c3.27-12.32-17.39-31.4-16.32-18.88.49,5.78,13.76,28.52,16.32,18.88Z" fill="#ffe8bb"></path><path class="cls-4" d="M162,457.24c-.86-8.21-16.98-15.25-17.58-11.87-2.4,13.41,19.45,29.65,17.58,11.87Z" fill="#ffe8bb"></path><path class="cls-4" d="M193.82,483.28c-1.46-10.27-21.76-18.19-20.8-9.62.79,6.99,22.58,22,20.8,9.62Z" fill="#ffe8bb"></path><path class="cls-4" d="M223.71,491.25c-1.46-10.27-17.77-4.16-18.25-.02-.83,7,20.01,12.39,18.25.02Z" fill="#ffe8bb"></path><path class="cls-4" d="M252.08,496.8c-1.21-8.86-17.15-5.48-17.6-1.9-.76,6.05,19.08,12.58,17.6,1.9Z" fill="#ffe8bb"></path><path class="cls-2" d="M377.74,65.87c-24.1,31.34-25.57,82.64-39.59,99.16-1.31,1.54-6.72-12.18-6.09-2.07.26,3.92-2.1,5.9-4.39,5.94-2.29-.04-4.65-2.02-4.4-5.94.65-10.11-4.77,3.61-6.08,2.07-14.02-16.52-15.48-67.82-39.59-99.16-8.64-11.21-25.06-1.48-1.18,4.31,23.9,33.06,16.36,54.4,37.23,101.55-5.11,9.14-6.69,19.59-.97,25.81-9.27,11.59-17.53,123.9-7.34,157.01,2.71,8.81,6.24,96.74,22.33,96.74s19.62-87.93,22.33-96.74c10.19-33.1,1.93-145.42-7.34-157.01,5.72-6.22,4.14-16.67-.97-25.81,20.86-47.14,13.33-68.48,37.23-101.55,23.88-5.79,7.45-15.52-1.18-4.31Z" fill="url(#1776585740486-7306543_radial-gradient)" fill-rule="evenodd"></path><path class="cls-5" d="M346.34,352.62s-19.96,5.48-37.42-.22c0,0,0,6.4,1.68,11.2,12.62,5.39,33.92,1.12,33.92,1.12,0,0,2.36-6.51,1.81-12.1Z" style="isolation:isolate" fill="#ffe8bb" opacity=".2"></path><path class="cls-5" d="M344.29,368.87s-17.77,5.48-33.31-.22c0,0,0,6.4,1.5,11.2,11.22,5.39,30.18,1.12,30.18,1.12,0,0,2.11-6.5,1.64-12.1Z" style="isolation:isolate" fill="#ffe8bb" opacity=".2"></path><path class="cls-5" d="M342.3,386.59s-15.64,4.3-29.32-.16c0,0,0,5.01,1.32,8.78,9.88,4.22,26.57.87,26.57.87,0,0,1.84-5.09,1.42-9.48Z" style="isolation:isolate" fill="#ffe8bb" opacity=".2"></path><path class="cls-5" d="M340.68,402.86s-13.91,4.29-26.09-.17c0,0,0,5.02,1.17,8.78,8.79,4.22,23.65.88,23.65.88,0,0,1.65-5.09,1.27-9.48Z" style="isolation:isolate" fill="#ffe8bb" opacity=".2"></path><path class="cls-5" d="M338.42,417.84s-11.49,4.79-21.54-.19c0,0,0,5.61.97,9.81,7.26,4.71,19.51.98,19.51.98,0,0,1.36-5.69,1.06-10.6Z" style="isolation:isolate" fill="#ffe8bb" opacity=".2"></path><path class="cls-4" d="M338.51,187.7c-2.83-2.91-8.56.24-5.19,5.95,2.58,4.36,9.97-1.03,5.19-5.95Z" fill="#ffe8bb"></path><path class="cls-4" d="M316.28,193.65c2.58,4.37,9.98-1.03,5.19-5.95-2.84-2.92-8.55.24-5.19,5.95Z" fill="#ffe8bb"></path><path class="cls-4" d="M336.13,173.51c-2.21-2.39-6.67.2-4.05,4.87,2.02,3.57,7.79-.85,4.05-4.87Z" fill="#ffe8bb"></path><path class="cls-4" d="M318.79,178.37c2.01,3.58,7.79-.84,4.04-4.87-2.21-2.39-6.68.2-4.04,4.87Z" fill="#ffe8bb"></path><path class="cls-9" d="M330.87,282.01h-6.42s-8.7-64.47,0-78.32c1.14-1.8,5.28-1.8,6.42,0,8.7,13.85,0,78.32,0,78.32Z" style="isolation:isolate" opacity=".2" fill="url(#1776585740486-7306543_linear-gradient)"></path></g></svg>