<svg xmlns="http://www.w3.org/2000/svg" data-name="Layer 1" style="" viewBox="0 0 640 512"><g class="nc-icon-wrapper"><defs><linearGradient id="1776867897700-3467920_linear-gradient" x1="46.2" x2="121.01" y1="385.87" y2="385.87" gradientTransform="matrix(1 0 0 -1 0 526.8)" gradientUnits="userSpaceOnUse"><stop offset="0" stop-color="#d6e5ed"></stop><stop offset=".05" stop-color="#d1e0e7"></stop><stop offset=".48" stop-color="#a8b2b8"></stop><stop offset=".81" stop-color="#8f969a"></stop><stop offset="1" stop-color="#858c8f"></stop></linearGradient><linearGradient id="1776867897700-3467920_linear-gradient-2" x1="10.7" x2="629.4" y1="174.85" y2="174.85" gradientTransform="matrix(1 0 0 -1 0 526.8)" gradientUnits="userSpaceOnUse"><stop offset=".9" stop-color="#323844"></stop><stop offset="1" stop-color="#1a1626"></stop></linearGradient><linearGradient id="1776867897700-3467920_linear-gradient-3" x1="10.7" x2="629.4" y1="25.45" y2="25.45" gradientTransform="matrix(1 0 0 -1 0 526.8)" gradientUnits="userSpaceOnUse"><stop offset="0" stop-color="#7b8589"></stop><stop offset=".01" stop-color="#8d979b"></stop><stop offset=".03" stop-color="#aab3b8"></stop><stop offset=".06" stop-color="#bec8cc"></stop><stop offset=".08" stop-color="#cbd4d9"></stop><stop offset=".1" stop-color="#cfd8dd"></stop><stop offset=".9" stop-color="#cfd8dd"></stop><stop offset=".92" stop-color="#cbd4d9"></stop><stop offset=".94" stop-color="#bec8cc"></stop><stop offset=".97" stop-color="#aab3b8"></stop><stop offset=".99" stop-color="#8d979b"></stop><stop offset="1" stop-color="#7b8589"></stop></linearGradient><linearGradient id="1776867897700-3467920_linear-gradient-4" x1="10.6" x2="629.3" y1="356.15" y2="356.15" gradientTransform="matrix(1 0 0 -1 0 526.8)" gradientUnits="userSpaceOnUse"><stop offset="0" stop-color="#7b8589"></stop><stop offset=".01" stop-color="#8d979b"></stop><stop offset=".03" stop-color="#aab3b8"></stop><stop offset=".06" stop-color="#bec8cc"></stop><stop offset=".08" stop-color="#cbd4d9"></stop><stop offset=".1" stop-color="#cfd8dd"></stop><stop offset=".9" stop-color="#cfd8dd"></stop><stop offset=".92" stop-color="#cbd4d9"></stop><stop offset=".94" stop-color="#bec8cc"></stop><stop offset=".97" stop-color="#aab3b8"></stop><stop offset=".99" stop-color="#8d979b"></stop><stop offset="1" stop-color="#7b8589"></stop></linearGradient><linearGradient id="1776867897700-3467920_linear-gradient-5" x1="334.54" x2="497.46" y1="272.66" y2="109.74" gradientTransform="matrix(1 0 0 -1 0 526.8)" gradientUnits="userSpaceOnUse"><stop offset="0" stop-color="#302c3b"></stop><stop offset=".47" stop-color="#312e3d"></stop><stop offset=".75" stop-color="#363742"></stop><stop offset=".97" stop-color="#3f454b"></stop><stop offset="1" stop-color="#40474d"></stop></linearGradient><linearGradient id="1776867897700-3467920_linear-gradient-6" x1="10.7" x2="195.5" y1="174.85" y2="174.85" gradientTransform="matrix(1 0 0 -1 0 526.8)" gradientUnits="userSpaceOnUse"><stop offset="0" stop-color="#302c3b"></stop><stop offset=".02" stop-color="#33313f"></stop><stop offset=".1" stop-color="#3f4551"></stop><stop offset=".19" stop-color="#47535d"></stop><stop offset=".31" stop-color="#4c5b65"></stop><stop offset=".5" stop-color="#4e5e67"></stop><stop offset=".63" stop-color="#4a5862"></stop><stop offset=".8" stop-color="#414853"></stop><stop offset="1" stop-color="#302c3b"></stop><stop offset="1" stop-color="#302c3b"></stop></linearGradient><linearGradient id="1776867897700-3467920_linear-gradient-7" x1="173.65" x2="173.65" y1="179.5" y2="526.8" gradientTransform="matrix(1 0 0 -1 0 526.8)" gradientUnits="userSpaceOnUse"><stop offset="0" stop-color="#ff4d00"></stop><stop offset=".3" stop-color="#ff7400"></stop><stop offset=".58" stop-color="#ff9200"></stop><stop offset=".83" stop-color="#ffa400"></stop><stop offset="1" stop-color="#fa0"></stop></linearGradient><linearGradient id="1776867897700-3467920_linear-gradient-8" x1="172.55" x2="172.55" y1="262.4" y2="449.7" gradientTransform="matrix(1 0 0 -1 0 526.8)" gradientUnits="userSpaceOnUse"><stop offset="0" stop-color="#ffb500"></stop><stop offset=".09" stop-color="#ffba00"></stop><stop offset=".67" stop-color="#ffda00"></stop><stop offset="1" stop-color="#ffe600"></stop></linearGradient><linearGradient id="1776867897700-3467920_linear-gradient-9" x1="172.55" x2="172.55" y1="316.4" y2="395.7" gradientTransform="matrix(1 0 0 -1 0 526.8)" gradientUnits="userSpaceOnUse"><stop offset="0" stop-color="#fff1a3"></stop><stop offset=".16" stop-color="#fff4b6"></stop><stop offset=".53" stop-color="#fffade"></stop><stop offset=".82" stop-color="#fffef6"></stop><stop offset="1" stop-color="#fff"></stop></linearGradient><radialGradient id="1776867897700-3467920_radial-gradient" cx="117.03" cy="414.66" r="165.36" fx="117.03" fy="414.66" gradientTransform="rotate(45 3674.79 -1437.036) scale(1 -6)" gradientUnits="userSpaceOnUse"><stop offset=".23" stop-color="#effaff"></stop><stop offset=".37" stop-color="#e7f2f7"></stop><stop offset=".59" stop-color="#d1dce1"></stop><stop offset=".85" stop-color="#adb9bd"></stop><stop offset="1" stop-color="#96a2a6"></stop></radialGradient><radialGradient id="1776867897700-3467920_radial-gradient-2" cx="1194.53" cy="578.37" r="270.06" fx="1194.53" fy="578.37" gradientTransform="rotate(-52.41 -115.56 -429.006) scale(.59 -.66)" gradientUnits="userSpaceOnUse"><stop offset="0" stop-color="#fff" stop-opacity=".2"></stop><stop offset="1" stop-color="#fff" stop-opacity="0"></stop></radialGradient></defs><path d="M0 213.3h21.3V224H0zM618.7 213.3H640V224h-21.3z" class="cls-1" fill="#cfd8dd"></path><path d="M120.9 150.7H46.2s4.3-13.8 9.7-16c12.8-5.2 42.6-5.2 55.4 0 5.8 2.4 10.5 19 9.6 16" fill="url(#1776867897700-3467920_linear-gradient)"></path><path d="M72.6 129.3h21.9v21.3H72.6z" class="cls-1" fill="#cfd8dd"></path><path d="M10.7 213.3h618.7v277.3H10.7z" fill="url(#1776867897700-3467920_linear-gradient-2)"></path><path d="M608.3 512H31.7c-21 0-21-21.3-21-21.3h618.7c-.1 0-.1 21.3-21.1 21.3" fill="url(#1776867897700-3467920_linear-gradient-3)"></path><path d="M629.3 138.1 613.5 128h-305c-54.2 0-61.1 22.5-113.1 22.5H21.3c-10.7 0-10.7 9.1-10.7 9.1v53.7h618.7z" fill="url(#1776867897700-3467920_linear-gradient-4)"></path><path d="M316.5 456.7c0 15.8-12.8 28.7-28.7 28.7s-28.7-12.8-28.7-28.7 12.8-28.6 28.7-28.6c15.9-.1 28.7 12.8 28.7 28.6" fill="#99a8ae"></path><path d="M308.9 456.7c0 11.6-9.4 21.1-21.1 21.1s-21.1-9.4-21.1-21.1 9.4-21 21.1-21c11.7-.1 21.1 9.3 21.1 21" fill="#302c3b"></path><circle cx="416" cy="335.6" r="165.3" fill="url(#1776867897700-3467920_radial-gradient)"></circle><circle cx="416.06" cy="335.56" r="145.31" class="cls-12" fill="#1a1626"></circle><path d="M546.2 335.6c0 71.9-58.3 130.2-130.2 130.2s-130.3-58.3-130.3-130.2S344 205.3 416 205.3s130.2 58.3 130.2 130.3" fill="#25222e"></path><circle cx="416" cy="335.6" r="115.2" fill="url(#1776867897700-3467920_linear-gradient-5)"></circle><path d="M487.9 335.6c0 39.7-32.2 71.9-71.9 71.9s-71.9-32.2-71.9-71.9 32.2-71.9 71.9-71.9 71.9 32.2 71.9 71.9" style="isolation:isolate" opacity=".2" fill="#302c3b"></path><path d="M491.1 335.6c0 41.5-33.6 75.1-75.1 75.1s-75.2-33.6-75.2-75.1 33.6-75.1 75.2-75.1c41.5-.1 75.1 33.6 75.1 75.1" class="cls-2" fill="#35313d"></path><path d="M476.1 335.6c0 33.2-26.9 60.1-60.1 60.1s-60.1-26.9-60.1-60.1 26.9-60.1 60.1-60.1c33.2-.1 60.1 26.9 60.1 60.1" fill="#272430"></path><path d="M461.1 335.6c0 24.9-20.2 45.1-45.1 45.1s-45.1-20.2-45.1-45.1 20.2-45.1 45.1-45.1 45.1 20.1 45.1 45.1" fill="#2d2a36"></path><path d="M446.1 335.6c0 16.6-13.5 30.1-30.1 30.1s-30.1-13.5-30.1-30.1 13.5-30.1 30.1-30.1 30.1 13.5 30.1 30.1" class="cls-2" fill="#35313d"></path><path d="M426 335.6c0 5.5-4.5 10-10 10s-10-4.5-10-10 4.5-10 10-10c5.5-.1 10 4.4 10 10" class="cls-12" fill="#1a1626"></path><path d="M451.3 385.9c-40.4 31.1-95.5 27.3-123.1-8.6s-17.3-90.2 23.1-121.3c40.4-31.2 95.6-27.3 123.2 8.6 27.7 35.9 17.3 90.2-23.2 121.3" fill="url(#1776867897700-3467920_radial-gradient-2)"></path><path d="M10.7 213.3h184.8v277.3H10.7z" fill="url(#1776867897700-3467920_linear-gradient-6)"></path><path d="m242.6 192.2 104.7-58.1-117.5 5.1 34.9-72.1-63.6 45.3 7.8-99.4-46.3 81.9L92.9 0l29.9 118.3L18.3 83.5l83.3 76.2L0 179.4l97.4 22.2-54.6 97.5 89.4-54 3.7 102.2 36.6-93.3 49.3 73.8-2.8-88.7 84.9 32.4z" fill="url(#1776867897700-3467920_linear-gradient-7)"></path><path d="m212.2 183.4 61.3-28.5-68-2 18.2-40.4-36 20.6 1.3-55-24.2 45.9-36.4-46.9 15.9 59-60.7-15.3 49.6 42.8L71.6 178l56.4 13-39.8 61 61-41.3 1.7 53.7 21.9-49 24.7 36.6-.4-44.4 44.6 19.5z" fill="url(#1776867897700-3467920_linear-gradient-8)"></path><path d="m189.3 176.1 26-12-28.8-.9 7.7-17.1-15.2 8.7.5-23.3-10.2 19.4-15.4-19.8 6.7 25-25.7-6.5 21 18.1-26.1 6.2 23.9 5.5-16.8 25.8 25.8-17.5.7 22.7 9.2-20.8 10.5 15.6-.1-18.8 18.8 8.3z" fill="url(#1776867897700-3467920_linear-gradient-9)"></path></g></svg>