<svg data-name="Layer 1" xmlns="http://www.w3.org/2000/svg" style="" viewBox="0 0 204.81 512"><g class="nc-icon-wrapper"><defs><linearGradient id="1777685730136-4022094_linear-gradient" x1="4.93" y1="337.14" x2="197.42" y2="337.14" gradientTransform="translate(0 2)" gradientUnits="userSpaceOnUse"><stop offset=".23" stop-color="#cfd8dd"></stop><stop offset=".55" stop-color="#c7d2d6"></stop><stop offset="1" stop-color="#b3c2c6"></stop></linearGradient><radialGradient id="1777685730136-4022094_radial-gradient" cx="99.47" cy="419.61" fx="99.47" fy="419.61" r="106.49" gradientTransform="matrix(1 0 0 .39 1.7 16.3)" gradientUnits="userSpaceOnUse"><stop offset=".63" stop-color="#f7f1ed"></stop><stop offset="1" stop-color="#d9e2e8"></stop></radialGradient><linearGradient id="1777685730136-4022094_linear-gradient-2" x1="98.91" y1="154.17" x2="98.91" y2="-2" gradientTransform="translate(0 2)" gradientUnits="userSpaceOnUse"><stop offset="0" stop-color="#ff7b00"></stop><stop offset=".24" stop-color="#fb6b00"></stop><stop offset=".71" stop-color="#f04200"></stop><stop offset="1" stop-color="#e82500"></stop></linearGradient><linearGradient id="1777685730136-4022094_linear-gradient-3" x1="98.47" y1="154.17" x2="98.47" y2="19.33" gradientTransform="translate(0 2)" gradientUnits="userSpaceOnUse"><stop offset="0" stop-color="#fa0"></stop><stop offset=".17" stop-color="#ffa400"></stop><stop offset=".42" stop-color="#ff9200"></stop><stop offset=".7" stop-color="#ff7400"></stop><stop offset="1" stop-color="#ff4d00"></stop></linearGradient><linearGradient id="1777685730136-4022094_linear-gradient-4" x1="-993.53" y1="154.17" x2="-993.53" y2="39.93" gradientTransform="matrix(-1 0 0 1 -897.43 2)" gradientUnits="userSpaceOnUse"><stop offset="0" stop-color="#ffb500"></stop><stop offset=".09" stop-color="#ffba00"></stop><stop offset=".67" stop-color="#ffda00"></stop><stop offset="1" stop-color="#ffe600"></stop></linearGradient><linearGradient id="1777685730136-4022094_linear-gradient-5" x1="-993.87" y1="148.96" x2="-993.87" y2="59.82" gradientTransform="matrix(-1 0 0 1 -897.43 2)" gradientUnits="userSpaceOnUse"><stop offset=".24" stop-color="#fff2ab"></stop><stop offset=".36" stop-color="#fff1a5"></stop><stop offset=".52" stop-color="#ffef92"></stop><stop offset=".72" stop-color="#ffec74"></stop><stop offset=".93" stop-color="#ffe74b"></stop><stop offset="1" stop-color="#ffe53b"></stop></linearGradient><linearGradient id="1777685730136-4022094_linear-gradient-6" x1="98.46" y1="183.09" x2="98.46" y2="121.9" gradientTransform="translate(0 2)" gradientUnits="userSpaceOnUse"><stop offset=".23" stop-color="#f3f3f3"></stop><stop offset=".25" stop-color="#d5d5d7"></stop><stop offset=".27" stop-color="#afadb3"></stop><stop offset=".3" stop-color="#8c8a92"></stop><stop offset=".32" stop-color="#706d77"></stop><stop offset=".36" stop-color="#585561"></stop><stop offset=".39" stop-color="#464350"></stop><stop offset=".43" stop-color="#393644"></stop><stop offset=".49" stop-color="#322e3d"></stop><stop offset=".61" stop-color="#302c3b"></stop><stop offset=".62" stop-color="#4e473b"></stop><stop offset=".65" stop-color="#776c3b"></stop><stop offset=".68" stop-color="#9c8d3b"></stop><stop offset=".71" stop-color="#bba83b"></stop><stop offset=".75" stop-color="#d4be3b"></stop><stop offset=".79" stop-color="#e7d03b"></stop><stop offset=".83" stop-color="#f5dc3b"></stop><stop offset=".89" stop-color="#fde33b"></stop><stop offset="1" stop-color="#ffe53b"></stop></linearGradient></defs><path class="cls-8" d="M4.93,166.28v310.35c0,47.16,192.48,47.16,192.48,0V166.28H4.93Z" fill="url(#1777685730136-4022094_linear-gradient)"></path><path class="cls-7" d="M201.8,178.32c11.6-33.25-159.64-53.94-196.86-12.04-12.63,14.23,3.65,21.25-1.82,41.19-15.08,54.94,29.7-16.71,26.14,17.78-4.85,46.84-19.41,111.82,3.57,106.22,12.04-2.94-.26-50.94,9.1-88.8,6.79-27.47,38.52-26.72,44.96-8.35,28.72,81.85,81.21-65.82,88.69-.54,4.4,38.4-11.32,143.21,16.24,131.74,29.24-12.18-17.15-112.38,5.6-138.67,19.39-22.4-6.78-16.5,4.39-48.53h-.01Z" fill="url(#1777685730136-4022094_radial-gradient)"></path><path class="cls-1" d="M178.45,175.99c-23.44,34.71-127.39,31.28-150.29,1.89-13.2-16.91,33.32-30.17,73.02-20.33,50.13,12.42,84.65,7.48,77.27,18.44" fill="#cfd8dd"></path><path class="cls-6" d="M96.42,0c-9.94,55.87-100.81,156.17-.83,156.17,89.41,0,49.36-119.98.83-156.17" fill="url(#1777685730136-4022094_linear-gradient-2)"></path><path class="cls-5" d="M102.54,21.33c-6.72,28.71-88.18,134.84-6.94,134.84,75.07,0,30.03-109.42,6.94-134.84" fill="url(#1777685730136-4022094_linear-gradient-3)"></path><path class="cls-4" d="M95.59,156.17c-55.98,0-8.51-86.08,12.16-114.24,2.17,53.36,39.84,114.24-12.16,114.24" fill="url(#1777685730136-4022094_linear-gradient-4)"></path><path class="cls-2" d="M96.47,150.96c-24.67,0-16.15-52.65,8.06-89.14-2.88,43.24,21.46,89.14-8.06,89.14" fill="url(#1777685730136-4022094_linear-gradient-5)"></path><path class="cls-3" d="M105.22,182.68c-1.2,4.06-7.68,2.61-6.83-1.54,7.83-37.54-6.85-42.01-8.93-52.46-.61-3.15,10.04-5.71,10.11-4.46.44,7.18,12.93,34.1,5.64,58.46h.01Z" fill="url(#1777685730136-4022094_linear-gradient-6)"></path></g></svg>