<svg data-name="Layer 1" xmlns="http://www.w3.org/2000/svg" style="" viewBox="0 0 511.87 512"><g class="nc-icon-wrapper"><defs><radialGradient id="1776585740478-9143562_radial-gradient" cx="318.21" cy="1005.46" fx="318.21" fy="1005.46" r="166.98" gradientTransform="matrix(1 0 0 .65 0 -338.26)" gradientUnits="userSpaceOnUse"><stop offset="0" stop-color="#ff5e9c"></stop><stop offset=".4" stop-color="#ff5c9b"></stop><stop offset=".61" stop-color="#ff5496"></stop><stop offset=".78" stop-color="#fe468e"></stop><stop offset=".93" stop-color="#fd3382"></stop><stop offset="1" stop-color="#fd267a"></stop></radialGradient><linearGradient id="1776585740478-9143562_linear-gradient" x1="115.17" y1="833.2" x2="136.16" y2="833.2" gradientTransform="translate(0 -512)" gradientUnits="userSpaceOnUse"><stop offset="0" stop-color="#b3c3cc"></stop><stop offset=".17" stop-color="#afbfc8"></stop><stop offset=".36" stop-color="#a4b2bb"></stop><stop offset=".56" stop-color="#919ea5"></stop><stop offset=".76" stop-color="#768187"></stop><stop offset=".97" stop-color="#545c60"></stop><stop offset="1" stop-color="#4e5559"></stop></linearGradient><radialGradient id="1776585740478-9143562_radial-gradient-2" cx="318.21" cy="797.68" fx="318.21" fy="797.68" r="174.69" gradientTransform="matrix(1 0 0 .61 0 -319.3)" gradientUnits="userSpaceOnUse"><stop offset="0" stop-color="#57e5ff"></stop><stop offset=".21" stop-color="#52e1ff"></stop><stop offset=".45" stop-color="#44d5ff"></stop><stop offset=".71" stop-color="#2cc1ff"></stop><stop offset=".98" stop-color="#0ba6ff"></stop><stop offset="1" stop-color="#08a3ff"></stop></radialGradient><linearGradient id="1776585740478-9143562_linear-gradient-2" x1="115.17" y1="686.04" x2="136.16" y2="686.04" gradientTransform="translate(0 -512)" gradientUnits="userSpaceOnUse"><stop offset="0" stop-color="#b3c3cc"></stop><stop offset=".17" stop-color="#afbfc8"></stop><stop offset=".36" stop-color="#a4b2bb"></stop><stop offset=".56" stop-color="#919ea5"></stop><stop offset=".76" stop-color="#768187"></stop><stop offset=".97" stop-color="#545c60"></stop><stop offset="1" stop-color="#4e5559"></stop></linearGradient><linearGradient id="1776585740478-9143562_linear-gradient-3" x1="1654.29" y1="754.39" x2="1173.64" y2="754.39" gradientTransform="matrix(-.04 0 0 1 84.32 -477.98)" gradientUnits="userSpaceOnUse"><stop offset="0" stop-color="#ffe285"></stop><stop offset=".15" stop-color="#ffe285"></stop><stop offset=".19" stop-color="#ffe080"></stop><stop offset=".55" stop-color="#ffca54"></stop><stop offset=".84" stop-color="#ffbd38"></stop><stop offset="1" stop-color="#ffb82e"></stop></linearGradient></defs><path class="cls-2" d="M34.3,0c-5.12,0-8.87,1.71-11.26,5.12s-3.58,7.42-3.58,12.03,1.19,8.62,3.58,12.03,6.14,5.12,11.26,5.12c-5.8,0-10.15-1.71-13.05-5.12s-4.35-7.42-4.35-12.03,1.45-8.62,4.35-12.03S28.49,0,34.3,0ZM34.3,0c5.46,0,9.64,1.71,12.54,5.12s4.35,7.42,4.35,12.03-1.45,8.62-4.35,12.03-7.08,5.12-12.54,5.12c4.78,0,8.45-1.71,11.01-5.12s3.84-7.42,3.84-12.03-1.28-8.62-3.84-12.03S39.07,0,34.3,0Z" fill="#f9c802"></path><path class="cls-2" d="M30.2,16.89c0-4.44.68-8.36,2.05-11.77,1.36-3.41,2.05-5.12,2.05-5.12,0,0,.6,1.71,1.79,5.12s1.79,7.34,1.79,11.77c0,4.78-.6,8.87-1.79,12.28s-1.79,5.12-1.79,5.12c0,0-.68-1.71-2.05-5.12-1.36-3.41-2.05-7.51-2.05-12.28Z" fill="#f9c802"></path><path class="cls-2" d="M31.22.51c-3.75,3.75-5.63,9.3-5.63,16.64s1.88,12.88,5.63,16.64c-4.44-1.02-7.34-4.09-8.7-9.21s-1.36-10.15,0-15.1S26.79,1.54,31.22.51ZM37.37,33.78c3.41-3.75,5.12-9.3,5.12-16.64s-1.71-12.88-5.12-16.64c4.09,1.02,6.82,4.01,8.19,8.96s1.36,9.98,0,15.1-4.09,8.19-8.19,9.21Z" fill="#f9c802"></path><path class="cls-1" d="M35.32,490.37l-4.09-1.02c15.7-46.07,26.79-87.96,33.27-125.66,6.48-37.71,9.81-71.58,9.98-101.61.17-30.03-1.62-56.14-5.37-78.32-3.75-22.18-8.19-40.61-13.31-55.28s-9.64-25.76-13.56-33.27-6.06-11.26-6.4-11.26l4.09-2.05c0,.34,2.05,4.18,6.14,11.52s8.7,18.51,13.82,33.53c5.12,15.01,9.55,33.7,13.31,56.05,3.75,22.35,5.55,48.63,5.37,78.83s-3.5,64.33-9.98,102.37c-6.48,38.05-17.57,80.11-33.27,126.18Z" fill="#cfd8dd"></path><path class="cls-8" d="M149.98,278.97c.68,0,4.18.09,10.49.26s14.08.09,23.29-.26c9.21-.34,18.34-1.45,27.39-3.33s16.64-4.86,22.78-8.96c.34,0,3.58-.51,9.73-1.54s13.48-1.71,22.01-2.05c8.53-.34,16.89-.09,25.08.77,8.19.85,14.5,2.82,18.94,5.89,5.8,1.02,11.26,2.99,16.38,5.89s10.75,5.97,16.89,9.21,13.91,5.97,23.29,8.19,21.24,3.33,35.58,3.33c2.73,0,7.93-1.36,15.61-4.09s16.81-5.89,27.39-9.47c10.58-3.58,21.58-6.65,33.02-9.21,11.43-2.56,22.1-3.67,31.99-3.33-1.71,9.9-4.69,17.66-8.96,23.29s-8.36,10.32-12.28,14.08c-3.92,3.75-5.89,7.68-5.89,11.77,0,2.39,2.13,5.89,6.4,10.49s8.45,10.07,12.54,16.38,5.97,13.56,5.63,21.75c-13.65.68-27.39,0-41.21-2.05-13.82-2.05-26.79-4.44-38.9-7.17s-22.1-4.27-29.94-4.61c-23.89-2.05-42.49-2.05-55.79,0-13.31,2.05-24.23,4.95-32.76,8.7-1.02.34-4.86.85-11.52,1.54s-14.67,1.19-24.06,1.54-19.11.6-29.18.77c-10.07.17-19.2-.09-27.39-.77-8.19-.68-14.16-1.71-17.92-3.07-5.12-1.71-12.03-3.58-20.73-5.63s-17.23-4.44-25.59-7.17-14.25-6.14-17.66-10.24c-3.07-3.41-5.29-8.36-6.65-14.84s-1.71-13.14-1.02-19.96c.68-6.82,2.82-12.71,6.4-17.66s9.13-7.76,16.64-8.45Z" fill="url(#1776585740478-9143562_radial-gradient)"></path><path class="cls-13" d="M203.21,307.64c0,6.48-1.88,11.43-5.63,14.84s-8.1,5.12-13.05,5.12-9.3-1.71-13.05-5.12-5.63-8.36-5.63-14.84c0-6.82,1.88-11.86,5.63-15.1s8.1-4.86,13.05-4.86,9.3,1.62,13.05,4.86,5.63,8.28,5.63,15.1Z" fill="#fff"></path><path class="cls-11" d="M200.14,307.12c0,7.51-2.73,12.46-8.19,14.84s-10.92,2.39-16.38,0-8.19-7.34-8.19-14.84,2.73-12.46,8.19-14.84,10.92-2.39,16.38,0,8.19,7.34,8.19,14.84Z" fill="#c20067"></path><path class="cls-14" d="M194.51,309.68c0,5.8-2.13,9.64-6.4,11.52s-8.53,1.88-12.8,0-6.4-5.72-6.4-11.52,2.13-9.73,6.4-11.77,8.53-2.05,12.8,0,6.4,5.97,6.4,11.77Z" fill="#93e67f"></path><path class="cls-17" d="M186.32,312.24c0,3.41-1.19,5.72-3.58,6.91s-4.86,1.19-7.42,0-3.84-3.5-3.84-6.91,1.28-5.63,3.84-6.65,5.03-1.02,7.42,0,3.58,3.24,3.58,6.65Z" fill="#302c3b"></path><path class="cls-11" d="M375.2,351.66c4.78-1.71,7.85-4.69,9.21-8.96s1.37-8.53,0-12.8-4.44-7.08-9.21-8.45c7.17,0,11.86,2.47,14.08,7.42s2.22,9.9,0,14.84-6.91,7.59-14.08,7.93Z" fill="#c20067"></path><path class="cls-11" d="M382.88,326.06c4.09-2.73,6.14-6.31,6.14-10.75s-1.37-8.53-4.09-12.28c-2.73-3.75-6.48-5.63-11.26-5.63,5.46-1.71,9.98-1.19,13.56,1.54s5.97,6.23,7.17,10.49.94,8.1-.77,11.52-5.29,5.12-10.75,5.12Z" fill="#c20067"></path><path class="cls-11" d="M367.52,331.69c3.07-1.36,5.12-3.92,6.14-7.68s1.02-7.51,0-11.26-3.07-6.31-6.14-7.68c5.8.34,9.64,2.64,11.52,6.91s1.88,8.53,0,12.8c-1.88,4.27-5.72,6.57-11.52,6.91Z" fill="#c20067"></path><path class="cls-11" d="M360.36,319.41c3.07-1.36,5.12-3.92,6.14-7.68s1.02-7.51,0-11.26c-1.02-3.75-3.07-6.31-6.14-7.68,5.12,0,8.53,2.22,10.24,6.65s1.71,8.79,0,13.05-5.12,6.57-10.24,6.91ZM359.33,348.07c3.07-1.36,5.12-3.84,6.14-7.42s1.02-7.25,0-11.01-3.07-6.31-6.14-7.68c5.46,0,9.04,2.22,10.75,6.65s1.71,8.79,0,13.05-5.29,6.4-10.75,6.4Z" fill="#c20067"></path><path class="cls-11" d="M351.14,333.23c3.07-1.36,5.12-3.92,6.14-7.68s1.02-7.42,0-11.01-3.07-6.06-6.14-7.42c5.46,0,9.04,2.13,10.75,6.4s1.71,8.62,0,13.05-5.29,6.65-10.75,6.65Z" fill="#c20067"></path><path class="cls-11" d="M344.49,315.83c3.07-1.36,5.12-3.92,6.14-7.68s1.02-7.51,0-11.26-3.07-6.31-6.14-7.68c4.44,0,7.42,2.22,8.96,6.65,1.54,4.44,1.54,8.79,0,13.05s-4.52,6.57-8.96,6.91ZM341.93,347.56c2.73-1.36,4.61-3.92,5.63-7.68s1.02-7.42,0-11.01-2.9-6.06-5.63-7.42c5.12,0,8.62,2.13,10.49,6.4s1.88,8.62,0,13.05-5.37,6.65-10.49,6.65Z" fill="#c20067"></path><path class="cls-11" d="M327.09,349.61c4.78-1.71,7.17-5.63,7.17-11.77s-2.39-10.24-7.17-12.28c5.46,0,9.04,2.05,10.75,6.14s1.71,8.1,0,12.03-5.29,5.89-10.75,5.89Z" fill="#c20067"></path><path class="cls-11" d="M334.25,331.69c3.07-1.36,5.12-3.92,6.14-7.68s1.02-7.51,0-11.26-3.07-6.31-6.14-7.68c5.46.34,9.13,2.64,11.01,6.91s1.88,8.53,0,12.8c-1.88,4.27-5.55,6.57-11.01,6.91ZM335.79,304.05c4.44-1.71,6.65-5.29,6.65-10.75s-2.22-8.87-6.65-10.24c5.12,0,8.45,1.71,9.98,5.12s1.54,6.82,0,10.24-4.86,5.29-9.98,5.63Z" fill="#c20067"></path><path class="cls-11" d="M327.09,316.34c3.07-1.36,5.12-3.92,6.14-7.68s1.02-7.51,0-11.26-3.07-6.31-6.14-7.68c5.46,0,9.21,2.22,11.26,6.65,2.05,4.44,2.05,8.79,0,13.05-2.05,4.27-5.8,6.57-11.26,6.91Z" fill="#c20067"></path><path class="cls-11" d="M319.41,335.28c3.07-1.36,5.12-3.92,6.14-7.68s1.02-7.51,0-11.26-3.07-6.31-6.14-7.68c5.12,0,8.62,2.22,10.49,6.65s1.88,8.79,0,13.05-5.37,6.57-10.49,6.91Z" fill="#c20067"></path><path class="cls-11" d="M311.73,353.7c3.07-1.36,5.12-3.92,6.14-7.68s1.02-7.51,0-11.26-3.07-6.31-6.14-7.68c5.46,0,9.13,2.22,11.01,6.65s1.88,8.79,0,13.05c-1.88,4.27-5.55,6.57-11.01,6.91ZM318.38,304.05c3.07-1.36,5.12-3.92,6.14-7.68s1.02-7.51,0-11.26-3.07-6.31-6.14-7.68c5.8,0,9.55,2.22,11.26,6.65s1.71,8.79,0,13.05c-1.71,4.27-5.46,6.57-11.26,6.91Z" fill="#c20067"></path><path class="cls-11" d="M310.71,290.74c4.44-1.71,6.65-5.12,6.65-10.24s-2.22-8.36-6.65-9.73c5.12,0,8.62,1.62,10.49,4.86s1.88,6.57,0,9.98-5.37,5.12-10.49,5.12ZM297.91,355.75c3.07-1.36,5.12-3.92,6.14-7.68s1.02-7.51,0-11.26-3.07-6.31-6.14-7.68c5.8.34,9.64,2.64,11.52,6.91s1.88,8.62,0,13.05-5.72,6.65-11.52,6.65Z" fill="#c20067"></path><path class="cls-11" d="M303.54,306.1c3.07-1.36,5.12-3.92,6.14-7.68s1.02-7.51,0-11.26-3.07-6.31-6.14-7.68c5.46.34,9.04,2.64,10.75,6.91s1.71,8.53,0,12.8-5.29,6.57-10.75,6.91Z" fill="#c20067"></path><path class="cls-11" d="M295.35,291.26c3.07-1.36,5.12-3.92,6.14-7.68s1.02-7.51,0-11.26-3.07-6.31-6.14-7.68c5.12,0,8.45,2.22,9.98,6.65s1.54,8.79,0,13.05-4.86,6.57-9.98,6.91Z" fill="#c20067"></path><path class="cls-11" d="M287.16,307.12c3.07-1.36,5.12-3.92,6.14-7.68,1.02-3.75,1.02-7.51,0-11.26s-3.07-6.31-6.14-7.68c5.46,0,9.13,2.22,11.01,6.65s1.88,8.79,0,13.05c-1.88,4.27-5.55,6.57-11.01,6.91Z" fill="#c20067"></path><path class="cls-11" d="M277.95,290.23c3.07-1.36,5.12-3.92,6.14-7.68s1.02-7.51,0-11.26-3.07-6.31-6.14-7.68c5.46.34,9.13,2.64,11.01,6.91,1.88,4.27,1.88,8.62,0,13.05s-5.55,6.65-11.01,6.65Z" fill="#c20067"></path><path class="cls-11" d="M270.27,306.61c3.07-1.36,5.12-3.92,6.14-7.68s1.02-7.51,0-11.26-3.07-6.31-6.14-7.68c5.46.34,9.13,2.64,11.01,6.91s1.88,8.62,0,13.05c-1.88,4.44-5.55,6.65-11.01,6.65Z" fill="#c20067"></path><path class="cls-11" d="M261.06,290.74c3.07-1.36,5.12-3.92,6.14-7.68s1.02-7.51,0-11.26-3.07-6.31-6.14-7.68c5.46.34,9.04,2.64,10.75,6.91s1.71,8.53,0,12.8-5.29,6.57-10.75,6.91Z" fill="#c20067"></path><path class="cls-11" d="M252.35,309.17c3.07-1.36,5.12-3.84,6.14-7.42s1.02-7.25,0-11.01-3.07-6.31-6.14-7.68c5.46,0,9.04,2.13,10.75,6.4,1.71,4.27,1.71,8.62,0,13.05-1.71,4.44-5.29,6.65-10.75,6.65Z" fill="#c20067"></path><path class="cls-11" d="M236.49,300.98c3.07-1.36,5.12-3.92,6.14-7.68s1.02-7.42,0-11.01-3.07-6.06-6.14-7.42c5.46,0,9.13,2.13,11.01,6.4s1.88,8.62,0,13.05-5.55,6.65-11.01,6.65Z" fill="#c20067"></path><path class="cls-11" d="M245.19,290.74c3.07-1.36,5.12-3.92,6.14-7.68s1.02-7.51,0-11.26-3.07-6.31-6.14-7.68c5.8.34,9.64,2.64,11.52,6.91s1.88,8.53,0,12.8-5.72,6.57-11.52,6.91ZM280.51,354.22c3.07-1.36,5.12-3.92,6.14-7.68s1.02-7.51,0-11.26-3.07-6.31-6.14-7.68c5.8,0,9.73,2.22,11.77,6.65s2.05,8.79,0,13.05-5.97,6.57-11.77,6.91Z" fill="#c20067"></path><path class="cls-11" d="M264.13,353.19c3.07-1.36,5.12-3.92,6.14-7.68s1.02-7.51,0-11.26-3.07-6.31-6.14-7.68c5.8,0,9.64,2.22,11.52,6.65s1.88,8.79,0,13.05-5.72,6.57-11.52,6.91Z" fill="#c20067"></path><path class="cls-11" d="M246.72,354.22c3.07-1.36,5.12-3.92,6.14-7.68s1.02-7.51,0-11.26-3.07-6.31-6.14-7.68c5.8,0,9.73,2.22,11.77,6.65s2.05,8.79,0,13.05-5.97,6.57-11.77,6.91ZM230.34,354.73c3.07-1.36,5.12-3.84,6.14-7.42s1.02-7.25,0-11.01-3.07-6.31-6.14-7.68c5.12,0,8.62,2.13,10.49,6.4s1.88,8.62,0,13.05-5.37,6.65-10.49,6.65Z" fill="#c20067"></path><path class="cls-18" d="M149.98,278.97c-8.19,12.63-12.63,22.27-13.31,28.92s.51,11.52,3.58,14.59,6.31,5.37,9.73,6.91,5.12,3.33,5.12,5.37c0,3.07-1.28,4.69-3.84,4.86s-5.12-.6-7.68-2.3-3.84-3.92-3.84-6.65c0,5.8,1.62,9.73,4.86,11.77s6.65,2.39,10.24,1.02,5.55-3.75,5.89-7.17-.77-6.06-3.33-7.93-5.29-3.67-8.19-5.37-4.78-4.09-5.63-7.17.43-7.51,3.84-13.31c.68,5.8,3.92,11.86,9.73,18.17s12.71,11.09,20.73,14.33,15.78,3.33,23.29.26c1.71-1.36,2.73.09,3.07,4.35s0,8.96-1.02,14.08-2.56,8.36-4.61,9.73c-3.75,2.05-9.47,2.82-17.15,2.3s-15.7-1.62-24.06-3.33c-8.36-1.71-15.53-3.41-21.5-5.12-5.97-1.71-9.13-2.73-9.47-3.07-2.73-6.82-5.72-11.77-8.96-14.84s-5.37-7.85-6.4-14.33c-1.71-11.94.77-22.78,7.42-32.5,6.65-9.73,17.15-14.25,31.48-13.56Z" fill="#e6ebef"></path><path class="cls-11" d="M390.56,308.66c-2.05-.68-.6-2.13,4.35-4.35,4.95-2.22,11.69-4.69,20.22-7.42,8.53-2.73,17.32-5.46,26.36-8.19s17.06-4.95,24.06-6.65c7-1.71,11.18-2.56,12.54-2.56,1.71.34,0,1.54-5.12,3.58s-11.86,4.61-20.22,7.68-17.06,6.14-26.11,9.21-16.98,5.46-23.8,7.17-10.92,2.22-12.28,1.54ZM391.58,315.83c-1.71-.68-.26-1.88,4.35-3.58s10.92-3.5,18.94-5.37c8.02-1.88,16.38-3.75,25.08-5.63,8.7-1.88,16.38-3.33,23.03-4.35,6.65-1.02,10.66-1.36,12.03-1.02s-.34,1.36-5.12,3.07-11.09,3.58-18.94,5.63c-7.85,2.05-16.12,4.09-24.83,6.14-8.7,2.05-16.29,3.58-22.78,4.61-6.48,1.02-10.41,1.19-11.77.51ZM388,324.02c-1.71-.68-.51-1.62,3.58-2.82s9.73-2.3,16.89-3.33c7.17-1.02,14.59-2.05,22.27-3.07,7.68-1.02,14.33-1.71,19.96-2.05s8.79-.34,9.47,0c1.37.68.09,1.54-3.84,2.56s-9.38,2.13-16.38,3.33c-7,1.19-14.16,2.3-21.5,3.33s-13.91,1.71-19.71,2.05-9.38.34-10.75,0ZM466.83,330.16c-1.37-.68-5.2-1.36-11.52-2.05s-13.65-1.19-22.01-1.54-16.38-.6-24.06-.77-13.82,0-18.43.51-6.23,1.28-4.86,2.3c1.02,1.02,4.69,1.88,11.01,2.56s13.56,1.11,21.75,1.28,16.21.17,24.06,0,14.16-.51,18.94-1.02,6.48-.94,5.12-1.28ZM388.51,336.81c-1.71-1.36-.09-1.96,4.86-1.79s11.77.77,20.47,1.79,17.57,2.22,26.62,3.58c9.04,1.36,16.98,2.64,23.8,3.84,6.82,1.19,10.75,2.13,11.77,2.82,1.37,1.02-.51,1.36-5.63,1.02s-11.94-.94-20.47-1.79c-8.53-.85-17.23-1.79-26.11-2.82-8.87-1.02-16.64-2.22-23.29-3.58s-10.66-2.39-12.03-3.07ZM388,343.98c-2.05-1.36-.26-1.71,5.37-1.02s13.22,1.88,22.78,3.58,19.28,3.58,29.18,5.63,18.51,4.01,25.85,5.89c7.34,1.88,11.35,3.16,12.03,3.84,1.37,1.02-.77,1.19-6.4.51-5.63-.68-13.05-1.79-22.27-3.33-9.21-1.54-18.68-3.33-28.41-5.37-9.73-2.05-18.17-3.92-25.34-5.63-7.17-1.71-11.43-3.07-12.8-4.09Z" fill="#c20067"></path><path class="cls-18" d="M487.81,271.8c7.85-2.05,15.87-2.73,24.06-2.05-.68,8.53-3.33,15.95-7.93,22.27-4.61,6.31-9.13,11.69-13.56,16.12-4.44,4.44-6.65,8.02-6.65,10.75,0,3.07,2.05,6.23,6.14,9.47s8.19,7.93,12.28,14.08,6.14,14.84,6.14,26.11c0,0-1.79.09-5.37.26s-7.25-.09-11.01-.77c0-10.92-2.39-19.28-7.17-25.08s-9.55-10.41-14.33-13.82-7.17-7.17-7.17-11.26c0-3.41,1.37-6.4,4.09-8.96s5.8-5.29,9.21-8.19,6.31-6.57,8.7-11.01c2.39-4.44,3.24-10.41,2.56-17.92Z" fill="#e6ebef"></path><path class="cls-16" d="M234.44,266.69c3.41-8.19,9.47-12.97,18.17-14.33s18.17-.34,28.41,3.07,19.79,8.19,28.66,14.33c-2.05,0-10.07-.77-24.06-2.3-13.99-1.54-31.05-1.79-51.19-.77Z" fill="#e81566"></path><path class="cls-13" d="M240.58,304.05s3.58-.68,10.75-2.05c7.17-1.36,15.7-2.82,25.59-4.35,9.9-1.54,18.94-2.99,27.13-4.35,8.19-1.36,13.14-1.88,14.84-1.54,2.73.34,4.27,3.07,4.61,8.19s-.43,10.75-2.3,16.89-4.86,10.58-8.96,13.31c-3.07,2.39-8.36,3.92-15.87,4.61-7.51.68-15.44.77-23.8.26s-15.78-1.45-22.27-2.82c-6.48-1.36-10.41-2.9-11.77-4.61-1.36-2.05-1.88-4.95-1.54-8.7s1.02-7.17,2.05-10.24l1.54-4.61Z" fill="#fff"></path><path class="cls-16" d="M241.6,312.24c-2.05-1.02-1.28-2.13,2.3-3.33s8.79-2.3,15.61-3.33c6.82-1.02,14.08-2.05,21.75-3.07,7.68-1.02,14.5-1.79,20.47-2.3s9.81-.77,11.52-.77.68.6-3.07,1.79-9.04,2.47-15.87,3.84c-6.82,1.36-13.91,2.73-21.24,4.09-7.34,1.36-13.99,2.39-19.96,3.07-5.97.68-9.81.68-11.52,0ZM240.58,318.38c-2.39-.68-1.71-1.45,2.05-2.3s9.13-1.54,16.12-2.05c7-.51,14.33-.94,22.01-1.28s14.5-.43,20.47-.26,9.64.43,11.01.77c1.71.34.68.94-3.07,1.79s-9.04,1.62-15.87,2.3c-6.82.68-13.99,1.19-21.5,1.54s-14.16.51-19.96.51-9.55-.34-11.26-1.02ZM240.58,325.04c-2.39-.68-1.79-1.19,1.79-1.54s8.7-.51,15.36-.51,13.56.17,20.73.51c7.17.34,13.48.68,18.94,1.02s8.7.85,9.73,1.54c2.05,1.02.26,1.71-5.37,2.05s-12.8.43-21.5.26c-8.7-.17-16.98-.51-24.83-1.02-7.85-.51-12.8-1.28-14.84-2.3Z" fill="#e81566"></path><path class="cls-16" d="M197.58,343.98c-1.02-1.36-.34-3.58,2.05-6.65s5.2-6.48,8.45-10.24,5.97-7.42,8.19-11.01,2.82-6.74,1.79-9.47c-1.02-3.75-.17-6.74,2.56-8.96s5.97-3.5,9.73-3.84,6.65.68,8.7,3.07c3.41,4.44,5.03,8.1,4.86,11.01s-.68,5.72-1.54,8.45-.94,5.97-.26,9.73c1.02,4.44.34,7.42-2.05,8.96s-5.12,2.82-8.19,3.84-5.12,3.24-6.14,6.65c-1.36,5.8-5.46,8.28-12.28,7.42s-12.11-3.84-15.87-8.96Z" fill="#e81566"></path><path class="cls-14" d="M207.31,339.88c4.44-2.05,8.87-6.91,13.31-14.59s5.8-15.27,4.09-22.78c3.41,3.41,4.69,8.36,3.84,14.84s-3.24,12.2-7.17,17.15-8.62,6.74-14.08,5.37Z" fill="#93e67f"></path><path class="cls-9" d="M127.97,288.18c2.73,0,4.09,2.56,4.09,7.68s-.34,11.35-1.02,18.68c-.68,7.34-.85,14.67-.51,22.01s2.22,13.22,5.63,17.66c-9.21-6.14-15.27-13.65-18.17-22.52s-3.33-17.32-1.28-25.34c2.05-8.02,5.8-14.08,11.26-18.17Z" fill="url(#1776585740478-9143562_linear-gradient)"></path><path class="cls-1" d="M136.16,354.22c-20.47-8.87-35.49-15.44-45.04-19.71-9.55-4.27-15.7-7.34-18.43-9.21s-4.09-3.84-4.09-5.89c0-2.73,4.69-6.57,14.08-11.52,9.38-4.95,24.48-11.52,45.3-19.71,1.71-.34,2.64.17,2.82,1.54s.26,2.05.26,2.05c0,0-2.9,1.11-8.7,3.33-5.8,2.22-12.46,4.95-19.96,8.19-7.51,3.24-14.16,6.4-19.96,9.47s-8.7,5.46-8.7,7.17,2.99,4.18,8.96,7.42c5.97,3.24,12.97,6.48,20.99,9.73,8.02,3.24,15.01,6.06,20.99,8.45s8.96,3.58,8.96,3.58c0,0,.43.43,1.28,1.28s1.28,2.13,1.28,3.84Z" fill="#cfd8dd"></path><path class="cls-3" d="M149.98,132.58c.68,0,4.18.09,10.49.26s14.08,0,23.29-.51,18.34-1.71,27.39-3.58,16.64-4.86,22.78-8.96c.34,0,3.58-.43,9.73-1.28s13.48-1.54,22.01-2.05c8.53-.51,16.89-.34,25.08.51s14.5,2.82,18.94,5.89c5.8,1.37,11.26,3.41,16.38,6.14s10.75,5.72,16.89,8.96,13.91,6.06,23.29,8.45,21.24,3.58,35.58,3.58c2.73,0,7.93-1.37,15.61-4.09s16.81-5.89,27.39-9.47,21.58-6.74,33.02-9.47c11.43-2.73,22.1-3.92,31.99-3.58-1.71,10.24-4.69,18.17-8.96,23.8s-8.36,10.24-12.28,13.82-5.89,7.42-5.89,11.52c0,2.73,2.13,6.31,6.4,10.75s8.45,9.81,12.54,16.12,5.97,13.74,5.63,22.27c-13.65.68-27.39-.09-41.21-2.3s-26.79-4.61-38.9-7.17-22.1-4.18-29.94-4.86c-23.89-2.05-42.49-2.05-55.79,0s-24.23,4.95-32.76,8.7c-1.02.34-4.86.85-11.52,1.54s-14.67,1.19-24.06,1.54-19.11.6-29.18.77-19.2,0-27.39-.51-14.16-1.45-17.92-2.82c-5.12-2.05-12.03-4.09-20.73-6.14s-17.23-4.44-25.59-7.17-14.25-6.14-17.66-10.24c-3.07-3.41-5.29-8.36-6.65-14.84-1.36-6.48-1.71-13.14-1.02-19.96s2.82-12.71,6.4-17.66,9.13-7.59,16.64-7.93Z" fill="url(#1776585740478-9143562_radial-gradient-2)"></path><path class="cls-13" d="M203.21,161.24c0,6.48-1.88,11.43-5.63,14.84s-8.1,5.12-13.05,5.12-9.3-1.71-13.05-5.12-5.63-8.36-5.63-14.84c0-6.82,1.88-11.86,5.63-15.1s8.1-4.86,13.05-4.86,9.3,1.62,13.05,4.86,5.63,8.28,5.63,15.1Z" fill="#fff"></path><path class="cls-10" d="M200.14,160.22c0,7.51-2.73,12.54-8.19,15.1s-10.92,2.56-16.38,0-8.19-7.59-8.19-15.1,2.73-12.46,8.19-14.84,10.92-2.39,16.38,0,8.19,7.34,8.19,14.84Z" fill="#014d87"></path><path class="cls-6" d="M194.51,162.78c0,5.8-2.13,9.64-6.4,11.52-4.27,1.88-8.53,1.88-12.8,0-4.27-1.88-6.4-5.72-6.4-11.52s2.13-9.64,6.4-11.52,8.53-1.88,12.8,0,6.4,5.72,6.4,11.52Z" fill="#ffe12c"></path><path class="cls-17" d="M186.32,165.33c0,3.41-1.19,5.72-3.58,6.91-2.39,1.19-4.86,1.19-7.42,0-2.56-1.19-3.84-3.5-3.84-6.91,0-3.07,1.28-5.2,3.84-6.4s5.03-1.19,7.42,0,3.58,3.33,3.58,6.4Z" fill="#302c3b"></path><path class="cls-7" d="M375.2,204.75c4.78-1.71,7.85-4.69,9.21-8.96s1.37-8.53,0-12.8-4.44-7.08-9.21-8.45c7.17,0,11.86,2.47,14.08,7.42s2.22,9.9,0,14.84-6.91,7.59-14.08,7.93Z" fill="#006dae"></path><path class="cls-7" d="M382.88,179.16c4.09-2.73,6.14-6.31,6.14-10.75s-1.37-8.45-4.09-12.03-6.48-5.55-11.26-5.89c5.46-1.37,9.98-.77,13.56,1.79s5.97,5.97,7.17,10.24.94,8.1-.77,11.52c-1.71,3.41-5.29,5.12-10.75,5.12Z" fill="#006dae"></path><path class="cls-7" d="M367.52,184.79c3.07-1.36,5.12-3.92,6.14-7.68s1.02-7.51,0-11.26-3.07-6.14-6.14-7.17c5.8,0,9.64,2.13,11.52,6.4s1.88,8.62,0,13.05-5.72,6.65-11.52,6.65Z" fill="#006dae"></path><path class="cls-7" d="M360.36,172.5c3.07-1.37,5.12-3.92,6.14-7.68s1.02-7.51,0-11.26-3.07-6.31-6.14-7.68c5.12,0,8.53,2.22,10.24,6.65s1.71,8.79,0,13.05-5.12,6.57-10.24,6.91ZM359.33,201.68c3.07-1.36,5.12-3.92,6.14-7.68s1.02-7.51,0-11.26-3.07-6.31-6.14-7.68c5.46,0,9.04,2.22,10.75,6.65s1.71,8.79,0,13.05-5.29,6.57-10.75,6.91Z" fill="#006dae"></path><path class="cls-7" d="M351.14,186.83c3.07-1.36,5.12-3.92,6.14-7.68s1.02-7.42,0-11.01-3.07-6.06-6.14-7.42c5.46,0,9.04,2.13,10.75,6.4s1.71,8.62,0,13.05-5.29,6.65-10.75,6.65Z" fill="#006dae"></path><path class="cls-7" d="M344.49,168.92c3.07-1.37,5.12-3.92,6.14-7.68s1.02-7.51,0-11.26-3.07-6.31-6.14-7.68c4.44.34,7.42,2.64,8.96,6.91s1.54,8.62,0,13.05-4.52,6.65-8.96,6.65ZM341.93,200.65c2.73-1.36,4.61-3.84,5.63-7.42s1.02-7.25,0-11.01-2.9-6.31-5.63-7.68c5.12,0,8.62,2.22,10.49,6.65s1.88,8.79,0,13.05-5.37,6.4-10.49,6.4Z" fill="#006dae"></path><path class="cls-7" d="M327.09,203.21c4.78-2.05,7.17-6.14,7.17-12.28s-2.39-10.24-7.17-12.28c5.46.34,9.04,2.47,10.75,6.4s1.71,7.85,0,11.77-5.29,6.06-10.75,6.4Z" fill="#006dae"></path><path class="cls-7" d="M334.25,184.79c3.07-1.36,5.12-3.92,6.14-7.68s1.02-7.51,0-11.26-3.07-6.14-6.14-7.17c5.46,0,9.13,2.13,11.01,6.4s1.88,8.62,0,13.05-5.55,6.65-11.01,6.65ZM335.79,157.14c4.44-1.71,6.65-5.2,6.65-10.49s-2.22-8.79-6.65-10.49c5.12,0,8.45,1.71,9.98,5.12s1.54,6.82,0,10.24-4.86,5.29-9.98,5.63Z" fill="#006dae"></path><path class="cls-7" d="M327.09,169.43c3.07-1.37,5.12-3.92,6.14-7.68s1.02-7.51,0-11.26-3.07-6.31-6.14-7.68c5.46.34,9.21,2.64,11.26,6.91s2.05,8.62,0,13.05-5.8,6.65-11.26,6.65Z" fill="#006dae"></path><path class="cls-7" d="M319.41,188.37c3.07-1.36,5.12-3.92,6.14-7.68s1.02-7.51,0-11.26c-1.02-3.75-3.07-6.31-6.14-7.68,5.12,0,8.62,2.22,10.49,6.65s1.88,8.79,0,13.05-5.37,6.57-10.49,6.91Z" fill="#006dae"></path><path class="cls-7" d="M311.73,206.8c3.07-1.36,5.12-3.92,6.14-7.68s1.02-7.51,0-11.26-3.07-6.31-6.14-7.68c5.46,0,9.13,2.22,11.01,6.65s1.88,8.79,0,13.05-5.55,6.57-11.01,6.91ZM318.38,157.14c3.07-1.37,5.12-3.92,6.14-7.68s1.02-7.51,0-11.26-3.07-6.31-6.14-7.68c5.8,0,9.55,2.22,11.26,6.65s1.71,8.79,0,13.05-5.46,6.57-11.26,6.91Z" fill="#006dae"></path><path class="cls-7" d="M310.71,143.84c4.44-1.71,6.65-5.12,6.65-10.24s-2.22-8.36-6.65-9.73c5.12,0,8.62,1.62,10.49,4.86s1.88,6.57,0,9.98-5.37,5.12-10.49,5.12ZM297.91,208.84c3.07-1.36,5.12-3.92,6.14-7.68s1.02-7.42,0-11.01-3.07-6.06-6.14-7.42c5.8,0,9.64,2.13,11.52,6.4s1.88,8.62,0,13.05-5.72,6.65-11.52,6.65Z" fill="#006dae"></path><path class="cls-7" d="M303.54,159.19c3.07-1.37,5.12-3.92,6.14-7.68s1.02-7.51,0-11.26-3.07-6.31-6.14-7.68c5.46.34,9.04,2.64,10.75,6.91s1.71,8.62,0,13.05-5.29,6.65-10.75,6.65Z" fill="#006dae"></path><path class="cls-7" d="M295.35,144.35c3.07-1.37,5.12-3.92,6.14-7.68s1.02-7.51,0-11.26-3.07-6.31-6.14-7.68c5.12.34,8.45,2.64,9.98,6.91s1.54,8.62,0,13.05-4.86,6.65-9.98,6.65Z" fill="#006dae"></path><path class="cls-7" d="M286.65,160.22c3.07-1.36,5.12-3.92,6.14-7.68s1.02-7.51,0-11.26-3.07-6.31-6.14-7.68c5.46.34,9.13,2.64,11.01,6.91s1.88,8.62,0,13.05-5.55,6.65-11.01,6.65Z" fill="#006dae"></path><path class="cls-7" d="M277.95,143.32c3.07-1.37,5.12-3.92,6.14-7.68s1.02-7.51,0-11.26-3.07-6.14-6.14-7.17c5.46,0,9.13,2.13,11.01,6.4s1.88,8.62,0,13.05-5.55,6.65-11.01,6.65Z" fill="#006dae"></path><path class="cls-7" d="M270.27,159.7c3.07-1.37,5.12-3.92,6.14-7.68s1.02-7.42,0-11.01-3.07-6.06-6.14-7.42c5.46,0,9.13,2.13,11.01,6.4s1.88,8.62,0,13.05-5.55,6.65-11.01,6.65Z" fill="#006dae"></path><path class="cls-7" d="M261.06,143.84c3.07-1.37,5.12-3.92,6.14-7.68s1.02-7.51,0-11.26-3.07-6.31-6.14-7.68c5.46.34,9.04,2.64,10.75,6.91s1.71,8.62,0,13.05-5.29,6.65-10.75,6.65Z" fill="#006dae"></path><path class="cls-7" d="M252.35,162.26c3.07-1.02,5.12-3.41,6.14-7.17s1.02-7.51,0-11.26-3.07-6.31-6.14-7.68c5.46,0,9.04,2.22,10.75,6.65,1.71,4.44,1.71,8.79,0,13.05-1.71,4.27-5.29,6.4-10.75,6.4Z" fill="#006dae"></path><path class="cls-7" d="M236.49,154.07c3.07-1.37,5.12-3.84,6.14-7.42s1.02-7.25,0-11.01-3.07-6.31-6.14-7.68c5.46,0,9.13,2.22,11.01,6.65s1.88,8.79,0,13.05-5.55,6.4-11.01,6.4Z" fill="#006dae"></path><path class="cls-7" d="M245.19,143.84c3.07-1.37,5.12-3.92,6.14-7.68s1.02-7.51,0-11.26-3.07-6.31-6.14-7.68c5.8.34,9.64,2.64,11.52,6.91s1.88,8.62,0,13.05-5.72,6.65-11.52,6.65ZM280.51,207.31c3.07-1.36,5.12-3.92,6.14-7.68s1.02-7.51,0-11.26-3.07-6.31-6.14-7.68c5.8.34,9.73,2.64,11.77,6.91s2.05,8.62,0,13.05-5.97,6.65-11.77,6.65Z" fill="#006dae"></path><path class="cls-7" d="M264.13,206.28c3.07-1.36,5.12-3.92,6.14-7.68s1.02-7.51,0-11.26-3.07-6.31-6.14-7.68c5.8.34,9.64,2.64,11.52,6.91s1.88,8.62,0,13.05-5.72,6.65-11.52,6.65Z" fill="#006dae"></path><path class="cls-7" d="M246.72,207.31c3.07-1.36,5.12-3.92,6.14-7.68s1.02-7.51,0-11.26-3.07-6.31-6.14-7.68c5.8.34,9.73,2.64,11.77,6.91s2.05,8.62,0,13.05-5.97,6.65-11.77,6.65ZM230.34,207.82c3.07-1.36,5.12-3.84,6.14-7.42s1.02-7.25,0-11.01-3.07-6.31-6.14-7.68c5.12,0,8.62,2.22,10.49,6.65s1.88,8.79,0,13.05-5.37,6.4-10.49,6.4Z" fill="#006dae"></path><path class="cls-18" d="M149.98,132.58c-8.19,12.28-12.63,21.75-13.31,28.41s.51,11.52,3.58,14.59,6.31,5.37,9.73,6.91,5.12,3.33,5.12,5.37c0,3.41-1.28,5.2-3.84,5.37s-5.12-.68-7.68-2.56-3.84-4.18-3.84-6.91c0,6.14,1.62,10.15,4.86,12.03s6.65,2.13,10.24.77,5.55-3.75,5.89-7.17-.77-6.06-3.33-7.93-5.29-3.67-8.19-5.37-4.78-4.09-5.63-7.17.43-7.51,3.84-13.31c.68,5.8,3.92,11.86,9.73,18.17,5.8,6.31,12.71,11.18,20.73,14.59s15.78,3.41,23.29,0c1.71-1.02,2.73.51,3.07,4.61s0,8.7-1.02,13.82-2.56,8.36-4.61,9.73c-3.75,2.39-9.47,3.33-17.15,2.82s-15.7-1.62-24.06-3.33-15.53-3.5-21.5-5.37c-5.97-1.88-9.13-2.99-9.47-3.33-2.73-6.82-5.72-11.69-8.96-14.59s-5.37-7.59-6.4-14.08c-1.71-12.28.77-23.29,7.42-33.02,6.65-9.73,17.15-14.08,31.48-13.05Z" fill="#e6ebef"></path><path class="cls-7" d="M390.56,162.26c-2.05-1.02-.6-2.64,4.35-4.86s11.69-4.69,20.22-7.42c8.53-2.73,17.32-5.46,26.36-8.19s17.06-4.95,24.06-6.65,11.18-2.56,12.54-2.56c1.71.34,0,1.54-5.12,3.58s-11.86,4.69-20.22,7.93-17.06,6.31-26.11,9.21-16.98,5.2-23.8,6.91-10.92,2.39-12.28,2.05ZM391.58,168.92c-1.71-.68-.26-1.79,4.35-3.33s10.92-3.33,18.94-5.37c8.02-2.05,16.38-4.01,25.08-5.89s16.38-3.33,23.03-4.35,10.66-1.37,12.03-1.02-.34,1.37-5.12,3.07-11.09,3.58-18.94,5.63-16.12,4.09-24.83,6.14-16.29,3.58-22.78,4.61-10.41,1.19-11.77.51ZM388,177.11c-1.71-.68-.51-1.62,3.58-2.82s9.73-2.3,16.89-3.33,14.59-2.05,22.27-3.07,14.33-1.71,19.96-2.05,8.79-.34,9.47,0c1.37.68.09,1.62-3.84,2.82s-9.38,2.39-16.38,3.58c-7,1.19-14.16,2.22-21.5,3.07s-13.91,1.54-19.71,2.05-9.38.43-10.75-.26ZM466.83,183.25c-1.37-.68-5.2-1.28-11.52-1.79s-13.65-1.02-22.01-1.54-16.38-.85-24.06-1.02-13.82,0-18.43.51-6.23,1.45-4.86,2.82c1.02,1.02,4.69,1.79,11.01,2.3s13.56.85,21.75,1.02,16.21.17,24.06,0,14.16-.43,18.94-.77,6.48-.85,5.12-1.54ZM388.51,189.9c-1.71-1.36-.09-1.96,4.86-1.79s11.77.77,20.47,1.79,17.57,2.22,26.62,3.58,16.98,2.73,23.8,4.09,10.75,2.39,11.77,3.07c1.37.68-.51.94-5.63.77s-11.94-.68-20.47-1.54-17.23-1.88-26.11-3.07-16.64-2.39-23.29-3.58-10.66-2.3-12.03-3.33ZM388,197.07c-2.05-1.36-.26-1.71,5.37-1.02s13.22,1.88,22.78,3.58,19.28,3.58,29.18,5.63,18.51,4.01,25.85,5.89,11.35,3.16,12.03,3.84c1.37,1.02-.77,1.19-6.4.51s-13.05-1.79-22.27-3.33-18.68-3.33-28.41-5.37-18.17-3.92-25.34-5.63-11.43-3.07-12.8-4.09Z" fill="#006dae"></path><path class="cls-18" d="M487.81,125.41c7.85-2.05,15.87-2.73,24.06-2.05-.68,8.53-3.33,15.95-7.93,22.27-4.61,6.31-9.13,11.69-13.56,16.12-4.44,4.44-6.65,8.02-6.65,10.75,0,3.07,2.05,6.23,6.14,9.47s8.19,7.93,12.28,14.08,6.14,14.84,6.14,26.11c0,0-1.79.09-5.37.26s-7.25-.09-11.01-.77c0-10.92-2.39-19.28-7.17-25.08s-9.55-10.41-14.33-13.82-7.17-7.17-7.17-11.26c0-3.41,1.37-6.4,4.09-8.96s5.8-5.29,9.21-8.19,6.31-6.57,8.7-11.01c2.39-4.44,3.24-10.41,2.56-17.92Z" fill="#e6ebef"></path><path class="cls-10" d="M234.44,120.29c3.41-8.53,9.47-13.48,18.17-14.84s18.17-.26,28.41,3.33,19.79,8.45,28.66,14.59c-2.05-.34-10.07-1.28-24.06-2.82s-31.05-1.62-51.19-.26Z" fill="#014d87"></path><path class="cls-13" d="M240.58,157.14s3.58-.6,10.75-1.79,15.7-2.64,25.59-4.35,18.94-3.16,27.13-4.35,13.14-1.79,14.84-1.79c2.73.34,4.27,3.07,4.61,8.19s-.43,10.75-2.3,16.89-4.86,10.75-8.96,13.82c-3.07,2.05-8.36,3.41-15.87,4.09s-15.44.77-23.8.26-15.78-1.45-22.27-2.82-10.41-2.9-11.77-4.61c-1.36-2.05-1.88-4.95-1.54-8.7.34-3.75,1.02-7.17,2.05-10.24l1.54-4.61Z" fill="#fff"></path><path class="cls-7" d="M241.6,165.33c-2.05-1.02-1.28-2.13,2.3-3.33s8.79-2.3,15.61-3.33c6.82-1.02,14.08-2.05,21.75-3.07s14.5-1.79,20.47-2.3,9.81-.77,11.52-.77.68.6-3.07,1.79-9.04,2.56-15.87,4.09-13.91,2.9-21.24,4.09-13.99,2.13-19.96,2.82-9.81.68-11.52,0ZM240.58,171.48c-2.39-.68-1.71-1.45,2.05-2.3s9.13-1.54,16.12-2.05c7-.51,14.33-.85,22.01-1.02s14.5-.26,20.47-.26,9.64.17,11.01.51c1.71.68.68,1.37-3.07,2.05s-9.04,1.37-15.87,2.05-13.99,1.28-21.5,1.79-14.16.77-19.96.77-9.55-.51-11.26-1.54ZM240.58,178.64c-2.39-1.02-1.79-1.71,1.79-2.05s8.7-.51,15.36-.51,13.56.17,20.73.51,13.48.77,18.94,1.28,8.7.94,9.73,1.28c2.05,1.02.26,1.71-5.37,2.05s-12.8.43-21.5.26-16.98-.51-24.83-1.02c-7.85-.51-12.8-1.11-14.84-1.79Z" fill="#006dae"></path><path class="cls-12" d="M197.58,197.07c-1.02-1.36-.34-3.58,2.05-6.65s5.2-6.4,8.45-9.98,5.97-7.25,8.19-11.01c2.22-3.75,2.82-7,1.79-9.73-1.02-3.75-.17-6.74,2.56-8.96s5.97-3.5,9.73-3.84,6.65.85,8.7,3.58c3.41,4.09,5.03,7.68,4.86,10.75s-.68,5.89-1.54,8.45-.94,5.72-.26,9.47c1.02,4.44.34,7.42-2.05,8.96s-5.12,2.82-8.19,3.84-5.12,3.24-6.14,6.65c-1.36,5.8-5.46,8.36-12.28,7.68s-12.11-3.75-15.87-9.21Z" fill="#018bc9"></path><path class="cls-6" d="M207.31,193.49c4.44-2.05,8.87-6.91,13.31-14.59s5.8-15.27,4.09-22.78c3.41,3.41,4.69,8.36,3.84,14.84s-3.24,12.2-7.17,17.15-8.62,6.74-14.08,5.37Z" fill="#ffe12c"></path><path class="cls-5" d="M127.97,141.28c2.73,0,4.09,2.47,4.09,7.42s-.34,11.09-1.02,18.43c-.68,7.34-.85,14.67-.51,22.01s2.22,13.22,5.63,17.66c-9.21-6.14-15.27-13.56-18.17-22.27s-3.33-17.15-1.28-25.34,5.8-14.16,11.26-17.92Z" fill="url(#1776585740478-9143562_linear-gradient-2)"></path><path class="cls-1" d="M136.16,206.8c-20.47-8.87-35.75-15.36-45.81-19.45s-16.72-7-19.96-8.7-4.86-3.58-4.86-5.63c0-4.78,20.82-15.36,62.45-31.74,1.71-.34,2.64.09,2.82,1.28s.26,1.79.26,1.79c0,0-3.07,1.19-9.21,3.58s-13.22,5.2-21.24,8.45-15.1,6.48-21.24,9.73-9.21,5.55-9.21,6.91c0,1.71,3.24,4.18,9.73,7.42s13.82,6.48,22.01,9.73c8.19,3.24,15.53,6.06,22.01,8.45s9.73,3.58,9.73,3.58l1.28,1.28c.85.85,1.28,1.96,1.28,3.33Z" fill="#cfd8dd"></path><path class="cls-4" d="M25.59,34.02v477.98h17.05V34.02h-17.05Z" fill="url(#1776585740478-9143562_linear-gradient-3)"></path><path class="cls-15" d="M33.03,33.08v66.6h2.16V33.08h-2.16Z" fill="#f9b700"></path><path class="cls-15" d="M29.69,50.68l-1.02-17.4h10.75l-1.02,17.4h-8.7ZM38.39,81.9l1.02,17.92h-10.75l1.02-17.92h8.7ZM67.57,65.52v2.05H1.02v-2.05h66.54Z" fill="#f9b700"></path><path class="cls-15" d="M49.65,61.94l17.92-1.02v10.75l-17.92-1.02v-8.7ZM18.43,70.64l-17.4,1.02v-10.75l17.4,1.02v8.7Z" fill="#f9b700"></path><path class="cls-15" d="M56.82,41.97l1.54,1.54L11.26,90.6l-1.54-1.54,47.09-47.09Z" fill="#f9b700"></path><path class="cls-15" d="M41.97,52.21l11.77-13.31,7.68,7.68-13.31,11.77-6.14-6.14ZM26.11,80.36l-11.77,13.31-7.68-7.68,13.31-11.77,6.14,6.14Z" fill="#f9b700"></path><path class="cls-15" d="M11.26,41.97l47.09,47.09-1.54,1.54L9.73,43.51l1.54-1.54Z" fill="#f9b700"></path><path class="cls-15" d="M48.12,74.22l13.31,11.77-7.68,7.68-11.77-13.31,6.14-6.14ZM19.96,58.35l-13.31-11.77,7.68-7.68,11.77,13.31-6.14,6.14Z" fill="#f9b700"></path><path class="cls-2" d="M34.3,32.25c9.21,0,17.15,3.33,23.8,9.98s9.98,14.76,9.98,24.31-3.33,17.15-9.98,23.8c-6.65,6.65-14.59,9.98-23.8,9.98s-17.66-3.33-24.31-9.98S0,75.76,0,66.54s3.33-17.66,9.98-24.31c6.65-6.65,14.76-9.98,24.31-9.98ZM34.3,98.28c8.87,0,16.38-3.07,22.52-9.21s9.21-13.65,9.21-22.52-3.07-16.47-9.21-22.78-13.65-9.47-22.52-9.47-16.47,3.16-22.78,9.47c-6.31,6.31-9.47,13.91-9.47,22.78s3.16,16.38,9.47,22.52c6.31,6.14,13.91,9.21,22.78,9.21Z" fill="#f9c802"></path><path class="cls-2" d="M42.49,66.54c0,3.75-1.36,6.23-4.09,7.42s-5.55,1.19-8.45,0c-2.9-1.19-4.35-3.67-4.35-7.42s1.45-6.31,4.35-7.68c2.9-1.37,5.72-1.37,8.45,0s4.09,3.92,4.09,7.68Z" fill="#f9c802"></path></g></svg>