<svg xmlns="http://www.w3.org/2000/svg" style="" viewBox="0 0 511.98 512"><g class="nc-icon-wrapper"><defs><linearGradient id="1776131386368-3967654_linear-gradient" x1="256" y1="586.25" x2="310.03" y2="586.25" gradientTransform="translate(0 -565.98)" gradientUnits="userSpaceOnUse"><stop offset="0" stop-color="#c40000"></stop><stop offset=".03" stop-color="#c70001"></stop><stop offset=".43" stop-color="#e50008"></stop><stop offset=".76" stop-color="#f8000c"></stop><stop offset="1" stop-color="#ff000e"></stop></linearGradient><linearGradient id="1776131386368-3967654_linear-gradient-2" x1="170.66" y1="813.44" x2="341.32" y2="813.44" gradientTransform="translate(0 -565.98)" gradientUnits="userSpaceOnUse"><stop offset=".26" stop-color="#e8e3d3"></stop><stop offset=".44" stop-color="#e3dece"></stop><stop offset=".64" stop-color="#d6d0c1"></stop><stop offset=".86" stop-color="#bfb9aa"></stop><stop offset="1" stop-color="#ada698"></stop></linearGradient><linearGradient id="1776131386368-3967654_linear-gradient-3" x1="162.13" y1="668.38" x2="349.86" y2="668.38" gradientTransform="translate(0 -565.98)" gradientUnits="userSpaceOnUse"><stop offset="0" stop-color="#009af7"></stop><stop offset=".08" stop-color="#0095ef"></stop><stop offset=".47" stop-color="#007fcc"></stop><stop offset=".79" stop-color="#0072b6"></stop><stop offset="1" stop-color="#006dae"></stop></linearGradient><linearGradient id="1776131386368-3967654_linear-gradient-4" x1="0" y1="959.58" x2="136.53" y2="959.58" gradientTransform="translate(0 -565.98)" gradientUnits="userSpaceOnUse"><stop offset="0" stop-color="#e8e3d3"></stop><stop offset=".24" stop-color="#e3dece"></stop><stop offset=".52" stop-color="#d6d0c1"></stop><stop offset=".81" stop-color="#bfb9aa"></stop><stop offset="1" stop-color="#ada698"></stop></linearGradient><linearGradient id="1776131386368-3967654_linear-gradient-5" x1="8.52" y1="806.91" x2="127.97" y2="806.91" gradientTransform="translate(0 -565.98)" gradientUnits="userSpaceOnUse"><stop offset=".26" stop-color="#e8e3d3"></stop><stop offset=".44" stop-color="#e3dece"></stop><stop offset=".64" stop-color="#d6d0c1"></stop><stop offset=".86" stop-color="#bfb9aa"></stop><stop offset="1" stop-color="#ada698"></stop></linearGradient><linearGradient id="1776131386368-3967654_linear-gradient-6" x1="375.46" y1="959.58" x2="511.98" y2="959.58" gradientTransform="translate(0 -565.98)" gradientUnits="userSpaceOnUse"><stop offset="0" stop-color="#e8e3d3"></stop><stop offset=".24" stop-color="#e3dece"></stop><stop offset=".52" stop-color="#d6d0c1"></stop><stop offset=".81" stop-color="#bfb9aa"></stop><stop offset="1" stop-color="#ada698"></stop></linearGradient><linearGradient id="1776131386368-3967654_linear-gradient-7" x1="383.99" y1="806.91" x2="503.44" y2="806.91" gradientTransform="translate(0 -565.98)" gradientUnits="userSpaceOnUse"><stop offset=".26" stop-color="#e8e3d3"></stop><stop offset=".44" stop-color="#e3dece"></stop><stop offset=".64" stop-color="#d6d0c1"></stop><stop offset=".86" stop-color="#bfb9aa"></stop><stop offset="1" stop-color="#ada698"></stop></linearGradient></defs><path class="cls-10" d="M310.03,37.54c-18-10.36-36.04,10.37-54.03,0V3c18,10.35,36.04-10.37,54.03,0-4.5,3.17-9,8.28-13.5,14.35,4.5,5.44,9,11.84,13.5,20.19h0Z" fill="url(#1776131386368-3967654_linear-gradient)"></path><path class="cls-14" d="M260.27,59.73h-8.53V5.04c0-6.7,8.53-6.7,8.53,0v54.71h0Z" fill="#302c3b"></path><path class="cls-7" d="M170.66 153.6H341.32V341.33H170.66z" fill="url(#1776131386368-3967654_linear-gradient-2)"></path><path class="cls-6" d="M256 51.2L162.13 153.6 349.86 153.6 256 51.2z" fill="url(#1776131386368-3967654_linear-gradient-3)"></path><path class="cls-1" d="M383.99 307.2L383.99 290.13 366.93 290.13 366.93 307.2 349.86 307.2 349.86 290.13 332.79 290.13 332.79 307.2 315.73 307.2 315.73 290.13 298.67 290.13 298.67 307.2 281.6 307.2 281.6 290.13 264.53 290.13 264.53 307.2 247.46 307.2 247.46 290.13 230.4 290.13 230.4 307.2 213.33 307.2 213.33 290.13 196.26 290.13 196.26 307.2 179.2 307.2 179.2 290.13 162.13 290.13 162.13 307.2 145.06 307.2 145.06 290.13 127.99 290.13 127.99 307.2 102.4 307.2 102.4 494.93 409.59 494.93 409.59 307.2 383.99 307.2z" fill="#c1bcaf"></path><path class="cls-5" d="M25.6,275.2h85.34l25.6,230.4c0,8.53-136.53,8.53-136.53,0l25.6-230.4Z" fill="url(#1776131386368-3967654_linear-gradient-4)"></path><path class="cls-11" d="M17.07 196.27H25.6V221.87H17.07z" fill="#ada698"></path><path class="cls-11" d="M110.93 196.27H119.46000000000001V221.87H110.93z" fill="#ada698"></path><path class="cls-11" d="M51.2 196.27H59.730000000000004V221.87H51.2z" fill="#ada698"></path><path class="cls-11" d="M76.8 196.27H85.33V221.87H76.8z" fill="#ada698"></path><path class="cls-3" d="M115.19,196.27v17.07h-17.07v-17.07h-17.07v17.07h-25.6v-17.07h-17.07v17.07h-17.07v-17.07h-12.8v17.07l8.53,68.27c0,5.33,102.4,5.33,102.4,0l8.53-68.27v-17.07h-12.8.02Z" fill="url(#1776131386368-3967654_linear-gradient-5)"></path><path class="cls-4" d="M401.06,275.2h85.32l25.6,230.4c0,8.53-136.51,8.53-136.51,0l25.6-230.4Z" fill="url(#1776131386368-3967654_linear-gradient-6)"></path><path class="cls-11" d="M392.53 196.27H401.05999999999995V221.87H392.53z" fill="#ada698"></path><path class="cls-11" d="M486.38 196.27H494.90999999999997V221.87H486.38z" fill="#ada698"></path><path class="cls-11" d="M426.66 196.27H435.19V221.87H426.66z" fill="#ada698"></path><path class="cls-11" d="M452.26 196.27H460.78V221.87H452.26z" fill="#ada698"></path><path class="cls-2" d="M490.65,196.27v17.07h-17.07v-17.07h-17.07v17.07h-25.58v-17.07h-17.07v17.07h-17.07v-17.07h-12.8v17.07l8.53,68.27c0,5.33,102.39,5.33,102.39,0l8.53-68.27v-17.07h-12.8.01Z" fill="url(#1776131386368-3967654_linear-gradient-7)"></path><path class="cls-8" d="M204.72 411.19H307.28V493.22H204.72z" fill="#785647"></path><path class="cls-13" d="M261.14 400.93L261.14 498.58 266.26 503.46 271.38 498.58 271.38 400.93 261.14 400.93z" fill="#45332c"></path><path class="cls-13" d="M281.63 400.93L281.63 498.58 286.75 503.46 291.89 498.58 291.89 400.93 281.63 400.93z" fill="#45332c"></path><path class="cls-13" d="M240.61 400.93L240.61 498.58 245.74 503.46 250.86 498.58 250.86 400.93 240.61 400.93z" fill="#45332c"></path><path class="cls-13" d="M220.11 400.93L220.11 498.58 225.23 503.46 230.37 498.58 230.37 400.93 220.11 400.93z" fill="#45332c"></path><path class="cls-12" d="M204.72 482.96H307.28V493.21H204.72z" fill="#594640"></path><path class="cls-12" d="M204.72 462.44H307.28V472.69H204.72z" fill="#594640"></path><path class="cls-12" d="M204.72 441.95H307.28V452.2H204.72z" fill="#594640"></path><path class="cls-12" d="M204.72 421.44H307.28V431.69H204.72z" fill="#594640"></path><path class="cls-14" d="M236.8,343.09v32.38h38.4v-32.38c0-25.1-38.4-25.1-38.4,0Z" fill="#302c3b"></path><path class="cls-9" d="M348.27,503.46l-20.51-133.29v-20.51h-20.5v20.51h-20.51v-20.51h-20.5v20.51h-20.51v-20.51h-20.51v20.51h-20.5v-20.51h-20.51v20.51l-20.51,133.29h51.27v-51.28c0-20.51,20.51-41.01,41.02-41.01s41.02,20.5,41.02,41.01v51.28h51.25Z" fill="#e8e3d3"></path><path class="cls-14" d="M49.07,375.52v32.38h38.4v-32.38c0-25.11-38.4-25.11-38.4,0Z" fill="#302c3b"></path><path class="cls-11" d="M42.67 407.9H93.87V420.7H42.67z" fill="#ada698"></path><path class="cls-14" d="M424.54,375.53v32.37h38.37v-32.37c0-25.11-38.37-25.11-38.37,0Z" fill="#302c3b"></path><path class="cls-11" d="M418.12 407.9H469.32V420.7H418.12z" fill="#ada698"></path><path class="cls-14" d="M236.8,227.19v32.37h38.4v-32.37c0-25.11-38.4-25.11-38.4,0Z" fill="#302c3b"></path><path class="cls-11" d="M230.4 259.55H281.6V269.8H230.4z" fill="#ada698"></path><path class="cls-11" d="M91.74 479.19H108.81V487.71999999999997H91.74z" fill="#ada698"></path><path class="cls-1" d="M197.68 408.27H214.75V416.79999999999995H197.68z" fill="#c1bcaf"></path><path class="cls-1" d="M308.97 421.07H326.04V429.59999999999997H308.97z" fill="#c1bcaf"></path><path class="cls-1" d="M281.6 392.54H298.67V401.07H281.6z" fill="#c1bcaf"></path><path class="cls-1" d="M312.8 474.93H329.87V483.46H312.8z" fill="#c1bcaf"></path><path class="cls-1" d="M183.81 454.14H200.88V462.66999999999996H183.81z" fill="#c1bcaf"></path><path class="cls-11" d="M53.34 458.4H70.41V466.92999999999995H53.34z" fill="#ada698"></path><path class="cls-11" d="M86.93 436.54H104V445.07H86.93z" fill="#ada698"></path><path class="cls-11" d="M91.74 379.74H108.81V388.27H91.74z" fill="#ada698"></path><path class="cls-11" d="M42.67 348.54H59.74V357.07H42.67z" fill="#ada698"></path><path class="cls-11" d="M34.13 297.6H51.2V306.13H34.13z" fill="#ada698"></path><path class="cls-11" d="M86.93 247.46H104V255.99H86.93z" fill="#ada698"></path><path class="cls-11" d="M31.2 228.27H48.269999999999996V236.8H31.2z" fill="#ada698"></path><path class="cls-11" d="M53.34 258.48H70.41V267.01H53.34z" fill="#ada698"></path><path class="cls-11" d="M405.33 234.85H422.4V243.38H405.33z" fill="#ada698"></path><path class="cls-11" d="M452.26 247.46H469.31V255.99H452.26z" fill="#ada698"></path><path class="cls-11" d="M76.8 314.14H93.87V322.66999999999996H76.8z" fill="#ada698"></path><path class="cls-11" d="M145.06 396.8H162.13V405.33H145.06z" fill="#ada698"></path><path class="cls-11" d="M136.53 328.53H153.6V337.05999999999995H136.53z" fill="#ada698"></path><path class="cls-1" d="M221.84 382.3H238.91V390.83H221.84z" fill="#c1bcaf"></path><path class="cls-11" d="M354.13 404.01H371.2V412.53999999999996H354.13z" fill="#ada698"></path><path class="cls-11" d="M348.27 462.66H365.34V471.19H348.27z" fill="#ada698"></path><path class="cls-11" d="M145.06 460.79H162.13V469.32H145.06z" fill="#ada698"></path><path class="cls-11" d="M206.21 162.68H223.28V171.21H206.21z" fill="#ada698"></path><path class="cls-11" d="M226.13 187.71H243.2V196.24H226.13z" fill="#ada698"></path><path class="cls-11" d="M187.73 213.34H204.79999999999998V221.87H187.73z" fill="#ada698"></path><path class="cls-11" d="M197.68 267.02H214.75V275.54999999999995H197.68z" fill="#ada698"></path><path class="cls-11" d="M294.75 273.07H311.82V281.59999999999997H294.75z" fill="#ada698"></path><path class="cls-11" d="M286.22 196.45H303.29V204.98H286.22z" fill="#ada698"></path><path class="cls-11" d="M306.48 171.21H323.55V179.74H306.48z" fill="#ada698"></path><path class="cls-11" d="M311.82 226.32H328.89V234.85H311.82z" fill="#ada698"></path><path class="cls-11" d="M329.87 352.8H346.94V361.33H329.87z" fill="#ada698"></path><path class="cls-11" d="M281.6 332.8H298.67V341.33H281.6z" fill="#ada698"></path><path class="cls-11" d="M365.06 330.67H382.13V339.2H365.06z" fill="#ada698"></path><path class="cls-11" d="M422.39 439.47H439.46V448H422.39z" fill="#ada698"></path><path class="cls-11" d="M396.79 473.6H413.86V482.13H396.79z" fill="#ada698"></path><path class="cls-11" d="M465.05 357.07H482.12V365.59999999999997H465.05z" fill="#ada698"></path><path class="cls-11" d="M22.67 421.07H39.74V429.59999999999997H22.67z" fill="#ada698"></path><path class="cls-11" d="M460.78 425.34H477.84999999999997V433.86999999999995H460.78z" fill="#ada698"></path><path class="cls-11" d="M482.11 479.19H499.18V487.71999999999997H482.11z" fill="#ada698"></path><path class="cls-11" d="M409.59 326.4H426.65999999999997V334.92999999999995H409.59z" fill="#ada698"></path><path class="cls-11" d="M454.03 301.16H471.09999999999997V309.69H454.03z" fill="#ada698"></path><path class="cls-1" d="M299.15,503.46h-4.27v-51.28c0-19.26-19.63-38.88-38.89-38.88s-38.89,19.62-38.89,38.88v51.28h-4.27v-51.28c0-21.78,21.38-43.15,43.15-43.15s43.15,21.37,43.15,43.15v51.28h.02Z" fill="#c1bcaf"></path></g></svg>