<svg data-name="Layer 1" xmlns="http://www.w3.org/2000/svg" style="" viewBox="0 0 494.4 512"><g class="nc-icon-wrapper"><defs><linearGradient id="1777685730147-5938053_linear-gradient" x1="992.97" y1="536.44" x2="871.54" y2="658.44" gradientTransform="matrix(-1 0 0 1 982.73 -512)" gradientUnits="userSpaceOnUse"><stop offset="0" stop-color="#ffe600"></stop><stop offset=".91" stop-color="#ffc300"></stop><stop offset="1" stop-color="#ffbf00"></stop></linearGradient><linearGradient id="1777685730147-5938053_linear-gradient-2" x1="165.87" y1="623.86" x2="-.75" y2="623.86" gradientTransform="translate(0 -512)" gradientUnits="userSpaceOnUse"><stop offset="0" stop-color="#dd4d9a" stop-opacity=".85"></stop><stop offset=".18" stop-color="#e159a3" stop-opacity=".83"></stop><stop offset=".5" stop-color="#eb77bc" stop-opacity=".8"></stop><stop offset=".92" stop-color="#fca9e5" stop-opacity=".76"></stop><stop offset="1" stop-color="#ffb3ed" stop-opacity=".75"></stop></linearGradient><linearGradient id="1777685730147-5938053_linear-gradient-3" x1="382.9" y1="658.72" x2="505.18" y2="535.87" gradientTransform="translate(0 -512)" gradientUnits="userSpaceOnUse"><stop offset="0" stop-color="#ffbf00"></stop><stop offset=".09" stop-color="#ffc300"></stop><stop offset="1" stop-color="#ffe600"></stop></linearGradient><linearGradient id="1777685730147-5938053_linear-gradient-4" x1="654.27" y1="623.87" x2="487.65" y2="623.87" gradientTransform="matrix(-1 0 0 1 982.8 -512.02)" gradientUnits="userSpaceOnUse"><stop offset="0" stop-color="#dd4d9a" stop-opacity=".85"></stop><stop offset=".18" stop-color="#e159a3" stop-opacity=".83"></stop><stop offset=".5" stop-color="#eb77bc" stop-opacity=".8"></stop><stop offset=".92" stop-color="#fca9e5" stop-opacity=".76"></stop><stop offset="1" stop-color="#ffb3ed" stop-opacity=".75"></stop></linearGradient><radialGradient id="1777685730147-5938053_radial-gradient" cx="246.07" cy="800.26" fx="246.07" fy="934.12" r="231.57" gradientTransform="matrix(1 0 0 .98 0 -500.88)" gradientUnits="userSpaceOnUse"><stop offset="0" stop-color="#ffe600"></stop><stop offset=".42" stop-color="#ffe400"></stop><stop offset=".64" stop-color="#ffdc00"></stop><stop offset=".82" stop-color="#ffce00"></stop><stop offset=".94" stop-color="#ffbf00"></stop><stop offset="1" stop-color="#ffbf00"></stop></radialGradient><linearGradient id="1777685730147-5938053_linear-gradient-5" x1="247.2" y1="672.12" x2="247.2" y2="567.07" gradientTransform="translate(0 -512)" gradientUnits="userSpaceOnUse"><stop offset="0" stop-color="#de9400" stop-opacity=".5"></stop><stop offset="1" stop-color="#de9400"></stop></linearGradient><linearGradient id="1777685730147-5938053_linear-gradient-6" x1="197.35" y1="636.54" x2="197.35" y2="570.46" gradientTransform="translate(0 -512)" gradientUnits="userSpaceOnUse"><stop offset="0" stop-color="#de9400" stop-opacity=".5"></stop><stop offset="1" stop-color="#de9400"></stop></linearGradient><linearGradient id="1777685730147-5938053_linear-gradient-7" x1="297.04" y1="636.54" x2="297.04" y2="570.46" gradientTransform="translate(0 -512)" gradientUnits="userSpaceOnUse"><stop offset="0" stop-color="#de9400" stop-opacity=".5"></stop><stop offset="1" stop-color="#de9400"></stop></linearGradient><linearGradient id="1777685730147-5938053_linear-gradient-8" x1="434.15" y1="887.32" x2="492.89" y2="887.32" gradientTransform="translate(0 -512)" gradientUnits="userSpaceOnUse"><stop offset="0" stop-color="#de9400" stop-opacity=".5"></stop><stop offset="1" stop-color="#de9400"></stop></linearGradient><linearGradient id="1777685730147-5938053_linear-gradient-9" x1="435.84" y1="925.64" x2="482.16" y2="925.64" gradientTransform="translate(0 -512)" gradientUnits="userSpaceOnUse"><stop offset="0" stop-color="#de9400" stop-opacity=".5"></stop><stop offset="1" stop-color="#de9400"></stop></linearGradient><linearGradient id="1777685730147-5938053_linear-gradient-10" x1="460.13" y1="849.19" x2="494.58" y2="849.19" gradientTransform="translate(0 -512)" gradientUnits="userSpaceOnUse"><stop offset="0" stop-color="#de9400" stop-opacity=".5"></stop><stop offset="1" stop-color="#de9400"></stop></linearGradient><linearGradient id="1777685730147-5938053_linear-gradient-11" x1="60.25" y1="887.32" x2="1.51" y2="887.32" gradientTransform="translate(0 -512)" gradientUnits="userSpaceOnUse"><stop offset="0" stop-color="#de9400" stop-opacity=".5"></stop><stop offset="1" stop-color="#de9400"></stop></linearGradient><linearGradient id="1777685730147-5938053_linear-gradient-12" x1="58.55" y1="925.64" x2="12.24" y2="925.64" gradientTransform="translate(0 -512)" gradientUnits="userSpaceOnUse"><stop offset="0" stop-color="#de9400" stop-opacity=".5"></stop><stop offset="1" stop-color="#de9400"></stop></linearGradient><linearGradient id="1777685730147-5938053_linear-gradient-13" x1="34.27" y1="849.19" x2=".38" y2="849.19" gradientTransform="translate(0 -512)" gradientUnits="userSpaceOnUse"><stop offset="0" stop-color="#de9400" stop-opacity=".5"></stop><stop offset="1" stop-color="#de9400"></stop></linearGradient><radialGradient id="1777685730147-5938053_radial-gradient-2" cx="247.2" cy="672.12" fx="247.2" fy="672.12" r="276.19" gradientTransform="translate(0 -512)" gradientUnits="userSpaceOnUse"><stop offset="0" stop-color="#ffe600"></stop><stop offset=".42" stop-color="#ffe400"></stop><stop offset=".64" stop-color="#ffdc00"></stop><stop offset=".82" stop-color="#ffce00"></stop><stop offset=".94" stop-color="#ffbf00"></stop><stop offset="1" stop-color="#ffbf00"></stop></radialGradient><radialGradient id="1777685730147-5938053_radial-gradient-3" cx="247.2" cy="672.12" fx="247.2" fy="672.12" r="276.19" gradientTransform="translate(0 -512)" gradientUnits="userSpaceOnUse"><stop offset="0" stop-color="#ffe600"></stop><stop offset=".42" stop-color="#ffe400"></stop><stop offset=".64" stop-color="#ffdc00"></stop><stop offset=".82" stop-color="#ffce00"></stop><stop offset=".94" stop-color="#ffbf00"></stop><stop offset="1" stop-color="#ffbf00"></stop></radialGradient><radialGradient id="1777685730147-5938053_radial-gradient-4" cx="247.2" cy="1401.8" fx="247.2" fy="1416.48" r="51.4" gradientTransform="matrix(1 0 0 .41 0 -210.29)" gradientUnits="userSpaceOnUse"><stop offset="0" stop-color="#ffadc0"></stop><stop offset=".37" stop-color="#f49baf"></stop><stop offset="1" stop-color="#db758a"></stop></radialGradient></defs><path class="cls-14" d="M35.43,1.98C26.39-.66,18.86-.66,12.84,1.98S3.42,9.88,2.67,17.79C-.35,44.9-.54,70.13,2.1,93.48s6.49,43.77,11.57,61.28c5.08,17.51,9.69,31.06,13.83,40.67s6.21,14.4,6.21,14.4L181.69,75.97s-3.2-1.98-9.6-5.93-14.96-9.13-25.69-15.53-22.49-12.99-35.29-19.77c-12.8-6.78-25.79-13.08-38.97-18.92S46.72,5.37,35.43,1.98Z" fill="url(#1777685730147-5938053_linear-gradient)"></path><path class="cls-11" d="M37.65,19.49c19.96,11.67,38.41,27.11,55.35,46.31s31.06,37.47,42.36,54.79l-96.58,89.8s-1.88-4.24-5.65-12.71-7.91-20.62-12.43-36.43c-4.52-15.81-8.19-34.64-11.01-56.48s-3.48-45.94-1.98-72.3c.38-9.04,2.92-14.97,7.62-17.79s12.14-1.22,22.31,4.8Z" fill="url(#1777685730147-5938053_linear-gradient-2)"></path><path class="cls-10" d="M459,1.98c9.04-2.64,16.57-2.64,22.59,0s9.41,7.91,10.17,15.81c3.01,27.11,3.2,52.34.56,75.68-2.64,23.35-6.5,43.77-11.58,61.28-5.08,17.51-9.7,31.06-13.84,40.67-4.14,9.6-6.21,14.4-6.21,14.4l-147.98-133.86s3.2-1.98,9.6-5.93,14.97-9.13,25.7-15.53c10.73-6.4,22.5-12.99,35.3-19.77s25.79-13.08,38.97-18.92c13.18-5.84,25.42-10.45,36.71-13.84Z" fill="url(#1777685730147-5938053_linear-gradient-3)"></path><path class="cls-9" d="M456.74,19.47c-19.96,11.67-38.41,27.11-55.35,46.31-16.94,19.2-31.06,37.47-42.36,54.79l96.58,89.8s1.88-4.24,5.65-12.71,7.91-20.62,12.43-36.43,8.19-34.64,11.01-56.48c2.82-21.84,3.48-45.94,1.98-72.3-.38-9.04-2.92-14.97-7.62-17.79s-12.14-1.22-22.31,4.8Z" fill="url(#1777685730147-5938053_linear-gradient-4)"></path><path class="cls-24" d="M207.1,140.36c4.52,3.39,4.33,7.81-.56,13.27s-12.24,10.73-22.03,15.81-20.33,9.32-31.63,12.71-21.56,4.9-30.78,4.52-15.53-3.58-18.92-9.6c-6.4-12.05-13.46-22.22-21.18-30.5s-15.16-14.87-22.31-19.77c-5.27-3.01-7.34-5.46-6.21-7.34s5.08-3.58,11.86-5.08c10.17-2.26,23.25-3.95,39.25-5.08,16-1.13,32.95.47,50.83,4.8,17.89,4.33,35.11,13.08,51.68,26.26Z" fill="#ffbf00"></path><path class="cls-24" d="M190.15,141.49c4.9,2.26,5.74,6.5,2.54,12.71s-8.94,13.08-17.23,20.62-17.51,14.21-27.68,20.05-19.77,9.7-28.81,11.58-16,.38-20.9-4.52c-9.41-10.17-18.83-18.26-28.24-24.29s-18.26-10.54-26.55-13.56c-5.65-1.88-8.19-3.86-7.62-5.93s4.05-4.61,10.45-7.62c9.41-4.9,21.65-9.79,36.71-14.69,15.06-4.9,31.91-7.44,50.55-7.62s37.56,4.24,56.76,13.27ZM287.3,140.36c-4.52,3.39-4.33,7.81.56,13.27s12.24,10.73,22.03,15.81,20.33,9.32,31.63,12.71,21.56,4.9,30.78,4.52,15.53-3.58,18.92-9.6c6.4-12.05,13.46-22.22,21.18-30.5s15.34-14.87,22.87-19.77c4.9-3.01,6.78-5.46,5.65-7.34s-5.08-3.58-11.86-5.08c-10.17-2.26-23.25-3.95-39.25-5.08-16-1.13-32.95.47-50.83,4.8-17.89,4.33-35.11,13.08-51.68,26.26Z" fill="#ffbf00"></path><path class="cls-24" d="M304.24,141.49c19.2-9.04,38.12-13.46,56.76-13.27s35.49,2.73,50.55,7.62c15.06,4.9,27.3,9.79,36.71,14.69,6.4,3.01,9.88,5.55,10.45,7.62s-1.98,4.05-7.62,5.93c-8.28,3.01-17.13,7.53-26.55,13.56-9.41,6.02-18.83,14.12-28.24,24.29-4.9,4.9-11.86,6.4-20.9,4.52s-18.64-5.74-28.81-11.58-19.39-12.52-27.68-20.05-14.03-14.4-17.23-20.62-2.35-10.45,2.54-12.71Z" fill="#ffbf00"></path><path class="cls-13" d="M247.2,55.63c33.14,0,62.79,5.93,88.96,17.79s49.04,27.86,68.62,48.01,35.96,42.36,49.14,66.65c13.18,24.29,23.06,49.04,29.65,74.27s10.17,49.04,10.73,71.45-1.98,41.33-7.62,56.76c-5.27,14.31-15.16,27.58-29.65,39.82-14.5,12.24-31.44,23.35-50.83,33.32-19.39,9.98-39.35,18.64-59.87,25.98-20.52,7.34-39.54,12.9-57.05,16.66s-31.54,5.65-42.08,5.65-24.1-1.88-41.8-5.65-36.81-9.32-57.33-16.66c-20.52-7.34-40.48-16-59.87-25.98-19.39-9.98-36.34-21.09-50.83-33.32-14.5-12.24-24.38-25.51-29.65-39.82C2.07,375.13-.47,356.21.09,333.8s4.14-46.22,10.73-71.45c6.59-25.23,16.47-49.99,29.65-74.27,13.18-24.29,29.56-46.5,49.14-66.65s42.45-36.15,68.62-48.01c26.17-11.86,55.82-17.79,88.96-17.79Z" fill="url(#1777685730147-5938053_radial-gradient)"></path><path class="cls-6" d="M230.82,56.2l10.17-.85c6.78-.56,14.31-.28,22.59.85,0,46.31-2.73,77.1-8.19,92.35-5.46,15.25-10.92,15.25-16.38,0s-8.19-46.03-8.19-92.35Z" fill="url(#1777685730147-5938053_linear-gradient-5)"></path><path class="cls-7" d="M211.61,58.46c-4.9,28.62-9.88,48.01-14.97,58.18s-8.94,10.92-11.58,2.26-2.64-26.92,0-54.79c6.02-1.88,11.96-3.29,17.79-4.24s8.75-1.41,8.75-1.41Z" fill="url(#1777685730147-5938053_linear-gradient-6)"></path><path class="cls-5" d="M282.78,58.46s2.92.47,8.75,1.41,11.77,2.35,17.79,4.24c2.64,27.86,2.64,46.13,0,54.79-2.64,8.66-6.5,7.91-11.58-2.26-5.08-10.17-10.07-29.56-14.97-58.18Z" fill="url(#1777685730147-5938053_linear-gradient-7)"></path><path class="cls-4" d="M492.89,361.76s-.38,3.2-1.13,9.6c-.75,6.4-2.45,12.24-5.08,17.51-36.9-3.39-54.32-8.47-52.24-15.25,2.07-6.78,21.56-10.73,58.46-11.86Z" fill="url(#1777685730147-5938053_linear-gradient-8)"></path><path class="cls-8" d="M482.16,400.17s-2.17,3.29-6.5,9.88c-4.33,6.59-9.51,12.33-15.53,17.23-19.96-10.17-27.68-17.41-23.16-21.75s19.58-6.12,45.18-5.37Z" fill="url(#1777685730147-5938053_linear-gradient-9)"></path><path class="cls-20" d="M494.02,349.34c-20.71-.75-31.91-3.67-33.61-8.75s9.51-10.26,33.61-15.53c.38,4.9.47,10.17.28,15.81s-.28,8.47-.28,8.47Z" fill="url(#1777685730147-5938053_linear-gradient-10)"></path><path class="cls-21" d="M1.51,361.76c36.9,1.13,56.39,5.08,58.46,11.86s-15.34,11.86-52.24,15.25c-2.64-5.27-4.33-11.11-5.08-17.51s-1.13-9.6-1.13-9.6Z" fill="url(#1777685730147-5938053_linear-gradient-11)"></path><path class="cls-22" d="M12.24,400.17c25.6-.75,40.67,1.04,45.18,5.37s-3.2,11.58-23.16,21.75c-6.02-4.9-11.2-10.64-15.53-17.23s-6.5-9.88-6.5-9.88Z" fill="url(#1777685730147-5938053_linear-gradient-12)"></path><path class="cls-23" d="M.38,349.34s-.09-2.64-.28-7.91S0,330.7.38,325.05c24.1,5.27,35.3,10.45,33.61,15.53s-12.9,8-33.61,8.75Z" fill="url(#1777685730147-5938053_linear-gradient-13)"></path><path class="cls-17" d="M301.98,388.31c20.33,4.9,38.6,12.43,54.79,22.59,16.19,10.17,30.12,20.99,41.8,32.48,11.67,11.48,20.62,21.65,26.83,30.5,6.21,8.85,9.32,14.03,9.32,15.53,0,.38-2.73-3.29-8.19-11.01-5.46-7.72-13.65-17.32-24.57-28.81-10.92-11.48-24.76-22.87-41.51-34.17s-36.24-20.33-58.46-27.11Z" fill="#615d55"></path><path class="cls-17" d="M300.29,380.96c22.22.38,42.74,4.24,61.56,11.58,18.83,7.34,35.3,15.91,49.42,25.7,14.12,9.79,25.13,18.54,33.04,26.26,7.91,7.72,11.86,12.52,11.86,14.4,0,.38-3.48-2.92-10.45-9.88-6.97-6.97-17.13-15.34-30.5-25.13-13.37-9.79-29.65-18.83-48.86-27.11-19.2-8.28-41.23-13.56-66.08-15.81ZM310.46,375.32c21.09-1.51,40.95-.56,59.59,2.82,18.64,3.39,35.3,7.91,49.99,13.56s26.26,11.01,34.74,16.1,12.9,8.38,13.27,9.88c0,.38-3.77-1.51-11.3-5.65s-18.26-9.13-32.19-14.97c-13.93-5.84-30.5-10.92-49.7-15.25-19.2-4.33-40.67-6.5-64.39-6.5ZM192.41,388.31c-19.96,4.9-38.12,12.43-54.5,22.59-16.38,10.17-30.41,20.99-42.08,32.48-11.67,11.48-20.62,21.65-26.83,30.5-6.21,8.85-9.32,14.03-9.32,15.53,0,.38,2.73-3.29,8.19-11.01,5.46-7.72,13.65-17.32,24.57-28.81,10.92-11.48,24.76-22.87,41.51-34.17,16.76-11.3,36.24-20.33,58.46-27.11Z" fill="#615d55"></path><path class="cls-17" d="M194.11,380.96c-24.85,2.26-46.97,7.53-66.37,15.81-19.39,8.28-35.77,17.32-49.14,27.11-13.37,9.79-23.44,18.17-30.22,25.13-6.78,6.97-10.17,10.26-10.17,9.88,0-1.88,3.95-6.68,11.86-14.4,7.91-7.72,18.92-16.47,33.04-26.26,14.12-9.79,30.59-18.36,49.42-25.7,18.83-7.34,39.35-11.2,61.56-11.58Z" fill="#615d55"></path><path class="cls-17" d="M183.94,375.32c-23.72,0-45.28,2.17-64.67,6.5-19.39,4.33-36.05,9.41-49.99,15.25-13.93,5.84-24.57,10.83-31.91,14.97s-11.01,6.02-11.01,5.65c.38-1.51,4.8-4.8,13.27-9.88s19.96-10.45,34.45-16.1,31.16-10.17,49.99-13.56c18.83-3.39,38.78-4.33,59.87-2.82Z" fill="#615d55"></path><path class="cls-15" d="M127.46,249.93c16.57,0,30.59,4.33,42.08,12.99s17.23,19.2,17.23,31.63c0,10.54-5.74,19.77-17.23,27.68-11.48,7.91-25.51,11.86-42.08,11.86-10.92,0-20.8-2.82-29.65-8.47s-15.91-12.24-21.18-19.77c-5.27-7.53-7.91-14.12-7.91-19.77,0-12.43,5.74-21.56,17.23-27.39,11.48-5.84,25.32-8.75,41.51-8.75Z" fill="#fff8d6"></path><path class="cls-12" d="M133.11,247.1c12.43,0,22.97,4.24,31.63,12.71,8.66,8.47,12.99,18.73,12.99,30.78s-4.33,22.31-12.99,30.78c-8.66,8.47-19.2,12.71-31.63,12.71s-22.4-4.24-31.06-12.71c-8.66-8.47-12.99-18.73-12.99-30.78s4.33-22.31,12.99-30.78c8.66-8.47,19.02-12.71,31.06-12.71Z" fill="#1a1626"></path><path class="cls-19" d="M139.28,280.17c0-5.16,1.94-8.6,5.81-10.32s7.85-1.72,11.94,0,6.13,5.16,6.13,10.32-2.04,8.6-6.13,10.32-8.07,1.72-11.94,0-5.81-5.16-5.81-10.32Z" fill="#fff"></path><path class="cls-18" d="M186.76,297.37c-12.8-7.15-26.36-13.56-40.67-19.2-14.31-5.65-27.02-9.98-38.12-12.99-11.11-3.01-18.36-3.77-21.75-2.26-9.79,4.14-15.63,11.86-17.51,23.16-.75-8.28.47-14.97,3.67-20.05s7.81-8.75,13.84-11.01c2.26-.75,8.28,0,18.07,2.26,9.79,2.26,21.93,6.59,36.43,12.99,14.5,6.4,29.84,15.44,46.03,27.11Z" fill="#ebb955"></path><path class="cls-15" d="M366.92,249.93c-16.57,0-30.59,4.33-42.08,12.99-11.48,8.66-17.23,19.2-17.23,31.63,0,10.54,5.74,19.77,17.23,27.68s25.51,11.86,42.08,11.86c10.92,0,20.8-2.82,29.65-8.47s15.91-12.24,21.18-19.77c5.27-7.53,7.91-14.12,7.91-19.77,0-12.43-5.74-21.56-17.23-27.39-11.48-5.84-25.32-8.75-41.51-8.75Z" fill="#fff8d6"></path><path class="cls-12" d="M361.27,247.1c-12.43,0-22.97,4.24-31.63,12.71-8.66,8.47-12.99,18.73-12.99,30.78s4.33,22.31,12.99,30.78c8.66,8.47,19.2,12.71,31.63,12.71s22.4-4.24,31.06-12.71c8.66-8.47,12.99-18.73,12.99-30.78s-4.33-22.31-12.99-30.78c-8.66-8.47-19.02-12.71-31.06-12.71Z" fill="#1a1626"></path><path class="cls-19" d="M355.08,280.43c0,4.9-1.98,8.19-5.93,9.88s-7.91,1.69-11.86,0c-3.95-1.69-5.93-4.99-5.93-9.88,0-5.27,1.98-8.85,5.93-10.73s7.91-1.88,11.86,0,5.93,5.46,5.93,10.73Z" fill="#fff"></path><path class="cls-3" d="M67.59,275.35c2.26-13.56,8.19-23.53,17.79-29.93s20.8-9.79,33.61-10.17c12.8-.38,24.95,1.88,36.43,6.78,11.48,4.9,20.43,12.05,26.83,21.46s7.91,20.71,4.52,33.89c-9.04-5.65-19.11-11.67-30.22-18.07-11.11-6.4-22.4-11.67-33.89-15.81s-22.03-5.65-31.63-4.52c-9.6,1.13-17.41,6.59-23.44,16.38Z" fill="url(#1777685730147-5938053_radial-gradient-2)"></path><path class="cls-2" d="M307.63,297.37c-3.39-13.18-1.98-24.48,4.24-33.89s15.16-16.57,26.83-21.46c11.67-4.9,23.91-7.15,36.71-6.78s24,3.77,33.61,10.17,15.53,16.38,17.79,29.93c-6.02-9.79-13.84-15.25-23.44-16.38-9.6-1.13-20.14.38-31.63,4.52s-22.87,9.41-34.17,15.81c-11.3,6.4-21.27,12.43-29.93,18.07Z" fill="url(#1777685730147-5938053_radial-gradient-3)"></path><path class="cls-18" d="M307.61,297.37c12.8-7.15,26.36-13.56,40.67-19.2,14.31-5.65,27.02-9.98,38.12-12.99,11.11-3.01,18.36-3.77,21.75-2.26,9.79,4.14,15.63,11.86,17.51,23.16.75-8.28-.47-14.97-3.67-20.05s-7.81-8.75-13.84-11.01c-2.26-.75-8.28,0-18.07,2.26-9.79,2.26-21.93,6.59-36.43,12.99-14.5,6.4-29.84,15.44-46.03,27.11Z" fill="#ebb955"></path><path class="cls-16" d="M159.09,210.96c13.93,3.77,24.19,8.85,30.78,15.25s10.07,12.71,10.45,18.92-1.98,10.73-7.06,13.56c-5.08,2.82-12.52,2.35-22.31-1.41-17.32-6.78-31.54-13.93-42.64-21.46s-17.98-14.12-20.62-19.77c-2.64-5.65,0-9.23,7.91-10.73s22.4.38,43.49,5.65ZM335.31,211.52c21.09-5.65,35.58-7.72,43.49-6.21s10.54,5.08,7.91,10.73c-2.64,5.65-9.51,12.24-20.62,19.77-11.11,7.53-25.32,14.69-42.64,21.46-9.79,3.77-17.23,4.24-22.31,1.41s-7.44-7.25-7.06-13.27,3.86-12.33,10.45-18.92c6.59-6.59,16.85-11.58,30.78-14.97Z" fill="#c4810a"></path><path class="cls-12" d="M193,449.5c-3.58,2.61-7.49,3.26-11.73,1.95s-5.7-3.26-4.4-5.86c6.51-14.33,16.2-25.16,29.07-32.49,12.87-7.33,26.63-10.99,41.28-10.99s28.42,3.58,41.28,10.75c12.87,7.17,22.56,18.08,29.07,32.73,1.3,2.61-.16,4.56-4.4,5.86s-8.14.65-11.73-1.95c-10.1-6.84-21.82-11.32-35.18-13.44-13.35-2.12-26.55-2.04-39.57.24s-24.27,6.68-33.71,13.19Z" fill="#1a1626"></path><path class="cls-1" d="M247.2,345.38c16.19,0,27.58,1.6,34.17,4.8s9.88,6.87,9.88,11.01c0,4.9-2.73,9.51-8.19,13.84s-11.67,7.81-18.64,10.45c-6.97,2.64-12.71,3.95-17.23,3.95-4.14,0-9.79-1.32-16.94-3.95-7.15-2.64-13.46-6.12-18.92-10.45s-8.19-8.94-8.19-13.84c0-4.14,3.29-7.81,9.88-11.01s17.98-4.8,34.17-4.8Z" fill="url(#1777685730147-5938053_radial-gradient-4)"></path></g></svg>