<svg data-name="Layer 1" xmlns="http://www.w3.org/2000/svg" style="" viewBox="0 0 474.32 512"><g class="nc-icon-wrapper"><defs><radialGradient id="1777856185314-1587570_radial-gradient" cx="345.68" cy="-262.33" fx="345.68" fy="-262.33" r="39.42" gradientTransform="matrix(-.34081 .52985 -.89137 -.46273 -47.52 20.88)" gradientUnits="userSpaceOnUse"><stop offset="0" stop-color="#f0a429" stop-opacity=".8"></stop><stop offset=".51" stop-color="#f0a429" stop-opacity=".8"></stop><stop offset="1" stop-color="#f0a429" stop-opacity="0"></stop></radialGradient><radialGradient id="1777856185314-1587570_radial-gradient-2" cx="746.82" cy="200.4" fx="746.82" fy="200.4" r="39.42" gradientTransform="matrix(.34081 .52985 .89137 -.46273 -25.96 20.88)" gradientUnits="userSpaceOnUse"><stop offset="0" stop-color="#f0a429" stop-opacity=".8"></stop><stop offset=".51" stop-color="#f0a429" stop-opacity=".8"></stop><stop offset="1" stop-color="#f0a429" stop-opacity="0"></stop></radialGradient><linearGradient id="1777856185314-1587570_linear-gradient" x1="1754.26" y1="2750.94" x2="1754.26" y2="2534.41" gradientTransform="matrix(-.26 0 0 .26 779.18 -404.19)" gradientUnits="userSpaceOnUse"><stop offset="0" stop-color="#a6694a"></stop><stop offset="1" stop-color="#4f2a1e"></stop></linearGradient><linearGradient id="1777856185314-1587570_linear-gradient-2" x1="14.68" y1="2750.18" x2="14.68" y2="2533.65" gradientTransform="matrix(.26 0 0 .26 147.49 -404.19)" gradientUnits="userSpaceOnUse"><stop offset="0" stop-color="#a6694a"></stop><stop offset="1" stop-color="#4f2a1e"></stop></linearGradient></defs><path class="cls-11" d="M443.37,370.07c4.85,10.51,12.13,17.59,21.84,21.23-8.9,2.43-17.19,3.84-24.87,4.25-7.68.4-14.76,0-21.23-1.21,4.85,7.28,11.12,12.54,18.8,15.77-21.03,5.66-39.73,4.75-56.1-2.73-16.38-7.48-30.43-19.41-42.15-35.79-11.73-16.38-21.03-35.28-27.9-56.71s-11.42-43.27-13.65-65.51c-2.22-22.24-1.82-42.86,1.21-61.87,3.03-19,8.49-34.47,16.38-46.4,7.88-11.93,18.3-18.09,31.24-18.5,23.45,10.11,42.05,23.35,55.8,39.73,13.75,16.38,24.16,34.37,31.24,53.98s12.33,39.42,15.77,59.44c3.44,20.02,6.77,39.02,10.01,57.01,3.23,17.99,8.09,33.46,14.56,46.4-10.51-1.62-20.82-4.65-30.93-9.1h-.02ZM107.35,122.61c12.94.4,23.76,6.57,32.45,18.5s15.06,27.4,19.11,46.4,5.66,39.63,4.85,61.87-3.94,44.07-9.4,65.51c-5.46,21.43-13.44,40.33-23.96,56.71s-23.55,28.3-39.12,35.79c-15.57,7.48-33.86,8.39-54.89,2.73,7.68-3.23,13.95-8.49,18.8-15.77-6.47,1.21-13.55,1.62-21.23,1.21-7.68-.4-15.97-1.82-24.87-4.25,9.7-3.64,16.98-10.72,21.84-21.23-9.7,4.04-20.02,7.08-30.93,9.1,6.47-12.94,11.02-26.38,13.65-40.33,2.63-13.95,5.16-28.71,7.58-44.28,2.43-15.57,6.37-32.15,11.83-49.74s13.95-36.49,25.47-56.71c11.52-20.22,27.8-42.05,48.83-65.51h-.01Z" fill="#e68c00"></path><path class="cls-3" d="M49.12,269.99c2.83,5.66,6.07,13.24,9.7,22.74,3.64,9.5,6.77,19.31,9.4,29.42,2.63,10.11,3.54,19.41,2.73,27.9-.81,4.85-3.74,9.1-8.79,12.74s-10.51,4.55-16.38,2.73-10.61-8.59-14.25-20.32c-1.21-4.45-3.74-10.11-7.58-16.98s-7.38-15.06-10.61-24.56-4.45-20.12-3.64-31.84c.81-9.3,3.03-15.06,6.67-17.29,3.64-2.23,7.88-2.53,12.74-.91s9.2,4.14,13.04,7.58,6.17,6.37,6.98,8.79h-.01Z" fill="#ffc940"></path><path class="cls-5" d="M23.04,264.53c5.66,2.43,9.1,6.07,10.31,10.92s4.65,11.12,10.31,18.8c3.64,4.85,4.65,9.1,3.03,12.74s-3.13,7.08-4.55,10.31-.3,6.67,3.34,10.31c5.66,5.66,7.38,8.49,5.16,8.49s-5.76-1.92-10.61-5.76-8.49-8.59-10.92-14.25c-3.23-6.07-5.96-13.44-8.19-22.14s-3.34-16.07-3.34-22.14,1.82-8.49,5.46-7.28h0Z" fill="url(#1777856185314-1587570_radial-gradient)"></path><path class="cls-12" d="M23.04,264.53c5.66,2.43,9.1,6.07,10.31,10.92s4.65,11.12,10.31,18.8c3.64,4.85,4.65,9.1,3.03,12.74s-3.13,7.08-4.55,10.31-.3,6.67,3.34,10.31c5.66,5.66,7.38,8.49,5.16,8.49s-5.76-1.92-10.61-5.76-8.49-8.59-10.92-14.25c-3.23-6.07-5.96-13.44-8.19-22.14s-3.34-16.07-3.34-22.14,1.82-8.49,5.46-7.28h0Z" fill="#faba37"></path><path class="cls-13" d="M23.04,264.53c5.66,2.43,9.1,6.07,10.31,10.92s4.65,11.12,10.31,18.8c-5.66-6.87-10.21-12.64-13.65-17.29s-5.96-6.98-7.58-6.98-2.83,3.84-3.64,11.52c-.81-5.26-1.01-9.6-.61-13.04s2.02-4.75,4.85-3.94h0Z" fill="#f2a92c"></path><path class="cls-3" d="M464.59,271.81c.81,11.73-.4,22.34-3.64,31.84-3.23,9.5-6.77,17.69-10.61,24.56s-6.37,12.54-7.58,16.98c-3.64,11.73-8.39,18.5-14.25,20.32s-11.32.91-16.38-2.73c-5.05-3.64-7.78-7.88-8.19-12.74-1.21-8.49-.51-17.79,2.12-27.9s5.76-19.91,9.4-29.42c3.64-9.5,6.87-17.08,9.7-22.74.81-2.43,3.13-5.36,6.98-8.79s8.19-5.96,13.04-7.58,9.1-1.31,12.74.91c3.64,2.22,5.86,7.99,6.67,17.29h0Z" fill="#ffc940"></path><path class="cls-1" d="M445.18,316.09c-2.43,5.66-6.07,10.51-10.92,14.56s-8.39,5.96-10.61,5.76-.51-3.13,5.16-8.79c3.64-3.64,4.75-7.08,3.34-10.31s-2.93-6.67-4.55-10.31-.61-7.88,3.03-12.74c5.66-7.68,9.1-13.95,10.31-18.8s4.65-8.49,10.31-10.92c3.64-1.21,5.46,1.21,5.46,7.28s-1.11,13.44-3.34,22.14-4.95,16.07-8.19,22.14h0Z" fill="url(#1777856185314-1587570_radial-gradient-2)"></path><path class="cls-12" d="M445.18,316.09c-2.43,5.66-6.07,10.51-10.92,14.56s-8.39,5.96-10.61,5.76-.51-3.13,5.16-8.79c3.64-3.64,4.75-7.08,3.34-10.31s-2.93-6.67-4.55-10.31-.61-7.88,3.03-12.74c5.66-7.68,9.1-13.95,10.31-18.8s4.65-8.49,10.31-10.92c3.64-1.21,5.46,1.21,5.46,7.28s-1.11,13.44-3.34,22.14-4.95,16.07-8.19,22.14h0Z" fill="#faba37"></path><path class="cls-13" d="M455.5,281.52c-.4-7.68-1.52-11.52-3.34-11.52s-4.45,2.33-7.88,6.98-7.99,10.41-13.65,17.29c5.66-7.68,9.1-13.95,10.31-18.8s4.65-8.49,10.31-10.92c2.83-.81,4.45.51,4.85,3.94s.2,7.78-.61,13.04h0Z" fill="#f2a92c"></path><path class="cls-3" d="M237.14,28.59c45.69,0,83.5,10.72,113.42,32.15,29.92,21.43,51.76,50.85,65.51,88.25s19.21,80.16,16.38,128.28c-.4,9.7-2.43,22.64-6.07,38.82-3.64,16.17-8.19,32.55-13.65,49.13s-11.02,30.53-16.68,41.85c-7.68,14.96-17.79,28.81-30.33,41.55s-26.38,23.86-41.55,33.36c-15.16,9.5-30.33,16.88-45.49,22.14s-29.01,7.88-41.55,7.88-26.38-2.63-41.55-7.88c-15.16-5.26-30.33-12.64-45.49-22.14s-29.01-20.62-41.55-33.36-22.64-26.59-30.33-41.55c-5.66-11.32-11.22-25.27-16.68-41.85-5.46-16.58-10.01-32.95-13.65-49.13-3.64-16.17-5.66-29.11-6.07-38.82-2.83-48.12,2.63-90.88,16.38-128.28,13.75-37.4,35.58-66.82,65.51-88.25,29.92-21.43,67.73-32.15,113.42-32.15h.02Z" fill="#ffc940"></path><path class="cls-14" d="M260.8,365.83c2.83,0,4.45,1.01,4.85,3.03s-.81,4.04-3.64,6.07c-2.43,1.62-6.27,3.64-11.52,6.07-5.26,2.43-9.7,3.64-13.34,3.64s-8.09-1.21-13.34-3.64-9.1-4.45-11.52-6.07c-2.83-2.02-4.04-4.04-3.64-6.07s2.02-3.03,4.85-3.03c3.23,0,6.67.81,10.31,2.43s8.09,2.43,13.34,2.43,9.7-.81,13.34-2.43,7.08-2.43,10.31-2.43ZM237.14,408.28c3.23,0,8.69-.51,16.38-1.52s16.48-1.82,26.38-2.43c9.91-.61,19.31-.51,28.2.3,0,0-1.01,2.33-3.03,6.98-2.02,4.65-5.66,9.91-10.92,15.77s-12.54,11.12-21.84,15.77-21.03,6.98-35.18,6.98-25.88-2.33-35.18-6.98-16.58-9.91-21.84-15.77-8.9-11.12-10.92-15.77-3.03-6.98-3.03-6.98c8.9-.81,18.3-.91,28.2-.3,9.91.61,18.7,1.42,26.38,2.43s13.14,1.52,16.38,1.52h.02Z" fill="#f0a429"></path><path class="cls-8" d="M174.06,410.71c23.45,2.43,44.48,3.64,63.08,3.64s39.63-1.21,63.08-3.64c-10.11,10.11-23.15,16.78-39.12,20.02-15.97,3.23-31.94,3.23-47.92,0-15.97-3.23-29.01-9.91-39.12-20.02h0Z" fill="#fff"></path><path class="cls-9" d="M371.79,298.5c0,4.85-.91,9.1-2.73,12.74s-3.13,5.46-3.94,5.46h-86.13c-1.62.81-2.83.51-3.64-.91s-.81-5.16,0-11.22c2.02-16.98,7.78-29.32,17.29-37,9.5-7.68,20.02-11.32,31.54-10.92,11.52.4,21.94,4.25,31.24,11.52,9.3,7.28,14.76,17.39,16.38,30.33h0Z" fill="#edebea"></path><path class="cls-6" d="M323.08,258.4c5.19,0,9.95,1.27,14.3,3.82s7.78,5.96,10.32,10.25,3.81,9.08,3.81,14.38-1.27,9.93-3.82,14.22-5.99,7.73-10.33,10.32-9.11,3.89-14.3,3.89-9.95-1.3-14.3-3.9c-4.34-2.6-7.78-6.04-10.32-10.33s-3.81-9.03-3.81-14.22,1.27-10.09,3.82-14.37,5.99-7.7,10.33-10.24,9.11-3.81,14.3-3.81h0Z" fill="url(#1777856185314-1587570_linear-gradient)"></path><path class="cls-4" d="M306.92,286.23c0-5.29,1.65-9.26,4.96-11.9s7.07-3.97,11.31-3.97,8,1.32,11.31,3.97,4.96,6.61,4.96,11.9c0,5.55-1.65,9.72-4.96,12.5s-7.07,4.17-11.31,4.17-8-1.39-11.31-4.17-4.96-6.94-4.96-12.5Z" fill="#1a1626"></path><path class="cls-9" d="M305.28,278.38c0-4.4,1.83-6.6,5.5-6.6s5.5,2.2,5.5,6.6-1.83,6.6-5.5,6.6-5.5-2.2-5.5-6.6Z" fill="#edebea"></path><path class="cls-15" d="M275.36,304.57c0-14.56,3.44-25.98,10.31-34.27,6.87-8.29,15.16-13.65,24.87-16.07s19.31-2.22,28.81.61,17.39,7.99,23.65,15.47,9.2,16.88,8.79,28.2c-3.23-11.73-9.1-20.82-17.59-27.29s-18.09-9.91-28.81-10.31-20.72,2.93-30.02,10.01c-9.3,7.08-15.97,18.3-20.02,33.66h0Z" fill="#bd751b"></path><path class="cls-3" d="M365.12,316.7c-16.98,6.07-31.94,8.79-44.88,8.19-12.94-.61-23.05-2.12-30.33-4.55s-10.92-3.64-10.92-3.64c7.28-3.23,16.98-4.95,29.11-5.16s23.65.3,34.57,1.52,18.4,2.43,22.44,3.64h.01Z" fill="#ffc940"></path><path class="cls-9" d="M102.58,298.5c0,4.85.91,9.1,2.73,12.74s3.13,5.46,3.94,5.46h86.13c1.62.81,2.83.51,3.64-.91s.81-5.16,0-11.22c-2.02-16.98-7.78-29.32-17.29-37-9.5-7.68-20.02-11.32-31.54-10.92s-21.94,4.25-31.24,11.52-14.76,17.39-16.38,30.33h.01Z" fill="#edebea"></path><path class="cls-2" d="M151.3,258.4c-5.19,0-9.95,1.27-14.3,3.82-4.34,2.54-7.78,5.96-10.32,10.25s-3.81,9.08-3.81,14.38,1.27,9.93,3.82,14.22,5.99,7.73,10.33,10.32,9.11,3.89,14.3,3.89,9.95-1.3,14.3-3.9c4.34-2.6,7.78-6.04,10.32-10.33s3.81-9.03,3.81-14.22-1.27-10.09-3.82-14.37-5.99-7.7-10.33-10.24-9.11-3.81-14.3-3.81h0Z" fill="url(#1777856185314-1587570_linear-gradient-2)"></path><path class="cls-4" d="M167.51,286.29c0,5.55-1.65,9.72-4.96,12.49s-7.07,4.16-11.3,4.16-8-1.39-11.3-4.16-4.96-6.94-4.96-12.49,1.65-9.25,4.96-11.9,7.07-3.97,11.3-3.97,8,1.32,11.3,3.97,4.96,6.61,4.96,11.9Z" fill="#1a1626"></path><path class="cls-9" d="M169.02,278.38c0,4.4-1.83,6.6-5.5,6.6s-5.5-2.2-5.5-6.6,1.83-6.6,5.5-6.6,5.5,2.2,5.5,6.6Z" fill="#edebea"></path><path class="cls-15" d="M198.93,304.57c-4.04-15.37-10.72-26.59-20.02-33.66s-19.21-10.41-29.72-10.01-20.12,3.84-28.81,10.31-14.66,15.57-17.89,27.29c-.4-11.32,2.53-20.72,8.79-28.2,6.27-7.48,14.15-12.64,23.65-15.47,9.5-2.83,19.11-3.03,28.81-.61s17.99,7.78,24.87,16.07c6.87,8.29,10.31,19.71,10.31,34.27h.01Z" fill="#bd751b"></path><path class="cls-3" d="M109.77,316.7c3.64-1.21,10.92-2.43,21.84-3.64s22.44-1.72,34.57-1.52,21.84,1.92,29.11,5.16c0,0-3.64,1.21-10.92,3.64s-17.39,3.94-30.33,4.55-27.7-2.12-44.28-8.19h0Z" fill="#ffc940"></path><path class="cls-7" d="M377.25,248.16c2.43,2.43,3.03,4.25,1.82,5.46s-3.03,1.01-5.46-.61c-14.56-10.51-28.71-16.38-42.46-17.59s-25.68-1.01-35.79.61c-3.64.81-6.07-.2-7.28-3.03s-1.11-5.86.3-9.1,4.14-5.26,8.19-6.07c8.49-2.02,17.89-1.92,28.2.3s20.22,5.96,29.72,11.22,17.08,11.52,22.74,18.8h.02ZM97.04,248.16c-2.43,2.43-3.03,4.25-1.82,5.46s3.03,1.01,5.46-.61c14.56-10.51,28.71-16.38,42.46-17.59s25.68-1.01,35.79.61c3.64.81,6.07-.2,7.28-3.03s1.11-5.86-.3-9.1-4.14-5.26-8.19-6.07c-8.49-2.02-17.89-1.92-28.2.3s-20.22,5.96-29.72,11.22-17.08,11.52-22.74,18.8h-.02Z" fill="#d48100"></path><path class="cls-11" d="M205,6.76c29.52-1.21,57.72,5.05,84.61,18.8,26.89,13.75,50.75,33.56,71.57,59.44s37.4,56.61,49.74,92.19c12.33,35.58,18.9,74.6,19.71,117.06-5.66-14.96-13.75-28.3-24.26-40.03-10.51-11.73-22.24-21.94-35.18-30.63s-25.27-15.87-37-21.53c2.43,3.23,4.35,6.17,5.76,8.79s2.12,3.94,2.12,3.94c-15.37-6.47-31.44-12.43-48.22-17.89s-32.55-10.21-47.31-14.25c-14.76-4.04-26.79-7.28-36.09-9.7-9.3-2.43-13.95-3.64-13.95-3.64,10.11,13.34,18.7,24.56,25.78,33.66s10.61,13.65,10.61,13.65c-27.9.4-51.86-1.42-71.87-5.46s-36.49-11.52-49.43-22.44c-2.83,11.32-7.28,21.63-13.34,30.93s-12.13,19.21-18.2,29.72-10.92,22.64-14.56,36.39-4.65,30.53-3.03,50.34c-12.94-45.29-18.4-84.71-16.38-118.27,2.02-33.56,10.01-62.98,23.96-88.25s32.45-47.81,55.5-67.63c23.05-19.81,49.53-38.21,79.46-55.19h0Z" fill="#e68c00"></path><path class="cls-11" d="M11.51,199.64c-.81-19.41,2.12-38.72,8.79-57.92,6.67-19.21,15.87-35.68,27.6-49.43s24.87-22.04,39.42-24.87c11.73,23.86,19.11,44.18,22.14,60.96,3.03,16.78,3.34,31.44.91,43.97-2.43,12.53-6.47,24.16-12.13,34.88s-11.52,21.94-17.59,33.66-10.92,25.17-14.56,40.33-4.85,33.46-3.64,54.89c-6.47-6.47-11.93-14.15-16.38-23.05-4.45-8.9-7.88-16.78-10.31-23.65s-3.64-10.31-3.64-10.31l-4.85,6.07c-5.26-18.2-8.19-34.77-8.79-49.74s-.4-26.79.61-35.48,1.52-13.04,1.52-13.04l-3.64,3.64c-2.43,2.43-4.25,5.46-5.46,9.1h0Z" fill="#e68c00"></path><path class="cls-10" d="M29.1,277.27c-4.85-18.2-7.48-34.67-7.88-49.43-.4-14.76,0-26.49,1.21-35.18s1.82-13.04,1.82-13.04l-5.46,6.37c-3.64,4.25-6.07,8.79-7.28,13.65,0-27.09,3.13-49.13,9.4-66.11,6.27-16.98,14.56-30.53,24.87-40.64s21.33-18.2,33.06-24.26c16.17,22.64,26.08,42.15,29.72,58.53s3.13,31.24-1.52,44.58c-4.65,13.34-11.22,26.28-19.71,38.82-8.49,12.53-16.68,25.88-24.56,40.03-7.88,14.15-13.24,30.73-16.07,49.74-4.85-8.49-7.99-16.38-9.4-23.65s-2.12-10.92-2.12-10.92c0,0-.71,1.01-2.12,3.03s-2.73,4.85-3.94,8.49h-.02Z" fill="#f9a307"></path><path class="cls-16" d="M19.4,171.74c0-12.13,1.82-24.67,5.46-37.61s9.7-25.17,18.2-36.7,20.42-21.13,35.79-28.81c6.47,18.6,9.4,36.9,8.79,54.89-.61,17.99-3.44,35.38-8.49,52.16s-11.12,32.45-18.2,47.01-13.85,27.7-20.32,39.42c-6.87-36.39-9.3-63.79-7.28-82.19s3.03-27.6,3.03-27.6c0,0-2.33,2.12-6.98,6.37s-7.99,8.59-10.01,13.04v.02Z" fill="#ffb80d"></path><path class="cls-11" d="M205,6.76c43.27-2.43,81.58,1.42,114.94,11.52s61.16,24.77,83.4,43.97,38.31,41.55,48.22,67.02c9.91,25.47,13.24,52.36,10.01,80.67-3.23,28.3-13.55,56.41-30.93,84.31-6.07-16.98-15.16-32.05-27.29-45.19-12.13-13.14-25.47-24.56-40.03-34.27-14.56-9.7-29.11-17.39-43.67-23.05-.81-.4.2.81,3.03,3.64s5.86,5.66,9.1,8.49,4.85,4.25,4.85,4.25c-15.37-6.07-31.64-11.93-48.83-17.59s-33.46-10.51-48.83-14.56c-15.37-4.04-27.9-7.28-37.61-9.7l-14.56-3.64c1.62,11.32,5.76,20.72,12.43,28.2s13.14,13.04,19.41,16.68,9.4,5.46,9.4,5.46c-58.23,2.43-98.76-9.7-121.61-36.39-22.85-26.69-31.44-64.49-25.78-113.42,2.43-5.66,7.88-12.54,16.38-20.62s21.33-15.57,38.51-22.44c17.19-6.87,40.33-11.32,69.45-13.34h0Z" fill="#e68c00"></path><path class="cls-10" d="M205.6.69c33.16-1.21,64.7,2.12,94.62,10.01,29.92,7.89,56.61,19.61,80.06,35.18s42.15,34.37,56.1,56.41,21.73,46.7,23.35,74c1.62,27.29-4.65,56.71-18.8,88.25,1.62-16.98,0-33.97-4.85-50.95s-10.72-32.45-17.59-46.4-13.04-25.17-18.5-33.66l-8.19-12.74s2.63,4.75,7.88,14.25c5.25,9.5,10.92,21.84,16.98,37,6.07,15.16,10.61,31.44,13.65,48.83,3.03,17.39,2.33,33.97-2.12,49.74-11.32-22.24-25.47-40.13-42.46-53.68s-35.89-24.56-56.71-33.06-42.56-16.07-65.2-22.74c-22.64-6.67-45.09-13.85-67.33-21.53s-43.47-17.39-63.69-29.11c-20.22-11.73-38.01-27.29-53.37-46.7,1.21-2.83,4.85-7.58,10.92-14.25s14.25-13.55,24.56-20.62,23.05-13.34,38.21-18.8S185.79,1.5,205.6.69Z" fill="#f9a307"></path><path class="cls-16" d="M205.6.69c42.05-2.43,80.06,1.52,114.03,11.83,33.97,10.31,62.27,25.68,84.91,46.1,22.64,20.42,38.01,44.78,46.1,73.09-9.7-16.98-19-30.33-27.9-40.03s-13.34-14.56-13.34-14.56c0,0,2.02,3.94,6.07,11.83s8.29,18.09,12.74,30.63,7.28,25.88,8.49,40.03c-8.09-17.79-17.99-33.46-29.72-47.01-11.73-13.55-23.45-24.87-35.18-33.97-11.73-9.1-21.53-16.07-29.42-20.93l-11.83-7.28s3.23,3.13,9.7,9.4c6.47,6.27,14.15,15.16,23.05,26.69,8.9,11.52,17.39,25.47,25.47,41.85,8.09,16.38,13.75,34.47,16.98,54.28-8.09-7.68-17.39-15.67-27.9-23.96s-19.71-15.16-27.6-20.62-11.83-8.19-11.83-8.19c0,0,4.45,4.14,13.34,12.43,8.9,8.29,19.81,19.91,32.75,34.88,12.94,14.96,25.47,32.55,37.61,52.77,0,0-4.75-4.45-14.25-13.34s-23.45-19.61-41.85-32.15-41.24-24.36-68.54-35.48c-27.29-11.12-58.73-18.7-94.32-22.74-8.49-.4-18.7-.81-30.63-1.21s-24.06-1.52-36.39-3.34-23.35-4.85-33.06-9.1-16.88-10.31-21.53-18.2-5.36-18.09-2.12-30.63c1.62-6.47,6.98-14.35,16.07-23.65s22.54-17.69,40.33-25.17c17.79-7.48,41.04-12.23,69.75-14.25h.02Z" fill="#ffb80d"></path><path class="cls-10" d="M78.84,69.23c19.81,5.26,36.09,13.14,48.83,23.65s23.96,22.54,33.66,36.09c9.7,13.55,19.61,27.6,29.72,42.15s22.44,28.51,37,41.85c-8.9-1.21-20.52-3.54-34.88-6.98s-29.32-8.59-44.88-15.47-29.72-15.77-42.46-26.69-21.94-24.16-27.6-39.73-5.46-33.86.61-54.89v.02Z" fill="#f9a307"></path><path class="cls-10" d="M78.84,69.23s6.07.71,18.2,2.12,28,4.45,47.61,9.1,40.94,12.03,63.99,22.14,45.79,23.65,68.23,40.64c22.44,16.98,42.36,38.62,59.74,64.9-24.26-14.96-46.3-26.38-66.11-34.27-19.81-7.88-37.91-13.85-54.28-17.89-16.38-4.04-31.14-7.48-44.28-10.31s-25.27-6.77-36.39-11.83-21.33-12.54-30.63-22.44-17.99-23.96-26.08-42.15h0Z" fill="#f9a307"></path><path class="cls-16" d="M78.84,69.23s5.16.1,15.47.3,23.96,1.72,40.94,4.55,35.58,7.99,55.8,15.47,40.44,18.4,60.65,32.75c20.22,14.35,38.82,33.46,55.8,57.32-18.2-11.32-36.09-19.61-53.68-24.87s-34.67-9.5-51.25-12.74-32.45-6.98-47.61-11.22-29.21-11.02-42.15-20.32-24.26-23.05-33.97-41.24h0Z" fill="#ffb80d"></path><path class="cls-16" d="M78.84,69.23c18.6,8.49,34.47,17.79,47.61,27.9,13.14,10.11,24.97,21.13,35.48,33.06,10.51,11.93,20.93,24.77,31.24,38.51,10.31,13.75,21.94,28.51,34.88,44.28-32.75-12.13-59.04-24.87-78.85-38.21s-34.67-26.18-44.58-38.51-16.68-23.55-20.32-33.66-5.46-18.2-5.46-24.26v-9.1h0Z" fill="#ffb80d"></path><path class="cls-17" d="M181.95,179.62c-19.81-6.07-35.28-14.46-46.4-25.17-11.12-10.72-19-21.73-23.65-33.06s-7.48-20.93-8.49-28.81-1.52-11.83-1.52-11.83c0,0,2.22,3.44,6.67,10.31,4.45,6.87,10.51,15.57,18.2,26.08s16.28,21.43,25.78,32.75,19.31,21.23,29.42,29.72h0ZM280.81,44.97c20.62,4.85,37.61,12.84,50.95,23.96,13.34,11.12,24.06,22.85,32.15,35.18s13.75,22.95,16.98,31.84,4.85,13.34,4.85,13.34c0,0-2.93-4.04-8.79-12.13-5.86-8.09-13.85-17.99-23.96-29.72s-21.33-23.35-33.66-34.88c-12.33-11.52-25.17-20.72-38.51-27.6h-.01ZM202.57,98.95c19.41-2.83,37.1-2.53,53.07.91s30.23,8.49,42.76,15.16c12.54,6.67,23.05,13.55,31.54,20.62,8.49,7.08,14.96,13.14,19.41,18.2,4.45,5.05,6.67,7.58,6.67,7.58,0,0-4.35-2.53-13.04-7.58s-20.32-11.32-34.88-18.8c-14.56-7.48-31.03-14.56-49.43-21.23s-37.1-11.63-56.1-14.86h0Z" fill="#ffca25"></path></g></svg>