<svg data-name="Layer 1" xmlns="http://www.w3.org/2000/svg" style="" viewBox="0 0 512 512"><g class="nc-icon-wrapper"><defs><linearGradient id="1776585740423-3139114_linear-gradient" x1="-280.69" y1="-403.69" x2="-280.69" y2="-87.81" gradientTransform="scale(1 -1) rotate(45 105.528 440.671)" gradientUnits="userSpaceOnUse"><stop offset="0" stop-color="#f5000d"></stop><stop offset=".27" stop-color="#f2010d"></stop><stop offset=".51" stop-color="#e7060f"></stop><stop offset=".73" stop-color="#d50d11"></stop><stop offset=".9" stop-color="#c21413"></stop></linearGradient><linearGradient id="1776585740423-3139114_linear-gradient-2" x1="-20.53" y1="339.9" x2="272.46" y2="339.9" gradientTransform="scale(1 -1) rotate(45 886.104 166.136)" gradientUnits="userSpaceOnUse"><stop offset=".1" stop-color="#9aa7ad"></stop><stop offset=".15" stop-color="#9aa7ad"></stop><stop offset="1" stop-color="#9aa7ad"></stop></linearGradient><linearGradient id="1776585740423-3139114_linear-gradient-3" x1="20.58" y1="368.59" x2="40.59" y2="368.59" gradientTransform="scale(1 -1) rotate(45 886.104 166.136)" gradientUnits="userSpaceOnUse"><stop offset="0" stop-color="#dae7ed"></stop><stop offset=".25" stop-color="#d7e4ea"></stop><stop offset=".46" stop-color="#ccd9df"></stop><stop offset=".66" stop-color="#bac7cd"></stop><stop offset=".86" stop-color="#a1aeb4"></stop><stop offset=".9" stop-color="#9aa7ad"></stop></linearGradient><linearGradient id="1776585740423-3139114_linear-gradient-4" x1="-5.3" y1="368.59" x2="21.38" y2="368.59" gradientTransform="scale(1 -1) rotate(45 886.104 166.136)" gradientUnits="userSpaceOnUse"><stop offset="0" stop-color="#dae7ed"></stop><stop offset=".25" stop-color="#d7e4ea"></stop><stop offset=".46" stop-color="#ccd9df"></stop><stop offset=".66" stop-color="#bac7cd"></stop><stop offset=".86" stop-color="#a1aeb4"></stop><stop offset=".9" stop-color="#9aa7ad"></stop></linearGradient><linearGradient id="1776585740423-3139114_linear-gradient-5" x1="-7.31" y1="353.65" x2="21.38" y2="353.65" gradientTransform="scale(1 -1) rotate(45 886.104 166.136)" gradientUnits="userSpaceOnUse"><stop offset=".1" stop-color="#9aa7ad"></stop><stop offset=".14" stop-color="#a1aeb4"></stop><stop offset=".34" stop-color="#bac7cd"></stop><stop offset=".54" stop-color="#ccd9df"></stop><stop offset=".75" stop-color="#d7e4ea"></stop><stop offset="1" stop-color="#dae7ed"></stop></linearGradient><linearGradient id="1776585740423-3139114_linear-gradient-6" x1="21.38" y1="367.79" x2="59.47" y2="367.79" gradientTransform="scale(1 -1) rotate(45 886.104 166.136)" gradientUnits="userSpaceOnUse"><stop offset=".1" stop-color="#9aa7ad"></stop><stop offset=".14" stop-color="#a1aeb4"></stop><stop offset=".34" stop-color="#bac7cd"></stop><stop offset=".54" stop-color="#ccd9df"></stop><stop offset=".75" stop-color="#d7e4ea"></stop><stop offset="1" stop-color="#dae7ed"></stop></linearGradient><linearGradient id="1776585740423-3139114_linear-gradient-7" x1="59.47" y1="367.04" x2="76.05" y2="367.04" gradientTransform="scale(1 -1) rotate(45 886.104 166.136)" gradientUnits="userSpaceOnUse"><stop offset="0" stop-color="#dae7ed"></stop><stop offset=".59" stop-color="#b2bfc5"></stop><stop offset="1" stop-color="#9aa7ad"></stop></linearGradient><linearGradient id="1776585740423-3139114_linear-gradient-8" x1="21.38" y1="365.75" x2="66.71" y2="365.75" gradientTransform="scale(1 -1) rotate(45 886.104 166.136)" gradientUnits="userSpaceOnUse"><stop offset="0" stop-color="#dae7ed"></stop><stop offset=".25" stop-color="#d7e4ea"></stop><stop offset=".46" stop-color="#ccd9df"></stop><stop offset=".66" stop-color="#bac7cd"></stop><stop offset=".86" stop-color="#a1aeb4"></stop><stop offset=".9" stop-color="#9aa7ad"></stop></linearGradient><linearGradient id="1776585740423-3139114_linear-gradient-9" x1="-20.53" y1="326.75" x2="42.85" y2="326.75" gradientTransform="scale(1 -1) rotate(45 886.104 166.136)" gradientUnits="userSpaceOnUse"><stop offset=".1" stop-color="#9aa7ad"></stop><stop offset=".14" stop-color="#a1aeb4"></stop><stop offset=".34" stop-color="#bac7cd"></stop><stop offset=".54" stop-color="#ccd9df"></stop><stop offset=".75" stop-color="#d7e4ea"></stop><stop offset="1" stop-color="#dae7ed"></stop></linearGradient><linearGradient id="1776585740423-3139114_linear-gradient-10" x1="66.71" y1="361.51" x2="99.79" y2="361.51" gradientTransform="scale(1 -1) rotate(45 886.104 166.136)" gradientUnits="userSpaceOnUse"><stop offset="0" stop-color="#dae7ed"></stop><stop offset=".04" stop-color="#d8e5eb"></stop><stop offset="1" stop-color="#9aa7ad"></stop></linearGradient><linearGradient id="1776585740423-3139114_linear-gradient-11" x1="66.71" y1="343.32" x2="99.79" y2="343.32" gradientTransform="scale(1 -1) rotate(45 886.104 166.136)" gradientUnits="userSpaceOnUse"><stop offset=".1" stop-color="#9aa7ad"></stop><stop offset=".14" stop-color="#a1aeb4"></stop><stop offset=".34" stop-color="#bac7cd"></stop><stop offset=".54" stop-color="#ccd9df"></stop><stop offset=".75" stop-color="#d7e4ea"></stop><stop offset="1" stop-color="#dae7ed"></stop></linearGradient><linearGradient id="1776585740423-3139114_linear-gradient-12" x1="42.85" y1="320.59" x2="90.46" y2="320.59" gradientTransform="scale(1 -1) rotate(45 886.104 166.136)" gradientUnits="userSpaceOnUse"><stop offset="0" stop-color="#dae7ed"></stop><stop offset=".25" stop-color="#d7e4ea"></stop><stop offset=".46" stop-color="#ccd9df"></stop><stop offset=".66" stop-color="#bac7cd"></stop><stop offset=".86" stop-color="#a1aeb4"></stop><stop offset=".9" stop-color="#9aa7ad"></stop></linearGradient><linearGradient id="1776585740423-3139114_linear-gradient-13" x1="68.66" y1="317.07" x2="126.19" y2="317.07" gradientTransform="scale(1 -1) rotate(45 886.104 166.136)" gradientUnits="userSpaceOnUse"><stop offset=".1" stop-color="#9aa7ad"></stop><stop offset=".14" stop-color="#a1aeb4"></stop><stop offset=".34" stop-color="#bac7cd"></stop><stop offset=".54" stop-color="#ccd9df"></stop><stop offset=".75" stop-color="#d7e4ea"></stop><stop offset="1" stop-color="#dae7ed"></stop></linearGradient><linearGradient id="1776585740423-3139114_linear-gradient-14" x1="-20.53" y1="315.54" x2="42.85" y2="315.54" gradientTransform="scale(1 -1) rotate(45 886.104 166.136)" gradientUnits="userSpaceOnUse"><stop offset="0" stop-color="#dae7ed"></stop><stop offset=".25" stop-color="#d7e4ea"></stop><stop offset=".46" stop-color="#ccd9df"></stop><stop offset=".66" stop-color="#bac7cd"></stop><stop offset=".86" stop-color="#a1aeb4"></stop><stop offset=".9" stop-color="#9aa7ad"></stop></linearGradient><linearGradient id="1776585740423-3139114_linear-gradient-15" x1="90.46" y1="343.32" x2="122.68" y2="343.32" gradientTransform="scale(1 -1) rotate(45 886.104 166.136)" gradientUnits="userSpaceOnUse"><stop offset=".1" stop-color="#9aa7ad"></stop><stop offset=".14" stop-color="#a1aeb4"></stop><stop offset=".34" stop-color="#bac7cd"></stop><stop offset=".54" stop-color="#ccd9df"></stop><stop offset=".75" stop-color="#d7e4ea"></stop><stop offset="1" stop-color="#dae7ed"></stop></linearGradient><linearGradient id="1776585740423-3139114_linear-gradient-16" x1="122.68" y1="331.88" x2="144.05" y2="331.88" gradientTransform="scale(1 -1) rotate(45 886.104 166.136)" gradientUnits="userSpaceOnUse"><stop offset="0" stop-color="#dae7ed"></stop><stop offset=".25" stop-color="#d7e4ea"></stop><stop offset=".46" stop-color="#ccd9df"></stop><stop offset=".66" stop-color="#bac7cd"></stop><stop offset=".86" stop-color="#a1aeb4"></stop><stop offset=".9" stop-color="#9aa7ad"></stop></linearGradient><linearGradient id="1776585740423-3139114_linear-gradient-17" x1="90.46" y1="331.88" x2="126.19" y2="331.88" gradientTransform="scale(1 -1) rotate(45 886.104 166.136)" gradientUnits="userSpaceOnUse"><stop offset="0" stop-color="#dae7ed"></stop><stop offset=".25" stop-color="#d7e4ea"></stop><stop offset=".46" stop-color="#ccd9df"></stop><stop offset=".66" stop-color="#bac7cd"></stop><stop offset=".86" stop-color="#a1aeb4"></stop><stop offset=".9" stop-color="#9aa7ad"></stop></linearGradient><linearGradient id="1776585740423-3139114_linear-gradient-18" x1="144.05" y1="324.19" x2="163.06" y2="324.19" gradientTransform="scale(1 -1) rotate(45 886.104 166.136)" gradientUnits="userSpaceOnUse"><stop offset=".1" stop-color="#9aa7ad"></stop><stop offset=".14" stop-color="#a1aeb4"></stop><stop offset=".34" stop-color="#bac7cd"></stop><stop offset=".54" stop-color="#ccd9df"></stop><stop offset=".75" stop-color="#d7e4ea"></stop><stop offset="1" stop-color="#dae7ed"></stop></linearGradient><linearGradient id="1776585740423-3139114_linear-gradient-19" x1="126.19" y1="324.19" x2="163.06" y2="324.19" gradientTransform="scale(1 -1) rotate(45 886.104 166.136)" gradientUnits="userSpaceOnUse"><stop offset=".1" stop-color="#9aa7ad"></stop><stop offset=".14" stop-color="#a1aeb4"></stop><stop offset=".34" stop-color="#bac7cd"></stop><stop offset=".54" stop-color="#ccd9df"></stop><stop offset=".75" stop-color="#d7e4ea"></stop><stop offset="1" stop-color="#dae7ed"></stop></linearGradient><linearGradient id="1776585740423-3139114_linear-gradient-20" x1="160.85" y1="324.43" x2="181.8" y2="324.43" gradientTransform="scale(1 -1) rotate(45 886.104 166.136)" gradientUnits="userSpaceOnUse"><stop offset=".1" stop-color="#9aa7ad"></stop><stop offset=".14" stop-color="#a1aeb4"></stop><stop offset=".34" stop-color="#bac7cd"></stop><stop offset=".54" stop-color="#ccd9df"></stop><stop offset=".75" stop-color="#d7e4ea"></stop><stop offset="1" stop-color="#dae7ed"></stop></linearGradient><linearGradient id="1776585740423-3139114_linear-gradient-21" x1="181.8" y1="328.98" x2="206.59" y2="328.98" gradientTransform="scale(1 -1) rotate(45 886.104 166.136)" gradientUnits="userSpaceOnUse"><stop offset="0" stop-color="#dae7ed"></stop><stop offset=".25" stop-color="#d7e4ea"></stop><stop offset=".46" stop-color="#ccd9df"></stop><stop offset=".66" stop-color="#bac7cd"></stop><stop offset=".86" stop-color="#a1aeb4"></stop><stop offset=".9" stop-color="#9aa7ad"></stop></linearGradient><linearGradient id="1776585740423-3139114_linear-gradient-22" x1="163.06" y1="324.43" x2="206.59" y2="324.43" gradientTransform="scale(1 -1) rotate(45 886.104 166.136)" gradientUnits="userSpaceOnUse"><stop offset=".1" stop-color="#9aa7ad"></stop><stop offset=".24" stop-color="#a6b3b9"></stop><stop offset=".74" stop-color="#ccd9df"></stop><stop offset="1" stop-color="#dae7ed"></stop></linearGradient><linearGradient id="1776585740423-3139114_linear-gradient-23" x1="203.56" y1="330.92" x2="221.21" y2="330.92" gradientTransform="scale(1 -1) rotate(45 886.104 166.136)" gradientUnits="userSpaceOnUse"><stop offset="0" stop-color="#dae7ed"></stop><stop offset=".25" stop-color="#d7e4ea"></stop><stop offset=".46" stop-color="#ccd9df"></stop><stop offset=".66" stop-color="#bac7cd"></stop><stop offset=".86" stop-color="#a1aeb4"></stop><stop offset=".9" stop-color="#9aa7ad"></stop></linearGradient><linearGradient id="1776585740423-3139114_linear-gradient-24" x1="206.59" y1="330.92" x2="241.24" y2="330.92" gradientTransform="scale(1 -1) rotate(45 886.104 166.136)" gradientUnits="userSpaceOnUse"><stop offset=".1" stop-color="#9aa7ad"></stop><stop offset=".14" stop-color="#a1aeb4"></stop><stop offset=".34" stop-color="#bac7cd"></stop><stop offset=".54" stop-color="#ccd9df"></stop><stop offset=".75" stop-color="#d7e4ea"></stop><stop offset="1" stop-color="#dae7ed"></stop></linearGradient><linearGradient id="1776585740423-3139114_linear-gradient-25" x1="221.21" y1="335.98" x2="245.19" y2="335.98" gradientTransform="scale(1 -1) rotate(45 886.104 166.136)" gradientUnits="userSpaceOnUse"><stop offset=".1" stop-color="#9aa7ad"></stop><stop offset=".14" stop-color="#a1aeb4"></stop><stop offset=".34" stop-color="#bac7cd"></stop><stop offset=".54" stop-color="#ccd9df"></stop><stop offset=".75" stop-color="#d7e4ea"></stop><stop offset="1" stop-color="#dae7ed"></stop></linearGradient><linearGradient id="1776585740423-3139114_linear-gradient-26" x1="245.19" y1="346.07" x2="272.46" y2="346.07" gradientTransform="scale(1 -1) rotate(45 886.104 166.136)" gradientUnits="userSpaceOnUse"><stop offset="0" stop-color="#dae7ed"></stop><stop offset=".25" stop-color="#d7e4ea"></stop><stop offset=".46" stop-color="#ccd9df"></stop><stop offset=".66" stop-color="#bac7cd"></stop><stop offset=".86" stop-color="#a1aeb4"></stop><stop offset=".9" stop-color="#9aa7ad"></stop></linearGradient><linearGradient id="1776585740423-3139114_linear-gradient-27" x1="241.24" y1="335.98" x2="272.46" y2="335.98" gradientTransform="scale(1 -1) rotate(45 886.104 166.136)" gradientUnits="userSpaceOnUse"><stop offset=".1" stop-color="#9aa7ad"></stop><stop offset=".14" stop-color="#a1aeb4"></stop><stop offset=".34" stop-color="#bac7cd"></stop><stop offset=".54" stop-color="#ccd9df"></stop><stop offset=".75" stop-color="#d7e4ea"></stop><stop offset="1" stop-color="#dae7ed"></stop></linearGradient><linearGradient id="1776585740423-3139114_linear-gradient-28" x1="21.38" y1="345.51" x2="66.71" y2="345.51" gradientTransform="scale(1 -1) rotate(45 886.104 166.136)" gradientUnits="userSpaceOnUse"><stop offset=".1" stop-color="#9aa7ad"></stop><stop offset=".14" stop-color="#a1aeb4"></stop><stop offset=".34" stop-color="#bac7cd"></stop><stop offset=".54" stop-color="#ccd9df"></stop><stop offset=".75" stop-color="#d7e4ea"></stop><stop offset="1" stop-color="#dae7ed"></stop></linearGradient><linearGradient id="1776585740423-3139114_linear-gradient-29" x1="42.85" y1="341.99" x2="90.46" y2="341.99" gradientTransform="scale(1 -1) rotate(45 886.104 166.136)" gradientUnits="userSpaceOnUse"><stop offset=".1" stop-color="#9aa7ad"></stop><stop offset=".14" stop-color="#a1aeb4"></stop><stop offset=".34" stop-color="#bac7cd"></stop><stop offset=".54" stop-color="#ccd9df"></stop><stop offset=".75" stop-color="#d7e4ea"></stop><stop offset="1" stop-color="#dae7ed"></stop></linearGradient><linearGradient id="1776585740423-3139114_linear-gradient-30" x1="-7.31" y1="344.23" x2="42.85" y2="344.23" gradientTransform="scale(1 -1) rotate(45 886.104 166.136)" gradientUnits="userSpaceOnUse"><stop offset=".1" stop-color="#9aa7ad"></stop><stop offset=".14" stop-color="#a1aeb4"></stop><stop offset=".34" stop-color="#bac7cd"></stop><stop offset=".54" stop-color="#ccd9df"></stop><stop offset=".75" stop-color="#d7e4ea"></stop><stop offset="1" stop-color="#dae7ed"></stop></linearGradient><linearGradient id="1776585740423-3139114_linear-gradient-31" x1="29.02" y1="315.54" x2="68.66" y2="315.54" gradientTransform="scale(1 -1) rotate(45 886.104 166.136)" gradientUnits="userSpaceOnUse"><stop offset=".1" stop-color="#9aa7ad"></stop><stop offset=".14" stop-color="#a1aeb4"></stop><stop offset=".34" stop-color="#bac7cd"></stop><stop offset=".54" stop-color="#ccd9df"></stop><stop offset=".75" stop-color="#d7e4ea"></stop><stop offset="1" stop-color="#dae7ed"></stop></linearGradient></defs><path class="cls-13" d="M0 171.8L171.8 343.57 286.32 343.58 400.85 229.06 171.8 0 0 171.8z" fill="#9e6c49"></path><path class="cls-9" d="M171.79,0l-5.73,28.63-22.9,22.91-28.62,5.74L171.79,0Z" fill="#785647"></path><path class="cls-36" d="M171.79,91.62v22.91s-57.26-57.25-57.26-57.25l28.63,5.71,28.62,28.62Z" fill="#594640"></path><path class="cls-12" d="M200.43,51.55l-22.91-22.9L171.79,0l57.26,57.26-22.9.02-34.36,34.34,28.64-40.07Z" fill="#d6a57c"></path><path class="cls-9" d="M229.05,57.27l-5.74,28.64-22.87,22.9-28.65,5.72,57.26-57.26Z" fill="#785647"></path><path class="cls-36" d="M229.05,148.88v22.91s-57.26-57.26-57.26-57.26l28.65,5.71,28.62,28.63Z" fill="#594640"></path><path class="cls-12" d="M257.69,108.82l-22.91-22.9-5.73-28.64,57.28,57.27h-22.93s-34.35,34.34-34.35,34.34l28.64-40.07Z" fill="#d6a57c"></path><path class="cls-9" d="M171.78,114.54l-5.73,28.62-22.9,22.9-28.62,5.74,57.25-57.26Z" fill="#785647"></path><path class="cls-36" d="M171.79,206.17v22.9s-57.26-57.27-57.26-57.27l28.62,5.74,28.63,28.63Z" fill="#594640"></path><path class="cls-12" d="M200.43,166.09l-22.92-22.9-5.73-28.64,57.26,57.26h-22.89l-34.36,34.37,28.64-40.08Z" fill="#d6a57c"></path><path class="cls-9" d="M114.53,171.8l-5.74,28.63-22.88,22.9-28.64,5.73,57.26-57.26Z" fill="#785647"></path><path class="cls-36" d="M114.53,263.42v22.91s-57.26-57.27-57.26-57.27l28.63,5.73,28.63,28.63Z" fill="#594640"></path><path class="cls-12" d="M143.16,223.33l-22.91-22.9-5.71-28.63,57.26,57.27-22.9-.02-34.36,34.36,28.62-40.09Z" fill="#d6a57c"></path><path class="cls-9" d="M57.26,114.53l-5.73,28.63-22.91,22.92-28.62,5.72,57.26-57.27Z" fill="#785647"></path><path class="cls-36" d="M57.26,206.16v22.9L0,171.8l28.64,5.73,28.62,28.63Z" fill="#594640"></path><path class="cls-12" d="M85.9,166.06l-22.89-22.89-5.74-28.64,57.26,57.26h-22.91l-34.35,34.36,28.63-40.1Z" fill="#d6a57c"></path><path class="cls-9" d="M114.53,57.29l-5.74,28.62-22.89,22.89-28.63,5.73,57.26-57.24Z" fill="#785647"></path><path class="cls-36" d="M114.53,148.9v22.9l-57.26-57.26,28.63,5.74,28.63,28.63Z" fill="#594640"></path><path class="cls-12" d="M143.16,108.82l-22.9-22.89-5.73-28.64,57.25,57.25h-22.9s-34.35,34.36-34.35,34.36l28.62-40.08Z" fill="#d6a57c"></path><path class="cls-9" d="M286.33,114.54l-5.74,28.6-22.89,22.94-28.66,5.71,57.29-57.25Z" fill="#785647"></path><path class="cls-36" d="M286.33,206.16v22.9s-57.29-57.26-57.29-57.26l28.65,5.73,28.64,28.63Z" fill="#594640"></path><path class="cls-12" d="M177.52,257.68l-5.73-28.61,57.25,57.26h-22.9l-28.62-28.65Z" fill="#d6a57c"></path><path class="cls-9" d="M229.04,171.8l-5.7,28.64-22.92,22.89-28.62,5.74,57.24-57.27Z" fill="#785647"></path><path class="cls-36" d="M229.06,263.42l-.02,22.91-57.25-57.26,28.64,5.7,28.62,28.65Z" fill="#594640"></path><path class="cls-12" d="M257.69,223.33l-22.91-22.89-5.74-28.64,57.28,57.26h-22.9l-34.35,34.35,28.62-40.09Z" fill="#d6a57c"></path><path class="cls-9" d="M171.8,229.07l-5.74,28.63-22.9,22.89-28.62,5.74,57.26-57.26Z" fill="#785647"></path><path class="cls-36" d="M171.78,320.67v22.92l-57.24-57.26,28.62,5.72,28.62,28.62Z" fill="#594640"></path><path class="cls-12" d="M314.95,166.09l-22.9-22.91-5.72-28.65,57.26,57.27h-22.9s-34.36,34.36-34.36,34.36l28.62-40.07Z" fill="#d6a57c"></path><path class="cls-10" d="M313.42,141.62l196.24,196.23c3.13,3.16,3.13,8.3,0,11.46l-160.34,160.34c-3.18,3.15-8.31,3.14-11.46,0l-217.64-217.62c42.32-36.31,147.16-31.01,193.2-150.4Z" fill="url(#1776585740423-3139114_linear-gradient)"></path><path id="1776585740423-3139114_Shape" class="cls-11" d="M299.15,299.16c17.46-17.46,46.2-17.15,64.05.69,17.82,17.83,18.16,46.58.69,64.05-17.46,17.47-46.22,17.14-64.05-.7-17.84-17.84-18.15-46.58-.69-64.04ZM288.37,288.38c-23.33,23.3-22.92,61.56.92,85.38,23.83,23.86,62.06,24.24,85.38.92,23.31-23.32,22.93-61.54-.92-85.39-23.82-23.82-62.06-24.24-85.38-.9Z" fill="#faa19b"></path><path id="1776585740423-3139114_Combined-Shape" class="cls-11" d="M344.3,327.4c-1.43,1.42-2.85,1.41-4.29-.04l-4.32-4.32c-1.46-1.46-1.46-2.85-.04-4.28l13.71-13.72c1.44-1.43,2.83-1.41,4.28.02l2.16,2.17c13.7,13.7,13.94,35.69.53,49.11-6.52,6.53-15.3,9.98-24.44,9.9-2.03-.04-3.03-1.04-3.06-3.05l-.1-9.07c-.02-2.01.97-2.99,2.99-2.97,5.17.03,10.12-1.91,13.82-5.6,6.1-6.12,7.19-15.37,3.37-22.79l-4.62,4.64Z" fill="#faa19b"></path><path class="cls-8" d="M312.58 140.77L303.42 157.58 288.23 176.3 278.91 191.94 263.1 206.9 250.78 224.2 236.75 233.94 218.18 245.6 193.95 253.74 171.27 264.63 151.73 268.54 135.5 279 120.22 292.02 115.91 324.3 129.06 340.3 143.17 373.11 188.18 348.04 209.06 312.87 242.46 264.9 275.95 246.26 300.3 209.04 319.42 179.15 331.03 146.62 312.58 140.77z" fill="url(#1776585740423-3139114_linear-gradient-2)"></path><path class="cls-7" d="M142.2 312.87L120.22 292.02 135.5 279 142.2 312.87z" fill="url(#1776585740423-3139114_linear-gradient-3)"></path><path class="cls-6" d="M115.91 324.3L120.22 292.02 142.2 312.87 115.91 324.3z" fill="url(#1776585740423-3139114_linear-gradient-4)"></path><path class="cls-3" d="M115.91 324.3L142.2 312.87 129.06 340.3 115.91 324.3z" fill="url(#1776585740423-3139114_linear-gradient-5)"></path><path class="cls-4" d="M135.5 279L151.73 268.54 142.2 312.87 135.5 279z" fill="url(#1776585740423-3139114_linear-gradient-6)"></path><path class="cls-2" d="M151.73 268.54L171.27 264.63 172.44 279 151.73 268.54z" fill="url(#1776585740423-3139114_linear-gradient-7)"></path><path class="cls-1" d="M142.2 312.87L151.73 268.54 172.44 279 142.2 312.87z" fill="url(#1776585740423-3139114_linear-gradient-8)"></path><path class="cls-5" d="M129.06 340.3L170.42 310.73 143.17 373.11 129.06 340.3z" fill="url(#1776585740423-3139114_linear-gradient-9)"></path><path class="cls-14" d="M172.44 279L171.27 264.63 193.95 253.74 172.44 279z" fill="url(#1776585740423-3139114_linear-gradient-10)"></path><path class="cls-15" d="M172.44 279L193.95 253.74 209.06 282.04 172.44 279z" fill="url(#1776585740423-3139114_linear-gradient-11)"></path><path class="cls-16" d="M170.42 310.73L209.06 282.04 209.06 312.87 170.42 310.73z" fill="url(#1776585740423-3139114_linear-gradient-12)"></path><path class="cls-17" d="M209.06 312.87L242.46 264.9 209.06 282.04 209.06 312.87z" fill="url(#1776585740423-3139114_linear-gradient-13)"></path><path class="cls-19" d="M143.17 373.11L170.42 310.73 188.18 348.04 143.17 373.11z" fill="url(#1776585740423-3139114_linear-gradient-14)"></path><path class="cls-28" d="M193.95 253.74L218.18 245.6 209.06 282.04 193.95 253.74z" fill="url(#1776585740423-3139114_linear-gradient-15)"></path><path class="cls-29" d="M218.18 245.6L236.75 233.94 242.46 264.9 218.18 245.6z" fill="url(#1776585740423-3139114_linear-gradient-16)"></path><path class="cls-30" d="M209.06 282.04L218.18 245.6 242.46 264.9 209.06 282.04z" fill="url(#1776585740423-3139114_linear-gradient-17)"></path><path class="cls-31" d="M275.95 246.26L236.75 233.94 250.78 224.2 275.95 246.26z" fill="url(#1776585740423-3139114_linear-gradient-18)"></path><path class="cls-18" d="M242.46 264.9L236.75 233.94 275.95 246.26 242.46 264.9z" fill="url(#1776585740423-3139114_linear-gradient-19)"></path><path class="cls-21" d="M250.78 224.2L263.1 206.9 275.95 246.26 250.78 224.2z" fill="url(#1776585740423-3139114_linear-gradient-20)"></path><path class="cls-20" d="M263.1 206.9L278.91 191.94 300.3 209.04 263.1 206.9z" fill="url(#1776585740423-3139114_linear-gradient-21)"></path><path class="cls-22" d="M275.95 246.26L263.1 206.9 300.3 209.04 275.95 246.26z" fill="url(#1776585740423-3139114_linear-gradient-22)"></path><path class="cls-23" d="M300.3 209.04L278.91 191.94 288.23 176.3 300.3 209.04z" fill="url(#1776585740423-3139114_linear-gradient-23)"></path><path class="cls-33" d="M300.3 209.04L288.23 176.3 319.42 179.15 300.3 209.04z" fill="url(#1776585740423-3139114_linear-gradient-24)"></path><path class="cls-25" d="M288.23 176.3L303.42 157.58 319.42 179.15 288.23 176.3z" fill="url(#1776585740423-3139114_linear-gradient-25)"></path><path class="cls-34" d="M303.42 157.58L312.58 140.77 331.03 146.62 303.42 157.58z" fill="url(#1776585740423-3139114_linear-gradient-26)"></path><path class="cls-32" d="M319.42 179.15L303.42 157.58 331.03 146.62 319.42 179.15z" fill="url(#1776585740423-3139114_linear-gradient-27)"></path><path class="cls-24" d="M142.2 312.87L172.44 279 170.42 310.73 142.2 312.87z" fill="url(#1776585740423-3139114_linear-gradient-28)"></path><path class="cls-35" d="M172.44 279L209.06 282.04 170.42 310.73 172.44 279z" fill="url(#1776585740423-3139114_linear-gradient-29)"></path><path class="cls-27" d="M142.2 312.87L170.42 310.73 129.06 340.3 142.2 312.87z" fill="url(#1776585740423-3139114_linear-gradient-30)"></path><path class="cls-26" d="M170.42 310.73L209.06 312.87 188.18 348.04 170.42 310.73z" fill="url(#1776585740423-3139114_linear-gradient-31)"></path></g></svg>