<svg xmlns="http://www.w3.org/2000/svg" data-name="Layer 1" style="" viewBox="0 0 448.57 512"><g class="nc-icon-wrapper"><defs><radialGradient id="1776867897842-2410172_radial-gradient" cx="254.44" cy="71.47" r="16.61" fx="254.44" fy="71.47" gradientTransform="matrix(1.01 0 0 -1 -5.24 513.99)" gradientUnits="userSpaceOnUse"><stop offset="0" stop-color="#ff00f8"></stop><stop offset="1" stop-color="#940090"></stop></radialGradient><radialGradient id="1776867897842-2410172_radial-gradient-2" cx="84.65" cy="110.16" r="19.34" fx="84.65" fy="110.16" gradientTransform="matrix(1.01 0 0 -1 -5.24 513.99)" gradientUnits="userSpaceOnUse"><stop offset="0" stop-color="#fffcde"></stop><stop offset="1" stop-color="#ffd500"></stop></radialGradient><radialGradient id="1776867897842-2410172_radial-gradient-3" cx="347.2" cy="117.35" r="18.18" fx="347.2" fy="117.35" gradientTransform="matrix(1.01 0 0 -1 -5.24 513.99)" gradientUnits="userSpaceOnUse"><stop offset="0" stop-color="#ffb8d5"></stop><stop offset=".2" stop-color="#ff9dc0"></stop><stop offset="1" stop-color="#ff3672"></stop></radialGradient><radialGradient id="1776867897842-2410172_radial-gradient-4" cx="170.74" cy="138.51" r="16.5" fx="170.74" fy="138.51" gradientTransform="matrix(1.01 0 0 -1 -5.24 513.99)" gradientUnits="userSpaceOnUse"><stop offset="0" stop-color="#ff8080"></stop><stop offset="1" stop-color="#e00100"></stop></radialGradient><radialGradient id="1776867897842-2410172_radial-gradient-5" cx="370.07" cy="162.28" r="18.14" fx="370.07" fy="162.28" gradientTransform="matrix(1.01 0 0 -1 -5.24 513.99)" gradientUnits="userSpaceOnUse"><stop offset="0" stop-color="#759cff"></stop><stop offset="1" stop-color="#003fc7"></stop></radialGradient><radialGradient id="1776867897842-2410172_radial-gradient-6" cx="256.49" cy="158.97" r="18.08" fx="256.49" fy="158.97" gradientTransform="matrix(1.01 0 0 -1 -5.24 513.99)" gradientUnits="userSpaceOnUse"><stop offset="0" stop-color="#ffdc69"></stop><stop offset="1" stop-color="#ff7b00"></stop></radialGradient><radialGradient id="1776867897842-2410172_radial-gradient-7" cx="106.93" cy="227.55" r="16.5" fx="106.93" fy="227.55" gradientTransform="matrix(1.01 0 0 -1 -5.24 513.99)" gradientUnits="userSpaceOnUse"><stop offset="0" stop-color="#759cff"></stop><stop offset="1" stop-color="#003fc7"></stop></radialGradient><radialGradient id="1776867897842-2410172_radial-gradient-8" cx="346.49" cy="231.76" r="18.99" fx="346.49" fy="231.76" gradientTransform="matrix(1.01 0 0 -1 -5.24 513.99)" gradientUnits="userSpaceOnUse"><stop offset="0" stop-color="#fffcde"></stop><stop offset="1" stop-color="#ffd500"></stop></radialGradient><radialGradient id="1776867897842-2410172_radial-gradient-9" cx="204.43" cy="235.6" r="19" fx="204.43" fy="235.6" gradientTransform="matrix(1.01 0 0 -1 -5.24 513.99)" gradientUnits="userSpaceOnUse"><stop offset="0" stop-color="#ffb8d5"></stop><stop offset=".2" stop-color="#ff9dc0"></stop><stop offset="1" stop-color="#ff3672"></stop></radialGradient><radialGradient id="1776867897842-2410172_radial-gradient-10" cx="154.83" cy="274.22" r="15.88" fx="154.83" fy="274.22" gradientTransform="matrix(1.01 0 0 -1 -5.24 513.99)" gradientUnits="userSpaceOnUse"><stop offset="0" stop-color="#ffdc69"></stop><stop offset="1" stop-color="#ff7b00"></stop></radialGradient><radialGradient id="1776867897842-2410172_radial-gradient-11" cx="278.56" cy="324.83" r="15.59" fx="278.56" fy="324.83" gradientTransform="matrix(1.01 0 0 -1 -5.24 513.99)" gradientUnits="userSpaceOnUse"><stop offset="0" stop-color="#ff8080"></stop><stop offset="1" stop-color="#e00100"></stop></radialGradient><radialGradient id="1776867897842-2410172_radial-gradient-12" cx="175.84" cy="362.54" r="14.65" fx="175.84" fy="362.54" gradientTransform="matrix(1.01 0 0 -1 -5.24 513.99)" gradientUnits="userSpaceOnUse"><stop offset="0" stop-color="#ff00f8"></stop><stop offset="1" stop-color="#940090"></stop></radialGradient><linearGradient id="1776867897842-2410172_linear-gradient" x1="136.6" x2="261.38" y1="65.18" y2="65.18" gradientTransform="scale(1 -1) rotate(1.1 27501.234 511.063)" gradientUnits="userSpaceOnUse"><stop offset="0" stop-color="#cc884a"></stop><stop offset=".31" stop-color="#a16937"></stop><stop offset=".78" stop-color="#653e1c"></stop><stop offset="1" stop-color="#4d2d12"></stop></linearGradient><linearGradient id="1776867897842-2410172_linear-gradient-2" x1="1048.79" x2="1145.05" y1="71.57" y2="71.57" gradientTransform="rotate(178.34 656.817 258.278)" gradientUnits="userSpaceOnUse"><stop offset="0" stop-color="#4d2d12"></stop><stop offset="0" stop-color="#4e2e12"></stop><stop offset=".38" stop-color="#925e30"></stop><stop offset=".64" stop-color="#bc7c43"></stop><stop offset=".78" stop-color="#cc884a"></stop></linearGradient><linearGradient id="1776867897842-2410172_linear-gradient-3" x1="1041.86" x2="1148.93" y1="70.33" y2="70.33" gradientTransform="rotate(178.34 656.817 258.278)" gradientUnits="userSpaceOnUse"><stop offset="0" stop-color="#4d2d12"></stop><stop offset="0" stop-color="#4e2e12"></stop><stop offset=".38" stop-color="#925e30"></stop><stop offset=".64" stop-color="#bc7c43"></stop><stop offset=".78" stop-color="#cc884a"></stop></linearGradient><linearGradient id="1776867897842-2410172_linear-gradient-4" x1="224.28" x2="224.28" y1="20.07" y2="175.56" gradientTransform="matrix(1 0 0 -1 0 513.99)" gradientUnits="userSpaceOnUse"><stop offset="0" stop-color="#009e03"></stop><stop offset=".2" stop-color="#009a04"></stop><stop offset=".4" stop-color="#008e05"></stop><stop offset=".61" stop-color="#007908"></stop><stop offset=".82" stop-color="#005d0b"></stop><stop offset="1" stop-color="#003d0f"></stop></linearGradient><linearGradient id="1776867897842-2410172_linear-gradient-5" x1="219.69" x2="219.69" y1="87.02" y2="223.79" gradientTransform="matrix(1 0 0 -1 0 513.99)" gradientUnits="userSpaceOnUse"><stop offset="0" stop-color="#009e03"></stop><stop offset=".2" stop-color="#009a04"></stop><stop offset=".4" stop-color="#008e05"></stop><stop offset=".61" stop-color="#007908"></stop><stop offset=".82" stop-color="#005d0b"></stop><stop offset="1" stop-color="#003d0f"></stop></linearGradient><linearGradient id="1776867897842-2410172_linear-gradient-6" x1="224.2" x2="224.2" y1="153.33" y2="262.17" gradientTransform="matrix(1 0 0 -1 0 513.99)" gradientUnits="userSpaceOnUse"><stop offset="0" stop-color="#009e03"></stop><stop offset=".2" stop-color="#009a04"></stop><stop offset=".4" stop-color="#008e05"></stop><stop offset=".61" stop-color="#007908"></stop><stop offset=".82" stop-color="#005d0b"></stop><stop offset="1" stop-color="#003d0f"></stop></linearGradient><linearGradient id="1776867897842-2410172_linear-gradient-7" x1="221.01" x2="221.01" y1="205.64" y2="311.68" gradientTransform="matrix(1 0 0 -1 0 513.99)" gradientUnits="userSpaceOnUse"><stop offset="0" stop-color="#009e03"></stop><stop offset=".2" stop-color="#009a04"></stop><stop offset=".4" stop-color="#008e05"></stop><stop offset=".61" stop-color="#007908"></stop><stop offset=".82" stop-color="#005d0b"></stop><stop offset="1" stop-color="#003d0f"></stop></linearGradient><linearGradient id="1776867897842-2410172_linear-gradient-8" x1="221.01" x2="221.01" y1="262.24" y2="347.62" gradientTransform="matrix(1 0 0 -1 0 513.99)" gradientUnits="userSpaceOnUse"><stop offset="0" stop-color="#009e03"></stop><stop offset=".2" stop-color="#009a04"></stop><stop offset=".4" stop-color="#008e05"></stop><stop offset=".61" stop-color="#007908"></stop><stop offset=".82" stop-color="#005d0b"></stop><stop offset="1" stop-color="#003d0f"></stop></linearGradient><linearGradient id="1776867897842-2410172_linear-gradient-9" x1="221.01" x2="221.01" y1="308.74" y2="402.01" gradientTransform="matrix(1 0 0 -1 0 513.99)" gradientUnits="userSpaceOnUse"><stop offset="0" stop-color="#009e03"></stop><stop offset=".2" stop-color="#009a04"></stop><stop offset=".4" stop-color="#008e05"></stop><stop offset=".61" stop-color="#007908"></stop><stop offset=".82" stop-color="#005d0b"></stop><stop offset="1" stop-color="#003d0f"></stop></linearGradient><linearGradient id="1776867897842-2410172_linear-gradient-10" x1="218.25" x2="218.25" y1="350.36" y2="469.62" gradientTransform="matrix(1 0 0 -1 0 513.99)" gradientUnits="userSpaceOnUse"><stop offset="0" stop-color="#009e03"></stop><stop offset="1" stop-color="#009e03"></stop></linearGradient><linearGradient id="1776867897842-2410172_linear-gradient-11" x1="223.97" x2="223.97" y1="411.4" y2="513.99" gradientTransform="matrix(1 0 0 -1 0 513.99)" gradientUnits="userSpaceOnUse"><stop offset="0" stop-color="#fa0"></stop><stop offset=".03" stop-color="#ffad00"></stop><stop offset=".46" stop-color="#ffd500"></stop><stop offset=".79" stop-color="#ffed00"></stop><stop offset="1" stop-color="#fff600"></stop></linearGradient></defs><path d="M254.6 405.94h-65.99c-.32 21.6-.64 42.79-.96 60.07-.16 9.12-3.52 22.08-8.32 33.75-1.36 3.28.4 7.04 3.76 7.92 10.16 2.64 24.88 4.32 41.35 4.32s30.48-1.6 40.55-4.16c3.6-.88 5.28-5.12 3.52-8.48-4.8-9.12-8.72-17.84-9.44-25.6-1.84-18.96-3.36-43.19-4.48-67.83Z" fill="url(#1776867897842-2410172_linear-gradient)"></path><path d="M188.61 405.94c-.32 21.6.8 42.79 1.52 59.99.4 11.2-7.12 41.59-7.12 41.59 1.36.32 2.8.72 4.24.96 4.4-13.36 10.88-53.59 10.88-53.59s-2.08 37.91-6.48 54.39c4.4.72 9.36 1.36 14.56 1.76 6.24-24.48 4.72-63.59 6.88-105.26h-24.48z" fill="url(#1776867897842-2410172_linear-gradient-2)"></path><path d="M243.16 405.94H217c-.08 34.87.8 79.91-1.6 105.82 2.88.08 5.92.16 8.96.16 5.04 0 9.92-.16 14.56-.48-6.32-20.8-9.28-54.23-8.4-102.14 7.12 57.19 12.16 87.19 16.8 101.5 3.04-.32 6-.72 8.72-1.12-8.72-13.2-8.08-33.83-8.88-42.55-1.84-18.64-3.12-40.07-4-61.19" fill="url(#1776867897842-2410172_linear-gradient-3)"></path><path d="M397.94 452.65c-17.84.4-25.92-10.08-25.92-10.08s38.95 11.6 76.55-12c-53.59-4.88-78.87-23.84-78.87-23.84s27.68 8 46.07-6.64c-21.12-.24-44.15-26.32-57.67-44.47H107.82c-7.2 7.44-41.99 41.59-75.59 46.63 10.16 5.52 25.12 7.92 25.12 7.92s-35.43 7.2-57.35 3.6c27.76 17.84 50.55 12.32 50.55 12.32s-9.6 11.12-22.56 17.76c22.96 2.16 44.47-6.88 44.47-6.88s-6.88 12.8-23.68 20.24c25.44 2.08 47.75-14.16 47.75-14.16s-.72 14.64-22.16 27.2c42.39-1.92 43.75-10.88 43.75-10.88s.64 10.24-8.08 25.12c36.95-4.32 51.35-38.55 51.35-38.55s3.04 23.04-12.72 44.15c33.83-7.36 47.91-45.59 47.91-45.59s2.64 33.83-8.8 49.43c34.07-11.6 37.99-66.07 37.99-66.07s5.44 48.47 22.8 59.35c1.2-17.52 9.04-35.67 9.04-35.67s7.52 23.92 34.23 27.52c-13.52-15.92-10-38.87-10-38.87s6.88 36.95 52.79 42.39c-7.12-5.52-13.04-29.44-13.04-29.44s16.24 19.92 56.87 17.84c-24.24-10.8-33.67-28-33.67-28s20.64 23.12 53.11 9.68Z" fill="url(#1776867897842-2410172_linear-gradient-4)"></path><path d="M239.24 449.45c0 22.16 33.43 22.16 33.43 0 .08-22.16-33.43-22.16-33.43 0" fill="url(#1776867897842-2410172_radial-gradient)"></path><path id="1776867897842-2410172_Shape" d="M171.17 411.38c-2.4 23.68-7.44 27.92-28.32 30.48 20.88 2.48 25.84 6.72 28.32 30.48 2.48-23.68 7.44-28 28.32-30.48-20.88-2.56-25.84-6.8-28.32-30.48" class="cls-22" fill="#fff"></path><path d="M65.99 411.38c0 25.76 38.87 25.76 38.87 0s-38.87-25.76-38.87 0" fill="url(#1776867897842-2410172_radial-gradient-2)"></path><path d="M330.11 403.7c0 24.24 36.63 24.24 36.63 0s-36.63-24.24-36.63 0" fill="url(#1776867897842-2410172_radial-gradient-3)"></path><path d="M423.29 386.34c-32.79-11.36-53.83-32.47-53.83-32.47s16.64 2.08 38.87-7.44c-30.24-6.16-57.51-29.6-72.15-44.23H107.02c-6.24 7.12-36.79 40.31-72.87 48.87 19.28 9.44 37.43 3.36 37.43 3.36s-25.2 12.48-41.19 15.2c24 6.32 50.71-2.88 50.71-2.88s-29.52 18.48-65.03 19.28c6.64 3.84 14.96 5.92 23.2 5.84-3.6 1.04-7.2 2.08-10.88 3.12 28 9.12 59.19-5.52 59.19-5.52s-8.8 10.64-23.2 13.52c28.32 1.44 54.95-11.04 69.03-30.8-7.52 15.52-21.92 28.88-40.07 36.95 55.19-1.68 75.27-43.83 75.27-43.83s-15.68 41.27-24.48 58.39c21.12-4.88 51.27-37.91 51.27-37.91s-2.8 25.6 20.88 41.19c5.28-12.72 4.88-40.63 7.36-53.83 9.36 29.44 39.43 31.99 51.11 34.31-9.68-10.8-18.32-22.16-25.84-33.99 17.6 18.96 46.47 30.88 75.91 31.36-8.56-6.4-15.28-14.48-19.36-23.28 9.36 8.16 22.48 13.44 36.15 14.72-4-6-8.08-12.08-12.08-18.08 26.8 14.96 63.43 18.24 93.75 8.16Z" fill="url(#1776867897842-2410172_linear-gradient-5)"></path><path d="M154.62 380.66c0 22 33.19 22 33.19 0s-33.19-22-33.19 0" fill="url(#1776867897842-2410172_radial-gradient-4)"></path><path d="M352.98 357.46c0 24.16 36.55 24.16 36.55 0-.08-24.16-36.55-24.16-36.55 0" fill="url(#1776867897842-2410172_radial-gradient-5)"></path><path d="M240.04 362.58c0 24.08 36.39 24.08 36.39 0s-36.39-24.16-36.39 0" fill="url(#1776867897842-2410172_radial-gradient-6)"></path><path d="M385.94 304.11c-33.83-8-64.23-30.96-79.11-43.67H134.94c-10.08 9.2-58.07 51.67-89.27 52.15 18.56 14.72 48.87 12.16 48.87 12.16s-12.08 10.88-15.36 13.84c14.24.48 28.64-2.32 41.03-7.84-4.8 5.2-10.08 10.08-15.84 14.72 25.92-1.36 51.03-10.4 69.43-25.12-.88 3.52-1.68 7.04-2.56 10.56 14.24-2.4 36.71-17.6 36.71-17.6s-4.16 22.24 21.12 42.95c2.56-12.88 5.04-33.75 5.04-33.75s7.2 23.76 42.79 28.64c-1.2-7.2 1.28-14.72 1.28-14.72s13.44 21.52 50.79 24.24c-4.08-4.48-7.2-9.44-9.36-14.64 10.48 6.08 23.68 12.4 35.35 8-17.92-8.88-33.75-20.48-46.39-34.07 8.32 5.2 21.36 15.28 41.99 13.36-1.6-1.76-3.2-3.6-4.88-5.36 18.32 6.16 40.39 4.56 57.03-4.16-18.56-1.84-36.55-7.2-52.15-15.36 11.68 3.52 25.6 1.84 35.35-4.32Z" fill="url(#1776867897842-2410172_linear-gradient-6)"></path><path d="M91.03 292.59c0 22 33.19 22 33.19 0s-33.19-22-33.19 0" fill="url(#1776867897842-2410172_radial-gradient-7)"></path><path d="M329.31 289.31c0 25.36 38.23 25.36 38.23 0 .08-25.28-38.23-25.28-38.23 0" fill="url(#1776867897842-2410172_radial-gradient-8)"></path><path id="1776867897842-2410172_Shape-2" d="M145.82 316.19c-1.92 18.08-5.68 21.28-21.6 23.2 15.92 1.92 19.68 5.2 21.6 23.2 1.84-18 5.6-21.28 21.52-23.2-15.92-1.92-19.68-5.2-21.52-23.2" class="cls-22" data-name="Shape" fill="#fff"></path><path d="M333.31 268.6s21.04 4.88 44.79-5.04c-44.39-11.28-74.15-23.84-88.55-51.35H142.21c-16.32 11.28-45.11 28.88-72.87 34.87 12.4 9.28 26.48 10.72 36.63 12.56 0 0-19.6 9.12-42.07 10.32 27.04 14.08 58.07 9.68 69.83 6.8-6.32 4.48-13.84 8-21.92 10.4 11.04.96 22.32-.16 32.63-3.2-.72 3.92-13.68 11.92-13.68 11.92s27.04-2.48 36.23-15.52c-.48 3.44 1.28 10.16-12.32 20.64 28.88 1.36 47.83-11.92 54.31-17.36 2.64 5.12-3.6 16.24-3.6 16.24s35.03-9.36 33.11-31.52c3.52 6.08 8.08 30.08 40.95 39.99-10-17.92-9.84-32.15-9.84-32.15s11.12 18.16 35.91 26.08c-11.92-15.04-7.12-30.4-7.12-30.4s23.12 18.72 55.19 15.76c-13.28-8-20.32-19.04-20.32-19.04Z" fill="url(#1776867897842-2410172_linear-gradient-7)"></path><path d="M185.73 285.8c0 25.36 38.23 25.36 38.23 0 .08-25.36-38.23-25.36-38.23 0" fill="url(#1776867897842-2410172_radial-gradient-9)"></path><path id="1776867897842-2410172_Shape-3" d="M270.2 253.48c-2.32 22.72-7.12 26.8-27.12 29.2 20 2.4 24.8 6.48 27.12 29.2 2.32-22.72 7.12-26.8 27.12-29.2-20.08-2.4-24.8-6.48-27.12-29.2" class="cls-22" data-name="Shape" fill="#fff"></path><path d="M139.18 246.36c0 21.2 31.99 21.2 31.99 0s-31.99-21.12-31.99 0" fill="url(#1776867897842-2410172_radial-gradient-10)"></path><path d="M340.19 224.44c-9.12-3.76-17.52-8.24-24.88-13.36 16.64 3.36 34.55 4 51.59 1.84-29.76-3.6-56.07-18.32-56.07-18.32s13.84 3.68 24.24 2.24c-26.88-7.44-47.35-28.88-47.35-28.88l-119.58-.32c-7.68 4.8-35.83 21.6-54.47 23.04 8.4 3.28 22.96 2.24 22.96 2.24s-32.79 8.24-61.51 9.84c17.84 5.28 38.95 5.04 38.95 5.04s-16.32 7.92-33.51 8.4c27.28 13.04 70.07 4.88 70.07 4.88s-20.16 14.24-36.23 16c21.12 1.04 47.67-5.76 47.67-5.76s-4.72 9.44-12.64 14.72c21.2-1.52 34.07-9.68 34.07-9.68s-.88 10.4.88 15.52c7.44-4.72 12.96-10.8 15.76-17.36.8 5.2 2.88 10.32 6.24 15.04 11.36-6.08 18.24-15.52 18.24-25.12 9.12 9.92 22.48 18.24 38.15 23.68-2.24-5.12-4.48-10.16-6.72-15.28 15.84 11.92 42.07 14.8 65.99 16.88-6.4-4.24-12.72-8.56-19.12-12.8 13.68 5.76 30.48 8.24 46.55 6.88-19.84-8-38.23-17.52-54.71-28.24 12.56 6.56 29.28 9.92 45.43 8.88" fill="url(#1776867897842-2410172_linear-gradient-8)"></path><path d="M264.84 195.25c0 20.8 31.44 20.8 31.44 0-.08-20.8-31.44-20.8-31.44 0" fill="url(#1776867897842-2410172_radial-gradient-11)"></path><path d="M298.91 164.05s11.6-4.56 13.6-8.72c-16.32-2.88-40.95-24.64-53.35-37.35h-74.55c-12.48 21.44-36.79 37.27-63.83 41.11 8.96 2.24 18.4 2.8 27.6 1.68-7.52 3.68-15.68 6.56-24 8.32 9.36 1.28 19.04.88 28.24-1.04a130.3 130.3 0 0 1-33.27 13.92c12.32 1.84 25.12.96 36.95-2.56-2.32 4.56-6.16 8.48-10.8 11.28 12.08.32 24.24-4.64 31.84-12.96-4.16 8.8-11.04 16.64-19.76 22.4 14.72-.64 28.64-8.88 34.95-20.64 2.72 8.4 2.08 17.68-1.76 25.76 8.48-5.28 11.92-15.04 12.32-24.24 10.64 9.04 23.44 16.16 37.27 20.72-6.56-8.16-11.12-17.6-13.28-27.44 9.92 9.36 22.96 16.16 37.11 19.2-4.16-5.76-6.56-12.48-6.88-19.28 6.56 7.28 15.68 12.64 25.76 15.2a59 59 0 0 0-6-17.76c12.32 10.08 27.68 13.52 45.59 4.64-13.84-3.28-23.76-12.24-23.76-12.24Z" fill="url(#1776867897842-2410172_linear-gradient-9)"></path><path id="1776867897842-2410172_Shape-4" d="M214.61 162.61c-2.32 25.36-6.96 29.92-26.56 32.63 19.6 2.64 24.24 7.2 26.56 32.63 2.32-25.36 6.96-30 26.56-32.63-19.6-2.72-24.24-7.28-26.56-32.63" class="cls-22" data-name="Shape" fill="#fff"></path><path d="M161.49 157.58c0 19.52 29.52 19.52 29.52 0s-29.52-19.6-29.52 0" fill="url(#1776867897842-2410172_radial-gradient-12)"></path><path d="M261.32 129.5s13.68 7.84 27.28 4.4c-17.76-9.36-22.88-16.88-22.88-16.88s4.24.24 13.28-2.56c-18.88-10.8-44.23-31.28-51.75-63.11-1.12-4.64-4.56-4.64-5.84 0-7.2 25.92-33.11 57.11-56.63 65.59 3.36 3.36 8.08 4.16 8.08 4.16s-11.92 8.8-21.84 10.24c8.56 3.84 19.52 2.56 19.52 2.56s-7.84 14.08-22.88 20.64c28.56-1.92 42.07-16 48.31-24.96 2.96 10.56-1.2 26.16-1.2 26.16s19.68-10.32 18.16-28.8c3.92 22.32 27.36 34.39 27.36 34.39s-6.8-17.84-3.92-31.84c14.48 24.16 45.19 31.12 52.47 31.84-21.92-15.76-27.52-31.84-27.52-31.84Z" fill="url(#1776867897842-2410172_linear-gradient-10)"></path><path d="M221.73 2.88c1.28-3.84 3.28-3.84 4.56 0l11.44 35.03h36.71c4.24 0 4.96 2 1.6 4.48L246.2 63.91l11.44 34.95c1.28 3.84-.48 4.96-3.84 2.56l-29.84-21.44-29.76 21.44c-3.36 2.48-5.12 1.28-3.92-2.56l11.44-34.95-29.84-21.52c-3.36-2.48-2.64-4.48 1.6-4.48h36.71l11.52-35.03Z" fill="url(#1776867897842-2410172_linear-gradient-11)"></path><path id="1776867897842-2410172_Shape-5" d="M290.75 375.06c-2.16 23.92-6.56 28.16-24.96 30.72 18.4 2.48 22.8 6.8 24.96 30.72 2.16-23.92 6.56-28.24 24.96-30.72-18.4-2.48-22.8-6.8-24.96-30.72" class="cls-22" data-name="Shape" fill="#fff"></path></g></svg>