<svg data-name="Layer 1" xmlns="http://www.w3.org/2000/svg" style="" viewBox="0 0 477.86 512"><g class="nc-icon-wrapper"><defs><linearGradient id="1777685730163-5929841_linear-gradient" x1="-529.4" y1="688.68" x2="-529.4" y2="696.65" gradientTransform="matrix(55.999 0 0 -36.19 29884.668 25226.83)" gradientUnits="userSpaceOnUse"><stop offset="0" stop-color="#dadada"></stop><stop offset="1" stop-color="#fdfdfd"></stop></linearGradient><linearGradient id="1777685730163-5929841_linear-gradient-2" x1="-530.01" y1="697.96" x2="-530.01" y2="690" gradientTransform="matrix(60 0 0 -40 32039.402 27918.5)" gradientUnits="userSpaceOnUse"><stop offset="0" stop-color="#b2b2b2"></stop><stop offset="1" stop-color="#6b6b6b"></stop></linearGradient></defs><path class="cls-3" d="M353.61,380.68v-30.24l9.52-9.37c.89-.88.91-2.31.03-3.21s-2.3-.9-3.21-.03l-6.34,6.25v-10.31c0-1.25-1.02-2.27-2.28-2.27s-2.28,1.01-2.28,2.27v10.31l-6.36-6.24c-.89-.88-2.32-.87-3.2.03-.89.89-.87,2.33.03,3.21l9.54,9.38v30.23l-9.54,9.38c-.89.89-.9,2.32-.03,3.23.44.44,1.02.67,1.6.67s1.16-.21,1.6-.65l6.37-6.24v10.3c0,1.26,1.02,2.28,2.28,2.28s2.28-1.02,2.28-2.28v-10.3l6.34,6.24c.44.44,1.02.65,1.59.65s1.19-.22,1.62-.67c.89-.9.87-2.33-.03-3.23l-9.53-9.39Z" fill="#75d6ff"></path><path class="cls-3" d="M380.29,359.17l-8.78-2.36,9.11-5.15c1.12-.63,1.5-2.01.87-3.1-.66-1.09-2.07-1.46-3.18-.84l-9.11,5.15,2.28-8.63c.32-1.22-.43-2.46-1.66-2.76-1.25-.32-2.5.42-2.82,1.62l-3.43,12.95-26.77,15.13-13.18-3.58c-1.23-.33-2.5.38-2.84,1.59-.35,1.21.38,2.47,1.61,2.8l8.76,2.38-9.12,5.15c-1.1.63-1.48,2.01-.84,3.1.44.73,1.22,1.14,2.01,1.14.4,0,.8-.1,1.15-.31l9.11-5.15-2.28,8.63c-.32,1.22.43,2.46,1.66,2.76.2.06.4.08.58.08,1.02,0,1.98-.68,2.25-1.7l3.41-12.96,26.76-15.11,13.18,3.58c.2.06.43.09.62.09,1.02,0,1.95-.66,2.24-1.66.36-1.24-.36-2.48-1.6-2.82v-.02Z" fill="#75d6ff"></path><path class="cls-3" d="M380.62,379.5l-9.11-5.15,8.78-2.38c1.25-.33,1.95-1.6,1.6-2.8-.34-1.21-1.6-1.92-2.86-1.59l-13.16,3.58-26.78-15.13-3.41-12.95c-.32-1.21-1.59-1.95-2.83-1.62-1.25.31-1.98,1.55-1.66,2.76l2.28,8.63-9.11-5.15c-1.1-.62-2.53-.26-3.17.84-.63,1.08-.26,2.47.84,3.1l9.12,5.15-8.76,2.36c-1.24.33-1.96,1.59-1.61,2.8.27,1.01,1.22,1.66,2.24,1.66.2,0,.41-.03.61-.09l13.18-3.58,26.77,15.12,3.43,12.95c.26,1.02,1.2,1.7,2.24,1.7.19,0,.38-.02.58-.08,1.24-.31,1.98-1.55,1.66-2.76l-2.28-8.63,9.11,5.15c.38.2.78.31,1.16.31.8,0,1.59-.41,2.02-1.14.63-1.07.25-2.45-.87-3.08v.02ZM128.79,380.69v-30.24l9.54-9.37c.89-.89.9-2.31.03-3.22-.88-.89-2.31-.9-3.2-.03l-6.37,6.24v-10.3c0-1.25-1.02-2.27-2.27-2.27s-2.29,1.01-2.29,2.27v10.3l-6.34-6.24c-.9-.88-2.33-.87-3.21.03-.89.9-.88,2.33.03,3.22l9.52,9.37v30.24l-9.52,9.38c-.9.89-.91,2.31-.03,3.22.44.45,1.02.67,1.62.67.55,0,1.14-.2,1.59-.65l6.34-6.24v10.3c0,1.25,1.02,2.28,2.29,2.28s2.27-1.02,2.27-2.28v-10.3l6.37,6.24c.44.44,1.01.65,1.6.65s1.18-.22,1.6-.67c.89-.9.87-2.33-.03-3.22l-9.54-9.38Z" fill="#75d6ff"></path><path class="cls-3" d="M155.47,359.19l-8.76-2.38,9.12-5.15c1.08-.6,1.47-1.96.87-3.05-.01-.02-.02-.04-.03-.05-.64-1.1-2.07-1.46-3.17-.84l-9.11,5.15,2.28-8.64c.32-1.21-.43-2.45-1.66-2.76-1.24-.32-2.51.42-2.83,1.63l-3.41,12.95-26.78,15.12-13.16-3.58c-1.25-.34-2.52.38-2.86,1.59-.35,1.21.38,2.46,1.6,2.79l8.78,2.38-9.11,5.15c-1.12.62-1.5,2.01-.87,3.1.44.73,1.23,1.14,2.02,1.14.38,0,.79-.1,1.16-.31l9.11-5.15-2.28,8.63c-.32,1.22.43,2.45,1.66,2.76.2.05.39.07.59.07,1.03,0,1.96-.68,2.24-1.7l3.43-12.95,26.77-15.11,13.18,3.57c.2.07.4.09.61.09,1.02,0,1.95-.65,2.24-1.66.34-1.2-.39-2.46-1.62-2.78h0Z" fill="#75d6ff"></path><path class="cls-3" d="M155.83,379.51l-9.12-5.15,8.76-2.38c1.24-.33,1.96-1.59,1.62-2.79-.33-1.21-1.6-1.93-2.85-1.59l-13.18,3.58-26.77-15.12-3.43-12.95c-.32-1.22-1.59-1.95-2.82-1.63-1.24.32-1.98,1.56-1.66,2.76l2.28,8.64-9.11-5.15c-1.12-.62-2.53-.26-3.18.84-.63,1.08-.25,2.47.87,3.1l9.11,5.15-8.78,2.38c-1.24.32-1.95,1.59-1.6,2.78.27,1.02,1.21,1.66,2.24,1.66.2,0,.42-.02.62-.09l13.18-3.57,26.76,15.11,3.41,12.95c.26,1.02,1.23,1.7,2.25,1.7.18,0,.38-.02.58-.07,1.25-.32,1.98-1.55,1.66-2.76l-2.28-8.63,9.11,5.15c.36.2.75.31,1.15.31.8,0,1.59-.42,2.01-1.14.63-1.09.26-2.47-.84-3.1h.01ZM241.19,428.38v-30.25l9.54-9.37c.89-.89.9-2.31.03-3.22-.88-.89-2.31-.9-3.21-.03l-6.36,6.24v-10.3c0-1.25-1.02-2.27-2.28-2.27s-2.28,1.02-2.28,2.27v10.3l-6.34-6.24c-.9-.88-2.33-.87-3.21.03-.89.9-.89,2.33.03,3.22l9.52,9.38v30.24l-9.52,9.37c-.9.89-.91,2.31-.03,3.22.44.45,1.02.67,1.62.67.55,0,1.14-.2,1.59-.66l6.34-6.23v10.3c0,1.25,1.02,2.27,2.28,2.27s2.28-1.01,2.28-2.27v-10.3l6.36,6.23c.44.45,1.02.66,1.6.66s1.18-.22,1.6-.67c.89-.9.87-2.33-.03-3.22l-9.54-9.37h.01Z" fill="#75d6ff"></path><path class="cls-3" d="M267.88,406.86l-8.78-2.38,9.13-5.15c1.1-.63,1.48-2.01.84-3.11-.63-1.09-2.06-1.46-3.17-.83l-9.11,5.15,2.28-8.63c.32-1.23-.44-2.46-1.66-2.77s-2.52.43-2.83,1.63l-3.41,12.95-26.78,15.11-13.16-3.58c-1.25-.33-2.52.38-2.86,1.59-.35,1.21.37,2.46,1.6,2.79l8.78,2.39-9.11,5.15c-1.12.61-1.5,2-.87,3.09.44.73,1.23,1.14,2.02,1.14.38,0,.79-.1,1.16-.32l9.11-5.15-2.29,8.64c-.32,1.22.44,2.45,1.66,2.76.2.05.38.08.58.08,1.04,0,1.97-.69,2.24-1.71l3.43-12.95,26.78-15.11,13.18,3.57c.2.07.4.09.61.09,1.01,0,1.95-.65,2.24-1.66.36-1.2-.38-2.45-1.6-2.78h0Z" fill="#75d6ff"></path><path class="cls-3" d="M268.24,427.2l-9.13-5.15,8.77-2.39c1.24-.33,1.96-1.59,1.61-2.79-.32-1.21-1.6-1.92-2.84-1.59l-13.18,3.58-26.78-15.11-3.43-12.95c-.32-1.21-1.59-1.95-2.82-1.63s-1.98,1.55-1.66,2.77l2.29,8.63-9.11-5.15c-1.11-.63-2.52-.26-3.18.83-.63,1.09-.25,2.47.87,3.11l9.11,5.15-8.78,2.37c-1.2.3-1.92,1.52-1.62,2.71,0,.03.01.05.02.08.27,1.02,1.21,1.66,2.24,1.66.2,0,.41-.02.62-.09l13.18-3.57,26.76,15.12,3.41,12.95c.26,1.03,1.23,1.71,2.25,1.71.18,0,.38-.03.58-.08,1.24-.32,1.98-1.55,1.66-2.76l-2.28-8.64,9.11,5.15c.36.21.76.32,1.16.32.8,0,1.59-.42,2.01-1.14.63-1.09.26-2.47-.84-3.09h0Z" fill="#75d6ff"></path><path class="cls-4" d="M166.03,494.96v-27.22l8.58-8.43c.81-.79.82-2.09.03-2.89s-2.07-.81-2.89-.03l-5.72,5.61v-9.27c0-1.13-.91-2.05-2.05-2.05s-2.05.91-2.05,2.05v9.27l-5.71-5.61c-.81-.79-2.1-.78-2.89.03s-.79,2.11.02,2.89l8.58,8.43v27.22l-8.58,8.43c-.8.8-.81,2.07-.02,2.88.4.42.91.61,1.45.61s1.04-.19,1.44-.6l5.71-5.61v9.28c0,1.13.93,2.05,2.05,2.05s2.05-.91,2.05-2.05v-9.28l5.72,5.61c.4.41.91.6,1.44.6s1.05-.2,1.45-.61c.79-.81.79-2.08-.03-2.88l-8.58-8.43Z" fill="#a6e4ff"></path><path class="cls-4" d="M190.05,475.58l-7.91-2.13,8.21-4.64c1.02-.57,1.35-1.83.78-2.79-.58-.98-1.87-1.3-2.86-.75l-8.21,4.63,2.05-7.76c.3-1.11-.37-2.23-1.48-2.5-1.11-.29-2.27.39-2.54,1.48l-3.09,11.65-24.09,13.62-11.84-3.23c-1.13-.29-2.27.35-2.59,1.44-.31,1.08.34,2.21,1.46,2.52l7.89,2.14-8.19,4.64c-1,.54-1.34,1.79-.78,2.78.38.65,1.11,1.02,1.83,1.02.34,0,.71-.1,1.02-.28l8.21-4.63-2.05,7.76c-.29,1.09.38,2.21,1.51,2.49.17.05.34.08.53.08.92,0,1.77-.62,2.01-1.54l3.09-11.65,24.08-13.6,11.86,3.2c.18.06.37.07.55.07.91,0,1.75-.58,2.01-1.48.31-1.09-.35-2.22-1.45-2.52v-.02Z" fill="#a6e4ff"></path><path class="cls-4" d="M190.35,493.89l-8.21-4.64,7.91-2.14c1.1-.31,1.75-1.44,1.45-2.52-.31-1.09-1.45-1.73-2.57-1.44l-11.86,3.23-24.08-13.62-3.09-11.65c-.29-1.08-1.42-1.77-2.53-1.48-1.13.27-1.8,1.39-1.51,2.5l2.05,7.76-8.21-4.63c-1-.55-2.28-.23-2.85.75-.56.96-.22,2.22.78,2.79l8.19,4.64-7.89,2.13c-1.09.27-1.75,1.38-1.47,2.47,0,.02,0,.03.01.05.26.9,1.1,1.48,2.01,1.48.19,0,.38,0,.56-.07l11.85-3.2,24.08,13.61,3.09,11.64c.23.93,1.09,1.54,2.01,1.54.16,0,.35-.03.53-.08,1.12-.28,1.78-1.4,1.48-2.49l-2.05-7.76,8.22,4.63c.33.18.69.28,1.05.28.72,0,1.41-.38,1.81-1.02.58-.99.25-2.24-.77-2.78v.02ZM315.91,494.96v-27.22l8.58-8.43c.82-.79.84-2.09.03-2.89-.79-.8-2.07-.81-2.89-.03l-5.72,5.61v-9.27c0-1.13-.92-2.05-2.05-2.05s-2.05.91-2.05,2.05v9.27l-5.71-5.61c-.82-.79-2.1-.78-2.89.03s-.79,2.11.02,2.89l8.58,8.43v27.22l-8.58,8.43c-.8.8-.81,2.07-.02,2.88.4.42.92.61,1.46.61s1.03-.19,1.43-.6l5.71-5.61v9.28c0,1.13.93,2.05,2.05,2.05s2.05-.91,2.05-2.05v-9.28l5.72,5.61c.4.41.91.6,1.44.6s1.05-.2,1.45-.61c.8-.81.79-2.08-.03-2.88l-8.58-8.43Z" fill="#a6e4ff"></path><path class="cls-4" d="M339.93,475.58l-7.91-2.13,8.21-4.64c1.02-.57,1.35-1.83.78-2.79-.58-.98-1.87-1.3-2.86-.75l-8.21,4.63,2.05-7.76c.29-1.11-.38-2.23-1.49-2.5-1.11-.29-2.27.39-2.54,1.48l-3.09,11.65-24.09,13.62-11.84-3.23c-1.13-.29-2.27.35-2.59,1.44-.31,1.08.34,2.21,1.46,2.52l7.89,2.14-8.19,4.64c-1,.54-1.35,1.79-.78,2.78.38.65,1.11,1.02,1.83,1.02.34,0,.7-.1,1.02-.28l8.21-4.63-2.05,7.76c-.29,1.09.38,2.21,1.5,2.49.18.05.35.08.54.08.91,0,1.77-.62,2.01-1.54l3.08-11.65,24.08-13.6,11.85,3.2c.19.06.38.07.56.07.91,0,1.75-.58,2.01-1.48.3-1.09-.33-2.21-1.42-2.51,0,0-.02,0-.02,0v-.02Z" fill="#a6e4ff"></path><path class="cls-4" d="M340.22,493.89l-8.21-4.64,7.91-2.14c1.1-.31,1.75-1.44,1.45-2.52-.31-1.09-1.45-1.73-2.58-1.44l-11.85,3.23-24.08-13.62-3.08-11.65c-.3-1.08-1.43-1.77-2.55-1.48-1.09.26-1.77,1.35-1.51,2.45,0,.02,0,.04.01.05l2.05,7.76-8.21-4.63c-1-.55-2.28-.23-2.85.75-.57.96-.22,2.22.78,2.79l8.19,4.64-7.89,2.13c-1.09.27-1.75,1.38-1.47,2.47,0,.02,0,.03.01.05.26.9,1.1,1.48,2.02,1.48.18,0,.37,0,.55-.07l11.85-3.2,24.08,13.61,3.09,11.64c.23.93,1.09,1.54,2.01,1.54.17,0,.35-.03.53-.08,1.12-.28,1.78-1.4,1.49-2.49l-2.05-7.76,8.21,4.63c.33.18.69.28,1.05.28.72,0,1.41-.38,1.81-1.02.58-.99.25-2.24-.77-2.78v.02Z" fill="#a6e4ff"></path><path id="1777685730163-5929841_Path" class="cls-2" d="M70.53,299.56c-32.65-10.28-54.6-39.21-54.6-71.99,0-21.87,9.98-42.7,27.29-57.13,4.51-3.75,9.36-6.95,14.57-9.62l-.24-.03,5.27-17.55c13.17-43.81,55.73-74.39,103.52-74.39,4.78,0,9.69.36,15.4,1.14,4.39.6,8.71,1.43,12.95,2.54l2.09-3.64c19.29-33.13,55.96-53.74,95.64-53.74,60.28,0,109.33,46.75,109.33,104.18,0,2.83-.18,5.56-.45,8.31l-.15,2.02c4.63,1.68,9.13,3.75,13.53,6.18,29.13,15.98,47.26,45.8,47.26,77.73,0,42.09-30.05,78.07-73.07,87.47-7.04,1.55-14.16,2.36-21.15,2.36H95.52c-8.48,0-16.9-1.27-24.99-3.85h0Z" fill="url(#1777685730163-5929841_linear-gradient)"></path><path id="1777685730163-5929841_Shape" class="cls-1" d="M292.42,30.34c51.58,0,93.37,39.87,93.37,89.02,0,2.41-.18,4.74-.38,7.06-21.56,1.6-41.19,9.79-56.61,22.55,11.93-6.52,25.32-9.93,38.92-9.92,5.25,0,10.37.49,15.36,1.42,8.28,1.59,16.26,4.47,23.64,8.55,23.5,12.88,39.3,36.95,39.3,64.59,0,35.44-25.95,65.09-60.7,72.7-5.67,1.25-11.53,1.98-17.58,1.98H95.52c-6.95,0-13.7-1.13-19.97-3.13-25.39-7.96-43.68-30.7-43.68-57.57,0-18.29,8.46-34.6,21.84-45.7,6.07-5.04,13.11-8.98,20.86-11.58,6.58-2.15,13.62-3.4,20.96-3.4,20.53,0,38.73,9.28,50.38,23.66h.58c-13.51-23.71-38.79-40.44-68.38-43.13,11.02-36.57,46.3-63.39,88.22-63.39,4.48,0,8.82.42,13.11.99,8.54,1.19,16.64,3.4,24.23,6.61,28.25,12.01,48.89,37.17,53.49,67.34,0-.18.03-.35.03-.53,0-34.32-18.51-64.55-46.51-82.17,16-27.37,46.56-45.93,81.76-45.93M292.42,0c-42.93,0-82.8,21.03-105.74,55.36-.87-.15-1.74-.26-2.66-.4-6.55-.89-12.15-1.28-17.69-1.28-54.82,0-103.7,35.09-118.82,85.38l-3.64,11.97c-3.91,2.39-7.63,5.06-11.14,8C11.95,176.32,0,201.29,0,227.57c0,39.34,26.36,74.06,65.58,86.4,9.69,3.06,19.79,4.62,29.95,4.62h272.19c8.19,0,16.54-.9,24.76-2.73,50.26-11.02,85.38-53.03,85.38-102.26,0-37.36-21.15-72.21-55.23-90.91-1.65-.89-3.31-1.75-4.99-2.57v-.77c0-65.8-56.2-119.35-125.22-119.35" fill="url(#1777685730163-5929841_linear-gradient-2)"></path></g></svg>