<svg data-name="Layer 1" xmlns="http://www.w3.org/2000/svg" style="" viewBox="0 0 512 512"><g class="nc-icon-wrapper"><defs><linearGradient id="1776867897848-6478437_linear-gradient" x1="256" y1="1024" x2="256" y2="512" gradientTransform="translate(0 -512)" gradientUnits="userSpaceOnUse"><stop offset="0" stop-color="#d90100"></stop><stop offset=".12" stop-color="#e01313"></stop><stop offset=".37" stop-color="#ee3535"></stop><stop offset=".6" stop-color="#f74d4d"></stop><stop offset=".82" stop-color="#fd5c5c"></stop><stop offset="1" stop-color="#ff6161"></stop></linearGradient><linearGradient id="1776867897848-6478437_linear-gradient-2" x1="254.21" y1="901.63" x2="254.21" y2="625.66" gradientTransform="translate(0 -512)" gradientUnits="userSpaceOnUse"><stop offset="0" stop-color="#f80"></stop><stop offset=".21" stop-color="#ffa113"></stop><stop offset=".54" stop-color="#ffc32b"></stop><stop offset=".82" stop-color="#ffd83a"></stop><stop offset="1" stop-color="#ffdf40"></stop></linearGradient><linearGradient id="1776867897848-6478437_linear-gradient-3" x1="-75.93" y1="1732.43" x2="-75.93" y2="1456.46" gradientTransform="matrix(.42 0 0 .42 286.43 -423.38)" gradientUnits="userSpaceOnUse"><stop offset="0" stop-color="#fff1a3"></stop><stop offset=".16" stop-color="#fff4b6"></stop><stop offset=".53" stop-color="#fffade"></stop><stop offset=".82" stop-color="#fffef6"></stop><stop offset="1" stop-color="#fff"></stop></linearGradient></defs><path class="cls-3" d="M357.38,283.14l90.62,117.25-124.93-48.13,4.1,131.07-72.7-109.06-54.27,137.73-5.12-150.53-132.1,79.36,80.38-143.36L0,264.7l150.02-29.18L27.14,123.39l154.11,50.69L136.7,0l102.91,139.78,68.1-120.83-11.26,146.94,93.7-67.07-51.2,106.5,173.06-7.68-154.62,85.5Z" fill="url(#1776867897848-6478437_linear-gradient)"></path><path class="cls-2" d="M312.83,270.34l43.52,64.51-66.05-28.67,1.02,65.54-36.86-54.27-32.26,72.19-2.05-78.85-90.11,60.93,58.88-90.11-83.46-18.94,91.14-21.5-73.22-62.98,89.6,22.53-23.55-87.04,53.76,69.12,35.33-67.58-2.05,80.9,53.25-30.21-26.62,59.39,99.84,3.07-90.11,41.98Z" fill="url(#1776867897848-6478437_linear-gradient-2)"></path><path class="cls-1" d="M279.11,259.62l18.43,27.31-27.96-12.14.43,27.75-15.61-22.98-13.66,30.57-.87-33.38-38.15,25.8,24.93-38.15-35.34-8.02,38.59-9.1-31-26.66,37.94,9.54-9.97-36.85,22.76,29.27,14.96-28.62-.87,34.25,22.55-12.79-11.27,25.15,42.27,1.3-38.15,17.78Z" fill="url(#1776867897848-6478437_linear-gradient-3)"></path></g></svg>