<svg xmlns="http://www.w3.org/2000/svg" style="" viewBox="0 0 436.75 512"><g class="nc-icon-wrapper"><defs><radialGradient id="1776131386436-4334645_radial-gradient" cx="434.09" cy="361.09" fx="434.09" fy="361.09" r="41.08" gradientTransform="matrix(1 0 0 -1 0 463.81)" gradientUnits="userSpaceOnUse"><stop offset=".6" stop-color="#824300"></stop><stop offset=".64" stop-color="#a3610a"></stop><stop offset=".7" stop-color="#cb8416"></stop><stop offset=".75" stop-color="#e79e1f"></stop><stop offset=".8" stop-color="#f9ad24"></stop><stop offset=".83" stop-color="#ffb326"></stop><stop offset=".86" stop-color="#faaf25"></stop><stop offset=".89" stop-color="#eda320"></stop><stop offset=".92" stop-color="#d68e1a"></stop><stop offset=".96" stop-color="#b67210"></stop><stop offset=".99" stop-color="#8e4e04"></stop><stop offset="1" stop-color="#824300"></stop></radialGradient><linearGradient id="1776131386436-4334645_linear-gradient" x1="204.38" y1="392.05" x2="231.13" y2="392.05" gradientTransform="matrix(1 0 0 -1 0 463.81)" gradientUnits="userSpaceOnUse"><stop offset="0" stop-color="#ffb326"></stop><stop offset=".5" stop-color="#a75f00"></stop><stop offset="1" stop-color="#824300"></stop></linearGradient><linearGradient id="1776131386436-4334645_linear-gradient-2" x1="371.24" y1="13.96" x2="65.52" y2="319.69" gradientTransform="matrix(1 0 0 -1 0 463.81)" gradientUnits="userSpaceOnUse"><stop offset="0" stop-color="#824300"></stop><stop offset=".05" stop-color="#935000"></stop><stop offset=".1" stop-color="#9e5800"></stop><stop offset=".18" stop-color="#a55e00"></stop><stop offset=".39" stop-color="#a75f00"></stop><stop offset=".54" stop-color="#c57c0d"></stop><stop offset=".73" stop-color="#e59a1b"></stop><stop offset=".89" stop-color="#f8ac23"></stop><stop offset="1" stop-color="#ffb326"></stop></linearGradient><linearGradient id="1776131386436-4334645_linear-gradient-3" x1="367.27" y1="17.93" x2="69.47" y2="315.74" gradientTransform="matrix(1 0 0 -1 0 463.81)" gradientUnits="userSpaceOnUse"><stop offset="0" stop-color="#824300"></stop><stop offset=".53" stop-color="#ffd045"></stop><stop offset=".6" stop-color="#f9c940"></stop><stop offset=".71" stop-color="#e9b434"></stop><stop offset=".84" stop-color="#cf921f"></stop><stop offset=".98" stop-color="#ab6403"></stop><stop offset="1" stop-color="#a75f00"></stop></linearGradient><linearGradient id="1776131386436-4334645_linear-gradient-4" x1="362.93" y1="22.21" x2="73.74" y2="311.39" gradientTransform="matrix(1 0 0 -1 0 463.81)" gradientUnits="userSpaceOnUse"><stop offset="0" stop-color="#e88b00"></stop><stop offset=".05" stop-color="#e58900"></stop><stop offset=".1" stop-color="#db8200"></stop><stop offset=".14" stop-color="#ca7700"></stop><stop offset=".18" stop-color="#b26700"></stop><stop offset=".19" stop-color="#a75f00"></stop><stop offset=".25" stop-color="#aa6100"></stop><stop offset=".28" stop-color="#b26700"></stop><stop offset=".32" stop-color="#c17100"></stop><stop offset=".34" stop-color="#d67f00"></stop><stop offset=".36" stop-color="#e88b00"></stop><stop offset=".39" stop-color="#d57e00"></stop><stop offset=".45" stop-color="#bc6d00"></stop><stop offset=".5" stop-color="#ac6300"></stop><stop offset=".54" stop-color="#a75f00"></stop><stop offset=".57" stop-color="#cd8310"></stop><stop offset=".59" stop-color="#e89d1c"></stop><stop offset=".62" stop-color="#f9ad23"></stop><stop offset=".64" stop-color="#ffb326"></stop><stop offset=".66" stop-color="#f8ac23"></stop><stop offset=".7" stop-color="#e4991a"></stop><stop offset=".75" stop-color="#c47a0c"></stop><stop offset=".78" stop-color="#a75f00"></stop><stop offset=".82" stop-color="#b06804"></stop><stop offset=".89" stop-color="#c97f0f"></stop><stop offset=".97" stop-color="#f0a520"></stop><stop offset="1" stop-color="#ffb326"></stop></linearGradient><linearGradient id="1776131386436-4334645_linear-gradient-5" x1="347.41" y1="37.63" x2="89.13" y2="295.91" gradientTransform="matrix(1 0 0 -1 0 463.81)" gradientUnits="userSpaceOnUse"><stop offset="0" stop-color="#ffd045"></stop><stop offset=".5" stop-color="#a75f00"></stop><stop offset="1" stop-color="#824300"></stop></linearGradient><radialGradient id="1776131386436-4334645_radial-gradient-2" cx="217.75" cy="166.48" fx="217.75" fy="166.48" r="175.41" gradientTransform="matrix(1 0 0 -1 0 463.81)" gradientUnits="userSpaceOnUse"><stop offset=".68" stop-color="#fff"></stop><stop offset=".83" stop-color="#fffffd"></stop><stop offset=".88" stop-color="#fffdf6"></stop><stop offset=".92" stop-color="#fffaeb"></stop><stop offset=".95" stop-color="#fff6da"></stop><stop offset=".98" stop-color="#fff1c4"></stop><stop offset="1" stop-color="#ffecad"></stop></radialGradient><linearGradient id="1776131386436-4334645_linear-gradient-6" x1="164.86" y1="227.49" x2="203.76" y2="245.92" gradientTransform="matrix(1 0 0 -1 0 463.81)" gradientUnits="userSpaceOnUse"><stop offset=".45" stop-color="red"></stop><stop offset=".5" stop-color="#ff4545"></stop><stop offset=".55" stop-color="#c20000"></stop></linearGradient><linearGradient id="1776131386436-4334645_linear-gradient-7" x1="231.4" y1="87.14" x2="270.69" y2="105.23" gradientTransform="matrix(1 0 0 -1 0 463.81)" gradientUnits="userSpaceOnUse"><stop offset=".45" stop-color="#a7b7bf"></stop><stop offset=".5" stop-color="#b2c3cc"></stop><stop offset=".55" stop-color="#859299"></stop></linearGradient><radialGradient id="1776131386436-4334645_radial-gradient-3" cx="217.71" cy="166.6" fx="210.44" fy="166.6" r="12.34" gradientTransform="matrix(1 0 0 -1 0 463.81)" gradientUnits="userSpaceOnUse"><stop offset="0" stop-color="#ffa238"></stop><stop offset=".18" stop-color="#fb9f36"></stop><stop offset=".35" stop-color="#ef9631"></stop><stop offset=".52" stop-color="#db8729"></stop><stop offset=".69" stop-color="#c0721d"></stop><stop offset=".86" stop-color="#9c560f"></stop><stop offset="1" stop-color="#7a3c00"></stop></radialGradient></defs><path class="cls-10" d="M177.63,40.13c0-10.97,3.95-20.4,11.83-28.3,7.88-7.88,17.32-11.83,28.3-11.83s20.4,3.95,28.3,11.83c7.88,7.88,11.83,17.32,11.83,28.3s-3.95,20.4-11.83,28.3-17.32,11.83-28.3,11.83-20.4-3.95-28.3-11.83-11.83-17.32-11.83-28.3M193.57,40.13c0,6.86,2.41,12.61,7.2,17.23,4.8,4.63,10.46,6.94,16.98,6.94s12.17-2.31,16.98-6.94,7.2-10.37,7.2-17.23-2.41-12.17-7.2-16.98c-4.8-4.8-10.46-7.2-16.98-7.2s-12.17,2.41-16.98,7.2c-4.8,4.8-7.2,10.46-7.2,16.98" vector-effect="none" fill="url(#1776131386436-4334645_radial-gradient)"></path><path class="cls-11" d="M204.38,60.7c0-2.75,2.23-4.45,6.69-5.14,4.45-.68,8.91-.68,13.38,0,4.45.68,6.69,2.41,6.69,5.14v27.77h-26.75v-27.77" vector-effect="none" fill="url(#1776131386436-4334645_linear-gradient)"></path><path class="cls-8" d="M436.75,296.98c0,58.23-21.28,108.63-63.83,151.18-42.56,42.56-95.19,63.83-157.91,63.83-58.23,0-108.63-21.27-151.18-63.83C21.28,405.61,0,355.21,0,296.98s21.28-108.63,63.83-151.18c42.56-42.56,92.95-63.83,151.18-63.83,62.72,0,115.35,21.28,157.91,63.83,42.56,42.56,63.83,92.95,63.83,151.18" vector-effect="none" fill="url(#1776131386436-4334645_linear-gradient-2)"></path><path class="cls-7" d="M431.09,296.98c0,56.73-20.73,105.81-62.18,147.27-41.45,41.46-92.72,62.18-153.81,62.18-56.73,0-105.81-20.73-147.27-62.18C26.38,402.79,5.66,353.7,5.66,296.98s20.73-105.81,62.18-147.27c41.46-41.46,90.54-62.18,147.27-62.18,61.09,0,112.36,20.73,153.81,62.18,41.46,41.46,62.18,90.54,62.18,147.27" vector-effect="none" fill="url(#1776131386436-4334645_linear-gradient-3)"></path><path class="cls-6" d="M424.9,297.01c0,55.09-20.12,102.75-60.38,143-40.25,40.25-90.04,60.38-149.37,60.38-55.09,0-102.75-20.12-143-60.38-40.25-40.25-60.38-87.92-60.38-143s20.12-102.75,60.38-143c40.25-40.25,87.92-60.38,143-60.38,59.32,0,109.11,20.12,149.37,60.38,40.25,40.25,60.38,87.92,60.38,143" vector-effect="none" fill="url(#1776131386436-4334645_linear-gradient-4)"></path><path class="cls-4" d="M402.76,297.04c0,49.19-17.98,91.77-53.93,127.72s-80.42,53.93-133.4,53.93c-49.19,0-91.77-17.98-127.72-53.93-35.95-35.95-53.93-78.53-53.93-127.72s17.98-91.77,53.93-127.72c35.95-35.95,78.53-53.93,127.72-53.93,52.98,0,97.45,17.98,133.4,53.93s53.93,78.53,53.93,127.72" vector-effect="none" fill="url(#1776131386436-4334645_linear-gradient-5)"></path><path class="cls-2" d="M42.34,297.33c0-24,4.55-46.64,13.63-67.9,9.08-21.26,21.69-39.96,37.81-56.07,16.12-16.12,34.73-28.72,55.81-37.81,21.09-9.08,43.81-13.63,68.16-13.63s47.07,4.55,68.16,13.63,39.69,21.69,55.81,37.81c16.12,16.12,28.72,34.8,37.81,56.07,9.08,21.26,13.63,43.9,13.63,67.9s-4.55,47.07-13.63,68.16c-9.08,21.09-21.69,39.69-37.81,55.81-16.11,16.12-34.8,28.72-56.07,37.81-21.26,9.08-43.9,13.63-67.9,13.63s-47.07-4.55-68.16-13.63c-21.09-9.08-39.69-21.69-55.81-37.81-16.12-16.12-28.72-34.73-37.81-55.81s-13.63-43.81-13.63-68.16" vector-effect="none" fill="url(#1776131386436-4334645_radial-gradient-2)"></path><path class="cls-13" d="M217.75,194.45c18.86,0,36.09,4.63,51.7,13.89,15.6,9.26,28.03,21.69,37.29,37.29s13.89,32.83,13.89,51.69-4.63,36.09-13.89,51.7c-9.26,15.6-21.69,28.03-37.29,37.29-15.6,9.26-32.83,13.89-51.7,13.89s-36.09-4.63-51.69-13.89c-15.6-9.26-28.03-21.69-37.29-37.29s-13.89-32.83-13.89-51.7,4.63-36.09,13.89-51.69c9.26-15.6,21.69-28.03,37.29-37.29s32.83-13.89,51.69-13.89M217.75,397.63c18.52,0,35.41-4.45,50.67-13.38,15.26-8.91,27.35-21.01,36.26-36.26,8.91-15.25,13.38-32.15,13.38-50.67s-4.45-35.32-13.38-50.41c-8.92-15.08-21.01-27.18-36.26-36.26-15.26-9.08-32.15-13.63-50.67-13.63s-35.32,4.55-50.41,13.63c-15.09,9.08-27.18,21.17-36.26,36.26s-13.63,31.89-13.63,50.41,4.55,35.41,13.63,50.67c9.08,15.26,21.17,27.35,36.26,36.26,15.09,8.91,31.89,13.38,50.41,13.38" vector-effect="none" fill="#eddeab"></path><path class="cls-13" d="M217.75,187.77c20.23,0,38.66,4.89,55.29,14.66,16.63,9.77,29.83,22.98,39.61,39.61,9.78,16.63,14.66,35.07,14.66,55.29s-4.89,38.66-14.66,55.29c-9.77,16.63-22.98,29.83-39.61,39.61-16.63,9.77-35.07,14.66-55.29,14.66s-38.66-4.89-55.29-14.66c-16.63-9.78-29.83-22.98-39.61-39.61-9.77-16.63-14.66-35.07-14.66-55.29s4.89-38.66,14.66-55.29,22.98-29.83,39.61-39.61c16.63-9.77,35.07-14.66,55.29-14.66M217.75,404.32c19.89,0,37.89-4.8,54.01-14.4,16.12-9.61,28.98-22.46,38.58-38.58,9.61-16.12,14.4-34.12,14.4-54.01s-4.8-37.47-14.4-53.76c-9.61-16.28-22.46-29.23-38.58-38.84-16.12-9.61-34.12-14.4-54.01-14.4s-37.47,4.8-53.76,14.4c-16.28,9.61-29.23,22.55-38.84,38.84-9.61,16.28-14.4,34.21-14.4,53.76s4.8,37.89,14.4,54.01,22.55,28.98,38.84,38.58c16.28,9.61,34.21,14.4,53.76,14.4" vector-effect="none" fill="#eddeab"></path><path class="cls-13" d="M217.75,170.79c23.32,0,44.58,5.66,63.78,16.98,19.2,11.31,34.46,26.58,45.78,45.78,11.31,19.2,16.98,40.47,16.98,63.78s-5.66,44.58-16.98,63.78c-11.32,19.2-26.58,34.46-45.78,45.78-19.2,11.31-40.47,16.98-63.78,16.98s-44.58-5.66-63.78-16.98c-19.2-11.31-34.46-26.58-45.78-45.78-11.31-19.2-16.98-40.47-16.98-63.78s5.66-44.58,16.98-63.78c11.31-19.2,26.58-34.46,45.78-45.78,19.2-11.31,40.47-16.98,63.78-16.98M217.75,421.3c22.98,0,43.81-5.57,62.5-16.72,18.69-11.15,33.61-26.06,44.75-44.75,11.15-18.69,16.72-39.52,16.72-62.5s-5.57-43.39-16.72-62.24c-11.15-18.86-26.06-33.87-44.75-45.01-18.69-11.15-39.52-16.72-62.5-16.72s-43.81,5.57-62.5,16.72c-18.69,11.15-33.61,26.15-44.75,45.01-11.15,18.86-16.72,39.61-16.72,62.24s5.57,43.81,16.72,62.5c11.15,18.69,26.06,33.61,44.75,44.75,18.69,11.15,39.52,16.72,62.5,16.72" vector-effect="none" fill="#eddeab"></path><path class="cls-13" d="M187.65,404.53l2.43.66-2.93,10.94-2.43-.66,2.93-10.94" vector-effect="none" fill="#eddeab"></path><path class="cls-13" d="M248.12,178.77l2.43.66-2.93,10.94-2.43-.66,2.93-10.94" vector-effect="none" fill="#eddeab"></path><path class="cls-13" d="M160.98,393.1l2.18,1.26-5.66,9.83-2.18-1.26,5.66-9.83" vector-effect="none" fill="#eddeab"></path><path class="cls-13" d="M277.79,190.65l2.18,1.25-5.66,9.83-2.18-1.25,5.66-9.83" vector-effect="none" fill="#eddeab"></path><path class="cls-13" d="M138.09,375.1l1.77,1.77-8.02,8.02-1.77-1.77,8.02-8.02" vector-effect="none" fill="#eddeab"></path><path class="cls-13" d="M303.36,209.86l1.78,1.78-8.02,8.02-1.78-1.78,8.02-8.02" vector-effect="none" fill="#eddeab"></path><path class="cls-13" d="M120.69,351.89l1.26,2.18-9.83,5.66-1.26-2.18,9.83-5.66" vector-effect="none" fill="#eddeab"></path><path class="cls-13" d="M323.09,235.05l1.25,2.18-9.83,5.66-1.25-2.18,9.83-5.66" vector-effect="none" fill="#eddeab"></path><path class="cls-13" d="M109.9,324.98l.65,2.43-10.94,2.93-.65-2.43,10.94-2.93" vector-effect="none" fill="#eddeab"></path><path class="cls-13" d="M335.7,264.42l.66,2.43-10.94,2.94-.66-2.43,10.94-2.94" vector-effect="none" fill="#eddeab"></path><path class="cls-13" d="M99.54,264.46l11.05,2.95-.64,2.4-11.05-2.95.64-2.4" vector-effect="none" fill="#eddeab"></path><path class="cls-13" d="M324.78,327.32l10.96,2.96.73-2.36-10.96-2.96-.73,2.36" vector-effect="none" fill="#eddeab"></path><path class="cls-13" d="M112.06,235l9.9,5.72-1.25,2.16-9.9-5.72,1.25-2.16" vector-effect="none" fill="#eddeab"></path><path class="cls-13" d="M314.46,351.91l9.9,5.72-1.25,2.16-9.9-5.72,1.25-2.16" vector-effect="none" fill="#eddeab"></path><path class="cls-13" d="M131.9,209.89l8.01,8.01-1.81,1.69-8.01-8.01,1.81-1.69" vector-effect="none" fill="#eddeab"></path><path class="cls-13" d="M297.11,375.15l8.09,8.09-1.76,1.76-8.09-8.09,1.76-1.76" vector-effect="none" fill="#eddeab"></path><path class="cls-13" d="M157.39,190.59l5.72,9.9-2.16,1.25-5.72-9.9,2.16-1.25" vector-effect="none" fill="#eddeab"></path><path class="cls-13" d="M274.28,393.05l5.72,9.9-2.16,1.25-5.72-9.9,2.16-1.25" vector-effect="none" fill="#eddeab"></path><path class="cls-13" d="M187.11,178.68l2.95,11.05-2.4.64-2.95-11.05,2.4-.64" vector-effect="none" fill="#eddeab"></path><path class="cls-13" d="M247.59,404.52l2.93,10.95-2.39.62-2.97-10.94,2.42-.62" vector-effect="none" fill="#eddeab"></path><path class="cls-13" d="M253.76,152.79v-3.09c27.43,6.86,51.18,20.32,71.25,40.38,20.05,20.06,33.52,43.98,40.38,71.76l-3.09-.52c-6.52-26.75-19.55-49.81-39.09-69.19-19.55-19.37-42.69-32.49-69.45-39.35M73.2,261.32l-3.09.52c6.86-27.77,20.32-51.69,40.38-71.76,20.06-20.06,43.81-33.52,71.25-40.38v3.09c-26.75,6.52-49.9,19.55-69.45,39.09s-32.58,42.69-39.09,69.45M181.74,441.88v3.09c-27.43-6.52-51.18-19.89-71.25-40.12-20.06-20.23-33.52-44.07-40.38-71.5h3.09c6.52,26.75,19.55,49.9,39.09,69.45,19.55,19.55,42.69,32.58,69.45,39.09M362.29,333.34h3.09c-6.86,27.43-20.32,51.27-40.38,71.5s-43.81,33.61-71.25,40.12v-3.09c26.75-6.52,49.9-19.55,69.45-39.09,19.55-19.55,32.58-42.69,39.09-69.45M217.75,173.36v123.97h13.38l-13.38-123.97" vector-effect="none" fill="#eddeab"></path><path class="cls-12" d="M217.75,421.3l13.38-123.97h-13.38v123.97M217.75,173.36v123.97h-13.38l13.38-123.97" vector-effect="none" fill="#fff3cc"></path><path class="cls-13" d="M217.75,421.3l-13.38-123.97h13.38v123.97M341.72,297.33h-123.97v13.38l123.97-13.38" vector-effect="none" fill="#eddeab"></path><path class="cls-12" d="M93.84,297.39l123.97,13.38v-13.38h-123.97M341.79,297.39h-123.97v-13.38l123.97,13.38" vector-effect="none" fill="#fff3cc"></path><path class="cls-13" d="M93.78,297.33l123.97-13.38v13.38h-123.97M288.74,226.34l-70.99,70.99,7.72,7.72,63.27-78.7" vector-effect="none" fill="#eddeab"></path><path class="cls-12" d="M146.79,368.4l78.69-63.37-7.66-7.66-71.04,71.04M288.85,226.34l-71.04,71.04-7.66-7.66,78.69-63.37" vector-effect="none" fill="#fff3cc"></path><path class="cls-13" d="M146.7,368.57l63.11-78.51,7.7,7.7-70.81,70.81" vector-effect="none" fill="#eddeab"></path><path class="cls-13" d="M225.47,289.61l-7.72,7.72-70.99-70.99,78.7,63.27" vector-effect="none" fill="#eddeab"></path><path class="cls-12" d="M288.74,368.31l-63.27-78.7-7.72,7.72,70.99,70.99M146.76,226.34l70.99,70.99-7.72,7.72-63.27-78.7" vector-effect="none" fill="#fff3cc"></path><path class="cls-13" d="M288.91,368.45l-78.47-63.15,7.66-7.66,70.81,70.81" vector-effect="none" fill="#eddeab"></path><path class="cls-9" d="M229.07,448.05c.68.68,1.2,1.71,1.54,3.09.34,1.02.52,2.23.52,3.6,0,2.41-.52,4.29-1.54,5.66-1.02,1.71-2.57,3.09-4.63,4.11-2.41,1.02-4.97,1.54-7.72,1.54-1.71,0-3.43-.17-5.14-.52-1.37-.34-2.91-.86-4.63-1.54-1.37-.34-2.57-1.02-3.6-2.06l2.57-6.69c1.71,1.02,3.43,1.89,5.14,2.57s3.6,1.02,5.66,1.02c1.71,0,3.09-.34,4.11-1.02s1.54-1.54,1.54-2.57c0-.34-.17-.86-.52-1.54-.34-.34-1.02-.68-2.06-1.02-.68-.34-1.89-.68-3.6-1.02-2.41-.68-4.45-1.37-6.18-2.06-1.37-.68-2.57-1.37-3.6-2.06-1.02-1.02-1.71-2.06-2.06-3.09s-.52-2.23-.52-3.6c0-2.41.68-4.45,2.06-6.18,1.02-1.71,2.57-3.09,4.63-4.11s4.45-1.54,7.2-1.54c3.09,0,6,.68,8.74,2.06,1.37.68,2.41,1.37,3.09,2.06l-2.57,6.69c-1.71-1.02-3.26-1.89-4.63-2.57-1.71-.68-3.26-1.02-4.63-1.02s-2.57.34-3.6,1.02c-1.03.68-1.54,1.54-1.54,2.57,0,.68.17,1.2.52,1.54.34.68.86,1.02,1.54,1.02,1.02.68,2.41,1.2,4.11,1.54,2.41.34,4.45.86,6.18,1.54,1.02.68,2.23,1.54,3.6,2.57M72.69,287.04l-23.15-7.2v-8.23l36.01,11.83v7.2l-21.61,6.69,21.61,7.2v6.69l-36.01,11.83v-9.26l22.63-6.69-22.63-7.2v-5.66l23.15-7.2M349.44,285.49h36.53v23.66h-7.72v-14.92h-6.69v13.89h-7.2v-13.89h-7.72v14.92h-7.2v-23.66M223.92,129.12h8.23v36.53h-6.18l-14.92-20.58v20.58h-8.23v-36.53h6.18l14.92,20.58v-20.58" vector-effect="none" fill="#5c3612"></path><path class="cls-13" d="M217.75,246.92c14.06,0,26.06,4.89,36.01,14.66,9.95,9.78,14.92,21.69,14.92,35.75s-4.97,26.06-14.92,36.01c-9.95,9.95-21.95,14.92-36.01,14.92s-25.97-4.97-35.75-14.92c-9.77-9.95-14.66-21.95-14.66-36.01s4.89-25.97,14.66-35.75c9.77-9.77,21.69-14.66,35.75-14.66M217.75,346.2c13.38,0,24.87-4.8,34.46-14.4s14.4-21.09,14.4-34.46-4.8-24.87-14.4-34.46-21.09-14.4-34.46-14.4-24.87,4.8-34.46,14.4c-9.61,9.61-14.4,21.09-14.4,34.46s4.8,24.87,14.4,34.46c9.61,9.61,21.09,14.4,34.46,14.4" vector-effect="none" fill="#eddeab"></path><path d="M199.75,307.61l-45.27-150.71,83.84,131.17,47.84,151.23-86.42-131.68" vector-effect="none"></path><path class="cls-5" d="M237.3,288.07l-39.09,18.52-46.29-150.2,85.39,131.68" vector-effect="none" fill="url(#1776131386436-4334645_linear-gradient-6)"></path><path class="cls-3" d="M198.2,306.72l39.09-18.52,46.29,150.2-85.39-131.68" vector-effect="none" fill="url(#1776131386436-4334645_linear-gradient-7)"></path><path class="cls-1" d="M206.43,297.33c0-4.8,1.89-8.06,5.66-9.77,3.77-1.71,7.54-1.71,11.31,0s5.66,4.97,5.66,9.77c0,5.14-1.89,8.49-5.66,10.03s-7.54,1.54-11.31,0-5.66-4.89-5.66-10.03" vector-effect="none" fill="url(#1776131386436-4334645_radial-gradient-3)"></path></g></svg>