<svg data-name="Layer 1" xmlns="http://www.w3.org/2000/svg" style="" viewBox="0 0 512 512"><g class="nc-icon-wrapper"><defs><radialGradient id="1776867897854-7165445_radial-gradient" cx="393.02" cy="403.07" fx="393.02" fy="403.07" r="115.02" gradientTransform="matrix(1 0 0 -1 0 514)" gradientUnits="userSpaceOnUse"><stop offset="0" stop-color="#fdca47"></stop><stop offset=".23" stop-color="#fcc843"></stop><stop offset=".47" stop-color="#f7c136"></stop><stop offset=".73" stop-color="#f0b520"></stop><stop offset=".99" stop-color="#e7a502"></stop><stop offset="1" stop-color="#e6a400"></stop></radialGradient><radialGradient id="1776867897854-7165445_radial-gradient-2" cx="364.32" cy="676.09" fx="364.32" fy="564.92" r="123.09" gradientTransform="matrix(.7071 .7071 .6576 -.6576 -311.07 308.34)" gradientUnits="userSpaceOnUse"><stop offset="0" stop-color="#fdf97f" stop-opacity=".3"></stop><stop offset=".35" stop-color="#fdf87d" stop-opacity=".2"></stop><stop offset=".51" stop-color="#fdf475" stop-opacity=".15"></stop><stop offset=".64" stop-color="#fded68" stop-opacity=".11"></stop><stop offset=".75" stop-color="#fee356" stop-opacity=".08"></stop><stop offset=".84" stop-color="#fed73e" stop-opacity=".05"></stop><stop offset=".92" stop-color="#fec821" stop-opacity=".02"></stop><stop offset="1" stop-color="#ffb600" stop-opacity="0"></stop></radialGradient><radialGradient id="1776867897854-7165445_radial-gradient-3" cx="391.65" cy="668.63" fx="391.65" fy="668.63" r="154.89" gradientTransform="scale(1 -1) rotate(-45 -566.443 236.899)" gradientUnits="userSpaceOnUse"><stop offset=".6" stop-color="#fff" stop-opacity="0"></stop><stop offset=".81" stop-color="#fff" stop-opacity=".4"></stop><stop offset="1" stop-color="#fff" stop-opacity="0"></stop></radialGradient><radialGradient id="1776867897854-7165445_radial-gradient-4" cx="306.13" cy="670.94" fx="306.13" fy="670.94" r="190.77" gradientTransform="scale(1 -1) rotate(-45 -574.139 243.766)" gradientUnits="userSpaceOnUse"><stop offset=".6" stop-color="#fff" stop-opacity="0"></stop><stop offset=".81" stop-color="#fff" stop-opacity=".3"></stop><stop offset="1" stop-color="#fff" stop-opacity="0"></stop></radialGradient><radialGradient id="1776867897854-7165445_radial-gradient-5" cx="381.49" cy="583.88" fx="381.49" fy="583.88" r="115.38" gradientTransform="matrix(.81835 .57472 .36479 -.51365 -170.64 248.8)" gradientUnits="userSpaceOnUse"><stop offset="0" stop-color="#94500e"></stop><stop offset=".87" stop-color="#45332c"></stop></radialGradient><radialGradient id="1776867897854-7165445_radial-gradient-6" cx="398.86" cy="403.07" fx="398.86" fy="403.07" r="115.02" gradientTransform="rotate(-180 258.915 257)" gradientUnits="userSpaceOnUse"><stop offset="0" stop-color="#fdca47"></stop><stop offset=".23" stop-color="#fcc843"></stop><stop offset=".47" stop-color="#f7c136"></stop><stop offset=".73" stop-color="#f0b520"></stop><stop offset=".99" stop-color="#e7a502"></stop><stop offset="1" stop-color="#e6a400"></stop></radialGradient><radialGradient id="1776867897854-7165445_radial-gradient-7" cx="500.75" cy="335.69" fx="500.75" fy="224.52" r="123.09" gradientTransform="matrix(-.7071 .7071 -.6576 -.6576 696.56 -11.16)" gradientUnits="userSpaceOnUse"><stop offset="0" stop-color="#fdf97f" stop-opacity=".3"></stop><stop offset=".35" stop-color="#fdf87d" stop-opacity=".2"></stop><stop offset=".51" stop-color="#fdf475" stop-opacity=".15"></stop><stop offset=".64" stop-color="#fded68" stop-opacity=".11"></stop><stop offset=".75" stop-color="#fee356" stop-opacity=".08"></stop><stop offset=".84" stop-color="#fed73e" stop-opacity=".05"></stop><stop offset=".92" stop-color="#fec821" stop-opacity=".02"></stop><stop offset="1" stop-color="#ffb600" stop-opacity="0"></stop></radialGradient><radialGradient id="1776867897854-7165445_radial-gradient-8" cx="528.08" cy="351.96" fx="528.08" fy="351.96" r="154.89" gradientTransform="rotate(135 357.042 154.716)" gradientUnits="userSpaceOnUse"><stop offset=".6" stop-color="#fff" stop-opacity="0"></stop><stop offset=".81" stop-color="#fff" stop-opacity=".4"></stop><stop offset="1" stop-color="#fff" stop-opacity="0"></stop></radialGradient><radialGradient id="1776867897854-7165445_radial-gradient-9" cx="442.56" cy="354.27" fx="442.56" fy="354.27" r="190.77" gradientTransform="rotate(135 359.887 157.904)" gradientUnits="userSpaceOnUse"><stop offset=".6" stop-color="#fff" stop-opacity="0"></stop><stop offset=".81" stop-color="#fff" stop-opacity=".3"></stop><stop offset="1" stop-color="#fff" stop-opacity="0"></stop></radialGradient><radialGradient id="1776867897854-7165445_radial-gradient-10" cx="469.03" cy="177.59" fx="469.03" fy="177.59" r="115.38" gradientTransform="matrix(-.81835 .57472 -.36479 -.51365 605.71 -10.4)" gradientUnits="userSpaceOnUse"><stop offset="0" stop-color="#94500e"></stop><stop offset=".87" stop-color="#45332c"></stop></radialGradient><linearGradient id="1776867897854-7165445_linear-gradient" x1="198.65" y1="1657.52" x2="311.64" y2="1657.52" gradientTransform="translate(0 -1239.5)" gradientUnits="userSpaceOnUse"><stop offset="0" stop-color="#53daf2"></stop><stop offset=".21" stop-color="#4ed5f1"></stop><stop offset=".46" stop-color="#40c7ed"></stop><stop offset=".72" stop-color="#28afe7"></stop><stop offset="1" stop-color="#078ede"></stop><stop offset="1" stop-color="#078ede"></stop></linearGradient><linearGradient id="1776867897854-7165445_linear-gradient-2" x1="198.48" y1="50.44" x2="314.67" y2="50.44" gradientTransform="matrix(1 0 0 -1 0 514)" gradientUnits="userSpaceOnUse"><stop offset="0" stop-color="#078ede"></stop><stop offset=".08" stop-color="#1199e2"></stop><stop offset=".33" stop-color="#2fbaef"></stop><stop offset=".58" stop-color="#45d2f8"></stop><stop offset=".81" stop-color="#52e0fd"></stop><stop offset="1" stop-color="#57e5ff"></stop></linearGradient><linearGradient id="1776867897854-7165445_linear-gradient-3" x1="198.01" y1="1560.84" x2="311" y2="1560.84" gradientTransform="translate(0 -1239.5)" gradientUnits="userSpaceOnUse"><stop offset="0" stop-color="#53daf2"></stop><stop offset=".21" stop-color="#4ed5f1"></stop><stop offset=".46" stop-color="#40c7ed"></stop><stop offset=".72" stop-color="#28afe7"></stop><stop offset="1" stop-color="#078ede"></stop><stop offset="1" stop-color="#078ede"></stop></linearGradient><linearGradient id="1776867897854-7165445_linear-gradient-4" x1="198.06" y1="152.94" x2="313.78" y2="152.94" gradientTransform="matrix(1 0 0 -1 0 514)" gradientUnits="userSpaceOnUse"><stop offset="0" stop-color="#078ede"></stop><stop offset=".08" stop-color="#1199e2"></stop><stop offset=".33" stop-color="#2fbaef"></stop><stop offset=".58" stop-color="#45d2f8"></stop><stop offset=".81" stop-color="#52e0fd"></stop><stop offset="1" stop-color="#57e5ff"></stop></linearGradient><linearGradient id="1776867897854-7165445_linear-gradient-5" x1="196.26" y1="318.81" x2="315.73" y2="318.81" gradientTransform="matrix(1 0 0 -1 0 514)" gradientUnits="userSpaceOnUse"><stop offset="0" stop-color="#57e5ff"></stop><stop offset=".19" stop-color="#52e0fd"></stop><stop offset=".42" stop-color="#45d2f8"></stop><stop offset=".67" stop-color="#2fbaef"></stop><stop offset=".92" stop-color="#1199e2"></stop><stop offset="1" stop-color="#078ede"></stop></linearGradient><linearGradient id="1776867897854-7165445_linear-gradient-6" x1="71.49" y1="1631.5" x2="161.89" y2="1631.5" gradientTransform="translate(0 -1239.5)" gradientUnits="userSpaceOnUse"><stop offset=".23" stop-color="#aa5bef"></stop><stop offset=".49" stop-color="#a858ee"></stop><stop offset=".66" stop-color="#a250e9"></stop><stop offset=".8" stop-color="#9641e1"></stop><stop offset=".93" stop-color="#872cd7"></stop><stop offset="1" stop-color="#7c1dcf"></stop></linearGradient><linearGradient id="1776867897854-7165445_linear-gradient-7" x1="71.35" y1="85.55" x2="164.31" y2="85.55" gradientTransform="matrix(1 0 0 -1 0 514)" gradientUnits="userSpaceOnUse"><stop offset="0" stop-color="#7c1dcf"></stop><stop offset=".07" stop-color="#872cd7"></stop><stop offset=".2" stop-color="#9641e1"></stop><stop offset=".34" stop-color="#a250e9"></stop><stop offset=".51" stop-color="#a858ee"></stop><stop offset=".77" stop-color="#aa5bef"></stop></linearGradient><linearGradient id="1776867897854-7165445_linear-gradient-8" x1="70.98" y1="1554.16" x2="161.37" y2="1554.16" gradientTransform="translate(0 -1239.5)" gradientUnits="userSpaceOnUse"><stop offset=".23" stop-color="#aa5bef"></stop><stop offset=".49" stop-color="#a858ee"></stop><stop offset=".66" stop-color="#a250e9"></stop><stop offset=".8" stop-color="#9641e1"></stop><stop offset=".93" stop-color="#872cd7"></stop><stop offset="1" stop-color="#7c1dcf"></stop></linearGradient><linearGradient id="1776867897854-7165445_linear-gradient-9" x1="71.01" y1="167.57" x2="163.6" y2="167.57" gradientTransform="matrix(1 0 0 -1 0 514)" gradientUnits="userSpaceOnUse"><stop offset="0" stop-color="#7c1dcf"></stop><stop offset=".07" stop-color="#872cd7"></stop><stop offset=".2" stop-color="#9641e1"></stop><stop offset=".34" stop-color="#a250e9"></stop><stop offset=".51" stop-color="#a858ee"></stop><stop offset=".77" stop-color="#aa5bef"></stop></linearGradient><linearGradient id="1776867897854-7165445_linear-gradient-10" x1="69.57" y1="300.27" x2="165.15" y2="300.27" gradientTransform="matrix(1 0 0 -1 0 514)" gradientUnits="userSpaceOnUse"><stop offset=".23" stop-color="#aa5bef"></stop><stop offset=".49" stop-color="#a858ee"></stop><stop offset=".66" stop-color="#a250e9"></stop><stop offset=".8" stop-color="#9641e1"></stop><stop offset=".93" stop-color="#872cd7"></stop><stop offset="1" stop-color="#7c1dcf"></stop></linearGradient><linearGradient id="1776867897854-7165445_linear-gradient-11" x1="106.59" y1="1611.81" x2="192.46" y2="1611.81" gradientTransform="matrix(-1 0 0 1 552.76 -1239.5)" gradientUnits="userSpaceOnUse"><stop offset="0" stop-color="#ff000e"></stop><stop offset="1" stop-color="#b80000"></stop></linearGradient><linearGradient id="1776867897854-7165445_linear-gradient-12" x1="106.46" y1="107.08" x2="194.77" y2="107.08" gradientTransform="rotate(-180 276.38 257)" gradientUnits="userSpaceOnUse"><stop offset="0" stop-color="#cf0000"></stop><stop offset="1" stop-color="#ff000e"></stop></linearGradient><linearGradient id="1776867897854-7165445_linear-gradient-13" x1="106.11" y1="1538.32" x2="191.98" y2="1538.32" gradientTransform="matrix(-1 0 0 1 552.76 -1239.5)" gradientUnits="userSpaceOnUse"><stop offset="0" stop-color="#ff000e"></stop><stop offset="1" stop-color="#b80000"></stop></linearGradient><linearGradient id="1776867897854-7165445_linear-gradient-14" x1="106.14" y1="184.98" x2="194.11" y2="184.98" gradientTransform="rotate(-180 276.38 257)" gradientUnits="userSpaceOnUse"><stop offset="0" stop-color="#cf0000"></stop><stop offset="1" stop-color="#ff000e"></stop></linearGradient><linearGradient id="1776867897854-7165445_linear-gradient-15" x1="104.79" y1="311.04" x2="195.58" y2="311.04" gradientTransform="rotate(-180 276.38 257)" gradientUnits="userSpaceOnUse"><stop offset="0" stop-color="#cf0000"></stop><stop offset="1" stop-color="#ff000e"></stop></linearGradient></defs><path class="cls-18" d="M274.05,71.07C295.22,28.82,337.26,0,385.75,0c69.68,0,126.25,59.63,126.25,133.21,0,34.05-12.13,65.12-32.05,88.65,0,0-51.35-133.44-205.9-150.8Z" fill="url(#1776867897854-7165445_radial-gradient)"></path><path class="cls-8" d="M274.05,71.07C295.22,28.82,337.26,0,385.75,0c69.68,0,126.25,59.63,126.25,133.21,0,34.05-12.13,65.12-32.05,88.65,0,0-51.35-133.44-205.9-150.8Z" fill="url(#1776867897854-7165445_radial-gradient-2)"></path><path class="cls-7" d="M274.05,71.07C295.22,28.82,337.26,0,385.75,0c69.68,0,126.25,59.63,126.25,133.21,0,34.05-12.13,65.12-32.05,88.65,0,0-51.35-133.44-205.9-150.8Z" fill="url(#1776867897854-7165445_radial-gradient-3)"></path><path class="cls-4" d="M274.05,71.07C295.22,28.82,337.26,0,385.75,0c69.68,0,126.25,59.63,126.25,133.21,0,34.05-12.13,65.12-32.05,88.65,0,0-51.35-133.44-205.9-150.8Z" fill="url(#1776867897854-7165445_radial-gradient-4)"></path><path class="cls-3" d="M274.05,71.07c154.56,17.37,205.9,150.8,205.9,150.8-95.3-9.1-174.45-69.25-205.9-150.8Z" fill="url(#1776867897854-7165445_radial-gradient-5)"></path><path class="cls-2" d="M237.95,71.07C216.78,28.82,174.74,0,126.25,0,56.57,0,0,59.63,0,133.21c0,34.06,12.13,65.12,32.05,88.65,0,0,51.35-133.44,205.9-150.8Z" fill="url(#1776867897854-7165445_radial-gradient-6)"></path><path class="cls-1" d="M237.95,71.07C216.78,28.82,174.74,0,126.25,0,56.57,0,0,59.63,0,133.21c0,34.06,12.13,65.12,32.05,88.65,0,0,51.35-133.44,205.9-150.8Z" fill="url(#1776867897854-7165445_radial-gradient-7)"></path><path class="cls-6" d="M237.95,71.07C216.78,28.82,174.74,0,126.25,0,56.57,0,0,59.63,0,133.21c0,34.06,12.13,65.12,32.05,88.65,0,0,51.35-133.44,205.9-150.8Z" fill="url(#1776867897854-7165445_radial-gradient-8)"></path><path class="cls-5" d="M237.95,71.07C216.78,28.82,174.74,0,126.25,0,56.57,0,0,59.63,0,133.21c0,34.06,12.13,65.12,32.05,88.65,0,0,51.35-133.44,205.9-150.8Z" fill="url(#1776867897854-7165445_radial-gradient-9)"></path><path class="cls-21" d="M237.95,71.07C83.4,88.43,32.05,221.87,32.05,221.87c95.3-9.1,174.45-69.25,205.9-150.8Z" fill="url(#1776867897854-7165445_radial-gradient-10)"></path><path class="cls-19" d="M311.64,431.09c-9.97,18.59-105.02,5.53-102.47-58.07.17-4.51-8.81,18.68-9.86,14.87-10.68,72.43,112.33,87.85,112.33,67.45v-24.24Z" fill="url(#1776867897854-7165445_linear-gradient)"></path><path class="cls-16" d="M311.65,455.33c-12.98-29.58-101.56,8.23-112.33,56.67-10.7-72.43,84.3-113.3,112.33-90.6,6.8,5.51,0,11.77,0,33.93Z" fill="url(#1776867897854-7165445_linear-gradient-2)"></path><path class="cls-15" d="M311,336.9c-9.95,18.55-105.4,10.73-108.45-63.15-.2-4.57-2.82,23.83-3.88,19.95-10.68,72.43,112.33,87.85,112.33,67.45v-24.25Z" fill="url(#1776867897854-7165445_linear-gradient-3)"></path><path class="cls-14" d="M311,361.15c-14.37-28.13-99.88-4.04-111.85,42.8-12.6-79.48,87.71-100.11,111.85-76.71,6.27,6.07,0,11.75,0,33.91Z" fill="url(#1776867897854-7165445_linear-gradient-4)"></path><path class="cls-11" d="M198.07,305.05c-18.27-132.37,107.49-140.38,117.67-219.72,0,115.32-103.85,117.1-117.67,219.72Z" fill="url(#1776867897854-7165445_linear-gradient-5)"></path><path class="cls-12" d="M161.89,402.45c-7.99,14.87-84.04,4.44-81.98-46.45.14-3.62-7.05,14.95-7.88,11.89-8.57,57.95,89.86,70.28,89.86,53.96v-19.4Z" fill="url(#1776867897854-7165445_linear-gradient-6)"></path><path class="cls-10" d="M161.89,421.85c-10.39-23.66-81.25,6.58-89.86,45.34-8.55-57.95,67.45-90.63,89.86-72.47,5.44,4.39,0,9.39,0,27.13Z" fill="url(#1776867897854-7165445_linear-gradient-7)"></path><path class="cls-9" d="M161.37,327.1c-7.95,14.85-84.32,8.6-86.77-50.52-.15-3.65-2.25,19.06-3.1,15.97-8.55,57.93,89.86,70.29,89.86,53.96v-19.41Z" fill="url(#1776867897854-7165445_linear-gradient-8)"></path><path class="cls-13" d="M161.37,346.51c-11.49-22.52-79.91-3.25-89.48,34.24-10.09-63.6,70.19-80.1,89.48-61.38,5.02,4.85,0,9.41,0,27.14Z" fill="url(#1776867897854-7165445_linear-gradient-9)"></path><path class="cls-23" d="M71.01,301.62c-14.6-105.88,85.98-112.3,94.13-175.77,0,92.25-83.08,93.69-94.13,175.77Z" fill="url(#1776867897854-7165445_linear-gradient-10)"></path><path class="cls-24" d="M360.3,382.23c7.57,14.13,79.82,4.2,77.88-44.13-.15-3.41,6.68,14.22,7.48,11.3,8.13,55.05-85.37,66.76-85.37,51.27v-18.43Z" fill="url(#1776867897854-7165445_linear-gradient-11)"></path><path class="cls-25" d="M360.29,400.67c9.85-22.49,77.18,6.25,85.38,43.07,8.12-55.05-64.09-86.12-85.38-68.85-5.17,4.18,0,8.93,0,25.78Z" fill="url(#1776867897854-7165445_linear-gradient-12)"></path><path class="cls-26" d="M360.78,310.65c7.55,14.11,80.1,8.17,82.41-47.98.15-3.48,2.15,18.12,2.95,15.15,8.13,55.05-85.37,66.76-85.37,51.27v-18.43Z" fill="url(#1776867897854-7165445_linear-gradient-13)"></path><path class="cls-27" d="M360.76,329.08c10.93-21.37,75.93-3.06,85.03,32.54,9.55-60.42-66.68-76.08-85.03-58.32-4.74,4.62,0,8.93,0,25.78Z" fill="url(#1776867897854-7165445_linear-gradient-14)"></path><path class="cls-28" d="M446.6,286.45c13.88-100.6-81.68-106.68-89.42-166.98,0,87.64,78.92,89,89.42,166.98Z" fill="url(#1776867897854-7165445_linear-gradient-15)"></path><path class="cls-29" d="M307.78 215.83L321.83 237.17 347.26 234.88 331.33 254.83 341.35 278.31 317.45 269.34 298.21 286.11 299.38 260.62 277.47 247.5 302.08 240.73 307.78 215.83z" fill="#e635de"></path><path class="cls-17" d="M487.68 309.87L496.33 322.99 512 321.59 502.19 333.87 508.35 348.33 493.64 342.8 481.8 353.13 482.52 337.43 469.02 329.35 484.16 325.18 487.68 309.87z" fill="#3cc3ec"></path><path class="cls-20" d="M159.82 225.66L161.66 243.8 178.5 250.77 161.83 258.12 160.4 276.28 148.27 262.7 130.55 266.97 139.72 251.21 130.18 235.68 147.99 239.53 159.82 225.66z" fill="#a6e639"></path><path class="cls-17" d="M386.83 423.31L388.67 441.45 405.5 448.4 388.83 455.77 387.41 473.93 375.27 460.35 357.55 464.61 366.72 448.87 357.18 433.33 374.98 437.18 386.83 423.31z" fill="#3cc3ec"></path><path class="cls-22" d="M29.64 318.17L31.48 336.3 48.32 343.25 31.65 350.62 30.22 368.79 18.08 355.2 0.37 359.47 9.53 343.71 0 328.18 17.8 332.03 29.64 318.17z" fill="#e81c27"></path><path class="cls-20" d="M154.33 500.35L124.62 491.73 124.62 460.9 152 473.48 154.33 500.35z" fill="#a6e639"></path><path class="cls-17" d="M222.2 166.19L192.49 157.57 192.49 126.74 219.85 139.32 222.2 166.19z" fill="#3cc3ec"></path><path class="cls-22" d="M230.49 304.02L229.37 277.35 254.58 268.89 251.8 294.72 230.49 304.02z" fill="#e81c27"></path><path class="cls-29" d="M499.41 426.86L476.95 412.45 484.51 386.95 504.06 404.09 499.41 426.86z" fill="#e635de"></path><path class="cls-20" d="M464.37 266.6L441.9 252.19 449.47 226.68 469.02 243.81 464.37 266.6z" fill="#a6e639"></path></g></svg>