<svg data-name="Layer 1" xmlns="http://www.w3.org/2000/svg" style="" viewBox="0 0 567.12 512"><g class="nc-icon-wrapper"><defs><linearGradient id="1777685730224-1323219_linear-gradient" x1="498.28" y1="802.44" x2="498.28" y2="664.6" gradientTransform="translate(0 -512)" gradientUnits="userSpaceOnUse"><stop offset="0" stop-color="#ed7016"></stop><stop offset=".1" stop-color="#ef7a1e"></stop><stop offset=".47" stop-color="#f69a37"></stop><stop offset=".79" stop-color="#faae46"></stop><stop offset="1" stop-color="#fcb54c"></stop></linearGradient><linearGradient id="1777685730224-1323219_linear-gradient-2" x1="449.67" y1="793.97" x2="449.67" y2="581.18" gradientTransform="translate(0 -512)" gradientUnits="userSpaceOnUse"><stop offset="0" stop-color="#ed7016"></stop><stop offset=".1" stop-color="#ef7a1e"></stop><stop offset=".47" stop-color="#f69a37"></stop><stop offset=".79" stop-color="#faae46"></stop><stop offset="1" stop-color="#fcb54c"></stop></linearGradient><linearGradient id="1777685730224-1323219_linear-gradient-3" x1="223.79" y1="934.83" x2="223.79" y2="552.9" gradientTransform="translate(0 -512)" gradientUnits="userSpaceOnUse"><stop offset="0" stop-color="#ed7016"></stop><stop offset=".31" stop-color="#f18224"></stop><stop offset=".94" stop-color="#fbb048"></stop><stop offset="1" stop-color="#fcb54c"></stop></linearGradient><linearGradient id="1777685730224-1323219_linear-gradient-4" x1="249.43" y1="821.48" x2="14.27" y2="821.48" gradientTransform="translate(0 -512)" gradientUnits="userSpaceOnUse"><stop offset="0" stop-color="#e67a00"></stop><stop offset=".55" stop-color="#e47801"></stop><stop offset=".75" stop-color="#dd7304"></stop><stop offset=".89" stop-color="#d2680a"></stop><stop offset="1" stop-color="#c25b12"></stop></linearGradient><linearGradient id="1777685730224-1323219_linear-gradient-5" x1="274.96" y1="727.48" x2="274.96" y2="456.04" gradientTransform="translate(0 -512)" gradientUnits="userSpaceOnUse"><stop offset="0" stop-color="#ed7016"></stop><stop offset=".19" stop-color="#f18325"></stop><stop offset=".51" stop-color="#f79f3a"></stop><stop offset=".79" stop-color="#fbaf47"></stop><stop offset="1" stop-color="#fcb54c"></stop></linearGradient><linearGradient id="1777685730224-1323219_linear-gradient-6" x1="176.66" y1="800.62" x2="176.66" y2="544.3" gradientTransform="translate(0 -512)" gradientUnits="userSpaceOnUse"><stop offset="0" stop-color="#ed7016"></stop><stop offset="1" stop-color="#fcb54c"></stop></linearGradient><linearGradient id="1777685730224-1323219_linear-gradient-7" x1="190.64" y1="1024.3" x2="190.64" y2="747.43" gradientTransform="translate(0 -512)" gradientUnits="userSpaceOnUse"><stop offset="0" stop-color="#ed7016"></stop><stop offset=".1" stop-color="#ef7a1e"></stop><stop offset=".47" stop-color="#f69a37"></stop><stop offset=".79" stop-color="#faae46"></stop><stop offset="1" stop-color="#fcb54c"></stop></linearGradient><linearGradient id="1777685730224-1323219_linear-gradient-8" x1="357.48" y1="681.53" x2="-.41" y2="681.53" gradientTransform="translate(0 -512)" gradientUnits="userSpaceOnUse"><stop offset="0" stop-color="#c25b12"></stop><stop offset=".11" stop-color="#cc640d"></stop><stop offset=".32" stop-color="#db7006"></stop><stop offset=".58" stop-color="#e37801"></stop><stop offset="1" stop-color="#e67a00"></stop></linearGradient><linearGradient id="1777685730224-1323219_linear-gradient-9" x1="452.54" y1="793.37" x2="452.54" y2="612.61" gradientTransform="translate(0 -512)" gradientUnits="userSpaceOnUse"><stop offset="0" stop-color="#c25b12"></stop><stop offset=".11" stop-color="#cc640d"></stop><stop offset=".32" stop-color="#db7006"></stop><stop offset=".58" stop-color="#e37801"></stop><stop offset="1" stop-color="#e67a00"></stop></linearGradient></defs><path class="cls-9" d="M528.12,152.6s1.61,2.82,4.84,8.46,6.95,13,11.18,22.07c4.23,9.07,8.06,18.94,11.49,29.62,3.43,10.68,5.34,21.16,5.74,31.44s-1.81,19.24-6.65,26.9c-3.22,5.24-10.78,9.97-22.67,14.21-11.89,4.23-25.69,6.05-41.41,5.44-15.72-.6-31.03-5.34-45.94-14.21-7.25-4.84-10.38-11.08-9.37-18.74,1.01-7.66,4.74-16.12,11.18-25.39,6.45-9.27,14.21-18.64,23.27-28.11s18.04-18.04,26.9-25.69,16.32-13.9,22.37-18.74l9.07-7.25Z" fill="url(#1777685730224-1323219_linear-gradient)"></path><path class="cls-8" d="M421.12,69.18c13.3,7.25,23.88,12.39,31.74,15.42s14.11,4.94,18.74,5.74,8.46,1.61,11.49,2.42,6.15,2.82,9.37,6.05c6.05,6.45,11.79,13.8,17.23,22.07s11.59,18.84,18.44,31.74c3.22,16.12,2.12,32.75-3.32,49.87s-13.5,32.64-24.18,46.55c-10.68,13.9-22.47,24.08-35.37,30.53-4.43,2.42-8.87,3.22-13.3,2.42s-9.37-2.12-14.81-3.93-11.89-2.82-19.35-3.02-16.42,1.71-26.9,5.74c-7.25,2.82-12.59.3-16.02-7.56-3.43-7.86-5.24-19.14-5.44-33.85-.2-14.71,1.01-30.93,3.63-48.67,2.62-17.73,6.25-35.06,10.88-51.99,4.63-16.93,10.18-31.74,16.62-44.43,6.45-12.7,13.3-21.06,20.55-25.09Z" fill="url(#1777685730224-1323219_linear-gradient-2)"></path><path class="cls-7" d="M305.05,332.15l-234.56,90.68c-15.31-12.49-28.01-28.01-38.09-46.55-10.08-18.54-17.53-38.49-22.37-59.85-4.84-21.36-7.36-42.82-7.56-64.38s1.91-41.81,6.35-60.76c3.22-12.49,12.9-24.99,29.02-37.48,16.12-12.49,36.37-24.58,60.76-36.27,24.38-11.69,50.58-22.37,78.59-32.04,28.01-9.67,55.31-18.04,81.91-25.09,26.6-7.05,50.38-12.29,71.34-15.72,20.96-3.43,36.47-4.53,46.55-3.32,17.73,1.61,31.74,8.16,42.02,19.65,10.28,11.49,17.43,25.79,21.46,42.92s5.44,35.26,4.23,54.41c-1.21,19.14-4.33,37.48-9.37,55.01s-11.49,32.44-19.35,44.74c-7.86,12.29-16.42,19.85-25.69,22.67-23.78,8.06-41.81,15.21-54.11,21.46-12.29,6.25-20.55,11.59-24.79,16.02s-6.35,7.86-6.35,10.28v3.63Z" fill="url(#1777685730224-1323219_linear-gradient-3)"></path><path class="cls-6" d="M14.27,332.15c0-22.57,2.62-41.71,7.86-57.43,5.24-15.72,11.79-28.61,19.65-38.69s15.62-17.93,23.27-23.58c7.66-5.64,14.21-9.47,19.65-11.49s8.16-3.02,8.16-3.02c-13.7,9.27-24.08,19.45-31.13,30.53-7.05,11.08-11.89,21.66-14.51,31.74s-4.03,18.34-4.23,24.79c-.2,6.45-.3,9.67-.3,9.67,8.46-25.79,21.06-46.15,37.78-61.06,16.73-14.91,35.37-25.29,55.92-31.13,20.55-5.84,40.81-7.66,60.76-5.44,19.95,2.22,37.38,7.56,52.29,16.02-33.45-7.25-62.17-7.76-86.15-1.51-23.98,6.25-43.53,16.93-58.64,32.04s-26.3,32.95-33.55,53.5-10.88,41.81-10.88,63.78,3.43,42.62,10.28,61.96c-13.7-10.88-25.19-24.18-34.46-39.9-9.27-15.72-16.52-32.64-21.76-50.78Z" fill="url(#1777685730224-1323219_linear-gradient-4)"></path><path class="cls-3" d="M146.66,40.77s2.92-2.92,8.77-8.77,15.31-11.89,28.41-18.14,30.63-10.18,52.59-11.79c21.96-1.61,49.07,1.81,81.31,10.28,9.67,2.42,20.45,8.26,32.34,17.53,11.89,9.27,22.67,21.86,32.34,37.78,9.67,15.92,16.12,35.16,19.35,57.73,3.22,22.57,1.21,48.36-6.05,77.38-2.42,8.46-7.56,14.81-15.42,19.04s-16.62,4.13-26.3-.3-18.14-15.31-25.39-32.64c-5.64-13.3-15.21-27.1-28.72-41.41-13.5-14.31-29.02-28.21-46.55-41.71s-35.67-25.89-54.41-37.18-36.17-20.55-52.29-27.81Z" fill="url(#1777685730224-1323219_linear-gradient-5)"></path><path class="cls-4" d="M250.04,46.21c24.18,12.09,43.53,26.3,58.04,42.62,14.51,16.32,25.19,33.55,32.04,51.69s10.98,35.97,12.39,53.5,1.01,33.45-1.21,47.76-5.24,25.69-9.07,34.16c-3.83,8.46-7.15,12.7-9.97,12.7-3.22,0-6.65-4.33-10.28-13s-8.97-19.35-16.02-32.04c-7.05-12.7-17.03-25.49-29.92-38.39-12.9-12.9-29.82-23.68-50.78-32.34-20.96-8.67-47.15-13-78.59-13-22.57,0-43.93,4.53-64.08,13.6s-37.38,21.46-51.69,37.18c-14.31,15.72-23.88,34.06-28.72,55.01,0,0-.4-4.13-1.21-12.39-.81-8.26-1.11-19.35-.91-33.25.2-13.9,1.71-29.22,4.53-45.94,2.82-16.73,7.96-33.35,15.42-49.87,7.46-16.52,17.93-31.74,31.44-45.64,13.5-13.9,30.83-25.09,51.99-33.55s47.46-12.7,78.89-12.7c14.91,0,28.31,1.51,40.2,4.53s21.06,6.15,27.51,9.37Z" fill="url(#1777685730224-1323219_linear-gradient-6)"></path><path class="cls-2" d="M302.63,410.14c8.46,6.45,16.42,14.81,23.88,25.09,7.46,10.28,11.18,22.27,11.18,35.97,0,10.08-3.83,18.34-11.49,24.79s-17.63,10.88-29.92,13.3c-12.29,2.42-25.09,3.22-38.39,2.42-5.64.4-14.51,0-26.6-1.21s-25.79-3.63-41.11-7.25-30.93-8.67-46.85-15.11c-15.92-6.45-30.53-14.51-43.83-24.18-13.3-9.67-23.98-21.56-32.04-35.67-15.72-27.81-23.68-52.9-23.88-75.26s5.14-41.81,16.02-58.34c10.88-16.52,25.29-29.72,43.22-39.6s37.48-16.02,58.64-18.44c21.16-2.42,41.71-.91,61.66,4.53s37.28,15.11,51.99,29.02c14.71,13.9,24.99,32.44,30.83,55.62,5.84,23.17,4.74,51.28-3.32,84.33Z" fill="url(#1777685730224-1323219_linear-gradient-7)"></path><path class="cls-10" d="M223.44,426.46c7.25-14.11,16.02-23.98,26.3-29.62,10.28-5.64,20.55-8.56,30.83-8.77,10.28-.2,19.04.5,26.3,2.12-1.21,6.45-2.62,13.1-4.23,19.95-.4,2.82-2.92,5.54-7.56,8.16-4.63,2.62-9.87,7.05-15.72,13.3-5.84,6.25-10.88,15.62-15.11,28.11-4.23,12.49-6.35,29.82-6.35,51.99-4.43-24.99-5.34-44.74-2.72-59.24,2.62-14.51,6.55-25.29,11.79-32.34,5.24-7.05,9.77-11.99,13.6-14.81s5.14-4.84,3.93-6.05c-.81-.81-4.84-.4-12.09,1.21-7.25,1.61-15.11,6.05-23.58,13.3s-15.21,18.54-20.25,33.85c-5.04,15.31-5.94,36.07-2.72,62.27-6.85-10.48-11.08-22.97-12.7-37.48s1.81-29.82,10.28-45.94ZM67.47,340.61c3.63-19.75,11.89-36.78,24.79-51.08,12.9-14.31,28.41-25.39,46.55-33.25s36.88-12.09,56.22-12.7c19.35-.6,37.58,2.82,54.71,10.28,17.13,7.46,31.13,19.24,42.02,35.37,10.88,16.12,16.73,37.08,17.53,62.87-10.08-19.75-22.87-34.46-38.39-44.13s-32.04-15.21-49.57-16.62-34.56.5-51.08,5.74-31.03,13.1-43.53,23.58c-12.49,10.48-21.16,22.77-26,36.88,0,0,1.11-3.22,3.32-9.67s6.35-14.31,12.39-23.58,14.91-18.24,26.6-26.9c11.69-8.66,26.7-15.52,45.04-20.55,18.34-5.04,41.01-6.55,68.01-4.53,0,0-4.03-1.51-12.09-4.53-8.06-3.02-18.84-5.54-32.34-7.56s-28.61-1.51-45.34,1.51-33.65,10.58-50.78,22.67c-17.13,12.09-33.15,30.83-48.06,56.22ZM195.63,9.33C235.53-.75,269.68-2.66,298.1,3.59s51.08,17.93,68.01,35.06,28.41,37.28,34.46,60.45c6.05,23.17,6.45,46.65,1.21,70.43-3.22-30.63-10.88-55.92-22.97-75.87-12.09-19.95-27.1-35.67-45.04-47.15-17.93-11.49-37.68-19.14-59.24-22.97-21.56-3.83-43.63-4.74-66.2-2.72,0,0,4.03-.91,12.09-2.72s18.84-2.92,32.34-3.32,28.21,1.31,44.13,5.14c15.92,3.83,31.84,11.18,47.76,22.07,15.92,10.88,30.13,27,42.62,48.36,0,0-1.31-3.53-3.93-10.58s-7.76-15.42-15.42-25.09-18.54-18.94-32.64-27.81-32.54-15.21-55.31-19.04c-22.77-3.83-50.88-3.32-84.33,1.51Z" fill="#e67a00"></path><path class="cls-1" d="M2.18,265.65s-.4-4.13-1.21-12.39c-.81-8.26-1.11-19.24-.91-32.95.2-13.7,1.71-28.82,4.53-45.34,2.82-16.52,7.86-33.05,15.11-49.57,7.25-16.52,17.43-31.84,30.53-45.94,13.1-14.11,30.13-25.19,51.08-33.25-22.57,14.51-40.1,30.53-52.59,48.06-12.49,17.53-21.26,34.46-26.3,50.78-5.04,16.32-8.06,29.62-9.07,39.9s-1.51,15.42-1.51,15.42c16.12-18.54,33.35-32.14,51.69-40.81,18.34-8.67,36.37-13.9,54.11-15.72s33.75-1.81,48.06,0,25.79,4.03,34.46,6.65c8.67,2.62,13,3.93,13,3.93-9.27-8.46-20.25-14.61-32.95-18.44-12.7-3.83-25.09-6.05-37.18-6.65-12.09-.6-22.17-.6-30.23,0s-12.09.91-12.09.91c24.99-8.87,48.06-12.09,69.22-9.67s40.1,7.86,56.83,16.32,30.83,17.83,42.32,28.11,20.35,19.14,26.6,26.6c6.25,7.46,9.37,11.18,9.37,11.18,0,0-2.22-3.73-6.65-11.18s-10.78-16.32-19.04-26.6-18.24-19.65-29.92-28.11c-20.15-13.7-40.2-22.87-60.15-27.51-19.95-4.63-38.79-6.15-56.52-4.53-17.73,1.61-33.55,4.53-47.46,8.77-13.9,4.23-24.79,8.36-32.64,12.39s-11.79,6.05-11.79,6.05c14.91-17.33,32.85-30.33,53.8-38.99s43.53-10.98,67.71-6.95c27.81,4.03,51.79,12.7,71.94,26s37.08,28.51,50.78,45.64c13.7,17.13,24.58,33.85,32.64,50.18,8.06,16.32,13.9,29.82,17.53,40.5s5.44,16.02,5.44,16.02c6.05-9.27,9.27-20.76,9.67-34.46s-.4-27.81-2.42-42.32-3.63-27.41-4.84-38.69c7.66,20.55,12.19,39.6,13.6,57.13s.81,32.75-1.81,45.64c-2.62,12.9-5.94,22.97-9.97,30.23s-7.66,10.88-10.88,10.88c-2.82,0-6.15-4.43-9.97-13.3-3.83-8.87-9.37-19.95-16.62-33.25s-17.43-26.5-30.53-39.6c-13.1-13.1-30.23-24.18-51.39-33.25s-47.46-13.6-78.89-13.6c-22.57,0-43.93,4.53-64.08,13.6s-37.38,21.46-51.69,37.18c-14.31,15.72-23.88,34.06-28.72,55.01Z" fill="url(#1777685730224-1323219_linear-gradient-8)"></path><path class="cls-5" d="M450.74,278.95c-5.24,2.82-9.87,3.53-13.9,2.12s-8.77-2.92-14.21-4.53-13.4-1.01-23.88,1.81c4.43-1.21,10.98-4.63,19.65-10.28s16.93-14.31,24.79-26c7.86-11.69,13.3-27.51,16.32-47.46,3.02-19.95,1.11-45.24-5.74-75.87,7.66,10.88,13.1,24.58,16.32,41.11s3.93,33.25,2.12,50.18-6.75,31.23-14.81,42.92c12.49-10.08,21.46-21.86,26.9-35.37s8.56-27.41,9.37-41.71.3-28.11-1.51-41.41-3.93-24.58-6.35-33.85c11.69,21.36,18.34,41.71,19.95,61.06,1.61,19.35-.2,36.98-5.44,52.9-5.24,15.92-12.39,29.32-21.46,40.2s-18.44,18.94-28.11,24.18Z" fill="url(#1777685730224-1323219_linear-gradient-9)"></path><path class="cls-10" d="M554.72,271.09c-3.63,5.24-11.39,9.97-23.27,14.21-11.89,4.23-25.29,5.94-40.2,5.14,16.12-3.22,28.61-8.16,37.48-14.81,8.87-6.65,15.01-13.9,18.44-21.76s5.24-15.31,5.44-22.37c.2-7.05-.2-12.9-1.21-17.53s-1.51-6.95-1.51-6.95c-.81,13.7-4.03,24.69-9.67,32.95s-11.99,14.51-19.04,18.74-13.1,6.95-18.14,8.16-7.56,1.81-7.56,1.81c12.9-8.06,22.47-17.63,28.72-28.72,6.25-11.08,10.38-21.76,12.39-32.04,2.02-10.28,2.92-18.84,2.72-25.69-.2-6.85-.3-10.28-.3-10.28,0,0,2.32,2.72,6.95,8.16s9.27,12.8,13.9,22.07,7.05,19.85,7.25,31.74c.2,11.89-3.93,24.28-12.39,37.18ZM140.61,453.66s-1.71-3.22-5.14-9.67c-3.43-6.45-6.75-14.81-9.97-25.09-3.22-10.28-4.74-21.36-4.53-33.25.2-11.89,3.73-23.27,10.58-34.16,8.46-13.3,19.95-22.97,34.46-29.02s29.72-8.77,45.64-8.16c15.92.6,30.53,4.43,43.83,11.49,13.3,7.05,23.17,17.23,29.62,30.53,0,0-2.22-1.81-6.65-5.44s-10.78-7.56-19.04-11.79-18.44-7.05-30.53-8.46-25.79.1-41.11,4.53c-16.52,5.24-28.72,12.49-36.57,21.76-7.86,9.27-13,19.45-15.42,30.53-2.42,11.08-3.12,21.66-2.12,31.74,1.01,10.08,2.42,18.34,4.23,24.79,1.81,6.45,2.72,9.67,2.72,9.67Z" fill="#e67a00"></path><path class="cls-11" d="M152.71,33.51c8.46-3.22,20.55-4.63,36.27-4.23s32.75,3.63,51.08,9.67c18.34,6.05,35.67,15.82,51.99,29.32,16.32,13.5,29.32,31.34,38.99,53.5,0,0-2.42-3.02-7.25-9.07-4.84-6.05-12.19-13.5-22.07-22.37-9.87-8.87-21.96-17.63-36.27-26.3-14.31-8.66-30.83-16.02-49.57-22.07-18.74-6.05-39.8-8.87-63.17-8.46Z" fill="#d67100"></path><path class="cls-10" d="M416.89,58.9c5.64,4.84,11.28,12.9,16.93,24.18,5.64,11.28,9.27,25.09,10.88,41.41,1.61,16.32-.6,34.16-6.65,53.5s-17.73,39.09-35.06,59.24c0,0,1.91-3.32,5.74-9.97,3.83-6.65,8.06-15.82,12.7-27.51s8.36-25.09,11.18-40.2c2.82-15.11,3.32-31.23,1.51-48.36s-7.56-34.56-17.23-52.29Z" fill="#e67a00"></path><path class="cls-11" d="M113.41,52.25c8.46-2.82,20.25-4.13,35.37-3.93,15.11.2,31.94,2.62,50.48,7.25,18.54,4.63,36.78,12.19,54.71,22.67s33.95,24.48,48.06,42.02c14.11,17.53,24.38,39.19,30.83,64.99,0,0-2.42-4.53-7.25-13.6-4.84-9.07-12.59-20.35-23.27-33.85-10.68-13.5-24.58-26.9-41.71-40.2s-37.88-24.28-62.27-32.95-52.7-12.8-84.94-12.39Z" fill="#d67100"></path></g></svg>