<svg data-name="Layer 1" xmlns="http://www.w3.org/2000/svg" style="" viewBox="0 0 375.47 512"><g class="nc-icon-wrapper"><defs><linearGradient id="1776867897862-7853451_linear-gradient" x1="0" y1="97.36" x2="375.47" y2="97.36" gradientTransform="matrix(1 0 0 -1 0 514)" gradientUnits="userSpaceOnUse"><stop offset="0" stop-color="#ffedcf"></stop><stop offset="1" stop-color="#ffd39c"></stop></linearGradient><linearGradient id="1776867897862-7853451_linear-gradient-2" x1="223.34" y1="22.5" x2="223.34" y2="192.72" gradientTransform="matrix(1 0 0 -1 -194.64 514)" gradientUnits="userSpaceOnUse"><stop offset="0" stop-color="#ffb069"></stop><stop offset="1" stop-color="#ffb069" stop-opacity=".1"></stop></linearGradient><linearGradient id="1776867897862-7853451_linear-gradient-3" x1="259.32" y1="13.78" x2="259.32" y2="189.19" gradientTransform="matrix(1 0 0 -1 -194.64 514)" gradientUnits="userSpaceOnUse"><stop offset="0" stop-color="#ffb069"></stop><stop offset="1" stop-color="#ffb069" stop-opacity=".1"></stop></linearGradient><linearGradient id="1776867897862-7853451_linear-gradient-4" x1="297.29" y1="6.91" x2="297.29" y2="181.43" gradientTransform="matrix(1 0 0 -1 -194.64 514)" gradientUnits="userSpaceOnUse"><stop offset="0" stop-color="#ffb069"></stop><stop offset="1" stop-color="#ffb069" stop-opacity=".1"></stop></linearGradient><linearGradient id="1776867897862-7853451_linear-gradient-5" x1="337.98" y1="4.45" x2="337.98" y2="178.05" gradientTransform="matrix(1 0 0 -1 -194.64 514)" gradientUnits="userSpaceOnUse"><stop offset="0" stop-color="#ffb069"></stop><stop offset="1" stop-color="#ffb069" stop-opacity=".1"></stop></linearGradient><linearGradient id="1776867897862-7853451_linear-gradient-6" x1="-204.45" y1="22.5" x2="-204.45" y2="192.72" gradientTransform="rotate(-180 71.37 257)" gradientUnits="userSpaceOnUse"><stop offset="0" stop-color="#ffb069"></stop><stop offset="1" stop-color="#ffb069" stop-opacity=".1"></stop></linearGradient><linearGradient id="1776867897862-7853451_linear-gradient-7" x1="-168.46" y1="13.78" x2="-168.46" y2="189.19" gradientTransform="rotate(-180 71.37 257)" gradientUnits="userSpaceOnUse"><stop offset="0" stop-color="#ffb069"></stop><stop offset="1" stop-color="#ffb069" stop-opacity=".1"></stop></linearGradient><linearGradient id="1776867897862-7853451_linear-gradient-8" x1="-130.49" y1="6.91" x2="-130.49" y2="181.43" gradientTransform="rotate(-180 71.37 257)" gradientUnits="userSpaceOnUse"><stop offset="0" stop-color="#ffb069"></stop><stop offset="1" stop-color="#ffb069" stop-opacity=".1"></stop></linearGradient><linearGradient id="1776867897862-7853451_linear-gradient-9" x1="-89.8" y1="4.45" x2="-89.8" y2="178.05" gradientTransform="rotate(-180 71.37 257)" gradientUnits="userSpaceOnUse"><stop offset="0" stop-color="#ffb069"></stop><stop offset="1" stop-color="#ffb069" stop-opacity=".1"></stop></linearGradient><linearGradient id="1776867897862-7853451_linear-gradient-10" x1="187.73" y1="3.72" x2="187.73" y2="181.63" gradientTransform="matrix(1 0 0 -1 0 514)" gradientUnits="userSpaceOnUse"><stop offset="0" stop-color="#ffb069"></stop><stop offset="1" stop-color="#ffb069" stop-opacity=".1"></stop></linearGradient><radialGradient id="1776867897862-7853451_radial-gradient" cx="209.17" cy="-1179.11" fx="209.17" fy="-1179.11" r="264.49" gradientTransform="matrix(.92 0 0 -.17 -5.41 97.44)" gradientUnits="userSpaceOnUse"><stop offset="0" stop-color="#ab5400"></stop><stop offset=".78" stop-color="#f4a45c"></stop><stop offset=".89" stop-color="#ffb069"></stop></radialGradient><radialGradient id="1776867897862-7853451_radial-gradient-2" cx="139" cy="377.26" fx="139" fy="377.26" r="214.46" gradientTransform="matrix(.98 0 0 -.96 .17 496.51)" gradientUnits="userSpaceOnUse"><stop offset="0" stop-color="#ffa3da"></stop><stop offset=".25" stop-color="#ff9ed8"></stop><stop offset=".54" stop-color="#ff90d2"></stop><stop offset=".86" stop-color="#ff78c9"></stop><stop offset="1" stop-color="#ff6bc4"></stop></radialGradient></defs><path class="cls-11" d="M0,321.29l37.53,159.25c0,41.95,300.39,41.95,300.39,0l37.56-159.25H0Z" fill="url(#1776867897862-7853451_linear-gradient)"></path><path class="cls-9" d="M7.92,321.29c68.67,336.81,32.03,82.95,29.94,6.22-12.54-1.82-17.51-3.9-29.94-6.22Z" fill="url(#1776867897862-7853451_linear-gradient-2)"></path><path class="cls-8" d="M45.35,324.81c60.13,323.44,31.92,122.77,32.95,5.05-13.53-1.41-19.49-3.09-32.95-5.05Z" fill="url(#1776867897862-7853451_linear-gradient-3)"></path><path class="cls-7" d="M85.8,332.58c49.95,313.32,28.06,134.87,33.29,3.38-13.63-.84-19.7-1.98-33.29-3.38Z" fill="url(#1776867897862-7853451_linear-gradient-4)"></path><path class="cls-4" d="M126.59,335.95c39.76,303.06,23.22,146.66,33.49,1.7-13.68-.28-19.84-.83-33.49-1.7Z" fill="url(#1776867897862-7853451_linear-gradient-5)"></path><path class="cls-5" d="M367.96,321.29c-68.65,336.81-32.02,82.95-29.93,6.22,12.54-1.82,17.51-3.9,29.93-6.22Z" fill="url(#1776867897862-7853451_linear-gradient-6)"></path><path class="cls-3" d="M330.53,324.81c-60.13,323.44-31.9,122.77-32.93,5.05,13.53-1.41,19.5-3.09,32.93-5.05Z" fill="url(#1776867897862-7853451_linear-gradient-7)"></path><path class="cls-2" d="M290.09,332.58c-49.95,313.32-28.06,134.87-33.27,3.38,13.6-.84,19.7-1.98,33.27-3.38Z" fill="url(#1776867897862-7853451_linear-gradient-8)"></path><path class="cls-6" d="M249.29,335.95c-39.76,303.06-23.22,146.66-33.51,1.7,13.7-.28,19.86-.83,33.51-1.7Z" fill="url(#1776867897862-7853451_linear-gradient-9)"></path><path class="cls-14" d="M170.93,332.37c25.06,246.67,10.47,227.57,33.59,0-13.7.26-19.89.26-33.59,0Z" fill="url(#1776867897862-7853451_linear-gradient-10)"></path><path class="cls-10" d="M0,321.35c0,4.3,10.65,4.95,20.99,8.65,5.54,2,10.39,11.02,18.39,12.73,6.26,1.35,14.58-4.68,22.17-3.53,6.58,1.03,12.62,9.32,20.06,10.15,6.71.77,14.47-5.95,21.79-5.3,6.8.54,13.34,8.47,20.59,8.9,6.88.42,14.3-6.66,21.51-6.4,6.92.25,13.77,7.9,20.98,8.01,6.95.14,14.08-7.24,21.25-7.24s14.3,7.36,21.25,7.24c7.2-.12,14.07-7.77,20.99-8.01,7.22-.26,14.64,6.82,21.5,6.4,7.26-.44,13.79-8.36,20.59-8.9,7.33-.65,15.09,6.07,21.79,5.3,7.42-.84,13.46-9.11,20.02-10.12,7.59-1.17,15.89,4.86,22.18,3.5,7.99-1.72,12.86-10.74,18.38-12.71,10.35-3.71,21.03-4.33,21.03-8.66,0-81.12-375.47-81.14-375.47,0Z" fill="url(#1776867897862-7853451_radial-gradient)"></path><path class="cls-1" d="M21.16,271.2s-20.15,5-20.15,13.97,20.15,8.95,20.15,8.95c0,0-6.04,7.47,0,13.95,0,0,8.58-4.98,18.16-8.48,0,0,4.52,16.44,26.72,16.44,12.6,0,26.21-5.47,26.21-5.47,0,0,25.72,8.97,50.4,8.97s57.82-13.95,57.82-13.95c0,0,14.78,9.97,46.05,9.97s73.59-15.95,73.59-15.95c0,0,7.55,4.48,22.67,4.48,34.3,0,51.42-49.8-5.02-75.19,0,0,28.22-57.27-47.91-95.11,0,0,8.47-23.27-53.91-56.76-26.33-14.13-32.22-48.79-24.39-77.01,0,0-12.48,11.56-31.43,41.32-25.7,40.34-62.67,43.17-56.65,72.53,0,0-50.38,15.95-50.38,58.27,0,0-35.81,22.9-26.72,49.3,0,0-43.36,21.42-25.22,49.78Z" fill="url(#1776867897862-7853451_radial-gradient-2)"></path><path class="cls-15" d="M21.16,294.12c158.7-88.87,298.01-49.22,308.6-112.7,7.61,41.95-55.12,59.21-99.94,69.32-9.33,2.17-186.12,39.55-208.66,43.38Z" fill="#ff6bc3"></path><path class="cls-12" d="M92.26,310.56c103.66-52.77,220.38-47.88,245.52-81.67-12.13,49.95-187.05,81.16-245.52,81.67Z" fill="#f75eb9"></path><path class="cls-12" d="M349.53,247.59c17.05,57.23-62.03,96.18-149.05,57.98,52.55-9.04,137.3-5.8,149.05-57.98Z" fill="#f75eb9"></path><path class="cls-15" d="M291.29,148.13c12.08-.2,23.89,7.73,26.21,20.88,2.12,8.95-1.83,20.58-22.52,30.37-36.74,16.9-196.79,31.33-258.5,46.17,63.69-37.56,219.48-54.6,251.47-63.85,28.56-8.48,15.66-26.1,3.33-33.57Z" fill="#ff6bc3"></path><path class="cls-15" d="M211.55,0c-6.11,27.1-.37,57.2,21.03,80.2,14.37,15.32,44.44,27.77,36.57,62.34-4.74,21.3-22.64,39.47-44.28,41.98-24.22,2.67-43.72-20.63-28.77-47.5,8.82-15.07,20.84-16.65,17.41-22.9-5.61-11.72-31.28-22.07-16.25-64.17,1.6,55.45,40.3,44.65,34.66,72.01-3.35,14.9-26.05,28.35-16.08,37.74,11.41,9.1,40.12-15.63,32.18-38.07-4.35-13.69-69.04-58.28-36.47-121.62Z" fill="#ff6bc3"></path><path class="cls-15" d="M211.55,0c-5.03,23.8-36.41,52.45-36.15,72.52,1.02,19.35,29.2,45.01,5.61,64.5,2.64-30.05-27.37-28.95-29.12-66.15.68-33.2,42.86-57.14,59.67-70.87Z" fill="#ff6bc3"></path><path class="cls-15" d="M180.68,169.87c-41.69,13.12-66.14,28.17-92.4,22.49-42.26-8.76-15.72-75.54,27.96-75.62-23.5,19.05-41.99,52.79-12.13,55.89,16.05,1.35,47.51-12.04,76.57-2.76Z" fill="#ff6bc3"></path><path class="cls-15" d="M167.55,150.27c-23.94-15.16-54.34-21.35-54.02-49.25.13-19.7,20.64-32.45,37.25-27.96-34.53,43.68,1.11,39.93,16.77,77.21Z" fill="#ff6bc3"></path><path class="cls-13" d="M153.5,94.76c-12.1,0-12.76,18.79,0,18.79s13.7-18.79,0-18.79Z" fill="#fff"></path><path class="cls-13" d="M240.11,132.35c-12.1,0-12.77,18.8,0,18.8,12.75,0,13.69-18.8,0-18.8Z" fill="#fff"></path><path class="cls-13" d="M95.77,198.14c-12.08,0-12.75,18.8,0,18.8s13.7-18.8,0-18.8Z" fill="#fff"></path><path class="cls-13" d="M57.29,245.16c-12.1,0-12.75,18.78,0,18.78s13.7-18.78,0-18.78Z" fill="#fff"></path><path class="cls-13" d="M105.41,282.74c-12.1,0-12.76,18.8,0,18.8s13.69-18.8,0-18.8Z" fill="#fff"></path><path class="cls-13" d="M342.94,265.4c-12.11,0-12.76,18.8,0,18.8s13.7-18.8,0-18.8Z" fill="#fff"></path><path class="cls-13" d="M163.27,118.25c-6.05,0-6.37,9.41,0,9.41,6.38,0,6.85-9.41,0-9.41Z" fill="#fff"></path><path class="cls-13" d="M153.65,184.03c-6.05,0-6.38,9.41,0,9.41s6.84-9.41,0-9.41Z" fill="#fff"></path><path class="cls-13" d="M74.01,292.14c-6.05,0-6.37,9.41,0,9.41,6.38,0,6.84-9.41,0-9.41Z" fill="#fff"></path><path class="cls-13" d="M218.6,263.94c-6.05,0-6.38,9.4,0,9.4,6.37,0,6.86-9.4,0-9.4Z" fill="#fff"></path><path class="cls-13" d="M174.59,233.07c-6.05,0-6.37,9.41,0,9.41,6.38,0,6.85-9.41,0-9.41Z" fill="#fff"></path><path class="cls-13" d="M43.55,279.5c-6.05,0-6.38,9.4,0,9.4,6.37,0,6.83-9.4,0-9.4Z" fill="#fff"></path><path class="cls-13" d="M201.76,108.85c-6.05,0-6.38,9.4,0,9.4,6.37,0,6.84-9.4,0-9.4Z" fill="#fff"></path><path class="cls-13" d="M144.04,278.04c-6.05,0-6.38,9.4,0,9.4,6.37,0,6.84-9.4,0-9.4Z" fill="#fff"></path><path class="cls-13" d="M182.52,268.63c-6.07,0-6.38,9.41,0,9.41,6.38,0,6.84-9.41,0-9.41Z" fill="#fff"></path><path class="cls-13" d="M86.3,249.83c-6.05,0-6.37,9.41,0,9.41s6.84-9.41,0-9.41Z" fill="#fff"></path><path class="cls-13" d="M124.78,240.45c-6.05,0-6.38,9.41,0,9.41,6.37-.03,6.85-9.41,0-9.41Z" fill="#fff"></path><path class="cls-13" d="M254.67,289.42c-6.05,0-6.37,9.41,0,9.41,6.38,0,6.84-9.41,0-9.41Z" fill="#fff"></path><path class="cls-13" d="M297.99,278.04c-6.06,0-6.4,9.4,0,9.4,6.36,0,6.84-9.4,0-9.4Z" fill="#fff"></path><path class="cls-13" d="M201.76,180.03c-6.07,0-6.38,9.4,0,9.4,6.37-.03,6.84-9.4,0-9.4Z" fill="#fff"></path><path class="cls-13" d="M67.06,202.85c-6.05,0-6.38,9.4,0,9.4,6.37,0,6.84-9.4,0-9.4Z" fill="#fff"></path><path class="cls-13" d="M103.76,148.64c-8.44,8.47,4.9,22.02,13.79,13.1,8.89-8.93-4.23-22.71-13.79-13.1Z" fill="#fff"></path><path class="cls-13" d="M132.66,160.13c-4.2,4.23,2.47,11,6.91,6.55,4.45-4.48-2.13-11.36-6.91-6.55Z" fill="#fff"></path><path class="cls-13" d="M241.96,178.16c-3.9,11.86,14.11,18.5,18.31,5.75,3.72-11.25-14.41-17.61-18.31-5.75Z" fill="#fff"></path><path class="cls-13" d="M212.81,215.36c-1.94,5.93,7.07,9.25,9.18,2.87,1.83-5.62-7.22-8.8-9.18-2.87Z" fill="#fff"></path><path class="cls-13" d="M269.11,212.24c-6.06,0-6.38,9.4,0,9.4,6.37,0,6.84-9.4,0-9.4Z" fill="#fff"></path><path class="cls-13" d="M317.22,193.44c-6.05,0-6.38,9.4,0,9.4,6.36,0,6.82-9.4,0-9.4Z" fill="#fff"></path><path class="cls-13" d="M264.29,248.36c-6.05,0-6.37,9.4,0,9.4,6.38-.02,6.84-9.4,0-9.4Z" fill="#fff"></path><path class="cls-13" d="M307.59,242.47c-6.06,0-6.38,9.4,0,9.4,6.37,0,6.84-9.4,0-9.4Z" fill="#fff"></path><path class="cls-13" d="M333.62,224c0-5.91-9.63-6.22-9.63,0s9.63,6.69,9.63,0Z" fill="#fff"></path><path class="cls-13" d="M237.85,92.21c0-5.91-9.63-6.22-9.63,0s9.63,6.69,9.63,0Z" fill="#fff"></path><path class="cls-13" d="M283.54,180.03c-6.05,0-6.37,9.4,0,9.4,6.37-.03,6.84-9.4,0-9.4Z" fill="#fff"></path><path class="cls-13" d="M297.99,156.64c-6.06,0-6.4,9.42,0,9.42,6.36,0,6.84-9.42,0-9.42Z" fill="#fff"></path><path class="cls-13" d="M182.37,151.14c-12.11,0-12.76,18.8,0,18.8s13.69-18.8,0-18.8Z" fill="#fff"></path><path class="cls-13" d="M193.1,54.49c-6.05,0-6.37,9.41,0,9.41,6.38-.03,6.85-9.41,0-9.41Z" fill="#fff"></path></g></svg>