<svg data-name="Layer 1" xmlns="http://www.w3.org/2000/svg" style="" viewBox="0 0 629.77 511.99"><g class="nc-icon-wrapper"><defs><linearGradient id="1778733177902-7882324_linear-gradient" x1="115.57" y1="447.7" x2="115.57" y2="127.79" gradientTransform="translate(0 .05)" gradientUnits="userSpaceOnUse"><stop offset="0" stop-color="#c6cfd4"></stop><stop offset=".23" stop-color="#d4dbe0"></stop><stop offset=".56" stop-color="#e1e7eb"></stop><stop offset=".86" stop-color="#e6ebef"></stop></linearGradient><linearGradient id="1778733177902-7882324_linear-gradient-2" x1="425.06" y1="335.67" x2="425.06" y2="15.98" gradientTransform="translate(0 .05)" gradientUnits="userSpaceOnUse"><stop offset="0" stop-color="#ffc800"></stop><stop offset="1" stop-color="#ffe600"></stop></linearGradient><linearGradient id="1778733177902-7882324_linear-gradient-3" x1="38.48" y1="277.04" x2="38.48" y2="149.19" gradientTransform="translate(0 .05)" gradientUnits="userSpaceOnUse"><stop offset="0" stop-color="#302c3b"></stop><stop offset="1" stop-color="#096692"></stop></linearGradient><linearGradient id="1778733177902-7882324_linear-gradient-4" x1="129.65" y1="277.04" x2="129.65" y2="149.19" gradientTransform="translate(0 .05)" gradientUnits="userSpaceOnUse"><stop offset="0" stop-color="#302c3b"></stop><stop offset="1" stop-color="#096692"></stop></linearGradient><radialGradient id="1778733177902-7882324_radial-gradient" cx="172.18" cy="-11.66" fx="172.18" fy="-11.66" r="65.78" gradientTransform="translate(0 .05)" gradientUnits="userSpaceOnUse"><stop offset=".49" stop-color="#5b666e"></stop><stop offset=".64" stop-color="#525a64"></stop><stop offset=".92" stop-color="#3c3b49"></stop><stop offset="1" stop-color="#343040"></stop></radialGradient><radialGradient id="1778733177902-7882324_radial-gradient-2" cx="172.18" cy="-11.66" fx="172.18" fy="-11.66" r="65.78" gradientTransform="translate(0 .05)" gradientUnits="userSpaceOnUse"><stop offset=".49" stop-color="#5b666e"></stop><stop offset=".64" stop-color="#525a64"></stop><stop offset=".92" stop-color="#3c3b49"></stop><stop offset="1" stop-color="#343040"></stop></radialGradient></defs><path class="cls-8" d="M211.69,84.16v55.51h13.55v-55.51h-13.55" vector-effect="none" fill="#99a8ae"></path><path class="cls-1" d="M72.42,134.14h139.18v-49.75c-31.49,5.46-57.52,12.07-78.09,19.84-20.57,7.77-35.9,14.69-45.97,20.78-10.08,6.09-15.11,9.13-15.11,9.13" vector-effect="none" fill="#cfd8dd"></path><path class="cls-9" d="M220.42,138.55c0-6.72-3.57-10.29-10.71-10.71H62.98c-7.14,0-11.55,3.57-13.23,10.71,0,0-.31.94-.94,2.83-.63,1.89-1.36,4.51-2.2,7.87l.63,53.53-31.49,74.31s-.84,4.72-2.52,14.17-2.52,19-2.52,28.65v127.84h209.71V138.55" vector-effect="none" fill="url(#1778733177902-7882324_linear-gradient)"></path><path class="cls-14" d="M89.43,420.68c5.46,0,10.5-1.68,15.11-5.04l100.13-73.68c4.62-3.36,6.93-7.98,6.93-13.85v-178.85c0-6.3-2.94-9.45-8.82-9.45h-117.77c-6.3,0-9.87,2.94-10.71,8.82l-26.45,120.92c-.84,5.04-1.26,10.29-1.26,15.74v125.95c0,2.94.84,5.25,2.52,6.93s3.78,2.52,6.3,2.52h34.01M85.02,142.33h117.77c4.2,0,6.3,2.31,6.3,6.93v178.85c0,4.62-1.89,8.4-5.67,11.34l-100.76,74.31c-3.78,2.94-8.19,4.41-13.23,4.41h-34.01c-1.68,0-3.15-.63-4.41-1.89s-1.89-2.94-1.89-5.04v-125.95c0-5.04.42-10.29,1.26-15.74l26.45-120.29c.84-4.62,3.57-6.93,8.19-6.93" vector-effect="none" fill="#cbd0d4"></path><path class="cls-10" d="M624.73,0H225.46c-3.36,0-5.04,1.89-5.04,5.67v346.37h409.35V5.67c0-3.78-1.68-5.67-5.04-5.67" vector-effect="none" fill="#f59e01"></path><path class="cls-5" d="M236.1,16.03v319.69h377.91V16.03H236.1" vector-effect="none" fill="url(#1778733177902-7882324_linear-gradient-2)"></path><path class="cls-11" d="M265.76,321.81v5.04h10.71v-5.04h-10.71M573.72,321.81v5.04h10.71v-5.04h-10.71" vector-effect="none" fill="#e81c27"></path><path class="cls-12" d="M10.71,404.94c-2.94,0-5.46,1.05-7.56,3.15s-3.15,4.62-3.15,7.56v21.41c0,2.94,1.05,5.46,3.15,7.56,2.1,2.1,4.62,3.15,7.56,3.15h115.25v-42.82H10.71" vector-effect="none" fill="#4e5e67"></path><path class="cls-4" d="M52.27,149.25h-5.67l-30.86,127.84h10.71c6.72,0,10.92-3.36,12.6-10.08l22.04-107.06c.42-2.94-.21-5.46-1.89-7.56-1.68-2.1-3.99-3.15-6.93-3.15" vector-effect="none" fill="url(#1778733177902-7882324_linear-gradient-3)"></path><path class="cls-3" d="M188.93,149.25h-94.47c-7.14,0-11.34,3.57-12.6,10.71l-22.04,107.06c-.42,2.94.1,5.35,1.57,7.24,1.47,1.89,3.67,2.83,6.61,2.83h120.92c7.14,0,10.71-3.57,10.71-10.71v-106.43c0-7.14-3.57-10.71-10.71-10.71" vector-effect="none" fill="url(#1778733177902-7882324_linear-gradient-4)"></path><path class="cls-13" d="M13.11,341.26v42.64h18.39v-42.64H13.11" vector-effect="none" fill="#e6ebef"></path><path class="cls-10" d="M31.49,384.16l10.71-10.71v-32.12h-10.71v42.82" vector-effect="none" fill="#f59e01"></path><path class="cls-8" d="M193.97,299.14c0-2.1-.52-3.78-1.57-5.04s-4.72-1.89-11.02-1.89h-12.6c-6.3,0-9.97.63-11.02,1.89s-1.57,2.94-1.57,5.04c0,.84,3.15,1.36,9.45,1.57,6.3.21,12.6.21,18.89,0,6.3-.21,9.45-.74,9.45-1.57" vector-effect="none" fill="#99a8ae"></path><path class="cls-12" d="M168.15,352.04c-17.21,0-32.85,4.3-46.92,12.91-14.06,8.61-25.3,20.26-33.69,34.95-8.4,14.69-12.6,30.65-12.6,47.86h544.12c2.94,0,5.46-1.05,7.56-3.15s3.15-4.62,3.15-7.56v-85.02H168.15" vector-effect="none" fill="#4e5e67"></path><path class="cls-6" d="M240.57,447.13c0-13.43-3.25-25.72-9.76-36.84-6.51-11.13-15.22-19.94-26.14-26.45s-23.09-9.76-36.53-9.76-25.72,3.25-36.84,9.76c-11.13,6.51-19.94,15.32-26.45,26.45-6.51,11.13-9.76,23.41-9.76,36.84h145.48" vector-effect="none" fill="#1a1626"></path><path class="cls-7" d="M231.75,447.76c0-17.63-6.3-32.64-18.89-45.03-12.6-12.39-27.5-18.58-44.71-18.58s-32.64,6.19-45.03,18.58c-12.39,12.38-18.58,27.39-18.58,45.03s6.19,32.75,18.58,45.34c12.39,12.6,27.39,18.89,45.03,18.89s32.12-6.3,44.71-18.89c12.6-12.6,18.89-27.71,18.89-45.34" vector-effect="none" fill="url(#1778733177902-7882324_radial-gradient)"></path><path class="cls-13" d="M212.08,447.79c0-12.2-4.35-22.58-13.06-31.15-8.71-8.57-19.02-12.85-30.93-12.86-12.2,0-22.58,4.28-31.15,12.85-8.57,8.57-12.85,18.95-12.86,31.14,0,12.2,4.28,22.65,12.85,31.37,8.57,8.71,18.95,13.07,31.14,13.07s22.22-4.35,30.93-13.06c8.71-8.71,13.07-19.16,13.07-31.36" vector-effect="none" fill="#e6ebef"></path><path class="cls-12" d="M200.27,459.1c.84-3.78,1.26-7.56,1.26-11.34s-.42-7.35-1.26-10.71l-18.89,10.71,18.89,11.34M193.34,425.72c-5.04-5.88-11.34-9.66-18.89-11.34v22.04l18.89-10.71M136.03,437.06c-2.52,7.14-2.52,14.48,0,22.04l18.89-11.34-18.89-10.71M174.45,481.14c7.56-1.26,13.85-4.83,18.89-10.71l-18.89-11.34v22.04M161.22,414.39c-7.56,1.68-13.85,5.25-18.89,10.71l18.89,11.34v-22.04M142.33,470.44c5.04,5.88,11.34,9.45,18.89,10.71v-22.04l-18.89,11.34" vector-effect="none" fill="#4e5e67"></path><path class="cls-1" d="M185.15,447.76c0-4.62-1.68-8.61-5.04-11.97-3.36-3.36-7.35-5.04-11.97-5.04-5.04,0-9.24,1.68-12.6,5.04-3.36,3.36-5.04,7.35-5.04,11.97,0,5.04,1.68,9.24,5.04,12.6,3.36,3.36,7.56,5.04,12.6,5.04,4.62,0,8.61-1.68,11.97-5.04,3.36-3.36,5.04-7.56,5.04-12.6" vector-effect="none" fill="#cfd8dd"></path><path class="cls-13" d="M173.71,447.87c0-1.57-.56-2.93-1.69-4.05-1.13-1.13-2.48-1.69-4.05-1.69s-2.99.56-4.09,1.69c-1.1,1.13-1.65,2.48-1.65,4.05s.55,2.93,1.65,4.05c1.1,1.13,2.47,1.69,4.09,1.69s2.93-.56,4.05-1.69c1.13-1.13,1.69-2.48,1.69-4.05" vector-effect="none" fill="#e6ebef"></path><path class="cls-12" d="M170.67,437.69c0-1.68-.84-2.52-2.52-2.52s-2.52.84-2.52,2.52.84,2.52,2.52,2.52,2.52-.84,2.52-2.52M170.67,458.47c0-1.68-.84-2.52-2.52-2.52s-2.52.84-2.52,2.52.84,2.52,2.52,2.52,2.52-.84,2.52-2.52M178.22,444.62c1.26-.84,1.47-1.89.63-3.15s-1.89-1.68-3.15-1.26c-1.26.84-1.57,1.99-.94,3.46s1.78,1.78,3.46.94M159.96,455.32c1.68-.84,2.1-1.99,1.26-3.46-.84-1.47-1.89-1.78-3.15-.94-1.68.84-2.1,1.99-1.26,3.46.84,1.47,1.89,1.78,3.15.94M175.7,455.32c1.26.84,2.31.52,3.15-.94.84-1.47.63-2.62-.63-3.46-1.68-.84-2.83-.52-3.46.94-.63,1.47-.31,2.62.94,3.46M158.07,444.62c1.26.84,2.31.52,3.15-.94.84-1.47.42-2.62-1.26-3.46-1.26-.42-2.31,0-3.15,1.26s-.63,2.31.63,3.15h.63" vector-effect="none" fill="#4e5e67"></path><path class="cls-6" d="M607.94,447.13c0-13.43-3.25-25.72-9.76-36.84-6.51-11.13-15.22-19.94-26.14-26.45s-23.09-9.76-36.53-9.76-25.72,3.25-36.84,9.76c-11.13,6.51-19.94,15.32-26.45,26.45s-9.76,23.41-9.76,36.84h145.48" vector-effect="none" fill="#1a1626"></path><path class="cls-2" d="M599.12,447.76c0-17.63-6.3-32.64-18.89-45.03-12.6-12.39-27.5-18.58-44.71-18.58s-32.64,6.19-45.03,18.58c-12.39,12.38-18.58,27.39-18.58,45.03s6.19,32.75,18.58,45.34c12.39,12.6,27.39,18.89,45.03,18.89s32.12-6.3,44.71-18.89c12.6-12.6,18.89-27.71,18.89-45.34" vector-effect="none" fill="url(#1778733177902-7882324_radial-gradient-2)"></path><path class="cls-13" d="M579.45,447.79c0-12.2-4.35-22.58-13.06-31.15s-19.02-12.85-30.93-12.86c-12.2,0-22.58,4.28-31.15,12.85-8.57,8.57-12.85,18.95-12.86,31.14,0,12.2,4.28,22.65,12.85,31.37,8.57,8.71,18.95,13.07,31.14,13.07s22.22-4.35,30.93-13.06,13.07-19.16,13.07-31.36" vector-effect="none" fill="#e6ebef"></path><path class="cls-12" d="M567.64,459.1c.84-3.78,1.26-7.56,1.26-11.34s-.42-7.35-1.26-10.71l-18.89,10.71,18.89,11.34M560.71,425.72c-5.04-5.88-11.34-9.66-18.89-11.34v22.04l18.89-10.71M503.4,437.06c-2.52,7.14-2.52,14.48,0,22.04l18.89-11.34-18.89-10.71M541.82,481.14c7.56-1.26,13.85-4.83,18.89-10.71l-18.89-11.34v22.04M528.59,414.39c-7.56,1.68-13.86,5.25-18.89,10.71l18.89,11.34v-22.04M509.7,470.44c5.04,5.88,11.34,9.45,18.89,10.71v-22.04l-18.89,11.34" vector-effect="none" fill="#4e5e67"></path><path class="cls-1" d="M552.52,447.76c0-4.62-1.68-8.61-5.04-11.97-3.36-3.36-7.35-5.04-11.97-5.04-5.04,0-9.24,1.68-12.6,5.04s-5.04,7.35-5.04,11.97c0,5.04,1.68,9.24,5.04,12.6,3.36,3.36,7.56,5.04,12.6,5.04,4.62,0,8.61-1.68,11.97-5.04s5.04-7.56,5.04-12.6" vector-effect="none" fill="#cfd8dd"></path><path class="cls-13" d="M541.09,447.87c0-1.57-.56-2.93-1.69-4.05s-2.48-1.69-4.05-1.69-2.99.56-4.09,1.69c-1.1,1.13-1.65,2.48-1.65,4.05s.55,2.93,1.65,4.05c1.1,1.13,2.47,1.69,4.09,1.69s2.93-.56,4.05-1.69c1.13-1.13,1.69-2.48,1.69-4.05" vector-effect="none" fill="#e6ebef"></path><path class="cls-12" d="M537.82,437.69c0-1.68-.84-2.52-2.52-2.52s-2.52.84-2.52,2.52.84,2.52,2.52,2.52,2.52-.84,2.52-2.52M537.82,458.47c0-1.68-.84-2.52-2.52-2.52s-2.52.84-2.52,2.52.84,2.52,2.52,2.52,2.52-.84,2.52-2.52M545.38,444.62c1.68-.84,2.1-1.89,1.26-3.15s-2.1-1.68-3.78-1.26c-1.26.84-1.47,1.99-.63,3.46.84,1.47,1.89,1.78,3.15.94M527.74,455.32c1.26-.84,1.47-1.99.63-3.46-.84-1.47-1.89-1.78-3.15-.94-1.68.84-2.1,1.99-1.26,3.46.84,1.47,2.1,1.78,3.78.94M542.86,455.32c1.68.84,2.94.52,3.78-.94.84-1.47.42-2.62-1.26-3.46-1.26-.84-2.31-.52-3.15.94-.84,1.47-.63,2.62.63,3.46M525.23,444.62c1.26.84,2.31.52,3.15-.94.84-1.47.63-2.62-.63-3.46-1.68-.42-2.94,0-3.78,1.26s-.42,2.31,1.26,3.15" vector-effect="none" fill="#4e5e67"></path></g></svg>