<svg data-name="Layer 1" xmlns="http://www.w3.org/2000/svg" style="" viewBox="0 0 511.98 512"><g class="nc-icon-wrapper"><defs><linearGradient id="1776585740436-3429151_linear-gradient" x1="255.99" y1="46.67" x2="255.99" y2="197.28" gradientTransform="matrix(1 0 0 -1 0 514)" gradientUnits="userSpaceOnUse"><stop offset="0" stop-color="#009af7"></stop><stop offset=".12" stop-color="#0da3f4"></stop><stop offset=".5" stop-color="#30baec"></stop><stop offset=".8" stop-color="#46c9e8"></stop><stop offset="1" stop-color="#4ecee6"></stop></linearGradient><radialGradient id="1776585740436-3429151_radial-gradient" cx="257.92" cy="-342.97" fx="257.92" fy="-342.97" r="231.08" gradientTransform="matrix(1.15 0 0 -.32 -56.71 184.94)" gradientUnits="userSpaceOnUse"><stop offset="0" stop-color="#fdca47"></stop><stop offset=".32" stop-color="#fbc745"></stop><stop offset=".56" stop-color="#f5be40"></stop><stop offset=".76" stop-color="#ecae37"></stop><stop offset=".95" stop-color="#de982a"></stop><stop offset="1" stop-color="#d99025"></stop></radialGradient><radialGradient id="1776585740436-3429151_radial-gradient-2" cx="465.46" cy="219.18" fx="465.46" fy="219.18" r="24.67" gradientTransform="rotate(-25.14 -766.854 -553.626) scale(1 -.83)" gradientUnits="userSpaceOnUse"><stop offset=".15" stop-color="#8c6041"></stop><stop offset=".41" stop-color="#885d3f"></stop><stop offset=".65" stop-color="#7d543a"></stop><stop offset=".88" stop-color="#6a4632"></stop><stop offset="1" stop-color="#5e3c2c"></stop></radialGradient><linearGradient id="1776585740436-3429151_linear-gradient-2" x1="252.31" y1="305.06" x2="225.09" y2="298.1" gradientTransform="matrix(1 0 0 -1 0 514)" gradientUnits="userSpaceOnUse"><stop offset="0" stop-color="#735628"></stop><stop offset=".39" stop-color="#8f6f40"></stop><stop offset=".74" stop-color="#a07f4f"></stop><stop offset="1" stop-color="#a68554"></stop></linearGradient></defs><path class="cls-6" d="M511.98,353.78c0-49.41-511.98-49.43-511.98,0,0,12,18.43,13.01,46.06,15.93-19.27,2.8-31.48,6.57-31.48,11.3,0,7.71,32.07,12.85,74.93,15.48-25.46,2.9-42.3,7.13-42.3,12.7,0,8.6,39.9,14.04,90.24,16.28-19.17,2.45-31.55,5.88-31.55,10.28,0,7.92,39.8,12.66,87.57,14.25-17.75,1.59-30.02,4.15-30.02,7.68,0,11.95,139.36,12.8,159.33,2.57,47-.61,90.47-4.68,90.47-12.2,0-4.6-16.2-7.9-39.48-9.92,42.49-1.94,76.08-6.54,76.08-13.8,0-3.05-5.91-5.61-15.85-7.71,28.12-2.92,46.98-7.31,46.98-13.23,0-5.25-14.92-9.32-37.93-12.2,36.11-2.82,61.81-7.66,61.81-14.57,0-3.74-7.52-6.85-20.09-9.39,16.83-2.71,27.19-3.52,27.19-13.45Z" fill="url(#1776585740436-3429151_linear-gradient)"></path><path class="cls-1" d="M372.55,477.69c0,11.08-139.41,11.08-139.41,0s139.41-11.08,139.41,0Z" fill="#129fdb"></path><path class="cls-1" d="M317.37,495.81c0,9.68-122.08,9.68-122.08,0,0-9.71,122.08-9.71,122.08,0Z" fill="#129fdb"></path><path class="cls-1" d="M320.35,506.8c0,6.94-87.22,6.94-87.22,0s87.22-6.94,87.22,0Z" fill="#129fdb"></path><path class="cls-5" d="M257.12,274.84c-91.43,0-175.46,17.55-213.83,59.73-10.03,11.03,51.55,21.98,95.45,21.98,38.71,0,64.8,20.97,118.38,20.97s96.56-20.97,135.29-20.97c50.43,0,83.2-12.13,76.25-21.98-29.76-42.18-122.75-59.73-211.54-59.73Z" fill="url(#1776585740436-3429151_radial-gradient)"></path><path class="cls-3" d="M207.39,324.87c-8.95,19.08-43.71,2.76-34.76-16.32,8.94-19.06,43.71-2.76,34.76,16.32Z" fill="url(#1776585740436-3429151_radial-gradient-2)"></path><path class="cls-7" d="M261.82.55c-1.37,4.87-5.84,19.27-5.84,19.27,0,0,1.45-13.52,2.13-18.3-6.57,1.65-16.26,8.17-24.03,16.3-.55,6.24-.89,12.49-.98,18.71-.45-5.5-.73-11.04-.89-16.61-6.55,7.7-12.31,17.57-16.66,28.41.42,6.7,1.59,25.75,1.59,25.75,0,0-2.97-13.62-3.9-19.2-.54,1.4-3.72,12.09-4.5,15.61,1.1,7.69,2.47,15.26,4.05,22.66-1.75-5.61-3.35-11.33-4.83-17.19,0,6.84,2.48,18.75,3.9,33.36,8.52-49.03,31.23-84.72,62.81-98.08,2.62-4.1,4.97-6.6,4.97-6.6-.07.1-1.37-1.71-3.11-2.54l-7.4,9.04,4.77-10.17c-3.32-1.09-7.43-1.29-12.08-.41Z" fill="#92c932"></path><path class="cls-2" d="M227.97,93.52c.87-1.86,1.78-3.75,2.71-5.67-3.35-.02-6.7.21-10.07.7,3.8-1.59,7.65-2.76,11.5-3.55,1.45-2.86,2.97-5.71,4.55-8.52-2.35-.39-9.97-.67-9.97-.67,0,0,9.95-3.82,12.62-3.98,3.67-6.42,5.25-8.64,9.4-14.31-3.41-1.51-12.63-6.73-12.63-6.73,0,0,12.28.91,16.18,1.88,2.67-3.56,4.02-5.14,6.68-8.27-2.35-1.43-10.73-7.29-10.73-7.29,0,0,10.91,2.88,13.6,3.99,2.75-3.21,13.35-15.04,17.57-21.13.7-1.03-9.25-4.63-9.25-4.63,0,0,11.52.07,11.65-.45.14-.55.09-5.68-.1-6.32-35.25,10.79-60.7,48.16-69.83,100.77,2.92-4.83,15.63-14.78,16.12-15.8Z" fill="#7ab51d"></path><path class="cls-9" d="M233.15,80.05c-4.8.3-9.58,1.14-14.34,2.55-.14.48-.28.95-.42,1.41,4.87-1.95,9.8-3.26,14.75-3.96Z" style="isolation:isolate" fill="#263d00" opacity=".25"></path><path class="cls-9" d="M227.98,92.03c-4.65.98-9.28,2.53-13.85,4.68-.1.5-.21,1.02-.32,1.51,4.63-2.71,9.36-4.77,14.16-6.19Z" style="isolation:isolate" fill="#263d00" opacity=".25"></path><path class="cls-9" d="M238.53,67.91c-4.92-.49-9.85-.47-14.8.09-.17.44-.35.86-.52,1.29,5.1-1.06,10.21-1.52,15.32-1.38Z" style="isolation:isolate" fill="#263d00" opacity=".25"></path><path class="cls-9" d="M244.62,58.5c-4.97-1.24-10.02-1.97-15.1-2.21-.18.39-.4.79-.6,1.18,5.26-.23,10.52.12,15.7,1.03Z" style="isolation:isolate" fill="#263d00" opacity=".25"></path><path class="cls-9" d="M253.32,48.05c-5.03-2.65-10.18-4.85-15.44-6.57-.26.29-.52.6-.77.9,5.5,1.36,10.91,3.27,16.2,5.67Z" style="isolation:isolate" fill="#263d00" opacity=".25"></path><path class="cls-9" d="M265.03,36.54c-4.98-3.05-10.12-5.67-15.35-7.83-.26.26-.55.54-.84.82,5.52,1.82,10.91,4.16,16.19,7.01Z" style="isolation:isolate" fill="#263d00" opacity=".25"></path><path class="cls-9" d="M275.95,23.13c-4.53-2.07-9.15-3.78-13.83-5.11-.33.22-.65.44-.96.66" style="isolation:isolate" fill="#263d00" opacity=".25"></path><path class="cls-9" d="M210.8,64.92c1.43,8.55,3.17,16.9,5.18,25.04-.14.49-.26.96-.38,1.45-1.93-8.62-3.54-17.45-4.8-26.49Z" style="isolation:isolate" fill="#263d00" opacity=".25"></path><path class="cls-9" d="M219.33,44.45c.91,8.51,2.13,16.87,3.67,25.07-.17.44-.33.89-.5,1.33-1.4-8.63-2.47-17.47-3.17-26.4Z" style="isolation:isolate" fill="#263d00" opacity=".25"></path><path class="cls-9" d="M227.81,27.74c.37,8.4,1.08,16.71,2.1,24.88-.2.39-.4.81-.58,1.21-1.12-10.9-1.43-19.23-1.52-26.09Z" style="isolation:isolate" fill="#263d00" opacity=".25"></path><path class="cls-9" d="M242.43,12.62c-.67,7.93-.96,15.87-.91,23.81-.25.31-.5.62-.75.94.15-8.25.7-16.53,1.66-24.75Z" style="isolation:isolate" fill="#263d00" opacity=".25"></path><path class="cls-9" d="M253.75,4.01c-1.26,7.54-2.17,15.18-2.68,22.83-.28.26-.58.52-.85.79.77-7.94,1.94-15.83,3.53-23.61Z" style="isolation:isolate" fill="#263d00" opacity=".25"></path><path class="cls-9" d="M266.31,1.43s-5.5,12.23-6.89,18.9c-.32.24-.63.46-.95.69,1.66-6.94,7.83-19.59,7.83-19.59Z" style="isolation:isolate" fill="#263d00" opacity=".25"></path><path class="cls-8" d="M281.68,8.56c-41.78,10.12-61.41,53.66-70.22,97.76-.6,3.74.6,4.51,1.17,1.52,8.36-39.25,23.6-81.95,69.05-99.28Z" fill="#70a61b"></path><path class="cls-7" d="M89.02,55.43c4.72,2.5,19.15,9.5,19.15,9.5,0,0-10.14-9.07-13.92-12.12,9.23-4.72,25.35-8.54,40.08-9.35,4.51,4.29,8.78,8.8,12.77,13.5-2.83-4.63-5.88-9.16-9.15-13.57,12.94-.05,26.21,2.3,38.35,6.67,3.6,5.51,13.87,21.25,13.87,21.25,0,0-4.67-13.17-6.94-18.32,1.5.59,12.08,5.9,15.21,7.9,3.37,6.93,6.33,13.99,8.92,21.13-1.3-5.89-2.82-11.76-4.55-17.6,4.2,5.26,8.43,16.67,15.68,29.21-40.85-29.97-91.23-36.73-138.96-18.26-5.79-.79-10.28-.57-10.28-.57.14.02.67-2.54,2.35-4.8l14.8.23-12.22-3.49c3.46-3.84,8.49-7.75,14.85-11.3Z" fill="#92c932"></path><path class="cls-2" d="M188.61,96.12c-2.25-.63-4.57-1.25-6.9-1.88,4.16-3.07,8.52-5.94,13.01-8.63-5.75,2.25-11.28,4.83-16.58,7.74-3.57-.89-7.22-1.7-10.93-2.44,2.7-2.41,12.03-9.57,12.03-9.57,0,0-14.78,6.12-18.2,8.42-8.55-1.6-11.9-1.86-20.58-2.46,3.34-4.27,11.65-16.68,11.65-16.68,0,0-14.78,11.89-19.08,16.18-5.51-.3-8.17-.29-13.43-.27,2.03-3.25,8.93-15.38,8.93-15.38,0,0-11.89,12.16-14.55,15.44-5.42.04-25.95.6-34.97-.26-1.52-.15,8.7-11.97,8.7-11.97,0,0-14.35,10.53-14.83,10.25-.52-.3-3.62-4.29-3.76-4.94,50.71-23.81,105.54-18.23,149.38,13.94-6.66-1.07-28.67,2.87-29.89,2.51Z" fill="#7ab51d"></path><path class="cls-9" d="M173.83,90.48c6.15-4.13,12.66-7.83,19.48-11.08.47.24.91.48,1.38.71-7.3,2.93-14.26,6.41-20.86,10.38Z" style="isolation:isolate" fill="#263d00" opacity=".25"></path><path class="cls-9" d="M187.67,94.99c6.43-3.47,13.17-6.51,20.18-9,.45.29.9.58,1.35.87-7.47,2.13-14.68,4.87-21.53,8.13Z" style="isolation:isolate" fill="#263d00" opacity=".25"></path><path class="cls-9" d="M159.62,86.04c5.84-4.85,12.01-9.34,18.57-13.4.49.18.95.35,1.43.52-7.03,3.82-13.72,8.14-20,12.88Z" style="isolation:isolate" fill="#263d00" opacity=".25"></path><path class="cls-9" d="M146.22,84.35c5.44-5.49,11.3-10.64,17.5-15.44.5.12.98.23,1.48.33-6.74,4.63-13.07,9.69-18.99,15.11Z" style="isolation:isolate" fill="#263d00" opacity=".25"></path><path class="cls-9" d="M128.9,84.21c4.67-6.59,9.75-12.98,15.25-19.09h1.54c-6.07,6.04-11.65,12.43-16.78,19.09Z" style="isolation:isolate" fill="#263d00" opacity=".25"></path><path class="cls-9" d="M107.16,86.03c4.37-6.89,9.16-13.56,14.37-20,.52-.04,1.03-.08,1.55-.13-5.79,6.43-11.09,13.15-15.92,20.13Z" style="isolation:isolate" fill="#263d00" opacity=".25"></path><path class="cls-9" d="M85.25,85.66c4.4-5.73,9.11-11.24,14.16-16.52.54-.14,1.07-.24,1.6-.38" style="isolation:isolate" fill="#263d00" opacity=".25"></path><path class="cls-9" d="M192.45,58.5c3.46,7.88,6.45,15.89,8.93,23.99.47.24.91.49,1.38.75-2.9-8.38-6.33-16.65-10.32-24.74Z" style="isolation:isolate" fill="#263d00" opacity=".25"></path><path class="cls-9" d="M169.17,50.5c4.1,7.37,7.71,14.93,10.85,22.63.49.19.96.38,1.43.57-3.54-7.91-7.65-15.68-12.28-23.2Z" style="isolation:isolate" fill="#263d00" opacity=".25"></path><path class="cls-9" d="M148.29,45.37c4.7,6.81,8.93,13.85,12.68,21.07.5.12,1,.26,1.48.39-5.33-9.39-10.07-16.08-14.16-21.46Z" style="isolation:isolate" fill="#263d00" opacity=".25"></path><path class="cls-9" d="M120.69,47.05c5.72,5.5,10.98,11.34,15.8,17.5.5,0,1.02.02,1.54.03-5.29-6.2-11.06-12.08-17.34-17.53Z" style="isolation:isolate" fill="#263d00" opacity=".25"></path><path class="cls-9" d="M101.25,50.74c6.23,4.63,12.03,9.7,17.4,15.11.52-.06,1.03-.13,1.55-.18-5.85-5.4-12.17-10.41-18.95-14.93Z" style="isolation:isolate" fill="#263d00" opacity=".25"></path><path class="cls-9" d="M83.94,60.21s14.4,4.39,20.25,8.26c.55-.11,1.08-.22,1.61-.32-6.37-3.85-21.86-7.94-21.86-7.94Z" style="isolation:isolate" fill="#263d00" opacity=".25"></path><path class="cls-8" d="M69.13,79.67c58.45-30.26,109.83-14.63,148,11.28,3.06,2.33,2.01,4.02-.54,2.25-34.64-22.6-79.98-41.59-147.46-13.53Z" fill="#70a61b"></path><path class="cls-7" d="M102.49,156.52c5.05-1.77,19.97-7.65,19.97-7.65,0,0-13.57,1.32-18.4,2.05,2.73-9.95,10.77-24.36,20.09-35.7,6.25-.44,12.47-.52,18.65-.26-5.35-1.04-10.79-1.85-16.25-2.43,8.69-9.53,19.38-17.68,30.81-23.63,6.55,1.08,25.15,4.16,25.15,4.16,0,0-12.94-5.47-18.3-7.28,1.45-.69,12.55-4.87,16.15-5.83,7.42,2.2,14.67,4.79,21.72,7.71-5.26-3.03-10.65-5.87-16.17-8.54,6.75.47,18.1,5.07,32.28,8.2-49.82,9.74-88.83,42.14-107.28,89.58-4.48,3.72-7.35,7.16-7.35,7.16.1-.09-1.45-2.2-1.98-4.96l10.14-10.69-10.84,6.59c-.53-5.09-.05-11.42,1.6-18.47Z" fill="#92c932"></path><path class="cls-2" d="M199.9,110.93c-1.98,1.23-4,2.5-6.05,3.8.55-5.15,1.33-10.27,2.36-15.38-2.2,5.73-4,11.54-5.42,17.37-3.06,2.02-6.14,4.15-9.18,6.37.02-3.61.98-15.28.98-15.28,0,0-5.42,14.97-6.02,19.03-6.95,5.19-9.4,7.47-15.68,13.43-.93-5.32-4.57-19.79-4.57-19.79,0,0-1.13,18.87-.84,24.91-3.95,3.85-5.72,5.79-9.27,9.67-1.03-3.69-5.42-16.93-5.42-16.93,0,0,1.05,16.91,1.68,21.09-3.64,4-17.05,19.43-23.76,25.46-1.15,1.02-3.05-14.45-3.05-14.45,0,0-1.85,17.62-2.38,17.78-.56.18-5.61-.24-6.22-.55,16.52-53.25,57.63-89.69,111.1-100.13-5.26,4.15-17.18,22.95-18.28,23.6Z" fill="#7ab51d"></path><path class="cls-9" d="M185.75,117.97c1.08-7.3,2.71-14.57,4.88-21.76.5-.18.98-.37,1.47-.54-2.74,7.31-4.86,14.77-6.35,22.3Z" style="isolation:isolate" fill="#263d00" opacity=".25"></path><path class="cls-9" d="M198.43,110.87c1.73-7.05,4.04-14.05,6.92-20.86.5-.15,1.03-.26,1.54-.41-3.46,6.94-6.27,14.04-8.46,21.27Z" style="isolation:isolate" fill="#263d00" opacity=".25"></path><path class="cls-9" d="M172.85,125.41c.33-7.54,1.19-15.11,2.57-22.65.47-.23.91-.48,1.37-.71-1.92,7.73-3.22,15.56-3.93,23.35Z" style="isolation:isolate" fill="#263d00" opacity=".25"></path><path class="cls-9" d="M162.55,134.08c-.4-7.68-.28-15.46.33-23.25.42-.27.84-.56,1.25-.86-1.1,8.07-1.61,16.12-1.58,24.11Z" style="isolation:isolate" fill="#263d00" opacity=".25"></path><path class="cls-9" d="M150.79,146.69c-1.77-7.88-3.08-15.91-3.92-24.05.35-.37.68-.75,1.03-1.12.4,8.52,1.4,16.91,2.88,25.17Z" style="isolation:isolate" fill="#263d00" opacity=".25"></path><path class="cls-9" d="M137.47,163.86c-2.18-7.85-3.92-15.86-5.2-24.01.33-.41.63-.82.95-1.23.9,8.58,2.32,16.99,4.25,25.24Z" style="isolation:isolate" fill="#263d00" opacity=".25"></path><path class="cls-9" d="M122.42,179.67c-1.28-7.08-2.2-14.26-2.73-21.52.26-.48.54-.95.8-1.43" style="isolation:isolate" fill="#263d00" opacity=".25"></path><path class="cls-9" d="M174.52,82.74c8.2,2.79,16.17,6,23.85,9.63.5-.18,1-.33,1.5-.5-8.18-3.52-16.63-6.57-25.35-9.12Z" style="isolation:isolate" fill="#263d00" opacity=".25"></path><path class="cls-9" d="M152.89,94.44c8.23,1.95,16.3,4.41,24.13,7.3.47-.23.93-.45,1.4-.67-8.29-2.72-16.83-4.95-25.53-6.62Z" style="isolation:isolate" fill="#263d00" opacity=".25"></path><path class="cls-9" d="M134.97,106.29c8.23,1.14,16.32,2.77,24.22,4.9.42-.29.87-.55,1.3-.84-10.58-2.41-18.75-3.46-25.51-4.06Z" style="isolation:isolate" fill="#263d00" opacity=".25"></path><path class="cls-9" d="M117.6,127.64c7.95-.48,15.85-.4,23.66.21.35-.37.7-.73,1.07-1.11-8.17-.29-16.43-.03-24.73.9Z" style="isolation:isolate" fill="#263d00" opacity=".25"></path><path class="cls-9" d="M107.25,144.39c7.65-1.45,15.33-2.3,22.98-2.58.28-.4.58-.84.9-1.24-7.95.62-15.94,1.89-23.88,3.81Z" style="isolation:isolate" fill="#263d00" opacity=".25"></path><path class="cls-9" d="M102.6,163.48s12.98-7.6,19.8-9.29c.3-.46.56-.93.85-1.39-7.13,2.06-20.65,10.68-20.65,10.68Z" style="isolation:isolate" fill="#263d00" opacity=".25"></path><path class="cls-8" d="M107.09,187.47c16.93-63.26,63.2-90.41,108.2-100.91,3.8-.69,4.35,1.24,1.31,1.9-40.16,10.15-84.87,30.61-109.51,99.01Z" fill="#70a61b"></path><path class="cls-4" d="M286.09,316.33c0,10.56-36.58,10.56-36.58,0,0-41.6-42.82-153.82-42.82-211.59,0-9.89,27.1-9.89,27.1,0,0,57.78,52.3,169.99,52.3,211.59Z" fill="url(#1776585740436-3429151_linear-gradient-2)"></path><path class="cls-10" d="M282.51,291.42c6.61,15.23-32.6,18.6-34.46,8.55,2.39,6.03,32.92,7.03,34.46-8.55Z" fill="#cfb092"></path><path class="cls-10" d="M241.94,270.12c-1.65,16.92,36.53,9.63,34.13-2.65-.53,10.61-29.68,16.55-34.13,2.65Z" fill="#cfb092"></path><path class="cls-10" d="M228.04,216.31c-1.65,16.91,33.4,9.75,31.02-2.52-.54,10.59-26.55,16.42-31.02,2.52Z" fill="#cfb092"></path><path class="cls-10" d="M215.87,167.64c-1.66,16.93,31.3,11.53,28.92-.75-.54,10.6-24.47,14.65-28.92.75Z" fill="#cfb092"></path><path class="cls-10" d="M267.7,240.55c6.63,15.24-29.55,17.01-31.42,6.95,2.39,6.02,29.88,8.62,31.42-6.95Z" fill="#cfb092"></path><path class="cls-10" d="M251,188.22c6.61,15.23-26.7,16.62-28.55,6.58,2.39,6.03,27,8.99,28.55-6.58Z" fill="#cfb092"></path><path class="cls-10" d="M237.64,137.31c6.61,15.24-26.84,16.3-28.71,6.24,2.38,6.04,27.16,9.34,28.71-6.24Z" fill="#cfb092"></path><path class="cls-7" d="M318.21,164.97c-4.68-2.22-18.45-9.41-18.45-9.41,0,0,13.08,2.65,17.7,3.83-1.25-9.92-7.05-24.69-14.58-36.61-6.03-1.04-12.1-1.74-18.17-2.12,5.37-.46,10.79-.7,16.21-.73-7.13-10.09-16.43-19.07-26.77-25.97-6.57.39-25.16,1.5-25.16,1.5,0,0,13.41-4,18.9-5.21-1.31-.82-11.56-5.97-14.95-7.27-7.55,1.38-15,3.17-22.3,5.28,5.56-2.4,11.21-4.62,16.98-6.64-6.65-.23-18.36,3.08-32.68,4.68,47.3,14.45,80.83,49.75,92.16,97.57,3.85,4.06,6.17,7.67,6.17,7.67-.09-.11,1.73-1.98,2.65-4.61l-8.41-11.38,9.67,7.48c1.24-4.91,1.64-11.08,1.02-18.06Z" fill="#92c932"></path><path class="cls-2" d="M229.49,111.02c1.77,1.38,3.57,2.82,5.37,4.28.2-5.03.15-10.06-.14-15.11,1.33,5.75,2.29,11.55,2.85,17.36,2.7,2.26,5.4,4.63,8.05,7.09.5-3.49,1.2-14.91,1.2-14.91,0,0,3.18,15.04,3.18,19.05,6.07,5.71,8.13,8.17,13.45,14.58,1.65-5.07,7.24-18.71,7.24-18.71,0,0-1.55,18.38-2.68,24.21,3.32,4.11,4.77,6.19,7.68,10.3,1.54-3.46,7.66-15.85,7.66-15.85,0,0-3.4,16.27-4.62,20.24,2.99,4.24,13.93,20.54,19.63,27.07.96,1.11,5-13.7,5-13.7,0,0-.67,17.25-.17,17.47.54.23,5.53.32,6.17.09-8.62-53.24-43.66-92.66-94.41-108.17,4.57,4.55,13.56,23.96,14.53,24.71Z" fill="#7ab51d"></path><path class="cls-9" d="M242.33,119.24c-.05-7.18-.6-14.38-1.72-21.55-.47-.22-.91-.46-1.35-.67,1.63,7.36,2.65,14.8,3.06,22.22Z" style="isolation:isolate" fill="#263d00" opacity=".25"></path><path class="cls-9" d="M230.93,111.1c-.72-7.01-1.96-14.01-3.81-20.91-.49-.18-.96-.37-1.45-.55,2.41,7.07,4.14,14.23,5.26,21.46Z" style="isolation:isolate" fill="#263d00" opacity=".25"></path><path class="cls-9" d="M253.86,127.74c.73-7.32.98-14.75.68-22.18-.4-.27-.82-.55-1.24-.83.79,7.69.96,15.39.55,23Z" style="isolation:isolate" fill="#263d00" opacity=".25"></path><path class="cls-9" d="M262.7,137.19c1.47-7.4,2.47-14.95,2.97-22.55-.38-.32-.73-.64-1.12-.95-.05,7.91-.68,15.75-1.85,23.5Z" style="isolation:isolate" fill="#263d00" opacity=".25"></path><path class="cls-9" d="M272.42,150.58c2.83-7.44,5.26-15.09,7.22-22.89-.26-.4-.55-.81-.84-1.21-1.62,8.23-3.77,16.26-6.38,24.11Z" style="isolation:isolate" fill="#263d00" opacity=".25"></path><path class="cls-9" d="M283.01,168.54c3.23-7.36,6.05-14.96,8.45-22.73-.25-.43-.5-.84-.75-1.26-2.08,8.2-4.67,16.21-7.7,23.99Z" style="isolation:isolate" fill="#263d00" opacity=".25"></path><path class="cls-9" d="M295.46,185.38c2.27-6.73,4.18-13.59,5.72-20.56-.2-.5-.38-.97-.58-1.46" style="isolation:isolate" fill="#263d00" opacity=".25"></path><path class="cls-9" d="M258.27,86.27c-8.41,1.88-16.65,4.18-24.67,6.92-.47-.22-.91-.43-1.38-.63,8.48-2.59,17.19-4.71,26.05-6.29Z" style="isolation:isolate" fill="#263d00" opacity=".25"></path><path class="cls-9" d="M277.75,99.76c-8.34,1.08-16.55,2.64-24.62,4.65-.42-.27-.85-.54-1.26-.79,8.48-1.81,17.13-3.11,25.88-3.86Z" style="isolation:isolate" fill="#263d00" opacity=".25"></path><path class="cls-9" d="M293.56,113.05c-8.18.27-16.33,1.06-24.35,2.3-.37-.32-.75-.62-1.13-.92,10.67-1.28,18.81-1.47,25.49-1.38Z" style="isolation:isolate" fill="#263d00" opacity=".25"></path><path class="cls-9" d="M307.51,135.48c-7.7-1.26-15.42-1.97-23.15-2.18-.28-.38-.58-.78-.89-1.17,8.04.52,16.07,1.61,24.04,3.34Z" style="isolation:isolate" fill="#263d00" opacity=".25"></path><path class="cls-9" d="M315.28,152.75c-7.29-2.17-14.67-3.75-22.08-4.8-.25-.43-.49-.87-.72-1.29,7.69,1.4,15.32,3.41,22.8,6.09Z" style="isolation:isolate" fill="#263d00" opacity=".25"></path><path class="cls-9" d="M317.11,171.7s-11.6-8.67-18.03-10.99c-.21-.49-.42-.96-.63-1.43,6.68,2.73,18.66,12.42,18.66,12.42Z" style="isolation:isolate" fill="#263d00" opacity=".25"></path><path class="cls-8" d="M309.36,194.48c-7.62-62.98-49-93.92-91.47-108.62-3.62-1.04-4.44.75-1.55,1.7,37.8,13.88,78.57,38.19,93.02,106.92Z" fill="#70a61b"></path><path class="cls-7" d="M345.48,69.67c-4.88,1.72-19.74,6.33-19.74,6.33,0,0,11.12-7.33,15.23-9.74-7.97-6.13-22.58-12.45-36.4-15.58-5.02,3.52-9.8,7.29-14.35,11.28,3.46-4.11,7.1-8.09,10.93-11.92-12.25-2.1-25.22-1.9-37.43.5-4.35,4.87-16.68,18.75-16.68,18.75,0,0,6.61-12.25,9.63-16.96-1.54.34-12.43,3.92-15.73,5.38-4.35,6.28-8.35,12.78-11.98,19.4,2.2-5.61,4.62-11.15,7.25-16.63-4.85,4.51-10.77,15.1-19.74,26.3,43.7-23.06,92.53-21.74,134.62,4.04,5.61.15,9.83,1.08,9.83,1.08-.14-.02-.18-2.63-1.42-5.12l-14.05-2.12,12.15-1.51c-2.6-4.34-6.72-8.99-12.13-13.49Z" fill="#92c932"></path><path class="cls-2" d="M244.37,94c2.24-.26,4.51-.52,6.83-.77-3.43-3.69-7.07-7.21-10.86-10.56,5.05,3.12,9.85,6.56,14.39,10.27,3.53-.31,7.13-.54,10.77-.67-2.13-2.82-9.78-11.36-9.78-11.36,0,0,12.97,8.38,15.83,11.2,8.35-.22,11.56.05,19.88.84-2.43-4.74-8.23-18.3-8.23-18.3,0,0,12.01,14.06,15.37,18.99,5.28.57,7.78,1.01,12.77,1.86-1.38-3.52-5.88-16.59-5.88-16.59,0,0,9.2,13.88,11.19,17.54,5.12.9,24.46,4.71,33.15,5.3,1.47.1-6.23-13.19-6.23-13.19,0,0,11.84,12.65,12.33,12.46.54-.21,4.13-3.66,4.4-4.28-44.03-31.52-96.89-34.7-143.78-9.96,6.44,0,26.64,7.37,27.86,7.21Z" fill="#7ab51d"></path><path class="cls-9" d="M259.3,90.77c-5.15-5.04-10.68-9.74-16.58-14.02-.49.16-.96.32-1.43.48,6.41,4.04,12.41,8.58,18.01,13.54Z" style="isolation:isolate" fill="#263d00" opacity=".25"></path><path class="cls-9" d="M245.43,93.02c-5.5-4.45-11.37-8.5-17.6-12.07-.47.2-.95.44-1.42.64,6.73,3.29,13.08,7.13,19.02,11.43Z" style="isolation:isolate" fill="#263d00" opacity=".25"></path><path class="cls-9" d="M273.5,88.65c-4.7-5.7-9.81-11.11-15.33-16.15-.49.1-.96.19-1.45.28,6.02,4.88,11.63,10.2,16.78,15.87Z" style="isolation:isolate" fill="#263d00" opacity=".25"></path><path class="cls-9" d="M286.46,89.11c-4.22-6.25-8.92-12.28-13.99-18-.49.04-.96.08-1.47.11,5.62,5.61,10.77,11.6,15.45,17.89Z" style="isolation:isolate" fill="#263d00" opacity=".25"></path><path class="cls-9" d="M302.88,91.73c-3.3-7.25-7.03-14.35-11.23-21.24-.49-.09-.96-.18-1.45-.25,4.73,6.92,8.95,14.11,12.68,21.49Z" style="isolation:isolate" fill="#263d00" opacity=".25"></path><path class="cls-9" d="M323.18,96.97c-2.99-7.49-6.4-14.83-10.25-22-.49-.13-.95-.24-1.45-.38,4.4,7.25,8.3,14.72,11.7,22.37Z" style="isolation:isolate" fill="#263d00" opacity=".25"></path><path class="cls-9" d="M343.98,100.07c-3.2-6.34-6.75-12.53-10.65-18.53-.49-.2-.95-.41-1.45-.62" style="isolation:isolate" fill="#263d00" opacity=".25"></path><path class="cls-9" d="M247.03,56.28c-4.6,7.24-8.78,14.65-12.5,22.22-.47.18-.95.35-1.42.54,4.16-7.8,8.79-15.39,13.92-22.76Z" style="isolation:isolate" fill="#263d00" opacity=".25"></path><path class="cls-9" d="M270.41,52.1c-5.14,6.61-9.81,13.5-14.06,20.6-.5.1-.98.21-1.47.33,4.7-7.24,9.88-14.25,15.53-20.93Z" style="isolation:isolate" fill="#263d00" opacity=".25"></path><path class="cls-9" d="M291.04,50.35c-5.58,5.96-10.79,12.24-15.55,18.76-.49.03-.98.09-1.47.15,6.64-8.41,12.24-14.27,17.01-18.91Z" style="isolation:isolate" fill="#263d00" opacity=".25"></path><path class="cls-9" d="M316.9,56.37c-6.33,4.51-12.3,9.45-17.9,14.75-.47-.08-.96-.15-1.45-.21,6.03-5.28,12.48-10.15,19.35-14.54Z" style="isolation:isolate" fill="#263d00" opacity=".25"></path><path class="cls-9" d="M334.68,63.1c-6.68,3.59-13.01,7.66-19.02,12.15-.47-.14-.95-.28-1.42-.41,6.43-4.42,13.25-8.35,20.44-11.74Z" style="isolation:isolate" fill="#263d00" opacity=".25"></path><path class="cls-9" d="M349.49,75.18s-14.39,2.05-20.56,4.93c-.5-.19-.98-.39-1.47-.56,6.66-2.78,22.03-4.37,22.03-4.37Z" style="isolation:isolate" fill="#263d00" opacity=".25"></path><path class="cls-8" d="M360.26,96.73c-50.28-39.11-101.56-31.85-142.03-12.35-3.3,1.8-2.59,3.64.12,2.29,36.6-16.78,82.71-28.31,141.91,10.06Z" fill="#70a61b"></path><path class="cls-7" d="M175.93,211.43c2.67-4.6,10.15-18.72,10.15-18.72,0,0-9.43,9.79-12.62,13.46-4.46-9.32-7.82-25.43-8.17-40.07,4.46-4.38,9.13-8.46,13.97-12.26-4.74,2.67-9.39,5.56-13.92,8.66.35-12.85,3.11-25.94,7.9-37.87,5.67-3.4,21.82-13.09,21.82-13.09,0,0-13.4,4.22-18.65,6.31.63-1.48,6.31-11.81,8.43-14.87,7.07-3.12,14.25-5.84,21.53-8.19-5.98,1.1-11.93,2.43-17.87,3.98,5.44-4.01,17.05-7.86,29.88-14.67-31.44,39.62-39.8,89.42-22.7,137.37-.96,5.72-.9,10.18-.9,10.18.03-.13-2.55-.73-4.75-2.47l.68-14.68-3.9,12c-3.75-3.54-7.52-8.64-10.89-15.07Z" fill="#92c932"></path><path class="cls-2" d="M219.98,113.84c-.68,2.22-1.38,4.48-2.1,6.8-2.95-4.26-5.72-8.65-8.27-13.2,2.08,5.77,4.51,11.34,7.27,16.69-1,3.52-1.94,7.12-2.78,10.78-2.35-2.74-9.27-12.24-9.27-12.24,0,0,5.68,14.86,7.9,18.34-1.87,8.42-2.24,11.75-3.1,20.34-4.2-3.44-16.43-12.07-16.43-12.07,0,0,11.52,15.05,15.7,19.44-.49,5.49-.55,8.1-.7,13.33-3.2-2.11-15.21-9.35-15.21-9.35,0,0,11.89,12.18,15.1,14.92-.14,5.38-.2,25.78-1.33,34.7-.2,1.52-11.8-9-11.8-9,0,0,10.15,14.57,9.85,15.04-.32.51-4.42,3.44-5.09,3.59-22.38-51.1-15.05-105.33,18.68-147.85-1.29,6.57,1.98,28.55,1.58,29.75Z" fill="#7ab51d"></path><path class="cls-9" d="M213.85,128.33c-3.95-6.24-7.48-12.82-10.55-19.68.26-.47.52-.9.77-1.35,2.7,7.31,5.99,14.34,9.78,21.03Z" style="isolation:isolate" fill="#263d00" opacity=".25"></path><path class="cls-9" d="M218.82,114.74c-3.3-6.49-6.14-13.28-8.43-20.33.3-.44.61-.85.91-1.3,1.91,7.51,4.45,14.71,7.52,21.62Z" style="isolation:isolate" fill="#263d00" opacity=".25"></path><path class="cls-9" d="M208.95,142.3c-4.7-5.94-9.04-12.23-12.92-18.84.21-.48.4-.95.58-1.43,3.63,7.12,7.76,13.88,12.34,20.27Z" style="isolation:isolate" fill="#263d00" opacity=".25"></path><path class="cls-9" d="M206.81,155.55c-5.33-5.57-10.35-11.55-15-17.86.15-.48.26-.97.4-1.46,4.44,6.83,9.32,13.28,14.6,19.32Z" style="isolation:isolate" fill="#263d00" opacity=".25"></path><path class="cls-9" d="M206.15,172.74c-6.5-4.83-12.78-10.09-18.75-15.73.02-.51.03-1.02.05-1.53,5.9,6.21,12.15,11.95,18.7,17.25Z" style="isolation:isolate" fill="#263d00" opacity=".25"></path><path class="cls-9" d="M207.3,194.38c-6.8-4.54-13.36-9.51-19.69-14.87-.03-.51-.05-1.02-.09-1.54,6.29,5.94,12.9,11.41,19.77,16.42Z" style="isolation:isolate" fill="#263d00" opacity=".25"></path><path class="cls-9" d="M206.25,216.11c-5.63-4.54-11.03-9.4-16.18-14.57-.12-.54-.23-1.07-.33-1.6" style="isolation:isolate" fill="#263d00" opacity=".25"></path><path class="cls-9" d="M182.23,108.85c8.06-3.19,16.2-5.9,24.41-8.12.26-.45.54-.9.8-1.34-8.52,2.62-16.93,5.78-25.21,9.46Z" style="isolation:isolate" fill="#263d00" opacity=".25"></path><path class="cls-9" d="M173.48,131.72c7.55-3.83,15.27-7.19,23.12-10.08.18-.48.42-.93.61-1.42-8.08,3.3-16.02,7.13-23.73,11.49Z" style="isolation:isolate" fill="#263d00" opacity=".25"></path><path class="cls-9" d="M167.65,152.3c7-4.46,14.22-8.45,21.6-11.95.14-.5.3-.97.44-1.46-9.6,4.99-16.49,9.49-22.03,13.41Z" style="isolation:isolate" fill="#263d00" opacity=".25"></path><path class="cls-9" d="M168.48,179.74c5.72-5.51,11.77-10.55,18.1-15.14.03-.49.05-1.01.09-1.53-6.4,5.05-12.5,10.59-18.18,16.66Z" style="isolation:isolate" fill="#263d00" opacity=".25"></path><path class="cls-9" d="M171.6,199.14c4.86-6.05,10.14-11.65,15.75-16.82-.03-.49-.09-1.01-.12-1.53-5.63,5.63-10.86,11.75-15.63,18.35Z" style="isolation:isolate" fill="#263d00" opacity=".25"></path><path class="cls-9" d="M180.58,216.62s4.86-14.16,8.95-19.86c-.09-.54-.2-1.08-.28-1.6-4.05,6.19-8.67,21.46-8.67,21.46Z" style="isolation:isolate" fill="#263d00" opacity=".25"></path><path class="cls-8" d="M199.71,231.94c-28.63-58.96-11.3-109.48,15.97-146.55,2.43-2.98,4.1-1.89,2.24.58-23.82,33.7-44.33,78.11-18.2,145.97Z" fill="#70a61b"></path></g></svg>