<svg data-name="Layer 1" xmlns="http://www.w3.org/2000/svg" style="" viewBox="0 0 513.16 512"><g class="nc-icon-wrapper"><defs><linearGradient id="1776585740502-6860275_linear-gradient" x1="385.78" y1="614.22" x2="46.51" y2="643.68" gradientTransform="translate(0 -512)" gradientUnits="userSpaceOnUse"><stop offset="0" stop-color="#007ed6"></stop><stop offset=".15" stop-color="#1897e1"></stop><stop offset=".36" stop-color="#33b3ee"></stop><stop offset=".58" stop-color="#47c8f8"></stop><stop offset=".79" stop-color="#53d4fd"></stop><stop offset="1" stop-color="#57d8ff"></stop></linearGradient><linearGradient id="1776585740502-6860275_linear-gradient-2" x1="401.56" y1="733.8" x2="401.56" y2="512" gradientTransform="translate(0 -512)" gradientUnits="userSpaceOnUse"><stop offset="0" stop-color="#f80"></stop><stop offset=".21" stop-color="#ffa113"></stop><stop offset=".54" stop-color="#ffc32b"></stop><stop offset=".82" stop-color="#ffd83a"></stop><stop offset="1" stop-color="#ffdf40"></stop></linearGradient><linearGradient id="1776585740502-6860275_linear-gradient-3" x1="400.83" y1="717.19" x2="400.83" y2="530.86" gradientTransform="translate(0 -512)" gradientUnits="userSpaceOnUse"><stop offset="0" stop-color="#fa0"></stop><stop offset=".03" stop-color="#ffad00"></stop><stop offset=".46" stop-color="#ffd500"></stop><stop offset=".79" stop-color="#ffed00"></stop><stop offset="1" stop-color="#fff600"></stop></linearGradient><linearGradient id="1776585740502-6860275_linear-gradient-4" x1="168.32" y1="867.88" x2="508.72" y2="819.18" gradientTransform="translate(0 -512)" gradientUnits="userSpaceOnUse"><stop offset="0" stop-color="#007ed6"></stop><stop offset=".15" stop-color="#1897e1"></stop><stop offset=".36" stop-color="#33b3ee"></stop><stop offset=".58" stop-color="#47c8f8"></stop><stop offset=".79" stop-color="#53d4fd"></stop><stop offset="1" stop-color="#57d8ff"></stop></linearGradient><linearGradient id="1776585740502-6860275_linear-gradient-5" x1="145.39" y1="1024" x2="145.39" y2="733.75" gradientTransform="translate(0 -512)" gradientUnits="userSpaceOnUse"><stop offset="0" stop-color="#f80"></stop><stop offset=".21" stop-color="#ffa113"></stop><stop offset=".54" stop-color="#ffc32b"></stop><stop offset=".82" stop-color="#ffd83a"></stop><stop offset="1" stop-color="#ffdf40"></stop></linearGradient><linearGradient id="1776585740502-6860275_linear-gradient-6" x1="145.66" y1="1007.87" x2="145.66" y2="748.88" gradientTransform="translate(0 -512)" gradientUnits="userSpaceOnUse"><stop offset="0" stop-color="#fa0"></stop><stop offset=".03" stop-color="#ffad00"></stop><stop offset=".46" stop-color="#ffd500"></stop><stop offset=".79" stop-color="#ffed00"></stop><stop offset="1" stop-color="#fff600"></stop></linearGradient></defs><path class="cls-6" d="M4.42,230.32c-7.29-34.97-5.56-66.3,5.19-93.98,10.75-27.68,28.41-50.72,53-69.12,24.59-18.4,54.09-31.05,88.52-37.97s71.76-7.01,112.01-.27c40.25,6.74,81.5,21.58,123.76,44.53l-31.14,61.2c-26.96-16.76-55.64-29.78-86.06-39.07-30.42-9.29-60.56-14.12-90.43-14.48s-57.37,4.55-82.51,14.75-45.99,26.32-62.56,48.36c-16.57,22.04-26.5,50.72-29.78,86.06Z" fill="url(#1776585740502-6860275_linear-gradient)"></path><path class="cls-5" d="M414.76,6.3l15.3,75.95,75.4,8.74c4.37.36,6.74,1.46,7.1,3.28s-1.27,3.82-4.92,6.01l-66.66,38.25,15.3,75.4c.73,4.37.27,6.92-1.37,7.65s-4.1-.36-7.38-3.28l-55.73-51.91-66.11,38.25c-3.64,2.19-6.19,2.64-7.65,1.37s-1.46-3.92,0-7.92l32.24-69.94-56.28-52.45c-2.91-2.91-4.01-5.19-3.28-6.83s3.28-2.28,7.65-1.91l75.4,8.74,31.69-70.49c1.82-3.64,3.64-5.37,5.46-5.19s3.1,2.28,3.82,6.28Z" fill="url(#1776585740502-6860275_linear-gradient-2)"></path><path class="cls-4" d="M422.96,89.9l71.03,8.2-62.29,36.06,14.21,71.03-53-49.18-62.29,35.52,29.51-65.57-52.45-49.18,71.03,8.2,30.05-66.11,14.21,71.03Z" fill="url(#1776585740502-6860275_linear-gradient-3)"></path><path class="cls-3" d="M492.35,187.7c17.12,41.53,23.68,79.14,19.67,112.83-4.01,33.69-16.21,62.29-36.61,85.78s-46.9,41.25-79.5,53.27c-32.6,12.02-69.3,17.3-110.1,15.85-40.8-1.46-83.24-10.56-127.31-27.32l40.98-91.25c44.08,22.95,82.96,36.79,116.66,41.53,33.69,4.74,62.47,2.46,86.33-6.83,23.86-9.29,42.89-23.5,57.1-42.62,14.21-19.12,24.04-40.98,29.51-65.57s6.56-49.81,3.28-75.68Z" fill="url(#1776585740502-6860275_linear-gradient-4)"></path><path class="cls-1" d="M72.17,231.96c-1.46-5.46-1.09-8.74,1.09-9.84s5.28.18,9.29,3.82l74.31,68.85,85.24-49.18c5.1-2.91,8.65-3.55,10.65-1.91s1.73,5.19-.82,10.65l-40.43,91.25,74.31,68.3c4.01,3.64,5.46,6.56,4.37,8.74s-4.37,3.1-9.84,2.73l-98.9-12.02-40.43,91.25c-2.19,5.1-4.55,7.56-7.1,7.38s-4.37-3.01-5.46-8.47l-20.22-98.9-98.9-11.47c-5.46-.73-8.47-2.37-9.02-4.92s1.73-5.28,6.83-8.2l85.24-48.63-20.22-99.44Z" fill="url(#1776585740502-6860275_linear-gradient-5)"></path><path class="cls-2" d="M155.22,305.18l86.88-49.72-40.98,91.8,74.31,68.85-99.44-12.02-40.43,91.8-20.76-98.9-98.9-12.02,86.33-49.18-20.76-98.9,73.76,68.3Z" fill="url(#1776585740502-6860275_linear-gradient-6)"></path></g></svg>