<svg data-name="Layer 1" xmlns="http://www.w3.org/2000/svg" style="" viewBox="0 0 512 512"><g class="nc-icon-wrapper"><defs><linearGradient id="1777856185333-2131980_linear-gradient" x1="866.9" y1="661.82" x2="1051.81" y2="661.82" gradientTransform="rotate(45 1107.505 -385.586)" gradientUnits="userSpaceOnUse"><stop offset="0" stop-color="#00859c"></stop><stop offset=".15" stop-color="#009eae"></stop><stop offset=".35" stop-color="#00b8c2"></stop><stop offset=".56" stop-color="#00ccd0"></stop><stop offset=".78" stop-color="#00d7d8"></stop><stop offset="1" stop-color="#00dbdb"></stop></linearGradient><linearGradient id="1777856185333-2131980_linear-gradient-2" x1="866.39" y1="852.97" x2="1045.45" y2="852.97" gradientTransform="rotate(45 1107.505 -385.586)" gradientUnits="userSpaceOnUse"><stop offset="0" stop-color="#e84600"></stop><stop offset="1" stop-color="#ff931f"></stop></linearGradient><linearGradient id="1777856185333-2131980_linear-gradient-3" x1="191.13" y1="-757.4" x2="173.66" y2="-757.4" gradientTransform="rotate(135 -67.88 -185.899)" gradientUnits="userSpaceOnUse"><stop offset="0" stop-color="#00859c"></stop><stop offset=".15" stop-color="#009eae"></stop><stop offset=".35" stop-color="#00b8c2"></stop><stop offset=".56" stop-color="#00ccd0"></stop><stop offset=".78" stop-color="#00d7d8"></stop><stop offset="1" stop-color="#00dbdb"></stop></linearGradient><linearGradient id="1777856185333-2131980_linear-gradient-4" x1="191.13" y1="-703.01" x2="173.66" y2="-703.01" gradientTransform="rotate(135 -67.88 -185.899)" gradientUnits="userSpaceOnUse"><stop offset="0" stop-color="#e84600"></stop><stop offset="1" stop-color="#ff931f"></stop></linearGradient><linearGradient id="1777856185333-2131980_linear-gradient-5" x1="-376.37" y1="180.47" x2="-358.9" y2="180.47" gradientTransform="rotate(-45 25.432 -414.154)" gradientUnits="userSpaceOnUse"><stop offset="0" stop-color="#e84600"></stop><stop offset="1" stop-color="#ff931f"></stop></linearGradient><linearGradient id="1777856185333-2131980_linear-gradient-6" x1="-376.37" y1="262.63" x2="-358.9" y2="262.63" gradientTransform="rotate(-45 25.432 -414.154)" gradientUnits="userSpaceOnUse"><stop offset="0" stop-color="#00859c"></stop><stop offset=".15" stop-color="#009eae"></stop><stop offset=".35" stop-color="#00b8c2"></stop><stop offset=".56" stop-color="#00ccd0"></stop><stop offset=".78" stop-color="#00d7d8"></stop><stop offset="1" stop-color="#00dbdb"></stop></linearGradient><linearGradient id="1777856185333-2131980_linear-gradient-7" x1="-418.69" y1="180.41" x2="-401.21" y2="180.41" gradientTransform="rotate(-45 25.432 -414.154)" gradientUnits="userSpaceOnUse"><stop offset="0" stop-color="#e84600"></stop><stop offset="1" stop-color="#ff931f"></stop></linearGradient><linearGradient id="1777856185333-2131980_linear-gradient-8" x1="-418.67" y1="262.64" x2="-401.2" y2="262.64" gradientTransform="rotate(-45 25.432 -414.154)" gradientUnits="userSpaceOnUse"><stop offset="0" stop-color="#00859c"></stop><stop offset=".15" stop-color="#009eae"></stop><stop offset=".35" stop-color="#00b8c2"></stop><stop offset=".56" stop-color="#00ccd0"></stop><stop offset=".78" stop-color="#00d7d8"></stop><stop offset="1" stop-color="#00dbdb"></stop></linearGradient><linearGradient id="1777856185333-2131980_linear-gradient-9" x1="97.28" y1="-760.46" x2="79.81" y2="-760.46" gradientTransform="rotate(135 -51.35 -192.742)" gradientUnits="userSpaceOnUse"><stop offset="0" stop-color="#00859c"></stop><stop offset=".15" stop-color="#009eae"></stop><stop offset=".35" stop-color="#00b8c2"></stop><stop offset=".56" stop-color="#00ccd0"></stop><stop offset=".78" stop-color="#00d7d8"></stop><stop offset="1" stop-color="#00dbdb"></stop></linearGradient><linearGradient id="1777856185333-2131980_linear-gradient-10" x1="97.29" y1="-696.79" x2="79.82" y2="-696.79" gradientTransform="rotate(135 -51.35 -192.742)" gradientUnits="userSpaceOnUse"><stop offset="0" stop-color="#e84600"></stop><stop offset="1" stop-color="#ff931f"></stop></linearGradient><linearGradient id="1777856185333-2131980_linear-gradient-11" x1="-11.24" y1="-760.46" x2="-28.72" y2="-760.46" gradientTransform="rotate(135 -67.88 -185.899)" gradientUnits="userSpaceOnUse"><stop offset="0" stop-color="#e84600"></stop><stop offset="1" stop-color="#ff931f"></stop></linearGradient><linearGradient id="1777856185333-2131980_linear-gradient-12" x1="-11.23" y1="-699.96" x2="-28.71" y2="-699.96" gradientTransform="rotate(135 -67.88 -185.899)" gradientUnits="userSpaceOnUse"><stop offset="0" stop-color="#00859c"></stop><stop offset=".15" stop-color="#009eae"></stop><stop offset=".35" stop-color="#00b8c2"></stop><stop offset=".56" stop-color="#00ccd0"></stop><stop offset=".78" stop-color="#00d7d8"></stop><stop offset="1" stop-color="#00dbdb"></stop></linearGradient><linearGradient id="1777856185333-2131980_linear-gradient-13" x1="-178.13" y1="180.41" x2="-160.65" y2="180.41" gradientTransform="rotate(-45 25.432 -414.154)" gradientUnits="userSpaceOnUse"><stop offset="0" stop-color="#00859c"></stop><stop offset=".15" stop-color="#009eae"></stop><stop offset=".35" stop-color="#00b8c2"></stop><stop offset=".56" stop-color="#00ccd0"></stop><stop offset=".78" stop-color="#00d7d8"></stop><stop offset="1" stop-color="#00dbdb"></stop></linearGradient><linearGradient id="1777856185333-2131980_linear-gradient-14" x1="-178.13" y1="262.63" x2="-160.65" y2="262.63" gradientTransform="rotate(-45 25.432 -414.154)" gradientUnits="userSpaceOnUse"><stop offset="0" stop-color="#e84600"></stop><stop offset="1" stop-color="#ff931f"></stop></linearGradient><linearGradient id="1777856185333-2131980_linear-gradient-15" x1="-218.37" y1="180.41" x2="-200.89" y2="180.41" gradientTransform="rotate(-45 25.432 -414.154)" gradientUnits="userSpaceOnUse"><stop offset="0" stop-color="#00859c"></stop><stop offset=".15" stop-color="#009eae"></stop><stop offset=".35" stop-color="#00b8c2"></stop><stop offset=".56" stop-color="#00ccd0"></stop><stop offset=".78" stop-color="#00d7d8"></stop><stop offset="1" stop-color="#00dbdb"></stop></linearGradient><linearGradient id="1777856185333-2131980_linear-gradient-16" x1="-218.38" y1="262.64" x2="-200.9" y2="262.64" gradientTransform="rotate(-45 25.432 -414.154)" gradientUnits="userSpaceOnUse"><stop offset="0" stop-color="#e84600"></stop><stop offset="1" stop-color="#ff931f"></stop></linearGradient><linearGradient id="1777856185333-2131980_linear-gradient-17" x1="-98.9" y1="-760.46" x2="-116.37" y2="-760.46" gradientTransform="rotate(135 -51.35 -192.742)" gradientUnits="userSpaceOnUse"><stop offset="0" stop-color="#e84600"></stop><stop offset="1" stop-color="#ff931f"></stop></linearGradient><linearGradient id="1777856185333-2131980_linear-gradient-18" x1="-98.9" y1="-696.79" x2="-116.37" y2="-696.79" gradientTransform="rotate(135 -51.35 -192.742)" gradientUnits="userSpaceOnUse"><stop offset="0" stop-color="#00859c"></stop><stop offset=".15" stop-color="#009eae"></stop><stop offset=".35" stop-color="#00b8c2"></stop><stop offset=".56" stop-color="#00ccd0"></stop><stop offset=".78" stop-color="#00d7d8"></stop><stop offset="1" stop-color="#00dbdb"></stop></linearGradient><linearGradient id="1777856185333-2131980_linear-gradient-19" x1="312.81" y1="-760.46" x2="295.34" y2="-760.46" gradientTransform="rotate(135 -51.35 -192.742)" gradientUnits="userSpaceOnUse"><stop offset="0" stop-color="#e84600"></stop><stop offset="1" stop-color="#ff931f"></stop></linearGradient><linearGradient id="1777856185333-2131980_linear-gradient-20" x1="312.81" y1="-696.79" x2="295.34" y2="-696.79" gradientTransform="rotate(135 -51.35 -192.742)" gradientUnits="userSpaceOnUse"><stop offset="0" stop-color="#00859c"></stop><stop offset=".15" stop-color="#009eae"></stop><stop offset=".35" stop-color="#00b8c2"></stop><stop offset=".56" stop-color="#00ccd0"></stop><stop offset=".78" stop-color="#00d7d8"></stop><stop offset="1" stop-color="#00dbdb"></stop></linearGradient><linearGradient id="1777856185333-2131980_linear-gradient-21" x1="-197.94" y1="-760.46" x2="-215.42" y2="-760.46" gradientTransform="rotate(135 -51.35 -192.742)" gradientUnits="userSpaceOnUse"><stop offset="0" stop-color="#00859c"></stop><stop offset=".15" stop-color="#009eae"></stop><stop offset=".35" stop-color="#00b8c2"></stop><stop offset=".56" stop-color="#00ccd0"></stop><stop offset=".78" stop-color="#00d7d8"></stop><stop offset="1" stop-color="#00dbdb"></stop></linearGradient><linearGradient id="1777856185333-2131980_linear-gradient-22" x1="-197.95" y1="-696.79" x2="-215.43" y2="-696.79" gradientTransform="rotate(135 -51.35 -192.742)" gradientUnits="userSpaceOnUse"><stop offset="0" stop-color="#e84600"></stop><stop offset="1" stop-color="#ff931f"></stop></linearGradient><linearGradient id="1777856185333-2131980_linear-gradient-23" x1="872.69" y1="853" x2="1051.81" y2="853" gradientTransform="rotate(45 1107.505 -385.586)" gradientUnits="userSpaceOnUse"><stop offset="0" stop-color="#00dbdb"></stop><stop offset=".22" stop-color="#00d7d8"></stop><stop offset=".44" stop-color="#00ccd0"></stop><stop offset=".65" stop-color="#00b8c2"></stop><stop offset=".85" stop-color="#009eae"></stop><stop offset="1" stop-color="#00859c"></stop></linearGradient><linearGradient id="1777856185333-2131980_linear-gradient-24" x1="866.39" y1="661.77" x2="1051.29" y2="661.77" gradientTransform="rotate(45 1107.505 -385.586)" gradientUnits="userSpaceOnUse"><stop offset="0" stop-color="#ff931f"></stop><stop offset="1" stop-color="#e84600"></stop></linearGradient><linearGradient id="1777856185333-2131980_linear-gradient-25" x1="872.69" y1="487.42" x2="1051.75" y2="487.42" gradientTransform="rotate(45 1107.505 -385.586)" gradientUnits="userSpaceOnUse"><stop offset="0" stop-color="#e84600"></stop><stop offset="1" stop-color="#ff931f"></stop></linearGradient><linearGradient id="1777856185333-2131980_linear-gradient-26" x1="866.34" y1="487.36" x2="1045.4" y2="487.36" gradientTransform="rotate(45 1107.505 -385.586)" gradientUnits="userSpaceOnUse"><stop offset="0" stop-color="#00dbdb"></stop><stop offset=".22" stop-color="#00d7d8"></stop><stop offset=".44" stop-color="#00ccd0"></stop><stop offset=".65" stop-color="#00b8c2"></stop><stop offset=".85" stop-color="#009eae"></stop><stop offset="1" stop-color="#00859c"></stop></linearGradient></defs><path class="cls-9" d="M287.6,100.24c-76.8,79.2,59.04,213.84-48.32,302.72,23.44-95.28-77.28-223.68,48.32-302.72Z" fill="url(#1777856185333-2131980_linear-gradient)"></path><path class="cls-8" d="M99.6,489.44l22.56,22.56c37.36-72.16-15.36-173.84,5.2-257.52-82.16,68.08-22.48,162.32-27.76,234.96Z" fill="url(#1777856185333-2131980_linear-gradient-2)"></path><path class="cls-7" d="M132.24,380.4l12.4-12.4s29.52,29.52,38.88,38.88c3.92,3.92-8.48,16.24-12.4,12.4-9.76-9.68-38.88-38.88-38.88-38.88Z" fill="url(#1777856185333-2131980_linear-gradient-3)"></path><path class="cls-6" d="M97.76,345.92c-4.72-4.72,7.6-17.12,12.4-12.4,8.72,8.72,23.84,23.84,34.48,34.48,3.92,3.92-8.48,16.24-12.4,12.4-10.4-10.4-26.88-26.8-34.48-34.48Z" fill="url(#1777856185333-2131980_linear-gradient-4)"></path><path class="cls-3" d="M203.76,307.6l-12.32,12.4s-46.96-47.04-56.32-56.32c-3.92-3.92,8.48-16.24,12.4-12.4,9.6,9.68,56.24,56.32,56.24,56.32Z" fill="url(#1777856185333-2131980_linear-gradient-5)"></path><path class="cls-4" d="M260.16,363.92c4.72,4.72-7.6,17.12-12.4,12.4l-56.32-56.32c-3.92-3.92,8.48-16.24,12.4-12.4,10.32,10.4,48.64,48.72,56.32,56.32Z" fill="url(#1777856185333-2131980_linear-gradient-6)"></path><path class="cls-2" d="M173.84,337.52l-12.4,12.4s-46.96-46.96-56.32-56.32c-3.92-3.92,8.48-16.24,12.4-12.4,9.68,9.68,56.32,56.32,56.32,56.32Z" fill="url(#1777856185333-2131980_linear-gradient-7)"></path><path class="cls-1" d="M230.24,393.84c4.72,4.72-7.6,17.12-12.4,12.4-8.72-8.72-56.32-56.32-56.32-56.32l3.28-9.12,9.12-3.28c-.08,0,48.64,48.72,56.32,56.32Z" fill="url(#1777856185333-2131980_linear-gradient-8)"></path><path class="cls-5" d="M221.92,290.72l12.4-12.4s33.92,33.92,43.2,43.2c3.92,3.92-8.48,16.24-12.4,12.4-9.68-9.68-43.2-43.2-43.2-43.2Z" fill="url(#1777856185333-2131980_linear-gradient-9)"></path><path class="cls-10" d="M178.72,247.44c-4.72-4.72,7.6-17.12,12.4-12.4,8.72,8.72,43.2,43.2,43.2,43.2l-3.28,9.12-9.12,3.28c0,.08-35.52-35.52-43.2-43.2Z" fill="url(#1777856185333-2131980_linear-gradient-10)"></path><path class="cls-11" d="M275.28,237.36l12.4-12.4s33.92,33.92,43.2,43.2c3.92,3.92-8.48,16.24-12.4,12.4-9.68-9.68-43.2-43.2-43.2-43.2Z" fill="url(#1777856185333-2131980_linear-gradient-11)"></path><path class="cls-12" d="M236.48,198.48c-4.72-4.72,7.6-17.12,12.4-12.4,8.72,8.72,28.16,28.16,38.88,38.88,3.92,3.92-8.48,16.24-12.4,12.4-10.48-10.4-31.28-31.28-38.88-38.88Z" fill="url(#1777856185333-2131980_linear-gradient-12)"></path><path class="cls-13" d="M343.92,167.44l-12.4,12.4s-46.96-46.96-56.32-56.32c-3.92-3.92,8.48-16.24,12.4-12.4,9.76,9.68,56.32,56.32,56.32,56.32Z" fill="url(#1777856185333-2131980_linear-gradient-13)"></path><path class="cls-15" d="M400.32,223.76c4.72,4.72-7.6,17.12-12.4,12.4-8.72-8.72-45.68-45.68-56.32-56.32-3.92-3.92,8.48-16.24,12.4-12.4,10.32,10.4,48.64,48.64,56.32,56.32Z" fill="url(#1777856185333-2131980_linear-gradient-14)"></path><path class="cls-21" d="M315.52,195.84l-12.4,12.4s-46.96-47.04-56.32-56.32c-3.92-3.92,8.48-16.24,12.4-12.4,9.68,9.76,56.32,56.32,56.32,56.32Z" fill="url(#1777856185333-2131980_linear-gradient-15)"></path><path class="cls-22" d="M371.84,252.24c4.72,4.72-7.6,17.12-12.4,12.4l-56.32-56.32,3.28-9.12,9.12-3.28c0-.08,48.64,48.64,56.32,56.32Z" fill="url(#1777856185333-2131980_linear-gradient-16)"></path><path class="cls-23" d="M360.64,152l12.4-12.4s33.92,33.92,43.2,43.2c3.92,3.92-8.48,16.24-12.4,12.4-9.68-9.68-43.2-43.2-43.2-43.2Z" fill="url(#1777856185333-2131980_linear-gradient-17)"></path><path class="cls-24" d="M317.44,108.72c-4.72-4.72,7.6-17.12,12.4-12.4,8.72,8.72,43.2,43.2,43.2,43.2l-3.28,9.12-9.12,3.36s-35.52-35.6-43.2-43.28Z" fill="url(#1777856185333-2131980_linear-gradient-18)"></path><path class="cls-14" d="M69.52,443.12l12.4-12.4s33.92,33.92,43.2,43.2c3.92,3.92-8.48,16.24-12.4,12.4-9.6-9.68-43.2-43.2-43.2-43.2Z" fill="url(#1777856185333-2131980_linear-gradient-19)"></path><path class="cls-17" d="M26.32,399.84c-4.72-4.72,7.6-17.12,12.4-12.4,8.72,8.72,43.2,43.2,43.2,43.2l-3.28,9.12-9.12,3.28c0,.08-35.52-35.52-43.2-43.2Z" fill="url(#1777856185333-2131980_linear-gradient-20)"></path><path class="cls-16" d="M430.72,81.92l12.4-12.4s33.92,33.92,43.2,43.2c3.92,3.92-8.48,16.24-12.4,12.4-9.68-9.68-43.2-43.2-43.2-43.2Z" fill="url(#1777856185333-2131980_linear-gradient-21)"></path><path class="cls-18" d="M387.44,38.72c-4.72-4.72,7.6-17.12,12.4-12.4,8.72,8.72,43.2,43.2,43.2,43.2l-3.28,9.12-9.12,3.28c.08,0-35.52-35.6-43.2-43.2Z" fill="url(#1777856185333-2131980_linear-gradient-22)"></path><path class="cls-19" d="M22.56,412.4c72.64-5.28,166.96,54.4,234.96-27.68-83.68,20.56-185.36-32.16-257.52,5.12l22.56,22.56Z" fill="url(#1777856185333-2131980_linear-gradient-23)"></path><path class="cls-25" d="M411.84,224.4c-79.2,76.8-213.84-59.04-302.72,48.32,95.2-23.44,223.6,77.28,302.72-48.32Z" fill="url(#1777856185333-2131980_linear-gradient-24)"></path><path class="cls-20" d="M412.4,22.56L389.84,0c-37.36,72.16,15.36,173.84-5.2,257.52,82.16-68.08,22.48-162.32,27.76-234.96Z" fill="url(#1777856185333-2131980_linear-gradient-25)"></path><path class="cls-26" d="M489.44,99.6c-72.64,5.28-166.96-54.4-234.96,27.68,83.68-20.64,185.36,32.16,257.52-5.2l-22.56-22.48Z" fill="url(#1777856185333-2131980_linear-gradient-26)"></path></g></svg>