<svg data-name="Layer 1" xmlns="http://www.w3.org/2000/svg" style="" viewBox="0 0 568.89 512"><g class="nc-icon-wrapper"><defs><radialGradient id="1776867897872-7450985_radial-gradient" cx="280.61" cy="172.2" fx="280.61" fy="172.2" r="23.86" gradientTransform="matrix(9.48 0 0 -7.73 -2412.51 1669.85)" gradientUnits="userSpaceOnUse"><stop offset="0" stop-color="#fac37d"></stop><stop offset=".44" stop-color="#f8c17b"></stop><stop offset=".64" stop-color="#f2ba75"></stop><stop offset=".79" stop-color="#e7ad6b"></stop><stop offset=".91" stop-color="#d79b5c"></stop><stop offset="1" stop-color="#c7894d"></stop></radialGradient><radialGradient id="1776867897872-7450985_radial-gradient-2" cx="284.53" cy="145.17" fx="284.53" fy="145.17" r="28.87" gradientTransform="matrix(9.48 0 0 -6.74 -2412.51 1172.45)" gradientUnits="userSpaceOnUse"><stop offset=".48" stop-color="#4f3225"></stop><stop offset=".65" stop-color="#7c5849"></stop><stop offset=".75" stop-color="#8f6858"></stop><stop offset=".96" stop-color="#4f3225"></stop></radialGradient></defs><path class="cls-3" d="M0,284.77c0,115.75,102.08,227.23,284.44,227.23s284.44-111.5,284.44-227.23c0-141.52-127.37-256.22-284.44-256.22S0,143.25,0,284.77ZM179.43,308.44c0-41.11,47.02-74.45,105.02-74.45s104.98,33.34,104.98,74.45-47.02,74.46-104.98,74.46-105.02-33.36-105.02-74.46Z" fill="url(#1776867897872-7450985_radial-gradient)"></path><path class="cls-1" d="M0,215.65c0,20.73,2.22,40.42,6.57,58.97,5.73,24.42,9.28,67.43,22.24,87.52,6.45,9.97,20.5-3.69,31.87-3.69,21.16,0,24.79,52.55,49.98,52.55,37.77,0,19.93,36.12,72.2,36.12,27.94,0,40.1-29.55,54.48-29.55,36.18,0,34.39,55.1,68.78,55.1s34.18-65.13,66.98-65.13,38.67,33.58,63.81,33.58c26.67,0,19.96-99.56,49.56-99.56,34.08,0,53.12-15.41,60.25-29.73,14.29-28.66,22.18-60.97,22.18-96.18C568.89,101.16,441.51,0,284.44,0S0,101.16,0,215.65ZM179.43,219.06c0-13.36,12.57-22.82,21.26-33.65,6.35-7.94,11.25-28.62,21.12-34.43,18.17-10.62,34.26,26.75,59.65,26.75,13.09,0,40.32-26.42,51.89-23.31,19.41,5.21,10.96,19.24,22.91,30.99,12.45,12.23,33.2,17.42,33.2,33.65,0,41.12-23.12,74.45-105,74.45-81.92,0-105.03-33.35-105.03-74.45Z" fill="url(#1776867897872-7450985_radial-gradient-2)"></path><path class="cls-7" d="M85.53,204.21l-36.89-4.04c-5.95-.66-4.92-10.62,1.04-9.96l36.87,4.06c5.94.64,4.91,10.58-1.02,9.94Z" fill="#18b5f8"></path><path class="cls-5" d="M438.6,309.92l-32.85-17.25c-5.31-2.79-.7-11.67,4.61-8.88l32.83,17.26c5.3,2.75.7,11.63-4.59,8.87Z" fill="#ff1f2b"></path><path class="cls-4" d="M374.57,348.12l-5.54-36.71c-.91-5.93,8.97-7.45,9.89-1.53l5.53,36.73c.89,5.93-8.97,7.45-9.88,1.51Z" fill="#ed1ee4"></path><path class="cls-2" d="M115.67,252.79l-33.22,16.64c-5.35,2.69-9.84-6.23-4.48-8.92l33.23-16.64c5.35-2.69,9.83,6.22,4.48,8.92Z" fill="#ffe12c"></path><path class="cls-6" d="M124.59,90.18l-35.92,9.42c-5.79,1.53-8.3-8.14-2.5-9.68l35.93-9.42c5.79-1.54,8.29,8.14,2.49,9.68Z" fill="#89cc14"></path><path class="cls-7" d="M376.48,48.78l-36.95-3.36c-5.96-.55-5.12-10.51.85-9.97l36.94,3.36c5.95.52,5.1,10.5-.84,9.97Z" fill="#18b5f8"></path><path class="cls-5" d="M200.41,100.74l-28.7-23.52c-4.64-3.79,1.66-11.58,6.31-7.77l28.68,23.52c4.64,3.76-1.66,11.53-6.29,7.77Z" fill="#ff1f2b"></path><path class="cls-4" d="M305.57,101.57l-34.49-13.75c-5.57-2.21-1.91-11.51,3.68-9.3l34.5,13.76c5.55,2.22,1.9,11.51-3.69,9.29Z" fill="#ed1ee4"></path><path class="cls-2" d="M280.45,23.07l-31.67,19.47c-5.09,3.14-10.33-5.37-5.24-8.5l31.68-19.47c5.09-3.15,10.33,5.36,5.23,8.5Z" fill="#ffe12c"></path><path class="cls-6" d="M263.9,330.53l-28.51,23.79c-4.6,3.84-10.98-3.85-6.37-7.7l28.51-23.79c4.6-3.84,10.96,3.85,6.37,7.7Z" fill="#89cc14"></path><path class="cls-7" d="M192.26,314.94l-17.4,32.78c-2.82,5.28-11.68.64-8.86-4.66l17.41-32.75c2.78-5.29,11.64-.65,8.85,4.63Z" fill="#18b5f8"></path><path class="cls-5" d="M459.34,84.53l-32.59-17.77c-5.26-2.87-.53-11.68,4.75-8.81l32.56,17.78c5.26,2.83.52,11.64-4.72,8.8Z" fill="#ff1f2b"></path><path class="cls-4" d="M517.1,142.68l-37.14.18c-5.99.04-6.09-9.96-.09-10.01l37.15-.17c5.98-.03,6.08,9.97.08,10Z" fill="#ed1ee4"></path><path class="cls-2" d="M454.33,173.08l-35.8,9.98c-5.76,1.62-8.47-8-2.68-9.62l35.79-9.98c5.76-1.62,8.46,7.99,2.69,9.62Z" fill="#ffe12c"></path><path class="cls-6" d="M410.25,105.66l-29.78,22.17c-4.8,3.59-10.74-4.45-5.94-8.04l29.8-22.18c4.79-3.59,10.71,4.45,5.93,8.05Z" fill="#89cc14"></path><path class="cls-7" d="M533.7,255.99l-31.81-19.11c-5.13-3.09-.03-11.7,5.11-8.6l31.79,19.11c5.13,3.06.03,11.66-5.09,8.6Z" fill="#18b5f8"></path><path class="cls-5" d="M178.36,271.3l-36.3,7.7c-5.86,1.25-7.99-8.52-2.12-9.77l36.3-7.69c5.84-1.27,7.96,8.5,2.13,9.76Z" fill="#ff1f2b"></path><path class="cls-4" d="M136.71,171.81l-25.02-27.43c-4.05-4.43,3.31-11.19,7.37-6.77l25.03,27.45c4.03,4.43-3.32,11.2-7.38,6.75Z" fill="#ed1ee4"></path><path class="cls-2" d="M309.13,336.98l-23.66-28.65c-3.82-4.61,3.88-10.98,7.7-6.37l23.67,28.66c3.81,4.61-3.87,10.97-7.71,6.36Z" fill="#ffe12c"></path><path class="cls-6" d="M463.41,250.07l-36.96-3.48c-5.97-.56-5-10.5.98-9.95l36.97,3.48c5.96.55,4.99,10.5-.99,9.95Z" fill="#89cc14"></path></g></svg>