<svg data-name="Layer 1" xmlns="http://www.w3.org/2000/svg" style="" viewBox="0 0 512.17 512"><g class="nc-icon-wrapper"><defs><linearGradient id="1776585740502-1458417_linear-gradient" x1="311.7" y1="898.49" x2="470.51" y2="878.77" gradientTransform="translate(0 -512)" gradientUnits="userSpaceOnUse"><stop offset="0" stop-color="#cfd8dd"></stop><stop offset=".83" stop-color="#e6ecf0"></stop><stop offset="1" stop-color="#ecf1f5"></stop></linearGradient><linearGradient id="1776585740502-1458417_linear-gradient-2" x1="293.64" y1="904.99" x2="492.47" y2="901.16" gradientTransform="translate(0 -512)" gradientUnits="userSpaceOnUse"><stop offset="0" stop-color="#cfd8dd"></stop><stop offset=".02" stop-color="#d0d9de"></stop><stop offset=".61" stop-color="#e5ebef"></stop><stop offset="1" stop-color="#ecf1f5"></stop></linearGradient><linearGradient id="1776585740502-1458417_linear-gradient-3" x1="52.67" y1="774.19" x2="44.92" y2="760.36" gradientTransform="translate(0 -512)" gradientUnits="userSpaceOnUse"><stop offset="0" stop-color="#f57701"></stop><stop offset=".26" stop-color="#f67c01"></stop><stop offset=".58" stop-color="#f98b01"></stop><stop offset=".92" stop-color="#fea300"></stop><stop offset="1" stop-color="#fa0"></stop></linearGradient><radialGradient id="1776585740502-1458417_radial-gradient" cx="242.96" cy="559.3" fx="242.96" fy="559.3" r="430" gradientTransform="rotate(45 161.77 299.627) scale(.55 .39)" gradientUnits="userSpaceOnUse"><stop offset="0" stop-color="#ecf1f5"></stop><stop offset=".36" stop-color="#e6ecf0"></stop><stop offset=".83" stop-color="#d7dee3"></stop><stop offset="1" stop-color="#cfd8dd"></stop></radialGradient><linearGradient id="1776585740502-1458417_linear-gradient-4" x1="319.94" y1="924.88" x2="500.13" y2="926.52" gradientTransform="translate(0 -512)" gradientUnits="userSpaceOnUse"><stop offset="0" stop-color="#cfd8dd"></stop><stop offset="0" stop-color="#d0d8dd"></stop><stop offset=".28" stop-color="#e0e6eb"></stop><stop offset=".59" stop-color="#e9eef3"></stop><stop offset="1" stop-color="#ecf1f5"></stop></linearGradient><linearGradient id="1776585740502-1458417_linear-gradient-5" x1="301.85" y1="927.93" x2="491.25" y2="948.73" gradientTransform="translate(0 -512)" gradientUnits="userSpaceOnUse"><stop offset="0" stop-color="#cfd8dd"></stop><stop offset=".55" stop-color="#e2e8ed"></stop><stop offset="1" stop-color="#ecf1f5"></stop></linearGradient><linearGradient id="1776585740502-1458417_linear-gradient-6" x1="282.76" y1="932.24" x2="479.15" y2="978.32" gradientTransform="translate(0 -512)" gradientUnits="userSpaceOnUse"><stop offset="0" stop-color="#cfd8dd"></stop><stop offset="0" stop-color="#d0d8dd"></stop><stop offset=".28" stop-color="#e0e6eb"></stop><stop offset=".59" stop-color="#e9eef3"></stop><stop offset="1" stop-color="#ecf1f5"></stop></linearGradient><linearGradient id="1776585740502-1458417_linear-gradient-7" x1="273.75" y1="943.47" x2="450.07" y2="999.32" gradientTransform="translate(0 -512)" gradientUnits="userSpaceOnUse"><stop offset="0" stop-color="#cfd8dd"></stop><stop offset=".55" stop-color="#e2e8ed"></stop><stop offset="1" stop-color="#ecf1f5"></stop></linearGradient><linearGradient id="1776585740502-1458417_linear-gradient-8" x1="164.35" y1="732.31" x2="396.42" y2="732.31" gradientTransform="translate(0 -512)" gradientUnits="userSpaceOnUse"><stop offset="0" stop-color="#ecf1f5"></stop><stop offset=".01" stop-color="#ebf0f4"></stop><stop offset=".16" stop-color="#dbe2e7"></stop><stop offset=".32" stop-color="#d2dadf"></stop><stop offset=".56" stop-color="#cfd8dd"></stop><stop offset="1" stop-color="#cfd8dd"></stop></linearGradient><linearGradient id="1776585740502-1458417_linear-gradient-9" x1="311.39" y1="703.47" x2="373.67" y2="507.36" gradientTransform="translate(0 -512)" gradientUnits="userSpaceOnUse"><stop offset="0" stop-color="#cfd8dd"></stop><stop offset=".96" stop-color="#ebf0f4"></stop><stop offset="1" stop-color="#ecf1f5"></stop></linearGradient><linearGradient id="1776585740502-1458417_linear-gradient-10" x1="340.66" y1="713.85" x2="437.61" y2="505.15" gradientTransform="translate(0 -512)" gradientUnits="userSpaceOnUse"><stop offset="0" stop-color="#cfd8dd"></stop><stop offset="0" stop-color="#d0d8dd"></stop><stop offset=".28" stop-color="#e0e6eb"></stop><stop offset=".59" stop-color="#e9eef3"></stop><stop offset="1" stop-color="#ecf1f5"></stop></linearGradient><linearGradient id="1776585740502-1458417_linear-gradient-11" x1="350.56" y1="733.71" x2="467.56" y2="537.44" gradientTransform="translate(0 -512)" gradientUnits="userSpaceOnUse"><stop offset="0" stop-color="#cfd8dd"></stop><stop offset=".96" stop-color="#ebf0f4"></stop><stop offset="1" stop-color="#ecf1f5"></stop></linearGradient><linearGradient id="1776585740502-1458417_linear-gradient-12" x1="335.67" y1="761.56" x2="494.15" y2="586.15" gradientTransform="translate(0 -512)" gradientUnits="userSpaceOnUse"><stop offset="0" stop-color="#cfd8dd"></stop><stop offset=".96" stop-color="#ebf0f4"></stop><stop offset="1" stop-color="#ecf1f5"></stop></linearGradient><linearGradient id="1776585740502-1458417_linear-gradient-13" x1="328.54" y1="781.33" x2="490.44" y2="636.94" gradientTransform="translate(0 -512)" gradientUnits="userSpaceOnUse"><stop offset="0" stop-color="#cfd8dd"></stop><stop offset="0" stop-color="#d0d8dd"></stop><stop offset=".28" stop-color="#e0e6eb"></stop><stop offset=".59" stop-color="#e9eef3"></stop><stop offset="1" stop-color="#ecf1f5"></stop></linearGradient><linearGradient id="1776585740502-1458417_linear-gradient-14" x1="277.92" y1="801.21" x2="500.21" y2="712.51" gradientTransform="translate(0 -512)" gradientUnits="userSpaceOnUse"><stop offset="0" stop-color="#cfd8dd"></stop><stop offset="0" stop-color="#d0d8dd"></stop><stop offset=".28" stop-color="#e0e6eb"></stop><stop offset=".59" stop-color="#e9eef3"></stop><stop offset="1" stop-color="#ecf1f5"></stop></linearGradient><linearGradient id="1776585740502-1458417_linear-gradient-15" x1="265.36" y1="826.68" x2="476.19" y2="760.25" gradientTransform="translate(0 -512)" gradientUnits="userSpaceOnUse"><stop offset="0" stop-color="#cfd8dd"></stop><stop offset=".96" stop-color="#ebf0f4"></stop><stop offset="1" stop-color="#ecf1f5"></stop></linearGradient><linearGradient id="1776585740502-1458417_linear-gradient-16" x1="230.73" y1="834.78" x2="442.72" y2="810.13" gradientTransform="translate(0 -512)" gradientUnits="userSpaceOnUse"><stop offset="0" stop-color="#cfd8dd"></stop><stop offset="0" stop-color="#d0d8dd"></stop><stop offset=".28" stop-color="#e0e6eb"></stop><stop offset=".59" stop-color="#e9eef3"></stop><stop offset="1" stop-color="#ecf1f5"></stop></linearGradient></defs><path class="cls-25" d="M155.07,305.78c-7.64,4.73-12.83,1.91-15.56-8.46s-1.73-26.39,3-48.05,14.38-47.05,28.94-76.17c10.56-20.75,20.93-34.95,31.12-42.59s19.75-10.28,28.67-7.92,16.93,8.1,24.03,17.2,13.01,20.2,17.75,33.31,7.74,26.48,9.01,40.13c1.27,13.65.64,26.21-1.91,37.68s-7.46,20.11-14.74,25.94c-6.55,5.46-13.47,8.55-20.75,9.28-7.28.73-15.38,1-24.3.82s-18.75.91-29.49,3.28-22.66,7.55-35.76,15.56Z" fill="#c6cfd4"></path><path class="cls-25" d="M173.64,47.5c14.92,1.09,26.94,5.82,36.04,14.2s15.02,18.84,17.75,31.4,2,26.03-2.18,40.41c-4.19,14.38-12.01,28.48-23.48,42.32-11.47,13.83-27.03,25.85-46.69,36.04,12.01-24.39,19.75-46.59,23.21-66.62s4.73-37.4,3.82-52.15c-.91-14.74-2.55-26.03-4.91-33.85s-3.55-11.74-3.55-11.74Z" fill="#c6cfd4"></path><path class="cls-25" d="M210.22,20.2c16.74,2.91,30.03,9.28,39.86,19.11,9.83,9.83,15.83,21.66,18.02,35.49s.46,28.3-5.19,43.41c-5.64,15.11-15.47,29.67-29.49,43.68-14.01,14.01-32.67,26.12-55.97,36.31,13.1-25.85,22.21-49.6,27.3-71.26s7.92-40.5,8.46-56.51.18-28.39-1.09-37.13-1.91-13.1-1.91-13.1Z" fill="#c6cfd4"></path><path class="cls-25" d="M259.36,24.03c13.83,6.19,23.93,15.02,30.3,26.48,6.37,11.47,9.19,24.3,8.46,38.5-.73,14.2-5.19,28.48-13.38,42.86-8.19,14.38-19.75,27.67-34.67,39.86-14.92,12.19-33.49,21.75-55.69,28.67,17.11-24.39,30.21-47.23,39.31-68.53,9.1-21.3,15.38-39.95,18.84-55.97s5.46-28.67,6.01-37.95l.82-13.92Z" fill="#c6cfd4"></path><path class="cls-25" d="M296.49,43.68c13.47,9.1,21.66,20.75,24.57,34.95,2.91,14.2.64,29.49-6.83,45.87s-20.29,32.4-38.5,48.05c-18.2,15.65-41.86,29.49-70.98,41.5,20.39-21.84,36.67-42.95,48.87-63.34,12.19-20.39,21.39-38.68,27.57-54.88,6.19-16.2,10.28-28.94,12.29-38.22s3-13.92,3-13.92Z" fill="#c6cfd4"></path><path class="cls-25" d="M326.53,76.44c7.64,5.82,12.29,14.11,13.92,24.84,1.64,10.74.27,22.48-4.1,35.22s-11.92,25.21-22.66,37.4c-10.74,12.19-24.57,22.75-41.5,31.67s-37.22,15.02-60.88,18.29c23.66-18.56,42.95-36.67,57.88-54.33,14.92-17.65,26.57-33.49,34.95-47.5,8.37-14.01,14.2-25.12,17.47-33.31l4.91-12.29Z" fill="#c6cfd4"></path><path class="cls-1" d="M64.43,242.98l9.83,18.02c-1.09,2.18-3.55,3.19-7.37,3s-8.28-.46-13.38-.82c-5.1-.36-10.74.18-16.93,1.64,0-3.64,2.37-7.1,7.1-10.37s9.37-6.01,13.92-8.19,6.83-3.28,6.83-3.28Z" fill="#e66000"></path><path class="cls-2" d="M69.89,136.51c.73,1.09-.18,3.91-2.73,8.46s-4.19,7.55-4.91,9.01c-1.46,4-2.91,8.01-4.37,12.01-1.46,4-2.73,8.19-3.82,12.56-3.28,12.01-5.46,24.21-6.55,36.58-1.09,14.56-.55,29.03,1.64,43.41s5.1,28.67,8.74,42.86l-.55.55c-7.64-14.2-12.56-28.76-14.74-43.68s-2.18-29.49,0-43.68c1.82-13.83,5.01-27.57,9.56-41.23,4.55-13.65,10.47-25.94,17.75-36.86Z" fill="#449c00"></path><path class="cls-2" d="M46.96,196.57s-1.82-.18-5.46-.55-8.1-1.73-13.38-4.1-10.47-6.46-15.56-12.29-9.28-14.2-12.56-25.12c0,0,2.46.46,7.37,1.37s10.56,2.73,16.93,5.46c6.37,2.73,11.83,6.92,16.38,12.56s6.64,13.2,6.28,22.66Z" fill="#449c00"></path><path class="cls-16" d="M0,154.53c10.19,5.82,18.84,12.01,25.94,18.56s12.38,12.1,15.83,16.65,5.19,6.83,5.19,6.83c0,0-1.91-.09-5.73-.27s-8.46-1.37-13.92-3.55-10.74-6.19-15.83-12.01-8.92-14.56-11.47-26.21Z" fill="#56ab15"></path><path class="cls-2" d="M53.42,173.72s-1.65-.79-4.95-2.36-7.04-4.37-11.21-8.38-7.66-9.62-10.49-16.83-3.93-16.51-3.32-27.89c0,0,2.16,1.26,6.48,3.78s9.01,6.14,14.08,10.87c5.07,4.73,8.79,10.52,11.17,17.37s1.79,14.67-1.76,23.46Z" fill="#449c00"></path><path class="cls-16" d="M23.46,118.26c7.62,8.93,13.67,17.68,18.13,26.25s7.55,15.58,9.27,21.03,2.57,8.18,2.57,8.18c0,0-1.77-.73-5.3-2.2s-7.5-4.15-11.9-8.05-8.01-9.46-10.84-16.66-3.47-16.72-1.93-28.55Z" fill="#56ab15"></path><path class="cls-2" d="M60.06,155.62c-3.64-8.37-4.19-16.02-1.64-22.93s6.28-12.74,11.19-17.47,9.56-8.28,13.92-10.65,6.55-3.55,6.55-3.55c.73,10.92-.36,20.02-3.28,27.3s-6.46,12.92-10.65,16.93-7.92,6.73-11.19,8.19-4.91,2.18-4.91,2.18Z" fill="#449c00"></path><path class="cls-16" d="M90.09,101.02c1.46,11.28.73,20.57-2.18,27.85s-6.55,12.92-10.92,16.93-8.28,6.64-11.74,7.92-5.19,1.91-5.19,1.91c0,0,.91-2.73,2.73-8.19s4.91-12.38,9.28-20.75,10.37-16.93,18.02-25.66Z" fill="#56ab15"></path><path class="cls-2" d="M52.19,181.49c5.91-6.96,12.53-10.81,19.86-11.57s14.2.02,20.61,2.35,11.64,4.93,15.69,7.8,6.07,4.32,6.07,4.32c-9.48,5.46-18.13,8.49-25.94,9.09s-14.44-.1-19.88-2.1-9.53-4.14-12.28-6.44-4.13-3.45-4.13-3.45Z" fill="#449c00"></path><path class="cls-16" d="M114.42,184.36c-9.48,6.28-18.13,9.72-25.95,10.31s-14.48-.18-20-2.34-9.61-4.5-12.28-7.04-4-3.81-4-3.81c0,0,2.85-.39,8.55-1.16s13.27-1.04,22.71-.82,19.76,1.85,30.97,4.86Z" fill="#56ab15"></path><path class="cls-2" d="M45.76,216.04c5.91-6.96,12.54-10.81,19.87-11.57s14.2.03,20.62,2.35,11.64,4.93,15.69,7.81,6.07,4.32,6.07,4.32c-9.48,5.46-18.14,8.49-25.95,9.09s-14.45-.11-19.89-2.1-9.53-4.14-12.28-6.44-4.13-3.45-4.13-3.45Z" fill="#449c00"></path><path class="cls-16" d="M108.11,218.96c-9.83,6.19-18.56,9.65-26.21,10.37s-14.2,0-19.66-2.18-9.65-4.55-12.56-7.1-4.37-3.82-4.37-3.82c0,0,2.91-.46,8.74-1.37,5.82-.91,13.47-1.27,22.93-1.09s19.84,1.91,31.12,5.19Z" fill="#56ab15"></path><path class="cls-14" d="M474.5,396.42c-4.73,8.37-12.38,14.29-22.93,17.75-10.56,3.46-22.75,4.64-36.58,3.55-13.83-1.09-27.85-4.73-42.04-10.92-14.2-6.19-27.3-14.74-39.31-25.66-12.01-10.92-21.11-24.39-27.3-40.41,15.65,12.38,33.13,22.3,52.42,29.76,19.29,7.46,37.77,13.01,55.42,16.65s32.12,6.1,43.41,7.37,16.93,1.91,16.93,1.91Z" fill="url(#1776585740502-1458417_linear-gradient)"></path><path class="cls-10" d="M493.06,419.9c-5.1,8.37-14.11,14.2-27.03,17.47-12.92,3.28-27.76,3.73-44.5,1.37-16.74-2.37-33.67-7.37-50.78-15.02s-32.67-18.2-46.69-31.67-24.48-29.85-31.4-49.14c8.74,9.1,21.2,17.47,37.4,25.12,16.2,7.64,33.58,14.65,52.15,21.02s36.31,11.92,53.24,16.65c16.93,4.73,30.76,8.28,41.5,10.65s16.11,3.55,16.11,3.55Z" fill="url(#1776585740502-1458417_linear-gradient-2)"></path><path class="cls-9" d="M58.43,238.61l8.74,13.1c-1.82,3.64-5.46,6.01-10.92,7.1s-12.74,3.46-21.84,7.1c0-3.64,2-7.64,6.01-12.01s8.01-8.01,12.01-10.92c4-2.91,6.01-4.37,6.01-4.37Z" fill="url(#1776585740502-1458417_linear-gradient-3)"></path><path class="cls-12" d="M347.27,379.49c6.55,13.47,11.1,25.66,13.65,36.58s1.64,20.11-2.73,27.57c-4.37,7.46-13.92,12.47-28.67,15.02s-36.13,2-64.16-1.64c-27.3-3.28-49.96-9.28-67.98-18.02-18.02-8.74-32.67-18.84-43.96-30.3-11.28-11.47-20.2-23.48-26.76-36.04-6.55-12.56-11.65-24.66-15.29-36.31s-7.01-21.66-10.1-30.03c-3.09-8.37-7.01-14.38-11.74-18.02-14.92-10.19-25.03-20.39-30.3-30.58s-7.01-19.38-5.19-27.57c1.82-8.19,6.01-14.74,12.56-19.66s14.2-7.46,22.93-7.64,17.47,2.64,26.21,8.46,16.2,15.47,22.39,28.94c1.82,4,8.01,7.1,18.56,9.28s23.75,5.28,39.59,9.28c15.83,4,32.94,10.28,51.33,18.84,18.38,8.55,36.22,20.93,53.51,37.13,17.29,16.2,32.67,37.77,46.14,64.7Z" fill="url(#1776585740502-1458417_radial-gradient)"></path><path class="cls-8" d="M500.16,442.83c-5.1,9.1-13.65,15.47-25.66,19.11-12.01,3.64-25.57,4.46-40.68,2.46-15.11-2-30.3-7.1-45.59-15.29-15.29-8.19-29.03-19.48-41.23-33.85-12.19-14.38-21.2-32.31-27.03-53.78,8.01,9.46,19.2,18.38,33.58,26.76,14.38,8.37,29.94,15.93,46.69,22.66,16.74,6.73,32.67,12.47,47.78,17.2,15.11,4.73,27.57,8.37,37.4,10.92,9.83,2.55,14.74,3.82,14.74,3.82Z" fill="url(#1776585740502-1458417_linear-gradient-4)"></path><path class="cls-5" d="M487.6,466.85c-5.46,6.55-14.47,10.28-27.03,11.19s-26.57-.82-42.04-5.19c-15.47-4.37-30.85-11.1-46.14-20.2-15.29-9.1-28.85-20.57-40.68-34.4-11.83-13.83-20.11-29.85-24.84-48.05,7.28,9.46,18.02,18.84,32.22,28.12s29.76,18.11,46.69,26.48c16.93,8.37,33.22,15.65,48.87,21.84,15.65,6.19,28.39,11.1,38.22,14.74,9.83,3.64,14.74,5.46,14.74,5.46Z" fill="url(#1776585740502-1458417_linear-gradient-5)"></path><path class="cls-6" d="M474.5,485.42c-4.37,4.73-12.38,8.01-24.03,9.83s-25.12,1.27-40.41-1.64-30.76-8.74-46.41-17.47c-15.65-8.74-29.85-21.02-42.59-36.86s-22.21-35.95-28.39-60.34c6.55,9.46,16.84,19.29,30.85,29.49,14.01,10.19,29.58,19.84,46.69,28.94,17.11,9.1,33.58,17.29,49.42,24.57,15.83,7.28,28.94,13.01,39.31,17.2,10.37,4.19,15.56,6.28,15.56,6.28Z" fill="url(#1776585740502-1458417_linear-gradient-6)"></path><path class="cls-4" d="M445.01,503.98c-4,4.73-11.19,7.37-21.57,7.92s-22.3-1.18-35.76-5.19c-13.47-4-27.12-10.56-40.95-19.66-13.83-9.1-26.3-21.2-37.4-36.31-11.1-15.11-19.2-33.4-24.3-54.88,9.1,13.47,20.39,25.75,33.85,36.86,13.47,11.1,27.48,21.02,42.04,29.76,14.56,8.74,28.21,16.2,40.95,22.39,12.74,6.19,23.12,10.92,31.12,14.2,8.01,3.28,12.01,4.91,12.01,4.91Z" fill="url(#1776585740502-1458417_linear-gradient-7)"></path><path class="cls-3" d="M174.18,275.2c-7.64-.36-10.83-4.46-9.56-12.29s7.1-18.2,17.47-31.12,25.03-27.3,43.96-43.14c18.93-15.83,42.04-31.76,69.35-47.78,22.93-13.47,41.5-21.3,55.69-23.48s24.94-.36,32.22,5.46,11.56,14.65,12.83,26.48c1.27,11.83.18,25.12-3.28,39.86-3.46,14.74-8.65,29.76-15.56,45.05s-14.92,29.49-24.03,42.59c-9.1,13.1-18.66,23.93-28.67,32.49-10.01,8.55-19.93,13.38-29.76,14.47-9.83,1.09-18.29-.64-25.39-5.19s-14.56-10.1-22.39-16.65-17.38-12.47-28.67-17.75c-11.28-5.28-26.03-8.28-44.23-9.01Z" fill="url(#1776585740502-1458417_linear-gradient-8)"></path><path class="cls-7" d="M398.6,3.28c12.01,12.38,18.66,26.48,19.93,42.32,1.27,15.83-1.91,31.67-9.56,47.5s-19.11,30.21-34.4,43.14c-15.29,12.92-33.49,22.75-54.6,29.49-21.11,6.73-44.41,8.83-69.89,6.28,29.85-18.56,54.42-37.58,73.71-57.06s34.4-37.68,45.32-54.6c10.92-16.93,18.56-30.67,22.93-41.23s6.55-15.83,6.55-15.83Z" fill="url(#1776585740502-1458417_linear-gradient-9)"></path><path class="cls-18" d="M452.66,0c12.01,15.65,18.47,32.49,19.38,50.51s-3.19,35.49-12.29,52.42-22.21,31.67-39.31,44.23c-17.11,12.56-37.58,21.39-61.43,26.48-23.84,5.1-49.96,4.91-78.36-.55,32.03-19.29,59.06-39.04,81.09-59.24,22.02-20.2,39.68-38.86,52.96-55.97,13.29-17.11,22.84-31.03,28.67-41.77,5.82-10.74,8.74-16.11,8.74-16.11h.55Z" fill="url(#1776585740502-1458417_linear-gradient-10)"></path><path class="cls-19" d="M492.52,40.41c7.64,16.74,9.65,33.85,6.01,51.33-3.64,17.47-11.56,33.67-23.75,48.6s-27.67,27.39-46.41,37.4-39.59,16.2-62.52,18.56-46.96-.64-72.08-9.01c34.58-14.2,64.43-29.76,89.55-46.69,25.12-16.93,45.78-32.94,61.97-48.05,16.2-15.11,28.12-27.57,35.76-37.4s11.47-14.74,11.47-14.74Z" fill="url(#1776585740502-1458417_linear-gradient-11)"></path><path class="cls-20" d="M509.99,88.46c4.37,20.02,2.18,39.04-6.55,57.06s-23.02,33.31-42.86,45.87c-19.84,12.56-44.05,20.84-72.62,24.84s-60.52,2-95.83-6.01c35.31-9.46,66.52-20.93,93.64-34.4,27.12-13.47,49.87-26.85,68.25-40.13,18.38-13.29,32.31-24.48,41.77-33.58s14.2-13.65,14.2-13.65Z" fill="url(#1776585740502-1458417_linear-gradient-12)"></path><path class="cls-21" d="M509.99,146.88c1.82,12.38-.82,25.03-7.92,37.95s-17.65,24.84-31.67,35.76c-14.01,10.92-30.67,19.11-49.96,24.57-19.29,5.46-40.04,7.01-62.25,4.64s-44.96-10.47-68.25-24.3c35.67-3.28,67.25-9.1,94.74-17.47s50.51-17.29,69.07-26.76c18.56-9.46,32.58-17.56,42.04-24.3s14.2-10.1,14.2-10.1Z" fill="url(#1776585740502-1458417_linear-gradient-13)"></path><path class="cls-22" d="M501.25,203.12c-3.28,11.65-10.01,23.57-20.2,35.76s-22.93,22.84-38.22,31.94-32.58,15.11-51.87,18.02c-19.29,2.91-39.95,1.27-61.97-4.91-22.02-6.19-44.68-18.56-67.98-37.13,25.12,3.28,49.42,3.91,72.89,1.91,23.48-2,45.32-5.46,65.52-10.37s37.95-10.1,53.24-15.56c15.29-5.46,27.21-10.1,35.76-13.92s12.83-5.73,12.83-5.73Z" fill="url(#1776585740502-1458417_linear-gradient-14)"></path><path class="cls-23" d="M478.32,256.09c-4,12.01-11.47,23.12-22.39,33.31s-24.12,18.47-39.59,24.84c-15.47,6.37-32.4,9.65-50.78,9.83s-37.31-3.82-56.79-12.01c-19.48-8.19-38.5-21.75-57.06-40.68,23.3,5.82,46.05,9.1,68.25,9.83,22.21.73,42.86-.09,61.97-2.46s35.86-5.37,50.23-9.01c14.38-3.64,25.66-6.83,33.85-9.56,8.19-2.73,12.29-4.1,12.29-4.1Z" fill="url(#1776585740502-1458417_linear-gradient-15)"></path><path class="cls-24" d="M443.92,308.51c-2.91,8.01-9.37,15.74-19.38,23.21-10.01,7.46-22.48,13.2-37.4,17.2-14.92,4-31.4,4.82-49.42,2.46s-36.67-9.28-55.97-20.75c-19.29-11.47-38.04-29.03-56.24-52.69,29.85,14.2,57.97,23.84,84.36,28.94,26.39,5.1,49.69,7.64,69.89,7.64s35.95-1,47.23-3,16.93-3,16.93-3Z" fill="url(#1776585740502-1458417_linear-gradient-16)"></path><path class="cls-15" d="M89,229.88c1.82,4.73,1.18,8.28-1.91,10.65s-6.83,3.55-11.19,3.55-7.46-1.46-9.28-4.37c-1.46-5.82-.55-10.19,2.73-13.1s7.01-4.1,11.19-3.55,7.01,2.82,8.46,6.83Z" fill="#ffc64a"></path><path class="cls-13" d="M87.91,230.42c1.46,4,.73,7.1-2.18,9.28s-6.37,3.37-10.37,3.55-6.92-1.18-8.74-4.1c-.73-5.1.36-9.01,3.28-11.74s6.28-3.91,10.1-3.55,6.46,2.55,7.92,6.55Z" fill="#9c6f4f"></path><path class="cls-11" d="M83.09,234c-.25,4.1-2.4,6.11-6.47,6.02s-5.98-2.17-5.73-6.27c-.08-4.04,1.91-6.02,5.98-5.93s6.14,2.14,6.22,6.18Z" fill="#1a1626"></path><path class="cls-17" d="M83.73,229.35c-.02,1.69-.8,2.51-2.33,2.46s-2.28-.93-2.26-2.62.8-2.51,2.33-2.46,2.28.93,2.26,2.62Z" fill="#fff"></path></g></svg>