<svg data-name="Layer 1" xmlns="http://www.w3.org/2000/svg" style="" viewBox="0 0 477.85 512"><g class="nc-icon-wrapper"><defs><linearGradient id="1777685730290-449114_linear-gradient" x1="238.93" y1="491.39" x2="238.93" y2="-2" gradientTransform="translate(0 2)" gradientUnits="userSpaceOnUse"><stop offset=".45" stop-color="#ffb800"></stop><stop offset=".85" stop-color="#06f"></stop></linearGradient><linearGradient id="1777685730290-449114_linear-gradient-2" x1="238.93" y1="457.83" x2="238.93" y2="270.03" gradientTransform="translate(0 2)" gradientUnits="userSpaceOnUse"><stop offset=".13" stop-color="#ab5c10"></stop><stop offset=".24" stop-color="#8c4d15"></stop><stop offset=".4" stop-color="#63391b"></stop><stop offset=".57" stop-color="#432a20"></stop><stop offset=".72" stop-color="#2c1f23"></stop><stop offset=".87" stop-color="#1f1825"></stop><stop offset="1" stop-color="#1a1626"></stop></linearGradient></defs><path class="cls-3" d="M238.93,0C107.01,0,0,108.89,0,243.2c0,32,16.47,41.22,16.47,41.22,0,0,135,127.23,164.86,182.61,18.94,35.16,96.17,35.16,115.11,0,29.87-55.38,164.95-182.61,164.95-182.61,0,0,16.47-9.22,16.47-41.22,0-134.31-106.92-243.2-238.93-243.2" fill="url(#1777685730290-449114_linear-gradient)"></path><path class="cls-4" d="M392.86,155.56c22.27,38.49,15.27,84.14-15.53,101.89-30.81,17.75-73.81,1.02-96-37.55-22.27-38.49-15.27-84.14,15.53-101.89,30.72-17.75,73.73-.94,96,37.55M196.61,219.9c-22.19,38.49-65.19,55.3-96,37.46-30.81-17.75-37.72-63.4-15.53-101.89s65.19-55.3,96-37.55c30.72,17.92,37.72,63.49,15.53,101.97h0Z" fill="#fff"></path><path class="cls-1" d="M238.93,272.03c-29.18-.6-73.39,145.66-38.23,178.52,13.23,12.37,63.23,12.37,76.46,0,35.16-32.85-9.05-179.03-38.23-178.52" fill="url(#1777685730290-449114_linear-gradient-2)"></path><path class="cls-4" d="M8.53,273.91c0-31.23,38.91-30.89,43.35,0,13.91,97.19,52.14,81.58,89.34,113.92,23.72,20.65,30.63,49.32,30.63,89.43,0,35.16-89.26,35.16-89.26,0v-28.67c-19.63-10.15-74.07-33.28-74.07-174.68h0Z" fill="#fff"></path><path class="cls-2" d="M127.23,511.99c-31.23,0-52.99-14.25-52.99-34.73v-23.55C50.01,441.16.17,410.78.17,273.91c0-20.82,14.25-31.66,28.33-31.66,13.14,0,28.67,9.56,31.66,30.46,9.39,65.71,29.1,75.69,53.93,88.23,10.07,5.03,21.42,10.84,32.6,20.57,29.53,25.69,33.54,62.89,33.54,95.83,0,20.39-21.76,34.65-52.99,34.65h-.01ZM28.42,258.98c-5.55,0-11.52,3.93-11.52,14.93,0,131.93,47.27,155.9,67.5,166.23l6.49,3.33v33.79c0,11.69,18.69,18.01,36.27,18.01s36.27-6.31,36.27-18.01c0-41.9-8.02-65.96-27.82-83.11-9.64-8.36-19.54-13.4-29.18-18.26-26.88-13.57-52.31-26.45-62.98-100.78-1.45-11.18-8.62-16.13-15.02-16.13h-.01Z" fill="#99a8ae"></path><path class="cls-4" d="M469.32,273.91c0-31.23-38.91-30.89-43.35,0-13.91,97.19-52.14,81.58-89.34,113.92-23.72,20.65-30.63,49.32-30.63,89.43,0,35.16,89.26,35.16,89.26,0v-28.76c19.63-10.07,74.07-33.19,74.07-174.59h-.01Z" fill="#fff"></path><path class="cls-2" d="M350.62,511.99c-31.23,0-52.99-14.25-52.99-34.73,0-32.94,4.01-70.06,33.54-95.83,11.18-9.73,22.53-15.45,32.6-20.57,24.92-12.54,44.54-22.53,53.93-88.23,2.99-20.91,18.52-30.46,31.66-30.46,14.08,0,28.33,10.92,28.33,31.66,0,136.96-49.83,167.34-73.98,179.8v23.55c0,20.57-21.85,34.82-53.08,34.82h-.01ZM449.44,258.98c-6.4,0-13.48,4.95-15.1,16.13-10.67,74.41-36.1,87.21-62.98,100.78-9.64,4.86-19.54,9.9-29.18,18.26-19.71,17.15-27.82,41.22-27.82,83.11,0,11.69,18.69,18.01,36.27,18.01s36.27-6.31,36.27-18.01v-33.79l6.49-3.33c20.22-10.24,67.5-34.3,67.5-166.23.09-11.01-5.89-14.93-11.43-14.93h-.02Z" fill="#99a8ae"></path></g></svg>