<svg data-name="Layer 1" xmlns="http://www.w3.org/2000/svg" style="" viewBox="0 0 512 512"><g class="nc-icon-wrapper"><defs><linearGradient id="1776131386510-392224_linear-gradient" x1="256" y1="1592" x2="256" y2="1080" gradientTransform="translate(0 -1080)" gradientUnits="userSpaceOnUse"><stop offset="0" stop-color="#ff9500"></stop><stop offset=".19" stop-color="#ffad00"></stop><stop offset=".54" stop-color="#ffd500"></stop><stop offset=".83" stop-color="#ffed00"></stop><stop offset="1" stop-color="#fff600"></stop></linearGradient><linearGradient id="1776131386510-392224_linear-gradient-2" x1="119.42" y1="1399.86" x2="392.58" y2="1399.86" gradientTransform="translate(0 -1080)" gradientUnits="userSpaceOnUse"><stop offset="0" stop-color="#cfd7e6"></stop><stop offset=".04" stop-color="#dae0ec"></stop><stop offset=".13" stop-color="#eef1f6"></stop><stop offset=".22" stop-color="#fbfcfd"></stop><stop offset=".3" stop-color="#fff"></stop><stop offset=".7" stop-color="#fff"></stop><stop offset=".78" stop-color="#fbfcfd"></stop><stop offset=".87" stop-color="#eef1f6"></stop><stop offset=".96" stop-color="#dae0ec"></stop><stop offset="1" stop-color="#cfd7e6"></stop></linearGradient><linearGradient id="1776131386510-392224_linear-gradient-3" x1="383.86" y1="1459.63" x2="128.41" y2="1459.63" gradientTransform="translate(0 -1080)" gradientUnits="userSpaceOnUse"><stop offset="0" stop-color="#cfd7e6"></stop><stop offset=".04" stop-color="#dae0ec"></stop><stop offset=".13" stop-color="#eef1f6"></stop><stop offset=".22" stop-color="#fbfcfd"></stop><stop offset=".3" stop-color="#fff"></stop><stop offset=".7" stop-color="#fff"></stop><stop offset=".78" stop-color="#fbfcfd"></stop><stop offset=".87" stop-color="#eef1f6"></stop><stop offset=".96" stop-color="#dae0ec"></stop><stop offset="1" stop-color="#cfd7e6"></stop></linearGradient></defs><path class="cls-4" d="M512,256c0,35.3-6.64,68.41-19.92,99.34-13.28,30.93-31.66,58.13-55.13,81.6s-50.67,41.85-81.6,55.13c-30.93,13.28-64.05,19.92-99.34,19.92s-68.41-6.64-99.34-19.92c-30.93-13.28-58.13-31.66-81.6-55.13s-41.85-50.67-55.13-81.6C6.64,324.41,0,291.3,0,256s6.64-68.41,19.92-99.34c13.28-30.93,31.66-58.13,55.13-81.6s50.67-41.85,81.6-55.13C187.59,6.64,220.7,0,256,0s68.41,6.64,99.34,19.92c30.93,13.28,58.13,31.66,81.6,55.13s41.85,50.67,55.13,81.6c13.28,30.93,19.92,64.05,19.92,99.34Z" fill="url(#1776131386510-392224_linear-gradient)"></path><path class="cls-3" d="M402.29,300.21c11.64,6.55,19.01,15.74,22.11,27.57s2.64,23.84-1.36,36.03c-4,12.19-10.92,21.92-20.74,29.2-7.28,5.46-18.47,10.01-33.57,13.65s-32.57,6.46-52.4,8.46-40.39,3-61.68,3-41.76-.91-61.41-2.73c-19.65-1.82-36.94-4.55-51.86-8.19-14.92-3.64-25.65-8.37-32.2-14.19-9.46-8.01-16.19-17.92-20.2-29.75s-4.55-23.47-1.64-34.93c2.91-11.46,10.19-20.83,21.83-28.11,7.28-4,18.38-7.46,33.3-10.37,14.92-2.91,32.11-5,51.58-6.28,19.47-1.27,39.76-1.91,60.86-1.91s41.48.73,61.13,2.18,37.03,3.55,52.13,6.28c15.1,2.73,26.47,6.1,34.12,10.1Z" fill="#1a1626"></path><path class="cls-2" d="M379.91,307.31c6.19,1.09,9.92,2.73,11.19,4.91s1.73,4.91,1.36,8.19c-.73,4.37-1.64,8.92-2.73,13.65-.73,2.91-1.73,4.82-3,5.73s-4.46,1.36-9.55,1.36h-242.35c-5.09,0-8.28-.45-9.55-1.36s-2.27-2.82-3-5.73c-1.09-4.73-2-9.28-2.73-13.65-.36-3.28.09-6,1.36-8.19s5-3.82,11.19-4.91c10.92-1.46,27.2-3.28,48.85-5.46,21.65-2.18,46.67-3.28,75.05-3.28s53.4,1.09,75.05,3.28c21.65,2.18,37.94,4,48.85,5.46Z" fill="url(#1776131386510-392224_linear-gradient-2)"></path><path class="cls-1" d="M140.28,391.91c-6.19-.73-9.83-2.18-10.92-4.37s-1.46-4.91-1.09-8.19c.36-3.64,1.09-8.19,2.18-13.65.73-2.91,1.73-4.82,3-5.73s4.28-1.36,9.01-1.36h21.29c11.28,0,25.02-.09,41.21-.27,16.19-.18,33.21-.27,51.04-.27s34.84.09,51.04.27c16.19.18,29.93.27,41.21.27h21.29c4.73,0,7.73.45,9.01,1.36s2.27,2.82,3,5.73c.36,2.55.73,4.91,1.09,7.1s.73,4.37,1.09,6.55c.36,3.28,0,6-1.09,8.19s-4.55,3.64-10.37,4.37c-10.19,1.82-25.47,3.82-45.85,6-20.38,2.18-43.85,3.28-70.41,3.28s-50.04-1.09-70.41-3.28c-20.38-2.18-35.48-4.18-45.3-6Z" fill="url(#1776131386510-392224_linear-gradient-3)"></path><path class="cls-3" d="M204.69,196.5c0,11.64-3.28,21.65-9.83,30.02s-14.56,12.55-24.02,12.55-17.56-4.18-24.29-12.55-10.1-18.38-10.1-30.02,3.37-22.2,10.1-30.57c6.73-8.37,14.83-12.55,24.29-12.55s17.47,4.18,24.02,12.55c6.55,8.37,9.83,18.56,9.83,30.57Z" fill="#1a1626"></path><path class="cls-3" d="M374.99,196.5c0,11.64-3.28,21.65-9.83,30.02-6.55,8.37-14.56,12.55-24.02,12.55s-17.56-4.18-24.29-12.55-10.1-18.38-10.1-30.02,3.37-22.2,10.1-30.57c6.73-8.37,14.83-12.55,24.29-12.55s17.47,4.18,24.02,12.55c6.55,8.37,9.83,18.56,9.83,30.57Z" fill="#1a1626"></path></g></svg>