<svg data-name="Layer 1" xmlns="http://www.w3.org/2000/svg" style="" viewBox="0 0 512 512"><g class="nc-icon-wrapper"><defs><linearGradient id="1776581828193-9319222_linear-gradient" x1="256" y1="1024" x2="256" y2="512" gradientTransform="translate(0 -512)" gradientUnits="userSpaceOnUse"><stop offset="0" stop-color="#ff9500"></stop><stop offset=".19" stop-color="#ffad00"></stop><stop offset=".54" stop-color="#ffd500"></stop><stop offset=".83" stop-color="#ffed00"></stop><stop offset="1" stop-color="#fff600"></stop></linearGradient></defs><path class="cls-2" d="M256,0c35.3,0,68.41,6.64,99.34,19.92,30.93,13.28,58.13,31.66,81.6,55.13s41.85,50.67,55.13,81.6c13.28,30.93,19.92,64.05,19.92,99.34s-6.64,68.41-19.92,99.34c-13.28,30.93-31.66,58.13-55.13,81.6s-50.67,41.85-81.6,55.13c-30.93,13.28-64.05,19.92-99.34,19.92s-68.41-6.64-99.34-19.92c-30.93-13.28-58.13-31.66-81.6-55.13s-41.85-50.67-55.13-81.6C6.64,324.41,0,291.3,0,256s6.64-68.41,19.92-99.34c13.28-30.93,31.66-58.13,55.13-81.6s50.67-41.85,81.6-55.13C187.59,6.64,220.7,0,256,0Z" fill="url(#1776581828193-9319222_linear-gradient)"></path><path class="cls-3" d="M231.82,199.8c3.05,11.37,3.77,22.6,2.16,33.71s-5.18,21.45-10.71,31.03c-5.53,9.58-12.71,17.85-21.52,24.79-8.81,6.95-18.9,11.94-30.27,14.99s-22.6,3.77-33.71,2.16c-11.11-1.61-21.45-5.18-31.03-10.71s-17.85-12.71-24.79-21.52c-6.95-8.81-11.94-18.9-14.99-30.27s-3.77-22.6-2.16-33.71c1.61-11.11,5.18-21.45,10.71-31.03s12.71-17.85,21.52-24.79c8.81-6.95,18.9-11.94,30.27-14.99,11.37-3.05,22.6-3.77,33.71-2.16,11.11,1.61,21.45,5.18,31.03,10.71s17.85,12.71,24.79,21.52,11.94,18.9,14.99,30.27Z" fill="#fff"></path><path class="cls-1" d="M172.49,159.39c2.18,9.83.64,19.29-4.64,28.38-5.28,9.1-12.83,14.92-22.65,17.47-10.19,2.55-19.83,1.27-28.93-3.82-9.1-5.09-15.1-12.55-18.01-22.38-2.91-10.19-1.36-18.65,4.64-25.38s14.1-11.37,24.29-13.92c10.19-2.91,19.56-2.91,28.11,0s14.28,9.46,17.19,19.65Z" fill="#1a1626"></path><path class="cls-3" d="M445.04,199.8c3.05,11.37,3.77,22.6,2.16,33.71s-5.18,21.45-10.71,31.03c-5.53,9.58-12.71,17.85-21.52,24.79-8.81,6.95-18.9,11.94-30.27,14.99s-22.6,3.77-33.71,2.16c-11.11-1.61-21.45-5.18-31.03-10.71-9.58-5.53-17.85-12.71-24.79-21.52-6.95-8.81-11.94-18.9-14.99-30.27s-3.77-22.6-2.16-33.71c1.61-11.11,5.18-21.45,10.71-31.03s12.71-17.85,21.52-24.79c8.81-6.95,18.9-11.94,30.27-14.99,11.37-3.05,22.6-3.77,33.71-2.16,11.11,1.61,21.45,5.18,31.03,10.71s17.85,12.71,24.79,21.52c6.95,8.81,11.94,18.9,14.99,30.27Z" fill="#fff"></path><path class="cls-1" d="M385.36,159.39c2.91,10.19,1.73,19.83-3.55,28.93-5.28,9.1-13.01,15.1-23.2,18.01-10.19,2.55-19.92,1.18-29.2-4.09s-15.19-13.01-17.74-23.2c-2.91-10.19-1.36-18.65,4.64-25.38,6-6.73,14.1-11.37,24.29-13.92,10.19-2.91,19.56-2.91,28.11,0s14.1,9.46,16.65,19.65ZM308.95,376.09c-12.74-2.18-26.47-2.55-41.21-1.09-14.74,1.46-28.66,4.37-41.76,8.73-13.1,4.37-23.84,9.64-32.2,15.83-2.91,2.18-3.91,4.37-3,6.55s2.64,2.91,5.19,2.18c13.1-2.91,30.02-4.46,50.76-4.64,20.74-.18,40.39,1.18,58.95,4.09,4.73.73,8.19-1.36,10.37-6.28s2.82-10.1,1.91-15.56c-.91-5.46-3.91-8.73-9.01-9.83Z" fill="#1a1626"></path></g></svg>