<svg data-name="Layer 1" xmlns="http://www.w3.org/2000/svg" style="" viewBox="0 0 512 512"><g class="nc-icon-wrapper"><defs><linearGradient id="1776131386533-615347_linear-gradient" x1="256" y1="1592" x2="256" y2="1080" gradientTransform="translate(0 -1080)" gradientUnits="userSpaceOnUse"><stop offset="0" stop-color="#ff9500"></stop><stop offset=".19" stop-color="#ffad00"></stop><stop offset=".54" stop-color="#ffd500"></stop><stop offset=".83" stop-color="#ffed00"></stop><stop offset="1" stop-color="#fff600"></stop></linearGradient></defs><path class="cls-3" d="M512,256c0,35.3-6.64,68.41-19.92,99.34-13.28,30.93-31.66,58.13-55.13,81.6s-50.67,41.85-81.6,55.13c-30.93,13.28-64.05,19.92-99.34,19.92s-68.41-6.64-99.34-19.92c-30.93-13.28-58.13-31.66-81.6-55.13s-41.85-50.67-55.13-81.6C6.64,324.41,0,291.3,0,256s6.64-68.41,19.92-99.34c13.28-30.93,31.66-58.13,55.13-81.6s50.67-41.85,81.6-55.13C187.59,6.64,220.7,0,256,0s68.41,6.64,99.34,19.92c30.93,13.28,58.13,31.66,81.6,55.13s41.85,50.67,55.13,81.6c13.28,30.93,19.92,64.05,19.92,99.34Z" fill="url(#1776131386533-615347_linear-gradient)"></path><path class="cls-2" d="M346.61,352.07c4-2.91,7.19-2.64,9.55.82s2.82,6.46,1.36,9.01c-10.55,21.83-24.93,38.21-43.12,49.13-18.19,10.92-37.66,16.38-58.41,16.38s-40.21-5.46-58.41-16.38-32.57-27.29-43.12-49.13c-1.46-2.55-1-5.55,1.36-9.01s5.55-3.73,9.55-.82c11.28,9.1,24.93,15.83,40.94,20.2s32.57,6.55,49.67,6.55,33.66-2.18,49.67-6.55,29.66-11.1,40.94-20.2ZM211.24,216.7c2.55-2.91,5.82-4.18,9.83-3.82s5.64,2,4.91,4.91c-3.28,14.56-10.01,26.2-20.2,34.93s-21.83,14.28-34.93,16.65-26.02,1.18-38.75-3.55c-12.74-4.73-23.11-13.28-31.11-25.65-1.82-2.55-.91-4.73,2.73-6.55s7.1-1.82,10.37,0c10.19,5.09,21.47,7.55,33.84,7.37,12.37-.18,24.2-2.37,35.48-6.55s20.56-10.1,27.84-17.74ZM300.76,216.7c-2.55-2.91-5.82-4.18-9.83-3.82s-5.64,2-4.91,4.91c3.64,14.56,10.55,26.2,20.74,34.93s21.83,14.28,34.93,16.65,25.93,1.18,38.48-3.55c12.55-4.73,23.02-13.28,31.39-25.65,1.46-2.55.36-4.73-3.28-6.55s-7.1-1.82-10.37,0c-10.19,5.09-21.47,7.55-33.84,7.37-12.37-.18-24.2-2.37-35.48-6.55s-20.56-10.1-27.84-17.74Z" fill="#1a1626"></path><path class="cls-1" d="M101.53,126.64c12.74-9.46,24.29-14.74,34.66-15.83s18.29.45,23.74,4.64,7.55,9.46,6.28,15.83-7,12.46-17.19,18.29c-18.19,9.83-34.48,16.83-48.85,21.01-14.37,4.18-24.93,5.37-31.66,3.55s-7.91-6.73-3.55-14.74,16.56-18.92,36.57-32.75ZM410.47,126.64c19.65,14.19,31.75,25.2,36.3,33.02,4.55,7.82,3.46,12.65-3.28,14.46s-17.29.64-31.66-3.55c-14.37-4.18-30.66-11.19-48.85-21.01-10.19-5.46-15.92-11.46-17.19-18.01-1.27-6.55.82-11.83,6.28-15.83s13.37-5.55,23.74-4.64c10.37.91,21.92,6.1,34.66,15.56Z" fill="#d69600"></path></g></svg>