<svg xmlns="http://www.w3.org/2000/svg" data-name="Layer 1" style="" viewBox="0 0 512 512"><g class="nc-icon-wrapper"><defs><linearGradient id="1776867897940-339326_linear-gradient" x1="254.08" x2="254.08" y1="1020.16" y2="512" gradientTransform="translate(0 -512)" gradientUnits="userSpaceOnUse"><stop offset="0" stop-color="#ff9500"></stop><stop offset=".19" stop-color="#ffad00"></stop><stop offset=".54" stop-color="#ffd500"></stop><stop offset=".83" stop-color="#ffed00"></stop><stop offset="1" stop-color="#fff600"></stop></linearGradient><linearGradient id="1776867897940-339326_linear-gradient-2" x1="-241.76" x2="31.14" y1="443.36" y2="443.36" gradientTransform="rotate(-45 -124.221 -96.426)" gradientUnits="userSpaceOnUse"><stop offset="0" stop-color="#cfd7e6"></stop><stop offset=".04" stop-color="#dae0ec"></stop><stop offset=".13" stop-color="#eef1f6"></stop><stop offset=".22" stop-color="#fbfcfd"></stop><stop offset=".3" stop-color="#fff"></stop><stop offset=".7" stop-color="#fff"></stop><stop offset=".78" stop-color="#fbfcfd"></stop><stop offset=".87" stop-color="#eef1f6"></stop><stop offset=".96" stop-color="#dae0ec"></stop><stop offset="1" stop-color="#cfd7e6"></stop></linearGradient><linearGradient id="1776867897940-339326_linear-gradient-3" x1="-409.95" x2="-407.21" y1="1372.81" y2="1215.16" gradientTransform="rotate(-6.86 -3644.095 -4663.436) scale(.46)" gradientUnits="userSpaceOnUse"><stop offset="0" stop-color="#c4eeff" stop-opacity="0"></stop><stop offset=".05" stop-color="#c4eeff" stop-opacity="0"></stop><stop offset=".44" stop-color="#e4f7ff" stop-opacity=".41"></stop><stop offset=".78" stop-color="#f8fdff" stop-opacity=".76"></stop><stop offset="1" stop-color="#fff"></stop></linearGradient><linearGradient id="1776867897940-339326_linear-gradient-4" x1="1660.78" x2="1663.52" y1="-253.51" y2="-411.81" gradientTransform="scale(-.46 .46) rotate(83.16 -23.674 -814.091)" gradientUnits="userSpaceOnUse"><stop offset="0" stop-color="#c4eeff" stop-opacity="0"></stop><stop offset=".05" stop-color="#c4eeff" stop-opacity="0"></stop><stop offset=".44" stop-color="#e4f7ff" stop-opacity=".41"></stop><stop offset=".78" stop-color="#f8fdff" stop-opacity=".76"></stop><stop offset="1" stop-color="#fff"></stop></linearGradient><radialGradient id="1776867897940-339326_radial-gradient" cx="183.67" cy="932.8" r="104.25" fx="220.79" fy="879.86" gradientTransform="matrix(.34932 -.53626 .83888 .54431 -429.51 -278.53)" gradientUnits="userSpaceOnUse"><stop offset="0" stop-color="#73efff"></stop><stop offset=".19" stop-color="#6fecff"></stop><stop offset=".36" stop-color="#64e3ff"></stop><stop offset=".54" stop-color="#51d3ff"></stop><stop offset=".71" stop-color="#36bdff"></stop><stop offset=".87" stop-color="#14a1ff"></stop><stop offset=".96" stop-color="#0091ff"></stop><stop offset="1" stop-color="#0091ff"></stop></radialGradient><radialGradient id="1776867897940-339326_radial-gradient-2" cx="183.27" cy="932.36" r="104.25" fx="220.39" fy="878.87" gradientTransform="matrix(-.53626 .34932 .54431 .83888 -278.53 -429.51)" gradientUnits="userSpaceOnUse"><stop offset="0" stop-color="#73efff"></stop><stop offset=".19" stop-color="#6fecff"></stop><stop offset=".36" stop-color="#64e3ff"></stop><stop offset=".54" stop-color="#51d3ff"></stop><stop offset=".71" stop-color="#36bdff"></stop><stop offset=".87" stop-color="#14a1ff"></stop><stop offset=".96" stop-color="#0091ff"></stop><stop offset="1" stop-color="#0091ff"></stop></radialGradient></defs><path d="M254.35 0q52.395 0 98.52 19.92c46.125 19.92 57.67 31.57 80.78 54.85s41.3 50.22 54.58 80.78c13.28 30.57 19.92 63.31 19.92 98.25s-6.64 68.32-19.92 99.07-31.48 57.67-54.58 80.78c-23.11 23.11-50.03 41.3-80.78 54.58q-46.125 19.92-98.52 19.92c-52.395 0-68.32-6.64-99.07-19.92s-57.67-31.48-80.78-54.58c-23.11-23.11-41.3-50.03-54.58-80.78S0 289.1 0 253.8s6.64-67.68 19.92-98.25S51.4 98.06 74.5 74.77c23.11-23.29 50.03-41.57 80.78-54.85S219.05 0 254.35 0" fill="url(#1776867897940-339326_linear-gradient)"></path><path d="M341.14 158.83c6.55-4.37 13.28-6 20.2-4.91s12.55 4 16.92 8.73c14.56 16.37 24.2 35.21 28.93 56.49 4.73 21.29 3.18 43.57-4.64 66.86s-23.38 46.58-46.67 69.86c-23.29 23.29-46.58 38.84-69.86 46.67-23.29 7.82-45.58 9.37-66.86 4.64s-40.12-14.37-56.49-28.93q-7.095-6.555-8.73-16.92c-1.635-10.365.55-13.65 4.91-20.2 8.73-12.74 19.92-27.56 33.57-44.48s30.29-35.02 49.94-54.31c19.29-19.65 37.39-36.3 54.31-49.94s31.75-24.83 44.48-33.57Z" class="cls-6" fill="#1a1626"></path><path d="M280.87 382.73s.45-3.25 1.34-9.76 4.09-14.68 9.57-24.5 14.87-19.33 28.14-28.52q13.785-19.905 28.53-28.14c9.83-5.49 18-8.68 24.5-9.57s9.76-1.34 9.76-1.34-1.28 3.32-3.83 9.95c-2.55 6.64-6.7 14.74-12.44 24.31s-13.34 19.08-22.78 28.52-19.02 17.1-28.72 22.97-17.8 10.02-24.31 12.44-9.76 3.64-9.76 3.64" fill="#fd7383"></path><path d="M348.34 174.41c5.62-3.58 9.9-4.66 12.83-3.26s5.94 4.41 9 9c2.81 3.83 4.4 6.83 4.79 9s-1.21 5.04-4.79 8.62l-11.49 11.49c-6.13 6.13-13.35 13.34-21.65 21.64l-24.71 24.71-20.3 20.3-8.05 8.04-8.05 8.04-20.3 20.3L230.91 337c-8.3 8.3-15.52 15.51-21.65 21.64l-11.49 11.49c-3.58 3.58-6.45 5.17-8.62 4.79s-5.17-1.98-9-4.79q-6.9-4.605-9-9c-2.1-4.395-.32-7.21 3.26-12.83 6.39-8.94 16.28-21.9 29.69-38.88s30.07-35.43 50-55.35c19.92-19.92 38.37-36.58 55.36-49.99s29.95-23.3 38.89-29.69Z" fill="url(#1776867897940-339326_linear-gradient-2)"></path><path d="M319.85 121.72c-9.82 2.91-21.65 7.1-35.48 12.55s-27.47 11.19-40.94 17.19-24.74 11.37-33.84 16.1c-2.55 1.46-4.64 1.46-6.28 0s-1.91-3.64-.82-6.55c6.55-18.19 12.83-36.3 18.83-54.31s12.1-37.57 18.28-58.68c1.09-3.64 3.82-5 8.19-4.09s6.55 3.37 6.55 7.37c.36 11.28-.55 23.02-2.73 35.21s-4.18 23.2-6 33.02c10.19-3.27 22.11-6.19 35.75-8.73 13.65-2.55 26.11-4 37.39-4.37 4.37-.36 6.55 1.73 6.55 6.28s-1.82 7.55-5.46 9.01ZM106.43 318.76c.36-11.28 1.82-23.74 4.37-37.39s5.46-25.56 8.73-35.75c-9.82 1.82-20.83 3.82-33.02 6s-23.92 3.09-35.21 2.73c-4 0-6.46-2.18-7.37-6.55s.45-7.1 4.09-8.19c21.1-6.19 40.66-12.28 58.68-18.28 18.01-6 36.11-12.28 54.31-18.83 2.91-1.09 5.09-.82 6.55.82s1.64 3.73.55 6.28q-7.635 13.65-16.65 33.84c-9.015 20.19-11.74 27.11-17.19 40.94s-9.64 25.65-12.55 35.48c-1.46 3.64-4.46 5.46-9.01 5.46s-6.64-2.18-6.28-6.55Z" class="cls-6" fill="#1a1626"></path><path d="M459.58 101.52c19.29 6.55 32.93 15.1 40.94 25.65s11.83 21.47 11.46 32.75c-.36 11.28-3.73 21.47-10.1 30.57s-14.56 15.56-24.56 19.38-20.74 3.55-32.2-.82-22.29-14.37-32.48-30.02c-7.28-11.28-14.01-20.38-20.2-27.29s-12.55-12.55-19.1-16.92-14.37-8.19-23.47-11.46q-6.555-2.19-2.73-6c1.09-1.46 5.46-3.73 13.1-6.82s17.1-6.09 28.38-9.01 23.2-4.64 35.75-5.19 24.29 1.18 35.21 5.19Z" fill="url(#1776867897940-339326_radial-gradient)"></path><path d="M442.9 106.95c10.39 2.93 18.07 6.91 23.02 11.92s7.73 10.37 8.33 16.07-.4 11.26-3.01 16.68-6.36 10.09-11.24 14.03q-7.32 5.895-16.65 7.65c-9.33 1.755-12.49.46-18.83-2.13-6.33-2.58-12.22-7.73-17.67-15.44-5.02-6.93-9.91-12.53-14.7-16.81s-9.84-7.77-15.19-10.47-11.49-5.14-18.45-7.32c-3.15-1.13-3.81-2.47-1.99-4.03.91-.78 3.37-1.87 7.39-3.27s9.11-2.85 15.29-4.35 12.93-2.77 20.25-3.82 14.75-1.52 22.29-1.43 14.59 1.01 21.16 2.73Z" fill="url(#1776867897940-339326_linear-gradient-3)"></path><path d="M101.52 459.58c-4-10.92-5.73-22.65-5.19-35.21s2.27-24.47 5.19-35.75 5.91-20.74 9.01-28.38 5.37-12.01 6.82-13.1q3.825-3.825 6 2.73c3.27 9.1 7.1 16.92 11.46 23.47s10.01 12.92 16.92 19.1 16.01 12.92 27.29 20.2c15.65 10.19 25.65 21.01 30.02 32.48s4.64 22.2.82 32.2c-3.82 10.01-10.28 18.19-19.38 24.56s-19.29 9.73-30.57 10.1c-11.28.36-22.2-3.46-32.75-11.46-10.55-8.01-19.1-21.65-25.65-40.94Z" fill="url(#1776867897940-339326_radial-gradient-2)"></path><path d="M106.97 442.9c2.94 10.39 6.92 18.07 11.93 23.02s10.38 7.73 16.08 8.33c5.71.6 11.27-.4 16.69-3.01s10.1-6.36 14.03-11.24q5.91-7.32 7.65-16.65c1.74-9.33.45-12.49-2.14-18.83-2.59-6.33-7.74-12.22-15.46-17.67-6.93-5.02-12.54-9.91-16.83-14.7-4.28-4.78-7.78-9.84-10.49-15.19s-5.15-11.49-7.33-18.45c-1.13-3.15-2.47-3.81-4.03-1.99-.78.91-1.87 3.37-3.27 7.39s-2.85 9.11-4.35 15.29-2.77 12.93-3.81 20.25-1.52 14.75-1.42 22.29 1.01 14.59 2.74 21.16Z" fill="url(#1776867897940-339326_linear-gradient-4)"></path></g></svg>