<svg data-name="Layer 1" xmlns="http://www.w3.org/2000/svg" style="" viewBox="0 0 383.92 512"><g class="nc-icon-wrapper"><defs><radialGradient id="1777685730276-36207_radial-gradient" cx="-677.56" cy="-252.38" fx="-677.56" fy="-252.38" r="9.21" gradientTransform="matrix(-.84006 1.45512 -2.1813 -1.25929 -1028.227 862.454)" gradientUnits="userSpaceOnUse"><stop offset="0" stop-color="#f0a429" stop-opacity=".8"></stop><stop offset=".51" stop-color="#f0a429" stop-opacity=".8"></stop><stop offset="1" stop-color="#f0a429" stop-opacity="0"></stop></radialGradient><radialGradient id="1777685730276-36207_radial-gradient-2" cx="1039.81" cy="-21.57" fx="1039.81" fy="-21.57" r="33.79" gradientTransform="matrix(.23 .39837 .59756 -.345 66.14 -232.25)" gradientUnits="userSpaceOnUse"><stop offset="0" stop-color="#f0a429" stop-opacity=".8"></stop><stop offset=".51" stop-color="#f0a429" stop-opacity=".8"></stop><stop offset="1" stop-color="#f0a429" stop-opacity="0"></stop></radialGradient></defs><path class="cls-11" d="M350.65,340c8.19,3.41,14.76,10.92,19.71,22.52,4.95,11.6,8.45,24.74,10.49,39.42,2.05,14.67,3.07,28.5,3.07,41.46,0,3.07-2.47,7.17-7.42,12.29s-11.86,10.07-20.73,14.85c-8.87,4.78-19.11,7.85-30.71,9.21v17.4c0,1.71-4.27,3.41-12.8,5.12s-19.45,3.24-32.76,4.61-27.22,2.56-41.72,3.58-27.56,1.54-39.16,1.54c-24.57,0-48.63-.51-72.18-1.54s-44.88-2.73-63.99-5.12c-19.11-2.39-34.3-5.37-45.56-8.96-11.26-3.58-16.89-7.93-16.89-13.05,0-22.86,1.02-44.62,3.07-65.27s5.55-37.97,10.49-51.96c4.95-13.99,11.52-22.69,19.71-26.11l100.84-35.83,115.69-.51,100.84,36.35h.01Z" fill="#ff6500"></path><path class="cls-15" d="M120.55,309.03c0,9.9,3.41,18.26,10.24,25.08,6.83,6.83,15.7,11.86,26.62,15.1,10.92,3.24,22.44,4.86,34.55,4.86s23.63-1.71,34.55-5.12,19.79-8.45,26.62-15.1,10.24-14.93,10.24-24.83l-13.82-5.12h-115.18l-13.82,5.12h0Z" fill="#e35a00"></path><path class="cls-3" d="M132.84,307.5c0,8.53,3.92,15.36,11.77,20.48s17.75,8.53,29.69,10.24,23.8,1.71,35.58,0c11.77-1.71,21.59-5.12,29.43-10.24s11.77-11.94,11.77-20.48v-45.05h-118.25v45.05h0Z" fill="#ffc940"></path><path class="cls-15" d="M63.99,505.35l-5.12-.51c0-48.46.85-72.6,2.56-72.43s2.56,24.49,2.56,72.95h0Z" fill="#e35a00"></path><path class="cls-13" d="M132.58,296.49h118.76s-1.88,1.71-5.63,5.12-8.7,7.34-14.85,11.77c-6.14,4.44-12.63,8.36-19.45,11.77-6.83,3.41-13.31,5.12-19.45,5.12s-12.63-1.71-19.45-5.12c-6.83-3.41-13.31-7.34-19.45-11.77-6.14-4.44-11.09-8.36-14.85-11.77-3.75-3.41-5.63-5.12-5.63-5.12h0Z" fill="#f0a429"></path><path class="cls-8" d="M70.64,186.94l57.33,48.63s-.09,2.13-.26,6.4-1.19,9.38-3.07,15.36-5.12,11.6-9.73,16.89-11.35,9.13-20.22,11.52c-.34-4.44-.6-9.13-.77-14.08s-.26-7.42-.26-7.42c0,0-1.71.94-5.12,2.82s-8.19,2.3-14.33,1.28c3.41-6.14,5.46-12.46,6.14-18.94s1.02-9.73,1.02-9.73l-3.33,3.33c-2.22,2.22-6.57,3.67-13.05,4.35,3.07-8.19,4.95-16.98,5.63-26.36s.85-17.4.51-24.06-.51-9.98-.51-9.98h.02ZM318.91,247.35c-6.48-.68-10.84-2.13-13.05-4.35s-3.33-3.33-3.33-3.33c0,0,.34,3.33,1.02,9.98s2.73,12.88,6.14,18.68c-6.14,1.02-10.92.6-14.33-1.28s-5.12-2.82-5.12-2.82c0,0-.09,2.47-.26,7.42s-.43,9.64-.77,14.08c-8.87-2.39-15.61-6.23-20.22-11.52s-7.85-10.92-9.73-16.89c-1.88-5.97-2.9-11.09-3.07-15.36s-.26-6.4-.26-6.4l57.33-48.63s-.17,3.33-.51,9.98-.17,14.67.51,24.06,2.56,18.17,5.63,26.36l.02.02Z" fill="#e68c00"></path><path class="cls-3" d="M191.96,22.02c40.39,0,70.26,14.61,89.59,43.83,19.33,29.22,27.71,64.89,25.13,107-.86,17.19-4.73,37.81-11.6,61.88-4.3,14.61-12.25,28.57-23.85,41.9-11.6,13.32-24.49,24.28-38.68,32.87s-27.72,12.89-40.61,12.89-26.43-4.3-40.61-12.89-27.07-19.55-38.67-32.87-19.55-27.29-23.85-41.9c-6.87-24.06-10.74-44.69-11.6-61.88-2.58-42.11,5.8-77.78,25.14-107s49.2-43.83,89.6-43.83h.01Z" fill="#ffc940"></path><path class="cls-5" d="M274.38,148.04c2.05,2.39,2.82,4.35,2.3,5.89s-1.62,1.79-3.33.77c-8.87-5.12-17.66-7.85-26.36-8.19s-16.12.51-22.27,2.56c-3.41,1.37-5.8.77-7.17-1.79s-1.02-4.69,1.02-6.4c3.07-2.73,8.11-4.69,15.1-5.89s14.25-.94,21.76.77,13.82,5.8,18.94,12.29h.01ZM109.55,148.04c-2.05,2.39-2.82,4.35-2.3,5.89s1.62,1.79,3.33.77c8.87-5.12,17.66-7.85,26.36-8.19s16.12.51,22.27,2.56c3.41,1.37,5.8.77,7.17-1.79s1.02-4.69-1.02-6.4c-3.07-2.73-8.11-4.69-15.1-5.89s-14.25-.94-21.76.77-13.82,5.8-18.94,12.29h0Z" fill="#d48100"></path><path class="cls-13" d="M207.44,222.67c1.85.13,2.89.86,3.13,2.19s-.46,2.59-2.07,3.79-4.23,2.57-7.83,4.12-6.56,2.3-8.85,2.25-5.18-.91-8.67-2.58-6.02-3.05-7.58-4.14c-2.01-1.02-2.88-2.12-2.64-3.3s1.26-1.93,3.03-2.25c2.29.05,4.66.55,7.11,1.49s5.52,1.54,9.22,1.8c3.18-.1,5.95-.59,8.3-1.46s4.64-1.5,6.86-1.89v-.02Z" fill="#f0a429"></path><path class="cls-3" d="M82.36,158.67c1.72,6.02,4.3,14.18,7.74,24.5s4.73,19.77,3.87,28.36c0,5.16-3.01,8.81-9.02,10.96s-10.31-2.36-12.89-13.54c-1.72-4.3-4.51-10.53-8.38-18.69s-5.37-18.26-4.51-30.3c.86-12.03,4.51-15.9,10.96-11.6s10.53,7.73,12.25,10.31h-.02Z" fill="#ffc940"></path><path class="cls-4" d="M66.91,156.08c3.44,1.72,5.37,4.08,5.8,7.09s2.36,7.09,5.8,12.25c3.44,4.3,3.65,7.95.64,10.96s-2.79,6.66.64,10.96c5.16,5.16,5.37,6.45.64,3.87s-8.38-6.45-10.96-11.61c-2.58-6.02-4.51-13.54-5.8-22.56s-.21-12.68,3.23-10.96h0Z" fill="url(#1777685730276-36207_radial-gradient)"></path><path class="cls-6" d="M66.91,156.08c3.44,1.72,5.37,4.08,5.8,7.09s2.36,7.09,5.8,12.25c3.44,4.3,3.65,7.95.64,10.96s-2.79,6.66.64,10.96c5.16,5.16,5.37,6.45.64,3.87s-8.38-6.45-10.96-11.61c-2.58-6.02-4.51-13.54-5.8-22.56s-.21-12.68,3.23-10.96h0Z" fill="#f6b233"></path><path class="cls-12" d="M66.46,155.87c3.32,1.66,5.34,4.03,6.05,7.12s2.73,7.12,6.05,12.1c-3.32-4.51-5.99-8.24-8-11.21s-3.5-4.45-4.45-4.45-1.66,2.37-2.13,7.12c-.47-3.32-.59-6.11-.36-8.36s1.19-3.02,2.85-2.31h-.01Z" fill="#f2a92c"></path><path class="cls-3" d="M324.71,159.97c.86,12.03-.65,22.13-4.51,30.3s-6.66,14.4-8.38,18.69c-2.58,11.17-6.88,15.69-12.89,13.54s-9.02-5.8-9.02-10.96c-.86-8.6.43-18.05,3.87-28.36s6.02-18.48,7.74-24.5c1.72-2.58,5.8-6.02,12.25-10.31s10.1-.43,10.96,11.6h-.02Z" fill="#ffc940"></path><path class="cls-2" d="M313.94,189.7c-1.42,3.56-3.56,6.58-6.4,9.07s-4.92,3.73-6.22,3.73-.3-1.9,3.02-5.69c2.13-2.37,2.79-4.56,1.96-6.58s-1.72-4.21-2.66-6.58-.35-5.33,1.78-8.89c3.32-4.74,5.34-8.71,6.05-11.91s2.73-5.51,6.05-6.93c2.13-.95,3.2.59,3.2,4.62s-.65,8.89-1.96,14.58-2.91,10.55-4.8,14.58h-.02Z" fill="url(#1777685730276-36207_radial-gradient-2)"></path><path class="cls-6" d="M313.94,189.7c-1.42,3.56-3.56,6.58-6.4,9.07s-4.92,3.73-6.22,3.73-.3-1.9,3.02-5.69c2.13-2.37,2.79-4.56,1.96-6.58s-1.72-4.21-2.66-6.58-.35-5.33,1.78-8.89c3.32-4.74,5.34-8.71,6.05-11.91s2.73-5.51,6.05-6.93c2.13-.95,3.2.59,3.2,4.62s-.65,8.89-1.96,14.58-2.91,10.55-4.8,14.58h-.02Z" fill="#f6b233"></path><path class="cls-12" d="M319.99,166.58c-.24-4.74-.89-7.11-1.96-7.11s-2.61,1.48-4.62,4.45-4.68,6.7-8,11.2c3.32-4.98,5.33-9.01,6.05-12.09s2.73-5.45,6.05-7.11c1.66-.71,2.61.06,2.85,2.31s.12,5.04-.36,8.36h-.01Z" fill="#f2a92c"></path><path class="cls-8" d="M117.18,95.53c-2.58-15.47,1.94-26,13.54-31.58,11.6-5.58,26.86-6.87,45.76-3.86s38.24,9.67,58,19.98,36.31,23.85,49.62,40.61c13.32,16.76,19.55,36.31,18.69,58.65-6.87-14.61-15.04-25.35-24.49-32.23-9.45-6.88-20.19-12.89-32.22-18.05-17.19,2.58-39.32,1.93-66.38-1.94-27.07-3.87-47.91-14.4-62.51-31.59h-.01Z" fill="#e68c00"></path><path class="cls-8" d="M59.89,125c-.68-12.29.94-24.4,4.86-36.35,3.92-11.94,9.3-22.27,16.12-30.97s14.67-13.91,23.55-15.61c8.19,18.09,12.8,33.02,13.82,44.79s.09,21.93-2.82,30.46-6.57,16.89-11.01,25.08-8.28,17.58-11.52,28.15c-3.24,10.58-4.35,23.89-3.33,39.93-3.75-4.1-6.91-8.96-9.47-14.59s-4.52-10.58-5.89-14.85-2.05-6.4-2.05-6.4l-3.07,4.1c-4.78-17.4-6.57-31.99-5.37-43.77,1.19-11.77,1.79-17.66,1.79-17.66,0,0-.77.68-2.3,2.05s-2.64,3.24-3.33,5.63h.02Z" fill="#e68c00"></path><path class="cls-7" d="M70.13,174.66c-4.1-17.06-5.63-31.65-4.61-43.77s1.54-18.17,1.54-18.17l-3.07,3.84c-2.05,2.56-3.41,5.37-4.1,8.45,0-17.06,1.79-30.88,5.37-41.46s8.45-19.03,14.59-25.34,12.63-11.52,19.45-15.61c8.87,12.29,14.25,23.46,16.12,33.53s1.45,19.54-1.28,28.41-6.4,17.58-11.01,26.11-9.13,17.32-13.57,26.36-7.51,18.86-9.21,29.43c-2.05-2.73-3.67-6.74-4.86-12.03s-1.79-7.93-1.79-7.93c0,0-.43.6-1.28,1.79s-1.62,3.33-2.3,6.4h0Z" fill="#f9a307"></path><path class="cls-14" d="M64.22,107.64c.31-11.23,2.89-23,7.72-35.32s13.96-22.22,27.37-29.71c4.99,15.91,6.47,31.27,4.44,46.09s-5.77,28.7-11.23,41.64c-5.46,12.94-10.68,24.25-15.67,33.92-4.05-22.77-5.54-39.93-4.44-51.47,1.09-11.54,1.64-17.31,1.64-17.31l-3.98,3.98c-2.65,2.65-4.6,5.38-5.85,8.19h0Z" fill="#ffb80d"></path><path class="cls-8" d="M173.22,4.12c41.83-2.67,75.87,5.56,102.12,24.69s42.05,42.71,47.39,70.75c5.34,28.03-1.33,54.95-20.02,80.76-4.45-16.02-11.79-27.59-22.03-34.71s-21.58-13.35-34.04-18.69c-16.91,1.78-37.15,1.34-60.74-1.33s-44.05-10.68-61.41-24.02c-17.35-13.35-25.59-33.82-24.7-61.4,2.67-5.34,9.12-12.24,19.35-20.69,10.23-8.45,28.25-13.57,54.06-15.36h.02Z" fill="#e68c00"></path><path class="cls-7" d="M173.19.1c32.93-.89,62.08,5.11,87.44,18.01,25.37,12.9,43.39,31.14,54.07,54.73,10.68,23.58,10.69,50.95,0,82.1,0-20.47-5.34-38.71-16.03-54.73l-16.02-24.03s2.23,4.89,6.68,14.68c4.45,9.79,8.68,21.58,12.69,35.38,4.01,13.79,5.57,26.48,4.68,38.05-8.9-14.24-21.36-26.03-37.38-35.37-16.02-9.34-30.48-16.02-43.39-20.02s-19.36-6.01-19.36-6.01c0,0,4.23,2.22,12.68,6.67,8.46,4.45,14.46,8.45,18.02,12.01-35.6,1.78-67.86-4.44-96.79-18.68s-42.5-35.15-40.72-62.74c1.78-3.56,8.68-10.9,20.69-22.03C132.48,7,150.05.99,173.19.1Z" fill="#f9a307"></path><path class="cls-14" d="M173.38.54c24.77-1.72,47.13.69,67.08,7.22,19.95,6.54,36.55,16.25,49.79,29.15,13.24,12.9,22.27,28.12,27.09,45.67-5.85-10.66-11.35-19.01-16.51-25.03s-7.74-9.03-7.74-9.03c0,0,1.2,2.41,3.61,7.22s4.9,11.18,7.48,19.09c2.58,7.91,4.21,16.34,4.9,25.28-4.82-11.01-10.66-20.81-17.54-29.41s-13.76-15.74-20.64-21.41c-6.88-5.68-12.56-10.06-17.03-13.16s-6.71-4.64-6.71-4.64c0,0,3.1,3.44,9.29,10.32,6.19,6.88,12.81,16.51,19.87,28.9,7.05,12.38,11.95,27,14.71,43.86-4.82-4.82-10.32-9.8-16.51-14.96s-11.52-9.46-16-12.9-6.71-5.16-6.71-5.16l7.74,7.74c5.16,5.16,11.52,12.38,19.09,21.67s14.96,20.3,22.19,33.02c0,0-2.84-2.75-8.51-8.26s-13.93-12.21-24.77-20.12c-10.84-7.91-24.25-15.31-40.25-22.19-16-6.88-34.31-11.52-54.95-13.93,5.5,6.88,11.87,12.9,19.09,18.06s13.5,9.12,18.83,11.87,8,4.13,8,4.13c-23.05,0-44.2-3.44-63.47-10.32-19.26-6.88-34.06-15.82-44.38-26.83s-13.93-23.05-10.84-36.12c1.03-4.47,4.21-9.55,9.55-15.22s13.24-10.92,23.74-15.74c10.5-4.82,24-7.74,40.51-8.77Z" fill="#ffb80d"></path><path class="cls-10" d="M223.78,180.67c-1.25,0-2.11.31-2.57.94s-.39.94.23.94c4.05.31,6.86,1.17,8.42,2.57s3.59,2.73,6.08,3.98,7.02,1.87,13.57,1.87c3.12,0,6.86-.78,11.23-2.34s8.27-5.15,11.7-10.76c.31-.62.08-1.01-.7-1.17s-1.79.08-3.04.7c-6.86,4.37-13.02,6.63-18.48,6.78s-10.45-.39-14.97-1.64-8.34-1.87-11.46-1.87h0ZM160.15,180.67c1.25,0,2.11.31,2.57.94s.39.94-.23.94c-4.05.31-6.86,1.17-8.42,2.57s-3.59,2.73-6.08,3.98-7.02,1.87-13.57,1.87c-3.12,0-6.86-.78-11.23-2.34s-8.27-5.15-11.7-10.76c-.31-.62-.08-1.01.7-1.17s1.79.08,3.04.7c6.86,4.37,13.02,6.63,18.48,6.78s10.45-.39,14.97-1.64,8.34-1.87,11.46-1.87h0Z" fill="#45332c"></path><path class="cls-1" d="M158.28,270.42c-1.56.94-2.5,1.09-2.81.47s-.16-1.4.47-2.34c4.99-8.42,12.24-14.04,21.76-16.84s19.03-2.81,28.54,0,16.77,8.42,21.76,16.84c.62.94.78,1.72.47,2.34s-1.25.47-2.81-.47c-10.29-6.24-21.52-9.36-33.69-9.36s-23.39,3.12-33.69,9.36h0Z" fill="#c1873c"></path><path class="cls-9" d="M310.72,174.14c-3.41,6.14-5.55,11.94-6.4,17.4s-1.71,11.35-2.56,17.66-2.82,13.48-5.89,21.5-8.53,17.66-16.38,28.92c-1.37,1.71-2.64,3.33-3.84,4.86s-1.96,2.47-2.3,2.82c-2.39,6.14-2.39,13.05,0,20.73,2.39,7.68,7.17,15.19,14.33,22.52,7.17,7.34,17.06,13.22,29.69,17.66,7.17,6.83,15.02,14.85,23.55,24.06s16.64,19.71,24.32,31.48,13.57,24.66,17.66,38.65c2.05,17.4.85,30.54-3.58,39.42-4.44,8.87-10.58,14.93-18.43,18.17-7.85,3.24-16.3,4.86-25.34,4.86h-24.83c-12.63-8.53-23.8-17.4-33.53-26.62-9.73-9.21-18.77-19.88-27.13-31.99-8.36-12.12-16.72-26.7-25.08-43.77-8.36-17.06-17.32-37.71-26.87-61.94-.34-.68-1.02-2.9-2.05-6.65s-1.02-7.17,0-10.24c.68-1.71.17-3.41-1.54-5.12s-2.9-2.73-3.58-3.07c-4.44-.68-8.11-4.1-11.01-10.24s-5.2-13.39-6.91-21.76-3.16-16.47-4.35-24.32-2.47-13.82-3.84-17.92c-1.37-4.44-3.92-9.81-7.68-16.12s-9.38-15.61-16.89-27.9c-2.73-5.12-3.41-9.81-2.05-14.08s3.75-7.08,7.17-8.45,6.65-.68,9.73,2.05c1.37,1.37,3.84,4.1,7.42,8.19s7,7.85,10.24,11.26c3.24,3.41,4.86,5.12,4.86,5.12,0,0-.17-1.19-.51-3.58s-1.96-7.42-4.86-15.1-8.28-19.37-16.12-35.07c-2.05-3.75-1.79-7.34.77-10.75s5.8-5.63,9.73-6.65,6.91.17,8.96,3.58c4.44,8.19,8.62,15.27,12.54,21.24s5.89,8.96,5.89,8.96c0,0-1.37-4.1-4.1-12.29s-5.29-16.72-7.68-25.6c-1.37-4.1-.6-7.59,2.3-10.49s6.31-4.61,10.24-5.12c3.92-.51,6.91.77,8.96,3.84,3.41,5.46,6.83,11.52,10.24,18.17s6.31,12.46,8.7,17.4,3.58,7.42,3.58,7.42c0,0-.68-2.56-2.05-7.68s-3.24-11.26-5.63-18.43c-1.37-4.78-.68-8.45,2.05-11.01s6.14-3.75,10.24-3.58,7,1.79,8.7,4.86c5.8,9.56,10.07,17.06,12.8,22.52s4.78,10.58,6.14,15.36,3.41,10.75,6.14,17.92,5.03,13.99,6.91,20.48c1.88,6.48,3.16,11.6,3.84,15.36,2.39-2.39,4.35-6.23,5.89-11.52,1.54-5.29,4.86-9.64,9.98-13.05,5.8-3.75,10.92-4.44,15.36-2.05s5.8,4.95,4.1,7.68l-.02.04Z" opacity=".25"></path><path class="cls-11" d="M202.2,306.73c-1.02-2.73.68-6.14,5.12-10.24s10.32-8.28,17.66-12.54,14.93-8.02,22.78-11.26c7.85-3.24,14.67-5.12,20.48-5.63s9.38.94,10.75,4.35c4.78,13.99,12.29,27.39,22.52,40.18,10.24,12.8,21.07,25.68,32.51,38.65,11.43,12.97,21.76,26.45,30.97,40.44s15.19,29.18,17.92,45.56c2.05,11.94.26,21.93-5.37,29.95-5.63,8.02-12.97,14.08-22.01,18.17s-17.92,6.23-26.62,6.4-15.27-1.45-19.71-4.86c-13.99-10.58-26.79-23.72-38.39-39.42-11.6-15.7-22.95-34.89-34.04-57.59-11.09-22.69-22.61-50.08-34.55-82.16h-.02Z" fill="#ff6500"></path><path class="cls-3" d="M292.3,172.61c5.12-4.1,9.73-4.86,13.82-2.3s5.29,5.37,3.58,8.45c-3.75,7.17-6.06,13.74-6.91,19.71s-1.88,12.12-3.07,18.43-3.75,13.48-7.68,21.5c-3.92,8.02-10.66,17.66-20.22,28.92-2.39,2.39-2.73,5.29-1.02,8.7,1.02,2.39-1.11,5.63-6.4,9.73s-11.94,8.02-19.96,11.77c-8.02,3.75-15.36,6.4-22.01,7.93-6.65,1.54-10.49,1.11-11.52-1.28-1.37-2.39-3.67-4.78-6.91-7.17s-5.37-3.75-6.4-4.1c-5.46-2.39-9.56-6.48-12.29-12.29s-4.69-12.54-5.89-20.22-2.13-15.02-2.82-22.01-1.71-12.71-3.07-17.15-4.95-11.01-10.75-19.71-12.46-19.2-19.96-31.48c-3.41-5.46-3.16-9.64.77-12.54s7.59-2.3,11.01,1.79c7.85,9.9,15.1,18.77,21.76,26.62s10.32,11.6,11.01,11.26c1.02-6.83-1.54-15.78-7.68-26.87s-12.97-25.51-20.48-43.26c-2.05-4.1-2.05-7.68,0-10.75s4.69-4.86,7.93-5.37,5.89,1.11,7.93,4.86c4.1,8.19,8.87,16.72,14.33,25.6s12.12,20.31,19.96,34.3c-3.41-13.99-6.65-25-9.73-33.02-3.07-8.02-5.89-14.76-8.45-20.22s-4.86-11.09-6.91-16.89c-1.37-4.1-.85-7.42,1.54-9.98s5.29-4.01,8.7-4.35,6.14,1.02,8.19,4.1c4.44,8.53,9.81,19.54,16.12,33.02,6.31,13.48,13.22,28.92,20.73,46.33-1.71-10.24-3.58-19.37-5.63-27.39s-5.97-19.54-11.77-34.55c-2.05-4.78-2.05-8.45,0-11.01s4.69-3.84,7.93-3.84,5.72,1.71,7.42,5.12c5.46,9.9,9.47,17.66,12.03,23.29s4.61,10.92,6.14,15.87,3.5,11.18,5.89,18.68c2.39,7.51,4.61,14.59,6.65,21.24,2.05,6.65,3.92,16.47,5.63,29.43,2.73-2.39,4.35-5.72,4.86-9.98s1.54-9.04,3.07-14.33,5.03-10.15,10.49-14.59h.04Z" fill="#ffc940"></path></g></svg>