<svg data-name="Layer 1" xmlns="http://www.w3.org/2000/svg" style="" viewBox="0 0 512 512"><g class="nc-icon-wrapper"><defs><linearGradient id="1776867897903-5862276_linear-gradient" x1="256" y1="1591.45" x2="256" y2="1080" gradientTransform="translate(0 -1080)" gradientUnits="userSpaceOnUse"><stop offset="0" stop-color="#ff9500"></stop><stop offset=".19" stop-color="#ffad00"></stop><stop offset=".54" stop-color="#ffd500"></stop><stop offset=".83" stop-color="#ffed00"></stop><stop offset="1" stop-color="#fff600"></stop></linearGradient><radialGradient id="1776867897903-5862276_radial-gradient" cx="719.94" cy="915" fx="719.94" fy="880.61" r="48.03" gradientTransform="matrix(1.3 0 0 1.85 -807.23 -1298.99)" gradientUnits="userSpaceOnUse"><stop offset="0" stop-color="#73efff"></stop><stop offset=".19" stop-color="#6fecff"></stop><stop offset=".36" stop-color="#64e3ff"></stop><stop offset=".54" stop-color="#51d3ff"></stop><stop offset=".71" stop-color="#36bdff"></stop><stop offset=".87" stop-color="#14a1ff"></stop><stop offset=".96" stop-color="#0091ff"></stop><stop offset="1" stop-color="#0091ff"></stop></radialGradient><linearGradient id="1776867897903-5862276_linear-gradient-2" x1="92.38" y1="1507.05" x2="161" y2="1452.81" gradientTransform="translate(0 -1080)" gradientUnits="userSpaceOnUse"><stop offset="0" stop-color="#c4eeff" stop-opacity="0"></stop><stop offset=".05" stop-color="#c4eeff" stop-opacity="0"></stop><stop offset=".44" stop-color="#e4f7ff" stop-opacity=".41"></stop><stop offset=".78" stop-color="#f8fdff" stop-opacity=".76"></stop><stop offset="1" stop-color="#fff"></stop></linearGradient></defs><path class="cls-5" d="M512,256c0,35.3-6.64,68.41-19.92,99.34-13.28,30.93-31.66,58.13-55.13,81.6s-50.67,41.85-81.6,55.13c-30.93,13.28-64.05,19.92-99.34,19.92s-68.41-6.64-99.34-19.92c-30.93-13.28-58.13-31.66-81.6-55.13s-41.85-50.67-55.13-81.6C6.64,324.41,0,291.3,0,256s6.64-68.41,19.92-99.34c13.28-30.93,31.66-58.13,55.13-81.6s50.67-41.85,81.6-55.13C187.59,6.64,220.7,0,256,0s68.41,6.64,99.34,19.92c30.93,13.28,58.13,31.66,81.6,55.13s41.85,50.67,55.13,81.6c13.28,30.93,19.92,64.05,19.92,99.34Z" fill="url(#1776867897903-5862276_linear-gradient)"></path><path class="cls-6" d="M409.54,247.48c0,8.24-1.55,15.96-4.65,23.18-3.1,7.22-7.39,13.56-12.86,19.04-5.48,5.48-11.82,9.76-19.04,12.86-7.22,3.1-14.94,4.65-23.18,4.65s-15.96-1.55-23.18-4.65c-7.22-3.1-13.56-7.39-19.04-12.86-5.48-5.48-9.76-11.82-12.86-19.04-3.1-7.22-4.65-14.94-4.65-23.18s1.55-15.96,4.65-23.18c3.1-7.22,7.39-13.56,12.86-19.04s11.82-9.76,19.04-12.86,14.94-4.65,23.18-4.65,15.96,1.55,23.18,4.65,13.56,7.39,19.04,12.86,9.76,11.82,12.86,19.04c3.1,7.22,4.65,14.94,4.65,23.18Z" fill="#fff"></path><path class="cls-3" d="M349.88,207.42c10.92,0,20.29,3.91,28.11,11.74s11.74,17.19,11.74,28.11-3.91,20.74-11.74,28.38-17.19,11.46-28.11,11.46c-15.65.36-27.29-6.19-34.93-19.65-8.01-13.46-8.01-26.75,0-39.85,7.64-13.46,19.29-20.2,34.93-20.2Z" fill="#1a1626"></path><path class="cls-6" d="M360.14,255.55c3.43,0,6.56.97,9.38,2.89s5.08,4.51,6.75,7.78,2.52,6.88,2.51,10.85-.85,7.59-2.53,10.85-3.94,5.87-6.77,7.81-5.96,2.92-9.39,2.92-6.56-.98-9.38-2.94-5.08-4.56-6.75-7.83-2.52-6.88-2.51-10.85.85-7.57,2.53-10.8,3.94-5.82,6.77-7.76,5.96-2.92,9.39-2.92Z" fill="#fff"></path><path class="cls-6" d="M346.06,247.27c0,3.64-1.09,6.64-3.28,9.01s-4.73,3.55-7.64,3.55-5.46-1.18-7.64-3.55-3.28-5.37-3.28-9.01c0-3.28,1.09-6.19,3.28-8.73s4.73-3.82,7.64-3.82,5.46,1.27,7.64,3.82,3.28,5.46,3.28,8.73Z" fill="#fff"></path><path class="cls-6" d="M221.9,247.48c0,8.24-1.55,15.96-4.65,23.18-3.1,7.22-7.39,13.56-12.86,19.04s-11.82,9.76-19.04,12.86c-7.22,3.1-14.94,4.65-23.18,4.65s-15.96-1.55-23.18-4.65c-7.22-3.1-13.56-7.39-19.04-12.86s-9.76-11.82-12.86-19.04c-3.1-7.22-4.65-14.94-4.65-23.18s1.55-15.96,4.65-23.18c3.1-7.22,7.39-13.56,12.86-19.04s11.82-9.76,19.04-12.86,14.94-4.65,23.18-4.65,15.96,1.55,23.18,4.65,13.56,7.39,19.04,12.86,9.76,11.82,12.86,19.04c3.1,7.22,4.65,14.94,4.65,23.18Z" fill="#fff"></path><path class="cls-3" d="M162.66,207.42c10.92,0,20.29,3.91,28.11,11.74s11.74,17.19,11.74,28.11-3.91,20.74-11.74,28.38-17.19,11.46-28.11,11.46c-15.65.36-27.29-6.19-34.93-19.65-8.01-13.46-8.01-26.75,0-39.85,7.64-13.46,19.29-20.2,34.93-20.2Z" fill="#1a1626"></path><path class="cls-6" d="M172.5,255.55c3.43,0,6.56.97,9.38,2.89s5.08,4.51,6.75,7.78,2.52,6.88,2.51,10.85-.85,7.59-2.53,10.85-3.94,5.87-6.77,7.81-5.96,2.92-9.39,2.92-6.56-.98-9.38-2.94-5.08-4.56-6.75-7.83-2.52-6.88-2.51-10.85.85-7.57,2.53-10.8,3.94-5.82,6.77-7.76,5.96-2.92,9.39-2.92Z" fill="#fff"></path><path class="cls-6" d="M158.84,247.27c0,3.64-1.09,6.64-3.28,9.01s-4.73,3.55-7.64,3.55-5.46-1.18-7.64-3.55-3.28-5.37-3.28-9.01c0-3.28,1.09-6.19,3.28-8.73s4.73-3.82,7.64-3.82,5.46,1.27,7.64,3.82,3.28,5.46,3.28,8.73Z" fill="#fff"></path><path class="cls-3" d="M195.41,419.75c-4,2.91-8.37,3.64-13.1,2.18s-6.37-3.64-4.91-6.55c7.28-16.01,18.1-28.11,32.48-36.3s29.75-12.28,46.12-12.28,31.75,4,46.12,12.01,25.2,20.2,32.48,36.57c1.46,2.91-.18,5.09-4.91,6.55s-9.1.73-13.1-2.18c-11.28-7.64-24.38-12.65-39.3-15.01-14.92-2.37-29.66-2.27-44.21.27s-27.11,7.46-37.66,14.74Z" fill="#1a1626"></path><path class="cls-1" d="M99.89,129.91c12.01-10.55,23.11-16.74,33.3-18.56s18.19-.91,24.02,2.73,8.37,8.73,7.64,15.28-5.82,12.92-15.28,19.1c-17.47,11.64-33.21,20.11-47.22,25.38-14.01,5.28-24.38,7.37-31.11,6.28s-8.19-5.82-4.37-14.19c3.82-8.37,14.83-20.38,33.02-36.03ZM412.11,129.91c18.19,16.01,29.2,28.11,33.02,36.3,3.82,8.19,2.37,12.83-4.37,13.92s-17.1-1-31.11-6.28c-14.01-5.28-29.75-13.74-47.22-25.38-9.46-6.19-14.56-12.55-15.28-19.1-.73-6.55,1.82-11.64,7.64-15.28s13.83-4.46,24.02-2.46,21.29,8.1,33.3,18.29Z" fill="#d69600"></path><path class="cls-4" d="M135.26,340.57c5.14,13.97,13.13,30.13,23.98,48.49s16.41,35.87,16.7,52.54c-.11,12.58-4.75,23.24-13.92,31.97s-20.04,13.04-32.62,12.93-23.36-4.55-32.33-13.3c-8.97-8.75-13.4-19.42-13.29-32.01-.28-16.66,4.98-34.11,15.78-52.35,10.8-18.24,18.86-34.35,24.18-48.32,1.38-5.25,3.3-7.86,5.75-7.82s4.37,2.66,5.77,7.87Z" fill="url(#1776867897903-5862276_radial-gradient)"></path><path class="cls-2" d="M133.19,337.88c2.18,7.64,5.46,16.65,9.83,27.02,4.37,10.37,8.46,20.92,12.28,31.66s5.73,20.65,5.73,29.75c0,8.01-3.18,14.01-9.55,18.01-6.37,4-13.65,6-21.83,6s-15.47-2-21.83-6c-6.37-4-9.55-10.01-9.55-18.01,0-9.1,1.91-19.01,5.73-29.75s7.91-21.29,12.28-31.66,7.64-19.38,9.83-27.02c.36-2.18,1.46-3.28,3.28-3.28s3.09,1.09,3.82,3.28Z" fill="url(#1776867897903-5862276_linear-gradient-2)"></path></g></svg>