<svg data-name="Layer 1" xmlns="http://www.w3.org/2000/svg" style="" viewBox="0 0 512 512"><g class="nc-icon-wrapper"><defs><linearGradient id="1776867897918-4122915_linear-gradient" x1="256" y1="1592" x2="256" y2="1080" gradientTransform="translate(0 -1080)" gradientUnits="userSpaceOnUse"><stop offset="0" stop-color="#ff9500"></stop><stop offset=".19" stop-color="#ffad00"></stop><stop offset=".54" stop-color="#ffd500"></stop><stop offset=".83" stop-color="#ffed00"></stop><stop offset="1" stop-color="#fff600"></stop></linearGradient><linearGradient id="1776867897918-4122915_linear-gradient-2" x1="119.54" y1="1399.86" x2="392.46" y2="1399.86" gradientTransform="translate(0 -1080)" gradientUnits="userSpaceOnUse"><stop offset="0" stop-color="#cfd7e6"></stop><stop offset=".04" stop-color="#dae0ec"></stop><stop offset=".13" stop-color="#eef1f6"></stop><stop offset=".22" stop-color="#fbfcfd"></stop><stop offset=".3" stop-color="#fff"></stop><stop offset=".7" stop-color="#fff"></stop><stop offset=".78" stop-color="#fbfcfd"></stop><stop offset=".87" stop-color="#eef1f6"></stop><stop offset=".96" stop-color="#dae0ec"></stop><stop offset="1" stop-color="#cfd7e6"></stop></linearGradient></defs><path class="cls-4" d="M512,256c0,35.3-6.64,68.41-19.92,99.34-13.28,30.93-31.66,58.13-55.13,81.6s-50.67,41.85-81.6,55.13c-30.93,13.28-64.05,19.92-99.34,19.92s-68.41-6.64-99.34-19.92c-30.93-13.28-58.13-31.66-81.6-55.13s-41.85-50.67-55.13-81.6C6.64,324.41,0,291.3,0,256s6.64-68.41,19.92-99.34c13.28-30.93,31.66-58.13,55.13-81.6s50.67-41.85,81.6-55.13C187.59,6.64,220.7,0,256,0s68.41,6.64,99.34,19.92c30.93,13.28,58.13,31.66,81.6,55.13s41.85,50.67,55.13,81.6c13.28,30.93,19.92,64.05,19.92,99.34Z" fill="url(#1776867897918-4122915_linear-gradient)"></path><path class="cls-3" d="M385.91,293.12c8.01,1.46,14.01,5,18.01,10.64,4,5.64,5.82,11.74,5.46,18.29-1.09,21.83-7.55,42.03-19.38,60.59s-28.84,33.39-51.04,44.49c-22.2,11.1-49.85,16.65-82.97,16.65s-60.77-5.55-82.97-16.65c-22.2-11.1-39.21-25.93-51.04-44.49-11.83-18.56-18.29-38.75-19.38-60.59-.36-6.55,1.46-12.65,5.46-18.29,4-5.64,10.01-9.19,18.01-10.64,15.28-2.91,33.84-5.55,55.68-7.91s46.58-3.55,74.23-3.55,52.31,1.18,73.96,3.55,40.3,5,55.95,7.91Z" fill="#1a1626"></path><path class="cls-1" d="M183.4,409.38s2.64-2,7.91-6,13.37-7.55,24.29-10.64c10.92-3.09,24.38-3.18,40.39-.27,16.01-2.91,29.48-2.82,40.39.27,10.92,3.09,19.01,6.64,24.29,10.64s7.91,6,7.91,6c0,0-3.28,1.46-9.83,4.37-6.55,2.91-15.28,5.73-26.2,8.46-10.92,2.73-23.11,4.09-36.57,4.09s-25.75-1.36-36.84-4.09c-11.1-2.73-19.83-5.55-26.2-8.46-6.37-2.91-9.55-4.37-9.55-4.37Z" fill="#fd7383"></path><path class="cls-2" d="M379.91,308.95c6.55,1.46,10.37,3.73,11.46,6.82s1.09,7.37,0,12.83c-.73,5.09-1.73,8.46-3,10.1s-4.46,2.46-9.55,2.46h-245.63c-5.09,0-8.28-.82-9.55-2.46-1.27-1.64-2.27-5-3-10.1-1.09-5.46-1.09-9.73,0-12.83s4.91-5.37,11.46-6.82c10.92-1.82,27.2-4,48.85-6.55s46.67-3.82,75.05-3.82,53.4,1.27,75.05,3.82,37.94,4.73,48.85,6.55Z" fill="url(#1776867897918-4122915_linear-gradient-2)"></path><path class="cls-3" d="M117.36,231.44c-2.91,3.64-6.37,4.55-10.37,2.73s-5.46-4.55-4.37-8.19c10.55-30.2,23.84-50.4,39.85-60.59,16.01-10.19,32.02-10.19,48.03,0,16.01,10.19,29.29,30.39,39.85,60.59,1.09,3.64-.36,6.28-4.37,7.91s-7.46.82-10.37-2.46c-18.19-23.65-34.57-35.48-49.13-35.48s-30.93,11.83-49.13,35.48ZM296.39,231.44c-2.91,3.64-6.37,4.55-10.37,2.73s-5.28-4.55-3.82-8.19c10.19-30.2,23.29-50.4,39.3-60.59,16.01-10.19,32.02-10.19,48.03,0,16.01,10.19,29.29,30.39,39.85,60.59,1.09,3.64-.36,6.28-4.37,7.91s-7.46.82-10.37-2.46c-18.19-23.65-34.57-35.48-49.13-35.48s-30.93,11.83-49.13,35.48Z" fill="#1a1626"></path></g></svg>