<svg data-name="Layer 1" xmlns="http://www.w3.org/2000/svg" style="" viewBox="0 0 512 512"><g class="nc-icon-wrapper"><defs><linearGradient id="1776867897949-5420242_linear-gradient" x1="256" y1="1024" x2="256" y2="512" gradientTransform="translate(0 -512)" gradientUnits="userSpaceOnUse"><stop offset="0" stop-color="#ff9500"></stop><stop offset=".19" stop-color="#ffad00"></stop><stop offset=".54" stop-color="#ffd500"></stop><stop offset=".83" stop-color="#ffed00"></stop><stop offset="1" stop-color="#fff600"></stop></linearGradient><linearGradient id="1776867897949-5420242_linear-gradient-2" x1="162.04" y1="819.04" x2="349.98" y2="819.04" gradientTransform="translate(0 -512)" gradientUnits="userSpaceOnUse"><stop offset="0" stop-color="#cfd7e6"></stop><stop offset=".04" stop-color="#dae0ec"></stop><stop offset=".13" stop-color="#eef1f6"></stop><stop offset=".22" stop-color="#fbfcfd"></stop><stop offset=".3" stop-color="#fff"></stop><stop offset=".7" stop-color="#fff"></stop><stop offset=".78" stop-color="#fbfcfd"></stop><stop offset=".87" stop-color="#eef1f6"></stop><stop offset=".96" stop-color="#dae0ec"></stop><stop offset="1" stop-color="#cfd7e6"></stop></linearGradient></defs><path class="cls-5" d="M512,256c0,35.3-6.64,68.41-19.92,99.34-13.28,30.93-31.66,58.13-55.13,81.6s-50.67,41.85-81.6,55.13c-30.93,13.28-64.05,19.92-99.34,19.92s-68.41-6.64-99.34-19.92c-30.93-13.28-58.13-31.66-81.6-55.13s-41.85-50.67-55.13-81.6C6.64,324.41,0,291.3,0,256s6.64-68.41,19.92-99.34c13.28-30.93,31.66-58.13,55.13-81.6s50.67-41.85,81.6-55.13C187.59,6.64,220.7,0,256,0s68.41,6.64,99.34,19.92c30.93,13.28,58.13,31.66,81.6,55.13s41.85,50.67,55.13,81.6c13.28,30.93,19.92,64.05,19.92,99.34Z" fill="url(#1776867897949-5420242_linear-gradient)"></path><path class="cls-4" d="M208.51,173.58c2.55-2.91,5.82-4.37,9.83-4.37s5.82,1.46,5.46,4.37c-2.18,14.92-8.01,27.11-17.47,36.57s-20.65,15.92-33.57,19.38c-12.92,3.46-25.84,3.46-38.75,0-12.92-3.46-23.93-11.01-33.02-22.65-1.82-2.55-1.09-4.82,2.18-6.82s6.73-2.27,10.37-.82c10.55,4,22.02,5.37,34.39,4.09s23.93-4.46,34.66-9.55,19.38-11.83,25.93-20.2ZM303.49,173.58c-2.55-2.91-5.82-4.37-9.83-4.37s-5.82,1.46-5.46,4.37c2.18,14.92,8.01,27.11,17.47,36.57s20.65,15.92,33.57,19.38c12.92,3.46,25.84,3.46,38.75,0s23.93-11.01,33.02-22.65c1.82-2.55,1.09-4.82-2.18-6.82s-6.73-2.27-10.37-.82c-10.55,4-22.02,5.37-34.39,4.09s-23.93-4.46-34.66-9.55-19.38-11.83-25.93-20.2ZM256,272.92c25.11,0,47.94,4.28,68.5,12.83,20.56,8.55,37.03,20.01,49.4,34.39,12.37,14.37,18.56,30.48,18.56,48.31,0,14.56-3.37,27.57-10.1,39.03s-19.2,17.19-37.39,17.19c-13.1.36-27.02-1.55-41.76-5.73-14.74-4.18-30.48-6.28-47.22-6.28s-32.48,2.09-47.22,6.28c-14.74,4.18-28.66,6.1-41.76,5.73-18.19,0-30.66-5.73-37.39-17.19s-10.1-24.47-10.1-39.03c0-17.83,6.19-33.93,18.56-48.31,12.37-14.37,28.84-25.84,49.4-34.39s43.39-12.83,68.5-12.83Z" fill="#1a1626"></path><path class="cls-1" d="M256,376.09c9.83-4.73,19.47-5.91,28.93-3.55,9.46,2.37,18.01,6.28,25.65,11.74,7.64,5.46,13.74,10.64,18.29,15.56s6.82,7.37,6.82,7.37c0,0-2.73-.64-8.19-1.91s-12.28-2.82-20.47-4.64c-8.19-1.82-16.83-3.46-25.93-4.91s-17.47-2.18-25.11-2.18-16.01.73-25.11,2.18-17.74,3.09-25.93,4.91c-8.19,1.82-15.01,3.37-20.47,4.64s-8.19,1.91-8.19,1.91c0,0,2.27-2.46,6.82-7.37s10.64-10.1,18.29-15.56c7.64-5.46,16.19-9.37,25.65-11.74,9.46-2.37,19.1-1.18,28.93,3.55Z" fill="#fd7383"></path><path class="cls-3" d="M347.7,316.04c1.82,1.46,2.55,3.18,2.18,5.19s-2.18,3-5.46,3h-176.85c-3.28,0-5.09-1-5.46-3s.55-3.73,2.73-5.19c11.28-8.01,24.47-14.37,39.57-19.1,15.1-4.73,32.3-7.1,51.58-7.1s36.48,2.37,51.58,7.1c15.1,4.73,28.47,11.1,40.12,19.1Z" fill="url(#1776867897949-5420242_linear-gradient-2)"></path><path class="cls-2" d="M142.46,92.79c12.37-10.19,23.65-16.28,33.84-18.29s18.1-1.18,23.74,2.46,8.1,8.73,7.37,15.28-5.82,13.1-15.28,19.65c-17.1,11.28-32.66,19.65-46.67,25.11s-24.47,7.55-31.39,6.28-8.46-6-4.64-14.19,14.83-20.29,33.02-36.3ZM369.54,93.34c18.19,15.65,29.2,27.57,33.02,35.75,3.82,8.19,2.27,12.92-4.64,14.19s-17.29-.82-31.11-6.28-29.48-13.83-46.94-25.11c-9.46-6.55-14.56-13.1-15.28-19.65-.73-6.55,1.82-11.55,7.64-15.01s13.74-4.28,23.74-2.46,21.2,8.01,33.57,18.56Z" fill="#d69600"></path></g></svg>