<svg data-name="Layer 1" xmlns="http://www.w3.org/2000/svg" style="" viewBox="0 0 512.31 512"><g class="nc-icon-wrapper"><defs><linearGradient id="1776131386535-3126844_linear-gradient" x1="256" y1="1592" x2="256" y2="1080" gradientTransform="translate(0 -1080)" gradientUnits="userSpaceOnUse"><stop offset="0" stop-color="#ff9500"></stop><stop offset=".19" stop-color="#ffad00"></stop><stop offset=".54" stop-color="#ffd500"></stop><stop offset=".83" stop-color="#ffed00"></stop><stop offset="1" stop-color="#fff600"></stop></linearGradient><linearGradient id="1776131386535-3126844_linear-gradient-2" x1="175.76" y1="1290.15" x2="175.76" y2="1190.26" gradientTransform="translate(0 -1080)" gradientUnits="userSpaceOnUse"><stop offset="0" stop-color="#005b91"></stop><stop offset="1" stop-color="#007ec9"></stop></linearGradient><linearGradient id="1776131386535-3126844_linear-gradient-3" x1="281.09" y1="1236.11" x2="281.09" y2="1111.06" gradientTransform="translate(0 -1080)" gradientUnits="userSpaceOnUse"><stop offset="0" stop-color="#005b91"></stop><stop offset="1" stop-color="#007ec9"></stop></linearGradient><linearGradient id="1776131386535-3126844_linear-gradient-4" x1="431.73" y1="1254.67" x2="431.73" y2="1080" gradientTransform="translate(0 -1080)" gradientUnits="userSpaceOnUse"><stop offset="0" stop-color="#005b91"></stop><stop offset="1" stop-color="#007ec9"></stop></linearGradient></defs><path class="cls-5" d="M512,256c0,35.3-6.64,68.41-19.92,99.34-13.28,30.93-31.66,58.13-55.13,81.6s-50.67,41.85-81.6,55.13c-30.93,13.28-64.05,19.92-99.34,19.92s-68.41-6.64-99.34-19.92c-30.93-13.28-58.13-31.66-81.6-55.13-23.47-23.47-41.85-50.67-55.13-81.6C6.64,324.41,0,291.3,0,256s6.64-68.41,19.92-99.34c13.28-30.93,31.66-58.13,55.13-81.6,23.47-23.47,50.67-41.85,81.6-55.13C187.59,6.64,220.7,0,256,0s68.41,6.64,99.34,19.92c30.93,13.28,58.13,31.66,81.6,55.13s41.85,50.67,55.13,81.6c13.28,30.93,19.92,64.05,19.92,99.34Z" fill="url(#1776131386535-3126844_linear-gradient)"></path><path class="cls-3" d="M212.88,164.3l6,10.92c.73,1.46.91,3.28.55,5.46-.36,1.82-1.27,3.28-2.73,4.37l-43.12,24.56c-.36,0-.91.18-1.64.55-3.28,1.09-5.82,0-7.64-3.28l-5.46-10.92c-.73-1.46-1.09-3.09-1.09-4.91l6-41.48-16.38,9.28c-3.64,2.18-6.55,1.09-8.73-3.28l-6-10.37c-.73-1.82-.91-3.64-.55-5.46.36-2.18,1.46-3.64,3.28-4.37l42.03-24.56c1.46-.73,3.09-.91,4.91-.55,1.82.73,3.28,2,4.37,3.82l5.46,9.83c.73,1.46.91,3.09.55,4.91l-5.46,42.58,16.92-10.37c3.64-2.18,6.55-1.09,8.73,3.28Z" fill="url(#1776131386535-3126844_linear-gradient-2)"></path><path class="cls-2" d="M329.69,51.31c1.09,1.82,1.46,3.64,1.09,5.46l-3.28,15.83c-.36,1.82-1.09,3.09-2.18,3.82l-47.49,40.94,32.75,8.19c4.37,1.09,6.19,4,5.46,8.73l-3.28,16.38c-.73,2.91-2.37,4.73-4.91,5.46-1.09.36-2.18.36-3.28,0l-68.23-17.47c-1.82-.36-3.28-1.27-4.37-2.73-.73-1.82-.91-3.64-.55-5.46l3.28-16.92c.36-1.46,1.09-2.73,2.18-3.82l46.4-40.39-30.57-7.64c-1.82-.36-3.28-1.46-4.37-3.28-1.09-1.46-1.46-3.09-1.09-4.91l3.28-16.92c1.09-4.37,3.82-6,8.19-4.91l67.14,16.92c1.82.36,3.09,1.27,3.82,2.73Z" fill="url(#1776131386535-3126844_linear-gradient-3)"></path><path class="cls-1" d="M451.96,174.12c-1.82.73-3.46.73-4.91,0l-92.25-43.67c-3.64-1.82-4.55-4.55-2.73-8.19l9.83-21.29c.73-1.46,1.64-2.37,2.73-2.73l85.15-42.58-47.49-22.38c-3.64-1.82-4.55-4.55-2.73-8.19l9.83-21.29c.73-1.46,2-2.55,3.82-3.28,1.46-.73,3.09-.73,4.91,0l90.06,42.58c4,2.18,5.09,5.09,3.28,8.73l-9.28,20.2c-.73,1.46-1.82,2.37-3.28,2.73l-86.24,43.12,49.67,23.47c4,1.82,5.09,4.73,3.28,8.73l-9.83,20.74c-.73,1.82-2,2.91-3.82,3.28Z" fill="url(#1776131386535-3126844_linear-gradient-4)"></path><path class="cls-4" d="M215.61,286.02c-8.37,6.19-18.56,10.37-30.57,12.55-12.01,2.18-24.02,2.27-36.03.27s-22.56-6.28-31.66-12.83c-3.28-2.55-6.82-3.28-10.64-2.18s-5.19,3.09-4.09,6c6.19,13.46,15.01,23.65,26.47,30.57,11.46,6.91,23.84,10.37,37.12,10.37s25.75-3.46,37.39-10.37c11.64-6.91,20.56-17.1,26.75-30.57,1.09-2.91-.27-4.91-4.09-6s-7.37-.36-10.64,2.18ZM296.39,286.02c8.37,6.19,18.56,10.37,30.57,12.55,12.01,2.18,24.02,2.27,36.03.27s22.56-6.28,31.66-12.83c3.28-2.55,6.82-3.28,10.64-2.18s5.19,3.09,4.09,6c-6.19,13.46-15.01,23.65-26.47,30.57s-23.84,10.37-37.12,10.37-25.75-3.46-37.39-10.37-20.38-17.1-26.2-30.57c-1.46-2.91-.27-4.91,3.55-6s7.37-.36,10.64,2.18ZM298.58,431.22c0,10.19-2.82,18.29-8.46,24.29-5.64,6-12.74,10.01-21.29,12.01-8.55,2-17.1,2-25.65,0s-15.65-6-21.29-12.01-8.46-14.1-8.46-24.29c0-13.1,4.18-24.29,12.55-33.57s18.38-13.92,30.02-13.92,21.65,4.64,30.02,13.92c8.37,9.28,12.55,20.47,12.55,33.57Z" fill="#1a1626"></path></g></svg>