<svg data-name="Layer 1" xmlns="http://www.w3.org/2000/svg" style="" viewBox="0 0 495.09 512"><g class="nc-icon-wrapper"><defs><linearGradient id="1776131386564-2651966_linear-gradient" x1="247.55" y1="1575.62" x2="247.55" y2="1080" gradientTransform="translate(0 -1080)" gradientUnits="userSpaceOnUse"><stop offset="0" stop-color="#ff9500"></stop><stop offset=".19" stop-color="#ffad00"></stop><stop offset=".54" stop-color="#ffd500"></stop><stop offset=".83" stop-color="#ffed00"></stop><stop offset="1" stop-color="#fff600"></stop></linearGradient><linearGradient id="1776131386564-2651966_linear-gradient-2" x1="190.22" y1="1393.86" x2="305.4" y2="1393.86" gradientTransform="translate(0 -1080)" gradientUnits="userSpaceOnUse"><stop offset="0" stop-color="#cfd7e6"></stop><stop offset=".04" stop-color="#dae0ec"></stop><stop offset=".13" stop-color="#eef1f6"></stop><stop offset=".22" stop-color="#fbfcfd"></stop><stop offset=".3" stop-color="#fff"></stop><stop offset=".7" stop-color="#fff"></stop><stop offset=".78" stop-color="#fbfcfd"></stop><stop offset=".87" stop-color="#eef1f6"></stop><stop offset=".96" stop-color="#dae0ec"></stop><stop offset="1" stop-color="#cfd7e6"></stop></linearGradient></defs><path class="cls-6" d="M247.81,0c34.17,0,66.22,6.43,96.17,19.29,29.94,12.86,56.27,30.65,78.99,53.37,22.72,22.72,40.42,49.05,53.1,78.99,12.68,29.94,19.02,62,19.02,96.17s-6.34,66.22-19.02,96.17c-12.68,29.94-30.38,56.27-53.1,78.99-22.72,22.72-49.05,40.51-78.99,53.37-29.94,12.86-62,19.29-96.17,19.29s-66.22-6.43-96.17-19.29c-29.94-12.86-56.27-30.65-78.99-53.37s-40.51-49.05-53.37-78.99C6.43,314.03,0,281.98,0,247.81s6.43-66.22,19.29-96.17c12.86-29.94,30.65-56.27,53.37-78.99,22.72-22.72,49.05-40.51,78.99-53.37C181.59,6.43,213.64,0,247.81,0Z" fill="url(#1776131386564-2651966_linear-gradient)"></path><path class="cls-4" d="M204.48,190.22c-7.05,7.4-16.03,13.21-26.95,17.44s-22.37,6.34-34.34,6.34-22.9-2.29-32.76-6.87c-3.17-1.76-6.52-1.76-10.04,0s-4.4,3.7-2.64,5.81c7.75,12.33,17.79,20.78,30.12,25.36,12.33,4.58,24.83,5.72,37.51,3.43,12.68-2.29,23.95-7.66,33.82-16.12s16.38-19.73,19.55-33.82c.7-2.82-.88-4.4-4.76-4.76s-7.05.7-9.51,3.17ZM291.14,190.22c7.05,7.4,16.03,13.21,26.95,17.44s22.37,6.34,34.34,6.34,22.9-2.29,32.76-6.87c3.17-1.76,6.52-1.76,10.04,0s4.58,3.7,3.17,5.81c-8.1,12.33-18.23,20.78-30.38,25.36-12.15,4.58-24.57,5.72-37.25,3.43-12.68-2.29-23.95-7.66-33.82-16.12s-16.56-19.73-20.08-33.82c-.7-2.82.88-4.4,4.76-4.76s7.05.7,9.51,3.17ZM330.24,369.87c0,16.91-3.96,31-11.89,42.27-7.93,11.27-18.14,19.73-30.65,25.36-12.5,5.64-25.8,8.45-39.89,8.45s-27.39-2.82-39.89-8.45c-12.5-5.64-22.72-14.09-30.65-25.36-7.93-11.27-11.89-25.36-11.89-42.27v-12.68c0-16.91,3.96-31,11.89-42.27,7.93-11.27,18.14-19.73,30.65-25.36s25.8-8.45,39.89-8.45,27.39,2.82,39.89,8.45,22.72,14.09,30.65,25.36,11.89,25.36,11.89,42.27v12.68Z" fill="#1a1626"></path><path class="cls-3" d="M190.22,330.24c5.99-10.22,14.09-18.23,24.31-24.04,10.22-5.81,21.31-8.72,33.29-8.72s23.07,2.91,33.29,8.72c10.22,5.81,18.32,13.83,24.31,24.04h-115.19Z" fill="url(#1776131386564-2651966_linear-gradient-2)"></path><path class="cls-1" d="M247.81,406.85c10.57-2.82,19.2-3.35,25.89-1.59s11.62,3.96,14.79,6.6l4.76,3.96c-6.69,4.23-13.83,7.57-21.4,10.04-7.57,2.47-15.59,3.7-24.04,3.7-16.56,0-31.7-4.58-45.44-13.74l4.76-3.96c3.17-2.64,8.1-4.84,14.79-6.6s15.32-1.23,25.89,1.59Z" fill="#fd7383"></path><path class="cls-5" d="M256.26,317.56c2.82,2.47,4.84,5.72,6.08,9.78s1.5,8.37.79,12.95c2.82,1.06,5.28,2.82,7.4,5.28,3.87,3.52,6.34,8.28,7.4,14.27,1.06,5.99-.18,12.5-3.7,19.55,1.06,1.06,1.94,1.76,2.64,2.11,4.93,4.93,7.4,11.27,7.4,19.02s-2.99,15.68-8.98,22.72c-26.42,33.46-53.01,59.35-79.79,77.67-10.57,7.05-22.37,10.74-35.4,11.1h-3.17c-20.08-.35-37.69-8.28-52.84-23.78-16.2-16.2-24.31-34.87-24.31-56.01v-.53c0-11.27,2.64-22.19,7.93-32.76,3.52-7.05,5.72-14.27,6.6-21.66s1.5-14.09,1.85-20.08c.35-6.69,1.14-12.68,2.38-17.96s4.32-9.33,9.25-12.15c2.11-1.41,4.93-2.29,8.45-2.64,3.52-.35,7.75.88,12.68,3.7,3.17,1.41,5.99,3.52,8.45,6.34,2.82,2.82,5.11,5.99,6.87,9.51s2.99,7.05,3.7,10.57c5.99-5.99,12.42-12.68,19.29-20.08s13.47-15.5,19.81-24.31c6.34-8.1,13.74-12.33,22.19-12.68,11.27-.7,19.37,4.05,24.31,14.27,1.76-.7,3.52-1.06,5.28-1.06,6.69-.35,12.5,1.94,17.44,6.87Z" fill="#99a8ae"></path><path class="cls-7" d="M244.11,348.73c-5.99,8.1-12.95,16.91-20.87,26.42-7.93,9.51-14.79,17.61-20.61,24.31-5.81,6.69-8.72,10.04-8.72,10.04,0,0,2.73-2.29,8.19-6.87,5.46-4.58,12.06-10.66,19.81-18.23s14.97-15.94,21.66-25.1c4.23-4.93,8.28-7.05,12.15-6.34,3.87.7,6.43,3.35,7.66,7.93,1.23,4.58-.44,10.04-5.02,16.38-5.64,7.4-11.8,15.32-18.49,23.78-6.69,8.45-12.5,15.5-17.44,21.14-4.93,5.64-7.4,8.45-7.4,8.45,0,0,3.87-3.26,11.62-9.78,7.75-6.52,16.38-15.76,25.89-27.74,3.17-3.52,6.52-4.67,10.04-3.43s5.81,4.14,6.87,8.72c1.06,4.58-.88,9.86-5.81,15.85-8.1,10.57-18.76,22.81-31.97,36.72-13.21,13.91-28.09,26.51-44.65,37.78-9.16,6.34-18.93,9.33-29.33,8.98-10.39-.35-20.17-3.26-29.33-8.72s-16.82-12.59-22.98-21.4c-6.16-8.81-9.95-18.67-11.36-29.59-1.41-10.92.7-21.84,6.34-32.76,4.58-8.81,7.4-17.52,8.45-26.15s1.67-16.29,1.85-22.98.88-11.62,2.11-14.79,4.14-3.52,8.72-1.06c5.28,2.82,8.89,6.87,10.83,12.15s2.91,10.66,2.91,16.12-.35,10.13-1.06,14-1.06,5.81-1.06,5.81c0,0,3.35-3.08,10.04-9.25s15.06-14.44,25.1-24.83,20.17-22.1,30.38-35.14c4.23-5.28,8.45-7.75,12.68-7.4s7.22,2.55,8.98,6.6.88,8.72-2.64,14c-5.28,7.4-11.45,15.41-18.49,24.04s-13.21,16.03-18.49,22.19-7.93,9.25-7.93,9.25c0,0,2.82-2.38,8.45-7.13s12.86-11.45,21.66-20.08c8.81-8.63,17.79-18.58,26.95-29.85,3.52-4.58,7.31-6.43,11.36-5.55s6.69,3.43,7.93,7.66-.44,9.51-5.02,15.85Z" fill="#fff"></path><path class="cls-2" d="M107.79,99.34c13.39-7.75,25.1-11.71,35.14-11.89s17.52,1.94,22.46,6.34,6.52,9.6,4.76,15.59-7.93,11.27-18.49,15.85c-18.32,8.1-34.61,13.56-48.88,16.38s-24.57,3.08-30.91.79-6.96-7.05-1.85-14.27c5.11-7.22,17.7-16.82,37.78-28.8ZM387.83,99.34c20.08,11.98,32.67,21.58,37.78,28.8s4.49,11.98-1.85,14.27-16.64,2.03-30.91-.79-30.56-8.28-48.88-16.38c-10.57-4.23-16.73-9.42-18.49-15.59-1.76-6.16-.18-11.45,4.76-15.85s12.42-6.52,22.46-6.34,21.75,4.14,35.14,11.89Z" fill="#d69600"></path></g></svg>