<svg data-name="Layer 1" xmlns="http://www.w3.org/2000/svg" style="" viewBox="0 0 512 512"><g class="nc-icon-wrapper"><defs><linearGradient id="1776867897935-3533043_linear-gradient" x1="254.08" y1="1588.16" x2="254.08" y2="1080" gradientTransform="translate(0 -1080)" gradientUnits="userSpaceOnUse"><stop offset="0" stop-color="#ff9500"></stop><stop offset=".19" stop-color="#ffad00"></stop><stop offset=".54" stop-color="#ffd500"></stop><stop offset=".83" stop-color="#ffed00"></stop><stop offset="1" stop-color="#fff600"></stop></linearGradient><linearGradient id="1776867897935-3533043_linear-gradient-2" x1="-645.5" y1="1430.77" x2="-372.59" y2="1430.77" gradientTransform="rotate(-45 -1507.625 -90.231)" gradientUnits="userSpaceOnUse"><stop offset="0" stop-color="#cfd7e6"></stop><stop offset=".04" stop-color="#dae0ec"></stop><stop offset=".13" stop-color="#eef1f6"></stop><stop offset=".22" stop-color="#fbfcfd"></stop><stop offset=".3" stop-color="#fff"></stop><stop offset=".7" stop-color="#fff"></stop><stop offset=".78" stop-color="#fbfcfd"></stop><stop offset=".87" stop-color="#eef1f6"></stop><stop offset=".96" stop-color="#dae0ec"></stop><stop offset="1" stop-color="#cfd7e6"></stop></linearGradient><radialGradient id="1776867897935-3533043_radial-gradient" cx="-291.34" cy="1961.31" fx="-254.23" fy="1908.36" r="104.25" gradientTransform="matrix(.34932 -.53626 .83888 .54431 -1126.92 -1092.19)" gradientUnits="userSpaceOnUse"><stop offset="0" stop-color="#73efff"></stop><stop offset=".19" stop-color="#6fecff"></stop><stop offset=".36" stop-color="#64e3ff"></stop><stop offset=".54" stop-color="#51d3ff"></stop><stop offset=".71" stop-color="#36bdff"></stop><stop offset=".87" stop-color="#14a1ff"></stop><stop offset=".96" stop-color="#0091ff"></stop><stop offset="1" stop-color="#0091ff"></stop></radialGradient><linearGradient id="1776867897935-3533043_linear-gradient-3" x1="341.83" y1="2457.05" x2="344.56" y2="2299.4" gradientTransform="rotate(-6.86 -7602.18 -1552.9) scale(.46)" gradientUnits="userSpaceOnUse"><stop offset="0" stop-color="#c4eeff" stop-opacity="0"></stop><stop offset=".05" stop-color="#c4eeff" stop-opacity="0"></stop><stop offset=".44" stop-color="#e4f7ff" stop-opacity=".41"></stop><stop offset=".78" stop-color="#f8fdff" stop-opacity=".76"></stop><stop offset="1" stop-color="#fff"></stop></linearGradient><radialGradient id="1776867897935-3533043_radial-gradient-2" cx="-1203.03" cy="1838.23" fx="-1165.91" fy="1784.74" r="104.25" gradientTransform="matrix(-.53626 .34932 .54431 .83888 -1512.19 -706.92)" gradientUnits="userSpaceOnUse"><stop offset="0" stop-color="#73efff"></stop><stop offset=".19" stop-color="#6fecff"></stop><stop offset=".36" stop-color="#64e3ff"></stop><stop offset=".54" stop-color="#51d3ff"></stop><stop offset=".71" stop-color="#36bdff"></stop><stop offset=".87" stop-color="#14a1ff"></stop><stop offset=".96" stop-color="#0091ff"></stop><stop offset="1" stop-color="#0091ff"></stop></radialGradient><linearGradient id="1776867897935-3533043_linear-gradient-4" x1="1389.57" y1="1632.73" x2="1392.3" y2="1474.43" gradientTransform="scale(-.46 .46) rotate(83.16 897.914 274.325)" gradientUnits="userSpaceOnUse"><stop offset="0" stop-color="#c4eeff" stop-opacity="0"></stop><stop offset=".05" stop-color="#c4eeff" stop-opacity="0"></stop><stop offset=".44" stop-color="#e4f7ff" stop-opacity=".41"></stop><stop offset=".78" stop-color="#f8fdff" stop-opacity=".76"></stop><stop offset="1" stop-color="#fff"></stop></linearGradient></defs><path class="cls-8" d="M254.35,0c34.93,0,67.77,6.64,98.52,19.92s57.67,31.57,80.78,54.85,41.3,50.22,54.58,80.78c13.28,30.57,19.92,63.31,19.92,98.25s-6.64,68.32-19.92,99.07c-13.28,30.75-31.48,57.67-54.58,80.78-23.11,23.11-50.03,41.3-80.78,54.58-30.75,13.28-63.59,19.92-98.52,19.92s-68.32-6.64-99.07-19.92c-30.75-13.28-57.67-31.48-80.78-54.58-23.11-23.11-41.3-50.03-54.58-80.78C6.64,322.12,0,289.1,0,253.8s6.64-67.68,19.92-98.25c13.28-30.57,31.48-57.49,54.58-80.78,23.11-23.29,50.03-41.57,80.78-54.85C186.03,6.64,219.05,0,254.35,0Z" fill="url(#1776867897935-3533043_linear-gradient)"></path><path class="cls-6" d="M341.14,158.83c6.55-4.37,13.28-6,20.2-4.91s12.55,4,16.92,8.73c14.56,16.37,24.2,35.21,28.93,56.49,4.73,21.29,3.18,43.57-4.64,66.86-7.82,23.29-23.38,46.58-46.67,69.86-23.29,23.29-46.58,38.84-69.86,46.67-23.29,7.82-45.58,9.37-66.86,4.64s-40.12-14.37-56.49-28.93c-4.73-4.37-7.64-10.01-8.73-16.92s.55-13.65,4.91-20.2c8.73-12.74,19.92-27.56,33.57-44.48,13.65-16.92,30.29-35.02,49.94-54.31,19.29-19.65,37.39-36.3,54.31-49.94s31.75-24.83,44.48-33.57Z" fill="#1a1626"></path><path class="cls-1" d="M280.87,382.73s.45-3.25,1.34-9.76,4.09-14.68,9.57-24.5,14.87-19.33,28.14-28.52c9.19-13.27,18.7-22.65,28.53-28.14,9.83-5.49,18-8.68,24.5-9.57s9.76-1.34,9.76-1.34c0,0-1.28,3.32-3.83,9.95-2.55,6.64-6.7,14.74-12.44,24.31s-13.34,19.08-22.78,28.52c-9.44,9.44-19.02,17.1-28.72,22.97-9.7,5.87-17.8,10.02-24.31,12.44-6.51,2.42-9.76,3.64-9.76,3.64Z" fill="#fd7383"></path><path class="cls-5" d="M348.34,174.41c5.62-3.58,9.9-4.66,12.83-3.26s5.94,4.41,9,9c2.81,3.83,4.4,6.83,4.79,9s-1.21,5.04-4.79,8.62c-1.53,1.53-5.36,5.36-11.49,11.49-6.13,6.13-13.35,13.34-21.65,21.64-8.3,8.3-16.54,16.54-24.71,24.71s-14.94,14.94-20.3,20.3l-8.05,8.04-8.05,8.04-20.3,20.3-24.71,24.71c-8.3,8.3-15.52,15.51-21.65,21.64l-11.49,11.49c-3.58,3.58-6.45,5.17-8.62,4.79-2.17-.38-5.17-1.98-9-4.79-4.6-3.07-7.6-6.07-9-9s-.32-7.21,3.26-12.83c6.39-8.94,16.28-21.9,29.69-38.88s30.07-35.43,50-55.35c19.92-19.92,38.37-36.58,55.36-49.99s29.95-23.3,38.89-29.69Z" fill="url(#1776867897935-3533043_linear-gradient-2)"></path><path class="cls-6" d="M319.85,121.72c-9.82,2.91-21.65,7.1-35.48,12.55s-27.47,11.19-40.94,17.19-24.74,11.37-33.84,16.1c-2.55,1.46-4.64,1.46-6.28,0-1.64-1.46-1.91-3.64-.82-6.55,6.55-18.19,12.83-36.3,18.83-54.31s12.1-37.57,18.28-58.68c1.09-3.64,3.82-5,8.19-4.09s6.55,3.37,6.55,7.37c.36,11.28-.55,23.02-2.73,35.21s-4.18,23.2-6,33.02c10.19-3.27,22.11-6.19,35.75-8.73,13.65-2.55,26.11-4,37.39-4.37,4.37-.36,6.55,1.73,6.55,6.28s-1.82,7.55-5.46,9.01ZM106.43,318.76c.36-11.28,1.82-23.74,4.37-37.39s5.46-25.56,8.73-35.75c-9.82,1.82-20.83,3.82-33.02,6-12.19,2.18-23.92,3.09-35.21,2.73-4,0-6.46-2.18-7.37-6.55s.45-7.1,4.09-8.19c21.1-6.19,40.66-12.28,58.68-18.28,18.01-6,36.11-12.28,54.31-18.83,2.91-1.09,5.09-.82,6.55.82s1.64,3.73.55,6.28c-5.09,9.1-10.64,20.38-16.65,33.84s-11.74,27.11-17.19,40.94-9.64,25.65-12.55,35.48c-1.46,3.64-4.46,5.46-9.01,5.46s-6.64-2.18-6.28-6.55Z" fill="#1a1626"></path><path class="cls-7" d="M459.58,101.52c19.29,6.55,32.93,15.1,40.94,25.65,8.01,10.55,11.83,21.47,11.46,32.75-.36,11.28-3.73,21.47-10.1,30.57s-14.56,15.56-24.56,19.38-20.74,3.55-32.2-.82-22.29-14.37-32.48-30.02c-7.28-11.28-14.01-20.38-20.2-27.29s-12.55-12.55-19.1-16.92-14.37-8.19-23.47-11.46c-4.37-1.46-5.28-3.46-2.73-6,1.09-1.46,5.46-3.73,13.1-6.82s17.1-6.09,28.38-9.01,23.2-4.64,35.75-5.19c12.55-.55,24.29,1.18,35.21,5.19Z" fill="url(#1776867897935-3533043_radial-gradient)"></path><path class="cls-4" d="M442.9,106.95c10.39,2.93,18.07,6.91,23.02,11.92,4.95,5.01,7.73,10.37,8.33,16.07s-.4,11.26-3.01,16.68-6.36,10.09-11.24,14.03c-4.88,3.93-10.43,6.48-16.65,7.65s-12.49.46-18.83-2.13c-6.33-2.58-12.22-7.73-17.67-15.44-5.02-6.93-9.91-12.53-14.7-16.81s-9.84-7.77-15.19-10.47-11.49-5.14-18.45-7.32c-3.15-1.13-3.81-2.47-1.99-4.03.91-.78,3.37-1.87,7.39-3.27s9.11-2.85,15.29-4.35,12.93-2.77,20.25-3.82,14.75-1.52,22.29-1.43,14.59,1.01,21.16,2.73Z" fill="url(#1776867897935-3533043_linear-gradient-3)"></path><path class="cls-2" d="M101.52,459.58c-4-10.92-5.73-22.65-5.19-35.21s2.27-24.47,5.19-35.75,5.91-20.74,9.01-28.38,5.37-12.01,6.82-13.1c2.55-2.55,4.55-1.64,6,2.73,3.27,9.1,7.1,16.92,11.46,23.47s10.01,12.92,16.92,19.1,16.01,12.92,27.29,20.2c15.65,10.19,25.65,21.01,30.02,32.48s4.64,22.2.82,32.2c-3.82,10.01-10.28,18.19-19.38,24.56-9.1,6.37-19.29,9.73-30.57,10.1-11.28.36-22.2-3.46-32.75-11.46-10.55-8.01-19.1-21.65-25.65-40.94Z" fill="url(#1776867897935-3533043_radial-gradient-2)"></path><path class="cls-3" d="M106.97,442.9c2.94,10.39,6.92,18.07,11.93,23.02s10.38,7.73,16.08,8.33c5.71.6,11.27-.4,16.69-3.01s10.1-6.36,14.03-11.24c3.94-4.88,6.49-10.43,7.65-16.65s.45-12.49-2.14-18.83c-2.59-6.33-7.74-12.22-15.46-17.67-6.93-5.02-12.54-9.91-16.83-14.7-4.28-4.78-7.78-9.84-10.49-15.19s-5.15-11.49-7.33-18.45c-1.13-3.15-2.47-3.81-4.03-1.99-.78.91-1.87,3.37-3.27,7.39s-2.85,9.11-4.35,15.29-2.77,12.93-3.81,20.25-1.52,14.75-1.42,22.29,1.01,14.59,2.74,21.16Z" fill="url(#1776867897935-3533043_linear-gradient-4)"></path></g></svg>