<svg data-name="Layer 1" xmlns="http://www.w3.org/2000/svg" style="" viewBox="0 0 512 512"><g class="nc-icon-wrapper"><defs><linearGradient id="1776867897948-5289588_linear-gradient" x1="256" y1="1592" x2="256" y2="1080" gradientTransform="translate(0 -1080)" gradientUnits="userSpaceOnUse"><stop offset="0" stop-color="#ff9500"></stop><stop offset=".19" stop-color="#ffad00"></stop><stop offset=".54" stop-color="#ffd500"></stop><stop offset=".83" stop-color="#ffed00"></stop><stop offset="1" stop-color="#fff600"></stop></linearGradient><linearGradient id="1776867897948-5289588_linear-gradient-2" x1="162.04" y1="1401.12" x2="349.98" y2="1401.12" gradientTransform="translate(0 -1111)" gradientUnits="userSpaceOnUse"><stop offset="0" stop-color="#cfd7e6"></stop><stop offset=".04" stop-color="#dae0ec"></stop><stop offset=".13" stop-color="#eef1f6"></stop><stop offset=".22" stop-color="#fbfcfd"></stop><stop offset=".3" stop-color="#fff"></stop><stop offset=".7" stop-color="#fff"></stop><stop offset=".78" stop-color="#fbfcfd"></stop><stop offset=".87" stop-color="#eef1f6"></stop><stop offset=".96" stop-color="#dae0ec"></stop><stop offset="1" stop-color="#cfd7e6"></stop></linearGradient></defs><path class="cls-4" d="M256,0c35.3,0,68.41,6.64,99.34,19.92,30.93,13.28,58.13,31.66,81.6,55.13s41.85,50.67,55.13,81.6c13.28,30.93,19.92,64.05,19.92,99.34s-6.64,68.41-19.92,99.34c-13.28,30.93-31.66,58.13-55.13,81.6s-50.67,41.85-81.6,55.13c-30.93,13.28-64.05,19.92-99.34,19.92s-68.41-6.64-99.34-19.92c-30.93-13.28-58.13-31.66-81.6-55.13s-41.85-50.67-55.13-81.6C6.64,324.41,0,291.3,0,256s6.64-68.41,19.92-99.34c13.28-30.93,31.66-58.13,55.13-81.6s50.67-41.85,81.6-55.13C187.59,6.64,220.7,0,256,0Z" fill="url(#1776867897948-5289588_linear-gradient)"></path><path class="cls-3" d="M256,256c25.11,0,47.94,4.18,68.5,12.55,20.56,8.37,37.03,19.83,49.4,34.39,12.37,14.56,18.56,30.75,18.56,48.58,0,14.56-3.37,27.57-10.1,39.03-6.73,11.46-19.2,17.19-37.39,17.19-13.1,0-27.02-2.09-41.76-6.28-14.74-4.18-30.48-6.1-47.22-5.73-16.74-.36-32.48,1.55-47.22,5.73-14.74,4.18-28.66,6.28-41.76,6.28-18.19,0-30.66-5.73-37.39-17.19-6.73-11.46-10.1-24.47-10.1-39.03,0-17.83,6.19-34.02,18.56-48.58,12.37-14.56,28.84-26.02,49.4-34.39s43.39-12.55,68.5-12.55Z" fill="#1a1626"></path><path class="cls-1" d="M256,359.16c9.83-4.73,19.47-5.91,28.93-3.55,9.46,2.37,18.01,6.28,25.65,11.74,7.64,5.46,13.74,10.64,18.29,15.56s6.82,7.37,6.82,7.37c0,0-2.73-.64-8.19-1.91s-12.28-2.82-20.47-4.64c-8.19-1.82-16.83-3.46-25.93-4.91-9.1-1.46-17.47-2.18-25.11-2.18s-16.01.73-25.11,2.18c-9.1,1.46-17.74,3.09-25.93,4.91-8.19,1.82-15.01,3.37-20.47,4.64s-8.19,1.91-8.19,1.91c0,0,2.27-2.46,6.82-7.37s10.64-10.1,18.29-15.56c7.64-5.46,16.19-9.37,25.65-11.74,9.46-2.37,19.1-1.18,28.93,3.55Z" fill="#fd7383"></path><path class="cls-2" d="M347.7,299.12c1.82,1.46,2.55,3.18,2.18,5.19s-2.18,3-5.46,3h-176.85c-3.28,0-5.09-1-5.46-3s.55-3.73,2.73-5.19c11.28-8.01,24.47-14.37,39.57-19.1,15.1-4.73,32.3-7.1,51.58-7.1s36.48,2.37,51.58,7.1c15.1,4.73,28.47,11.1,40.12,19.1Z" fill="url(#1776867897948-5289588_linear-gradient-2)"></path><path class="cls-3" d="M397.37,234.17c-9.1-4.73-20.56-10.1-34.39-16.1s-27.66-11.64-41.48-16.92c-13.83-5.28-25.65-9.37-35.48-12.28-2.91-1.09-4.37-2.73-4.37-4.91s1.27-3.82,3.82-4.91c17.83-8.37,35.3-16.92,52.4-25.65,17.1-8.73,35.3-18.38,54.58-28.93,3.64-1.82,6.64-.82,9.01,3s2.09,7.19-.82,10.1c-8.01,8.01-17.1,15.65-27.29,22.93-10.19,7.28-19.29,13.65-27.29,19.1,9.1,5.09,19.47,11.55,31.11,19.38,11.64,7.82,21.65,15.56,30.02,23.2,3.28,3.28,3.28,6.55,0,9.83s-6.55,4-9.83,2.18ZM104.8,222.16c8.37-7.64,18.38-15.37,30.02-23.2,11.64-7.82,22.02-14.28,31.11-19.38-8.01-5.46-17.1-11.83-27.29-19.1s-19.29-14.92-27.29-22.93c-2.91-2.91-3.18-6.28-.82-10.1s5.37-4.82,9.01-3c19.29,10.55,37.48,20.2,54.58,28.93,17.1,8.73,34.57,17.28,52.4,25.65,2.55,1.09,3.82,2.73,3.82,4.91s-1.46,3.82-4.37,4.91c-9.83,2.91-21.65,7-35.48,12.28s-27.66,10.92-41.48,16.92-25.29,11.37-34.39,16.1c-3.28,1.82-6.55,1.09-9.83-2.18s-3.28-6.55,0-9.83Z" fill="#1a1626"></path></g></svg>