<svg data-name="Layer 1" xmlns="http://www.w3.org/2000/svg" style="" viewBox="0 0 480.26 512"><g class="nc-icon-wrapper"><defs><linearGradient id="1776867897909-3925460_linear-gradient" x1="240.13" y1="1592" x2="240.13" y2="1090.24" gradientTransform="translate(0 -1080)" gradientUnits="userSpaceOnUse"><stop offset="0" stop-color="#ff9500"></stop><stop offset=".19" stop-color="#ffad00"></stop><stop offset=".54" stop-color="#ffd500"></stop><stop offset=".83" stop-color="#ffed00"></stop><stop offset="1" stop-color="#fff600"></stop></linearGradient><linearGradient id="1776867897909-3925460_linear-gradient-2" x1="202.75" y1="1468.35" x2="277.5" y2="1468.35" gradientTransform="translate(0 -1080)" gradientUnits="userSpaceOnUse"><stop offset="0" stop-color="#cfd7e6"></stop><stop offset=".04" stop-color="#dae0ec"></stop><stop offset=".13" stop-color="#eef1f6"></stop><stop offset=".22" stop-color="#fbfcfd"></stop><stop offset=".3" stop-color="#fff"></stop><stop offset=".7" stop-color="#fff"></stop><stop offset=".78" stop-color="#fbfcfd"></stop><stop offset=".87" stop-color="#eef1f6"></stop><stop offset=".96" stop-color="#dae0ec"></stop><stop offset="1" stop-color="#cfd7e6"></stop></linearGradient><radialGradient id="1776867897909-3925460_radial-gradient" cx="240.13" cy="1239.71" fx="240.13" fy="1239.71" r="67.07" gradientTransform="matrix(1 0 0 .75 0 -883.52)" gradientUnits="userSpaceOnUse"><stop offset="0" stop-color="#fff"></stop><stop offset=".42" stop-color="#fff"></stop><stop offset="1" stop-color="#fff" stop-opacity="0"></stop></radialGradient><radialGradient id="1776867897909-3925460_radial-gradient-2" cx="240.13" cy="1299.86" fx="240.13" fy="1299.86" r="63.51" gradientTransform="matrix(1 0 0 .8 0 -917.77)" gradientUnits="userSpaceOnUse"><stop offset="0" stop-color="#fff"></stop><stop offset=".42" stop-color="#fff"></stop><stop offset="1" stop-color="#fff" stop-opacity="0"></stop></radialGradient><radialGradient id="1776867897909-3925460_radial-gradient-3" cx="141.24" cy="1132.96" fx="141.24" fy="1132.96" r="50.69" gradientTransform="translate(-67 -1002.45)" gradientUnits="userSpaceOnUse"><stop offset="0" stop-color="#fff"></stop><stop offset=".42" stop-color="#fff"></stop><stop offset="1" stop-color="#fff" stop-opacity="0"></stop></radialGradient><radialGradient id="1776867897909-3925460_radial-gradient-4" cx="108.54" cy="1169.23" fx="108.54" fy="1169.23" r="50.69" gradientTransform="translate(0 -1076.45)" gradientUnits="userSpaceOnUse"><stop offset="0" stop-color="#fff"></stop><stop offset=".42" stop-color="#fff"></stop><stop offset="1" stop-color="#fff" stop-opacity="0"></stop></radialGradient><radialGradient id="1776867897909-3925460_radial-gradient-5" cx="54.86" cy="1195.21" fx="54.86" fy="1195.21" r="50.69" gradientTransform="translate(110 -1129.45)" gradientUnits="userSpaceOnUse"><stop offset="0" stop-color="#fff"></stop><stop offset=".42" stop-color="#fff"></stop><stop offset="1" stop-color="#fff" stop-opacity="0"></stop></radialGradient><radialGradient id="1776867897909-3925460_radial-gradient-6" cx="64.62" cy="1142.27" fx="64.62" fy="1142.27" r="50.69" gradientTransform="translate(90 -1021.45)" gradientUnits="userSpaceOnUse"><stop offset="0" stop-color="#fff"></stop><stop offset=".42" stop-color="#fff"></stop><stop offset="1" stop-color="#fff" stop-opacity="0"></stop></radialGradient><radialGradient id="1776867897909-3925460_radial-gradient-7" cx="-1665.82" cy="1078.84" fx="-1665.82" fy="1078.84" r="50.73" gradientTransform="matrix(-1 0 0 1 -1259.7 -948.45)" gradientUnits="userSpaceOnUse"><stop offset="0" stop-color="#fff"></stop><stop offset=".42" stop-color="#fff"></stop><stop offset="1" stop-color="#fff" stop-opacity="0"></stop></radialGradient><radialGradient id="1776867897909-3925460_radial-gradient-8" cx="-1809.52" cy="1169.23" fx="-1809.52" fy="1169.23" r="50.7" gradientTransform="matrix(-1 0 0 1 -1437.7 -1076.45)" gradientUnits="userSpaceOnUse"><stop offset="0" stop-color="#fff"></stop><stop offset=".42" stop-color="#fff"></stop><stop offset="1" stop-color="#fff" stop-opacity="0"></stop></radialGradient><radialGradient id="1776867897909-3925460_radial-gradient-9" cx="-1752.69" cy="1141.58" fx="-1752.69" fy="1141.58" r="50.73" gradientTransform="matrix(-1 0 0 1 -1437.7 -1076.45)" gradientUnits="userSpaceOnUse"><stop offset="0" stop-color="#fff"></stop><stop offset=".42" stop-color="#fff"></stop><stop offset="1" stop-color="#fff" stop-opacity="0"></stop></radialGradient><radialGradient id="1776867897909-3925460_radial-gradient-10" cx="-1742.93" cy="1088.64" fx="-1742.93" fy="1088.64" r="50.73" gradientTransform="matrix(-1 0 0 1 -1417.7 -968.45)" gradientUnits="userSpaceOnUse"><stop offset="0" stop-color="#fff"></stop><stop offset=".42" stop-color="#fff"></stop><stop offset="1" stop-color="#fff" stop-opacity="0"></stop></radialGradient></defs><path class="cls-3" d="M96.26,146.43c0-13.65,3.41-24.49,10.24-32.51s15.27-13.31,25.34-15.87c10.07-2.56,20.14-2.56,30.21,0,10.07,2.56,18.52,7.85,25.34,15.87s10.24,18.86,10.24,32.51-3.41,23.98-10.24,32c-6.83,8.02-15.27,13.4-25.34,16.13-10.07,2.73-20.14,2.73-30.21,0-10.07-2.73-18.52-8.11-25.34-16.13-6.83-8.02-10.24-18.69-10.24-32ZM282.62,146.43c0-13.65,3.41-24.49,10.24-32.51,6.83-8.02,15.27-13.31,25.34-15.87s20.14-2.56,30.21,0c10.07,2.56,18.52,7.85,25.34,15.87,6.83,8.02,10.24,18.86,10.24,32.51s-3.41,23.98-10.24,32c-6.83,8.02-15.27,13.4-25.34,16.13-10.07,2.73-20.14,2.73-30.21,0s-18.52-8.11-25.34-16.13c-6.83-8.02-10.24-18.69-10.24-32Z" fill="#cfd8dd"></path><path class="cls-19" d="M475.65,227.84c1.37,9.9,1.54,18.26.51,25.09-1.02,6.83-1.54,15.53-1.54,26.11H5.63c0-7.17-.09-14.68-.26-22.53s-.34-14.59-.51-20.22-.26-8.45-.26-8.45l49.66-15.87,38.4,36.86,34.3-45.06,105.47,30.21,113.15-27.65,20.99,33.79,24.58-22.02,26.62,53.25,26.62-57.34,31.23,13.82Z" fill="#e8a329"></path><path class="cls-20" d="M356.86,133.12s-2.05,1.71-6.14,5.12-8.79,8.28-14.08,14.59c-5.29,6.31-9.9,13.99-13.82,23.04-3.93,9.05-5.89,19.2-5.89,30.46s1.96,21.93,5.89,30.98,8.53,16.73,13.82,23.04,9.98,11.18,14.08,14.59,6.14,5.12,6.14,5.12H123.39s2.13-2.05,6.4-6.14,9.22-9.64,14.85-16.64,10.58-14.85,14.85-23.55,6.4-17.83,6.4-27.39-2.13-18.26-6.4-27.14c-4.27-8.87-9.22-16.73-14.85-23.55s-10.58-12.29-14.85-16.38-6.4-6.14-6.4-6.14h233.47Z" fill="#ff4d00"></path><path class="cls-1" d="M329.73,133.12s-2.3,2.99-6.91,8.96-9.13,14.42-13.57,25.34c-4.44,10.92-6.66,23.89-6.66,38.91s2.22,28.5,6.66,39.42c4.44,10.92,8.96,19.37,13.57,25.34s6.91,8.96,6.91,8.96h-179.2s1.45-2.05,4.35-6.14,6.31-9.64,10.24-16.64,7.34-14.85,10.24-23.55,4.35-17.83,4.35-27.39-1.45-18.18-4.35-26.88-6.31-16.55-10.24-23.55-7.34-12.54-10.24-16.64-4.35-6.14-4.35-6.14h179.2Z" fill="#ff8801"></path><path class="cls-13" d="M306.18,133.12s-1.96,2.82-5.89,8.45-7.85,13.91-11.78,24.83c-3.93,10.92-5.89,24.23-5.89,39.94s1.96,29.53,5.89,40.45,7.85,19.2,11.78,24.83c3.93,5.63,5.89,8.45,5.89,8.45h-132.1s2.13-3.58,6.4-10.75,8.45-16.38,12.54-27.65c4.1-11.26,6.14-23.04,6.14-35.33s-2.05-23.55-6.14-34.82c-4.1-11.26-8.28-20.48-12.54-27.65s-6.4-10.75-6.4-10.75h132.1Z" fill="#ffe12c"></path><path class="cls-1" d="M217.6,155.14c3.07,2.39,5.63,7.34,7.68,14.85,2.05,7.51,3.67,15.87,4.86,25.09s1.71,18.18,1.54,26.88-1.11,15.45-2.82,20.22c-1.02,3.41-2.22,3.5-3.58.26s-2.82-8.45-4.35-15.62-2.9-15.19-4.1-24.06-2.05-17.24-2.56-25.09c-.51-7.85-.51-13.99,0-18.43s1.62-5.8,3.33-4.1ZM259.58,141.82c2.39,4.44,4.01,12.2,4.86,23.3.85,11.09.94,23.55.26,37.38-.68,13.82-1.88,27.05-3.58,39.68s-3.75,22.36-6.14,29.18c-1.71,4.78-2.99,4.69-3.84-.26s-1.37-12.89-1.54-23.81-.09-22.95.26-36.1c.34-13.14,1.02-25.43,2.05-36.86,1.02-11.43,2.13-20.39,3.33-26.88,1.19-6.49,2.65-8.36,4.35-5.63Z" fill="#ff8801"></path><path class="cls-16" d="M4.61,227.84l26.62-2.56,27.14,41.98,27.14-38.91,25.09,16.38,58.37-31.23,50.18,60.93,18.43-29.7,24.06,18.94,38.4-41.47,22.53,12.8,43.01-21.5,31.23,42.5,19.46-15.87,22.02,30.21,37.38-42.5c3.07,15.02,4.61,30.04,4.61,45.06,0,33.11-6.23,64.09-18.69,92.93-12.46,28.84-29.7,54.19-51.71,76.03-22.02,21.85-47.53,39-76.54,51.46-29.01,12.46-60.07,18.69-93.18,18.69s-64.17-6.23-93.18-18.69c-29.01-12.46-54.53-29.61-76.54-51.46-22.02-21.85-39.25-47.19-51.71-76.03C6.23,336.98,0,306.01,0,272.9c0-15.02,1.54-30.04,4.61-45.06Z" fill="url(#1776867897909-3925460_linear-gradient)"></path><path class="cls-14" d="M295.94,433.15c0,15.36-3.75,27.73-11.26,37.12-7.51,9.39-16.81,15.62-27.9,18.69-11.09,3.07-22.19,3.07-33.28,0s-20.39-9.3-27.9-18.69c-7.51-9.39-11.26-21.76-11.26-37.12v-9.73c0-15.36,3.75-27.65,11.26-36.86,7.51-9.22,16.81-15.36,27.9-18.43s22.19-3.07,33.28,0c11.09,3.07,20.39,9.22,27.9,18.43,7.51,9.22,11.26,21.5,11.26,36.86v9.73Z" fill="#1a1626"></path><path class="cls-12" d="M202.75,400.38c3.75-7.17,8.96-12.97,15.62-17.41s13.91-6.66,21.76-6.66,15.1,2.22,21.76,6.66,11.86,10.24,15.62,17.41h-74.75Z" fill="url(#1776867897909-3925460_linear-gradient-2)"></path><path class="cls-2" d="M210.94,468.99s1.37-1.37,4.1-4.1,6.4-4.86,11.01-6.4,9.3-.26,14.08,3.84c4.78-4.1,9.47-5.38,14.08-3.84s8.28,3.67,11.01,6.4,4.1,4.1,4.1,4.1c-8.87,6.83-18.6,10.24-29.18,10.24s-20.31-3.41-29.18-10.24Z" fill="#fd7383"></path><path class="cls-18" d="M209.92,304.13c0,11.26-2.65,21.42-7.94,30.46s-12.46,16.21-21.5,21.5c-9.05,5.29-19.2,7.94-30.46,7.94s-20.91-2.65-29.95-7.94c-9.05-5.29-16.3-12.46-21.76-21.5s-8.19-19.2-8.19-30.46,2.73-20.91,8.19-29.95,12.71-16.21,21.76-21.5c9.05-5.29,19.03-7.94,29.95-7.94s21.42,2.65,30.46,7.94,16.21,12.46,21.5,21.5,7.94,19.03,7.94,29.95Z" fill="#fff"></path><path class="cls-14" d="M180.09,304.28c0-8.27-2.95-15.29-8.83-21.07-5.88-5.78-12.96-8.67-21.22-8.67s-15.34,2.9-21.21,8.69-8.81,12.82-8.81,21.08,2.95,15.29,8.83,21.07,12.96,8.67,21.22,8.67c8.27,0,15.34-2.9,21.21-8.69,5.88-5.79,8.81-12.82,8.81-21.08Z" fill="#1a1626"></path><path class="cls-18" d="M389.63,304.13c0,11.26-2.65,21.42-7.94,30.46s-12.46,16.21-21.5,21.5-19.2,7.94-30.46,7.94-20.91-2.65-29.95-7.94c-9.05-5.29-16.3-12.46-21.76-21.5s-8.19-19.2-8.19-30.46,2.73-20.91,8.19-29.95,12.71-16.21,21.76-21.5c9.05-5.29,19.03-7.94,29.95-7.94s21.42,2.65,30.46,7.94,16.21,12.46,21.5,21.5,7.94,19.03,7.94,29.95Z" fill="#fff"></path><path class="cls-14" d="M360.09,304.28c0-8.27-2.95-15.29-8.83-21.07-5.88-5.78-12.96-8.67-21.22-8.67s-15.34,2.9-21.21,8.69c-5.88,5.79-8.81,12.82-8.81,21.08,0,8.27,2.95,15.29,8.83,21.07s12.96,8.67,21.22,8.67c8.27,0,15.34-2.9,21.21-8.69,5.88-5.79,8.81-12.82,8.81-21.08Z" fill="#1a1626"></path><path class="cls-3" d="M307.2,50.18c0,11.26-3.24,20.65-9.73,28.16-6.49,7.51-14.85,13.14-25.09,16.9s-20.99,5.63-32.26,5.63-22.02-1.88-32.26-5.63-18.6-9.39-25.09-16.9-9.73-16.9-9.73-28.16,3.24-20.14,9.73-27.65,14.85-13.14,25.09-16.9c10.24-3.75,20.99-5.63,32.26-5.63s22.02,1.88,32.26,5.63,18.6,9.39,25.09,16.9c6.49,7.51,9.73,16.73,9.73,27.65Z" fill="#cfd8dd"></path><path class="cls-3" d="M303.62,117.76c0,13.31-4.27,23.98-12.8,32s-19.11,13.4-31.74,16.13-25.26,2.73-37.89,0-23.21-8.11-31.74-16.13c-8.53-8.02-12.8-18.69-12.8-32s4.27-24.49,12.8-32.51c8.53-8.02,19.11-13.4,31.74-16.13s25.26-2.73,37.89,0,23.21,8.11,31.74,16.13,12.8,18.86,12.8,32.51ZM124.93,125.44c0,13.65-3.41,24.49-10.24,32.51-6.83,8.02-15.27,13.4-25.34,16.13-10.07,2.73-20.14,2.73-30.21,0-10.07-2.73-18.52-8.11-25.34-16.13-6.83-8.02-10.24-18.86-10.24-32.51s3.41-23.98,10.24-32c6.83-8.02,15.27-13.4,25.34-16.13,10.07-2.73,20.14-2.73,30.21,0s18.52,8.11,25.34,16.13c6.83,8.02,10.24,18.69,10.24,32Z" fill="#cfd8dd"></path><path class="cls-3" d="M159.23,87.55c0,13.31-3.41,23.98-10.24,32-6.83,8.02-15.27,13.4-25.34,16.13-10.07,2.73-20.14,2.73-30.21,0s-18.52-8.11-25.34-16.13-10.24-18.69-10.24-32,3.41-24.49,10.24-32.51,15.27-13.4,25.34-16.13,20.14-2.73,30.21,0c10.07,2.73,18.52,8.11,25.34,16.13s10.24,18.86,10.24,32.51Z" fill="#cfd8dd"></path><path class="cls-3" d="M215.55,60.42c0,13.31-3.41,23.98-10.24,32s-15.27,13.4-25.34,16.13c-10.07,2.73-20.14,2.73-30.21,0s-18.52-8.11-25.34-16.13-10.24-18.69-10.24-32,3.41-24.49,10.24-32.51c6.83-8.02,15.27-13.4,25.34-16.13s20.14-2.73,30.21,0c10.07,2.73,18.52,8.11,25.34,16.13s10.24,18.86,10.24,32.51Z" fill="#cfd8dd"></path><path class="cls-3" d="M205.82,115.71c-.34-13.31-3.84-24.06-10.5-32.26s-15.02-13.57-25.09-16.13-20.14-2.56-30.21,0-18.52,7.94-25.34,16.13c-6.83,8.19-10.24,18.94-10.24,32.26s3.41,24.06,10.24,32.26c6.83,8.19,15.27,13.57,25.34,16.13,10.07,2.56,20.14,2.56,30.21,0s18.52-7.94,25.34-16.13,10.24-18.94,10.24-32.26ZM355.33,125.44c0-13.31,3.41-23.98,10.24-32s15.27-13.4,25.34-16.13,20.14-2.73,30.21,0,18.52,8.11,25.34,16.13,10.24,18.69,10.24,32-3.41,24.49-10.24,32.51-15.27,13.4-25.34,16.13c-10.07,2.73-20.14,2.73-30.21,0-10.07-2.73-18.52-8.11-25.34-16.13s-10.24-18.86-10.24-32.51Z" fill="#cfd8dd"></path><path class="cls-3" d="M321.02,87.55c0-13.65,3.41-24.49,10.24-32.51,6.83-8.02,15.27-13.4,25.34-16.13s20.14-2.73,30.21,0,18.52,8.11,25.34,16.13c6.83,8.02,10.24,18.86,10.24,32.51s-3.41,23.98-10.24,32c-6.83,8.02-15.27,13.4-25.34,16.13s-20.14,2.73-30.21,0-18.52-8.11-25.34-16.13c-6.83-8.02-10.24-18.69-10.24-32Z" fill="#cfd8dd"></path><path class="cls-3" d="M264.19,59.9c0-13.31,3.41-23.98,10.24-32s15.27-13.4,25.34-16.13,20.14-2.73,30.21,0,18.52,8.11,25.34,16.13,10.24,18.69,10.24,32-3.41,24.49-10.24,32.51c-6.83,8.02-15.27,13.4-25.34,16.13s-20.14,2.73-30.21,0-18.52-8.11-25.34-16.13-10.24-18.86-10.24-32.51Z" fill="#cfd8dd"></path><path class="cls-3" d="M274.43,115.2c0-13.31,3.41-23.98,10.24-32s15.27-13.4,25.34-16.13,20.14-2.73,30.21,0,18.52,8.11,25.34,16.13c6.83,8.02,10.24,18.69,10.24,32s-3.41,24.49-10.24,32.51-15.27,13.4-25.34,16.13-20.14,2.73-30.21,0-18.52-8.11-25.34-16.13-10.24-18.86-10.24-32.51Z" fill="#cfd8dd"></path><path class="cls-15" d="M307.2,50.18c0,11.26-3.24,20.65-9.73,28.16-6.49,7.51-14.85,13.14-25.09,16.9s-20.99,5.63-32.26,5.63-22.02-1.88-32.26-5.63-18.6-9.39-25.09-16.9-9.73-16.9-9.73-28.16,3.24-20.14,9.73-27.65,14.85-13.14,25.09-16.9c10.24-3.75,20.99-5.63,32.26-5.63s22.02,1.88,32.26,5.63,18.6,9.39,25.09,16.9c6.49,7.51,9.73,16.73,9.73,27.65Z" fill="url(#1776867897909-3925460_radial-gradient)"></path><path class="cls-11" d="M303.62,117.76c0,13.31-4.27,23.98-12.8,32s-19.11,13.4-31.74,16.13-25.26,2.73-37.89,0-23.21-8.11-31.74-16.13c-8.53-8.02-12.8-18.69-12.8-32s4.27-24.49,12.8-32.51c8.53-8.02,19.11-13.4,31.74-16.13s25.26-2.73,37.89,0,23.21,8.11,31.74,16.13,12.8,18.86,12.8,32.51Z" fill="url(#1776867897909-3925460_radial-gradient-2)"></path><path class="cls-10" d="M124.93,125.44c0,13.31-3.41,23.98-10.24,32s-15.27,13.4-25.34,16.13c-10.07,2.73-20.14,2.73-30.21,0s-18.52-8.11-25.34-16.13-10.24-18.69-10.24-32,3.41-24.49,10.24-32.51c6.83-8.02,15.27-13.4,25.34-16.13s20.14-2.73,30.21,0c10.07,2.73,18.52,8.11,25.34,16.13,6.83,8.02,10.24,18.86,10.24,32.51Z" fill="url(#1776867897909-3925460_radial-gradient-3)"></path><path class="cls-7" d="M159.23,87.55c0,13.31-3.41,23.98-10.24,32-6.83,8.02-15.27,13.4-25.34,16.13-10.07,2.73-20.14,2.73-30.21,0s-18.52-8.11-25.34-16.13-10.24-18.69-10.24-32,3.41-24.49,10.24-32.51,15.27-13.4,25.34-16.13,20.14-2.73,30.21,0c10.07,2.73,18.52,8.11,25.34,16.13s10.24,18.86,10.24,32.51Z" fill="url(#1776867897909-3925460_radial-gradient-4)"></path><path class="cls-6" d="M215.55,60.42c0,13.31-3.41,23.98-10.24,32s-15.27,13.4-25.34,16.13c-10.07,2.73-20.14,2.73-30.21,0s-18.52-8.11-25.34-16.13-10.24-18.69-10.24-32,3.41-24.49,10.24-32.51c6.83-8.02,15.27-13.4,25.34-16.13s20.14-2.73,30.21,0c10.07,2.73,18.52,8.11,25.34,16.13s10.24,18.86,10.24,32.51Z" fill="url(#1776867897909-3925460_radial-gradient-5)"></path><path class="cls-5" d="M205.31,115.71c0,13.31-3.41,23.98-10.24,32s-15.27,13.4-25.34,16.13c-10.07,2.73-20.14,2.73-30.21,0s-18.52-8.11-25.34-16.13-10.24-18.69-10.24-32,3.41-24.49,10.24-32.51,15.27-13.4,25.34-16.13,20.14-2.73,30.21,0c10.07,2.73,18.52,8.11,25.34,16.13s10.24,18.86,10.24,32.51Z" fill="url(#1776867897909-3925460_radial-gradient-6)"></path><path class="cls-4" d="M355.33,125.44c0-13.31,3.41-23.98,10.24-32s15.27-13.4,25.34-16.13,20.14-2.73,30.21,0,18.52,8.11,25.34,16.13,10.24,18.69,10.24,32-3.41,24.49-10.24,32.51-15.27,13.4-25.34,16.13-20.14,2.73-30.21,0-18.52-8.11-25.34-16.13-10.24-18.86-10.24-32.51Z" fill="url(#1776867897909-3925460_radial-gradient-7)"></path><path class="cls-9" d="M321.02,87.55c0-13.65,3.41-24.49,10.24-32.51,6.83-8.02,15.27-13.4,25.34-16.13s20.14-2.73,30.21,0,18.52,8.11,25.34,16.13c6.83,8.02,10.24,18.86,10.24,32.51s-3.41,23.98-10.24,32c-6.83,8.02-15.27,13.4-25.34,16.13s-20.14,2.73-30.21,0-18.52-8.11-25.34-16.13c-6.83-8.02-10.24-18.69-10.24-32Z" fill="url(#1776867897909-3925460_radial-gradient-8)"></path><path class="cls-8" d="M264.19,59.9c0-13.31,3.41-23.98,10.24-32s15.27-13.4,25.34-16.13,20.14-2.73,30.21,0,18.52,8.11,25.34,16.13,10.24,18.69,10.24,32-3.41,24.49-10.24,32.51c-6.83,8.02-15.27,13.4-25.34,16.13s-20.14,2.73-30.21,0-18.52-8.11-25.34-16.13-10.24-18.86-10.24-32.51Z" fill="url(#1776867897909-3925460_radial-gradient-9)"></path><path class="cls-17" d="M274.43,115.2c0-13.31,3.41-23.98,10.24-32s15.27-13.4,25.34-16.13,20.14-2.73,30.21,0,18.52,8.11,25.34,16.13c6.83,8.02,10.24,18.69,10.24,32s-3.41,24.49-10.24,32.51-15.27,13.4-25.34,16.13-20.14,2.73-30.21,0-18.52-8.11-25.34-16.13-10.24-18.86-10.24-32.51Z" fill="url(#1776867897909-3925460_radial-gradient-10)"></path></g></svg>