<svg data-name="Layer 1" xmlns="http://www.w3.org/2000/svg" style="" viewBox="0 0 512.55 512"><g class="nc-icon-wrapper"><defs><linearGradient id="1776867897954-5095452_linear-gradient" x1="744.76" y1="1008.35" x2="744.76" y2="496.35" gradientTransform="matrix(-1 0 0 1 1001.03 -496.35)" gradientUnits="userSpaceOnUse"><stop offset="0" stop-color="#ff9500"></stop><stop offset=".19" stop-color="#ffad00"></stop><stop offset=".54" stop-color="#ffd500"></stop><stop offset=".83" stop-color="#ffed00"></stop><stop offset="1" stop-color="#fff600"></stop></linearGradient><radialGradient id="1776867897954-5095452_radial-gradient" cx="62.28" cy="803.74" fx="62.28" fy="747.74" r="147" gradientTransform="matrix(.55 0 0 .47 116.24 -127.11)" gradientUnits="userSpaceOnUse"><stop offset="0" stop-color="#bdebff" stop-opacity=".7"></stop><stop offset=".22" stop-color="#baeafe" stop-opacity=".76"></stop><stop offset=".38" stop-color="#b1e7fc" stop-opacity=".81"></stop><stop offset=".51" stop-color="#a2e2f8" stop-opacity=".85"></stop><stop offset=".63" stop-color="#8cdbf3" stop-opacity=".89"></stop><stop offset=".74" stop-color="#70d3ec" stop-opacity=".92"></stop><stop offset=".85" stop-color="#4dc8e3" stop-opacity=".96"></stop><stop offset=".95" stop-color="#25bbd9" stop-opacity=".98"></stop><stop offset="1" stop-color="#0fb4d4"></stop></radialGradient><radialGradient id="1776867897954-5095452_radial-gradient-2" cx="62.28" cy="803.74" fx="62.28" fy="747.74" r="147" gradientTransform="matrix(.55 0 0 .47 329.34 -127.11)" gradientUnits="userSpaceOnUse"><stop offset="0" stop-color="#bdebff" stop-opacity=".7"></stop><stop offset=".22" stop-color="#baeafe" stop-opacity=".76"></stop><stop offset=".38" stop-color="#b1e7fc" stop-opacity=".81"></stop><stop offset=".51" stop-color="#a2e2f8" stop-opacity=".85"></stop><stop offset=".63" stop-color="#8cdbf3" stop-opacity=".89"></stop><stop offset=".74" stop-color="#70d3ec" stop-opacity=".92"></stop><stop offset=".85" stop-color="#4dc8e3" stop-opacity=".96"></stop><stop offset=".95" stop-color="#25bbd9" stop-opacity=".98"></stop><stop offset="1" stop-color="#0fb4d4"></stop></radialGradient></defs><path class="cls-5" d="M256.27,0c-35.34,0-68.49,6.56-99.45,19.67-30.96,13.11-58.19,31.42-81.69,54.92s-41.89,50.73-55.19,81.69C6.65,187.24,0,220.39,0,255.73s6.65,68.49,19.94,99.45c13.3,30.96,31.69,58.19,55.19,81.69s50.73,41.89,81.69,55.19c30.96,13.3,64.11,19.94,99.45,19.94s68.49-6.65,99.45-19.94c30.96-13.3,58.19-31.69,81.69-55.19s41.89-50.73,55.19-81.69c13.3-30.96,19.94-64.11,19.94-99.45s-6.65-68.49-19.94-99.45c-13.3-30.96-31.69-58.19-55.19-81.69s-50.73-41.8-81.69-54.92C324.76,6.56,291.61,0,256.27,0Z" fill="url(#1776867897954-5095452_linear-gradient)"></path><path class="cls-6" d="M231.4,238.32c0,21.77-7.95,40.6-23.86,56.51s-35.58,23.86-59.02,23.86c-21.77,0-40.6-7.95-56.51-23.86s-23.86-34.74-23.86-56.51,7.95-40.6,23.86-56.51c15.91-15.91,34.74-23.86,56.51-23.86,23.44,0,43.11,7.95,59.02,23.86,15.91,15.91,23.86,34.74,23.86,56.51Z" fill="#fff"></path><path class="cls-3" d="M153.66,178.76c-8.24,0-15.98,1.53-23.2,4.59s-13.58,7.33-19.06,12.81-9.78,11.83-12.88,19.06c-3.11,7.22-4.66,14.96-4.66,23.2s1.54,15.98,4.64,23.2c3.1,7.22,7.39,13.58,12.87,19.06s11.83,9.77,19.05,12.88c7.22,3.1,14.96,4.65,23.2,4.65s15.98-1.55,23.2-4.65c7.23-3.1,13.58-7.39,19.06-12.88s9.78-11.83,12.88-19.06c3.11-7.22,4.66-14.96,4.66-23.2s-1.54-15.98-4.64-23.2c-3.1-7.22-7.39-13.58-12.87-19.06s-11.83-9.75-19.05-12.81-14.96-4.59-23.2-4.59Z" fill="#1a1626"></path><path class="cls-6" d="M155.19,254.82c6.19,0,11.66,2.64,16.39,7.92s7.1,11.57,7.1,18.85c0,7.65-2.37,14.12-7.1,19.4s-10.2,7.92-16.39,7.92c-6.56,0-12.11-2.64-16.67-7.92s-6.83-11.75-6.83-19.4,2.28-13.57,6.83-18.85,10.11-7.92,16.67-7.92ZM117.49,218.21c4.74,0,8.83,1.91,12.29,5.74s5.19,8.47,5.19,13.93-1.73,10.11-5.19,13.93-7.56,5.74-12.29,5.74-8.74-1.91-12.02-5.74-4.92-8.47-4.92-13.93,1.64-10.11,4.92-13.93,7.29-5.74,12.02-5.74Z" fill="#fff"></path><path class="cls-6" d="M444.85,238.32c0,21.77-7.95,40.6-23.86,56.51s-35.58,23.86-59.02,23.86c-21.77,0-40.6-7.95-56.51-23.86s-23.86-34.74-23.86-56.51,7.95-40.6,23.86-56.51c15.91-15.91,34.74-23.86,56.51-23.86,23.44,0,43.11,7.95,59.02,23.86,15.91,15.91,23.86,34.74,23.86,56.51Z" fill="#fff"></path><path class="cls-3" d="M358.99,178.76c-8.24,0-15.98,1.53-23.2,4.59s-13.58,7.33-19.06,12.81-9.78,11.83-12.88,19.06c-3.11,7.22-4.66,14.96-4.66,23.2s1.54,15.98,4.64,23.2c3.1,7.22,7.39,13.58,12.87,19.06s11.83,9.77,19.05,12.88c7.22,3.1,14.96,4.65,23.2,4.65s15.98-1.55,23.2-4.65c7.23-3.1,13.58-7.39,19.06-12.88s9.78-11.83,12.88-19.06c3.11-7.22,4.66-14.96,4.66-23.2s-1.54-15.98-4.64-23.2c-3.1-7.22-7.39-13.58-12.87-19.06s-11.83-9.75-19.05-12.81-14.96-4.59-23.2-4.59Z" fill="#1a1626"></path><path class="cls-6" d="M368.29,254.82c6.19,0,11.66,2.64,16.39,7.92s7.1,11.57,7.1,18.85c0,7.65-2.37,14.12-7.1,19.4s-10.2,7.92-16.39,7.92c-6.56,0-12.11-2.64-16.67-7.92-4.55-5.28-6.83-11.75-6.83-19.4s2.28-13.57,6.83-18.85c4.55-5.28,10.11-7.92,16.67-7.92ZM330.59,218.21c4.74,0,8.83,1.91,12.29,5.74s5.19,8.47,5.19,13.93-1.73,10.11-5.19,13.93-7.56,5.74-12.29,5.74-8.74-1.91-12.02-5.74-4.92-8.47-4.92-13.93,1.64-10.11,4.92-13.93,7.29-5.74,12.02-5.74Z" fill="#fff"></path><path class="cls-3" d="M346.98,360.83c4.01-2.91,7.19-2.64,9.56.82s2.82,6.47,1.37,9.02c-10.56,21.86-24.95,38.16-43.17,48.91-18.21,10.75-37.7,16.12-58.47,16.12s-40.25-5.37-58.47-16.12c-18.21-10.75-32.6-27.05-43.17-48.91-1.46-2.55-1-5.56,1.37-9.02s5.56-3.73,9.56-.82c11.29,8.74,24.95,15.3,40.98,19.67,16.03,4.37,32.69,6.56,50,6.56s33.88-2.19,49.72-6.56c15.85-4.37,29.42-10.93,40.71-19.67Z" fill="#1a1626"></path><path class="cls-2" d="M348.62,127.51c-13.84-6.56-23.13-13.66-27.87-21.31s-6.1-14.39-4.1-20.22,5.92-9.38,11.75-10.66,12.2,1,19.12,6.83c11.66,9.84,25.77,18.12,42.35,24.86,16.57,6.74,33.79,10.11,51.64,10.11,4.74,0,5.65,1.91,2.73,5.74s-8.83,7.56-17.76,11.2-20.04,5.46-33.33,5.46-28.14-4.01-44.53-12.02ZM163.93,127.51c13.84-6.92,23.13-14.21,27.87-21.86s6.1-14.3,4.1-19.94-5.92-9.11-11.75-10.38-12.2,1-19.12,6.83c-11.66,9.84-25.77,18.12-42.35,24.86-16.57,6.74-33.79,10.11-51.64,10.11-4.74,0-5.65,1.91-2.73,5.74s8.83,7.56,17.76,11.2,20.04,5.37,33.33,5.19c13.3-.18,28.14-4.1,44.53-11.75Z" fill="#d69600"></path><path class="cls-4" d="M221.31,261.93c1.09,0,2.55.36,4.37,1.09s2.37,2,1.64,3.82c-6.19,16.03-16.3,29.23-30.33,39.62-14.02,10.38-29.78,15.57-47.27,15.57s-33.79-5.19-47.81-15.57c-14.02-10.38-24.13-23.59-30.33-39.62-.73-1.82-.09-3.1,1.91-3.82s3.37-1.09,4.1-1.09c6.19.73,12.02,2.37,17.49,4.92s12.29,4.92,20.49,7.1c8.2,2.19,19.58,3.28,34.15,3.28s25.41-1.09,33.61-3.28c8.2-2.19,15.03-4.55,20.49-7.1s11.29-4.19,17.49-4.92Z" fill="url(#1776867897954-5095452_radial-gradient)"></path><path class="cls-1" d="M434.41,261.93c1.09,0,2.55.36,4.37,1.09s2.37,2,1.64,3.82c-6.19,16.03-16.3,29.23-30.33,39.62-14.02,10.38-29.78,15.57-47.27,15.57s-33.79-5.19-47.81-15.57c-14.02-10.38-24.13-23.59-30.33-39.62-.73-1.82-.09-3.1,1.91-3.82s3.37-1.09,4.1-1.09c6.19.73,12.02,2.37,17.49,4.92,5.46,2.55,12.29,4.92,20.49,7.1,8.2,2.19,19.58,3.28,34.15,3.28s25.41-1.09,33.61-3.28c8.2-2.19,15.03-4.55,20.49-7.1,5.46-2.55,11.29-4.19,17.49-4.92Z" fill="url(#1776867897954-5095452_radial-gradient-2)"></path></g></svg>