<svg data-name="Layer 1" xmlns="http://www.w3.org/2000/svg" style="" viewBox="0 0 495.5 512"><g class="nc-icon-wrapper"><defs><linearGradient id="1776732453067-4092656_linear-gradient" x1="247.75" y1="16.5" x2="247.75" y2="512" gradientTransform="matrix(1 0 0 -1 0 512)" gradientUnits="userSpaceOnUse"><stop offset="0" stop-color="#ff9500"></stop><stop offset=".19" stop-color="#ffad00"></stop><stop offset=".55" stop-color="#ffd500"></stop><stop offset=".83" stop-color="#ffed00"></stop><stop offset="1" stop-color="#fff600"></stop></linearGradient><linearGradient id="1776732453067-4092656_linear-gradient-2" x1="354.53" y1="198.6" x2="354.53" y2="387.71" gradientTransform="matrix(1 0 0 -1 0 512)" gradientUnits="userSpaceOnUse"><stop offset="0" stop-color="#fff" stop-opacity="0"></stop><stop offset="1" stop-color="#fff"></stop></linearGradient></defs><circle class="cls-6" cx="247.75" cy="247.75" r="247.75" fill="url(#1776732453067-4092656_linear-gradient)"></circle><path class="cls-4" d="M273.44,379.89h-84.4c-20.81,0-20.81-33.03,0-33.03h84.32c20.89,0,20.89,33.03.08,33.03Z" fill="#1a1626"></path><ellipse class="cls-4" cx="165.17" cy="227.11" rx="33.03" ry="37.16" fill="#1a1626"></ellipse><ellipse class="cls-4" cx="330.34" cy="218.85" rx="33.03" ry="45.42" fill="#1a1626"></ellipse><path class="cls-2" d="M474.78,239.49c0,10.98-16.52,10.98-16.52,0s16.52-10.98,16.52,0Z" fill="#6e8189"></path><path class="cls-5" d="M474.78,256.01c0,10.98-16.52,10.98-16.52,0s16.52-10.98,16.52,0Z" fill="#99a8ae"></path><path class="cls-2" d="M474.78,272.53c0,10.98-16.52,10.98-16.52,0s16.52-10.98,16.52,0Z" fill="#6e8189"></path><path class="cls-5" d="M474.78,289.04c0,10.98-16.52,10.98-16.52,0s16.52-10.98,16.52,0Z" fill="#99a8ae"></path><path class="cls-2" d="M474.78,305.56c0,10.98-16.52,10.98-16.52,0s16.52-10.98,16.52,0Z" fill="#6e8189"></path><path class="cls-5" d="M474.78,322.08c0,10.98-16.52,10.98-16.52,0s16.52-10.98,16.52,0Z" fill="#99a8ae"></path><path class="cls-2" d="M474.78,338.59c0,10.98-16.52,10.98-16.52,0s16.52-10.98,16.52,0Z" fill="#6e8189"></path><path class="cls-5" d="M474.78,355.11c0,10.98-16.52,10.98-16.52,0s16.52-10.98,16.52,0Z" fill="#99a8ae"></path><path class="cls-2" d="M474.78,371.63c0,10.98-16.52,10.98-16.52,0s16.52-10.98,16.52,0Z" fill="#6e8189"></path><path class="cls-5" d="M474.78,388.14c0,10.98-16.52,10.98-16.52,0s16.52-10.98,16.52,0Z" fill="#99a8ae"></path><path class="cls-2" d="M474.78,404.66c0,10.98-16.52,10.98-16.52,0s16.52-10.98,16.52,0Z" fill="#6e8189"></path><path class="cls-5" d="M474.78,421.18c0,10.98-16.52,10.98-16.52,0s16.52-10.98,16.52,0Z" fill="#99a8ae"></path><path class="cls-2" d="M474.78,437.7c0,10.98-16.52,10.98-16.52,0s16.52-10.98,16.52,0Z" fill="#6e8189"></path><path class="cls-5" d="M474.78,454.21c0,10.98-16.52,10.98-16.52,0s16.52-10.98,16.52,0Z" fill="#99a8ae"></path><path class="cls-2" d="M474.78,470.73c0,10.98-16.52,10.98-16.52,0s16.52-10.98,16.52,0Z" fill="#6e8189"></path><path class="cls-5" d="M474.78,487.25c0,10.98-16.52,10.98-16.52,0s16.52-10.98,16.52,0Z" fill="#99a8ae"></path><path class="cls-2" d="M474.78,503.76c0,10.98-16.52,10.98-16.52,0s16.52-10.98,16.52,0Z" fill="#6e8189"></path><path class="cls-1" d="M446.86,244.04c-1.07,0-1.07-50.29,0-50.29,28.08-.08,28.08,50.29,0,50.29Z" fill="#445159"></path><path class="cls-7" d="M354.53,313.41c-52.28,0-94.64-42.37-94.64-94.56s42.37-94.56,94.64-94.56,94.64,42.37,94.64,94.56c-.08,52.28-42.45,94.56-94.64,94.56Z" style="isolation:isolate" fill="url(#1776732453067-4092656_linear-gradient-2)" opacity=".8"></path><path class="cls-8" d="M354.53,119.75c-54.75,0-99.1,44.35-99.1,99.1s44.35,99.1,99.1,99.1,99.1-44.35,99.1-99.1-44.43-99.1-99.1-99.1ZM354.53,308.95c-49.8,0-90.1-40.3-90.1-90.1s40.3-90.1,90.1-90.1,90.1,40.3,90.1,90.1-40.38,90.1-90.1,90.1Z" fill="#4e5e67"></path><path class="cls-3" d="M324.89,77.38c93.73-5.04,56.65,32.13-22.05,46.08-44.43,7.85-39.64-42.78,22.05-46.08Z" fill="#d69600"></path><path class="cls-3" d="M150.63,133.46c60.29-13.54,78.62,33.94,33.69,38.4-79.53,7.85-125.36-17.92-33.69-38.4Z" fill="#d69600"></path></g></svg>