<svg xmlns="http://www.w3.org/2000/svg" data-name="Layer 1" style="" viewBox="0 0 358.07 512"><g class="nc-icon-wrapper"><defs><linearGradient id="1776867897964-7946078_linear-gradient" x1="179.04" x2="179.04" y1="1024" y2="512" gradientTransform="translate(0 -512)" gradientUnits="userSpaceOnUse"><stop offset="0" stop-color="#6e8189"></stop><stop offset=".97" stop-color="#6e8189"></stop><stop offset=".97" stop-color="#6f828a"></stop><stop offset=".99" stop-color="#849299"></stop><stop offset="1" stop-color="#8b989e"></stop></linearGradient><linearGradient id="1776867897964-7946078_linear-gradient-2" x1="179.04" x2="179.04" y1="746.71" y2="542.02" gradientTransform="translate(0 -512)" gradientUnits="userSpaceOnUse"><stop offset="0" stop-color="#6e8189"></stop><stop offset=".95" stop-color="#6e8189"></stop><stop offset=".95" stop-color="#6f828a"></stop><stop offset=".98" stop-color="#849299"></stop><stop offset="1" stop-color="#8b989e"></stop></linearGradient><linearGradient id="1776867897964-7946078_linear-gradient-3" x1="179.04" x2="179.04" y1="631.54" y2="572.04" gradientTransform="translate(0 -512)" gradientUnits="userSpaceOnUse"><stop offset="0" stop-color="#7e8a8f"></stop><stop offset="1" stop-color="#cfd8dd"></stop></linearGradient><linearGradient id="1776867897964-7946078_linear-gradient-4" x1="179.04" x2="179.04" y1="627.17" y2="575.86" gradientTransform="translate(0 -512)" gradientUnits="userSpaceOnUse"><stop offset="0" stop-color="#fff"></stop><stop offset=".75" stop-color="#fff"></stop><stop offset=".81" stop-color="#fbfcfc"></stop><stop offset=".87" stop-color="#f0f1f2"></stop><stop offset=".93" stop-color="#dce0e2"></stop><stop offset=".98" stop-color="#c1c7cc"></stop><stop offset="1" stop-color="#b8bfc4"></stop></linearGradient><linearGradient id="1776867897964-7946078_linear-gradient-5" x1="179.04" x2="179.04" y1="718.87" y2="686.12" gradientTransform="translate(0 -512)" gradientUnits="userSpaceOnUse"><stop offset="0" stop-color="#1a1626" stop-opacity="0"></stop><stop offset=".12" stop-color="#1a1626" stop-opacity="0"></stop><stop offset="1" stop-color="#1a1626" stop-opacity=".2"></stop></linearGradient><linearGradient id="1776867897964-7946078_linear-gradient-6" x1="179.04" x2="179.04" y1="540.98" y2="336.29" gradientTransform="translate(0 -59)" gradientUnits="userSpaceOnUse"><stop offset="0" stop-color="#6e8189"></stop><stop offset=".95" stop-color="#6e8189"></stop><stop offset=".95" stop-color="#6f828a"></stop><stop offset=".98" stop-color="#849299"></stop><stop offset="1" stop-color="#8b989e"></stop></linearGradient><linearGradient id="1776867897964-7946078_linear-gradient-7" x1="179.04" x2="179.04" y1="425.81" y2="366.31" gradientTransform="translate(0 -59)" gradientUnits="userSpaceOnUse"><stop offset="0" stop-color="#7e8a8f"></stop><stop offset="1" stop-color="#cfd8dd"></stop></linearGradient><linearGradient id="1776867897964-7946078_linear-gradient-8" x1="179.04" x2="179.04" y1="421.44" y2="370.13" gradientTransform="translate(0 -59)" gradientUnits="userSpaceOnUse"><stop offset="0" stop-color="#fff"></stop><stop offset=".75" stop-color="#fff"></stop><stop offset=".81" stop-color="#fbfcfc"></stop><stop offset=".87" stop-color="#f0f1f2"></stop><stop offset=".93" stop-color="#dce0e2"></stop><stop offset=".98" stop-color="#c1c7cc"></stop><stop offset="1" stop-color="#b8bfc4"></stop></linearGradient><linearGradient id="1776867897964-7946078_linear-gradient-9" x1="179.04" x2="179.04" y1="513.14" y2="480.39" gradientTransform="translate(0 -59)" gradientUnits="userSpaceOnUse"><stop offset="0" stop-color="#1a1626" stop-opacity="0"></stop><stop offset=".12" stop-color="#1a1626" stop-opacity="0"></stop><stop offset="1" stop-color="#1a1626" stop-opacity=".2"></stop></linearGradient><radialGradient id="1776867897964-7946078_radial-gradient" cx="139.03" cy="535.28" r="68.23" fx="139.03" fy="535.28" gradientTransform="matrix(.86 0 0 .43 59.58 -51)" gradientUnits="userSpaceOnUse"><stop offset="0" stop-color="#cfd8dd"></stop><stop offset=".53" stop-color="#cfd8dd"></stop><stop offset=".61" stop-color="#cad4d9"></stop><stop offset=".69" stop-color="#bdc7cd"></stop><stop offset=".78" stop-color="#a7b2b8"></stop><stop offset=".87" stop-color="#88949c"></stop><stop offset=".96" stop-color="#606f77"></stop><stop offset="1" stop-color="#4e5e67"></stop></radialGradient><radialGradient id="1776867897964-7946078_radial-gradient-2" cx="139.03" cy="56.31" r="68.23" fx="139.03" fy="56.31" gradientTransform="matrix(.86 0 0 .43 59.58 402.12)" gradientUnits="userSpaceOnUse"><stop offset="0" stop-color="#cfd8dd"></stop><stop offset=".53" stop-color="#cfd8dd"></stop><stop offset=".61" stop-color="#cad4d9"></stop><stop offset=".69" stop-color="#bdc7cd"></stop><stop offset=".78" stop-color="#a7b2b8"></stop><stop offset=".87" stop-color="#88949c"></stop><stop offset=".96" stop-color="#606f77"></stop><stop offset="1" stop-color="#4e5e67"></stop></radialGradient></defs><path d="M358.07 503.27q0 8.73-8.19 8.73H8.73Q0 512 0 503.27V8.73Q0 0 8.73 0h341.15q8.19 0 8.19 8.73v494.53Z" fill="url(#1776867897964-7946078_linear-gradient)"></path><path d="M332.42 230.35q0 8.73-8.19 8.73H33.84q-8.19 0-8.19-8.73V34.39q0-8.73 8.19-8.73h290.39q8.19 0 8.19 8.73z" class="cls-12" fill="#302c3b"></path><path d="M328.05 230.35c0 2.91-1.27 4.37-3.82 4.37H33.84c-2.55 0-3.82-1.46-3.82-4.37V34.39c0-2.91 1.27-4.37 3.82-4.37h290.39c2.55 0 3.82 1.46 3.82 4.37z" fill="url(#1776867897964-7946078_linear-gradient-2)"></path><path d="M225.98 110.81q0 8.73-8.73 8.73h-76.42q-8.73 0-8.73-8.73V68.23q0-8.19 8.73-8.19h76.42q8.73 0 8.73 8.19z" fill="url(#1776867897964-7946078_linear-gradient-3)"></path><path d="M221.61 110.81c0 2.91-1.46 4.37-4.37 4.37h-76.42c-2.91 0-4.37-1.46-4.37-4.37V68.23c0-2.91 1.46-4.37 4.37-4.37h76.42c2.91 0 4.37 1.46 4.37 4.37z" fill="url(#1776867897964-7946078_linear-gradient-4)"></path><path d="M236.9 186.68c-17.1 13.46-36.39 20.2-57.86 20.2s-40.76-6.73-57.86-20.2c-1.09-1.09-1.64-3.64-1.64-7.64s.55-5.46 1.64-4.37c17.1 13.1 36.39 19.65 57.86 19.65s40.76-6.55 57.86-19.65c1.09-1.09 1.64.36 1.64 4.37s-.55 6.55-1.64 7.64" fill="url(#1776867897964-7946078_linear-gradient-5)"></path><path d="M236.27 185.08H121.82c-1.56 0-2.35-2.03-2.35-6.1s.78-6.1 2.35-6.1h114.45c1.56 0 2.35 2.03 2.35 6.1s-.78 6.1-2.35 6.1" fill="url(#1776867897964-7946078_radial-gradient)"></path><path d="M332.42 477.61q0 8.73-8.19 8.73H33.84q-8.19 0-8.19-8.73V281.65q0-8.73 8.19-8.73h290.39q8.19 0 8.19 8.73z" class="cls-12" fill="#302c3b"></path><path d="M328.05 477.61c0 2.91-1.27 4.37-3.82 4.37H33.84c-2.55 0-3.82-1.46-3.82-4.37V281.65c0-2.91 1.27-4.37 3.82-4.37h290.39c2.55 0 3.82 1.46 3.82 4.37z" fill="url(#1776867897964-7946078_linear-gradient-6)"></path><path d="M225.98 358.07q0 8.73-8.73 8.73h-76.42q-8.73 0-8.73-8.73v-42.58q0-8.19 8.73-8.19h76.42q8.73 0 8.73 8.19z" fill="url(#1776867897964-7946078_linear-gradient-7)"></path><path d="M221.61 358.07c0 2.91-1.46 4.37-4.37 4.37h-76.42c-2.91 0-4.37-1.46-4.37-4.37v-42.58c0-2.91 1.46-4.37 4.37-4.37h76.42c2.91 0 4.37 1.46 4.37 4.37z" fill="url(#1776867897964-7946078_linear-gradient-8)"></path><path d="M236.9 433.94c-17.1 13.46-36.39 20.2-57.86 20.2s-40.76-6.73-57.86-20.2c-1.09-1.09-1.64-3.64-1.64-7.64s.55-5.46 1.64-4.37c17.1 13.1 36.39 19.65 57.86 19.65s40.76-6.55 57.86-19.65c1.09-1.09 1.64.36 1.64 4.37s-.55 6.55-1.64 7.64" fill="url(#1776867897964-7946078_linear-gradient-9)"></path><path d="M236.27 432.41H121.82c-1.56 0-2.35-2.03-2.35-6.1s.78-6.1 2.35-6.1h114.45c1.56 0 2.35 2.03 2.35 6.1s-.78 6.1-2.35 6.1" fill="url(#1776867897964-7946078_radial-gradient-2)"></path></g></svg>