<svg xmlns="http://www.w3.org/2000/svg" data-name="Layer 1" style="" viewBox="0 0 464.01 512"><g class="nc-icon-wrapper"><defs><linearGradient id="1776867897964-2263048_a" x1="232.01" x2="232.01" y1="2" y2="470.24" gradientTransform="matrix(1 0 0 -1 0 514)" gradientUnits="userSpaceOnUse"><stop offset=".1" stop-color="#f90"></stop><stop offset="1" stop-color="red"></stop></linearGradient><linearGradient id="1776867897964-2263048_b" x1="245.89" x2="245.89" y1="9.84" y2="355.12" gradientTransform="matrix(1 0 0 -1 0 514)" gradientUnits="userSpaceOnUse"><stop offset="0" stop-color="#ffe600"></stop><stop offset=".16" stop-color="#ffc600"></stop><stop offset=".43" stop-color="#ff9700"></stop><stop offset=".67" stop-color="#ff7500"></stop><stop offset=".87" stop-color="#ff6100"></stop><stop offset="1" stop-color="#ff5900"></stop></linearGradient><linearGradient id="1776867897964-2263048_c" x1="-559.63" x2="-559.63" y1="17.44" y2="176.72" gradientTransform="rotate(180 -166.115 257)" gradientUnits="userSpaceOnUse"><stop offset="0" stop-color="#fff8e3"></stop><stop offset=".21" stop-color="#ffeca9"></stop><stop offset=".49" stop-color="#ffdd61"></stop><stop offset=".73" stop-color="#ffd12d"></stop><stop offset=".9" stop-color="#ffcb0c"></stop><stop offset="1" stop-color="#ffc800"></stop></linearGradient><linearGradient id="1776867897964-2263048_d" x1="63.69" x2="63.69" y1="270.56" y2="377.12" gradientTransform="matrix(1 0 0 -1 0 514)" gradientUnits="userSpaceOnUse"><stop offset="0" stop-color="#f90"></stop><stop offset=".18" stop-color="#ff9500"></stop><stop offset=".34" stop-color="#ff8b00"></stop><stop offset=".5" stop-color="#ff7800"></stop><stop offset=".65" stop-color="#ff5f00"></stop><stop offset=".79" stop-color="#ff3e00"></stop><stop offset=".93" stop-color="#ff1600"></stop><stop offset="1" stop-color="red"></stop></linearGradient><linearGradient id="1776867897964-2263048_e" x1="391.78" x2="391.78" y1="237.28" y2="328.96" gradientTransform="matrix(1 0 0 -1 0 514)" gradientUnits="userSpaceOnUse"><stop offset="0" stop-color="#f90"></stop><stop offset=".18" stop-color="#ff9500"></stop><stop offset=".34" stop-color="#ff8b00"></stop><stop offset=".5" stop-color="#ff7800"></stop><stop offset=".65" stop-color="#ff5f00"></stop><stop offset=".79" stop-color="#ff3e00"></stop><stop offset=".93" stop-color="#ff1600"></stop><stop offset="1" stop-color="red"></stop></linearGradient></defs><path d="M430.64 234c21.36 87.52-43.84 121.84-82.48 85.92-71.28-66.08 92.56-140.32-37.76-218.4 44.56 93.76-63.52 108.56-63.92 51.84C246 93.04 220.56 54 148.8 43.76c49.04 69.36 9.04 110.48-38.16 196.56-23.44 42.8-8.32 102.24-8.32 102.24S73.04 269.28 0 271.52c43.28 45.92 18.48 64.96 33.44 123.84C50.56 463.04 130.56 512 235.76 512c198.4 0 279.76-188 194.88-278" fill="url(#1776867897964-2263048_a)"></path><path d="M411.92 354.56c-31.36 41.44-108.88 35.68-108.88 35.68 47.84-79.44-12.24-101.2 6.32-177.6-53.6 28.4-48.96 71.76-74.4 90.72-33.52 24.88-54.8-57.6-31.2-144.48-121.92 119.6-38 255.2-38 255.2s-56.16-3.36-85.44-49.68c-7.28 31.52 4.32 139.76 162.96 139.76 137.6-.08 177.36-108.72 168.64-149.6" fill="url(#1776867897964-2263048_b)"></path><path d="M238.48 496.56C136 496.56 122 455.52 122 423.68c30.08 53.76 94.72 29.28 78.72-3.84-14.08-29.04 4-80.16 59.84-82.56-43.92 61.84 17.84 113.44 71.68 84.56 5.76 34.8-31.84 74.72-93.76 74.72" fill="url(#1776867897964-2263048_c)"></path><path d="M48.32 136.88c11.92 28.8 81.92 58.48 16.96 106.56-3.76-35.84-53.84-63.28-16.96-106.56" fill="url(#1776867897964-2263048_d)"></path><path d="M407.84 185.04c-11.92 24.48-74.32 46.96-20.64 91.68 5.2-30.88 50.24-52.4 20.64-91.68" fill="url(#1776867897964-2263048_e)"></path><path d="M279.92 0c-.24 23.52-38.48 61.44 16.72 80.4-6.88-26.56 18.8-58.16-16.72-80.4" fill="red"></path></g></svg>