<svg data-name="Layer 1" xmlns="http://www.w3.org/2000/svg" style="" viewBox="0 0 712.36 512"><g class="nc-icon-wrapper"><defs><linearGradient id="1776585740060-8835910_linear-gradient" x1="355.53" y1="258.83" x2="355.53" y2="514" gradientTransform="matrix(1 0 0 -1 0 514)" gradientUnits="userSpaceOnUse"><stop offset="0" stop-color="#f9c802"></stop><stop offset=".22" stop-color="#face0a"></stop><stop offset=".56" stop-color="#fcde20"></stop><stop offset=".98" stop-color="#fff843"></stop><stop offset="1" stop-color="#fff945"></stop></linearGradient><linearGradient id="1776585740060-8835910_linear-gradient-2" x1="443.45" y1="10.7" x2="443.45" y2="180.9" gradientTransform="matrix(1 0 0 -1 0 514)" gradientUnits="userSpaceOnUse"><stop offset="0" stop-color="#94bad1"></stop><stop offset=".08" stop-color="#a3c3d6"></stop><stop offset=".26" stop-color="#c0d4e1"></stop><stop offset=".45" stop-color="#d5e1e9"></stop><stop offset=".62" stop-color="#e2e8ed"></stop><stop offset=".79" stop-color="#e6ebef"></stop></linearGradient><linearGradient id="1776585740060-8835910_linear-gradient-3" x1="256.37" y1="2" x2="256.37" y2="76.82" gradientTransform="matrix(1 0 0 -1 0 514)" gradientUnits="userSpaceOnUse"><stop offset="0" stop-color="#94bad1"></stop><stop offset=".08" stop-color="#a3c3d6"></stop><stop offset=".26" stop-color="#c0d4e1"></stop><stop offset=".45" stop-color="#d5e1e9"></stop><stop offset=".62" stop-color="#e2e8ed"></stop><stop offset=".79" stop-color="#e6ebef"></stop></linearGradient><linearGradient id="1776585740060-8835910_linear-gradient-4" x1="322.32" y1="41.47" x2="322.32" y2="437.37" gradientTransform="matrix(1 0 0 -1 0 514)" gradientUnits="userSpaceOnUse"><stop offset="0" stop-color="#003f7a"></stop><stop offset="1" stop-color="#2a93f5"></stop></linearGradient><linearGradient id="1776585740060-8835910_linear-gradient-5" x1="41.17" y1="230.52" x2="229.22" y2="230.52" gradientTransform="matrix(1 0 0 -1 0 514)" gradientUnits="userSpaceOnUse"><stop offset="0" stop-color="#94bad1"></stop><stop offset=".26" stop-color="#b2ccdc"></stop><stop offset=".55" stop-color="#cfdde6"></stop><stop offset=".81" stop-color="#e0e7ed"></stop><stop offset="1" stop-color="#e6ebef"></stop></linearGradient><radialGradient id="1776585740060-8835910_radial-gradient" cx="56.78" cy="306.75" fx="56.78" fy="306.75" r="125.14" gradientTransform="matrix(1 0 0 -1.27 0 603.83)" gradientUnits="userSpaceOnUse"><stop offset="0" stop-color="#2289c7"></stop><stop offset="1" stop-color="#002c45"></stop></radialGradient><linearGradient id="1776585740060-8835910_linear-gradient-6" x1="495.24" y1="225.61" x2="600.51" y2="225.61" gradientTransform="matrix(1 0 0 -1 0 514)" gradientUnits="userSpaceOnUse"><stop offset="0" stop-color="#ffe375"></stop><stop offset=".2" stop-color="#ffe271"></stop><stop offset=".38" stop-color="#fedf66"></stop><stop offset=".56" stop-color="#fddb53"></stop><stop offset=".74" stop-color="#fcd539"></stop><stop offset=".91" stop-color="#facd17"></stop><stop offset="1" stop-color="#f9c802"></stop></linearGradient><linearGradient id="1776585740060-8835910_linear-gradient-7" x1="592.4" y1="238.06" x2="712.36" y2="238.06" gradientTransform="matrix(1 0 0 -1 0 514)" gradientUnits="userSpaceOnUse"><stop offset=".21" stop-color="#e6ebef"></stop><stop offset=".38" stop-color="#e2e8ed"></stop><stop offset=".55" stop-color="#d5e1e9"></stop><stop offset=".74" stop-color="#c0d4e1"></stop><stop offset=".92" stop-color="#a3c3d6"></stop><stop offset="1" stop-color="#94bad1"></stop></linearGradient><linearGradient id="1776585740060-8835910_linear-gradient-8" x1="164.88" y1="266.04" x2="272.99" y2="266.04" gradientTransform="matrix(1 0 0 -1 0 514)" gradientUnits="userSpaceOnUse"><stop offset="0" stop-color="#fff945"></stop><stop offset=".29" stop-color="#e0e967"></stop><stop offset=".92" stop-color="#92bfbe"></stop><stop offset="1" stop-color="#88bac9"></stop></linearGradient></defs><path class="cls-11" d="M153.91,88.09s15.16-34.08,58.58-72.75c119.68-57.41,373.49,53.43,341.97,214.51-15.44,78.75-273.69-42.43-400.55-141.76Z" fill="url(#1776585740060-8835910_linear-gradient)"></path><path class="cls-8" d="M554.45,333.1s24.08,12.92,23.16,34.43c-52,121.26-167.91,179.5-268.35,97.84-.41-62.52,177.04-120.18,245.19-132.27Z" fill="url(#1776585740060-8835910_linear-gradient-2)"></path><path class="cls-7" d="M326.65,486.52s6.67,12.17,1.55,18.59c-43.37,19.08-132.59-1.34-145.58-62.92,13.88-19.67,120.08,23.5,144.03,44.33Z" fill="url(#1776585740060-8835910_linear-gradient-3)"></path><path class="cls-6" d="M106.71,429.68c-40.35-30.09,3.08-289.68,26.29-338.6,88.44-42.42,412.04,0,421.45,242.01-67.69,105.08-320.91,196.01-447.74,96.58Z" fill="url(#1776585740060-8835910_linear-gradient-4)"></path><path class="cls-4" d="M152.73,137.26c-110.35,42.66-121.65,191.25-105.81,238.09,0,0,25.68,40.43,59.78,54.34,24.2-74.59,103.99-54.34,122.52-79.51-41.24-60.09,5.98-157.92-76.49-212.92Z" fill="url(#1776585740060-8835910_linear-gradient-5)"></path><path class="cls-10" d="M133,91.08C22.65,133.67,49.09,277.1,14.13,299.26c-19.41,12.33-19,44.76,2.32,44.09-14.86,32,21.2,25.5,30.48,32,21.67-48.84,61.26-17,72.38-38.17,22.34-42.59,54.41-6.09,64.5-27.25-41.25-60.08,14.77-131.68-50.81-218.85Z" fill="url(#1776585740060-8835910_radial-gradient)"></path><path class="cls-5" d="M532.37,360.52c-13.31-25.83-41.16-42.59-36.63-67.08,5.14-27.83,25.93-47.75,26.81-71.41,0,0,40.6,45.91,71.01-5.77-4.02,65.75,17.49,73.25,0,134.26,0,0-26.13-19.33-61.2,10.01Z" fill="url(#1776585740060-8835910_linear-gradient-6)"></path><path class="cls-3" d="M603.59,350.52c-13.31-25.83-14.68-112.59-4.47-134.26,10.59-22.42,71.43-94.91,71.43-94.91,0,0,11.65-11.77,25.1-15.08,10.73,126.08-43.28,182.16,16.72,339.34,0,0-12.83-2.67-17.92-5.33,0,0-64.8-48.51-90.85-89.76Z" fill="url(#1776585740060-8835910_linear-gradient-7)"></path><path class="cls-9" d="M593.56,350.52c-13.31-25.83-9.69-90.17,0-134.26,0,0,36.02-55.91,76.97-94.91-12.86,39-70.01,82.17-66.94,103.09,6.31,42.91,10.18,69.08,3.57,108.66-4.89,29.25,52.29,60.93,87.26,107.18.01,0-64.85-36.75-100.87-89.76Z" fill="#1a1626"></path><path class="cls-2" d="M165.15,316.68c-5.64-35.34,77.83-168.01,93.05-169.92,15.24-1.91,22.71,133.25,2.4,158.67-8.5,10.66,0,27.92-7.78,37.09-4.62,5.51-80.31,20.26-87.68-25.83Z" fill="url(#1776585740060-8835910_linear-gradient-8)"></path><path class="cls-1" d="M202.91,307.1c24.34-11.91,58.71-29.25,58.71-29.25-18.21,1.59-48.53,12.67-64.24,20,23.52-19.75,59.13-47.83,59.13-47.83-16.12,5.5-43.37,20.99-57.32,32,23.24-29.74,57.26-68.65,57.26-68.65-18.57,12.25-46.66,41.16-61.14,58.9,18.18-35.82,45.55-84.99,45.55-84.99-42.23,42.09-69.14,100.18-71.76,132.67,22.64,27,77.47,12.59,77.47,12.59-21.81-6.59-46.16-7.93-56.91-11.77,22.03-4.41,56.76-15.16,56.76-15.16-10.54-2.93-32.38.08-43.5,1.49Z" fill="#fff945"></path><path class="cls-12" d="M27.52,295.43s20.54,34.51,17.92,67.01c18.23-39.76-17.92-67.01-17.92-67.01Z" fill="#6892e6"></path><path class="cls-9" d="M103.6,185.28c-32.61,0-45.38,28.05-42.52,49.9,2.11,16.24,82.97,16.24,85.07,0,2.98-23.65-12.81-49.9-42.55-49.9Z" fill="#1a1626"></path><path class="cls-13" d="M103.6,193.1c-23.53,0-42.52,17.72-42.52,39.65,0,18.89,18.99,39.64,42.52,39.64s42.54-24.19,42.54-39.64c-.01-21.93-19.08-39.65-42.54-39.65Z" fill="#fff"></path><path class="cls-9" d="M99.49,200.81c17.54,0,31.76,14.12,31.76,31.53s-14.2,31.54-31.76,31.54-31.76-14.12-31.76-31.54c.01-17.42,14.19-31.53,31.76-31.53Z" fill="#1a1626"></path><path class="cls-13" d="M96.98,216.57c0,11.45-17.35,11.45-17.35,0,0-11.5,17.35-11.5,17.35,0Z" fill="#fff"></path></g></svg>