<svg xmlns="http://www.w3.org/2000/svg" style="" viewBox="0 0 779.19 512"><g class="nc-icon-wrapper"><defs><linearGradient id="1776867897968-2653903_linear-gradient" x1="-2188.12" y1="2112.98" x2="-2187.33" y2="2112.98" gradientTransform="translate(2136833.98 -2063201.08) scale(976.56)" gradientUnits="userSpaceOnUse"><stop offset="0" stop-color="#000096"></stop><stop offset=".02" stop-color="#000096"></stop><stop offset=".04" stop-color="#06069c"></stop><stop offset=".12" stop-color="#1f1fb5"></stop><stop offset=".2" stop-color="#2f2fc4"></stop><stop offset=".27" stop-color="#3434c9"></stop><stop offset=".32" stop-color="#2020b6"></stop><stop offset=".4" stop-color="#09099f"></stop><stop offset=".45" stop-color="#000096"></stop><stop offset=".57" stop-color="#0f0fa5"></stop><stop offset=".79" stop-color="#3434c9"></stop><stop offset=".86" stop-color="#3131c6"></stop><stop offset=".91" stop-color="#2727bd"></stop><stop offset=".96" stop-color="#1717ad"></stop><stop offset="1" stop-color="#000096"></stop><stop offset="1" stop-color="#000096"></stop></linearGradient><linearGradient id="1776867897968-2653903_linear-gradient-2" x1="-2188.12" y1="2112.98" x2="-2187.33" y2="2112.98" gradientTransform="translate(2136833.98 -2063201.08) scale(976.56)" gradientUnits="userSpaceOnUse"><stop offset="0" stop-color="#e6e6f0"></stop><stop offset=".02" stop-color="#e6e6f0"></stop><stop offset=".05" stop-color="#eaeaf3"></stop><stop offset=".17" stop-color="#fafafc"></stop><stop offset=".27" stop-color="#fff"></stop><stop offset=".36" stop-color="#efeff5"></stop><stop offset=".45" stop-color="#e6e6f0"></stop><stop offset=".67" stop-color="#f5f5f9"></stop><stop offset=".79" stop-color="#fff"></stop><stop offset=".88" stop-color="#fcfcfd"></stop><stop offset=".95" stop-color="#f2f2f7"></stop><stop offset="1" stop-color="#e6e6f0"></stop></linearGradient><linearGradient id="1776867897968-2653903_linear-gradient-3" x1="-2188.12" y1="2113.02" x2="-2187.33" y2="2113.02" gradientTransform="translate(2134710.79 -2061329.86) scale(975.59)" gradientUnits="userSpaceOnUse"><stop offset="0" stop-color="#e0000c"></stop><stop offset=".02" stop-color="#e0000c"></stop><stop offset=".08" stop-color="#eb1923"></stop><stop offset=".15" stop-color="#f6323b"></stop><stop offset=".21" stop-color="#fd4249"></stop><stop offset=".27" stop-color="#ff474e"></stop><stop offset=".27" stop-color="#ff474e"></stop><stop offset=".34" stop-color="#ee202a"></stop><stop offset=".41" stop-color="#e40914"></stop><stop offset=".45" stop-color="#e0000c"></stop><stop offset=".54" stop-color="#e70f1a"></stop><stop offset=".73" stop-color="#f8373f"></stop><stop offset=".79" stop-color="#ff474e"></stop><stop offset=".85" stop-color="#fe444b"></stop><stop offset=".9" stop-color="#f93a42"></stop><stop offset=".94" stop-color="#f22a33"></stop><stop offset=".98" stop-color="#e8131e"></stop><stop offset="1" stop-color="#e0000c"></stop></linearGradient><linearGradient id="1776867897968-2653903_linear-gradient-4" x1="-2188.12" y1="2113.03" x2="-2187.33" y2="2113.03" gradientTransform="translate(2134710.79 -2061363.11) scale(975.59)" gradientUnits="userSpaceOnUse"><stop offset="0" stop-color="#e0000c"></stop><stop offset=".02" stop-color="#e0000c"></stop><stop offset=".08" stop-color="#eb1923"></stop><stop offset=".15" stop-color="#f6323b"></stop><stop offset=".21" stop-color="#fd4249"></stop><stop offset=".27" stop-color="#ff474e"></stop><stop offset=".27" stop-color="#ff474e"></stop><stop offset=".34" stop-color="#ee202a"></stop><stop offset=".41" stop-color="#e40914"></stop><stop offset=".45" stop-color="#e0000c"></stop><stop offset=".54" stop-color="#e70f1a"></stop><stop offset=".73" stop-color="#f8373f"></stop><stop offset=".79" stop-color="#ff474e"></stop><stop offset=".85" stop-color="#fe444b"></stop><stop offset=".9" stop-color="#f93a42"></stop><stop offset=".94" stop-color="#f22a33"></stop><stop offset=".98" stop-color="#e8131e"></stop><stop offset="1" stop-color="#e0000c"></stop></linearGradient><linearGradient id="1776867897968-2653903_linear-gradient-5" x1="-2188.12" y1="2112.95" x2="-2187.33" y2="2112.95" gradientTransform="translate(2134710.79 -2060974.36) scale(975.59)" gradientUnits="userSpaceOnUse"><stop offset="0" stop-color="#e0000c"></stop><stop offset=".02" stop-color="#e0000c"></stop><stop offset=".08" stop-color="#eb1923"></stop><stop offset=".15" stop-color="#f6323b"></stop><stop offset=".21" stop-color="#fd4249"></stop><stop offset=".27" stop-color="#ff474e"></stop><stop offset=".27" stop-color="#ff474e"></stop><stop offset=".34" stop-color="#ee202a"></stop><stop offset=".41" stop-color="#e40914"></stop><stop offset=".45" stop-color="#e0000c"></stop><stop offset=".54" stop-color="#e70f1a"></stop><stop offset=".73" stop-color="#f8373f"></stop><stop offset=".79" stop-color="#ff474e"></stop><stop offset=".85" stop-color="#fe444b"></stop><stop offset=".9" stop-color="#f93a42"></stop><stop offset=".94" stop-color="#f22a33"></stop><stop offset=".98" stop-color="#e8131e"></stop><stop offset="1" stop-color="#e0000c"></stop></linearGradient><linearGradient id="1776867897968-2653903_linear-gradient-6" x1="-2188.12" y1="2112.93" x2="-2187.33" y2="2112.93" gradientTransform="translate(2134702.29 -2060932.36) scale(975.59)" gradientUnits="userSpaceOnUse"><stop offset="0" stop-color="#e0000c"></stop><stop offset=".02" stop-color="#e0000c"></stop><stop offset=".08" stop-color="#eb1923"></stop><stop offset=".15" stop-color="#f6323b"></stop><stop offset=".21" stop-color="#fd4249"></stop><stop offset=".27" stop-color="#ff474e"></stop><stop offset=".27" stop-color="#ff474e"></stop><stop offset=".34" stop-color="#ee202a"></stop><stop offset=".41" stop-color="#e40914"></stop><stop offset=".45" stop-color="#e0000c"></stop><stop offset=".54" stop-color="#e70f1a"></stop><stop offset=".73" stop-color="#f8373f"></stop><stop offset=".79" stop-color="#ff474e"></stop><stop offset=".85" stop-color="#fe444b"></stop><stop offset=".9" stop-color="#f93a42"></stop><stop offset=".94" stop-color="#f22a33"></stop><stop offset=".98" stop-color="#e8131e"></stop><stop offset="1" stop-color="#e0000c"></stop></linearGradient><linearGradient id="1776867897968-2653903_linear-gradient-7" x1="-2188.12" y1="2112.98" x2="-2187.33" y2="2112.98" gradientTransform="translate(2136833.98 -2063201.08) scale(976.56)" gradientUnits="userSpaceOnUse"><stop offset="0" stop-color="#e0000c"></stop><stop offset=".02" stop-color="#e0000c"></stop><stop offset=".08" stop-color="#eb1923"></stop><stop offset=".15" stop-color="#f6323b"></stop><stop offset=".21" stop-color="#fd4249"></stop><stop offset=".27" stop-color="#ff474e"></stop><stop offset=".27" stop-color="#ff474e"></stop><stop offset=".34" stop-color="#ee202a"></stop><stop offset=".41" stop-color="#e40914"></stop><stop offset=".45" stop-color="#e0000c"></stop><stop offset=".54" stop-color="#e70f1a"></stop><stop offset=".73" stop-color="#f8373f"></stop><stop offset=".79" stop-color="#ff474e"></stop><stop offset=".85" stop-color="#fe444b"></stop><stop offset=".9" stop-color="#f93a42"></stop><stop offset=".94" stop-color="#f22a33"></stop><stop offset=".98" stop-color="#e8131e"></stop><stop offset="1" stop-color="#e0000c"></stop></linearGradient><linearGradient id="1776867897968-2653903_linear-gradient-8" x1="-2188.12" y1="2113" x2="-2187.33" y2="2113" gradientTransform="translate(2136833.98 -2063201.08) scale(976.56)" gradientUnits="userSpaceOnUse"><stop offset="0" stop-color="#00017c"></stop><stop offset=".02" stop-color="#00017c"></stop><stop offset=".04" stop-color="#050681"></stop><stop offset=".12" stop-color="#191a95"></stop><stop offset=".2" stop-color="#2626a1"></stop><stop offset=".27" stop-color="#2a2aa5"></stop><stop offset=".32" stop-color="#1a1a96"></stop><stop offset=".4" stop-color="#070883"></stop><stop offset=".45" stop-color="#00017c"></stop><stop offset=".57" stop-color="#0c0d88"></stop><stop offset=".79" stop-color="#2a2aa5"></stop><stop offset=".86" stop-color="#2728a2"></stop><stop offset=".91" stop-color="#1f209b"></stop><stop offset=".96" stop-color="#12138e"></stop><stop offset="1" stop-color="#00017c"></stop><stop offset="1" stop-color="#00017c"></stop></linearGradient><linearGradient id="1776867897968-2653903_linear-gradient-9" x1="-2188.12" y1="2112.99" x2="-2187.33" y2="2112.99" gradientTransform="translate(2136833.98 -2063201.08) scale(976.56)" gradientUnits="userSpaceOnUse"><stop offset="0" stop-color="#b8b9c4"></stop><stop offset=".02" stop-color="#b8b9c4"></stop><stop offset=".05" stop-color="#bbbcc6"></stop><stop offset=".17" stop-color="#c8c9ce"></stop><stop offset=".27" stop-color="#cccdd0"></stop><stop offset=".36" stop-color="#bfc0c8"></stop><stop offset=".45" stop-color="#b8b9c4"></stop><stop offset=".67" stop-color="#c4c5cb"></stop><stop offset=".79" stop-color="#cccdd0"></stop><stop offset=".88" stop-color="#cacace"></stop><stop offset=".95" stop-color="#c2c2ca"></stop><stop offset="1" stop-color="#b8b9c4"></stop></linearGradient><linearGradient id="1776867897968-2653903_linear-gradient-10" x1="-2188.12" y1="2113.19" x2="-2187.33" y2="2113.19" gradientTransform="translate(2136833.98 -2063201.08) scale(976.56)" gradientUnits="userSpaceOnUse"><stop offset="0" stop-color="#00017c"></stop><stop offset=".02" stop-color="#00017c"></stop><stop offset=".04" stop-color="#050681"></stop><stop offset=".12" stop-color="#191a95"></stop><stop offset=".2" stop-color="#2626a1"></stop><stop offset=".27" stop-color="#2a2aa5"></stop><stop offset=".32" stop-color="#1a1a96"></stop><stop offset=".4" stop-color="#070883"></stop><stop offset=".45" stop-color="#00017c"></stop><stop offset=".57" stop-color="#0c0d88"></stop><stop offset=".79" stop-color="#2a2aa5"></stop><stop offset=".86" stop-color="#2728a2"></stop><stop offset=".91" stop-color="#1f209b"></stop><stop offset=".96" stop-color="#12138e"></stop><stop offset="1" stop-color="#00017c"></stop><stop offset="1" stop-color="#00017c"></stop></linearGradient><linearGradient id="1776867897968-2653903_linear-gradient-11" x1="-2188.12" y1="2113.2" x2="-2187.33" y2="2113.2" gradientTransform="translate(2136833.98 -2063201.08) scale(976.56)" gradientUnits="userSpaceOnUse"><stop offset="0" stop-color="#b8b9c4"></stop><stop offset=".02" stop-color="#b8b9c4"></stop><stop offset=".05" stop-color="#bbbcc6"></stop><stop offset=".17" stop-color="#c8c9ce"></stop><stop offset=".27" stop-color="#cccdd0"></stop><stop offset=".36" stop-color="#bfc0c8"></stop><stop offset=".45" stop-color="#b8b9c4"></stop><stop offset=".67" stop-color="#c4c5cb"></stop><stop offset=".79" stop-color="#cccdd0"></stop><stop offset=".88" stop-color="#cacace"></stop><stop offset=".95" stop-color="#c2c2ca"></stop><stop offset="1" stop-color="#b8b9c4"></stop></linearGradient><linearGradient id="1776867897968-2653903_linear-gradient-12" x1="-2188.12" y1="2113.23" x2="-2187.33" y2="2113.23" gradientTransform="translate(2136833.98 -2063201.08) scale(976.56)" gradientUnits="userSpaceOnUse"><stop offset="0" stop-color="#00017c"></stop><stop offset=".02" stop-color="#00017c"></stop><stop offset=".04" stop-color="#050681"></stop><stop offset=".12" stop-color="#191a95"></stop><stop offset=".2" stop-color="#2626a1"></stop><stop offset=".27" stop-color="#2a2aa5"></stop><stop offset=".32" stop-color="#1a1a96"></stop><stop offset=".4" stop-color="#070883"></stop><stop offset=".45" stop-color="#00017c"></stop><stop offset=".57" stop-color="#0c0d88"></stop><stop offset=".79" stop-color="#2a2aa5"></stop><stop offset=".86" stop-color="#2728a2"></stop><stop offset=".91" stop-color="#1f209b"></stop><stop offset=".96" stop-color="#12138e"></stop><stop offset="1" stop-color="#00017c"></stop><stop offset="1" stop-color="#00017c"></stop></linearGradient><linearGradient id="1776867897968-2653903_linear-gradient-13" x1="-2188.12" y1="2113.23" x2="-2187.33" y2="2113.23" gradientTransform="translate(2136833.98 -2063201.08) scale(976.56)" gradientUnits="userSpaceOnUse"><stop offset="0" stop-color="#b8b9c4"></stop><stop offset=".02" stop-color="#b8b9c4"></stop><stop offset=".05" stop-color="#bbbcc6"></stop><stop offset=".17" stop-color="#c8c9ce"></stop><stop offset=".27" stop-color="#cccdd0"></stop><stop offset=".36" stop-color="#bfc0c8"></stop><stop offset=".45" stop-color="#b8b9c4"></stop><stop offset=".67" stop-color="#c4c5cb"></stop><stop offset=".79" stop-color="#cccdd0"></stop><stop offset=".88" stop-color="#cacace"></stop><stop offset=".95" stop-color="#c2c2ca"></stop><stop offset="1" stop-color="#b8b9c4"></stop></linearGradient><linearGradient id="1776867897968-2653903_linear-gradient-14" x1="-2188.12" y1="2112.94" x2="-2187.33" y2="2112.94" gradientTransform="translate(2134710.79 -2061329.86) scale(975.59)" gradientUnits="userSpaceOnUse"><stop offset="0" stop-color="#b3010e"></stop><stop offset=".02" stop-color="#b3010e"></stop><stop offset=".08" stop-color="#bc1520"></stop><stop offset=".15" stop-color="#c52933"></stop><stop offset=".21" stop-color="#ca363e"></stop><stop offset=".27" stop-color="#cc3a42"></stop><stop offset=".27" stop-color="#cc3a42"></stop><stop offset=".34" stop-color="#be1a26"></stop><stop offset=".41" stop-color="#b60814"></stop><stop offset=".45" stop-color="#b3010e"></stop><stop offset=".54" stop-color="#b90d19"></stop><stop offset=".73" stop-color="#c62d36"></stop><stop offset=".79" stop-color="#cc3a42"></stop><stop offset=".85" stop-color="#cb3740"></stop><stop offset=".9" stop-color="#c72f39"></stop><stop offset=".94" stop-color="#c2222d"></stop><stop offset=".98" stop-color="#ba101c"></stop><stop offset="1" stop-color="#b3010e"></stop></linearGradient><linearGradient id="1776867897968-2653903_linear-gradient-15" x1="-2188.12" y1="2113.02" x2="-2187.33" y2="2113.02" gradientTransform="translate(2134710.79 -2060974.36) scale(975.59)" gradientUnits="userSpaceOnUse"><stop offset="0" stop-color="#b3010e"></stop><stop offset=".02" stop-color="#b3010e"></stop><stop offset=".08" stop-color="#bc1520"></stop><stop offset=".15" stop-color="#c52933"></stop><stop offset=".21" stop-color="#ca363e"></stop><stop offset=".27" stop-color="#cc3a42"></stop><stop offset=".27" stop-color="#cc3a42"></stop><stop offset=".34" stop-color="#be1a26"></stop><stop offset=".41" stop-color="#b60814"></stop><stop offset=".45" stop-color="#b3010e"></stop><stop offset=".54" stop-color="#b90d19"></stop><stop offset=".73" stop-color="#c62d36"></stop><stop offset=".79" stop-color="#cc3a42"></stop><stop offset=".85" stop-color="#cb3740"></stop><stop offset=".9" stop-color="#c72f39"></stop><stop offset=".94" stop-color="#c2222d"></stop><stop offset=".98" stop-color="#ba101c"></stop><stop offset="1" stop-color="#b3010e"></stop></linearGradient><linearGradient id="1776867897968-2653903_linear-gradient-16" x1="-2188.12" y1="2113" x2="-2187.33" y2="2113" gradientTransform="translate(2134702.29 -2060932.36) scale(975.59)" gradientUnits="userSpaceOnUse"><stop offset="0" stop-color="#b3010e"></stop><stop offset=".02" stop-color="#b3010e"></stop><stop offset=".08" stop-color="#bc1520"></stop><stop offset=".15" stop-color="#c52933"></stop><stop offset=".21" stop-color="#ca363e"></stop><stop offset=".27" stop-color="#cc3a42"></stop><stop offset=".27" stop-color="#cc3a42"></stop><stop offset=".34" stop-color="#be1a26"></stop><stop offset=".41" stop-color="#b60814"></stop><stop offset=".45" stop-color="#b3010e"></stop><stop offset=".54" stop-color="#b90d19"></stop><stop offset=".73" stop-color="#c62d36"></stop><stop offset=".79" stop-color="#cc3a42"></stop><stop offset=".85" stop-color="#cb3740"></stop><stop offset=".9" stop-color="#c72f39"></stop><stop offset=".94" stop-color="#c2222d"></stop><stop offset=".98" stop-color="#ba101c"></stop><stop offset="1" stop-color="#b3010e"></stop></linearGradient><linearGradient id="1776867897968-2653903_linear-gradient-17" x1="-2188.12" y1="2113.08" x2="-2187.33" y2="2113.08" gradientTransform="translate(2136833.98 -2063201.08) scale(976.56)" gradientUnits="userSpaceOnUse"><stop offset="0" stop-color="#b3010e"></stop><stop offset=".02" stop-color="#b3010e"></stop><stop offset=".08" stop-color="#bc1520"></stop><stop offset=".15" stop-color="#c52933"></stop><stop offset=".21" stop-color="#ca363e"></stop><stop offset=".27" stop-color="#cc3a42"></stop><stop offset=".27" stop-color="#cc3a42"></stop><stop offset=".34" stop-color="#be1a26"></stop><stop offset=".41" stop-color="#b60814"></stop><stop offset=".45" stop-color="#b3010e"></stop><stop offset=".54" stop-color="#b90d19"></stop><stop offset=".73" stop-color="#c62d36"></stop><stop offset=".79" stop-color="#cc3a42"></stop><stop offset=".85" stop-color="#cb3740"></stop><stop offset=".9" stop-color="#c72f39"></stop><stop offset=".94" stop-color="#c2222d"></stop><stop offset=".98" stop-color="#ba101c"></stop><stop offset="1" stop-color="#b3010e"></stop></linearGradient></defs><path class="cls-9" d="M470.62,498.67v.14h0c6.8,1.03,13.59,2.02,20.39,2.94-6.8-1-13.59-2.04-20.39-3.09M163.52,458.19c-12.17,0-24.35.29-36.51.9-14.34.7-28.64,2.13-42.92,4.31-.5.38-1,.76-1.51,1.14h0s9.09-1.03,27.27-3.12c14.53-1.66,34.07-2.5,58.59-2.5,6.13,0,12.57.06,19.33.15,33.77.52,74.02,4.67,120.77,12.46h0v-.49c-17.94-2.69-35.87-5.13-53.77-7.3-30.44-3.71-60.86-5.55-91.28-5.55M470.62,396.75v90.05c13.51,2.05,27.01,3.97,40.51,5.78,34.71,4.66,69.41,6.99,104.12,6.99h.24c-20.97-12.91-41.87-26.78-62.68-41.65-27.27-19.48-54.66-39.87-82.19-61.16M766.71,336.38c-33.27,10.96-66.64,17.7-100.12,20.24-18,1.37-36.05,2.05-54.12,2.05-19.72,0-39.46-.81-59.24-2.43,37.92,25.98,75.71,49.22,113.38,69.73,33.48,18.25,66.85,32.28,100.12,42.09v-131.68M308.56,331.3c-37.92,17.67-75.59,37.01-112.98,58.04-30.6,17.21-61.36,37.1-92.3,59.7,8.17-.91,16.34-1.6,24.52-2.05,12.78-.7,25.55-1.05,38.33-1.05,29.81,0,59.62,1.9,89.45,5.72,17.67,2.25,35.32,4.75,52.99,7.46v-127.83M163.64,305.58c-27.01,0-54.15,1.95-81.42,5.84S27.56,322.2.02,332.08h-.02v101.29h0c49.87-48.32,104.41-90.9,163.63-127.79M766.71,89.92c-46.45,43.45-96.83,82.09-151.16,115.92,27.01,0,54.15-1.95,81.42-5.84,23.15-3.32,46.4-8.77,69.73-16.37v-93.7M0,39.89h0v139.46h0c37.41-13.51,74.93-21.69,112.58-24.55,18.02-1.37,36.05-2.05,54.13-2.05,19.71,0,39.46.81,59.24,2.43-37.91-25.98-75.7-49.22-113.38-69.73C74.93,64.95,37.41,49.75,0,39.89M470.62,39.89v140.25c37.91-17.65,75.57-37.01,112.98-58.04,37.39-21.05,75.06-46.1,112.98-75.19-27.8,4.18-55.47,6.29-83,6.29-10.01,0-20-.27-29.98-.84-37.41-2.07-75.06-6.22-112.98-12.46M159.15,0C154.16,0,149.15.05,144.15.14c27.53,16.1,54.92,33.89,82.19,53.37s54.66,39.87,82.21,61.16V12.62h0c-27.53-4.15-54.94-7.41-82.21-9.74-22.31-1.92-44.71-2.88-67.2-2.88" fill="url(#1776867897968-2653903_linear-gradient)"></path><path class="cls-8" d="M772.02,487.36c-.75.2-1.51.38-2.25.56-15.81,5.39-31.81,9.79-48.01,13.21-1.29.29-2.59.58-3.88.85,18.12-3.48,36.17-8.35,54.15-14.61M389.59,485.19h0c27.01,4.93,54.02,9.48,81.04,13.64h0v-.14c-15.45-2.4-30.92-4.95-46.4-7.61-11.69-1.9-23.22-3.85-34.64-5.87h0M308.56,471.06v.49h0c21.93,3.38,43.86,7,65.79,10.9-10.84-1.98-21.66-4.02-32.49-6.12-11.11-1.86-22.2-3.61-33.28-5.28M84.1,463.38c-9.36,1.42-18.7,3.17-28.05,5.22-.24.2-.49.41-.73.61-10.14,2.25-20.19,4.81-30.19,7.67,18.92-5.36,38.06-9.48,57.46-12.36h0c.5-.38,1-.76,1.51-1.14M766.71,305.93c-33.77,10.99-67.54,17.76-101.29,20.3-16.68,1.26-33.37,1.89-50.05,1.89-21.24,0-42.47-1.02-63.7-3.06-37.92-3.64-75.59-8.57-112.98-14.81v171.48c10.65,1.77,21.29,3.44,31.94,5.05v-90.05c27.53,21.29,54.92,41.68,82.19,61.16,20.82,14.87,41.71,28.76,62.68,41.65,7.81,0,15.61-.12,23.42-.37,18.92-.58,37.83-2.36,56.75-5.34-34.55-15.81-69.18-35.28-103.89-58.42-41.3-27.53-82.45-57.14-123.5-88.83,9.34,1.03,18.58,2.21,27.67,3.5s18.31,2.48,27.67,3.52c41.03,30.13,82.07,57.13,123.11,81.04,34.55,20.12,69.26,35.79,104.17,47.09,5.28-1.49,10.56-3.06,15.84-4.73v-8.93c-33.27-9.82-66.64-23.86-100.12-42.09-37.66-20.51-75.45-43.77-113.38-69.73,19.78,1.63,39.54,2.43,59.24,2.43,18.08,0,36.11-.68,54.12-2.05,33.48-2.54,66.85-9.28,100.12-20.24v-30.44M408.04,29.55c10.1,1.84,20.32,3.71,30.63,5.65v183.1c37.39,6.22,75.06,11.17,112.98,14.81,21.23,2.04,42.46,3.06,63.7,3.06,16.68,0,33.37-.62,50.05-1.89,33.75-2.54,67.54-9.31,101.29-20.3v-30.36c-23.34,7.61-46.58,13.07-69.73,16.37-27.27,3.9-54.42,5.84-81.42,5.84,54.31-33.83,104.7-72.47,151.16-115.92v-51.33c-36.87,34.8-73.76,64.6-110.64,89.33-41.04,27.53-82.33,51.94-123.89,73.25-8.83-1.03-17.93-2.21-27.27-3.52-9.34-1.29-18.44-2.47-27.27-3.5,41.04-19.22,82.07-40.78,123.11-64.68,41.04-23.89,82.07-52.99,123.11-87.28,10.24-2.27,20.41-4.85,30.48-7.76-18.99,5.4-38.26,9.54-57.75,12.43h0c-37.92,29.1-75.59,54.15-112.98,75.19-37.41,21.05-75.06,40.39-112.98,58.04V39.89c-20.86-3.21-41.71-6.65-62.58-10.32M144.16.15c-23.89,1.03-47.92,3.5-72.07,7.41C47.92,11.44,23.91,17.81,0,26.65v13.24h0c37.41,9.88,74.93,25.06,112.58,45.58,37.66,20.51,75.45,43.77,113.38,69.73-19.78-1.63-39.52-2.43-59.24-2.43-18.08,0-36.11.68-54.13,2.05-37.65,2.85-75.18,11.03-112.58,24.53h0v152.71h0c27.53-9.88,54.94-16.76,82.21-20.65,27.27-3.9,54.42-5.84,81.42-5.84C104.41,342.45,49.87,385.05,0,433.37h0v51.42h0v-11.69c6.29-2.22,12.57-4.31,18.86-6.25,34.76-32.26,69.5-60.04,104.26-83.35,41.03-27.53,82.33-51.94,123.89-73.25,8.83,1.03,17.93,2.21,27.27,3.52,9.34,1.29,18.44,2.47,27.27,3.5-41.03,19.22-82.07,40.78-123.11,64.68-34.47,20.07-68.94,43.81-103.41,71.21,9.42-1.67,18.84-3.04,28.24-4.09,30.94-22.6,61.71-42.49,92.3-59.7,37.39-21.05,75.06-40.39,112.98-58.04v127.83c10.91,1.67,21.82,3.42,32.73,5.28v-171.28c-37.92-6.22-75.85-11.17-113.76-14.81-21.24-2.04-42.47-3.06-63.7-3.06-16.68,0-33.37.62-50.05,1.89-37.92,2.86-75.83,11.03-113.76,24.55v-91.93c37.92-13.51,75.83-21.69,113.76-24.55,16.68-1.26,33.37-1.89,50.05-1.89,21.23,0,42.47,1.02,63.7,3.06,37.91,3.64,75.83,8.57,113.76,14.81V18.08c16.1,2.59,32.2,5.33,48.3,8.17-27.01-4.95-54.02-9.48-81.04-13.64h0v102.07c-27.53-21.29-54.94-41.68-82.21-61.16C199.08,34.04,171.69,16.25,144.16.15h0" fill="url(#1776867897968-2653903_linear-gradient-2)"></path><path class="cls-7" d="M766.71,30.74c-4.11,1.29-8.23,2.54-12.37,3.73-10.09,2.89-20.24,5.48-30.48,7.76-41.03,34.29-82.07,63.37-123.11,87.28s-82.07,45.46-123.11,64.68c8.83,1.03,17.93,2.21,27.27,3.5,9.34,1.29,18.44,2.47,27.27,3.52,41.56-21.29,82.85-45.72,123.89-73.25,36.87-24.74,73.76-54.53,110.64-89.33v-7.85" fill="url(#1776867897968-2653903_linear-gradient-3)"></path><path class="cls-6" d="M308.56,165.33c-41.03-31.68-82.21-61.3-123.5-88.83C143.77,48.99,102.6,26.65,61.56,9.5c-18.7,3.64-37.15,8.57-55.32,14.81,41.56,11.43,82.85,29.1,123.89,52.99,41.03,23.89,82.07,50.9,123.1,81.04,9.34,1.03,18.58,2.21,27.67,3.5,9.1,1.29,18.31,2.47,27.67,3.52" fill="url(#1776867897968-2653903_linear-gradient-4)"></path><path class="cls-3" d="M56.06,468.6c-18.73,4.12-37.42,9.51-56.05,16.19h-.02c8.32-2.86,16.69-5.49,25.13-7.91,9.98-2.86,20.06-5.43,30.19-7.67.24-.2.49-.41.73-.61M247.01,310.25c-41.55,21.29-82.85,45.72-123.89,73.25-34.74,23.31-69.5,51.1-104.26,83.35,18.72-5.8,37.44-10.36,56.16-13.7,34.47-27.41,68.94-51.15,103.41-71.21,41.04-23.89,82.07-45.46,123.11-64.68-8.83-1.03-17.93-2.21-27.27-3.5-9.34-1.29-18.44-2.47-27.27-3.52" fill="url(#1776867897968-2653903_linear-gradient-5)"></path><path class="cls-4" d="M769.77,487.92c-1.02.26-2.04.52-3.06.76-14.99,4.93-29.98,9.09-44.95,12.43,16.21-3.42,32.22-7.82,48.01-13.21M468.28,346.61c41.03,31.68,82.21,61.3,123.5,88.83,34.73,23.15,69.36,42.63,103.89,58.42,18.4-2.91,36.8-6.94,55.2-12.13-34.91-11.28-69.62-26.98-104.17-47.09-41.03-23.89-82.07-50.9-123.11-81.04-9.34-1.03-18.58-2.21-27.67-3.52-9.09-1.29-18.31-2.47-27.67-3.5" fill="url(#1776867897968-2653903_linear-gradient-6)"></path><path class="cls-2" d="M341.85,476.33c10.84,2.1,21.66,4.14,32.49,6.12,5.08.93,10.17,1.84,15.25,2.74h0c11.41,2.02,22.96,3.99,34.64,5.87-13.74-2.37-27.5-4.85-41.27-7.44-13.73-2.57-27.42-5.01-41.12-7.29M341.28,18.08v183.1c-37.92-6.22-75.85-11.17-113.76-14.81-21.24-2.04-42.47-3.06-63.7-3.06-16.68,0-33.37.62-50.05,1.89-37.92,2.86-75.83,11.03-113.76,24.55v91.93c37.92-13.51,75.83-21.69,113.76-24.55,16.68-1.26,33.37-1.89,50.05-1.89,21.23,0,42.46,1.02,63.7,3.06,37.91,3.64,75.83,8.57,113.76,14.81v171.28c14.03,2.37,28.05,4.89,42.08,7.53,18.44,3.48,36.89,6.76,55.32,9.8v-171.48c37.39,6.22,75.06,11.17,112.98,14.81,21.23,2.04,42.47,3.06,63.7,3.06,16.68,0,33.37-.62,50.05-1.89,33.75-2.54,67.54-9.31,101.29-20.3v-91.93c-33.77,10.99-67.54,17.76-101.29,20.3-16.68,1.25-33.37,1.89-50.05,1.89-21.24,0-42.47-1.02-63.7-3.06-37.92-3.64-75.59-8.57-112.98-14.81V35.21c-10.32-1.93-20.51-3.82-30.63-5.65-6.19-1.13-12.34-2.22-18.46-3.32h0c-16.1-2.86-32.2-5.59-48.3-8.17" fill="url(#1776867897968-2653903_linear-gradient-7)"></path><path class="cls-18" d="M779.17,484.79c-2.37.88-4.76,1.73-7.15,2.57.3-.08.61-.15.91-.23,2.08-.52,4.15-1.29,6.22-2.34M779.17,26.65c-2.07.52-4.15,1.17-6.22,1.95s-4.15,1.43-6.22,1.95v.2c4.17-1.31,8.32-2.68,12.46-4.09h0v51.42h0v101.29h0v30.39h0v91.93h0v30.39h0v139.46h0v13.24h0V26.65" fill="#cccdd0"></path><path class="cls-1" d="M779.17,332.08c-4.15,1.51-8.31,2.94-12.46,4.31v131.68c4.15,1.23,8.31,2.39,12.46,3.48v-139.46h0M779.17,78.07c-4.12,3.99-8.28,7.94-12.46,11.87v93.7c4.15-1.35,8.31-2.77,12.46-4.26v-101.31h0" fill="url(#1776867897968-2653903_linear-gradient-8)"></path><path class="cls-5" d="M766.71,468.07v8.93c-5.28,1.67-10.56,3.26-15.84,4.73,6.56,2.12,13.13,4.09,19.72,5.9-.27.09-.55.18-.82.27.75-.2,1.51-.38,2.25-.56,2.39-.84,4.76-1.69,7.15-2.57h0v-13.24h0c-4.15-1.1-8.31-2.25-12.46-3.48M779.17,301.68c-4.15,1.48-8.31,2.89-12.46,4.25v30.44c4.15-1.37,8.31-2.8,12.46-4.31h0v-30.39M779.17,179.36h0c-4.15,1.49-8.31,2.91-12.46,4.26v30.36c4.15-1.35,8.31-2.77,12.46-4.25v-30.39M779.17,26.65h0c-4.15,4.05-8.31,8.04-12.46,11.95v51.33c4.18-3.91,8.34-7.87,12.46-11.87h0V26.65" fill="url(#1776867897968-2653903_linear-gradient-9)"></path><path class="cls-10" d="M166.12,445.95c-12.78,0-25.55.35-38.33,1.05-8.17.44-16.34,1.13-24.52,2.05-6.38,4.66-12.77,9.44-19.17,14.34,14.27-2.18,28.56-3.61,42.92-4.31,12.17-.59,24.35-.9,36.51-.9,30.42,0,60.84,1.86,91.28,5.55,17.9,2.19,35.82,4.63,53.77,7.3v-11.93c-17.67-2.71-35.32-5.19-52.99-7.46-29.81-3.82-59.62-5.72-89.45-5.72" fill="url(#1776867897968-2653903_linear-gradient-10)"></path><path class="cls-11" d="M18.86,466.85c-6.29,1.95-12.57,4.03-18.86,6.25v11.69h0c6.29-6.13,12.57-12.1,18.86-17.94M308.56,459.13v11.93c11.08,1.66,22.19,3.41,33.28,5.28-.18-.05-.38-.08-.56-.11v-11.81c-10.91-1.84-21.82-3.59-32.73-5.28M103.29,449.04c-9.42,1.05-18.84,2.42-28.24,4.09-6.32,5.02-12.63,10.17-18.96,15.45,9.33-2.05,18.69-3.8,28.05-5.22,6.39-4.89,12.78-9.66,19.17-14.34" fill="url(#1776867897968-2653903_linear-gradient-11)"></path><path class="cls-18" d="M491.01,501.76c6.71.99,13.42,1.95,20.12,2.89,34.99,4.9,69.97,7.35,104.96,7.35,7.61,0,15.22-.12,22.81-.35,26.33-.81,52.64-4.03,78.95-9.69-3.59.68-7.18,1.32-10.77,1.9-24.15,3.9-48.18,6.36-72.07,7.41h-21.05c-23.89,0-47.79-1.17-71.68-3.52-17.11-1.67-34.2-3.68-51.29-6.01" fill="#cccdd0"></path><path class="cls-12" d="M470.62,486.8v11.87c6.8,1.05,13.61,2.08,20.39,3.09,17.09,2.34,34.2,4.34,51.29,6.01,23.89,2.34,47.79,3.52,71.68,3.52h21.05c-6.51-3.82-13.03-7.72-19.52-11.72h-.24c-34.71,0-69.41-2.33-104.12-6.99-13.51-1.81-27.01-3.74-40.51-5.78" fill="url(#1776867897968-2653903_linear-gradient-12)"></path><path class="cls-13" d="M695.67,493.86c-18.92,2.98-37.83,4.76-56.75,5.34-7.81.24-15.61.37-23.42.37,6.5,4,13.01,7.91,19.52,11.72h0c23.89-1.03,47.92-3.52,72.07-7.41,3.59-.58,7.18-1.22,10.77-1.9,1.29-.27,2.59-.56,3.88-.85-2.16.46-4.32.9-6.48,1.32-6.53-2.72-13.06-5.59-19.6-8.58M438.68,481.73v11.63c-4.84-.76-9.65-1.52-14.44-2.3,15.49,2.68,30.95,5.2,46.4,7.61v-11.87c-10.65-1.61-21.29-3.3-31.94-5.05" fill="url(#1776867897968-2653903_linear-gradient-13)"></path><path class="cls-14" d="M779.17,26.65c-4.14,1.42-8.29,2.78-12.46,4.09v7.85c4.15-3.93,8.31-7.91,12.46-11.95h0" fill="url(#1776867897968-2653903_linear-gradient-14)"></path><path class="cls-15" d="M75.03,453.15c-18.72,3.33-37.44,7.91-56.16,13.7-6.29,5.83-12.57,11.81-18.86,17.94,18.64-6.67,37.31-12.07,56.05-16.19,6.32-5.28,12.63-10.42,18.96-15.45" fill="url(#1776867897968-2653903_linear-gradient-15)"></path><path class="cls-16" d="M750.86,481.75c-18.4,5.17-36.8,9.22-55.2,12.13,6.53,3,13.07,5.84,19.6,8.58,2.16-.43,4.32-.87,6.48-1.32,14.99-3.36,29.96-7.5,44.95-12.43,1.02-.26,2.04-.52,3.06-.76.27-.09.55-.18.82-.27-6.59-1.81-13.16-3.77-19.72-5.9" fill="url(#1776867897968-2653903_linear-gradient-16)"></path><path class="cls-17" d="M341.28,464.4v11.81c.18.05.38.08.56.11,13.7,2.28,27.39,4.72,41.12,7.29,13.77,2.59,27.51,5.07,41.27,7.44,4.79.78,9.62,1.55,14.44,2.3v-11.63c-18.44-3.04-36.89-6.32-55.32-9.8-14.03-2.65-28.05-5.16-42.08-7.53M779.17,209.74h0c-4.15,1.48-8.31,2.89-12.46,4.25v91.93c4.15-1.35,8.31-2.77,12.46-4.25h0v-91.93" fill="url(#1776867897968-2653903_linear-gradient-17)"></path></g></svg>