<svg data-name="Layer 1" xmlns="http://www.w3.org/2000/svg" style="" viewBox="0 0 460.8 512"><g class="nc-icon-wrapper"><defs><linearGradient id="1776867897969-7381556_linear-gradient" x1="213.99" y1="2" x2="213.99" y2="240.1" gradientTransform="matrix(1 0 0 -1 0 514)" gradientUnits="userSpaceOnUse"><stop offset="0" stop-color="#ffa6c0"></stop><stop offset=".57" stop-color="#ff8fa6"></stop><stop offset="1" stop-color="#ff8298"></stop></linearGradient><linearGradient id="1776867897969-7381556_linear-gradient-2" x1="207.61" y1="5.19" x2="207.61" y2="24" gradientTransform="matrix(1 0 0 -1 0 514)" gradientUnits="userSpaceOnUse"><stop offset="0" stop-color="#ffa6c0"></stop><stop offset=".57" stop-color="#ff8fa6"></stop><stop offset="1" stop-color="#ff8298"></stop></linearGradient><linearGradient id="1776867897969-7381556_linear-gradient-3" x1="204.95" y1="17.5" x2="204.95" y2="27.06" gradientTransform="matrix(1 0 0 -1 0 514)" gradientUnits="userSpaceOnUse"><stop offset="0" stop-color="#ffa6c0"></stop><stop offset=".57" stop-color="#ff8fa6"></stop><stop offset="1" stop-color="#ff8298"></stop></linearGradient><linearGradient id="1776867897969-7381556_linear-gradient-4" x1="254.6" y1="53.88" x2="254.6" y2="247.89" gradientTransform="matrix(1 0 0 -1 0 514)" gradientUnits="userSpaceOnUse"><stop offset="0" stop-color="#ffa6c0"></stop><stop offset=".57" stop-color="#ff8fa6"></stop><stop offset="1" stop-color="#ff8298"></stop></linearGradient><linearGradient id="1776867897969-7381556_linear-gradient-5" x1="102.49" y1="6.97" x2="102.49" y2="23.95" gradientTransform="scale(1 -1) rotate(45 699.988 -106.945)" gradientUnits="userSpaceOnUse"><stop offset="0" stop-color="#ffa6c0"></stop><stop offset=".57" stop-color="#ff8fa6"></stop><stop offset="1" stop-color="#ff8298"></stop></linearGradient><linearGradient id="1776867897969-7381556_linear-gradient-6" x1="101.72" y1="17.8" x2="101.72" y2="28.04" gradientTransform="scale(1 -1) rotate(45 699.988 -106.945)" gradientUnits="userSpaceOnUse"><stop offset="0" stop-color="#ffa6c0"></stop><stop offset=".57" stop-color="#ff8fa6"></stop><stop offset="1" stop-color="#ff8298"></stop></linearGradient><linearGradient id="1776867897969-7381556_linear-gradient-7" x1="28.57" y1="380.81" x2="171.63" y2="380.81" gradientTransform="matrix(1.03 0 0 -.98 -2 509.2)" gradientUnits="userSpaceOnUse"><stop offset="0" stop-color="#ff1c60"></stop><stop offset=".08" stop-color="#ff2867"></stop><stop offset=".51" stop-color="#ff658c"></stop><stop offset=".83" stop-color="#ff8ba2"></stop><stop offset="1" stop-color="#ff99ab"></stop></linearGradient><linearGradient id="1776867897969-7381556_linear-gradient-8" x1="-64.25" y1="405.18" x2="-64.25" y2="466.32" gradientTransform="scale(1 -1) rotate(-20.11 -1398.51 -49.36)" gradientUnits="userSpaceOnUse"><stop offset="0" stop-color="#ff6e90"></stop><stop offset=".3" stop-color="#f39eba"></stop><stop offset=".61" stop-color="#e9c8e0"></stop><stop offset=".85" stop-color="#e2e1f6"></stop><stop offset="1" stop-color="#e0ebff"></stop></linearGradient><linearGradient id="1776867897969-7381556_linear-gradient-9" x1="-61.77" y1="313.15" x2="447.41" y2="313.15" gradientTransform="matrix(1 0 0 -1 0 514)" gradientUnits="userSpaceOnUse"><stop offset="0" stop-color="#ff99ab"></stop><stop offset=".17" stop-color="#ff8ba2"></stop><stop offset=".49" stop-color="#ff658c"></stop><stop offset=".92" stop-color="#ff2867"></stop><stop offset="1" stop-color="#ff1c60"></stop></linearGradient><linearGradient id="1776867897969-7381556_linear-gradient-10" x1="130.03" y1="339.22" x2="460.8" y2="339.22" gradientTransform="matrix(1 0 0 -1 0 514)" gradientUnits="userSpaceOnUse"><stop offset="0" stop-color="#ff1c60"></stop><stop offset=".08" stop-color="#ff2867"></stop><stop offset=".51" stop-color="#ff658c"></stop><stop offset=".83" stop-color="#ff8ba2"></stop><stop offset="1" stop-color="#ff99ab"></stop></linearGradient><linearGradient id="1776867897969-7381556_linear-gradient-11" x1="119.01" y1="346.23" x2="365.16" y2="346.23" gradientTransform="matrix(1 0 0 -1 0 514)" gradientUnits="userSpaceOnUse"><stop offset="0" stop-color="#ff1c60"></stop><stop offset=".08" stop-color="#ff2867"></stop><stop offset=".51" stop-color="#ff658c"></stop><stop offset=".83" stop-color="#ff8ba2"></stop><stop offset="1" stop-color="#ff99ab"></stop></linearGradient></defs><path class="cls-10" d="M223.95,277.07c14.92,85.22-4.81,87.2,3.75,99.21,6.48,9.05,4.89,91.91,2.78,100.22-2.96,11.78-29.11,8.97-40.28,10.44-2.92.38-1.46,3.32.65,3.21,17.77-.9-3.77,4.97-7.54,8.08-2.33,1.93-.89,3.12,1.75,2.44,7.57-1.99,21.28,3.4,13.71,8.15-2.01,1.25-4.62,5.08,3.5,2.05,18.44-6.87,28.43-12.68,33-17.54,6.75-7.18,10.44.75,10.53-1.31.58-8.81-5.15-12.46-5.51-15.19-2.26-16.78-1.96-97.54,1.2-100.65,8.17-8.04-13.35-40.21,2.82-101.37.79-2.93-20.36,2.27-20.36,2.27Z" fill="url(#1776867897969-7381556_linear-gradient)"></path><path class="cls-8" d="M185.07,500.66c5.3-.36,15.79,4.81,13.71,8.15,16.61-6.75,36.47-18.46,30.38-18.8-7.42-.43-46.81,10.82-44.09,10.65Z" fill="url(#1776867897969-7381556_linear-gradient-2)"></path><path class="cls-7" d="M190.87,490.14c.17,2.2-4.47,6.36-4.47,6.36,10.15-3.54,31-5.84,36.53-8.41,5.45-2.53-29.61-.39-32.06,2.06Z" fill="url(#1776867897969-7381556_linear-gradient-3)"></path><path class="cls-6" d="M334.72,345.9c-3.93-3.69-43.9-41.63-41.33-77.72.44-6.02-19.34,3.02-19.34,3.02,6.78,21.71,20.12,32.95,49.94,78.54,3.93,6.02-107.07,49.56-116.56,55.11-11.72,6.85-28,32.8-34.99,41.5-1.83,2.28,1.02,3.04,2.46,1.52,12.01-12.98.41,5.67-.32,10.21-.47,2.82,1.31,2.54,2.74.28,4.13-6.53,17.19-12.79,14.75-4.58-.66,2.16-.12,6.32,3.75-1.19,8.76-17.09,4.1-28.43,14.12-37.72,9.82-9.1,114.17-53.52,120.39-54.27,6.72-.82,9.52-9.91,4.39-14.69Z" fill="url(#1776867897969-7381556_linear-gradient-4)"></path><path class="cls-3" d="M177.3,458.36c3.52-3.93,14.16-8.08,14.75-4.58,6.59-13.54,10.22-33.3,7.24-31.11-6.41,4.67-23.81,37.69-22,35.69Z" fill="url(#1776867897969-7381556_linear-gradient-5)"></path><path class="cls-4" d="M174.88,447.85c1.48,1.23.76,7.01.76,7.01,5-9.26,16.66-27.16,18.98-32.6,2.29-5.36-19.53,22.37-19.74,25.58Z" fill="url(#1776867897969-7381556_linear-gradient-6)"></path><path class="cls-2" d="M120.51,189.56c-20.02,55.8-41.32-2.18-12.23-60.08,23.27-46.32,29.28-60.65,17.87-89.02C115.3,13.41,88.82-1.46,57.78.11c-13.33.7-30.18,18.89-30.05,28.02,4.61,15.08-8.18,23.58,8.56,29.44,21.34,8.43,47.43-24.58,56.87-11.69,15.89,21.67-4.57,51.78-23.31,88.11-21.04,40.78-50.65,152.41,102.05,133.05,13.08-28.5-29.97-75.01-51.4-77.49Z" fill="url(#1776867897969-7381556_linear-gradient-7)"></path><path class="cls-1" d="M23.31,78.19c3.57-11.95,13.34-16.74,16.14-25.57.93-2.86-3.26-11.17,8.04-20.43l-5.89-4.68c-8.37,8.9-10.35.07-13.86.62C20.79,39.37-1.15,48.46.54,61.19c2.24,16.74,18.88,29.87,22.77,17.01Z" fill="url(#1776867897969-7381556_linear-gradient-8)"></path><path class="cls-15" d="M5.29,65.43c-1.92-.42-4.16-5.4-4.63-7.68-5.03,30.71,20.36,59.84,19.5,39.4-.48-11.5,3.56-12.13,3.15-18.96-.14-1.64-12.97,2.15-15.93-6.91.71-22.96,24.64-17.93,27.69-26.4-11.3,7.7-25.28,1.83-29.78,20.56Z" fill="#302c3b"></path><path class="cls-15" d="M10.3,51.82c2.53-3.49,9.34-3.91,13-9.43-8.1,5.5-11.19,5.35-13,9.43Z" fill="#302c3b"></path><path class="cls-11" d="M268.97,261.61c0,30.91-68.23,30.91-68.23,0,0-16.39,68.23-16.39,68.23,0Z" fill="#ffa3b2"></path><path class="cls-11" d="M460.8,235s-39.83-21.55-107.01-14c78.57-59.33,107.01,14,107.01,14Z" fill="#ffa3b2"></path><path class="cls-5" d="M239.95,272.76c37.72,36.93,68.33-6.45,68.33-6.45,56.87,2.25,73.33-29.58,131.62-28.46-28.41-23.29-52.56-24.1-52.56-24.1-7.38-38.34-72.74-115.55-183.59-96.81-109.84,18.56-127.3,168.75,36.21,155.82Z" fill="url(#1776867897969-7381556_linear-gradient-9)"></path><path class="cls-11" d="M190.57,228.62c95.74,38.26,174.79,16.81,174.79,16.81-69.16-11.5-94.28-69.15-175.47-77.59-47.91-4.96-103.95,18.99.67,60.78Z" fill="#ffa3b2"></path><path class="cls-13" d="M222.45,228.57c139.5,32.25,238.35-29.99,238.35-29.99-101.98-29.37-147.05-101.91-257.92-84.09-65.43,10.5-132.82,78.79,19.57,114.07Z" fill="url(#1776867897969-7381556_linear-gradient-10)"></path><path class="cls-14" d="M289.57,221.83c-52.98-5.44-87.29-18.76-87.29-18.76,90.91,13.63,162.88-25.74,162.88-25.74-52.49-23.23-135.97-19.6-135.97-19.6,42.34-15.93,123.84,10.08,123.84,10.08,0,0-51.38-61.36-139.76-57.61-90.32,3.86-186.21,139.11,76.3,111.63Z" fill="url(#1776867897969-7381556_linear-gradient-11)"></path><path class="cls-9" d="M43.57,23.01c-6.22.09-8.62,5.28-8.05,9.3.42,2.99,15.85,2.76,16.21-.24.55-4.36-2.5-9.15-8.17-9.06Z" fill="#1a1626"></path><path class="cls-12" d="M43.58,24.44c-4.5.08-8.1,3.39-8.07,7.42.04,3.46,3.68,7.22,8.17,7.17,4.49-.07,8.07-4.57,8.06-7.42-.03-4.03-3.68-7.24-8.15-7.17Z" fill="#fff"></path><path class="cls-9" d="M42.82,25.86c3.34-.04,6.07,2.51,6.09,5.73.02,3.2-2.67,5.87-6.04,5.9-3.33.05-6.06-2.52-6.08-5.71-.03-3.22,2.68-5.88,6.03-5.91Z" fill="#1a1626"></path><path class="cls-12" d="M42.33,28.78c.03,2.09-3.27,2.17-3.29.05,0-2.12,3.28-2.16,3.29-.05Z" fill="#fff"></path></g></svg>