<svg data-name="Layer 1" xmlns="http://www.w3.org/2000/svg" style="" viewBox="0 0 432.01 512"><g class="nc-icon-wrapper"><defs><radialGradient id="1776867897970-9500818_radial-gradient" cx="-100.5" cy="-135.95" fx="-100.5" fy="-135.95" r="97.47" gradientTransform="matrix(.85943 .76412 -1.5921 1.66209 208.5 631.02)" gradientUnits="userSpaceOnUse"><stop offset="0" stop-color="#f59e01"></stop><stop offset=".16" stop-color="#f7aa01"></stop><stop offset=".4" stop-color="#f9b700"></stop><stop offset=".55" stop-color="#fbc50f"></stop><stop offset=".82" stop-color="#feda24"></stop><stop offset=".99" stop-color="#ffe12c"></stop></radialGradient><linearGradient id="1776867897970-9500818_linear-gradient" x1="-260.53" y1="558.22" x2="-260.53" y2="652.67" gradientTransform="translate(564 -212)" gradientUnits="userSpaceOnUse"><stop offset="0" stop-color="#f9b700"></stop><stop offset=".43" stop-color="#f7aa01"></stop><stop offset=".73" stop-color="#f59e01"></stop><stop offset=".79" stop-color="#ef9903"></stop><stop offset=".88" stop-color="#e08b0a"></stop><stop offset=".97" stop-color="#c67415"></stop><stop offset=".99" stop-color="#c17017"></stop></linearGradient><linearGradient id="1776867897970-9500818_linear-gradient-2" x1="-226" y1="461.1" x2="-226" y2="576.83" gradientTransform="translate(564 -212)" gradientUnits="userSpaceOnUse"><stop offset=".23" stop-color="#f9b700"></stop><stop offset=".39" stop-color="#f7aa01"></stop><stop offset=".51" stop-color="#f59e01"></stop><stop offset=".63" stop-color="#ef9903"></stop><stop offset=".79" stop-color="#e08b0a"></stop><stop offset=".96" stop-color="#c67415"></stop><stop offset=".99" stop-color="#c17017"></stop></linearGradient><radialGradient id="1776867897970-9500818_radial-gradient-2" cx="-781.9" cy="318.64" fx="-781.9" fy="318.64" r="89.93" gradientTransform="matrix(.85943 -.76412 1.5921 1.66209 261.05 -799.77)" gradientUnits="userSpaceOnUse"><stop offset="0" stop-color="#f59e01"></stop><stop offset=".16" stop-color="#f7aa01"></stop><stop offset=".4" stop-color="#f9b700"></stop><stop offset=".55" stop-color="#fbc50f"></stop><stop offset=".82" stop-color="#feda24"></stop><stop offset=".99" stop-color="#ffe12c"></stop></radialGradient><linearGradient id="1776867897970-9500818_linear-gradient-3" x1="-435.45" y1="558.22" x2="-435.45" y2="652.68" gradientTransform="translate(564 -212)" gradientUnits="userSpaceOnUse"><stop offset="0" stop-color="#f9b700"></stop><stop offset=".43" stop-color="#f7aa01"></stop><stop offset=".73" stop-color="#f59e01"></stop><stop offset=".79" stop-color="#ef9903"></stop><stop offset=".88" stop-color="#e08b0a"></stop><stop offset=".97" stop-color="#c67415"></stop><stop offset=".99" stop-color="#c17017"></stop></linearGradient><linearGradient id="1776867897970-9500818_linear-gradient-4" x1="-470.01" y1="461.1" x2="-470.01" y2="576.83" gradientTransform="translate(564 -212)" gradientUnits="userSpaceOnUse"><stop offset=".23" stop-color="#f9b700"></stop><stop offset=".46" stop-color="#f7aa01"></stop><stop offset=".62" stop-color="#f59e01"></stop><stop offset=".72" stop-color="#ef9903"></stop><stop offset=".83" stop-color="#e08b0a"></stop><stop offset=".97" stop-color="#c67415"></stop><stop offset=".99" stop-color="#c17017"></stop></linearGradient><radialGradient id="1776867897970-9500818_radial-gradient-3" cx="187.68" cy="316.62" fx="187.68" fy="316.62" r="239.95" gradientTransform="matrix(1 0 0 -1 0 514)" gradientUnits="userSpaceOnUse"><stop offset=".01" stop-color="#ffe12c"></stop><stop offset=".22" stop-color="#feda24"></stop><stop offset=".55" stop-color="#fbc50f"></stop><stop offset=".73" stop-color="#f9b700"></stop><stop offset=".89" stop-color="#f7aa01"></stop><stop offset="1" stop-color="#f59e01"></stop></radialGradient><linearGradient id="1776867897970-9500818_linear-gradient-5" x1="250.51" y1="119.25" x2="250.51" y2="514" gradientTransform="matrix(1 0 0 -1 0 514)" gradientUnits="userSpaceOnUse"><stop offset=".01" stop-color="#c17017"></stop><stop offset=".68" stop-color="#f9b700"></stop></linearGradient><radialGradient id="1776867897970-9500818_radial-gradient-4" cx="-372.75" cy="664.49" fx="-372.75" fy="664.49" r="47.01" gradientTransform="translate(564 -212)" gradientUnits="userSpaceOnUse"><stop offset=".01" stop-color="#ffe12c"></stop><stop offset=".22" stop-color="#feda24"></stop><stop offset=".55" stop-color="#fbc50f"></stop><stop offset=".73" stop-color="#f9b700"></stop><stop offset=".89" stop-color="#f7aa01"></stop><stop offset="1" stop-color="#f59e01"></stop></radialGradient><linearGradient id="1776867897970-9500818_linear-gradient-6" x1="-320.77" y1="604.99" x2="-320.77" y2="724" gradientTransform="translate(564 -212)" gradientUnits="userSpaceOnUse"><stop offset=".23" stop-color="#f9b700"></stop><stop offset=".52" stop-color="#f7aa01"></stop><stop offset=".73" stop-color="#f59e01"></stop><stop offset=".79" stop-color="#ef9903"></stop><stop offset=".88" stop-color="#e08b0a"></stop><stop offset=".97" stop-color="#c67415"></stop><stop offset=".99" stop-color="#c17017"></stop></linearGradient><radialGradient id="1776867897970-9500818_radial-gradient-5" cx="-552.19" cy="1019" fx="-552.19" fy="1019" r="170.13" gradientTransform="matrix(.82957 -.02665 .06753 .92831 604.37 -676.22)" gradientUnits="userSpaceOnUse"><stop offset=".01" stop-color="#ffe12c"></stop><stop offset=".18" stop-color="#feda24"></stop><stop offset=".45" stop-color="#fbc50f"></stop><stop offset=".6" stop-color="#f9b700"></stop><stop offset=".84" stop-color="#f7aa01"></stop><stop offset="1" stop-color="#f59e01"></stop></radialGradient><linearGradient id="1776867897970-9500818_linear-gradient-7" x1="-319.82" y1="541.46" x2="-319.82" y2="557.46" gradientTransform="translate(564 -212)" gradientUnits="userSpaceOnUse"><stop offset=".23" stop-color="#f9b700"></stop><stop offset=".65" stop-color="#f7aa01"></stop><stop offset=".93" stop-color="#f59e01"></stop></linearGradient><linearGradient id="1776867897970-9500818_linear-gradient-8" x1="-327.93" y1="557.46" x2="-327.93" y2="565.46" gradientTransform="translate(564 -212)" gradientUnits="userSpaceOnUse"><stop offset=".23" stop-color="#f9b700"></stop><stop offset=".65" stop-color="#f7aa01"></stop><stop offset=".93" stop-color="#f59e01"></stop></linearGradient><linearGradient id="1776867897970-9500818_linear-gradient-9" x1="-327.93" y1="533.46" x2="-327.93" y2="541.46" gradientTransform="translate(564 -212)" gradientUnits="userSpaceOnUse"><stop offset=".23" stop-color="#f9b700"></stop><stop offset=".65" stop-color="#f7aa01"></stop><stop offset=".93" stop-color="#f59e01"></stop></linearGradient></defs><path class="cls-14" d="M306.57,229.63c-90.23,48.41-71.73,182.76-11.36,205.14,86.46,32.08,83.44-103.47,27.3-88.94,35.64,59.7-64.46,70.41-47.03-19.38,14.85-76.52,135.01-67.77,106.89,38.38,97.9-18.21,39.57-197.06-75.8-135.2Z" fill="url(#1776867897970-9500818_radial-gradient)"></path><path class="cls-15" d="M244.39,346.22c2.07,40.77,21.51,78.78,50.69,89.59,62.62,23.22,78.25-42.53,60.81-74.46,13.35,71.46-84.53,100.26-111.5-15.14Z" fill="url(#1776867897970-9500818_linear-gradient)"></path><path class="cls-13" d="M307.88,259.14c-29.06,15.39-35.92,51.72-32.41,67.3,14.46-74.46,134.48-65.78,106.89,38.38,45.13-44.99,5.78-148.15-74.48-105.69Z" fill="url(#1776867897970-9500818_linear-gradient-2)"></path><path class="cls-1" d="M332.5,374.98c-.77-4.56.43,16.53-21.54,20.16-6.26,1.02,25.76,6.17,21.54-20.16Z" fill="#ffe463"></path><path class="cls-5" d="M125.44,229.63c90.23,48.4,71.71,182.76,11.34,205.14-86.46,32.06-83.42-103.48-27.3-88.94-35.64,59.7,64.47,70.42,47.04-19.38-14.85-76.51-135-67.76-106.91,38.38-97.87-18.21-39.53-197.06,75.83-135.2Z" fill="url(#1776867897970-9500818_radial-gradient-2)"></path><path class="cls-12" d="M187.64,346.22c-2.09,40.78-21.53,78.78-50.7,89.59-62.62,23.23-78.23-42.53-60.81-74.46-13.36,71.46,84.54,100.26,111.51-15.14Z" fill="url(#1776867897970-9500818_linear-gradient-3)"></path><path class="cls-11" d="M124.12,259.14c29.06,15.39,35.91,51.72,32.41,67.3-14.47-74.46-134.48-65.78-106.91,38.38-45.1-44.99-5.74-148.15,74.5-105.69Z" fill="url(#1776867897970-9500818_linear-gradient-4)"></path><path class="cls-1" d="M154.41,377.17c.99-4.96-6.1,17.58-32.09,18.29-7.38.22,26.32,10.25,32.09-18.29Z" fill="#ffe463"></path><path class="cls-4" d="M216.01,0s-76.37,85.81-68.43,170.34c5.04,53.72,38.3,96.22,44.46,134.57,2.83,17.61,0,79.36,0,79.36,0,0,19.61-2.34,23.98,10.49,27.78-172.58,0-394.75,0-394.75Z" fill="url(#1776867897970-9500818_radial-gradient-3)"></path><path class="cls-8" d="M216.01,0v346.44s0-.02,0-.02v48.33c4.36-12.83,23.98-10.49,23.98-10.49,0,0-2.83-61.77,0-79.39,6.16-38.33,39.42-80.83,44.45-134.54C292.38,85.78,216.01,0,216.01,0Z" fill="url(#1776867897970-9500818_linear-gradient-5)"></path><path class="cls-3" d="M216.01,404.88s-7.28-15.26-22-11.21c-18.54,5.1-9.06,26.13-10.9,34.43-4.63,21.07-21.51,21.07-21.51,21.07,0,0,8.12,13.82,21.42,13.82,9.64,0,12.28-5.94,12.28-5.94-2.07,22.99,20.7,54.94,20.7,54.94,11-59.5,0-107.12,0-107.12Z" fill="url(#1776867897970-9500818_radial-gradient-4)"></path><path class="cls-9" d="M248.92,428.1c-1.82-8.3,7.64-29.34-10.9-34.43-14.69-4.06-22,11.21-22,11.21v107.12s22.78-31.95,20.72-54.95c0,0,2.65,5.94,12.29,5.94,13.3,0,21.43-13.82,21.43-13.82,0,0-16.9,0-21.54-21.06Z" fill="url(#1776867897970-9500818_linear-gradient-6)"></path><path class="cls-1" d="M185.25,409.62c.46,4.28,6.5-4.1,12.64-11.3,3.96-4.62-14.04-1.58-12.64,11.3Z" fill="#ffe463"></path><path class="cls-2" d="M283.89,345.46h-4.26c11.15,0,11.15-16,0-16h4.26c5.5,0,5.5-8,0-8h-135.78c-5.49,0-5.49,8,0,8h4.25c-11.06.02-11.13,15.77-.21,15.98.08,0,.14.02.21.02h-4.25c-5.49,0-5.49,7.99,0,7.99h135.78c5.5,0,5.5-7.99,0-7.99Z" fill="url(#1776867897970-9500818_radial-gradient-5)"></path><path class="cls-7" d="M279.63,345.46h-79.26c87.64,0,79.26-16,79.26-16,11.15,0,11.15,16,0,16Z" fill="url(#1776867897970-9500818_linear-gradient-7)"></path><path class="cls-6" d="M283.89,353.46h-99.77c114.59,0,99.77-8,99.77-8,5.5,0,5.5,8,0,8Z" fill="url(#1776867897970-9500818_linear-gradient-8)"></path><path class="cls-10" d="M283.89,329.46h-99.77c114.59,0,99.77-8,99.77-8,5.5,0,5.5,8,0,8Z" fill="url(#1776867897970-9500818_linear-gradient-9)"></path></g></svg>