<svg data-name="Layer 1" xmlns="http://www.w3.org/2000/svg" style="" viewBox="0 0 514.2 512"><g class="nc-icon-wrapper"><defs><linearGradient id="1777685730296-5161017_linear-gradient" x1="-455.01" y1="221.12" x2="525.91" y2="268.39" gradientTransform="matrix(1 0 0 -1 0 511.44)" gradientUnits="userSpaceOnUse"><stop offset="0" stop-color="#99a8ae"></stop><stop offset="1" stop-color="#f3f8fc"></stop></linearGradient><linearGradient id="1777685730296-5161017_linear-gradient-2" x1="257.51" y1="271.31" x2="257.51" y2="456.65" gradientTransform="matrix(1 0 0 -1 0 511.44)" gradientUnits="userSpaceOnUse"><stop offset="0" stop-color="#99a8ae" stop-opacity="0"></stop><stop offset=".21" stop-color="#b3bfc4" stop-opacity=".21"></stop><stop offset=".55" stop-color="#d6dee3" stop-opacity=".55"></stop><stop offset=".82" stop-color="#ebf1f5" stop-opacity=".82"></stop><stop offset="1" stop-color="#f3f8fc"></stop></linearGradient><linearGradient id="1777685730296-5161017_linear-gradient-3" x1="257.51" y1="166.86" x2="257.51" y2="391.12" gradientTransform="matrix(1 0 0 -1 0 511.44)" gradientUnits="userSpaceOnUse"><stop offset="0" stop-color="#99a8ae" stop-opacity="0"></stop><stop offset=".21" stop-color="#b3bfc4" stop-opacity=".21"></stop><stop offset=".55" stop-color="#d6dee3" stop-opacity=".55"></stop><stop offset=".82" stop-color="#ebf1f5" stop-opacity=".82"></stop><stop offset="1" stop-color="#f3f8fc"></stop></linearGradient><linearGradient id="1777685730296-5161017_linear-gradient-4" x1="257.51" y1="24.01" x2="257.51" y2="233.93" gradientTransform="matrix(1 0 0 -1 0 511.44)" gradientUnits="userSpaceOnUse"><stop offset="0" stop-color="#99a8ae" stop-opacity="0"></stop><stop offset=".21" stop-color="#b3bfc4" stop-opacity=".21"></stop><stop offset=".55" stop-color="#d6dee3" stop-opacity=".55"></stop><stop offset=".82" stop-color="#ebf1f5" stop-opacity=".82"></stop><stop offset="1" stop-color="#f3f8fc"></stop></linearGradient><linearGradient id="1777685730296-5161017_linear-gradient-5" x1="257.51" y1="-.56" x2="257.51" y2="167.37" gradientTransform="matrix(1 0 0 -1 0 511.44)" gradientUnits="userSpaceOnUse"><stop offset="0" stop-color="#99a8ae" stop-opacity="0"></stop><stop offset=".21" stop-color="#b3bfc4" stop-opacity=".21"></stop><stop offset=".55" stop-color="#d6dee3" stop-opacity=".55"></stop><stop offset=".82" stop-color="#ebf1f5" stop-opacity=".82"></stop><stop offset="1" stop-color="#f3f8fc"></stop></linearGradient></defs><path class="cls-5" d="M514.2,0v512H0V0h514.2" vector-effect="none" fill="url(#1777685730296-5161017_linear-gradient)"></path><path class="cls-4" d="M1.51,64.51c26.62-7.17,52.82-10.5,78.59-9.98,25.77.51,51.03,3.33,75.78,8.45,24.75,5.12,49.24,10.92,73.47,17.41,24.23,6.49,48.21,12.37,71.94,17.66,23.72,5.29,47.27,8.36,70.66,9.22,23.38.85,46.85-1.88,70.4-8.19,23.55-6.31,47.27-17.83,71.17-34.56v175.62H1.51V64.51" vector-effect="none" fill="url(#1777685730296-5161017_linear-gradient-2)"></path><path class="cls-3" d="M409.07,192.51c7.85-21.16,21.25-38.49,40.19-51.97,18.94-13.48,40.36-20.22,64.26-20.22v224.26H1.51v-184.32c20.82,0,38.4,7.68,52.74,23.04,7.85-11.26,18.01-20.31,30.46-27.14,12.46-6.83,26.03-10.24,40.7-10.24,18.43,0,34.9,5.29,49.41,15.87,14.51,10.58,24.83,23.89,30.98,39.94,8.19-4.78,16.9-7.17,26.11-7.17,10.92,0,20.74,3.16,29.44,9.47,8.7,6.31,14.76,14.25,18.18,23.81,9.9-8.87,21.33-13.31,34.3-13.31,5.46,0,10.75.85,15.87,2.56,6.14-8.53,14.08-15.45,23.81-20.74s20.39-7.94,32-7.94c8.19,0,16.04,1.37,23.55,4.1" vector-effect="none" fill="url(#1777685730296-5161017_linear-gradient-3)"></path><path class="cls-2" d="M513.51,283.14v204.29H1.51v-204.29c32.43,17.07,61.87,29.01,88.32,35.84,26.45,6.83,50.94,10.15,73.47,9.98,22.53-.17,44.03-2.56,64.51-7.17,20.48-4.61,40.87-10.07,61.18-16.38,20.31-6.32,41.64-12.12,64-17.41,22.36-5.29,46.59-8.7,72.7-10.24,26.11-1.54,55.38.26,87.81,5.38" vector-effect="none" fill="url(#1777685730296-5161017_linear-gradient-4)"></path><path class="cls-1" d="M409.07,415.74c7.85-21.16,21.25-38.4,40.19-51.71,18.94-13.31,40.36-19.97,64.26-19.97v167.94H1.51v-128.51c20.82,0,38.4,7.68,52.74,23.04,7.85-11.26,18.01-20.22,30.46-26.88,12.46-6.66,26.03-9.98,40.7-9.98,18.43,0,34.9,5.21,49.41,15.62,14.51,10.41,24.83,23.64,30.98,39.68,8.19-4.78,16.9-7.17,26.11-7.17,10.92,0,20.74,3.16,29.44,9.47,8.7,6.32,14.76,14.25,18.18,23.81,9.9-8.88,21.33-13.31,34.3-13.31,5.46,0,10.75.85,15.87,2.56,6.14-8.53,14.08-15.45,23.81-20.74,9.73-5.29,20.39-7.94,32-7.94,8.19,0,16.04,1.37,23.55,4.1" vector-effect="none" fill="url(#1777685730296-5161017_linear-gradient-5)"></path></g></svg>