<svg data-name="Layer 1" xmlns="http://www.w3.org/2000/svg" style="" viewBox="0 0 512 512"><g class="nc-icon-wrapper"><defs><radialGradient id="1776133117261-2045464_radial-gradient" cx="446.48" cy="200.62" fx="446.48" fy="200.62" r="44.76" gradientTransform="matrix(.57276 .57276 -.7072 .707 362.33 -362.06)" gradientUnits="userSpaceOnUse"><stop offset="0" stop-color="#4e5e67"></stop><stop offset=".26" stop-color="#4b5962"></stop><stop offset=".59" stop-color="#424955"></stop><stop offset=".95" stop-color="#33303f"></stop><stop offset="1" stop-color="#302c3b"></stop></radialGradient><linearGradient id="1776133117261-2045464_linear-gradient" x1="448.86" y1="527.11" x2="496.89" y2="575.14" gradientTransform="translate(0 -512)" gradientUnits="userSpaceOnUse"><stop offset="0" stop-color="#b88100"></stop><stop offset=".07" stop-color="#c08d0d"></stop><stop offset=".19" stop-color="#d6ab2f"></stop><stop offset=".36" stop-color="#f8dd65"></stop><stop offset=".39" stop-color="#ffe770"></stop><stop offset=".4" stop-color="#fce26b"></stop><stop offset=".45" stop-color="#e7c54a"></stop><stop offset=".51" stop-color="#d6ac2f"></stop><stop offset=".57" stop-color="#c9991a"></stop><stop offset=".64" stop-color="#bf8b0b"></stop><stop offset=".72" stop-color="#ba8303"></stop><stop offset=".85" stop-color="#b88100"></stop><stop offset="1" stop-color="#b88100"></stop></linearGradient><radialGradient id="1776133117261-2045464_radial-gradient-2" cx="215.12" cy="2271.09" fx="215.12" fy="2271.09" r="203.8" gradientTransform="matrix(.70637 -.70785 .14828 .1487 -74.34 -74.24)" gradientUnits="userSpaceOnUse"><stop offset="0" stop-color="#4e5e67"></stop><stop offset="1" stop-color="#302c3b"></stop></radialGradient><linearGradient id="1776133117261-2045464_linear-gradient-2" x1="305.24" y1="660.91" x2="363.09" y2="718.76" gradientTransform="translate(0 -512)" gradientUnits="userSpaceOnUse"><stop offset="0" stop-color="#b88100"></stop><stop offset=".07" stop-color="#c08d0d"></stop><stop offset=".19" stop-color="#d6ab2f"></stop><stop offset=".36" stop-color="#f8dd65"></stop><stop offset=".39" stop-color="#ffe770"></stop><stop offset=".4" stop-color="#fce26b"></stop><stop offset=".45" stop-color="#e7c54a"></stop><stop offset=".51" stop-color="#d6ac2f"></stop><stop offset=".57" stop-color="#c9991a"></stop><stop offset=".64" stop-color="#bf8b0b"></stop><stop offset=".72" stop-color="#ba8303"></stop><stop offset=".85" stop-color="#b88100"></stop><stop offset="1" stop-color="#b88100"></stop></linearGradient><radialGradient id="1776133117261-2045464_radial-gradient-3" cx="42.2" cy="2205.83" fx="42.2" fy="2205.83" r="248.42" gradientTransform="matrix(-.70637 .70785 .14828 .1487 -76.81 -77.38)" gradientUnits="userSpaceOnUse"><stop offset="0" stop-color="#4e5e67"></stop><stop offset=".22" stop-color="#49555f"></stop><stop offset=".59" stop-color="#3a3d4a"></stop><stop offset=".8" stop-color="#302c3b"></stop><stop offset="1" stop-color="#302c3b"></stop></radialGradient><linearGradient id="1776133117261-2045464_linear-gradient-3" x1="96.06" y1="876.08" x2="147.64" y2="928.21" gradientTransform="translate(0 -512)" gradientUnits="userSpaceOnUse"><stop offset="0" stop-color="#b88100"></stop><stop offset=".07" stop-color="#c9991b"></stop><stop offset=".22" stop-color="#e6c349"></stop><stop offset=".33" stop-color="#f8dd65"></stop><stop offset=".39" stop-color="#ffe770"></stop><stop offset=".61" stop-color="#deb83c"></stop><stop offset=".85" stop-color="#b88100"></stop><stop offset="1" stop-color="#b88100"></stop></linearGradient><linearGradient id="1776133117261-2045464_linear-gradient-4" x1="92.42" y1="882.45" x2="142.09" y2="931.03" gradientTransform="translate(0 -512)" gradientUnits="userSpaceOnUse"><stop offset="0" stop-color="#b88100"></stop><stop offset=".07" stop-color="#c9991b"></stop><stop offset=".22" stop-color="#e6c349"></stop><stop offset=".33" stop-color="#f8dd65"></stop><stop offset=".39" stop-color="#ffe770"></stop><stop offset=".5" stop-color="#eac84e"></stop><stop offset=".66" stop-color="#cfa224"></stop><stop offset=".78" stop-color="#be8a0a"></stop><stop offset=".85" stop-color="#b88100"></stop><stop offset="1" stop-color="#b88100"></stop></linearGradient><linearGradient id="1776133117261-2045464_linear-gradient-5" x1="89.04" y1="886.39" x2="137.34" y2="935.24" gradientTransform="translate(0 -512)" gradientUnits="userSpaceOnUse"><stop offset="0" stop-color="#b88100"></stop><stop offset=".07" stop-color="#c08d0d"></stop><stop offset=".19" stop-color="#d6ab2f"></stop><stop offset=".36" stop-color="#f8dd65"></stop><stop offset=".39" stop-color="#ffe770"></stop><stop offset=".4" stop-color="#fce26b"></stop><stop offset=".45" stop-color="#e7c54a"></stop><stop offset=".51" stop-color="#d6ac2f"></stop><stop offset=".57" stop-color="#c9991a"></stop><stop offset=".64" stop-color="#bf8b0b"></stop><stop offset=".72" stop-color="#ba8303"></stop><stop offset=".85" stop-color="#b88100"></stop><stop offset="1" stop-color="#b88100"></stop></linearGradient><radialGradient id="1776133117261-2045464_radial-gradient-4" cx="-210.52" cy="2272.52" fx="-210.52" fy="2272.52" r="61.68" gradientTransform="matrix(.70637 -.70785 .14828 .1487 -74.18 -74.13)" gradientUnits="userSpaceOnUse"><stop offset="0" stop-color="#4e5e67"></stop><stop offset=".22" stop-color="#49555f"></stop><stop offset=".59" stop-color="#3a3d4a"></stop><stop offset=".8" stop-color="#302c3b"></stop><stop offset="1" stop-color="#302c3b"></stop></radialGradient><linearGradient id="1776133117261-2045464_linear-gradient-6" x1="28.25" y1="946.08" x2="77.92" y2="995.75" gradientTransform="translate(0 -512)" gradientUnits="userSpaceOnUse"><stop offset="0" stop-color="#889194"></stop><stop offset=".05" stop-color="#949ca0"></stop><stop offset=".25" stop-color="#c2cace"></stop><stop offset=".4" stop-color="#dee6ea"></stop><stop offset=".49" stop-color="#e9f0f5"></stop><stop offset=".77" stop-color="#b5bec1"></stop><stop offset="1" stop-color="#889194"></stop></linearGradient><linearGradient id="1776133117261-2045464_linear-gradient-7" x1="337.33" y1="639.21" x2="451.12" y2="519.4" gradientTransform="translate(0 -512)" gradientUnits="userSpaceOnUse"><stop offset="0" stop-color="#ffe770"></stop><stop offset=".2" stop-color="#fde46c"></stop><stop offset=".39" stop-color="#f6da61"></stop><stop offset=".57" stop-color="#eac94f"></stop><stop offset=".75" stop-color="#d9b134"></stop><stop offset=".92" stop-color="#c49213"></stop><stop offset="1" stop-color="#b88100"></stop></linearGradient></defs><path class="cls-11" d="M455.21,12.03C463.58,3.66,472.13-.34,480.87.02s16.01,3.46,21.83,9.28,8.92,13.1,9.28,21.83-3.64,17.28-12.01,25.65l-44.76-44.76Z" fill="url(#1776133117261-2045464_radial-gradient)"></path><path class="cls-13" d="M451.39,13.67c3.64-3.64,8.73-4,15.28-1.09s12.92,7.46,19.1,13.65c6.19,6.19,10.73,12.55,13.65,19.1s2.55,11.64-1.09,15.28l-9.28,10.37c-1.82,1.82-5.55.73-11.19-3.27s-11.55-9.19-17.74-15.56c-6.19-6.37-11.28-12.46-15.28-18.28s-5.28-9.46-3.82-10.92l10.37-9.28Z" fill="url(#1776133117261-2045464_linear-gradient)"></path><path class="cls-12" d="M113.53,427.94c-17.83,21.1-31.84,37.84-42.03,50.22-10.19,12.37-15.28,18.56-15.28,18.56l-51.31,11.46-1.09-1.09,11.46-51.31s6.19-5.09,18.56-15.28c12.37-10.19,29.11-24.2,50.22-42.03,1.09-1.09,3.37-.36,6.82,2.18s7.1,5.73,10.92,9.55,6.91,7.46,9.28,10.92,3.18,5.73,2.46,6.82Z" fill="#656c6e"></path><path class="cls-3" d="M443.2,22.4c2.91-2.55,7.37-2.18,13.37,1.09s12.01,7.91,18.01,13.92,10.64,12.01,13.92,18.01,3.64,10.46,1.09,13.37c-6.55,7.28-14.74,16.19-24.56,26.75s-20.2,21.74-31.11,33.57-21.29,23.11-31.11,33.84c-9.82,10.73-18.28,19.83-25.38,27.29-7.1,7.46-11.55,12.1-13.37,13.92-3.27,3.27-7.82,4.09-13.65,2.46s-11.83-5-18.01-10.1-11.74-10.73-16.65-16.92c-4.91-6.19-8.28-12.19-10.1-18.01-1.82-5.82-1.09-10.37,2.18-13.65,1.82-1.82,6.55-6.37,14.19-13.65,7.64-7.28,16.83-16.01,27.56-26.2s22.01-20.74,33.84-31.66c11.83-10.92,23.02-21.2,33.57-30.84,10.55-9.64,19.29-17.38,26.2-23.2Z" fill="url(#1776133117261-2045464_radial-gradient-2)"></path><path class="cls-9" d="M307.84,146.3c3.27-3.27,7.91-4,13.92-2.18s12.19,5.28,18.56,10.37,12.1,10.83,17.19,17.19c5.09,6.37,8.55,12.55,10.37,18.56,1.82,6,.91,10.64-2.73,13.92l-11.46,11.46c-1.82,1.46-5.19.82-10.1-1.91s-10.28-6.82-16.1-12.28-11.37-11.19-16.65-17.19-9.28-11.46-12.01-16.37-3.37-8.1-1.91-9.55l10.92-12.01Z" fill="url(#1776133117261-2045464_linear-gradient-2)"></path><path class="cls-2" d="M150.65,414.84c-1.46,1.82-4.55,1.46-9.28-1.09-4.73-2.55-10.01-6.28-15.83-11.19-5.82-4.91-11.19-10.28-16.1-16.1s-8.64-11.1-11.19-15.83-2.91-8.01-1.09-9.82l199.77-198.68c4-4,9.55-4.28,16.65-.82s14.1,8.82,21.01,16.1,12.1,14.46,15.56,21.56,3.37,12.46-.27,16.1l-199.22,199.77Z" fill="url(#1776133117261-2045464_radial-gradient-3)"></path><path class="cls-8" d="M96.61,363.54c2.18-2.18,6.37-1.18,12.55,3,6.19,4.18,12.74,9.73,19.65,16.65,6.91,6.91,12.46,13.46,16.65,19.65s5,10.37,2.46,12.55c-.73.73-1.55,1.55-2.46,2.46s-1.36,1.36-1.36,1.36c-1.09,1.09-4.55-.64-10.37-5.19-5.82-4.55-12.1-10.19-18.83-16.92-6.73-6.73-12.37-13.01-16.92-18.83-4.55-5.82-6.09-9.46-4.64-10.92l1.09-1.09c.73-.73,1.46-1.64,2.18-2.73Z" fill="url(#1776133117261-2045464_linear-gradient-3)"></path><path class="cls-7" d="M93.33,369c2.18-1.82,6.28-.82,12.28,3,6,3.82,12.28,9.01,18.83,15.56,6.55,6.55,11.74,12.83,15.56,18.83,3.82,6,4.64,10.1,2.46,12.28l-4.37,4.37c-1.09,1.09-4.46-.55-10.1-4.91-5.64-4.37-11.64-9.82-18.01-16.37-6.37-6.55-11.74-12.55-16.1-18.01s-6-8.92-4.91-10.37l4.37-4.37Z" fill="url(#1776133117261-2045464_linear-gradient-4)"></path><path class="cls-5" d="M89.51,374.45c2.18-2.18,6.19-1.36,12.01,2.46,5.82,3.82,11.92,8.92,18.28,15.28,6.37,6.37,11.46,12.46,15.28,18.28,3.82,5.82,4.64,9.82,2.46,12.01l-3.27,3.27c-1.46,1.09-4.91-.45-10.37-4.64s-11.28-9.46-17.47-15.83-11.37-12.28-15.56-17.74-5.73-8.73-4.64-9.82l3.27-3.27Z" fill="url(#1776133117261-2045464_linear-gradient-5)"></path><path class="cls-1" d="M87.88,379.91s2.27.64,6.82,1.91,11.19,6.09,19.92,14.46c8.37,8.73,13.37,15.56,15.01,20.47l2.46,7.37s-1.18,1.18-3.55,3.55c-2.37,2.37-3.73,3.73-4.09,4.09-1.46,1.09-5-.45-10.64-4.64-5.64-4.18-10.83-8.64-15.56-13.37-4.37-4.73-8.73-9.92-13.1-15.56s-5.82-9.19-4.37-10.64c.36,0,1.64-1.27,3.82-3.82s3.27-3.82,3.27-3.82Z" fill="url(#1776133117261-2045464_radial-gradient-4)"></path><path class="cls-6" d="M120.63,428.49c-18.56,21.83-36.57,44.03-54.04,66.59-4.37,5.46-9.82,8.55-16.37,9.28l-48.58,7.64,49.67-49.67c3.64,3.27,7.28,3.09,10.92-.55,4-4,4-8.01,0-12.01-1.46-1.82-3.46-2.73-6-2.73-2.18,0-4.18.91-6,2.73-3.64,3.64-3.82,7.28-.55,10.92L0,510.36l7.64-48.58c.73-6.55,3.82-12.01,9.28-16.37,22.56-17.83,44.76-35.84,66.59-54.04,1.09-1.09,3.82,0,8.19,3.27s8.92,7.28,13.65,12.01,8.64,9.19,11.74,13.37,4.28,7,3.55,8.46Z" fill="url(#1776133117261-2045464_linear-gradient-6)"></path><path class="cls-10" d="M463.95,21.86c0,.73-.36,1.73-1.09,3s-1.64,1.55-2.73.82c-4.37-3.27-7.82-4.37-10.37-3.27-3.64,1.46-9.1,5.09-16.37,10.92s-15.19,12.55-23.74,20.2-16.83,15.19-24.83,22.65c-8.01,7.46-14.56,13.65-19.65,18.56s-7.64,7.37-7.64,7.37c1.82,1.82,1.73,4.09-.27,6.82s-4.64,5.37-7.91,7.91-5.64,4.18-7.1,4.91c-2.91,1.09-6.19,1.09-9.82,0s-6-3.27-7.1-6.55c8.01-8.73,17.56-18.28,28.66-28.66,11.1-10.37,22.65-20.65,34.66-30.84s23.11-19.38,33.29-27.56c10.19-8.19,18.38-14.28,24.56-18.28,1.46-.73,4.46.55,9.01,3.82s7.37,6,8.46,8.19Z" fill="#b88100"></path><path class="cls-4" d="M463.95,21.86l-3.27-3.27c-2.18-2.18-4-3.27-5.46-3.27-2.18-.36-7.82,3-16.92,10.1-9.1,7.1-19.65,16.01-31.66,26.75-12.01,10.73-23.74,21.65-35.21,32.75-11.46,11.1-21.01,20.83-28.66,29.2-3.64,3.64-7.46,5-11.46,4.09s-5.82-2.27-5.46-4.09c0-2.18,3.82-7.1,11.46-14.74s17.1-16.47,28.38-26.47c11.28-10.01,22.65-19.74,34.11-29.2,11.46-9.46,21.2-17.47,29.2-24.02s12.55-10.19,13.65-10.92c2.55-1.46,6.46-.45,11.74,3s8.46,6.82,9.55,10.1Z" fill="url(#1776133117261-2045464_linear-gradient-7)"></path></g></svg>