<svg data-name="Layer 1" xmlns="http://www.w3.org/2000/svg" style="" viewBox="0 0 461.19 512"><g class="nc-icon-wrapper"><defs><linearGradient id="1776585740498-7137926_linear-gradient" x1="271.68" y1="773.6" x2="440.28" y2="594.61" gradientTransform="translate(0 -512)" gradientUnits="userSpaceOnUse"><stop offset="0" stop-color="#56a800"></stop><stop offset=".35" stop-color="#70c200"></stop><stop offset=".75" stop-color="#88da00"></stop><stop offset="1" stop-color="#91e300"></stop></linearGradient><linearGradient id="1776585740498-7137926_linear-gradient-2" x1="193.84" y1="700.12" x2="359.95" y2="524.18" gradientTransform="translate(0 -512)" gradientUnits="userSpaceOnUse"><stop offset="0" stop-color="#4b9400"></stop><stop offset=".43" stop-color="#6eba00"></stop><stop offset=".78" stop-color="#84d200"></stop><stop offset="1" stop-color="#8cdb00"></stop></linearGradient><linearGradient id="1776585740498-7137926_linear-gradient-3" x1="257.13" y1="695.17" x2="84.91" y2="530.58" gradientTransform="translate(0 -512)" gradientUnits="userSpaceOnUse"><stop offset="0" stop-color="#56a800"></stop><stop offset=".35" stop-color="#70c200"></stop><stop offset=".75" stop-color="#88da00"></stop><stop offset="1" stop-color="#91e300"></stop></linearGradient><linearGradient id="1776585740498-7137926_linear-gradient-4" x1="187.29" y1="768.26" x2="16.18" y2="604.77" gradientTransform="translate(0 -512)" gradientUnits="userSpaceOnUse"><stop offset="0" stop-color="#4b9400"></stop><stop offset=".43" stop-color="#6eba00"></stop><stop offset=".78" stop-color="#84d200"></stop><stop offset="1" stop-color="#8cdb00"></stop></linearGradient><linearGradient id="1776585740498-7137926_linear-gradient-5" x1="188.56" y1="692.68" x2="19.41" y2="861.84" gradientTransform="translate(0 -512)" gradientUnits="userSpaceOnUse"><stop offset="0" stop-color="#56a800"></stop><stop offset=".35" stop-color="#70c200"></stop><stop offset=".75" stop-color="#88da00"></stop><stop offset="1" stop-color="#91e300"></stop></linearGradient><linearGradient id="1776585740498-7137926_linear-gradient-6" x1="260.85" y1="765.5" x2="94.35" y2="931.44" gradientTransform="translate(0 -512)" gradientUnits="userSpaceOnUse"><stop offset="0" stop-color="#4b9400"></stop><stop offset=".43" stop-color="#6eba00"></stop><stop offset=".78" stop-color="#84d200"></stop><stop offset="1" stop-color="#8cdb00"></stop></linearGradient><linearGradient id="1776585740498-7137926_linear-gradient-7" x1="193.78" y1="763.64" x2="369.44" y2="925.07" gradientTransform="translate(0 -512)" gradientUnits="userSpaceOnUse"><stop offset="0" stop-color="#56a800"></stop><stop offset=".35" stop-color="#70c200"></stop><stop offset=".75" stop-color="#88da00"></stop><stop offset="1" stop-color="#91e300"></stop></linearGradient><linearGradient id="1776585740498-7137926_linear-gradient-8" x1="262.49" y1="688.97" x2="436.92" y2="849.73" gradientTransform="translate(0 -512)" gradientUnits="userSpaceOnUse"><stop offset="0" stop-color="#4b9400"></stop><stop offset=".43" stop-color="#6eba00"></stop><stop offset=".78" stop-color="#84d200"></stop><stop offset="1" stop-color="#8cdb00"></stop></linearGradient></defs><path class="cls-1" d="M316.81,485.8c4,4,5.55,8.01,4.64,12.01s-3.28,7.37-7.1,10.1c-3.82,2.73-8.28,4.09-13.37,4.09s-9.64-2-13.65-6c-19.29-19.29-34.12-40.39-44.49-63.32-10.37-22.93-17.56-46.31-21.56-70.15-4-23.84-6.1-46.49-6.28-67.96-.18-21.47.45-40.3,1.91-56.5s2.37-28.29,2.73-36.3c.36-2.91,1.82-4.73,4.37-5.46s4.37,1.46,5.46,6.55c2.18,10.19,3.28,22.93,3.28,38.21s.64,32.3,1.91,51.04c1.27,18.74,4.37,38.48,9.28,59.23,4.91,20.74,13.1,41.67,24.56,62.78,11.46,21.11,27.57,41.67,48.31,61.68Z" fill="#4b9400"></path><path class="cls-9" d="M225.11,215.59s3.55-3.73,10.64-11.19,16.47-17.2,28.11-29.2c11.65-12.01,24.11-24.66,37.39-37.94,13.28-13.28,26.29-25.84,39.03-37.67s23.84-21.47,33.3-28.93,16.01-11.37,19.65-11.74c13.1,0,25.11,4,36.03,12.01,10.92,8.01,19.29,18.2,25.11,30.57s7.92,25.38,6.28,39.03-8.46,26.11-20.47,37.39c-12.74,12.01-26.48,20.65-41.21,25.93-14.74,5.28-29.93,8.46-45.58,9.55s-31.21,1.27-46.67.55-30.11-1.27-43.94-1.64-26.38.73-37.67,3.28Z" fill="url(#1776585740498-7137926_linear-gradient)"></path><path class="cls-8" d="M225.11,215.59c3.64-8.01,5.73-18.01,6.28-30.02.55-12.01.55-25.2,0-39.58-.55-14.37-.64-28.84-.27-43.4.36-14.56,2.27-28.39,5.73-41.49,3.46-13.1,9.55-24.38,18.29-33.84,12.74-13.83,26.66-22.29,41.76-25.38s29.66-2.37,43.67,2.18c14.01,4.55,25.93,11.74,35.75,21.56,9.83,9.83,15.47,20.93,16.92,33.3-6.19,14.56-15.83,29.3-28.93,44.22-13.1,14.92-27.57,29.11-43.4,42.58-15.83,13.46-31.02,25.38-45.58,35.75-14.56,10.37-26.57,18.65-36.03,24.84-9.46,6.19-14.19,9.28-14.19,9.28Z" fill="url(#1776585740498-7137926_linear-gradient-2)"></path><path class="cls-7" d="M225.11,216.68s-4-3.09-12.01-9.28-18.38-14.37-31.11-24.56-26.2-21.11-40.39-32.75c-14.19-11.65-27.66-23.02-40.39-34.12-12.74-11.1-23.2-20.93-31.39-29.48-8.19-8.55-12.28-14.47-12.28-17.74-.73-11.65,2.82-22.38,10.64-32.21s17.92-17.47,30.3-22.93c12.37-5.46,25.57-7.55,39.58-6.28,14.01,1.27,27.2,7.01,39.58,17.2,12.74,11.28,22.11,23.47,28.11,36.57,6,13.1,9.92,26.66,11.74,40.67,1.82,14.01,2.64,27.93,2.46,41.76-.18,13.83-.18,27.02,0,39.58.18,12.56,1.91,23.75,5.19,33.57Z" fill="url(#1776585740498-7137926_linear-gradient-3)"></path><path class="cls-6" d="M225.11,216.68c-8.37-2.91-18.74-4.46-31.11-4.64-12.37-.18-25.84.09-40.39.82s-29.39,1-44.49.82c-15.1-.18-29.39-1.64-42.85-4.37s-25.29-8.1-35.48-16.1c-14.56-10.92-23.84-23.11-27.84-36.57-4-13.46-3.91-26.57.27-39.3s11.1-23.56,20.74-32.48c9.64-8.92,20.83-14.28,33.57-16.1,14.92,5.46,30.3,13.92,46.13,25.38,15.83,11.46,31.02,24.2,45.58,38.21,14.56,14.01,27.48,27.48,38.76,40.39,11.28,12.92,20.29,23.47,27.02,31.66s10.1,12.28,10.1,12.28Z" fill="url(#1776585740498-7137926_linear-gradient-4)"></path><path class="cls-4" d="M225.11,216.68l-9.83,11.46c-6.55,7.64-15.19,17.56-25.93,29.75-10.74,12.19-22.29,25.02-34.66,38.48-12.37,13.46-24.47,26.29-36.3,38.48-11.83,12.19-22.11,22.11-30.84,29.75-8.73,7.64-14.92,11.65-18.56,12.01-12.01.36-22.93-3.37-32.75-11.19s-17.47-17.83-22.93-30.02-7.37-25.11-5.73-38.76c1.64-13.65,7.92-26.29,18.83-37.94,11.65-12.01,24.38-20.83,38.21-26.48,13.83-5.64,27.93-9.19,42.31-10.64,14.37-1.46,28.66-1.91,42.85-1.36s27.75.82,40.67.82,24.47-1.46,34.66-4.37Z" fill="url(#1776585740498-7137926_linear-gradient-5)"></path><path class="cls-5" d="M225.11,216.68c-3.64,8.01-5.64,18.01-6,30.02s-.36,25.2,0,39.58.36,28.84,0,43.4-2.18,28.39-5.46,41.49-8.92,24.56-16.92,34.39c-11.65,13.83-24.47,22.47-38.48,25.93-14.01,3.46-27.48,3.09-40.39-1.09-12.92-4.19-23.84-11.1-32.75-20.74-8.92-9.64-14.28-20.65-16.1-33.03,5.82-14.56,14.92-29.39,27.29-44.49,12.37-15.1,25.84-29.57,40.39-43.4s28.57-26.11,42.03-36.85,24.56-19.29,33.3-25.66c8.73-6.37,13.1-9.55,13.1-9.55Z" fill="url(#1776585740498-7137926_linear-gradient-6)"></path><path class="cls-3" d="M225.11,216.68s4.09,3.09,12.28,9.28,18.65,14.19,31.39,24.02c12.74,9.83,26.29,20.47,40.67,31.93,14.37,11.46,28.02,22.65,40.94,33.57,12.92,10.92,23.56,20.56,31.93,28.93s12.74,14.19,13.1,17.47c.73,11.65-2.64,22.47-10.1,32.48-7.46,10.01-17.38,17.83-29.75,23.47-12.37,5.64-25.57,8.01-39.58,7.1-14.01-.91-27.2-6.46-39.58-16.65-13.1-10.92-22.74-22.93-28.93-36.03s-10.37-26.66-12.56-40.67-3.28-27.93-3.28-41.76-.27-27.02-.82-39.58c-.55-12.56-2.46-23.75-5.73-33.57Z" fill="url(#1776585740498-7137926_linear-gradient-7)"></path><path class="cls-2" d="M225.11,216.68c8.37,3.28,18.74,4.82,31.11,4.64s25.84-.73,40.39-1.64c14.56-.91,29.39-1.46,44.49-1.64,15.1-.18,29.48,1,43.12,3.55s25.57,7.64,35.75,15.28c14.56,10.55,23.93,22.56,28.11,36.03s4.37,26.57.55,39.3c-3.82,12.74-10.46,23.65-19.92,32.75-9.46,9.1-20.56,14.74-33.3,16.92-15.28-5.09-30.93-13.28-46.95-24.56-16.01-11.28-31.39-23.75-46.13-37.39s-27.93-26.84-39.58-39.58c-11.65-12.74-20.83-23.2-27.57-31.39-6.73-8.19-10.1-12.28-10.1-12.28Z" fill="url(#1776585740498-7137926_linear-gradient-8)"></path></g></svg>