<svg data-name="Layer 1" xmlns="http://www.w3.org/2000/svg" style="" viewBox="0 0 443.73 512"><g class="nc-icon-wrapper"><defs><radialGradient id="1776867897993-9152060_radial-gradient" cx="292.87" cy="345.24" fx="292.87" fy="345.24" r="100.65" gradientTransform="matrix(.98 0 0 -2.29 5.79 1024.01)" gradientUnits="userSpaceOnUse"><stop offset="0" stop-color="#ffd86b"></stop><stop offset=".6" stop-color="#f5a240"></stop><stop offset=".68" stop-color="#e58e37"></stop><stop offset=".84" stop-color="#be591e"></stop><stop offset=".95" stop-color="#a1340d"></stop></radialGradient><radialGradient id="1776867897993-9152060_radial-gradient-2" cx="577.29" cy="-516.69" fx="577.29" fy="-516.69" r="100.6" gradientTransform="matrix(-.98 0 0 2.29 730.21 1375.18)" gradientUnits="userSpaceOnUse"><stop offset=".44" stop-color="#ffd86b"></stop><stop offset=".75" stop-color="#f5a240"></stop><stop offset=".8" stop-color="#e58e37"></stop><stop offset=".89" stop-color="#be591e"></stop><stop offset=".95" stop-color="#a1340d"></stop></radialGradient><radialGradient id="1776867897993-9152060_radial-gradient-3" cx="295.46" cy="344.84" fx="295.46" fy="344.84" r="99.07" gradientTransform="matrix(.92479 .09834 .1774 -2.76675 -16.93 1137.7)" gradientUnits="userSpaceOnUse"><stop offset=".44" stop-color="#ffd86b"></stop><stop offset=".75" stop-color="#f5a240"></stop><stop offset=".8" stop-color="#e58e37"></stop><stop offset=".89" stop-color="#be591e"></stop><stop offset=".95" stop-color="#a1340d"></stop></radialGradient><radialGradient id="1776867897993-9152060_radial-gradient-4" cx="78.05" cy="405.12" fx="78.05" fy="405.12" r="67.8" gradientTransform="matrix(1.02796 -.06485 -.10505 -2.76888 18.91 1298.19)" gradientUnits="userSpaceOnUse"><stop offset="0" stop-color="#ffd86b"></stop><stop offset=".75" stop-color="#f5a240"></stop><stop offset=".8" stop-color="#e58e37"></stop><stop offset=".89" stop-color="#be591e"></stop><stop offset=".95" stop-color="#a1340d"></stop></radialGradient><radialGradient id="1776867897993-9152060_radial-gradient-5" cx="647.09" cy="-624.45" fx="647.09" fy="-624.45" r="111.31" gradientTransform="matrix(-.70973 .12119 .26703 2.2674 694.96 1563.61)" gradientUnits="userSpaceOnUse"><stop offset=".44" stop-color="#ffd86b"></stop><stop offset=".75" stop-color="#f5a240"></stop><stop offset=".8" stop-color="#e58e37"></stop><stop offset=".89" stop-color="#be591e"></stop><stop offset=".95" stop-color="#a1340d"></stop></radialGradient><radialGradient id="1776867897993-9152060_radial-gradient-6" cx="562.06" cy="375" fx="562.06" fy="375" r="99.26" gradientTransform="matrix(-.93 0 0 -2.78 780.79 1243.39)" gradientUnits="userSpaceOnUse"><stop offset="0" stop-color="#ffd86b"></stop><stop offset=".75" stop-color="#f5a240"></stop><stop offset=".8" stop-color="#e58e37"></stop><stop offset=".89" stop-color="#be591e"></stop><stop offset=".95" stop-color="#a1340d"></stop></radialGradient><radialGradient id="1776867897993-9152060_radial-gradient-7" cx="354.63" cy="435.13" fx="354.63" fy="435.13" r="90.26" gradientTransform="matrix(1.00515 .09891 .16902 -2.43515 -61.82 1217.99)" gradientUnits="userSpaceOnUse"><stop offset=".44" stop-color="#ffd86b"></stop><stop offset=".75" stop-color="#f5a240"></stop><stop offset=".8" stop-color="#e58e37"></stop><stop offset=".89" stop-color="#be591e"></stop><stop offset=".95" stop-color="#a1340d"></stop></radialGradient><radialGradient id="1776867897993-9152060_radial-gradient-8" cx="549.46" cy="-569.51" fx="549.46" fy="-569.51" r="69.88" gradientTransform="matrix(-1.43781 .07938 .0949 3.01936 943.44 1862.69)" gradientUnits="userSpaceOnUse"><stop offset=".44" stop-color="#ffd86b"></stop><stop offset=".75" stop-color="#f5a240"></stop><stop offset=".8" stop-color="#e58e37"></stop><stop offset=".89" stop-color="#be591e"></stop><stop offset=".95" stop-color="#a1340d"></stop></radialGradient><radialGradient id="1776867897993-9152060_radial-gradient-9" cx="234.12" cy="416.45" fx="234.12" fy="416.45" r="71.61" gradientTransform="matrix(1.12 0 0 -3.33 -48.98 1559.24)" gradientUnits="userSpaceOnUse"><stop offset=".44" stop-color="#ffd86b"></stop><stop offset=".75" stop-color="#f5a240"></stop><stop offset=".8" stop-color="#e58e37"></stop><stop offset=".89" stop-color="#be591e"></stop><stop offset=".95" stop-color="#a1340d"></stop></radialGradient><radialGradient id="1776867897993-9152060_radial-gradient-10" cx="523.23" cy="-494.71" fx="523.23" fy="-494.71" r="71.61" gradientTransform="matrix(-.93 0 0 3.45 599.84 1969.04)" gradientUnits="userSpaceOnUse"><stop offset=".04" stop-color="#ffd86b"></stop><stop offset=".68" stop-color="#f5a240"></stop><stop offset=".76" stop-color="#e58e37"></stop><stop offset=".9" stop-color="#be591e"></stop><stop offset="1" stop-color="#a1340d"></stop></radialGradient><radialGradient id="1776867897993-9152060_radial-gradient-11" cx="380.8" cy="-452.61" fx="380.8" fy="-452.61" r="71.61" gradientTransform="matrix(.9151 .1658 -.44288 3.41577 -139.54 1734.47)" gradientUnits="userSpaceOnUse"><stop offset=".44" stop-color="#ffd86b"></stop><stop offset=".75" stop-color="#f5a240"></stop><stop offset=".8" stop-color="#e58e37"></stop><stop offset=".89" stop-color="#be591e"></stop><stop offset=".95" stop-color="#a1340d"></stop></radialGradient><radialGradient id="1776867897993-9152060_radial-gradient-12" cx="452.17" cy="459.26" fx="452.17" fy="459.26" r="100.64" gradientTransform="matrix(-.9791 .04206 -.07823 -1.96846 689.49 1049.72)" gradientUnits="userSpaceOnUse"><stop offset="0" stop-color="#ffd86b"></stop><stop offset=".6" stop-color="#f5a240"></stop><stop offset=".68" stop-color="#e58e37"></stop><stop offset=".84" stop-color="#be591e"></stop><stop offset=".95" stop-color="#a1340d"></stop></radialGradient><radialGradient id="1776867897993-9152060_radial-gradient-13" cx="507.27" cy="-482.63" fx="507.27" fy="-482.63" r="76.2" gradientTransform="matrix(-.92217 -.12042 -.27366 2.26362 611.71 1362.75)" gradientUnits="userSpaceOnUse"><stop offset=".24" stop-color="#ffd86b"></stop><stop offset=".36" stop-color="#fed468"></stop><stop offset=".49" stop-color="#fcc75e"></stop><stop offset=".63" stop-color="#f8b34d"></stop><stop offset=".71" stop-color="#f5a240"></stop><stop offset=".78" stop-color="#e58e37"></stop><stop offset=".91" stop-color="#be591e"></stop><stop offset="1" stop-color="#a1340d"></stop></radialGradient><radialGradient id="1776867897993-9152060_radial-gradient-14" cx="659.96" cy="-509.41" fx="659.96" fy="-509.41" r="91.03" gradientTransform="matrix(-.92217 -.12042 -.27366 2.26362 610.91 1369.38)" gradientUnits="userSpaceOnUse"><stop offset=".44" stop-color="#ffd86b"></stop><stop offset=".75" stop-color="#f5a240"></stop><stop offset=".8" stop-color="#e58e37"></stop><stop offset=".89" stop-color="#be591e"></stop><stop offset=".95" stop-color="#a1340d"></stop></radialGradient><radialGradient id="1776867897993-9152060_radial-gradient-15" cx="413.73" cy="-593.33" fx="413.73" fy="-593.33" r="112.85" gradientTransform="matrix(.92217 -.12042 .27366 2.26362 109.24 1471.59)" gradientUnits="userSpaceOnUse"><stop offset=".44" stop-color="#ffd86b"></stop><stop offset=".75" stop-color="#f5a240"></stop><stop offset=".8" stop-color="#e58e37"></stop><stop offset=".89" stop-color="#be591e"></stop><stop offset=".95" stop-color="#a1340d"></stop></radialGradient><radialGradient id="1776867897993-9152060_radial-gradient-16" cx="161.57" cy="453.18" fx="161.57" fy="453.18" r="79.5" gradientTransform="matrix(1.00952 -.03102 -.12255 -2.43739 24.27 1328.57)" gradientUnits="userSpaceOnUse"><stop offset=".44" stop-color="#ffd86b"></stop><stop offset=".75" stop-color="#f5a240"></stop><stop offset=".8" stop-color="#e58e37"></stop><stop offset=".89" stop-color="#be591e"></stop><stop offset=".95" stop-color="#a1340d"></stop></radialGradient><linearGradient id="1776867897993-9152060_linear-gradient" x1="221.87" y1="2" x2="221.87" y2="318.98" gradientTransform="matrix(1 0 0 -1 0 514)" gradientUnits="userSpaceOnUse"><stop offset="0" stop-color="#cf0000"></stop><stop offset=".16" stop-color="#df0005"></stop><stop offset=".42" stop-color="#f1000a"></stop><stop offset=".69" stop-color="#fc000d"></stop><stop offset="1" stop-color="#ff000e"></stop></linearGradient><linearGradient id="1776867897993-9152060_linear-gradient-2" x1="42.99" y1="2" x2="42.99" y2="342.87" gradientTransform="matrix(1 0 0 -1 0 514)" gradientUnits="userSpaceOnUse"><stop offset="0" stop-color="#cf0000"></stop><stop offset=".35" stop-color="#d20001"></stop><stop offset=".6" stop-color="#db0003"></stop><stop offset=".81" stop-color="#ea0008"></stop><stop offset="1" stop-color="#ff000e"></stop></linearGradient><linearGradient id="1776867897993-9152060_linear-gradient-3" x1="-208.95" y1="2" x2="-208.95" y2="342.87" gradientTransform="rotate(-180 95.9 257)" gradientUnits="userSpaceOnUse"><stop offset="0" stop-color="#cf0000"></stop><stop offset=".35" stop-color="#d20001"></stop><stop offset=".6" stop-color="#db0003"></stop><stop offset=".81" stop-color="#ea0008"></stop><stop offset="1" stop-color="#ff000e"></stop></linearGradient></defs><path class="cls-21" d="M403.3 138.41L40.43 138.41 0 171.13 40.56 350.53 403.19 350.53 443.73 171.13 403.3 138.41z" fill="#b00505"></path><path class="cls-1" d="M318.14,55.19c-8.05-9.04-21.12-19.56-38.16-11.98-26.1,177.48-8.81,348.85-8.63,351.35,1.79,25.8,40.17,38.11,46.05,34.52-18.19-213.78,2.41-271.79.74-373.88Z" fill="url(#1776867897993-9152060_radial-gradient)" fill-rule="evenodd"></path><path class="cls-17" d="M138.14,374.53c8.08,9.02,21.19,19.52,38.31,11.96,26.15-177.48,8.82-348.86,8.64-351.36-1.8-25.8-40.29-38.08-46.19-34.53,18.26,213.79-2.41,271.81-.76,373.93Z" fill-rule="evenodd" fill="url(#1776867897993-9152060_radial-gradient-2)"></path><path class="cls-16" d="M358.81,28.1c-7.04-9.79-25.28-22.5-41.9-16.67-21.79,174.26,5.01,175.39-32.67,422.18-3.76,25.31,39.36,2.84,45.29-.2,33.86-209.23,30.54-313.48,29.29-405.32Z" fill-rule="evenodd" fill="url(#1776867897993-9152060_radial-gradient-3)"></path><path class="cls-9" d="M358.81,28.1c-7.69-2.22-17.48,10.61-17.49,13.01-.06,149.6,4.6,195.7-11.8,392.3,30.86-170.53,31.5-312.73,29.29-405.31Z" style="isolation:isolate" fill-rule="evenodd" fill="#820000" opacity=".1"></path><path class="cls-13" d="M73.41,39.7c-6.01-5.8-20.63-12.23-32.62-6.3-3.42,120.75,16.73,118.3,6.78,290.21-1.02,17.69,29.81-2.85,33.93-5.56,9.89-145.92-.35-216.22-8.09-278.35Z" fill-rule="evenodd" fill="url(#1776867897993-9152060_radial-gradient-4)"></path><path class="cls-9" d="M73.41,39.7c-5.92-.59-12.32,9.26-12.15,10.89,11.06,101.49,17.96,132.16,20.23,267.45,10.5-119.31.43-215.83-8.08-278.34Z" style="isolation:isolate" fill-rule="evenodd" fill="#820000" opacity=".1"></path><path class="cls-11" d="M48,455.53c7.5,7.18,24.95,14.23,37.98,4.92-10-163.12-32.76-157.63-41.16-390.3-.89-23.96-33.71,7.08-38.12,11.2,5.52,197.67,25.27,291.32,41.29,374.17Z" fill-rule="evenodd" fill="url(#1776867897993-9152060_radial-gradient-5)"></path><path class="cls-9" d="M48,455.53c6.83.14,13-13.84,12.6-16.03C36.31,303.99,24.88,263.38,6.72,81.34c1.73,161.94,24.36,290.92,41.28,374.18Z" style="isolation:isolate" fill-rule="evenodd" fill="#820000" opacity=".1"></path><path class="cls-12" d="M232.9,14.73c7.65-9.01,26.64-19.74,42.82-12.16,10.58,175.99-16.19,174.26,5.56,424.22,2.25,25.74-51.62-10.72-57.2-14.28-20.39-212.1,1.68-306.39,8.81-397.79Z" fill-rule="evenodd" fill="url(#1776867897993-9152060_radial-gradient-6)"></path><path class="cls-10" d="M400.75,79.96c-7.82-8.23-9.55-103.56-36.46-74.45-9.59,203.55-36.68,306.8-25.41,372.53,3.66,21.25,27.41-42.87,33.66-45.23,6.77-93.2,25.57-184.76,28.21-252.84Z" fill-rule="evenodd" fill="url(#1776867897993-9152060_radial-gradient-7)"></path><path class="cls-14" d="M74.65,296.27c9.46,6.55,21.49,96.78,47.85,64.98-11.07-194.67,7.64-296.88-11.68-357.54-6.26-19.61-25.45,44.96-32.07,48.14,2.45,89.53-8.43,179.35-4.1,244.42Z" fill-rule="evenodd" fill="url(#1776867897993-9152060_radial-gradient-8)"></path><path class="cls-15" d="M232.29,21.06c-9.22-8.71-45.18-8.51-45.7,1.43-4.62,87.53-17.47,214.8-12.76,329.13,1.02,24.99,44.37,32.05,51.13,28.6-4.8-158.18,7.32-284.25,7.33-359.16Z" fill-rule="evenodd" fill="url(#1776867897993-9152060_radial-gradient-9)"></path><path class="cls-20" d="M186.58,22.48c-4.62,87.53-17.47,214.8-12.76,329.13,9.44-90.63,24.72-246.83,25.3-320.75.03-4.04-12.01-10.68-12.54-8.38Z" style="isolation:isolate" fill="#820000" opacity=".1"></path><path class="cls-3" d="M99.41,418.33c7.63,9.03,37.32,8.81,37.76-1.48,3.8-90.67,14.41-222.51,10.52-340.92-.83-25.86-36.65-33.21-42.23-29.64,3.97,163.86-6.04,294.45-6.05,372.03Z" fill-rule="evenodd" fill="url(#1776867897993-9152060_radial-gradient-10)"></path><path class="cls-20" d="M137.17,416.86c3.8-90.67,14.41-222.51,10.52-340.92-7.8,93.88-18.4,248.09-27.06,332.94,7.81,1.36,16.09,10.36,16.54,7.98Z" style="isolation:isolate" fill="#820000" opacity=".1"></path><path class="cls-2" d="M402.04,442.36c-8.68,7.55-38,2.01-37.09-8.23,7.84-90.35,14.25-222.63,33.26-339.05,4.14-25.42,40.46-26.27,45.52-21.75-24.92,161.34-31.73,292.31-41.68,369.04Z" fill-rule="evenodd" fill="url(#1776867897993-9152060_radial-gradient-11)"></path><path class="cls-5" d="M215.05,134.45c7.73-8.12,20.43-17.77,37.71-11.98,32.2,152.01,20.81,300.62,20.74,302.79-.9,22.35-38.83,34.6-44.83,31.77,10.82-185.23-11.75-234.42-13.62-322.58Z" fill-rule="evenodd" fill="url(#1776867897993-9152060_radial-gradient-12)"></path><path class="cls-7" d="M259.67,454.42c5.87,9,15.87,19.89,31.22,15,41.5-156.41,45.4-312.17,45.51-314.42,1.26-23.36-30.09-38.65-35.48-36.1-7.72,193.91-31.56,243.69-41.25,335.52Z" fill-rule="evenodd" fill="url(#1776867897993-9152060_radial-gradient-13)"></path><path class="cls-8" d="M110.22,306.13c7.91-68.3,9.11-115.72,9.18-116.94,1.26-23.36-30.09-38.64-35.48-36.1-2.58,64.82-6.96,113.48-12.02,153.05h38.32Z" fill-rule="evenodd" fill="url(#1776867897993-9152060_radial-gradient-14)"></path><path class="cls-4" d="M369.62,299.33c-10.38-89.68-.34-183.87-.44-185.5-1.66-30.66,27.9,9.84,34.99,13.17,3.38,85.1-1.95,114.33,4.7,166.28l-39.25,6.05Z" fill-rule="evenodd" fill="url(#1776867897993-9152060_radial-gradient-15)"></path><path class="cls-6" d="M195.14,172.53c-7.7-6.3-19.23-89.43-39.69-60.94,12.98,178.98.15,272.3,16.89,328.45,5.43,18.15,19.44-40.58,24.67-43.35-3.86-82.22,2.98-164.37-1.87-224.17Z" fill-rule="evenodd" fill="url(#1776867897993-9152060_radial-gradient-16)"></path><path class="cls-22" d="M388.7,195.02c-44.49,147.17-289.16,147.17-333.65,0,0,0-2.12,183.87,30.93,316.98,0,0,135.89-17.48,271.79,0,33.05-133.11,30.92-316.98,30.92-316.98Z" fill="url(#1776867897993-9152060_linear-gradient)"></path><path class="cls-19" d="M55.05,195.02L0,171.13l40.56,285.91,45.42,54.96s-15.23-175.3-30.93-316.98Z" fill="url(#1776867897993-9152060_linear-gradient-2)"></path><path class="cls-18" d="M388.7,195.02l55.03-23.89-40.54,285.91-45.41,54.96s15.22-175.3,30.92-316.98Z" fill="url(#1776867897993-9152060_linear-gradient-3)"></path><path id="1776867897993-9152060_Shape" class="cls-23" d="M221.86,360c24.7,0,44.8,20.1,44.8,44.8s-20.1,44.8-44.8,44.8-44.8-20.1-44.8-44.8,20.1-44.8,44.8-44.8ZM221.86,345.06c-32.98,0-59.73,26.75-59.73,59.73s26.75,59.73,59.73,59.73,59.73-26.73,59.73-59.73-26.75-59.73-59.73-59.73Z" fill="#faa19b"></path><path id="1776867897993-9152060_Combined-Shape" class="cls-23" d="M233.81,410.78c-2.01,0-3-.98-3-2.99v-5.98c0-2,.98-2.99,3-2.99h19.4c2.01,0,3,.98,3,2.99v2.99c0,18.99-15.39,34.35-34.35,34.35-9.23,0-17.89-3.67-24.29-10.05-1.42-1.43-1.42-2.82-.02-4.23l6.35-6.33c1.42-1.42,2.8-1.42,4.22,0,3.64,3.62,8.52,5.68,13.73,5.68,8.64,0,15.95-5.63,18.48-13.43h-6.53Z" fill="#faa19b"></path></g></svg>