<svg data-name="Layer 1" xmlns="http://www.w3.org/2000/svg" style="" viewBox="0 0 351.98 512"><g class="nc-icon-wrapper"><defs><radialGradient id="1776867898001-234797_radial-gradient" cx="248.82" cy="352.47" fx="248.82" fy="352.47" r="23.78" gradientTransform="matrix(9.40746 -.21841 -.38861 -11.71414 -2005.7 4405.11)" gradientUnits="userSpaceOnUse"><stop offset=".45" stop-color="#ffc940"></stop><stop offset=".73" stop-color="#ffc73e"></stop><stop offset=".87" stop-color="#ffbf39"></stop><stop offset=".98" stop-color="#ffb22f"></stop><stop offset="1" stop-color="#ffae2c"></stop></radialGradient></defs><path class="cls-1" d="M338.4,268.79c-7.68-31.6-42.64-35.84-57.36-27.2-1.92-33.04-56.72-40.08-67.92-22.8V39.6c0-45.6-73.52-43.76-73.52,0v172.71c-28.64-9.84-61.28,4.88-63.44,28.48-.88,9.76-3.76,36.88-4,45.76h0c-30.16,12.16-75.52,22-64.32,51.44,14.88,39.2,24.4,84.88,53.6,97.2,32.56,13.76,47.28,30.64,47.28,50.56,0,36.72,183.51,33.44,183.51-.56-.08-97.84,81.2-72.24,46.16-216.39Z" fill="url(#1776867898001-234797_radial-gradient)"></path><path class="cls-2" d="M344.32,267.35c-3.6-14.72-13.04-26-26.64-31.76-10.4-4.4-22.32-5.2-32-2.48-3.92-12.96-15.52-22.88-32.24-27.36-11.2-3.04-24.4-3.12-34.24.96V39.6c0-27.2-21.92-39.6-42.24-39.6-21.6,0-43.44,13.6-43.44,39.6v164.79c-15.76-3.12-32.48-.32-45.2,7.92-10.72,6.96-17.2,16.88-18.16,27.92-.24,2.48-.56,6.16-1.04,10.4-1.04,10.24-2.32,23.6-2.8,31.68-3.76,1.44-7.76,2.88-11.76,4.32-22.08,8-44.88,16.24-52.24,32.16-3.04,6.56-3.12,13.76-.16,21.44,3.6,9.52,6.72,19.52,9.68,29.2,9.68,31.36,22.64,61.04,47.2,71.44,29.52,12.48,49.6,26.4,49.6,44.96,0-18.8-7.12-40.16-44.96-56.16-19.36-8.16-31.44-35.2-40.32-63.76-3.04-9.92-6.24-20.08-9.92-29.92-1.76-4.56-1.76-8.48-.16-12,5.2-11.28,26.48-18.96,45.36-25.76,5.44-2,10.8-3.92,15.76-5.92l3.68-1.52.08-4c.16-6.32,1.76-22.88,2.96-34.96l1.04-10.32c.64-7.28,5.2-13.92,12.72-18.8,11.76-7.6,28.48-9.36,42.72-4.48l8,2.8V39.6c0-18.88,16.24-27.44,31.28-27.44s30.16,8.48,30.16,27.44v199.59l11.12-17.12c3.52-5.44,17.28-8.56,32.08-4.56,5.52,1.44,23.76,7.6,24.72,24.4l.56,9.92,8.56-5.04c6-3.52,17.76-4.72,28.8,0,7.04,2.96,16.24,9.52,19.6,23.44,20.48,84.32-7.12,108-20,135.35-8.56,18.32-20.32,39.04-20.32,79.6,0-37.84,22.88-56.48,31.36-74.4,13.28-28.24,42.24-54.96,20.8-143.43Z" fill="#db942d"></path><path class="cls-2" d="M78.65,283.35c0,21.76,4.4,49.52-22.16,84.64,18.32-46.64,8.08-60.48,9.68-81.36.24-3.04,12.48-6.24,12.48-3.28Z" fill="#db942d"></path><path class="cls-2" d="M138.09,257.03c4.8-25.44-4.8-21.68-4.72-47.36,0-3.04,12.64.4,12.64,3.36.16,21.84,1.92,24.96-7.92,44Z" fill="#db942d"></path><path class="cls-2" d="M214.56,255.19c-5.2-22.4,4.96-23.28,4.96-42.8,0-3.04-12.64-2.48-12.96.56-.96,8.72-4.48,19.84,8,42.24Z" fill="#db942d"></path><path class="cls-2" d="M280.96,282.39c-5.2-24.32,6.16-21.04,7.36-46.08.16-3.04-13.44-6.4-12.96-3.44,2.96,17.44-9.6,27.76,5.6,49.52Z" fill="#db942d"></path><path class="cls-3" d="M154.09,52.72c-.96-5.6-1.84-16.96-1.2-20.96,2.56-17.92,44.24-17.76,46.72,0,.64,4.48-.08,16.48-1.36,22.16-3.76,16.96-41.28,16.24-44.16-1.2Z" style="isolation:isolate" fill="#fff" opacity=".3"></path></g></svg>