<svg data-name="Layer 1" xmlns="http://www.w3.org/2000/svg" style="" viewBox="0 0 529.76 512"><g class="nc-icon-wrapper"><defs><linearGradient id="1776867898010-5589105_linear-gradient" x1="261.65" y1="8.07" x2="261.65" y2="507.48" gradientTransform="matrix(1 0 0 -1 0 514.01)" gradientUnits="userSpaceOnUse"><stop offset="0" stop-color="#ffae2c"></stop><stop offset=".01" stop-color="#ffaf2d"></stop><stop offset=".2" stop-color="#ffbe38"></stop><stop offset=".43" stop-color="#ffc63e"></stop><stop offset=".8" stop-color="#ffc940"></stop></linearGradient></defs><path class="cls-1" d="M518.56,177.72c-14.92-34.52-101.97-77.16-135.78-159.44-10.95-26.57-80.25-7.24-63.92,49.53,1.94,6.8-25.87,5.39-28.6,30.46-14.74,132.69-123.86,154.94-133.57,238.46H26.2c-32.05,0-37.7,166.68,0,166.68,44.23,0,223.89,5.39,266.62.44,47.14-5.47,186.46-105.5,202.35-136.49,22.78-44.14,35.67-161.47,23.4-189.63ZM322.3,315.45c-24.63-46.35,38.23-85.11,43.17-162.53,0,0,12.54,43.26,35.67,65.86-12.18,34.87-9.45,67.8-9.45,67.8-31.69,6.44-69.39,28.87-69.39,28.87Z" fill="url(#1776867898010-5589105_linear-gradient)"></path><path class="cls-3" d="M308.53,153c4.59-5.92,10.68-46.7,8.03-53.15-4.68-11.39-20.75-11.21-22.25-4.59-2.3,9.89-9.8,38.58-12.98,54.74-1.24,6.8,24.19,6.89,27.19,3Z" style="isolation:isolate" fill="#fff" opacity=".3"></path><path class="cls-3" d="M377.48,63.75c-5.39-4.06-20.84-34.25-19.6-40.35,1.32-6.36,18.45-11.04,19.42-7.24,2.21,8.3,14.39,31.25,20.84,43.44,2.83,5.12-11.3,11.12-20.66,4.15Z" style="isolation:isolate" fill="#fff" opacity=".3"></path><path class="cls-2" d="M524.56,175.16c-6.36-14.74-23.22-29.49-44.5-48.2-31.69-27.81-71.16-62.33-91.2-111.15-5.83-14.3-24.37-19.69-43.97-12.89-22.6,7.86-41.23,30.46-33.11,63.65-.79.35-1.68.79-2.47,1.15-8.12,3.53-23.31,10.15-25.51,29.93-7.95,71.6-52.97,110.71-80.78,145.14-21.54,26.66-45.55,50.85-51.56,85.19l-125.19,8.83,136.31,6.53.71-5.74c4.06-35.05,27.54-58.97,49.97-86.7,28.96-35.84,75.31-76.45,83.61-151.85,1.24-11.39,8.48-15.36,17.75-19.42,4.86-2.12,12.89-5.65,10.59-13.6-8.21-28.52,7.77-45.2,24.01-50.85,12.62-4.41,24.45-1.94,27.54,5.56,21.19,51.65,61.98,87.31,94.64,116.01,19.25,16.86,35.93,31.43,41.14,43.52,11.21,25.96-.71,140.46-23.22,184.07-15.36,29.84-153.97,127.92-197.32,132.96-30.19,3.53-165.71,3.97-265.82,6.09,104.88,11.92,253.55,8.48,267.33,6.89,48.2-5.56,189.99-106.03,207.47-139.93,22.51-43.7,37.08-164.12,23.57-195.2Z" fill="#db942d"></path><path class="cls-2" d="M408.64,216.92l-2.91-2.91c-21.54-21.1-33.81-62.59-33.99-63.04l-10.42-35.76-2.38,37.17c-2.21,34.52-17.66,62.59-31.25,87.4-16.69,30.37-26.04,50.68-11.21,78.66l3.35,6.36,6-3.97c.44-.26,36.99-21.81,67.1-27.9l5.65-1.15-.35-5.74c0-.35-2.47-31.96,9.09-65.15l1.32-3.97ZM384.9,281.46c-24.28,6.36-47.14,16.69-59.68,24.37-6.27-19.69,0-34.34,13.95-59.68,10.86-19.78,22.78-41.49,28.96-67.27,5.83,13.24,14.3,29.49,25.51,41.58-8.39,26.13-9.01,50.32-8.74,61Z" fill="#db942d"></path><path class="cls-2" d="M413.15,58.8c6.53,16.07,13.33,31.87,20.84,47.41,7.42,15.54,16.16,30.28,24.81,45.55,2.12,3.8,4.15,7.68,6.18,11.57,2.12,3.88,3.88,8.3,4.86,12.62,2.12,8.74,2.74,17.48,3.53,26.13,1.32,17.3,2.65,34.7,7.42,51.47-5.56-16.51-7.77-33.99-9.98-51.2-1.15-8.56-2.3-17.22-4.68-25.34-2.21-8.03-7.5-14.92-12.01-22.34-9.53-14.3-19.69-28.78-28.34-44.05-8.83-15.18-16.86-30.72-24.54-46.35l11.92-5.47Z" fill="#db942d"></path><path class="cls-2" d="M370.33,170.84l-12.54-2.83c3.18-38.23,3.97-70.19-11.21-84.31-7.77-7.15-20.92-7.42-31.52-4.77l-2.38-12.36c16.42-5.39,31.69-3.18,42.91,7.24,18.98,17.75,19.69,52.97,14.74,97.02Z" fill="#db942d"></path><path class="cls-2" d="M149.62,340.08l14.13-7.42s-3.97,25.07,3.97,39.46c-16.69-11.39-18.1-32.05-18.1-32.05Z" fill="#db942d"></path></g></svg>