<svg data-name="Layer 1" xmlns="http://www.w3.org/2000/svg" style="" viewBox="0 0 463.99 512"><g class="nc-icon-wrapper"><defs><radialGradient id="1776867897997-7123238_radial-gradient" cx="171.59" cy="267.65" fx="171.59" fy="267.65" r="209.45" gradientTransform="matrix(.94263 -.38968 -.5276 -1.2427 250.05 638.08)" gradientUnits="userSpaceOnUse"><stop offset=".44" stop-color="#ffc940"></stop><stop offset=".69" stop-color="#ffc73e"></stop><stop offset=".8" stop-color="#ffc039"></stop><stop offset=".88" stop-color="#ffb330"></stop><stop offset=".9" stop-color="#ffae2c"></stop></radialGradient></defs><path class="cls-3" d="M97.44,120.34c-27.04-34.8-61.44-2.4-48.72,19.92,2.8,4.8,7.76,11.52,7.76,11.52-19.36-21.2-57.28.32-34.08,41.68,4.24,7.52,30.16,55.04,30.16,55.04-28-40.96-58.4-13.28-41.76,23.6,23.12,51.04,57.44,102.08,99.44,149.92,38.08,43.28,68.24,29.68,105.76,70.24,17.76,19.2,114.64-47.36,100.16-79.52-44.8-100.08-201.28-270-218.72-292.4Z" fill="#f7b448"></path><path class="cls-4" d="M216.08,492.27c-17.44-18.8-36.16-22.72-52.56-29.6-17.76-7.36-37.36-13.52-57.76-36.72-43.52-49.52-77.28-100.48-100.4-151.44-10.72-23.76-4-42.96,8.32-49.68,4.96-2.72,11.28-3.68,18.32-1.52-6.48-11.76-12.88-23.52-14.8-26.96-14.88-26.56-6.8-45.44,4.72-53.52,5.76-4.08,12.48-5.84,19.2-5.12-3.52-11.84,1.44-25.52,12.8-33.04,9.12-6.08,23.6-8.56,37.52,1.76,12.88,9.44,1.28,17.84,1.28,17.84-10.24-12.56-22.24-16.16-32-9.6-6.96,4.64-11.36,14.48-6.64,22.8,2.56,4.48,7.36,10.88,7.36,10.96l-9.44,7.44c-7.44-8.16-17.2-7.44-23.04-3.28-7.44,5.28-12.24,18.32-1.2,38,4.24,7.52,29.92,55.36,29.92,55.36l-10.32,5.6c-9.6-14.08-20.32-20.24-27.76-16.16-7.36,4-10.48,17.92-3.12,34.24,22.56,49.84,55.68,99.84,98.48,148.48,18.56,21.12,34.4,29.6,51.68,36.8,16.8,7.04,37.28,18.72,49.44,37.36h0Z" fill="#db942d"></path><path class="cls-4" d="M35.67,147.46c27.52-3.76,106.56,159.76,126.96,159.76-17.6-12.72-71.04-126.88-108.72-168.16-2-2.24-21.12,8.72-18.24,8.4Z" fill="#db942d"></path><path class="cls-4" d="M107.68,346.02c1.2-.72,2.4-1.44,3.52-2.16-12.48-17.28-32.16-64-64-115.28-.96-1.52-9.92,9.36-8.8,10.72,33.28,43.68,53.76,92.08,69.28,106.72Z" fill="#db942d"></path><path class="cls-4" d="M102.88,335.62c2.8,11.92-5.68,20.8-5.68,20.8,0,0,8.32-5.6,24.48-14,.08,0-11.6.72-18.8-6.8Z" fill="#db942d"></path><path class="cls-1" d="M363.6,48.5c-12.16,21.12-16,51.2-16,51.2,0,0,24-18.32,36.16-39.52,19.76-34.24-.48-45.92-20.16-11.68Z" fill="#0fb4d4"></path><path class="cls-1" d="M305.52,29.7c0,24.4,11.68,52.4,11.68,52.4,0,0,11.68-27.92,11.68-52.4,0-39.6-23.36-39.6-23.36,0Z" fill="#0fb4d4"></path><path class="cls-1" d="M417.2,80.9c-21.12,12.24-39.36,36.32-39.36,36.32,0,0,29.92-3.84,50.96-16,34.16-19.76,22.48-40.16-11.6-20.32Z" fill="#0fb4d4"></path><path class="cls-2" d="M405.36,169.38c-6.72-34.08-61.36-20-55.76,28.16,0,0-60.88-102.16-92.56-132.08-26.16-24.64-57.2-5.92-53.76,10.32,0,0-6.64-7.2-14.32-15.44-28.48-30.72-62.8-.88-54.56,25.28,3.52,11.12,5.2,12.72,5.2,12.72-16.32-14.48-60,2.56-38.88,48.4,3.84,8.4,32.08,66.88,32.08,66.88-26.24-45.92-63.28-18.16-48.56,22.48,20.32,56.4,57.52,136,105.76,188.24,22.16,24,72.48,42.24,90.8,76.4,21.92,40.8,197.6-38.8,173.28-88-10.96-22.16,6.16-90.56,3.76-110.24-7.12-58.32-40.24-71.28-52.48-133.12Z" fill="url(#1776867897997-7123238_radial-gradient)"></path><path class="cls-5" d="M395.2,208.1c-3.76-3.68-12.72-31.84-10.24-36.16,6.08-10.8,13.6-9.68,15.2-5.28,2.48,6.72,7.76,27.76,11.36,38.72,1.52,4.64-13.84,5.12-16.32,2.72Z" style="isolation:isolate" fill="#fff" opacity=".3"></path><path class="cls-5" d="M223.68,97.86c-3.28-3.2-9.36-10.16-11.04-13.04-7.28-12.72,17.6-30.88,27.76-20.48,2.56,2.64,8,10.72,10.08,14.88,6.16,12.64-16.48,28.56-26.8,18.64Z" style="isolation:isolate" fill="#fff" opacity=".3"></path><path class="cls-5" d="M156.8,98.34c-3.68-3.52-10.4-11.28-12.24-14.48-8.08-14.16,19.6-34.24,30.88-22.72,2.88,2.88,8.88,11.84,11.12,16.48,6.8,14.16-18.32,31.84-29.76,20.72Z" style="isolation:isolate" fill="#fff" opacity=".3"></path><path class="cls-5" d="M115.2,140.42c-2.96-3.84-8.16-12.08-9.44-15.36-5.6-14.48,23.36-29.6,32.32-17.04,2.24,3.12,6.72,12.48,8.16,17.2,4.48,14.16-21.84,27.28-31.04,15.2Z" style="isolation:isolate" fill="#fff" opacity=".3"></path><path class="cls-5" d="M97.28,232.42c-2.4-3.44-6.56-10.8-7.52-13.76-4.16-12.8,21.6-24.56,28.8-13.36,1.84,2.8,5.2,11.04,6.24,15.2,3.28,12.48-20.16,22.72-27.52,11.92Z" style="isolation:isolate" fill="#fff" opacity=".3"></path><path class="cls-4" d="M340.32,192.98c27.28,49.36,48.08,91.92,65.44,89.28-18.16-12.8-39.6-50.4-53.2-95.44-.48-1.68-13.04,4.72-12.24,6.16Z" fill="#db942d"></path><path class="cls-4" d="M190.96,70.26c71.92,89.2,91.84,171.12,111.04,172.72-18.64-16.48-26.96-68.48-96.96-174.32-1.76-2.8-16.08-.88-14.08,1.6Z" fill="#db942d"></path><path class="cls-4" d="M122.88,97.86c35.76-3.04,98.88,171.04,120.4,172.48-17.52-14.88-46.16-111.76-102.16-181.84-2-2.48-21.36,9.68-18.24,9.36Z" fill="#db942d"></path><path class="cls-4" d="M126.96,215.78c11.76,20.16,43.36,99.68,61.2,97.84-11.84-8.08-20.48-49.12-55.44-112.72-.96-1.6-6.72,13.28-5.76,14.88Z" fill="#db942d"></path><path class="cls-4" d="M463.76,301.78c-3.76-31.28-14.56-49.68-26-69.2-10.16-17.36-20.72-35.36-26.48-64.4-3.28-16.4-16.48-25.76-33.04-23.2-14.72,2.24-29.04,14-33.6,32.8-18.8-30.48-59.04-93.68-83.44-116.64-18-16.96-38.16-15.44-49.92-9.04-5.2,2.88-9.12,6.64-11.6,10.96l-6.32-6.8c-16.72-18.08-35.52-17.28-47.52-10.48-14.96,8.48-22.24,26-17.36,41.6,0,.08,0,.16.08.16-8.32-.88-17.6,1.28-25.12,6.72-5.92,4.32-24,20.96-8.32,54.96,1.92,4.24,9.92,20.88,17.44,36.56,0,0-10.72-2-19.6,2.72-15.36,8.16-23.76,24.08-14.56,49.68,13.28,36.72,50.24,128.72,106.96,190.24,9.28,10.08,24.32,17.36,38.56,26.64,20.96,13.68,44.08,26.88,56.8,45.76-10-22-31.04-39.6-52.24-53.44-13.6-8.88-25.84-18.08-34.16-27.04-56.8-61.6-94.32-158.08-104.48-186.16-6.56-18.16-3.2-29.12,8.48-34.24,14.8-6.56,20.48,0,28.64,15.92l11.2-4.72c-.32-.56-28.24-58.56-32-66.8-8.16-17.68-6.56-32.4,4.48-40.32,7.92-5.76,19.04-6.24,24.8-1.2l5.68-6.08,3.2-2.08c-.08-.08-1.44-2.24-4.16-10.8-3.2-10.16,1.92-22.08,11.76-27.68,10.4-5.92,22.24-2.88,32.48,8.16l29.36,31.68-4.56-21.44c-.88-4,2.72-8.48,8-11.92,12.24-8,22.4-5.28,35.6,7.2,30.72,28.96,90.96,129.76,91.52,130.8l14.48,24.32-3.2-28.08c-2.64-23.2,10.64-37.92,24.48-40,7.76-1.2,16.96,1.76,19.28,13.68,6.16,30.96,17.2,49.84,27.84,68.08,10.8,18.4,20.96,35.76,24.48,64.64.8,6.64-1.04,20.96-2.96,36.08-3.68,28.4-4.48,55.84,5.28,73.44-5.04-16.4-.24-48.48,5.2-72.08,3.36-14.56,5.52-30.8,4.56-38.96Z" fill="#db942d"></path></g></svg>