<svg data-name="Layer 1" xmlns="http://www.w3.org/2000/svg" style="" viewBox="0 0 655.38 512"><g class="nc-icon-wrapper"><defs><linearGradient id="1776732453082-444385_linear-gradient" x1="162.64" y1="162.76" x2="381.26" y2="423.11" gradientTransform="matrix(1 0 0 -1 0 514)" gradientUnits="userSpaceOnUse"><stop offset=".53" stop-color="#ffc940"></stop><stop offset=".87" stop-color="#ffb22f"></stop><stop offset=".91" stop-color="#ffae2c"></stop></linearGradient><linearGradient id="1776732453082-444385_linear-gradient-2" x1="468.51" y1="191.56" x2="386.99" y2="443.9" gradientTransform="matrix(1 0 0 -1 0 514)" gradientUnits="userSpaceOnUse"><stop offset="0" stop-color="#ffae2c"></stop><stop offset=".22" stop-color="#ffb531"></stop><stop offset=".54" stop-color="#ffc940"></stop></linearGradient><radialGradient id="1776732453082-444385_radial-gradient" cx="124.87" cy="456.1" fx="124.87" fy="456.1" r="42.95" gradientTransform="matrix(.95153 -.39433 -.4075 -1.01102 221.82 841.9)" gradientUnits="userSpaceOnUse"><stop offset=".52" stop-color="#ffc940"></stop><stop offset=".71" stop-color="#ffc33c"></stop><stop offset=".95" stop-color="#ffb22f"></stop><stop offset="1" stop-color="#ffae2c"></stop></radialGradient><radialGradient id="1776732453082-444385_radial-gradient-2" cx="165.15" cy="216.41" fx="165.15" fy="216.41" r="51.4" gradientTransform="matrix(.92874 -.04835 -.07492 -1.11762 81.11 620.46)" gradientUnits="userSpaceOnUse"><stop offset=".52" stop-color="#ffc940"></stop><stop offset=".71" stop-color="#ffc33c"></stop><stop offset=".95" stop-color="#ffb22f"></stop><stop offset="1" stop-color="#ffae2c"></stop></radialGradient><radialGradient id="1776732453082-444385_radial-gradient-3" cx="288.55" cy="118.88" fx="288.55" fy="118.88" r="52.31" gradientTransform="matrix(1.02 0 0 -1.05 -18.19 537.59)" gradientUnits="userSpaceOnUse"><stop offset=".52" stop-color="#ffc940"></stop><stop offset=".71" stop-color="#ffc33c"></stop><stop offset=".95" stop-color="#ffb22f"></stop><stop offset="1" stop-color="#ffae2c"></stop></radialGradient><radialGradient id="1776732453082-444385_radial-gradient-4" cx="349.31" cy="12.72" fx="349.31" fy="12.72" r="47.76" gradientTransform="matrix(1.02 0 0 -.84 -18.19 446.87)" gradientUnits="userSpaceOnUse"><stop offset=".52" stop-color="#ffc940"></stop><stop offset=".71" stop-color="#ffc33c"></stop><stop offset=".95" stop-color="#ffb22f"></stop><stop offset="1" stop-color="#ffae2c"></stop></radialGradient></defs><path class="cls-6" d="M551.12,283.14c-40.45-102.91-129.74-203.16-256.81-228.45-46.8-9.42-121.44,3.17-203.05-52.94C57.57-21.28-27.93,189.65,9.14,204.6c19.66,7.99,69.73,37.89,82.63,61.64,69.32,128.1,288.25,278.21,328.69,174.69,32.97,5.94,54.88-7.27,56.01-38.5,27.14-3.99,51.71-26.11,51.71-49.36,35.84-1.64,33.59-43.21,22.94-69.94Z" fill="url(#1776732453082-444385_linear-gradient)"></path><path class="cls-7" d="M281.72,353.8c28.67,10.44,9.32,18.84,138.03,96.25l6.96-15.97c-128.2-57.55-112.84-78.03-144.99-80.28Z" fill="#db942d"></path><path class="cls-7" d="M329.54,302.6c16.59,27.54,51.1,21.09,142.95,106.8l10.24-14.03c-113.35-84.68-126.66-67.99-153.19-92.77Z" fill="#db942d"></path><path class="cls-7" d="M374.69,232.35c4.61,25.5,53.25,22.12,148.17,126.46l12.8-11.37c-108.54-98.92-146.73-94-160.97-115.09Z" fill="#db942d"></path><path class="cls-7" d="M558.29,280.17c-44.24-112.23-139.87-208.79-262.44-233.16-6.96-1.43-14.54-2.76-22.73-4.1-46.18-7.99-115.2-1.13-181.86-41.16,70.96,48.74,131.68,48.23,179.3,56.52,7.99,1.33,15.46,2.66,22.32,4.1,117.35,23.35,208.89,116.43,251.18,223.63,6.45,16.28,9.42,38.19,1.74,50.28-3.58,5.73-9.42,8.7-17.82,9.11l-7.27.31v7.47c0,18.64-21.09,38.09-45.16,41.68l-6.35.92-.2,6.45c-.41,11.47-3.99,20.07-10.55,25.39-8.09,6.55-20.68,8.5-36.45,5.63l-6.14-1.13-2.36,5.94c-7.27,18.53-20.79,28.16-41.47,29.49-74.85,4.71-220.46-100.35-275.96-202.85-14.54-26.83-53.45-49.25-86.83-60.21,37.17,18.64,64.71,44.85,75.98,65.43,51.61,95.64,195.37,213.4,282,213.4,1.95,0,3.89-.1,5.73-.2,24.27-1.54,42.29-13.11,52.32-33.59,17.61,2.15,32.36-1.23,42.8-9.73,8.7-7.17,14.13-17.71,15.77-30.72,26.11-6.25,47.72-26.83,51.61-48.95,12.59-2.46,19.56-9.52,23.35-15.46,11.26-17.92,6.76-45.98-.51-64.51Z" fill="#db942d"></path><path class="cls-4" d="M564.23,33.6c-39.63,32.26-83.97,47.61-92.98,44.65-100.96-33.79-149.29-25.6-186.57-22.42-28.98,2.46-39.01,43.31-90.21,97.58-25.5,27.03,33.89,103.63,107.82-6.45,16.28-24.27,189.13,37.37,254.66,150.11,12.9-23.76,69.63-64.41,89.39-72.39,37.07-15.05-49.97-217.08-82.12-191.07Z" fill="url(#1776732453082-444385_linear-gradient-2)"></path><path class="cls-5" d="M124.95,322.77c-5.22,13-5.53,31.44-5.43,42.9.2,26.73,37.58,62.56,64.1,18.84,5.43-8.91,4.3-34.71,4.92-47.92,1.74-35.02-51.3-44.54-63.59-13.82Z" fill="url(#1776732453082-444385_radial-gradient)"></path><path class="cls-7" d="M154.85,412.78c-3.48,0-6.66-.61-9.11-1.33-18.23-5.12-33.79-26.11-34-45.77-.1-12.9.41-31.74,6.04-45.87,7.07-17.71,26.42-26.83,46.69-22.22,16.49,3.69,32.66,17.31,31.54,39.32-.1,2.87-.2,6.45-.2,10.24-.31,18.53-.92,33.28-5.84,41.37-11.67,19.56-24.98,24.27-35.12,24.27ZM154.44,312.12c-9.01,0-18.43,3.89-22.32,13.62h0c-5.12,12.8-5.02,33.18-4.92,39.83.1,12.59,11.16,27.65,22.73,30.92,12.29,3.48,21.5-6.86,27.14-16.08,3.07-5.02,3.38-22.83,3.48-33.48.1-3.99.1-7.68.31-10.75.72-13.82-9.63-21.09-19.56-23.35-2.25-.51-4.51-.72-6.86-.72Z" fill="#db942d"></path><path class="cls-3" d="M199.59,359.63c-6.66,8.7-26.42,35.12-30.1,44.95-10.14,27.14,21.71,76.59,52.22,47.82,7.07-6.66,36.66-46.59,40.86-59.08,11.16-33.28-42.49-60.62-62.97-33.69Z" fill="url(#1776732453082-444385_radial-gradient-2)"></path><path class="cls-7" d="M202.46,468.89c-6.35,0-12.7-2.05-18.74-6.25-18.43-12.59-28.57-41.57-21.3-60.93,3.58-9.52,18.94-30.72,31.23-46.9h0c13.62-17.92,37.37-16.38,53.86-7.47,16.28,8.91,29.59,27.34,22.53,48.33-4.81,14.34-35.53,55.4-42.9,62.36-7.78,7.27-16.28,10.85-24.68,10.85ZM205.74,364.34c-15.77,20.68-26.83,37.17-28.98,42.9-4.81,12.8,2.87,33.89,15.46,42.49,8.09,5.53,16.28,4.4,24.27-3.17,6.66-6.25,35.22-45.16,38.81-55.91,4.4-13.21-5.43-24.17-15.26-29.59-10.85-5.84-26.21-7.37-34.3,3.28h0Z" fill="#db942d"></path><path class="cls-2" d="M258.27,399.67c-6.86,8.29-29.7,44.44-33.48,53.96-14.03,35.02,31.03,60,54.37,38.5,19.56-18.12,30.31-49.25,36.04-60.52,14.75-28.67-31.13-63.28-56.93-31.95Z" fill="url(#1776732453082-444385_radial-gradient-3)"></path><path class="cls-7" d="M258.06,508.01c-8.81,0-17.92-2.87-26.01-8.5-16.08-11.37-21.71-30.51-14.34-48.74,4.3-10.75,27.75-47.61,34.71-56.01h0c16.18-19.76,39.01-18.02,54.48-7.68,14.75,9.93,24.68,29.7,15.26,48.23-1.13,2.25-2.46,5.32-4.1,8.91-6.76,15.26-17,38.3-33.69,53.76-7.27,6.66-16.69,10.03-26.32,10.03ZM282.95,395.06c-6.35,0-13,2.66-18.74,9.63h0c-6.45,7.88-28.77,43.31-32.25,51.92-6.86,17.2,5.02,27.44,8.91,30.1,9.22,6.55,23.55,8.5,33.18-.31,14.34-13.31,23.76-34.51,30-48.64,1.74-3.89,3.17-7.27,4.51-9.63,5.53-10.75-1.33-22.12-10.14-27.95-4.51-3.07-9.83-5.12-15.46-5.12Z" fill="#db942d"></path><path class="cls-1" d="M316.02,434.18c-5.32,7.58-18.43,32.05-20.48,40.14-6.35,24.27,33.28,41.88,53.86,19.76,12.08-13,18.53-30.72,19.86-41.37,3.48-28.98-33.48-47.1-53.25-18.53Z" fill="url(#1776732453082-444385_radial-gradient-4)"></path><path class="cls-7" d="M325.95,512c-7.88,0-15.46-2.15-21.61-5.63-13.31-7.58-19.76-20.89-16.28-34.1,2.56-9.73,16.28-34.92,21.71-42.7h0c10.75-15.46,28.06-21.5,44.13-15.15,15.87,6.25,25.19,22.02,23.04,39.22-1.54,12.8-9.01,31.95-21.91,45.77-8.5,9.01-19.05,12.59-29.08,12.59ZM340.8,427.52c-6.96,0-13.62,3.89-18.64,11.06h0c-5.43,7.78-17.71,31.23-19.35,37.68-2.36,9.22,6.25,14.95,8.91,16.49,8.91,5.02,22.63,5.94,31.95-3.99,10.55-11.26,16.59-27.03,17.82-36.97,1.43-11.57-5.63-19.76-13.31-22.73-2.46-1.02-4.92-1.54-7.37-1.54Z" fill="#db942d"></path><path class="cls-8" d="M250.89,125.04c-1.54,6.96-26.73,38.19-33.18,38.91-16.38,1.64-20.38-7.47-16.59-12.7,5.73-7.78,25.6-29.7,35.22-41.98,4.1-5.22,15.56,11.26,14.54,15.77Z" style="isolation:isolate" fill="#fff" opacity=".3"></path><path class="cls-7" d="M557.37,282.94c-58.67-89.8-184.42-147.35-236.43-149.09-12.49-.31-20.79,2.36-24.98,8.6-34.2,50.99-61.23,55.7-74.14,53.96-13.62-1.84-21.61-11.67-24.37-19.56-2.46-7.07-1.54-13.82,2.56-18.12,21.3-22.53,35.43-42.7,46.9-58.88,16.79-23.76,25.39-35.22,38.4-36.35l9.11-.82c35.02-3.28,82.94-7.78,174.48,22.83,13.93,4.71,59.39-20.27,95.33-52.02-39.73,27.34-84.07,38.4-90.52,37.27-94.61-31.74-144.38-27.03-180.73-23.65l-8.91.82c-20.68,1.74-32.87,18.94-49.66,42.8-11.16,15.77-24.98,35.43-45.46,57.14-8.09,8.6-10.34,21.4-5.94,34.1,5.53,15.87,19.97,27.65,36.86,29.8,16.59,2.25,49.97-2.76,88.78-60.62.72-.72,5.12-2.66,16.49-1.54,50.79,5.02,172.95,61.34,225.17,151.24l6.86,11.78,6.45-11.98c11.57-21.4,49.05-52.43,82.63-76.08-41.78,19.97-68.2,33.18-88.88,58.37Z" fill="#db942d"></path><path class="cls-8" d="M136.31,344.07c-1.13-4.92-.92-15.97.41-19.86,3.38-9.73,35.74-7.58,38.19,2.66,1.02,4.1-1.23,16.18-3.48,21.4-7.17,15.87-31.85,10.34-35.12-4.2Z" style="isolation:isolate" fill="#fff" opacity=".3"></path><path class="cls-8" d="M205.74,379.09c1.64-5.12,8.09-14.95,11.37-17.82,8.91-7.68,36.97,13.31,33.59,24.47-1.33,4.3-10.03,14.13-15.05,17.51-15.36,10.24-34.81-9.01-29.9-24.17Z" style="isolation:isolate" fill="#fff" opacity=".3"></path><path class="cls-8" d="M263.18,420.56c1.33-5.02,6.55-15.67,9.83-18.12,7.27-5.43,35.53,10.03,32.25,20.17-1.33,4.2-8.81,14.44-13.31,18.12-13.82,11.26-32.77-5.32-28.77-20.17Z" style="isolation:isolate" fill="#fff" opacity=".3"></path><path class="cls-8" d="M324.52,449.74c.61-4.2,3.79-13,6.14-15.56,5.22-5.73,28.88,6.04,28.36,13.11-.2,3.58-5.63,12.49-8.91,15.87-10.03,10.55-27.24-1.02-25.6-13.41Z" style="isolation:isolate" fill="#fff" opacity=".3"></path></g></svg>