<svg data-name="Layer 1" xmlns="http://www.w3.org/2000/svg" style="" viewBox="0 0 426.71 512"><g class="nc-icon-wrapper"><defs><radialGradient id="1776867898014-9776311_radial-gradient" cx="147.68" cy="300.24" fx="147.68" fy="300.24" r="369.14" gradientTransform="matrix(.98 0 0 -.85 -7.07 445.31)" gradientUnits="userSpaceOnUse"><stop offset=".44" stop-color="#ffc940"></stop><stop offset=".69" stop-color="#ffc73e"></stop><stop offset=".8" stop-color="#ffc039"></stop><stop offset=".88" stop-color="#ffb330"></stop><stop offset=".9" stop-color="#ffae2c"></stop></radialGradient><radialGradient id="1776867898014-9776311_radial-gradient-2" cx="99.61" cy="323.41" fx="99.61" fy="323.41" r="63.33" gradientTransform="matrix(1.42 0 0 -2.01 120.66 1016.21)" gradientUnits="userSpaceOnUse"><stop offset=".28" stop-color="#faa00f"></stop><stop offset=".48" stop-color="#fbaa1b" stop-opacity=".67"></stop><stop offset=".85" stop-color="#ffc53c" stop-opacity=".07"></stop><stop offset=".89" stop-color="#ffc940" stop-opacity="0"></stop></radialGradient><radialGradient id="1776867898014-9776311_radial-gradient-3" cx="342.74" cy="-199.18" fx="342.74" fy="-199.18" r="65.52" gradientTransform="matrix(.99 0 0 -.62 -1.8 342.73)" gradientUnits="userSpaceOnUse"><stop offset=".52" stop-color="#ffc940"></stop><stop offset=".85" stop-color="#ffae2c"></stop></radialGradient><radialGradient id="1776867898014-9776311_radial-gradient-4" cx="350.78" cy="-49.07" fx="350.78" fy="-49.07" r="76.74" gradientTransform="matrix(.99 0 0 -.68 -1.8 367.45)" gradientUnits="userSpaceOnUse"><stop offset=".52" stop-color="#ffc940"></stop><stop offset=".85" stop-color="#ffae2c"></stop></radialGradient><radialGradient id="1776867898014-9776311_radial-gradient-5" cx="357.15" cy="32.27" fx="357.15" fy="32.27" r="79.74" gradientTransform="matrix(.99 0 0 -.65 -1.8 353.19)" gradientUnits="userSpaceOnUse"><stop offset=".52" stop-color="#ffc940"></stop><stop offset=".85" stop-color="#ffae2c"></stop></radialGradient><radialGradient id="1776867898014-9776311_radial-gradient-6" cx="364.88" cy="138.18" fx="364.88" fy="138.18" r="84.99" gradientTransform="matrix(.99 0 0 -.64 -1.8 344.76)" gradientUnits="userSpaceOnUse"><stop offset=".52" stop-color="#ffc940"></stop><stop offset=".85" stop-color="#ffae2c"></stop></radialGradient></defs><path class="cls-6" d="M329.14,236.11c-51.88-7.59,43.61-104.54-10.33-195.93-32-54.27-76.38-32.85-73.9-8.02,17.84,183.05-135.34,241.76-202.16,231.43-57.6-8.87-56.41,216.75,0,207.28,30.38-5.12,90.63-6.23,93.96-4.27,81.41,47.62,184.58,28.33,192.52,26.8V236.11h-.09Z" fill="url(#1776867898014-9776311_radial-gradient)"></path><path class="cls-7" d="M269.15,504.83c-38.83,0-89.86-6.31-134.92-32.51-7.59-1.11-59.05-4.01-91.48-1.54,29.27-8.62,90.71-13.48,97.11-9.73,71,41.56,160.69,30.55,183.05,26.97v-246.88c-5.55-1.71-9.73-4.69-12.46-8.96-7.51-11.78-1.96-30.21,5.12-53.59,11.09-36.78,26.2-87.21-2.13-135.26-16.56-28.08-36.01-33.71-48.73-29.53-8.7,2.82-14.25,10.07-13.48,17.66,9.3,95.83-27.9,153.01-60.76,184.16-45.91,43.52-97.45,57.52-147.72,47.96,53.25,1.28,96.09-16.38,139.1-57.09,30.81-29.18,65.71-82.95,56.83-173.74-1.37-13.48,7.77-26.2,22.19-30.89,17.32-5.72,43.01.6,63.4,35.07,31.15,52.74,15.02,106.24,3.33,145.24-5.63,18.69-10.92,36.35-6.57,43.27.51.85,2.22,3.41,9.05,4.44l5.38.77v267.78l-5.03,1.02c-5.21,1.02-29.1,5.38-61.27,5.38Z" fill="#db942d"></path><path class="cls-5" d="M272.56,238.16c-139.78-5.89-142.43,252.34-6.06,258.4,66.31,2.9,72.11-255.58,6.06-258.4Z" fill="url(#1776867898014-9776311_radial-gradient-2)"></path><path class="cls-4" d="M379.23,442.45c-36.44,0-52.65.51-87.3.51s-42.5,37.8-26.88,51.46c16.56,14.51,86.53,12.46,105.05,8.19,23.47-5.38,38.06-60.16,9.13-60.16Z" fill="url(#1776867898014-9776311_radial-gradient-3)"></path><path class="cls-3" d="M386.15,375.89h-104.62c-35.41,0-35.33,64.43,0,66.48,24.49,1.45,66.14,3.33,97.62,0,33.54-3.41,40.71-66.48,7-66.48Z" fill="url(#1776867898014-9776311_radial-gradient-4)"></path><path class="cls-2" d="M397.41,300.54c-52.05,0-67.5,4.18-117.08,4.18-40.53,0-39.85,63.83,0,71.26,28.93,5.38,69.04,4.35,105.82,0,32.43-3.84,43.95-75.44,11.26-75.44Z" fill="url(#1776867898014-9776311_radial-gradient-5)"></path><path class="cls-1" d="M395.79,227.23c-28.59-3.84-72.79-8.11-118.96,16.38-22.87,12.12-13.82,57.86,5.29,61.1,20.05,3.33,63.06,0,115.37-4.18,32.26-2.56,29.01-69.12-1.71-73.3Z" fill="url(#1776867898014-9776311_radial-gradient-6)"></path><path class="cls-7" d="M327.52,512c-26.03,0-55.38-2.99-66.82-12.89-9.73-8.53-12.8-24.15-7.51-37.97,5.89-15.28,20.31-24.49,38.66-24.49v12.54c-12.97,0-22.7,5.97-26.71,16.3-3.41,8.96-1.71,19.03,4.01,24.06,13.82,12.03,79.7,11.35,99.42,6.83,10.92-2.47,21.85-23.13,20.05-37.97-1.02-8.7-5.63-9.81-9.47-9.81v-12.54c12.37,0,20.65,7.85,22.19,20.91,2.3,19.71-11.01,47.36-29.87,51.71-6.91,1.71-24.49,3.33-43.95,3.33Z" fill="#db942d"></path><path class="cls-7" d="M336.99,450.56c-16.47,0-35.07-.6-55.81-1.88-22.1-1.37-33.11-22.1-32.51-41.99.68-21.85,14.17-37.12,32.85-37.12v12.54c-13.4,0-19.71,12.54-20.14,24.92-.43,13.74,6.49,28.16,20.48,29.01,40.88,2.47,73.39,2.47,96.6,0,14.93-1.54,24.06-19.54,23.21-35.33-.34-5.63-2.39-18.69-15.53-18.69v-12.54c16.21,0,27.31,12.03,28.33,30.55,1.11,21.42-11.78,46.08-34.56,48.47-12.03,1.45-26.37,2.05-42.92,2.05Z" fill="#db942d"></path><path class="cls-7" d="M327.61,385.87c-18.52,0-35.07-1.28-48.47-3.75-25.43-4.78-37.04-29.01-35.16-49.32,1.96-20.57,16.56-34.31,36.35-34.31v12.54c-15.79,0-22.53,11.86-23.64,22.96-1.45,14.85,6.83,32.43,24.83,35.84,25.43,4.78,63.32,4.69,103.85-.09,15.28-1.79,26.2-26.03,25.09-44.8-.43-6.74-2.65-18.01-13.06-18.01v-12.54c14.76,0,24.66,11.44,25.77,29.78,1.54,25.26-12.97,55.38-36.27,58.11-20.82,2.3-40.96,3.58-59.31,3.58Z" fill="#db942d"></path><path class="cls-7" d="M304.57,312.31h0c-9.98,0-17.66-.51-23.55-1.45-11.44-1.88-20.57-14-23.38-30.72-3.16-18.69,3.24-35.24,16.13-42.07,25.52-13.57,52.82-20.14,83.63-20.14,14.85,0,28.16,1.54,39.25,3.07,20.57,2.82,30.64,25.94,30.04,47.36-.6,22.02-11.86,37.12-28.67,38.49-35.93,2.82-69.8,5.46-93.44,5.46ZM357.39,230.56c-28.59,0-53.93,6.06-77.57,18.6-9.81,5.21-11.26,18.86-9.64,28.93,1.79,10.67,7.34,19.46,12.89,20.4,17.92,2.99,64.17-.26,113.84-4.18,12.03-.94,16.64-14.76,16.98-26.28.43-15.62-6.57-32.85-19.03-34.48-10.67-1.54-23.47-2.99-37.46-2.99Z" fill="#db942d"></path><path class="cls-7" d="M145.16,464.47s-18.26-11.01-24.32-26.11c-.94,20.82,11.69,32.09,11.69,32.09l12.63-5.97Z" fill="#db942d"></path><path class="cls-7" d="M254.56,362.32c-19.63,19.37-44.97,36.01-73.65,43.78,34.73,1.28,65.54-13.06,87.73-32.34-4.69-3.93-9.39-7.77-14.08-11.44Z" fill="#db942d"></path></g></svg>