<svg data-name="Layer 1" xmlns="http://www.w3.org/2000/svg" style="" viewBox="0 0 360.03 512"><g class="nc-icon-wrapper"><defs><radialGradient id="1776867898009-7866048_radial-gradient" cx="148.94" cy="305.9" fx="148.94" fy="305.9" r="26.68" gradientTransform="matrix(7.9858 -1.09108 -1.49703 -10.99859 -582.05 3718.61)" gradientUnits="userSpaceOnUse"><stop offset=".49" stop-color="#ffc940"></stop><stop offset=".72" stop-color="#ffc63e"></stop><stop offset=".87" stop-color="#ffbe38"></stop><stop offset=".99" stop-color="#ffaf2d"></stop><stop offset="1" stop-color="#ffae2c"></stop></radialGradient></defs><path class="cls-2" d="M137.87,476.29s15.28,7.84,15.68,23.28c.64,22.96,158.32,11.2,155.76-11.6-3.68-32.72,10.24-76.96,10.24-76.96l-181.68,65.28Z" fill="#ffae2c"></path><path class="cls-3" d="M146.59,476.29h-12.88s16.64,7.52,19.84,23.28c-.4-15.84-6.96-23.28-6.96-23.28Z" fill="#db942d"></path><path class="cls-1" d="M354.03,277.25c-.16-10.16-12.64-91.52-19.12-108.88-4.16-11.04-41.92-84.08-46.88-91.44-5.44-8-39.52-49.04-52.32-61.44-23.6-22.88-60.32-1.6-44.88,36.72-14.96-8.96-44.56-13.44-57.76-19.52-35.44-16.24-56.4,46,24.48,75.2,20.32,15.28,56,51.28,67.84,66.64,1.68,4.96,3.36,9.6,5.04,14.08-2.8-1.44-5.36-2.56-7.52-3.2-14.08-4.32-44-1.28-110.72-9.92-28.8-3.76-30.64,16.72-82.96,63.12-9.92,8.8-1.84,20.24,10.8,25.52,19.04,4.48,52.32-.24,78.8-30.72,0,0,38.24,28.32,74.88,23.44,0,0,12.32,47.28,32.64,59.52-17.92,30.24-50.56,22.4-61.68,40.08-44.72,3.92-59.12-24.56-76.8-25.6-3.92-38-28.32-59.2-47.84-66.72-12.4-3.2-26.48-2.24-30.4,3.36-10.56,14.96,5.68,30,6.32,82.96.48,40.88,26.16,56.96,102.08,111.68,45.52,32.8,174.48,16.16,201.76-50.96,8.88-21.76,34.56-115.76,34.24-133.92Z" fill="url(#1776867898009-7866048_radial-gradient)"></path><path class="cls-4" d="M34.27,328.93c1.68-5.84-3.76-41.76-8.08-45.52-10.88-9.44-17.2-4.72-16.56.96.96,8.64,6.32,34.88,8.32,48.88.88,5.92,15.2-.4,16.32-4.32Z" style="isolation:isolate" fill="#fff" opacity=".3"></path><path class="cls-3" d="M285.71,126.21c-14.08-27.28-70-62.24-90.08-78.48-1.92-1.6-9.52,7.84-7.6,9.44,15.84,12.8,75.2,51.84,86.96,74.64,13.6,26.48,51.68,89.44,51.68,89.44,0,0-23.92-62.08-40.96-95.04Z" fill="#db942d"></path><path class="cls-3" d="M314.19,408.93s-15.44,34.24-4.88,78.96c.32-24.48,5.84-50.72,12.88-67.04,1.12-2.48-8-11.92-8-11.92Z" fill="#db942d"></path><path class="cls-4" d="M64.11,227.73c-2.16,4.4-23.68,18.24-27.92,16.64-10.56-4.08-11.44-11.68-8.16-14.08,5.04-3.6,21.44-12.64,29.76-18.16,10.32-6.88,9.76,8.72,6.32,15.6Z" style="isolation:isolate" fill="#fff" opacity=".3"></path><path class="cls-4" d="M148.43,57.57c-4.72,1.28-29.44-5.28-31.04-9.44-4.08-10.56,4.48-15.36,8.48-14.48,6.08,1.28,20.32,6.4,30,8.8,5.44,1.36,3.68,12-7.44,15.12Z" style="isolation:isolate" fill="#fff" opacity=".3"></path><path class="cls-4" d="M240.03,42.53c-4.8-.88-27.44-16.88-27.12-21.36.96-11.28,8.08-14.24,11.28-11.76,4.88,3.84,18.08,17.04,25.76,23.52,4.24,3.52-2.88,10.88-9.92,9.6Z" style="isolation:isolate" fill="#fff" opacity=".3"></path><path class="cls-3" d="M340.51,166.21c-4.48-11.84-42.56-85.28-47.52-92.72-5.68-8.32-39.92-49.52-53.2-62.32-12.96-12.56-30.72-14.72-44.24-5.52-8.8,6-16.48,18.4-14,35.76-7.68-2.8-16.32-5.2-24.24-7.36-8.64-2.32-16.8-4.56-21.84-6.88-10.64-4.88-21.2-4.16-29.2,1.92-8.24,6.32-12.08,17.2-10.24,29.12,1.6,10.72,10.64,37.44,58.56,55.04,19.44,14.8,53.04,48.56,65.36,64.24.16.4.24.72.4,1.12-6.64-1.28-15.44-1.76-27.68-2.32-18.24-.88-43.28-2.08-79.76-6.8-21.84-2.8-30.8,6.8-48.64,26-9.44,10.08-21.12,22.72-39.04,38.64-4.96,4.4-7.2,10.08-6.24,15.92.32,2.16,1.2,4.4,2.4,6.48-7.12.64-13.44,2.96-16.72,7.52-7.12,10.08-4.8,20-1.6,33.84,2.72,11.84,6.48,28.08,6.8,52.72.48,41.6,25.44,59.6,92.08,107.52l12.48,8.96c15.84,11.36,44.16,22.56,82.48,11.36-36.24,2.32-55.36-6.72-75.52-21.2l-12.48-9.04c-64.8-46.64-86.64-62.32-87.04-97.76-.32-25.92-4.24-42.88-7.12-55.28-3.04-13.2-4.08-18.72-.32-24.08.96-1.36,5.52-2.72,11.76-2.72,3.44,0,7.44.4,11.68,1.44l.4.16c18.88,7.44,40.16,27.44,43.68,61.52l.56,5.12,5.04.32c4.8.32,9.92,3.76,16.48,8.08,12.88,8.56,30.48,20.24,61.2,17.52l2.96-.24,1.6-2.56c3.68-5.76,10.96-8.16,20.24-11.2,13.44-4.4,30.16-9.84,41.52-29.04l3.12-5.2-5.2-3.12c-14.96-8.96-26.72-43.36-29.92-55.84l-1.36-5.2-5.28.72c-33.84,4.48-70.16-22-70.56-22.32l-4.4-3.28-3.6,4.16c-25.92,29.84-57.52,32.24-72.48,28.88-5.92-2.56-10.4-6.8-11.04-10.32-.08-.64-.4-2.48,2.32-4.88,18.4-16.32,30.8-29.68,39.84-39.44,16.88-18.16,22.56-24.32,38.32-22.24,36.96,4.8,62.24,6,80.72,6.88,14.08.64,23.36,1.12,28.96,2.8,1.84.56,4,1.52,6.56,2.88l13.92,7.2-5.6-14.72c-1.68-4.48-3.36-9.04-4.96-13.84l-.96-1.76c-12.32-16.08-48.72-52.56-68.96-67.84l-1.6-.88c-29.52-10.64-48.8-27.76-51.6-45.76-1.12-7.52.96-14.08,5.6-17.68,4.4-3.36,10.4-3.52,16.96-.56,5.92,2.72,14.56,5.04,23.68,7.52,11.92,3.28,25.52,6.88,33.52,11.68l15.36,9.2-6.72-16.64c-7.04-17.44-1.52-29.2,6-34.32,7.2-4.96,19.04-5.6,29.2,4.24,12.64,12.16,46.32,52.72,51.68,60.56,4.64,6.88,42.08,79.12,46.24,90.16,6.24,16.56,18.64,97.68,18.8,106.88.32,16.64-24.96,109.92-33.84,131.6-4.8,11.76-3.04,27.28-2.4,39.28,4-14.56,7.36-19.6,13.44-34.72,8.48-20.88,35.04-116.56,34.72-136.4h0c-.16-10.8-12.72-92.88-19.52-110.96ZM119.71,241.41c10.88,7.12,39.84,23.76,69.52,22,3.6,12,13.36,40.88,28.88,54.48-8.8,11.6-20.48,15.44-31.84,19.2-9.6,3.12-18.8,6.16-24.88,13.68-24.8,1.44-39.2-8.08-50.88-15.84-6-4-11.44-7.6-17.36-9.2-3.68-24.8-15.76-42.8-30-54.56,18-2.24,38.56-10.8,56.56-29.76Z" fill="#db942d"></path></g></svg>