<svg xmlns="http://www.w3.org/2000/svg" data-name="Layer 1" style="" viewBox="0 0 744.72 512"><g class="nc-icon-wrapper"><defs><linearGradient id="1776867898016-8134320_linear-gradient" x1="372.36" x2="372.36" y1="2" y2="398.28" gradientTransform="matrix(1 0 0 -1 0 514)" gradientUnits="userSpaceOnUse"><stop offset="0" stop-color="#5f727d"></stop><stop offset=".48" stop-color="#21282b"></stop></linearGradient><linearGradient id="1776867898016-8134320_linear-gradient-2" x1="0" x2="744.72" y1="356.71" y2="356.71" gradientTransform="matrix(1 0 0 -1 0 514)" gradientUnits="userSpaceOnUse"><stop offset="0" stop-color="#5f727d"></stop><stop offset=".48" stop-color="#323d42"></stop></linearGradient><linearGradient id="1776867898016-8134320_linear-gradient-3" x1="336.91" x2="407.79" y1="376.95" y2="376.95" gradientTransform="matrix(1 0 0 -1 0 514)" gradientUnits="userSpaceOnUse"><stop offset="0" stop-color="#323d42"></stop><stop offset="1" stop-color="#5f727d"></stop></linearGradient><linearGradient id="1776867898016-8134320_linear-gradient-4" x1="141.49" x2="157.32" y1="232.39" y2="232.39" gradientTransform="matrix(1 0 0 -1 0 514)" gradientUnits="userSpaceOnUse"><stop offset=".22" stop-color="#ffc31f"></stop><stop offset=".42" stop-color="#f7b817"></stop><stop offset=".76" stop-color="#e29903"></stop><stop offset=".81" stop-color="#de9400"></stop></linearGradient><linearGradient id="1776867898016-8134320_linear-gradient-5" x1="121.66" x2="176.69" y1="202.27" y2="202.27" gradientTransform="matrix(1 0 0 -1 0 514)" gradientUnits="userSpaceOnUse"><stop offset=".22" stop-color="#ffc31f"></stop><stop offset=".42" stop-color="#f7b817"></stop><stop offset=".76" stop-color="#e29903"></stop><stop offset=".81" stop-color="#de9400"></stop></linearGradient><linearGradient id="1776867898016-8134320_linear-gradient-6" x1="129.29" x2="169.06" y1="164.88" y2="164.88" gradientTransform="matrix(1 0 0 -1 0 514)" gradientUnits="userSpaceOnUse"><stop offset="0" stop-color="#e39f16"></stop><stop offset=".07" stop-color="#eea81c"></stop><stop offset=".18" stop-color="#fbb324"></stop><stop offset=".29" stop-color="#ffb726"></stop><stop offset=".29" stop-color="#ffb726"></stop><stop offset=".57" stop-color="#cf931a"></stop><stop offset=".77" stop-color="#b17c13"></stop><stop offset=".89" stop-color="#a67410"></stop></linearGradient></defs><path d="M588.14 383.6c0 51.48-215.78 128.39-215.78 128.39S156.58 435.07 156.58 383.6c0-357.18 431.57-357.18 431.57 0Z" fill="url(#1776867898016-8134320_linear-gradient)"></path><path d="M744.72 157.28H0v17.6l372.36 157.3 372.36-157.3z" class="cls-7" fill="#1a1626"></path><path d="M372.36 0 0 157.28l372.36 157.3 372.36-157.3z" fill="url(#1776867898016-8134320_linear-gradient-2)"></path><path d="M152.6 288.5h-6.42v-43.76c0-24.49 7.03-30.82 22.63-35.46 37.46-11.08 89.34-23.37 126.16-34.77 0 0 35-19.5 48.24-28.47 15.13-10.25 51.69-21.03 51.69-21.03 12.35-2.46 20.99 7.07 20.03 15.52-.98 8.32-10.78 19.67-78.5 33.83-43.32 9.03-120 29.75-164.79 41.55-14.7 3.87-19.04 10.81-19.04 28.83v43.75Zm246.44-156.74c-26.95 3.7-53.13 21.69-81.33 38.34 81.23-12.97 105.22-31.1 81.33-38.34" fill="#b0751e"></path><path d="M372.38 137.08H336.9v10.74c0 22.18 70.89 22.18 70.89 0v-10.74z" class="cls-7" fill="#1a1626"></path><path d="M407.79 137.08c0 22.14-70.89 22.14-70.89 0s70.89-22.2 70.89 0" fill="url(#1776867898016-8134320_linear-gradient-3)"></path><path d="M157.32 281.61c0 10.76-15.84 10.76-15.84 0-.01-10.75 15.84-10.75 15.84 0" fill="url(#1776867898016-8134320_linear-gradient-4)"></path><path d="M149.18 283.09c-11.75 0-42.18 21.27-19.08 51.43 9.51 7.8 28.65 7.8 38.16 0 23.13-30.16-7.33-51.43-19.07-51.43Z" fill="url(#1776867898016-8134320_linear-gradient-5)"></path><path d="M161.72 356.27c23.42 53.7 15.34 143.8 15.93 144.45.5.56 2.34.56 2.84 0 .58-.65 8.3-90.11-14.91-144.45z" class="cls-9" fill="#ffc31f"></path><path d="M158.16 356.27c22.99 53.86 14.07 146.66 14.67 147.35.49.55 2.33.58 2.83.06.64-.66 9.13-92.86-13.66-147.41z" class="cls-1" fill="#f5b300"></path><path d="M155.68 356.27c23.84 53.53 12.71 147.54 13.29 148.22.49.57 2.32.69 2.83.16.65-.65 11.31-94.09-12.26-148.39h-3.85Z" class="cls-9" fill="#ffc31f"></path><path d="M154.47 356.27c22.34 54.09 10.24 149.28 10.85 150 .47.59 2.28.7 2.82.22.69-.66 12.31-95.34-9.84-150.21h-3.82Z" class="cls-9" fill="#ffc31f"></path><path d="M151.93 356.27c21.82 58.18 9.94 151.03 10.5 151.73.48.58 2.29.73 2.83.23.67-.62 12.1-93.16-9.53-151.96h-3.79Z" class="cls-1" fill="#f5b300"></path><path d="M150.65 356.27c17.62 65.23 9.11 148.44 9.63 149.1.45.58 2.29.7 2.82.15.57-.57 8.84-83.64-8.73-149.24h-3.72Z" class="cls-9" fill="#ffc31f"></path><path d="M148.12 356.27c17.37 60.25 8.19 147.64 8.73 148.29.47.58 2.29.73 2.83.21.62-.57 9.43-87.83-7.84-148.5h-3.71Z" class="cls-9" fill="#ffc31f"></path><path d="M145.72 356.27c16.86 66.52 6.82 151.45 7.33 152.09.45.59 2.28.76 2.83.24.61-.54 10.32-85.48-6.46-152.34h-3.7Z" class="cls-1" fill="#f5b300"></path><path d="M143.11 356.27c17.64 64.31 5.91 151.35 6.41 152.04.45.61 2.27.81 2.84.34.63-.55 12-87.6-5.54-152.39h-3.71Z" class="cls-9" fill="#ffc31f"></path><path d="M145.72 356.27c6.46 72.28 2.39 154.61 2.93 155.23.47.58 2.29.69 2.82.17.59-.59 4.46-82.96-2.12-155.39h-3.63Z" class="cls-1" fill="#f5b300"></path><path d="M132.92 356.27c-22.88 54.4-15.22 142.97-14.64 143.63.5.56 2.35.56 2.83 0 .61-.65-7.4-89.83 15.65-143.63z" class="cls-9" fill="#ffc31f"></path><path d="M135.74 356.27c-22.81 54.55-14.13 146.75-13.51 147.41.52.52 2.35.49 2.84-.06.61-.69-8.48-93.49 14.51-147.35z" class="cls-1" fill="#f5b300"></path><path d="M142.1 356.27h-3.74c-23.61 54.29-12.82 147.84-12.17 148.48.54.54 2.35.43 2.83-.14.59-.7-10.68-94.79 13.18-148.29z" class="cls-9" fill="#ffc31f"></path><path d="M143.98 356.27h-3.84c-22.69 54.68-10.87 150.7-10.18 151.36.52.49 2.36.37 2.83-.22.61-.72-11.74-97.27 11.19-151.14" class="cls-1" fill="#f5b300"></path><path d="M146.22 356.27h-3.77c-21.39 58.82-9.95 150.74-9.3 151.39.52.49 2.35.34 2.82-.26.57-.7-11.28-92.93 10.25-151.13" class="cls-9" fill="#ffc31f"></path><path d="M146.76 356.27h-3.71c-16.1 66.23-8.12 147.12-7.56 147.7.52.52 2.36.42 2.83-.2.49-.61-7.63-81.59 8.45-147.5Z" class="cls-1" fill="#f5b300"></path><path d="M150.83 356.27h-3.71c-17.24 60.67-8.54 147.93-7.94 148.5.52.52 2.36.37 2.83-.21.54-.64-8.54-88.04 8.82-148.29" class="cls-9" fill="#ffc31f"></path><path d="M153.34 356.27h-3.68c-16.65 66.82-7.11 151.42-6.52 151.96.55.51 2.36.33 2.83-.26.5-.64-9.34-85.25 7.37-151.7" class="cls-9" fill="#ffc31f"></path><path d="M156.53 356.27h-3.71c-17.41 64.74-6.14 151.45-5.5 152 .54.47 2.36.24 2.8-.34.51-.69-11.08-87.38 6.41-151.67Z" class="cls-1" fill="#f5b300"></path><path d="M154.43 356.27h-3.64c-7.42 67.66-3.41 147.83-2.86 148.37.54.5 2.36.42 2.84-.15.51-.57-3.74-80.72 3.67-148.22Z" class="cls-9" fill="#ffc31f"></path><path d="M129.29 333.72h39.77v30.8h-39.77z" fill="url(#1776867898016-8134320_linear-gradient-6)"></path></g></svg>