<svg data-name="Layer 1" xmlns="http://www.w3.org/2000/svg" style="" viewBox="0 0 493.86 512"><g class="nc-icon-wrapper"><defs><radialGradient id="1776585740497-1516307_radial-gradient" cx="195.82" cy="712.7" fx="195.82" fy="712.7" r="272.68" gradientTransform="translate(-.05 -512)" gradientUnits="userSpaceOnUse"><stop offset="0" stop-color="#93d422"></stop><stop offset=".4" stop-color="#93d422"></stop><stop offset=".63" stop-color="#90d120"></stop><stop offset=".78" stop-color="#88c919"></stop><stop offset=".91" stop-color="#79ba0d"></stop><stop offset="1" stop-color="#69ab00"></stop></radialGradient><radialGradient id="1776585740497-1516307_radial-gradient-2" cx="246.64" cy="793.62" fx="246.64" fy="793.62" r="104.32" gradientTransform="matrix(1 0 0 .45 0 -232.16)" gradientUnits="userSpaceOnUse"><stop offset="0" stop-color="#6aad00"></stop><stop offset="1" stop-color="#6aad00" stop-opacity="0"></stop></radialGradient><radialGradient id="1776585740497-1516307_radial-gradient-3" cx="93.79" cy="745.99" fx="93.79" fy="745.99" r="125.83" gradientTransform="matrix(.96537 -.09466 .1639 .98872 -84.22 -505.88)" gradientUnits="userSpaceOnUse"><stop offset="0" stop-color="#aff23c"></stop><stop offset="1" stop-color="#aff23c" stop-opacity="0"></stop></radialGradient></defs><path class="cls-5" d="M245.76,99.47c2.73,0,9.26-1.17,19.6-3.51s23.02-4.49,38.03-6.44c15.02-1.95,31.11-2.93,48.27-2.93s34.13,2.24,50.91,6.73,31.99,12.29,45.64,23.41c13.65,11.12,24.67,26.53,33.06,46.23s12.58,44.76,12.58,75.19c0,23.02-4.78,47.1-14.34,72.27-9.56,25.16-22.04,49.64-37.45,73.44-15.41,23.8-31.99,45.35-49.74,64.66-17.75,19.31-35.01,34.72-51.79,46.23s-30.82,17.26-42.13,17.26-19.8-1.46-25.45-4.39c-5.66-2.93-10.24-5.75-13.75-8.48s-8-4.1-13.46-4.1c-5.07,0-10.04,1.37-14.92,4.1s-10.34,5.56-16.38,8.48c-6.05,2.93-13.56,4.39-22.53,4.39-11.31,0-25.16-5.27-41.55-15.8-16.38-10.53-33.35-24.97-50.91-43.3-17.55-18.33-33.84-39.2-48.86-62.61-15.02-23.41-27.21-48.18-36.57-74.31C4.68,289.84,0,263.9,0,238.15c0-30.43,4.1-55.49,12.29-75.19s19.11-35.01,32.77-45.93c13.65-10.92,28.77-18.72,45.35-23.41,16.58-4.68,33.35-7.02,50.32-7.02s32.96.98,47.98,2.93c15.02,1.95,27.6,4.1,37.74,6.44,10.14,2.34,16.58,3.51,19.31,3.51Z" fill="url(#1776585740497-1516307_radial-gradient)"></path><path class="cls-2" d="M246.93,135.17c-11.31,0-20.77-.98-28.38-2.93s-15.21-4.39-22.82-7.31-16.58-5.95-26.92-9.07-23.7-5.75-40.08-7.9c-16.38-2.15-37.45-3.61-63.2-4.39,17.16-8.97,35.5-14.34,55-16.09,19.5-1.76,38.23-1.56,56.17.59s33.16,4.58,45.64,7.31c12.48,2.73,20.28,4.1,23.41,4.1s11.02-1.37,23.7-4.1c12.68-2.73,28.09-5.17,46.23-7.31s37.06-2.34,56.76-.59,38.13,7.12,55.3,16.09c-25.75.78-46.71,2.34-62.9,4.68-16.19,2.34-29.55,4.97-40.08,7.9s-19.5,5.85-26.92,8.78-14.92,5.36-22.53,7.31-17.07,2.93-28.38,2.93Z" fill="url(#1776585740497-1516307_radial-gradient-2)"></path><path class="cls-1" d="M251.03,209.48c3.51,23.02,1.37,44.47-6.44,64.37s-19.99,36.28-36.57,49.15-36.18,20.48-58.81,22.82c-22.24,1.95-43.5-1.76-63.78-11.12-20.28-9.36-37.45-22.82-51.49-40.37-14.04-17.55-23.02-37.84-26.92-60.85-3.9-23.02-1.95-44.37,5.85-64.07s19.99-36.08,36.57-49.15,36.18-20.77,58.81-23.11c22.24-1.95,43.59,1.76,64.07,11.12s37.74,22.92,51.79,40.67c14.04,17.75,23.02,37.94,26.92,60.56Z" fill="url(#1776585740497-1516307_radial-gradient-3)"></path><path class="cls-3" d="M246.93,125.22c5.07-10.14,12.48-20.87,22.24-32.18s20.48-22.43,32.18-33.35c11.7-10.92,22.82-20.87,33.35-29.84s19.21-16.19,26.04-21.65,10.24-8.19,10.24-8.19c0,0-.49,4.19-1.46,12.58-.98,8.39-3.51,18.82-7.61,31.31-4.1,12.48-10.63,24.97-19.6,37.45-8.97,12.48-21.16,22.92-36.57,31.31-15.41,8.39-35.01,12.58-58.81,12.58Z" fill="#449c00"></path><path class="cls-6" d="M246.93,125.22c-.78-25.36,2.83-45.93,10.83-61.73,8-15.8,18.24-28.09,30.72-36.86,12.48-8.78,25.06-15.02,37.74-18.72,12.68-3.71,23.31-5.95,31.89-6.73s12.87-1.17,12.87-1.17c0,0-3.22,2.83-9.65,8.48-6.44,5.66-14.73,13.17-24.87,22.53s-20.97,19.6-32.48,30.72-22.33,22.24-32.48,33.35c-10.14,11.12-18.33,21.16-24.58,30.13Z" fill="#56ab15"></path><path class="cls-7" d="M256.88,112.35c-1.56-4.68-2.44-9.46-2.63-14.34s-.1-9.65.29-14.34c1.56-9.75,4.49-18.33,8.78-25.75-3.9,8.19-6.24,16.97-7.02,26.33-.78,4.68-1.17,9.36-1.17,14.04.39,5.07.98,9.75,1.76,14.04ZM272.68,93.62c-3.12-9.75-3.9-20.28-2.34-31.6.78-5.46,2.34-10.53,4.68-15.21,1.95-4.68,4.49-8.97,7.61-12.87-5.85,8.97-9.56,18.33-11.12,28.09-.78,5.46-1.17,10.73-1.17,15.8.39,5.85,1.17,11.12,2.34,15.8ZM290.82,74.9c-1.95-10.14-1.76-20.68.59-31.6,1.17-5.07,3.12-9.95,5.85-14.63,2.34-4.29,5.27-8.19,8.78-11.7-6.63,7.8-11.12,16.77-13.46,26.92-1.17,5.07-1.95,10.14-2.34,15.21-.39,5.85-.2,11.12.59,15.8ZM312.47,53.25c-.39-8.19.98-16.58,4.1-25.16,1.56-4.29,3.32-8,5.27-11.12s4.49-6.24,7.61-9.36c-5.46,6.63-9.36,13.65-11.7,21.07-1.56,3.9-2.73,8-3.51,12.29-.78,3.9-1.37,8-1.76,12.29ZM333.53,33.35c.78-6.24,2.73-12.09,5.85-17.55,1.95-3.12,3.71-5.66,5.27-7.61,2.34-2.34,4.68-4.1,7.02-5.27-4.29,3.9-8,8.39-11.12,13.46-1.17,2.34-2.54,5.07-4.1,8.19-1.17,3.51-2.15,6.44-2.93,8.78Z" fill="#5fbd17"></path><path class="cls-6" d="M256.88,112.35c3.9,1.56,8,2.73,12.29,3.51,3.9.78,8,1.17,12.29,1.17,8.19,0,16.58-1.95,25.16-5.85-7.8,4.68-16.19,7.02-25.16,7.02-4.29,0-8.58-.49-12.87-1.46s-8.19-2.44-11.7-4.39ZM272.68,93.62c4.68,2.34,9.56,4.1,14.63,5.27,5.07,1.56,10.14,2.15,15.21,1.76,9.75.39,19.5-1.95,29.26-7.02-4.29,2.73-8.97,4.88-14.04,6.44-4.68,1.56-9.75,2.34-15.21,2.34-10.92,0-20.87-2.93-29.84-8.78ZM290.82,74.9c4.68,1.56,9.75,2.73,15.21,3.51,5.07.78,10.14.98,15.21.59,10.14-.39,19.31-3.32,27.5-8.78-3.9,3.12-8,5.66-12.29,7.61-5.07,1.56-10.14,2.54-15.21,2.93-10.53.39-20.68-1.56-30.43-5.85ZM312.47,53.25c3.9.78,8,1.37,12.29,1.76,3.9.39,7.8.39,11.7,0,8.19-.78,15.6-3.12,22.24-7.02-3.12,2.73-6.44,4.68-9.95,5.85-3.9,1.17-7.8,1.95-11.7,2.34-8.58.78-16.77-.2-24.58-2.93ZM333.53,33.35c3.12,0,6.24-.39,9.36-1.17,3.12-.39,6.24-1.17,9.36-2.34,5.85-1.95,10.92-4.88,15.21-8.78-1.56,2.34-3.71,4.49-6.44,6.44-1.95,1.17-4.68,2.54-8.19,4.1-6.24,1.95-12.68,2.54-19.31,1.76Z" fill="#56ab15"></path><path class="cls-4" d="M252.78,135.17c-5.46-5.46-9.26-13.75-11.41-24.87-2.15-11.12-2.83-22.72-2.05-34.82.78-12.09,2.54-22.43,5.27-31.01s6.24-12.87,10.53-12.87c6.63,0,9.56,1.95,8.78,5.85s-2.93,9.95-6.44,18.14-6.34,18.82-8.48,31.89c-2.15,13.07-.88,28.96,3.8,47.69Z" fill="#785647"></path></g></svg>