<svg data-name="Layer 1" xmlns="http://www.w3.org/2000/svg" style="" viewBox="0 0 500.92 512"><g class="nc-icon-wrapper"><defs><linearGradient id="1777685730301-8364730_linear-gradient" x1="201.96" y1="-512" x2="201.96" y2="-363.44" gradientTransform="scale(1 -1)" gradientUnits="userSpaceOnUse"><stop offset="0" stop-color="#555f69"></stop><stop offset=".46" stop-color="#535d66"></stop><stop offset=".74" stop-color="#4b555e"></stop><stop offset=".97" stop-color="#3f4850"></stop><stop offset="1" stop-color="#3c454d"></stop></linearGradient><radialGradient id="1777685730301-8364730_radial-gradient" cx="1168.17" cy="-354.32" fx="1168.17" fy="-354.32" r="282.37" gradientTransform="matrix(.18 0 0 -1 -8.71 0)" gradientUnits="userSpaceOnUse"><stop offset="0" stop-color="#f2f9ff"></stop><stop offset=".39" stop-color="#eff6fc"></stop><stop offset=".68" stop-color="#e6edf3"></stop><stop offset=".94" stop-color="#d6dde3"></stop><stop offset="1" stop-color="#d1d8de"></stop></radialGradient><linearGradient id="1777685730301-8364730_linear-gradient-2" x1="350.6" y1="-191.23" x2="395.7" y2="-174.98" gradientTransform="scale(1 -1)" gradientUnits="userSpaceOnUse"><stop offset="0" stop-color="#cedbe0"></stop><stop offset=".11" stop-color="#c4d1d6"></stop><stop offset=".4" stop-color="#b1bec3"></stop><stop offset=".7" stop-color="#a5b3b7"></stop><stop offset="1" stop-color="#a1afb3"></stop></linearGradient><linearGradient id="1777685730301-8364730_linear-gradient-3" x1="412.27" y1="-305.68" x2="412.82" y2="-295.31" gradientTransform="scale(1 -1)" gradientUnits="userSpaceOnUse"><stop offset="0" stop-color="#a1afb3"></stop><stop offset=".3" stop-color="#a5b3b7"></stop><stop offset=".6" stop-color="#b1bec3"></stop><stop offset=".89" stop-color="#c4d1d6"></stop><stop offset="1" stop-color="#cedbe0"></stop></linearGradient><radialGradient id="1777685730301-8364730_radial-gradient-2" cx="-595.76" cy="-222.98" fx="-595.76" fy="-222.98" r="9.31" gradientTransform="matrix(-.9009 1.5604 -2.33906 -1.35044 -965.43 866.303)" gradientUnits="userSpaceOnUse"><stop offset="0" stop-color="#f0a429" stop-opacity=".8"></stop><stop offset=".51" stop-color="#f0a429" stop-opacity=".8"></stop><stop offset="1" stop-color="#f0a429" stop-opacity="0"></stop></radialGradient><radialGradient id="1777685730301-8364730_radial-gradient-3" cx="1029.2" cy="44.08" fx="1029.2" fy="44.08" r="34.65" gradientTransform="rotate(-60 174.362 -73.417) scale(.5 -.75)" gradientUnits="userSpaceOnUse"><stop offset="0" stop-color="#f0a429" stop-opacity=".8"></stop><stop offset=".51" stop-color="#f0a429" stop-opacity=".8"></stop><stop offset="1" stop-color="#f0a429" stop-opacity="0"></stop></radialGradient><linearGradient id="1777685730301-8364730_linear-gradient-4" x1="252.8" y1="-719.34" x2="252.8" y2="-664" gradientTransform="matrix(.65 0 0 -.65 92.02 -244.42)" gradientUnits="userSpaceOnUse"><stop offset="0" stop-color="#a6694a"></stop><stop offset="1" stop-color="#4f2a1e"></stop></linearGradient><linearGradient id="1777685730301-8364730_linear-gradient-5" x1="-1518.86" y1="-8599.51" x2="-1518.86" y2="-8114.92" gradientTransform="matrix(.07 0 0 -.07 253.53 -414.76)" gradientUnits="userSpaceOnUse"><stop offset="0" stop-color="#a6694a"></stop><stop offset="1" stop-color="#4f2a1e"></stop></linearGradient><linearGradient id="1777685730301-8364730_linear-gradient-6" x1="379.63" y1="-202.24" x2="396.15" y2="-184.11" gradientTransform="scale(1 -1)" gradientUnits="userSpaceOnUse"><stop offset="0" stop-color="#cedbe0"></stop><stop offset=".11" stop-color="#c4d1d6"></stop><stop offset=".4" stop-color="#b1bec3"></stop><stop offset=".7" stop-color="#a5b3b7"></stop><stop offset="1" stop-color="#a1afb3"></stop></linearGradient><linearGradient id="1777685730301-8364730_linear-gradient-7" x1="395.15" y1="-206.94" x2="393.09" y2="-192.53" gradientTransform="scale(1 -1)" gradientUnits="userSpaceOnUse"><stop offset="0" stop-color="#a1afb3"></stop><stop offset=".3" stop-color="#a5b3b7"></stop><stop offset=".6" stop-color="#b1bec3"></stop><stop offset=".89" stop-color="#c4d1d6"></stop><stop offset="1" stop-color="#cedbe0"></stop></linearGradient></defs><path class="cls-12" d="M356.85,404.95c6.9,3.79,13.19,9.48,18.88,17.07s10.6,15.95,14.74,25.08c4.14,9.14,7.41,17.76,9.83,25.86,2.41,8.1,3.62,14.57,3.62,19.39,0,3.45-5.69,6.38-17.07,8.79s-26.72,4.48-46.03,6.21-40.94,2.93-64.91,3.62c-23.96.69-48.7,1.03-74.21,1.03s-50.25-.34-74.21-1.03-45.6-1.9-64.91-3.62c-19.31-1.72-34.56-3.79-45.77-6.21-11.21-2.41-16.81-5.34-16.81-8.79,0-4.83,1.12-11.29,3.36-19.39,2.24-8.1,5.52-16.72,9.83-25.86,4.31-9.14,9.31-17.5,15-25.08,5.69-7.59,11.98-13.27,18.88-17.07,4.83-2.41,11.29-5.52,19.39-9.31s16.98-7.67,26.63-11.64,18.96-7.5,27.93-10.6c8.96-3.1,16.55-5.17,22.76-6.21,9.65-1.72,21.81-2.84,36.46-3.36s29.22-.52,43.7,0,26.55,1.64,36.2,3.36c6.55,1.03,14.31,3.1,23.27,6.21,8.96,3.1,18.19,6.55,27.67,10.34s18.36,7.67,26.63,11.64,14.65,7.15,19.14,9.57h0Z" fill="url(#1777685730301-8364730_linear-gradient)"></path><path class="cls-16" d="M137.05,372.36c0-7.59,4.4-13.71,13.19-18.36,8.79-4.65,19.57-7.67,32.32-9.05,12.76-1.38,25.6-1.38,38.53,0s23.7,4.4,32.32,9.05c8.62,4.65,12.93,10.77,12.93,18.36,0,6.9-4.31,12.33-12.93,16.29-8.62,3.96-19.39,6.64-32.32,8.02s-25.77,1.38-38.53,0-23.53-4.05-32.32-8.02-13.19-9.4-13.19-16.29h0Z" fill="#3c454d"></path><path class="cls-11" d="M139.12,368.74v-53.27h125.67v53.27c0,6.55-4.22,11.81-12.67,15.77s-18.96,6.55-31.55,7.76c-12.58,1.21-25.08,1.21-37.49,0s-22.84-3.79-31.29-7.76c-8.45-3.96-12.67-9.22-12.67-15.77h0Z" fill="url(#1777685730301-8364730_radial-gradient)"></path><path class="cls-15" d="M359.43,49.65l1.03-1.03s1.47,4.83,4.4,14.48,6.55,21.98,10.86,36.98,8.79,30.69,13.45,47.06,8.71,31.63,12.15,45.77c3.45,14.14,5.86,24.82,7.24,32.06-.69,4.14-2.24,8.53-4.65,13.19-2.41,4.65-4.48,9.91-6.21,15.77s-1.9,12.33-.52,19.39c1.38,7.07,5.52,14.74,12.41,23.01.69.34,1.21,1.47,1.55,3.36s0,3.19-1.03,3.88c-3.45.69-6.81,2.41-10.08,5.17s-6.64,5.26-10.08,7.5-7.07,3.1-10.86,2.59-7.93-3.53-12.41-9.05c-3.1-4.48-5-9.74-5.69-15.77s.26-11.81,2.84-17.33,7.33-9.65,14.22-12.41c4.83-2.07,7.41-4.91,7.76-8.53s.52-11.98.52-25.08c-.34-2.41-.69-5.43-1.03-9.05s-.52-5.43-.52-5.43c-5.17-30.34-9.65-58.1-13.45-83.26s-6.72-45.34-8.79-60.51-3.1-22.76-3.1-22.76h-.01ZM398.22,292.72c.34-8.96-2.07-15.17-7.24-18.62s-10.52-3.88-16.03-1.29-8.45,8.36-8.79,17.33c-.69,10,1.55,16.72,6.72,20.17s10.52,3.71,16.03.78c5.52-2.93,8.62-9.05,9.31-18.36h0Z" fill="#879396"></path><path class="cls-8" d="M360.47,48.61l3.1.52s1.38,4.83,4.14,14.48,6.21,21.89,10.34,36.72c4.14,14.83,8.45,30.34,12.93,46.55,4.48,16.2,8.45,31.29,11.89,45.25s5.69,24.57,6.72,31.81c-.69,4.14-2.24,8.62-4.65,13.45s-4.48,10.08-6.21,15.77-1.9,12.07-.52,19.14,5.52,14.74,12.41,23.01c.69.69,1.21,1.9,1.55,3.62s0,2.93-1.03,3.62c-3.45.69-6.81,2.41-10.08,5.17s-6.64,5.26-10.08,7.5-7.07,3.1-10.86,2.59-7.76-3.53-11.89-9.05c-3.45-4.48-5.52-9.74-6.21-15.77s.34-11.81,3.1-17.33,7.41-9.65,13.96-12.41c5.17-2.07,7.84-4.91,8.02-8.53s.43-11.98.78-25.08c-.34-2.41-.78-5.43-1.29-9.05l-.78-5.43c-5.17-30.34-9.65-58.1-13.45-83.26-3.79-25.17-6.72-45.34-8.79-60.51s-3.1-22.76-3.1-22.76v-.02ZM399.26,291.68c.34-8.96-2.07-15.08-7.24-18.36s-10.52-3.71-16.03-1.29-8.45,8.1-8.79,17.07c-.69,10,1.55,16.72,6.72,20.17s10.52,3.71,16.03.78c5.52-2.93,8.62-9.05,9.31-18.36h0Z" fill="url(#1777685730301-8364730_linear-gradient-2)"></path><path class="cls-7" d="M409.08,304.1c-.69,0-.86-1.64-.52-4.91s1.21-4.74,2.59-4.4c4.14.69,5.95,2.76,5.43,6.21s-3.02,4.48-7.5,3.1Z" fill="url(#1777685730301-8364730_linear-gradient-3)"></path><path class="cls-20" d="M70.52,229.92l61.9,52.95s-.37,3.85-1.12,11.56-3.6,15.91-8.58,24.61-13.67,14.54-26.1,17.53c-.5-4.47-.87-9.45-1.12-14.92s-.37-8.2-.37-8.2c0,0-1.86.99-5.59,2.98s-8.82,2.49-15.29,1.49c3.48-6.46,5.59-13.3,6.34-20.51s1.12-10.81,1.12-10.81c0,0-1.12,1.24-3.36,3.73s-6.84,4.23-13.8,5.22c2.98-8.95,4.85-18.52,5.59-28.71s.99-18.89.75-26.1c-.25-7.21-.37-10.81-.37-10.81h0ZM338.99,295.55c-6.96-.99-11.56-2.73-13.8-5.22s-3.36-3.73-3.36-3.73c0,0,.37,3.6,1.12,10.81s2.86,14.05,6.34,20.51c-6.46.99-11.56.5-15.29-1.49s-5.59-2.98-5.59-2.98c0,0-.12,2.73-.37,8.2s-.62,10.44-1.12,14.92c-12.43-2.98-21.13-8.82-26.1-17.53s-7.83-16.9-8.58-24.61-1.12-11.56-1.12-11.56l62.64-52.95s-.25,3.6-.75,10.81c-.5,7.21-.37,15.91.37,26.1s2.61,19.76,5.59,28.71h.02Z" fill="#e68c00"></path><path class="cls-9" d="M201.78,51.11c43.77,0,76.14,15.84,97.09,47.5,20.95,31.67,30.03,70.32,27.24,115.95-.93,18.63-5.12,40.98-12.58,67.05-4.66,15.83-13.27,30.97-25.85,45.4-12.57,14.44-26.54,26.31-41.91,35.62s-30.04,13.97-44.01,13.97-28.64-4.66-44-13.97c-15.37-9.31-29.34-21.19-41.91-35.62-12.57-14.44-21.19-29.57-25.84-45.4-7.45-26.08-11.64-48.43-12.57-67.06-2.79-45.63,6.29-84.28,27.25-115.95,20.96-31.66,53.32-47.5,97.09-47.49h0Z" fill="#ffc940"></path><path class="cls-14" d="M291.17,178.94c-5.52-6.9-12.41-11.29-20.69-13.19-8.27-1.9-16.12-2.15-23.53-.78s-12.84,3.45-16.29,6.21c-2.07,1.72-2.41,4.05-1.03,6.98s3.96,3.71,7.76,2.33c6.55-2.76,14.57-3.88,24.05-3.36s19.05,3.53,28.7,9.05c1.72,1.03,2.84.78,3.36-.78s-.26-3.71-2.33-6.46ZM112.23,178.94c5.52-6.9,12.41-11.29,20.69-13.19s16.12-2.15,23.53-.78,12.84,3.45,16.29,6.21c2.41,1.72,2.93,4.05,1.55,6.98s-3.96,3.71-7.76,2.33c-6.9-2.76-15.08-3.88-24.57-3.36s-19.05,3.53-28.7,9.05c-1.72,1.03-2.84.78-3.36-.78s.26-3.71,2.33-6.46Z" fill="#d48100"></path><path class="cls-22" d="M201.76,303.07c2.05,0,5.72-.19,10.98-.58s11.24-.71,17.92-.96,13.1-.13,19.26.39c0,0-.71,1.48-2.12,4.43s-3.92,6.42-7.51,10.4-8.54,7.45-14.83,10.4-14.19,4.43-23.7,4.43-17.72-1.48-23.89-4.43-11.04-6.42-14.64-10.4c-3.6-3.98-6.1-7.45-7.51-10.4s-2.12-4.43-2.12-4.43c6.16-.51,12.59-.64,19.26-.39s12.65.58,17.92.96,8.93.58,10.98.58Z" fill="#f0a429"></path><path class="cls-17" d="M159,306.19c15.93,1.54,30.18,2.31,42.77,2.31s26.84-.77,42.77-2.31c-6.94,6.42-15.8,10.66-26.59,12.71s-21.58,2.05-32.36,0-19.65-6.29-26.59-12.71h0Z" fill="#fff"></path><path class="cls-22" d="M218.56,268.55c2,.14,3.13.93,3.39,2.37s-.49,2.81-2.24,4.11-4.58,2.79-8.49,4.47-7.1,2.49-9.59,2.44-5.62-.99-9.4-2.79-6.52-3.3-8.21-4.49c-2.17-1.1-3.13-2.29-2.86-3.58s1.36-2.1,3.28-2.43c2.48.06,5.05.59,7.7,1.61s5.98,1.66,9.99,1.95c3.44-.11,6.44-.64,9-1.59s5.03-1.63,7.43-2.05v-.02Z" fill="#f0a429"></path><path class="cls-9" d="M82.27,199.76c2.48,5.96,5.59,14.65,9.31,26.08s5.09,21.61,4.1,30.55c0,3.48-1.61,6.46-4.84,8.94s-6.71,3.1-10.43,1.86-6.83-5.84-9.31-13.78c-.99-4.97-3.73-11.8-8.2-20.49s-6.21-19.25-5.22-31.66c.5-8.94,2.61-13.54,6.33-13.78,3.72-.24,7.57,1.24,11.55,4.47s6.21,5.84,6.71,7.82h0Z" fill="#ffc940"></path><path class="cls-2" d="M66.24,196.41c3.72,1.86,5.82,4.42,6.28,7.68s2.56,7.68,6.28,13.27c3.72,4.66,3.96,8.61.69,11.87s-3.03,7.22.69,11.87c5.59,5.59,5.82,6.99.7,4.19s-9.08-6.99-11.87-12.57c-2.79-6.52-4.88-14.67-6.28-24.45s-.23-13.74,3.5-11.87h.01Z" fill="url(#1777685730301-8364730_radial-gradient-2)"></path><path class="cls-13" d="M66.24,196.41c3.72,1.86,5.82,4.42,6.28,7.68s2.56,7.68,6.28,13.27c3.72,4.66,3.96,8.61.69,11.87s-3.03,7.22.69,11.87c5.59,5.59,5.82,6.99.7,4.19s-9.08-6.99-11.87-12.57c-2.79-6.52-4.88-14.67-6.28-24.45s-.23-13.74,3.5-11.87h.01Z" fill="#fab937"></path><path class="cls-21" d="M65.74,196.21c3.6,1.8,5.78,4.37,6.55,7.71s2.95,7.71,6.55,13.1c-3.6-4.88-6.49-8.93-8.67-12.14s-3.79-4.82-4.82-4.82-1.8,2.57-2.31,7.71c-.51-3.6-.64-6.61-.39-9.05s1.28-3.27,3.08-2.5h0Z" fill="#f2a92c"></path><path class="cls-9" d="M345.64,200.59c.93,13.04-.7,23.98-4.89,32.83s-7.22,15.6-9.08,20.26c-2.79,12.11-7.45,17-13.97,14.67s-9.78-6.29-9.78-11.88c-.93-9.31.47-19.56,4.19-30.74,3.73-11.18,6.52-20.03,8.38-26.55,1.86-2.79,6.29-6.52,13.27-11.18s10.94-.47,11.88,12.57v.02Z" fill="#ffc940"></path><path class="cls-1" d="M333.96,232.8c-1.54,3.85-3.85,7.13-6.94,9.83s-5.33,4.05-6.74,4.05-.32-2.06,3.28-6.17c2.31-2.57,3.02-4.95,2.12-7.13s-1.86-4.56-2.89-7.13-.39-5.78,1.93-9.63c3.6-5.14,5.78-9.44,6.55-12.91s2.95-5.97,6.55-7.51c2.31-1.03,3.47.64,3.47,5.01s-.71,9.63-2.12,15.8-3.15,11.43-5.2,15.8h0Z" fill="url(#1777685730301-8364730_radial-gradient-3)"></path><path class="cls-13" d="M333.96,232.8c-1.54,3.85-3.85,7.13-6.94,9.83s-5.33,4.05-6.74,4.05-.32-2.06,3.28-6.17c2.31-2.57,3.02-4.95,2.12-7.13s-1.86-4.56-2.89-7.13-.39-5.78,1.93-9.63c3.6-5.14,5.78-9.44,6.55-12.91s2.95-5.97,6.55-7.51c2.31-1.03,3.47.64,3.47,5.01s-.71,9.63-2.12,15.8-3.15,11.43-5.2,15.8h0Z" fill="#fab937"></path><path class="cls-21" d="M340.52,207.76c-.26-5.14-.96-7.71-2.12-7.71s-2.83,1.61-5.01,4.82-5.07,7.26-8.67,12.14c3.6-5.39,5.78-9.76,6.55-13.1s2.96-5.91,6.55-7.71c1.8-.77,2.83.06,3.08,2.51s.13,5.46-.39,9.06h.01Z" fill="#f2a92c"></path><path class="cls-18" d="M290.38,212.38c-1.8,6.94-5.52,11.43-11.17,13.49s-12.01,2.83-19.07,2.31-13.68-1.16-19.84-1.93-10.53-.64-13.1.39c-.26-11.3,2.5-20.1,8.28-26.39s12.59-10.02,20.42-11.17,15.09.19,21.77,4.05c6.68,3.85,10.92,10.27,12.71,19.26h0Z" fill="#edebea"></path><path class="cls-6" d="M256.34,191.89c4.96,0,9.19,1.8,12.68,5.41s5.24,7.89,5.24,12.85-1.75,9.19-5.24,12.68c-3.5,3.5-7.72,5.24-12.68,5.24s-9.19-1.75-12.68-5.24c-3.5-3.5-5.24-7.72-5.24-12.68s1.75-9.25,5.24-12.85,7.72-5.41,12.68-5.41h0Z" fill="url(#1777685730301-8364730_linear-gradient-4)"></path><path class="cls-10" d="M246.06,209.82c0-3.36,1.05-5.88,3.15-7.56s4.49-2.52,7.18-2.52,5.08.84,7.18,2.52,3.15,4.2,3.15,7.56c0,3.53-1.05,6.17-3.15,7.93s-4.49,2.64-7.18,2.64-5.08-.88-7.18-2.64-3.15-4.41-3.15-7.93Z" fill="#1a1626"></path><path class="cls-18" d="M244.74,204.66c0-1.51.59-2.56,1.76-3.15s2.39-.59,3.65,0,1.97,1.64,2.14,3.15c0,1.85-.63,3.07-1.89,3.65s-2.52.59-3.78,0-1.89-1.81-1.89-3.65h.01Z" fill="#edebea"></path><path class="cls-23" d="M228.77,213.55c2.57-10.28,7.13-17.34,13.68-21.19s13.55-5.39,21-4.62,13.81,3.41,19.08,7.9,7.9,10.09,7.9,16.77c-3.34-7.97-8.86-13.55-16.57-16.77s-15.74-3.47-24.09-.77-15.35,8.93-21.01,18.69h.01Z" fill="#bd751b"></path><path class="cls-18" d="M113.15,212.4c1.8-8.99,6.04-15.41,12.71-19.26s13.93-5.2,21.77-4.05,14.64,4.88,20.42,11.17,8.54,15.09,8.28,26.39c-2.57-1.03-6.94-1.16-13.1-.39s-12.78,1.41-19.84,1.93-13.42-.26-19.07-2.31-9.38-6.55-11.17-13.49h0Z" fill="#edebea"></path><path class="cls-4" d="M165.28,210.12c0,2.49-.47,4.83-1.41,7.01s-2.23,4.1-3.89,5.76-3.58,2.95-5.76,3.89-4.52,1.41-7.01,1.41-4.83-.47-7.01-1.41-4.1-2.23-5.76-3.89-2.95-3.58-3.89-5.76-1.41-4.52-1.41-7.01.47-4.83,1.41-7.01,2.23-4.1,3.89-5.76,3.58-2.95,5.76-3.89,4.52-1.41,7.01-1.41,4.83.47,7.01,1.41,4.1,2.23,5.76,3.89,2.95,3.58,3.89,5.76,1.41,4.52,1.41,7.01Z" fill="url(#1777685730301-8364730_linear-gradient-5)"></path><path class="cls-10" d="M157.45,209.82c0,3.53-1.05,6.17-3.15,7.93s-4.49,2.64-7.18,2.64-5.08-.88-7.18-2.64-3.15-4.41-3.15-7.93,1.05-5.88,3.15-7.56,4.49-2.52,7.18-2.52,5.08.84,7.18,2.52,3.15,4.2,3.15,7.56Z" fill="#1a1626"></path><path class="cls-18" d="M158.85,204.66c0,1.85-.63,3.07-1.89,3.65s-2.52.59-3.78,0-1.89-1.81-1.89-3.65c.17-1.51.88-2.56,2.14-3.15s2.48-.59,3.65,0,1.76,1.64,1.76,3.15h.01Z" fill="#edebea"></path><path class="cls-23" d="M174.77,213.58c-5.65-9.76-12.65-15.99-21-18.69s-16.37-2.44-24.08.77-13.23,8.8-16.57,16.76c0-6.68,2.63-12.27,7.9-16.76s11.62-7.13,19.07-7.9,14.45.77,21,4.62,11.11,10.92,13.68,21.19h0Z" fill="#bd751b"></path><path class="cls-20" d="M120.74,130.76c-2.79-16.76,2.1-28.17,14.67-34.22s29.1-7.45,49.59-4.19,41.44,10.48,62.86,21.66c21.42,11.18,39.34,25.85,53.78,44.01s21.18,39.35,20.25,63.56c-7.45-15.83-16.29-27.47-26.54-34.93-10.24-7.45-21.88-13.97-34.92-19.56-18.63,2.79-42.61,2.09-71.94-2.1s-51.92-15.6-67.74-34.23h0Z" fill="#e68c00"></path><path class="cls-20" d="M58.62,162.68c-.4-13.25,1.41-26.39,5.42-39.44s9.84-24.19,17.46-33.42c7.63-9.23,16.06-14.85,25.29-16.86,8.83,19.27,13.85,35.33,15.05,48.17s.2,23.89-3.01,33.12-7.23,18.27-12.04,27.1-8.93,18.97-12.34,30.41-4.72,25.99-3.91,43.66c-3.61-4.42-6.92-9.63-9.94-15.66s-5.22-11.34-6.62-15.96-2.11-6.92-2.11-6.92l-3.01,4.22c-5.22-18.87-7.23-34.72-6.02-47.57,1.21-12.85,1.81-19.27,1.81-19.27,0,0-.8.8-2.41,2.41s-2.81,3.61-3.61,6.02h0Z" fill="#e68c00"></path><path class="cls-19" d="M69.82,216.18c-3.1-12.07-4.74-23.19-4.91-33.36s.09-18.27.78-24.31,1.03-9.05,1.03-9.05c0,0-1.21,1.38-3.62,4.14s-3.96,5.86-4.65,9.31c0-18.62,1.98-33.7,5.95-45.25s9.22-20.69,15.77-27.41,13.62-12.33,21.2-16.81c9.65,13.45,15.52,25.6,17.58,36.46,2.07,10.86,1.64,21.12-1.29,30.77s-6.98,19.14-12.15,28.44-10.17,18.88-15,28.7-7.93,20.43-9.31,31.81c-2.41-3.1-4.31-7.59-5.69-13.45s-2.07-8.79-2.07-8.79l-1.29,2.07c-.86,1.38-1.64,3.62-2.33,6.72h0Z" fill="#f9a307"></path><path class="cls-24" d="M63.66,143.52c0-11.93,2.62-24.6,7.84-38.02,5.22-13.42,15.11-24.04,29.65-31.87,5.59,16.78,7.26,33.28,5.02,49.49-2.24,16.21-6.25,31.31-12.04,45.29-5.78,13.98-11.47,26.19-17.07,36.62-4.47-24.61-6.05-43.15-4.74-55.64s1.96-18.73,1.96-18.73c0,0-1.49,1.49-4.48,4.47s-5.03,5.78-6.15,8.39h.01Z" fill="#ffb80d"></path><path class="cls-20" d="M181.48,31.67c45.32-2.9,82.21,6.02,110.66,26.75,28.45,20.73,45.57,46.28,51.36,76.66,5.79,30.38-1.44,59.55-21.69,87.51-4.82-17.36-12.78-29.89-23.87-37.61-11.09-7.71-23.39-14.46-36.89-20.25-18.32,1.93-40.26,1.45-65.81-1.44s-47.73-11.57-66.54-26.03c-18.81-14.46-27.73-36.64-26.76-66.54,2.89-5.79,9.88-13.26,20.97-22.42,11.09-9.16,30.62-14.71,58.58-16.64h0Z" fill="#e68c00"></path><path class="cls-19" d="M181.53,27.93c21.38-1.03,41.55,1.47,60.51,7.5,18.96,6.03,35.86,14.74,50.68,26.12s26.55,24.65,35.17,39.82c8.62,15.17,13.1,31.63,13.45,49.39s-4.65,35.94-15,54.56c-6.9-11.72-16.38-21.81-28.44-30.25-12.07-8.45-24.31-15.34-36.72-20.69-12.41-5.34-22.84-9.31-31.29-11.89s-12.67-3.88-12.67-3.88c0,0,2.33,1.21,6.98,3.62s9.65,5.26,15,8.53,9.05,5.95,11.12,8.02c-19.31,1.03-38.01-.17-56.11-3.62s-34.31-8.96-48.61-16.55c-14.31-7.59-25.51-17.07-33.62-28.44-8.1-11.38-11.64-24.48-10.6-39.31,1.38-2.76,5.17-7.5,11.38-14.22s15.08-13.02,26.63-18.88,25.6-9.14,42.15-9.83h-.01Z" fill="#f9a307"></path><path class="cls-24" d="M181.53,27.93c26.89-1.72,51.11.86,72.66,7.76,21.55,6.9,39.56,17.33,54.04,31.29s24.31,30.6,29.48,49.91c-4.83,2.07-10.43,5-16.81,8.79s-15.17,6.64-26.38,8.53-25.94,1.47-44.22-1.29c-18.27-2.76-41.55-9.31-69.82-19.65,6.21,7.24,13.19,13.71,20.95,19.39s14.48,10.08,20.17,13.19l8.53,4.65c-18.62,0-36.29-2.15-53.01-6.46-16.72-4.31-31.2-10.17-43.44-17.58-12.24-7.41-21.29-15.95-27.15-25.6s-7.59-19.65-5.17-30c1.38-4.83,4.91-10.34,10.6-16.55s14.22-11.89,25.6-17.07,26.03-8.27,43.96-9.31h0Z" fill="#ffb80d"></path><path class="cls-20" d="M216.18,94.64c11.72,11.03,25.17,20.6,40.34,28.7,15.17,8.1,31.38,13.27,48.61,15.52,17.24,2.24,34.82.09,52.75-6.46s35.68-18.96,53.27-37.24c-4.83,22.76-12.58,40.51-23.27,53.27s-22.93,21.38-36.72,25.86-28.01,5.52-42.67,3.1-28.53-7.5-41.63-15.26-24.22-17.5-33.36-29.22-14.91-24.48-17.33-38.27h.01Z" fill="#e68c00"></path><path class="cls-19" d="M216.18,94.64c14.48,8.62,28.01,16.03,40.6,22.24,12.58,6.21,25.86,10.08,39.82,11.64,13.96,1.55,30-.17,48.1-5.17s40.25-14.39,66.46-28.19c-6.21,21.03-15.43,37.49-27.67,49.39-12.24,11.89-26.12,19.57-41.63,23.01s-31.29,2.93-47.32-1.55-30.94-12.76-44.74-24.82c-13.79-12.07-25-27.58-33.62-46.55h0Z" fill="#f9a307"></path><path class="cls-24" d="M216.18,94.64c-.69-1.38,1.03-5,5.17-10.86s8.96-12.41,14.48-19.65,10.52-13.62,15-19.14,6.72-8.27,6.72-8.27c12.07,4.48,21.64,9.74,28.7,15.77s12.93,12.33,17.58,18.88,9.31,12.58,13.96,18.1,10.52,9.74,17.58,12.67,16.55,4.05,28.44,3.36,27.67-4.14,47.32-10.34c-8.27,20.69-20.6,36.12-36.98,46.29s-34.39,15.17-54.04,15-38.7-5.43-57.15-15.77c-18.45-10.34-34.05-25.69-46.8-46.03h.02Z" fill="#ffb80d"></path><path class="cls-19" d="M411.15,95.16c-18.96,17.93-35.94,30-50.94,36.2-15,6.21-28.19,8.62-39.56,7.24-11.38-1.38-20.86-4.65-28.44-9.83s-13.19-10.08-16.81-14.74l-5.43-6.98s1.98,1.72,5.95,5.17,9.91,6.9,17.84,10.34c7.93,3.45,17.67,5.6,29.22,6.46s24.65-1.12,39.31-5.95c14.65-4.83,30.94-14.14,48.87-27.93v.02Z" fill="#f9a307"></path><path class="cls-15" d="M482,271.52c-.69,2.41.69,4.05,4.14,4.91s7.24,1.47,11.38,1.81c2.76,0,3.71.86,2.84,2.59s-2.84,2.59-5.95,2.59c-15.17.69-26.55-.6-34.13-3.88-7.59-3.28-13.19-7.76-16.81-13.45s-6.98-11.81-10.08-18.36c-3.1-6.55-7.67-12.84-13.71-18.88s-15.43-11.12-28.19-15.26c-21.38-22.07-40.34-41.55-56.89-58.44s-29.56-30.17-39.05-39.82-14.22-14.48-14.22-14.48l-.52-1.55,106.54,85.33h3.1c9.65,8.96,16.55,15.6,20.69,19.91s7.33,7.33,9.57,9.05,4.91,3.1,8.02,4.14c1.03.34,1.81,1.98,2.33,4.91s1.72,5.6,3.62,8.02,5.6,2.93,11.12,1.55c7.93-1.72,15.17-1.38,21.72,1.03s11.38,6.81,14.48,13.19,3.1,14.74,0,25.08h0ZM448.91,263.24c6.55,6.9,12.67,9.57,18.36,8.02s9.48-5.34,11.38-11.38.09-11.98-5.43-17.84c-5.52-6.21-11.21-8.45-17.07-6.72s-9.83,5.34-11.89,10.86c-2.07,5.52-.52,11.21,4.65,17.07h0Z" fill="#879396"></path><path class="cls-5" d="M482.52,269.96c-.69,2.76.69,4.48,4.14,5.17s7.76,1.38,12.93,2.07c1.03.34,1.47,1.29,1.29,2.84s-.95,2.33-2.33,2.33c-16.55,1.03-28.79,0-36.72-3.1s-13.71-7.5-17.33-13.19-6.9-11.89-9.83-18.62-7.41-13.19-13.45-19.39c-6.03-6.21-15.77-11.38-29.22-15.52-21.03-22.07-39.91-41.63-56.63-58.7s-30-30.43-39.82-40.08-14.74-14.48-14.74-14.48l1.03-1.55,101.88,87.92,7.24-2.07c10,9.31,17.07,16.03,21.2,20.17s7.24,6.98,9.31,8.53,4.65,3.02,7.76,4.4c1.38.34,2.24,1.98,2.59,4.91s1.47,5.6,3.36,8.02,5.6,2.93,11.12,1.55c7.93-1.72,15.26-1.38,21.98,1.03s11.55,6.81,14.48,13.19,2.84,14.57-.26,24.57h.02ZM449.94,262.21c6.21,6.9,12.24,9.48,18.1,7.76s9.74-5.52,11.64-11.38-.09-11.89-5.95-18.1c-5.52-5.86-11.21-7.93-17.07-6.21s-9.83,5.34-11.89,10.86c-2.07,5.52-.34,11.21,5.17,17.07Z" fill="url(#1777685730301-8364730_linear-gradient-6)"></path><path class="cls-15" d="M390.98,183.6c-1.38,1.03-3.19,2.24-5.43,3.62s-3.36,2.07-3.36,2.07l-100.33-91.54,1.55-1.03,104.47,86.88h3.1,0Z" fill="#879396"></path><path class="cls-3" d="M388.91,204.28c-3.1-3.45-2.93-6.72.52-9.83s6.72-2.93,9.83.52,3.02,6.81-.26,10.08-6.64,3.02-10.08-.78h0Z" fill="url(#1777685730301-8364730_linear-gradient-7)"></path><path class="cls-24" d="M72.92,80.16s1.55-1.12,4.65-3.36,7.15-3.79,12.15-4.65,10.77.95,17.33,5.43l-34.13,2.59h0Z" fill="#ffb80d"></path><path class="cls-24" d="M57.41,108.61s1.64-2.67,4.91-8.02c3.27-5.35,8.45-10.77,15.52-16.29s16.29-8.45,27.67-8.79c0,0-48.1,33.1-48.1,33.1ZM242.04,32.06s2.93.09,8.79.26c5.86.17,13.36,1.47,22.5,3.88s18.88,6.46,29.22,12.15,20.17,14.22,29.48,25.6l-89.99-41.89h0Z" fill="#ffb80d"></path><path class="cls-24" d="M98.78,85.33l-1.55-8.53c-1.03-5.69-1.03-12.41,0-20.17s4.83-15.08,11.38-21.98c0,0-9.83,50.68-9.83,50.68Z" fill="#ffb80d"></path><path class="cls-24" d="M100.33,77.06s.43-3.45,1.29-10.34,3.45-15,7.76-24.31,11.64-17.24,21.98-23.79l-31.03,58.44ZM209.45,32.06s3.45-.78,10.34-2.33,15.6-2.67,26.12-3.36c10.52-.69,21.38.17,32.58,2.59s21.12,7.76,29.74,16.03l-98.78-12.93h0ZM115.85,54.82s2.24-2.76,6.72-8.27c4.48-5.52,10.86-11.89,19.14-19.14s18.01-13.62,29.22-19.14S194.46,0,207.9,0l-92.06,54.82h.01Z" fill="#ffb80d"></path><path class="cls-24" d="M134.98,48.1l6.98-6.98c4.65-4.65,11.72-10,21.2-16.03s21.38-10.95,35.68-14.74c14.31-3.79,31.29-4.48,50.94-2.07l-114.81,39.82h0Z" fill="#ffb80d"></path><path class="cls-24" d="M154.63,38.79s2.76-1.29,8.27-3.88,12.84-5.43,21.98-8.53c9.14-3.1,19.14-5.78,30-8.02s21.98-3.19,33.36-2.84c11.38.34,21.89,2.93,31.55,7.76l-125.16,15.52h0ZM104.47,66.72s1.12-2.33,3.36-6.98,5.52-10.26,9.83-16.81,9.65-12.84,16.03-18.88c6.38-6.04,13.88-10.26,22.5-12.67l-24.31,30-27.41,25.34Z" fill="#ffb80d"></path></g></svg>