<svg data-name="Layer 1" xmlns="http://www.w3.org/2000/svg" style="" viewBox="0 0 512.31 512"><g class="nc-icon-wrapper"><defs><linearGradient id="1776581828213-5698235_linear-gradient" x1="256.35" y1="945.4" x2="256.35" y2="531.1" gradientTransform="translate(0 -512)" gradientUnits="userSpaceOnUse"><stop offset="0" stop-color="#8d9ca3"></stop><stop offset=".28" stop-color="#9cabb1"></stop><stop offset=".67" stop-color="#abb9bf"></stop><stop offset="1" stop-color="#b0bec4"></stop></linearGradient><linearGradient id="1776581828213-5698235_linear-gradient-2" x1="256.35" y1="947.04" x2="256.35" y2="512" gradientTransform="translate(0 -512)" gradientUnits="userSpaceOnUse"><stop offset="0" stop-color="#64737a"></stop><stop offset=".82" stop-color="#a2b0b6"></stop><stop offset="1" stop-color="#b0bec4"></stop></linearGradient><linearGradient id="1776581828213-5698235_linear-gradient-3" x1="256.35" y1="1015.27" x2="256.35" y2="921.38" gradientTransform="translate(0 -512)" gradientUnits="userSpaceOnUse"><stop offset="0" stop-color="#64737a"></stop><stop offset=".22" stop-color="#6a7980"></stop><stop offset=".51" stop-color="#7c8a91"></stop><stop offset=".86" stop-color="#99a6ac"></stop><stop offset="1" stop-color="#a7b4ba"></stop></linearGradient><radialGradient id="1776581828213-5698235_radial-gradient" cx="61.48" cy="927.39" fx="61.48" fy="927.39" r="34.39" gradientTransform="translate(0 -512)" gradientUnits="userSpaceOnUse"><stop offset="0" stop-color="#ff70a6"></stop><stop offset=".29" stop-color="#ff96bd"></stop><stop offset=".58" stop-color="#ffb5d0"></stop><stop offset=".83" stop-color="#ffc8dc"></stop><stop offset="1" stop-color="#ffcfe0"></stop></radialGradient><radialGradient id="1776581828213-5698235_radial-gradient-2" cx="-452.12" cy="909.87" fx="-452.12" fy="909.87" r="34.42" gradientTransform="matrix(-1 0 0 1 .2 -512)" gradientUnits="userSpaceOnUse"><stop offset="0" stop-color="#f25252"></stop><stop offset=".19" stop-color="#f35c5c"></stop><stop offset=".52" stop-color="#f87979"></stop><stop offset=".94" stop-color="#fea6a6"></stop><stop offset="1" stop-color="#ffadad"></stop></radialGradient><radialGradient id="1776581828213-5698235_radial-gradient-3" cx="-473.56" cy="656.78" fx="-473.56" fy="656.78" r="34.39" gradientTransform="rotate(-36.29 -182.084 -629.998) scale(.84)" gradientUnits="userSpaceOnUse"><stop offset="0" stop-color="#ffbc70"></stop><stop offset=".29" stop-color="#ffd596"></stop><stop offset=".58" stop-color="#ffe9b5"></stop><stop offset=".83" stop-color="#fff6c8"></stop><stop offset="1" stop-color="#fffacf"></stop></radialGradient><radialGradient id="1776581828213-5698235_radial-gradient-4" cx="487.37" cy="464.37" fx="487.37" fy="464.37" r="28.93" gradientTransform="rotate(73.83 340.88 256.218)" gradientUnits="userSpaceOnUse"><stop offset="0" stop-color="#ab57ff"></stop><stop offset=".31" stop-color="#b582ff"></stop><stop offset="1" stop-color="#cfedff"></stop></radialGradient><linearGradient id="1776581828213-5698235_linear-gradient-4" x1="-487.21" y1="1180.88" x2="24.79" y2="1180.88" gradientTransform="matrix(.33 0 0 .46 333.4 -162.26)" gradientUnits="userSpaceOnUse"><stop offset="0" stop-color="#778991"></stop><stop offset="1" stop-color="#778991" stop-opacity="0"></stop></linearGradient><linearGradient id="1776581828213-5698235_linear-gradient-5" x1="-487.21" y1="1406.42" x2="24.79" y2="1406.42" gradientTransform="matrix(.33 0 0 .46 333.4 -388.83)" gradientUnits="userSpaceOnUse"><stop offset="0" stop-color="#b0bec4" stop-opacity="0"></stop><stop offset="1" stop-color="#b0bec4"></stop></linearGradient></defs><path class="cls-11" d="M420.65,411.02H92.05v-234.71c0-30.2,5.91-55.95,17.74-77.24s27.57-38.39,47.22-51.31c19.65-12.92,41.12-21.47,64.41-25.65,23.29-4.18,46.58-4.18,69.87,0,23.29,4.18,44.76,12.74,64.41,25.65s35.39,30.02,47.22,51.31c11.83,21.29,17.74,47.03,17.74,77.24v234.71Z" fill="url(#1776581828213-5698235_linear-gradient)"></path><path class="cls-8" d="M111.15,411.02h-33.84v-239.62c0-28.38,5-53.31,15.01-74.78s23.56-39.3,40.67-53.49c17.1-14.19,36.3-24.93,57.59-32.2S233.79,0,256.35,0s44.49,3.64,65.77,10.92,40.48,18.01,57.59,32.2c17.1,14.19,30.66,32.02,40.67,53.49,10.01,21.47,15.01,46.4,15.01,74.78v239.62h-33.84v-239.62c0-23.65-4.09-44.12-12.28-61.41-8.19-17.29-19.29-31.48-33.3-42.58s-29.57-19.38-46.67-24.84-34.75-8.19-52.95-8.19-35.84,2.73-52.95,8.19-32.66,13.74-46.67,24.84-25.11,25.29-33.3,42.58-12.28,37.75-12.28,61.41v239.62Z" fill="url(#1776581828213-5698235_linear-gradient-2)"></path><path class="cls-4" d="M122.07,411.02h-4.37v-239.62c0-29.84,6.73-54.49,20.2-73.96,13.46-19.47,30.84-33.84,52.13-43.12s43.39-13.92,66.32-13.92,45.03,4.64,66.32,13.92c21.29,9.28,38.66,23.65,52.13,43.12,13.46,19.47,20.2,44.12,20.2,73.96v239.62h-4.37v-239.62c0-29.11-6.55-52.95-19.65-71.51-13.1-18.56-29.93-32.39-50.49-41.48s-41.94-13.65-64.14-13.65-43.58,4.55-64.14,13.65-37.39,22.93-50.49,41.48-19.65,42.39-19.65,71.51v239.62Z" fill="#778991"></path><path class="cls-7" d="M461.04,409.38c5.82,0,8.73,3.28,8.73,9.83v84.06H42.92v-84.06c0-6.55,2.91-9.83,8.73-9.83h409.38Z" fill="url(#1776581828213-5698235_linear-gradient-3)"></path><path class="cls-12" d="M298.38,190.5l1.64,2.18-3.82,2.73,1.09,2.18c-.73.73-1.64,1.18-2.73,1.36s-1.64.27-1.64.27l1.64,2.18c-.73.73-2,1.09-3.82,1.09h-2.73l.55,2.73c-.36.73-2.91-.64-7.64-4.09s-10.37-7.82-16.92-13.1-13.1-10.64-19.65-16.1-12.01-10.1-16.38-13.92l-6.55-5.73-14.19,5.46-1.09-2.73c0-.73.45-1.55,1.36-2.46s1.73-1.55,2.46-1.91c-.73-4,1.18-6.55,5.73-7.64s8.28,1.27,11.19,7.1c0,.73,2.73,1.64,8.19,2.73,1.09-2.55,3.28-5.91,6.55-10.1s7.64-8.64,13.1-13.37c7.28-8.01,11.92-15.19,13.92-21.56,2-6.37,3-9.55,3-9.55,2.18,1.46,3.73,3.18,4.64,5.19s1.36,3,1.36,3c1.82-3.28,3-5.91,3.55-7.91s.82-3,.82-3c2.55,2.18,4.28,4.64,5.19,7.37s1.36,4.09,1.36,4.09c1.09-1.82,1.82-3.09,2.18-3.82s.55-1.09.55-1.09c1.46,2.55,2.46,4.82,3,6.82s.82,3,.82,3l2.18,1.64.55,9.28,1.64,2.18-1.64,8.73,1.64,2.73-3.82,8.73,1.09,2.18-6.55,9.28,1.64,2.18s-1.55,1.09-4.64,3.28-7,3.91-11.74,5.19c-4.73,1.27-9.83,1-15.28-.82,4.37,4.73,9.19,8.1,14.46,10.1s9.73,3.28,13.37,3.82,5.46.82,5.46.82l1.09,2.73h-4.37c2.18.73,3.91,1.18,5.19,1.36s1.91.27,1.91.27l1.09,2.73h-2.18c-1.46,0-2.55.18-3.28.55,1.82.36,3.18.73,4.09,1.09s1.36.55,1.36.55Z" fill="#555f69"></path><path class="cls-4" d="M300.01,192.68c-1.09,1.82-2.91,3.09-5.46,3.82.73.36,1.36.64,1.91.82s.82.27.82.27c-1.09,1.46-3.09,2.18-6,2.18,1.09.36,1.91.73,2.46,1.09s.82.55.82.55c-1.46,1.82-4.73,2.55-9.83,2.18,1.46.36,2.46.73,3,1.09s.82.55.82.55c-1.46,1.46-4.91,1.64-10.37.55s-10.37-4.18-14.74-9.28c-2.91,0-6.37-.18-10.37-.55-10.92-1.46-18.38-4.64-22.38-9.55s-6.64-9.83-7.91-14.74-2.82-8.1-4.64-9.55c-2.18-1.46-3.82-3.09-4.91-4.91h-2.46c-.91,0-1.91.18-3,.55h-.55c0-.73.45-1.55,1.36-2.46s1.73-1.73,2.46-2.46c-.36-4,1.64-6.55,6-7.64s8.01,1.46,10.92,7.64c.36.73,3.09,1.64,8.19,2.73,1.09-2.91,3.28-6.37,6.55-10.37s7.64-8.37,13.1-13.1c7.64-8.01,12.37-15.19,14.19-21.56s2.73-9.55,2.73-9.55c3.28,2.18,5.09,5.09,5.46,8.73,1.82-3.28,3.09-6,3.82-8.19s1.09-3.28,1.09-3.28c3.64,3.28,5.64,7.46,6,12.55,1.09-1.82,1.91-3.28,2.46-4.37l.82-1.64c2.55,3.64,3.46,7.64,2.73,12.01.73-.73,1.27-1.46,1.64-2.18s.55-1.09.55-1.09c1.82,4.73,1.82,9.28,0,13.65.73-.36,1.27-.82,1.64-1.36s.55-.82.55-.82c1.46,4.37.18,9.1-3.82,14.19,1.09-.73,2-1.36,2.73-1.91s1.09-.82,1.09-.82c-.73,4.73-3.28,9.28-7.64,13.65,1.46-.73,2.64-1.36,3.55-1.91s1.36-.82,1.36-.82c-1.09,5.09-4.18,9.46-9.28,13.1,1.09-.36,2.09-.73,3-1.09s1.36-.55,1.36-.55c-.73,3.28-3.91,6.55-9.55,9.83-5.64,3.28-12.46,3.28-20.47,0,4,4.73,8.64,8.19,13.92,10.37s9.73,3.55,13.37,4.09,5.46.82,5.46.82c-.73,1.09-1.82,2-3.28,2.73,2.18.36,3.91.73,5.19,1.09s1.91.55,1.91.55c-.73,1.46-2.18,2.55-4.37,3.28,1.82.36,3.28.64,4.37.82s1.64.27,1.64.27ZM205.04,286.02v8.19h102.62v-8.19h-102.62ZM188.12,311.68v8.19h51.31v-8.19h-51.31ZM188.12,336.78v8.73h34.39v-8.73h-34.39ZM239.43,336.78v8.73h85.15v-8.73h-85.15ZM256.35,311.68v8.19h68.23v-8.19h-68.23Z" fill="#778991"></path><path class="cls-9" d="M60.94,417.57c-2.55,15.28-3.37,30.11-2.46,44.49.91,14.37,2,26.29,3.28,35.75,1.27,9.46,1.18,14.19-.27,14.19-6.55-21.47-9.64-39.21-9.28-53.22.36-14.01,1.91-24.38,4.64-31.11,2.73-6.73,4.09-10.1,4.09-10.1ZM455.03,408.84c4,7.64,7.28,17.19,9.83,28.66,2.55,11.46,4.37,22.83,5.46,34.12,1.09,11.28,1.55,20.83,1.36,28.66-.18,7.82-.82,11.74-1.91,11.74-1.09-19.29-2.91-36.66-5.46-52.13-2.55-15.47-4.73-27.84-6.55-37.12s-2.73-13.92-2.73-13.92Z" fill="#390"></path><path class="cls-15" d="M511.26,475.97c1.82,10.55,1.27,18.56-1.64,24.02-2.91,5.46-6.55,9.46-10.92,12.01H9.08c-3.28-4-6-10.19-8.19-18.56s-.36-19.29,5.46-32.75c-.36,6.19.82,12.01,3.55,17.47s5.55,10.37,8.46,14.74c-1.09-7.28-1-16.01.27-26.2,1.27-10.19,4.46-21.29,9.55-33.3-.36,10.92,1.36,21.47,5.19,31.66,3.82,10.19,7.19,19.1,10.1,26.75-.73-4-.73-8.64,0-13.92.73-5.28,2.37-11.01,4.91-17.19,0,6.55,1.36,12.74,4.09,18.56,2.73,5.82,5.55,11.1,8.46,15.83,2.18-6.55,4.82-14.28,7.91-23.2,3.09-8.92,4.46-18.1,4.09-27.57,3.64,9.1,6.19,18.38,7.64,27.84,1.09-5.46,2.55-10.73,4.37-15.83,0,7.64,1.27,15.1,3.82,22.38,2.55,7.28,4.73,13.65,6.55,19.1,1.82-6.55,4.18-14.46,7.1-23.74s4.37-17.92,4.37-25.93c4.73,12.74,6.91,25.84,6.55,39.3,1.82-4.73,3.55-9.73,5.19-15.01s2.46-10.64,2.46-16.1c2.91,6.55,5,12.74,6.28,18.56s1.91,11.1,1.91,15.83c2.55-8.01,5.55-16.92,9.01-26.75s5.19-20.01,5.19-30.57c3.64,9.83,6.28,19.01,7.91,27.57,1.64,8.55,2.27,16.28,1.91,23.2,1.46-4.37,2.73-8.92,3.82-13.65s1.64-9.46,1.64-14.19c2.55,6.55,4.37,13.28,5.46,20.2.36-5.46,1.18-11.1,2.46-16.92,1.27-5.82,3-11.46,5.19-16.92-.36,7.64.55,16.01,2.73,25.11,2.18,9.1,4.18,17.47,6,25.11,1.46-4,3.28-8.55,5.46-13.65,2.18-5.09,4.55-10.92,7.1-17.47-.36,6.55-.36,12.46,0,17.74.36,5.28.73,10.28,1.09,15.01,2.18-6.91,4.82-14.74,7.91-23.47s4.46-17.65,4.09-26.75c3.28,8.01,5.64,16.38,7.1,25.11,1.09-4.37,2.55-8.73,4.37-13.1-.36,7.64.82,15.1,3.55,22.38,2.73,7.28,5.19,13.83,7.37,19.65.36-5.46,1.91-12.01,4.64-19.65,2.73-7.64,6.28-16.74,10.64-27.29-.36,10.19.45,19.38,2.46,27.57s3.37,15.19,4.09,21.01c1.82-4.37,4.09-9.55,6.82-15.56s3.91-12.83,3.55-20.47c2.91,6.91,5,13.01,6.28,18.29,1.27,5.28,1.91,9.73,1.91,13.37,1.82-7.28,4.18-15.65,7.1-25.11,2.91-9.46,4.18-18.19,3.82-26.2,1.82,4.37,3.28,8.92,4.37,13.65,1.09,4.73,2,9.46,2.73,14.19,1.09-5.46,2.73-10.73,4.91-15.83,0,5.09.64,10.19,1.91,15.28s2.82,10.01,4.64,14.74c-.36-6.91.18-14.83,1.64-23.74,1.46-8.92,4.37-18.65,8.73-29.2-.36,10.92,1.36,21.47,5.19,31.66,3.82,10.19,7.19,19.1,10.1,26.75-.36-4-.27-8.64.27-13.92.55-5.28,2.09-11.01,4.64-17.19,0,6.55,1.36,12.74,4.09,18.56,2.73,5.82,5.55,11.1,8.46,15.83,2.18-6.91,4.82-14.74,7.91-23.47,3.09-8.73,4.46-17.83,4.09-27.29,3.64,9.1,6.19,18.38,7.64,27.84,1.09-5.46,2.55-10.73,4.37-15.83,0,7.64,1.27,15.1,3.82,22.38,2.55,7.28,4.73,13.65,6.55,19.1,1.82-6.91,4.28-14.92,7.37-24.02,3.09-9.1,4.46-17.65,4.09-25.65,5.09,13.46,7.28,27.29,6.55,41.48,1.46-4.73,3-10.01,4.64-15.83s2.46-11.64,2.46-17.47c2.55,6.55,4.37,12.74,5.46,18.56s1.64,11.1,1.64,15.83c2.91-8.01,6.46-16.92,10.64-26.75,4.18-9.83,6.1-20.01,5.73-30.57,3.64,8.37,6.37,16.19,8.19,23.47,1.82,7.28,2.91,14.01,3.28,20.2,1.09-3.28,1.91-6.73,2.46-10.37.55-3.64.82-7.1.82-10.37,2.55,6.55,4.37,13.28,5.46,20.2.36-5.46,1.18-11.1,2.46-16.92,1.27-5.82,3-11.46,5.19-16.92-.36,8.01.64,16.83,3,26.47,2.37,9.64,4.28,18.29,5.73,25.93,2.18-5.46,4.91-11.64,8.19-18.56,3.28-6.91,6.19-14.37,8.73-22.38,1.82,6.19,2.91,11.92,3.28,17.19s.36,10.1,0,14.46c2.91-5.82,5.73-12.01,8.46-18.56s4.64-13.28,5.73-20.2c2.18,9.83,3.28,18.65,3.28,26.47s-.73,14.65-2.18,20.47c2.18-2.18,4.55-4.82,7.1-7.91,2.55-3.09,5.09-6.46,7.64-10.1Z" fill="#86c400"></path><path class="cls-10" d="M71.85,407.2c6.55-2.91,12.74-3.82,18.56-2.73,5.82,1.09,6.91,5.28,3.28,12.55.36,5.46-1.18,8.82-4.64,10.1s-7.55,1.18-12.28-.27c4,4.73,6.19,9.37,6.55,13.92.36,4.55-3.09,6.82-10.37,6.82-5.82,2.91-10.1,2.91-12.83,0s-4.09-6.91-4.09-12.01c-2.55,4.37-5.55,7.28-9.01,8.73-3.46,1.46-6.82,0-10.1-4.37-4.73-2.91-6.82-6-6.28-9.28s2.64-6.19,6.28-8.73c-3.28-.73-5.82-2.18-7.64-4.37s-2-5.46-.55-9.83c-.36-10.19,2.64-14.74,9.01-13.65s12.28,5.09,17.74,12.01c-2.55-6.55-3-12.92-1.36-19.1s6.28-8.01,13.92-5.46c9.83,1.46,14.19,4.91,13.1,10.37s-4.18,10.55-9.28,15.28Z" fill="url(#1776581828213-5698235_radial-gradient)"></path><path class="cls-13" d="M71.85,419.77c-.86,4.03-3.27,6.66-7.23,7.89-4.05,1.21-7.57.37-10.56-2.5s-4.01-6.32-3.06-10.33c.76-2.83,2.39-5.01,4.87-6.54s5.15-1.96,8-1.28,5.07,2.26,6.64,4.75c1.58,2.49,2.03,5.16,1.35,8.02Z" fill="#fff778"></path><path class="cls-3" d="M441.93,389.73c-5.09-4.73-8.19-9.73-9.28-15.01-1.09-5.28,3.28-8.64,13.1-10.1,7.64-2.91,12.28-1.27,13.92,4.91s1.18,12.74-1.36,19.65c5.46-7.28,11.46-11.37,18.01-12.28,6.55-.91,9.46,3.73,8.73,13.92,1.46,4,1.36,7.19-.27,9.55s-4.28,3.73-7.91,4.09c3.64,2.55,5.73,5.46,6.28,8.73s-1.55,6.37-6.28,9.28c-3.28,4.73-6.64,6.28-10.1,4.64s-6.28-4.46-8.46-8.46c-.36,5.09-1.91,9.01-4.64,11.74s-7,2.82-12.83.27c-7.28-.36-10.73-2.82-10.37-7.37s2.55-9.01,6.55-13.37c-4.73,1.46-8.82,1.46-12.28,0s-4.82-4.91-4.09-10.37c-3.64-7.28-2.64-11.46,3-12.55,5.64-1.09,11.74-.18,18.29,2.73Z" fill="url(#1776581828213-5698235_radial-gradient-2)"></path><path class="cls-13" d="M442.02,402.48c.86,4.03,3.27,6.66,7.23,7.89,4.05,1.21,7.57.37,10.56-2.5s4.01-6.32,3.06-10.33c-.76-2.83-2.39-5.01-4.87-6.54s-5.15-1.96-8-1.28-5.07,2.26-6.64,4.75c-1.58,2.49-2.03,5.16-1.35,8.02Z" fill="#fff778"></path><path class="cls-2" d="M346.71,439.71c2.99-5.23,6.72-8.92,11.21-11.07,4.48-2.15,7.3.14,8.46,6.87,2.96,3.51,3.59,6.56,1.88,9.14s-4.52,4.55-8.45,5.92c5.06,1.21,8.85,3.27,11.35,6.17,2.51,2.9,1.3,6.16-3.63,9.77-2.49,4.86-5.39,6.99-8.68,6.38s-6.21-2.65-8.74-6.1c.45,4.22-.14,7.69-1.76,10.39-1.62,2.7-4.62,3.39-9.01,2.06-4.65.38-7.6-.67-8.86-3.16s-1.29-5.5-.09-9.03c-2.58,1.13-5.03,1.42-7.34.84s-4.07-2.7-5.25-6.38c-5.31-6.72-5.54-11.29-.68-13.71s10.85-2.65,17.98-.69c-4.98-3.17-8.45-7.25-10.42-12.26s.27-8.54,6.71-10.61c7.38-3.9,12.05-3.73,14.02.51s2.41,9.22,1.31,14.96Z" fill="url(#1776581828213-5698235_radial-gradient-3)"></path><path class="cls-13" d="M353.05,448.13c-.48-1.14-1.15-2.12-2.01-2.94s-1.83-1.46-2.91-1.9c-1.09-.44-2.22-.66-3.4-.67s-2.35.23-3.5.72-2.14,1.16-2.95,2.01-1.44,1.82-1.88,2.91c-.44,1.09-.66,2.22-.66,3.41s.24,2.35.72,3.49,1.16,2.14,2.01,2.95,1.82,1.44,2.91,1.88c1.09.44,2.22.66,3.41.66,1.19,0,2.35-.24,3.49-.72s2.14-1.16,2.95-2.01c.82-.85,1.44-1.82,1.88-2.91.44-1.09.66-2.22.67-3.4s-.23-2.35-.72-3.5Z" fill="#fff778"></path><path class="cls-1" d="M191.39,461.24c3.64,4.37,5.73,9.01,6.28,13.92s-2.46,6.82-9.01,5.73c-4.73,1.82-8.01,1.46-9.83-1.09-1.82-2.55-2.73-5.82-2.73-9.83-2.55,4-5.64,6.73-9.28,8.19s-6.37-.73-8.19-6.55c-3.64-4.37-4.64-7.91-3-10.64s4.46-4.82,8.46-6.28c-4-.73-7-2.37-9.01-4.91-2-2.55-1.55-5.64,1.36-9.28,1.09-4.73,3.09-7.19,6-7.37s5.82.82,8.73,3c-.36-2.91.09-5.37,1.36-7.37,1.27-2,3.91-2.82,7.91-2.46,8.01-2.91,12.37-1.55,13.1,4.09.73,5.64-1.09,11.37-5.46,17.19,4.73-3.64,9.83-5.55,15.28-5.73s8.01,3.18,7.64,10.1c1.09,8.37-.64,12.74-5.19,13.1s-9.37-.91-14.46-3.82Z" fill="url(#1776581828213-5698235_radial-gradient-4)"></path><path class="cls-13" d="M180.96,464.11c1.24-.06,2.4-.35,3.47-.88s2.01-1.22,2.8-2.1c.79-.87,1.4-1.87,1.81-2.98s.59-2.3.53-3.56-.35-2.42-.88-3.49-1.22-2-2.1-2.79c-.87-.79-1.87-1.4-2.99-1.81s-2.3-.59-3.54-.53-2.42.35-3.49.88-2,1.22-2.79,2.1c-.79.87-1.4,1.87-1.81,2.99-.42,1.12-.59,2.3-.53,3.54s.35,2.42.88,3.49c.52,1.07,1.22,2,2.1,2.79.87.79,1.87,1.4,2.98,1.81s2.3.59,3.56.53Z" fill="#fff778"></path><path class="cls-6" d="M341.66,375.34v2.24h-170.65v-2.24h170.65Z" fill="url(#1776581828213-5698235_linear-gradient-4)"></path><path class="cls-14" d="M341.66,377.47v2.24h-170.65v-2.24h170.65Z" fill="#b0bec4"></path><path class="cls-5" d="M341.66,251.67v2.24h-170.65v-2.24h170.65Z" fill="url(#1776581828213-5698235_linear-gradient-5)"></path><path class="cls-4" d="M340.51,253.8v2.24h-168.3v-2.24h168.3Z" fill="#778991"></path></g></svg>