<svg xmlns="http://www.w3.org/2000/svg" style="" viewBox="0 0 510.8 512"><g class="nc-icon-wrapper"><defs><linearGradient id="1776867898027-7190562_linear-gradient" x1="255.8" y1="822.9" x2="255.8" y2="565.45" gradientTransform="translate(0 -565.45)" gradientUnits="userSpaceOnUse"><stop offset="0" stop-color="#798185"></stop><stop offset=".16" stop-color="#7f878b"></stop><stop offset=".37" stop-color="#91999d"></stop><stop offset=".62" stop-color="#adb5bb"></stop><stop offset=".81" stop-color="#c8d0d6"></stop></linearGradient><linearGradient id="1776867898027-7190562_linear-gradient-2" x1="449.43" y1="838.46" x2="491.43" y2="838.46" gradientTransform="translate(0 -565.45)" gradientUnits="userSpaceOnUse"><stop offset="0" stop-color="#798185"></stop><stop offset=".16" stop-color="#7f878b"></stop><stop offset=".37" stop-color="#91999d"></stop><stop offset=".62" stop-color="#adb5bb"></stop><stop offset=".81" stop-color="#c8d0d6"></stop></linearGradient><linearGradient id="1776867898027-7190562_linear-gradient-3" x1="20.16" y1="838.44" x2="62.16" y2="838.44" gradientTransform="translate(0 -565.45)" gradientUnits="userSpaceOnUse"><stop offset=".19" stop-color="#c8d0d6"></stop><stop offset=".38" stop-color="#adb5bb"></stop><stop offset=".63" stop-color="#91999d"></stop><stop offset=".84" stop-color="#7f878b"></stop><stop offset="1" stop-color="#798185"></stop></linearGradient><linearGradient id="1776867898027-7190562_linear-gradient-4" x1="43.63" y1="1041.62" x2="43.63" y2="847.44" gradientTransform="translate(0 -565.45)" gradientUnits="userSpaceOnUse"><stop offset="0" stop-color="#798185"></stop><stop offset=".16" stop-color="#7f878b"></stop><stop offset=".37" stop-color="#91999d"></stop><stop offset=".62" stop-color="#adb5bb"></stop><stop offset=".81" stop-color="#c8d0d6"></stop></linearGradient><linearGradient id="1776867898027-7190562_linear-gradient-5" x1="68.98" y1="1077.08" x2="68.98" y2="808.16" gradientTransform="translate(0 -565.45)" gradientUnits="userSpaceOnUse"><stop offset="0" stop-color="#c2cdd4"></stop><stop offset=".12" stop-color="#b8c4ca"></stop><stop offset=".26" stop-color="#b5c1c7"></stop><stop offset=".49" stop-color="#c2cdd3"></stop><stop offset=".89" stop-color="#e2ebf2"></stop></linearGradient><linearGradient id="1776867898027-7190562_linear-gradient-6" x1="90.69" y1="1077.08" x2="90.69" y2="804.37" gradientTransform="translate(0 -565.45)" gradientUnits="userSpaceOnUse"><stop offset="0" stop-color="#30c6b1"></stop><stop offset=".05" stop-color="#31c2ae"></stop><stop offset=".1" stop-color="#32b5a4"></stop><stop offset=".15" stop-color="#35a397"></stop><stop offset=".45" stop-color="#35a598"></stop><stop offset=".57" stop-color="#34ac9e"></stop><stop offset=".66" stop-color="#32b9a7"></stop><stop offset=".74" stop-color="#30cab4"></stop><stop offset=".78" stop-color="#2ed9bf"></stop></linearGradient><linearGradient id="1776867898027-7190562_linear-gradient-7" x1="130.63" y1="1076.66" x2="130.63" y2="804.48" gradientTransform="translate(0 -565.45)" gradientUnits="userSpaceOnUse"><stop offset="0" stop-color="#c2cdd4"></stop><stop offset=".12" stop-color="#b8c4ca"></stop><stop offset=".26" stop-color="#b5c1c7"></stop><stop offset=".49" stop-color="#c2cdd3"></stop><stop offset=".89" stop-color="#e2ebf2"></stop></linearGradient><linearGradient id="1776867898027-7190562_linear-gradient-8" x1="467.18" y1="1041.97" x2="467.18" y2="847.79" gradientTransform="translate(0 -565.45)" gradientUnits="userSpaceOnUse"><stop offset="0" stop-color="#798185"></stop><stop offset=".16" stop-color="#7f878b"></stop><stop offset=".37" stop-color="#91999d"></stop><stop offset=".62" stop-color="#adb5bb"></stop><stop offset=".81" stop-color="#c8d0d6"></stop></linearGradient><linearGradient id="1776867898027-7190562_linear-gradient-9" x1="442.61" y1="1077.1" x2="442.61" y2="808.18" gradientTransform="translate(0 -565.45)" gradientUnits="userSpaceOnUse"><stop offset="0" stop-color="#c2cdd4"></stop><stop offset=".12" stop-color="#b8c4ca"></stop><stop offset=".26" stop-color="#b5c1c7"></stop><stop offset=".49" stop-color="#c2cdd3"></stop><stop offset=".89" stop-color="#e2ebf2"></stop></linearGradient><linearGradient id="1776867898027-7190562_linear-gradient-10" x1="420.11" y1="1077.45" x2="420.11" y2="804.73" gradientTransform="translate(0 -565.45)" gradientUnits="userSpaceOnUse"><stop offset="0" stop-color="#30c6b1"></stop><stop offset=".05" stop-color="#31c2ae"></stop><stop offset=".1" stop-color="#32b5a4"></stop><stop offset=".15" stop-color="#35a397"></stop><stop offset=".45" stop-color="#35a598"></stop><stop offset=".57" stop-color="#34ac9e"></stop><stop offset=".66" stop-color="#32b9a7"></stop><stop offset=".74" stop-color="#30cab4"></stop><stop offset=".78" stop-color="#2ed9bf"></stop></linearGradient><linearGradient id="1776867898027-7190562_linear-gradient-11" x1="380.16" y1="1077.03" x2="380.16" y2="804.84" gradientTransform="translate(0 -565.45)" gradientUnits="userSpaceOnUse"><stop offset="0" stop-color="#c2cdd4"></stop><stop offset=".12" stop-color="#b8c4ca"></stop><stop offset=".26" stop-color="#b5c1c7"></stop><stop offset=".49" stop-color="#c2cdd3"></stop><stop offset=".89" stop-color="#e2ebf2"></stop></linearGradient></defs><path class="cls-1" d="M42.53,147.27c15.27-44.37,41-78.72,77.19-103.09C155.89,19.81,201.26,7.63,255.81,7.63s99.9,12.18,136.09,36.54c36.18,24.36,61.91,58.73,77.18,103.09-22.55,0-40.72-8.73-54.54-26.18-19.63-24.36-43.55-42.09-71.73-53.18-28.18-11.09-57.18-16.64-86.99-16.64s-58.82,5.55-86.99,16.64c-28.18,11.09-51.91,28.82-71.18,53.18-14.18,17.46-32.54,26.18-55.09,26.18" vector-effect="none" fill="#798185"></path><path class="cls-10" d="M44.17,257.45h-19.63c-5.46-40.72-3-77.09,7.36-109.09,10.37-32,26.55-59,48.55-81,22-22,48.09-38.73,78.28-50.18C188.89,5.73,221.26,0,255.81,0s66.91,5.73,97.09,17.18c30.18,11.45,56.28,28.18,78.27,50.18,22,22,38.18,49,48.55,81,10.37,32,12.82,68.36,7.36,109.09h-19.63c0-50.18-8.55-92.73-25.64-127.64-17.09-34.91-41.45-61.36-73.09-79.36-31.64-18-69.28-27-112.91-27s-81.28,9-112.91,27c-31.64,18-56,44.45-73.09,79.36-17.09,34.91-25.64,77.46-25.64,127.64" vector-effect="none" fill="url(#1776867898027-7190562_linear-gradient)"></path><path class="cls-9" d="M455.43,256.36c.36-3.63,1.83-6.72,4.36-9.27,2.54-2.54,5.82-4,9.82-4.36,2.91,0,6.19.09,9.82.27,3.63.18,7.08.64,10.37,1.37-.36,16.36-.18,30.27.55,41.73.73,11.45,1.09,17.18,1.09,17.18l-42-15.27c1.82-6.91,3.18-13,4.09-18.28.91-5.28,1.55-9.73,1.91-13.37" vector-effect="none" fill="url(#1776867898027-7190562_linear-gradient-2)"></path><path class="cls-8" d="M21.8,244.36c3.27-.73,6.73-1.18,10.37-1.37,3.63-.18,6.91-.27,9.82-.27,4,.36,7.27,1.82,9.82,4.36,2.54,2.54,4,5.64,4.37,9.27.36,3.64,1,8,1.91,13.09s2.26,11.27,4.09,18.55l-42,15.27s.37-5.73,1.1-17.18c.73-11.45.91-25.36.54-41.73" vector-effect="none" fill="url(#1776867898027-7190562_linear-gradient-3)"></path><path class="cls-7" d="M63.25,281.99l24,194.18h-7.63c-5.1,0-11.36-1.18-18.82-3.54-7.45-2.36-15.27-6.54-23.45-12.55-8.18-6-15.55-14.9-22.1-26.73s-11.08-27.54-13.64-47.18c-2.54-20.36-2.09-37.09,1.37-50.18,3.46-13.09,8.46-23.36,15-30.82,6.54-7.45,13.27-12.82,20.18-16.09s12.82-5.28,17.73-6c4.91-.73,7.36-1.09,7.36-1.09" vector-effect="none" fill="url(#1776867898027-7190562_linear-gradient-4)"></path><path class="cls-4" d="M81.81,242.73l33.27,268.9s-2.54-.27-7.64-.82c-5.09-.55-11.63-2.54-19.63-6-8-3.45-16.18-9.55-24.55-18.28-8.36-8.73-16.09-21.27-23.18-37.64-7.09-16.36-12.09-37.82-15-64.37-2.91-25.82-2.91-47.27,0-64.37s7.45-30.82,13.64-41.18c6.18-10.37,12.54-18.18,19.09-23.45,6.54-5.28,12.18-8.73,16.91-10.37s7.09-2.45,7.09-2.45" vector-effect="none" fill="url(#1776867898027-7190562_linear-gradient-5)"></path><path class="cls-5" d="M81.81,242.73c3.27-1.09,7.72-2,13.36-2.72s8.46-1.09,8.46-1.09l34.91,272.18s-3.18.09-9.55.27c-6.36.18-11,.27-13.91.27,0,0-2.82-1.28-8.46-3.82-5.64-2.54-12.45-8.09-20.45-16.64-8-8.55-15.82-21.55-23.45-39-7.64-17.46-13.28-41.45-16.91-72-3.63-30.18-3.91-54.45-.82-72.82,3.09-18.37,7.54-32.18,13.36-41.45,5.82-9.27,11.18-15.45,16.09-18.55,4.91-3.09,7.36-4.64,7.36-4.64" vector-effect="none" fill="url(#1776867898027-7190562_linear-gradient-6)"></path><path class="cls-3" d="M138.53,511.08c-10.9,1.09-21-4.73-30.27-17.46-9.27-12.73-17.28-29.36-24-49.91-6.72-20.54-11.54-42.09-14.46-64.64-2.91-22.91-3.63-44.81-2.18-65.72,1.46-20.91,5.1-38.27,10.91-52.09s14.18-21.27,25.09-22.37c14.9-1.09,28,1.91,39.27,9,11.27,7.09,20.73,20.63,28.36,40.63,7.63,20,13.82,48.37,18.55,85.09,3.64,28.73,5.1,51.91,4.37,69.55s-3.46,31.19-8.18,40.63c-4.73,9.46-11.09,16.09-19.09,19.91s-17.46,6.28-28.36,7.36" vector-effect="none" fill="url(#1776867898027-7190562_linear-gradient-7)"></path><path class="cls-1" d="M180.52,443.45c-1.82.36-3.72-2.54-5.73-8.73-2-6.19-3.82-14.37-5.46-24.54-1.64-10.19-3.18-20.91-4.64-32.18-1.46-11.63-2.63-22.64-3.54-33-.91-10.37-1.28-19.09-1.1-26.18.18-7.09,1.19-10.81,3-11.18,1.83-.73,4.55,3.36,8.18,12.27s7.27,27.19,10.9,54.82c2.54,18.19,3.82,32.18,3.82,42s-.64,16.64-1.91,20.45c-1.28,3.82-2.45,5.91-3.55,6.28" vector-effect="none" fill="#798185"></path><path class="cls-2" d="M447.54,282.35s2.45.36,7.36,1.09,10.81,2.72,17.73,6,13.64,8.64,20.18,16.09c6.54,7.45,11.54,17.73,15,30.82,3.45,13.09,3.91,29.82,1.37,50.18-2.54,19.63-7.09,35.37-13.64,47.18-6.54,11.82-13.91,20.73-22.09,26.73-8.18,6-16,10.19-23.45,12.55-7.45,2.36-13.73,3.54-18.82,3.54h-7.63l24-194.18" vector-effect="none" fill="url(#1776867898027-7190562_linear-gradient-8)"></path><path class="cls-6" d="M429.79,242.73l7.08,2.45c4.73,1.64,10.37,5.09,16.91,10.37s12.91,13.09,19.09,23.45c6.18,10.37,10.72,24.09,13.64,41.18,2.91,17.09,2.91,38.55,0,64.37-2.91,26.55-7.91,48-14.99,64.37-7.09,16.36-14.81,28.91-23.19,37.64-8.36,8.73-16.54,14.81-24.54,18.28-8,3.45-14.55,5.46-19.63,6-5.1.55-7.63.82-7.63.82l33.27-268.9" vector-effect="none" fill="url(#1776867898027-7190562_linear-gradient-9)"></path><path class="cls-11" d="M429,243.09s2.45,1.55,7.36,4.64c4.91,3.09,10.28,9.27,16.09,18.55,5.82,9.27,10.28,23.1,13.36,41.45,3.09,18.37,2.82,42.64-.82,72.82-3.64,30.55-9.27,54.54-16.91,72-7.64,17.46-15.45,30.46-23.45,39-8,8.55-14.81,14.09-20.45,16.64-5.64,2.54-8.45,3.82-8.45,3.82-2.91,0-7.54-.09-13.91-.27s-9.55-.27-9.55-.27l34.91-272.18s2.81.36,8.45,1.09,10.09,1.64,13.36,2.72" vector-effect="none" fill="url(#1776867898027-7190562_linear-gradient-10)"></path><path class="cls-12" d="M372.26,511.44c-10.9-1.09-20.36-3.54-28.36-7.36-8-3.82-14.37-10.46-19.09-19.91-4.73-9.46-7.45-23-8.18-40.63-.73-17.64.73-40.81,4.36-69.55,4.73-36.72,10.9-65.09,18.55-85.09,7.63-20,17.09-33.54,28.36-40.63,11.27-7.09,24.36-10.1,39.28-9,10.9,1.09,19.27,8.55,25.09,22.37s9.46,31.19,10.9,52.09.73,42.82-2.18,65.72c-2.91,22.55-7.73,44.09-14.46,64.64-6.72,20.54-14.73,37.18-24,49.91-9.27,12.73-19.36,18.55-30.27,17.46" vector-effect="none" fill="url(#1776867898027-7190562_linear-gradient-11)"></path><path class="cls-1" d="M330.27,443.81c-1.09-.36-2.27-2.45-3.54-6.28-1.28-3.82-1.91-10.63-1.91-20.45s1.28-23.81,3.82-42c3.63-27.63,7.27-45.91,10.9-54.82,3.63-8.91,6.36-13,8.18-12.27,1.82.36,2.81,4.09,3,11.18.18,7.09-.18,15.82-1.09,26.18-.91,10.37-2.1,21.36-3.54,33-1.46,11.27-3,22-4.64,32.18-1.64,10.19-3.45,18.37-5.46,24.54-2,6.19-3.91,9.09-5.73,8.73" vector-effect="none" fill="#798185"></path></g></svg>