<svg xmlns="http://www.w3.org/2000/svg" style="" viewBox="0 0 511.99 512"><g class="nc-icon-wrapper"><defs><linearGradient id="1776131386616-74468_linear-gradient" x1="402.58" y1="867.78" x2="511.99" y2="867.78" gradientTransform="translate(0 -566)" gradientUnits="userSpaceOnUse"><stop offset=".09" stop-color="#b3c2c6"></stop><stop offset=".22" stop-color="#c6d1d5"></stop><stop offset=".42" stop-color="#dde4e8"></stop><stop offset=".55" stop-color="#e6ebef"></stop></linearGradient><linearGradient id="1776131386616-74468_linear-gradient-2" x1="363.9" y1="940.4" x2="496.67" y2="940.4" gradientTransform="translate(0 -566)" gradientUnits="userSpaceOnUse"><stop offset="0" stop-color="#b3c3c7"></stop><stop offset=".12" stop-color="#b8c7cb"></stop><stop offset="1" stop-color="#dae5e8"></stop></linearGradient><linearGradient id="1776131386616-74468_linear-gradient-3" x1="371.15" y1="920.34" x2="490.13" y2="971.54" gradientTransform="translate(0 -566)" gradientUnits="userSpaceOnUse"><stop offset="0" stop-color="#b3c2c6"></stop><stop offset=".28" stop-color="#c6d1d5"></stop><stop offset=".73" stop-color="#dde4e8"></stop><stop offset="1" stop-color="#e6ebef"></stop></linearGradient><linearGradient id="1776131386616-74468_linear-gradient-4" x1="0" y1="947.1" x2="418.81" y2="947.1" gradientTransform="translate(0 -566)" gradientUnits="userSpaceOnUse"><stop offset="0" stop-color="#e6ebef"></stop><stop offset=".29" stop-color="#e2e8ec"></stop><stop offset=".56" stop-color="#d7dfe3"></stop><stop offset=".83" stop-color="#c3cfd3"></stop><stop offset="1" stop-color="#b3c2c6"></stop></linearGradient><linearGradient id="1776131386616-74468_linear-gradient-5" x1="21.67" y1="781.99" x2="397.13" y2="781.99" gradientTransform="translate(0 -566)" gradientUnits="userSpaceOnUse"><stop offset="0" stop-color="#b3c2c6"></stop><stop offset=".25" stop-color="#c0ccd0"></stop><stop offset=".62" stop-color="#cbd5da"></stop><stop offset="1" stop-color="#cfd8dd"></stop></linearGradient><radialGradient id="1776131386616-74468_radial-gradient" cx="117.04" cy="1699.69" fx="117.04" fy="1699.69" r="186.92" gradientTransform="matrix(1.07 0 0 .49 86.13 -544.79)" gradientUnits="userSpaceOnUse"><stop offset="0" stop-color="#733b23"></stop><stop offset=".27" stop-color="#6e3821"></stop><stop offset=".57" stop-color="#61311c"></stop><stop offset=".88" stop-color="#4b2414"></stop><stop offset="1" stop-color="#401e10"></stop></radialGradient><linearGradient id="1776131386616-74468_linear-gradient-6" x1="199.92" y1="760.11" x2="199.92" y2="566" gradientTransform="translate(0 -566)" gradientUnits="userSpaceOnUse"><stop offset="0" stop-color="#a9b0b3"></stop><stop offset=".32" stop-color="#bdc4c7"></stop><stop offset=".96" stop-color="#eff6fc"></stop><stop offset="1" stop-color="#f2f9ff"></stop></linearGradient><linearGradient id="1776131386616-74468_linear-gradient-7" x1="136.33" y1="757.54" x2="136.33" y2="616.38" gradientTransform="translate(0 -566)" gradientUnits="userSpaceOnUse"><stop offset="0" stop-color="#a9b0b3"></stop><stop offset=".32" stop-color="#bdc4c7"></stop><stop offset=".96" stop-color="#eff6fc"></stop><stop offset="1" stop-color="#f2f9ff"></stop></linearGradient><linearGradient id="1776131386616-74468_linear-gradient-8" x1="282.46" y1="757.54" x2="282.46" y2="616.38" gradientTransform="translate(0 -566)" gradientUnits="userSpaceOnUse"><stop offset="0" stop-color="#a9b0b3"></stop><stop offset=".32" stop-color="#bdc4c7"></stop><stop offset=".96" stop-color="#eff6fc"></stop><stop offset="1" stop-color="#f2f9ff"></stop></linearGradient></defs><path class="cls-6" d="M511.99,334.12s0-83.82-85.33-60.62c-3.59,1.06-14.59-.53-14.59-.53l-9.49,47.56c.1,0,56.75-61.86,109.41,13.58" fill="url(#1776131386616-74468_linear-gradient)"></path><path class="cls-4" d="M484.43,367.65c22.36-14.83,7.25-41.19,7.25-41.19,0,41.02-93.26,57.33-121.69,77.9-16.8,17.38-4.95,42.45,114.44-36.7h0Z" fill="url(#1776131386616-74468_linear-gradient-2)"></path><path class="cls-3" d="M402.68,335.35l13.9-3.35s2.3-13.58,13.41-23.82c14.16-13.06,61.95-10.25,61.95,21.62,0,52.5-95.92,68.63-124.42,89.29-11.95,8.65-25.59,35.46-25.59,35.46,0,0,10.31,2.04,12.62,0,43.52-37.13,157.44-52.58,157.44-122.02,0-33.97-35.33-59.9-85.33-41.38-3.5,1.34-17.08,0-17.08,0l-6.9,44.21h0Z" fill="url(#1776131386616-74468_linear-gradient-3)"></path><path class="cls-2" d="M418.81,250.21H0s5.46,103.15,61.35,186.61c20.65,30.9,69.89,75.19,148.06,75.19s127.4-44.3,148.06-75.18c55.88-83.36,61.35-186.62,61.35-186.62h0Z" fill="url(#1776131386616-74468_linear-gradient-4)"></path><path class="cls-10" d="M209.41,158.81c115.66,0,209.4,40.38,209.4,90.17s-71,99-209.4,99S0,298.79,0,248.98s93.75-90.17,209.41-90.17Z" fill="#e6ebef"></path><path class="cls-1" d="M209.41,198.96c90.54,0,166.06,28.93,183.81,65.38,2.54-5.04,3.92-10.69,3.92-16.42,0-44.38-84.06-80.28-187.73-80.28S21.67,203.54,21.67,247.92c0,5.65,1.37,11.12,3.93,16.42,17.75-36.46,93.26-65.38,183.81-65.38h0Z" fill="url(#1776131386616-74468_linear-gradient-5)"></path><path class="cls-5" d="M209.41,326.46c90.54,0,166.06-25.69,183.81-62.12-17.67-36.46-93.26-65.38-183.81-65.38s-166.06,28.93-183.81,65.38c17.75,36.43,93.26,62.12,183.81,62.12Z" fill="url(#1776131386616-74468_radial-gradient)"></path><path class="cls-9" d="M208.09,194.11s22.02-35.38-25.26-84.17c-51.88-53.66,25.26-74.3,25.26-109.94,0,0,12.46,14.18-4.95,47.82-24.74,47.55,78.42,55.14,4.95,146.29Z" style="isolation:isolate" opacity=".6" fill="url(#1776131386616-74468_linear-gradient-6)"></path><path class="cls-8" d="M142.3,191.54s16.22-24.86-18.94-61.23c-38.22-39.51,18.94-53.98,18.94-79.93,0,0,9.3,10.34-3.75,34.77-18.52,34.58,58.88,40.04,3.75,106.39Z" style="isolation:isolate" opacity=".6" fill="url(#1776131386616-74468_linear-gradient-7)"></path><path class="cls-7" d="M276.5,50.38s-16.04,25.06,18.95,61.23c38.22,39.53-18.95,54-18.95,79.93,0,0-9.3-10.31,3.75-34.77,18.44-34.58-58.95-40.13-3.75-106.39Z" style="isolation:isolate" fill="url(#1776131386616-74468_linear-gradient-8)" opacity=".6"></path></g></svg>