<svg xmlns="http://www.w3.org/2000/svg" style="" viewBox="0 0 512.01 512"><g class="nc-icon-wrapper"><defs><radialGradient id="1776131386632-4846137_radial-gradient" cx="-1092.1" cy="-445.88" fx="-1092.1" fy="-445.88" r="121.5" gradientTransform="matrix(0 -1.02 -.95 0 -154.59 -940.64)" gradientUnits="userSpaceOnUse"><stop offset="0" stop-color="#92c932"></stop><stop offset=".26" stop-color="#8bc230"></stop><stop offset=".64" stop-color="#79ae29"></stop><stop offset="1" stop-color="#629621"></stop></radialGradient><radialGradient id="1776131386632-4846137_radial-gradient-2" cx="-1789.25" cy="585.88" fx="-1789.25" fy="585.88" r="92.57" gradientTransform="matrix(-.95 0 0 1.02 -1481.44 -575.38)" gradientUnits="userSpaceOnUse"><stop offset="0" stop-color="#92c932"></stop><stop offset=".26" stop-color="#8bc230"></stop><stop offset=".64" stop-color="#79ae29"></stop><stop offset="1" stop-color="#629621"></stop></radialGradient><radialGradient id="1776131386632-4846137_radial-gradient-3" cx="11.36" cy="596.56" fx="11.36" fy="596.56" r="91" gradientTransform="matrix(.95 0 0 1.02 125.52 -575.38)" gradientUnits="userSpaceOnUse"><stop offset="0" stop-color="#92c932"></stop><stop offset=".26" stop-color="#8bc230"></stop><stop offset=".64" stop-color="#79ae29"></stop><stop offset="1" stop-color="#629621"></stop></radialGradient><radialGradient id="1776131386632-4846137_radial-gradient-4" cx="-45.58" cy="646.84" fx="-45.58" fy="646.84" r="92.31" gradientTransform="matrix(.95 0 0 1.02 125.52 -575.38)" gradientUnits="userSpaceOnUse"><stop offset="0" stop-color="#92c932"></stop><stop offset=".26" stop-color="#8bc230"></stop><stop offset=".64" stop-color="#79ae29"></stop><stop offset="1" stop-color="#629621"></stop></radialGradient><radialGradient id="1776131386632-4846137_radial-gradient-5" cx="-1086.42" cy="1333.9" fx="-1086.42" fy="1333.9" r="94" gradientTransform="matrix(0 -1.02 .95 0 -1201.33 -940.64)" gradientUnits="userSpaceOnUse"><stop offset="0" stop-color="#92c932"></stop><stop offset=".26" stop-color="#8bc230"></stop><stop offset=".64" stop-color="#79ae29"></stop><stop offset="1" stop-color="#629621"></stop></radialGradient><radialGradient id="1776131386632-4846137_radial-gradient-6" cx="-1511.57" cy="1156.02" fx="-1511.57" fy="1156.02" r="90.25" gradientTransform="matrix(-.44798 -.90522 .84456 -.48037 -1537.87 -576.19)" gradientUnits="userSpaceOnUse"><stop offset="0" stop-color="#92c932"></stop><stop offset=".26" stop-color="#8bc230"></stop><stop offset=".64" stop-color="#79ae29"></stop><stop offset="1" stop-color="#629621"></stop></radialGradient><radialGradient id="1776131386632-4846137_radial-gradient-7" cx="-1852.93" cy="653.97" fx="-1852.93" fy="653.97" r="114.89" gradientTransform="matrix(-.95 0 0 1.02 -1481.44 -575.38)" gradientUnits="userSpaceOnUse"><stop offset="0" stop-color="#92c932"></stop><stop offset=".26" stop-color="#8bc230"></stop><stop offset=".64" stop-color="#79ae29"></stop><stop offset="1" stop-color="#629621"></stop></radialGradient><linearGradient id="1776131386632-4846137_linear-gradient" x1="-1721.48" y1="923.25" x2="-1641.13" y2="923.25" gradientTransform="matrix(-1 0 0 1 -1515.29 -566.01)" gradientUnits="userSpaceOnUse"><stop offset="0" stop-color="#91632e"></stop><stop offset=".29" stop-color="#8e612d"></stop><stop offset=".5" stop-color="#855a29"></stop><stop offset=".67" stop-color="#764f22"></stop><stop offset=".83" stop-color="#603f19"></stop><stop offset=".98" stop-color="#442a0d"></stop><stop offset="1" stop-color="#40270b"></stop></linearGradient><radialGradient id="1776131386632-4846137_radial-gradient-8" cx="-1726.51" cy="652.08" fx="-1726.51" fy="652.08" r="98.54" gradientTransform="matrix(-.95 0 0 1.02 -1481.44 -575.38)" gradientUnits="userSpaceOnUse"><stop offset="0" stop-color="#92c932"></stop><stop offset=".26" stop-color="#8bc230"></stop><stop offset=".64" stop-color="#79ae29"></stop><stop offset="1" stop-color="#629621"></stop></radialGradient><radialGradient id="1776131386632-4846137_radial-gradient-9" cx="-1806.19" cy="702.3" fx="-1806.19" fy="702.3" r="100.54" gradientTransform="matrix(-.95 0 0 1.02 -1481.44 -575.38)" gradientUnits="userSpaceOnUse"><stop offset="0" stop-color="#92c932"></stop><stop offset=".26" stop-color="#8bc230"></stop><stop offset=".64" stop-color="#79ae29"></stop><stop offset="1" stop-color="#629621"></stop></radialGradient><radialGradient id="1776131386632-4846137_radial-gradient-10" cx="-1710.51" cy="738.7" fx="-1710.51" fy="738.7" r="99.71" gradientTransform="matrix(-.95 0 0 1.02 -1481.44 -575.38)" gradientUnits="userSpaceOnUse"><stop offset="0" stop-color="#92c932"></stop><stop offset=".26" stop-color="#8bc230"></stop><stop offset=".64" stop-color="#79ae29"></stop><stop offset="1" stop-color="#629621"></stop></radialGradient><linearGradient id="1776131386632-4846137_linear-gradient-2" x1="324.27" y1="1052.97" x2="324.27" y2="728.81" gradientTransform="translate(0 -566.01)" gradientUnits="userSpaceOnUse"><stop offset="0" stop-color="#e7ecf0"></stop><stop offset=".47" stop-color="#e5eaee"></stop><stop offset=".64" stop-color="#dee4e9"></stop><stop offset=".76" stop-color="#d3dadf"></stop><stop offset=".86" stop-color="#c2cbd0"></stop><stop offset=".95" stop-color="#acb9be"></stop><stop offset="1" stop-color="#99a8ae"></stop></linearGradient></defs><path class="cls-18" d="M296.97,140.49c-271.76,57.09-117.21,131.02-104.1,144.61,47.24,48.91,196.98-61.67,104.1-144.61Z" fill="url(#1776131386632-4846137_radial-gradient)"></path><path class="cls-13" d="M154.18,12.11c-81.49,0,105.57,132.17,105.57,44.8,0-24.85-21.47-33.03-26.18-40.17-23.02-34.74-68.63-4.63-79.38-4.63h0Z" fill="url(#1776131386632-4846137_radial-gradient-2)"></path><path class="cls-12" d="M179.89,59.77c0,87.35-78.63,68.85-129.51.62,0-21.93,32.65-36.93,43.85-46.01,23.52-19.05,85.66,0,85.66,45.4h0Z" fill="url(#1776131386632-4846137_radial-gradient-3)"></path><path class="cls-9" d="M120.51,89.49c24.85,83.21-90.3,131.94-111.17,47.51C0,99.22,34.68,57.23,55.36,54.05c21.83-3.34,55.46,3.02,65.15,35.44Z" fill="url(#1776131386632-4846137_radial-gradient-4)"></path><path class="cls-8" d="M63.52,127.7c80.29,14.93,67.8,130.01-13.68,130.01-52.95,0-84.01-148.17,13.68-130.01Z" fill="url(#1776131386632-4846137_radial-gradient-5)"></path><path class="cls-7" d="M64.01,203.93c56.9-62.53,167.95,95.05,87.78,79.35-28.86-5.65-49.03,30.65-75.93,10.26-28.53-21.63-34.02-65.22-11.85-89.61h0Z" fill="url(#1776131386632-4846137_radial-gradient-6)"></path><path class="cls-6" d="M202.74,86.77c-24.85,83.2,166.15,137.58,113.09,33.62-13.95-27.31-4.3-48.5-33.7-64.41-31.2-16.88-69.69-1.63-79.38,30.8h0Z" fill="url(#1776131386632-4846137_radial-gradient-7)"></path><path class="cls-20" d="M206.01,231.33c-4.74,21.42-41.68,58.51-32.65,246.27.98,20.5-36.72,20.94-37.83,3.14-3.32-52.91,14.82-204.72-9.68-222.43,26.66-25.55,11.83-1.52,31.34,4.77,28.45-9.62,22.55-26.69,40.15-40.32,8.1-6.28,9.42,5.18,8.67,8.57h0Z" fill="url(#1776131386632-4846137_linear-gradient)"></path><path class="cls-11" d="M87.33,105.6c-25.17,83.08,142.64,97.57,134.84,10.62-7.35-82.23-111.97-86.13-134.84-10.62Z" fill="url(#1776131386632-4846137_radial-gradient-8)"></path><path class="cls-10" d="M152.96,176.53c-18.03,85.21,156.99,71.89,133.95-7.91-24.09-83.46-113.85-87.2-133.95,7.91Z" fill="url(#1776131386632-4846137_radial-gradient-9)"></path><path class="cls-28" d="M55.61,197.7c-19.95,84.71,159.96,84.4,140.16-.35-15.89-67.88-120.41-83.5-140.16.35Z" fill="url(#1776131386632-4846137_radial-gradient-10)"></path><path class="cls-22" d="M411.88 199.12H474.45V299.24H411.88z" fill="#e8000d"></path><path class="cls-32" d="M449.44 205.37H474.46V217.88H449.44z" fill="#cf0505"></path><path class="cls-32" d="M433.84 242.91H458.88V255.42H433.84z" fill="#cf0505"></path><path class="cls-32" d="M449.44 230.4H474.46V242.91H449.44z" fill="#cf0505"></path><path class="cls-32" d="M449.44 267.95H474.46V280.46H449.44z" fill="#cf0505"></path><path class="cls-32" d="M411.88 217.88H436.90999999999997V230.39H411.88z" fill="#cf0505"></path><path class="cls-5" d="M405.62 186.6H480.72V205.37H405.62z" fill="#6e8189"></path><path class="cls-26" d="M332.81,145.07c-5.18-5.18-11.89-5.18-17.06,0-44.81,44.8-179.2,179.19-179.2,179.19h375.46s-134.4-134.4-179.2-179.19Z" fill="#ff000e"></path><path class="cls-15" d="M324.28 171.82L167.83 324.26 167.83 486.96 480.72 486.96 480.72 324.26 324.28 171.82z" fill="url(#1776131386632-4846137_linear-gradient-2)"></path><path class="cls-4" d="M144.11,442.68c2.03,0,1.83,46.76,1.83,46.76h-3.66s-.2-46.76,1.83-46.76Z" fill="#7ab51d"></path><path class="cls-4" d="M144.05,462.01c-5.44,0-4.91-2.71-4.91-2.71h9.82s.53,2.71-4.91,2.71h0Z" fill="#7ab51d"></path><path class="cls-33" d="M150.46,430.82c-1.58-1.47-3.26-3.05-4.68-5.49-1.24,1.03-4.39,2.81-7.18,5.71-4.2-2.53-7.98-2.49-9.64-2.49,9.72,15.67,21.78,17.22,31.47,0-1.62,0-5.66-.04-9.97,2.26h0Z" fill="#b81d4b"></path><path class="cls-17" d="M133.59,444.93c0,10.7,22.43,10.7,22.43,0s-7.82-17.56-10.25-19.58c-.13,9.82-12.18,8.9-12.18,19.58h0Z" fill="#db2159"></path><path class="cls-23" d="M147.48,448.26c2.24,8.12-.91,12.62-3.22,12.62-6.42,0-13.38-4.7-12.97-14.06.48-11.14-2.24-13.7-2.36-18.26,2.9,0,13.57,1.7,18.54,19.7h.01Z" fill="#ff3672"></path><path class="cls-24" d="M140.91,448.26c-2.24,8.12.9,12.62,3.22,12.62,6.42,0,13.38-4.7,12.97-14.06-.49-11.14,3.21-13.7,3.34-18.26-2.91,0-14.55,1.7-19.52,19.7h0Z" fill="#ff5788"></path><path class="cls-4" d="M74.48,450.78c2.03,0,1.83,47.19,1.83,47.19h-3.66s-.2-47.19,1.83-47.19Z" fill="#7ab51d"></path><path class="cls-4" d="M74.43,470.11c-5.44,0-4.91-2.71-4.91-2.71h9.82s.53,2.71-4.91,2.71Z" fill="#7ab51d"></path><path class="cls-33" d="M80.84,438.92c-1.58-1.46-3.26-3.04-4.68-5.49-1.24,1.04-4.39,2.82-7.18,5.72-4.2-2.53-7.98-2.5-9.64-2.5,9.72,15.68,21.78,17.22,31.47,0-1.62,0-5.66-.03-9.97,2.26h0Z" fill="#b81d4b"></path><path class="cls-17" d="M63.96,453.03c0,10.7,22.43,10.7,22.43,0s-7.82-17.56-10.25-19.59c-.14,9.82-12.18,8.91-12.18,19.59Z" fill="#db2159"></path><path class="cls-23" d="M77.86,456.37c2.24,8.12-.91,12.62-3.22,12.62-6.42,0-13.38-4.7-12.97-14.07.48-11.14-2.24-13.69-2.36-18.26,2.9,0,13.57,1.71,18.54,19.7h.01Z" fill="#ff3672"></path><path class="cls-24" d="M71.29,456.37c-2.24,8.12.9,12.62,3.22,12.62,6.42,0,13.38-4.7,12.97-14.07-.49-11.14,3.21-13.69,3.34-18.26-2.91,0-14.55,1.71-19.52,19.7h0Z" fill="#ff5788"></path><path class="cls-4" d="M106.43,428c2.03,0,1.83,61.44,1.83,61.44h-3.67s-.2-61.44,1.84-61.44Z" fill="#7ab51d"></path><path class="cls-4" d="M106.36,447.33c-5.44,0-4.92-2.71-4.92-2.71h9.83s.54,2.71-4.91,2.71Z" fill="#7ab51d"></path><path class="cls-25" d="M112.77,416.14c-1.58-1.47-3.26-3.04-4.68-5.49-1.25,1.04-4.4,2.82-7.19,5.72-4.19-2.53-7.97-2.5-9.63-2.5,9.72,15.67,21.78,17.22,31.47,0-1.62,0-5.65-.04-9.97,2.26h0Z" fill="#c28b00"></path><path class="cls-31" d="M95.9,430.25c0,10.69,22.44,10.69,22.44,0s-7.82-17.56-10.25-19.59c-.14,9.83-12.19,8.91-12.19,19.59Z" fill="#ffb700"></path><path class="cls-14" d="M109.8,433.58c2.23,8.12-.91,12.62-3.22,12.62-6.42,0-13.37-4.7-12.96-14.07.49-11.14-2.24-13.69-2.37-18.26,2.9,0,13.58,1.71,18.55,19.7h0Z" fill="#ffd126"></path><path class="cls-37" d="M103.24,433.58c-2.24,8.12.9,12.62,3.22,12.62,6.42,0,13.38-4.7,12.96-14.07-.48-11.14,3.22-13.69,3.34-18.26-2.9,0-14.55,1.71-19.51,19.7h0Z" fill="#ffdc5c"></path><path class="cls-4" d="M38.55,441.15c2.03,0,1.83,48.29,1.83,48.29h-3.67s-.19-48.29,1.84-48.29Z" fill="#7ab51d"></path><path class="cls-4" d="M38.49,460.48c-5.44,0-4.92-2.71-4.92-2.71h9.83s.53,2.71-4.91,2.71Z" fill="#7ab51d"></path><path class="cls-25" d="M44.9,429.29c-1.58-1.46-3.26-3.04-4.68-5.49-1.25,1.04-4.4,2.82-7.19,5.72-4.19-2.53-7.97-2.5-9.63-2.5,9.72,15.68,21.78,17.22,31.47,0-1.62,0-5.66-.03-9.97,2.26h0Z" fill="#c28b00"></path><path class="cls-31" d="M28.02,443.4c0,10.7,22.44,10.7,22.44,0s-7.82-17.56-10.25-19.59c-.14,9.82-12.19,8.91-12.19,19.59Z" fill="#ffb700"></path><path class="cls-14" d="M41.92,446.74c2.23,8.12-.91,12.62-3.22,12.62-6.42,0-13.37-4.7-12.96-14.07.49-11.14-2.24-13.69-2.37-18.26,2.91,0,13.58,1.71,18.55,19.7h0Z" fill="#ffd126"></path><path class="cls-37" d="M35.36,446.74c-2.24,8.12.9,12.62,3.22,12.62,6.42,0,13.38-4.7,12.96-14.07-.48-11.14,3.22-13.69,3.34-18.26-2.9,0-14.54,1.71-19.51,19.7h-.01Z" fill="#ffdc5c"></path><path class="cls-4" d="M295.94,466.99c-7.83-1.5-4.6,6.26-4.6,6.26h16.28c1.86-10.65-10.94-15.88-11.68-6.26Z" fill="#7ab51d"></path><path class="cls-29" d="M289.85 473.26L291.65 486.96 306.85 486.96 308.64 473.26 289.85 473.26z" fill="#9e6c49"></path><path class="cls-4" d="M183.31,466.99c-7.82-1.5-4.6,6.26-4.6,6.26h16.29c1.84-10.65-10.95-15.88-11.69-6.26h0Z" fill="#7ab51d"></path><path class="cls-29" d="M177.22 473.26L179.01 486.96 194.21 486.96 195.99 473.26 177.22 473.26z" fill="#9e6c49"></path><path class="cls-29" d="M343.05,336.78v87.61h112.64v-87.61h-112.64,0Z" fill="#9e6c49"></path><path class="cls-30" d="M355.57 349.29H443.18V411.87H355.57z" fill="#4ecee6"></path><path class="cls-16" d="M336.8 424.39H461.96000000000004V430.64H336.8z" fill="#785647"></path><path class="cls-29" d="M199.13 336.78H286.74V486.96H199.13z" fill="#9e6c49"></path><path class="cls-16" d="M204.6 342.29H281.26V486.96000000000004H204.6z" fill="#785647"></path><path class="cls-29" d="M210.07 347.79H275.77V486.95000000000005H210.07z" fill="#9e6c49"></path><path class="cls-30" d="M217.89 351.79H267.96V376.83000000000004H217.89z" fill="#4ecee6"></path><path class="cls-29" d="M241.56 350.24H244.3V378.39H241.56z" fill="#9e6c49"></path><path class="cls-29" d="M226.5 350.24H229.24V378.39H226.5z" fill="#9e6c49"></path><path class="cls-29" d="M256.62 350.24H259.35V378.39H256.62z" fill="#9e6c49"></path><path class="cls-21" d="M259.34 408.38H270.29999999999995V430.4H259.34z" fill="#855a3d"></path><path class="cls-19" d="M248.44,417.16c9.52-2.18,15.3-.94,15.3-.94,3.94,3.58,7.39-3.95,1.78-4.79-10.83-1.63-21.38,6.74-17.09,5.74h.01Z" fill="#99a8ae"></path><path class="cls-34" d="M266.2,424.55c0,3.69-2.74,3.69-2.74,0s2.74-3.66,2.74,0Z" fill="#45332c"></path><path class="cls-36" d="M313.17 336.78H316.63V346.54999999999995H313.17z" fill="#302c3b"></path><path class="cls-36" d="M322.81 380.58L306.97 380.58 302.37 355.84 327.41 355.84 322.81 380.58z" fill="#302c3b"></path><path class="cls-35" d="M306.97 346.08L322.81 346.08 327.41 355.84 302.37 355.84 306.97 346.08z" fill="#4e5e67"></path><path class="cls-3" d="M320.07 376.31L309.72 376.31 307.41 360.11 322.37 360.11 320.07 376.31z" fill="#ffe463"></path><path class="cls-4" d="M345.69,466.77c-11.89-4.36-18.25,5-18.25,5-3.94-2.22-16.22-.84-17.02,11.83-3.36,2.18-8.12,9.61-4.83,15.17-11.02,2.46-5.57,13.22-5.57,13.22h87.61s8.55-9.38-2.14-15.9c2.38-4.76-2.58-16.93-11.9-17.04,2.59-2.78-4.17-7.15-9.29-7.72-2.79-6.75-11.29-9.91-18.62-4.56h.01Z" fill="#7ab51d"></path><path class="cls-4" d="M466.81,474.92c-11.88-3.56-18.25,4.11-18.25,4.11-3.94-1.83-16.22-.69-17.01,9.7-3.37,1.8-8.12,7.86-4.83,12.43-11.02,2.01-5.57,10.83-5.57,10.83h87.61s8.55-7.7-2.15-13.03c2.38-3.9-2.57-13.88-11.9-13.97,2.6-2.28-4.16-5.86-9.28-6.33-2.8-5.53-11.3-8.12-18.62-3.74h0Z" fill="#7ab51d"></path><path class="cls-27" d="M406.24,475.23c-11.88-3.54-18.25,4.06-18.25,4.06-3.94-1.81-16.22-.67-17.01,9.62-3.37,1.77-8.13,7.82-4.83,12.33-11.02,2-5.57,10.75-5.57,10.75h87.61s8.56-7.62-2.14-12.94c2.38-3.84-2.57-13.74-11.9-13.83,2.59-2.26-4.16-5.82-9.28-6.29-2.8-5.47-11.3-8.04-18.62-3.7h0Z" fill="#92c932"></path><path class="cls-4" d="M146.39,472.18c10.46-3.83,16.06,4.41,16.06,4.41,3.46-1.96,14.27-.74,14.97,10.42,2.97,1.91,7.15,8.46,4.25,13.35,9.7,2.16,4.9,11.63,4.9,11.63h-77.1s-7.53-8.25,1.88-14c-2.09-4.18,2.27-14.89,10.49-14.99-2.29-2.45,3.66-6.28,8.17-6.8,2.46-5.94,9.94-8.71,16.39-4.02h0Z" fill="#7ab51d"></path><path class="cls-4" d="M39.8,479.38c10.46-3.14,16.06,3.62,16.06,3.62,3.46-1.62,14.27-.62,14.97,8.52,2.96,1.58,7.14,6.92,4.25,10.94,9.7,1.78,4.9,9.54,4.9,9.54H2.87s-7.53-6.77,1.89-11.48c-2.09-3.43,2.26-12.21,10.48-12.29-2.29-2,3.66-5.15,8.17-5.57,2.46-4.86,9.94-7.14,16.39-3.28h0Z" fill="#7ab51d"></path><path class="cls-27" d="M93.08,479.64c10.46-3.12,16.06,3.58,16.06,3.58,3.47-1.59,14.28-.6,14.98,8.46,2.96,1.56,7.14,6.87,4.25,10.85,9.7,1.76,4.9,9.46,4.9,9.46H56.17s-7.53-6.7,1.88-11.38c-2.1-3.39,2.26-12.1,10.48-12.18-2.29-1.98,3.66-5.11,8.17-5.52,2.46-4.82,9.94-7.09,16.38-3.26h0Z" fill="#92c932"></path><path class="cls-2" d="M161.58 499.48H324.28V511.99H161.58z" fill="#cfd8dd"></path><path class="cls-1" d="M174.09 486.96H311.76V499.46999999999997H174.09z" fill="#b3c2c6"></path></g></svg>