<svg data-name="Layer 1" xmlns="http://www.w3.org/2000/svg" style="" viewBox="0 0 320.08 512"><g class="nc-icon-wrapper"><defs><linearGradient id="1777062901631-1070363_linear-gradient" x1="158.21" y1="925.99" x2="181.25" y2="931.11" gradientTransform="translate(0 -512)" gradientUnits="userSpaceOnUse"><stop offset="0" stop-color="#00ad13"></stop><stop offset="1" stop-color="#007527"></stop></linearGradient><linearGradient id="1777062901631-1070363_linear-gradient-2" x1="109.08" y1="940.89" x2="133.67" y2="940.89" gradientTransform="translate(0 -512)" gradientUnits="userSpaceOnUse"><stop offset="0" stop-color="#00ad13"></stop><stop offset="1" stop-color="#007527"></stop></linearGradient><radialGradient id="1777062901631-1070363_radial-gradient" cx="161.32" cy="722.32" fx="161.32" fy="722.32" r="160.81" gradientTransform="translate(0 -511.6)" gradientUnits="userSpaceOnUse"><stop offset="0" stop-color="#511a66"></stop><stop offset=".22" stop-color="#622678"></stop><stop offset=".54" stop-color="#75348c"></stop><stop offset=".75" stop-color="#7d3994"></stop><stop offset="1" stop-color="#7d3994"></stop></radialGradient><linearGradient id="1777062901631-1070363_linear-gradient-3" x1="30.27" y1="975.11" x2="114.6" y2="942.92" gradientTransform="translate(0 -512)" gradientUnits="userSpaceOnUse"><stop offset="0" stop-color="#0fd605"></stop><stop offset="1" stop-color="#007527"></stop></linearGradient><linearGradient id="1777062901631-1070363_linear-gradient-4" x1="152.51" y1="1024" x2="152.51" y2="604.4" gradientTransform="translate(0 -512)" gradientUnits="userSpaceOnUse"><stop offset="0" stop-color="#0a7500"></stop><stop offset=".28" stop-color="#0a7500"></stop><stop offset=".29" stop-color="#0d7304"></stop><stop offset=".53" stop-color="#435744"></stop><stop offset=".73" stop-color="#634272"></stop><stop offset=".88" stop-color="#77368e"></stop><stop offset=".97" stop-color="#7e3199"></stop><stop offset="1" stop-color="#7e3199"></stop></linearGradient><linearGradient id="1777062901631-1070363_linear-gradient-5" x1="95.56" y1="968.96" x2="132.14" y2="951.95" gradientTransform="translate(0 -512)" gradientUnits="userSpaceOnUse"><stop offset="0" stop-color="#0fd605"></stop><stop offset="1" stop-color="#007527"></stop></linearGradient><linearGradient id="1777062901631-1070363_linear-gradient-6" x1="233.93" y1="964.92" x2="187.83" y2="938.29" gradientTransform="translate(0 -512)" gradientUnits="userSpaceOnUse"><stop offset="0" stop-color="#00ad13"></stop><stop offset=".16" stop-color="#06a81a"></stop><stop offset=".36" stop-color="#0e9826"></stop><stop offset=".59" stop-color="#047e27"></stop><stop offset=".66" stop-color="#007527"></stop><stop offset="1" stop-color="#007527"></stop></linearGradient><linearGradient id="1777062901631-1070363_linear-gradient-7" x1="147.23" y1="938.25" x2="213.13" y2="985.09" gradientTransform="translate(0 -512)" gradientUnits="userSpaceOnUse"><stop offset="0" stop-color="#0fd605"></stop><stop offset="1" stop-color="#007527"></stop></linearGradient><radialGradient id="1777062901631-1070363_radial-gradient-2" cx="249.92" cy="754.11" fx="249.92" fy="754.11" r="49.68" gradientTransform="matrix(1 0 0 .87 0 -447.37)" gradientUnits="userSpaceOnUse"><stop offset="0" stop-color="#692d7d"></stop><stop offset=".09" stop-color="#692d7d"></stop><stop offset=".28" stop-color="#8b49a5"></stop><stop offset=".49" stop-color="#ad63cc"></stop><stop offset=".69" stop-color="#c677e8"></stop><stop offset=".87" stop-color="#d483f9"></stop><stop offset="1" stop-color="#d987ff"></stop></radialGradient><linearGradient id="1777062901631-1070363_linear-gradient-8" x1="260.58" y1="721.19" x2="229.34" y2="732.97" gradientTransform="translate(0 -512)" gradientUnits="userSpaceOnUse"><stop offset="0" stop-color="#692d7d"></stop><stop offset=".07" stop-color="#76378c"></stop><stop offset=".27" stop-color="#9954b5"></stop><stop offset=".47" stop-color="#b56ad5"></stop><stop offset=".66" stop-color="#c97aec"></stop><stop offset=".84" stop-color="#d584fa"></stop><stop offset="1" stop-color="#d987ff"></stop></linearGradient><radialGradient id="1777062901631-1070363_radial-gradient-3" cx="239.16" cy="681.39" fx="239.16" fy="681.39" r="50.19" gradientTransform="matrix(1 0 0 .87 0 -447.37)" gradientUnits="userSpaceOnUse"><stop offset="0" stop-color="#692d7d"></stop><stop offset=".09" stop-color="#692d7d"></stop><stop offset=".28" stop-color="#8b49a5"></stop><stop offset=".49" stop-color="#ad63cc"></stop><stop offset=".69" stop-color="#c677e8"></stop><stop offset=".87" stop-color="#d483f9"></stop><stop offset="1" stop-color="#d987ff"></stop></radialGradient><linearGradient id="1777062901631-1070363_linear-gradient-9" x1="248.42" y1="654.92" x2="221.79" y2="674.38" gradientTransform="translate(0 -512)" gradientUnits="userSpaceOnUse"><stop offset="0" stop-color="#692d7d"></stop><stop offset=".07" stop-color="#76378c"></stop><stop offset=".27" stop-color="#9954b5"></stop><stop offset=".47" stop-color="#b56ad5"></stop><stop offset=".66" stop-color="#c97aec"></stop><stop offset=".84" stop-color="#d584fa"></stop><stop offset="1" stop-color="#d987ff"></stop></linearGradient><radialGradient id="1777062901631-1070363_radial-gradient-4" cx="203.31" cy="609.69" fx="203.31" fy="609.69" r="50.19" gradientTransform="matrix(1 0 0 .87 0 -447.37)" gradientUnits="userSpaceOnUse"><stop offset="0" stop-color="#692d7d"></stop><stop offset=".09" stop-color="#692d7d"></stop><stop offset=".28" stop-color="#8b49a5"></stop><stop offset=".49" stop-color="#ad63cc"></stop><stop offset=".69" stop-color="#c677e8"></stop><stop offset=".87" stop-color="#d483f9"></stop><stop offset="1" stop-color="#d987ff"></stop></radialGradient><linearGradient id="1777062901631-1070363_linear-gradient-10" x1="213.61" y1="592.51" x2="183.39" y2="606.34" gradientTransform="translate(0 -512)" gradientUnits="userSpaceOnUse"><stop offset="0" stop-color="#692d7d"></stop><stop offset=".07" stop-color="#76378c"></stop><stop offset=".27" stop-color="#9954b5"></stop><stop offset=".47" stop-color="#b56ad5"></stop><stop offset=".66" stop-color="#c97aec"></stop><stop offset=".84" stop-color="#d584fa"></stop><stop offset="1" stop-color="#d987ff"></stop></linearGradient><radialGradient id="1777062901631-1070363_radial-gradient-5" cx="131.62" cy="564.62" fx="131.62" fy="564.62" r="52.24" gradientTransform="matrix(1 0 0 .87 0 -447.37)" gradientUnits="userSpaceOnUse"><stop offset="0" stop-color="#692d7d"></stop><stop offset=".09" stop-color="#692d7d"></stop><stop offset=".28" stop-color="#8b49a5"></stop><stop offset=".49" stop-color="#ad63cc"></stop><stop offset=".69" stop-color="#c677e8"></stop><stop offset=".87" stop-color="#d483f9"></stop><stop offset="1" stop-color="#d987ff"></stop></radialGradient><linearGradient id="1777062901631-1070363_linear-gradient-11" x1="131.2" y1="547.82" x2="137.86" y2="581.62" gradientTransform="translate(0 -512)" gradientUnits="userSpaceOnUse"><stop offset="0" stop-color="#692d7d"></stop><stop offset=".07" stop-color="#76378c"></stop><stop offset=".27" stop-color="#9954b5"></stop><stop offset=".47" stop-color="#b56ad5"></stop><stop offset=".66" stop-color="#c97aec"></stop><stop offset=".84" stop-color="#d584fa"></stop><stop offset="1" stop-color="#d987ff"></stop></linearGradient><radialGradient id="1777062901631-1070363_radial-gradient-6" cx="150.57" cy="914.4" fx="150.57" fy="914.4" r="52.24" gradientTransform="matrix(1 0 0 .87 0 -447.37)" gradientUnits="userSpaceOnUse"><stop offset="0" stop-color="#692d7d"></stop><stop offset=".09" stop-color="#692d7d"></stop><stop offset=".28" stop-color="#8b49a5"></stop><stop offset=".49" stop-color="#ad63cc"></stop><stop offset=".69" stop-color="#c677e8"></stop><stop offset=".87" stop-color="#d483f9"></stop><stop offset="1" stop-color="#d987ff"></stop></radialGradient><radialGradient id="1777062901631-1070363_radial-gradient-7" cx="211.51" cy="747.96" fx="211.51" fy="747.96" r="52.24" gradientTransform="matrix(1 0 0 .87 0 -447.37)" gradientUnits="userSpaceOnUse"><stop offset="0" stop-color="#692d7d"></stop><stop offset=".09" stop-color="#692d7d"></stop><stop offset=".28" stop-color="#8b49a5"></stop><stop offset=".49" stop-color="#ad63cc"></stop><stop offset=".69" stop-color="#c677e8"></stop><stop offset=".87" stop-color="#d483f9"></stop><stop offset="1" stop-color="#d987ff"></stop></radialGradient><radialGradient id="1777062901631-1070363_radial-gradient-8" cx="259.14" cy="833.49" fx="259.14" fy="833.49" r="46.09" gradientTransform="matrix(1 0 0 .87 0 -447.37)" gradientUnits="userSpaceOnUse"><stop offset="0" stop-color="#692d7d"></stop><stop offset=".09" stop-color="#692d7d"></stop><stop offset=".28" stop-color="#8b49a5"></stop><stop offset=".49" stop-color="#ad63cc"></stop><stop offset=".69" stop-color="#c677e8"></stop><stop offset=".87" stop-color="#d483f9"></stop><stop offset="1" stop-color="#d987ff"></stop></radialGradient><linearGradient id="1777062901631-1070363_linear-gradient-12" x1="267.47" y1="795.28" x2="235.16" y2="784.68" gradientTransform="translate(0 -512)" gradientUnits="userSpaceOnUse"><stop offset="0" stop-color="#692d7d"></stop><stop offset=".07" stop-color="#76378c"></stop><stop offset=".27" stop-color="#9954b5"></stop><stop offset=".47" stop-color="#b56ad5"></stop><stop offset=".66" stop-color="#c97aec"></stop><stop offset=".84" stop-color="#d584fa"></stop><stop offset="1" stop-color="#d987ff"></stop></linearGradient><radialGradient id="1777062901631-1070363_radial-gradient-9" cx="221.75" cy="904.67" fx="221.75" fy="904.67" r="51.72" gradientTransform="matrix(1 0 0 .87 0 -447.37)" gradientUnits="userSpaceOnUse"><stop offset="0" stop-color="#692d7d"></stop><stop offset=".09" stop-color="#692d7d"></stop><stop offset=".28" stop-color="#8b49a5"></stop><stop offset=".49" stop-color="#ad63cc"></stop><stop offset=".69" stop-color="#c677e8"></stop><stop offset=".87" stop-color="#d483f9"></stop><stop offset="1" stop-color="#d987ff"></stop></radialGradient><linearGradient id="1777062901631-1070363_linear-gradient-13" x1="228.43" y1="863.09" x2="214.93" y2="831.42" gradientTransform="translate(0 -512)" gradientUnits="userSpaceOnUse"><stop offset="0" stop-color="#692d7d"></stop><stop offset=".07" stop-color="#76378c"></stop><stop offset=".27" stop-color="#9954b5"></stop><stop offset=".47" stop-color="#b56ad5"></stop><stop offset=".66" stop-color="#c97aec"></stop><stop offset=".84" stop-color="#d584fa"></stop><stop offset="1" stop-color="#d987ff"></stop></linearGradient><radialGradient id="1777062901631-1070363_radial-gradient-10" cx="79.89" cy="887.26" fx="79.89" fy="887.26" r="51.72" gradientTransform="matrix(1 0 0 .87 0 -447.37)" gradientUnits="userSpaceOnUse"><stop offset="0" stop-color="#692d7d"></stop><stop offset=".09" stop-color="#692d7d"></stop><stop offset=".28" stop-color="#8b49a5"></stop><stop offset=".49" stop-color="#ad63cc"></stop><stop offset=".69" stop-color="#c677e8"></stop><stop offset=".87" stop-color="#d483f9"></stop><stop offset="1" stop-color="#d987ff"></stop></radialGradient><linearGradient id="1777062901631-1070363_linear-gradient-14" x1="311.71" y1="-677.83" x2="282.2" y2="-664.09" gradientTransform="matrix(-1.06945 .03417 -.044 -1.07915 376.11 -411.42)" gradientUnits="userSpaceOnUse"><stop offset="0" stop-color="#692d7d"></stop><stop offset=".07" stop-color="#76378c"></stop><stop offset=".27" stop-color="#9954b5"></stop><stop offset=".47" stop-color="#b56ad5"></stop><stop offset=".66" stop-color="#c97aec"></stop><stop offset=".84" stop-color="#d584fa"></stop><stop offset="1" stop-color="#d987ff"></stop></linearGradient><radialGradient id="1777062901631-1070363_radial-gradient-11" cx="64.02" cy="772.54" fx="64.02" fy="772.54" r="45.58" gradientTransform="matrix(1 0 0 .87 0 -447.37)" gradientUnits="userSpaceOnUse"><stop offset="0" stop-color="#692d7d"></stop><stop offset=".09" stop-color="#692d7d"></stop><stop offset=".28" stop-color="#8b49a5"></stop><stop offset=".49" stop-color="#ad63cc"></stop><stop offset=".69" stop-color="#c677e8"></stop><stop offset=".87" stop-color="#d483f9"></stop><stop offset="1" stop-color="#d987ff"></stop></radialGradient><linearGradient id="1777062901631-1070363_linear-gradient-15" x1="53.83" y1="745.08" x2="82" y2="724.09" gradientTransform="translate(0 -512)" gradientUnits="userSpaceOnUse"><stop offset="0" stop-color="#692d7d"></stop><stop offset=".07" stop-color="#76378c"></stop><stop offset=".27" stop-color="#9954b5"></stop><stop offset=".47" stop-color="#b56ad5"></stop><stop offset=".66" stop-color="#c97aec"></stop><stop offset=".84" stop-color="#d584fa"></stop><stop offset="1" stop-color="#d987ff"></stop></linearGradient><radialGradient id="1777062901631-1070363_radial-gradient-12" cx="93.72" cy="635.81" fx="93.72" fy="635.81" r="45.07" gradientTransform="matrix(1 0 0 .87 0 -447.37)" gradientUnits="userSpaceOnUse"><stop offset="0" stop-color="#692d7d"></stop><stop offset=".09" stop-color="#692d7d"></stop><stop offset=".28" stop-color="#8b49a5"></stop><stop offset=".49" stop-color="#ad63cc"></stop><stop offset=".69" stop-color="#c677e8"></stop><stop offset=".87" stop-color="#d483f9"></stop><stop offset="1" stop-color="#d987ff"></stop></radialGradient><linearGradient id="1777062901631-1070363_linear-gradient-16" x1="86.17" y1="611.2" x2="112.29" y2="635.78" gradientTransform="translate(0 -512)" gradientUnits="userSpaceOnUse"><stop offset="0" stop-color="#692d7d"></stop><stop offset=".07" stop-color="#76378c"></stop><stop offset=".27" stop-color="#9954b5"></stop><stop offset=".47" stop-color="#b56ad5"></stop><stop offset=".66" stop-color="#c97aec"></stop><stop offset=".84" stop-color="#d584fa"></stop><stop offset="1" stop-color="#d987ff"></stop></linearGradient><radialGradient id="1777062901631-1070363_radial-gradient-13" cx="74.26" cy="696.24" fx="74.26" fy="696.24" r="48.65" gradientTransform="matrix(1 0 0 .87 0 -447.37)" gradientUnits="userSpaceOnUse"><stop offset="0" stop-color="#692d7d"></stop><stop offset=".09" stop-color="#692d7d"></stop><stop offset=".28" stop-color="#8b49a5"></stop><stop offset=".49" stop-color="#ad63cc"></stop><stop offset=".69" stop-color="#c677e8"></stop><stop offset=".87" stop-color="#d483f9"></stop><stop offset="1" stop-color="#d987ff"></stop></radialGradient><linearGradient id="1777062901631-1070363_linear-gradient-17" x1="64.53" y1="670.27" x2="101.4" y2="672.83" gradientTransform="translate(0 -512)" gradientUnits="userSpaceOnUse"><stop offset="0" stop-color="#692d7d"></stop><stop offset=".07" stop-color="#76378c"></stop><stop offset=".27" stop-color="#9954b5"></stop><stop offset=".47" stop-color="#b56ad5"></stop><stop offset=".66" stop-color="#c97aec"></stop><stop offset=".84" stop-color="#d584fa"></stop><stop offset="1" stop-color="#d987ff"></stop></linearGradient><radialGradient id="1777062901631-1070363_radial-gradient-14" cx="122.4" cy="825.81" fx="122.4" fy="825.81" r="56.33" gradientTransform="matrix(1 0 0 .87 0 -447.37)" gradientUnits="userSpaceOnUse"><stop offset="0" stop-color="#692d7d"></stop><stop offset=".09" stop-color="#692d7d"></stop><stop offset=".28" stop-color="#8b49a5"></stop><stop offset=".49" stop-color="#ad63cc"></stop><stop offset=".69" stop-color="#c677e8"></stop><stop offset=".87" stop-color="#d483f9"></stop><stop offset="1" stop-color="#d987ff"></stop></radialGradient><linearGradient id="1777062901631-1070363_linear-gradient-18" x1="112.27" y1="794.8" x2="138.9" y2="765.09" gradientTransform="translate(0 -512)" gradientUnits="userSpaceOnUse"><stop offset="0" stop-color="#692d7d"></stop><stop offset=".07" stop-color="#76378c"></stop><stop offset=".27" stop-color="#9954b5"></stop><stop offset=".47" stop-color="#b56ad5"></stop><stop offset=".66" stop-color="#c97aec"></stop><stop offset=".84" stop-color="#d584fa"></stop><stop offset="1" stop-color="#d987ff"></stop></linearGradient><radialGradient id="1777062901631-1070363_radial-gradient-15" cx="123.93" cy="751.55" fx="123.93" fy="751.55" r="66.64" gradientTransform="matrix(1 0 0 .87 0 -447.37)" gradientUnits="userSpaceOnUse"><stop offset="0" stop-color="#692d7d"></stop><stop offset=".09" stop-color="#692d7d"></stop><stop offset=".28" stop-color="#8b49a5"></stop><stop offset=".49" stop-color="#ad63cc"></stop><stop offset=".69" stop-color="#c677e8"></stop><stop offset=".87" stop-color="#d483f9"></stop><stop offset="1" stop-color="#d987ff"></stop></radialGradient><radialGradient id="1777062901631-1070363_radial-gradient-16" cx="187.95" cy="815.05" fx="187.95" fy="815.05" r="57.36" gradientTransform="matrix(1 0 0 .87 0 -447.37)" gradientUnits="userSpaceOnUse"><stop offset="0" stop-color="#692d7d"></stop><stop offset=".09" stop-color="#692d7d"></stop><stop offset=".28" stop-color="#8b49a5"></stop><stop offset=".49" stop-color="#ad63cc"></stop><stop offset=".69" stop-color="#c677e8"></stop><stop offset=".87" stop-color="#d483f9"></stop><stop offset="1" stop-color="#d987ff"></stop></radialGradient><radialGradient id="1777062901631-1070363_radial-gradient-17" cx="169" cy="667.56" fx="169" fy="667.56" r="65.55" gradientTransform="matrix(1 0 0 .87 0 -447.37)" gradientUnits="userSpaceOnUse"><stop offset="0" stop-color="#692d7d"></stop><stop offset=".08" stop-color="#692d7d"></stop><stop offset=".27" stop-color="#8b49a5"></stop><stop offset=".49" stop-color="#ad63cc"></stop><stop offset=".69" stop-color="#c677e8"></stop><stop offset=".87" stop-color="#d483f9"></stop><stop offset="1" stop-color="#d987ff"></stop></radialGradient></defs><path class="cls-19" d="M171.56,464.5l-25.09-8.71c1.02-6.15,3.33-14,6.91-23.56s7.51-18.86,11.78-27.91,7.94-15.96,11.01-20.74c4.44-6.83,8.62-10.24,12.55-10.24s4.35,3.76,1.28,11.27c-2.39,5.8-5.04,14.17-7.94,25.09-2.9,10.93-5.38,21.59-7.43,32.01-2.05,10.41-3.07,18.01-3.07,22.79h0Z" fill="url(#1777062901631-1070363_linear-gradient)"></path><path class="cls-16" d="M121.89,464.5c.34-4.78.26-11.01-.26-18.69s-1.54-15.71-3.07-24.07c-1.54-8.36-3.5-15.62-5.89-21.77-3.07-7.85-2.39-11.61,2.05-11.27s8.88,4.1,13.32,11.27c3.41,5.46,6.23,12.38,8.45,20.74s4.1,16.99,5.63,25.86c1.54,8.88,2.65,16.39,3.33,22.53l-23.56-4.61h0Z" fill="url(#1777062901631-1070363_linear-gradient-2)"></path><path class="cls-18" d="M267.84,167.46c-1.37,7.17-3.24,13.91-5.63,20.23-2.39,6.32-3.93,12.89-4.61,19.72s.26,14.25,2.82,22.28c2.56,8.02,7.94,17.33,16.13,27.91-1.02,8.54-4.1,14.51-9.22,17.92s-10.84,5.89-17.16,7.43c-6.32,1.54-12.29,3.5-17.92,5.89s-9.82,6.74-12.55,13.06c-2.73,6.32-2.73,16.3,0,29.96-7.85-7.85-15.11-11.69-21.77-11.52s-12.55,2.99-17.67,8.45c-5.12,5.46-9.65,12.04-13.57,19.72-3.93,7.68-7.26,14.6-9.99,20.74-7.85-6.15-13.91-11.52-18.18-16.13s-8.54-8.62-12.8-12.04-9.82-6.74-16.64-9.99c-6.82-3.25-16.39-6.74-28.68-10.5-17.75-13.66-30.13-26.89-37.13-39.69-7-12.8-10.33-24.92-9.99-36.36.34-11.44,2.9-21.85,7.68-31.24s10.24-17.5,16.39-24.33,11.61-12.12,16.39-15.88c4.78-3.76,7.17-5.63,7.17-5.63-4.1-.68-7.08-3.67-8.96-8.96s-2.3-11.86-1.28-19.72,4.01-15.88,8.96-24.07,12.55-15.36,22.79-21.51,23.56-10.24,39.95-12.29c6.15-7.17,13.49-11.27,22.02-12.29,8.54-1.02,17.33-.26,26.37,2.3,9.05,2.56,17.41,5.8,25.09,9.73s13.91,7.43,18.69,10.5,7.17,4.61,7.17,4.61c0,0-.68,2.56-2.05,7.68-1.37,5.12-1.96,11.44-1.79,18.95.17,7.51,2.39,15.36,6.66,23.56,4.27,8.19,12.04,15.36,23.3,21.51h.01Z" fill="url(#1777062901631-1070363_radial-gradient)"></path><path class="cls-37" d="M106.52,59.91c10.93,10.93,19.03,21.17,24.33,30.73,5.3,9.56,5.89,16.56,1.79,21-3.07,3.07-6.23,3.67-9.47,1.79s-6.91-4.69-11.01-8.45-8.79-7.43-14.08-11.01-11.18-5.72-17.67-6.4c-8.19-1.02-16.3-.6-24.33,1.28s-12.04,2.82-12.04,2.82c0,0,1.11-1.62,3.33-4.87s5.12-6.57,8.71-9.99,7.94-5.63,13.06-6.66c-7.51-3.07-13.14-6.91-16.9-11.52s-5.63-6.91-5.63-6.91l5.38-2.3c3.58-1.54,7.85-2.48,12.8-2.82s9.65,1.37,14.08,5.12c-1.71-6.15-1.02-11.52,2.05-16.13s6.4-8.36,9.99-11.27,5.38-4.35,5.38-4.35c0,0,.43,2.9,1.28,8.71s2.05,11.86,3.58,18.18,3.33,10.67,5.38,13.06h0ZM192.05,64.01c-10.93,10.93-19.97,19.55-27.14,25.86-7.17,6.31-13.49,7.77-18.95,4.35-3.41-2.05-4.35-4.69-2.82-7.94s4.18-6.91,7.94-11.01,7.34-8.71,10.75-13.83,5.12-10.58,5.12-16.39c0-7.85-1.54-15.19-4.61-22.02-3.07-6.83-4.61-10.24-4.61-10.24,0,0,1.96.77,5.89,2.3,3.93,1.54,8.02,3.76,12.29,6.66s7.08,6.57,8.45,11.01c2.39-7.17,6.06-12.72,11.01-16.64s7.43-5.89,7.43-5.89c0,0,1.02,1.45,3.07,4.35,2.05,2.9,3.5,6.57,4.35,11.01s-.6,9.05-4.35,13.83c6.49-2.39,12.55-2.56,18.18-.51s10.16,4.52,13.57,7.43,5.12,4.35,5.12,4.35c0,0-2.3.43-6.91,1.28s-9.99,1.88-16.13,3.07-11.95,2.56-17.41,4.1-8.88,3.16-10.24,4.87h0ZM246.85,128.53c-15.71,4.44-28.42,7.6-38.15,9.47-9.73,1.88-15.96.09-18.69-5.38-2.05-3.41-1.45-6.06,1.79-7.94s7.68-3.76,13.32-5.63,11.44-4.18,17.41-6.91,10.67-6.66,14.08-11.78c4.44-6.49,7.34-13.32,8.71-20.49,1.37-7.17,2.05-10.75,2.05-10.75,0,0,1.19,1.54,3.58,4.61s4.52,6.83,6.4,11.27c1.88,4.44,2.13,8.88.77,13.32,6.49-4.78,12.89-7.68,19.2-8.71s9.47-1.54,9.47-1.54c0,0,.09,1.71.26,5.12s-.68,7.17-2.56,11.27-5.72,7.34-11.52,9.73c6.83,1.02,12.04,3.76,15.62,8.19s5.97,8.71,7.17,12.8,1.79,6.15,1.79,6.15c0,0-2.13-.77-6.4-2.3s-9.47-3.24-15.62-5.12-11.95-3.41-17.41-4.61-9.22-1.45-11.27-.77h0ZM59.41,169.5c15.02,6.15,26.97,11.27,35.85,15.36s12.46,9.05,10.75,14.85c-1.37,3.76-3.93,5.46-7.68,5.12s-8.45-1.54-14.08-3.58-11.69-3.76-18.18-5.12-12.8-1.19-18.95.51c-8.19,2.39-15.36,5.89-21.51,10.5l-9.22,6.91s.17-1.79.51-5.38,1.37-7.68,3.07-12.29,4.78-8.28,9.22-11.01c-8.54,0-15.53-1.45-21-4.35s-8.19-4.35-8.19-4.35c0,0,1.19-1.37,3.58-4.1,2.39-2.73,5.8-5.12,10.24-7.17s9.56-2.22,15.36-.51c-4.44-4.78-6.4-9.9-5.89-15.36s1.79-10.07,3.84-13.83,3.07-5.63,3.07-5.63c0,0,1.11,1.79,3.33,5.38,2.22,3.58,4.95,7.94,8.19,13.06s6.49,9.73,9.73,13.83,5.89,6.49,7.94,7.17h.02ZM59.41,265.28c16.73,0,30.04.43,39.95,1.28,9.9.85,15.19,4.35,15.88,10.5.68,3.76-.85,6.06-4.61,6.91s-8.62,1.37-14.6,1.54c-5.97.17-12.21.77-18.69,1.79-6.49,1.02-12.29,3.41-17.41,7.17-6.49,5.12-11.61,10.93-15.36,17.41s-5.63,9.73-5.63,9.73c0,0-.6-1.79-1.79-5.38s-1.96-7.77-2.3-12.55.85-9.22,3.58-13.32c-7.85,3.07-14.94,4.18-21.25,3.33-6.32-.85-9.47-1.28-9.47-1.28,0,0,.51-1.62,1.54-4.87s3.16-6.57,6.4-9.99,7.94-5.46,14.08-6.15c-6.15-2.73-10.16-6.74-12.04-12.04s-2.73-10.07-2.56-14.34.26-6.4.26-6.4c0,0,1.79,1.37,5.38,4.1s7.94,5.8,13.06,9.22c5.12,3.42,10.07,6.49,14.85,9.22s8.36,4.1,10.75,4.1l-.02.02h0ZM262.72,265.28c-10.58-2.05-21-3.33-31.24-3.84-10.24-.51-18.52-1.37-24.84-2.56-6.32-1.19-9.3-3.67-8.96-7.43s3.07-6.23,8.19-7.43,11.52-1.79,19.2-1.79,15.53-.26,23.56-.77c8.03-.51,14.94-2.3,20.74-5.38,7.17-3.41,13.32-8.02,18.44-13.83s7.68-8.71,7.68-8.71c0,0,.26,1.88.77,5.63s.34,8.02-.51,12.8-2.99,8.88-6.4,12.29c8.19-1.71,15.36-1.62,21.51.26s9.22,2.82,9.22,2.82c0,0-.94,1.54-2.82,4.61s-4.78,6.06-8.71,8.96-8.96,4.01-15.11,3.33c5.46,4.1,8.54,8.79,9.22,14.08.68,5.29.43,9.99-.77,14.08s-1.79,6.15-1.79,6.15c0,0-1.45-1.54-4.35-4.61s-6.49-6.83-10.75-11.27-8.45-8.36-12.55-11.78-7.34-5.29-9.73-5.63v.02h0Z" fill="#893fa4"></path><path class="cls-37" d="M207.92,178.72c-2.73-2.73-3.33-5.72-1.79-8.96s3.93-6.83,7.17-10.75c3.24-3.92,6.15-8.28,8.71-13.06s3.67-10.24,3.33-16.39c5.46,0,11.01,1.96,16.64,5.89s10.07,8.88,13.32,14.85,3.67,11.86,1.28,17.67c-4.78-2.39-9.65-2.9-14.6-1.54s-9.56,3.5-13.83,6.4-8.19,5.21-11.78,6.91-6.4,1.37-8.45-1.02h0ZM160.3,104.46c-2.39-3.41-2.13-6.4.77-8.96s6.74-5.12,11.52-7.68,9.3-5.8,13.57-9.73,6.91-8.96,7.94-15.11c5.12,1.02,10.07,4.01,14.85,8.96s8.11,10.58,9.99,16.9,1.11,12.21-2.3,17.67c-4.1-3.41-9.05-5.04-14.85-4.87s-11.61,1.02-17.41,2.56-10.93,2.56-15.36,3.07c-4.44.51-7.34-.43-8.71-2.82h0ZM143.4,95.25c-4.44,1.37-7.6.34-9.47-3.07s-3.58-7.85-5.12-13.32-3.84-10.84-6.91-16.13-7.85-9.13-14.34-11.52c2.39-5.12,6.83-9.47,13.32-13.06s13.4-5.46,20.74-5.63,13.4,2.13,18.18,6.91c-4.78,3.41-7.77,8.02-8.96,13.83s-1.71,11.78-1.54,17.92,0,11.52-.51,16.13-2.3,7.26-5.38,7.94h0ZM200.24,260.67c1.02-3.41,3.93-4.87,8.71-4.35s10.58,1.62,17.41,3.33c6.83,1.71,13.74,2.82,20.74,3.33,7,.51,13.23-1.28,18.69-5.38,3.07,3.76,4.52,8.96,4.35,15.62s-2.05,12.89-5.63,18.69c-3.58,5.8-8.62,9.56-15.11,11.27-.34-5.12-3.16-9.65-8.45-13.57s-11.27-7.51-17.92-10.75-12.29-6.32-16.9-9.22-6.57-5.89-5.89-8.96h0ZM204.34,288.84c4.1-1.71,7.43-.77,9.99,2.82s5.21,8.28,7.94,14.08,6.23,11.27,10.5,16.39,10.16,8.19,17.67,9.22c-1.37,4.78-5.12,9.47-11.27,14.08-6.15,4.61-13.06,7.68-20.74,9.22-7.68,1.54-14.6.43-20.74-3.33,4.1-3.76,6.23-8.79,6.4-15.11s-.34-12.89-1.54-19.72c-1.19-6.83-2.05-12.8-2.56-17.92s.94-8.36,4.35-9.73ZM129.57,302.67c2.39,3.41,2.13,6.57-.77,9.47s-6.91,5.8-12.04,8.71-9.82,6.57-14.08,11.01-6.74,9.9-7.43,16.39c-5.8-.68-11.35-3.67-16.64-8.96s-9.05-11.35-11.27-18.18c-2.22-6.83-1.62-13.14,1.79-18.95,4.78,3.76,10.16,5.38,16.13,4.87s12.04-1.62,18.18-3.33c6.15-1.71,11.61-2.99,16.39-3.84s8.02.09,9.73,2.82h.01ZM103.45,196.65c2.73,3.07,2.9,6.15.51,9.22s-5.72,6.49-9.99,10.24-8.19,8.11-11.78,13.06-5.21,10.84-4.87,17.67c-5.46.34-11.1-1.62-16.9-5.89s-10.24-9.56-13.32-15.88-3.24-12.55-.51-18.69c4.78,2.73,9.99,3.33,15.62,1.79s11.27-3.67,16.9-6.4,10.58-4.87,14.85-6.4,7.43-1.11,9.47,1.28h.02ZM135.2,138.78c-3.07,3.07-6.49,3.84-10.24,2.3s-8.11-3.93-13.06-7.17-10.5-5.97-16.64-8.19-12.8-2.65-19.97-1.28c-1.02-4.78.17-10.07,3.58-15.88s8.28-10.67,14.6-14.6,13.23-5.38,20.74-4.35c-2.05,4.78-1.79,9.65.77,14.6s5.8,9.56,9.73,13.83,7.17,8.19,9.73,11.78,2.82,6.57.77,8.96h0ZM129.57,160.29c-.34,3.76-2.48,6.15-6.4,7.17s-8.96,1.79-15.11,2.3-12.29,1.62-18.44,3.33-11.61,5.12-16.39,10.24c-4.44-3.07-7.34-7.85-8.71-14.34-1.37-6.49-.94-13.06,1.28-19.72,2.22-6.66,6.57-11.69,13.06-15.11,1.71,5.12,5.29,8.79,10.75,11.01s11.27,3.84,17.41,4.87,11.44,2.22,15.88,3.58,6.66,3.58,6.66,6.66h.01ZM154.66,235.57c3.76,2.73,4.95,5.89,3.58,9.47s-3.76,7.68-7.17,12.29c-3.41,4.61-6.23,9.9-8.45,15.88s-2.3,12.89-.26,20.74c-6.15,1.37-12.97.26-20.49-3.33s-13.83-8.71-18.95-15.36c-5.12-6.65-7-13.91-5.63-21.77,6.15,2.05,12.04,1.96,17.67-.26s10.84-5.21,15.62-8.96,9.22-6.74,13.32-8.96,7.68-2.13,10.75.26h0Z" fill="#893fa4"></path><g><path class="cls-15" d="M151.08,481.4c1.02,2.05.6,5.38-1.28,9.99s-4.27,8.62-7.17,12.04c-2.9,3.41-5.21,4.44-6.91,3.07-8.54-6.83-16.64-16.05-24.33-27.65-7.68-11.61-15.53-23.64-23.56-36.11-8.02-12.46-16.73-23.56-26.12-33.29-9.39-9.73-19.89-15.79-31.5-18.18-8.88-2.05-12.63-4.52-11.27-7.43s6.15-4.18,14.34-3.84c10.93.34,22.62,4.27,35.08,11.78,12.46,7.51,24.41,16.73,35.85,27.65,11.44,10.93,21.42,21.94,29.96,33.03,8.54,11.1,14.17,20.74,16.9,28.94h.01Z" fill="url(#1777062901631-1070363_linear-gradient-3)"></path><path class="cls-14" d="M150.57,98.32c8.54,39.26,14.34,74,17.41,104.22,3.07,30.22,4.35,57.1,3.84,80.66-.51,23.56-1.71,44.9-3.58,64.02-1.87,19.12-3.58,37.13-5.12,54.03-1.54,16.9-1.96,33.8-1.28,50.7.68,16.9,3.76,35.08,9.22,54.54.68,2.39-1.45,4.01-6.4,4.87-4.95.85-10.16.85-15.62,0-5.46-.85-8.54-2.48-9.22-4.87-4.44-17.75-6.66-34.91-6.66-51.47s1.11-33.54,3.33-50.96,4.61-36.02,7.17-55.82c2.56-19.8,4.44-41.91,5.63-66.32s.68-51.81-1.54-82.2c-2.22-30.39-7.08-65.04-14.6-103.96-.34-2.05.85-3.16,3.58-3.33s5.63.34,8.71,1.54,4.78,2.65,5.12,4.35h0Z" fill="url(#1777062901631-1070363_linear-gradient-4)"></path><path class="cls-11" d="M161.32,507.52c.68,2.05-1.02,3.33-5.12,3.84s-8.54.43-13.32-.26-7.85-1.88-9.22-3.58c-9.56-11.27-18.1-24.33-25.61-39.18-7.51-14.85-13.32-29.62-17.41-44.3-4.1-14.68-5.63-27.14-4.61-37.39.68-6.49,2.05-9.99,4.1-10.5s4.27.85,6.66,4.1,4.27,7.08,5.63,11.52c6.15,16.05,13.23,30.56,21.25,43.53,8.02,12.97,15.53,25.18,22.53,36.62s12.04,23.3,15.11,35.59h.01Z" fill="url(#1777062901631-1070363_linear-gradient-5)"></path><path class="cls-12" d="M158.76,481.4c2.73-8.19,7.77-17.24,15.11-27.14s16.05-19.72,26.12-29.45c10.07-9.73,20.74-18.01,32.01-24.84,11.27-6.83,22.19-11.1,32.78-12.8,8.54-1.02,13.57-.17,15.11,2.56s-1.96,5.46-10.5,8.19c-11.27,4.1-21,10.67-29.19,19.72s-15.71,19.2-22.53,30.47c-6.83,11.27-13.74,22.11-20.74,32.52-7,10.41-14.77,19.03-23.3,25.86-1.71,1.37-3.93.34-6.66-3.07-2.73-3.41-5.04-7.43-6.91-12.04s-2.3-7.94-1.28-9.99h-.02,0Z" fill="url(#1777062901631-1070363_linear-gradient-6)"></path><path class="cls-10" d="M146.47,507.52c3.41-12.29,6.83-25.78,10.24-40.46,3.41-14.68,8.45-28.42,15.11-41.23,6.66-12.8,16.47-22.62,29.45-29.45,7.17-4.1,12.8-5.12,16.9-3.07s2.9,5.63-3.58,10.75c-9.22,7.51-15.28,15.62-18.18,24.33s-4.61,17.5-5.12,26.37c-.51,8.88-1.62,17.75-3.33,26.63s-6.15,17.58-13.32,26.12c-1.71,1.71-4.87,2.9-9.47,3.58s-8.96.77-13.06.26-5.97-1.79-5.63-3.84h-.01Z" fill="url(#1777062901631-1070363_linear-gradient-7)"></path></g><g><path class="cls-8" d="M277.06,207.4c4.78,1.02,9.39,3.41,13.83,7.17,4.44,3.76,7.51,10.07,9.22,18.95-3.76-3.07-7.17-4.52-10.24-4.35s-6.66.09-10.75-.26c2.39,5.12,2.3,10.07-.26,14.85-2.56,4.78-6.57,8.19-12.04,10.24-2.73-2.73-4.27-6.06-4.61-9.99s-1.02-8.11-2.05-12.55-4.1-8.88-9.22-13.32c-4.44-3.41-5.97-6.66-4.61-9.73-3.41-2.73-5.04-5.89-4.87-9.47s.09-7.26-.26-11.01-2.56-7.68-6.66-11.78c3.07-1.02,6.32-.94,9.73.26s6.49,3.16,9.22,5.89c0-3.41.26-6.32.77-8.71.51-2.39,2.82-4.44,6.91-6.15,5.8,5.46,8.36,12.29,7.68,20.49,2.39-2.05,5.63-3.41,9.73-4.1,3.76,3.07,5.38,6.91,4.87,11.52s-2.65,8.62-6.4,12.04h0Z" fill="url(#1777062901631-1070363_radial-gradient-2)"></path><path class="cls-17" d="M260.67,174.11c1.71,3.76,2.73,8.28,3.07,13.57s-.6,10.5-2.82,15.62-6.06,9.05-11.52,11.78c11.95-9.56,15.71-23.22,11.27-40.97h0Z" fill="#9250af"></path><path class="cls-17" d="M295.5,226.86c-5.12-6.15-12.04-9.73-20.74-10.75s-16.13-2.05-22.28-3.07c3.07,0,7.77.17,14.08.51s12.29,1.54,17.92,3.58,9.3,5.29,11.01,9.73h0Z" fill="#9250af"></path><path class="cls-17" d="M278.6,187.94c.68,5.12-1.79,10.67-7.43,16.64-5.64,5.97-12.04,8.96-19.2,8.96,4.44-.34,9.82-3.07,16.13-8.19s9.82-10.93,10.5-17.41ZM240.7,177.7c4.78,3.07,8.88,7.43,12.29,13.06,3.41,5.63,3.24,11.86-.51,18.69,1.37-5.8,1.37-11.27,0-16.39s-5.29-10.24-11.78-15.36ZM269.38,243.76c2.05-6.83,1.28-12.97-2.3-18.44s-8.45-9.05-14.6-10.75c3.41.34,7.08,1.88,11.01,4.61s6.66,6.32,8.19,10.75.77,9.05-2.3,13.83h0Z" fill="#9250af"></path><path class="cls-9" d="M252.99,213.55c5.46,3.07,7.68,6.83,6.66,11.27s-4.35,6.74-9.99,6.91-12.72-4.35-21.25-13.57c3.41-2.05,5.72-4.95,6.91-8.71s2.65-7.08,4.35-9.99,4.44-4.01,8.19-3.33c2.39.68,3.67,2.22,3.84,4.61s.17,4.95,0,7.68.26,4.44,1.28,5.12h.01Z" fill="url(#1777062901631-1070363_linear-gradient-8)"></path><path class="cls-17" d="M234.55,219.18c10.93-2.05,17.58-4.95,19.97-8.71.68,2.05-1.11,4.27-5.38,6.66s-9.13,3.07-14.6,2.05h.01Z" fill="#9250af"></path><path class="cls-7" d="M293.45,157.21c-4.78-2.05-8.62-2.56-11.52-1.54s-6.4,1.71-10.5,2.05c4.1,4.78,5.55,9.73,4.35,14.85s-4.01,9.22-8.45,12.29c-3.76-1.71-6.32-4.44-7.68-8.19-1.37-3.76-3.16-7.68-5.38-11.78s-6.57-7.68-13.06-10.75c-5.12-2.39-7.51-5.29-7.17-8.71-3.76-1.71-6.15-4.27-7.17-7.68s-2.22-7-3.58-10.75-4.61-7-9.73-9.73c2.39-1.71,5.55-2.39,9.47-2.05s7.43,1.54,10.5,3.58c-1.02-3.07-1.62-5.89-1.79-8.45s1.45-5.21,4.87-7.94c7.51,4.1,11.95,10.24,13.32,18.44,1.71-2.73,4.44-4.78,8.19-6.15,4.78,2.05,7.6,5.29,8.45,9.73s-.09,8.88-2.82,13.32c4.78-.34,9.82.85,15.11,3.58s10.16,8.02,14.6,15.88h-.01Z" fill="url(#1777062901631-1070363_radial-gradient-3)"></path><path class="cls-17" d="M238.14,109.07c2.73,3.07,4.95,7.17,6.66,12.29s2.3,10.33,1.79,15.62-3.16,9.99-7.94,14.08c8.88-12.29,8.71-26.29-.51-41.99Z" fill="#9250af"></path><path class="cls-17" d="M286.79,152.09c-6.49-4.78-14.42-6.57-23.81-5.38s-17.16,2.13-23.3,2.82c3.07-1.02,7.85-2.05,14.34-3.07,6.49-1.02,12.8-1.37,18.95-1.02s10.75,2.56,13.83,6.66h0Z" fill="#9250af"></path><path class="cls-17" d="M259.14,118.29c2.39,4.78,1.28,10.84-3.33,18.18s-10.5,11.86-17.67,13.57c3.07-.68,6.4-2.73,9.99-6.15s6.57-7.43,8.96-12.04c2.39-4.61,3.07-9.13,2.05-13.57h0ZM219.7,117.78c5.46,1.37,10.67,4.44,15.62,9.22s6.74,10.93,5.38,18.44c-.34-6.15-1.96-11.52-4.87-16.13-2.91-4.61-8.28-8.45-16.13-11.52h0ZM266.31,174.63c0-7.17-2.48-12.97-7.43-17.41s-10.67-6.66-17.16-6.66c3.41-.68,7.43-.09,12.04,1.79s8.28,4.69,11.01,8.45,3.24,8.36,1.54,13.83h0Z" fill="#9250af"></path><path class="cls-13" d="M242.24,149.02c6.15,1.71,9.39,4.87,9.73,9.47s-2.22,7.68-7.68,9.22-13.66-1.28-24.58-8.45c2.39-2.73,3.76-6.06,4.1-9.99s.85-7.43,1.54-10.5,2.9-4.78,6.66-5.12c2.73,0,4.52,1.19,5.38,3.58s1.54,4.87,2.05,7.43,1.45,4.01,2.82,4.35h-.02Z" fill="url(#1777062901631-1070363_linear-gradient-9)"></path><path class="cls-17" d="M225.34,158.75c10.24-4.44,16.05-8.88,17.41-13.32,1.37,2.05.34,4.69-3.07,7.94s-8.19,5.04-14.34,5.38h0Z" fill="#9250af"></path><path class="cls-4" d="M255.04,102.42c-4.1-3.07-7.68-4.35-10.75-3.84s-6.66.6-10.75.26c2.73,5.12,2.99,10.16.77,15.11s-5.89,8.62-11.01,11.01c-3.07-2.73-4.95-5.97-5.63-9.73s-1.62-7.85-2.82-12.29-4.52-8.71-9.99-12.8c-4.78-3.41-6.66-6.66-5.63-9.73-3.41-2.39-5.21-5.38-5.38-8.96s-.6-7.26-1.28-11.01-3.24-7.51-7.68-11.27c3.07-1.37,6.4-1.54,9.99-.51s6.74,2.9,9.47,5.63c-.34-3.41-.34-6.4,0-8.96s2.56-4.87,6.66-6.91c6.15,5.46,9.22,12.29,9.22,20.49,2.05-2.39,5.12-3.93,9.22-4.61,4.1,2.73,6.06,6.4,5.89,11.01s-1.96,8.79-5.38,12.55c4.78.34,9.56,2.3,14.34,5.89s8.36,9.82,10.75,18.69v-.02h0Z" fill="url(#1777062901631-1070363_radial-gradient-4)"></path><path class="cls-17" d="M211,45.57c2.73,5.12,4.27,11.95,4.61,20.49.34,8.54-3.58,15.19-11.78,19.97,10.58-9.9,12.97-23.39,7.17-40.46ZM249.92,95.76c-5.8-5.8-13.06-8.79-21.77-8.96s-16.13-.26-22.28-.26c3.41-.68,8.19-1.11,14.34-1.28s12.04.43,17.67,1.79,9.65,4.27,12.04,8.71h0Z" fill="#9250af"></path><path class="cls-17" d="M229.95,57.86c1.02,5.12-1.02,10.84-6.15,17.16-5.12,6.32-11.27,9.65-18.44,9.99,4.44-.34,9.56-3.24,15.36-8.71s8.88-11.61,9.22-18.44h0ZM191.54,50.69c4.78,2.39,9.13,6.91,13.06,13.57,3.93,6.66,3.67,13.23-.77,19.72,2.05-5.8,2.13-11.69.26-17.67-1.87-5.98-6.06-11.18-12.55-15.62h0ZM224.82,114.19c1.71-6.83.51-12.8-3.58-17.92s-9.22-8.36-15.36-9.73c3.41,0,7.17,1.28,11.27,3.84s7.08,5.97,8.96,10.24,1.45,8.79-1.28,13.57h-.01Z" fill="#9250af"></path><path class="cls-28" d="M206.39,85c5.8,3.07,8.36,6.83,7.68,11.27s-3.84,6.91-9.47,7.43-13.06-3.5-22.28-12.04c3.07-2.39,5.12-5.55,6.15-9.47s2.22-7.34,3.58-10.24,3.93-4.01,7.68-3.33c2.73.34,4.27,1.71,4.61,4.1s.43,4.87.26,7.43.43,4.18,1.79,4.87v-.02h0Z" fill="url(#1777062901631-1070363_linear-gradient-10)"></path><path class="cls-17" d="M187.95,91.66c10.93-2.39,17.58-5.63,19.97-9.73.68,2.05-1.02,4.44-5.12,7.17s-9.05,3.58-14.85,2.56Z" fill="#9250af"></path><path class="cls-3" d="M156.2,20.48c6.15-1.37,11.52-.26,16.13,3.33s7.6,8.11,8.96,13.57c-3.41,2.73-7.34,3.84-11.78,3.33s-9.13-.68-14.08-.51-10.33,2.48-16.13,6.91c-4.78,3.76-8.71,4.95-11.78,3.58-3.76,2.39-7.51,3.24-11.27,2.56s-7.77-1.19-12.04-1.54-8.96,1.37-14.08,5.12c-.68-3.41,0-6.83,2.05-10.24s4.78-6.15,8.19-8.19c-3.76-.34-6.91-1.02-9.47-2.05s-4.35-3.76-5.38-8.19c7.51-5.12,15.53-6.49,24.07-4.1-2.05-2.73-2.9-6.32-2.56-10.75,4.1-3.41,8.54-4.44,13.32-3.07s8.71,4.27,11.78,8.71c2.05-4.78,5.55-9.05,10.5-12.8,4.95-3.76,12.38-5.8,22.28-6.15-4.1,3.41-6.23,6.66-6.4,9.73-.17,3.07-.94,6.66-2.3,10.75h-.01Z" fill="url(#1777062901631-1070363_radial-gradient-5)"></path><path class="cls-17" d="M92.7,29.69c4.44-1.02,9.47-1.28,15.11-.77s10.93,2.13,15.88,4.87c4.95,2.74,8.45,7.34,10.5,13.83-7.85-13.32-21.68-19.29-41.48-17.92h-.01Z" fill="#9250af"></path><path class="cls-17" d="M156.71,3.57c-7.51,4.1-12.72,10.67-15.62,19.72-2.9,9.05-5.38,16.47-7.43,22.28.34-3.07,1.37-7.77,3.07-14.08s4.18-12.29,7.43-17.92,7.43-8.96,12.55-9.99h0ZM111.13,14.33c5.8,0,11.18,3.41,16.13,10.24s6.74,13.83,5.38,21c.68-4.44-.94-10.33-4.87-17.67s-9.47-11.86-16.64-13.57Z" fill="#9250af"></path><path class="cls-17" d="M93.21,50.69c4.1-4.44,9.9-7.6,17.41-9.47s14.85-.43,22.02,4.35c-6.15-2.05-12.63-3.07-19.46-3.07s-13.49,2.73-19.97,8.19ZM170.54,33.28c-7.17-3.41-14.17-3.84-21-1.28s-11.61,6.91-14.34,13.06c.68-3.76,2.99-7.26,6.91-10.5s8.45-5.29,13.57-6.15,10.07.77,14.85,4.87h0Z" fill="#9250af"></path><path class="cls-29" d="M134.18,44.03c3.41-3.41,7-5.04,10.75-4.87s6.4,1.71,7.94,4.61,1.11,6.74-1.28,11.52-7.85,9.73-16.39,14.85c-2.05-3.76-4.95-6.66-8.71-8.71s-7.08-4.1-9.99-6.15-3.5-4.95-1.79-8.71c1.02-2.39,2.9-3.41,5.63-3.07s5.46.85,8.19,1.54c2.73.69,4.61.34,5.63-1.02h.02,0Z" fill="url(#1777062901631-1070363_linear-gradient-11)"></path><path class="cls-17" d="M136.74,64.52c0-11.61-1.88-19.12-5.63-22.53,2.73-.34,4.95,1.88,6.66,6.66s1.37,10.07-1.02,15.88h0Z" fill="#9250af"></path><path class="cls-2" d="M177.2,346.71c4.1,1.37,8.19,2.3,12.29,2.82s8.19-.26,12.29-2.3c-1.02,10.58-5.46,17.16-13.32,19.72s-15.19,1.79-22.02-2.3c2.73,4.1,4.44,8.28,5.12,12.55s-1.71,8.62-7.17,13.06c-3.76-2.73-7.08-4.52-9.99-5.38s-5.38-1.88-7.43-3.07-3.41-3.67-4.1-7.43c-4.44,4.78-9.82,7.43-16.13,7.94s-12.72-.43-19.2-2.82c2.39-7.51,6.06-12.72,11.01-15.62s9.65-5.38,14.08-7.43c-6.49,1.02-11.78-.09-15.88-3.33s-6.91-7.51-8.45-12.8-1.62-10.33-.26-15.11c6.49.34,11.27,1.79,14.34,4.35s5.8,5.12,8.19,7.68,5.8,3.67,10.24,3.33c-6.49-5.12-8.54-11.18-6.15-18.18s6.57-13.49,12.55-19.46c5.97-5.97,11.35-9.99,16.13-12.04-1.71,6.49-2.3,11.95-1.79,16.39.51,4.44,1.28,8.45,2.3,12.04s1.02,7.43,0,11.52c5.46-2.39,10.75-4.01,15.88-4.87,5.12-.85,9.9-3.67,14.34-8.45,1.02,7.51-.17,13.74-3.58,18.69s-7.85,8.45-13.32,10.5h.03,0Z" fill="url(#1777062901631-1070363_radial-gradient-6)"></path><path class="cls-17" d="M111.64,333.91c4.78,6.83,11.1,11.52,18.95,14.08,7.85,2.56,14.51,3.16,19.97,1.79-8.54,2.73-16.47,2.3-23.81-1.28s-12.38-8.45-15.11-14.6h0ZM196.66,354.9c-7.17,5.46-14.34,7.51-21.51,6.15-7.17-1.37-15.19-5.12-24.07-11.27,8.19,4.78,15.96,7.85,23.3,9.22,7.34,1.37,14.94,0,22.79-4.1h-.51ZM157.74,298.06c-6.83,8.88-10.16,17.58-9.99,26.12s1.11,17.07,2.82,25.61c-4.78-9.9-6.15-19.72-4.1-29.45,2.05-9.73,5.8-17.16,11.27-22.28h0ZM163.37,382.56c-6.49-2.39-10.33-5.29-11.52-8.71s-1.45-7.17-.77-11.27.68-8.02,0-11.78c1.37,5.12,1.88,9.39,1.54,12.8s0,6.57,1.02,9.47,4.27,6.06,9.73,9.47v.02h0ZM119.84,373.34c15.02-5.12,25.26-12.63,30.73-22.53-3.07,7.17-6.57,12.46-10.5,15.88-3.93,3.41-10.67,5.63-20.23,6.66h0Z" fill="#9250af"></path><path class="cls-17" d="M191.54,326.23c-5.8,6.83-11.35,12.29-16.64,16.39-5.29,4.1-13.4,6.49-24.33,7.17,7.85-1.37,13.83-3.24,17.92-5.63s7.77-5.12,11.01-8.19,7.26-6.32,12.04-9.73h0Z" fill="#9250af"></path><path class="cls-1" d="M233.02,213.55c4.44,2.05,9.13,4.52,14.08,7.43s8.79,8.11,11.52,15.62c-6.49,2.73-12.97,3.76-19.46,3.07s-11.95-3.41-16.39-8.19c-.68,4.1-2.05,6.66-4.1,7.68s-4.52,1.96-7.43,2.82-6.23,2.65-9.99,5.38c-5.46-4.44-7.85-8.79-7.17-13.06s2.56-8.28,5.63-12.04c-7.17,3.76-14.68,4.35-22.53,1.79-7.85-2.56-12.29-9.13-13.32-19.72,4.1,2.05,8.19,2.82,12.29,2.3s8.19-1.28,12.29-2.3c-5.46-2.05-9.82-5.63-13.06-10.75s-4.52-11.27-3.84-18.44c4.44,4.44,9.22,7.08,14.34,7.94s10.41,2.48,15.88,4.87c-1.02-3.76-1.02-7.51,0-11.27,1.02-3.76,1.79-7.85,2.3-12.29s-.09-9.9-1.79-16.39c4.78,2.05,10.16,6.06,16.13,12.04,5.97,5.98,10.16,12.46,12.55,19.46s.34,13.06-6.15,18.18c4.44.34,7.85-.68,10.24-3.07s5.12-4.95,8.19-7.68,7.85-4.1,14.34-4.1c1.37,4.78,1.28,9.73-.26,14.85s-4.35,9.3-8.45,12.55-9.39,4.35-15.88,3.33h.04,0Z" fill="url(#1777062901631-1070363_radial-gradient-7)"></path><path class="cls-17" d="M254.02,191.53c-2.39,5.8-7.94,10.41-16.64,13.83s-17.16,3.41-25.35,0c5.12,1.71,12.21,1.54,21.25-.51s15.96-6.49,20.74-13.32h0ZM169,212.52c15.71,7.85,30.04,5.46,43.02-7.17-6.49,7.85-13.49,12.29-21,13.32s-14.85-1.02-22.02-6.15h0ZM207.92,155.68c5.46,5.12,9.39,12.46,11.78,22.02s-.17,18.78-7.68,27.65c4.1-7.85,6.15-15.96,6.15-24.33s-3.41-16.81-10.24-25.35h0ZM202.29,239.67c5.46-3.41,8.62-6.74,9.47-9.99s.94-6.74.26-10.5-.68-8.02,0-12.8c-.34,3.76.09,7.77,1.28,12.04s1.28,8.36.26,12.29-4.78,6.91-11.27,8.96h0ZM245.82,230.45c-9.56-1.02-16.3-3.67-20.23-7.94s-7.94-9.65-12.04-16.13c3.41,4.78,7.68,9.3,12.8,13.57,5.12,4.27,11.61,7.77,19.46,10.5h0ZM174.12,183.33c5.8,6.83,10.75,11.44,14.85,13.83s11.44,4.78,22.02,7.17c-7.17-2.73-12.55-4.95-16.13-6.66s-6.74-3.58-9.47-5.63-6.49-4.95-11.27-8.71h0Z" fill="#9250af"></path><path class="cls-6" d="M298.57,272.96c.68,4.44-.68,8.28-4.1,11.52s-7.85,5.21-13.32,5.89c3.07,3.41,4.95,7.85,5.63,13.32.68,5.46-1.19,12.12-5.63,19.97-1.02-4.78-2.82-7.94-5.38-9.47s-5.21-3.67-7.94-6.4c-2.05,5.8-5.72,9.73-11.01,11.78-5.29,2.05-10.67,2.39-16.13,1.02-.34-3.76.68-7.17,3.07-10.24s4.78-6.66,7.17-10.75,3.07-9.39,2.05-15.88c-.68-5.12.51-8.54,3.58-10.24-.68-4.1.17-7.43,2.56-9.99s4.87-5.46,7.43-8.71,3.5-7.6,2.82-13.06c3.41,1.02,6.06,2.99,7.94,5.89s2.82,6.23,2.82,9.99c2.05-2.73,4.18-4.95,6.4-6.66s5.55-2.05,9.99-1.02c.68,7.85-2.22,14.68-8.71,20.49,3.41-.34,7,.51,10.75,2.56h.01Z" fill="url(#1777062901631-1070363_radial-gradient-8)"></path><path class="cls-17" d="M291.4,255.03c-1.37,3.76-3.84,7.85-7.43,12.29s-8.11,8.11-13.57,11.01c-5.46,2.9-11.44,3.84-17.92,2.82,7.51-.34,14.85-2.82,22.02-7.43s12.8-10.84,16.9-18.69h0Z" fill="#9250af"></path><path class="cls-17" d="M281.67,315.98c.34-7.85-2.56-14.68-8.71-20.49-6.15-5.8-11.1-10.75-14.85-14.85,2.39,1.71,5.89,4.44,10.5,8.19s8.45,8.02,11.52,12.8c3.07,4.78,3.58,9.56,1.54,14.34h0Z" fill="#9250af"></path><path class="cls-17" d="M295.5,275.52c-3.07,4.44-8.79,7.43-17.16,8.96-8.36,1.54-15.28.26-20.74-3.84,3.41,2.39,9.39,3.33,17.92,2.82,8.53-.51,15.19-3.16,19.97-7.94h0ZM272.96,246.84c2.05,4.78,2.39,10.33,1.02,16.64-1.37,6.31-5.8,11.18-13.32,14.6,5.12-3.76,8.88-8.02,11.27-12.8,2.39-4.78,2.73-10.93,1.02-18.44h.01ZM249.41,313.93c6.49-4.1,10.24-9.22,11.27-15.36,1.03-6.14-.34-11.78-4.1-16.9,2.73,2.39,4.61,5.8,5.63,10.24s.68,8.79-1.02,13.06c-1.71,4.27-5.63,7.26-11.78,8.96Z" fill="#9250af"></path><path class="cls-30" d="M258.11,281.16c1.37,4.44,1.11,8.02-.77,10.75s-4.52,4.1-7.94,4.1-6.49-1.88-9.22-5.63c-2.73-3.75-4.27-10.07-4.61-18.95,4.1,0,8.02-1.11,11.78-3.33s7.17-4.01,10.24-5.38,5.8-.51,8.19,2.56c1.71,1.71,1.79,3.58.26,5.63s-3.33,4.01-5.38,5.89-2.9,3.33-2.56,4.35h0Z" fill="url(#1777062901631-1070363_linear-gradient-12)"></path><path class="cls-17" d="M239.68,275.01c9.9,4.78,17.24,6.32,22.02,4.61-1.02,2.05-4.01,2.82-8.96,2.3s-9.3-2.82-13.06-6.91h0Z" fill="#9250af"></path><path class="cls-5" d="M254.53,356.44c2.73,2.05,4.61,5.12,5.63,9.22-3.76,3.76-8.36,5.55-13.83,5.38s-10.41-2.13-14.85-5.89c-.68,4.78-3.24,9.39-7.68,13.83s-11.95,7.68-22.53,9.73c3.76-4.1,5.38-7.6,4.87-10.5s-.6-6.23-.26-9.99c-6.15,2.39-12.12,2.39-17.92,0s-10.07-5.97-12.8-10.75c3.07-3.07,7-4.78,11.78-5.12s9.82-1.11,15.11-2.3,10.5-4.35,15.62-9.47c4.1-4.44,8.02-6.15,11.78-5.12,3.07-3.07,6.66-4.61,10.75-4.61s8.54-.26,13.32-.77,9.39-2.82,13.83-6.91c1.37,2.73,1.37,5.8,0,9.22s-3.58,6.49-6.66,9.22c4.1-.34,7.68-.34,10.75,0s5.63,2.56,7.68,6.66c-6.49,5.8-14.68,8.54-24.58,8.19v-.02h0Z" fill="url(#1777062901631-1070363_radial-gradient-9)"></path><path class="cls-17" d="M270.92,348.25c-4.1,1.71-9.47,2.82-16.13,3.33-6.66.51-13.14-.09-19.46-1.79-6.32-1.7-11.35-5.12-15.11-10.24,5.8,5.12,13.23,8.45,22.28,9.99,9.05,1.54,18.52,1.11,28.42-1.28h0Z" fill="#9250af"></path><path class="cls-17" d="M208.95,383.58c7.17-5.12,11.27-11.95,12.29-20.49,1.02-8.54,1.88-15.71,2.56-21.51.34,3.41.43,8.02.26,13.83-.17,5.8-1.37,11.52-3.58,17.16-2.22,5.63-6.06,9.3-11.52,11.01h0Z" fill="#9250af"></path><path class="cls-17" d="M255.04,365.66c-6.15,1.02-12.89-1.02-20.23-6.15s-11.18-11.1-11.52-17.92c.34,4.1,3.76,9.05,10.24,14.85,6.49,5.8,13.66,8.88,21.51,9.22Z" fill="#9250af"></path><path class="cls-17" d="M265.28,328.79c-3.07,4.78-8.79,9.05-17.16,12.8-8.36,3.76-16.81,3.93-25.35.51,7.17,1.02,14.68.68,22.53-1.02s14.51-5.8,19.97-12.29h.01ZM187.44,359c8.54,2.05,15.96,1.19,22.28-2.56,6.32-3.76,10.33-8.71,12.04-14.85,0,3.41-1.62,7.08-4.87,11.01-3.24,3.93-7.43,6.74-12.55,8.45s-10.75,1.02-16.9-2.05h0Z" fill="#9250af"></path><path class="cls-31" d="M223.29,342.61c-2.73,4.1-6.06,6.32-9.99,6.66s-7.08-.68-9.47-3.07-2.9-5.89-1.54-10.5,6.15-10.16,14.34-16.64c2.73,3.07,6.4,5.12,11.01,6.15s8.62,2.22,12.04,3.58,4.78,3.93,4.1,7.68c-.34,2.39-2.05,3.76-5.12,4.1s-6.15.43-9.22.26-5.12.43-6.15,1.79h0Z" fill="url(#1777062901631-1070363_linear-gradient-13)"></path><path class="cls-17" d="M216.12,324.69c2.73,10.24,6.49,16.56,11.27,18.95-2.73,1.02-5.63-.51-8.71-4.61-3.08-4.1-3.93-8.88-2.56-14.34h0Z" fill="#9250af"></path><path class="cls-24" d="M105.5,363.1c-3.07,1.71-6.57,2.05-10.5,1.02s-7.43-2.9-10.5-5.63c.34,3.41.43,6.57.26,9.47s-2.3,5.38-6.4,7.43c-7.17-5.46-10.75-12.63-10.75-21.51-2.39,2.73-5.8,4.61-10.24,5.63-4.44-3.07-6.66-7.08-6.66-12.04s1.88-9.47,5.63-13.57c-5.46-.68-10.75-2.82-15.88-6.4s-9.22-9.99-12.29-19.2c4.78,3.07,8.71,4.27,11.78,3.58s6.83-1.02,11.27-1.02c-3.07-5.46-3.5-10.84-1.28-16.13s5.89-9.3,11.01-12.04c3.76,2.39,5.97,5.72,6.66,9.99s1.88,8.79,3.58,13.57c1.71,4.78,5.46,9.22,11.27,13.32,5.12,3.41,7.34,6.83,6.66,10.24,3.41,2.73,5.29,5.97,5.63,9.73s.94,7.68,1.79,11.78,3.84,8.02,8.96,11.78h0Z" fill="url(#1777062901631-1070363_radial-gradient-10)"></path><path class="cls-17" d="M77.33,368.22c-1.71-3.76-3.16-8.45-4.35-14.08s-1.02-11.27.51-16.9,5.21-10.33,11.01-14.08c-11.27,11.61-13.66,26.63-7.17,45.07h0Z" fill="#9250af"></path><path class="cls-17" d="M34.31,314.96c6.15,5.8,14,8.88,23.56,9.22,9.56.34,17.58.68,24.07,1.02-3.76.68-8.88,1.11-15.36,1.28-6.49.17-12.89-.6-19.2-2.3s-10.67-4.78-13.06-9.22h0Z" fill="#9250af"></path><path class="cls-17" d="M57.36,354.9c-1.37-5.46.51-11.69,5.63-18.69,5.12-7,11.44-10.84,18.95-11.52-4.78.68-10.16,4.18-16.13,10.5s-8.79,12.89-8.45,19.72h0ZM98.33,362.07c-5.12-2.73-9.9-7.6-14.34-14.6-4.44-7-5.12-14.42-2.05-22.28-.68,6.49.09,13.06,2.3,19.72,2.21,6.66,6.91,12.38,14.08,17.16h0ZM59.92,293.96c-1.37,7.51.17,14,4.61,19.46s10.07,8.88,16.9,10.24c-3.76,0-7.85-1.28-12.29-3.84s-7.77-6.15-9.99-10.75-1.96-9.65.77-15.11Z" fill="#9250af"></path><path class="cls-32" d="M80.99,325.07c-6.32-3.13-9.22-7.1-8.68-11.93s3.79-7.61,9.77-8.36,14.08,3.34,24.28,12.26c-3.17,2.69-5.22,6.18-6.13,10.46s-2.04,8.02-3.37,11.2-4.01,4.47-8.04,3.86c-2.93-.28-4.62-1.7-5.09-4.28s-.67-5.25-.6-8.03-.64-4.51-2.12-5.2l-.02.02Z" fill="url(#1777062901631-1070363_linear-gradient-14)"></path><path class="cls-17" d="M100.38,317.01c-11.61,3.41-18.61,7.17-21,11.27-.68-2.05,1.02-4.61,5.12-7.68,4.1-3.07,9.39-4.27,15.88-3.58h0Z" fill="#9250af"></path><path class="cls-26" d="M89.11,259.65c-2.73,2.05-6.06,2.9-9.99,2.56s-7.43-1.54-10.5-3.58c1.02,3.41,1.62,6.49,1.79,9.22s-1.62,5.46-5.38,8.19c-7.51-4.1-11.78-10.41-12.8-18.95-2.05,2.73-4.95,4.95-8.71,6.66-4.78-2.05-7.51-5.46-8.19-10.24-.68-4.78.34-9.56,3.07-14.34-5.12.68-10.33-.34-15.62-3.07s-9.99-8.36-14.08-16.9c4.78,2.05,8.62,2.48,11.52,1.28s6.4-2.13,10.5-2.82c-3.76-4.78-4.95-9.9-3.58-15.36s4.44-10.07,9.22-13.83c3.41,2.05,5.8,5.04,7.17,8.96s3.16,8.02,5.38,12.29,6.4,7.94,12.55,11.01c5.12,2.73,7.68,5.8,7.68,9.22,3.76,1.71,6.06,4.35,6.91,7.94s1.88,7.34,3.07,11.27,4.52,7.43,9.99,10.5h0Z" fill="url(#1777062901631-1070363_radial-gradient-11)"></path><path class="cls-17" d="M63.5,268.87c-2.39-3.07-4.52-7.26-6.4-12.55s-2.48-10.75-1.79-16.39,3.41-10.84,8.19-15.62c-8.88,12.97-8.88,27.83,0,44.56h0Z" fill="#9250af"></path><path class="cls-17" d="M14.85,224.3c6.83,5.12,14.77,7,23.81,5.63,9.05-1.37,16.64-2.39,22.79-3.07-3.07,1.02-7.77,2.13-14.08,3.33s-12.55,1.62-18.69,1.28-10.75-2.73-13.83-7.17Z" fill="#9250af"></path><path class="cls-17" d="M42.51,259.65c-2.05-5.12-1.02-11.52,3.07-19.2,4.1-7.68,9.73-12.38,16.9-14.08-4.44,1.37-9.22,5.55-14.34,12.55s-7,13.91-5.63,20.74h0ZM82.45,259.65c-5.46-1.71-10.58-5.55-15.36-11.52s-6.49-12.89-5.12-20.74c.34,6.15,1.96,12.21,4.87,18.18,2.91,5.97,8.11,10.67,15.62,14.08h-.01ZM36.36,199.72c0,7.51,2.48,13.57,7.43,18.18s10.67,6.91,17.16,6.91c-3.41,1.02-7.43.6-12.04-1.28s-8.28-4.87-11.01-8.96-3.24-9.05-1.54-14.85h0Z" fill="#9250af"></path><path class="cls-33" d="M60.43,226.35c-4.44-1.37-7.34-3.67-8.71-6.91s-1.02-6.23,1.02-8.96,5.72-4.1,11.01-4.1,12.04,2.73,20.23,8.19c-2.73,3.07-4.27,6.74-4.61,11.01s-.94,8.11-1.79,11.52-3.33,5.29-7.43,5.63c-2.39,0-4.01-1.28-4.87-3.84s-1.45-5.12-1.79-7.68-1.37-4.18-3.07-4.87h.01Z" fill="url(#1777062901631-1070363_linear-gradient-15)"></path><path class="cls-17" d="M77.84,215.6c-10.24,5.12-16.22,9.9-17.92,14.34-1.37-2.05-.26-4.87,3.33-8.45,3.59-3.58,8.45-5.55,14.6-5.89h-.01Z" fill="#9250af"></path><path class="cls-21" d="M98.84,77.83c4.44-4.1,9.82-6.06,16.13-5.89s11.86,1.96,16.64,5.38c-1.37,3.76-4.1,6.57-8.19,8.45s-8.36,4.18-12.8,6.91-7.68,7-9.73,12.8c-1.71,5.12-4.61,8.02-8.71,8.71-1.37,3.41-3.93,5.8-7.68,7.17s-7.6,2.99-11.52,4.87-7.08,5.55-9.47,11.01c-2.73-2.05-4.27-4.87-4.61-8.45s.34-6.91,2.05-9.99c-3.41,1.37-6.57,2.39-9.47,3.07s-6.23-.34-9.99-3.07c3.07-7.51,9.22-12.46,18.44-14.85-3.41-1.02-6.49-3.24-9.22-6.66,1.37-4.44,4.61-7.43,9.73-8.96s10.58-1.45,16.39.26c-1.37-4.44-1.11-9.3.77-14.6s7.08-10.5,15.62-15.62c-1.37,4.78-1.19,8.36.51,10.75s3.41,5.29,5.12,8.71h0Z" fill="url(#1777062901631-1070363_radial-gradient-12)"></path><path class="cls-17" d="M48.65,116.24c4.78-4.1,11.69-7.77,20.74-11.01,9.05-3.24,18.01-2.13,26.89,3.33-15.36-5.8-31.24-3.24-47.63,7.68ZM88.6,65.03c-2.73,4.44-3.58,9.3-2.56,14.6s2.65,10.41,4.87,15.36,4.01,9.3,5.38,13.06c-1.71-2.73-4.01-6.83-6.91-12.29s-4.78-11.1-5.63-16.9.77-10.41,4.87-13.83h-.02Z" fill="#9250af"></path><path class="cls-17" d="M54.8,95.76c5.46-2.73,12.63-2.9,21.51-.51s15.02,6.66,18.44,12.8c-2.39-3.76-7.77-7.34-16.13-10.75s-16.3-3.93-23.81-1.54h-.01ZM62.48,131.09c.68-5.12,3.24-10.24,7.68-15.36s11.27-7.68,20.49-7.68c-6.83,1.37-12.63,3.76-17.41,7.17s-8.36,8.71-10.75,15.88h0ZM119.33,79.88c-8.19,1.02-14.34,4.18-18.44,9.47s-5.63,10.84-4.61,16.64c-1.37-3.07-1.45-6.83-.26-11.27s3.67-8.19,7.43-11.27,9.05-4.27,15.88-3.58h0Z" fill="#9250af"></path><path class="cls-34" d="M94.74,106c.68-4.44,2.65-7.51,5.89-9.22s6.57-1.88,9.99-.51,5.55,4.35,6.4,8.96-.94,11.01-5.38,19.2c-4.1-1.71-8.45-2.3-13.06-1.79s-8.79.68-12.55.51-6.15-2.13-7.17-5.89c-.68-2.05.26-3.67,2.82-4.87s5.29-2.22,8.19-3.07,4.52-1.96,4.87-3.33h0Z" fill="url(#1777062901631-1070363_linear-gradient-16)"></path><path class="cls-17" d="M109.6,119.32c-7.51-8.19-13.83-12.63-18.95-13.32,2.05-1.37,5.38-.77,9.99,1.79s7.6,6.4,8.96,11.52h0Z" fill="#9250af"></path><path class="cls-23" d="M79.89,154.14c2.05,5.12,1.71,8.88-1.02,11.27,1.71,3.76,1.62,7.26-.26,10.5-1.88,3.24-3.76,6.74-5.63,10.5s-1.79,8.19.26,13.32c-3.41,0-6.49-1.19-9.22-3.58s-4.61-5.46-5.63-9.22c-1.71,3.41-3.5,6.15-5.38,8.19s-5.21,3.24-9.99,3.58c-2.73-7.85-1.37-15.36,4.1-22.53-3.76,1.37-7.68,1.54-11.78.51-2.39-4.44-2.13-8.71.77-12.8,2.9-4.1,7.26-7.17,13.06-9.22-4.44-2.39-7.68-6.15-9.73-11.27s-1.71-12.29,1.02-21.51c2.05,4.44,4.61,7.08,7.68,7.94s6.49,2.3,10.24,4.35c.68-5.8,3.5-10.5,8.45-14.08s10.5-5.38,16.64-5.38c1.37,3.76,1.19,7.51-.51,11.27s-3.33,7.94-4.87,12.55-.94,9.82,1.79,15.62h.01Z" fill="url(#1777062901631-1070363_radial-gradient-13)"></path><path class="cls-17" d="M46.6,192.04c1.02-5.8,4.01-12.46,8.96-19.97,4.95-7.51,12.72-11.78,23.3-12.8-16.39,4.78-27.14,15.71-32.26,32.78h0ZM41.48,130.07c1.71,7.51,6.49,13.4,14.34,17.67s14.51,7.94,19.97,11.01c-3.41-1.02-7.94-2.9-13.57-5.63s-10.67-6.06-15.11-9.99-6.32-8.28-5.63-13.06h0Z" fill="#9250af"></path><path class="cls-17" d="M37.39,173.09c1.37-3.41,4.35-6.4,8.96-8.96s9.82-4.27,15.62-5.12,11.1-.43,15.88,1.28c-3.07-1.02-7.26-1.28-12.55-.77s-10.58,1.88-15.88,4.1-9.3,5.38-12.04,9.47h.01ZM68.11,196.14c-3.07-4.44-4.69-9.99-4.87-16.64s3.33-12.55,10.5-17.67c-4.44,5.12-7.34,10.33-8.71,15.62-1.37,5.29-.34,11.52,3.07,18.69h0ZM75.79,123.41c-5.46,5.8-7.94,11.95-7.43,18.44s3.33,11.61,8.45,15.36c-3.41-1.37-6.23-4.1-8.45-8.19s-2.9-8.54-2.05-13.32,4.01-8.88,9.47-12.29c0,0,.01,0,.01,0Z" fill="#9250af"></path><path class="cls-35" d="M75.28,158.24c-2.73-3.76-3.41-7.26-2.05-10.5s3.84-5.38,7.43-6.4,7.34,0,11.27,3.07,7.08,9.05,9.47,17.92c-4.44,1.02-8.28,3.07-11.52,6.15s-6.32,5.63-9.22,7.68-6.06,2.05-9.47,0c-2.05-1.37-2.48-3.24-1.28-5.63s2.56-4.78,4.1-7.17,1.96-4.1,1.28-5.12h0Z" fill="url(#1777062901631-1070363_linear-gradient-17)"></path><path class="cls-17" d="M96.28,159.77c-11.61-2.05-19.8-1.88-24.58.51.68-2.39,3.67-3.93,8.96-4.61s10.5.68,15.62,4.1Z" fill="#9250af"></path><path class="cls-22" d="M128.54,276.04c4.78,1.37,8.11,4.01,9.99,7.94s4.1,8.02,6.66,12.29,7.08,7.43,13.57,9.47c-2.39,3.07-5.8,4.87-10.24,5.38s-8.88-.09-13.32-1.79c2.39,3.76,4.01,7.17,4.87,10.24s-.43,6.66-3.84,10.75c-9.56-3.41-16.05-9.9-19.46-19.46-1.37,3.76-4.1,7.17-8.19,10.24-5.8-1.37-9.73-4.78-11.78-10.24s-2.05-11.27,0-17.41c-5.46,1.71-11.52,1.62-18.18-.26s-13.57-7.43-20.74-16.64c6.15,1.71,10.67,1.54,13.57-.51s6.57-3.93,11.01-5.63c-5.46-4.78-8.19-10.5-8.19-17.16s2.22-12.55,6.66-17.67c4.44,1.37,7.94,4.18,10.5,8.45s5.63,8.71,9.22,13.32c3.59,4.61,9.3,7.94,17.16,9.99,6.49,1.71,10.07,4.61,10.75,8.71h-.02Z" fill="url(#1777062901631-1070363_radial-gradient-14)"></path><path class="cls-17" d="M132.64,322.64c-3.76-3.41-7.26-7.77-10.5-13.06s-5.12-11.18-5.63-17.67,1.28-12.97,5.38-19.46c-6.49,16.73-2.9,33.46,10.75,50.19ZM66.58,281.67c5.8,2.73,11.95,3.67,18.44,2.82,6.49-.85,12.72-2.48,18.69-4.87,5.97-2.39,11.18-4.27,15.62-5.63-3.41,2.05-8.45,4.44-15.11,7.17s-13.49,4.52-20.49,5.38c-7,.85-12.72-.77-17.16-4.87h0Z" fill="#9250af"></path><path class="cls-17" d="M106.52,316.5c-2.39-3.76-3.24-8.54-2.56-14.34s2.56-11.44,5.63-16.9,7.17-9.39,12.29-11.78c-3.07,1.71-6.15,4.95-9.22,9.73s-5.38,10.24-6.91,16.39-1.28,11.78.77,16.9h0ZM151.59,307.28c-6.83-.68-13.57-3.67-20.23-8.96s-10.16-12.72-10.5-22.28c2.05,7.17,5.29,13.66,9.73,19.46,4.44,5.8,11.44,9.73,21,11.78ZM84.5,248.37c1.71,8.88,5.89,15.36,12.55,19.46s13.74,5.46,21.25,4.1c-3.76,1.71-8.45,2.05-14.08,1.02-5.63-1.03-10.5-3.58-14.6-7.68s-5.8-9.73-5.12-16.9Z" fill="#9250af"></path><path class="cls-36" d="M118.3,273.99c-5.8-.68-9.82-2.73-12.04-6.15s-2.56-6.91-1.02-10.5,5.29-5.97,11.27-7.17,14.08.43,24.33,4.87c-2.05,4.1-2.65,8.71-1.79,13.83s1.28,9.65,1.28,13.57-2.22,6.57-6.66,7.94c-3.07.68-5.38-.34-6.91-3.07s-2.9-5.63-4.1-8.71-2.65-4.61-4.35-4.61h-.01Z" fill="url(#1777062901631-1070363_linear-gradient-18)"></path><path class="cls-17" d="M134.69,257.6c-10.24,7.85-15.71,14.68-16.39,20.49-2.05-2.05-1.45-5.55,1.79-10.5s8.11-8.28,14.6-9.99Z" fill="#9250af"></path><path class="cls-27" d="M184.37,225.33c-6.15,4.1-13.4,5.63-21.77,4.61-8.36-1.02-16.47-3.58-24.33-7.68,4.1,6.15,5.63,12.12,4.61,17.92s-2.99,11.1-5.89,15.88c-2.9,4.78-5.04,9.22-6.4,13.32-9.22-10.24-14.6-18.35-16.13-24.33s-1.79-11.18-.77-15.62c-3.76,5.8-8.79,8.96-15.11,9.47s-12.63,0-18.95-1.54-11.35-2.48-15.11-2.82c3.76-6.83,7.43-11.35,11.01-13.57s7-3.41,10.24-3.58,6.49-.43,9.73-.77,6.23-2.05,8.96-5.12c-7.17,1.37-14.25.51-21.25-2.56s-13.14-6.83-18.44-11.27-9.47-7.85-12.55-10.24c7.17.34,13.91.09,20.23-.77s12.46-.94,18.44-.26,12.04,3.76,18.18,9.22c-3.07-4.44-6.74-8.19-11.01-11.27s-7.26-6.91-8.96-11.52,0-11.69,5.12-21.25c8.54,1.37,16.22,6.32,23.05,14.85,6.83,8.54,9.9,17.41,9.22,26.63,3.76-3.76,6.74-7.68,8.96-11.78s5.72-7.51,10.5-10.24c4.78-2.73,12.8-4.27,24.07-4.61,1.02,6.83-.77,13.74-5.38,20.74s-11.35,12.04-20.23,15.11c7.85.68,14,2.56,18.44,5.63s8.11,6.32,11.01,9.73,6.4,5.97,10.5,7.68h0Z" fill="url(#1777062901631-1070363_radial-gradient-15)"></path><path class="cls-17" d="M78.36,229.94c10.58,1.02,20.4-.85,29.45-5.63s13.57-10.07,13.57-15.88c0,6.15-2.39,11.1-7.17,14.85s-10.58,6.15-17.41,7.17-12.97.85-18.44-.51ZM162.86,175.14c-6.49,2.39-11.27,5.72-14.34,9.99s-6.32,8.54-9.73,12.8-9.05,7.77-16.9,10.5c6.15-3.07,11.1-7,14.85-11.78s7.43-9.3,11.01-13.57,8.62-6.91,15.11-7.94h0ZM63.5,191.01c5.12,2.39,11.52,5.12,19.2,8.19s15.11,5.55,22.28,7.43,12.63,2.48,16.39,1.79c-6.15,1.71-12.89,1.54-20.23-.51s-14.42-4.78-21.25-8.19-12.29-6.32-16.39-8.71h0ZM169,224.3c-6.49-.34-12.38-1.88-17.67-4.61s-10.33-5.29-15.11-7.68-9.56-3.24-14.34-2.56c6.15-1.37,11.44-1.11,15.88.77s9.05,4.27,13.83,7.17,10.58,5.21,17.41,6.91h0Z" fill="#9250af"></path><path class="cls-17" d="M127.52,256.05c-2.39-6.15-3.16-12.12-2.3-17.92s1.37-11.27,1.54-16.39-2.13-9.56-6.91-13.32c3.07,3.07,4.44,7.43,4.1,13.06s-.68,11.61-1.02,17.92,1.19,11.86,4.61,16.64h-.02ZM98.33,161.82c1.37,6.49,4.27,11.52,8.71,15.11s8.36,7.6,11.78,12.04,4.27,10.93,2.56,19.46c0-8.54-1.96-14.94-5.89-19.2s-7.85-8.28-11.78-12.04-5.72-8.88-5.38-15.36h0Z" fill="#9250af"></path><path class="cls-20" d="M243.77,245.3c-1.37,6.83-6.32,12.8-14.85,17.92-8.53,5.12-17.07,7.17-25.61,6.15,3.41,3.07,7.08,5.55,11.01,7.43s7.17,4.69,9.73,8.45,3.67,10.07,3.33,18.95c-6.49.34-12.97-1.28-19.46-4.87s-11.1-8.96-13.83-16.13c-1.02,6.15-3.07,10.84-6.15,14.08s-6.23,6.06-9.47,8.45-5.72,5.12-7.43,8.19c-3.76-5.12-5.04-10.93-3.84-17.41s3.84-12.8,7.94-18.95c-6.15,3.07-11.95,4.18-17.41,3.33s-10.5-2.48-15.11-4.87-8.79-4.27-12.55-5.63c9.9-6.83,17.75-10.75,23.56-11.78,5.8-1.02,10.75-1.02,14.85,0-5.12-3.07-7.85-7.08-8.19-12.04s.26-9.9,1.79-14.85c1.53-4.95,2.48-8.79,2.82-11.52,6.49,3.07,10.84,5.97,13.06,8.71s3.33,5.46,3.33,8.19.09,5.29.26,7.68,1.79,4.78,4.87,7.17c-1.02-5.8,0-11.35,3.07-16.64,3.07-5.29,6.74-9.99,11.01-14.08s7.77-7.17,10.5-9.22c-.68,5.46-.68,10.67,0,15.62s.6,9.73-.26,14.34-4.01,9.13-9.47,13.57c4.44-2.05,8.11-4.69,11.01-7.94s6.66-5.46,11.27-6.66,11.35.26,20.23,4.35h0Z" fill="url(#1777062901631-1070363_radial-gradient-16)"></path><path class="cls-17" d="M169,230.96c-1.02,8.19.68,15.36,5.12,21.51,4.44,6.15,9.39,9.9,14.85,11.27-8.88-2.05-14.94-6.49-18.18-13.32s-3.84-13.32-1.79-19.46h0ZM219.7,298.06c-2.39-5.12-5.55-9.05-9.47-11.78s-7.85-5.63-11.78-8.71c-3.93-3.08-7.08-7.68-9.47-13.83,2.73,4.78,6.32,8.88,10.75,12.29s8.62,6.74,12.55,9.99,6.4,7.26,7.43,12.04h0Z" fill="#9250af"></path><path class="cls-17" d="M206.9,220.72c-2.39,3.76-5.12,8.45-8.19,14.08s-5.63,11.1-7.68,16.39c-2.05,5.29-2.73,9.47-2.05,12.55-1.71-4.78-1.45-9.9.77-15.36s5.04-10.67,8.45-15.62,6.32-8.96,8.71-12.04h-.01ZM172.08,302.16c.34-5.12,1.96-9.9,4.87-14.34,2.9-4.44,5.55-8.54,7.94-12.29s3.41-7.51,3.07-11.27c1.02,4.78.6,8.96-1.28,12.55s-4.27,7.34-7.17,11.27-5.38,8.62-7.43,14.08h0ZM142.88,268.87c4.78-2.73,9.99-3.84,15.62-3.33,5.63.51,11.01,1.02,16.13,1.54s9.22-.43,12.29-2.82c-3.76,3.76-7.85,5.46-12.29,5.12s-9.39-.94-14.85-1.79-11.1-.43-16.9,1.28ZM234.04,248.37c-6.15-.34-11.1.85-14.85,3.58s-7.77,5.46-12.04,8.19-10.33,3.93-18.18,3.58c8.19,1.71,14.42,1.45,18.69-.77s8.19-4.95,11.78-8.19,8.45-5.38,14.6-6.4h0Z" fill="#9250af"></path><path class="cls-25" d="M201.78,138.78c4.1,2.73,8.54,5.04,13.32,6.91s10.07,2.3,15.88,1.28c-5.12,11.95-12.89,18.27-23.3,18.95s-19.03-2.39-25.86-9.22c1.71,5.46,2.3,10.93,1.79,16.39-.51,5.46-5.04,9.9-13.57,13.32-3.41-4.44-6.74-7.6-9.99-9.47s-5.8-3.76-7.68-5.63c-1.88-1.88-2.48-5.38-1.79-10.5-7.17,4.44-14.68,6.06-22.53,4.87s-15.19-4.35-22.02-9.47c6.15-8.19,12.63-13.23,19.46-15.11,6.83-1.88,13.32-3.33,19.46-4.35-8.19-.68-14.08-3.58-17.67-8.71s-5.29-11.1-5.12-17.92,1.96-12.8,5.38-17.92c7.85,2.39,13.06,5.55,15.62,9.47s4.78,7.77,6.66,11.52,5.55,6.15,11.01,7.17c-4.1-6.15-5.04-12.21-2.82-18.18s6.23-11.35,12.04-16.13c5.8-4.78,12.12-8.79,18.95-12.04s12.63-5.21,17.41-5.89c-4.78,6.83-7.6,13.06-8.45,18.69s-1.37,10.75-1.54,15.36-1.62,9.13-4.35,13.57c7.17-1.37,14-1.71,20.49-1.02s13.32-1.19,20.49-5.63c-2.05,9.22-5.97,16.3-11.78,21.25s-12.29,7.77-19.46,8.45h-.03Z" fill="url(#1777062901631-1070363_radial-gradient-17)"></path><path class="cls-17" d="M128.54,103.44c2.05,6.49,5.63,12.29,10.75,17.41s10.5,8.88,16.13,11.27,10.67,2.9,15.11,1.54c-6.83,2.73-13.4,2.56-19.72-.51s-11.52-7.43-15.62-13.06-6.32-11.18-6.66-16.64h0ZM222.26,154.65c-10.93,4.1-20.91,4.61-29.96,1.54s-16.3-10.24-21.77-21.51c5.8,9.22,13.23,15.36,22.28,18.44s18.86,3.58,29.45,1.54h0Z" fill="#9250af"></path><path class="cls-17" d="M196.66,74.76c-11.27,8.54-19.55,18.18-24.84,28.94-5.29,10.75-5.72,21.08-1.28,30.98-5.8-7.51-7.43-15.28-4.87-23.3s7-15.36,13.32-22.02,12.21-11.52,17.67-14.6h0ZM171.56,177.19c-6.83-4.78-9.99-9.9-9.47-15.36s2.22-10.84,5.12-16.13c2.9-5.29,5.04-10.16,6.4-14.6-1.02,5.8-2.73,11.1-5.12,15.88s-3.76,9.56-4.1,14.34,2.05,10.07,7.17,15.88h0Z" fill="#9250af"></path><path class="cls-17" d="M123.42,152.6c10.58-.68,20.31-2.3,29.19-4.87s14.85-7.08,17.92-13.57c-3.41,8.88-9.22,14.6-17.41,17.16s-18.1,2.99-29.7,1.28h0Z" fill="#9250af"></path><path class="cls-17" d="M226.36,118.29c-6.15,4.44-12.04,8.54-17.67,12.29-5.63,3.76-11.52,6.23-17.67,7.43s-13.32-.09-21.51-3.84c9.56,3.07,17.16,3.76,22.79,2.05s10.93-4.35,15.88-7.94,11.01-6.91,18.18-9.99h0Z" fill="#9250af"></path></g></g></svg>