<svg data-name="Layer 1" xmlns="http://www.w3.org/2000/svg" style="" viewBox="0 0 512 512.01"><g class="nc-icon-wrapper"><defs><linearGradient id="1776585740465-4336793_linear-gradient" x1="206.34" y1="-432.21" x2="488.23" y2="-434.26" gradientTransform="matrix(1 0 0 -1 0 .02)" gradientUnits="userSpaceOnUse"><stop offset="0" stop-color="#ffb300"></stop><stop offset=".51" stop-color="#ffc700"></stop><stop offset="1" stop-color="#ffd500"></stop></linearGradient><linearGradient id="1776585740465-4336793_linear-gradient-2" x1="231.96" y1="-454.42" x2="511" y2="-432.37" gradientTransform="matrix(1 0 0 -1 0 .02)" gradientUnits="userSpaceOnUse"><stop offset="0" stop-color="#f90"></stop><stop offset=".32" stop-color="#ff9600"></stop><stop offset=".59" stop-color="#ff8c00"></stop><stop offset=".83" stop-color="#ff7a00"></stop><stop offset="1" stop-color="#ff6a00"></stop></linearGradient><linearGradient id="1776585740465-4336793_linear-gradient-3" x1="180.22" y1="-441.41" x2="499.52" y2="-441.41" gradientTransform="matrix(1 0 0 -1 0 .02)" gradientUnits="userSpaceOnUse"><stop offset="0" stop-color="#ff000e"></stop><stop offset=".23" stop-color="#fa000d"></stop><stop offset=".5" stop-color="#ec000a"></stop><stop offset=".78" stop-color="#d60005"></stop><stop offset="1" stop-color="#bf0000"></stop></linearGradient><radialGradient id="1776585740465-4336793_radial-gradient" cx="372.86" cy="-36.51" fx="372.86" fy="-36.51" r="183.3" gradientTransform="matrix(.95287 .30337 .29214 -.79903 -.49 1.5)" gradientUnits="userSpaceOnUse"><stop offset="0" stop-color="#ff000e"></stop><stop offset=".23" stop-color="#fa000d"></stop><stop offset=".5" stop-color="#ec000a"></stop><stop offset=".78" stop-color="#d60005"></stop><stop offset="1" stop-color="#bf0000"></stop></radialGradient><radialGradient id="1776585740465-4336793_radial-gradient-2" cx="289.18" cy="-276.09" fx="289.18" fy="-276.09" r="179.2" gradientTransform="matrix(.70306 -.28863 -.49755 -.86592 -.64 -.39)" gradientUnits="userSpaceOnUse"><stop offset="0" stop-color="#f90"></stop><stop offset=".32" stop-color="#ff9600"></stop><stop offset=".59" stop-color="#ff8c00"></stop><stop offset=".83" stop-color="#ff7a00"></stop><stop offset="1" stop-color="#ff6a00"></stop></radialGradient><radialGradient id="1776585740465-4336793_radial-gradient-3" cx="269.17" cy="-327.81" fx="269.17" fy="-327.81" r="131.07" gradientTransform="matrix(.75856 -.31142 -.49803 -.86572 -.42 -.47)" gradientUnits="userSpaceOnUse"><stop offset="0" stop-color="#ffd500"></stop><stop offset=".44" stop-color="#ffd500"></stop><stop offset=".71" stop-color="#ffc700"></stop><stop offset="1" stop-color="#ffb300"></stop></radialGradient><radialGradient id="1776585740465-4336793_radial-gradient-4" cx="349.79" cy="-396.11" fx="349.79" fy="-396.11" r="111.62" gradientTransform="matrix(.59085 -.24595 -.49274 -.86724 -.95 -.94)" gradientUnits="userSpaceOnUse"><stop offset="0" stop-color="#f90"></stop><stop offset=".32" stop-color="#ff9600"></stop><stop offset=".59" stop-color="#ff8c00"></stop><stop offset=".83" stop-color="#ff7a00"></stop><stop offset="1" stop-color="#ff6a00"></stop></radialGradient><radialGradient id="1776585740465-4336793_radial-gradient-5" cx="531.64" cy="-445.06" fx="531.64" fy="-445.06" r="128" gradientTransform="matrix(.38853 -.1595 -.49789 -.86578 -.48 -.45)" gradientUnits="userSpaceOnUse"><stop offset="0" stop-color="#ff000e"></stop><stop offset=".23" stop-color="#fa000d"></stop><stop offset=".5" stop-color="#ec000a"></stop><stop offset=".78" stop-color="#d60005"></stop><stop offset="1" stop-color="#bf0000"></stop></radialGradient></defs><path class="cls-9" d="M476.67,384.01c9.9,19.8,13.65,37.21,11.26,52.22-2.39,15.02-9.05,27.14-19.97,36.35-10.92,9.22-24.32,14.85-40.19,16.9s-32.6-.17-50.18-6.66-33.88-17.75-48.9-33.79c-7.51-7.85-15.36-13.14-23.55-15.87-8.19-2.73-16.47-4.18-24.83-4.35s-16.81-.26-25.34-.26-16.9-1.11-25.09-3.33-15.87-7.08-23.04-14.59c0,0,.43-2.22,1.28-6.66s3.84-7.51,8.96-9.22c6.14,6.83,12.89,11.43,20.22,13.82,7.34,2.39,15.02,3.67,23.04,3.84,8.02.17,16.21.51,24.58,1.02,8.36.51,16.64,2.3,24.83,5.38s15.87,8.7,23.04,16.9c16.04,17.07,32.43,28.93,49.15,35.58,16.73,6.66,32.26,8.96,46.59,6.91,14.34-2.05,26.2-7.42,35.58-16.13,9.39-8.7,14.93-20.05,16.64-34.05,1.71-13.99-2.22-29.53-11.78-46.59-1.71-3.07-1.79-4.27-.26-3.58s3.24,1.88,5.12,3.58,2.82,2.56,2.82,2.56l.02.02Z" fill="url(#1776585740465-4336793_linear-gradient)"></path><path class="cls-7" d="M477.18,382.99s-.68-1.54-2.05-4.61-2.22-5.46-2.56-7.17c-.34-1.71,1.19-.68,4.61,3.07,11.95,13.99,20.74,27.14,26.37,39.42s8.45,23.55,8.45,33.79v2.05c-.34,12.97-4.35,23.81-12.03,32.51s-17.83,14.59-30.46,17.66-26.62,2.9-41.98-.51c-15.36-3.41-30.72-10.58-46.08-21.5-15.02-10.58-30.81-16.73-47.36-18.43-16.55-1.71-33.37-2.39-50.43-2.05h-25.09c-8.53,0-17.07-.68-25.6-2.05,0,0-.34-2.47-1.02-7.42-.68-4.95.85-9.47,4.61-13.57,5.8.68,11.78,1.28,17.92,1.79s12.46.94,18.94,1.28c17.75,1.02,35.93,2.9,54.53,5.63s36.44,9.9,53.5,21.5c20.82,14.34,39.34,23.04,55.55,26.11s29.78,2.05,40.7-3.07,18.43-13.14,22.53-24.06c4.1-10.92,4.35-23.38.77-37.38-3.58-13.99-11.52-28.33-23.81-43.01v.02Z" fill="url(#1776585740465-4336793_linear-gradient-2)"></path><path class="cls-6" d="M472.58,385.03c-3.41-5.12-3.93-7.59-1.54-7.42s4.44,1.62,6.14,4.35c13.31,18.77,20.65,35.84,22.02,51.2s-1.71,28.59-9.22,39.68-18.26,19.46-32.26,25.09c-13.99,5.63-29.87,8.02-47.62,7.17s-36.01-5.55-54.78-14.08-36.69-21.5-53.76-38.91c-13.99-14.68-28.07-23.13-42.24-25.34-14.17-2.22-26.97-.51-38.4,5.12s-20.39,12.54-26.88,20.74c0,0-1.62-1.11-4.86-3.33s-6.23-6.06-8.96-11.52c4.78-7.17,11.95-13.31,21.5-18.43,9.56-5.12,20.31-8.28,32.26-9.47s24.23.43,36.86,4.86c12.63,4.44,24.41,12.46,35.33,24.06,17.07,17.75,34.39,31.06,51.97,39.94s34.56,13.99,50.94,15.36,30.89-.43,43.52-5.38,22.44-12.37,29.44-22.27,9.98-21.85,8.96-35.84c-1.02-13.99-7.17-29.18-18.43-45.57h.01Z" fill="url(#1776585740465-4336793_linear-gradient-3)"></path><path class="cls-11" d="M183.3,229.39c-.68.34-1.19.51-1.54.51-1.37,0-2.39-.51-3.07-1.54-1.02-1.71-.51-3.07,1.54-4.1L506.88,90.12c2.05-.68,3.58-.17,4.61,1.54,1.03,1.71.51,2.9-1.54,3.58L183.3,229.39ZM279.55,56.84c-8.53-16.04-15.45-28.84-20.74-38.4-5.29-9.56-7.94-14.34-7.94-14.34-.68-1.71-.17-3.07,1.54-4.1h1.54c1.37,0,2.39.51,3.07,1.54l28.16,49.15-5.63,6.14h0Z" fill="#8a6859"></path><path class="cls-8" d="M504.83,94.22l-3.07,19.46-297.47,120.32-18.94-8.7c19.46-43.01,34.39-80.98,44.8-113.92s17.49-58.62,21.25-77.06,5.46-27.48,5.12-27.14c-.34,0,5.21,2.65,16.64,7.94,11.43,5.29,27.99,12.2,49.66,20.74s47.87,17.92,78.59,28.16,65.19,20.31,103.42,30.21h0Z" fill="url(#1776585740465-4336793_radial-gradient)"></path><path class="cls-5" d="M204.29,234.51c13.99-20.48,31.91-39,53.76-55.55,21.85-16.55,46.76-30.63,74.75-42.24,57.34-23.21,113.49-30.89,168.45-23.04-1.71,9.9-3.33,19.71-4.86,29.44s-2.82,19.37-3.84,28.93c-8.87-.34-21.42,1.54-37.63,5.63-16.21,4.1-33.96,9.73-53.25,16.9s-38.23,14.93-56.83,23.3c-18.6,8.36-34.99,16.73-49.15,25.09s-23.98,15.62-29.44,21.76c-9.9-4.78-20.05-9.73-30.46-14.85s-20.91-10.24-31.49-15.36h-.01Z" fill="url(#1776585740465-4336793_radial-gradient-2)"></path><path class="cls-4" d="M266.24,264.71c11.61-15.36,25.69-29.27,42.24-41.73,16.55-12.46,35.24-22.95,56.06-31.49,20.82-8.53,42.07-14.42,63.74-17.66,21.67-3.24,43.09-3.84,64.26-1.79-1.37,10.24-2.65,20.31-3.84,30.21s-2.3,19.29-3.33,28.16c-6.49.34-15.45,2.05-26.88,5.12s-23.81,7.17-37.12,12.29-26.37,10.67-39.17,16.64-24.23,11.78-34.3,17.41-17.32,10.67-21.76,15.1c-9.22-5.12-18.86-10.41-28.93-15.87s-20.39-10.92-30.98-16.38h0Z" fill="url(#1776585740465-4336793_radial-gradient-3)"></path><path class="cls-3" d="M326.14,296.97c8.87-10.58,19.2-20.14,30.98-28.67,11.78-8.53,24.83-15.87,39.17-22.02,14.34-5.8,29.1-9.98,44.29-12.54s30.12-3.67,44.8-3.33c-1.02,10.58-1.88,20.74-2.56,30.46-.68,9.73-1.37,19.03-2.05,27.9-5.46.34-12.8,2.05-22.02,5.12s-18.86,6.74-28.93,11.01c-10.07,4.27-19.37,8.62-27.9,13.06s-14.68,8.36-18.43,11.78c-8.53-5.12-17.66-10.41-27.39-15.87s-19.71-11.09-29.95-16.9h-.01Z" fill="url(#1776585740465-4336793_radial-gradient-4)"></path><path class="cls-2" d="M477.18,387.08c.34.34-7.94-4.86-24.83-15.62-16.9-10.75-39.85-24.66-68.86-41.73,5.8-6.14,12.37-11.69,19.71-16.64,7.34-4.95,15.45-9.3,24.32-13.06,8.53-3.75,17.32-6.57,26.37-8.45s18.01-2.99,26.88-3.33c-2.05,31.06-3.07,55.38-3.07,72.96s-.17,26.2-.51,25.86h0Z" fill="url(#1776585740465-4336793_radial-gradient-5)"></path><path class="cls-10" d="M503.3,93.19c1.02-1.02,2.05-1.02,3.07,0s1.02,1.88,0,2.56c-26.97,19.11-57,36.44-90.11,51.97s-65.02,28.93-95.74,40.19c17.07,29.35,34.82,55.98,53.25,79.87,18.43,23.89,35.5,44.63,51.2,62.21s28.5,31.15,38.4,40.7c9.9,9.56,15.02,14.51,15.36,14.85,1.02.68,1.02,1.54,0,2.56-.34.68-1.02.85-2.05.51-.34,0-.51-.17-.51-.51-.34,0-5.46-4.86-15.36-14.59s-22.78-23.38-38.66-40.96-33.02-38.4-51.46-62.46-36.35-50.77-53.76-80.13c-10.24,11.61-18.6,22.53-25.09,32.77s-15.19,22.53-26.11,36.86l-1.28-1.28c-.17-.17-.6-.26-1.28-.26,10.24-13.31,18.26-25,24.06-35.07s13.31-20.39,22.53-30.98c-27.65,9.9-52.65,17.83-75.01,23.81s-38.83,9.81-49.41,11.52h-.51c-1.02,0-1.54-.51-1.54-1.54-.34-1.37.17-2.05,1.54-2.05,9.22-1.37,22.7-4.35,40.45-8.96s38.06-10.75,60.93-18.43,47.02-16.73,72.45-27.14c25.43-10.41,50.6-22.02,75.52-34.82,24.92-12.8,47.96-26.54,69.12-41.22v.02Z" fill="#e88811"></path><path class="cls-1" d="M184.32,227.34c-1.02-.34-1.37-1.02-1.02-2.05,0-1.37.68-1.88,2.05-1.54,8.87.68,22.61-.43,41.22-3.33s39.94-7.68,64-14.34,49.07-15.19,75.01-25.6,50.94-22.95,75.01-37.63c24.06-14.68,44.97-31.23,62.72-49.66,1.02-1.02,2.05-1.19,3.07-.51,1.02,1.02,1.19,2.05.51,3.07-18.43,18.77-39.77,35.5-64,50.18s-49.41,27.31-75.52,37.89-51.37,19.2-75.78,25.86-45.99,11.43-64.77,14.34-32.6,4.01-41.47,3.33h-1.03Z" fill="#b3bbbf"></path><path class="cls-1" d="M476.67,388.62c-.34,0-.51-.17-.51-.51-.34,0-5.97-4.35-16.9-13.06-10.92-8.7-24.92-21.25-41.98-37.63-17.07-16.38-35.07-35.93-54.02-58.62s-36.78-48.21-53.5-76.54c-.34-.34.09-.77,1.28-1.28s1.96-.6,2.3-.26c16.38,27.99,34.05,53.33,52.99,76.03s36.95,42.07,54.02,58.11c17.07,16.04,30.98,28.42,41.73,37.12,10.75,8.7,16.3,13.23,16.64,13.57,1.02.68,1.02,1.54,0,2.56-.68.68-1.37.85-2.05.51h0Z" fill="#b3bbbf"></path><path class="cls-1" d="M308.74,202.25l4.61,1.54c-10.58,11.61-23.89,25.69-39.94,42.24-16.04,16.55-33.71,34.56-52.99,54.02-19.29,19.46-38.91,39.08-58.88,58.88-19.97,19.8-39.17,38.83-57.6,57.09s-35.07,34.65-49.92,49.15c-14.85,14.51-26.54,25.94-35.07,34.3-8.53,8.36-12.8,12.54-12.8,12.54H0s4.35-4.18,13.06-12.54c8.7-8.36,20.48-19.8,35.33-34.3,14.85-14.51,31.57-30.98,50.18-49.41,18.6-18.43,37.97-37.63,58.11-57.6s39.85-39.68,59.14-59.14,37.03-37.55,53.25-54.27c16.21-16.73,29.44-30.89,39.68-42.5h-.01Z" fill="#b3bbbf"></path></g></svg>