<svg data-name="Layer 1" xmlns="http://www.w3.org/2000/svg" style="" viewBox="0 0 511.99 512"><g class="nc-icon-wrapper"><defs><radialGradient id="1776867898047-4907547_radial-gradient" cx="523.48" cy="549.44" fx="523.48" fy="549.44" r="208.8" gradientTransform="matrix(.84981 .48807 .4972 -.8561 -366.84 531.41)" gradientUnits="userSpaceOnUse"><stop offset="0" stop-color="#c98648"></stop><stop offset=".28" stop-color="#bb8043"></stop><stop offset=".8" stop-color="#957037"></stop><stop offset="1" stop-color="#856932"></stop></radialGradient><radialGradient id="1776867898047-4907547_radial-gradient-2" cx="482.87" cy="549.3" fx="482.87" fy="549.3" r="245.39" gradientTransform="matrix(.71974 .41337 .4972 -.8561 -398.33 513.18)" gradientUnits="userSpaceOnUse"><stop offset=".24" stop-color="#e5efcd"></stop><stop offset=".28" stop-color="#bccc95"></stop><stop offset=".32" stop-color="#9aae66"></stop><stop offset=".35" stop-color="#7f9642"></stop><stop offset=".38" stop-color="#6c8627"></stop><stop offset=".41" stop-color="#607c18"></stop><stop offset=".44" stop-color="#5c7812"></stop><stop offset=".46" stop-color="#627f14"></stop><stop offset=".56" stop-color="#7ea11e"></stop><stop offset=".66" stop-color="#93bc25"></stop><stop offset=".77" stop-color="#a3cf2b"></stop><stop offset=".88" stop-color="#acda2e"></stop><stop offset="1" stop-color="#afde2f"></stop></radialGradient></defs><path class="cls-3" d="M348.12,23.93c340.31,195.42,87.69,630.58-252.63,435.16L348.12,23.93Z" fill="url(#1776867898047-4907547_radial-gradient)"></path><path class="cls-5" d="M348.12,23.93c100.7,57.83,125.75,202.1,55.99,322.27s-207.92,170.71-308.62,112.9C-5.19,401.28-30.26,256.99,39.5,136.82,109.25,16.66,247.43-33.88,348.12,23.93Z" fill="#594640"></path><path class="cls-2" d="M343.9,31.18c97.33,55.89,121.57,195.36,54.13,311.52-67.44,116.16-201,165.03-298.33,109.14C2.36,395.96-21.86,256.47,45.57,140.31,113.01,24.16,246.58-24.71,343.9,31.18Z" fill="url(#1776867898047-4907547_radial-gradient-2)"></path><path class="cls-4" d="M354.39,317.63c-4.38,7.59-99.93-55.02-105.4-48.71-5.63,6.51,58.88,104.82,52.38,109.9-6.6,5.15-60.74-101.32-67.94-97.76-7.22,3.57,6.79,129.8-.74,131.64-7.49,1.82-9.73-127.27-17.23-127.25-7.38.02-46.67,129.14-53.75,127.29-6.87-1.78,43.49-128.02,37.14-131.65-6.35-3.65-91.09,102.83-96.08,97.81-5.16-5.17,87.65-103.6,83.99-109.93-3.74-6.47-117.28,56.16-119.43,48.78-2.17-7.41,114.78-58.48,114.25-66.48-.51-7.96-120.28-1.37-119.09-9.63,1.16-8.13,119.02-1.72,121.87-9.81,2.75-7.84-99.51-58.86-95.12-66.42,4.4-7.58,99.95,55.01,105.41,48.71,5.62-6.51-58.88-104.81-52.38-109.89,6.59-5.15,60.74,101.32,67.92,97.76,7.23-3.56-6.76-129.82.76-131.64,7.49-1.83,9.73,127.26,17.23,127.25,7.38,0,46.67-129.14,53.75-127.3,6.87,1.79-43.49,128.02-37.15,131.67,6.35,3.64,91.08-102.84,96.08-97.81,5.16,5.17-87.64,103.57-83.97,109.92,3.75,6.46,117.26-56.16,119.41-48.78,2.17,7.41-114.77,58.47-114.25,66.48.5,7.96,120.28,1.35,119.09,9.63-1.16,8.13-119.01,1.7-121.86,9.8-2.76,7.86,99.51,58.87,95.12,66.42Z" style="isolation:isolate" fill="#e5efcd" opacity=".3"></path><path class="cls-6" d="M261.52,166.05c-6.38-3.68,4-21.55,10.39-17.88,6.38,3.67-4,21.54-10.39,17.88Z" fill="#302c3b"></path><path class="cls-6" d="M239.29,146.63c-6.38-3.67,4-21.54,10.37-17.88s-4,21.55-10.37,17.88Z" fill="#302c3b"></path><path class="cls-6" d="M297.44,137.44c-6.39-3.67,4-21.56,10.39-17.89,6.38,3.67-4.01,21.55-10.39,17.89Z" fill="#302c3b"></path><path class="cls-6" d="M157.88,344.58c-6.39-3.68,3.99-21.56,10.38-17.87,6.38,3.65-4,21.54-10.38,17.87Z" fill="#302c3b"></path><path class="cls-6" d="M202.85,329.3c-6.38-3.66,4-21.55,10.39-17.87,6.38,3.66-4,21.55-10.39,17.87Z" fill="#302c3b"></path><path class="cls-6" d="M178.86,315.51c-6.39-3.66,4-21.53,10.38-17.87,6.37,3.65-4.01,21.54-10.38,17.87Z" fill="#302c3b"></path><path class="cls-6" d="M301.15,268.86c4.43-7.62,19.39.98,14.98,8.59s-19.39-.99-14.98-8.59Z" fill="#302c3b"></path><path class="cls-6" d="M319.68,254.15c4.43-7.61,19.41.98,14.99,8.6-4.43,7.62-19.4-.98-14.99-8.6Z" fill="#302c3b"></path><path class="cls-6" d="M303.55,306.61c4.43-7.63,19.41.97,14.99,8.6-4.42,7.62-19.4-.98-14.99-8.6Z" fill="#302c3b"></path><path class="cls-6" d="M127.15,161.33c4.43-7.62,19.39.99,14.97,8.6-4.41,7.6-19.39-.99-14.97-8.6Z" fill="#302c3b"></path><path class="cls-6" d="M110.37,201.05c4.42-7.62,19.4.98,14.98,8.6-4.43,7.62-19.4-.99-14.98-8.6Z" fill="#302c3b"></path><path class="cls-6" d="M131.61,217.24c4.42-7.62,19.39.97,14.98,8.59-4.43,7.62-19.41-.98-14.98-8.59Z" fill="#302c3b"></path><path class="cls-6" d="M280.04,198.84c-1.38-7.97,16.55-14.54,17.92-6.56,1.4,7.96-16.54,14.52-17.92,6.56Z" fill="#302c3b"></path><path class="cls-6" d="M302.94,216.98c-1.39-7.97,16.55-14.53,17.93-6.56,1.39,7.98-16.55,14.55-17.93,6.56Z" fill="#302c3b"></path><path class="cls-6" d="M337.42,211.42c-1.37-7.97,16.56-14.54,17.94-6.56,1.39,7.96-16.54,14.52-17.94,6.56Z" fill="#302c3b"></path><path class="cls-6" d="M93.87,266.18c-1.38-7.97,16.55-14.55,17.92-6.56,1.39,7.98-16.54,14.54-17.92,6.56Z" fill="#302c3b"></path><path class="cls-6" d="M131.74,301.94c-1.39-7.98,16.55-14.55,17.92-6.56,1.39,7.99-16.53,14.54-17.92,6.56Z" fill="#302c3b"></path><path class="cls-6" d="M128.67,269.86c-1.38-7.98,16.55-14.54,17.94-6.56,1.38,7.97-16.56,14.53-17.94,6.56Z" fill="#302c3b"></path><path class="cls-6" d="M242.3,308.84c7.63-2.81,10.9,15.92,3.25,18.73-7.63,2.78-10.87-15.94-3.25-18.73Z" fill="#302c3b"></path><path class="cls-6" d="M253.52,331.72c7.64-2.82,10.89,15.93,3.25,18.73-7.63,2.78-10.88-15.95-3.25-18.73Z" fill="#302c3b"></path><path class="cls-6" d="M212.83,357.52c7.64-2.8,10.91,15.93,3.25,18.72-7.63,2.81-10.89-15.91-3.25-18.72Z" fill="#302c3b"></path><path class="cls-6" d="M201.97,111.63c7.64-2.79,10.9,15.95,3.25,18.72-7.63,2.79-10.9-15.94-3.25-18.72Z" fill="#302c3b"></path><path class="cls-6" d="M199.33,142.47c7.64-2.81,10.89,15.93,3.25,18.73-7.63,2.79-10.89-15.95-3.25-18.73Z" fill="#302c3b"></path><path class="cls-6" d="M181.83,135.75c7.63-2.81,10.89,15.93,3.25,18.72-7.63,2.8-10.89-15.93-3.25-18.72Z" fill="#302c3b"></path><path class="cls-1" d="M139.22,477.58c8,18.75,35.73,22.45,32.34-1.37-1.12,8.32-13.07,19.47-32.34,1.37Z" fill="#bd8864"></path><path class="cls-1" d="M176.1,474.81c-7.27,19.05,10.13,40.91,24.27,21.39-6.61,5.24-22.96,4.98-24.27-21.39Z" fill="#bd8864"></path><path class="cls-1" d="M176.47,496.22c19.29,6.69,40.69-11.28,20.74-24.82,5.43,6.45,5.65,22.76-20.74,24.82Z" fill="#bd8864"></path><path class="cls-1" d="M271.5,472.59c-8,18.75-35.72,22.45-32.34-1.39,1.12,8.35,13.06,19.48,32.34,1.39Z" fill="#bd8864"></path><path class="cls-1" d="M231.38,479.39c18.59,8.48,21.57,36.23-2.23,32.22,8.38-.9,19.86-12.51,2.23-32.22Z" fill="#bd8864"></path><path class="cls-1" d="M238.61,508.26c-20.3,2.36-37.25-19.84-14.82-28.71-6.7,5.09-10.49,20.96,14.82,28.71Z" fill="#bd8864"></path><path class="cls-1" d="M244.07,494.26c8,18.75,35.72,22.45,32.34-1.39-1.12,8.34-13.06,19.47-32.34,1.39Z" fill="#bd8864"></path><path class="cls-1" d="M196.84,484.93c8,18.75,35.73,22.45,32.34-1.39-1.12,8.35-13.06,19.47-32.34,1.39Z" fill="#bd8864"></path><path class="cls-1" d="M269.97,466.71c-18.59,8.48-21.56,36.23,2.23,32.23-8.37-.91-19.85-12.52-2.23-32.23Z" fill="#bd8864"></path><path class="cls-1" d="M271.33,475.4c19.28,6.7,40.67-11.27,20.73-24.8,5.42,6.43,5.66,22.74-20.73,24.8Z" fill="#bd8864"></path><path class="cls-1" d="M322.93,481.74c-8,18.75-35.72,22.45-32.35-1.39,1.12,8.36,13.07,19.48,32.35,1.39Z" fill="#bd8864"></path><path class="cls-1" d="M287.72,459.25c18.58,8.48,21.56,36.23-2.23,32.23,8.38-.9,19.84-12.51,2.23-32.23Z" fill="#bd8864"></path><path class="cls-1" d="M303.23,503.04c-19.3,6.7-40.69-11.27-20.74-24.81-5.42,6.44-5.66,22.75,20.74,24.81Z" fill="#bd8864"></path><path class="cls-1" d="M302.74,444.41c8.01,18.76,35.73,22.45,32.34-1.39-1.12,8.35-13.05,19.48-32.34,1.39Z" fill="#bd8864"></path><path class="cls-1" d="M352.41,440.74c-18.58,8.48-21.56,36.23,2.23,32.23-8.38-.89-19.86-12.52-2.23-32.23Z" fill="#bd8864"></path><path class="cls-1" d="M311.04,503.04c19.29,6.7,40.69-11.27,20.75-24.81,5.42,6.44,5.64,22.75-20.75,24.81Z" fill="#bd8864"></path><path class="cls-1" d="M385.68,467.72c-8.01,18.75-35.73,22.45-32.34-1.38,1.11,8.34,13.05,19.47,32.34,1.38Z" fill="#bd8864"></path><path class="cls-1" d="M315.13,439.83c18.58,8.48,21.56,36.23-2.23,32.23,8.38-.9,19.86-12.51,2.23-32.23Z" fill="#bd8864"></path><path class="cls-1" d="M331.95,480.95c-19.28,6.69-40.68-11.27-20.74-24.81-5.43,6.45-5.66,22.75,20.74,24.81Z" fill="#bd8864"></path><path class="cls-1" d="M329.82,465.88c8.01,18.75,35.73,22.46,32.34-1.38-1.11,8.35-13.05,19.47-32.34,1.38Z" fill="#bd8864"></path><path class="cls-1" d="M323.46,481.74c8,18.75,35.71,22.45,32.34-1.39-1.12,8.36-13.07,19.48-32.34,1.39Z" fill="#bd8864"></path><path class="cls-1" d="M346.72,413.96c-18.58,8.48-21.56,36.22,2.24,32.22-8.39-.89-19.87-12.5-2.24-32.22Z" fill="#bd8864"></path><path class="cls-1" d="M331.78,435.24c19.28,6.71,40.68-11.27,20.73-24.81,5.43,6.45,5.66,22.76-20.73,24.81Z" fill="#bd8864"></path><path class="cls-1" d="M383.1,449.19c-8,18.77-35.72,22.45-32.34-1.37,1.12,8.34,13.06,19.47,32.34,1.37Z" fill="#bd8864"></path><path class="cls-1" d="M346.78,420.38c18.58,8.48,21.56,36.22-2.24,32.22,8.39-.9,19.86-12.5,2.24-32.22Z" fill="#bd8864"></path><path class="cls-1" d="M395.52,478.01c-19.29,6.71-40.68-11.26-20.74-24.8-5.43,6.43-5.66,22.75,20.74,24.8Z" fill="#bd8864"></path><path class="cls-1" d="M399.43,430.26c-8.01,18.75-35.73,22.45-32.34-1.39,1.1,8.34,13.05,19.47,32.34,1.39Z" fill="#bd8864"></path><path class="cls-1" d="M364.83,386.6c8,18.75,35.73,22.45,32.34-1.39-1.11,8.34-13.05,19.48-32.34,1.39Z" fill="#bd8864"></path><path class="cls-1" d="M377.23,391.91c-18.58,8.48-21.56,36.22,2.23,32.22-8.38-.89-19.86-12.51-2.23-32.22Z" fill="#bd8864"></path><path class="cls-1" d="M377.59,470.05c19.29,6.7,40.69-11.27,20.74-24.81,5.42,6.44,5.66,22.75-20.74,24.81Z" fill="#bd8864"></path><path class="cls-1" d="M424.57,427.74c-8,18.75-35.72,22.46-32.34-1.39,1.12,8.36,13.07,19.48,32.34,1.39Z" fill="#bd8864"></path><path class="cls-1" d="M391.62,388.35c18.57,8.48,21.55,36.23-2.24,32.23,8.38-.91,19.86-12.52,2.24-32.23Z" fill="#bd8864"></path><path class="cls-1" d="M408.43,429.48c-19.28,6.69-40.68-11.28-20.74-24.82-5.42,6.45-5.66,22.75,20.74,24.82Z" fill="#bd8864"></path><path class="cls-1" d="M400.62,440.85c8,18.76,35.71,22.45,32.34-1.37-1.12,8.33-13.05,19.47-32.34,1.37Z" fill="#bd8864"></path><path class="cls-1" d="M360.5,446.04c8,18.76,35.72,22.45,32.34-1.39-1.12,8.35-13.06,19.48-32.34,1.39Z" fill="#bd8864"></path><path class="cls-1" d="M423.21,383.15c-18.59,8.48-21.56,36.23,2.23,32.23-8.39-.91-19.86-12.52-2.23-32.23Z" fill="#bd8864"></path><path class="cls-1" d="M381.15,378.56c19.28,6.71,40.68-11.26,20.74-24.8,5.43,6.44,5.66,22.76-20.74,24.8Z" fill="#bd8864"></path><path class="cls-1" d="M449.57,423.96c-8.01,18.76-35.73,22.45-32.35-1.38,1.12,8.34,13.07,19.47,32.35,1.38Z" fill="#bd8864"></path><path class="cls-1" d="M410.66,418.39c18.59,8.48,21.56,36.22-2.23,32.22,8.39-.9,19.86-12.51,2.23-32.22Z" fill="#bd8864"></path><path class="cls-1" d="M409.87,391.71c-19.28,6.69-40.68-11.28-20.73-24.82-5.43,6.45-5.66,22.75,20.73,24.82Z" fill="#bd8864"></path><path class="cls-1" d="M397.91,348.22c16.83,11.56,42.22-.15,26.56-18.47,3.54,7.64-.57,23.43-26.56,18.47Z" fill="#bd8864"></path><path class="cls-1" d="M451.11,393.33c-18.65-8.33-41.5,7.76-22.78,22.95-4.86-6.88-3.69-23.15,22.78-22.95Z" fill="#bd8864"></path><path class="cls-1" d="M467.93,390.44c3.32,20.11-18.09,38.06-28.04,16.13,5.41,6.45,21.49,9.46,28.04-16.13Z" fill="#bd8864"></path><path class="cls-1" d="M419.79,418.76c16.83,11.56,42.22-.16,26.56-18.47,3.53,7.63-.57,23.43-26.56,18.47Z" fill="#bd8864"></path><path class="cls-1" d="M406.17,365.89c-11.14,17.09,1.26,42.1,19.2,26-7.57,3.73-23.49.06-19.2-26Z" fill="#bd8864"></path><path class="cls-1" d="M404.98,391.83c19.89-4.65,28.3-31.28,4.18-32.05,8.05,2.54,17,16.19-4.18,32.05Z" fill="#bd8864"></path><path class="cls-1" d="M455.8,377.97c3.32,20.12-18.09,38.07-28.04,16.13,5.42,6.45,21.49,9.46,28.04-16.13Z" fill="#bd8864"></path><path class="cls-1" d="M409.66,371.27c20.25-2.79,37.66,19.05,15.43,28.4,6.58-5.23,10.03-21.18-15.43-28.4Z" fill="#bd8864"></path><path class="cls-1" d="M481.76,390.23c-12.68,15.98-40.4,12.25-30.82-9.86-1.12,8.34,7.44,22.23,30.82,9.86Z" fill="#bd8864"></path><path class="cls-1" d="M455.81,348.96c3.31,20.11-18.1,38.06-28.06,16.14,5.43,6.43,21.49,9.44,28.06-16.14Z" fill="#bd8864"></path><path class="cls-1" d="M408.16,330.05c16.84,11.56,42.23-.16,26.57-18.47,3.53,7.64-.58,23.43-26.57,18.47Z" fill="#bd8864"></path><path class="cls-1" d="M420.08,330.95c-11.15,17.09,1.25,42.1,19.2,26.02-7.57,3.72-23.5.05-19.2-26.02Z" fill="#bd8864"></path><path class="cls-1" d="M463.92,392.19c19.89-4.66,28.3-31.29,4.18-32.04,8.04,2.51,17,16.17-4.18,32.04Z" fill="#bd8864"></path><path class="cls-1" d="M479.3,335.88c3.32,20.11-18.1,38.05-28.05,16.13,5.42,6.45,21.49,9.46,28.05-16.13Z" fill="#bd8864"></path><path class="cls-1" d="M430.31,320.25c20.23-2.78,37.65,19.04,15.42,28.4,6.6-5.24,10.05-21.17-15.42-28.4Z" fill="#bd8864"></path><path class="cls-1" d="M466.59,345.97c-12.69,15.98-40.4,12.23-30.83-9.86-1.13,8.34,7.44,22.22,30.83,9.86Z" fill="#bd8864"></path><path class="cls-1" d="M466.11,359.76c16.83,11.56,42.22-.15,26.56-18.47,3.54,7.63-.56,23.43-26.56,18.47Z" fill="#bd8864"></path><path class="cls-1" d="M434.46,380.51c16.82,11.57,42.21-.15,26.55-18.47,3.54,7.65-.56,23.43-26.55,18.47Z" fill="#bd8864"></path><path class="cls-1" d="M454.14,302.28c-11.12,17.09,1.27,42.1,19.21,26-7.57,3.72-23.49.05-19.21-26Z" fill="#bd8864"></path><path class="cls-1" d="M421.67,319.67c19.89-4.66,28.29-31.29,4.18-32.04,8.04,2.52,16.99,16.17-4.18,32.04Z" fill="#bd8864"></path><path class="cls-1" d="M502.18,317.87c3.31,20.11-18.09,38.06-28.05,16.13,5.43,6.45,21.49,9.45,28.05-16.13Z" fill="#bd8864"></path><path class="cls-1" d="M463.85,323.35c20.23-2.77,37.66,19.05,15.43,28.41,6.59-5.25,10.04-21.17-15.43-28.41Z" fill="#bd8864"></path><path class="cls-1" d="M447.53,313.31c-12.7,15.98-40.41,12.24-30.83-9.86-1.13,8.34,7.44,22.22,30.83,9.86Z" fill="#bd8864"></path><path class="cls-1" d="M437.41,205.34c17,11.29,42.21-.81,26.27-18.87,3.65,7.58-.21,23.43-26.27,18.87Z" fill="#bd8864"></path><path class="cls-1" d="M448.6,312.24c20.2-3.11,37.94,18.47,15.85,28.14,6.54-5.33,9.72-21.33-15.85-28.14Z" fill="#bd8864"></path><path class="cls-1" d="M472.14,290.58c-10.86,17.26,1.93,42.09,19.61,25.72-7.51,3.84-23.49.41-19.61-25.72Z" fill="#bd8864"></path><path class="cls-1" d="M434.47,309.79c19.81-4.96,27.8-31.72,3.68-32.09,8.09,2.4,17.26,15.9-3.68,32.09Z" fill="#bd8864"></path><path class="cls-1" d="M501.56,195.18c-12.43,16.18-40.2,12.86-30.99-9.37-1,8.36,7.79,22.12,30.99,9.37Z" fill="#bd8864"></path><path class="cls-1" d="M431.79,275.24c20.42.43,35.21-23.26,12.04-29.99,7.15,4.46,12.41,19.9-12.04,29.99Z" fill="#bd8864"></path><path class="cls-1" d="M501.07,283.8c-20.16,3.25-30.41,29.22-6.41,31.67-7.84-3.09-15.82-17.34,6.41-31.67Z" fill="#bd8864"></path><path class="cls-1" d="M507.24,274.65c11.73,16.69.23,42.12-18.26,26.67,7.69,3.46,23.48-.78,18.26-26.67Z" fill="#bd8864"></path><path class="cls-1" d="M481.84,328.26c20.43.44,35.22-23.26,12.04-29.99,7.16,4.45,12.43,19.89-12.04,29.99Z" fill="#bd8864"></path><path class="cls-1" d="M448.41,285.48c.1,20.38,24.22,34.51,30.35,11.23-4.27,7.25-19.6,12.9-30.35-11.23Z" fill="#bd8864"></path><path class="cls-1" d="M461.69,307.82c14.06-14.79,6.43-41.64-14.14-29.07,8.13-2.29,23.11,4.21,14.14,29.07Z" fill="#bd8864"></path><path class="cls-1" d="M475.65,272.37c19.9-4.61,39.23,15.56,17.95,26.88,6.09-5.81,8.07-22.01-17.95-26.88Z" fill="#bd8864"></path><path class="cls-1" d="M454.29,288.07c15.4-13.42,41.97-4.71,28.53,15.3,2.63-8-3.27-23.21-28.53-15.3Z" fill="#bd8864"></path><path class="cls-1" d="M460.26,165.09c20.17-3.25,38.1,18.17,16.08,28.03,6.47-5.39,9.55-21.41-16.08-28.03Z" fill="#bd8864"></path><path class="cls-1" d="M480.58,244.13c13.84,15,5.82,41.74-14.57,28.85,8.08,2.41,23.17-3.86,14.57-28.85Z" fill="#bd8864"></path><path class="cls-1" d="M430.35,254.44c20.42.43,35.21-23.27,12.03-29.99,7.17,4.44,12.43,19.89-12.03,29.99Z" fill="#bd8864"></path><path class="cls-1" d="M440.82,248.66c.09,20.38,24.21,34.51,30.35,11.23-4.27,7.26-19.6,12.91-30.35-11.23Z" fill="#bd8864"></path><path class="cls-1" d="M503.41,268.75c14.05-14.78,6.43-41.64-14.13-29.06,8.11-2.29,23.09,4.21,14.13,29.06Z" fill="#bd8864"></path><path class="cls-1" d="M493.01,220.33c13.85,14.99,5.82,41.74-14.57,28.85,8.08,2.41,23.17-3.86,14.57-28.85Z" fill="#bd8864"></path><path class="cls-1" d="M443.48,234.11c15.39-13.41,41.96-4.72,28.51,15.29,2.63-8-3.25-23.2-28.51-15.29Z" fill="#bd8864"></path><path class="cls-1" d="M487.95,235.72c-1.81,20.32-27.04,32.37-31.2,8.66,3.65,7.6,18.46,14.5,31.2-8.66Z" fill="#bd8864"></path><path class="cls-1" d="M469.94,239.43c20.42.44,35.22-23.25,12.03-29.98,7.16,4.45,12.42,19.89-12.03,29.98Z" fill="#bd8864"></path><path class="cls-1" d="M480.11,282.21c20.43.44,35.2-23.26,12.03-29.99,7.16,4.44,12.43,19.89-12.03,29.99Z" fill="#bd8864"></path><path class="cls-1" d="M451.71,203.24c.11,20.39,24.23,34.51,30.36,11.23-4.26,7.26-19.59,12.92-30.36-11.23Z" fill="#bd8864"></path><path class="cls-1" d="M446.96,202.63c14.05-14.78,6.43-41.64-14.14-29.06,8.12-2.3,23.1,4.2,14.14,29.06Z" fill="#bd8864"></path><path class="cls-1" d="M411.21,97.26c14.05-14.78,6.43-41.64-14.14-29.07,8.11-2.29,23.1,4.21,14.14,29.07Z" fill="#bd8864"></path><path class="cls-1" d="M486.68,181.97c13.84,14.99,5.81,41.73-14.57,28.84,8.08,2.41,23.18-3.86,14.57-28.84Z" fill="#bd8864"></path><path class="cls-1" d="M418.37,81.11c20.09,3.65,29.81,29.82,5.76,31.78,7.91-2.93,16.17-17.01-5.76-31.78Z" fill="#bd8864"></path><path class="cls-1" d="M473.78,221.59c15.39-13.4,41.97-4.71,28.52,15.29,2.63-7.99-3.26-23.2-28.52-15.29Z" fill="#bd8864"></path><path class="cls-1" d="M452.16,149.44c13.84,14.99,5.81,41.73-14.57,28.85,8.08,2.41,23.17-3.87,14.57-28.85Z" fill="#bd8864"></path><path class="cls-1" d="M474.99,174.05c14.06-14.79,6.44-41.65-14.13-29.06,8.11-2.29,23.11,4.21,14.13,29.06Z" fill="#bd8864"></path><path class="cls-1" d="M463.41,131.54c13.84,15,5.81,41.74-14.57,28.85,8.07,2.41,23.16-3.86,14.57-28.85Z" fill="#bd8864"></path><path class="cls-1" d="M415.04,139.41c15.4-13.41,41.97-4.71,28.52,15.3,2.64-8.01-3.25-23.21-28.52-15.3Z" fill="#bd8864"></path><path class="cls-1" d="M380.46,45.49c20.3,2.34,31.72,27.81,7.84,31.33,7.71-3.43,15.02-18.01-7.84-31.33Z" fill="#bd8864"></path><path class="cls-1" d="M459.53,141.03c-1.81,20.32-27.04,32.37-31.2,8.65,3.64,7.59,18.44,14.5,31.2-8.65Z" fill="#bd8864"></path><path class="cls-1" d="M441.52,144.74c20.42.43,35.21-23.26,12.03-29.99,7.16,4.45,12.43,19.89-12.03,29.99Z" fill="#bd8864"></path><path class="cls-1" d="M423.3,108.53c.11,20.39,24.23,34.51,30.35,11.23-4.27,7.26-19.59,12.91-30.35-11.23Z" fill="#bd8864"></path><path class="cls-1" d="M415.69,106.93c15.39-13.41,41.97-4.71,28.52,15.29,2.62-7.99-3.26-23.2-28.52-15.29Z" fill="#bd8864"></path><path class="cls-1" d="M485.98,164.76c-1.81,20.31-27.04,32.37-31.19,8.65,3.64,7.58,18.45,14.49,31.19-8.65Z" fill="#bd8864"></path></g></svg>