<svg data-name="Layer 1" xmlns="http://www.w3.org/2000/svg" style="" viewBox="0 0 549.92 512"><g class="nc-icon-wrapper"><defs><linearGradient id="1776585740306-1348794_linear-gradient" x1="357.63" y1="2" x2="357.63" y2="341.77" gradientTransform="matrix(1 0 0 -1 0 514)" gradientUnits="userSpaceOnUse"><stop offset="0" stop-color="#ba1312"></stop><stop offset=".2" stop-color="#cf2222"></stop><stop offset=".51" stop-color="#e93535"></stop><stop offset=".79" stop-color="#f94141"></stop><stop offset="1" stop-color="#ff4545"></stop></linearGradient><linearGradient id="1776585740306-1348794_linear-gradient-2" x1="181.85" y1="2" x2="181.85" y2="341.76" gradientTransform="matrix(1 0 0 -1 0 514)" gradientUnits="userSpaceOnUse"><stop offset="0" stop-color="#d11615"></stop><stop offset=".16" stop-color="#e02625"></stop><stop offset=".42" stop-color="#f13737"></stop><stop offset=".69" stop-color="#fc4242"></stop><stop offset="1" stop-color="#ff4545"></stop></linearGradient><radialGradient id="1776585740306-1348794_radial-gradient" cx="229.51" cy="318.56" fx="229.51" fy="318.56" r="58.76" gradientTransform="matrix(1.29 0 0 -1.23 -21.28 573.07)" gradientUnits="userSpaceOnUse"><stop offset="0" stop-color="#ffdaa3"></stop><stop offset=".19" stop-color="#ffd7a1"></stop><stop offset=".35" stop-color="#ffcc9a"></stop><stop offset=".5" stop-color="#ffba8f"></stop><stop offset=".65" stop-color="#ffa07f"></stop><stop offset=".8" stop-color="#ff806a"></stop><stop offset=".94" stop-color="#ff5851"></stop><stop offset="1" stop-color="#ff4545"></stop></radialGradient><linearGradient id="1776585740306-1348794_linear-gradient-3" x1="273.89" y1="319.93" x2="273.89" y2="450.72" gradientTransform="matrix(1 0 0 -1 0 514)" gradientUnits="userSpaceOnUse"><stop offset="0" stop-color="#1a1626"></stop><stop offset=".39" stop-color="#2d323d"></stop><stop offset=".74" stop-color="#3a444d"></stop><stop offset="1" stop-color="#3e4a52"></stop></linearGradient><linearGradient id="1776585740306-1348794_linear-gradient-4" x1="273.91" y1="427.74" x2="273.91" y2="487.69" gradientTransform="matrix(1 0 0 -1 0 514)" gradientUnits="userSpaceOnUse"><stop offset="0" stop-color="#1a1626"></stop><stop offset=".39" stop-color="#2d323d"></stop><stop offset=".74" stop-color="#3a444d"></stop><stop offset="1" stop-color="#3e4a52"></stop></linearGradient></defs><path class="cls-11" d="M62.94,472.14c5.2-.26,10.63-10.68,6.42-10.53-21.98.69-41.6,12.3-6.42,10.53Z" fill="#574944"></path><path class="cls-10" d="M118.64,481.57c.17-7.54-13.68-12.84-48.19-21-2.83-.7-6.27,9.88-1.56,11,29.85,7.17,49.59,17.15,49.76,10Z" fill="#473d38"></path><path class="cls-9" d="M111.14,480.24c1.38,3.03,8.76,5.55,10.01,2.38,10.64-27.09-21.64-49.24,1.37-86.47,4.45-7.19,3.28-23.63,1.19-23.14-22.45,5.24-38.54,50.07-12.57,107.24Z" fill="#3b322e"></path><path class="cls-11" d="M18.51,330.22c4.97-.16,9.78-12.05,5.73-12.02-20.94.2-39.27,13.09-5.73,12.02Z" fill="#574944"></path><path class="cls-10" d="M72.08,342.68c-.11-8.69-13.54-15.21-46.82-25.65-2.71-.85-5.61,11.26-1.09,12.68,28.78,9.14,47.99,21.2,47.91,12.97Z" fill="#473d38"></path><path class="cls-9" d="M60.11,332.28c-.13,3.22,9.13,13.44,11.25,10.85,16.2-20.01,11.84-59.68,34.06-87.54,5.23-6.54,4.85-22.28,2.64-21.9-23.92,3.98-46.66,68-47.95,98.6Z" fill="#3b322e"></path><path class="cls-11" d="M531.43,330.22c-4.97-.16-9.78-12.05-5.74-12.02,20.94.2,39.27,13.09,5.74,12.02Z" fill="#574944"></path><path class="cls-10" d="M477.86,342.68c.1-8.69,13.53-15.21,46.82-25.65,2.71-.85,5.61,11.26,1.09,12.68-28.78,9.14-48,21.2-47.91,12.97Z" fill="#473d38"></path><path class="cls-9" d="M489.81,332.28c.14,3.22-9.13,13.44-11.25,10.85-16.2-20.01-11.85-59.68-34.07-87.54-5.23-6.54-4.85-22.28-2.64-21.9,23.93,3.98,46.67,68,47.95,98.6Z" fill="#3b322e"></path><path class="cls-11" d="M80.34,95.36c4.56,2.65,14.38-3.21,10.71-5.42-19.05-11.51-41.55-12.43-10.71,5.42Z" fill="#574944"></path><path class="cls-10" d="M123.07,134.11c3.89-6.31-5.25-18.45-30.57-44.46-2.07-2.13-10.27,4.97-6.82,8.51,21.85,22.58,33.68,41.95,37.39,35.94Z" fill="#473d38"></path><path class="cls-9" d="M123.83,121.42c-3.13-.79-15.05,6.12-12.91,8.73,16.37,19.99,56.18,23.99,79.04,51.49,5.36,6.46,20.89,9.37,20.96,7.11.93-24.15-57.33-59.71-87.09-67.34Z" fill="#3b322e"></path><path class="cls-11" d="M487,469.02c-5.2-.26-10.63-10.67-6.42-10.53,21.97.7,41.6,12.29,6.42,10.53Z" fill="#574944"></path><path class="cls-10" d="M431.31,478.46c-.18-7.54,13.66-12.84,48.18-21.04,2.83-.66,6.27,9.89,1.56,11.03-29.85,7.17-49.59,17.13-49.75,10.01Z" fill="#473d38"></path><path class="cls-9" d="M438.8,477.12c-1.38,3.04-8.76,5.57-10.01,2.38-10.64-27.07,21.64-49.24-1.38-86.46-4.45-7.21-3.27-23.65-1.18-23.13,22.45,5.21,38.54,50.04,12.57,107.22Z" fill="#3b322e"></path><path class="cls-11" d="M469.6,92.24c-4.56,2.65-14.38-3.22-10.71-5.43,19.05-11.5,41.55-12.43,10.71,5.43Z" fill="#574944"></path><path class="cls-10" d="M426.86,131c-3.9-6.32,5.25-18.47,30.57-44.47,2.08-2.14,10.26,4.97,6.82,8.5-21.84,22.59-33.67,41.97-37.39,35.97Z" fill="#473d38"></path><path class="cls-9" d="M426.11,118.32c3.12-.8,15.05,6.11,12.91,8.69-16.37,19.99-56.18,24-79.04,51.5-5.37,6.46-20.89,9.37-20.97,7.11-.93-24.15,57.33-59.7,87.1-67.31Z" fill="#3b322e"></path><path class="cls-7" d="M383.57,172.23c-20.77.35-109.65.52-109.65.52-37.62,193.37,0,339.25,0,339.25,64.38,0,146.37-34.13,177.04-164.39,27.77-117.99-32.34-175.94-67.38-175.38Z" fill="url(#1776585740306-1348794_linear-gradient)"></path><path class="cls-4" d="M164.27,172.24c-35.03-.56-95.16,57.36-67.38,175.38,30.66,130.25,112.65,164.38,177.03,164.38V172.75c-31.16,0-88.87-.16-109.64-.51Z" fill="url(#1776585740306-1348794_linear-gradient-2)"></path><path class="cls-6" d="M357.27,203.24c0,55.91-166.71,55.91-166.71,0s83.36-86.05,83.36-86.05c0,0,83.35,28.67,83.35,86.05Z" fill="url(#1776585740306-1348794_radial-gradient)"></path><path class="cls-5" d="M337.08,244.42c0,46.57-63.17,17.8-63.17,17.8,0,0-63.17,28.78-63.17-17.8s63.17-71.68,63.17-71.68c0,0,63.17,23.89,63.17,71.68Z" fill="#1a1626"></path><path class="cls-5" d="M178.94,320.76c7.12-25.07,70.18.38,63.1,25.46-9.35,32.91-72.4,7.45-63.1-25.46Z" fill="#1a1626"></path><path class="cls-5" d="M368.87,320.76c-7.1-25.07-70.17.38-63.06,25.46,9.3,32.91,72.38,7.45,63.06-25.46Z" fill="#1a1626"></path><path class="cls-5" d="M164.31,434.68c14.02-21.64,52.65,19.34,38.63,40.97-8.29,12.8-46.9-28.24-38.63-40.97Z" fill="#1a1626"></path><path class="cls-5" d="M383.5,434.68c-14-21.64-52.62,19.34-38.62,40.97,8.27,12.8,46.88-28.24,38.62-40.97Z" fill="#1a1626"></path><path class="cls-5" d="M114.17,250.3c4.94-25.04,31.71.43,26.71,25.48-10.05,50.81-36.83,25.38-26.71-25.48Z" fill="#1a1626"></path><path class="cls-5" d="M433.67,250.3c-4.96-25.04-31.72.43-26.73,25.48,10.08,50.98,36.85,25.53,26.73-25.48Z" fill="#1a1626"></path><path class="cls-3" d="M332.85,68.63c-34.1-7.13-83.75-7.13-117.93,0-36.82,7.7-56.14,53.59-56.14,75.26,0,11.77,76.73,50.18,115.11,50.18,38.37,0,115.11-38.41,115.11-50.18,0-21.67-19.31-67.57-56.14-75.26Z" fill="url(#1776585740306-1348794_linear-gradient-3)"></path><path class="cls-1" d="M360.58,103.93c-5.88,21.48-66.39,4.26-60.51-17.19,7.7-28.28,68.2-11.09,60.51,17.19Z" fill="#ded1b7"></path><path class="cls-1" d="M187.29,103.93c5.87,21.48,66.38,4.26,60.52-17.19-7.67-28.28-68.2-11.09-60.52,17.19Z" fill="#ded1b7"></path><path class="cls-5" d="M284.52,18.92c-8.54-2.67-12.11-2.67-20.68,0-9.22,2.9-20.73,23.68-20.73,31.85,0,20.52,62.13,20.52,62.13,0,0-8.16-11.5-28.96-20.73-31.85Z" fill="#1a1626"></path><path class="cls-9" d="M250.31,45.72c-9.6-25.46-16.39-34.75-20.05-33.8-23.33,6.13-16.78-26.21,2.35-4.06,6.89,7.99,21.87,30.81,23.68,35.3.75,1.92-4.96,5.31-5.97,2.56Z" fill="#3b322e"></path><path class="cls-9" d="M303.11,45.72c9.6-25.46,16.4-34.75,20.06-33.8,23.33,6.13,16.78-26.21-2.34-4.06-6.89,7.99-21.87,30.81-23.68,35.3-.76,1.92,4.95,5.31,5.95,2.56Z" fill="#3b322e"></path><path class="cls-2" d="M292.81,28.76c-15.62-3.26-22.13-3.26-37.81,0-16.86,3.54-37.9,28.84-37.9,38.77,0,24.98,113.62,24.98,113.62,0,0-9.92-21.03-35.23-37.91-38.77Z" fill="url(#1776585740306-1348794_linear-gradient-4)"></path><path class="cls-8" d="M309.59,53.16c-2.7,9.85-22.32-2.31-19.63-12.15,3.54-12.95,23.14-.8,19.63,12.15Z" fill="#fff"></path><path class="cls-8" d="M238.29,53.16c2.68,9.85,22.3-2.31,19.62-12.15-3.52-12.95-23.14-.8-19.62,12.15Z" fill="#fff"></path></g></svg>