<svg data-name="Layer 1" xmlns="http://www.w3.org/2000/svg" style="" viewBox="0 0 512.05 511.99"><g class="nc-icon-wrapper"><defs><linearGradient id="1776585740491-727572_linear-gradient" x1="94.87" y1="-135.55" x2="119.85" y2="-95.09" gradientTransform="scale(1 -1)" gradientUnits="userSpaceOnUse"><stop offset="0" stop-color="#665e00"></stop><stop offset=".77" stop-color="#9bb900"></stop><stop offset="1" stop-color="#abd600"></stop></linearGradient><radialGradient id="1776585740491-727572_radial-gradient" cx="39.55" cy="-443.64" fx="366.55" fy="-333.64" r="455" gradientTransform="matrix(.3108 -.31145 -.4098 -.41045 104.6 104.39)" gradientUnits="userSpaceOnUse"><stop offset="0" stop-color="#ffea00"></stop><stop offset=".43" stop-color="#fde800"></stop><stop offset=".59" stop-color="#f8e100"></stop><stop offset=".7" stop-color="#eed600"></stop><stop offset=".78" stop-color="#dfc500"></stop><stop offset=".85" stop-color="#d1b400"></stop><stop offset=".93" stop-color="#d3b402"></stop><stop offset=".96" stop-color="#d8b509"></stop><stop offset=".98" stop-color="#e1b714"></stop><stop offset="1" stop-color="#efb925"></stop><stop offset="1" stop-color="#f2ba29"></stop></radialGradient><radialGradient id="1776585740491-727572_radial-gradient-2" cx="-118.06" cy="-433.69" fx="-268.94" fy="-396.72" r="281.78" gradientTransform="matrix(-.24504 .35335 -.44605 -.37459 105.27 105.55)" gradientUnits="userSpaceOnUse"><stop offset="0" stop-color="#fff2ad"></stop><stop offset=".2" stop-color="#fff1a7" stop-opacity=".8"></stop><stop offset=".46" stop-color="#ffee96" stop-opacity=".55"></stop><stop offset=".75" stop-color="#ffe97b" stop-opacity=".25"></stop><stop offset="1" stop-color="#ffe45e" stop-opacity="0"></stop></radialGradient></defs><path class="cls-2" d="M93.01,96.29c14.04-8.97,31.68-16.67,52.93-23.1s43.37-11.7,66.38-15.79c23-4.09,44.64-7.41,64.91-9.94s36.75-4.29,49.42-5.26c12.67-.97,19.01-1.46,19.01-1.46,0,0-2.92,3.8-8.77,11.4-5.85,7.6-14.13,16.86-24.85,27.78s-23.69,21.25-38.89,31-32.17,16.86-50.88,21.35c-18.71,4.49-38.89,4.29-60.53-.58s-44.54-16.67-68.72-35.38v-.02Z" fill="#449c00"></path><path class="cls-5" d="M93.01,96.29c16.37-29.63,33.92-51.66,52.63-66.08,18.71-14.42,37.53-23.49,56.44-27.19s36.94-4,54.1-.88c17.15,3.12,32.46,7.7,45.91,13.74s24.08,11.7,31.87,16.96,11.7,7.9,11.7,7.9c0,0-6.24.88-18.71,2.63s-28.66,4.19-48.54,7.31-41.33,7.02-64.33,11.7c-23,4.68-45.23,9.84-66.67,15.5s-39.57,11.79-54.39,18.42h-.01Z" fill="#56ab15"></path><path class="cls-6" d="M115.82,87.52c1.95-7.41,4.78-14.52,8.48-21.35,3.7-6.83,7.7-13.16,11.99-19.01,9.75-12.48,20.27-21.83,31.58-28.07-5.46,4.29-10.72,8.77-15.79,13.45s-9.75,9.94-14.04,15.79c-4.29,5.46-8.38,11.7-12.28,18.71-1.95,3.12-3.8,6.43-5.56,9.94s-3.22,7.02-4.39,10.53h0ZM149.73,77c2.34-8.58,5.56-16.67,9.65-24.27,4.09-7.6,8.67-14.72,13.74-21.35,5.46-6.63,11.31-12.28,17.54-16.96,6.63-4.29,13.45-7.8,20.47-10.53-14.43,7.41-26.71,17.15-36.84,29.24-4.68,5.85-9.36,12.67-14.04,20.47-1.95,3.9-3.8,7.8-5.56,11.7-1.76,3.9-3.41,7.8-4.97,11.7h0ZM187.16,68.22c6.24-15.99,15.21-30.22,26.9-42.69,6.24-6.24,12.48-11.11,18.71-14.62,6.24-3.9,13.06-6.63,20.47-8.19-14.43,4.68-27.1,12.87-38.01,24.56-5.46,5.46-10.72,11.7-15.79,18.71-5.07,7.8-9.16,15.21-12.28,22.22h0ZM231.02,58.87c3.51-5.85,7.41-11.31,11.7-16.37s8.77-9.75,13.45-14.04c2.73-1.95,5.36-3.8,7.9-5.56,2.53-1.75,5.17-3.41,7.9-4.97,5.46-2.73,10.92-4.68,16.37-5.85-10.92,3.9-21.25,9.94-31,18.13-2.34,1.95-4.68,4.09-7.02,6.43l-7.02,7.02c-4.68,5.07-8.77,10.14-12.28,15.21h0ZM272.55,51.85c3.12-4.29,6.53-7.99,10.23-11.11s7.7-5.85,11.99-8.19,8.38-4.09,12.28-5.26c4.29-1.17,8.58-1.56,12.87-1.17-8.58,1.17-16.76,4.09-24.56,8.77-3.51,1.95-7.41,4.48-11.7,7.6s-7.99,6.24-11.11,9.36Z" fill="#5fbd17"></path><path class="cls-5" d="M115.82,87.52c1.56,3.12,3.31,6.04,5.26,8.77s4.09,5.26,6.43,7.6c5.07,5.46,9.94,9.94,14.62,13.45,9.75,7.41,21.25,12.67,34.5,15.79-12.87-.78-24.95-5.26-36.26-13.45-5.07-4.29-9.75-9.06-14.04-14.33s-7.8-11.21-10.53-17.84h.02ZM149.73,77c1.95,3.9,4.09,7.6,6.43,11.11l7.02,10.53c5.46,6.63,11.11,12.09,16.96,16.37,5.85,5.07,12.28,8.97,19.3,11.7,7.02,2.73,14.23,4.48,21.64,5.26-7.41,0-14.62-1.17-21.64-3.51s-13.84-6.04-20.47-11.11c-6.24-5.07-11.89-10.92-16.96-17.54s-9.16-14.23-12.28-22.81h0ZM187.16,68.22c2.34,3.51,4.78,6.82,7.31,9.94s5.17,6.24,7.9,9.36c3.12,2.73,6.14,5.46,9.06,8.19s5.95,5.07,9.06,7.02c12.48,8.97,26.12,13.45,40.94,13.45-7.41.78-14.62.19-21.64-1.75-6.63-1.56-13.45-4.68-20.47-9.36-13.26-9.36-23.98-21.64-32.17-36.84h.01ZM231.02,58.87c1.95,2.73,4.09,5.17,6.43,7.31s4.68,4.39,7.02,6.73c2.34,1.95,4.68,3.9,7.02,5.85s4.87,3.7,7.6,5.26c10.14,6.63,20.86,10.53,32.17,11.7-5.85.39-11.5-.39-16.96-2.34-2.73-.78-5.46-1.75-8.19-2.92s-5.46-2.53-8.19-4.09c-5.07-3.51-9.94-7.51-14.62-11.99s-8.77-9.65-12.28-15.5h0ZM272.55,51.85c3.51,2.34,7.6,4.68,12.28,7.02,2.34,1.17,4.58,2.14,6.73,2.92s4.19,1.56,6.14,2.34c8.58,2.73,17.35,3.31,26.32,1.75-3.9,1.95-8.19,2.92-12.87,2.92-3.9,0-8.38-.78-13.45-2.34-4.29-1.17-8.58-3.02-12.87-5.56s-8.38-5.56-12.28-9.06h0Z" fill="#56ab15"></path><path class="cls-4" d="M152.07,152.44c-10.92-13.26-21.83-22.91-32.75-28.95-10.92-6.04-21.15-10.04-30.7-11.99s-17.54-3.12-23.98-3.51-10.72-1.56-12.87-3.51-1.27-6.24,2.63-12.87c2.73-5.07,7.7-7.41,14.91-7.02,7.21.39,15.4,2.63,24.56,6.73s18.03,9.45,26.61,16.08c8.58,6.63,15.89,13.84,21.93,21.64s9.26,15.6,9.65,23.39h.01Z" fill="url(#1776585740491-727572_linear-gradient)"></path><path class="cls-3" d="M147.4,100.39c18.71-12.09,39.77-20.47,63.16-25.15s47.86-5.36,73.39-2.05c25.54,3.31,50.88,11.21,76.03,23.69s48.83,29.83,71.06,52.05c24.95,25.34,44.25,53.12,57.9,83.34s21.25,60.63,22.81,91.23c1.56,30.61-2.92,58.97-13.45,85.09,0,0-.19,3.22-.58,9.65s-1.07,14.13-2.05,23.1c-.97,8.97-2.53,17.54-4.68,25.73s-4.78,14.04-7.9,17.54c-3.9,3.9-9.84,6.82-17.84,8.77-7.99,1.95-16.47,3.41-25.44,4.39-8.97.97-16.47,1.56-22.52,1.75-6.04.19-9.06.29-9.06.29-26.12,10.53-54.19,14.23-84.21,11.11-30.02-3.12-59.94-12.38-89.77-27.78-29.83-15.4-57.21-35.77-82.17-61.11-28.07-28.46-48.93-58.97-62.58-91.52s-19.88-64.91-18.71-97.08,10.33-61.7,27.49-88.6c-2.34-3.12-2.05-7.99.88-14.62s7.7-13.45,14.33-20.47c6.63-6.63,13.26-10.43,19.88-11.4s11.31-.29,14.04,2.05h-.01Z" fill="url(#1776585740491-727572_radial-gradient)"></path><path class="cls-1" d="M260.27,327.88c-23.39-19.49-41.52-41.81-54.39-66.96s-19.69-50.1-20.47-74.86,5.26-46.3,18.13-64.62c12.48-18.32,29.73-30.31,51.76-35.97,22.03-5.65,45.71-4.97,71.06,2.05s49.51,20.27,72.52,39.77c23.39,19.49,41.52,41.81,54.39,66.96s19.69,50.1,20.47,74.86c.78,24.76-5.07,46.3-17.54,64.62-12.87,18.32-30.22,30.31-52.05,35.97s-45.52,4.97-71.06-2.05-49.81-20.27-72.81-39.77h0Z" fill="url(#1776585740491-727572_radial-gradient-2)"></path><path class="cls-7" d="M97.1,136.06c18.32,22.61,30.61,44.84,36.84,66.67,6.24,21.83,8.38,42.59,6.43,62.28-1.95,19.69-6.14,38.01-12.57,54.97s-13.35,31.68-20.76,44.15c-3.9-5.85-7.21-11.7-9.94-17.54-7.02-14.04-11.6-29.92-13.74-47.66s-2.83-35.87-2.05-54.39,2.34-35.77,4.68-51.76c2.34-15.99,4.68-29.14,7.02-39.48,2.34-10.33,3.7-16.08,4.09-17.25h0Z" fill="#c2a900"></path><path class="cls-2" d="M68.44,102.73c23.39,23.39,39.87,46.79,49.42,70.18s14.04,46.01,13.45,67.84c-.59,21.83-4,42.11-10.23,60.82-6.24,18.71-13.55,35.19-21.93,49.42-8.38,14.23-15.69,25.34-21.93,33.33-6.24,7.99-9.36,11.99-9.36,11.99,0,0-.68-5.17-2.05-15.5-1.36-10.33-2.83-24.08-4.39-41.23s-2.92-36.26-4.09-57.31c-1.17-21.05-1.75-42.59-1.75-64.62s.97-43.08,2.92-63.16,5.26-37.33,9.94-51.76Z" fill="#449c00"></path><path class="cls-5" d="M68.44,102.73c-2.73,14.82-4.68,32.26-5.85,52.34s-1.75,41.13-1.75,63.16.29,43.57.88,64.62c.58,21.05,1.36,40.16,2.34,57.31.97,17.15,1.85,30.8,2.63,40.94s1.17,15.21,1.17,15.21c0,0-3.41-3.9-10.23-11.7-6.82-7.8-14.62-18.71-23.39-32.75s-16.57-30.41-23.39-49.12C4.02,284.02.41,263.75.02,241.91c-.39-21.83,4.58-44.54,14.91-68.13,10.33-23.59,28.17-47.27,53.51-71.06h0Z" fill="#56ab15"></path><path class="cls-6" d="M64.94,129.63c-3.51,1.95-6.73,4.19-9.65,6.73s-5.75,5.17-8.48,7.9c-6.24,5.85-11.5,11.7-15.79,17.54-4.68,5.85-8.87,12.09-12.57,18.71s-6.92,13.45-9.65,20.47c3.51-14.04,10.33-27.49,20.47-40.35,5.07-6.24,10.53-12.09,16.37-17.54s12.28-9.94,19.3-13.45h0ZM62.01,169.4c-3.9,2.34-7.6,4.97-11.11,7.9s-6.82,5.75-9.94,8.48c-6.63,6.63-12.28,13.26-16.96,19.88-5.46,7.02-9.84,14.43-13.16,22.22s-5.95,15.79-7.9,23.98c1.17-8.58,3.31-16.76,6.43-24.56s7.21-15.4,12.28-22.81c5.46-7.02,11.5-13.55,18.13-19.59,6.63-6.04,14.04-11.21,22.22-15.5h0ZM60.84,213.26c-6.24,5.07-12.48,11.11-18.71,18.13-2.73,3.51-5.46,7.02-8.19,10.53s-5.07,7.02-7.02,10.53c-8.97,14.43-14.23,30.02-15.79,46.79,0-8.58,1.17-16.76,3.51-24.56,1.17-3.9,2.63-7.8,4.39-11.7s3.8-7.8,6.14-11.7c9.36-15.6,21.25-28.27,35.67-38.01h0ZM61.43,264.14c-2.34,2.73-4.48,5.46-6.43,8.19s-3.9,5.65-5.85,8.77c-1.95,2.73-3.8,5.56-5.56,8.48s-3.41,5.95-4.97,9.06c-5.85,12.48-9.55,25.34-11.11,38.6,0-6.63.78-13.26,2.34-19.88.78-3.12,1.75-6.34,2.92-9.65s2.53-6.53,4.09-9.65c3.12-6.24,6.73-12.18,10.82-17.84s8.67-11.01,13.74-16.08h.01ZM63.18,312.09c-1.56,2.34-2.83,4.68-3.8,7.02s-2.05,4.68-3.22,7.02c-2.34,5.46-3.9,10.33-4.68,14.62-3.12,9.75-4.29,19.49-3.51,29.24-1.17-5.07-1.56-9.94-1.17-14.62,0-2.73.19-5.36.58-7.9s.97-4.97,1.75-7.31c1.56-5.07,3.41-9.94,5.56-14.62s4.97-9.16,8.48-13.45h0Z" fill="#5fbd17"></path><path class="cls-5" d="M64.94,129.63c7.02,1.56,13.55,4.29,19.59,8.19s11.6,8.38,16.67,13.45c10.53,10.92,17.74,23.59,21.64,38.01-2.73-6.63-6.04-12.96-9.94-19.01-3.9-6.04-8.38-11.6-13.45-16.67-4.29-5.07-9.55-9.75-15.79-14.04-3.12-1.95-6.24-3.8-9.36-5.56s-6.24-3.22-9.36-4.39v.02ZM62.01,169.4c8.97,1.95,17.25,5.17,24.85,9.65s14.52,9.84,20.76,16.08,11.31,13.06,15.21,20.47,6.63,15.4,8.19,23.98c-2.73-8.19-6.14-15.89-10.23-23.1s-9.26-13.94-15.5-20.18c-5.46-5.46-12.09-10.72-19.88-15.79-3.51-1.95-7.21-3.9-11.11-5.85s-7.99-3.7-12.28-5.26h-.01ZM60.84,213.26c8.58,3.12,16.47,7.21,23.69,12.28s13.74,10.72,19.59,16.96c5.85,7.02,10.33,14.04,13.45,21.05,3.51,7.41,5.65,15.4,6.43,23.98-3.51-16.37-10.92-30.8-22.22-43.28-5.07-5.85-11.31-11.7-18.71-17.54-3.51-2.34-7.12-4.68-10.82-7.02s-7.51-4.48-11.4-6.43h0ZM61.43,264.14c6.24,3.12,12.09,6.82,17.54,11.11s10.33,8.97,14.62,14.04c2.34,2.73,4.39,5.46,6.14,8.19s3.41,5.65,4.97,8.77c2.73,5.85,4.48,12.09,5.26,18.71-3.51-12.48-9.55-23.78-18.13-33.92-2.34-2.73-4.68-5.26-7.02-7.6l-7.02-7.02c-2.73-1.95-5.46-4-8.19-6.14s-5.46-4.19-8.19-6.14h.02ZM63.18,312.09c4.29,3.51,8.09,7.41,11.4,11.7s6.14,8.77,8.48,13.45c2.73,5.46,4.48,10.33,5.26,14.62.78,5.07.78,10.14,0,15.21-.39-10.14-2.92-19.69-7.6-28.66-1.17-2.34-2.44-4.68-3.8-7.02s-2.83-4.68-4.39-7.02c-3.12-4.68-6.24-8.77-9.36-12.28h.01Z" fill="#56ab15"></path></g></svg>