<svg data-name="Layer 1" xmlns="http://www.w3.org/2000/svg" style="" viewBox="0 0 568.89 512"><g class="nc-icon-wrapper"><defs><linearGradient id="1776867898078-2481733_linear-gradient" x1="284.44" y1="-4" x2="284.44" y2="327.85" gradientTransform="matrix(1 0 0 -1 0 508)" gradientUnits="userSpaceOnUse"><stop offset=".81" stop-color="#e3cc9e"></stop><stop offset=".9" stop-color="#e1ca9d"></stop><stop offset=".93" stop-color="#dac398"></stop><stop offset=".96" stop-color="#cfb88f"></stop><stop offset=".98" stop-color="#bea782"></stop><stop offset=".99" stop-color="#a89172"></stop><stop offset="1" stop-color="#9e876b"></stop></linearGradient><linearGradient id="1776867898078-2481733_linear-gradient-2" x1="284.44" y1="-4" x2="284.44" y2="479.55" gradientTransform="matrix(1 0 0 -1 0 508)" gradientUnits="userSpaceOnUse"><stop offset=".52" stop-color="#ffe8bb"></stop><stop offset=".71" stop-color="#fde6b9"></stop><stop offset=".82" stop-color="#f5deb2"></stop><stop offset=".9" stop-color="#e7d1a6"></stop><stop offset=".97" stop-color="#d4bf95"></stop><stop offset="1" stop-color="#c9b58c"></stop></linearGradient></defs><path class="cls-11" d="M526.14,86.09c-3.09-6.77-5.22-10.24-16.21-10.24H58.97c-10.99,0-13.12,3.47-16.21,10.24L0,180.15h568.89l-42.75-94.06Z" fill="#cf0505"></path><path class="cls-10" d="M47.41 118.52H75.85V128H47.41z" fill="#ab0404"></path><path class="cls-10" d="M104.3 98.57H132.74V108.05H104.3z" fill="#ab0404"></path><path class="cls-10" d="M113.78 152.2H142.22V161.67999999999998H113.78z" fill="#ab0404"></path><path class="cls-10" d="M143.81 75.85H172.25V85.33H143.81z" fill="#ab0404"></path><path class="cls-10" d="M407.31 85.33H435.75V94.81H407.31z" fill="#ab0404"></path><path class="cls-10" d="M464 117.53H492.44V127.01H464z" fill="#ab0404"></path><path class="cls-10" d="M433.79 150.72H462.23V160.2H433.79z" fill="#ab0404"></path><path class="cls-10" d="M512 151.7H540.44V161.17999999999998H512z" fill="#ab0404"></path><path class="cls-10" d="M483.55 170.67H511.99V180.14999999999998H483.55z" fill="#ab0404"></path><path class="cls-10" d="M478.81 89.09H507.25V98.57000000000001H478.81z" fill="#ab0404"></path><path class="cls-10" d="M45.04 164.72H73.48V174.2H45.04z" fill="#ab0404"></path><path class="cls-5" d="M18.96 180.15H549.9200000000001V512H18.96z" fill="url(#1776867898078-2481733_linear-gradient)"></path><path class="cls-6" d="M273.78,4.07L118.52,142.22h332.01L295.11,4.07c-6.28-5.58-15.39-5.27-21.33,0Z" fill="#ff000e"></path><path class="cls-3" d="M284.44 28.45L151.7 142.22 151.7 512 417.18 512 417.18 142.22 284.44 28.45z" fill="url(#1776867898078-2481733_linear-gradient-2)"></path><path class="cls-14" d="M52.15 218.07H118.52000000000001V317.63H52.15z" fill="#b79c7c"></path><path class="cls-13" d="M87.7 227.56H109.03V265.49H87.7z" fill="#302c3b"></path><path class="cls-13" d="M61.63 227.56H82.96000000000001V265.49H61.63z" fill="#302c3b"></path><path class="cls-13" d="M87.7 270.22H109.03V308.15000000000003H87.7z" fill="#302c3b"></path><path class="cls-13" d="M61.63 270.22H82.96000000000001V308.15000000000003H61.63z" fill="#302c3b"></path><path class="cls-14" d="M450.37 218.07H516.74V317.63H450.37z" fill="#b79c7c"></path><path class="cls-13" d="M485.93 227.56H507.26V265.49H485.93z" fill="#302c3b"></path><path class="cls-13" d="M459.85 227.56H481.18V265.49H459.85z" fill="#302c3b"></path><path class="cls-13" d="M485.93 270.22H507.26V308.15000000000003H485.93z" fill="#302c3b"></path><path class="cls-13" d="M459.85 270.22H481.18V308.15000000000003H459.85z" fill="#302c3b"></path><path class="cls-14" d="M52.15 350.8H118.52000000000001V450.36H52.15z" fill="#b79c7c"></path><path class="cls-13" d="M87.7 360.28H109.03V398.21H87.7z" fill="#302c3b"></path><path class="cls-13" d="M61.63 360.28H82.96000000000001V398.21H61.63z" fill="#302c3b"></path><path class="cls-13" d="M87.7 402.94H109.03V440.87H87.7z" fill="#302c3b"></path><path class="cls-13" d="M61.63 402.94H82.96000000000001V440.87H61.63z" fill="#302c3b"></path><path class="cls-14" d="M450.37 350.8H516.74V450.36H450.37z" fill="#b79c7c"></path><path class="cls-13" d="M485.93 360.28H507.26V398.21H485.93z" fill="#302c3b"></path><path class="cls-13" d="M459.85 360.28H481.18V398.21H459.85z" fill="#302c3b"></path><path class="cls-13" d="M485.93 402.94H507.26V440.87H485.93z" fill="#302c3b"></path><path class="cls-13" d="M459.85 402.94H481.18V440.87H459.85z" fill="#302c3b"></path><path id="1776867898078-2481733_Rectangle-path" class="cls-16" d="M199.11 322.35H369.78V474.05H199.11z" fill="#e3cc9e"></path><path id="1776867898078-2481733_Rectangle-path-2" data-name="Rectangle-path" class="cls-4" d="M210.96 331.83H357.92V474.04999999999995H210.96z" fill="#744727"></path><path id="1776867898078-2481733_Rectangle-path-3" data-name="Rectangle-path" class="cls-9" d="M215.7 336.57H353.17999999999995V474.04999999999995H215.7z" fill="#9e6c49"></path><path id="1776867898078-2481733_Rectangle-path-4" data-name="Rectangle-path" class="cls-4" d="M282.07 334.2H286.81V474.04999999999995H282.07z" fill="#744727"></path><path id="1776867898078-2481733_Rectangle" class="cls-4" d="M272.59,406.65v13.93c0,3.37-5.93,3.37-5.93,0v-13.93c0-3.36,5.93-3.36,5.93,0Z" fill="#744727"></path><path id="1776867898078-2481733_Rectangle-2" data-name="Rectangle" class="cls-4" d="M302.22,406.65v13.93c0,3.37-5.93,3.37-5.93,0v-13.93c0-3.36,5.93-3.36,5.93,0Z" fill="#744727"></path><path class="cls-13" d="M301.04 348.43H317.63V365.02H301.04z" fill="#302c3b"></path><path class="cls-13" d="M322.37 348.43H338.96V365.02H322.37z" fill="#302c3b"></path><path class="cls-13" d="M301.04 369.76H317.63V386.34999999999997H301.04z" fill="#302c3b"></path><path class="cls-13" d="M322.37 369.76H338.96V386.34999999999997H322.37z" fill="#302c3b"></path><path class="cls-13" d="M229.93 348.43H246.52V365.02H229.93z" fill="#302c3b"></path><path class="cls-13" d="M251.26 348.43H267.84999999999997V365.02H251.26z" fill="#302c3b"></path><path class="cls-13" d="M229.93 369.76H246.52V386.34999999999997H229.93z" fill="#302c3b"></path><path class="cls-13" d="M251.26 369.76H267.84999999999997V386.34999999999997H251.26z" fill="#302c3b"></path><circle class="cls-16" cx="284.44" cy="189.63" r="66.37" fill="#e3cc9e"></circle><circle class="cls-14" cx="284.44" cy="189.63" r="57.64" fill="#b79c7c"></circle><circle class="cls-8" cx="284.44" cy="189.63" r="52.39" fill="#fff"></circle><circle class="cls-13" cx="284.44" cy="189.62" r="6.99" fill="#302c3b"></circle><path class="cls-13" d="M249.09 189.63L252.28 193.19 284.44 191.4 284.44 187.85 252.28 186.07 249.09 189.63z" fill="#302c3b"></path><path class="cls-13" d="M284.44 141.4L280.89 144.92 282.67 189.01 286.23 189.01 288 144.92 284.44 141.4z" fill="#302c3b"></path><circle class="cls-12" cx="284.44" cy="189.63" r="3.49" fill="#4e5e67"></circle><path class="cls-1" d="M413.92,502.52H154.96c-4.13,0-8,2.97-8,6.2v3.28h274.96v-3.28c0-3.23-3.86-6.2-7.99-6.2Z" fill="#cfd8dd"></path><path class="cls-15" d="M399.7,493.04h-230.51c-4.13,0-8,2.97-8,6.2v3.28h246.52v-3.28c0-3.23-3.87-6.2-8-6.2Z" fill="#e6ebef"></path><path class="cls-1" d="M385.48,483.56h-202.07c-4.13,0-8,2.97-8,6.2v3.28h218.07v-3.28c0-3.23-3.87-6.2-8-6.2Z" fill="#cfd8dd"></path><path class="cls-15" d="M371.26,474.07h-173.62c-4.13,0-8,2.97-8,6.2v3.28h189.63v-3.28c0-3.23-3.87-6.2-8-6.2Z" fill="#e6ebef"></path><path class="cls-2" d="M535.09,484.28c-8.89-2.66-13.64,3.07-13.64,3.07-2.95-1.37-12.13-.52-12.72,7.24-2.52,1.36-6.08,5.89-3.61,9.29-8.25,1.53-4.17,8.12-4.17,8.12h65.53s6.4-5.76-1.6-9.76c1.78-2.91-1.92-10.37-8.9-10.45,1.94-1.71-3.11-4.37-6.94-4.72-2.1-4.14-8.45-6.08-13.93-2.8Z" fill="#7ab51d"></path><path class="cls-7" d="M482.64,466.98c-11.82-4.33-18.16,4.98-18.16,4.98-3.92-2.22-16.14-.83-16.93,11.78-3.35,2.17-8.09,9.56-4.81,15.09-10.96,2.47-5.54,13.17-5.54,13.17h87.19s8.5-9.33-2.14-15.83c2.37-4.74-2.56-16.85-11.85-16.96,2.59-2.76-4.14-7.11-9.24-7.69-2.77-6.7-11.22-9.85-18.52-4.53Z" fill="#92c932"></path><path class="cls-2" d="M442.38,484.5c-8.89-2.65-13.64,3.03-13.64,3.03-2.95-1.36-12.13-.5-12.72,7.21-2.52,1.32-6.08,5.83-3.61,9.23-8.24,1.48-4.16,8.03-4.16,8.03h65.53s6.4-5.71-1.6-9.68c1.78-2.87-1.92-10.28-8.9-10.35,1.94-1.69-3.11-4.33-6.94-4.68-2.1-4.11-8.46-6.02-13.94-2.78Z" fill="#7ab51d"></path><path class="cls-7" d="M33.8,484.28c8.89-2.66,13.65,3.07,13.65,3.07,2.95-1.37,12.13-.52,12.72,7.24,2.52,1.36,6.08,5.89,3.61,9.29,8.24,1.53,4.16,8.12,4.16,8.12H2.43s-6.4-5.76,1.6-9.76c-1.78-2.91,1.92-10.37,8.9-10.45-1.94-1.71,3.11-4.37,6.94-4.72,2.1-4.14,8.45-6.08,13.93-2.8Z" fill="#92c932"></path><path class="cls-2" d="M86.25,466.98c11.82-4.33,18.16,4.98,18.16,4.98,3.92-2.22,16.14-.83,16.93,11.78,3.35,2.17,8.09,9.56,4.81,15.09,10.96,2.47,5.54,13.17,5.54,13.17H44.49s-8.5-9.33,2.14-15.83c-2.37-4.74,2.56-16.85,11.85-16.96-2.59-2.76,4.14-7.11,9.24-7.69,2.78-6.7,11.23-9.85,18.53-4.53Z" fill="#7ab51d"></path><path class="cls-7" d="M126.51,484.5c8.89-2.65,13.64,3.03,13.64,3.03,2.95-1.36,12.13-.5,12.72,7.21,2.52,1.32,6.08,5.83,3.61,9.23,8.24,1.48,4.16,8.03,4.16,8.03h-65.53s-6.4-5.71,1.6-9.68c-1.78-2.87,1.92-10.28,8.9-10.35-1.94-1.69,3.11-4.33,6.94-4.68,2.1-4.11,8.46-6.02,13.94-2.78Z" fill="#92c932"></path></g></svg>