<svg data-name="Layer 1" xmlns="http://www.w3.org/2000/svg" style="" viewBox="0 0 511.99 512"><g class="nc-icon-wrapper"><defs><linearGradient id="1776732453094-2154759_linear-gradient" x1="-126.39" y1="198" x2="-106.66" y2="198" gradientTransform="rotate(40.25 -192.829 687.462)" gradientUnits="userSpaceOnUse"><stop offset="0" stop-color="#c49c7d"></stop><stop offset="1" stop-color="#694739"></stop></linearGradient><linearGradient id="1776732453094-2154759_linear-gradient-2" x1="-325.14" y1="7.98" x2="-325.14" y2="-331.16" gradientTransform="rotate(45 -203.685 695.691)" gradientUnits="userSpaceOnUse"><stop offset="0" stop-color="#b300af"></stop><stop offset="1" stop-color="#f02beb"></stop></linearGradient><linearGradient id="1776732453094-2154759_linear-gradient-3" x1="-53.98" y1="177.6" x2="-53.98" y2="-161.59" gradientTransform="rotate(45 -203.685 695.691)" gradientUnits="userSpaceOnUse"><stop offset="0" stop-color="#cf0000"></stop><stop offset="1" stop-color="#ff000e"></stop></linearGradient><linearGradient id="1776732453094-2154759_linear-gradient-4" x1="-280.73" y1="6.96" x2="-280.73" y2="-330.14" gradientTransform="rotate(45 -203.685 695.691)" gradientUnits="userSpaceOnUse"><stop offset="0" stop-color="#1774ff"></stop><stop offset="1" stop-color="#55daf2"></stop></linearGradient><linearGradient id="1776732453094-2154759_linear-gradient-5" x1="-98.39" y1="177.54" x2="-98.39" y2="-161.59" gradientTransform="rotate(45 -203.685 695.691)" gradientUnits="userSpaceOnUse"><stop offset="0" stop-color="#fa0"></stop><stop offset="1" stop-color="#ffea00"></stop></linearGradient><linearGradient id="1776732453094-2154759_linear-gradient-6" x1="-189.59" y1=".12" x2="-189.59" y2="-161.59" gradientTransform="rotate(45 -203.685 695.691)" gradientUnits="userSpaceOnUse"><stop offset="0" stop-color="#52a100"></stop><stop offset="1" stop-color="#9be323"></stop></linearGradient><radialGradient id="1776732453094-2154759_radial-gradient" cx="269.89" cy="2104.67" fx="269.89" fy="2104.67" r="177.2" gradientTransform="matrix(1 0 0 .2 0 47.37)" gradientUnits="userSpaceOnUse"><stop offset="0" stop-color="#571700" stop-opacity=".2"></stop><stop offset=".23" stop-color="#591a00" stop-opacity=".15"></stop><stop offset=".38" stop-color="#612200" stop-opacity=".12"></stop><stop offset=".51" stop-color="#6e3100" stop-opacity=".1"></stop><stop offset=".62" stop-color="#814600" stop-opacity=".08"></stop><stop offset=".72" stop-color="#996100" stop-opacity=".05"></stop><stop offset=".82" stop-color="#b68300" stop-opacity=".04"></stop><stop offset=".92" stop-color="#d9aa00" stop-opacity=".02"></stop><stop offset="1" stop-color="#ffd500" stop-opacity="0"></stop></radialGradient></defs><path class="cls-13" d="M511.99,502.59c0,12.54-511.99,12.54-511.99,0,0-22.19,114.6-56.74,255.99-56.74s255.99,34.56,255.99,56.74Z" fill="#ffd500"></path><path class="cls-10" d="M97.45 477.85L72.1 477.33 276.21 236.36 291.23 249.08 97.45 477.85z" fill="url(#1776732453094-2154759_linear-gradient)"></path><path class="cls-7" d="M412.5,99.49C306.59-6.4,148.3-19.8,106.41,22.1c0,0,36.78,61.78,62.8,62.8,0,0,179.71-48.89,243.28,14.59Z" fill="url(#1776732453094-2154759_linear-gradient-2)"></path><path class="cls-6" d="M412.5,99.49c63.57,63.57,14.59,243.28,14.59,243.28,1.02,26.11,62.8,62.8,62.8,62.8,41.9-41.9,28.5-200.1-77.39-306.08Z" fill="url(#1776732453094-2154759_linear-gradient-3)"></path><path class="cls-12" d="M106.41,22.1s-18.52,22.95-15.02,33.62c6.06,18.6,25.68,38.14,44.29,44.2,10.67,3.5,33.62-15.02,33.62-15.02l-62.89-62.8h0Z" fill="#990095"></path><path class="cls-1" d="M427.09,342.77s-18.52,22.95-15.02,33.62c6.06,18.6,25.68,38.23,44.2,44.29,10.67,3.5,33.62-15.02,33.62-15.02l-62.8-62.89h0Z" fill="#cf0000"></path><path class="cls-5" d="M412.5,99.49c-63.57-63.49-201.38-56.57-243.28-14.59,0,0,53.59,75.35,80.64,80.64,0,0,162.64-66.05,162.64-66.05Z" fill="url(#1776732453094-2154759_linear-gradient-4)"></path><path class="cls-3" d="M412.5,99.49l-66.05,162.64c1.96,26.96,80.64,80.64,80.64,80.64,41.9-41.9,48.98-179.71-14.59-243.28h0Z" fill="url(#1776732453094-2154759_linear-gradient-5)"></path><path class="cls-8" d="M169.21,84.9s-18.52,22.95-15.02,33.62c6.06,18.6,41.98,54.53,61.44,61.44,11.09,3.93,34.22-14.42,34.22-14.42,0,0-80.64-80.64-80.64-80.64Z" fill="#006dae"></path><path class="cls-2" d="M346.44,262.13s-18.35,23.12-14.42,34.22c6.91,19.37,42.84,55.38,61.44,61.44,10.67,3.5,33.62-15.02,33.62-15.02l-80.64-80.64Z" fill="#fa0"></path><path class="cls-11" d="M249.85,165.54s-18.35,23.12-14.42,34.22c6.91,19.46,57.43,69.97,76.8,76.8,11.09,3.93,34.22-14.42,34.22-14.42-28.93-50.6-96.59-96.59-96.59-96.59h-.01Z" fill="#529320"></path><path class="cls-4" d="M412.5,99.49s-82.94-13.65-162.64,65.96l96.59,96.68c79.7-79.61,66.05-162.64,66.05-162.64Z" fill="url(#1776732453094-2154759_linear-gradient-6)"></path><path class="cls-14" d="M434.68,124.32c-7.85-25-22.27-39.34-47.1-47.02,14.16,11.18,35.92,32.94,47.1,47.02Z" fill="#302c3b"></path><path class="cls-9" d="M255.99,445.85c-72.02,0-137.13,8.96-183.63,20.74,4.78,25.17,90.54,45.23,195.92,45.4h5.03c94.72-.43,173.14-16.81,190.63-38.48-46.51-14.93-122.28-27.65-207.95-27.65h0Z" fill="url(#1776732453094-2154759_radial-gradient)"></path></g></svg>