<svg data-name="Layer 1" xmlns="http://www.w3.org/2000/svg" style="" viewBox="0 0 512 512"><g class="nc-icon-wrapper"><defs><linearGradient id="1776732453100-9183934_linear-gradient" x1="256" y1="10.53" x2="256" y2="514" gradientTransform="matrix(1 0 0 -1 0 514)" gradientUnits="userSpaceOnUse"><stop offset="0" stop-color="#ffab8c"></stop><stop offset=".03" stop-color="#ffa38c"></stop><stop offset=".23" stop-color="#ff7b8e"></stop><stop offset=".39" stop-color="#ff6290"></stop><stop offset=".48" stop-color="#ff5990"></stop><stop offset=".61" stop-color="#e44696"></stop><stop offset=".88" stop-color="#a017a4"></stop><stop offset="1" stop-color="#8000ab"></stop></linearGradient><radialGradient id="1776732453100-9183934_radial-gradient" cx="256" cy="154.97" fx="256" fy="154.97" r="274.65" gradientTransform="matrix(1 0 0 -1 0 514)" gradientUnits="userSpaceOnUse"><stop offset=".35" stop-color="#ffab8c"></stop><stop offset="1" stop-color="#ffab8c" stop-opacity="0"></stop></radialGradient><linearGradient id="1776732453100-9183934_linear-gradient-2" x1="373.97" y1="154.23" x2="373.97" y2="348.88" gradientTransform="matrix(1 0 0 -1 0 514)" gradientUnits="userSpaceOnUse"><stop offset="0" stop-color="#ba6381"></stop><stop offset=".23" stop-color="#9f4574"></stop><stop offset=".56" stop-color="#7d1f64"></stop><stop offset=".83" stop-color="#69085a"></stop><stop offset="1" stop-color="#610056"></stop></linearGradient><linearGradient id="1776732453100-9183934_linear-gradient-3" x1="422.27" y1="154.23" x2="422.27" y2="348.88" gradientTransform="matrix(1 0 0 -1 0 514)" gradientUnits="userSpaceOnUse"><stop offset="0" stop-color="#852460"></stop><stop offset=".1" stop-color="#7b1f5c"></stop><stop offset=".49" stop-color="#550e50"></stop><stop offset=".8" stop-color="#3e0448"></stop><stop offset="1" stop-color="#360045"></stop></linearGradient><linearGradient id="1776732453100-9183934_linear-gradient-4" x1="312.02" y1="14.12" x2="312.02" y2="241.1" gradientTransform="matrix(1 0 0 -1 0 514)" gradientUnits="userSpaceOnUse"><stop offset="0" stop-color="#ba6381"></stop><stop offset=".23" stop-color="#9f4574"></stop><stop offset=".56" stop-color="#7d1f64"></stop><stop offset=".83" stop-color="#69085a"></stop><stop offset="1" stop-color="#610056"></stop></linearGradient><linearGradient id="1776732453100-9183934_linear-gradient-5" x1="359.89" y1="14.12" x2="359.89" y2="241.1" gradientTransform="matrix(1 0 0 -1 0 514)" gradientUnits="userSpaceOnUse"><stop offset="0" stop-color="#852460"></stop><stop offset=".1" stop-color="#7b1f5c"></stop><stop offset=".49" stop-color="#550e50"></stop><stop offset=".8" stop-color="#3e0448"></stop><stop offset="1" stop-color="#360045"></stop></linearGradient><linearGradient id="1776732453100-9183934_linear-gradient-6" x1="70.23" y1="304.93" x2="189.7" y2="304.93" gradientTransform="matrix(1 0 0 -1 0 514)" gradientUnits="userSpaceOnUse"><stop offset="0" stop-color="#ba6381"></stop><stop offset=".06" stop-color="#af5a7c"></stop><stop offset=".37" stop-color="#7b3464"></stop><stop offset=".65" stop-color="#551853"></stop><stop offset=".86" stop-color="#3e0649"></stop><stop offset="1" stop-color="#360045"></stop></linearGradient><linearGradient id="1776732453100-9183934_linear-gradient-7" x1="61.7" y1="172.67" x2="198.23" y2="172.67" gradientTransform="matrix(1 0 0 -1 0 514)" gradientUnits="userSpaceOnUse"><stop offset="0" stop-color="#ba6381"></stop><stop offset=".06" stop-color="#af5a7c"></stop><stop offset=".37" stop-color="#7b3464"></stop><stop offset=".65" stop-color="#551853"></stop><stop offset=".86" stop-color="#3e0649"></stop><stop offset="1" stop-color="#360045"></stop></linearGradient><linearGradient id="1776732453100-9183934_linear-gradient-8" x1="129.96" y1="10.53" x2="129.96" y2="147.07" gradientTransform="matrix(1 0 0 -1 0 514)" gradientUnits="userSpaceOnUse"><stop offset="0" stop-color="#ba6381"></stop><stop offset=".06" stop-color="#af5a7c"></stop><stop offset=".37" stop-color="#7b3464"></stop><stop offset=".65" stop-color="#551853"></stop><stop offset=".86" stop-color="#3e0649"></stop><stop offset="1" stop-color="#360045"></stop></linearGradient><linearGradient id="1776732453100-9183934_linear-gradient-9" x1="417.96" y1="2" x2="417.96" y2="164.13" gradientTransform="matrix(1 0 0 -1 0 514)" gradientUnits="userSpaceOnUse"><stop offset="0" stop-color="#ba6381"></stop><stop offset=".23" stop-color="#9f4574"></stop><stop offset=".56" stop-color="#7d1f64"></stop><stop offset=".83" stop-color="#69085a"></stop><stop offset="1" stop-color="#610056"></stop></linearGradient><linearGradient id="1776732453100-9183934_linear-gradient-10" x1="476.5" y1="2" x2="476.5" y2="164.13" gradientTransform="matrix(1 0 0 -1 0 514)" gradientUnits="userSpaceOnUse"><stop offset="0" stop-color="#852460"></stop><stop offset=".1" stop-color="#7b1f5c"></stop><stop offset=".49" stop-color="#550e50"></stop><stop offset=".8" stop-color="#3e0448"></stop><stop offset="1" stop-color="#360045"></stop></linearGradient><linearGradient id="1776732453100-9183934_linear-gradient-11" x1="208.47" y1="7.63" x2="208.47" y2="171.47" gradientTransform="matrix(1 0 0 -1 0 514)" gradientUnits="userSpaceOnUse"><stop offset="0" stop-color="#ba6381"></stop><stop offset=".23" stop-color="#9f4574"></stop><stop offset=".56" stop-color="#7d1f64"></stop><stop offset=".83" stop-color="#69085a"></stop><stop offset="1" stop-color="#610056"></stop></linearGradient><linearGradient id="1776732453100-9183934_linear-gradient-12" x1="269.99" y1="7.63" x2="269.99" y2="171.47" gradientTransform="matrix(1 0 0 -1 0 514)" gradientUnits="userSpaceOnUse"><stop offset="0" stop-color="#852460"></stop><stop offset=".1" stop-color="#7b1f5c"></stop><stop offset=".49" stop-color="#550e50"></stop><stop offset=".8" stop-color="#3e0448"></stop><stop offset="1" stop-color="#360045"></stop></linearGradient><linearGradient id="1776732453100-9183934_linear-gradient-13" x1="48.98" y1="10.53" x2="48.98" y2="125.73" gradientTransform="matrix(1 0 0 -1 0 514)" gradientUnits="userSpaceOnUse"><stop offset="0" stop-color="#ba6381"></stop><stop offset=".23" stop-color="#9f4574"></stop><stop offset=".56" stop-color="#7d1f64"></stop><stop offset=".83" stop-color="#69085a"></stop><stop offset="1" stop-color="#610056"></stop></linearGradient><linearGradient id="1776732453100-9183934_linear-gradient-14" x1="78.34" y1="10.53" x2="78.34" y2="125.73" gradientTransform="matrix(1 0 0 -1 0 514)" gradientUnits="userSpaceOnUse"><stop offset="0" stop-color="#852460"></stop><stop offset=".1" stop-color="#7b1f5c"></stop><stop offset=".49" stop-color="#550e50"></stop><stop offset=".8" stop-color="#3e0448"></stop><stop offset="1" stop-color="#360045"></stop></linearGradient></defs><path class="cls-12" d="M0 0H512V503.47H0z" fill="url(#1776732453100-9183934_linear-gradient)"></path><path class="cls-11" d="M0 0H512V503.47H0z" fill="url(#1776732453100-9183934_radial-gradient)"></path><path class="cls-10" d="M342.7 165.12H405.25V359.77H342.7z" fill="url(#1776732453100-9183934_linear-gradient-2)"></path><path class="cls-9" d="M399.53 165.12H445.01V359.77H399.53z" fill="url(#1776732453100-9183934_linear-gradient-3)"></path><path class="cls-13" d="M291.93 263.34H347.4V275.28999999999996H291.93z" fill="#852460"></path><path class="cls-2" d="M332.2 263.34H362.40999999999997V275.28999999999996H332.2z" fill="#360045"></path><path class="cls-8" d="M276.74 272.9H347.31V499.89H276.74z" fill="url(#1776732453100-9183934_linear-gradient-4)"></path><path class="cls-5" d="M342.27 272.9H377.51V499.89H342.27z" fill="url(#1776732453100-9183934_linear-gradient-5)"></path><path class="cls-13" d="M87.3 119.47H172.63V136.54H87.3z" fill="#852460"></path><path class="cls-6" d="M70.23 128H189.7V290.13H70.23z" fill="url(#1776732453100-9183934_linear-gradient-6)"></path><path class="cls-4" d="M61.7 256H198.23000000000002V426.66999999999996H61.7z" fill="url(#1776732453100-9183934_linear-gradient-7)"></path><path class="cls-3" d="M53.16 366.93H206.76V503.46000000000004H53.16z" fill="url(#1776732453100-9183934_linear-gradient-8)"></path><path class="cls-13" d="M382.21 336.21H473V353.28H382.21z" fill="#852460"></path><path class="cls-2" d="M453.63 336.21H475.48V353.28H453.63z" fill="#360045"></path><path class="cls-7" d="M362.84 349.87H473.09V512H362.84z" fill="url(#1776732453100-9183934_linear-gradient-9)"></path><path class="cls-15" d="M458.07 349.87H494.93V512H458.07z" fill="url(#1776732453100-9183934_linear-gradient-10)"></path><path class="cls-13" d="M172.89 333.14H248.07V344.83H172.89z" fill="#852460"></path><path class="cls-2" d="M241.75 333.14H279.3V344.83H241.75z" fill="#360045"></path><path class="cls-16" d="M160.34 342.53H256.6V506.37H160.34z" fill="url(#1776732453100-9183934_linear-gradient-11)"></path><path class="cls-17" d="M248.06 342.53H291.92V506.37H248.06z" fill="url(#1776732453100-9183934_linear-gradient-12)"></path><path class="cls-18" d="M17.07 388.27H80.9V503.46999999999997H17.07z" fill="url(#1776732453100-9183934_linear-gradient-13)"></path><path class="cls-19" d="M58.03 388.27H98.65V503.46999999999997H58.03z" fill="url(#1776732453100-9183934_linear-gradient-14)"></path><path class="cls-20" d="M401.07,486.4c-51.2,21.33-110.93,0-119.47,0-27.14,0-52.74,18.43-68.27,17.07-16.21-1.45-43.52-17.07-59.73-17.07-7.08,0-25.34,11.52-42.67,8.53-7.59-1.28-43.52-17.07-51.2-17.07-11.78,0-59.73,17.07-59.73,17.07v17.07h512v-25.6s-39.85-17.07-51.2-17.07c-9.56,0-43.95,10.5-59.73,17.07Z" fill="#942458"></path><path class="cls-1" d="M424.62 362.67H441.69V371.2H424.62z" fill="#ff7c30"></path><path class="cls-14" d="M311.04 290.13H328.11V298.65999999999997H311.04z" fill="#ffac30"></path><path class="cls-14" d="M291.67 321.45H308.74V329.97999999999996H291.67z" fill="#ffac30"></path><path class="cls-14" d="M319.57 384.77H336.64V393.29999999999995H319.57z" fill="#ffac30"></path><path class="cls-14" d="M375.64 236.03H392.71V244.56H375.64z" fill="#ffac30"></path><path class="cls-14" d="M351.4 195.5H368.46999999999997V204.03H351.4z" fill="#ffac30"></path><path class="cls-14" d="M153.51 145.32H170.57999999999998V153.85H153.51z" fill="#ffac30"></path><path class="cls-14" d="M114.26 227.5H131.33V236.03H114.26z" fill="#ffac30"></path><path class="cls-14" d="M153.51 195.5H170.57999999999998V204.03H153.51z" fill="#ffac30"></path><path class="cls-14" d="M86.61 174.68H103.68V183.21H86.61z" fill="#ffac30"></path><path class="cls-14" d="M86.61 271.02H103.68V279.54999999999995H86.61z" fill="#ffac30"></path><path class="cls-14" d="M141.91 300.12H158.98V308.65H141.91z" fill="#ffac30"></path><path class="cls-14" d="M86.61 317.18H103.68V325.71H86.61z" fill="#ffac30"></path><path class="cls-14" d="M118.61 341.33H135.68V349.85999999999996H118.61z" fill="#ffac30"></path><path class="cls-14" d="M129.96 398.08H147.03V406.60999999999996H129.96z" fill="#ffac30"></path><path class="cls-14" d="M105.73 451.93H122.80000000000001V460.46H105.73z" fill="#ffac30"></path><path class="cls-14" d="M300.2 434.01H317.27V442.53999999999996H300.2z" fill="#ffac30"></path><path class="cls-1" d="M408.06 382.21H425.13V390.73999999999995H408.06z" fill="#ff7c30"></path><path class="cls-1" d="M428.03 427.78H445.09999999999997V436.30999999999995H428.03z" fill="#ff7c30"></path><path class="cls-1" d="M377.6 457.64H394.67V466.16999999999996H377.6z" fill="#ff7c30"></path><path class="cls-1" d="M175.36 355.5H192.43V364.03H175.36z" fill="#ff7c30"></path><path class="cls-1" d="M213.42 391.85H230.48999999999998V400.38H213.42z" fill="#ff7c30"></path><path class="cls-1" d="M31.91 447.66H48.980000000000004V456.19H31.91z" fill="#ff7c30"></path><path class="cls-1" d="M23.38 415.91H40.45V424.44H23.38z" fill="#ff7c30"></path><path class="cls-1" d="M183.89 440.58H200.95999999999998V449.10999999999996H183.89z" fill="#ff7c30"></path></g></svg>