<svg data-name="Layer 1" xmlns="http://www.w3.org/2000/svg" style="" viewBox="0 0 780.18 512"><g class="nc-icon-wrapper"><defs><linearGradient id="1776867898056-9720133_linear-gradient" x1="390.87" y1="75.93" x2="390.87" y2="468.87" gradientTransform="matrix(1 0 0 -1 0 496)" gradientUnits="userSpaceOnUse"><stop offset="0" stop-color="#c40000"></stop><stop offset=".07" stop-color="#ce0002"></stop><stop offset=".25" stop-color="#e40008"></stop><stop offset=".44" stop-color="#f3000b"></stop><stop offset=".67" stop-color="#fc000d"></stop><stop offset="1" stop-color="#ff000e"></stop></linearGradient><linearGradient id="1776867898056-9720133_linear-gradient-2" x1="-33.77" y1="916.37" x2="-23.79" y2="916.37" gradientTransform="rotate(92.89 803.643 -643.507) scale(1.4 -1.17)" gradientUnits="userSpaceOnUse"><stop offset=".19" stop-color="#ff000e"></stop><stop offset=".4" stop-color="#f4000b"></stop><stop offset=".78" stop-color="#d80005"></stop><stop offset="1" stop-color="#c40000"></stop></linearGradient><linearGradient id="1776867898056-9720133_linear-gradient-3" x1="445.68" y1="303.85" x2="445.68" y2="442.97" gradientTransform="matrix(1 0 0 -1 0 496)" gradientUnits="userSpaceOnUse"><stop offset="0" stop-color="#302c3b"></stop><stop offset=".29" stop-color="#454754"></stop><stop offset=".76" stop-color="#636d78"></stop><stop offset="1" stop-color="#6e7b85"></stop></linearGradient><linearGradient id="1776867898056-9720133_linear-gradient-4" x1="684.28" y1="324.62" x2="684.28" y2="443.28" gradientTransform="matrix(1 0 0 -1 0 496)" gradientUnits="userSpaceOnUse"><stop offset="0" stop-color="#302c3b"></stop><stop offset=".29" stop-color="#454754"></stop><stop offset=".76" stop-color="#636d78"></stop><stop offset="1" stop-color="#6e7b85"></stop></linearGradient><radialGradient id="1776867898056-9720133_radial-gradient" cx="532" cy="89.84" fx="532" fy="89.84" r="78.98" gradientTransform="matrix(1.15 0 0 -1.16 24.82 524.64)" gradientUnits="userSpaceOnUse"><stop offset=".49" stop-color="#5b666e"></stop><stop offset=".64" stop-color="#525a64"></stop><stop offset=".92" stop-color="#3c3b49"></stop><stop offset="1" stop-color="#343040"></stop></radialGradient><radialGradient id="1776867898056-9720133_radial-gradient-2" cx="113.92" cy="89.83" fx="113.92" fy="89.83" r="78.97" gradientTransform="matrix(1.15 0 0 -1.16 24.82 524.64)" gradientUnits="userSpaceOnUse"><stop offset=".49" stop-color="#5b666e"></stop><stop offset=".64" stop-color="#525a64"></stop><stop offset=".92" stop-color="#3c3b49"></stop><stop offset="1" stop-color="#343040"></stop></radialGradient></defs><path class="cls-17" d="M621.48,28.82c0-37.56-6.06-35.97-6.06-9.24-4.83-2.08-25.34-2.55-25.34,8.08,0,3.79,31.4,4.53,31.4,1.16Z" fill="#302c3b"></path><path class="cls-17" d="M9.29,352.3c-13.59,48.52-8.25,65.05-8.25,65.05,79.6,8.91,25.94-41.67,8.25-65.05Z" fill="#302c3b"></path><path class="cls-11" d="M770.61,286.22c-1.44-5.12-7.09-11.74-7.09-11.74-33.98-27.55-15.19-61.73-15.19-61.73-13.17-64.33-67.55-128.46-108.04-156.76,8.3-10.69,22.8-13.15,19.98-15.82-13.41-12.67-62.23-13.03-162.35-13.03,0,0,.01,0,.02.01-64.61.21-119.04,3.58-148.71,14.99-28.39,10.91-106.53,72.07-165.54,148.24C97.02,204.02,22.1,230.5,4.06,331.67c-.87,4.83-3.86,22.86-1.77,24.1,10.69,6.35,18.88,64.31,18.88,64.31h720.77c21.55,0,54.76-41.81,28.67-133.85Z" fill="url(#1776867898056-9720133_linear-gradient)"></path><path class="cls-16" d="M701.17,433.21H106.74c-90.42,0-84.55-13.14-84.55-13.14h720.77s2.16,13.14-41.78,13.14Z" fill="#4e5e67"></path><path class="cls-5" d="M729.54,207.79s-267.29-7.67-623.72,31.38c198.57.43,623.72-31.38,623.72-31.38Z" fill="url(#1776867898056-9720133_linear-gradient-2)"></path><path class="cls-10" d="M748.33,212.73c-14.48,3.43-43.29,14.91-43.29,24.93,0,12.31,11.64,36.97,23.31,36.97h34.94s3.08-32.61-14.96-61.9Z" fill="#b00505"></path><path class="cls-6" d="M760.19,258c0,16.46-23.3,16.46-23.3,0s23.3-16.41,23.3,0Z" fill="#f46c60"></path><path class="cls-14" d="M740.41,235.84c0,16.43-23.3,16.43-23.3,0s23.3-16.43,23.3,0Z" fill="#e81c27"></path><path class="cls-12" d="M88.77,245.14h-11.65c-23.77,0-40.77,21.91-40.77,36.97h43.68c7.41,0,26.21,0,26.21-27.73.01-5.67-5.47-9.24-17.47-9.24Z" fill="#fff"></path><path class="cls-9" d="M60.38,254.02c11.64,0,11.64,23.73,0,23.73s-11.65-23.73,0-23.73Z" fill="#99a8ae"></path><path class="cls-9" d="M85.37,247.16c15.54,0,15.54,32.7,0,32.7s-15.53-32.7,0-32.7Z" fill="#99a8ae"></path><path class="cls-15" d="M47.46,303.46c11.56,7.52-3.28,33.15-14.84,25.6-11.58-7.51,3.25-33.09,14.84-25.6Z" fill="#f9b700"></path><path class="cls-1" d="M518.08,238.31c0-6.14,0-11.12-18.88-11.12h-19.8c-18.92,0-18.92,4.97-18.92,11.12,0,3.72,8.48,3.72,18.92,3.72h19.8c10.41,0,18.88,0,18.88-3.72Z" fill="#cfd8dd"></path><path class="cls-13" d="M319.55,390.24c-32.49,0-58.33-1.24-61.66-4.9-9.63-10.67-19.05-112.36.33-200.6l2.83.72c-19.31,88.03-9.41,188.5-1.05,197.77,7.59,8.4,196.68.5,206.3-.48,17.62-1.78,40.39-9.89,48.62-38.22,23.28-80.02,1.97-178.53,1.74-179.51l2.85-.69c.22.98,21.71,100.29-1.8,181.09-8.72,29.95-32.62,38.5-51.11,40.39-1.26.11-85.87,4.43-147.04,4.43Z" fill="#c21413"></path><path class="cls-4" d="M237.35,189.26c1.71,9.5,104.78-6.67,412.67-15.34,16.87-.48-20.82-100.07-84.76-117.36-22.76-6.16-180.85-5-207.24,9.44-74.07,40.48-122.2,114.76-120.67,123.26Z" fill="url(#1776867898056-9720133_linear-gradient-3)"></path><path class="cls-7" d="M290.06,117.37c-35.34,27.51-58.71,68.73-55.97,73.75,3.63,6.62,8.98,4.52,50.59,1.19.23-18.32,4.07-56.93,5.38-74.95Z" fill="#1a1626"></path><path class="cls-7" d="M504.61,53.05c-11.39,0-23.71.12-23.71.12l7.52,126.26s18.08,0,33.67-1.1l-17.48-125.28Z" fill="#1a1626"></path><path class="cls-10" d="M318.02,193.67v-30.17c0-12.7-46.48-2.35-46.46,8.42v21.48c0,4.52,46.46,10.72,46.46.27Z" fill="#b00505"></path><path class="cls-3" d="M634.02,61.17c54.99,38.01,80.93,110.19,80.93,110.21h19.59c-5.35-20.25-35.24-79.31-91.32-118.66l-9.2,8.45Z" fill="url(#1776867898056-9720133_linear-gradient-4)"></path><path class="cls-7" d="M742.04,420.12c0-58.05-46.52-105.02-104.02-105.02-57.41-.02-103.97,47.07-104.02,105.02,0,0,208.04,0,208.04,0Z" fill="#1a1626"></path><ellipse class="cls-8" cx="638.01" cy="420.1" rx="91.03" ry="91.9" fill="url(#1776867898056-9720133_radial-gradient)"></ellipse><path class="cls-18" d="M700.97,420.1c0,35.12-28.17,63.57-62.95,63.57s-62.94-28.45-62.94-63.57,28.2-63.55,62.94-63.55c34.78,0,62.95,28.48,62.95,63.55Z" fill="#e6ebef"></path><path class="cls-16" d="M683.9,435.83c1.68-4.95,2.62-10.24,2.62-15.74s-.94-10.79-2.62-15.69l-27,15.69,27,15.74Z" fill="#4e5e67"></path><path class="cls-16" d="M647.45,403.57l26.97-15.71c-6.9-7.92-16.3-13.62-26.97-15.76v31.48Z" fill="#4e5e67"></path><path class="cls-16" d="M592.13,404.38c-1.65,4.92-2.61,10.22-2.61,15.71s.96,10.79,2.61,15.71l27-15.71-27-15.71Z" fill="#4e5e67"></path><path class="cls-16" d="M647.45,436.61v31.5c10.69-2.15,20.07-7.84,27-15.79l-27-15.71Z" fill="#4e5e67"></path><path class="cls-16" d="M628.57,403.57v-31.48c-10.67,2.15-20.07,7.84-26.98,15.76l26.98,15.71Z" fill="#4e5e67"></path><path class="cls-16" d="M628.57,436.64l-26.98,15.69c6.92,7.95,16.31,13.64,26.98,15.79v-31.48Z" fill="#4e5e67"></path><ellipse class="cls-1" cx="638.01" cy="420.1" rx="24.73" ry="24.98" fill="#cfd8dd"></ellipse><ellipse class="cls-18" cx="638.01" cy="420.1" rx="8.22" ry="8.29" fill="#e6ebef"></ellipse><path class="cls-16" d="M641.56,405.16c0,4.74-7.08,4.74-7.08,0s7.08-4.73,7.08,0Z" fill="#4e5e67"></path><path class="cls-16" d="M641.56,435.05c0,4.74-7.08,4.74-7.08,0s7.08-4.74,7.08,0Z" fill="#4e5e67"></path><path class="cls-16" d="M652.61,415.72c-4.1,2.38-7.62-3.79-3.52-6.17,4.06-2.39,7.59,3.78,3.52,6.17Z" fill="#4e5e67"></path><path class="cls-16" d="M626.97,430.66c-4.07,2.38-7.59-3.82-3.54-6.19,4.08-2.38,7.62,3.82,3.54,6.19Z" fill="#4e5e67"></path><path class="cls-16" d="M649.06,430.66c-4.07-2.38-.55-8.57,3.55-6.19,4.07,2.39.54,8.57-3.55,6.19Z" fill="#4e5e67"></path><path class="cls-16" d="M623.43,415.72c-4.08-2.38-.54-8.55,3.54-6.17,4.08,2.38.55,8.55-3.54,6.17Z" fill="#4e5e67"></path><path class="cls-7" d="M260.16,420.1c0-58.05-46.53-105.02-104.06-105.02-57.37-.02-103.95,47.07-104,105.02h208.06Z" fill="#1a1626"></path><path class="cls-2" d="M247.15,420.1c0,50.79-40.74,91.9-91.03,91.9s-91.01-41.12-91.01-91.9,40.79-91.88,91.01-91.88,91.03,41.14,91.03,91.88Z" fill="url(#1776867898056-9720133_radial-gradient-2)"></path><path class="cls-18" d="M219.09,420.1c0,35.12-28.16,63.57-62.96,63.57s-62.93-28.45-62.93-63.57,28.2-63.55,62.93-63.55c34.8,0,62.96,28.48,62.96,63.55Z" fill="#e6ebef"></path><path class="cls-16" d="M202.02,435.83c1.68-4.95,2.62-10.22,2.62-15.74s-.94-10.79-2.62-15.69l-26.97,15.69,26.97,15.74Z" fill="#4e5e67"></path><path class="cls-16" d="M165.58,403.57l26.97-15.71c-6.91-7.92-16.3-13.62-26.97-15.76v31.48Z" fill="#4e5e67"></path><path class="cls-16" d="M110.26,404.38c-1.66,4.92-2.58,10.22-2.58,15.71s.94,10.79,2.58,15.74l26.99-15.74-26.99-15.71Z" fill="#4e5e67"></path><path class="cls-16" d="M165.58,436.61v31.5c10.72-2.15,20.07-7.84,26.99-15.76l-26.99-15.74Z" fill="#4e5e67"></path><path class="cls-16" d="M146.67,403.57v-31.48c-10.67,2.15-20.07,7.84-26.97,15.76l26.97,15.71Z" fill="#4e5e67"></path><path class="cls-16" d="M146.67,436.64l-26.97,15.71c6.94,7.92,16.3,13.62,26.97,15.76v-31.48Z" fill="#4e5e67"></path><ellipse class="cls-1" cx="156.12" cy="420.1" rx="24.73" ry="24.98" fill="#cfd8dd"></ellipse><circle class="cls-18" cx="156.15" cy="420.1" r="8.23" fill="#e6ebef"></circle><path class="cls-16" d="M159.68,405.16c0,4.74-7.09,4.74-7.09,0,.01-4.75,7.09-4.75,7.09,0Z" fill="#4e5e67"></path><path class="cls-16" d="M159.68,435.05c0,4.77-7.09,4.77-7.09,0,.01-4.74,7.09-4.74,7.09,0Z" fill="#4e5e67"></path><path class="cls-16" d="M170.73,415.72c-4.08,2.38-7.59-3.79-3.51-6.17,4.05-2.39,7.57,3.78,3.51,6.17Z" fill="#4e5e67"></path><path class="cls-16" d="M145.08,430.66c-4.06,2.38-7.59-3.79-3.54-6.19,4.1-2.38,7.62,3.82,3.54,6.19Z" fill="#4e5e67"></path><path class="cls-16" d="M167.17,430.66c-4.04-2.38-.52-8.57,3.56-6.19,4.06,2.41.54,8.57-3.56,6.19Z" fill="#4e5e67"></path><path class="cls-16" d="M141.54,415.72c-4.08-2.38-.52-8.55,3.54-6.17,4.08,2.38.56,8.55-3.54,6.17Z" fill="#4e5e67"></path></g></svg>