<svg data-name="Layer 1" xmlns="http://www.w3.org/2000/svg" style="" viewBox="0 0 512.01 512"><g class="nc-icon-wrapper"><defs><radialGradient id="1776867898073-3799185_radial-gradient" cx="394.52" cy="-21.72" fx="394.52" fy="-21.72" r="121.51" gradientTransform="matrix(0 -1.02 .95 0 291.25 577.38)" gradientUnits="userSpaceOnUse"><stop offset="0" stop-color="#92c932"></stop><stop offset=".26" stop-color="#8bc230"></stop><stop offset=".64" stop-color="#79ae29"></stop><stop offset="1" stop-color="#629621"></stop></radialGradient><radialGradient id="1776867898073-3799185_radial-gradient-2" cx="177.98" cy="483.07" fx="177.98" fy="483.07" r="92.57" gradientTransform="matrix(-.95 0 0 -1.02 389.73 514.94)" gradientUnits="userSpaceOnUse"><stop offset="0" stop-color="#92c932"></stop><stop offset=".26" stop-color="#8bc230"></stop><stop offset=".64" stop-color="#79ae29"></stop><stop offset="1" stop-color="#629621"></stop></radialGradient><radialGradient id="1776867898073-3799185_radial-gradient-3" cx="-37.88" cy="472.39" fx="-37.88" fy="472.39" r="91" gradientTransform="matrix(.95 0 0 -1.02 172.34 514.94)" gradientUnits="userSpaceOnUse"><stop offset="0" stop-color="#92c932"></stop><stop offset=".26" stop-color="#8bc230"></stop><stop offset=".64" stop-color="#79ae29"></stop><stop offset="1" stop-color="#629621"></stop></radialGradient><radialGradient id="1776867898073-3799185_radial-gradient-4" cx="-94.82" cy="422.11" fx="-94.82" fy="422.11" r="92.31" gradientTransform="matrix(.95 0 0 -1.02 172.34 514.94)" gradientUnits="userSpaceOnUse"><stop offset="0" stop-color="#92c932"></stop><stop offset=".26" stop-color="#8bc230"></stop><stop offset=".64" stop-color="#79ae29"></stop><stop offset="1" stop-color="#629621"></stop></radialGradient><radialGradient id="1776867898073-3799185_radial-gradient-5" cx="400.19" cy="215.71" fx="400.19" fy="215.71" r="94.01" gradientTransform="matrix(0 -1.02 -.95 0 270.83 577.38)" gradientUnits="userSpaceOnUse"><stop offset="0" stop-color="#92c932"></stop><stop offset=".26" stop-color="#8bc230"></stop><stop offset=".64" stop-color="#79ae29"></stop><stop offset="1" stop-color="#629621"></stop></radialGradient><radialGradient id="1776867898073-3799185_radial-gradient-6" cx="382.8" cy="24.95" fx="382.8" fy="24.95" r="90.25" gradientTransform="matrix(-.44798 -.90522 -.84456 .48037 308.15 570.37)" gradientUnits="userSpaceOnUse"><stop offset="0" stop-color="#92c932"></stop><stop offset=".26" stop-color="#8bc230"></stop><stop offset=".64" stop-color="#79ae29"></stop><stop offset="1" stop-color="#629621"></stop></radialGradient><radialGradient id="1776867898073-3799185_radial-gradient-7" cx="114.29" cy="414.98" fx="114.29" fy="414.98" r="114.9" gradientTransform="matrix(-.95 0 0 -1.02 389.73 514.94)" gradientUnits="userSpaceOnUse"><stop offset="0" stop-color="#92c932"></stop><stop offset=".26" stop-color="#8bc230"></stop><stop offset=".64" stop-color="#79ae29"></stop><stop offset="1" stop-color="#629621"></stop></radialGradient><linearGradient id="1776867898073-3799185_linear-gradient" x1="196.52" y1="156.75" x2="276.86" y2="156.75" gradientTransform="rotate(-180 201.355 257)" gradientUnits="userSpaceOnUse"><stop offset="0" stop-color="#91632e"></stop><stop offset=".29" stop-color="#8e612d"></stop><stop offset=".5" stop-color="#855a29"></stop><stop offset=".67" stop-color="#764f22"></stop><stop offset=".83" stop-color="#603f19"></stop><stop offset=".98" stop-color="#442a0d"></stop><stop offset="1" stop-color="#40270b"></stop></linearGradient><radialGradient id="1776867898073-3799185_radial-gradient-8" cx="240.71" cy="416.87" fx="240.71" fy="416.87" r="98.54" gradientTransform="matrix(-.95 0 0 -1.02 389.73 514.94)" gradientUnits="userSpaceOnUse"><stop offset="0" stop-color="#92c932"></stop><stop offset=".26" stop-color="#8bc230"></stop><stop offset=".64" stop-color="#79ae29"></stop><stop offset="1" stop-color="#629621"></stop></radialGradient><radialGradient id="1776867898073-3799185_radial-gradient-9" cx="161.04" cy="366.65" fx="161.04" fy="366.65" r="100.54" gradientTransform="matrix(-.95 0 0 -1.02 389.73 514.94)" gradientUnits="userSpaceOnUse"><stop offset="0" stop-color="#92c932"></stop><stop offset=".26" stop-color="#8bc230"></stop><stop offset=".64" stop-color="#79ae29"></stop><stop offset="1" stop-color="#629621"></stop></radialGradient><radialGradient id="1776867898073-3799185_radial-gradient-10" cx="256.72" cy="330.25" fx="256.72" fy="330.25" r="99.71" gradientTransform="matrix(-.95 0 0 -1.02 389.73 514.94)" gradientUnits="userSpaceOnUse"><stop offset="0" stop-color="#92c932"></stop><stop offset=".26" stop-color="#8bc230"></stop><stop offset=".64" stop-color="#79ae29"></stop><stop offset="1" stop-color="#629621"></stop></radialGradient><linearGradient id="1776867898073-3799185_linear-gradient-2" x1="324.27" y1="27.03" x2="324.27" y2="351.2" gradientTransform="matrix(1 0 0 -1 0 514)" gradientUnits="userSpaceOnUse"><stop offset="0" stop-color="#e7ecf0"></stop><stop offset=".47" stop-color="#e5eaee"></stop><stop offset=".64" stop-color="#dee4e9"></stop><stop offset=".76" stop-color="#d3dadf"></stop><stop offset=".86" stop-color="#c2cbd0"></stop><stop offset=".95" stop-color="#acb9be"></stop><stop offset="1" stop-color="#99a8ae"></stop></linearGradient></defs><path class="cls-18" d="M296.97,140.49c-271.77,57.1-117.22,131.02-104.1,144.62,47.24,48.91,196.98-61.67,104.1-144.62Z" fill="url(#1776867898073-3799185_radial-gradient)"></path><path class="cls-13" d="M154.17,12.11c-81.49,0,105.57,132.17,105.57,44.8,0-24.85-21.47-33.03-26.18-40.17-23.02-34.74-68.63-4.63-79.38-4.63Z" fill="url(#1776867898073-3799185_radial-gradient-2)"></path><path class="cls-12" d="M179.88,59.77c0,87.35-78.63,68.85-129.51.62,0-21.93,32.65-36.93,43.85-46.02,23.52-19.05,85.66,0,85.66,45.4Z" fill="url(#1776867898073-3799185_radial-gradient-3)"></path><path class="cls-9" d="M120.51,89.49c24.85,83.22-90.3,131.94-111.17,47.51C0,99.22,34.67,57.23,55.36,54.05c21.83-3.34,55.46,3.02,65.15,35.44Z" fill="url(#1776867898073-3799185_radial-gradient-4)"></path><path class="cls-8" d="M63.52,127.71c80.29,14.93,67.8,130.02-13.68,130.02-52.95,0-84.01-148.18,13.68-130.02Z" fill="url(#1776867898073-3799185_radial-gradient-5)"></path><path class="cls-7" d="M64,203.93c56.9-62.53,167.95,95.06,87.78,79.35-28.86-5.65-49.03,30.65-75.94,10.26-28.53-21.63-34.02-65.22-11.85-89.62Z" fill="url(#1776867898073-3799185_radial-gradient-6)"></path><path class="cls-6" d="M202.74,86.77c-24.85,83.2,166.15,137.58,113.09,33.62-13.95-27.31-4.3-48.5-33.7-64.42-31.2-16.88-69.69-1.63-79.38,30.8Z" fill="url(#1776867898073-3799185_radial-gradient-7)"></path><path class="cls-20" d="M206,231.34c-4.74,21.42-41.68,58.51-32.65,246.28.98,20.5-36.72,20.94-37.83,3.14-3.32-52.91,14.82-204.72-9.68-222.43,26.66-25.55,11.83-1.52,31.34,4.77,28.45-9.62,22.55-26.69,40.15-40.32,8.1-6.28,9.42,5.18,8.67,8.57Z" fill="url(#1776867898073-3799185_linear-gradient)"></path><path class="cls-11" d="M87.32,105.6c-25.17,83.08,142.65,97.58,134.85,10.62-7.35-82.23-111.97-86.13-134.85-10.62Z" fill="url(#1776867898073-3799185_radial-gradient-8)"></path><path class="cls-10" d="M152.95,176.53c-18.03,85.22,156.99,71.9,133.95-7.91-24.09-83.46-113.86-87.2-133.95,7.91Z" fill="url(#1776867898073-3799185_radial-gradient-9)"></path><path class="cls-28" d="M55.6,197.71c-19.95,84.71,159.97,84.4,140.17-.35-15.89-67.88-120.42-83.5-140.17.35Z" fill="url(#1776867898073-3799185_radial-gradient-10)"></path><path class="cls-22" d="M411.88 199.12H474.46V299.24H411.88z" fill="#e8000d"></path><path class="cls-32" d="M449.43 205.37H474.45V217.88H449.43z" fill="#cf0505"></path><path class="cls-32" d="M433.84 242.91H458.88V255.42H433.84z" fill="#cf0505"></path><path class="cls-32" d="M449.43 230.4H474.45V242.91H449.43z" fill="#cf0505"></path><path class="cls-32" d="M449.43 267.95H474.45V280.46H449.43z" fill="#cf0505"></path><path class="cls-32" d="M411.88 217.88H436.90999999999997V230.39H411.88z" fill="#cf0505"></path><path class="cls-5" d="M405.62 186.6H480.72V205.37H405.62z" fill="#6e8189"></path><path class="cls-26" d="M332.81,145.07c-5.18-5.18-11.89-5.18-17.06,0-44.81,44.8-179.21,179.19-179.21,179.19h375.47s-134.41-134.4-179.2-179.19Z" fill="#ff000e"></path><path class="cls-15" d="M324.27 171.83L167.83 324.26 167.83 486.97 480.72 486.97 480.72 324.26 324.27 171.83z" fill="url(#1776867898073-3799185_linear-gradient-2)"></path><path class="cls-4" d="M144.1,442.69c2.03,0,1.83,46.76,1.83,46.76h-3.66s-.2-46.76,1.83-46.76Z" fill="#7ab51d"></path><path class="cls-4" d="M144.04,462.02c-5.44,0-4.91-2.71-4.91-2.71h9.82s.53,2.71-4.91,2.71Z" fill="#7ab51d"></path><path class="cls-33" d="M150.45,430.83c-1.58-1.47-3.26-3.05-4.68-5.49-1.24,1.03-4.39,2.81-7.18,5.71-4.2-2.53-7.98-2.49-9.64-2.49,9.72,15.67,21.78,17.22,31.47,0-1.62,0-5.66-.04-9.97,2.26Z" fill="#b81d4b"></path><path class="cls-17" d="M133.58,444.94c0,10.7,22.43,10.7,22.43,0s-7.82-17.56-10.25-19.58c-.13,9.82-12.18,8.9-12.18,19.58Z" fill="#db2159"></path><path class="cls-23" d="M147.47,448.27c2.24,8.12-.91,12.62-3.22,12.62-6.42,0-13.38-4.7-12.97-14.06.48-11.14-2.24-13.7-2.36-18.26,2.9,0,13.57,1.7,18.54,19.7Z" fill="#ff3672"></path><path class="cls-24" d="M140.91,448.27c-2.24,8.12.9,12.62,3.22,12.62,6.42,0,13.38-4.7,12.97-14.06-.49-11.14,3.21-13.7,3.34-18.26-2.91,0-14.55,1.7-19.52,19.7Z" fill="#ff5788"></path><path class="cls-4" d="M74.48,450.79c2.03,0,1.83,47.19,1.83,47.19h-3.66s-.2-47.19,1.83-47.19Z" fill="#7ab51d"></path><path class="cls-4" d="M74.42,470.12c-5.44,0-4.91-2.71-4.91-2.71h9.82s.53,2.71-4.91,2.71Z" fill="#7ab51d"></path><path class="cls-33" d="M80.83,438.93c-1.58-1.46-3.26-3.04-4.68-5.49-1.24,1.04-4.39,2.82-7.18,5.72-4.2-2.53-7.98-2.5-9.64-2.5,9.72,15.68,21.78,17.22,31.47,0-1.62,0-5.66-.03-9.97,2.26Z" fill="#b81d4b"></path><path class="cls-17" d="M63.96,453.04c0,10.7,22.43,10.7,22.43,0s-7.82-17.56-10.25-19.59c-.14,9.82-12.18,8.91-12.18,19.59Z" fill="#db2159"></path><path class="cls-23" d="M77.85,456.38c2.24,8.12-.91,12.62-3.22,12.62-6.42,0-13.38-4.7-12.97-14.07.48-11.14-2.24-13.69-2.36-18.26,2.9,0,13.57,1.71,18.54,19.7Z" fill="#ff3672"></path><path class="cls-24" d="M71.28,456.38c-2.24,8.12.9,12.62,3.22,12.62,6.42,0,13.38-4.7,12.97-14.07-.49-11.14,3.21-13.69,3.34-18.26-2.91,0-14.55,1.71-19.52,19.7Z" fill="#ff5788"></path><path class="cls-4" d="M106.42,428.01c2.03,0,1.83,61.44,1.83,61.44h-3.67s-.2-61.44,1.84-61.44Z" fill="#7ab51d"></path><path class="cls-4" d="M106.36,447.34c-5.44,0-4.92-2.71-4.92-2.71h9.83s.54,2.71-4.91,2.71Z" fill="#7ab51d"></path><path class="cls-25" d="M112.76,416.15c-1.58-1.47-3.26-3.04-4.68-5.49-1.25,1.04-4.4,2.82-7.19,5.72-4.19-2.53-7.97-2.5-9.63-2.5,9.72,15.67,21.78,17.22,31.47,0-1.62,0-5.65-.04-9.97,2.26Z" fill="#c28b00"></path><path class="cls-31" d="M95.89,430.26c0,10.69,22.44,10.69,22.44,0s-7.82-17.56-10.25-19.59c-.14,9.83-12.19,8.91-12.19,19.59Z" fill="#ffb700"></path><path class="cls-14" d="M109.8,433.59c2.23,8.12-.91,12.62-3.22,12.62-6.42,0-13.37-4.7-12.96-14.07.49-11.14-2.24-13.69-2.37-18.26,2.9,0,13.58,1.71,18.55,19.7Z" fill="#ffd126"></path><path class="cls-37" d="M103.23,433.59c-2.24,8.12.9,12.62,3.22,12.62,6.42,0,13.38-4.7,12.96-14.07-.48-11.14,3.22-13.69,3.34-18.26-2.9,0-14.55,1.71-19.51,19.7Z" fill="#ffdc5c"></path><path class="cls-4" d="M38.54,441.16c2.03,0,1.83,48.29,1.83,48.29h-3.67s-.19-48.29,1.84-48.29Z" fill="#7ab51d"></path><path class="cls-4" d="M38.48,460.49c-5.44,0-4.92-2.71-4.92-2.71h9.83s.53,2.71-4.91,2.71Z" fill="#7ab51d"></path><path class="cls-25" d="M44.89,429.3c-1.58-1.46-3.26-3.04-4.68-5.49-1.25,1.04-4.4,2.82-7.19,5.72-4.19-2.53-7.97-2.5-9.63-2.5,9.72,15.68,21.78,17.22,31.47,0-1.62,0-5.66-.03-9.97,2.26Z" fill="#c28b00"></path><path class="cls-31" d="M28.01,443.41c0,10.7,22.44,10.7,22.44,0s-7.82-17.56-10.25-19.59c-.14,9.82-12.19,8.91-12.19,19.59Z" fill="#ffb700"></path><path class="cls-14" d="M41.92,446.74c2.23,8.12-.91,12.62-3.22,12.62-6.42,0-13.37-4.7-12.96-14.07.49-11.14-2.24-13.69-2.37-18.26,2.91,0,13.58,1.71,18.55,19.7Z" fill="#ffd126"></path><path class="cls-37" d="M35.35,446.74c-2.24,8.12.9,12.62,3.22,12.62,6.42,0,13.38-4.7,12.96-14.07-.48-11.14,3.22-13.69,3.34-18.26-2.9,0-14.54,1.71-19.51,19.7Z" fill="#ffdc5c"></path><path class="cls-4" d="M295.94,467c-7.83-1.5-4.6,6.26-4.6,6.26h16.28c1.86-10.65-10.94-15.88-11.68-6.26Z" fill="#7ab51d"></path><path class="cls-29" d="M289.85 473.26L291.65 486.97 306.84 486.97 308.63 473.26 289.85 473.26z" fill="#9e6c49"></path><path class="cls-4" d="M183.3,467c-7.82-1.5-4.6,6.26-4.6,6.26h16.29c1.84-10.65-10.95-15.88-11.69-6.26Z" fill="#7ab51d"></path><path class="cls-29" d="M177.21 473.26L179 486.97 194.2 486.97 195.99 473.26 177.21 473.26z" fill="#9e6c49"></path><path class="cls-29" d="M343.05,336.78v87.62h112.64v-87.62h-112.64Z" fill="#9e6c49"></path><path class="cls-30" d="M355.56 349.3H443.17V411.88H355.56z" fill="#4ecee6"></path><path class="cls-16" d="M336.79 424.4H461.95000000000005V430.65H336.79z" fill="#785647"></path><path class="cls-29" d="M199.12 336.78H286.73V486.96H199.12z" fill="#9e6c49"></path><path class="cls-16" d="M204.59 342.3H281.25V486.97H204.59z" fill="#785647"></path><path class="cls-29" d="M210.07 347.8H275.77V486.97H210.07z" fill="#9e6c49"></path><path class="cls-30" d="M217.88 351.8H267.95V376.84000000000003H217.88z" fill="#4ecee6"></path><path class="cls-29" d="M241.55 350.25H244.29000000000002V378.4H241.55z" fill="#9e6c49"></path><path class="cls-29" d="M226.5 350.25H229.24V378.4H226.5z" fill="#9e6c49"></path><path class="cls-29" d="M256.62 350.25H259.35V378.4H256.62z" fill="#9e6c49"></path><path class="cls-21" d="M259.34 408.38H270.29999999999995V430.4H259.34z" fill="#855a3d"></path><path class="cls-19" d="M248.43,417.17c9.52-2.18,15.3-.94,15.3-.94,3.94,3.58,7.39-3.95,1.78-4.79-10.83-1.63-21.38,6.74-17.09,5.74Z" fill="#99a8ae"></path><path class="cls-34" d="M266.19,424.56c0,3.69-2.74,3.69-2.74,0s2.74-3.66,2.74,0Z" fill="#45332c"></path><path class="cls-36" d="M313.17 336.78H316.63V346.54999999999995H313.17z" fill="#302c3b"></path><path class="cls-36" d="M322.81 380.58L306.97 380.58 302.37 355.85 327.4 355.85 322.81 380.58z" fill="#302c3b"></path><path class="cls-35" d="M306.97 346.09L322.81 346.09 327.4 355.85 302.37 355.85 306.97 346.09z" fill="#4e5e67"></path><path class="cls-3" d="M320.07 376.32L309.71 376.32 307.4 360.12 322.37 360.12 320.07 376.32z" fill="#ffe463"></path><path class="cls-4" d="M345.68,466.78c-11.89-4.36-18.25,5-18.25,5-3.94-2.22-16.22-.84-17.02,11.83-3.36,2.18-8.12,9.61-4.83,15.17-11.02,2.46-5.57,13.22-5.57,13.22h87.62s8.55-9.38-2.14-15.9c2.38-4.76-2.58-16.93-11.9-17.04,2.59-2.78-4.17-7.15-9.29-7.72-2.79-6.75-11.29-9.91-18.62-4.56Z" fill="#7ab51d"></path><path class="cls-4" d="M466.81,474.93c-11.88-3.56-18.25,4.11-18.25,4.11-3.94-1.83-16.22-.69-17.01,9.7-3.37,1.8-8.12,7.86-4.83,12.43-11.02,2.01-5.57,10.83-5.57,10.83h87.62s8.55-7.7-2.15-13.03c2.38-3.9-2.57-13.88-11.9-13.97,2.6-2.28-4.16-5.86-9.28-6.33-2.8-5.53-11.3-8.12-18.62-3.74Z" fill="#7ab51d"></path><path class="cls-27" d="M406.24,475.24c-11.88-3.54-18.25,4.06-18.25,4.06-3.94-1.81-16.22-.67-17.01,9.62-3.37,1.77-8.13,7.82-4.83,12.33-11.02,2-5.57,10.75-5.57,10.75h87.61s8.56-7.62-2.14-12.94c2.38-3.84-2.57-13.74-11.9-13.83,2.59-2.26-4.16-5.82-9.28-6.29-2.8-5.47-11.3-8.04-18.62-3.7Z" fill="#92c932"></path><path class="cls-4" d="M146.38,472.19c10.46-3.83,16.06,4.41,16.06,4.41,3.46-1.96,14.27-.74,14.97,10.42,2.97,1.91,7.15,8.46,4.25,13.35,9.7,2.16,4.9,11.63,4.9,11.63h-77.1s-7.53-8.25,1.88-14c-2.09-4.18,2.27-14.89,10.49-14.99-2.29-2.45,3.66-6.28,8.17-6.8,2.46-5.94,9.94-8.71,16.39-4.02Z" fill="#7ab51d"></path><path class="cls-4" d="M39.79,479.38c10.46-3.14,16.06,3.62,16.06,3.62,3.46-1.62,14.27-.62,14.97,8.52,2.96,1.58,7.14,6.92,4.25,10.94,9.7,1.78,4.9,9.54,4.9,9.54H2.86s-7.53-6.77,1.89-11.48c-2.09-3.43,2.26-12.21,10.48-12.29-2.29-2,3.66-5.15,8.17-5.57,2.46-4.86,9.94-7.14,16.39-3.28Z" fill="#7ab51d"></path><path class="cls-27" d="M93.08,479.65c10.46-3.12,16.06,3.58,16.06,3.58,3.47-1.59,14.28-.6,14.98,8.46,2.96,1.56,7.14,6.87,4.25,10.85,9.7,1.76,4.9,9.46,4.9,9.46H56.16s-7.53-6.7,1.88-11.38c-2.1-3.39,2.26-12.1,10.48-12.18-2.29-1.98,3.66-5.11,8.17-5.52,2.46-4.82,9.94-7.09,16.38-3.26Z" fill="#92c932"></path><path class="cls-2" d="M161.57 499.49H324.27V512H161.57z" fill="#cfd8dd"></path><path class="cls-1" d="M174.08 486.97H311.75V499.48H174.08z" fill="#b3c2c6"></path></g></svg>