<svg data-name="Layer 1" xmlns="http://www.w3.org/2000/svg" style="" viewBox="0 0 548.49 512"><g class="nc-icon-wrapper"><defs><linearGradient id="1776867898091-1671271_linear-gradient" x1="274.24" y1="1023.65" x2="274.24" y2="686.25" gradientTransform="translate(0 -512)" gradientUnits="userSpaceOnUse"><stop offset="0" stop-color="#4b9400"></stop><stop offset=".21" stop-color="#62ab00"></stop><stop offset=".45" stop-color="#74bc00"></stop><stop offset=".7" stop-color="#7ec600"></stop><stop offset="1" stop-color="#81c900"></stop></linearGradient><radialGradient id="1776867898091-1671271_radial-gradient" cx="274.54" cy="1175.66" fx="274.54" fy="1175.66" r="403.61" gradientTransform="matrix(1 0 0 .48 0 -245.36)" gradientUnits="userSpaceOnUse"><stop offset="0" stop-color="#4b9400"></stop><stop offset=".44" stop-color="#4b9400"></stop><stop offset=".48" stop-color="#57a000"></stop><stop offset=".56" stop-color="#6ab200"></stop><stop offset=".65" stop-color="#77bf00"></stop><stop offset=".77" stop-color="#7fc700"></stop><stop offset="1" stop-color="#81c900"></stop></radialGradient><linearGradient id="1776867898091-1671271_linear-gradient-2" x1="279.33" y1="790.92" x2="280.5" y2="518.43" gradientTransform="translate(0 -512)" gradientUnits="userSpaceOnUse"><stop offset="0" stop-color="#f05692"></stop><stop offset=".16" stop-color="#f15d98"></stop><stop offset=".39" stop-color="#f270a7"></stop><stop offset=".67" stop-color="#f58fc0"></stop><stop offset=".97" stop-color="#f9bae3"></stop><stop offset="1" stop-color="#f9bfe7"></stop></linearGradient><linearGradient id="1776867898091-1671271_linear-gradient-3" x1="326.29" y1="652.63" x2="233.31" y2="652.63" gradientTransform="translate(0 -512)" gradientUnits="userSpaceOnUse"><stop offset="0" stop-color="#f9c2dd"></stop><stop offset=".39" stop-color="#f9c9df"></stop><stop offset=".95" stop-color="#f9dce4"></stop><stop offset="1" stop-color="#f9dee5"></stop></linearGradient><linearGradient id="1776867898091-1671271_linear-gradient-4" x1="303.32" y1="802.57" x2="378.75" y2="542.95" gradientTransform="translate(0 -512)" gradientUnits="userSpaceOnUse"><stop offset="0" stop-color="#f05692"></stop><stop offset=".16" stop-color="#f15d98"></stop><stop offset=".39" stop-color="#f270a7"></stop><stop offset=".67" stop-color="#f58fc0"></stop><stop offset=".97" stop-color="#f9bae3"></stop><stop offset="1" stop-color="#f9bfe7"></stop></linearGradient><linearGradient id="1776867898091-1671271_linear-gradient-5" x1="372.06" y1="679.87" x2="294.82" y2="656.64" gradientTransform="translate(0 -512)" gradientUnits="userSpaceOnUse"><stop offset="0" stop-color="#f9c2dd"></stop><stop offset=".39" stop-color="#f9c9df"></stop><stop offset=".95" stop-color="#f9dce4"></stop><stop offset="1" stop-color="#f9dee5"></stop></linearGradient><linearGradient id="1776867898091-1671271_linear-gradient-6" x1="312.47" y1="838" x2="448.71" y2="611.71" gradientTransform="translate(0 -512)" gradientUnits="userSpaceOnUse"><stop offset="0" stop-color="#f05692"></stop><stop offset=".16" stop-color="#f15d98"></stop><stop offset=".39" stop-color="#f270a7"></stop><stop offset=".67" stop-color="#f58fc0"></stop><stop offset=".97" stop-color="#f9bae3"></stop><stop offset="1" stop-color="#f9bfe7"></stop></linearGradient><linearGradient id="1776867898091-1671271_linear-gradient-7" x1="401.21" y1="733.48" x2="340.99" y2="697.81" gradientTransform="translate(0 -512)" gradientUnits="userSpaceOnUse"><stop offset="0" stop-color="#f9c2dd"></stop><stop offset=".39" stop-color="#f9c9df"></stop><stop offset=".95" stop-color="#f9dce4"></stop><stop offset="1" stop-color="#f9dee5"></stop></linearGradient><linearGradient id="1776867898091-1671271_linear-gradient-8" x1="485.26" y1="605.53" x2="411.59" y2="789.14" gradientTransform="translate(0 -512)" gradientUnits="userSpaceOnUse"><stop offset="0" stop-color="#f05692"></stop><stop offset=".16" stop-color="#f15d98"></stop><stop offset=".39" stop-color="#f270a7"></stop><stop offset=".67" stop-color="#f58fc0"></stop><stop offset=".97" stop-color="#f9bae3"></stop><stop offset="1" stop-color="#f9bfe7"></stop></linearGradient><linearGradient id="1776867898091-1671271_linear-gradient-9" x1="481.56" y1="650.23" x2="372.79" y2="799.92" gradientTransform="translate(0 -512)" gradientUnits="userSpaceOnUse"><stop offset="0" stop-color="#f9c2dd"></stop><stop offset=".39" stop-color="#f9c9df"></stop><stop offset=".95" stop-color="#f9dce4"></stop><stop offset="1" stop-color="#f9dee5"></stop></linearGradient><linearGradient id="1776867898091-1671271_linear-gradient-10" x1="110.77" y1="535.92" x2="154.04" y2="728.3" gradientTransform="translate(0 -512)" gradientUnits="userSpaceOnUse"><stop offset="0" stop-color="#f05692"></stop><stop offset=".16" stop-color="#f15d98"></stop><stop offset=".39" stop-color="#f270a7"></stop><stop offset=".67" stop-color="#f58fc0"></stop><stop offset=".97" stop-color="#f9bae3"></stop><stop offset="1" stop-color="#f9bfe7"></stop></linearGradient><linearGradient id="1776867898091-1671271_linear-gradient-11" x1="108.22" y1="581.86" x2="193.83" y2="749.56" gradientTransform="translate(0 -512)" gradientUnits="userSpaceOnUse"><stop offset="0" stop-color="#f9c2dd"></stop><stop offset=".39" stop-color="#f9c9df"></stop><stop offset=".95" stop-color="#f9dce4"></stop><stop offset="1" stop-color="#f9dee5"></stop></linearGradient><linearGradient id="1776867898091-1671271_linear-gradient-12" x1="247.68" y1="819.48" x2="175.6" y2="558.14" gradientTransform="translate(0 -512)" gradientUnits="userSpaceOnUse"><stop offset="0" stop-color="#f05692"></stop><stop offset=".16" stop-color="#f15d98"></stop><stop offset=".39" stop-color="#f270a7"></stop><stop offset=".67" stop-color="#f58fc0"></stop><stop offset=".97" stop-color="#f9bae3"></stop><stop offset="1" stop-color="#f9bfe7"></stop></linearGradient><linearGradient id="1776867898091-1671271_linear-gradient-13" x1="180.19" y1="696.51" x2="257.96" y2="674.29" gradientTransform="translate(0 -512)" gradientUnits="userSpaceOnUse"><stop offset="0" stop-color="#f9c2dd"></stop><stop offset=".39" stop-color="#f9c9df"></stop><stop offset=".95" stop-color="#f9dce4"></stop><stop offset="1" stop-color="#f9dee5"></stop></linearGradient><linearGradient id="1776867898091-1671271_linear-gradient-14" x1="24.31" y1="661.93" x2="197.1" y2="842.34" gradientTransform="translate(0 -512)" gradientUnits="userSpaceOnUse"><stop offset="0" stop-color="#f9bfe7"></stop><stop offset=".03" stop-color="#f9bae3"></stop><stop offset=".33" stop-color="#f58fc0"></stop><stop offset=".61" stop-color="#f270a7"></stop><stop offset=".84" stop-color="#f15d98"></stop><stop offset="1" stop-color="#f05692"></stop></linearGradient><linearGradient id="1776867898091-1671271_linear-gradient-15" x1="110.51" y1="754.66" x2="160.21" y2="706.71" gradientTransform="translate(0 -512)" gradientUnits="userSpaceOnUse"><stop offset="0" stop-color="#f9c2dd"></stop><stop offset=".39" stop-color="#f9c9df"></stop><stop offset=".95" stop-color="#f9dce4"></stop><stop offset="1" stop-color="#f9dee5"></stop></linearGradient><linearGradient id="1776867898091-1671271_linear-gradient-16" x1="250.14" y1="733.03" x2="250.14" y2="650.58" gradientTransform="translate(0 -512)" gradientUnits="userSpaceOnUse"><stop offset="0" stop-color="#ff5d00"></stop><stop offset=".13" stop-color="#ff6406"></stop><stop offset=".31" stop-color="#ff7715"></stop><stop offset=".53" stop-color="#ff962f"></stop><stop offset=".78" stop-color="#ffc152"></stop><stop offset="1" stop-color="#ffef78"></stop></linearGradient><linearGradient id="1776867898091-1671271_linear-gradient-17" x1="222.65" y1="730.11" x2="222.65" y2="661.69" gradientTransform="translate(0 -512)" gradientUnits="userSpaceOnUse"><stop offset="0" stop-color="#ff5d00"></stop><stop offset=".13" stop-color="#ff6406"></stop><stop offset=".31" stop-color="#ff7715"></stop><stop offset=".53" stop-color="#ff962f"></stop><stop offset=".78" stop-color="#ffc152"></stop><stop offset="1" stop-color="#ffef78"></stop></linearGradient><linearGradient id="1776867898091-1671271_linear-gradient-18" x1="219.14" y1="741.82" x2="212.12" y2="673.99" gradientTransform="translate(0 -512)" gradientUnits="userSpaceOnUse"><stop offset="0" stop-color="#ff5d00"></stop><stop offset=".13" stop-color="#ff6406"></stop><stop offset=".31" stop-color="#ff7715"></stop><stop offset=".53" stop-color="#ff962f"></stop><stop offset=".78" stop-color="#ffc152"></stop><stop offset="1" stop-color="#ffef78"></stop></linearGradient><linearGradient id="1776867898091-1671271_linear-gradient-19" x1="191.09" y1="745.47" x2="191.09" y2="677.06" gradientTransform="translate(76 -549)" gradientUnits="userSpaceOnUse"><stop offset="0" stop-color="#ff5d00"></stop><stop offset=".13" stop-color="#ff6406"></stop><stop offset=".31" stop-color="#ff7715"></stop><stop offset=".53" stop-color="#ff962f"></stop><stop offset=".78" stop-color="#ffc152"></stop><stop offset="1" stop-color="#ffef78"></stop></linearGradient><linearGradient id="1776867898091-1671271_linear-gradient-20" x1="242.4" y1="706.72" x2="242.4" y2="638.89" gradientTransform="translate(0 -512)" gradientUnits="userSpaceOnUse"><stop offset="0" stop-color="#ff5d00"></stop><stop offset=".13" stop-color="#ff6406"></stop><stop offset=".31" stop-color="#ff7715"></stop><stop offset=".53" stop-color="#ff962f"></stop><stop offset=".78" stop-color="#ffc152"></stop><stop offset="1" stop-color="#ffef78"></stop></linearGradient><linearGradient id="1776867898091-1671271_linear-gradient-21" x1="663.99" y1="741.74" x2="663.99" y2="673.32" gradientTransform="matrix(-1 0 0 1 923.44 -540)" gradientUnits="userSpaceOnUse"><stop offset="0" stop-color="#ff5d00"></stop><stop offset=".13" stop-color="#ff6406"></stop><stop offset=".31" stop-color="#ff7715"></stop><stop offset=".53" stop-color="#ff962f"></stop><stop offset=".78" stop-color="#ffc152"></stop><stop offset="1" stop-color="#ffef78"></stop></linearGradient><linearGradient id="1776867898091-1671271_linear-gradient-22" x1="285.24" y1="710.8" x2="295.19" y2="643.55" gradientTransform="translate(0 -512)" gradientUnits="userSpaceOnUse"><stop offset="0" stop-color="#ff5d00"></stop><stop offset=".13" stop-color="#ff6406"></stop><stop offset=".31" stop-color="#ff7715"></stop><stop offset=".53" stop-color="#ff962f"></stop><stop offset=".78" stop-color="#ffc152"></stop><stop offset="1" stop-color="#ffef78"></stop></linearGradient><linearGradient id="1776867898091-1671271_linear-gradient-23" x1="667.33" y1="732.41" x2="667.33" y2="664" gradientTransform="matrix(-1 0 0 1 931.48 -517.55)" gradientUnits="userSpaceOnUse"><stop offset="0" stop-color="#ff5d00"></stop><stop offset=".13" stop-color="#ff6406"></stop><stop offset=".31" stop-color="#ff7715"></stop><stop offset=".53" stop-color="#ff962f"></stop><stop offset=".78" stop-color="#ffc152"></stop><stop offset="1" stop-color="#ffef78"></stop></linearGradient><linearGradient id="1776867898091-1671271_linear-gradient-24" x1="680.75" y1="746.07" x2="680.75" y2="677.66" gradientTransform="matrix(-1 0 0 1 963.81 -550.44)" gradientUnits="userSpaceOnUse"><stop offset="0" stop-color="#ff5d00"></stop><stop offset=".13" stop-color="#ff6406"></stop><stop offset=".31" stop-color="#ff7715"></stop><stop offset=".53" stop-color="#ff962f"></stop><stop offset=".78" stop-color="#ffc152"></stop><stop offset="1" stop-color="#ffef78"></stop></linearGradient><linearGradient id="1776867898091-1671271_linear-gradient-25" x1="200.23" y1="732.19" x2="200.23" y2="663.77" gradientTransform="translate(54 -517)" gradientUnits="userSpaceOnUse"><stop offset="0" stop-color="#ff5d00"></stop><stop offset=".13" stop-color="#ff6406"></stop><stop offset=".31" stop-color="#ff7715"></stop><stop offset=".53" stop-color="#ff962f"></stop><stop offset=".78" stop-color="#ffc152"></stop><stop offset="1" stop-color="#ffef78"></stop></linearGradient><linearGradient id="1776867898091-1671271_linear-gradient-26" x1="211.44" y1="727.62" x2="211.44" y2="659.2" gradientTransform="translate(27 -506)" gradientUnits="userSpaceOnUse"><stop offset="0" stop-color="#ff5d00"></stop><stop offset=".13" stop-color="#ff6406"></stop><stop offset=".31" stop-color="#ff7715"></stop><stop offset=".53" stop-color="#ff962f"></stop><stop offset=".78" stop-color="#ffc152"></stop><stop offset="1" stop-color="#ffef78"></stop></linearGradient><linearGradient id="1776867898091-1671271_linear-gradient-27" x1="643.89" y1="735.22" x2="643.89" y2="666.81" gradientTransform="matrix(-1 0 0 1 875.05 -524.31)" gradientUnits="userSpaceOnUse"><stop offset="0" stop-color="#ff5d00"></stop><stop offset=".13" stop-color="#ff6406"></stop><stop offset=".31" stop-color="#ff7715"></stop><stop offset=".53" stop-color="#ff962f"></stop><stop offset=".78" stop-color="#ffc152"></stop><stop offset="1" stop-color="#ffef78"></stop></linearGradient><linearGradient id="1776867898091-1671271_linear-gradient-28" x1="259.43" y1="679.31" x2="259.43" y2="611.48" gradientTransform="translate(-41 -446)" gradientUnits="userSpaceOnUse"><stop offset="0" stop-color="#ff5d00"></stop><stop offset=".13" stop-color="#ff6406"></stop><stop offset=".31" stop-color="#ff7715"></stop><stop offset=".53" stop-color="#ff962f"></stop><stop offset=".78" stop-color="#ffc152"></stop><stop offset="1" stop-color="#ffef78"></stop></linearGradient><linearGradient id="1776867898091-1671271_linear-gradient-29" x1="213.52" y1="705.19" x2="213.52" y2="636.78" gradientTransform="translate(22 -452)" gradientUnits="userSpaceOnUse"><stop offset="0" stop-color="#ff5d00"></stop><stop offset=".13" stop-color="#ff6406"></stop><stop offset=".31" stop-color="#ff7715"></stop><stop offset=".53" stop-color="#ff962f"></stop><stop offset=".78" stop-color="#ffc152"></stop><stop offset="1" stop-color="#ffef78"></stop></linearGradient><linearGradient id="1776867898091-1671271_linear-gradient-30" x1="205.21" y1="720.56" x2="205.21" y2="652.14" gradientTransform="translate(42 -489)" gradientUnits="userSpaceOnUse"><stop offset="0" stop-color="#ff5d00"></stop><stop offset=".13" stop-color="#ff6406"></stop><stop offset=".31" stop-color="#ff7715"></stop><stop offset=".53" stop-color="#ff962f"></stop><stop offset=".78" stop-color="#ffc152"></stop><stop offset="1" stop-color="#ffef78"></stop></linearGradient><linearGradient id="1776867898091-1671271_linear-gradient-31" x1="652.85" y1="708.28" x2="652.85" y2="639.86" gradientTransform="matrix(-1 0 0 1 896.62 -459.42)" gradientUnits="userSpaceOnUse"><stop offset="0" stop-color="#ff5d00"></stop><stop offset=".13" stop-color="#ff6406"></stop><stop offset=".31" stop-color="#ff7715"></stop><stop offset=".53" stop-color="#ff962f"></stop><stop offset=".78" stop-color="#ffc152"></stop><stop offset="1" stop-color="#ffef78"></stop></linearGradient><linearGradient id="1776867898091-1671271_linear-gradient-32" x1="662" y1="718.08" x2="662" y2="649.66" gradientTransform="matrix(-1 0 0 1 918.66 -483.03)" gradientUnits="userSpaceOnUse"><stop offset="0" stop-color="#ff5d00"></stop><stop offset=".13" stop-color="#ff6406"></stop><stop offset=".31" stop-color="#ff7715"></stop><stop offset=".53" stop-color="#ff962f"></stop><stop offset=".78" stop-color="#ffc152"></stop><stop offset="1" stop-color="#ffef78"></stop></linearGradient><linearGradient id="1776867898091-1671271_linear-gradient-33" x1="185.69" y1="736.75" x2="185.69" y2="668.34" gradientTransform="translate(89 -528)" gradientUnits="userSpaceOnUse"><stop offset="0" stop-color="#ff5d00"></stop><stop offset=".13" stop-color="#ff6406"></stop><stop offset=".31" stop-color="#ff7715"></stop><stop offset=".53" stop-color="#ff962f"></stop><stop offset=".78" stop-color="#ffc152"></stop><stop offset="1" stop-color="#ffef78"></stop></linearGradient><linearGradient id="1776867898091-1671271_linear-gradient-34" x1="218.92" y1="715.57" x2="218.92" y2="647.16" gradientTransform="translate(9 -477)" gradientUnits="userSpaceOnUse"><stop offset="0" stop-color="#ff5d00"></stop><stop offset=".13" stop-color="#ff6406"></stop><stop offset=".31" stop-color="#ff7715"></stop><stop offset=".53" stop-color="#ff962f"></stop><stop offset=".78" stop-color="#ffc152"></stop><stop offset="1" stop-color="#ffef78"></stop></linearGradient><linearGradient id="1776867898091-1671271_linear-gradient-35" x1="196.57" y1="732.62" x2="196.57" y2="650.17" gradientTransform="translate(129 -511)" gradientUnits="userSpaceOnUse"><stop offset="0" stop-color="#ff5d00"></stop><stop offset=".13" stop-color="#ff6406"></stop><stop offset=".31" stop-color="#ff7715"></stop><stop offset=".53" stop-color="#ff962f"></stop><stop offset=".78" stop-color="#ffc152"></stop><stop offset="1" stop-color="#ffef78"></stop></linearGradient><linearGradient id="1776867898091-1671271_linear-gradient-36" x1="173.65" y1="740.07" x2="173.65" y2="671.66" gradientTransform="translate(118 -536)" gradientUnits="userSpaceOnUse"><stop offset="0" stop-color="#ff5d00"></stop><stop offset=".13" stop-color="#ff6406"></stop><stop offset=".31" stop-color="#ff7715"></stop><stop offset=".53" stop-color="#ff962f"></stop><stop offset=".78" stop-color="#ffc152"></stop><stop offset="1" stop-color="#ffef78"></stop></linearGradient><linearGradient id="1776867898091-1671271_linear-gradient-37" x1="183.2" y1="726.79" x2="183.2" y2="658.37" gradientTransform="translate(95 -504)" gradientUnits="userSpaceOnUse"><stop offset="0" stop-color="#ff5d00"></stop><stop offset=".13" stop-color="#ff6406"></stop><stop offset=".31" stop-color="#ff7715"></stop><stop offset=".53" stop-color="#ff962f"></stop><stop offset=".78" stop-color="#ffc152"></stop><stop offset="1" stop-color="#ffef78"></stop></linearGradient><linearGradient id="1776867898091-1671271_linear-gradient-38" x1="682.9" y1="724.3" x2="682.9" y2="655.88" gradientTransform="matrix(-1 0 0 1 968.98 -498)" gradientUnits="userSpaceOnUse"><stop offset="0" stop-color="#ff5d00"></stop><stop offset=".13" stop-color="#ff6406"></stop><stop offset=".31" stop-color="#ff7715"></stop><stop offset=".53" stop-color="#ff962f"></stop><stop offset=".78" stop-color="#ffc152"></stop><stop offset="1" stop-color="#ffef78"></stop></linearGradient><linearGradient id="1776867898091-1671271_linear-gradient-39" x1="194.65" y1="703.81" x2="194.65" y2="635.98" gradientTransform="translate(115 -505)" gradientUnits="userSpaceOnUse"><stop offset="0" stop-color="#ff5d00"></stop><stop offset=".13" stop-color="#ff6406"></stop><stop offset=".31" stop-color="#ff7715"></stop><stop offset=".53" stop-color="#ff962f"></stop><stop offset=".78" stop-color="#ffc152"></stop><stop offset="1" stop-color="#ffef78"></stop></linearGradient><linearGradient id="1776867898091-1671271_linear-gradient-40" x1="723" y1="735.22" x2="723" y2="666.81" gradientTransform="matrix(-1 0 0 1 1065.55 -524.31)" gradientUnits="userSpaceOnUse"><stop offset="0" stop-color="#ff5d00"></stop><stop offset=".13" stop-color="#ff6406"></stop><stop offset=".31" stop-color="#ff7715"></stop><stop offset=".53" stop-color="#ff962f"></stop><stop offset=".78" stop-color="#ffc152"></stop><stop offset="1" stop-color="#ffef78"></stop></linearGradient><linearGradient id="1776867898091-1671271_linear-gradient-41" x1="200.05" y1="702.57" x2="200.05" y2="634.74" gradientTransform="translate(102 -502)" gradientUnits="userSpaceOnUse"><stop offset="0" stop-color="#ff5d00"></stop><stop offset=".13" stop-color="#ff6406"></stop><stop offset=".31" stop-color="#ff7715"></stop><stop offset=".53" stop-color="#ff962f"></stop><stop offset=".78" stop-color="#ffc152"></stop><stop offset="1" stop-color="#ffef78"></stop></linearGradient><linearGradient id="1776867898091-1671271_linear-gradient-42" x1="703.53" y1="737.45" x2="703.53" y2="669.03" gradientTransform="matrix(-1 0 0 1 1018.66 -529.67)" gradientUnits="userSpaceOnUse"><stop offset="0" stop-color="#ff5d00"></stop><stop offset=".13" stop-color="#ff6406"></stop><stop offset=".31" stop-color="#ff7715"></stop><stop offset=".53" stop-color="#ff962f"></stop><stop offset=".78" stop-color="#ffc152"></stop><stop offset="1" stop-color="#ffef78"></stop></linearGradient><linearGradient id="1776867898091-1671271_linear-gradient-43" x1="741.6" y1="680.33" x2="741.6" y2="612.5" gradientTransform="matrix(-1 0 0 1 1062.76 -448.45)" gradientUnits="userSpaceOnUse"><stop offset="0" stop-color="#ff5d00"></stop><stop offset=".13" stop-color="#ff6406"></stop><stop offset=".31" stop-color="#ff7715"></stop><stop offset=".53" stop-color="#ff962f"></stop><stop offset=".78" stop-color="#ffc152"></stop><stop offset="1" stop-color="#ffef78"></stop></linearGradient><linearGradient id="1776867898091-1671271_linear-gradient-44" x1="749.33" y1="691.96" x2="749.33" y2="624.13" gradientTransform="matrix(-1 0 0 1 1081.39 -476.47)" gradientUnits="userSpaceOnUse"><stop offset="0" stop-color="#ff5d00"></stop><stop offset=".13" stop-color="#ff6406"></stop><stop offset=".31" stop-color="#ff7715"></stop><stop offset=".53" stop-color="#ff962f"></stop><stop offset=".78" stop-color="#ffc152"></stop><stop offset="1" stop-color="#ffef78"></stop></linearGradient><linearGradient id="1776867898091-1671271_linear-gradient-45" x1="133.37" y1="723.46" x2="133.37" y2="655.05" gradientTransform="translate(215 -496)" gradientUnits="userSpaceOnUse"><stop offset="0" stop-color="#ff5d00"></stop><stop offset=".13" stop-color="#ff6406"></stop><stop offset=".31" stop-color="#ff7715"></stop><stop offset=".53" stop-color="#ff962f"></stop><stop offset=".78" stop-color="#ffc152"></stop><stop offset="1" stop-color="#ffef78"></stop></linearGradient><linearGradient id="1776867898091-1671271_linear-gradient-46" x1="716.25" y1="724.3" x2="716.25" y2="655.88" gradientTransform="matrix(-1 0 0 1 1049.28 -498)" gradientUnits="userSpaceOnUse"><stop offset="0" stop-color="#ff5d00"></stop><stop offset=".13" stop-color="#ff6406"></stop><stop offset=".31" stop-color="#ff7715"></stop><stop offset=".53" stop-color="#ff962f"></stop><stop offset=".78" stop-color="#ffc152"></stop><stop offset="1" stop-color="#ffef78"></stop></linearGradient><linearGradient id="1776867898091-1671271_linear-gradient-47" x1="711.27" y1="707.76" x2="711.27" y2="639.35" gradientTransform="matrix(-1 0 0 1 1037.3 -458.19)" gradientUnits="userSpaceOnUse"><stop offset="0" stop-color="#ff5d00"></stop><stop offset=".13" stop-color="#ff6406"></stop><stop offset=".31" stop-color="#ff7715"></stop><stop offset=".53" stop-color="#ff962f"></stop><stop offset=".78" stop-color="#ffc152"></stop><stop offset="1" stop-color="#ffef78"></stop></linearGradient><linearGradient id="1776867898091-1671271_linear-gradient-48" x1="735.24" y1="689.72" x2="735.24" y2="621.89" gradientTransform="matrix(-1 0 0 1 1047.45 -471.06)" gradientUnits="userSpaceOnUse"><stop offset="0" stop-color="#ff5d00"></stop><stop offset=".13" stop-color="#ff6406"></stop><stop offset=".31" stop-color="#ff7715"></stop><stop offset=".53" stop-color="#ff962f"></stop><stop offset=".78" stop-color="#ffc152"></stop><stop offset="1" stop-color="#ffef78"></stop></linearGradient><linearGradient id="1776867898091-1671271_linear-gradient-49" x1="695.38" y1="716.86" x2="695.38" y2="648.44" gradientTransform="matrix(-1 0 0 1 999.03 -480.09)" gradientUnits="userSpaceOnUse"><stop offset="0" stop-color="#ff5d00"></stop><stop offset=".13" stop-color="#ff6406"></stop><stop offset=".31" stop-color="#ff7715"></stop><stop offset=".53" stop-color="#ff962f"></stop><stop offset=".78" stop-color="#ffc152"></stop><stop offset="1" stop-color="#ffef78"></stop></linearGradient><linearGradient id="1776867898091-1671271_linear-gradient-50" x1="168.25" y1="732.19" x2="168.25" y2="663.77" gradientTransform="translate(131 -517)" gradientUnits="userSpaceOnUse"><stop offset="0" stop-color="#ff5d00"></stop><stop offset=".13" stop-color="#ff6406"></stop><stop offset=".31" stop-color="#ff7715"></stop><stop offset=".53" stop-color="#ff962f"></stop><stop offset=".78" stop-color="#ffc152"></stop><stop offset="1" stop-color="#ffef78"></stop></linearGradient><linearGradient id="1776867898091-1671271_linear-gradient-51" x1="254.95" y1="789.67" x2="147.36" y2="783.82" gradientTransform="translate(0 -512)" gradientUnits="userSpaceOnUse"><stop offset="0" stop-color="#f05692"></stop><stop offset=".16" stop-color="#f15d98"></stop><stop offset=".39" stop-color="#f270a7"></stop><stop offset=".67" stop-color="#f58fc0"></stop><stop offset=".97" stop-color="#f9bae3"></stop><stop offset="1" stop-color="#f9bfe7"></stop></linearGradient><linearGradient id="1776867898091-1671271_linear-gradient-52" x1="-8.15" y1="722.46" x2="196.83" y2="908.7" gradientTransform="translate(0 -512)" gradientUnits="userSpaceOnUse"><stop offset="0" stop-color="#f05692"></stop><stop offset=".16" stop-color="#f15d98"></stop><stop offset=".39" stop-color="#f270a7"></stop><stop offset=".67" stop-color="#f58fc0"></stop><stop offset=".97" stop-color="#f9bae3"></stop><stop offset="1" stop-color="#f9bfe7"></stop></linearGradient><linearGradient id="1776867898091-1671271_linear-gradient-53" x1="1.81" y1="709.58" x2="143.93" y2="835.26" gradientTransform="translate(0 -512)" gradientUnits="userSpaceOnUse"><stop offset="0" stop-color="#f9c2dd"></stop><stop offset=".39" stop-color="#f9c9df"></stop><stop offset=".95" stop-color="#f9dce4"></stop><stop offset="1" stop-color="#f9dee5"></stop></linearGradient><linearGradient id="1776867898091-1671271_linear-gradient-54" x1="466.79" y1="690.4" x2="620.62" y2="864.62" gradientTransform="matrix(-1 -.00017 .00017 1 1036.98 -512.01)" gradientUnits="userSpaceOnUse"><stop offset="0" stop-color="#f05692"></stop><stop offset=".16" stop-color="#f15d98"></stop><stop offset=".39" stop-color="#f270a7"></stop><stop offset=".67" stop-color="#f58fc0"></stop><stop offset=".97" stop-color="#f9bae3"></stop><stop offset="1" stop-color="#f9bfe7"></stop></linearGradient><linearGradient id="1776867898091-1671271_linear-gradient-55" x1="546.06" y1="709.54" x2="404.84" y2="835.58" gradientTransform="translate(0 -512)" gradientUnits="userSpaceOnUse"><stop offset="0" stop-color="#f9c2dd"></stop><stop offset=".39" stop-color="#f9c9df"></stop><stop offset=".95" stop-color="#f9dce4"></stop><stop offset="1" stop-color="#f9dee5"></stop></linearGradient><linearGradient id="1776867898091-1671271_linear-gradient-56" x1="186.53" y1="804.92" x2="84.79" y2="811.35" gradientTransform="translate(0 -512)" gradientUnits="userSpaceOnUse"><stop offset="0" stop-color="#f05692"></stop><stop offset=".23" stop-color="#f26aa2"></stop><stop offset=".71" stop-color="#f69dcb"></stop><stop offset="1" stop-color="#f9bfe7"></stop></linearGradient><linearGradient id="1776867898091-1671271_linear-gradient-57" x1="315.8" y1="838.31" x2="401.76" y2="688.03" gradientTransform="translate(0 -512)" gradientUnits="userSpaceOnUse"><stop offset="0" stop-color="#f9bfe7"></stop><stop offset=".33" stop-color="#f6a0ce"></stop><stop offset="1" stop-color="#f05692"></stop></linearGradient><linearGradient id="1776867898091-1671271_linear-gradient-58" x1="340.01" y1="790.99" x2="442.34" y2="845.37" gradientTransform="translate(0 -512)" gradientUnits="userSpaceOnUse"><stop offset="0" stop-color="#f9bfe7"></stop><stop offset=".12" stop-color="#f7acd7"></stop><stop offset=".38" stop-color="#f487b9"></stop><stop offset=".62" stop-color="#f26ca4"></stop><stop offset=".84" stop-color="#f05c97"></stop><stop offset="1" stop-color="#f05692"></stop></linearGradient><linearGradient id="1776867898091-1671271_linear-gradient-59" x1="343.83" y1="802.32" x2="228.05" y2="802.32" gradientTransform="translate(0 -512)" gradientUnits="userSpaceOnUse"><stop offset="0" stop-color="#f05692"></stop><stop offset=".16" stop-color="#f15d98"></stop><stop offset=".39" stop-color="#f270a7"></stop><stop offset=".67" stop-color="#f58fc0"></stop><stop offset=".97" stop-color="#f9bae3"></stop><stop offset="1" stop-color="#f9bfe7"></stop></linearGradient><linearGradient id="1776867898091-1671271_linear-gradient-60" x1="147.05" y1="779.54" x2="287.68" y2="923.67" gradientTransform="translate(0 -512)" gradientUnits="userSpaceOnUse"><stop offset="0" stop-color="#f9bfe7"></stop><stop offset=".42" stop-color="#f591c2"></stop><stop offset="1" stop-color="#f05692"></stop></linearGradient><linearGradient id="1776867898091-1671271_linear-gradient-61" x1="655.63" y1="779.54" x2="796.26" y2="923.67" gradientTransform="matrix(-1 0 0 1 1085.37 -512)" gradientUnits="userSpaceOnUse"><stop offset="0" stop-color="#f9bfe7"></stop><stop offset=".42" stop-color="#f591c2"></stop><stop offset="1" stop-color="#f05692"></stop></linearGradient></defs><path class="cls-10" d="M0,335.64c0-26.9,7.7-50.48,23.1-70.75,15.4-20.27,36.16-37.13,62.28-50.58s55.45-23.49,88-30.11,66.17-9.94,100.87-9.94,68.32,3.31,100.87,9.94,61.89,16.67,88,30.11c26.12,13.45,46.88,30.31,62.28,50.58,15.4,20.27,23.1,43.86,23.1,70.75s-9.06,54.09-27.19,78.06c-18.13,23.97-42.59,44.54-73.39,61.69-30.8,17.15-65.49,29.04-104.08,35.67-14.42,3.12-25.73-1.56-33.92-14.03l-32.16-48.53c-1.95-3.12-4.09-3.12-6.43,0l-31.58,48.53c-3.9,5.46-8.97,9.55-15.2,12.28-6.24,2.73-12.47,3.31-18.71,1.75-38.98-6.63-73.97-18.42-104.96-35.38-30.99-16.96-55.55-37.52-73.68-61.69C9.06,389.83,0,363.71,0,335.64Z" fill="url(#1776867898091-1671271_linear-gradient)"></path><path class="cls-9" d="M274.24,146.77c37.81,0,73.19,4.68,106.13,14.03,32.94,9.36,61.89,22.32,86.83,38.89,24.95,16.57,44.54,35.86,58.77,57.89,14.23,22.03,21.34,45.71,21.34,71.05,0,28.07-8.87,54.19-26.61,78.36-17.74,24.17-41.91,44.64-72.51,61.4-30.6,16.76-65.39,28.65-104.38,35.67-14.42,2.73-25.73-2.14-33.92-14.62l-32.16-48.53c-1.95-3.12-4.09-3.12-6.43,0l-31.58,48.53c-3.9,5.46-8.97,9.55-15.2,12.28s-12.47,3.51-18.71,2.34c-38.98-7.02-73.87-19-104.67-35.96-30.8-16.96-55.06-37.52-72.8-61.69-17.74-24.17-26.61-50.09-26.61-77.77,0-25.34,7.11-48.92,21.34-70.75,14.23-21.83,33.72-41.03,58.47-57.6s53.6-29.63,86.54-39.18c32.94-9.55,68.32-14.33,106.13-14.33Z" fill="url(#1776867898091-1671271_radial-gradient)"></path><path class="cls-8" d="M285.35,2.92c9.75,10.92,18.03,25.24,24.85,42.98s11.99,37.03,15.5,57.89,5.36,41.61,5.56,62.28c.19,20.66-1.56,39.57-5.26,56.72s-9.36,30.89-16.96,41.22c-7.6,10.33-17.44,15.5-29.53,15.5s-21.34-5.17-28.94-15.5-13.25-24.07-16.96-41.22c-3.7-17.15-5.46-36.06-5.26-56.72.19-20.66,2.05-41.42,5.56-62.28s8.67-40.15,15.5-57.89c6.82-17.74,15.11-32.06,24.85-42.98,3.51-3.9,7.21-3.9,11.11,0Z" fill="url(#1776867898091-1671271_linear-gradient-2)"></path><path class="cls-7" d="M284.77,4.68c8.97,10.92,16.57,25.14,22.8,42.69s10.92,36.64,14.03,57.3,4.68,41.32,4.68,61.98-1.66,39.47-4.97,56.43c-3.31,16.96-8.38,30.6-15.2,40.93s-15.69,15.5-26.61,15.5-19.2-5.17-26.02-15.5-11.89-23.97-15.2-40.93-4.97-35.77-4.97-56.43,1.56-41.32,4.68-61.98,7.8-39.76,14.03-57.3,13.84-31.77,22.8-42.69c3.12-3.9,6.43-3.9,9.94,0Z" fill="url(#1776867898091-1671271_linear-gradient-3)"></path><path class="cls-6" d="M375.4,26.31c6.63,13.64,11.01,30.11,13.16,49.41,2.14,19.3,2.34,39.66.58,61.11-1.75,21.44-5.17,42.1-10.23,61.98-5.07,19.88-11.5,37.52-19.3,52.92-7.8,15.4-16.57,26.8-26.31,34.21s-20.27,8.97-31.58,4.68c-7.8-3.12-13.25-10.53-16.37-22.22-3.12-11.69-4.29-26.02-3.51-42.98.78-16.96,3.41-35.18,7.89-54.67,4.48-19.49,10.33-38.69,17.54-57.6s15.69-36.35,25.44-52.33,20.47-28.65,32.16-38.01c1.95-1.17,3.9-1.36,5.85-.58s3.51,2.14,4.68,4.09Z" fill="url(#1776867898091-1671271_linear-gradient-4)"></path><path class="cls-3" d="M373.65,28.65c4.68,10.92,7.31,24.85,7.89,41.81s-.39,35.38-2.92,55.26c-2.53,19.88-6.33,39.57-11.4,59.06-5.07,19.49-11.11,37.23-18.13,53.21s-14.52,28.85-22.51,38.59c-7.99,9.75-16.28,14.42-24.85,14.03-9.36-.39-15.89-5.85-19.59-16.37-3.7-10.53-5.17-24.36-4.39-41.52s3.61-35.77,8.48-55.84c4.87-20.08,11.21-40.15,19-60.23,7.8-20.08,16.76-38.4,26.9-54.97s21.05-29.53,32.75-38.89c1.95-1.17,3.7-1.07,5.26.29s2.73,3.22,3.51,5.56Z" fill="url(#1776867898091-1671271_linear-gradient-5)"></path><path class="cls-4" d="M439.14,90.05c3.51,15.2,4.19,32.45,2.05,51.75-2.14,19.3-6.33,38.98-12.57,59.06s-14.03,39.08-23.39,57.01c-9.36,17.93-19.49,33.23-30.41,45.9-10.92,12.67-21.93,21.15-33.04,25.44-11.11,4.29-21.54,2.73-31.28-4.68-8.58-6.24-12.18-16.57-10.82-30.99s6.04-30.99,14.03-49.7c7.99-18.71,18.32-38.11,30.99-58.18,12.67-20.08,26.41-39.08,41.22-57.01,14.81-17.93,29.43-32.94,43.86-45.03,1.95-1.56,3.9-1.46,5.85.29s3.12,3.8,3.51,6.14Z" fill="url(#1776867898091-1671271_linear-gradient-6)"></path><path class="cls-2" d="M435.05,90.64c2.73,16.76,1.46,35.38-3.8,55.84-5.26,20.47-13.06,41.13-23.39,61.98-10.33,20.86-21.73,39.86-34.21,57.01-12.47,17.15-24.75,30.6-36.84,40.35-12.08,9.75-22.42,14.03-30.99,12.86-8.19-1.17-12.67-6.33-13.45-15.5-.78-9.16,1.36-20.86,6.43-35.08,5.07-14.23,12.28-29.82,21.64-46.78s19.98-34.01,31.87-51.16c11.89-17.15,24.36-33.14,37.42-47.95s25.83-27.09,38.3-36.84c3.51-2.73,5.85-.97,7.02,5.26Z" fill="url(#1776867898091-1671271_linear-gradient-7)"></path><path class="cls-1" d="M490.6,205.83c-2.73,15.98-7.8,32.55-15.2,49.7-7.41,17.15-16.47,32.94-27.19,47.36-10.72,14.42-22.03,26.12-33.92,35.08-11.89,8.97-23.88,13.74-35.96,14.33-12.08.58-23.19-4.78-33.33-16.08-5.07-5.46-5.94-13.35-2.63-23.68,3.31-10.33,9.45-21.93,18.42-34.79,8.97-12.86,19.39-26.12,31.28-39.76,11.89-13.64,24.27-27,37.13-40.05s24.85-24.75,35.96-35.08c11.11-10.33,20.08-18.61,26.9-24.85s10.23-9.36,10.23-9.36c4.68,3.9,6.33,9.36,4.97,16.37s-3.9,15.59-7.6,25.73c-3.7,10.14-6.72,21.83-9.06,35.08Z" fill="url(#1776867898091-1671271_linear-gradient-8)"></path><path class="cls-5" d="M450.84,222.2c-3.12,16.76-9.55,30.6-19.3,41.52-9.75,10.92-20.95,19.3-33.62,25.14s-25.24,9.75-37.72,11.69c-12.47,1.95-23,2.73-31.58,2.34-1.95-.39-3.31-1.56-4.09-3.51-.39-1.95.39-3.51,2.34-4.68,21.05-13.25,37.42-26.22,49.12-38.89,11.69-12.67,21.05-24.85,28.07-36.55s14.03-22.9,21.05-33.62c7.02-10.72,15.98-20.86,26.9-30.41,10.92-9.55,26.31-18.61,46.19-27.19,1.17-.39,2.53-.19,4.09.58,1.17,1.17,1.75,2.53,1.75,4.09-.39,5.07-2.83,10.14-7.31,15.2-4.48,5.07-9.84,10.82-16.08,17.25s-12.08,14.23-17.54,23.39c-5.46,9.16-9.55,20.37-12.28,33.62Z" fill="url(#1776867898091-1671271_linear-gradient-9)"></path><path class="cls-21" d="M84.2,140.92c1.56-12.86,2.14-25.34,1.75-37.42-.39-12.08-.29-22.51.29-31.28s3.61-14.91,9.06-18.42c0,0,2.92,3.61,8.77,10.82s13.45,16.76,22.8,28.65,19.3,25.24,29.82,40.05c10.53,14.81,20.66,30.02,30.41,45.61s18.03,30.41,24.85,44.44c6.82,14.03,11.01,26.31,12.57,36.84s-.58,18.13-6.43,22.8c-12.08,9.75-24.66,13.64-37.72,11.69-13.06-1.95-25.83-7.8-38.3-17.54-12.47-9.75-23.49-22.22-33.04-37.42s-16.67-31.38-21.34-48.53-5.85-33.92-3.51-50.29Z" fill="url(#1776867898091-1671271_linear-gradient-10)"></path><path class="cls-22" d="M115.78,164.9c-.39-18.32-2.83-34.3-7.31-47.95-4.48-13.64-8.58-25.44-12.28-35.38s-4.39-18.42-2.05-25.44c.39-1.56,1.27-2.63,2.63-3.22s2.63-.49,3.8.29c18.71,12.08,32.75,23.88,42.1,35.38,9.36,11.5,16.57,23.29,21.64,35.38s10.33,24.75,15.79,38.01c5.46,13.25,13.55,27.29,24.27,42.1s26.41,30.99,47.07,48.53c-4.68.78-12.28.78-22.8,0s-22.12-2.83-34.79-6.14-24.85-8.38-36.55-15.2-21.44-15.59-29.24-26.31c-7.8-10.72-11.89-24.07-12.28-40.05Z" fill="url(#1776867898091-1671271_linear-gradient-11)"></path><path class="cls-23" d="M177.76,43.86c.78-2.34,2.24-3.9,4.39-4.68s4.19-.39,6.14,1.17c11.31,9.36,21.83,21.93,31.58,37.72s18.32,33.23,25.73,52.33c7.41,19.1,13.25,38.4,17.54,57.89s6.92,37.72,7.89,54.67-.19,31.28-3.51,42.98-8.87,18.91-16.67,21.64c-10.92,4.29-21.34,2.83-31.28-4.39-9.94-7.21-18.81-18.52-26.61-33.92s-14.23-33.14-19.3-53.21-8.48-40.74-10.23-61.98c-1.75-21.25-1.56-41.52.58-60.81s6.72-35.77,13.74-49.41Z" fill="url(#1776867898091-1671271_linear-gradient-12)"></path><path class="cls-24" d="M178.93,46.19c1.17-2.34,2.53-4.29,4.09-5.85s3.31-1.56,5.26,0c11.69,9.36,22.61,22.32,32.75,38.89,10.14,16.57,19.1,34.89,26.9,54.97s14.03,40.15,18.71,60.23,7.5,38.59,8.48,55.55c.97,16.96-.49,30.7-4.39,41.22s-10.53,15.98-19.88,16.37c-8.19.39-16.37-4.19-24.56-13.74-8.19-9.55-15.69-22.32-22.51-38.3s-12.86-33.72-18.13-53.21-9.16-39.18-11.69-59.06-3.51-38.3-2.92-55.26,3.22-30.89,7.89-41.81Z" fill="url(#1776867898091-1671271_linear-gradient-13)"></path><path class="cls-26" d="M37.42,134.49c-.39-2.73.29-5.07,2.05-7.02s3.8-2.34,6.14-1.17c15.98,8.58,32.75,19.98,50.29,34.21,17.54,14.23,34.21,29.82,50,46.78,15.79,16.96,29.24,33.82,40.35,50.58,11.11,16.76,18.52,32.06,22.22,45.9,3.7,13.84,2.05,24.66-4.97,32.45-10.14,11.31-21.93,15.59-35.38,12.86-13.45-2.73-27.39-10.62-41.81-23.68-14.42-13.06-27.97-29.72-40.64-50-12.67-20.27-23.39-42.59-32.16-66.95-8.77-24.36-14.13-49.02-16.08-73.97Z" fill="url(#1776867898091-1671271_linear-gradient-14)"></path><path class="cls-37" d="M40.35,133.32c-1.17-2.34-.78-4.29,1.17-5.85s3.9-1.95,5.85-1.17c16.37,7.8,34.3,18.03,53.8,30.7,19.49,12.67,38.5,26.31,57.01,40.93,18.52,14.62,34.5,29.24,47.95,43.86s22.61,27.87,27.48,39.76,3.41,21.34-4.39,28.36c-6.63,5.85-15.89,6.92-27.78,3.22-11.89-3.7-25.14-11.21-39.76-22.51-14.62-11.31-29.43-25.24-44.44-41.81-15.01-16.57-29.24-34.69-42.69-54.38-13.45-19.69-24.85-40.05-34.21-61.11Z" fill="url(#1776867898091-1671271_linear-gradient-15)"></path><path class="cls-38" d="M251.44,142.09c-1.56,10.92-1.75,19.78-.58,26.61s2.53,13.55,4.09,20.17,1.95,15.4,1.17,26.31c-.39,4.29-1.95,6.14-4.68,5.56s-3.9-3.22-3.51-7.89c.39-10.53-.1-18.71-1.46-24.56s-2.24-12.08-2.63-18.71.78-16.57,3.51-29.82c.39-1.56,1.27-1.95,2.63-1.17s1.85,1.95,1.46,3.51Z" fill="url(#1776867898091-1671271_linear-gradient-16)"></path><path class="cls-39" d="M223.96,153.2c-1.56,8.97-1.75,16.28-.58,21.93s2.53,11.21,4.09,16.67,1.95,12.67,1.17,21.64c-.39,3.51-1.95,4.97-4.68,4.39s-3.9-2.63-3.51-6.14c.39-8.97-.1-15.79-1.46-20.47s-2.24-9.75-2.63-15.2.78-13.64,3.51-24.56c.39-1.56,1.27-2.05,2.63-1.46s1.85,1.66,1.46,3.22Z" fill="url(#1776867898091-1671271_linear-gradient-17)"></path><path class="cls-40" d="M214.02,164.9c-.78,9.36-.29,16.76,1.46,22.22s3.7,10.82,5.85,16.08,3.22,12.38,3.22,21.34c0,3.51-1.36,5.07-4.09,4.68s-4.29-2.34-4.68-5.85c-.39-8.97-1.46-15.69-3.22-20.17s-3.12-9.45-4.09-14.91-.68-13.64.88-24.56c0-1.56.78-2.05,2.34-1.46s2.34,1.46,2.34,2.63Z" fill="url(#1776867898091-1671271_linear-gradient-18)"></path><path class="cls-25" d="M268.4,131.57c-1.56,8.97-1.75,16.28-.58,21.93s2.53,11.21,4.09,16.67,1.95,12.67,1.17,21.64c-.39,3.51-1.95,4.97-4.68,4.39s-3.9-2.63-3.51-6.14c.39-8.97-.1-15.79-1.46-20.47s-2.24-9.75-2.63-15.2.78-13.64,3.51-24.56c.39-1.56,1.27-2.05,2.63-1.46s1.85,1.66,1.46,3.22Z" fill="url(#1776867898091-1671271_linear-gradient-19)"></path><path class="cls-28" d="M240.91,129.81c-.39-1.56.19-2.63,1.75-3.22s2.53-.1,2.92,1.46c2.73,10.92,3.8,19.1,3.22,24.56s-1.56,10.53-2.92,15.2-1.85,11.5-1.46,20.47c.39,3.51-.78,5.56-3.51,6.14s-4.29-.88-4.68-4.39c-.78-8.97-.39-16.18,1.17-21.64s2.92-11.01,4.09-16.67.97-12.96-.58-21.93Z" fill="url(#1776867898091-1671271_linear-gradient-20)"></path><path class="cls-27" d="M258.15,136.83c1.56,8.97,1.75,16.28.58,21.93s-2.53,11.21-4.09,16.67-1.95,12.67-1.17,21.64c.39,3.51,1.95,4.97,4.68,4.39s3.9-2.63,3.51-6.14c-.39-8.97.1-15.79,1.46-20.47s2.24-9.75,2.63-15.2-.78-13.64-3.51-24.56c-.39-1.56-1.27-2.05-2.63-1.46s-1.85,1.66-1.46,3.22Z" fill="url(#1776867898091-1671271_linear-gradient-21)"></path><path class="cls-29" d="M293.54,134.49c-.39-1.56.19-2.53,1.75-2.92s2.34.19,2.34,1.75c1.17,11.3,1.17,19.59,0,24.85s-2.83,10.14-4.97,14.62-3.61,11.01-4.39,19.59c-.39,3.9-1.95,5.94-4.68,6.14-2.73.19-3.9-1.46-3.51-4.97.39-8.97,1.75-16.08,4.09-21.34s4.48-10.53,6.43-15.79,2.92-12.57,2.92-21.93Z" fill="url(#1776867898091-1671271_linear-gradient-22)"></path><path class="cls-30" d="M262.85,149.96c1.56,8.97,1.75,16.28.58,21.93s-2.53,11.21-4.09,16.67-1.95,12.67-1.17,21.64c.39,3.51,1.95,4.97,4.68,4.39s3.9-2.63,3.51-6.14c-.39-8.97.1-15.79,1.46-20.47s2.24-9.75,2.63-15.2-.78-13.64-3.51-24.56c-.39-1.56-1.27-2.05-2.63-1.46s-1.85,1.66-1.46,3.22Z" fill="url(#1776867898091-1671271_linear-gradient-23)"></path><path class="cls-46" d="M281.75,130.73c1.56,8.97,1.75,16.28.58,21.93s-2.53,11.21-4.09,16.67c-1.56,5.46-1.95,12.67-1.17,21.64.39,3.51,1.95,4.97,4.68,4.39s3.9-2.63,3.51-6.14c-.39-8.97.1-15.79,1.46-20.47s2.24-9.75,2.63-15.2-.78-13.64-3.51-24.56c-.39-1.56-1.27-2.05-2.63-1.46s-1.85,1.66-1.46,3.22Z" fill="url(#1776867898091-1671271_linear-gradient-24)"></path><path class="cls-32" d="M255.53,150.28c-1.56,8.97-1.75,16.28-.58,21.93s2.53,11.21,4.09,16.67,1.95,12.67,1.17,21.64c-.39,3.51-1.95,4.97-4.68,4.39s-3.9-2.63-3.51-6.14c.39-8.97-.1-15.79-1.46-20.47s-2.24-9.75-2.63-15.2.78-13.64,3.51-24.56c.39-1.56,1.27-2.05,2.63-1.46s1.85,1.66,1.46,3.22Z" fill="url(#1776867898091-1671271_linear-gradient-25)"></path><path class="cls-47" d="M239.74,156.71c-1.56,8.97-1.75,16.28-.58,21.93s2.53,11.21,4.09,16.67,1.95,12.67,1.17,21.64c-.39,3.51-1.95,4.97-4.68,4.39s-3.9-2.63-3.51-6.14c.39-8.97-.1-15.79-1.46-20.47s-2.24-9.75-2.63-15.2.78-13.64,3.51-24.56c.39-1.56,1.27-2.05,2.63-1.46s1.85,1.66,1.46,3.22Z" fill="url(#1776867898091-1671271_linear-gradient-26)"></path><path class="cls-45" d="M229.85,146c1.56,8.97,1.75,16.28.58,21.93s-2.53,11.21-4.09,16.67-1.95,12.67-1.17,21.64c.39,3.51,1.95,4.97,4.68,4.39s3.9-2.63,3.51-6.14c-.39-8.97.1-15.79,1.46-20.47s2.24-9.75,2.63-15.2-.78-13.64-3.51-24.56c-.39-1.56-1.27-2.05-2.63-1.46s-1.85,1.66-1.46,3.22Z" fill="url(#1776867898091-1671271_linear-gradient-27)"></path><path class="cls-31" d="M216.94,168.41c-.39-1.56.19-2.63,1.75-3.22s2.53-.1,2.92,1.46c2.73,10.92,3.8,19.1,3.22,24.56s-1.56,10.53-2.92,15.2-1.85,11.5-1.46,20.47c.39,3.51-.78,5.56-3.51,6.14s-4.29-.88-4.68-4.39c-.78-8.97-.39-16.18,1.17-21.64s2.92-11.01,4.09-16.67.97-12.96-.58-21.93Z" fill="url(#1776867898091-1671271_linear-gradient-28)"></path><path class="cls-48" d="M236.82,188.29c-1.56,8.97-1.75,16.28-.58,21.93s2.53,11.21,4.09,16.67,1.95,12.67,1.17,21.64c-.39,3.51-1.95,4.97-4.68,4.39s-3.9-2.63-3.51-6.14c.39-8.97-.1-15.79-1.46-20.47s-2.24-9.75-2.63-15.2.78-13.64,3.51-24.56c.39-1.56,1.27-2.05,2.63-1.46s1.85,1.66,1.46,3.22Z" fill="url(#1776867898091-1671271_linear-gradient-29)"></path><path class="cls-36" d="M248.52,166.65c-1.56,8.97-1.75,16.28-.58,21.93s2.53,11.21,4.09,16.67,1.95,12.67,1.17,21.64c-.39,3.51-1.95,4.97-4.68,4.39s-3.9-2.63-3.51-6.14c.39-8.97-.1-15.79-1.46-20.47s-2.24-9.75-2.63-15.2.78-13.64,3.51-24.56c.39-1.56,1.27-2.05,2.63-1.46s1.85,1.66,1.46,3.22Z" fill="url(#1776867898091-1671271_linear-gradient-30)"></path><path class="cls-34" d="M242.47,183.95c1.56,8.97,1.75,16.28.58,21.93s-2.53,11.21-4.09,16.67-1.95,12.67-1.17,21.64c.39,3.51,1.95,4.97,4.68,4.39s3.9-2.63,3.51-6.14c-.39-8.97.1-15.79,1.46-20.47s2.24-9.75,2.63-15.2-.78-13.64-3.51-24.56c-.39-1.56-1.27-2.05-2.63-1.46s-1.85,1.66-1.46,3.22Z" fill="url(#1776867898091-1671271_linear-gradient-31)"></path><path class="cls-33" d="M255.35,170.14c1.56,8.97,1.75,16.28.58,21.93s-2.53,11.21-4.09,16.67-1.95,12.67-1.17,21.64c.39,3.51,1.95,4.97,4.68,4.39s3.9-2.63,3.51-6.14c-.39-8.97.1-15.79,1.46-20.47s2.24-9.75,2.63-15.2-.78-13.64-3.51-24.56c-.39-1.56-1.27-2.05-2.63-1.46s-1.85,1.66-1.46,3.22Z" fill="url(#1776867898091-1671271_linear-gradient-32)"></path><path class="cls-35" d="M276,143.85c-1.56,8.97-1.75,16.28-.58,21.93,1.17,5.65,2.53,11.21,4.09,16.67,1.56,5.46,1.95,12.67,1.17,21.64-.39,3.51-1.95,4.97-4.68,4.39s-3.9-2.63-3.51-6.14c.39-8.97-.1-15.79-1.46-20.47s-2.24-9.75-2.63-15.2.78-13.64,3.51-24.56c.39-1.56,1.27-2.05,2.63-1.46s1.85,1.66,1.46,3.22Z" fill="url(#1776867898091-1671271_linear-gradient-33)"></path><path class="cls-42" d="M229.22,173.67c-1.56,8.97-1.75,16.28-.58,21.93s2.53,11.21,4.09,16.67,1.95,12.67,1.17,21.64c-.39,3.51-1.95,4.97-4.68,4.39s-3.9-2.63-3.51-6.14c.39-8.97-.1-15.79-1.46-20.47s-2.24-9.75-2.63-15.2.78-13.64,3.51-24.56c.39-1.56,1.27-2.05,2.63-1.46s1.85,1.66,1.46,3.22Z" fill="url(#1776867898091-1671271_linear-gradient-34)"></path><path class="cls-41" d="M326.87,142.68c-1.56,10.92-1.75,19.78-.58,26.61s2.53,13.55,4.09,20.17c1.56,6.63,1.95,15.4,1.17,26.31-.39,4.29-1.95,6.14-4.68,5.56s-3.9-3.22-3.51-7.89c.39-10.53-.1-18.71-1.46-24.56-1.36-5.85-2.24-12.08-2.63-18.71s.78-16.57,3.51-29.82c.39-1.56,1.27-1.95,2.63-1.17s1.85,1.95,1.46,3.51Z" fill="url(#1776867898091-1671271_linear-gradient-35)"></path><path class="cls-43" d="M292.96,139.17c-1.56,8.97-1.75,16.28-.58,21.93,1.17,5.65,2.53,11.21,4.09,16.67,1.56,5.46,1.95,12.67,1.17,21.64-.39,3.51-1.95,4.97-4.68,4.39s-3.9-2.63-3.51-6.14c.39-8.97-.1-15.79-1.46-20.47s-2.24-9.75-2.63-15.2.78-13.64,3.51-24.56c.39-1.56,1.27-2.05,2.63-1.46s1.85,1.66,1.46,3.22Z" fill="url(#1776867898091-1671271_linear-gradient-36)"></path><path class="cls-49" d="M279.51,157.88c-1.56,8.97-1.75,16.28-.58,21.93s2.53,11.21,4.09,16.67,1.95,12.67,1.17,21.64c-.39,3.51-1.95,4.97-4.68,4.39s-3.9-2.63-3.51-6.14c.39-8.97-.1-15.79-1.46-20.47s-2.24-9.75-2.63-15.2.78-13.64,3.51-24.56c.39-1.56,1.27-2.05,2.63-1.46s1.85,1.66,1.46,3.22Z" fill="url(#1776867898091-1671271_linear-gradient-37)"></path><path class="cls-44" d="M284.78,161.39c1.56,8.97,1.75,16.28.58,21.93-1.17,5.65-2.53,11.21-4.09,16.67-1.56,5.46-1.95,12.67-1.17,21.64.39,3.51,1.95,4.97,4.68,4.39s3.9-2.63,3.51-6.14c-.39-8.97.1-15.79,1.46-20.47s2.24-9.75,2.63-15.2-.78-13.64-3.51-24.56c-.39-1.56-1.27-2.05-2.63-1.46s-1.85,1.66-1.46,3.22Z" fill="url(#1776867898091-1671271_linear-gradient-38)"></path><path class="cls-50" d="M308.16,133.91c-.39-1.56.19-2.63,1.75-3.22s2.53-.1,2.92,1.46c2.73,10.92,3.8,19.1,3.22,24.56s-1.56,10.53-2.92,15.2-1.85,11.5-1.46,20.47c.39,3.51-.78,5.56-3.51,6.14s-4.29-.88-4.68-4.39c-.78-8.97-.39-16.18,1.17-21.64s2.92-11.01,4.09-16.67c1.17-5.65.97-12.96-.58-21.93Z" fill="url(#1776867898091-1671271_linear-gradient-39)"></path><path class="cls-12" d="M341.24,146c1.56,8.97,1.75,16.28.58,21.93s-2.53,11.21-4.09,16.67-1.95,12.67-1.17,21.64c.39,3.51,1.95,4.97,4.68,4.39s3.9-2.63,3.51-6.14c-.39-8.97.1-15.79,1.46-20.47s2.24-9.75,2.63-15.2-.78-13.64-3.51-24.56c-.39-1.56-1.27-2.05-2.63-1.46s-1.85,1.66-1.46,3.22Z" fill="url(#1776867898091-1671271_linear-gradient-40)"></path><path class="cls-13" d="M300.56,135.66c-.39-1.56.19-2.63,1.75-3.22s2.53-.1,2.92,1.46c2.73,10.92,3.8,19.1,3.22,24.56s-1.56,10.53-2.92,15.2-1.85,11.5-1.46,20.47c.39,3.51-.78,5.56-3.51,6.14s-4.29-.88-4.68-4.39c-.78-8.97-.39-16.18,1.17-21.64s2.92-11.01,4.09-16.67.97-12.96-.58-21.93Z" fill="url(#1776867898091-1671271_linear-gradient-41)"></path><path class="cls-14" d="M313.82,142.87c1.56,8.97,1.75,16.28.58,21.93-1.17,5.65-2.53,11.21-4.09,16.67s-1.95,12.67-1.17,21.64c.39,3.51,1.95,4.97,4.68,4.39s3.9-2.63,3.51-6.14c-.39-8.97.1-15.79,1.46-20.47s2.24-9.75,2.63-15.2-.78-13.64-3.51-24.56c-.39-1.56-1.27-2.05-2.63-1.46s-1.85,1.66-1.46,3.22Z" fill="url(#1776867898091-1671271_linear-gradient-42)"></path><path class="cls-11" d="M322.66,166.97c.39-1.56-.19-2.63-1.75-3.22s-2.53-.1-2.92,1.46c-2.73,10.92-3.8,19.1-3.22,24.56s1.56,10.53,2.92,15.2,1.85,11.5,1.46,20.47c-.39,3.51.78,5.56,3.51,6.14s4.29-.88,4.68-4.39c.78-8.97.39-16.18-1.17-21.64s-2.92-11.01-4.09-16.67c-1.17-5.65-.97-12.96.58-21.93Z" fill="url(#1776867898091-1671271_linear-gradient-43)"></path><path class="cls-19" d="M333.55,150.59c.39-1.56-.19-2.63-1.75-3.22s-2.53-.1-2.92,1.46c-2.73,10.92-3.8,19.1-3.22,24.56s1.56,10.53,2.92,15.2,1.85,11.5,1.46,20.47c-.39,3.51.78,5.56,3.51,6.14s4.29-.88,4.68-4.39c.78-8.97.39-16.18-1.17-21.64s-2.92-11.01-4.09-16.67-.97-12.96.58-21.93Z" fill="url(#1776867898091-1671271_linear-gradient-44)"></path><path class="cls-17" d="M349.68,162.56c-1.56,8.97-1.75,16.28-.58,21.93s2.53,11.21,4.09,16.67c1.56,5.46,1.95,12.67,1.17,21.64-.39,3.51-1.95,4.97-4.68,4.39s-3.9-2.63-3.51-6.14c.39-8.97-.1-15.79-1.46-20.47s-2.24-9.75-2.63-15.2.78-13.64,3.51-24.56c.39-1.56,1.27-2.05,2.63-1.46s1.85,1.66,1.46,3.22Z" fill="url(#1776867898091-1671271_linear-gradient-45)"></path><path class="cls-20" d="M331.73,161.39c1.56,8.97,1.75,16.28.58,21.93-1.17,5.65-2.53,11.21-4.09,16.67-1.56,5.46-1.95,12.67-1.17,21.64.39,3.51,1.95,4.97,4.68,4.39s3.9-2.63,3.51-6.14c-.39-8.97.1-15.79,1.46-20.47s2.24-9.75,2.63-15.2-.78-13.64-3.51-24.56c-.39-1.56-1.27-2.05-2.63-1.46s-1.85,1.66-1.46,3.22Z" fill="url(#1776867898091-1671271_linear-gradient-46)"></path><path class="cls-18" d="M324.72,184.67c1.56,8.97,1.75,16.28.58,21.93s-2.53,11.21-4.09,16.67-1.95,12.67-1.17,21.64c.39,3.51,1.95,4.97,4.68,4.39s3.9-2.63,3.51-6.14c-.39-8.97.1-15.79,1.46-20.47s2.24-9.75,2.63-15.2-.78-13.64-3.51-24.56c-.39-1.56-1.27-2.05-2.63-1.46s-1.85,1.66-1.46,3.22Z" fill="url(#1776867898091-1671271_linear-gradient-47)"></path><path class="cls-16" d="M313.7,153.75c.39-1.56-.19-2.63-1.75-3.22s-2.53-.1-2.92,1.46c-2.73,10.92-3.8,19.1-3.22,24.56.58,5.46,1.56,10.53,2.92,15.2s1.85,11.5,1.46,20.47c-.39,3.51.78,5.56,3.51,6.14s4.29-.88,4.68-4.39c.78-8.97.39-16.18-1.17-21.64s-2.92-11.01-4.09-16.67c-1.17-5.65-.97-12.96.58-21.93Z" fill="url(#1776867898091-1671271_linear-gradient-48)"></path><path class="cls-15" d="M302.35,171.86c1.56,8.97,1.75,16.28.58,21.93-1.17,5.65-2.53,11.21-4.09,16.67s-1.95,12.67-1.17,21.64c.39,3.51,1.95,4.97,4.68,4.39s3.9-2.63,3.51-6.14c-.39-8.97.1-15.79,1.46-20.47s2.24-9.75,2.63-15.2-.78-13.64-3.51-24.56c-.39-1.56-1.27-2.05-2.63-1.46s-1.85,1.66-1.46,3.22Z" fill="url(#1776867898091-1671271_linear-gradient-49)"></path><path class="cls-58" d="M300.56,150.28c-1.56,8.97-1.75,16.28-.58,21.93s2.53,11.21,4.09,16.67,1.95,12.67,1.17,21.64c-.39,3.51-1.95,4.97-4.68,4.39s-3.9-2.63-3.51-6.14c.39-8.97-.1-15.79-1.46-20.47s-2.24-9.75-2.63-15.2.78-13.64,3.51-24.56c.39-1.56,1.27-2.05,2.63-1.46s1.85,1.66,1.46,3.22Z" fill="url(#1776867898091-1671271_linear-gradient-50)"></path><path class="cls-59" d="M176.01,154.37c14.42,16.76,29.14,35.18,44.15,55.26,15.01,20.08,28.55,40.25,40.64,60.52,12.08,20.27,21.15,39.28,27.19,57.01,6.04,17.74,7.6,32.75,4.68,45.03s-11.99,20.37-27.19,24.27c-15.59,3.9-29.82,1.46-42.69-7.31s-24.07-21.83-33.62-39.18-17.15-37.03-22.8-59.06c-5.65-22.03-8.77-44.73-9.36-68.12-.58-23.39,1.66-45.22,6.72-65.49.78-2.34,2.53-3.9,5.26-4.68s5.07-.19,7.02,1.75Z" fill="url(#1776867898091-1671271_linear-gradient-51)"></path><path class="cls-60" d="M91.8,271.9c12.08,22.61,25.14,41.81,39.18,57.6,14.03,15.79,26.9,28.65,38.59,38.59,11.69,9.94,20.17,16.96,25.44,21.05s4.78,5.56-1.46,4.39c-28.46-4.68-52.14-11.99-71.05-21.93-18.91-9.94-34.3-21.44-46.19-34.5s-21.34-26.8-28.36-41.22c-7.02-14.42-12.86-28.46-17.54-42.1s-9.16-26.02-13.45-37.13c-4.29-11.11-9.75-19.98-16.37-26.61-1.17-.78.49-1.36,4.97-1.75s11.01,1.46,19.59,5.56c8.58,4.09,18.61,12.18,30.11,24.27,11.5,12.08,23.68,30.02,36.55,53.8Z" fill="url(#1776867898091-1671271_linear-gradient-52)"></path><path class="cls-54" d="M99.41,271.9c4.68,8.19,12.28,16.67,22.8,25.44,10.53,8.77,21.93,17.15,34.21,25.14s23.49,15.01,33.62,21.05,17.54,10.72,22.22,14.03,4.68,4.58,0,3.8c-28.46-4.68-52.33-11.6-71.63-20.76s-35.18-19.59-47.66-31.28c-12.47-11.69-22.61-23.78-30.41-36.25-7.8-12.47-14.62-24.36-20.47-35.67-5.85-11.31-11.6-21.15-17.25-29.53-5.65-8.38-12.57-14.33-20.76-17.83-1.17-.39.49-.68,4.97-.88s11.21,1.75,20.17,5.85,19.49,12.08,31.58,23.97c12.08,11.89,24.95,29.53,38.59,52.92Z" fill="url(#1776867898091-1671271_linear-gradient-53)"></path><path class="cls-55" d="M456.69,271.9c-12.08,22.61-25.14,41.81-39.17,57.6-14.03,15.79-26.9,28.65-38.59,38.59-11.7,9.94-20.17,16.96-25.44,21.05s-4.78,5.56,1.46,4.39c28.46-4.67,52.15-11.98,71.06-21.92,18.91-9.94,34.31-21.44,46.2-34.5s21.34-26.8,28.36-41.23c7.02-14.43,12.86-28.46,17.54-42.11,4.68-13.65,9.16-26.02,13.44-37.14,4.29-11.11,9.74-19.98,16.37-26.61,1.17-.78-.49-1.36-4.97-1.76s-11.01,1.46-19.59,5.55c-8.58,4.09-18.62,12.18-30.12,24.27-11.5,12.08-23.68,30.02-36.54,53.8Z" fill="url(#1776867898091-1671271_linear-gradient-54)"></path><path class="cls-56" d="M449.08,271.9c13.64-23.39,26.51-41.03,38.59-52.92,12.08-11.89,22.61-19.88,31.58-23.97,8.97-4.09,15.69-6.04,20.17-5.85s6.14.49,4.97.88c-8.19,3.51-15.11,9.45-20.76,17.83s-11.4,18.22-17.25,29.53-12.67,23.19-20.47,35.67c-7.8,12.47-17.93,24.56-30.41,36.25-12.47,11.69-28.36,22.12-47.66,31.28s-43.17,16.08-71.63,20.76c-4.68.78-4.68-.49,0-3.8,4.68-3.31,12.08-7.99,22.22-14.03s21.34-13.06,33.62-21.05c12.28-7.99,23.68-16.37,34.21-25.14,10.53-8.77,18.13-17.25,22.8-25.44Z" fill="url(#1776867898091-1671271_linear-gradient-55)"></path><path class="cls-57" d="M102.33,186.53c15.59,11.69,30.7,26.51,45.32,44.44s27.97,36.74,40.05,56.43c12.08,19.69,22.12,38.2,30.11,55.55s13.16,31.58,15.5,42.69,1.17,16.86-3.51,17.25c-21.05,1.56-41.03-3.02-59.94-13.74-18.91-10.72-35.28-26.02-49.12-45.9-13.84-19.88-23.58-42.78-29.24-68.71s-5.75-53.11-.29-81.57c.39-2.73,1.85-4.78,4.39-6.14s4.78-1.46,6.72-.29Z" fill="url(#1776867898091-1671271_linear-gradient-56)"></path><path class="cls-51" d="M377.16,160.22c1.56-1.56,3.7-1.95,6.43-1.17s4.48,2.34,5.26,4.68c5.46,18.32,8.19,37.81,8.19,58.47s-2.44,40.83-7.31,60.52c-4.87,19.69-11.89,37.13-21.05,52.33s-19.98,26.51-32.45,33.92-26.31,9.16-41.52,5.26c-15.59-3.9-25.05-11.4-28.36-22.51s-2.14-24.46,3.51-40.05c5.65-15.59,14.13-32.26,25.44-50,11.3-17.74,24.17-35.38,38.59-52.92,14.42-17.54,28.85-33.72,43.27-48.53Z" fill="url(#1776867898091-1671271_linear-gradient-57)"></path><path class="cls-52" d="M449.08,204.66c2.34-1.17,4.68-.97,7.02.58s3.7,3.51,4.09,5.85c3.51,25.73,2.14,50.58-4.09,74.55s-16.18,45.12-29.82,63.44c-13.64,18.32-29.72,32.45-48.24,42.39s-38.11,13.74-58.77,11.4c-5.07-.39-6.33-5.65-3.8-15.79,2.53-10.14,7.8-23.1,15.79-38.89,7.99-15.79,18.13-32.55,30.41-50.29,12.28-17.74,25.92-34.89,40.93-51.46,15.01-16.57,30.5-30.5,46.49-41.81Z" fill="url(#1776867898091-1671271_linear-gradient-58)"></path><path class="cls-53" d="M292.37,180.1c13.25,10.53,23.97,24.85,32.16,42.98,8.19,18.13,13.74,37.52,16.67,58.18s2.92,40.25,0,58.77-8.87,33.62-17.83,45.32c-8.97,11.69-21.44,17.54-37.42,17.54s-28.46-5.85-37.42-17.54c-8.97-11.69-14.91-26.8-17.83-45.32s-2.92-38.11,0-58.77,8.48-40.05,16.67-58.18,18.91-32.45,32.16-42.98c4.29-3.12,8.58-3.12,12.86,0Z" fill="url(#1776867898091-1671271_linear-gradient-59)"></path><path class="cls-61" d="M305.24,361.37c3.12,15.2,1.27,27.58-5.56,37.13s-16.37,15.98-28.65,19.3-25.44,3.41-39.47.29-27-9.84-38.89-20.17-20.95-24.66-27.19-42.98c-6.24-18.32-7.6-40.93-4.09-67.83,1.17-5.46,3.9-9.65,8.19-12.57s12.28-1.27,23.97,4.97c17.54,8.97,34.11,16.47,49.7,22.51s28.94,13.35,40.05,21.93,18.42,21.05,21.93,37.42Z" fill="url(#1776867898091-1671271_linear-gradient-60)"></path><path class="cls-62" d="M271.56,361.37c-3.12,15.2-1.27,27.58,5.56,37.13s16.37,15.98,28.65,19.3,25.44,3.41,39.47.29,27-9.84,38.89-20.17,20.95-24.66,27.19-42.98c6.24-18.32,7.6-40.93,4.09-67.83-1.17-5.46-3.9-9.65-8.19-12.57-4.29-2.92-12.28-1.27-23.97,4.97-17.54,8.97-34.11,16.47-49.7,22.51s-28.94,13.35-40.05,21.93c-11.11,8.58-18.42,21.05-21.93,37.42Z" fill="url(#1776867898091-1671271_linear-gradient-61)"></path></g></svg>