<svg data-name="Layer 1" xmlns="http://www.w3.org/2000/svg" style="" viewBox="0 0 548.86 512"><g class="nc-icon-wrapper"><defs><linearGradient id="1776376904384-8233326_linear-gradient" x1="474.84" y1="871.28" x2="474.84" y2="665.31" gradientTransform="translate(0 -512)" gradientUnits="userSpaceOnUse"><stop offset="0" stop-color="#8f0100"></stop><stop offset=".36" stop-color="#8f0100"></stop><stop offset=".44" stop-color="#b1090b"></stop><stop offset=".53" stop-color="#cd1013"></stop><stop offset=".62" stop-color="#e3151a"></stop><stop offset=".72" stop-color="#f3191f"></stop><stop offset=".84" stop-color="#fc1b22"></stop><stop offset="1" stop-color="#ff1c23"></stop></linearGradient><linearGradient id="1776376904384-8233326_linear-gradient-2" x1="296.37" y1="1015.81" x2="296.37" y2="520.78" gradientTransform="translate(0 -512)" gradientUnits="userSpaceOnUse"><stop offset="0" stop-color="#a5abae"></stop><stop offset=".45" stop-color="#a5abae"></stop><stop offset=".46" stop-color="#abb1b4"></stop><stop offset=".52" stop-color="#c2c7ca"></stop><stop offset=".59" stop-color="#d5d9dc"></stop><stop offset=".67" stop-color="#e1e6e9"></stop><stop offset=".77" stop-color="#e9edf0"></stop><stop offset="1" stop-color="#ebeff2"></stop></linearGradient><linearGradient id="1776376904384-8233326_linear-gradient-3" x1="7.02" y1="768.29" x2="216.5" y2="768.29" gradientTransform="translate(0 -512)" gradientUnits="userSpaceOnUse"><stop offset="0" stop-color="#ebeff2"></stop><stop offset=".37" stop-color="#c0c4c7"></stop><stop offset="1" stop-color="#6e7375"></stop></linearGradient><linearGradient id="1776376904384-8233326_linear-gradient-4" x1="171.45" y1="845.53" x2="171.45" y2="691.05" gradientTransform="translate(0 -512)" gradientUnits="userSpaceOnUse"><stop offset="0" stop-color="#8f0100"></stop><stop offset=".36" stop-color="#8f0100"></stop><stop offset=".44" stop-color="#b1090b"></stop><stop offset=".53" stop-color="#cd1013"></stop><stop offset=".62" stop-color="#e3151a"></stop><stop offset=".72" stop-color="#f3191f"></stop><stop offset=".84" stop-color="#fc1b22"></stop><stop offset="1" stop-color="#ff1c23"></stop></linearGradient><linearGradient id="1776376904384-8233326_linear-gradient-5" x1="114.98" y1="830.32" x2="114.98" y2="706.27" gradientTransform="translate(0 -512)" gradientUnits="userSpaceOnUse"><stop offset="0" stop-color="#b30100"></stop><stop offset=".22" stop-color="#cb0100"></stop><stop offset=".53" stop-color="#e80000"></stop><stop offset=".8" stop-color="#f90000"></stop><stop offset="1" stop-color="red"></stop></linearGradient><linearGradient id="1776376904384-8233326_linear-gradient-6" x1="496.79" y1="1024" x2="496.79" y2="748.98" gradientTransform="translate(0 -512)" gradientUnits="userSpaceOnUse"><stop offset="0" stop-color="#979ea1"></stop><stop offset=".23" stop-color="#a5acaf"></stop><stop offset=".67" stop-color="#cbd0d3"></stop><stop offset="1" stop-color="#ebeff2"></stop></linearGradient><linearGradient id="1776376904384-8233326_linear-gradient-7" x1="496.49" y1="812.76" x2="496.49" y2="761.27" gradientTransform="translate(0 -512)" gradientUnits="userSpaceOnUse"><stop offset="0" stop-color="#7a8082"></stop><stop offset=".2" stop-color="#888e90"></stop><stop offset=".57" stop-color="#aeb3b5"></stop><stop offset="1" stop-color="#e1e5e8"></stop></linearGradient><linearGradient id="1776376904384-8233326_linear-gradient-8" x1="120.54" y1="1024" x2="120.54" y2="512" gradientTransform="translate(0 -512)" gradientUnits="userSpaceOnUse"><stop offset="0" stop-color="#b30100"></stop><stop offset=".22" stop-color="#cb0100"></stop><stop offset=".53" stop-color="#e80000"></stop><stop offset=".8" stop-color="#f90000"></stop><stop offset="1" stop-color="red"></stop></linearGradient></defs><path class="cls-1" d="M373.32,314.22h63.2v161.5l-63.2,9.36v-170.86Z" fill="#7a8082"></path><path class="cls-10" d="M460.51,512l-87.19-26.92,63.2-9.36,29.26,8.19-5.27,28.09Z" fill="#302c3b"></path><path class="cls-9" d="M512,358.69h-111.18v-205.39h111.18c8.19,0,15.02,4.97,20.48,14.92,5.46,9.95,9.56,22.72,12.29,38.33,2.73,15.6,4.1,32.18,4.1,49.74s-1.37,34.13-4.1,49.74c-2.73,15.6-6.83,28.38-12.29,38.33-5.46,9.95-12.29,14.73-20.48,14.34Z" fill="url(#1776376904384-8233326_linear-gradient)"></path><path class="cls-8" d="M400.82,359.28c-10.92,2.73-24.67,8.19-41.25,16.38-16.58,8.19-34.43,17.75-53.54,28.67-19.11,10.92-38.03,22.14-56.76,33.65-18.72,11.51-35.79,22.24-51.2,32.18-15.41,9.95-27.79,18.04-37.16,24.28-9.36,6.24-14.04,9.36-14.04,9.36V8.78s4.68,3.12,14.04,9.36,21.75,14.34,37.16,24.28c15.41,9.95,32.48,20.68,51.2,32.18,18.72,11.51,37.64,22.72,56.76,33.65,19.11,10.92,36.96,20.48,53.54,28.67,16.58,8.19,30.33,13.85,41.25,16.97,10.14,2.34,18.53,8.68,25.16,19.02s11.61,22.82,14.92,37.45c3.32,14.63,4.97,29.94,4.97,45.93s-1.66,31.31-4.97,45.93c-3.32,14.63-8.29,27.11-14.92,37.45s-15.02,16.87-25.16,19.6Z" fill="url(#1776376904384-8233326_linear-gradient-2)"></path><path class="cls-7" d="M106.5,497.37c-16.38,0-30.82-6.73-43.3-20.19-12.48-13.46-22.92-31.7-31.31-54.71-8.39-23.02-14.63-48.86-18.72-77.53-4.1-28.67-6.14-58.22-6.14-88.65s2.05-59.98,6.14-88.65c4.1-28.67,10.34-54.42,18.72-77.24s18.82-41.06,31.31-54.71c12.48-13.65,26.92-20.48,43.3-20.48,18.33,0,34.33,6.73,47.98,20.19,13.65,13.46,25.06,31.7,34.23,54.71s16.09,48.86,20.77,77.53,7.02,58.22,7.02,88.65-2.34,59.98-7.02,88.65-11.61,54.52-20.77,77.53c-9.17,23.02-20.58,41.25-34.23,54.71-13.65,13.46-29.65,20.19-47.98,20.19Z" fill="url(#1776376904384-8233326_linear-gradient-3)"></path><path class="cls-6" d="M222.35,179.05s.88,6.63,2.63,19.89,2.63,32.38,2.63,57.34-.88,44.57-2.63,57.64c-1.76,13.07-2.63,19.6-2.63,19.6l-107.08-15.21v-124.05l107.08-15.21Z" fill="url(#1776376904384-8233326_linear-gradient-4)"></path><path class="cls-4" d="M115.27,194.27c7.41,0,13.65,6.05,18.72,18.14,5.07,12.09,7.61,26.72,7.61,43.89s-2.54,31.79-7.61,43.89c-5.07,12.09-11.31,18.14-18.72,18.14s-13.75-6.05-19.02-18.14c-5.27-12.09-7.9-26.72-7.9-43.89s2.63-31.79,7.9-43.89c5.27-12.09,11.61-18.14,19.02-18.14Z" fill="url(#1776376904384-8233326_linear-gradient-5)"></path><path class="cls-10" d="M110.01,215.33c4.29,0,8.09,4,11.41,12s4.97,17.65,4.97,28.96-1.66,20.97-4.97,28.96-7.12,12-11.41,12c-4.68,0-8.58-4-11.7-12s-4.68-17.65-4.68-28.96,1.56-20.97,4.68-28.96,7.02-12,11.7-12Z" fill="#302c3b"></path><path class="cls-5" d="M460.51,512v-239.32c0-9.75,3.51-18.14,10.53-25.16s15.6-10.53,25.75-10.53,18.24,3.51,25.45,10.53,10.83,15.41,10.83,25.16v230.55l-72.56,8.78Z" fill="url(#1776376904384-8233326_linear-gradient-6)"></path><path class="cls-3" d="M522.53,275.02c0,7.02-2.54,13.07-7.61,18.14s-11.31,7.61-18.72,7.61c-7.02,0-13.07-2.54-18.14-7.61s-7.61-11.12-7.61-18.14,2.54-13.07,7.61-18.14c5.07-5.07,11.31-7.61,18.72-7.61,7.02,0,13.07,2.54,18.14,7.61s7.61,11.12,7.61,18.14Z" fill="url(#1776376904384-8233326_linear-gradient-7)"></path><path class="cls-1" d="M478.06,293.16c-1.17-1.17-.2-3.9,2.93-8.19s7.12-8.87,12-13.75c4.88-4.88,9.46-8.78,13.75-11.7s7.02-3.8,8.19-2.63.2,3.9-2.93,8.19-7.12,8.78-12,13.46-9.46,8.58-13.75,11.7-7.02,4.1-8.19,2.93Z" fill="#7a8082"></path><path class="cls-2" d="M114.69,0c21.07,0,39.5,7.22,55.3,21.65,15.8,14.43,28.96,33.84,39.5,58.22,10.53,24.38,18.43,51.79,23.7,82.21s7.9,61.83,7.9,94.21-2.63,63.78-7.9,94.21-13.17,57.83-23.7,82.21c-10.53,24.38-23.7,43.69-39.5,57.93-15.8,14.24-34.23,21.36-55.3,21.36-19.11,0-35.79-7.12-50.03-21.36-14.24-14.24-26.14-33.55-35.69-57.93-9.56-24.38-16.77-51.79-21.65-82.21S0,288.67,0,256.29s2.44-63.78,7.31-94.21,12.09-57.83,21.65-82.21c9.56-24.38,21.46-43.79,35.69-58.22C78.9,7.22,95.57,0,114.69,0ZM107.08,486.84c17.55,0,32.87-6.53,45.93-19.6,13.07-13.07,23.89-30.52,32.48-52.37,8.58-21.85,15.12-46.42,19.6-73.73s6.73-55.59,6.73-84.85-2.24-57.54-6.73-84.85c-4.49-27.31-11.02-51.88-19.6-73.73-8.58-21.85-19.41-39.3-32.48-52.37s-28.38-19.6-45.93-19.6c-15.99,0-29.94,6.53-41.84,19.6-11.9,13.07-21.85,30.52-29.84,52.37s-13.95,46.42-17.85,73.73c-3.9,27.31-5.85,55.59-5.85,84.85s1.95,57.54,5.85,84.85c3.9,27.31,9.85,51.88,17.85,73.73,8,21.85,17.94,39.3,29.84,52.37,11.9,13.07,25.84,19.6,41.84,19.6Z" fill="url(#1776376904384-8233326_linear-gradient-8)"></path></g></svg>