<svg data-name="Layer 1" xmlns="http://www.w3.org/2000/svg" style="" viewBox="0 0 512 512"><g class="nc-icon-wrapper"><defs><linearGradient id="1776867898093-3022270_linear-gradient" x1="269.27" y1="681.83" x2="269.27" y2="512" gradientTransform="translate(0 -512)" gradientUnits="userSpaceOnUse"><stop offset="0" stop-color="#f90"></stop><stop offset=".02" stop-color="#ff9c03"></stop><stop offset=".27" stop-color="#ffb91d"></stop><stop offset=".52" stop-color="#ffce31"></stop><stop offset=".77" stop-color="#ffdb3c"></stop><stop offset="1" stop-color="#ffdf40"></stop></linearGradient><linearGradient id="1776867898093-3022270_linear-gradient-2" x1="371.93" y1="597.19" x2="371.93" y2="512" gradientTransform="translate(0 -512)" gradientUnits="userSpaceOnUse"><stop offset="0" stop-color="#6fad00"></stop><stop offset=".04" stop-color="#73b202"></stop><stop offset=".26" stop-color="#87cc0f"></stop><stop offset=".49" stop-color="#96de17"></stop><stop offset=".73" stop-color="#9ee91c"></stop><stop offset="1" stop-color="#a1ed1e"></stop></linearGradient><linearGradient id="1776867898093-3022270_linear-gradient-3" x1="472.68" y1="711.32" x2="472.68" y2="626.68" gradientTransform="translate(0 -512)" gradientUnits="userSpaceOnUse"><stop offset="0" stop-color="#0094eb"></stop><stop offset=".16" stop-color="#0c9bef"></stop><stop offset=".71" stop-color="#32affb"></stop><stop offset="1" stop-color="#40b7ff"></stop></linearGradient><linearGradient id="1776867898093-3022270_linear-gradient-4" x1="451.66" y1="239.93" x2="451.66" y2="154.74" gradientTransform="matrix(1.41 0 0 1.41 -232.07 -17.36)" gradientUnits="userSpaceOnUse"><stop offset="0" stop-color="#7d0c7a"></stop><stop offset=".09" stop-color="#930c90"></stop><stop offset=".25" stop-color="#b30dae"></stop><stop offset=".42" stop-color="#cc0dc6"></stop><stop offset=".59" stop-color="#dd0ed8"></stop><stop offset=".78" stop-color="#e80ee2"></stop><stop offset="1" stop-color="#eb0ee5"></stop></linearGradient><linearGradient id="1776867898093-3022270_linear-gradient-5" x1="415.62" y1="575.62" x2="448.38" y2="608.38" gradientTransform="translate(0 -512)" gradientUnits="userSpaceOnUse"><stop offset="0" stop-color="#d3dbe3"></stop><stop offset=".27" stop-color="#ecf1f5"></stop><stop offset=".37" stop-color="#dfe5e9"></stop><stop offset=".6" stop-color="#c8cfd4"></stop><stop offset=".82" stop-color="#bac2c6"></stop><stop offset="1" stop-color="#b5bdc2"></stop></linearGradient><linearGradient id="1776867898093-3022270_linear-gradient-6" x1="226.68" y1="764.56" x2="259.44" y2="797.32" gradientTransform="translate(0 -512)" gradientUnits="userSpaceOnUse"><stop offset="0" stop-color="#5f6a73"></stop><stop offset=".24" stop-color="#8691a1"></stop><stop offset=".36" stop-color="#6f7686"></stop><stop offset=".54" stop-color="#545666"></stop><stop offset=".71" stop-color="#403f4e"></stop><stop offset=".86" stop-color="#343140"></stop><stop offset="1" stop-color="#302c3b"></stop></linearGradient><linearGradient id="1776867898093-3022270_linear-gradient-7" x1="729.28" y1="261.96" x2="762.04" y2="294.72" gradientTransform="translate(-691 179)" gradientUnits="userSpaceOnUse"><stop offset="0" stop-color="#d3dbe3"></stop><stop offset=".27" stop-color="#ecf1f5"></stop><stop offset=".37" stop-color="#dfe5e9"></stop><stop offset=".6" stop-color="#c8cfd4"></stop><stop offset=".82" stop-color="#bac2c6"></stop><stop offset="1" stop-color="#b5bdc2"></stop></linearGradient></defs><path class="cls-7" d="M269.54,0c1.82,22.21,4.91,38.95,9.28,50.24,4.37,11.29,11.1,19.29,20.2,24.03s22.03,8.37,38.77,10.92c-16.75,2.18-29.67,5.64-38.77,10.38s-15.84,12.83-20.2,24.3c-4.37,11.47-7.46,28.12-9.28,49.97-1.82-21.84-4.91-38.5-9.28-49.97s-11.1-19.57-20.2-24.3c-9.1-4.73-22.21-8.19-39.32-10.38,17.11-2.55,30.22-6.19,39.32-10.92,9.1-4.73,15.84-12.74,20.2-24.03s7.46-28.03,9.28-50.24Z" fill="url(#1776867898093-3022270_linear-gradient)"></path><path class="cls-6" d="M371.66,0c1.09,10.92,2.91,19.29,5.46,25.12,2.55,5.82,6.46,9.92,11.74,12.29s12.65,4.1,22.12,5.19c-9.47,1.09-16.84,2.82-22.12,5.19s-9.19,6.37-11.74,12.01c-2.55,5.64-4.37,14.11-5.46,25.39-1.09-11.29-2.82-19.75-5.19-25.39-2.37-5.64-6.19-9.65-11.47-12.01s-12.65-4.1-22.12-5.19c9.47-1.09,16.84-2.82,22.12-5.19s9.1-6.46,11.47-12.29c2.37-5.82,4.1-14.2,5.19-25.12Z" fill="url(#1776867898093-3022270_linear-gradient-2)"></path><path class="cls-5" d="M472.68,114.68c1.09,10.92,2.82,19.2,5.19,24.85,2.37,5.64,6.19,9.74,11.47,12.29s12.83,4.37,22.66,5.46c-9.83,1.09-17.38,2.82-22.66,5.19s-9.1,6.37-11.47,12.01-4.1,13.92-5.19,24.85c-1.09-10.92-2.82-19.2-5.19-24.85-2.37-5.64-6.19-9.65-11.47-12.01s-12.83-4.1-22.66-5.19c9.83-1.09,17.38-2.91,22.66-5.46s9.1-6.64,11.47-12.29c2.37-5.64,4.1-13.92,5.19-24.85Z" fill="url(#1776867898093-3022270_linear-gradient-3)"></path><path class="cls-4" d="M405.25,201.22c1.54,15.42,4.11,27.24,7.71,35.47,3.6,8.23,9.12,14.01,16.58,17.35s17.86,5.79,31.23,7.33c-13.37,1.54-23.77,3.98-31.23,7.32s-12.98,8.99-16.58,16.96c-3.6,7.97-6.17,19.92-7.72,35.85-1.54-15.94-3.98-27.89-7.32-35.86s-8.74-13.62-16.19-16.97-17.86-5.79-31.23-7.33c13.37-1.54,23.77-3.98,31.23-7.32s12.85-9.12,16.19-17.35c3.34-8.22,5.79-20.05,7.33-35.47Z" fill="url(#1776867898093-3022270_linear-gradient-4)"></path><path class="cls-2" d="M379.3,99.93l62.8-62.8c3.28-3.28,7.37-4.1,12.29-2.46s9.56,4.64,13.92,9.01,7.37,9.01,9.01,13.92.82,9.01-2.46,12.29l-62.8,62.8-32.76-32.76Z" fill="url(#1776867898093-3022270_linear-gradient-5)"></path><path class="cls-3" d="M64.22,415.02L379.3,99.93c3.28-3.28,7.37-4.1,12.29-2.46s9.56,4.64,13.92,9.01,7.37,9.01,9.01,13.92.82,9.01-2.46,12.29L96.98,447.78l-32.76-32.76Z" fill="url(#1776867898093-3022270_linear-gradient-6)"></path><path class="cls-1" d="M1.97,477.27l62.8-62.8c3.28-3.28,7.37-4.1,12.29-2.46s9.56,4.64,13.92,9.01,7.37,9.01,9.01,13.92.82,9.01-2.46,12.29l-62.8,62.8L1.97,477.27Z" fill="url(#1776867898093-3022270_linear-gradient-7)"></path><path class="cls-8" d="M34.73,510.03c-2.55,2.18-6.19,2.55-10.92,1.09s-9.28-4.55-13.65-9.28c-4.73-4.37-7.83-8.92-9.28-13.65-1.46-4.73-1.09-8.37,1.09-10.92,2.18-2.18,5.73-2.46,10.65-.82s9.56,4.64,13.92,9.01,7.37,9.01,9.01,13.92,1.37,8.46-.82,10.65Z" fill="#b5bdc2"></path></g></svg>