<svg xmlns="http://www.w3.org/2000/svg" data-name="Layer 1" style="" viewBox="0 0 496.01 512"><g class="nc-icon-wrapper"><defs><linearGradient id="1776867898094-97247_linear-gradient" x1="844.77" x2="844.77" y1="-98.38" y2="-57.11" gradientTransform="matrix(2.57 0 0 -4 -1906.98 117.71)" gradientUnits="userSpaceOnUse"><stop offset="0" stop-color="#9e6c48" stop-opacity="0"></stop><stop offset=".17" stop-color="#9e6c48" stop-opacity="0"></stop><stop offset=".33" stop-color="#835a3f" stop-opacity=".3"></stop><stop offset=".58" stop-color="#5d4234" stop-opacity=".76"></stop><stop offset=".71" stop-color="#4f392f"></stop><stop offset="1" stop-color="#4f392f"></stop></linearGradient><linearGradient id="1776867898094-97247_linear-gradient-2" x1="334.58" x2="304.93" y1="-398.85" y2="-43.15" gradientTransform="matrix(1 0 0 -1 0 -.69)" gradientUnits="userSpaceOnUse"><stop offset="0" stop-color="#008ead"></stop><stop offset=".2" stop-color="#0390af"></stop><stop offset=".33" stop-color="#0c97b5"></stop><stop offset=".45" stop-color="#1ba3c0"></stop><stop offset=".55" stop-color="#30b3cf"></stop><stop offset=".65" stop-color="#4cc9e2"></stop><stop offset=".74" stop-color="#6ee3fa"></stop><stop offset=".76" stop-color="#75e8ff"></stop><stop offset=".8" stop-color="#71e5fc"></stop><stop offset=".85" stop-color="#65dcf4"></stop><stop offset=".89" stop-color="#52cde6"></stop><stop offset=".94" stop-color="#37b8d3"></stop><stop offset=".98" stop-color="#149dbb"></stop><stop offset="1" stop-color="#008ead"></stop></linearGradient><linearGradient id="1776867898094-97247_linear-gradient-3" x1="129.29" x2="129.29" y1="-404.82" y2="-57.94" gradientTransform="matrix(1 0 0 -1 0 -.24)" gradientUnits="userSpaceOnUse"><stop offset="0" stop-color="#007791"></stop><stop offset="1" stop-color="#00c8f0"></stop></linearGradient><linearGradient id="1776867898094-97247_linear-gradient-4" x1="-26.03" x2="262.97" y1="-304.56" y2="-199.43" gradientTransform="matrix(1 0 0 -1 0 -.24)" gradientUnits="userSpaceOnUse"><stop offset="0" stop-color="#007791"></stop><stop offset="1" stop-color="#002840"></stop></linearGradient><linearGradient id="1776867898094-97247_linear-gradient-5" x1="2.64" x2="251.71" y1="-368.87" y2="-368.87" gradientTransform="matrix(1 0 0 -1 0 -.24)" gradientUnits="userSpaceOnUse"><stop offset="0" stop-color="#008ead" stop-opacity=".3"></stop><stop offset=".96" stop-color="#008ead" stop-opacity="0"></stop><stop offset="1" stop-color="#008ead" stop-opacity="0"></stop></linearGradient><linearGradient id="1776867898094-97247_linear-gradient-6" x1="270.21" x2="393.42" y1="-133.52" y2="-133.52" gradientTransform="matrix(1 0 0 -1 0 -.24)" gradientUnits="userSpaceOnUse"><stop offset="0" stop-color="#de0000"></stop><stop offset="1" stop-color="#ff5436"></stop></linearGradient><linearGradient id="1776867898094-97247_linear-gradient-7" x1="302.47" x2="294.03" y1="-294.31" y2="-242.57" gradientTransform="matrix(1 0 0 -1 0 -.24)" gradientUnits="userSpaceOnUse"><stop offset="0" stop-color="#707b7d"></stop><stop offset=".83" stop-color="#707b7d"></stop><stop offset=".86" stop-color="#768183"></stop><stop offset=".9" stop-color="#859294"></stop><stop offset=".95" stop-color="#9faeb1"></stop><stop offset="1" stop-color="#c2d4d8"></stop><stop offset="1" stop-color="#c5d7db"></stop></linearGradient><linearGradient id="1776867898094-97247_linear-gradient-8" x1="159.65" x2="140.1" y1="-386.29" y2="-182.89" gradientTransform="matrix(1 0 0 -1 0 -.24)" gradientUnits="userSpaceOnUse"><stop offset="0" stop-color="#e6ebed"></stop><stop offset=".51" stop-color="#dbe2e5"></stop><stop offset="1" stop-color="#ccd5d9"></stop></linearGradient><linearGradient id="1776867898094-97247_linear-gradient-9" x1="169.62" x2="154.82" y1="-385.28" y2="-228.77" gradientTransform="matrix(1 0 0 -1 0 -.24)" gradientUnits="userSpaceOnUse"><stop offset="0" stop-color="#e6ebed"></stop><stop offset=".26" stop-color="#e3e9eb"></stop><stop offset=".45" stop-color="#dae1e4"></stop><stop offset=".58" stop-color="#cfd8dd"></stop><stop offset="1" stop-color="#cfd8dd"></stop></linearGradient><linearGradient id="1776867898094-97247_linear-gradient-10" x1="157.51" x2="144.24" y1="-319.06" y2="-182.11" gradientTransform="matrix(1 0 0 -1 0 -.24)" gradientUnits="userSpaceOnUse"><stop offset="0" stop-color="#e6ebed"></stop><stop offset=".58" stop-color="#e3e9ec"></stop><stop offset="1" stop-color="#dae3e8"></stop></linearGradient><radialGradient id="1776867898094-97247_radial-gradient" cx="1488.13" cy="-98.38" r="44.42" fx="1463.8" fy="-98.38" gradientTransform="matrix(1.28 0 0 -4 -1643.24 117.71)" gradientUnits="userSpaceOnUse"><stop offset="0" stop-color="#cc9670"></stop><stop offset=".2" stop-color="#c7936e"></stop><stop offset=".43" stop-color="#ba8867"></stop><stop offset=".67" stop-color="#a4775c"></stop><stop offset=".91" stop-color="#85604d"></stop><stop offset="1" stop-color="#785647"></stop></radialGradient></defs><path d="M321.81 346.93V512H206.35V346.93z" fill="url(#1776867898094-97247_radial-gradient)"></path><path d="M321.81 346.93V512H206.35V346.93z" fill="url(#1776867898094-97247_linear-gradient)"></path><path d="M362.23 48.97c24.68 0 47.06 5.2 67.16 15.6 20.09 10.4 36.22 24.69 48.38 42.85s18.24 39.24 18.24 63.22v184.12l-237.43 49.73L125.33 57.43s5.73-.26 17.19-.79 26.35-1.23 44.68-2.12 38.25-1.68 59.75-2.38c21.51-.7 42.39-1.41 62.66-2.12s37.81-1.06 52.61-1.06Z" fill="url(#1776867898094-97247_linear-gradient-2)"></path><path d="M125.32 57.7c24.68 0 47.06 5.82 67.16 17.45 20.09 11.63 36.13 27.32 48.12 47.06s17.98 41.6 17.98 65.57v216.81L0 385.02V187.78c0-23.97 5.29-45.83 15.86-65.57 10.58-19.74 25.29-35.43 44.15-47.06s40.63-17.45 65.31-17.45" fill="url(#1776867898094-97247_linear-gradient-3)"></path><path d="M122.68 62.99q35.955 0 65.04 17.19c29.085 17.19 34.9 26.7 46.53 45.74s17.45 40.19 17.45 63.46v209.4L2.64 381.85V189.37c0-23.27 5.02-44.42 15.07-63.46s24.15-34.28 42.3-45.74 39.04-17.19 62.66-17.19Z" fill="url(#1776867898094-97247_linear-gradient-4)"></path><path d="m2.64 381.85 249.06-43.36v60.28z" fill="url(#1776867898094-97247_linear-gradient-5)"></path><path d="m270.74 299.36-6.35 1.06v-57.64l59.22-7.93v3.7l-52.88 60.81Z" fill="#4e5557"></path><path d="M389.19.06 299.3 38.13l-17.45 215.75-6.35 12.69V10.64c0-2.47 1.23-3.7 3.7-3.7 6.7-.7 16.04-1.41 28.03-2.12s24.32-1.41 37.02-2.12 23.36-1.32 31.99-1.85S389.2.06 389.2.06Z" fill="#ff5436"></path><path d="M389.19.06c2.82-.35 4.23.88 4.23 3.7v68.21c.35 2.47-.88 3.88-3.7 4.23l-75.09 7.4c-2.47 0-3.7 1.23-3.7 3.7v179.26h-32.79V11.69c0-2.47 1.23-3.88 3.7-4.23z" fill="url(#1776867898094-97247_linear-gradient-6)"></path><path d="m323.62 238.55 2.64 1.59.53 49.18-56.05 10.05v-50.76l-2.12-2.12 54.99-7.93Z" fill="url(#1776867898094-97247_linear-gradient-7)"></path><path d="M38.07 192.01c17.28 3.17 35.69 8.02 55.26 14.54s38.69 13.48 57.37 20.89c18.68 7.4 35.69 14.63 51.03 21.68s27.5 12.78 36.49 17.19 13.48 6.61 13.48 6.61v94.13L77.73 393.49 38.07 192.02Z" fill="url(#1776867898094-97247_linear-gradient-8)"></path><path d="m196.18 217.92 55.52 50.24v83.55c-23.97 1.76-50.94 5.82-80.91 12.16s-60.99 16.22-93.07 29.61l118.45-175.56Z" class="cls-11" fill="#99a8ae"></path><path d="m77.73 393.48 119.51-169.21 54.47 48.65v94.13L77.74 393.49Z" fill="url(#1776867898094-97247_linear-gradient-9)"></path><path d="M38.07 192.01c17.62 3.53 36.22 8.37 55.79 14.54a1094 1094 0 0 1 57.37 19.83c18.68 7.05 35.6 13.75 50.76 20.09 15.16 6.35 27.23 11.54 36.22 15.6s13.48 6.08 13.48 6.08v4.76l-31.2 42.3c-3.17 4.58-7.05 5.11-11.63 1.59z" class="cls-11" fill="#99a8ae"></path><path d="M207.82 311.52 38.07 192.01l213.63-6.87v83.02l-32.26 41.77c-3.17 4.23-7.05 4.76-11.63 1.59Z" fill="url(#1776867898094-97247_linear-gradient-10)"></path></g></svg>