<svg data-name="Layer 1" xmlns="http://www.w3.org/2000/svg" style="" viewBox="0 0 478.97 512"><g class="nc-icon-wrapper"><defs><radialGradient id="1776867898096-9866930_radial-gradient" cx="243.35" cy="212.53" fx="243.35" fy="212.53" r="230.47" gradientTransform="matrix(.98 0 0 -1.26 .12 636.32)" gradientUnits="userSpaceOnUse"><stop offset="0" stop-color="#f80"></stop><stop offset=".13" stop-color="#fb8100"></stop><stop offset=".34" stop-color="#f16c00"></stop><stop offset=".58" stop-color="#e14a00"></stop><stop offset=".86" stop-color="#ca1b00"></stop><stop offset="1" stop-color="#bd0000"></stop></radialGradient><radialGradient id="1776867898096-9866930_radial-gradient-2" cx="238.59" cy="127.92" fx="238.59" fy="127.92" r="349.15" gradientTransform="matrix(1.04 0 0 -1.03 -4.99 522.89)" gradientUnits="userSpaceOnUse"><stop offset="0" stop-color="#bd0000"></stop><stop offset="1" stop-color="#bd0000"></stop></radialGradient></defs><path class="cls-1" d="M478.97,302.45c-23.48-26.04-117.39-27.04-117.39-27.04-8.78-28.29,74.41-51.93,91.08-76.09-47.97-17.47-14.61-67.07-1.76-95.12,3.23-7.02-72.69,37.1-85.91-1.4-25.78,57.5-77.25,97.38-77.25,97.38-18.24-17.3,37.89-83.51,17.48-126.02C258.53,113.73,251.34,12.21,239.48,0c-11.86,12.21-19.06,113.73-65.77,74.17-20.38,42.5,27.18,108.72,8.95,126.02,0,0-42.91-39.89-68.69-97.38-13.23,38.5-89.14-5.62-85.93,1.4,12.85,28.04,46.21,77.65-1.74,95.12,16.68,24.16,80.22,50.22,73.98,76.09,0,0-76.82,1-100.29,27.04,19.44,27.95,103.34,19.03,57.83,70.37,30.37-.03,62.91-5.33,84.95,3.11-6.02,16.38-12.05,37.92-15.26,57.15,34.82,3.18,69.68-22.18,111.96-66.27,42.26,44.1,77.15,69.45,111.96,66.27-3.21-19.22-9.26-40.76-15.26-57.15,22.02-8.44,54.58-3.15,84.93-3.11-45.51-51.33,38.41-42.42,57.85-70.37Z" fill="url(#1776867898096-9866930_radial-gradient)" fill-rule="evenodd"></path><path class="cls-2" d="M478.97,302.45c-127.36,27.64-179.08,25.12-234.96,65.21,86.39-158.97,114.56-147.05,202.14-259.65-72.82,84.82-125.73,105.25-202.72,246.64,0,0-22.47-185.84-3.95-344.04-30.49,133.35-2.68,342.79-2.68,342.79,0,0-80.86-136.73-204.62-245.91,49.9,50.38,136.4,150.83,202.77,257.45C177.66,335.83,75.94,324.43,0,302.45c81.94,37.55,187.28,32.56,237.51,73.65,6.17,64.59,29.37,120.76,42.57,135.89,12.56-.77,13.93-9.51,13.93-9.51-7.02-23.17-23.98-16.05-50.23-126.28,63.96-48.92,188.05-44.24,235.19-73.75Z" fill-rule="evenodd" fill="url(#1776867898096-9866930_radial-gradient-2)"></path></g></svg>