<svg data-name="Layer 1" xmlns="http://www.w3.org/2000/svg" style="" viewBox="0 0 511.66 512"><g class="nc-icon-wrapper"><defs><linearGradient id="1776867898098-5266538_linear-gradient" x1="111.78" y1="514" x2="111.78" y2="2.02" gradientTransform="matrix(1 0 0 -1 0 514)" gradientUnits="userSpaceOnUse"><stop offset="0" stop-color="#2e7d32"></stop><stop offset="1" stop-color="#26692a"></stop></linearGradient><linearGradient id="1776867898098-5266538_linear-gradient-2" x1="111.78" y1="513.99" x2="111.78" y2="2.01" gradientTransform="matrix(1 0 0 -1 0 514)" gradientUnits="userSpaceOnUse"><stop offset="0" stop-color="#2e7d32"></stop><stop offset="1" stop-color="#26692a"></stop></linearGradient><linearGradient id="1776867898098-5266538_linear-gradient-3" x1="399.87" y1="514" x2="399.87" y2="2.02" gradientTransform="matrix(1 0 0 -1 0 514)" gradientUnits="userSpaceOnUse"><stop offset="0" stop-color="#2e7d32"></stop><stop offset="1" stop-color="#26692a"></stop></linearGradient><linearGradient id="1776867898098-5266538_linear-gradient-4" x1="399.87" y1="513.99" x2="399.87" y2="2.01" gradientTransform="matrix(1 0 0 -1 0 514)" gradientUnits="userSpaceOnUse"><stop offset="0" stop-color="#2e7d32"></stop><stop offset="1" stop-color="#26692a"></stop></linearGradient></defs><path class="cls-4" d="M171.36,3.29C132.08-1.1,91.49-1.1,52.21,3.29,26.94,6.12,6.5,26.02,3.52,51.5c-4.7,40.17-4.7,80.75,0,120.92,2.98,25.48,23.41,45.38,48.68,48.2,39.28,4.39,79.87,4.39,119.15,0,25.27-2.82,45.7-22.72,48.68-48.2,4.7-40.17,4.7-80.75,0-120.92-2.98-25.48-23.41-45.38-48.68-48.2Z" fill="url(#1776867898098-5266538_linear-gradient)"></path><path class="cls-3" d="M171.36,291.38c-39.28-4.39-79.87-4.39-119.15,0-25.27,2.82-45.7,22.72-48.68,48.2-4.7,40.17-4.7,80.75,0,120.92,2.98,25.48,23.41,45.38,48.68,48.2,39.28,4.39,79.87,4.39,119.15,0,25.27-2.82,45.7-22.72,48.68-48.2,4.7-40.17,4.7-80.75,0-120.92-2.98-25.48-23.41-45.38-48.68-48.2Z" fill="url(#1776867898098-5266538_linear-gradient-2)"></path><path class="cls-2" d="M459.45,3.29c-39.28-4.39-79.87-4.39-119.15,0-25.27,2.82-45.7,22.72-48.68,48.2-4.7,40.17-4.7,80.75,0,120.92,2.98,25.48,23.41,45.38,48.68,48.2,39.28,4.39,79.87,4.39,119.15,0,25.27-2.82,45.7-22.72,48.69-48.2,4.7-40.17,4.7-80.75,0-120.92-2.98-25.48-23.42-45.38-48.69-48.2Z" fill="url(#1776867898098-5266538_linear-gradient-3)"></path><path class="cls-1" d="M459.45,291.38c-39.28-4.39-79.87-4.39-119.15,0-25.27,2.82-45.7,22.72-48.68,48.2-4.7,40.17-4.7,80.75,0,120.92,2.98,25.48,23.41,45.38,48.68,48.2,39.28,4.39,79.87,4.39,119.15,0,25.27-2.82,45.7-22.72,48.69-48.2,4.7-40.17,4.7-80.75,0-120.92-2.98-25.48-23.42-45.38-48.69-48.2Z" fill="url(#1776867898098-5266538_linear-gradient-4)"></path></g></svg>