<svg xmlns="http://www.w3.org/2000/svg" style="" viewBox="0 0 358.39 512"><g class="nc-icon-wrapper"><defs><linearGradient id="1776131386653-7556402_linear-gradient" x1="32.39" y1="832.94" x2="358.39" y2="832.94" gradientTransform="translate(0 -346.54)" gradientUnits="userSpaceOnUse"><stop offset="0" stop-color="#717b80"></stop><stop offset=".23" stop-color="#889499"></stop><stop offset=".52" stop-color="#a0adb2"></stop><stop offset=".79" stop-color="#aebdc1"></stop><stop offset="1" stop-color="#b3c2c6"></stop></linearGradient><radialGradient id="1776131386653-7556402_radial-gradient" cx="175.37" cy="5901.35" fx="175.37" fy="5901.35" r="158.36" gradientTransform="matrix(1.02 0 0 .14 16.52 -368.53)" gradientUnits="userSpaceOnUse"><stop offset=".16" stop-color="#949a9e"></stop><stop offset=".26" stop-color="#a7adb1"></stop><stop offset=".43" stop-color="#c1c6ca"></stop><stop offset=".61" stop-color="#d3d9dd"></stop><stop offset=".8" stop-color="#dee3e7"></stop><stop offset="1" stop-color="#e2e7eb"></stop></radialGradient><linearGradient id="1776131386653-7556402_linear-gradient-2" x1="161.6" y1="804.61" x2="229.19" y2="804.61" gradientTransform="translate(0 -346.54)" gradientUnits="userSpaceOnUse"><stop offset="0" stop-color="#717b80"></stop><stop offset=".23" stop-color="#889499"></stop><stop offset=".52" stop-color="#a0adb2"></stop><stop offset=".79" stop-color="#aebdc1"></stop><stop offset="1" stop-color="#b3c2c6"></stop></linearGradient><linearGradient id="1776131386653-7556402_linear-gradient-3" x1="204.39" y1="797.7" x2="204.39" y2="686.58" gradientTransform="translate(0 -346.54)" gradientUnits="userSpaceOnUse"><stop offset="0" stop-color="#ecf1f5"></stop><stop offset=".4" stop-color="#e9eef2"></stop><stop offset=".72" stop-color="#dfe5ea"></stop><stop offset="1" stop-color="#cfd8dd"></stop></linearGradient><linearGradient id="1776131386653-7556402_linear-gradient-4" x1="186.94" y1="797.92" x2="186.94" y2="742.21" gradientTransform="translate(0 -346.54)" gradientUnits="userSpaceOnUse"><stop offset="0" stop-color="#b3c2c6"></stop><stop offset=".21" stop-color="#aebdc1"></stop><stop offset=".48" stop-color="#a0adb2"></stop><stop offset=".77" stop-color="#889499"></stop><stop offset="1" stop-color="#717b80"></stop></linearGradient><linearGradient id="1776131386653-7556402_linear-gradient-5" x1="164.46" y1="767.16" x2="164.46" y2="686.58" gradientTransform="translate(0 -346.54)" gradientUnits="userSpaceOnUse"><stop offset="0" stop-color="#b3c2c6"></stop><stop offset=".21" stop-color="#aebdc1"></stop><stop offset=".48" stop-color="#a0adb2"></stop><stop offset=".77" stop-color="#889499"></stop><stop offset="1" stop-color="#717b80"></stop></linearGradient><radialGradient id="1776131386653-7556402_radial-gradient-2" cx="32.23" cy="337.23" fx="32.23" fy="337.23" r="165.77" gradientTransform="matrix(.98866 -.2509 .57209 2.04202 18.54 -537.01)" gradientUnits="userSpaceOnUse"><stop offset=".37" stop-color="#b3c2c6"></stop><stop offset=".5" stop-color="#aebdc1"></stop><stop offset=".67" stop-color="#a0adb2"></stop><stop offset=".86" stop-color="#889499"></stop><stop offset="1" stop-color="#717b80"></stop></radialGradient><linearGradient id="1776131386653-7556402_linear-gradient-6" x1="133.21" y1="517.76" x2="308.2" y2="517.76" gradientTransform="translate(0 -346.54)" gradientUnits="userSpaceOnUse"><stop offset="0" stop-color="#ecf1f5"></stop><stop offset=".4" stop-color="#e9eef2"></stop><stop offset=".72" stop-color="#dfe5ea"></stop><stop offset="1" stop-color="#cfd8dd"></stop></linearGradient><radialGradient id="1776131386653-7556402_radial-gradient-3" cx="-165.36" cy="291.8" fx="-165.36" fy="291.8" r="87.89" gradientTransform="matrix(.9947 -.2258 .58326 2.32866 20.01 -511.76)" gradientUnits="userSpaceOnUse"><stop offset="0" stop-color="#b3c2c6"></stop><stop offset=".21" stop-color="#aebdc1"></stop><stop offset=".48" stop-color="#a0adb2"></stop><stop offset=".77" stop-color="#889499"></stop><stop offset="1" stop-color="#717b80"></stop></radialGradient></defs><path class="cls-11" d="M358.39,460.8v27.91c0,12.89-72.97,23.3-163,23.3s-163-10.41-163-23.3v-27.91h326,0Z" fill="url(#1776131386653-7556402_linear-gradient)"></path><ellipse class="cls-9" cx="195.39" cy="460.8" rx="163" ry="23.3" fill="url(#1776131386653-7556402_radial-gradient)"></ellipse><path class="cls-8" d="M229.19,445.52v17.07c0,4.44-15.11,8.02-33.79,8.02s-33.79-3.58-33.79-8.02v-17.07h67.59Z" fill="url(#1776131386653-7556402_linear-gradient-2)"></path><path class="cls-1" d="M161.6,445.52c0,4.44,15.11,8.02,33.79,8.02s33.79-3.58,33.79-8.02-15.11-8.02-33.79-8.02-33.79,3.58-33.79,8.02h0Z" fill="#6e8189"></path><path class="cls-1" d="M232.85,411.81c-15.19,0-15.19-33.37,0-33.37s15.27,33.37,0,33.37Z" fill="#6e8189"></path><path class="cls-7" d="M238.82,397.82c.17-17.84-4.86-50.95-4.86-50.95l-53.08-6.82-10.93,80.56,36.87,30.55c8.88-.85,17.67-2.73,17.67-6.4,0-6.92,0-16.73-.34-23.21,7.85-1.96,14.51-11.52,14.68-23.72h0Z" fill="url(#1776131386653-7556402_linear-gradient-3)"></path><path class="cls-1" d="M207.59,371.45c6.06,0,14.59,7.51,15.27,23.72.17,4.44.43,9.98.77,15.78,1.96-4.09,3.5-9.81,3.5-17.75,0-7-5.63-27.48-5.63-27.48l-20.14-1.11,1.45,6.82h4.78,0Z" fill="#6e8189"></path><path class="cls-6" d="M206.82,451.07c-18,1.02-39.77-.26-39.77-6.4l1.53-25.77c13.74,5.54,38.23,7.25,38.23-23.3v55.47h0Z" fill="url(#1776131386653-7556402_linear-gradient-4)"></path><path class="cls-4" d="M137.53,355.49s15.02,37.81,22.01,52.57c11.26,23.9,31.58,10.16,31.83-11.86.17-17.84-10.5-56.15-10.5-56.15l-43.35,15.45h0Z" fill="url(#1776131386653-7556402_linear-gradient-5)"></path><path class="cls-13" d="M169.96,417.02c-20.05,0-20.05-43.78,0-43.78,20.05.08,20.05,43.78,0,43.78Z" fill="#e6ebef"></path><path class="cls-10" d="M165.61,414.97c-15.19,0-15.19-39.68,0-39.68s15.19,39.68,0,39.68Z" fill="#99a8ae"></path><path class="cls-3" d="M66.01,22.24c186.72-66.22,211.64,36.52,211.64,36.52l-12.89,4.18,33.28,178.44,16.21,4.09s41.22,114.95-167.61,114.95C58.24,307.7-25.21,84.88,66.01,22.24Z" fill="url(#1776131386653-7556402_radial-gradient-2)"></path><path class="cls-5" d="M133.77,47.5c-9.9-29.36,113.33-66.82,134.49,9.73l-4.09,20.05,15.62.08,4.35,23.3-6.66-.43.59,20.74,8.96.17,4.95,22.19-6.4-.43,1.79,19.8,7.94.77,4.09,21.76-5.8-.85,1.53,22.11,8.62.17,4.44,19.03-6.82-.69,3.32,24.41c23.04,102.24-110.77,90.46-114.19,57.86-6.82-65.11-29.1-177.59-56.75-259.77h.01Z" fill="url(#1776131386653-7556402_linear-gradient-6)"></path><path class="cls-2" d="M66.01,22.24S-16.42,68.41,2.95,134.46l4.18-3.58,7,18.35-5.97,5.29,5.03,21.68,4.78-4.52,6.49,16.9-7.51,5.46,6.06,21.76,5.46-4.09,5.89,17.49-5.89,5.63,5.29,20.57,5.03-4.27,5.97,17.16-7.25,5.8,5.72,20.48,5.89-4.61,5.63,17.58-6.4,6.49s4.27,46.42,102.24,46.42c-39.34-26.54-45.4-46.77-51.12-66.31-14.85-50.52-41.56-140.98-59.22-202.08-12.46-42.5,25.77-69.81,25.77-69.81h0Z" fill="url(#1776131386653-7556402_radial-gradient-3)"></path><path class="cls-12" d="M191.2,351.31c47.7-20.4,44.89-24.41,44.04-57.18-.59-23.04-16.81-8.79-17.92,2.99-1.11,11.86,1.11,20.05-2.81,28.93-7.17,16.64-28.24,27.4-23.3,25.26h0Z" fill="#302c3b"></path><path class="cls-12" d="M224.66,344.48c26.45-6.57,36.78-21.17,35.85-53.93-.59-23.04-14.42-13.05-13.31.77.94,11.86,1.36,21.85-2.48,30.72-7.17,16.64-25.35,23.81-20.05,22.44Z" fill="#302c3b"></path><path class="cls-12" d="M251.63,339.7c28.67-16.13,35.85-23.04,32-51.46-3.16-22.87-13.05-13.31-11.95.51.94,11.86.51,22.27-3.07,30.13-3.58,7.94-21.76,23.47-16.98,20.82h0Z" fill="#302c3b"></path><path class="cls-12" d="M275.18,330.66c22.36-15.7,28.85-20.99,26.71-46.17-1.96-22.96-11.35-14.42-10.24-.51.94,11.86.85,19.12-1.88,25.94-2.56,6.74-19.03,23.81-14.59,20.74Z" fill="#302c3b"></path><path class="cls-12" d="M130.36,13.79c18.95,0,28.93,7.85,36.44,21.08,8.96,15.78-7.85,16.21-14.08,4.35-10.41-19.46-27.91-25.43-22.36-25.43Z" fill="#302c3b"></path><path class="cls-12" d="M161.42,7.65c13.05,0,25.77,9.98,33.28,23.21,8.96,15.7-8.71,16.55-14.08,4.35-9.98-22.44-24.75-27.56-19.2-27.56h0Z" fill="#302c3b"></path><path class="cls-12" d="M187.7,7.65c11.44,0,22.87,11.01,29.44,22.62,7.85,13.74-8.19,14.68-12.29,3.84-8.88-23.81-22.01-26.45-17.16-26.45h0Z" fill="#302c3b"></path><path class="cls-12" d="M210.58,8.42c6.15,0,21.25,10.93,27.14,21.34,7,12.38-7.59,13.23-11.09,3.42-7.34-20.82-20.4-24.75-16.04-24.75h0Z" fill="#302c3b"></path><path class="cls-12" d="M28.98,113.72c-5.46,2.3-18,13.57-21.93,17.07l5.89,22.19c4.7-3.5,21.25-15.88,27.91-19.8,8.11-4.86,3.42-25.94-11.86-19.46Z" fill="#302c3b"></path><path class="cls-12" d="M38.79,155.2c-4.95,2.13-16.13,11.95-20.99,16.47l5.63,21.34c5.46-3.75,20.82-14.51,27.22-18.35,8.11-4.86,3.42-25.94-11.86-19.46Z" fill="#302c3b"></path><path class="cls-12" d="M48.52,196.17c-4.78,2.05-15.02,10.93-20.14,15.53l5.54,21.08c4.86-3.24,19.97-13.23,26.45-17.16,8.11-4.95,3.32-25.94-11.86-19.46h0Z" fill="#302c3b"></path><path class="cls-12" d="M56.28,237.04c-5.12,2.13-13.99,10.58-17.58,13.99l5.63,21.25c4.7-3.24,17.49-12.03,23.81-15.88,8.11-4.78,3.42-25.86-11.86-19.38h0Z" fill="#302c3b"></path><path class="cls-12" d="M67.12,275.96c-5.38,2.3-14.94,11.01-18.18,13.99l5.63,21.34c4.27-2.9,17.84-12.03,24.41-15.96,8.11-4.86,3.42-25.86-11.86-19.38h0Z" fill="#302c3b"></path><path class="cls-12" d="M271.6,81.55s2.05-12.63-3.32-24.32c0,0-16.73-1.96-43.18-.43,2.48,8.79,4.78,17.49,7,25.94,23.9-1.79,39.51-1.2,39.51-1.2h0Z" fill="#302c3b"></path><path class="cls-12" d="M77.79,97.51c-20.22,10.84-13.4,36.52,8.28,24.58,42.75-23.55,91.91-33.54,128.86-37.72-2.3-8.45-4.86-17.16-7.43-26.12-35.42,3.75-82.35,13.91-129.72,39.25h0Z" fill="#302c3b"></path><path class="cls-12" d="M89.57,141.04c-20.22,10.84-16.04,36.01,5.72,24.07,43.52-24.07,93.71-33.96,130.82-37.97-2.05-8.28-4.18-16.9-6.57-25.77-34.99,3.75-81.92,13.91-129.97,39.68h0Z" fill="#302c3b"></path><path class="cls-12" d="M280.82,124.57s2.05-12.63-3.32-24.41c0,0-15.7-1.79-40.88-.34,2.3,8.79,4.44,17.41,6.4,25.69,22.87-1.53,37.81-.94,37.81-.94h0Z" fill="#302c3b"></path><path class="cls-12" d="M288.84,167.32s2.05-12.63-3.32-24.41c0,0-14.68-2.13-38.58-1.11,2.22,9.22,4.18,18,6.06,26.37,21.76-1.45,35.85-.85,35.85-.85h0Z" fill="#302c3b"></path><path class="cls-12" d="M100.75,181.74c-20.22,10.84-19.2,38.06,2.48,26.02,44.2-24.41,95.15-34.22,132.53-38.06-1.79-8.36-3.75-17.32-5.89-26.71-34.22,3.16-80.64,12.8-129.12,38.74h0Z" fill="#302c3b"></path><path class="cls-12" d="M296.86,208.79s2.05-12.63-3.32-24.41c0,0-14.08-1.45-36.95-.17,1.96,9.13,3.75,17.67,5.38,25.35,21.25-1.45,34.9-.77,34.9-.77h0Z" fill="#302c3b"></path><path class="cls-12" d="M107.06,226.29c-20.22,10.84-12.46,34.47,9.22,22.53,43.27-23.9,91.74-33.63,127.5-37.55-1.28-7.59-2.9-16.13-4.7-25.43-34.9,3.67-82.69,13.99-132.02,40.45h0Z" fill="#302c3b"></path><path class="cls-12" d="M118.84,263.07c-20.31,10.67-13.31,34.47,8.45,22.53,41.9-23.13,87.81-32,122.38-35.24-.59-5.03-1.62-13.05-3.32-23.72-35.33,3.67-82.86,12.97-127.5,36.44h0Z" fill="#302c3b"></path><path class="cls-12" d="M301.3,225s-14.08-1.02-36.18.17c2.13,10.67,3.67,18.77,4.52,23.81,21.34-.85,34.99.34,34.99.34,0,0,2.05-12.54-3.32-24.32h0Z" fill="#302c3b"></path></g></svg>