<svg xmlns="http://www.w3.org/2000/svg" style="" viewBox="0 0 352.28 512"><g class="nc-icon-wrapper"><defs><linearGradient id="1776867898103-9287325_a" x1="244.35" x2="264.07" y1="1393.56" y2="1373.85" gradientTransform="matrix(1 0 0 -1 0 1443.62)" gradientUnits="userSpaceOnUse"><stop offset="0" stop-color="#ffd13b"></stop><stop offset="1" stop-color="#d48600"></stop></linearGradient><linearGradient id="1776867898103-9287325_b" x1="226.67" x2="286.02" y1="1395.34" y2="1335.48" gradientTransform="matrix(1 0 0 -1 0 1443.62)" gradientUnits="userSpaceOnUse"><stop offset="0" stop-color="#ffd13b"></stop><stop offset="1" stop-color="#d48600"></stop></linearGradient><linearGradient id="1776867898103-9287325_c" x1="163.21" x2="189.07" y1="1430.7" y2="1404.83" gradientTransform="matrix(1 0 0 -1 0 1443.62)" gradientUnits="userSpaceOnUse"><stop offset="0" stop-color="#ffd13b"></stop><stop offset="1" stop-color="#d48600"></stop></linearGradient><linearGradient id="1776867898103-9287325_d" x1="85.36" x2="109.42" y1="1395.4" y2="1371.34" gradientTransform="matrix(1 0 0 -1 0 1443.62)" gradientUnits="userSpaceOnUse"><stop offset="0" stop-color="#ffd13b"></stop><stop offset="1" stop-color="#d48600"></stop></linearGradient><linearGradient id="1776867898103-9287325_e" x1="181.29" x2="206.12" y1="1406.78" y2="1382.47" gradientTransform="matrix(1 0 0 -1 0 1443.62)" gradientUnits="userSpaceOnUse"><stop offset="0" stop-color="#ffd13b"></stop><stop offset="1" stop-color="#d48600"></stop></linearGradient><linearGradient id="1776867898103-9287325_f" x1="142.59" x2="173.31" y1="1409.66" y2="1379.47" gradientTransform="matrix(1 0 0 -1 0 1443.62)" gradientUnits="userSpaceOnUse"><stop offset="0" stop-color="#ffd13b"></stop><stop offset="1" stop-color="#d48600"></stop></linearGradient><linearGradient id="1776867898103-9287325_g" x1="167.69" x2="184.33" y1="1398.31" y2="1381.66" gradientTransform="matrix(1 0 0 -1 0 1443.62)" gradientUnits="userSpaceOnUse"><stop offset="0" stop-color="#ffd13b"></stop><stop offset="1" stop-color="#d48600"></stop></linearGradient><linearGradient id="1776867898103-9287325_h" x1="125.98" x2="143.91" y1="1390.9" y2="1372.98" gradientTransform="matrix(1 0 0 -1 0 1443.62)" gradientUnits="userSpaceOnUse"><stop offset="0" stop-color="#ffd13b"></stop><stop offset="1" stop-color="#d48600"></stop></linearGradient><linearGradient id="1776867898103-9287325_i" x1="34.06" x2="60.17" y1="1349.15" y2="1323.04" gradientTransform="matrix(1 0 0 -1 0 1443.62)" gradientUnits="userSpaceOnUse"><stop offset="0" stop-color="#ffd13b"></stop><stop offset="1" stop-color="#d48600"></stop></linearGradient><linearGradient id="1776867898103-9287325_j" x1="74.79" x2="116.22" y1="1385.86" y2="1344.42" gradientTransform="matrix(1 0 0 -1 0 1443.62)" gradientUnits="userSpaceOnUse"><stop offset="0" stop-color="#ffd13b"></stop><stop offset="1" stop-color="#d48600"></stop></linearGradient><linearGradient id="1776867898103-9287325_k" x1="22.98" x2="42.44" y1="1325.79" y2="1306.33" gradientTransform="matrix(1 0 0 -1 0 1443.62)" gradientUnits="userSpaceOnUse"><stop offset="0" stop-color="#ffd13b"></stop><stop offset="1" stop-color="#d48600"></stop></linearGradient><linearGradient id="1776867898103-9287325_l" x1="41.64" x2="52.14" y1="1341.39" y2="1330.89" gradientTransform="matrix(1 0 0 -1 0 1443.62)" gradientUnits="userSpaceOnUse"><stop offset="0" stop-color="#ffd13b"></stop><stop offset="1" stop-color="#d48600"></stop></linearGradient><linearGradient id="1776867898103-9287325_m" x1="100.78" x2="111.02" y1="1367.75" y2="1357.51" gradientTransform="matrix(1 0 0 -1 0 1443.62)" gradientUnits="userSpaceOnUse"><stop offset="0" stop-color="#ffd13b"></stop><stop offset="1" stop-color="#d48600"></stop></linearGradient><linearGradient id="1776867898103-9287325_n" x1="143.25" x2="153.74" y1="1381.87" y2="1371.37" gradientTransform="matrix(1 0 0 -1 0 1443.62)" gradientUnits="userSpaceOnUse"><stop offset="0" stop-color="#ffd13b"></stop><stop offset="1" stop-color="#d48600"></stop></linearGradient><linearGradient id="1776867898103-9287325_o" x1="208.29" x2="226.46" y1="1390.78" y2="1373.12" gradientTransform="matrix(1 0 0 -1 0 1443.62)" gradientUnits="userSpaceOnUse"><stop offset="0" stop-color="#ffd13b"></stop><stop offset="1" stop-color="#d48600"></stop></linearGradient><linearGradient id="1776867898103-9287325_p" x1="294.19" x2="315.43" y1="1346.18" y2="1325.45" gradientTransform="matrix(1 0 0 -1 0 1443.62)" gradientUnits="userSpaceOnUse"><stop offset="0" stop-color="#ffd13b"></stop><stop offset="1" stop-color="#d48600"></stop></linearGradient><linearGradient id="1776867898103-9287325_q" x1="308.05" x2="330.32" y1="1327.28" y2="1305" gradientTransform="matrix(1 0 0 -1 0 1443.62)" gradientUnits="userSpaceOnUse"><stop offset="0" stop-color="#ffd13b"></stop><stop offset="1" stop-color="#d48600"></stop></linearGradient><linearGradient id="1776867898103-9287325_r" x1="300.2" x2="310.7" y1="1341.39" y2="1330.89" gradientTransform="matrix(1 0 0 -1 0 1443.62)" gradientUnits="userSpaceOnUse"><stop offset="0" stop-color="#ffd13b"></stop><stop offset="1" stop-color="#d48600"></stop></linearGradient><linearGradient id="1776867898103-9287325_s" x1="241.26" x2="251.5" y1="1367.95" y2="1357.7" gradientTransform="matrix(1 0 0 -1 0 1443.62)" gradientUnits="userSpaceOnUse"><stop offset="0" stop-color="#ffd13b"></stop><stop offset="1" stop-color="#d48600"></stop></linearGradient><linearGradient id="1776867898103-9287325_t" x1="198.58" x2="209.08" y1="1381.86" y2="1371.37" gradientTransform="matrix(1 0 0 -1 0 1443.62)" gradientUnits="userSpaceOnUse"><stop offset="0" stop-color="#ffd13b"></stop><stop offset="1" stop-color="#d48600"></stop></linearGradient><linearGradient id="1776867898103-9287325_u" x1="320.71" x2="341.44" y1="1299.42" y2="1278.69" gradientTransform="matrix(1 0 0 -1 0 1443.62)" gradientUnits="userSpaceOnUse"><stop offset="0" stop-color="#ffd13b"></stop><stop offset="1" stop-color="#d48600"></stop></linearGradient><linearGradient id="1776867898103-9287325_v" x1="9.57" x2="31.33" y1="1299.61" y2="1278.37" gradientTransform="matrix(1 0 0 -1 0 1443.62)" gradientUnits="userSpaceOnUse"><stop offset="0" stop-color="#ffd13b"></stop><stop offset="1" stop-color="#d48600"></stop></linearGradient><linearGradient id="1776867898103-9287325_w" x1="87.65" x2="107.36" y1="1000.87" y2="981.16" gradientTransform="matrix(1 0 0 -1 0 1443.62)" gradientUnits="userSpaceOnUse"><stop offset="0" stop-color="#ffd13b"></stop><stop offset="1" stop-color="#d48600"></stop></linearGradient><linearGradient id="1776867898103-9287325_x" x1="66.19" x2="125.84" y1="1039.78" y2="980.13" gradientTransform="matrix(1 0 0 -1 0 1443.62)" gradientUnits="userSpaceOnUse"><stop offset="0" stop-color="#ffd13b"></stop><stop offset="1" stop-color="#d48600"></stop></linearGradient><linearGradient id="1776867898103-9287325_y" x1="163.21" x2="189.07" y1="970.4" y2="944.55" gradientTransform="matrix(1 0 0 -1 0 1443.62)" gradientUnits="userSpaceOnUse"><stop offset="0" stop-color="#ffd13b"></stop><stop offset="1" stop-color="#d48600"></stop></linearGradient><linearGradient id="1776867898103-9287325_z" x1="240.31" x2="264.37" y1="1003.39" y2="979.33" gradientTransform="matrix(1 0 0 -1 0 1443.62)" gradientUnits="userSpaceOnUse"><stop offset="0" stop-color="#ffd13b"></stop><stop offset="1" stop-color="#d48600"></stop></linearGradient><linearGradient id="1776867898103-9287325_A" x1="145.73" x2="170.3" y1="992.39" y2="967.81" gradientTransform="matrix(1 0 0 -1 0 1443.62)" gradientUnits="userSpaceOnUse"><stop offset="0" stop-color="#ffd13b"></stop><stop offset="1" stop-color="#d48600"></stop></linearGradient><linearGradient id="1776867898103-9287325_B" x1="176.5" x2="206.94" y1="995.4" y2="964.93" gradientTransform="matrix(1 0 0 -1 0 1443.62)" gradientUnits="userSpaceOnUse"><stop offset="0" stop-color="#ffd13b"></stop><stop offset="1" stop-color="#d48600"></stop></linearGradient><linearGradient id="1776867898103-9287325_C" x1="167.37" x2="184.01" y1="993.05" y2="976.42" gradientTransform="matrix(1 0 0 -1 0 1443.62)" gradientUnits="userSpaceOnUse"><stop offset="0" stop-color="#ffd13b"></stop><stop offset="1" stop-color="#d48600"></stop></linearGradient><linearGradient id="1776867898103-9287325_D" x1="207.82" x2="225.74" y1="1001.75" y2="983.83" gradientTransform="matrix(1 0 0 -1 0 1443.62)" gradientUnits="userSpaceOnUse"><stop offset="0" stop-color="#ffd13b"></stop><stop offset="1" stop-color="#d48600"></stop></linearGradient><linearGradient id="1776867898103-9287325_E" x1="291.44" x2="317.81" y1="1051.57" y2="1025.72" gradientTransform="matrix(1 0 0 -1 0 1443.62)" gradientUnits="userSpaceOnUse"><stop offset="0" stop-color="#ffd13b"></stop><stop offset="1" stop-color="#d48600"></stop></linearGradient><linearGradient id="1776867898103-9287325_F" x1="234.75" x2="276.22" y1="1030.71" y2="989.24" gradientTransform="matrix(1 0 0 -1 0 1443.62)" gradientUnits="userSpaceOnUse"><stop offset="0" stop-color="#ffd13b"></stop><stop offset="1" stop-color="#d48600"></stop></linearGradient><linearGradient id="1776867898103-9287325_G" x1="309.28" x2="328.73" y1="1068.37" y2="1048.92" gradientTransform="matrix(1 0 0 -1 0 1443.62)" gradientUnits="userSpaceOnUse"><stop offset="0" stop-color="#ffd13b"></stop><stop offset="1" stop-color="#d48600"></stop></linearGradient><linearGradient id="1776867898103-9287325_H" x1="300.19" x2="310.69" y1="1044.41" y2="1033.92" gradientTransform="matrix(1 0 0 -1 0 1443.62)" gradientUnits="userSpaceOnUse"><stop offset="0" stop-color="#ffd13b"></stop><stop offset="1" stop-color="#d48600"></stop></linearGradient><linearGradient id="1776867898103-9287325_I" x1="241.26" x2="251.5" y1="1017.73" y2="1007.49" gradientTransform="matrix(1 0 0 -1 0 1443.62)" gradientUnits="userSpaceOnUse"><stop offset="0" stop-color="#ffd13b"></stop><stop offset="1" stop-color="#d48600"></stop></linearGradient><linearGradient id="1776867898103-9287325_J" x1="198.58" x2="209.07" y1="1003.94" y2="993.44" gradientTransform="matrix(1 0 0 -1 0 1443.62)" gradientUnits="userSpaceOnUse"><stop offset="0" stop-color="#ffd13b"></stop><stop offset="1" stop-color="#d48600"></stop></linearGradient><linearGradient id="1776867898103-9287325_K" x1="125.25" x2="143.43" y1="1001.6" y2="983.95" gradientTransform="matrix(1 0 0 -1 0 1443.62)" gradientUnits="userSpaceOnUse"><stop offset="0" stop-color="#ffd13b"></stop><stop offset="1" stop-color="#d48600"></stop></linearGradient><linearGradient id="1776867898103-9287325_L" x1="34.29" x2="55.55" y1="1049.28" y2="1028.55" gradientTransform="matrix(1 0 0 -1 0 1443.62)" gradientUnits="userSpaceOnUse"><stop offset="0" stop-color="#ffd13b"></stop><stop offset="1" stop-color="#d48600"></stop></linearGradient><linearGradient id="1776867898103-9287325_M" x1="19.41" x2="41.68" y1="1069.71" y2="1047.44" gradientTransform="matrix(1 0 0 -1 0 1443.62)" gradientUnits="userSpaceOnUse"><stop offset="0" stop-color="#ffd13b"></stop><stop offset="1" stop-color="#d48600"></stop></linearGradient><linearGradient id="1776867898103-9287325_N" x1="41.63" x2="52.13" y1="1044.42" y2="1033.92" gradientTransform="matrix(1 0 0 -1 0 1443.62)" gradientUnits="userSpaceOnUse"><stop offset="0" stop-color="#ffd13b"></stop><stop offset="1" stop-color="#d48600"></stop></linearGradient><linearGradient id="1776867898103-9287325_O" x1="100.78" x2="111.01" y1="1017.53" y2="1007.29" gradientTransform="matrix(1 0 0 -1 0 1443.62)" gradientUnits="userSpaceOnUse"><stop offset="0" stop-color="#ffd13b"></stop><stop offset="1" stop-color="#d48600"></stop></linearGradient><linearGradient id="1776867898103-9287325_P" x1="143.24" x2="153.74" y1="1003.94" y2="993.44" gradientTransform="matrix(1 0 0 -1 0 1443.62)" gradientUnits="userSpaceOnUse"><stop offset="0" stop-color="#ffd13b"></stop><stop offset="1" stop-color="#d48600"></stop></linearGradient><linearGradient id="1776867898103-9287325_Q" x1="10.35" x2="30.83" y1="1096.12" y2="1075.13" gradientTransform="matrix(1 0 0 -1 0 1443.62)" gradientUnits="userSpaceOnUse"><stop offset="0" stop-color="#ffd13b"></stop><stop offset="1" stop-color="#d48600"></stop></linearGradient><linearGradient id="1776867898103-9287325_R" x1="318.54" x2="340.04" y1="1096.47" y2="1074.96" gradientTransform="matrix(1 0 0 -1 0 1443.62)" gradientUnits="userSpaceOnUse"><stop offset="0" stop-color="#ffd13b"></stop><stop offset="1" stop-color="#d48600"></stop></linearGradient><linearGradient id="1776867898103-9287325_S" x1="47.53" x2="304.3" y1="1316.48" y2="1059.21" gradientTransform="matrix(1 0 0 -1 0 1443.62)" gradientUnits="userSpaceOnUse"><stop offset="0" stop-color="#ffd13b"></stop><stop offset="1" stop-color="#d48600"></stop></linearGradient><linearGradient id="1776867898103-9287325_T" x1="176.14" x2="176.14" y1="1008.93" y2="1366.31" gradientTransform="matrix(1 0 0 -1 0 1443.62)" gradientUnits="userSpaceOnUse"><stop offset="0" stop-color="#d48600"></stop><stop offset="1" stop-color="#ffd13b"></stop></linearGradient><linearGradient id="1776867898103-9287325_U" x1="176.14" x2="176.14" y1="1028.89" y2="1346.35" gradientTransform="matrix(1 0 0 -1 0 1443.62)" gradientUnits="userSpaceOnUse"><stop offset="0" stop-color="#ffd13b"></stop><stop offset="1" stop-color="#d48600"></stop></linearGradient></defs><path d="M252.93 69.63c8.19-2.73 12.12-6.14 11.78-10.24s-1.89-6.65-4.61-7.68c-4.78-2.39-8.62-1.8-11.52 1.8-2.9 3.58-2.64 6.4.77 8.45 2.39 1.36 4.01 1.45 4.86.25s1.11-2.48.76-3.84c-.34-.34-.34-.77 0-1.28.34-.52.85-.43 1.53.25 1.71 1.71 1.8 4.01.25 6.91-1.53 2.9-4.69 3.5-9.47 1.8-5.12-1.71-7.17-4.77-6.14-9.22 1.03-4.44 3.76-8.02 8.19-10.75s9.22-2.73 14.33 0c6.14 3.41 8.45 8.45 6.91 15.1q-2.295 9.99-17.67 11.52c-6.49.34-9.81.43-9.98.25-.17-.17 1.03-.6 3.58-1.28s4.69-1.36 6.4-2.05" fill="url(#1776867898103-9287325_a)"></path><path d="M275.98 74.75c-6.83-.68-12.89-.25-18.18 1.28s-10.5 2.9-15.61 4.09q-7.695 1.8-16.38 0c-5.81-1.2-12.46-4.86-19.97-11.01 11.61 4.09 20.99 5.63 28.16 4.61s13.91-2.39 20.23-4.09c6.31-1.71 14.08-2.05 23.3-1.03 11.95 1.37 19.11 5.81 21.51 13.31 2.39 7.51.34 13.99-6.14 19.46-4.1 3.08-8.36 4.18-12.8 3.33s-8.28-2.81-11.52-5.89c-3.25-3.08-4.95-6.4-5.13-9.98-.17-3.58 1.97-6.4 6.4-8.45 5.46-2.73 9.3-2.56 11.52.52s2.48 5.81.77 8.19c-.68.68-1.28.76-1.8.25-.52-.52-.6-.94-.25-1.28.34-1.71-.08-3.16-1.28-4.35s-3.16-.76-5.89 1.28q-3.585 2.565-1.8 6.66c1.2 2.73 3.41 4.69 6.66 5.89 3.24 1.2 6.57.43 9.98-2.3 2.05-1.37 3.5-3.5 4.35-6.4s.08-5.72-2.3-8.45-7-4.61-13.83-5.63" fill="url(#1776867898103-9287325_b)"></path><path d="M176.14 0c6.49 7.85 9.38 15.7 8.7 23.55s-2.3 14.51-4.86 19.97l-3.84 8.19-3.84-8.19c-2.57-5.46-4.18-12.12-4.86-19.97s2.21-15.7 8.7-23.55" fill="url(#1776867898103-9287325_c)"></path><path d="M98.76 69.63c1.71.68 3.84 1.36 6.4 2.05 2.56.68 3.76 1.11 3.58 1.28s-3.5.08-9.98-.25c-10.24-1.03-16.13-4.86-17.66-11.52-1.53-6.65.76-11.69 6.91-15.1 5.13-2.73 9.9-2.73 14.33 0 4.44 2.73 7.17 6.31 8.19 10.75 1.03 4.44-1.03 7.51-6.14 9.22-4.77 1.71-7.94 1.11-9.47-1.8-1.53-2.9-1.45-5.21.25-6.91.68-.68 1.2-.76 1.53-.25.34.52.34.94 0 1.28-.34 1.36-.08 2.65.76 3.84.85 1.2 2.48 1.11 4.86-.25 3.41-2.05 3.67-4.86.76-8.45q-4.35-5.37-11.52-1.8c-2.73 1.03-4.27 3.58-4.61 7.68s3.58 7.51 11.78 10.24" fill="url(#1776867898103-9287325_d)"></path><path d="M199.69 64c.34 3.41-.94 5.72-3.84 6.91-2.9 1.2-6.14 1.03-9.73-.52-3.58-1.53-6.31-4.35-8.19-8.45s-1.62-9.73.76-16.9c2.39-8.19 6.14-13.4 11.27-15.62 5.12-2.22 9.73-2.22 13.82 0 4.1 2.22 6.23 5.72 6.4 10.5.17 4.77-3.33 9.73-10.5 14.85 4.44-6.49 5.63-11.18 3.58-14.08s-5.04-3.84-8.96-2.81-6.74 4.27-8.45 9.73c-2.39 7.17-1.53 12.89 2.57 17.15s7.85 4.01 11.26-.77" fill="url(#1776867898103-9287325_e)"></path><path d="M152 64c3.41 4.77 7.17 5.04 11.27.77 4.09-4.27 4.95-9.98 2.56-17.15-1.71-5.46-4.53-8.7-8.45-9.73-3.93-1.03-6.91-.08-8.96 2.81-2.05 2.9-.85 7.6 3.58 14.08-7.17-5.13-10.67-10.07-10.5-14.85.17-4.77 2.3-8.28 6.4-10.5q6.135-3.33 13.83 0c7.695 3.33 8.88 7.42 11.26 15.62 2.39 7.17 2.65 12.8.76 16.9-1.88 4.09-4.61 6.91-8.19 8.45-3.58 1.53-6.83 1.71-9.73.52s-4.18-3.5-3.85-6.91" fill="url(#1776867898103-9287325_f)"></path><path d="M186.38 59.39H165.9c-2.05 0-3.08-1.88-3.08-5.63s1.03-5.63 3.08-5.63h20.48c2.05 0 3.08 1.88 3.08 5.63s-1.03 5.63-3.08 5.63" fill="url(#1776867898103-9287325_g)"></path><path d="M148.5 65.02c-3.76 6.49-7.94 9.64-12.55 9.47s-8.28-2.05-11.01-5.63c-2.72-3.58-3.41-7.6-2.04-12.03 1.36-4.44 6.14-7.85 14.33-10.24q-7.68 5.64-7.17 12.03c.34 4.27 2.39 7.25 6.14 8.96s7.85.85 12.29-2.56" fill="url(#1776867898103-9287325_h)"></path><path d="M30.22 107.52c-1.03-4.09-.6-7.42 1.28-9.98s4.18-4.35 6.91-5.37c7.86-2.05 13.66-1.03 17.41 3.08s5.63 8.96 5.63 14.59-1.53 10.24-4.61 13.83-7.68 3.84-13.83.76c5.46-.34 8.96-2.65 10.5-6.91 1.53-4.27 1.2-8.45-1.03-12.55q-3.33-6.135-13.05-6.66c-4.78 0-7.86 3.08-9.22 9.22" fill="url(#1776867898103-9287325_i)"></path><path d="M75.72 74.75c-6.83 1.03-11.43 2.9-13.83 5.63-2.39 2.73-3.16 5.55-2.3 8.45s2.3 5.04 4.35 6.4c3.41 2.73 6.74 3.5 9.98 2.3s5.46-3.16 6.65-5.89q1.8-4.095-1.8-6.66c-2.73-2.05-4.69-2.48-5.89-1.28s-1.62 2.65-1.28 4.35c.34.34.25.77-.25 1.28s-1.11.43-1.8-.25c-1.71-2.39-1.45-5.13.77-8.19 2.22-3.08 6.06-3.24 11.52-.52 4.44 2.05 6.57 4.86 6.4 8.45-.17 3.58-1.88 6.91-5.12 9.98s-7.09 5.04-11.52 5.89c-4.44.85-8.7-.25-12.8-3.33-6.49-5.46-8.54-11.95-6.14-19.46s9.56-11.95 21.51-13.31c9.22-1.03 16.98-.68 23.3 1.03s13.05 3.08 20.22 4.09 16.55-.52 28.16-4.61c-7.51 6.14-14.17 9.82-19.97 11.01q-8.715 1.8-16.38 0a315 315 0 0 1-15.62-4.09c-5.29-1.53-11.35-1.96-18.18-1.28" fill="url(#1776867898103-9287325_j)"></path><path d="M43.53 131.59c1.36-1.37 2.99-2.99 4.86-4.86s2.99-2.73 3.33-2.56-1.53 2.99-5.63 8.45c-5.8 8.54-11.94 11.78-18.43 9.73s-9.73-6.66-9.73-13.83c0-5.81 2.39-9.9 7.17-12.29s9.31-2.9 13.57-1.53c4.27 1.36 5.89 4.78 4.86 10.24-1.03 4.77-3.16 7.09-6.4 6.91-3.24-.17-5.2-1.45-5.89-3.84 0-.68.25-1.03.77-1.03s.94.17 1.28.52c.68 1.03 1.8 1.45 3.33 1.28s2.3-1.62 2.3-4.35c0-3.76-2.39-5.37-7.17-4.86-4.78.52-7.17 3.5-7.17 8.96-.34 3.08 1.2 5.72 4.61 7.94s8.19.6 14.33-4.86" fill="url(#1776867898103-9287325_k)"></path><path d="M47.12 114.17c-5.13 0-7.68-2.22-7.68-6.65s2.56-6.66 7.68-6.66c4.77 0 7.17 2.22 7.17 6.66s-2.39 6.65-7.17 6.65" fill="url(#1776867898103-9287325_l)"></path><path d="M106 87.55q-7.68 0-7.68-6.66c0-6.66 2.57-6.65 7.68-6.65 4.78 0 7.17 2.22 7.17 6.65s-2.39 6.66-7.17 6.66" fill="url(#1776867898103-9287325_m)"></path><path d="M148.73 73.69c-5.12 0-7.68-2.22-7.68-6.65s2.56-6.65 7.68-6.65c4.78 0 7.17 2.22 7.17 6.65s-2.39 6.65-7.17 6.65" fill="url(#1776867898103-9287325_n)"></path><path d="M203.78 65.02c4.44 3.41 8.54 4.27 12.29 2.56 3.76-1.71 5.81-4.69 6.14-8.96q.51-6.405-7.17-12.03c8.19 2.39 12.97 5.81 14.33 10.24 1.37 4.44.68 8.45-2.04 12.03-2.73 3.58-6.4 5.46-11.01 5.63s-8.79-2.99-12.55-9.47" fill="url(#1776867898103-9287325_o)"></path><path d="M321.48 107.52c-1.37-6.14-4.44-9.22-9.22-9.22q-9.735.51-13.05 6.66c-2.22 4.09-2.56 8.28-1.03 12.55s5.04 6.57 10.5 6.91c-6.14 3.08-10.75 2.81-13.83-.76-3.08-3.58-4.61-8.19-4.61-13.83s1.88-10.5 5.63-14.59 9.56-5.13 17.41-3.08c2.73 1.03 5.04 2.81 6.91 5.37s2.3 5.89 1.28 9.98" fill="url(#1776867898103-9287325_p)"></path><path d="M308.17 131.59c6.14 5.46 10.92 7.09 14.33 4.86 3.41-2.22 4.95-4.86 4.61-7.94 0-5.46-2.39-8.45-7.17-8.96s-7.17 1.11-7.17 4.86c0 2.73.77 4.18 2.3 4.35s2.65-.25 3.33-1.28c.34-.34.77-.52 1.28-.52s.76.34.76 1.03c-.68 2.39-2.64 3.67-5.89 3.84-3.24.17-5.37-2.13-6.4-6.91-1.03-5.46.6-8.88 4.86-10.24s8.79-.85 13.57 1.53c4.77 2.39 7.17 6.49 7.17 12.29 0 7.17-3.24 11.78-9.73 13.83s-12.63-1.2-18.43-9.73c-4.09-5.46-5.97-8.28-5.63-8.45s1.45.68 3.33 2.56l4.86 4.86" fill="url(#1776867898103-9287325_q)"></path><path d="M305.68 114.17c-5.13 0-7.68-2.22-7.68-6.65s2.56-6.66 7.68-6.66q7.17 0 7.17 6.66c0 6.66-2.39 6.65-7.17 6.65" fill="url(#1776867898103-9287325_r)"></path><path d="M246.28 87.55q-7.17 0-7.17-6.66c0-6.66 2.39-6.65 7.17-6.65 5.12 0 7.68 2.22 7.68 6.65s-2.57 6.66-7.68 6.66" fill="url(#1776867898103-9287325_s)"></path><path d="M204.06 73.69c-5.12 0-7.68-2.22-7.68-6.65s2.57-6.65 7.68-6.65c4.78 0 7.17 2.22 7.17 6.65s-2.39 6.65-7.17 6.65" fill="url(#1776867898103-9287325_t)"></path><path d="M324.62 163.33c.69 1.71 1.53 3.84 2.57 6.4 1.03 2.56 1.44 3.84 1.28 3.84s-2.13-2.73-5.89-8.19c-5.46-8.54-6.14-15.45-2.05-20.74s9.56-6.74 16.38-4.35c5.13 2.39 7.94 6.14 8.45 11.26.52 5.13-.6 9.47-3.32 13.05-2.73 3.58-6.49 3.84-11.27.76-4.09-2.73-5.46-5.55-4.09-8.45 1.36-2.9 3.24-4.18 5.63-3.84.68.34.94.76.77 1.28s-.43.76-.77.76c-1.36.34-2.22 1.2-2.56 2.56s.68 2.56 3.08 3.58c3.76 1.36 6.23-.17 7.42-4.61 1.2-4.44-.77-7.85-5.89-10.24-2.73-1.36-5.81-.94-9.22 1.28s-3.58 7.42-.52 15.62" fill="url(#1776867898103-9287325_u)"></path><path d="M27.08 163.33c3.08-8.19 2.9-13.4-.52-15.62-3.41-2.22-6.49-2.65-9.22-1.28-5.13 2.39-7.09 5.81-5.89 10.24s3.67 5.97 7.42 4.61c2.39-1.03 3.41-2.22 3.08-3.58-.34-1.36-1.2-2.22-2.56-2.56-.34 0-.6-.25-.76-.76-.17-.52.08-.94.76-1.28 2.39-.34 4.27.94 5.63 3.84s0 5.72-4.09 8.45c-4.77 3.08-8.54 2.81-11.26-.76-2.73-3.58-3.84-7.94-3.33-13.05.52-5.13 3.33-8.88 8.45-11.26q10.245-3.585 16.38 4.35c4.09 5.29 3.41 12.2-2.05 20.74-3.76 5.46-5.72 8.19-5.89 8.19s.25-1.28 1.28-3.84 1.88-4.69 2.56-6.4" fill="url(#1776867898103-9287325_v)"></path><path d="M98.77 442.89c-8.19 2.73-12.12 6.14-11.78 10.24.34 4.09 1.88 6.65 4.61 7.68 4.78 2.39 8.62 1.8 11.52-1.8 2.9-3.58 2.64-6.4-.76-8.45-2.39-1.37-4.01-1.45-4.86-.25s-1.11 2.48-.76 3.84c.34.34.34.77 0 1.28-.34.52-.85.43-1.53-.25-1.71-1.71-1.8-4.01-.25-6.91 1.53-2.9 4.69-3.5 9.47-1.8 5.13 1.71 7.17 4.78 6.14 9.22s-3.76 8.02-8.19 10.75c-4.44 2.73-9.22 2.73-14.33 0-6.14-3.41-8.45-8.45-6.91-15.1 1.53-6.65 7.42-10.5 17.66-11.52 6.49-.34 9.82-.43 9.98-.25s-1.03.6-3.58 1.28-4.69 1.37-6.4 2.05" fill="url(#1776867898103-9287325_w)"></path><path d="M76.3 437.25c6.83.68 12.89.25 18.18-1.28s10.5-2.9 15.61-4.09q7.695-1.8 16.38 0c5.81 1.2 12.63 4.86 20.48 11.01-11.95-4.09-21.51-5.63-28.68-4.61s-13.91 2.39-20.23 4.09c-6.31 1.71-14.08 2.05-23.3 1.03-11.95-1.36-19.11-5.81-21.5-13.31s-.34-13.99 6.14-19.46c4.1-3.08 8.36-4.18 12.8-3.33s8.28 2.81 11.52 5.89c3.25 3.08 4.95 6.4 5.13 9.98.17 3.58-1.97 6.4-6.4 8.45-5.46 2.73-9.3 2.56-11.52-.52s-2.48-5.81-.77-8.19c.68-.68 1.28-.76 1.8-.25.52.52.6.94.25 1.28-.34 1.71.08 3.16 1.28 4.35 1.2 1.2 3.16.76 5.89-1.28q3.585-2.565 1.8-6.66c-1.785-4.095-3.41-4.69-6.66-5.89-3.24-1.2-6.57-.43-9.98 2.3-2.05 1.36-3.5 3.5-4.35 6.4s-.08 5.72 2.3 8.45c2.39 2.73 7 4.61 13.83 5.63" fill="url(#1776867898103-9287325_x)"></path><path d="M176.14 512c-6.49-7.85-9.38-15.7-8.7-23.55s2.3-14.51 4.86-19.97l3.84-8.19 3.84 8.19c2.57 5.46 4.18 12.12 4.86 19.97.68 7.86-2.22 15.7-8.7 23.55" fill="url(#1776867898103-9287325_y)"></path><path d="M250.96 442.89c-1.71-.68-3.84-1.37-6.4-2.05-2.57-.68-3.76-1.11-3.58-1.28s3.5-.08 9.98.25c10.24 1.03 16.13 4.86 17.67 11.52 1.53 6.66-.77 11.69-6.91 15.1-5.12 2.73-9.9 2.73-14.33 0s-7.17-6.31-8.19-10.75c-1.03-4.44 1.03-7.51 6.14-9.22 4.78-1.71 7.94-1.11 9.47 1.8 1.53 2.9 1.45 5.21-.25 6.91-.68.68-1.2.76-1.53.25-.34-.51-.34-.94 0-1.28.34-1.36.08-2.64-.76-3.84-.85-1.2-2.48-1.11-4.86.25-3.41 2.04-3.67 4.86-.77 8.45q4.35 5.37 11.52 1.8c2.72-1.03 4.27-3.58 4.61-7.68.34-4.09-3.58-7.51-11.78-10.24" fill="url(#1776867898103-9287325_z)"></path><path d="M152.02 448.52c-.34-3.41.94-5.72 3.85-6.91 2.9-1.2 6.14-1.03 9.73.51 3.58 1.53 6.31 4.35 8.19 8.45 1.88 4.09 1.62 9.73-.76 16.89-2.39 8.19-6.14 13.4-11.26 15.62-5.13 2.22-9.73 2.22-13.83 0-4.09-2.22-6.23-5.72-6.4-10.5s3.33-9.73 10.5-14.85c-4.44 6.49-5.63 11.18-3.58 14.08s5.04 3.85 8.96 2.81c3.93-1.03 6.74-4.27 8.45-9.73 2.39-7.17 1.53-12.89-2.56-17.15-4.09-4.27-7.85-4-11.27.77" fill="url(#1776867898103-9287325_A)"></path><path d="M197.72 448.52c-3.41-4.77-7.17-5.04-11.26-.77s-4.95 9.99-2.57 17.15c1.71 5.46 4.53 8.7 8.45 9.73 3.93 1.03 6.91.09 8.96-2.81 2.04-2.9.85-7.59-3.58-14.08q10.755 7.68 10.5 14.85c-.17 4.77-2.3 8.28-6.4 10.5-4.09 2.22-8.7 2.22-13.82 0-5.13-2.22-8.88-7.42-11.27-15.62-2.39-7.17-2.64-12.8-.76-16.89 1.88-4.1 4.61-6.91 8.19-8.45 3.58-1.53 6.83-1.71 9.73-.51 2.9 1.19 4.18 3.5 3.84 6.91" fill="url(#1776867898103-9287325_B)"></path><path d="M165.33 453.13h20.48c2.05 0 3.08 1.88 3.08 5.63s-1.03 5.63-3.08 5.63h-20.48c-2.05 0-3.08-1.88-3.08-5.63s1.03-5.63 3.08-5.63" fill="url(#1776867898103-9287325_C)"></path><path d="M203.22 447.49c3.76-6.49 7.94-9.65 12.54-9.47 4.61.17 8.28 2.05 11.01 5.63s3.41 7.6 2.05 12.03c-1.36 4.44-6.14 7.86-14.33 10.24 5.13-3.76 7.51-7.77 7.17-12.03-.34-4.27-2.39-7.25-6.14-8.96-3.76-1.71-7.85-.85-12.29 2.57" fill="url(#1776867898103-9287325_D)"></path><path d="M321.49 404.99c1.03 4.09.6 7.42-1.28 9.98-1.88 2.57-4.18 4.36-6.91 5.38-7.85 2.05-13.65 1.03-17.41-3.08-3.76-4.09-5.63-8.96-5.63-14.59s1.53-10.24 4.61-13.83c3.08-3.58 7.68-3.84 13.83-.76-5.46.34-8.96 2.64-10.5 6.91s-1.2 8.45 1.03 12.54q3.33 6.15 13.05 6.66c4.77 0 7.85-3.08 9.22-9.22" fill="url(#1776867898103-9287325_E)"></path><path d="M275.4 437.25c6.83-1.03 11.43-2.9 13.83-5.63 2.39-2.73 3.16-5.55 2.3-8.45-.85-2.9-2.3-5.04-4.35-6.4-3.41-2.73-6.74-3.5-9.98-2.3s-5.46 3.16-6.66 5.89-.6 4.95 1.8 6.66c2.73 2.05 4.69 2.48 5.89 1.28s1.62-2.65 1.28-4.35c-.34-.34-.25-.76.25-1.28s1.11-.43 1.8.25c1.71 2.39 1.45 5.13-.76 8.19-2.22 3.08-6.06 3.24-11.52.52-4.44-2.05-6.57-4.86-6.4-8.45s1.88-6.91 5.13-9.98 7.09-5.04 11.52-5.89c4.44-.85 8.7.25 12.8 3.33 6.49 5.46 8.54 11.95 6.14 19.46-2.39 7.51-9.56 11.95-21.51 13.31-9.22 1.03-16.98.68-23.3-1.03-6.31-1.71-13.05-3.08-20.22-4.09-7.17-1.03-16.73.52-28.68 4.61 7.85-6.14 14.68-9.82 20.48-11.01 5.81-1.2 11.26-1.2 16.38 0s10.32 2.56 15.62 4.09c5.29 1.53 11.35 1.96 18.18 1.28" fill="url(#1776867898103-9287325_F)"></path><path d="M308.18 380.93c-1.36 1.37-2.99 2.99-4.86 4.86s-2.99 2.73-3.33 2.56 1.53-2.99 5.63-8.45c5.81-8.54 11.95-11.78 18.43-9.73 6.49 2.04 9.73 6.65 9.73 13.82 0 5.81-2.39 9.9-7.17 12.29s-9.3 2.9-13.57 1.53c-4.27-1.36-5.89-4.77-4.86-10.24 1.03-4.78 3.16-7.09 6.4-6.91 3.24.17 5.21 1.44 5.89 3.84 0 .68-.25 1.03-.76 1.03s-.94-.17-1.28-.51c-.68-1.03-1.8-1.45-3.33-1.29-1.53.17-2.3 1.62-2.3 4.36 0 3.76 2.39 5.37 7.17 4.86 4.77-.51 7.17-3.5 7.17-8.96.34-3.08-1.2-5.72-4.61-7.93-3.41-2.22-8.19-.6-14.33 4.86" fill="url(#1776867898103-9287325_G)"></path><path d="M305.68 397.83q7.17 0 7.17 6.66c0 6.66-2.39 6.66-7.17 6.66-5.13 0-7.68-2.22-7.68-6.66s2.56-6.66 7.68-6.66" fill="url(#1776867898103-9287325_H)"></path><path d="M246.28 424.45q7.68 0 7.68 6.66c0 6.66-2.57 6.66-7.68 6.66q-7.17 0-7.17-6.66c0-6.66 2.39-6.66 7.17-6.66" fill="url(#1776867898103-9287325_I)"></path><path d="M204.06 438.31q7.17 0 7.17 6.66c0 6.66-2.39 6.66-7.17 6.66q-7.68 0-7.68-6.66c0-6.66 2.57-6.66 7.68-6.66" fill="url(#1776867898103-9287325_J)"></path><path d="M147.92 447.49c-4.44-3.41-8.54-4.27-12.29-2.57-3.76 1.71-5.81 4.7-6.14 8.96q-.51 6.405 7.17 12.03c-8.19-2.39-12.97-5.8-14.33-10.24s-.68-8.45 2.05-12.03 6.4-5.46 11.01-5.63 8.79 2.99 12.55 9.47" fill="url(#1776867898103-9287325_K)"></path><path d="M28.25 404.99c1.36 6.14 4.44 9.22 9.22 9.22q9.735-.51 13.05-6.66c2.22-4.09 2.56-8.28 1.03-12.54-1.53-4.27-5.04-6.57-10.5-6.91 6.14-3.08 10.75-2.82 13.83.76s4.61 8.19 4.61 13.83-1.88 10.5-5.63 14.59-9.56 5.13-17.41 3.08c-2.72-1.03-5.04-2.81-6.91-5.38-1.88-2.56-2.3-5.89-1.28-9.98" fill="url(#1776867898103-9287325_L)"></path><path d="M41.55 380.93c-6.14-5.46-10.92-7.09-14.33-4.86-3.41 2.22-4.95 4.86-4.61 7.93 0 5.46 2.39 8.45 7.17 8.96 4.77.52 7.17-1.11 7.17-4.86 0-2.73-.76-4.18-2.3-4.36-1.53-.17-2.65.25-3.33 1.29-.34.34-.77.51-1.28.51s-.77-.34-.77-1.03c.69-2.39 2.65-3.67 5.89-3.84 3.25-.17 5.38 2.13 6.4 6.91 1.03 5.46-.6 8.88-4.86 10.24s-8.79.85-13.57-1.53c-4.77-2.39-7.17-6.49-7.17-12.29 0-7.17 3.25-11.78 9.73-13.82 6.49-2.05 12.63 1.19 18.43 9.73 4.1 5.46 5.98 8.28 5.63 8.45s-1.45-.68-3.33-2.56l-4.86-4.86" fill="url(#1776867898103-9287325_M)"></path><path d="M47.12 397.83c4.77 0 7.17 2.22 7.17 6.66s-2.39 6.66-7.17 6.66c-5.13 0-7.68-2.22-7.68-6.66s2.56-6.66 7.68-6.66" fill="url(#1776867898103-9287325_N)"></path><path d="M106 424.45q7.17 0 7.17 6.66c0 6.66-2.39 6.66-7.17 6.66q-7.68 0-7.68-6.66c0-6.66 2.57-6.66 7.68-6.66" fill="url(#1776867898103-9287325_O)"></path><path d="M148.73 438.31q7.17 0 7.17 6.66c0 6.66-2.39 6.66-7.17 6.66q-7.68 0-7.68-6.66c0-6.66 2.56-6.66 7.68-6.66" fill="url(#1776867898103-9287325_P)"></path><path d="M27.1 349.19c-.68-1.71-1.53-3.85-2.56-6.4s-1.45-3.84-1.28-3.84 2.13 2.72 5.89 8.19c5.46 8.54 6.14 15.45 2.05 20.74s-9.56 6.74-16.38 4.35c-5.13-2.39-7.94-6.14-8.45-11.26-.52-5.13.6-9.47 3.33-13.05s6.49-3.85 11.26-.77c4.09 2.73 5.46 5.55 4.09 8.45-1.36 2.9-3.24 4.18-5.63 3.85-.68-.34-.94-.77-.76-1.28.17-.52.43-.77.76-.77 1.36-.34 2.22-1.2 2.56-2.56.34-1.37-.68-2.56-3.08-3.58-3.76-1.36-6.23.17-7.42 4.61-1.2 4.44.76 7.86 5.89 10.24 2.73 1.37 5.81.94 9.22-1.28s3.58-7.42.52-15.61" fill="url(#1776867898103-9287325_Q)"></path><path d="M322.64 349.19c-3.08 8.19-2.9 13.4.52 15.61s6.49 2.65 9.22 1.28c5.12-2.39 7.09-5.8 5.89-10.24s-3.67-5.97-7.42-4.61c-2.39 1.03-3.41 2.22-3.08 3.58.34 1.36 1.2 2.22 2.56 2.56.34 0 .6.25.77.77.17.51-.09.94-.77 1.28-2.39.34-4.27-.94-5.63-3.85-1.36-2.9 0-5.72 4.09-8.45 4.78-3.08 8.54-2.81 11.27.77 2.72 3.58 3.84 7.93 3.32 13.05-.51 5.12-3.32 8.87-8.45 11.26q-10.245 3.585-16.38-4.35c-6.135-7.935-3.41-12.2 2.05-20.74 3.76-5.46 5.72-8.19 5.89-8.19s-.25 1.28-1.28 3.84-1.88 4.69-2.57 6.4" fill="url(#1776867898103-9287325_R)"></path><path d="M352.27 256c0 25.94-4.61 50.27-13.83 72.96-9.22 22.7-21.84 42.66-37.89 59.9-16.04 17.24-34.73 30.72-56.07 40.45s-44.12 14.59-68.35 14.59-47.02-4.86-68.35-14.59c-21.34-9.73-40.02-23.21-56.07-40.45-16.04-17.24-28.68-37.2-37.89-59.9S0 281.94 0 256s4.61-50.27 13.83-72.96c9.22-22.7 21.84-42.66 37.89-59.9 16.04-17.24 34.73-30.72 56.07-40.45s44.12-14.59 68.35-14.59 47.02 4.86 68.35 14.59c21.34 9.73 40.02 23.21 56.07 40.45 16.04 17.24 28.68 37.2 37.89 59.9q13.83 34.05 13.83 72.96" fill="url(#1776867898103-9287325_S)"></path><path d="M176.14 77.31q34.305 0 64.26 13.83c29.955 13.83 37.63 22.02 52.99 38.4s27.31 35.42 35.84 57.09c8.54 21.67 12.8 44.8 12.8 69.37s-4.27 47.7-12.8 69.37-20.48 40.7-35.84 57.09c-15.36 16.38-33.02 29.19-52.99 38.4q-29.955 13.83-64.26 13.83c-34.305 0-44.29-4.61-64.26-13.83s-37.63-22.02-52.99-38.4-27.31-35.41-35.84-57.09c-8.54-21.67-12.8-44.8-12.8-69.37s4.27-47.7 12.8-69.37 20.48-40.7 35.84-57.09c15.36-16.38 33.02-29.19 52.99-38.4q29.955-13.83 64.26-13.83m0 346.12c20.82 0 40.45-4.35 58.88-13.05s34.56-20.74 48.39-36.1 24.67-33.11 32.51-53.24c7.86-20.14 11.78-41.81 11.78-65.02s-3.92-44.89-11.78-65.02c-7.85-20.14-18.69-37.89-32.51-53.24-13.83-15.36-29.96-27.4-48.39-36.1s-38.06-13.05-58.88-13.05-40.45 4.35-58.88 13.05-34.56 20.74-48.39 36.1S44.21 170.87 36.36 191c-7.86 20.14-11.78 41.81-11.78 65.02s3.92 44.89 11.78 65.02c7.85 20.14 18.69 37.89 32.51 53.24 13.83 15.36 29.96 27.4 48.39 36.1s38.06 13.05 58.88 13.05" fill="url(#1776867898103-9287325_T)"></path><path d="M317.96 256c0 21.84-3.67 42.41-11.01 61.7-7.34 19.28-17.49 36.18-30.46 50.69s-28.08 25.86-45.31 34.05-35.58 12.29-55.04 12.29-37.8-4.09-55.04-12.29c-17.24-8.19-32.34-19.54-45.31-34.05s-23.12-31.41-30.46-50.69-11.01-39.85-11.01-61.7 3.67-42.41 11.01-61.7c7.34-19.28 17.49-36.18 30.46-50.69s28.08-25.86 45.31-34.05c17.24-8.19 35.58-12.29 55.04-12.29s37.8 4.09 55.04 12.29c17.24 8.19 32.34 19.54 45.31 34.05s23.12 31.41 30.46 50.69 11.01 39.85 11.01 61.7" fill="url(#1776867898103-9287325_U)"></path><path d="M315.42 255.99c0 21.45-3.61 41.64-10.81 60.59-7.21 18.93-17.18 35.53-29.91 49.78-12.74 14.24-27.58 25.39-44.49 33.44-16.93 8.04-34.94 12.07-54.05 12.07s-37.12-4.02-54.05-12.07c-16.93-8.04-31.76-19.19-44.49-33.44-12.74-14.24-22.71-30.84-29.91-49.78-7.21-18.93-10.81-39.13-10.81-60.59s3.61-41.65 10.81-60.59 17.17-35.53 29.91-49.78c12.73-14.24 27.57-25.39 44.49-33.44s34.94-12.07 54.05-12.07 37.12 4.02 54.05 12.07c16.92 8.04 31.76 19.19 44.49 33.44 12.73 14.24 22.7 30.84 29.91 49.78 7.2 18.93 10.81 39.13 10.81 60.59" fill="#cfd5dc"></path><path d="m44.04 210.43 106.5-106.5c3.08-.68 6.23-1.2 9.47-1.53 3.24-.34 6.57-.68 9.98-1.03L39.94 231.94c1.03-7.17 2.39-14.33 4.1-21.51m257.54-17.92-196.1 196.1c-19.11-12.97-34.65-29.87-46.58-50.69l202.75-202.76c17.41 15.36 30.72 34.48 39.93 57.35m-2.56 132.1-76.29 76.29c-14 5.81-28.33 8.88-43.01 9.22l132.61-132.1c-2.39 16.04-6.83 31.57-13.31 46.59M37.9 258.05 193.04 102.4c18.43 2.73 35.5 9.22 51.19 19.46L49.16 316.93c-7.17-19.11-10.92-38.74-11.26-58.88" fill="#e6eaee"></path></g></svg>