<svg xmlns="http://www.w3.org/2000/svg" style="" viewBox="0 0 352.27 512"><g class="nc-icon-wrapper"><defs><linearGradient id="1776131386665-3177862_linear-gradient" x1="244.34" y1="-881.56" x2="264.06" y2="-861.85" gradientTransform="translate(0 931.62)" gradientUnits="userSpaceOnUse"><stop offset="0" stop-color="#ffd13b"></stop><stop offset="1" stop-color="#d48600"></stop></linearGradient><linearGradient id="1776131386665-3177862_linear-gradient-2" x1="226.65" y1="-883.33" x2="286" y2="-823.47" gradientTransform="translate(0 931.62)" gradientUnits="userSpaceOnUse"><stop offset="0" stop-color="#ffd13b"></stop><stop offset="1" stop-color="#d48600"></stop></linearGradient><linearGradient id="1776131386665-3177862_linear-gradient-3" x1="163.2" y1="-918.7" x2="189.06" y2="-892.83" gradientTransform="translate(0 931.62)" gradientUnits="userSpaceOnUse"><stop offset="0" stop-color="#ffd13b"></stop><stop offset="1" stop-color="#d48600"></stop></linearGradient><linearGradient id="1776131386665-3177862_linear-gradient-4" x1="85.35" y1="-883.4" x2="109.41" y2="-859.34" gradientTransform="translate(0 931.62)" gradientUnits="userSpaceOnUse"><stop offset="0" stop-color="#ffd13b"></stop><stop offset="1" stop-color="#d48600"></stop></linearGradient><linearGradient id="1776131386665-3177862_linear-gradient-5" x1="181.28" y1="-894.78" x2="206.11" y2="-870.47" gradientTransform="translate(0 931.62)" gradientUnits="userSpaceOnUse"><stop offset="0" stop-color="#ffd13b"></stop><stop offset="1" stop-color="#d48600"></stop></linearGradient><linearGradient id="1776131386665-3177862_linear-gradient-6" x1="142.6" y1="-897.65" x2="173.32" y2="-867.46" gradientTransform="translate(0 931.62)" gradientUnits="userSpaceOnUse"><stop offset="0" stop-color="#ffd13b"></stop><stop offset="1" stop-color="#d48600"></stop></linearGradient><linearGradient id="1776131386665-3177862_linear-gradient-7" x1="167.68" y1="-886.31" x2="184.32" y2="-869.66" gradientTransform="translate(0 931.62)" gradientUnits="userSpaceOnUse"><stop offset="0" stop-color="#ffd13b"></stop><stop offset="1" stop-color="#d48600"></stop></linearGradient><linearGradient id="1776131386665-3177862_linear-gradient-8" x1="125.96" y1="-878.89" x2="143.89" y2="-860.97" gradientTransform="translate(0 931.62)" gradientUnits="userSpaceOnUse"><stop offset="0" stop-color="#ffd13b"></stop><stop offset="1" stop-color="#d48600"></stop></linearGradient><linearGradient id="1776131386665-3177862_linear-gradient-9" x1="34.05" y1="-837.15" x2="60.16" y2="-811.04" gradientTransform="translate(0 931.62)" gradientUnits="userSpaceOnUse"><stop offset="0" stop-color="#ffd13b"></stop><stop offset="1" stop-color="#d48600"></stop></linearGradient><linearGradient id="1776131386665-3177862_linear-gradient-10" x1="74.78" y1="-873.86" x2="116.21" y2="-832.42" gradientTransform="translate(0 931.62)" gradientUnits="userSpaceOnUse"><stop offset="0" stop-color="#ffd13b"></stop><stop offset="1" stop-color="#d48600"></stop></linearGradient><linearGradient id="1776131386665-3177862_linear-gradient-11" x1="22.98" y1="-813.8" x2="42.44" y2="-794.34" gradientTransform="translate(0 931.62)" gradientUnits="userSpaceOnUse"><stop offset="0" stop-color="#ffd13b"></stop><stop offset="1" stop-color="#d48600"></stop></linearGradient><linearGradient id="1776131386665-3177862_linear-gradient-12" x1="41.62" y1="-829.39" x2="52.12" y2="-818.89" gradientTransform="translate(0 931.62)" gradientUnits="userSpaceOnUse"><stop offset="0" stop-color="#ffd13b"></stop><stop offset="1" stop-color="#d48600"></stop></linearGradient><linearGradient id="1776131386665-3177862_linear-gradient-13" x1="100.77" y1="-855.75" x2="111.01" y2="-845.51" gradientTransform="translate(0 931.62)" gradientUnits="userSpaceOnUse"><stop offset="0" stop-color="#ffd13b"></stop><stop offset="1" stop-color="#d48600"></stop></linearGradient><linearGradient id="1776131386665-3177862_linear-gradient-14" x1="143.24" y1="-869.87" x2="153.73" y2="-859.37" gradientTransform="translate(0 931.62)" gradientUnits="userSpaceOnUse"><stop offset="0" stop-color="#ffd13b"></stop><stop offset="1" stop-color="#d48600"></stop></linearGradient><linearGradient id="1776131386665-3177862_linear-gradient-15" x1="208.28" y1="-878.78" x2="226.45" y2="-861.12" gradientTransform="translate(0 931.62)" gradientUnits="userSpaceOnUse"><stop offset="0" stop-color="#ffd13b"></stop><stop offset="1" stop-color="#d48600"></stop></linearGradient><linearGradient id="1776131386665-3177862_linear-gradient-16" x1="294.18" y1="-834.18" x2="315.42" y2="-813.45" gradientTransform="translate(0 931.62)" gradientUnits="userSpaceOnUse"><stop offset="0" stop-color="#ffd13b"></stop><stop offset="1" stop-color="#d48600"></stop></linearGradient><linearGradient id="1776131386665-3177862_linear-gradient-17" x1="308.04" y1="-815.28" x2="330.31" y2="-793" gradientTransform="translate(0 931.62)" gradientUnits="userSpaceOnUse"><stop offset="0" stop-color="#ffd13b"></stop><stop offset="1" stop-color="#d48600"></stop></linearGradient><linearGradient id="1776131386665-3177862_linear-gradient-18" x1="300.18" y1="-829.39" x2="310.68" y2="-818.89" gradientTransform="translate(0 931.62)" gradientUnits="userSpaceOnUse"><stop offset="0" stop-color="#ffd13b"></stop><stop offset="1" stop-color="#d48600"></stop></linearGradient><linearGradient id="1776131386665-3177862_linear-gradient-19" x1="241.25" y1="-855.95" x2="251.49" y2="-845.7" gradientTransform="translate(0 931.62)" gradientUnits="userSpaceOnUse"><stop offset="0" stop-color="#ffd13b"></stop><stop offset="1" stop-color="#d48600"></stop></linearGradient><linearGradient id="1776131386665-3177862_linear-gradient-20" x1="198.57" y1="-869.86" x2="209.07" y2="-859.37" gradientTransform="translate(0 931.62)" gradientUnits="userSpaceOnUse"><stop offset="0" stop-color="#ffd13b"></stop><stop offset="1" stop-color="#d48600"></stop></linearGradient><linearGradient id="1776131386665-3177862_linear-gradient-21" x1="320.7" y1="-787.42" x2="341.43" y2="-766.69" gradientTransform="translate(0 931.62)" gradientUnits="userSpaceOnUse"><stop offset="0" stop-color="#ffd13b"></stop><stop offset="1" stop-color="#d48600"></stop></linearGradient><linearGradient id="1776131386665-3177862_linear-gradient-22" x1="9.56" y1="-787.62" x2="31.32" y2="-766.38" gradientTransform="translate(0 931.62)" gradientUnits="userSpaceOnUse"><stop offset="0" stop-color="#ffd13b"></stop><stop offset="1" stop-color="#d48600"></stop></linearGradient><linearGradient id="1776131386665-3177862_linear-gradient-23" x1="87.64" y1="-488.87" x2="107.35" y2="-469.16" gradientTransform="translate(0 931.62)" gradientUnits="userSpaceOnUse"><stop offset="0" stop-color="#ffd13b"></stop><stop offset="1" stop-color="#d48600"></stop></linearGradient><linearGradient id="1776131386665-3177862_linear-gradient-24" x1="66.19" y1="-527.79" x2="125.84" y2="-468.14" gradientTransform="translate(0 931.62)" gradientUnits="userSpaceOnUse"><stop offset="0" stop-color="#ffd13b"></stop><stop offset="1" stop-color="#d48600"></stop></linearGradient><linearGradient id="1776131386665-3177862_linear-gradient-25" x1="163.2" y1="-458.4" x2="189.06" y2="-432.55" gradientTransform="translate(0 931.62)" gradientUnits="userSpaceOnUse"><stop offset="0" stop-color="#ffd13b"></stop><stop offset="1" stop-color="#d48600"></stop></linearGradient><linearGradient id="1776131386665-3177862_linear-gradient-26" x1="240.29" y1="-491.39" x2="264.35" y2="-467.33" gradientTransform="translate(0 931.62)" gradientUnits="userSpaceOnUse"><stop offset="0" stop-color="#ffd13b"></stop><stop offset="1" stop-color="#d48600"></stop></linearGradient><linearGradient id="1776131386665-3177862_linear-gradient-27" x1="145.72" y1="-480.39" x2="170.29" y2="-455.81" gradientTransform="translate(0 931.62)" gradientUnits="userSpaceOnUse"><stop offset="0" stop-color="#ffd13b"></stop><stop offset="1" stop-color="#d48600"></stop></linearGradient><linearGradient id="1776131386665-3177862_linear-gradient-28" x1="176.48" y1="-483.39" x2="206.93" y2="-452.92" gradientTransform="translate(0 931.62)" gradientUnits="userSpaceOnUse"><stop offset="0" stop-color="#ffd13b"></stop><stop offset="1" stop-color="#d48600"></stop></linearGradient><linearGradient id="1776131386665-3177862_linear-gradient-29" x1="167.37" y1="-481.06" x2="184.01" y2="-464.42" gradientTransform="translate(0 931.62)" gradientUnits="userSpaceOnUse"><stop offset="0" stop-color="#ffd13b"></stop><stop offset="1" stop-color="#d48600"></stop></linearGradient><linearGradient id="1776131386665-3177862_linear-gradient-30" x1="207.81" y1="-489.75" x2="225.73" y2="-471.83" gradientTransform="translate(0 931.62)" gradientUnits="userSpaceOnUse"><stop offset="0" stop-color="#ffd13b"></stop><stop offset="1" stop-color="#d48600"></stop></linearGradient><linearGradient id="1776131386665-3177862_linear-gradient-31" x1="291.43" y1="-539.57" x2="317.8" y2="-513.72" gradientTransform="translate(0 931.62)" gradientUnits="userSpaceOnUse"><stop offset="0" stop-color="#ffd13b"></stop><stop offset="1" stop-color="#d48600"></stop></linearGradient><linearGradient id="1776131386665-3177862_linear-gradient-32" x1="234.74" y1="-518.71" x2="276.21" y2="-477.24" gradientTransform="translate(0 931.62)" gradientUnits="userSpaceOnUse"><stop offset="0" stop-color="#ffd13b"></stop><stop offset="1" stop-color="#d48600"></stop></linearGradient><linearGradient id="1776131386665-3177862_linear-gradient-33" x1="309.27" y1="-556.36" x2="328.72" y2="-536.91" gradientTransform="translate(0 931.62)" gradientUnits="userSpaceOnUse"><stop offset="0" stop-color="#ffd13b"></stop><stop offset="1" stop-color="#d48600"></stop></linearGradient><linearGradient id="1776131386665-3177862_linear-gradient-34" x1="300.18" y1="-532.42" x2="310.68" y2="-521.93" gradientTransform="translate(0 931.62)" gradientUnits="userSpaceOnUse"><stop offset="0" stop-color="#ffd13b"></stop><stop offset="1" stop-color="#d48600"></stop></linearGradient><linearGradient id="1776131386665-3177862_linear-gradient-35" x1="241.25" y1="-505.73" x2="251.49" y2="-495.49" gradientTransform="translate(0 931.62)" gradientUnits="userSpaceOnUse"><stop offset="0" stop-color="#ffd13b"></stop><stop offset="1" stop-color="#d48600"></stop></linearGradient><linearGradient id="1776131386665-3177862_linear-gradient-36" x1="198.57" y1="-491.94" x2="209.06" y2="-481.44" gradientTransform="translate(0 931.62)" gradientUnits="userSpaceOnUse"><stop offset="0" stop-color="#ffd13b"></stop><stop offset="1" stop-color="#d48600"></stop></linearGradient><linearGradient id="1776131386665-3177862_linear-gradient-37" x1="125.24" y1="-489.6" x2="143.42" y2="-471.95" gradientTransform="translate(0 931.62)" gradientUnits="userSpaceOnUse"><stop offset="0" stop-color="#ffd13b"></stop><stop offset="1" stop-color="#d48600"></stop></linearGradient><linearGradient id="1776131386665-3177862_linear-gradient-38" x1="34.27" y1="-537.27" x2="55.53" y2="-516.54" gradientTransform="translate(0 931.62)" gradientUnits="userSpaceOnUse"><stop offset="0" stop-color="#ffd13b"></stop><stop offset="1" stop-color="#d48600"></stop></linearGradient><linearGradient id="1776131386665-3177862_linear-gradient-39" x1="19.39" y1="-557.7" x2="41.66" y2="-535.43" gradientTransform="translate(0 931.62)" gradientUnits="userSpaceOnUse"><stop offset="0" stop-color="#ffd13b"></stop><stop offset="1" stop-color="#d48600"></stop></linearGradient><linearGradient id="1776131386665-3177862_linear-gradient-40" x1="41.62" y1="-532.42" x2="52.12" y2="-521.92" gradientTransform="translate(0 931.62)" gradientUnits="userSpaceOnUse"><stop offset="0" stop-color="#ffd13b"></stop><stop offset="1" stop-color="#d48600"></stop></linearGradient><linearGradient id="1776131386665-3177862_linear-gradient-41" x1="100.77" y1="-505.53" x2="111" y2="-495.29" gradientTransform="translate(0 931.62)" gradientUnits="userSpaceOnUse"><stop offset="0" stop-color="#ffd13b"></stop><stop offset="1" stop-color="#d48600"></stop></linearGradient><linearGradient id="1776131386665-3177862_linear-gradient-42" x1="143.23" y1="-491.94" x2="153.73" y2="-481.44" gradientTransform="translate(0 931.62)" gradientUnits="userSpaceOnUse"><stop offset="0" stop-color="#ffd13b"></stop><stop offset="1" stop-color="#d48600"></stop></linearGradient><linearGradient id="1776131386665-3177862_linear-gradient-43" x1="10.34" y1="-584.12" x2="30.82" y2="-563.13" gradientTransform="translate(0 931.62)" gradientUnits="userSpaceOnUse"><stop offset="0" stop-color="#ffd13b"></stop><stop offset="1" stop-color="#d48600"></stop></linearGradient><linearGradient id="1776131386665-3177862_linear-gradient-44" x1="318.53" y1="-584.47" x2="340.03" y2="-562.96" gradientTransform="translate(0 931.62)" gradientUnits="userSpaceOnUse"><stop offset="0" stop-color="#ffd13b"></stop><stop offset="1" stop-color="#d48600"></stop></linearGradient><linearGradient id="1776131386665-3177862_linear-gradient-45" x1="47.52" y1="-804.48" x2="304.29" y2="-547.21" gradientTransform="translate(0 931.62)" gradientUnits="userSpaceOnUse"><stop offset="0" stop-color="#ffd13b"></stop><stop offset="1" stop-color="#d48600"></stop></linearGradient><linearGradient id="1776131386665-3177862_linear-gradient-46" x1="176.13" y1="-496.93" x2="176.13" y2="-854.31" gradientTransform="translate(0 931.62)" gradientUnits="userSpaceOnUse"><stop offset="0" stop-color="#d48600"></stop><stop offset="1" stop-color="#ffd13b"></stop></linearGradient><linearGradient id="1776131386665-3177862_linear-gradient-47" x1="176.14" y1="-516.9" x2="176.14" y2="-834.34" gradientTransform="translate(0 931.62)" gradientUnits="userSpaceOnUse"><stop offset="0" stop-color="#ffd13b"></stop><stop offset="1" stop-color="#d48600"></stop></linearGradient></defs><path class="cls-11" d="M252.92,69.63c8.19-2.73,12.12-6.14,11.78-10.24s-1.89-6.65-4.61-7.68c-4.78-2.39-8.62-1.8-11.52,1.8-2.9,3.58-2.64,6.4.77,8.45,2.39,1.36,4.01,1.45,4.86.25.85-1.2,1.11-2.48.76-3.84-.34-.34-.34-.77,0-1.28.34-.52.85-.43,1.53.25,1.71,1.71,1.8,4.01.25,6.91-1.53,2.9-4.69,3.5-9.47,1.8-5.12-1.71-7.17-4.77-6.14-9.22,1.03-4.44,3.76-8.02,8.19-10.75s9.22-2.73,14.33,0c6.14,3.41,8.45,8.45,6.91,15.1-1.53,6.66-7.42,10.5-17.67,11.52-6.49.34-9.81.43-9.98.25-.17-.17,1.03-.6,3.58-1.28s4.69-1.36,6.4-2.05" vector-effect="none" fill="url(#1776131386665-3177862_linear-gradient)"></path><path class="cls-10" d="M275.97,74.75c-6.83-.68-12.89-.25-18.18,1.28s-10.5,2.9-15.61,4.09c-5.13,1.2-10.59,1.2-16.38,0-5.81-1.2-12.46-4.86-19.97-11.01,11.61,4.09,20.99,5.63,28.16,4.61s13.91-2.39,20.23-4.09c6.31-1.71,14.08-2.05,23.3-1.03,11.95,1.37,19.11,5.81,21.51,13.31,2.39,7.51.34,13.99-6.14,19.46-4.1,3.08-8.36,4.18-12.8,3.33-4.44-.85-8.28-2.81-11.52-5.89-3.25-3.08-4.95-6.4-5.13-9.98-.17-3.58,1.97-6.4,6.4-8.45,5.46-2.73,9.3-2.56,11.52.52,2.22,3.08,2.48,5.81.77,8.19-.68.68-1.28.76-1.8.25-.52-.52-.6-.94-.25-1.28.34-1.71-.08-3.16-1.28-4.35s-3.16-.76-5.89,1.28c-2.39,1.71-2.99,3.93-1.8,6.66,1.2,2.73,3.41,4.69,6.66,5.89,3.24,1.2,6.57.43,9.98-2.3,2.05-1.37,3.5-3.5,4.35-6.4.85-2.9.08-5.72-2.3-8.45s-7-4.61-13.83-5.63" vector-effect="none" fill="url(#1776131386665-3177862_linear-gradient-2)"></path><path class="cls-9" d="M176.13,0c6.49,7.85,9.38,15.7,8.7,23.55-.68,7.85-2.3,14.51-4.86,19.97s-3.84,8.19-3.84,8.19c0,0-1.28-2.73-3.84-8.19-2.57-5.46-4.18-12.12-4.86-19.97C166.75,15.7,169.64,7.85,176.13,0" vector-effect="none" fill="url(#1776131386665-3177862_linear-gradient-3)"></path><path class="cls-8" d="M98.75,69.63c1.71.68,3.84,1.36,6.4,2.05,2.56.68,3.76,1.11,3.58,1.28s-3.5.08-9.98-.25c-10.24-1.03-16.13-4.86-17.66-11.52-1.53-6.65.76-11.69,6.91-15.1,5.13-2.73,9.9-2.73,14.33,0,4.44,2.73,7.17,6.31,8.19,10.75,1.03,4.44-1.03,7.51-6.14,9.22-4.77,1.71-7.94,1.11-9.47-1.8-1.53-2.9-1.45-5.21.25-6.91.68-.68,1.2-.76,1.53-.25.34.52.34.94,0,1.28-.34,1.36-.08,2.65.76,3.84.85,1.2,2.48,1.11,4.86-.25,3.41-2.05,3.67-4.86.76-8.45-2.9-3.58-6.74-4.18-11.52-1.8-2.73,1.03-4.27,3.58-4.61,7.68s3.58,7.51,11.78,10.24" vector-effect="none" fill="url(#1776131386665-3177862_linear-gradient-4)"></path><path class="cls-5" d="M199.68,64c.34,3.41-.94,5.72-3.84,6.91-2.9,1.2-6.14,1.03-9.73-.52-3.58-1.53-6.31-4.35-8.19-8.45s-1.62-9.73.76-16.9c2.39-8.19,6.14-13.4,11.27-15.62,5.12-2.22,9.73-2.22,13.82,0,4.1,2.22,6.23,5.72,6.4,10.5.17,4.77-3.33,9.73-10.5,14.85,4.44-6.49,5.63-11.18,3.58-14.08-2.05-2.9-5.04-3.84-8.96-2.81s-6.74,4.27-8.45,9.73c-2.39,7.17-1.53,12.89,2.57,17.15s7.85,4.01,11.26-.77" vector-effect="none" fill="url(#1776131386665-3177862_linear-gradient-5)"></path><path class="cls-6" d="M151.99,64c3.41,4.77,7.17,5.04,11.27.77,4.09-4.27,4.95-9.98,2.56-17.15-1.71-5.46-4.53-8.7-8.45-9.73-3.93-1.03-6.91-.08-8.96,2.81-2.05,2.9-.85,7.6,3.58,14.08-7.17-5.13-10.67-10.07-10.5-14.85.17-4.77,2.3-8.28,6.4-10.5,4.09-2.22,8.7-2.22,13.83,0s8.88,7.42,11.26,15.62c2.39,7.17,2.65,12.8.76,16.9-1.88,4.09-4.61,6.91-8.19,8.45-3.58,1.53-6.83,1.71-9.73.52s-4.18-3.5-3.85-6.91" vector-effect="none" fill="url(#1776131386665-3177862_linear-gradient-6)"></path><path class="cls-4" d="M186.37,59.39h-20.48c-2.05,0-3.08-1.88-3.08-5.63s1.03-5.63,3.08-5.63h20.48c2.05,0,3.08,1.88,3.08,5.63s-1.03,5.63-3.08,5.63" vector-effect="none" fill="url(#1776131386665-3177862_linear-gradient-7)"></path><path class="cls-3" d="M148.49,65.02c-3.76,6.49-7.94,9.64-12.55,9.47-4.61-.17-8.28-2.05-11.01-5.63-2.72-3.58-3.41-7.6-2.04-12.03,1.36-4.44,6.14-7.85,14.33-10.24-5.12,3.76-7.51,7.77-7.17,12.03.34,4.27,2.39,7.25,6.14,8.96s7.85.85,12.29-2.56" vector-effect="none" fill="url(#1776131386665-3177862_linear-gradient-8)"></path><path class="cls-7" d="M30.21,107.52c-1.03-4.09-.6-7.42,1.28-9.98s4.18-4.35,6.91-5.37c7.86-2.05,13.66-1.03,17.41,3.08s5.63,8.96,5.63,14.59-1.53,10.24-4.61,13.83-7.68,3.84-13.83.76c5.46-.34,8.96-2.65,10.5-6.91,1.53-4.27,1.2-8.45-1.03-12.55-2.22-4.09-6.57-6.31-13.05-6.66-4.78,0-7.86,3.08-9.22,9.22" vector-effect="none" fill="url(#1776131386665-3177862_linear-gradient-9)"></path><path class="cls-20" d="M75.71,74.75c-6.83,1.03-11.43,2.9-13.83,5.63-2.39,2.73-3.16,5.55-2.3,8.45s2.3,5.04,4.35,6.4c3.41,2.73,6.74,3.5,9.98,2.3,3.24-1.2,5.46-3.16,6.65-5.89,1.2-2.73.6-4.95-1.8-6.66-2.73-2.05-4.69-2.48-5.89-1.28s-1.62,2.65-1.28,4.35c.34.34.25.77-.25,1.28s-1.11.43-1.8-.25c-1.71-2.39-1.45-5.13.77-8.19,2.22-3.08,6.06-3.24,11.52-.52,4.44,2.05,6.57,4.86,6.4,8.45-.17,3.58-1.88,6.91-5.12,9.98s-7.09,5.04-11.52,5.89c-4.44.85-8.7-.25-12.8-3.33-6.49-5.46-8.54-11.95-6.14-19.46s9.56-11.95,21.51-13.31c9.22-1.03,16.98-.68,23.3,1.03s13.05,3.08,20.22,4.09,16.55-.52,28.16-4.61c-7.51,6.14-14.17,9.82-19.97,11.01-5.81,1.2-11.27,1.2-16.38,0-5.13-1.2-10.32-2.56-15.62-4.09-5.29-1.53-11.35-1.96-18.18-1.28" vector-effect="none" fill="url(#1776131386665-3177862_linear-gradient-10)"></path><path class="cls-21" d="M43.52,131.59c1.36-1.37,2.99-2.99,4.86-4.86s2.99-2.73,3.33-2.56-1.53,2.99-5.63,8.45c-5.8,8.54-11.94,11.78-18.43,9.73s-9.73-6.66-9.73-13.83c0-5.81,2.39-9.9,7.17-12.29,4.78-2.39,9.31-2.9,13.57-1.53,4.27,1.36,5.89,4.78,4.86,10.24-1.03,4.77-3.16,7.09-6.4,6.91-3.24-.17-5.2-1.45-5.89-3.84,0-.68.25-1.03.77-1.03s.94.17,1.28.52c.68,1.03,1.8,1.45,3.33,1.28,1.53-.17,2.3-1.62,2.3-4.35,0-3.76-2.39-5.37-7.17-4.86-4.78.52-7.17,3.5-7.17,8.96-.34,3.08,1.2,5.72,4.61,7.94s8.19.6,14.33-4.86" vector-effect="none" fill="url(#1776131386665-3177862_linear-gradient-11)"></path><path class="cls-22" d="M47.11,114.17c-5.13,0-7.68-2.22-7.68-6.65s2.56-6.66,7.68-6.66c4.77,0,7.17,2.22,7.17,6.66s-2.39,6.65-7.17,6.65" vector-effect="none" fill="url(#1776131386665-3177862_linear-gradient-12)"></path><path class="cls-23" d="M105.99,87.55c-5.12,0-7.68-2.22-7.68-6.66s2.57-6.65,7.68-6.65c4.78,0,7.17,2.22,7.17,6.65s-2.39,6.66-7.17,6.66" vector-effect="none" fill="url(#1776131386665-3177862_linear-gradient-13)"></path><path class="cls-25" d="M148.72,73.69c-5.12,0-7.68-2.22-7.68-6.65s2.56-6.65,7.68-6.65c4.78,0,7.17,2.22,7.17,6.65s-2.39,6.65-7.17,6.65" vector-effect="none" fill="url(#1776131386665-3177862_linear-gradient-14)"></path><path class="cls-36" d="M203.77,65.02c4.44,3.41,8.54,4.27,12.29,2.56,3.76-1.71,5.81-4.69,6.14-8.96.34-4.27-2.05-8.28-7.17-12.03,8.19,2.39,12.97,5.81,14.33,10.24,1.37,4.44.68,8.45-2.04,12.03-2.73,3.58-6.4,5.46-11.01,5.63s-8.79-2.99-12.55-9.47" vector-effect="none" fill="url(#1776131386665-3177862_linear-gradient-15)"></path><path class="cls-37" d="M321.47,107.52c-1.37-6.14-4.44-9.22-9.22-9.22-6.49.34-10.84,2.56-13.05,6.66-2.22,4.09-2.56,8.28-1.03,12.55s5.04,6.57,10.5,6.91c-6.14,3.08-10.75,2.81-13.83-.76-3.08-3.58-4.61-8.19-4.61-13.83s1.88-10.5,5.63-14.59,9.56-5.13,17.41-3.08c2.73,1.03,5.04,2.81,6.91,5.37s2.3,5.89,1.28,9.98" vector-effect="none" fill="url(#1776131386665-3177862_linear-gradient-16)"></path><path class="cls-38" d="M308.16,131.59c6.14,5.46,10.92,7.09,14.33,4.86,3.41-2.22,4.95-4.86,4.61-7.94,0-5.46-2.39-8.45-7.17-8.96s-7.17,1.11-7.17,4.86c0,2.73.77,4.18,2.3,4.35,1.53.17,2.65-.25,3.33-1.28.34-.34.77-.52,1.28-.52s.76.34.76,1.03c-.68,2.39-2.64,3.67-5.89,3.84-3.24.17-5.37-2.13-6.4-6.91-1.03-5.46.6-8.88,4.86-10.24s8.79-.85,13.57,1.53c4.77,2.39,7.17,6.49,7.17,12.29,0,7.17-3.24,11.78-9.73,13.83s-12.63-1.2-18.43-9.73c-4.09-5.46-5.97-8.28-5.63-8.45s1.45.68,3.33,2.56,3.5,3.5,4.86,4.86" vector-effect="none" fill="url(#1776131386665-3177862_linear-gradient-17)"></path><path class="cls-39" d="M305.67,114.17c-5.13,0-7.68-2.22-7.68-6.65s2.56-6.66,7.68-6.66c4.78,0,7.17,2.22,7.17,6.66s-2.39,6.65-7.17,6.65" vector-effect="none" fill="url(#1776131386665-3177862_linear-gradient-18)"></path><path class="cls-24" d="M246.27,87.55c-4.78,0-7.17-2.22-7.17-6.66s2.39-6.65,7.17-6.65c5.12,0,7.68,2.22,7.68,6.65s-2.57,6.66-7.68,6.66" vector-effect="none" fill="url(#1776131386665-3177862_linear-gradient-19)"></path><path class="cls-27" d="M204.05,73.69c-5.12,0-7.68-2.22-7.68-6.65s2.57-6.65,7.68-6.65c4.78,0,7.17,2.22,7.17,6.65s-2.39,6.65-7.17,6.65" vector-effect="none" fill="url(#1776131386665-3177862_linear-gradient-20)"></path><path class="cls-26" d="M324.61,163.33c.69,1.71,1.53,3.84,2.57,6.4,1.03,2.56,1.44,3.84,1.28,3.84s-2.13-2.73-5.89-8.19c-5.46-8.54-6.14-15.45-2.05-20.74s9.56-6.74,16.38-4.35c5.13,2.39,7.94,6.14,8.45,11.26.52,5.13-.6,9.47-3.32,13.05-2.73,3.58-6.49,3.84-11.27.76-4.09-2.73-5.46-5.55-4.09-8.45,1.36-2.9,3.24-4.18,5.63-3.84.68.34.94.76.77,1.28-.17.52-.43.76-.77.76-1.36.34-2.22,1.2-2.56,2.56s.68,2.56,3.08,3.58c3.76,1.36,6.23-.17,7.42-4.61,1.2-4.44-.77-7.85-5.89-10.24-2.73-1.36-5.81-.94-9.22,1.28s-3.58,7.42-.52,15.62" vector-effect="none" fill="url(#1776131386665-3177862_linear-gradient-21)"></path><path class="cls-28" d="M27.07,163.33c3.08-8.19,2.9-13.4-.52-15.62-3.41-2.22-6.49-2.65-9.22-1.28-5.13,2.39-7.09,5.81-5.89,10.24,1.2,4.43,3.67,5.97,7.42,4.61,2.39-1.03,3.41-2.22,3.08-3.58-.34-1.36-1.2-2.22-2.56-2.56-.34,0-.6-.25-.76-.76-.17-.52.08-.94.76-1.28,2.39-.34,4.27.94,5.63,3.84,1.36,2.9,0,5.72-4.09,8.45-4.77,3.08-8.54,2.81-11.26-.76-2.73-3.58-3.84-7.94-3.33-13.05.52-5.13,3.33-8.88,8.45-11.26,6.83-2.39,12.29-.94,16.38,4.35,4.09,5.29,3.41,12.2-2.05,20.74-3.76,5.46-5.72,8.19-5.89,8.19s.25-1.28,1.28-3.84,1.88-4.69,2.56-6.4" vector-effect="none" fill="url(#1776131386665-3177862_linear-gradient-22)"></path><path class="cls-29" d="M98.76,442.89c-8.19,2.73-12.12,6.14-11.78,10.24.34,4.09,1.88,6.65,4.61,7.68,4.78,2.39,8.62,1.8,11.52-1.8,2.9-3.58,2.64-6.4-.76-8.45-2.39-1.37-4.01-1.45-4.86-.25s-1.11,2.48-.76,3.84c.34.34.34.77,0,1.28-.34.52-.85.43-1.53-.25-1.71-1.71-1.8-4.01-.25-6.91,1.53-2.9,4.69-3.5,9.47-1.8,5.13,1.71,7.17,4.78,6.14,9.22-1.03,4.44-3.76,8.02-8.19,10.75-4.44,2.73-9.22,2.73-14.33,0-6.14-3.41-8.45-8.45-6.91-15.1,1.53-6.65,7.42-10.5,17.66-11.52,6.49-.34,9.82-.43,9.98-.25s-1.03.6-3.58,1.28-4.69,1.37-6.4,2.05" vector-effect="none" fill="url(#1776131386665-3177862_linear-gradient-23)"></path><path class="cls-45" d="M76.29,437.25c6.83.68,12.89.25,18.18-1.28s10.5-2.9,15.61-4.09c5.13-1.2,10.59-1.2,16.38,0,5.81,1.2,12.63,4.86,20.48,11.01-11.95-4.09-21.51-5.63-28.68-4.61-7.17,1.02-13.91,2.39-20.23,4.09-6.31,1.71-14.08,2.05-23.3,1.03-11.95-1.36-19.11-5.81-21.5-13.31s-.34-13.99,6.14-19.46c4.1-3.08,8.36-4.18,12.8-3.33,4.44.85,8.28,2.81,11.52,5.89,3.25,3.08,4.95,6.4,5.13,9.98.17,3.58-1.97,6.4-6.4,8.45-5.46,2.73-9.3,2.56-11.52-.52-2.22-3.08-2.48-5.81-.77-8.19.68-.68,1.28-.76,1.8-.25.52.52.6.94.25,1.28-.34,1.71.08,3.16,1.28,4.35,1.2,1.2,3.16.76,5.89-1.28,2.39-1.71,2.99-3.93,1.8-6.66s-3.41-4.69-6.66-5.89c-3.24-1.2-6.57-.43-9.98,2.3-2.05,1.36-3.5,3.5-4.35,6.4-.85,2.9-.08,5.72,2.3,8.45,2.39,2.73,7,4.61,13.83,5.63" vector-effect="none" fill="url(#1776131386665-3177862_linear-gradient-24)"></path><path class="cls-31" d="M176.13,512c-6.49-7.85-9.38-15.7-8.7-23.55s2.3-14.51,4.86-19.97,3.84-8.19,3.84-8.19c0,0,1.28,2.73,3.84,8.19,2.57,5.46,4.18,12.12,4.86,19.97.68,7.86-2.22,15.7-8.7,23.55" vector-effect="none" fill="url(#1776131386665-3177862_linear-gradient-25)"></path><path class="cls-46" d="M250.95,442.89c-1.71-.68-3.84-1.37-6.4-2.05-2.57-.68-3.76-1.11-3.58-1.28s3.5-.08,9.98.25c10.24,1.03,16.13,4.86,17.67,11.52,1.53,6.66-.77,11.69-6.91,15.1-5.12,2.73-9.9,2.73-14.33,0s-7.17-6.31-8.19-10.75c-1.03-4.44,1.03-7.51,6.14-9.22,4.78-1.71,7.94-1.11,9.47,1.8,1.53,2.9,1.45,5.21-.25,6.91-.68.68-1.2.76-1.53.25-.34-.51-.34-.94,0-1.28.34-1.36.08-2.64-.76-3.84-.85-1.2-2.48-1.11-4.86.25-3.41,2.04-3.67,4.86-.77,8.45,2.9,3.58,6.74,4.18,11.52,1.8,2.72-1.03,4.27-3.58,4.61-7.68.34-4.09-3.58-7.51-11.78-10.24" vector-effect="none" fill="url(#1776131386665-3177862_linear-gradient-26)"></path><path class="cls-44" d="M152.01,448.52c-.34-3.41.94-5.72,3.85-6.91,2.9-1.2,6.14-1.03,9.73.51,3.58,1.53,6.31,4.35,8.19,8.45,1.88,4.09,1.62,9.73-.76,16.89-2.39,8.19-6.14,13.4-11.26,15.62-5.13,2.22-9.73,2.22-13.83,0-4.09-2.22-6.23-5.72-6.4-10.5s3.33-9.73,10.5-14.85c-4.44,6.49-5.63,11.18-3.58,14.08,2.05,2.9,5.04,3.85,8.96,2.81,3.93-1.03,6.74-4.27,8.45-9.73,2.39-7.17,1.53-12.89-2.56-17.15-4.09-4.27-7.85-4-11.27.77" vector-effect="none" fill="url(#1776131386665-3177862_linear-gradient-27)"></path><path class="cls-30" d="M197.71,448.52c-3.41-4.77-7.17-5.04-11.26-.77-4.09,4.27-4.95,9.99-2.57,17.15,1.71,5.46,4.53,8.7,8.45,9.73,3.93,1.03,6.91.09,8.96-2.81,2.04-2.9.85-7.59-3.58-14.08,7.17,5.12,10.67,10.07,10.5,14.85-.17,4.77-2.3,8.28-6.4,10.5-4.09,2.22-8.7,2.22-13.82,0-5.13-2.22-8.88-7.42-11.27-15.62-2.39-7.17-2.64-12.8-.76-16.89,1.88-4.1,4.61-6.91,8.19-8.45,3.58-1.53,6.83-1.71,9.73-.51,2.9,1.19,4.18,3.5,3.84,6.91" vector-effect="none" fill="url(#1776131386665-3177862_linear-gradient-28)"></path><path class="cls-47" d="M165.32,453.13h20.48c2.05,0,3.08,1.88,3.08,5.63s-1.03,5.63-3.08,5.63h-20.48c-2.05,0-3.08-1.88-3.08-5.63s1.03-5.63,3.08-5.63" vector-effect="none" fill="url(#1776131386665-3177862_linear-gradient-29)"></path><path class="cls-35" d="M203.21,447.49c3.76-6.49,7.94-9.65,12.54-9.47,4.61.17,8.28,2.05,11.01,5.63,2.73,3.58,3.41,7.6,2.05,12.03-1.36,4.44-6.14,7.86-14.33,10.24,5.13-3.76,7.51-7.77,7.17-12.03-.34-4.27-2.39-7.25-6.14-8.96-3.76-1.71-7.85-.85-12.29,2.57" vector-effect="none" fill="url(#1776131386665-3177862_linear-gradient-30)"></path><path class="cls-33" d="M321.48,404.99c1.03,4.09.6,7.42-1.28,9.98-1.88,2.57-4.18,4.36-6.91,5.38-7.85,2.05-13.65,1.03-17.41-3.08-3.76-4.09-5.63-8.96-5.63-14.59s1.53-10.24,4.61-13.83c3.08-3.58,7.68-3.84,13.83-.76-5.46.34-8.96,2.64-10.5,6.91s-1.2,8.45,1.03,12.54c2.22,4.1,6.57,6.32,13.05,6.66,4.77,0,7.85-3.08,9.22-9.22" vector-effect="none" fill="url(#1776131386665-3177862_linear-gradient-31)"></path><path class="cls-32" d="M275.39,437.25c6.83-1.03,11.43-2.9,13.83-5.63,2.39-2.73,3.16-5.55,2.3-8.45-.85-2.9-2.3-5.04-4.35-6.4-3.41-2.73-6.74-3.5-9.98-2.3-3.24,1.2-5.46,3.16-6.66,5.89s-.6,4.95,1.8,6.66c2.73,2.05,4.69,2.48,5.89,1.28s1.62-2.65,1.28-4.35c-.34-.34-.25-.76.25-1.28s1.11-.43,1.8.25c1.71,2.39,1.45,5.13-.76,8.19-2.22,3.08-6.06,3.24-11.52.52-4.44-2.05-6.57-4.86-6.4-8.45s1.88-6.91,5.13-9.98,7.09-5.04,11.52-5.89c4.44-.85,8.7.25,12.8,3.33,6.49,5.46,8.54,11.95,6.14,19.46-2.39,7.51-9.56,11.95-21.51,13.31-9.22,1.03-16.98.68-23.3-1.03-6.31-1.71-13.05-3.08-20.22-4.09-7.17-1.03-16.73.52-28.68,4.61,7.85-6.14,14.68-9.82,20.48-11.01,5.81-1.2,11.26-1.2,16.38,0,5.12,1.2,10.32,2.56,15.62,4.09,5.29,1.53,11.35,1.96,18.18,1.28" vector-effect="none" fill="url(#1776131386665-3177862_linear-gradient-32)"></path><path class="cls-34" d="M308.17,380.93c-1.36,1.37-2.99,2.99-4.86,4.86s-2.99,2.73-3.33,2.56c-.34-.17,1.53-2.99,5.63-8.45,5.81-8.54,11.95-11.78,18.43-9.73,6.49,2.04,9.73,6.65,9.73,13.82,0,5.81-2.39,9.9-7.17,12.29s-9.3,2.9-13.57,1.53c-4.27-1.36-5.89-4.77-4.86-10.24,1.03-4.78,3.16-7.09,6.4-6.91,3.24.17,5.21,1.44,5.89,3.84,0,.68-.25,1.03-.76,1.03s-.94-.17-1.28-.51c-.68-1.03-1.8-1.45-3.33-1.29-1.53.17-2.3,1.62-2.3,4.36,0,3.76,2.39,5.37,7.17,4.86,4.77-.51,7.17-3.5,7.17-8.96.34-3.08-1.2-5.72-4.61-7.93-3.41-2.22-8.19-.6-14.33,4.86" vector-effect="none" fill="url(#1776131386665-3177862_linear-gradient-33)"></path><path class="cls-41" d="M305.67,397.83c4.78,0,7.17,2.22,7.17,6.66s-2.39,6.66-7.17,6.66c-5.13,0-7.68-2.22-7.68-6.66s2.56-6.66,7.68-6.66" vector-effect="none" fill="url(#1776131386665-3177862_linear-gradient-34)"></path><path class="cls-40" d="M246.27,424.45c5.12,0,7.68,2.22,7.68,6.66s-2.57,6.66-7.68,6.66c-4.78,0-7.17-2.22-7.17-6.66s2.39-6.66,7.17-6.66" vector-effect="none" fill="url(#1776131386665-3177862_linear-gradient-35)"></path><path class="cls-42" d="M204.05,438.31c4.78,0,7.17,2.22,7.17,6.66s-2.39,6.66-7.17,6.66c-5.12,0-7.68-2.22-7.68-6.66s2.57-6.66,7.68-6.66" vector-effect="none" fill="url(#1776131386665-3177862_linear-gradient-36)"></path><path class="cls-48" d="M147.91,447.49c-4.44-3.41-8.54-4.27-12.29-2.57-3.76,1.71-5.81,4.7-6.14,8.96-.34,4.27,2.05,8.28,7.17,12.03-8.19-2.39-12.97-5.8-14.33-10.24s-.68-8.45,2.05-12.03c2.73-3.58,6.4-5.46,11.01-5.63s8.79,2.99,12.55,9.47" vector-effect="none" fill="url(#1776131386665-3177862_linear-gradient-37)"></path><path class="cls-43" d="M28.24,404.99c1.36,6.14,4.44,9.22,9.22,9.22,6.49-.34,10.84-2.56,13.05-6.66,2.22-4.09,2.56-8.28,1.03-12.54-1.53-4.27-5.04-6.57-10.5-6.91,6.14-3.08,10.75-2.82,13.83.76s4.61,8.19,4.61,13.83-1.88,10.5-5.63,14.59-9.56,5.13-17.41,3.08c-2.72-1.03-5.04-2.81-6.91-5.38-1.88-2.56-2.3-5.89-1.28-9.98" vector-effect="none" fill="url(#1776131386665-3177862_linear-gradient-38)"></path><path class="cls-49" d="M41.54,380.93c-6.14-5.46-10.92-7.09-14.33-4.86-3.41,2.22-4.95,4.86-4.61,7.93,0,5.46,2.39,8.45,7.17,8.96,4.77.52,7.17-1.11,7.17-4.86,0-2.73-.76-4.18-2.3-4.36-1.53-.17-2.65.25-3.33,1.29-.34.34-.77.51-1.28.51s-.77-.34-.77-1.03c.69-2.39,2.65-3.67,5.89-3.84,3.25-.17,5.38,2.13,6.4,6.91,1.03,5.46-.6,8.88-4.86,10.24s-8.79.85-13.57-1.53c-4.77-2.39-7.17-6.49-7.17-12.29,0-7.17,3.25-11.78,9.73-13.82,6.49-2.05,12.63,1.19,18.43,9.73,4.1,5.46,5.98,8.28,5.63,8.45s-1.45-.68-3.33-2.56-3.5-3.5-4.86-4.86" vector-effect="none" fill="url(#1776131386665-3177862_linear-gradient-39)"></path><path class="cls-13" d="M47.11,397.83c4.77,0,7.17,2.22,7.17,6.66s-2.39,6.66-7.17,6.66c-5.13,0-7.68-2.22-7.68-6.66s2.56-6.66,7.68-6.66" vector-effect="none" fill="url(#1776131386665-3177862_linear-gradient-40)"></path><path class="cls-14" d="M105.99,424.45c4.78,0,7.17,2.22,7.17,6.66s-2.39,6.66-7.17,6.66c-5.12,0-7.68-2.22-7.68-6.66s2.57-6.66,7.68-6.66" vector-effect="none" fill="url(#1776131386665-3177862_linear-gradient-41)"></path><path class="cls-15" d="M148.72,438.31c4.78,0,7.17,2.22,7.17,6.66s-2.39,6.66-7.17,6.66c-5.12,0-7.68-2.22-7.68-6.66s2.56-6.66,7.68-6.66" vector-effect="none" fill="url(#1776131386665-3177862_linear-gradient-42)"></path><path class="cls-12" d="M27.09,349.19c-.68-1.71-1.53-3.85-2.56-6.4s-1.45-3.84-1.28-3.84,2.13,2.72,5.89,8.19c5.46,8.54,6.14,15.45,2.05,20.74s-9.56,6.74-16.38,4.35c-5.13-2.39-7.94-6.14-8.45-11.26-.52-5.13.6-9.47,3.33-13.05,2.73-3.58,6.49-3.85,11.26-.77,4.09,2.73,5.46,5.55,4.09,8.45-1.36,2.9-3.24,4.18-5.63,3.85-.68-.34-.94-.77-.76-1.28.17-.52.43-.77.76-.77,1.36-.34,2.22-1.2,2.56-2.56.34-1.37-.68-2.56-3.08-3.58-3.76-1.36-6.23.17-7.42,4.61-1.2,4.44.76,7.86,5.89,10.24,2.73,1.37,5.81.94,9.22-1.28s3.58-7.42.52-15.61" vector-effect="none" fill="url(#1776131386665-3177862_linear-gradient-43)"></path><path class="cls-18" d="M322.63,349.19c-3.08,8.19-2.9,13.4.52,15.61s6.49,2.65,9.22,1.28c5.12-2.39,7.09-5.8,5.89-10.24s-3.67-5.97-7.42-4.61c-2.39,1.03-3.41,2.22-3.08,3.58.34,1.36,1.2,2.22,2.56,2.56.34,0,.6.25.77.77.17.51-.09.94-.77,1.28-2.39.34-4.27-.94-5.63-3.85-1.36-2.9,0-5.72,4.09-8.45,4.78-3.08,8.54-2.81,11.27.77,2.72,3.58,3.84,7.93,3.32,13.05-.51,5.12-3.32,8.87-8.45,11.26-6.83,2.39-12.29.94-16.38-4.35-4.09-5.29-3.41-12.2,2.05-20.74,3.76-5.46,5.72-8.19,5.89-8.19s-.25,1.28-1.28,3.84-1.88,4.69-2.57,6.4" vector-effect="none" fill="url(#1776131386665-3177862_linear-gradient-44)"></path><path class="cls-16" d="M352.26,256c0,25.94-4.61,50.27-13.83,72.96-9.22,22.7-21.84,42.66-37.89,59.9-16.04,17.24-34.73,30.72-56.07,40.45-21.34,9.73-44.12,14.59-68.35,14.59s-47.02-4.86-68.35-14.59c-21.34-9.73-40.02-23.21-56.07-40.45-16.04-17.24-28.68-37.2-37.89-59.9-9.21-22.7-13.82-47.02-13.82-72.96s4.61-50.27,13.83-72.96c9.22-22.7,21.84-42.66,37.89-59.9,16.04-17.24,34.73-30.72,56.07-40.45,21.34-9.73,44.12-14.59,68.35-14.59s47.02,4.86,68.35,14.59c21.34,9.73,40.02,23.21,56.07,40.45,16.04,17.24,28.68,37.2,37.89,59.9,9.22,22.7,13.83,47.02,13.83,72.96" vector-effect="none" fill="url(#1776131386665-3177862_linear-gradient-45)"></path><path class="cls-19" d="M176.13,77.31c22.87,0,44.29,4.61,64.26,13.83,19.97,9.22,37.63,22.02,52.99,38.4,15.36,16.38,27.31,35.42,35.84,57.09,8.54,21.67,12.8,44.8,12.8,69.37s-4.27,47.7-12.8,69.37c-8.53,21.67-20.48,40.7-35.84,57.09-15.36,16.38-33.02,29.19-52.99,38.4-19.97,9.22-41.39,13.83-64.26,13.83s-44.29-4.61-64.26-13.83c-19.97-9.22-37.63-22.02-52.99-38.4-15.36-16.38-27.31-35.41-35.84-57.09-8.54-21.67-12.8-44.8-12.8-69.37s4.27-47.7,12.8-69.37c8.53-21.67,20.48-40.7,35.84-57.09,15.36-16.38,33.02-29.19,52.99-38.4,19.97-9.22,41.39-13.83,64.26-13.83M176.13,423.43c20.82,0,40.45-4.35,58.88-13.05,18.43-8.7,34.56-20.74,48.39-36.1,13.83-15.36,24.67-33.11,32.51-53.24,7.86-20.14,11.78-41.81,11.78-65.02s-3.92-44.89-11.78-65.02c-7.85-20.14-18.69-37.89-32.51-53.24-13.83-15.36-29.96-27.4-48.39-36.1-18.43-8.7-38.06-13.05-58.88-13.05s-40.45,4.35-58.88,13.05c-18.43,8.7-34.56,20.74-48.39,36.1-13.83,15.36-24.66,33.11-32.51,53.24-7.86,20.14-11.78,41.81-11.78,65.02s3.92,44.89,11.78,65.02c7.85,20.14,18.69,37.89,32.51,53.24,13.83,15.36,29.96,27.4,48.39,36.1,18.43,8.7,38.06,13.05,58.88,13.05" vector-effect="none" fill="url(#1776131386665-3177862_linear-gradient-46)"></path><path class="cls-17" d="M317.95,256c0,21.84-3.67,42.41-11.01,61.7-7.34,19.28-17.49,36.18-30.46,50.69s-28.08,25.86-45.31,34.05c-17.23,8.19-35.58,12.29-55.04,12.29s-37.8-4.09-55.04-12.29c-17.24-8.19-32.34-19.54-45.31-34.05-12.97-14.51-23.12-31.41-30.46-50.69s-11.01-39.85-11.01-61.7,3.67-42.41,11.01-61.7c7.34-19.28,17.49-36.18,30.46-50.69,12.97-14.51,28.08-25.86,45.31-34.05,17.24-8.19,35.58-12.29,55.04-12.29s37.8,4.09,55.04,12.29c17.24,8.19,32.34,19.54,45.31,34.05,12.97,14.51,23.12,31.41,30.46,50.69,7.34,19.28,11.01,39.85,11.01,61.7" vector-effect="none" fill="url(#1776131386665-3177862_linear-gradient-47)"></path><path class="cls-2" d="M315.41,255.99c0,21.45-3.61,41.64-10.81,60.59-7.21,18.93-17.18,35.53-29.91,49.78-12.74,14.24-27.58,25.39-44.49,33.44-16.93,8.04-34.94,12.07-54.05,12.07s-37.12-4.02-54.05-12.07c-16.93-8.04-31.76-19.19-44.49-33.44-12.74-14.24-22.71-30.84-29.91-49.78-7.21-18.93-10.81-39.13-10.81-60.59s3.61-41.65,10.81-60.59,17.17-35.53,29.91-49.78c12.73-14.24,27.57-25.39,44.49-33.44s34.94-12.07,54.05-12.07,37.12,4.02,54.05,12.07c16.92,8.04,31.76,19.19,44.49,33.44,12.73,14.24,22.7,30.84,29.91,49.78,7.2,18.93,10.81,39.13,10.81,60.59" vector-effect="none" fill="#cfd5dc"></path><path class="cls-1" d="M44.03,210.43l106.5-106.5c3.08-.68,6.23-1.2,9.47-1.53,3.24-.34,6.57-.68,9.98-1.03L39.93,231.94c1.03-7.17,2.39-14.33,4.1-21.51M301.57,192.51l-196.1,196.1c-19.11-12.97-34.65-29.87-46.58-50.69l202.75-202.76c17.41,15.36,30.72,34.48,39.93,57.35M299.01,324.61l-76.29,76.29c-14,5.81-28.33,8.88-43.01,9.22l132.61-132.1c-2.39,16.04-6.83,31.57-13.31,46.59M37.89,258.05L193.03,102.4c18.43,2.73,35.5,9.22,51.19,19.46L49.15,316.93c-7.17-19.11-10.92-38.74-11.26-58.88" vector-effect="none" fill="#e6eaee"></path></g></svg>