<svg data-name="Layer 1" xmlns="http://www.w3.org/2000/svg" style="" viewBox="0 0 630.15 512"><g class="nc-icon-wrapper"><defs><linearGradient id="1776867898108-3628109_linear-gradient" x1="8.56" y1="316.84" x2="609.87" y2="316.84" gradientTransform="matrix(1 0 0 -1 0 514)" gradientUnits="userSpaceOnUse"><stop offset="0" stop-color="#5b666e"></stop><stop offset=".23" stop-color="#515862"></stop><stop offset="1" stop-color="#302c3b"></stop></linearGradient><linearGradient id="1776867898108-3628109_linear-gradient-2" x1="0" y1="210.04" x2="630.15" y2="210.04" gradientTransform="matrix(1 0 0 -1 0 514)" gradientUnits="userSpaceOnUse"><stop offset="0" stop-color="#9be323"></stop><stop offset="1" stop-color="#52a100"></stop></linearGradient><linearGradient id="1776867898108-3628109_linear-gradient-3" x1="315.07" y1="57.8" x2="315.07" y2="196.25" gradientTransform="matrix(1 0 0 -1 0 514)" gradientUnits="userSpaceOnUse"><stop offset="0" stop-color="#009af7"></stop><stop offset=".12" stop-color="#0da3f4"></stop><stop offset=".5" stop-color="#30baec"></stop><stop offset=".8" stop-color="#46c9e8"></stop><stop offset="1" stop-color="#4ecee6"></stop></linearGradient></defs><path class="cls-6" d="M8.63,293.15c20.35-63.64,86.01-50.41,99.5-106.11,57.17-37.18,139.53-126.5,139.53-126.5h106.39l255.82,232.61c-89.02,26.4-200.92,27.4-200.92,27.4l-113.37,13.24s-134.75-2.45-159.1-20.97l-68.39-8.41s-61.98-3.38-59.46-11.26Z" fill="url(#1776867898108-3628109_linear-gradient)"></path><path class="cls-5" d="M303.54,60.53l6.38,62.85-23.31,23.64-12.8,41.76-65.76,46.19,108.47-48.8-41.99,31.99,18.91,57.41-65.08-20.59,67.22,78.8,113.37-13.24-38.05-95.73,134.99,65.87-88.29-87.61-23.14-53.99,104.33,77.33s34.79,63.38,111.07,66.73c-14.03-25.52-44.41-38.21-55.86-57.82-14.21-24.38-45.93-39.22-55.22-58.63-43.46-39.25-195.26-116.15-195.26-116.15Z" fill="#1a1626"></path><path class="cls-5" d="M204.45 170.18L180.94 212.69 37.11 281.88 200.84 213.93 216.08 177.52 286.95 86.79 204.45 170.18z" fill="#1a1626"></path><path class="cls-5" d="M176.17,257.34c-66.14,21.62-108.06,47.07-108.06,47.07l68.39,8.41s12.07-36.75,39.67-55.48Z" fill="#1a1626"></path><path class="cls-7" d="M379.51,106.59S350.24,0,345.21,0c-2.38,0-4.6.86-8.98,2.24-9.75,3.06-10.71,1.02-19.69-1.06-7.31-1.7-13.19,2.43-17.59,4.93-18.01,10.26-45.98,47.98-61.35,61.4-70.15,51.96-101.11,98.72-101.11,98.72l46.07-17.79-11.89,24.73s34.44-12.28,56.78-23.95c13.31-6.98,34.69-32.44,37.54-27.41,4.7,8.29-18.54,32.63-18.54,32.63l11.04-3.07-11.04,20.04,32.23-26.97-16.98,28.72s24.29-26.53,29.78-30.05c38.9-24.79-17.83,36.14-17.83,36.14,0,0,65.23-30.94,87.72-33.98,29.2-3.89,61.81,23.07,61.81,23.07l-43.68-61.74Z" fill="#e6ebef"></path><path class="cls-2" d="M419.99,78.59c-22.21-17.05-36.88-50.41-57.54-69.02-3.56-3.25-11.83-9.57-17.24-9.57-11.3,0-19.33,32.48-29.73,38.57,0,0,6.34,6.97,2.59,21.77,0,0,12.3-12.76,12.3-2.89,0,19.71,16.2,18.54,19.23,27.56,12.27,36.27,31.84,61.22,41.1,64.7,18.16,6.86,32.36,18.72,32.36,18.72l-7.51-18.27c23.38-.91,37.07,11.31,37.07,11.31,0,0,17.77-9.24,46.19,15.24-18.49-38.55-47.62-74.24-78.82-98.11Z" fill="#b3c2c6"></path><path class="cls-7" d="M414.77,133.64s-26.32-27.53-71.4-96.83c41.96,101.91,71.4,96.83,71.4,96.83Z" fill="#e6ebef"></path><path class="cls-2" d="M237.6,118.72s26.3-27.5,71.4-96.81c-41.96,101.91-71.4,96.81-71.4,96.81Z" fill="#b3c2c6"></path><path class="cls-2" d="M197.96,118.39s20.59-13.79,58.5-52.02c-39.66,60.29-58.5,52.02-58.5,52.02Z" fill="#b3c2c6"></path><path class="cls-7" d="M417.31,100.11s-16.18-16.94-43.93-59.56c25.83,62.68,43.93,59.56,43.93,59.56Z" fill="#e6ebef"></path><path class="cls-2" d="M315.49,78.59s5.38,13.72,9.31,16.21c3.94,2.54,15.12,13.33,15.12,17.64s11.1,20.22,15.03,20.93c4.03.72-9.49,1.44-24.59-19.46-15.12-20.94-14.88,15.09-14.88,15.09,0,0-11.62-18.64,0-50.42Z" fill="#b3c2c6"></path><path class="cls-4" d="M0,317.75c0-32.54,15.4-54.34,30.56-50.89,14.28-26.43,45.31-22.07,42.41-.69,7.52-2.04,29.01,11.27,25.72,23.65,16.02-11.24,37.34-2.25,43.7,7.78,7.69-12.52,50.75-22,56.47,6.72,10.09-20.45,51.04-21.57,65.02-8.03,9.75-22.25,51.43-14.39,60.78,14.06,16.76-31.51,53.37-35.01,71.9-21.81,4.96-8.44,38-25.33,56.49-2.82,14.68-12.62,44.35-13.11,55.73,6.08-5.07-35.96,22.87-38.03,40.22-29.29-3.73-19.3,29.8-18.07,35.83-3.44,8.57-5.31,24.81,1.44,23.73,22.81,12.95-1.89,21.6,21.53,21.6,35.88,0,0-255.37,94.78-630.15,0Z" fill="url(#1776867898108-3628109_linear-gradient-2)"></path><path class="cls-3" d="M630.15,317.75c-215.32,16.13-414.8,16.13-630.15,0,0,7.31,22.69,12.78,56.69,16.44-23.71,3.51-38.75,8.2-38.75,14.12,0,9.64,39.46,16.07,92.23,19.36-31.34,3.62-52.07,8.91-52.07,15.86,0,10.76,49.11,17.55,111.07,20.34-23.59,3.08-38.82,7.36-38.82,12.86,0,9.89,48.98,15.81,107.77,17.8-21.85,2-36.94,5.2-36.94,9.61,0,14.93,171.52,15.98,196.1,3.2,57.85-.77,111.35-5.85,111.35-15.25,0-5.73-19.94-9.86-48.6-12.39,52.29-2.41,93.65-8.15,93.65-17.24,0-3.81-7.28-7.02-19.51-9.65,34.61-3.64,57.83-9.15,57.83-16.52,0-6.56-18.36-11.66-46.69-15.26,44.46-3.52,76.09-9.56,76.09-18.2,0-4.66-9.25-8.57-24.72-11.72,20.71-3.43,33.47-7.87,33.47-13.37Z" fill="url(#1776867898108-3628109_linear-gradient-3)"></path><path class="cls-1" d="M458.53,469.14c0,13.84-171.59,13.84-171.59,0,0-13.86,171.59-13.86,171.59,0Z" fill="#129fdb"></path><path class="cls-1" d="M390.62,491.75c0,12.11-150.25,12.11-150.25,0s150.25-12.11,150.25,0Z" fill="#129fdb"></path><path class="cls-1" d="M394.3,505.49c0,8.68-107.34,8.68-107.34,0,0-8.65,107.34-8.65,107.34,0Z" fill="#129fdb"></path></g></svg>