<svg data-name="Layer 1" xmlns="http://www.w3.org/2000/svg" style="" viewBox="0 0 512.05 512"><g class="nc-icon-wrapper"><defs><linearGradient id="1776923831701-8045575_linear-gradient" x1="369.71" y1="811.47" x2="369.71" y2="494.84" gradientTransform="translate(94 -442)" gradientUnits="userSpaceOnUse"><stop offset="0" stop-color="#1a1626"></stop><stop offset=".23" stop-color="#1d1929"></stop><stop offset=".44" stop-color="#262434"></stop><stop offset=".63" stop-color="#363646"></stop><stop offset=".82" stop-color="#4c4f5f"></stop><stop offset="1" stop-color="#696f80"></stop></linearGradient><radialGradient id="1776923831701-8045575_radial-gradient" cx="429.35" cy="81.02" fx="400.6" fy="42.88" r="58.7" gradientTransform="matrix(1.06 0 0 -.85 -83.66 442.82)" gradientUnits="userSpaceOnUse"><stop offset="0" stop-color="#696f80"></stop><stop offset=".24" stop-color="#666c7d"></stop><stop offset=".44" stop-color="#5d6172"></stop><stop offset=".63" stop-color="#4d5060"></stop><stop offset=".81" stop-color="#373748"></stop><stop offset=".99" stop-color="#1c1828"></stop><stop offset="1" stop-color="#1a1626"></stop></radialGradient><linearGradient id="1776923831701-8045575_linear-gradient-2" x1="102.77" y1="817.69" x2="102.77" y2="501.01" gradientTransform="rotate(-3.96 -5156.181 -2003.77)" gradientUnits="userSpaceOnUse"><stop offset="0" stop-color="#1a1626"></stop><stop offset=".23" stop-color="#1d1929"></stop><stop offset=".44" stop-color="#262434"></stop><stop offset=".63" stop-color="#363646"></stop><stop offset=".82" stop-color="#4c4f5f"></stop><stop offset="1" stop-color="#696f80"></stop></linearGradient><radialGradient id="1776923831701-8045575_radial-gradient-2" cx="178.35" cy="59.42" fx="149.59" fy="21.26" r="58.73" gradientTransform="rotate(3.96 7554.463 129.253) scale(1.06 -.85)" gradientUnits="userSpaceOnUse"><stop offset="0" stop-color="#696f80"></stop><stop offset=".24" stop-color="#666c7d"></stop><stop offset=".44" stop-color="#5d6172"></stop><stop offset=".63" stop-color="#4d5060"></stop><stop offset=".81" stop-color="#373748"></stop><stop offset=".99" stop-color="#1c1828"></stop><stop offset="1" stop-color="#1a1626"></stop></radialGradient><linearGradient id="1776923831701-8045575_linear-gradient-3" x1="-42.38" y1="642.81" x2="-42.38" y2="326.15" gradientTransform="rotate(-5.42 -3432.323 -1636.593)" gradientUnits="userSpaceOnUse"><stop offset="0" stop-color="#1a1626"></stop><stop offset=".23" stop-color="#1d1929"></stop><stop offset=".44" stop-color="#262434"></stop><stop offset=".63" stop-color="#363646"></stop><stop offset=".82" stop-color="#4c4f5f"></stop><stop offset="1" stop-color="#696f80"></stop></linearGradient><radialGradient id="1776923831701-8045575_radial-gradient-3" cx="41.76" cy="256.59" fx="12.99" fy="218.42" r="58.75" gradientTransform="matrix(1.05526 -.10012 -.08029 -.8462 44.02 546.38)" gradientUnits="userSpaceOnUse"><stop offset="0" stop-color="#696f80"></stop><stop offset=".24" stop-color="#666c7d"></stop><stop offset=".44" stop-color="#5d6172"></stop><stop offset=".63" stop-color="#4d5060"></stop><stop offset=".81" stop-color="#373748"></stop><stop offset=".99" stop-color="#1c1828"></stop><stop offset="1" stop-color="#1a1626"></stop></radialGradient></defs><path class="cls-6" d="M439.69,365.52c-4.35-104.71.94-224.7.94-224.7,27.65,7.85,46.94,70.32,17.92,126.04-5.46,10.5,12.89,7.25,20.57-1.96,77.91-93.45-3.41-179.55-29.61-204.39-15.7-14.85-34.14-7.51-34.14,16.3,0,38.32,1.88,204.3,3.16,264.72.26,13.4,21.68,37.38,21.16,23.98Z" fill="url(#1776923831701-8045575_linear-gradient)"></path><ellipse class="cls-5" cx="372.87" cy="374.14" rx="67.76" ry="53.25" fill="url(#1776923831701-8045575_radial-gradient)"></ellipse><path class="cls-4" d="M260.9,445.49c-11.61-104.2-14.59-224.27-14.59-224.27,28.16,5.97,51.72,66.91,26.54,124.51-4.78,10.92,13.31,6.32,20.4-3.41,71.34-98.48-15.79-178.78-43.69-201.83-16.73-13.74-34.56-5.12-32.94,18.6,2.65,38.23,16.04,203.7,21.42,263.95,1.28,13.31,24.32,35.76,22.87,22.44Z" fill="url(#1776923831701-8045575_linear-gradient-2)"></path><path class="cls-2" d="M262.44,454.02c2.05,29.36-26.63,55.21-63.92,57.77-37.38,2.56-69.29-19.12-71.34-48.47s26.63-55.21,63.92-57.77,69.38,19.12,71.34,48.47Z" fill="url(#1776923831701-8045575_radial-gradient-2)"></path><path class="cls-3" d="M133.41,310.74c-14.17-103.86-20.23-223.76-20.23-223.76,28.25,5.21,53.42,65.54,29.7,123.74-4.44,11.01,13.48,5.97,20.31-3.93C231.97,106.52,142.88,28.44,114.38,6.17c-17.07-13.31-34.65-4.27-32.43,19.46,3.58,38.15,21.16,203.19,28.08,263.27,1.54,13.31,25.17,35.16,23.38,21.85Z" fill="url(#1776923831701-8045575_linear-gradient-3)"></path><path class="cls-1" d="M135.2,319.27c2.82,29.27-25.17,55.9-62.47,59.4-37.29,3.5-69.72-17.32-72.54-46.59-2.82-29.27,25.17-55.9,62.47-59.4,37.29-3.5,69.72,17.32,72.54,46.59Z" fill="url(#1776923831701-8045575_radial-gradient-3)"></path></g></svg>