<svg data-name="Layer 1" xmlns="http://www.w3.org/2000/svg" style="" viewBox="0 0 767.54 512"><g class="nc-icon-wrapper"><defs><radialGradient id="1776867898112-1719719_radial-gradient" cx="384.5" cy="869.32" fx="384.5" fy="869.32" r="458.99" gradientTransform="matrix(.82 0 0 .57 69.74 -240.96)" gradientUnits="userSpaceOnUse"><stop offset="0" stop-color="#3d291c"></stop><stop offset=".28" stop-color="#432d1f"></stop><stop offset=".63" stop-color="#533826"></stop><stop offset="1" stop-color="#6b4831"></stop></radialGradient><radialGradient id="1776867898112-1719719_radial-gradient-2" cx="-1251.02" cy="-434.46" fx="-1251.02" fy="-434.46" r="517" gradientTransform="matrix(.14 -.24249 -.1732 -.1 599.94 -189.04)" gradientUnits="userSpaceOnUse"><stop offset="0" stop-color="#28edd5"></stop><stop offset=".15" stop-color="#27e8d0"></stop><stop offset=".33" stop-color="#22d9c3"></stop><stop offset=".53" stop-color="#1bc0ad"></stop><stop offset=".75" stop-color="#129e8d"></stop><stop offset=".97" stop-color="#057366"></stop><stop offset="1" stop-color="#036b5f"></stop></radialGradient><radialGradient id="1776867898112-1719719_radial-gradient-3" cx="-1370.02" cy="-490.46" fx="-1076.02" fy="-695.46" r="452" gradientTransform="matrix(.14 -.24249 -.1732 -.1 599.94 -189.04)" gradientUnits="userSpaceOnUse"><stop offset="0" stop-color="#99fff3"></stop><stop offset="1" stop-color="#99fff3" stop-opacity="0"></stop></radialGradient><radialGradient id="1776867898112-1719719_radial-gradient-4" cx="-977.09" cy="-215.61" fx="-977.09" fy="-215.61" r="517" gradientTransform="matrix(-.04862 -.27575 .19696 -.03473 244.48 -125.95)" gradientUnits="userSpaceOnUse"><stop offset="0" stop-color="#28edd5"></stop><stop offset=".15" stop-color="#27e8d0"></stop><stop offset=".33" stop-color="#22d9c3"></stop><stop offset=".53" stop-color="#1bc0ad"></stop><stop offset=".75" stop-color="#129e8d"></stop><stop offset=".97" stop-color="#057366"></stop><stop offset="1" stop-color="#036b5f"></stop></radialGradient><radialGradient id="1776867898112-1719719_radial-gradient-5" cx="-1096.09" cy="-159.61" fx="-802.09" fy="45.39" r="452" gradientTransform="matrix(-.04862 -.27575 .19696 -.03473 244.48 -125.95)" gradientUnits="userSpaceOnUse"><stop offset="0" stop-color="#99fff3"></stop><stop offset="1" stop-color="#99fff3" stop-opacity="0"></stop></radialGradient></defs><path class="cls-6" d="M14.73,224.32c0-31.64,9.41-60.96,28.23-87.96,18.82-27,44.73-50.19,77.74-69.55,33-19.37,71.46-34.09,115.38-44.19s90.69-14.32,140.33-12.68c81.83,2.18,150.29,13.64,205.39,34.37,55.1,20.73,96.83,48.14,125.2,82.24,28.37,34.09,43.91,72.14,46.64,114.15,2.73,50.19-9.55,94.1-36.82,131.74-27.28,37.64-69.42,67.37-126.42,89.19s-128.33,33.82-213.98,36c-58.37,1.64-110.06-5.46-155.06-21.28-45.01-15.82-82.92-37.37-113.74-64.64-30.82-27.28-54.01-57.28-69.55-90.01-15.55-32.73-23.32-65.19-23.32-97.37Z" fill="url(#1776867898112-1719719_radial-gradient)"></path><path class="cls-7" d="M423.05,78.67c19.09-2.18,38.46-3.82,58.1-4.91s39.28-.82,58.92.82c19.64,1.09,39.14,3.55,58.51,7.36s38.6,9.55,57.69,17.18c9.27,3.82,18.41,8.32,27.41,13.5s17.59,11.59,25.78,19.23c8.18,8.18,14.73,17.46,19.64,27.82,4.91,10.91,7.36,22.64,7.36,35.19-.55,12.55-3,24-7.36,34.37-4.36,10.36-9.55,19.91-15.55,28.64-12.55,16.37-26.73,31.37-42.55,45.01,6-8.18,12-16.5,18-24.96s11.46-17.32,16.37-26.59c4.91-8.73,8.86-17.87,11.86-27.41,3-9.55,4.5-18.96,4.5-28.23-.55-9.27-3-18.27-7.36-27-4.36-7.64-10.09-14.73-17.18-21.28-7.09-6-14.73-11.32-22.91-15.96s-16.64-8.86-25.37-12.68c-17.46-7.09-35.46-12.82-54.01-17.18-18.55-4.36-37.37-7.91-56.46-10.64-19.09-2.73-38.19-5.05-57.28-6.96s-38.46-3.68-58.1-5.32ZM744.63,227.6c-2.18,8.73-4.64,17.05-7.36,24.96s-5.46,15.96-8.18,24.14c-3.27,7.64-6.82,15.41-10.64,23.32-3.82,7.91-8.18,15.41-13.09,22.5l-16.37,19.64c-3.27,2.73-6.27,5.59-9,8.59s-5.73,5.86-9,8.59c-6.55,5.46-13.37,10.36-20.46,14.73s-14.73,7.09-22.91,8.18c6.55-5.46,12.41-11.18,17.59-17.18s10.23-12,15.14-18l29.46-37.64c2.73-2.73,5.05-5.86,6.96-9.41s3.95-6.96,6.14-10.23,4.23-6.68,6.14-10.23,3.95-7.23,6.14-11.05c4.36-7.09,9-14.05,13.91-20.87,4.91-6.82,10.09-13.5,15.55-20.05ZM109.65,104.86c-9.27,2.18-18.55,4.64-27.82,7.36-9.27,2.73-17.18,6.82-23.73,12.27-13.64,10.91-18.82,26.46-15.55,46.64,1.09,9.27,3.41,18.41,6.96,27.41s7.77,17.87,12.68,26.59,10.36,17.05,16.37,24.96c6,7.91,12.55,15.68,19.64,23.32-18-7.64-34.09-20.46-48.28-38.46-6.55-8.18-12.27-17.46-17.18-27.82s-8.18-21.55-9.82-33.55-.27-24,4.09-36c2.73-6,6-11.46,9.82-16.37s8.18-8.46,13.09-10.64c9.82-5.46,19.91-8.32,30.28-8.59,10.36-.27,20.18.68,29.46,2.86Z" fill="#6b4831"></path><path class="cls-7" d="M76.92,114.68c9.27-8.18,18.82-16.09,28.64-23.73s20.18-14.73,31.09-21.28c10.36-6,21.41-11.46,33.14-16.37s23.87-7.64,36.41-8.18c12.55-1.09,24.68-1.09,36.41,0,11.73,1.09,23.59,1.64,35.59,1.64s23.05-.41,34.78-1.23,23.32-1.77,34.78-2.86c23.46-2.73,46.78-6.41,69.96-11.05,23.18-4.64,46.78-8.32,70.78-11.05,12-1.64,24.14-2.59,36.41-2.86,12.27-.27,24.41.95,36.41,3.68,25.09,4.91,46.37,16.37,63.83,34.37-20.73-15.27-42.55-24-65.46-26.18-11.46-.55-23.05-.41-34.78.41s-23.32,2.32-34.78,4.5c-22.91,4.91-46.1,10.09-69.55,15.55-23.46,5.46-46.91,9.82-70.37,13.09-12,1.64-24,2.86-36,3.68-12,.82-24.28,1.23-36.82,1.23s-24-.82-36-2.45c-12-1.64-23.46-2.45-34.37-2.45-11.46,0-22.64,1.64-33.55,4.91-10.91,3.27-21.82,7.36-32.73,12.27s-21.68,10.36-32.32,16.37-21.14,12-31.5,18ZM604.7,233.32c3.27-3.82,6.27-7.36,9-10.64,1.09-2.18,2.18-4.09,3.27-5.73s2.18-3.55,3.27-5.73c1.64-3.82,3-7.5,4.09-11.05s1.36-7.23.82-11.05c-.55-7.09-3.27-13.64-8.18-19.64s-10.36-11.18-16.37-15.55c-6.55-4.91-13.5-9.27-20.87-13.09s-14.87-7.36-22.5-10.64-15.41-6.14-23.32-8.59-15.96-5.32-24.14-8.59c16.91-2.73,34.09-2.32,51.55,1.23,17.46,3.55,34.09,10.77,49.91,21.68,3.82,2.73,7.5,5.86,11.05,9.41s6.68,7.5,9.41,11.86,5.05,9.41,6.96,15.14,2.59,11.32,2.05,16.77c0,6-1.36,11.46-4.09,16.37-2.73,4.91-5.73,9-9,12.27-1.64,1.64-3.41,3.27-5.32,4.91s-3.68,3-5.32,4.09c-3.82,2.18-7.91,4.36-12.27,6.55Z" fill="#6b4831"></path><path class="cls-7" d="M228.3,305.33c-14.18,1.64-28.64,1.91-43.37.82-14.73-1.09-29.19-4.91-43.37-11.46-13.64-6-26.18-15.55-37.64-28.64s-18.82-28.64-22.09-46.64c-.55-2.18-.82-4.36-.82-6.55v-20.46l3.27-12.27c.55-5.46,1.91-9.82,4.09-13.09,1.64-3.82,3.55-7.64,5.73-11.46s4.64-7.09,7.36-9.82c1.09-1.64,2.32-3.27,3.68-4.91s2.59-3.27,3.68-4.91l9-8.18c12.55-10.36,25.91-17.87,40.1-22.5,14.18-4.64,28.37-7.5,42.55-8.59-13.64,5.46-26.73,11.59-39.28,18.41s-23.73,15.41-33.55,25.78l-7.36,7.36c-1.09,1.64-2.05,3.14-2.86,4.5s-1.77,2.86-2.86,4.5c-2.18,2.73-3.95,5.59-5.32,8.59s-2.86,6.14-4.5,9.41-2.59,6.68-2.86,10.23-.95,6.96-2.05,10.23v9.82c0,4.36.27,7.91.82,10.64,2.18,13.64,7.64,25.91,16.37,36.82s19.09,19.91,31.09,27c12,6.55,24.82,11.73,38.46,15.55,13.64,3.82,27.55,7.09,41.73,9.82Z" fill="#6b4831"></path><path class="cls-7" d="M499.15,153.95c-15.27,5.46-30.96,8.46-47.05,9-16.09.55-31.78.27-47.05-.82-15.82-1.09-31.5-2.59-47.05-4.5-15.55-1.91-30.96-3.68-46.23-5.32s-30.55-2.86-45.82-3.68c-15.27-.82-30,.41-44.19,3.68-7.09,1.64-13.64,4.5-19.64,8.59s-10.91,9.41-14.73,15.96c-4.36,6.55-7.36,13.91-9,22.09s-2.73,16.64-3.27,25.37c-1.64-8.18-2.32-16.91-2.05-26.18s2.05-18.27,5.32-27c2.18-4.36,4.64-8.32,7.36-11.86,2.73-3.55,5.73-6.96,9-10.23,7.64-6,15.27-10.36,22.91-13.09,15.82-5.46,31.91-8.05,48.28-7.77,16.37.27,32.19,1.23,47.46,2.86,15.82,1.64,31.5,3.82,47.05,6.55s30.96,5.46,46.23,8.18c15.27,2.73,30.55,5.18,45.82,7.36s30.82,2.45,46.64.82Z" fill="#6b4831"></path><path class="cls-7" d="M570.34,257.05c4.36-3.82,8.46-7.36,12.27-10.64,2.18-2.18,4.09-4.23,5.73-6.14s3.27-3.95,4.91-6.14c2.73-3.82,5.05-7.91,6.96-12.27s2.32-8.73,1.23-13.09c-1.09-8.18-5.32-15.55-12.68-22.09s-15.41-12-24.14-16.37-17.87-8.05-27.41-11.05-19.23-5.86-29.05-8.59-19.77-4.91-29.87-6.55-20.32-3.27-30.69-4.91c10.36-2.73,20.73-4.5,31.09-5.32s21-.68,31.91.41c10.36.55,20.87,2.18,31.5,4.91s20.87,6.82,30.69,12.27c4.91,2.73,9.68,5.73,14.32,9s9.14,7.09,13.5,11.46c4.36,4.36,8.05,9.68,11.05,15.96s4.77,12.96,5.32,20.05c0,7.64-1.91,14.32-5.73,20.05s-7.64,10.5-11.46,14.32c-2.73,1.64-5.18,3.27-7.36,4.91s-4.36,3-6.55,4.09c-5.46,2.18-10.64,4.09-15.55,5.73Z" fill="#6b4831"></path><path class="cls-5" d="M722.54,146.59c-6.55-8.18-13.37-15.68-20.46-22.5-7.09-6.82-14.73-12.68-22.91-17.59-7.64-4.91-15.82-8.46-24.55-10.64-4.36-1.64-8.86-2.73-13.5-3.27s-9.41-1.36-14.32-2.45c-18.55-3.27-37.23-6.41-56.05-9.41-18.82-3-37.78-5.32-56.87-6.96-18.55-1.64-37.23-2.86-56.05-3.68-18.82-.82-38.05-1.23-57.69-1.23-19.09-.55-38.19-1.64-57.28-3.27-19.09-1.64-38.19-4.91-57.28-9.82,19.09,1.09,38.19,1.23,57.28.41,19.09-.82,38.19-2.05,57.28-3.68,19.09-1.09,38.32-1.77,57.69-2.05s38.6.41,57.69,2.05c19.64,1.64,39,4.09,58.1,7.36,19.09,3.27,37.91,7.36,56.46,12.27,9.27,1.64,18.82,4.36,28.64,8.18s18.82,9,27,15.55c8.18,6.55,15.27,14.18,21.28,22.91,6,8.73,11.18,18,15.55,27.82Z" fill="#80563a"></path><path class="cls-5" d="M604.7,55.76c-17.46-5.46-34.91-10.5-52.37-15.14-17.46-4.64-34.91-7.77-52.37-9.41s-34.91-1.36-52.37.82c-8.18,1.09-16.91,2.59-26.18,4.5-9.27,1.91-18.55,3.14-27.82,3.68-37.64,5.46-74.46,5.18-110.47-.82-8.73-1.09-17.59-2.45-26.59-4.09s-17.87-2.45-26.59-2.45c-9.27-.55-18.27.27-27,2.45s-17.46,4.64-26.18,7.36c8.18-4.36,16.64-8.18,25.37-11.46s17.73-5.46,27-6.55c9.27-.55,18.55-.55,27.82,0s18.55,1.09,27.82,1.64c34.91,2.18,70.64.27,107.19-5.73,8.73-1.09,17.46-2.59,26.18-4.5,8.73-1.91,17.73-3.68,27-5.32,19.09-2.73,38.19-2.45,57.28.82,18.55,2.73,36.41,8.18,53.6,16.37,17.18,8.18,33.41,17.46,48.69,27.82ZM247.94,96.67c-21.28,6.55-42,15.27-62.19,26.18-9.82,5.46-19.23,11.32-28.23,17.59s-17.05,13.5-24.14,21.68c-7.64,8.18-13.23,17.32-16.77,27.41s-3.95,20.32-1.23,30.69c2.18,10.91,6.68,21.14,13.5,30.69s14.05,19.23,21.68,29.05c-9.82-6-19.37-13.37-28.64-22.09s-16.37-19.64-21.28-32.73c-1.09-3.27-2.05-6.55-2.86-9.82s-1.23-6.82-1.23-10.64v-5.73c0-1.64.27-3.55.82-5.73l2.45-10.64c1.64-6.55,4.23-12.82,7.77-18.82s7.5-11.46,11.86-16.37c8.73-9.27,18.27-17.18,28.64-23.73s21-12,31.91-16.37c10.91-3.82,22.09-6.82,33.55-9s22.91-2.73,34.37-1.64ZM615.34,206.32c0-8.73-1.91-16.77-5.73-24.14s-8.73-13.77-14.73-19.23c-6-4.91-12.41-9.27-19.23-13.09s-13.77-7.36-20.87-10.64c-14.73-6-29.73-10.91-45.01-14.73-15.27-3.82-30.55-7.09-45.82-9.82-15.82-2.73-31.5-5.05-47.05-6.96-15.55-1.91-31.23-3.41-47.05-4.5-32.19-2.18-64.1-3.27-95.74-3.27,31.09-8.18,63.01-12.68,95.74-13.5s64.92,1.5,96.56,6.96c16.37,3.27,32.46,7.23,48.28,11.86,15.82,4.64,31.09,11.05,45.82,19.23,7.09,3.82,14.18,8.32,21.28,13.5s13.64,11.05,19.64,17.59c5.46,7.09,9.68,15.14,12.68,24.14s3.41,17.87,1.23,26.59Z" fill="#80563a"></path><path class="cls-5" d="M509.78,133.5l-73.64-4.91c-24.55-1.64-48.82-2.18-72.83-1.64-24.55.55-48.96,1.91-73.24,4.09-24.28,2.18-48.69,4.91-73.24,8.18,22.91-11.46,46.78-19.77,71.6-24.96,24.82-5.18,49.51-8.05,74.05-8.59,25.09,0,50.05,2.18,74.87,6.55s48.96,11.46,72.42,21.28ZM604.7,95.04c21.28,1.64,40.91,6.55,58.92,14.73,9.27,3.82,18.27,9,27,15.55,8.73,6.55,16.64,14.18,23.73,22.91,14.73,19.09,22.64,40.64,23.73,64.64.55,11.46-.55,22.64-3.27,33.55s-6.27,21.28-10.64,31.09c.55-10.91.95-21.68,1.23-32.32.27-10.64-.41-20.87-2.05-30.69-3.82-20.18-11.73-37.64-23.73-52.37-5.46-7.64-12-14.46-19.64-20.46s-15.27-11.73-22.91-17.18c-8.18-5.46-16.64-10.5-25.37-15.14s-17.73-9.41-27-14.32ZM67.1,230.87c-2.18-2.18-4.23-4.36-6.14-6.55s-3.68-4.36-5.32-6.55c-1.09-2.73-2.45-5.46-4.09-8.18s-2.73-5.73-3.27-9c-3.82-13.64-3.82-26.46,0-38.46,3.82-13.09,9.68-24.28,17.59-33.55,7.91-9.27,16.23-17.46,24.96-24.55,18.55-13.64,38.46-24,59.73-31.09,10.36-3.27,21-5.86,31.91-7.77,10.91-1.91,21.82-2.59,32.73-2.05-10.36,3.82-20.46,7.77-30.28,11.86s-19.37,8.59-28.64,13.5c-9.82,4.91-19.23,9.96-28.23,15.14s-17.59,11.05-25.78,17.59-15.82,13.64-22.91,21.28c-7.09,7.64-12.82,16.09-17.18,25.37-8.73,19.64-7.09,40.64,4.91,63.01Z" fill="#80563a"></path><path class="cls-8" d="M473.78,90.95c-22.37-.55-44.73-1.64-67.1-3.27-22.37-1.64-44.73-2.45-67.1-2.45-22.37-1.09-44.6-.95-66.69.41s-44.05,4.23-65.87,8.59c-10.36,1.64-20.87,3.95-31.5,6.96s-21.14,6.68-31.5,11.05c-9.82,4.91-19.37,10.36-28.64,16.37-9.27,6-17.18,13.37-23.73,22.09-9.27,12-14.46,25.91-15.55,41.73s1.5,31.37,7.77,46.64c6.27,15.27,15.41,27.55,27.41,36.82-10.36-4.91-19.09-12.68-26.18-23.32-7.09-10.64-12.27-22.23-15.55-34.78-3.82-12.55-4.64-25.64-2.45-39.28,2.18-13.64,6.82-25.91,13.91-36.82,7.09-10.91,15.68-20.18,25.78-27.82s20.32-13.91,30.69-18.82c10.91-5.46,21.96-9.82,33.14-13.09,11.18-3.27,22.23-6.27,33.14-9,22.91-4.91,45.82-7.64,68.73-8.18,22.91-.55,45.55.27,67.92,2.45s44.73,5.32,67.1,9.41c22.37,4.09,44.46,8.86,66.28,14.32ZM688.99,86.85c-16.91-12.55-35.05-19.64-54.42-21.28-19.37-1.64-39.14-3.55-59.32-5.73-9.82-1.09-19.77-2.59-29.87-4.5-10.09-1.91-19.77-3.68-29.05-5.32s-18.82-2.73-28.64-3.27-19.64-1.09-29.46-1.64c-38.73-1.09-77.87.55-117.42,4.91-39.55,4.36-79.51,5.73-119.88,4.09,39.28-6.55,78.55-13.37,117.83-20.46,39.28-7.09,79.37-10.36,120.29-9.82,9.82.55,19.77,1.23,29.87,2.05s20.32,2.32,30.69,4.5c9.82,2.18,19.5,4.36,29.05,6.55,9.55,2.18,19.23,4.36,29.05,6.55,9.27,1.64,18.96,3.27,29.05,4.91s20.05,4.09,29.87,7.36c9.82,2.73,19.23,6.68,28.23,11.86s17.05,11.59,24.14,19.23Z" fill="#966544"></path><path class="cls-8" d="M72.83,108.13c13.09-14.73,27.41-27.82,42.96-39.28s32.05-21.28,49.51-29.46c17.46-8.73,35.19-15.68,53.19-20.87s36.28-9.41,54.82-12.68C310.4.39,347.63-1.25,385,.94c37.37,2.18,74.05,6.55,110.06,13.09-36.55,2.18-73.24,3.55-110.06,4.09-36.82.55-73.24,3.55-109.24,9-35.46,5.46-70.51,14.59-105.15,27.41-34.64,12.82-67.23,30.69-97.78,53.6Z" fill="#966544"></path><path class="cls-4" d="M557.87,87.05c11.57,6.68,20.56,16.21,26.98,28.61,6.42,12.39,10.24,26.38,11.45,41.96,1.21,15.58-.05,31.68-3.78,48.31-3.74,16.63-10.03,32.6-18.87,47.91-8.84,15.31-19.1,28.01-30.79,38.09-11.69,10.08-23.99,17.48-36.91,22.18-12.92,4.7-25.93,6.64-39.03,5.81-13.1-.83-25.43-4.58-36.99-11.26s-20.98-15.48-28.25-26.41c-7.27-10.93-12.09-23.16-14.48-36.7-2.39-13.54-2.14-27.89.75-43.06,2.89-15.16,8.76-30.4,17.6-45.71,8.84-15.31,19.53-28.74,32.06-40.29,12.53-11.55,25.85-20.7,39.95-27.43,14.1-6.74,28.12-10.43,42.06-11.06,13.94-.64,26.7,2.38,38.26,9.06Z" fill="url(#1776867898112-1719719_radial-gradient-2)"></path><path class="cls-3" d="M557.87,87.05c11.57,6.68,20.56,16.21,26.98,28.61,6.42,12.39,10.24,26.38,11.45,41.96,1.21,15.58-.05,31.68-3.78,48.31-3.74,16.63-10.03,32.6-18.87,47.91-8.84,15.31-19.1,28.01-30.79,38.09-11.69,10.08-23.99,17.48-36.91,22.18-12.92,4.7-25.93,6.64-39.03,5.81-13.1-.83-25.43-4.58-36.99-11.26s-20.98-15.48-28.25-26.41c-7.27-10.93-12.09-23.16-14.48-36.7-2.39-13.54-2.14-27.89.75-43.06,2.89-15.16,8.76-30.4,17.6-45.71,8.84-15.31,19.53-28.74,32.06-40.29,12.53-11.55,25.85-20.7,39.95-27.43,14.1-6.74,28.12-10.43,42.06-11.06,13.94-.64,26.7,2.38,38.26,9.06Z" fill="url(#1776867898112-1719719_radial-gradient-3)"></path><path class="cls-2" d="M245.13,59.63c13.15-2.32,26.17-.8,39.06,4.57s24.8,13.63,35.75,24.78,20.33,24.3,28.16,39.44c7.83,15.14,13.28,31.42,16.35,48.83s3.37,33.74.9,48.98c-2.47,15.24-7.14,28.81-14.02,40.73-6.88,11.91-15.6,21.76-26.16,29.54s-22.42,12.84-35.58,15.16c-13.15,2.32-26.03,1.63-38.62-2.07s-24.16-9.97-34.69-18.81c-10.54-8.84-19.57-20-27.11-33.47-7.53-13.48-12.84-28.92-15.91-46.33s-3.52-34.57-1.35-51.48c2.18-16.91,6.5-32.47,12.97-46.7,6.47-14.23,14.84-26.07,25.11-35.52s21.98-15.34,35.14-17.66Z" fill="url(#1776867898112-1719719_radial-gradient-4)"></path><path class="cls-1" d="M245.13,59.63c13.15-2.32,26.17-.8,39.06,4.57s24.8,13.63,35.75,24.78,20.33,24.3,28.16,39.44c7.83,15.14,13.28,31.42,16.35,48.83s3.37,33.74.9,48.98c-2.47,15.24-7.14,28.81-14.02,40.73-6.88,11.91-15.6,21.76-26.16,29.54s-22.42,12.84-35.58,15.16c-13.15,2.32-26.03,1.63-38.62-2.07s-24.16-9.97-34.69-18.81c-10.54-8.84-19.57-20-27.11-33.47-7.53-13.48-12.84-28.92-15.91-46.33s-3.52-34.57-1.35-51.48c2.18-16.91,6.5-32.47,12.97-46.7,6.47-14.23,14.84-26.07,25.11-35.52s21.98-15.34,35.14-17.66Z" fill="url(#1776867898112-1719719_radial-gradient-5)"></path><path class="cls-7" d="M728.26,390.43c-17.46,5.46-33.96,12.41-49.51,20.87s-31.23,17.32-47.05,26.59c-8.18,4.91-16.23,9.55-24.14,13.91s-16.23,8.18-24.96,11.46c-8.73,3.82-17.73,6.68-27,8.59-9.27,1.91-18.55,2.59-27.82,2.05,16.91-7.64,33-16.23,48.28-25.78,15.27-9.55,30.82-19.23,46.64-29.05,8.18-4.36,16.5-8.59,24.96-12.68s17.05-7.5,25.78-10.23c8.73-3.27,17.73-5.46,27-6.55s18.55-.82,27.82.82ZM370.68,459.17c-20.18,7.64-41.05,11.73-62.6,12.27s-42.41-1.36-62.6-5.73c-21.28-4.91-41.46-12-60.55-21.28-19.09-9.27-37.64-19.91-55.64-31.91,10.36,1.64,20.59,3.95,30.69,6.96s20.05,5.86,29.87,8.59c9.82,3.27,19.64,6.27,29.46,9,9.82,2.73,19.64,5.18,29.46,7.36,20.18,4.91,40.23,8.46,60.14,10.64,19.91,2.18,40.5,3.55,61.78,4.09ZM276.58,390.43c-6,3.27-12,6.41-18,9.41-6,3-12.27,5.32-18.82,6.96-14.73,4.36-28.37,4.09-40.91-.82-3.27-1.09-6.41-2.32-9.41-3.68s-5.86-2.32-8.59-2.86c-3.27-1.09-6.27-1.64-9-1.64h-9.82c-6.55-.55-13.37-1.5-20.46-2.86-7.09-1.36-13.91-3.68-20.46-6.96-7.09-3.27-13.37-7.77-18.82-13.5s-10.09-11.59-13.91-17.59l-4.91-9.82-4.91-9.82c-2.73-6-6.27-11.46-10.64-16.37s-9-9.55-13.91-13.91-9.82-9.27-14.73-14.73c-10.36-10.91-16.91-23.73-19.64-38.46,6,13.64,13.91,24.55,23.73,32.73,4.91,4.36,10.23,8.32,15.96,11.86s11.32,8.05,16.77,13.5c5.46,4.91,10.09,10.64,13.91,17.18,2.18,2.73,4.23,5.46,6.14,8.18s3.95,5.46,6.14,8.18c3.82,4.91,7.91,9.41,12.27,13.5s9.27,7.5,14.73,10.23c4.91,2.73,10.36,4.91,16.37,6.55,6,1.64,12,3.27,18,4.91l9.82,2.45c3.27.55,6.82,1.36,10.64,2.45,3.27,1.64,6.41,3.27,9.41,4.91s5.86,3,8.59,4.09c11.46,6,23.59,7.91,36.41,5.73s25.5-5.46,38.05-9.82ZM610.43,326.61c-8.18,7.09-16.09,14.18-23.73,21.28-7.64,7.09-15,14.73-22.09,22.91-6.55,7.64-12.96,15.96-19.23,24.96s-13.77,17.59-22.5,25.78c-8.18,8.73-17.59,15.27-28.23,19.64-10.64,4.36-21.41,7.09-32.32,8.18s-21.55.95-31.91-.41-20.73-3.41-31.09-6.14c10.36-1.64,20.73-3.14,31.09-4.5,10.36-1.36,20.18-3.41,29.46-6.14,9.82-2.18,18.96-5.32,27.41-9.41s16.23-9.68,23.32-16.77c7.09-7.09,14.05-15,20.87-23.73s14.59-16.64,23.32-23.73c16.37-14.73,34.91-25.37,55.64-31.91ZM585.88,306.15c-15.82,3.27-31.5,6.68-47.05,10.23s-30.96,7.77-46.23,12.68c-30,10.91-58.37,24.82-85.1,41.73-14.18,8.18-28.5,16.5-42.96,24.96s-29.59,15.41-45.41,20.87c-15.82,4.91-31.91,7.91-48.28,9s-32.46.55-48.28-1.64c15.82-2.18,31.5-5.05,47.05-8.59,15.55-3.55,30.41-8.59,44.6-15.14,14.73-6,28.78-13.37,42.14-22.09,13.37-8.73,27.14-17.46,41.32-26.18,14.18-8.73,28.91-16.37,44.19-22.91,15.27-6.55,31.09-11.73,47.46-15.55,15.82-3.82,31.78-6.27,47.87-7.36,16.09-1.09,32.32-1.09,48.69,0Z" fill="#6b4831"></path><path class="cls-7" d="M416.5,328.24c-7.64,2.18-15.14,4.09-22.5,5.73-7.36,1.64-14.87,3.55-22.5,5.73-7.64,1.64-15.14,3.14-22.5,4.5-7.36,1.36-14.87,2.59-22.5,3.68-15.27,2.18-30.55,3.82-45.82,4.91-15.27,1.09-30.55,1.64-45.82,1.64-15.27-.55-30.55-1.64-45.82-3.27-15.27-1.64-30.55-4.64-45.82-9-7.64-2.18-15-4.91-22.09-8.18s-14.18-6.82-21.28-10.64c-13.64-8.18-26.73-16.91-39.28-26.18,14.73,6,29.05,11.59,42.96,16.77s28.23,9.14,42.96,11.86,29.46,4.64,44.19,5.73c14.73,1.09,29.73,1.64,45.01,1.64s29.59-.27,44.6-.82,30.14-.82,45.41-.82c14.73-1.09,29.73-1.91,45.01-2.45,15.27-.55,30.55-.82,45.82-.82Z" fill="#6b4831"></path><path class="cls-5" d="M247.94,321.7c-36.55,2.73-72.83,1.09-108.83-4.91-18-3.27-36.28-8.05-54.82-14.32-18.55-6.27-35.19-16.77-49.91-31.5-7.09-7.09-13.5-15.27-19.23-24.55-5.73-9.27-9.96-19.37-12.68-30.28-3.27-12-3.27-23.73,0-35.19,1.09-5.46,2.86-10.64,5.32-15.55s5.05-9.55,7.77-13.91c6-8.73,12.55-16.37,19.64-22.91s13.37-13.37,18.82-20.46c6.55-7.09,11.86-15,15.96-23.73,4.09-8.73,6.14-18.27,6.14-28.64,2.18,10.36,1.64,20.59-1.64,30.69s-7.64,19.5-13.09,28.23c-5.46,8.18-11.18,16.09-17.18,23.73s-11.18,15.27-15.55,22.91c-4.91,8.18-8.32,16.37-10.23,24.55s-1.5,16.37,1.23,24.55c4.91,16.91,14.18,31.91,27.82,45.01,12,12.55,26.32,22.09,42.96,28.64,16.64,6.55,33.69,12,51.14,16.37,35.46,8.73,70.92,15.82,106.38,21.28ZM665.26,165.41c3.27,7.09,6.27,14.73,9,22.91s4.09,16.91,4.09,26.18c.55,9.27-1.5,18.27-6.14,27s-10.77,15.27-18.41,19.64c-7.09,4.36-14.59,7.77-22.5,10.23s-15.68,4.5-23.32,6.14c-7.64,1.09-15.27,2.05-22.91,2.86s-15.27,1.5-22.91,2.05-15.27.82-22.91.82-15.27.27-22.91.82c-14.18.55-28.09,3.27-41.73,8.18-6.55,2.18-13.5,4.77-20.87,7.77-7.36,3-15.14,5.32-23.32,6.96-15.82,2.73-31.09,2.18-45.82-1.64,7.64-.55,15.14-1.64,22.5-3.27s14.32-3.82,20.87-6.55c7.09-2.73,13.91-5.86,20.46-9.41,6.55-3.55,13.37-7.23,20.46-11.05,7.09-3.27,14.73-6,22.91-8.18s16.09-3.55,23.73-4.09,15.27-.95,22.91-1.23,15.27-.41,22.91-.41c14.73-.55,29.59-1.5,44.6-2.86s28.78-5.05,41.32-11.05c13.09-7.09,20.73-18.27,22.91-33.55,1.09-7.64.95-15.55-.41-23.73-1.36-8.18-2.86-16.37-4.5-24.55Z" fill="#80563a"></path><path class="cls-5" d="M379.68,296.33c-6,1.09-12,2.05-18,2.86-6,.82-11.73,1.5-17.18,2.05-6,.55-12,.95-18,1.23-6,.27-12,.14-18-.41-24.55-1.09-48.28-5.46-71.19-13.09-12-4.36-23.46-9.68-34.37-15.96s-20.73-14.59-29.46-24.96c-4.36-5.46-8.18-11.32-11.46-17.59s-5.46-12.96-6.55-20.05c-2.18-16.37,2.45-28.91,13.91-37.64-7.09,11.46-8.73,23.18-4.91,35.19,2.18,5.46,4.91,10.5,8.18,15.14s6.82,8.86,10.64,12.68c8.73,7.64,18.14,14.05,28.23,19.23s20.59,9.68,31.5,13.5c10.36,3.82,21.28,7.09,32.73,9.82s22.91,5.18,34.37,7.36c5.46,1.09,11.05,2.05,16.77,2.86s11.59,1.77,17.59,2.86c5.46.55,11.18,1.23,17.18,2.05s12,1.77,18,2.86ZM741.36,326.61c-2.18,10.91-6.27,21-12.27,30.28-6,9.27-13.09,17.18-21.28,23.73-7.64,7.09-16.09,13.09-25.37,18-9.27,4.91-18.55,9.27-27.82,13.09-9.27,4.36-18.55,8.18-27.82,11.46s-18.27,7.09-27,11.46c-4.36,1.64-8.59,3.82-12.68,6.55s-8.59,5.18-13.5,7.36c-8.73,5.46-17.46,10.36-26.18,14.73-18.55,9.27-37.5,17.18-56.87,23.73-19.37,6.55-39.41,10.36-60.14,11.46-20.18,1.09-40.1-.27-59.73-4.09s-39-9-58.1-15.55c19.64,2.18,39.28,3.68,58.92,4.5s39-.14,58.1-2.86c19.09-2.18,37.78-6.55,56.05-13.09,18.27-6.55,36.14-14.18,53.6-22.91,9.27-4.36,18.14-9,26.59-13.91s17.59-9.55,27.41-13.91c9.27-3.82,18.82-7.09,28.64-9.82s19.37-5.73,28.64-9,18.41-6.82,27.41-10.64,17.59-8.46,25.78-13.91c16.91-10.91,29.46-26.46,37.64-46.64Z" fill="#80563a"></path><path class="cls-5" d="M671.8,417.44c-12,18.55-26.73,33.28-44.19,44.19-8.73,5.46-17.87,9.82-27.41,13.09s-19.23,6-29.05,8.18c-9.82,2.18-19.5,3.68-29.05,4.5-9.55.82-19.23,1.5-29.05,2.05-9.27,1.09-18.82,1.77-28.64,2.05-9.82.27-19.64.14-29.46-.41,9.27-4.36,18.68-7.91,28.23-10.64,9.55-2.73,18.96-5.18,28.23-7.36,9.27-2.18,18.68-4.09,28.23-5.73,9.55-1.64,18.96-3.55,28.23-5.73,9.27-1.64,18.41-3.68,27.41-6.14s17.59-5.59,25.78-9.41c8.73-3.27,17.32-7.5,25.78-12.68,8.46-5.18,16.77-10.5,24.96-15.96ZM37.64,299.6c3.27,11.46,7.36,22.64,12.27,33.55,4.91,10.91,10.91,20.18,18,27.82s15.41,13.64,24.96,18,19.5,7.91,29.87,10.64,20.87,5.18,31.5,7.36,21.41,4.64,32.32,7.36c10.91,3.27,21.68,6.96,32.32,11.05,10.64,4.09,20.87,9.41,30.69,15.96-10.91-2.18-21.82-4.09-32.73-5.73s-21.82-3.27-32.73-4.91c-10.91-1.09-21.82-2.45-32.73-4.09-10.91-1.64-22.09-3.82-33.55-6.55-10.91-3.27-21.96-7.77-33.14-13.5-11.18-5.73-20.59-14.05-28.23-24.96-7.64-10.36-12.82-21.96-15.55-34.78-2.73-12.82-3.82-25.23-3.27-37.23ZM547.42,320.06c-10.91,4.36-21.82,8.32-32.73,11.86-10.91,3.55-21.82,7.5-32.73,11.86-10.36,3.82-20.59,8.18-30.69,13.09s-19.5,10.64-28.23,17.18c-4.91,3.27-9.55,6.82-13.91,10.64s-9,7.64-13.91,11.46-10.09,7.23-15.55,10.23-11.18,5.59-17.18,7.77c-11.46,3.82-22.91,6.41-34.37,7.77-11.46,1.36-23.18,2.05-35.19,2.05,11.46-4.36,22.5-8.46,33.14-12.27,10.64-3.82,20.87-8.18,30.69-13.09,10.36-4.91,19.64-11.18,27.82-18.82s17.46-15.27,27.82-22.91c9.82-7.64,20.46-13.77,31.91-18.41,11.46-4.64,22.64-8.32,33.55-11.05,11.46-2.73,23.05-4.64,34.78-5.73,11.73-1.09,23.32-1.64,34.78-1.64Z" fill="#80563a"></path><path class="cls-5" d="M368.22,340.52c-18,14.73-37.64,27.28-58.92,37.64-21.82,10.91-44.19,17.73-67.1,20.46-24,1.64-47.19-1.09-69.55-8.18-22.37-7.09-43.37-16.91-63.01-29.46,22.37,4.36,44.46,8.73,66.28,13.09,21.82,4.36,43.37,5.46,64.64,3.27,21.28-1.64,42.41-6.41,63.42-14.32s42.41-15.41,64.23-22.5ZM651.35,299.6c-10.91,5.46-21.82,10.64-32.73,15.55s-21.82,10.09-32.73,15.55c-10.36,5.46-20.18,11.32-29.46,17.59-9.27,6.27-17.46,14.32-24.55,24.14-3.82,4.91-8.05,9.82-12.68,14.73s-9.41,9.55-14.32,13.91c-4.91,3.82-10.09,7.5-15.55,11.05s-10.91,6.68-16.37,9.41c-11.46,5.46-22.91,9.96-34.37,13.5-11.46,3.55-23.18,6.68-35.19,9.41,10.36-6.55,20.87-12.82,31.5-18.82,10.64-6,20.87-12.27,30.69-18.82,4.91-3.27,9.82-6.68,14.73-10.23s9.27-7.23,13.09-11.05c4.36-4.36,8.46-8.73,12.27-13.09,3.82-4.36,7.64-9,11.46-13.91,8.18-10.91,18-19.91,29.46-27,11.46-7.09,22.91-12.55,34.37-16.37,11.46-4.36,23.05-7.77,34.78-10.23,11.73-2.45,23.59-4.23,35.59-5.32Z" fill="#80563a"></path><path class="cls-5" d="M618.61,419.07c-20.18,19.64-42.55,35.87-67.1,48.69-24.55,12.82-49.91,22.78-76.1,29.87-26.18,7.09-52.92,11.59-80.19,13.5-27.28,1.91-54.55.68-81.83-3.68-3.27-.55-6.68-1.23-10.23-2.05s-7.23-2.05-11.05-3.68c-2.18-.55-4.09-1.36-5.73-2.45l-4.09-3.27c-1.09-.55-2.45-1.23-4.09-2.05s-3-1.5-4.09-2.05c-6-3.27-12-6.14-18-8.59s-12-4.77-18-6.96c-12.55-4.36-25.23-8.46-38.05-12.27s-25.78-8.18-38.87-13.09c-12.55-5.46-24.96-11.73-37.23-18.82-12.27-7.09-23.05-16.37-32.32-27.82-9.82-11.46-16.91-24.41-21.28-38.87-4.36-14.46-6.82-29.05-7.36-43.78,2.18,14.73,6,28.78,11.46,42.14,5.46,13.37,13.09,24.96,22.91,34.78,9.27,9.27,19.77,16.91,31.5,22.91,11.73,6,23.87,11.18,36.41,15.55,12.55,3.82,25.37,7.36,38.46,10.64,13.09,3.27,26.18,6.82,39.28,10.64,6,2.18,12.27,4.36,18.82,6.55,6.55,2.18,13.09,4.91,19.64,8.18,1.64,1.09,3.27,2.05,4.91,2.86s3.27,1.5,4.91,2.05l4.09,3.27c1.09.55,2.18,1.09,3.27,1.64,2.73.55,5.59,1.23,8.59,2.05s6.14,1.5,9.41,2.05c25.09,3.27,50.87,4.36,77.33,3.27,26.46-1.09,52.51-4.36,78.15-9.82,52.92-10.91,101.74-31.37,146.47-61.37Z" fill="#80563a"></path><path class="cls-5" d="M767.54,248.05v22.91c-.55,3.82-1.09,7.5-1.64,11.05s-1.09,7.23-1.64,11.05c-2.73,7.64-6,15-9.82,22.09-3.82,7.09-8.73,12.82-14.73,17.18-12.55,9.82-25.5,16.37-38.87,19.64-13.37,3.27-26.32,6.82-38.87,10.64-26.18,7.09-51.01,15.55-74.46,25.37-12,4.91-23.73,10.77-35.19,17.59-11.46,6.82-23.18,13.77-35.19,20.87,9.27-10.36,19.23-20.18,29.87-29.46,10.64-9.27,22.23-17.18,34.78-23.73,12-7.09,24.41-13.23,37.23-18.41s25.78-9.41,38.87-12.68c13.09-3.82,26.05-7.09,38.87-9.82,12.82-2.73,24.41-7.36,34.78-13.91,4.91-2.73,9.27-6.68,13.09-11.86s7.36-10.77,10.64-16.77c1.09-3.27,2.32-6.55,3.68-9.82s2.32-6.55,2.86-9.82c1.64-7.09,3.55-14.46,5.73-22.09Z" fill="#80563a"></path><path class="cls-8" d="M688.99,172.77c3.82,8.73,5.18,18,4.09,27.82-1.09,8.73-4.09,17.18-9,25.37-4.36,7.64-9.55,14.32-15.55,20.05s-12,11.05-18,15.96c-13.09,8.73-26.46,16.5-40.1,23.32-13.64,6.82-27.55,12.68-41.73,17.59-28.37,9.82-57.01,17.73-85.92,23.73-14.73,2.73-29.46,5.46-44.19,8.18-14.18,1.64-28.09,4.36-41.73,8.18-13.64,4.36-26.87,9.82-39.69,16.37-12.82,6.55-25.5,13.64-38.05,21.28-12.55,8.18-25.78,15.55-39.69,22.09-13.91,6.55-28.5,9.82-43.78,9.82,14.73-2.73,28.23-8.32,40.5-16.77s24.41-17.05,36.41-25.78c12-9.27,24.55-18,37.64-26.18s27-14.73,41.73-19.64c7.09-2.73,14.46-4.91,22.09-6.55s15-3,22.09-4.09c14.18-2.18,28.37-4.91,42.55-8.18,14.18-2.73,28.37-5.86,42.55-9.41s28.09-7.77,41.73-12.68c13.64-4.91,27.14-10.36,40.5-16.37,13.37-6,26.05-13.09,38.05-21.28,5.46-3.82,10.91-8.18,16.37-13.09s10.09-10.09,13.91-15.55c8.73-13.09,10.64-25.91,5.73-38.46-2.73-7.09-6.41-13.37-11.05-18.82s-9.68-10.64-15.14-15.55-11.32-9.41-17.59-13.5-12.41-8.05-18.41-11.86c-14.18-7.64-28.64-14.46-43.37-20.46l-9-8.18c19.09,6,37.64,13.09,55.64,21.28,6.55,3.27,13.23,6.82,20.05,10.64,6.82,3.82,13.23,7.91,19.23,12.27,6,4.91,11.86,10.36,17.59,16.37s10.23,13.37,13.5,22.09Z" fill="#966544"></path><path class="cls-8" d="M502.42,306.97c-24,6-48.41,10.77-73.24,14.32s-49.78,6.14-74.87,7.77c-24.55,2.18-49.37,3-74.46,2.45-25.09-.55-50.19-2.45-75.28-5.73-24.55-4.36-49.37-10.09-74.46-17.18-25.09-7.09-48.28-19.09-69.55-36-5.46-4.36-10.36-9.41-14.73-15.14s-8.18-11.86-11.46-18.41c-6-14.18-7.36-28.91-4.09-44.19,3.27-14.18,9.27-26.73,18-37.64,3.82-6,8.05-11.32,12.68-15.96s9.41-9.14,14.32-13.5c-8.18,10.36-15.82,21.28-22.91,32.73-7.09,11.46-11.46,23.46-13.09,36-2.18,13.09-.14,25.09,6.14,36,6.27,10.91,14.32,19.64,24.14,26.18,9.82,7.09,20.32,13.09,31.5,18s22.5,9,33.96,12.27c12,3.82,24,6.96,36,9.41s24,4.5,36,6.14c24,3.27,48.41,5.46,73.24,6.55,24.82,1.09,49.51,1.64,74.05,1.64s49.23-.55,74.05-1.64c24.82-1.09,49.51-2.45,74.05-4.09Z" fill="#966544"></path><path class="cls-8" d="M394.41,285.69c19.09-2.18,38.19-4.64,57.28-7.36s37.91-6,56.46-9.82,36.96-8.59,55.23-14.32c18.27-5.73,35.32-13.5,51.14-23.32,7.64-4.91,14.46-10.77,20.46-17.59,6-6.82,9.82-14.32,11.46-22.5,1.64-7.64.27-15.27-4.09-22.91-4.36-7.64-9.82-14.73-16.37-21.28-6-4.91-12.27-9.55-18.82-13.91s-13.37-8.46-20.46-12.27c-2.18-4.91-4.5-9.14-6.96-12.68s-3.68-5.32-3.68-5.32c9.27,2.73,19.5,6.68,30.69,11.86s20.87,11.05,29.05,17.59c4.36,3.27,8.46,6.96,12.27,11.05s7.36,8.86,10.64,14.32c6.55,12,8.73,24.55,6.55,37.64-2.73,13.64-8.18,24.68-16.37,33.14s-16.64,15.41-25.37,20.87c-18,10.36-36.69,18-56.05,22.91s-38.6,8.73-57.69,11.46c-19.09,2.18-38.32,3.41-57.69,3.68-19.37.27-38.6-.14-57.69-1.23ZM365.77,302.06c-20.73,4.36-41.87,7.36-63.42,9-21.55,1.64-43.23,1.09-65.05-1.64-10.36-1.09-21-3-31.91-5.73-10.91-2.73-21.55-6.55-31.91-11.46-10.36-5.46-20.05-13.09-29.05-22.91s-14.59-21.82-16.77-36c-1.64-13.64-.27-27,4.09-40.1,2.18-6.55,4.77-12.55,7.77-18s6.14-10.64,9.41-15.55c8.18-12.55,18.27-23.18,30.28-31.91,0,0-.95,3.14-2.86,9.41s-3.41,13.5-4.5,21.68c-3.27,3.82-6,7.91-8.18,12.27-3.27,4.91-6.14,9.82-8.59,14.73s-4.5,9.55-6.14,13.91c-2.73,9.82-3.55,19.64-2.45,29.46,1.64,9.82,5.73,18.41,12.27,25.78s14.18,13.5,22.91,18.41c8.73,4.91,18,8.86,27.82,11.86s19.91,5.59,30.28,7.77c10.36,2.18,20.73,3.82,31.09,4.91,10.36,1.09,21,1.91,31.91,2.45,10.36.55,20.87.95,31.5,1.23s21.14.41,31.5.41Z" fill="#966544"></path><path class="cls-8" d="M361.68,338.88c-15.27,7.09-30.96,13.5-47.05,19.23s-32.59,9.96-49.51,12.68-33.82,4.5-50.73,5.32c-16.91.82-33.82-.14-50.73-2.86s-33.69-7.09-50.32-13.09c-16.64-6-32.05-14.46-46.23-25.37-7.09-6-13.91-12.14-20.46-18.41s-12-13.5-16.37-21.68c-4.91-8.18-8.86-16.77-11.86-25.78s-4.23-18.41-3.68-28.23c3.82,18.55,11.46,34.23,22.91,47.05s24,23.87,37.64,33.14c13.64,8.18,28.23,14.87,43.78,20.05s31.23,8.86,47.05,11.05c15.82,2.73,31.91,4.09,48.28,4.09s32.73-.55,49.1-1.64c16.37-1.09,32.73-3.14,49.1-6.14,16.37-3,32.73-6.14,49.1-9.41ZM642.34,102.4c9.82,6.55,19.37,13.5,28.64,20.87s18,15.68,26.18,24.96c3.82,4.91,7.5,9.96,11.05,15.14s6.68,10.77,9.41,16.77,4.5,12.55,5.32,19.64c.82,7.09.68,14.18-.41,21.28-3.27,14.18-9.55,26.05-18.82,35.59s-18.82,17.32-28.64,23.32c-10.36,6.55-21,12.14-31.91,16.77-10.91,4.64-21.82,8.59-32.73,11.86-12,2.73-23.18,5.59-33.55,8.59-10.36,3-20.46,6.96-30.28,11.86-20.18,9.27-37.91,22.37-53.19,39.28-7.64,8.18-15.14,17.18-22.5,27-7.36,9.82-15.96,18.55-25.78,26.18s-20.46,13.23-31.91,16.77c-11.46,3.55-22.64,5.59-33.55,6.14,10.91-3.27,21.41-7.36,31.5-12.27,10.09-4.91,19.23-11.46,27.41-19.64,8.18-8.18,15.41-17.32,21.68-27.41,6.27-10.09,13.23-20.05,20.87-29.87,16.37-19.64,35.73-34.91,58.1-45.82,10.36-5.46,21.41-9.68,33.14-12.68s22.78-5.59,33.14-7.77c10.36-3.27,20.73-6.82,31.09-10.64,10.36-3.82,20.46-8.73,30.28-14.73,9.27-5.46,18-11.86,26.18-19.23,8.18-7.36,13.64-16.5,16.37-27.41,2.73-9.82,2.18-20.46-1.64-31.91-2.18-5.46-4.77-10.77-7.77-15.96s-6.14-10.23-9.41-15.14c-6.55-9.27-14.05-18.14-22.5-26.59-8.46-8.46-17.05-16.77-25.78-24.96Z" fill="#966544"></path><path class="cls-8" d="M499.15,437.89c3.82-6,7.91-12,12.27-18,4.36-6,8.46-12,12.27-18,4.91-4.91,9.82-10.23,14.73-15.96s9.82-11.05,14.73-15.96c20.73-20.18,43.37-37.64,67.92-52.37,12.55-6.55,25.37-12.82,38.46-18.82,6-2.18,12.27-4.64,18.82-7.36s12.55-5.46,18-8.18,10.23-6.27,14.32-10.64,6.68-10.09,7.77-17.18c1.09-3.27,1.64-6.68,1.64-10.23v-11.05c0-3.27-.14-6.82-.41-10.64s-.41-7.64-.41-11.46c2.18,7.09,4.23,14.32,6.14,21.68,1.91,7.36,2.86,15.14,2.86,23.32-.55,2.18-.82,4.36-.82,6.55s-.55,4.09-1.64,5.73c-.55,2.18-1.23,4.36-2.05,6.55s-1.77,4.09-2.86,5.73c-2.18,3.82-4.91,6.96-8.18,9.41s-6.27,4.77-9,6.96c-12.55,7.64-24.96,14.18-37.23,19.64s-24.41,11.73-36.41,18.82c-11.46,7.09-22.78,14.46-33.96,22.09-11.18,7.64-22.23,15.82-33.14,24.55l-32.73,27c-4.91,4.36-9.96,9-15.14,13.91s-10.5,9.55-15.96,13.91Z" fill="#966544"></path><path class="cls-8" d="M706.99,144.13c9.27,7.09,17.73,15.41,25.37,24.96s14.18,20.05,19.64,31.5c11.46,25.09,12,51.28,1.64,78.55-4.36,12.55-10.36,23.87-18,33.96s-15.82,19.5-24.55,28.23c-8.73,8.73-18,16.64-27.82,23.73s-19.64,13.91-29.46,20.46c-20.18,12-41.05,22.5-62.6,31.5-21.55,9-43.5,16.5-65.87,22.5-43.64,12.55-88.37,20.73-134.2,24.55,10.91-3.27,21.82-6.41,32.73-9.41s21.82-6.14,32.73-9.41c10.91-3.27,21.82-6.68,32.73-10.23,10.91-3.55,21.55-7.23,31.91-11.05,21.28-8.18,42.28-16.91,63.01-26.18,20.73-9.27,40.91-19.64,60.55-31.09,9.82-6,19.23-12.27,28.23-18.82s17.87-13.64,26.59-21.28c8.18-7.64,15.82-15.96,22.91-24.96,7.09-9,13.09-18.68,18-29.05,9.82-22.37,10.91-45.01,3.27-67.92-3.82-11.46-9-22.23-15.55-32.32-6.55-10.09-13.64-19.5-21.28-28.23ZM525.33,326.61c-10.91,7.09-21.82,14.05-32.73,20.87-10.91,6.82-21,14.05-30.28,21.68-10.36,8.18-19.64,17.05-27.82,26.59s-16.91,19.5-26.18,29.87c-10.91,10.36-23.18,17.46-36.82,21.28-13.09,3.27-26.18,4.09-39.28,2.45-13.09-1.09-25.78-3.41-38.05-6.96s-24.41-7.5-36.41-11.86c12.55.55,25.09,1.09,37.64,1.64,12.55.55,24.82.82,36.82.82,6-.55,12-1.23,18-2.05,6-.82,11.73-2.05,17.18-3.68,10.91-3.27,20.18-9.27,27.82-18,4.36-4.36,8.73-9,13.09-13.91s9-9.82,13.91-14.73c4.91-4.36,9.96-8.73,15.14-13.09s10.5-8.46,15.96-12.27c11.46-7.09,23.18-12.82,35.19-17.18s24.28-8.18,36.82-11.46Z" fill="#966544"></path><path class="cls-8" d="M580.16,434.62c-39.28,20.18-80.19,36.82-122.74,49.91-20.73,5.46-42.28,9.41-64.64,11.86-22.37,2.45-44.73,1.77-67.1-2.05-10.91-1.64-21.55-3.95-31.91-6.96-10.36-3-20.73-5.32-31.09-6.96-4.91-.55-9.96-.95-15.14-1.23s-10.5-.14-15.96.41l-16.37,2.45c-6,0-11.73-.82-17.18-2.45-11.46-3.27-21.82-8.59-31.09-15.96s-17.73-15.41-25.37-24.14c-7.09-8.73-13.77-18.27-20.05-28.64s-10.23-21.55-11.86-33.55c1.09,6,3.14,11.46,6.14,16.37s5.86,9.82,8.59,14.73c6.55,9.27,13.91,18,22.09,26.18,7.64,7.64,16.09,14.46,25.37,20.46,9.27,6,18.82,10.09,28.64,12.27,4.91,1.09,9.55,1.36,13.91.82s9.55-1.36,15.55-2.45c5.46-1.64,11.05-2.59,16.77-2.86s11.59-.41,17.59-.41c11.46,1.09,22.5,2.86,33.14,5.32s21.14,4.5,31.5,6.14c20.18,2.73,40.91,3.27,62.19,1.64,21.28-1.64,42.28-4.64,63.01-9,21.28-3.82,42.28-8.73,63.01-14.73s41.73-11.73,63.01-17.18Z" fill="#966544"></path></g></svg>