<svg xmlns="http://www.w3.org/2000/svg" data-name="Layer 1" style="" viewBox="0 0 512 512"><g class="nc-icon-wrapper"><defs><linearGradient id="1776867898118-1453630_linear-gradient" x1="256" x2="256" y1="2" y2="514" gradientTransform="matrix(1 0 0 -1 0 514)" gradientUnits="userSpaceOnUse"><stop offset=".15" stop-color="#0cf"></stop><stop offset=".37" stop-color="#019dd1"></stop><stop offset=".66" stop-color="#016599"></stop><stop offset=".88" stop-color="#024276"></stop><stop offset="1" stop-color="#023569"></stop></linearGradient><linearGradient id="1776867898118-1453630_linear-gradient-2" x1="433.15" x2="512" y1="140.54" y2="140.54" gradientTransform="matrix(1 0 0 -1 0 514)" gradientUnits="userSpaceOnUse"><stop offset="0" stop-color="#0179d9"></stop><stop offset="1" stop-color="#025094"></stop></linearGradient><linearGradient id="1776867898118-1453630_linear-gradient-3" x1="253.7" x2="326.31" y1="217.81" y2="217.81" gradientTransform="matrix(1 0 0 -1 0 514)" gradientUnits="userSpaceOnUse"><stop offset="0" stop-color="#0179d9"></stop><stop offset="1" stop-color="#025094"></stop></linearGradient><linearGradient id="1776867898118-1453630_linear-gradient-4" x1="0" x2="88.83" y1="165.4" y2="165.4" gradientTransform="matrix(1 0 0 -1 0 514)" gradientUnits="userSpaceOnUse"><stop offset="0" stop-color="#0179d9"></stop><stop offset="1" stop-color="#025094"></stop></linearGradient><linearGradient id="1776867898118-1453630_linear-gradient-5" x1="373.97" x2="373.97" y1="154.23" y2="348.88" gradientTransform="matrix(1 0 0 -1 0 514)" gradientUnits="userSpaceOnUse"><stop offset="0" stop-color="#014d8a"></stop><stop offset="1" stop-color="#012342"></stop></linearGradient><linearGradient id="1776867898118-1453630_linear-gradient-6" x1="422.27" x2="422.27" y1="154.23" y2="348.88" gradientTransform="matrix(1 0 0 -1 0 514)" gradientUnits="userSpaceOnUse"><stop offset="0" stop-color="#013a69"></stop><stop offset="1" stop-color="#01172b"></stop></linearGradient><linearGradient id="1776867898118-1453630_linear-gradient-7" x1="312.02" x2="312.02" y1="14.12" y2="241.1" gradientTransform="matrix(1 0 0 -1 0 514)" gradientUnits="userSpaceOnUse"><stop offset="0" stop-color="#014d8a"></stop><stop offset="1" stop-color="#012342"></stop></linearGradient><linearGradient id="1776867898118-1453630_linear-gradient-8" x1="359.89" x2="359.89" y1="14.12" y2="241.1" gradientTransform="matrix(1 0 0 -1 0 514)" gradientUnits="userSpaceOnUse"><stop offset="0" stop-color="#013a69"></stop><stop offset="1" stop-color="#01172b"></stop></linearGradient><linearGradient id="1776867898118-1453630_linear-gradient-9" x1="70.23" x2="189.7" y1="304.93" y2="304.93" gradientTransform="matrix(1 0 0 -1 0 514)" gradientUnits="userSpaceOnUse"><stop offset="0" stop-color="#014d8a"></stop><stop offset=".58" stop-color="#01335e"></stop><stop offset="1" stop-color="#012342"></stop></linearGradient><linearGradient id="1776867898118-1453630_linear-gradient-10" x1="61.7" x2="198.23" y1="172.67" y2="172.67" gradientTransform="matrix(1 0 0 -1 0 514)" gradientUnits="userSpaceOnUse"><stop offset="0" stop-color="#014d8a"></stop><stop offset=".13" stop-color="#01457d"></stop><stop offset=".49" stop-color="#01335d"></stop><stop offset=".79" stop-color="#012749"></stop><stop offset="1" stop-color="#012342"></stop></linearGradient><linearGradient id="1776867898118-1453630_linear-gradient-11" x1="53.16" x2="206.76" y1="78.8" y2="78.8" gradientTransform="matrix(1 0 0 -1 0 514)" gradientUnits="userSpaceOnUse"><stop offset="0" stop-color="#014d8a"></stop><stop offset="1" stop-color="#012342"></stop></linearGradient><linearGradient id="1776867898118-1453630_linear-gradient-12" x1="417.96" x2="417.96" y1="2" y2="164.13" gradientTransform="matrix(1 0 0 -1 0 514)" gradientUnits="userSpaceOnUse"><stop offset="0" stop-color="#014d8a"></stop><stop offset="1" stop-color="#012342"></stop></linearGradient><linearGradient id="1776867898118-1453630_linear-gradient-13" x1="476.5" x2="476.5" y1="2" y2="164.13" gradientTransform="matrix(1 0 0 -1 0 514)" gradientUnits="userSpaceOnUse"><stop offset="0" stop-color="#013a69"></stop><stop offset="1" stop-color="#01172b"></stop></linearGradient><linearGradient id="1776867898118-1453630_linear-gradient-14" x1="208.47" x2="208.47" y1="7.63" y2="171.47" gradientTransform="matrix(1 0 0 -1 0 514)" gradientUnits="userSpaceOnUse"><stop offset="0" stop-color="#014d8a"></stop><stop offset="1" stop-color="#012342"></stop></linearGradient><linearGradient id="1776867898118-1453630_linear-gradient-15" x1="269.99" x2="269.99" y1="7.63" y2="171.47" gradientTransform="matrix(1 0 0 -1 0 514)" gradientUnits="userSpaceOnUse"><stop offset="0" stop-color="#013a69"></stop><stop offset="1" stop-color="#01172b"></stop></linearGradient><linearGradient id="1776867898118-1453630_linear-gradient-16" x1="48.98" x2="48.98" y1="10.53" y2="125.73" gradientTransform="matrix(1 0 0 -1 0 514)" gradientUnits="userSpaceOnUse"><stop offset="0" stop-color="#014d8a"></stop><stop offset="1" stop-color="#012342"></stop></linearGradient><linearGradient id="1776867898118-1453630_linear-gradient-17" x1="78.34" x2="78.34" y1="10.53" y2="125.73" gradientTransform="matrix(1 0 0 -1 0 514)" gradientUnits="userSpaceOnUse"><stop offset="0" stop-color="#013a69"></stop><stop offset="1" stop-color="#01172b"></stop></linearGradient></defs><path d="M0 0h512v512H0z" fill="url(#1776867898118-1453630_linear-gradient)"></path><path d="M433.15 234.92H512V512h-78.85z" fill="url(#1776867898118-1453630_linear-gradient-2)"></path><path d="M313.69 213.5v-57.08h-10.84v-16.13h-7.08V80.38h-11.52v59.91h-7.09v16.13h-10.75v57.08H253.7V512h72.61V213.5z" fill="url(#1776867898118-1453630_linear-gradient-3)"></path><path d="M88.83 512H0V294.83c0-1.28.6-2.47 1.62-3.33l36.27-27.73c1.02-.77 1.62-2.05 1.62-3.33v-71.08c0-3.41 3.84-5.38 6.57-3.33l40.96 29.7c1.11.77 1.71 2.05 1.71 3.33v292.95h.09Z" fill="url(#1776867898118-1453630_linear-gradient-4)"></path><path d="M489.3 127.49c7.51 0 7.51-11.26 0-11.26-7.51.09-7.51 11.26 0 11.26M317.7 102.57c7.51 0 7.51-11.18 0-11.18s-7.51 11.18 0 11.18M28.59 121.86c7.51 0 7.51-11.18 0-11.26-7.51.09-7.51 11.26 0 11.26M377.94 51.8c7.51 0 7.51-11.26 0-11.26-7.42 0-7.42 11.26 0 11.26M382.29 147.71c7.51 0 7.51-11.18 0-11.18s-7.51 11.18 0 11.18M172.63 95.15c4.95 0 4.95-7.51 0-7.51s-4.95 7.51 0 7.51M107.43 49.92c4.95 0 5.03-7.51 0-7.51s-5.03 7.51 0 7.51" class="cls-24" style="isolation:isolate" fill="#87ccff" opacity=".7"></path><path d="M19.2 195.5c4.95 0 5.03-7.51 0-7.51s-4.95 7.51 0 7.51M82.86 87.64c4.95 0 5.03-7.51 0-7.51s-5.03 7.51 0 7.51M186.03 37.97c4.95 0 5.03-7.51 0-7.51s-5.03 7.51 0 7.51M201.98 191.74c4.95 0 5.03-7.51 0-7.51s-4.95 7.51 0 7.51M328.45 151.47c4.95 0 5.03-7.51 0-7.51-4.95.09-4.95 7.51 0 7.51M326.31 41.64c4.95 0 5.03-7.51 0-7.51-4.95.09-4.95 7.51 0 7.51M494.93 40.53c4.95 0 5.03-7.51 0-7.51-5.03.09-5.03 7.51 0 7.51" class="cls-14" fill="#fff"></path><path d="M221.95 235.69c4.95 0 4.95-7.51 0-7.51-4.95.09-4.95 7.51 0 7.51M242.43 166.4c7.51 0 7.51-11.26 0-11.26-7.51.09-7.51 11.26 0 11.26M231.34 290.13c7.51 0 7.51-11.26 0-11.26s-7.51 11.26 0 11.26M50.69 48.04c7.42 0 7.42-11.26 0-11.26-7.51.09-7.51 11.26 0 11.26M239.53 67.93c5.21 0 5.21-7.51 0-7.51s-5.21 7.51 0 7.51" class="cls-24" style="isolation:isolate" fill="#87ccff" opacity=".7"></path><path d="M448.85 37.97c21.59 32.09-9.05 85.16-47.62 82.52 54.36 30.29 101.03-50.6 47.62-82.52" class="cls-14" fill="#fff"></path><path d="M342.7 165.12h62.55v194.65H342.7z" fill="url(#1776867898118-1453630_linear-gradient-5)"></path><path d="M399.53 165.12h45.48v194.65h-45.48z" fill="url(#1776867898118-1453630_linear-gradient-6)"></path><path d="M291.93 263.34h55.47v11.95h-55.47z" fill="#013f73"></path><path d="M332.2 263.34h30.21v11.95H332.2z" class="cls-2" fill="#012b4d"></path><path d="M276.74 272.9h70.57v226.99h-70.57z" fill="url(#1776867898118-1453630_linear-gradient-7)"></path><path d="M342.27 272.9h35.24v226.99h-35.24z" fill="url(#1776867898118-1453630_linear-gradient-8)"></path><path d="M87.3 119.47h85.33v17.07H87.3z" class="cls-2" fill="#012b4d"></path><path d="M70.23 128H189.7v162.13H70.23z" fill="url(#1776867898118-1453630_linear-gradient-9)"></path><path d="M61.7 256h136.53v170.67H61.7z" fill="url(#1776867898118-1453630_linear-gradient-10)"></path><path d="M53.16 366.93h153.6v136.53H53.16z" fill="url(#1776867898118-1453630_linear-gradient-11)"></path><path d="M382.21 336.21H473v17.07h-90.79z" class="cls-2" fill="#012b4d"></path><path d="M453.63 336.21h21.85v17.07h-21.85z" class="cls-1" fill="#011b30"></path><path d="M362.84 349.87h110.25V512H362.84z" fill="url(#1776867898118-1453630_linear-gradient-12)"></path><path d="M458.07 349.87h36.86V512h-36.86z" fill="url(#1776867898118-1453630_linear-gradient-13)"></path><path d="M424.62 362.67h17.07v8.53h-17.07zM311.04 290.13h17.07v8.53h-17.07zM291.67 321.45h17.07v8.53h-17.07zM319.57 384.77h17.07v8.53h-17.07zM375.64 236.03h17.07v8.53h-17.07zM351.4 195.5h17.07v8.53H351.4zM153.51 145.32h17.07v8.53h-17.07zM114.26 227.5h17.07v8.53h-17.07zM153.51 195.5h17.07v8.53h-17.07zM86.61 174.68h17.07v8.53H86.61zM86.61 271.02h17.07v8.53H86.61zM141.91 300.12h17.07v8.53h-17.07zM86.61 317.18h17.07v8.53H86.61zM118.61 341.33h17.07v8.53h-17.07zM129.96 398.08h17.07v8.53h-17.07zM105.73 451.93h17.07v8.53h-17.07zM300.2 434.01h17.07v8.53H300.2zM408.06 382.21h17.07v8.53h-17.07zM428.03 427.78h17.07v8.53h-17.07zM377.6 457.64h17.07v8.53H377.6z" class="cls-3" fill="#f9c802"></path><path d="M172.89 333.14h75.18v11.69h-75.18z" class="cls-2" fill="#012b4d"></path><path d="M241.75 333.14h37.55v11.69h-37.55z" class="cls-1" fill="#011b30"></path><path d="M160.34 342.53h96.26v163.84h-96.26z" fill="url(#1776867898118-1453630_linear-gradient-14)"></path><path d="M248.06 342.53h43.86v163.84h-43.86z" fill="url(#1776867898118-1453630_linear-gradient-15)"></path><path d="M17.07 388.27H80.9v115.2H17.07z" fill="url(#1776867898118-1453630_linear-gradient-16)"></path><path d="M58.03 388.27h40.62v115.2H58.03z" fill="url(#1776867898118-1453630_linear-gradient-17)"></path><path d="M401.07 486.4c-51.2 21.33-110.93 0-119.47 0-27.14 0-52.74 18.43-68.27 17.07-16.21-1.45-43.52-17.07-59.73-17.07-7.08 0-25.34 11.52-42.67 8.53-7.59-1.28-43.52-17.07-51.2-17.07C47.95 477.86 0 494.93 0 494.93V512h512v-25.6s-39.85-17.07-51.2-17.07c-9.56 0-43.95 10.5-59.73 17.07" fill="#013a66"></path><path d="M175.36 355.5h17.07v8.53h-17.07zM213.42 391.85h17.07v8.53h-17.07zM31.91 447.66h17.07v8.53H31.91zM27.65 415.91h17.07v8.53H27.65zM183.89 440.58h17.07v8.53h-17.07z" class="cls-3" fill="#f9c802"></path></g></svg>