<svg data-name="Layer 1" xmlns="http://www.w3.org/2000/svg" style="" viewBox="0 0 426.66 512"><g class="nc-icon-wrapper"><defs><linearGradient id="1777685730309-804766_linear-gradient" x1="68.27" y1="236.93" x2="0" y2="236.93" gradientTransform="translate(0 2)" gradientUnits="userSpaceOnUse"><stop offset="0" stop-color="#302c3b"></stop><stop offset=".31" stop-color="#2d2938"></stop><stop offset=".55" stop-color="#231f2e"></stop><stop offset=".68" stop-color="#1a1626"></stop></linearGradient><linearGradient id="1777685730309-804766_linear-gradient-2" x1="366.93" y1="509.99" x2="366.93" y2="-2" gradientTransform="translate(0 2)" gradientUnits="userSpaceOnUse"><stop offset=".1" stop-color="#3f4c54"></stop><stop offset=".1" stop-color="#425058"></stop><stop offset=".12" stop-color="#4b5b63"></stop><stop offset=".15" stop-color="#4e5e67"></stop></linearGradient></defs><path class="cls-4" d="M426.66,17.07s0-17.07-17.07-17.07H68.27c-81.49,81.41,0,460.79,0,460.79,0,0,358.39,92.07,358.39-17.07V17.07Z" fill="#839aa3"></path><path class="cls-3" d="M0,477.86V17.07C0,0,17.07,0,17.07,0h51.2v460.79L0,477.86Z" fill="url(#1777685730309-804766_linear-gradient)"></path><path class="cls-5" d="M409.59,460.79H17.07s-17.07,0-17.07,17.07v17.07c0,17.07,17.07,17.07,17.07,17.07h392.52s17.07,0,17.07-17.07v-51.2c0,17.07-17.07,17.07-17.07,17.07h0Z" fill="#4e5e67"></path><path class="cls-6" d="M409.59,469.32H17.07c-8.53,0-8.53,8.53-8.53,8.53v17.07s0,8.53,8.53,8.53h392.52c4.69,0,8.53-3.84,8.53-8.53v-27.73c-4.27,2.13-8.53,2.13-8.53,2.13" fill="#e6ebef"></path><path class="cls-1" d="M8.53,484.26v4.26l406.35-2.13-406.35-2.13ZM8.53,492.79v2.13s0,.94.34,2.13l406.01-2.13-406.35-2.13ZM8.87,475.72c-.34,1.19-.34,2.13-.34,2.13v2.13l406.35-2.13-406.01-2.13Z" fill="#cfd8dd"></path><path class="cls-2" d="M358.39,0h17.07v511.99h-17.07V0Z" fill="url(#1777685730309-804766_linear-gradient-2)"></path></g></svg>