<svg xmlns="http://www.w3.org/2000/svg" style="" viewBox="0 0 471.62 512"><g class="nc-icon-wrapper"><defs><linearGradient id="1776867898118-2323270_linear-gradient" x1="-347.5" y1="-322.76" x2="79.52" y2="-322.76" gradientTransform="rotate(45 -335.731 407.836)" gradientUnits="userSpaceOnUse"><stop offset=".16" stop-color="#ffbd2c"></stop><stop offset=".28" stop-color="#f9b72c"></stop><stop offset=".44" stop-color="#e7a72b"></stop><stop offset=".64" stop-color="#c98d2a"></stop><stop offset=".84" stop-color="#a06928"></stop><stop offset="1" stop-color="#7d4a26"></stop></linearGradient><linearGradient id="1776867898118-2323270_linear-gradient-2" x1="84.92" y1="352.18" x2="146.08" y2="413.34" gradientTransform="translate(-6.3 52.39)" gradientUnits="userSpaceOnUse"><stop offset="0" stop-color="#7d4a26"></stop><stop offset=".36" stop-color="#a97128"></stop><stop offset="1" stop-color="#ffbd2c"></stop></linearGradient><linearGradient id="1776867898118-2323270_linear-gradient-3" x1="-107.34" y1="-66.8" x2="-78.05" y2="-66.8" gradientTransform="rotate(45 -388.323 441.881)" gradientUnits="userSpaceOnUse"><stop offset="0" stop-color="#ffbd2c"></stop><stop offset=".64" stop-color="#a97128"></stop><stop offset="1" stop-color="#7d4a26"></stop></linearGradient><linearGradient id="1776867898118-2323270_linear-gradient-4" x1="-1010.34" y1="185.94" x2="-995.51" y2="185.94" gradientTransform="rotate(135 -353.501 450.702)" gradientUnits="userSpaceOnUse"><stop offset="0" stop-color="#ffbd2c"></stop><stop offset=".52" stop-color="#cc882b"></stop><stop offset="1" stop-color="#a15c2a"></stop></linearGradient></defs><path class="cls-5" d="M329.07 142.57L289.42 136.92 295.08 176.54 334.72 182.22 329.07 142.57z" fill="#b8762a"></path><path class="cls-4" d="M471.62,161.21c0-24.07-13.34-45.06-33.1-56.17,15.81-8.95,26.45-25.78,26.45-45.05,0-14.65-6.19-27.82-16.04-37.27h.02c-9.46-9.87-22.63-16.04-37.27-16.05-19.29,0-36.1,10.65-45.06,26.46C355.51,13.34,334.51,0,310.45,0c-35.7,0-64.62,29.28-64.62,65.42-.02,36.14,28.92,65.45,64.6,65.45,3.07.02,6.45.29,9.4-.13l21.07,21.08c-.41,2.96-.14,6.32-.14,9.41,0,35.68,29.32,64.61,65.45,64.59,36.13.02,65.42-28.91,65.4-64.61h0ZM406.27,204.24c-24.12.05-43.63-19.54-43.62-43.62-.02-9.34,2.9-17.91,7.92-24.99,0,0-6.47-6.48-1.54-33.02-26.55,4.94-33.01-1.54-33.01-1.54-7.1,5.03-15.65,7.94-25,7.93-24.1,0-43.65-19.52-43.63-43.62-.02-24.13,19.54-43.65,43.63-43.64,24.1-.02,43.65,19.52,43.65,43.62,0,.06.02.06,0,.08h24.67c-.39-2.02-.62-4.12-.64-6.23,0-17.93,14.54-32.48,32.47-32.48,9.3,0,17.63,3.95,23.53,10.22h0c6.25,5.9,10.2,14.24,10.22,23.51,0,17.95-14.55,32.47-32.49,32.49-2.12,0-4.22-.27-6.22-.64l-.02,24.7s.06,0,.08-.02c24.12,0,43.63,19.54,43.63,43.64-.02,24.08-19.54,43.64-43.65,43.62h0Z" fill="url(#1776867898118-2323270_linear-gradient)"></path><path class="cls-3" d="M50.68 469.17L32.35 450.84 124.88 358.3 143.22 376.63 134.92 384.92 146.61 396.65 154.93 388.34 186.04 419.46 163.68 441.81 139.68 417.81 124.11 433.37 148.12 457.38 131.63 473.88 107.61 449.89 92.05 465.45 116.06 489.44 93.51 512 62.39 480.88 70.57 472.7 58.86 460.98 50.68 469.17z" fill="url(#1776867898118-2323270_linear-gradient-2)"></path><path class="cls-2" d="M335.92,115.02C266.66,184.28,67.96,382.99,4.2,446.76c-13.14,13.14,7.57,33.82,20.7,20.7,60.32-60.31,268.79-268.79,331.72-331.72,13.14-13.15-7.55-33.85-20.7-20.72h0Z" fill="url(#1776867898118-2323270_linear-gradient-3)"></path><path class="cls-1" d="M313.4,188.69l-30.46-30.46c-7.64-7.63-18.08,2.85-10.47,10.48l30.44,30.46c7.64,7.62,18.1-2.85,10.49-10.48Z" fill="url(#1776867898118-2323270_linear-gradient-4)"></path></g></svg>