<svg xmlns="http://www.w3.org/2000/svg" style="" viewBox="0 0 375.46 512"><g class="nc-icon-wrapper"><defs><radialGradient id="1776867898126-8160130_radial-gradient" cx="134.11" cy="822.54" fx="134.11" fy="822.54" r="74.56" gradientTransform="matrix(.97 0 0 1 -24.26 -379.81)" gradientUnits="userSpaceOnUse"><stop offset="0" stop-color="#916958"></stop><stop offset=".22" stop-color="#8c6554"></stop><stop offset=".47" stop-color="#7e594a"></stop><stop offset=".75" stop-color="#664639"></stop><stop offset="1" stop-color="#4a2f24"></stop></radialGradient><radialGradient id="1776867898126-8160130_radial-gradient-2" cx="301.64" cy="822.54" fx="301.64" fy="822.54" r="74.56" gradientTransform="matrix(.97 0 0 1 -24.1 -379.81)" gradientUnits="userSpaceOnUse"><stop offset="0" stop-color="#916958"></stop><stop offset=".22" stop-color="#8c6554"></stop><stop offset=".47" stop-color="#7e594a"></stop><stop offset=".75" stop-color="#664639"></stop><stop offset="1" stop-color="#4a2f24"></stop></radialGradient><linearGradient id="1776867898126-8160130_linear-gradient" x1="275.44" y1="854.49" x2="275.44" y2="758.58" gradientTransform="translate(0 -379.81)" gradientUnits="userSpaceOnUse"><stop offset="0" stop-color="#916b3e"></stop><stop offset=".05" stop-color="#987245"></stop><stop offset=".35" stop-color="#c49f72"></stop><stop offset=".62" stop-color="#e4bf92"></stop><stop offset=".85" stop-color="#f8d3a6"></stop><stop offset="1" stop-color="#ffdaad"></stop></linearGradient><linearGradient id="1776867898126-8160130_linear-gradient-2" x1="100.02" y1="854.49" x2="100.02" y2="758.58" gradientTransform="translate(0 -379.81)" gradientUnits="userSpaceOnUse"><stop offset="0" stop-color="#916b3e"></stop><stop offset=".05" stop-color="#987245"></stop><stop offset=".35" stop-color="#c49f72"></stop><stop offset=".62" stop-color="#e4bf92"></stop><stop offset=".85" stop-color="#f8d3a6"></stop><stop offset="1" stop-color="#ffdaad"></stop></linearGradient><linearGradient id="1776867898126-8160130_linear-gradient-3" x1="216.94" y1="859.44" x2="216.94" y2="763.54" gradientTransform="translate(0 -379.81)" gradientUnits="userSpaceOnUse"><stop offset="0" stop-color="#916b3e"></stop><stop offset=".05" stop-color="#987245"></stop><stop offset=".35" stop-color="#c49f72"></stop><stop offset=".62" stop-color="#e4bf92"></stop><stop offset=".85" stop-color="#f8d3a6"></stop><stop offset="1" stop-color="#ffdaad"></stop></linearGradient><linearGradient id="1776867898126-8160130_linear-gradient-4" x1="158.49" y1="859.44" x2="158.49" y2="763.54" gradientTransform="translate(0 -379.81)" gradientUnits="userSpaceOnUse"><stop offset="0" stop-color="#916b3e"></stop><stop offset=".05" stop-color="#987245"></stop><stop offset=".35" stop-color="#c49f72"></stop><stop offset=".62" stop-color="#e4bf92"></stop><stop offset=".85" stop-color="#f8d3a6"></stop><stop offset="1" stop-color="#ffdaad"></stop></linearGradient><linearGradient id="1776867898126-8160130_linear-gradient-5" x1="70.92" y1="823.26" x2="70.92" y2="715.4" gradientTransform="translate(0 -379.81)" gradientUnits="userSpaceOnUse"><stop offset="0" stop-color="#916b3e"></stop><stop offset=".05" stop-color="#987245"></stop><stop offset=".35" stop-color="#c49f72"></stop><stop offset=".62" stop-color="#e4bf92"></stop><stop offset=".85" stop-color="#f8d3a6"></stop><stop offset="1" stop-color="#ffdaad"></stop></linearGradient><linearGradient id="1776867898126-8160130_linear-gradient-6" x1="304.52" y1="823.26" x2="304.52" y2="715.4" gradientTransform="translate(0 -379.81)" gradientUnits="userSpaceOnUse"><stop offset="0" stop-color="#916b3e"></stop><stop offset=".05" stop-color="#987245"></stop><stop offset=".35" stop-color="#c49f72"></stop><stop offset=".62" stop-color="#e4bf92"></stop><stop offset=".85" stop-color="#f8d3a6"></stop><stop offset="1" stop-color="#ffdaad"></stop></linearGradient><linearGradient id="1776867898126-8160130_linear-gradient-7" x1="129.33" y1="833.13" x2="129.33" y2="725.28" gradientTransform="translate(0 -379.81)" gradientUnits="userSpaceOnUse"><stop offset="0" stop-color="#916b3e"></stop><stop offset=".05" stop-color="#987245"></stop><stop offset=".35" stop-color="#c49f72"></stop><stop offset=".62" stop-color="#e4bf92"></stop><stop offset=".85" stop-color="#f8d3a6"></stop><stop offset="1" stop-color="#ffdaad"></stop></linearGradient><linearGradient id="1776867898126-8160130_linear-gradient-8" x1="246.14" y1="833.13" x2="246.14" y2="725.28" gradientTransform="translate(0 -379.81)" gradientUnits="userSpaceOnUse"><stop offset="0" stop-color="#916b3e"></stop><stop offset=".05" stop-color="#987245"></stop><stop offset=".35" stop-color="#c49f72"></stop><stop offset=".62" stop-color="#e4bf92"></stop><stop offset=".85" stop-color="#f8d3a6"></stop><stop offset="1" stop-color="#ffdaad"></stop></linearGradient><linearGradient id="1776867898126-8160130_linear-gradient-9" x1="187.73" y1="833.13" x2="187.73" y2="725.28" gradientTransform="translate(0 -379.81)" gradientUnits="userSpaceOnUse"><stop offset="0" stop-color="#916b3e"></stop><stop offset=".05" stop-color="#987245"></stop><stop offset=".35" stop-color="#c49f72"></stop><stop offset=".62" stop-color="#e4bf92"></stop><stop offset=".85" stop-color="#f8d3a6"></stop><stop offset="1" stop-color="#ffdaad"></stop></linearGradient><linearGradient id="1776867898126-8160130_linear-gradient-10" x1="64.19" y1="758.34" x2="64.19" y2="645.88" gradientTransform="translate(0 -379.81)" gradientUnits="userSpaceOnUse"><stop offset="0" stop-color="#916b3e"></stop><stop offset=".05" stop-color="#987245"></stop><stop offset=".35" stop-color="#c49f72"></stop><stop offset=".62" stop-color="#e4bf92"></stop><stop offset=".85" stop-color="#f8d3a6"></stop><stop offset="1" stop-color="#ffdaad"></stop></linearGradient><linearGradient id="1776867898126-8160130_linear-gradient-11" x1="311.26" y1="758.34" x2="311.26" y2="645.88" gradientTransform="translate(0 -379.81)" gradientUnits="userSpaceOnUse"><stop offset="0" stop-color="#916b3e"></stop><stop offset=".05" stop-color="#987245"></stop><stop offset=".35" stop-color="#c49f72"></stop><stop offset=".62" stop-color="#e4bf92"></stop><stop offset=".85" stop-color="#f8d3a6"></stop><stop offset="1" stop-color="#ffdaad"></stop></linearGradient><linearGradient id="1776867898126-8160130_linear-gradient-12" x1="273.62" y1="773.11" x2="273.62" y2="660.65" gradientTransform="translate(0 -379.81)" gradientUnits="userSpaceOnUse"><stop offset="0" stop-color="#916b3e"></stop><stop offset=".05" stop-color="#987245"></stop><stop offset=".35" stop-color="#c49f72"></stop><stop offset=".62" stop-color="#e4bf92"></stop><stop offset=".85" stop-color="#f8d3a6"></stop><stop offset="1" stop-color="#ffdaad"></stop></linearGradient><linearGradient id="1776867898126-8160130_linear-gradient-13" x1="101.84" y1="773.11" x2="101.84" y2="660.65" gradientTransform="translate(0 -379.81)" gradientUnits="userSpaceOnUse"><stop offset="0" stop-color="#916b3e"></stop><stop offset=".05" stop-color="#987245"></stop><stop offset=".35" stop-color="#c49f72"></stop><stop offset=".62" stop-color="#e4bf92"></stop><stop offset=".85" stop-color="#f8d3a6"></stop><stop offset="1" stop-color="#ffdaad"></stop></linearGradient><linearGradient id="1776867898126-8160130_linear-gradient-14" x1="216.38" y1="778.95" x2="216.38" y2="666.46" gradientTransform="translate(0 -379.81)" gradientUnits="userSpaceOnUse"><stop offset="0" stop-color="#916b3e"></stop><stop offset=".05" stop-color="#987245"></stop><stop offset=".35" stop-color="#c49f72"></stop><stop offset=".62" stop-color="#e4bf92"></stop><stop offset=".85" stop-color="#f8d3a6"></stop><stop offset="1" stop-color="#ffdaad"></stop></linearGradient><linearGradient id="1776867898126-8160130_linear-gradient-15" x1="159.1" y1="778.95" x2="159.1" y2="666.46" gradientTransform="translate(0 -379.81)" gradientUnits="userSpaceOnUse"><stop offset="0" stop-color="#916b3e"></stop><stop offset=".05" stop-color="#987245"></stop><stop offset=".35" stop-color="#c49f72"></stop><stop offset=".62" stop-color="#e4bf92"></stop><stop offset=".85" stop-color="#f8d3a6"></stop><stop offset="1" stop-color="#ffdaad"></stop></linearGradient><linearGradient id="1776867898126-8160130_linear-gradient-16" x1="90.51" y1="705.31" x2="90.51" y2="592.85" gradientTransform="translate(0 -379.81)" gradientUnits="userSpaceOnUse"><stop offset="0" stop-color="#916b3e"></stop><stop offset=".05" stop-color="#987245"></stop><stop offset=".35" stop-color="#c49f72"></stop><stop offset=".62" stop-color="#e4bf92"></stop><stop offset=".85" stop-color="#f8d3a6"></stop><stop offset="1" stop-color="#ffdaad"></stop></linearGradient><linearGradient id="1776867898126-8160130_linear-gradient-17" x1="284.96" y1="705.31" x2="284.96" y2="592.85" gradientTransform="translate(0 -379.81)" gradientUnits="userSpaceOnUse"><stop offset="0" stop-color="#916b3e"></stop><stop offset=".05" stop-color="#987245"></stop><stop offset=".35" stop-color="#c49f72"></stop><stop offset=".62" stop-color="#e4bf92"></stop><stop offset=".85" stop-color="#f8d3a6"></stop><stop offset="1" stop-color="#ffdaad"></stop></linearGradient><linearGradient id="1776867898126-8160130_linear-gradient-18" x1="131.56" y1="716.88" x2="131.56" y2="604.42" gradientTransform="translate(0 -379.81)" gradientUnits="userSpaceOnUse"><stop offset="0" stop-color="#916b3e"></stop><stop offset=".05" stop-color="#987245"></stop><stop offset=".35" stop-color="#c49f72"></stop><stop offset=".62" stop-color="#e4bf92"></stop><stop offset=".85" stop-color="#f8d3a6"></stop><stop offset="1" stop-color="#ffdaad"></stop></linearGradient><linearGradient id="1776867898126-8160130_linear-gradient-19" x1="243.92" y1="716.88" x2="243.92" y2="604.42" gradientTransform="translate(0 -379.81)" gradientUnits="userSpaceOnUse"><stop offset="0" stop-color="#916b3e"></stop><stop offset=".05" stop-color="#987245"></stop><stop offset=".35" stop-color="#c49f72"></stop><stop offset=".62" stop-color="#e4bf92"></stop><stop offset=".85" stop-color="#f8d3a6"></stop><stop offset="1" stop-color="#ffdaad"></stop></linearGradient><linearGradient id="1776867898126-8160130_linear-gradient-20" x1="187.74" y1="728.44" x2="187.74" y2="615.98" gradientTransform="translate(0 -379.81)" gradientUnits="userSpaceOnUse"><stop offset="0" stop-color="#916b3e"></stop><stop offset=".05" stop-color="#987245"></stop><stop offset=".35" stop-color="#c49f72"></stop><stop offset=".62" stop-color="#e4bf92"></stop><stop offset=".85" stop-color="#f8d3a6"></stop><stop offset="1" stop-color="#ffdaad"></stop></linearGradient><linearGradient id="1776867898126-8160130_linear-gradient-21" x1="460.2" y1="800.52" x2="460.2" y2="478.2" gradientTransform="matrix(.9187 .04879 -.05197 .97862 -71.87 -337.15)" gradientUnits="userSpaceOnUse"><stop offset="0" stop-color="#5c3f1e"></stop><stop offset=".33" stop-color="#795731"></stop><stop offset="1" stop-color="#bd915f"></stop></linearGradient><linearGradient id="1776867898126-8160130_linear-gradient-22" x1="-1922.47" y1="924.65" x2="-1922.47" y2="602.33" gradientTransform="matrix(-.9187 .04879 .05197 .97862 -1748.1 -342.37)" gradientUnits="userSpaceOnUse"><stop offset="0" stop-color="#5c3f1e"></stop><stop offset=".33" stop-color="#795731"></stop><stop offset="1" stop-color="#bd915f"></stop></linearGradient><linearGradient id="1776867898126-8160130_linear-gradient-23" x1="187.73" y1="638.21" x2="187.73" y2="379.81" gradientTransform="translate(0 -379.81)" gradientUnits="userSpaceOnUse"><stop offset="0" stop-color="#bd915f"></stop><stop offset=".67" stop-color="#795731"></stop><stop offset="1" stop-color="#5c3f1e"></stop></linearGradient><linearGradient id="1776867898126-8160130_linear-gradient-24" x1="165.8" y1="646.2" x2="165.8" y2="428.41" gradientTransform="matrix(1.02 0 0 1 18.61 -379.81)" gradientUnits="userSpaceOnUse"><stop offset="0" stop-color="#916b3e"></stop><stop offset=".07" stop-color="#a78154"></stop><stop offset=".2" stop-color="#c6a174"></stop><stop offset=".34" stop-color="#dfba8d"></stop><stop offset=".48" stop-color="#f1cc9f"></stop><stop offset=".63" stop-color="#fcd7aa"></stop><stop offset=".8" stop-color="#ffdaad"></stop></linearGradient><linearGradient id="1776867898126-8160130_linear-gradient-25" x1="215.82" y1="527.85" x2="317.32" y2="527.85" gradientTransform="translate(0 -379.81)" gradientUnits="userSpaceOnUse"><stop offset="0" stop-color="#ffc800"></stop><stop offset=".03" stop-color="#ffc500"></stop><stop offset=".39" stop-color="#ffad00"></stop><stop offset=".73" stop-color="#ff9e00"></stop><stop offset="1" stop-color="#f90"></stop></linearGradient><linearGradient id="1776867898126-8160130_linear-gradient-26" x1="58.14" y1="527.85" x2="159.64" y2="527.85" gradientTransform="translate(0 -379.81)" gradientUnits="userSpaceOnUse"><stop offset="0" stop-color="#ffc800"></stop><stop offset=".03" stop-color="#ffc500"></stop><stop offset=".39" stop-color="#ffad00"></stop><stop offset=".73" stop-color="#ff9e00"></stop><stop offset="1" stop-color="#f90"></stop></linearGradient><radialGradient id="1776867898126-8160130_radial-gradient-3" cx="386.72" cy="86.38" fx="386.72" fy="86.38" r="15.3" gradientTransform="matrix(.84 0 0 4.08 -137.46 -162.52)" gradientUnits="userSpaceOnUse"><stop offset="0" stop-color="#916958"></stop><stop offset=".21" stop-color="#8a6353"></stop><stop offset=".53" stop-color="#755243"></stop><stop offset=".91" stop-color="#53372b"></stop><stop offset="1" stop-color="#4a2f24"></stop></radialGradient><linearGradient id="1776867898126-8160130_linear-gradient-27" x1="187.73" y1="493.86" x2="187.73" y2="386.04" gradientTransform="translate(0 -379.81)" gradientUnits="userSpaceOnUse"><stop offset=".05" stop-color="#ffdaad"></stop><stop offset=".08" stop-color="#f5d1a4"></stop><stop offset=".24" stop-color="#c7a47c"></stop><stop offset=".4" stop-color="#a0805a"></stop><stop offset=".56" stop-color="#826440"></stop><stop offset=".71" stop-color="#6d4f2d"></stop><stop offset=".86" stop-color="#604322"></stop><stop offset="1" stop-color="#5c3f1e"></stop></linearGradient></defs><path class="cls-34" d="M95.96,290.6c87.98,27.35-55.49,70.28-16.33,176.39-84.61-60.01-36.27-178.37,16.33-176.39Z" fill="#4a2f24"></path><path class="cls-34" d="M73.37,289.98c-50.6-1.18-98.19,110.81-17.36,166.17-36.67-99.32,101.72-141.62,17.36-166.17h0Z" fill="#4a2f24"></path><path class="cls-34" d="M302.11,289.98c-84.38,24.55,54.02,66.85,17.33,166.17,80.83-55.34,33.26-167.34-17.33-166.17h0Z" fill="#4a2f24"></path><path class="cls-34" d="M279.5,290.6c-87.98,27.35,55.48,70.28,16.34,176.39,84.63-60.01,36.28-178.37-16.34-176.39Z" fill="#4a2f24"></path><path class="cls-12" d="M141.56,466.92c-1.77-13.29-.45-26.45,2.24-38.42h-20.63c-6.62,55.42-33.25,49.63-32.11,56.23-5.29,8.18-49.5.65-49.71,11.3-18.67,11.38-14.4,12.01-.62,7.58,9.18,1.55,70.3,4.02,73.98-4.32,4.59,8.51,8.03,12.7,11.96,12.7,3.24,0,7.47-9.28,12.44-13.94,19.98,6.97,30.86-2.08,44.38,3.11-2.93-15.36-37.76-3.11-41.93-34.25h0Z" fill="url(#1776867898126-8160130_radial-gradient)"></path><path class="cls-2" d="M334.14,496.04c-.23-10.65-44.42-3.12-49.71-11.3,1.11-6.59-25.51-.82-32.13-56.23h-20.61c2.68,11.96,4.02,25.13,2.25,38.42-4.17,31.14-39.01,18.88-41.96,34.25,13.52-5.18,24.4,3.86,44.39-3.11,4.99,4.65,9.21,13.93,12.46,13.93,3.9,0,7.36-4.19,11.95-12.7,3.67,8.34,64.78,5.87,74.01,4.32,13.75,4.43,18.03,3.8-.63-7.58h0Z" fill="url(#1776867898126-8160130_radial-gradient-2)"></path><path class="cls-13" d="M313.72,389.7c-12.32-14.56-64.25-14.56-76.55,0-15.11,17.82,35.87,84.99,38.26,84.99s53.38-67.17,38.29-84.99h0Z" fill="url(#1776867898126-8160130_linear-gradient)"></path><path class="cls-10" d="M138.31,389.7c-12.33-14.56-64.25-14.56-76.58,0-15.08,17.82,35.88,84.99,38.29,84.99s53.38-67.17,38.28-84.99h0Z" fill="url(#1776867898126-8160130_linear-gradient-2)"></path><path class="cls-9" d="M255.21,394.63c-12.29-14.53-64.2-14.53-76.54,0-15.11,17.83,35.89,85,38.29,85s53.39-67.17,38.26-85h0Z" fill="url(#1776867898126-8160130_linear-gradient-3)"></path><path class="cls-8" d="M196.77,394.63c-12.31-14.53-64.23-14.53-76.54,0-15.12,17.83,35.87,85,38.26,85s53.38-67.17,38.27-85Z" fill="url(#1776867898126-8160130_linear-gradient-4)"></path><path class="cls-5" d="M109.16,347.87c-12.31-16.37-64.18-16.37-76.48,0-15.08,20.03,35.84,95.58,38.22,95.58s53.34-75.55,38.26-95.58h0Z" fill="url(#1776867898126-8160130_linear-gradient-5)"></path><path class="cls-6" d="M342.77,347.87c-12.3-16.37-64.18-16.37-76.49,0-15.06,20.03,35.86,95.58,38.24,95.58s53.3-75.55,38.24-95.58h0Z" fill="url(#1776867898126-8160130_linear-gradient-6)"></path><path class="cls-4" d="M167.55,357.75c-12.28-16.38-64.17-16.38-76.45,0-15.06,20.02,35.84,95.57,38.22,95.57s53.33-75.55,38.23-95.57h0Z" fill="url(#1776867898126-8160130_linear-gradient-7)"></path><path class="cls-3" d="M284.39,357.75c-12.34-16.38-64.18-16.38-76.48,0-15.12,20.02,35.82,95.57,38.22,95.57s53.29-75.55,38.26-95.57h0Z" fill="url(#1776867898126-8160130_linear-gradient-8)"></path><path class="cls-7" d="M225.96,357.75c-12.29-16.38-64.16-16.38-76.45,0-15.11,20.02,35.84,95.57,38.22,95.57s53.31-75.55,38.23-95.57h0Z" fill="url(#1776867898126-8160130_linear-gradient-9)"></path><path class="cls-16" d="M89.8,278.87c-12.05-17.06-37.14-17.06-49.19,0-14.78,20.88,9.39,99.67,11.73,99.67,2.35,0,52.26-78.79,37.46-99.67Z" fill="url(#1776867898126-8160130_linear-gradient-10)"></path><path class="cls-17" d="M334.84,278.87c-12.05-17.06-37.14-17.06-49.19,0-14.81,20.88,35.13,99.67,37.5,99.67,2.33,0,26.48-78.79,11.69-99.67Z" fill="url(#1776867898126-8160130_linear-gradient-11)"></path><path class="cls-18" d="M311.11,293.63c-12.08-17.05-62.88-17.05-74.98,0-14.78,20.86,35.16,99.67,37.51,99.67s52.25-78.8,37.47-99.67Z" fill="url(#1776867898126-8160130_linear-gradient-12)"></path><path class="cls-19" d="M139.33,293.63c-12.09-17.05-62.93-17.05-74.98,0-14.81,20.86,35.15,99.67,37.48,99.67s52.29-78.8,37.5-99.67Z" fill="url(#1776867898126-8160130_linear-gradient-13)"></path><path class="cls-21" d="M253.86,299.45c-12.06-17.06-62.92-17.06-74.97,0-14.8,20.9,35.13,99.69,37.47,99.69,2.33,0,52.29-78.79,37.49-99.69h0Z" fill="url(#1776867898126-8160130_linear-gradient-14)"></path><path class="cls-27" d="M196.58,299.45c-12.05-17.06-62.92-17.06-74.97,0-14.81,20.9,35.15,99.69,37.47,99.69,2.35,0,52.29-78.79,37.49-99.69h0Z" fill="url(#1776867898126-8160130_linear-gradient-15)"></path><path class="cls-28" d="M127.69,225.84c-11.85-17.06-61.74-17.06-73.57,0-14.5,20.89,26,99.66,28.3,99.66s59.77-78.77,45.27-99.66Z" fill="url(#1776867898126-8160130_linear-gradient-16)"></path><path class="cls-29" d="M321.34,225.84c-11.85-17.06-61.73-17.06-73.56,0-14.51,20.89,42.97,99.66,45.26,99.66s42.81-78.77,28.3-99.66Z" fill="url(#1776867898126-8160130_linear-gradient-17)"></path><path class="cls-30" d="M168.33,237.41c-11.83-17.06-61.72-17.06-73.53,0-14.53,20.9,34.48,99.66,36.76,99.66s51.29-78.76,36.77-99.66Z" fill="url(#1776867898126-8160130_linear-gradient-18)"></path><path class="cls-20" d="M280.69,237.41c-11.84-17.06-61.73-17.06-73.54,0-14.51,20.9,34.48,99.66,36.76,99.66s51.29-78.76,36.78-99.66Z" fill="url(#1776867898126-8160130_linear-gradient-19)"></path><path class="cls-23" d="M224.53,248.97c-11.86-17.07-61.72-17.07-73.58,0-14.5,20.88,34.48,99.66,36.78,99.66s51.29-78.78,36.8-99.66Z" fill="url(#1776867898126-8160130_linear-gradient-20)"></path><path class="cls-22" d="M292.45,152.58c-90.84,73.46,71.29,113.46,45.94,317.68,81.88-132.2,10.6-335.36-45.94-317.68Z" fill="url(#1776867898126-8160130_linear-gradient-21)"></path><path class="cls-14" d="M281.76,200.96c-6.38,33.84,49.31,58.94,66.81,182.56,6.55-86.25-53.59-165.78-66.81-182.56h0Z" fill="#704c25"></path><path class="cls-14" d="M366.31,288.61c-2.08-48.82-24.05-91.78-45.64-122.77-20.97,21.84,14.17,2,45.64,122.77Z" fill="#704c25"></path><path class="cls-14" d="M290.67,184.99c4.74,22.23,74.04,67.05,67.3,216.8,21.65-122.9-34.16-204.47-67.3-216.8h0Z" fill="#704c25"></path><path class="cls-24" d="M83.02,152.58c90.78,73.46-71.29,113.46-45.94,317.68-81.88-132.2-10.68-335.36,45.94-317.68Z" fill="url(#1776867898126-8160130_linear-gradient-22)"></path><path class="cls-14" d="M93.64,200.96c6.45,33.83-49.24,58.94-66.74,182.56-6.56-86.25,53.57-165.8,66.74-182.56h0Z" fill="#704c25"></path><path class="cls-14" d="M9.17,288.63c1.99-48.82,23.99-91.78,45.64-122.8,20.97,21.86-14.17,2.02-45.64,122.8Z" fill="#704c25"></path><path class="cls-14" d="M84.81,184.97c-4.73,22.26-74.03,67.06-67.31,216.81-21.66-122.9,34.17-204.47,67.31-216.81Z" fill="#704c25"></path><path class="cls-25" d="M363.19,156.89C375.97,102.72,364.62,0,187.72,0h0C10.85,0-.51,102.72,12.27,156.89c13.83,58.76,127.23,101.51,175.46,101.51s161.63-42.75,175.46-101.51h0Z" fill="url(#1776867898126-8160130_linear-gradient-23)"></path><path class="cls-32" d="M347.26,176.87c11.62-44.31,1.31-128.27-159.55-128.27h0C26.89,48.6,16.57,132.59,28.2,176.87c12.57,48.05,115.67,89.52,159.53,89.52s146.96-41.47,159.53-89.52h0Z" fill="url(#1776867898126-8160130_linear-gradient-24)"></path><path class="cls-34" d="M267.21,60.15c120.45,30.91,86.87,154.65-12.67,190.43,136.86-27.88,126.73-201.99,12.67-190.43Z" fill="#4a2f24"></path><path class="cls-34" d="M108.25,60.15c-120.45,30.91-86.87,154.65,12.68,190.43C-15.94,222.7-5.8,48.6,108.25,60.15Z" fill="#4a2f24"></path><path class="cls-34" d="M266.56,92.25c-38.9,0-54.13,32.96-50.73,58.68,2.52,19.1,99.01,19.1,101.51,0,3.59-27.84-15.22-58.68-50.78-58.68Z" fill="#4a2f24"></path><path class="cls-26" d="M266.57,101.43c-28.04,0-50.75,20.86-50.75,46.6,0,22.25,22.72,46.62,50.75,46.62s50.75-28.42,50.75-46.62c0-25.74-22.7-46.6-50.75-46.6h0Z" fill="url(#1776867898126-8160130_linear-gradient-25)"></path><ellipse class="cls-11" cx="261.69" cy="147.57" rx="37.9" ry="37.11" fill="#1a1626"></ellipse><path class="cls-15" d="M258.67,129.04c0,13.46-20.67,13.46-20.67,0,0-13.52,20.67-13.52,20.67,0Z" fill="#fff"></path><path class="cls-34" d="M108.89,92.25c38.92,0,54.16,32.96,50.75,58.68-2.54,19.1-99.02,19.1-101.51,0-3.61-27.84,15.24-58.68,50.75-58.68h0Z" fill="#4a2f24"></path><path class="cls-33" d="M108.89,101.43c28.05,0,50.75,20.86,50.75,46.6,0,22.25-22.7,46.62-50.75,46.62s-50.75-28.42-50.75-46.62c0-25.74,22.72-46.6,50.75-46.6h0Z" fill="url(#1776867898126-8160130_linear-gradient-26)"></path><ellipse class="cls-11" cx="113.77" cy="147.57" rx="37.91" ry="37.11" fill="#1a1626"></ellipse><path class="cls-15" d="M116.77,129.04c0,13.46,20.69,13.46,20.69,0s-20.69-13.52-20.69,0h0Z" fill="#fff"></path><path class="cls-1" d="M187.72,176.02c-10.3,0-6.14,13.72-19.32,44.95,6.9,5.93,11.84,21.99,15,27.84,2.88,5.34,5.75,5.34,8.64,0,3.18-5.86,8.1-21.91,15.02-27.84-13.19-31.23-9.02-44.95-19.34-44.95h0Z" fill="url(#1776867898126-8160130_radial-gradient-3)"></path><path class="cls-34" d="M328.24,64.42c-3.45-7.5-13.27-18.71-31.11-28.72-9.03-5.04-26.84,28.94-8.77,28.83,14.58-.06,27.1.68,35.06,2.7,5.43,1.37,6.38.56,4.82-2.82h0Z" fill="#4a2f24"></path><path class="cls-34" d="M344.93,51.24c-3.9-7.28-14.38-17.87-32.79-26.78-9.32-4.47-25.04,30.49-7.02,29.31,14.53-.94,27.07-.95,35.16.57,5.49,1.05,6.42.2,4.64-3.11h0Z" fill="#4a2f24"></path><path class="cls-34" d="M357.41,33.26c-5.58-6.09-18.33-13.77-38.38-17.88-10.13-2.05-16.73,35.73.43,30.13,13.85-4.48,26.01-7.6,34.22-8.1,5.59-.33,6.26-1.39,3.73-4.15Z" fill="#4a2f24"></path><path class="cls-34" d="M362.88,13.16c-7.93-4.75-20.73-8.08-35.35-6.53-10.27,1.1-12.35,39.42,2.5,29.16,11.98-8.28,22.75-14.75,30.45-17.59,5.27-1.92,5.61-3.12,2.39-5.05Z" fill="#4a2f24"></path><path class="cls-34" d="M47.21,64.42c3.46-7.5,13.27-18.71,31.11-28.72,9.03-5.04,26.84,28.94,8.78,28.83-14.58-.06-27.1.68-35.06,2.7-5.43,1.37-6.39.56-4.83-2.82Z" fill="#4a2f24"></path><path class="cls-34" d="M30.53,51.24c3.9-7.28,14.37-17.87,32.79-26.78,9.32-4.47,25.05,30.49,7.03,29.31-14.54-.94-27.07-.95-35.16.57-5.51,1.05-6.42.2-4.64-3.11h0Z" fill="#4a2f24"></path><path class="cls-34" d="M18.05,33.26c5.58-6.09,18.33-13.77,38.38-17.88,10.13-2.05,16.74,35.73-.43,30.13-13.85-4.48-26-7.6-34.21-8.1-5.59-.33-6.26-1.39-3.74-4.15Z" fill="#4a2f24"></path><path class="cls-34" d="M12.58,13.16c7.92-4.75,20.71-8.08,35.34-6.53,10.27,1.1,12.35,39.42-2.5,29.16-11.99-8.28-22.74-14.75-30.45-17.59-5.27-1.92-5.6-3.12-2.38-5.05Z" fill="#4a2f24"></path><path class="cls-31" d="M337.73,6.23c-104.48,0-150,40.57-150,40.57,0,0-45.5-40.57-150-40.57,6.8,72.32,100.11,45.87,132.62,97.06,9.11,14.35,25.66,14.35,34.77,0,32.49-51.2,125.77-24.76,132.61-97.06h0Z" fill="url(#1776867898126-8160130_linear-gradient-27)"></path><path class="cls-34" d="M37.74,6.23c30.12,38.43,112.7,49.45,132.62,97.06C137.84,52.1,44.18,79.82,37.74,6.23Z" fill="#4a2f24"></path><path class="cls-34" d="M337.73,6.23c-30.12,38.43-112.7,49.45-132.61,97.06,32.49-51.2,126.17-23.47,132.61-97.06Z" fill="#4a2f24"></path></g></svg>