<svg data-name="Layer 1" xmlns="http://www.w3.org/2000/svg" style="" viewBox="0 0 549.93 512"><g class="nc-icon-wrapper"><defs><radialGradient id="1776585740104-4650604_radial-gradient" cx="294.67" cy="320.67" fx="294.67" fy="320.67" r="277.31" gradientTransform="matrix(.97 0 0 -.65 -12.31 327.32)" gradientUnits="userSpaceOnUse"><stop offset="0" stop-color="#ffc95e"></stop><stop offset=".28" stop-color="#fdc65b"></stop><stop offset=".52" stop-color="#f6bb50"></stop><stop offset=".75" stop-color="#eaa93e"></stop><stop offset=".96" stop-color="#d99025"></stop></radialGradient><linearGradient id="1776585740104-4650604_linear-gradient" x1="285.65" y1="12.92" x2="285.65" y2="514" gradientTransform="matrix(1 0 0 -1 0 514)" gradientUnits="userSpaceOnUse"><stop offset=".44" stop-color="#ab5c10"></stop><stop offset=".76" stop-color="#cd7407"></stop><stop offset="1" stop-color="#ea8800"></stop></linearGradient><linearGradient id="1776585740104-4650604_linear-gradient-2" x1="330.96" y1="644.62" x2="330.96" y2="516.63" gradientTransform="translate(-56 -492)" gradientUnits="userSpaceOnUse"><stop offset="0" stop-color="#ffe54a"></stop><stop offset=".16" stop-color="#ffe54d"></stop><stop offset=".3" stop-color="#ffe758"></stop><stop offset=".43" stop-color="#ffea6a"></stop><stop offset=".56" stop-color="#ffed83"></stop><stop offset=".68" stop-color="#fff2a3"></stop><stop offset=".71" stop-color="#fff3ad"></stop></linearGradient></defs><path class="cls-1" d="M542.67,351.54c0,88.61-120.6,160.46-269.37,160.46S3.93,447.38,3.93,351.54c0-195.59,538.75-195.59,538.75,0Z" fill="#ffe8bb"></path><path class="cls-4" d="M.04,329.61c-1.42,32.46,38,82.93,62.38,95.44,17.38,8.93,34.64,11.48,50.69,24.3,15.64,12.5,32.26,18.8,50.41,25.01,43.59,14.9,84.09,14.91,128.7,20.31,38.2,4.6,62.73-22.87,100.72-20.43,33.63,2.17,87.14-21.4,107.77-53.19,8.52-13.13,38.97-69.57,38.97-87.63,0-165.83-531.7-186.32-539.64-3.81Z" fill="#d99025"></path><path class="cls-1" d="M0,304.23c0,88.61,120.61,160.48,269.38,160.48s269.37-64.64,269.37-160.48c0-195.58-538.75-195.58-538.75,0Z" fill="#ffe8bb"></path><path class="cls-4" d="M542.63,282.31c1.41,32.46-38,82.91-62.37,95.43-17.39,8.9-34.64,11.48-50.69,24.3-15.64,12.52-32.26,18.8-50.41,25-43.59,14.92-84.1,14.93-128.71,20.31-38.19,4.61-62.72-22.87-100.7-20.39-33.63,2.15-87.16-21.42-107.78-53.21-8.52-13.15-6.95-31.08-14.78-44.47-7.92-13.59-24.19-25.11-24.19-43.16,0-165.84,531.69-186.35,539.63-3.81Z" fill="#d99025"></path><path class="cls-1" d="M542.67,256.93c0,88.63-120.61,160.47-269.37,160.47S3.93,352.76,3.93,256.93c0-195.57,538.75-195.57,538.75,0Z" fill="#ffe8bb"></path><path class="cls-4" d="M.04,235.01c-1.41,32.46,38,82.93,62.38,95.43,17.38,8.93,34.64,11.48,50.69,24.3,15.64,12.52,32.26,18.8,50.41,25.01,43.59,14.9,84.09,14.92,128.7,20.31,38.2,4.61,62.73-22.86,100.72-20.43,33.63,2.17,87.14-21.39,107.77-53.17,8.52-13.14,38.97-69.58,38.97-87.65,0-165.83-531.7-186.33-539.64-3.8Z" fill="#d99025"></path><path class="cls-1" d="M0,209.63c0,88.61,120.61,160.46,269.38,160.46s269.37-64.63,269.37-160.46c0-195.58-538.75-195.58-538.75,0Z" fill="#ffe8bb"></path><path class="cls-4" d="M542.63,187.7c1.41,32.48-38,82.93-62.37,95.46-17.39,8.89-34.64,11.46-50.69,24.27-15.64,12.53-32.26,18.81-50.41,25.04-43.59,14.89-84.1,14.9-128.71,20.29-38.19,4.6-62.72-22.87-100.7-20.41-33.63,2.16-87.16-21.41-107.78-53.18-8.52-13.16-38.97-69.61-38.97-87.64,0-165.86,531.69-186.35,539.63-3.83Z" fill="#d99025"></path><path class="cls-1" d="M542.67,162.32c0,88.6-120.61,160.46-269.37,160.46S3.93,258.15,3.93,162.32c0-195.59,538.75-195.59,538.75,0Z" fill="#ffe8bb"></path><path class="cls-3" d="M.04,140.39c-1.41,32.46,38,82.92,62.38,95.43,17.38,8.93,34.64,11.48,50.69,24.31,15.64,12.51,32.26,18.79,50.41,25,43.59,14.91,84.09,14.91,128.7,20.31,38.2,4.6,62.73-22.87,100.72-20.43,33.63,2.18,87.14-21.39,107.77-53.19,8.52-13.13,6.95-31.07,14.79-44.48,7.93-13.56,24.19-25.09,24.19-43.15C539.68-21.64,7.97-42.13.04,140.39Z" fill="url(#1776585740104-4650604_radial-gradient)"></path><path class="cls-6" d="M546.56,273.65c-3-10.97,7.86-20.3,1.12-35.8-5.21-12,4.48-28.08-3.81-38.48-6.31-7.91-9.19-26.98-13.38-35.4-6.68-13.4-20.14-24.92-43.38-38.8C406.18,76.97,409.56,0,285.3,0S21.37,61.43,21.37,103.43c0,28.55,100.4,31.18,122.42,58.48,13.51,16.79,3.85,56.37-18.13,89.33-5.59,8.38-17.51,15.34-17.07,37.98.2,10.02-10.24,21.81-10.31,34.76-.07,12.84-11.98,24.33-14.11,37.78-2.39,15.19,1.63,22.05.19,36.86-.98,9.97-5.74,23.68-7.57,36.65-1.47,10.48-4.83,50.98,25.64,63.96,16.94,7.22,45.49-6.7,31.53-43.45-4.58-12.05,4.3-38.41,2.25-52.43-1.94-13.3-8.86-20.44-8.77-34.03.07-12.53,11.45-29.62,11.31-41.79-.2-16.29,15.68-13.46,14.07-29.69-1.35-13.62,11.7-18.69,18.58-22.68,45.27-26.19,100.59-85.53,155.56-85.53,37.61,0,92.83,10.58,122.61,19.95,17.75,5.58,53.54,21.31,69.82,26.3,11.89,3.65,12.11,18.95,5.83,34.83-4.93,12.45,8.76,25.52-2.47,52.05-15.28,36.12,22.97,5.03,19.33-14.32-3.41-18.24,10.28-13.61,4.48-34.8Z" style="isolation:isolate" fill="url(#1776585740104-4650604_linear-gradient)" opacity=".8"></path><path class="cls-5" d="M121.5,494.15c7.11-4.66,9.51-14.09,8.51-22.33-.4-4.21-1.53-8.31-2.82-12.31-1.32-3.83-3.27-8.15-3.33-12.92-.38-9.08,1.21-17.71,2.22-26.27,1.04-8.75,1.99-16.74-.67-24.72-2.23-7.77-6.94-15.7-7.47-25.29-.74-9.68,3.33-18.36,6.15-26.19,1.51-3.99,2.98-7.95,3.96-11.91,1.27-4,.36-7.2,1.66-12.97,1.38-5.19,5.33-8.76,8.25-11.32,3.1-2.65,4.86-5.21,5.08-8.81.14-.86-.03-1.83,0-2.76-.02-1.47-.14-2.11-.04-3.57.1-2.84.91-5.2,2.02-7.5,2.34-4.53,6.07-7.49,9.67-9.77,7.44-4.28,14.16-7.87,20.99-12.55,13.55-9.02,26.64-19.05,40.04-28.6,26.57-19,54.55-38.51,86.42-44.68-15.65,3.84-30.26,11.26-44.05,19.89-13.85,8.57-27.07,18.32-40.14,28.33-13.05,10.04-26.06,20.22-39.75,29.49-6.67,4.68-14.29,8.9-20.96,12.82-3.24,2.08-6.15,4.6-7.71,7.77-1.77,3.38-1.26,5.83-1.23,11.56-.09,5.33-3.66,10.27-6.86,12.84-3.25,2.82-5.73,5.21-6.67,8.55-.86,2.62-.31,8.42-1.72,12.74-1.16,4.44-2.74,8.52-4.3,12.54-3.03,8.11-6.6,15.73-6,23.72.29,8.08,4.52,15.44,7.04,24.15.62,2.15,1.13,4.58,1.42,6.64.3,2.47.36,4.72.27,7.01-.2,4.53-.8,8.89-1.45,13.2-1.25,8.61-3.01,17.16-2.86,25.48-.08,4.07,1.47,7.79,2.75,12.14,1.23,4.23,1.97,8.67,2.1,13.15.41,8.8-3.06,18.51-10.52,22.44Z" style="isolation:isolate" fill="#f5c793" opacity=".3"></path><path class="cls-5" d="M537.49,311.12c-1.07-4.7-1.05-10.14,1.58-14.41,2.67-4.07,4.39-8.6,3.55-13.46-.44-4.61-3.05-9.51-1.85-14.82.8-5.04,2.59-9.64,2.99-14.33.53-4.68-.27-9.1-2.3-13.57-1.99-4.87-1.78-10.5-1.36-15.37.46-4.94,1.13-9.78.63-14.27-.29-2.2-.97-4.23-2-5.99-.99-1.47-2.91-3.88-3.99-6.19-4.55-9.16-6.39-19.06-9.64-27.86-3.4-8.53-9.57-15.53-16.45-21.56-13.75-12.32-30.81-19.69-45.93-31.41-15.09-11.51-28.32-25.55-40.67-40.08-12.37-14.48-24.34-29.22-38.4-41.31C355.49,11.73,318,3.97,281.99,3.12c18.15-.41,36.48.61,54.37,4.96,17.85,4.46,35.04,12.8,49.77,24.88,14.9,11.91,27.03,27.02,39.47,41.23,12.39,14.3,25.43,27.86,40.18,38.91,14.41,11.32,31.57,19.05,45.94,32.05,7.12,6.32,13.94,14.07,17.67,23.78,3.43,9.52,5.12,19.23,9,27.63.95,2.11,2.02,3.46,3.67,6,1.37,2.43,2.15,5.18,2.42,7.85.46,5.39-.46,10.35-.99,15.18-.51,4.85-.83,9.45.8,13.76,1.91,4.42,2.92,10.09,2.1,15.15-.69,5.16-2.74,9.69-3.66,14.34-1.35,4.63.9,9.12,1.21,14.27.7,5.16-1.52,10.25-4.31,13.99-2.72,3.97-2.99,9.23-2.13,14.02Z" style="isolation:isolate" fill="#f5c793" opacity=".3"></path><path class="cls-5" d="M163.43,27.06C67.19,44.6,26.23,87.81,29.81,103.05c3.7,15.66,103.06,26.59,125.86,64.24-21.13-55.49-102.05-56.26-101.94-71.55.09-15.3,24.23-38.35,109.71-68.68Z" style="isolation:isolate" fill="#f5c793" opacity=".3"></path><path class="cls-2" d="M274.96,24.63c-18.93,0-73.48,27.11-96.56,39.79-5.58,3.15-5.78,29.49,0,31.81,22.84,15.88,77.62,56.39,96.56,56.39,16.96,0,75.56-38.55,96.79-56.35,5.15-4.35,5.6-28.7,0-31.8-23.1-12.73-77.15-39.84-96.79-39.84Z" fill="url(#1776585740104-4650604_linear-gradient-2)"></path></g></svg>