<svg xmlns="http://www.w3.org/2000/svg" data-name="Layer 1" style="" viewBox="0 0 511.99 512"><g class="nc-icon-wrapper"><defs><linearGradient id="1776867898147-5645143_a" x1="53.74" x2="72.85" y1="-33.39" y2="-33.39" gradientTransform="scale(1 -1) rotate(-45 -523.848 -205.515)" gradientUnits="userSpaceOnUse"><stop offset="0" stop-color="#e9f0f5"></stop><stop offset=".43" stop-color="#b6bdc1"></stop><stop offset="1" stop-color="#6e7578"></stop></linearGradient><linearGradient id="1776867898147-5645143_d" x1="351.92" x2="415.68" y1="641.01" y2="641.01" gradientTransform="scale(1 -1) rotate(-45 -1115.2 492.691)" gradientUnits="userSpaceOnUse"><stop offset="0" stop-color="#889194"></stop><stop offset=".04" stop-color="#949ca0"></stop><stop offset=".2" stop-color="#c2cace"></stop><stop offset=".32" stop-color="#dee6ea"></stop><stop offset=".39" stop-color="#e9f0f5"></stop><stop offset=".64" stop-color="#b5bec1"></stop><stop offset=".85" stop-color="#889194"></stop></linearGradient><linearGradient id="1776867898147-5645143_e" x1="343.97" x2="423.63" y1="955.53" y2="955.53" gradientTransform="scale(1 -1) rotate(-45 -1115.2 492.691)" gradientUnits="userSpaceOnUse"><stop offset="0" stop-color="#889194"></stop><stop offset="0" stop-color="#899295"></stop><stop offset=".1" stop-color="#b2babe"></stop><stop offset=".19" stop-color="#d0d8dc"></stop><stop offset=".27" stop-color="#e2eaee"></stop><stop offset=".32" stop-color="#e9f0f5"></stop><stop offset=".6" stop-color="#b5bec1"></stop><stop offset=".82" stop-color="#889194"></stop></linearGradient><linearGradient id="1776867898147-5645143_g" x1="349.23" x2="418.36" y1="1234.43" y2="1234.43" gradientTransform="scale(1 -1) rotate(-45 -1115.2 492.691)" gradientUnits="userSpaceOnUse"><stop offset="0" stop-color="#889194"></stop><stop offset="0" stop-color="#899295"></stop><stop offset=".1" stop-color="#b2babe"></stop><stop offset=".19" stop-color="#d0d8dc"></stop><stop offset=".27" stop-color="#e2eaee"></stop><stop offset=".32" stop-color="#e9f0f5"></stop><stop offset=".6" stop-color="#b5bec1"></stop><stop offset=".82" stop-color="#889194"></stop></linearGradient><linearGradient id="1776867898147-5645143_h" x1="350.34" x2="417.27" y1="688.48" y2="688.48" gradientTransform="scale(1 -1) rotate(-45 -1115.2 492.691)" gradientUnits="userSpaceOnUse"><stop offset="0" stop-color="#889194"></stop><stop offset="0" stop-color="#899295"></stop><stop offset=".1" stop-color="#b2babe"></stop><stop offset=".19" stop-color="#d0d8dc"></stop><stop offset=".27" stop-color="#e2eaee"></stop><stop offset=".32" stop-color="#e9f0f5"></stop><stop offset=".6" stop-color="#b5bec1"></stop><stop offset=".82" stop-color="#889194"></stop></linearGradient><linearGradient id="1776867898147-5645143_i" x1="10.22" x2="48.15" y1="498.63" y2="498.63" gradientTransform="scale(1 -1) rotate(-45 -523.848 -205.515)" gradientUnits="userSpaceOnUse"><stop offset="0" stop-color="#9eaaae"></stop><stop offset=".06" stop-color="#b3bdc1"></stop><stop offset=".17" stop-color="#d0d9de"></stop><stop offset=".26" stop-color="#e2eaef"></stop><stop offset=".32" stop-color="#e9f0f5"></stop><stop offset=".67" stop-color="#b5c0c4"></stop><stop offset=".82" stop-color="#9eaaae"></stop></linearGradient><radialGradient id="1776867898147-5645143_b" cx="384.28" cy="963.97" r="41.65" fx="384.28" fy="963.97" gradientTransform="rotate(-45.008 -13747.748 -5725.785) scale(1 -12)" gradientUnits="userSpaceOnUse"><stop offset="0" stop-color="#4e5e67"></stop><stop offset=".17" stop-color="#49555f"></stop><stop offset=".46" stop-color="#3a3d4a"></stop><stop offset=".62" stop-color="#302c3b"></stop></radialGradient><radialGradient id="1776867898147-5645143_c" cx="384.28" cy="909.62" r="45.65" fx="384.28" fy="909.62" gradientTransform="rotate(-45.008 -13304.576 -5542.227) scale(1 -12)" gradientUnits="userSpaceOnUse"><stop offset="0" stop-color="#4e5e67"></stop><stop offset=".17" stop-color="#49555f"></stop><stop offset=".46" stop-color="#3a3d4a"></stop><stop offset=".62" stop-color="#302c3b"></stop></radialGradient><radialGradient id="1776867898147-5645143_f" cx="384.98" cy="1192.46" r="36.54" fx="384.98" fy="1192.46" gradientTransform="matrix(.7071 .7071 .86986 -.86962 -833.54 802.07)" gradientUnits="userSpaceOnUse"><stop offset="0" stop-color="#4e5e67"></stop><stop offset=".17" stop-color="#49555f"></stop><stop offset=".46" stop-color="#3a3d4a"></stop><stop offset=".62" stop-color="#302c3b"></stop></radialGradient></defs><path d="M3.97 501.76c-6.43 12.07-5.51 12.51 6.26 6.26z" fill="#302c3b"></path><path d="m25.73 499.79-13.52-13.51s-.03.06-8.25 15.47l6.26 6.26c15.44-8.19 15.5-8.23 15.5-8.23Z" fill="url(#1776867898147-5645143_a)"></path><path d="m256.45 199.23 56.33 56.34L483.35 73.7l-45.04-45.08z" fill="url(#1776867898147-5645143_b)"></path><path d="m60.64 406.29 45.09 45.07 179.59-172.89-51.77-51.78z" fill="url(#1776867898147-5645143_c)"></path><path d="M8.43 488.32 23.7 503.6l82.03-52.24-45.09-45.07z" fill="url(#1776867898147-5645143_d)"></path><path d="m256.45 199.23 56.29 56.35-25.14 25.16-56.33-56.32z" fill="url(#1776867898147-5645143_e)"></path><path d="m455.11 11.83 45.03 45.06c33.59-33.57-11.48-78.62-45.03-45.06" fill="url(#1776867898147-5645143_f)"></path><path d="m436.42 26.72 48.84 48.89 16.8-16.78-48.87-48.9z" fill="url(#1776867898147-5645143_g)"></path><path d="M62.68 402.01 110 449.33l-6.29 6.31-47.33-47.32z" fill="url(#1776867898147-5645143_h)"></path><path d="M455.23 35.36c-.98-5.08-14.2-13.84-18.06-11.14-31.26 21.79-118.45 95.99-161.9 140.69 1.08 7.33 10.95 8.99 18.35 5.16 5.72-2.94 26.79-19.62 21.9-25.28 0 0 100.88-95.24 122.96-106.38 2.48-1.25 8.93-1.71 11.66 2.2 1.43 2.02 5.36-3.81 5.09-5.26Z" fill="#99a8ae"></path><path d="M455.23 35.36c-.72-7.26-15.15-16.42-22.08-12.11-6.54 4.05-153.47 126.31-157.62 140.62-1.15 3.99 10.47 7.24 20.28-2.86 41.3-42.49 140.38-131.86 150.57-132.24 3.96-.16 8.85 6.59 8.85 6.59" fill="url(#1776867898147-5645143_i)"></path></g></svg>