<svg xmlns="http://www.w3.org/2000/svg" style="" viewBox="0 0 511.98 512"><g class="nc-icon-wrapper"><defs><radialGradient id="1776131386699-5089841_radial-gradient" cx="622.16" cy="743.05" fx="622.16" fy="743.05" r="63.24" gradientTransform="matrix(.91631 -.08226 -.08096 .93097 -55.28 -608.16)" gradientUnits="userSpaceOnUse"><stop offset="0" stop-color="#ff709b"></stop><stop offset=".26" stop-color="#f96d97"></stop><stop offset=".61" stop-color="#e8638b"></stop><stop offset="1" stop-color="#cc5478"></stop></radialGradient><linearGradient id="1776131386699-5089841_linear-gradient" x1="475.95" y1="714.44" x2="407.11" y2="643.73" gradientTransform="translate(-28.02 -579.61)" gradientUnits="userSpaceOnUse"><stop offset="0" stop-color="#6e787a"></stop><stop offset=".61" stop-color="#d6dbde"></stop><stop offset=".69" stop-color="#d2d8da"></stop><stop offset=".77" stop-color="#c7cdd0"></stop><stop offset=".84" stop-color="#b4bbbe"></stop><stop offset=".91" stop-color="#9aa2a4"></stop><stop offset=".98" stop-color="#788284"></stop><stop offset="1" stop-color="#6e787a"></stop></linearGradient><linearGradient id="1776131386699-5089841_linear-gradient-2" x1="280.53" y1="-235.34" x2="226.12" y2="-291.23" gradientTransform="rotate(45 -78.075 121.93)" gradientUnits="userSpaceOnUse"><stop offset="0" stop-color="#6e787a"></stop><stop offset=".61" stop-color="#d6dbde"></stop><stop offset=".69" stop-color="#d2d8da"></stop><stop offset=".77" stop-color="#c7cdd0"></stop><stop offset=".84" stop-color="#b4bbbe"></stop><stop offset=".91" stop-color="#9aa2a4"></stop><stop offset=".98" stop-color="#788284"></stop><stop offset="1" stop-color="#6e787a"></stop></linearGradient><linearGradient id="1776131386699-5089841_linear-gradient-3" x1="280.53" y1="-223.4" x2="226.13" y2="-279.28" gradientTransform="rotate(45 -78.075 121.93)" gradientUnits="userSpaceOnUse"><stop offset="0" stop-color="#6e787a"></stop><stop offset=".61" stop-color="#d6dbde"></stop><stop offset=".69" stop-color="#d2d8da"></stop><stop offset=".77" stop-color="#c7cdd0"></stop><stop offset=".84" stop-color="#b4bbbe"></stop><stop offset=".91" stop-color="#9aa2a4"></stop><stop offset=".98" stop-color="#788284"></stop><stop offset="1" stop-color="#6e787a"></stop></linearGradient><linearGradient id="1776131386699-5089841_linear-gradient-4" x1="280.53" y1="-211.45" x2="226.13" y2="-267.34" gradientTransform="rotate(45 -78.075 121.93)" gradientUnits="userSpaceOnUse"><stop offset="0" stop-color="#6e787a"></stop><stop offset=".61" stop-color="#d6dbde"></stop><stop offset=".69" stop-color="#d2d8da"></stop><stop offset=".77" stop-color="#c7cdd0"></stop><stop offset=".84" stop-color="#b4bbbe"></stop><stop offset=".91" stop-color="#9aa2a4"></stop><stop offset=".98" stop-color="#788284"></stop><stop offset="1" stop-color="#6e787a"></stop></linearGradient><linearGradient id="1776131386699-5089841_linear-gradient-5" x1="61.14" y1="1008.12" x2="108.09" y2="1060.47" gradientTransform="translate(-28.02 -579.61)" gradientUnits="userSpaceOnUse"><stop offset="0" stop-color="#fed0ac"></stop><stop offset=".25" stop-color="#fccda8"></stop><stop offset=".5" stop-color="#f5c39b"></stop><stop offset=".77" stop-color="#ebb286"></stop><stop offset="1" stop-color="#de9e6d"></stop></linearGradient><linearGradient id="1776131386699-5089841_linear-gradient-6" x1="35.61" y1="1057.42" x2="63.04" y2="1084.22" gradientTransform="translate(-28.02 -579.61)" gradientUnits="userSpaceOnUse"><stop offset="0" stop-color="#4e5e67"></stop><stop offset=".37" stop-color="#3f4450"></stop><stop offset=".74" stop-color="#343241"></stop><stop offset="1" stop-color="#302c3b"></stop></linearGradient></defs><path class="cls-2" transform="rotate(-45 242.283 269.723)" d="M20.49 220.21H464.07V319.25H20.49z" fill="#f9c802"></path><path class="cls-8" d="M497.93,22.95l-8.91-8.89c-16.89-16.89-40.68-20.43-60.87-.26l-30.27,30.3,70.02,70.03,30.29-30.3c20.16-20.16,16.61-43.98-.26-60.88Z" fill="url(#1776131386699-5089841_radial-gradient)"></path><path class="cls-9" d="M467.9 114.13L397.86 44.09 358.14 83.81 428.19 153.86 467.9 114.13z" fill="url(#1776131386699-5089841_linear-gradient)"></path><path class="cls-7" d="M467.9,114.13c-12.01-12.01-56.82-56.82-70.04-70.04-3.01-3-11.44,5.45-8.44,8.45,11.9,11.9,53.48,53.48,70.03,70.03,3,3.01,11.45-5.43,8.45-8.43h0Z" fill="url(#1776131386699-5089841_linear-gradient-2)"></path><path class="cls-6" d="M459.45,122.56c-12-12-56.81-56.82-70.03-70.03-3-3-11.44,5.44-8.44,8.43,11.9,11.9,53.48,53.49,70.03,70.04,3,3.01,11.44-5.44,8.44-8.45h0Z" fill="url(#1776131386699-5089841_linear-gradient-3)"></path><path class="cls-5" d="M451.01,131.01c-12.01-12-56.82-56.82-70.03-70.03-3-3.01-11.46,5.44-8.46,8.43,11.9,11.9,53.49,53.48,70.05,70.04,3.01,3,11.45-5.44,8.44-8.45h0Z" fill="url(#1776131386699-5089841_linear-gradient-4)"></path><path class="cls-1" transform="rotate(-44.99 214.216 247.61)" d="M-3.38 233.6H431.81V261.62H-3.38z" fill="#ffe463"></path><path class="cls-10" transform="rotate(-44.98 264.409 297.765)" d="M46.84 283.75H481.98V311.79H46.84z" fill="#ea8800"></path><path class="cls-3" d="M50.44,391.54l-41.03,90.09,20.86,21.02,90.19-41.07c1.96-22.01-16.79-10.85-15.6-24.03,1.06-11.81-18.57-31.46-30.39-30.4-15.07,1.36-1.9-17.6-24.04-15.6h0Z" fill="url(#1776131386699-5089841_linear-gradient-5)"></path><path class="cls-4" d="M2.22,497.36c-5.67,12.51-.08,18.09,12.41,12.42l43.74-19.92-36.19-36.22-19.96,43.73h0Z" fill="url(#1776131386699-5089841_linear-gradient-6)"></path></g></svg>