<svg data-name="Layer 1" xmlns="http://www.w3.org/2000/svg" viewBox="0 0 409.78 512"><g class="nc-icon-wrapper"><defs></defs><path class="cls-14" d="M362.72,368.66c-.36.36-1.82,0-4.37-1.09s-5-2.27-7.37-3.55-3.55-1.91-3.55-1.91l-1.64-21.29s1.27-.55,3.82-1.64,5.1-2,7.64-2.73,4-1.09,4.37-1.09c4.37,4.73,6.55,9.65,6.55,14.74s-.91,9.46-2.73,13.1-2.73,5.46-2.73,5.46Z" fill="#e6ebef"></path><path class="cls-6" d="M245.88,318.43c5.46,9.83,8.83,18.02,10.1,24.57s3.73,8.19,7.37,4.91c8.01-7.28,16.47-11.01,25.39-11.19,8.92-.18,18.2.64,27.85,2.46,9.65,1.82,19.38,2.37,29.21,1.64,0,0,.91,1.46,2.73,4.37s1.46,8.55-1.09,16.93c-9.83,1.46-18.11,3.46-24.84,6.01-6.73,2.55-13.74,5.28-21.02,8.19-7.28,2.91-17.11,5.46-29.48,7.64-8.01,1.09-14.56,2.64-19.66,4.64s-9.83,2.82-14.2,2.46-9.28-3.64-14.74-9.83c-5.46-6.19-12.38-16.93-20.75-32.21,5.1-7.28,11.01-13.19,17.74-17.74,6.73-4.55,12.65-7.83,17.74-9.83s7.64-3,7.64-3Z" fill="#fac02d"></path><path class="cls-16" d="M251.34,324.43c-9.1,9.46-18.29,16.38-27.57,20.75s-17.02,7.19-23.2,8.46-9.28,1.91-9.28,1.91c-10.56-27.66-19.47-48.5-26.75-62.52-7.28-14.01-10.74-22.66-10.37-25.93,4.37-2.18,11.01-2.37,19.93-.55,8.92,1.82,18.29,4.46,28.12,7.92s18.2,6.64,25.12,9.55,10.37,4.37,10.37,4.37c0,0,1.18,3.73,3.55,11.19s5.73,15.74,10.1,24.84Z" fill="#5c6163"></path><path class="cls-14" d="M60.24,461.48c2.91,0,5-1,6.28-3s1.91-3,1.91-3l23.48,7.1v4.91c0,3.28-.18,6.55-.55,9.83s-.73,4.91-1.09,4.91c-5.82,1.46-11.01.45-15.56-3-4.55-3.46-8.1-7.19-10.65-11.19-2.55-4-3.82-6.19-3.82-6.55Z" fill="#e6ebef"></path><path class="cls-2" d="M89.18,374.12c-.36-8.74-.55-15.56-.55-20.47s1.91-9.92,5.73-15.01,11.01-12.38,21.57-21.84c1.09-1.09,4.19-.45,9.28,1.91s10.65,5.28,16.65,8.74c6.01,3.46,11.28,6.55,15.83,9.28,4.55,2.73,6.82,4.09,6.82,4.09-13.47,10.19-23.11,16.29-28.94,18.29-5.82,2-8.74,4.28-8.74,6.82.73,14.2,0,25.66-2.18,34.4s-5.28,16.2-9.28,22.39-8.1,12.19-12.28,18.02c-4.19,5.82-7.92,13.1-11.19,21.84l-4.09.82c-2.73.55-5.91.36-9.55-.55s-6.92-3.37-9.83-7.37c7.64-26.57,13.01-46.05,16.11-58.42s4.64-20.02,4.64-22.93Z" fill="#ffc940"></path><path class="cls-4" d="M229.5,250.73c7.28,11.65,10.92,21.66,10.92,30.03s-2.46,15.83-7.37,22.39-11.28,12.65-19.11,18.29c-7.83,5.64-16.11,11.65-24.84,18.02s-16.74,13.74-24.02,22.11c-9.46-5.1-17.93-11.19-25.39-18.29s-13.29-13.29-17.47-18.56-6.28-7.92-6.28-7.92c0,0,2-2,6.01-6.01,4-4,8.83-8.74,14.47-14.2,5.64-5.46,10.92-10.74,15.83-15.83s8.46-8.92,10.65-11.47l66.61-18.56Z" fill="#666b6e"></path><path class="cls-6" d="M90.82,177.02l24.57,24.02c-1.82,2.91-5,6.64-9.55,11.19s-9.01,8.83-13.38,12.83-7.28,6.19-8.74,6.55c-3.64,1.46-11.19-1.27-22.66-8.19s-22.48-16.38-33.03-28.39c-1.82,0-4.64-.45-8.46-1.36s-6.82-2.82-9.01-5.73c-.73-.73-2.18-1.73-4.37-3s-4.19-3.55-6.01-6.82c-.36-.73-.18-2.37.55-4.91s1.64-3.46,2.73-2.73c-.73-2.18-.45-4.64.82-7.37s3-3.37,5.19-1.91c-.36-1.82.18-3.91,1.64-6.28s3.46-2.27,6.01.27c0-1.82.91-3.18,2.73-4.09s3.09-1,3.82-.27c2.18,1.09,4.91,2.82,8.19,5.19s5.1,3.91,5.46,4.64c2.55,6.55,3.64,13.47,3.28,20.75,6.55,5.46,12.38,8.92,17.47,10.37s10.37,3.46,15.83,6.01c1.09.36,2.82-.91,5.19-3.82s4.64-6.19,6.82-9.83,3.82-6.01,4.91-7.1Z" fill="#fac02d"></path><path class="cls-13" d="M27.48,176.47c-.36,2.18-.27,4.19.27,6.01s-.82,2.37-4.09,1.64c-1.46-.73-3.28-.45-5.46.82s-4.46,1.91-6.82,1.91-5-2-7.92-6.01c2.18,1.46,4.37,2.37,6.55,2.73s3.82-.55,4.91-2.73c-1.09-1.82-2.82-3.37-5.19-4.64s-4.46-3.18-6.28-5.73c3.28,1.82,6.28,3.82,9.01,6.01s5,1.27,6.82-2.73c-1.82-2.18-3.37-3.73-4.64-4.64s-3-3.73-5.19-8.46c2.18,3.28,4.73,6.46,7.64,9.55,2.91,3.09,5.1,2.09,6.55-3,.36-2.18-.27-3.73-1.91-4.64s-3.18-3.37-4.64-7.37c1.82,2.18,3.28,4,4.37,5.46s2.37,2.55,3.82,3.28c2.55-2.55,4.37-2,5.46,1.64-1.09,1.82-1.82,3.64-2.18,5.46s-.73,3.64-1.09,5.46Z" fill="#f0a429"></path><path class="cls-15" d="M112.11,205.95c-1.09,1.46-3.37.55-6.82-2.73s-6.92-7.28-10.37-12.01-5.55-8.74-6.28-12.01c-.36-.73,2.37-5.46,8.19-14.2s11.47-18.2,16.93-28.39c1.09-1.46,3-.55,5.73,2.73s5,8.37,6.82,15.29,1.91,14.92.27,24.02-6.46,18.2-14.47,27.3Z" fill="#e35a00"></path><path class="cls-12" d="M182,114.23c.73,11.28,2.91,24.3,6.55,39.04s7.46,29.39,11.47,43.95,7.01,27.94,9.01,40.13,1.55,21.57-1.36,28.12c-6.19,2.18-13.65,3.73-22.39,4.64-8.74.91-16.47,1.27-23.2,1.09s-10.46-1.36-11.19-3.55c-2.18-9.46-5.1-16.93-8.74-22.39s-7.19-10.28-10.65-14.47-6.28-9.19-8.46-15.01c-2.91-6.92-6.19-13.74-9.83-20.47s-5.91-14.38-6.82-22.93c-.91-8.55,1-19.2,5.73-31.94,2.18-5.82,6.55-11.37,13.1-16.65s14.74-9.01,24.57-11.19,20.57-1.64,32.21,1.64Z" fill="#ff6500"></path><path class="cls-15" d="M157.43,111.5c-2.18,1.82-5.19,5.82-9.01,12.01s-6.82,12.19-9.01,18.02c-2.55,6.19-6.28,10.65-11.19,13.38s-9.01,2.64-12.28-.27-3.64-9.65-1.09-20.2c4-6.92,9.83-12.47,17.47-16.65s16.02-6.28,25.12-6.28Z" fill="#e35a00"></path><path class="cls-2" d="M133.95,81.47l2.46,6.55c1.64,4.37,3.82,9.1,6.55,14.2s5.73,8.37,9.01,9.83c-2.18,2.91-4.37,6.1-6.55,9.55s-4.19,7.01-6.01,10.65c-4.37,9.46-8.64,15.2-12.83,17.2s-7.28,1.36-9.28-1.91-2.09-8.37-.27-15.29c-.36-1.46-1.36-4.19-3-8.19s-3.82-7.55-6.55-10.65-6.46-4.09-11.19-3c3.28-10.92,7.92-18.38,13.92-22.39s11.47-6.1,16.38-6.28,7.37-.27,7.37-.27Z" fill="#ffc940"></path><path class="cls-13" d="M135.59,84.2s-.09,1.46-.27,4.37-2.64,4.91-7.37,6.01c.36,6.19-.55,10.46-2.73,12.83s-4.46,4.73-6.82,7.1-3.37,6.64-3,12.83c0,0-.91-1.73-2.73-5.19s-4.91-4.46-9.28-3c1.09-11.28,4.28-19.38,9.55-24.3s10.37-7.92,15.29-9.01l7.37-1.64Z" fill="#f0a429"></path><path class="cls-15" d="M231.14,249.63c1.46,1.82,0,4.64-4.37,8.46s-10.74,6.28-19.11,7.37c1.09-8.01.55-15.11-1.64-21.29s-4.55-12.38-7.1-18.56-4.19-13.29-4.91-21.29c-.36-9.83-2.46-18.29-6.28-25.39s-7.64-13.47-11.47-19.11-6.37-11.47-7.64-17.47.27-12.83,4.64-20.47c7.28,3.64,13.01,9.28,17.2,16.93s7.37,16.11,9.55,25.39,4,17.84,5.46,25.66,2.91,13.74,4.37,17.74c2.55,5.82,4.73,11.65,6.55,17.47s6.73,14.01,14.74,24.57Z" fill="#e35a00"></path><path class="cls-2" d="M204.38,167.19c-1.09-.36-1.27-2.55-.55-6.55s1.82-8.46,3.28-13.38,3-9.1,4.64-12.56,3-5,4.09-4.64c8.37,4,16.65,9.19,24.84,15.56,8.19,6.37,13.38,11.01,15.56,13.92,1.46,2.18,1.27,8.01-.55,17.47-1.82,9.46-4.64,20.57-8.46,33.31s-8.28,25.3-13.38,37.67c.73,8.01.27,15.01-1.36,21.02-1.64,6.01-4.46,8.64-8.46,7.92-1.09,0-2.55.73-4.37,2.18s-4.73,1.46-8.74,0c-1.82-.73-3.82-.73-6.01,0s-3.91.55-5.19-.55-1.73-4.55-1.36-10.37c-2.55-.73-3.91-3.09-4.09-7.1s.09-6.37.82-7.1c2.55-3.28,5.19-5.19,7.92-5.73s5.28-1.09,7.64-1.64c2.37-.55,4.09-2.09,5.19-4.64,2.18-6.55,3.55-13.92,4.09-22.11s1-16.02,1.36-23.48c.36-7.46,1.27-13.56,2.73-18.29.36-2.18-2.09-4.37-7.37-6.55-5.28-2.18-9.37-3.64-12.28-4.37Z" fill="#ffc940"></path><path class="cls-12" d="M203.29,168.28c-13.47-3.64-22.66-8.55-27.57-14.74s-7.1-12.38-6.55-18.56,2.27-11.37,5.19-15.56,5.46-5.91,7.64-5.19c9.46,1.82,18.38,5,26.75,9.55,8.37,4.55,12.92,7.37,13.65,8.46,1.46,2.91.91,7.37-1.64,13.38s-5.64,11.47-9.28,16.38c-3.64,4.91-6.37,7.01-8.19,6.28Z" fill="#ff6500"></path><path class="cls-8" d="M398.21,361.02c6.55,9.83,10.28,18.29,11.19,25.39s.18,12.83-2.18,17.2-5.19,7.46-8.46,9.28c-3.28,1.82-5.46,2.18-6.55,1.09-1.46-1.46-3.91-6.28-7.37-14.47s-6.82-17.47-10.1-27.85c-3.28-10.37-5.73-20.02-7.37-28.94-1.64-8.92-1.36-14.83.82-17.74,4.37-6.55,8.55-9.37,12.56-8.46s7.37,3.91,10.1,9.01,4.82,11.01,6.28,17.74,1.82,12.65,1.09,17.74Z" fill="#c5c9cc"></path><path class="cls-14" d="M394.93,361.02c6.55,9.83,10.46,18.29,11.74,25.39s.91,12.92-1.09,17.47-4.46,7.64-7.37,9.28-4.91,1.91-6.01.82c-1.46-1.46-3.91-6.28-7.37-14.47s-6.82-17.47-10.1-27.85c-3.28-10.37-5.73-20.02-7.37-28.94-1.64-8.92-1.36-14.83.82-17.74,4.73-6.19,9.37-7.46,13.92-3.82s8.1,9.55,10.65,17.74,3.28,15.56,2.18,22.11Z" fill="#e6ebef"></path><path class="cls-12" d="M361.08,374.67c-2.55-.36-4.91-1.27-7.1-2.73s-3.18-2.82-3-4.09,2.64-2.09,7.37-2.46c5.82-5.82,7.55-10.65,5.19-14.47s-6.1-6.64-11.19-8.46c-2.18-.73-3.73-2.82-4.64-6.28s1.55-4.28,7.37-2.46c2.55-2.55,5.19-4.73,7.92-6.55s4.46-2.55,5.19-2.18c5.1,2.91,8.19,6.28,9.28,10.1s1.73,7.83,1.91,12.01,1.55,8.1,4.09,11.74c8.37,11.65,13.56,21.38,15.56,29.21,2,7.83,2.18,13.83.55,18.02s-3.37,6.64-5.19,7.37c-4,1.09-6.37-.09-7.1-3.55-.73-3.46-2.64-8.28-5.73-14.47s-9.92-13.1-20.47-20.75Z" fill="#ff6500"></path><path class="cls-14" d="M376.37,389.41c-.36,0-1.82-1.09-4.37-3.28s-5-4.37-7.37-6.55-3.55-3.46-3.55-3.82c.73-1.46,1.18-2.82,1.36-4.09s.27-2.46.27-3.55c.36-.73,2-.09,4.91,1.91s5.91,4.55,9.01,7.64c3.09,3.09,4.91,5.82,5.46,8.19s-1.36,3.55-5.73,3.55Z" fill="#e6ebef"></path><path class="cls-8" d="M49.32,501.34c-17.47-1.82-29.76-5.73-36.85-11.74-7.1-6.01-11.01-11.74-11.74-17.2s0-8.37,2.18-8.74,7.73.27,16.65,1.91,18.93,4,30.03,7.1c11.1,3.09,21.02,6.46,29.76,10.1,8.74,3.64,13.83,7.1,15.29,10.37,2.91,7.28,3,12.28.27,15.01s-6.92,4-12.56,3.82c-5.64-.18-11.56-1.36-17.74-3.55s-11.28-4.55-15.29-7.1Z" fill="#c5c9cc"></path><path class="cls-14" d="M50.41,497.51c-17.47-1.46-29.85-4.91-37.13-10.37-7.28-5.46-11.37-10.65-12.28-15.56-.91-4.91-.27-7.55,1.91-7.92s7.73.27,16.65,1.91,18.93,4,30.03,7.1c11.1,3.09,21.02,6.46,29.76,10.1,8.74,3.64,13.83,7.1,15.29,10.37,2.18,5.82,1.82,9.83-1.09,12.01s-7.01,3.18-12.28,3-10.74-1.27-16.38-3.28c-5.64-2-10.46-4.46-14.47-7.37Z" fill="#e6ebef"></path><path class="cls-12" d="M55.33,457.66c1.09-2.55,3-3.82,5.73-3.82s4.82.91,6.28,2.73c1.46,1.82.55,4.37-2.73,7.64,3.28,4.37,7.28,7.64,12.01,9.83s8.74,1.09,12.01-3.28c.73-1.09,2.27-1.55,4.64-1.36s4.09,1.09,5.19,2.73-.18,3.73-3.82,6.28c1.09,3.28,1.46,6.46,1.09,9.55s-.73,4.82-1.09,5.19c-4.37,2.91-8.37,3.73-12.01,2.46s-7.28-2.91-10.92-4.91c-3.64-2-7.83-3-12.56-3-16.74.73-29.3-.36-37.67-3.28-8.37-2.91-13.83-6.28-16.38-10.1s-3.46-6.82-2.73-9.01c1.09-3.64,3.46-4.91,7.1-3.82s9.19,1.91,16.65,2.46,17.2-1.55,29.21-6.28Z" fill="#ff6500"></path><path class="cls-14" d="M35.13,462.57c.36-.36,2.09-1,5.19-1.91s6.19-1.73,9.28-2.46,4.64-.91,4.64-.55c1.09,1.46,2.09,2.37,3,2.73s1.73.91,2.46,1.64c.73.36-.55,1.27-3.82,2.73-3.28,1.46-7.01,2.73-11.19,3.82s-7.46,1.27-9.83.55-2.27-2.91.27-6.55Z" fill="#e6ebef"></path><path class="cls-2" d="M72.8,37.79c4.37-8.01,9.19-12.01,14.47-12.01s10.46,2.73,15.56,8.19,9.65,12.28,13.65,20.47,6.82,16.47,8.46,24.84,1.73,15.47.27,21.29c-1.09,3.64-4.09,7.46-9.01,11.47s-10.37,7.1-16.38,9.28-11.19,2.91-15.56,2.18-6.37-3.82-6.01-9.28c0-1.82-1.09-2.73-3.28-2.73s-2.91-1.64-2.18-4.91c1.09-.36.91-.91-.55-1.64-2.55-1.46-3.37-2.91-2.46-4.37s1.18-2.91.82-4.37c-3.28-.73-5.82-1.91-7.64-3.55s-1.46-3.37,1.09-5.19c2.18-2.91,4.37-6.1,6.55-9.55s2.18-8.28,0-14.47c-2.55-6.92-3.18-12.28-1.91-16.11s2.64-7.01,4.09-9.55Z" fill="#ffc940"></path><path class="cls-5" d="M72.25,104.95s1.18.09,3.55.27,4.09-.09,5.19-.82c.36-.36.64-.36.82,0s.09.73-.27,1.09c-1.09,1.09-2.82,1.55-5.19,1.36s-3.55-.27-3.55-.27v-.55c0-.36-.18-.73-.55-1.09Z" fill="#d48100"></path><path class="cls-13" d="M61.88,90.75s.64.73,1.91,2.18,3.91,1.46,7.92,0c2.55-.73,3.64-.18,3.28,1.64,0,2.18-.64,3.37-1.91,3.55s-2.27.45-3,.82c.73-1.46.55-2.37-.55-2.73-1.09,0-2.64-.45-4.64-1.36s-3-2.27-3-4.09Z" fill="#f0a429"></path><path class="cls-5" d="M91.36,58.54c1.46,1.46,1.46,2,0,1.64-6.19-1.09-10.56-.55-13.1,1.64-.73.73-1.36.55-1.91-.55s-.64-1.82-.27-2.18c5.1-4,10.19-4.19,15.29-.55Z" fill="#d48100"></path><path class="cls-1" d="M82.63,81.47c-.36,0-.91-1.55-1.64-4.64s-1.09-5.37-1.09-6.82c0-1.82,1.27-2.55,3.82-2.18s5.46,1.64,8.74,3.82c.73.36-.09,2.09-2.46,5.19s-4.82,4.64-7.37,4.64Z" fill="#f2f7fc"></path><path class="cls-10" d="M79.9,70.55c0-1.46.91-2.64,2.73-3.55s2.55,1.36,2.18,6.82c-.36,5.82-1.27,8.28-2.73,7.37s-2.18-4.46-2.18-10.65Z" fill="#945231"></path><path class="cls-3" d="M80.44,72.73c0-1.82.45-2.64,1.36-2.46s1.18,1.55.82,4.09c0,3.28-.36,4.55-1.09,3.82s-1.09-2.55-1.09-5.46Z" fill="#1a1626"></path><path class="cls-11" d="M92.45,71.64c-1.09-.36-2.91-.91-5.46-1.64s-4.91-.55-7.1.55c0,.36-.64.18-1.91-.55s-1.73-1.27-1.36-1.64c2.91-2.55,6.1-3.09,9.55-1.64s5.55,3.09,6.28,4.91Z" fill="#45332c"></path><path class="cls-5" d="M74.98,94.57c0,2.18-.55,3-1.64,2.46s-2.18-.64-3.28-.27c1.09-.73,2.18-.82,3.28-.27s1.64-.09,1.64-1.91Z" fill="#d48100"></path><path class="cls-9" d="M141.05,9.94c.73.36,2.37,2.18,4.91,5.46s5.19,6.46,7.92,9.55,4.09,4.82,4.09,5.19c7.28,8.74,11.1,17.02,11.47,24.84s-.55,15.11-2.73,21.84-3.55,12.83-4.09,18.29,1.73,10.01,6.82,13.65c-4,1.09-7.1.91-9.28-.55s-3.28-2.18-3.28-2.18v3.82c0,2.55.55,5.46,1.64,8.74-9.1.36-15.65-1.73-19.66-6.28s-6.64-10.19-7.92-16.93-2.64-12.83-4.09-18.29c-4.73,0-9.65-3.28-14.74-9.83s-7.28-14.92-6.55-25.12c-4.73,2.55-10.28,4.64-16.65,6.28s-9.55,2.46-9.55,2.46c0,0,.64-1.36,1.91-4.09s2.64-5.19,4.09-7.37c-4.73,5.1-9.01,8.92-12.83,11.47s-5.73,3.82-5.73,3.82c0-.73.09-1.64.27-2.73s.27-1.64.27-1.64c0,0-.45.82-1.36,2.46s-1.91,4.09-3,7.37c-2.55-10.56-2-20.11,1.64-28.66s9.46-15.38,17.47-20.47,17.2-7.92,27.57-8.46,20.84,1.91,31.39,7.37Z" fill="#e68c00"></path><path class="cls-7" d="M153.06,22.5c2.91.73,5.19,2.18,6.82,4.37s2.64,3.64,3,4.37c0,.73-.91.64-2.73-.27s-2.55-1.18-2.18-.82c6.55,7.64,10.1,14.83,10.65,21.57s-.09,13.01-1.91,18.84-3.46,11.56-4.91,17.2-.91,11.01,1.64,16.11c-2.55-.36-4.55-1.46-6.01-3.28s-2.18-2.73-2.18-2.73c0,0-.27,2.09-.82,6.28s.27,8.64,2.46,13.38c-10.19-2.91-17.02-8.1-20.47-15.56s-6.28-15.38-8.46-23.75c-5.82-1.46-10.92-6.1-15.29-13.92s-5.46-16.47-3.28-25.93c-3.28,1.46-7.28,3.18-12.01,5.19s-8.92,3.73-12.56,5.19-5.46,2.18-5.46,2.18c0,0,.55-1.73,1.64-5.19s3.46-7.92,7.1-13.38c-2.91,2.91-6.55,6.55-10.92,10.92s-7.1,6.92-8.19,7.64c-.36,0-.09-1.73.82-5.19s1.91-5.91,3-7.37c-4,4-6.64,8.64-7.92,13.92s-1.91,7.92-1.91,7.92c-5.1-10.19-6.55-19.66-4.37-28.39s7.19-16.02,15.01-21.84C81.44,4.12,91.18.84,102.83.11s24.39,2,38.22,8.19c.73.73.82.09.27-1.91s-.45-2.64.27-1.91c4.37,2.91,7.37,6.37,9.01,10.37s2.46,6.55,2.46,7.64Z" fill="#f9a307"></path><path class="cls-2" d="M129.58,61.27c5.1-1.09,8.55-.09,10.37,3s2.55,6.46,2.18,10.1c-.36,3.28-1.64,5.82-3.82,7.64s-3.64,3.46-4.37,4.91c-1.46,2.91-3.28,4.46-5.46,4.64s-3.64.09-4.37-.27c-2.55-1.46-4-4.46-4.37-9.01s.27-9.01,1.91-13.38,4.28-6.92,7.92-7.64Z" fill="#ffc940"></path><path class="cls-13" d="M129.58,65.63c3.28-1.09,5.64-.18,7.1,2.73s1.46,5.82,0,8.74c-1.09,2.91-2.64,4.64-4.64,5.19s-3.73,1.91-5.19,4.09c-.73-1.09-1.09-2-1.09-2.73,1.82-1.09,2.55-3.09,2.18-6.01s-1.64-4-3.82-3.28c.73-4.73,2.55-7.64,5.46-8.74Z" fill="#f0a429"></path></g></svg>