<svg data-name="Layer 1" xmlns="http://www.w3.org/2000/svg" style="" viewBox="0 0 712.35 512"><g class="nc-icon-wrapper"><defs><linearGradient id="1776585740218-7609649_linear-gradient" x1="-561.99" y1="2" x2="-561.99" y2="514" gradientTransform="rotate(-180 -102.905 257)" gradientUnits="userSpaceOnUse"><stop offset="0" stop-color="#a84034"></stop><stop offset=".24" stop-color="#c35b2c"></stop><stop offset=".5" stop-color="#d76f25"></stop><stop offset=".75" stop-color="#e47c21"></stop><stop offset="1" stop-color="#e88020"></stop></linearGradient><linearGradient id="1776585740218-7609649_linear-gradient-2" x1="-647.32" y1="262.19" x2="-258.34" y2="262.19" gradientTransform="rotate(-180 -102.905 257)" gradientUnits="userSpaceOnUse"><stop offset="0" stop-color="#a84034"></stop><stop offset=".02" stop-color="#ad4532"></stop><stop offset=".1" stop-color="#c35b2c"></stop><stop offset=".2" stop-color="#d46c26"></stop><stop offset=".33" stop-color="#df7723"></stop><stop offset=".51" stop-color="#e67e21"></stop><stop offset="1" stop-color="#e88020"></stop></linearGradient><linearGradient id="1776585740218-7609649_linear-gradient-3" x1="-476.66" y1="205.41" x2="-863.34" y2="205.41" gradientTransform="rotate(-180 -102.905 257)" gradientUnits="userSpaceOnUse"><stop offset="0" stop-color="#a84034"></stop><stop offset=".24" stop-color="#c35b2c"></stop><stop offset=".5" stop-color="#d76f25"></stop><stop offset=".75" stop-color="#e47c21"></stop><stop offset="1" stop-color="#e88020"></stop></linearGradient></defs><path class="cls-3" d="M90.87,422.36C33.12,370.15,0,297.61,0,223.41,0,112.41,77.58,0,225.85,0c49.62,0,94.4,12.37,130.34,35.52C392.11,12.37,436.89,0,486.5,0c148.26,0,225.85,112.41,225.85,223.41,0,143.39-122.35,288.59-356.17,288.59-137.36,0-220.09-48.75-265.31-89.64ZM395.15,139.75l-38.98,43.74-39-43.75c-19.34-21.7-51.79-33.66-91.34-33.66-89.22,0-120.88,63.2-120.88,117.33,0,44.07,20.37,87.77,55.89,119.89,45.31,40.95,112.83,62.62,195.33,62.62,172.6,0,251.21-94.63,251.21-182.49,0-54.13-31.68-117.33-120.89-117.33-39.55-.01-71.98,11.94-91.35,33.66Z" fill="url(#1776585740218-7609649_linear-gradient)"></path><path class="cls-2" d="M130.79,497.75c4.66-2.43,8.98-5.62,12.84-9.54,47.75-48.77,85.89-55.9,132.07-82.51,122.43-70.56,176.92-157.22,163.92-241.96C424.6,65.79,338.69,0,225.85,0c-28.97,0-52.47,23.74-52.47,53.05s23.5,53.05,52.47,53.05c60.89,0,103.08,28.32,110.06,73.89,7.91,51.46-39.7,102.75-137.29,149.23-34.56,16.46-97.38,49.54-131.53,84.41-20.1,20.56-19.29,53.94,1.86,74.51,17.07,16.66,42.22,19.88,61.85,9.62Z" fill="url(#1776585740218-7609649_linear-gradient-2)"></path><path class="cls-1" d="M576.52,492.39c19.04,11.31,44.3,9.47,62.33-6.24,22.28-19.38,25-52.65,6.11-74.3-31.8-36.34-95.77-68.13-130.35-87.31-63.61-35.26-107.72-74.71-133.95-107.22-21.44-26.51-55.77-90.84-94.71-99.77-6.23,14.39-10.71,29.84-13.22,46.16-12.94,84.35,40.94,170.6,162.15,240.94,46.53,27.02,83.91,25.51,129.39,77.49,3.61,4.14,7.76,7.57,12.25,10.25Z" fill="url(#1776585740218-7609649_linear-gradient-3)"></path><path class="cls-5" d="M47.15,142.08c-4.22,0-10.57,10.38-10.57,12.44s8.46,14.53,12.71,14.53,12.71-12.43,10.57-14.53c-2.11-2.07-8.46-12.44-12.71-12.44Z" style="isolation:isolate" fill="#fff" opacity=".5"></path><path class="cls-4" d="M90.87,437.74c-4.22,0-10.57,10.37-10.57,12.44s8.47,14.55,12.71,14.55,12.71-12.44,10.57-14.55c-2.11-2.07-8.47-12.44-12.71-12.44Z" fill="#fff"></path><path class="cls-4" d="M90.79,269.46c0-2.24-5.68-5.6-6.81-5.6s-7.98,4.47-7.98,6.72,6.85,6.69,7.98,5.57,6.81-4.46,6.81-6.69Z" fill="#fff"></path><path class="cls-4" d="M55.89,209.17c-6.69,0-19.47,16.15-19.47,19.09s4.5,7.33,5.99,8.8c1.5,1.48,17.96-14.66,17.96-17.61s-1.48-10.28-4.49-10.28Z" fill="#fff"></path><path class="cls-5" d="M324.27,349.84c0-6.57-16.46-19.08-19.47-19.08s-7.48,4.4-8.98,5.85c-1.49,1.49,14.98,17.62,17.98,17.62s10.47-1.47,10.47-4.4Z" style="isolation:isolate" fill="#fff" opacity=".5"></path><path class="cls-5" d="M74.69,323.48c-2.28-4.63-12.27-2.07-13.29,0-1.04,2.08-1.04,8.3-1.04,10.38s11.25,2.08,12.27,0c1.04-2.07,3.08-8.3,2.06-10.38Z" style="isolation:isolate" fill="#fff" opacity=".5"></path><path class="cls-4" d="M435.68,30.19c-4.24,0-10.59,10.37-10.59,12.43s8.48,14.56,12.72,14.56,12.7-12.45,10.56-14.56c-2.11-2.06-8.47-12.43-12.7-12.43Z" fill="#fff"></path><path class="cls-4" d="M539.8,27.4c0-2.24-5.7-5.59-6.82-5.59s-7.98,4.46-7.98,6.72,6.82,6.68,7.98,5.55c1.12-1.11,6.82-4.45,6.82-6.69Z" fill="#fff"></path><path class="cls-4" d="M409.61,167.38c-6.68,0-19.46,16.15-19.46,19.09s4.5,7.33,5.98,8.8c1.52,1.47,17.98-14.66,17.98-17.62,0-2.94-1.5-10.27-4.5-10.27Z" fill="#fff"></path><path class="cls-5" d="M507.39,57.57c-2.28-4.64-12.29-2.08-13.3,0s-1.02,8.3-1.02,10.38,11.24,2.08,12.27,0c1.04-2.08,3.08-8.31,2.06-10.38Z" style="isolation:isolate" fill="#fff" opacity=".5"></path><path class="cls-4" d="M310.78,56.94c-4.25,0-10.61,10.38-10.61,12.44s8.46,14.55,12.71,14.55,12.7-12.45,10.59-14.55c-2.11-2.06-8.47-12.44-12.69-12.44Z" fill="#fff"></path><path class="cls-4" d="M244.56,35.76c0-2.23-5.68-5.58-6.81-5.58s-7.98,4.45-7.98,6.7,6.85,6.71,7.98,5.58c1.12-1.11,6.81-4.47,6.81-6.7Z" fill="#fff"></path><path class="cls-5" d="M152.41,36.41c-6.69,0-19.47,16.13-19.47,19.07s4.5,7.35,6,8.82c1.49,1.46,17.95-14.68,17.95-17.61s-1.49-10.27-4.49-10.27Z" style="isolation:isolate" fill="#fff" opacity=".5"></path><path class="cls-4" d="M222.75,69.53c-2.29-4.64-12.27-2.08-13.29,0-1.02,2.07-1.02,8.3-1.02,10.38s11.23,2.08,12.27,0c1.02-2.08,3.06-8.31,2.05-10.38Z" fill="#fff"></path><path class="cls-4" d="M115.23,110.89c-2.28-4.63-12.27-2.08-13.29,0-1.01,2.07-1.01,8.28-1.01,10.38s11.23,2.08,12.25,0c1.02-2.1,3.07-8.33,2.05-10.38Z" fill="#fff"></path><path class="cls-4" d="M319.02,224.41c-2.27-4.65-12.28-2.08-13.29,0s-1.02,8.29-1.02,10.38,11.25,2.08,12.28,0c1.01-2.09,3.04-8.3,2.04-10.38Z" fill="#fff"></path><path class="cls-4" d="M366.49,280.67c-4.23,0-10.59,10.38-10.59,12.45s8.47,14.53,12.7,14.53,12.72-12.45,10.59-14.53c-2.13-2.08-8.47-12.45-12.7-12.45Z" fill="#fff"></path><path class="cls-5" d="M380.1,108.2c-1.5-1.48-16.47-4.41-19.47-1.48-2.99,2.95,0,17.62,2.99,17.62s14.97,2.93,17.98,0c3.01-2.95,0-14.67-1.5-16.14Z" style="isolation:isolate" fill="#fff" opacity=".5"></path><path class="cls-4" d="M615.09,460.32c0-2.23-5.7-5.59-6.82-5.59s-7.98,4.47-7.98,6.7,6.85,6.71,7.98,5.59c1.12-1.11,6.82-4.46,6.82-6.7Z" fill="#fff"></path><path class="cls-4" d="M554.61,423.61c0-2.23-5.68-5.58-6.85-5.58s-7.96,4.46-7.96,6.7,6.82,6.7,7.96,5.58c1.17-1.11,6.85-4.47,6.85-6.7Z" fill="#fff"></path><path class="cls-5" d="M324.8,168.41c0-2.24-5.69-5.6-6.81-5.6s-7.98,4.49-7.98,6.71,6.82,6.7,7.98,5.58c1.12-1.12,6.81-4.47,6.81-6.69Z" style="isolation:isolate" fill="#fff" opacity=".5"></path><path class="cls-4" d="M278.25,447.87c0-2.23-5.71-5.59-6.85-5.59s-7.98,4.46-7.98,6.7,6.85,6.71,7.98,5.58c1.14-1.12,6.85-4.45,6.85-6.69Z" fill="#fff"></path><path class="cls-5" d="M432.42,316.78c-6.7,0-19.46,16.13-19.46,19.08s4.47,7.33,5.98,8.79c1.5,1.48,17.95-14.67,17.95-17.61,0-2.93-1.48-10.26-4.47-10.26Z" style="isolation:isolate" fill="#fff" opacity=".5"></path><path class="cls-4" d="M588.5,93.28c0-6.57-16.47-19.1-19.48-19.1s-7.48,4.41-8.98,5.88c-1.5,1.48,14.98,17.62,17.98,17.62,2.98,0,10.48-1.46,10.48-4.4Z" fill="#fff"></path><path class="cls-4" d="M490.93,356.85c-2.28-4.65-12.27-2.07-13.28,0-1.02,2.08-1.02,8.29-1.02,10.38s11.22,2.07,12.24,0c1.05-2.09,3.08-8.31,2.06-10.38Z" fill="#fff"></path><path class="cls-5" d="M614.72,326.1c-2.28-4.63-12.29-2.07-13.3,0-1.02,2.09-1.02,8.31-1.02,10.4s11.24,2.07,12.27,0c1.04-2.08,3.07-8.31,2.06-10.4Z" style="isolation:isolate" fill="#fff" opacity=".5"></path><path class="cls-4" d="M235.93,331.26c-4.24,0-10.57,10.37-10.57,12.45s8.46,14.53,12.68,14.53,12.71-12.45,10.6-14.53c-2.1-2.09-8.46-12.45-12.7-12.45Z" fill="#fff"></path><path class="cls-4" d="M393.48,424.26c-4.24,0-10.59,10.37-10.59,12.45s8.48,14.51,12.72,14.51,12.7-12.43,10.56-14.51c-2.11-2.08-8.47-12.45-12.7-12.45Z" fill="#fff"></path><path class="cls-4" d="M223.13,397.79c0-2.24-5.71-5.58-6.85-5.58s-7.95,4.44-7.95,6.69,6.81,6.71,7.95,5.59c1.14-1.11,6.85-4.47,6.85-6.7Z" fill="#fff"></path><path class="cls-5" d="M152.41,384.46c-6.7,0-19.48,16.14-19.48,19.09s4.5,7.33,6.01,8.79c1.48,1.48,17.96-14.67,17.96-17.6s-1.51-10.28-4.5-10.28Z" style="isolation:isolate" fill="#fff" opacity=".5"></path><path class="cls-5" d="M336.87,466.2c-6.71,0-19.48,16.13-19.48,19.08s4.5,7.32,6,8.8c1.5,1.47,17.98-14.67,17.98-17.62s-1.51-10.26-4.5-10.26Z" style="isolation:isolate" fill="#fff" opacity=".5"></path><path class="cls-5" d="M469.05,468.25c-2.28-4.64-12.27-2.08-13.28,0s-1.02,8.3-1.02,10.37,11.26,2.08,12.29,0c.99-2.07,3.03-8.29,2.01-10.37Z" style="isolation:isolate" fill="#fff" opacity=".5"></path><path class="cls-4" d="M671.59,301.19c-3.01-2.94-17.98,0-17.98,2.93s-3.01,14.68,0,17.62c3.01,2.95,14.98,0,16.47-1.47s4.5-16.16,1.5-19.08Z" fill="#fff"></path><path class="cls-5" d="M652.96,105.25c-3.01-2.94-17.98,0-17.98,2.95s-3.01,14.67,0,17.61,14.98,0,16.46-1.47c1.51-1.47,4.5-16.14,1.51-19.09Z" style="isolation:isolate" fill="#fff" opacity=".5"></path><path class="cls-4" d="M626.27,258.27c0,2.25,5.68,5.59,6.8,5.59s7.98-4.46,7.98-6.7-6.82-6.7-7.98-5.59c-1.14,1.14-6.8,4.47-6.8,6.7Z" fill="#fff"></path><path class="cls-4" d="M643.11,197.01c6.7,0,19.46-16.15,19.46-19.08s-4.5-7.35-5.98-8.8c-1.5-1.47-17.98,14.68-17.98,17.61s1.5,10.27,4.5,10.27Z" fill="#fff"></path><path class="cls-4" d="M561.35,391.11c0,6.56,16.47,19.08,19.48,19.08s7.48-4.41,8.98-5.87-14.98-17.61-17.98-17.61c-2.99-.01-10.48,1.45-10.48,4.4Z" fill="#fff"></path><path class="cls-5" d="M670.48,227.84c2.28,4.64,12.27,2.08,13.28,0,1.02-2.09,1.02-8.31,1.02-10.38s-11.24-2.08-12.27,0c-1.01,2.07-3.06,8.29-2.04,10.38Z" style="isolation:isolate" fill="#fff" opacity=".5"></path></g></svg>