<svg data-name="Layer 1" xmlns="http://www.w3.org/2000/svg" style="" viewBox="0 0 512.03 512"><g class="nc-icon-wrapper"><defs><linearGradient id="1777811038000-1292897_linear-gradient" x1="452.29" y1="98" x2="452.29" y2="162.01" gradientTransform="matrix(1 0 0 -1 0 514)" gradientUnits="userSpaceOnUse"><stop offset="0" stop-color="#302c3b"></stop><stop offset=".38" stop-color="#454854"></stop><stop offset=".76" stop-color="#555e67"></stop><stop offset="1" stop-color="#5b666e"></stop></linearGradient><linearGradient id="1777811038000-1292897_linear-gradient-2" x1="349.88" y1="98" x2="349.88" y2="162.01" gradientTransform="matrix(1 0 0 -1 0 514)" gradientUnits="userSpaceOnUse"><stop offset="0" stop-color="#302c3b"></stop><stop offset=".38" stop-color="#454854"></stop><stop offset=".76" stop-color="#555e67"></stop><stop offset="1" stop-color="#5b666e"></stop></linearGradient><linearGradient id="1777811038000-1292897_linear-gradient-3" x1="247.48" y1="98" x2="247.48" y2="162.01" gradientTransform="matrix(1 0 0 -1 0 514)" gradientUnits="userSpaceOnUse"><stop offset="0" stop-color="#302c3b"></stop><stop offset=".38" stop-color="#454854"></stop><stop offset=".76" stop-color="#555e67"></stop><stop offset="1" stop-color="#5b666e"></stop></linearGradient></defs><path class="cls-5" transform="rotate(-19.99 377.74 40.625)" d="M290.65 34.1H465V47.160000000000004H290.65z" fill="#99a8ae"></path><path class="cls-1" d="M463.47,21.14c-5.63,2.05-11.86-.85-13.91-6.49s.85-11.95,6.49-14c5.63-2.05,11.86.85,14,6.49,1.96,5.63-.94,11.95-6.57,14Z" fill="#cfd8dd"></path><path class="cls-1" transform="rotate(-20.01 190.478 108.856)" d="M69.55 100.15H311.39V117.56H69.55z" fill="#cfd8dd"></path><path class="cls-5" d="M74.59,169.63c-9.05,3.33-19.03-1.37-22.36-10.41-3.24-9.05,1.37-19.03,10.41-22.36,9.05-3.33,19.03,1.37,22.36,10.41s-1.37,19.03-10.41,22.36Z" fill="#99a8ae"></path><path class="cls-1" d="M71.6,161.43c-4.52,1.62-9.56-.68-11.18-5.21-1.62-4.52.68-9.56,5.21-11.18s9.56.68,11.18,5.21c1.71,4.52-.68,9.47-5.21,11.18Z" fill="#cfd8dd"></path><path class="cls-12" d="M512.03,452.26c0,16.98-17.15,34.14-34.14,34.14H34.14c-16.98,0-34.14-17.15-34.14-34.14V187.72c0-16.98,17.15-34.14,34.14-34.14h443.76c16.98,0,34.14,17.15,34.14,34.14v264.55Z" fill="#95c539"></path><path class="cls-11" d="M128.01 512L76.8 512 68.27 486.4 136.54 486.4 128.01 512z" fill="#302c3b"></path><path class="cls-11" d="M435.22 512L384.02 512 375.49 486.4 443.76 486.4 435.22 512z" fill="#302c3b"></path><circle class="cls-13" cx="452.29" cy="383.99" r="42.67" fill="#e6ebef"></circle><circle class="cls-6" cx="452.29" cy="383.99" r="32" fill="url(#1777811038000-1292897_linear-gradient)"></circle><path class="cls-14" d="M456.39,365.39c0,1.11-.94,2.05-2.05,2.05h-4.1c-1.11,0-2.05-.94-2.05-2.05v-12.37c0-1.11.94-2.05,2.05-2.05h4.1c1.11,0,2.05.94,2.05,2.05v12.37Z" fill="#f2f5f7"></path><circle class="cls-13" cx="349.88" cy="383.99" r="42.67" fill="#e6ebef"></circle><circle class="cls-3" cx="349.88" cy="383.99" r="32" fill="url(#1777811038000-1292897_linear-gradient-2)"></circle><path class="cls-14" d="M368.49,388.09c-1.11,0-2.05-.94-2.05-2.05v-4.1c0-1.11.94-2.05,2.05-2.05h12.37c1.11,0,2.05.94,2.05,2.05v4.1c0,1.11-.94,2.05-2.05,2.05h-12.37Z" fill="#f2f5f7"></path><path class="cls-13" d="M277.69,353.78c16.64,16.64,16.64,43.69,0,60.33-16.64,16.64-43.69,16.64-60.33,0-16.64-16.64-16.64-43.69,0-60.33,16.64-16.64,43.61-16.64,60.33,0Z" fill="#e6ebef"></path><circle class="cls-2" cx="247.48" cy="383.99" r="32" fill="url(#1777811038000-1292897_linear-gradient-3)"></circle><path class="cls-14" d="M237.24,367.95c.85.77.85,2.13,0,2.9l-2.9,2.9c-.77.77-2.13.77-2.9,0l-8.79-8.79c-.85-.77-.85-2.13,0-2.9l2.9-2.9c.77-.77,2.13-.77,2.9,0l8.79,8.79Z" fill="#f2f5f7"></path><path class="cls-8" d="M475.84,288.16h-251.92c-5.89,0-10.58-4.69-10.58-10.5v-51.8c0-5.8,4.78-10.5,10.58-10.5h251.83c5.89,0,10.58,4.69,10.58,10.5v51.8c.09,5.72-4.69,10.5-10.5,10.5Z" fill="#fff"></path><path class="cls-13" d="M486.42,236.1H213.34v-10.67c0-5.63,4.61-10.16,10.24-10.16h252.6c5.72,0,10.24,4.52,10.24,10.16v10.67Z" fill="#e6ebef"></path><path class="cls-9" d="M412.86 288.16L391.87 288.16 402.37 215.28 412.86 288.16z" fill="#e81c27"></path><path class="cls-10" d="M229.13 215.28H234.42V236.1H229.13z" fill="#4e5e67"></path><path class="cls-10" d="M248.76 215.28H254.04999999999998V236.1H248.76z" fill="#4e5e67"></path><path class="cls-10" d="M268.47 215.28H273.76000000000005V236.1H268.47z" fill="#4e5e67"></path><path class="cls-10" d="M288.19 215.28H293.48V236.1H288.19z" fill="#4e5e67"></path><path class="cls-10" d="M307.9 215.28H313.19V236.1H307.9z" fill="#4e5e67"></path><path class="cls-10" d="M327.53 215.28H332.82V236.1H327.53z" fill="#4e5e67"></path><path class="cls-10" d="M347.24 215.28H352.53000000000003V236.1H347.24z" fill="#4e5e67"></path><path class="cls-10" d="M366.95 215.28H372.24V236.1H366.95z" fill="#4e5e67"></path><path class="cls-10" d="M386.66 215.28H391.95000000000005V236.1H386.66z" fill="#4e5e67"></path><path class="cls-10" d="M406.38 215.28H411.67V236.1H406.38z" fill="#4e5e67"></path><path class="cls-10" d="M426.01 215.28H431.3V236.1H426.01z" fill="#4e5e67"></path><path class="cls-10" d="M445.72 215.28H451.01000000000005V236.1H445.72z" fill="#4e5e67"></path><path class="cls-10" d="M465.43 215.28H470.72V236.1H465.43z" fill="#4e5e67"></path><path class="cls-7" d="M187.74,204.78v230.41c0,12.97-17.07,12.97-17.07,0v-230.41c0-12.97,17.07-12.97,17.07,0Z" fill="#6f9529"></path><path class="cls-7" d="M153.61,204.78v230.41c0,12.97-17.07,12.97-17.07,0v-230.41c0-12.97,17.07-12.97,17.07,0Z" fill="#6f9529"></path><path class="cls-7" d="M119.47,204.78v230.41c0,12.97-17.07,12.97-17.07,0v-230.41c0-12.97,17.07-12.97,17.07,0Z" fill="#6f9529"></path><path class="cls-7" d="M85.34,204.78v230.41c0,12.97-17.07,12.97-17.07,0v-230.41c0-12.97,17.07-12.97,17.07,0Z" fill="#6f9529"></path><path class="cls-7" d="M51.2,204.78v230.41c0,12.97-17.07,12.97-17.07,0v-230.41c0-12.97,17.07-12.97,17.07,0Z" fill="#6f9529"></path><path class="cls-4" d="M187.74,281.59v76.8c0,12.97-17.07,12.97-17.07,0v-76.8c0-12.97,17.07-12.97,17.07,0Z" fill="#1a1626"></path><path class="cls-4" d="M153.61,247.45v145.07c0,12.97-17.07,12.97-17.07,0v-145.07c0-12.97,17.07-12.97,17.07,0Z" fill="#1a1626"></path><path class="cls-4" d="M119.47,230.39v179.21c0,12.97-17.07,12.97-17.07,0v-179.21c0-12.97,17.07-12.97,17.07,0Z" fill="#1a1626"></path><path class="cls-4" d="M85.34,247.45v145.07c0,12.97-17.07,12.97-17.07,0v-145.07c0-12.97,17.07-12.97,17.07,0Z" fill="#1a1626"></path><path class="cls-4" d="M51.2,281.59v76.8c0,12.97-17.07,12.97-17.07,0v-76.8c0-12.97,17.07-12.97,17.07,0Z" fill="#1a1626"></path></g></svg>