<svg xmlns="http://www.w3.org/2000/svg" style="" viewBox="0 0 512.01 512"><g class="nc-icon-wrapper"><defs><linearGradient id="1776867898177-2443391_linear-gradient" x1="256.01" y1="566" x2="256.01" y2="1078" gradientTransform="translate(0 -566)" gradientUnits="userSpaceOnUse"><stop offset="0" stop-color="#00abf1"></stop><stop offset=".23" stop-color="#00a7ef"></stop><stop offset=".47" stop-color="#009ae9"></stop><stop offset=".71" stop-color="#0086e0"></stop><stop offset=".95" stop-color="#0069d3"></stop><stop offset="1" stop-color="#0062d0"></stop></linearGradient></defs><path class="cls-1" d="M512,443.73c0,37.55-30.72,68.27-68.27,68.27H68.27c-37.55,0-68.27-30.72-68.27-68.27V68.27C0,30.72,30.72,0,68.27,0h375.47c37.55,0,68.27,30.72,68.27,68.27v375.47h-.01Z" fill="url(#1776867898177-2443391_linear-gradient)"></path><path class="cls-2" d="M216.1,154.1c13.05-5.84,27.22-8.88,41.77-8.88,56.22,0,101.96,43.77,101.96,102.25h66.83c0-91.91-75.73-169.07-168.8-169.07-32.82,0-64.49,9.27-91.85,27.05l-29.48-28.65v112.18h115.46l-35.9-34.88h.01Z" fill="#fff"></path><path class="cls-2" d="M294.4,346.15c-12.5,5.65-26.05,8.67-40.03,8.67-56.3,0-102.12-45.62-102.12-107.35h-66.92c0,97,75.84,177.9,169.04,177.9,31.63,0,61.85-9.32,88.15-26.35l32.95,36.18v-126h-114.71l33.65,36.95h-.01Z" fill="#fff"></path></g></svg>