<svg xmlns="http://www.w3.org/2000/svg" data-name="Layer 1" style="" viewBox="0 0 512 512"><g class="nc-icon-wrapper"><defs><linearGradient id="1776867898178-9213948_linear-gradient" x1="256" x2="256" y1="514" y2="2" gradientTransform="matrix(1 0 0 -1 0 514)" gradientUnits="userSpaceOnUse"><stop offset="0" stop-color="#00abf1"></stop><stop offset=".23" stop-color="#00a7ef"></stop><stop offset=".47" stop-color="#009ae9"></stop><stop offset=".71" stop-color="#0086e0"></stop><stop offset=".95" stop-color="#0069d3"></stop><stop offset="1" stop-color="#0062d0"></stop></linearGradient></defs><path d="M512 443.73c0 37.55-30.72 68.27-68.27 68.27H68.27C30.72 512 0 481.28 0 443.73V68.27C0 30.72 30.72 0 68.27 0h375.47c37.55 0 68.27 30.72 68.27 68.27v375.47Z" fill="url(#1776867898178-9213948_linear-gradient)"></path><path d="M341.33 189.67h-153.6c-5.6 0-33.03 2.48-34.03 48.68l-60.42 51.78c-4.93-14-7.95-30.25-7.95-49.26 0-87.65 61.24-119.47 102.4-119.47h153.6V87.27l85.33 68.27-85.33 68.27v-34.13ZM170.67 322.33h153.6c5.6 0 33.03-2.48 34.04-48.68l60.41-51.78c4.94 14.01 7.95 30.25 7.95 49.26 0 87.65-61.24 119.47-102.4 119.47h-153.6v34.13l-85.33-68.27 85.33-68.27v34.13Z" class="cls-2" fill="#fff"></path></g></svg>