<svg data-name="Layer 1" xmlns="http://www.w3.org/2000/svg" style="" viewBox="0 0 510.91 512"><g class="nc-icon-wrapper"><defs><radialGradient id="1776131386721-7366151_radial-gradient" cx="1716.57" cy="1715.09" fx="1716.57" fy="1715.09" r="23.04" gradientTransform="matrix(.59 0 0 1 -758.89 -1645.98)" gradientUnits="userSpaceOnUse"><stop offset="0" stop-color="#f2f2f0"></stop><stop offset="1" stop-color="#65747d"></stop></radialGradient><linearGradient id="1776131386721-7366151_linear-gradient" x1="485.82" y1="2005.92" x2="485.82" y2="1862.04" gradientTransform="translate(0 -1645.98)" gradientUnits="userSpaceOnUse"><stop offset="0" stop-color="#900"></stop><stop offset="0" stop-color="#9a0000"></stop><stop offset=".32" stop-color="#c50000"></stop><stop offset=".6" stop-color="#e50000"></stop><stop offset=".84" stop-color="#f80000"></stop><stop offset="1" stop-color="red"></stop></linearGradient><linearGradient id="1776131386721-7366151_linear-gradient-2" x1="-4731.07" y1="2005.92" x2="-4731.07" y2="1862.04" gradientTransform="matrix(-1 0 0 1 -4705.98 -1645.98)" gradientUnits="userSpaceOnUse"><stop offset="0" stop-color="#900"></stop><stop offset="0" stop-color="#9a0000"></stop><stop offset=".32" stop-color="#c50000"></stop><stop offset=".6" stop-color="#e50000"></stop><stop offset=".84" stop-color="#f80000"></stop><stop offset="1" stop-color="red"></stop></linearGradient><linearGradient id="1776131386721-7366151_linear-gradient-3" x1="254.92" y1="2157.98" x2="254.92" y2="1709.98" gradientTransform="translate(0 -1645.98)" gradientUnits="userSpaceOnUse"><stop offset="0" stop-color="#405e6d"></stop><stop offset="1" stop-color="#5b9cba"></stop></linearGradient><linearGradient id="1776131386721-7366151_linear-gradient-4" x1="255.15" y1="2132.39" x2="255.15" y2="1758.12" gradientTransform="translate(0 -1645.98)" gradientUnits="userSpaceOnUse"><stop offset="0" stop-color="#5b9cba"></stop><stop offset="1" stop-color="#405e6d"></stop></linearGradient><linearGradient id="1776131386721-7366151_linear-gradient-5" x1="254.9" y1="2129.83" x2="254.9" y2="1762.19" gradientTransform="translate(0 -1645.98)" gradientUnits="userSpaceOnUse"><stop offset="0" stop-color="#1a1626"></stop><stop offset="1" stop-color="#3c4659"></stop></linearGradient><linearGradient id="1776131386721-7366151_linear-gradient-6" x1="254.9" y1="2103.21" x2="254.9" y2="1788.31" gradientTransform="translate(0 -1645.98)" gradientUnits="userSpaceOnUse"><stop offset="0" stop-color="#7b98a8"></stop><stop offset=".1" stop-color="#88a7b8"></stop><stop offset=".34" stop-color="#a3c6d7"></stop><stop offset=".58" stop-color="#b6dbed"></stop><stop offset=".8" stop-color="#c2e9fa"></stop><stop offset="1" stop-color="#c6edff"></stop></linearGradient><linearGradient id="1776131386721-7366151_linear-gradient-7" x1="254.92" y1="2016.67" x2="254.92" y2="2056.61" gradientTransform="translate(0 -1645.98)" gradientUnits="userSpaceOnUse"><stop offset="0" stop-color="#7b98a8"></stop><stop offset=".1" stop-color="#88a7b8"></stop><stop offset=".34" stop-color="#a3c6d7"></stop><stop offset=".58" stop-color="#b6dbed"></stop><stop offset=".8" stop-color="#c2e9fa"></stop><stop offset="1" stop-color="#c6edff"></stop></linearGradient><radialGradient id="1776131386721-7366151_radial-gradient-2" cx="-3960.86" cy="3985.32" fx="-3960.86" fy="3985.32" r="115.72" gradientTransform="matrix(-1 0 0 .34 -3705.95 -951.56)" gradientUnits="userSpaceOnUse"><stop offset="0" stop-color="#fff"></stop><stop offset=".2" stop-color="#f6f6f7"></stop><stop offset=".54" stop-color="#dddfe1"></stop><stop offset=".96" stop-color="#b4babd"></stop><stop offset="1" stop-color="#b0b6b9"></stop></radialGradient><linearGradient id="1776131386721-7366151_linear-gradient-8" x1="351.69" y1="1972.64" x2="351.69" y2="1829.27" gradientTransform="translate(0 -1645.98)" gradientUnits="userSpaceOnUse"><stop offset="0" stop-color="#c6edff"></stop><stop offset="1" stop-color="#7b98a8"></stop></linearGradient><linearGradient id="1776131386721-7366151_linear-gradient-9" x1="4260.04" y1="5412.7" x2="4260.04" y2="4932.93" gradientTransform="matrix(.27 0 0 .27 -798.59 -1138.79)" gradientUnits="userSpaceOnUse"><stop offset="0" stop-color="#3c4659"></stop><stop offset="1" stop-color="#1a1626"></stop></linearGradient><radialGradient id="1776131386721-7366151_radial-gradient-3" cx="412.72" cy="251.26" fx="412.72" fy="251.26" r="62.47" gradientTransform="rotate(33.75 354.041 80.014) scale(1 .71)" gradientUnits="userSpaceOnUse"><stop offset="0" stop-color="#dbf9ff" stop-opacity=".7"></stop><stop offset=".95" stop-color="#dbf9ff" stop-opacity=".7"></stop><stop offset="1" stop-color="#dbf9ff" stop-opacity="0"></stop></radialGradient><linearGradient id="1776131386721-7366151_linear-gradient-10" x1="158.13" y1="1972.64" x2="158.13" y2="1829.27" gradientTransform="translate(0 -1645.98)" gradientUnits="userSpaceOnUse"><stop offset="0" stop-color="#c6edff"></stop><stop offset="1" stop-color="#7b98a8"></stop></linearGradient><linearGradient id="1776131386721-7366151_linear-gradient-11" x1="158.13" y1="1960.35" x2="158.13" y2="1832.34" gradientTransform="translate(0 -1645.98)" gradientUnits="userSpaceOnUse"><stop offset="0" stop-color="#3c4659"></stop><stop offset="1" stop-color="#1a1626"></stop></linearGradient><radialGradient id="1776131386721-7366151_radial-gradient-4" cx="-3925.02" cy="4334.29" fx="-3925.02" fy="4334.29" r="62.47" gradientTransform="rotate(-146.25 -2377.257 -821.167) scale(1 -.71)" gradientUnits="userSpaceOnUse"><stop offset="0" stop-color="#dbf9ff" stop-opacity=".7"></stop><stop offset=".95" stop-color="#dbf9ff" stop-opacity=".7"></stop><stop offset="1" stop-color="#dbf9ff" stop-opacity="0"></stop></radialGradient><radialGradient id="1776131386721-7366151_radial-gradient-5" cx="2078.86" cy="4433.19" fx="2078.86" fy="4475.68" r="64" gradientTransform="matrix(.38 0 0 .38 -534.05 -1653.63)" gradientUnits="userSpaceOnUse"><stop offset="0" stop-color="#ffe66b"></stop><stop offset=".28" stop-color="#ffe468"></stop><stop offset=".46" stop-color="#ffdf60"></stop><stop offset=".62" stop-color="#ffd651"></stop><stop offset=".76" stop-color="#ffca3c"></stop><stop offset=".88" stop-color="#ffba21"></stop><stop offset="1" stop-color="#ffa600"></stop></radialGradient></defs><path class="cls-15" d="M240.57,74.23l8.7-42.5h11.26l8.7,42.5h-28.67,0Z" fill="url(#1776131386721-7366151_radial-gradient)"></path><path class="cls-16" d="M460.74,359.94v-143.87c13.31,0,24.41,4.44,33.28,13.31,8.87,8.87,14.17,19.46,15.87,31.74.68,6.83,1.02,15.87,1.02,27.14s-.34,20.14-1.02,26.62c-1.71,12.29-6.91,22.87-15.62,31.74-8.71,8.87-19.88,13.31-33.54,13.31h.01Z" fill="url(#1776131386721-7366151_linear-gradient)"></path><path class="cls-13" d="M50.17,359.94v-143.87c-13.31,0-24.41,4.44-33.28,13.31s-14.17,19.46-15.87,31.74c-.68,6.83-1.02,15.87-1.02,27.14s.34,20.14,1.02,26.62c1.7,12.29,6.91,22.87,15.62,31.74,8.71,8.87,19.88,13.31,33.54,13.31h-.01Z" fill="url(#1776131386721-7366151_linear-gradient-2)"></path><path class="cls-12" d="M377.8,507.91c-15.36,1.37-33.88,2.39-55.55,3.07s-44.2,1.02-67.59,1.02-45.91-.34-67.59-1.02-40.02-1.71-55.04-3.07c-21.16-1.71-38.23-7.85-51.2-18.43s-22.7-23.04-29.18-37.38c-6.49-14.34-10.75-28.33-12.8-41.98-1.02-8.87-1.88-21.5-2.56-37.89-.68-16.38-1.11-34.05-1.28-52.99-.17-18.94-.17-36.95,0-54.02.17-17.07.26-31.06.26-41.98,0-29.35,4.61-56.07,13.82-80.13s23.72-43.26,43.52-57.6c19.8-14.34,45.74-21.5,77.83-21.5h168.96c32.09,0,58.03,7.17,77.83,21.5,19.8,14.34,34.3,33.54,43.52,57.6s13.82,50.78,13.82,80.13c0,10.92.09,24.92.26,41.98.17,17.06.17,35.07,0,54.02s-.6,36.61-1.28,52.99-1.54,29.02-2.56,37.89c-2.05,13.66-6.31,27.74-12.8,42.24-6.49,14.5-16.22,26.97-29.18,37.38-12.97,10.41-30.04,16.47-51.2,18.18h-.01Z" fill="url(#1776131386721-7366151_linear-gradient-3)"></path><path class="cls-11" d="M382.41,478.73c-15.7,2.73-34.82,4.7-57.35,5.89s-46.08,1.79-70.66,1.79-48.04-.6-70.4-1.79-41.22-3.16-56.58-5.89c-23.9-3.75-42.75-13.74-56.58-29.95-13.83-16.21-20.74-39.68-20.74-70.4v-158.21c0-30.38,6.91-54.02,20.74-70.91,13.82-16.9,33.02-27.05,57.6-30.46,16.73-2.05,36.1-3.67,58.11-4.86s44.8-1.79,68.35-1.79,46.34.6,68.35,1.79,41.56,2.82,58.63,4.86c24.23,3.42,43.35,13.57,57.35,30.46,13.99,16.9,20.99,40.54,20.99,70.91v158.21c0,30.72-7,54.19-20.99,70.4s-32.94,26.2-56.83,29.95h0Z" fill="url(#1776131386721-7366151_linear-gradient-4)"></path><path class="cls-8" d="M380.87,476.68c-15.36,2.39-34.14,4.18-56.32,5.38-22.18,1.2-45.48,1.79-69.89,1.79s-47.62-.6-69.63-1.79-40.7-2.99-56.07-5.38c-23.55-3.75-42.15-13.57-55.81-29.44-13.66-15.87-20.48-39-20.48-69.38v-155.65c0-30.04,6.83-53.34,20.48-69.89,13.65-16.55,32.6-26.37,56.83-29.44,16.73-2.39,35.93-4.1,57.6-5.12,21.67-1.02,44.12-1.54,67.33-1.54s45.66.51,67.33,1.54c21.67,1.02,40.87,2.73,57.6,5.12,24.23,3.07,43.18,12.89,56.83,29.44,13.65,16.55,20.48,39.85,20.48,69.89v155.65c0,30.38-6.83,53.51-20.48,69.38-13.66,15.87-32.26,25.69-55.81,29.44h.01Z" fill="url(#1776131386721-7366151_linear-gradient-5)"></path><path class="cls-9" d="M372.68,451.08c-14.68,2.05-32.34,3.58-52.99,4.61-20.65,1.02-42.33,1.54-65.03,1.54s-44.38-.51-65.03-1.54c-20.65-1.02-38.14-2.56-52.48-4.61-16.04-2.39-28.59-6.31-37.63-11.78-9.05-5.46-15.7-12.71-19.97-21.76s-7.59-20.22-9.98-33.54c-1.02-5.8-1.88-14.34-2.56-25.6-.68-11.26-1.11-23.9-1.28-37.89-.17-13.99-.26-27.99-.26-41.98s.34-26.88,1.02-38.66c.68-11.78,1.54-20.91,2.56-27.39,3.42-20.14,9.9-35.24,19.46-45.31s26.11-16.47,49.66-19.2c15.7-2.05,33.62-3.5,53.76-4.35,20.14-.86,41.05-1.28,62.72-1.28s42.67.42,62.98,1.28c20.31.86,38.31,2.3,54.02,4.35,23.55,2.73,40.11,9.13,49.66,19.2,9.56,10.07,16.04,25.18,19.46,45.31,1.02,6.49,1.88,15.62,2.56,27.39.68,11.77,1.02,24.66,1.02,38.66s-.09,27.99-.26,41.98-.6,26.62-1.28,37.89-1.54,19.8-2.56,25.6c-2.39,13.31-5.72,24.49-9.98,33.54-4.27,9.05-10.92,16.3-19.97,21.76-9.05,5.46-21.59,9.39-37.63,11.78h.01Z" fill="url(#1776131386721-7366151_linear-gradient-6)"></path><path class="cls-7" d="M163.77,387.59c-1.7-4.1-1.96-7.94-.77-11.52s4.01-5.38,8.45-5.38h166.92c4.44,0,7.26,1.79,8.45,5.38s.94,7.42-.77,11.52c-2.73,6.49-6.49,11.95-11.26,16.38-4.77,4.43-10.92,6.66-18.43,6.66h-122.88c-7.51,0-13.66-2.22-18.43-6.66s-8.54-9.9-11.26-16.38h-.02Z" fill="url(#1776131386721-7366151_linear-gradient-7)"></path><path class="cls-4" d="M166.84,387.08c-1.7-3.75-1.96-7.17-.77-10.24s4.01-4.61,8.45-4.61h160.77c4.44,0,7.26,1.54,8.45,4.61s.94,6.49-.77,10.24c-2.73,5.46-6.4,10.07-11.01,13.82s-10.67,5.63-18.18,5.63h-117.76c-7.51,0-13.57-1.88-18.18-5.63s-8.28-8.36-11.01-13.82h0Z" fill="url(#1776131386721-7366151_radial-gradient-2)"></path><path class="cls-14" d="M272.32,372.23v34.3h-4.61v-34.3h4.61ZM303.04,372.23v34.3h-4.61v-34.3h4.61ZM328.13,403.46c1.37-.68,2.47-1.37,3.33-2.05s1.28-1.02,1.28-1.02v-28.16h-4.61v31.23h0ZM242.1,372.23v34.3h-4.61v-34.3h4.61ZM211.38,372.23v34.3h-4.61v-34.3h4.61ZM181.69,403.46c-1.37-.68-2.47-1.37-3.33-2.05s-1.28-1.02-1.28-1.02v-28.16h4.61v31.23h0Z" fill="#1a1626"></path><path class="cls-6" d="M423.88,254.97c0,13.31-3.24,25.43-9.73,36.35-6.49,10.92-15.19,19.54-26.11,25.86-10.92,6.31-23.04,9.47-36.35,9.47s-25.43-3.16-36.35-9.47c-10.92-6.31-19.63-14.94-26.11-25.86-6.49-10.92-9.73-23.04-9.73-36.35s3.24-24.92,9.73-35.84c6.49-10.92,15.19-19.63,26.11-26.11,10.92-6.48,23.04-9.73,36.35-9.73s25.43,3.24,36.35,9.73,19.63,15.19,26.11,26.11c6.48,10.92,9.73,22.87,9.73,35.84h0Z" fill="url(#1776131386721-7366151_linear-gradient-8)"></path><path class="cls-10" d="M415.57,250.24c0,8.82-1.66,17.09-4.98,24.82-3.32,7.73-7.91,14.52-13.77,20.38-5.86,5.86-12.66,10.46-20.38,13.77-7.73,3.32-16,4.98-24.82,4.98s-17.09-1.66-24.82-4.98c-7.73-3.32-14.52-7.91-20.38-13.77-5.86-5.86-10.46-12.66-13.77-20.38-3.32-7.73-4.98-16-4.98-24.82s1.66-17.09,4.98-24.82c3.32-7.73,7.91-14.52,13.77-20.38,5.86-5.86,12.66-10.46,20.38-13.77s16-4.98,24.82-4.98,17.09,1.66,24.82,4.98,14.52,7.91,20.38,13.77c5.86,5.86,10.46,12.66,13.77,20.38,3.32,7.73,4.98,16,4.98,24.82h0Z" fill="url(#1776131386721-7366151_linear-gradient-9)"></path><path class="cls-14" d="M406.47,250.36c0,14.68-5.38,27.22-16.13,37.63-10.75,10.41-23.64,15.62-38.66,15.62s-28.42-5.21-39.17-15.62c-10.75-10.41-16.13-22.95-16.13-37.63s5.38-27.31,16.13-37.89c10.75-10.58,23.81-15.87,39.17-15.87s27.9,5.29,38.66,15.87c10.75,10.58,16.13,23.21,16.13,37.89h0Z" fill="#1a1626"></path><path class="cls-5" d="M383.94,250.36c0,8.87-3.16,16.47-9.47,22.78-6.31,6.31-13.91,9.47-22.78,9.47s-16.55-3.16-23.04-9.47c-6.49-6.31-9.73-13.91-9.73-22.78s3.24-16.98,9.73-23.3,14.17-9.47,23.04-9.47,16.47,3.16,22.78,9.47c6.31,6.31,9.47,14.08,9.47,23.3h0Z" fill="#ffe66b"></path><path class="cls-3" d="M406.47,250.36c0,14.68-5.38,27.22-16.13,37.63-10.75,10.41-23.64,15.62-38.66,15.62s-28.42-5.21-39.17-15.62c-10.75-10.41-16.13-22.95-16.13-37.63s5.38-27.31,16.13-37.89c10.75-10.58,23.81-15.87,39.17-15.87s27.9,5.29,38.66,15.87c10.75,10.58,16.13,23.21,16.13,37.89h0Z" fill="url(#1776131386721-7366151_radial-gradient-3)"></path><path class="cls-17" d="M85.94,254.97c0-12.97,3.24-24.92,9.73-35.84s15.19-19.63,26.11-26.11c10.92-6.49,23.04-9.73,36.35-9.73s25.43,3.24,36.35,9.73,19.63,15.19,26.11,26.11c6.49,10.92,9.73,22.87,9.73,35.84s-3.24,25.43-9.73,36.35-15.19,19.54-26.11,25.86c-10.92,6.31-23.04,9.47-36.35,9.47s-25.43-3.16-36.35-9.47c-10.92-6.31-19.63-14.94-26.11-25.86-6.49-10.92-9.73-23.04-9.73-36.35h0Z" fill="url(#1776131386721-7366151_linear-gradient-10)"></path><path class="cls-18" d="M94.13,250.36c0-11.95,2.9-22.7,8.7-32.26s13.57-17.24,23.3-23.04c9.73-5.8,20.39-8.7,32-8.7s22.7,2.9,32.26,8.7,17.24,13.48,23.04,23.04,8.7,20.31,8.7,32.26-2.9,22.27-8.7,32-13.48,17.5-23.04,23.3-20.31,8.7-32.26,8.7-22.27-2.9-32-8.7-17.5-13.57-23.3-23.3c-5.8-9.73-8.7-20.39-8.7-32h0Z" fill="url(#1776131386721-7366151_linear-gradient-11)"></path><path class="cls-14" d="M104.44,250.36c0,14.68,5.38,27.22,16.13,37.63,10.75,10.41,23.64,15.62,38.66,15.62s28.42-5.21,39.17-15.62c10.75-10.41,16.13-22.95,16.13-37.63s-5.38-27.31-16.13-37.89-23.81-15.87-39.17-15.87-27.9,5.29-38.66,15.87-16.13,23.21-16.13,37.89h0Z" fill="#1a1626"></path><path class="cls-5" d="M190.66,250.24c0,4.48-.84,8.68-2.53,12.61-1.68,3.93-4.02,7.38-7,10.36s-6.43,5.31-10.36,7c-3.93,1.68-8.13,2.53-12.61,2.53s-8.68-.84-12.61-2.53c-3.93-1.68-7.38-4.02-10.36-7s-5.31-6.43-7-10.36c-1.68-3.93-2.53-8.13-2.53-12.61s.84-8.68,2.53-12.61c1.68-3.93,4.02-7.38,7-10.36s6.43-5.31,10.36-7,8.13-2.53,12.61-2.53,8.68.84,12.61,2.53,7.38,4.02,10.36,7,5.31,6.43,7,10.36c1.68,3.93,2.53,8.13,2.53,12.61Z" fill="#ffe66b"></path><path class="cls-2" d="M104.44,250.36c0,14.68,5.38,27.22,16.13,37.63,10.75,10.41,23.64,15.62,38.66,15.62s28.42-5.21,39.17-15.62c10.75-10.41,16.13-22.95,16.13-37.63s-5.38-27.31-16.13-37.89-23.81-15.87-39.17-15.87-27.9,5.29-38.66,15.87-16.13,23.21-16.13,37.89h0Z" fill="url(#1776131386721-7366151_radial-gradient-4)"></path><path class="cls-1" d="M278.96,24.03c0-4.49-1.09-8.52-3.27-12.11s-5.09-6.47-8.75-8.65-7.66-3.27-12.02-3.27-8.52,1.09-12.11,3.27c-3.59,2.18-6.47,5.06-8.65,8.65s-3.27,7.62-3.27,12.11,1.09,8.36,3.27,12.02,5.06,6.57,8.65,8.75,7.62,3.27,12.11,3.27,8.36-1.09,12.02-3.27c3.65-2.18,6.57-5.09,8.75-8.75s3.27-7.66,3.27-12.02Z" fill="url(#1776131386721-7366151_radial-gradient-5)"></path></g></svg>