<svg data-name="Layer 1" xmlns="http://www.w3.org/2000/svg" style="" viewBox="0 0 512.02 512"><g class="nc-icon-wrapper"><defs><linearGradient id="1776867898228-5325133_linear-gradient" x1="3245.92" y1="-57.7" x2="3364.91" y2="-57.7" gradientTransform="matrix(.29 0 0 -8.35 -697.38 -213.07)" gradientUnits="userSpaceOnUse"><stop offset="0" stop-color="#c48300"></stop><stop offset=".3" stop-color="#ffe173"></stop><stop offset=".41" stop-color="#fcdc6d"></stop><stop offset=".56" stop-color="#f2cd5b"></stop><stop offset=".73" stop-color="#e3b53d"></stop><stop offset=".92" stop-color="#ce9314"></stop><stop offset="1" stop-color="#c48300"></stop></linearGradient><linearGradient id="1776867898228-5325133_linear-gradient-2" x1="215.07" y1="-1026.75" x2="296.95" y2="-1026.75" gradientTransform="matrix(1 0 0 -1 0 -566)" gradientUnits="userSpaceOnUse"><stop offset="0" stop-color="#c48300"></stop><stop offset=".3" stop-color="#ffe173"></stop><stop offset=".41" stop-color="#fcdc6d"></stop><stop offset=".56" stop-color="#f2cd5b"></stop><stop offset=".73" stop-color="#e3b53d"></stop><stop offset=".92" stop-color="#ce9314"></stop><stop offset="1" stop-color="#c48300"></stop></linearGradient><linearGradient id="1776867898228-5325133_linear-gradient-3" x1="187.78" y1="-1039.52" x2="324.25" y2="-1039.52" gradientTransform="matrix(1 0 0 -1 0 -566)" gradientUnits="userSpaceOnUse"><stop offset="0" stop-color="#c48300"></stop><stop offset=".3" stop-color="#ffe173"></stop><stop offset=".41" stop-color="#fcdc6d"></stop><stop offset=".56" stop-color="#f2cd5b"></stop><stop offset=".73" stop-color="#e3b53d"></stop><stop offset=".92" stop-color="#ce9314"></stop><stop offset="1" stop-color="#c48300"></stop></linearGradient><radialGradient id="1776867898228-5325133_radial-gradient" cx="256" cy="-669.16" fx="256" fy="-669.16" r="164.75" gradientTransform="matrix(1 0 0 -1 0 -566)" gradientUnits="userSpaceOnUse"><stop offset="0" stop-color="#c48300"></stop><stop offset=".31" stop-color="#c48300"></stop><stop offset=".39" stop-color="#ce9314"></stop><stop offset=".58" stop-color="#e3b53d"></stop><stop offset=".75" stop-color="#f2cd5b"></stop><stop offset=".9" stop-color="#fcdc6d"></stop><stop offset="1" stop-color="#ffe173"></stop></radialGradient><linearGradient id="1776867898228-5325133_linear-gradient-4" x1="119.55" y1="-1060.8" x2="392.48" y2="-1060.8" gradientTransform="matrix(1 0 0 -1 0 -566)" gradientUnits="userSpaceOnUse"><stop offset="0" stop-color="#c48300"></stop><stop offset=".3" stop-color="#ffe173"></stop><stop offset=".41" stop-color="#fcdc6d"></stop><stop offset=".56" stop-color="#f2cd5b"></stop><stop offset=".73" stop-color="#e3b53d"></stop><stop offset=".92" stop-color="#ce9314"></stop><stop offset="1" stop-color="#c48300"></stop></linearGradient><linearGradient id="1776867898228-5325133_linear-gradient-5" x1="239.64" y1="-597.93" x2="272.39" y2="-597.93" gradientTransform="matrix(1 0 0 -1 0 -566)" gradientUnits="userSpaceOnUse"><stop offset="0" stop-color="#c48300"></stop><stop offset=".3" stop-color="#ffe173"></stop><stop offset=".41" stop-color="#fcdc6d"></stop><stop offset=".56" stop-color="#f2cd5b"></stop><stop offset=".73" stop-color="#e3b53d"></stop><stop offset=".92" stop-color="#ce9314"></stop><stop offset="1" stop-color="#c48300"></stop></linearGradient><linearGradient id="1776867898228-5325133_linear-gradient-6" x1="230.36" y1="-641.6" x2="281.68" y2="-641.6" gradientTransform="matrix(1 0 0 -1 0 -566)" gradientUnits="userSpaceOnUse"><stop offset="0" stop-color="#c48300"></stop><stop offset=".3" stop-color="#ffe173"></stop><stop offset=".41" stop-color="#fcdc6d"></stop><stop offset=".56" stop-color="#f2cd5b"></stop><stop offset=".73" stop-color="#e3b53d"></stop><stop offset=".92" stop-color="#ce9314"></stop><stop offset="1" stop-color="#c48300"></stop></linearGradient><linearGradient id="1776867898228-5325133_linear-gradient-7" x1="225.42" y1="-641.6" x2="286.56" y2="-641.6" gradientTransform="matrix(1 0 0 -1 0 -566)" gradientUnits="userSpaceOnUse"><stop offset="0" stop-color="#c48300"></stop><stop offset=".3" stop-color="#ffe173"></stop><stop offset=".41" stop-color="#fcdc6d"></stop><stop offset=".56" stop-color="#f2cd5b"></stop><stop offset=".73" stop-color="#e3b53d"></stop><stop offset=".92" stop-color="#ce9314"></stop><stop offset="1" stop-color="#c48300"></stop></linearGradient><linearGradient id="1776867898228-5325133_linear-gradient-8" x1="51.32" y1="-924.07" x2="51.32" y2="-733.57" gradientTransform="matrix(1 0 0 -1 0 -566)" gradientUnits="userSpaceOnUse"><stop offset="0" stop-color="#ffe173"></stop><stop offset=".15" stop-color="#fcdc6d"></stop><stop offset=".36" stop-color="#f2cd5b"></stop><stop offset=".61" stop-color="#e3b53d"></stop><stop offset=".88" stop-color="#ce9314"></stop><stop offset="1" stop-color="#c48300"></stop></linearGradient><linearGradient id="1776867898228-5325133_linear-gradient-9" x1="136.47" y1="-924.07" x2="136.47" y2="-733.57" gradientTransform="matrix(1 0 0 -1 0 -566)" gradientUnits="userSpaceOnUse"><stop offset="0" stop-color="#ffe173"></stop><stop offset=".15" stop-color="#fcdc6d"></stop><stop offset=".36" stop-color="#f2cd5b"></stop><stop offset=".61" stop-color="#e3b53d"></stop><stop offset=".88" stop-color="#ce9314"></stop><stop offset="1" stop-color="#c48300"></stop></linearGradient><linearGradient id="1776867898228-5325133_linear-gradient-10" x1="93.89" y1="-745.04" x2="93.89" y2="-703.01" gradientTransform="matrix(1 0 0 -1 0 -566)" gradientUnits="userSpaceOnUse"><stop offset="0" stop-color="#c48300"></stop><stop offset=".12" stop-color="#ce9314"></stop><stop offset=".39" stop-color="#e3b53d"></stop><stop offset=".64" stop-color="#f2cd5b"></stop><stop offset=".85" stop-color="#fcdc6d"></stop><stop offset="1" stop-color="#ffe173"></stop></linearGradient><linearGradient id="1776867898228-5325133_linear-gradient-11" x1="93.89" y1="-716.66" x2="93.89" y2="-676.26" gradientTransform="matrix(1 0 0 -1 0 -566)" gradientUnits="userSpaceOnUse"><stop offset="0" stop-color="#c48300"></stop><stop offset=".12" stop-color="#ce9314"></stop><stop offset=".39" stop-color="#e3b53d"></stop><stop offset=".64" stop-color="#f2cd5b"></stop><stop offset=".85" stop-color="#fcdc6d"></stop><stop offset="1" stop-color="#ffe173"></stop></linearGradient><linearGradient id="1776867898228-5325133_linear-gradient-12" x1="102.35" y1="-924.07" x2="102.35" y2="-733.57" gradientTransform="matrix(1 0 0 -1 0 -566)" gradientUnits="userSpaceOnUse"><stop offset="0" stop-color="#ffe173"></stop><stop offset=".15" stop-color="#fcdc6d"></stop><stop offset=".36" stop-color="#f2cd5b"></stop><stop offset=".61" stop-color="#e3b53d"></stop><stop offset=".88" stop-color="#ce9314"></stop><stop offset="1" stop-color="#c48300"></stop></linearGradient><linearGradient id="1776867898228-5325133_linear-gradient-13" x1="0" y1="-944.54" x2="187.77" y2="-944.54" gradientTransform="matrix(1 0 0 -1 0 -566)" gradientUnits="userSpaceOnUse"><stop offset="0" stop-color="#c48300"></stop><stop offset=".3" stop-color="#ffe173"></stop><stop offset=".41" stop-color="#fcdc6d"></stop><stop offset=".56" stop-color="#f2cd5b"></stop><stop offset=".73" stop-color="#e3b53d"></stop><stop offset=".92" stop-color="#ce9314"></stop><stop offset="1" stop-color="#c48300"></stop></linearGradient><linearGradient id="1776867898228-5325133_linear-gradient-14" x1="-4320.2" y1="-922.98" x2="-4320.2" y2="-732.48" gradientTransform="rotate(-180 -1929.75 -283)" gradientUnits="userSpaceOnUse"><stop offset="0" stop-color="#ffe173"></stop><stop offset=".15" stop-color="#fcdc6d"></stop><stop offset=".36" stop-color="#f2cd5b"></stop><stop offset=".61" stop-color="#e3b53d"></stop><stop offset=".88" stop-color="#ce9314"></stop><stop offset="1" stop-color="#c48300"></stop></linearGradient><linearGradient id="1776867898228-5325133_linear-gradient-15" x1="-4235.05" y1="-922.98" x2="-4235.05" y2="-732.48" gradientTransform="rotate(-180 -1929.75 -283)" gradientUnits="userSpaceOnUse"><stop offset="0" stop-color="#ffe173"></stop><stop offset=".15" stop-color="#fcdc6d"></stop><stop offset=".36" stop-color="#f2cd5b"></stop><stop offset=".61" stop-color="#e3b53d"></stop><stop offset=".88" stop-color="#ce9314"></stop><stop offset="1" stop-color="#c48300"></stop></linearGradient><linearGradient id="1776867898228-5325133_linear-gradient-16" x1="418.12" y1="-745.03" x2="418.12" y2="-703" gradientTransform="matrix(1 0 0 -1 0 -566)" gradientUnits="userSpaceOnUse"><stop offset="0" stop-color="#c48300"></stop><stop offset=".12" stop-color="#ce9314"></stop><stop offset=".39" stop-color="#e3b53d"></stop><stop offset=".64" stop-color="#f2cd5b"></stop><stop offset=".85" stop-color="#fcdc6d"></stop><stop offset="1" stop-color="#ffe173"></stop></linearGradient><linearGradient id="1776867898228-5325133_linear-gradient-17" x1="-4277.63" y1="-715.56" x2="-4277.63" y2="-675.16" gradientTransform="rotate(-180 -1929.75 -283)" gradientUnits="userSpaceOnUse"><stop offset="0" stop-color="#c48300"></stop><stop offset=".12" stop-color="#ce9314"></stop><stop offset=".39" stop-color="#e3b53d"></stop><stop offset=".64" stop-color="#f2cd5b"></stop><stop offset=".85" stop-color="#fcdc6d"></stop><stop offset="1" stop-color="#ffe173"></stop></linearGradient><linearGradient id="1776867898228-5325133_linear-gradient-18" x1="-4269.17" y1="-922.98" x2="-4269.17" y2="-732.48" gradientTransform="rotate(-180 -1929.75 -283)" gradientUnits="userSpaceOnUse"><stop offset="0" stop-color="#ffe173"></stop><stop offset=".15" stop-color="#fcdc6d"></stop><stop offset=".36" stop-color="#f2cd5b"></stop><stop offset=".61" stop-color="#e3b53d"></stop><stop offset=".88" stop-color="#ce9314"></stop><stop offset="1" stop-color="#c48300"></stop></linearGradient><linearGradient id="1776867898228-5325133_linear-gradient-19" x1="-4371.52" y1="-943.45" x2="-4183.75" y2="-943.45" gradientTransform="rotate(-180 -1929.75 -283)" gradientUnits="userSpaceOnUse"><stop offset="0" stop-color="#c48300"></stop><stop offset=".3" stop-color="#ffe173"></stop><stop offset=".41" stop-color="#fcdc6d"></stop><stop offset=".56" stop-color="#f2cd5b"></stop><stop offset=".73" stop-color="#e3b53d"></stop><stop offset=".92" stop-color="#ce9314"></stop><stop offset="1" stop-color="#c48300"></stop></linearGradient></defs><path class="cls-10" d="M273.01,75.04v387.36h-34.12V75.04h34.12Z" fill="url(#1776867898228-5325133_linear-gradient)"></path><path class="cls-8" d="M215.07,469.42c0-4.73,2.73-8.46,8.19-11.19s12.28-4.55,20.47-5.46,16.38-.91,24.56,0c8.19.91,15.01,2.73,20.47,5.46s8.19,6.46,8.19,11.19h-81.88Z" fill="url(#1776867898228-5325133_linear-gradient-2)"></path><path class="cls-7" d="M187.78,486.35c0-7.28,2.46-13.37,7.37-18.29s11.01-7.37,18.29-7.37h85.15c7.28,0,13.37,2.46,18.29,7.37s7.37,11.01,7.37,18.29h-136.47Z" fill="url(#1776867898228-5325133_linear-gradient-3)"></path><path class="cls-9" d="M483.63,101.53c1.82-1.82,2.73-1.36,2.73,1.36s-1.46,6.37-4.37,10.92c-2.91,4.55-7.46,9.1-13.65,13.65-6.19,4.55-14.56,7.55-25.11,9.01-13.1,2.18-26.75.73-40.94-4.37s-29.02-11.55-44.49-19.38c-15.47-7.82-31.66-14.83-48.58-21.01-16.92-6.19-34.66-9.28-53.22-9.28s-36.3,3.09-53.22,9.28-33.11,13.19-48.58,21.01-30.29,14.28-44.49,19.38c-14.2,5.1-27.84,6.55-40.94,4.37-10.55-1.46-18.92-4.46-25.11-9.01s-10.73-9.1-13.65-13.65-4.37-8.19-4.37-10.92.91-3.18,2.73-1.36c11.28,10.19,23.02,15.74,35.21,16.65,12.19.91,25.02-1,38.48-5.73,13.46-4.73,28.02-10.55,43.67-17.47,15.65-6.91,32.57-13.1,50.76-18.56,18.19-5.46,38.03-8.19,59.5-8.19s41.3,2.73,59.5,8.19c18.19,5.46,35.12,11.64,50.76,18.56,15.65,6.91,30.2,12.74,43.67,17.47,13.46,4.73,26.29,6.73,38.48,6s23.93-6.37,35.21-16.92h.02Z" fill="url(#1776867898228-5325133_radial-gradient)"></path><path class="cls-6" d="M119.55,493.44c0-4.37,1.46-8.01,4.37-10.92,3.28-3.28,6.91-4.91,10.92-4.91h242.35c4,0,7.64,1.64,10.92,4.91,2.91,2.91,4.37,6.55,4.37,10.92v18.56H119.55v-18.56Z" fill="url(#1776867898228-5325133_linear-gradient-4)"></path><path class="cls-3" d="M249.46,3.82c.36-2.55,2.55-3.82,6.55-3.82s6.19,1.27,6.55,3.82l9.83,60.04h-32.75l9.83-60.04h0Z" fill="url(#1776867898228-5325133_linear-gradient-5)"></path><path class="cls-4" d="M230.36,50.22c0-2.91,1.46-4.37,4.37-4.37h42.58c2.91,0,4.37,1.46,4.37,4.37v50.76c0,2.91-1.46,4.37-4.37,4.37h-42.58c-2.91,0-4.37-1.46-4.37-4.37v-50.76h0Z" fill="url(#1776867898228-5325133_linear-gradient-6)"></path><path class="cls-2" d="M225.44,55.13c0-1.09.36-2,1.09-2.73.36-.36,1.09-.55,2.18-.55h54.58c1.09,0,1.82.18,2.18.55.73.73,1.09,1.64,1.09,2.73v40.94c0,2.18-1.09,3.28-3.28,3.28h-54.58c-2.18,0-3.28-1.09-3.28-3.28v-40.94h.02Z" fill="url(#1776867898228-5325133_linear-gradient-7)"></path><path class="cls-1" d="M4.38,358.07l85.15-190.5h8.73L13.11,358.07H4.38Z" fill="url(#1776867898228-5325133_linear-gradient-8)"></path><path class="cls-5" d="M175.23,358.07l-85.7-190.5h8.73l85.15,190.5h-8.19.01Z" fill="url(#1776867898228-5325133_linear-gradient-9)"></path><path class="cls-11" d="M93.89,137.01c5.82,0,10.73,2.09,14.74,6.28s6,9.19,6,15.01c0,5.46-2,10.28-6,14.46s-8.92,6.28-14.74,6.28-10.73-2.09-14.74-6.28-6-9.01-6-14.46c0-5.82,2-10.83,6-15.01s8.92-6.28,14.74-6.28ZM93.89,170.85c3.64,0,6.73-1.27,9.28-3.82,2.55-2.55,3.82-5.46,3.82-8.73,0-3.64-1.27-6.73-3.82-9.28s-5.64-3.82-9.28-3.82-6.64,1.27-9.01,3.82-3.55,5.64-3.55,9.28c0,3.28,1.18,6.19,3.55,8.73,2.37,2.55,5.37,3.82,9.01,3.82Z" fill="url(#1776867898228-5325133_linear-gradient-10)"></path><path class="cls-12" d="M88.98,113.54c0-2.18,1.64-3.28,4.91-3.28s4.91,1.09,4.91,3.28v34.39c0,1.82-1.64,2.73-4.91,2.73s-4.91-.91-4.91-2.73c0,0,0-34.39,0-34.39Z" fill="url(#1776867898228-5325133_linear-gradient-11)"></path><path class="cls-13" d="M107,358.07l-17.47-190.5h8.73l16.92,190.5h-8.19.01Z" fill="url(#1776867898228-5325133_linear-gradient-12)"></path><path class="cls-14" d="M93.89,403.92c-17.1,0-32.75-2.27-46.94-6.82-14.19-4.55-25.56-10.64-34.12-18.29-8.55-7.64-12.83-16.19-12.83-25.65h187.77c0,9.46-4.18,18.01-12.55,25.65s-19.65,13.74-33.84,18.29c-14.19,4.55-30.02,6.82-47.49,6.82Z" fill="url(#1776867898228-5325133_linear-gradient-13)"></path><path class="cls-16" d="M507.64,356.98l-85.15-190.5h-8.73l85.15,190.5h8.73Z" fill="url(#1776867898228-5325133_linear-gradient-14)"></path><path class="cls-17" d="M336.79,356.98l85.7-190.5h-8.73l-85.15,190.5h8.19,0Z" fill="url(#1776867898228-5325133_linear-gradient-15)"></path><path class="cls-18" d="M397.38,158.29c0-5.82,2-10.83,6-15.01s8.92-6.28,14.74-6.28,10.73,2.09,14.74,6.28,6,9.19,6,15.01c0,5.46-2,10.28-6,14.46s-8.92,6.28-14.74,6.28-10.73-2.09-14.74-6.28-6-9.01-6-14.46ZM405.02,158.29c0,3.28,1.27,6.19,3.82,8.73,2.55,2.55,5.64,3.82,9.28,3.82s6.64-1.27,9.01-3.82,3.55-5.46,3.55-8.73c0-3.64-1.18-6.73-3.55-9.28s-5.37-3.82-9.01-3.82-6.73,1.27-9.28,3.82-3.82,5.64-3.82,9.28Z" fill="url(#1776867898228-5325133_linear-gradient-16)"></path><path class="cls-19" d="M423.04,112.44c0-2.18-1.64-3.28-4.91-3.28s-4.91,1.09-4.91,3.28v34.39c0,1.82,1.64,2.73,4.91,2.73s4.91-.91,4.91-2.73v-34.39Z" fill="url(#1776867898228-5325133_linear-gradient-17)"></path><path class="cls-20" d="M405.02,356.98l17.47-190.5h-8.73l-16.92,190.5h8.19,0Z" fill="url(#1776867898228-5325133_linear-gradient-18)"></path><path class="cls-15" d="M418.13,402.83c17.1,0,32.75-2.27,46.94-6.82,14.19-4.55,25.56-10.64,34.12-18.29,8.55-7.64,12.83-16.19,12.83-25.65h-187.77c0,9.46,4.18,18.01,12.55,25.65s19.65,13.74,33.84,18.29c14.19,4.55,30.02,6.82,47.49,6.82h0Z" fill="url(#1776867898228-5325133_linear-gradient-19)"></path></g></svg>