<svg data-name="Layer 1" xmlns="http://www.w3.org/2000/svg" style="" viewBox="0 0 712.34 512"><g class="nc-icon-wrapper"><defs><linearGradient id="1776585740285-5578331_linear-gradient" x1="-.9" y1="254.49" x2="698.52" y2="254.49" gradientTransform="matrix(1 0 0 -1 0 500)" gradientUnits="userSpaceOnUse"><stop offset="0" stop-color="#d6ccc7"></stop><stop offset=".24" stop-color="#c4bbb6"></stop><stop offset=".72" stop-color="#968e89"></stop><stop offset="1" stop-color="#78716c"></stop></linearGradient><linearGradient id="1776585740285-5578331_linear-gradient-2" x1="-.9" y1="105.33" x2="698.52" y2="105.33" gradientTransform="matrix(1 0 0 -1 0 500)" gradientUnits="userSpaceOnUse"><stop offset="0" stop-color="#d9cfca"></stop><stop offset=".32" stop-color="#c7bdb8"></stop><stop offset=".96" stop-color="#99908a"></stop><stop offset="1" stop-color="#968d87"></stop></linearGradient><linearGradient id="1776585740285-5578331_linear-gradient-3" x1="545.97" y1="313.07" x2="654.27" y2="402.07" gradientTransform="matrix(1 0 0 -1 0 500)" gradientUnits="userSpaceOnUse"><stop offset=".45" stop-color="#78716c" stop-opacity="0"></stop><stop offset="1" stop-color="#6e6763"></stop></linearGradient><linearGradient id="1776585740285-5578331_linear-gradient-4" x1="87.06" y1="506.29" x2="311.79" y2="438.23" gradientTransform="matrix(.11394 -1.08403 1.13849 .0741 -238.29 326.58)" gradientUnits="userSpaceOnUse"><stop offset="0" stop-color="#bab1ac"></stop><stop offset=".25" stop-color="#afa6a1"></stop><stop offset=".68" stop-color="#928a85"></stop><stop offset="1" stop-color="#78716c"></stop></linearGradient></defs><path class="cls-8" d="M117.86,402.88C60.24,492.7,31.15,469.18,1.65,503.53c-12.59,14.61,50.15,6.53,80.62,3.52,30.45-2.97,147.91-1.91,198.69-1.91,92.54.01-153.12-117.75-163.09-102.24Z" fill="#78716c"></path><path class="cls-6" d="M.1,106.32c-2.65,134.44,65.36,283.07,173.67,356.48,29.04,19.7,299.52,41.22,327.3,18.39,201.6-165.6,124.57-301.08,194.49-447.98,17.41-36.6-.17-45.13-20.48-14.14-22.51,34.42-88.34,65.29-137.12,126.17-74.99,93.61-310.69,104.95-343.12-42.72C162.2-46.05,2.66-22.92.1,106.32Z" fill="url(#1776585740285-5578331_linear-gradient)"></path><path class="cls-4" d="M128.7,425.84c39.78,38.86,87.26,67.02,140.29,78.1,19.42,4.05,226.04,2.66,236.32,0,77.57-20.02,122.43-154.55,131.76-211.54-67.12,184.16-254.63,151.15-362.93,32.48-100.11-109.73-227.16,21.11-145.44,100.96Z" fill="url(#1776585740285-5578331_linear-gradient-2)"></path><path class="cls-3" d="M610.62,159.81c15.3-60.06,63.65-48.41,95.84-116.02,17.42-36.57-7.52-33.77-27.83-2.76-22.49,34.42-68.37,31.42-117.15,92.29-74.97,93.63,28.66,106.77,49.13,26.49Z" fill="url(#1776585740285-5578331_linear-gradient-3)"></path><path class="cls-7" d="M141.05,70.97c-16.93,0-23.55,14.31-22.06,25.52,1.09,8.3,43.04,8.3,44.12,0,1.57-12.1-6.61-25.52-22.06-25.52Z" fill="#524c49"></path><path class="cls-10" d="M141.05,74.95c-12.2,0-22.06,9.06-22.06,20.27,0,9.67,9.86,20.27,22.06,20.27s22.06-12.34,22.06-20.27c0-11.21-9.86-20.27-22.06-20.27Z" fill="#fff"></path><ellipse class="cls-5" cx="138.93" cy="95.03" rx="16.46" ry="16.13" fill="#1a1626"></ellipse><path class="cls-10" d="M137.63,86.95c0,5.88-8.99,5.88-8.99,0s8.99-5.87,8.99,0Z" fill="#fff"></path><path class="cls-7" d="M49.76,70.97c16.92,0,23.55,14.31,22.06,25.52-1.09,8.3-43.04,8.3-44.12,0-1.57-12.1,6.61-25.52,22.06-25.52Z" fill="#524c49"></path><path class="cls-10" d="M49.75,74.95c12.2,0,22.06,9.06,22.06,20.27,0,9.67-9.87,20.27-22.06,20.27s-22.06-12.34-22.06-20.27c0-11.21,9.87-20.27,22.06-20.27Z" fill="#fff"></path><ellipse class="cls-5" cx="51.88" cy="95.03" rx="16.47" ry="16.13" fill="#1a1626"></ellipse><path class="cls-10" d="M53.19,86.95c0,5.88,8.98,5.88,8.98,0s-8.98-5.87-8.98,0Z" fill="#fff"></path><path class="cls-7" d="M53.53,50.05c-26.27,7.81-12.59,15.01,10.34,11.32,12.94-2.1,6.93-16.44-10.34-11.32Z" fill="#524c49"></path><path class="cls-7" d="M137.28,50.05c-17.29-5.12-23.3,9.22-10.35,11.32,22.94,3.68,36.61-3.51,10.35-11.32Z" fill="#524c49"></path><path class="cls-5" d="M66.04,145.14c0,31.6,58.74,31.6,58.74,0,0-17.81-58.74-17.81-58.74,0Z" fill="#1a1626"></path><path class="cls-1" d="M95.4,99.84c-23.2,0-41.36,30.6-38.23,47.98,4.07,22.63,30.66,10.95,38.23,10.95s34.18,11.66,38.26-10.95c3.13-17.39-15.03-47.98-38.26-47.98Z" fill="#756e6a"></path><path id="1776585740285-5578331_Shape" class="cls-5" d="M75,120.21c0-9.62,9.15-11.45,20.44-11.45s20.41,1.84,20.41,11.45c0,7.66-16.26,14.44-20.41,14.44s-20.44-6.78-20.44-14.44h0Z" fill="#1a1626"></path><path class="cls-9" d="M122.67,135.27c43.94-3.32,52.28,7.7,51.81,9.76-.14.67-18.34-8.6-51.81-9.76Z" fill="#b5aaa4"></path><path class="cls-9" d="M121.03,140.53c46.3,4.77,53.4,17.22,52.62,19.16-.24.62-17.89-11.86-52.62-19.16Z" fill="#b5aaa4"></path><path class="cls-9" d="M117.85,145.07c45.72,9.81,52.05,25.66,51.16,28.03-.3.73-17.09-16.12-51.16-28.03Z" fill="#b5aaa4"></path><path class="cls-9" d="M70.91,135.27c-43.95-3.32-52.28,7.69-51.81,9.76.14.67,18.33-8.6,51.81-9.76Z" fill="#b5aaa4"></path><path class="cls-9" d="M72.55,140.53c-46.29,4.77-53.4,17.22-52.64,19.16.26.62,17.9-11.86,52.64-19.16Z" fill="#b5aaa4"></path><path class="cls-9" d="M75.73,145.07c-45.72,9.81-52.03,25.66-51.16,28.03.3.73,17.09-16.13,51.16-28.03Z" fill="#b5aaa4"></path><path class="cls-12" d="M274.7,274.43c-3.39,9.06-18.5,8.24-23.5,0-11.12-18.34,33.67-27.28,23.5,0Z" style="isolation:isolate" fill="#363230" opacity=".2"></path><path class="cls-12" d="M331.4,471.46c-2.36,6.29-12.81,5.72-16.28,0-7.7-12.69,23.34-18.9,16.28,0Z" style="isolation:isolate" fill="#363230" opacity=".2"></path><path class="cls-12" d="M368.3,360.28c-12.22,4.27-19.7-9.36-13.13-20.16,14.67-24.06,49.88,7.26,13.13,20.16Z" style="isolation:isolate" fill="#363230" opacity=".2"></path><path class="cls-12" d="M480.45,228.41c-3.39,9.06-18.5,8.21-23.5,0-11.11-18.32,33.67-27.29,23.5,0Z" style="isolation:isolate" fill="#363230" opacity=".2"></path><path class="cls-11" d="M367.56,294.81c-2.35,6.29-12.81,5.72-16.27,0-7.7-12.69,23.34-18.91,16.27,0Z" style="isolation:isolate" opacity=".4" fill="#363230"></path><path class="cls-11" d="M402.02,446.77c-2.35,6.28-12.8,5.71-16.28,0-7.69-12.72,23.35-18.94,16.28,0Z" style="isolation:isolate" opacity=".4" fill="#363230"></path><path class="cls-12" d="M442.94,348.77c-9.22,3.24-14.88-7.05-9.92-15.19,11.07-18.18,37.65,5.47,9.92,15.19Z" style="isolation:isolate" fill="#363230" opacity=".2"></path><path class="cls-12" d="M238.2,240.29c-3.39,9.07-18.5,8.25-23.5,0-11.11-18.33,33.68-27.28,23.5,0Z" style="isolation:isolate" fill="#363230" opacity=".2"></path><path class="cls-12" d="M70.35,192.36c-2.35,6.29-12.81,5.73-16.28,0-7.7-12.69,23.34-18.91,16.28,0Z" style="isolation:isolate" fill="#363230" opacity=".2"></path><path class="cls-11" d="M75.41,295.01c-12.21,4.27-19.7-9.36-13.13-20.16,14.68-24.08,49.89,7.26,13.13,20.16Z" style="isolation:isolate" opacity=".4" fill="#363230"></path><path class="cls-12" d="M201.01,180.8c-2.35,6.28-12.81,5.72-16.28,0-7.71-12.69,23.33-18.92,16.28,0Z" style="isolation:isolate" fill="#363230" opacity=".2"></path><path class="cls-12" d="M649.52,143.59c-2.35,6.28-12.81,5.69-16.28,0-7.7-12.71,23.34-18.92,16.28,0Z" style="isolation:isolate" fill="#363230" opacity=".2"></path><path class="cls-12" d="M121.99,233.64c-9.22,3.24-14.87-7.06-9.91-15.18,11.06-18.19,37.64,5.45,9.91,15.18Z" style="isolation:isolate" fill="#363230" opacity=".2"></path><path class="cls-12" d="M596.5,274.43c-3.39,9.06-18.5,8.23-23.5,0-11.12-18.34,33.67-27.28,23.5,0Z" style="isolation:isolate" fill="#363230" opacity=".2"></path><path class="cls-11" d="M559.69,377.33c-2.35,6.28-12.8,5.71-16.27,0-7.7-12.7,23.34-18.91,16.27,0Z" style="isolation:isolate" opacity=".4" fill="#363230"></path><path class="cls-12" d="M485.54,343.99c-12.2,4.27-19.7-9.36-13.13-20.16,14.68-24.06,49.89,7.26,13.13,20.16Z" style="isolation:isolate" fill="#363230" opacity=".2"></path><path class="cls-12" d="M274.69,426.17c-3.38,9.06-18.49,8.24-23.49,0-11.12-18.33,33.67-27.28,23.49,0Z" style="isolation:isolate" fill="#363230" opacity=".2"></path><path class="cls-12" d="M509.97,455.01c-2.35,6.29-12.8,5.7-16.27,0-7.7-12.72,23.34-18.93,16.27,0Z" style="isolation:isolate" fill="#363230" opacity=".2"></path><path class="cls-12" d="M424.11,478.37c-9.22,3.23-14.87-7.07-9.92-15.2,11.07-18.18,37.65,5.47,9.92,15.2Z" style="isolation:isolate" fill="#363230" opacity=".2"></path><path class="cls-11" d="M268.23,363.46c-3.38,9.06-18.49,8.23-23.47,0-11.13-18.33,33.66-27.28,23.47,0Z" style="isolation:isolate" opacity=".4" fill="#363230"></path><path class="cls-11" d="M151.28,410.81c-12.21,4.29-19.7-9.34-13.13-20.13,14.67-24.06,49.89,7.25,13.13,20.13Z" style="isolation:isolate" opacity=".4" fill="#363230"></path><path class="cls-11" d="M588.74,171.43c-2.35,6.28-12.8,5.7-16.28,0-7.7-12.71,23.34-18.93,16.28,0Z" style="isolation:isolate" opacity=".4" fill="#363230"></path><path class="cls-12" d="M629.07,223.27c-9.22,3.23-14.87-7.06-9.92-15.2,11.07-18.18,37.65,5.48,9.92,15.2Z" style="isolation:isolate" fill="#363230" opacity=".2"></path><path class="cls-8" d="M282.3,24.86c24.32-10.04,4.9-.3,6.81,6.34-.97-.91-5.84-5.42-6.81-6.34Z" fill="#78716c"></path><path class="cls-8" d="M295.73,30.66c23.96-6.07,4.67.41,5.91,7.09-.85-1.02-5.06-6.05-5.91-7.09Z" fill="#78716c"></path><path class="cls-8" d="M308.51,39.28c22.28-4.6,4.41.63,5.82,7.16-.82-1.04-5-6.1-5.82-7.16Z" fill="#78716c"></path><path class="cls-8" d="M317.52,53.24c22.1-6.78,4.51.22,6.52,6.63-.93-.99-5.59-5.68-6.52-6.63Z" fill="#78716c"></path><path class="cls-8" d="M327.1,65.56c16.01-16.46,4.08-1.91,9.15,2.87-1.32-.41-7.85-2.42-9.15-2.87Z" fill="#78716c"></path><path class="cls-2" d="M272.29,218.13c19.61-24.85-17.71-99.23-15.87-151.73.87-25.15,24.33-55.6,35.01-36.81,10.53-5.25,13.04,8.63,13.04,8.63,14.69-2.84,10.4,13.67,10.4,13.67,0,0,11-3.97,11.8,10.34,33.03-8.38,4.34,126.02,80.04,179.73,42.99,30.51-174.21,26.59-134.41-23.83Z" fill="url(#1776585740285-5578331_linear-gradient-4)"></path><path class="cls-8" d="M307.62,127.45c36.98-21.33-.27-46.42,19.03-65.22-22.66,15.3,11.73,41.61-19.03,65.22Z" fill="#78716c"></path><path class="cls-8" d="M290.78,115.41c36.98-21.34.45-49.41,24.09-63.52-26.71,10.5,6.67,39.89-24.09,63.52Z" fill="#78716c"></path><path class="cls-8" d="M292.49,82.12c-1.18-15.89-2.91-34.04,11.98-43.9-25.18,10.76-11.49,50.47-11.98,43.9Z" fill="#78716c"></path><path class="cls-8" d="M304.05,166.59c16.93-10.87,36.5-22.91,35.53-43.41,7.65,30.22-42.52,47.89-35.53,43.41Z" fill="#78716c"></path><path class="cls-8" d="M297.4,150.84c16.92-10.86,36.51-22.9,35.55-43.4,7.62,30.23-42.54,47.91-35.55,43.4Z" fill="#78716c"></path><path class="cls-8" d="M278.29,72.22c.29-15.48-1.76-32.77,13.13-42.63-25.2,10.73-13.26,49.2-13.13,42.63Z" fill="#78716c"></path></g></svg>