<svg xmlns="http://www.w3.org/2000/svg" style="" viewBox="0 0 416 512"><g class="nc-icon-wrapper"><defs><linearGradient id="1776131386761-1355212_linear-gradient" x1="208" y1="572.32" x2="412.8" y2="572.32" gradientTransform="translate(0 -447.85)" gradientUnits="userSpaceOnUse"><stop offset=".4" stop-color="#d8dce0"></stop><stop offset=".47" stop-color="#dee1e5"></stop><stop offset=".8" stop-color="#f6f7f8"></stop><stop offset="1" stop-color="#fff"></stop></linearGradient><linearGradient id="1776131386761-1355212_linear-gradient-2" x1="208" y1="824.39" x2="412.8" y2="824.39" gradientTransform="translate(0 -447.85)" gradientUnits="userSpaceOnUse"><stop offset=".4" stop-color="#00a389"></stop><stop offset=".56" stop-color="#01b598"></stop><stop offset=".83" stop-color="#02cdac"></stop><stop offset="1" stop-color="#02d6b4"></stop></linearGradient><linearGradient id="1776131386761-1355212_linear-gradient-3" x1="3.2" y1="572.32" x2="208" y2="572.32" gradientTransform="translate(0 -447.85)" gradientUnits="userSpaceOnUse"><stop offset="0" stop-color="#00a389"></stop><stop offset=".5" stop-color="#02d6b4"></stop><stop offset=".64" stop-color="#02cdac"></stop><stop offset=".86" stop-color="#01b598"></stop><stop offset="1" stop-color="#00a389"></stop></linearGradient><linearGradient id="1776131386761-1355212_linear-gradient-4" x1="3.2" y1="824.39" x2="208" y2="824.39" gradientTransform="translate(0 -447.85)" gradientUnits="userSpaceOnUse"><stop offset="0" stop-color="#d8dce0"></stop><stop offset=".5" stop-color="#fff"></stop><stop offset=".67" stop-color="#f6f7f8"></stop><stop offset=".94" stop-color="#dee1e5"></stop><stop offset="1" stop-color="#d8dce0"></stop></linearGradient><linearGradient id="1776131386761-1355212_linear-gradient-5" x1="208" y1="955.92" x2="208" y2="451.78" gradientTransform="translate(0 -447.85)" gradientUnits="userSpaceOnUse"><stop offset="0" stop-color="#717b80"></stop><stop offset=".3" stop-color="#6e777c"></stop><stop offset=".59" stop-color="#646c71"></stop><stop offset=".86" stop-color="#535a5e"></stop><stop offset="1" stop-color="#484e52"></stop></linearGradient><linearGradient id="1776131386761-1355212_linear-gradient-6" x1="0" y1="703.85" x2="416" y2="703.85" gradientTransform="translate(0 -447.85)" gradientUnits="userSpaceOnUse"><stop offset="0" stop-color="#99a8ae"></stop><stop offset=".3" stop-color="#cfd8dd"></stop><stop offset=".3" stop-color="#ced7dc"></stop><stop offset=".39" stop-color="#b7c2c8"></stop><stop offset=".48" stop-color="#a6b4b9"></stop><stop offset=".58" stop-color="#9cabb1"></stop><stop offset=".72" stop-color="#99a8ae"></stop><stop offset="1" stop-color="#cfd8dd"></stop></linearGradient></defs><path class="cls-6" d="M412.8,245V31.58s-111.09,28.56-204.8-27.65v241.06h204.8Z" fill="url(#1776131386761-1355212_linear-gradient)"></path><path class="cls-5" d="M208,508.07s204.8-76.9,204.8-192.51v-70.56h-204.8v263.06Z" fill="url(#1776131386761-1355212_linear-gradient-2)"></path><path class="cls-4" d="M3.2,31.58v213.42h204.8V3.93C114.29,60.14,3.2,31.58,3.2,31.58Z" fill="url(#1776131386761-1355212_linear-gradient-3)"></path><path class="cls-3" d="M3.2,245v70.56c0,115.6,204.8,192.51,204.8,192.51V245H3.2Z" fill="url(#1776131386761-1355212_linear-gradient-4)"></path><path class="cls-1" d="M208,39.86c39.76,19.99,86.57,30.48,136.59,30.48,13.61,0,26.02-.78,36.69-1.84v247.07c0,71.63-116.22,134.84-173.29,158.6-57.09-23.78-173.29-86.97-173.29-158.6V68.49c10.67,1.08,23.09,1.84,36.69,1.84,50.03,0,96.84-10.5,136.59-30.48M208,3.93c-46.48,27.86-97.23,34.9-136.59,34.9S3.2,31.58,3.2,31.58v283.98c0,115.6,204.8,192.51,204.8,192.51,0,0,204.8-76.9,204.8-192.51V31.58s-28.22,7.25-68.2,7.25S254.48,31.81,208,3.93h0Z" fill="url(#1776131386761-1355212_linear-gradient-5)"></path><path class="cls-2" d="M208,27.5c40.01,20.94,87.64,31.95,138.73,31.95,17.5,0,32.98-1.28,45.27-2.84v259.87c0,78.44-125.66,145.96-184,169.74-58.35-23.77-184-91.3-184-169.73V56.62c12.29,1.54,27.77,2.84,45.27,2.84,51.08,0,98.72-11.01,138.73-31.95M208,0c-47.2,28.31-98.75,35.45-138.73,35.45S0,28.08,0,28.08v288.41c0,117.39,208,195.5,208,195.5,0,0,208-78.11,208-195.5V28.08s-28.67,7.37-69.27,7.37S255.21,28.32,208,0h0Z" fill="url(#1776131386761-1355212_linear-gradient-6)"></path></g></svg>