<svg xmlns="http://www.w3.org/2000/svg" style="" viewBox="0 0 512.01 512"><g class="nc-icon-wrapper"><defs><linearGradient id="1776131386768-2120775_linear-gradient" x1=".01" y1="903.02" x2="482.44" y2="903.02" gradientTransform="translate(0 -566)" gradientUnits="userSpaceOnUse"><stop offset="0" stop-color="#ffd675"></stop><stop offset=".38" stop-color="#ffd267"></stop><stop offset="1" stop-color="#ffc847"></stop></linearGradient><radialGradient id="1776131386768-2120775_radial-gradient" cx="128.88" cy="2779.32" fx="128.88" fy="2779.32" r="80.41" gradientTransform="matrix(1.06963 -.028 .00598 .24993 95.41 -553.96)" gradientUnits="userSpaceOnUse"><stop offset=".28" stop-color="#696460"></stop><stop offset="1" stop-color="#e6ded3" stop-opacity="0"></stop></radialGradient><linearGradient id="1776131386768-2120775_linear-gradient-2" x1="-2074.05" y1="-536.85" x2="-1977.58" y2="-632" gradientTransform="matrix(-.53567 -.85625 -.87136 .53036 -1342.87 -1339.88)" gradientUnits="userSpaceOnUse"><stop offset="0" stop-color="#c21413"></stop><stop offset=".14" stop-color="#cf0f11"></stop><stop offset=".44" stop-color="#e4070f"></stop><stop offset=".73" stop-color="#f1020d"></stop><stop offset="1" stop-color="#f5000d"></stop></linearGradient></defs><path class="cls-6" d="M464.17,451.69s-325.4,44.63-433.87,59.48C9.35,514.04.01,510.19.01,488.23v-251.51s166.98-58.68,477.68-74.68c16,176.65-13.52,289.66-13.52,289.66h0Z" fill="url(#1776131386768-2120775_linear-gradient)"></path><path class="cls-5" d="M165.77,255.21c-7.15-3.88-.71-13.66,6.44-9.75,7.16,3.91.72,13.67-6.44,9.75Z" style="isolation:isolate" fill="#d46a06" opacity=".1"></path><path class="cls-5" d="M280.57,244.26c-7.16-3.88-.72-13.65,6.44-9.75,7.16,3.91.73,13.66-6.44,9.75Z" style="isolation:isolate" fill="#d46a06" opacity=".1"></path><path class="cls-5" d="M237.45,264.56c-7.16-3.89-.72-13.66,6.44-9.75s.73,13.67-6.44,9.75Z" style="isolation:isolate" fill="#d46a06" opacity=".1"></path><path class="cls-5" d="M293.25,216.34c-7.16-3.9-.72-13.66,6.44-9.75,7.15,3.91.73,13.66-6.44,9.75Z" style="isolation:isolate" fill="#d46a06" opacity=".1"></path><path class="cls-5" d="M351.2,285.91c-7.16-3.88-.72-13.65,6.44-9.76,7.16,3.93.74,13.68-6.44,9.76Z" style="isolation:isolate" fill="#d46a06" opacity=".1"></path><path class="cls-5" d="M370.23,207.84c-7.16-3.9-.71-13.66,6.44-9.75,7.16,3.91.74,13.66-6.44,9.75Z" style="isolation:isolate" fill="#d46a06" opacity=".1"></path><path class="cls-5" d="M405.83,269.44c-7.16-3.88-.72-13.65,6.44-9.75,7.16,3.92.73,13.67-6.44,9.75Z" style="isolation:isolate" fill="#d46a06" opacity=".1"></path><path class="cls-5" d="M439.15,207.84c-7.15-3.9-.72-13.66,6.44-9.75,7.16,3.91.74,13.66-6.44,9.75Z" style="isolation:isolate" fill="#d46a06" opacity=".1"></path><path class="cls-5" d="M451.84,276.76c-7.16-3.88-.71-13.65,6.44-9.75,7.16,3.9.73,13.66-6.44,9.75Z" style="isolation:isolate" fill="#d46a06" opacity=".1"></path><path class="cls-5" d="M363.89,258.77c-7.16-3.89-.72-13.65,6.44-9.75,7.18,3.92.73,13.68-6.44,9.75Z" style="isolation:isolate" fill="#d46a06" opacity=".1"></path><path class="cls-5" d="M428.7,252.99c-7.16-3.88-.72-13.65,6.44-9.75,7.18,3.92.74,13.67-6.44,9.75Z" style="isolation:isolate" fill="#d46a06" opacity=".1"></path><path class="cls-5" d="M400.88,227c-7.16-3.89-.71-13.64,6.43-9.75,7.17,3.91.73,13.66-6.43,9.75Z" style="isolation:isolate" fill="#d46a06" opacity=".1"></path><path class="cls-5" d="M200.66,262.16c3.55-5.58,12.75-.77,9.2,4.85-3.53,5.57-12.75.73-9.2-4.85Z" style="isolation:isolate" fill="#d46a06" opacity=".1"></path><path class="cls-5" d="M323.87,232.8c3.55-5.58,12.75-.76,9.2,4.83-3.54,5.59-12.76.74-9.2-4.83Z" style="isolation:isolate" fill="#d46a06" opacity=".1"></path><path class="cls-5" d="M295.9,281.6c3.53-5.6,12.73-.77,9.2,4.83-3.56,5.57-12.76.74-9.2-4.83Z" style="isolation:isolate" fill="#d46a06" opacity=".1"></path><path class="cls-5" d="M30.64,257.27c3.55-5.58,12.75-.75,9.2,4.85-3.54,5.57-12.75.72-9.2-4.85Z" style="isolation:isolate" fill="#d46a06" opacity=".1"></path><path class="cls-5" d="M131.79,287.19c4.56-7.19,16.42-.95,11.86,6.21-4.55,7.2-16.42.98-11.86-6.21Z" style="isolation:isolate" fill="#d46a06" opacity=".1"></path><path class="cls-5" d="M38.19,285.79c4.56-7.19,16.42-.94,11.86,6.21-4.55,7.21-16.42.98-11.86-6.21Z" style="isolation:isolate" fill="#d46a06" opacity=".1"></path><path class="cls-5" d="M72.62,300.7c3.23-5.08,11.63-.68,8.39,4.4-3.23,5.09-11.62.71-8.39-4.4Z" style="isolation:isolate" fill="#d46a06" opacity=".1"></path><path class="cls-5" d="M105.68,314.95c3.23-5.08,11.63-.68,8.39,4.4-3.23,5.08-11.62.69-8.39-4.4Z" style="isolation:isolate" fill="#d46a06" opacity=".1"></path><path class="cls-5" d="M123.04,242.36c3.23-5.08,11.63-.69,8.39,4.4-3.23,5.08-11.62.69-8.39-4.4Z" style="isolation:isolate" fill="#d46a06" opacity=".1"></path><path class="cls-5" d="M221.45,227.89c-7.15-3.89-.72-13.65,6.44-9.75,7.16,3.93.72,13.68-6.44,9.75Z" style="isolation:isolate" fill="#d46a06" opacity=".1"></path><path class="cls-5" d="M251.41,292.79c3.54-5.59,12.75-.78,9.2,4.83-3.53,5.58-12.76.74-9.2-4.83h0Z" style="isolation:isolate" fill="#d46a06" opacity=".1"></path><path class="cls-5" d="M91.6,267.07c3.55-5.59,12.75-.76,9.2,4.82-3.53,5.59-12.75.75-9.2-4.82Z" style="isolation:isolate" fill="#d46a06" opacity=".1"></path><path class="cls-5" d="M175.75,293.51c4.56-7.19,16.42-.95,11.86,6.21-4.55,7.21-16.42.98-11.86-6.21Z" style="isolation:isolate" fill="#d46a06" opacity=".1"></path><path class="cls-5" d="M25.65,325.44c3.24-5.08,11.63-.68,8.39,4.4-3.23,5.08-11.62.69-8.39-4.4Z" style="isolation:isolate" fill="#d46a06" opacity=".1"></path><path class="cls-5" d="M286.35,431.56c7.39,3.46,1.56,13.58-5.82,10.11-7.42-3.5-1.59-13.61,5.82-10.11Z" style="isolation:isolate" fill="#d46a06" opacity=".1"></path><path class="cls-5" d="M261.41,461.2c7.39,3.47,1.55,13.59-5.82,10.12-7.41-3.5-1.59-13.6,5.82-10.12Z" style="isolation:isolate" fill="#d46a06" opacity=".1"></path><path class="cls-5" d="M186.81,452.4c7.37,3.48,1.55,13.59-5.83,10.12s-1.58-13.6,5.83-10.12Z" style="isolation:isolate" fill="#d46a06" opacity=".1"></path><path class="cls-5" d="M197.89,406.92c7.37,3.49,1.55,13.59-5.83,10.13-7.39-3.5-1.57-13.62,5.83-10.13Z" style="isolation:isolate" fill="#d46a06" opacity=".1"></path><path class="cls-5" d="M229.18,443.26c7.37,3.48,1.55,13.59-5.84,10.12-7.39-3.5-1.57-13.62,5.84-10.12Z" style="isolation:isolate" fill="#d46a06" opacity=".1"></path><path class="cls-5" d="M280.02,387.42c7.37,3.48,1.55,13.59-5.83,10.12-7.39-3.49-1.57-13.61,5.83-10.12Z" style="isolation:isolate" fill="#d46a06" opacity=".1"></path><path class="cls-5" d="M325.06,440.85c7.38,3.49,1.55,13.59-5.83,10.12-7.4-3.48-1.58-13.6,5.83-10.12Z" style="isolation:isolate" fill="#d46a06" opacity=".1"></path><path class="cls-5" d="M354.99,424.05c7.38,3.49,1.56,13.59-5.83,10.12-7.4-3.5-1.58-13.61,5.83-10.12Z" style="isolation:isolate" fill="#d46a06" opacity=".1"></path><path class="cls-5" d="M384.44,438.03c7.38,3.47,1.55,13.58-5.83,10.12-7.4-3.5-1.58-13.61,5.83-10.12Z" style="isolation:isolate" fill="#d46a06" opacity=".1"></path><path class="cls-5" d="M427.82,355.28c7.37,3.49,1.55,13.59-5.83,10.12-7.39-3.5-1.58-13.6,5.83-10.12Z" style="isolation:isolate" fill="#d46a06" opacity=".1"></path><path class="cls-5" d="M455.54,381.63c7.38,3.49,1.56,13.59-5.83,10.13-7.41-3.5-1.57-13.62,5.83-10.13Z" style="isolation:isolate" fill="#d46a06" opacity=".1"></path><path class="cls-5" d="M408.61,385.51c7.38,3.49,1.55,13.59-5.83,10.12-7.4-3.5-1.58-13.62,5.83-10.12Z" style="isolation:isolate" fill="#d46a06" opacity=".1"></path><path class="cls-5" d="M445.3,435.07c7.37,3.49,1.56,13.59-5.83,10.13-7.39-3.5-1.57-13.61,5.83-10.13Z" style="isolation:isolate" fill="#d46a06" opacity=".1"></path><path class="cls-5" d="M91.9,453c7.39,3.48,1.58,13.58-5.82,10.12-7.4-3.5-1.57-13.59,5.82-10.12Z" style="isolation:isolate" fill="#d46a06" opacity=".1"></path><path class="cls-5" d="M30.39,483.16c7.37,3.48,1.56,13.59-5.83,10.12-7.39-3.49-1.55-13.61,5.83-10.12Z" style="isolation:isolate" fill="#d46a06" opacity=".1"></path><path class="cls-5" d="M248.14,414.12c-3.2,5.78-12.69,1.52-9.48-4.28,3.18-5.76,12.68-1.48,9.48,4.28Z" style="isolation:isolate" fill="#d46a06" opacity=".1"></path><path class="cls-5" d="M152.84,475.33c-3.2,5.77-12.69,1.5-9.49-4.28,3.2-5.79,12.69-1.5,9.49,4.28Z" style="isolation:isolate" fill="#d46a06" opacity=".1"></path><path class="cls-5" d="M154.81,425.45c-3.21,5.78-12.69,1.51-9.49-4.28,3.18-5.76,12.68-1.48,9.49,4.28Z" style="isolation:isolate" fill="#d46a06" opacity=".1"></path><path class="cls-5" d="M127.35,440.85c7.37,3.49,1.55,13.59-5.83,10.12-7.4-3.48-1.58-13.6,5.83-10.12Z" style="isolation:isolate" fill="#d46a06" opacity=".1"></path><path class="cls-5" d="M30.38,434.7c7.39,3.48,1.58,13.59-5.82,10.12-7.4-3.5-1.56-13.59,5.82-10.12Z" style="isolation:isolate" fill="#d46a06" opacity=".1"></path><path class="cls-5" d="M82.78,477.37c7.37,3.49,1.56,13.6-5.83,10.13-7.39-3.5-1.55-13.61,5.83-10.13Z" style="isolation:isolate" fill="#d46a06" opacity=".1"></path><path class="cls-5" d="M63.79,447.68c-3.2,5.77-12.69,1.5-9.49-4.29s12.69-1.48,9.49,4.29Z" style="isolation:isolate" fill="#d46a06" opacity=".1"></path><path class="cls-5" d="M94.23,419c-3.22,5.78-12.69,1.51-9.49-4.28,3.18-5.77,12.69-1.48,9.49,4.28Z" style="isolation:isolate" fill="#d46a06" opacity=".1"></path><path class="cls-5" d="M419.18,425.46c-3.19,5.78-12.68,1.5-9.48-4.28,3.2-5.77,12.69-1.48,9.48,4.28Z" style="isolation:isolate" fill="#d46a06" opacity=".1"></path><path class="cls-5" d="M323.31,404.69c-4.11,7.44-16.32,1.92-12.23-5.51,4.12-7.44,16.37-1.93,12.23,5.51Z" style="isolation:isolate" fill="#d46a06" opacity=".1"></path><path class="cls-5" d="M367.66,397.59c-2.93,5.27-11.59,1.36-8.66-3.9,2.92-5.26,11.55-1.36,8.66,3.9Z" style="isolation:isolate" fill="#d46a06" opacity=".1"></path><path class="cls-11" d="M480.7,343.61s-45.65,2.27-60.87,4.29c-14.13,1.9-42.4,9.49-56.51,11.38-15.55,2.07-44.46,3.98-60.01,6.06-12.46,1.66-39.51,7.23-51.96,8.89-6.84.92-29.02,1.94-35.87,2.84-18.21,2.42-46.13,8.09-64.34,10.52-10.8,1.45-31.17,1.56-41.97,3-15.33,2.05-48.3,10.3-63.64,12.35-11.63,1.57-45.51,4.82-45.51,4.82v-24.73l480.96-84.09-.26,44.67h-.02Z" fill="#e60f00"></path><path class="cls-10" d="M481.07,316.97s-35.2,6.6-46.93,8.17c-10.58,1.41-32.46,2.52-43.03,3.93-14.47,1.93-42.74,7.52-57.22,9.44-18.03,2.4-54.15,5.21-72.19,7.62-17.43,2.33-52.61,10.84-70.04,13.15-17.48,2.33-52.1,5.15-69.59,7.49-16.3,2.18-48.52,8.84-64.81,11.01-14.23,1.9-57.26,5.28-57.26,5.28v-31.45s40.14-3.49,54.89-5.47c16.18-2.17,50.99-9,67.16-11.18,16.35-2.2,51.11-3.68,67.46-5.88,18.05-2.42,50.91-9.78,68.97-12.21,17.84-2.4,56.47-5.31,74.32-7.72,14.31-1.92,42.8-8.06,57.09-9.99,10.51-1.4,31.52-1.29,42.04-2.71,12.35-1.65,49.42-9.58,49.42-9.58l-.27,30.12v-.02Z" fill="#f5eddd"></path><path class="cls-10" d="M500.04,164.12c-18.52-53.84-148.71-75.96-181.14-71.47C226.63,105.44,63.73,170.34,0,208.74v27.96c316.91-45.88,441.99-62.97,458.83-46.41,11.65,11.44,13.87,101.27,5.33,261.39,0,0,10.34-1.27,13.77-1.69,14.81-1.82,22.93-8.47,24.9-26.67,6.11-56.35,18.49-197.31-2.8-259.2h0Z" fill="#f5eddd"></path><path class="cls-9" d="M449.54,141.28c71.5-6.81-72.07-56.09-126.66-49.02C125.89,117.75,0,208.74,0,208.74c0,0,204.01-44.16,449.53-67.46Z" fill="#e6ded3"></path><path class="cls-4" d="M340.12,135.33c.56,29.35-178.29,32.93-178.81,3.55-.53-29.39,178.32-32.96,178.81-3.55Z" fill="url(#1776131386768-2120775_radial-gradient)"></path><path class="cls-3" d="M307.27,50.55c18.37,28.39,20.5,64.37-9,81.73-40,23.56-110.03,12.61-121.42-4.98-11.24-17.4,11.02-83.53,49.65-105.84,32.13-18.56,59.21-3.6,80.77,29.09Z" fill="url(#1776131386768-2120775_linear-gradient-2)"></path><path class="cls-7" d="M258.74,71.48c-1.79,2.59-1.08,3.55,2.14,2.9,6.69-1.39,1.61-8.25-2.14-2.9Z" fill="#ea8800"></path><path class="cls-7" d="M234.04,72.49c-1.95,2.49-1.3,3.48,1.95,2.97,6.76-1.04,2.07-8.16-1.95-2.97Z" fill="#ea8800"></path><path class="cls-7" d="M209.84,77.54c-1.94,2.49-1.29,3.48,1.96,2.97,6.76-1.06,2.07-8.16-1.96-2.97Z" fill="#ea8800"></path><path class="cls-7" d="M184.96,96.73c-.89,2.96.1,3.68,2.97,2.16,5.96-3.16-1.08-8.31-2.97-2.16Z" fill="#ea8800"></path><path class="cls-7" d="M180.89,116.45c.03,3.07,1.2,3.5,3.5,1.29,4.78-4.6-3.56-7.66-3.5-1.29Z" fill="#ea8800"></path><path class="cls-7" d="M204.43,103.18c-2.29,2.21-1.79,3.28,1.49,3.2,6.86-.19,3.27-7.8-1.49-3.2Z" fill="#ea8800"></path><path class="cls-7" d="M217.03,133.63c-2.76,1.67-2.54,2.82.67,3.47,6.69,1.29,5.1-6.95-.67-3.47Z" fill="#ea8800"></path><path class="cls-7" d="M228.06,117.4c-2.77,1.67-2.55,2.82.67,3.45,6.67,1.32,5.1-6.91-.67-3.45Z" fill="#ea8800"></path><path class="cls-7" d="M226.85,96.31c-2.05,2.42-1.44,3.43,1.83,3.04,6.81-.82,2.41-8.07-1.83-3.04Z" fill="#ea8800"></path><path class="cls-7" d="M249.02,114.82c-2.03,2.4-1.42,3.41,1.84,3.04,6.81-.8,2.41-8.07-1.84-3.04Z" fill="#ea8800"></path><path class="cls-7" d="M248.46,132.23c-2.39,2.12-1.94,3.21,1.33,3.28,6.84.12,3.68-7.68-1.33-3.28Z" fill="#ea8800"></path><path class="cls-7" d="M276.06,126.52c-2.39,2.09-1.94,3.18,1.34,3.25,6.84.15,3.68-7.65-1.34-3.25Z" fill="#ea8800"></path><path class="cls-7" d="M250,92.89c-1.35,2.79-.48,3.63,2.59,2.51,6.38-2.36.21-8.37-2.59-2.51Z" fill="#ea8800"></path><path class="cls-7" d="M291.04,94.84c-1.35,2.8-.49,3.64,2.58,2.51,6.38-2.34.2-8.37-2.58-2.51Z" fill="#ea8800"></path><path class="cls-7" d="M272.67,108.59c-1.34,2.81-.48,3.65,2.58,2.52,6.39-2.35.21-8.38-2.58-2.52Z" fill="#ea8800"></path><path class="cls-7" d="M297.52,114.62c-.37,3.05.72,3.59,3.27,1.63,5.35-4.03-2.52-8-3.27-1.63Z" fill="#ea8800"></path><path class="cls-7" d="M309.32,90.94c.73,2.99,1.97,3.17,3.71.56,3.64-5.45-5.23-6.78-3.71-.56Z" fill="#ea8800"></path><path class="cls-7" d="M290.75,73.82c-1.68,2.62-.93,3.54,2.26,2.76,6.61-1.63,1.25-8.3-2.26-2.76Z" fill="#ea8800"></path><path class="cls-7" d="M272.1,85.55c-1.68,2.64-.93,3.57,2.26,2.8,6.63-1.64,1.27-8.29-2.26-2.8Z" fill="#ea8800"></path><path class="cls-7" d="M200.4,122.07c-2.77,1.66-2.55,2.81.66,3.45,6.7,1.32,5.11-6.9-.66-3.45Z" fill="#ea8800"></path><path class="cls-7" d="M222.61,55.15c-1.71,2.63-.97,3.57,2.22,2.82,6.63-1.54,1.36-8.29-2.22-2.82Z" fill="#ea8800"></path><path class="cls-7" d="M221.01,34.77c-1.94,2.49-1.28,3.48,1.98,2.99,6.75-1.03,2.11-8.15-1.98-2.99Z" fill="#ea8800"></path><path class="cls-7" d="M264.16,21.95c-3.03,1.19-3.03,2.36,0,3.5,6.34,2.41,6.34-5.96,0-3.5Z" fill="#ea8800"></path><path class="cls-7" d="M249.7,53.04c-2.72,1.73-2.46,2.88.78,3.43,6.71,1.13,4.89-7.04-.78-3.43Z" fill="#ea8800"></path><path class="cls-7" d="M240.34,23.32c-2.7,1.73-2.44,2.88.78,3.43,6.7,1.15,4.91-7.05-.78-3.43Z" fill="#ea8800"></path><path class="cls-7" d="M276.83,58.63c-2.87,1.5-2.73,2.66.43,3.49,6.58,1.69,5.55-6.61-.43-3.49Z" fill="#ea8800"></path><path class="cls-7" d="M268.2,39.94c-2.88,1.5-2.74,2.66.42,3.49,6.58,1.71,5.56-6.59-.42-3.49Z" fill="#ea8800"></path><path class="cls-7" d="M244.96,36.82c-2.87,1.51-2.74,2.67.41,3.5,6.62,1.7,5.6-6.61-.41-3.5Z" fill="#ea8800"></path><path class="cls-7" d="M202.11,54.99c-.31,3.06.79,3.6,3.32,1.62,5.28-4.1-2.65-7.97-3.32-1.62Z" fill="#ea8800"></path><path class="cls-7" d="M192.61,74.61c-.98,2.92-.01,3.65,2.9,2.2,6.05-3.05-.86-8.31-2.9-2.2Z" fill="#ea8800"></path><path class="cls-1" d="M307.26,17.54c-6.19,11.59,11.19,18.02-5.58,35.81-20.11-6.8-9.19-25.45,5.58-35.81Z" fill="#7ab51d"></path><path class="cls-1" d="M338.14,65.19c-13.66.11-11.91-17.58-36.1-11.26-2.64,20.18,19.75,19.23,36.1,11.26Z" fill="#7ab51d"></path><path class="cls-8" d="M283.99,0c-3.04,8.05,6.43,14.85,6.58,29.4,0,0,10.76,11.28,16.98,20.89,6.24,9.61,11.97,23.84,11.97,23.84,13.59,6.64,15.71,17.75,24.61,18.78-14.31,11.92-37.61-8.08-32.83-21.68,0,0-10.69-8.09-9.06-17.83-9.82-2.97-12.66-15.7-12.66-15.7-14.91-2.01-23.18-30.83-5.6-37.69h.01Z" fill="#56ab15"></path><path class="cls-2" d="M294.2,14.54c-4.03,6.06,2.74,14.13,1.86,19.08-1.33,7.58-3.4,12.72,6.63,19.52,1.88,11.59,7.64,12.14,15.34,14.42,5.03,1.47,9.58,10.87,17.05,10.13-16.7,19.61-41.64-12.87-33.33-24-14.15,2.14-33.43-33.69-7.56-39.13v-.02Z" fill="#449c00"></path><path class="cls-1" d="M302.4,49.19c.38,2.54,3.02,3.94,3.02,3.94,17.02-2.24,34.73-17.84,30.19-24.73-8.71-13.17-2.84,15.16-33.21,20.79Z" fill="#7ab51d"></path></g></svg>