<svg data-name="Layer 1" xmlns="http://www.w3.org/2000/svg" style="" viewBox="0 0 697.91 512"><g class="nc-icon-wrapper"><defs><linearGradient id="1776355327041-1341606_linear-gradient" x1="17.88" y1="-261.01" x2="353.37" y2="-291.59" gradientTransform="matrix(1 0 0 -1 0 -.13)" gradientUnits="userSpaceOnUse"><stop offset="0" stop-color="#0072cf"></stop><stop offset=".02" stop-color="#0072cf"></stop><stop offset=".09" stop-color="#0082d7"></stop><stop offset=".22" stop-color="#009de5"></stop><stop offset=".35" stop-color="#00aded"></stop><stop offset=".44" stop-color="#00b3f0"></stop><stop offset=".64" stop-color="#00b0ef"></stop><stop offset=".76" stop-color="#00a8ea"></stop><stop offset=".85" stop-color="#009ae3"></stop><stop offset=".94" stop-color="#0086d9"></stop><stop offset="1" stop-color="#0072cf"></stop></linearGradient><linearGradient id="1776355327041-1341606_linear-gradient-2" x1="53.63" y1="-166.6" x2="16.97" y2="-156.13" gradientTransform="matrix(1 0 0 -1 0 -.13)" gradientUnits="userSpaceOnUse"><stop offset="0" stop-color="#0072cf"></stop><stop offset=".17" stop-color="#0072cf"></stop><stop offset=".17" stop-color="#0072cf" stop-opacity=".98"></stop><stop offset=".53" stop-color="#0072cf" stop-opacity="0"></stop><stop offset="1" stop-color="#0072cf" stop-opacity="0"></stop></linearGradient><radialGradient id="1776355327041-1341606_radial-gradient" cx="71.77" cy="-507.54" fx="71.77" fy="-507.54" r="447.91" gradientTransform="matrix(-.46955 -.02067 .04708 -.9989 456.92 6.38)" gradientUnits="userSpaceOnUse"><stop offset="0" stop-color="#0072cf" stop-opacity=".3"></stop><stop offset=".57" stop-color="#0072cf" stop-opacity=".3"></stop><stop offset=".64" stop-color="#0072cf" stop-opacity="0"></stop><stop offset="1" stop-color="#0072cf" stop-opacity="0"></stop></radialGradient><linearGradient id="1776355327041-1341606_linear-gradient-3" x1="334.08" y1="-444.76" x2="3.72" y2="-444.76" gradientTransform="matrix(1 0 0 -1 0 -.13)" gradientUnits="userSpaceOnUse"><stop offset="0" stop-color="#002f69"></stop><stop offset=".05" stop-color="#003577"></stop><stop offset=".15" stop-color="#004190"></stop><stop offset=".26" stop-color="#0049a2"></stop><stop offset=".37" stop-color="#004dad"></stop><stop offset=".5" stop-color="#004fb0"></stop><stop offset=".62" stop-color="#004dac"></stop><stop offset=".74" stop-color="#0048a1"></stop><stop offset=".85" stop-color="#00408e"></stop><stop offset=".96" stop-color="#003474"></stop><stop offset="1" stop-color="#002f69"></stop></linearGradient><linearGradient id="1776355327041-1341606_linear-gradient-4" x1="331.84" y1="-480.46" x2="0" y2="-480.46" gradientTransform="matrix(1 0 0 -1 0 -.13)" gradientUnits="userSpaceOnUse"><stop offset="0" stop-color="#002f69"></stop><stop offset=".05" stop-color="#003577"></stop><stop offset=".15" stop-color="#004190"></stop><stop offset=".26" stop-color="#0049a2"></stop><stop offset=".37" stop-color="#004dad"></stop><stop offset=".5" stop-color="#004fb0"></stop><stop offset=".62" stop-color="#004dac"></stop><stop offset=".74" stop-color="#0048a1"></stop><stop offset=".85" stop-color="#00408e"></stop><stop offset=".96" stop-color="#003474"></stop><stop offset="1" stop-color="#002f69"></stop></linearGradient><linearGradient id="1776355327041-1341606_linear-gradient-5" x1="679.34" y1="-261.64" x2="344.51" y2="-291.33" gradientTransform="matrix(1 0 0 -1 0 -.13)" gradientUnits="userSpaceOnUse"><stop offset="0" stop-color="#0072cf"></stop><stop offset=".02" stop-color="#0072cf"></stop><stop offset=".09" stop-color="#0082d7"></stop><stop offset=".22" stop-color="#009de5"></stop><stop offset=".35" stop-color="#00aded"></stop><stop offset=".44" stop-color="#00b3f0"></stop><stop offset=".64" stop-color="#00b0ef"></stop><stop offset=".76" stop-color="#00a8ea"></stop><stop offset=".85" stop-color="#009ae3"></stop><stop offset=".94" stop-color="#0086d9"></stop><stop offset="1" stop-color="#0072cf"></stop></linearGradient><linearGradient id="1776355327041-1341606_linear-gradient-6" x1="643.63" y1="-166.89" x2="680.76" y2="-155.53" gradientTransform="matrix(1 0 0 -1 0 -.13)" gradientUnits="userSpaceOnUse"><stop offset="0" stop-color="#0072cf"></stop><stop offset=".17" stop-color="#0072cf"></stop><stop offset=".17" stop-color="#0072cf" stop-opacity=".98"></stop><stop offset=".53" stop-color="#0072cf" stop-opacity="0"></stop><stop offset="1" stop-color="#0072cf" stop-opacity="0"></stop></linearGradient><radialGradient id="1776355327041-1341606_radial-gradient-2" cx="243.14" cy="-511.31" fx="243.14" fy="-511.31" r="447.91" gradientTransform="matrix(.46955 -.02067 -.04708 -.9989 155.47 6.38)" gradientUnits="userSpaceOnUse"><stop offset="0" stop-color="#0072cf" stop-opacity=".3"></stop><stop offset=".57" stop-color="#0072cf" stop-opacity=".3"></stop><stop offset=".64" stop-color="#0072cf" stop-opacity="0"></stop><stop offset="1" stop-color="#0072cf" stop-opacity="0"></stop></radialGradient><linearGradient id="1776355327041-1341606_linear-gradient-7" x1="-751.44" y1="-444.76" x2="-1081.8" y2="-444.76" gradientTransform="rotate(-180 -193.805 -.065)" gradientUnits="userSpaceOnUse"><stop offset="0" stop-color="#002f69"></stop><stop offset=".05" stop-color="#003577"></stop><stop offset=".15" stop-color="#004190"></stop><stop offset=".26" stop-color="#0049a2"></stop><stop offset=".37" stop-color="#004dad"></stop><stop offset=".5" stop-color="#004fb0"></stop><stop offset=".62" stop-color="#004dac"></stop><stop offset=".74" stop-color="#0048a1"></stop><stop offset=".85" stop-color="#00408e"></stop><stop offset=".96" stop-color="#003474"></stop><stop offset="1" stop-color="#002f69"></stop></linearGradient><linearGradient id="1776355327041-1341606_linear-gradient-8" x1="-753.68" y1="-480.46" x2="-1085.52" y2="-480.46" gradientTransform="rotate(-180 -193.805 -.065)" gradientUnits="userSpaceOnUse"><stop offset="0" stop-color="#002f69"></stop><stop offset=".05" stop-color="#003577"></stop><stop offset=".15" stop-color="#004190"></stop><stop offset=".26" stop-color="#0049a2"></stop><stop offset=".37" stop-color="#004dad"></stop><stop offset=".5" stop-color="#004fb0"></stop><stop offset=".62" stop-color="#004dac"></stop><stop offset=".74" stop-color="#0048a1"></stop><stop offset=".85" stop-color="#00408e"></stop><stop offset=".96" stop-color="#003474"></stop><stop offset="1" stop-color="#002f69"></stop></linearGradient><radialGradient id="1776355327041-1341606_radial-gradient-3" cx="348.96" cy="495.4" fx="348.96" fy="495.4" r="377.97" gradientTransform="matrix(1 0 0 -.16 0 103.12)" gradientUnits="userSpaceOnUse"><stop offset="0" stop-color="#004fb0"></stop><stop offset=".34" stop-color="#004ead"></stop><stop offset=".54" stop-color="#004aa5"></stop><stop offset=".72" stop-color="#004497"></stop><stop offset=".87" stop-color="#003a82"></stop><stop offset="1" stop-color="#002f69"></stop></radialGradient><radialGradient id="1776355327041-1341606_radial-gradient-4" cx="347.47" cy="327.8" fx="347.47" fy="327.8" r="362.35" gradientTransform="matrix(1 0 0 -.26 0 94.5)" gradientUnits="userSpaceOnUse"><stop offset="0" stop-color="#004fb0"></stop><stop offset=".34" stop-color="#004ead"></stop><stop offset=".55" stop-color="#004aa5"></stop><stop offset=".72" stop-color="#004497"></stop><stop offset=".87" stop-color="#003b83"></stop><stop offset="1" stop-color="#002f69"></stop></radialGradient><radialGradient id="1776355327041-1341606_radial-gradient-5" cx="8761.03" cy="11474.67" fx="8761.03" fy="11474.67" r="255.21" gradientTransform="matrix(-.05 0 0 .05 745.09 -532.65)" gradientUnits="userSpaceOnUse"><stop offset="0" stop-color="#99a2a6"></stop><stop offset=".57" stop-color="#99a2a6"></stop><stop offset=".64" stop-color="#b7bec2"></stop><stop offset=".75" stop-color="#e5e9ec"></stop><stop offset=".81" stop-color="#f7fafc"></stop><stop offset=".85" stop-color="#f2f6f8"></stop><stop offset=".88" stop-color="#e5e9ec"></stop><stop offset=".92" stop-color="#cfd4d7"></stop><stop offset=".97" stop-color="#b0b8bb"></stop><stop offset=".99" stop-color="#99a2a6"></stop><stop offset="1" stop-color="#99a2a6"></stop></radialGradient><linearGradient id="1776355327041-1341606_linear-gradient-9" x1="285.04" y1="-260.93" x2="274.6" y2="-258.84" gradientTransform="matrix(1 0 0 -1 0 -.13)" gradientUnits="userSpaceOnUse"><stop offset="0" stop-color="#99a2a6"></stop><stop offset=".15" stop-color="#abb3b6"></stop><stop offset=".8" stop-color="#f7fafc"></stop><stop offset="1" stop-color="#f7fafc"></stop></linearGradient><linearGradient id="1776355327041-1341606_linear-gradient-10" x1="297.57" y1="-244.18" x2="297.57" y2="-27.66" gradientTransform="matrix(1 0 0 -1 0 -.13)" gradientUnits="userSpaceOnUse"><stop offset="0" stop-color="#99a2a6"></stop><stop offset="0" stop-color="#9ea7ab"></stop><stop offset=".1" stop-color="#bec5c8"></stop><stop offset=".19" stop-color="#d7dcdf"></stop><stop offset=".28" stop-color="#e9edef"></stop><stop offset=".38" stop-color="#f4f7f9"></stop><stop offset=".5" stop-color="#f7fafc"></stop><stop offset=".61" stop-color="#f3f7f9"></stop><stop offset=".71" stop-color="#e8ecee"></stop><stop offset=".81" stop-color="#d5dadd"></stop><stop offset=".9" stop-color="#bbc2c5"></stop><stop offset="1" stop-color="#99a2a6"></stop><stop offset="1" stop-color="#99a2a6"></stop></linearGradient><radialGradient id="1776355327041-1341606_radial-gradient-6" cx="-9677.98" cy="11474.67" fx="-9677.98" fy="11474.67" r="255.21" gradientTransform="matrix(.05 0 0 .05 867.3 -532.65)" gradientUnits="userSpaceOnUse"><stop offset="0" stop-color="#99a2a6"></stop><stop offset=".57" stop-color="#99a2a6"></stop><stop offset=".64" stop-color="#b7bec2"></stop><stop offset=".75" stop-color="#e5e9ec"></stop><stop offset=".81" stop-color="#f7fafc"></stop><stop offset=".85" stop-color="#f2f6f8"></stop><stop offset=".88" stop-color="#e5e9ec"></stop><stop offset=".92" stop-color="#cfd4d7"></stop><stop offset=".97" stop-color="#b0b8bb"></stop><stop offset=".99" stop-color="#99a2a6"></stop><stop offset="1" stop-color="#99a2a6"></stop></radialGradient><linearGradient id="1776355327041-1341606_linear-gradient-11" x1="1200.31" y1="-250.52" x2="1189.15" y2="-248.29" gradientTransform="rotate(179.99 806.238 20.175)" gradientUnits="userSpaceOnUse"><stop offset="0" stop-color="#99a2a6"></stop><stop offset=".15" stop-color="#abb3b6"></stop><stop offset=".8" stop-color="#f7fafc"></stop><stop offset="1" stop-color="#f7fafc"></stop></linearGradient><linearGradient id="1776355327041-1341606_linear-gradient-12" x1="400.56" y1="-273.94" x2="400.56" y2="-27.66" gradientTransform="matrix(1 0 0 -1 0 -.13)" gradientUnits="userSpaceOnUse"><stop offset="0" stop-color="#99a2a6"></stop><stop offset="0" stop-color="#9ea7ab"></stop><stop offset=".1" stop-color="#bec5c8"></stop><stop offset=".19" stop-color="#d7dcdf"></stop><stop offset=".28" stop-color="#e9edef"></stop><stop offset=".38" stop-color="#f4f7f9"></stop><stop offset=".5" stop-color="#f7fafc"></stop><stop offset=".61" stop-color="#f3f7f9"></stop><stop offset=".71" stop-color="#e8ecee"></stop><stop offset=".81" stop-color="#d5dadd"></stop><stop offset=".9" stop-color="#bbc2c5"></stop><stop offset="1" stop-color="#99a2a6"></stop><stop offset="1" stop-color="#99a2a6"></stop></linearGradient></defs><path class="cls-15" d="M330.36,491.81s-6.32.99-18.97,2.98c-12.65,1.99-30.01,3.85-52.08,5.58s-47.25,2.23-75.52,1.49-58.16-3.72-89.66-8.93c-31.5-5.21-62.87-14.01-94.12-26.41,0,0,.74-7.19,2.23-21.58s3.47-33.48,5.95-57.29c2.48-23.81,5.33-50.1,8.56-78.87,3.22-28.77,6.45-57.42,9.67-85.94,3.22-28.52,6.2-54.81,8.93-78.87s5.21-43.4,7.44-58.04c2.23-14.64,3.85-21.95,4.84-21.95h301.34v279.02c-2.48,0-4.46,2.98-5.95,8.93-.99,4.46-2.11,12.03-3.35,22.69-1.24,10.66-2.36,22.57-3.35,35.71s-1.99,25.92-2.98,38.32-1.73,22.69-2.23,30.88-.74,12.28-.74,12.28Z" fill="url(#1776355327041-1341606_linear-gradient)"></path><path class="cls-13" d="M77.38,63.99c-1.99,10.42-5.58,24.05-10.79,40.92-5.21,16.87-10.66,34.97-16.37,54.32-5.71,19.35-11.29,38.32-16.74,56.92-5.45,18.6-9.67,35.34-12.65,50.22,0,0,.74-6.2,2.23-18.6s3.35-28.03,5.58-46.87c2.23-18.85,4.59-38.19,7.07-58.04s4.84-37.08,7.07-51.71c2.23-14.64,3.85-23.68,4.84-27.16,1.99-.5,5.45-.74,10.42-.74s9.43.13,13.39.37,5.95.37,5.95.37Z" fill="url(#1776355327041-1341606_linear-gradient-2)"></path><path class="cls-14" d="M330.36,491.81s-7.19.99-21.58,2.98c-14.38,1.99-33.48,3.85-57.29,5.58s-50.35,2.23-79.61,1.49c-29.26-.74-58.78-3.72-88.54-8.93-29.76-5.21-57.54-14.01-83.33-26.41,0,0,.74-7.19,2.23-21.58s3.47-33.48,5.95-57.29c2.48-23.81,5.33-50.1,8.56-78.87,3.22-28.77,6.45-57.42,9.67-85.94,3.22-28.52,6.2-54.81,8.93-78.87s5.21-43.4,7.44-58.04c2.23-14.64,3.85-21.95,4.84-21.95h301.34v279.02c-2.48,0-4.46,2.98-5.95,8.93-.99,4.46-2.11,12.03-3.35,22.69-1.24,10.66-2.36,22.57-3.35,35.71s-1.99,25.92-2.98,38.32-1.73,22.69-2.23,30.88-.74,12.28-.74,12.28Z" fill="url(#1776355327041-1341606_radial-gradient)"></path><path class="cls-12" d="M5.95,411.46c9.92,9.92,24.55,18.47,43.9,25.67,19.35,7.19,41.29,12.78,65.85,16.74s50.1,6.2,76.64,6.7c26.54.5,52.08-.87,76.64-4.09s46.26-8.8,65.1-16.74l-1.49,17.86c-25.3,9.92-54.19,16.12-86.68,18.6s-64.86,2.11-97.1-1.12-61.38-8.68-87.43-16.37c-26.04-7.69-45.26-16.74-57.66-27.16l2.23-20.09Z" fill="url(#1776355327041-1341606_linear-gradient-3)"></path><path class="cls-11" d="M2.23,448.66c14.88,9.92,33.24,18.23,55.06,24.93,21.82,6.7,45.39,11.78,70.68,15.25,25.3,3.47,50.72,5.33,76.26,5.58,25.54.25,49.35-1.36,71.43-4.84,22.08-3.47,40.8-8.43,56.18-14.88l-1.49,17.11c-23.81,8.93-51.34,14.88-82.59,17.86s-63,3.1-95.24.37-61.88-7.69-88.91-14.88-48.24-16.74-63.62-28.65l2.23-17.86Z" fill="url(#1776355327041-1341606_linear-gradient-4)"></path><path class="cls-8" d="M697.91,466.52c-31.25,12.4-62.63,21.21-94.12,26.41-31.5,5.21-61.38,8.18-89.66,8.93s-53.44.25-75.52-1.49-39.43-3.59-52.08-5.58c-12.65-1.99-18.97-2.98-18.97-2.98,0,0-.25-4.09-.74-12.28-.5-8.18-1.24-18.47-2.23-30.88-.99-12.4-1.99-25.17-2.98-38.32s-2.11-25.05-3.35-35.71c-1.24-10.66-2.36-18.23-3.35-22.69-1.49-5.95-3.47-8.93-5.95-8.93V63.99h301.34c.99,0,2.6,7.31,4.84,21.95s4.71,33.98,7.44,58.04,5.71,50.35,8.93,78.87,6.45,57.16,9.67,85.94,6.08,55.06,8.56,78.87,4.46,42.91,5.95,57.29,2.23,21.58,2.23,21.58Z" fill="url(#1776355327041-1341606_linear-gradient-5)"></path><path class="cls-9" d="M677.08,266.37c-2.98-14.88-7.19-31.62-12.65-50.22s-11.03-37.57-16.74-56.92c-5.71-19.35-11.16-37.45-16.37-54.32-5.21-16.87-8.8-30.51-10.79-40.92,0,0,1.99-.13,5.95-.37s8.43-.37,13.39-.37,8.43.25,10.42.74c.99,3.47,2.6,12.52,4.84,27.16s4.59,31.87,7.07,51.71,4.84,39.19,7.07,58.04c2.23,18.85,4.09,34.47,5.58,46.87s2.23,18.6,2.23,18.6Z" fill="url(#1776355327041-1341606_linear-gradient-6)"></path><path class="cls-5" d="M697.91,466.52c-25.8,12.4-53.57,21.21-83.33,26.41-29.76,5.21-59.28,8.18-88.54,8.93s-55.8.25-79.61-1.49-42.91-3.59-57.29-5.58c-14.38-1.99-21.58-2.98-21.58-2.98,0,0-.25-4.09-.74-12.28-.5-8.18-1.24-18.47-2.23-30.88-.99-12.4-1.99-25.17-2.98-38.32s-2.11-25.05-3.35-35.71c-1.24-10.66-2.36-18.23-3.35-22.69-1.49-5.95-3.47-8.93-5.95-8.93V63.99h301.34c.99,0,2.6,7.31,4.84,21.95s4.71,33.98,7.44,58.04,5.71,50.35,8.93,78.87,6.45,57.16,9.67,85.94,6.08,55.06,8.56,78.87,4.46,42.91,5.95,57.29,2.23,21.58,2.23,21.58Z" fill="url(#1776355327041-1341606_radial-gradient-2)"></path><path class="cls-7" d="M691.96,411.46c-9.92,9.92-24.55,18.47-43.9,25.67-19.35,7.19-41.29,12.78-65.85,16.74s-50.1,6.2-76.64,6.7c-26.54.5-52.08-.87-76.64-4.09s-46.26-8.8-65.1-16.74l1.49,17.86c25.3,9.92,54.19,16.12,86.68,18.6s64.86,2.11,97.1-1.12,61.38-8.68,87.43-16.37c26.04-7.69,45.26-16.74,57.66-27.16l-2.23-20.09Z" fill="url(#1776355327041-1341606_linear-gradient-7)"></path><path class="cls-6" d="M695.68,448.66c-14.88,9.92-33.24,18.23-55.06,24.93-21.82,6.7-45.39,11.78-70.68,15.25-25.3,3.47-50.72,5.33-76.26,5.58-25.54.25-49.35-1.36-71.43-4.84-22.08-3.47-40.8-8.43-56.18-14.88l1.49,17.11c23.81,8.93,51.34,14.88,82.59,17.86s63,3.1,95.24.37,61.88-7.69,88.91-14.88c27.03-7.19,48.24-16.74,63.62-28.65l-2.23-17.86Z" fill="url(#1776355327041-1341606_linear-gradient-8)"></path><path class="cls-16" d="M348.96,63.99s.87,12.28,2.6,36.83,2.73,57.91,2.98,100.07c.25,42.16-1.61,89.53-5.58,142.11-3.97-52.58-5.83-99.95-5.58-142.11s1.24-75.52,2.98-100.07c1.73-24.55,2.6-36.83,2.6-36.83Z" fill="#0072cf"></path><path class="cls-4" d="M648.81,37.95c0,1.99.37,6.08,1.12,12.28s1.12,11.03,1.12,14.51c0,1.99-8.43,3.59-25.3,4.84-16.87,1.24-39.68,2.36-68.45,3.35s-61.14,1.73-97.1,2.23c-35.96.5-73.04.74-111.23.74s-75.27-.25-111.23-.74c-35.96-.5-68.33-1.24-97.1-2.23s-51.58-2.11-68.45-3.35c-16.87-1.24-25.3-2.85-25.3-4.84,0-3.47.37-8.31,1.12-14.51s1.12-10.29,1.12-12.28c0-.99,8.43-1.86,25.3-2.6s39.56-1.24,68.08-1.49,60.64-.5,96.35-.74,72.42-.37,110.12-.37,74.4.13,110.12.37,67.83.5,96.35.74,51.21.74,68.08,1.49,25.3,1.61,25.3,2.6Z" fill="url(#1776355327041-1341606_radial-gradient-3)"></path><path class="cls-3" d="M643.6,1.49c3.97,2.48,5.83,7.31,5.58,14.51s-.37,14.51-.37,21.95c0,.99-8.43,1.73-25.3,2.23-16.87.5-39.56.99-68.08,1.49-28.52.5-60.64.87-96.35,1.12-35.71.25-72.42.37-110.12.37s-74.4-.13-110.12-.37c-35.71-.25-67.83-.62-96.35-1.12-28.52-.5-51.21-.99-68.08-1.49-16.87-.5-25.3-1.24-25.3-2.23,0-7.44-.13-14.75-.37-21.95s1.61-12.03,5.58-14.51c0,0,24.55-.25,73.66-.74s122.77-.74,220.98-.74,171.87.25,220.98.74c49.11.5,73.66.74,73.66.74Z" fill="url(#1776355327041-1341606_radial-gradient-4)"></path><path class="cls-2" d="M298.06,32.64c0,1.7.32,3.3.97,4.81s1.54,2.83,2.68,3.97c1.15,1.15,2.46,2.04,3.96,2.68s3.1.97,4.83.97,3.33-.32,4.83-.97,2.81-1.54,3.96-2.68c1.15-1.15,2.04-2.47,2.68-3.97s.97-3.11.97-4.81-.32-3.33-.97-4.83-1.54-2.81-2.68-3.96c-1.15-1.15-2.47-2.04-3.97-2.68-1.51-.65-3.11-.97-4.81-.97s-3.33.32-4.83.97c-1.5.65-2.81,1.54-3.96,2.68-1.15,1.15-2.04,2.46-2.68,3.96s-.97,3.1-.97,4.83Z" fill="url(#1776355327041-1341606_radial-gradient-5)"></path><path class="cls-10" d="M270.83,275.3c.5-1.49,1.36-5.21,2.6-11.16s2.48-11.66,3.72-17.11,1.86-8.18,1.86-8.18l11.16,2.98s-.62,2.73-1.86,8.18-2.36,11.03-3.35,16.74-1.73,9.06-2.23,10.04c0,2.48-2.11,3.47-6.32,2.98s-6.08-1.99-5.58-4.46Z" fill="url(#1776355327041-1341606_linear-gradient-9)"></path><path class="cls-17" d="M316.96,33.48c-3.47,8.43-6.57,16.5-9.3,24.18s-4.84,17.98-6.32,30.88c-1.49,12.89-1.49,31.75,0,56.55,1.49,29.76.99,52.33-1.49,67.71s-5.21,25.3-8.18,29.76c-1.49,1.49-4.09,1.86-7.81,1.12s-5.58-2.11-5.58-4.09c-.99-3.47-.25-12.89,2.23-28.27s2.73-37.95.74-67.71c-1.99-24.8-1.86-44.77.37-59.9s5.58-26.91,10.04-35.34,9.17-15.13,14.14-20.09c1.49-1.49,3.97-1.49,7.44,0s4.71,3.22,3.72,5.21Z" fill="url(#1776355327041-1341606_linear-gradient-10)"></path><path class="cls-1" d="M399.86,32.64c0,1.7-.32,3.3-.97,4.81s-1.54,2.83-2.68,3.97c-1.15,1.15-2.46,2.04-3.96,2.68s-3.1.97-4.83.97-3.33-.32-4.83-.97-2.81-1.54-3.96-2.68c-1.15-1.15-2.04-2.47-2.68-3.97s-.97-3.11-.97-4.81.32-3.33.97-4.83,1.54-2.81,2.68-3.96c1.15-1.15,2.47-2.04,3.97-2.68,1.51-.65,3.11-.97,4.81-.97s3.33.32,4.83.97c1.5.65,2.81,1.54,3.96,2.68,1.15,1.15,2.04,2.46,2.68,3.96s.97,3.1.97,4.83Z" fill="url(#1776355327041-1341606_radial-gradient-6)"></path><path class="cls-18" d="M427.08,305.3c-.5-1.49-1.36-5.21-2.6-11.16s-2.48-11.65-3.72-17.11c-1.24-5.45-1.86-8.18-1.86-8.18l-11.16,2.98s.62,2.73,1.86,8.18,2.36,11.03,3.35,16.73,1.73,9.05,2.23,10.04c0,2.48,2.11,3.47,6.32,2.98s6.08-1.99,5.58-4.46Z" fill="url(#1776355327041-1341606_linear-gradient-11)"></path><path class="cls-19" d="M380.95,33.48c-.99-1.99.25-3.72,3.72-5.21s5.95-1.49,7.44,0c6.94,7.44,13.52,21.7,19.72,42.78,6.2,21.08,7.81,50.22,4.84,87.43-1.99,29.76-1.73,54.93.74,75.52s3.47,32.37,2.98,35.34c-.5,1.99-2.6,3.35-6.32,4.09s-6.32.37-7.81-1.12c-2.98-4.46-5.71-16.87-8.18-37.2s-2.98-45.39-1.49-75.15c1.49-24.8,1.49-44.89,0-60.27s-3.59-28.15-6.32-38.32c-2.73-10.17-5.83-19.47-9.3-27.9Z" fill="url(#1776355327041-1341606_linear-gradient-12)"></path></g></svg>