<svg data-name="Layer 1" xmlns="http://www.w3.org/2000/svg" style="" viewBox="0 0 512.01 512"><g class="nc-icon-wrapper"><defs><radialGradient id="1777677194280-4608941_radial-gradient" cx="305.54" cy="180.37" fx="305.54" fy="180.37" r="318.97" gradientTransform="matrix(.8711 .18246 .1533 -.71373 -58.54 376.59)" gradientUnits="userSpaceOnUse"><stop offset="0" stop-color="#f80"></stop><stop offset=".31" stop-color="#fc8500"></stop><stop offset=".53" stop-color="#f37c00"></stop><stop offset=".71" stop-color="#e46d00"></stop><stop offset=".88" stop-color="#ce5800"></stop><stop offset="1" stop-color="#ba4500"></stop></radialGradient><linearGradient id="1777677194280-4608941_linear-gradient" x1="170.84" y1="82.54" x2="170.84" y2="267.04" gradientTransform="matrix(1 0 0 -1 0 514)" gradientUnits="userSpaceOnUse"><stop offset="0" stop-color="#de2800"></stop><stop offset=".1" stop-color="#e33204"></stop><stop offset=".48" stop-color="#f25411"></stop><stop offset=".79" stop-color="#fc6919"></stop><stop offset="1" stop-color="#ff701c"></stop></linearGradient></defs><path class="cls-6" d="M5.01,268.85c13.18-9.28,72.23-44.53,59.41-49.3-11.05-4.16-83.92,66.57-59.41,49.3Z" fill="#d44f00"></path><path class="cls-7" d="M132.68,208.6c-.05-7.11-60.47-.67-67.38,3.25-1.72.96-7.34,22.96-4.37,21.5,12.15-5.96,71.78-18,71.75-24.75Z" fill="#e05400"></path><path class="cls-6" d="M130.02,200c-3.74-2.74-5.78,14.39-1.77,16.85,19.52,12,68.49,15.47,69.92,7.84,1.12-5.91-48.19-9.86-68.16-24.69Z" fill="#d44f00"></path><path class="cls-6" d="M251.61,290.89c11.39-7.85,37.32-10.57,27.21-16.26-8.71-4.93-49.48,31.56-27.21,16.26Z" fill="#d44f00"></path><path class="cls-7" d="M306.26,279.43c1.24-5.9-18.69-13.36-25.29-11.07-1.66.57-10.42,18.07-7.63,17.25,11.47-3.32,31.74-.58,32.92-6.19Z" fill="#e05400"></path><path class="cls-6" d="M305.53,271.94c-2.69-2.78-7.51,11.16-4.53,13.72,14.55,12.58,55.8,22.02,58.39,15.88,2.01-4.74-39.45-14.63-53.86-29.6Z" fill="#d44f00"></path><path class="cls-6" d="M34.88,323.11c10.49-12.1,59.76-60.25,44.61-61.69-13.06-1.29-64.13,84.23-44.61,61.69Z" fill="#d44f00"></path><path class="cls-7" d="M147.16,234.28c-2.6-6.79-63.63,14.11-69.49,19.54-1.47,1.34.54,23.78,3.11,21.65,10.6-8.66,68.82-34.73,66.37-41.19Z" fill="#e05400"></path><path class="cls-6" d="M141.28,226.69c-4.9-1.72-.89,15.18,4.18,16.55,24.78,6.73,77.38-1.89,76.14-9.53-.95-5.92-54.07,2.3-80.33-7.01Z" fill="#d44f00"></path><path class="cls-6" d="M115.21,364.11c4.45-13.97,27.93-71.3,15.95-69.21-10.34,1.77-24.22,95.22-15.95,69.21Z" fill="#d44f00"></path><path class="cls-6" d="M162.87,250.04c-4.23-.52,3.76,14.72,8.04,14.87,20.86.75,58.45-19.53,55.26-26.56-2.45-5.44-40.54,14.58-63.3,11.7Z" fill="#d44f00"></path><path class="cls-7" d="M199.35,273.31c-5.79-4.2-31.91,41.57-32.34,48.68-.12,1.77,14.77,18.7,15.13,15.79,1.48-11.96,22.67-60.5,17.21-64.47Z" fill="#e05400"></path><path class="cls-6" d="M191,270.05c-4.16.96,8.64,12.54,12.69,11.2,19.86-6.45,48.09-38.4,42.64-43.91-4.18-4.27-32.98,27.61-55.33,32.71Z" fill="#d44f00"></path><path class="cls-6" d="M261.2,319.52c10.38-8.74,35.83-13.56,25.1-18.39-9.26-4.19-45.39,35.44-25.1,18.39Z" fill="#d44f00"></path><path class="cls-7" d="M314.16,303.67c.53-5.97-20.19-11.79-26.49-8.96-1.6.69-8.18,18.82-5.5,17.79,10.99-4.24,31.48-3.16,31.99-8.83Z" fill="#e05400"></path><path class="cls-6" d="M312.53,296.27c-3.02-2.54-6.14,11.72-2.86,14.05,15.99,11.33,58.15,17.38,59.99,11.07,1.43-4.91-40.98-11.39-57.13-25.11Z" fill="#d44f00"></path><path class="cls-6" d="M259.34,353.26c6.53-11.08,28.83-22.5,16.83-24.18-10.35-1.48-29.62,45.84-16.83,24.18Z" fill="#d44f00"></path><path class="cls-7" d="M303.53,323.98c-1.75-5.81-23.59-5.75-28.48-1.37-1.24,1.09-.63,20.07,1.52,18.35,8.82-6.97,28.64-11.47,26.97-16.98Z" fill="#e05400"></path><path class="cls-6" d="M299.21,317.39c-3.82-1.6-1.38,12.77,2.59,14.08,19.41,6.44,61.66.82,61.01-5.67-.49-5.01-43.13.26-63.6-8.41Z" fill="#d44f00"></path><path class="cls-6" d="M273.55,361.09c10.56-8.62,36.12-13.16,25.49-18.1-9.17-4.3-46.14,34.92-25.49,18.1Z" fill="#d44f00"></path><path class="cls-7" d="M326.86,345.82c.66-5.95-19.96-12-26.32-9.25-1.6.68-8.56,18.75-5.86,17.73,11.08-4.11,31.56-2.82,32.18-8.48Z" fill="#e05400"></path><path class="cls-6" d="M325.39,338.42c-2.98-2.58-6.37,11.64-3.15,13.99,15.76,11.51,57.8,18,59.78,11.72,1.53-4.86-40.77-11.83-56.63-25.71Z" fill="#d44f00"></path><path class="cls-6" d="M250.39,376.29c13.55-4.74,39.29-1.01,31.52-8.93-6.7-6.85-57.97,18.15-31.52,8.93Z" fill="#d44f00"></path><path class="cls-7" d="M306.57,378.66c3.17-5.33-13.4-17.38-20.51-16.79-1.77.15-16.03,14.77-13.07,14.68,12.07-.38,30.58,7.2,33.59,2.12Z" fill="#e05400"></path><path class="cls-6" d="M308.4,371.31c-1.66-3.32-10.94,8.86-8.95,12.04,9.72,15.61,46.05,34.74,50.59,29.51,3.52-4.07-32.85-23.7-41.64-41.55Z" fill="#d44f00"></path><path class="cls-1" d="M82.18,146.82C-137.35,9.43,242.57-43.75,423.73,76.56,204.8-71.98-141.6,19.3,70.19,149.74c4.57-2.01,11.99-2.93,11.99-2.93Z" fill="#b04100"></path><path class="cls-1" d="M94.99,146.47C-95.05,12.87,252.43-6.03,408.82,110.18,220.01-32.96-99.54,21.06,83.95,148.15c4.27-1.42,11.04-1.67,11.04-1.67Z" fill="#b04100"></path><path class="cls-4" d="M507.8,316.15c5.2-10.42-16.9-67.17-33.55-78.35.11-13.03-32.67-46.58-45.71-48.98-79.79-90.16-479.09-55.18-342.48-17.4,90.58,25.06,112.03,101.67,247.56,93.83,0,0-27.4,35.95,25.6,53.21-6.53,1.31-21.32,18.1-4.33,35.32-7.79,4.8-14.25,21.07-6.14,30.76-9.18-.91-30.4,9.51-29.84,25.22-7.36,5.84-70.89,4.05-107.48-18.83,0,0-40.18,10.86-41.11,21.15,1.04,45.22,90.17,98.25,107.25,90.88,16.5,18.24,115.1,6.58,124.07-14.52,21.13-2.85,77.07-56.17,76.37-69.42,21.91-9.75,43.29-86.83,29.78-102.88Z" fill="url(#1777677194280-4608941_radial-gradient)"></path><path class="cls-1" d="M472.54,231.39c-21.87,72.12-113.32,87.07-113.32,87.07,0,0,85.85-4.81,119.01-77.25-.49-5.03-5.69-9.81-5.69-9.81Z" fill="#b04100"></path><path class="cls-1" d="M424.6,184.71c-21.87,72.12-90.98,80.53-90.98,80.53,0,0,66.57-2.2,99.74-74.63-.49-5.03-8.76-5.9-8.76-5.9Z" fill="#b04100"></path><path class="cls-1" d="M508.49,309.59c-53.08,46.92-153.6,44.19-153.6,44.19,0,0,88.65,13.8,155.41-32.9,1.41-4.87-1.81-11.29-1.81-11.29Z" fill="#b04100"></path><path class="cls-1" d="M483.19,415.47c-59.83,3.43-134.44-30.93-134.44-30.93,0,0,55.75,36.85,127.25,40.75,4.45-3.11,7.19-9.81,7.19-9.81Z" fill="#b04100"></path><path class="cls-1" d="M409.06,486.11c-32.29-40.2-90.14-76.35-90.14-76.35,0,0,67.03,56.55,79.71,82.85,5.67-.31,10.43-6.5,10.43-6.5Z" fill="#b04100"></path><path class="cls-5" d="M220.97,407.16c-4.3-111.97-73-199.01-83.76-142.47-15.6,6.23-14.63,22.15-7.99,30.04-20.69,15.2,2.04,35.53,8.41,46.97-25.87,18.73,13.72,42.65,36.69,83.53,11.14,19.86,46.81-13.77,46.64-18.07Z" fill="url(#1777677194280-4608941_linear-gradient)"></path><path class="cls-8" d="M223.34,201.78c-33.55,0-33.55-52.04,0-52.04s33.55,52.04,0,52.04Z" fill="#302c3b"></path><path id="1777677194280-4608941_Shape" class="cls-2" d="M218.87,166.7c0,9.05-14.07,9.05-14.07,0s14.07-9.09,14.07,0h0Z" fill="#6e8189"></path><path class="cls-3" d="M137.64,341.69s25.57,39.6,48.37,77.6c-17.6-44.94-48.37-77.6-48.37-77.6Z" fill="#ad4000"></path><path class="cls-3" d="M129.23,294.73s41.62,57.46,69.32,112.84c-27.7-68.35-69.32-112.84-69.32-112.84Z" fill="#ad4000"></path><path class="cls-3" d="M137.21,264.7s44.62,57.27,72.18,129.36c-23.38-81.51-72.18-129.36-72.18-129.36Z" fill="#ad4000"></path></g></svg>