<svg data-name="Layer 1" xmlns="http://www.w3.org/2000/svg" style="" viewBox="0 0 512 512"><g class="nc-icon-wrapper"><defs><radialGradient id="1777821157745-2598017_radial-gradient" cx="32.13" cy="271.71" fx="32.13" fy="271.71" r="231.87" gradientTransform="scale(1 -1) rotate(45 776.325 272.504)" gradientUnits="userSpaceOnUse"><stop offset="0" stop-color="#b3c2c6"></stop><stop offset=".3" stop-color="#bac7cb"></stop><stop offset=".72" stop-color="#ccd5d9"></stop><stop offset="1" stop-color="#dde2e6"></stop></radialGradient><radialGradient id="1777821157745-2598017_radial-gradient-2" cx="428.78" cy="448.86" fx="428.78" fy="448.86" r="231.87" gradientTransform="scale(1 -1) rotate(-45 -501.19 307.33)" gradientUnits="userSpaceOnUse"><stop offset="0" stop-color="#b3c2c6"></stop><stop offset=".3" stop-color="#bac7cb"></stop><stop offset=".72" stop-color="#ccd5d9"></stop><stop offset="1" stop-color="#dde2e6"></stop></radialGradient><linearGradient id="1777821157745-2598017_linear-gradient" x1="287.56" y1="195.73" x2="287.56" y2="281.31" gradientTransform="scale(1 -1) rotate(45 774.558 272.883)" gradientUnits="userSpaceOnUse"><stop offset="0" stop-color="#d8dde0"></stop><stop offset=".46" stop-color="#d5dbde"></stop><stop offset=".75" stop-color="#cdd4d7"></stop><stop offset="1" stop-color="#bec9cc"></stop><stop offset="1" stop-color="#bec9cc"></stop></linearGradient><linearGradient id="1777821157745-2598017_linear-gradient-2" x1="-216.43" y1="190.69" x2="-216.43" y2="278.66" gradientTransform="scale(1 -1) rotate(45 774.558 272.883)" gradientUnits="userSpaceOnUse"><stop offset="0" stop-color="#d8dde0"></stop><stop offset=".46" stop-color="#d5dbde"></stop><stop offset=".75" stop-color="#cdd4d7"></stop><stop offset="1" stop-color="#bec9cc"></stop><stop offset="1" stop-color="#bec9cc"></stop></linearGradient><linearGradient id="1777821157745-2598017_linear-gradient-3" x1="685.2" y1="372.86" x2="685.2" y2="458.44" gradientTransform="scale(1 -1) rotate(-45 -499.645 305.24)" gradientUnits="userSpaceOnUse"><stop offset="0" stop-color="#d8dde0"></stop><stop offset=".46" stop-color="#d5dbde"></stop><stop offset=".75" stop-color="#cdd4d7"></stop><stop offset="1" stop-color="#bec9cc"></stop><stop offset="1" stop-color="#bec9cc"></stop></linearGradient><linearGradient id="1777821157745-2598017_linear-gradient-4" x1="181.2" y1="367.84" x2="181.2" y2="455.8" gradientTransform="scale(1 -1) rotate(-45 -499.645 305.24)" gradientUnits="userSpaceOnUse"><stop offset="0" stop-color="#d8dde0"></stop><stop offset=".46" stop-color="#d5dbde"></stop><stop offset=".75" stop-color="#cdd4d7"></stop><stop offset="1" stop-color="#bec9cc"></stop><stop offset="1" stop-color="#bec9cc"></stop></linearGradient><radialGradient id="1777821157745-2598017_radial-gradient-3" cx="261.89" cy="301.86" fx="261.89" fy="301.86" r="83.4" gradientTransform="matrix(.98 0 0 -1.79 -1.77 889.48)" gradientUnits="userSpaceOnUse"><stop offset="0" stop-color="#f7fafc"></stop><stop offset=".21" stop-color="#f3f6f8"></stop><stop offset=".42" stop-color="#e7ebed"></stop><stop offset=".63" stop-color="#d2d7da"></stop><stop offset=".84" stop-color="#b6bcbf"></stop><stop offset="1" stop-color="#9ba3a6"></stop></radialGradient><radialGradient id="1777821157745-2598017_radial-gradient-4" cx="256.28" cy="1.06" fx="256.28" fy="1.06" r="68.02" gradientTransform="matrix(1 0 0 -.76 -.29 402.28)" gradientUnits="userSpaceOnUse"><stop offset="0" stop-color="#1a1626"></stop><stop offset="1" stop-color="#1a1626" stop-opacity="0"></stop></radialGradient><radialGradient id="1777821157745-2598017_radial-gradient-5" cx="256.29" cy="282.94" fx="256.29" fy="282.94" r="168.98" gradientTransform="matrix(1 0 0 -1 -.29 514)" gradientUnits="userSpaceOnUse"><stop offset="0" stop-color="#f7fafc"></stop><stop offset=".46" stop-color="#f5f8fa"></stop><stop offset=".62" stop-color="#eef2f4"></stop><stop offset=".74" stop-color="#e3e7e9"></stop><stop offset=".83" stop-color="#d2d7da"></stop><stop offset=".91" stop-color="#bcc2c6"></stop><stop offset=".98" stop-color="#a1aaad"></stop><stop offset="1" stop-color="#99a2a6"></stop></radialGradient><linearGradient id="1777821157745-2598017_linear-gradient-5" x1="397.84" y1="217.87" x2="366.54" y2="311.78" gradientTransform="matrix(1 0 0 -1 0 514)" gradientUnits="userSpaceOnUse"><stop offset="0" stop-color="#99a2a6" stop-opacity=".3"></stop><stop offset=".82" stop-color="#99a2a6" stop-opacity="0"></stop></linearGradient><linearGradient id="1777821157745-2598017_linear-gradient-6" x1="319.18" y1="217.86" x2="287.88" y2="311.78" gradientTransform="rotate(-180 216.67 257)" gradientUnits="userSpaceOnUse"><stop offset="0" stop-color="#99a2a6" stop-opacity=".3"></stop><stop offset=".82" stop-color="#99a2a6" stop-opacity="0"></stop></linearGradient><radialGradient id="1777821157745-2598017_radial-gradient-6" cx="257.52" cy="231.22" fx="257.52" fy="231.22" r="26.88" gradientTransform="matrix(1 0 0 -1.32 -3.15 674.94)" gradientUnits="userSpaceOnUse"><stop offset="0" stop-color="#4e5e67"></stop><stop offset=".36" stop-color="#4c5b65"></stop><stop offset=".6" stop-color="#47535d"></stop><stop offset=".8" stop-color="#3e4450"></stop><stop offset=".98" stop-color="#322f3e"></stop><stop offset="1" stop-color="#302c3b"></stop></radialGradient><radialGradient id="1777821157745-2598017_radial-gradient-7" cx="204" cy="166.46" fx="204" fy="166.46" r="41.7" gradientTransform="matrix(-1.07 0 0 -1.02 533.74 480.2)" gradientUnits="userSpaceOnUse"><stop offset="0" stop-color="#4e5e67"></stop><stop offset=".36" stop-color="#4c5b65"></stop><stop offset=".6" stop-color="#47535d"></stop><stop offset=".8" stop-color="#3e4450"></stop><stop offset=".98" stop-color="#322f3e"></stop><stop offset="1" stop-color="#302c3b"></stop></radialGradient><radialGradient id="1777821157745-2598017_radial-gradient-8" cx="290.32" cy="166.46" fx="290.32" fy="166.46" r="41.71" gradientTransform="matrix(1.07 0 0 -1.02 -114.49 480.2)" gradientUnits="userSpaceOnUse"><stop offset="0" stop-color="#4e5e67"></stop><stop offset=".36" stop-color="#4c5b65"></stop><stop offset=".6" stop-color="#47535d"></stop><stop offset=".8" stop-color="#3e4450"></stop><stop offset=".98" stop-color="#322f3e"></stop><stop offset="1" stop-color="#302c3b"></stop></radialGradient><linearGradient id="1777821157745-2598017_linear-gradient-7" x1="358.66" y1="104.87" x2="362.73" y2="127.42" gradientTransform="rotate(-169.78 299.622 270.248)" gradientUnits="userSpaceOnUse"><stop offset=".08" stop-color="#a0a4a6"></stop><stop offset=".21" stop-color="#aeb1b3"></stop><stop offset=".47" stop-color="#c1c3c5"></stop><stop offset=".73" stop-color="#ccced0"></stop><stop offset="1" stop-color="#d0d2d4"></stop></linearGradient><linearGradient id="1777821157745-2598017_linear-gradient-8" x1="353" y1="99.46" x2="356.06" y2="121.3" gradientTransform="rotate(-172.02 297.368 267.217)" gradientUnits="userSpaceOnUse"><stop offset=".08" stop-color="#a5aaab"></stop><stop offset=".26" stop-color="#babdbf"></stop><stop offset=".5" stop-color="#cdd0d1"></stop><stop offset=".74" stop-color="#d8dadc"></stop><stop offset="1" stop-color="#dcdee0"></stop></linearGradient><linearGradient id="1777821157745-2598017_linear-gradient-9" x1="343.03" y1="98.66" x2="346.21" y2="120.82" gradientTransform="rotate(-171.85 297.514 267.507)" gradientUnits="userSpaceOnUse"><stop offset=".08" stop-color="#a0a4a6"></stop><stop offset=".21" stop-color="#aeb1b3"></stop><stop offset=".47" stop-color="#c1c3c5"></stop><stop offset=".73" stop-color="#ccced0"></stop><stop offset="1" stop-color="#d0d2d4"></stop></linearGradient><linearGradient id="1777821157745-2598017_linear-gradient-10" x1="333.95" y1="94.49" x2="336.68" y2="116.86" gradientTransform="rotate(-173.04 296.303 265.586)" gradientUnits="userSpaceOnUse"><stop offset=".08" stop-color="#b8bdbf"></stop><stop offset=".21" stop-color="#c6cacc"></stop><stop offset=".47" stop-color="#d9dcde"></stop><stop offset=".73" stop-color="#e4e7e9"></stop><stop offset="1" stop-color="#e8ebed"></stop></linearGradient><linearGradient id="1777821157745-2598017_linear-gradient-11" x1="329.66" y1="81.45" x2="329.66" y2="103.36" gradientTransform="rotate(-180 289.07 257)" gradientUnits="userSpaceOnUse"><stop offset=".08" stop-color="#b8bdbf"></stop><stop offset=".21" stop-color="#c6cacc"></stop><stop offset=".47" stop-color="#d9dcde"></stop><stop offset=".73" stop-color="#e4e7e9"></stop><stop offset="1" stop-color="#e8ebed"></stop></linearGradient><linearGradient id="1777821157745-2598017_linear-gradient-12" x1="565.75" y1="67.51" x2="569.81" y2="90.07" gradientTransform="scale(1 -1) rotate(10.22 3172.895 -1664.458)" gradientUnits="userSpaceOnUse"><stop offset=".08" stop-color="#a0a4a6"></stop><stop offset=".21" stop-color="#aeb1b3"></stop><stop offset=".47" stop-color="#c1c3c5"></stop><stop offset=".73" stop-color="#ccced0"></stop><stop offset="1" stop-color="#d0d2d4"></stop></linearGradient><linearGradient id="1777821157745-2598017_linear-gradient-13" x1="561.4" y1="70.25" x2="564.46" y2="92.09" gradientTransform="scale(1 -1) rotate(7.98 3981.775 -2101.582)" gradientUnits="userSpaceOnUse"><stop offset=".08" stop-color="#a5aaab"></stop><stop offset=".26" stop-color="#babdbf"></stop><stop offset=".5" stop-color="#cdd0d1"></stop><stop offset=".74" stop-color="#d8dadc"></stop><stop offset="1" stop-color="#dcdee0"></stop></linearGradient><linearGradient id="1777821157745-2598017_linear-gradient-14" x1="551.33" y1="68.82" x2="554.51" y2="90.98" gradientTransform="scale(1 -1) rotate(8.15 3905.673 -2059.646)" gradientUnits="userSpaceOnUse"><stop offset=".08" stop-color="#b8bdbf"></stop><stop offset=".21" stop-color="#c6cacc"></stop><stop offset=".47" stop-color="#d9dcde"></stop><stop offset=".73" stop-color="#e4e7e9"></stop><stop offset="1" stop-color="#e8ebed"></stop></linearGradient><linearGradient id="1777821157745-2598017_linear-gradient-15" x1="542.83" y1="68.99" x2="545.56" y2="91.36" gradientTransform="scale(1 -1) rotate(6.96 4518.097 -2392.908)" gradientUnits="userSpaceOnUse"><stop offset=".08" stop-color="#a0a4a6"></stop><stop offset=".21" stop-color="#aeb1b3"></stop><stop offset=".47" stop-color="#c1c3c5"></stop><stop offset=".73" stop-color="#ccced0"></stop><stop offset="1" stop-color="#d0d2d4"></stop></linearGradient><linearGradient id="1777821157745-2598017_linear-gradient-16" x1="540.09" y1="81.45" x2="540.09" y2="103.36" gradientTransform="matrix(1 0 0 -1 -276.58 514)" gradientUnits="userSpaceOnUse"><stop offset=".08" stop-color="#b8bdbf"></stop><stop offset=".21" stop-color="#c6cacc"></stop><stop offset=".47" stop-color="#d9dcde"></stop><stop offset=".73" stop-color="#e4e7e9"></stop><stop offset="1" stop-color="#e8ebed"></stop></linearGradient><linearGradient id="1777821157745-2598017_linear-gradient-17" x1="371.64" y1="109.31" x2="371.64" y2="128.73" gradientTransform="rotate(-180 289.07 257)" gradientUnits="userSpaceOnUse"><stop offset="0" stop-color="#d0d2d4"></stop><stop offset=".27" stop-color="#ccced0"></stop><stop offset=".53" stop-color="#c1c3c5"></stop><stop offset=".79" stop-color="#aeb1b3"></stop><stop offset=".92" stop-color="#a0a4a6"></stop></linearGradient><linearGradient id="1777821157745-2598017_linear-gradient-18" x1="362" y1="105.69" x2="362" y2="126.58" gradientTransform="rotate(-180 289.07 257)" gradientUnits="userSpaceOnUse"><stop offset="0" stop-color="#dcdee0"></stop><stop offset=".26" stop-color="#d8dadc"></stop><stop offset=".5" stop-color="#cdd0d1"></stop><stop offset=".74" stop-color="#babdbf"></stop><stop offset=".92" stop-color="#a5aaab"></stop></linearGradient><linearGradient id="1777821157745-2598017_linear-gradient-19" x1="348.48" y1="100.47" x2="348.48" y2="124.77" gradientTransform="rotate(-180 289.07 257)" gradientUnits="userSpaceOnUse"><stop offset="0" stop-color="#ebeef0"></stop><stop offset=".25" stop-color="#e7eaec"></stop><stop offset=".48" stop-color="#dce0e2"></stop><stop offset=".71" stop-color="#c9cdcf"></stop><stop offset=".92" stop-color="#b0b6b8"></stop></linearGradient><linearGradient id="1777821157745-2598017_linear-gradient-20" x1="331.2" y1="96.61" x2="331.2" y2="123.2" gradientTransform="rotate(-180 289.07 257)" gradientUnits="userSpaceOnUse"><stop offset="0" stop-color="#dcdee0"></stop><stop offset=".26" stop-color="#d8dadc"></stop><stop offset=".5" stop-color="#cdd0d1"></stop><stop offset=".74" stop-color="#babdbf"></stop><stop offset=".92" stop-color="#a5aaab"></stop></linearGradient><linearGradient id="1777821157745-2598017_linear-gradient-21" x1="582.07" y1="109.31" x2="582.07" y2="128.73" gradientTransform="matrix(1 0 0 -1 -276.58 514)" gradientUnits="userSpaceOnUse"><stop offset="0" stop-color="#d0d2d4"></stop><stop offset=".27" stop-color="#ccced0"></stop><stop offset=".53" stop-color="#c1c3c5"></stop><stop offset=".79" stop-color="#aeb1b3"></stop><stop offset=".92" stop-color="#a0a4a6"></stop></linearGradient><linearGradient id="1777821157745-2598017_linear-gradient-22" x1="572.42" y1="105.69" x2="572.42" y2="126.58" gradientTransform="matrix(1 0 0 -1 -276.58 514)" gradientUnits="userSpaceOnUse"><stop offset="0" stop-color="#d0d2d4"></stop><stop offset=".27" stop-color="#ccced0"></stop><stop offset=".53" stop-color="#c1c3c5"></stop><stop offset=".79" stop-color="#aeb1b3"></stop><stop offset=".92" stop-color="#a0a4a6"></stop></linearGradient><linearGradient id="1777821157745-2598017_linear-gradient-23" x1="558.9" y1="100.47" x2="558.9" y2="124.77" gradientTransform="matrix(1 0 0 -1 -276.58 514)" gradientUnits="userSpaceOnUse"><stop offset="0" stop-color="#ebeef0"></stop><stop offset=".25" stop-color="#e7eaec"></stop><stop offset=".48" stop-color="#dce0e2"></stop><stop offset=".71" stop-color="#c9cdcf"></stop><stop offset=".92" stop-color="#b0b6b8"></stop></linearGradient><linearGradient id="1777821157745-2598017_linear-gradient-24" x1="541.63" y1="96.61" x2="541.63" y2="123.2" gradientTransform="matrix(1 0 0 -1 -276.58 514)" gradientUnits="userSpaceOnUse"><stop offset="0" stop-color="#f2f5f7"></stop><stop offset=".25" stop-color="#eef1f3"></stop><stop offset=".49" stop-color="#e3e6e8"></stop><stop offset=".72" stop-color="#d0d4d6"></stop><stop offset=".92" stop-color="#b8bdbf"></stop></linearGradient></defs><path class="cls-4" d="M454.58,45.45c-45.2-96.3-121.09-17.3-82.29,42.68,7.94,12.28-273.19,280.7-285.1,275.49-100.75-43.94-118.63,134.98-30.25,116.51,12.32,64.23,107.52,25,76.54-70.68-3.29-10.07,265.54-273.67,278.34-268.92,78.83,29.42,156.77-105.15,42.75-95.08Z" fill-rule="evenodd" fill="url(#1777821157745-2598017_radial-gradient)"></path><path class="cls-6" d="M466.56,454.58c96.3-45.22,17.28-121.09-42.69-82.29-12.28,7.94-280.7-273.19-275.48-285.1C192.34-13.55,13.42-31.45,31.88,56.95c-64.23,12.31-25,107.5,70.68,76.53,10.07-3.28,273.66,265.54,268.9,278.35-29.4,78.83,105.18,156.77,95.1,42.75Z" fill-rule="evenodd" fill="url(#1777821157745-2598017_radial-gradient-2)"></path><path class="cls-5" d="M454.58,45.45c-35.74,3.15-66.37,86.28-42.75,95.08,78.83,29.42,156.77-105.15,42.75-95.08Z" fill-rule="evenodd" fill="url(#1777821157745-2598017_linear-gradient)"></path><path class="cls-1" d="M56.94,480.13c12.32,64.23,107.52,25,76.54-70.68-10.6-32.79-88.85,6.36-76.54,70.68Z" fill="url(#1777821157745-2598017_linear-gradient-2)" fill-rule="evenodd"></path><path class="cls-2" d="M466.56,454.58c-3.16-35.74-86.27-66.37-95.1-42.75-29.39,78.83,105.18,156.77,95.1,42.75Z" fill-rule="evenodd" fill="url(#1777821157745-2598017_linear-gradient-3)"></path><path class="cls-3" d="M31.88,56.95c-64.23,12.31-24.98,107.51,70.68,76.53,32.78-10.6-6.37-88.85-70.68-76.53Z" fill-rule="evenodd" fill="url(#1777821157745-2598017_linear-gradient-4)"></path><path class="cls-12" d="M165.34,352.17c6.5,13.21,11.46,36.86,11.3,49.87-.11,10.16,7.06,11.07,13.76,22.55,7.36,12.65,24.61,29.81,65.6,29.81s58.22-17.16,65.59-29.8c6.7-11.49,13.86-12.4,13.77-22.55-.15-13.01,4.79-36.66,11.3-49.87.92-1.86-182.26-1.86-181.33,0Z" fill="url(#1777821157745-2598017_radial-gradient-3)"></path><path class="cls-10" d="M194.42,371.67c4.42,9.69,7.78,30.85,7.67,40.38-.07,7.46,26.06,19.11,53.9,19.11s53.98-11.66,53.9-19.11c-.11-9.53,3.25-30.7,7.67-40.38.63-1.37-123.78-1.37-123.14,0Z" fill="url(#1777821157745-2598017_radial-gradient-4)"></path><path class="cls-9" d="M256,91.74c-101.95,0-178.97,80.8-129.9,209.12-2.6,62.82,53.19,50.98,70.26,81.53,5.04,9.01,59.63,12.94,59.63,12.94,0,0,54.58-3.93,59.62-12.94,17.09-30.55,72.88-18.72,70.27-81.53,49.08-128.33-27.95-209.12-129.89-209.12Z" fill="url(#1777821157745-2598017_radial-gradient-5)"></path><path class="cls-15" d="M346.47,245.76c7.73,19.29,28.13,21.47,39.42,55.1,19.96-52.18,19.06-96.5,4.11-130.73-37.78-45.18-60.62,32.94-43.54,75.63Z" fill="url(#1777821157745-2598017_linear-gradient-5)"></path><path class="cls-16" d="M165.52,245.76c-7.71,19.29-28.11,21.47-39.42,55.1-19.96-52.18-19.05-96.5-4.11-130.73,37.77-45.18,60.62,32.94,43.53,75.63Z" fill="url(#1777821157745-2598017_linear-gradient-6)"></path><path class="cls-8" d="M256,325.55c-18.26,0-28.76,57.04,0,31.58,28.74,25.46,18.25-31.58,0-31.58Z" fill="url(#1777821157745-2598017_radial-gradient-6)"></path><path class="cls-7" d="M289.11,263.51c15.59-12.53,62.15-10.98,72.74,15.05,25.55,62.84-53.24,61.56-83.02,32.42-4.01-3.94-7.66-33.01,10.29-47.46Z" fill="url(#1777821157745-2598017_radial-gradient-7)"></path><path class="cls-11" d="M222.89,263.51c-15.59-12.53-62.15-10.98-72.74,15.05-25.55,62.84,53.24,61.56,83.02,32.42,4.02-3.94,7.66-33.01-10.29-47.46Z" fill="url(#1777821157745-2598017_radial-gradient-8)"></path><path class="cls-14" d="M205.7,417.87c-1.69,3.01,9.08,6.1,8.43,3.9-2.22-7.66,7.06-13.55,5.55-17.85-1.53-4.34-11.61-5.81-14.54-2.56-2.29,2.54,2.75,12.59.55,16.51Z" fill="url(#1777821157745-2598017_linear-gradient-7)"></path><path class="cls-13" d="M214.14,421.77c-1.63,3.07,9.21,5.14,8.48,2.96-2.52-7.58,5.47-12.94,3.79-17.17-1.7-4.27-11.83-5.35-14.63-2.01-2.19,2.62,4.5,12.2,2.36,16.22Z" fill="url(#1777821157745-2598017_linear-gradient-8)"></path><path class="cls-17" d="M222.62,424.73c-1.64,3.06,10.49,4.62,9.75,2.43-2.5-7.57,5.27-13.13,3.61-17.36-1.68-4.28-11.82-5.4-14.61-2.04-2.21,2.62,3.39,12.96,1.25,16.97Z" fill="url(#1777821157745-2598017_linear-gradient-9)"></path><path class="cls-18" d="M232.36,427.16c-1.57,3.11,11.83,4.9,11.06,2.74-2.66-7.52,3.98-13.54,2.22-17.75-1.77-4.25-11.92-5.15-14.66-1.75-2.14,2.66,3.44,12.73,1.38,16.77Z" fill="url(#1777821157745-2598017_linear-gradient-10)"></path><path class="cls-19" d="M243.42,429.89c-1.18,3.26,13.61,3.33,12.58,1.26-3.58-7.16,2.02-13.66-.23-17.62-2.28-4.01-12.49-3.7-14.77,0-1.79,2.92,3.98,12.1,2.42,16.36Z" fill="url(#1777821157745-2598017_linear-gradient-11)"></path><path class="cls-20" d="M306.28,417.87c1.69,3.01-9.07,6.1-8.43,3.9,2.22-7.66-7.06-13.55-5.55-17.85,1.53-4.34,11.61-5.81,14.54-2.56,2.29,2.54-2.74,12.59-.56,16.51Z" fill="url(#1777821157745-2598017_linear-gradient-12)"></path><path class="cls-21" d="M297.85,421.77c1.63,3.07-9.2,5.14-8.48,2.96,2.53-7.58-5.47-12.94-3.78-17.17,1.69-4.27,11.83-5.35,14.62-2.01,2.2,2.62-4.49,12.2-2.36,16.22Z" fill="url(#1777821157745-2598017_linear-gradient-13)"></path><path class="cls-23" d="M289.38,424.73c1.64,3.06-10.49,4.62-9.75,2.43,2.5-7.57-5.27-13.13-3.61-17.36,1.68-4.28,11.82-5.4,14.62-2.04,2.2,2.62-3.4,12.96-1.26,16.97Z" fill="url(#1777821157745-2598017_linear-gradient-14)"></path><path class="cls-28" d="M279.62,427.16c1.58,3.11-11.83,4.9-11.05,2.74,2.66-7.52-3.99-13.54-2.23-17.75,1.77-4.25,11.92-5.15,14.66-1.75,2.14,2.66-3.44,12.73-1.38,16.77Z" fill="url(#1777821157745-2598017_linear-gradient-15)"></path><path class="cls-29" d="M268.58,429.89c1.17,3.26-13.62,3.33-12.58,1.26,3.58-7.16-2.02-13.66.23-17.62,2.29-4.01,12.48-3.7,14.77,0,1.8,2.92-3.96,12.1-2.42,16.36Z" fill="url(#1777821157745-2598017_linear-gradient-16)"></path><path class="cls-30" d="M201.65,402.4c1.3,2.47,9.53,2.85,10.03,1.58,1.39-3.5-1.9-8.22-.5-15.09.57-2.74-11.83-5.2-10.02-2.37,3.16,4.92-1.78,11.61.49,15.87Z" fill="url(#1777821157745-2598017_linear-gradient-17)"></path><path class="cls-31" d="M210.71,405.96c1.3,2.58,10.57,2.91,11.07,1.59,1.38-3.68-2.26-10.26-.52-15.55.9-2.78-11.9-6.46-10.09-3.47,3.16,5.14-2.73,12.96-.46,17.43Z" fill="url(#1777821157745-2598017_linear-gradient-18)"></path><path class="cls-22" d="M222.7,409.91c3.05,3.77,13.63,4.54,14.93,2.56,2.54-3.9-3.22-12,0-18.22,2.57-4.94-19.06-6.9-16.38-2.83,3.37,5.06-1.66,14.65,1.45,18.49Z" fill="url(#1777821157745-2598017_linear-gradient-19)"></path><path class="cls-25" d="M238.64,413.64c2.4,3.6,17.01,5.02,17.45,2.39,1.38-8.26-2.53-12.42-.09-19.58,1.63-4.8-19.77-8.01-18.36-3.49,2.06,6.62-1.98,16.22,1,20.67Z" fill="url(#1777821157745-2598017_linear-gradient-20)"></path><path class="cls-24" d="M310.34,402.4c-1.3,2.47-9.53,2.85-10.03,1.58-1.39-3.5,1.9-8.22.5-15.09-.57-2.74,11.83-5.2,10.02-2.37-3.16,4.92,1.78,11.61-.49,15.87Z" fill="url(#1777821157745-2598017_linear-gradient-21)"></path><path class="cls-26" d="M301.27,405.96c-1.3,2.58-10.57,2.91-11.06,1.59-1.38-3.68,2.25-10.26.51-15.55-.9-2.78,11.9-6.46,10.09-3.47-3.15,5.14,2.73,12.96.46,17.43Z" fill="url(#1777821157745-2598017_linear-gradient-22)"></path><path class="cls-27" d="M289.28,409.91c-3.04,3.77-13.63,4.54-14.93,2.56-2.54-3.9,3.22-12,0-18.22-2.57-4.94,19.06-6.9,16.38-2.83-3.35,5.06,1.67,14.65-1.45,18.49Z" fill="url(#1777821157745-2598017_linear-gradient-23)"></path><path class="cls-32" d="M273.35,413.64c-2.4,3.6-17,5.02-17.44,2.39-1.38-8.26,2.53-12.42.09-19.58-1.63-4.8,19.76-8.01,18.35-3.49-2.07,6.62,1.98,16.22-1,20.67Z" fill="url(#1777821157745-2598017_linear-gradient-24)"></path></g></svg>