<svg data-name="Layer 1" xmlns="http://www.w3.org/2000/svg" style="" viewBox="0 0 511.99 512"><g class="nc-icon-wrapper"><defs><linearGradient id="1776585740044-1419271_linear-gradient" x1="421.16" y1="13.16" x2="421.16" y2="339.44" gradientTransform="matrix(1 0 0 -1 0 514)" gradientUnits="userSpaceOnUse"><stop offset="0" stop-color="#e6b165"></stop><stop offset=".19" stop-color="#e2ae63"></stop><stop offset=".37" stop-color="#d7a55d"></stop><stop offset=".54" stop-color="#c59653"></stop><stop offset=".7" stop-color="#ab8144"></stop><stop offset=".86" stop-color="#8a6632"></stop><stop offset="1" stop-color="#66491e"></stop></linearGradient><linearGradient id="1776585740044-1419271_linear-gradient-2" x1="150.5" y1="287.02" x2="261.85" y2="-44.78" gradientTransform="matrix(1 0 0 -1 0 514)" gradientUnits="userSpaceOnUse"><stop offset="0" stop-color="#66491e"></stop><stop offset=".14" stop-color="#8a6632"></stop><stop offset=".3" stop-color="#ab8144"></stop><stop offset=".46" stop-color="#c59653"></stop><stop offset=".63" stop-color="#d7a55d"></stop><stop offset=".81" stop-color="#e2ae63"></stop><stop offset="1" stop-color="#e6b165"></stop></linearGradient><linearGradient id="1776585740044-1419271_linear-gradient-3" x1="7.53" y1="123.9" x2="168.22" y2="123.9" gradientTransform="matrix(1 0 0 -1 0 514)" gradientUnits="userSpaceOnUse"><stop offset="0" stop-color="#a8887b"></stop><stop offset=".02" stop-color="#a7877a"></stop><stop offset=".68" stop-color="#72574c"></stop><stop offset="1" stop-color="#5e453a"></stop></linearGradient><linearGradient id="1776585740044-1419271_linear-gradient-4" x1="7.53" y1="116.16" x2="75.95" y2="116.16" gradientTransform="matrix(1 0 0 -1 0 514)" gradientUnits="userSpaceOnUse"><stop offset="0" stop-color="#a8887b"></stop><stop offset=".02" stop-color="#a7877a"></stop><stop offset=".68" stop-color="#72574c"></stop><stop offset="1" stop-color="#5e453a"></stop></linearGradient><linearGradient id="1776585740044-1419271_linear-gradient-5" x1="2.78" y1="121.28" x2="38.75" y2="121.28" gradientTransform="matrix(1 0 0 -1 0 514)" gradientUnits="userSpaceOnUse"><stop offset="0" stop-color="#a8887b"></stop><stop offset=".02" stop-color="#a7877a"></stop><stop offset=".68" stop-color="#72574c"></stop><stop offset="1" stop-color="#5e453a"></stop></linearGradient><linearGradient id="1776585740044-1419271_linear-gradient-6" x1="2.79" y1="117.22" x2="20.01" y2="117.22" gradientTransform="matrix(1 0 0 -1 0 514)" gradientUnits="userSpaceOnUse"><stop offset="0" stop-color="#a8887b"></stop><stop offset=".02" stop-color="#a7877a"></stop><stop offset=".68" stop-color="#72574c"></stop><stop offset="1" stop-color="#5e453a"></stop></linearGradient><linearGradient id="1776585740044-1419271_linear-gradient-7" x1="25.07" y1="177.77" x2="311.98" y2="177.77" gradientTransform="matrix(1 0 0 -1 0 514)" gradientUnits="userSpaceOnUse"><stop offset="0" stop-color="#a8887b"></stop><stop offset=".02" stop-color="#a7877a"></stop><stop offset=".68" stop-color="#72574c"></stop><stop offset="1" stop-color="#5e453a"></stop></linearGradient><linearGradient id="1776585740044-1419271_linear-gradient-8" x1="393.32" y1="298.24" x2="393.32" y2="406.59" gradientTransform="matrix(1 0 0 -1 0 514)" gradientUnits="userSpaceOnUse"><stop offset="0" stop-color="#876028"></stop><stop offset=".15" stop-color="#a5793b"></stop><stop offset=".32" stop-color="#c1924d"></stop><stop offset=".5" stop-color="#d6a35a"></stop><stop offset=".68" stop-color="#e2ae62"></stop><stop offset=".85" stop-color="#e6b165"></stop></linearGradient><linearGradient id="1776585740044-1419271_linear-gradient-9" x1="321.34" y1="365.71" x2="321.34" y2="514" gradientTransform="matrix(1 0 0 -1 0 514)" gradientUnits="userSpaceOnUse"><stop offset="0" stop-color="#ffc46f"></stop><stop offset=".11" stop-color="#ffc879"></stop><stop offset=".47" stop-color="#fdd297"></stop><stop offset=".78" stop-color="#fcd9a9"></stop><stop offset="1" stop-color="#fcdbaf"></stop></linearGradient><linearGradient id="1776585740044-1419271_linear-gradient-10" x1="305.53" y1="291.97" x2="343.8" y2="322.13" gradientTransform="matrix(1 0 0 -1 0 514)" gradientUnits="userSpaceOnUse"><stop offset="0" stop-color="#fcdbaf"></stop><stop offset=".22" stop-color="#fcd9a9"></stop><stop offset=".53" stop-color="#fdd297"></stop><stop offset=".89" stop-color="#ffc879"></stop><stop offset="1" stop-color="#ffc46f"></stop></linearGradient><linearGradient id="1776585740044-1419271_linear-gradient-11" x1="-430.46" y1="365.72" x2="-430.46" y2="514" gradientTransform="rotate(-180 17.42 257)" gradientUnits="userSpaceOnUse"><stop offset="0" stop-color="#ffc46f"></stop><stop offset=".11" stop-color="#ffc879"></stop><stop offset=".47" stop-color="#fdd297"></stop><stop offset=".78" stop-color="#fcd9a9"></stop><stop offset="1" stop-color="#fcdbaf"></stop></linearGradient><linearGradient id="1776585740044-1419271_linear-gradient-12" x1="-446.27" y1="291.96" x2="-408" y2="322.13" gradientTransform="rotate(-180 17.42 257)" gradientUnits="userSpaceOnUse"><stop offset="0" stop-color="#fcdbaf"></stop><stop offset=".22" stop-color="#fcd9a9"></stop><stop offset=".53" stop-color="#fdd297"></stop><stop offset=".89" stop-color="#ffc879"></stop><stop offset="1" stop-color="#ffc46f"></stop></linearGradient></defs><path class="cls-12" d="M449.42,480.89c37.15-82.13-22.76-210.01-11.2-279.46,3.34-20.06-57.62,1.81-57.62,1.81,0,0-2.4,266.59,68.82,277.65Z" fill="url(#1776585740044-1419271_linear-gradient)"></path><path class="cls-11" d="M410.8,498.86c8.58-5.46,38.09,7.94,45.2-39.97,5.32-35.89-2.55-76.24-11.44-119.1-10.67-51.46-26.65-110.87-43.24-133.41,26.46-58.1-40.21-34.37-40.4-27.63-4.43,152.51-33.75,333.25-33.75,333.25,50.35,0,68.21-3.34,83.62-13.14Z" fill="#9e7b49"></path><path class="cls-10" d="M0,512h323.98c134.03,0,2.2-221.73,61.93-303,12.83-17.46-42.14-56.04-39.22-1.31,2.73,51.56-24.35,77.93-37.47,88.45C177.11,501.42,20.77,474.3,0,512Z" fill="url(#1776585740044-1419271_linear-gradient-2)"></path><path class="cls-9" d="M7.53,376.88c23.82-168.4,185.15-44.99,157.52,73.39-26.25,58.22-124.79,51.61-157.52-73.39Z" fill="url(#1776585740044-1419271_linear-gradient-3)"></path><path class="cls-8" d="M7.53,385.62c8.59-88.17,84.73-9.1,65.25,48.55-10.43,30.81-62.8,15.54-65.25-48.55Z" fill="url(#1776585740044-1419271_linear-gradient-4)"></path><path class="cls-5" d="M2.78,386.31c4.51-46.39,44.53-4.8,34.3,25.52-5.49,16.2-33.02,8.16-34.3-25.52Z" fill="url(#1776585740044-1419271_linear-gradient-5)"></path><path class="cls-6" d="M2.86,390.09c.31-7.48,19.23-3.22,16.96,7.65-.61,2.89-18.24,23.83-16.96-7.65Z" fill="url(#1776585740044-1419271_linear-gradient-6)"></path><path class="cls-4" d="M25.07,322.19c56.25-161.86,205.05-116.77,269-32.6,0,0,14.71-4.81,17.07,8.18,12.77,70.19-122.68,130.82-150.81,161.12,13.61-80.32-61.57-210.73-135.26-136.71Z" fill="url(#1776585740044-1419271_linear-gradient-7)"></path><path class="cls-2" d="M253.71,262.02c12.25,3.91-68.01,10.36-108.2,79.38,12.31-54.12,80.53-88.28,108.2-79.38Z" style="isolation:isolate" opacity=".3" fill="#291e1e"></path><path class="cls-2" d="M58.55,306.36c4.55.41-19.81,9.57-20.49,38.52-5.61-21.08,10.1-39.47,20.49-38.52Z" style="isolation:isolate" opacity=".3" fill="#291e1e"></path><path class="cls-2" d="M102.24,315.56c5.74.25-29.33,12.08-41.62,45.49,1.11-24,28.64-46.04,41.62-45.49Z" style="isolation:isolate" opacity=".3" fill="#291e1e"></path><path class="cls-2" d="M144.76,375.53c5.52,3.18-36.36-4.92-68.83,17.26,15.68-19.93,56.32-24.48,68.83-17.26Z" style="isolation:isolate" opacity=".3" fill="#291e1e"></path><path class="cls-2" d="M59.87,369.39c2.4,1.08-13.99.72-23.36,14.28,3.45-11.03,17.89-16.72,23.36-14.28Z" style="isolation:isolate" opacity=".3" fill="#291e1e"></path><path class="cls-2" d="M23.01,370.64c1.89.36-9.76,2.8-14.15,13.88.64-8.34,9.9-14.72,14.15-13.88Z" style="isolation:isolate" opacity=".3" fill="#291e1e"></path><path class="cls-2" d="M35.01,348.3c2.33.23-10.36,4.84-11.37,19.56-2.38-10.71,6.08-20.04,11.37-19.56Z" style="isolation:isolate" opacity=".3" fill="#291e1e"></path><path class="cls-2" d="M157.16,428.43c5.22-4.97-38.77,17.19-81.23,7.16,23.22,13.67,69.51,4.04,81.23-7.16Z" style="isolation:isolate" opacity=".3" fill="#291e1e"></path><path class="cls-2" d="M74.06,412.57c2.43-2.3-18.06,8-37.83,3.35,10.8,6.35,32.37,1.87,37.83-3.35Z" style="isolation:isolate" opacity=".3" fill="#291e1e"></path><path class="cls-2" d="M36.53,406.74c1.21-1.93-10.19,5.42-23.01-1.54,7.48,7.46,20.27,5.85,23.01,1.54Z" style="isolation:isolate" opacity=".3" fill="#291e1e"></path><path class="cls-2" d="M106.17,479.8c4.72-2.17-27.26-1.55-45.67-28.79,6.84,22.14,35.05,33.63,45.67,28.79Z" style="isolation:isolate" opacity=".3" fill="#291e1e"></path><path class="cls-2" d="M56.89,442.65c3.16-1.43-18.28-1.02-30.62-19.31,4.57,14.87,23.49,22.59,30.62,19.31Z" style="isolation:isolate" opacity=".3" fill="#291e1e"></path><path class="cls-2" d="M292.28,294.86c-24.17,51.32-106.84,79.92-124.06,144.64,49.73-63.44,128.42-90.78,124.06-144.64Z" style="isolation:isolate" opacity=".3" fill="#291e1e"></path><path class="cls-2" d="M160.72,221.01c9.88,1.58-45.83,17.73-54.91,80-6.62-46.21,32.53-83.57,54.91-80Z" style="isolation:isolate" opacity=".3" fill="#291e1e"></path><path class="cls-2" d="M82.15,243.98c6.27.17-21.79,14.23-9.03,52.15-17.36-27.09-5.17-52.51,9.03-52.15Z" style="isolation:isolate" opacity=".3" fill="#291e1e"></path><path class="cls-1" d="M177.3,476.22c2.71,19.19,29.2,15.72,26.48-3.49-2.73-19.65-29.23-16.18-26.48,3.49Z" style="isolation:isolate" fill="#a35d35" opacity=".3"></path><path class="cls-1" d="M271.05,431.53c2.7,19.2,29.19,15.73,26.49-3.49-2.76-19.64-29.24-16.16-26.49,3.49Z" style="isolation:isolate" fill="#a35d35" opacity=".3"></path><path class="cls-1" d="M286.12,387.05c1.85,13.08,19.92,10.72,18.07-2.37-1.86-13.4-19.92-11.02-18.07,2.37Z" style="isolation:isolate" fill="#a35d35" opacity=".3"></path><path class="cls-1" d="M322.49,357.42c1.83,13.08,19.9,10.71,18.06-2.38-1.89-13.41-19.94-11.03-18.06,2.38Z" style="isolation:isolate" fill="#a35d35" opacity=".3"></path><path class="cls-1" d="M322.49,414.34c1.83,13.1,19.9,10.73,18.05-2.36-1.87-13.41-19.92-11.03-18.05,2.36Z" style="isolation:isolate" fill="#a35d35" opacity=".3"></path><path class="cls-1" d="M231.13,439.51c1.85,13.08,19.92,10.73,18.06-2.37-1.88-13.41-19.92-11.02-18.06,2.37Z" style="isolation:isolate" fill="#a35d35" opacity=".3"></path><path class="cls-1" d="M246.17,478.1c1.85,13.08,19.9,10.73,18.06-2.38-1.87-13.4-19.92-11.02-18.06,2.38Z" style="isolation:isolate" fill="#a35d35" opacity=".3"></path><path class="cls-3" d="M335.18,175.53c0,56.14,60.9,43.22,53.03,22.83-13.37-34.69,24.03-34.84,9.6.4-6.79,16.59,53.64,33.56,53.64-23.23,0-90.82-116.27-90.82-116.27,0Z" fill="url(#1776585740044-1419271_linear-gradient-8)"></path><path class="cls-7" d="M363.32,116.81c-7.44-2.67-53.63-79.42-53.63-79.42,12.54-25.12-9.98-42.47-25.22-36.05-15.68,6.6-13.39,39.69,12.72,41.1,0,0,36.4,68.44,44.33,99.97,5.21,20.7,38.66-19.55,21.79-25.61Z" fill="url(#1776585740044-1419271_linear-gradient-9)"></path><path class="cls-17" d="M300.05,37.41c-18.39,5.72-30.66-26.54-12.29-32.25,18.4-5.73,30.67,26.51,12.29,32.25Z" fill="#302c3b"></path><path class="cls-13" d="M297.98,17.61c-5.38,2.07-7.83-5.81-2.43-7.87,5.41-2.07,7.85,5.81,2.43,7.87Z" fill="#fff"></path><path class="cls-14" d="M337.14,184.12c-5.99,10.03-24.88,28.14-28.18,28.66-10.97,1.75-1.54,16.89,4.32,8.92,1.84-2.51,17.23-14.61,27.89-15.55,10.58-.93-.1-28.62-4.04-22.03Z" fill="url(#1776585740044-1419271_linear-gradient-10)"></path><path class="cls-15" d="M423.32,116.81c7.43-2.67,53.63-79.42,53.63-79.42-12.54-25.12,9.97-42.47,25.22-36.05,15.68,6.59,13.39,39.67-12.73,41.09,0,0-36.4,68.44-44.32,99.97-5.21,20.72-38.66-19.53-21.79-25.59Z" fill="url(#1776585740044-1419271_linear-gradient-11)"></path><path class="cls-17" d="M486.58,37.41c18.39,5.72,30.67-26.54,12.29-32.25-18.39-5.73-30.66,26.51-12.29,32.25Z" fill="#302c3b"></path><path class="cls-13" d="M488.66,17.61c5.38,2.07,7.83-5.81,2.43-7.87-5.4-2.07-7.85,5.81-2.43,7.87Z" fill="#fff"></path><path class="cls-16" d="M449.49,184.12c5.99,10.03,24.89,28.14,28.18,28.66,10.97,1.75,1.54,16.89-4.31,8.92-1.85-2.51-17.24-14.61-27.9-15.55-10.57-.93.1-28.62,4.04-22.03Z" fill="url(#1776585740044-1419271_linear-gradient-12)"></path></g></svg>