<svg data-name="Layer 1" xmlns="http://www.w3.org/2000/svg" style="" viewBox="0 0 531.62 512"><g class="nc-icon-wrapper"><defs><linearGradient id="1777856185358-5017622_linear-gradient" x1="-399.13" y1="758.26" x2="-399.13" y2="918.34" gradientTransform="matrix(2.9058 0 0 -2.7675 1425.586 2594.671)" gradientUnits="userSpaceOnUse"><stop offset="0" stop-color="#db0100"></stop><stop offset=".58" stop-color="#f31317"></stop><stop offset="1" stop-color="#ff1c23"></stop></linearGradient></defs><path class="cls-2" d="M265.78,118.15C195.23,3.48,0,48.26,0,192.28c0,96.61,90.05,161.26,265.78,303.9,175.73-142.64,265.83-207.29,265.83-303.9,0-144.01-195.25-188.79-265.83-74.13Z" fill="url(#1777856185358-5017622_linear-gradient)"></path><path class="cls-3" d="M437.1,60.41c0,69.64-45.22,91.15-98.28,91.15,53.06,0,90.68,62.31,90.68,131.97,0-69.65,37.69-131.97,90.75-131.97-53.05,0-83.14-21.51-83.14-91.15Z" style="isolation:isolate" fill="#1a1626" opacity=".25"></path><path class="cls-3" d="M181.43,284.47c-53.06,0-83.16-30.37-83.16-100.01,0,56.42-29.68,87.05-69.16,96.66,16.57,24.68,40.19,49.71,70.77,77.52,14.25-42.92,44.02-74.16,81.56-74.16Z" style="isolation:isolate" fill="#1a1626" opacity=".25"></path><path class="cls-3" d="M356.28,299.64c0,69.63-45.22,100.01-98.27,100.01,28.93,0,53.19,18.61,69.36,46.72,25.13-20.33,47.93-38.95,68.49-56.36-25.62-13.83-39.58-43-39.58-90.37Z" style="isolation:isolate" fill="#1a1626" opacity=".25"></path><path class="cls-1" d="M440.87,0c0,69.64-37.6,131.94-90.66,131.94,53.06,0,90.66,62.32,90.66,131.97,0-69.65,37.69-131.97,90.75-131.97-53.06,0-90.75-62.29-90.75-131.94Z" fill="#ffe12c"></path><path class="cls-1" d="M102.04,132.9c0,69.64-37.6,131.95-90.65,131.95,53.05,0,90.65,62.31,90.65,131.97,0-69.65,37.69-131.97,90.75-131.97-53.06,0-90.75-62.3-90.75-131.95Z" fill="#ffe12c"></path><path class="cls-1" d="M360.06,248.09c0,69.64-37.6,131.94-90.66,131.94,53.06,0,90.66,62.32,90.66,131.97,0-69.64,37.69-131.97,90.75-131.97-53.06,0-90.75-62.29-90.75-131.94Z" fill="#ffe12c"></path></g></svg>