<svg xmlns="http://www.w3.org/2000/svg" style="" viewBox="0 0 511.62 512"><g class="nc-icon-wrapper"><defs><linearGradient id="1776867898245-636542_linear-gradient" x1="1581.43" y1="2384.03" x2="1581.39" y2="1563.19" gradientTransform="matrix(.54 0 0 .54 -675.1 -827.11)" gradientUnits="userSpaceOnUse"><stop offset="0" stop-color="#ffb91d"></stop><stop offset=".02" stop-color="#ffb91d"></stop><stop offset=".27" stop-color="#ffb91d"></stop><stop offset=".52" stop-color="#ffce31"></stop><stop offset=".77" stop-color="#ffdb3c"></stop><stop offset="1" stop-color="#ffdf40"></stop></linearGradient><linearGradient id="1776867898245-636542_linear-gradient-2" x1="2008.89" y1="1943.43" x2="2008.92" y2="1531.68" gradientTransform="matrix(.54 0 0 .54 -675.1 -827.11)" gradientUnits="userSpaceOnUse"><stop offset="0" stop-color="#ffb91d"></stop><stop offset=".04" stop-color="#ffb91d"></stop><stop offset=".26" stop-color="#ffb91d"></stop><stop offset=".49" stop-color="#ffdb3c"></stop><stop offset=".73" stop-color="#ffdf40"></stop><stop offset="1" stop-color="#ffdf40"></stop></linearGradient><linearGradient id="1776867898245-636542_linear-gradient-3" x1="1914.22" y1="2479.83" x2="1914.25" y2="2068.08" gradientTransform="matrix(.54 0 0 .54 -675.1 -827.11)" gradientUnits="userSpaceOnUse"><stop offset="0" stop-color="#ffdf40"></stop><stop offset=".09" stop-color="#ffb91d"></stop><stop offset=".25" stop-color="#ffdf40"></stop><stop offset=".42" stop-color="#ffdb3c"></stop><stop offset=".59" stop-color="#ffce31"></stop><stop offset=".78" stop-color="#ffdf40"></stop><stop offset="1" stop-color="#ffdf40"></stop></linearGradient></defs><g id="1776867898245-636542_b"><g id="1776867898245-636542_c"><path class="cls-3" d="M179.57,17.02c4.75,57.96,12.83,101.66,24.23,131.11,11.41,29.46,28.98,50.36,52.74,62.71,23.75,12.35,57.49,21.85,101.18,28.5-43.71,5.7-77.44,14.73-101.18,27.09-23.75,12.35-41.33,33.49-52.73,63.43-11.4,29.93-19.48,73.4-24.22,130.4-4.75-57.01-12.83-100.48-24.23-130.4-11.41-29.93-28.98-51.07-52.74-63.42-23.76-12.35-57.96-21.38-102.61-27.08,44.66-6.65,78.86-16.15,102.61-28.51,23.75-12.35,41.33-33.26,52.73-62.71,11.4-29.46,19.47-73.16,24.22-131.11" vector-effect="none" fill="url(#1776867898245-636542_linear-gradient)"></path><path class="cls-2" d="M409.01.02c2.85,28.51,7.6,50.36,14.25,65.56,6.65,15.2,16.86,25.9,30.64,32.07s33.02,10.69,57.73,13.55c-24.71,2.85-43.95,7.36-57.73,13.53-13.78,6.17-23.99,16.62-30.65,31.35-6.65,14.73-11.41,36.82-14.26,66.27-2.85-29.46-7.36-51.55-13.53-66.28-6.17-14.73-16.15-25.18-29.93-31.36-13.78-6.18-33.02-10.69-57.73-13.55,24.7-2.85,43.95-7.36,57.73-13.53,13.78-6.17,23.76-16.86,29.93-32.07,6.18-15.2,10.69-37.06,13.55-65.56" vector-effect="none" fill="url(#1776867898245-636542_linear-gradient-2)"></path><path class="cls-1" d="M357.88,289.68c2.85,28.51,7.6,50.36,14.25,65.56,6.65,15.2,16.86,25.9,30.64,32.07,13.78,6.17,33.02,10.69,57.73,13.55-24.71,2.85-43.95,7.36-57.73,13.53-13.78,6.17-23.99,16.62-30.65,31.35-6.66,14.73-11.41,36.82-14.26,66.27-2.85-29.46-7.36-51.55-13.53-66.28-6.18-14.73-16.15-25.18-29.93-31.36-13.78-6.18-33.02-10.69-57.73-13.55,24.7-2.85,43.95-7.36,57.73-13.53,13.78-6.17,23.76-16.86,29.93-32.07,6.18-15.2,10.69-37.06,13.55-65.56" vector-effect="none" fill="url(#1776867898245-636542_linear-gradient-3)"></path></g></g></g></svg>