<svg data-name="Layer 1" xmlns="http://www.w3.org/2000/svg" style="" viewBox="0 0 452.94 512"><g class="nc-icon-wrapper"><defs><radialGradient id="1777811038030-4368454_radial-gradient" cx="-71.52" cy="416.1" fx="-71.52" fy="416.1" r="57.51" gradientTransform="matrix(1.01 0 0 1.93 92.88 -545.82)" gradientUnits="userSpaceOnUse"><stop offset=".08" stop-color="#e1e3e7"></stop><stop offset=".21" stop-color="#d9e0e4"></stop><stop offset=".4" stop-color="#d6dde1"></stop><stop offset=".63" stop-color="#c2cacd"></stop><stop offset=".77" stop-color="#a2aaad"></stop><stop offset="1" stop-color="#a2aaad"></stop></radialGradient><linearGradient id="1777811038030-4368454_linear-gradient" x1="-31.81" y1="619.4" x2="-31.81" y2="776.58" gradientTransform="translate(94 -442)" gradientUnits="userSpaceOnUse"><stop offset="0" stop-color="#545061"></stop><stop offset=".28" stop-color="#464253"></stop><stop offset=".62" stop-color="#211d2d"></stop><stop offset="1" stop-color="#1a1626"></stop></linearGradient><radialGradient id="1777811038030-4368454_radial-gradient-2" cx="-14.05" cy="416.1" fx="-14.05" fy="416.1" r="59.49" gradientTransform="matrix(1.01 0 0 1.93 92.88 -545.82)" gradientUnits="userSpaceOnUse"><stop offset=".08" stop-color="#e1e3e7"></stop><stop offset=".21" stop-color="#d9e0e4"></stop><stop offset=".4" stop-color="#d6dde1"></stop><stop offset=".63" stop-color="#c2cacd"></stop><stop offset=".77" stop-color="#a2aaad"></stop><stop offset="1" stop-color="#a2aaad"></stop></radialGradient><radialGradient id="1777811038030-4368454_radial-gradient-3" cx="74.47" cy="416.1" fx="74.47" fy="416.1" r="149.87" gradientTransform="matrix(1.01 0 0 1.93 92.88 -545.82)" gradientUnits="userSpaceOnUse"><stop offset="0" stop-color="#e1e3e7"></stop><stop offset=".12" stop-color="#d9e0e4"></stop><stop offset=".23" stop-color="#d6dde1"></stop><stop offset=".45" stop-color="#c2cacd"></stop><stop offset=".64" stop-color="#a2aaad"></stop><stop offset=".8" stop-color="#a2aaad"></stop><stop offset="1" stop-color="#4e5e67"></stop></radialGradient><linearGradient id="1777811038030-4368454_linear-gradient-2" x1="91.29" y1="698" x2="276.57" y2="698" gradientTransform="translate(94 -442)" gradientUnits="userSpaceOnUse"><stop offset=".07" stop-color="#e6ebef"></stop><stop offset=".26" stop-color="#d9e0e4"></stop><stop offset=".53" stop-color="#d6dde1"></stop><stop offset=".97" stop-color="#c2cacd"></stop></linearGradient><radialGradient id="1777811038030-4368454_radial-gradient-4" cx="193.46" cy="698" fx="193.46" fy="698" r="170.29" gradientTransform="translate(92.88 -442)" gradientUnits="userSpaceOnUse"><stop offset="0" stop-color="#545061"></stop><stop offset=".28" stop-color="#464253"></stop><stop offset=".61" stop-color="#312d3d"></stop><stop offset=".8" stop-color="#211d2d"></stop><stop offset=".96" stop-color="#1a1626"></stop></radialGradient><linearGradient id="1777811038030-4368454_linear-gradient-3" x1="141.6" y1="595.79" x2="141.6" y2="800.08" gradientTransform="translate(94 -442)" gradientUnits="userSpaceOnUse"><stop offset="0" stop-color="#d9e0e4"></stop><stop offset=".23" stop-color="#d6dde1"></stop><stop offset=".83" stop-color="#c2cacd"></stop></linearGradient><radialGradient id="1777811038030-4368454_radial-gradient-5" cx="143.29" cy="697.93" fx="143.29" fy="697.93" r="74.39" gradientTransform="translate(92.88 -442)" gradientUnits="userSpaceOnUse"><stop offset="0" stop-color="#d9e0e4"></stop><stop offset=".35" stop-color="#d6dde1"></stop><stop offset=".53" stop-color="#c2cacd"></stop><stop offset=".75" stop-color="#a2aaad"></stop><stop offset="1" stop-color="#a2aaad"></stop></radialGradient><linearGradient id="1777811038030-4368454_linear-gradient-4" x1="262.72" y1="597.28" x2="379" y2="798.69" gradientTransform="translate(94 -442)" gradientUnits="userSpaceOnUse"><stop offset=".2" stop-color="#00abf1"></stop><stop offset=".58" stop-color="#00a7ef"></stop><stop offset=".97" stop-color="#009aea"></stop><stop offset="1" stop-color="#0099e9"></stop></linearGradient></defs><path class="cls-8" d="M37.83,334.58c-50.44,0-50.44-157.16.02-157.16l4.15-.02v157.2l-4.16-.02Z" fill="url(#1777811038030-4368454_radial-gradient)"></path><path class="cls-9" d="M41.97,334.58c-35.35.04-35.32-157.16.02-157.18l66.9.02v157.16H41.97Z" fill="url(#1777811038030-4368454_linear-gradient)"></path><path class="cls-4" d="M75.1,334.6c-35.33-.02-35.31-157.18,0-157.2h33.82v157.18l-33.82.02Z" fill="url(#1777811038030-4368454_radial-gradient-2)"></path><path class="cls-3" d="M108.9,334.58c-43.3-12.07-43.3-145.08,0-157.16,47.8-13.32,150.16-168.89,150.16-168.89v494.95s-102.35-155.56-150.16-168.89Z" fill="url(#1777811038030-4368454_radial-gradient-3)"></path><path class="cls-7" d="M282.36,512c117.62,0,117.62-512,0-512-129.43,0-129.43,512,0,512Z" fill="url(#1777811038030-4368454_linear-gradient-2)"></path><path class="cls-2" d="M288.27,486.39c92.77,0,92.77-460.79,0-460.79-34.86,0-58.11,51.18-69.73,119.44l-1.65,8.74c22.09,60.69,23.77,133.24-.02,204.3l4.72,25.2c12.45,59.92,34.67,103.11,66.69,103.11Z" fill="url(#1777811038030-4368454_radial-gradient-4)"></path><path class="cls-6" d="M216.88,153.79c60.52,3.84,60.51,200.47-.02,204.3-10.67-59.35-10.51-150.13.02-204.3Z" fill="url(#1777811038030-4368454_linear-gradient-3)"></path><path class="cls-1" d="M211.57,316.82c43.77-4.33,45.09-142.49,3.86-154.66.46-2.83.96-5.7,1.45-8.37,60.52,3.84,60.51,200.45,0,204.28-2.27-12.53-4.02-26.52-5.31-41.25Z" fill="url(#1777811038030-4368454_radial-gradient-5)"></path><path class="cls-5" d="M395.27,371.2c0-1.27.18-2.56.6-3.85,23.89-72.85,23.89-149.88,0-222.74-2.69-8.22,3.63-16.59,14.12-18.7,10.47-2.11,21.15,2.85,23.85,11.07,25.46,77.86,25.46,160.19,0,238.02-2.69,8.22-13.38,13.16-23.85,11.06-8.88-1.78-14.72-8.01-14.72-14.86Z" fill="url(#1777811038030-4368454_linear-gradient-4)"></path></g></svg>