<svg data-name="Layer 1" xmlns="http://www.w3.org/2000/svg" style="" viewBox="0 0 512 512"><g class="nc-icon-wrapper"><defs><linearGradient id="1776867898260-3969069_linear-gradient" x1="341.42" y1="731.43" x2="341.42" y2="970.51" gradientTransform="translate(0 -512)" gradientUnits="userSpaceOnUse"><stop offset="0" stop-color="#a3f3ff"></stop><stop offset="1" stop-color="#38deff"></stop></linearGradient></defs><path class="cls-1" d="M304.03,116.81c-8.01-1.46-16.01-2.55-24.02-3.28s-16.01-1.09-24.02-1.09-16.01.36-24.02,1.09-16.01,1.82-24.02,3.28L256,0l48.03,116.81ZM207.97,395.19c8.01,1.46,16.01,2.55,24.02,3.28s16.01,1.09,24.02,1.09,16.01-.36,24.02-1.09,16.01-1.82,24.02-3.28l-48.03,116.81-48.03-116.81ZM395.19,304.03c1.46-8.01,2.55-16.01,3.28-24.02s1.09-16.01,1.09-24.02-.36-16.01-1.09-24.02-1.82-16.01-3.28-24.02l116.81,48.03-116.81,48.03ZM116.81,207.97c-1.46,8.01-2.55,16.01-3.28,24.02s-1.09,16.01-1.09,24.02.36,16.01,1.09,24.02,1.82,16.01,3.28,24.02L0,256l116.81-48.03ZM388.09,191.59c-4.37-6.55-9.1-12.92-14.19-19.1-5.09-6.19-10.55-12.19-16.38-18.01s-11.83-11.28-18.01-16.38-12.55-9.83-19.1-14.19l116.26-48.58-48.58,116.26ZM123.91,320.41c4.37,6.55,9.1,12.92,14.19,19.1s10.55,12.19,16.38,18.01c5.82,5.82,11.83,11.28,18.01,16.38,6.19,5.09,12.55,9.83,19.1,14.19l-116.26,48.58,48.58-116.26ZM191.59,123.91c-6.55,4.37-12.92,9.1-19.1,14.19s-12.19,10.55-18.01,16.38-11.28,11.83-16.38,18.01c-5.09,6.19-9.83,12.55-14.19,19.1l-48.58-116.26,116.26,48.58Z" fill="#fcd449"></path><path class="cls-1" d="M375.5,255.99c0,16.47-3.1,31.93-9.3,46.36-6.2,14.44-14.78,27.13-25.73,38.08s-23.65,19.53-38.08,25.73c-14.44,6.2-29.89,9.3-46.36,9.3s-31.93-3.1-46.36-9.3c-14.44-6.2-27.13-14.78-38.08-25.73s-19.53-23.65-25.73-38.08c-6.2-14.44-9.3-29.89-9.3-46.36s3.1-31.93,9.3-46.36c6.2-14.44,14.78-27.13,25.73-38.08s23.65-19.53,38.08-25.73,29.89-9.3,46.36-9.3,31.93,3.1,46.36,9.3c14.44,6.2,27.13,14.78,38.08,25.73s19.53,23.65,25.73,38.08c6.2,14.44,9.3,29.89,9.3,46.36Z" fill="#fcd449"></path><path class="cls-3" d="M239.08,447.04c-6.19,0-12.19-1.09-18.01-3.28-11.64-3.64-21.01-10.46-28.11-20.47-7.1-10.01-10.64-21.01-10.64-33.02,0-10.55,2.64-20.29,7.91-29.2s12.46-15.92,21.56-21.01l3.82-13.1c4.73-16.38,13.92-29.75,27.57-40.12,13.65-10.37,29.02-15.56,46.12-15.56,3.64,0,7.28.18,10.92.55,3.28.36,6.37,1.09,9.28,2.18l1.64-2.73c6.91-12.37,16.47-22.2,28.66-29.48s25.38-10.92,39.57-10.92,27.75,3.55,39.57,10.64,21.2,16.56,28.11,28.38c6.91,11.83,10.37,24.84,10.37,39.03v6l-.55,1.64c3.64,1.46,6.91,3.09,9.83,4.91,10.55,5.82,18.83,13.92,24.84,24.29,6,10.37,9.01,21.56,9.01,33.57,0,16.01-4.91,30.11-14.74,42.3-9.83,12.19-22.38,19.92-37.66,23.2-4.73,1.46-9.64,2.18-14.74,2.18h-194.32Z" fill="#fff"></path><path class="cls-2" d="M379.36,242.35c-12.01,0-23.29,3.09-33.84,9.28s-18.74,14.56-24.56,25.11c10.55,6.91,18.74,15.83,24.56,26.75s8.73,22.56,8.73,34.93c-1.46-10.92-5.64-20.92-12.55-30.02-6.91-9.1-15.47-15.83-25.65-20.2-5.46-2.55-11.28-4.18-17.47-4.91-3.28-.73-6.37-1.09-9.28-1.09-14.92,0-28.11,4.55-39.57,13.65-11.46,9.1-19.2,20.38-23.2,33.84,21.83,2.18,38.03,13.1,48.58,32.75-4.37-5.46-9.64-9.83-15.83-13.1-6.19-3.28-12.92-4.91-20.2-4.91-5.09,0-10.19.91-15.28,2.73-10.55,3.64-18.65,10.19-24.29,19.65-5.64,9.46-7.55,19.65-5.73,30.57,2.18,11.28,7.46,20.47,15.83,27.57,8.37,7.1,18.19,10.64,29.48,10.64h194.32c4,0,8.19-.55,12.55-1.64,12.74-2.91,23.11-9.46,31.11-19.65,8.01-10.19,12.01-21.83,12.01-34.93,0-9.83-2.46-19.1-7.37-27.84s-11.74-15.47-20.47-20.2c-5.46-3.28-11.1-5.46-16.92-6.55-13.83-2.91-26.75-.73-38.75,6.55,11.64-10.19,25.11-15.83,40.39-16.92v-5.46c0-12.37-3-23.56-9.01-33.57s-14.01-18.01-24.02-24.02-21.2-9.01-33.57-9.01ZM379.36,219.43c16.38,0,31.39,4,45.03,12.01s24.47,18.83,32.48,32.48c8.01,13.65,12.01,28.66,12.01,45.03v.55c13.1,6.55,23.56,16.19,31.39,28.93,7.82,12.74,11.74,26.38,11.74,40.94,0,18.56-5.73,35.02-17.19,49.4-11.46,14.37-26.11,23.56-43.94,27.57-5.82,1.46-11.64,2.18-17.47,2.18h-194.32c-7.28,0-14.37-1.27-21.29-3.82-14.19-4.37-25.56-12.55-34.12-24.56-8.55-12.01-12.83-25.29-12.83-39.85,0-11.64,2.73-22.56,8.19-32.75s13.1-18.56,22.93-25.11l2.73-8.73c5.46-18.92,16.01-34.3,31.66-46.12s33.3-17.74,52.95-17.74c4.37,0,8.55.36,12.55,1.09h2.18c8.01-12.74,18.74-22.83,32.2-30.29,13.46-7.46,27.84-11.19,43.12-11.19Z" fill="url(#1776867898260-3969069_linear-gradient)"></path></g></svg>