<svg xmlns="http://www.w3.org/2000/svg" style="" viewBox="0 0 512.01 512"><g class="nc-icon-wrapper"><defs><radialGradient id="1776131386772-6097277_radial-gradient" cx="245.85" cy="743.01" fx="245.85" fy="743.01" r="239.99" gradientTransform="matrix(1.07 0 0 1.07 -6.1 -540.07)" gradientUnits="userSpaceOnUse"><stop offset=".37" stop-color="#f90"></stop><stop offset=".38" stop-color="#ff9c03"></stop><stop offset=".48" stop-color="#ffb620"></stop><stop offset=".59" stop-color="#ffca37"></stop><stop offset=".7" stop-color="#ffd847"></stop><stop offset=".83" stop-color="#ffe051"></stop><stop offset="1" stop-color="#ffe354"></stop></radialGradient><radialGradient id="1776131386772-6097277_radial-gradient-2" cx="226.91" cy="723.43" fx="226.91" fy="723.43" r="144" gradientTransform="matrix(1.07 0 0 1.07 -6.1 -540.07)" gradientUnits="userSpaceOnUse"><stop offset="0" stop-color="#ffd500"></stop><stop offset=".38" stop-color="#ffd200"></stop><stop offset=".71" stop-color="#ffc700"></stop><stop offset="1" stop-color="#ffb700"></stop></radialGradient></defs><path class="cls-3" d="M411.18,297.58l100.83-41.58-100.83-41.58,66.54-86.42-108.12,14.4,14.4-108.1-86.42,66.53L255.99,0l-41.57,100.82L127.98,34.3l14.42,108.1-108.12-14.4,66.54,86.42L0,256.01l100.82,41.57-66.53,86.43,108.1-14.42-14.4,108.12,86.42-66.53,41.58,100.82,41.58-100.83,86.42,66.54-14.4-108.12,108.1,14.4-66.54-86.42h.02Z" fill="url(#1776131386772-6097277_radial-gradient)"></path><path class="cls-1" d="M409.59,256.01c0,84.83-68.77,153.61-153.6,153.61s-153.6-68.78-153.6-153.61S171.17,102.4,255.99,102.4s153.6,68.78,153.6,153.6h0Z" fill="url(#1776131386772-6097277_radial-gradient-2)"></path><path class="cls-6" d="M371.35,230.44c-15.06,39.45-76.37,33.66-87.6,6.06,8.53-44.35,79.34-48.15,87.6-6.06Z" fill="#fff"></path><path class="cls-6" d="M140.65,230.44c15.09,39.45,76.4,33.66,87.62,6.06-8.51-44.38-79.3-48.17-87.62-6.06Z" fill="#fff"></path><path class="cls-9" d="M299.39,226.23c0,34.62,50.07,34.62,50.07,0,0-32.13-50.07-32.13-50.07,0Z" fill="#45332c"></path><path class="cls-5" d="M304.35,237.32c0,19.85,40.17,19.85,40.17,0,0-18.44-40.17-18.44-40.17,0h0Z" fill="#7d5037"></path><path class="cls-2" d="M314.03,226.79c0,14.36,20.78,14.36,20.78,0,0-13.34-20.78-13.34-20.78,0Z" fill="#1a1626"></path><path class="cls-8" d="M306.95,222.58c0,7.25,10.5,7.25,10.5,0,0-6.74-10.5-6.74-10.5,0Z" fill="#ab968c"></path><path class="cls-9" d="M162.57,226.22c0,34.63,50.08,34.63,50.08,0,0-32.13-50.08-32.13-50.08,0Z" fill="#45332c"></path><path class="cls-5" d="M167.51,237.3c0,19.84,40.17,19.84,40.17,0,0-18.44-40.17-18.44-40.17,0Z" fill="#7d5037"></path><path class="cls-2" d="M177.22,226.77c0,14.37,20.78,14.37,20.78,0,0-13.33-20.78-13.33-20.78,0Z" fill="#1a1626"></path><path class="cls-8" d="M170.12,222.57c0,7.26,10.5,7.26,10.5,0,0-6.74-10.5-6.74-10.5,0Z" fill="#ab968c"></path><path class="cls-7" d="M371.35,230.14c0-42.34-87.6-42.34-87.6,6.72,12.51-40.27,75.1-40.27,87.6-6.72Z" fill="#e39415"></path><path class="cls-7" d="M140.65,230.14c0-42.34,87.62-42.34,87.62,6.7-12.5-40.27-75.08-40.27-87.62-6.7Z" fill="#e39415"></path><path class="cls-4" d="M255.99,324.55c-21.76-6.4-53.98,3.03-53.98,3.03,12.27,13.37,21.27,30.7,53.98,30.7,37.48,0,43.85-19.68,53.98-30.7,0,0-32.24-9.46-53.98-3.03Z" fill="#e37a15"></path><path class="cls-6" d="M210.24,329.83c22.79,19.14,68.85,19.25,91.78,0-24.3,1.05-67.3,1.05-91.78,0h0Z" fill="#fff"></path><path class="cls-4" d="M285.99,288.58c0,19.51-59.98,19.51-59.98,0,0-4.48,59.98-4.48,59.98,0Z" fill="#e37a15"></path></g></svg>