<svg data-name="Layer 1" xmlns="http://www.w3.org/2000/svg" style="" viewBox="0 0 512 512"><g class="nc-icon-wrapper"><defs><linearGradient id="1776732453120-3023403_linear-gradient" x1="0" y1="258" x2="512" y2="258" gradientTransform="matrix(1 0 0 -1 0 514)" gradientUnits="userSpaceOnUse"><stop offset="0" stop-color="#ff000e"></stop><stop offset=".73" stop-color="#dd0004"></stop><stop offset="1" stop-color="#cf0000"></stop></linearGradient><linearGradient id="1776732453120-3023403_linear-gradient-2" x1="128" y1="258" x2="384" y2="258" gradientTransform="matrix(1 0 0 -1 0 514)" gradientUnits="userSpaceOnUse"><stop offset="0" stop-color="#ff000e"></stop><stop offset=".73" stop-color="#dd0004"></stop><stop offset="1" stop-color="#cf0000"></stop></linearGradient><linearGradient id="1776732453120-3023403_linear-gradient-3" x1="357.27" y1="406.9" x2="512" y2="406.9" gradientTransform="matrix(1 0 0 -1 0 514)" gradientUnits="userSpaceOnUse"><stop offset="0" stop-color="#009af7"></stop><stop offset=".12" stop-color="#0da3f4"></stop><stop offset=".5" stop-color="#30baec"></stop><stop offset=".8" stop-color="#46c9e8"></stop><stop offset="1" stop-color="#4ecee6"></stop></linearGradient><linearGradient id="1776732453120-3023403_linear-gradient-4" x1="347.7" y1="387.69" x2="385.7" y2="349.69" gradientTransform="matrix(1 0 0 -1 0 514)" gradientUnits="userSpaceOnUse"><stop offset="0" stop-color="#2289c7"></stop><stop offset="1" stop-color="#005687"></stop></linearGradient><linearGradient id="1776732453120-3023403_linear-gradient-5" x1="352.77" y1="444.17" x2="456.97" y2="444.17" gradientTransform="matrix(1 0 0 -1 0 514)" gradientUnits="userSpaceOnUse"><stop offset="0" stop-color="#009af7"></stop><stop offset=".12" stop-color="#0da3f4"></stop><stop offset=".5" stop-color="#30baec"></stop><stop offset=".8" stop-color="#46c9e8"></stop><stop offset="1" stop-color="#4ecee6"></stop></linearGradient></defs><circle class="cls-6" cx="256" cy="256" r="256" fill="url(#1776732453120-3023403_linear-gradient)"></circle><circle class="cls-8" cx="256" cy="256" r="187.73" fill="#fff"></circle><circle class="cls-4" cx="256" cy="256" r="128" fill="url(#1776732453120-3023403_linear-gradient-2)"></circle><circle class="cls-8" cx="256" cy="256" r="59.73" fill="#fff"></circle><path class="cls-7" d="M247.47,253.16s8.53,166.4,109.8,238.02c0,0,41.97-16.68,77.36-51.82-34.86-84.68-100.99-88.95-187.16-186.2Z" style="isolation:isolate" fill="#302c3b" opacity=".2"></path><path class="cls-5" d="M262.31,262.49c-7.05,7.05-19.81-5.74-12.78-12.78,40.52-40.54,53.31-27.75,12.78,12.78Z" fill="#99a8ae"></path><path class="cls-3" d="M457,55l-99.74,99.73s79.25,20.64,126.34-26.45c76.85-76.84-26.6-73.28-26.6-73.28Z" fill="url(#1776732453120-3023403_linear-gradient-3)"></path><path class="cls-2" d="M305.22,244.8c-34.01,34.01-72.01-3.99-38-38.01,67.52-67.53,198.61-174.31,205.47-167.48,6.83,6.84-99.95,137.95-167.47,205.48Z" fill="url(#1776732453120-3023403_linear-gradient-4)"></path><path class="cls-1" d="M354.41,138.97c-3.38-25.52-4.79-76.48,29.3-110.57,65.63-65.62,72.6.24,73.25,20.86.1,3.54-101.27,99.43-102.55,89.71Z" fill="url(#1776732453120-3023403_linear-gradient-5)"></path></g></svg>