<svg data-name="Layer 1" xmlns="http://www.w3.org/2000/svg" style="" viewBox="0 0 512 512"><g class="nc-icon-wrapper"><defs><radialGradient id="1776867898298-7286116_radial-gradient" cx="291.58" cy="436.84" fx="291.58" fy="436.84" r="62.75" gradientTransform="matrix(.88928 .03572 .12874 -2.90718 -49.78 1444.6)" gradientUnits="userSpaceOnUse"><stop offset="0" stop-color="#ffe12c"></stop><stop offset=".14" stop-color="#ffdc2b"></stop><stop offset=".31" stop-color="#fece26"></stop><stop offset=".49" stop-color="#fdb61f"></stop><stop offset=".68" stop-color="#fb9516"></stop><stop offset=".87" stop-color="#f96b0a"></stop><stop offset="1" stop-color="#f74a00"></stop></radialGradient><radialGradient id="1776867898298-7286116_radial-gradient-2" cx="338.25" cy="463.6" fx="338.25" fy="463.6" r="50.4" gradientTransform="matrix(1.33 0 0 -1 -192.38 514)" gradientUnits="userSpaceOnUse"><stop offset=".42" stop-color="#fff"></stop><stop offset="1" stop-color="#fff" stop-opacity="0"></stop></radialGradient><radialGradient id="1776867898298-7286116_radial-gradient-3" cx="90.18" cy="388.33" fx="90.18" fy="388.33" r="50.4" gradientTransform="matrix(1 0 0 -1 -.37 514)" gradientUnits="userSpaceOnUse"><stop offset=".42" stop-color="#fff"></stop><stop offset="1" stop-color="#fff" stop-opacity="0"></stop></radialGradient><radialGradient id="1776867898298-7286116_radial-gradient-4" cx="124.67" cy="426.61" fx="124.67" fy="426.61" r="50.4" gradientTransform="matrix(1 0 0 -1 -.37 514)" gradientUnits="userSpaceOnUse"><stop offset=".42" stop-color="#fff"></stop><stop offset="1" stop-color="#fff" stop-opacity="0"></stop></radialGradient><radialGradient id="1776867898298-7286116_radial-gradient-5" cx="181.26" cy="453.97" fx="181.26" fy="453.97" r="50.4" gradientTransform="matrix(1 0 0 -1 -.37 514)" gradientUnits="userSpaceOnUse"><stop offset=".42" stop-color="#fff"></stop><stop offset="1" stop-color="#fff" stop-opacity="0"></stop></radialGradient><radialGradient id="1776867898298-7286116_radial-gradient-6" cx="779.64" cy="388.33" fx="779.64" fy="388.33" r="50.4" gradientTransform="rotate(-180 602.17 257)" gradientUnits="userSpaceOnUse"><stop offset=".42" stop-color="#fff"></stop><stop offset="1" stop-color="#fff" stop-opacity="0"></stop></radialGradient><radialGradient id="1776867898298-7286116_radial-gradient-7" cx="814.13" cy="426.61" fx="814.13" fy="426.61" r="50.4" gradientTransform="rotate(-180 602.17 257)" gradientUnits="userSpaceOnUse"><stop offset=".42" stop-color="#fff"></stop><stop offset="1" stop-color="#fff" stop-opacity="0"></stop></radialGradient><linearGradient id="1776867898298-7286116_linear-gradient" x1="0" y1="131.86" x2="512" y2="131.86" gradientTransform="matrix(1 0 0 -1 0 514)" gradientUnits="userSpaceOnUse"><stop offset="0" stop-color="#916958"></stop><stop offset=".21" stop-color="#8b6454"></stop><stop offset=".49" stop-color="#7b5748"></stop><stop offset=".8" stop-color="#5f4034"></stop><stop offset="1" stop-color="#4a2f24"></stop></linearGradient><radialGradient id="1776867898298-7286116_radial-gradient-8" cx="286.39" cy="133.52" fx="286.39" fy="133.52" r="143.34" gradientTransform="matrix(1 0 0 -.88 -.37 455.87)" gradientUnits="userSpaceOnUse"><stop offset="0" stop-color="#ffe12c"></stop><stop offset=".14" stop-color="#ffdc2b"></stop><stop offset=".31" stop-color="#fece26"></stop><stop offset=".49" stop-color="#fdb61f"></stop><stop offset=".68" stop-color="#fb9516"></stop><stop offset=".87" stop-color="#f96b0a"></stop><stop offset="1" stop-color="#f74a00"></stop></radialGradient><linearGradient id="1776867898298-7286116_linear-gradient-2" x1="143.23" y1="288.65" x2="143.23" y2="320.95" gradientTransform="matrix(1 0 0 -1 0 514)" gradientUnits="userSpaceOnUse"><stop offset="0" stop-color="#f74a00"></stop><stop offset=".13" stop-color="#f75002"></stop><stop offset=".3" stop-color="#f86207"></stop><stop offset=".51" stop-color="#fa8010"></stop><stop offset=".74" stop-color="#fca91c"></stop><stop offset=".98" stop-color="#ffde2b"></stop><stop offset="1" stop-color="#ffe12c"></stop></linearGradient><linearGradient id="1776867898298-7286116_linear-gradient-3" x1="249.86" y1="284.66" x2="249.86" y2="505.46" gradientTransform="matrix(1 0 0 -1 0 514)" gradientUnits="userSpaceOnUse"><stop offset="0" stop-color="#f74a00"></stop><stop offset=".13" stop-color="#f75002"></stop><stop offset=".3" stop-color="#f86207"></stop><stop offset=".51" stop-color="#fa8010"></stop><stop offset=".74" stop-color="#fca91c"></stop><stop offset=".98" stop-color="#ffde2b"></stop><stop offset="1" stop-color="#ffe12c"></stop></linearGradient><linearGradient id="1776867898298-7286116_linear-gradient-4" x1="194.05" y1="297.12" x2="194.05" y2="503.11" gradientTransform="matrix(1 0 0 -1 0 514)" gradientUnits="userSpaceOnUse"><stop offset="0" stop-color="#f74a00"></stop><stop offset=".13" stop-color="#f75002"></stop><stop offset=".3" stop-color="#f86207"></stop><stop offset=".51" stop-color="#fa8010"></stop><stop offset=".74" stop-color="#fca91c"></stop><stop offset=".98" stop-color="#ffde2b"></stop><stop offset="1" stop-color="#ffe12c"></stop></linearGradient><linearGradient id="1776867898298-7286116_linear-gradient-5" x1="161.73" y1="296.63" x2="161.73" y2="429.96" gradientTransform="matrix(1 0 0 -1 0 514)" gradientUnits="userSpaceOnUse"><stop offset="0" stop-color="#f74a00"></stop><stop offset=".13" stop-color="#f75002"></stop><stop offset=".3" stop-color="#f86207"></stop><stop offset=".51" stop-color="#fa8010"></stop><stop offset=".74" stop-color="#fca91c"></stop><stop offset=".98" stop-color="#ffde2b"></stop><stop offset="1" stop-color="#ffe12c"></stop></linearGradient><linearGradient id="1776867898298-7286116_linear-gradient-6" x1="294.95" y1="323.14" x2="294.95" y2="480.96" gradientTransform="matrix(1 0 0 -1 0 514)" gradientUnits="userSpaceOnUse"><stop offset="0" stop-color="#f74a00"></stop><stop offset=".13" stop-color="#f75002"></stop><stop offset=".3" stop-color="#f86207"></stop><stop offset=".51" stop-color="#fa8010"></stop><stop offset=".74" stop-color="#fca91c"></stop><stop offset=".98" stop-color="#ffde2b"></stop><stop offset="1" stop-color="#ffe12c"></stop></linearGradient><linearGradient id="1776867898298-7286116_linear-gradient-7" x1="358.8" y1="294.63" x2="358.8" y2="426" gradientTransform="matrix(1 0 0 -1 0 514)" gradientUnits="userSpaceOnUse"><stop offset="0" stop-color="#f74a00"></stop><stop offset=".13" stop-color="#f75002"></stop><stop offset=".3" stop-color="#f86207"></stop><stop offset=".51" stop-color="#fa8010"></stop><stop offset=".74" stop-color="#fca91c"></stop><stop offset=".98" stop-color="#ffde2b"></stop><stop offset="1" stop-color="#ffe12c"></stop></linearGradient><linearGradient id="1776867898298-7286116_linear-gradient-8" x1="397.51" y1="304.81" x2="397.51" y2="347.33" gradientTransform="matrix(1 0 0 -1 0 514)" gradientUnits="userSpaceOnUse"><stop offset="0" stop-color="#f74a00"></stop><stop offset=".13" stop-color="#f75002"></stop><stop offset=".3" stop-color="#f86207"></stop><stop offset=".51" stop-color="#fa8010"></stop><stop offset=".74" stop-color="#fca91c"></stop><stop offset=".98" stop-color="#ffde2b"></stop><stop offset="1" stop-color="#ffe12c"></stop></linearGradient><radialGradient id="1776867898298-7286116_radial-gradient-9" cx="170.72" cy="398.26" fx="170.72" fy="398.26" r="50.4" gradientTransform="matrix(1 0 0 -1 -.37 514)" gradientUnits="userSpaceOnUse"><stop offset=".42" stop-color="#fff"></stop><stop offset="1" stop-color="#fff" stop-opacity="0"></stop></radialGradient><radialGradient id="1776867898298-7286116_radial-gradient-10" cx="323.31" cy="396.4" fx="323.31" fy="396.4" r="50.4" gradientTransform="matrix(1.25 0 0 -1 -149.44 514)" gradientUnits="userSpaceOnUse"><stop offset=".42" stop-color="#fff"></stop><stop offset="1" stop-color="#fff" stop-opacity="0"></stop></radialGradient><radialGradient id="1776867898298-7286116_radial-gradient-11" cx="860.18" cy="398.26" fx="860.18" fy="398.26" r="50.4" gradientTransform="rotate(-180 602.17 257)" gradientUnits="userSpaceOnUse"><stop offset=".42" stop-color="#fff"></stop><stop offset="1" stop-color="#fff" stop-opacity="0"></stop></radialGradient><radialGradient id="1776867898298-7286116_radial-gradient-12" cx="870.72" cy="453.97" fx="870.72" fy="453.97" r="50.4" gradientTransform="rotate(-180 602.17 257)" gradientUnits="userSpaceOnUse"><stop offset=".42" stop-color="#fff"></stop><stop offset="1" stop-color="#fff" stop-opacity="0"></stop></radialGradient></defs><path class="cls-1" d="M120.86,146.37c0,67.2,101.13,67.2,101.13,0s-101.13-67.2-101.13,0Z" fill="#cfd8dd"></path><path class="cls-1" d="M307.14,146.37c0,67.2,101.13,67.2,101.13,0s-101.13-67.2-101.13,0Z" fill="#cfd8dd"></path><path class="cls-17" d="M189.23,110.43s25.88,70.93,27.19,147.32h97.9c1.03-92.12,25.57-147.32,25.57-147.32,0,0-150.66,0-150.66,0Z" fill="url(#1776867898298-7286116_radial-gradient)"></path><path class="cls-1" d="M322.81,50.4c0,67.2-133.63,67.2-133.63,0s133.63-67.2,133.63,0Z" fill="#cfd8dd"></path><path class="cls-1" d="M319.2,117.6c0,67.2-126.4,67.2-126.4,0s126.4-67.2,126.4,0Z" fill="#cfd8dd"></path><path class="cls-1" d="M140.66,125.66c0,67.2-101.13,67.2-101.13,0,0-67.19,101.13-67.19,101.13,0Z" fill="#cfd8dd"></path><path class="cls-1" d="M175.27,87.39c0,67.2-101.13,67.2-101.13,0s101.13-67.21,101.13,0Z" fill="#cfd8dd"></path><path class="cls-1" d="M232.05,60.03c0,67.2-101.14,67.2-101.14,0s101.14-67.2,101.14,0Z" fill="#cfd8dd"></path><path class="cls-1" d="M221.46,115.74c0,67.2-101.13,67.2-101.13,0,0-67.2,101.13-67.2,101.13,0Z" fill="#cfd8dd"></path><path class="cls-1" d="M371.33,125.66c0,67.2,101.13,67.2,101.13,0,0-67.19-101.13-67.19-101.13,0Z" fill="#cfd8dd"></path><path class="cls-1" d="M336.73,87.39c0,67.2,101.13,67.2,101.13,0,0-67.21-101.13-67.21-101.13,0Z" fill="#cfd8dd"></path><path class="cls-1" d="M279.95,60.03c0,67.2,101.14,67.2,101.14,0s-101.14-67.2-101.14,0Z" fill="#cfd8dd"></path><path class="cls-1" d="M290.53,115.74c0,67.2,101.13,67.2,101.13,0,0-67.2-101.13-67.2-101.13,0Z" fill="#cfd8dd"></path><path class="cls-9" d="M322.81,50.4c0,67.2-133.63,67.2-133.63,0s133.63-67.2,133.63,0Z" fill="url(#1776867898298-7286116_radial-gradient-2)"></path><path class="cls-8" d="M140.66,125.66c0,67.2-101.13,67.2-101.13,0,0-67.19,101.13-67.19,101.13,0Z" fill="url(#1776867898298-7286116_radial-gradient-3)"></path><path class="cls-5" d="M175.27,87.39c0,67.2-101.13,67.2-101.13,0s101.13-67.21,101.13,0Z" fill="url(#1776867898298-7286116_radial-gradient-4)"></path><path class="cls-4" d="M232.05,60.03c0,67.2-101.14,67.2-101.14,0s101.14-67.2,101.14,0Z" fill="url(#1776867898298-7286116_radial-gradient-5)"></path><path class="cls-3" d="M371.33,125.66c0,67.2,101.13,67.2,101.13,0,0-67.19-101.13-67.19-101.13,0Z" fill="url(#1776867898298-7286116_radial-gradient-6)"></path><path class="cls-2" d="M336.73,87.39c0,67.2,101.13,67.2,101.13,0,0-67.21-101.13-67.21-101.13,0Z" fill="url(#1776867898298-7286116_radial-gradient-7)"></path><path class="cls-18" d="M0,476.47c0-19.81,52.8-27.79,60.39-59.02,37.19-14.55,50.98-46.53,59.87-75.52,44.24-32.53,88.06-89.65,88.06-89.65h82.37l221.31,224.19c-68.9,23.07-181.25,19.97-181.25,19.97l-85.33,15.56s-105.71-13.56-124.55-29.74l-51.56,4.04S0,483.58,0,476.47Z" fill="url(#1776867898298-7286116_linear-gradient)"></path><path class="cls-22" d="M251.59,252.28l4.92,54.93-18.01,20.67-9.93,36.5-50.93,61.24,84-63.51-32.54,48.81,14.66,50.21-50.4-17.99,52.04,68.86,85.33-15.56-27.02-79.71,104.54,57.59-68.39-76.59-17.91-68.04,96.99,77.96s34,65.9,93.03,68.82c0-24.64-13.7-12.51-74.44-98.7-42.66-20.41-70.41-62.75-112.72-125.48,0,0-73.22,0-73.22,0Z" fill="#45332c"></path><path class="cls-22" d="M174.9 348.12L156.68 385.29 29.8 466.61 172.04 407.19 183.89 354.54 238.72 275.23 174.9 348.12z" fill="#45332c"></path><path class="cls-22" d="M152.97,445.16c-51.2,18.89-83.66,41.14-83.66,41.14l51.56-4.04s10.77-20.7,32.1-37.09Z" fill="#45332c"></path><path class="cls-7" d="M236.56,241.96c-8.23-4.89-26.93-1.6-31.7,8.56-9.05,19.29-38.83,29.62-29.89,40.86,0,0,23.59-24.64,19.37-14.52-15.12,36.18-81.54,78.64-68.72,91.21,12.83,12.55,85.63-104.51,85.21-82.09-1.23,65.22-94.96,177.87-54.06,143.9,70.29-58.35,57.25-145.71,79.13-165.78,9.23-8.47-10.52,31.73,1.37,48.32,11.9,16.61.87-37.57,10.65-44.27,14.76-10.14-3.78,48.54,23.56,69.21,22.18,16.77-2.94,60.8,13.54,54.72,16.51-6.08,15.47-45.6-3.19-62.72-18.65-17.13-17.95-58.8-10.35-62.82,7.61-4.06-3.05,18.67,15.95,29.18,19.25,10.62-9.06-37.26,11.8-21.89,46.75,34.46,40.71,86.44,59.12,111.23,22.38,30.2,46.56,60.7,82.83,60.09,33.28-.55-37.59-14.63-65.87-66-7.13-12.92-12.72-48.54-40.19-85.73-7.86-10.62-7-26.69,42.72,33.57,15.11-13.36-36.23-46.58-48.49-75.97-6.12-14.69-21.85-23.35-41.1-14.14-11.95-7.13-43.42-4.84-51.69,5.09Z" fill="url(#1776867898298-7286116_radial-gradient-8)"></path><path class="cls-16" d="M99.2,199.23c27.66,23.71,113.52,35.23,84.93,17.52-28.59-17.86-102.28-32.44-84.93-17.52Z" fill="url(#1776867898298-7286116_linear-gradient-2)"></path><path class="cls-15" d="M246.46,10.42c-14.24,27.76-6.92,167.99,6.56,213.43,14.34,48.48,7.67-241.19-6.56-213.43Z" fill="url(#1776867898298-7286116_linear-gradient-3)"></path><path class="cls-14" d="M153.16,13.35c-4.28,30.91,48.92,160.85,76.66,199.29,29.56,41.05-72.4-230.18-76.66-199.29Z" fill="url(#1776867898298-7286116_linear-gradient-4)"></path><path class="cls-12" d="M208.04,207.31c-23.58-45.04-93.91-160-95.67-111.61-1.35,38.14,119.22,156.65,95.67,111.61Z" fill="url(#1776867898298-7286116_linear-gradient-5)"></path><path class="cls-13" d="M302.34,34.11c-18.14,17.58-26.38,118.13-17.37,152.4,9.57,36.55,35.46-169.99,17.37-152.4Z" fill="url(#1776867898298-7286116_linear-gradient-6)"></path><path class="cls-11" d="M394.32,88.36c-22.54,9.06-68.59,93.49-74.03,126.28-5.84,34.95,96.54-135.36,74.03-126.28Z" fill="url(#1776867898298-7286116_linear-gradient-7)"></path><path class="cls-10" d="M430.27,171.23c-17.02,24.33-82.41,50.81-63.45,31.04,18.94-19.88,74.11-46.34,63.45-31.04Z" fill="url(#1776867898298-7286116_linear-gradient-8)"></path><path class="cls-6" d="M221.46,115.74c0,67.2-101.13,67.2-101.13,0,0-67.2,101.13-67.2,101.13,0Z" fill="url(#1776867898298-7286116_radial-gradient-9)"></path><path class="cls-20" d="M319.2,117.6c0,67.2-126.4,67.2-126.4,0s126.4-67.2,126.4,0Z" fill="url(#1776867898298-7286116_radial-gradient-10)"></path><path class="cls-21" d="M290.53,115.74c0,67.2,101.13,67.2,101.13,0,0-67.2-101.13-67.2-101.13,0Z" fill="url(#1776867898298-7286116_radial-gradient-11)"></path><path class="cls-19" d="M279.95,60.03c0,67.2,101.14,67.2,101.14,0s-101.14-67.2-101.14,0Z" fill="url(#1776867898298-7286116_radial-gradient-12)"></path></g></svg>