<svg data-name="Layer 1" xmlns="http://www.w3.org/2000/svg" style="" viewBox="0 0 512 512"><g class="nc-icon-wrapper"><defs><radialGradient id="1776732453122-433368_radial-gradient" cx="-256.15" cy="256.15" fx="-256.15" fy="256.15" r="230.36" gradientTransform="rotate(-90 -.15 0)" gradientUnits="userSpaceOnUse"><stop offset="0" stop-color="#bf0000"></stop><stop offset=".54" stop-color="#bf0000"></stop><stop offset=".55" stop-color="#c40700"></stop><stop offset=".59" stop-color="#d92b00"></stop><stop offset=".64" stop-color="#ea4700"></stop><stop offset=".68" stop-color="#f55a00"></stop><stop offset=".73" stop-color="#fd6600"></stop><stop offset=".77" stop-color="#ff6a00"></stop><stop offset=".81" stop-color="#fc6500"></stop><stop offset=".86" stop-color="#f45700"></stop><stop offset=".91" stop-color="#e54000"></stop><stop offset=".96" stop-color="#d21f00"></stop><stop offset="1" stop-color="#bf0000"></stop></radialGradient><radialGradient id="1776732453122-433368_radial-gradient-2" cx="251.91" cy="-162.66" fx="251.91" fy="-162.66" r="182.76" gradientTransform="matrix(1 0 0 -.66 0 .37)" gradientUnits="userSpaceOnUse"><stop offset="0" stop-color="#84898c"></stop><stop offset=".68" stop-color="#84898c"></stop><stop offset=".75" stop-color="#9ca2a6"></stop><stop offset=".85" stop-color="#b5bcc0"></stop><stop offset=".93" stop-color="#c5ccd0"></stop><stop offset="1" stop-color="#cad2d6"></stop></radialGradient><radialGradient id="1776732453122-433368_radial-gradient-3" cx="-260.11" cy="-614.18" fx="-260.11" fy="-614.18" r="182.76" gradientTransform="matrix(-1 0 0 -.66 0 .37)" gradientUnits="userSpaceOnUse"><stop offset="0" stop-color="#84898c"></stop><stop offset=".68" stop-color="#84898c"></stop><stop offset=".75" stop-color="#9ca2a6"></stop><stop offset=".85" stop-color="#b5bcc0"></stop><stop offset=".93" stop-color="#c5ccd0"></stop><stop offset="1" stop-color="#cad2d6"></stop></radialGradient><radialGradient id="1776732453122-433368_radial-gradient-4" cx="1102.05" cy="386.74" fx="1102.05" fy="386.74" r="182.76" gradientTransform="matrix(0 1 .66 0 149.48 -850.14)" gradientUnits="userSpaceOnUse"><stop offset="0" stop-color="#84898c"></stop><stop offset=".68" stop-color="#84898c"></stop><stop offset=".75" stop-color="#9ca2a6"></stop><stop offset=".85" stop-color="#b5bcc0"></stop><stop offset=".93" stop-color="#c5ccd0"></stop><stop offset="1" stop-color="#cad2d6"></stop></radialGradient><radialGradient id="1776732453122-433368_radial-gradient-5" cx="-1110.3" cy="-64.78" fx="-1110.3" fy="-64.78" r="182.76" gradientTransform="matrix(0 -1 .66 0 149.48 -850.15)" gradientUnits="userSpaceOnUse"><stop offset="0" stop-color="#84898c"></stop><stop offset=".68" stop-color="#84898c"></stop><stop offset=".75" stop-color="#9ca2a6"></stop><stop offset=".85" stop-color="#b5bcc0"></stop><stop offset=".93" stop-color="#c5ccd0"></stop><stop offset="1" stop-color="#cad2d6"></stop></radialGradient><linearGradient id="1776732453122-433368_linear-gradient" x1="169.5" y1="-169.48" x2="89.64" y2="-89.62" gradientTransform="scale(1 -1)" gradientUnits="userSpaceOnUse"><stop offset="0" stop-color="#a7b4ba"></stop><stop offset=".22" stop-color="#bec9d0"></stop><stop offset=".48" stop-color="#d2dde5"></stop><stop offset=".75" stop-color="#dfe8f1"></stop><stop offset="1" stop-color="#e3ecf5"></stop></linearGradient><linearGradient id="1776732453122-433368_linear-gradient-2" x1="-1341.53" y1="-356.42" x2="-1421.39" y2="-276.56" gradientTransform="matrix(-1 0 0 1 -1000.01 699.7)" gradientUnits="userSpaceOnUse"><stop offset="0" stop-color="#a7b4ba"></stop><stop offset=".22" stop-color="#bec9d0"></stop><stop offset=".48" stop-color="#d2dde5"></stop><stop offset=".75" stop-color="#dfe8f1"></stop><stop offset="1" stop-color="#e3ecf5"></stop></linearGradient><linearGradient id="1776732453122-433368_linear-gradient-3" x1="1019.63" y1="192.68" x2="939.77" y2="272.54" gradientTransform="matrix(0 1 1 0 149.85 -850.14)" gradientUnits="userSpaceOnUse"><stop offset="0" stop-color="#a7b4ba"></stop><stop offset=".22" stop-color="#bec9d0"></stop><stop offset=".48" stop-color="#d2dde5"></stop><stop offset=".75" stop-color="#dfe8f1"></stop><stop offset="1" stop-color="#e3ecf5"></stop></linearGradient><linearGradient id="1776732453122-433368_linear-gradient-4" x1="-192.66" y1="680.67" x2="-272.52" y2="760.53" gradientTransform="matrix(0 -1 -1 0 850.14 149.85)" gradientUnits="userSpaceOnUse"><stop offset="0" stop-color="#a7b4ba"></stop><stop offset=".22" stop-color="#bec9d0"></stop><stop offset=".48" stop-color="#d2dde5"></stop><stop offset=".75" stop-color="#dfe8f1"></stop><stop offset="1" stop-color="#e3ecf5"></stop></linearGradient></defs><path class="cls-8" d="M256,25.64c31.73,0,61.52,5.97,89.33,17.91,27.81,11.94,52.3,28.49,73.46,49.66,21.16,21.16,37.72,45.65,49.66,73.46,11.94,27.81,17.91,57.59,17.91,89.33s-5.97,61.52-17.91,89.33c-11.94,27.81-28.49,52.3-49.66,73.46s-45.65,37.72-73.46,49.66c-27.81,11.94-57.59,17.91-89.33,17.91s-61.52-5.97-89.33-17.91c-27.81-11.94-52.3-28.49-73.46-49.66-21.16-21.16-37.72-45.65-49.66-73.46-11.94-27.81-17.91-57.59-17.91-89.33s5.97-61.52,17.91-89.33c11.94-27.81,28.49-52.3,49.66-73.46,21.16-21.16,45.65-37.72,73.46-49.66,27.81-11.94,57.59-17.91,89.33-17.91ZM256,380.91c22.86,0,43.77-5.63,62.71-16.89,18.94-11.26,34.04-26.36,45.31-45.31,11.26-18.94,16.89-39.85,16.89-62.71s-5.63-43.77-16.89-62.71c-11.26-18.94-26.36-34.04-45.31-45.31s-39.85-16.89-62.71-16.89-43.77,5.63-62.71,16.89-34.04,26.36-45.31,45.31-16.89,39.85-16.89,62.71,5.63,43.77,16.89,62.71,26.36,34.04,45.31,45.31c18.94,11.26,39.85,16.89,62.71,16.89Z" fill="url(#1776732453122-433368_radial-gradient)"></path><path class="cls-4" d="M380.4,60.95c4.44,2.05,8.27,4.61,11.52,7.68s6.06,6.14,8.45,9.21l-14.84,8.7c-2.73-.68-6.31-2.73-10.75-6.14s-8.02-7.17-10.75-11.26c-3.75-1.02-7.59-2.9-11.52-5.63s-6.91-5.8-8.96-9.21c-3.07-.68-6.74-2.3-11-4.86s-7.42-5.2-9.47-7.93c-3.07-.34-6.31-1.45-9.73-3.33s-6.14-3.84-8.19-5.89c-3.07,0-6.14-.68-9.21-2.05s-5.63-2.9-7.68-4.61c-7.51.34-13.65-1.36-18.43-5.12-2.73.68-6.06.77-9.98.26-3.92-.51-6.74-1.28-8.45-2.3-3.07,1.36-6.57,2.13-10.49,2.3s-7.08.09-9.47-.26c-1.71,1.36-4.09,2.64-7.17,3.84s-5.8,1.45-8.19.77c-1.36,2.05-4.01,4.01-7.93,5.89-3.92,1.88-6.91,2.64-8.96,2.3-.68,2.05-3.16,4.44-7.42,7.17s-7.76,4.27-10.49,4.61c-1.02,2.39-3.24,4.78-6.65,7.17s-6.31,3.75-8.7,4.09c-.34,2.05-2.9,4.86-7.68,8.45-4.78,3.59-8.87,5.72-12.28,6.4-2.73,3.41-6.4,6.65-11,9.73s-8.79,5.29-12.54,6.65l-10.75-12.28c.68-1.02,2.73-2.82,6.14-5.37s6.48-4.35,9.21-5.37c.68-1.71,3.33-4.44,7.93-8.19s8.1-5.46,10.49-5.12c.34-1.71,2.64-4.18,6.91-7.42s7.59-5.03,9.98-5.37c.68-2.05,3.16-4.52,7.42-7.42s7.76-4.69,10.49-5.37c.68-2.05,3.16-4.27,7.42-6.65s7.42-3.41,9.47-3.07c1.36-2.39,4.27-4.44,8.7-6.14s7.51-2.22,9.21-1.54c1.71-2.05,5.2-3.67,10.49-4.86s8.96-1.28,11-.26c2.39-1.71,5.63-2.73,9.73-3.07s7.68.51,10.75,2.56c2.73-1.36,6.23-1.71,10.49-1.02s7.76,2.05,10.49,4.09c2.39-.68,5.55-.43,9.47.77s7.25,2.82,9.98,4.86c2.05-.34,5.29.43,9.73,2.3s8.02,4.18,10.75,6.91c2.39-.34,5.89.77,10.49,3.33s8.1,5.2,10.49,7.93c3.41,1.36,7.25,3.41,11.52,6.14s7.42,5.46,9.47,8.19c3.41,1.36,7,3.33,10.75,5.89s7,5.55,9.73,8.96v-.04Z" fill="url(#1776732453122-433368_radial-gradient-2)"></path><path class="cls-9" d="M383.98,85.53c-4.78-5.8-6.57-11.35-5.37-16.64s1.79-7.93,1.79-7.93c0,0-.09,2.64-.26,7.93s1.11,10.83,3.84,16.64ZM364.02,69.14c-5.12-5.46-7.08-10.66-5.89-15.61s1.79-7.42,1.79-7.42v7.42c0,4.95,1.36,10.15,4.09,15.61h.01ZM343.54,54.3c-5.12-5.46-7.17-10.58-6.14-15.36s1.54-7.17,1.54-7.17c0,0,.09,2.39.26,7.17s1.62,9.9,4.35,15.36h-.01ZM322.55,41.5c-4.78-5.46-6.74-10.32-5.89-14.59s1.28-6.4,1.28-6.4c0,0,.09,2.05.26,6.14s1.62,9.04,4.35,14.84h0ZM305.15,32.29c-5.46-5.46-8.1-10.32-7.93-14.59s.26-6.4.26-6.4c0,0,.43,2.13,1.28,6.4.85,4.27,2.99,9.13,6.4,14.59h-.01ZM288.25,25.64c-6.14-4.78-9.38-9.3-9.73-13.56s-.51-6.4-.51-6.4l2.3,6.14c1.54,4.09,4.18,8.7,7.93,13.82h.01ZM269.82,20.52c-6.82-3.41-10.66-7.25-11.52-11.52s-1.28-6.4-1.28-6.4c0,0,1.02,1.88,3.07,5.63,2.05,3.75,5.29,7.85,9.73,12.28h0ZM251.39,18.47c-7.51-1.36-11.86-4.27-13.05-8.7s-1.79-6.65-1.79-6.65c0,0,1.11,1.88,3.33,5.63,2.22,3.75,6.06,7,11.52,9.73h-.01ZM231.43,20.52c-5.12.34-8.79-.6-11-2.82s-3.67-4.35-4.35-6.4-1.02-3.07-1.02-3.07c0,0,1.19,1.71,3.58,5.12,2.39,3.41,6.65,5.8,12.8,7.17h0ZM216.07,25.12c-5.12,1.02-9.04.77-11.77-.77s-4.61-3.33-5.63-5.37l-1.54-3.07s1.54,1.45,4.61,4.35,7.85,4.52,14.33,4.86ZM199.17,33.31c-4.44,1.71-8.1,1.88-11,.51s-4.95-3.07-6.14-5.12-1.79-3.07-1.79-3.07c0,0,1.62,1.45,4.86,4.35s7.93,4.01,14.08,3.33h-.01ZM181.26,45.09c-4.78,2.05-8.53,2.39-11.26,1.02s-4.69-2.99-5.89-4.86-1.79-2.82-1.79-2.82l4.61,3.84c3.07,2.56,7.85,3.5,14.33,2.82h0ZM165.9,56.35c-4.09,2.73-7.68,3.58-10.75,2.56s-5.46-2.56-7.17-4.61-2.56-3.07-2.56-3.07c0,0,1.88,1.36,5.63,4.09s8.7,3.07,14.84,1.02h0ZM145.93,71.19c-4.09,3.07-7.59,3.92-10.49,2.56s-5.03-3.24-6.4-5.63-2.05-3.58-2.05-3.58c0,0,1.62,1.62,4.86,4.86s7.93,3.84,14.08,1.79Z" fill="#757b7d"></path><path class="cls-3" d="M131.6,451.05c-4.44-2.05-8.27-4.61-11.52-7.68s-6.06-6.14-8.45-9.21l14.84-8.7c2.73.68,6.31,2.73,10.75,6.14s8.02,7.17,10.75,11.26c3.75,1.02,7.59,2.9,11.52,5.63s6.91,5.8,8.96,9.21c3.07.68,6.74,2.3,11,4.86,4.26,2.56,7.42,5.2,9.47,7.93,3.07.34,6.31,1.45,9.73,3.33s6.14,3.84,8.19,5.89c3.07,0,6.14.68,9.21,2.05s5.63,2.9,7.68,4.61c7.51-.34,13.65,1.36,18.43,5.12,2.73-.68,6.06-.77,9.98-.26s6.74,1.28,8.45,2.3c3.07-1.36,6.57-2.13,10.49-2.3s7.08-.09,9.47.26c1.71-1.36,4.09-2.64,7.17-3.84s5.8-1.45,8.19-.77c1.36-2.05,4.01-4.01,7.93-5.89s6.91-2.64,8.96-2.3c.68-2.05,3.24-4.44,7.68-7.17s7.85-4.27,10.24-4.61c1.02-2.39,3.24-4.78,6.65-7.17s6.31-3.75,8.7-4.09c.34-2.05,2.9-4.86,7.68-8.45s8.87-5.72,12.28-6.4c2.73-3.41,6.4-6.65,11-9.73s8.79-5.29,12.54-6.65l10.75,12.28c-.68,1.02-2.73,2.82-6.14,5.37s-6.48,4.18-9.21,4.86c-.68,2.05-3.33,4.95-7.93,8.7-4.6,3.75-8.1,5.46-10.49,5.12-.34,1.71-2.64,4.18-6.91,7.42-4.27,3.24-7.59,5.03-9.98,5.37-.68,2.05-3.16,4.52-7.42,7.42s-7.76,4.69-10.49,5.37c-.68,2.05-3.16,4.27-7.42,6.65-4.27,2.39-7.42,3.41-9.47,3.07-1.36,2.39-4.27,4.44-8.7,6.14-4.44,1.71-7.51,2.22-9.21,1.54-1.71,2.05-5.2,3.67-10.49,4.86s-8.96,1.28-11,.26c-2.39,1.71-5.63,2.73-9.73,3.07s-7.68-.51-10.75-2.56c-2.73,1.36-6.23,1.71-10.49,1.02s-7.76-2.05-10.49-4.09c-2.39.68-5.55.43-9.47-.77s-7.25-2.82-9.98-4.86c-2.05.34-5.29-.43-9.73-2.3s-8.02-4.18-10.75-6.91c-2.39.34-5.89-.77-10.49-3.33-4.6-2.56-8.1-5.2-10.49-7.93-3.41-1.36-7.25-3.41-11.52-6.14s-7.42-5.46-9.47-8.19c-3.41-1.36-7-3.33-10.75-5.89s-7-5.55-9.73-8.96l-.02.04Z" fill="url(#1776732453122-433368_radial-gradient-3)"></path><path class="cls-9" d="M127.03,427.23c4.78,5.8,6.57,11.35,5.37,16.64s-1.79,7.93-1.79,7.93c0,0,.09-2.64.26-7.93s-1.11-10.83-3.84-16.64h0ZM146.99,443.62c5.12,5.46,7.08,10.66,5.89,15.61s-1.79,7.42-1.79,7.42v-7.42c0-4.95-1.36-10.15-4.09-15.61h-.01ZM167.48,458.46c5.12,5.46,7.17,10.58,6.14,15.36s-1.54,7.17-1.54,7.17c0,0-.09-2.39-.26-7.17s-1.62-9.9-4.35-15.36h0ZM188.46,471.26c4.78,5.46,6.74,10.32,5.89,14.59s-1.28,6.4-1.28,6.4c0,0-.09-2.05-.26-6.14s-1.62-9.04-4.35-14.84h0ZM205.87,480.47c5.46,5.46,8.1,10.32,7.93,14.59s-.26,6.4-.26,6.4c0,0-.43-2.13-1.28-6.4s-2.99-9.13-6.4-14.59h0ZM222.77,487.12c6.14,4.78,9.38,9.3,9.73,13.56s.51,6.4.51,6.4l-2.3-6.14c-1.54-4.09-4.18-8.7-7.93-13.82h0ZM241.19,492.24c6.82,3.41,10.66,7.25,11.52,11.52s1.28,6.4,1.28,6.4c0,0-1.02-1.88-3.07-5.63s-5.29-7.85-9.73-12.28h0ZM259.62,494.29c7.51,1.36,11.86,4.27,13.05,8.7s1.79,6.65,1.79,6.65c0,0-1.11-1.88-3.33-5.63s-6.06-7-11.52-9.73h0ZM279.58,492.24c5.12-.34,8.79.6,11,2.82s3.67,4.35,4.35,6.4,1.02,3.07,1.02,3.07c0,0-1.19-1.71-3.58-5.12s-6.65-5.8-12.8-7.17h0ZM294.95,487.63c5.12-1.02,9.04-.77,11.77.77s4.61,3.33,5.63,5.37l1.54,3.07s-1.54-1.45-4.61-4.35c-3.07-2.9-7.85-4.52-14.33-4.86h0ZM311.84,479.45c4.44-1.71,8.1-1.88,11-.51s4.95,3.07,6.14,5.12,1.79,3.07,1.79,3.07c0,0-1.62-1.45-4.86-4.35s-7.93-4.01-14.08-3.33h0ZM329.76,467.67c4.78-2.05,8.53-2.39,11.26-1.02s4.69,2.99,5.89,4.86,1.79,2.82,1.79,2.82l-4.61-3.84c-3.07-2.56-7.85-3.5-14.33-2.82h0ZM345.11,456.41c4.09-2.73,7.68-3.58,10.75-2.56s5.46,2.56,7.17,4.61,2.56,3.07,2.56,3.07c0,0-1.88-1.36-5.63-4.09s-8.7-3.07-14.84-1.02h-.01ZM365.08,441.57c4.09-3.07,7.59-3.92,10.49-2.56s5.03,3.24,6.4,5.63,2.05,3.58,2.05,3.58l-4.86-4.86c-3.24-3.24-7.93-3.84-14.08-1.79Z" fill="#757b7d"></path><path class="cls-2" d="M451.05,380.4c-2.05,4.44-4.61,8.27-7.68,11.52s-6.14,6.06-9.21,8.45l-8.7-14.84c.68-2.73,2.73-6.31,6.14-10.75s7.17-8.02,11.26-10.75c1.02-3.75,2.9-7.59,5.63-11.52s5.8-6.91,9.21-8.96c.68-3.07,2.3-6.74,4.86-11s5.2-7.42,7.93-9.47c.34-3.07,1.45-6.31,3.33-9.73s3.84-6.14,5.89-8.19c0-3.07.68-6.14,2.05-9.21s2.9-5.63,4.61-7.68c-.34-7.51,1.36-13.65,5.12-18.43-.68-2.73-.77-6.06-.26-9.98.51-3.92,1.28-6.74,2.3-8.45-1.36-3.07-2.13-6.57-2.3-10.49s-.09-7.08.26-9.47c-1.36-1.71-2.64-4.09-3.84-7.17s-1.45-5.8-.77-8.19c-2.05-1.36-4.01-4.01-5.89-7.93s-2.64-6.91-2.3-8.96c-2.05-.68-4.44-3.16-7.17-7.42s-4.27-7.76-4.61-10.49c-2.39-1.02-4.78-3.24-7.17-6.65s-3.75-6.31-4.09-8.7c-2.05-.34-4.86-2.9-8.45-7.68-3.58-4.78-5.72-8.87-6.4-12.28-3.41-2.73-6.65-6.4-9.73-11s-5.29-8.79-6.65-12.54l12.28-10.75c1.02.68,2.82,2.73,5.37,6.14s4.35,6.48,5.37,9.21c1.71.68,4.44,3.33,8.19,7.93,3.75,4.6,5.46,8.1,5.12,10.49,1.71.34,4.18,2.64,7.42,6.91,3.24,4.27,5.03,7.59,5.37,9.98,2.05.68,4.52,3.16,7.42,7.42s4.69,7.76,5.37,10.49c2.05.68,4.27,3.16,6.65,7.42s3.41,7.42,3.07,9.47c2.39,1.36,4.44,4.27,6.14,8.7s2.22,7.51,1.54,9.21c2.05,1.71,3.67,5.2,4.86,10.49s1.28,8.96.26,11c1.71,2.39,2.73,5.63,3.07,9.73s-.51,7.68-2.56,10.75c1.36,2.73,1.71,6.23,1.02,10.49s-2.05,7.76-4.09,10.49c.68,2.39.43,5.55-.77,9.47s-2.82,7.25-4.86,9.98c.34,2.05-.43,5.29-2.3,9.73s-4.18,8.02-6.91,10.75c.34,2.39-.77,5.89-3.33,10.49s-5.2,8.1-7.93,10.49c-1.36,3.41-3.41,7.25-6.14,11.52s-5.46,7.42-8.19,9.47c-1.36,3.41-3.33,7-5.89,10.75-2.56,3.75-5.55,7-8.96,9.73h.04Z" fill="url(#1776732453122-433368_radial-gradient-4)"></path><path class="cls-9" d="M426.47,383.98c5.8-4.78,11.35-6.57,16.64-5.37s7.93,1.79,7.93,1.79c0,0-2.64-.09-7.93-.26s-10.83,1.11-16.64,3.84ZM442.86,364.02c5.46-5.12,10.66-7.08,15.61-5.89s7.42,1.79,7.42,1.79h-7.42c-4.95,0-10.15,1.36-15.61,4.09h0ZM457.7,343.54c5.46-5.12,10.58-7.17,15.36-6.14s7.17,1.54,7.17,1.54c0,0-2.39.09-7.17.26s-9.9,1.62-15.36,4.35h0ZM470.5,322.55c5.46-4.78,10.32-6.74,14.59-5.89s6.4,1.28,6.4,1.28c0,0-2.05.09-6.14.26s-9.04,1.62-14.84,4.35h0ZM479.71,305.15c5.46-5.46,10.32-8.1,14.59-7.93s6.4.26,6.4.26c0,0-2.13.43-6.4,1.28s-9.13,2.99-14.59,6.4h0ZM486.36,288.25c4.78-6.14,9.3-9.38,13.56-9.73s6.4-.51,6.4-.51l-6.14,2.3c-4.09,1.54-8.7,4.18-13.82,7.93h0ZM491.48,269.82c3.41-6.82,7.25-10.66,11.52-11.52s6.4-1.28,6.4-1.28c0,0-1.88,1.02-5.63,3.07s-7.85,5.29-12.28,9.73h0ZM493.53,251.39c1.36-7.51,4.27-11.86,8.7-13.05s6.65-1.79,6.65-1.79c0,0-1.88,1.11-5.63,3.33s-7,6.06-9.73,11.52h.01ZM491.48,231.43c-.34-5.12.6-8.79,2.82-11s4.35-3.67,6.4-4.35,3.07-1.02,3.07-1.02c0,0-1.71,1.19-5.12,3.58s-5.8,6.65-7.17,12.8h0ZM486.88,216.07c-1.02-5.12-.77-9.04.77-11.77s3.33-4.61,5.37-5.63l3.07-1.54s-1.45,1.54-4.35,4.61-4.52,7.85-4.86,14.33ZM478.69,199.17c-1.71-4.44-1.88-8.1-.51-11s3.07-4.95,5.12-6.14,3.07-1.79,3.07-1.79c0,0-1.45,1.62-4.35,4.86s-4.01,7.93-3.33,14.08h0ZM466.91,181.26c-2.05-4.78-2.39-8.53-1.02-11.26s2.99-4.69,4.86-5.89,2.82-1.79,2.82-1.79l-3.84,4.61c-2.56,3.07-3.5,7.85-2.82,14.33h0ZM455.65,165.9c-2.73-4.09-3.58-7.68-2.56-10.75s2.56-5.46,4.61-7.17,3.07-2.56,3.07-2.56c0,0-1.36,1.88-4.09,5.63s-3.07,8.7-1.02,14.84h-.01ZM440.81,145.93c-3.07-4.09-3.92-7.59-2.56-10.49s3.24-5.03,5.63-6.4,3.58-2.05,3.58-2.05c0,0-1.62,1.62-4.86,4.86s-3.84,7.93-1.79,14.08Z" fill="#757b7d"></path><path class="cls-1" d="M60.95,131.6c2.05-4.44,4.61-8.27,7.68-11.52s6.14-6.06,9.21-8.45l8.7,14.84c-.68,2.73-2.73,6.31-6.14,10.75-3.41,4.44-7.17,8.02-11.26,10.75-1.02,3.75-2.9,7.59-5.63,11.52s-5.8,6.91-9.21,8.96c-.68,3.07-2.3,6.74-4.86,11s-5.2,7.42-7.93,9.47c-.34,3.07-1.45,6.31-3.33,9.73s-3.84,6.14-5.89,8.19c0,3.07-.68,6.14-2.05,9.21s-2.9,5.63-4.61,7.68c.34,7.51-1.36,13.65-5.12,18.43.68,2.73.77,6.06.26,9.98s-1.28,6.74-2.3,8.45c1.36,3.07,2.13,6.57,2.3,10.49s.09,7.08-.26,9.47c1.36,1.71,2.64,4.09,3.84,7.17s1.45,5.8.77,8.19c2.05,1.36,4.01,4.01,5.89,7.93,1.88,3.92,2.64,6.91,2.3,8.96,2.05.68,4.44,3.24,7.17,7.68s4.27,7.85,4.61,10.24c2.39,1.02,4.78,3.24,7.17,6.65s3.75,6.31,4.09,8.7c2.05.34,4.86,2.9,8.45,7.68,3.59,4.78,5.72,8.87,6.4,12.28,3.41,2.73,6.65,6.4,9.73,11s5.29,8.79,6.65,12.54l-12.28,10.75c-1.02-.68-2.82-2.73-5.37-6.14s-4.18-6.48-4.86-9.21c-2.05-.68-4.95-3.33-8.7-7.93s-5.46-8.1-5.12-10.49c-1.71-.34-4.18-2.64-7.42-6.91-3.24-4.27-5.03-7.59-5.37-9.98-2.05-.68-4.52-3.16-7.42-7.42s-4.69-7.76-5.37-10.49c-2.05-.68-4.27-3.16-6.65-7.42s-3.41-7.42-3.07-9.47c-2.39-1.36-4.44-4.27-6.14-8.7-1.71-4.44-2.22-7.51-1.54-9.21-2.05-1.71-3.67-5.2-4.86-10.49s-1.28-8.96-.26-11c-1.71-2.39-2.73-5.63-3.07-9.73s.51-7.68,2.56-10.75c-1.36-2.73-1.71-6.23-1.02-10.49s2.05-7.76,4.09-10.49c-.68-2.39-.43-5.55.77-9.47s2.82-7.25,4.86-9.98c-.34-2.05.43-5.29,2.3-9.73s4.18-8.02,6.91-10.75c-.34-2.39.77-5.89,3.33-10.49s5.2-8.1,7.93-10.49c1.36-3.41,3.41-7.25,6.14-11.52s5.46-7.42,8.19-9.47c1.36-3.41,3.33-7,5.89-10.75s5.55-7,8.96-9.73l-.04-.02Z" fill="url(#1776732453122-433368_radial-gradient-5)"></path><path class="cls-9" d="M85.53,128.02c-5.8,4.78-11.35,6.57-16.64,5.37s-7.93-1.79-7.93-1.79c0,0,2.64.09,7.93.26s10.83-1.11,16.64-3.84ZM69.14,147.98c-5.46,5.12-10.66,7.08-15.61,5.89s-7.42-1.79-7.42-1.79h7.42c4.95,0,10.15-1.36,15.61-4.09h0ZM54.3,168.46c-5.46,5.12-10.58,7.17-15.36,6.14s-7.17-1.54-7.17-1.54c0,0,2.39-.09,7.17-.26s9.9-1.62,15.36-4.35h0ZM41.5,189.45c-5.46,4.78-10.32,6.74-14.59,5.89s-6.4-1.28-6.4-1.28c0,0,2.05-.09,6.14-.26s9.04-1.62,14.84-4.35h.01ZM32.29,206.85c-5.46,5.46-10.32,8.1-14.59,7.93s-6.4-.26-6.4-.26c0,0,2.13-.43,6.4-1.28,4.27-.85,9.13-2.99,14.59-6.4h0ZM25.64,223.75c-4.78,6.14-9.3,9.38-13.56,9.73s-6.4.51-6.4.51l6.14-2.3c4.09-1.54,8.7-4.18,13.82-7.93h0ZM20.52,242.18c-3.41,6.82-7.25,10.66-11.52,11.52s-6.4,1.28-6.4,1.28c0,0,1.88-1.02,5.63-3.07,3.75-2.05,7.85-5.29,12.28-9.73h.01ZM18.47,260.61c-1.36,7.51-4.27,11.86-8.7,13.05s-6.65,1.79-6.65,1.79c0,0,1.88-1.11,5.63-3.33,3.75-2.22,7-6.06,9.73-11.52h-.01ZM20.52,280.57c.34,5.12-.6,8.79-2.82,11s-4.35,3.67-6.4,4.35-3.07,1.02-3.07,1.02c0,0,1.71-1.19,5.12-3.58,3.41-2.39,5.8-6.65,7.17-12.8h0ZM25.12,295.93c1.02,5.12.77,9.04-.77,11.77s-3.33,4.61-5.37,5.63l-3.07,1.54s1.45-1.54,4.35-4.61,4.52-7.85,4.86-14.33h0ZM33.31,312.83c1.71,4.44,1.88,8.1.51,11s-3.07,4.95-5.12,6.14-3.07,1.79-3.07,1.79c0,0,1.45-1.62,4.35-4.86s4.01-7.93,3.33-14.08h0ZM45.09,330.74c2.05,4.78,2.39,8.53,1.02,11.26s-2.99,4.69-4.86,5.89-2.82,1.79-2.82,1.79l3.84-4.61c2.56-3.07,3.5-7.85,2.82-14.33h0ZM56.35,346.1c2.73,4.09,3.58,7.68,2.56,10.75s-2.56,5.46-4.61,7.17-3.07,2.56-3.07,2.56c0,0,1.36-1.88,4.09-5.63s3.07-8.7,1.02-14.84h0ZM71.19,366.07c3.07,4.09,3.92,7.59,2.56,10.49s-3.24,5.03-5.63,6.4-3.58,2.05-3.58,2.05c0,0,1.62-1.62,4.86-4.86s3.84-7.93,1.79-14.08Z" fill="#757b7d"></path><path class="cls-10" d="M181.26,157.2c-1.71,1.36-4.18,3.58-7.42,6.65s-6.4,6.23-9.47,9.47-5.29,5.72-6.65,7.42c-1.02,2.05-4.52,1.62-10.49-1.28s-13.05-7.17-21.24-12.8-16.29-11.77-24.31-18.43c-8.02-6.65-14.76-12.8-20.22-18.43s-8.36-9.98-8.7-13.05c-.68-2.73.68-6.65,4.09-11.77s7.76-10.32,13.05-15.61,10.49-9.64,15.61-13.05,9.04-4.78,11.77-4.09c2.39.34,6.4,3.24,12.03,8.7,5.63,5.46,11.77,12.2,18.43,20.22s12.88,16.04,18.68,24.06c5.8,8.02,10.24,15.1,13.31,21.24s3.58,9.73,1.54,10.75h-.01Z" fill="url(#1776732453122-433368_linear-gradient)"></path><path class="cls-7" d="M329.76,355.56c1.71-1.36,4.18-3.58,7.42-6.65s6.4-6.23,9.47-9.47,5.29-5.72,6.65-7.42c1.02-2.05,4.52-1.62,10.49,1.28s13.05,7.17,21.24,12.8c8.19,5.63,16.29,11.77,24.31,18.43,8.02,6.65,14.76,12.8,20.22,18.43s8.36,9.98,8.7,13.05c.68,2.73-.68,6.65-4.09,11.77s-7.76,10.32-13.05,15.61-10.49,9.64-15.61,13.05-9.04,4.78-11.77,4.09c-2.39-.34-6.4-3.24-12.03-8.7s-11.77-12.2-18.43-20.22-12.88-16.04-18.68-24.06c-5.8-8.02-10.24-15.1-13.31-21.24-3.07-6.14-3.58-9.73-1.54-10.75h0Z" fill="url(#1776732453122-433368_linear-gradient-2)"></path><path class="cls-6" d="M354.8,181.26c-1.36-1.71-3.58-4.18-6.65-7.42s-6.23-6.4-9.47-9.47-5.72-5.29-7.42-6.65c-2.05-1.02-1.62-4.52,1.28-10.49s7.17-13.05,12.8-21.24c5.63-8.19,11.77-16.29,18.43-24.31s12.8-14.76,18.43-20.22c5.63-5.46,9.98-8.36,13.05-8.7,2.73-.68,6.65.68,11.77,4.09s10.32,7.76,15.61,13.05,9.64,10.49,13.05,15.61c3.41,5.12,4.78,9.04,4.09,11.77-.34,2.39-3.24,6.4-8.7,12.03-5.46,5.63-12.2,11.77-20.22,18.43-8.02,6.65-16.04,12.88-24.06,18.68-8.02,5.8-15.1,10.24-21.24,13.31-6.14,3.07-9.73,3.58-10.75,1.54h0Z" fill="url(#1776732453122-433368_linear-gradient-3)"></path><path class="cls-5" d="M157.2,330.74c1.36,1.71,3.58,4.18,6.65,7.42s6.23,6.4,9.47,9.47,5.72,5.29,7.42,6.65c2.05,1.02,1.62,4.52-1.28,10.49s-7.17,13.05-12.8,21.24-11.77,16.29-18.43,24.31c-6.65,8.02-12.8,14.76-18.43,20.22-5.63,5.46-9.98,8.36-13.05,8.7-2.73.68-6.65-.68-11.77-4.09s-10.32-7.76-15.61-13.05-9.64-10.49-13.05-15.61-4.78-9.04-4.09-11.77c.34-2.39,3.24-6.4,8.7-12.03s12.2-11.77,20.22-18.43,16.04-12.88,24.06-18.68c8.02-5.8,15.1-10.24,21.24-13.31s9.73-3.58,10.75-1.54h0Z" fill="url(#1776732453122-433368_linear-gradient-4)"></path></g></svg>