<svg data-name="Layer 1" xmlns="http://www.w3.org/2000/svg" style="" viewBox="0 0 409.61 512"><g class="nc-icon-wrapper"><defs><radialGradient id="1776867898287-9755567_radial-gradient" cx="210.69" cy="293.38" fx="210.69" fy="293.38" r="117.75" gradientTransform="matrix(.98 0 0 -1.79 -2.58 888.71)" gradientUnits="userSpaceOnUse"><stop offset="0" stop-color="#f7fafc"></stop><stop offset=".21" stop-color="#f3f6f8"></stop><stop offset=".42" stop-color="#e7ebed"></stop><stop offset=".63" stop-color="#d2d7da"></stop><stop offset=".84" stop-color="#b6bcbf"></stop><stop offset="1" stop-color="#9ba3a6"></stop></radialGradient><radialGradient id="1776867898287-9755567_radial-gradient-2" cx="205.1" cy="-45.17" fx="205.1" fy="-45.17" r="96.03" gradientTransform="matrix(1 0 0 -.76 -.29 403.02)" gradientUnits="userSpaceOnUse"><stop offset="0" stop-color="#1a1626"></stop><stop offset="1" stop-color="#1a1626" stop-opacity="0"></stop></radialGradient><radialGradient id="1776867898287-9755567_radial-gradient-3" cx="205.09" cy="317.3" fx="205.09" fy="317.3" r="238.56" gradientTransform="matrix(1 0 0 -1 -.29 514)" gradientUnits="userSpaceOnUse"><stop offset="0" stop-color="#f7fafc"></stop><stop offset=".46" stop-color="#f5f8fa"></stop><stop offset=".62" stop-color="#eef2f4"></stop><stop offset=".74" stop-color="#e3e7e9"></stop><stop offset=".83" stop-color="#d2d7da"></stop><stop offset=".91" stop-color="#bcc2c6"></stop><stop offset=".98" stop-color="#a1aaad"></stop><stop offset="1" stop-color="#99a2a6"></stop></radialGradient><linearGradient id="1776867898287-9755567_linear-gradient" x1="405.05" y1="225.43" x2="360.86" y2="358.02" gradientTransform="matrix(1 0 0 -1 0 514)" gradientUnits="userSpaceOnUse"><stop offset="0" stop-color="#99a2a6" stop-opacity=".3"></stop><stop offset=".82" stop-color="#99a2a6" stop-opacity="0"></stop></linearGradient><linearGradient id="1776867898287-9755567_linear-gradient-2" x1="326.39" y1="225.43" x2="282.2" y2="358.02" gradientTransform="rotate(-180 165.475 257)" gradientUnits="userSpaceOnUse"><stop offset="0" stop-color="#99a2a6" stop-opacity=".3"></stop><stop offset=".82" stop-color="#99a2a6" stop-opacity="0"></stop></linearGradient><radialGradient id="1776867898287-9755567_radial-gradient-4" cx="206.17" cy="213.2" fx="206.17" fy="213.2" r="37.98" gradientTransform="matrix(1 0 0 -1.32 -2.9 674.29)" gradientUnits="userSpaceOnUse"><stop offset="0" stop-color="#4e5e67"></stop><stop offset=".36" stop-color="#4c5b65"></stop><stop offset=".6" stop-color="#47535d"></stop><stop offset=".8" stop-color="#3e4450"></stop><stop offset=".98" stop-color="#322f3e"></stop><stop offset="1" stop-color="#302c3b"></stop></radialGradient><radialGradient id="1776867898287-9755567_radial-gradient-5" cx="130.35" cy="167.9" fx="130.35" fy="167.9" r="58.88" gradientTransform="matrix(-1.07 0 0 -1.02 427.53 480.13)" gradientUnits="userSpaceOnUse"><stop offset="0" stop-color="#4e5e67"></stop><stop offset=".36" stop-color="#4c5b65"></stop><stop offset=".6" stop-color="#47535d"></stop><stop offset=".8" stop-color="#3e4450"></stop><stop offset=".98" stop-color="#322f3e"></stop><stop offset="1" stop-color="#302c3b"></stop></radialGradient><radialGradient id="1776867898287-9755567_radial-gradient-6" cx="216.69" cy="167.9" fx="216.69" fy="167.9" r="58.88" gradientTransform="matrix(1.07 0 0 -1.02 -110.68 480.13)" gradientUnits="userSpaceOnUse"><stop offset="0" stop-color="#4e5e67"></stop><stop offset=".36" stop-color="#4c5b65"></stop><stop offset=".6" stop-color="#47535d"></stop><stop offset=".8" stop-color="#3e4450"></stop><stop offset=".98" stop-color="#322f3e"></stop><stop offset="1" stop-color="#302c3b"></stop></radialGradient><linearGradient id="1776867898287-9755567_linear-gradient-3" x1="317.32" y1="57.9" x2="323.06" y2="89.74" gradientTransform="rotate(-169.78 248.425 270.245)" gradientUnits="userSpaceOnUse"><stop offset=".08" stop-color="#a0a4a6"></stop><stop offset=".21" stop-color="#aeb1b3"></stop><stop offset=".47" stop-color="#c1c3c5"></stop><stop offset=".73" stop-color="#ccced0"></stop><stop offset="1" stop-color="#d0d2d4"></stop></linearGradient><linearGradient id="1776867898287-9755567_linear-gradient-4" x1="310.56" y1="52.03" x2="314.88" y2="82.87" gradientTransform="rotate(-172.02 246.17 267.216)" gradientUnits="userSpaceOnUse"><stop offset=".08" stop-color="#a5aaab"></stop><stop offset=".26" stop-color="#babdbf"></stop><stop offset=".5" stop-color="#cdd0d1"></stop><stop offset=".74" stop-color="#d8dadc"></stop><stop offset="1" stop-color="#dcdee0"></stop></linearGradient><linearGradient id="1776867898287-9755567_linear-gradient-5" x1="296.4" y1="50.72" x2="300.88" y2="82.01" gradientTransform="rotate(-171.85 246.32 267.506)" gradientUnits="userSpaceOnUse"><stop offset=".08" stop-color="#a0a4a6"></stop><stop offset=".21" stop-color="#aeb1b3"></stop><stop offset=".47" stop-color="#c1c3c5"></stop><stop offset=".73" stop-color="#ccced0"></stop><stop offset="1" stop-color="#d0d2d4"></stop></linearGradient><linearGradient id="1776867898287-9755567_linear-gradient-6" x1="284.22" y1="46.06" x2="288.07" y2="77.65" gradientTransform="rotate(-173.04 245.11 265.583)" gradientUnits="userSpaceOnUse"><stop offset=".08" stop-color="#b8bdbf"></stop><stop offset=".21" stop-color="#c6cacc"></stop><stop offset=".47" stop-color="#d9dcde"></stop><stop offset=".73" stop-color="#e4e7e9"></stop><stop offset="1" stop-color="#e8ebed"></stop></linearGradient><linearGradient id="1776867898287-9755567_linear-gradient-7" x1="281.57" y1="32.85" x2="281.57" y2="63.78" gradientTransform="rotate(-180 237.875 257)" gradientUnits="userSpaceOnUse"><stop offset=".08" stop-color="#b8bdbf"></stop><stop offset=".21" stop-color="#c6cacc"></stop><stop offset=".47" stop-color="#d9dcde"></stop><stop offset=".73" stop-color="#e4e7e9"></stop><stop offset="1" stop-color="#e8ebed"></stop></linearGradient><linearGradient id="1776867898287-9755567_linear-gradient-8" x1="524.41" y1="20.54" x2="530.15" y2="52.39" gradientTransform="scale(1 -1) rotate(10.22 3121.664 -1664.442)" gradientUnits="userSpaceOnUse"><stop offset=".08" stop-color="#a0a4a6"></stop><stop offset=".21" stop-color="#aeb1b3"></stop><stop offset=".47" stop-color="#c1c3c5"></stop><stop offset=".73" stop-color="#ccced0"></stop><stop offset="1" stop-color="#d0d2d4"></stop></linearGradient><linearGradient id="1776867898287-9755567_linear-gradient-9" x1="518.96" y1="22.82" x2="523.28" y2="53.66" gradientTransform="scale(1 -1) rotate(7.98 3930.563 -2101.54)" gradientUnits="userSpaceOnUse"><stop offset=".08" stop-color="#a5aaab"></stop><stop offset=".26" stop-color="#babdbf"></stop><stop offset=".5" stop-color="#cdd0d1"></stop><stop offset=".74" stop-color="#d8dadc"></stop><stop offset="1" stop-color="#dcdee0"></stop></linearGradient><linearGradient id="1776867898287-9755567_linear-gradient-10" x1="504.7" y1="20.89" x2="509.18" y2="52.17" gradientTransform="scale(1 -1) rotate(8.15 3854.46 -2059.666)" gradientUnits="userSpaceOnUse"><stop offset=".08" stop-color="#b8bdbf"></stop><stop offset=".21" stop-color="#c6cacc"></stop><stop offset=".47" stop-color="#d9dcde"></stop><stop offset=".73" stop-color="#e4e7e9"></stop><stop offset="1" stop-color="#e8ebed"></stop></linearGradient><linearGradient id="1776867898287-9755567_linear-gradient-11" x1="493.1" y1="20.55" x2="496.95" y2="52.14" gradientTransform="scale(1 -1) rotate(6.96 4466.848 -2392.927)" gradientUnits="userSpaceOnUse"><stop offset=".08" stop-color="#a0a4a6"></stop><stop offset=".21" stop-color="#aeb1b3"></stop><stop offset=".47" stop-color="#c1c3c5"></stop><stop offset=".73" stop-color="#ccced0"></stop><stop offset="1" stop-color="#d0d2d4"></stop></linearGradient><linearGradient id="1776867898287-9755567_linear-gradient-12" x1="491.99" y1="32.85" x2="491.99" y2="63.78" gradientTransform="matrix(1 0 0 -1 -276.58 514)" gradientUnits="userSpaceOnUse"><stop offset=".08" stop-color="#b8bdbf"></stop><stop offset=".21" stop-color="#c6cacc"></stop><stop offset=".47" stop-color="#d9dcde"></stop><stop offset=".73" stop-color="#e4e7e9"></stop><stop offset="1" stop-color="#e8ebed"></stop></linearGradient><linearGradient id="1776867898287-9755567_linear-gradient-13" x1="340.83" y1="72.18" x2="340.83" y2="99.59" gradientTransform="rotate(-180 237.875 257)" gradientUnits="userSpaceOnUse"><stop offset="0" stop-color="#d0d2d4"></stop><stop offset=".27" stop-color="#ccced0"></stop><stop offset=".53" stop-color="#c1c3c5"></stop><stop offset=".79" stop-color="#aeb1b3"></stop><stop offset=".92" stop-color="#a0a4a6"></stop></linearGradient><linearGradient id="1776867898287-9755567_linear-gradient-14" x1="327.22" y1="67.07" x2="327.22" y2="96.56" gradientTransform="rotate(-180 237.875 257)" gradientUnits="userSpaceOnUse"><stop offset="0" stop-color="#dcdee0"></stop><stop offset=".26" stop-color="#d8dadc"></stop><stop offset=".5" stop-color="#cdd0d1"></stop><stop offset=".74" stop-color="#babdbf"></stop><stop offset=".92" stop-color="#a5aaab"></stop></linearGradient><linearGradient id="1776867898287-9755567_linear-gradient-15" x1="308.11" y1="59.69" x2="308.11" y2="94" gradientTransform="rotate(-180 237.875 257)" gradientUnits="userSpaceOnUse"><stop offset="0" stop-color="#ebeef0"></stop><stop offset=".25" stop-color="#e7eaec"></stop><stop offset=".48" stop-color="#dce0e2"></stop><stop offset=".71" stop-color="#c9cdcf"></stop><stop offset=".92" stop-color="#b0b6b8"></stop></linearGradient><linearGradient id="1776867898287-9755567_linear-gradient-16" x1="283.74" y1="54.25" x2="283.74" y2="91.8" gradientTransform="rotate(-180 237.875 257)" gradientUnits="userSpaceOnUse"><stop offset="0" stop-color="#dcdee0"></stop><stop offset=".26" stop-color="#d8dadc"></stop><stop offset=".5" stop-color="#cdd0d1"></stop><stop offset=".74" stop-color="#babdbf"></stop><stop offset=".92" stop-color="#a5aaab"></stop></linearGradient><linearGradient id="1776867898287-9755567_linear-gradient-17" x1="551.25" y1="72.18" x2="551.25" y2="99.59" gradientTransform="matrix(1 0 0 -1 -276.58 514)" gradientUnits="userSpaceOnUse"><stop offset="0" stop-color="#d0d2d4"></stop><stop offset=".27" stop-color="#ccced0"></stop><stop offset=".53" stop-color="#c1c3c5"></stop><stop offset=".79" stop-color="#aeb1b3"></stop><stop offset=".92" stop-color="#a0a4a6"></stop></linearGradient><linearGradient id="1776867898287-9755567_linear-gradient-18" x1="537.65" y1="67.07" x2="537.65" y2="96.56" gradientTransform="matrix(1 0 0 -1 -276.58 514)" gradientUnits="userSpaceOnUse"><stop offset="0" stop-color="#d0d2d4"></stop><stop offset=".27" stop-color="#ccced0"></stop><stop offset=".53" stop-color="#c1c3c5"></stop><stop offset=".79" stop-color="#aeb1b3"></stop><stop offset=".92" stop-color="#a0a4a6"></stop></linearGradient><linearGradient id="1776867898287-9755567_linear-gradient-19" x1="518.55" y1="59.69" x2="518.55" y2="94" gradientTransform="matrix(1 0 0 -1 -276.58 514)" gradientUnits="userSpaceOnUse"><stop offset="0" stop-color="#ebeef0"></stop><stop offset=".25" stop-color="#e7eaec"></stop><stop offset=".48" stop-color="#dce0e2"></stop><stop offset=".71" stop-color="#c9cdcf"></stop><stop offset=".92" stop-color="#b0b6b8"></stop></linearGradient><linearGradient id="1776867898287-9755567_linear-gradient-20" x1="494.16" y1="54.25" x2="494.16" y2="91.8" gradientTransform="matrix(1 0 0 -1 -276.58 514)" gradientUnits="userSpaceOnUse"><stop offset="0" stop-color="#f2f5f7"></stop><stop offset=".25" stop-color="#eef1f3"></stop><stop offset=".49" stop-color="#e3e6e8"></stop><stop offset=".72" stop-color="#d0d4d6"></stop><stop offset=".92" stop-color="#b8bdbf"></stop></linearGradient></defs><path class="cls-14" d="M76.8,367.68c9.19,18.65,16.18,52.05,15.96,70.41-.15,14.34,9.97,15.62,19.43,31.84,10.4,17.85,34.74,42.07,92.61,42.07s82.21-24.22,92.61-42.07c9.46-16.21,19.58-17.51,19.42-31.84-.2-18.36,6.77-51.76,15.97-70.41,1.31-2.63-257.31-2.63-256,0Z" fill="url(#1776867898287-9755567_radial-gradient)"></path><path class="cls-5" d="M117.87,395.2c6.24,13.67,10.97,43.55,10.84,57.01-.1,10.51,36.79,26.97,76.09,26.97s76.2-16.46,76.1-26.97c-.15-13.46,4.59-43.34,10.84-57.01.89-1.93-174.75-1.93-173.87,0Z" fill="url(#1776867898287-9755567_radial-gradient-2)"></path><path class="cls-4" d="M204.8,0C60.88,0-47.85,114.07,21.41,295.23c-3.67,88.69,75.11,71.97,99.21,115.11,7.12,12.71,84.18,18.26,84.18,18.26,0,0,77.06-5.54,84.17-18.26,24.12-43.14,102.89-26.43,99.21-115.11C457.47,114.07,348.72,0,204.8,0Z" fill="url(#1776867898287-9755567_radial-gradient-3)"></path><path class="cls-15" d="M332.53,217.45c10.91,27.23,39.71,30.3,55.65,77.77,28.19-73.66,26.9-136.23,5.8-184.55-53.32-63.79-85.56,46.51-61.46,106.78Z" fill="url(#1776867898287-9755567_linear-gradient)"></path><path class="cls-13" d="M77.07,217.45c-10.88,27.23-39.68,30.3-55.65,77.77C-6.75,221.56-5.46,158.99,15.62,110.67c53.32-63.79,85.57,46.51,61.45,106.78Z" fill="url(#1776867898287-9755567_linear-gradient-2)"></path><path class="cls-3" d="M204.8,330.1c-25.78,0-40.6,80.51,0,44.58,40.59,35.93,25.78-44.58,0-44.58Z" fill="url(#1776867898287-9755567_radial-gradient-4)"></path><path class="cls-2" d="M251.56,242.51c22.02-17.7,87.74-15.5,102.68,21.24,36.09,88.72-75.17,86.91-117.21,45.76-5.67-5.55-10.8-46.59,14.52-67Z" fill="url(#1776867898287-9755567_radial-gradient-5)"></path><path class="cls-1" d="M158.06,242.51c-22.02-17.7-87.74-15.5-102.68,21.24-36.09,88.72,75.17,86.91,117.21,45.76,5.67-5.55,10.8-46.59-14.52-67Z" fill="url(#1776867898287-9755567_radial-gradient-6)"></path><path class="cls-12" d="M133.8,460.42c-2.37,4.25,12.82,8.62,11.91,5.5-3.14-10.82,9.96-19.14,7.83-25.2-2.15-6.13-16.39-8.2-20.52-3.62-3.24,3.59,3.87,17.77.78,23.31Z" fill="url(#1776867898287-9755567_linear-gradient-3)"></path><path class="cls-11" d="M145.71,465.93c-2.31,4.33,12.99,7.26,11.96,4.18-3.57-10.7,7.71-18.27,5.35-24.23-2.39-6.04-16.71-7.57-20.65-2.83-3.09,3.71,6.35,17.22,3.35,22.89Z" fill="url(#1776867898287-9755567_linear-gradient-4)"></path><path class="cls-8" d="M157.67,470.11c-2.31,4.32,14.8,6.52,13.76,3.43-3.53-10.69,7.45-18.53,5.1-24.5-2.36-6.05-16.67-7.63-20.63-2.89-3.1,3.71,4.8,18.3,1.77,23.96Z" fill="url(#1776867898287-9755567_linear-gradient-5)"></path><path class="cls-9" d="M171.43,473.54c-2.22,4.39,16.7,6.92,15.61,3.86-3.75-10.62,5.62-19.13,3.15-25.06-2.5-6-16.84-7.28-20.7-2.47-3.01,3.77,4.86,17.97,1.95,23.67Z" fill="url(#1776867898287-9755567_linear-gradient-6)"></path><path class="cls-7" d="M187.04,477.4c-1.66,4.61,19.22,4.69,17.76,1.78-5.05-10.1,2.86-19.29-.33-24.87-3.23-5.66-17.61-5.22-20.85,0-2.53,4.1,5.6,17.08,3.42,23.09Z" fill="url(#1776867898287-9755567_linear-gradient-7)"></path><path class="cls-6" d="M275.8,460.42c2.37,4.25-12.82,8.62-11.91,5.5,3.14-10.82-9.96-19.14-7.83-25.2,2.15-6.13,16.39-8.2,20.52-3.62,3.24,3.59-3.87,17.77-.78,23.31Z" fill="url(#1776867898287-9755567_linear-gradient-8)"></path><path class="cls-10" d="M263.9,465.93c2.31,4.33-12.99,7.26-11.96,4.18,3.57-10.7-7.71-18.27-5.35-24.23,2.39-6.04,16.71-7.57,20.65-2.83,3.09,3.71-6.36,17.22-3.35,22.89Z" fill="url(#1776867898287-9755567_linear-gradient-9)"></path><path class="cls-16" d="M251.93,470.11c2.31,4.32-14.8,6.52-13.76,3.43,3.53-10.69-7.45-18.53-5.1-24.5,2.36-6.05,16.67-7.63,20.63-2.89,3.11,3.71-4.8,18.3-1.77,23.96Z" fill="url(#1776867898287-9755567_linear-gradient-10)"></path><path class="cls-17" d="M238.17,473.54c2.22,4.39-16.7,6.92-15.61,3.86,3.75-10.62-5.62-19.13-3.15-25.06,2.5-6,16.84-7.28,20.7-2.47,3.01,3.77-4.86,17.97-1.95,23.67Z" fill="url(#1776867898287-9755567_linear-gradient-11)"></path><path class="cls-18" d="M222.56,477.4c1.66,4.61-19.22,4.69-17.77,1.78,5.05-10.1-2.86-19.29.33-24.87,3.23-5.66,17.62-5.22,20.86,0,2.53,4.1-5.6,17.08-3.42,23.09Z" fill="url(#1776867898287-9755567_linear-gradient-12)"></path><path class="cls-19" d="M128.06,438.59c1.84,3.47,13.47,4.02,14.17,2.24,1.95-4.96-2.69-11.61-.7-21.3.79-3.85-16.72-7.35-14.14-3.34,4.45,6.93-2.52,16.38.67,22.4Z" fill="url(#1776867898287-9755567_linear-gradient-13)"></path><path class="cls-21" d="M140.86,443.61c1.84,3.65,14.93,4.12,15.63,2.26,1.95-5.2-3.18-14.47-.73-21.96,1.28-3.93-16.81-9.11-14.23-4.9,4.45,7.26-3.86,18.28-.67,24.59Z" fill="url(#1776867898287-9755567_linear-gradient-14)"></path><path class="cls-23" d="M157.8,449.2c4.3,5.32,19.25,6.42,21.09,3.61,3.59-5.51-4.55-16.94,0-25.71,3.63-6.98-26.91-9.75-23.12-4.01,4.73,7.13-2.37,20.68,2.03,26.11Z" fill="url(#1776867898287-9755567_linear-gradient-15)"></path><path class="cls-24" d="M180.29,454.46c3.39,5.09,24,7.1,24.63,3.38,1.95-11.67-3.57-17.54-.12-27.65,2.31-6.77-27.91-11.31-25.92-4.92,2.92,9.36-2.78,22.91,1.41,29.19Z" fill="url(#1776867898287-9755567_linear-gradient-16)"></path><path class="cls-25" d="M281.54,438.59c-1.84,3.47-13.47,4.02-14.17,2.24-1.95-4.96,2.69-11.61.7-21.3-.79-3.85,16.72-7.35,14.14-3.34-4.44,6.93,2.52,16.38-.67,22.4Z" fill="url(#1776867898287-9755567_linear-gradient-17)"></path><path class="cls-26" d="M268.74,443.61c-1.84,3.65-14.93,4.12-15.63,2.26-1.95-5.2,3.18-14.47.73-21.96-1.28-3.93,16.81-9.11,14.23-4.9-4.44,7.26,3.86,18.28.67,24.59Z" fill="url(#1776867898287-9755567_linear-gradient-18)"></path><path class="cls-20" d="M251.81,449.2c-4.3,5.32-19.25,6.42-21.09,3.61-3.59-5.51,4.55-16.94,0-25.71-3.63-6.98,26.91-9.75,23.12-4.01-4.74,7.13,2.36,20.68-2.03,26.11Z" fill="url(#1776867898287-9755567_linear-gradient-19)"></path><path class="cls-22" d="M229.31,454.46c-3.39,5.09-24.01,7.1-24.63,3.38-1.95-11.67,3.57-17.54.12-27.65-2.31-6.77,27.91-11.31,25.92-4.92-2.93,9.36,2.77,22.91-1.42,29.19Z" fill="url(#1776867898287-9755567_linear-gradient-20)"></path></g></svg>