<svg data-name="Layer 1" xmlns="http://www.w3.org/2000/svg" style="" viewBox="0 0 613.11 512"><g class="nc-icon-wrapper"><defs><linearGradient id="1776732453119-219812_linear-gradient" x1="306.56" y1="2" x2="306.56" y2="514" gradientTransform="matrix(1 0 0 -1 0 514)" gradientUnits="userSpaceOnUse"><stop offset="0" stop-color="#db0100"></stop><stop offset=".58" stop-color="#f31317"></stop><stop offset="1" stop-color="#ff1c23"></stop></linearGradient></defs><path class="cls-3" d="M603.79,115.1C557.95-18.42,432.93-21.42,367.07,33.67c-46.96,39.26-71.01,115.84-71.01,115.84l82,14.4-85.58,152.32,95.32-18.86-46.96,169.1-11.88-125.23-110.57,23.43,86.31-155.96-75.77-14.61,41.98-130.27C205.42-6.99,35.99-20.05,2.88,149.76c-39.37,202.27,338.11,362.24,338.11,362.24,86.26-60.2,321.64-225.61,262.8-396.9Z" fill="url(#1776732453119-219812_linear-gradient)"></path><path class="cls-1" d="M270.91 63.82L279.06 91.08 241.36 192.2 215.88 200.84 270.91 63.82z" fill="#850505"></path><path class="cls-2" d="M300.37 214.82L320.11 200.4 242.39 189.43 215.88 200.84 300.37 214.82z" fill="#b00505"></path><path class="cls-1" d="M203.1 373.53L236.03 357.27 320.11 200.4 293.77 213.74 203.1 373.53z" fill="#850505"></path><path class="cls-2" d="M328.49 345.49L339.47 331.75 238 353.61 203.1 373.53 328.49 345.49z" fill="#b00505"></path><path class="cls-1" d="M340.83 466.46L339.47 331.75 324.91 346.3 340.83 466.46z" fill="#850505"></path></g></svg>