<svg data-name="Layer 1" xmlns="http://www.w3.org/2000/svg" style="" viewBox="0 0 712.1 512"><g class="nc-icon-wrapper"><defs><radialGradient id="1776585740539-6708100_radial-gradient" cx="242.63" cy="788.11" fx="242.63" fy="788.11" r="230.01" gradientTransform="matrix(.59412 .80438 -.42736 .31348 258.42 -239.69)" gradientUnits="userSpaceOnUse"><stop offset="0" stop-color="#29d8ff"></stop><stop offset=".2" stop-color="#23cafa"></stop><stop offset=".58" stop-color="#14a4ee"></stop><stop offset="1" stop-color="#0073de"></stop></radialGradient><radialGradient id="1776585740539-6708100_radial-gradient-2" cx="334.46" cy="728.48" fx="334.46" fy="728.48" r="270.6" gradientTransform="translate(.93 -512)" gradientUnits="userSpaceOnUse"><stop offset="0" stop-color="#29d8ff"></stop><stop offset=".2" stop-color="#23cafa"></stop><stop offset=".58" stop-color="#14a4ee"></stop><stop offset="1" stop-color="#0073de"></stop></radialGradient><radialGradient id="1776585740539-6708100_radial-gradient-3" cx="348.22" cy="678.77" fx="348.22" fy="678.77" r="166.63" gradientTransform="matrix(1 0 0 .44 0 -223.94)" gradientUnits="userSpaceOnUse"><stop offset="0" stop-color="#29d8ff"></stop><stop offset=".2" stop-color="#23cafa"></stop><stop offset=".58" stop-color="#14a4ee"></stop><stop offset="1" stop-color="#0073de"></stop></radialGradient><radialGradient id="1776585740539-6708100_radial-gradient-4" cx="367.21" cy="535.5" fx="367.21" fy="535.5" r="49.85" gradientTransform="translate(.93 -512)" gradientUnits="userSpaceOnUse"><stop offset="0" stop-color="#29d8ff"></stop><stop offset=".2" stop-color="#23cafa"></stop><stop offset=".58" stop-color="#14a4ee"></stop><stop offset="1" stop-color="#0073de"></stop></radialGradient><radialGradient id="1776585740539-6708100_radial-gradient-5" cx="1037.73" cy="755.54" fx="1037.73" fy="755.54" r="153.1" gradientTransform="matrix(.57 0 0 1 42.96 -512)" gradientUnits="userSpaceOnUse"><stop offset="0" stop-color="#29d8ff"></stop><stop offset=".16" stop-color="#26d1fd"></stop><stop offset=".41" stop-color="#1ebcf6"></stop><stop offset=".71" stop-color="#109aeb"></stop><stop offset="1" stop-color="#0073de"></stop></radialGradient></defs><path class="cls-5" d="M67.65,117.5c12.82,11.87,22.91,25.04,30.26,39.52,7.36,14.48,13.65,27.42,18.87,38.81,4.75,10.44,8.9,18.51,12.46,24.21s7.36,7.6,11.39,5.7,9.38-9.49,16.02-22.79c1.42-2.37,3.56,1.42,6.41,11.39s6.17,23.5,9.97,40.59,7.48,35.49,11.04,55.19,6.53,38.57,8.9,56.61c2.37,18.04,3.68,32.88,3.92,44.51.24,11.63-1.31,17.68-4.63,18.16-2.85.47-5.7.71-8.55.71-15.67,0-30.74-4.75-45.22-14.24-14.48-9.49-26.94-20.89-37.39-34.18-10.44-13.29-17.57-25.4-21.36-36.32-4.27-12.34-7.71-27.42-10.33-45.22s-6.05-36.91-10.33-57.32c-4.27-20.41-10.8-40.47-19.58-60.17-8.78-19.7-21.72-37.39-38.81-53.05-.47-.47-.71-.95-.71-1.42v-.71c0-2.85,5.58-6.05,16.73-9.61,11.16-3.56,21.72-5.34,31.69-5.34,9.02,0,15.43,1.66,19.23,4.98Z" fill="url(#1776585740539-6708100_radial-gradient)"></path><path class="cls-6" d="M59.1,116.78c0-.95-2.61-1.54-7.83-1.78s-11.63.36-19.23,1.78c-7.12,1.42-13.29,3.09-18.51,4.98-5.22,1.9-7.6,3.32-7.12,4.27,0,.95,2.73,1.42,8.19,1.42s11.75-.71,18.87-2.14c7.6-.95,13.89-2.25,18.87-3.92s7.24-3.2,6.76-4.63ZM373.14,469.99c22.31,0,42.73.83,61.24,2.49,18.51,1.66,33.35,3.8,44.51,6.41s16.73,5.34,16.73,8.19-5.58,6.29-16.73,10.33c-11.16,4.04-25.99,7.48-44.51,10.33s-38.93,4.27-61.24,4.27-42.13-1.42-60.88-4.27-33.71-6.29-44.86-10.33c-11.16-4.04-16.73-7.48-16.73-10.33s5.58-5.58,16.73-8.19,26.11-4.75,44.86-6.41c18.75-1.66,39.05-2.49,60.88-2.49Z" fill="#005aae"></path><path class="cls-4" d="M373.14,65.51c47.47,0,88.3,8.9,122.48,26.7s60.53,42.84,79.04,75.13,27.77,70.5,27.77,114.65c0,41.78-8.43,78.57-25.28,110.38-16.85,31.81-40.71,61-71.57,87.59-6.17,5.7-18.16,10.21-35.96,13.53-17.8,3.32-38.33,5.58-61.6,6.76-23.26,1.19-46.41,1.19-69.43,0-23.02-1.19-43.44-3.44-61.24-6.76-17.8-3.32-30.03-7.83-36.67-13.53-30.86-26.59-54.71-55.78-71.57-87.59-16.85-31.81-25.28-68.6-25.28-110.38,0-44.15,9.26-82.37,27.77-114.65,18.51-32.28,44.98-57.32,79.4-75.13s75.13-26.7,122.13-26.7Z" fill="url(#1776585740539-6708100_radial-gradient-2)"></path><path class="cls-6" d="M373.14,68.36c26.11,0,49.97,2.37,71.57,7.12,21.6,4.75,39.05,10.21,52.34,16.38,13.29,6.17,19.94,11.39,19.94,15.67,0,4.75-6.65,8.9-19.94,12.46s-30.74,6.41-52.34,8.55-45.46,3.2-71.57,3.2-49.37-1.07-71.21-3.2-39.28-4.98-52.34-8.55-19.58-7.71-19.58-12.46c0-4.27,6.53-9.49,19.58-15.67s30.5-11.63,52.34-16.38c21.84-4.75,45.57-7.12,71.21-7.12Z" fill="#005aae"></path><path class="cls-3" d="M373.14,59.1c25.64,0,49.25,2.85,70.85,8.55,21.6,5.7,38.93,12.11,51.98,19.23s19.58,13.06,19.58,17.8-6.53,8.66-19.58,11.75c-13.06,3.09-30.38,5.46-51.98,7.12s-45.22,2.49-70.85,2.49-49.25-.83-70.85-2.49-38.93-4.04-51.98-7.12c-13.06-3.09-19.58-7-19.58-11.75s6.53-10.68,19.58-17.8,30.38-13.53,51.98-19.23,45.22-8.55,70.85-8.55Z" fill="url(#1776585740539-6708100_radial-gradient-3)"></path><path class="cls-2" d="M408.75,35.61c0,6.17-1.42,11.63-4.27,16.38s-6.41,9.02-10.68,12.82c-2.85,2.85-4.27,5.22-4.27,7.12,0,2.37-2.73,4.04-8.19,4.98s-10.92.95-16.38,0c-5.46-.95-8.19-2.61-8.19-4.98,0-1.9-1.42-4.27-4.27-7.12-4.27-3.8-7.83-8.07-10.68-12.82s-4.27-10.21-4.27-16.38c0-9.49,3.56-17.8,10.68-24.92s15.43-10.68,24.92-10.68c9.97,0,18.4,3.56,25.28,10.68,6.88,7.12,10.33,15.43,10.33,24.92Z" fill="url(#1776585740539-6708100_radial-gradient-4)"></path><path class="cls-1" d="M598.16,230.72c0,4.27-1.66,4.39-4.98.36s-7-10.09-11.04-18.16-7.12-16.14-9.26-24.21c-2.14-8.07-2.25-14-.36-17.8,11.39-16.14,22.43-27.65,33.11-34.54s21.01-10.33,30.98-10.33c12.34,0,23.62,4.39,33.82,13.17s18.75,19.35,25.64,31.69,11.27,24.45,13.17,36.32c1.9,9.02,2.85,18.04,2.85,27.06v2.85c-.47,25.64-7.6,50.08-21.36,73.35s-35.13,41.54-64.09,54.83c-9.02,4.27-16.5,7.48-22.43,9.61-5.93,2.14-11.99,5.1-18.16,8.9-6.17,3.8-13.77,10.21-22.79,19.23-1.42.95-2.14.47-2.14-1.42,0-2.85,1.19-8.43,3.56-16.73,2.37-8.31,5.46-17.68,9.26-28.13s7.71-20.53,11.75-30.26c4.04-9.73,7.6-17.45,10.68-23.14s4.87-7.83,5.34-6.41c9.49,14.24,19.58,20.89,30.26,19.94,10.68-.95,20.53-6.88,29.55-17.8,9.02-10.92,15.67-24.33,19.94-40.23,4.27-15.9,4.51-31.45.71-46.64-4.75-19.94-11.87-34.3-21.36-43.08-9.49-8.78-19.23-12.22-29.2-10.33s-18.28,8.9-24.92,21.01c-6.65,12.11-9.49,29.08-8.55,50.92Z" fill="url(#1776585740539-6708100_radial-gradient-5)"></path></g></svg>