<svg data-name="Layer 1" xmlns="http://www.w3.org/2000/svg" style="" viewBox="0 0 548.57 512"><g class="nc-icon-wrapper"><defs><linearGradient id="1777811038021-1922003_linear-gradient" x1="1005.88" y1="-54.2" x2="1005.88" y2="-34.91" gradientTransform="scale(1 -1) rotate(75.001 825.7 -405.252)" gradientUnits="userSpaceOnUse"><stop offset="0" stop-color="#302c3b"></stop><stop offset=".39" stop-color="#312e3d"></stop><stop offset=".62" stop-color="#363744"></stop><stop offset=".8" stop-color="#3f4551"></stop><stop offset=".96" stop-color="#4b5862"></stop><stop offset="1" stop-color="#4e5e67"></stop></linearGradient><linearGradient id="1777811038021-1922003_linear-gradient-2" x1="992.43" y1="-55.45" x2="992.43" y2="-33.75" gradientTransform="scale(1 -1) rotate(75.001 825.7 -405.252)" gradientUnits="userSpaceOnUse"><stop offset="0" stop-color="#302c3b"></stop><stop offset=".51" stop-color="#3e4350"></stop><stop offset="1" stop-color="#4e5e67"></stop></linearGradient><linearGradient id="1777811038021-1922003_linear-gradient-3" x1="363.19" y1="315.03" x2="363.19" y2="349.59" gradientTransform="scale(1 -1) rotate(-15 -1489.46 -426.406)" gradientUnits="userSpaceOnUse"><stop offset="0" stop-color="#302c3b"></stop><stop offset=".51" stop-color="#3e4350"></stop><stop offset="1" stop-color="#4e5e67"></stop></linearGradient><linearGradient id="1777811038021-1922003_linear-gradient-4" x1="406.97" y1="516.92" x2="406.97" y2="481.1" gradientTransform="scale(1 -1) rotate(-15 -2086.996 -70.6)" gradientUnits="userSpaceOnUse"><stop offset="0" stop-color="#4e5e67"></stop><stop offset=".49" stop-color="#3e4350"></stop><stop offset="1" stop-color="#302c3b"></stop></linearGradient><linearGradient id="1777811038021-1922003_linear-gradient-5" x1="464.35" y1="375.67" x2="448.66" y2="319.76" gradientTransform="matrix(1 0 0 -1 1.29 510.9)" gradientUnits="userSpaceOnUse"><stop offset="0" stop-color="#4e5e67"></stop><stop offset=".38" stop-color="#444e59"></stop><stop offset="1" stop-color="#302c3b"></stop></linearGradient><linearGradient id="1777811038021-1922003_linear-gradient-6" x1="304.28" y1="749.39" x2="291.38" y2="797.51" gradientTransform="matrix(.95014 .31184 .22764 -.6936 -46.25 534.43)" gradientUnits="userSpaceOnUse"><stop offset="0" stop-color="#cfd8dd"></stop><stop offset="1" stop-color="#e6ebed"></stop></linearGradient><linearGradient id="1777811038021-1922003_linear-gradient-7" x1="265.85" y1="755.1" x2="256.78" y2="788.95" gradientTransform="matrix(.95014 .31184 .22764 -.6936 -46.25 534.43)" gradientUnits="userSpaceOnUse"><stop offset="0" stop-color="#302c3b"></stop><stop offset=".26" stop-color="#343241"></stop><stop offset=".63" stop-color="#3f4450"></stop><stop offset="1" stop-color="#4e5e67"></stop></linearGradient><linearGradient id="1777811038021-1922003_linear-gradient-8" x1="322.77" y1="757.03" x2="314.67" y2="787.24" gradientTransform="matrix(.95014 .31184 .22764 -.6936 -46.25 534.43)" gradientUnits="userSpaceOnUse"><stop offset="0" stop-color="#302c3b"></stop><stop offset=".26" stop-color="#343241"></stop><stop offset=".63" stop-color="#3f4450"></stop><stop offset="1" stop-color="#4e5e67"></stop></linearGradient><linearGradient id="1777811038021-1922003_linear-gradient-9" x1="348.54" y1="838.45" x2="339.74" y2="871.28" gradientTransform="rotate(-18.17 -1699.832 122.504) scale(1 -.66)" gradientUnits="userSpaceOnUse"><stop offset="0" stop-color="#302c3b"></stop><stop offset=".26" stop-color="#343241"></stop><stop offset=".63" stop-color="#3f4450"></stop><stop offset="1" stop-color="#4e5e67"></stop></linearGradient><linearGradient id="1777811038021-1922003_linear-gradient-10" x1="292.65" y1="430.83" x2="276.21" y2="354.65" gradientTransform="matrix(1 0 0 -1 1.28 510.9)" gradientUnits="userSpaceOnUse"><stop offset=".24" stop-color="#e6ebed"></stop><stop offset="1" stop-color="#c6cfd4"></stop></linearGradient><linearGradient id="1777811038021-1922003_linear-gradient-11" x1="53.97" y1="544.57" x2="53.97" y2="448.69" gradientTransform="scale(1 -1) rotate(-15 -2086.996 -70.6)" gradientUnits="userSpaceOnUse"><stop offset="0" stop-color="#4e5e67"></stop><stop offset=".49" stop-color="#3e4350"></stop><stop offset="1" stop-color="#302c3b"></stop></linearGradient><linearGradient id="1777811038021-1922003_linear-gradient-12" x1="-13.27" y1="546.84" x2="-13.27" y2="446.16" gradientTransform="scale(1 -1) rotate(-15 -2086.996 -70.6)" gradientUnits="userSpaceOnUse"><stop offset="0" stop-color="#4e5e67"></stop><stop offset=".49" stop-color="#3e4350"></stop><stop offset="1" stop-color="#302c3b"></stop></linearGradient></defs><path class="cls-11" d="M516.39,129.21l-3.25,12.38c-1.23,4.64,17.21,10.09,18.54,5.06l3.26-12.38c1.23-4.64-17.22-10.11-18.56-5.06Z" fill="url(#1777811038021-1922003_linear-gradient)"></path><path class="cls-8" d="M512,141.12l-3.65,13.92c-1.36,5.22,19.36,11.36,20.85,5.7l3.66-13.92c1.39-5.23-19.36-11.36-20.86-5.7Z" fill="url(#1777811038021-1922003_linear-gradient-2)"></path><path class="cls-15" d="M510.53 197.51L494.3 193.1 504.78 153.37 524 158.61 510.53 197.51z" fill="#464352"></path><path class="cls-16" d="M510.53 197.52L521 157.8 548.57 165.31 510.53 197.52z" fill="#302c3b"></path><path class="cls-7" d="M507.65,158.23l-13.68-3.73c-13.51-3.68-22.74,29.57-8.8,33.37l13.67,3.72c13.53,3.68,22.77-29.56,8.8-33.36Z" fill="url(#1777811038021-1922003_linear-gradient-3)"></path><path class="cls-10" d="M491.08,155.92l-22.71-6.2-7.7,29.25,22.71,6.19c11.85,3.23,19.94-25.91,7.7-29.24Z" fill="#99a8ae"></path><path class="cls-6" d="M480.73,150.89l-22.73-6.19-8.8,33.36,22.71,6.19c11.84,3.23,21.04-30.03,8.81-33.36Z" fill="url(#1777811038021-1922003_linear-gradient-4)"></path><path class="cls-16" d="M472.76,202.32c-2.21-1.13-15.75-10.86-16.54-12.9-3.08-7.98,5.44-19.82,14.03-18.83.88.1,14.03,8.13,14.63,8.46,10.98,6.18-.13,29.41-12.11,23.28Z" fill="#302c3b"></path><path class="cls-10" d="M475.18,202.2c-12.38-4,2.61-27.71,11.39-19.85,6.08,5.43-1.87,22.92-11.39,19.85Z" fill="#99a8ae"></path><path class="cls-10" d="M51.19 511.99L70.25 511.99 212.31 244.65 184.47 244.66 51.19 511.99z" fill="#99a8ae"></path><path class="cls-10" d="M423.17 512L289.91 244.65 262.05 244.66 404.12 511.99 423.17 512z" fill="#99a8ae"></path><path class="cls-16" d="M437.65,225.1l-115.39-27.12c-6.76-1.57-10.63,12.17-4.11,14.47l111.94,39.35c13.98,4.93,22-23.33,7.56-26.71Z" fill="#302c3b"></path><path class="cls-9" d="M376.92,233.12l53.17,18.69c3.13,1.11,5.91.38,8.23-1.19l-61.4-17.5Z" fill="#1a1626"></path><path class="cls-9" d="M437.65,225.1l-54.81-12.88,61.14,18.34c-1.13-2.61-3.13-4.71-6.33-5.46Z" fill="#1a1626"></path><path class="cls-9" d="M443.18,244.77c1.01-2.09,1.65-4.32,1.87-6.66l-65.16-15.45,63.29,22.11Z" fill="#1a1626"></path><path class="cls-15" d="M317.32,207.98l-83.64-24.45c-4.58-1.33-2.71-8.05,1.91-6.67l83.6,24.45c4.61,1.34,2.74,8.03-1.87,6.67Z" fill="#464352"></path><path class="cls-10" d="M245.98 511.99L228.39 511.99 224 215.26 250.35 215.26 245.98 511.99z" fill="#99a8ae"></path><path class="cls-15" d="M202.04 209.38L184.47 244.66 237.19 256.41 289.91 244.65 272.32 209.38 237.19 203.51 202.04 209.38z" fill="#464352"></path><path class="cls-16" d="M289.91 244.65L272.32 209.38 237.19 203.51 202.04 209.38 237.19 215.28 237.19 256.41 289.91 244.65z" fill="#302c3b"></path><path class="cls-9" d="M219.61,150.64v59.2c19.73,3.35,15.53,3.34,35.14,0v-59.2h-35.14Z" fill="#1a1626"></path><path class="cls-16" d="M196.11,145.78c-7.1-1.87-3.76-14.88,3.32-13.33l81.03,18.02c7.68,1.59,4.55,15.09-3.03,13.4l-81.06-18.02c-.07-.02-.17-.05-.27-.07Z" fill="#302c3b"></path><path class="cls-3" d="M470.53,137.3l-18.45-5.75c-5.5,18.91-11.24,37.81-17.33,56.61l20.79,4.62c13.08-3.05,26.94-44.32,14.99-55.48Z" fill="url(#1777811038021-1922003_linear-gradient-5)"></path><path class="cls-4" d="M450.46,115.11l-83.7-24.77,7.28-21.96,82.12,29.5c5.48,4.31,1.24,16.98-5.7,17.23Z" fill="url(#1777811038021-1922003_linear-gradient-6)"></path><path class="cls-2" d="M389.36,73.5l-17.64-5.87c-6.35-2.08-13.6,19.88-7.28,21.96l17.07,5.28c8.59,2.67,16.42-18.71,7.84-21.38Z" fill="url(#1777811038021-1922003_linear-gradient-7)"></path><path class="cls-9" d="M364.28,88.19c6.27-2.14,9.41-15.25,6.46-19.51-5.75,1.96-9.3,15.43-6.46,19.51Z" fill="#1a1626"></path><path class="cls-1" d="M417.25,105.28l21.9,6.48c6.14-.6,10.13-12.13,6.7-17.59l-20.96-7.53c3.3,5.67-.43,16.09-7.63,18.64Z" fill="url(#1777811038021-1922003_linear-gradient-8)"></path><path class="cls-5" d="M447.9,114.35l7.74,4.88c6.46-.53,12.67-14.31,6.82-22.12l-8.2.07c2.82,4.24-.91,15.99-6.36,17.16Z" fill="url(#1777811038021-1922003_linear-gradient-9)"></path><path class="cls-9" d="M438.37,129.14l-14.4-4.77-.92-17.76c1.03-2.83,15.41,1.97,14.39,4.8l.93,17.73Z" fill="#1a1626"></path><path class="cls-12" d="M458.04,132.94L126.07,28.85l-23.29,88.37,337.39,72.79c18.68-3.89,26.12-49.76,17.87-57.07Z" fill="url(#1777811038021-1922003_linear-gradient-10)"></path><path class="cls-13" d="M150.84,35.99l-37.88-11.68-23.6,89.57,36.96,8.69c21.8,5.56,46.36-81.02,24.51-86.57Z" fill="url(#1777811038021-1922003_linear-gradient-11)"></path><path class="cls-9" d="M117.26,23.81c-.58.11-25.41,92.1-24.95,92.54,22.24,20.28,55.87-98.64,24.95-92.54Z" fill="#1a1626"></path><path class="cls-14" d="M118.41,24.14L36.27.32C11.38-6.3-14.84,90.91,10.03,97.53l82.29,18.83c21.37,5.39,47.48-86.82,26.08-92.21Z" fill="url(#1777811038021-1922003_linear-gradient-12)"></path><path class="cls-9" d="M7.54,91.07C24.13,80.94,40.3,22.03,30.84,4.66,11.65,16.4-3.18,71.49,7.54,91.07Z" fill="#1a1626"></path></g></svg>