<svg data-name="Layer 1" xmlns="http://www.w3.org/2000/svg" style="" viewBox="0 0 512.06 512"><g class="nc-icon-wrapper"><defs><linearGradient id="1777856185359-1834421_linear-gradient" x1="119.42" y1="38.07" x2="119.42" y2="120.1" gradientTransform="matrix(1 0 0 -1 0 514)" gradientUnits="userSpaceOnUse"><stop offset="0" stop-color="#a9d2e8"></stop><stop offset=".33" stop-color="#c5e2f1"></stop><stop offset=".76" stop-color="#e4f4fb"></stop><stop offset="1" stop-color="#f0fbff"></stop></linearGradient><linearGradient id="1777856185359-1834421_linear-gradient-2" x1="41.48" y1="2.04" x2="41.48" y2="50.77" gradientTransform="matrix(1 0 0 -1 0 514)" gradientUnits="userSpaceOnUse"><stop offset="0" stop-color="#a9d2e8"></stop><stop offset=".33" stop-color="#c5e2f1"></stop><stop offset=".76" stop-color="#e4f4fb"></stop><stop offset="1" stop-color="#f0fbff"></stop></linearGradient><radialGradient id="1777856185359-1834421_radial-gradient" cx="234.67" cy="311.02" fx="234.67" fy="311.02" r="283.49" gradientTransform="matrix(1 0 0 -.78 0 406.09)" gradientUnits="userSpaceOnUse"><stop offset="0" stop-color="#f0fbff"></stop><stop offset=".45" stop-color="#eefafe"></stop><stop offset=".63" stop-color="#e7f6fc"></stop><stop offset=".76" stop-color="#dbeff8"></stop><stop offset=".87" stop-color="#c9e5f2"></stop><stop offset=".97" stop-color="#b3d8eb"></stop><stop offset="1" stop-color="#a9d2e8"></stop></radialGradient></defs><path class="cls-3" d="M67.42,417.02c-16.55,51.97,87.72,84.57,104.28,32.68,15.1-47.36-89.17-80.04-104.28-32.68Z" fill="url(#1777856185359-1834421_linear-gradient)"></path><path class="cls-1" d="M26.8,467.2c-24.49,18.6,6.31,58.54,30.81,39.94,21.93-16.55-8.87-56.58-30.81-39.94Z" fill="url(#1777856185359-1834421_linear-gradient-2)"></path><path class="cls-2" d="M486.66,120.66c1.45-47.19-40.87-78.42-72.19-69.72-28.59-48.04-83.2-46.42-114.52-24.15C249.95-22.44,169.57-.09,149.34,63.66,72.97,19.54-6.39,111.02,25.95,170.5c-68.44,71.77,10.33,194.47,99.07,162.13,14.93,64.26,126.72,96.17,171.61,23.47,32.68,34.82,105.47,7.17,101.29-36.69,57.6,20.65,105.9-36.95,88.23-86.7,32.68-23.72,36.1-85.76.51-112.04Z" fill="url(#1777856185359-1834421_radial-gradient)"></path><path class="cls-4" d="M106.25,402.43c20.57,0,43.52,10.24,53.33,23.72,4.95,6.74,6.31,13.82,4.01,20.91-5.63,17.66-23.38,20.31-33.54,20.31-19.37,0-40.53-9.64-50.18-22.87-5.72-7.77-7.17-16.21-4.35-24.92,4.78-14.93,21.25-17.15,30.72-17.15M106.25,393.9c-17.83,0-33.62,6.83-38.83,23.13-10.67,33.45,28.84,58.88,62.72,58.88,18.69,0,35.75-7.77,41.64-26.28,9.81-30.98-31.57-55.72-65.54-55.72h0Z" fill="#a9d2e8"></path><path class="cls-4" d="M38.24,471.81c6.74,0,14.68,6.91,17.49,15.1,1.96,5.8.85,10.41-3.24,13.48-2.73,2.05-5.55,3.07-8.45,3.07-6.83,0-14.17-6.06-16.81-13.74-1.45-4.44-1.88-10.75,4.69-15.7,1.96-1.54,4.1-2.22,6.31-2.22M38.24,463.27c-3.84,0-7.77,1.19-11.43,4.01-20.14,15.19-3.07,44.71,17.24,44.71,4.52,0,9.13-1.45,13.57-4.78,18.26-13.91-.09-43.95-19.37-43.95h0Z" fill="#a9d2e8"></path><path class="cls-4" d="M235.96,8.53c21.5,0,42.07,8.62,58.03,24.32l5.12,5.03,5.8-4.18c12.03-8.53,27.65-13.4,42.84-13.4s41.3,4.52,59.39,34.99l3.33,5.63,6.31-1.71c2.73-.77,5.63-1.11,8.7-1.11,12.03,0,25.26,6.14,35.24,16.47,11.78,12.2,18.01,28.42,17.49,45.82l-.17,4.44,3.58,2.65c13.99,10.33,22.02,28.07,21.93,48.55-.09,20.74-8.7,39.77-22.36,49.66l-5.21,3.75,2.13,6.06c6.23,17.58,3.16,37.72-8.28,53.93-11.52,16.3-29.01,25.69-47.96,25.69-7,0-14.08-1.28-21.08-3.84l-12.63-4.52,1.28,13.4c1.02,10.92-4.27,19.37-8.96,24.49-10.24,11.26-27.73,18.6-44.63,18.6-9.47,0-22.87-2.3-33.02-13.06l-7.59-8.11-5.97,9.47c-20.22,32.77-51.97,37.63-69.12,37.63-41.13,0-79.36-25.69-86.95-58.54l-2.22-9.39-9.05,3.33c-8.79,3.16-17.66,4.78-26.54,4.78-32.6,0-64.43-23.04-79.1-57.34-14.68-34.22-8.79-69.97,15.7-95.66l4.27-4.52-2.82-5.46c-9.9-18.09-8.11-41.81,4.69-63.4,15.27-25.77,42.58-42.41,69.55-42.41h0c12.71,0,25.26,3.5,37.29,10.5l9.22,5.29,3.24-10.15c10.92-34.47,42.5-57.69,78.51-57.69M235.96,0c-37.63,0-73.98,23.72-86.7,63.66-13.99-8.11-28.07-11.61-41.56-11.61C47.62,52.05-.5,121.94,25.95,170.5c-60.67,63.66-5.55,167.42,69.63,167.42,9.56,0,19.46-1.71,29.44-5.29,8.87,38.31,52.22,65.11,95.23,65.11,29.18,0,58.2-12.29,76.37-41.64,10.33,11.01,24.58,15.7,39.25,15.7,31.74,0,64.94-22.44,62.04-52.48,8.28,2.99,16.3,4.27,23.98,4.27,46.08,0,79.36-48.38,64.26-90.97,32.68-23.64,36.18-85.67.51-112.04,1.28-41.9-31.83-71.17-61.27-71.17-3.75,0-7.42.51-10.92,1.45-16.64-27.99-42.15-39.08-66.73-39.08-17.58,0-34.73,5.72-47.79,15.02C281.27,8.45,258.31,0,235.96,0h0Z" fill="#a9d2e8"></path></g></svg>