<svg data-name="Layer 1" xmlns="http://www.w3.org/2000/svg" style="" viewBox="0 0 731.43 512"><g class="nc-icon-wrapper"><defs><linearGradient id="1777811038039-3792596_linear-gradient" x1="365.71" y1="331.14" x2="365.71" y2="453.05" gradientTransform="matrix(1 0 0 -1 0 514)" gradientUnits="userSpaceOnUse"><stop offset=".05" stop-color="#cf0000"></stop><stop offset=".05" stop-color="#d00000"></stop><stop offset=".09" stop-color="#e10000"></stop><stop offset=".14" stop-color="#ec0000"></stop><stop offset=".21" stop-color="#f30000"></stop><stop offset=".41" stop-color="#f50000"></stop><stop offset=".5" stop-color="#ff7259"></stop><stop offset=".6" stop-color="#f3594b"></stop></linearGradient><linearGradient id="1777811038039-3792596_linear-gradient-2" x1="365.71" y1="417.91" x2="365.71" y2="514" gradientTransform="matrix(1 0 0 -1 0 514)" gradientUnits="userSpaceOnUse"><stop offset=".7" stop-color="#302c3b"></stop><stop offset="1" stop-color="#4e585e"></stop></linearGradient></defs><path class="cls-5" d="M731.43,487.62c0,13.46-10.91,24.38-24.38,24.38H24.38c-13.46,0-24.38-10.92-24.38-24.38V170.67c382.95-23.64,731.43,0,731.43,0v316.95Z" fill="#f50000"></path><path class="cls-4" d="M652.52,64.78c-4.13-2.46-9.17-3.83-14.24-3.83H93.15c-5.07,0-10.09,1.37-14.24,3.83C0,111.75,0,112.26,0,132.06v50.8h731.43v-50.8c0-19.8,0-20.31-78.91-67.28Z" fill="url(#1777811038039-3792596_linear-gradient)"></path><path class="cls-6" d="M707.05,457.14c0,16.76-13.71,30.48-30.48,30.48H54.86c-16.76,0-30.48-13.71-30.48-30.48v-201.14h682.67v201.14Z" fill="#c40000"></path><path class="cls-5" d="M700.95,338.29c0,15.15-11.12,27.43-24.83,27.43H55.31c-13.71,0-24.83-12.28-24.83-27.43v-76.19h670.48v76.19Z" fill="#f50000"></path><path class="cls-5" d="M700.95,454.1c0,15.14-11.12,27.43-24.83,27.43H55.31c-13.71,0-24.83-12.29-24.83-27.43v-82.29h670.48v82.29Z" fill="#f50000"></path><path class="cls-7" d="M140.19,182.86h-12.19c-3.35,0-6.1-2.74-6.1-6.1v-24.38c0-3.35,2.74-6.1,6.1-6.1h12.19c3.35,0,6.1,2.74,6.1,6.1v24.38c0,3.35-2.74,6.1-6.1,6.1Z" fill="#e6ebef"></path><path class="cls-7" d="M91.43,182.86h-12.19c-3.35,0-6.1-2.74-6.1-6.1v-24.38c0-3.35,2.74-6.1,6.1-6.1h12.19c3.35,0,6.1,2.74,6.1,6.1v24.38c0,3.35-2.74,6.1-6.1,6.1Z" fill="#e6ebef"></path><path class="cls-1" d="M146.29,207.24l-6.1,6.1-4.72,14.12c-.83,2.5-3.15,4.17-5.78,4.17h-39.98c-2.62,0-4.95-1.67-5.77-4.17l-4.71-14.12-6.1-6.1v-18.29c0-3.35,2.74-6.1,6.1-6.1h60.95c3.35,0,6.1,2.74,6.1,6.1v18.29Z" fill="#b3c2c6"></path><path class="cls-2" d="M115.81,188.95h-12.19c-3.35,0-6.1-2.74-6.1-6.1v-24.38c0-3.35,2.74-6.1,6.1-6.1h12.19c3.35,0,6.1,2.74,6.1,6.1v24.38c0,3.35-2.74,6.1-6.1,6.1Z" fill="#cfd8dd"></path><path class="cls-8" d="M91.43,213.33c-3.38,0-6.1-2.72-6.1-6.1v-36.57c0-3.35,2.72-6.1,6.1-6.1s6.1,2.74,6.1,6.1v36.57c0,3.38-2.74,6.1-6.1,6.1Z" fill="#f2f5f7"></path><path class="cls-8" d="M128,213.33c-3.38,0-6.1-2.72-6.1-6.1v-36.57c0-3.35,2.72-6.1,6.1-6.1s6.1,2.74,6.1,6.1v36.57c0,3.38-2.74,6.1-6.1,6.1Z" fill="#f2f5f7"></path><path class="cls-7" d="M652.19,182.86h-12.19c-3.35,0-6.1-2.74-6.1-6.1v-24.38c0-3.35,2.74-6.1,6.1-6.1h12.19c3.35,0,6.1,2.74,6.1,6.1v24.38c0,3.35-2.74,6.1-6.1,6.1Z" fill="#e6ebef"></path><path class="cls-7" d="M603.43,182.86h-12.19c-3.35,0-6.1-2.74-6.1-6.1v-24.38c0-3.35,2.74-6.1,6.1-6.1h12.19c3.35,0,6.1,2.74,6.1,6.1v24.38c0,3.35-2.74,6.1-6.1,6.1Z" fill="#e6ebef"></path><path class="cls-1" d="M658.29,207.24l-6.1,6.1-4.72,14.12c-.83,2.5-3.15,4.17-5.78,4.17h-39.97c-2.62,0-4.95-1.67-5.77-4.17l-4.72-14.12-6.1-6.1v-18.29c0-3.35,2.74-6.1,6.1-6.1h60.95c3.35,0,6.1,2.74,6.1,6.1v18.29Z" fill="#b3c2c6"></path><path class="cls-2" d="M627.81,188.95h-12.19c-3.35,0-6.1-2.74-6.1-6.1v-24.38c0-3.35,2.74-6.1,6.1-6.1h12.19c3.35,0,6.1,2.74,6.1,6.1v24.38c0,3.35-2.74,6.1-6.1,6.1Z" fill="#cfd8dd"></path><path class="cls-8" d="M603.43,213.33c-3.38,0-6.1-2.72-6.1-6.1v-36.57c0-3.35,2.72-6.1,6.1-6.1s6.1,2.74,6.1,6.1v36.57c0,3.38-2.74,6.1-6.1,6.1Z" fill="#f2f5f7"></path><path class="cls-8" d="M640,213.33c-3.38,0-6.1-2.72-6.1-6.1v-36.57c0-3.35,2.72-6.1,6.1-6.1s6.1,2.74,6.1,6.1v36.57c0,3.38-2.74,6.1-6.1,6.1Z" fill="#f2f5f7"></path><path class="cls-3" d="M365.71,0c-98.35,0-120.19,17.6-130.43,85.69-1.57,10.4,10.36,10.4,26.33,10.4,1.45-81.63,53.96-59.23,104.09-59.23s102.67-22.39,104.09,59.23c16.01,0,27.9,0,26.33-10.4C485.9,17.6,464.07,0,365.71,0Z" fill="url(#1777811038039-3792596_linear-gradient-2)"></path><path class="cls-1" d="M422.42,96.09h47.38c2.27,0-.3-21.22-1.85-21.22h-24.19c-10.68,0-21.35,11.31-21.35,21.22Z" fill="#b3c2c6"></path><path class="cls-1" d="M309,96.09h-47.38c-2.27,0,.3-21.22,1.88-21.22h24.19c10.65,0,21.32,11.31,21.32,21.22Z" fill="#b3c2c6"></path><path class="cls-2" d="M700.95,399.24H30.48v-27.43h670.48v27.43Z" fill="#cfd8dd"></path><path class="cls-2" d="M700.95,289.52H30.48v-27.43h670.48v27.43Z" fill="#cfd8dd"></path></g></svg>