<svg xmlns="http://www.w3.org/2000/svg" style="" viewBox="0 0 443.73 512"><g class="nc-icon-wrapper"><defs><linearGradient id="1776131386792-9937480_linear-gradient" x1="67.08" y1="932.61" x2="376.66" y2="932.61" gradientTransform="translate(0 -487.23)" gradientUnits="userSpaceOnUse"><stop offset="0" stop-color="#717b80"></stop><stop offset=".23" stop-color="#889499"></stop><stop offset=".52" stop-color="#a0adb2"></stop><stop offset=".79" stop-color="#aebdc1"></stop><stop offset="1" stop-color="#b3c2c6"></stop></linearGradient><linearGradient id="1776131386792-9937480_linear-gradient-2" x1="49.24" y1="723.92" x2="379.57" y2="723.92" gradientTransform="translate(0 -487.23)" gradientUnits="userSpaceOnUse"><stop offset="0" stop-color="#b3c2c6"></stop><stop offset=".21" stop-color="#aebdc1"></stop><stop offset=".48" stop-color="#a0adb2"></stop><stop offset=".77" stop-color="#889499"></stop><stop offset="1" stop-color="#717b80"></stop></linearGradient><linearGradient id="1776131386792-9937480_linear-gradient-3" x1="17.31" y1="754.84" x2="347.68" y2="754.84" gradientTransform="translate(0 -487.23)" gradientUnits="userSpaceOnUse"><stop offset="0" stop-color="#b3c2c6"></stop><stop offset=".21" stop-color="#aebdc1"></stop><stop offset=".48" stop-color="#a0adb2"></stop><stop offset=".77" stop-color="#889499"></stop><stop offset="1" stop-color="#717b80"></stop></linearGradient><linearGradient id="1776131386792-9937480_linear-gradient-4" x1="64.16" y1="723.92" x2="394.5" y2="723.92" gradientTransform="translate(0 -487.23)" gradientUnits="userSpaceOnUse"><stop offset="0" stop-color="#b3c2c6"></stop><stop offset=".21" stop-color="#aebdc1"></stop><stop offset=".48" stop-color="#a0adb2"></stop><stop offset=".77" stop-color="#889499"></stop><stop offset="1" stop-color="#717b80"></stop></linearGradient><linearGradient id="1776131386792-9937480_linear-gradient-5" x1="96.07" y1="754.86" x2="426.43" y2="754.86" gradientTransform="translate(0 -487.23)" gradientUnits="userSpaceOnUse"><stop offset="0" stop-color="#b3c2c6"></stop><stop offset=".21" stop-color="#aebdc1"></stop><stop offset=".48" stop-color="#a0adb2"></stop><stop offset=".77" stop-color="#889499"></stop><stop offset="1" stop-color="#717b80"></stop></linearGradient><linearGradient id="1776131386792-9937480_linear-gradient-6" x1="139.35" y1="742.45" x2="414.06" y2="742.45" gradientTransform="translate(0 -487.23)" gradientUnits="userSpaceOnUse"><stop offset="0" stop-color="#b3c2c6"></stop><stop offset=".21" stop-color="#aebdc1"></stop><stop offset=".48" stop-color="#a0adb2"></stop><stop offset=".77" stop-color="#889499"></stop><stop offset="1" stop-color="#717b80"></stop></linearGradient><linearGradient id="1776131386792-9937480_linear-gradient-7" x1="192.65" y1="746.96" x2="402.69" y2="746.96" gradientTransform="translate(0 -487.23)" gradientUnits="userSpaceOnUse"><stop offset="0" stop-color="#b3c2c6"></stop><stop offset=".21" stop-color="#aebdc1"></stop><stop offset=".48" stop-color="#a0adb2"></stop><stop offset=".77" stop-color="#889499"></stop><stop offset="1" stop-color="#717b80"></stop></linearGradient><linearGradient id="1776131386792-9937480_linear-gradient-8" x1="176.8" y1="746.92" x2="392.29" y2="746.92" gradientTransform="translate(0 -487.23)" gradientUnits="userSpaceOnUse"><stop offset="0" stop-color="#b3c2c6"></stop><stop offset=".21" stop-color="#aebdc1"></stop><stop offset=".48" stop-color="#a0adb2"></stop><stop offset=".77" stop-color="#889499"></stop><stop offset="1" stop-color="#717b80"></stop></linearGradient><linearGradient id="1776131386792-9937480_linear-gradient-9" x1="104.78" y1="745.41" x2="382.45" y2="745.41" gradientTransform="translate(0 -487.23)" gradientUnits="userSpaceOnUse"><stop offset="0" stop-color="#b3c2c6"></stop><stop offset=".21" stop-color="#aebdc1"></stop><stop offset=".48" stop-color="#a0adb2"></stop><stop offset=".77" stop-color="#889499"></stop><stop offset="1" stop-color="#717b80"></stop></linearGradient><linearGradient id="1776131386792-9937480_linear-gradient-10" x1="61.28" y1="745.42" x2="338.97" y2="745.42" gradientTransform="translate(0 -487.23)" gradientUnits="userSpaceOnUse"><stop offset="0" stop-color="#b3c2c6"></stop><stop offset=".21" stop-color="#aebdc1"></stop><stop offset=".48" stop-color="#a0adb2"></stop><stop offset=".77" stop-color="#889499"></stop><stop offset="1" stop-color="#717b80"></stop></linearGradient><linearGradient id="1776131386792-9937480_linear-gradient-11" x1="51.43" y1="746.93" x2="266.94" y2="746.93" gradientTransform="translate(0 -487.23)" gradientUnits="userSpaceOnUse"><stop offset="0" stop-color="#b3c2c6"></stop><stop offset=".21" stop-color="#aebdc1"></stop><stop offset=".48" stop-color="#a0adb2"></stop><stop offset=".77" stop-color="#889499"></stop><stop offset="1" stop-color="#717b80"></stop></linearGradient><linearGradient id="1776131386792-9937480_linear-gradient-12" x1="41.07" y1="746.97" x2="251.11" y2="746.97" gradientTransform="translate(0 -487.23)" gradientUnits="userSpaceOnUse"><stop offset="0" stop-color="#b3c2c6"></stop><stop offset=".21" stop-color="#aebdc1"></stop><stop offset=".48" stop-color="#a0adb2"></stop><stop offset=".77" stop-color="#889499"></stop><stop offset="1" stop-color="#717b80"></stop></linearGradient><linearGradient id="1776131386792-9937480_linear-gradient-13" x1="29.66" y1="742.45" x2="304.36" y2="742.45" gradientTransform="translate(0 -487.23)" gradientUnits="userSpaceOnUse"><stop offset="0" stop-color="#b3c2c6"></stop><stop offset=".21" stop-color="#aebdc1"></stop><stop offset=".48" stop-color="#a0adb2"></stop><stop offset=".77" stop-color="#889499"></stop><stop offset="1" stop-color="#717b80"></stop></linearGradient><linearGradient id="1776131386792-9937480_linear-gradient-14" x1="65.05" y1="960.43" x2="378.67" y2="960.43" gradientTransform="translate(0 -487.23)" gradientUnits="userSpaceOnUse"><stop offset="0" stop-color="#b3c2c6"></stop><stop offset=".21" stop-color="#aebdc1"></stop><stop offset=".48" stop-color="#a0adb2"></stop><stop offset=".77" stop-color="#889499"></stop><stop offset="1" stop-color="#717b80"></stop></linearGradient><radialGradient id="1776131386792-9937480_radial-gradient" cx="270.77" cy="2187.74" fx="270.77" fy="2187.74" r="279.62" gradientTransform="matrix(.95 0 0 .25 -34.14 -490.16)" gradientUnits="userSpaceOnUse"><stop offset=".53" stop-color="#717b80"></stop><stop offset=".58" stop-color="#7a858a"></stop><stop offset=".67" stop-color="#94a0a5"></stop><stop offset=".76" stop-color="#b3c2c6"></stop><stop offset=".81" stop-color="#aebdc1"></stop><stop offset=".87" stop-color="#a0adb2"></stop><stop offset=".94" stop-color="#889499"></stop><stop offset="1" stop-color="#717b80"></stop></radialGradient></defs><path class="cls-1" d="M66.97,445.74c-14.23-120.43-29.43-240.88-45.59-361.32,4.38-.25,8.74-.5,13.11-.75,15.06,116.34,29.22,232.69,42.45,349.02-3.35,4.35-6.68,8.71-9.98,13.05h0Z" fill="#b3c2c6"></path><path class="cls-10" d="M376.43,445.74c14.2-120.44,29.39-240.89,45.53-361.34-4.38-.25-8.74-.5-13.12-.75-15.05,116.34-29.17,232.69-42.41,349.02,3.35,4.36,6.68,8.72,9.99,13.06h0Z" fill="#717b80"></path><path class="cls-12" d="M221.86,509.67c-74.46,0-151.48-22.07-154.69-64.29-3.22-42.21,75.39-64.31,154.69-64.3,79.31,0,157.92,22.09,154.7,64.3-3.22,42.21-80.24,64.29-154.7,64.29ZM221.86,405.8c-87.59,0-133.59,26.14-132.65,39.58.94,13.44,48.56,39.56,132.65,39.56,84.08-.02,131.72-26.12,132.66-39.56.93-13.44-45.06-39.58-132.66-39.58h0Z" fill="url(#1776131386792-9937480_linear-gradient)"></path><path class="cls-18" d="M225.6,399.49c-94.75,0-144.26,34.11-143.07,51.7,1.19,17.52,52.68,51.7,143.07,51.68,90.39,0,141.88-34.14,143.08-51.68,1.17-17.56-48.32-51.71-143.08-51.7h0Z" fill="#768489"></path><path class="cls-9" d="M378.01,439.55c-8.15-71.99-90.09-168.57-172.15-248.62C136.94,122.66,64.65,58.2,62.48,23.01h-13.23c2.61,40.46,73.96,103.69,147.99,176.9,84.25,82.1,168.15,182.07,170.23,250.46,0,0,8.35-7.45,10.55-10.82h0Z" fill="url(#1776131386792-9937480_linear-gradient-2)"></path><path class="cls-8" d="M336.61,478.82c-3.07-48.88-62.43-121.07-134.13-197.51C133.38,206.94,53.97,130.03,17.31,61.48l11.6-5.07c35.34,66.47,113.83,142.55,182.16,216.11,73.13,77.97,133.52,151.61,136.61,204.62-3.67.56-7.37,1.12-11.06,1.66h0Z" fill="url(#1776131386792-9937480_linear-gradient-3)"></path><path class="cls-7" d="M381.28,23.01c-2.18,35.17-74.47,99.66-143.4,167.92-82.01,80.01-163.93,176.51-172.15,248.52,2.18,3.37,10.54,10.92,10.53,10.93,2.07-68.41,85.96-168.33,170.24-250.46C320.53,126.72,391.88,63.48,394.5,23.01h-13.23,0Z" fill="url(#1776131386792-9937480_linear-gradient-4)"></path><path class="cls-4" d="M107.13,478.82c-3.68-.55-7.37-1.1-11.06-1.65,3.09-53.01,63.47-126.65,136.6-204.6,68.35-73.56,146.84-149.66,182.17-216.14,3.87,1.69,7.74,3.38,11.6,5.07-36.66,68.54-116.09,145.47-185.18,219.85-71.7,76.41-131.05,148.6-134.12,197.48h0Z" fill="url(#1776131386792-9937480_linear-gradient-5)"></path><path class="cls-5" d="M150,494.22c-3.54-1.24-7.09-2.48-10.65-3.71,11.33-49.35,65.28-111.13,122.9-170.87,62.58-65.63,134.56-133.51,138.7-179.56,6.14-65.29-71.08-112.61-72.26-113.1,2.43-3.59,4.87-7.17,7.31-10.76,3.96,2.06,84.77,51.62,77.62,124.04-4.75,51.19-75.83,117.78-143.19,188.3-56.57,58.63-109.6,119.31-120.43,165.66h0Z" fill="url(#1776131386792-9937480_linear-gradient-6)"></path><path class="cls-3" d="M202.81,499.3c-3.38-1.64-6.77-3.29-10.16-4.93,16.09-44.89,50.8-83.94,86.25-121.69,46.64-49.98,98.71-101.69,110.33-167.67,9.03-50.28-45.85-98.17-88.58-133.12-30.57-25.18-47.13-38.9-46.96-51.74h13.25c-.1,7.54,22.72,25.87,42.33,42.07,45.07,36.78,102.68,87.16,92.17,144.17-12.7,70.36-66.47,123.64-114.55,175.15-36.24,38.6-68.58,75.09-84.07,117.75h-.02Z" fill="url(#1776131386792-9937480_linear-gradient-7)"></path><path class="cls-2" d="M251.07,499.23c-3.37-1.59-6.75-3.18-10.14-4.78,12.78-35.05,37.47-60.88,62.17-85.84,36.21-36.75,72.44-71.44,76.87-133.97,4.59-59.76-64.24-120.86-124.51-169.93-42.74-35.14-78.32-62.89-78.68-84.56h13.25c.22,15.76,36.83,44.47,73.78,74.86,62.42,50.77,133.54,113.96,128.18,179.7-5.17,67.89-45.05,106.1-81.4,143.02-24.86,25.16-47.55,48.92-59.55,81.48h0Z" fill="url(#1776131386792-9937480_linear-gradient-8)"></path><path class="cls-6" d="M304.04,494.79c-3.33-1.62-6.65-3.24-9.99-4.86,9.44-23.75,24.16-42.12,38.74-59.87,19.12-23.35,36.26-43.52,37.75-70.74,5.01-76.3-82.83-159.67-162.24-226.64-55.43-47.36-102.41-84.74-103.52-111.1h13.24c.84,20.6,49.88,59.92,98.59,101.56,81.46,68.64,171.35,154.07,165.58,236.08-1.93,31.93-21.4,54.81-41.24,79.04-13.99,17.02-28.11,34.62-36.9,56.52h0Z" fill="url(#1776131386792-9937480_linear-gradient-9)"></path><path class="cls-13" d="M139.69,494.79c-8.79-21.92-22.94-39.53-36.89-56.53-19.84-24.21-39.31-47.08-41.24-79.02-5.77-82,84.1-167.45,165.59-236.08,48.71-41.64,97.75-80.97,98.59-101.56h13.24c-1.12,26.35-48.09,63.74-103.53,111.09-79.4,66.98-167.25,150.32-162.24,226.64,1.5,27.22,18.62,47.39,37.74,70.73,14.58,17.78,29.3,36.15,38.74,59.89-3.35,1.62-6.66,3.23-9.99,4.85h0Z" fill="url(#1776131386792-9937480_linear-gradient-10)"></path><path class="cls-14" d="M192.67,499.23c-11.99-32.54-34.68-56.33-59.56-81.48-36.35-36.94-76.25-75.15-81.4-143.02-5.39-65.71,65.74-128.93,128.18-179.71,36.95-30.4,73.56-59.11,73.79-74.85h13.25c-.36,21.65-35.96,49.43-78.68,84.55-60.27,49.1-129.12,110.16-124.51,169.94,4.45,62.5,40.68,97.21,76.89,133.97,24.7,24.98,49.38,50.78,62.17,85.84-3.39,1.59-6.77,3.18-10.14,4.78h0Z" fill="url(#1776131386792-9937480_linear-gradient-11)"></path><path class="cls-15" d="M240.93,499.3c-15.48-42.68-47.83-79.12-84.06-117.75-48.07-51.52-101.84-104.81-114.55-175.16-10.51-57.02,47.1-107.39,92.17-144.17,19.6-16.18,42.42-34.53,42.33-42.07h13.25c.18,12.84-16.39,26.59-46.96,51.74-42.74,34.96-97.6,82.83-88.58,133.12,11.6,65.99,63.67,117.68,110.33,167.67,35.45,37.75,70.15,76.8,86.24,121.69-3.39,1.65-6.78,3.29-10.17,4.94h0Z" fill="url(#1776131386792-9937480_linear-gradient-12)"></path><path class="cls-16" d="M293.73,494.22c-10.82-46.35-63.85-107.02-120.43-165.66C105.94,258.02,34.85,191.43,30.11,140.26,22.95,67.82,103.79,18.28,107.74,16.22c2.44,3.59,4.88,7.16,7.31,10.75-1.18.47-78.4,47.91-72.28,113.11,4.14,46.04,76.11,113.95,138.7,179.56,57.62,59.75,111.59,121.53,122.89,170.88-3.54,1.24-7.09,2.48-10.63,3.71Z" fill="url(#1776131386792-9937480_linear-gradient-13)"></path><path class="cls-17" d="M221.86,487.71c-68.75,0-139.26-18.27-155.25-53.32-1.23,3.87-1.77,7.89-1.48,12.15,3.32,42.98,81.36,65.47,156.74,65.46s153.42-22.49,156.74-65.46c.28-4.26-.25-8.29-1.47-12.15-16,35.06-86.5,53.32-155.26,53.32Z" fill="url(#1776131386792-9937480_linear-gradient-14)"></path><path class="cls-11" d="M221.86,0C143.14,0-4.61,13.29.11,63.46c4.72,50.18,147.08,63.46,221.75,63.44,74.67,0,217.04-13.26,221.75-63.44C448.35,13.27,300.6,0,221.86,0ZM221.86,101.71c-126.88,0-194.64-26.83-195.67-38.25-1.05-11.44,64.37-38.27,195.67-38.27s196.72,26.82,195.67,38.26c-1.04,11.45-68.77,38.25-195.67,38.26Z" fill="url(#1776131386792-9937480_radial-gradient)"></path></g></svg>