<svg data-name="Layer 1" xmlns="http://www.w3.org/2000/svg" style="" viewBox="0 0 512 512"><g class="nc-icon-wrapper"><defs><linearGradient id="1776585740555-4995092_linear-gradient" x1="512" y1="865.71" x2="258.52" y2="865.71" gradientTransform="translate(0 -512)" gradientUnits="userSpaceOnUse"><stop offset="0" stop-color="#4d8019"></stop><stop offset="0" stop-color="#4d8019"></stop><stop offset=".67" stop-color="#7fb52b"></stop><stop offset="1" stop-color="#92c932"></stop></linearGradient><linearGradient id="1776585740555-4995092_linear-gradient-2" x1="0" y1="829.68" x2="265.76" y2="829.68" gradientTransform="translate(0 -512)" gradientUnits="userSpaceOnUse"><stop offset="0" stop-color="#4d8019"></stop><stop offset="0" stop-color="#4d8019"></stop><stop offset=".67" stop-color="#7fb52b"></stop><stop offset="1" stop-color="#92c932"></stop></linearGradient><linearGradient id="1776585740555-4995092_linear-gradient-3" x1="246.17" y1="894.36" x2="273.47" y2="894.36" gradientTransform="translate(0 -512)" gradientUnits="userSpaceOnUse"><stop offset="0" stop-color="#92c932"></stop><stop offset=".21" stop-color="#8bc12f"></stop><stop offset=".52" stop-color="#77ac28"></stop><stop offset=".91" stop-color="#568a1c"></stop><stop offset="1" stop-color="#4d8019"></stop></linearGradient><linearGradient id="1776585740555-4995092_linear-gradient-4" x1="265.28" y1="715.6" x2="265.28" y2="512" gradientTransform="translate(0 -512)" gradientUnits="userSpaceOnUse"><stop offset="0" stop-color="#8b0539"></stop><stop offset=".14" stop-color="#8b0539"></stop><stop offset="1" stop-color="#f22462"></stop></linearGradient><linearGradient id="1776585740555-4995092_linear-gradient-5" x1="251.65" y1="778.91" x2="182.33" y2="543.11" gradientTransform="translate(0 -512)" gradientUnits="userSpaceOnUse"><stop offset="0" stop-color="#7cb518"></stop><stop offset="0" stop-color="#80b41d"></stop><stop offset=".02" stop-color="#adab58"></stop><stop offset=".03" stop-color="#d0a386"></stop><stop offset=".04" stop-color="#ea9ea7"></stop><stop offset=".05" stop-color="#f99abc"></stop><stop offset=".06" stop-color="#ff99c3"></stop><stop offset=".07" stop-color="#ff96c0"></stop><stop offset=".16" stop-color="#ff78a8"></stop><stop offset=".26" stop-color="#ff6094"></stop><stop offset=".37" stop-color="#ff4d85"></stop><stop offset=".5" stop-color="#ff407a"></stop><stop offset=".67" stop-color="#ff3874"></stop><stop offset="1" stop-color="#ff3672"></stop></linearGradient><linearGradient id="1776585740555-4995092_linear-gradient-6" x1="307.02" y1="781.65" x2="307.02" y2="536.02" gradientTransform="translate(0 -512)" gradientUnits="userSpaceOnUse"><stop offset="0" stop-color="#6dab00"></stop><stop offset="0" stop-color="#83a81d"></stop><stop offset=".02" stop-color="#afa358"></stop><stop offset=".03" stop-color="#d19f86"></stop><stop offset=".04" stop-color="#ea9ca7"></stop><stop offset=".05" stop-color="#fa9abc"></stop><stop offset=".06" stop-color="#ff99c3"></stop><stop offset=".23" stop-color="#ff82b0"></stop><stop offset=".57" stop-color="#ff598e"></stop><stop offset=".84" stop-color="#ff3f7a"></stop><stop offset="1" stop-color="#ff3672"></stop></linearGradient><linearGradient id="1776585740555-4995092_linear-gradient-7" x1="98.97" y1="868.06" x2="160.92" y2="805.56" gradientTransform="translate(0 -512)" gradientUnits="userSpaceOnUse"><stop offset="0" stop-color="#6ca82e"></stop><stop offset=".24" stop-color="#6ca82e"></stop><stop offset=".48" stop-color="#7eb830"></stop><stop offset=".76" stop-color="#8dc531"></stop><stop offset="1" stop-color="#92c932"></stop></linearGradient><linearGradient id="1776585740555-4995092_linear-gradient-8" x1="400.48" y1="889.35" x2="354.08" y2="842.95" gradientTransform="translate(0 -512)" gradientUnits="userSpaceOnUse"><stop offset="0" stop-color="#6ca82e"></stop><stop offset=".24" stop-color="#6ca82e"></stop><stop offset=".48" stop-color="#7eb830"></stop><stop offset=".76" stop-color="#8dc531"></stop><stop offset="1" stop-color="#92c932"></stop></linearGradient></defs><path class="cls-8" d="M259.28,418.12c7.28-26.2,17.92-48.49,31.93-66.87,14.01-18.38,30.11-34.12,48.31-47.22s37.39-24.74,57.59-34.93c20.2-10.19,40.21-20.29,60.04-30.29,19.83-10.01,38.12-21.38,54.86-34.12-13.46,25.84-26.56,47.31-39.3,64.41-12.74,17.1-25.11,31.2-37.12,42.3-12.01,11.1-23.74,20.74-35.21,28.93s-22.65,16.47-33.57,24.84-21.65,18.19-32.2,29.48c-10.55,11.28-20.92,25.56-31.11,42.85-10.19,17.29-20.2,39.03-30.02,65.23,0,0-.91-3.46-2.73-10.37s-3.82-15.28-6-25.11c-2.18-9.83-3.91-19.29-5.19-28.38-1.27-9.1-1.36-16.01-.27-20.74Z" fill="url(#1776585740555-4995092_linear-gradient)"></path><path class="cls-7" d="M265.28,397.92c.73,4.37.64,10.73-.27,19.1-.91,8.37-2.37,17.47-4.37,27.29-2,9.83-4.09,19.2-6.28,28.11-2.18,8.92-4.09,16.19-5.73,21.83s-2.46,8.46-2.46,8.46c-10.19-32.75-21.56-60.68-34.12-83.79-12.55-23.11-25.56-42.85-39.03-59.22-13.46-16.38-27.11-30.93-40.94-43.67-13.83-12.74-27.38-24.84-40.67-36.3-13.28-11.46-25.75-23.84-37.39-37.12-11.64-13.28-22.11-28.66-31.39-46.12-9.28-17.47-16.83-38.75-22.65-63.86,17.47,16.01,36.57,30.2,57.31,42.58,20.74,12.37,41.76,24.93,63.04,37.66,21.29,12.74,41.48,27.2,60.59,43.39s36.03,35.66,50.76,58.41c14.74,22.74,25.93,50.49,33.57,83.24Z" fill="url(#1776585740555-4995092_linear-gradient-2)"></path><path class="cls-6" d="M248.36,262h22.93c.73,21.47,1.18,43.49,1.36,66.05.18,22.56.36,44.3.55,65.23.18,20.92.27,39.57.27,55.95v53.49h-27.29v-53.49c0-16.38.09-35.02.27-55.95.18-20.92.45-42.67.82-65.23.36-22.56.73-44.58,1.09-66.05Z" fill="url(#1776585740555-4995092_linear-gradient-3)"></path><path class="cls-9" d="M307.31,40.39c16.38-8.37,31.48-13.19,45.3-14.46,13.83-1.27,23.65-1.91,29.48-1.91-24.02,42.21-49.67,69.59-76.96,82.15s-54.49,11.64-81.6-2.73c-27.11-14.37-52.86-40.85-77.24-79.42,6.19,0,15.83.73,28.93,2.18,13.1,1.46,27.47,6.73,43.12,15.83,10.55-10.55,21.01-19.2,31.39-25.93s17.92-12.1,22.65-16.1c5.46,9.1,11.19,16.74,17.19,22.93s11.92,12.01,17.74,17.47Z" fill="#b81d4b"></path><path class="cls-5" d="M181.22,144.65c0-16.01,3-28.93,9.01-38.75s13.56-18.29,22.65-25.38,18.1-14.1,27.02-21.01,16.47-14.92,22.65-24.02c6.19-9.1,9.46-20.92,9.83-35.48,4.73,4,11.28,10.01,19.65,18.01s16.92,18.1,25.65,30.29,16.19,26.38,22.38,42.58c6.19,16.19,9.28,34.12,9.28,53.77,0,13.1-4.09,24.02-12.28,32.75s-18.65,15.28-31.39,19.65c-12.74,4.37-26.29,6.55-40.67,6.55s-27.93-2.18-40.67-6.55c-12.74-4.37-23.11-10.92-31.11-19.65s-12.01-19.65-12.01-32.75Z" fill="url(#1776585740555-4995092_linear-gradient-4)"></path><path class="cls-3" d="M285.48,168.67c4,14.92,5.19,28.57,3.55,40.94-1.64,12.37-4.82,23.02-9.55,31.93-4.73,8.92-10.01,15.83-15.83,20.74-5.82,4.91-10.92,7.37-15.28,7.37,0-1.82-.18-3.73-.55-5.73s-2.18-3.37-5.46-4.09c-13.83-2.55-26.93-8.01-39.3-16.38-12.37-8.37-22.2-19.65-29.48-33.84-7.28-14.19-10.55-31.29-9.83-51.31,1.09-20.38.82-37.39-.82-51.04-1.64-13.65-3.73-25.11-6.28-34.39s-4.91-17.65-7.1-25.11-3.28-15.37-3.28-23.74c5.46,0,13.92,1.46,25.38,4.37s24.2,9.1,38.21,18.56,27.75,23.84,41.21,43.12c13.46,19.29,24.93,45.49,34.39,78.6Z" fill="url(#1776585740555-4995092_linear-gradient-5)"></path><path class="cls-4" d="M235.8,168.67c7.64-26.2,16.83-48.13,27.57-65.77,10.73-17.65,22.02-31.75,33.84-42.3,11.83-10.55,23.47-18.47,34.93-23.74s21.65-8.73,30.57-10.37,15.56-2.46,19.92-2.46c-.36,8.37-2,16.28-4.91,23.74-2.91,7.46-6.1,15.83-9.55,25.11-3.46,9.28-6.37,20.74-8.73,34.39-2.37,13.65-3,30.66-1.91,51.04.73,19.29-2.55,36.03-9.83,50.22s-16.92,25.56-28.93,34.12c-12.01,8.55-24.74,14.28-38.21,17.19-4,1.09-6.46,2.27-7.37,3.55s-1.36,3.37-1.36,6.28c-4.37,0-9.46-2.46-15.28-7.37-5.82-4.91-11.01-11.83-15.56-20.74s-7.55-19.56-9.01-31.93-.18-26.02,3.82-40.94Z" fill="url(#1776585740555-4995092_linear-gradient-6)"></path><path class="cls-2" d="M274.01,502.72h-27.84c-10.55-30.93-23.47-57.68-38.75-80.24-15.28-22.56-31.48-42.48-48.58-59.77-17.1-17.29-34.12-33.75-51.04-49.4-16.92-15.65-32.84-31.84-47.76-48.58-14.92-16.74-27.66-35.66-38.21-56.77C11.28,186.86,4,161.75,0,132.64c8.37,25.47,19.65,47.94,33.84,67.41s30.11,37.57,47.76,54.31,35.84,33.3,54.58,49.67c18.74,16.38,37.03,34.02,54.86,52.95,17.83,18.92,33.93,40.12,48.31,63.59s25.93,50.85,34.66,82.15Z" fill="url(#1776585740555-4995092_linear-gradient-7)"></path><path class="cls-1" d="M246.17,502.72c5.82-30.93,15.28-57.59,28.38-79.97s28.47-41.94,46.12-58.68c17.65-16.74,36.03-31.66,55.13-44.76s37.66-25.38,55.68-36.84c18.01-11.46,34.12-23.38,48.31-35.75s24.93-26.38,32.2-42.03c-3.64,23.29-11.28,44.49-22.93,63.59s-25.47,36.84-41.48,53.22c-16.01,16.38-32.93,31.93-50.76,46.67s-35.12,29.2-51.86,43.39c-16.74,14.19-31.48,28.75-44.21,43.67-12.74,14.92-21.65,30.75-26.75,47.49-1.46,4-4.55,6.73-9.28,8.19-4.73,1.46-9.19,1.46-13.37,0s-5.91-4.18-5.19-8.19Z" fill="url(#1776585740555-4995092_linear-gradient-8)"></path></g></svg>