<svg data-name="Layer 1" xmlns="http://www.w3.org/2000/svg" style="" viewBox="0 0 630.14 512"><g class="nc-icon-wrapper"><defs><radialGradient id="1776585740062-4548053_radial-gradient" cx="113.43" cy="345.8" fx="113.43" fy="345.8" r="127.7" gradientTransform="matrix(.96 0 0 -1.07 -2.09 520.54)" gradientUnits="userSpaceOnUse"><stop offset="0" stop-color="#649c2b"></stop><stop offset=".24" stop-color="#73aa2d"></stop><stop offset=".71" stop-color="#8ac131"></stop><stop offset="1" stop-color="#92c932"></stop></radialGradient><linearGradient id="1776585740062-4548053_linear-gradient" x1="550.96" y1="173.62" x2="630.14" y2="173.62" gradientTransform="matrix(1 0 0 -1 0 506)" gradientUnits="userSpaceOnUse"><stop offset="0" stop-color="#649c2b"></stop><stop offset=".3" stop-color="#6da52c"></stop><stop offset=".79" stop-color="#85bc30"></stop><stop offset="1" stop-color="#92c932"></stop></linearGradient><linearGradient id="1776585740062-4548053_linear-gradient-2" x1="356.99" y1="98.7" x2="356.99" y2="267.82" gradientTransform="matrix(1 0 0 -1 0 506)" gradientUnits="userSpaceOnUse"><stop offset="0" stop-color="#f90"></stop><stop offset=".17" stop-color="#fa0"></stop><stop offset=".41" stop-color="#fb0"></stop><stop offset=".67" stop-color="#ffc500"></stop><stop offset="1" stop-color="#ffc800"></stop></linearGradient><radialGradient id="1776585740062-4548053_radial-gradient-2" cx="266.71" cy="397.18" fx="266.71" fy="397.18" r="107.51" gradientTransform="matrix(.90813 .36838 .67094 -2.02641 -325.92 969.37)" gradientUnits="userSpaceOnUse"><stop offset=".23" stop-color="#92c932"></stop><stop offset="1" stop-color="#649c2b"></stop></radialGradient><radialGradient id="1776585740062-4548053_radial-gradient-3" cx="112.95" cy="66" fx="112.95" fy="66" r="89.14" gradientTransform="matrix(.84502 -.5158 -.98898 -1.86835 418.24 513.56)" gradientUnits="userSpaceOnUse"><stop offset=".23" stop-color="#92c932"></stop><stop offset="1" stop-color="#649c2b"></stop></radialGradient><linearGradient id="1776585740062-4548053_linear-gradient-3" x1="146.86" y1="290.05" x2="571.67" y2="290.05" gradientTransform="matrix(1 0 0 -1 0 506)" gradientUnits="userSpaceOnUse"><stop offset="0" stop-color="#56a134"></stop><stop offset=".23" stop-color="#549d34"></stop><stop offset=".46" stop-color="#4e9132"></stop><stop offset=".7" stop-color="#447c31"></stop><stop offset=".94" stop-color="#36602e"></stop><stop offset="1" stop-color="#32572d"></stop></linearGradient><linearGradient id="1776585740062-4548053_linear-gradient-4" x1="361.12" y1="374.72" x2="361.12" y2="138.08" gradientTransform="matrix(1 0 0 -1 0 506)" gradientUnits="userSpaceOnUse"><stop offset="0" stop-color="#56a134"></stop><stop offset=".23" stop-color="#549d34"></stop><stop offset=".46" stop-color="#4e9132"></stop><stop offset=".7" stop-color="#447c31"></stop><stop offset=".94" stop-color="#36602e"></stop><stop offset="1" stop-color="#32572d"></stop></linearGradient></defs><path class="cls-1" d="M19.67,110.51s71.72-63.74,84.73-7.87c0,0-63.56,64.94-84.73,7.87Z" fill="#297124"></path><path class="cls-9" d="M168.26,22.22C129.1-25.42-12.43,8.41.88,77.61c2.35,12.16,5.72,23.99,7.78,30.63,1.05,3.49,3.93,2.22,5.24.87,14.95-15.01,48.5-.55,81.89-20.35-19.22,26.91-76.12,21.75-76.12,21.75-6.8,20.53,6.21,54.73,67.86,41.65,53.38-11.28-17.69,140.92,118.21,129.28,39.13,14.08,47.33-18.36,50.93-38.21,6.03-33.23-83.97-16.02-78.5-52.09,6.45-42.54,19.45-133.24-9.91-168.92Z" fill="url(#1776585740062-4548053_radial-gradient)"></path><path class="cls-1" d="M13.15,54.92c-1.97-2.25,6.39-13.2,8.85-11.65,2.73,1.72-6.68,14.07-8.85,11.65Z" fill="#297124"></path><path class="cls-13" d="M86.09,25.36c-14.95,0-20.83,12.69-19.49,22.55.91,7.36,38.07,7.36,39.03,0,1.37-10.67-5.85-22.55-19.54-22.55Z" fill="#174014"></path><path class="cls-14" d="M86.09,28.92c-10.77,0-19.49,8-19.49,17.89,0,8.54,8.69,17.97,19.49,17.94,10.8,0,19.54-10.93,19.54-17.94,0-9.89-8.72-17.89-19.54-17.89Z" fill="#fff"></path><path class="cls-8" d="M84.2,32.38c8.09-.02,14.6,6.4,14.6,14.32s-6.52,14.21-14.6,14.21-14.56-6.38-14.56-14.21c0-7.92,6.51-14.32,14.56-14.32Z" fill="#1a1626"></path><path class="cls-14" d="M83.07,39.59c0,5.1-8,5.1-8,0s8-5.27,8,0Z" fill="#fff"></path><path class="cls-10" d="M572.92,305.84l-21.96,28.59c35.54,41.54,78.24,18.75,79.17,13.76.66-3.51-45.7-15.4-57.21-42.36Z" fill="url(#1776585740062-4548053_linear-gradient)"></path><path class="cls-7" d="M537.94,301.69c-21.93-18.42-76.25-10.52-83.87,0-12.51,17.43-29,54.15-38.74,70.11-3.52,5.79-9.29,51.48-10.84,54.6-20.65,41.22-4.56,56.79,8.25,58.65,19.99,2.9,63.77.79,72.52-2.38,24.43-8.86-16.38-31.01.5-89.8,37.76-27.72,58.9-85.56,52.18-91.17Z" fill="#528008"></path><path class="cls-13" d="M407.03,483.28c3.75-14.52-1.11-56.01-6.96-47.13-26.3,40.01-2.08,45.48,6.96,47.13Z" fill="#174014"></path><path class="cls-13" d="M438.37,486.41c6.98-53.93-32.28-67.57-21.83-.91,0,0,10.85,3.64,21.83.91Z" fill="#174014"></path><path class="cls-7" d="M296.83,310.45c-21.61-18.86-70.76-19.13-78.53-8.75-12.83,17.13-31.6,50.58-41.63,66.36-3.64,5.69-10.18,51.29-11.76,54.33-21.37,40.82-5.55,56.71,7.22,58.85,19.94,3.31,63.73,2.08,72.54-.89,24.57-8.37-15.84-31.35,2.06-89.79,38.22-26.96,56.74-74.35,50.11-80.12Z" fill="#528008"></path><path class="cls-6" d="M167.52,331.21c-20.37-16.96-32.74-72.31-25.11-83.85,20.8-31.48,466.23,23.38,429.25,82.82-40.97,65.79-244.67,133.83-404.15,1.02Z" fill="url(#1776585740062-4548053_linear-gradient-2)"></path><path class="cls-11" d="M452.82,339.58c-4.04,20.96-9.6,58.51-9.6,58.51,0,0,24.06-33.88,9.6-58.51Z" fill="#f59e01"></path><path class="cls-11" d="M376.18,341.26c-12.58,20.08,3.08,62.57,3.08,62.57,0,0,3.81-37.21-3.08-62.57Z" fill="#f59e01"></path><path class="cls-11" d="M297.25,315.92c-11.04,21.02,8.52,79.9,8.52,79.9,0,0-.46-55.19-8.52-79.9Z" fill="#f59e01"></path><path class="cls-12" d="M575.02,320.7c-266.93,116.05-261.35-44.13-432.61-73.34-2.03-.34-4.26,18.54-1.9,18.9,132.46,20.29,147.67,201.38,424.19,73.32,2.1-.97,11.45-10.63,10.32-18.88Z" fill="#32572d"></path><path class="cls-3" d="M280.95,277.09c-25.36-21.33-68.24-39.98-77.01-27.79-14.48,20.12-60.25,110.5-71.54,128.98-4.06,6.66-10.74,59.52-12.51,63.09-23.89,47.69-5.27,65.71,9.52,67.87,23.13,3.37,73.75.91,83.88-2.75,28.25-10.27-18.95-35.85.56-103.86,43.65-32.09,74.86-119.07,67.1-125.55Z" fill="url(#1776585740062-4548053_radial-gradient-2)"></path><path class="cls-15" d="M122.8,507.2c4.34-16.81-1.26-64.81-8.01-54.56-30.44,46.29-2.41,52.61,8.01,54.56Z" fill="#3a5c06"></path><path class="cls-15" d="M159.06,510.84c8.07-62.36-37.34-78.19-25.24-1.03,0,0,12.53,4.16,25.24,1.03Z" fill="#3a5c06"></path><path class="cls-2" d="M542.88,308.84c-23.7-8.96-97.43-11.46-94.52,3.73,4.77,25.02,19.85,71.58,27.7,90.21,3.08,7.27,36.45,56,37.8,59.78,18.07,50.66,42.74,46.83,53.8,35.92,17.29-17,48.28-60.61,52.25-71.38,11.04-30.06-34.6-16.12-64.02-51.59,3.75-20.51-9.01-65.11-13.01-66.67Z" fill="url(#1776585740062-4548053_radial-gradient-3)"></path><path class="cls-15" d="M561.95,502.68c-9-14.46-46.31-40.81-43.46-28.57,12.81,55.17,35.39,35.96,43.46,28.57Z" fill="#3a5c06"></path><path class="cls-15" d="M587.9,474.93c-38.55-46.99-78.97-19.51-17.02,20.27,0,0,11.04-7.73,17.02-20.27Z" fill="#3a5c06"></path><path class="cls-5" d="M146.86,213.44c102.35-184.16,362.14-149.03,424.81,77.97-176.76,115.79-316.5-20.95-424.81-77.97Z" fill="url(#1776585740062-4548053_linear-gradient-3)"></path><path class="cls-12" d="M418.11,295.86c-53.8,0-86.19-23.67-124.94-52.02-31.39-22.95-66.76-48.83-121.98-66.81,0,0,3.45-5.23,8.05-9.26,54.04,18.4,89.03,43.98,120.14,66.75,61.55,45,106.3,77.76,257.28,14.27,3.1,4.79,4.31,10.47,4.31,10.47-62.35,26.24-107.3,36.61-142.87,36.61Z" fill="#32572d"></path><path class="cls-12" d="M293.27 295.53L283.37 290.9 325 193.51 277.91 146.92 218.3 192.02 189.68 236.68 180.66 230.32 211.16 183.41 278.85 132.2 338.05 190.78 293.27 295.53z" fill="#32572d"></path><path class="cls-12" d="M421.32 335.18L410.47 334.4 418.27 219.71 390.69 175.37 333.4 197.48 329.65 186.83 395.05 161.56 429.37 216.72 421.32 335.18z" fill="#32572d"></path><path class="cls-12" d="M536.6 308.39L487.9 206.39 425.22 223.73 422.43 212.74 493.67 193.04 546.32 303.32 536.6 308.39z" fill="#32572d"></path><path class="cls-12" d="M495.55 202.45L485.99 197.02 501.97 166.13 509.92 174.65 495.55 202.45z" fill="#32572d"></path><path class="cls-12" d="M283.75 140.35L273 138.75 277.67 104.34 289.05 101.22 283.75 140.35z" fill="#32572d"></path><path class="cls-12" d="M398.12 169.96L387.65 166.97 403.8 105.27 414.13 108.77 398.12 169.96z" fill="#32572d"></path><path class="cls-12" d="M246.84 263.4L237.21 258.13 259.81 212.71 269.45 217.96 246.84 263.4z" fill="#32572d"></path><path class="cls-12" d="M352.58 328.95L342.15 325.68 355.91 277.44 366.33 280.71 352.58 328.95z" fill="#32572d"></path><path class="cls-12" d="M471.15 332.86L464.4 285.13 475.13 283.45 481.87 331.19 471.15 332.86z" fill="#32572d"></path><path class="cls-4" d="M564.72,288.94c-266.93,116.05-242.48-46.95-413.74-76.14-27.48-4.7-31.25,36.45-3.23,40.75,132.46,20.29,154.51,197.2,431.03,69.15,27.33-12.67,14.11-45.99-14.06-33.76Z" fill="url(#1776585740062-4548053_linear-gradient-4)"></path></g></svg>