<svg data-name="Layer 1" xmlns="http://www.w3.org/2000/svg" style="" viewBox="0 0 512.15 512"><g class="nc-icon-wrapper"><defs><linearGradient id="1776867898371-2536142_linear-gradient" x1="222.41" y1="-104.29" x2="444.23" y2="-191.43" gradientTransform="scale(1 -1)" gradientUnits="userSpaceOnUse"><stop offset="0" stop-color="#c853fa"></stop><stop offset=".5" stop-color="#f78cff"></stop><stop offset="1" stop-color="#c853fa"></stop></linearGradient><linearGradient id="1776867898371-2536142_linear-gradient-2" x1="265.16" y1="-130.36" x2="489.28" y2="-259.86" gradientTransform="scale(1 -1)" gradientUnits="userSpaceOnUse"><stop offset="0" stop-color="#de53fa"></stop><stop offset=".5" stop-color="#ff8cee"></stop><stop offset="1" stop-color="#de53fa"></stop></linearGradient><linearGradient id="1776867898371-2536142_linear-gradient-3" x1="332.68" y1="-171.75" x2="512.14" y2="-363.34" gradientTransform="scale(1 -1)" gradientUnits="userSpaceOnUse"><stop offset="0" stop-color="#e84fd9"></stop><stop offset=".5" stop-color="#ff8ae0"></stop><stop offset="1" stop-color="#e84fd9"></stop></linearGradient><linearGradient id="1776867898371-2536142_linear-gradient-4" x1="172.97" y1="-173.75" x2=".74" y2="-1.53" gradientTransform="scale(1 -1)" gradientUnits="userSpaceOnUse"><stop offset="0" stop-color="#c159ff"></stop><stop offset=".2" stop-color="#26bfff"></stop><stop offset=".4" stop-color="#2aedbe"></stop><stop offset=".6" stop-color="#aeff21"></stop><stop offset=".8" stop-color="#ffbf00"></stop><stop offset=".92" stop-color="#ff7300"></stop><stop offset="1" stop-color="#ff3c00"></stop></linearGradient><radialGradient id="1776867898371-2536142_radial-gradient" cx="1.19" cy="-123.3" fx="1.19" fy="-123.3" r="1808.59" gradientTransform="matrix(.03528 -.03543 -.70551 -.70871 -.01 .11)" gradientUnits="userSpaceOnUse"><stop offset="0" stop-color="#fff" stop-opacity=".3"></stop><stop offset=".15" stop-color="silver" stop-opacity=".22"></stop><stop offset=".31" stop-color="#898989" stop-opacity=".15"></stop><stop offset=".44" stop-color="#616161" stop-opacity=".08"></stop><stop offset=".54" stop-color="#494949" stop-opacity=".03"></stop><stop offset=".61" stop-color="#404040" stop-opacity="0"></stop><stop offset="1" stop-color="#404040" stop-opacity="0"></stop></radialGradient><linearGradient id="1776867898371-2536142_linear-gradient-5" x1="397.9" y1="-235.49" x2="495.78" y2="-443.96" gradientTransform="scale(1 -1)" gradientUnits="userSpaceOnUse"><stop offset="0" stop-color="#ff66bc"></stop><stop offset=".5" stop-color="#ff91cc"></stop><stop offset="1" stop-color="#ff66bc"></stop></linearGradient><linearGradient id="1776867898371-2536142_linear-gradient-6" x1="261.99" y1="-323.22" x2="456.51" y2="-339.08" gradientTransform="scale(1 -1)" gradientUnits="userSpaceOnUse"><stop offset="0" stop-color="#c3cfd6"></stop><stop offset=".22" stop-color="#c3cfd6"></stop><stop offset=".3" stop-color="#cfd8de"></stop><stop offset=".45" stop-color="#dce3e8"></stop><stop offset=".64" stop-color="#e4e9ed"></stop><stop offset="1" stop-color="#e6ebef"></stop></linearGradient><linearGradient id="1776867898371-2536142_linear-gradient-7" x1="129.48" y1="-222.76" x2="235.6" y2="-381.94" gradientTransform="scale(1 -1)" gradientUnits="userSpaceOnUse"><stop offset="0" stop-color="#e6ebef"></stop><stop offset=".46" stop-color="#e3e9ed"></stop><stop offset=".79" stop-color="#dae1e6"></stop><stop offset="1" stop-color="#cfd8dd"></stop></linearGradient><linearGradient id="1776867898371-2536142_linear-gradient-8" x1="279.93" y1="-129.86" x2="395.16" y2="-271.52" gradientTransform="scale(1 -1)" gradientUnits="userSpaceOnUse"><stop offset="0" stop-color="#e84fd9"></stop><stop offset="1" stop-color="#ff8ae0"></stop></linearGradient><linearGradient id="1776867898371-2536142_linear-gradient-9" x1="192.89" y1="-137.11" x2="267.65" y2="-224.06" gradientTransform="scale(1 -1)" gradientUnits="userSpaceOnUse"><stop offset="0" stop-color="#c853fa"></stop><stop offset="1" stop-color="#f78cff"></stop></linearGradient><linearGradient id="1776867898371-2536142_linear-gradient-10" x1="243.98" y1="-158.99" x2="234.46" y2="-52.22" gradientTransform="scale(1 -1)" gradientUnits="userSpaceOnUse"><stop offset="0" stop-color="#6e8189"></stop><stop offset=".26" stop-color="#7d8f96"></stop><stop offset=".7" stop-color="#92a1a8"></stop><stop offset="1" stop-color="#99a8ae"></stop></linearGradient><linearGradient id="1776867898371-2536142_linear-gradient-11" x1="188.75" y1="-273.1" x2="184.52" y2="-222.89" gradientTransform="scale(1 -1)" gradientUnits="userSpaceOnUse"><stop offset="0" stop-color="#00c4ff"></stop><stop offset=".25" stop-color="#00a2f3"></stop><stop offset=".8" stop-color="#004bd4"></stop><stop offset="1" stop-color="#002bc9"></stop></linearGradient></defs><path class="cls-16" d="M217.58,114.51c22.55-14.1,45.9-22.46,70.04-25.11,24.14-2.64,46.96-.09,68.45,7.66s39.82,20.44,54.97,38.06,25.02,39.82,29.6,66.6c-15.86,11.98-33.74,17.8-53.65,17.44-19.91-.35-40.35-5.29-61.32-14.8-20.97-9.51-40.88-22.11-59.73-37.79s-34.97-33.04-48.37-52.07h0Z" fill="url(#1776867898371-2536142_linear-gradient)"></path><path class="cls-3" d="M257.22,100.76s3.35-.88,10.04-2.64c6.7-1.76,15.59-3,26.69-3.7s23.7.44,37.79,3.44c14.1,3,28.54,9.07,43.34,18.24,14.8,9.16,28.9,22.73,42.29,40.7-14.1-17.27-28.72-30.31-43.87-39.11-15.15-8.81-29.6-14.8-43.34-17.97s-26.16-4.49-37.26-3.96-19.82,1.5-26.16,2.91-9.51,2.11-9.51,2.11v-.02Z" fill="#dc6cfc"></path><path class="cls-3" d="M230.27,120.85s3-1.5,8.99-4.49,14.27-5.73,24.84-8.19c10.57-2.47,22.64-3.17,36.21-2.11s28.1,5.73,43.61,14.01c15.51,8.28,31.01,21.76,46.52,40.44-16.21-17.62-32.16-30.39-47.84-38.32s-30.31-12.6-43.87-14.01c-13.57-1.41-25.46-.97-35.68,1.32s-18.24,4.76-24.05,7.4l-8.72,3.96h0Z" fill="#dc6cfc"></path><path class="cls-12" d="M257.22,138.82c27.84-8.81,55.41-11.98,82.72-9.51s52.15,9.78,74.53,21.94,40.17,28.46,53.39,48.89c13.21,20.44,19.47,44.22,18.76,71.36-19.73,8.1-40.7,9.87-62.9,5.29-22.2-4.58-43.87-13.66-65.02-27.22s-40.61-30.04-58.41-49.42c-17.8-19.38-32.16-39.82-43.08-61.32h0Z" fill="url(#1776867898371-2536142_linear-gradient-2)"></path><path class="cls-1" d="M300.04,148.87s4.05-.7,12.16-2.11,18.85-2.03,32.24-1.85,28.01,2.55,43.87,7.14,31.8,12.77,47.84,24.58c16.03,11.8,30.39,28.81,43.08,51.01-13.74-21.14-28.72-37.53-44.93-49.16s-32.24-19.82-48.1-24.58-30.31-7.4-43.34-7.93-23.43-.18-31.19,1.06-11.63,1.85-11.63,1.85h0Z" fill="#ea68f6"></path><path class="cls-1" d="M297.2,165.07s4.08-.55,12.23-1.64,18.92-1.3,32.29-.6,27.9,3.63,43.57,8.82,31.29,13.99,46.85,26.41c15.57,12.42,29.26,29.96,41.08,52.64-12.92-21.66-27.25-38.61-43-50.86s-31.46-21.05-47.12-26.42-30-8.56-43.01-9.6-23.41-1.08-31.21-.15-11.69,1.4-11.69,1.4h0Z" fill="#ea68f6"></path><path class="cls-11" d="M323.3,178.99c28.9-1.06,55.59,2.2,80.08,9.78,24.49,7.58,45.37,19.73,62.64,36.47,17.27,16.74,29.6,38.32,37,64.75s8.28,57.97,2.64,94.62c-16.91,2.11-33.39-.62-49.42-8.19-16.03-7.58-31.19-18.41-45.46-32.51s-27.31-30.31-39.11-48.63c-11.8-18.32-21.85-37.53-30.13-57.62s-14.36-39.64-18.24-58.67h0Z" fill="url(#1776867898371-2536142_linear-gradient-3)"></path><path class="cls-22" d="M355.54,188.51s3.52.7,10.57,2.11,16.39,4.23,28.01,8.46,24.23,10.84,37.79,19.82,26.87,21.23,39.91,36.74c13.04,15.51,24.49,34.89,34.36,58.14-10.92-22.55-23.08-41.41-36.47-56.56s-26.78-27.31-40.17-36.47-25.72-16.03-37-20.61-20.26-7.66-26.96-9.25-10.04-2.38-10.04-2.38h0Z" fill="#f36cdd"></path><path class="cls-22" d="M322.84,195.61s3.56.49,10.68,1.47,16.61,3.22,28.48,6.74,24.84,9.34,38.93,17.49c14.09,8.14,28.11,19.56,42.07,34.24,13.96,14.68,26.57,33.33,37.83,55.95-12.28-21.85-25.56-39.93-39.85-54.24s-28.39-25.63-42.32-33.96-26.65-14.44-38.19-18.33-20.69-6.42-27.47-7.59-10.17-1.76-10.17-1.76h.01Z" fill="#f36cdd"></path><path class="cls-2" d="M159.44,62.18c1.06-2.82,4.58-3.08,10.57-.79s13.04,6.78,21.14,13.48,16.21,15.42,24.31,26.16,14.98,23.26,20.61,37.53c5.64,14.27,8.81,30.04,9.51,47.31,0,1.76-3.61,2.38-10.84,1.85s-15.77-2.55-25.64-6.08c-9.87-3.52-18.85-8.46-26.96-14.8,0,0-.97-2.82-2.91-8.46s-4.4-12.86-7.4-21.67-5.73-18.15-8.19-28.01-4.23-18.94-5.29-27.22-.7-14.71,1.06-19.29h.03Z" fill="#cfd8dd"></path><path class="cls-4" d="M164.19,81.74c.35-3.88,3.35-4.05,8.99-.53s12.25,9.87,19.82,19.03,14.36,20.26,20.35,33.3,9.16,27.13,9.51,42.29c0,1.06-2.47.97-7.4-.26s-10.75-3.7-17.44-7.4-12.69-8.19-17.97-13.48l-2.38-9.51c-1.59-6.34-3.44-13.92-5.55-22.73s-3.96-17.18-5.55-25.11-2.38-13.13-2.38-15.59h0Z" fill="#6e8189"></path><path class="cls-10" d="M7.21,1.39l183.95,133.73c-1.76,14.45-7.84,27.31-18.24,38.59-10.4,11.28-22.82,17.8-37.26,19.56L1.39,7.21C-.37,4.74-.46,2.71,1.13,1.13c1.59-1.58,3.61-1.5,6.08.26Z" fill="url(#1776867898371-2536142_linear-gradient-4)"></path><path class="cls-14" d="M7.21,1.39l183.95,133.73c-1.76,14.45-7.84,27.31-18.24,38.59-10.4,11.28-22.82,17.8-37.26,19.56L1.39,7.21C-.37,4.74-.46,2.71,1.13,1.13c1.59-1.58,3.61-1.5,6.08.26Z" fill="url(#1776867898371-2536142_radial-gradient)"></path><path class="cls-7" d="M389.9,239.25c14.8,1.06,29.16,5.9,43.08,14.54s26.52,19.82,37.79,33.56c11.28,13.74,20.44,28.9,27.49,45.46s11.45,33.21,13.21,49.95c1.76,16.74.09,32.42-5.02,47.04-5.11,14.62-14.36,26.87-27.75,36.74-20.79-18.68-38.76-39.56-53.92-62.64-15.15-23.08-25.99-48.37-32.51-75.85-6.52-27.49-7.31-57.09-2.38-88.8h.01Z" fill="url(#1776867898371-2536142_linear-gradient-5)"></path><path class="cls-23" d="M397.85,257.14s3.2,1.63,9.61,4.88,14.64,8.49,24.69,15.69c10.06,7.21,20.41,16.96,31.05,29.27s20.15,27.68,28.52,46.12,14.18,40.19,17.41,65.24c-4.44-24.66-11.06-46.09-19.87-64.28-8.81-18.2-18.43-33.51-28.85-45.94s-20.45-22.37-30.07-29.82-17.44-12.84-23.46-16.17-9.03-5-9.03-5h0Z" fill="#ff79c4"></path><path class="cls-23" d="M386.69,281.19s3.2,1.63,9.61,4.88,14.64,8.49,24.69,15.69c10.06,7.21,20.41,16.96,31.05,29.27,10.64,12.31,20.15,27.68,28.52,46.12s14.18,40.19,17.41,65.24c-4.44-24.66-11.06-46.09-19.87-64.28s-18.43-33.51-28.85-45.94-20.45-22.37-30.07-29.82-17.44-12.84-23.46-16.17-9.03-5-9.03-5h0Z" fill="#ff79c4"></path><path class="cls-8" d="M256.17,137.24c18.68,1.41,38.06,8.46,58.14,21.14,20.09,12.69,39.64,29.78,58.67,51.27,19.03,21.5,36.3,46.07,51.8,73.74,15.51,27.66,28.1,57.09,37.79,88.27,9.69,31.19,15.06,62.81,16.12,94.88,0,0-3.52,2.29-10.57,6.87-7.05,4.58-17.71,9.87-31.98,15.86s-32.51,11.28-54.71,15.86c-22.2,4.58-48.28,6.87-78.23,6.87-7.4,0-12.77-2.82-16.12-8.46-3.35-5.64-5.9-13.04-7.66-22.2s-3.44-18.94-5.02-29.34c-1.59-10.4-3.96-20.53-7.14-30.39-3.17-9.87-7.93-18.32-14.27-25.37s-15.33-11.8-26.96-14.27l-.79-12.69c-.53-8.46-.97-19.91-1.32-34.36s-.26-30.57.26-48.37c.53-17.8,1.94-35.86,4.23-54.18,2.29-18.32,5.64-35.77,10.04-52.33s10.31-30.83,17.71-42.82v.02Z" fill="url(#1776867898371-2536142_linear-gradient-6)"></path><path class="cls-6" d="M297.92,150.98s2.82,4.4,8.46,13.21c5.64,8.81,11.36,22.91,17.18,42.29s9.07,45.11,9.78,77.17c.35,10.22-1.32,20.53-5.02,30.92-3.7,10.4-10.75,20.88-21.14,31.45-10.4,10.57-25.28,21.41-44.67,32.51-19.38,11.1-44.58,22.64-75.59,34.62-10.92,3.88-20.26,8.9-28.01,15.06-7.75,6.17-15.33,12.07-22.73,17.71-7.4,5.64-16.21,9.87-26.43,12.69-5.29,1.41-11.19,1.5-17.71.26-6.52-1.23-12.33-3.26-17.44-6.08s-8.02-5.64-8.72-8.46c-1.41.35-4.23-.44-8.46-2.38s-8.63-5.2-13.21-9.78c-4.58-4.58-7.93-10.92-10.04-19.03-1.76-5.99-4.49-11.72-8.19-17.18s-5.9-10.13-6.61-14.01c-1.76-14.1.09-26.52,5.55-37.26,5.46-10.75,13.04-21.06,22.73-30.92,9.69-9.87,20-20.09,30.92-30.66s21.23-22.55,30.92-35.94c9.69-13.39,17-29.25,21.94-47.57.7-2.11,1.32-3.88,1.85-5.29s2.38-2.64,5.55-3.7c10.22-3.17,18.85-7.49,25.9-12.95s13.3-11.1,18.76-16.91,10.75-10.84,15.86-15.06,11.01-6.87,17.71-7.93c0,0-.62-3.88-1.85-11.63s-2.38-17.18-3.44-28.28-1.32-22.02-.79-32.77,2.38-19.12,5.55-25.11c2.47-4.58,6.61-4.32,12.42.79s12.42,12.77,19.82,22.99c7.4,10.22,14.62,21.41,21.67,33.56s13.04,23.26,17.97,33.3c4.93,10.04,8.1,16.83,9.51,20.35v.02Z" fill="url(#1776867898371-2536142_linear-gradient-7)"></path><path class="cls-24" d="M49.49,374.04c-1.41,1.76-3.79,3.17-7.14,4.23s-5.9.7-7.66-1.06c-1.41-1.76-1.59-4.49-.53-8.19s2.47-6.43,4.23-8.19c1.41-1.76,3.26-2.55,5.55-2.38s4.14,1.15,5.55,2.91c3.88,4.23,3.88,8.46,0,12.69h0Z" fill="#302c3b"></path><path class="cls-15" d="M40.51,347.61c6.34-5.64,11.36-7.75,15.06-6.34s6.43,4.23,8.19,8.46,2.47,7.93,2.11,11.1c-.35,4.23-.88,5.29-1.59,3.17s-1.06-3.17-1.06-3.17c-1.41-6.34-3.7-10.22-6.87-11.63s-6.25-1.67-9.25-.79-5.02,1.5-6.08,1.85c-1.41,1.06-2.29,1.23-2.64.53s.35-1.76,2.11-3.17h.02Z" fill="#99a8ae"></path><path class="cls-5" d="M425.31,270.44c-19.03.35-37.62-2.91-55.77-9.78s-34.27-17-48.37-30.39-24.67-29.42-31.71-48.1c-7.05-18.68-9.16-39.47-6.34-62.37,15.86,2.11,27.93,5.9,36.21,11.36,8.28,5.46,14.45,12.25,18.5,20.35s7.58,17.09,10.57,26.96c3,9.87,6.96,20.09,11.89,30.66s12.42,21.06,22.46,31.45,24.23,20.35,42.55,29.86h0Z" fill="url(#1776867898371-2536142_linear-gradient-8)"></path><path class="cls-17" d="M410.51,261.98c-16.21-4.58-29.07-11.1-38.59-19.56s-17.44-18.06-23.79-28.81c-6.34-10.75-12.16-21.76-17.44-33.04-5.29-11.28-11.54-22.2-18.76-32.77-7.22-10.57-16.83-19.91-28.81-28.01,12.69,6.7,22.82,14.98,30.39,24.84s14.18,20.53,19.82,31.98,11.45,22.82,17.44,34.09,13.65,21.41,22.99,30.39,21.58,15.95,36.74,20.88h.01Z" fill="#ee5edc"></path><path class="cls-17" d="M425.31,270.44c-20.79-.7-39.29-5.55-55.5-14.54s-30.13-20.7-41.76-35.15c-11.63-14.45-21.14-30.39-28.54-47.84s-12.86-35.15-16.39-53.12c5.29,16.91,11.98,34.01,20.09,51.27,8.1,17.27,17.88,33.12,29.34,47.57,11.45,14.45,24.84,26.34,40.17,35.68s32.86,14.71,52.59,16.12h0Z" fill="#ee5edc"></path><path class="cls-9" d="M213.35,113.45s.44,2.55,1.32,7.66,3.35,12.33,7.4,21.67,10.92,20.35,20.61,33.04,23.17,26.43,40.44,41.23c0,0-3.96-.7-11.89-2.11s-17.44-3.7-28.54-6.87-21.94-7.31-32.51-12.42-18.59-11.54-24.05-19.29-6.52-16.83-3.17-27.22,13.48-22.29,30.39-35.68h0Z" fill="url(#1776867898371-2536142_linear-gradient-9)"></path><path class="cls-19" d="M283.12,217.05c-25.72-5.64-46.6-13.39-62.64-23.26-16.03-9.87-25.11-21.5-27.22-34.89s4.58-28.54,20.09-45.46c-12.69,17.27-17.8,32.33-15.33,45.19,2.47,12.86,11.19,24.05,26.16,33.56s34.62,17.8,58.94,24.84v.02Z" fill="#d260fb"></path><path class="cls-19" d="M264.1,199.61c-16.91-6.7-29.86-13.66-38.85-20.88s-14.45-15.95-16.39-26.16-.44-23.26,4.49-39.11c-2.11,14.45-2.47,26.34-1.06,35.68s6.08,17.8,14.01,25.37c7.93,7.58,20.53,15.95,37.79,25.11h.01Z" fill="#d260fb"></path><path class="cls-24" d="M132.48,384.08c2.82,11.28,2.03,21.32-2.38,30.13-4.4,8.81-10.57,15.95-18.5,21.41s-16.12,9.07-24.58,10.84c-8.46,1.76-15.51,1.06-21.14-2.11,8.46-1.06,17.36-4.14,26.69-9.25,9.34-5.11,17.71-11.98,25.11-20.61s12.33-18.76,14.8-30.39v-.02Z" fill="#302c3b"></path><path class="cls-20" d="M219.17,53.72c.7-1.76,3.44.26,8.19,6.08,4.75,5.82,10.04,14.18,15.86,25.11,5.81,10.92,10.75,22.82,14.8,35.68,4.05,12.86,5.55,25.11,4.49,36.74-3.17-3.17-7.75-6.08-13.74-8.72s-11.63-5.46-16.91-8.46-8.28-6.25-8.99-9.78c-1.41-6.34-2.64-14.89-3.7-25.64s-1.59-20.97-1.59-30.66.53-16.47,1.59-20.35h0Z" fill="url(#1776867898371-2536142_linear-gradient-10)"></path><path class="cls-24" d="M203.31,225.51c7.4,2.82,13.83,3.88,19.29,3.17s8.19-1.06,8.19-1.06c-.35,8.81-2.2,15.95-5.55,21.41s-6.7,9.34-10.04,11.63-5.02,3.44-5.02,3.44l-6.87-38.59h0Z" fill="#302c3b"></path><path class="cls-18" d="M224.45,232.38c-1.76,13.04-5.2,22.91-10.31,29.6s-11.01,11.01-17.71,12.95c-6.7,1.94-13.13,2.38-19.29,1.32-6.17-1.06-11.28-2.91-15.33-5.55s-6.08-4.85-6.08-6.61c.7-11.28,4.67-19.65,11.89-25.11s15.24-8.99,24.05-10.57,16.47-1.85,22.99-.79,9.78,2.64,9.78,4.76h.01Z" fill="#fff"></path><path class="cls-21" d="M211.24,246.12c.7,8.1-1.23,14.45-5.81,19.03s-10.13,7.22-16.65,7.93-12.42-.88-17.71-4.76-8.28-9.87-8.99-17.97c-.7-8.46,1.23-14.98,5.81-19.56s10.13-7.14,16.65-7.66,12.42,1.06,17.71,4.76,8.28,9.78,8.99,18.24h0Z" fill="url(#1776867898371-2536142_linear-gradient-11)"></path><path class="cls-13" d="M199.97,246.99c.38,4.36-.66,7.77-3.13,10.24s-5.45,3.89-8.96,4.27-6.68-.47-9.53-2.56-4.46-5.31-4.83-9.67c-.38-4.55.66-8.06,3.13-10.52s5.45-3.84,8.96-4.12,6.68.57,9.53,2.56,4.46,5.26,4.83,9.81h0Z" fill="#1a1626"></path><path class="cls-18" d="M202.11,240.66c.2,2.25-.34,4.01-1.61,5.28s-2.81,2-4.62,2.2-3.44-.24-4.91-1.32-2.3-2.74-2.49-4.98c-.2-2.35.34-4.15,1.61-5.42s2.81-1.98,4.62-2.13,3.44.29,4.91,1.32,2.3,2.71,2.49,5.06h0Z" fill="#fff"></path><path class="cls-24" d="M237.14,222.87c-2.82,4.93-6.7,8.02-11.63,9.25s-10.48,1.94-16.65,2.11-12.6.79-19.29,1.85-12.95,3.61-18.76,7.66-10.84,10.84-15.06,20.35c-2.11-13.39.09-23.61,6.61-30.66s14.54-11.45,24.05-13.21c5.99-1.06,11.8-.97,17.44.26s11.19,2.38,16.65,3.44,11.01.7,16.65-1.06h-.01Z" fill="#302c3b"></path></g></svg>