<svg data-name="Layer 1" xmlns="http://www.w3.org/2000/svg" style="" viewBox="0 0 697.34 512"><g class="nc-icon-wrapper"><defs><linearGradient id="1776867898380-9904891_linear-gradient" x1="348.32" y1="1423.81" x2="348.32" y2="1099.35" gradientTransform="translate(0 -1080)" gradientUnits="userSpaceOnUse"><stop offset="0" stop-color="#b1c1c4"></stop><stop offset=".12" stop-color="#b1c1c4"></stop><stop offset=".29" stop-color="#c5d2d6"></stop><stop offset=".5" stop-color="#d6e0e6"></stop><stop offset=".73" stop-color="#e1e9ef"></stop><stop offset="1" stop-color="#e4ecf2"></stop></linearGradient><linearGradient id="1776867898380-9904891_linear-gradient-2" x1="535.86" y1="1484.11" x2="676.51" y2="1418.62" gradientTransform="translate(0 -1080)" gradientUnits="userSpaceOnUse"><stop offset="0" stop-color="#b1c1c4"></stop><stop offset=".32" stop-color="#b1c1c4"></stop><stop offset=".44" stop-color="#bccace"></stop><stop offset=".79" stop-color="#d9e3e8"></stop><stop offset="1" stop-color="#e4ecf2"></stop></linearGradient><linearGradient id="1776867898380-9904891_linear-gradient-3" x1="-2354.66" y1="1526.94" x2="-2218.86" y2="1388.14" gradientTransform="matrix(-1 0 0 1 -2221.13 -1080)" gradientUnits="userSpaceOnUse"><stop offset="0" stop-color="#b1c1c4"></stop><stop offset=".32" stop-color="#b1c1c4"></stop><stop offset=".44" stop-color="#bccace"></stop><stop offset=".79" stop-color="#d9e3e8"></stop><stop offset="1" stop-color="#e4ecf2"></stop></linearGradient><linearGradient id="1776867898380-9904891_linear-gradient-4" x1="2176.91" y1="5545.27" x2="2176.91" y2="4847.22" gradientTransform="matrix(.18 0 0 .18 64.42 -643.4)" gradientUnits="userSpaceOnUse"><stop offset="0" stop-color="#b1c1c4"></stop><stop offset=".12" stop-color="#b1c1c4"></stop><stop offset=".44" stop-color="#c5d2d6"></stop><stop offset="1" stop-color="#e4ecf2"></stop></linearGradient><linearGradient id="1776867898380-9904891_linear-gradient-5" x1="2684.88" y1="6599.92" x2="2684.88" y2="5901.87" gradientTransform="matrix(.15 0 0 .15 60.75 -628.51)" gradientUnits="userSpaceOnUse"><stop offset="0" stop-color="#4e595e"></stop><stop offset=".06" stop-color="#525e63"></stop><stop offset=".36" stop-color="#637076"></stop><stop offset=".67" stop-color="#6d7b81"></stop><stop offset="1" stop-color="#707f85"></stop></linearGradient><linearGradient id="1776867898380-9904891_linear-gradient-6" x1="3177.98" y1="7623.69" x2="3177.98" y2="6925.64" gradientTransform="matrix(.13 0 0 .13 58.27 -618.46)" gradientUnits="userSpaceOnUse"><stop offset="0" stop-color="#707f85"></stop><stop offset=".33" stop-color="#6d7b81"></stop><stop offset=".64" stop-color="#637076"></stop><stop offset=".94" stop-color="#525e63"></stop><stop offset="1" stop-color="#4e595e"></stop></linearGradient><linearGradient id="1776867898380-9904891_linear-gradient-7" x1="2608.79" y1="5545.27" x2="2608.79" y2="4847.22" gradientTransform="matrix(.18 0 0 .18 -245.05 -643.4)" gradientUnits="userSpaceOnUse"><stop offset="0" stop-color="#b1c1c4"></stop><stop offset=".12" stop-color="#b1c1c4"></stop><stop offset=".44" stop-color="#c5d2d6"></stop><stop offset="1" stop-color="#e4ecf2"></stop></linearGradient><linearGradient id="1776867898380-9904891_linear-gradient-8" x1="3212.67" y1="6599.92" x2="3212.67" y2="5901.87" gradientTransform="matrix(.15 0 0 .15 -248.72 -628.51)" gradientUnits="userSpaceOnUse"><stop offset="0" stop-color="#4e595e"></stop><stop offset=".06" stop-color="#525e63"></stop><stop offset=".36" stop-color="#637076"></stop><stop offset=".67" stop-color="#6d7b81"></stop><stop offset="1" stop-color="#707f85"></stop></linearGradient><linearGradient id="1776867898380-9904891_linear-gradient-9" x1="3798.88" y1="7623.69" x2="3798.88" y2="6925.64" gradientTransform="matrix(.13 0 0 .13 -251.2 -618.46)" gradientUnits="userSpaceOnUse"><stop offset="0" stop-color="#707f85"></stop><stop offset=".33" stop-color="#6d7b81"></stop><stop offset=".64" stop-color="#637076"></stop><stop offset=".94" stop-color="#525e63"></stop><stop offset="1" stop-color="#4e595e"></stop></linearGradient><radialGradient id="1776867898380-9904891_radial-gradient" cx="2336.33" cy="6172.92" fx="2336.33" fy="6172.92" r="193.49" gradientTransform="matrix(.16 0 0 .16 140.86 -924.05)" gradientUnits="userSpaceOnUse"><stop offset="0" stop-color="#ffe02e"></stop><stop offset=".37" stop-color="#ffdd2c"></stop><stop offset=".6" stop-color="#ffd525"></stop><stop offset=".78" stop-color="#ffc719"></stop><stop offset=".95" stop-color="#ffb307"></stop><stop offset="1" stop-color="#fa0"></stop></radialGradient><radialGradient id="1776867898380-9904891_radial-gradient-2" cx="573.81" cy="1222.14" fx="573.81" fy="1222.14" r="32" gradientTransform="translate(0 -1080)" gradientUnits="userSpaceOnUse"><stop offset="0" stop-color="#ff3b3b"></stop><stop offset=".36" stop-color="#fd3938"></stop><stop offset=".58" stop-color="#f63030"></stop><stop offset=".76" stop-color="#e92222"></stop><stop offset=".92" stop-color="#d80e0e"></stop><stop offset="1" stop-color="#cc0100"></stop></radialGradient><radialGradient id="1776867898380-9904891_radial-gradient-3" cx="2327.6" cy="5963.61" fx="2327.6" fy="5963.61" r="193.49" gradientTransform="matrix(.16 0 0 .16 140.87 -793.04)" gradientUnits="userSpaceOnUse"><stop offset="0" stop-color="#9be022"></stop><stop offset=".35" stop-color="#9d2"></stop><stop offset=".57" stop-color="#92d522"></stop><stop offset=".74" stop-color="#87c722"></stop><stop offset=".9" stop-color="#77b323"></stop><stop offset="1" stop-color="#69a123"></stop></radialGradient><radialGradient id="1776867898380-9904891_radial-gradient-4" cx="271.4" cy="1424.15" fx="271.4" fy="1424.15" r="35.72" gradientTransform="matrix(.9 0 0 .9 234.32 -1136.54)" gradientUnits="userSpaceOnUse"><stop offset="0" stop-color="#1293e0"></stop><stop offset=".36" stop-color="#1191dd"></stop><stop offset=".58" stop-color="#0f8bd5"></stop><stop offset=".77" stop-color="#0a81c7"></stop><stop offset=".92" stop-color="#0473b3"></stop><stop offset="1" stop-color="#006aa6"></stop></radialGradient><linearGradient id="1776867898380-9904891_linear-gradient-10" x1="121.53" y1="1254.88" x2="121.53" y2="1210.98" gradientTransform="translate(0 -1080)" gradientUnits="userSpaceOnUse"><stop offset="0" stop-color="#4e595e"></stop><stop offset=".23" stop-color="#59656a"></stop><stop offset=".69" stop-color="#6a787e"></stop><stop offset="1" stop-color="#707f85"></stop></linearGradient><linearGradient id="1776867898380-9904891_linear-gradient-11" x1="207.48" y1="1254.88" x2="207.48" y2="1210.98" gradientTransform="translate(0 -1080)" gradientUnits="userSpaceOnUse"><stop offset="0" stop-color="#4e595e"></stop><stop offset=".23" stop-color="#59656a"></stop><stop offset=".69" stop-color="#6a787e"></stop><stop offset="1" stop-color="#707f85"></stop></linearGradient><linearGradient id="1776867898380-9904891_linear-gradient-12" x1="164.5" y1="1216.93" x2="164.5" y2="1163.35" gradientTransform="translate(0 -1080)" gradientUnits="userSpaceOnUse"><stop offset="0" stop-color="#4e595e"></stop><stop offset=".23" stop-color="#59656a"></stop><stop offset=".69" stop-color="#6a787e"></stop><stop offset="1" stop-color="#707f85"></stop></linearGradient><linearGradient id="1776867898380-9904891_linear-gradient-13" x1="164.5" y1="1303.26" x2="164.5" y2="1249.67" gradientTransform="translate(0 -1080)" gradientUnits="userSpaceOnUse"><stop offset="0" stop-color="#4e595e"></stop><stop offset=".23" stop-color="#59656a"></stop><stop offset=".69" stop-color="#6a787e"></stop><stop offset="1" stop-color="#707f85"></stop></linearGradient></defs><path class="cls-18" d="M272.41,24.56c-.99,0-6.57,1.74-16.74,5.21-10.17,3.47-22.82,7.57-37.95,12.28s-31.01,9.43-47.63,14.14c-16.62,4.71-32.25,8.81-46.88,12.28s-26.29,5.83-34.98,7.07-12.78.37-12.28-2.6c.99-3.97,3.35-9.92,7.07-17.86s10.54-16.12,20.47-24.56,24.31-15.63,43.16-21.58C165.5,2.98,190.55,0,221.81,0c5.46,0,12.16,1.98,20.09,5.95s15.01,8.06,21.21,12.28,9.3,6.33,9.3,6.33ZM424.22,24.56c.99,0,6.57,1.74,16.74,5.21s22.82,7.57,37.95,12.28c15.13,4.71,31.01,9.43,47.63,14.14s32.25,8.81,46.88,12.28,26.29,5.83,34.98,7.07,12.78.37,12.28-2.6c-.99-3.97-3.35-9.92-7.07-17.86-3.72-7.94-10.54-16.12-20.47-24.56-9.92-8.43-24.31-15.63-43.16-21.58-18.85-5.95-43.91-8.93-75.16-8.93-5.46,0-12.16,1.98-20.09,5.95s-15.01,8.06-21.21,12.28-9.3,6.33-9.3,6.33Z" fill="#b1c1c4"></path><path class="cls-13" d="M660.13,178.6s-.12,4.84-.37,14.51-2.48,22.08-6.7,37.21c-4.22,15.13-12.03,30.51-23.44,46.14-11.41,15.63-27.66,29.64-48.74,42.05-21.09,12.4-49.24,20.84-84.47,25.3H200.22c-35.22-4.47-63.38-12.9-84.47-25.3-21.09-12.4-37.33-26.42-48.74-42.05-11.41-15.63-19.22-31.01-23.44-46.14s-6.45-27.53-6.7-37.21-.37-14.51-.37-14.51c0,0,.99-4.59,2.98-13.77,1.98-9.18,4.71-20.09,8.19-32.74s6.95-24.19,10.42-34.6c9.92-29.77,39.69-50.23,89.3-61.4,49.61-11.16,116.59-16.74,200.93-16.74s151.32,5.58,200.93,16.74,79.38,31.63,89.3,61.4c3.47,10.42,6.95,21.95,10.42,34.6,3.47,12.65,6.2,23.57,8.19,32.74,1.98,9.18,2.98,13.77,2.98,13.77Z" fill="url(#1776867898380-9904891_linear-gradient)"></path><path class="cls-11" d="M660.13,178.6c3.97,16.37,7.69,35.72,11.16,58.05s6.82,45.27,10.05,68.84c3.22,23.57,5.95,46.26,8.19,68.09,2.23,21.83,4.09,40.93,5.58,57.3s2.23,28.03,2.23,34.98c0,11.91-4.09,22.57-12.28,32-8.19,9.43-17.74,14.14-28.65,14.14-7.94,0-17.24-1.74-27.91-5.21-10.67-3.47-21.09-8.06-31.26-13.77-10.17-5.71-18.48-11.78-24.93-18.23-2.98-2.98-7.44-9.3-13.4-18.98s-12.53-20.84-19.72-33.49-14.02-24.93-20.47-36.84c-6.45-11.91-11.78-21.83-16-29.77s-6.33-11.91-6.33-11.91c8.43-2.48,19.35-8.06,32.74-16.74,13.4-8.68,27.41-19.22,42.05-31.63,14.64-12.4,28.65-25.67,42.05-39.81,13.4-14.14,24.43-27.91,33.12-41.3s13.27-25.3,13.77-35.72Z" fill="url(#1776867898380-9904891_linear-gradient-2)"></path><path class="cls-10" d="M37.21,177.12c-3.97,16.37-7.69,35.72-11.16,58.05s-6.82,45.27-10.05,68.84c-3.22,23.57-5.95,46.26-8.19,68.09-2.23,21.83-4.09,40.93-5.58,57.3s-2.23,28.03-2.23,34.98c0,11.91,4.09,22.57,12.28,32,8.19,9.43,17.74,14.14,28.65,14.14,7.94,0,17.24-1.74,27.91-5.21,10.67-3.47,21.09-8.06,31.26-13.77,10.17-5.71,18.48-11.78,24.93-18.23,2.98-2.98,7.44-9.3,13.4-18.98s12.53-20.84,19.72-33.49c7.19-12.65,14.02-24.93,20.47-36.84s11.78-21.83,16-29.77,6.33-11.91,6.33-11.91c-8.43-2.48-19.35-8.06-32.74-16.74-13.4-8.68-27.41-19.22-42.05-31.63-14.64-12.4-28.65-25.67-42.05-39.81-13.4-14.14-24.43-27.91-33.12-41.3s-13.27-25.3-13.77-35.72Z" fill="url(#1776867898380-9904891_linear-gradient-3)"></path><path class="cls-9" d="M527.43,309.09c0,8.82-1.66,17.1-4.98,24.83-3.32,7.73-7.91,14.53-13.78,20.39s-12.66,10.46-20.39,13.78c-7.73,3.32-16.01,4.98-24.83,4.98s-17.1-1.66-24.83-4.98c-7.73-3.32-14.53-7.91-20.39-13.78s-10.46-12.66-13.78-20.39c-3.32-7.73-4.98-16.01-4.98-24.83s1.66-17.1,4.98-24.83c3.32-7.73,7.91-14.53,13.78-20.39s12.66-10.46,20.39-13.78,16.01-4.98,24.83-4.98,17.1,1.66,24.83,4.98,14.53,7.91,20.39,13.78,10.46,12.66,13.78,20.39c3.32,7.73,4.98,16.01,4.98,24.83Z" fill="url(#1776867898380-9904891_linear-gradient-4)"></path><path class="cls-6" d="M515.82,309.08c0,7.22-1.36,13.99-4.07,20.32-2.72,6.33-6.47,11.89-11.27,16.69s-10.36,8.56-16.69,11.27c-6.33,2.72-13.1,4.07-20.32,4.07s-13.99-1.36-20.32-4.07c-6.33-2.72-11.89-6.47-16.69-11.27s-8.56-10.36-11.27-16.69c-2.72-6.33-4.07-13.1-4.07-20.32s1.36-13.99,4.07-20.32c2.72-6.33,6.47-11.89,11.27-16.69s10.36-8.56,16.69-11.27c6.33-2.72,13.1-4.07,20.32-4.07s13.99,1.36,20.32,4.07,11.89,6.47,16.69,11.27,8.56,10.36,11.27,16.69c2.72,6.33,4.07,13.1,4.07,20.32Z" fill="url(#1776867898380-9904891_linear-gradient-5)"></path><path class="cls-7" d="M507.97,309.08c0,6.14-1.15,11.89-3.46,17.27-2.31,5.38-5.5,10.11-9.58,14.19s-8.81,7.27-14.19,9.58c-5.38,2.31-11.13,3.46-17.27,3.46s-11.89-1.15-17.27-3.46c-5.38-2.31-10.11-5.5-14.19-9.58s-7.27-8.81-9.58-14.19c-2.31-5.38-3.46-11.13-3.46-17.27s1.15-11.89,3.46-17.27c2.31-5.38,5.5-10.11,9.58-14.19s8.81-7.27,14.19-9.58c5.38-2.31,11.13-3.46,17.27-3.46s11.89,1.15,17.27,3.46c5.38,2.31,10.11,5.5,14.19,9.58s7.27,8.81,9.58,14.19c2.31,5.38,3.46,11.13,3.46,17.27Z" fill="url(#1776867898380-9904891_linear-gradient-6)"></path><path class="cls-5" d="M297.13,309.09c0,8.82-1.66,17.1-4.98,24.83-3.32,7.73-7.91,14.53-13.78,20.39s-12.66,10.46-20.39,13.78c-7.73,3.32-16.01,4.98-24.83,4.98s-17.1-1.66-24.83-4.98c-7.73-3.32-14.53-7.91-20.39-13.78s-10.46-12.66-13.78-20.39c-3.32-7.73-4.98-16.01-4.98-24.83s1.66-17.1,4.98-24.83c3.32-7.73,7.91-14.53,13.78-20.39s12.66-10.46,20.39-13.78,16.01-4.98,24.83-4.98,17.1,1.66,24.83,4.98,14.53,7.91,20.39,13.78,10.46,12.66,13.78,20.39c3.32,7.73,4.98,16.01,4.98,24.83Z" fill="url(#1776867898380-9904891_linear-gradient-7)"></path><path class="cls-4" d="M285.52,309.08c0,7.22-1.36,13.99-4.07,20.32-2.72,6.33-6.47,11.89-11.27,16.69s-10.36,8.56-16.69,11.27c-6.33,2.72-13.1,4.07-20.32,4.07s-13.99-1.36-20.32-4.07c-6.33-2.72-11.89-6.47-16.69-11.27s-8.56-10.36-11.27-16.69c-2.72-6.33-4.07-13.1-4.07-20.32s1.36-13.99,4.07-20.32c2.72-6.33,6.47-11.89,11.27-16.69s10.36-8.56,16.69-11.27c6.33-2.72,13.1-4.07,20.32-4.07s13.99,1.36,20.32,4.07c6.33,2.72,11.89,6.47,16.69,11.27s8.56,10.36,11.27,16.69c2.72,6.33,4.07,13.1,4.07,20.32Z" fill="url(#1776867898380-9904891_linear-gradient-8)"></path><path class="cls-8" d="M277.67,309.08c0,6.14-1.15,11.89-3.46,17.27-2.31,5.38-5.5,10.11-9.58,14.19s-8.81,7.27-14.19,9.58c-5.38,2.31-11.13,3.46-17.27,3.46s-11.89-1.15-17.27-3.46c-5.38-2.31-10.11-5.5-14.19-9.58s-7.27-8.81-9.58-14.19c-2.31-5.38-3.46-11.13-3.46-17.27s1.15-11.89,3.46-17.27c2.31-5.38,5.5-10.11,9.58-14.19s8.81-7.27,14.19-9.58,11.13-3.46,17.27-3.46,11.89,1.15,17.27,3.46c5.38,2.31,10.11,5.5,14.19,9.58s7.27,8.81,9.58,14.19c2.31,5.38,3.46,11.13,3.46,17.27Z" fill="url(#1776867898380-9904891_linear-gradient-9)"></path><path class="cls-18" d="M348.32,106.42c-9.43,0-17.61,3.35-24.56,10.05s-10.42,15.01-10.42,24.93,3.47,17.49,10.42,24.19,15.13,10.05,24.56,10.05,17.61-3.35,24.56-10.05,10.42-14.76,10.42-24.19c0-9.92-3.47-18.23-10.42-24.93s-15.13-10.05-24.56-10.05ZM348.32,94.51c12.9,0,23.94,4.59,33.12,13.77s13.77,20.22,13.77,33.12-4.59,23.81-13.77,32.74-20.22,13.4-33.12,13.4-23.81-4.47-32.74-13.4-13.4-19.84-13.4-32.74c-.5-12.9,3.84-23.94,13.02-33.12s20.22-13.77,33.12-13.77Z" fill="#b1c1c4"></path><path class="cls-18" d="M357.99,145.86c-1.98,0-2.98-.74-2.98-2.23v-4.47c0-1.98.99-2.98,2.98-2.98h14.88c1.49,0,2.23.74,2.23,2.23v2.98c0,11.91-5.46,20.09-16.37,24.56-10.91,4.47-20.59,2.48-29.02-5.95-1.49-.99-1.49-1.98,0-2.98l4.47-5.21c.99-.99,2.23-.99,3.72,0,3.97,3.97,8.68,5.21,14.14,3.72,5.46-.99,8.93-4.22,10.42-9.67h-4.47Z" fill="#b1c1c4"></path><path class="cls-12" d="M532.13,77.64c-4.91,0-9.38,1.21-13.43,3.62s-7.27,5.64-9.68,9.69-3.61,8.52-3.61,13.43,1.21,9.5,3.63,13.55,5.65,7.28,9.69,9.69c4.05,2.41,8.53,3.62,13.43,3.62s9.5-1.21,13.55-3.62c4.05-2.41,7.27-5.64,9.68-9.69s3.61-8.56,3.61-13.55-1.21-9.38-3.63-13.43-5.65-7.28-9.69-9.69-8.57-3.62-13.55-3.62Z" fill="url(#1776867898380-9904891_radial-gradient)"></path><path class="cls-3" d="M581.25,126.51c7.44,0,13.77,2.6,18.98,7.81s7.81,11.53,7.81,18.98-2.6,13.77-7.81,18.98-11.53,7.81-18.98,7.81-13.77-2.6-18.98-7.81-7.81-11.53-7.81-18.98,2.48-13.89,7.44-19.35c5.46-4.96,11.91-7.44,19.35-7.44Z" fill="url(#1776867898380-9904891_radial-gradient-2)"></path><path class="cls-2" d="M532.17,175.13c-4.91,0-9.38,1.21-13.43,3.62s-7.28,5.64-9.69,9.69-3.62,8.52-3.62,13.43,1.21,9.5,3.62,13.55,5.64,7.28,9.69,9.69c4.05,2.41,8.52,3.62,13.43,3.62s9.5-1.21,13.55-3.62c4.05-2.41,7.28-5.64,9.69-9.69s3.62-8.56,3.62-13.55-1.21-9.38-3.62-13.43-5.64-7.28-9.69-9.69-8.56-3.62-13.55-3.62Z" fill="url(#1776867898380-9904891_radial-gradient-3)"></path><path class="cls-1" d="M483.68,126.14c-7.57,0-14.02,2.67-19.36,8.02s-8.01,11.57-8,18.69c0,7.57,2.67,14.02,8.02,19.36,5.34,5.34,11.8,8.01,19.36,8,7.12-.45,13.24-3.23,18.35-8.35s7.67-11.24,7.67-18.36c0-7.57-2.56-13.91-7.68-19.02s-11.24-7.9-18.36-8.34Z" fill="url(#1776867898380-9904891_radial-gradient-4)"></path><path class="cls-14" d="M138.46,138.42l6.7,7.44c4.47,4.96,4.47,9.92,0,14.88l-6.7,7.44c-4.96,4.47-10.67,6.7-17.12,6.7h-16.37c-6.95,0-10.42-3.22-10.42-9.67v-23.81c0-6.95,3.47-10.42,10.42-10.42h16.37c6.45,0,12.16,2.48,17.12,7.44Z" fill="url(#1776867898380-9904891_linear-gradient-10)"></path><path class="cls-15" d="M190.55,168.19l-6.7-7.44c-4.47-4.96-4.47-9.92,0-14.88l6.7-7.44c4.47-4.96,10.17-7.44,17.12-7.44h16.37c6.95,0,10.42,3.47,10.42,10.42v23.81c0,6.45-3.47,9.67-10.42,9.67h-16.37c-6.95,0-12.65-2.23-17.12-6.7Z" fill="url(#1776867898380-9904891_linear-gradient-11)"></path><path class="cls-16" d="M179.39,126.51l-7.44,7.44c-4.96,4.47-9.92,4.47-14.88,0l-7.44-7.44c-4.96-4.47-7.44-9.92-7.44-16.37v-16.37c0-6.95,3.47-10.42,10.42-10.42h23.81c6.95,0,10.42,3.47,10.42,10.42v16.37c0,6.45-2.48,11.91-7.44,16.37Z" fill="url(#1776867898380-9904891_linear-gradient-12)"></path><path class="cls-17" d="M149.62,179.35l7.44-6.7c4.96-4.47,9.92-4.47,14.88,0l7.44,6.7c4.96,4.47,7.44,10.17,7.44,17.12v16.37c0,6.95-3.47,10.42-10.42,10.42h-23.81c-6.95,0-10.42-3.47-10.42-10.42v-16.37c0-6.95,2.48-12.65,7.44-17.12Z" fill="url(#1776867898380-9904891_linear-gradient-13)"></path></g></svg>