<svg data-name="Layer 1" xmlns="http://www.w3.org/2000/svg" style="" viewBox="0 0 512 512"><g class="nc-icon-wrapper"><defs><radialGradient id="1776867898383-3965451_radial-gradient" cx="265.89" cy="336.81" fx="265.89" fy="336.81" r="359.12" gradientTransform="matrix(.68 0 0 -.64 69.9 504.07)" gradientUnits="userSpaceOnUse"><stop offset="0" stop-color="#00b7d9"></stop><stop offset=".23" stop-color="#00b3d6"></stop><stop offset=".45" stop-color="#00a7cf"></stop><stop offset=".68" stop-color="#0093c2"></stop><stop offset=".9" stop-color="#0078b0"></stop><stop offset="1" stop-color="#0068a6"></stop></radialGradient><radialGradient id="1776867898383-3965451_radial-gradient-2" cx="343.34" cy="297.4" fx="343.34" fy="297.4" r="282.09" gradientTransform="matrix(.68 0 0 -.64 69.9 504.07)" gradientUnits="userSpaceOnUse"><stop offset="0" stop-color="#00b7d9"></stop><stop offset=".23" stop-color="#00b3d6"></stop><stop offset=".45" stop-color="#00a7cf"></stop><stop offset=".68" stop-color="#0093c2"></stop><stop offset=".9" stop-color="#0078b0"></stop><stop offset="1" stop-color="#0068a6"></stop></radialGradient><radialGradient id="1776867898383-3965451_radial-gradient-3" cx="414.48" cy="264.35" fx="414.48" fy="264.35" r="216.45" gradientTransform="matrix(.68 0 0 -.64 69.9 504.07)" gradientUnits="userSpaceOnUse"><stop offset="0" stop-color="#00b7d9"></stop><stop offset=".23" stop-color="#00b3d6"></stop><stop offset=".45" stop-color="#00a7cf"></stop><stop offset=".68" stop-color="#0093c2"></stop><stop offset=".9" stop-color="#0078b0"></stop><stop offset="1" stop-color="#0068a6"></stop></radialGradient><radialGradient id="1776867898383-3965451_radial-gradient-4" cx="277.52" cy="513.29" fx="277.52" fy="513.29" r="327.71" gradientTransform="matrix(.68 0 0 -.64 69.9 504.07)" gradientUnits="userSpaceOnUse"><stop offset=".52" stop-color="#e8ffff"></stop><stop offset=".6" stop-color="#e2feff"></stop><stop offset=".69" stop-color="#d3faff"></stop><stop offset=".8" stop-color="#b9f5ff"></stop><stop offset=".91" stop-color="#95edff"></stop><stop offset=".96" stop-color="#80e8ff"></stop></radialGradient></defs><path class="cls-4" d="M66.29,131.74c-229.77,273.86,192.44,517.05,434.86,291.26-284.11,27.52-178.77-228.06-59.43-116.12C457.19,89.4,185.89-10.8,66.29,131.74Z" fill="url(#1776867898383-3965451_radial-gradient)"></path><path class="cls-3" d="M143.36,212.7C0,394.83,292.43,594,501.15,423.01c-284.11,27.52-178.77-228.06-59.43-116.12-12.51-138.85-180.39-244.03-298.35-94.19Z" fill="url(#1776867898383-3965451_radial-gradient-2)"></path><path class="cls-2" d="M237.54,258.96c-131.3,156.52,133.24,285.48,263.61,164.05-284.11,27.52-178.77-228.06-59.43-116.12,6.06-129.53-128.2-138.47-204.17-47.93Z" fill="url(#1776867898383-3965451_radial-gradient-3)"></path><path class="cls-5" d="M294.64,140.63c-10.8-8.46-44.67-17.74-50.42-14.21-111.24,20.8-210.9,184.85-88.57,296.86-122.1-136.04,21.85-276.63,138.99-282.65Z" fill="#75d6ff"></path><path class="cls-6" d="M159.06,331.85c6.53-99.28,84.62-151.25,165.53-172.17l1.72-15.47c-87.09,26.85-181.74,90.87-167.25,187.64Z" fill="#a8e5ff"></path><path class="cls-6" d="M47.38,319.82c17.16-126.91,86.86-201.84,183.81-232.94l.37-20.34C127.7,105.72,47.27,183.12,47.38,319.82Z" fill="#a8e5ff"></path><path class="cls-6" d="M277.93,358.33c-10.87-95.5,80.58-131.31,157.05-100.27l1.08-13.64c-90.96-33.13-188.58,25.92-158.13,113.91Z" fill="#a8e5ff"></path><path class="cls-5" d="M367.43,207.86c-4.44-4.7-17.67-18.09-19.79-20.16-77.4-7.23-243.84,157.19-83.26,253.51-141.07-110.84,21.18-241.99,103.05-233.36Z" fill="#75d6ff"></path><path class="cls-1" d="M475.09,324.56c68.58,8.18,22.9-45.95,10.6-64.58,28.51-8.64,22.24-52.43-1.2-66.17,38.17-30.46,21.02-78.1-68.85-71.29-2.41-22.74-13.82-43.96-43.49-44.34,12.56-16.82-1.69-34.75-35.16-33.76.97-36.39-35.51-28.88-42.46-16.38,6.95-17.11-13.35-46.39-52.49-12.27-14.02,12.21-41.68-2.05-51.82,18.07-14.86-27.62-88.78-12.28-94.57,34.45-3.91,31.54-111.26,85.27-87.17,165.79,12.52-55.64,73.88-119.49,109.26-110.11,36.98,9.8,46.78-8.93,43.33-22.02,11.16,16.43,33.26,16.78,40.87,1.6-1.45,35.3,20.9,42,56.54,25.45,9.48,15.68,49.46,21.4,45.09,40.24-12.77,55.08,38.84,57.77,40.86,31.38,5.42,41.22,41.49,35.47,47.65,21.5,15.22,20.8-7.61,43.66,30.8,49.29-8.93,21.63,8.7,44,20.1,42.46-19.2,31.71,27.55,60.87,32.1,10.68Z" fill="url(#1776867898383-3965451_radial-gradient-4)"></path><path class="cls-7" d="M418.2,351.64c-11.49-.75-12.42,22.7-.92,23.43,11.47.77,12.38-22.69.92-23.43Z" fill="#c2f8ff"></path><path class="cls-7" d="M424.94,77.49c-5.5,9.52,16.77,20.08,22.25,10.54,5.52-9.5-16.78-20.04-22.25-10.54Z" fill="#c2f8ff"></path><path class="cls-7" d="M196.97,11.36c2.46,10.6,26.63,4.86,24.17-5.73-2.45-10.59-26.63-4.84-24.17,5.73Z" fill="#c2f8ff"></path><path class="cls-7" d="M398.74,39.14c-3.46,5.97,10.52,12.61,13.98,6.61,3.46-5.96-10.54-12.59-13.98-6.61Z" fill="#c2f8ff"></path><path class="cls-7" d="M368.22,261.88c-19.66-1.25-21.22,38.89-1.57,40.14,19.65,1.29,21.19-38.85,1.57-40.14Z" fill="#c2f8ff"></path><path class="cls-6" d="M364.12,131.66c-7.82,11.55,19.28,26.73,27.1,15.17,7.85-11.53-19.25-26.68-27.1-15.17Z" fill="#a8e5ff"></path><path class="cls-6" d="M304.24,77.16c-5.77,8.51,14.2,19.69,19.97,11.19,5.79-8.5-14.19-19.67-19.97-11.19Z" fill="#a8e5ff"></path><path class="cls-6" d="M180.93,53.95c-5.77,8.51,14.2,19.69,19.97,11.18,5.78-8.5-14.2-19.66-19.97-11.18Z" fill="#a8e5ff"></path><path class="cls-6" d="M388.72,187.88c-5.47,8.06,13.46,18.66,18.93,10.59,5.47-8.04-13.46-18.63-18.93-10.59Z" fill="#a8e5ff"></path><path class="cls-7" d="M259.27,161.63c-19.93-1.3-21.53,39.42-1.6,40.7,19.93,1.32,21.51-39.41,1.6-40.7Z" fill="#c2f8ff"></path><path class="cls-7" d="M154.44,156.45c-11.5-.74-12.42,22.71-.91,23.44,11.46.76,12.38-22.7.91-23.44Z" fill="#c2f8ff"></path></g></svg>