<svg data-name="Layer 1" xmlns="http://www.w3.org/2000/svg" style="" viewBox="0 0 512 512"><g class="nc-icon-wrapper"><defs><linearGradient id="1778733996689-3813370_linear-gradient" x1="256.27" y1="17.45" x2="256.27" y2="495.06" gradientTransform="matrix(1 0 0 -1 0 511.98)" gradientUnits="userSpaceOnUse"><stop offset=".5" stop-color="#0086e6"></stop><stop offset="1" stop-color="#14bbff"></stop></linearGradient></defs><path class="cls-1" d="M443.77,512c12.37,0,23.74-3.09,34.12-9.28,10.37-6.19,18.65-14.46,24.84-24.84,6.19-10.37,9.28-21.74,9.28-34.12V68.23c0-12.37-3.09-23.74-9.28-34.11-6.19-10.37-14.46-18.65-24.84-24.84-10.37-6.19-21.74-9.28-34.12-9.28H68.23c-12.37,0-23.74,3.09-34.12,9.28-10.37,6.19-18.65,14.46-24.84,24.84C3.09,44.49,0,55.86,0,68.23v375.54c0,12.37,3.09,23.74,9.28,34.12,6.19,10.37,14.46,18.65,24.84,24.84,10.37,6.19,21.74,9.28,34.12,9.28h375.54" vector-effect="none" fill="#0086e6"></path><path class="cls-2" d="M443.77,494.53c14.19,0,26.29-4.91,36.3-14.74,10.01-9.83,15.01-21.83,15.01-36.03V68.23c0-14.19-5-26.29-15.01-36.3-10.01-10.01-22.11-15.01-36.3-15.01H68.23c-14.19,0-26.2,5-36.03,15.01-9.83,10.01-14.74,22.11-14.74,36.3v375.54c0,14.19,4.91,26.2,14.74,36.03,9.83,9.83,21.83,14.74,36.03,14.74h375.54" vector-effect="none" fill="url(#1778733996689-3813370_linear-gradient)"></path><path class="cls-3" d="M402.83,258.18c-.73-5.09-2.91-9.37-6.55-12.83-3.64-3.46-8.19-5.37-13.65-5.73-1.46,0-6.37.27-14.74.82-8.37.55-17.56,1.09-27.57,1.64-10.01.55-18.74,1-26.2,1.36-7.46.36-11.19.55-11.19.55,0,0,1.91-2.18,5.73-6.55,3.82-4.37,8.28-9.46,13.37-15.28,5.09-5.82,9.92-11.37,14.46-16.65s7.55-8.82,9.01-10.64c5.09-6.19,6.73-13.46,4.91-21.83-1.82-8.37-6-14.19-12.55-17.47-1.46-.73-5.64-3.09-12.55-7.1-6.91-4-15.1-8.73-24.56-14.19-9.46-5.46-18.92-10.92-28.38-16.37-9.46-5.46-17.56-10.1-24.29-13.92s-10.46-5.91-11.19-6.28c-8.01-4-15.83-3.09-23.47,2.73-1.46,1.09-5.46,4.55-12.01,10.37-6.55,5.82-13.65,12.1-21.29,18.83-7.64,6.73-13.46,11.92-17.47,15.56-6.19,5.46-9.1,11.19-8.73,17.19.36,6,2.73,11.1,7.1,15.28,4.37,4.18,9.64,6.46,15.83,6.82,6.19.36,12.19-2.37,18.01-8.19,3.64-3.28,8.19-7.46,13.65-12.55,5.46-5.09,10.28-9.55,14.46-13.37s6.28-5.73,6.28-5.73l31.11,18.56-61.13,69.32,112.99,55.68,43.67-2.18s-.18,2.73-.55,8.19c-.36,5.46-.82,12.37-1.36,20.74-.55,8.37-1.18,16.92-1.91,25.65s-1.36,16.38-1.91,22.93c-.55,6.55-.82,10.92-.82,13.1-.36,6.55,1.64,11.83,6,15.83,4.37,4,9.1,6.19,14.19,6.55,4.73.36,9.64-.91,14.74-3.82,5.09-2.91,8.19-7.64,9.28-14.19,0-1.46.36-6.28,1.09-14.46.73-8.19,1.55-18.1,2.46-29.75.91-11.64,1.82-23.29,2.73-34.93.91-11.64,1.64-21.56,2.18-29.75.55-8.19.82-12.83.82-13.92" vector-effect="none" fill="#fff"></path><path class="cls-3" d="M180.13,278.38c12.74-9.83,27.29-14.74,43.67-14.74,13.46,0,25.84,3.37,37.12,10.1,11.28,6.73,20.2,15.65,26.75,26.75,6.55,11.1,9.83,23.38,9.83,36.84,0,16.38-4.73,31.11-14.19,44.21l28.93,28.93c8.37-9.83,14.83-20.92,19.38-33.3,4.55-12.37,6.82-25.65,6.82-39.85,0-21.11-5.09-40.3-15.28-57.59-10.19-17.28-24.02-31.11-41.48-41.48-17.47-10.37-36.75-15.56-57.86-15.56-13.83,0-26.93,2.36-39.3,7.1-12.37,4.73-23.65,11.28-33.84,19.65l29.48,28.93M268.01,396.83c-13.1,9.46-27.84,14.19-44.21,14.19-13.46,0-25.75-3.28-36.84-9.83-11.1-6.55-20.01-15.37-26.75-26.47-6.73-11.1-10.1-23.56-10.1-37.39,0-16.01,4.91-30.57,14.74-43.67l-29.48-29.48c-17.47,21.47-26.2,45.85-26.2,73.14,0,21.11,5.19,40.39,15.56,57.86,10.37,17.47,24.2,31.3,41.48,41.48,17.28,10.19,36.48,15.28,57.59,15.28,13.83,0,27.02-2.27,39.57-6.82,12.55-4.55,23.74-11.01,33.57-19.38l-28.93-28.93" vector-effect="none" fill="#fff"></path><path class="cls-3" d="M393.01,114.23c0-10.05-3.67-18.74-11.01-26.09-7.34-7.34-16.42-11.01-27.25-11.01-10.05,0-18.74,3.67-26.09,11.01-7.34,7.34-11.01,16.04-11.01,26.09s3.67,18.74,11.01,26.09c7.34,7.34,16.04,11.01,26.09,11.01,10.82,0,19.9-3.67,27.25-11.01,7.34-7.34,11.01-16.04,11.01-26.09" vector-effect="none" fill="#fff"></path></g></svg>