<svg xmlns="http://www.w3.org/2000/svg" data-name="Layer 1" style="" viewBox="0 0 511.99 512"><g class="nc-icon-wrapper"><defs><linearGradient id="1776867898385-7627990_linear-gradient" x1="200.78" x2="200.78" y1="2" y2="514" gradientTransform="matrix(1 0 0 -1 0 514)" gradientUnits="userSpaceOnUse"><stop offset="0" stop-color="#585e0f"></stop><stop offset="1" stop-color="#7d8717"></stop></linearGradient><linearGradient id="1776867898385-7627990_linear-gradient-2" x1="297.39" x2="455.66" y1="126.17" y2="126.17" gradientTransform="matrix(1 0 0 -1 0 514)" gradientUnits="userSpaceOnUse"><stop offset="0" stop-color="#d62020"></stop><stop offset=".21" stop-color="#c91b1b"></stop><stop offset=".59" stop-color="#a60f0f"></stop><stop offset="1" stop-color="#7a0000"></stop></linearGradient><linearGradient id="1776867898385-7627990_linear-gradient-3" x1="-886.77" x2="-790.16" y1="12.58" y2="12.58" gradientTransform="scale(-1 1) rotate(30 -961.966 805.578)" gradientUnits="userSpaceOnUse"><stop offset="0" stop-color="#d62020"></stop><stop offset=".01" stop-color="#d41f1f"></stop><stop offset=".19" stop-color="#b31414"></stop><stop offset=".38" stop-color="#9a0b0b"></stop><stop offset=".57" stop-color="#880505"></stop><stop offset=".77" stop-color="#7d0101"></stop><stop offset="1" stop-color="#7a0000"></stop></linearGradient><linearGradient id="1776867898385-7627990_linear-gradient-4" x1="-821.6" x2="-696.18" y1="17.19" y2="17.19" gradientTransform="scale(-1 1) rotate(30 -961.966 805.578)" gradientUnits="userSpaceOnUse"><stop offset="0" stop-color="#d62020"></stop><stop offset=".01" stop-color="#d41f1f"></stop><stop offset=".19" stop-color="#b31414"></stop><stop offset=".38" stop-color="#9a0b0b"></stop><stop offset=".57" stop-color="#880505"></stop><stop offset=".77" stop-color="#7d0101"></stop><stop offset="1" stop-color="#7a0000"></stop></linearGradient><linearGradient id="1776867898385-7627990_linear-gradient-5" x1="-761.9" x2="-651.83" y1="-21.58" y2="-21.58" gradientTransform="scale(-1 1) rotate(30 -961.966 805.578)" gradientUnits="userSpaceOnUse"><stop offset="0" stop-color="#7a0000"></stop><stop offset=".23" stop-color="#7d0101"></stop><stop offset=".43" stop-color="#880505"></stop><stop offset=".62" stop-color="#9a0b0b"></stop><stop offset=".81" stop-color="#b31414"></stop><stop offset=".99" stop-color="#d41f1f"></stop><stop offset="1" stop-color="#d62020"></stop></linearGradient><linearGradient id="1776867898385-7627990_linear-gradient-6" x1="-1214.36" x2="-1323.61" y1="-34.81" y2="27.8" gradientTransform="matrix(-.53688 .3101 .54498 .94398 -299.67 603.5)" gradientUnits="userSpaceOnUse"><stop offset="0" stop-color="#d62020"></stop><stop offset=".41" stop-color="#a11"></stop><stop offset=".79" stop-color="#870505"></stop><stop offset="1" stop-color="#7a0000"></stop></linearGradient><linearGradient id="1776867898385-7627990_linear-gradient-7" x1="-766.99" x2="-859.9" y1="-76.9" y2="16.01" gradientTransform="scale(-1 1) rotate(30 -961.966 805.578)" gradientUnits="userSpaceOnUse"><stop offset="0" stop-color="#7a0000"></stop><stop offset=".23" stop-color="#7d0101"></stop><stop offset=".43" stop-color="#880505"></stop><stop offset=".62" stop-color="#9a0b0b"></stop><stop offset=".81" stop-color="#b31414"></stop><stop offset=".99" stop-color="#d41f1f"></stop><stop offset="1" stop-color="#d62020"></stop></linearGradient><linearGradient id="1776867898385-7627990_linear-gradient-8" x1="866.29" x2="940.7" y1="-25.39" y2="-25.39" gradientTransform="rotate(-30 1050.11 1136.076)" gradientUnits="userSpaceOnUse"><stop offset="0" stop-color="#7a0000"></stop><stop offset=".23" stop-color="#7d0101"></stop><stop offset=".43" stop-color="#880505"></stop><stop offset=".62" stop-color="#9a0b0b"></stop><stop offset=".81" stop-color="#b31414"></stop><stop offset=".99" stop-color="#d41f1f"></stop><stop offset="1" stop-color="#d62020"></stop></linearGradient><linearGradient id="1776867898385-7627990_linear-gradient-9" x1="-782.96" x2="-737.35" y1="-10.6" y2="-10.6" gradientTransform="scale(-1 1) rotate(30 -961.966 805.578)" gradientUnits="userSpaceOnUse"><stop offset="0" stop-color="#7a0000"></stop><stop offset=".23" stop-color="#7d0101"></stop><stop offset=".43" stop-color="#880505"></stop><stop offset=".62" stop-color="#9a0b0b"></stop><stop offset=".81" stop-color="#b31414"></stop><stop offset=".99" stop-color="#d41f1f"></stop><stop offset="1" stop-color="#d62020"></stop></linearGradient><linearGradient id="1776867898385-7627990_linear-gradient-10" x1="270.71" x2="335.1" y1="457.83" y2="457.83" gradientTransform="scale(1 -1) rotate(-15 -2080.021 -232.772)" gradientUnits="userSpaceOnUse"><stop offset="0" stop-color="#d62020"></stop><stop offset=".01" stop-color="#d41f1f"></stop><stop offset=".19" stop-color="#b31414"></stop><stop offset=".38" stop-color="#9a0b0b"></stop><stop offset=".57" stop-color="#880505"></stop><stop offset=".77" stop-color="#7d0101"></stop><stop offset="1" stop-color="#7a0000"></stop></linearGradient><linearGradient id="1776867898385-7627990_linear-gradient-11" x1="-821.96" x2="-735.87" y1="-11.3" y2="-11.3" gradientTransform="scale(-1 1) rotate(30 -961.966 805.578)" gradientUnits="userSpaceOnUse"><stop offset="0" stop-color="#d62020"></stop><stop offset=".01" stop-color="#d41f1f"></stop><stop offset=".19" stop-color="#b31414"></stop><stop offset=".38" stop-color="#9a0b0b"></stop><stop offset=".57" stop-color="#880505"></stop><stop offset=".77" stop-color="#7d0101"></stop><stop offset="1" stop-color="#7a0000"></stop></linearGradient><linearGradient id="1776867898385-7627990_linear-gradient-12" x1="862.83" x2="997.69" y1="-28.81" y2="-28.81" gradientTransform="rotate(-30 1050.11 1136.076)" gradientUnits="userSpaceOnUse"><stop offset="0" stop-color="#d62020"></stop><stop offset=".01" stop-color="#d41f1f"></stop><stop offset=".19" stop-color="#b31414"></stop><stop offset=".38" stop-color="#9a0b0b"></stop><stop offset=".57" stop-color="#880505"></stop><stop offset=".77" stop-color="#7d0101"></stop><stop offset="1" stop-color="#7a0000"></stop></linearGradient><linearGradient id="1776867898385-7627990_linear-gradient-13" x1="-849.4" x2="-651.65" y1="-9.05" y2="-9.05" gradientTransform="scale(-1 1) rotate(30 -961.966 805.578)" gradientUnits="userSpaceOnUse"><stop offset="0" stop-color="#7a0000"></stop><stop offset=".23" stop-color="#7d0101"></stop><stop offset=".43" stop-color="#880505"></stop><stop offset=".62" stop-color="#9a0b0b"></stop><stop offset=".81" stop-color="#b31414"></stop><stop offset=".99" stop-color="#d41f1f"></stop><stop offset="1" stop-color="#d62020"></stop></linearGradient><linearGradient id="1776867898385-7627990_linear-gradient-14" x1="-798.86" x2="-647.82" y1="-32.24" y2="-32.24" gradientTransform="scale(-1 1) rotate(30 -961.966 805.578)" gradientUnits="userSpaceOnUse"><stop offset="0" stop-color="#7a0000"></stop><stop offset=".23" stop-color="#7d0101"></stop><stop offset=".43" stop-color="#880505"></stop><stop offset=".62" stop-color="#9a0b0b"></stop><stop offset=".81" stop-color="#b31414"></stop><stop offset=".99" stop-color="#d41f1f"></stop><stop offset="1" stop-color="#d62020"></stop></linearGradient><linearGradient id="1776867898385-7627990_linear-gradient-15" x1="-946.3" x2="-762.36" y1="-136.82" y2="-136.82" gradientTransform="rotate(-150 -216.687 264.426) scale(.9 -.88)" gradientUnits="userSpaceOnUse"><stop offset="0" stop-color="#d62020"></stop><stop offset=".34" stop-color="#ba1616"></stop><stop offset="1" stop-color="#7a0000"></stop></linearGradient><linearGradient id="1776867898385-7627990_linear-gradient-16" x1="-666.74" x2="-846.04" y1="-65.78" y2="-65.78" gradientTransform="scale(-1 1) rotate(30 -961.966 805.578)" gradientUnits="userSpaceOnUse"><stop offset="0" stop-color="#d62020"></stop><stop offset=".28" stop-color="#b21414"></stop><stop offset=".57" stop-color="#940909"></stop><stop offset=".82" stop-color="#810202"></stop><stop offset="1" stop-color="#7a0000"></stop></linearGradient><linearGradient id="1776867898385-7627990_linear-gradient-17" x1="-889.06" x2="-758.85" y1="-71.1" y2="-71.1" gradientTransform="scale(-1 1) rotate(30 -961.966 805.578)" gradientUnits="userSpaceOnUse"><stop offset="0" stop-color="#d62020"></stop><stop offset=".21" stop-color="#c91b1b"></stop><stop offset=".59" stop-color="#a60f0f"></stop><stop offset="1" stop-color="#7a0000"></stop></linearGradient></defs><path d="M106.38 165.25c12.61 84.36 76.19 147.66 76.19 328.86 0 24.21 55.32 23.52 55.32 0 0-150.39-79.7-257.07-100.69-332.93C102.64 36.28 220.91-21.39 289.59 40.4l8.15-4.09C222.1-43.06 83.3 11.13 106.38 165.25" fill="url(#1776867898385-7627990_linear-gradient)"></path><path d="M115.94 136.58c55.4 94.51-78.05 184.81-78.05 184.81s-23.85-143.28 78.05-184.81" fill="#95a11a"></path><path d="M297.74 355.44c4.07-52.5 78.2 45.29 157.92 35.93-8.45 52.59-166.71 77.67-157.92-35.93" fill="url(#1776867898385-7627990_linear-gradient-2)"></path><path d="M115.94 136.58c-64.87 35.68-78.05 184.81-78.05 184.81s-124.57-161.75 78.05-184.81" class="cls-11" fill="#a8b51d"></path><path d="M114.44 130.4c-73.6 59.45-74.85 166.82-76.56 190.99 3.29-25.28 22.69-137.21 84.56-186.1 1.86-1.46-1.88-9.84-8-4.89" fill="#848f17"></path><path d="M122.21 71.07c-63.15 2.22-57.89-13.87-7.7 23.29 4.04 2.96 12.77-23.43 7.7-23.29M183.72 399.21c-56.41 27.43-58.56 10.7 3.08 24.23 4.96 1.08 1.47-26.44-3.08-24.23M178.5 270.46c62.82 6.64 58.77-9.76 5.96 23.78-4.26 2.65-10.99-24.26-5.96-23.78" class="cls-21" fill="#768015"></path><path d="M288.77 35.69c46.34-25.83 55.86.06 55.86.06l-83.7 46.64s-18.47-20.91 27.84-46.7" class="cls-22" fill="#899320"></path><path d="M271.99 66.68c101.68-84.18 138.21 1.83 214.62-6.19-93.04 64.33-128.43-21.23-214.62 6.19" class="cls-22" fill="#899320"></path><path d="M507.95 169.61c26.38 48.71-113.92 117.93-92.2-19.99 10.92-2.3 75.31.98 92.2 19.99" fill="url(#1776867898385-7627990_linear-gradient-3)"></path><path d="M423.91 270.9c14.51-8.07 99.92-66.75-52.92-99.54-99.05 122.75 35.93 109 52.92 99.54" fill="url(#1776867898385-7627990_linear-gradient-4)"></path><path d="M311.29 291.55c40.23 26.35 194.04-83.58-42.61-129.36 44.29 35.7 5.81 105.28 42.61 129.36" fill="url(#1776867898385-7627990_linear-gradient-5)"></path><path d="M411.82 255.33c9.05-5.03 59.94-45.44-59.83-106.91-47.63 99.97 49.25 112.82 59.83 106.91" fill="url(#1776867898385-7627990_linear-gradient-6)"></path><path d="M470.71 202.72c-.15 9.7-105.75 75.29-103.18-122.43 6.72 66.12 103.93 70.35 103.18 122.43" fill="url(#1776867898385-7627990_linear-gradient-7)"></path><path d="M362.15 272.49c41.88-33.47 27.1-103.81-43.33-136.17-2.1 92.71 13.18 160.27 43.33 136.17" fill="url(#1776867898385-7627990_linear-gradient-8)"></path><path d="M380.58 240.59c7.81 3.27 69.11-52.1-29.25-68.29 24.17 19.46 7.13 59.04 29.25 68.29" fill="url(#1776867898385-7627990_linear-gradient-9)"></path><path d="M427.75 204.82c-1.02 8.58-85.5 33.36-49.07-61.6 5.66 31.48 51.98 37.33 49.07 61.6" fill="url(#1776867898385-7627990_linear-gradient-10)"></path><path d="M380.58 240.59c-25.51-29.26 141.99-115.66-30.65-67.52 24.14 19.47 4.31 57.98 30.65 67.52" fill="url(#1776867898385-7627990_linear-gradient-11)"></path><path d="M348.79 277.28c-52.09-52.14 196.68-154.74-22.33-149.91-2.08 92.71-12.94 142.13 22.33 149.91" fill="url(#1776867898385-7627990_linear-gradient-12)"></path><path d="M470.71 202.72c-3.77-62.42-159.21-6.22-176.02 67.75 12.15-147.58 185.25-161.8 176.02-67.75" fill="url(#1776867898385-7627990_linear-gradient-13)"></path><path d="M392.26 145.06c-4.89 51.43-139.29 103.65-78.57 147.84-52.09-24.58-12.65-91.4-47.39-130.5 20.75-25.68 96.73-35.5 125.96-17.34" fill="url(#1776867898385-7627990_linear-gradient-14)"></path><path d="M434.73 124.5c.43 11.38-36.1 67.76-158.54 45.97-79.58-59.28 51.69-235.87 158.54-45.97" fill="url(#1776867898385-7627990_linear-gradient-15)"></path><path d="M434.73 124.5c9.94 9.98-37.63 79.89-177.59 50.76 8-47.95 107.4-5.76 133.32-19.11 19.76-10.2 37.83-23.32 44.27-31.66Z" fill="url(#1776867898385-7627990_linear-gradient-16)"></path><path d="M511.22 183.98c7.73-25.77-44.66-57.37-63.91-82.8-28.8-38.09-88.43-87.1-149.56-54.9 62.63 195.5 178.71 78.69 213.48 137.7Z" fill="url(#1776867898385-7627990_linear-gradient-17)"></path><path d="M307.41 41.91c-59.91 7.01-129.18 70.96-97.93 135.2 16.58-62.02 81.99-96.75 97.93-135.2" class="cls-11" fill="#a8b51d"></path></g></svg>