<svg data-name="Layer 1" xmlns="http://www.w3.org/2000/svg" style="" viewBox="0 0 480.3 511.99"><g class="nc-icon-wrapper"><defs><radialGradient id="1776585740470-6981776_radial-gradient" cx="349.23" cy="-843.35" fx="349.23" fy="-843.35" r="147.84" gradientTransform="matrix(1 0 0 -.51 0 8.04)" gradientUnits="userSpaceOnUse"><stop offset="0" stop-color="#fff6f8"></stop><stop offset=".28" stop-color="#fbf2f4"></stop><stop offset=".58" stop-color="#f1e6e7"></stop><stop offset=".89" stop-color="#e0d2d2"></stop><stop offset=".93" stop-color="#ddcfcf"></stop><stop offset="1" stop-color="#ddcfcf"></stop></radialGradient><linearGradient id="1776585740470-6981776_linear-gradient" x1="409.94" y1="-514.06" x2="404.82" y2="-497.17" gradientTransform="scale(1 -1)" gradientUnits="userSpaceOnUse"><stop offset="0" stop-color="#bda6a6"></stop><stop offset=".32" stop-color="#c0aaaa"></stop><stop offset=".62" stop-color="#c9b6b6"></stop><stop offset=".93" stop-color="#d9c9c9"></stop><stop offset="1" stop-color="#ddcfcf"></stop></linearGradient><radialGradient id="1776585740470-6981776_radial-gradient-2" cx="165.5" cy="-157.68" fx="165.5" fy="-157.68" r="136.18" gradientTransform="scale(.97 -.97) rotate(-15 32.4 -36.124)" gradientUnits="userSpaceOnUse"><stop offset="0" stop-color="#fff" stop-opacity=".7"></stop><stop offset=".86" stop-color="#fff" stop-opacity=".1"></stop><stop offset="1" stop-color="#fff" stop-opacity="0"></stop></radialGradient><linearGradient id="1776585740470-6981776_linear-gradient-2" x1="152.65" y1="-272.35" x2="167.49" y2="-270.82" gradientTransform="scale(1 -1)" gradientUnits="userSpaceOnUse"><stop offset="0" stop-color="#849da3" stop-opacity=".6"></stop><stop offset=".07" stop-color="#9ab1b7" stop-opacity=".6"></stop><stop offset=".17" stop-color="#b4c9cf" stop-opacity=".6"></stop><stop offset=".28" stop-color="#c7dae0" stop-opacity=".6"></stop><stop offset=".38" stop-color="#d2e5ea" stop-opacity=".6"></stop><stop offset=".5" stop-color="#d6e8ed" stop-opacity=".6"></stop><stop offset=".6" stop-color="#d2e4e9" stop-opacity=".6"></stop><stop offset=".72" stop-color="#c5d8dd" stop-opacity=".6"></stop><stop offset=".84" stop-color="#afc4ca" stop-opacity=".6"></stop><stop offset=".96" stop-color="#91a9ae" stop-opacity=".6"></stop><stop offset="1" stop-color="#849da3" stop-opacity=".6"></stop></linearGradient><radialGradient id="1776585740470-6981776_radial-gradient-3" cx="166.47" cy="-331.74" fx="158.79" fy="-322.53" r="17.92" gradientTransform="scale(1 -1)" gradientUnits="userSpaceOnUse"><stop offset="0" stop-color="#ffabcc"></stop><stop offset=".29" stop-color="#ffabcc"></stop><stop offset=".44" stop-color="#ffa5c8"></stop><stop offset=".64" stop-color="#ff95be"></stop><stop offset=".86" stop-color="#ff7aae"></stop><stop offset=".91" stop-color="#ff73aa"></stop><stop offset="1" stop-color="#ff73aa"></stop></radialGradient><radialGradient id="1776585740470-6981776_radial-gradient-4" cx="199.66" cy="-618.71" fx="191.98" fy="-609.49" r="17.92" gradientTransform="matrix(1 0 0 -1 -68 -588)" gradientUnits="userSpaceOnUse"><stop offset="0" stop-color="#ffabcc"></stop><stop offset=".29" stop-color="#ffabcc"></stop><stop offset=".44" stop-color="#ffa5c8"></stop><stop offset=".64" stop-color="#ff95be"></stop><stop offset=".86" stop-color="#ff7aae"></stop><stop offset=".91" stop-color="#ff73aa"></stop><stop offset="1" stop-color="#ff73aa"></stop></radialGradient><linearGradient id="1776585740470-6981776_linear-gradient-3" x1="250.94" y1="-136.21" x2="210.5" y2="-136.21" gradientTransform="scale(1 -1)" gradientUnits="userSpaceOnUse"><stop offset="0" stop-color="#ffbfd4"></stop><stop offset=".07" stop-color="#ffa4c4"></stop><stop offset=".17" stop-color="#ff84b2"></stop><stop offset=".29" stop-color="#ff6aa3"></stop><stop offset=".41" stop-color="#ff5697"></stop><stop offset=".55" stop-color="#ff488f"></stop><stop offset=".72" stop-color="#ff408a"></stop><stop offset="1" stop-color="#ff3d89"></stop></linearGradient><linearGradient id="1776585740470-6981776_linear-gradient-4" x1="227.34" y1="-97.22" x2="208.4" y2="-113.6" gradientTransform="scale(1 -1)" gradientUnits="userSpaceOnUse"><stop offset="0" stop-color="#ffbfd4"></stop><stop offset=".07" stop-color="#ffa4c4"></stop><stop offset=".17" stop-color="#ff84b2"></stop><stop offset=".29" stop-color="#ff6aa3"></stop><stop offset=".41" stop-color="#ff5697"></stop><stop offset=".55" stop-color="#ff488f"></stop><stop offset=".72" stop-color="#ff408a"></stop><stop offset="1" stop-color="#ff3d89"></stop></linearGradient><linearGradient id="1776585740470-6981776_linear-gradient-5" x1="199.23" y1="-70.64" x2="183.36" y2="-98.8" gradientTransform="scale(1 -1)" gradientUnits="userSpaceOnUse"><stop offset="0" stop-color="#ffbfd4"></stop><stop offset=".07" stop-color="#ffa4c4"></stop><stop offset=".17" stop-color="#ff84b2"></stop><stop offset=".29" stop-color="#ff6aa3"></stop><stop offset=".41" stop-color="#ff5697"></stop><stop offset=".55" stop-color="#ff488f"></stop><stop offset=".72" stop-color="#ff408a"></stop><stop offset="1" stop-color="#ff3d89"></stop></linearGradient><linearGradient id="1776585740470-6981776_linear-gradient-6" x1="11.36" y1="-224.25" x2="49.76" y2="-197.12" gradientTransform="scale(1 -1)" gradientUnits="userSpaceOnUse"><stop offset="0" stop-color="#ffbfd4"></stop><stop offset=".07" stop-color="#ffa4c4"></stop><stop offset=".17" stop-color="#ff84b2"></stop><stop offset=".29" stop-color="#ff6aa3"></stop><stop offset=".41" stop-color="#ff5697"></stop><stop offset=".55" stop-color="#ff488f"></stop><stop offset=".72" stop-color="#ff408a"></stop><stop offset="1" stop-color="#ff3d89"></stop></linearGradient><linearGradient id="1776585740470-6981776_linear-gradient-7" x1="5.74" y1="-170.23" x2="36.46" y2="-173.3" gradientTransform="scale(1 -1)" gradientUnits="userSpaceOnUse"><stop offset="0" stop-color="#ffbfd4"></stop><stop offset=".07" stop-color="#ffa4c4"></stop><stop offset=".17" stop-color="#ff84b2"></stop><stop offset=".29" stop-color="#ff6aa3"></stop><stop offset=".41" stop-color="#ff5697"></stop><stop offset=".55" stop-color="#ff488f"></stop><stop offset=".72" stop-color="#ff408a"></stop><stop offset="1" stop-color="#ff3d89"></stop></linearGradient><linearGradient id="1776585740470-6981776_linear-gradient-8" x1="13.08" y1="-126.03" x2="50.16" y2="-143.54" gradientTransform="scale(1 -1)" gradientUnits="userSpaceOnUse"><stop offset="0" stop-color="#ffbfd4"></stop><stop offset=".07" stop-color="#ffa4c4"></stop><stop offset=".17" stop-color="#ff84b2"></stop><stop offset=".29" stop-color="#ff6aa3"></stop><stop offset=".41" stop-color="#ff5697"></stop><stop offset=".55" stop-color="#ff488f"></stop><stop offset=".72" stop-color="#ff408a"></stop><stop offset="1" stop-color="#ff3d89"></stop></linearGradient><linearGradient id="1776585740470-6981776_linear-gradient-9" x1="91.99" y1="-51.76" x2="115.03" y2="-155.17" gradientTransform="scale(1 -1)" gradientUnits="userSpaceOnUse"><stop offset="0" stop-color="#fff" stop-opacity=".95"></stop><stop offset=".95" stop-color="#fff" stop-opacity="0"></stop><stop offset="1" stop-color="#fff" stop-opacity="0"></stop></linearGradient></defs><path class="cls-1" d="M253.5,405.97c1.71.34,2.3,1.37,1.79,3.07s-1.45,2.39-2.82,2.05c-16.04-3.75-28.75-8.62-38.14-14.59s-16.04-11.26-19.97-15.87-5.89-6.91-5.89-6.91l2.56-.51s1.96,1.96,5.89,5.89,10.41,8.45,19.45,13.57,21.42,9.56,37.12,13.31h.01Z" fill="#d4286b"></path><path class="cls-14" d="M262.72,362.97s3.75,2.9,11.26,8.7c7.51,5.8,19.71,12.54,36.6,20.22s39.25,14.33,67.07,19.97c27.82,5.63,62.03,8.28,102.65,7.94,0,0-.85,2.73-2.56,8.19s-3.92,12.29-6.66,20.48c-2.73,8.19-5.89,16.3-9.47,24.32-3.58,8.02-7.42,14.42-11.52,19.2-4.78,6.48-14.33,11.77-28.67,15.87-14.33,4.1-34.3,4.44-59.9,1.02-20.48-3.07-39.42-8.11-56.83-15.1-17.41-7-32.59-14.33-45.56-22.01-12.97-7.68-23.04-14.33-30.21-19.97-7.17-5.63-10.75-8.45-10.75-8.45l44.54-80.38h0ZM248.38,409.04c0,3.07,1.54,4.61,4.61,4.61s4.61-1.54,4.61-4.61-1.54-4.61-4.61-4.61-4.61,1.54-4.61,4.61Z" fill="url(#1776585740470-6981776_radial-gradient)"></path><path class="cls-20" d="M362.04,504.78c-17.75-2.39-34.3-6.48-49.66-12.29-15.36-5.8-29.18-12.12-41.47-18.94-12.29-6.83-22.53-13.14-30.72-18.94s-13.82-9.9-16.89-12.29l40.44-72.7c3.75,3.07,10.41,7.59,19.97,13.57s22.7,12.12,39.42,18.43,37.54,11.6,62.46,15.87c24.92,4.27,54.44,6.4,88.57,6.4h.51c-1.37,4.44-3.41,10.84-6.14,19.2-2.73,8.36-5.97,16.89-9.73,25.6s-7.68,15.61-11.77,20.73c-6.83,8.87-16.38,14.51-28.67,16.89-12.29,2.39-31.06,1.88-56.31-1.54h0Z" fill="#faf1f2"></path><path class="cls-22" d="M448.56,444.88l-14.33,26.62,4.61,26.62-4.1,2.05-43.52-27.13-31.74,7.68-8.19-7.17-9.73-5.63,9.73,4.1,9.73,6.66,28.16-7.17-8.19-7.17,17.41,10.24-3.07-10.24-9.22-10.24,9.73,9.22,4.1,11.77,30.21,17.92v-33.28l-11.26-15.87-6.14-6.14,6.14,5.12,13.31,16.89.51-28.67,2.56-8.19-1.54,9.22v37.37l14.85-24.57h-.02Z" fill="#7a6d79"></path><path class="cls-17" d="M361.01,478.67c-.68,3.75-2.56,5.8-5.63,6.14s-6.14-.09-9.22-1.28-4.61-2.65-4.61-4.35,1.71-3.5,5.12-5.38,6.74-2.65,9.98-2.3,4.69,2.73,4.35,7.17h0ZM388.15,455.63c-.68,3.41-2.82,3.58-6.4.51s-5.55-6.31-5.89-9.73c3.07-.34,6.06.17,8.96,1.54s4.01,3.92,3.33,7.68h0ZM404.02,479.18c1.37,5.12.77,9.13-1.79,12.03s-5.8,4.44-9.73,4.61-7.42-1.62-10.5-5.38c2.05-1.37,3.75-3.58,5.12-6.66s3.16-5.38,5.38-6.91,6.06-.77,11.52,2.3h0ZM457.77,434.64c4.1-.34,6.23.94,6.4,3.84.17,2.9-1.28,5.63-4.35,8.19s-7.51,3.33-13.31,2.3c-2.39-4.1-2.65-7.85-.77-11.26s4.27-5.63,7.17-6.66,4.52.17,4.86,3.58h0Z" fill="#458fd3"></path><path class="cls-18" d="M383.54,462.8c0,3.41-1.88,5.12-5.63,5.12s-5.29-1.71-4.61-5.12,2.56-5.12,5.63-5.12,4.61,1.71,4.61,5.12ZM343.61,466.89c0,2.73-1.45,4.18-4.35,4.35s-4.18-1.62-3.84-5.38c0-1.37,1.37-2.13,4.1-2.3s4.1.94,4.1,3.33h-.01ZM449.07,450.51c3.07.68,3.33,1.71.77,3.07s-5.2,2.73-7.94,4.1c-1.37-.68-1.19-2.3.51-4.86s3.92-3.33,6.66-2.3h0ZM419.89,437.2c2.73-.34,3.58.26,2.56,1.79s-2.05,3.16-3.07,4.86c-1.37,0-2.3-1.02-2.82-3.07s.6-3.24,3.33-3.58h0ZM400.43,460.24c1.71,3.07,2.05,5.55,1.02,7.42-1.02,1.88-1.54,4.35-1.54,7.42-1.37-2.05-2.3-4.52-2.82-7.42-.51-2.9.6-5.38,3.33-7.42h.01Z" fill="#e07f93"></path><path class="cls-17" d="M415.79,439.76c-1.37,1.37-4.18,1.11-8.45-.77-4.27-1.88-6.06-5.72-5.38-11.52,6.48-1.71,10.75-.51,12.8,3.58s2.39,7,1.02,8.7h.01ZM432.17,462.8c0,2.73-2.3,5.12-6.91,7.17s-8.96,2.73-13.05,2.05-5.63-3.75-4.61-9.22c.34-4.1,1.19-6.4,2.56-6.91s2.82-.6,4.35-.26,2.99-.17,4.35-1.54c2.05-2.73,4.78-2.47,8.19.77s5.12,5.89,5.12,7.94h0Z" fill="#458fd3"></path><path class="cls-13" d="M253.5,405.97c1.71,0,2.39,1.02,2.05,3.07s-1.19,3.07-2.56,3.07c-14.33-1.71-26.62-5.63-36.86-11.77-10.24-6.14-18.69-13.14-25.34-20.99s-11.86-15.36-15.61-22.53-6.14-12.46-7.17-15.87h5.63c1.37,3.75,3.92,8.87,7.68,15.36s8.79,13.31,15.1,20.48c6.31,7.17,14.16,13.48,23.55,18.94s20.56,8.87,33.53,10.24h0Z" fill="#ff3d89"></path><path class="cls-15" d="M361.52,508.87c9.22,1.02,18.34,1.19,27.39.51s16.89-2.47,23.55-5.38c6.66-2.9,11.01-6.91,13.05-12.03,0,0,1.37.85,4.1,2.56s5.97,2.73,9.73,3.07,7.34-1.54,10.75-5.63c-5.46,7.85-13.14,13.23-23.04,16.13s-20.65,4.18-32.25,3.84-22.7-1.37-33.28-3.07h0Z" fill="url(#1776585740470-6981776_linear-gradient)"></path><path class="cls-19" d="M257.6,154.09c2.39,20.48,1.11,39.25-3.84,56.31s-11.26,31.83-18.94,44.28c-7.68,12.46-14.59,22.1-20.73,28.93s-9.22,10.24-9.22,10.24c-.68,1.37-5.63,1.54-14.85.51-9.22-1.02-21.16-3.16-35.84-6.4s-30.89-7.25-48.64-12.03c-18.09-4.78-34.3-9.47-48.64-14.08s-25.77-8.7-34.3-12.29c-8.53-3.58-12.63-6.23-12.29-7.94,0,0-.94-2.99-2.82-8.96s-3.67-14.08-5.38-24.32C.43,198.12-.26,186.6.09,173.8s2.56-26.19,6.66-40.19c4.1-14,11.09-27.65,20.99-40.96s20.82-23.29,32.76-29.95c11.95-6.66,23.81-10.92,35.58-12.8s22.61-2.47,32.51-1.79,17.83,1.79,23.81,3.33,8.96,2.3,8.96,2.3c0,0,2.99.85,8.96,2.56s13.4,4.69,22.27,8.96c8.87,4.27,17.92,10.24,27.13,17.92,9.22,7.68,17.32,17.32,24.32,28.93,7,11.6,11.52,25.6,13.57,41.98h-.01Z" fill="#b1cbe3"></path><path class="cls-4" d="M254.24,154.37c2.33,19.93,1.08,38.2-3.74,54.81s-10.96,30.98-18.44,43.1c-7.47,12.12-14.2,21.51-20.18,28.15s-8.97,9.97-8.97,9.97c-.66,1.33-5.48,1.49-14.45.5s-20.6-3.07-34.88-6.23-30.06-7.06-47.34-11.71c-17.61-4.65-33.38-9.22-47.34-13.7s-25.08-8.47-33.38-11.96c-8.3-3.49-12.29-6.06-11.96-7.72,0,0-.91-2.91-2.74-8.72s-3.57-13.7-5.23-23.67c-1.66-9.97-2.33-21.18-1.99-33.63.33-12.46,2.49-25.5,6.48-39.12,3.99-13.62,10.8-26.91,20.43-39.86s20.26-22.67,31.89-29.15c11.63-6.48,23.17-10.63,34.63-12.46,11.46-1.83,22.01-2.41,31.64-1.74s17.36,1.74,23.17,3.24,8.72,2.24,8.72,2.24c0,0,2.91.83,8.72,2.49s13.04,4.57,21.68,8.72c8.64,4.15,17.44,9.97,26.41,17.44s16.86,16.86,23.67,28.15,11.21,24.91,13.2,40.86h0Z" fill="url(#1776585740470-6981776_radial-gradient-2)"></path><path class="cls-19" d="M109.13,261.09c35.15,9.56,59.64,16.64,73.47,21.25s20.56,7.25,20.22,7.94c-.34,1.02-5.12.51-14.33-1.54-9.22-2.05-21.08-4.86-35.58-8.45-14.51-3.58-29.78-7.51-45.82-11.77-16.04-4.27-31.23-8.45-45.56-12.54-14.33-4.1-25.94-7.59-34.81-10.5s-13.31-4.86-13.31-5.89c.34-.68,8.36.6,24.06,3.84,15.7,3.24,39.59,9.13,71.67,17.66h-.01Z" fill="#b1cbe3"></path><path class="cls-21" d="M108.62,263.65c8.53,2.05,18.17,4.61,28.93,7.68,10.76,3.07,21.16,5.97,31.23,8.7,10.07,2.73,18.26,5.03,24.57,6.91s9.47,3.16,9.47,3.84c-.68,1.37-5.46,1.45-14.33.26s-20.48-3.33-34.81-6.4-30.21-7-47.61-11.77c-17.41-4.44-33.11-8.96-47.1-13.57-13.99-4.61-25.17-8.62-33.53-12.03s-12.37-5.97-12.03-7.68c0-.34,3.41.26,10.24,1.79,6.83,1.54,15.36,3.67,25.6,6.4s20.73,5.55,31.49,8.45,20.05,5.38,27.9,7.42h-.02Z" fill="#d7e6f7"></path><path class="cls-13" d="M129.41,0v23.58h5.14V0h-5.14Z" fill="#ff3d89"></path><path class="cls-12" d="M158.79,323.55l-12.29-102.9,14.85-1.02,12.29,102.9-14.85,1.02Z" fill="url(#1776585740470-6981776_linear-gradient-2)"></path><path class="cls-16" d="M163.4,323.04L129.61,48.12l5.12.51,33.79,274.41h-5.12Z" fill="#ffabcc"></path><path class="cls-3" d="M149.06,332.25c0-5.8,1.79-10.24,5.38-13.31s7.68-4.61,12.29-4.61,8.7,1.54,12.29,4.61,5.38,7.51,5.38,13.31c0,6.14-1.79,10.67-5.38,13.57s-7.68,4.35-12.29,4.35-8.7-1.45-12.29-4.35-5.38-7.42-5.38-13.57Z" fill="url(#1776585740470-6981776_radial-gradient-3)"></path><path class="cls-2" d="M114.25,31.22c0-5.8,1.79-10.24,5.38-13.31s7.68-4.61,12.29-4.61,8.7,1.54,12.29,4.61c3.59,3.07,5.38,7.51,5.38,13.31,0,6.14-1.79,10.67-5.38,13.57s-7.68,4.35-12.29,4.35-8.7-1.45-12.29-4.35-5.38-7.42-5.38-13.57Z" fill="url(#1776585740470-6981776_radial-gradient-4)"></path><path class="cls-13" d="M187.46,162.28c-1.71.68-3.58-.26-5.63-2.82s-3.75-5.46-5.12-8.7-1.54-5.72-.51-7.42c.68-.34.94-2.13.77-5.38s1.28-6.06,4.35-8.45,6.14-5.12,9.22-8.19,8.19-5.29,15.36-6.66c.34,4.78,2.13,9.73,5.38,14.85s4.18,10.41,2.82,15.87c-.34,1.37-.85,3.5-1.54,6.4s-2.22,4.86-4.61,5.89c-3.41,1.71-6.57,3.92-9.47,6.66s-6.57,2.05-11.01-2.05h-.01Z" fill="#ff3d89"></path><path class="cls-11" d="M243.77,152.04c-.68,3.41-2.73,5.29-6.14,5.63s-6.83-.34-10.24-2.05-5.29-4.27-5.63-7.68c-1.02-6.14-3.41-12.12-7.17-17.92s-6.48-10.92-8.19-15.36c5.8.34,9.64.85,11.52,1.54s3.5,1.45,4.86,2.3,4.27,1.28,8.7,1.28c3.07.34,5.55,1.28,7.42,2.82s3.67,2.99,5.38,4.35c3.41,2.73,5.29,6.91,5.63,12.54s-1.71,9.81-6.14,12.54h0Z" fill="url(#1776585740470-6981776_linear-gradient-3)"></path><path class="cls-13" d="M148.04,103.92c-1.71-2.05-2.13-4.52-1.28-7.42s2.99-4.52,6.4-4.86c1.37-.34,2.73-1.28,4.1-2.82s4.78-1.28,10.24.77c4.44,1.37,8.36,3.84,11.77,7.42s7.17,7.08,11.26,10.5,9.04,5.63,14.85,6.66c-5.46,0-9.47.77-12.03,2.3s-5.03,3.24-7.42,5.12-6.14,2.99-11.26,3.33c-2.73.34-6.4-.85-11.01-3.58s-8.62-5.8-12.03-9.22-4.61-6.14-3.58-8.19h-.01Z" fill="#ff3d89"></path><path class="cls-10" d="M225.86,96.24c2.73,1.37,5.46,3.75,8.19,7.17s4.27,6.66,4.61,9.73-1.54,4.61-5.63,4.61c-5.8,0-10.07-.85-12.8-2.56s-7.34-2.05-13.82-1.02c4.1-4.1,5.12-8.79,3.07-14.08s-2.39-9.81-1.02-13.57,4.01-4.27,7.94-1.54,7.08,6.48,9.47,11.26h-.01Z" fill="url(#1776585740470-6981776_linear-gradient-4)"></path><path class="cls-7" d="M179.78,69.11c1.02-2.05,3.75-2.56,8.19-1.54s8.53,2.99,12.29,5.89,5.29,6.23,4.61,9.98.09,8.45,2.3,14.08,1.79,11.01-1.28,16.13c-8.19-3.75-14.68-8.02-19.45-12.8s-9.9-9.39-15.36-13.82c-3.41-2.73-5.03-5.97-4.86-9.73s1.54-6.57,4.1-8.45,5.72-1.79,9.47.26h-.01Z" fill="url(#1776585740470-6981776_linear-gradient-5)"></path><path class="cls-13" d="M95.31,206.31c-.68,4.78-2.39,7.68-5.12,8.7s-5.89,1.28-9.47.77-6.74-.6-9.47-.26c-3.41.34-6.66-.6-9.73-2.82s-5.29-4.01-6.66-5.38c-5.46-4.1-8.53-9.64-9.22-16.64s-2.56-12.88-5.63-17.66c8.19-3.41,15.1-4.61,20.73-3.58s11.01,1.71,16.13,2.05c4.44.34,7.85,2.05,10.24,5.12s3.92,4.61,4.61,4.61c2.73,1.02,4.69,3.5,5.89,7.42s1.62,7.76,1.28,11.52-1.54,5.8-3.58,6.14h0Z" fill="#ff3d89"></path><path class="cls-8" d="M30.29,232.93c-6.83.34-12.37-2.3-16.64-7.94-4.27-5.63-5.72-10.84-4.35-15.61.68-2.39,1.54-4.95,2.56-7.68s3.07-5.12,6.14-7.17c4.1-2.73,6.57-4.95,7.42-6.66s1.96-3.58,3.33-5.63,4.78-4.95,10.24-8.7c1.71,5.46,2.9,12.12,3.58,19.97s2.9,14.85,6.66,20.99c2.05,3.75,2.05,7.59,0,11.52s-4.95,6.74-8.7,8.45-7.17,1.19-10.24-1.54h0Z" fill="url(#1776585740470-6981776_linear-gradient-6)"></path><path class="cls-13" d="M90.7,125.93c2.39,1.02,3.24,4.27,2.56,9.73s-2.3,11.01-4.86,16.64-5.38,9.13-8.45,10.5c-5.46,2.73-10.15,4.01-14.08,3.84s-7.85-.17-11.77,0-8.62,2.13-14.08,5.89c5.12-5.12,8.45-10.58,9.98-16.38s2.73-11.52,3.58-17.15,2.99-10.5,6.4-14.59c4.1-5.46,7.42-7.94,9.98-7.42s4.52.6,5.89.26c4.1-1.71,7.68-1.54,10.75.51s4.44,4.78,4.1,8.19v-.02Z" fill="#ff3d89"></path><path class="cls-6" d="M7.76,168.43c-1.37-6.48-1.19-12.2.51-17.15,1.7-4.95,4.61-6.06,8.7-3.33,2.73,2.05,4.86,4.86,6.4,8.45s3.33,7,5.38,10.24,5.29,5.38,9.73,6.4c-4.44,2.05-7.68,4.1-9.73,6.14s-4.01,4.27-5.89,6.66-4.69,4.95-8.45,7.68c-4.1,2.39-6.91,2.05-8.45-1.02s-2.13-7.08-1.79-12.03,1.54-8.96,3.58-12.03h0Z" fill="url(#1776585740470-6981776_linear-gradient-7)"></path><path class="cls-5" d="M31.31,112.62c2.39-4.44,5.63-6.48,9.73-6.14s7.68,2.22,10.75,5.63,3.92,7.51,2.56,12.29c-2.39,7.51-4.1,15.1-5.12,22.78s-4.44,15.96-10.24,24.83c-4.44-1.71-7.85-4.52-10.24-8.45s-4.35-7.94-5.89-12.03-3.5-7.17-5.89-9.22c-3.41-3.07-4.27-7.17-2.56-12.29s4.35-9.56,7.94-13.31,6.57-5.12,8.96-4.1h0Z" fill="url(#1776585740470-6981776_linear-gradient-8)"></path><path class="cls-9" d="M111.69,147.95c-11.6,2.39-20.65,2.9-27.13,1.54s-12.12-3.24-16.89-5.63-10.5-4.01-17.15-4.86-15.96.26-27.9,3.33c-2.05.68-3.75.17-5.12-1.54-1.37-1.71-1.71-3.41-1.02-5.12,5.46-16.04,13.48-30.21,24.06-42.49,10.58-12.29,23.12-21.76,37.63-28.41s29.95-9.64,46.33-8.96c13.31.34,25.85,3.16,37.63,8.45,11.77,5.29,22.27,12.37,31.49,21.25,1.37,1.37,1.88,2.99,1.54,4.86s-1.37,3.33-3.07,4.35c-11.26,4.44-19.88,9.39-25.85,14.85s-11.18,10.75-15.61,15.87c-4.43,5.12-9.47,9.64-15.1,13.57s-13.57,6.91-23.81,8.96l-.03-.02Z" fill="url(#1776585740470-6981776_linear-gradient-9)"></path></g></svg>