<svg xmlns="http://www.w3.org/2000/svg" style="" viewBox="0 0 448.48 512"><g class="nc-icon-wrapper"><defs><radialGradient id="1776867898444-3193683_radial-gradient" cx="-508.85" cy="859.7" fx="-508.85" fy="859.7" r="9.43" gradientTransform="translate(0 -932.04)" gradientUnits="userSpaceOnUse"><stop offset=".51" stop-color="#c99b71" stop-opacity=".8"></stop><stop offset="1" stop-color="#c99b71" stop-opacity="0"></stop></radialGradient><radialGradient id="1776867898444-3193683_radial-gradient-2" cx="-116.17" cy="1313.71" fx="-116.17" fy="1313.71" r="9.43" gradientTransform="translate(0 -932.04)" gradientUnits="userSpaceOnUse"><stop offset=".51" stop-color="#c99b71" stop-opacity=".8"></stop><stop offset="1" stop-color="#c99b71" stop-opacity="0"></stop></radialGradient><linearGradient id="1776867898444-3193683_linear-gradient" x1="306.58" y1="1149.51" x2="306.58" y2="1116.15" gradientTransform="translate(0 -932.04)" gradientUnits="userSpaceOnUse"><stop offset="0" stop-color="#4a90c2"></stop><stop offset="1" stop-color="#1e3a5f"></stop></linearGradient><linearGradient id="1776867898444-3193683_linear-gradient-2" x1="205.79" y1="1149.52" x2="205.79" y2="1116.17" gradientTransform="translate(0 -932.04)" gradientUnits="userSpaceOnUse"><stop offset="0" stop-color="#4a90c2"></stop><stop offset="1" stop-color="#1e3a5f"></stop></linearGradient></defs><path class="cls-2" d="M360.05,354.12c-3.56.71-8.84.36-15.84-1.07s-15.24-3.21-24.73-5.33c-9.49-2.14-19.69-4.03-30.6-5.69s-21.94-2.49-33.09-2.49-22.54.83-33.45,2.49c-10.91,1.66-21.06,3.56-30.42,5.69-9.37,2.14-17.61,3.92-24.73,5.33-7.11,1.43-12.46,1.78-16.01,1.07-6.4-.95-11.8-4.75-16.19-11.39s-8.01-15.07-10.85-25.26c-2.85-10.2-5.1-21.17-6.76-32.92s-2.79-23.43-3.38-35.05c-.6-11.62-.95-22.18-1.07-31.67-.12-9.49-.12-17.02,0-22.6.12-5.57.3-8.24.53-8.01h286.08c0-.24-.18,2.49-.53,8.18-.36,5.69-.89,13.34-1.6,22.95-.71,9.61-1.72,20.22-3.02,31.85-1.31,11.62-2.97,23.37-4.98,35.23s-4.39,22.83-7.12,32.92c-2.72,10.08-5.93,18.38-9.61,24.91s-7.89,10.14-12.63,10.85" vector-effect="none" fill="#b0872d"></path><path class="cls-17" d="M129,360.95l69.63-25.09h115.2l101.38,36.35c6.14,2.39,11.35,8.28,15.62,17.67,4.27,9.39,7.68,20.05,10.24,32,2.56,11.95,4.44,23.55,5.63,34.82,1.19,11.26,1.8,20.14,1.8,26.63,0,4.78-5.38,9.73-16.13,14.85-10.76,5.12-25,7.34-42.75,6.66-18.77,2.39-40.45,4.18-65.02,5.38-24.58,1.19-49.49,1.8-74.75,1.8-11.61,0-25.09-.51-40.45-1.53s-30.21-2.22-44.54-3.58c-14.34-1.37-26.2-2.9-35.58-4.61-9.38-1.71-14.25-3.42-14.59-5.12-2.05-29.01-1.87-53.67.51-73.98,2.39-20.31,5.29-35.75,8.71-46.33s5.12-15.87,5.12-15.87" vector-effect="none" fill="#42aad6"></path><path class="cls-4" d="M327.64,340.98c0,9.9-3.42,18.26-10.24,25.09s-15.7,11.86-26.63,15.1c-10.92,3.24-22.44,4.86-34.56,4.86s-23.64-1.71-34.56-5.12c-10.92-3.42-19.8-8.45-26.63-15.1-6.82-6.66-10.24-14.93-10.24-24.83l13.82-5.12h115.2l13.82,5.12" vector-effect="none" fill="#2b8db8"></path><path class="cls-1" d="M315.35,339.45c0,8.53-3.92,15.36-11.77,20.48-7.85,5.12-17.75,8.53-29.69,10.24-11.95,1.71-23.81,1.71-35.58,0s-21.59-5.12-29.44-10.24-11.77-11.95-11.77-20.48v-45.06h118.27v45.06" vector-effect="none" fill="#ebc199"></path><path class="cls-4" d="M383.96,505.33c7.51-46.42,12.54-69.71,15.1-69.89,2.56-.17-.6,22.96-9.47,69.37l-5.63.51M132.58,462.33l41.98-110.59s.25,2.73.77,8.19c.51,5.47.6,12.63.25,21.5s-1.87,18.35-4.61,28.41c-2.73,10.07-7.09,19.71-13.06,28.93-5.97,9.21-14.42,17.06-25.34,23.55" vector-effect="none" fill="#2b8db8"></path><path class="cls-1" d="M146.49,189.45c1.72,6.02,4.3,14.19,7.74,24.52,3.44,10.32,4.73,19.79,3.87,28.39,0,5.16-3.01,8.82-9.03,10.97-6.02,2.15-10.32-2.36-12.9-13.55-1.72-4.3-4.52-10.54-8.39-18.71s-5.38-18.28-4.52-30.32,4.51-15.91,10.97-11.61c6.46,4.3,10.54,7.74,12.25,10.32" vector-effect="none" fill="#ebc199"></path><path class="cls-8" d="M131.04,186.85c3.44,1.72,5.38,4.09,5.81,7.09.43,3.01,2.36,7.09,5.81,12.25,3.44,4.3,3.65,7.95.65,10.97-3.01,3.01-2.79,6.67.64,10.97,5.16,5.16,5.38,6.46.65,3.87-4.73-2.58-8.38-6.46-10.97-11.61-2.58-6.02-4.51-13.55-5.8-22.58s-.21-12.68,3.22-10.97" vector-effect="none" fill="url(#1776867898444-3193683_radial-gradient)"></path><path d="M131.04,186.85c3.44,1.72,5.38,4.09,5.81,7.09.43,3.01,2.36,7.09,5.81,12.25,3.44,4.3,3.65,7.95.65,10.97-3.01,3.01-2.79,6.67.64,10.97,5.16,5.16,5.38,6.46.65,3.87-4.73-2.58-8.38-6.46-10.97-11.61-2.58-6.02-4.51-13.55-5.8-22.58s-.21-12.68,3.22-10.97" vector-effect="none"></path><path class="cls-1" d="M389.05,190.72c.86,12.04-.65,22.15-4.52,30.31-3.87,8.17-6.67,14.41-8.39,18.71-2.58,11.19-6.88,15.7-12.9,13.54-6.02-2.15-9.03-5.81-9.03-10.97-.86-8.6.43-18.06,3.87-28.38,3.44-10.32,6.03-18.49,7.74-24.52,1.72-2.58,5.81-6.02,12.25-10.32,6.46-4.3,10.11-.43,10.97,11.61" vector-effect="none" fill="#ebc199"></path><path class="cls-5" d="M378.72,220.36c-2.58,5.16-6.02,9.02-10.32,11.61-4.3,2.58-4.3,1.29,0-3.87,3.44-4.3,3.65-7.95.65-10.96-3-3.01-2.79-6.67.65-10.96,3.44-5.16,5.38-9.24,5.81-12.24.43-3.01,2.79-5.37,7.09-7.09,2.58-1.72,3.22,1.94,1.94,10.96-1.29,9.02-3.22,16.55-5.81,22.56" vector-effect="none" fill="url(#1776867898444-3193683_radial-gradient-2)"></path><path d="M378.72,220.36c-2.58,5.16-6.02,9.02-10.32,11.61-4.3,2.58-4.3,1.29,0-3.87,3.44-4.3,3.65-7.95.65-10.96-3-3.01-2.79-6.67.65-10.96,3.44-5.16,5.38-9.24,5.81-12.24.43-3.01,2.79-5.37,7.09-7.09,2.58-1.72,3.22,1.94,1.94,10.96-1.29,9.02-3.22,16.55-5.81,22.56" vector-effect="none"></path><path class="cls-14" d="M197.09,327.68h118.27s-1.87,1.71-5.63,5.12c-3.76,3.42-8.62,7.43-14.59,12.03-5.97,4.61-12.46,8.71-19.45,12.29s-13.57,5.38-19.71,5.38c-5.8,0-12.2-1.71-19.2-5.12-7-3.42-13.48-7.43-19.45-12.03-5.97-4.61-10.83-8.71-14.59-12.29-3.76-3.58-5.63-5.38-5.63-5.38" vector-effect="none" fill="#c99b71"></path><path class="cls-1" d="M256.15,54.15c19.69,0,36.83,3.85,51.41,11.56,14.59,7.71,26.57,18.38,35.94,32.02,9.37,13.64,16.13,29.53,20.29,47.68s5.63,37.78,4.45,58.89c-.47,8.54-1.72,18.92-3.74,31.14-2.01,12.22-4.45,23.54-7.3,33.98-3.08,10.91-8.48,21.47-16.19,31.67-7.71,10.2-16.55,19.33-26.51,27.4-9.96,8.07-20.1,14.41-30.42,19.03-10.32,4.62-19.63,6.94-27.93,6.94s-17.61-2.31-27.93-6.94c-10.32-4.62-20.46-10.97-30.42-19.03-9.96-8.07-18.8-17.2-26.51-27.4-7.71-10.2-13.1-20.76-16.19-31.67-2.85-10.44-5.28-21.77-7.3-33.98-2.01-12.22-3.26-22.6-3.74-31.14-1.18-21.11.3-40.75,4.45-58.89,4.15-18.15,10.91-34.04,20.29-47.68,9.37-13.64,21.35-24.31,35.94-32.02,14.59-7.71,31.72-11.56,51.41-11.56" vector-effect="none" fill="#ebc199"></path><path class="cls-16" d="M256.17,284.01c4.75-2.14,8.6-3.38,11.56-3.74,2.97-.36,5.87-.18,8.72.53s6.4,1.54,10.68,2.49,10.08,1.66,17.44,2.14c-3.08,3.56-6.23,7.53-9.43,11.92-3.21,4.39-7.71,8.24-13.52,11.56s-14.29,4.98-25.44,4.98c-9.72,0-17.44-1.48-23.13-4.45-5.69-2.97-10.38-6.64-14.06-11.03s-7.41-8.72-11.21-12.99c7.36-.47,13.16-1.18,17.44-2.14,4.27-.95,7.83-1.78,10.68-2.49s5.75-.89,8.72-.53c2.97.36,6.82,1.6,11.56,3.74" vector-effect="none" fill="#da803d"></path><path class="cls-13" d="M216.79,288.52c14.64,1.59,27.78,2.39,39.41,2.39s24.76-.8,39.41-2.39c-6.05,6.69-14.09,11.15-24.12,13.37-10.03,2.23-20.07,2.23-30.1,0-10.03-2.23-18.23-6.69-24.6-13.37" vector-effect="none" fill="#fff"></path><path class="cls-18" d="M343.02,176.2c1.43,1.43,1.78,2.49,1.07,3.21-.71.71-1.9.6-3.56-.36-9.25-6.17-18.38-9.61-27.4-10.33-9.01-.71-16.84-.6-23.49.35-2.37.47-3.98-.12-4.81-1.78-.83-1.66-.77-3.44.18-5.34.95-1.9,2.73-3.21,5.34-3.92,5.69-.95,11.86-.77,18.51.53,6.64,1.31,13.05,3.5,19.22,6.59s11.15,6.76,14.94,11.04M169.35,176.18c-1.43,1.43-1.78,2.49-1.07,3.21.71.71,1.9.6,3.56-.36,9.25-6.17,18.38-9.61,27.41-10.32,9.01-.71,16.84-.59,23.49.36,2.37.47,3.98-.11,4.81-1.78.83-1.66.77-3.44-.18-5.33-.95-1.9-2.72-3.21-5.33-3.92-5.69-.95-11.86-.77-18.51.53-6.64,1.31-13.05,3.49-19.22,6.58-6.17,3.08-11.15,6.76-14.95,11.03" vector-effect="none" fill="#8b612d"></path><path class="cls-10" d="M294.42,46c17.26-3.04,32.83-.19,46.68,8.54,13.87,8.74,25.73,21.7,35.61,38.91s17.68,36.81,23.39,58.86c5.71,22.04,8.92,44.75,9.62,68.13.7,23.38-1.38,45.88-6.25,67.5-4.86,21.63-12.61,40.44-23.25,56.47-10.64,16.02-24.45,27.59-41.46,34.69,8.08-5.98,14.31-16.55,18.71-31.71,4.41-15.15,6.97-32.95,7.7-53.39.74-20.43-.5-41.67-3.7-63.69s-8.45-42.78-15.77-62.26-16.83-35.94-28.56-49.39c-11.73-13.45-25.88-21.91-42.46-25.37-6.3,5.68-13.77,13.16-22.41,22.43-8.64,9.28-19.33,18.47-32.11,27.56-12.77,9.1-28.74,16.25-47.9,21.45-11.59,17.11-19.87,36.13-24.85,57.09-4.98,20.96-7.22,41.89-6.73,62.8.49,20.91,3.48,39.77,8.95,56.61s13.28,29.38,23.4,37.63c-24.29-13.51-42.05-30.8-53.3-51.87-11.25-21.07-17.52-43.69-18.81-67.88-1.3-24.18,1.06-48.33,7.09-72.44,6.02-24.1,14.47-46.7,25.36-67.79,10.89-21.09,22.73-38.69,35.53-52.82,12.8-14.12,25.02-23.12,36.66-27,24.24-7.47,44.67-9.35,61.29-5.67,16.62,3.69,25.8,7.88,27.55,12.6" vector-effect="none" fill="#e6c465"></path><path class="cls-12" d="M338.93,379.34c6.73-5.89,12.09-16.4,16.08-31.54,3.99-15.14,6.31-32.8,6.94-52.98.63-20.18-.53-41.11-3.47-62.76-2.94-21.65-7.99-42.26-15.14-61.81-7.15-19.55-16.29-36.27-27.44-50.14-11.14-13.87-24.71-22.7-40.68-26.5,0,0,.84-.84,2.52-2.52s4.31-2.73,7.88-3.15c3.57-.42,8.09,1.47,13.56,5.68,13.45,7.99,24.92,19.87,34.38,35.64,9.46,15.77,17.03,33.64,22.7,53.61,5.68,19.97,9.56,40.47,11.67,61.5s2.31,41,.63,59.92-4.94,35.01-9.77,48.25c-4.83,13.24-11.46,22.18-19.87,26.81" vector-effect="none" fill="#c19b2c"></path><path class="cls-3" d="M414.74,254.78c-.05,17.81-2.93,35.77-8.64,53.89-5.7,18.12-14.15,33.64-25.33,46.57-11.19,12.93-25.18,20.87-42.01,23.84,12.13-6.25,21.63-18.42,28.48-36.52,6.85-18.1,10.99-39.25,12.43-63.46,1.44-24.21.15-48.97-3.85-74.28-4-25.3-10.82-48.41-20.43-69.3-9.62-20.9-21.98-36.63-37.08-47.2,14.89,4.22,29.03,12.57,42.41,25.04,13.38,12.47,25.57,33.03,36.55,61.67-8.69-36.35-20.99-62.7-36.87-79.07-15.9-16.36-32.5-25.76-49.81-28.19-.52-.37-.86-.99-1.02-1.87-.96-8.05,3.68-11.49,13.93-10.33,10.25,1.16,21.91,6.52,35.01,16.07-7.63-9.61-17.63-16.52-30.01-20.72s-23.74-5.85-34.07-4.94c19.97-5.81,39.12-.74,57.45,15.2,18.32,15.93,33.3,40.68,44.92,74.23,11.62,33.55,17.61,73.34,17.97,119.37M148.57,119.62c8.99-11.17,21-21.28,36.07-30.32,15.07-9.05,30.51-16.56,46.34-22.55,15.83-5.98,29.49-9.42,40.97-10.31,11.48-.88,17.69,1.33,18.63,6.64-.05,2.29-.79,4.59-2.21,6.89-1.42,2.3-2.79,3.57-4.12,3.81-9.14,2.52-17.47,7.65-25.02,15.36-7.54,7.72-16.06,16.3-25.58,25.73-9.52,9.43-21.16,18.45-34.94,27.04-13.78,8.59-31.24,14.98-52.41,19.17l6.32.94c-12.68,18.67-20.8,39.27-24.36,61.8-3.56,22.54-3.78,44.59-.65,66.17,3.12,21.58,8.73,40.45,16.83,56.59,8.09,16.14,17.64,26.9,28.62,32.26-17.4-2.86-31.65-10.62-42.78-23.26-11.13-12.64-19.31-27.98-24.54-45.99-5.23-18.02-7.86-36.15-7.88-54.4.13-32.88,4.16-64.4,12.08-94.55s19.9-56,35.96-77.54c16.06-21.55,35.94-36.24,59.66-44.07,11.27-3.35,22.58-5.24,33.92-5.64,11.34-.4,20.8.21,28.4,1.84,7.59,1.63,11.4,3.81,11.42,6.54-.86,2.89-5.61,5.67-14.28,8.34-8.65,2.67-19.63,6.43-32.92,11.28s-27.25,11.76-41.87,20.73-28.5,21.46-41.66,37.47M121.02,324.38c-5.54-31.43-7.25-59.88-5.12-85.36,2.13-25.48,6.53-47.7,13.23-66.68-8.18,10.57-14.08,24.96-17.72,43.17-3.63,18.21-4.62,37.21-2.95,57,1.66,19.79,5.85,37.08,12.57,51.87" vector-effect="none" fill="#f2d785"></path><path class="cls-12" d="M159.02,357.38c-9.61-15.65-15.46-33.33-17.56-53.03-2.1-19.71-1.77-39.16,1.01-58.37,2.78-19.2,6.85-36.24,12.21-51.1,5.37-14.86,10.68-25.5,15.94-31.9,16.17-1.48,30.02-6.43,41.53-14.86,11.53-8.42,21.8-17.42,30.84-27,9.04-9.58,18.05-17.33,27.05-23.25,9-5.92,18.8-7.3,29.39-4.15-9.69-.58-18.61,2.48-26.79,9.17-8.18,6.69-16.69,14.7-25.55,24.02-8.86,9.32-18.97,17.95-30.35,25.89-11.38,7.94-25.37,12.69-41.98,14.25-8.43,14.27-14.83,30.45-19.16,48.56-4.34,18.1-6.83,36.34-7.47,54.72-.64,18.37.04,35.13,2.02,50.3,1.99,15.16,4.95,27.42,8.88,36.77" vector-effect="none" fill="#c19b2c"></path><path class="cls-12" d="M173.06,378.85c-10.18-5.96-18.35-16.73-24.52-32.3-6.17-15.57-10.07-33.82-11.71-54.75-1.64-20.93-.2-42.52,4.33-64.77,4.52-22.25,12.38-43.03,23.58-62.35,0,0,.85-.38,2.54-1.13s3.8-.44,6.32.94c-5.54,7.37-10.4,18.03-14.55,32s-7.33,29.59-9.54,46.86c-2.2,17.27-3.02,34.65-2.44,52.12.57,17.47,2.85,33.62,6.83,48.43s10.37,26.47,19.17,34.96" vector-effect="none" fill="#c19b2c"></path><path class="cls-12" d="M299.25,93.97c-7.12-1.18-14.12.12-21,3.92s-13.76,8.96-20.64,15.49-14.11,13.41-21.7,20.64c-7.59,7.23-15.84,13.65-24.73,19.22-8.9,5.58-18.68,9.32-29.36,11.21-10.68,1.9-22.54.83-35.59-3.2,14,1.42,26.39.53,37.19-2.67,10.79-3.21,20.46-7.72,29-13.52,8.54-5.82,16.37-12.1,23.48-18.87,7.11-6.76,13.87-13.23,20.29-19.4,6.4-6.17,12.93-11.27,19.57-15.3,6.64-4.04,13.76-6.05,21.35-6.05,2.85-8.3,3.79-16.07,2.85-23.31-.95-7.23-2.73-12.52-5.34-15.84,5.46,4.51,8.72,10.02,9.79,16.55,1.07,6.53.89,12.75-.53,18.68-1.42,5.93-2.96,10.08-4.62,12.46" vector-effect="none" fill="#c19b2c"></path><path class="cls-14" d="M271.62,255.22c1.72,0,2.79.65,3.22,1.94s-.22,2.36-1.94,3.22c-1.72,1.72-4.3,3.22-7.74,4.52-3.44,1.29-6.46,1.94-9.03,1.94s-5.59-.65-9.03-1.94-6.03-2.79-7.74-4.52c-1.72-.86-2.36-1.94-1.94-3.22.43-1.29,1.51-1.94,3.22-1.94s3.87.43,6.46,1.29c2.58.86,5.59,1.29,9.03,1.29s6.46-.43,9.03-1.29c2.58-.86,4.73-1.29,6.46-1.29" vector-effect="none" fill="#c99b71"></path><path class="cls-15" d="M337.99,202.91c-1.66,6.4-5.1,10.55-10.32,12.46s-11.09,2.61-17.61,2.14-12.63-1.07-18.32-1.78-9.72-.6-12.1.36c-.24-10.44,2.31-18.56,7.65-24.38s11.62-9.25,18.86-10.32,13.94.18,20.1,3.74c6.17,3.56,10.08,9.49,11.75,17.79" vector-effect="none" fill="#edebea"></path><path class="cls-9" d="M306.58,184.11c2.3,0,4.46.43,6.47,1.3,2.01.87,3.79,2.07,5.32,3.59,1.53,1.53,2.72,3.3,3.59,5.32.87,2.01,1.3,4.18,1.3,6.47s-.43,4.46-1.3,6.47c-.87,2.01-2.07,3.79-3.59,5.32-1.53,1.53-3.3,2.72-5.32,3.59-2.01.87-4.18,1.3-6.47,1.3s-4.46-.43-6.47-1.3c-2.01-.87-3.79-2.07-5.32-3.59-1.53-1.53-2.72-3.3-3.59-5.32-.87-2.01-1.3-4.18-1.3-6.47s.43-4.46,1.3-6.47c.87-2.01,2.07-3.79,3.59-5.32,1.53-1.53,3.3-2.72,5.32-3.59,2.01-.87,4.18-1.3,6.47-1.3" vector-effect="none" fill="url(#1776867898444-3193683_linear-gradient)"></path><path class="cls-7" d="M297.08,200.52c0-3.1.97-5.43,2.91-6.98,1.94-1.55,4.15-2.33,6.63-2.33s4.69.78,6.63,2.33c1.94,1.55,2.91,3.88,2.91,6.98,0,3.26-.97,5.7-2.91,7.32-1.94,1.63-4.15,2.44-6.63,2.44s-4.69-.81-6.63-2.44c-1.94-1.63-2.91-4.07-2.91-7.32" vector-effect="none" fill="#1a1626"></path><path class="cls-15" d="M295.84,195.79c0-1.39.54-2.36,1.63-2.91,1.09-.54,2.21-.54,3.37,0,1.16.54,1.82,1.52,1.98,2.91,0,1.71-.58,2.83-1.74,3.37-1.16.54-2.33.54-3.49,0s-1.74-1.66-1.74-3.37" vector-effect="none" fill="#edebea"></path><path class="cls-18" d="M339.42,198.14s.6.51,1.8,1.53c1.19,1.02,2.48,1.37,3.84,1.02-.68,1.02-1.8,1.71-3.33,2.05s-2.81.34-3.84,0c-3.07-7.16-8.36-12.29-15.87-15.36s-15.1-3.33-22.78-.77c-7.68,2.56-13.74,8.28-18.17,17.15,3.07-11.26,8.02-18.52,14.85-21.76s13.66-4.01,20.48-2.3,11.77,4.44,14.85,8.19c1.02,1.02,2.3,2.14,3.84,3.33s4.01,1.45,7.43.77c-.68,1.02-1.71,1.53-3.07,1.53h-2.05l1.53,1.53c1.02,1.02,2.73,1.19,5.12.51-.34,1.02-1.19,1.71-2.56,2.05s-2.05.51-2.05.51" vector-effect="none" fill="#8b612d"></path><path class="cls-15" d="M174.31,202.92c1.66-8.3,5.57-14.23,11.75-17.79,6.17-3.56,12.87-4.8,20.1-3.74,7.23,1.07,13.52,4.51,18.86,10.32s7.89,13.94,7.65,24.38c-2.37-.95-6.4-1.07-12.1-.36s-11.8,1.31-18.32,1.78-12.39-.24-17.61-2.14-8.66-6.05-10.32-12.46" vector-effect="none" fill="#edebea"></path><path class="cls-6" d="M222.47,200.81c0,2.3-.43,4.46-1.3,6.47-.87,2.01-2.07,3.79-3.59,5.32s-3.3,2.72-5.32,3.59-4.18,1.3-6.47,1.3-4.46-.43-6.47-1.3c-2.01-.87-3.79-2.07-5.32-3.59s-2.72-3.3-3.59-5.32-1.3-4.18-1.3-6.47.43-4.46,1.3-6.47c.87-2.01,2.07-3.79,3.59-5.32s3.3-2.72,5.32-3.59,4.18-1.3,6.47-1.3,4.46.43,6.47,1.3c2.01.87,3.79,2.07,5.32,3.59s2.72,3.3,3.59,5.32,1.3,4.18,1.3,6.47" vector-effect="none" fill="url(#1776867898444-3193683_linear-gradient-2)"></path><path class="cls-7" d="M215.26,200.52c0,3.26-.97,5.7-2.91,7.32-1.94,1.63-4.15,2.44-6.63,2.44s-4.69-.81-6.63-2.44-2.91-4.07-2.91-7.32.97-5.43,2.91-6.98,4.15-2.33,6.63-2.33,4.69.78,6.63,2.33,2.91,3.88,2.91,6.98" vector-effect="none" fill="#1a1626"></path><path class="cls-15" d="M216.5,195.79c0,1.71-.58,2.83-1.74,3.37-1.16.54-2.33.54-3.49,0s-1.74-1.66-1.74-3.37c.16-1.39.81-2.36,1.98-2.91,1.16-.54,2.29-.54,3.37,0s1.63,1.52,1.63,2.91" vector-effect="none" fill="#edebea"></path><path class="cls-18" d="M172.95,198.14s-.68-.18-2.05-.51-2.22-1.02-2.56-2.05c2.39.68,4.1.51,5.12-.51s1.53-1.53,1.53-1.53h-2.05c-1.37,0-2.39-.51-3.07-1.53,3.42.68,5.89.43,7.43-.77s2.81-2.3,3.84-3.33c3.07-3.76,8.02-6.48,14.85-8.19,6.82-1.71,13.66-.94,20.48,2.3s11.77,10.49,14.85,21.76c-4.44-8.87-10.49-14.59-18.17-17.15s-15.28-2.3-22.78.77c-7.51,3.07-12.8,8.19-15.87,15.36-1.02.34-2.3.34-3.84,0s-2.65-1.02-3.33-2.05c1.37.34,2.65,0,3.84-1.02s1.8-1.53,1.8-1.53" vector-effect="none" fill="#8b612d"></path><path class="cls-11" d="M140.26,91.14c7.85-2.05,13.57-2.05,17.15,0s5.72,4.61,6.4,7.68,0,5.29-2.05,6.66c-9.9,6.82-17.4,14.68-22.53,23.55s-9.81,17.24-14.08,25.09-10.33,13.66-18.17,17.4c.68-7.51,2.73-15.87,6.14-25.09,3.42-9.21,7.25-18.01,11.52-26.36,4.27-8.36,7.94-15.28,11.01-20.73,3.07-5.47,4.61-8.19,4.61-8.19" vector-effect="none" fill="#c7b073"></path><path class="cls-17" d="M175.58,344.06c1.02,11.61.34,23.72-2.05,36.35s-5.8,24.58-10.24,35.84c-4.44,11.26-9.39,21-14.85,29.18-5.46,8.19-10.76,13.82-15.87,16.9-5.12,3.07-9.39,2.39-12.8-2.05-4.1-6.14-10.58-14.25-19.45-24.32s-18.09-20.91-27.64-32.51-18.09-22.62-25.6-33.02c-7.51-10.41-12.29-19.03-14.34-25.86-2.05-7.51-3.76-17.75-5.12-30.72-1.37-12.97-2.22-27.22-2.56-42.75s-.25-31.15.25-46.84c.51-15.7,1.62-30.03,3.33-43.01.34-2.73,3.07-4.78,8.19-6.14,5.12-1.37,11.43-2.3,18.95-2.81,7.51-.51,14.85-.34,22.01.51,7.16.85,13.23,2.22,18.17,4.1,4.95,1.87,7.25,4.35,6.91,7.43-1.37,18.43-1.28,36.78.25,55.04,1.53,18.26,3.42,33.79,5.63,46.59s3.49,20.39,3.84,22.78c1.02,2.73,3.15,5.89,6.4,9.47,3.24,3.58,6.57,6.66,9.99,9.21,3.42,2.56,5.8,3.84,7.16,3.84,12.29,1.71,21.93,4.27,28.93,7.68,7,3.42,10.49,5.12,10.49,5.12" vector-effect="none" fill="#42aad6"></path><path class="cls-1" d="M147.93,90.12c4.44,0,7.85,1.02,10.24,3.07,2.39,2.05,3.58,3.92,3.58,5.63v.51c0,1.37-.68,2.56-2.05,3.58-8.53,5.12-15.02,11.18-19.45,18.17-4.44,7-8.28,14.08-11.52,21.25-3.24,7.16-7,13.74-11.26,19.71-4.27,5.97-10.67,10.67-19.2,14.08,0,1.02.09,1.87.25,2.56.18.68.25,1.53.25,2.56,0,2.39-3.42,4.18-10.24,5.38-6.82,1.19-14.59,1.8-23.3,1.8s-16.47-.6-23.3-1.8c-6.82-1.19-10.24-2.99-10.24-5.38.34-3.07.68-6.32,1.02-9.73-11.61-8.87-16.9-22.19-15.87-39.93.68-13.31.17-23.21-1.53-29.69-1.71-6.48-4.27-14.34-7.68-23.55-1.02-2.39-2.05-5.12-3.07-8.19-1.02-3.07-2.22-6.32-3.58-9.73-1.71-5.12-1.19-9.13,1.53-12.03,2.73-2.9,5.97-4.01,9.73-3.33,3.76.68,6.48,3.58,8.19,8.71,0,0,.94,2.05,2.81,6.14,1.87,4.1,3.92,8.87,6.14,14.34,2.22,5.46,4.27,10.33,6.14,14.59,1.87,4.27,2.99,6.4,3.33,6.4s-.18-3.24-1.53-9.73-3.07-14-5.12-22.53c-2.05-8.53-3.92-16.21-5.63-23.04-1.71-6.82-2.56-10.58-2.56-11.26v-.51c-1.71-6.14-.77-10.76,2.81-13.82,3.58-3.07,7.68-4.1,12.29-3.07s7.59,4.78,8.96,11.26c.34,1.71,1.28,6.32,2.81,13.82s3.24,15.78,5.12,24.83c1.87,9.05,3.67,16.98,5.38,23.81,1.71,6.82,2.73,10.24,3.07,10.24s.51-2.65.51-7.94-.09-11.86-.25-19.71-.43-15.7-.77-23.55-.6-14.5-.77-19.97c-.17-5.46-.25-8.19-.25-8.19-.34-5.12.77-9.05,3.33-11.77,2.56-2.73,5.38-4.1,8.44-4.1h1.53c2.73,0,5.29,1.19,7.68,3.58,2.39,2.39,3.76,5.8,4.1,10.24,0,1.71.09,6.74.25,15.1.17,8.36.34,17.67.51,27.91.18,10.24.34,19.11.51,26.63.18,7.51.43,11.43.77,11.77.34,0,1.11-2.48,2.3-7.43s2.65-11.01,4.35-18.17c1.71-7.16,3.33-14.08,4.86-20.73s2.65-11.86,3.33-15.62c.68-2.73,1.02-4.1,1.02-4.1,1.71-5.8,4.78-9.21,9.21-10.24,4.44-1.02,8.36.09,11.77,3.33,3.42,3.24,4.44,7.77,3.07,13.57-1.02,3.42-2.48,8.96-4.35,16.64-1.87,7.68-3.92,15.78-6.14,24.31s-4.18,16.05-5.89,22.53c-.34,1.37-.43,3.15-.25,5.38.18,2.22.6,3.67,1.28,4.35,1.71,1.02,3.07,1.02,4.1,0s2.39-2.56,4.1-4.61c2.05-2.73,4.95-5.72,8.71-8.96,3.76-3.24,9.21-5.04,16.38-5.38" vector-effect="none" fill="#ebc199"></path><path class="cls-14" d="M55.26,166.4c0-3.42,1.45-8.62,4.35-15.62s8.02-13.23,15.36-18.69c7.34-5.47,17.49-7.68,30.46-6.66-11.95,1.02-21.25,4.1-27.91,9.21-6.66,5.12-11.61,10.58-14.85,16.38s-5.29,10.41-6.14,13.82c-.85,3.42-1.28,3.92-1.28,1.53M90.6,112.65c-2.05,1.02-7.68,2.22-16.9,3.58s-20.82,2.22-34.82,2.56c18.09-1.37,31.65-3.07,40.7-5.12,9.05-2.05,12.72-2.39,11.01-1.02" vector-effect="none" fill="#c99b71"></path></g></svg>