<svg xmlns="http://www.w3.org/2000/svg" style="" viewBox="0 0 357.91 512"><g class="nc-icon-wrapper"><defs><linearGradient id="1776867898421-4013606_linear-gradient" x1="178.97" y1="-288.41" x2="178.97" y2="-41.24" gradientTransform="matrix(1 0 0 -1 0 223.59)" gradientUnits="userSpaceOnUse"><stop offset=".88" stop-color="#484258"></stop><stop offset=".95" stop-color="#555064"></stop><stop offset="1" stop-color="#605b6e"></stop></linearGradient><radialGradient id="1776867898421-4013606_radial-gradient" cx="-602.26" cy="300.69" fx="-602.26" fy="300.69" r="10.06" gradientTransform="matrix(1 0 0 -1 0 223.59)" gradientUnits="userSpaceOnUse"><stop offset=".51" stop-color="#c99b71" stop-opacity=".8"></stop><stop offset="1" stop-color="#c99b71" stop-opacity="0"></stop></radialGradient><radialGradient id="1776867898421-4013606_radial-gradient-2" cx="-183.8" cy="-183.15" fx="-183.8" fy="-183.15" r="10.06" gradientTransform="matrix(1 0 0 -1 0 223.59)" gradientUnits="userSpaceOnUse"><stop offset=".51" stop-color="#c99b71" stop-opacity=".8"></stop><stop offset="1" stop-color="#c99b71" stop-opacity="0"></stop></radialGradient><linearGradient id="1776867898421-4013606_linear-gradient-2" x1="222.55" y1="62.77" x2="222.55" y2="91.57" gradientTransform="matrix(1 0 0 -1 0 223.59)" gradientUnits="userSpaceOnUse"><stop offset="0" stop-color="#4a90c2"></stop><stop offset="1" stop-color="#1e3a5f"></stop></linearGradient><linearGradient id="1776867898421-4013606_linear-gradient-3" x1="135.36" y1="62.77" x2="135.36" y2="91.57" gradientTransform="matrix(1 0 0 -1 0 223.59)" gradientUnits="userSpaceOnUse"><stop offset="0" stop-color="#4a90c2"></stop><stop offset="1" stop-color="#1e3a5f"></stop></linearGradient><linearGradient id="1776867898421-4013606_linear-gradient-4" x1="227.06" y1="-266.06" x2="262.13" y2="-154.81" gradientTransform="matrix(1 0 0 -1 0 223.59)" gradientUnits="userSpaceOnUse"><stop offset="0" stop-color="#d78e53"></stop><stop offset="1" stop-color="#c06d1b"></stop></linearGradient><linearGradient id="1776867898421-4013606_linear-gradient-5" x1="261.65" y1="-153.01" x2="277.42" y2="-94.28" gradientTransform="matrix(1 0 0 -1 0 223.59)" gradientUnits="userSpaceOnUse"><stop offset="0" stop-color="#b55900"></stop><stop offset=".5" stop-color="#e3ab72"></stop><stop offset="1" stop-color="#d07e42"></stop></linearGradient><linearGradient id="1776867898421-4013606_linear-gradient-6" x1="301.08" y1="-163.45" x2="313.09" y2="-100.7" gradientTransform="matrix(1 0 0 -1 0 223.59)" gradientUnits="userSpaceOnUse"><stop offset="0" stop-color="#622c00"></stop><stop offset="1" stop-color="#8c3f00"></stop></linearGradient><linearGradient id="1776867898421-4013606_linear-gradient-7" x1="274.58" y1="-156.43" x2="301.31" y2="-100.78" gradientTransform="matrix(1 0 0 -1 0 223.59)" gradientUnits="userSpaceOnUse"><stop offset="0" stop-color="#d38942"></stop><stop offset=".5" stop-color="#f2c5a6"></stop><stop offset="1" stop-color="#d38942"></stop></linearGradient><linearGradient id="1776867898421-4013606_linear-gradient-8" x1="298.65" y1="-165.7" x2="317.75" y2="-96.41" gradientTransform="matrix(1 0 0 -1 0 223.59)" gradientUnits="userSpaceOnUse"><stop offset="0" stop-color="#b55900"></stop><stop offset=".5" stop-color="#e3ab72"></stop><stop offset="1" stop-color="#d07e42"></stop></linearGradient><linearGradient id="1776867898421-4013606_linear-gradient-9" x1="226.49" y1="-143.84" x2="238.49" y2="-81.09" gradientTransform="matrix(1 0 0 -1 0 223.59)" gradientUnits="userSpaceOnUse"><stop offset="0" stop-color="#622c00"></stop><stop offset="1" stop-color="#8c3f00"></stop></linearGradient><linearGradient id="1776867898421-4013606_linear-gradient-10" x1="237.1" y1="-145.89" x2="262.74" y2="-91.33" gradientTransform="matrix(1 0 0 -1 0 223.59)" gradientUnits="userSpaceOnUse"><stop offset="0" stop-color="#d38942"></stop><stop offset=".5" stop-color="#f2c5a6"></stop><stop offset="1" stop-color="#d38942"></stop></linearGradient><linearGradient id="1776867898421-4013606_linear-gradient-11" x1="222.93" y1="-145.94" x2="241.99" y2="-76.79" gradientTransform="matrix(1 0 0 -1 0 223.59)" gradientUnits="userSpaceOnUse"><stop offset="0" stop-color="#b55900"></stop><stop offset=".5" stop-color="#e3ab72"></stop><stop offset="1" stop-color="#d07e42"></stop></linearGradient></defs><path class="cls-3" d="M270.08,279.03c-2.18.36-7.82.64-16.91.82-9.09.18-20.19.36-33.28.55-13.09.18-26.82.27-41.2.27s-28.19-.09-41.47-.27c-13.28-.18-24.37-.36-33.28-.55s-14.46-.45-16.64-.82c-8-1.09-14.27-6.82-18.83-17.19-4.54-10.37-7.91-22.64-10.09-36.83-2.18-14.18-3.54-28.28-4.09-42.29s-.73-25.64-.55-34.92.27-13.55.27-12.82h250.43c0-.36-.18,2.73-.55,9.28-.36,6.55-1,15.18-1.91,25.91-.91,10.73-2.27,22.19-4.09,34.37s-4,23.82-6.55,34.92c-2.54,11.09-5.54,20.28-9,27.55s-7.55,11.28-12.28,12" vector-effect="none" fill="#b0872d"></path><path class="cls-18" d="M233.52,265.38l84.57,32.74-12.55,195.33c-1.09,6.18-7.82,10.55-20.19,13.09-12.37,2.54-28.1,4.09-47.19,4.63-19.1.55-38.83.82-59.2.82-15.27,0-30.74-.09-46.38-.27s-30.1-.91-43.38-2.18c-13.28-1.27-24.1-3.18-32.46-5.73-8.37-2.54-12.73-6-13.09-10.37l-3.82-195.33,84.57-33.28,109.12.55" vector-effect="none" fill="url(#1776867898421-4013606_linear-gradient)"></path><path class="cls-1" d="M178.96,315.04l-54.56-31.1v-51.84h109.12v51.84l-54.56,31.1" vector-effect="none" fill="#ebc199"></path><path class="cls-22" d="M178.96,294.85c11.64,0,19.64,1.64,24.01,4.91s6.1,7.1,5.18,11.46c-.91,4.36-4,8.19-9.28,11.46-5.27,3.27-11.91,4.91-19.92,4.91s-14.64-1.64-19.92-4.91c-5.27-3.27-8.37-7.1-9.28-11.46-.91-4.36.82-8.19,5.19-11.46,4.36-3.27,12.37-4.91,24.01-4.91" vector-effect="none" fill="#f25c92"></path><path class="cls-24" d="M234.61,252.29s-1.91,1.82-5.73,5.46c-3.82,3.64-8.64,7.82-14.46,12.55-5.82,4.73-11.91,8.82-18.28,12.28s-12.09,5.19-17.19,5.19-10.82-1.73-17.18-5.19c-6.37-3.45-12.46-7.55-18.28-12.28-5.82-4.73-10.64-8.91-14.46-12.55-3.82-3.64-5.73-5.46-5.73-5.46h111.3" vector-effect="none" fill="#c99b71"></path><path class="cls-14" d="M150.58,325.41c-2.54-7.28-2.82-13.18-.82-17.74s5.19-7.91,9.55-10.09,8.46-3.36,12.28-3.54c3.82-.18,6.28.09,7.37.82-1.45,0-3.73,1.54-6.82,4.63s-6.28,6.64-9.55,10.64c-3.27,4-6.1,7.55-8.46,10.64s-3.54,4.63-3.54,4.63" vector-effect="none" fill="#dc2f68"></path><path class="cls-14" d="M178.96,294.85c1.09-.73,3.54-1,7.37-.82,3.82.18,7.82,1.36,12,3.54,4.18,2.18,7.37,5.54,9.55,10.09,2.18,4.54,2,10.46-.55,17.74,0,0-1.18-1.54-3.54-4.63s-5.18-6.64-8.46-10.64c-3.27-4-6.46-7.55-9.55-10.64s-5.36-4.63-6.82-4.63" vector-effect="none" fill="#dc2f68"></path><path class="cls-31" d="M233.52,261.02l20.73,12c-1.09,7.64-5,15.46-11.73,23.46-6.73,8-14.46,15.46-23.19,22.37-8.73,6.91-16.83,12.55-24.28,16.91-7.46,4.36-12.82,6.55-16.09,6.55s-8.64-2.18-16.09-6.55c-7.46-4.36-15.55-10-24.28-16.91-8.73-6.91-16.46-14.37-23.19-22.37-6.73-8-10.64-15.82-11.73-23.46l20.73-12c0,5.09,2.54,10.55,7.64,16.37,5.09,5.82,11.09,11.37,18.01,16.64,6.91,5.27,13.18,9.55,18.83,12.82,5.63,3.27,9,4.91,10.09,4.91s4.45-1.64,10.09-4.91c5.63-3.27,11.91-7.55,18.83-12.82s12.91-10.82,18.01-16.64c5.09-5.82,7.64-11.28,7.64-16.37" vector-effect="none" fill="#302c3b"></path><path class="cls-23" d="M233.52,261.02c9.09,3.27,13,10.55,11.73,21.82-1.27,11.28-11,24.37-29.19,39.29l-4.63-4.63c-3.09-3.09-6.91-6.64-11.46-10.64-4.54-4-8.82-7.28-12.82-9.82-4-2.54-6.73-3.27-8.19-2.18,1.09-1.82,5.09-3.45,12-4.91,6.91-1.45,14.46-4.18,22.64-8.19,8.19-4,14.82-10.91,19.92-20.73M124.4,261.02c5.09,9.82,11.73,16.74,19.92,20.73,8.19,4,15.73,6.73,22.64,8.19,6.91,1.45,10.91,3.09,12,4.91-1.45-1.09-4.18-.36-8.19,2.18-4,2.54-8.28,5.82-12.82,9.82s-8.46,7.55-11.73,10.64-4.91,4.63-4.91,4.63c-17.83-14.91-27.37-28-28.65-39.29-1.27-11.28,2.64-18.55,11.73-21.82" vector-effect="none" fill="#fff"></path><path class="cls-31" d="M118.4,433.43h-6.55c.36-13.46.73-26.28,1.09-38.46s.82-22.28,1.36-30.28,1-12,1.36-12c0,0,.27,3.91.82,11.73s.91,17.92,1.09,30.28c.18,12.37.45,25.28.82,38.74M154.95,512s.09-3.82.27-11.46.36-17.37.55-29.19c.18-11.82.45-24.37.82-37.64.36-13.28.64-25.91.82-37.92s.45-21.73.82-29.19.55-11.18.55-11.18c.36,0,.64,3.73.82,11.18s.36,17.19.55,29.19.45,24.64.82,37.92.64,25.82.82,37.64.27,21.55.27,29.19v11.46h-7.1M243.89,352.68s.09,3.82.27,11.46c.18,7.64.45,17.46.82,29.47.36,12,.64,24.73.82,38.19s.36,26.19.55,38.19.27,21.82.27,29.47v11.46h-7.64s.09-3.73.27-11.18.45-17.19.82-29.19c.36-12,.64-24.82.82-38.46s.45-26.46.82-38.46c.36-12,.73-21.82,1.09-29.47.36-7.64.73-11.46,1.09-11.46M199.69,355.41c.36,0,.64,3.73.82,11.19.18,7.46.36,17.19.55,29.19s.45,24.64.82,37.92c.36,13.28.64,25.82.82,37.64s.27,21.46.27,28.92v11.18l-7.1.55s.09-3.82.27-11.46.36-17.37.55-29.19c.18-11.82.45-24.37.82-37.64.36-13.28.64-25.91.82-37.92s.45-21.73.82-29.19c.36-7.46.55-11.18.55-11.18" vector-effect="none" fill="#302c3b"></path><path class="cls-17" d="M246.62,510.91s3.73-.18,11.18-.55,16.73-1,27.82-1.91c11.09-.91,22.19-2.36,33.28-4.36,11.09-2,20.37-4.54,27.82-7.64,7.46-3.09,11.18-6.82,11.18-11.18,0-21.1-1.45-42.38-4.36-63.84-2.91-21.46-6.55-41.38-10.91-59.74-4.36-18.37-8.73-33.28-13.09-44.74-4.36-11.46-8.19-17.74-11.46-18.83s-7.37,3.27-12.28,13.09c-4.91,9.82-10,22.73-15.27,38.74-5.27,16-10.55,33.28-15.82,51.84-5.27,18.55-10,36.1-14.18,52.65s-7.55,30.1-10.09,40.65-3.82,15.82-3.82,15.82M39.83,298.12c1.45-.36,3.27,3.73,5.45,12.28,2.18,8.55,4.36,19.37,6.55,32.46,2.18,13.09,4.18,26.19,6,39.29,1.82,13.09,3.27,24.1,4.36,33.01s1.64,13.37,1.64,13.37l99.3-15.82,13.09,83.48c-56.02,10.55-99.39,13.73-130.13,9.55-30.74-4.18-46.1-11.91-46.1-23.19s.45-24.37,1.36-39.28c.91-14.91,2.27-30.37,4.09-46.38,1.82-16,4.27-31.1,7.37-45.29,3.09-14.18,6.91-26.1,11.46-35.74s9.73-15.55,15.55-17.74" vector-effect="none" fill="#484258"></path><path class="cls-31" d="M163.14,412.7c2.18,2.18,4.27,7.55,6.28,16.09,2,8.55,3.82,18.01,5.46,28.37,1.64,10.37,2.64,19.37,3,27s-.18,11.64-1.64,12c-2.91-1.82-5.54-6.82-7.91-15-2.36-8.19-4.27-17.28-5.73-27.28-1.45-10-2.18-18.92-2.18-26.73s.91-12.64,2.73-14.46" vector-effect="none" fill="#302c3b"></path><path class="cls-31" d="M59.47,433.98c10.55-4.36,21.82-7.91,33.83-10.64,12-2.73,23.28-4.91,33.83-6.55,10.55-1.64,19.19-2.73,25.91-3.27,6.73-.55,10.09-.82,10.09-.82,0,0-3.73.64-11.18,1.91s-16.74,3.09-27.82,5.46c-11.09,2.36-22.46,4.73-34.1,7.1-11.64,2.36-21.82,4.63-30.56,6.82M69.84,507.09c11.28-.36,23.1-1.18,35.46-2.45s23.91-2.54,34.65-3.82,19.46-2.36,26.19-3.27c6.73-.91,10.09-1.36,10.09-1.36,0,0-3.45.73-10.37,2.18s-15.73,3-26.46,4.63c-10.73,1.64-22.28,2.91-34.65,3.82-12.37.91-24.01,1-34.92.27" vector-effect="none" fill="#302c3b"></path><path class="cls-31" d="M55.65,292.12l17.46,56.74,108.58,7.1-109.67-2.73,12.55,73.66-9.82,3.27-16.37-28.37,20.19,25.64-9.28-76.93-13.64-58.38" vector-effect="none" fill="#302c3b"></path><path class="cls-31" d="M288.63,350.5l10.37,156.59h-3.82l-9.28-153.86-109.67,2.73,108.58-7.1,17.46-56.74-13.64,58.38" vector-effect="none" fill="#302c3b"></path><path class="cls-1" d="M84.07,136.57c1.49,5.21,3.72,12.28,6.7,21.2s4.09,17.11,3.35,24.55c0,4.47-2.61,7.63-7.82,9.49-5.21,1.86-8.93-2.05-11.16-11.72-1.49-3.72-3.91-9.12-7.26-16.18s-4.65-15.81-3.91-26.23c.74-10.42,3.91-13.76,9.49-10.05s9.12,6.7,10.6,8.93" vector-effect="none" fill="#ebc199"></path><path class="cls-16" d="M70.68,134.31c2.98,1.49,4.65,3.54,5.02,6.14s2.04,6.14,5.02,10.6c2.97,3.72,3.16,6.88.55,9.49-2.61,2.6-2.42,5.76.55,9.49,4.46,4.47,4.65,5.58.56,3.35s-7.25-5.58-9.48-10.05c-2.23-5.21-3.9-11.72-5.01-19.52-1.11-7.81-.18-10.97,2.79-9.49" vector-effect="none" fill="url(#1776867898421-4013606_radial-gradient)"></path><path d="M70.68,134.31c2.98,1.49,4.65,3.54,5.02,6.14s2.04,6.14,5.02,10.6c2.97,3.72,3.16,6.88.55,9.49-2.61,2.6-2.42,5.76.55,9.49,4.46,4.47,4.65,5.58.56,3.35s-7.25-5.58-9.48-10.05c-2.23-5.21-3.9-11.72-5.01-19.52-1.11-7.81-.18-10.97,2.79-9.49" vector-effect="none"></path><path class="cls-1" d="M293.89,137.68c.74,10.42-.56,19.16-3.91,26.23-3.35,7.07-5.77,12.46-7.26,16.18-2.23,9.68-5.95,13.58-11.16,11.72-5.21-1.86-7.82-5.02-7.81-9.49-.74-7.44.37-15.62,3.35-24.55,2.98-8.93,5.21-15.99,6.7-21.2,1.49-2.23,5.03-5.21,10.6-8.93,5.58-3.72,8.75-.37,9.49,10.05" vector-effect="none" fill="#ebc199"></path><path class="cls-5" d="M284.97,163.31c-2.23,4.46-5.2,7.81-8.92,10.04s-3.72,1.12,0-3.34c2.97-3.72,3.16-6.88.56-9.48s-2.42-5.76.56-9.48c2.97-4.46,4.65-7.99,5.02-10.59.37-2.6,2.42-4.65,6.13-6.13,2.23-1.49,2.79,1.67,1.67,9.48-1.11,7.81-2.79,14.31-5.02,19.51" vector-effect="none" fill="url(#1776867898421-4013606_radial-gradient-2)"></path><path d="M284.97,163.31c-2.23,4.46-5.2,7.81-8.92,10.04s-3.72,1.12,0-3.34c2.97-3.72,3.16-6.88.56-9.48s-2.42-5.76.56-9.48c2.97-4.46,4.65-7.99,5.02-10.59.37-2.6,2.42-4.65,6.13-6.13,2.23-1.49,2.79,1.67,1.67,9.48-1.11,7.81-2.79,14.31-5.02,19.51" vector-effect="none"></path><path class="cls-1" d="M178.95,19.5c17.04,0,31.86,3.33,44.48,10s22.99,15.9,31.09,27.7c8.11,11.8,13.95,25.55,17.55,41.25,3.59,15.7,4.87,32.68,3.84,50.95-.41,7.39-1.49,16.37-3.23,26.93-1.75,10.57-3.84,20.37-6.31,29.4-2.67,9.44-7.34,18.57-14.01,27.4-6.67,8.82-14.32,16.73-22.94,23.71-8.62,6.98-17.39,12.46-26.32,16.47-8.93,4-16.98,6-24.17,6s-15.24-2-24.17-6c-8.93-4-17.7-9.49-26.32-16.47-8.62-6.98-16.27-14.88-22.94-23.71-6.67-8.82-11.34-17.96-14.01-27.4-2.46-9.03-4.56-18.83-6.31-29.4-1.75-10.57-2.82-19.55-3.23-26.93-1.03-18.27.26-35.25,3.85-50.95,3.59-15.7,9.44-29.45,17.55-41.25,8.11-11.8,18.47-21.03,31.09-27.7,12.62-6.67,27.45-10,44.48-10" vector-effect="none" fill="#ebc199"></path><path class="cls-28" d="M178.9,218.37c4.1-1.85,7.44-2.92,10-3.23s5.08-.15,7.54.46,5.54,1.34,9.23,2.15c3.69.82,8.72,1.43,15.08,1.85-2.66,3.08-5.38,6.52-8.16,10.31-2.77,3.8-6.67,7.13-11.7,10s-12.36,4.31-22,4.31c-8.41,0-15.08-1.28-20-3.84s-8.98-5.75-12.16-9.54-6.41-7.54-9.7-11.23c6.36-.41,11.39-1.03,15.08-1.85s6.77-1.54,9.23-2.15c2.46-.62,4.98-.77,7.54-.46,2.57.31,5.9,1.38,10,3.23" vector-effect="none" fill="#da803d"></path><path class="cls-23" d="M144.73,222.38c12.72,1.43,24.1,2.15,34.16,2.15s21.44-.72,34.16-2.15c-5.33,5.75-12.36,9.54-21.08,11.39s-17.39,1.85-26.01,0c-8.61-1.85-15.69-5.64-21.23-11.39" vector-effect="none" fill="#fff"></path><path class="cls-30" d="M254.32,125.17c1.09,1.09,1.27,2,.55,2.73s-1.64.55-2.73-.55c-8-5.09-15.91-8-23.73-8.73-7.82-.73-14.64-.55-20.46.55-2.91.36-4.45-1-4.63-4.09-.18-3.09,1.54-5,5.19-5.73,7.28-1.09,15.46-.18,24.55,2.73,9.09,2.91,16.18,7.28,21.28,13.09M103.73,125.17c-1.09,1.09-1.36,2-.82,2.73s1.54.55,3-.55c8-5.09,15.91-8,23.73-8.73,7.82-.73,14.64-.55,20.46.55,2.91.36,4.36-1,4.36-4.09s-1.82-5-5.46-5.73c-6.91-1.09-14.91-.18-24.01,2.73-9.09,2.91-16.18,7.28-21.28,13.09" vector-effect="none" fill="#8b612d"></path><path class="cls-25" d="M249.68,148.19c-1.44,5.54-4.41,9.14-8.93,10.77-4.52,1.64-9.6,2.26-15.24,1.85-5.64-.41-10.93-.97-15.85-1.69-4.93-.72-8.42-.57-10.46.46,0-9.23,2.26-16.32,6.77-21.24,4.52-4.93,9.95-7.85,16.32-8.77s12.16.15,17.39,3.23c5.24,3.08,8.57,8.21,10,15.39" vector-effect="none" fill="#edebea"></path><path class="cls-13" d="M222.55,131.86c4.02,0,7.45,1.41,10.26,4.22,2.82,2.82,4.22,6.24,4.22,10.26s-1.41,7.45-4.22,10.26c-2.82,2.82-6.24,4.22-10.26,4.22s-7.45-1.41-10.26-4.22c-2.82-2.82-4.22-6.24-4.22-10.26s1.41-7.45,4.22-10.26c2.82-2.82,6.24-4.22,10.26-4.22" vector-effect="none" fill="url(#1776867898421-4013606_linear-gradient-2)"></path><path class="cls-15" d="M214.35,146.1c0-2.68.84-4.7,2.52-6.04s3.59-2.01,5.74-2.01,4.06.67,5.74,2.01,2.52,3.36,2.52,6.04c0,2.82-.84,4.94-2.52,6.34-1.68,1.41-3.59,2.11-5.74,2.11s-4.06-.71-5.74-2.11c-1.68-1.41-2.52-3.52-2.52-6.34" vector-effect="none" fill="#1a1626"></path><path class="cls-25" d="M213.49,142.13c0-2.23.93-3.35,2.79-3.35s2.79,1.12,2.79,3.35-.93,3.35-2.79,3.35-2.79-1.12-2.79-3.35" vector-effect="none" fill="#edebea"></path><path class="cls-30" d="M250.97,143.91s.5.5,1.49,1.49,2.08,1.29,3.27.89c-1.19,1.99-3.17,2.58-5.95,1.79-2.78-6.35-7.34-10.81-13.69-13.39-6.35-2.58-13-2.78-19.94-.59-6.94,2.18-12.2,7.05-15.76,14.58,2.78-9.52,7.04-15.77,12.79-18.75,5.75-2.98,11.6-3.67,17.55-2.09,5.95,1.59,10.32,3.96,13.09,7.14.8.79,1.89,1.78,3.27,2.98,1.39,1.19,3.47,1.39,6.25.59-.4,1.19-1.19,1.79-2.38,1.79h-1.78s.4.4,1.19,1.19c.8.79,2.38.99,4.76.59-.4.79-1.19,1.29-2.38,1.49-1.19.2-1.78.3-1.78.3" vector-effect="none" fill="#8b612d"></path><path class="cls-25" d="M108.22,148.25c1.23-7.18,4.52-12.31,9.85-15.39,5.33-3.08,11.18-4.15,17.54-3.23,6.36.92,11.79,3.84,16.31,8.77,4.52,4.92,6.77,12,6.77,21.23-2.26-1.03-5.8-1.18-10.62-.46-4.82.72-10.05,1.28-15.69,1.69s-10.72-.2-15.23-1.85c-4.52-1.64-7.49-5.23-8.93-10.77" vector-effect="none" fill="#edebea"></path><path class="cls-12" d="M135.36,131.86c-4.02,0-7.45,1.41-10.26,4.22-2.82,2.82-4.22,6.24-4.22,10.26s1.41,7.45,4.22,10.26c2.82,2.82,6.24,4.22,10.26,4.22s7.45-1.41,10.26-4.22c2.82-2.82,4.22-6.24,4.22-10.26s-1.41-7.45-4.22-10.26c-2.82-2.82-6.24-4.22-10.26-4.22" vector-effect="none" fill="url(#1776867898421-4013606_linear-gradient-3)"></path><path class="cls-15" d="M143.61,146.1c0,2.82-.84,4.94-2.52,6.34-1.68,1.41-3.59,2.11-5.74,2.11s-4.06-.71-5.74-2.11c-1.68-1.41-2.52-3.52-2.52-6.34s.84-4.7,2.52-6.04c1.68-1.34,3.59-2.01,5.74-2.01s4.06.67,5.74,2.01c1.68,1.34,2.52,3.36,2.52,6.04" vector-effect="none" fill="#1a1626"></path><path class="cls-25" d="M144.31,142.13c0,2.23-.93,3.35-2.79,3.35s-2.79-1.12-2.79-3.35.93-3.35,2.79-3.35,2.79,1.12,2.79,3.35" vector-effect="none" fill="#edebea"></path><path class="cls-30" d="M106.91,143.91s-.59-.1-1.78-.3c-1.19-.2-1.99-.69-2.38-1.49,2.38.4,3.97.2,4.76-.59l1.19-1.19h-1.78c-1.19,0-1.99-.59-2.38-1.79,2.78.8,4.86.59,6.25-.59,1.39-1.19,2.48-2.18,3.28-2.98,2.78-3.17,7.14-5.56,13.1-7.14s11.81-.89,17.56,2.08,10.02,9.23,12.79,18.76c-3.57-7.54-8.82-12.41-15.76-14.59s-13.59-1.99-19.94.6c-6.35,2.58-10.92,7.05-13.7,13.4-2.78.8-4.76.2-5.95-1.79,1.19.4,2.28.1,3.27-.89l1.49-1.49" vector-effect="none" fill="#8b612d"></path><path class="cls-24" d="M192.6,193.37c1.45,0,2.27.55,2.45,1.64s-.45,2.18-1.91,3.27c-1.45.73-3.64,1.82-6.55,3.27s-5.45,2.18-7.64,2.18-4.73-.73-7.64-2.18c-2.91-1.45-5.09-2.54-6.55-3.27-1.45-1.09-2.09-2.18-1.91-3.27.18-1.09,1-1.64,2.45-1.64,1.82,0,3.82.36,6,1.09,2.18.73,4.73,1.09,7.64,1.09s5.46-.36,7.64-1.09,4.18-1.09,6-1.09" vector-effect="none" fill="#c99b71"></path><path class="cls-19" d="M211.97,12.48c14.93-2.64,28.4-.17,40.38,7.39,11.99,7.56,22.26,18.78,30.8,33.65,8.54,14.88,15.29,31.85,20.23,50.91,4.94,19.06,7.71,38.71,8.32,58.93.61,20.22-1.2,39.69-5.4,58.39-4.2,18.7-10.91,34.99-20.11,48.84-9.2,13.86-21.15,23.87-35.86,30.01,6.98-5.18,12.38-14.32,16.18-27.43,3.81-13.11,6.03-28.5,6.66-46.18.64-17.68-.43-36.04-3.2-55.1-2.77-19.06-7.31-37-13.64-53.85-6.33-16.85-14.56-31.09-24.7-42.72-10.14-11.63-22.39-18.95-36.74-21.94-5.45,4.91-11.91,11.37-19.38,19.41-7.47,8.03-16.72,15.97-27.77,23.85-11.05,7.87-24.86,14.06-41.43,18.56-10.02,14.79-17.19,31.26-21.5,49.39-4.31,18.13-6.24,36.23-5.82,54.32.43,18.08,3.01,34.41,7.75,48.97,4.74,14.56,11.49,25.41,20.24,32.55-21.01-11.69-36.38-26.65-46.1-44.87-9.72-18.22-15.15-37.79-16.27-58.71-1.13-20.92.92-41.81,6.12-62.66,5.21-20.85,12.51-40.4,21.93-58.64,9.42-18.24,19.66-33.47,30.73-45.68,11.07-12.22,21.64-20,31.71-23.36C156.09.03,173.76-1.61,188.14,1.58c14.38,3.19,22.32,6.82,23.83,10.9" vector-effect="none" fill="#e6c465"></path><path class="cls-21" d="M250.49,300.85c5.82-5.09,10.46-14.18,13.91-27.28,3.45-13.09,5.45-28.37,6-45.83.55-17.46-.45-35.55-3-54.29-2.54-18.73-6.91-36.55-13.09-53.47-6.18-16.92-14.09-31.37-23.73-43.38-9.64-12-21.37-19.64-35.19-22.92,0,0,.73-.73,2.18-2.18s3.73-2.36,6.82-2.73c3.09-.36,7,1.27,11.73,4.91,11.64,6.91,21.55,17.19,29.74,30.83,8.19,13.64,14.73,29.1,19.64,46.38,4.91,17.28,8.28,35.01,10.09,53.2,1.82,18.19,2,35.46.55,51.84-1.45,16.37-4.27,30.28-8.46,41.74-4.18,11.46-9.91,19.19-17.19,23.19" vector-effect="none" fill="#c19b2c"></path><path class="cls-4" d="M315.91,193.37c0,15.27-2.36,30.74-7.1,46.38-4.73,15.64-12,29.1-21.82,40.38s-22.01,18.19-36.55,20.73c8.73-4.36,15.91-12.55,21.55-24.55,5.63-12,9.55-26.1,11.73-42.29,2.18-16.18,2.82-33.46,1.91-51.84s-3.45-36.28-7.64-53.74c-4.19-17.46-10.09-33.19-17.74-47.19-7.64-14-16.74-24.82-27.28-32.46,12.73,3.64,24.82,10.91,36.28,21.82,11.46,10.91,21.92,28.74,31.37,53.47-7.28-31.28-17.74-54.02-31.37-68.2-13.64-14.18-28.1-22.37-43.38-24.55-.36-.36-.55-.73-.55-1.09-1.09-7.28,2.82-10.37,11.73-9.28s19.01,5.64,30.28,13.64c-6.55-8-15.18-13.82-25.91-17.46-10.73-3.64-20.46-5.09-29.19-4.36,12.73-4,25.28-2.54,37.64,4.36,12.37,6.91,23.55,18.55,33.55,34.92,10,16.37,17.92,36.55,23.73,60.56,5.82,24.01,8.73,50.93,8.73,80.75M86.21,76.06c7.64-9.46,18.01-18.19,31.1-26.19,13.09-8,26.46-14.46,40.11-19.37,13.64-4.91,25.37-7.82,35.19-8.73,9.82-.91,15.09.82,15.82,5.18.36,2.18-.09,4.27-1.36,6.28-1.27,2-2.45,3.18-3.54,3.54-8,2.18-15.37,6.55-22.1,13.09-6.73,6.55-14.09,14-22.1,22.37s-18.01,16.18-30.01,23.46c-12,7.28-27.1,12.73-45.29,16.37l4.91,1.09c-10.55,16-17.37,33.74-20.46,53.2s-3.27,38.55-.55,57.29c2.73,18.73,7.55,35.01,14.46,48.83,6.91,13.82,15.09,23.28,24.55,28.37-15.27-2.91-27.64-9.82-37.1-20.73-9.46-10.91-16.46-24.1-21.01-39.56-4.54-15.46-6.82-31.19-6.82-47.19,0-28.37,3.45-55.56,10.37-81.57,6.91-26.01,17.28-48.38,31.1-67.11,13.82-18.73,31.1-31.37,51.84-37.92,9.82-3.27,19.64-5.09,29.47-5.45,9.82-.36,18.01.18,24.55,1.64,6.55,1.45,9.82,3.45,9.82,6-1.09,2.54-5.36,4.91-12.82,7.1-7.46,2.18-16.83,5.36-28.1,9.55-11.28,4.18-23.28,10.28-36.01,18.28-12.73,8-24.73,18.73-36.01,32.19M62.2,253.38c-5.09-27.28-6.73-51.93-4.91-73.93,1.82-22.01,5.63-41.2,11.46-57.56-6.91,9.09-11.91,21.55-15,37.37-3.09,15.82-3.91,32.28-2.45,49.37,1.45,17.1,5.09,32.01,10.91,44.74" vector-effect="none" fill="#f2d785"></path><path class="cls-20" d="M94.86,281.83c-8.31-13.54-13.37-28.83-15.2-45.89-1.82-17.05-1.53-33.88.87-50.49,2.4-16.61,5.92-31.35,10.56-44.21,4.64-12.86,9.24-22.06,13.79-27.6,13.99-1.28,25.96-5.56,35.93-12.85,9.97-7.28,18.86-15.07,26.68-23.36,7.82-8.28,15.62-14.99,23.4-20.11,7.78-5.12,16.26-6.32,25.42-3.59-8.38-.5-16.11,2.15-23.18,7.93-7.07,5.79-14.44,12.71-22.1,20.78-7.66,8.06-16.41,15.53-26.26,22.4-9.84,6.86-21.95,10.98-36.32,12.32-7.3,12.34-12.83,26.35-16.58,42.01-3.75,15.67-5.91,31.44-6.46,47.33s.03,30.4,1.75,43.52c1.72,13.12,4.28,23.73,7.68,31.81" vector-effect="none" fill="#c19c2c"></path><path class="cls-21" d="M107.04,300.42c-8.81-5.16-15.88-14.48-21.21-27.94-5.33-13.47-8.71-29.26-10.13-47.37s-.17-36.78,3.74-56.03c3.91-19.25,10.71-37.23,20.4-53.93,0,0,.73-.33,2.2-.98s3.29-.38,5.47.81c-4.8,6.38-9,15.6-12.59,27.68-3.59,12.09-6.35,25.6-8.25,40.54-1.91,14.95-2.61,29.97-2.12,45.08s2.46,29.08,5.91,41.89c3.45,12.81,8.97,22.89,16.58,30.24" vector-effect="none" fill="#c19b2c"></path><path class="cls-21" d="M216.18,53.97c-6.16-1.03-12.21.1-18.16,3.38-5.95,3.29-11.91,7.75-17.85,13.39-5.95,5.64-12.21,11.6-18.78,17.85s-13.7,11.8-21.39,16.62c-7.7,4.82-16.16,8.05-25.4,9.7-9.23,1.64-19.5.72-30.78-2.77,12.11,1.23,22.83.46,32.17-2.31s17.7-6.67,25.09-11.7,14.16-10.46,20.31-16.32c6.16-5.85,12-11.44,17.55-16.78,5.54-5.33,11.18-9.74,16.93-13.24,5.75-3.49,11.91-5.24,18.47-5.24,2.46-7.18,3.29-13.9,2.46-20.16-.82-6.26-2.36-10.83-4.62-13.7,4.72,3.9,7.54,8.67,8.47,14.32.92,5.64.77,11.03-.46,16.16-1.23,5.13-2.57,8.72-4,10.77" vector-effect="none" fill="#c19b2c"></path><path class="cls-2" d="M180.05,414.89s.55,2.82,1.64,8.46c1.09,5.64,2.27,12.46,3.54,20.46s2.18,15.55,2.73,22.64.27,12.09-.82,15c-7.64-10.55-12.37-19.92-14.18-28.1-1.82-8.19-2.09-15.09-.82-20.73,1.27-5.63,2.91-10,4.91-13.09,2-3.09,3-4.63,3-4.63" vector-effect="none" fill="#b3c2c6"></path><path class="cls-11" d="M272.26,382.15s-.82,1.91-2.45,5.73c-1.64,3.82-3.45,8-5.46,12.55-2,4.54-3.36,7.73-4.09,9.55-.73,2.54-2,7.19-3.82,13.91-1.82,6.72-3.73,14.18-5.73,22.37-2,8.19-3.91,16.09-5.73,23.73-1.82,7.64-3.09,13.46-3.82,17.46-.36,2.18-1.64,3.82-3.82,4.91-1.82,1.09-3.64,1.45-5.45,1.09l-4.91-1.09c-2.18-.73-3.82-2-4.91-3.82-1.09-2.18-1.27-4.36-.55-6.55,1.45-3.64,3.36-9.09,5.73-16.37,2.36-7.28,4.82-14.91,7.37-22.92,2.54-8,4.82-15.37,6.82-22.1,2-6.73,3.36-11.73,4.09-15,.36-1.82.82-5.09,1.36-9.82.55-4.73,1.09-9.19,1.64-13.37s.82-6.28.82-6.28l22.92,6" vector-effect="none" fill="url(#1776867898421-4013606_linear-gradient-4)"></path><path class="cls-29" d="M271.17,385.42l-23.46-6c-.73-.36-1.45-.91-2.18-1.64-.36-.73-.36-1.45,0-2.18v-.55c.36-1.82,1.64-2.54,3.82-2.18l23.46,6.55c1.09.36,1.82.91,2.18,1.64s.36,1.45,0,2.18c-.36,2.18-1.64,2.91-3.82,2.18" vector-effect="none" fill="#743400"></path><path class="cls-8" d="M244.98,371.78l15.82-58.38,33.28,9.28-15.82,58.38-33.28-9.28" vector-effect="none" fill="url(#1776867898421-4013606_linear-gradient-5)"></path><path class="cls-9" d="M308.82,386.51l-19.1-4.91c-1.45-.36-2.73-1.27-3.82-2.73-1.09-1.82-1.27-3.64-.55-5.45l12-44.19c1.09-4.36,3.82-6,8.19-4.91l18.55,4.91c4.36,1.09,6,3.82,4.91,8.19l-12,44.74c-1.45,4-4.18,5.45-8.19,4.36" vector-effect="none" fill="url(#1776867898421-4013606_linear-gradient-6)"></path><path class="cls-7" d="M279.9,383.24h-.55c-.73-.36-1.27-.91-1.64-1.64s-.55-1.64-.55-2.73l15.27-55.65c.36-2.18,1.64-2.91,3.82-2.18,1.09,0,1.82.55,2.18,1.64.36.73.36,1.45,0,2.18l-14.73,56.2c-.36.73-.91,1.27-1.64,1.64s-1.45.55-2.18.55" vector-effect="none" fill="url(#1776867898421-4013606_linear-gradient-7)"></path><path class="cls-6" d="M301.72,390.33l-7.1-2.18c-4.36-1.09-5.82-3.82-4.36-8.19l15.27-54.56c1.09-4,3.82-5.45,8.19-4.36l7.1,1.64c4.36,1.09,6,3.82,4.91,8.19l-15.27,54.56c-1.45,4.36-4.36,6-8.73,4.91" vector-effect="none" fill="url(#1776867898421-4013606_linear-gradient-8)"></path><path class="cls-10" d="M215.51,361.96c-1.82-.36-3.27-1.27-4.36-2.73-.73-1.45-.91-3.09-.55-4.91l12-44.74c1.45-4.36,4.18-5.82,8.19-4.36l19.1,4.91c1.82.36,3.09,1.27,3.82,2.73,1.09,1.45,1.27,3.09.55,4.91l-12,44.74c-1.09,4.36-3.82,5.82-8.19,4.36l-18.55-4.91" vector-effect="none" fill="url(#1776867898421-4013606_linear-gradient-9)"></path><path class="cls-26" d="M241.71,372.33c-.73-.36-1.45-.91-2.18-1.64-.36-.73-.36-1.45,0-2.18l14.73-54.56c.73-1.82,2.18-2.54,4.36-2.18.73.36,1.27.91,1.64,1.64.73.73.91,1.45.55,2.18l-15.27,54.56c-.36,2.18-1.64,2.91-3.82,2.18" vector-effect="none" fill="url(#1776867898421-4013606_linear-gradient-10)"></path><path class="cls-27" d="M219.34,368.51c-4.36-1.09-6-3.64-4.91-7.64l15.27-54.56c1.09-4.36,3.82-6,8.19-4.91l7.1,1.64c4.36,1.09,6,3.82,4.91,8.19l-15.27,54.56c-1.09,4.36-3.82,6-8.19,4.91l-7.1-2.18" vector-effect="none" fill="url(#1776867898421-4013606_linear-gradient-11)"></path><path class="cls-1" d="M262.99,429.62c2.91.36,4.36,2,4.36,4.91s-.82,5.82-2.45,8.73-3.91,4.36-6.82,4.36c2.91.36,4.54,1.91,4.91,4.63s-.18,5.36-1.64,7.91c-1.45,2.54-3.64,3.82-6.55,3.82,3.64.36,4.63,2.73,3,7.1-1.64,4.36-3.91,6.73-6.82,7.1-2.18.36-7.64.36-16.37,0-8.73-.36-18.92-3.64-30.56-9.82,0,0-2.18.27-6.55.82-4.36.55-8.73,1.09-13.09,1.64-4.36.55-6.55.82-6.55.82,0,0-.64-2.45-1.91-7.37-1.27-4.91-2.18-11.37-2.73-19.37s.45-16.18,3-24.55c6.19-.73,13-2.91,20.46-6.55,7.46-3.64,14.82-7.46,22.1-11.46,7.28-4,13.46-6.73,18.55-8.19,5.09-1.45,8.19-.18,9.28,3.82,1.82,6.55,4.09,10,6.82,10.37,2.73.36,6.46,1.45,11.18,3.27,3.64,1.45,5.36,4.82,5.18,10.09-.18,5.27-2.45,7.91-6.82,7.91" vector-effect="none" fill="#ebc199"></path><path class="cls-23" d="M163.69,416.52c4.73-.36,8.64-.73,11.73-1.09s4.63-.55,4.63-.55c0,0-.45,2.73-1.36,8.19s-1,13.09-.27,22.92c.73,9.82,3.64,21.64,8.73,35.46,0,0-1.64.27-4.91.82-3.27.55-6.73,1.36-10.37,2.45-6.91-22.55-10-39.56-9.28-51.02.73-11.46,1.09-17.19,1.09-17.19" vector-effect="none" fill="#fff"></path></g></svg>