<svg xmlns="http://www.w3.org/2000/svg" style="" viewBox="0 0 390.71 512"><g class="nc-icon-wrapper"><defs><linearGradient id="1776131386812-8462455_linear-gradient" x1="157.83" y1="530.92" x2="202.41" y2="530.92" gradientTransform="translate(0 -102)" gradientUnits="userSpaceOnUse"><stop offset="0" stop-color="#211c1a" stop-opacity=".05"></stop><stop offset="1" stop-color="#211c1a" stop-opacity=".3"></stop></linearGradient><linearGradient id="1776131386812-8462455_linear-gradient-2" x1="159.88" y1="542.51" x2="200.87" y2="542.51" gradientTransform="translate(0 -102)" gradientUnits="userSpaceOnUse"><stop offset="0" stop-color="#2e353b"></stop><stop offset="1" stop-color="#181b1f"></stop></linearGradient><linearGradient id="1776131386812-8462455_linear-gradient-3" x1="161.42" y1="461.79" x2="198.82" y2="461.79" gradientTransform="translate(0 -102)" gradientUnits="userSpaceOnUse"><stop offset="0" stop-color="#2e353b"></stop><stop offset=".43" stop-color="#2c3238"></stop><stop offset=".73" stop-color="#252a2f"></stop><stop offset=".99" stop-color="#191c20"></stop><stop offset="1" stop-color="#181b1f"></stop></linearGradient><linearGradient id="1776131386812-8462455_linear-gradient-4" x1="216.76" y1="475.13" x2="216.76" y2="412.61" gradientTransform="translate(0 -102)" gradientUnits="userSpaceOnUse"><stop offset="0" stop-color="#211c1a" stop-opacity=".05"></stop><stop offset="1" stop-color="#211c1a" stop-opacity=".3"></stop></linearGradient><linearGradient id="1776131386812-8462455_linear-gradient-5" x1="143.59" y1="475.13" x2="143.59" y2="412.61" gradientTransform="translate(0 -102)" gradientUnits="userSpaceOnUse"><stop offset="0" stop-color="#211c1a" stop-opacity=".05"></stop><stop offset="1" stop-color="#211c1a" stop-opacity=".3"></stop></linearGradient><linearGradient id="1776131386812-8462455_linear-gradient-6" x1="362.43" y1="514.91" x2="245.88" y2="582.16" gradientTransform="translate(0 -102)" gradientUnits="userSpaceOnUse"><stop offset="0" stop-color="#645c50"></stop><stop offset=".54" stop-color="#8e846d"></stop><stop offset="1" stop-color="#b4a988"></stop></linearGradient><linearGradient id="1776131386812-8462455_linear-gradient-7" x1="-2.02" y1="514.91" x2="114.52" y2="582.16" gradientTransform="translate(0 -102)" gradientUnits="userSpaceOnUse"><stop offset="0" stop-color="#645c50"></stop><stop offset=".54" stop-color="#8e846d"></stop><stop offset="1" stop-color="#b4a988"></stop></linearGradient><linearGradient id="1776131386812-8462455_linear-gradient-8" x1="105.05" y1="424.4" x2="105.05" y2="665.24" gradientTransform="translate(0 -102)" gradientUnits="userSpaceOnUse"><stop offset="0" stop-color="#645c50"></stop><stop offset=".33" stop-color="#7f7663"></stop><stop offset="1" stop-color="#b4a988"></stop></linearGradient><linearGradient id="1776131386812-8462455_linear-gradient-9" x1="110.68" y1="613.99" x2="110.68" y2="377.25" gradientTransform="translate(0 -102)" gradientUnits="userSpaceOnUse"><stop offset=".47" stop-color="#b4a988"></stop><stop offset=".57" stop-color="#b3a887"></stop><stop offset=".68" stop-color="#a2987b"></stop><stop offset=".91" stop-color="#766d5c"></stop><stop offset="1" stop-color="#645c50"></stop></linearGradient><linearGradient id="1776131386812-8462455_linear-gradient-10" x1="255.38" y1="424.4" x2="255.38" y2="665.24" gradientTransform="translate(0 -102)" gradientUnits="userSpaceOnUse"><stop offset="0" stop-color="#645c50"></stop><stop offset=".33" stop-color="#7f7663"></stop><stop offset="1" stop-color="#b4a988"></stop></linearGradient><linearGradient id="1776131386812-8462455_linear-gradient-11" x1="249.73" y1="614" x2="249.73" y2="377.25" gradientTransform="translate(0 -102)" gradientUnits="userSpaceOnUse"><stop offset=".47" stop-color="#b4a988"></stop><stop offset=".57" stop-color="#b3a887"></stop><stop offset=".68" stop-color="#a2987b"></stop><stop offset=".91" stop-color="#766d5c"></stop><stop offset="1" stop-color="#645c50"></stop></linearGradient><linearGradient id="1776131386812-8462455_linear-gradient-12" x1="310.79" y1="442.55" x2="310.79" y2="434.15" gradientTransform="translate(0 -102)" gradientUnits="userSpaceOnUse"><stop offset="0" stop-color="#737e80"></stop><stop offset=".21" stop-color="#95a2a5"></stop><stop offset=".39" stop-color="#abb9bd"></stop><stop offset=".5" stop-color="#b3c2c6"></stop><stop offset=".61" stop-color="#abb9bd"></stop><stop offset=".79" stop-color="#95a2a5"></stop><stop offset="1" stop-color="#737e80"></stop></linearGradient><linearGradient id="1776131386812-8462455_linear-gradient-13" x1="318.26" y1="575.38" x2="300.33" y2="570.77" gradientTransform="translate(0 -102)" gradientUnits="userSpaceOnUse"><stop offset="0" stop-color="#737e80"></stop><stop offset=".21" stop-color="#95a2a5"></stop><stop offset=".39" stop-color="#abb9bd"></stop><stop offset=".5" stop-color="#b3c2c6"></stop><stop offset=".61" stop-color="#abb9bd"></stop><stop offset=".79" stop-color="#95a2a5"></stop><stop offset="1" stop-color="#737e80"></stop></linearGradient><linearGradient id="1776131386812-8462455_linear-gradient-14" x1="294.13" y1="575.13" x2="320.26" y2="582.3" gradientTransform="translate(0 -102)" gradientUnits="userSpaceOnUse"><stop offset="0" stop-color="#1a1626"></stop><stop offset=".1" stop-color="#2e2b38"></stop><stop offset=".24" stop-color="#423f4a"></stop><stop offset=".37" stop-color="#4e4c55"></stop><stop offset=".5" stop-color="#525059"></stop><stop offset=".63" stop-color="#4e4c55"></stop><stop offset=".76" stop-color="#423f4a"></stop><stop offset=".9" stop-color="#2e2b38"></stop><stop offset="1" stop-color="#1a1626"></stop></linearGradient><linearGradient id="1776131386812-8462455_linear-gradient-15" x1="289" y1="594.07" x2="315.13" y2="601.24" gradientTransform="translate(0 -102)" gradientUnits="userSpaceOnUse"><stop offset="0" stop-color="#302c3b"></stop><stop offset=".19" stop-color="#4a4754"></stop><stop offset=".4" stop-color="#625f6b"></stop><stop offset=".53" stop-color="#6b6873"></stop><stop offset=".65" stop-color="#625f6b"></stop><stop offset=".83" stop-color="#4a4754"></stop><stop offset="1" stop-color="#302c3b"></stop></linearGradient><linearGradient id="1776131386812-8462455_linear-gradient-16" x1="312.47" y1="559.14" x2="315.06" y2="548.77" gradientTransform="translate(0 -102)" gradientUnits="userSpaceOnUse"><stop offset="0" stop-color="#b3c2c6"></stop><stop offset=".18" stop-color="#9ca9ac"></stop><stop offset=".39" stop-color="#859194"></stop><stop offset=".59" stop-color="#788385"></stop><stop offset=".75" stop-color="#737e80"></stop></linearGradient><linearGradient id="1776131386812-8462455_linear-gradient-17" x1="310.25" y1="550.06" x2="344.58" y2="421.96" gradientTransform="translate(0 -102)" gradientUnits="userSpaceOnUse"><stop offset=".39" stop-color="#302c3b"></stop><stop offset="1" stop-color="#6b6873"></stop></linearGradient><linearGradient id="1776131386812-8462455_linear-gradient-18" x1="273.65" y1="471.52" x2="387.41" y2="502.26" gradientTransform="translate(0 -102)" gradientUnits="userSpaceOnUse"><stop offset="0" stop-color="#6b6873" stop-opacity=".5"></stop><stop offset="1" stop-color="#96949c" stop-opacity=".5"></stop></linearGradient><radialGradient id="1776131386812-8462455_radial-gradient" cx="-181.14" cy="-327.75" fx="-139.69" fy="-310.44" r="60.87" gradientTransform="translate(0 -102)" gradientUnits="userSpaceOnUse"><stop offset="0" stop-color="#cce7ff" stop-opacity=".95"></stop><stop offset=".86" stop-color="#cce7ff" stop-opacity=".74"></stop><stop offset="1" stop-color="#cce7ff" stop-opacity=".7"></stop></radialGradient><radialGradient id="1776131386812-8462455_radial-gradient-2" cx="185.12" cy="364.36" fx="185.12" fy="241.58" r="151.12" gradientTransform="translate(0 -102)" gradientUnits="userSpaceOnUse"><stop offset=".41" stop-color="#bf6000"></stop><stop offset=".63" stop-color="#c16200"></stop><stop offset=".74" stop-color="#c66a01"></stop><stop offset=".82" stop-color="#d07703"></stop><stop offset=".89" stop-color="#dd8906"></stop><stop offset=".96" stop-color="#eea10a"></stop><stop offset="1" stop-color="#ffb80d"></stop></radialGradient><linearGradient id="1776131386812-8462455_linear-gradient-19" x1="180.38" y1="326.52" x2="180.38" y2="261.44" gradientTransform="translate(0 -102)" gradientUnits="userSpaceOnUse"><stop offset=".1" stop-color="#2e353b"></stop><stop offset=".52" stop-color="#30373d"></stop><stop offset=".68" stop-color="#363e44"></stop><stop offset=".78" stop-color="#42494f"></stop><stop offset=".87" stop-color="#525a60"></stop><stop offset=".95" stop-color="#686f76"></stop><stop offset="1" stop-color="#7d858c"></stop></linearGradient><linearGradient id="1776131386812-8462455_linear-gradient-20" x1="180.12" y1="324.47" x2="180.12" y2="242.49" gradientTransform="translate(0 -102)" gradientUnits="userSpaceOnUse"><stop offset=".62" stop-color="#1c1c21" stop-opacity="0"></stop><stop offset=".86" stop-color="#1c1c21" stop-opacity=".6"></stop></linearGradient><linearGradient id="1776131386812-8462455_linear-gradient-21" x1="187.88" y1="331.73" x2="230.76" y2="259.08" gradientTransform="translate(0 -102)" gradientUnits="userSpaceOnUse"><stop offset="0" stop-color="#4e5e67" stop-opacity="0"></stop><stop offset=".13" stop-color="#54646d" stop-opacity=".09"></stop><stop offset=".3" stop-color="#66767f" stop-opacity=".21"></stop><stop offset=".51" stop-color="#83949d" stop-opacity=".36"></stop><stop offset=".74" stop-color="#abbcc6" stop-opacity=".52"></stop><stop offset=".98" stop-color="#def0fa" stop-opacity=".69"></stop><stop offset="1" stop-color="#e3f5ff" stop-opacity=".7"></stop></linearGradient><linearGradient id="1776131386812-8462455_linear-gradient-22" x1="88.33" y1="330.02" x2="128.1" y2="259.81" gradientTransform="translate(0 -102)" gradientUnits="userSpaceOnUse"><stop offset="0" stop-color="#4e5e67" stop-opacity="0"></stop><stop offset=".13" stop-color="#54646d" stop-opacity=".09"></stop><stop offset=".3" stop-color="#66767f" stop-opacity=".21"></stop><stop offset=".51" stop-color="#83949d" stop-opacity=".36"></stop><stop offset=".74" stop-color="#abbcc6" stop-opacity=".52"></stop><stop offset=".98" stop-color="#def0fa" stop-opacity=".69"></stop><stop offset="1" stop-color="#e3f5ff" stop-opacity=".7"></stop></linearGradient><linearGradient id="1776131386812-8462455_linear-gradient-23" x1="180.12" y1="262.98" x2="180.12" y2="200.98" gradientTransform="translate(0 -102)" gradientUnits="userSpaceOnUse"><stop offset="0" stop-color="#9fa2a6"></stop><stop offset=".16" stop-color="#9a9da1"></stop><stop offset=".36" stop-color="#8b8d92"></stop><stop offset=".59" stop-color="#727479"></stop><stop offset=".82" stop-color="#4f5056"></stop><stop offset=".85" stop-color="#4b4c52"></stop></linearGradient><radialGradient id="1776131386812-8462455_radial-gradient-3" cx="702.5" cy="523.88" fx="702.5" fy="523.88" r="111.77" gradientTransform="translate(0 -102)" gradientUnits="userSpaceOnUse"><stop offset="0" stop-color="#9fa2a6"></stop><stop offset=".18" stop-color="#989b9f"></stop><stop offset=".46" stop-color="#83868a"></stop><stop offset=".79" stop-color="#63646a"></stop><stop offset="1" stop-color="#4b4c52"></stop></radialGradient><radialGradient id="1776131386812-8462455_radial-gradient-4" cx="764.95" cy="282.51" fx="730.84" fy="282.51" r="48.8" gradientTransform="translate(0 -102)" gradientUnits="userSpaceOnUse"><stop offset="0" stop-color="#4b4c52"></stop><stop offset="1" stop-color="#4b4c52" stop-opacity="0"></stop></radialGradient><radialGradient id="1776131386812-8462455_radial-gradient-5" cx="-3.26" cy="532.8" fx="-37.37" fy="532.8" r="48.8" gradientTransform="translate(0 -102)" gradientUnits="userSpaceOnUse"><stop offset="0" stop-color="#4b4c52"></stop><stop offset="1" stop-color="#4b4c52" stop-opacity="0"></stop></radialGradient><linearGradient id="1776131386812-8462455_linear-gradient-24" x1="67.65" y1="213.79" x2="292.61" y2="213.79" gradientTransform="translate(0 -102)" gradientUnits="userSpaceOnUse"><stop offset="0" stop-color="#1a1626"></stop><stop offset=".02" stop-color="#1e1a29"></stop><stop offset=".19" stop-color="#312e3a"></stop><stop offset=".35" stop-color="#3d3b44"></stop><stop offset=".5" stop-color="#413f47"></stop><stop offset=".65" stop-color="#3d3b44"></stop><stop offset=".81" stop-color="#312e3a"></stop><stop offset=".98" stop-color="#1e1a29"></stop><stop offset="1" stop-color="#1a1626"></stop></linearGradient></defs><path class="cls-15" d="M243.92,319.83c4.1,5.81,6.57,14.52,7.43,26.13.86,11.62.34,24.68-1.54,39.2s-4.95,29.21-9.22,44.07-9.48,28.52-15.63,40.99c-6.14,12.47-12.98,22.55-20.5,30.23s-15.54,11.53-24.09,11.53-16.57-3.84-24.09-11.53-14.35-17.85-20.5-30.49c-6.15-12.64-11.36-26.3-15.63-40.99-6.41-22.03-7.43-29.3-9.48-43.81s-2.56-27.59-1.54-39.2c1.02-11.62,3.59-20.33,7.69-26.13,4.78-6.49,13.15-11.36,25.11-14.6,11.96-3.24,24.85-4.87,38.69-4.87s26.65,1.62,38.43,4.87c11.79,3.24,20.07,8.11,24.85,14.6" fill="#ededf7"></path><path class="cls-39" d="M119.4,270.13h121.45v39.46c-3.42,7.86-10.93,15.03-22.55,21.52-11.62,6.49-24.25,11.62-37.92,15.37-13.66-3.76-26.39-8.88-38.17-15.37s-19.39-13.66-22.8-21.52v-39.46Z" fill="#f0a429"></path><path class="cls-17" d="M194.21,374.15c.34,1.02,1.11,5.64,2.3,13.84,1.2,8.2,2.3,18.11,3.33,29.72,1.02,11.62,1.79,23.4,2.3,35.36.51,11.96.51,22.55,0,31.77s-1.79,15.2-3.84,17.94c-2.05,2.39-5.55,4.01-10.51,4.87s-9.99.86-15.12,0-8.71-2.48-10.76-4.87c-2.05-2.73-3.33-8.71-3.84-17.94-.51-9.22-.51-19.81,0-31.77s1.36-23.74,2.56-35.36c1.2-11.62,2.3-21.52,3.33-29.72s1.88-12.81,2.56-13.84c-1.36-1.71-2.56-4.53-3.59-8.45-1.54-5.89-1.79-7.6-2.3-11.02-.51-3.42-.77-5.13-.77-5.13h40.99l-1.02,5.13c-.68,3.42-1.54,7.09-2.56,11.02s-2.05,6.75-3.07,8.45" fill="url(#1776131386812-8462455_linear-gradient)"></path><path class="cls-13" d="M192.68,374.15c.34,1.02,1.11,5.64,2.3,13.84s2.3,18.19,3.33,29.98,1.71,23.74,2.05,35.87.08,22.89-.77,32.28c-.86,9.39-2.99,15.63-6.41,18.7l-12.81,7.17-13.32-7.17c-3.07-3.07-5.13-9.31-6.15-18.7s-1.36-20.15-1.02-32.28,1.02-24.09,2.05-35.87,2.14-21.78,3.33-29.98c1.2-8.2,2.14-12.81,2.82-13.84,1.02-2.39,3.33-3.93,6.92-4.61,3.59-.68,7.17-.68,10.76,0s5.89,2.22,6.92,4.61" fill="url(#1776131386812-8462455_linear-gradient-2)"></path><path class="cls-12" d="M180.38,346.48c6.83-3.42,11.62-3.76,14.35-1.02l4.1,4.1s-.26,1.71-.77,5.13c-.51,3.42-1.28,7.09-2.3,11.02s-2.05,6.75-3.07,8.45c-.68.68-2.9,1.2-6.66,1.54-3.76.34-7.51.34-11.27,0-3.76-.34-5.98-.86-6.66-1.54-1.36-1.71-2.56-4.53-3.59-8.45-1.02-3.93-1.79-7.6-2.3-11.02-.51-3.42-.77-5.13-.77-5.13,0,0,1.45-1.36,4.36-4.1s7.77-2.39,14.6,1.02" fill="url(#1776131386812-8462455_linear-gradient-3)"></path><path class="cls-11" d="M180.38,346.48s3.84-1.28,11.53-3.84,17.16-6.49,28.44-11.79c11.27-5.29,22.21-12.04,32.8-20.24-5.47,14.01-12.04,26.56-19.73,37.67-7.69,11.1-13.41,19.05-17.16,23.83-1.36,1.71-2.56,1.71-3.59,0-4.44-7.51-9.57-13.75-15.37-18.7s-11.44-7.26-16.91-6.92" fill="url(#1776131386812-8462455_linear-gradient-4)"></path><path class="cls-15" d="M253.14,309.08c.68,1.36-.43,4.61-3.33,9.73-2.9,5.13-6.66,11.02-11.27,17.68-4.61,6.66-8.88,12.9-12.81,18.7-3.93,5.81-6.75,9.91-8.45,12.3-1.02,1.02-1.88,1.02-2.56,0-5.47-6.15-10.85-11.62-16.14-16.4s-11.36-6.32-18.19-4.61c8.2-3.76,17-8.63,26.39-14.6,9.39-5.98,17.42-12.13,24.09-18.45,6.66-6.32,9.99-11.87,9.99-16.65,1.02-.34,3.16,1.28,6.41,4.87s5.21,6.07,5.89,7.43" fill="#ededf7"></path><path class="cls-21" d="M253.14,309.08c.68,1.36-.34,4.53-3.07,9.48s-6.23,10.76-10.51,17.42c-4.27,6.66-8.45,12.9-12.56,18.7-4.1,5.81-7.35,10.08-9.73,12.81-.68.68-1.54.34-2.56-1.02-2.73-3.76-5.38-7.35-7.94-10.76-2.56-3.42-5.38-6.49-8.45-9.22-1.02-1.02.51-3.24,4.61-6.66,4.1-3.42,9.22-7.51,15.37-12.3,6.15-4.78,11.53-9.82,16.14-15.12,4.61-5.29,6.75-10.51,6.41-15.63,1.02-.34,3.16,1.28,6.41,4.87s5.21,6.07,5.89,7.43" fill="#fafafa"></path><path class="cls-8" d="M179.98,346.48c-5.47-.34-11.1,1.96-16.91,6.92s-10.93,11.19-15.37,18.7c-1.02,1.71-2.22,1.71-3.59,0-3.76-4.78-9.48-12.72-17.16-23.83-7.69-11.1-14.26-23.65-19.73-37.67,10.59,8.2,21.52,14.94,32.8,20.24,11.27,5.29,20.75,9.22,28.44,11.79,7.69,2.56,11.53,3.84,11.53,3.84" fill="url(#1776131386812-8462455_linear-gradient-5)"></path><path class="cls-15" d="M107.1,309.08c.68-1.36,2.73-3.84,6.15-7.43s5.47-5.21,6.15-4.87c0,4.78,3.33,10.33,9.99,16.65s14.69,12.47,24.09,18.45c9.39,5.98,18.36,10.85,26.9,14.6-7.17-1.71-13.32-.17-18.45,4.61-5.13,4.78-10.42,10.25-15.88,16.4-1.02,1.02-2.05,1.02-3.07,0-1.36-2.39-4.1-6.49-8.2-12.3-4.1-5.81-8.37-12.04-12.81-18.7-4.44-6.66-8.2-12.56-11.27-17.68-3.07-5.13-4.27-8.37-3.59-9.73" fill="#ededf7"></path><path class="cls-21" d="M107.1,309.08c.68-1.36,2.73-3.84,6.15-7.43s5.47-5.21,6.15-4.87c0,5.13,2.3,10.33,6.92,15.63s9.91,10.33,15.88,15.12c5.98,4.78,11.1,8.88,15.37,12.3s5.89,5.64,4.87,6.66c-3.07,2.73-5.98,5.81-8.71,9.22-2.82,3.52-5.55,7.11-8.2,10.76-1.02,1.36-1.71,1.71-2.05,1.02-2.39-2.73-5.72-7.01-9.99-12.81-4.27-5.8-8.54-12.04-12.81-18.7-4.27-6.66-7.77-12.47-10.51-17.42s-3.76-8.11-3.07-9.48" fill="#fafafa"></path><path class="cls-9" d="M284.91,507.39s.17-3.33.51-9.99,1.11-15.37,2.31-26.13c1.2-10.76,2.82-22.29,4.87-34.59,2.05-12.3,4.7-24.09,7.94-35.36,3.24-11.27,7.35-20.75,12.3-28.44,4.95-7.69,10.85-12.38,17.68-14.09,1.71.68,3.59,5.04,5.64,13.07,2.05,8.03,4.01,17.94,5.89,29.72,1.88,11.79,3.67,23.74,5.38,35.87,1.71,12.13,3.07,22.97,4.1,32.54,1.02,9.57,1.54,15.88,1.54,18.96s-3.42,5.72-10.25,7.94c-6.83,2.22-14.78,4.1-23.83,5.64s-17,2.73-23.83,3.59-10.25,1.28-10.25,1.28" fill="url(#1776131386812-8462455_linear-gradient-6)"></path><path class="cls-7" d="M75.48,507.39s-3.42-.43-10.25-1.28-14.78-2.05-23.83-3.59c-9.05-1.54-17-3.42-23.83-5.64s-10.25-4.87-10.25-7.94.51-9.39,1.54-18.96,2.39-20.41,4.1-32.54c1.71-12.13,3.5-24.09,5.38-35.87,1.88-11.79,3.84-21.69,5.89-29.72,2.05-8.03,3.93-12.38,5.64-13.07,6.83,1.71,12.72,6.41,17.68,14.09s9.05,17.16,12.3,28.44c3.25,11.27,5.89,23.06,7.94,35.36,2.05,12.3,3.67,23.83,4.87,34.59s1.96,19.47,2.31,26.13c.34,6.66.51,9.99.51,9.99" fill="url(#1776131386812-8462455_linear-gradient-7)"></path><path class="cls-6" d="M180.38,511.99c-20.15,0-38.17-.34-54.06-1.02-15.88-.68-28.36-1.45-37.41-2.3-9.05-.86-13.58-1.28-13.58-1.28,0,0-.51-4.36-1.54-13.07s-2.65-19.81-4.87-33.31-5.13-27.33-8.71-41.51c-3.59-14.18-7.86-26.82-12.81-37.92s-10.85-18.71-17.68-22.8l81.47-36.89,69.18,190.11Z" fill="url(#1776131386812-8462455_linear-gradient-8)"></path><path class="cls-10" d="M128.62,275.25c0,18.79,1.54,39.11,4.61,60.98,3.07,21.87,8.37,46.97,15.88,75.32,7.51,28.36,17.94,61.83,31.26,100.44-10.59,0-20.59-.08-29.98-.26s-18.02-.43-25.88-.77c-9.57-25.96-19.47-49.02-29.72-69.18-10.25-20.15-18.79-36.21-25.62-48.17-6.83-11.96-10.25-18.79-10.25-20.5,0-.34,2.22-2.05,6.66-5.13,4.44-3.07,9.57-6.49,15.37-10.25,5.81-3.76,10.76-7.17,14.86-10.25,4.1-3.07,5.81-4.78,5.13-5.13-9.91-4.44-19.39-8.29-28.44-11.53s-16.57-5.81-22.55-7.69l-8.97-2.82c15.37-12.98,29.72-22.72,43.04-29.21,13.32-6.49,24.09-10.76,32.28-12.81,8.2-2.05,12.3-3.07,12.3-3.07" fill="url(#1776131386812-8462455_linear-gradient-9)"></path><path class="cls-22" d="M249.23,321.89l81.47,36.89c-6.83,4.1-12.72,11.7-17.68,22.8s-9.22,23.74-12.81,37.92c-3.59,14.18-6.49,28.02-8.71,41.51s-3.84,24.6-4.87,33.31c-1.02,8.71-1.54,13.07-1.54,13.07,0,0-4.53.43-13.58,1.28s-21.52,1.62-37.41,2.31c-15.88.68-33.91,1.02-54.06,1.02l69.18-190.11" fill="url(#1776131386812-8462455_linear-gradient-10)"></path><path class="cls-23" d="M231.79,275.25s4.1,1.02,12.3,3.07c8.2,2.05,18.96,6.32,32.28,12.81,13.32,6.49,27.67,16.22,43.04,29.21l-8.97,2.82c-5.98,1.88-13.5,4.44-22.55,7.69-9.05,3.24-18.53,7.09-28.44,11.53-.68.34,1.02,2.05,5.13,5.13,4.1,3.07,9.05,6.49,14.86,10.25,5.81,3.76,10.93,7.17,15.37,10.25,4.44,3.07,6.66,4.78,6.66,5.13,0,1.71-3.42,8.54-10.25,20.5-6.83,11.96-15.37,28.02-25.62,48.17-10.25,20.15-20.15,43.22-29.72,69.18-7.86.34-16.48.6-25.88.77-9.39.17-19.39.26-29.98.26,13.32-38.6,23.74-72.08,31.26-100.44,7.51-28.36,12.81-53.46,15.88-75.32,4.61-32.79,4.61-42.19,4.61-60.98" fill="url(#1776131386812-8462455_linear-gradient-11)"></path><path class="cls-24" d="M315.75,473.77l-14.71-3.89,4.81-18.19,14.71,3.89-4.81,18.19Z" fill="url(#1776131386812-8462455_linear-gradient-12)"></path><path class="cls-25" d="M300.29,466.9c.34-.68,2.05-.77,5.13-.26,3.07.51,6.07,1.28,8.97,2.3s4.19,1.88,3.84,2.56l-1.02,3.59c0,.68-1.54.77-4.61.26s-6.07-1.28-8.97-2.31-4.36-1.88-4.36-2.56l1.02-3.59" fill="url(#1776131386812-8462455_linear-gradient-13)"></path><path class="cls-27" d="M318.73,485.86l-26.13-7.17,1.02-1.79c.68-1.2,2.39-3.33,5.13-6.41.68-.68,2.56-.77,5.64-.26s5.98,1.28,8.71,2.3,4.27,2.05,4.61,3.07c.68,4.1,1.02,6.83,1.02,8.2v2.05" fill="url(#1776131386812-8462455_linear-gradient-14)"></path><path class="cls-32" d="M314.12,503.28c-7.17,1.71-13.84,2.82-19.99,3.33-6.15.51-9.22.77-9.22.77l7.69-28.18c.34-1.02,2.73-1.11,7.17-.26s8.79,1.96,13.07,3.33,6.23,2.56,5.89,3.59l-4.61,17.42" fill="url(#1776131386812-8462455_linear-gradient-15)"></path><path class="cls-33" d="M323.86,450.51s-.26.94-.77,2.82c-.51,1.88-.94,3.33-1.28,4.36,0,.68-1.54.68-4.61,0-3.07-.68-6.07-1.54-8.97-2.56s-4.36-1.88-4.36-2.56c.34-.68.77-1.96,1.28-3.84s.77-2.82.77-2.82c.34-.68,1.96-.77,4.87-.26,2.9.51,5.81,1.28,8.71,2.3s4.36,1.88,4.36,2.56" fill="url(#1776131386812-8462455_linear-gradient-16)"></path><path class="cls-38" d="M320.78,457.17h-1.02l2.05-7.17h1.02l-2.05,7.17ZM319,449.62l1.01.26-1.91,7.13-1.01-.26,1.91-7.13ZM315.61,456.57h-1.02l2.05-7.17h1.02l-2.05,7.17ZM313.99,448.52l1.01.26-1.94,7.2-1.01-.26,1.94-7.2ZM311.54,447.88l1.01.26-1.94,7.2-1.01-.26,1.94-7.2ZM309.12,446.93l1.02.26-1.91,7.13-1.02-.26,1.91-7.13ZM306.79,445.94l1.04.28-1.88,7.04-1.04-.28,1.88-7.04Z" fill="#737e80"></path><path class="cls-34" d="M387.91,400.28c-4.78,17.76-14.26,31.43-28.44,40.99-14.18,9.57-29.46,12.13-45.86,7.69-12.98-3.42-23.4-9.39-31.26-17.94-7.86-8.54-13.15-18.36-15.88-29.46-2.73-11.1-2.56-22.46.51-34.08,3.07-11.27,8.54-21.01,16.4-29.21s17.34-14.01,28.44-17.42,23.15-3.42,36.13,0c16.4,4.44,28.36,14.35,35.87,29.72s8.88,31.94,4.1,49.71M315.15,442.31c7.86,2.05,16.14,1.62,24.85-1.28,8.71-2.9,16.65-8.03,23.83-15.37,7.17-7.35,12.3-16.65,15.37-27.93,2.73-11.27,2.9-21.87.51-31.77-2.39-9.91-6.66-18.28-12.81-25.11-6.15-6.83-12.98-11.27-20.5-13.32-14.69-4.1-28.7-1.88-42.02,6.66-13.32,8.54-22.21,20.67-26.65,36.38-4.1,16.06-2.48,31,4.87,44.84,7.35,13.84,18.19,22.8,32.54,26.9" fill="url(#1776131386812-8462455_linear-gradient-17)"></path><path class="cls-35" d="M387.4,400.28c-4.78,17.08-14.09,30.4-27.93,39.97-13.84,9.57-28.78,12.13-44.84,7.69-10.59-2.73-19.56-8.11-26.9-16.14-7.35-8.03-12.3-17.51-14.86-28.44-2.56-10.93-2.3-22.21.77-33.82,3.07-11.62,8.45-21.44,16.14-29.46,7.69-8.03,16.74-13.75,27.16-17.17,10.42-3.42,20.93-3.59,31.52-.51,16.06,4.1,27.76,13.75,35.1,28.95,7.35,15.2,8.63,31.52,3.84,48.94M315.66,443.84c15.03,3.76,29.21,1.28,42.53-7.43,13.32-8.71,22.21-21.09,26.65-37.15,4.1-16.06,2.56-31.17-4.61-45.35-7.17-14.18-18.11-23.31-32.8-27.42-15.03-4.1-29.38-1.79-43.04,6.92-13.66,8.71-22.55,21.09-26.65,37.15-4.44,16.06-2.9,31.26,4.61,45.6,7.51,14.35,18.62,23.57,33.31,27.67" fill="url(#1776131386812-8462455_linear-gradient-18)"></path><path class="cls-16" d="M315.15,442.31c-14.35-4.1-25.19-13.07-32.54-26.9-7.35-13.84-8.97-28.78-4.87-44.84,4.44-15.72,13.32-27.84,26.65-36.38,13.32-8.54,27.33-10.76,42.02-6.66,14.35,3.76,25.2,12.64,32.54,26.65,7.35,14.01,8.97,29.04,4.87,45.1-4.44,15.72-13.32,27.76-26.65,36.13-13.32,8.37-27.33,10.67-42.02,6.92" fill="url(#1776131386812-8462455_radial-gradient)"></path><path class="cls-5" d="M292.6,154.32s1.54,2.65,4.61,7.94,6.23,12.47,9.48,21.52c3.24,9.05,5.64,19.3,7.17,30.74s.86,23.23-2.05,35.36-9.31,24-19.22,35.61c-5.81,6.49-14.86,13.75-27.16,21.78-12.3,8.03-24.6,13.92-36.89,17.68l3.07-32.8h-102.48l3.07,32.8c-7.86-2.39-15.97-5.81-24.34-10.25-8.37-4.44-16.22-9.31-23.57-14.6-7.35-5.29-12.9-10.16-16.65-14.6-9.57-11.62-15.8-23.49-18.7-35.61-2.9-12.13-3.67-23.91-2.31-35.36s3.76-21.69,7.17-30.74,6.57-16.23,9.48-21.52c2.9-5.29,4.36-7.94,4.36-7.94h224.96Z" fill="url(#1776131386812-8462455_radial-gradient-2)"></path><path class="cls-14" d="M180.2,54.86c17.7,0,33.11,3.47,46.23,10.4,13.12,6.93,23.89,16.53,32.31,28.79,8.42,12.26,14.5,26.55,18.23,42.87,3.73,16.31,5.06,33.97,4,52.95-.43,7.68-1.55,17.01-3.36,27.99-1.82,10.98-4,21.17-6.56,30.55-2.77,9.81-7.62,19.3-14.56,28.47-6.93,9.17-14.88,17.38-23.83,24.63s-18.08,12.96-27.35,17.12c-9.28,4.16-17.65,6.24-25.11,6.24s-15.84-2.08-25.11-6.24c-9.28-4.16-18.39-9.86-27.35-17.12-8.92-7.21-16.92-15.48-23.83-24.63-6.93-9.17-11.79-18.66-14.56-28.47-2.56-9.38-4.74-19.57-6.56-30.55-1.81-10.98-2.93-20.31-3.36-27.99-1.07-18.98.27-36.63,4-52.95s9.81-30.6,18.23-42.87,19.19-21.86,32.31-28.79c13.12-6.93,28.52-10.4,46.23-10.4" fill="#ffc940"></path><path class="cls-39" d="M194.87,235.55c1.81,0,2.8.54,2.99,1.63s-.63,2.17-2.44,3.25c-1.45,1.09-3.79,2.35-7.05,3.8-3.25,1.45-5.97,2.17-8.13,2.17s-4.88-.72-8.14-2.17c-3.25-1.45-5.6-2.71-7.05-3.79-1.81-1.09-2.62-2.17-2.44-3.25.18-1.09,1.18-1.63,2.98-1.63,2.17,0,4.34.45,6.51,1.35,2.17.9,4.88,1.35,8.14,1.35s5.97-.45,8.14-1.35c2.17-.9,4.34-1.36,6.51-1.36" fill="#f0a429"></path><path class="cls-1" d="M180.38,269.62h41.51c-6.15,3.42-12.13,7.35-17.94,11.79-5.81,4.44-13.66,6.66-23.57,6.66s-17.85-2.22-23.83-6.66c-5.98-4.44-11.87-8.37-17.68-11.79h41.51Z" fill="#d47706"></path><path class="cls-20" d="M197.8,264.49c6.15,2.39,11.7,3.84,16.65,4.36s7.43.77,7.43.77c0,0-2.73.51-8.2,1.54-5.47,1.02-11.53,1.96-18.19,2.82s-11.7,1.28-15.12,1.28c-3.76,0-8.88-.43-15.37-1.28s-12.47-1.79-17.94-2.82-8.2-1.54-8.2-1.54c0,0,2.48-.26,7.43-.77,4.95-.51,10.33-1.96,16.14-4.36,5.13-1.71,9.39-1.79,12.81-.26s5.13,2.3,5.13,2.3c0,0,1.62-.77,4.87-2.3,3.24-1.54,7.43-1.45,12.56.26" fill="#b06000"></path><path class="cls-40" d="M317.71,201.98c.34,15.72-1.28,30.83-4.87,45.35-3.59,14.52-10.33,27.24-20.24,38.17,0,0,1.02-3.33,3.07-9.99,2.05-6.66,3.59-15.63,4.61-26.9,1.02-11.28.26-24-2.31-38.17-2.56-14.18-8.45-28.95-17.68-44.32-11.27-10.25-21.69-21.87-31.26-34.85s-14.52-28.18-14.86-45.6c-9.57,8.54-21.27,16.06-35.1,22.55-13.84,6.49-28.18,12.47-43.04,17.94-14.86,5.47-28.95,10.93-42.28,16.4-13.32,5.47-24.09,11.44-32.28,17.94-10.93,16.06-17.85,31.52-20.75,46.38s-3.67,28.18-2.31,39.97c1.36,11.79,3.24,21.18,5.64,28.18s3.59,10.51,3.59,10.51c-10.25-11.27-17.17-24.51-20.75-39.71-3.59-15.2-5.04-31-4.36-47.4.68-11.28,3.24-23.4,7.69-36.38,4.44-12.98,11.36-25.71,20.75-38.17s21.69-23.4,36.89-32.8c15.2-9.39,33.65-16.06,55.34-19.99s47.06-3.67,76.1.77c6.15,2.73,13.58,7.35,22.29,13.84,8.71,6.49,17.25,14.94,25.62,25.37,8.37,10.42,15.46,23.15,21.27,38.17,5.81,15.03,8.88,32.62,9.22,52.78" fill="#ffb80d"></path><path class="cls-37" d="M45.1,193.78c2.05-10.93,8.29-20.33,18.71-28.18,10.42-7.86,23.23-15.03,38.43-21.52s31.34-13.15,48.43-19.99c17.08-6.83,33.39-14.35,48.94-22.55,15.54-8.2,28.78-18.1,39.71-29.72-2.39,11.62-7.86,21.35-16.4,29.21-8.54,7.86-19.05,14.6-31.52,20.24s-25.79,10.76-39.97,15.37c-14.18,4.61-28.18,9.39-42.02,14.35-13.84,4.95-26.39,10.85-37.67,17.68-11.27,6.83-20.15,15.2-26.65,25.11" fill="#e68c00"></path><path class="cls-18" d="M194.72,166.62c8.88-4.44,19.47-7.17,31.77-8.2,6.49-.68,15.2-.86,26.13-.51s19.64,1.71,26.13,4.1c1.71.34,3.24,1.02,4.61,2.05.68.34,1.02,1.02,1.02,2.05v2.05c0,1.71-.08,2.56-.26,2.56s-.94.34-2.31,1.02c-4.44,2.73-7.51,9.91-9.22,21.52-2.39,15.03-9.91,24.94-22.55,29.72-11.96,4.44-23.91,4.27-35.87-.51-6.83-2.39-12.3-6.66-16.4-12.81-3.76-5.47-5.72-10.25-5.89-14.35s-1.28-8.54-3.33-13.32c-1.71-4.1-4.53-6.15-8.45-6.15s-6.75,2.05-8.45,6.15c-1.71,4.78-2.73,9.22-3.07,13.32s-2.39,8.88-6.15,14.35c-4.1,6.15-9.39,10.42-15.88,12.81-11.96,4.79-24.09,4.95-36.38.51-12.64-4.79-19.99-14.69-22.03-29.72-1.71-11.61-4.95-18.79-9.73-21.52l-2.05-1.02v-4.61c0-1.02.34-1.71,1.02-2.05,1.36-.68,2.73-1.36,4.1-2.05,6.83-2.39,15.72-3.76,26.65-4.1s19.47-.17,25.62.51c12.64,1.02,23.4,3.76,32.28,8.2,4.1,2.05,8.88,3.07,14.35,3.07s10.25-1.02,14.35-3.07" fill="#27272e"></path><path class="cls-26" d="M180.38,174.3c-4.78,0-8.03,2.39-9.73,7.17-.68,2.05-1.28,3.93-1.79,5.64-.51,1.71-.77,3.42-.77,5.13-.68,2.39-1.36,4.95-2.05,7.69-.68,2.73-2.22,5.81-4.61,9.22-3.76,5.47-8.88,9.57-15.37,12.3-11.62,4.44-23.23,4.44-34.85,0-11.96-4.44-19.13-14.01-21.52-28.7-1.71-11.96-5.13-19.3-10.25-22.03l-.77-.77c-.17-.17-.43-.26-.77-.26v-4.61c1.36-.68,2.9-1.2,4.61-1.54,7.86-2.73,19.81-4.1,35.87-4.1,5.13,0,10.25.17,15.37.51,12.3,1.02,22.89,3.76,31.77,8.2,4.1,2.05,9.05,3.07,14.86,3.07s10.76-1.02,14.86-3.07c8.54-4.44,19.13-7.17,31.77-8.2,4.44-.34,9.57-.51,15.37-.51,16.4,0,28.36,1.36,35.87,4.1.68,0,1.36.17,2.05.51s1.54.68,2.56,1.02v4.61c-.68.34-1.2.51-1.54.51-5.13,3.07-8.54,10.59-10.25,22.55-2.39,14.69-9.57,24.25-21.52,28.7-11.62,4.44-23.23,4.44-34.85,0-6.49-2.73-11.62-6.83-15.37-12.3-2.39-3.42-3.93-6.41-4.61-8.97s-1.36-5.21-2.05-7.94c-.34-1.71-.68-3.42-1.02-5.13s-.86-3.59-1.54-5.64c-2.05-4.78-5.29-7.17-9.73-7.17" fill="url(#1776131386812-8462455_linear-gradient-19)"></path><path class="cls-19" d="M231.11,218.89c-6.15,0-11.79-1.02-16.91-3.07-4.78-1.71-8.54-5.21-11.27-10.51-2.73-5.29-4.61-10.51-5.64-15.63-.68-3.07-.94-6.41-.77-9.99.17-3.59.94-6.07,2.3-7.43,3.42-2.73,8.97-4.7,16.65-5.89,7.69-1.2,15.12-1.79,22.29-1.79,4.44,0,8.97.26,13.58.77,4.61.51,7.94,1.28,9.99,2.3,1.71,1.02,2.9,2.65,3.59,4.87s1.2,4.19,1.54,5.89c.68,5.12.17,10.93-1.54,17.42s-4.44,11.44-8.2,14.86c-4.44,3.42-8.88,5.64-13.32,6.66-4.44,1.02-8.54,1.54-12.3,1.54M129.65,218.89c-3.42,0-7.43-.51-12.04-1.54s-8.97-3.24-13.07-6.66c-3.76-3.42-6.49-8.37-8.2-14.86-1.71-6.49-2.22-12.3-1.54-17.42,0-1.71.34-3.67,1.02-5.89s1.88-3.84,3.59-4.87c2.39-1.02,5.89-1.79,10.51-2.3,4.61-.51,9.14-.77,13.58-.77,7.17,0,14.52.6,22.03,1.79s12.98,3.16,16.4,5.89c1.71,1.36,2.56,3.84,2.56,7.43s-.17,6.92-.51,9.99c-1.02,5.13-2.9,10.33-5.64,15.63-2.73,5.29-6.49,8.8-11.27,10.51-5.13,2.05-10.93,3.07-17.42,3.07" fill="#1c1c21"></path><path class="cls-29" d="M305.92,143.05c3.42,8.2,6.23,17.17,8.45,26.9s3.33,20.41,3.33,32.03c.34,6.83.17,13.66-.51,20.5H43.04c-.68-8.2-.86-16.22-.51-24.09.68-8.2,2.22-17.08,4.61-26.65s6.15-19.13,11.27-28.7h247.5" fill="url(#1776131386812-8462455_linear-gradient-20)"></path><path class="cls-28" d="M246.64,166.13l-40.3,42.66c-3.95-5.53-6.52-12.45-7.7-20.74-1.19-8.3-.59-13.23,1.78-14.81,3.16-3.16,9.68-5.14,19.56-5.92,9.88-.79,18.76-1.18,26.67-1.18" fill="url(#1776131386812-8462455_linear-gradient-21)"></path><path class="cls-30" d="M144.72,167.3l-39.1,41.48c-5.53-4.74-8.69-12.05-9.48-21.92-.79-9.88.79-15.61,4.74-17.18,2.37-1.58,8.1-2.57,17.18-2.96,9.09-.4,17.97-.2,26.67.59" fill="url(#1776131386812-8462455_linear-gradient-22)"></path><path class="cls-31" d="M360.24,127.67c0,5.47-5.64,10.67-16.91,15.63-11.27,4.95-30.06,9.05-56.37,12.3-26.3,3.25-61.83,4.87-106.58,4.87s-80.79-1.62-107.1-4.87c-26.3-3.24-45.1-7.35-56.37-12.3-11.28-4.95-16.91-10.16-16.91-15.63,0-5.13,5.64-9.91,16.91-14.35,11.27-4.44,30.06-7.94,56.37-10.51,26.3-2.56,62-3.84,107.1-3.84s80.28,1.28,106.58,3.84c26.3,2.56,45.1,6.07,56.37,10.51,11.27,4.44,16.91,9.22,16.91,14.35" fill="url(#1776131386812-8462455_linear-gradient-23)"></path><path class="cls-4" d="M289.72,93.38c.79,5.07-6.28,9.29-21.2,12.68-14.92,3.38-33.37,5.49-55.35,6.34s-43.96.84-65.95,0c-21.98-.84-40.43-2.96-55.35-6.34s-21.98-7.6-21.2-12.68c6.28-32.96,12.56-56.19,18.84-69.72,6.28-13.52,13.54-21.13,21.79-22.82C119.55-.84,129.17,0,140.16,3.38c10.99,3.38,24.34,5.07,40.04,5.07s29.05-1.69,40.04-5.07C231.23,0,240.85-.84,249.09.84c8.24,1.69,15.51,9.29,21.79,22.82,6.28,13.52,12.56,36.76,18.84,69.72" fill="url(#1776131386812-8462455_radial-gradient-3)"></path><path class="cls-3" d="M272.1,95.39c-3.76,4.1-8.97,4.19-15.63.26s-13.5-10.25-20.5-18.96c-7.01-8.71-12.81-18.19-17.42-28.44s-6.66-19.56-6.15-27.93,5.04-14.09,13.58-17.16c6.15-2.39,12.56-1.79,19.22,1.79,6.66,3.59,12.81,9.05,18.45,16.4,5.64,7.35,10.08,15.54,13.32,24.6,3.24,9.05,4.7,17.94,4.36,26.65-.34,8.71-3.42,16.31-9.22,22.8" fill="url(#1776131386812-8462455_radial-gradient-4)"></path><path class="cls-2" d="M88.14,95.39c-5.47-6.49-8.45-14.09-8.97-22.8s.86-17.59,4.1-26.65c3.24-9.05,7.69-17.25,13.32-24.6s11.79-12.81,18.45-16.4,13.07-4.19,19.22-1.79c8.54,3.07,13.07,8.79,13.58,17.16s-1.54,17.68-6.15,27.93-10.33,19.73-17.16,28.44c-6.83,8.71-13.66,15.03-20.5,18.96s-12.13,3.84-15.88-.26" fill="url(#1776131386812-8462455_radial-gradient-5)"></path><path class="cls-36" d="M70.72,93.85c8.54,3.07,20.15,5.64,34.85,7.69,14.69,2.05,30.83,3.33,48.43,3.84,17.59.51,35.1.51,52.53,0,17.42-.51,33.48-1.79,48.17-3.84,14.69-2.05,26.3-4.61,34.85-7.69l3.07,24.09c-8.54,3.07-20.41,5.55-35.61,7.43-15.2,1.88-31.77,3.16-49.71,3.84s-35.95.68-54.06,0-34.67-1.96-49.71-3.84c-15.03-1.88-26.99-4.36-35.87-7.43l3.07-24.09" fill="url(#1776131386812-8462455_linear-gradient-24)"></path></g></svg>