<svg data-name="Layer 1" xmlns="http://www.w3.org/2000/svg" style="" viewBox="0 0 512 512"><g class="nc-icon-wrapper"><defs><linearGradient id="1776867898450-505173_b" x1="256.27" y1="19.45" x2="256.27" y2="497.06" gradientTransform="matrix(1 0 0 -1 0 513.98)" gradientUnits="userSpaceOnUse"><stop offset=".5" stop-color="#9100b5"></stop><stop offset="1" stop-color="#c942ff"></stop></linearGradient></defs><path class="d" d="M443.77,512c12.37,0,23.74-3.09,34.12-9.28,10.37-6.19,18.65-14.46,24.84-24.84,6.19-10.37,9.28-21.74,9.28-34.12V68.23c0-12.37-3.09-23.74-9.28-34.11-6.19-10.37-14.46-18.65-24.84-24.84-10.37-6.19-21.74-9.28-34.12-9.28H68.23c-12.37,0-23.74,3.09-34.12,9.28-10.37,6.19-18.65,14.46-24.84,24.84C3.09,44.49,0,55.86,0,68.23v375.54c0,12.37,3.09,23.74,9.28,34.12,6.19,10.37,14.46,18.65,24.84,24.84,10.37,6.19,21.74,9.28,34.12,9.28h375.54" vector-effect="none" fill="#9100b5"></path><path class="c" d="M443.77,494.53c14.19,0,26.29-4.91,36.3-14.74,10.01-9.83,15.01-21.83,15.01-36.03V68.23c0-14.19-5-26.29-15.01-36.3-10.01-10.01-22.11-15.01-36.3-15.01H68.23c-14.19,0-26.2,5-36.03,15.01-9.83,10.01-14.74,22.11-14.74,36.3v375.54c0,14.19,4.91,26.2,14.74,36.03,9.83,9.83,21.83,14.74,36.03,14.74h375.54" vector-effect="none" fill="url(#1776867898450-505173_b)"></path><path class="e" d="M306.22,384.27c1.09,0,1.82-.36,2.18-1.09l82.42-54.04,21.83,52.4c.36,1.09,1.09,1.82,2.18,2.18s2.18.36,3.27,0l22.93-10.37c2.55-1.09,3.27-2.91,2.18-5.46l-35.48-83.51c-.73-1.46-1.64-2.37-2.73-2.73s-2.18-.18-3.28.55l-82.42,54.58-21.83-52.4c-.73-1.46-1.64-2.37-2.73-2.73s-2.18-.18-3.27.55l-81.88,54.58-22.38-52.4c-.73-1.46-1.64-2.37-2.73-2.73-1.09,0-2.18.18-3.28.55l-111.35,73.69c-2.18,1.46-2.55,3.46-1.09,6l13.65,20.2c.73,1.09,1.64,1.64,2.73,1.64,1.09.36,2,.18,2.73-.55l82.42-54.04,22.38,52.4c.73,1.09,1.64,1.82,2.73,2.18s2.18.18,3.27-.55l81.88-54.04,21.83,52.4c.73,1.09,1.64,1.82,2.73,2.18.73.36,1.09.55,1.09.55M85.7,230.35c1.09,0,2-.18,2.73-.55l82.42-54.58,22.38,52.4c.36,1.09,1.09,1.82,2.18,2.18s2.18.36,3.27,0l81.88-54.58,21.83,52.4c.73,1.09,1.64,1.82,2.73,2.18s2.18.36,3.27,0l82.42-54.58,21.83,52.4c.73,1.09,1.46,1.82,2.18,2.18,1.09.36,2.18.36,3.27,0l22.93-10.37c2.55-1.09,3.27-2.73,2.18-4.91l-35.48-84.06c-.73-1.09-1.64-1.82-2.73-2.18s-2.18-.18-3.28.55l-81.88,54.04-22.38-52.4c-.73-1.09-1.64-1.82-2.73-2.18s-2.18-.18-3.27.55l-81.88,54.04-22.38-52.4c-.73-1.09-1.64-1.82-2.73-2.18-1.09-.36-2.18-.18-3.28.55l-111.35,73.69c-2.18,1.46-2.36,3.27-.55,5.46l13.1,20.74c.73.73,1.64,1.27,2.73,1.64h.55" vector-effect="none" fill="#fff"></path></g></svg>