<svg data-name="Layer 1" xmlns="http://www.w3.org/2000/svg" style="" viewBox="0 0 512 512"><g class="nc-icon-wrapper"><defs><linearGradient id="1776131386936-7225738_b" x1="256.27" y1="19.45" x2="256.27" y2="497.06" gradientTransform="matrix(1 0 0 -1 0 513.98)" gradientUnits="userSpaceOnUse"><stop offset=".5" stop-color="#9100b5"></stop><stop offset="1" stop-color="#c942ff"></stop></linearGradient></defs><path class="d" d="M443.77,512c12.37,0,23.74-3.09,34.12-9.28,10.37-6.19,18.65-14.46,24.84-24.84,6.19-10.37,9.28-21.74,9.28-34.12V68.23c0-12.37-3.09-23.74-9.28-34.11-6.19-10.37-14.46-18.65-24.84-24.84-10.37-6.19-21.74-9.28-34.12-9.28H68.23c-12.37,0-23.74,3.09-34.12,9.28-10.37,6.19-18.65,14.46-24.84,24.84C3.09,44.49,0,55.86,0,68.23v375.54c0,12.37,3.09,23.74,9.28,34.12,6.19,10.37,14.46,18.65,24.84,24.84,10.37,6.19,21.74,9.28,34.12,9.28h375.54" vector-effect="none" fill="#9100b5"></path><path class="c" d="M443.77,494.53c14.19,0,26.29-4.91,36.3-14.74,10.01-9.83,15.01-21.83,15.01-36.03V68.23c0-14.19-5-26.29-15.01-36.3-10.01-10.01-22.11-15.01-36.3-15.01H68.23c-14.19,0-26.2,5-36.03,15.01-9.83,10.01-14.74,22.11-14.74,36.3v375.54c0,14.19,4.91,26.2,14.74,36.03,9.83,9.83,21.83,14.74,36.03,14.74h375.54" vector-effect="none" fill="url(#1776131386936-7225738_b)"></path><path class="e" d="M268.55,430.67c2.91,0,4.37-1.46,4.37-4.37.36-54.22,3.73-100.43,10.1-138.64,6.37-38.21,14.28-69.41,23.74-93.61,9.46-24.2,19.29-42.58,29.48-55.13,10.19-12.55,19.47-20.47,27.84-23.74,10.92-4,20.01-2.18,27.29,5.46,6.91,7.28,10.55,19.83,10.92,37.66.36,17.83-5.28,39.3-16.92,64.41-.73,1.46-.55,2.91.55,4.37.73,1.09,1.82,1.64,3.28,1.64h25.11c1.82,0,3.09-.73,3.82-2.18,10.19-18.56,16.38-35.75,18.56-51.58,2.18-15.83,1.55-29.84-1.91-42.03-3.46-12.19-8.28-22.11-14.46-29.75-8.37-9.83-18.38-16.47-30.02-19.92-11.64-3.46-23.84-3.18-36.57.82-4.73,1.82-11.64,5.73-20.74,11.74-9.1,6-18.83,15.74-29.2,29.2-10.37,13.46-19.92,32.39-28.66,56.77-8.73,24.38-15.1,55.49-19.1,93.34-4-38.21-10.37-69.41-19.1-93.61s-18.29-43.03-28.66-56.49c-10.37-13.46-20.11-23.2-29.2-29.2-9.1-6-16.01-9.92-20.74-11.74-12.37-4-24.47-4.28-36.3-.82-11.83,3.46-21.92,10.1-30.29,19.92-6.19,7.64-11.01,17.56-14.46,29.75-3.46,12.19-4.09,26.2-1.91,42.03,2.18,15.83,8.37,33.02,18.56,51.58.73,1.46,2,2.18,3.82,2.18h25.11c1.46,0,2.73-.55,3.82-1.64.73-1.46.73-2.91,0-4.37-11.64-25.11-17.29-46.58-16.92-64.41.36-17.83,4-30.39,10.92-37.66,7.28-8.01,16.38-9.83,27.29-5.46,8.37,3.27,17.65,11.19,27.84,23.74,10.19,12.55,20.01,30.93,29.48,55.13s17.38,55.4,23.74,93.61c6.37,38.21,9.73,84.42,10.1,138.64,0,2.91,1.46,4.37,4.37,4.37h25.11" vector-effect="none" fill="#fff"></path></g></svg>