<svg data-name="Layer 1" xmlns="http://www.w3.org/2000/svg" style="" viewBox="0 0 512 512"><g class="nc-icon-wrapper"><defs><linearGradient id="1776867898452-1699488_b" x1="256.27" y1="19.45" x2="256.27" y2="497.06" gradientTransform="matrix(1 0 0 -1 0 513.98)" gradientUnits="userSpaceOnUse"><stop offset=".5" stop-color="#9100b5"></stop><stop offset="1" stop-color="#c942ff"></stop></linearGradient></defs><path class="d" d="M443.77,512c12.37,0,23.74-3.09,34.12-9.28,10.37-6.19,18.65-14.46,24.84-24.84,6.19-10.37,9.28-21.74,9.28-34.12V68.23c0-12.37-3.09-23.74-9.28-34.11-6.19-10.37-14.46-18.65-24.84-24.84-10.37-6.19-21.74-9.28-34.12-9.28H68.23c-12.37,0-23.74,3.09-34.12,9.28-10.37,6.19-18.65,14.46-24.84,24.84C3.09,44.49,0,55.86,0,68.23v375.54c0,12.37,3.09,23.74,9.28,34.12,6.19,10.37,14.46,18.65,24.84,24.84,10.37,6.19,21.74,9.28,34.12,9.28h375.54" vector-effect="none" fill="#9100b5"></path><path class="c" d="M443.77,494.53c14.19,0,26.29-4.91,36.3-14.74,10.01-9.83,15.01-21.83,15.01-36.03V68.23c0-14.19-5-26.29-15.01-36.3-10.01-10.01-22.11-15.01-36.3-15.01H68.23c-14.19,0-26.2,5-36.03,15.01-9.83,10.01-14.74,22.11-14.74,36.3v375.54c0,14.19,4.91,26.2,14.74,36.03,9.83,9.83,21.83,14.74,36.03,14.74h375.54" vector-effect="none" fill="url(#1776867898452-1699488_b)"></path><path class="e" d="M256,430.67c32.39,0,60.41-12.01,84.06-36.03,25.11-25.47,36.39-54.95,33.84-88.43-2.55-39.3-22.02-70.6-58.41-93.89,13.83-6.55,24.2-15.1,31.11-25.65,2.55-4,5.19-8.1,7.91-12.28s5.19-8.28,7.37-12.28l4.91-7.64c1.82-3.27,3.64-6.37,5.46-9.28,1.46-2.55,3-5.28,4.64-8.19,1.64-2.91,3.37-5.64,5.19-8.19,7.28-10.19,15.83-16.38,25.65-18.56,1.09,0,2.27-.09,3.55-.27,1.27-.18,2.64-.27,4.09-.27,1.46-.36,2.73-.55,3.82-.55,2.55-.36,3.82-1.82,3.82-4.37v-19.65c0-2.55-1.46-3.82-4.37-3.82h-10.92c-14.56-.36-28.02,4.73-40.39,15.28-6.55,5.46-12.1,11.37-16.65,17.74-4.55,6.37-8.82,12.83-12.83,19.38l-5.46,9.83c-2.91,4.37-5.73,8.92-8.46,13.65-2.73,4.73-5.55,9.46-8.46,14.19-10.55,15.65-24.2,24.93-40.94,27.84-12.37,2.18-24.74,2.18-37.12,0-16.74-2.91-30.39-12.19-40.94-27.84-2.91-4.73-5.73-9.46-8.46-14.19s-5.55-9.28-8.46-13.65l-5.46-9.83c-4-6.55-8.37-13.01-13.1-19.38-4.73-6.37-10.19-12.28-16.37-17.74-12.37-10.55-25.84-15.65-40.39-15.28h-10.92c-2.91,0-4.37,1.27-4.37,3.82v19.65c0,2.55,1.27,4,3.82,4.37h2.18c.73,0,1.27.18,1.64.55,1.46,0,2.82.09,4.09.27,1.27.18,2.46.27,3.55.27,9.83,2.18,18.38,8.37,25.65,18.56,1.82,2.91,3.55,5.73,5.19,8.46,1.64,2.73,3.18,5.37,4.64,7.92,1.82,2.91,3.64,6,5.46,9.28l4.91,7.64c2.55,4,5.09,8.1,7.64,12.28s5.09,8.28,7.64,12.28c6.91,10.55,17.28,19.1,31.11,25.65-36.39,23.29-55.86,54.58-58.41,93.89-2.55,33.84,8.73,63.5,33.84,88.97,23.65,23.65,51.67,35.48,84.06,35.48M256,395.74c-22.56,0-42.03-8.01-58.41-24.02-16.38-16.01-24.74-34.93-25.11-56.77,0-22.93,8.19-42.58,24.56-58.95,16.01-16.38,35.66-24.56,58.95-24.56s42.94,8.19,58.95,24.56c16.38,16.38,24.56,36.03,24.56,58.95-.36,21.83-8.73,40.76-25.11,56.77-16.37,16.01-35.84,24.02-58.41,24.02" vector-effect="none" fill="#fff"></path></g></svg>