<svg data-name="Layer 1" xmlns="http://www.w3.org/2000/svg" style="" viewBox="0 0 512 512"><g class="nc-icon-wrapper"><defs><linearGradient id="1776131386939-7916628_b" x1="256.27" y1="19.45" x2="256.27" y2="497.06" gradientTransform="matrix(1 0 0 -1 0 513.98)" gradientUnits="userSpaceOnUse"><stop offset=".5" stop-color="#9100b5"></stop><stop offset="1" stop-color="#c942ff"></stop></linearGradient></defs><path class="d" d="M443.77,512c12.37,0,23.74-3.09,34.12-9.28,10.37-6.19,18.65-14.46,24.84-24.84,6.19-10.37,9.28-21.74,9.28-34.12V68.23c0-12.37-3.09-23.74-9.28-34.11-6.19-10.37-14.46-18.65-24.84-24.84-10.37-6.19-21.74-9.28-34.12-9.28H68.23c-12.37,0-23.74,3.09-34.12,9.28-10.37,6.19-18.65,14.46-24.84,24.84C3.09,44.49,0,55.86,0,68.23v375.54c0,12.37,3.09,23.74,9.28,34.12,6.19,10.37,14.46,18.65,24.84,24.84,10.37,6.19,21.74,9.28,34.12,9.28h375.54" vector-effect="none" fill="#9100b5"></path><path class="c" d="M443.77,494.53c14.19,0,26.29-4.91,36.3-14.74,10.01-9.83,15.01-21.83,15.01-36.03V68.23c0-14.19-5-26.29-15.01-36.3-10.01-10.01-22.11-15.01-36.3-15.01H68.23c-14.19,0-26.2,5-36.03,15.01-9.83,10.01-14.74,22.11-14.74,36.3v375.54c0,14.19,4.91,26.2,14.74,36.03,9.83,9.83,21.83,14.74,36.03,14.74h375.54" vector-effect="none" fill="url(#1776131386939-7916628_b)"></path><path class="e" d="M404.47,111.35c-.36-2.18-1.64-3.46-3.82-3.82l-152.84-18.01c-1.09,0-2.18.36-3.28,1.09-.73.73-1.27,1.64-1.64,2.73l-3.28,31.11c-.36,2.91.91,4.55,3.82,4.91l99.34,10.92-136.46,136.46-55.68-56.22c-2.18-1.82-4.37-1.82-6.55,0l-21.83,22.38c-2.18,1.82-2.18,3.82,0,6l56.22,56.22-87.33,86.79c-2.18,2.18-2.18,4.18,0,6l22.93,22.93c.73,1.09,1.64,1.64,2.73,1.64,1.46,0,2.55-.55,3.27-1.64l86.79-86.79,56.22,55.68c2.18,2.18,4.18,2.18,6,0l22.38-21.83c1.82-2.18,1.82-4.18,0-6l-56.22-56.22,136.46-136.46,10.92,99.34c.36,2.91,2,4.18,4.91,3.82l31.11-3.28c1.09,0,2-.55,2.73-1.64s1.09-2.18,1.09-3.28l-18.01-152.84" vector-effect="none" fill="#fff"></path></g></svg>