<svg xmlns="http://www.w3.org/2000/svg" data-name="Layer 1" style="" viewBox="0 0 512 640.06"><g><defs><linearGradient id="1770301554898-6873784_b" x1="163.73" x2="89.69" y1="88.75" y2="105.35" gradientTransform="matrix(1 0 0 -1 0 642.06)" gradientUnits="userSpaceOnUse"><stop offset="0" stop-color="#004f7d"></stop><stop offset=".19" stop-color="#005586"></stop><stop offset=".51" stop-color="#0065a0"></stop><stop offset=".91" stop-color="#007ec9"></stop><stop offset="1" stop-color="#0085d4"></stop></linearGradient><linearGradient id="1770301554898-6873784_d" x1="222.78" x2="262.21" y1="606.03" y2="616.85" gradientTransform="matrix(1 0 0 -1 0 642.06)" gradientUnits="userSpaceOnUse"><stop offset="0" stop-color="#bf0000"></stop><stop offset=".18" stop-color="#d11c20"></stop><stop offset=".39" stop-color="#e0343c"></stop><stop offset=".59" stop-color="#eb4550"></stop><stop offset=".8" stop-color="#f2505c"></stop><stop offset="1" stop-color="#f45360"></stop></linearGradient><linearGradient id="1770301554898-6873784_e" x1="313.86" x2="336.18" y1="604.55" y2="604.55" gradientTransform="matrix(1 0 0 -1 0 642.06)" gradientUnits="userSpaceOnUse"><stop offset="0" stop-color="#bf0000"></stop><stop offset=".18" stop-color="#d11c20"></stop><stop offset=".39" stop-color="#e0343c"></stop><stop offset=".59" stop-color="#eb4550"></stop><stop offset=".8" stop-color="#f2505c"></stop><stop offset="1" stop-color="#f45360"></stop></linearGradient><linearGradient id="1770301554898-6873784_f" x1="277.46" x2="314.96" y1="613.69" y2="613.69" gradientTransform="matrix(1 0 0 -1 0 642.06)" gradientUnits="userSpaceOnUse"><stop offset="0" stop-color="#bf0000"></stop><stop offset=".18" stop-color="#d11c20"></stop><stop offset=".39" stop-color="#e0343c"></stop><stop offset=".59" stop-color="#eb4550"></stop><stop offset=".8" stop-color="#f2505c"></stop><stop offset="1" stop-color="#f45360"></stop></linearGradient><linearGradient id="1770301554898-6873784_g" x1="83.84" x2="74.64" y1="467.67" y2="516.34" gradientTransform="matrix(1 0 0 -1 0 642.06)" gradientUnits="userSpaceOnUse"><stop offset="0" stop-color="#004f7d"></stop><stop offset=".02" stop-color="#005180"></stop><stop offset=".31" stop-color="#0067a4"></stop><stop offset=".57" stop-color="#0078be"></stop><stop offset=".81" stop-color="#0082ce"></stop><stop offset="1" stop-color="#0085d4"></stop></linearGradient><linearGradient id="1770301554898-6873784_h" x1="408.18" x2="391.49" y1="402.33" y2="434.68" gradientTransform="matrix(1 0 0 -1 0 642.06)" gradientUnits="userSpaceOnUse"><stop offset="0" stop-color="#bf0000"></stop><stop offset=".18" stop-color="#d11c20"></stop><stop offset=".39" stop-color="#e0343c"></stop><stop offset=".59" stop-color="#eb4550"></stop><stop offset=".8" stop-color="#f2505c"></stop><stop offset="1" stop-color="#f45360"></stop></linearGradient><linearGradient id="1770301554898-6873784_i" x1="426.1" x2="431.86" y1="402.85" y2="367.39" gradientTransform="matrix(1 0 0 -1 0 642.06)" gradientUnits="userSpaceOnUse"><stop offset="0" stop-color="#f45360"></stop><stop offset=".2" stop-color="#f2505c"></stop><stop offset=".41" stop-color="#eb4550"></stop><stop offset=".61" stop-color="#e0343c"></stop><stop offset=".82" stop-color="#d11c20"></stop><stop offset="1" stop-color="#bf0000"></stop></linearGradient><linearGradient id="1770301554898-6873784_j" x1="43.02" x2="58.43" y1="368.21" y2="405.88" gradientTransform="matrix(1 0 0 -1 0 642.06)" gradientUnits="userSpaceOnUse"><stop offset="0" stop-color="#bf0000"></stop><stop offset=".18" stop-color="#d11c20"></stop><stop offset=".39" stop-color="#e0343c"></stop><stop offset=".59" stop-color="#eb4550"></stop><stop offset=".8" stop-color="#f2505c"></stop><stop offset="1" stop-color="#f45360"></stop></linearGradient><linearGradient id="1770301554898-6873784_k" x1="44.01" x2="31.47" y1="332.91" y2="364.1" gradientTransform="matrix(1 0 0 -1 0 642.06)" gradientUnits="userSpaceOnUse"><stop offset="0" stop-color="#bf0000"></stop><stop offset=".18" stop-color="#d11c20"></stop><stop offset=".39" stop-color="#e0343c"></stop><stop offset=".59" stop-color="#eb4550"></stop><stop offset=".8" stop-color="#f2505c"></stop><stop offset="1" stop-color="#f45360"></stop></linearGradient><linearGradient id="1770301554898-6873784_l" x1="164.28" x2="58.97" y1="432.87" y2="524.81" gradientTransform="matrix(1 0 0 -1 0 642.06)" gradientUnits="userSpaceOnUse"><stop offset="0" stop-color="#004f7d"></stop><stop offset=".02" stop-color="#005180"></stop><stop offset=".31" stop-color="#0067a4"></stop><stop offset=".57" stop-color="#0078be"></stop><stop offset=".81" stop-color="#0082ce"></stop><stop offset="1" stop-color="#0085d4"></stop></linearGradient><linearGradient id="1770301554898-6873784_m" x1="130.23" x2="130.23" y1="560.88" y2="572.13" gradientTransform="matrix(1 0 0 -1 0 642.06)" gradientUnits="userSpaceOnUse"><stop offset="0" stop-color="#302c3b" stop-opacity=".59"></stop><stop offset="1" stop-color="#302c3b" stop-opacity="0"></stop></linearGradient><linearGradient id="1770301554898-6873784_n" x1="299.37" x2="426.21" y1="393.87" y2="393.87" gradientTransform="matrix(1.04 0 0 -1 -4.72 642.06)" gradientUnits="userSpaceOnUse"><stop offset="0" stop-color="#ad1651"></stop><stop offset=".39" stop-color="#d3395e"></stop><stop offset=".78" stop-color="#f3566a"></stop><stop offset="1" stop-color="#ff616e"></stop></linearGradient><linearGradient id="1770301554898-6873784_p" x1="372.13" x2="309.25" y1="400.05" y2="491.17" gradientTransform="matrix(1 0 0 -1 0 642.06)" gradientUnits="userSpaceOnUse"><stop offset="0" stop-color="#004f7d"></stop><stop offset=".02" stop-color="#005180"></stop><stop offset=".31" stop-color="#0067a4"></stop><stop offset=".57" stop-color="#0078be"></stop><stop offset=".81" stop-color="#0082ce"></stop><stop offset="1" stop-color="#0085d4"></stop></linearGradient><linearGradient id="1770301554898-6873784_q" x1="434.71" x2="452.46" y1="503.04" y2="503.04" gradientTransform="matrix(1 0 0 -1 0 642.06)" gradientUnits="userSpaceOnUse"><stop offset="0" stop-color="#302c3b" stop-opacity=".59"></stop><stop offset="1" stop-color="#302c3b" stop-opacity="0"></stop></linearGradient><linearGradient id="1770301554898-6873784_r" x1="-638.12" x2="-401.96" y1="-78.62" y2="-78.62" gradientTransform="matrix(.92402 -.45507 -.47624 -.8913 569.29 8.05)" gradientUnits="userSpaceOnUse"><stop offset="0" stop-color="#ff616e"></stop><stop offset=".22" stop-color="#f3566a"></stop><stop offset=".61" stop-color="#d3395e"></stop><stop offset="1" stop-color="#ad1651"></stop></linearGradient><radialGradient id="1770301554898-6873784_c" cx="457.74" cy="842.88" r="330.34" fx="457.74" fy="842.88" gradientTransform="matrix(.69267 .7623 .52296 -.42075 -498.27 332.69)" gradientUnits="userSpaceOnUse"><stop offset="0" stop-color="#f47a6d"></stop><stop offset=".23" stop-color="#f5766a"></stop><stop offset=".46" stop-color="#f66a60"></stop><stop offset=".7" stop-color="#f9554f"></stop><stop offset=".94" stop-color="#fe3937"></stop><stop offset="1" stop-color="#ff3030"></stop></radialGradient><radialGradient id="1770301554898-6873784_o" cx="-322.15" cy="20.55" r="145.75" fx="-322.15" fy="20.55" gradientTransform="matrix(.9569 -.456 -.54202 -.98237 611.21 53.31)" gradientUnits="userSpaceOnUse"><stop offset="0" stop-color="#bf0000"></stop><stop offset=".16" stop-color="#cc1518"></stop><stop offset=".5" stop-color="#ee4a56"></stop><stop offset=".56" stop-color="#f45360"></stop></radialGradient></defs><path d="M87.72 476.41S84.95 548.64 81 584.8c-1.92 17.71 73.72 25.82 74.79 5.01.96-17.18 5.97-39.69 5.97-39.69L87.72 476.4Z" fill="url(#1770301554898-6873784_b)"></path><path d="M436.25 298.46C320.29 197.11 6.85 247.04 57.63 432.35c23.9 87.37 132.82 156.4 232.04 193.1C370.11 655.32 512 651.27 512 497.64c0-79.91-31.47-160.45-75.75-199.18" fill="url(#1770301554898-6873784_c)"></path><path d="M453 497.64c-5.23-3.31-9.39-8-14.4-12.06-5.01-4.05-11.31-6.83-17.82-8.21-6.51-1.6-13.55-1.17-16.96-4.69-3.52-3.2-3.84-9.6-5.23-15.58-1.17-6.08-3.09-12.38-6.08-18.14-5.23-10.35-13.23-19.1-22.08-26.67.43-.75.75-1.49 1.28-2.24 2.35-4.27 5.44-8.21 7.47-14.3.96-2.99 1.17-7.25-.75-10.88l-3.52-6.51c-2.03-4.27-3.95-8.53-5.44-12.91-6.4-17.71-5.87-36.91-7.36-56.86 0-.43-.11-.75-.11-1.17 9.71 2.24 20.7 1.92 32.22 1.39 24.64-.96 55.58-1.49 71.37 23.9 0 0-9.17-14.19-20.48-25.92-15.58-7.89-34.14-6.61-51.21-5.97-12.27.53-23.79.85-32.97-2.03-2.35-16.75-8.53-33.39-18.99-47.15-12.27-16.64-28.91-29.23-46.09-40.22 15.47 13.12 30.08 27.2 40.54 43.63 5.23 8.11 9.17 16.96 11.63 26.03 2.45 9.07 3.41 18.56 3.95 28.06.21 6.61.32 13.34.53 20.27-3.73 9.28-11.31 16.86-20.59 23.26-9.49 6.72-20.7 12.59-29.12 21.98-8.64 9.17-12.59 21.34-13.02 32.97-.85 11.74 1.6 23.15 3.84 34.46-1.39-11.42-2.88-22.94-1.07-34.25 1.39-11.2 6.08-21.87 14.4-29.55 1.81-1.71 3.73-3.31 5.87-4.8 1.39 4.05 1.39 8.21-.75 12.38-2.67 5.33-5.65 11.74-5.76 18.24-.21 6.51 1.28 12.7 3.09 18.67 2.03 5.97 4.69 11.63 7.47 17.28-2.35-5.76-4.48-11.63-6.08-17.6-1.39-5.97-2.35-12.16-1.71-18.14.64-6.08 3.52-11.1 6.72-16.75 3.2-4.8 3.31-11.52 1.49-17.07 6.08-3.84 12.7-7.25 19.31-11.2 5.97-3.41 11.84-7.79 16.96-13.12.85 7.47 2.35 15.04 5.01 22.51 1.6 4.91 3.84 9.71 6.08 14.3l3.63 6.51c.43.85.53 1.71.11 3.52-2.35 7.15-10.14 15.9-13.02 26.67-1.49 5.33-1.71 11.31-.43 16.86 1.39 5.23 2.56 9.28 3.31 14.08 1.81 9.28 1.92 18.67.85 27.95s-3.95 18.46-7.47 27.52c-3.41 9.07-7.89 18.24-9.17 28.8-.75 5.23.32 10.78 1.28 15.36l2.99 14.4c1.71 9.49 4.27 19.31 2.67 28.38-.85 4.48-4.16 8-9.07 9.07-2.35.64-4.91.96-7.47.96-2.45.11-5.33-.32-8 .85-5.44 2.45-7.15 7.57-10.67 10.99-3.31 3.73-8.11 6.08-13.23 7.04 5.12-.64 10.24-2.67 13.87-6.4 3.73-3.41 6.19-8.43 10.67-10.03 2.13-.85 4.69-.43 7.36-.32s5.33-.11 8-.64c5.55-.85 10.56-5.44 11.63-10.67 2.35-10.35 0-20.16-1.17-29.87l-2.24-14.51c-.85-5.01-1.39-9.28-.64-13.76.43-2.45 1.07-4.91 1.92-7.36 0 1.07 0 2.13.11 3.09.75 9.28 5.33 18.14 11.74 24.75 6.19 6.83 13.34 12.59 18.14 20.16 4.91 7.47 7.25 16.22 7.89 25.07-.21-8.85-2.03-17.82-6.72-25.71-4.48-8-11.52-14.3-17.18-21.12-5.87-6.83-9.39-14.83-9.71-23.36-.32-6.29.75-12.59 2.35-18.78.53-1.17 1.07-2.35 1.6-3.52 4.05-9.07 7.68-18.78 9.39-28.91 1.81-10.14 1.71-20.48.11-30.62-.64-4.91-2.03-10.35-3.09-14.62-.85-4.05-.64-8.21.64-12.27v-.11c7.57 5.87 14.3 12.48 19.1 20.38 2.99 4.91 5.12 10.24 6.83 16 1.92 5.44 2.13 12.48 8.32 17.82 3.09 2.45 6.83 3.31 10.24 3.63s6.4.43 9.49.96c6.08.96 11.95 3.09 16.96 6.61s9.6 8.11 15.26 11.2c5.65 3.2 12.16 4.59 18.46 5.23-5.87-1.39-12.06-3.09-17.28-6.61Zm-227.77-68.81c-1.81-3.31-3.52-6.83-5.76-10.14-2.03-3.41-5.44-6.51-9.71-8.11-8-2.35-15.36.11-22.08 2.67-.43-.75-.85-1.6-1.39-2.35-4.59-6.93-9.17-13.12-11.74-20.06-5.12-13.76-4.91-29.02-3.09-43.95 4.69-3.31 9.39-6.72 13.76-10.46 12.8-10.56 51.42-45.02 42.57-83.75-2.67 14.94-114.47 94.95-143.17 146.9-18.56 12.16-22.3 28.16-25.5 38.09 1.92 5.76 4.8 13.12 4.8 13.12 2.88-1.71 1.71-16.22 12.59-31.37-.64 3.41-1.07 6.93-.75 10.46.64 9.17 5.55 17.28 10.78 23.79 5.33 6.61 11.31 12.16 17.18 17.71 11.52 10.88 21.87 22.94 23.36 37.87.85 15.26 6.61 33.39 21.98 41.18-6.61-4.8-10.88-11.74-13.34-18.88-2.13-6.4-2.56-12.8-2.67-19.63 9.49 3.09 18.24 8 25.07 14.94 7.89 7.89 13.44 17.71 19.1 27.52 5.65 9.81 11.95 19.74 21.34 26.88 9.28 7.25 21.12 10.78 32.75 12.16-11.63-1.81-23.15-5.76-31.9-13.12-8.85-7.25-14.51-17.18-19.74-27.1s-10.35-20.27-18.46-29.02c-7.47-8.32-17.71-14.3-28.59-17.92-1.49-15.9-11.95-29.66-22.3-40.75-10.78-11.74-23.15-23.15-23.79-36.49-.53-6.61 1.71-13.34 5.33-19.74 3.52-6.4 8.43-12.16 13.87-17.5 15.36-14.51 35.1-25.18 54.09-37.34-.21 13.12 1.17 26.56 6.83 39.15 3.52 7.79 9.07 14.4 13.76 20.7 4.69 6.19 7.89 12.91 8.53 20.48.11 3.73.32 7.57-.21 11.42l-.53 6.08c0 2.35.53 4.48 1.39 6.51 3.41 7.89 9.28 13.76 14.4 19.95 10.46 12.16 20.7 25.18 23.68 40.97-2.13-15.9-11.74-29.87-21.55-42.46-4.8-6.4-10.24-12.8-12.7-19.74-1.49-3.52-.64-6.51.11-10.78.85-3.95.85-8.11.96-12.27 0-5.76-1.71-11.42-4.27-16.75 5.97-2.67 12.38-4.91 18.14-3.41 6.61 1.92 10.35 9.39 14.4 15.68 3.95 6.51 8.53 13.12 15.04 17.92 6.4 4.91 14.08 7.57 21.87 9.28-7.68-2.13-15.04-5.23-20.91-10.24-5.97-4.91-10.03-11.42-13.55-18.14Z" style="isolation:isolate" fill="#ed0707" opacity=".5"></path><path d="M362.86 321.62c.21 4.27.53 8.53.75 12.8 7.25-12.27 22.83-19.63 38.73-21.34 15.58-2.03 31.79.11 47.37 4.37-3.09-1.81-6.4-3.31-9.71-4.48-2.35-.75-4.8-1.49-7.25-2.03-12.7-2.88-26.46-2.45-38.62-1.92-1.6.11-3.2.11-4.8.21-5.23 1.07-10.35 2.67-15.15 5.12-4.05 1.71-7.89 4.27-11.31 7.25Zm45.44 141.89c.32-6.08-2.24-13.44-7.89-17.6-2.13-1.71-4.37-2.99-6.61-4.16 1.39 3.09 2.45 6.19 3.31 9.39 4.05 2.88 6.19 7.25 6.51 12.48 0 2.77.21 6.08.85 9.39 1.17.96 2.77 1.71 4.59 2.13-1.07-3.52-1.07-7.36-.75-11.63Zm-23.04-20.91c-1.81-2.99-3.95-5.65-6.19-8.32-5.01-2.88-9.49-6.4-13.23-10.35-.85 3.52-1.07 7.15-.32 10.67.11.53.21 1.07.43 1.6 4.59 3.09 9.49 5.65 14.4 7.47 2.35.96 4.59 1.81 6.83 2.67-.75-1.28-1.28-2.56-1.92-3.73Zm-61.77 71.47c3.73-2.45 7.89-3.95 12.06-4.8-2.35 7.47-4.8 15.04-6.83 23.15-.85 4.48-1.28 9.49.32 14.4 1.28 4.8 5.23 9.07 8.11 11.95 4.27 4.48 8.11 9.28 11.31 14.4-.53-2.88-1.07-5.65-1.6-8.53l-1.07-5.44c-1.17-1.49-2.35-2.99-3.63-4.48-6.4-6.29-7.79-12.91-5.55-20.8 2.03-7.79 5.76-15.68 8.75-24 2.88-8.32 5.33-16.96 6.61-25.71 1.39-8.75 1.92-17.71 1.39-26.56-.11-2.24-.32-4.37-.53-6.61-.21-2.03-.21-3.63-.11-5.55.21-3.31 1.07-6.72 2.24-10.03-.96-5.23-.85-10.67.53-15.68 2.88-10.67 10.67-19.52 13.02-26.67.43-1.71.43-2.67-.11-3.52l-3.63-6.51c-2.35-4.69-4.59-9.39-6.08-14.3-2.56-7.47-4.05-14.94-5.01-22.51-1.6 1.71-3.41 3.09-5.23 4.59-.96 12.8 2.99 25.82 8.75 36.59l2.99 5.55c.32.53.43 1.71.11 3.31-.64 3.09-2.35 6.93-4.27 10.67-3.84 7.47-8.32 15.36-11.42 24-1.49 4.37-2.77 8.96-2.99 13.87-.21 2.35 0 5.01.21 7.25.21 2.03.43 4.16.53 6.19.43 8.21.32 16.54-.75 24.75-.53 5.23-1.71 10.35-3.09 15.47-7.57 1.49-14.83 4.69-20.38 9.39-6.51 5.33-11.1 11.84-15.26 18.14-4.16 6.4-7.89 12.91-12.8 18.35-4.8 5.55-11.74 9.81-19.84 9.49 7.89 1.28 16.11-2.35 21.87-7.68 5.87-5.23 10.56-11.42 15.36-17.18 4.91-5.76 10.03-11.2 16-14.94Zm28.8 54.84c.75 4.91 1.28 9.92 1.39 15.04 1.92 6.19 2.03 12.8-.32 19.1-1.28 3.95-3.41 7.79-4.8 12.06-1.6 4.16-1.28 9.17 1.6 12.59-2.45-3.73-2.13-8.32-.21-12.06 1.81-3.84 4.16-7.57 5.87-11.63 3.84-8.11 3.84-17.92.53-26.35-.96-3.2-2.45-5.97-4.05-8.75Zm71.16-77.45c-4.8-3.31-9.49-6.83-12.27-11.42h-.64c-1.17-.11-2.45-.43-3.73-.75.43.64.64 1.39 1.17 2.03 3.63 5.33 9.07 8.85 14.3 11.95 5.23 3.2 10.67 6.08 14.62 10.35 4.16 4.27 5.44 10.35 4.59 16.11 1.28-5.65.32-12.06-3.73-16.86-3.95-4.69-9.28-8-14.3-11.42ZM210.19 324.92c-1.49-2.99-2.56-6.19-3.63-9.39-1.81 2.13-3.63 4.05-5.33 5.87.96 2.03 2.03 4.16 3.2 6.08 4.27 7.79 10.03 15.04 17.07 20.8 6.93 5.87 15.04 10.03 21.98 15.15s12.06 12.48 14.08 20.8c-1.28-8.43-5.87-16.54-12.7-22.4-6.72-5.87-14.4-10.56-20.48-16.54-6.08-5.76-10.78-12.8-14.19-20.38Zm48.22 247.72c-2.56-1.39-5.44-1.81-8.21-2.13-5.44-.53-10.67-.96-15.36-2.45-9.6-2.77-17.82-8.85-25.28-15.58-3.63-3.41-7.15-7.04-10.56-10.78-3.41-4.16-8.75-8.21-13.87-10.67-8.64-4.05-17.39-6.4-25.92-8.53.64.64 1.39 1.28 2.03 1.92 3.41 3.73 6.29 7.79 8.96 11.95.21.11.53.11.75.21.11.53.32 1.17.53 1.71 2.99 5.01 5.65 10.14 8.21 15.15.21.32.32.64.53.96 2.56 2.77 5.44 5.23 8.43 7.36 4.48 3.2 9.17 6.08 12.8 9.81 3.73 3.73 5.76 8.75 5.87 14.08.53-5.23-.75-10.88-4.27-15.26-3.31-4.48-7.79-8-11.74-11.63s-7.36-7.47-9.49-11.84c-1.17-2.24-1.92-4.69-2.35-7.15.21.11.53.21.85.32 4.48 2.03 7.89 4.27 11.31 7.89 3.73 3.84 7.79 7.47 12.06 10.78 8.53 6.61 18.46 12.59 29.87 14.51 5.65.96 11.42.53 16.64.21 5.23-.53 10.35.85 13.76 5.12-1.28-2.35-2.99-4.48-5.55-5.97ZM127.4 513.11c-.85-.43-1.71-.75-2.56-1.17-3.95-2.24-6.72-5.23-8.32-8.96-2.03-5.12-4.59-9.81-7.36-14.3-5.55-8.96-13.87-19.1-19.1-25.07-9.81-11.2-18.56-17.07-24.75-9.71l2.03 4.37c2.45-5.01 9.81-3.31 18.88 8.21 4.69 5.97 11.2 16.96 15.79 25.82 2.24 4.48 4.37 8.85 5.76 13.44 1.81 5.97 6.4 10.99 11.42 14.19 3.52 2.24 7.04 3.84 10.67 5.23-1.28-3.95-2.03-8-2.45-12.06Zm30.73 13.98c-2.56-2.56-5.44-4.8-8.43-6.83-5.76-1.39-11.42-2.77-16.54-4.69.11 3.84.43 7.68 1.28 11.42 5.55 1.81 11.1 3.09 16.43 4.48 4.69 1.17 9.39 2.24 13.98 3.52-2.13-2.88-4.27-5.44-6.72-7.89Zm-7.79-153.95c5.23 2.45 9.49 5.87 12.8 10.03-1.39-5.23-2.24-10.46-2.67-15.68a55 55 0 0 0-5.65-2.88c-2.24-.96-4.59-1.6-6.93-2.35-3.41 2.13-6.72 4.27-10.03 6.29l3.95 1.17c2.88.96 5.76 2.03 8.53 3.41Zm31.37 30.94c-.75-8.96-3.09-18.35-9.28-26.35-.43-.53-.85-.96-1.28-1.49.64 5.01 1.6 9.92 3.41 14.62 1.71 4.59 4.27 8.85 7.15 13.23Zm1.7 30.41c-1.49-4.59-1.28-10.99-1.28-17.28v-.32c-.53-.85-1.07-1.6-1.71-2.45-3.41-4.59-7.36-9.39-10.67-14.83.96 5.55 1.07 11.52 1.17 17.6.21 6.4-.32 12.91 2.24 20.48 1.28 3.73 4.59 8 9.07 9.81 2.56.96 4.48 1.39 6.19 1.71l.21-2.99c.32-2.24.32-4.48.32-6.72-2.99-.85-4.48-1.92-5.55-5.01Zm62.73 66.14c-6.83-10.56-10.88-22.4-17.39-34.25-3.31-5.87-7.79-11.52-13.55-15.9-5.76-4.48-12.59-7.47-19.52-9.28-.53-.11-.96-.21-1.39-.32-.11 2.03-.32 3.95-.75 5.97-.64 4.27-1.49 7.25-.11 10.78 1.07 2.77 2.56 5.55 4.37 8.21 3.2 4.27 7.15 7.79 11.31 10.67 4.48 3.2 9.17 6.08 12.8 9.81 3.73 3.73 5.76 8.75 5.87 14.08.53-5.23-.75-10.88-4.27-15.26-3.31-4.48-7.79-8-11.74-11.63s-7.36-7.47-9.49-11.84c-1.49-2.99-2.24-6.19-2.67-9.39 9.28 3.41 17.18 9.28 22.51 17.82 6.83 10.24 11.42 22.72 20.16 33.07 8.43 10.46 20.16 18.24 32.97 22.3-12.06-5.87-22.4-14.3-29.12-24.86Z" style="isolation:isolate" opacity=".5" fill="#0074ba"></path><path d="m265.45 54.58-39.58 8.96s1.6-19.31-8.43-49.5C215.52 8.17 249.45-5.27 253.5 2.2c12.27 22.08 11.95 52.38 11.95 52.38" fill="url(#1770301554898-6873784_d)"></path><path d="M336.93 21.62c1.81-8.21-25.92-13.44-27.1-7.47-5.76 29.23-6.93 42.67-6.93 42.67l29.34 6.61c0 .11-1.49-14.4 4.69-41.82Z" fill="url(#1770301554898-6873784_e)"></path><path d="M312.71 8.6c.64-8.43-28.16-10.67-29.34-4.69-5.76 29.23-24.43 47.47-24.43 47.47l57.4 4.8s-5.55-21.12-3.63-47.58" fill="url(#1770301554898-6873784_f)"></path><path d="M120.15 110.81s-46.62 13.02-82.04 31.79c-9.81 5.23-4.48 44.38 9.49 38.83 39.47-15.58 72.55-20.06 72.55-20.06V110.8Z" fill="url(#1770301554898-6873784_g)"></path><path d="m353.79 216.85 21.66 30.08s34.35-6.08 56.22-21.23c12.27-8.53-3.63-33.61-11.52-29.55-31.47 16.11-66.36 20.7-66.36 20.7" fill="url(#1770301554898-6873784_h)"></path><path d="m393.15 249.07 10.67 35.21s25.6-10.99 52.49-10.56c9.71.21 8.32-30.41 1.28-31.37-31.9-4.48-64.44 6.72-64.44 6.72" fill="url(#1770301554898-6873784_i)"></path><path d="m101.59 239.36-25.5 42.46s-42.57-8.53-64.65-26.88c-7.79-6.4 7.89-26.14 13.44-24.43 35.31 10.67 76.71 8.85 76.71 8.85" fill="url(#1770301554898-6873784_j)"></path><path d="m67.87 264.75 2.77 36.91s-30.19 2.45-55.37 18.78c-8 5.23-19.42-21.12-13.76-25.28 25.18-18.78 66.36-30.41 66.36-30.41" fill="url(#1770301554898-6873784_k)"></path><path d="M170.61 71.76c0-4.37-82.47-5.44-80.44 8 12.7 84.17 5.97 126.53-18.99 177.95-16.75 34.35 119.38 58.57 119.49-35.85 0-26.14-19.84-93.67-20.06-150.1" fill="url(#1770301554898-6873784_l)"></path><path d="M92.3 78.37c-.85 5.01 70.31 3.41 75.75-5.12 3.41-5.44-74.04-4.48-75.75 5.12" fill="url(#1770301554898-6873784_m)"></path><path d="M411.72 244.91c-2.13-41.07-62.09-42.03-82.57-52.06-23.58-11.42-31.05 53.66-8.11 87.37 11.2 16.43 47.69 30.19 75.11 22.4 20.38 5.97 39.47-2.24 40.11-4.16 12.38-37.55-16.32-39.9-24.54-53.56Z" fill="url(#1770301554898-6873784_n)"></path><path d="M368.19 121.9c-7.04-134.21-253.16-90.15-192.67 99.86 18.03 56.54 23.58 49.93 44.81 25.18 59.21-69.13 101.35-108.6 147.86-125.03Z" fill="url(#1770301554898-6873784_o)"></path><path d="M445.43 116.46c-60.06-5.87-113.94 9.17-141.14 24-9.28 5.12-23.04-.85-32.22-1.39-8.64-.53-26.14 26.67-18.14 33.07 8.43 6.72-29.44 40.43-36.38 73.29-7.04 33.29 104.23 47.26 105.51 36.27 6.51-53.24 10.03-121.94 116.18-120.02 18.46.43 18.56-44.06 6.19-45.23Z" fill="url(#1770301554898-6873784_p)"></path><path d="M443.83 118.49c-9.81 1.07-12.91 41.93-2.99 41.07 14.94-1.07 15.04-42.35 2.99-41.07" fill="url(#1770301554898-6873784_q)"></path><path d="M38.75 361.94c-10.35 54.73 11.42 71.16 20.38 75.75 1.17.64 15.36-21.76 21.76-32.75 10.14-5.12 22.94-19.84 29.23-32.22 13.44-2.99 35.53-14.94 48.01-29.98 14.94-4.05 31.05-16.96 39.9-32.33 20.91-12.38 33.71-34.25 33.18-52.28-.32-11.31-17.07-9.07-29.44-26.03-20.8-28.59-182.11-7.57-163.01 129.83Z" fill="url(#1770301554898-6873784_r)"></path></g></svg>
