<svg xmlns="http://www.w3.org/2000/svg" data-name="Layer 1" style="" viewBox="0 0 512 575.99"><g><defs><linearGradient id="1770301554900-7418449_j" x1="-619.65" x2="-619.65" y1="407.02" y2="396.68" gradientTransform="matrix(6.57 0 0 6.57 4235.16 -2317.09)" gradientUnits="userSpaceOnUse"><stop offset="0" stop-color="#a6694a"></stop><stop offset="1" stop-color="#4f2a1e"></stop></linearGradient><linearGradient id="1770301554900-7418449_p" x1="-594.45" x2="-594.45" y1="407.02" y2="396.68" gradientTransform="matrix(6.57 0 0 6.57 4252.89 -2317.09)" gradientUnits="userSpaceOnUse"><stop offset="0" stop-color="#a6694a"></stop><stop offset="1" stop-color="#4f2a1e"></stop></linearGradient><linearGradient id="1770301554900-7418449_w" x1="256" x2="256" y1="212" y2="577.99" gradientTransform="matrix(1 0 0 -1 0 577.99)" gradientUnits="userSpaceOnUse"><stop offset="0" stop-color="#473834"></stop><stop offset=".27" stop-color="#594640"></stop><stop offset=".72" stop-color="#715950"></stop><stop offset="1" stop-color="#7a6056"></stop></linearGradient></defs><path id="1770301554900-7418449_b" d="M28.46 277.94c28.33 3.46 48.77 99.17 30.98 124.41-2.5 3.54-17.11 9.16-27.91-13.12-6.01-12.33-23.3-22.64-28.65-48.11-6.87-32.63-2.58-66.63 25.59-63.19Z" class="ab" data-name="Path" fill="#ffc940"></path><path id="1770301554900-7418449_c" d="M29.23 296.28c7.39 2.34 15.46 13.71 19.83 32.59-25.83-5.6-19.37 37.81 3.06 38.62-.19 4.37-.48 8.87-1.02 13.58-10.82-15.83-21.79-9.48-32.68-33.07-9.8-21.24-7.48-57.51 10.82-51.72Z" class="af" data-name="Path" fill="#f0a429"></path><path id="1770301554900-7418449_d" d="M483.52 277.94c-28.31 3.46-48.77 99.17-30.93 124.41 2.47 3.54 17.09 9.16 27.91-13.12 6.01-12.33 23.27-22.64 28.63-48.11 6.87-32.63 2.58-66.65-25.61-63.19Z" class="ab" data-name="Path" fill="#ffc940"></path><path id="1770301554900-7418449_e" d="M462.95 328.81c4.37-18.84 12.42-30.19 19.79-32.52 18.31-5.81 20.65 30.47 10.84 51.73-10.88 23.58-21.88 17.23-32.68 33.07-.54-4.73-.83-9.23-1.02-13.6 22.21-1.07 28.59-43.95 3.08-38.68Z" class="af" data-name="Path" fill="#f0a429"></path><path d="M256.02 32C101.23 32 26.65 149.11 36 311.93c1.88 32.75 22.16 107.6 41.35 145.94 33.88 67.67 122.29 118.12 178.64 118.12s144.83-50.45 178.66-118.12c19.21-38.34 39.5-113.18 41.35-145.94C485.38 149.11 410.8 32 256 32Z" class="ab" fill="#ffc940"></path><path id="1770301554900-7418449_f" d="M292.08 403.43c-3.81-2.67-12.79 1.44-36.08 1.44s-32.27-4.11-36.11-1.44c-4.57 3.23 2.73 17.77 36.11 17.77s40.68-14.54 36.08-17.77" class="af" data-name="Path" fill="#f0a429"></path><path id="1770301554900-7418449_g" d="M256 455.33c-34.89-10.27-86.62 4.87-86.62 4.87 19.69 21.46 34.12 49.27 86.62 49.27 60.13 0 70.38-31.6 86.64-49.27 0 0-51.76-15.19-86.64-4.87" class="af" data-name="Path" fill="#f0a429"></path><path id="1770301554900-7418449_h" d="M182.36 463.82c36.61 30.71 110.47 30.89 147.29 0-39.01 1.67-108.01 1.7-147.29 0" class="ad" data-name="Path" fill="#fff"></path><path id="1770301554900-7418449_i" d="M222.62 323.77c1.27 9.94-5.46 21.71-24.13 30.52-11.85 5.62-36.52 12.22-68.92-1.44-14.52-6.12-28.67-25.2-27.39-35.75 17.57-33.1 104-37.95 120.44 6.68Z" class="ad" data-name="Path" fill="#fff"></path><circle id="1770301554900-7418449_k" cx="163.98" cy="323.1" r="33.96" data-name="Oval" fill="url(#1770301554900-7418449_j)"></circle><path id="1770301554900-7418449_l" d="M147 322.47c0 23.5 33.96 23.5 33.96 0 0-21.8-33.96-21.8-33.96 0" class="ac" data-name="Path" fill="#1a1626"></path><path id="1770301554900-7418449_m" d="M141.86 312.98c0 9.83 14.23 9.83 14.23 0 0-9.15-14.23-9.15-14.23 0" class="ae" data-name="Path" fill="#ab968c"></path><path id="1770301554900-7418449_n" d="M222.8 325.08c-13.79-44.33-107.81-37.79-120.61-7.98 4.73-38.15 108.85-48.23 120.61 7.98" class="af" data-name="Path" fill="#f0a429"></path><path id="1770301554900-7418449_o" d="M289.4 323.77c-1.29 9.94 5.46 21.71 24.13 30.52 11.83 5.62 36.5 12.22 68.92-1.44 14.52-6.12 28.67-25.2 27.39-35.75-17.55-33.1-104.02-37.95-120.44 6.68Z" class="ad" data-name="Path" fill="#fff"></path><circle id="1770301554900-7418449_q" cx="347.27" cy="323.1" r="33.96" data-name="Oval" fill="url(#1770301554900-7418449_p)"></circle><path id="1770301554900-7418449_r" d="M330.31 322.47c0 23.5 33.96 23.5 33.96 0-.01-21.8-33.96-21.8-33.96 0" class="ac" data-name="Path" fill="#1a1626"></path><path id="1770301554900-7418449_s" d="M325.14 312.98c0 9.83 14.23 9.83 14.23 0 0-9.15-14.23-9.15-14.23 0" class="ae" data-name="Path" fill="#ab968c"></path><path id="1770301554900-7418449_t" d="M289.23 325.08c13.77-44.31 107.73-37.96 120.61-7.98-4.77-38.15-108.85-48.23-120.61 7.98" class="af" data-name="Path" fill="#f0a429"></path><path id="1770301554900-7418449_u" d="M412.02 270.85c-29.2-18.44-88.04-23.79-111.08-14.36-4.94 1.79-3.32 17.23.79 16.11 31.75-9.5 81.11-5.94 108.44 9.46 3.67 2.02 6.31-8.63 1.86-11.21Z" class="af" data-name="Path" fill="#f0a429"></path><path id="1770301554900-7418449_v" d="M99.96 270.85c29.23-18.44 88.04-23.79 111.1-14.36 4.92 1.79 3.32 17.23-.79 16.11-31.81-9.5-81.09-5.94-108.48 9.48-3.63 1.99-6.27-8.65-1.83-11.23" class="af" data-name="Path" fill="#f0a429"></path><path d="M255.73 21.33c-13.96 0-26.88.9-39.32 2.21 5.16-5.44 11.61-9.62 20.56-11.27-18.34-4.98-39.02-2.69-55.12 9.21-3.36-5.74-4.77-13.14-1.42-21.47-22.45 13.64-26.73 30.1-26.73 30.1-6.42-10.4-6.77-24.02-6.77-24.02s-24.21 17.11-20.7 42.14c-21.62-9.44-39.79 1.55-39.79 1.55s10.6 4.57 15.71 14.08c-121.1 87.9-79.64 283.36-56.64 302.13 0 0 6.82-146.03 68.46-189.62-3.34 27.56-10.7 47.02-10.7 47.02s60.49-9.56 113.76-43.55c-6.21 30.44-22.88 52.22-22.88 52.22s110-15.34 142.67-67.11c0 0 21.56 45.33 74.89 78 0 0 3.34-34-4.02-58.05 52.29 51.43 58.44 180.87 58.44 180.87 30.59-27.4 90.47-344.44-210.4-344.44" fill="url(#1770301554900-7418449_w)"></path><path d="m404.08 162.06 5.39 30.09s44.58 58.36 56.66 173.62c5.58-124.61-62.05-203.71-62.05-203.71" class="aa" fill="#473834"></path><path d="M398.04 150.83s32.67 40.67 13.66 92.12c2.43-40.29-13.66-92.12-13.66-92.12m-53.98-14.33c7.32 104.42-151.14 95.63-149.92 95.55 0 0 136.15-26.05 149.92-95.55m-95.36 9.33c-29.77 84.21-139.02 76.95-145.45 77.56.01 0 97.65-28.28 145.45-77.56M123.04 165.5C51.89 248.84 45.49 366 45.49 366s-18.78-125.83 77.55-200.5" class="aa" fill="#473834"></path></g></svg>
