<svg xmlns="http://www.w3.org/2000/svg" data-name="Layer 1" style="" viewBox="0 0 512 698.16"><g><defs><radialGradient id="1770301554902-9427801_b" cx="263.85" cy="424.63" r="32.53" fx="263.85" fy="424.63" gradientTransform="matrix(11.64 0 0 -14 -2722.84 6383.85)" gradientUnits="userSpaceOnUse"><stop offset=".32" stop-color="#edb547" stop-opacity="0"></stop><stop offset=".87" stop-color="#c28100" stop-opacity=".9"></stop></radialGradient></defs><path d="M31.59 374.78C-68.63 156.61 86.89 0 255.91 0c125.61 0 232.16 118.42 250.57 233.64 23.82 148.38-27.88 338.38-187.25 363.64-105.96 16.79-138.73 157.09-270.5 75.66-105.49-65.2 48.77-154.63-17.14-298.16" fill="#ffc940"></path><path d="M274.96 508.22s73.25-83.77 160.16-89.68C523.61 220.75 351 8.54 186 64.86 41.51 114.16 28.32 311.95 79.35 332.55c57.46 23.18 91.93 81.84 25.46 127.4-47.14 32.31 9.61 139.4 49.24 92.5 40.3-47.78 68.72-62.21 120.91-44.23" fill="url(#1770301554902-9427801_b)"></path><path d="M274.96 508.22s-21.91-32.86-69.96-27.75c-14.68 1.59 39.7-43.64-21.34-86.29-8.34-93-82.38-89.38-72.36-114.46 13.86-34.45 96.38-22.11 137.56 50.77.62-128.43-174.54-79.45-142.33-146.41 74.75-155.32 382.29-68.71 328.59 234.46C523.61 220.75 351 8.54 186 64.86 41.51 114.16 28.32 311.95 79.35 332.55c57.46 23.18 91.93 81.84 25.46 127.4-47.14 32.31 9.61 139.4 49.24 92.5 40.3-47.78 68.72-62.21 120.91-44.23" style="isolation:isolate" fill="#8a1e1e" opacity=".25"></path></g></svg>
