<svg xmlns="http://www.w3.org/2000/svg" data-name="Layer 1" style="" viewBox="0 0 512 399.99"><g><defs><radialGradient id="1770301554917-5833479_d" cx="-24.77" cy="349.99" r="33.55" fx="-24.77" fy="349.99" gradientTransform="matrix(.95153 -.39433 -.4075 -1.01102 286.89 603.17)" gradientUnits="userSpaceOnUse"><stop offset=".52" stop-color="#ffc940"></stop><stop offset=".71" stop-color="#ffc33c"></stop><stop offset=".95" stop-color="#ffb22f"></stop><stop offset="1" stop-color="#ffae2c"></stop></radialGradient><radialGradient id="1770301554917-5833479_e" cx="121.28" cy="197.68" r="40.16" fx="121.28" fy="197.68" gradientTransform="matrix(.92874 -.04835 -.07492 -1.11762 72.69 516.37)" gradientUnits="userSpaceOnUse"><stop offset=".52" stop-color="#ffc940"></stop><stop offset=".71" stop-color="#ffc33c"></stop><stop offset=".95" stop-color="#ffb22f"></stop><stop offset="1" stop-color="#ffae2c"></stop></radialGradient><radialGradient id="1770301554917-5833479_f" cx="222.14" cy="108.46" r="40.87" fx="222.14" fy="108.46" gradientTransform="matrix(1.02 0 0 -1.05 -10.85 436.42)" gradientUnits="userSpaceOnUse"><stop offset=".52" stop-color="#ffc940"></stop><stop offset=".71" stop-color="#ffc33c"></stop><stop offset=".95" stop-color="#ffb22f"></stop><stop offset="1" stop-color="#ffae2c"></stop></radialGradient><radialGradient id="1770301554917-5833479_g" cx="269.6" cy="-46.34" r="37.31" fx="269.6" fy="-46.34" gradientTransform="matrix(1.02 0 0 -.84 -10.85 302.06)" gradientUnits="userSpaceOnUse"><stop offset=".52" stop-color="#ffc940"></stop><stop offset=".71" stop-color="#ffc33c"></stop><stop offset=".95" stop-color="#ffb22f"></stop><stop offset="1" stop-color="#ffae2c"></stop></radialGradient><linearGradient id="1770301554917-5833479_b" x1="127.06" x2="297.86" y1="127.59" y2="330.99" gradientTransform="matrix(1 0 0 -1 0 401.99)" gradientUnits="userSpaceOnUse"><stop offset=".53" stop-color="#ffc940"></stop><stop offset=".87" stop-color="#ffb22f"></stop><stop offset=".91" stop-color="#ffae2c"></stop></linearGradient><linearGradient id="1770301554917-5833479_c" x1="366.02" x2="302.33" y1="150.09" y2="347.23" gradientTransform="matrix(1 0 0 -1 0 401.99)" gradientUnits="userSpaceOnUse"><stop offset="0" stop-color="#ffae2c"></stop><stop offset=".22" stop-color="#ffb531"></stop><stop offset=".54" stop-color="#ffc940"></stop></linearGradient></defs><path d="M430.55 221.2C398.95 140.8 329.2 62.49 229.92 42.73c-36.56-7.36-94.87 2.48-158.63-41.36-26.31-18-93.11 146.79-64.15 158.47 15.36 6.24 54.48 29.6 64.56 48.16 54.16 100.07 225.19 217.35 256.79 136.47 25.76 4.64 42.88-5.68 43.76-30.08 21.2-3.12 40.4-20.4 40.4-38.56 28-1.28 26.24-33.76 17.92-54.64Z" fill="url(#1770301554917-5833479_b)"></path><path d="M220.09 276.4c22.4 8.16 7.28 14.72 107.83 75.2l5.44-12.48c-100.15-44.96-88.16-60.96-113.27-62.72m37.35-40c12.96 21.52 39.92 16.48 111.67 83.44l8-10.96c-88.56-66.16-98.95-53.12-119.67-72.48m35.28-54.88c3.6 19.92 41.6 17.28 115.75 98.79l10-8.88c-84.8-77.28-114.63-73.44-125.75-89.92Z" class="n" fill="#db942d"></path><path d="M436.15 218.88C401.59 131.2 326.88 55.77 231.12 36.73c-5.44-1.12-11.36-2.16-17.76-3.2-36.08-6.24-90-.88-142.07-32.16 55.44 38.08 102.87 37.68 140.07 44.16 6.24 1.04 12.08 2.08 17.44 3.2 91.68 18.24 163.19 90.96 196.23 174.71 5.04 12.72 7.36 29.84 1.36 39.28-2.8 4.48-7.36 6.8-13.92 7.12l-5.68.24v5.84c0 14.56-16.48 29.76-35.28 32.56l-4.96.72-.16 5.04c-.32 8.96-3.12 15.68-8.24 19.84-6.32 5.12-16.16 6.64-28.48 4.4l-4.8-.88-1.84 4.64c-5.68 14.48-16.24 22-32.4 23.04-58.48 3.68-172.23-78.4-215.59-158.47-11.36-20.96-41.76-38.48-67.84-47.04 29.04 14.56 50.56 35.04 59.36 51.12 40.32 74.72 152.63 166.71 220.31 166.71 1.52 0 3.04-.08 4.48-.16 18.96-1.2 33.04-10.24 40.88-26.24 13.76 1.68 25.28-.96 33.44-7.6 6.8-5.6 11.04-13.84 12.32-24 20.4-4.88 37.28-20.96 40.32-38.24 9.84-1.92 15.28-7.44 18.24-12.08 8.8-14 5.28-35.92-.4-50.4" class="n" fill="#db942d"></path><path d="M440.79 26.25c-30.96 25.2-65.6 37.2-72.64 34.88-78.88-26.4-116.63-20-145.75-17.52-22.64 1.92-30.48 33.84-70.48 76.24-19.92 21.12 26.48 80.96 84.24-5.04 12.72-18.96 147.75 29.2 198.95 117.27 10.08-18.56 54.4-50.32 69.84-56.56 28.96-11.76-39.04-169.59-64.16-149.27" fill="url(#1770301554917-5833479_c)"></path><path d="M97.61 252.16c-4.08 10.16-4.32 24.56-4.24 33.52.16 20.88 29.36 48.88 50.08 14.72 4.24-6.96 3.36-27.12 3.84-37.44 1.36-27.36-40.08-34.8-49.68-10.8" fill="url(#1770301554917-5833479_d)"></path><path d="M120.97 322.47c-2.72 0-5.2-.48-7.12-1.04-14.24-4-26.4-20.4-26.56-35.76-.08-10.08.32-24.8 4.72-35.84 5.52-13.84 20.64-20.96 36.48-17.36 12.88 2.88 25.52 13.52 24.64 30.72-.08 2.24-.16 5.04-.16 8-.24 14.48-.72 26-4.56 32.32-9.12 15.28-19.52 18.96-27.44 18.96m-.32-78.63c-7.04 0-14.4 3.04-17.44 10.64-4 10-3.92 25.92-3.84 31.12.08 9.84 8.72 21.6 17.76 24.16 9.6 2.72 16.8-5.36 21.2-12.56 2.4-3.92 2.64-17.84 2.72-26.16.08-3.12.08-6 .24-8.4.56-10.8-7.52-16.48-15.28-18.24-1.76-.4-3.52-.56-5.36-.56" class="n" fill="#db942d"></path><path d="M155.93 280.96c-5.2 6.8-20.64 27.44-23.52 35.12-7.92 21.2 16.96 59.84 40.8 37.36 5.52-5.2 28.64-36.4 31.92-46.16 8.72-26-33.2-47.36-49.2-26.32" fill="url(#1770301554917-5833479_e)"></path><path d="M158.17 366.31c-4.96 0-9.92-1.6-14.64-4.88-14.4-9.84-22.32-32.48-16.64-47.6 2.8-7.44 14.8-24 24.4-36.64 10.64-14 29.2-12.8 42.08-5.84 12.72 6.96 23.12 21.36 17.6 37.76-3.76 11.2-27.76 43.28-33.52 48.72-6.08 5.68-12.72 8.48-19.28 8.48m2.56-81.67c-12.32 16.16-20.96 29.04-22.64 33.52-3.76 10 2.24 26.48 12.08 33.2 6.32 4.32 12.72 3.44 18.96-2.48 5.2-4.88 27.52-35.28 30.32-43.68 3.44-10.32-4.24-18.88-11.92-23.12-8.48-4.56-20.48-5.76-26.8 2.56" class="n" fill="#db942d"></path><path d="M201.77 312.24c-5.36 6.48-23.2 34.72-26.16 42.16-10.96 27.36 24.24 46.88 42.48 30.08 15.28-14.16 23.68-38.48 28.16-47.28 11.52-22.4-24.32-49.44-44.48-24.96" fill="url(#1770301554917-5833479_f)"></path><path d="M201.61 396.87c-6.88 0-14-2.24-20.32-6.64-12.56-8.88-16.96-23.84-11.2-38.08 3.36-8.4 21.68-37.2 27.12-43.76 12.64-15.44 30.48-14.08 42.56-6 11.52 7.76 19.28 23.2 11.92 37.68-.88 1.76-1.92 4.16-3.2 6.96-5.28 11.92-13.28 29.92-26.32 42-5.68 5.2-13.04 7.84-20.56 7.84m19.44-88.23c-4.96 0-10.16 2.08-14.64 7.52-5.04 6.16-22.48 33.84-25.2 40.56-5.36 13.44 3.92 21.44 6.96 23.52 7.2 5.12 18.4 6.64 25.92-.24 11.2-10.4 18.56-26.96 23.44-38 1.36-3.04 2.48-5.68 3.52-7.52 4.32-8.4-1.04-17.28-7.92-21.84-3.52-2.4-7.68-4-12.08-4" class="n" fill="#db942d"></path><path d="M246.88 339.19c-4.16 5.92-14.4 25.04-16 31.36-4.96 18.96 26 32.72 42.08 15.44 9.44-10.16 14.48-24 15.52-32.32 2.72-22.64-26.16-36.8-41.6-14.48" fill="url(#1770301554917-5833479_g)"></path><path d="M254.64 399.99c-6.16 0-12.08-1.68-16.88-4.4-10.4-5.92-15.44-16.32-12.72-26.64 2-7.6 12.72-27.28 16.96-33.36 8.4-12.08 21.92-16.8 34.48-11.84 12.4 4.88 19.68 17.2 18 30.64-1.2 10-7.04 24.96-17.12 35.76-6.64 7.04-14.88 9.84-22.72 9.84m11.6-66c-5.44 0-10.64 3.04-14.56 8.64-4.24 6.08-13.84 24.4-15.12 29.44-1.84 7.2 4.88 11.68 6.96 12.88 6.96 3.92 17.68 4.64 24.96-3.12 8.24-8.8 12.96-21.12 13.92-28.88 1.12-9.04-4.4-15.44-10.4-17.76q-2.88-1.2-5.76-1.2" class="n" fill="#db942d"></path><path d="M196.01 97.69c-1.2 5.44-20.88 29.84-25.92 30.4-12.8 1.28-15.92-5.84-12.96-9.92 4.48-6.08 20-23.2 27.52-32.8 3.2-4.08 12.16 8.8 11.36 12.32" class="o" style="isolation:isolate" fill="#fff" opacity=".3"></path><path d="M435.43 221.04c-45.84-70.16-144.07-115.11-184.71-116.47-9.76-.24-16.24 1.84-19.52 6.72-26.72 39.84-47.84 43.52-57.92 42.16-10.64-1.44-16.88-9.12-19.04-15.28-1.92-5.52-1.2-10.8 2-14.16 16.64-17.6 27.68-33.36 36.64-46 13.12-18.56 19.84-27.52 30-28.4l7.12-.64c27.36-2.56 64.8-6.08 136.31 17.84 10.88 3.68 46.4-15.84 74.48-40.64-31.04 21.36-65.68 30-70.72 29.12-73.92-24.8-112.79-21.12-141.19-18.48l-6.96.64c-16.16 1.36-25.68 14.8-38.8 33.44-8.72 12.32-19.52 27.68-35.52 44.64-6.32 6.72-8.08 16.72-4.64 26.64 4.32 12.4 15.6 21.6 28.8 23.28 12.96 1.76 39.04-2.16 69.36-47.36.56-.56 4-2.08 12.88-1.2 39.68 3.92 135.11 47.92 175.91 118.15l5.36 9.2 5.04-9.36c9.04-16.72 38.32-40.96 64.56-59.44-32.64 15.6-53.28 25.92-69.44 45.6" class="n" fill="#db942d"></path><path d="M106.49 268.8c-.88-3.84-.72-12.48.32-15.52 2.64-7.6 27.92-5.92 29.84 2.08.8 3.2-.96 12.64-2.72 16.72-5.6 12.4-24.88 8.08-27.44-3.28m54.24 27.36c1.28-4 6.32-11.68 8.88-13.92 6.96-6 28.88 10.4 26.24 19.12-1.04 3.36-7.84 11.04-11.76 13.68-12 8-27.2-7.04-23.36-18.88m44.88 32.39c1.04-3.92 5.12-12.24 7.68-14.16 5.68-4.24 27.76 7.84 25.2 15.76-1.04 3.28-6.88 11.28-10.4 14.16-10.8 8.8-25.6-4.16-22.48-15.76m47.91 22.8c.48-3.28 2.96-10.16 4.8-12.16 4.08-4.48 22.56 4.72 22.16 10.24-.16 2.8-4.4 9.76-6.96 12.4-7.84 8.24-21.28-.8-20-10.48" class="o" style="isolation:isolate" fill="#fff" opacity=".3"></path></g></svg>
