<svg xmlns="http://www.w3.org/2000/svg" data-name="Layer 1" style="" viewBox="0 0 512 550.1"><g><defs><radialGradient id="1770301554911-5544518_b" cx="319.24" cy="354.27" r="316.08" fx="319.24" fy="354.27" gradientTransform="matrix(.89 0 0 -.98 13.69 525.05)" gradientUnits="userSpaceOnUse"><stop offset=".45" stop-color="#ffc940"></stop><stop offset=".73" stop-color="#ffc73e"></stop><stop offset=".87" stop-color="#ffbf39"></stop><stop offset=".98" stop-color="#ffb22f"></stop><stop offset="1" stop-color="#ffae2c"></stop></radialGradient><radialGradient id="1770301554911-5544518_c" cx="248.33" cy="-801.59" r="428.23" fx="248.33" fy="-801.59" gradientTransform="matrix(.86 -.00105 -.00053 -.31 -21.07 -20.25)" gradientUnits="userSpaceOnUse"><stop offset=".2" stop-color="#db942d" stop-opacity=".8"></stop><stop offset=".62" stop-color="#db942d" stop-opacity="0"></stop></radialGradient><linearGradient id="1770301554911-5544518_d" x1="11.51" x2="30.7" y1="324.35" y2="138.49" gradientTransform="matrix(.99958 .02914 .04315 -.86911 42.26 365.92)" gradientUnits="userSpaceOnUse"><stop offset=".56" stop-color="#ffc940"></stop><stop offset=".75" stop-color="#ffae2c"></stop></linearGradient><linearGradient id="1770301554911-5544518_e" x1="139.22" x2="172.86" y1="401.26" y2="182.55" gradientTransform="matrix(.97834 .0571 .06589 -.86764 8.99 382.99)" gradientUnits="userSpaceOnUse"><stop offset=".5" stop-color="#ffc940"></stop><stop offset=".7" stop-color="#ffae2c"></stop></linearGradient></defs><path d="M380.28 446.59H88.5c8.72 31.96 4.36 49.41 4.84 72.35 1.04 41.53 277.47 41.53 277.47 0 .09-20.48-1.61-44 9.48-72.35Z" fill="#ffae2c"></path><path d="M79.96 446.59c10.53 31.48 10.62 45.23 13.47 72.35-.57-23.33 5.41-41.63.38-72.35H79.97Zm289.99 0c-5.69 24.75.85 48.36.85 72.35 4.17-30.25 5.22-49.97 14.98-72.35h-15.84Z" class="l" fill="#db942d"></path><path d="M21.45 144.18c-43.34 192.41 3.6 356.36 233.18 339.2 157.79 38.41 250.44-156.37 250.44-234.51C350.51 118.11 21.45 144.18 21.45 144.18" fill="url(#1770301554911-5544518_b)"></path><path d="M147.77 475.7c-37.55-12.9-64.86-33.85-86.48-58.79C-.55 345.79 9.22 230.19 28.28 145.7l-13.47-3.03C-13.54 268.22-1.02 366.18 50.85 425.92c24.18 27.97 54.43 43.43 96.91 49.78Zm350.39-226.83c0 47.13-37.17 144.23-104.41 196.67-23.9 18.68-48.17 34.71-75.67 40.97 33.95-1.52 58.13-9.86 84.21-30.16 71.6-55.85 109.72-156.37 109.72-207.48h-13.84Z" class="l" fill="#db942d"></path><path d="M10.36 208.38c-37.17 208.53 389.27 164.05 395.91 70.84C270.76 123.8 24.68 128.06 10.36 208.38" fill="url(#1770301554911-5544518_c)"></path><path d="M324.71 229.34v-17.92c-87.81 13.94-172.49 131.24-85.63 231.29-72.07-112.56 12.04-197.91 85.63-213.36Z" class="l" fill="#db942d"></path><path d="M18.23 133.28c-3.6-51.3 101.09-72.92 104.41-21.62 1.52 24.18 6.54 96.72 6.54 96.72 2.84 45.9-89.33 51.21-100.04 6.45-6.07-25.32-9.39-61.16-10.91-81.55" fill="url(#1770301554911-5544518_d)"></path><path d="M79.68 252.48c-25.32 0-51.4-11.57-57.28-36.13-6.64-27.69-9.96-67.04-11-82.6-1.23-16.97 7.49-32.62 24.47-43.91 22.19-14.79 53.67-18.68 73.4-9.1 12.23 5.97 19.44 16.78 20.39 30.44 1.52 24.18 6.54 96.63 6.54 96.63 1.42 22.47-16.12 39.64-44.47 43.81-4.08.57-8.06.85-12.04.85Zm3.98-163.3c-13.37 0-28.45 4.27-40.11 12.04-7.4 4.93-19.53 15.55-18.4 31.58 1.04 15.27 4.27 53.67 10.72 80.41 4.93 20.58 31.29 28.16 53.67 24.94 16.59-2.47 33.85-11.47 32.72-29.4s-4.93-72.45-6.54-96.63c-.57-8.72-4.84-15.17-12.61-18.97-5.41-2.75-12.23-3.98-19.44-3.98Z" class="l" fill="#db942d"></path><path d="M354.4 63.77c9.96-67.71 117.59-47.7 117.59 12.04 0 25.7-4.65 74.35-11.85 101.85-10.62 40.78-114.46 9.86-114.17-24.94.09-22.38 4.65-63.06 8.44-88.95Z" class="j" fill="#ffc940"></path><path d="M424.85 203.83c-4.17 0-8.44-.28-13.09-.85-30.63-3.98-73.02-23.71-72.83-50.35.19-22 4.55-62.78 8.53-89.9 4.65-31.77 30.16-50.64 64.77-48.17 32.24 2.37 66.57 24.56 66.57 61.16 0 27.12-4.93 76.34-12.14 103.65-3.98 15.74-19.34 24.47-41.82 24.47ZM361.22 64.72c-3.98 26.74-8.25 66.66-8.44 88-.09 14.41 29.97 32.53 60.78 36.6 8.25 1.04 35.37 3.32 39.73-13.47 6.83-26.27 11.66-73.87 11.66-100.14 0-28.26-27.69-45.52-53.77-47.41-21.24-1.61-45.61 7.21-49.97 36.41Z" class="l" fill="#db942d"></path><path d="M120.55 91.27c-2.28-55.76 112.75-72.26 114.65-16.5 0 0 2.75 84.49 1.14 112.18-2.94 51.49-92.27 67.04-105.16 18.59-10.62-39.83-9.58-88.38-10.62-114.27Z" fill="url(#1770301554911-5544518_e)"></path><path d="M175.08 241.67c-25.41 0-44.85-12.99-50.64-34.42-8.91-33.47-9.77-71.88-10.43-100.04-.09-5.88-.28-11.19-.47-15.74-.76-17.64 8.63-33.47 26.27-44.57 24.28-15.17 58.89-18.02 80.6-6.54 13.47 7.11 21.15 19.16 21.62 34.04.09 3.51 2.75 85.16 1.14 112.85-1.8 31.58-31.67 51.02-60.31 53.96-2.56.28-5.12.47-7.78.47Zm13.65-194.49c-14.13 0-29.4 3.98-41.44 11.47-9.39 5.88-20.48 16.31-19.82 32.34.19 4.65.28 10.05.47 15.93.57 27.41 1.42 64.86 9.96 96.82 5.41 20.29 26.17 25.6 43.72 23.8 22.76-2.28 46.47-17.16 47.89-41.06 1.52-27.03-1.14-110.76-1.14-111.52-.38-10.05-5.12-17.54-14.32-22.38-6.92-3.7-15.84-5.41-25.32-5.41Z" class="l" fill="#db942d"></path><path d="M234.44 47.74c1.04-57.37 125.84-52.44 122.23 4.74-1.99 31.77-2.47 83.83-6.07 111.52-6.35 49.6-109.81 36.03-113.89-5.5-3.6-36.89-2.94-74.82-2.28-110.76Z" class="j" fill="#ffc940"></path><path d="M301.2 202.6h-1.61c-32.34-.47-67.23-16.88-69.89-43.53-3.6-37.17-2.94-74.82-2.28-111.23v-.38c.28-16.22 9.2-29.78 25.13-38.22 25.6-13.56 64.67-12.04 89.04 3.51 15.08 9.67 22.85 23.9 21.81 40.02-.76 11.57-1.23 25.89-1.8 40.68-.95 26.27-1.99 53.39-4.27 71.22-2.94 23.61-24.37 37.93-56.14 37.93ZM234.44 47.74l6.92.09v.38c-.66 36.03-1.23 73.3 2.28 109.62 1.8 18.11 30.53 30.63 56.33 31.01 19.63.19 41.35-6.35 43.81-25.79 2.18-17.26 3.22-44.1 4.17-69.98.57-14.98 1.14-29.4 1.8-41.06.76-11.28-4.55-20.58-15.55-27.59-20.2-12.9-53.86-14.22-75.1-2.94-11.57 6.16-17.54 14.98-17.83 26.36l-6.83-.09Z" class="l" fill="#db942d"></path><path d="M407.31 142.67c-110.57 8.34-136.27-12.23-174.77-11.95-49.6.28-46.37 127.07 106.49 117.4 0 0 3.03 27.88 22.09 44.76 0 0 65.62-49.97 143.95-44 0-53.96-82.6-107.35-97.77-106.21Z" class="j" fill="#ffc940"></path><path d="m336.28 252.19-7.11-8.53c16.59-4.17 37.08-15.55 37.08-15.55s-9.2 16.31-29.97 24.09Z" class="l" fill="#db942d"></path><path d="M307.74 171.02c-9.29 2.28-67.42-6.54-73.87-12.99-16.22-16.03-9.29-25.03 0-23.99 14.03 1.61 56.61 10.15 79.28 13.37 9.58 1.42.76 22.19-5.41 23.61" style="isolation:isolate" fill="#fff" opacity=".3"></path><path d="M469.71 172.92c-22.76-20.96-51.59-37.84-62.97-37.08-72.35 5.5-108.29-1.71-134.56-6.92-13.75-2.75-25.7-5.12-39.16-5.12h-.57c-12.42.09-23.14 6.64-29.49 18.21-9.86 17.92-7.4 43.15 6.16 64.39 12.71 19.91 45.52 52.06 124.04 48.93 2.18 9.96 9.2 27.97 27.88 37.65-14.03-19.91-15.93-52.06-15.93-52.06l-6.54.38c-75.86 4.74-106.3-24.37-117.78-42.2-12.42-19.34-11.85-39.26-5.69-50.35 2.75-5.03 7.97-10.91 17.35-11 12.23.19 23.14 2.09 36.98 4.84 27.03 5.41 64.1 12.71 138.26 7.11h.09c5.31 0 31.1 12.71 55.95 36.7 22.09 21.43 34.33 45.33 34.33 64.2l13.94-1.71c0-30.63-22.95-58.22-42.29-75.96Z" class="l" fill="#db942d"></path></g></svg>
