<svg xmlns="http://www.w3.org/2000/svg" data-name="Layer 1" style="" viewBox="0 0 512 495.83"><g><defs><radialGradient id="1770301554916-4804192_b" cx="432.16" cy="1656.35" r="218.38" fx="432.16" fy="1656.35" gradientTransform="matrix(-.00593 .99998 1.19006 -.00725 -1869.064 -202.194)" gradientUnits="userSpaceOnUse"><stop offset=".69" stop-color="#ffc940"></stop><stop offset=".97" stop-color="#ffb12e"></stop><stop offset="1" stop-color="#ffae2c"></stop></radialGradient><radialGradient id="1770301554916-4804192_c" cx="891.81" cy="845.76" r="218.38" fx="891.81" fy="845.76" gradientTransform="matrix(.00593 .99998 -1.19006 -.00725 1416.94 -666.12)" gradientUnits="userSpaceOnUse"><stop offset=".69" stop-color="#ffc940"></stop><stop offset=".97" stop-color="#ffb12e"></stop><stop offset="1" stop-color="#ffae2c"></stop></radialGradient></defs><path d="M29.52 416.92c9.12 9.2 3.2 62.62 3.2 68.06 0 14.48 125.4 14.48 125.4 0 0-4.96-3.76-60.54 7.04-68.06H29.53Z" class="g" fill="#ffae2c"></path><path d="M160.51 416.92c-9.68 26.87-2.48 61.98-2.48 68.06 2.88-6.16-.24-42.63 10.8-68.06zm-126.99 0h-8.4c11.52 27.11 5.28 62.54 7.6 68.06-.32-5.52 8.64-40.87.8-68.06" class="h" fill="#db942d"></path><path d="M215.85 276.73c-31.83 28.31-36.87 63.18-41.75 9.76-2.56-27.59-2.56-65.42-2.88-114.44-.16-25.59-36.31-21.83-37.03-3.6-1.28 34.87-2 110.6-2 110.6s-3.04-124.28-3.12-131.4c-.24-19.27-38.87-23.51-39.91 2-1.36 34.79-2.32 127.08-2.32 127.08s-1.44-89.01-2.96-114.68c-1.04-17.75-33.11-17.99-34.87 3.28-1.68 20.39-3.12 111.56-3.12 111.56s-1.28-55.66-1.04-67.5c.48-21.19-29.03-18.07-31.91 1.04-4.08 26.71-4.16 56.14-6.32 80.29-8.4 94.53 2.72 154.11 88.37 146.11 113.4 13.76 96.13-63.5 159.39-148.51 10.08-13.6-14.87-32.63-38.55-11.6Z" fill="url(#1770301554916-4804192_b)"></path><path d="M223.29 266.41c-11.2 5.52-24.39 21.51-32.95 34.07-8 11.76-10.4 6.64-11.2-2.96-1.92-23.19-3.6-83.89-3.84-115.96l-.08-9.6c-.08-15.03-11.12-21.99-21.99-22.15h-.4c-7.52 0-15.35 3.28-19.59 9.04-.16-6.08-.24-10.16-.24-11.28-.16-12.56-12.56-19.51-24.15-19.67-11.68-.08-23.35 6.48-23.91 21.59-.08 1.12-.08 2.32-.16 3.6-3.44-4.88-9.6-7.92-16.95-8h-.24c-10.24 0-21.67 6.24-22.79 19.91-.48 5.76-.96 17.11-1.36 30.39-3.04-2.8-6.96-4.16-10.64-4.48-10.32-.8-22.15 6.08-24.07 18.95-2.64 17.27-3.6 35.43-4.56 52.94-.56 9.76-1.04 18.95-1.76 27.59-6.08 68.22-5.52 140.35 62.14 147.87-53.1-17.83-61.82-58.3-53.98-147.23.8-8.72 1.28-17.99 1.84-27.83.96-17.35 1.92-35.27 4.48-52.22 1.28-8.24 8.88-12.8 15.35-12.32 5.52.4 8.56 4.32 8.48 10.56-.24 11.92 2.56 73.1 2.56 73.1l6.16-1.36s2-95.25 3.68-115.32c.72-8.8 7.84-12.72 14.64-12.72h.16c5.68.08 11.52 2.96 11.92 9.36 1.52 25.35 4.08 116.28 4.08 116.28h6S92 184.11 93.28 149.8c.4-10.4 8.16-14.08 15.35-14.08h.24c7.84.08 15.99 4.56 16.07 11.92.08 7.04 4.4 132.44 4.4 132.44l6-.08s1.68-77.09 2.96-111.56c.24-6.96 7.68-10.88 14.87-10.88 3.28.08 13.84 1.2 13.92 14.32l.08 9.6c.16 33.67 2.56 91.17 4.88 119.08 1.68 20.95 14.08 19.75 22.07 8 7.52-10.96 18.71-27.91 33.99-36.07 17.43-9.28 28.23 7.6 21.51 15.11-47.66 53.42-32.39 114.6-113.4 150.51 79.17-12.4 78.21-102.61 119.48-145.47 13.52-13.76-4.48-39.99-32.39-26.23Z" class="h" fill="#db942d"></path><path d="M140.44 282.72c-11.36-2.08-17.19-.48-17.19-.48s7.52-2.72 9.12-9.6c3.04 6.88 8.08 10.08 8.08 10.08Zm-45.51-.4c-7.6-3.04-17.67 0-17.67 0s7.52-5.2 9.76-11.12c3.04 6.8 7.92 11.12 7.92 11.12Zm-49.18-7.75c-.64 7.92-7.92 11.84-7.92 11.84s6.48-1.84 18.63-4c0 0-7.68-1.76-10.72-7.84Z" class="h" fill="#db942d"></path><path d="M156.27 322.63c-62.54 19.91-63.9 72.3-60.22 93.41.8 4.56 2.32 2.88 2.64-.08 2.08-22.23 9.2-67.1 58.78-91.17 4.8-2.32 3.92-3.76-1.2-2.16" class="i" style="isolation:isolate" fill="#db942d" opacity=".3"></path><path d="M482.48 416.92c-9.12 9.2-3.2 62.62-3.2 68.06 0 14.48-125.4 14.48-125.4 0 0-4.96 3.76-60.54-7.04-68.06h135.63Z" class="g" fill="#ffae2c"></path><path d="M351.49 416.92c9.68 26.87 2.48 61.98 2.48 68.06-2.88-6.16.24-42.63-10.8-68.06zm126.99 0h8.4c-11.52 27.11-5.28 62.54-7.6 68.06.32-5.52-8.64-40.87-.8-68.06" class="h" fill="#db942d"></path><path d="M296.15 276.73c31.83 28.31 36.87 63.18 41.75 9.76 2.56-27.59 2.56-65.42 2.88-114.44.16-25.59 36.31-21.83 37.03-3.6 1.28 34.87 2 110.6 2 110.6s3.04-124.28 3.12-131.4c.24-19.27 38.87-23.51 39.91 2 1.36 34.79 2.32 127.08 2.32 127.08s1.44-89.01 2.96-114.68c1.04-17.75 33.11-17.99 34.87 3.28 1.68 20.39 3.12 111.56 3.12 111.56s1.28-55.66 1.04-67.5c-.48-21.19 29.03-18.07 31.91 1.04 4.08 26.71 4.16 56.14 6.32 80.29 8.4 94.53-2.72 154.11-88.37 146.11-113.4 13.76-96.13-63.5-159.39-148.51-10.08-13.6 14.87-32.63 38.55-11.6Z" fill="url(#1770301554916-4804192_c)"></path><path d="M288.71 266.41c11.2 5.52 24.39 21.51 32.95 34.07 8 11.76 10.4 6.64 11.2-2.96 1.92-23.19 3.6-83.89 3.84-115.96l.08-9.6c.08-15.03 11.12-21.99 21.99-22.15h.4c7.52 0 15.35 3.28 19.59 9.04.16-6.08.24-10.16.24-11.28.16-12.56 12.56-19.51 24.15-19.67 11.68-.08 23.35 6.48 23.91 21.59.08 1.12.08 2.32.16 3.6 3.44-4.88 9.6-7.92 16.95-8h.24c10.24 0 21.67 6.24 22.79 19.91.48 5.76.96 17.11 1.36 30.39 3.04-2.8 6.96-4.16 10.64-4.48 10.32-.8 22.15 6.08 24.07 18.95 2.64 17.27 3.6 35.43 4.56 52.94.56 9.76 1.04 18.95 1.76 27.59 6.08 68.22 5.52 140.35-62.14 147.87 53.1-17.83 61.82-58.3 53.98-147.23-.8-8.72-1.28-17.99-1.84-27.83-.96-17.35-1.92-35.27-4.48-52.22-1.28-8.24-8.88-12.8-15.35-12.32-5.52.4-8.56 4.32-8.48 10.56.24 11.84-2.56 73.02-2.56 73.02l-6.16-1.36s-2-95.25-3.68-115.32c-.72-8.8-7.84-12.72-14.64-12.72h-.16c-5.68.08-11.52 2.96-11.92 9.36-1.52 25.35-4.08 116.28-4.08 116.28h-6s-2.08-94.45-3.36-128.76c-.4-10.4-8.16-14.08-15.35-14.08h-.24c-7.84.08-15.99 4.56-16.07 11.92-.08 7.04-4.4 132.44-4.4 132.44l-6-.08s-1.68-77.09-2.96-111.56c-.24-6.96-7.68-10.88-14.87-10.88-3.28.08-13.84 1.2-13.92 14.32l-.08 9.6c-.16 33.67-2.56 91.17-4.88 119.08-1.68 20.95-14.08 19.75-22.07 8-7.52-10.96-18.71-27.91-33.99-36.07-17.43-9.28-28.23 7.6-21.51 15.11 47.66 53.42 32.39 114.6 113.4 150.51-79.17-12.4-78.21-102.61-119.48-145.47-13.52-13.68 4.48-39.91 32.39-26.15Z" class="h" fill="#db942d"></path><path d="M371.56 282.72c11.36-2.08 17.19-.48 17.19-.48s-7.52-2.72-9.12-9.6c-3.04 6.88-8.08 10.08-8.08 10.08Zm45.51-.4c7.6-3.04 17.67 0 17.67 0s-7.52-5.2-9.76-11.12c-3.04 6.8-7.92 11.12-7.92 11.12Zm49.18-7.75c.64 7.92 7.92 11.84 7.92 11.84s-6.48-1.84-18.63-4c0 0 7.68-1.76 10.72-7.84Z" class="h" fill="#db942d"></path><path d="M355.73 322.63c62.54 19.91 63.9 72.3 60.22 93.41-.8 4.56-2.32 2.88-2.64-.08-2.08-22.23-9.2-67.1-58.78-91.17-4.8-2.32-3.92-3.76 1.2-2.16" class="i" style="isolation:isolate" fill="#db942d" opacity=".3"></path><path d="M240.25 40.49c0 33.35 15.99 71.5 15.99 71.5s15.99-38.15 15.99-71.5c0-53.98-31.99-53.98-31.99 0Zm-81.82 17.59c16.71 28.87 49.58 53.9 49.58 53.9s-5.2-41.03-21.83-69.9C159.15-4.7 131.4 11.29 158.43 58.07Zm167.39-15.99c-16.63 28.87-21.83 69.9-21.83 69.9s32.87-25.03 49.58-53.9c27.03-46.7-.72-62.78-27.75-15.99Z" fill="#0fb4d4"></path></g></svg>
