<svg xmlns="http://www.w3.org/2000/svg" data-name="Layer 1" style="" viewBox="0 0 512 511.96"><g><defs><linearGradient id="1770301554909-3655388_c" x1="186.87" x2="320.6" y1="359.6" y2="359.6" gradientTransform="matrix(1 0 0 -1 0 513.94)" gradientUnits="userSpaceOnUse"><stop offset="0" stop-color="#ffae2c"></stop><stop offset=".26" stop-color="#ffbc37"></stop><stop offset=".58" stop-color="#ffc63e"></stop><stop offset="1" stop-color="#ffc940"></stop></linearGradient><linearGradient id="1770301554909-3655388_d" x1="237.14" x2="368.39" y1="349" y2="349" gradientTransform="matrix(1 0 0 -1 0 513.94)" gradientUnits="userSpaceOnUse"><stop offset="0" stop-color="#ffae2c"></stop><stop offset=".26" stop-color="#ffbc37"></stop><stop offset=".58" stop-color="#ffc63e"></stop><stop offset="1" stop-color="#ffc940"></stop></linearGradient><linearGradient id="1770301554909-3655388_e" x1="290.44" x2="472.61" y1="339.8" y2="339.8" gradientTransform="matrix(1 0 0 -1 0 513.94)" gradientUnits="userSpaceOnUse"><stop offset="0" stop-color="#ffae2c"></stop><stop offset=".03" stop-color="#ffb22f"></stop><stop offset=".18" stop-color="#ffbf39"></stop><stop offset=".37" stop-color="#ffc73e"></stop><stop offset=".75" stop-color="#ffc940"></stop></linearGradient><radialGradient id="1770301554909-3655388_b" cx="257.12" cy="282.35" r="235.15" fx="257.12" fy="282.35" gradientTransform="matrix(1 0 0 -1.15 -1.14 583.57)" gradientUnits="userSpaceOnUse"><stop offset="0" stop-color="#ffae2c"></stop><stop offset=".1" stop-color="#ffb330"></stop><stop offset=".47" stop-color="#ffc33c"></stop><stop offset=".75" stop-color="#ffc940"></stop></radialGradient></defs><path d="M487.94 470.1c0 56.92-216.06 54.7-216.06 0 0-38.74 2.73-62.98-46.16-87.12C170 355.42 150.97 252.17 64.36 271.45c-95.23 21.16-14.85-138.07 121.26-69.03 20.39 10.33 61.61-82.09-22.44-103-29.44 37.2-85.25 62.46-130.64 57.43-31.85-3.59-33.98-42.5-8.38-56.24 31.83-17.07 69.97-40.7 99.33-77.31 15.7-19.54 34.22-20.65 63.32-10.67 86.78 29.53 266.32 122.11 285.1 164.35 67.16 150.7 16.04 198.31 16.04 293.12Z" fill="url(#1770301554909-3655388_b)"></path><path d="M66.99 104.36c-7.42 8.53-28.84 18.86-38.66 18.77-7.94 0-21.67-13.82-17.15-16.55 6.83-4.1 22.19-10.41 32.68-17.83 11.18-7.77 33.28 3.84 23.13 15.62Zm22.02 150.27c-5.72-1.71-47.96 3.84-50.52 9.05-6.4 13.06 37.97 9.98 57.86 9.81 5.38 0-3.58-17.75-7.34-18.86" class="l" style="isolation:isolate" opacity=".3" fill="#fff"></path><path d="M477.78 174.34C457.13 128.09 273.16 35.24 189.02 6.49c-24.49-8.36-50-12.63-70.4 12.71-29.35 36.61-67.5 59.65-97.36 75.6C8.03 101.8.35 112.04 0 126.98c-.34 16.3 10.41 31.49 29.27 35.58 41.73 9.22 102.57-16.13 136.28-55.98 32.34 9.22 32.6 36.18 35.5 50.35 3.67 17.58-2.99 33.62-9.13 38.48-2.13 1.71-3.07 1.19-3.41 1.02-68.95-34.99-125.52-13.31-153 15.79-17.41 18.43-23.64 39.51-15.79 53.67 4.1 7.25 15.45 18.52 45.99 11.69 50.6-11.18 76.03 22.19 102.91 57.6 15.87 20.91 32.85 40.7 54.78 51.54 42.75 21.16 46.76 50.18 48.38 83.2 3.41-32.26 6.66-68.27-43.35-93.01-19.2-9.47-34.05-29.01-49.75-49.66-26.79-35.33-57.26-75.35-115.8-62.38-16.38 3.67-28.16 1.71-32.08-5.46-4.78-8.62 1.02-24.75 13.91-38.31 24.49-25.94 75.35-44.97 137.98-13.14 5.38 2.73 11.52 1.88 16.98-2.39 10.41-8.11 18.43-29.53 13.91-51.37-3.16-15.1-4.86-50.35-48.9-61.35l-4.01-1.02-2.56 3.24c-30.81 38.91-91.73 58.88-122.2 55.38-15.87-1.79-23.38-11.95-23.13-23.38.17-10.07 5.46-16.21 14.34-20.99C58.1 89.53 97.6 65.55 128.41 27.15c12.97-16.13 27.73-18.35 56.32-8.62 90.88 31.23 264.1 122.45 281.34 161.11 45.91 103.08 38.23 156.16 27.48 212.05-4.69 24.23-9.05 51.46-5.63 78.42 0-28.16 9.64-52.65 14.17-76.29 10.67-55.47 23.21-112.72-24.32-219.48Z" class="j" fill="#db942d"></path><path d="M368.9 213.16c-90.96 48.47-78.76 133.12-67.33 166.14 2.47 7.08 4.44 4.01 4.01-.85-2.82-36.35-4.18-110.33 65.71-162.22 6.66-4.95 5.03-7.08-2.39-3.07" style="isolation:isolate" fill="#db942d" opacity=".3"></path><path d="M320.6 72.36C278.19.34 192.09 98.82 187.31 121.52c-3.84 18.26 18.69 71 20.82 111.1 2.22 40.79 58.54 36.27 60.67 5.8 3.93-57.86 9.39-50.26 51.8-166.06" fill="url(#1770301554909-3655388_c)"></path><path d="M232.88 209.24c2.82 5.8 9.64 33.71 5.03 37.2-8.96 6.83-23.13.77-24.32-3.84-1.88-7-3.5-25.17-5.97-36.52-2.39-10.84 20.22-7.34 25.26 3.16" class="l" style="isolation:isolate" opacity=".3" fill="#fff"></path><path d="M238.85 268.63h-.26c-17.41-.09-35.5-11.26-36.86-35.75-1.02-19.2-7-41.9-12.37-61.95-5.89-22.44-10.58-40.11-8.36-50.86 4.01-18.77 48.04-72.36 90.62-79.44 15.62-2.65 37.89.17 54.44 28.33l1.54 2.65-1.11 2.9c-13.06 35.67-22.7 59.82-29.78 77.48-15.79 39.51-19.03 47.7-21.67 86.7-1.11 19.54-19.46 29.95-36.18 29.95Zm42.07-215.81c-2.3 0-4.69.17-7.17.6-36.52 6.06-77.23 55.55-80.13 69.38-1.62 7.68 3.33 26.54 8.19 44.8 5.46 20.65 11.69 44.03 12.71 64.6.94 17.15 13.06 23.38 24.15 23.47h.17c10.84 0 22.7-6.23 23.55-17.83 2.82-41.04 6.57-50.6 22.61-90.71 6.83-17.07 16.04-40.28 28.5-74.15-8.7-13.48-19.46-20.14-32.6-20.14Z" class="j" fill="#db942d"></path><path d="M368.39 80.56c-42.41-72.11-131.92 27.31-131.24 46.34 1.02 29.1 24.23 64.77 28.33 122.37 2.47 34.99 62.46 37.72 65.36-11.01 3.67-61.01 37.55-157.69 37.55-157.69Z" fill="url(#1770301554909-3655388_d)"></path><path d="M290.05 215.47c3.24 6.06 11.95 40.96 7.17 45.06-8.45 7.25-23.64 2.39-25-2.9-2.13-8.02-4.44-29.95-7.25-43.01-2.39-11.26 19.03-10.41 25.09.85Z" class="l" style="isolation:isolate" opacity=".3" fill="#fff"></path><path d="M295.68 281.6c-17.07 0-35.07-10.92-36.61-31.91-2.3-31.91-10.41-56.4-17.58-78.08-5.46-16.64-10.24-30.98-10.75-44.46-.6-15.87 39.85-64.34 79.53-76.12 26.79-7.94 48.81 1.11 63.66 26.28l1.54 2.47-1.02 2.9c-.34.94-33.71 96.51-37.2 155.9-1.79 29.61-22.02 42.92-41.39 43.01h-.17Zm32.69-220.5c-4.1 0-8.53.6-13.14 1.88-37.55 10.33-71.59 55.55-71.68 63.66.43 11.61 4.86 25.17 10.07 40.79 7.08 21.33 15.79 47.79 18.26 81.32.94 13.74 12.97 19.88 23.81 19.88h.17c12.37-.09 27.31-8.19 28.59-30.89 3.33-55.89 31.15-139.52 36.95-156.5-8.7-13.4-19.63-20.14-33.02-20.14Z" class="j" fill="#db942d"></path><path d="M472.07 179.97C446.21 92.59 391.6 72.28 378.63 72.2c-25.94 0-80.81 38.74-87.21 68.01-6.49 29.7 21.08 87.47 27.39 117.16 7.34 34.22 49.07 17.83 54.44-19.11 4.95-33.88-6.57-37.2-4.86-51.37 5.55-46.93 30.38 1.02 37.72 10.5 10.07 12.89 72.96 6.23 65.96-17.41Z" fill="url(#1770301554909-3655388_e)"></path><path d="M338.78 222.29c3.5 5.38 13.23 34.64 9.05 38.83-10.5 10.5-21.08 8.36-22.7 3.58-2.47-7.25-6.74-29.7-10.24-41.56-3.5-11.95 17.58-10.58 23.89-.85" class="l" style="isolation:isolate" opacity=".3" fill="#fff"></path><path d="M378.63 65.71c-29.44 0-86.44 40.87-93.52 73.13-4.61 21.16 5.63 51.11 15.45 80.13 4.95 14.59 9.73 28.42 11.95 39.68 2.99 15.1 12.46 23.98 25.51 23.98h.77c16.64-.43 37.03-17.15 40.87-43.43 3.24-22.36-.34-32.85-2.9-40.53-1.45-4.27-4.18-23.21 1.79-25.6 6.49-2.56 17.58 17.41 28.42 25.09-9.13-11.86-19.29-40.62-31.23-37.72-9.81 2.3-12.46 15.79-13.65 25.69-.85 6.91.85 11.95 2.56 16.81 2.39 7.08 5.12 15.1 2.3 34.39-2.73 19.03-16.98 32.08-28.5 32.43-8.87.09-12.12-7.25-13.31-13.57-2.39-12.03-7.25-26.28-12.37-41.3-8.87-26.03-18.94-55.55-15.1-73.13 5.63-25.94 57.17-62.98 80.98-62.98 9.39 0 60.93 37.03 91.99 111.27l11.09-6.66C449.05 101.9 391.79 65.72 378.65 65.72Z" class="j" fill="#db942d"></path></g></svg>
