<svg xmlns="http://www.w3.org/2000/svg" data-name="Layer 1" style="" viewBox="0 0 512 320.06"><g><defs><radialGradient id="1770301554904-3092899_b" cx="-1552.25" cy="439.93" r="226.92" fx="-1552.25" fy="439.93" gradientTransform="matrix(0 -1.03 -1.08 0 809.45 -1415.73)" gradientUnits="userSpaceOnUse"><stop offset=".71" stop-color="#ffc940"></stop><stop offset="1" stop-color="#ffc940"></stop></radialGradient></defs><path d="M192.35 7.03c-18 6.4-50.57 40.81-97.22 79.05-8.24 6.72-50.57 5.36-68.97 5.36-34.97 0-34.65 182.59-.4 180.43 73.37-4.64 92.66 4.4 150.35 32.25 18.32 8.88 69.29 11.76 90.98 8.88 23.04-3.12 35.93-30.09 27.53-52.25 0 0 29.13-17.04 12.8-50.65 18.96-.72 34.41-52.25 4.08-69.85 0 0 131.62.16 165.63.72 38.17.64 38.97-66.57 0-67.13-50.01-.72-171.39-3.44-203.88-11.6-21.93-26.64-58.26-63.21-80.9-55.21" fill="url(#1770301554904-3092899_b)"></path><path d="M267.88 318.93c11.76-1.6 21.92-8.4 28.49-19.2 6.64-10.96 8.56-24.32 5.28-36.49 10.4-8.08 22.32-25.36 13.84-49.29 7.6-4 14-13.36 17.2-25.92 3.28-12.64 2.88-29.29-6-41.77 35.69.08 123.62.24 150.27.72 12.24.24 22.48-5.44 28.81-15.92 8.08-13.28 8.32-32.17.64-45.85-6.24-10.96-16.56-17.12-29.21-17.28-38.41-.56-164.51-2.96-200.6-10.96-21.28-25.53-59.45-64.98-86.25-55.54-12.56 4.48-29.85 19.76-53.77 41.05-13.28 11.76-28.33 25.12-45.29 39.05-5.44 4.48-43.13 7.28-65.13 9.92 29.05 2.4 65.37 5.28 72.81-.8 17.12-14.08 32.33-27.53 45.69-39.37 22-19.52 39.45-35.05 49.77-38.65 14.4-5.12 42.81 15.36 74.09 53.37l1.28 1.52 1.92.48c34.65 8.72 165.87 11.2 205.32 11.76 10.48.16 16 6.16 18.88 11.2 5.68 10 5.44 24.24-.4 34.01-2.88 4.72-8.4 10.24-18.24 10.08-33.69-.56-164.43-.72-165.71-.72h-22.08l18.96 11.04c14.64 8.48 15.92 26.72 12.64 39.69-3.04 11.76-9.44 18.96-13.84 19.12l-9.12.32 3.92 8.16c13.44 27.69-8 41.53-10.48 42.97l-4.32 2.56 1.76 4.64c3.76 10 2.72 21.52-2.96 30.73-4.64 7.68-11.68 12.48-19.76 13.6-20.64 2.8-70.65-.16-87.46-8.32-58.25-28.17-84.58-34.89-152.99-26.97 62.57.24 90.1 9.76 147.71 37.61 19.44 9.44 71.77 12.48 94.34 9.44Z" class="d" fill="#db942d"></path><path d="M277.24 69.2c-17.12-3.52-32.09 4.96-52.81-12.48 24.56 10.16 29.13-3.84 50.97-.4 2.88.48 4.64 13.44 1.84 12.88m7.84 133.55s12.96 10.24 26 11.12c1.36.08 1.6-11.28.24-11.04-10.4 1.68-26.24-.08-26.24-.08m-8.24 50.65s4.88 7.6 13.44 10.16c1.28.4 7.52-8.96 6.16-8.8-10.64.8-19.6-1.36-19.6-1.36" class="d" fill="#db942d"></path><path d="M458.64 85.61c5.44-.88 16.64-1.2 20.64-1.2 19.04 0 18.96 45.45 0 45.45-4.48 0-16.24-.08-21.76-1.28-16.8-3.68-16-40.09 1.12-42.97" style="isolation:isolate" fill="#fff" opacity=".3"></path></g></svg>
