<svg xmlns="http://www.w3.org/2000/svg" data-name="Layer 1" style="" viewBox="0 0 512 512"><g><defs><linearGradient id="1770301554917-3284163_b" x1="82.89" x2="82.89" y1="48.23" y2="289.27" gradientTransform="matrix(1 0 0 -1 0 510)" gradientUnits="userSpaceOnUse"><stop offset=".25" stop-color="#d6a480"></stop><stop offset=".66" stop-color="#ba8865"></stop><stop offset=".96" stop-color="#a3714e"></stop></linearGradient><linearGradient id="1770301554917-3284163_c" x1="44.7" x2="44.7" y1="48.23" y2="367.1" gradientTransform="matrix(1 0 0 -1 0 510)" gradientUnits="userSpaceOnUse"><stop offset="0" stop-color="#ff2121"></stop><stop offset=".63" stop-color="#dd0911"></stop><stop offset=".83" stop-color="#d1000b"></stop></linearGradient><linearGradient id="1770301554917-3284163_e" x1="23.66" x2="350.05" y1="465.16" y2="118.15" gradientTransform="matrix(1 0 0 -1 0 510)" gradientUnits="userSpaceOnUse"><stop offset="0" stop-color="#a3714e"></stop><stop offset=".04" stop-color="#b2805e"></stop><stop offset=".14" stop-color="#cb9a78"></stop><stop offset=".23" stop-color="#ddad8c"></stop><stop offset=".33" stop-color="#e7b897"></stop><stop offset=".43" stop-color="#ebbc9b"></stop><stop offset=".64" stop-color="#e9ba99"></stop><stop offset=".75" stop-color="#e1b291"></stop><stop offset=".84" stop-color="#d5a583"></stop><stop offset=".91" stop-color="#c39270"></stop><stop offset=".98" stop-color="#ac7a57"></stop><stop offset="1" stop-color="#a3714e"></stop></linearGradient><radialGradient id="1770301554917-3284163_d" cx="-12.63" cy="324.09" r="271.87" fx="-12.63" fy="324.09" gradientTransform="rotate(37.6 1077.383 -614.8) scale(.93 -1.52)" gradientUnits="userSpaceOnUse"><stop offset="0" stop-color="#ff2121"></stop><stop offset=".39" stop-color="#fc1f20"></stop><stop offset=".63" stop-color="#f4191c"></stop><stop offset=".82" stop-color="#e60f15"></stop><stop offset=".99" stop-color="#d2010b"></stop><stop offset="1" stop-color="#d1000b"></stop></radialGradient></defs><path d="M52.29 220.74s-10.5 234.2 15.91 241.03l17.22-6.21s-11.29-160.84 30.13-175.05l-63.26-59.78Z" fill="url(#1770301554917-3284163_b)"></path><path d="M74.22 9.09C-2.18 20.68-7.36 139.05 31.1 204.15c34.52 58.46 70.71 90.5 127.52 200.79C209.94 504.6 261.31 512 310.79 512h184.09c19.68 0 19.45-23.28 12.82-27.1C484.72 471.67 186.45 353.38 74.22 9.09" fill="#d6a480"></path><path d="M83.88 268.1S55.71 152.25 5.52 142.9c12.96 66.89 50.77 69.16 42.1 314.33l20.57 4.53S63 239.92 83.87 268.09Z" fill="url(#1770301554917-3284163_c)"></path><path d="M509.58 465.1c-7.48-29.6-80.86-89.98-127.81-92.95 0 0-195.33-27.86-307.56-372.15-76.39 11.6-92.62 112.35-54.16 177.45 34.53 58.46 83.4 104.16 140.19 214.44 51.32 99.66 101.07 111.04 150.56 111.04h182.81c9.84 0 24.14-5.58 15.97-37.82Z" fill="url(#1770301554917-3284163_d)"></path><path d="M91.42 150.22c86.03 200.3 116.12 256.9 193.56 235.13 48.32-13.58 79.88-14.45 96.8-13.19-105.48-57.12-118.07-85.63-180.67-217.57C135.51 16.34 110.84 0 74.22 0c-42.78 6.13-22.95 56.74 17.2 150.22" fill="url(#1770301554917-3284163_e)"></path><path d="M91.42 150.22c86.03 200.3 116.12 256.9 193.56 235.13 2.24-.62 4.42-1.22 6.56-1.78C194.77 317.4 146.96 168.5 118.5 120.51 102.58 93.64 81.87 85.54 64.4 84.5c7.02 18.82 16.29 40.74 27.03 65.73Z" fill="#b38564"></path></g></svg>
