<svg xmlns="http://www.w3.org/2000/svg" data-name="Layer 1" style="" viewBox="0 0 512 400.01"><g><defs><linearGradient id="1770301554899-1882452_c" x1="229.13" x2="254.47" y1="280.71" y2="290.62" gradientTransform="matrix(1 0 0 -1 0 392.01)" gradientUnits="userSpaceOnUse"><stop offset=".46" stop-color="#8c6040"></stop><stop offset=".78" stop-color="#9b6b49"></stop><stop offset="1" stop-color="#a87551"></stop></linearGradient><linearGradient id="1770301554899-1882452_d" x1="183.29" x2="183.29" y1="147.68" y2="334.1" gradientTransform="matrix(1 0 0 -1 0 392.01)" gradientUnits="userSpaceOnUse"><stop offset="0" stop-color="#a87551"></stop><stop offset=".59" stop-color="#946645"></stop><stop offset="1" stop-color="#8c6040"></stop></linearGradient><linearGradient id="1770301554899-1882452_e" x1="113.18" x2="113.18" y1="291.71" y2="357.33" gradientTransform="matrix(1 0 0 -1 0 392.01)" gradientUnits="userSpaceOnUse"><stop offset=".42" stop-color="#45332c"></stop><stop offset=".9" stop-color="#62483e"></stop><stop offset="1" stop-color="#694d42"></stop></linearGradient><linearGradient id="1770301554899-1882452_f" x1="189.83" x2="245.01" y1="275.76" y2="302.38" gradientTransform="matrix(1 0 0 -1 0 392.01)" gradientUnits="userSpaceOnUse"><stop offset=".25" stop-color="#ad7853"></stop><stop offset=".75" stop-color="#c2865d"></stop><stop offset="1" stop-color="#cf8f63"></stop></linearGradient><linearGradient id="1770301554899-1882452_g" x1="201.73" x2="242.3" y1="333.38" y2="333.38" gradientTransform="matrix(1 0 0 -1 0 392.01)" gradientUnits="userSpaceOnUse"><stop offset="0" stop-color="#302c3b"></stop><stop offset=".28" stop-color="#343240"></stop><stop offset=".66" stop-color="#3f424d"></stop><stop offset="1" stop-color="#4e585e"></stop></linearGradient><linearGradient id="1770301554899-1882452_h" x1="218.25" x2="253.96" y1="283.22" y2="283.22" gradientTransform="matrix(1 0 0 -1 0 392.01)" gradientUnits="userSpaceOnUse"><stop offset="0" stop-color="#302c3b"></stop><stop offset=".28" stop-color="#343240"></stop><stop offset=".66" stop-color="#3f424d"></stop><stop offset="1" stop-color="#4e585e"></stop></linearGradient><linearGradient id="1770301554899-1882452_i" x1="243.19" x2="271.57" y1="238.44" y2="238.44" gradientTransform="matrix(1 0 0 -1 0 392.01)" gradientUnits="userSpaceOnUse"><stop offset="0" stop-color="#302c3b"></stop><stop offset=".28" stop-color="#343240"></stop><stop offset=".66" stop-color="#3f424d"></stop><stop offset="1" stop-color="#4e585e"></stop></linearGradient><linearGradient id="1770301554899-1882452_j" x1="286.45" x2="308.68" y1="194.58" y2="194.58" gradientTransform="matrix(1 0 0 -1 0 392.01)" gradientUnits="userSpaceOnUse"><stop offset="0" stop-color="#302c3b"></stop><stop offset=".28" stop-color="#343240"></stop><stop offset=".66" stop-color="#3f424d"></stop><stop offset="1" stop-color="#4e585e"></stop></linearGradient><linearGradient id="1770301554899-1882452_k" x1="3.3" x2="512" y1="46.73" y2="46.73" gradientTransform="matrix(1 0 0 -1 0 392.01)" gradientUnits="userSpaceOnUse"><stop offset=".33" stop-color="#45332c"></stop><stop offset=".88" stop-color="#62483e"></stop><stop offset="1" stop-color="#694d42"></stop></linearGradient><linearGradient id="1770301554899-1882452_l" x1="0" x2="504.09" y1="66.63" y2="66.63" gradientTransform="matrix(1 0 0 -1 0 392.01)" gradientUnits="userSpaceOnUse"><stop offset="0" stop-color="#8c6040"></stop><stop offset=".41" stop-color="#946645"></stop><stop offset="1" stop-color="#a87551"></stop></linearGradient><radialGradient id="1770301554899-1882452_b" cx="289.93" cy="-529.54" r="347.59" fx="278.43" fy="-529.54" gradientTransform="matrix(.99965 .02653 .01 -.38987 -7.55 -7.32)" gradientUnits="userSpaceOnUse"><stop offset=".41" stop-color="#cf8f63"></stop><stop offset="1" stop-color="#ad7853"></stop></radialGradient></defs><path d="M493.27 293.51c-27.26-123.55-114.14-28.65-201.25-98.52-53.79-43.14-252.24-56.77-263.22-27.52-10.99 29.22-18.74 122.96-11.41 150.66 201.85 39.22 354.5 81.88 475.88-24.62" fill="url(#1770301554899-1882452_b)"></path><path d="M299.5 194.99c11.77 2.28-57.04-42.21-65.07-191.09-.37-6.9-16.83-7.02-20.22 19.83-12.48 99.11 56.79 165.81 85.28 171.26Z" fill="url(#1770301554899-1882452_c)"></path><path d="M324.34 242.51c-1.57 4.34-250.63 6.26-286.49-59.5-6.2-11.34 5.18-90.41 9.66-96.58C52 80.3 221.01 44.27 225.83 63.49c23.88 95.39 66.91 122.74 102.47 151 6.44 5.12-2.9 25.09-3.96 28.01Z" fill="url(#1770301554899-1882452_d)"></path><path d="M50.5 83.54c1.37 73.16-36.85 141-14.46 234.67l-30.02-5.15c-7.43-113.48 24.72-128.69 37.2-230.55.39-3.2 7.28 1.02 7.28 1.02Z" class="x" fill="#734f35"></path><path d="M182.98 39.81c26.56 92.63-46.71 52.29-137.89 48.53-13.25-.54-7.06-53.87 8.67-53.67 16.92.18 90.1 18.8 129.22 5.14" fill="url(#1770301554899-1882452_e)"></path><path d="M266.48 156.15c-48.31 55.27-84.62-35.33-87.33-117.37 78.5-34.19 30.38 35.98 87.33 117.37" fill="url(#1770301554899-1882452_f)"></path><path d="M283.89 211.39c0 21.89 26.05 21.89 26.05 0s-26.05-21.87-26.05 0m-47.2-44.78c0 21.89 26.05 21.89 26.05 0s-26.05-21.87-26.05 0m-23.89-48.23c0 21.87 26.05 21.87 26.05 0s-26.05-21.89-26.05 0m-17.38-50.91c0 21.89 26.07 21.89 26.07 0s-26.07-21.87-26.07 0" class="x" fill="#734f35"></path><path d="M237.59 38.75c-.37 9.32-9.73 16.94-26.93 17.58-9.82.37-12.64 22.82-2.88 22.34 51.89-2.55 29.92-42.94 29.81-39.91Z" fill="url(#1770301554899-1882452_g)"></path><path d="M247.51 89.35c.17 9.39-7.62 14.74-21.56 16.45-10.93 1.34-9.89 24.38.96 22.51 44.66-7.65 20.53-42.01 20.6-38.96" fill="url(#1770301554899-1882452_h)"></path><path d="M261.29 129.54c2.58 9.74-1.26 15.4-14.81 26.79-8.37 7.04.83 26.45 9.83 20.3 31.62-21.54 4.16-50.19 4.98-47.09" fill="url(#1770301554899-1882452_i)"></path><path d="M286.51 175.25c5.64 8.62 13.5 14.07 1.83 26.11-7.34 7.56 9.74 24.87 15.9 16.02 16.75-24.06-19.52-44.86-17.74-42.13Z" fill="url(#1770301554899-1882452_j)"></path><path d="M4.37 319.18c211.27 21.08 326.36 93.56 484.7-27.96 7.58-5.81 27.15 27.22 22.11 32.63-6.83 7.3-13.7 13.81-20.63 19.8-1.97-3.34-5.43-10.38-5.43-10.38l-7.37 4.58s3.86 7.71 6.06 11.38A197 197 0 0 1 445 373.54c-2.13-3.28-5.25-10.53-5.25-10.53l-7.62 3.83s2.7 6.62 4.97 10.29c-16.16 6.86-33.47 11.68-52.53 15.08-.86-4.1-2.9-10.86-2.9-10.86l-7.77 1.62s1.99 7.53 2.59 10.56c-16.54 2.54-34.46 5.26-54.07 6.18-.78-3.08-1.78-11.36-1.78-11.36l-8.5.84s1.05 7.36 1.84 10.51c-15.99.59-33.06 0-51.53 0l-4.87-14.86-108.9-17.1-2.28 32.24h-29.34l.96-10.68h-8.21l-1.35 10.68H76.89h.02V389.3H68.4v10.68H35.94l-1.23-10.68H26.5l.81 10.68H5.52c-4.21-26.66-1.15-80.83-1.15-80.83Z" fill="url(#1770301554899-1882452_k)"></path><path d="M491.53 287.23c8.45-5.11 17.97 7.35 8.83 13.31-180.04 117.39-282.19 41.34-497.22 23.31-3.07-.26-7.34-14.86 6.23-13.53 233.07 22.83 300.56 86.77 482.15-23.1Z" fill="url(#1770301554899-1882452_l)"></path></g></svg>
