<svg xmlns="http://www.w3.org/2000/svg" data-name="Layer 1" viewBox="0 0 512 780.27"><g><defs></defs><path d="M72.2 780.27c-2.56 0-5-.37-7.32-1.22-1.95-.73-3.78-1.71-5.24-3.05-2.07.24-4.27.24-6.46 0-3.17-.49-5.97-1.58-8.41-3.17-4.02.61-8.29 0-12.19-1.83-3.17-1.58-5.85-3.78-7.8-6.34-6.46-1.34-10.36-4.51-12.68-7.19-3.17-3.78-4.88-8.78-5-14.14-4.63-6.22-9.02-14.26-6.22-22.19 3.17-9.14 13.05-10.97 18.29-11.95.98-.12 1.83-.24 2.44-.49 24.14-8.53 33.77-16.34 44.87-25.36 6.22-5.12 13.29-10.85 23.16-17.07 3.41-2.07 7.19-4.39 11.22-6.83 11.83-7.19 36.21-21.82 39.99-28.28-3.29-100.58-31.58-204.45-48.64-266.63-3.66-13.65-6.95-25.6-9.39-35.36-10.36-41.82-12.44-57.42 17.56-78.03 8.17-5.61 14.63-14.75 23.41-27.43 27.07-38.89 84.98-118.26 289.06-218.96l4.63 8.53c-203.25 114.01-251.89 184.11-278.1 221.78-9.63 13.78-17.19 24.63-28.28 32.31-19.38 13.29-19.87 16.46-9.75 57.18 2.44 9.63 5.61 21.46 9.27 34.99 17.31 63.15 46.08 168.98 49.25 272.12.37 13.05-15.48 24.14-49.38 44.5-3.9 2.32-7.68 4.63-10.97 6.71-8.9 5.61-15.12 10.61-21.21 15.61-11.95 9.75-23.29 19.02-50.6 28.65-1.34.49-3.17.85-5.24 1.22-.61.12-1.46.24-2.19.49.73 1.22 1.95 2.93 3.78 5.12l2.8 3.41-.61 4.39c-.24 1.58 0 2.93.37 3.29.24.37 1.58.98 4.39.98l7.8.12 1.46 7.68c0-.24.49.12 1.34.12.37 0 .73-.12.98-.24l8.05-4.63 4.75 8.05h.85c.49 0 .98 0 1.34-.12l11.46-10.61 3.29 14.75c2.44 0 8.9-1.71 19.63-9.14 5.73-4.02 12.31-4.27 19.26-4.63 6.58-.24 13.41-.61 21.09-3.9 5.61-2.44 11.46-5.97 17.8-9.75 12.07-7.19 25.72-15.48 43.04-19.75 1.71-.37 4.15-.73 7.07-1.1 9.39-1.22 23.41-2.93 30.24-13.53 6.1-9.51 5.97-25.11-.37-46.57-17.43-58.52-4.63-109.24 6.58-154.1 13.29-52.91 24.87-98.63-14.75-145.69l-4.27-5 3.05-5.85c10.24-19.38 34.01-29.75 70.1-45.47 48.28-21.09 121.31-52.91 205.43-128.99l6.34 7.19c-82.66 81.32-154.83 118.02-204.21 139.59-27.19 11.83-47.79 20.85-57.3 31.82 40.35 52.67 27.55 103.51 14.02 157.27-11.22 44.38-22.68 90.34-6.83 143.62 8.05 27.07 7.44 48.28-1.83 62.79-11.58 18.04-32.55 20.73-43.89 22.19-1.95.24-3.66.49-4.75.73-14.51 3.66-26.33 10.73-37.92 17.68-6.83 4.15-13.29 7.92-19.99 10.85-10.85 4.75-20.6 5.12-27.8 5.49-3.78.12-7.92.37-9.27 1.22-12.07 8.05-22.19 12.19-30.6 12.19Z" class="c" fill="#db942d"></path><path d="M412.71 4.64c-275.4 154.59-269.07 228.47-306.98 254.44-25.11 17.31-23.65 27.43-13.65 67.66 13.9 55.72 54.5 181.53 58.28 305.04.37 10.48-35.48 29.87-55.84 42.55-27.07 16.82-30.36 29.38-69.86 43.28-5.85 2.07-25.72.85-7.8 22.19-.85 5.61.37 15.36 14.14 15.48.98 5.49 9.14 10.48 16.34 6.34 3.29 5.61 12.56 5.85 16.09 2.44 2.68 9.75 15.85 8.17 34.01-4.51 7.56-5.24 21.46-.12 38.65-7.56 16.95-7.44 34.5-22.8 59.37-29.02 11.7-2.93 65.84.85 43.65-73.39-36.94-123.99 67.91-210.55-10-303.33 21.21-40.48 130.09-42.18 273.46-171.9 33.28-30.11-27.43-204.82-89.85-169.71Z" fill="#ffc940"></path><path d="M22.83 732c-8.17 3.54-8.05 9.88-5.73 14.87-.49-5.12 2.32-11.58 9.39-13.29 3.9-10.61 18.04-17.07 28.89-20.12-9.88-1.1-28.65 10.12-32.55 18.53Zm10.85 28.16c-1.71-4.27-2.93-12.07 4.63-15.48-.85-14.14 16.34-21.34 26.46-26.7-12.07 3.54-29.75 10-29.5 24.87-7.07 3.66-7.07 13.9-1.58 17.31Zm35.6-6.71c-1.71-15.85 21.94-18.41 20.12-26.21-3.05 6.71-24.26 9.51-23.16 26.09-10.36 10.36.73 16.09.73 16.09s-6.95-8.41 2.32-15.97Z" class="c" fill="#db942d"></path><path d="M51.6 748.33c-1.71-15.85 25.97-20.85 24.26-28.77-3.05 6.71-27.55 11.22-26.46 27.8-10.85 4.75-5.49 16.46 1.95 17.92-4.63-3.66-7.31-12.56.24-16.95Zm169.46-90.95c29.75-34.26 3.05-36.7-3.29-72.66-3.41 30.97 19.02 38.28 3.29 72.66" class="c" fill="#db942d"></path><path d="M24.65 717.73c-14.39 1.1-15.12 6.1-15.12 6.1s.37 14.02 12.68 4.51c7.56-5.85 2.44-10.61 2.44-10.61m1.83 15.85c-9.27 2.32-8.41 6.34-8.41 6.34s3.54 11.22 9.39 2.32c3.54-5.49-.98-8.66-.98-8.66m11.83 11.09c-7.68 3.17-6.71 6.46-6.71 6.46s3.9 8.78 8.17.61c2.68-4.88-1.46-7.07-1.46-7.07m13.29 3.66c-7.44 3.78-6.22 6.95-6.22 6.95s4.63 8.41 8.29-.12c2.19-5-2.07-6.83-2.07-6.83m17.68 5.12c-6.71 4.88-5 7.92-5 7.92s5.85 7.56 8.17-1.34c1.34-5.61-3.17-6.58-3.17-6.58" style="isolation:isolate" fill="#fff" opacity=".3"></path><path d="M215.21 336.01s20.73 5.12 31.09 21.94c1.22 1.95-6.1 6.95-7.19 4.88-7.56-13.41-23.9-26.82-23.9-26.82" class="c" fill="#db942d"></path></g></svg>
