<svg xmlns="http://www.w3.org/2000/svg" data-name="Layer 1" style="" viewBox="0 0 512 698.19"><g><defs><linearGradient id="1770301554919-2295605_b" x1="72" x2="440.1" y1="413.76" y2="413.76" gradientTransform="matrix(1 0 0 -1 0 700.19)" gradientUnits="userSpaceOnUse"><stop offset=".11" stop-color="#c21322"></stop><stop offset=".27" stop-color="#cd1626"></stop><stop offset=".55" stop-color="#eb2031"></stop><stop offset=".71" stop-color="#ff2638"></stop><stop offset=".82" stop-color="#fb2436"></stop><stop offset=".93" stop-color="#ee1c2e"></stop><stop offset="1" stop-color="#e31628"></stop></linearGradient><linearGradient id="1770301554919-2295605_c" x1="70.55" x2="441.01" y1="576.35" y2="576.35" gradientTransform="matrix(1 0 0 -1 0 700.19)" gradientUnits="userSpaceOnUse"><stop offset=".11" stop-color="#c21322"></stop><stop offset=".27" stop-color="#cd1626"></stop><stop offset=".55" stop-color="#eb2031"></stop><stop offset=".71" stop-color="#ff2638"></stop><stop offset=".82" stop-color="#fb2436"></stop><stop offset=".93" stop-color="#ee1c2e"></stop><stop offset="1" stop-color="#e31628"></stop></linearGradient><linearGradient id="1770301554919-2295605_d" x1="203.1" x2="369.6" y1="342.88" y2="342.88" gradientTransform="matrix(1 0 0 -1 0 700.19)" gradientUnits="userSpaceOnUse"><stop offset=".15" stop-color="#ff6672" stop-opacity="0"></stop><stop offset=".69" stop-color="#ff6672"></stop><stop offset="1" stop-color="#ff6672" stop-opacity="0"></stop></linearGradient><linearGradient id="1770301554919-2295605_e" x1="147.86" x2="397.23" y1="686.7" y2="414.77" gradientTransform="matrix(1 0 0 -1 0 700.19)" gradientUnits="userSpaceOnUse"><stop offset="0" stop-color="#f34"></stop><stop offset=".17" stop-color="#ff414c"></stop><stop offset=".48" stop-color="#ff6760"></stop><stop offset=".91" stop-color="#ffa480"></stop><stop offset="1" stop-color="#ffb287"></stop></linearGradient><linearGradient id="1770301554919-2295605_f" x1="-4.16" x2="408.7" y1="108.45" y2="108.45" gradientTransform="matrix(1 0 0 -1 0 700.19)" gradientUnits="userSpaceOnUse"><stop offset=".11" stop-color="#a67410"></stop><stop offset=".23" stop-color="#b17c13"></stop><stop offset=".43" stop-color="#cf931a"></stop><stop offset=".71" stop-color="#ffb726"></stop><stop offset=".71" stop-color="#ffb726"></stop><stop offset=".82" stop-color="#fbb324"></stop><stop offset=".93" stop-color="#eea81c"></stop><stop offset="1" stop-color="#e39f16"></stop></linearGradient><linearGradient id="1770301554919-2295605_g" x1="193.3" x2="432.54" y1="108.44" y2="108.44" gradientTransform="matrix(1 0 0 -1 0 700.19)" gradientUnits="userSpaceOnUse"><stop offset=".15" stop-color="#fc6" stop-opacity="0"></stop><stop offset=".25" stop-color="#ffce6d" stop-opacity=".2"></stop><stop offset=".41" stop-color="#ffd47f" stop-opacity=".48"></stop><stop offset=".58" stop-color="#ffdf9d" stop-opacity=".8"></stop><stop offset=".69" stop-color="#ffe6b3"></stop><stop offset="1" stop-color="#fc6" stop-opacity="0"></stop></linearGradient></defs><path d="M441.04 527.12H70.96V210.37c0-126.52 29.56-164.64 29.56-164.64l319.64 140.96s20.9 41.48 20.9 133.21c-.01 68.81-.01 207.21-.01 207.21Z" fill="url(#1770301554919-2295605_b)"></path><path d="M423.09 206.16C423.4 131.35 277.08 22.17 178.59.73c-28.31-6.19-89.44 27.09-89.68 87.69-.65 147.63 333.8 205.89 334.18 117.74" fill="url(#1770301554919-2295605_c)"></path><path d="M204.78 187.51h206.48v339.61H204.78z" fill="url(#1770301554919-2295605_d)"></path><path d="M416.73 187.51C417.04 119.94 249.46.04 170.43.04c-26.22 0-60.6 29.7-60.88 84.4-.59 133.25 306.83 182.62 307.19 103.07Z" fill="url(#1770301554919-2295605_e)"></path><path d="M512 664.94c0 44.33-512 44.33-512 0V528.98c0-58.24 512-58.26 512 0z" fill="url(#1770301554919-2295605_f)"></path><path d="M195.71 486.42v210.92c221.37 5.48 296.68-18.64 296.68-18.64V510.96c-48.9-20.64-181.32-28.78-296.68-24.54" fill="url(#1770301554919-2295605_g)"></path><path d="M511.42 525.78c-19.71-59.15-492.32-55.67-510.84 0 71.74-39.2 439.09-39.23 510.84 0" fill="#fbb855"></path></g></svg>
