<svg xmlns="http://www.w3.org/2000/svg" data-name="Layer 1" style="" viewBox="0 0 512 512.15"><g><defs><linearGradient id="1770301554920-9410280_b" x1="203.34" x2="312.08" y1="419.93" y2="419.93" gradientTransform="matrix(1 0 0 -1 0 514.15)" gradientUnits="userSpaceOnUse"><stop offset=".15" stop-color="#e6dcd8"></stop><stop offset=".39" stop-color="#e4d8d4"></stop><stop offset=".61" stop-color="#ddcec9"></stop><stop offset=".83" stop-color="#d2bcb5"></stop><stop offset="1" stop-color="#c7a9a1"></stop></linearGradient><linearGradient id="1770301554920-9410280_c" x1="-564" x2="-454.76" y1="1140.08" y2="1140.08" gradientTransform="translate(564 -724)" gradientUnits="userSpaceOnUse"><stop offset="0" stop-color="#ff8a8a"></stop><stop offset=".24" stop-color="#fa8382"></stop><stop offset=".61" stop-color="#ed716c"></stop><stop offset="1" stop-color="#db574d"></stop></linearGradient><linearGradient id="1770301554920-9410280_d" x1="-540.08" x2="-318.53" y1="1089.03" y2="1089.03" gradientTransform="translate(564 -724)" gradientUnits="userSpaceOnUse"><stop offset="0" stop-color="#ff8a8a"></stop><stop offset=".58" stop-color="#e96a64"></stop><stop offset="1" stop-color="#db574d"></stop></linearGradient><linearGradient id="1770301554920-9410280_e" x1="-531.58" x2="-316.67" y1="948.23" y2="948.23" gradientTransform="translate(564 -724)" gradientUnits="userSpaceOnUse"><stop offset="0" stop-color="#ff8a8a"></stop><stop offset=".24" stop-color="#fa8382"></stop><stop offset=".61" stop-color="#ed716c"></stop><stop offset="1" stop-color="#db574d"></stop></linearGradient><linearGradient id="1770301554920-9410280_f" x1="-170.26" x2="-52" y1="1111.74" y2="1111.74" gradientTransform="translate(564 -724)" gradientUnits="userSpaceOnUse"><stop offset="0" stop-color="#ff8a8a"></stop><stop offset=".24" stop-color="#fa8382"></stop><stop offset=".61" stop-color="#ed716c"></stop><stop offset="1" stop-color="#db574d"></stop></linearGradient><linearGradient id="1770301554920-9410280_g" x1="-293.64" x2="-83.04" y1="1013.66" y2="1013.66" gradientTransform="translate(564 -724)" gradientUnits="userSpaceOnUse"><stop offset="0" stop-color="#ff8a8a"></stop><stop offset=".24" stop-color="#fa8382"></stop><stop offset=".61" stop-color="#ed716c"></stop><stop offset="1" stop-color="#db574d"></stop></linearGradient></defs><path d="M199.92 97.11c-99.59 54.11 19.37 173.41 40.19 105.99 0-36.18-19.63-91.23-40.19-105.99" class="p" fill="#cf5248"></path><path d="M309.33 160.77c-1.79-1.11-3.75-3.75-4.69-3.5-1.71.43-3.41-1.88-3.33-3.58.09-1.37-3.16-4.52-3.75-4.52-1.11.09-2.3-1.54-1.96-2.47.17-.6-4.35-7.34-5.21-7.34-1.11-.09-2.05-1.45-1.96-2.3.09-.68-3.5-6.49-4.01-6.57-1.37-.26-2.13-1.96-2.05-3.07.17-1.37-.94-4.01-1.71-4.18-1.11-.34-1.02-2.56-.26-3.67.34-.51.51-4.69-.34-5.8-.6-.77-.68-2.3-.17-2.82.85-.77.17-5.55-.6-5.97-1.54-.85-1.11-3.07-.17-3.93 1.79-1.79 1.28-4.78.09-5.97-1.54-1.45-.77-4.78 0-5.89 1.71-2.73 1.28-11.18.34-11.95-1.45-1.11-.85-3.5.17-4.95.85-1.28 1.02-6.49.09-7.42-1.11-1.11-.77-3.24.26-4.44.94-1.11.6-5.46-.17-6.49-1.45-1.88-.94-4.78.34-6.74.17-.26 1.88-9.22.94-9.81-1.19-.77-1.28-3.33.17-4.18.94-.6 1.54-9.05.68-9.56-1.19-.77-1.19-2.99.09-3.75 1.02-.6.77-4.18-.34-4.61s0-2.05 0-3.07c.17-16.47-48.05-16.04-48.3 0 0 1.02 1.19 2.65 0 3.07-1.11.43-.85 5.89.09 6.4 1.28.68 1.28 2.99.09 3.75-.85.51-.17 8.62.77 9.13 1.45.94 1.45 3.41.17 4.18-.94.6 0 5.72.17 6.06 1.28 1.96 1.79 4.78.34 6.74-.77 1.02-.77 7.68.17 8.79.94 1.19 1.37 3.33.17 4.44-.94.94-.77 8.7.09 9.98.94 1.45 1.54 3.84.17 4.95-1.02.77-1.11 5.21.6 7.85.68 1.11 1.54 4.44 0 5.89-1.19 1.11-1.96 5.55-.17 7.42.94.94 1.37 3.07-.17 3.93-.77.43-1.45 5.21-.6 5.97.51.51.43 2.05-.17 2.82-.85 1.11-.68 5.29-.34 5.8.77 1.11.85 3.33-.26 3.67-.77.26-1.88 2.9-1.71 4.18.09 1.02-.68 2.82-2.05 3.07-.6.09-4.1 5.89-4.01 6.57.09.85-.85 2.3-1.96 2.3-.85 0-5.38 6.74-5.21 7.34.34.94-.85 2.56-1.96 2.47-.6-.09-3.75 3.16-3.75 4.52.09 1.71-1.54 4.01-3.33 3.58-.94-.26-2.9 2.39-4.69 3.5-7.6 4.44 2.56 25.77 9.05 27.74 2.39.68 17.67-11.35 17.32-12.54-.43-1.71 1.96-3.84 3.84-3.33 1.02.26 6.57-6.83 6.32-7.6-.43-1.11.94-3.07 2.22-3.07.94 0 3.67-5.12 3.24-6.4-.26-.68 1.02-2.39 1.71-2.65 1.11-.34 3.75-4.35 3.16-5.55-.43-.85.09-2.47 1.19-2.73 1.02-.26 5.97-4.44 6.91-4.18 1.11.26 1.62 1.79 1.19 2.73-.6 1.19 1.62 6.83 2.73 7.25.68.26 1.88 1.96 1.71 2.65-.43 1.28 1.88 7.51 2.82 7.51 1.37 0 2.73 1.96 2.22 3.07-.34.77 6.23 9.39 7.25 9.05 1.88-.51 4.27 1.62 3.84 3.33-.26 1.19 14.93 13.23 17.32 12.54 6.83-1.88 17.07-23.13 9.39-27.65Z" fill="url(#1770301554920-9410280_b)"></path><path d="M248.48 15.61s31.4 5.8 33.37-.26c-.43-.68-.09-2.47-.09-2.47-2.39 5.12-33.28 2.73-33.28 2.73m9.47 103.26s-16.13-2.56-22.44-7.94c0 0 .51 1.62-.17 2.82 2.39 7.94 22.61 5.12 22.61 5.12" class="o" fill="#dbc2ba"></path><path d="M233.03 127.4s-.26 2.13-2.05 3.07c2.65 3.5 5.97 17.92 22.02 16.9 0-1.62.94-2.65.94-2.65-16.56.09-18.26-15.11-20.91-17.32m-6.14 9.64s-.17 1.45-1.96 2.3c2.65 3.5 7 17.24 23.13 16.21.51-1.62 1.37-2.47 1.37-2.47-16.56 0-19.8-13.82-22.53-16.04Zm-7.08 9.73s-.17 1.54-1.96 2.47c2.65 3.58 8.45 16.9 24.83 15.87.09-2.05 2.05-3.07 2.05-3.07-16.81 0-22.19-13.06-24.92-15.28Zm-5.72 7.43s-.68 2.65-3.33 3.16c2.65 3.67 3.41 16.13 21.76 18.69.09-2.05 3.5-3.33 3.5-3.33-17.32-1.96-19.2-16.21-21.93-18.52m19.63-132.45s1.11 2.05.09 3.75c2.47 6.74 46.17 5.04 48.22-1.88-1.02-1.71.09-3.75.09-3.75-11.44 8.19-37.29 8.62-48.39 1.88Z" class="n" fill="#c7a9a1"></path><path d="M253.26 41.21s25.35 3.84 27.91-3.84c-1.11-1.88.17-4.18.17-4.18-10.58 7.85-28.08 8.02-28.08 8.02" class="o" fill="#dbc2ba"></path><path d="M235 44.88s1.45 3.75.85 5.8c2.9 7.42 41.73 9.98 43.44 2.3-.6-2.05.85-5.8.85-5.8-9.64 10.33-35.84 6.4-45.14-2.3" class="n" fill="#c7a9a1"></path><path d="M235.59 60.58s.94 2.39.17 4.18c1.96 8.02 21.85 3.67 21.85 3.67s-13.23.26-22.02-7.85" class="o" fill="#dbc2ba"></path><path d="M235.93 75.09s.85 2.9-.09 4.61c2.82 8.7 41.65 6.49 43.61-2.56-.85-1.79-.09-4.61-.09-4.61-6.74 9.3-36.7 11.95-43.44 2.56Z" class="n" fill="#c7a9a1"></path><path d="M253.94 95.74s22.79 6.14 24.92-1.11c-.68-1.19.09-5.12.09-5.12-2.65 7.25-25 6.23-25 6.23Z" class="o" fill="#dbc2ba"></path><path d="M236.36 100.95s.94 2.3 0 3.84c3.24 6.57 41.05 6.66 42.84 0-.94-1.54 0-3.84 0-3.84-4.27 5.38-38.4 5.55-42.84 0m44.29 22.27c-1.19-1.19-.34-3.5-.34-3.5-6.66 10.24-38.06 10.24-45.23 0 0 0 .85 2.3-.34 3.5 3.5 12.12 44.63 12.2 45.91 0" class="n" fill="#c7a9a1"></path><path d="M284.49 130.47c-1.79-.85-2.05-3.07-2.05-3.07-2.73 2.22-4.52 13.14-21.08 13.14 0 0 .85 1.02.94 2.65 15.96.94 19.54-9.22 22.19-12.72m5.98 8.88c-1.79-.94-1.96-2.3-1.96-2.3-2.73 2.22-6.57 13.48-23.21 13.48 0 0 .85.85 1.37 2.47 16.21 1.02 21.16-10.07 23.81-13.65Zm7.16 9.9c-1.79-.94-1.96-2.47-1.96-2.47-2.73 2.3-9.13 13.82-25.86 13.82 0 0 1.96 1.02 2.05 3.07 16.21.94 23.13-10.84 25.77-14.42m3.76 4.95c-2.73 2.3-4.61 16.56-21.93 18.43 0 0 3.41 1.28 3.5 3.33 18.35-2.47 19.12-15.02 21.76-18.69-2.65-.51-3.33-3.07-3.33-3.07" class="n" fill="#c7a9a1"></path><path d="M52.2 488.98c-1.45 11.86 125.88 24.07 153.61-14.08C308.05 334 72.94 317.96 52.2 488.98" class="p" fill="#cf5248"></path><path d="M26.6 320.01c-19.97 11.44-8.11 60.33-16.9 84.83-34.31 94.9 28.25 150.79 96.01 64.6 22.27-28.5-67.5-147.64-79.11-149.43" fill="url(#1770301554920-9410280_c)"></path><path d="M35.05 283.91c-10.41 6.66-13.23 22.44-9.64 38.4 47.11 209.42 200.72 167.61 218.04 46.77 25.43-177.68-196.79-83.38-208.4-85.17" fill="url(#1770301554920-9410280_d)"></path><path d="M69.69 216.75c-11.35 27.56-34.48 29.44-37.04 59.23-8.53 99.59 220.86 99.68 214.54 39.43-5.04-47.62 7.08-106.25-16.04-125.45-46.25-38.32-53.76-48.3-27.14-83.04 16.81-21.93-72.03-41.82-134.32 109.83" fill="url(#1770301554920-9410280_e)"></path><path d="M300.54 298.42c130.57-.77 161.72 190.39 104.03 202.51-55.98 11.78-84.66-6.14-94.3-26.28-17.15-35.76 17.41-104.97-9.73-176.23" class="p" fill="#cf5248"></path><path d="M472.15 266.08c30.12-14.59 67.67 245.95 8.79 243.9-87.22-3.07-65.63-27.74-83.89-23.47-9.73-38.49-1.79-183.14 75.1-220.43" fill="url(#1770301554920-9410280_f)"></path><path d="M424.11 137.81c16.47 24.75-.43 33.45 47.28 104.97 22.27 33.45 5.72 147.64-49.92 227.6-36.78 52.83-105.48 7.85-88.41-21.93 76.21-132.62-17.49-119.22-44.55-149.86-24.07-27.31-22.02-72.37-6.49-98.31 26.71-44.46 27.48-54.19 26.71-84.83-.77-27.74 59.4-61.87 115.38 22.36" fill="url(#1770301554920-9410280_g)"></path></g></svg>
