<svg xmlns="http://www.w3.org/2000/svg" id="a" data-name="Layer 1" viewBox="0 0 512 477.87"><defs><radialGradient id="y" cx="151.21" cy="63.61" r="91.52" fx="151.21" fy="63.61" gradientTransform="matrix(1.01785 .06618 .06683 -.99777 -54.39 450.58)" gradientUnits="userSpaceOnUse"><stop offset="0" stop-color="#fddf98"/><stop offset="1" stop-color="#d6b768"/></radialGradient><radialGradient id="z" cx="154.93" cy="74.53" r="20.67" fx="154.93" fy="74.53" gradientTransform="matrix(1.01785 .06618 .06683 -.99777 -54.39 450.58)" gradientUnits="userSpaceOnUse"><stop offset=".21" stop-color="#ff3b3b"/><stop offset=".42" stop-color="#f63131"/><stop offset=".77" stop-color="#de1615"/><stop offset="1" stop-color="#cc0100"/></radialGradient><radialGradient id="aa" cx="194.33" cy="25.22" r="21.39" fx="194.33" fy="25.22" gradientTransform="matrix(1.01785 .06618 .06683 -.99777 -54.39 450.58)" gradientUnits="userSpaceOnUse"><stop offset="0" stop-color="#ffe357"/><stop offset=".18" stop-color="#ffdf51"/><stop offset=".43" stop-color="#ffd440"/><stop offset=".72" stop-color="#ffc123"/><stop offset="1" stop-color="#fa0"/></radialGradient><radialGradient id="ab" cx="92.1" cy="94.24" r="23.95" fx="92.1" fy="94.24" gradientTransform="matrix(1.01785 .06618 .06683 -.99777 -54.39 450.58)" gradientUnits="userSpaceOnUse"><stop offset="0" stop-color="#2289c7"/><stop offset=".29" stop-color="#1a7eb9"/><stop offset=".84" stop-color="#066093"/><stop offset="1" stop-color="#005687"/></radialGradient><radialGradient id="ac" cx="109.9" cy="28.59" r="24.17" fx="109.9" fy="28.59" gradientTransform="matrix(1.01785 .06618 .06683 -.99777 -54.39 450.58)" gradientUnits="userSpaceOnUse"><stop offset="0" stop-color="#9be022"/><stop offset=".27" stop-color="#91d422"/><stop offset=".75" stop-color="#78b423"/><stop offset="1" stop-color="#69a123"/></radialGradient><linearGradient id="m" x1="-615.03" x2="-615.03" y1="342.54" y2="336.08" gradientTransform="translate(4235.16 -2032.69)scale(6.57)" gradientUnits="userSpaceOnUse"><stop offset="0" stop-color="#a6694a"/><stop offset="1" stop-color="#4f2a1e"/></linearGradient><linearGradient id="s" x1="-600.23" x2="-600.23" y1="342.54" y2="336.08" gradientTransform="translate(4252.89 -2032.69)scale(6.57)" gradientUnits="userSpaceOnUse"><stop offset="0" stop-color="#a6694a"/><stop offset="1" stop-color="#4f2a1e"/></linearGradient><linearGradient id="x" x1="252.09" x2="252.09" y1="255.78" y2="438.23" gradientTransform="matrix(1 0 0 -1 0 475.87)" gradientUnits="userSpaceOnUse"><stop offset=".5" stop-color="#473834"/><stop offset=".64" stop-color="#503f3a"/><stop offset=".86" stop-color="#68524a"/><stop offset="1" stop-color="#7a6056"/></linearGradient><style>.am{fill:#ffc940}.an{fill:#1a1626}.aq{fill:#fff}.as{fill:#ab968c}.at{fill:#966f42}.au{fill:#f0a429}.av{fill:#302c3b}</style></defs><path d="M59.51 398.66c23.42-10.99 119.82-40.17 119.82-40.17l145.38-.25s97.08 29.36 120.35 40.4c33.83 15.97 40.94 37.79 40.94 58.41 0 15.8-151.59 22.61-282.21 20.43 0 0-99.93-26.71-164.11-10.26-12.24-2.56-21.64-6.78-21.64-10.16 0-20.66 7.54-42.48 41.46-58.39Z" class="av"/><path d="M175.28 375.01s24.65 24.17 76.8 24.17 76.8-24.17 76.8-24.17v-68.57h-153.6z" class="av"/><path d="M252.08 396.58c-53.3 0-77.8-21.14-77.8-21.14s24.5 28.47 77.8 28.47 77.81-28.47 77.81-28.47-24.49 21.14-77.81 21.14" class="an"/><path id="b" d="M392.38 165.5c-21.72 2.62-37.4 75.21-23.73 94.39 1.92 2.67 13.1 6.95 21.4-9.97 4.6-9.37 17.85-17.19 21.96-36.5 5.27-24.76 1.99-50.54-19.64-47.92Z" class="am" data-name="Path"/><path id="c" d="M111.79 165.5c21.72 2.62 37.4 75.21 23.73 94.39-1.92 2.67-13.1 6.95-21.42-9.97-4.58-9.37-17.85-17.19-21.95-36.5-5.28-24.76-1.98-50.54 19.64-47.92" class="am" data-name="Path"/><path id="d" d="M391.8 179.39c-5.67 1.78-11.85 10.42-15.2 24.73 19.8-4.25 14.85 28.68-2.36 29.3.17 3.32.38 6.72.8 10.3 8.29-12.01 16.72-7.2 25.07-25.08 7.51-16.12 5.73-43.63-8.31-39.25" class="au" data-name="Path"/><path id="e" d="M127.58 204.09c-3.37-14.3-9.53-22.92-15.2-24.7-14.02-4.39-15.83 23.13-8.3 39.25 8.35 17.89 16.79 13.06 25.08 25.08.4-3.58.63-7 .77-10.32-17.03-.79-21.91-33.33-2.35-29.31" class="au" data-name="Path"/><path id="f" d="M252.08 25.89c-94.1 0-139.43 71.07-133.77 169.88 1.13 19.88 13.5 84.74 25.15 108 11.93 23.8 51.83 60.5 76.27 68.1 15.45 4.79 49.27 4.79 64.71 0 24.45-7.6 64.37-44.3 76.28-68.1 11.68-23.27 24.01-88.1 25.13-108 5.7-98.82-39.64-169.88-133.77-169.88" class="am" data-name="Path"/><path id="g" d="M354.33 158.24c-21.51-11.4-62.7-11.95-78.05-4-3.3 1.52-1.12 12.3 1.65 11.28 21.37-8.45 55.87-8.64 75.89.72 2.66 1.22 3.78-6.42.51-8" class="at" data-name="Path"/><path id="h" d="M149.84 158.24c21.51-11.4 62.69-11.95 78.05-4 3.29 1.52 1.12 12.3-1.65 11.28-21.42-8.45-55.87-8.64-75.9.72-2.65 1.22-3.75-6.42-.49-8Z" class="at" data-name="Path"/><path id="i" d="M277.48 256.92c-2.68-1.87-8.99 1.02-25.4 1.02s-22.7-2.88-25.39-1.02c-3.22 2.27 1.9 12.47 25.39 12.47s28.63-10.2 25.4-12.47" class="au" data-name="Path"/><path id="j" d="M252.08 295.65c-21.15-6.22-52.51 2.95-52.51 2.95 11.93 12.98 20.68 29.82 52.51 29.82 36.49 0 42.68-19.11 52.54-29.82 0 0-31.38-9.22-52.54-2.95" class="au" data-name="Path"/><path id="k" d="M207.42 300.79c22.2 18.57 67 18.7 89.32 0-23.65 1-65.5 1.02-89.32 0" class="aq" data-name="Path"/><path id="l" d="M231.14 196.99c.8 6.23-3.43 13.6-15.13 19.13-7.43 3.52-22.92 7.65-43.23-.91-9.1-3.83-17.98-15.77-17.19-22.38 11.02-20.74 65.23-23.77 75.55 4.16" class="aq" data-name="Path"/><circle id="n" cx="194.36" cy="196.59" r="21.27" data-name="Oval" style="fill:url(#m)"/><path id="o" d="M183.71 196.19c0 14.72 21.3 14.72 21.3 0 0-13.64-21.3-13.64-21.3 0" class="an" data-name="Path"/><path id="p" d="M180.48 190.23c0 6.17 8.92 6.17 8.92 0 0-5.7-8.92-5.7-8.92 0" class="as" data-name="Path"/><path id="q" d="M231.24 197.81c-8.65-27.73-67.64-23.64-75.65-4.98 2.97-23.88 68.28-30.2 75.65 4.98" class="au" data-name="Path"/><path id="r" d="M273.03 196.99c-.8 6.23 3.41 13.6 15.13 19.13 7.43 3.52 22.9 7.65 43.21-.91 9.13-3.83 18-15.77 17.2-22.38-11.01-20.74-65.25-23.77-75.55 4.16Z" class="aq" data-name="Path"/><circle id="t" cx="309.33" cy="196.59" r="21.27" data-name="Oval" style="fill:url(#s)"/><path id="u" d="M298.7 196.19c0 14.72 21.3 14.72 21.3 0 0-13.64-21.3-13.64-21.3 0" class="an" data-name="Path"/><path id="v" d="M295.45 190.23c0 6.17 8.93 6.17 8.93 0 0-5.7-8.93-5.7-8.93 0" class="as" data-name="Path"/><path id="w" d="M272.93 197.81c8.64-27.72 67.58-23.75 75.65-4.98-3-23.88-68.28-30.2-75.65 4.98" class="au" data-name="Path"/><path d="M372.28 49.43C351.68 21.61 313.98 0 252.08 0s-99.57 21.61-120.17 49.43c-29.17 39.39 269.52 39.39 240.37 0" style="fill:#7a6056"/><path d="M372.28 49.43c-20.6-27.83-58.3 2.35-120.2 2.35s-99.57-30.17-120.17-2.35c-29.17 39.39-19.27 170.66-6.28 170.66 2.05 0 2.35-45.92 6.28-77.69 3.18-25.85 9.34-50.94 16.42-55.03 21.6-12.52 63.25 5.38 103.75 5.38s82.17-17.9 103.79-5.38c7.07 4.1 13.2 29.18 16.42 55.03 3.92 31.77 4.22 77.69 6.26 77.69 12.98 0 22.88-131.27-6.27-170.66" style="fill:url(#x)"/><path d="M39.68 467.21C29.6 465.2-3.55 404.81.32 347.14c5.22-78.11 134.45-2.74 203.49 130.33 0 0-118.99-1.24-164.12-10.26Z" style="fill:url(#y)"/><path d="M87.37 374.58c-7.69 14.99 3.8 10.08 10.02 22.67 3.6 7.28 6.13 8.82 13.44 6.6 4.75-1.43 12.46 3.47 16.14.56 13.99-11.09-27.25-53.97-39.59-29.84Z" style="fill:url(#z)"/><path d="M161.43 457.92c2.78-2.53.1-7.42.49-10.53.96-7.51 6.38-6.87 1.97-15.49-4.91-9.56-20.72-18.94-31.19-14.96-16.03 6.08-7.21 17.38-.89 29.18 4.47 8.35 20.82 19.86 29.61 11.79Z" style="fill:url(#aa)"/><path d="M65.53 378.11c7.05-10.21 8.88-16.26-3.79-26.16-12.6-9.86-21.53-16.76-35.07-7.85-16.42 10.85 1.6 16.33 4.58 28.73 3.46 14.27 26.76 16.18 34.28 5.28" style="fill:url(#ab)"/><path d="M75.54 417.69c-11.26-12.25-22.46-16.79-37.85-4.59-8.47 6.7-.09 8.42 1.43 14.8 1.59 6.74-4.98 10.59 3.77 14.84 6.61 3.22 29.25 16.02 37.29 7.88 7.94-7.97.84-26.94-4.65-32.92Z" style="fill:url(#ac)"/><path d="m490.12 352.09-29.89-7.95c-1.77-19 1.76-39.24 11.68-50.24 12.2-13.52 42.42-10.75 37.51 20.68-2.94 18.97-19.3 37.5-19.3 37.5Z" class="av"/><path d="m465.89 346.33-2.94-.65s-4.32-22.77 6.04-43.7c-7.61 26.5-3.1 44.35-3.1 44.35" class="an"/><path d="m469.29 347.06-2.92-.63s-.14-27.58 10.2-48.52c-7.58 26.5-7.28 49.15-7.28 49.15m3.68 11.96-2.94-.65s-.12-27.56 10.21-48.5c-7.59 26.49-7.28 49.15-7.28 49.15Z" class="an"/><path d="M492.85 253.37s26.09 8.65 17.37 59.78c-1.95 11.52-4.34-16.89-10.92-6.2-2.8 4.58-4.34-14.81-12.7-6.49-5.6 5.58-1.8-13.6-13.91-5.77-10.61 6.84 20.67-23.48 20.16-41.33Z" style="fill:#e81c27"/><path d="M424.12 471.71s10.23-36.67 22.95-82.48c17.95-10.49 29.99 7.99 29.99 7.99-12.72 45.82-19.1 70.39-19.1 70.39-14.86 3.11-33.84 4.1-33.84 4.1" style="fill:#7d625a"/><path d="M490.12 352.09c-2.05 7.3-11.04 37.84-13.05 45.12-9.69-3.7-19.63-6.75-29.99-7.99 2.03-7.29 11.13-37.8 13.15-45.08 10.37 1.22 20.21 4.25 29.89 7.95" style="fill:#b3c2c6"/></svg>