<svg xmlns="http://www.w3.org/2000/svg" id="a" data-name="Layer 1" viewBox="0 0 512 495.99"><defs><linearGradient id="g" x1="200.13" x2="200.13" y1="315.91" y2="347.91" gradientTransform="matrix(1 0 0 -1 0 495.99)" gradientUnits="userSpaceOnUse"><stop offset="0" stop-color="#a6694a"/><stop offset="1" stop-color="#4f2a1e"/></linearGradient><linearGradient id="h" x1="-2608.53" x2="-2608.53" y1="315.91" y2="347.91" gradientTransform="matrix(-1 0 0 -1 -2296.98 495.99)" gradientUnits="userSpaceOnUse"><stop offset="0" stop-color="#a6694a"/><stop offset="1" stop-color="#4f2a1e"/></linearGradient><style>.k{fill:#6e8189}.m{fill:#fcc7c3}.n{fill:#1a1626}.o{fill:#fc5a4e}.q{fill:#2b998d}.r{fill:#3e4a52}.s{fill:#4e5e67}.t{fill:#3ab0a2}.u{fill:#302c3b}.v{fill:#247d73}</style></defs><path d="M113.98 325.94c11.17-24.16 67.51-31.78 67.51-31.78l148.67-.22s56.77 7.68 67.95 31.96c36.04 78.24-22.38 75.78-22.38 135.5 0 46.12-239.84 46.12-239.84 0 0-59.45-58-57.57-21.91-135.47Z" class="t"/><path d="M181.49 294.16c0 58.47 148.67 58.25 148.67-.22l-14.9-4.95H197.05z" class="q"/><path d="M192.13 290.63c0 45.77 127.44 45.77 127.44 0v-50.64H192.13z" class="s"/><path d="M181.49 294.16c-23.83 2.23-48.21 6-48.21 6C84.5 290.22 63 312.55 32.33 342.22c-18.95 18.33 22.78 83.36 45.65 70.87 18.78-10.26 103.51-118.93 103.51-118.93" class="t"/><path d="M95.33 387.18c75.05-7.26 83.83-24.62 51.16-64.45 45 80.11-55.39 26.26-51.16 64.45" class="v"/><path d="M143.31 376.4c-21.62 18.61-89.16 7.62-109.05-17.83-14.54-18.61 31.58-29.66 31.42-34.36-.46-14.03 79.42-3.92 76.83 8.14-2.01 9.25 22.93 25 .79 44.05Z" class="r"/><path d="M140.51 341.6c-45.09-35.36-101.72-2.23-105.29 8.08-14.5 41.7-40.78 57.61-34.17 66.17 9.67 12.51 12.95 28 16.83 36.97 2.14 4.95 12.14 5 12.16-4.28.02-7.56-1.56-16.02-.56-16.7 14.59 21.23 11.03 33.84 14.67 37.98 4.25 4.82 20.34 5.34 15.74-18.98 0 0 6.83 11.8 8.94 22.14 2.25 10.98 19.54 8.66 20.75-4.17 1.03-11.02-6.9-31.08-6.9-31.08s6.53 9.94 12.61 22.89c3.38 7.22 12.82 1.86 14.77-10.02 2.47-15.03-11.58-44.7-11.03-48.57 1.33-9.22 9.59-6.46 18.41-17.13 0 0-9.98 19.11-.67 37.05 6.14 11.83 19.17 8.06 17.62.17-4.66-23.75 8.98-24.84 8.98-37.22-.02-11.33 6.78-35.74-2.85-43.3Z" class="k"/><path d="M29.09 452.77c1.25-17.75-10.34-36.31-9.31-39.13 1.54-4.22 4.34-10.86 8.66-18.16 1.23 4.14-5.87 14.94-3.87 21.64 1.36 4.52 11.34 24.19 4.53 35.65Zm29.44 15.27c4.58-17.47-16.2-46.77-15.17-49.57 1.53-4.22 6.59-17.59 9.61-31.28-.44 17.64-4.13 24.39-4.7 32.03-.54 7.22 19.64 33.99 10.26 48.82m29.39 6c4.58-17.49-11.62-47-12.47-49.9-2.72-9.36-2.77-25.56.25-39.23-.46 17.64.64 29.22 4 39.5 2.26 6.82 17.62 34.8 8.22 49.63" class="r"/><path d="M330.5 294.16c23.84 2.23 48.21 6 48.21 6 48.78-9.94 70.28 12.39 100.95 42.06 18.95 18.33-22.78 83.36-45.65 70.87-18.78-10.26-103.51-118.93-103.51-118.93" class="t"/><path d="M416.65 387.18c-75.05-7.26-83.81-24.62-51.16-64.45-44.99 80.11 55.39 26.26 51.16 64.45" class="v"/><path d="M368.68 376.4c21.64 18.61 89.16 7.62 109.06-17.83 14.53-18.61-31.59-29.66-31.44-34.36.46-14.03-79.41-3.92-76.81 8.14 1.99 9.25-22.95 25-.81 44.05" class="r"/><path d="M371.48 341.6c45.1-35.36 101.72-2.23 105.31 8.08 14.49 41.7 40.78 57.61 34.16 66.17-9.67 12.51-12.95 28-16.83 36.97-2.14 4.95-12.13 5-12.16-4.28-.02-7.56 1.58-16.02.56-16.7-14.59 21.23-11.03 33.84-14.67 37.98-4.25 4.82-20.33 5.34-15.74-18.98 0 0-6.83 11.8-8.94 22.14-2.23 10.98-19.54 8.66-20.75-4.17-1.03-11.02 6.92-31.08 6.92-31.08s-6.54 9.94-12.61 22.89c-3.39 7.22-12.82 1.86-14.77-10.02-2.49-15.03 11.56-44.7 11.02-48.57-1.33-9.22-9.59-6.46-18.39-17.13 0 0 9.97 19.11.66 37.05-6.14 11.83-19.17 8.06-17.62.17 4.66-23.75-8.98-24.84-8.98-37.22 0-11.33-6.79-35.74 2.84-43.3Z" class="k"/><path d="M482.89 452.77c-1.25-17.75 10.34-36.31 9.31-39.13-1.53-4.22-4.34-10.86-8.66-18.16-1.23 4.14 5.87 14.94 3.87 21.64-1.35 4.52-11.34 24.19-4.53 35.65Zm-29.43 15.27c-4.58-17.47 16.2-46.77 15.17-49.57-1.53-4.22-6.59-17.59-9.61-31.28.44 17.64 4.14 24.39 4.7 32.03.53 7.22-19.64 33.99-10.26 48.82m-29.39 6c-4.58-17.49 11.62-47 12.47-49.9 2.72-9.36 2.78-25.56-.23-39.23.44 17.64-.64 29.22-4.02 39.5-2.24 6.82-17.6 34.8-8.22 49.63" class="r"/><path d="M88.41 303.57c9.14-.82 22.46.53 26.31-3.8-2.2-6.62 1.72-10.74 1.72-10.74s-28.45 2.1-28.03 14.54" class="t"/><path d="M90.82 304.43c-8.3 3.59-18.97 10.98-24.72 9.1-1.83-6.72-7.51-8.41-7.51-8.41s25.58-11.57 32.23-.69" class="t"/><path d="M99.69 301.71c-8.3 3.59-12.23 6.69-17.98 4.78-1.83-6.72-.02-14.78-.02-14.78s11.36-.88 18 10" class="q"/><path d="M117.07 299.78c-10.44 1.59-13.47 14.14-38.77 19.18-9.42 1.31-13.06-5.49-13.06-5.49s25.58-17.86 51.83-13.7Z" class="s"/><path d="M118.81 299.78c-10.46 1.59-12.28 8.94-25.02 14.17-3.8-5.8-16.92-4.82-16.92-4.82s15.69-13.51 41.94-9.35" class="k"/><path d="M98.02 317.48c-8.3 3.59-25.13 9.08-32.3 4.7-1.83-6.72-11.53-9.08-11.53-9.08s37.18-6.5 43.82 4.38Zm233.21 97.65c-7.61 8.58-4.74 25.28.54 27.78 7.59-6.89 25.59-1.46 25.59-1.46s-12.37-28.63-26.14-26.33Zm-7.22 4.14c-4.98-9.06-19.74-16.7-18.3-25.83 17.78-1.64 17.72-20.54 17.72-20.54s18.38 24.55.58 46.37" class="q"/><path d="M312.42 401.46c-2.89 5.13-20.22 4.51-26.41-6.84 1.82-9.72-2.39-22.9-2.39-22.9s21.08-.09 28.8 29.74" class="v"/><path d="M299.12 433.46c-8-11.18-23.69-1.78-33.86-16.47 8.7-6.1 20.75-22.38 20.75-22.38s20.6 22.47 13.1 38.85Z" class="q"/><path d="M331.78 442.91c-12.13-.97-15.17 11.23-28.66 16.58 2.61-11.83-4-26.03-4-26.03s32.7-19.42 32.66 9.46Zm-12.03-35.64c1.98 12.03 5.47 17.8 10.75 20.31 7.13-7.33 24.13-15.44 24.13-15.44s-21.06-13.5-34.88-4.87" class="v"/><path d="M330.95 436.02c-15.94-10.83-31.1-3.41-31.1-3.41s1.23-13.86-12.03-36.03c10.3 4.42 24.59 4.87 24.59 4.87s21.5 9.57 18.54 34.57" class="s"/><path d="M330.95 436.02c-15.94-10.83-31.83-2.56-31.83-2.56s-.94-15.18-8.9-32.67c16.29 12.92 32.16.67 40.74 35.23Z" class="k"/><path d="M208.66 417.12c-16.53 17.36-15.51 28.78.49 30.14 16 1.34 10.61-41.77-.49-30.14" class="q"/><path d="M216.96 435.43c-10.41 3.74-10.7 19.86.33 20.8 11.04.92 20.42-28.24-.33-20.8m-43.44-8.08c-5.9-4.78-7.34 13.59.23 14.25 7.57.62 19.19 1.49-.23-14.25" class="q"/><path d="M192.56 449.48c-7.95 4.86-5.02 9.28.16 9.72 5.15.43 4.26-12.41-.16-9.72m-34.82-48.69c6.34-.62 24.78-9.2 5.8-23.61-5.08-3.85-12.16 24.23-5.8 23.61" class="v"/><path d="M320.62 358.55c5.11-2.44 13.62-7-2.11-10.42-5.53-1.2-20.51 21.21 2.11 10.42" class="q"/><path d="M414.35 348.07c5.62-.56 28.58-2.14 23.5-4.66-16.75-8.3-29.14 5.22-23.5 4.66m13.74 8.78c-6.74 4.38 25.03 13.3 28.5 6.03 1.35-2.84-13.76-15.62-28.5-6.03" class="s"/><path d="M225.24 369.34c8.49-.02-4.33-16-25.75-16-8.5 0-2.58 16.03 25.75 16" class="q"/><path id="b" d="M380.43 140.16c-19.28 2.31-33.22 66.8-21.08 83.83 1.7 2.36 11.64 6.17 19-8.86 4.1-8.33 15.86-15.26 19.51-32.42 4.69-21.98 1.77-44.88-17.43-42.55" class="k" data-name="Path"/><path id="c" d="M131.23 140.16c19.3 2.31 33.22 66.8 21.08 83.83-1.7 2.36-11.64 6.17-19.02-8.86-4.08-8.33-15.86-15.26-19.5-32.42-4.69-21.98-1.77-44.88 17.44-42.55" class="k" data-name="Path"/><path id="d" d="M379.91 152.5c-5.03 1.58-10.53 9.25-13.5 21.97 17.58-3.78 13.18 25.47-2.11 26.02.16 2.94.34 5.97.72 9.16 7.36-10.69 14.84-6.41 22.26-22.28 6.68-14.34 5.1-38.76-7.37-34.86Z" class="s" data-name="Path"/><path id="e" d="M145.25 174.44c-2.98-12.7-8.47-20.36-13.5-21.94-12.44-3.89-14.06 20.53-7.38 34.86 7.42 15.87 14.9 11.59 22.28 22.28.36-3.18.56-6.23.69-9.17-15.12-.7-19.46-29.62-2.09-26.03" class="s" data-name="Path"/><path d="m189.82 47.17-4.98-31.14c-32.56 9.64-73.49 45.73-82.49 108.5 26.36-52.2 87.47-77.36 87.47-77.36m138.32-31.95-15.16 40.17s73.45 36.41 93.73 105.89c5.53-82.14-38.39-131.55-78.57-146.05Z" class="u"/><path d="M255.87 0C167.33 0 129.5 46.84 129.5 110.98h252.7C382.19 46.84 344.35 0 255.87 0" class="u"/><path d="M255.85 49.78c-84.09 0-124.61 20.94-119.51 109.39 1.02 17.8 12.03 75.84 22.46 96.65 10.66 21.3 46.31 54.14 68.16 60.95 13.78 4.28 44 4.28 57.8 0 21.84-6.82 57.5-39.66 68.16-60.95 10.42-20.82 21.46-78.85 22.47-96.65 5.06-88.45-35.46-109.39-119.53-109.39Z" class="k"/><path d="M255.87 39.31c-50.84 0-160.87-21.87-116.34 143.8 2.66-19.54-2.64-45.2 5.69-65.42 25.8-62.77 33.05-40.87 110.65-40.87s84.85-21.89 110.65 40.87c8.33 20.22 3.03 45.87 5.69 65.42 44.52-165.67-65.5-143.8-116.34-143.8" class="u"/><path d="M351.71 125.05c-19.49-9.66-56.73-10.14-70.61-3.41-2.97 1.31-1.02 10.49 1.49 9.59 19.36-7.16 50.54-7.33 68.65.62 2.4 1.02 3.42-5.45.46-6.81Zm-191.73 0c19.47-9.66 56.72-10.14 70.61-3.41 2.97 1.31 1.02 10.49-1.49 9.59-19.38-7.16-50.54-7.33-68.67.62-2.41 1.02-3.41-5.45-.45-6.81Z" class="u"/><path d="M291.11 275.51c0 12.47-15.78 17.05-35.26 17.05s-35.23-4.58-35.23-17.05c0-47.82 70.49-47.82 70.49 0" class="n"/><path d="M147.41 67c-26.47 18.34-50.2 75.21-48.18 126.25 9.03-47.18 40.69-57.62 40.69-57.62l7.5-68.62Z" class="u"/><path d="M301.34 139.09c-41.7 12.83-16.41 71.54 25.3 58.72 41.7-12.82 16.41-71.53-25.3-58.72m-90.98 0c-41.72-12.82-67.01 45.89-25.33 58.72 41.72 12.82 67.01-45.89 25.33-58.72m-17.15 84.41c-8.58-.72-8.33 15.44.25 16.17 8.59.72 8.34-15.46-.25-16.17m-14.69 5.48c-4.05-.34-3.94 7.3.13 7.64s3.94-7.3-.13-7.64m6.04 11.87c-2.77-.23-2.69 4.98.1 5.22 2.76.24 2.68-4.98-.1-5.22m122.48 28.93c5.54 6.58 16.82-5.03 11.25-11.62-5.56-6.58-16.81 5.02-11.25 11.62m14.25 6.49c2.62 3.11 7.95-2.38 5.33-5.5-2.64-3.1-7.95 2.39-5.33 5.5m4.14-12.67c1.8 2.14 5.42-1.61 3.62-3.74-1.78-2.14-5.42 1.63-3.62 3.74" class="s"/><path d="M248.08 46.64c16.47 29.36 78.13 47.7 99.32 45.8-19.19-19.41-27.7-69.37-99.32-45.8" class="u"/><path d="M164.89 45.06c23.31 34.95 110.55 56.81 140.53 54.54-27.16-23.12-39.21-82.64-140.53-54.54" class="u"/><path d="M161.51 37.03c-27.94 45.49 44.77 64.14 74.8 62.31-26.93-17.77-45-63.73-74.8-62.31" class="u"/><path id="f" d="M279.63 213.34c-2.51-1.75-8.42.95-23.82.95s-21.28-2.7-23.8-.95c-3.02 2.13 1.78 11.69 23.8 11.69s26.85-9.56 23.82-11.69" class="s" data-name="Path"/><path d="M285.35 282.55c0 12.47-13.23 17.05-29.54 17.05s-29.51-4.58-29.51-17.05c0-19.62 59.05-19.62 59.05 0" style="fill:#f46c60"/><path d="m255.85 285.51 4.69-17.49c-3.11-.22-6.26-.22-9.36 0z" style="fill:#e03636"/><path d="M170.64 164.08c0-24 55.78-24 55.78 0 0 32-55.78 32-55.78 0" class="m"/><path d="M199.07 183.12c-.3 1.16-3.05 3.16-3.17 2.39-.23-1.36-1.34-4.1 1.22-5.44-3.49 1.47-1.58 5.78-1.5 6.17.05.25-.02 1.13-.06 1.7.17.02.33.03.5.03l-.03-1.9s2.72-.67 3.05-2.95Zm6.21 3.47c.75-.23.8-4.84-2.94-5.92 2.74 1 2.9 4.3 2.64 5.38-.14.59-3.06-.9-3.38-1.82.33 1.78 3.23 2.25 3.23 2.25l-.03 1.03c.13-.02.25-.03.38-.06-.06-.38-.08-.79.1-.86m6.4-6.09c.28 1.16-1.18 4.22-1.66 3.61-.84-1.1-3.13-2.98-1.49-5.38-2.39 2.94 1.33 5.84 1.58 6.14.13.16.34.61.53 1.05.14-.05.28-.1.42-.16l-.66-1.22s2.08-1.87 1.28-4.04m6-.18c.53-.56-1.69-4.72-5.49-3.95 2.89-.38 4.64 2.5 4.95 3.58.16.61-3.14.61-3.86-.06 1.17 1.44 3.95.53 3.95.53l.72 1.44c.14-.11.26-.2.39-.31-.34-.38-.86-1.03-.67-1.22Zm2.09-9.32c1.06.98 1.59 5.05.72 4.74-1.58-.53-5.11-.92-5.06-4.42-.46 4.54 5.23 5 5.67 5.14.23.08.8.42 1.31.75.11-.16.22-.3.33-.46l-1.58-.83s.84-3.26-1.39-4.92m4.87-4.08c.17-.98-4.49-3.7-7.74-.16 2.59-2.49 6.05-.77 7 .14.51.51-2.7 2.9-3.8 2.74 2 .66 4.16-2.31 4.16-2.31l1.78 1.1c.05-.23.08-.47.11-.69-.55-.14-1.58-.47-1.52-.82Zm-3.98-7.72c1.3.34 3.53 3.44 2.67 3.58-1.53.25-4.61 1.49-6.1-1.41 1.62 3.92 6.49 1.8 6.9 1.72.36-.06 1.66.05 2.23.11-.02-.2-.03-.39-.05-.59l-2.36.03s-.74-3.05-3.3-3.44Zm-27.62 24.34c-.31.9-3.17 2.42-3.3 1.83-.23-1.06-.05-4.33 2.62-5.34-3.62 1.11-3.64 5.67-2.92 5.9.18.06.14.54.06.98.13.03.25.06.39.1l-.03-1.2s2.82-.5 3.17-2.27Zm-6.22-7.76c2.11 3.08-.78 5.49-1.86 6.87-.59.78-2.51-3.14-2.16-4.62-.98 2.77 1.67 5.17 1.67 5.17l-.84 1.53.53.25c.25-.56.51-1.16.67-1.34.31-.38 5.06-4.07 1.98-7.85Zm-5.2 1.48c-.78.72-3.95 1.2-3.7.61.44-1.06 2.54-4.02 5.26-4.1-3.53-.16-6.25 4.06-5.83 4.51.16.16-.44.83-.82 1.25l.28.28.94-1.5s2.54.47 3.87-1.05m1.15-9.64c.26 3.89-4.49 4.13-6.58 4.64-1.16.28-.67-4.2.7-5.23-2.9 1.72-1.59 5.41-1.59 5.41l-2.77 1.1c.1.23.2.46.31.67.74-.38 2.13-1.08 2.56-1.18.59-.14 8.22-.3 7.36-5.4Zm-5.09-2.81c-1.44.58-5-1.42-4.23-2.23 1.41-1.47 6.16-4.77 8.9-2.46-3.36-3.46-9.84 1.5-9.83 2.69 0 .39-1.14 1.03-1.89 1.42 0 .25.02.5.02.75l2.25-1.77s2.1 3.07 4.78 1.59Z" class="o"/><path d="M184.13 163.48c0 22.13 32 22.13 32 0 0-20.54-32-20.54-32 0" style="fill:url(#g)"/><path d="M193.48 163.83c0 9.18 13.3 9.18 13.3 0 0-8.52-13.3-8.52-13.3 0" class="n"/><path d="M226.41 164.11v-.03c0-32-55.78-32-55.78 0v.03c11.21-8.46 45.77-7.57 55.78 0" class="r"/><path d="M341.06 164.08c0-24-55.78-24-55.78 0 0 32 55.78 32 55.78 0" class="m"/><path d="M312.62 183.12c.3 1.16 3.05 3.16 3.17 2.39.23-1.36 1.33-4.1-1.23-5.44 3.5 1.47 1.58 5.78 1.5 6.17-.03.25.03 1.13.08 1.7-.17.02-.33.03-.5.03l.03-1.9s-2.72-.67-3.05-2.95m-6.2 3.47c-.75-.23-.8-4.84 2.94-5.92-2.75 1-2.9 4.3-2.66 5.38.16.59 3.08-.9 3.39-1.82-.33 1.78-3.23 2.25-3.23 2.25l.03 1.03c-.13-.02-.25-.03-.38-.06.06-.38.07-.79-.1-.86Zm-6.43-6.09c-.28 1.16 1.2 4.22 1.67 3.61.84-1.1 3.11-2.98 1.49-5.38 2.39 2.94-1.34 5.84-1.59 6.14-.11.16-.33.61-.53 1.05-.14-.05-.28-.1-.42-.16l.69-1.22s-2.09-1.88-1.3-4.05Zm-5.98-.18c-.53-.56 1.69-4.72 5.49-3.95-2.89-.38-4.66 2.5-4.95 3.58-.17.61 3.14.61 3.86-.06-1.17 1.44-3.95.53-3.95.53l-.74 1.44c-.13-.11-.25-.2-.38-.31.34-.38.86-1.03.67-1.22Zm-2.1-9.32c-1.06.98-1.61 5.05-.72 4.74 1.56-.53 5.11-.92 5.06-4.42.44 4.54-5.23 5-5.69 5.14-.22.08-.8.42-1.31.75-.1-.16-.22-.3-.31-.46l1.58-.83s-.84-3.26 1.39-4.92m-4.85-4.08c-.17-.98 4.49-3.7 7.74-.16-2.59-2.49-6.05-.77-7 .14-.51.51 2.69 2.9 3.8 2.74-2.02.66-4.16-2.31-4.16-2.31l-1.8 1.1c-.03-.23-.06-.47-.1-.69.55-.14 1.58-.47 1.52-.82m3.97-7.72c-1.31.34-3.53 3.44-2.67 3.58 1.53.25 4.61 1.49 6.1-1.41-1.62 3.92-6.49 1.8-6.92 1.72-.34-.06-1.64.05-2.22.11.02-.2.03-.39.05-.59l2.36.03s.74-3.05 3.3-3.44m27.62 24.34c.31.9 3.16 2.42 3.3 1.83.23-1.06.03-4.33-2.62-5.34 3.62 1.11 3.64 5.67 2.9 5.9-.18.06-.14.54-.05.98-.13.03-.26.06-.39.1l.02-1.2s-2.81-.5-3.15-2.27Zm6.22-7.76c-2.11 3.08.78 5.49 1.86 6.87.59.78 2.5-3.14 2.16-4.62.98 2.77-1.67 5.17-1.67 5.17l.83 1.53c-.17.08-.34.17-.51.25-.25-.56-.53-1.16-.67-1.34-.32-.38-5.06-4.07-1.99-7.85Zm5.2 1.48c.78.72 3.94 1.2 3.7.61-.46-1.06-2.54-4.02-5.26-4.1 3.53-.16 6.25 4.06 5.82 4.51-.14.16.46.83.83 1.25l-.28.28-.94-1.5s-2.54.47-3.87-1.05m-1.16-9.64c-.26 3.89 4.47 4.13 6.56 4.64 1.17.28.67-4.2-.69-5.23 2.9 1.72 1.58 5.41 1.58 5.41l2.78 1.1c-.11.23-.22.46-.31.67-.74-.38-2.13-1.08-2.56-1.18-.61-.14-8.22-.3-7.36-5.4Zm5.1-2.81c1.44.58 5-1.42 4.22-2.23-1.39-1.47-6.14-4.77-8.9-2.46 3.36-3.46 9.86 1.5 9.84 2.69 0 .39 1.14 1.03 1.89 1.42 0 .25-.02.5-.03.75l-2.23-1.77s-2.09 3.07-4.78 1.59Z" class="o"/><path d="M327.55 163.48c0 22.13-32 22.13-32 0 0-20.54 32-20.54 32 0" style="fill:url(#h)"/><path d="M318.21 163.83c0 9.18-13.3 9.18-13.3 0 0-8.52 13.3-8.52 13.3 0" class="n"/><path d="M285.27 164.11v-.03c0-32 55.78-32 55.78 0v.03c-10.82-12.03-40.14-18.93-55.78 0" class="r"/><path d="M79.94 353.6c-3.97 10.56 23.87 11.03 27.86.47s-23.86-11.03-27.86-.47m4.72 18.39c-1.89 5 11.28 5.2 13.17.22 1.88-5-11.27-5.22-13.17-.22m22.34-6.85c-1.3 3.41 7.7 3.54 8.98.14 1.3-3.42-7.7-3.57-8.98-.14" class="s"/></svg>