<?xml version="1.0" encoding="UTF-8"?>
<svg id="a" data-name="Layer 1" xmlns="http://www.w3.org/2000/svg" xmlns:xlink="http://www.w3.org/1999/xlink" viewBox="0 0 512 667.83">
  <defs>
    <style>
      .y {
        fill: url(#m);
      }

      .z {
        fill: url(#s);
      }

      .aa {
        fill: url(#x);
      }

      .ab {
        fill: #ffc940;
      }

      .ac {
        fill: #1a1626;
      }

      .ad {
        fill: #7a6056;
      }

      .ae {
        fill: #f5bb51;
      }

      .af {
        fill: #fff;
      }

      .ag {
        fill: #ab968c;
      }

      .ah {
        fill: #966f42;
      }

      .ai {
        fill: #f0a429;
      }

      .aj {
        fill: #3ab0a2;
      }

      .ak {
        fill: #302c3b;
      }

      .al {
        fill: #f2f5f7;
      }
    </style>
    <linearGradient id="m" x1="-1009.11" y1="258.32" x2="-1009.11" y2="255.62" gradientTransform="translate(-6009.7 3331.88) rotate(170) scale(6.57)" gradientUnits="userSpaceOnUse">
      <stop offset="0" stop-color="#a6694a"/>
      <stop offset="1" stop-color="#4f2a1e"/>
    </linearGradient>
    <linearGradient id="s" x1="-1004.49" y1="258.32" x2="-1004.49" y2="255.62" gradientTransform="translate(-6027.16 3334.95) rotate(170) scale(6.57)" gradientUnits="userSpaceOnUse">
      <stop offset="0" stop-color="#a6694a"/>
      <stop offset="1" stop-color="#4f2a1e"/>
    </linearGradient>
    <linearGradient id="x" x1="-2370.18" y1="1544.96" x2="-2370.18" y2="1621.26" gradientTransform="translate(-2401.48 -597.58) rotate(170) scale(1 -1)" gradientUnits="userSpaceOnUse">
      <stop offset=".5" stop-color="#473834"/>
      <stop offset=".64" stop-color="#503f3a"/>
      <stop offset=".86" stop-color="#68524a"/>
      <stop offset="1" stop-color="#7a6056"/>
    </linearGradient>
  </defs>
  <path class="aj" d="M.08,4.09s37.24-12.31,72.26,5.8l26.9,5.88c.42,3.8-1.18,4.39-1.18,4.39,0,0-24.95,8.72-96.48-12.23,0,0-2-.49-1.5-3.83Z"/>
  <path class="ak" d="M53.84,48.62C48.82,33-2.33,32.59,1.58,7.92c0,0,34.56-11.8,69.56,6.33l26.91,5.9c0,41.58-16.31,35.27-44.22,28.47Z"/>
  <path class="aj" d="M25.94,32.28c11.09-6.95,17.86-7.39,17.35-1.18,7.18-3.16,10.04,1.02,9.33,4.65,7.35-1.56,8.6,4.62-.68,9.52-5.29,2.53-29.01-11.13-26-12.99Z"/>
  <path class="ae" d="M88.69,47.4c21.55,50.28,47.72,63.19,52.85,112.09,11.82,43.31,28.61,53.57,41.43,94.65-3.18,18.18-35.61,28.52-59.73,25.53-24.52-72.87-30.09-108.8-30.13-121.89-.02-9.87-.78-33.79-31.93-99.58-2.55-5.38,26.37-13.52,27.51-10.81Z"/>
  <path class="al" d="M91.28,44.33c.93.62.8,10.48.8,10.48-7.5-3.55-27.28-2.05-30.91,3.37-1.41-3.13-2.92-6.26-4.35-9.51-1.74-3.91,24.56-10.85,34.46-4.35Z"/>
  <path class="aj" d="M512,203.9s-17.47-33.9-56.18-44.77l-23.73-14.05c-3.14,2.39-2.45,3.9-2.45,3.9,0,0,11.39,23.05,78.41,56.62,0,0,1.81,1.01,3.94-1.7Z"/>
  <path class="ak" d="M440.04,199.02c15.3-7.64,52.3,26.66,68.02,6.58,0,0-15.96-31.72-54.67-42.56l-23.74-14.06c-31.19,29.42-14.76,35.97,10.4,50.04Z"/>
  <path class="aj" d="M472.33,206.36c-2.76-12.4-7.28-17.32-11.56-12.57-2.78-7.1-7.98-6.08-10.2-3.02-4.08-6.07-9.63-2.56-6.66,7.19,1.91,5.35,29.17,11.74,28.42,8.39Z"/>
  <path class="ae" d="M416.78,174.15c-51.59,19.67-78.66,9.38-117.88,39.92-39.77,21.82-59.34,17.32-98.19,36.84-11.02,15.06,3.85,45.68,22.75,61.01,70.13-33.34,100.14-50.9,109.7-60.05,7.21-6.89,25.24-26.69,94.82-50.29,5.68-1.93-8.39-28.52-11.2-27.44Z"/>
  <path class="al" d="M417.22,170.14c-1.1-.24-8.2,6.75-8.2,6.75,7.8,2.94,20.37,18.29,18.96,24.7,3.26-1.17,6.57-2.27,9.94-3.52,4.07-1.49-9.07-25.32-20.69-27.93Z"/>
  <path class="ak" d="M107.17,234.72s31.35-.18,66.54-20.99c0,0,9.19,27.18,18.8,35.95,12.6-8.23,41-21.26,41-21.26,0,0,7.35,38.05,41.09,62.69,0,0-47.53,28.43-59.25,47.79,0,0-46.61,17.61-95.84-14.38,0,0-12.69-51.95-12.34-89.8Z"/>
  <path class="ae" d="M256.25,442.61c12.33,2.59,23.57,5.19,31.15,7.4,19.02,19.99,44.47,34.69,62,62,2.29,3.6-2.2,14.9,1.16,23.91,4.26,11.39-.78,17.99,2.14,18.5,6.53,1.15,11.34-4.67,9.27-16.25,12.29,3.05,10.42,18.18,19.09,29.99,2,2.72,8.35,2.94,6.8-4.17,0,0,6.8,4,5.39-4.69,6.07,0,3.72-7.3,3.72-7.3,10.37-2.13-22.19-53.03-25.72-57.19-20.59-24.16-50.78-69.71-60.07-74.81-3.93-2.15-20.52-13.57-36.54-18.91-5.85,13.97-11.97,27.8-18.38,41.53Z"/>
  <path class="ai" d="M387.87,563.99c-6.8-10.6-14.96-25.76-14.96-25.76,0,0,6.43,18.93,14.96,25.76Z"/>
  <path class="ai" d="M393.26,559.3c-5.39-4-17.4-25.89-17.4-25.89,0,0,10.96,25.89,17.4,25.89Z"/>
  <path class="ai" d="M396.98,552c-7.06-5.64-17.45-25.1-17.45-25.1,0,0,10.43,24.22,17.45,25.1Z"/>
  <path class="ae" d="M41.55,656.89c-3.67-.76-5.38,9.75,2.06,10.18,34.64,1.97,40.55.23,53.48-7.19,9.39-5.38,10.17,10.18,28.26,7.19,5.93-.99,7.16-9.36,2.92-10.41-15.78-3.95-16.31-16.22-21.08-26.97-5.33-12.03-4.66-86.35-4.66-86.35,0,0,4.08-20.54,17.29-38.66l-37.87-28.46c-23.26,77.77-21.19,41.03,1.96,140.27,1.48,6.38-3.31,18.49-6.72,25.43-4.53,9.22-27.28,16.68-35.63,14.96Z"/>
  <path class="aj" d="M75.93,481.29s24.36,8.77,43.38,32.42c0,0,6.28-27.2,22.31-41.02,35.64-16.34,36.92,4.13,89.23-28.75l39.65,4.85s-1.11-26.38,10.95-48.86c0,0-24.92-6-38.33-8.83-1.96-.41-25.3-25.81-16.72-65.81,0,0-60.27,6.85-111.57-13.39-7.91,44.89,16.11,85.37.98,114.79-5.02,7.32-29.05,29.84-39.87,54.59Z"/>
  <path class="ae" d="M215.31,444.08s-10-8.5-27.45-5.42c-17.45,3.07-23.93,14.48-23.93,14.48l4.98,28.24,51.38-9.05-4.98-28.25Z"/>
  <path id="b" data-name="Path" class="ab" d="M147.06,545.11c8.74-2.65,9.94-33.69,2.92-40.6-.99-.95-5.9-1.9-8.09,5.67-1.22,4.2-6.11,8.37-6.39,16.63-.38,10.55,2.85,20.95,11.56,18.31Z"/>
  <path id="c" data-name="Path" class="ab" d="M262.62,524.73c-9.13.5-20.87-28.26-16.63-37.15.59-1.24,4.89-3.82,9.54,2.55,2.56,3.51,8.59,5.78,11.7,13.43,3.97,9.81,4.49,20.68-4.61,21.17Z"/>
  <path id="d" data-name="Path" class="ai" d="M146.29,539.32c2.19-1.15,4.12-5.13,4.46-11.28-7.86,3.17-8.2-10.74-1.16-12.25-.31-1.36-.65-2.74-1.08-4.19-2.55,5.55-6.37,4.17-8.5,12.15-1.93,7.18.81,18.4,6.28,15.56Z"/>
  <path id="e" data-name="Path" class="ai" d="M253.32,509.96c2.43,5.65,5.59,8.75,8.05,9.06,6.1.8,4.85-10.67.59-16.76-4.75-6.76-7.88-4.16-12.17-8.5.1,1.5.24,2.93.43,4.3,7.08-.9,11.44,12.15,3.09,11.91Z"/>
  <path id="f" data-name="Path" class="ab" d="M214.99,592.41c38.74-6.82,52.28-39.39,42.75-79.68-1.91-8.1-11.72-33.91-18.2-42.65-6.64-8.93-25.74-21.15-36.37-22.51-6.72-.85-20.64,1.6-26.65,4.7-9.51,4.91-23.3,22.94-26.47,33.6-3.13,10.43-3.49,38.03-2.52,46.29,4.84,41.12,28.68,67.08,67.45,60.25Z"/>
  <path id="g" data-name="Path" class="ah" d="M163.25,545.31c9.68,3.15,26.69.37,32.43-4.02,1.24-.86-.43-5.13-1.5-4.52-8.18,5.04-22.39,7.61-31.31,5.22-1.18-.31-1.07,2.92.38,3.32Z"/>
  <path id="h" data-name="Path" class="ah" d="M247.49,530.46c-8.05,6.27-24.97,9.48-31.87,7.31-1.46-.38-1.34-4.98-.13-4.77,9.44,1.94,23.63-.5,31.21-5.8.99-.68,1.99,2.38.79,3.26Z"/>
  <path id="i" data-name="Path" class="ai" d="M187.74,499.1c1.24.57,3.63-1.08,10.4-2.27,6.75-1.18,9.56-.46,10.54-1.41,1.14-1.16-1.69-5-11.36-3.29-9.69,1.7-11.06,6.28-9.57,6.98Z"/>
  <path id="j" data-name="Path" class="ai" d="M195.39,481.3c9.16,1.02,21.41-5.03,21.41-5.03-5.84-4.49-10.67-10.77-23.79-8.47-15.04,2.65-16.19,10.97-19.48,16.09,0,.01,13.59,1.52,21.85-2.59Z"/>
  <path id="k" data-name="Path" class="af" d="M213.41,475.95c-10.48-6.04-28.96-2.85-36.79,6.49,9.68-2.14,26.9-5.19,36.79-6.49Z"/>
  <path id="l" data-name="Path" class="af" d="M211.17,520.43c-.76-2.53.43-5.85,4.85-8.98,2.8-2,8.89-4.83,17.88-2.77,4.02.91,8.56,5.2,8.7,7.97-3.02,9.35-25.14,14.53-31.43,3.78Z"/>
  <circle id="n" data-name="Oval" class="y" cx="226.35" cy="517.91" r="8.89"/>
  <path id="o" data-name="Path" class="ac" d="M230.77,517.3c-1.07-6.05-9.84-4.51-8.77,1.55,1,5.62,9.76,4.07,8.77-1.55Z"/>
  <path id="p" data-name="Path" class="ag" d="M232.54,519.52c-.45-2.54-4.12-1.89-3.67.66.41,2.34,4.08,1.7,3.67-.66Z"/>
  <path id="q" data-name="Path" class="ai" d="M211.07,520.09c5.58,10.81,29.57,4.83,31.53-3.45.51,10.06-25.94,17.4-31.53,3.45Z"/>
  <path id="r" data-name="Path" class="af" d="M193.92,523.46c-.12-2.63-2.39-5.36-7.62-6.78-3.32-.91-9.97-1.5-17.72,3.51-3.49,2.24-6.28,7.8-5.48,10.46,6.05,7.75,28.62,5.05,30.82-7.19Z"/>
  <circle id="t" data-name="Oval" class="z" cx="179.01" cy="526.26" r="8.89"/>
  <path id="u" data-name="Path" class="ac" d="M183.41,525.65c-1.07-6.05-9.85-4.51-8.77,1.56.99,5.62,9.77,4.06,8.77-1.56Z"/>
  <path id="v" data-name="Path" class="ag" d="M185.19,527.87c-.46-2.54-4.13-1.89-3.67.66.41,2.34,4.08,1.7,3.67-.66Z"/>
  <path id="w" data-name="Path" class="ai" d="M193.9,523.11c-1.56,12.05-26.11,14.69-30.81,7.56,2.98,9.63,30.33,7.48,30.81-7.56Z"/>
  <path class="ad" d="M163.75,591.45c10.51,9.96,27.6,16.13,53.1,11.63,25.49-4.49,39.43-16.13,45.91-29.08,9.17-18.35-113.87,3.34-99.02,17.45Z"/>
  <path class="aa" d="M163.75,591.45c10.51,9.96,23.85-5.21,49.35-9.69,25.49-4.5,43.2,5.2,49.67-7.76,9.16-18.34-4.46-71.69-9.83-70.74-.83.16,2.38,19.09,3.06,32.46.57,10.89-.16,21.65-2.76,23.86-7.99,6.72-26.46,2.37-43.13,5.31-16.67,2.95-32.55,13.35-42.36,9.77-3.21-1.17-7.56-11.06-10.76-21.48-3.92-12.8-7.37-31.7-8.23-31.54-5.34.92.12,55.71,14.98,69.82Z"/>
  <path class="ai" d="M43.5,657.1c23.1.95,31.41-7.4,31.41-7.4,0,0-10.92,6.85-31.41,7.4Z"/>
</svg>