<svg xmlns="http://www.w3.org/2000/svg" id="a" data-name="Layer 1" viewBox="0 0 512 587.86"><defs><linearGradient id="l" x1="255.99" x2="255.99" y1="290.42" y2="493.14" gradientTransform="matrix(1 0 0 -1 0 591.86)" gradientUnits="userSpaceOnUse"><stop offset=".5" stop-color="#473834"/><stop offset=".64" stop-color="#503f3a"/><stop offset=".86" stop-color="#68524a"/><stop offset="1" stop-color="#7a6056"/></linearGradient><style>.n{isolation:isolate;opacity:.3}.o{fill:#ffc940}.q{fill:#f5bb51}.u{fill:#966f42}.v{fill:#f0a429}</style></defs><path d="M45.38 499.84c25.62-12.21 113.34-38.76 113.34-38.76l194.31-.33s88.7 26.8 114.17 39.06c37.03 17.75 44.8 41.99 44.8 64.9 0 30.85-512 30.85-512 0 0-22.95 8.26-47.19 45.38-64.87" style="fill:#3ab0a2"/><path d="m92.44 582.95-7.12-.63c0-47.74 7.12-47.11 7.12.63m334.22-.63-7.1.63c0-47.74 7.1-48.37 7.1-.63M158.72 461.08c0 72.7 194.31 72.37 194.31-.33l-17.48-5.37H177.26z" style="fill:#2b998d"/><path d="M174.08 457.42c0 56.91 163.83 56.91 163.83 0v-62.97H174.08z" class="q"/><path id="b" d="M411.87 240.77c-24.13 2.91-41.56 83.57-26.37 104.87 2.13 2.97 14.55 7.72 23.78-11.07 5.11-10.41 19.84-19.1 24.41-40.55 5.85-27.52 2.21-56.16-21.82-53.25" class="o" data-name="Path"/><path id="c" d="M100.11 240.77c24.13 2.91 41.56 83.57 26.37 104.87-2.13 2.97-14.55 7.72-23.8-11.07-5.09-10.41-19.84-19.1-24.39-40.55-5.87-27.52-2.21-56.16 21.82-53.25" class="o" data-name="Path"/><path id="d" d="M411.22 256.21c-6.3 1.98-13.17 11.58-16.89 27.48 22-4.72 16.5 31.87-2.63 32.56.19 3.69.43 7.46.89 11.44 9.21-13.35 18.57-8 27.86-27.87 8.34-17.91 6.36-48.48-9.23-43.61" class="v" data-name="Path"/><path id="e" d="M117.65 283.66c-3.75-15.89-10.59-25.47-16.89-27.45-15.58-4.87-17.59 25.7-9.23 43.61 9.28 19.87 18.65 14.52 27.87 27.87.45-3.98.7-7.77.85-11.46-18.92-.88-24.35-37.03-2.61-32.57Z" class="v" data-name="Path"/><path id="f" d="M255.98 85.66c-104.55 0-154.93 78.96-148.63 188.76 1.26 22.09 15 94.15 27.94 120 13.26 26.44 57.59 67.22 84.75 75.66 17.17 5.32 54.74 5.32 71.89 0 27.16-8.45 71.52-49.22 84.75-75.66 12.98-25.86 26.68-97.89 27.92-120 6.34-109.8-44.03-188.76-148.62-188.76" class="o" data-name="Path"/><path id="g" d="M369.59 232.71c-23.9-12.67-69.67-13.27-86.72-4.45-3.67 1.69-1.24 13.66 1.83 12.53 23.74-9.39 62.08-9.6 84.32.8 2.96 1.36 4.2-7.13.57-8.88" class="u" data-name="Path"/><path id="h" d="M142.39 232.71c23.9-12.67 69.65-13.27 86.72-4.45 3.65 1.69 1.24 13.66-1.83 12.53-23.8-9.39-62.08-9.6-84.34.8-2.94 1.36-4.16-7.13-.55-8.88" class="u" data-name="Path"/><path id="i" d="M284.21 342.36c-2.98-2.08-9.98 1.13-28.23 1.13s-25.22-3.2-28.21-1.13c-3.57 2.52 2.11 13.85 28.21 13.85s31.82-11.33 28.23-13.85" class="v" data-name="Path"/><path id="j" d="M255.98 385.38c-23.5-6.91-58.35 3.28-58.35 3.28 13.26 14.42 22.98 33.13 58.35 33.13 40.53 0 47.43-21.24 58.37-33.13 0 0-34.84-10.25-58.37-3.28" class="v" data-name="Path"/><path id="k" d="M206.37 391.1c24.67 20.63 74.45 20.77 99.24 0-26.28 1.11-72.78 1.13-99.24 0" data-name="Path" style="fill:#fff"/><path d="M389.54 111.82c-22.89-30.92-64.78-54.93-133.56-54.93S145.35 80.9 122.46 111.82c-32.41 43.77 299.46 43.77 267.07 0Z" style="fill:#7a6056"/><path d="M389.54 111.82c-22.89-30.92-64.78 2.61-133.56 2.61s-110.63-33.53-133.52-2.61c-32.41 43.77-21.41 189.62-6.98 189.62 2.28 0 2.61-51.02 6.98-86.32 3.54-28.72 10.37-56.59 18.24-61.15 24-13.91 70.28 5.98 115.28 5.98s91.3-19.89 115.31-5.98c7.85 4.55 14.67 32.43 18.24 61.15 4.35 35.3 4.68 86.32 6.96 86.32 14.43 0 25.43-145.85-6.96-189.62Z" style="fill:url(#l)"/><path d="M225.79 273.63c-19.11 12.18-48.78 12.18-67.89 0-2.93-1.87-4.66.15-3.75 1.73 18.56 31.46 56.79 31.46 75.35 0 .96-1.57-.81-3.59-3.72-1.73Zm127.76 0c-19.11 12.18-48.78 12.18-67.89 0-2.93-1.87-4.65.15-3.75 1.73 18.56 31.46 56.79 31.46 75.35 0 .95-1.57-.81-3.59-3.72-1.73Z" style="fill:#45332c"/><path d="M202.22 115.22c-24.56 1.81-131.73-56.44-132.1 28.02-.11 26.68 32.17 80.46 33.54 96.22 2.37 27.26 31.96 26.93 30.83 7.31-3.75-64.39-18.28-89.78 2.98-108.65 4.7-4.16 44.57 7.96 62.19-.58 12.19-5.91 10.33-22.87 2.56-22.32" class="n"/><path d="M201.23 113.59c-24.56 1.81-39.5-21.55-49.13-36.98-6.68-10.7-31.01-19.43-37.46-35.26C107.41 23.57 105.72 0 105.72 0H47.88s15.5 53.85 15.13 138.3c-.11 26.68 13.91 69.96 34.41 89.18 0 0 2.37 7.61 6.57 18.89 7.85 21.06 30.78 15.7 26.42-3.46-11.61-51.04-21.26-97.5 0-116.37 4.7-4.16 50.36 15.17 67.96 6.61 12.19-5.91 10.62-20.11 2.84-19.56Z" class="q"/><path d="M309.76 115.22c24.58 1.81 131.75-56.44 132.1 28.02.13 26.68-32.15 80.46-33.52 96.22-2.37 27.26-31.98 26.93-30.83 7.31 3.75-64.39 18.28-89.78-2.98-108.65-4.7-4.16-44.59 7.96-62.19-.58-12.19-5.91-10.33-22.87-2.58-22.32" class="n"/><path d="M310.76 113.59c24.58 1.81 39.52-21.55 49.15-36.98 6.67-10.7 31.01-19.43 37.46-35.26C404.59 23.57 406.28 0 406.28 0h57.84s-15.5 53.85-15.15 138.3c.13 26.68-13.89 69.96-34.39 89.18 0 0-2.37 7.61-6.57 18.89-7.85 21.06-30.8 15.7-26.42-3.46 11.6-51.04 21.26-97.5 0-116.37-4.7-4.16-50.38 15.17-67.96 6.61-12.19-5.91-10.62-20.11-2.86-19.56Z" class="q"/></svg>