<svg xmlns="http://www.w3.org/2000/svg" id="a" data-name="Layer 1" viewBox="0 0 512 477.87"><defs><linearGradient id="l" x1="256" x2="256" y1="255.77" y2="438.22" gradientTransform="matrix(1 0 0 -1 0 475.87)" gradientUnits="userSpaceOnUse"><stop offset=".5" stop-color="#473834"/><stop offset=".64" stop-color="#503f3a"/><stop offset=".86" stop-color="#68524a"/><stop offset="1" stop-color="#7a6056"/></linearGradient><style>.n{fill:#ffc940}.p{fill:#f5bb51}.q{fill:#fff}.s{fill:#f5f5f5}.t{fill:#966f42}.v{fill:#a6aeb0;isolation:isolate;opacity:.15}.w{fill:#f0a429}</style></defs><path d="M0 477.87h512V190.36c-210.47 78.84-333.76-70.97-512 0z" class="v"/><path d="M512 477.87H0V276.72c210.48 72.9 333.78-65.6 512 0z" class="v"/><path d="M66.45 398.97c23.05-11.65 118.68-42.4 118.68-42.4h142.46s95.56 30.69 118.49 42.37c33.32 16.93 40.32 78.93 40.32 78.93H25.6s7.43-62.04 40.85-78.9" class="p"/><path d="M179.2 375.03s24.64 24.17 76.8 24.17 76.8-24.17 76.8-24.17v-68.57H179.2z" class="p"/><path d="M179.2 307.29c-11.14-3.8-30.68 16.03-36.04 27.12-48.27 6.61-74.39 103.05-63.63 143.46h140.04c-22.14-57.15-40.37-170.58-40.37-170.58" class="q"/><path d="M131.25 477.87c-15.47-60.65 4.27-120.62 4.27-120.62s-10.94 63.47 11.2 120.62h-15.46Zm20.29-115.71s-6.8 50.07 19.74 103.55zm-49.38 36.29s-12.65 34.35 7.16 76.63z" class="s"/><path d="M376.48 338.01c-6.4-23.24-32.54-34.53-43.68-30.74 0 0-8.5 113.43-30.64 170.58h130.31c10.81-40.59-2.31-132.04-55.99-139.84" class="q"/><path d="M392.83 477.87c15.47-60.65-4.27-120.62-4.27-120.62s10.94 63.47-11.2 120.62h15.46Zm-59.73 0c15.47-60.65 16-143.47 16-143.47s-5.82 86.32-28.89 143.47zm33.25-110.72s6.8 50.07-19.74 103.55zm43.96 25.23s15.99 32.93.46 76.98z" class="s"/><path id="b" d="M396.29 165.49c-21.72 2.62-37.4 75.21-23.73 94.38 1.92 2.67 13.1 6.95 21.4-9.97 4.6-9.37 17.85-17.19 21.96-36.5 5.27-24.75 1.99-50.53-19.64-47.91Z" class="n" data-name="Path"/><path id="c" d="M115.71 165.49c21.72 2.62 37.4 75.21 23.73 94.38-1.92 2.67-13.1 6.95-21.42-9.97-4.58-9.37-17.85-17.19-21.95-36.5-5.28-24.75-1.99-50.53 19.64-47.91" class="n" data-name="Path"/><path id="d" d="M395.71 179.39c-5.67 1.78-11.85 10.42-15.2 24.74 19.8-4.25 14.85 28.67-2.36 29.29.17 3.32.38 6.72.8 10.3 8.29-12.01 16.72-7.2 25.07-25.08 7.51-16.12 5.73-43.64-8.31-39.25" class="w" data-name="Path"/><path id="e" d="M131.49 204.09c-3.37-14.3-9.53-22.92-15.2-24.7-14.02-4.39-15.83 23.13-8.3 39.25 8.35 17.88 16.79 13.06 25.08 25.08.4-3.58.63-7 .77-10.32-17.03-.8-21.91-33.33-2.35-29.31" class="w" data-name="Path"/><path id="f" d="M255.99 25.89c-94.1 0-139.43 71.07-133.77 169.88 1.13 19.88 13.5 84.73 25.15 108.01 11.93 23.8 51.83 60.5 76.27 68.1 15.45 4.79 49.26 4.79 64.7 0 24.45-7.6 64.37-44.3 76.28-68.1 11.68-23.29 24.01-88.12 25.13-108.01 5.71-98.81-39.63-169.88-133.76-169.88" class="n" data-name="Path"/><path id="g" d="M358.24 158.23c-21.51-11.4-62.7-11.95-78.05-4-3.3 1.52-1.12 12.3 1.65 11.28 21.37-8.45 55.87-8.64 75.89.72 2.66 1.23 3.78-6.41.51-8" class="t" data-name="Path"/><path id="h" d="M153.76 158.23c21.51-11.4 62.69-11.95 78.05-4 3.29 1.52 1.12 12.3-1.65 11.28-21.42-8.45-55.87-8.64-75.9.72-2.65 1.23-3.75-6.41-.49-8Z" class="t" data-name="Path"/><path id="i" d="M281.4 256.91c-2.68-1.87-8.99 1.02-25.4 1.02s-22.7-2.88-25.39-1.02c-3.22 2.27 1.9 12.47 25.39 12.47 23.5 0 28.63-10.2 25.4-12.47" class="w" data-name="Path"/><path id="j" d="M255.99 295.65c-21.15-6.23-52.51 2.95-52.51 2.95 11.93 12.98 20.68 29.82 52.51 29.82 36.48 0 42.68-19.11 52.53-29.82 0 0-31.37-9.23-52.53-2.95" class="w" data-name="Path"/><path id="k" d="M211.35 300.8c22.2 18.57 67 18.7 89.32 0-23.65 1-65.5 1.02-89.32 0" class="q" data-name="Path"/><path d="M376.19 49.43C355.59 21.61 317.89 0 255.99 0s-99.57 21.61-120.17 49.43c-29.17 39.4 269.52 39.4 240.37 0" style="fill:#7a6056"/><path d="M376.19 49.43c-20.6-27.83-58.3 2.35-120.2 2.35s-99.57-30.17-120.17-2.35c-29.17 39.4-19.27 170.66-6.28 170.66 2.05 0 2.35-45.92 6.28-77.69 3.18-25.84 9.34-50.93 16.42-55.02 21.6-12.52 63.25 5.38 103.75 5.38s82.17-17.9 103.78-5.38c7.07 4.1 13.2 29.18 16.42 55.02 3.92 31.77 4.22 77.69 6.26 77.69 12.99 0 22.89-131.26-6.26-170.66" style="fill:url(#l)"/><path d="M512 477.87H0V363.11c205.06-67.75 323.75 73.92 512 0z" style="opacity:.2;fill:#a6aeb0;isolation:isolate"/><path d="M229.06 195.07c-17.21 10.97-43.91 10.97-61.09 0-2.64-1.68-4.21.14-3.38 1.55 16.7 28.31 51.11 28.31 67.83 0 .84-1.42-.76-3.23-3.36-1.55m114.98 0c-17.19 10.97-43.9 10.97-61.09 0-2.65-1.68-4.17.14-3.36 1.55 16.69 28.31 51.1 28.31 67.79 0 .88-1.42-.7-3.23-3.34-1.55" style="fill:#45332c"/></svg>