<svg xmlns="http://www.w3.org/2000/svg" data-name="Layer 1" style="" viewBox="0 0 512 721.46"><g><defs><linearGradient id="1770301554935-9223524_i" x1="-615.49" x2="-615.49" y1="482.67" y2="475.42" gradientTransform="matrix(6.57 0 0 6.57 4235.16 -2727.81)" gradientUnits="userSpaceOnUse"><stop offset="0" stop-color="#a6694a"></stop><stop offset="1" stop-color="#4f2a1e"></stop></linearGradient><linearGradient id="1770301554935-9223524_o" x1="-598.59" x2="-598.59" y1="482.67" y2="475.42" gradientTransform="matrix(6.57 0 0 6.57 4252.89 -2727.81)" gradientUnits="userSpaceOnUse"><stop offset="0" stop-color="#a6694a"></stop><stop offset="1" stop-color="#4f2a1e"></stop></linearGradient><linearGradient id="1770301554935-9223524_t" x1="58.2" x2="453.83" y1="515.98" y2="515.98" gradientTransform="matrix(1 0 0 -1 0 725.46)" gradientUnits="userSpaceOnUse"><stop offset="0" stop-color="#383345"></stop><stop offset="1" stop-color="#1a1626"></stop></linearGradient></defs><path d="M45.37 631.3c25.62-12.5 127.93-44.11 127.93-44.11l165.18-.35s103.25 31.9 128.72 44.44c37.03 18.2 44.8 43.01 44.8 66.48 0 31.62-512 31.62-512 0 0-23.49 8.26-48.31 45.37-66.46" fill="#e81c27"></path><path d="m366.51 593.02 9.61 26.75s81.89 29.66 101.15 37.43c19.14 7.7 11.4-17.19-3.65-26.18-5.61-3.41-73.8-29.61-107.11-38" class="aj" fill="#302c3b"></path><path d="M401.33 612.39c6.3 10.71-11.8 10.16-18.59-.34-7.56-11.66 11.96-10.78 18.59.34" class="y" fill="#ffe12c"></path><path d="m145.51 593.02-9.61 26.75S54.01 649.43 34.72 657.2c-19.12 7.7-11.39-17.19 3.65-26.18 5.61-3.41 73.82-29.61 107.14-38" class="aj" fill="#302c3b"></path><path d="M110.7 612.39c-6.32 10.71 11.75 10.16 18.59-.34 7.56-11.66-11.96-10.78-18.59.34m185.15 81.41c0 12.75-19.12 12.75-19.12 0s19.12-12.75 19.12 0" class="y" fill="#ffe12c"></path><path d="M162.13 566.37v-35.25H174c-7.37 82.55 71.75 80.84 71.75 80.84v36.61s-83.62-.29-83.62-82.2" class="aj" fill="#302c3b"></path><path d="M162.13 531.12H174c0 78.71 71.75 80.84 71.75 80.84v8.75c-30.06 0-83.62-22.66-83.62-89.59" class="ak" fill="#e6ebef"></path><path d="M224.37 633.75c-6 7.73-21.53-.77-15.48-8.54 5.98-7.71 21.48.84 15.48 8.54" class="y" fill="#ffe12c"></path><path d="M349.94 566.37v-35.25h-11.9c7.16 81.62-71.77 80.84-71.77 80.84v36.61s83.68-.29 83.68-82.2Z" class="aj" fill="#302c3b"></path><path d="M349.94 531.12h-11.9c0 78.71-71.77 80.84-71.77 80.84v8.75c30.09 0 83.68-22.66 83.68-89.59Z" class="ak" fill="#e6ebef"></path><path d="M287.67 633.75c5.98 7.73 21.48-.77 15.48-8.54-6-7.71-21.48.84-15.48 8.54" class="y" fill="#ffe12c"></path><path d="M245.74 609.07h10.3v112.38h-10.3z" class="ak" fill="#e6ebef"></path><path d="M255.99 609.07h10.27v112.38h-10.27z" fill="#cfd8dd"></path><path id="1770301554935-9223524_b" d="M413.15 383.19c-24.34 2.93-41.91 84.27-26.59 105.73 2.14 2.98 14.69 7.8 23.96-11.16 5.15-10.47 20-19.25 24.61-40.89 5.9-27.73 2.22-56.61-21.98-53.68" class="z" data-name="Path" fill="#ffc940"></path><path id="1770301554935-9223524_c" d="M98.83 383.19c24.34 2.93 41.91 84.27 26.59 105.73-2.14 2.98-14.69 7.8-23.98-11.16-5.13-10.47-20-19.25-24.59-40.89-5.9-27.73-2.22-56.61 21.98-53.68" class="z" data-name="Path" fill="#ffc940"></path><path id="1770301554935-9223524_d" d="M412.49 398.78c-6.37 2-13.3 11.66-17.05 27.71 22.18-4.77 16.64 32.12-2.64 32.81.19 3.7.43 7.52.91 11.52 9.25-13.45 18.7-8.04 28.07-28.09 8.42-18.05 6.42-48.88-9.29-43.95" class="ai" data-name="Path" fill="#f0a429"></path><path id="1770301554935-9223524_e" d="M116.54 426.43c-3.77-16-10.68-25.66-17.05-27.66-15.71-4.93-17.72 25.91-9.3 43.95 9.37 20.05 18.82 14.64 28.09 28.09.45-4 .73-7.82.86-11.54-19.06-.87-24.54-37.33-2.61-32.84Z" class="ai" data-name="Path" fill="#f0a429"></path><path id="1770301554935-9223524_f" d="M255.99 226.82c-105.41 0-156.21 79.62-149.84 190.3 1.27 22.27 15.12 94.93 28.16 120.97 13.36 26.66 58.07 67.77 85.43 76.3 17.31 5.34 55.18 5.34 72.48 0 27.39-8.52 72.09-49.64 85.46-76.3 13.09-26.04 26.89-98.68 28.14-120.97 6.38-110.69-44.39-190.3-149.83-190.3" class="z" data-name="Path" fill="#ffc940"></path><path id="1770301554935-9223524_g" d="M284.42 485.57c-3-2.07-10.07 1.16-28.43 1.16s-25.44-3.22-28.43-1.16c-3.62 2.55 2.12 13.98 28.43 13.98s32.07-11.44 28.43-13.98" class="ai" data-name="Path" fill="#f0a429"></path><path id="1770301554935-9223524_h" d="M232.53 420.03c.88 6.98-3.86 15.23-16.95 21.41-8.32 3.96-25.66 8.59-48.43-1.02-10.18-4.27-20.13-17.66-19.22-25.04 12.32-23.26 73.04-26.65 84.61 4.65Z" class="ab" data-name="Path" fill="#fff"></path><circle id="1770301554935-9223524_j" cx="191.33" cy="419.57" r="23.82" data-name="Oval" fill="url(#1770301554935-9223524_i)"></circle><path id="1770301554935-9223524_k" d="M179.4 419.14c0 16.48 23.87 16.48 23.87 0 0-15.3-23.87-15.3-23.87 0" class="aa" data-name="Path" fill="#1a1626"></path><path id="1770301554935-9223524_l" d="M175.78 412.43c0 6.91 9.97 6.91 9.97 0 .01-6.37-9.97-6.37-9.97 0" class="ag" data-name="Path" fill="#ab968c"></path><path id="1770301554935-9223524_m" d="M232.65 420.93c-9.7-31.07-75.78-26.47-84.72-5.57 3.32-26.76 76.47-33.84 84.72 5.57" class="ai" data-name="Path" fill="#f0a429"></path><path id="1770301554935-9223524_n" d="M279.45 420.03c-.88 6.98 3.84 15.23 16.95 21.41 8.34 3.96 25.63 8.59 48.41-1.02 10.23-4.27 20.15-17.66 19.27-25.04-12.33-23.26-73.09-26.65-84.63 4.65" class="ab" data-name="Path" fill="#fff"></path><circle id="1770301554935-9223524_p" cx="320.1" cy="419.57" r="23.82" data-name="Oval" fill="url(#1770301554935-9223524_o)"></circle><path id="1770301554935-9223524_q" d="M308.19 419.14c0 16.48 23.87 16.48 23.87 0 0-15.3-23.87-15.3-23.87 0" class="aa" data-name="Path" fill="#1a1626"></path><path id="1770301554935-9223524_r" d="M304.56 412.43c0 6.91 10 6.91 10 0 0-6.37-10-6.37-10 0" class="ag" data-name="Path" fill="#ab968c"></path><path id="1770301554935-9223524_s" d="M279.33 420.93c9.68-31.05 75.71-26.61 84.75-5.57-3.36-26.76-76.5-33.84-84.75 5.57" class="ai" data-name="Path" fill="#f0a429"></path><path d="M311.25 539.16c-38.24 26.41-73.95 24.34-110.55 0 38.03-6.37 72.52-6.37 110.55 0" fill="#e6a400"></path><path d="M255.98 530.53c-16.13-5.15-30.14 5.22-55.27 8.63 13.56 2.84 35.86 1.25 55.27 2.16 19.41-.91 41.72.69 55.27-2.16-25.11-3.41-39.14-13.8-55.27-8.63" fill="#d99025"></path><path d="M389.48 358.6v100.9c0 67.5-48.41 118.55-133.5 118.55s-133.5-51.06-133.5-118.55V358.6h-22.25v100.9c0 77.46 57.84 140.39 155.75 140.39s155.78-62.93 155.78-140.39V358.6h-22.27Z" class="aa" fill="#1a1626"></path><path d="M111.14 403.95c4.53 0 8.2 3.69 8.2 8.23s-3.68 8.23-8.2 8.23-8.25-3.69-8.25-8.23 3.7-8.23 8.25-8.23m0-2.91c-6.16 0-11.16 4.99-11.16 11.14s5 11.14 11.16 11.14 11.11-4.99 11.11-11.14-4.98-11.14-11.11-11.14" class="ah" fill="#ebc16c"></path><path d="M111.12 417.92a8.23 8.23 0 1 1-8.23 8.23c0-4.54 3.7-8.23 8.23-8.23m0-2.91c-6.16 0-11.14 4.99-11.14 11.14s4.98 11.14 11.14 11.14 11.14-4.99 11.14-11.14-5-11.14-11.14-11.14" class="ac" fill="#ebab2a"></path><path d="M111.14 431.9c4.53 0 8.2 3.69 8.2 8.23s-3.68 8.23-8.2 8.23-8.25-3.69-8.25-8.23 3.7-8.23 8.25-8.23m0-2.91c-6.16 0-11.16 4.99-11.16 11.14s5 11.14 11.16 11.14 11.11-4.99 11.11-11.14-4.98-11.14-11.11-11.14" class="ah" fill="#ebc16c"></path><path d="M111.12 445.86c4.55 0 8.23 3.7 8.23 8.23s-3.68 8.23-8.23 8.23-8.23-3.68-8.23-8.23 3.7-8.23 8.23-8.23m0-2.91c-6.16 0-11.14 5-11.14 11.14s4.98 11.14 11.14 11.14 11.14-4.98 11.14-11.14-5-11.14-11.14-11.14" class="ac" fill="#ebab2a"></path><path d="M111.16 459.81c4.53 0 8.2 3.69 8.2 8.23s-3.68 8.23-8.2 8.23-8.25-3.69-8.25-8.23 3.7-8.23 8.25-8.23m0-2.91c-6.16 0-11.16 4.99-11.16 11.14s5 11.14 11.16 11.14 11.11-4.99 11.11-11.14-4.98-11.14-11.11-11.14" class="ah" fill="#ebc16c"></path><path d="M112.24 473.27c4.53 0 8.2 3.69 8.2 8.23s-3.68 8.23-8.2 8.23-8.23-3.69-8.23-8.23 3.69-8.23 8.23-8.23m0-2.9c-6.16 0-11.14 4.99-11.14 11.14s4.98 11.14 11.14 11.14 11.11-4.99 11.11-11.14-4.97-11.14-11.11-11.14" class="ac" fill="#ebab2a"></path><path d="M114.91 486.27c4.53 0 8.2 3.69 8.2 8.23s-3.68 8.23-8.2 8.23-8.25-3.69-8.25-8.23 3.7-8.23 8.25-8.23m0-2.91c-6.16 0-11.16 4.99-11.16 11.14s5 11.14 11.16 11.14 11.11-4.99 11.11-11.14-4.98-11.14-11.11-11.14" class="ah" fill="#ebc16c"></path><path d="M119.04 498.72c4.53 0 8.2 3.69 8.2 8.23s-3.68 8.23-8.2 8.23-8.23-3.69-8.23-8.23 3.69-8.23 8.23-8.23m0-2.91c-6.16 0-11.14 4.99-11.14 11.14s4.98 11.14 11.14 11.14 11.11-4.99 11.11-11.14-4.97-11.14-11.11-11.14" class="ac" fill="#ebab2a"></path><path d="M124.59 510.58a8.23 8.23 0 1 1-8.23 8.23c0-4.54 3.7-8.23 8.23-8.23m0-2.91c-6.16 0-11.14 4.99-11.14 11.14s4.98 11.14 11.14 11.14 11.14-4.99 11.14-11.14-5-11.14-11.14-11.14" class="ah" fill="#ebc16c"></path><path d="M131.48 521.75c4.55 0 8.23 3.7 8.23 8.23s-3.68 8.23-8.23 8.23-8.23-3.68-8.23-8.23 3.7-8.23 8.23-8.23m0-2.91c-6.16 0-11.14 5-11.14 11.14s4.98 11.14 11.14 11.14 11.14-4.98 11.14-11.14-5-11.14-11.14-11.14" class="ac" fill="#ebab2a"></path><path d="M139.61 532.18c4.55 0 8.23 3.7 8.23 8.23s-3.68 8.23-8.23 8.23-8.23-3.68-8.23-8.23c0-4.51 3.7-8.23 8.23-8.23m0-2.91c-6.16 0-11.14 5-11.14 11.14s4.98 11.14 11.14 11.14 11.14-4.98 11.14-11.14-5-11.14-11.14-11.14" class="ah" fill="#ebc16c"></path><path d="M148.91 541.81a8.23 8.23 0 1 1-8.23 8.23c0-4.54 3.7-8.23 8.23-8.23m0-2.91c-6.16 0-11.14 4.99-11.14 11.14s4.98 11.14 11.14 11.14 11.14-4.99 11.14-11.14-5-11.14-11.14-11.14" class="ac" fill="#ebab2a"></path><path d="M159.31 550.55c4.53 0 8.2 3.7 8.2 8.23s-3.68 8.23-8.2 8.23-8.25-3.68-8.25-8.23 3.71-8.23 8.25-8.23m0-2.91c-6.16 0-11.16 5-11.16 11.14s5 11.14 11.16 11.14 11.11-4.98 11.11-11.14-4.97-11.14-11.11-11.14" class="ah" fill="#ebc16c"></path><path d="M170.73 558.34c4.53 0 8.2 3.7 8.2 8.23s-3.68 8.23-8.2 8.23-8.23-3.68-8.23-8.23 3.68-8.23 8.23-8.23m0-2.91c-6.16 0-11.14 5-11.14 11.14s4.98 11.14 11.14 11.14 11.11-4.98 11.11-11.14-4.98-11.14-11.11-11.14" class="ac" fill="#ebab2a"></path><path d="M183.06 565.12c4.53 0 8.2 3.69 8.2 8.23s-3.68 8.23-8.2 8.23-8.25-3.69-8.25-8.23 3.71-8.23 8.25-8.23m0-2.91c-6.16 0-11.16 4.99-11.16 11.14s5 11.14 11.16 11.14 11.11-4.99 11.11-11.14-4.97-11.14-11.11-11.14" class="ah" fill="#ebc16c"></path><path d="M196.25 570.83a8.23 8.23 0 1 1-8.23 8.23c0-4.54 3.71-8.23 8.23-8.23m0-2.91c-6.16 0-11.14 4.99-11.14 11.14s4.98 11.14 11.14 11.14 11.14-4.99 11.14-11.14-4.99-11.14-11.14-11.14" class="ac" fill="#ebab2a"></path><path d="M210.22 575.38a8.23 8.23 0 1 1-8.23 8.23c0-4.54 3.71-8.23 8.23-8.23m0-2.91c-6.16 0-11.14 4.99-11.14 11.14s4.98 11.14 11.14 11.14 11.14-4.99 11.14-11.14-4.99-11.14-11.14-11.14" class="ah" fill="#ebc16c"></path><path d="M224.91 578.71c4.53 0 8.2 3.69 8.2 8.23s-3.68 8.23-8.2 8.23-8.23-3.69-8.23-8.23 3.69-8.23 8.23-8.23m0-2.91c-6.16 0-11.14 4.99-11.14 11.14s4.98 11.14 11.14 11.14 11.11-4.99 11.11-11.14-4.98-11.14-11.11-11.14" class="ac" fill="#ebab2a"></path><path d="M240.21 580.77c4.53 0 8.2 3.69 8.2 8.23s-3.68 8.23-8.2 8.23-8.25-3.69-8.25-8.23 3.7-8.23 8.25-8.23m0-2.91c-6.16 0-11.16 4.99-11.16 11.14s5 11.14 11.16 11.14 11.11-4.99 11.11-11.14-4.98-11.14-11.11-11.14" class="ah" fill="#ebc16c"></path><path d="M256.02 581.47c4.53 0 8.2 3.69 8.2 8.23s-3.68 8.23-8.2 8.23-8.25-3.69-8.25-8.23 3.7-8.23 8.25-8.23m0-2.91c-6.18 0-11.16 4.99-11.16 11.14s4.98 11.14 11.16 11.14 11.11-4.99 11.11-11.14-5-11.14-11.11-11.14" class="ac" fill="#ebab2a"></path><path d="M271.84 580.77c4.55 0 8.23 3.68 8.23 8.23s-3.68 8.23-8.23 8.23-8.23-3.7-8.23-8.23 3.71-8.23 8.23-8.23m0-2.91c-6.16 0-11.14 4.98-11.14 11.14s4.98 11.14 11.14 11.14 11.14-5 11.14-11.14-4.99-11.14-11.14-11.14" class="ah" fill="#ebc16c"></path><path d="M287.14 578.71c4.53 0 8.2 3.69 8.2 8.23s-3.68 8.23-8.2 8.23-8.25-3.69-8.25-8.23 3.7-8.23 8.25-8.23m0-2.91c-6.16 0-11.16 4.99-11.16 11.14s5 11.14 11.16 11.14 11.11-4.99 11.11-11.14-4.98-11.14-11.11-11.14" class="ac" fill="#ebab2a"></path><path d="M301.8 575.38a8.23 8.23 0 1 1-8.23 8.23c0-4.54 3.7-8.23 8.23-8.23m0-2.91c-6.16 0-11.14 4.99-11.14 11.14s4.98 11.14 11.14 11.14 11.14-4.99 11.14-11.14-5-11.14-11.14-11.14" class="ah" fill="#ebc16c"></path><path d="M315.8 570.83c4.53 0 8.2 3.69 8.2 8.23s-3.68 8.23-8.2 8.23-8.25-3.69-8.25-8.23 3.7-8.23 8.25-8.23m0-2.91c-6.18 0-11.16 4.99-11.16 11.14s4.98 11.14 11.16 11.14 11.11-4.99 11.11-11.14-5-11.14-11.11-11.14" class="ac" fill="#ebab2a"></path><path d="M328.97 565.12c4.53 0 8.2 3.69 8.2 8.23s-3.68 8.23-8.2 8.23-8.25-3.69-8.25-8.23 3.71-8.23 8.25-8.23m0-2.91c-6.16 0-11.16 4.99-11.16 11.14s5 11.14 11.16 11.14 11.11-4.99 11.11-11.14-4.97-11.14-11.11-11.14" class="ah" fill="#ebc16c"></path><path d="M341.32 558.34c4.53 0 8.2 3.7 8.2 8.23s-3.68 8.23-8.2 8.23-8.25-3.68-8.25-8.23 3.7-8.23 8.25-8.23m0-2.91c-6.16 0-11.16 5-11.16 11.14s5 11.14 11.16 11.14 11.11-4.98 11.11-11.14c0-6.13-4.98-11.14-11.11-11.14" class="ac" fill="#ebab2a"></path><path d="M352.73 550.55c4.53 0 8.2 3.69 8.2 8.23s-3.68 8.23-8.2 8.23-8.25-3.69-8.25-8.23 3.7-8.23 8.25-8.23m0-2.91c-6.16 0-11.16 4.99-11.16 11.14s5 11.14 11.16 11.14 11.11-4.99 11.11-11.14-4.98-11.14-11.11-11.14" class="ah" fill="#ebc16c"></path><path d="M363.11 541.81c4.53 0 8.2 3.69 8.2 8.23s-3.68 8.23-8.2 8.23-8.25-3.69-8.25-8.23 3.7-8.23 8.25-8.23m0-2.91c-6.16 0-11.16 4.99-11.16 11.14s5 11.14 11.16 11.14 11.11-4.99 11.11-11.14-4.98-11.14-11.11-11.14" class="ac" fill="#ebab2a"></path><path d="M372.41 532.18c4.55 0 8.23 3.7 8.23 8.23s-3.68 8.23-8.23 8.23-8.23-3.68-8.23-8.23 3.7-8.23 8.23-8.23m0-2.91c-6.16 0-11.14 5-11.14 11.14s4.98 11.14 11.14 11.14 11.14-4.98 11.14-11.14c0-6.13-5-11.14-11.14-11.14" class="ah" fill="#ebc16c"></path><path d="M380.54 521.75c4.53 0 8.2 3.69 8.2 8.23s-3.68 8.23-8.2 8.23-8.25-3.69-8.25-8.23 3.71-8.23 8.25-8.23m0-2.91c-6.16 0-11.16 4.99-11.16 11.14s5 11.14 11.16 11.14 11.11-4.99 11.11-11.14-4.98-11.14-11.11-11.14" class="ac" fill="#ebab2a"></path><path d="M387.43 510.58c4.53 0 8.2 3.69 8.2 8.23s-3.68 8.23-8.2 8.23-8.25-3.69-8.25-8.23 3.7-8.23 8.25-8.23m0-2.91c-6.16 0-11.16 4.99-11.16 11.14s5 11.14 11.16 11.14 11.11-4.99 11.11-11.14-4.98-11.14-11.11-11.14" class="ah" fill="#ebc16c"></path><path d="M392.97 498.72c4.53 0 8.2 3.69 8.2 8.23s-3.68 8.23-8.2 8.23-8.25-3.69-8.25-8.23 3.71-8.23 8.25-8.23m0-2.91c-6.16 0-11.16 4.99-11.16 11.14s5 11.14 11.16 11.14 11.11-4.99 11.11-11.14-4.97-11.14-11.11-11.14" class="ac" fill="#ebab2a"></path><path d="M397.11 486.27a8.23 8.23 0 1 1-8.23 8.23c0-4.54 3.7-8.23 8.23-8.23m0-2.91c-6.16 0-11.14 4.99-11.14 11.14s4.98 11.14 11.14 11.14 11.14-4.99 11.14-11.14-5-11.14-11.14-11.14" class="ah" fill="#ebc16c"></path><path d="M399.79 473.27c4.53 0 8.2 3.69 8.2 8.23s-3.68 8.23-8.2 8.23-8.25-3.69-8.25-8.23 3.71-8.23 8.25-8.23m0-2.9c-6.18 0-11.16 4.99-11.16 11.14s4.98 11.14 11.16 11.14 11.11-4.99 11.11-11.14-4.99-11.14-11.11-11.14" class="ac" fill="#ebab2a"></path><path d="M400.86 459.8c4.55 0 8.23 3.7 8.23 8.23s-3.68 8.23-8.23 8.23-8.23-3.68-8.23-8.23 3.71-8.23 8.23-8.23m0-2.91c-6.16 0-11.14 5-11.14 11.14s4.98 11.14 11.14 11.14S412 474.19 412 468.03c0-6.14-4.99-11.14-11.14-11.14" class="ah" fill="#ebc16c"></path><path d="M400.91 445.86c4.53 0 8.2 3.7 8.2 8.23s-3.68 8.23-8.2 8.23-8.25-3.68-8.25-8.23 3.71-8.23 8.25-8.23m0-2.91c-6.18 0-11.16 5-11.16 11.14s4.98 11.14 11.16 11.14 11.11-4.98 11.11-11.14-4.99-11.14-11.11-11.14" class="ac" fill="#ebab2a"></path><path d="M400.88 431.9a8.23 8.23 0 1 1-8.23 8.23c0-4.54 3.71-8.23 8.23-8.23m0-2.91c-6.16 0-11.14 4.99-11.14 11.14s4.98 11.14 11.14 11.14 11.14-4.99 11.14-11.14-4.99-11.14-11.14-11.14" class="ah" fill="#ebc16c"></path><path d="M400.91 417.92c4.53 0 8.2 3.69 8.2 8.23s-3.68 8.23-8.2 8.23-8.25-3.69-8.25-8.23 3.71-8.23 8.25-8.23m0-2.91c-6.18 0-11.16 4.99-11.16 11.14s4.98 11.14 11.16 11.14 11.11-4.99 11.11-11.14-4.99-11.14-11.11-11.14" class="ac" fill="#ebab2a"></path><path d="M400.88 403.95a8.23 8.23 0 1 1-8.23 8.23c0-4.54 3.71-8.23 8.23-8.23m0-2.91c-6.16 0-11.14 4.99-11.14 11.14s4.98 11.14 11.14 11.14 11.14-4.99 11.14-11.14-4.99-11.14-11.14-11.14" class="ah" fill="#ebc16c"></path><path d="M453.83 197.73c-.26-2.57-3.99-12.18-13.61-29.82 8.08-.24 13.08 2.61 12.92.83-.23-2.57-3.29-13.21-12.92-30.84 8.08-.23 13.77.73 13.61-1.04-.27-2.78-3.27-9.58-14.8-29.34 7.34-3.22 13.52-3.98 12.7-5.55-1.25-2.34-8.19-10.85-24.63-23.8 6.09-6.7 12.73-9.68 11.53-10.78-1.78-1.65-12.03-8.74-33.31-13.72 4.19-7.61 8.49-13.39 7.06-14.11-1.95-1.02-13.35-1.93-31.71-1.62 2.04-8.39 4.45-13.51 2.93-13.94-2.32-.7-12.59-2.46-33.34 2.09.41-9.95 3.86-15.3 2.18-15.53-2.47-.37-13.66.23-34.26 8.25-.66-9.75 1.43-15.8-.24-15.84-2.39-.05-14.22 3.56-32.76 13.18-.8-9.63 1-16.23-.41-16.16-2.15.1-11.72 2.3-28.75 15.58C238.98 2.3 229.41.11 227.26 0c-1.41-.07.38 6.53-.38 16.19-18.55-9.62-30.37-13.23-32.76-13.18-1.69.03.41 6.09-.24 15.84-20.61-8.02-31.8-8.62-34.27-8.25-1.7.23 1.76 5.57 2.18 15.53-20.75-4.55-31.02-2.78-33.34-2.09-1.51.43.9 5.56 2.93 13.94-18.36-.31-29.75.59-31.71 1.62-1.43.72 2.87 6.5 7.06 14.11-21.28 4.98-31.53 12.07-33.31 13.72-1.2 1.09 5.45 4.07 11.53 10.78-16.45 12.95-23.39 21.46-24.63 23.8-.83 1.57 5.35 2.32 12.7 5.55-11.53 19.75-14.53 26.54-14.8 29.34-.15 1.77 5.54.8 13.61 1.04-9.62 17.64-12.7 28.28-12.92 30.84-.16 1.77 4.84-1.07 12.92-.83-9.62 17.64-13.35 27.25-13.61 29.82-.15 1.77 5.54-.05 13.61.2-9.62 17.64-12.68 28.15-12.89 30.73-.19 1.76 4.82-.95 12.89-.73-9.62 17.65-12.31 26.76-12.51 29.34-.17 1.77 4.43.45 12.51.69-9.62 17.65-12.18 26.4-12.42 28.96-.15 1.77 4.34.81 12.42 1.05-9.62 17.64-11.97 25.67-12.19 28.24-.2 1.77 4.12 1.55 12.19 1.77-9.62 17.64-12.1 26.09-12.31 28.66-.19 1.77 4.22 1.12 12.31 1.35-9.62 17.64-11.55 26.91-11.8 29.47-.19 1.87 4.36-.45 13.22.63-6.2 12.37-8.08 23.37-7.75 25.34.21 1.42 15.72-3.2 15.72-3.2s-3.64 18.01-2.05 18.05c1.9.02 14.44-4.31 25.41-11.92 2.63 7.19 3.15 12.57 4.53 12.58 3.15.03 8.13-6.32 19.08-21.07 4.17 8.35 9.03 13.38 10.59 12.72 2.28-.95 5.05-6.25 18.35-22.49 1.75 8.16 5 15.1 6.55 14.71 2.43-.59 10.88-5.74 26.37-19.71 2.57 8.32 5.57 14.38 7.34 14.11 2.51-.37 9.16-4.61 26.14-15.51 1.49 8.6 1.11 14.34 2.72 14.16 2.72-.26 16.92-5.06 29.8-18.29 12.87 13.24 27.07 18.04 29.8 18.29 1.63.19 1.23-5.56 2.72-14.16 16.98 10.9 23.62 15.14 26.14 15.51 1.76.27 4.77-5.79 7.34-14.11 15.49 13.98 23.94 19.13 26.37 19.71 1.55.4 4.79-6.55 6.55-14.71 13.31 16.24 16.07 21.54 18.35 22.49 1.56.67 6.42-4.36 10.59-12.72 10.94 14.75 15.93 21.1 19.08 21.07 1.37-.01 1.9-5.39 4.53-12.58 10.96 7.61 23.52 11.94 25.41 11.92 1.61-.03-2.05-18.05-2.05-18.05s15.51 4.62 15.72 3.2c.33-1.98-1.55-12.97-7.75-25.34 8.86-1.08 13.39 1.25 13.22-.63-.24-2.57-2.18-11.85-11.8-29.47 8.08-.24 12.49.42 12.31-1.35-.21-2.57-2.68-11.02-12.31-28.66 8.08-.23 12.38 0 12.19-1.77-.22-2.57-2.57-10.6-12.19-28.24 8.08-.23 12.57.73 12.42-1.05-.24-2.57-2.79-11.32-12.42-28.96 8.08-.23 12.7 1.09 12.51-.69-.21-2.57-2.89-11.68-12.51-29.34 8.08-.23 13.08 2.49 12.89.73-.21-2.58-3.27-13.09-12.89-30.73 8.02-.27 13.71 1.56 13.56-.22Z" fill="url(#1770301554935-9223524_t)"></path></g></svg>
