<svg xmlns="http://www.w3.org/2000/svg" id="a" data-name="Layer 1" viewBox="0 0 512 511.99"><defs><linearGradient id="j" x1="256" x2="256" y1="401.08" y2="494.68" gradientTransform="matrix(1 0 0 -1 0 513.99)" gradientUnits="userSpaceOnUse"><stop offset=".5" stop-color="#473834"/><stop offset=".64" stop-color="#503f3a"/><stop offset=".86" stop-color="#68524a"/><stop offset="1" stop-color="#7a6056"/></linearGradient><style>.l{fill:#ffc940}.n{fill:#f5bb51}.r{fill:#966f42}.s{fill:#4e5e67}.t{fill:#f0a429}</style></defs><path d="M314.4 360.97H197.59c-15.05 26.85-82.62-10.79-122.91-.95 0 0 145.38 106.86 183.45 107.12 38.08-.25 179.2-107.12 179.2-107.12-40.31-9.84-107.88 27.79-122.92.95Z" style="fill:#302c3b"/><path d="M261.07 443.78c6.88 2.15 13.7 3.52 20.48 3.58 11.89-4.22 25.53 7.62 38.15 10.25 14.22 2.94 36.25-5.79 47.44 2.36 14.43-4.25 19.78 11.96 9.95 15.48 2.55 4.72-1.07 8.5-3.3 9.11 1.78 4.09-1.68 8.36-3.64 8.45 1 3.08-1.47 6.47-4.44 7.12-2.83 18.62-61.43-8.3-76.95-11.78-6.77-1.52-11.78-7.62-20.16-11.47l-12.31-.54c2.21-10.72 3.47-21.9 4.79-32.56Z" class="n"/><path d="M365.93 473.85c3.83 3.64 13.32 5.15 15.1-1.45-3.09 1.83-5.19 1.92-15.1 1.45m-1.48 11.85s11.23 2.62 13.24-5.23c-3.07 3.93-13.24 5.23-13.24 5.23m-1.95 9.2s8.99 2.08 11.15-5.18c-3.06 3.93-11.15 5.18-11.15 5.18m-3.65 6.24s9.05 2.5 10.85-4.09c-3.06 3.93-10.85 4.09-10.85 4.09" class="t"/><path d="M74.81 359.35c53.92-11.14 105.63 56.27 192.37 86.17-4.41 21.33-6.75 34.08-6.75 34.08-109.12-4.92-164.91-38.07-193.91-57.88-24.34-16.65-23.79-55.73 8.29-62.37" class="s"/><path d="M250.92 446.88c-6.89 2.22-13.71 3.62-20.48 3.69-11.9-4.35-25.53 7.92-38.15 10.63-14.22 3.03-36.23-6-47.42 2.45-14.45-4.39-19.81 12.38-9.95 16.05-2.55 4.88 1.05 8.8 3.29 9.43-1.78 4.23 1.68 8.69 3.64 8.76-1 3.18 1.47 6.7 4.42 7.35 2.85 19.3 61.45-8.58 76.97-12.19 6.78-1.59 11.8-7.9 20.15-11.9l12.35-.55c-2.22-11.09-3.49-22.69-4.8-33.72Z" class="n"/><path d="M146.06 478.02c-3.83 3.75-13.3 5.33-15.1-1.5 3.1 1.89 5.21 1.98 15.1 1.5m1.48 12.26s-11.23 2.73-13.22-5.42c3.06 4.09 13.22 5.42 13.22 5.42m1.93 9.55s-8.97 2.13-11.15-5.38c3.09 4.1 11.15 5.38 11.15 5.38m3.65 6.45s-9.04 2.6-10.82-4.23c3.07 4.09 10.82 4.23 10.82 4.23" class="t"/><path d="M437.18 359.4c-53.93-11.54-106.27 57.13-193.03 88.1 4.42 22.12 7.4 36.46 7.4 36.46 109.1-5.09 164.91-39.42 193.91-59.95 24.36-17.25 23.81-57.76-8.28-64.61" class="s"/><path d="M506.3 340.7c-1.08-.23-11.3.26-11.3.26s9.65-2.68 12.27-3.5c7.08-2.24 4.88-9.3-.45-9.3-7.94-.02-17.54 3.41-17.54 3.41s.07-10.27-1.15-16.95c-.63-3.65-10.27-4.02-13.43-6.17-.75-.5-1.5-.6-2.22-.55 7.94-5.61 3.03-12.2-.8-10.68-10.47 4.16-12.98-.75-17.98 3.9-3.5 3.27-15.65 20.5-18.95 19.55-15.97-4.63-35-21.68-41.86-30.63-33.37-43.56-19.4-103.93-68.6-101.21-6.47-1.43-16.56-2.38-35.32-2.88-2.24-4.62-3.31-10.01-3.76-15.28h-58.39c-.45 5.27-1.54 10.67-3.76 15.28-18.76.5-28.85 1.45-35.34 2.88-49.19-2.71-35.23 57.65-68.6 101.21-6.87 8.95-25.9 26-41.85 30.63-3.3.95-15.45-16.28-18.95-19.55-5-4.65-7.52.26-17.99-3.9-3.82-1.52-8.73 5.07-.79 10.68-.73-.05-1.48.05-2.22.55-3.17 2.15-12.8 2.52-13.45 6.17-1.21 6.68-1.14 16.95-1.14 16.95s-9.61-3.43-17.54-3.41c-5.32 0-7.53 7.07-.44 9.3 2.61.82 12.26 3.5 12.26 3.5s-10.21-.5-11.3-.26c-7.13 1.48-7.4 9.48.52 10.75 1.83.28 6.55-.38 7.66-.32-4.97 2.18-5.87 11 4.87 10.72 14.51-.4 27.86 2.08 33.44 2.08 4.23 0 25.19-1.25 32.84-12.2 5.58-7.99 37.09-12.85 51.34-23.66 10.37-7.9 34.33-27.8 41.22-59.77-.38 19.1 7.31 39.3 7.31 39.3h142.2s7.68-20.2 7.31-39.3c6.87 31.97 30.83 51.87 41.2 59.77 14.25 10.82 45.75 15.68 51.35 23.66 7.65 10.95 28.6 12.2 32.84 12.2 5.58 0 18.94-2.48 33.45-2.08 10.73.28 9.83-8.53 4.86-10.72 1.13-.07 5.84.6 7.66.32 7.92-1.27 7.67-9.27.52-10.75M53.83 323.41c-4.8 5.56-2.18 12.62-16.98 5.68-1.95-2.68-2.65-6.5-1.25-9.43 7.3-3.45 8.05-7.88 6.53-10.23 2.49 1.28 5.73 2.47 10.01 3.4 2.41 3.65 1.69 10.58 1.69 10.58m421.32 5.69c-14.8 6.94-12.17-.12-16.98-5.68 0 0-.72-6.94 1.7-10.58 4.27-.93 7.52-2.12 10-3.4-1.52 2.35-.79 6.78 6.54 10.23 1.39 2.94.69 6.75-1.25 9.43Z" class="n"/><path d="M51.33 348.83c.38-5.51 7.88-19.18 20.54-17.59-11.82 3.32-17.59 11.54-20.54 17.59m-13.81-6.75c-16.89-1.37-42.61.63-36.64-11.61-1.29 10.43 23.26 8.41 36.64 11.61m-14.79-12.4-.04 1.9c7.4 2.68 11.2 2.05 11.2 2.05s-4.24-1.12-11.15-3.95Zm16.61 22.57c-20.45-3.7-41.82 5.87-38.76-7.64.44 10.84 19.08 1.09 38.76 7.64m421.32-3.42c-.38-5.51-7.88-19.18-20.53-17.59 11.82 3.32 17.59 11.54 20.53 17.59m13.83-6.75c16.89-1.37 42.6.63 36.63-11.61 1.3 10.43-23.25 8.41-36.63 11.61m14.78-12.4.05 1.9c-7.4 2.68-11.2 2.05-11.2 2.05s4.23-1.12 11.15-3.95m-16.6 22.57c20.45-3.7 41.81 5.87 38.75-7.64-.44 10.84-19.09 1.09-38.75 7.64" class="t"/><path d="M328.32 307.92s-16.72-55.96-4.67-119.08c.47-2.47-25.05-6.5-25.72-3.08-18.29 95.23-65.6 95.2-83.87 0-.67-3.41-26.18.61-25.72 3.08 12.05 63.11-4.68 119.08-4.68 119.08 6.25 32.21 8.32 59.03 8.32 59.03 34 38.92 94.03 38.89 128.01 0 0 0 2.07-26.82 8.33-59.03" style="fill:#3ab0a2"/><path d="M219.64 192.38s11.67 12.4 36.37 12.4 36.34-12.4 36.34-12.4V157.2h-72.71z" class="n"/><path id="b" d="M327.97 84.91c-11.14 1.33-19.18 38.58-12.17 48.42.98 1.37 6.72 3.57 10.97-5.12 2.36-4.8 9.16-8.81 11.28-18.73 2.71-12.69 1.02-25.92-10.08-24.57" class="l" data-name="Path"/><path id="c" d="M184.02 84.91c11.15 1.33 19.19 38.58 12.19 48.42-.98 1.37-6.72 3.57-10.99-5.12-2.35-4.8-9.16-8.81-11.26-18.73-2.71-12.69-1.02-25.92 10.06-24.57" class="l" data-name="Path"/><path id="d" d="M327.66 92.02c-2.9.91-6.07 5.35-7.8 12.7 10.16-2.18 7.64 14.72-1.2 15.04.09 1.7.2 3.43.4 5.28 4.25-6.17 8.58-3.7 12.87-12.87 3.86-8.29 2.94-22.4-4.27-20.15" class="t" data-name="Path"/><path id="e" d="M192.12 104.7c-1.72-7.33-4.88-11.77-7.8-12.68-7.19-2.25-8.12 11.87-4.25 20.15 4.28 9.16 8.61 6.7 12.87 12.87.2-1.85.32-3.6.39-5.3-8.75-.42-11.25-17.1-1.21-15.04" class="t" data-name="Path"/><path id="f" d="M256 13.27c-48.27 0-71.53 36.46-68.62 87.17.58 10.2 6.92 43.47 12.9 55.4 6.12 12.22 26.6 31.04 39.13 34.94 7.93 2.47 25.26 2.47 33.18 0 12.55-3.9 33.03-22.72 39.15-34.94 5.98-11.93 12.31-45.2 12.89-55.4 2.93-50.7-20.34-87.17-68.62-87.17Z" class="l" data-name="Path"/><path id="g" d="M308.45 81.17c-11.03-5.85-32.17-6.14-40.03-2.05-1.7.79-.58 6.31.84 5.8 10.97-4.35 28.66-4.44 38.94.37 1.36.61 1.95-3.3.26-4.12Z" class="r" data-name="Path"/><path id="h" d="M203.55 81.17c11.04-5.85 32.16-6.14 40.04-2.05 1.68.79.57 6.31-.85 5.8-10.98-4.35-28.65-4.44-38.94.37-1.36.61-1.91-3.3-.25-4.12" class="r" data-name="Path"/><path id="i" d="M269.01 131.81c-1.37-.95-4.6.52-13.02.52s-11.64-1.47-13.02-.52c-1.65 1.17.97 6.4 13.02 6.4s14.69-5.23 13.02-6.4" class="t" data-name="Path"/><path d="M317.67 25.35C307.1 11.08 287.75 0 256 0s-51.07 11.08-61.65 25.35c-14.96 20.22 138.27 20.22 123.32 0" style="fill:#7a6056"/><path d="M317.67 25.35c-10.57-14.27-29.92 1.2-61.67 1.2s-51.07-15.47-61.65-1.2c-14.96 20.22-9.88 87.55-3.23 87.55 1.05 0 1.21-23.55 3.23-39.85 1.63-13.27 4.8-26.14 8.42-28.24 11.08-6.42 32.45 2.77 53.23 2.77s42.15-9.18 53.24-2.76c3.64 2.1 6.78 14.97 8.43 28.24 2 16.3 2.15 39.85 3.2 39.85 6.66 0 11.75-67.34-3.2-87.56" style="fill:url(#j)"/><path d="M242.06 100.07c-8.82 5.63-22.52 5.63-31.35 0-1.35-.87-2.15.07-1.72.8 8.56 14.52 26.21 14.52 34.78 0 .44-.73-.38-1.67-1.72-.8Zm58.99 0c-8.83 5.63-22.54 5.63-31.35 0-1.35-.87-2.15.07-1.73.8 8.57 14.52 26.23 14.52 34.8 0 .44-.73-.38-1.67-1.72-.8" style="fill:#45332c"/><path d="M282.63 153.8c-15.6 15.91-38.51 14.83-53.26 0 18.72 1.43 34.53 1.43 53.26 0" style="fill:#e6a400"/><path d="M256 153.17c-7.42-2.36-14.17 1.92-26.63.63 6.17 2.88 17.18 3.83 26.63 4.13 9.45-.3 20.46-1.25 26.63-4.13-12.45 1.3-19.21-3.02-26.63-.63" style="fill:#d99025"/></svg>