<svg xmlns="http://www.w3.org/2000/svg" data-name="Layer 1" style="" viewBox="0 0 512 858.82"><g><defs><linearGradient id="1770301554937-4378816_b" x1="194.93" x2="397.36" y1="754.83" y2="754.83" gradientTransform="matrix(1 0 0 -1 0 852.82)" gradientUnits="userSpaceOnUse"><stop offset="0" stop-color="#473834"></stop><stop offset=".06" stop-color="#4b3b36"></stop><stop offset=".67" stop-color="#6d564d"></stop><stop offset="1" stop-color="#7a6056"></stop></linearGradient><linearGradient id="1770301554937-4378816_c" x1="196.17" x2="445.94" y1="731.51" y2="731.51" gradientTransform="matrix(1 0 0 -1 0 852.82)" gradientUnits="userSpaceOnUse"><stop offset="0" stop-color="#7a6056"></stop><stop offset=".31" stop-color="#775d54"></stop><stop offset=".57" stop-color="#6d554d"></stop><stop offset=".8" stop-color="#5b4842"></stop><stop offset="1" stop-color="#473834"></stop></linearGradient><linearGradient id="1770301554937-4378816_e" x1="226.76" x2="226.76" y1="672.33" y2="703.28" gradientTransform="matrix(1 0 0 -1 0 852.82)" gradientUnits="userSpaceOnUse"><stop offset="0" stop-color="#a6694a"></stop><stop offset="1" stop-color="#4f2a1e"></stop></linearGradient></defs><path d="M265.14 302.9c23.77-11.26 30.62 9.36 32.16 18.02 5.25 28.41 112.52-4.05 100.47-36.66-10.5-28.37 3.53-62.26 3.53-62.26-15.87-9-73.89-110.49-136.16 80.91Z" class="q" fill="#f5bb51"></path><path d="M284.54 21.62c-72.27 11.43-98.78 62.61-87.14 122.91 2.61 13.63-6.23 36.96-23.72 51.96-6.36 5.42-6.97 12.68-3.85 17.47 6.11 9.48 19.51 9.58 25.09 13.11 12.55 7.91 0 16.66 9.43 25.98 4.31 4.26 16.53-1.39 3.6 21.11 14.42 10.44-9.65 35.59 27.47 39.47 19.47 2.06 101.84-44.01 112.14-59.87 10.77-16.68 8.22-47.5 8.22-47.5 55.48-15.86 75.1-63.87 63.09-114.09-16.7-70.29-87.5-77.99-134.34-70.56Z" class="n" fill="#ffc940"></path><path d="M204.34 253.04c6.79 4.13 3.82 10.6 3.82 10.6-3.25 0-4.1 10.69.74 10.69 16.96 0 32.49-14.4 37.56-23.11-26.49-1.32-55.58-13.18-42.12 1.82" class="u" fill="#f0a429"></path><path d="M204.34 253.04s2.59 9.2 3.82 10.6c5.29 0 22.58-3.78 33.23-10.72l-37.04.12Z" class="r" fill="#fff"></path><path d="M393.53 54.75c-51.36-76.63-187.75-30.22-197.36-11.49-3.45 6.77.86 23.47 6.49 34.22 21.69 0 64.61-17.97 93.51-4.49 42.78 19.95-5.78 106.16 33.69 110.85 6.18.73 85.62-90.92 63.67-129.09" fill="url(#1770301554937-4378816_b)"></path><path d="M428 53.4C413.3 28.75 383.59-.18 316.11 0c-60.94.13-110.33 24.53-119.94 43.25 22.38 0 90.36-28.29 125.87-1.98 55.26 40.94 7.1 96.6 20.13 131.55 20.38 54.72 53.41 69.8 53.41 69.8C437.99 212.23 466.07 117.15 428 53.4" fill="url(#1770301554937-4378816_c)"></path><path d="M170.01 214.05c5 13.2 37.03 16.05 47.25 0-16.86 12.09-50.16-7.68-47.25 0" class="u" fill="#f0a429"></path><path d="M356.04 139.49c-27 5.55-35.39 65.93-15.19 79.04 2.84 1.85 17.61 3.47 25.42-11.33 4.33-8.19 19.82-16.52 22-32.59 2.74-20.56-5.42-40.61-32.22-35.13Z" class="n" fill="#ffc940"></path><path id="1770301554937-4378816_d" d="M357.46 150.71c-6.87 2.33-13.31 10.16-15.29 22.11 24.31-6.54 23.19 20.55 1.62 23.75.68 2.63 1.52 5.29 2.56 8.08 8.62-10.88 19.98-8.37 27.7-23.96 6.95-14.04.4-35.69-16.58-29.98Z" class="u" data-name="Path" fill="#f0a429"></path><path d="M256.62 162.58c.38 3.86-11.94 17.79-27.63 19.11-8.92.74-12.11-6.13-14.14-13.49-1.92-29.41 32.97-18.96 41.77-5.62" class="r" fill="#fff"></path><path id="1770301554937-4378816_f" d="M214.25 164.45c0 21.39 25.02 21.39 25.02 0-.02-19.87-25.02-19.87-25.02 0" data-name="Path" fill="url(#1770301554937-4378816_e)"></path><path id="1770301554937-4378816_g" d="M216.88 163.49c0 10.69 12.45 10.69 12.45 0 0-9.94-12.45-9.94-12.45 0" class="o" data-name="Path" fill="#1a1626"></path><path id="1770301554937-4378816_h" d="M224.58 159.16c0 4.48 7.27 4.48 7.27 0 0-4.18-7.27-4.18-7.27 0" data-name="Path" fill="#ab968c"></path><path d="M256.62 162.58c-6.71-13.34-40.2-23.04-41.09-5.04 4.71-12.09 29.55-5.47 41.09 5.04" class="u" fill="#f0a429"></path><path id="1770301554937-4378816_i" d="M263.04 132.21c-15.36-9.51-44.77-9.99-55.72-3.35-2.38 1.27-.83 10.27 1.14 9.4 15.29-7.05 39.94-7.2 54.22.63 1.92 1.01 2.68-5.37.36-6.67Z" data-name="Path" fill="#966f42"></path><path d="M502.87 855.85s7.63 4 9.13-4.03c-23.55-92.57-190.97-146.99-190.97-146.99-6.03 1.27-8.59 8.09-8.59 8.09z" fill="#6e8189"></path><path d="M371.1 825.19c39.56 19.59 110.84 41.69 131.78 30.65-25.04-88.43-190.41-142.93-190.41-142.93-61.08 60.1 39.92 103.03 58.63 112.27Z" fill="#99a8ae"></path><path d="M434.97 849.62c-5.71-29.02-15.13-40.65-24.13-29.58-5.81-16.66-16.55-14.37-21.11-7.25-8.57-14.25-20.08-6.06-13.92 16.68 3.88 12.62 60.78 28.03 59.16 20.15" class="o" fill="#1a1626"></path><path d="M414.67 634.06s-80.18-77.29-161.71-11.81C178.14 663.37 67.79 715.37 14.6 759.97c-36 30.24-.13 92.9 49.68 97.77 39.94 3.9 147.39-2.01 310.96-30.55 0 0-42.16-27.02-55.61-64.16 89.78-6.14 144.74-24.77 95.03-128.97Z" fill="#302c3b"></path><path d="M428.4 722.99c-64.66 59.97-203.16 23.98-278.29 55.28 89.52-8.98 249.9 9.13 278.29-55.28" class="o" fill="#1a1626"></path><path d="M430.16 669.24s-77.77-62.08-177.2-46.99c5-156.59-17.01-213.93 42.16-308.89 13.74 47.09 53.13-29.46 102.63-29.1 61.77 71.46-6.18 204.78 32.4 384.98Z" fill="#3ab0a2"></path><path d="M355.76 531.68c3.5-9.73 30.54-49.6 37.42-89.04-24.43-5.78-48.89-10.88-73.3-15.08-1.88 32.7-12.85 47.76-26.92 87.1-27.8 39.22-58.76 85.2-98.47 125.27-2.61 2.63-37.64 10.82-43.77 14.17-7.6 4.18-24.33 12.8-25.24 22.23-10.5 20.13 28.31 6.75 56.93 6.14 29.84-.64 42.33-9.03 44.59-14.3 13.31-30.88 122.63-119.36 128.74-136.5Z" class="q" fill="#f5bb51"></path><path d="M159.07 656.9c-29.23 4.26-33.59 19.46-33.59 19.46s6.82-11.84 33.59-19.46m7.22 10.65c-46.46 7.71-40.83 18.02-40.83 18.02s.02-9.22 40.83-18.02" class="u" fill="#f0a429"></path><path d="M392.06 476.5c6.57-32.64 18.96-74.75 24.77-123.46 6.28-52.42-71.53-63.3-84.03-11.74-6.8 27.99-18.51 65.91-23.32 121.79 27.52 1.97 55.23 6.49 82.58 13.41" fill="#25a898"></path></g></svg>
