<svg xmlns="http://www.w3.org/2000/svg" id="a" data-name="Layer 1" viewBox="0 0 512 548.59"><defs><linearGradient id="k" x1="-599.04" x2="-599.04" y1="382.59" y2="374.77" gradientTransform="translate(4252.89 -2240.79)scale(6.57)" gradientUnits="userSpaceOnUse"><stop offset="0" stop-color="#a6694a"/><stop offset="1" stop-color="#4f2a1e"/></linearGradient><linearGradient id="p" x1="246.87" x2="246.87" y1="278.18" y2="473.67" gradientTransform="matrix(1 0 0 -1 0 550.59)" gradientUnits="userSpaceOnUse"><stop offset=".5" stop-color="#473834"/><stop offset=".64" stop-color="#503f3a"/><stop offset=".86" stop-color="#68524a"/><stop offset="1" stop-color="#7a6056"/></linearGradient><linearGradient id="q" x1="332.17" x2="332.17" y1="224.35" y2="385.06" gradientTransform="matrix(1 0 0 -1 0 550.59)" gradientUnits="userSpaceOnUse"><stop offset="0" stop-color="#fff" stop-opacity="0"/><stop offset="1" stop-color="#fff"/></linearGradient><style>.w{fill:#ffc940}.x{fill:#1a1626}.ab{fill:#fff}.ac{fill:#bec3cf}.af{fill:#966f42}.ag{fill:#f0a429}.ah{fill:#302c3b}</style></defs><path d="M43.75 463.72c24.71-11.79 127.86-41.55 127.86-41.55l150.29-.33s104.05 30.02 128.59 41.84c35.72 17.12 43.22 40.5 43.22 62.59 0 29.75-493.71 29.75-493.71 0 0-22.13 7.96-45.5 43.75-62.56Z" class="ah"/><path d="M161 418.61h171.72l-14.31 129.97h-144z" style="fill:#e6ebef"/><path d="m154.29 438.4 92.57 44.18 92.57-44.18v-73.46H154.29z" style="fill:#f5bb51"/><path d="M266.64 510.58c-5.32-12.74-34.23-12.74-39.55 0-4.24 10.1-7.8 23.4-10.77 38h61.07c-2.97-14.61-6.53-27.89-10.75-38" class="x"/><path d="M265.12 510.58c-4.11 4.61-32.87 5.11-36.5 0-8.63-12.11-22.82-36.07-22.82-36.07s35.82-16.28 41.06-16.28 41.08 16.28 41.08 16.28-12.89 24.98-22.82 36.07" class="ah"/><path d="m339.43 410.61 15.35 10.34s-10.37 26.96-25.77 93.17l-82.15-55.91s66.19 1.02 92.57-47.61Z" class="ab"/><path d="m154.29 410.61-15.33 10.34s10.35 26.96 25.76 93.17l82.15-55.91s-66.19 1.02-92.57-47.61Z" class="ab"/><path d="M346.03 546.9s32.56-39.14 52.64-78.29l-27.23-38.84 31.98-14.54s-26.68-37.52-64-50.3c0 0-7.2 114.66-43.63 183.64l50.23-1.67Zm-198.31 0s-32.56-39.14-52.64-78.29l27.23-38.84-31.98-14.54s26.68-37.52 64-50.3c0 0 7.2 114.66 43.64 183.64l-50.24-1.67Z" style="fill:#404754"/><path d="M498 438.67c-2.04-6.05-35.5-7.4-66.09 7.59-15.12 7.41-5.27 95.93-5.27 95.93S512 537.17 512 515.33c0-18.23-8.36-59.86-14-76.65Z" style="fill:#3a3d4a"/><path id="b" d="M397.17 213.9c-23.27 2.81-40.07 80.59-25.43 101.12 2.06 2.86 14.03 7.44 22.93-10.68 4.93-10.04 19.13-18.41 23.53-39.1 5.64-26.51 2.13-54.14-21.04-51.34Z" class="w" data-name="Path"/><path id="c" d="M96.56 213.9c23.27 2.81 40.07 80.59 25.43 101.12-2.06 2.86-14.03 7.44-22.95-10.68-4.91-10.04-19.13-18.41-23.52-39.1-5.66-26.51-2.13-54.14 21.04-51.34" class="w" data-name="Path"/><path id="d" d="M396.55 228.8c-6.07 1.91-12.7 11.16-16.28 26.5 21.21-4.55 15.91 30.73-2.53 31.4.18 3.56.41 7.2.86 11.04 8.88-12.87 17.91-7.72 26.86-26.87 8.05-17.28 6.13-46.76-8.91-42.06Z" class="ag" data-name="Path"/><path id="e" d="M113.46 255.26c-3.61-15.31-10.21-24.55-16.28-26.46-15.02-4.7-16.96 24.78-8.9 42.05 8.95 19.16 17.98 14 26.87 26.87.43-3.84.68-7.5.82-11.05-18.25-.85-23.48-35.71-2.51-31.41" class="ag" data-name="Path"/><path id="f" d="M246.86 64.33c-100.82 0-149.39 76.15-143.32 182.03 1.22 21.3 14.46 90.79 26.94 115.71 12.78 25.5 55.53 64.82 81.72 72.96 16.56 5.13 52.78 5.13 69.32 0 26.19-8.15 68.96-47.46 81.73-72.96 12.52-24.93 25.73-94.39 26.93-115.71 6.12-105.87-42.46-182.03-143.31-182.03Z" class="w" data-name="Path"/><path id="g" d="M356.41 206.13c-23.05-12.21-67.18-12.8-83.62-4.29-3.54 1.63-1.2 13.17 1.76 12.09 22.89-9.05 59.86-9.25 81.31.77 2.85 1.31 4.05-6.87.55-8.57" class="af" data-name="Path"/><path id="h" d="M137.33 206.13c23.05-12.21 67.16-12.8 83.62-4.29 3.52 1.63 1.2 13.17-1.76 12.09-22.95-9.05-59.86-9.25-81.33.77-2.83 1.31-4.01-6.87-.53-8.57" class="af" data-name="Path"/><path id="i" d="M274.08 311.86c-2.87-2-9.63 1.09-27.22 1.09s-24.32-3.09-27.2-1.09c-3.45 2.43 2.04 13.36 27.2 13.36s30.67-10.93 27.22-13.36" class="ag" data-name="Path"/><path id="j" d="M273.29 247.69c-.95 7.52 4.13 16.43 18.29 23.1 8.97 4.25 27.65 9.25 52.19-1.11 11.04-4.63 21.75-19.04 20.77-27.04-13.3-25.03-78.81-28.69-91.25 5.04Z" class="ab" data-name="Path"/><path id="l" d="M317.15 221.51c14.22 0 25.73 11.5 25.73 25.67s-11.52 25.7-25.73 25.7-25.73-11.48-25.73-25.7c0-14.17 11.51-25.67 25.73-25.67" data-name="Oval" style="fill:url(#k)"/><path id="m" d="M304.29 246.72c0 17.76 25.73 17.76 25.73 0 0-16.49-25.73-16.49-25.73 0" class="x" data-name="Path"/><path id="n" d="M300.37 239.51c0 7.44 10.8 7.44 10.8 0 0-6.88-10.8-6.88-10.8 0" data-name="Path" style="fill:#ab968c"/><path id="o" d="M273.18 248.67c10.43-33.46 81.64-28.67 91.36-6.02-3.61-28.84-82.47-36.48-91.36 6.02" class="ag" data-name="Path"/><path d="M375.64 89.54c-22.07-29.81-62.46-52.96-128.79-52.96S140.17 59.74 118.1 89.55c-31.25 42.21 288.77 42.21 257.54 0Z" style="fill:#7a6056"/><path d="M375.64 89.54c-22.07-29.81-62.46 2.52-128.79 2.52S140.17 59.73 118.1 89.55c-31.25 42.21-20.64 182.86-6.73 182.86 2.19 0 2.51-49.19 6.73-83.23 3.41-27.69 10-54.57 17.59-58.96 23.14-13.41 67.77 5.77 111.16 5.77s88.04-19.18 111.2-5.77c7.57 4.39 14.14 31.27 17.59 58.96 4.2 34.04 4.52 83.23 6.71 83.23 13.92 0 24.52-140.64-6.71-182.87" style="fill:url(#p)"/><path d="M379.32 346.01c-7.98-11.69 23.5-20.32 28.7.21 2.09 8.3 88.05 6.11 94.91 18.38 12.36 22.03-15.98 65.52-11.82 74.47 4.14 8.95-57.82 23-56.6 11.75 3.99-36.87-14.48-22.93-22.39-53.94-5.97-23.33-22.13-35.22-32.8-50.86Z" class="w"/><circle cx="332.17" cy="245.89" r="80.36" style="fill:url(#q);isolation:isolate;opacity:.65"/><path d="m404.27 338.08 20.07-20.04-21.48-21.47-20.06 20.08z" class="ac"/><path d="M395.29 309.05c34.89-34.89 34.88-91.41 0-126.32-34.87-34.86-91.43-34.87-126.29 0-34.88 34.87-34.88 91.46 0 126.34 34.86 34.87 91.44 34.87 126.28-.02Zm-115.04-11.26c-28.69-28.63-28.68-75.17.02-103.84 28.65-28.68 75.14-28.66 103.79 0 28.71 28.68 28.71 75.19 0 103.85-28.65 28.68-75.15 28.68-103.81-.02Z" class="ac"/><path d="m399.002 339.559 26.776-26.767 72.876 72.902-26.776 26.766z" class="ah"/><path d="M469.34 417.67c4.39 4.39 38.98-30.14 34.55-34.57l-2.69-2.68c-4.42-4.43-38.99 30.13-34.57 34.53z" class="ac"/><path d="M454.5 319.58c16.03-.58 19.81 12.41 19.81 12.41 14.53 1.61 20.01 15.68 20.01 15.68 27.94 14.2-12.93 72.27-22.2 42.53-11.82 14.65-28.75 4.59-18.72-12.46-12.9 17.52-27.59-1.95-20.28-12.76 2.75-4.03 4.72-9.05 7.94-13.68-13.37 17.59-26.38-.59-21.91-11.62 4.96-12.21 12.47-23.31 16.34-25.91 7.7-5.18 16.93 2.05 19.01 5.81" class="w"/><path d="M422.29 355.1c13.98 15.91 28.34-18.18 28.8-24.86-9.07 22.63-22.78 30.35-28.8 24.86m12.6 26.05c13.99 15.93 30.97-17.52 34.93-37.13-12.11 35.11-28.91 42.64-34.93 37.13m18.5 13.76c13.98 15.93 32.02-17.75 35.98-37.36-12.11 35.11-29.96 42.88-35.98 37.36" class="ag"/><path d="M493.71 169.53c0 19.62-110.55 40.37-246.86 40.37S0 189.15 0 169.53s110.51-35.54 246.86-35.54c136.31 0 246.86 15.91 246.86 35.54Z" class="ah"/><path d="M400.79 137.89c0 37.59-307.86 37.59-307.86 0 0-201.26 68.9-122.85 153.93-122.85s153.93-78.41 153.93 122.85" class="ah"/><path d="M246.86 27.98c-42.67 0-116.55-30.88-91.61-5.73 32.77 32.98 151.63 31.79 183.2 0 24.98-25.14-48.93 5.73-91.58 5.73ZM92.93 121.84v35.56c60.15 23.41 247.71 23.41 307.86 0v-35.56c-60.08 23.42-247.8 23.42-307.86 0" class="x"/><path id="r" d="M246.85 350.56c-22.67-6.65-56.28 3.16-56.28 3.16 12.8 13.92 22.18 31.96 56.28 31.96 39.07 0 45.73-20.48 56.3-31.96 0 0-33.63-9.85-56.3-3.16" class="ag" data-name="Path"/><path id="s" d="M199.01 356.08c23.79 19.91 71.79 20.05 95.7 0-25.34 1.09-70.18 1.09-95.7 0" class="ab" data-name="Path"/><path d="M153.72 255.78c15.22-8.64 42.6-9.22 59.04 0 3.79 2.14 10.1.66 8.69-1.84-14.36-25.32-62.1-25.28-76.43 0-1.42 2.5 4.9 4 8.69 1.84Z" style="fill:#a6772c"/></svg>