<svg xmlns="http://www.w3.org/2000/svg" id="a" data-name="Layer 1" viewBox="0 0 512 512.02"><defs><linearGradient id="b" x1="256" x2="256" y1="7.32" y2="69.82" gradientTransform="matrix(1 0 0 -1 0 514.02)" gradientUnits="userSpaceOnUse"><stop offset="0" stop-color="#f80"/><stop offset=".21" stop-color="#ffa113"/><stop offset=".54" stop-color="#ffc32b"/><stop offset=".82" stop-color="#ffd83a"/><stop offset="1" stop-color="#ffdf40"/></linearGradient><linearGradient id="c" x1="255.99" x2="255.99" y1="97.43" y2="216.92" gradientTransform="matrix(1 0 0 -1 0 514.02)" gradientUnits="userSpaceOnUse"><stop offset="0" stop-color="#fff047"/><stop offset=".27" stop-color="#ffef66"/><stop offset=".54" stop-color="#ffef7e"/><stop offset=".79" stop-color="#ffee8c"/><stop offset="1" stop-color="#ffee91"/></linearGradient><linearGradient id="e" x1="256" x2="256" y1="101.16" y2="213.18" gradientTransform="matrix(1 0 0 -1 0 514.02)" gradientUnits="userSpaceOnUse"><stop offset="0" stop-color="#e81c27"/><stop offset=".16" stop-color="#ea2324"/><stop offset=".39" stop-color="#ee381d"/><stop offset=".68" stop-color="#f55a11"/><stop offset="1" stop-color="#f80"/></linearGradient><linearGradient id="f" x1="260.23" x2="260.23" y1="124.97" y2="162.78" gradientTransform="matrix(1 0 0 -1 0 514.02)" gradientUnits="userSpaceOnUse"><stop offset="0" stop-color="#e81c27"/><stop offset=".16" stop-color="#ea2324"/><stop offset=".39" stop-color="#ee381d"/><stop offset=".68" stop-color="#f55a11"/><stop offset="1" stop-color="#f80"/></linearGradient><linearGradient id="r" x1="256" x2="256" y1="363.51" y2="488.27" gradientTransform="matrix(1 0 0 -1 0 514.02)" gradientUnits="userSpaceOnUse"><stop offset=".5" stop-color="#473834"/><stop offset=".64" stop-color="#503f3a"/><stop offset=".86" stop-color="#68524a"/><stop offset="1" stop-color="#7a6056"/></linearGradient><linearGradient id="t" x1="-611.64" x2="-611.64" y1="348.38" y2="343.96" gradientTransform="translate(4235.15 -2138.94)scale(6.57)" gradientUnits="userSpaceOnUse"><stop offset="0" stop-color="#a6694a"/><stop offset="1" stop-color="#4f2a1e"/></linearGradient><linearGradient id="z" x1="-602.4" x2="-602.4" y1="348.38" y2="343.96" gradientTransform="translate(4252.88 -2138.94)scale(6.57)" gradientUnits="userSpaceOnUse"><stop offset="0" stop-color="#a6694a"/><stop offset="1" stop-color="#4f2a1e"/></linearGradient><style>.am{fill:#ffc940}.an{fill:#1a1626}.ap{fill:#f5bb51}.aq{fill:#fff}.as{fill:#e81c27}.au{fill:#a3141b}.av{fill:#ab968c}.aw{fill:#966f42}.ay{fill:#f0a429}</style></defs><path d="M490.48 470.16c-5.5-122.44-62.09-231.22-137.76-232.39-14.48-13.97-35.67-9.88-35.67-9.88-41.43-16.87-80.65-16.87-122.1 0 0 0-21.18-4.1-35.69 9.88-75.65 1.17-132.12 109.95-137.74 232.37-1.15 25.16 64.35 35.13 63.83 35h341.28c-.49.13 64.97-9.83 63.84-34.99Z" class="as"/><path d="M399.84 288.25H112.16s-56.48 84.06-26.8 216.88c21.41 3.09 46.89 5.46 74.63 6.88h192.03c27.73-1.42 53.22-3.78 74.62-6.88 29.68-132.82-26.81-216.88-26.81-216.88Z" style="fill:#850000"/><path d="M136.64 241.97s28.03-6.73 57.58 1.89c-30.82-16.48-57.58-1.89-57.58-1.89m45.75-14.36s19.85.56 38.14 16.85c-16.18-22.78-38.14-16.85-38.14-16.85m192.96 14.36s-28.02-6.73-57.58 1.89c30.84-16.48 57.58-1.89 57.58-1.89m-45.75-14.36s-19.85.56-38.15 16.85c16.19-22.78 38.15-16.85 38.15-16.85" class="au"/><path d="M495.49 357.09c-14.06-29.38-46.72-59.21-68.81-70.63-49.37-59.87-142.6-18.75-170.67-18.75S134.7 226.6 85.33 286.46c-22.1 11.43-54.75 41.25-68.81 70.63-67.78 58.53 95.07 133.3 95.07 133.3 42.09-9.83 17.37-36.58 17.37-36.58-28.59-16.15-28.5-42.23-57.48-68.15 27.02-5.53 54.96-31.48 54.96-31.48 7.43 53.53 40.29 59.54 33.57 157.84h192.01c-6.72-98.31 26.12-104.31 33.57-157.84 0 0 27.93 25.95 54.95 31.48-28.97 25.92-28.9 52-57.48 68.15 0 0-24.71 26.75 17.37 36.58 0 0 162.86-74.77 95.07-133.3Z" style="fill:#006dae"/><path d="M110.51 347.21c29.73 8.41 52.72 82.03 144.03 17.08-80.66 40.4-105.71-15.02-144.03-17.08m290.98 0c-29.73 8.41-52.72 82.03-144.01 17.08 80.66 40.4 105.7-15.02 144.01-17.08" style="fill:#006099"/><path d="M209.08 245.24c0 29.83 93.86 29.83 93.86 0v-24.78h-93.86z" class="ap"/><path d="M359.69 464.99c-6.87-6.89-39.38.58-72.01-12.63-25.99-10.55-35.76-11.2-63.34 0-32.53 13.22-64.95 5.77-71.78 12.63-4.22 4.25-6.25 19.41 0 23.19 9.98 6.02 41.07-1.07 71.65 11.49 22.55 9.27 40.53 9.4 63.34.28 31.57-12.63 63.23-5.21 72.15-11.77 5.7-4.18 4.22-18.94 0-23.19Z" style="fill:url(#b)"/><path d="M228.26 456.2c-1.3 1.4-2.3 2.88-2.94 4.5-2.2 5.75-3.29 26.27 0 31.37.6.91 1.37 1.8 2.18 2.64-1.82-9.7-.96-30.74.75-38.5Zm-35.13 4.7c-1.3 1.05-2.31 2.18-2.94 3.4-2.22 4.34-3.29 19.87 0 23.71.6.7 1.35 1.35 2.18 2-1.82-7.32-.95-23.25.75-29.11Zm90.62-4.7c1.28 1.4 2.29 2.88 2.92 4.5 2.22 5.75 3.29 26.27 0 31.37-.6.91-1.35 1.8-2.18 2.64 1.82-9.7.95-30.74-.73-38.5Zm35.12 4.7c1.31 1.05 2.31 2.18 2.94 3.4 2.22 4.34 3.29 19.87 0 23.71-.6.7-1.35 1.35-2.18 2 1.82-7.32.95-23.25-.75-29.11Z" style="fill:#ff9e00"/><path d="M383.66 453.43c-18.36 3.03-19.5-7.4-26.37-8.47-4.09-.63-7.01 5.25-7.88 14.05-.8 8.36-10.53 16.95-28.38 27.32-11.73 6.82-2.8 19.74 8.01 14.98 3.03 6.72 12.17 6.72 12.17 6.72 16.03 13.45 45.65-10.95 59.21-17.65-16.71-19.5-16.76-36.95-16.76-36.95" class="ap"/><path d="M350.74 491.38s-8.58 5.68-21.7 9.93c11.86-5.85 21.7-9.93 21.7-9.93m8.75 10.7s-6.26 5.95-18.29 5.95c9.54-1.48 18.29-5.95 18.29-5.95" class="ay"/><path d="M128.34 453.43c18.62 3.08 19.52-7.33 26.37-8.47 4.09-.67 7.03 5.25 7.88 14.05.82 8.36 10.55 16.95 28.38 27.32 11.75 6.82 2.82 19.74-8.01 14.98-3.03 6.72-12.17 6.72-12.17 6.72-16.03 13.45-45.65-10.95-59.21-17.65 16.71-19.5 16.76-36.95 16.76-36.95" class="ap"/><path d="M161.25 491.38s8.58 5.68 21.7 9.93c-11.86-5.85-21.7-9.93-21.7-9.93m-8.74 10.7s6.26 5.95 18.29 5.95c-9.54-1.48-18.29-5.95-18.29-5.95" class="ay"/><path d="M256 297.1c-32.95 0-59.73 26.8-59.73 59.75s26.78 59.73 59.73 59.73 59.72-26.8 59.72-59.73S288.93 297.1 256 297.1" style="fill:url(#c)"/><path id="d" d="M256 314.85c23.14 0 41.99 18.85 41.99 42.02s-18.85 42-41.99 42-42.02-18.85-42.02-42c0-23.17 18.88-42.02 42.02-42.02m0-14.01c-30.92 0-56 25.08-56 56.01s25.08 56.01 56 56.01 56-25.08 56-56.01-25.08-56.01-56-56.01" data-name="Shape" style="fill:url(#e)"/><path id="g" d="M267.21 362.46c-1.87 0-2.82-.93-2.82-2.8v-5.61c0-1.89.95-2.82 2.82-2.82h18.18c1.9 0 2.83.93 2.83 2.82v2.8c0 17.78-14.41 32.2-32.21 32.2-8.65 0-16.77-3.43-22.77-9.43-1.33-1.33-1.33-2.62-.02-3.97l5.98-5.93c1.3-1.31 2.62-1.31 3.93 0 3.4 3.4 7.99 5.33 12.87 5.33 8.08 0 14.94-5.27 17.33-12.6h-6.14Z" data-name="Combined-Shape" style="fill:url(#f)"/><path id="h" d="M351.77 113.15c-14.83 1.8-25.53 51.45-16.21 64.55 1.31 1.83 8.95 4.75 14.62-6.82 3.13-6.4 12.19-11.73 15-24.95 3.58-16.91 1.34-34.56-13.41-32.78" class="am" data-name="Path"/><path id="i" d="M160.24 113.15c14.81 1.8 25.53 51.45 16.2 64.55-1.3 1.83-8.95 4.75-14.62-6.82-3.13-6.4-12.19-11.73-14.98-24.95-3.59-16.91-1.34-34.56 13.41-32.78Z" class="am" data-name="Path"/><path id="j" d="M351.37 122.69c-3.87 1.22-8.08 7.1-10.39 16.9 13.52-2.9 10.15 19.62-1.6 20.04.1 2.27.25 4.6.54 7.05 5.67-8.22 11.42-4.92 17.1-17.15 5.15-11.03 3.92-29.85-5.65-26.83Z" class="ay" data-name="Path"/><path id="k" d="M171.01 139.56c-2.29-9.77-6.5-15.67-10.37-16.87-9.58-3.02-10.8 15.8-5.67 26.84 5.7 12.24 11.45 8.93 17.12 17.15.28-2.45.44-4.79.54-7.05-11.64-.55-14.97-22.81-1.62-20.07" class="ay" data-name="Path"/><path id="l" d="M256 17.7c-64.23 0-95.18 48.6-91.32 116.18.79 13.59 9.2 57.93 17.17 73.85 8.15 16.28 35.36 41.37 52.06 46.57 10.55 3.29 33.61 3.29 44.16 0 16.68-5.2 43.91-30.29 52.07-46.57 7.97-15.92 16.38-60.26 17.15-73.85 3.88-67.58-27.05-116.18-91.3-116.18Z" class="am" data-name="Path"/><path id="m" d="M325.79 108.21c-14.69-7.78-42.8-8.15-53.28-2.73-2.24 1.05-.75 8.41 1.13 7.71 14.6-5.77 38.14-5.9 51.8.49 1.82.83 2.58-4.39.35-5.47" class="aw" data-name="Path"/><path id="n" d="M186.21 108.21c14.7-7.78 42.8-8.15 53.28-2.73 2.24 1.05.75 8.41-1.13 7.71-14.62-5.77-38.11-5.9-51.8.49-1.82.83-2.56-4.39-.35-5.47" class="aw" data-name="Path"/><path id="o" d="M273.33 175.69c-1.83-1.27-6.14.7-17.33.7s-15.5-1.96-17.35-.7c-2.18 1.55 1.31 8.53 17.35 8.53s19.53-6.98 17.33-8.53" class="ay" data-name="Path"/><path id="p" d="M256 202.17c-14.45-4.25-35.87 2.01-35.87 2.01 8.15 8.88 14.13 20.4 35.87 20.4 24.88 0 29.12-13.08 35.85-20.4 0 0-21.42-6.3-35.85-2.01" class="ay" data-name="Path"/><path id="q" d="M225.52 205.69c15.15 12.7 45.73 12.8 60.96 0-16.15.68-44.71.7-60.96 0" class="aq" data-name="Path"/><path d="M338.04 33.8C323.99 14.78 298.25 0 256 0s-67.98 14.78-82.03 33.8c-19.91 26.95 183.97 26.95 164.07 0" style="fill:#7a6056"/><path d="M338.04 33.8c-14.05-19.02-39.78 1.61-82.03 1.61s-67.98-20.63-82.03-1.61c-19.92 26.95-13.15 116.7-4.3 116.7 1.42 0 1.61-31.4 4.3-53.12 2.17-17.68 6.37-34.83 11.2-37.63 14.75-8.55 43.18 3.69 70.83 3.69s56.08-12.24 70.83-3.69c4.81 2.8 9.02 19.95 11.2 37.63 2.68 21.72 2.88 53.12 4.3 53.12 8.85 0 15.6-89.76-4.3-116.7" style="fill:url(#r)"/><path d="M256.16 116.88c-23.43.02-70.95-38.6-93.33 8.34 9.75 89.77 69.41 20.07 93.33 20.1 23.86.03 84.08 70.49 93.02-20.1-22.38-46.95-69.65-8.35-93.02-8.34" class="as"/><path id="s" d="M241.73 135.7c.54 4.23-2.33 9.28-10.33 13.06-5.07 2.41-15.65 5.23-29.51-.61-6.22-2.64-12.28-10.77-11.73-15.3 7.53-14.17 44.52-16.25 51.58 2.85Z" class="aq" data-name="Path"/><path id="u" d="M216.59 120.87c8.05 0 14.55 6.52 14.55 14.53s-6.5 14.53-14.55 14.53-14.53-6.5-14.53-14.53c0-8.01 6.54-14.53 14.53-14.53" data-name="Oval" style="fill:url(#t)"/><path id="v" d="M209.32 135.14c0 10.09 14.57 10.09 14.57 0 0-9.34-14.57-9.34-14.57 0" class="an" data-name="Path"/><path id="w" d="M207.14 131.08c0 4.22 6.08 4.22 6.08 0 0-3.9-6.08-3.9-6.08 0" class="av" data-name="Path"/><path id="x" d="M241.79 136.27c-5.9-19-46.17-16.2-51.65-3.41 2.05-16.36 46.62-20.66 51.65 3.41" class="au" data-name="Path"/><path id="y" d="M270.3 135.7c-.55 4.23 2.33 9.28 10.33 13.06 5.07 2.41 15.62 5.23 29.5-.61 6.2-2.64 12.27-10.77 11.72-15.3-7.5-14.17-44.52-16.25-51.55 2.85" class="aq" data-name="Path"/><circle id="aa" cx="295.09" cy="135.4" r="14.53" data-name="Oval" style="fill:url(#z)"/><path id="ab" d="M287.81 135.14c0 10.09 14.55 10.09 14.55 0 0-9.34-14.55-9.34-14.55 0" class="an" data-name="Path"/><path id="ac" d="M285.61 131.08c0 4.22 6.08 4.22 6.08 0 0-3.9-6.08-3.9-6.08 0" class="av" data-name="Path"/><path id="ad" d="M270.22 136.27c5.91-18.97 46.12-16.25 51.64-3.41-2.05-16.36-46.6-20.66-51.64 3.41" class="au" data-name="Path"/></svg>