<svg xmlns="http://www.w3.org/2000/svg" data-name="Layer 1" style="" viewBox="0 0 512 512.02"><g><defs><linearGradient id="1770301554942-8009982_b" x1="-808.15" x2="-923.85" y1="218.9" y2="218.9" gradientTransform="rotate(180 -240.11 257.01)" gradientUnits="userSpaceOnUse"><stop offset="0" stop-color="#abbdc5"></stop><stop offset=".09" stop-color="#a6b8bf"></stop><stop offset=".66" stop-color="#89979e"></stop><stop offset=".98" stop-color="#7e8b91"></stop></linearGradient><linearGradient id="1770301554942-8009982_c" x1="67.12" x2="182.8" y1="218.9" y2="218.9" gradientTransform="matrix(1 0 0 -1 0 514.02)" gradientUnits="userSpaceOnUse"><stop offset="0" stop-color="#abbdc5"></stop><stop offset=".09" stop-color="#a6b8bf"></stop><stop offset=".66" stop-color="#89979e"></stop><stop offset=".98" stop-color="#7e8b91"></stop></linearGradient><linearGradient id="1770301554942-8009982_d" x1="-942.91" x2="-923.96" y1="50.65" y2="77.83" gradientTransform="rotate(180 -240.11 257.01)" gradientUnits="userSpaceOnUse"><stop offset="0" stop-color="#7e8b91"></stop><stop offset=".44" stop-color="#909fa5"></stop><stop offset="1" stop-color="#abbdc5"></stop></linearGradient><linearGradient id="1770301554942-8009982_e" x1="49.32" x2="68.27" y1="50.64" y2="77.82" gradientTransform="matrix(1 0 0 -1 0 514.02)" gradientUnits="userSpaceOnUse"><stop offset="0" stop-color="#7e8b91"></stop><stop offset=".44" stop-color="#909fa5"></stop><stop offset="1" stop-color="#abbdc5"></stop></linearGradient><linearGradient id="1770301554942-8009982_f" x1="256" x2="256" y1="2" y2="73.02" gradientTransform="matrix(1 0 0 -1 0 514.02)" gradientUnits="userSpaceOnUse"><stop offset="0" stop-color="#7e8b91"></stop><stop offset=".63" stop-color="#9daeb5"></stop><stop offset="1" stop-color="#abbdc5"></stop></linearGradient><linearGradient id="1770301554942-8009982_g" x1="-741.47" x2="-872.47" y1="198.51" y2="198.51" gradientTransform="rotate(180 -240.11 257.01)" gradientUnits="userSpaceOnUse"><stop offset="0" stop-color="#abbdc5"></stop><stop offset=".37" stop-color="#9daeb5"></stop><stop offset="1" stop-color="#7e8b91"></stop></linearGradient><linearGradient id="1770301554942-8009982_h" x1="125.67" x2="256.67" y1="198.51" y2="198.51" gradientTransform="matrix(1 0 0 -1 0 514.02)" gradientUnits="userSpaceOnUse"><stop offset="0" stop-color="#abbdc5"></stop><stop offset=".37" stop-color="#9daeb5"></stop><stop offset="1" stop-color="#7e8b91"></stop></linearGradient><linearGradient id="1770301554942-8009982_q" x1="256" x2="256" y1="363.51" y2="488.27" gradientTransform="matrix(1 0 0 -1 0 514.02)" gradientUnits="userSpaceOnUse"><stop offset=".5" stop-color="#473834"></stop><stop offset=".64" stop-color="#503f3a"></stop><stop offset=".86" stop-color="#68524a"></stop><stop offset="1" stop-color="#7a6056"></stop></linearGradient><linearGradient id="1770301554942-8009982_s" x1="-611.64" x2="-611.64" y1="348.39" y2="343.96" gradientTransform="matrix(6.57 0 0 6.57 4235.16 -2138.94)" gradientUnits="userSpaceOnUse"><stop offset="0" stop-color="#c20606"></stop><stop offset="1" stop-color="#5e0000"></stop></linearGradient><linearGradient id="1770301554942-8009982_y" x1="-602.4" x2="-602.4" y1="348.39" y2="343.96" gradientTransform="matrix(6.57 0 0 6.57 4252.89 -2138.94)" gradientUnits="userSpaceOnUse"><stop offset="0" stop-color="#c20606"></stop><stop offset="1" stop-color="#5e0000"></stop></linearGradient></defs><path d="M460.79 468.96C455.98 343 434.32 231.1 356.06 229.9c-14.99-14.37-36.88-10.16-36.88-10.16-42.86-17.36-83.43-17.36-126.32 0 0 0-21.91-4.22-36.91 10.16C77.68 231.1 56.11 343 51.22 468.95c-1.01 25.87 46.05 34.62 46.05 34.62h317.48s47.04-8.73 46.06-34.61Z" class="bb" fill="#3ab0a2"></path><path d="M400.25 281.83H111.74s-42.09 85.09-14.48 221.73c0 0 35.86 8.45 74.88 8.45h167.73c39.02 0 74.87-8.45 74.87-8.45 27.61-136.64-14.48-221.73-14.48-221.73Z" class="at" fill="#148779"></path><path d="M135.21 233.2c34.58-10.68 67.65 22.4 67.65 22.4s-28.12-43.88-67.65-22.4m173.93 22.4s33.07-33.08 67.65-22.4c-39.54-21.48-67.65 22.4-67.65 22.4" fill="#189e8d"></path><path d="M495.49 357.12c-14.05-29.4-26.57-45.92-48.67-57.35H65.19c-22.1 11.44-34.64 27.95-48.68 57.35-67.78 58.52 95.06 133.29 95.06 133.29 42.09-9.83 17.37-36.57 17.37-36.57-28.59-16.17-28.5-42.23-57.48-68.17 27.02-5.53 54.97-31.47 54.97-31.47 7.43 53.51 40.29 59.52 33.57 157.82h192.04c-6.72-98.31 26.14-104.31 33.57-157.82 0 0 27.95 25.93 54.97 31.47-28.98 25.93-28.9 52-57.48 68.17 0 0-24.71 26.74 17.37 36.57 0 0 162.83-74.77 95.04-133.29Z" fill="#302c3b"></path><path d="M511.21 395.94c-4.42 53.23-110.77 94.45-110.77 94.45s-13.64-2.08-15.98-25.22c48.56-11.73 116.36-110.73 126.75-69.23" class="bb" fill="#3ab0a2"></path><path d="M446.82 299.76c-39.19 3.99-60.03 40.97-60.03 40.97S364.67 278.9 326 263.76c53-33.69 110.44-1.92 120.82 36" fill="url(#1770301554942-8009982_b)"></path><path d="M65.19 299.76c39.17 3.99 60.02 40.97 60.02 40.97s22.12-61.83 60.79-76.97c-52.99-33.69-110.44-1.92-120.8 36Z" fill="url(#1770301554942-8009982_c)"></path><path d="M.81 395.94c4.39 53.23 110.76 94.45 110.76 94.45s13.64-2.08 15.98-25.22C78.98 453.44 11.18 354.44.81 395.94" class="bb" fill="#3ab0a2"></path><path d="M511.21 405.02c-4.42 53.23-110.77 85.39-110.77 85.39s-13.64 6.98-15.98-16.15c48.56-11.73 116.36-110.73 126.75-69.23Z" fill="url(#1770301554942-8009982_d)"></path><path d="M.81 405.02c4.39 53.23 110.76 85.39 110.76 85.39s13.64 6.98 15.98-16.15C78.98 462.53 11.18 363.53.81 405.03Z" fill="url(#1770301554942-8009982_e)"></path><path d="M209.06 245.24c0 29.84 93.87 29.84 93.87 0v-24.76h-93.87z" class="ar" fill="#f5bb51"></path><path d="M359.47 450.08c-6.84-6.87-29.38-9.08-29.38-9.08l-19.47 33.07H201.37L181.9 441s-22.54 2.22-29.38 9.08c-4.21 4.25 6.95 61.94 6.95 61.94h193.06s11.16-57.69 6.95-61.94Z" fill="url(#1770301554942-8009982_f)"></path><path d="M120.42 333.33s3.99 34.66 24.36 42.2c18.6 6.9 74.44 7.71 97.07-.26 4.54-1.6 14.14-10.65 14.14-10.65s9.6 9.05 14.13 10.65c22.63 7.99 78.47 7.17 97.07.26 20.39-7.55 24.38-42.2 24.38-42.2z" fill="#4e5e67"></path><path d="M128.33 453.44c18.62 3.08 19.52-7.33 26.37-8.47 4.09-.67 7.03 5.25 7.89 14.05.82 8.38 10.55 16.96 28.38 27.33 11.75 6.8 2.82 19.74-8.01 14.99-3.03 6.72-12.17 6.72-12.17 6.72-16.03 13.43-45.66-10.97-59.21-17.66 16.71-19.48 16.76-36.95 16.76-36.95Z" class="ar" fill="#f5bb51"></path><path d="M161.24 491.38s8.58 5.7 21.7 9.95c-11.86-5.86-21.7-9.95-21.7-9.95m-8.75 10.71s6.26 5.97 18.29 5.97c-9.54-1.5-18.29-5.97-18.29-5.97" class="ba" fill="#f0a429"></path><path d="M383.67 453.44c-18.62 3.08-19.52-7.33-26.37-8.47-4.09-.67-7.03 5.25-7.89 14.05-.82 8.38-10.55 16.96-28.38 27.33-11.73 6.8-2.82 19.74 8.01 14.99 3.03 6.72 12.17 6.72 12.17 6.72 16.03 13.43 45.65-10.97 59.21-17.66-16.71-19.48-16.76-36.95-16.76-36.95Z" class="ar" fill="#f5bb51"></path><path d="M350.76 491.38s-8.58 5.7-21.7 9.95c11.86-5.86 21.7-9.95 21.7-9.95m8.74 10.71s-6.26 5.97-18.29 5.97c9.54-1.5 18.29-5.97 18.29-5.97" class="ba" fill="#f0a429"></path><path d="M347.65 268.98c14.35 8.17 44.37 56.87 43.93 64.35-.52 8.55-15.33 24.36-22.12 29.08-14.27 9.93-88.64 7.33-101.25 2.15-5.03-2.08-12.21-7.8-12.21-7.8v-89.14s64.98-13.8 91.65 1.36" fill="url(#1770301554942-8009982_g)"></path><path d="M164.35 268.98c-14.35 8.17-44.37 56.87-43.91 64.35.5 8.55 15.32 24.36 22.1 29.08 14.27 9.93 88.64 7.33 101.26 2.15 5.03-2.08 12.2-7.8 12.2-7.8v-89.14s-64.98-13.8-91.65 1.36" fill="url(#1770301554942-8009982_h)"></path><path d="m80.29 293.69-30.05-49.88 48.4 35.15c-3.64 12.92-18.36 14.73-18.36 14.73Zm34.9-28.1-12.68-69.23 39.72 60.41c-9.65 13.06-27.03 8.82-27.03 8.82Zm316.5 28.1 30.04-49.88-48.4 35.15c3.66 12.92 18.36 14.73 18.36 14.73m-34.89-28.1 12.65-69.23-39.72 60.41c9.65 13.06 27.07 8.82 27.07 8.82" fill="#d4dce0"></path><path id="1770301554942-8009982_i" d="M351.79 113.16c-14.83 1.8-25.53 51.45-16.21 64.55 1.3 1.83 8.95 4.75 14.62-6.82 3.13-6.4 12.19-11.75 14.99-24.95 3.59-16.92 1.36-34.56-13.39-32.78Z" class="ao" data-name="Path" fill="#ffc940"></path><path id="1770301554942-8009982_j" d="M160.23 113.16c14.83 1.8 25.53 51.45 16.2 64.55-1.3 1.83-8.93 4.75-14.6-6.82-3.15-6.4-12.2-11.75-15-24.95-3.59-16.92-1.34-34.58 13.41-32.78Z" class="ao" data-name="Path" fill="#ffc940"></path><path id="1770301554942-8009982_k" d="M351.37 122.68c-3.87 1.22-8.08 7.12-10.37 16.9 13.52-2.9 10.14 19.62-1.61 20.05.1 2.27.26 4.6.54 7.05 5.67-8.23 11.42-4.92 17.12-17.17 5.12-11.01 3.91-29.83-5.67-26.83Z" class="ba" data-name="Path" fill="#f0a429"></path><path id="1770301554942-8009982_l" d="M171.01 139.57c-2.3-9.78-6.5-15.67-10.37-16.89-9.58-3.02-10.82 15.82-5.68 26.84 5.7 12.25 11.45 8.93 17.12 17.17.28-2.47.44-4.8.54-7.07-11.64-.55-14.95-22.8-1.6-20.05Z" class="ba" data-name="Path" fill="#f0a429"></path><path id="1770301554942-8009982_m" d="M256 17.72c-64.24 0-95.19 48.6-91.33 116.17.79 13.6 9.22 57.95 17.17 73.85 8.15 16.28 35.39 41.39 52.07 46.57 10.55 3.29 33.63 3.29 44.16 0 16.68-5.18 43.93-30.29 52.07-46.57 7.97-15.9 16.4-60.26 17.17-73.85 3.88-67.57-27.07-116.17-91.32-116.17Z" class="ao" data-name="Path" fill="#ffc940"></path><path id="1770301554942-8009982_n" d="M319 90.71c-16.6-.84-42.25 10.7-49.45 20.04-1.59 1.89 2.87 7.94 4.28 6.52 10.8-11.39 32.07-21.46 47.15-21.45 2.02-.02.49-5.08-1.98-5.11" class="ay" data-name="Path" fill="#966f42"></path><path id="1770301554942-8009982_o" d="M192.99 90.71c16.6-.84 42.24 10.69 49.45 20.04 1.59 1.89-2.88 7.94-4.28 6.52-10.82-11.4-32.07-21.46-47.17-21.45-2-.02-.46-5.07 2.01-5.1Z" class="ay" data-name="Path" fill="#966f42"></path><path id="1770301554942-8009982_p" d="M273.33 175.7c-1.83-1.28-6.14.68-17.33.68s-15.5-1.96-17.33-.68c-2.2 1.55 1.3 8.53 17.33 8.53s19.55-6.98 17.33-8.53" class="ba" data-name="Path" fill="#f0a429"></path><path d="M338.05 33.81C323.99 14.78 298.25 0 256 0s-67.97 14.78-82.04 33.82c-19.89 26.93 183.99 26.93 164.09 0Z" fill="#7a6056"></path><path d="M338.05 33.81c-14.06-19.03-39.8 1.6-82.05 1.6s-67.97-20.63-82.04-1.6c-19.9 26.93-13.13 116.71-4.28 116.71 1.4 0 1.6-31.42 4.28-53.14 2.18-17.68 6.38-34.82 11.2-37.62 14.75-8.56 43.21 3.67 70.84 3.67s56.08-12.24 70.83-3.67c4.83 2.8 9.02 19.93 11.21 37.62 2.68 21.72 2.87 53.14 4.28 53.14 8.86 0 15.63-89.77-4.28-116.71Z" fill="url(#1770301554942-8009982_q)"></path><path d="M256.17 116.9c-23.43.02-70.96-38.6-93.34 8.34 9.74 89.77 69.4 20.07 93.34 20.1 23.84.03 84.06 70.49 93.02-20.1-22.4-46.96-69.67-8.35-93.02-8.34" class="bb" fill="#3ab0a2"></path><path id="1770301554942-8009982_r" d="M241.72 135.72c.54 4.23-2.33 9.28-10.33 13.07-5.07 2.4-15.63 5.21-29.51-.63-6.22-2.62-12.28-10.77-11.73-15.3 7.52-14.17 44.54-16.25 51.58 2.87Z" class="au" data-name="Path" fill="#fff"></path><circle id="1770301554942-8009982_t" cx="216.6" cy="135.42" r="14.53" data-name="Oval" fill="url(#1770301554942-8009982_s)"></circle><path id="1770301554942-8009982_u" d="M209.33 135.15c0 10.07 14.56 10.07 14.56 0 0-9.33-14.56-9.33-14.56 0" class="ap" data-name="Path" fill="#1a1626"></path><path id="1770301554942-8009982_v" d="M207.13 131.09c0 4.22 6.08 4.22 6.08 0 0-3.9-6.08-3.9-6.08 0" class="ax" data-name="Path" fill="#ab968c"></path><path id="1770301554942-8009982_w" d="M241.8 136.27c-5.91-18.99-46.19-16.18-51.65-3.41 2.03-16.33 46.63-20.65 51.65 3.41" class="at" data-name="Path" fill="#148779"></path><path id="1770301554942-8009982_x" d="M270.3 135.72c-.55 4.23 2.33 9.28 10.33 13.07 5.07 2.4 15.63 5.21 29.52-.63 6.2-2.62 12.27-10.77 11.72-15.3-7.52-14.17-44.52-16.25-51.57 2.87Z" class="au" data-name="Path" fill="#fff"></path><circle id="1770301554942-8009982_z" cx="295.08" cy="135.42" r="14.53" data-name="Oval" fill="url(#1770301554942-8009982_y)"></circle><path id="1770301554942-8009982_aa" d="M287.82 135.15c0 10.07 14.53 10.07 14.53 0 0-9.33-14.53-9.33-14.53 0" class="ap" data-name="Path" fill="#1a1626"></path><path id="1770301554942-8009982_ab" d="M285.62 131.09c0 4.22 6.08 4.22 6.08 0 0-3.9-6.08-3.9-6.08 0" class="ax" data-name="Path" fill="#ab968c"></path><path id="1770301554942-8009982_ac" d="M270.23 136.27c5.9-18.95 46.12-16.25 51.64-3.41-2.05-16.33-46.6-20.65-51.64 3.41" class="at" data-name="Path" fill="#148779"></path><path d="M298.84 190.19c0 20.07-44.49 40.73-67.7 20.37 52.03.95 67.7-20.37 67.7-20.37" fill="#e6a400"></path><path d="M261.14 202.26c-9.77-1.95-15.47 6.66-30 8.3 52.4 4.9 67.7-20.37 67.7-20.37-13.73 13.26-27.96 5.79-37.69 12.07Z" fill="#d99025"></path></g></svg>
