<svg xmlns="http://www.w3.org/2000/svg" data-name="Layer 1" style="" viewBox="0 0 512 593.91"><g><defs><linearGradient id="1770301554947-7726165_m" x1="-619.52" x2="-619.52" y1="412.72" y2="402.48" gradientTransform="matrix(6.57 0 0 6.57 4235.16 -2367.01)" gradientUnits="userSpaceOnUse"><stop offset="0" stop-color="#a6694a"></stop><stop offset="1" stop-color="#4f2a1e"></stop></linearGradient><linearGradient id="1770301554947-7726165_s" x1="-594.59" x2="-594.59" y1="412.72" y2="402.48" gradientTransform="matrix(6.57 0 0 6.57 4252.89 -2367.01)" gradientUnits="userSpaceOnUse"><stop offset="0" stop-color="#a6694a"></stop><stop offset="1" stop-color="#4f2a1e"></stop></linearGradient><linearGradient id="1770301554947-7726165_x" x1="256.01" x2="256.01" y1="247.78" y2="536.36" gradientTransform="matrix(1 0 0 -1 0 595.91)" gradientUnits="userSpaceOnUse"><stop offset=".5" stop-color="#473834"></stop><stop offset=".64" stop-color="#503f3a"></stop><stop offset=".86" stop-color="#68524a"></stop><stop offset="1" stop-color="#7a6056"></stop></linearGradient></defs><path id="1770301554947-7726165_b" d="M477.53 261.76c-34.3 4.16-59.06 119-37.5 149.3 3.02 4.24 20.69 11 33.8-15.76 7.26-14.8 28.2-27.16 34.68-57.72 8.31-39.14 3.13-79.96-30.99-75.81Z" class="ab" data-name="Path" fill="#ffc940"></path><path id="1770301554947-7726165_c" d="M34.48 261.76c34.3 4.16 59.06 119 37.48 149.3-3.02 4.24-20.69 11-33.8-15.76-7.26-14.8-28.2-27.16-34.68-57.72-8.31-39.14-3.11-79.96 31.01-75.81Z" class="ab" data-name="Path" fill="#ffc940"></path><path id="1770301554947-7726165_d" d="M476.59 283.77c-8.94 2.82-18.7 16.46-24 39.1 31.28-6.72 23.46 45.38-3.72 46.36.24 5.24.6 10.64 1.24 16.3 13.1-19.02 26.4-11.38 39.58-39.68 11.88-25.52 9.06-69.04-13.1-62.07Z" class="ah" data-name="Path" fill="#f0a429"></path><path id="1770301554947-7726165_e" d="M59.41 322.81c-5.3-22.6-15.04-36.24-23.98-39.04-22.16-6.96-25 36.56-13.12 62.08 13.18 28.3 26.48 20.66 39.6 39.68.65-5.68 1-11.08 1.22-16.32-26.9-1.27-34.6-52.73-3.72-46.4" class="ah" data-name="Path" fill="#f0a429"></path><path id="1770301554947-7726165_f" d="M256 40.96c-148.58 0-220.17 112.42-211.21 268.73 1.8 31.44 21.3 134.02 39.7 170.82 18.86 37.66 81.84 95.7 120.44 107.72 24.4 7.58 77.78 7.58 102.16 0 38.6-12.02 101.62-70.06 120.44-107.72 18.44-36.8 37.92-139.35 39.7-170.82C476.2 153.38 404.62 40.96 256 40.96" class="ab" data-name="Path" fill="#ffc940"></path><path id="1770301554947-7726165_g" d="M417.44 250.29c-33.98-18-99.02-18.88-123.24-6.34-5.2 2.42-1.76 19.48 2.6 17.86 33.76-13.36 88.22-13.66 119.82 1.14 4.22 1.93 5.98-10.15.82-12.66" class="ag" data-name="Path" fill="#966f42"></path><path id="1770301554947-7726165_h" d="M94.56 250.29c33.98-18 98.98-18.88 123.24-6.34 5.18 2.42 1.76 19.48-2.6 17.86-33.82-13.36-88.19-13.66-119.84 1.14-4.2 1.93-5.94-10.15-.8-12.66" class="ag" data-name="Path" fill="#966f42"></path><path id="1770301554947-7726165_i" d="M296.1 406.39c-4.24-2.96-14.2 1.6-40.1 1.6s-35.84-4.56-40.1-1.6c-5.08 3.58 3.02 19.74 40.1 19.74 37.1-.01 45.2-16.17 40.1-19.74" class="ah" data-name="Path" fill="#f0a429"></path><path id="1770301554947-7726165_j" d="M256 467.63c-33.42-9.82-82.94 4.66-82.94 4.66 18.86 20.56 32.67 47.19 82.94 47.19 57.58 0 67.38-30.26 82.96-47.19 0 0-49.56-14.54-82.96-4.66" class="ah" data-name="Path" fill="#f0a429"></path><path id="1770301554947-7726165_k" d="M185.5 475.77c35.04 29.4 105.78 29.6 141.01 0-37.33 1.6-103.41 1.62-141.01 0" class="ae" data-name="Path" fill="#fff"></path><path id="1770301554947-7726165_l" d="M222.93 311.62c1.26 9.84-5.42 21.5-23.9 30.24-11.73 5.56-36.16 12.1-68.26-1.44-14.38-6.06-28.39-24.96-27.14-35.4 17.4-32.8 103.02-37.6 119.29 6.6Z" class="ae" data-name="Path" fill="#fff"></path><circle id="1770301554947-7726165_n" cx="164.84" cy="310.95" r="33.64" data-name="Oval" fill="url(#1770301554947-7726165_m)"></circle><path id="1770301554947-7726165_o" d="M148.04 310.34c0 23.27 33.64 23.27 33.64 0 0-21.61-33.64-21.61-33.64 0" class="ac" data-name="Path" fill="#1a1626"></path><path id="1770301554947-7726165_p" d="M142.92 300.91c0 9.76 14.1 9.76 14.1 0 0-9.04-14.1-9.04-14.1 0" class="af" data-name="Path" fill="#ab968c"></path><path id="1770301554947-7726165_q" d="M223.1 312.92c-13.66-43.9-106.78-37.42-119.46-7.89 4.7-37.81 107.81-47.79 119.46 7.89" class="ah" data-name="Path" fill="#f0a429"></path><path id="1770301554947-7726165_r" d="M289.06 311.62c-1.26 9.84 5.42 21.5 23.9 30.24 11.73 5.56 36.16 12.1 68.26-1.44 14.4-6.06 28.39-24.96 27.14-35.4-17.38-32.8-103.02-37.6-119.29 6.6Z" class="ae" data-name="Path" fill="#fff"></path><circle id="1770301554947-7726165_t" cx="346.39" cy="310.95" r="33.64" data-name="Oval" fill="url(#1770301554947-7726165_s)"></circle><path id="1770301554947-7726165_u" d="M329.6 310.34c0 23.27 33.64 23.27 33.64 0 0-21.61-33.64-21.61-33.64 0" class="ac" data-name="Path" fill="#1a1626"></path><path id="1770301554947-7726165_v" d="M324.48 300.91c0 9.76 14.1 9.76 14.1 0-.01-9.04-14.1-9.04-14.1 0" class="af" data-name="Path" fill="#ab968c"></path><path id="1770301554947-7726165_w" d="M288.92 312.92c13.64-43.88 106.7-37.6 119.44-7.89-4.72-37.81-107.81-47.79-119.44 7.89" class="ah" data-name="Path" fill="#f0a429"></path><path d="M445.77 78.2C413.25 34.18 353.74 0 256 0S98.77 34.18 66.25 78.2c-46.04 62.32 425.56 62.32 379.53 0Z" fill="#7a6056"></path><path d="M445.77 78.2c-32.52-44.02-92.03 3.72-189.77 3.72S98.77 34.18 66.25 78.2c-46.04 62.32-30.4 269.93-9.92 269.93 3.26 0 3.72-72.64 9.92-122.88 5.04-40.9 14.76-80.56 25.92-87.04 34.12-19.8 99.9 8.5 163.84 8.5s129.74-28.3 163.86-8.5c11.16 6.48 20.86 46.14 25.92 87.04 6.2 50.24 6.66 122.88 9.92 122.88 20.48 0 36.12-207.61-9.92-269.93Z" fill="url(#1770301554947-7726165_x)"></path></g></svg>
