<svg xmlns="http://www.w3.org/2000/svg" data-name="Layer 1" style="" viewBox="0 0 512 512.21"><g><defs><linearGradient id="1770301554949-3104423_b" x1="-14.92" x2="253.23" y1="1382.26" y2="1382.26" gradientTransform="rotate(-.07 -780738.486 -78030.875)" gradientUnits="userSpaceOnUse"><stop offset="0" stop-color="#c05cff"></stop><stop offset="1" stop-color="#5d1e96"></stop></linearGradient><linearGradient id="1770301554949-3104423_c" x1="-1370.78" x2="-1362.15" y1="1743.4" y2="1743.4" gradientTransform="rotate(-93.39 -9907.412 1707.319) scale(6.77)" gradientUnits="userSpaceOnUse"><stop offset="0" stop-color="#320061"></stop><stop offset=".29" stop-color="#621e97"></stop><stop offset=".62" stop-color="#943ecf"></stop><stop offset=".87" stop-color="#b352f2"></stop><stop offset="1" stop-color="#bf59ff"></stop></linearGradient><linearGradient id="1770301554949-3104423_d" x1="-1350.73" x2="-1342.3" y1="1744.75" y2="1744.75" gradientTransform="rotate(-93.39 -11586.68 2050.202) scale(7.95)" gradientUnits="userSpaceOnUse"><stop offset="0" stop-color="#5d1e96"></stop><stop offset="1" stop-color="#c05cff"></stop></linearGradient><linearGradient id="1770301554949-3104423_e" x1="-1341.22" x2="-1333.06" y1="1746.48" y2="1746.48" gradientTransform="rotate(-93.39 -12611.222 2259.203) scale(8.67)" gradientUnits="userSpaceOnUse"><stop offset="0" stop-color="#320061"></stop><stop offset=".29" stop-color="#621e97"></stop><stop offset=".62" stop-color="#943ecf"></stop><stop offset=".87" stop-color="#b352f2"></stop><stop offset="1" stop-color="#bf59ff"></stop></linearGradient><linearGradient id="1770301554949-3104423_f" x1="-1334.08" x2="-1325.79" y1="1748.34" y2="1748.34" gradientTransform="rotate(-93.39 -13490.676 2437.967) scale(9.28)" gradientUnits="userSpaceOnUse"><stop offset="0" stop-color="#5d1e96"></stop><stop offset="1" stop-color="#c05cff"></stop></linearGradient><linearGradient id="1770301554949-3104423_g" x1="-1328.05" x2="-1319.58" y1="1749.43" y2="1749.43" gradientTransform="rotate(-93.39 -14257.993 2593.6) scale(9.82)" gradientUnits="userSpaceOnUse"><stop offset="0" stop-color="#320061"></stop><stop offset=".29" stop-color="#621e97"></stop><stop offset=".62" stop-color="#943ecf"></stop><stop offset=".87" stop-color="#b352f2"></stop><stop offset="1" stop-color="#bf59ff"></stop></linearGradient><linearGradient id="1770301554949-3104423_h" x1="-1325.79" x2="-1317.23" y1="1751.08" y2="1751.08" gradientTransform="rotate(-93.39 -14585.503 2659.489) scale(10.05)" gradientUnits="userSpaceOnUse"><stop offset="0" stop-color="#5d1e96"></stop><stop offset="1" stop-color="#c05cff"></stop></linearGradient><linearGradient id="1770301554949-3104423_i" x1="-1316.16" x2="-1307.29" y1="1751.06" y2="1751.06" gradientTransform="rotate(-93.39 -16071.365 2962.144) scale(11.09)" gradientUnits="userSpaceOnUse"><stop offset="0" stop-color="#320061"></stop><stop offset=".29" stop-color="#621e97"></stop><stop offset=".62" stop-color="#943ecf"></stop><stop offset=".87" stop-color="#b352f2"></stop><stop offset="1" stop-color="#bf59ff"></stop></linearGradient><linearGradient id="1770301554949-3104423_j" x1="-1307.72" x2="-1298.69" y1="1750.87" y2="1750.87" gradientTransform="rotate(-93.39 -17600.92 3273.728) scale(12.16)" gradientUnits="userSpaceOnUse"><stop offset="0" stop-color="#5d1e96"></stop><stop offset="1" stop-color="#c05cff"></stop></linearGradient><linearGradient id="1770301554949-3104423_k" x1="-1302.75" x2="-1293.76" y1="1751.36" y2="1751.36" gradientTransform="rotate(-93.39 -18580.452 3472.503) scale(12.84)" gradientUnits="userSpaceOnUse"><stop offset="0" stop-color="#320061"></stop><stop offset=".29" stop-color="#621e97"></stop><stop offset=".62" stop-color="#943ecf"></stop><stop offset=".87" stop-color="#b352f2"></stop><stop offset="1" stop-color="#bf59ff"></stop></linearGradient><linearGradient id="1770301554949-3104423_l" x1="-1297.49" x2="-1288.32" y1="1751.14" y2="1751.14" gradientTransform="rotate(-93.39 -19723.966 3704.856) scale(13.64)" gradientUnits="userSpaceOnUse"><stop offset="0" stop-color="#5d1e96"></stop><stop offset="1" stop-color="#c05cff"></stop></linearGradient><linearGradient id="1770301554949-3104423_m" x1="-1292.61" x2="-1283.52" y1="1751.34" y2="1751.34" gradientTransform="rotate(-93.39 -20999.646 3964.076) scale(14.54)" gradientUnits="userSpaceOnUse"><stop offset="0" stop-color="#320061"></stop><stop offset=".29" stop-color="#621e97"></stop><stop offset=".62" stop-color="#943ecf"></stop><stop offset=".87" stop-color="#b352f2"></stop><stop offset="1" stop-color="#bf59ff"></stop></linearGradient><linearGradient id="1770301554949-3104423_n" x1="-1286.59" x2="-1277.66" y1="1751.01" y2="1751.01" gradientTransform="rotate(-93.39 -22742.885 4318.846) scale(15.76)" gradientUnits="userSpaceOnUse"><stop offset="0" stop-color="#5d1e96"></stop><stop offset="1" stop-color="#c05cff"></stop></linearGradient><linearGradient id="1770301554949-3104423_o" x1="-1289.82" x2="-1280.94" y1="1752.82" y2="1752.82" gradientTransform="rotate(-93.39 -21327.503 4027.763) scale(14.77)" gradientUnits="userSpaceOnUse"><stop offset="0" stop-color="#320061"></stop><stop offset=".29" stop-color="#621e97"></stop><stop offset=".62" stop-color="#943ecf"></stop><stop offset=".87" stop-color="#b352f2"></stop><stop offset="1" stop-color="#bf59ff"></stop></linearGradient><linearGradient id="1770301554949-3104423_p" x1="-1285.11" x2="-1276.48" y1="1752.54" y2="1752.54" gradientTransform="rotate(-93.39 -22689.082 4304.656) scale(15.72)" gradientUnits="userSpaceOnUse"><stop offset="0" stop-color="#5d1e96"></stop><stop offset="1" stop-color="#c05cff"></stop></linearGradient><linearGradient id="1770301554949-3104423_q" x1="-1292.94" x2="-1284.39" y1="1755.96" y2="1755.96" gradientTransform="rotate(-93.39 -19739.39 3699.35) scale(13.65)" gradientUnits="userSpaceOnUse"><stop offset="0" stop-color="#320061"></stop><stop offset=".29" stop-color="#621e97"></stop><stop offset=".62" stop-color="#943ecf"></stop><stop offset=".87" stop-color="#b352f2"></stop><stop offset="1" stop-color="#bf59ff"></stop></linearGradient><linearGradient id="1770301554949-3104423_r" x1="-1310.77" x2="-1302.24" y1="1762.74" y2="1762.74" gradientTransform="rotate(-93.39 -15404.223 2810.78) scale(10.62)" gradientUnits="userSpaceOnUse"><stop offset="0" stop-color="#320061"></stop><stop offset=".29" stop-color="#621e97"></stop><stop offset=".62" stop-color="#943ecf"></stop><stop offset=".87" stop-color="#b352f2"></stop><stop offset="1" stop-color="#bf59ff"></stop></linearGradient><linearGradient id="1770301554949-3104423_s" x1="-1257.78" x2="-1249.78" y1="1734.44" y2="1734.44" gradientTransform="scale(-27.32 27.32) rotate(-89.93 -1491.113 247.268)" gradientUnits="userSpaceOnUse"><stop offset="0" stop-color="#c05cff"></stop><stop offset=".1" stop-color="#c05cff"></stop><stop offset=".26" stop-color="#a74ce4"></stop><stop offset=".55" stop-color="#7f33ba"></stop><stop offset=".77" stop-color="#6624a0"></stop><stop offset=".9" stop-color="#5d1e96"></stop><stop offset="1" stop-color="#5d1e96"></stop></linearGradient><linearGradient id="1770301554949-3104423_u" x1="69.78" x2="69.78" y1="99.19" y2="254.93" gradientTransform="matrix(1 0 0 -1 0 514.2)" gradientUnits="userSpaceOnUse"><stop offset="0" stop-color="#b200cf"></stop><stop offset=".57" stop-color="#3e8bef"></stop><stop offset="1" stop-color="#ffa052"></stop></linearGradient><linearGradient id="1770301554949-3104423_v" x1="86.7" x2="86.7" y1="99.19" y2="228.52" gradientTransform="matrix(1 0 0 -1 0 514.2)" gradientUnits="userSpaceOnUse"><stop offset="0" stop-color="#b200cf"></stop><stop offset=".57" stop-color="#3e8bef"></stop><stop offset="1" stop-color="#ffa052"></stop></linearGradient><linearGradient id="1770301554949-3104423_w" x1="137.93" x2="137.93" y1="101.19" y2="245.16" gradientTransform="matrix(1 0 0 -1 0 514.2)" gradientUnits="userSpaceOnUse"><stop offset="0" stop-color="#b200cf"></stop><stop offset=".57" stop-color="#3e8bef"></stop><stop offset="1" stop-color="#ffa052"></stop></linearGradient><linearGradient id="1770301554949-3104423_x" x1="122.71" x2="122.71" y1="97.51" y2="218.27" gradientTransform="matrix(1 0 0 -1 0 514.2)" gradientUnits="userSpaceOnUse"><stop offset="0" stop-color="#b200cf"></stop><stop offset=".57" stop-color="#3e8bef"></stop><stop offset="1" stop-color="#ffa052"></stop></linearGradient><linearGradient id="1770301554949-3104423_y" x1="81.44" x2="324.63" y1="1187.06" y2="1187.06" gradientTransform="rotate(-.07 -780738.486 -78030.875)" gradientUnits="userSpaceOnUse"><stop offset="0" stop-color="#b721cf"></stop><stop offset="1" stop-color="#ffabf7"></stop></linearGradient><linearGradient id="1770301554949-3104423_z" x1="69.45" x2="223.82" y1="1041.98" y2="1041.98" gradientTransform="rotate(-.07 -780738.486 -78030.875)" gradientUnits="userSpaceOnUse"><stop offset="0" stop-color="#b721cf"></stop><stop offset="1" stop-color="#ffabf7"></stop></linearGradient><linearGradient id="1770301554949-3104423_aa" x1="89.58" x2="398.64" y1="1086.26" y2="1086.26" gradientTransform="rotate(-.07 -780738.486 -78030.875)" gradientUnits="userSpaceOnUse"><stop offset="0" stop-color="#b721cf"></stop><stop offset="1" stop-color="#ffabf7"></stop></linearGradient><linearGradient id="1770301554949-3104423_ab" x1="149.53" x2="362.64" y1="1091.34" y2="1091.34" gradientTransform="rotate(-.07 -780738.486 -78030.875)" gradientUnits="userSpaceOnUse"><stop offset="0" stop-color="#b721cf"></stop><stop offset="1" stop-color="#ffabf7"></stop></linearGradient><linearGradient id="1770301554949-3104423_ac" x1="455.42" x2="518.46" y1="241.65" y2="236.17" gradientTransform="matrix(1 0 0 -1 0 514.2)" gradientUnits="userSpaceOnUse"><stop offset="0" stop-color="#f0a429"></stop><stop offset=".08" stop-color="#f4af30"></stop><stop offset=".23" stop-color="#fabe39"></stop><stop offset=".41" stop-color="#fec63e"></stop><stop offset=".69" stop-color="#ffc940"></stop><stop offset=".73" stop-color="#ffc940"></stop><stop offset="1" stop-color="#ffc940"></stop></linearGradient><linearGradient id="1770301554949-3104423_ad" x1="408.8" x2="408.8" y1="349.2" y2="373.61" gradientTransform="matrix(1 0 0 -1 0 514.2)" gradientUnits="userSpaceOnUse"><stop offset="0" stop-color="#ffc940"></stop><stop offset=".32" stop-color="#fdc33c"></stop><stop offset=".73" stop-color="#f6b332"></stop><stop offset="1" stop-color="#f0a429"></stop></linearGradient><linearGradient id="1770301554949-3104423_af" x1="-585.97" x2="-585.97" y1="339.88" y2="337.26" gradientTransform="matrix(6.57 0 0 6.57 4235.09 -2139.43)" gradientUnits="userSpaceOnUse"><stop offset="0" stop-color="#a6694a"></stop><stop offset="1" stop-color="#4f2a1e"></stop></linearGradient><linearGradient id="1770301554949-3104423_al" x1="-581.52" x2="-581.52" y1="339.88" y2="337.26" gradientTransform="matrix(6.57 0 0 6.57 4252.82 -2139.43)" gradientUnits="userSpaceOnUse"><stop offset="0" stop-color="#a6694a"></stop><stop offset="1" stop-color="#4f2a1e"></stop></linearGradient><linearGradient id="1770301554949-3104423_aq" x1="484.53" x2="458.2" y1="368.39" y2="485.08" gradientTransform="matrix(1 0 0 -1 0 514.2)" gradientUnits="userSpaceOnUse"><stop offset="0" stop-color="#b721cf"></stop><stop offset=".05" stop-color="#c032d4"></stop><stop offset=".18" stop-color="#d357df"></stop><stop offset=".32" stop-color="#e375e7"></stop><stop offset=".47" stop-color="#ef8dee"></stop><stop offset=".62" stop-color="#f89ef3"></stop><stop offset=".79" stop-color="#fda8f6"></stop><stop offset="1" stop-color="#ffabf7"></stop></linearGradient><linearGradient id="1770301554949-3104423_ar" x1="234.72" x2="357.03" y1="1015.9" y2="1015.9" gradientTransform="rotate(-.07 -780738.486 -78030.875)" gradientUnits="userSpaceOnUse"><stop offset="0" stop-color="#b721cf"></stop><stop offset="1" stop-color="#ffabf7"></stop></linearGradient><linearGradient id="1770301554949-3104423_as" x1="173.72" x2="357.03" y1="1022.86" y2="1022.86" gradientTransform="rotate(-.07 -780738.486 -78030.875)" gradientUnits="userSpaceOnUse"><stop offset="0" stop-color="#b721cf"></stop><stop offset="1" stop-color="#ffabf7"></stop></linearGradient><radialGradient id="1770301554949-3104423_t" cx="-1254.42" cy="1728.56" r="7.16" fx="-1254.42" fy="1728.56" gradientTransform="matrix(-.0297 -24.30998 -17.59999 .0215 30497.13 -30284.39)" gradientUnits="userSpaceOnUse"><stop offset=".37" stop-color="#ffbd87"></stop><stop offset=".69" stop-color="#69a3ef"></stop><stop offset="1" stop-color="#b721cf"></stop></radialGradient></defs><path d="M116.77 450.86c12.56 7.12 24.25 4.4 10.8-21.85 0 0-3.36-6.32-2.64-17.21 1.52-24.01-52.82 4.96-41.86 8.8 22.09 7.68 23.93 18.49 33.69 30.25Z" fill="url(#1770301554949-3104423_b)"></path><path d="M127.57 429.09c-6.96 5.84-3.6 15.69 1.04 22.89-4-1.6-7.84-2.32-11.84-1.04 7.44 9.36 16.17 19.61 29.85 29.13l3.6-36.25c-10.24-2.72-18.41-7.6-22.65-14.73" fill="url(#1770301554949-3104423_c)"></path><path d="M145.26 442.3s-.48 5.44 2.8 9.04c-12.96 1.04-14.57 12.48-2.88 19.13-5.68-.08-6.4 3.6-6.4 3.6 8.64 7.2 19.61 14.17 34.17 20.41l-.4-48.42c-10.08.24-19.53-1.04-27.29-3.76" fill="url(#1770301554949-3104423_d)"></path><path d="M159.58 445.5c-4 4.56-1.52 12.48 5.44 16.33-14.81 4.08-6.56 19.93 5.2 23.61-4.32 2-4.64 5.68-4.64 5.68 10.64 5.12 23.37 9.76 38.97 13.69 0 0 .8-43.38-24.81-59.3-6.96.72-13.85.72-20.17 0Z" fill="url(#1770301554949-3104423_e)"></path><path d="M175.91 445.82s.72 7.44 9.68 10.8c-12.72 1.6-8.72 16.97 3.92 20.17-10.64 7.76-2.4 18.17 6.56 19.21-2.48 2.96-.64 6.24-.64 6.24 10 2.88 21.21 5.52 34.01 7.68 2.4.4 4.72.64 7.04.96l-32.65-70.83c-9.2 3.2-18.81 5.12-27.93 5.76Z" fill="url(#1770301554949-3104423_f)"></path><path d="M194.08 442.94c2.08 2.88 4.48 5.28 7.68 7.04-11.84 10.4 1.04 20.65 11.84 24.01-15.61 7.04-9.6 17.05 3.84 21.05-6.96 4.08-3.92 11.76-3.92 11.76 5.12 1.12 10.4 2.16 16.01 3.12 5.68.96 11.36 1.52 16.89 1.92 26.09-10.8-2.08-74.35-28.89-77.55-7.52 3.84-15.53 6.72-23.45 8.64Z" fill="url(#1770301554949-3104423_g)"></path><path d="M209.52 437.98c-1.92 11.6 9.28 18.49 19.45 20.97-17.05 8.4-3.12 18.73 9.2 21.69-14.89 11.68 3.36 18.65 14.65 20.09-5.12 2.4-9.36 5.44-9.92 10.88 14.73 1.28 28.97.48 42.74-2-13.12-69.55-64.1-77.39-64.1-77.39q-5.88 3.24-12 5.76Z" fill="url(#1770301554949-3104423_h)"></path><path d="M219.61 433.17c3.68 7.12 9.52 11.52 17.29 14.01-7.28 11.84 9.84 18.57 18.89 20.25-13.85 12.16 3.28 19.53 15.13 20.57-9.04 8.48-6.88 16.73 5.04 20.25-.88.96-1.6 1.92-2.24 2.96 12-1.28 23.69-3.84 34.81-7.6-6.88-55.06-69.71-84.11-69.71-84.11-5.84 5.44-12.32 10-19.21 13.69Z" fill="url(#1770301554949-3104423_i)"></path><path d="M243.14 415.09c-3.2 3.52-6.72 6.72-10.48 9.6 2.64 2.16 5.44 3.76 8.88 4.48-7.28 12.72 4.88 18.97 16.49 17.93-8.24 17.61 13.44 22.49 26.65 20.65-12.32 12.88-5.12 24.73 12.24 22.25-3.28 5.68-6.72 12-4.48 18.17 11.36-2.56 22.33-6.32 32.73-11.04-6.56-67.63-74.03-91.95-74.03-91.95-2.4 3.36-5.04 6.72-8 9.92Z" fill="url(#1770301554949-3104423_j)"></path><path d="M244.82 413.17c.48 9.28 6.08 12.4 16.41 12-4.16 16.65 8.72 24.17 23.85 20.41-5.76 14.25 4.48 23.29 18.65 22.09-1.36 11.44 1.36 21.77 14.65 19.53-2.56 4.56-3.92 9.36-4.08 14.49 11.76-4.4 22.89-10.08 33.29-16.81-17.93-76.99-87.63-92.75-87.63-92.75-4.48 7.28-9.28 14.41-15.13 21.05Z" fill="url(#1770301554949-3104423_k)"></path><path d="M253.14 402.52c4.8 3.6 9.92 4.48 14.97 0-6.32 16.97 4.4 29.21 21.93 23.05-1.68 14.73 5.6 22.01 19.85 16.57-3.2 15.29 2.48 27.61 19.37 22.49-3.44 10.8-3.36 21.13 7.04 26.89 6.72-3.68 13.2-7.68 19.37-12.08 11.2-56.66-48.1-112.04-85.79-103.88-5.36 9.04-10.56 18.25-16.73 26.97Z" fill="url(#1770301554949-3104423_l)"></path><path d="M264.74 384.28c3.68 10.24 11.28 18.49 22.49 10.72-.16 19.53 11.52 28.89 27.85 15.61-3.68 18.97 6.16 34.97 24.65 20.97-4.32 10.88-5.76 35.61 12.32 31.61-2.4 6.56-3.68 13.36-2 20.09 10.24-6.8 19.77-14.57 28.41-23.05 6.96-41.7-39.77-106.6-98.68-100.6-5.44 8-10.16 16.33-15.05 24.65Z" fill="url(#1770301554949-3104423_m)"></path><path d="M275.95 365.39c3.84-.72 7.44-2.24 10.96-4.48-14.73 21.77 11.68 28.65 27.85 19.29-7.2 21.61 9.76 31.21 28.33 22.09-6 11.04-6.16 32.33 11.44 30.09-3.12 13.2 1.36 30.33 17.93 24.17-2.56 4.4-4 8.64-4.56 13.36 9.52-8 18.17-16.97 25.85-26.41-12.16-62.1-42.74-99.08-96.92-104.28-8.48 8-15.05 16.97-20.89 26.17Z" fill="url(#1770301554949-3104423_n)"></path><path d="M289.79 346.5c-1.6 13.04 15.29 15.37 26.17 10.4-8.56 20.33 14.97 23.85 29.85 20.33-5.12 13.36.88 27.61 16.73 25.61-4.4 12.64-.88 27.45 15.13 22.57-5.28 10.8-5.04 23.85 6.72 28.73 9.2-9.84 17.29-20.41 24.09-31.61-6-60.42-52.42-100.04-104.6-89.55-5.28 4.24-9.92 8.72-14.09 13.53Z" fill="url(#1770301554949-3104423_o)"></path><path d="M301.08 335.3c5.28 2.08 10.4 1.28 16.01-1.6-5.68 20.17 14.97 24.01 30.41 20.97-2.88 16.09 10.72 25.05 25.53 22.89-6.32 11.68-3.76 25.37 12 22.41-6 13.28-2.56 29.61 15.05 24.57-2.24 4.88-3.36 9.36-2.72 14.25 8-10.48 14.81-21.53 20.33-32.97.96-40.41-29.61-84.99-86.11-88.43-12.48 4.88-22.33 11.04-30.49 17.93Z" fill="url(#1770301554949-3104423_p)"></path><path d="M357.1 309.85c-15.53 3.28-28.01 7.84-38.41 13.44 4.4 8.56 17.53 9.36 27.37 6.48-4.96 20.09 17.93 29.05 30.65 22.17-6.48 14.49 2.48 28.65 20.01 21.29-6.48 14.09-2.32 28.97 14.81 19.05-2.72 7.84-3.44 15.69 1.84 21.85 7.52-13.85 13.2-28.25 16.65-42.66-.08.08-9.36-45.38-72.91-61.62Z" fill="url(#1770301554949-3104423_q)"></path><path d="M372.46 326.17c-.4 16.33 14.89 36.33 30.73 22.01-5.44 15.21-3.36 35.21 16.01 20.25-3.6 8.88-4.72 18.17 5.6 20.49 4.64-12.8 7.6-25.77 8.64-38.57 2.72-32.49-42.02-45.06-42.02-45.06-18.17 1.2-33.29 3.76-46.1 7.44-.8 14.41 11.12 23.29 27.13 13.44Z" fill="url(#1770301554949-3104423_r)"></path><path d="M105.96 336.02c2.24 32.97-17.85 48.82-.64 80.67-9.6-36.65 12.8-49.62.64-80.67" fill="#b721cf"></path><path d="M18.33 217.17c-58.26 179.67 35.29 191.51 100.12 215.92 2.4.88 4.88-.96 4.56-3.44-7.04-68.27 136.29-54.1 62.42-193.43-1.52-2.8-5.76-2.4-6.48.72-8.32 37.45-47.38 48.02-71.31 102.92-1.36 3.2-5.92 2.64-6.56-.8-10.88-63.22-63.46-66.5-76.27-121.57-.64-3.44-5.44-3.6-6.48-.32" fill="url(#1770301554949-3104423_s)"></path><path d="M26.17 222.06c-47.14 147.01 11.68 169.74 74.19 193.75 4.56 1.76 9.68-.24 11.76-4.64 30.17-62.42 127.33-53.22 66.9-174.3-4.08 12.64-17.13 18.17-20.97 32.17-7.84 8.16-20.81 11.36-25.13 24.65-9.44 9.84-18.33 20.81-24.41 34.97-1.28 2.96-5.44 2.64-6.24-.48-4.88-18.89-13.04-31.93-22.33-42.58-4.96-12.24-18.41-17.77-27.53-26.41-3.68-12.96-19.93-20.81-26.25-37.13Z" fill="url(#1770301554949-3104423_t)"></path><path d="M52.58 259.27c-33.37 49.78-14.89 130.21 50.66 155.74-40.58-35.29-78.99-83.71-50.66-155.74" fill="url(#1770301554949-3104423_u)"></path><path d="M80.03 285.68c-16.33 41.78-20.81 94.44 24.81 129.33-20.49-34.97-35.21-57.06-24.81-129.33" fill="url(#1770301554949-3104423_v)"></path><path d="M158.14 269.03c35.53 69.47-43.86 107.32-49.38 143.97-4.32-34.81 76.03-82.59 49.38-143.97" fill="url(#1770301554949-3104423_w)"></path><path d="M133.01 295.92c24.57 67.14-24.41 71.07-26.41 120.76-8.56-48.98 36.81-48.42 26.41-120.76" fill="url(#1770301554949-3104423_x)"></path><path d="M420.96 259.43c-82.75-26.49-115.32 17.21-243.29-73.31 94.68 119.72 157.9 100.28 243.29 73.31" fill="url(#1770301554949-3104423_y)"></path><path d="M319.88 52.95c-53.22 18.97-48.98 58.42-154.3 58.42 102.6 31.29 124.77-6.72 154.3-58.42" fill="url(#1770301554949-3104423_z)"></path><path d="M488.19 61.76c-7.76-27.21-28.65-44.26-35.13-40.98 4.24-6.56-31.61-26.01-67.87-19.45-101.16 18.33-88.35 112.04-199.43 140.93 122.05 233.85 350.69 87.95 302.43-80.51Z" fill="url(#1770301554949-3104423_aa)"></path><path d="M458.74 79.2c-74.83 37.77-63.62 87.79-212.96 112.2 146.45 18.09 172.78-36.01 212.96-112.2" fill="url(#1770301554949-3104423_ab)"></path><path d="M471.94 199.17c10 36.41 10.08 56.58 8.24 64.74 9.12 19.13 3.04 38.01 6.08 55.06.56 3.28 2.4-3.28 2.4-7.6 0-3.92 3.04-3.28 3.68-.72.64 2.32-.08 7.2-.08 7.2s2.8-6 2.4-12.24c-.24-3.84 3.92-2.32 4.4 1.04.8 5.92-1.04 12.56-1.04 12.56s3.52-4.56 4.8-13.2c.32-2.32 3.68-1.44 3.92 1.6.96 11.92-7.84 20.81-5.52 26.73 2.08 5.28 6.08 7.28 9.76 12.72 2.48 3.68-.08 6.4-2.8 4.32-14.17-10.56-12.72-1.44-22.97-8.56-7.6.48-10.32-7.2-8.56-13.61-2.64-12.4-38.65-70.03-4.72-130.05Z" fill="url(#1770301554949-3104423_ac)"></path><path d="M454.73 166.67c-6.24-.48-30.17-15.85-87.47-7.28-29.13-1.84-37.85 20.09-39.61 27.85-18.81 24.33-32.81 54.34-41.06 58.34-34.49 16.73-52.02 71.31-61.86 76.43-8.4.48-22.65 2.24-32.81-5.2-.8-.64-3.68 1.04-1.52 3.44 1.84 2 6.48 3.76 6.48 3.76s-8.4-1.84-13.2-5.28c-1.28-.88-3.6 1.68-1.68 3.76 2.8 3.04 11.52 5.12 11.52 5.12s-11.36-1.84-17.05-3.76c-1.52-.48-3.76 2.08-.8 4.32 3.28 2.56 15.69 4.8 15.69 4.8s-11.2-1.12-18.49-2.16c-1.44-.24-2.32 2.64-.64 3.92 13.28 10.24 44.98 3.76 43.22 12.48-1.84 9.2-6.32 10.88-6.72 17.85-.16 2.16 3.92 3.44 5.04 1.76 10-15.29 24.81-16.01 26.49-32.01 1.84-17.05 57.14-44.98 69.07-68.11 21.85-14.81 42.1-40.41 50.74-53.54 19.05 58.18 55.86 68.11 23.05 98.76-35.21 32.81 31.53 77.07 50.34 40.74 20.33-39.37 32.73-28.65 32.57-74.51-.08-19.21 11.92-35.21 5.12-54.1 28.57-20.09 15.53-54.98-16.41-57.38Z" class="cd" fill="#ffc940"></path><path d="M445.93 164.99s-13.61-2.8-16.01-6.4c-2.56-3.76 0-18.01 0-18.01h-42.26s2.56 14.25 0 18.01c-2.4 3.6-16.01 6.4-16.01 6.4h74.27Z" fill="url(#1770301554949-3104423_ad)"></path><path d="M447.05 310.81c-7.6 11.2-2.24 13.12-5.2 16.57-2.96 3.52-8.8-8.32 5.2-16.57" class="cl" fill="#f0a429"></path><path d="M480.5 222.14c4.08 0 6.56-3.52 6-6.56 3.2-1.44 4.16-6.56 3.04-8.72 2.56-2.32 2.72-9.12.32-11.6 1.2-2.08.56-7.28-2.64-8.88.8-3.04-1.52-6.72-5.6-6.88-12.32-12-32.89 15.69-33.05 20.57-.16 4.8 18.97 33.45 31.93 22.09Z" class="cg" fill="#8e3ed6"></path><path d="M449.77 199.25c13.28-20.57 30.89-20.81 31.77-19.77 1.12 1.2-15.53-1.04-31.77 19.77" class="cb" fill="#732eb0"></path><path d="M449.77 199.25c17.21-13.85 37.05-14.25 37.45-12.88.32 1.28-16.49-1.2-37.45 12.88m0 0c21.45-5.12 40.09-5.44 40.01-4.08s-15.77-.64-40.01 4.08m-.08 1.68c12.16 21.13 29.77 22.17 30.73 21.21 1.12-1.12-15.61.32-30.73-21.21" class="cb" fill="#732eb0"></path><path d="M449.69 200.93c16.49 14.65 36.25 16.01 36.73 14.65.4-1.28-16.41.32-36.73-14.65m0 0c21.13 6.08 39.69 7.28 39.77 5.84.08-1.28-15.77 0-39.77-5.84" class="cb" fill="#732eb0"></path><path d="M384.47 181.96c-7.84 1.52-10.32 7.68-7.44 11.84-5.28 3.36-4 11.2-.56 13.77-3.36 4.48.16 14.01 6.08 16.33-1.12 3.44 3.04 10.16 9.52 10.72.32 4.32 6.08 8 13.28 6.24 25.61 9.04 45.7-34.09 43.94-40.33-1.92-6.4-47.46-39.85-64.82-18.57" class="cg" fill="#8e3ed6"></path><path d="M447.69 201.97c-11.84 31.37-40.33 39.77-42.42 38.81-2.4-.96 26.01-5.76 42.42-38.81" class="cb" fill="#732eb0"></path><path d="M447.69 201.97c-21.13 24.65-54.26 34.25-55.62 32.65s28.41-6 55.62-32.65m0 0c-32.09 15.21-64.42 23.85-65.14 21.93-.72-1.84 28.01-6 65.14-21.93m-.64-2.16c-29.37-24.33-61.3-19.69-62.5-17.93-1.44 2.08 27.85-5.92 62.5 17.93" class="cb" fill="#732eb0"></path><path d="M447.05 199.81c-33.53-13.69-69.87-8.16-69.95-6-.08 2 29.61-6.8 69.95 6" class="cb" fill="#732eb0"></path><path d="M447.05 199.81c-37.21-.08-71.31 5.76-70.59 7.76s28.49-6.4 70.59-7.76" class="cb" fill="#732eb0"></path><path d="M437.85 38.87c-20.65 18.09-50.34 21.69-76.67 36.73-5.84 9.44-3.2 31.13-1.44 37.37 5.76 20.57 36.09 41.38 49.06 41.38s43.3-20.73 49.06-41.38c1.76-6.32 3.2-13.2 4.24-19.45-1.92-23.29-24.33-36.81-24.25-54.66Z" class="cd" fill="#ffc940"></path><path d="M408.8 121.94c-8.96-3.92-9.04-.16-22.97.8 5.2 5.84 9.04 13.44 22.89 13.44 15.93 0 18.65-8.56 22.97-13.44-13.85-.88-13.93-4.72-22.89-.8" fill="#d47706"></path><path d="M389.99 124.18c9.04 9.36 28.65 9.2 37.53 0-13.93 1.52-23.53 1.52-37.53 0" class="cf" fill="#fff"></path><path d="M449.53 70.24c-8.32-4.96-23.29-5.52-29.21-2.16-1.28.72-.96 4.24.16 3.84 8.48-3.52 21.29-3.68 29.21.4 1.12.48 1.12-1.36-.16-2.08m-81.55 0c8.32-4.96 23.29-5.52 29.21-2.16 1.28.72.88 4.24-.16 3.84-8.48-3.52-21.29-3.68-29.21.4-1.04.48-1.04-1.36.16-2.08" fill="#966f42"></path><path d="M417.44 109.29c-.88-.64-3.04.4-8.64.4s-7.68-.96-8.64-.4c-1.12.8.64 4.24 8.64 4.24s9.68-3.44 8.64-4.24" class="cl" fill="#f0a429"></path><path id="1770301554949-3104423_ae" d="M400.23 85.2c.32 2.48-1.44 5.52-6.16 7.76-3.04 1.44-9.36 3.12-17.61-.4-3.68-1.52-7.36-6.4-7.04-9.04 4.48-8.4 26.65-9.6 30.81 1.68" class="cf" data-name="Path" fill="#fff"></path><path id="1770301554949-3104423_ag" d="M385.27 76.4c4.8 0 8.64 3.84 8.64 8.56s-3.84 8.64-8.64 8.64-8.72-3.84-8.72-8.64 3.92-8.56 8.72-8.56" data-name="Oval" fill="url(#1770301554949-3104423_af)"></path><path id="1770301554949-3104423_ah" d="M380.95 84.88c0 5.92 8.72 5.92 8.72 0-.08-5.52-8.72-5.52-8.72 0" class="ce" data-name="Path" fill="#1a1626"></path><path id="1770301554949-3104423_ai" d="M379.59 82.48c0 2.48 3.6 2.48 3.6 0 .08-2.32-3.6-2.32-3.6 0" class="ci" data-name="Path" fill="#ab968c"></path><path id="1770301554949-3104423_aj" d="M400.31 85.52c-3.52-11.28-27.53-9.6-30.81-2 1.2-9.68 27.77-12.24 30.81 2" class="cj" data-name="Path" fill="#45332c"></path><path id="1770301554949-3104423_ak" d="M417.36 85.2c-.32 2.48 1.44 5.52 6.16 7.76 3.04 1.44 9.36 3.12 17.61-.4 3.68-1.52 7.28-6.4 7.04-9.04-4.48-8.4-26.65-9.6-30.81 1.68" class="cf" data-name="Path" fill="#fff"></path><path id="1770301554949-3104423_am" d="M432.17 76.4c4.8 0 8.72 3.84 8.72 8.56s-3.92 8.64-8.72 8.64-8.72-3.84-8.72-8.64 3.92-8.56 8.72-8.56" data-name="Oval" fill="url(#1770301554949-3104423_al)"></path><path id="1770301554949-3104423_an" d="M427.76 84.88c0 5.92 8.64 5.92 8.64 0 .08-5.52-8.64-5.52-8.64 0" class="ce" data-name="Path" fill="#1a1626"></path><path id="1770301554949-3104423_ao" d="M426.48 82.48c0 2.48 3.68 2.48 3.68 0-.08-2.32-3.68-2.32-3.68 0" class="ci" data-name="Path" fill="#ab968c"></path><path id="1770301554949-3104423_ap" d="M417.28 85.52c3.52-11.28 27.53-9.68 30.81-2-1.2-9.68-27.77-12.24-30.81 2" class="cj" data-name="Path" fill="#45332c"></path><path d="M444.73 28.54c-6.48 10.24 42.34 24.17 33.45 120.28 25.69-83.55-19.53-124.21-33.45-120.28" fill="url(#1770301554949-3104423_aq)"></path><path d="M330.85 102.41c25.29-33.53 108.12-30.73 122.21-81.63-29.77 46.42-112.84 37.45-122.21 81.63" fill="url(#1770301554949-3104423_ar)"></path><path d="M453.05 20.78c-52.98 29.53-131.73-7.44-183.19 95.64 85.95-80.91 154.94-43.38 183.19-95.64" fill="url(#1770301554949-3104423_as)"></path></g></svg>
