<svg xmlns="http://www.w3.org/2000/svg" data-name="Layer 1" style="" viewBox="0 0 512 512"><g><defs><linearGradient id="1770301554961-1830914_b" x1="62" x2="62" y1="1366" y2="922.27" gradientTransform="translate(194 -854)" gradientUnits="userSpaceOnUse"><stop offset="0" stop-color="#6eb9ff"></stop><stop offset="1" stop-color="#a8dbff"></stop></linearGradient><linearGradient id="1770301554961-1830914_c" x1="61.99" x2="61.99" y1="1366" y2="1055.38" gradientTransform="translate(194 -854)" gradientUnits="userSpaceOnUse"><stop offset=".21" stop-color="#ff3030"></stop><stop offset=".5" stop-color="#fd2f2f"></stop><stop offset=".64" stop-color="#f52b2b"></stop><stop offset=".75" stop-color="#e82525"></stop><stop offset=".84" stop-color="#d61c1c"></stop><stop offset=".92" stop-color="#be1010"></stop><stop offset=".99" stop-color="#a10101"></stop><stop offset="1" stop-color="#9e0000"></stop></linearGradient><radialGradient id="1770301554961-1830914_d" cx="691.04" cy="1028.81" r="64.89" fx="691.04" fy="1028.81" gradientTransform="matrix(.67 0 0 1 -204.72 -854)" gradientUnits="userSpaceOnUse"><stop offset=".25" stop-color="#ff3030"></stop><stop offset="1" stop-color="#bd0000"></stop></radialGradient></defs><path d="M492.57 512H19.41c-25.87.42-25.87-444.16 0-443.74h473.18c25.89-.42 25.89 444.16-.02 443.74" fill="url(#1770301554961-1830914_b)"></path><path d="M96.33 512H83.6a3793 3793 0 0 1 0-443.74h12.73a4131 4131 0 0 0 0 443.74m50.92 0h-12.73a5680 5680 0 0 1 0-443.74h12.73a6488 6488 0 0 0 0 443.74m50.93 0h-12.73c-2.63-134.14-2.86-268.85-.71-403.09h12.91c-1.62 134.24-1.44 268.95.53 403.09M45.4 512H32.68a3788 3788 0 0 1 0-443.74H45.4a4136 4136 0 0 0 0 443.74m370.27 0h12.73a3793 3793 0 0 0 0-443.74h-12.73c7.95 147.69 7.95 296.05 0 443.74m-50.93 0h12.73c5.78-147.69 5.78-296.05 0-443.74h-12.73c5.06 147.69 5.06 296.05 0 443.74m-50.92 0h12.73c2.63-134.14 2.86-268.85.71-403.09h-12.91c1.62 134.24 1.44 268.95-.53 403.09m152.78 0h12.72c8.67-147.69 8.67-296.05 0-443.74H466.6c7.94 147.69 7.94 296.05 0 443.74" fill="#bae2ff"></path><path d="M255.98 124.6c-131.76 0-115.2-111.05-115.2-111.05 19.78-18.26 214.54-17.87 230.4 0 0 0 16.58 111.05-115.2 111.05" fill="#0081cf"></path><path d="M364.16 82.94c0 55.54-216.36 55.54-216.36 0-.02-37.03 216.36-37.03 216.36 0" fill="#96d0ff"></path><path d="M280.65 218.5c-6.63-22.83-42.67-22.83-49.3 0-24.65 84.79-30.82 293.51-30.82 293.51h110.93s-6.17-208.72-30.81-293.51" fill="url(#1770301554961-1830914_c)"></path><path d="M278.74 218.5c-5.14 8.28-40.97 9.16-45.5 0-10.77-21.7-28.45-64.72-28.45-64.72s44.65-29.2 51.2-29.2 51.2 29.2 51.2 29.2-16.09 44.83-28.45 64.72" fill="url(#1770301554961-1830914_d)"></path><path d="m140.78 13.55-38.4 54.72s19.2 37.82 38.4 156.61l115.2-100.28s-115.2-44.58-115.2-111.05" class="k" fill="#259ade"></path><path d="m371.18 13.55 38.4 54.72s-19.2 37.82-38.4 156.61L255.98 124.6s115.2-44.58 115.2-111.05" class="k" fill="#259ade"></path></g></svg>
