<svg xmlns="http://www.w3.org/2000/svg" data-name="Layer 1" style="" viewBox="0 0 512 552.96"><g><defs><linearGradient id="1770301554962-5821792_j" x1="456.57" x2="456.57" y1="245.66" y2="482.56" gradientTransform="matrix(1 0 0 -1 0 554.95)" gradientUnits="userSpaceOnUse"><stop offset="0" stop-color="#828f94"></stop><stop offset=".35" stop-color="#99a6ab"></stop><stop offset=".74" stop-color="#acbbbf"></stop><stop offset="1" stop-color="#b3c2c6"></stop></linearGradient><linearGradient id="1770301554962-5821792_k" x1="55.44" x2="55.44" y1="245.66" y2="482.56" gradientTransform="matrix(1 0 0 -1 0 554.95)" gradientUnits="userSpaceOnUse"><stop offset="0" stop-color="#828f94"></stop><stop offset=".35" stop-color="#99a6ab"></stop><stop offset=".74" stop-color="#acbbbf"></stop><stop offset="1" stop-color="#b3c2c6"></stop></linearGradient><linearGradient id="1770301554962-5821792_m" x1="-619.52" x2="-619.52" y1="389.12" y2="378.88" gradientTransform="matrix(6.57 0 0 6.57 4235.16 -2252.94)" gradientUnits="userSpaceOnUse"><stop offset="0" stop-color="#a6694a"></stop><stop offset="1" stop-color="#4f2a1e"></stop></linearGradient><linearGradient id="1770301554962-5821792_s" x1="-594.59" x2="-594.59" y1="389.12" y2="378.88" gradientTransform="matrix(6.57 0 0 6.57 4252.89 -2252.94)" gradientUnits="userSpaceOnUse"><stop offset="0" stop-color="#a6694a"></stop><stop offset="1" stop-color="#4f2a1e"></stop></linearGradient></defs><path id="1770301554962-5821792_b" d="M477.53 220.8c-34.3 4.16-59.06 119-37.5 149.3 3.02 4.24 20.69 11 33.8-15.76 7.26-14.8 28.2-27.16 34.68-57.7 8.31-39.16 3.13-79.96-30.99-75.84Z" class="ac" data-name="Path" fill="#ffc940"></path><path id="1770301554962-5821792_c" d="M34.48 220.8c34.3 4.16 59.06 119 37.48 149.3-3.02 4.24-20.69 11-33.8-15.76-7.26-14.8-28.2-27.16-34.68-57.7-8.31-39.16-3.11-79.98 31.01-75.84Z" class="ac" data-name="Path" fill="#ffc940"></path><path id="1770301554962-5821792_d" d="M476.59 242.84c-8.94 2.8-18.7 16.43-24 39.1 31.28-6.72 23.46 45.38-3.72 46.33.24 5.24.6 10.64 1.24 16.3 13.1-18.99 26.4-11.36 39.58-39.68 11.88-25.5 9.06-69.02-13.1-62.05" class="ag" data-name="Path" fill="#f0a429"></path><path id="1770301554962-5821792_e" d="M59.41 281.85c-5.3-22.6-15.04-36.24-23.98-39.02-22.16-6.98-25 36.56-13.12 62.06 13.18 28.32 26.48 20.68 39.6 39.68.65-5.68 1-11.08 1.22-16.32-26.9-1.27-34.6-52.73-3.72-46.4" class="ag" data-name="Path" fill="#f0a429"></path><path id="1770301554962-5821792_f" d="M256 0C107.42 0 35.82 112.42 44.78 268.73c1.8 31.44 21.3 134.04 39.7 170.84 18.86 37.64 81.84 95.68 120.44 107.7 24.4 7.58 77.78 7.58 102.16 0 38.6-12.02 101.62-70.06 120.44-107.7 18.44-36.8 37.92-139.37 39.7-170.84C476.19 112.42 404.62 0 256 0" class="ac" data-name="Path" fill="#ffc940"></path><path id="1770301554962-5821792_g" d="M416.67 205.65c-33.82-17.68-98.56-18.52-122.66-6.22-5.18 2.38-1.76 22.74 2.58 21.16 33.6-13.1 87.82-13.4 119.25 1.12 4.21 1.88 5.97-13.62.83-16.06" class="ab" data-name="Path" fill="#97a5aa"></path><path id="1770301554962-5821792_h" d="M95.31 205.65c33.84-17.68 98.52-18.52 122.67-6.22 5.14 2.38 1.74 22.74-2.6 21.16-33.66-13.1-87.77-13.4-119.27 1.12-4.18 1.88-5.9-13.62-.8-16.06" class="ab" data-name="Path" fill="#97a5aa"></path><path id="1770301554962-5821792_i" d="M296.1 365.44c-4.24-2.96-14.2 1.6-40.1 1.6s-35.84-4.56-40.1-1.6c-5.08 3.6 3.02 19.74 40.1 19.74 37.1-.01 45.2-16.15 40.1-19.74" class="ag" data-name="Path" fill="#f0a429"></path><path d="M418.15 72.39c42.84 54.22 35.94 169.17 45.03 236.9 8.78-69.83 42.32-74 28.5-142.68-10.85-53.89-73.53-94.22-73.53-94.22" fill="url(#1770301554962-5821792_j)"></path><path d="M93.86 72.39C51 126.61 57.9 241.58 48.81 309.29c-8.78-69.83-42.32-74-28.5-142.68 10.85-53.89 73.55-94.22 73.55-94.22" fill="url(#1770301554962-5821792_k)"></path><path d="M291.32 279.16c14.02 40.28 79.9 60.76 79.9 60.76s-69.18-38.96-79.9-60.76m-150.54 60.75s65.68-20.06 79.9-60.76c-10.72 21.81-79.9 60.76-79.9 60.76m253.12-211.2c-76.12-44.94-198.84-45.26-275.8 0 67.88-30.07 207.96-30.05 275.8 0" class="ah" fill="#e6b045"></path><path d="M371.15 163.67c-63.58-37.52-166.06-37.77-230.31 0 56.68-25.1 173.66-25.08 230.31 0" class="ah" fill="#e6b045"></path><path d="M166.14 424.19c33.6 31.32 146.12 31.7 180.16 0-82.29 18.32-96.79 18.57-180.16 0" class="ag" fill="#f0a429"></path><path d="M205.34 372.41c-27.6 29.6-57.22 48.1-45.86 90.02 1.22-39.8 26.44-47.3 45.86-90.02m147.18 90c11.28-41.46-18-60.12-45.86-89.98 19.4 42.76 44.6 50.2 45.86 89.98" class="ah" fill="#e6b045"></path><path id="1770301554962-5821792_l" d="M222.74 265.48c2.12 9.7-3.52 21.88-21.16 32.2-11.22 6.56-34.98 15.2-68.14 4.52-14.84-4.8-30.46-22.4-30.12-32.9 14.47-34.18 99.35-46.44 119.41-3.82Z" class="ae" data-name="Path" fill="#fff"></path><circle id="1770301554962-5821792_n" cx="164.84" cy="269.99" r="33.64" data-name="Oval" fill="url(#1770301554962-5821792_m)"></circle><path id="1770301554962-5821792_o" d="M148.04 269.38c0 23.27 33.64 23.27 33.64 0 0-21.61-33.64-21.61-33.64 0" class="ad" data-name="Path" fill="#1a1626"></path><path id="1770301554962-5821792_p" d="M142.92 259.98c0 9.74 14.1 9.74 14.1 0 0-9.06-14.1-9.06-14.1 0" class="af" data-name="Path" fill="#ab968c"></path><path id="1770301554962-5821792_q" d="M223.02 266.76c-17.44-42.56-109.64-27.97-119.69 2.54 1.4-38.06 103.26-57 119.69-2.54" class="ag" data-name="Path" fill="#f0a429"></path><path id="1770301554962-5821792_r" d="M289.24 265.48c-2.12 9.7 3.52 21.88 21.18 32.2 11.2 6.56 34.96 15.2 68.11 4.52 14.88-4.78 30.46-22.4 30.12-32.9-14.45-34.18-99.33-46.44-119.41-3.82" class="ae" data-name="Path" fill="#fff"></path><circle id="1770301554962-5821792_t" cx="346.39" cy="269.99" r="33.64" data-name="Oval" fill="url(#1770301554962-5821792_s)"></circle><path id="1770301554962-5821792_u" d="M329.6 269.38c0 23.27 33.64 23.27 33.64 0 0-21.61-33.64-21.61-33.64 0" class="ad" data-name="Path" fill="#1a1626"></path><path id="1770301554962-5821792_v" d="M324.48 259.98c0 9.74 14.1 9.74 14.1 0-.01-9.06-14.1-9.06-14.1 0" class="af" data-name="Path" fill="#ab968c"></path><path id="1770301554962-5821792_w" d="M288.98 266.76c17.42-42.54 109.58-28.16 119.68 2.54-1.41-38.06-103.25-57-119.68-2.54" class="ag" data-name="Path" fill="#f0a429"></path></g></svg>
