<svg xmlns="http://www.w3.org/2000/svg" data-name="Layer 1" viewBox="0 0 512 432.01"><g><defs></defs><path d="M28.83 127.04c-12.7-2.13-30.42 25.54-28.72 36.28 2.45 15.66 40.82 60.99 40.82 60.99l7.41-3.33 3.53 2.05 1.42 6.96 23.53 18.6 7.46-6.82 3.57 2.06-.32 8.29 25.37 17.38 7.32-6.93 3.54 2.06-.09 8.23 153.82 88.43 7.14-3.58 3.56 2.07 1.42 7.69 22.74 13.38 8.23-2.33 3.56 2.05.83 8.29 25.12 13.15 6.43-2.69 3.58 2.06.38 8.01c56.54 31.71 130.62 28.9 144.85-13.16C268.48 229.8 48.35 130.33 28.83 127.04" fill="#e6ebef"></path><path d="M507.88 388.89c-1.95 32.92-78.74 42.43-143.82 5.84-106.18-59.66-236.15-132.48-308.79-179.77C25.9 195.82 5.79 165.85.56 157.63c-3.84 32.1 24.09 60.45 43.47 71.96l4.3-8.6 3.53 2.05-4.25 8.62c10.38 6.01 21.23 12.33 32.35 18.78l4.3-8.65 3.57 2.06-4.29 8.66c10.55 6.12 21.41 12.42 32.35 18.77l4.3-8.68 3.54 2.06-4.28 8.68c56.03 32.43 160.78 93.26 160.78 93.26l4.37-8.86 3.56 2.07-4.36 8.85 32.34 18.77 4.41-8.87 3.56 2.05-4.4 8.9 32.15 18.64.22.12 4.42-8.91 3.58 2.06-4.46 8.92c101.89 48.98 155.54 3.01 152.24-21.45Z" class="h" fill="#a2e320"></path><path d="M19.6 149.91c85.53 51.02 39.74 72.47 163.5 136.3-90.03-67.94-92.07-119.37-163.5-136.3M.56 157.63c29.27 39.62 70.39 49.26 70.39 49.26S18.4 169.65 6.83 143.67C1.95 149.89.56 157.64.56 157.64Zm136.75 69.27c75.64 51.84 50.52 66.42 143.32 115.49-67.26-45.47-76.28-88.03-143.32-115.49m162.33 124.78s80.94 62.59 147.47 60.83c-68.27-10.78-147.47-60.83-147.47-60.83" fill="#dadfe3"></path><path d="M32.59 117.6c-2.09-1.65-13.17 6.66-8.32 13.98 49.94 75.23 137.42 81.02 196.54 142.09 118.04 121.89 273.97 167.89 287.14 117.25C344.08 372.34 141.28 110.46 32.59 117.6" class="i" fill="#0182bd"></path><path d="M329.76 59.32c-47.63-30.34-95.37 75.04 59.23 203.9-73.44-126.12-50.63-198.43-59.23-203.9" fill="#016b9c"></path><path d="M333.77 64.44c-47.65-30.32-95.4 75.05 59.22 203.91-73.44-126.13-50.62-198.45-59.22-203.91" fill="#0177ad"></path><path d="M162.55 18.01c3.04-14.74-44.71-27.26-49.3-8.7-12.58 71.3 28.26 195.16 279.27 253.53-24.65-33.48-49.54-91.64-74.97-154.94-37.76-94.16-186.64 65.02-155-89.89" class="i" fill="#0182bd"></path><path d="M154.43 21.8C156.6 8.98 128.57.46 113.25 9.3 97.9 18.1 49.67 64.94 32.59 117.6c31.59 70.14 134.94 78.7 194.08 139.77 118.02 121.88 260.94 173.9 279.29 137.84 30.19-59.3-87.82-17.3-192.81-278.93-37.78-94.18-186.52 68.89-158.72-94.48" fill="#6c6c6c"></path><path d="M76.99 42.96S45.54 76.3 32.58 117.61c8.48 23.68 39.02 53 98.4 79.05 0 0-7.82-99.7-53.99-153.7" class="f" fill="#4f4f4f"></path><path d="M299.62 120.72c-7.54 2.74-10.51-9.61-2.97-12.35 7.55-2.72 10.52 9.61 2.97 12.35" class="e" fill="#1a1626"></path><path d="M338.68 106.6c-55.68 20.14-58.65 7.8-2.93-12.35 4.63-1.69 7.6 10.66 2.93 12.35" class="h" fill="#a2e320"></path><path d="M314.09 158.16c-7.57 2.74-10.5-9.6-2.95-12.33 7.54-2.74 10.5 9.6 2.95 12.33m35.43 68.44c-7.54 2.74-10.5-9.6-2.94-12.32 7.55-2.74 10.5 9.59 2.94 12.32m19.53 30.44c-7.53 2.74-10.46-9.61-2.94-12.32 7.58-2.75 10.51 9.58 2.94 12.32m-38.59-64.6c-7.57 2.75-10.5-9.62-2.95-12.32 7.54-2.75 10.48 9.58 2.95 12.32" class="e" fill="#1a1626"></path><path d="M344.71 147.07c-43.41 15.72-46.32 3.35-2.94-12.33 3.63-1.33 6.57 11.02 2.94 12.33m9.31 36.83c-35.78 12.96-38.74.62-2.97-12.32 3.02-1.09 5.97 11.26 2.97 12.32m13.88 33.61c-26.5 13-30.62 1.14-4.12-11.86 2.22-1.08 6.34 10.76 4.12 11.86m15.49 31.09c-20.88 11.88-25.68.38-4.77-11.5 1.74-.98 6.5 10.49 4.77 11.5" class="h" fill="#a2e320"></path><path d="M352.24 358.23c52.06 36.85 130.1 61.08 149.29 42.1 16.86-16.66 14.62-34.36-16.05-50.74 3.87 25.96-42.34 54.76-133.24 8.64" class="f" fill="#4f4f4f"></path></g></svg>
