<svg xmlns="http://www.w3.org/2000/svg" data-name="Layer 1" style="" viewBox="0 0 512 512"><g><defs><linearGradient id="1770301554968-4026679_b" x1="75.77" x2="343.21" y1="315.37" y2="315.37" gradientTransform="scale(1 -1) rotate(-10 -2941.124 233.104)" gradientUnits="userSpaceOnUse"><stop offset=".13" stop-color="#019ce3"></stop><stop offset=".3" stop-color="#0193d8"></stop><stop offset=".58" stop-color="#007abc"></stop><stop offset=".69" stop-color="#006fb0"></stop></linearGradient><linearGradient id="1770301554968-4026679_c" x1="202.28" x2="344.75" y1="529.01" y2="529.01" gradientTransform="scale(1 -1) rotate(-10 -2941.124 233.104)" gradientUnits="userSpaceOnUse"><stop offset="0" stop-color="#353f47"></stop><stop offset=".64" stop-color="#23202b"></stop></linearGradient><linearGradient id="1770301554968-4026679_d" x1="285.63" x2="350.08" y1="281.08" y2="281.08" gradientTransform="scale(1 -1) rotate(-10 -2941.124 233.104)" gradientUnits="userSpaceOnUse"><stop offset="0" stop-color="#353f47"></stop><stop offset=".64" stop-color="#23202b"></stop></linearGradient><linearGradient id="1770301554968-4026679_e" x1="60.12" x2="183.91" y1="150.91" y2="150.91" gradientTransform="scale(1 -1) rotate(-10 -2941.124 233.104)" gradientUnits="userSpaceOnUse"><stop offset="0" stop-color="#353f47"></stop><stop offset=".64" stop-color="#23202b"></stop></linearGradient><linearGradient id="1770301554968-4026679_f" x1="70.49" x2="337.94" y1="163.51" y2="163.51" gradientTransform="scale(1 -1) rotate(20 1519.427 408.826)" gradientUnits="userSpaceOnUse"><stop offset=".17" stop-color="#019ce3"></stop><stop offset=".41" stop-color="#0199df"></stop><stop offset=".64" stop-color="#018ed4"></stop><stop offset=".86" stop-color="#007dc0"></stop><stop offset="1" stop-color="#006fb0"></stop></linearGradient><linearGradient id="1770301554968-4026679_g" x1="197.02" x2="339.49" y1="377.15" y2="377.15" gradientTransform="scale(1 -1) rotate(20 1519.427 408.826)" gradientUnits="userSpaceOnUse"><stop offset="0" stop-color="#353f47"></stop><stop offset=".64" stop-color="#23202b"></stop></linearGradient><linearGradient id="1770301554968-4026679_h" x1="280.36" x2="344.81" y1="129.21" y2="129.21" gradientTransform="scale(1 -1) rotate(20 1519.427 408.826)" gradientUnits="userSpaceOnUse"><stop offset="0" stop-color="#353f47"></stop><stop offset=".64" stop-color="#23202b"></stop></linearGradient><linearGradient id="1770301554968-4026679_i" x1="54.84" x2="178.64" y1="-.96" y2="-.96" gradientTransform="scale(1 -1) rotate(20 1519.427 408.826)" gradientUnits="userSpaceOnUse"><stop offset="0" stop-color="#353f47"></stop><stop offset=".64" stop-color="#23202b"></stop></linearGradient></defs><path d="M340.82 67.82c-11.78 66.82-21.09 119.6-30.15 171.03l-54.37 95.86c-63.58 16.96-97.55 64.39-140.42 91.39 0 0-83.54-38.37-90.59-108.95 56.51-61.18 130.62-105.57 144.79-127.33 11-16.91 21.91-73.62 35.3-144.18 64.61-12.71 135.43 22.17 135.43 22.17Z" fill="url(#1770301554968-4026679_b)"></path><path d="M211.62.75c3.63-4.98 136.5 16.21 137.07 22.47.43 4.66-4.64 42.27-7.88 44.6-6.94 5.02-133.89-18.94-135.44-22.17-4.03-8.38 3.33-40.89 6.25-44.9" fill="url(#1770301554968-4026679_c)"></path><path d="M269.02 119.89c-.62-.96-1.55-1.89-2.6-2.83 1.05-1.1 1.92-2.35 2.3-3.9 1.56-6.12-1.6-10.59-6.54-13.96 2-2.09 3-4.8 2.41-8.17-2.42-13.59-31.2-7.51-23.05-21.16 1.22-2.04 1.44-3.02-.32-3.11-9.71-.43-18.76 7.38-18.41 15.82.11 2.39.63 4.49 1.35 6.47-6.58.34-12.19 2.67-13.88 9.34-.4 1.57-.23 3.09.18 4.57-1.34.31-2.6.69-3.59 1.21-7.09 3.71-9.63 13.93-5.2 20.51 7.84 11.67 49.77 22.35 62.12 15.74 7.05-3.77 9.62-13.83 5.21-20.51Z" class="y" style="isolation:isolate" opacity=".9" fill="#b36e51"></path><path d="M238.89 142.18c-15.08-2.67-33-9.32-38.11-16.9-2.3-3.43-2.98-7.89-1.86-12.27 1.11-4.34 3.82-7.93 7.46-9.81.75-.4 1.66-.73 2.8-1.04-.28-1.48-.26-2.78.05-4.05 1.53-5.94 6.04-9.32 13.47-10.04-.57-1.88-.89-3.63-.95-5.44-.17-3.96 1.54-7.92 4.76-11.13 3.88-3.89 9.41-6.06 14.75-5.84 1.54.1 1.95.68 2.18 1.15.44.95-.03 2.04-.95 3.59-1.2 2.02-1.57 3.57-1.1 4.74.89 2.24 4.86 3.38 9.08 4.59 6.54 1.89 13.94 4.01 15.2 11.1.54 3.05-.12 5.86-1.89 8.18 5.39 4.04 7.4 8.87 6 14.4-.32 1.25-.91 2.41-1.85 3.57.89.84 1.54 1.59 2.01 2.3 2.26 3.43 2.93 7.89 1.83 12.21-1.11 4.33-3.81 7.92-7.45 9.85-4.73 2.53-13.99 2.83-25.41.84Zm2.47-74.34c-.08 0-.14 0-.19-.02-4.77-.2-9.67 1.73-13.12 5.19-2.81 2.8-4.27 6.18-4.13 9.51.09 2 .49 3.95 1.26 6.14l.49 1.37-1.47.09c-7.29.38-11.51 3.16-12.86 8.49-.3 1.22-.24 2.49.18 4.04l.3 1.08-1.11.26c-1.45.33-2.55.7-3.35 1.11-3.07 1.61-5.39 4.69-6.34 8.43-.98 3.76-.41 7.61 1.54 10.5 4.13 6.16 19.91 13.02 36.69 15.99 10.95 1.94 19.7 1.7 24.02-.61 3.08-1.64 5.4-4.74 6.36-8.46.96-3.74.39-7.55-1.54-10.49-.49-.75-1.25-1.56-2.41-2.62l-.84-.73.76-.83c1.11-1.15 1.76-2.24 2.05-3.4 1.25-4.97-.73-9.15-6.09-12.8l-1.06-.72.89-.93c1.91-2 2.62-4.43 2.13-7.23-1.02-5.77-7.45-7.63-13.67-9.4-4.74-1.37-9.24-2.67-10.5-5.87-.73-1.84-.31-4.02 1.25-6.66.48-.76.67-1.2.75-1.44Z" class="t" style="isolation:isolate" fill="#302c3b" opacity=".9"></path><path d="M252.11 125.47c.18-.74-.03-1.78-1.3-2.33-3.21-1.48-8-3.34-14.42-4.97-6.4-1.63-11.53-2.29-15.05-2.52-1.38-.11-2.07.72-2.24 1.44-1.69 6.66 2.06 14.76 13.12 17.58 11.05 2.78 18.21-2.53 19.9-9.21Z" class="t" style="isolation:isolate" fill="#302c3b" opacity=".9"></path><path d="M226.07 129.13c1.81 1.37 4.04 2.5 6.73 3.17 2.67.67 5.15.76 7.41.43 0 0-2.9-3.46-6.85-2.7-3.11-2.54-7.29-.9-7.29-.9" class="z" style="isolation:isolate" opacity=".9" fill="#f46c60"></path><path d="M248.13 124.7c-2.07-.91-6.53-2.72-12.35-4.18a88 88 0 0 0-12.85-2.24c-1.33-.09-1.55.38-1.63 1.13-.06.42-.11.97-.11 1.57-.04.65.05.85 1.05 1.1 1.9.52 22.78 5.81 24.7 6.26 1.03.25 1.17.1 1.46-.49.28-.5.5-1.02.65-1.42.27-.72.32-1.23-.92-1.75Zm-12.3-19.22c-1.15 4.54-5.8 7.3-10.33 6.14-4.57-1.13-7.34-5.77-6.17-10.33 1.15-4.57 5.78-7.31 10.33-6.17s7.31 5.79 6.17 10.36" class="ab" style="isolation:isolate" opacity=".9" fill="#fff"></path><circle cx="227.57" cy="103.37" r="4.27" class="v" style="isolation:isolate" opacity=".9" fill="#1a1626"></circle><path d="M242.91 107.26c-1.18 4.54 1.6 9.2 6.17 10.33 4.54 1.17 9.19-1.59 10.34-6.15 1.16-4.57-1.6-9.21-6.17-10.35-4.57-1.15-9.2 1.62-10.34 6.17" class="ab" style="isolation:isolate" opacity=".9" fill="#fff"></path><circle cx="251.16" cy="109.35" r="4.25" class="v" style="isolation:isolate" opacity=".9" fill="#1a1626"></circle><path d="M261.15 281.09c-.37-1.12-1.03-2.3-1.82-3.52 1.35-.79 2.54-1.8 3.35-3.23 3.23-5.66 1.31-10.94-2.66-15.62 2.55-1.54 4.28-3.96 4.62-7.46 1.31-14.11-28.87-15.94-17.04-27.27 1.76-1.69 2.24-2.6.51-3.17-9.51-3.06-20.61 2.21-22.57 10.66-.54 2.41-.6 4.62-.44 6.78-6.6-1.45-12.8-.67-16.28 5.46-.83 1.45-1.08 3-1.08 4.59-1.43-.06-2.76-.02-3.91.21-8.01 1.73-13.34 11.16-10.75 18.91 4.6 13.7 43.23 35.74 57.28 32.55 8.01-1.8 13.32-11.08 10.79-18.89" class="y" style="isolation:isolate" opacity=".9" fill="#b36e51"></path><path d="M225.19 294.95c-14.23-6.76-30.17-18.26-33.17-27.17-1.33-4.03-.79-8.64 1.51-12.67 2.29-3.99 5.95-6.79 10.09-7.69.84-.19 1.83-.27 3.05-.27.11-1.54.49-2.81 1.16-3.99 3.12-5.48 8.52-7.59 16.09-6.27-.07-2.01.12-3.84.54-5.64.91-3.97 3.68-7.42 7.76-9.75 4.91-2.78 10.97-3.43 16.23-1.74 1.48.53 1.73 1.22 1.83 1.73.18 1.07-.57 2.01-1.91 3.32-1.77 1.67-2.53 3.11-2.4 4.39.28 2.44 3.9 4.68 7.76 7.03 5.95 3.65 12.71 7.77 12.02 15.16-.3 3.17-1.72 5.76-4.1 7.57 4.25 5.49 4.91 10.84 2.02 15.94-.67 1.16-1.57 2.14-2.82 3.02.65 1.09 1.09 1.98 1.35 2.84 1.31 4.01.75 8.61-1.52 12.6-2.28 3.99-5.94 6.81-10.08 7.72-5.38 1.24-14.66-1-25.41-6.12Zm22.76-73.01c-.08-.03-.15-.05-.2-.07-4.66-1.5-10.04-.92-14.42 1.56-3.54 2.01-5.9 4.96-6.7 8.31-.46 2-.58 4.05-.41 6.43l.1 1.49-1.45-.31c-7.34-1.63-12.28-.03-15.07 4.9-.64 1.13-.94 2.4-.94 4.04v1.16l-1.16-.05c-1.54-.05-2.71 0-3.63.19-3.49.76-6.61 3.18-8.58 6.63-2.01 3.48-2.49 7.43-1.34 10.85 2.42 7.24 16.18 18.35 32.01 25.86v.02c10.31 4.89 19.05 7.07 23.97 5.96 3.52-.8 6.66-3.23 8.62-6.66 1.98-3.44 2.46-7.38 1.35-10.81-.28-.88-.82-1.89-1.7-3.25l-.62-.96.99-.61c1.41-.84 2.35-1.73 2.96-2.82 2.61-4.57 1.77-9.26-2.55-14.35l-.85-1 1.13-.67c2.43-1.46 3.81-3.68 4.09-6.58.56-6.01-5.3-9.59-10.97-13.05-4.33-2.66-8.43-5.15-8.81-8.7-.21-2.02.79-4.06 3.05-6.25.66-.64.98-1.02 1.13-1.25Z" class="t" style="isolation:isolate" fill="#302c3b" opacity=".9"></path><path d="M242.86 281.99c.38-.68.44-1.76-.64-2.65-2.78-2.35-7.04-5.51-12.96-8.89-5.9-3.35-10.82-5.4-14.24-6.59-1.34-.49-2.24.15-2.62.83-3.5 6.14-1.98 15.18 8.21 21 10.21 5.77 18.76 2.47 22.26-3.69Z" class="t" style="isolation:isolate" fill="#302c3b" opacity=".9"></path><path d="M216.04 278.52c1.43 1.86 3.32 3.58 5.8 4.98 2.47 1.39 4.91 2.15 7.25 2.43 0 0-1.94-4.22-6.06-4.52-2.41-3.37-7-2.89-7-2.89Z" class="z" style="isolation:isolate" opacity=".9" fill="#f46c60"></path><path d="M239.11 280.14c-1.81-1.47-5.71-4.45-11.1-7.5-5.35-3.05-9.93-4.9-12.13-5.72-1.29-.48-1.63-.05-1.93.67-.17.39-.38.94-.54 1.5-.21.65-.18.87.73 1.39 1.74 1.04 20.99 11.97 22.78 12.95.95.54 1.13.43 1.6-.09.41-.41.76-.85 1.02-1.21.48-.63.67-1.12-.44-1.99Zm-6.93-22.41c-2.39 4.2-7.76 5.67-11.94 3.29-4.21-2.36-5.7-7.73-3.29-11.94 2.41-4.2 7.74-5.67 11.94-3.29 4.21 2.4 5.67 7.74 3.29 11.95Z" class="ab" style="isolation:isolate" opacity=".9" fill="#fff"></path><circle cx="224.56" cy="253.39" r="4.39" class="v" style="isolation:isolate" opacity=".9" fill="#1a1626"></circle><path d="M238.71 261.43c-2.41 4.2-.92 9.57 3.29 11.93 4.2 2.4 9.55.96 11.94-3.26 2.4-4.22.91-9.57-3.29-11.95-4.2-2.39-9.55-.92-11.93 3.28Z" class="ab" style="isolation:isolate" opacity=".9" fill="#fff"></path><path d="M248.49 261.96c-2.11-1.19-4.8-.46-5.96 1.63-1.19 2.11-.48 4.79 1.61 5.96 2.12 1.2 4.8.46 5.98-1.63 1.21-2.1.45-4.79-1.63-5.96" class="v" style="isolation:isolate" opacity=".9" fill="#1a1626"></path><path d="M150.37 375.13c-.58-1.01-1.49-1.99-2.53-3 1.13-1.08 2.07-2.31 2.56-3.86 1.88-6.19-1.11-10.89-5.97-14.54 2.15-2.05 3.32-4.8 2.87-8.23-1.78-13.96-31.41-9.21-22.4-22.74 1.33-2 1.6-3-.19-3.17-9.88-.91-19.48 6.58-19.57 15.2 0 2.46.43 4.62 1.05 6.66-6.71.03-12.54 2.1-14.6 8.81-.48 1.57-.39 3.12-.06 4.67-1.39.25-2.67.57-3.72 1.07-7.39 3.4-10.5 13.69-6.31 20.64 7.4 12.27 49.59 25.26 62.52 19.13 7.38-3.46 10.48-13.59 6.36-20.63Z" class="y" style="isolation:isolate" opacity=".9" fill="#b36e51"></path><path d="M118.53 396.33c-15.23-3.46-33.18-11.16-37.99-19.15-2.17-3.61-2.64-8.18-1.26-12.59 1.34-4.36 4.29-7.88 8.09-9.63.77-.37 1.72-.65 2.91-.91-.23-1.53-.14-2.83.26-4.1 1.83-6 6.6-9.18 14.21-9.57-.48-1.94-.71-3.75-.69-5.61.03-4.04 1.95-7.97 5.43-11.09 4.13-3.75 9.86-5.69 15.33-5.2 1.56.2 1.95.81 2.16 1.27.38 1-.14 2.09-1.15 3.64-1.32 2.01-1.77 3.56-1.36 4.76.79 2.31 4.79 3.7 9.04 5.15 6.56 2.24 13.99 4.79 14.92 12.07.38 3.15-.41 5.96-2.34 8.23 5.28 4.41 7.11 9.43 5.4 15.01-.39 1.25-1.06 2.41-2.08 3.52.89.91 1.51 1.68 1.95 2.47 2.14 3.61 2.59 8.18 1.25 12.53-1.33 4.35-4.28 7.86-8.08 9.66-4.97 2.34-14.44 2.18-25.98-.44Zm6.27-75.63a1 1 0 0 0-.2-.03c-4.84-.44-9.94 1.27-13.64 4.62-3 2.71-4.64 6.09-4.68 9.51-.03 2.01.29 4.04.99 6.31l.42 1.43-1.48.02c-7.46.02-11.9 2.65-13.54 8.01-.38 1.21-.38 2.53 0 4.11l.22 1.13-1.12.2c-1.5.27-2.65.61-3.48.97-3.22 1.48-5.72 4.5-6.89 8.29-1.17 3.8-.79 7.71 1.05 10.77 3.93 6.49 19.67 14.29 36.6 18.12v.03c11.04 2.52 19.99 2.71 24.51.58 3.24-1.53 5.76-4.57 6.94-8.32 1.14-3.75.76-7.68-1.05-10.76-.45-.8-1.21-1.64-2.35-2.78l-.82-.79.83-.81c1.19-1.11 1.89-2.19 2.25-3.38 1.55-4.98-.26-9.37-5.57-13.35l-1.02-.79.94-.9c2.04-1.94 2.9-4.37 2.53-7.27-.76-5.91-7.21-8.12-13.44-10.25-4.78-1.63-9.3-3.18-10.42-6.51-.63-1.92-.11-4.1 1.6-6.72.51-.74.73-1.18.84-1.43Z" class="t" style="isolation:isolate" fill="#302c3b" opacity=".9"></path><path d="M132.85 379.96c.21-.74.03-1.8-1.21-2.43-3.21-1.66-8.02-3.81-14.46-5.8-6.46-1.97-11.64-2.89-15.21-3.31-1.42-.18-2.16.62-2.36 1.36-2.05 6.7 1.37 15.16 12.48 18.6 11.14 3.37 18.69-1.7 20.76-8.41Z" class="t" style="isolation:isolate" fill="#302c3b" opacity=".9"></path><path d="M106.13 382.39c1.78 1.53 4.01 2.76 6.7 3.58 2.7.82 5.21 1.04 7.53.79 0 0-2.78-3.66-6.85-3.07-3.05-2.76-7.38-1.31-7.38-1.31Z" class="z" style="isolation:isolate" opacity=".9" fill="#f46c60"></path><path d="M128.82 378.99c-2.07-1.05-6.5-3.11-12.35-4.88a91 91 0 0 0-12.99-2.93c-1.34-.16-1.6.31-1.72 1.08-.07.44-.15.99-.19 1.59-.06.65.02.87 1.02 1.19 1.91.63 22.91 7.04 24.87 7.63 1.02.3 1.17.16 1.52-.44.3-.51.54-1.01.73-1.42.29-.7.38-1.23-.88-1.82Zm-11.56-20.2c-1.41 4.57-6.29 7.15-10.85 5.76-4.59-1.39-7.19-6.26-5.75-10.86 1.4-4.58 6.24-7.16 10.85-5.75 4.58 1.39 7.15 6.25 5.76 10.85Z" class="ab" style="isolation:isolate" opacity=".9" fill="#fff"></path><path d="M110.2 352.07c2.32.72 3.6 3.15 2.88 5.44-.7 2.29-3.1 3.6-5.4 2.89-2.3-.73-3.59-3.16-2.9-5.44.7-2.3 3.12-3.59 5.42-2.89" class="v" style="isolation:isolate" opacity=".9" fill="#1a1626"></path><path d="M124.38 360.95c-1.42 4.57 1.17 9.45 5.77 10.85 4.56 1.42 9.44-1.16 10.86-5.75 1.39-4.59-1.2-9.46-5.79-10.85-4.57-1.41-9.45 1.17-10.84 5.76Z" class="ab" style="isolation:isolate" opacity=".9" fill="#fff"></path><circle cx="132.68" cy="363.51" r="4.34" class="v" style="isolation:isolate" opacity=".9" fill="#1a1626"></circle><path d="M302.56 172.37c-.77-.17-1.68-.17-2.65-.12-.03-1.04-.21-2.07-.78-3.02-2.23-3.74-5.94-4.39-9.98-3.62-.06-1.99-.9-3.81-2.82-5.15-7.81-5.47-18.87 11.55-21.55.9-.41-1.6-.78-2.18-1.68-1.35-4.93 4.52-5.53 12.73-1.25 16.67 1.21 1.12 2.5 1.89 3.79 2.51-3.02 3.37-4.63 7.24-2.21 11.31.58.95 1.4 1.6 2.32 2.12-.51.81-.93 1.61-1.17 2.36-1.65 5.24 2.09 11.47 7.48 12.53 9.51 1.86 35.13-13.35 37.94-22.62 1.61-5.26-2.04-11.42-7.44-12.52" class="x" style="isolation:isolate" opacity=".8" fill="#b36e51"></path><path d="M298.74 197.92c-8.65 6.06-20.63 11.55-26.82 10.33-2.8-.54-5.3-2.4-6.89-5.08-1.57-2.65-2-5.72-1.15-8.42.18-.55.46-1.16.85-1.87-.85-.57-1.47-1.23-1.93-2.01-2.17-3.63-1.6-7.47 1.65-11.45-1.19-.62-2.2-1.33-3.11-2.18-2.01-1.84-3.11-4.6-3.11-7.75 0-3.78 1.64-7.53 4.36-10.04.8-.69 1.27-.61 1.61-.5.67.26.99 1.02 1.29 2.22.4 1.59.98 2.5 1.78 2.85 1.5.65 4-.73 6.65-2.19 4.1-2.28 8.74-4.84 12.83-2 1.76 1.23 2.79 2.93 3.05 4.92 4.59-.67 7.94.71 9.97 4.09.45.78.73 1.61.83 2.64.84-.03 1.52.02 2.09.15 2.78.58 5.27 2.43 6.85 5.07 1.57 2.66 1.99 5.73 1.17 8.43-1.07 3.54-5.44 8.21-11.97 12.8Zm-35.03-37.43s-.09.05-.11.08c-2.41 2.23-3.87 5.56-3.87 8.93 0 2.72.92 5.09 2.62 6.66 1.02.92 2.17 1.68 3.61 2.36l.91.44-.67.75c-3.38 3.74-4.08 7.16-2.12 10.43.44.73 1.09 1.32 2.04 1.87l.67.39-.41.67c-.55.87-.9 1.58-1.09 2.16-.72 2.3-.34 4.92 1.02 7.22 1.37 2.31 3.52 3.89 5.88 4.37 5.02.97 16.05-3.36 25.68-10.09 6.27-4.4 10.44-8.77 11.4-12.01.71-2.3.33-4.94-1.02-7.22-1.34-2.3-3.48-3.87-5.85-4.37-.6-.13-1.37-.15-2.45-.09l-.77.05-.03-.78c-.02-1.1-.24-1.95-.67-2.66-1.8-3.03-4.8-4.09-9.2-3.27l-.88.17-.03-.89c-.03-1.9-.88-3.43-2.47-4.56-3.31-2.31-7.35-.09-11.24 2.07-3 1.64-5.82 3.2-8 2.25-1.25-.54-2.1-1.79-2.63-3.84-.13-.62-.24-.92-.32-1.08Z" class="u" style="isolation:isolate" fill="#302c3b" opacity=".8"></path><path d="M297.03 183.33c-.27-.44-.89-.85-1.77-.5-2.29.84-5.54 2.28-9.46 4.6-3.91 2.32-6.72 4.51-8.55 6.12-.73.62-.66 1.37-.39 1.81 2.42 4.07 8.2 6.2 14.95 2.17 6.75-4.04 7.65-10.11 5.22-14.19Z" class="u" style="isolation:isolate" fill="#302c3b" opacity=".8"></path><path d="M286.12 197.8c1.56-.2 3.19-.74 4.83-1.72 1.62-.96 2.88-2.13 3.82-3.4 0 0-3.1-.26-4.66 2.02-2.75.28-3.99 3.11-3.99 3.11Z" class="aa" style="isolation:isolate" opacity=".8" fill="#f46c60"></path><path d="M294.71 184.89c-1.46.57-4.5 1.85-8.06 3.99-3.55 2.12-6.14 4.16-7.34 5.17-.7.61-.57.94-.25 1.34.18.23.43.54.71.83.3.33.45.38 1.04.02 1.19-.67 13.93-8.27 15.11-8.98.61-.39.61-.53.47-.96a9 9 0 0 0-.37-1.01c-.24-.47-.45-.76-1.32-.4Zm-15.36-3.37c1.66 2.78.73 6.4-2.05 8.04-2.76 1.66-6.38.76-8.03-2.03-1.66-2.79-.76-6.38 2.01-8.04 2.79-1.68 6.39-.76 8.06 2.03Z" class="ac" style="isolation:isolate" opacity=".8" fill="#fff"></path><circle cx="274.31" cy="184.53" r="2.94" class="w" style="isolation:isolate" opacity=".8" fill="#1a1626"></circle><path d="M283.67 178.95c1.64 2.79 5.27 3.7 8.05 2.02 2.77-1.64 3.7-5.25 2.03-8.03-1.66-2.79-5.27-3.72-8.05-2.04a5.876 5.876 0 0 0-2.03 8.05" class="ac" style="isolation:isolate" opacity=".8" fill="#fff"></path><circle cx="288.71" cy="175.94" r="2.94" class="w" style="isolation:isolate" opacity=".8" fill="#1a1626"></circle><path d="M166.86 283.27c-.57-.69-1.37-1.35-2.29-1.99.73-.95 1.3-1.99 1.47-3.24.71-4.91-2.13-8.14-6.27-10.37 1.38-1.8 1.95-4.01 1.2-6.59-3.02-10.43-25.02-3.26-19.79-14.62.78-1.7.87-2.46-.53-2.39-7.62.49-14.05 7.36-13.06 13.91.28 1.86.87 3.45 1.59 4.94-5.1.83-9.29 3.11-10.05 8.46-.18 1.25.08 2.43.54 3.55-1.04.36-2 .77-2.74 1.25-5.21 3.48-6.33 11.67-2.31 16.48 7.1 8.45 40.76 13.29 49.89 7.07 5.18-3.52 6.35-11.61 2.36-16.47Z" class="x" style="isolation:isolate" opacity=".8" fill="#b36e51"></path><path d="M145.17 303.23c-12.01-.81-26.59-4.52-31.21-10.04-2.11-2.47-3-5.91-2.51-9.42.51-3.47 2.32-6.51 5.03-8.31.55-.36 1.24-.7 2.08-1.04-.33-1.12-.42-2.15-.28-3.16.68-4.8 3.93-7.79 9.68-8.99-.59-1.43-.99-2.76-1.2-4.18-.47-3.06.53-6.31 2.79-9.11 2.7-3.36 6.84-5.52 11.05-5.79 1.21-.05 1.59.37 1.8.71.4.71.15 1.6-.45 2.89-.77 1.69-.9 2.93-.45 3.8.87 1.66 4.07 2.23 7.48 2.82 5.26.92 11.21 1.96 12.81 7.4.69 2.35.39 4.6-.79 6.55 4.55 2.7 6.55 6.31 5.91 10.79-.17 1.01-.52 1.95-1.16 2.94.78.57 1.32 1.1 1.77 1.61 2.06 2.5 2.95 5.93 2.45 9.4-.5 3.49-2.31 6.52-4.99 8.34-3.49 2.38-10.71 3.4-19.8 2.78Zm-4.32-58.33h-.15c-3.74.25-7.42 2.18-9.83 5.15-1.95 2.41-2.81 5.18-2.42 7.78.23 1.55.7 3.05 1.51 4.7l.49 1.02-1.13.2c-5.67.89-8.73 3.43-9.34 7.73-.15.96 0 1.95.47 3.11l.32.83-.84.31c-1.13.37-1.94.77-2.52 1.15-2.28 1.52-3.84 4.1-4.27 7.13-.44 3.02.33 5.98 2.1 8.1 3.76 4.45 16.65 8.49 30.03 9.4h.02c8.7.59 15.52-.32 18.71-2.5 2.28-1.54 3.83-4.16 4.25-7.14.45-3.01-.31-5.95-2.05-8.06-.48-.55-1.12-1.13-2.13-1.84l-.71-.51.53-.71c.79-.99 1.19-1.9 1.3-2.85.57-3.98-1.33-7.07-5.84-9.48l-.89-.47.6-.82c1.33-1.72 1.68-3.68 1.08-5.82-1.28-4.42-6.46-5.32-11.47-6.2-3.83-.67-7.46-1.31-8.71-3.72-.72-1.36-.58-3.1.42-5.29.31-.65.44-1.01.47-1.19Z" class="u" style="isolation:isolate" fill="#302c3b" opacity=".8"></path><path d="M154.09 289.04c.07-.59-.18-1.38-1.22-1.71-2.63-.89-6.55-1.95-11.69-2.68-5.15-.73-9.2-.8-11.98-.69-1.1.04-1.55.73-1.63 1.31-.76 5.36 2.85 11.37 11.72 12.65 8.87 1.25 14.03-3.52 14.8-8.87Z" class="u" style="isolation:isolate" fill="#302c3b" opacity=".8"></path><path d="M134.05 294.1c1.53.92 3.36 1.6 5.53 1.91 2.13.3 4.09.18 5.83-.28 0 0-2.55-2.47-5.58-1.53-2.65-1.74-5.78-.1-5.78-.1" class="aa" style="isolation:isolate" opacity=".8" fill="#f46c60"></path><path d="M150.91 288.77c-1.7-.54-5.31-1.58-10-2.22-4.68-.66-8.43-.69-10.23-.67-1.05.05-1.19.44-1.19 1.02 0 .33-.02.77.04 1.23.03.53.13.66.91.77 1.54.26 18.29 2.65 19.84 2.83.83.12.92 0 1.1-.5.17-.41.31-.82.39-1.17.15-.55.16-.97-.87-1.29Zm-11.23-13.99c-.52 3.68-3.93 6.22-7.58 5.68a6.647 6.647 0 0 1-5.68-7.55 6.716 6.716 0 0 1 7.56-5.72 6.73 6.73 0 0 1 5.7 7.59" class="ac" style="isolation:isolate" opacity=".8" fill="#fff"></path><circle cx="133.06" cy="273.84" r="3.35" class="w" style="isolation:isolate" opacity=".8" fill="#1a1626"></circle><path d="M145.35 275.59c-.53 3.65 2.04 7.05 5.69 7.56 3.65.54 7.06-2.01 7.58-5.67a6.7 6.7 0 0 0-5.7-7.59c-3.65-.52-7.04 2.03-7.57 5.7" class="ac" style="isolation:isolate" opacity=".8" fill="#fff"></path><circle cx="151.99" cy="276.53" r="3.35" class="w" style="isolation:isolate" opacity=".8" fill="#1a1626"></circle><path d="m200.24 319.786 5.095-.4 1.55 19.749-5.093.4zm11.131-141.466 3.628-3.627 14 14-3.627 3.628z" class="r" fill="#75d6ff"></path><path d="m294.78 127.771 3.637-3.645 14.009 13.979-3.638 3.645zm-131.664 94.024 2.33-4.536 17.621 9.052-2.33 4.536zm-96.694 88.979.567-5.11 19.69 2.185-.567 5.109z" class="s" fill="#a6e639"></path><path d="M247.78 263.94s35.65-16.11 62.89-25.08c3.83 29.95 4.11 83.04-54.37 95.86.82-29.86-8.52-70.78-8.52-70.78" fill="url(#1770301554968-4026679_d)"></path><path d="M48.47 433.43c-59.93-15.34-60.18-75.72-23.19-116.27 34.01 12.21 76.91 52.55 84.78 64.93 2.12 3.35 5.67 28.63 5.82 44.02-18.24 9.89-39.61 14.44-67.41 7.32" fill="url(#1770301554968-4026679_e)"></path><path d="M427.67 46.03c23.2 63.76 41.53 114.12 59.4 163.2l.84 110.2c-46.58 46.5-52.28 104.55-75.9 149.36 0 0-91.55 8.55-132.93-49.05 18.34-81.25 60.33-156.73 61.71-182.67 1.08-20.15-17.83-74.7-41.51-142.51 49.6-43.32 128.38-48.53 128.38-48.53Z" fill="url(#1770301554968-4026679_f)"></path><path d="M282.25 52.55c.64-6.13 126.32-54.2 129.95-49.08 2.7 3.82 17.11 38.94 15.48 42.56-3.51 7.82-125.42 50.54-128.38 48.53-7.68-5.25-17.56-37.07-17.04-42.01Z" fill="url(#1770301554968-4026679_g)"></path><path d="M391.52 127.03c-1.02-.52-2.3-.86-3.67-1.15.36-1.48.49-3 .04-4.52-1.71-6.08-6.67-8.37-12.63-8.82.68-2.81.19-5.67-2-8.29-8.89-10.56-30.76 9.09-30.55-6.82.03-2.37-.26-3.34-1.83-2.53-8.62 4.49-12.54 15.77-8.02 22.9 1.28 2.01 2.78 3.58 4.39 4.93-5.52 3.58-9.22 8.4-7.34 15.01.44 1.56 1.34 2.79 2.43 3.87-1.01.94-1.9 1.9-2.51 2.85-4.28 6.74-1.38 16.87 5.76 20.36 12.62 6.2 54.27-5.52 61.66-17.43 4.22-6.78 1.41-16.79-5.74-20.37Z" class="y" style="isolation:isolate" opacity=".9" fill="#b36e51"></path><path d="M376.57 161.39c-14.4 5.24-33.25 8.44-41.46 4.42-3.7-1.83-6.52-5.35-7.74-9.69-1.21-4.32-.65-8.77 1.55-12.24.46-.72 1.08-1.47 1.91-2.3-.98-1.13-1.61-2.29-1.97-3.53-1.66-5.91.56-11.08 6.63-15.44-1.43-1.33-2.58-2.7-3.54-4.22-2.12-3.35-2.64-7.63-1.44-12.03 1.43-5.3 5.13-9.94 9.86-12.42 1.37-.67 2.02-.37 2.46-.09.85.61 1 1.79.97 3.58-.03 2.36.44 3.88 1.42 4.67 1.88 1.49 5.9.49 10.15-.56 6.6-1.64 14.07-3.5 18.71 2.01 1.99 2.37 2.82 5.13 2.45 8.02 6.68.8 10.85 3.98 12.4 9.47.35 1.25.42 2.55.18 4.02 1.19.28 2.12.61 2.89.98 3.67 1.85 6.48 5.38 7.68 9.67 1.2 4.3.65 8.76-1.53 12.25-2.83 4.58-10.71 9.47-21.59 13.44Zm-35.03-65.61c-.07.03-.12.05-.18.08-4.22 2.22-7.5 6.34-8.76 11.06-1.03 3.82-.61 7.48 1.18 10.31 1.08 1.69 2.4 3.17 4.16 4.68l1.12.94-1.22.8c-6.14 3.98-8.39 8.5-6.89 13.79.34 1.2 1.03 2.28 2.17 3.4l.8.79-.83.79c-1.09 1.02-1.85 1.89-2.33 2.64-1.86 2.94-2.33 6.76-1.28 10.48 1.04 3.75 3.45 6.79 6.59 8.34 6.66 3.27 23.76 1.32 39.77-4.5 10.44-3.8 17.91-8.36 20.5-12.54 1.85-2.97 2.31-6.8 1.27-10.5-1.04-3.72-3.44-6.73-6.58-8.32-.8-.4-1.86-.73-3.4-1.05l-1.1-.21.26-1.09c.38-1.54.4-2.82.07-3.99-1.39-4.92-5.21-7.55-11.68-8.03l-1.26-.09.29-1.25c.66-2.68.06-5.15-1.76-7.32-3.77-4.48-10.27-2.88-16.54-1.31-4.8 1.19-9.34 2.31-12.03.17-1.55-1.23-2.28-3.32-2.24-6.38.03-.93-.03-1.42-.09-1.66Z" class="t" style="isolation:isolate" fill="#302c3b" opacity=".9"></path><path d="M379.65 140.31c-.21-.73-.91-1.54-2.3-1.37-3.52.32-8.61 1.11-14.98 2.91-6.35 1.78-11.12 3.79-14.29 5.34-1.25.6-1.43 1.66-1.22 2.37 1.87 6.61 9.16 11.75 20.15 8.66 10.98-3.11 14.52-11.3 12.65-17.92Z" class="t" style="isolation:isolate" fill="#302c3b" opacity=".9"></path><path d="M358.94 156.49c2.26.29 4.76.15 7.42-.61 2.65-.76 4.84-1.93 6.63-3.35 0 0-4.24-1.55-7.28 1.08-3.96-.64-6.77 2.87-6.77 2.87Z" class="z" style="isolation:isolate" opacity=".9" fill="#f46c60"></path><path d="M375.82 141.64c-2.25.24-7 .9-12.78 2.55a88 88 0 0 0-12.25 4.49c-1.2.58-1.15 1.11-.85 1.79.17.39.39.9.68 1.42.3.57.48.71 1.47.43 1.91-.5 22.62-6.36 24.52-6.93 1.02-.3 1.07-.49 1.02-1.15 0-.57-.09-1.13-.15-1.55-.12-.75-.32-1.2-1.67-1.04Zm-20.25-10.5c1.26 4.51-1.37 9.23-5.88 10.49-4.51 1.3-9.24-1.32-10.5-5.87-1.28-4.53 1.35-9.23 5.87-10.5 4.52-1.29 9.22 1.35 10.51 5.89Z" class="ab" style="isolation:isolate" opacity=".9" fill="#fff"></path><circle cx="347.36" cy="133.45" r="4.27" class="v" style="isolation:isolate" opacity=".9" fill="#1a1626"></circle><path d="M362.58 129.14c1.25 4.52 5.99 7.18 10.5 5.87 4.51-1.25 7.18-5.96 5.88-10.5-1.26-4.53-5.99-7.16-10.51-5.87-4.53 1.27-7.14 5.99-5.87 10.5" class="ab" style="isolation:isolate" opacity=".9" fill="#fff"></path><circle cx="370.78" cy="126.83" r="4.25" class="v" style="isolation:isolate" opacity=".9" fill="#1a1626"></circle><path d="M465.31 270.57c-.89-.79-2.05-1.48-3.35-2.13.78-1.37 1.3-2.83 1.29-4.47-.04-6.51-4.33-10.12-10.13-12.19 1.45-2.61 1.73-5.58.28-8.77-5.92-12.89-32.97.62-28.41-15.1.67-2.35.64-3.38-1.14-3.02-9.77 2.1-16.74 12.22-14.22 20.51.73 2.36 1.79 4.3 3.01 6.09-6.45 2.05-11.43 5.8-11.37 12.86.02 1.66.56 3.13 1.36 4.51-1.25.67-2.4 1.37-3.27 2.15-6.08 5.51-5.97 16.33.15 21.76 10.84 9.56 55.31 9.34 65.89-.45 6.05-5.56 6-16.25-.09-21.75" class="y" style="isolation:isolate" opacity=".9" fill="#b36e51"></path><path d="M441.09 300.55c-15.7 1.25-35.27-.73-42.31-6.95-3.17-2.82-5-7.09-5.03-11.72-.02-4.6 1.75-8.87 4.88-11.71.63-.59 1.47-1.15 2.52-1.76-.67-1.39-.98-2.68-.99-4.04-.04-6.3 3.59-10.82 10.79-13.47-1.06-1.72-1.82-3.39-2.36-5.16-1.19-3.89-.53-8.27 1.86-12.31 2.86-4.86 7.78-8.46 13.18-9.63 1.55-.29 2.12.19 2.45.58.68.84.52 2.03 0 3.82-.68 2.34-.63 3.96.12 5.01 1.47 1.98 5.72 2.1 10.23 2.21 6.98.18 14.9.38 18 7.12 1.32 2.9 1.4 5.85.22 8.62 6.42 2.63 9.67 6.92 9.73 12.8 0 1.32-.28 2.64-.93 4.02 1.11.61 1.95 1.18 2.59 1.77 3.14 2.82 4.96 7.08 4.97 11.67.03 4.58-1.72 8.86-4.85 11.72-4.06 3.75-13.22 6.44-25.1 7.41Zm-16.8-74.61c-.08.02-.15.03-.2.04-4.8 1.02-9.16 4.22-11.72 8.56-2.07 3.52-2.64 7.25-1.65 10.54.61 1.96 1.52 3.81 2.87 5.79l.84 1.24-1.42.46c-7.18 2.26-10.64 6.11-10.6 11.78 0 1.28.39 2.54 1.21 3.97l.59 1-1.03.54c-1.36.72-2.35 1.37-3.05 1.97-2.65 2.4-4.13 6.06-4.12 10.04 0 4.03 1.57 7.68 4.27 10.07 5.73 5.05 23.19 7.8 40.65 6.39v.02c11.38-.92 20.04-3.41 23.74-6.84 2.65-2.45 4.16-6.12 4.13-10.08 0-3.97-1.56-7.63-4.23-10.04-.68-.62-1.64-1.23-3.09-1.96l-1.02-.52.55-1.02c.79-1.43 1.16-2.68 1.14-3.93-.03-5.26-3.09-8.9-9.39-11.14l-1.24-.44.63-1.14c1.38-2.48 1.46-5.1.25-7.75-2.51-5.5-9.39-5.67-16.03-5.83-5.07-.14-9.87-.25-11.96-3.12-1.2-1.64-1.35-3.9-.48-6.94.25-.88.34-1.37.34-1.64Z" class="t" style="isolation:isolate" fill="#302c3b" opacity=".9"></path><path d="M449.92 280.49c-.02-.79-.5-1.75-1.89-1.97-3.58-.64-8.86-1.25-15.67-1.23-6.78.05-12.07.73-15.63 1.42-1.4.25-1.87 1.25-1.85 2.02.04 7.07 5.87 14.14 17.6 14.08 11.73-.09 17.47-7.24 17.43-14.32Z" class="t" style="isolation:isolate" fill="#302c3b" opacity=".9"></path><path d="M424.96 290.9c2.16.89 4.67 1.43 7.51 1.4 2.84-.02 5.32-.58 7.5-1.51 0 0-3.78-2.69-7.52-.9-3.77-1.72-7.49 1.01-7.49 1.01" class="z" style="isolation:isolate" opacity=".9" fill="#f46c60"></path><path d="M445.75 280.76c-2.3-.37-7.18-1.01-13.35-.94a87 87 0 0 0-13.36 1.1c-1.35.25-1.44.79-1.33 1.55.05.43.15 1.01.29 1.57.14.67.26.85 1.32.84 2.03.02 24.17-.14 26.2-.18 1.09-.02 1.2-.2 1.34-.87.15-.56.22-1.13.28-1.57.09-.79 0-1.31-1.38-1.51Zm-17.21-15.94c.03 4.83-3.89 8.78-8.71 8.81-4.83.05-8.8-3.85-8.81-8.7-.03-4.84 3.87-8.77 8.7-8.81 4.84-.03 8.79 3.88 8.83 8.71Z" class="ab" style="isolation:isolate" opacity=".9" fill="#fff"></path><circle cx="419.77" cy="264.87" r="4.39" class="v" style="isolation:isolate" opacity=".9" fill="#1a1626"></circle><path d="M436.04 264.76c0 4.84 3.98 8.74 8.81 8.7 4.83-.02 8.75-3.95 8.71-8.79-.03-4.86-3.99-8.76-8.82-8.7-4.84.03-8.73 3.97-8.7 8.8Z" class="ab" style="isolation:isolate" opacity=".9" fill="#fff"></path><path d="M444.77 260.34c-2.41.02-4.38 1.99-4.35 4.39.03 2.42 1.97 4.39 4.39 4.37 2.44-.03 4.39-2 4.37-4.41 0-2.42-2.01-4.38-4.4-4.34Z" class="v" style="isolation:isolate" opacity=".9" fill="#1a1626"></path><path d="M416.39 407.39c-1.02-.57-2.29-.98-3.69-1.33.44-1.5.63-3.03.28-4.62-1.47-6.3-6.41-8.87-12.45-9.61.84-2.85.48-5.81-1.62-8.56-8.53-11.2-31.81 7.71-30.77-8.5.16-2.41-.12-3.39-1.75-2.65-9.03 4.14-13.59 15.45-9.35 22.95 1.22 2.12 2.68 3.78 4.24 5.23-5.8 3.38-9.8 8.09-8.24 14.93.38 1.6 1.24 2.91 2.29 4.07-1.08.91-2.01 1.84-2.67 2.79-4.71 6.64-2.26 17.11 4.84 21.03 12.54 6.92 55.59-2.92 63.71-14.69 4.65-6.69 2.28-17.02-4.81-21.04Z" class="y" style="isolation:isolate" opacity=".9" fill="#b36e51"></path><path d="M399.43 441.69c-14.93 4.61-34.31 6.92-42.49 2.41-3.69-2.04-6.37-5.78-7.39-10.27-1.02-4.45-.22-8.97 2.19-12.38.49-.71 1.17-1.43 2.06-2.26-.96-1.2-1.53-2.38-1.83-3.69-1.42-6.11 1.13-11.26 7.52-15.39-1.38-1.44-2.49-2.91-3.4-4.51-2-3.52-2.3-7.89-.86-12.32 1.72-5.32 5.7-9.86 10.68-12.16 1.45-.61 2.1-.28 2.51.02.84.67.93 1.89.83 3.73-.15 2.4.24 3.97 1.2 4.8 1.84 1.61 5.99.81 10.39-.07 6.8-1.34 14.5-2.85 18.96 3 1.91 2.53 2.64 5.37 2.09 8.29 6.78 1.17 10.86 4.61 12.19 10.29.28 1.28.28 2.62-.04 4.1 1.23.35 2.15.71 2.91 1.16 3.67 2.06 6.33 5.79 7.34 10.23 1.03 4.43.23 8.94-2.17 12.4-3.11 4.51-11.4 9.11-22.69 12.61Zm-32.41-68.64c-.06.03-.14.05-.18.09-4.41 2.04-7.97 6.08-9.5 10.82-1.25 3.86-.98 7.6.7 10.58.98 1.76 2.27 3.35 4.01 4.96l1.08 1.03-1.27.75c-6.45 3.74-8.99 8.24-7.71 13.7.28 1.24.94 2.38 2.05 3.58l.76.87-.87.73c-1.16.99-1.98 1.84-2.53 2.58-2.05 2.9-2.71 6.77-1.83 10.62.89 3.87 3.18 7.08 6.3 8.81 6.64 3.67 24.18 2.54 40.75-2.61v.03c10.85-3.35 18.68-7.65 21.53-11.75 2.05-2.94 2.7-6.84 1.84-10.67-.89-3.83-3.18-7.03-6.29-8.79-.79-.48-1.87-.83-3.41-1.25l-1.1-.27.31-1.12c.47-1.55.55-2.84.26-4.05-1.15-5.09-4.92-7.97-11.51-8.76l-1.28-.18.37-1.25c.81-2.69.32-5.23-1.43-7.56-3.63-4.75-10.31-3.42-16.78-2.16-4.95.97-9.64 1.89-12.28-.44-1.5-1.34-2.14-3.48-1.95-6.61.04-.91.03-1.4-.02-1.67Z" class="t" style="isolation:isolate" fill="#302c3b" opacity=".9"></path><path d="M403.63 420.34c-.19-.75-.88-1.59-2.26-1.5-3.62.16-8.85.71-15.43 2.21-6.58 1.51-11.53 3.31-14.83 4.74-1.31.55-1.55 1.6-1.37 2.36 1.58 6.83 8.76 12.43 20.1 9.86 11.33-2.65 15.33-10.8 13.78-17.66Z" class="t" style="isolation:isolate" fill="#302c3b" opacity=".9"></path><path d="M381.69 435.8c2.31.42 4.85.38 7.59-.25 2.75-.64 5.03-1.71 6.93-3.08 0 0-4.23-1.77-7.48.77-4.01-.87-7.05 2.56-7.05 2.56Z" class="z" style="isolation:isolate" opacity=".9" fill="#f46c60"></path><path d="M399.65 421.52c-2.31.15-7.19.56-13.14 1.95a88 88 0 0 0-12.71 3.96c-1.25.54-1.22 1.07-.95 1.79.15.41.37.93.62 1.47.26.6.44.74 1.47.52 1.97-.4 23.36-5.36 25.35-5.84 1.04-.24 1.09-.44 1.1-1.13 0-.59-.05-1.14-.09-1.6-.09-.75-.28-1.24-1.66-1.13Zm-20.1-11.74c1.06 4.66-1.89 9.34-6.53 10.42a8.657 8.657 0 0 1-10.43-6.53c-1.08-4.67 1.83-9.33 6.53-10.41 4.66-1.08 9.33 1.86 10.43 6.52" class="ab" style="isolation:isolate" opacity=".9" fill="#fff"></path><path d="M370.07 407.51c2.36-.54 4.7.91 5.21 3.26.54 2.32-.89 4.67-3.23 5.21-2.34.52-4.69-.94-5.21-3.26-.55-2.34.91-4.68 3.24-5.21Z" class="v" style="isolation:isolate" opacity=".9" fill="#1a1626"></path><path d="M386.79 408.11c1.06 4.67 5.74 7.6 10.42 6.5 4.65-1.05 7.59-5.71 6.54-10.4-1.08-4.68-5.78-7.6-10.44-6.51-4.67 1.07-7.6 5.73-6.51 10.41Z" class="ab" style="isolation:isolate" opacity=".9" fill="#fff"></path><circle cx="395.25" cy="406.16" r="4.34" class="v" style="isolation:isolate" opacity=".9" fill="#1a1626"></circle><path d="M446.8 155.7c-.75.25-1.54.7-2.35 1.24-.54-.89-1.22-1.68-2.18-2.23-3.8-2.12-7.32-.83-10.45 1.86-1.05-1.7-2.69-2.85-5.02-3.05-9.49-.83-10.57 19.43-18.22 11.55-1.14-1.18-1.75-1.49-2.12-.32-2.01 6.38 1.58 13.79 7.25 15.07 1.6.37 3.11.38 4.54.27-.93 4.43-.39 8.58 3.74 10.89.97.54 2.01.7 3.07.68-.03.95 0 1.87.17 2.63 1.19 5.38 7.54 8.88 12.73 7.12 9.16-3.14 23.75-29.15 21.55-38.57-1.24-5.36-7.47-8.87-12.71-7.13Z" class="x" style="isolation:isolate" opacity=".8" fill="#b36e51"></path><path d="M456.28 179.74c-4.46 9.57-12.1 20.33-18.06 22.36-2.7.93-5.79.57-8.51-.94-2.68-1.52-4.58-3.95-5.21-6.72-.12-.56-.18-1.24-.19-2.04-1.02-.08-1.89-.32-2.67-.78-3.69-2.06-5.13-5.67-4.29-10.74-1.34.05-2.58-.06-3.78-.34-2.67-.58-5-2.42-6.58-5.15-1.89-3.27-2.35-7.33-1.25-10.86.35-1 .8-1.17 1.15-1.24.71-.12 1.36.38 2.23 1.26 1.14 1.17 2.11 1.67 2.97 1.59 1.63-.19 3.11-2.64 4.67-5.23 2.41-4.01 5.15-8.56 10.12-8.13 2.12.18 3.87 1.13 5.1 2.72 3.65-2.88 7.23-3.36 10.68-1.44.78.44 1.44 1.04 2.03 1.87.72-.44 1.32-.73 1.89-.91 2.7-.89 5.79-.54 8.46.96 2.7 1.52 4.6 3.96 5.23 6.72.82 3.6-.63 9.83-3.99 17.07Zm-49.06-14.91s-.03.1-.04.14c-.99 3.13-.56 6.75 1.11 9.67 1.36 2.36 3.35 3.94 5.6 4.45 1.34.29 2.71.38 4.31.24l1-.09-.2.98c-1.06 4.93.06 8.23 3.38 10.09.73.41 1.6.6 2.7.59h.78l-.02.79c-.04 1.02 0 1.81.15 2.41.53 2.33 2.16 4.44 4.48 5.73 2.34 1.32 4.99 1.62 7.29.86 4.83-1.67 12.22-10.94 17.19-21.58 3.23-6.94 4.65-12.82 3.87-16.11-.54-2.34-2.19-4.45-4.5-5.74-2.31-1.31-4.96-1.6-7.25-.86-.59.2-1.26.55-2.18 1.16l-.64.42-.42-.65c-.55-.95-1.18-1.57-1.91-1.97-3.06-1.72-6.21-1.14-9.59 1.77l-.67.58-.47-.76c-.98-1.62-2.48-2.53-4.43-2.71-4.02-.35-6.41 3.6-8.7 7.42-1.77 2.92-3.42 5.67-5.79 5.94-1.34.16-2.71-.51-4.19-2.01-.44-.45-.68-.66-.84-.76Z" class="u" style="isolation:isolate" fill="#302c3b" opacity=".8"></path><path d="M447.49 167.96c-.46-.24-1.19-.29-1.78.45-1.57 1.87-3.66 4.74-5.89 8.71s-3.57 7.28-4.35 9.57c-.32.9.11 1.51.55 1.75 4.13 2.31 10.19 1.26 14.05-5.59 3.83-6.86 1.57-12.58-2.58-14.9Z" class="u" style="isolation:isolate" fill="#302c3b" opacity=".8"></path><path d="M445.29 185.95c1.25-.96 2.38-2.24 3.32-3.91.92-1.66 1.43-3.29 1.6-4.86 0 0-2.82 1.31-3.02 4.09-2.24 1.61-1.9 4.68-1.9 4.68" class="aa" style="isolation:isolate" opacity=".8" fill="#f46c60"></path><path d="M446.27 170.48a54 54 0 0 0-4.98 7.47 59 59 0 0 0-3.77 8.16c-.3.88-.03 1.11.46 1.29.27.11.63.25 1.02.36.44.15.58.11.91-.5.7-1.19 7.94-14.13 8.59-15.34.34-.64.27-.75-.08-1.05-.28-.27-.57-.52-.82-.69-.44-.3-.76-.43-1.33.32Zm-14.99 4.75a5.905 5.905 0 0 1 2.26 8c-1.58 2.82-5.15 3.85-7.99 2.26s-3.85-5.15-2.28-7.99a5.86 5.86 0 0 1 8-2.27Z" class="ac" style="isolation:isolate" opacity=".8" fill="#fff"></path><path d="M425.84 178.93c.82-1.42 2.59-1.93 3.99-1.13 1.43.79 1.94 2.57 1.15 3.99-.81 1.42-2.59 1.93-4 1.14a2.934 2.934 0 0 1-1.14-3.99Z" class="w" style="isolation:isolate" opacity=".8" fill="#1a1626"></path><path d="M433.73 170.85c2.82 1.59 6.43.56 7.99-2.27 1.59-2.82.58-6.4-2.25-7.99-2.83-1.6-6.42-.58-8 2.27a5.88 5.88 0 0 0 2.26 7.99" class="ac" style="isolation:isolate" opacity=".8" fill="#fff"></path><path d="M434.04 164.29c-.79 1.41-.27 3.22 1.13 3.99 1.41.79 3.21.3 3.99-1.11.79-1.43.28-3.22-1.13-4.01a2.943 2.943 0 0 0-3.99 1.13" class="w" style="isolation:isolate" opacity=".8" fill="#1a1626"></path><path d="M384.73 319.59c-.84-.31-1.87-.48-2.97-.57.15-1.19.12-2.38-.36-3.54-1.83-4.61-5.91-5.98-10.61-5.85.29-2.26-.34-4.45-2.26-6.31-7.84-7.53-23.3 9.69-24.47-2.76-.18-1.87-.48-2.57-1.64-1.82-6.35 4.23-8.48 13.39-4.35 18.58 1.17 1.48 2.48 2.57 3.84 3.49-4.01 3.27-6.49 7.35-4.47 12.36.48 1.18 1.27 2.07 2.25 2.8-.73.84-1.35 1.66-1.75 2.46-2.77 5.62.35 13.29 6.22 15.44 10.39 3.76 41.97-8.87 46.75-18.82 2.72-5.66-.31-13.24-6.2-15.45Z" class="x" style="isolation:isolate" opacity=".8" fill="#b36e51"></path><path d="M375.93 347.73c-10.8 5.3-25.29 9.39-32.04 6.93-3.06-1.1-5.55-3.63-6.89-6.92-1.3-3.27-1.24-6.8.19-9.71.31-.58.72-1.23 1.29-1.95-.85-.81-1.44-1.66-1.83-2.6-1.8-4.48-.5-8.71 3.88-12.62-1.23-.94-2.24-1.9-3.12-3.02-1.95-2.42-2.7-5.73-2.14-9.28.67-4.25 3.17-8.2 6.68-10.53 1.02-.64 1.55-.47 1.91-.27.71.41.93 1.31 1.06 2.72.18 1.85.67 3 1.51 3.52 1.59 1.01 4.64-.11 7.88-1.3 5.03-1.83 10.71-3.9 14.8 0 1.77 1.69 2.65 3.79 2.59 6.08 5.3.07 8.82 2.2 10.5 6.37.37.96.53 1.95.48 3.11.95.12 1.7.29 2.33.53 3.03 1.13 5.51 3.67 6.82 6.91 1.31 3.28 1.25 6.81-.16 9.72-1.82 3.81-7.57 8.29-15.74 12.31m-32.91-48.36s-.09.06-.13.09c-3.11 2.08-5.34 5.59-5.93 9.39-.49 3.05.15 5.89 1.77 7.96.99 1.22 2.15 2.29 3.67 3.31l.94.64-.88.73c-4.47 3.61-5.85 7.35-4.23 11.37.37.89.99 1.7 1.97 2.47l.69.55-.57.68c-.79.89-1.29 1.63-1.6 2.25-1.22 2.46-1.26 5.49-.14 8.31 1.14 2.83 3.29 5.02 5.87 5.96 5.5 1.98 18.67-.96 30.71-6.87 7.84-3.85 13.29-8.04 14.97-11.54 1.2-2.47 1.25-5.51.11-8.31-1.12-2.83-3.23-4.99-5.81-5.96-.68-.24-1.54-.42-2.76-.53l-.87-.09.1-.88c.18-1.25.08-2.24-.29-3.12-1.5-3.73-4.69-5.45-9.8-5.29l-1 .03.12-1c.29-2.16-.38-4.04-1.98-5.57-3.33-3.19-8.26-1.38-13.03.36-3.66 1.32-7.11 2.59-9.41 1.13-1.29-.83-2.05-2.4-2.29-4.8-.08-.72-.15-1.08-.21-1.27Z" class="u" style="isolation:isolate" fill="#302c3b" opacity=".8"></path><path d="M376.57 330.98c-.24-.55-.85-1.11-1.91-.88-2.72.54-6.64 1.59-11.47 3.52-4.82 1.95-8.37 3.9-10.73 5.39-.93.57-.97 1.41-.77 1.95 2.02 5.02 8.17 8.42 16.49 5.09 8.33-3.37 10.39-10.07 8.39-15.09Z" class="u" style="isolation:isolate" fill="#302c3b" opacity=".8"></path><path d="M361.73 345.39c1.79.03 3.73-.29 5.75-1.12 1.99-.8 3.63-1.89 4.9-3.16 0 0-3.44-.86-5.59 1.47-3.17-.18-5.06 2.81-5.06 2.81" class="aa" style="isolation:isolate" opacity=".8" fill="#f46c60"></path><path d="M373.67 332.33c-1.74.39-5.39 1.29-9.77 3.08a70 70 0 0 0-9.2 4.52c-.89.57-.8.98-.52 1.48.17.29.38.67.65 1.04.27.44.44.51 1.18.2 1.47-.54 17.16-6.85 18.59-7.46.79-.31.81-.48.71-.99a13 13 0 0 0-.23-1.2c-.15-.55-.36-.91-1.41-.67m-16.71-6.5c1.39 3.44-.3 7.36-3.73 8.71-3.41 1.4-7.31-.27-8.7-3.7a6.69 6.69 0 0 1 3.69-8.72c3.44-1.38 7.35.28 8.74 3.71" class="ac" style="isolation:isolate" opacity=".8" fill="#fff"></path><path d="M349.49 325.22c1.72-.67 3.68.15 4.35 1.86a3.35 3.35 0 0 1-1.83 4.36c-1.73.67-3.69-.16-4.38-1.87-.7-1.7.15-3.66 1.86-4.35" class="w" style="isolation:isolate" opacity=".8" fill="#1a1626"></path><path d="M362.28 323.71c1.37 3.42 5.28 5.09 8.7 3.69 3.43-1.36 5.11-5.26 3.74-8.7-1.4-3.45-5.3-5.12-8.74-3.72-3.43 1.37-5.09 5.27-3.7 8.72Z" class="ac" style="isolation:isolate" opacity=".8" fill="#fff"></path><circle cx="368.49" cy="321.2" r="3.35" class="w" style="isolation:isolate" opacity=".8" fill="#1a1626"></circle><path d="m431.36 335.27 3.97-3.234 12.514 15.356-3.969 3.234zM396.333 83.159l16.151-11.453 2.968 4.185L399.3 87.344zM357.11 190.193l2.444-4.51 17.42 9.434-2.444 4.51z" class="r" fill="#75d6ff"></path><path d="m418.448 126.54.491-5.116 19.71 1.894-.492 5.116zm-59.599 130.301 16.36-11.135 2.875 4.225-16.36 11.135zm-46.746 128.302 18.344-7.453 1.934 4.762-18.344 7.453z" class="s" fill="#a6e639"></path><path d="M445.15 262.39s22.82-31.78 41.92-53.16c18.3 24.02 45.08 69.85.84 110.2-14.23-26.27-42.77-57.04-42.77-57.04Z" fill="url(#1770301554968-4026679_h)"></path><path d="M357.29 508.84c-59.57 16.68-89.98-35.48-78.21-89.1 35.55-6.44 92.88 7.05 105.87 13.85 3.51 1.83 19.23 21.96 27.06 35.2-10.85 17.67-27.08 32.31-54.72 40.05" fill="url(#1770301554968-4026679_i)"></path></g></svg>
