<svg xmlns="http://www.w3.org/2000/svg" data-name="Layer 1" style="" viewBox="0 0 512 1023.99"><g><defs><linearGradient id="1770301554968-7825723_b" x1="319.82" x2="319.82" y1="-97.33" y2="618.17" gradientTransform="matrix(.91 0 0 -.9 -34.13 936.37)" gradientUnits="userSpaceOnUse"><stop offset="0" stop-color="#8400a6"></stop><stop offset=".03" stop-color="#8d07b4"></stop><stop offset=".08" stop-color="#9e14cc"></stop><stop offset=".14" stop-color="#ac1edf"></stop><stop offset=".21" stop-color="#b525ed"></stop><stop offset=".3" stop-color="#ba29f5"></stop><stop offset=".47" stop-color="#bc2af7"></stop><stop offset=".58" stop-color="#b222e8"></stop><stop offset=".79" stop-color="#970ec1"></stop><stop offset=".92" stop-color="#8400a6"></stop></linearGradient><linearGradient id="1770301554968-7825723_c" x1="256" x2="256" y1="576.33" y2="1025.99" gradientTransform="matrix(1 0 0 -1 0 1025.99)" gradientUnits="userSpaceOnUse"><stop offset="0" stop-color="#8400a6"></stop><stop offset=".08" stop-color="#8a04ae"></stop><stop offset=".48" stop-color="#a519d6"></stop><stop offset=".8" stop-color="#b625ee"></stop><stop offset="1" stop-color="#bc2af7"></stop></linearGradient></defs><path d="M444.75 543.85c0-62.43 46.18-163.95 46.18-163.95H21.09s46.18 101.5 46.18 163.95c0 114.16-50.19 190.88-50.19 221.18 0 0 164.19 114.19 195.97 240.83 24.78 23.33 59.42 24.99 85.93 0 31.78-126.64 195.97-240.83 195.97-240.83 0-30.3-50.19-107.02-50.19-221.18Z" fill="url(#1770301554968-7825723_b)"></path><path d="M464.73 155.84C449.02 124.33 442.03 0 442.03 0h-51.62s3.31 125.18-5.65 165.25c-11.94 53.49-34.18 106.19-128.62 106.19s-115.65-51.76-127.61-104.8C119.43 126.27 122.95 0 122.95 0H71.37s-6.43 123.33-22.64 154.08c-87.78 166.56-51.14 295.58 63.34 295.58 68.21 0 144.01-22.02 144.01-22.02s75.86 22.02 144.06 22.02c118.46 0 147.5-127.39 64.59-293.82" fill="url(#1770301554968-7825723_c)"></path></g></svg>
