<svg xmlns="http://www.w3.org/2000/svg" data-name="Layer 1" style="" viewBox="0 0 512 426.66"><g><defs><linearGradient id="1770301554969-6396989_b" x1="256" x2="256" y1="374.28" y2="2" gradientTransform="matrix(1 0 0 -1 0 428.66)" gradientUnits="userSpaceOnUse"><stop offset="0" stop-color="#690900"></stop><stop offset=".02" stop-color="#76120b"></stop><stop offset=".08" stop-color="#9a2c2b"></stop><stop offset=".14" stop-color="#b94247"></stop><stop offset=".21" stop-color="#d2545d"></stop><stop offset=".29" stop-color="#e5626e"></stop><stop offset=".38" stop-color="#f36c7a"></stop><stop offset=".5" stop-color="#fb7181"></stop><stop offset=".71" stop-color="#fd7383"></stop></linearGradient><linearGradient id="1770301554969-6396989_c" x1="255.97" x2="255.97" y1="121.08" y2="369.75" gradientTransform="matrix(1 0 0 -1 0 428.66)" gradientUnits="userSpaceOnUse"><stop offset="0" stop-color="#c21000" stop-opacity=".06"></stop><stop offset=".18" stop-color="#be1000" stop-opacity=".08"></stop><stop offset=".36" stop-color="#b20f00" stop-opacity=".1"></stop><stop offset=".53" stop-color="#9e0d00" stop-opacity=".12"></stop><stop offset=".71" stop-color="#820b00" stop-opacity=".14"></stop><stop offset=".88" stop-color="#5f0800" stop-opacity=".17"></stop><stop offset="1" stop-color="#420600" stop-opacity=".18"></stop></linearGradient></defs><path d="M477.78.65C443.05 7.57 361.88 22.01 256 22.01S68.95 7.58 34.21.65C11.72-3.81-1.76 15.54.19 31.88 10.47 117.46 99.4 196.84 256 196.84s245.53-79.38 255.81-164.96c1.95-16.33-11.55-35.69-34.04-31.22Z" fill="#1a1626"></path><path d="M95.89 110.37v99.02c0 144.64 71.71 217.22 160.11 217.27 88.4-.05 160.12-72.64 160.12-217.27v-99.02C416.12 23.92 256 63.35 256 63.35S95.89 23.91 95.89 110.36Z" fill="url(#1770301554969-6396989_b)"></path><path d="M233.24 58.91 256 307.58l22.71-248.67c-13.7 2.24-22.71 4.44-22.71 4.44s-9.06-2.19-22.76-4.44" fill="url(#1770301554969-6396989_c)"></path></g></svg>
