<svg xmlns="http://www.w3.org/2000/svg" id="a" data-name="Layer 1" viewBox="0 0 512 597.33"><defs><linearGradient id="b" x1="417.77" x2="417.77" y1="110.02" y2="594.12" gradientTransform="matrix(1 0 0 -1 0 595.33)" gradientUnits="userSpaceOnUse"><stop offset=".05" stop-color="#473834"/><stop offset=".23" stop-color="#594640"/><stop offset=".52" stop-color="#715950"/><stop offset=".7" stop-color="#7a6056"/></linearGradient><linearGradient id="c" x1="1176.59" x2="1176.59" y1="110.02" y2="594.12" gradientTransform="matrix(-1 0 0 -1 1270.81 595.33)" gradientUnits="userSpaceOnUse"><stop offset=".05" stop-color="#473834"/><stop offset=".23" stop-color="#594640"/><stop offset=".52" stop-color="#715950"/><stop offset=".7" stop-color="#7a6056"/></linearGradient><linearGradient id="f" x1="236.85" x2="236.85" y1="78.18" y2="113.5" gradientTransform="matrix(1.14 -.0002 .00022 -1 -13.05 595.14)" gradientUnits="userSpaceOnUse"><stop offset=".1" stop-color="#302c3b"/><stop offset=".55" stop-color="#404754"/></linearGradient><linearGradient id="h" x1="-616.61" x2="-616.61" y1="401.74" y2="393.65" gradientTransform="translate(4235.16 -2365.4)scale(6.57)" gradientUnits="userSpaceOnUse"><stop offset="0" stop-color="#a6694a"/><stop offset="1" stop-color="#4f2a1e"/></linearGradient><linearGradient id="n" x1="-597.48" x2="-597.48" y1="401.74" y2="393.65" gradientTransform="translate(4252.89 -2365.4)scale(6.57)" gradientUnits="userSpaceOnUse"><stop offset="0" stop-color="#a6694a"/><stop offset="1" stop-color="#4f2a1e"/></linearGradient><linearGradient id="s" x1="256.01" x2="256.01" y1="110.03" y2="594.13" gradientTransform="matrix(1 0 0 -1 0 595.33)" gradientUnits="userSpaceOnUse"><stop offset=".05" stop-color="#473834"/><stop offset=".23" stop-color="#594640"/><stop offset=".52" stop-color="#715950"/><stop offset=".7" stop-color="#7a6056"/></linearGradient><radialGradient id="d" cx="174.85" cy="2366.49" r="221.76" fx="-2.59" fy="2446.95" gradientTransform="rotate(-179.99 147.863 -315.138)scale(.85 -.5)" gradientUnits="userSpaceOnUse"><stop offset=".26" stop-color="#404754"/><stop offset=".36" stop-color="#302c3b"/><stop offset=".5" stop-color="#404754"/></radialGradient><radialGradient id="e" cx="246.3" cy="2366.57" r="221.8" fx="68.84" fy="2447.04" gradientTransform="matrix(.85 -.0003 -.00012 .5 155.24 -630.25)" gradientUnits="userSpaceOnUse"><stop offset=".26" stop-color="#404754"/><stop offset=".36" stop-color="#302c3b"/><stop offset=".5" stop-color="#404754"/></radialGradient><style>.ab{fill:#473834}.ae{fill:#1a1626}.ag{fill:#fff}.ah{fill:#ab968c}.ai{fill:#45332c}.am{fill:#302c3b}</style></defs><path d="M336.87 477.25c161.79-64.7 145.6-218.41 145.6-218.41H29.5S13.33 412.55 175.08 477.25c0 0 32.37 8.09 80.9 8.09s80.9-8.09 80.9-8.09Z" class="ab"/><path d="M419.54 275.24c16.57 69.67 7.83 138.66-82.67 202.01 97.09-16.19 161.79-107.85 161.79-178.19l-79.13-23.82Z" style="fill:url(#b)"/><path d="M92.44 275.24c-16.54 69.67-7.81 138.66 82.69 202.01-97.09-16.18-161.8-107.85-161.8-178.19l79.1-23.82Z" style="fill:url(#c)"/><path d="M45.38 498.32c25.62-13.73 125.29-50.21 125.29-50.21l170.67-.31s100.41 36.7 125.88 50.5c37.01 19.96 44.79 47.23 44.79 73 0 13.14-73.44 21.31-164.67 24.5H164.78C73.49 592.61.01 584.44.01 571.3c0-25.81 8.26-53.09 45.38-72.98Z" class="am"/><path d="M176.85 445.69h158.3l-13.19 151.64H189.22z" style="fill:#e6ebef"/><path d="M170.67 383.06h170.67v108.85H170.67z" style="fill:#f5bb51"/><path d="m341.33 436.37 14.14 12.06s-9.56 31.43-23.77 108.7l-75.71-65.23s61.02 1.19 85.33-55.54Z" class="ag"/><path d="m170.67 436.37-14.12 12.06s9.54 31.43 23.74 108.7L256 491.9s-61.02 1.19-85.33-55.54Z" class="ag"/><path d="M347.41 595.79s30.01-35.41 48.53-81.09l-23.56-25.33 37.49-7.34s-24.99-21.94-54.4-33.6c0 0-20.77 68.42-54.37 148.9l46.3-1.54Zm-182.78 0s-30.01-35.41-48.53-81.09l23.55-25.33-37.48-7.34s24.98-21.94 54.38-33.6c0 0 20.79 68.42 54.39 148.9l-46.3-1.54Z" style="fill:#4e5e67"/><path d="M266.67 563.17c0 14.23-21.33 14.23-21.33 0s21.33-14.21 21.33 0" class="am"/><path d="M251.45 499.34c-9.49 30.12-58.37 38.29-61.25 33.86-5.87-9.05-11.31-45.56-.12-65.73 1.73-3.11 54.13-2.4 61.37 31.87" style="fill:url(#d)"/><path d="M260.54 499.34c9.48 30.12 58.37 38.29 61.25 33.83 5.87-9.05 11.32-45.56.13-65.73-1.72-3.11-54.13-2.4-61.38 31.89Z" style="fill:url(#e)"/><path d="M256.03 516c-13.11.02-16.34 6.79-16.39-16.73-.01-23.52 3.24-16.75 16.35-16.77 13.11 0 16.34-6.82 16.37 16.73.03 23.5-3.23 16.77-16.33 16.77" style="fill:url(#f)"/><path d="M256 24.28c-117.4 0-173.94 95.59-166.88 218.51 1.46 24.69 8.33 60.34 16.81 90.88 17.61 63.48 110.51 127.4 150.07 127.4s132.44-63.91 150.06-127.39c8.48-30.54 15.35-66.19 16.79-90.88C429.92 119.88 373.4 24.28 256 24.28" style="fill:#ffc940"/><path d="M255.98 361.27c-27.5-12.09-27.73-.48-70.19 2.36 15.94 18.12 27.67 41.4 70.17 41.4 48.79 0 57.05-26.44 70.25-41.4-42.52-2.84-42.69-14.44-70.23-2.36" style="fill:#d47706"/><path d="M198.54 368.15c27.73 28.85 87.52 28.48 114.89.02-42.68 4.58-72.2 4.58-114.89-.02" class="ag"/><path d="M380.73 201.89c-25.5-15.2-71.25-17.08-89.35-6.71-3.83 2.09-2.82 13.08.52 11.7 25.81-10.75 65.14-11.29 89.38 1.15 3.25 1.64 3.34-3.94-.54-6.14Zm-249.48 0c25.5-15.2 71.23-17.08 89.38-6.71 3.83 2.09 2.82 13.08-.52 11.7-25.83-10.75-65.12-11.31-89.4 1.15-3.25 1.64-3.32-3.94.54-6.14" style="fill:#966f42"/><path d="M282.38 322.27c-2.79-1.96-9.35 1.07-26.4 1.07s-23.58-3.02-26.38-1.07c-3.35 2.36 1.96 12.98 26.38 12.98s29.77-10.6 26.4-12.98" style="fill:#f0a429"/><path id="g" d="M229.88 248c1 7.75-4.27 16.97-18.88 23.87-9.27 4.38-28.57 9.56-53.92-1.14-11.37-4.78-22.44-19.7-21.44-27.95 13.74-25.9 81.39-29.7 94.24 5.22" class="ag" data-name="Path"/><circle id="i" cx="183.98" cy="247.48" r="26.56" data-name="Oval" style="fill:url(#h)"/><path id="j" d="M170.71 247c0 18.38 26.58 18.38 26.58 0 0-17.07-26.58-17.07-26.58 0" class="ae" data-name="Path"/><path id="k" d="M166.67 239.55c0 7.71 11.15 7.71 11.15 0 0-7.14-11.15-7.14-11.15 0" class="ah" data-name="Path"/><path id="l" d="M230.01 249.02c-10.79-34.68-84.35-29.56-94.36-6.24 3.7-29.86 85.16-37.74 94.36 6.24" class="ai" data-name="Path"/><path id="m" d="M282.1 248c-.98 7.75 4.29 16.97 18.89 23.87 9.27 4.38 28.57 9.56 53.92-1.14 11.37-4.78 22.44-19.7 21.44-27.95-13.73-25.9-81.38-29.7-94.25 5.22" class="ag" data-name="Path"/><circle id="o" cx="327.39" cy="247.48" r="26.56" data-name="Oval" style="fill:url(#n)"/><path id="p" d="M314.12 247c0 18.38 26.58 18.38 26.58 0 0-17.07-26.58-17.07-26.58 0" class="ae" data-name="Path"/><path id="q" d="M310.08 239.55c0 7.71 11.15 7.71 11.15 0 0-7.14-11.15-7.14-11.15 0" class="ah" data-name="Path"/><path id="r" d="M282.01 249.02c10.77-34.66 84.29-29.7 94.36-6.24-3.73-29.86-85.17-37.74-94.36 6.24" class="ai" data-name="Path"/><path d="M388.11 41.43c13.42-19.14-100.13-59.54-207.34-32.25C73.69 33.71 13.33 194.14 13.33 299.06c9.58 7.61 68.22-11.35 79.1-23.82 4.44-18.36 11.43-37.25 17.96-56.83 80.42-46.56 171.41-57.53 234.58-113.25-8.11 24.27 34.73 54.88 56.63 113.25 7.1 18.93 13.44 37.91 17.94 56.83 17.86 16.45 53.48 24.19 79.13 23.82-.01-88.75-67.66-270.02-110.57-257.63Z" style="fill:url(#s)"/><path d="M32.61 283.1c74.08-98.63 314.02-91.95 355.5-241.67C307.56 167.1 52.85 188.3 32.61 283.1" class="ab"/></svg>