<svg xmlns="http://www.w3.org/2000/svg" id="a" data-name="Layer 1" viewBox="0 0 512 511.99"><defs><linearGradient id="b" x1="-2224.16" x2="-2136.14" y1="539.18" y2="539.18" gradientTransform="rotate(185 -1036.892 254.27)" gradientUnits="userSpaceOnUse"><stop offset="0" stop-color="#473834"/><stop offset=".34" stop-color="#5e4a43"/><stop offset=".74" stop-color="#735a51"/><stop offset="1" stop-color="#7a6056"/></linearGradient><linearGradient id="c" x1="-2330.94" x2="-2206.79" y1="558.98" y2="558.98" gradientTransform="rotate(185 -1036.892 254.27)" gradientUnits="userSpaceOnUse"><stop offset="0" stop-color="#7a6056"/><stop offset=".31" stop-color="#775d54"/><stop offset=".57" stop-color="#6d554d"/><stop offset=".8" stop-color="#5b4842"/><stop offset="1" stop-color="#473834"/></linearGradient><linearGradient id="f" x1="-2318.31" x2="-2318.31" y1="532.32" y2="546.88" gradientTransform="rotate(185 -1036.892 254.27)" gradientUnits="userSpaceOnUse"><stop offset="0" stop-color="#a6694a"/><stop offset="1" stop-color="#4f2a1e"/></linearGradient><linearGradient id="j" x1="32.21" x2="504.43" y1="194.95" y2="194.95" gradientTransform="matrix(1 0 0 -1 0 513.99)" gradientUnits="userSpaceOnUse"><stop offset="0" stop-color="#ff3b3b"/><stop offset=".28" stop-color="#fc3838"/><stop offset=".53" stop-color="#f32d2d"/><stop offset=".76" stop-color="#e31b1b"/><stop offset=".99" stop-color="#cd0302"/><stop offset="1" stop-color="#cc0100"/></linearGradient><linearGradient id="k" x1="462.99" x2="537.68" y1="302.45" y2="302.45" gradientTransform="rotate(45 -556.17 -370.173)scale(1 -1)" gradientUnits="userSpaceOnUse"><stop offset="0" stop-color="#db9442"/><stop offset=".39" stop-color="#cf843d"/><stop offset="1" stop-color="#b86432"/></linearGradient><linearGradient id="l" x1="482.04" x2="518.67" y1="610.34" y2="610.34" gradientTransform="rotate(45 -556.17 -370.173)scale(1 -1)" gradientUnits="userSpaceOnUse"><stop offset="0" stop-color="#db9442"/><stop offset=".39" stop-color="#cf843d"/><stop offset="1" stop-color="#b86432"/></linearGradient><linearGradient id="m" x1="500.36" x2="500.36" y1="199.49" y2="630.01" gradientTransform="rotate(45 -556.17 -370.173)scale(1 -1)" gradientUnits="userSpaceOnUse"><stop offset="0" stop-color="#f5a54a"/><stop offset=".34" stop-color="#eb9e47"/><stop offset="1" stop-color="#db9442"/></linearGradient><style>.w{fill:#ffc940}.y{fill:#b00505}.z{fill:#f5bb51}.aa{fill:#fff}.ab{fill:#8e3ed6}.af{fill:#f0a429}</style></defs><path d="M97.4 113.8c-5.49 1.48-11.6 1.68-18.5-.2 52.27-24.03 21.91-139.8 97.42-103.45l-13.41 27.2c-22.45 2.33 5.28 64.02-36.9 80.56 4.32-3.38 5-11.17 4.75-20.46-10.07 25.77-19.87 43.82-50.75 37.49 5.71-.72 12.09-9.62 17.39-21.14" style="fill:url(#b)"/><path d="M183.05 11.1c8.7 7.31-5.12 32.54-23.82 32.02-15.37-.4 9.47-44.07 23.82-32.02" class="ab"/><path d="M240.05 144.36c-10.58-6.22-22.98 7.71-24.08 11.7-3.6 13.08-42.56-10.8-35.64-25.58 6.03-12.83.91-29.29.91-29.29 7.72-3.57 37.77-48.95 58.8 43.17Z" class="z"/><path d="M243.62 12.13c33.08 8.29 43.28 33.31 35.4 61.08-1.78 6.28 1.38 17.55 8.87 25.27 2.73 2.82 2.73 6.23 1.1 8.35-3.23 4.2-9.45 3.69-12.22 5.12-6.12 3.2-.65 7.8-5.42 11.78-2.15 1.82-7.62-1.33-2.53 9.74-7.1 4.3.28 16.12-14.35 17.37-6.95.58-32.25-12.2-44.4-31.83C203.2 107.91 203 95.7 203 95.7c-25.08-9.69-32.21-32.95-24.6-55.99 10.64-32.21 43.79-32.95 65.23-27.58Z" class="w"/><path d="M271.35 123.73c-3.32 1.65-2.2 4.8-2.2 4.8 1.52.14 1.45 5.16-.8 4.98-7.85-.7-14.46-8.06-16.47-12.36 12.36.48 26.34-3.91 19.47 2.58" style="fill:#d47706"/><path d="M271.35 123.73s-1.57 4.18-2.2 4.8c-2.47-.21-10.33-2.68-14.98-6.37l17.19 1.56Z" class="aa"/><path d="M173.12 23.63c7.71-18.83 38.33-28.94 66.36-20.79 27.26 7.94 46.05 28.78 40.47 40.85-7.94 17.1-47.13 13.36-64.35 42.02-.38 2.03-10.86 2.55-11.45 4.32-4.79 14.2-16.95 25.25-20.92 23.82-27.67-10.07-41.71-81.13-10.11-90.21Z" style="fill:url(#c)"/><path d="M288.89 106.86c-2.87 5.96-17.83 6.02-21.91-1.92 7.33 6.36 23.58-1.56 21.91 1.92" class="af"/><path d="M205.62 64.43c12.3 3.69 13.73 32.28 3.81 37.6-1.38.75-8.32.91-11.33-6.33-1.66-4-8.52-8.53-8.85-16.14-.45-9.75 4.15-18.82 16.37-15.13" class="w"/><path id="d" d="M204.52 69.59c3.08 1.37 5.75 5.3 6.19 10.98-11.02-4.05-11.6 8.67-1.72 11.05-.45 1.2-.93 2.41-1.55 3.69-3.52-5.45-8.9-4.74-11.85-12.33-2.65-6.87 1.26-16.75 8.93-13.39" class="af" data-name="Path"/><path id="e" d="M249.07 64.75c7.48-3.5 21.16-2.5 26 .82 1.03.65-.03 4.5-.91 4.04-6.83-3.67-18.24-4.75-25.17-1.94-.92.37-1.05-2.43.09-2.92Z" data-name="Path" style="fill:#966f42"/><path d="M250.79 79.47c-.32 1.8 4.81 8.81 12.03 10.05 4.13.72 5.9-2.36 7.12-5.73 2.1-13.69-14.52-10.21-19.15-4.32" class="aa"/><path id="g" d="M270.37 82.04c-.87 10.02-12.47 9.02-11.6-1 .81-9.32 12.41-8.3 11.6 1" data-name="Path" style="fill:url(#f)"/><path id="h" d="M269.2 81.5c-.44 5.02-6.23 4.5-5.79-.5.4-4.67 6.2-4.15 5.79.5" data-name="Path" style="fill:#1a1626"/><path id="i" d="M265.8 79.16c-.18 2.08-3.55 1.8-3.37-.3.17-1.95 3.54-1.66 3.37.3" data-name="Path" style="fill:#ab968c"/><path d="M250.79 79.47c3.67-5.96 19.62-9.15 19.29-.68-1.69-5.87-13.49-3.77-19.29.68" style="fill:#45332c"/><path d="M85.49 284.97s70.31 17.52 98.97 11.26c3.48-21.25 6.37-62.05 12.5-61.06 8.92 1.43 45.43-10.04 23.33-71.19-8-22.14-38.55-37.15-38.55-37.15-46.4 35.74-75.26 96.4-96.25 158.14" class="ab"/><path d="M104.05 371.65c137.45-30.05 270.81-68.53 399.4-114.64 2.83-.21 5.68-.44 8.55-.67l-1.35-17c-160.7 12.7-322.1 13.4-482.88 2.12-.77-2.9-1.54-5.82-2.3-8.71-8.48-.61-16.98-1.25-25.46-1.92 5.37 71.7 62.67 126.92 104.05 140.82Z" class="y"/><path d="M104.05 371.65c27.89 14.52 367.33 11.85 392.7-5.3 11.47-42.21 6.7-109.34 6.7-109.34a3264 3264 0 0 1-471.24 1.87c22.94 80.84 71.88 112.84 71.83 112.77Z" style="fill:url(#j)"/><path d="M501.3 296.53c-79.9 18.17-346.5 13.1-449.73 0 110.22 3.5 307.55 11.3 449.73 0m-4.86 40c-74.14 18.17-321.48 13.1-417.25 0 102.25 3.5 285.33 11.3 417.25 0" class="y"/><path d="M155.32 370.98c-30.3 17.1-101.42 85.63-99.83 96.95 3.23 22.95 21.37 40.71 44.07 44.03 11.43 1.66 80.4-68.79 97.47-99.29 25.57-45.73 18.71-60.47 18.71-60.47s-15.08-6.84-60.42 18.77Z" style="fill:url(#k)"/><path d="m387.57 206.13-25.9-25.9c-9 9.02-14.85 40.75-14.85 40.75s31.73-5.81 40.75-14.85" style="fill:url(#l)"/><path d="M75.2 501.7s-5.07-3.15-9.15-9.04l304.02-304.04 9.08 9.1z" style="fill:url(#m)"/><path d="m340.28 218.38 6.07-6.07c-6.87-6.45-9.72-.1-23.25 8.55 0 0-50.4-4.77-83.2-28.33l-15.39 27.5c38.4 23.42 88.95 23.55 88.95 23.55 4.05 3.78 16.8 6.47 22.84 5.55 8.3-1.26 17.72-8.69 16.58-15.09 10.19-12.45-10.71-9-12.6-15.67Z" class="z"/><path d="M345.88 235.46s5.6 1.2 7-1.42c-2.47 1.02-7 1.42-7 1.42m-3.33 7.27s6.42 1.12 7.82-1.48c-2.47 1.01-7.82 1.48-7.82 1.48m-4.94 4.21s5.65 1.65 7.07-.95c-2.47 1-7.07.95-7.07.95" class="af"/><path d="M213.53 155.8c-5.98-9.75-21.07-8.67-29.53-.68-8.5 7.97-6.26 19.27-1.2 29.57 7.7 15.6 22.31 28.45 39.42 38.85l21.93-35.5c-11.66-8.41-22.44-18.94-30.61-32.24Z" style="fill:#732eb0"/></svg>