<svg xmlns="http://www.w3.org/2000/svg" data-name="Layer 1" style="" viewBox="0 0 512 597.34"><g><defs><linearGradient id="1770301554985-6888294_b" x1="417.77" x2="417.77" y1="110.04" y2="594.12" gradientTransform="matrix(1 0 0 -1 0 595.34)" gradientUnits="userSpaceOnUse"><stop offset=".05" stop-color="#473834"></stop><stop offset=".23" stop-color="#594640"></stop><stop offset=".52" stop-color="#715950"></stop><stop offset=".7" stop-color="#7a6056"></stop></linearGradient><linearGradient id="1770301554985-6888294_c" x1="1176.59" x2="1176.59" y1="110.04" y2="594.12" gradientTransform="rotate(180 635.405 297.67)" gradientUnits="userSpaceOnUse"><stop offset=".05" stop-color="#473834"></stop><stop offset=".23" stop-color="#594640"></stop><stop offset=".52" stop-color="#715950"></stop><stop offset=".7" stop-color="#7a6056"></stop></linearGradient><linearGradient id="1770301554985-6888294_e" x1="-616.6" x2="-616.6" y1="401.73" y2="393.65" gradientTransform="matrix(6.57 0 0 6.57 4235.16 -2365.41)" gradientUnits="userSpaceOnUse"><stop offset="0" stop-color="#a6694a"></stop><stop offset="1" stop-color="#4f2a1e"></stop></linearGradient><linearGradient id="1770301554985-6888294_k" x1="-597.48" x2="-597.48" y1="401.73" y2="393.65" gradientTransform="matrix(6.57 0 0 6.57 4252.89 -2365.41)" gradientUnits="userSpaceOnUse"><stop offset="0" stop-color="#a6694a"></stop><stop offset="1" stop-color="#4f2a1e"></stop></linearGradient><linearGradient id="1770301554985-6888294_p" x1="256.01" x2="256.01" y1="110.03" y2="594.13" gradientTransform="matrix(1 0 0 -1 0 595.34)" gradientUnits="userSpaceOnUse"><stop offset=".05" stop-color="#473834"></stop><stop offset=".23" stop-color="#594640"></stop><stop offset=".52" stop-color="#715950"></stop><stop offset=".7" stop-color="#7a6056"></stop></linearGradient></defs><path d="M336.87 477.24c161.79-64.7 145.62-218.41 145.62-218.41H29.53s-16.19 153.7 145.58 218.41c0 0 32.37 8.1 80.87 8.1s80.9-8.1 80.9-8.1Z" class="v" fill="#473834"></path><path d="M419.56 275.24c16.54 69.67 7.81 138.66-82.69 202.01 97.09-16.18 161.79-107.84 161.79-178.18z" fill="url(#1770301554985-6888294_b)"></path><path d="M92.46 275.24c-16.57 69.67-7.83 138.66 82.67 202.01-97.09-16.18-161.8-107.85-161.8-178.19z" fill="url(#1770301554985-6888294_c)"></path><path d="M45.38 498.33c25.62-13.75 113.34-43.61 113.34-43.61l194.33-.37s88.69 30.14 114.15 43.94c37.02 19.98 44.8 47.25 44.8 73.02 0 34.71-512 34.71-512 0 0-25.81 8.26-53.09 45.38-72.98" fill="#8e3ed6"></path><path d="m92.44 591.82-7.11-.7c0-53.71 7.11-53 7.11.7m334.22-.7-7.09.7c0-53.71 7.09-54.41 7.09-.7m-267.94-136.4c0 81.79 194.33 81.42 194.33-.37l-17.48-6.04h-158.3l-18.54 6.41Z" fill="#732eb0"></path><path d="M174.08 450.59c0 64.02 163.83 64.02 163.83 0v-70.84H174.08z" fill="#f5bb51"></path><path d="M256 24.27c-117.38 0-173.92 95.59-166.86 218.51 1.44 24.69 8.31 60.34 16.79 90.88C123.54 397.14 216.44 461.07 256 461.07s132.44-63.93 150.06-127.4c8.48-30.53 15.35-66.18 16.81-90.88C429.92 119.87 373.42 24.27 256 24.27" fill="#ffc940"></path><path d="M282.4 322.27c-2.82-1.96-9.35 1.06-26.42 1.06s-23.58-3.01-26.38-1.06c-3.35 2.36 1.98 12.98 26.38 12.98s29.77-10.61 26.42-12.98" class="ag" fill="#f0a429"></path><path id="1770301554985-6888294_d" d="M229.9 248c.98 7.75-4.29 16.97-18.89 23.87-9.27 4.38-28.57 9.56-53.92-1.14-11.35-4.78-22.44-19.7-21.44-27.95 13.75-25.91 81.38-29.7 94.25 5.22" class="ab" data-name="Path" fill="#fff"></path><circle id="1770301554985-6888294_f" cx="184" cy="247.47" r="26.56" data-name="Oval" fill="url(#1770301554985-6888294_e)"></circle><path id="1770301554985-6888294_g" d="M170.73 246.99c0 18.38 26.56 18.38 26.56 0 0-17.06-26.56-17.06-26.56 0" class="z" data-name="Path" fill="#1a1626"></path><path id="1770301554985-6888294_h" d="M166.69 239.54c0 7.71 11.13 7.71 11.13 0 0-7.14-11.13-7.14-11.13 0" class="ad" data-name="Path" fill="#ab968c"></path><path id="1770301554985-6888294_i" d="M230.02 249.02c-10.79-34.68-84.35-29.56-94.38-6.24 3.71-29.86 85.17-37.74 94.38 6.24" class="ae" data-name="Path" fill="#45332c"></path><path id="1770301554985-6888294_j" d="M282.12 248c-1 7.75 4.27 16.97 18.88 23.87 9.27 4.38 28.57 9.56 53.92-1.14 11.37-4.78 22.44-19.7 21.44-27.95-13.74-25.91-81.39-29.7-94.24 5.22" class="ab" data-name="Path" fill="#fff"></path><circle id="1770301554985-6888294_l" cx="327.41" cy="247.47" r="26.56" data-name="Oval" fill="url(#1770301554985-6888294_k)"></circle><path id="1770301554985-6888294_m" d="M314.14 246.99c0 18.38 26.58 18.38 26.58 0 0-17.06-26.58-17.06-26.58 0" class="z" data-name="Path" fill="#1a1626"></path><path id="1770301554985-6888294_n" d="M310.1 239.54c0 7.71 11.13 7.71 11.13 0 0-7.14-11.13-7.14-11.13 0" class="ad" data-name="Path" fill="#ab968c"></path><path id="1770301554985-6888294_o" d="M282.01 249.02c10.79-34.66 84.29-29.7 94.36-6.24-3.73-29.86-85.17-37.74-94.36 6.24" class="ae" data-name="Path" fill="#45332c"></path><path d="M206.77 394.44c30.01-18.3 68.5-18.3 98.47 0 4.25 2.57 4.77-.2 3.46-2.42-22.19-37.32-83.21-37.32-105.4 0-1.3 2.22-.81 4.99 3.47 2.42" fill="#c1873c"></path><path d="M375.87 198.85c-28.13-23.09-75.15 9.19-94.01 5.66-3.98.26-.19 13.58 3.13 13.38 25.88-.37 64.94-31.11 91-10.17 3.45 2.4 4.1-5.63-.12-8.87m-239.72 0c28.11-23.09 75.15 9.19 94.01 5.66 3.98.26.19 13.58-3.15 13.38-25.86-.37-64.9-31.11-91-10.17-3.42 2.4-4.1-5.62.14-8.87" fill="#966f42"></path><path d="M230.75 403.86c15.37-8.77 35.15-8.77 50.54 0 2.17 1.24 2.44-.09 1.77-1.14-11.39-17.88-42.71-17.88-54.1 0-.67 1.06-.42 2.39 1.79 1.14" class="ag" fill="#f0a429"></path><path d="M388.13 41.43c13.4-19.14-100.15-59.54-207.34-32.25C73.71 33.7 13.33 194.13 13.33 299.06c9.58 7.61 68.22-11.35 79.13-23.82 4.44-18.36 11.41-37.25 17.94-56.83 80.42-46.56 171.41-57.53 234.58-113.25-8.09 24.27 34.73 54.88 56.63 113.25 7.1 18.93 13.46 37.91 17.96 56.83 17.86 16.44 53.48 24.19 79.1 23.82-.01-88.75-67.64-270.02-110.55-257.63Z" fill="url(#1770301554985-6888294_p)"></path><path d="M32.63 283.1c74.06-98.63 314.01-91.95 355.5-241.67C307.56 167.09 52.85 188.29 32.63 283.1" class="v" fill="#473834"></path></g></svg>
