<svg xmlns="http://www.w3.org/2000/svg" data-name="Layer 1" style="" viewBox="0 0 512 551.39"><g><defs><linearGradient id="1770301554997-5557532_b" x1="405.33" x2="405.33" y1="101.41" y2="548.27" gradientTransform="matrix(1 0 0 -1 0 549.39)" gradientUnits="userSpaceOnUse"><stop offset=".05" stop-color="#473834"></stop><stop offset=".23" stop-color="#594640"></stop><stop offset=".52" stop-color="#715950"></stop><stop offset=".7" stop-color="#7a6056"></stop></linearGradient><linearGradient id="1770301554997-5557532_c" x1="1164.14" x2="1164.14" y1="101.41" y2="548.27" gradientTransform="rotate(180 635.405 274.695)" gradientUnits="userSpaceOnUse"><stop offset=".05" stop-color="#473834"></stop><stop offset=".23" stop-color="#594640"></stop><stop offset=".52" stop-color="#715950"></stop><stop offset=".7" stop-color="#7a6056"></stop></linearGradient><linearGradient id="1770301554997-5557532_e" x1="-615.77" x2="-615.77" y1="379.06" y2="371.59" gradientTransform="matrix(6.57 0 0 6.57 4235.16 -2237.45)" gradientUnits="userSpaceOnUse"><stop offset="0" stop-color="#a6694a"></stop><stop offset="1" stop-color="#4f2a1e"></stop></linearGradient><linearGradient id="1770301554997-5557532_k" x1="-598.31" x2="-598.31" y1="379.06" y2="371.59" gradientTransform="matrix(6.57 0 0 6.57 4252.89 -2237.45)" gradientUnits="userSpaceOnUse"><stop offset="0" stop-color="#a6694a"></stop><stop offset="1" stop-color="#4f2a1e"></stop></linearGradient><linearGradient id="1770301554997-5557532_p" x1="256.01" x2="256.01" y1="101.38" y2="548.27" gradientTransform="matrix(1 0 0 -1 0 549.39)" gradientUnits="userSpaceOnUse"><stop offset=".05" stop-color="#473834"></stop><stop offset=".23" stop-color="#594640"></stop><stop offset=".52" stop-color="#715950"></stop><stop offset=".7" stop-color="#7a6056"></stop></linearGradient><linearGradient id="1770301554997-5557532_q" x1="256" x2="256" y1="-2" y2="234.31" gradientTransform="matrix(1 0 0 -1 0 549.39)" gradientUnits="userSpaceOnUse"><stop offset="0" stop-color="#99a8ae"></stop><stop offset=".93" stop-color="#cfd8dd"></stop><stop offset=".98" stop-color="#e6ebef"></stop></linearGradient></defs><path d="M330.66 440.54c149.35-59.73 134.4-201.6 134.4-201.6H46.92S31.99 380.82 181.3 440.54c0 0 29.88 7.46 74.67 7.46s74.67-7.46 74.67-7.46Z" class="z" fill="#473834"></path><path d="M406.96 254.07c15.29 64.34 7.23 128-76.31 186.47C420.27 425.59 480 341 480 276.08z" fill="url(#1770301554997-5557532_b)"></path><path d="M105.02 254.07c-15.27 64.34-7.21 128 76.33 186.47C91.73 425.6 32 341 32 276.08z" fill="url(#1770301554997-5557532_c)"></path><path d="M256 22.42c-108.37 0-160.56 88.23-154.05 201.69 1.35 22.8 7.69 55.72 15.52 83.89C133.73 366.6 219.48 425.6 256 425.6s122.25-59 138.52-117.59c7.83-28.17 14.17-61.09 15.5-83.89 6.53-113.47-45.65-201.7-154.02-201.7" fill="#ffc940"></path><path d="M371.13 186.36c-23.54-14.02-65.77-15.75-82.48-6.19-3.53 1.94-2.6 12.08.48 10.81 23.83-9.93 60.13-10.43 82.5 1.05 3 1.53 3.08-3.63-.5-5.67m-230.28 0c23.54-14.02 65.75-15.75 82.5-6.19 3.53 1.94 2.6 12.08-.48 10.81-23.85-9.93-60.11-10.45-82.52 1.05-3 1.53-3.06-3.63.5-5.67" fill="#966f42"></path><path d="M280.35 297.51c-2.58-1.81-8.64.96-24.37.96s-21.77-2.77-24.35-.96c-3.09 2.18 1.81 11.98 24.35 11.98s27.48-9.81 24.37-11.98" fill="#f0a429"></path><path id="1770301554997-5557532_d" d="M231.89 228.94c.93 7.16-3.94 15.66-17.43 22.04-8.56 4.04-26.37 8.81-49.77-1.05-10.5-4.42-20.72-18.2-19.79-25.81 12.68-23.91 75.13-27.4 86.99 4.82" class="ac" data-name="Path" fill="#fff"></path><circle id="1770301554997-5557532_f" cx="189.52" cy="228.44" r="24.52" data-name="Oval" fill="url(#1770301554997-5557532_e)"></circle><path id="1770301554997-5557532_g" d="M177.27 228c0 16.97 24.54 16.97 24.54 0 0-15.75-24.54-15.75-24.54 0" class="ab" data-name="Path" fill="#1a1626"></path><path id="1770301554997-5557532_h" d="M173.54 221.13c0 7.12 10.29 7.12 10.29 0 0-6.59-10.29-6.59-10.29 0" class="ad" data-name="Path" fill="#ab968c"></path><path id="1770301554997-5557532_i" d="M232 229.88c-9.96-32.02-77.86-27.28-87.1-5.77 3.42-27.56 78.61-34.83 87.1 5.77" class="ae" data-name="Path" fill="#45332c"></path><path id="1770301554997-5557532_j" d="M280.09 228.94c-.91 7.16 3.96 15.66 17.44 22.04 8.56 4.04 26.37 8.81 49.77-1.05 10.5-4.42 20.72-18.2 19.79-25.81-12.67-23.91-75.12-27.4-87 4.82" class="ac" data-name="Path" fill="#fff"></path><circle id="1770301554997-5557532_l" cx="321.9" cy="228.44" r="24.52" data-name="Oval" fill="url(#1770301554997-5557532_k)"></circle><path id="1770301554997-5557532_m" d="M309.65 228c0 16.97 24.54 16.97 24.54 0 0-15.75-24.54-15.75-24.54 0" class="ab" data-name="Path" fill="#1a1626"></path><path id="1770301554997-5557532_n" d="M305.92 221.13c0 7.12 10.29 7.12 10.29 0 0-6.59-10.29-6.59-10.29 0" class="ad" data-name="Path" fill="#ab968c"></path><path id="1770301554997-5557532_o" d="M280.01 229.88c9.94-32 77.81-27.42 87.1-5.77-3.45-27.56-78.62-34.83-87.1 5.77" class="ae" data-name="Path" fill="#45332c"></path><path d="M377.95 38.24c12.39-17.65-92.43-54.96-191.39-29.77C87.71 31.11 32 179.21 32 276.08c8.84 7.02 62.98-10.49 73.02-22.01 4.1-16.95 10.56-34.38 16.58-52.46 74.23-42.98 158.23-53.1 216.54-104.54-7.48 22.4 32.06 50.66 52.27 104.54 6.56 17.48 12.41 35 16.56 52.46 16.48 15.18 49.37 22.33 73.04 22.01 0-81.93-62.46-249.26-102.07-237.84Z" fill="url(#1770301554997-5557532_p)"></path><path d="M49.79 261.34c68.38-91.06 289.87-84.89 328.16-223.1C303.6 154.25 68.48 173.83 49.79 261.34" class="z" fill="#473834"></path><path d="M502.02 315.08H9.98c-6.15 0-10.61 4.06-9.91 9.02l31 218.25c.7 4.96 6.31 9.04 12.45 9.04h424.95c6.15 0 11.77-4.08 12.47-9.04l31-218.25c.71-4.96-3.77-9.02-9.91-9.02" fill="url(#1770301554997-5557532_q)"></path><path id="1770301554997-5557532_r" d="M256 409.61c16.29 0 29.54 10.61 29.54 23.63s-13.25 23.63-29.54 23.63-29.54-10.59-29.54-23.63 13.26-23.63 29.54-23.63m0-7.87c-21.74 0-39.39 14.1-39.39 31.5s17.64 31.52 39.39 31.52 39.39-14.12 39.39-31.52-17.63-31.5-39.39-31.5" class="ah" data-name="Shape" fill="#e6ebef"></path><path id="1770301554997-5557532_s" d="M263.9 436.39c-1.33 0-1.99-.52-1.99-1.56v-3.15c0-1.07.66-1.6 1.99-1.6h12.78c1.33 0 1.99.52 1.99 1.6v1.56c0 10.02-10.14 18.14-22.67 18.14-6.08 0-11.79-1.94-16-5.31-.95-.77-.95-1.48-.02-2.24l4.2-3.35c.93-.73 1.85-.73 2.77 0 2.4 1.9 5.61 3 9.05 3 5.69 0 10.52-2.96 12.2-7.1h-4.3Z" class="ah" data-name="Combined-Shape" fill="#e6ebef"></path></g></svg>
