<svg xmlns="http://www.w3.org/2000/svg" data-name="Layer 1" style="" viewBox="0 0 512 597.33"><g><defs><linearGradient id="1770301554973-1697007_b" x1="417.77" x2="417.77" y1="104.52" y2="594.09" gradientTransform="matrix(1 0 0 -1 0 595.33)" gradientUnits="userSpaceOnUse"><stop offset=".05" stop-color="#473834"></stop><stop offset=".23" stop-color="#594640"></stop><stop offset=".52" stop-color="#715950"></stop><stop offset=".7" stop-color="#7a6056"></stop></linearGradient><linearGradient id="1770301554973-1697007_c" x1="1176.59" x2="1176.59" y1="104.52" y2="594.09" gradientTransform="rotate(180 635.405 297.665)" gradientUnits="userSpaceOnUse"><stop offset=".05" stop-color="#473834"></stop><stop offset=".23" stop-color="#594640"></stop><stop offset=".52" stop-color="#715950"></stop><stop offset=".7" stop-color="#7a6056"></stop></linearGradient><linearGradient id="1770301554973-1697007_d" x1="256.01" x2="256.01" y1="104.53" y2="594.1" gradientTransform="matrix(1 0 0 -1 0 595.33)" gradientUnits="userSpaceOnUse"><stop offset=".05" stop-color="#473834"></stop><stop offset=".23" stop-color="#594640"></stop><stop offset=".52" stop-color="#715950"></stop><stop offset=".7" stop-color="#7a6056"></stop></linearGradient></defs><path d="M336.87 482.66c161.79-65.45 145.62-220.89 145.62-220.89H29.5S13.33 417.2 175.08 482.66c0 0 32.37 8.18 80.9 8.18s80.9-8.18 80.9-8.18Z" class="h" fill="#473834"></path><path d="M419.56 278.37c16.54 70.45 7.81 140.22-82.69 204.29 97.09-16.36 161.79-109.08 161.79-180.21l-79.1-24.07Z" fill="url(#1770301554973-1697007_b)"></path><path d="M92.44 278.37c-16.54 70.45-7.81 140.22 82.69 204.29-97.09-16.37-161.8-109.08-161.8-180.22l79.1-24.07Z" fill="url(#1770301554973-1697007_c)"></path><path d="M45.38 497.2c25.62-13.91 113.34-44.11 113.34-44.11l194.33-.37s88.69 30.49 114.15 44.44c37.02 20.21 44.8 47.79 44.8 73.86 0 35.09-512 35.09-512 0 0-26.1 8.26-53.69 45.38-73.81Z" class="n" fill="#8e3ed6"></path><path d="m92.44 591.77-7.11-.71c0-54.34 7.11-53.6 7.11.71m66.28-138.67c0 82.73 194.33 82.35 194.33-.37l-17.48-6.1h-158.3l-18.54 6.47Z" fill="#732eb0"></path><path d="M174.08 448.93c0 64.75 163.83 64.75 163.83 0v-71.64H174.08z" class="m" fill="#f5bb51"></path><path d="M256 24.56c-117.4 0-173.94 96.67-166.88 220.99 1.46 24.97 8.33 61.02 16.81 91.89 17.6 64.2 110.5 128.85 150.06 128.85s132.44-64.66 150.06-128.85c8.48-30.88 15.35-66.92 16.81-91.89C429.92 121.23 373.42 24.56 256 24.56" fill="#ffc940"></path><path d="M380.73 204.18c-25.5-15.36-71.25-17.26-89.35-6.78-3.83 2.11-2.82 13.22.52 11.83 25.81-10.88 65.14-11.41 89.4 1.16 3.23 1.66 3.32-3.97-.57-6.21m-249.48 0c25.5-15.36 71.23-17.26 89.38-6.78 3.83 2.11 2.82 13.22-.52 11.83-25.83-10.88-65.12-11.43-89.4 1.16-3.25 1.66-3.32-3.97.54-6.21" fill="#966f42"></path><path d="M282.38 325.93c-2.79-1.98-9.35 1.07-26.4 1.07s-23.58-3.04-26.38-1.07c-3.35 2.38 1.96 13.12 26.38 13.12s29.77-10.73 26.4-13.12" fill="#f0a429"></path><path d="M388.13 41.91c13.4-19.35-100.15-60.22-207.35-32.63C73.69 34.08 13.33 196.34 13.33 302.44c9.58 7.7 68.22-11.48 79.1-24.09 4.44-18.56 11.43-37.67 17.96-57.48 80.42-47.09 171.41-58.17 234.58-114.53-8.11 24.54 34.73 55.5 56.63 114.53 7.1 19.16 13.46 38.34 17.96 57.48 17.86 16.63 53.48 24.46 79.1 24.09-.01-89.75-67.64-273.07-110.55-260.53Z" fill="url(#1770301554973-1697007_d)"></path><path d="M32.61 286.32c74.08-99.75 314.02-92.99 355.52-244.41C307.56 168.99 52.85 190.43 32.61 286.32" class="h" fill="#473834"></path><path d="M222.34 246.6c-21.5 13.87-54.88 13.87-76.37 0-3.3-2.12-5.25.17-4.21 1.96 20.87 35.8 63.89 35.8 84.77 0 1.07-1.79-.92-4.09-4.18-1.96Zm143.72 0c-21.5 13.87-54.88 13.87-76.37 0-3.3-2.12-5.23.17-4.21 1.96 20.87 35.8 63.89 35.8 84.77 0 1.08-1.79-.91-4.09-4.18-1.96Z" fill="#45332c"></path><path d="M206.75 398.9c30.01-18.51 68.5-18.51 98.47 0 4.25 2.6 4.77-.2 3.46-2.44-22.19-37.75-83.21-37.75-105.4 0-1.3 2.25-.81 5.06 3.47 2.44" fill="#c1873c"></path><path d="M411.91 472.2s-141.35-140.11-45.77-290.14c-38.98 2.18-44.42 54.11-45.75 33.89-1.81-27.87-12.02-81.08-13.4-95.42-2.44-25.97-35.27-25.43-38.17.51 1.42 18.41 7.98 72.97 6.47 73.12-1.42.13-30.65-70.82-34.62-80.04-11-25.57-40.04-17.63-35.83 10.28 8.15 29.86 29.35 77.37 27.13 78.19-1.92.69-36.87-51.06-41.79-59.65-12.73-22.23-44.94-2.61-29.83 20.74.57.87 41.18 61.76 39.13 62.53-1.73.64-30.86-29.49-30.86-29.49-14.6-12.83-35.52 2.23-23.78 19.21 26.19 37.9 35 33.77 48.96 79.53 6.86 22.5 23.02 51.35 41.33 58.14.73 3.91 1.07 7.08 2.34 11.31-2.31 2.7-2.65 9.01-2.1 11.27 31.1 119.93 85.01 220.41 85.01 220.41s108.25-2.27 165.98-13.24c0 0-51.18-82.89-74.45-111.14Z" style="isolation:isolate" opacity=".3"></path><path d="M241.33 368.43c-4.57-18.5 101.46-57.25 106.54-34.54 17.31 76.93 132.14 250.71 132.14 250.71-68.93 11.7-148.86 11.7-148.86 11.7s-56.9-94.75-89.81-227.87Z" class="n" fill="#8e3ed6"></path><path d="M340.35 332.05c4.85 13.47-89.44 48.17-94.27 34.71-31.89-88.57 63.52-120.18 94.27-34.71" class="m" fill="#f5bb51"></path><path d="M357.66 183.94c-31.73 12.48-22.93 45.6-35.02 41.3-2.47-.89-6.02-8.43-6.29-12.31-1.77-27.84-7.35-78.45-8.73-92.81-2.44-25.96-37.62-23.14-35.17 2.85.13 1.29 11.96 95.68 10.45 95.85-1.42.13-38.01-98.42-41.98-107.65-10.98-25.58-43.58-10.36-32.02 14.95.46 1.03 41.92 104.49 39.67 105.3-1.92.69-51.34-80.26-56.5-88.69-14.56-23.7-44.67-3.83-29.56 19.49.59.89 54.4 80.86 52.33 81.61-1.73.64-44.39-46.27-44.39-46.27-14.5-17.93-37.29.61-22.79 18.55 30.82 38.1 40.98 41.51 54.93 87.25 12.15 39.83 44.79 59.52 88.94 43.34 96.54-35.37 43.96-95.48 87.83-151.74 5.49-6.97-5.86-17.21-21.7-11.02" class="m" fill="#f5bb51"></path></g></svg>
