<svg xmlns="http://www.w3.org/2000/svg" data-name="Layer 1" style="" viewBox="0 0 512 597.33"><g><defs><linearGradient id="1770301554977-1255118_b" x1="417.77" x2="417.77" y1="110.02" y2="594.12" gradientTransform="matrix(1 0 0 -1 0 595.33)" gradientUnits="userSpaceOnUse"><stop offset=".05" stop-color="#473834"></stop><stop offset=".23" stop-color="#594640"></stop><stop offset=".52" stop-color="#715950"></stop><stop offset=".7" stop-color="#7a6056"></stop></linearGradient><linearGradient id="1770301554977-1255118_c" x1="1176.59" x2="1176.59" y1="110.02" y2="594.12" gradientTransform="rotate(180 635.405 297.665)" gradientUnits="userSpaceOnUse"><stop offset=".05" stop-color="#473834"></stop><stop offset=".23" stop-color="#594640"></stop><stop offset=".52" stop-color="#715950"></stop><stop offset=".7" stop-color="#7a6056"></stop></linearGradient><linearGradient id="1770301554977-1255118_e" x1="-616.61" x2="-616.61" y1="401.74" y2="393.65" gradientTransform="matrix(6.57 0 0 6.57 4235.16 -2365.4)" gradientUnits="userSpaceOnUse"><stop offset="0" stop-color="#a6694a"></stop><stop offset="1" stop-color="#4f2a1e"></stop></linearGradient><linearGradient id="1770301554977-1255118_k" x1="-597.48" x2="-597.48" y1="401.74" y2="393.65" gradientTransform="matrix(6.57 0 0 6.57 4252.89 -2365.4)" gradientUnits="userSpaceOnUse"><stop offset="0" stop-color="#a6694a"></stop><stop offset="1" stop-color="#4f2a1e"></stop></linearGradient><linearGradient id="1770301554977-1255118_p" x1="256.01" x2="256.01" y1="110.03" y2="594.13" gradientTransform="matrix(1 0 0 -1 0 595.33)" gradientUnits="userSpaceOnUse"><stop offset=".05" stop-color="#473834"></stop><stop offset=".23" stop-color="#594640"></stop><stop offset=".52" stop-color="#715950"></stop><stop offset=".7" stop-color="#7a6056"></stop></linearGradient></defs><path d="M336.87 477.25c161.79-64.7 145.6-218.41 145.6-218.41H29.5S13.33 412.55 175.08 477.25c0 0 32.37 8.09 80.9 8.09s80.9-8.09 80.9-8.09Z" class="x" fill="#473834"></path><path d="M419.54 275.24c16.57 69.67 7.83 138.66-82.67 202.01 97.09-16.19 161.79-107.85 161.79-178.19l-79.13-23.82Z" fill="url(#1770301554977-1255118_b)"></path><path d="M92.44 275.24c-16.54 69.67-7.81 138.66 82.69 202.01-97.09-16.18-161.8-107.85-161.8-178.19l79.1-23.82Z" fill="url(#1770301554977-1255118_c)"></path><path d="M45.38 498.32C71 484.59 176 448.11 176 448.11l160-.31s105.74 36.7 131.21 50.5c37.01 19.96 44.79 47.23 44.79 73 0 34.71-512 34.71-512 0 0-25.81 8.26-53.09 45.38-72.98" class="am" fill="#e6ebef"></path><path d="M282.04 597.33 352 454.42s-29.25 57.27-96 57.27-95.98-57.27-96-57.27l69.98 142.91h52.05Z" fill="#018bc9"></path><path d="M160 463.17c0 86.65 192 86.65 192 0l-16.46-5.71H176z" fill="#0175a8"></path><path d="M176 459.41c0 67.83 160 67.83 160 0v-76.35H176z" fill="#f5bb51"></path><path d="M329.88 596.33s27.35-38.58 48.19-87l-26.5-26.86 42.17-7.78s-24.65-35.65-57.73-48.02c0 0-15.98 94.82-53.96 170.65zm-147.74 0s-27.35-38.58-48.19-87l26.5-26.86-42.17-7.78s24.65-35.65 57.71-48.02c0 0 16 94.82 53.98 170.65z" fill="#f5f5f5"></path><path d="M420.35 510.82c0-49.58-59.48-99.46-162.47-99.46s-147.48 39.77-154.82 64.27l-12.61-1.33c14.44-33.38 64.42-72.92 167.41-72.92s170.91 54.44 173.16 109.5l-10.68-.06Zm5.38 1.18c20.59 0 37.33 16.75 37.33 37.33s-16.75 37.33-37.33 37.33-37.33-16.7-37.33-37.33S405.11 512 425.73 512" class="al" fill="#302c3b"></path><path d="M425.73 516.67c18.06 0 32.65 14.6 32.65 32.7S443.8 582 425.73 582s-32.68-14.6-32.68-32.63 14.62-32.7 32.68-32.7" fill="#cfd8dd"></path><path d="M425.73 530.67c10.31 0 18.65 8.35 18.65 18.69s-8.33 18.65-18.65 18.65-18.69-8.33-18.69-18.65 8.35-18.69 18.69-18.69" class="ac" fill="#99a8ae"></path><path d="M422.52 510.88h6.4v26.06h-6.4z" fill="#b3c2c6"></path><path d="M425.73 535.34c7.75 0 14.01 6.27 14.01 14.02s-6.25 13.98-14.01 13.98-14.01-6.25-14.01-13.98c.01-7.75 6.28-14.02 14.01-14.02" class="am" fill="#e6ebef"></path><path d="M144.25 511.54h-10.93c-.02-20.52-17.21-37.21-38.38-37.21-21.14-.02-38.34 16.68-38.36 37.21H45.65c0-26.38 22.1-47.83 49.29-47.83 27.21-.02 49.31 21.45 49.31 47.83" class="al" fill="#302c3b"></path><path d="m45.64 511.54-.02 56.39c.02 10.19 5.31 17.66 16.44 18.44 7.06.52 7-10.14-.02-10.62-7.32-.52-5.44-9.09-5.44-14.06l-.02-50.14c.03-6.87-10.95-6.87-10.93-.01m87.66 0v48.61c-.02 5.11 2.19 15.06-5.48 15.61-7.02.48-7.06 11.15 0 10.62 10.47-.73 16.42-7.65 16.42-17.6v-57.23c0-6.87-10.93-6.87-10.93-.01" class="ac" fill="#99a8ae"></path><path d="M69.46 586.4h-8c-7.02 0-7.02-11.71 0-11.71l8 .02c7.04-.02 7.04 11.69 0 11.69m58.98 0h-7.98c-7.06 0-7.06-11.71-.02-11.71l8 .02c7.02-.02 7.02 11.69 0 11.69" class="al" fill="#302c3b"></path><path d="M256 24.28c-117.4 0-173.94 95.59-166.88 218.51 1.46 24.69 8.33 60.34 16.81 90.88 17.61 63.48 110.51 127.4 150.07 127.4s132.44-63.91 150.06-127.39c8.48-30.54 15.35-66.19 16.79-90.88C429.92 119.88 373.4 24.28 256 24.28" fill="#ffc940"></path><path d="M255.98 361.27c-27.5-12.09-27.73-.48-70.19 2.36 15.94 18.12 27.67 41.4 70.17 41.4 48.79 0 57.05-26.44 70.25-41.4-42.52-2.84-42.69-14.44-70.23-2.36" fill="#d47706"></path><path d="M198.54 368.15c27.73 28.85 87.52 28.48 114.89.02-42.68 4.58-72.2 4.58-114.89-.02" class="af" fill="#fff"></path><path d="M380.73 201.89c-25.5-15.2-71.25-17.08-89.35-6.71-3.83 2.09-2.82 13.08.52 11.7 25.81-10.75 65.14-11.29 89.38 1.15 3.25 1.64 3.34-3.94-.54-6.14Zm-249.48 0c25.5-15.2 71.23-17.08 89.38-6.71 3.83 2.09 2.82 13.08-.52 11.7-25.83-10.75-65.12-11.31-89.4 1.15-3.25 1.64-3.32-3.94.54-6.14" fill="#966f42"></path><path d="M282.38 322.27c-2.79-1.96-9.35 1.07-26.4 1.07s-23.58-3.02-26.38-1.07c-3.35 2.36 1.96 12.98 26.38 12.98s29.77-10.6 26.4-12.98" fill="#f0a429"></path><path id="1770301554977-1255118_d" d="M229.88 248c1 7.75-4.27 16.97-18.88 23.87-9.27 4.38-28.57 9.56-53.92-1.14-11.37-4.78-22.44-19.7-21.44-27.95 13.74-25.9 81.39-29.7 94.24 5.22" class="af" data-name="Path" fill="#fff"></path><circle id="1770301554977-1255118_f" cx="183.98" cy="247.48" r="26.56" data-name="Oval" fill="url(#1770301554977-1255118_e)"></circle><path id="1770301554977-1255118_g" d="M170.71 247c0 18.38 26.58 18.38 26.58 0 0-17.07-26.58-17.07-26.58 0" class="aa" data-name="Path" fill="#1a1626"></path><path id="1770301554977-1255118_h" d="M166.67 239.55c0 7.71 11.15 7.71 11.15 0 0-7.14-11.15-7.14-11.15 0" class="ag" data-name="Path" fill="#ab968c"></path><path id="1770301554977-1255118_i" d="M230.01 249.02c-10.79-34.68-84.35-29.56-94.36-6.24 3.7-29.86 85.16-37.74 94.36 6.24" class="ah" data-name="Path" fill="#45332c"></path><path id="1770301554977-1255118_j" d="M282.1 248c-.98 7.75 4.29 16.97 18.89 23.87 9.27 4.38 28.57 9.56 53.92-1.14 11.37-4.78 22.44-19.7 21.44-27.95-13.73-25.9-81.38-29.7-94.25 5.22" class="af" data-name="Path" fill="#fff"></path><circle id="1770301554977-1255118_l" cx="327.39" cy="247.48" r="26.56" data-name="Oval" fill="url(#1770301554977-1255118_k)"></circle><path id="1770301554977-1255118_m" d="M314.12 247c0 18.38 26.58 18.38 26.58 0 0-17.07-26.58-17.07-26.58 0" class="aa" data-name="Path" fill="#1a1626"></path><path id="1770301554977-1255118_n" d="M310.08 239.55c0 7.71 11.15 7.71 11.15 0 0-7.14-11.15-7.14-11.15 0" class="ag" data-name="Path" fill="#ab968c"></path><path id="1770301554977-1255118_o" d="M282.01 249.02c10.77-34.66 84.29-29.7 94.36-6.24-3.73-29.86-85.17-37.74-94.36 6.24" class="ah" data-name="Path" fill="#45332c"></path><path d="M388.11 41.43c13.42-19.14-100.13-59.54-207.34-32.25C73.69 33.71 13.33 194.14 13.33 299.06c9.58 7.61 68.22-11.35 79.1-23.82 4.44-18.36 11.43-37.25 17.96-56.83 80.42-46.56 171.41-57.53 234.58-113.25-8.11 24.27 34.73 54.88 56.63 113.25 7.1 18.93 13.44 37.91 17.94 56.83 17.86 16.45 53.48 24.19 79.13 23.82-.01-88.75-67.66-270.02-110.57-257.63Z" fill="url(#1770301554977-1255118_p)"></path><path d="M32.61 283.1c74.08-98.63 314.02-91.95 355.5-241.67C307.56 167.1 52.85 188.3 32.61 283.1" class="x" fill="#473834"></path></g></svg>
