<svg xmlns="http://www.w3.org/2000/svg" data-name="Layer 1" style="" viewBox="0 0 512 568.89"><g><defs><linearGradient id="1770301554990-7700771_b" x1="399.8" x2="399.8" y1="101.6" y2="531.9" gradientTransform="matrix(1 0 0 -1 0 570.89)" gradientUnits="userSpaceOnUse"><stop offset=".05" stop-color="#473834"></stop><stop offset=".23" stop-color="#594640"></stop><stop offset=".52" stop-color="#715950"></stop><stop offset=".7" stop-color="#7a6056"></stop></linearGradient><linearGradient id="1770301554990-7700771_c" x1="1158.61" x2="1158.61" y1="101.6" y2="531.9" gradientTransform="rotate(180 635.405 285.445)" gradientUnits="userSpaceOnUse"><stop offset=".05" stop-color="#473834"></stop><stop offset=".23" stop-color="#594640"></stop><stop offset=".52" stop-color="#715950"></stop><stop offset=".7" stop-color="#7a6056"></stop></linearGradient><linearGradient id="1770301554990-7700771_e" x1="-615.39" x2="-615.39" y1="392.51" y2="385.32" gradientTransform="matrix(6.57 0 0 6.57 4235.16 -2297.33)" gradientUnits="userSpaceOnUse"><stop offset="0" stop-color="#a6694a"></stop><stop offset="1" stop-color="#4f2a1e"></stop></linearGradient><linearGradient id="1770301554990-7700771_k" x1="-598.69" x2="-598.69" y1="392.51" y2="385.32" gradientTransform="matrix(6.57 0 0 6.57 4252.89 -2297.33)" gradientUnits="userSpaceOnUse"><stop offset="0" stop-color="#a6694a"></stop><stop offset="1" stop-color="#4f2a1e"></stop></linearGradient><linearGradient id="1770301554990-7700771_p" x1="256" x2="256" y1="101.58" y2="531.91" gradientTransform="matrix(1 0 0 -1 0 570.89)" gradientUnits="userSpaceOnUse"><stop offset=".05" stop-color="#473834"></stop><stop offset=".23" stop-color="#594640"></stop><stop offset=".52" stop-color="#715950"></stop><stop offset=".7" stop-color="#7a6056"></stop></linearGradient><linearGradient id="1770301554990-7700771_q" x1="231.62" x2="280.37" y1="538.27" y2="538.27" gradientTransform="matrix(1 0 0 -1 0 570.89)" gradientUnits="userSpaceOnUse"><stop offset="0" stop-color="#323d42"></stop><stop offset="1" stop-color="#5f727d"></stop></linearGradient><linearGradient id="1770301554990-7700771_r" x1="20.21" x2="71.42" y1="360.92" y2="360.92" gradientTransform="matrix(1 0 0 -1 0 570.89)" gradientUnits="userSpaceOnUse"><stop offset="0" stop-color="#e39f16"></stop><stop offset=".07" stop-color="#eea81c"></stop><stop offset=".18" stop-color="#fbb324"></stop><stop offset=".29" stop-color="#ffb726"></stop><stop offset=".29" stop-color="#ffb726"></stop><stop offset=".57" stop-color="#cf931a"></stop><stop offset=".77" stop-color="#b17c13"></stop><stop offset=".89" stop-color="#a67410"></stop></linearGradient><radialGradient id="1770301554990-7700771_s" cx="45.81" cy="442.1" r="10.99" fx="45.81" fy="442.1" gradientTransform="matrix(1 0 0 -1 0 570.89)" gradientUnits="userSpaceOnUse"><stop offset="0" stop-color="#ffb726"></stop><stop offset=".2" stop-color="#f2ad21"></stop><stop offset=".71" stop-color="#d49617"></stop><stop offset="1" stop-color="#c98d13"></stop></radialGradient></defs><path d="M327.89 462.13C471.71 404.62 457.31 268 457.31 268H54.67S40.3 404.61 184.07 462.13c0 0 28.78 7.21 71.91 7.21s71.91-7.21 71.91-7.21" class="ac" fill="#473834"></path><path d="M401.37 282.58c14.72 61.94 6.96 123.26-73.48 179.56 86.3-14.37 143.82-95.85 143.82-158.37l-70.33-21.19Z" fill="url(#1770301554990-7700771_b)"></path><path d="M110.61 282.58c-14.71 61.94-6.94 123.26 73.5 179.56-86.3-14.37-143.82-95.86-143.82-158.38l70.31-21.18Z" fill="url(#1770301554990-7700771_c)"></path><path d="M68.78 480.88c22.77-12.21 116.11-44.64 116.11-44.64l142.22-.27s93.99 32.63 116.63 44.89c32.9 17.75 39.81 41.99 39.81 64.9 0 30.85-455.11 30.85-455.11 0 0-22.95 7.34-47.19 40.33-64.87Z" class="ao" fill="#302c3b"></path><path d="M184.89 454.61 256 547.83l71.11-93.22v-76.19H184.89z" fill="#f5bb51"></path><path d="M256 59.5c-104.35 0-154.61 84.96-148.34 194.22 1.3 21.96 7.41 53.65 14.94 80.78 15.65 56.42 98.23 113.27 133.39 113.27s117.72-56.83 133.39-113.26c7.54-27.13 13.64-58.81 14.92-80.78C410.59 144.47 360.34 59.5 255.99 59.5Z" fill="#ffc940"></path><path d="M255.98 359.05c-24.44-10.76-24.65-.43-62.39 2.1 14.17 16.09 24.59 36.78 62.37 36.78 43.37 0 50.71-23.5 62.45-36.78-37.79-2.52-37.94-12.86-62.43-2.1" fill="#d47706"></path><path d="M204.92 365.17c24.65 25.65 77.8 25.3 102.13.02-37.94 4.07-64.18 4.07-102.13-.02" class="ah" fill="#fff"></path><path d="M366.87 217.37c-22.67-13.5-63.34-15.17-79.43-5.96-3.4 1.87-2.5 11.63.46 10.41 22.95-9.56 57.9-10.04 79.45 1.01 2.89 1.46 2.97-3.5-.48-5.46m-221.76 0c22.67-13.5 63.32-15.17 79.45-5.96 3.4 1.87 2.5 11.63-.46 10.41-22.96-9.56-57.88-10.06-79.46 1.01-2.89 1.46-2.95-3.5.48-5.46Z" fill="#966f42"></path><path d="M279.45 324.39c-2.48-1.74-8.32.93-23.47.93s-20.96-2.66-23.45-.93c-2.98 2.1 1.74 11.54 23.45 11.54s26.46-9.44 23.47-11.54" fill="#f0a429"></path><path id="1770301554990-7700771_d" d="M232.78 258.37c.89 6.89-3.79 15.08-16.78 21.22-8.24 3.89-25.39 8.49-47.93-1.01-10.11-4.26-19.95-17.52-19.06-24.85 12.21-23.02 72.34-26.39 83.77 4.65Z" class="ah" data-name="Path" fill="#fff"></path><circle id="1770301554990-7700771_f" cx="191.98" cy="257.89" r="23.61" data-name="Oval" fill="url(#1770301554990-7700771_e)"></circle><path id="1770301554990-7700771_g" d="M180.19 257.46c0 16.34 23.63 16.34 23.63 0 0-15.16-23.63-15.16-23.63 0" class="af" data-name="Path" fill="#1a1626"></path><path id="1770301554990-7700771_h" d="M176.59 250.85c0 6.86 9.91 6.86 9.91 0 0-6.35-9.91-6.35-9.91 0" class="aj" data-name="Path" fill="#ab968c"></path><path id="1770301554990-7700771_i" d="M232.89 259.28c-9.6-30.83-74.98-26.27-83.87-5.56 3.29-26.54 75.7-33.54 83.87 5.56" class="ak" data-name="Path" fill="#45332c"></path><path id="1770301554990-7700771_j" d="M279.2 258.37c-.87 6.89 3.81 15.08 16.79 21.22 8.24 3.89 25.39 8.49 47.93-1.01 10.11-4.26 19.95-17.52 19.06-24.85-12.2-23.02-72.33-26.39-83.78 4.65Z" class="ah" data-name="Path" fill="#fff"></path><circle id="1770301554990-7700771_l" cx="319.46" cy="257.89" r="23.61" data-name="Oval" fill="url(#1770301554990-7700771_k)"></circle><path id="1770301554990-7700771_m" d="M307.66 257.46c0 16.34 23.63 16.34 23.63 0 0-15.16-23.63-15.16-23.63 0" class="af" data-name="Path" fill="#1a1626"></path><path id="1770301554990-7700771_n" d="M304.07 250.85c0 6.86 9.91 6.86 9.91 0 0-6.35-9.91-6.35-9.91 0" class="aj" data-name="Path" fill="#ab968c"></path><path id="1770301554990-7700771_o" d="M279.12 259.28c9.58-30.81 74.92-26.41 83.87-5.56-3.32-26.54-75.71-33.54-83.87 5.56" class="ak" data-name="Path" fill="#45332c"></path><path d="M373.43 74.74c11.93-17-89-52.93-184.3-28.66C93.94 67.87 40.3 210.48 40.3 303.76c8.51 6.76 60.64-10.09 70.31-21.18 3.94-16.32 10.16-33.11 15.97-50.52 71.48-41.39 152.37-51.13 208.52-100.66-7.21 21.57 30.87 48.78 50.34 100.66 6.31 16.83 11.95 33.71 15.95 50.52 15.87 14.61 47.54 21.5 70.33 21.18 0-78.89-60.14-240.01-98.29-229.02" fill="url(#1770301554990-7700771_p)"></path><path d="M57.43 289.57c65.85-87.68 279.13-81.74 316-214.83-71.6 111.7-298 130.55-316 214.83" class="ac" fill="#473834"></path><path d="M462.17 341.7 331.68 567.71s34.47 0 67.75-3.53l112.02-194.04z" fill="#e6ebef"></path><path d="m383.22 555.21 110.21-199.69 8.22 4.74z" class="ab" fill="#cfd8dd"></path><path d="M511.44 370.15c-6.33 10.94-55.59-17.5-49.28-28.44 6.33-10.96 55.59 17.48 49.28 28.44" class="ab" fill="#cfd8dd"></path><path d="m386.04 473.57-9.48 16.42c-6.33 10.94 42.94 39.39 49.26 28.44l9.48-16.42c-6.31 10.95-55.59-17.49-49.26-28.44" fill="#e81c27"></path><path d="M417.19 113.1c0 38.13-161.19 95.11-161.19 95.11S94.81 151.23 94.81 113.1c0-131.84 322.37-131.84 322.37 0Z" class="ao" fill="#302c3b"></path><path d="M512 45.11H0v11.74l256 53.65 256-53.65z" class="af" fill="#1a1626"></path><path d="M256 0 0 45.11l256 53.67 256-53.67z" class="ao" fill="#302c3b"></path><path d="M48.01 132.59h-4.4V80.78c0-11.41 4.41-21.33 11.02-25.33 14.67-8.89 42.43-7.48 153.09-9.56 0 0 28.87-15.78 57.57-18.89 10.08-1.09 16.79 2.54 18.38 8 1.92 6.61-3.3 15.41-70.37 15.26-98.66-.23-143.11 1.48-154.27 7.22-9.26 4.78-11 16.54-11 23.45v51.66ZM271.43 29.34c-18.54 2.47-35 5.76-54.37 16.85 59.5.66 70.79-12.01 54.37-16.85" class="am" fill="#b0751e"></path><path d="M256.02 32.63h-24.39v5.22c0 10.72 48.74 10.72 48.74 0v-5.22h-24.36Z" class="af" fill="#1a1626"></path><path d="M280.37 32.63c0 10.74-48.74 10.74-48.74 0 0-10.75 48.74-10.75 48.74 0" fill="url(#1770301554990-7700771_q)"></path><path d="M45.81 139.17c-22.26-10.37-27.28 79.76-25.16 111.99.22-2.18.8-21.18 2.59-33.79-1.34 23.96-.72 50.32-.72 52.93s3.46 3.93 3.46 3.93c-.58-14.74.8-29.61.8-29.61s-1.13 19 .29 30.89c4.43 3.19 8.28 3.93 8.28 3.93-.87-17.83 2.48-68.66 2.48-68.66s-2.35 46.71-.48 69.79c3.11.93 8.47 1.05 8.47 1.05s5.35-.13 8.47-1.05c1.87-23.1-.48-69.79-.48-69.79s3.36 50.83 2.48 68.66c0 0 3.85-.74 8.28-3.93 1.42-11.89.29-30.89.29-30.89s1.37 14.87.8 29.61c0 0 3.46-1.34 3.46-3.93s.61-28.97-.72-52.93c1.79 12.61 2.39 31.61 2.59 33.79 2.11-32.23-2.9-122.36-25.16-111.99Z" fill="url(#1770301554990-7700771_r)"></path><path d="M53.65 139.17c0 4.08-15.66 4.08-15.66 0s15.66-4.08 15.66 0" class="am" fill="#b0751e"></path><path d="M56.7 128.8c0 14.78-21.78 14.78-21.78 0s21.78-14.78 21.78 0" fill="url(#1770301554990-7700771_s)"></path></g></svg>
