<svg xmlns="http://www.w3.org/2000/svg" id="a" data-name="Layer 1" viewBox="0 0 512 546.15"><defs><linearGradient id="b" x1="35.25" x2="468.31" y1="192.62" y2="192.62" gradientTransform="matrix(1 0 0 -1 0 548.15)" gradientUnits="userSpaceOnUse"><stop offset="0" stop-color="#00a7c7"/><stop offset=".2" stop-color="#00a0c5"/><stop offset=".49" stop-color="#008ec1"/><stop offset=".83" stop-color="#0070ba"/><stop offset="1" stop-color="#005eb5"/></linearGradient><linearGradient id="c" x1="97.12" x2="321.67" y1="459.79" y2="459.79" gradientTransform="matrix(1 0 0 -1 0 548.15)" gradientUnits="userSpaceOnUse"><stop offset=".08" stop-color="#012a4a"/><stop offset=".75" stop-color="#015799"/></linearGradient><linearGradient id="d" x1="106.79" x2="278.75" y1="449.52" y2="449.52" gradientTransform="matrix(1 0 0 -1 0 548.15)" gradientUnits="userSpaceOnUse"><stop offset="0" stop-color="#012a4a"/><stop offset=".36" stop-color="#013a66"/><stop offset=".76" stop-color="#01487e"/><stop offset="1" stop-color="#014d87"/></linearGradient><linearGradient id="j" x1="-632.66" x2="-632.66" y1="355.68" y2="352.77" gradientTransform="translate(4235.16 -2233.99)scale(6.57)" gradientUnits="userSpaceOnUse"><stop offset="0" stop-color="#74717d"/><stop offset="1" stop-color="#28272e"/></linearGradient><linearGradient id="p" x1="-627.47" x2="-627.47" y1="355.68" y2="352.77" gradientTransform="translate(4252.89 -2233.99)scale(6.57)" gradientUnits="userSpaceOnUse"><stop offset="0" stop-color="#74717d"/><stop offset="1" stop-color="#28272e"/></linearGradient><linearGradient id="u" x1="-1733.82" x2="-1733.82" y1="450.67" y2="543.92" gradientTransform="matrix(-1 0 0 -1 -1628.44 548.15)" gradientUnits="userSpaceOnUse"><stop offset="0" stop-color="#012a4a"/><stop offset=".36" stop-color="#013a66"/><stop offset=".76" stop-color="#01487e"/><stop offset="1" stop-color="#014d87"/></linearGradient><style>.ab{fill:#0fb4d4}.ac{fill:#d47706}.af{fill:#1a1626}.ah{fill:#00859e}.ai{fill:#f59e01}.aj{fill:#012a4a}.ak{fill:#fff}.al{fill:#f9b700}.am{fill:#00a7c7}.an{fill:#9f9aab}.ao{fill:#b30bad}</style></defs><path d="M398.34 469.99c0 5.27 27.9 5.27 27.9 0 0-21.26-27.9-21.26-27.9 0" class="al"/><path d="M372.82 486.1c0 6.51 78.93 6.51 78.93 0 0-26.35-78.93-26.35-78.93 0m0 55.17c0 6.5 78.93 6.5 78.93 0 0-26.33-78.93-26.33-78.93 0" class="ai"/><path d="M475.6 516.57c68.47 34.31 27.96-72.34-20.4-26.18-41.03 19.56 7.71 62.54 20.4 26.18m-15.64-20.22c27.99-26.68 59.6 22.36 24.78 17.53 11.25-16.87-20.25-21.54-16.21-6.26-8.71-5.32-19.25 5.99-9.28 13.16-11.75-1.87-14.71-17.08.72-24.43Z" class="ai"/><path d="M466.01 488.66c-48.88-24.99-73.25 4.2-153.32-22.31-7.01 3.93-20.35 4.6-10.79 15.91 74.98-9.75 93.19 100.84 164.11 6.4" class="al"/><path d="M314.04 468.99c-.89-1.75-13.86 4.83-12.97 6.59 3.61 7.07 16.6.49 12.97-6.59" style="fill:#ab5c10"/><path d="M270.78 305.79c-19.64 80.63-85.24 105.44-104.46 52.81-23.48-7.48-99.95-7.49-123.5 0-47.27 124.52 138.65 213.24 226.82 4.57 73.71-174.38 209.36-74.54 53.89 19.17-90.93 54.79-51.14 82.3-12.18 94.58-37.38-31.69-16.27-49.3 30.08-69.96 303.56-135.35-27.31-279.06-70.66-101.17Z" style="fill:url(#b)"/><path d="M161.38 339.18c0 24.27-113.63 24.27-113.63 0 0 0-.96-47.8-16.43-75.86H177.8c-15.49 28.07-16.43 75.86-16.43 75.86Z" class="ao"/><path d="M166.32 358.6c0 24.27-61.74 40.12-61.74 40.12s-61.75-15.85-61.75-40.12c6.03-19.62 4.92-19.41 4.92-19.41 33.11 16.92 80.54 16.92 113.63 0 0 0-.87 4.92 4.94 19.41" class="al"/><path d="M321.67 170.07C187.98 149.36 248.84 34.24 164.08 3.24c-54.24-19.84-85.84 56.88-54.63 83.75 85.48-58.22 54.67 126.41 212.22 83.08" style="fill:url(#c)"/><path d="M278.75 183.81C169.2 154.79 217.33 34.7 157.39 15.08 112.74.45 92.5 64.54 117.91 88.17c82.84-45.85 6.54 106.03 160.84 95.64" style="fill:url(#d)"/><path d="M101.23 21.11c9.75-27.44 65.77-7.68 56.01 19.76-2.1 5.92-58.48-12.87-56.01-19.76" class="ai"/><path d="M129.2 146.29c-6.64-5.55-42.66-5.55-49.26 0-.93 32.79-3.56 30.24-50.39 41.52 0 23.95 75.01 54.46 75.01 54.46s75-30.51 75-54.46c-46.84-11.28-49.44-8.75-50.37-41.52Z" class="am"/><path d="M111.57 211.07c-3.93 4.09-7.01 13.4-7.01 13.4s-3.05-9.31-7.01-13.4c7.01 20.94 5.32 30.37 5.32 30.37h3.4s-1.72-10.74 5.3-30.37" class="ah"/><path d="M42.77 282.85h123.56c3.89-28.51 13.69-54.53 38.39-57.41 8.95-11.01 6.13-40.71-26.55-38.83-40.63 14.69-24.53 46.36-73.61 46.36s-32.97-31.68-73.64-46.36c-32.66-1.89-35.5 27.82-26.51 38.83 24.7 2.88 34.49 28.9 38.36 57.41" class="ao"/><path d="M5.08 221.02c7.77-10.84 27.73-.98 32.21 6.45 8.05 18.35 9.68 43.97 13.82 48.32 33.64-8.9 106.18-3.17 98 18.18-80.08 12.07-103.69 14.17-119.57 13.59-5.41-.18-16.74-34.83-24.46-86.53Z" class="am"/><path d="M51.11 275.79c33.64-8.9 106.18-3.17 98 18.18 0 0-19.47 3.96-36.97 5.44-19.11-15.26-50.02-23.15-61.03-23.62" class="ah"/><path d="M204 221.02c-7.77-10.84-27.71-.98-32.19 6.45-8.07 18.35-6.39 38.07-10.53 42.4-56.71-7.99-101.4-17.49-110.16 5.91 39.09-5.98 71.5 27.53 128.45 31.76 5.4.41 16.74-34.83 24.43-86.53Z" class="am"/><path d="M70.08 262.25c-4.59 1.3-6.59 10.47-2.43 13.21 4.16 2.71 36.84 12.85 39.77 11.9-4.34-5.3.45-22.68 11.06-23.6-2.12-3.34-32.88-5.93-48.39-1.51Z" class="ac"/><path d="M112.55 266.42c-15.77-3.17-39.23-2.01-45.55-1.63-1.03 1.61-1.64 3.68-1.62 5.67 10.89.26 30.64 2.05 41.7 4.36 1.09-3.26 2.97-6.28 5.48-8.4Z" class="al"/><path d="M161.38 339.18c-4.61 2.34-9.54 4.3-14.63 6.01a210.7 210.7 0 0 0 4.1 34.19c8.85-5.87 15.46-12.87 15.46-20.78-5.81-14.49-4.94-19.41-4.94-19.41Zm-98.97 6.01c-5.11-1.71-10.06-3.67-14.67-6.01 0 0 1.11-.2-4.92 19.41 0 7.91 6.61 14.91 15.47 20.8 2.33-11.42 3.68-22.87 4.12-34.21Z" class="ac"/><path id="e" d="M41.29 75.74c9.8 1.18 16.85 33.81 10.71 42.44-.88 1.21-5.91 3.13-9.66-4.48-2.07-4.22-8.05-7.71-9.89-16.42-2.4-11.12-.91-22.73 8.84-21.54" class="ab" data-name="Path"/><path id="f" d="M167.79 75.74c-9.78 1.18-16.86 33.81-10.7 42.44.86 1.21 5.91 3.13 9.64-4.48 2.09-4.21 8.06-7.71 9.92-16.41 2.37-11.13.9-22.74-8.86-21.55" class="ab" data-name="Path"/><path id="g" d="M41.56 82c2.55.79 5.33 4.68 6.86 11.11-8.93-1.9-6.7 12.89 1.05 13.19-.08 1.48-.18 3.01-.34 4.63-3.75-5.41-7.55-3.24-11.3-11.29-3.4-7.24-2.59-19.61 3.73-17.64" class="ah" data-name="Path"/><path id="h" d="M160.68 93.09c1.52-6.42 4.28-10.31 6.84-11.09 6.33-1.99 7.14 10.4 3.75 17.63-3.76 8.05-7.56 5.88-11.31 11.29-.18-1.61-.28-3.15-.33-4.64 7.65-.35 9.87-14.99 1.05-13.18Z" class="ah" data-name="Path"/><path d="M104.54 12.97c42.43 0 62.88 34.4 60.32 78.64-.54 8.91-3.02 21.73-6.08 32.71-6.36 22.84-39.93 45.85-54.23 45.85s-47.87-23.01-54.22-45.85c-3.07-10.98-5.56-23.8-6.08-32.71-2.55-44.24 17.87-78.64 60.3-78.64Z" class="ab"/><path d="M104.55 134.25c9.93-4.36 10.02-.18 25.36.85-5.75 6.51-10 14.88-25.36 14.88-17.64 0-20.6-9.5-25.4-14.88 15.38-1.03 15.44-5.21 25.4-.85" style="fill:#006dae"/><path d="M125.31 136.71c-10.02 10.39-31.63 10.24-41.53 0 15.45 1.66 26.1 1.66 41.53 0" class="ak"/><path d="M59.47 76.89c9.19-5.48 25.75-6.15 32.28-2.42 1.39.75 1.02 4.72-.18 4.2-9.34-3.86-23.56-4.06-32.33.43-1.15.58-1.19-1.42.22-2.21Zm90.16 0c-9.22-5.48-25.75-6.15-32.31-2.42-1.37.75-1 4.72.2 4.2 9.34-3.86 23.54-4.06 32.3.43 1.19.58 1.2-1.42-.19-2.21" style="fill:#014d87"/><path d="M95 120.2c1.02-.69 3.39.39 9.55.39s8.52-1.08 9.54-.39c1.19.86-.73 4.68-9.54 4.68-8.82 0-10.77-3.81-9.55-4.68" class="ah"/><path id="i" d="M95.11 93.46c.36 2.81-1.56 6.14-6.84 8.6-3.34 1.6-10.3 3.45-19.48-.41-4.1-1.72-8.1-7.09-7.75-10.06 4.97-9.33 29.42-10.68 34.07 1.87" class="ak" data-name="Path"/><circle id="k" cx="78.52" cy="93.29" r="9.57" data-name="Oval" style="fill:url(#j)"/><path id="l" d="M73.72 93.11c0 6.63 9.61 6.63 9.61 0 0-6.14-9.61-6.14-9.61 0" class="af" data-name="Path"/><path id="m" d="M72.25 90.43c0 2.79 4.04 2.79 4.04 0 0-2.56-4.04-2.56-4.04 0" class="an" data-name="Path"/><path id="n" d="M95.14 93.84c-3.89-12.47-30.47-10.63-34.11-2.24 1.35-10.74 30.8-13.58 34.11 2.24" class="aj" data-name="Path"/><path id="o" d="M113.98 93.46c-.38 2.81 1.55 6.14 6.8 8.6 3.38 1.6 10.34 3.45 19.5-.41 4.12-1.72 8.12-7.09 7.75-10.06-4.96-9.33-29.41-10.68-34.05 1.87" class="ak" data-name="Path"/><circle id="q" cx="130.36" cy="93.29" r="9.57" data-name="Oval" style="fill:url(#p)"/><path id="r" d="M125.55 93.11c0 6.63 9.61 6.63 9.61 0 0-6.14-9.61-6.14-9.61 0" class="af" data-name="Path"/><path id="s" d="M124.1 90.43c0 2.79 4.04 2.79 4.04 0 0-2.56-4.04-2.56-4.04 0" class="an" data-name="Path"/><path id="t" d="M113.95 93.84c3.9-12.47 30.47-10.69 34.09-2.24-1.35-10.74-30.79-13.58-34.09 2.24" class="aj" data-name="Path"/><path d="M104.68 4.23c25.61 0 38.39 11.65 40.99 17.16 20.91 7.29 34.02 40.47 18.78 76.09-3.42-27.85-7.93-36.09-31.5-58.26-30.8 24.53-78.1 19.7-88.01 58.26-17.29-47.81 9.5-93.25 59.74-93.25" style="fill:url(#u)"/><path d="M132.94 39.22c20.8 14.59 33.24 34.84 31.5 58.26-4.04-26.14-12.49-37.74-31.5-58.26" class="aj"/><path d="M145.66 21.39C123.75 65.11 53.2 49.71 44.94 97.48c14-43.9 84.3-28.43 100.72-76.09" class="aj"/></svg>