<svg xmlns="http://www.w3.org/2000/svg" id="a" data-name="Layer 1" viewBox="0 0 512 597.33"><defs><linearGradient id="b" x1="256.01" x2="256.01" y1="2.19" y2="595.33" gradientTransform="matrix(1 0 0 -1 0 595.33)" gradientUnits="userSpaceOnUse"><stop offset="0" stop-color="#ffd059"/><stop offset=".54" stop-color="#ffe98c"/></linearGradient><linearGradient id="h" x1="-616.61" x2="-616.61" y1="401.73" y2="393.65" gradientTransform="translate(4235.16 -2365.4)scale(6.57)" gradientUnits="userSpaceOnUse"><stop offset="0" stop-color="#a6694a"/><stop offset="1" stop-color="#4f2a1e"/></linearGradient><linearGradient id="n" x1="-597.48" x2="-597.48" y1="401.73" y2="393.65" gradientTransform="translate(4252.89 -2365.4)scale(6.57)" gradientUnits="userSpaceOnUse"><stop offset="0" stop-color="#a6694a"/><stop offset="1" stop-color="#4f2a1e"/></linearGradient><linearGradient id="s" x1="69.65" x2="255.56" y1="432.51" y2="432.51" gradientTransform="matrix(1 0 0 -1 0 595.33)" gradientUnits="userSpaceOnUse"><stop offset="0" stop-color="#99a8ae"/><stop offset=".59" stop-color="#e6ebef"/></linearGradient><linearGradient id="t" x1="255.55" x2="442.35" y1="432.51" y2="432.51" gradientTransform="matrix(1 0 0 -1 0 595.33)" gradientUnits="userSpaceOnUse"><stop offset=".41" stop-color="#e6ebef"/><stop offset="1" stop-color="#99a8ae"/></linearGradient><style>.z{fill:#e7c856}.ad{fill:#ffc940}.af{fill:#1a1626}.ai{fill:#fff}.aj{fill:#ab968c}.ak{fill:#45332c}.am{fill:#f0a429}.ap{fill:#ffe98c}</style></defs><path d="M256 0C134.21 0 49.11 105.83 53.5 205.42c8.2 185.86-14.37 332.5 59.74 370.56 44.53 22.88 240.99 22.88 285.53 0 74.1-38.06 51.54-184.7 59.74-370.56C462.89 105.83 377.79 0 256 0" style="fill:url(#b)"/><path d="M176 383.06h160v192.37H176z" style="fill:#f5bb51"/><path d="M467.22 500.64c-.82-.44-.98-3.58 0-4.52-33.3-13.75-56.96-23.39-86.91-30.38-8.93-44.27 18.7-64.19 18.7-64.19C326.98 401.56 256 578.49 256 578.49s-70.98-176.94-143-176.94c0 0 27.63 19.91 18.7 64.19-29.96 6.98-53.61 16.63-86.91 30.38.98.94.82 4.09 0 4.52C7.78 521.37 0 538.43 0 565.24c0 42.79 512 42.79 512 0 0-26.81-7.78-43.87-44.78-64.6" style="fill:#3aab1f"/><path d="M467.22 496.12c-43.33 51.98-26.98 90.45-26.98 90.45s-3-45.42 28.63-84.94c1.02-2.95-.07-5.38-1.65-5.51m-184.16 73.81s72.02-54.98 97.15-104.27c-20.03 59.68-97.15 104.27-97.15 104.27M44.8 496.12c43.29 51.98 26.95 90.45 26.95 90.45s3-45.42-28.66-84.94c-1.01-2.95.09-5.38 1.71-5.51m184.14 73.81s-72.04-54.98-97.15-104.27c20.01 59.68 97.15 104.27 97.15 104.27" style="fill:#299900"/><path d="M272 568.97c0 35.02-32 35.02-32 0 0-32.48 32-32.48 32 0" style="fill:#c9cdd1"/><path d="M266.72 569.22c0 26.27-21.34 26.27-21.34 0 0-24.35 21.34-24.35 21.34 0" style="fill:#e6ebef"/><path id="c" d="M468.94 162.21c-56.13 24.7-87.97 129.46-64.31 162.62 2.4 3.34 16.37 8.68 26.75-12.46 5.75-11.71 21.39-21.69 27.46-45.62 8.19-32.33 29.46-113.09 10.1-104.54" class="ad" data-name="Path"/><path id="d" d="M463.78 176.92c-19.36 8.25-33.95 40.19-42.09 62.67 17.8 3.89 12.87 37.46-9.15 40.11-.28 4.15-.44 20.48.09 24.96 10.36-15.02 20.9-9 31.34-31.35 9.38-20.16 30.46-100.93 19.82-96.38Z" class="am" data-name="Path"/><path id="e" d="M43.06 162.21c56.13 24.7 87.97 129.46 64.31 162.62-2.4 3.34-16.37 8.68-26.75-12.46-5.75-11.71-21.39-21.69-27.46-45.62-8.19-32.33-29.46-113.09-10.1-104.54" class="ad" data-name="Path"/><path id="f" d="M48.22 176.92c19.36 8.25 33.95 40.19 42.09 62.67-17.8 3.89-12.87 37.46 9.15 40.11.28 4.15.44 20.48-.09 24.96-10.36-15.02-20.9-9-31.34-31.35-9.38-20.16-30.46-100.93-19.82-96.38Z" class="am" data-name="Path"/><path d="M256 24.27c-117.39 0-173.93 95.58-166.87 218.5 1.45 24.7 8.32 60.35 16.8 90.88C123.54 397.13 216.44 461.07 256 461.07s132.44-63.94 150.06-127.41c8.48-30.52 15.35-66.17 16.8-90.88C429.92 119.86 373.41 24.27 256 24.27" class="ad"/><path d="M255.98 361.27c-27.5-12.11-27.72-.48-70.19 2.36 15.94 18.1 27.68 41.38 70.18 41.38 48.79 0 57.03-26.44 70.24-41.38-42.51-2.84-42.69-14.46-70.23-2.36" style="fill:#d47706"/><path d="M198.54 368.15c27.73 28.85 87.52 28.46 114.9.02-42.68 4.58-72.2 4.58-114.9-.02" class="ai"/><path d="M380.73 201.88c-25.5-15.19-71.25-17.07-89.34-6.71-3.83 2.1-2.82 13.09.51 11.71 25.81-10.75 65.15-11.3 89.39 1.14 3.24 1.64 3.33-3.94-.55-6.14Zm-249.48 0c25.5-15.19 71.24-17.07 89.38-6.71 3.84 2.1 2.82 13.09-.52 11.71-25.83-10.75-65.12-11.32-89.39 1.14-3.26 1.64-3.33-3.94.53-6.14" style="fill:#966f42"/><path d="M282.39 322.27c-2.81-1.96-9.35 1.05-26.41 1.05s-23.58-3-26.38-1.05c-3.35 2.36 1.97 12.98 26.38 12.98s29.77-10.62 26.41-12.98" class="am"/><path id="g" d="M229.89 248c.99 7.75-4.28 16.96-18.89 23.87-9.27 4.37-28.57 9.55-53.92-1.14-11.36-4.79-22.44-19.71-21.44-27.96 13.75-25.9 81.39-29.69 94.25 5.23" class="ai" data-name="Path"/><circle id="i" cx="183.99" cy="247.46" r="26.56" data-name="Oval" style="fill:url(#h)"/><path id="j" d="M170.72 246.98c0 18.38 26.57 18.38 26.57 0 0-17.06-26.57-17.06-26.57 0" class="af" data-name="Path"/><path id="k" d="M166.68 239.54c0 7.71 11.14 7.71 11.14 0 0-7.15-11.14-7.15-11.14 0" class="aj" data-name="Path"/><path id="l" d="M230.01 249.02c-10.79-34.69-84.35-29.56-94.37-6.25 3.71-29.86 85.17-37.73 94.37 6.25" class="ak" data-name="Path"/><path id="m" d="M282.11 248c-.99 7.75 4.28 16.96 18.89 23.87 9.27 4.37 28.57 9.55 53.92-1.14 11.37-4.79 22.44-19.71 21.44-27.96-13.74-25.9-81.39-29.69-94.25 5.23" class="ai" data-name="Path"/><circle id="o" cx="327.4" cy="247.46" r="26.56" data-name="Oval" style="fill:url(#n)"/><path id="p" d="M314.13 246.98c0 18.38 26.58 18.38 26.58 0 0-17.06-26.58-17.06-26.58 0" class="af" data-name="Path"/><path id="q" d="M310.09 239.54c0 7.71 11.14 7.71 11.14 0 0-7.15-11.14-7.15-11.14 0" class="aj" data-name="Path"/><path id="r" d="M282.01 249.02c10.78-34.67 84.29-29.71 94.36-6.25-3.73-29.86-85.17-37.73-94.36 6.25" class="ak" data-name="Path"/><path d="M424.94 203.34c-7.42 15.96 20.59 154.46 1.43 386.59l-51.9 4.14c24.02-178.36 24.77-417.32 24.77-417.32l25.71 26.59Zm-337.88 0c7.42 15.96-20.59 154.45-1.43 386.58l51.9 4.15c-24.02-178.36-24.77-417.32-24.77-417.32l-25.71 26.59Z" class="ap"/><path d="M256 13.6c-125.02.02-172.8 116.98-168.03 189.74C137.22 184.55 215.88 49.99 256 90.29c40.12-40.31 118.78 94.25 168.03 113.05C428.8 130.58 381.02 13.62 256 13.6" class="ap"/><path d="M256.01 13.6c-2.66 49.58-10.27 70.17 0 76.68 10.83-7.01 2.66-27.09 0-76.68" class="z"/><path d="M256 90.29c41-27.56 125 106.3 168.03 113.05C367.67 167.35 286.33 34.29 256 90.29m0 0c-41-27.56-125 106.3-168.03 113.05C144.33 167.35 225.67 34.29 256 90.29" class="z"/><path d="M252.3 183.43c-41.5-72.31-113.09-5.83-176.53-73.12-1.26-1.33-6.75 11.43-6.06 12.17 60.32 65.81 129.25 17.46 182.59 92.33 3.61 5.08 5.02-22.62 0-31.38" style="fill:url(#s)"/><path d="M258.83 214.82C312.15 139.94 382 188.3 442.3 122.49c.67-.73-5.01-13.5-6.27-12.17-63.47 67.3-135.72.81-177.19 73.12-5.05 8.76-3.63 36.46 0 31.38Z" style="fill:url(#t)"/><path d="M278.37 188.83c0 43.21-45.64 43.21-45.64 0-.01-40.06 45.64-40.06 45.64 0" style="fill:#0fb4d4"/><path d="M270.85 189.16c0 32.37-30.4 32.37-30.4 0 0-30.06 30.4-30.06 30.4 0" style="fill:#75d6ff"/></svg>