<svg xmlns="http://www.w3.org/2000/svg" data-name="Layer 1" style="" viewBox="0 0 512 512"><g><defs><linearGradient id="1770301554982-8140759_b" x1="322.39" x2="322.39" y1="314.82" y2="513.5" gradientTransform="matrix(1 0 0 -1 0 514)" gradientUnits="userSpaceOnUse"><stop offset=".05" stop-color="#473834"></stop><stop offset=".23" stop-color="#594640"></stop><stop offset=".52" stop-color="#715950"></stop><stop offset=".7" stop-color="#7a6056"></stop></linearGradient><linearGradient id="1770301554982-8140759_c" x1="1081.21" x2="1081.21" y1="314.82" y2="513.5" gradientTransform="rotate(180 635.405 257)" gradientUnits="userSpaceOnUse"><stop offset=".05" stop-color="#473834"></stop><stop offset=".23" stop-color="#594640"></stop><stop offset=".52" stop-color="#715950"></stop><stop offset=".7" stop-color="#7a6056"></stop></linearGradient><linearGradient id="1770301554982-8140759_d" x1="255.99" x2="255.99" y1="314.81" y2="513.51" gradientTransform="matrix(1 0 0 -1 0 514)" gradientUnits="userSpaceOnUse"><stop offset=".05" stop-color="#473834"></stop><stop offset=".23" stop-color="#594640"></stop><stop offset=".52" stop-color="#715950"></stop><stop offset=".7" stop-color="#7a6056"></stop></linearGradient></defs><path d="M289.2 195.87c66.4-26.55 59.77-89.64 59.77-89.64H163.04s-6.65 63.09 59.75 89.64c0 0 13.29 3.34 33.2 3.34 19.93 0 33.2-3.34 33.2-3.34Z" class="h" fill="#473834"></path><path d="M323.13 112.97c6.78 28.6 3.22 56.9-33.94 82.9 39.85-6.63 66.4-44.27 66.4-73.11z" fill="url(#1770301554982-8140759_b)"></path><path d="M188.88 112.97c-6.8 28.6-3.22 56.9 33.94 82.9-39.85-6.63-66.42-44.27-66.42-73.11z" fill="url(#1770301554982-8140759_c)"></path><path d="M317.16 365.78H194.79c-9.78 17.14-89.29-15.09-124.98-6.55 0 0 149.25 107.42 188.33 107.67 39.08-.25 183.95-107.67 183.95-107.67-35.76-8.52-115.11 23.71-124.94 6.55Z" fill="#302c3b"></path><path d="M179.19 406.36c37.35 15.5 70.55 43.56 102.87 43.9 12.22-4.39 26.21 7.94 39.17 10.67 14.6 3.06 37.2-6.02 48.68 2.48 14.81-4.42 20.32 12.45 10.21 16.1 2.62 4.93-1.1 8.87-3.38 9.51 1.83 4.23-1.73 8.71-3.74 8.8 1.03 3.2-1.5 6.73-4.55 7.4-2.92 19.37-63.07-8.65-78.99-12.27-6.96-1.59-12.12-7.94-20.7-11.96l-86.15-3.7c-11.91-45.94-3.43-70.93-3.43-70.93Z" class="j" fill="#f5bb51"></path><path d="M368.68 477.85c3.93 3.76 13.67 5.35 15.5-1.52-3.17 1.92-5.32 2.01-15.5 1.52m-1.52 12.33s11.54 2.73 13.59-5.45c-3.15 4.12-13.59 5.45-13.59 5.45m-2 9.58s9.22 2.17 11.45-5.4c-3.15 4.1-11.45 5.4-11.45 5.4m-3.74 6.51s9.28 2.59 11.14-4.27c-3.16 4.1-11.14 4.27-11.14 4.27" class="q" fill="#f0a429"></path><path d="M69.81 358.61c27.5-9.57 78.6 20.11 113.2 49.38 0 39.01 7.27 69.63 7.27 69.63-57.69-.63-99.2-33.43-128.97-54.08-25.01-17.31-23.45-53.79 8.49-64.93Z" class="p" fill="#4e5e67"></path><path d="M332.78 406.36c-37.33 15.5-70.54 43.56-102.87 43.9-12.2-4.39-26.2 7.94-39.15 10.67-14.6 3.06-37.21-6.02-48.7 2.48-14.81-4.42-20.32 12.45-10.21 16.1-2.62 4.93 1.1 8.87 3.38 9.51-1.83 4.23 1.73 8.71 3.74 8.8-1.03 3.2 1.5 6.73 4.55 7.4 2.92 19.37 63.07-8.65 79-12.27 6.95-1.59 12.1-7.94 20.7-11.96l86.14-3.7c11.91-45.94 3.43-70.93 3.43-70.93Z" class="i" fill="#ffc940"></path><path d="M143.29 477.85c-3.93 3.76-13.67 5.35-15.5-1.52 3.17 1.92 5.32 2.01 15.5 1.52m1.52 12.33s-11.54 2.73-13.59-5.45c3.15 4.12 13.59 5.45 13.59 5.45m2 9.58s-9.22 2.17-11.45-5.4c3.15 4.1 11.45 5.4 11.45 5.4m3.75 6.51s-9.28 2.59-11.14-4.27c3.15 4.1 11.14 4.27 11.14 4.27" class="q" fill="#f0a429"></path><path d="M442.16 358.61c-27.5-9.57-78.6 20.11-113.2 49.38 0 39.01-7.25 69.63-7.25 69.63 57.67-.63 99.18-33.43 128.95-54.08 25.01-17.31 23.45-53.79-8.49-64.93Z" class="p" fill="#4e5e67"></path><path d="M506.54 343.08c-1.03-.21-10.82.3-10.82.3s9.23-2.67 11.73-3.5c6.78-2.2 4.68-9.22-.42-9.22-7.59-.02-16.79 3.38-16.79 3.38s.07-10.21-1.1-16.84c-.6-3.62-9.83-3.99-12.87-6.12-.7-.5-1.42-.6-2.12-.56 7.6-5.56 2.9-12.12-.75-10.6-10.04 4.13-12.43-.75-17.22 3.88-3.35 3.23-15.18 19.76-18.33 18.83-16.37-4.8-38.49-22.77-45.53-32.05-34.45-44.73-37.75-101.34-66.94-99.8-6.7-1.43-21.42-5.85-39.29-6.37-2.13-4.95-3.17-8.12-3.58-13.76h-53.1c-.4 5.65-1.45 8.82-3.57 13.76-17.89.52-32.58 4.93-39.3 6.37-29.18-1.55-32.47 55.07-66.94 99.8-7.05 9.28-29.17 27.25-45.52 32.05-3.17.93-14.98-15.6-18.33-18.83-4.79-4.63-7.2.25-17.22-3.88-3.67-1.52-8.35 5.03-.77 10.6-.68-.03-1.4.07-2.12.56-3.03 2.13-12.25 2.5-12.87 6.12-1.15 6.61-1.08 16.84-1.08 16.84s-9.17-3.4-16.76-3.38c-5.1 0-7.22 7.01-.44 9.22 2.5.84 11.73 3.5 11.73 3.5s-9.77-.52-10.82-.3c-6.84 1.5-7.08 9.42.5 10.68 1.75.28 6.25-.38 7.33-.3-4.75 2.18-5.61 10.91 4.67 10.63 13.88-.38 26.65 2.08 32 2.08 4.05 0 24.58-1.13 31.9-12.02 5.68-8.32 46.75-22.6 61.36-33.82 9.88-9.32 29.87-35.92 37.4-67.48 0 0 2.48 8.53 2.48 18.35h145.8c0-9.81 2.5-18.35 2.5-18.35 7.54 31.57 27.52 58.16 37.38 67.48 14.62 11.21 55.7 25.5 61.36 33.82 7.31 10.88 27.85 12.02 31.9 12.02 5.35 0 18.13-2.47 32-2.08 10.28.28 9.43-8.45 4.67-10.63 1.08-.09 5.58.58 7.35.3 7.58-1.26 7.35-9.18.49-10.68ZM51.51 325.93c-4.6 5.51-2.08 12.54-16.25 5.65-1.87-2.66-2.53-6.46-1.2-9.36 7-3.43 7.71-7.83 6.25-10.16 2.38 1.26 5.49 2.43 9.58 3.38 2.3 3.62 1.62 10.5 1.62 10.5Zm425.23 5.65c-14.17 6.89-11.65-.14-16.25-5.65 0 0-.7-6.89 1.61-10.5 4.09-.95 7.19-2.12 9.57-3.38-1.45 2.33-.75 6.73 6.25 10.16 1.36 2.9.69 6.7-1.18 9.36Z" class="j" fill="#f5bb51"></path><path d="M462.88 351.18c-.37-5.49-7.54-19.06-19.65-17.47 11.32 3.29 16.84 11.45 19.65 17.47m13.22-6.7c16.17-1.38 40.76.61 35.06-11.55 1.24 10.36-22.25 8.37-35.06 11.55m14.16-12.33.03 1.9c-7.08 2.65-10.72 2.03-10.72 2.03s4.05-1.12 10.68-3.93Zm-15.9 22.42c19.57-3.69 40.01 5.84 37.09-7.57-.42 10.74-18.27 1.05-37.09 7.57m-425.25-3.39c.37-5.49 7.55-19.06 19.67-17.47-11.32 3.29-16.84 11.45-19.67 17.47m-13.22-6.7c-16.15-1.38-40.76.61-35.05-11.55-1.25 10.36 22.25 8.37 35.05 11.55m-14.15-12.33-.03 1.9c7.08 2.65 10.7 2.03 10.7 2.03s-4.05-1.12-10.67-3.93m15.9 22.42C18.06 350.88-2.39 360.41.54 347c.44 10.74 18.27 1.05 37.1 7.57" class="q" fill="#f0a429"></path><path d="M316.91 188.83c.49-2.47-17.19-6.52-17.87-3.08-16.33 82.94-69.79 82.84-86.1 0-.68-3.43-18.35.61-17.87 3.08 12.36 63.11-13.1 75.05-13.1 75.05-2.52 12.4 10.12 44.73 10.12 44.73 5.14 32.1 2.7 57.17 2.7 57.17 34.9 38.94 87.47 38.9 122.37 0 0 0-2.4-25.07 2.73-57.17 0 0 12.63-32.33 10.12-44.73 0 0-25.47-11.93-13.1-75.05" fill="#8e3ed6"></path><path d="M224.18 192.4s10.02 12.4 31.82 12.4 31.83-12.4 31.83-12.4v-35.18h-63.65z" class="j" fill="#f5bb51"></path><path d="M255.99 9.96c-48.17 0-71.38 39.24-68.48 89.69.6 10.14 3.41 24.76 6.9 37.28 7.24 26.07 45.35 52.3 61.59 52.3s54.37-26.23 61.6-52.3c3.46-12.52 6.3-27.15 6.9-37.28 2.87-50.45-20.32-89.69-68.51-89.69" class="i" fill="#ffc940"></path><path d="M307.19 82.86c-10.47-6.25-29.25-7.01-36.67-2.76-1.59.87-1.15 5.37.2 4.8 10.6-4.4 26.75-4.62 36.7.49 1.32.66 1.36-1.62-.23-2.53m-102.4 0c10.47-6.25 29.25-7.01 36.69-2.76 1.59.87 1.15 5.37-.21 4.8-10.6-4.4-26.72-4.63-36.69.49-1.34.66-1.37-1.62.21-2.53" fill="#966f42"></path><path d="M266.83 132.26c-1.15-.8-3.83.44-10.84.44s-9.69-1.24-10.84-.44c-1.37.96.82 5.33 10.84 5.33s12.22-4.36 10.84-5.33" class="q" fill="#f0a429"></path><path d="M242.18 100.08c-8.82 5.61-22.52 5.61-31.33 0-1.35-.87-2.17.07-1.73.79 8.57 14.53 26.21 14.53 34.78 0 .45-.72-.37-1.66-1.72-.79m59 0c-8.83 5.61-22.54 5.61-31.35 0-1.35-.87-2.15.07-1.73.79 8.57 14.53 26.23 14.53 34.8 0 .44-.72-.38-1.66-1.72-.79" fill="#45332c"></path><path d="M310.22 17c5.5-7.85-41.1-24.43-85.1-13.24-43.95 10.07-68.74 75.91-68.74 118.98 3.95 3.11 28.02-4.67 32.49-9.78 1.82-7.54 4.68-15.28 7.36-23.33 33-19.1 70.35-23.6 96.27-46.46-3.32 9.95 14.27 22.52 23.25 46.46 2.92 7.78 5.51 15.56 7.36 23.33 7.33 6.75 21.95 9.93 32.47 9.78 0-36.43-27.74-110.83-45.36-105.75Z" fill="url(#1770301554982-8140759_d)"></path><path d="M164.31 116.2C194.71 75.72 293.2 78.45 310.23 17c-33.08 51.58-137.61 60.28-145.92 99.2" class="h" fill="#473834"></path><path d="M282.63 150.43c-15.58 15.9-38.5 14.81-53.25 0 18.71 1.43 34.53 1.43 53.25 0" fill="#e6a400"></path><path d="M255.99 149.8c-7.42-2.36-14.17 1.92-26.62.63 6.17 2.88 17.17 3.83 26.62 4.13 9.46-.3 20.46-1.25 26.63-4.13-12.45 1.31-19.2-3.01-26.63-.63" fill="#d99025"></path></g></svg>
