<svg xmlns="http://www.w3.org/2000/svg" id="a" data-name="Layer 1" viewBox="0 0 512 640.01"><defs><linearGradient id="b" x1="407.1" x2="407.1" y1="114.04" y2="598.11" gradientTransform="matrix(1 0 0 -1 0 642.01)" gradientUnits="userSpaceOnUse"><stop offset=".05" stop-color="#473834"/><stop offset=".23" stop-color="#594640"/><stop offset=".52" stop-color="#715950"/><stop offset=".7" stop-color="#7a6056"/></linearGradient><linearGradient id="c" x1="1165.92" x2="1165.92" y1="114.04" y2="598.11" gradientTransform="matrix(-1 0 0 -1 1270.81 642.01)" gradientUnits="userSpaceOnUse"><stop offset=".05" stop-color="#473834"/><stop offset=".23" stop-color="#594640"/><stop offset=".52" stop-color="#715950"/><stop offset=".7" stop-color="#7a6056"/></linearGradient><linearGradient id="e" x1="-616.61" x2="-616.61" y1="428.02" y2="419.93" gradientTransform="translate(4235.16 -2495.38)scale(6.57)" gradientUnits="userSpaceOnUse"><stop offset="0" stop-color="#a6694a"/><stop offset="1" stop-color="#4f2a1e"/></linearGradient><linearGradient id="k" x1="-597.48" x2="-597.48" y1="428.02" y2="419.93" gradientTransform="translate(4252.89 -2495.38)scale(6.57)" gradientUnits="userSpaceOnUse"><stop offset="0" stop-color="#a6694a"/><stop offset="1" stop-color="#4f2a1e"/></linearGradient><linearGradient id="p" x1="256.01" x2="256.01" y1="114.05" y2="598.13" gradientTransform="matrix(1 0 0 -1 0 642.01)" gradientUnits="userSpaceOnUse"><stop offset=".05" stop-color="#473834"/><stop offset=".23" stop-color="#594640"/><stop offset=".52" stop-color="#715950"/><stop offset=".7" stop-color="#7a6056"/></linearGradient><style>.v{fill:#473834}.aa{fill:#1a1626}.ae{fill:#fff}.ah{fill:#ab968c}.ai{fill:#45332c}.am{fill:#ffec00}</style></defs><path d="M336.87 519.9c161.79-64.7 124.27-218.4 124.27-218.4H50.84s-37.5 153.7 124.25 218.4c0 0 32.37 8.1 80.9 8.1s80.9-8.1 80.9-8.1Z" class="v"/><path d="M419.54 317.91c12.5 52.6-16.57 155.72-82.67 201.99 97.09-16.18 140.46-107.84 140.46-178.18l-57.79-23.82Z" style="fill:url(#b)"/><path d="M92.44 317.91c-12.5 52.6 16.59 155.72 82.69 201.99C78.04 503.72 34.67 412.06 34.67 341.72l57.77-23.82Z" style="fill:url(#c)"/><path d="M44.96 541.63c25.62-13.75 396.61-13.79 422.06 0C504.04 561.61 512 588.2 512 613.97c0 5.75-14.06 10.55-37.53 14.39l-190.57 11.5c-18.52.19-37.23.19-55.75.01l-190.61-11.5C14.07 624.52 0 619.73 0 613.97c0-25.81 7.84-52.44 44.96-72.34" style="fill:#006dae"/><path d="M157.24 495.7c0 86.65 197.5 86.65 197.5 0l-19.16-8.02h-158.3z" style="fill:#005c94"/><path d="M176.02 490.09c0 67.83 160 67.83 160 0v-75.04h-160z" style="fill:#f5bb51"/><path d="M152.23 497.56c-9.6 3.56-21.26 7.96-33.4 12.65-5.64 25.6-39.15 32.77-44.63 17.86-12.54 5.29-23.11 10.1-29.26 13.58-.86.5-3.51 61.6-4.59 87.19 10.68 1.65 23.14 3.14 36.99 4.43 30.25-15.73 54.55 3.81 54.55 3.81 28.95 1.48 60.67 2.41 93.07 2.76l-.66-1.14c-.45-.82-46.83-76.89-72.07-141.13Zm285.55 30.49c-5.48 14.91-38.98 7.75-44.63-17.86a2794 2794 0 0 0-33.42-12.65c-25.22 64.25-71.61 140.31-72.06 141.12l-.66 1.14c32.41-.35 64.14-1.28 93.09-2.76 30.23-25.05 54.55-3.81 54.55-3.81 13.85-1.29 26.29-2.77 36.97-4.43-1.08-25.58-3.72-86.69-4.61-87.19-6.13-3.47-16.68-8.28-29.23-13.57Z" style="fill:#f59e01"/><path d="m74.22 528.01 3.18 105.23c16.44 1.55 34.82 2.82 54.5 3.82l-13.06-126.87c-15.23 5.87-31.11 12.14-44.62 17.82m318.93-17.81-13.06 126.87c19.69-1.01 38.06-2.28 54.5-3.82l3.18-105.23c-13.51-5.7-29.4-11.97-44.62-17.82" style="fill:#fff82c"/><path d="m39.57 544.69-2.04 83.66c1.73.28 3.5.55 5.33.83l2.09-87.55c-1.88 1.11-5.39 3.06-5.39 3.06Zm427.45-3.06 2.11 87.55c1.83-.28 3.61-.55 5.32-.83l-2.03-83.63s-3.51-1.98-5.41-3.09Zm-240.39 95.71c-.46-.79-44.23-77.6-69.4-141.64-1.6.59-3.26 1.21-5 1.86C177.81 562.7 221.99 640 221.99 640h6.15zm58.74 0c.46-.79 44.23-77.6 69.38-141.64 1.6.59 3.26 1.21 5 1.86C334.19 562.7 289.99 640 289.99 640h-6.14l1.53-2.66Z" style="fill:#302c3b"/><path d="M256 66.94c-117.4 0-173.94 95.59-166.88 218.51 1.46 24.69 8.33 60.33 16.81 90.87C123.54 439.8 216.44 503.73 256 503.73s132.44-63.93 150.06-127.4c8.48-30.54 15.35-66.18 16.79-90.87C429.92 162.54 373.4 66.94 256 66.94" style="fill:#ffc940"/><path d="M255.98 403.95c-27.5-12.11-27.73-.5-70.19 2.36 15.94 18.1 27.67 41.38 70.17 41.38 48.79 0 57.05-26.44 70.25-41.38-42.52-2.86-42.69-14.46-70.23-2.36" style="fill:#d47706"/><path d="M198.54 410.82c27.73 28.85 87.52 28.47 114.89.02-42.68 4.58-72.2 4.58-114.89-.02" class="ae"/><path d="M380.73 244.55c-25.5-15.21-71.25-17.07-89.35-6.71-3.83 2.09-2.79 13.08.52 11.7 25.81-10.74 65.14-11.29 89.38 1.15 3.25 1.64 3.34-3.94-.54-6.14Zm-249.48 0c25.5-15.21 71.23-17.07 89.38-6.71 3.83 2.09 2.82 13.08-.52 11.7-25.83-10.74-65.12-11.31-89.4 1.15-3.25 1.64-3.32-3.94.54-6.14" style="fill:#966f42"/><path d="M282.38 364.94c-2.79-1.96-9.35 1.06-26.4 1.06s-23.58-3.01-26.38-1.06c-3.35 2.36 1.96 12.99 26.38 12.99s29.77-10.62 26.4-12.99" style="fill:#f0a429"/><path id="d" d="M229.88 290.67c1 7.77-4.27 16.97-18.88 23.86-9.27 4.39-28.57 9.56-53.92-1.13-11.35-4.78-22.44-19.7-21.44-27.95 13.74-25.9 81.39-29.7 94.24 5.22" class="ae" data-name="Path"/><circle id="f" cx="183.98" cy="290.14" r="26.56" data-name="Oval" style="fill:url(#e)"/><path id="g" d="M170.71 289.66c0 18.38 26.58 18.38 26.58 0 0-17.07-26.58-17.07-26.58 0" class="aa" data-name="Path"/><path id="h" d="M166.67 282.22c0 7.72 11.15 7.72 11.15 0 0-7.14-11.15-7.14-11.15 0" class="ah" data-name="Path"/><path id="i" d="M230.01 291.69c-10.79-34.68-84.35-29.56-94.36-6.24 3.7-29.86 85.16-37.74 94.36 6.24" class="ai" data-name="Path"/><path id="j" d="M282.1 290.67c-.98 7.77 4.29 16.97 18.89 23.86 9.27 4.39 28.57 9.56 53.92-1.13 11.37-4.78 22.44-19.7 21.44-27.95-13.73-25.9-81.38-29.7-94.25 5.22" class="ae" data-name="Path"/><circle id="l" cx="327.41" cy="290.14" r="26.56" data-name="Oval" style="fill:url(#k)"/><path id="m" d="M314.14 289.66c0 18.38 26.56 18.38 26.56 0 0-17.07-26.56-17.07-26.56 0" class="aa" data-name="Path"/><path id="n" d="M310.08 282.22c0 7.72 11.15 7.72 11.15 0 0-7.14-11.15-7.14-11.15 0" class="ah" data-name="Path"/><path id="o" d="M282.01 291.69c10.77-34.66 84.29-29.7 94.36-6.24-3.73-29.86-85.17-37.74-94.36 6.24" class="ai" data-name="Path"/><path d="M388.11 84.1c13.42-19.14-100.13-59.54-207.34-32.25C73.69 76.37 34.67 236.81 34.67 341.73c9.58 7.59 46.89-11.36 57.77-23.82 4.44-18.37 11.43-37.26 17.96-56.83 80.42-46.56 171.41-57.53 234.58-113.25-8.09 24.27 34.73 54.88 56.63 113.25 7.08 18.92 13.44 37.9 17.94 56.83 17.86 16.43 32.15 24.18 57.79 23.82-.01-88.74-46.3-270.02-89.24-257.63Z" style="fill:url(#p)"/><path d="M53.96 325.78c74.06-98.63 292.67-91.95 334.14-241.67C307.56 209.77 74.19 230.97 53.96 325.78" class="v"/><path d="M464 224.96H48C48 142.14 82.54 27.2 256 27.2c173.48 0 208 114.95 208 197.76" class="am"/><path d="M335.63 175.68V37.39l-79.61-24.48-79.65 24.28v138.5C91.6 186.53 32 212.15 32 242.08h448c0-29.93-59.58-55.55-144.37-66.39Z" style="fill:#ffdb00"/><path d="M319.98 199.22H192.04V35.33c0-47.1 127.94-47.1 127.94 0z" class="am"/><path d="m467.34 250.67-424-.08 1.68-8.52h420.64z" style="isolation:isolate;opacity:.2"/></svg>