<svg xmlns="http://www.w3.org/2000/svg" id="a" data-name="Layer 1" viewBox="0 0 512 590.76"><defs><radialGradient id="c" cx="371.31" cy="561.45" r="113.65" fx="371.31" fy="561.45" gradientTransform="matrix(1.01 0 0 -1 2.1 592.76)" gradientUnits="userSpaceOnUse"><stop offset="0" stop-color="#9be022"/><stop offset=".36" stop-color="#99de22"/><stop offset=".58" stop-color="#93d522"/><stop offset=".75" stop-color="#87c722"/><stop offset=".9" stop-color="#78b423"/><stop offset="1" stop-color="#69a123"/></radialGradient><radialGradient id="d" cx="371.31" cy="561.45" r="113.65" fx="371.31" fy="561.45" gradientTransform="matrix(1.01 0 0 -1 2.1 592.76)" gradientUnits="userSpaceOnUse"><stop offset="0" stop-color="#ff000e"/><stop offset=".22" stop-color="#f8000c"/><stop offset=".55" stop-color="#e40008"/><stop offset=".94" stop-color="#c40001"/><stop offset="1" stop-color="#bf0000"/></radialGradient><radialGradient id="e" cx="371.32" cy="561.45" r="113.64" fx="371.32" fy="561.45" gradientTransform="matrix(1.01 0 0 -1 2.1 592.76)" gradientUnits="userSpaceOnUse"><stop offset="0" stop-color="#ff000e"/><stop offset=".22" stop-color="#f8000c"/><stop offset=".55" stop-color="#e40008"/><stop offset=".94" stop-color="#c40001"/><stop offset="1" stop-color="#bf0000"/></radialGradient><radialGradient id="f" cx="371.32" cy="561.46" r="113.68" fx="371.32" fy="561.46" gradientTransform="matrix(1.01 0 0 -1 2.1 592.76)" gradientUnits="userSpaceOnUse"><stop offset="0" stop-color="#ff000e"/><stop offset=".22" stop-color="#f8000c"/><stop offset=".55" stop-color="#e40008"/><stop offset=".94" stop-color="#c40001"/><stop offset="1" stop-color="#bf0000"/></radialGradient><linearGradient id="b" x1="297.25" x2="401.08" y1="477.89" y2="477.89" gradientTransform="matrix(1 0 0 -1 0 592.76)" gradientUnits="userSpaceOnUse"><stop offset="0" stop-color="#473834"/><stop offset=".34" stop-color="#5e4a43"/><stop offset=".74" stop-color="#735a51"/><stop offset="1" stop-color="#7a6056"/></linearGradient><linearGradient id="g" x1="171.3" x2="317.73" y1="501.26" y2="501.26" gradientTransform="matrix(1 0 0 -1 0 592.76)" gradientUnits="userSpaceOnUse"><stop offset="0" stop-color="#7a6056"/><stop offset=".31" stop-color="#775d54"/><stop offset=".57" stop-color="#6d554d"/><stop offset=".8" stop-color="#5b4842"/><stop offset="1" stop-color="#473834"/></linearGradient><linearGradient id="j" x1="186.21" x2="186.21" y1="469.82" y2="486.98" gradientTransform="matrix(1 0 0 -1 0 592.76)" gradientUnits="userSpaceOnUse"><stop offset="0" stop-color="#a6694a"/><stop offset="1" stop-color="#4f2a1e"/></linearGradient><style>.v{fill:#ffc940}.x{fill:#f5bb51}.y{fill:#fff}.z{fill:#c28fef}.aa{fill:#8e3ed6}.ae{fill:#f0a429}.af{fill:#302c3b}.ag{fill:#f2f5f7}</style></defs><path d="M379.33 169.15c6.29 2.3 13.44 3.15 21.75 1.65C342.16 137.21 389.7 4.29 297.25 39.25l12.96 33.33c26.13 5.06-12.79 74.69 35.08 98.46-4.72-4.42-4.72-13.64-3.47-24.54 9.16 31.33 18.83 53.54 55.77 49.29-6.63-1.45-13.22-12.56-18.26-26.64" style="fill:url(#b)"/><path d="M289.24 39.67c-10.98 7.69 2.67 38.75 24.69 40.05 18.1 1.13-6.6-52.74-24.69-40.05" class="aa"/><path d="M184.08 216.48s-31.15 19.08-46.14 22.77c-22.98-1.9-66.38 2.87-73.67 2.92-7.06.08-27-6.09-31.82-3.9-20.4 9.28-23 8.5-30.42 19.49-5.61 8.33 1.77 5.59 5.59 1.79 5.96-5.89 19.85-9.87 21.31-2.34-15.56 1.31-18.26 11.68-12.5 10.79 14.85-2.32 23.93-.54 31.77-7.44 3.19-2.79 22.75-4.31 51.55 4.66 22.78 7.08 42.51 7.27 51.39 5.21 24.61-5.75 44.25-15.58 44.25-15.58l-11.3-38.37Z" class="x"/><path d="M510.33 590.56s8.41-35.63-12.5-66.44l-8.27-24.42c-3.73-.04-4.14 1.5-4.14 1.5s-6.07 23.93 21.06 88.33c0 0 .66 1.83 3.85 1.03" class="aa"/><path d="M462.03 544.76c15.62 3.27 20.9 50.62 44.46 44.77 0 0 8.13-33.11-12.79-63.9l-8.27-24.42c-40.35 3.76-32.68 18.3-23.4 43.55" class="af"/><path d="M480.53 569.19c5.67-10.94 5.46-17.27-.52-16.21 2.38-6.94-1.94-9.22-5.39-8.21.81-6.96-5.31-7.56-9.18 1.5-1.94 5.11 13.56 25.86 15.08 22.92Zm-70.82.79s-3.47-36.44-33.17-59.02l-15.67-20.54c-3.55 1.13-3.47 2.73-3.47 2.73s1.92 24.61 48.3 77.07c0 0 1.22 1.5 4.01-.25Z" class="aa"/><path d="M348.66 541.11c15.82-1.83 36.64 42.09 57.06 29.11 0 0-2.9-33.96-32.62-56.54l-15.68-20.54c-37.02 16.34-25.68 26.98-8.75 47.96Z" class="af"/><path d="M374.62 559.13c1.85-12.15-.38-18.08-5.73-15.19.02-7.33-4.79-8.11-7.73-6.07-1.46-6.84-7.48-5.48-8.23 4.31-.2 5.47 21.17 20.24 21.69 16.95" class="aa"/><path d="M343.03 507.01c-47.4-4.1-57.14-41.23-104.57-30.67 2.94-19.31 6.75-32.34 6.75-32.34s-47.19 7.5-66.52 8c-4.25 35.55 15.94 61.69 23 65.33 10.17 5.27 60.55-.56 134.86 20.12 6.07 1.66 9.61-30.17 6.48-30.43Z" class="x"/><path d="M346.28 507.01c-2.08-2.25-12.02-2.62-12.02-2.62s7.73 19.19 2.28 33.03c3.53.91 7.1 1.81 10.71 2.83 6.07 1.7 7.08-24.45-.97-33.24" class="ag"/><path d="M240.26 469.63c1.23 1.44 3.96 4.12 5.57 5.1 4.62 44.5-14.04 48.14-14.04 48.14-36.32 11.36-49.41-24.58-49.41-24.58 11.28-14.78 43.36-26.79 57.87-28.66Z" class="aa"/><path d="M460.45 510.26c-54.92-18.4-51.21-47.58-103.36-48.92-3.85-19.15-11.12-32.92-17.33-47.15-18.96 4.88-36.21 32.44-54.19 39.44 13.6 25.46 29.25 47.71 35.96 51.96 9.65 6.15 57.6 7.16 129.73 34.38 5.89 2.22 12.17-28.7 9.2-29.71Z" class="x"/><path d="M463.46 507.34c-.73-.96-11.16 0-11.16 0 4.36 7.58 4.36 28.39-1.05 32.63 3.43 1.21 6.84 2.52 10.41 3.77 4.26 1.51 9.5-26.59 1.8-36.4" class="ag"/><path d="M355.43 449.55c1.96 8.39 5.59 9.6 14.65 11.98-3.89 43.02-22.69 51.43-22.69 51.43-18.14 0-39.5-10.52-44.13-27.21 3.17-12.43 24.61-20.32 52.17-36.19Z" class="aa"/><path d="M314.08 350.15H192.72c-6.98 28.13-27.42 65.39-18.28 127.17 13.96 6.66 73.84-24.88 73.84-24.88 2.22-23.89 4.68-30.21 12.89-34.34 2.36-1.19 13.74 30.69 27.42 45.88l65.98-39.16z" class="af"/><path d="M348.1 428.67c-4.8 3.61-13.15 7.81-13.15 7.81l-47.19-86.33h15.11z" class="z"/><path d="m366.27 153.29 24.31-58.85 30.1 12.77s-21.12 53.67-31.69 70.09c-8.09 12.53-48.34 27.54-48.34 27.54l-13.34-35.59 38.97-15.96Z" class="x"/><path d="M455.17 9.09c33.03 18.73 44.35 60.17 25.28 92.61-19.08 32.44-61.27 43.52-94.27 24.79-33-18.69-44.35-60.13-25.26-92.57 19.06-32.46 61.27-43.54 94.25-24.83" style="fill:url(#c)"/><path d="M453.1 8.04c-43.06 48.85-110.12 55.19-35.55-7.5.18-.16.34-.29.5-.42 11.85-.46 23.94 2.1 35.05 7.93Z" style="fill:url(#d)"/><path d="M445.52 131.01c-34.3-89.38 13.96-109.73 25.36-16.75-7.23 7.5-15.9 13.17-25.36 16.75" style="fill:url(#e)"/><path d="M352.03 61.59c78.75 18.28 77.33 60.17 5.21 32.67-4.42-10.26-6.26-21.47-5.21-32.67" style="fill:url(#f)"/><path d="M349.58 210.77c-11.75-7.87-17.59-42.88-17.59-42.88-69.93 21.19-116.19 21.19-166.8 52.15l23.44 41.86c2.92-1.48 5.87-3.09 8.77-4.75 1.13 13.56 5.55 20.32 5.44 23.4-1.37 36.37-13.5 76.38-13.5 76.38l126.96-5.95s-26.07-58.43-12.53-105.68c3.4-11.89 45.8-34.56 45.8-34.56Z" class="aa"/><path d="M296.1 177.63c-9.73.93-14.95 3.53-14.95 3.53-15.94 81.02-2.4 171.58-2.4 171.58h16.16s-14.09-94.06 1.19-175.11" class="z"/><path d="M207.34 190.61c13.08-6.23 22.62 12.67 27.08 32.67 15.07-20.46 42.15-29.38 46.75-42.11-2.81-10.71-2.1-24-2.1-24-8.73-4.97-37.48-72.72-71.73 33.45Z" class="x"/><path d="M217.95 34.65c-39.71 6.35-54.25 34.71-47.86 68.13 1.44 7.56-3.43 20.48-13.02 28.79-3.49 3.02-3.85 7.02-2.14 9.69 3.37 5.25 10.73 5.29 13.8 7.27 6.86 4.38-.02 9.24 5.15 14.38 2.36 2.36 9.1-.75 1.98 11.71 7.91 5.79-1.98 18.92 15.09 21.89 8.09 1.39 39.14-11.02 55.44-32.85 9.22-12.33 10.69-26.67 10.69-26.67 30.46-8.79 41.23-35.41 34.67-63.25-9.19-38.93-48.07-43.2-73.81-39.09Z" class="v"/><path d="M173.89 162.91c3.75 2.28 2.1 5.89 2.1 5.89-1.79 0-2.24 5.93.42 5.93 9.3 0 17.85-7.99 20.64-12.81-14.56-.73-30.54-7.31-23.16.99" style="fill:#d47706"/><path d="M173.89 162.91s1.43 5.1 2.1 5.89c2.92 0 12.43-2.1 18.26-5.95z" class="y"/><path d="M299.63 55.4c-7.14-22.92-42.05-37.95-75.84-31.21-32.87 6.5-57.08 29.06-51.75 43.8 7.58 20.94 54.01 20.56 71.28 56 .25 2.42 12.5 4.12 13.02 6.25 4.15 17.15 17.33 31.4 22.13 30.12 33.55-8.97 57.34-91.04 21.16-104.97Z" style="fill:url(#g)"/><path d="M155.05 141.3c2.75 7.33 20.32 8.9 25.94 0-9.27 6.71-27.56-4.25-25.94 0" class="ae"/><path d="M257.24 100c-14.83 3.08-19.45 36.54-8.35 43.8 1.54 1.02 9.67 1.92 13.96-6.27 2.38-4.54 10.9-9.16 12.08-18.06 1.52-11.4-2.96-22.52-17.69-19.48Z" class="v"/><path id="h" d="M258.01 106.21c-3.77 1.29-7.29 5.63-8.41 12.25 13.36-3.61 12.75 11.38.89 13.17.4 1.44.85 2.94 1.44 4.48 4.72-6.04 10.96-4.64 15.19-13.29 3.84-7.79.24-19.79-9.11-16.61" class="ae" data-name="Path"/><path id="i" d="M206.16 95.92c-8.46-4.88-24.61-5.12-30.63-1.71-1.29.65-.44 5.27.65 4.82 8.39-3.61 21.91-3.69 29.76.31 1.06.54 1.49-2.75.22-3.42" data-name="Path" style="fill:#966f42"/><path d="M202.62 113.04c.2 2.16-6.56 9.85-15.17 10.57-4.92.42-6.68-3.39-7.77-7.48-1.07-16.29 18.1-10.5 22.94-3.09" class="y"/><path id="k" d="M179.34 114.05c0 11.86 13.74 11.86 13.74 0 0-11.02-13.74-11.02-13.74 0" data-name="Path" style="fill:url(#j)"/><path id="l" d="M180.78 113.54c0 5.93 6.84 5.93 6.84 0 0-5.52-6.84-5.52-6.84 0" data-name="Path" style="fill:#1a1626"/><path id="m" d="M185.01 111.13c0 2.48 4 2.48 4 0 0-2.33-4-2.33-4 0" data-name="Path" style="fill:#ab968c"/><path d="M202.62 113.04c-3.69-7.4-22.09-12.79-22.6-2.79 2.6-6.71 16.24-3.04 22.6 2.79" style="fill:#45332c"/></svg>