<svg xmlns="http://www.w3.org/2000/svg" data-name="Layer 1" style="" viewBox="0 0 512 511.98"><g><defs><linearGradient id="1770301554998-9158346_c" x1="-617.21" x2="-617.21" y1="369.54" y2="361.01" gradientTransform="matrix(6.57 0 0 6.57 4235.16 -2138.82)" gradientUnits="userSpaceOnUse"><stop offset="0" stop-color="#a6694a"></stop><stop offset="1" stop-color="#4f2a1e"></stop></linearGradient><linearGradient id="1770301554998-9158346_i" x1="-596.88" x2="-596.88" y1="369.54" y2="361.01" gradientTransform="matrix(6.57 0 0 6.57 4252.89 -2138.82)" gradientUnits="userSpaceOnUse"><stop offset="0" stop-color="#a6694a"></stop><stop offset="1" stop-color="#4f2a1e"></stop></linearGradient><linearGradient id="1770301554998-9158346_n" x1="256" x2="256" y1="10.53" y2="513.98" gradientTransform="matrix(1 0 0 -1 0 513.98)" gradientUnits="userSpaceOnUse"><stop offset=".05" stop-color="#473834"></stop><stop offset=".23" stop-color="#594640"></stop><stop offset=".52" stop-color="#715950"></stop><stop offset=".7" stop-color="#7a6056"></stop></linearGradient></defs><path d="M341.32 503.45c170.68-68.27 153.62-230.4 153.62-230.4H17.07S0 435.18 170.65 503.45c0 0 34.15 8.53 85.33 8.53s85.33-8.53 85.33-8.53Z" class="r" fill="#473834"></path><path d="M256 25.6c-123.84 0-183.48 100.85-176.03 230.52 1.54 26.04 8.78 63.64 17.73 95.86 18.57 66.97 116.57 134.4 158.3 134.4s139.72-67.43 158.3-134.4c8.95-32.21 16.2-69.82 17.73-95.86C439.46 126.46 379.85 25.6 256 25.6" fill="#ffc940"></path><path d="M255.98 381.11c-29.01-12.77-29.25-.52-74.05 2.48 16.82 19.1 29.2 43.65 74.04 43.65 51.46 0 60.17-27.89 74.1-43.65-44.85-3-45.04-15.25-74.09-2.48" fill="#d47706"></path><path d="M195.38 388.37c29.25 30.43 92.33 30.04 121.22.02-45.03 4.83-76.16 4.83-121.22-.02" class="v" fill="#fff"></path><path d="M387.58 212.96c-26.9-16.03-75.17-18-94.25-7.07-4.05 2.2-2.97 13.78.54 12.33 27.23-11.33 68.74-11.9 94.3 1.22 3.41 1.73 3.49-4.15-.59-6.49Zm-263.18 0c26.9-16.03 75.15-18 94.28-7.07 4.05 2.2 2.97 13.78-.55 12.33-27.25-11.33-68.7-11.91-94.3 1.22-3.44 1.73-3.5-4.15.56-6.49Z" fill="#966f42"></path><path d="M283.84 339.96c-2.95-2.07-9.86 1.12-27.85 1.12s-24.88-3.18-27.84-1.12c-3.53 2.48 2.08 13.7 27.84 13.7s31.4-11.2 27.85-13.7" fill="#f0a429"></path><path id="1770301554998-9158346_b" d="M228.45 261.62c1.05 8.17-4.51 17.89-19.92 25.18-9.78 4.63-30.13 10.09-56.88-1.2-11.98-5.05-23.66-20.79-22.61-29.48 14.5-27.33 85.85-31.33 99.41 5.5" class="v" data-name="Path" fill="#fff"></path><circle id="1770301554998-9158346_d" cx="180.04" cy="261.06" r="28.02" data-name="Oval" fill="url(#1770301554998-9158346_c)"></circle><path id="1770301554998-9158346_e" d="M166.03 260.55c0 19.38 28.03 19.38 28.03 0 0-18.01-28.03-18.01-28.03 0" class="u" data-name="Path" fill="#1a1626"></path><path id="1770301554998-9158346_f" d="M161.77 252.7c0 8.13 11.75 8.13 11.75 0 0-7.53-11.75-7.53-11.75 0" class="w" data-name="Path" fill="#ab968c"></path><path id="1770301554998-9158346_g" d="M228.58 262.7c-11.38-36.58-88.99-31.18-99.55-6.58 3.92-31.51 89.85-39.83 99.55 6.58" class="x" data-name="Path" fill="#45332c"></path><path id="1770301554998-9158346_h" d="M283.55 261.62c-1.05 8.17 4.51 17.89 19.92 25.18 9.78 4.63 30.13 10.09 56.88-1.2 12-5.05 23.66-20.79 22.61-29.48-14.48-27.33-85.85-31.33-99.41 5.5" class="v" data-name="Path" fill="#fff"></path><circle id="1770301554998-9158346_j" cx="331.33" cy="261.06" r="28.02" data-name="Oval" fill="url(#1770301554998-9158346_i)"></circle><path id="1770301554998-9158346_k" d="M317.34 260.55c0 19.38 28.03 19.38 28.03 0 0-18.01-28.03-18.01-28.03 0" class="u" data-name="Path" fill="#1a1626"></path><path id="1770301554998-9158346_l" d="M313.07 252.7c0 8.13 11.75 8.13 11.75 0 0-7.53-11.75-7.53-11.75 0" class="w" data-name="Path" fill="#ab968c"></path><path id="1770301554998-9158346_m" d="M283.43 262.7c11.37-36.57 88.92-31.33 99.53-6.58-3.93-31.51-89.85-39.83-99.53 6.58" class="x" data-name="Path" fill="#45332c"></path><path d="M395.37 43.7c14.15-20.18-105.63-62.81-218.72-34.01C63.68 35.55 0 204.8 0 315.48c0 74.18 59.73 170.9 170.65 187.96C48.44 417.88 68.18 333 102.4 230.39c84.83-49.12 180.83-60.68 247.47-119.47-8.53 25.6 36.63 57.88 59.73 119.47 35.06 93.5 53.12 188.08-68.28 273.05C443.74 486.37 512 389.67 512 315.48c0-93.62-71.35-284.85-116.63-271.78" fill="url(#1770301554998-9158346_n)"></path><path d="M20.35 298.65c78.13-104.05 331.25-97 375.01-254.94C310.4 176.27 41.7 198.64 20.35 298.65" class="r" fill="#473834"></path></g></svg>
