<svg xmlns="http://www.w3.org/2000/svg" id="a" data-name="Layer 1" viewBox="0 0 512 512.06"><defs><radialGradient id="d" cx="453.64" cy="72.45" r="38.4" fx="453.64" fy="72.45" gradientTransform="matrix(1 0 0 -1 0 514.06)" gradientUnits="userSpaceOnUse"><stop offset=".21" stop-color="#ff3b3b"/><stop offset=".42" stop-color="#f63131"/><stop offset=".77" stop-color="#de1615"/><stop offset="1" stop-color="#cc0100"/></radialGradient><radialGradient id="e" cx="1914.48" cy="915.51" r="27.32" fx="1914.48" fy="915.51" gradientTransform="rotate(52.41 -586.937 -925.444)scale(.59 -1)" gradientUnits="userSpaceOnUse"><stop offset="0" stop-color="#fff"/><stop offset="1" stop-color="#fff" stop-opacity="0"/></radialGradient><radialGradient id="f" cx="-174.49" cy="2025.12" r="127.14" fx="-276.21" fy="2071.25" gradientTransform="matrix(-.87 -.00015 -.0001 .52 57.97 -664.41)" gradientUnits="userSpaceOnUse"><stop offset=".26" stop-color="#8e3ed6"/><stop offset=".36" stop-color="#5d1e96"/><stop offset=".5" stop-color="#8e3ed6"/></radialGradient><radialGradient id="g" cx="486.87" cy="2025.25" r="127.19" fx="385.1" fy="2071.4" gradientTransform="matrix(.87 -.0003 -.00012 .52 -85.16 -664.32)" gradientUnits="userSpaceOnUse"><stop offset=".26" stop-color="#8e3ed6"/><stop offset=".36" stop-color="#5d1e96"/><stop offset=".5" stop-color="#8e3ed6"/></radialGradient><radialGradient id="i" cx="347.79" cy="486.33" r="38.4" fx="347.79" fy="486.33" gradientTransform="matrix(1 0 0 -1 0 514.06)" gradientUnits="userSpaceOnUse"><stop offset="0" stop-color="#ffe02e"/><stop offset=".25" stop-color="#ffda29"/><stop offset=".59" stop-color="#ffc91a"/><stop offset=".97" stop-color="#ffac02"/><stop offset="1" stop-color="#fa0"/></radialGradient><radialGradient id="j" cx="1248.37" cy="1085.25" r="27.33" fx="1248.37" fy="1085.25" gradientTransform="rotate(52.41 -586.937 -925.444)scale(.59 -1)" gradientUnits="userSpaceOnUse"><stop offset="0" stop-color="#fff"/><stop offset="1" stop-color="#fff" stop-opacity="0"/></radialGradient><radialGradient id="k" cx="67.2" cy="396.56" r="38.4" fx="67.2" fy="396.56" gradientTransform="matrix(1 0 0 -1 0 514.06)" gradientUnits="userSpaceOnUse"><stop offset="0" stop-color="#9be022"/><stop offset=".27" stop-color="#91d422"/><stop offset=".75" stop-color="#78b423"/><stop offset="1" stop-color="#69a123"/></radialGradient><radialGradient id="l" cx="1072.12" cy="806.04" r="27.32" fx="1072.12" fy="806.04" gradientTransform="rotate(52.41 -586.937 -925.444)scale(.59 -1)" gradientUnits="userSpaceOnUse"><stop offset="0" stop-color="#fff"/><stop offset="1" stop-color="#fff" stop-opacity="0"/></radialGradient><linearGradient id="b" x1="342.83" x2="342.83" y1="166.31" y2="389.86" gradientTransform="matrix(1 0 0 -1 0 514.06)" gradientUnits="userSpaceOnUse"><stop offset=".05" stop-color="#473834"/><stop offset=".23" stop-color="#594640"/><stop offset=".52" stop-color="#715950"/><stop offset=".7" stop-color="#7a6056"/></linearGradient><linearGradient id="c" x1="1067.53" x2="1067.53" y1="166.31" y2="389.86" gradientTransform="matrix(-1 0 0 -1 1270.81 514.06)" gradientUnits="userSpaceOnUse"><stop offset=".05" stop-color="#473834"/><stop offset=".23" stop-color="#594640"/><stop offset=".52" stop-color="#715950"/><stop offset=".7" stop-color="#7a6056"/></linearGradient><linearGradient id="h" x1="251.85" x2="251.85" y1="143.16" y2="164.23" gradientTransform="matrix(1.14 -.0002 .00022 -1 -13.04 513.87)" gradientUnits="userSpaceOnUse"><stop offset=".1" stop-color="#5d1e96"/><stop offset=".55" stop-color="#8e3ed6"/></linearGradient><linearGradient id="n" x1="-607.83" x2="-607.83" y1="363.17" y2="359.93" gradientTransform="translate(4235.16 -2139.04)scale(6.57)" gradientUnits="userSpaceOnUse"><stop offset="0" stop-color="#a6694a"/><stop offset="1" stop-color="#4f2a1e"/></linearGradient><linearGradient id="t" x1="-600.45" x2="-600.45" y1="363.17" y2="359.93" gradientTransform="translate(4252.89 -2139.04)scale(6.57)" gradientUnits="userSpaceOnUse"><stop offset="0" stop-color="#a6694a"/><stop offset="1" stop-color="#4f2a1e"/></linearGradient><linearGradient id="y" x1="273.05" x2="273.05" y1="166.32" y2="389.85" gradientTransform="matrix(1 0 0 -1 0 514.06)" gradientUnits="userSpaceOnUse"><stop offset=".05" stop-color="#473834"/><stop offset=".23" stop-color="#594640"/><stop offset=".52" stop-color="#715950"/><stop offset=".7" stop-color="#7a6056"/></linearGradient><style>.al{fill:#473834}.ar{fill:#1a1626}.as{fill:#f5bb51}.at{fill:#fff}.av{fill:#ab968c}.aw{fill:#45332c}.bb{fill:#302c3b}.bc{fill:#e6ebef}</style></defs><path d="M310.41 344.02c74.7-29.88 57.39-100.85 57.39-100.85H178.32s-17.31 70.96 57.39 100.85c0 0 14.95 3.74 37.35 3.74 22.42 0 37.35-3.74 37.35-3.74" class="al"/><path d="M348.58 250.74c5.77 24.3-7.65 71.92-38.17 93.29 44.83-7.47 64.85-49.8 64.85-82.29z" style="fill:url(#b)"/><path d="M197.54 250.74c-5.77 24.3 7.65 71.92 38.19 93.29-44.83-7.47-64.87-49.8-64.87-82.29z" style="fill:url(#c)"/><path d="M176.16 355.89c-22.81 9.25-28.59 44.87-57.42 68-12-14.53-30.61-38.58-37.86-57.52 0 0-28.89-5.73-41.95 4.86 12.4 41.08 39.07 81.8 60.4 107.15 13.5 16.05 74.14-16.56 87.62-49.66 0 0 2.23-14.82-10.79-72.84Z" class="bc"/><path d="M28.82 356.13c3.83 1.8 13.75-18.42 9.9-20.22 0 0-19.62-6.3-25.8-6.1-14.62.47-14.45 12.68-10.98 13.55 10.1 2.45 26.88 12.77 26.88 12.77" class="as"/><path d="M30.57 295.68c-.42 21.72 4.51 36.57 4.51 36.57 0-10.67 1.2-30.92 2.67-39.77 2.03-12.25 18.59-13.69 17.47-1.35-1.78 19.72.91 40.99.91 40.99s2.24-18.76 3.58-34.55c1.05-11.93 16.84-10.7 16.6 1.26-.18 9.65-3.23 39.2-3.23 39.2s5.47-7.12 6.8-24.34c.7-8.99 11.3-6.31 11.6 2.57.52 15.82-1.73 19.85-3.74 27.28-1.07 3.97-1.5 15.05-8.17 26.4-4.13 7.03-30.72 9.05-38.4 3.45-4.33-3.18-18.75-23.43-21.97-30.37-3.5-7.52-6.38-27.91-5.2-45.13.85-12.42 16.79-14.67 16.55-2.21Z" class="as"/><path d="M369.98 355.89c36.4 22.77 46.16 125.73 107.34 132.13-10.04 21.62-33.08 21.58-47.47 21.58-22.22 0-53.27-50-71.29-70.94.02 0-1.6-24.76 11.42-82.77" class="bc"/><path d="M176.16 355.89c13.64-9.15 62.4-24.7 62.4-24.7h69.47s48.42 15.5 61.96 24.7l-5.48 139.05c-.8 22.84-181.92 22.81-182.73 0z" class="bc"/><path d="M280.42 331.19h2.13V512h-2.13zm-16.83 0h2.13V512h-2.13z" style="fill:#cfd8dd"/><path d="M197.07 345.99c10.05-5.05 20.17-7.6 20.17-7.6v170.39c-10.98-.85-20.17-3.89-20.17-3.89V346Zm152.22 0c-10.04-5.05-20.17-7.6-20.17-7.6v170.39c13.02-1.25 20.17-3.9 20.17-3.9V346Z" style="fill:#8e3ed6"/><path d="M492.88 488.64c-2.67 3.2-20.74-10.9-18.1-14.11 0 0 14.85-13.82 20.51-16.18 13.38-5.61 18.75 5.45 16.02 7.65-7.99 6.41-18.43 22.65-18.43 22.65Z" class="as"/><path d="M461.11 413.87c-21.18 0-38.4 17.22-38.4 38.43s17.22 38.37 38.4 38.37 38.4-17.17 38.4-38.37-17.19-38.43-38.4-38.43" style="fill:url(#d)"/><path d="M458.97 449.42c-11.96 9.2-26.04 10.97-31.44 3.95-5.42-7.03-.12-20.18 11.85-29.38 11.96-9.22 26.04-10.98 31.45-3.97 5.42 7.03.09 20.18-11.86 29.4" style="isolation:isolate;opacity:.5;fill:url(#e)"/><path d="M484.47 474.32c-.85 5-3.02 9.11-3.02 9.11s1.02-10.25 0-15.97c-2.01-11.3-17.28-10.33-16.52.56.63 8.9-2.65 17.05-2.65 17.05s-2.08-8.15-3.02-16.67c-1.28-11.73-18.48-10.4-17.94 1.38.32 6.5 1.37 15.15 1.37 15.15s-2.24-4.4-3.3-9.5c-2.3-11.07-16.79-11.03-15.05.18 3.38 21.8 17.83 21.91 20.23 16.33 2.88 6.61 12.6 6.05 16.58 2.07 3.29 3.85 15.27 4.55 18.4-1.1 5.9 5.77 16.42-.68 18.29-13.1 1.7-11.02-11.49-16.5-13.35-5.5Zm-248.3-163.95h73.79v40.01h-73.79z" class="as"/><path d="m309.95 325.92 10.72 9.69-9.22 36.85-38.39-22.06 36.89-24.47Zm-73.78 0-10.72 9.69 9.22 36.85 38.4-22.07z" style="fill:#f5f5f5"/><path d="M270.41 360.17c-5.51 17.96-33.96 22.84-35.64 20.18-3.41-5.38-6.58-27.17-.07-39.2 1.01-1.84 31.51-1.43 35.71 19.02" style="fill:url(#f)"/><path d="M275.72 360.17c5.51 17.96 33.97 22.84 35.66 20.18 3.4-5.38 6.57-27.19.06-39.22-1.02-1.84-31.5-1.41-35.72 19.04" style="fill:url(#g)"/><path d="M273.09 370.1c-7.64.02-9.51 4.07-9.55-9.97 0-14.05 1.9-9.98 9.52-10 7.63 0 9.51-4.07 9.52 9.98.02 14-1.88 9.98-9.5 9.98Z" style="fill:url(#h)"/><path d="M269.87 402.17c0-4.27 6.38-4.27 6.4 0 0 4.25-6.39 4.27-6.4 0m0 41.34c0-4.27 6.38-4.27 6.4 0 0 4.25-6.39 4.27-6.4 0m0 41.32c0-4.27 6.38-4.27 6.4 0 0 4.26-6.39 4.27-6.4 0" class="bb"/><path d="M355.26 0c-21.18 0-38.4 17.22-38.4 38.43s17.22 38.37 38.4 38.37 38.4-17.17 38.4-38.37S376.46 0 355.26 0" style="fill:url(#i)"/><path d="M354.82 35.87c-11.96 9.2-26.05 10.98-31.45 3.95s-.1-20.16 11.85-29.38c11.96-9.22 26.05-10.97 31.45-3.95 5.41 7.01.09 20.18-11.85 29.38" style="fill:url(#j);isolation:isolate;opacity:.5"/><path d="M72.54 87.63c-21.2 0-38.4 17.2-38.4 38.42s17.2 38.38 38.4 38.38 38.4-17.17 38.4-38.38-17.22-38.42-38.4-38.42" style="fill:url(#k)"/><path d="M70.42 124.16c-11.96 9.22-26.04 10.98-31.44 3.95-5.42-7.01-.12-20.16 11.85-29.38 11.96-9.2 26.04-10.97 31.44-3.95 5.41 7.03.09 20.2-11.85 29.38" style="isolation:isolate;opacity:.5;fill:url(#l)"/><path d="M273.06 134.87c-54.2 0-80.3 44.13-77.05 100.88.68 11.4 3.85 27.87 7.77 41.97 8.13 29.32 51.02 58.84 69.28 58.84s61.15-29.52 69.3-58.84c3.92-14.1 7.08-30.57 7.75-41.97 3.27-56.75-22.83-100.88-77.05-100.88" style="fill:#ffc940"/><path d="M273.06 290.47c-12.7-5.58-12.8-.23-32.42 1.08 7.36 8.36 12.78 19.11 32.4 19.11 22.54 0 26.35-12.22 32.44-19.11-19.64-1.31-19.7-6.66-32.42-1.08" style="fill:#d47706"/><path d="M246.54 293.63c12.8 13.34 40.4 13.15 53.05.02-19.72 2.12-33.36 2.12-53.05-.02" class="at"/><path d="M330.66 216.87c-11.78-7.01-32.9-7.87-41.27-3.1-1.77.96-1.28 6.05.25 5.4 11.91-4.95 30.08-5.2 41.27.55 1.5.75 1.54-1.83-.25-2.85m-115.2 0c11.78-7.01 32.9-7.87 41.27-3.1 1.78.96 1.3 6.05-.23 5.4-11.93-4.95-30.06-5.21-41.28.55-1.5.75-1.54-1.83.25-2.85Z" style="fill:#966f42"/><path d="M285.24 272.45c-1.28-.9-4.32.5-12.19.5s-10.9-1.4-12.19-.5c-1.55 1.1.9 6 12.19 6s13.75-4.9 12.19-6" style="fill:#f0a429"/><path id="m" d="M261.01 238.17c.45 3.58-1.98 7.83-8.71 11.02-4.28 2.03-13.2 4.42-24.9-.52-5.25-2.22-10.37-9.1-9.9-12.92 6.32-11.94 37.56-13.7 43.51 2.42" class="at" data-name="Path"/><path id="o" d="M241.67 225.7c6.78 0 12.28 1.87 12.28 9.02 0 6.77-5.5 12.27-12.28 12.27s-12.27-5.5-12.27-12.27c0-9.42 5.49-9.02 12.27-9.02" data-name="Oval" style="fill:url(#n)"/><path id="p" d="M235.54 234.51c0 8.48 12.28 8.48 12.28 0 0-7.88-12.28-7.88-12.28 0" class="ar" data-name="Path"/><path id="q" d="M233.67 231.05c0 3.57 5.15 3.57 5.15 0 0-3.29-5.15-3.29-5.15 0" class="av" data-name="Path"/><path id="r" d="M261.06 238.64c-4.98-16.02-38.95-13.65-43.56-2.88 1.71-13.78 39.33-17.42 43.56 2.88" class="aw" data-name="Path"/><path id="s" d="M285.12 238.17c-.47 3.58 1.96 7.83 8.71 11.02 4.28 2.03 13.18 4.42 24.9-.52 5.25-2.22 10.35-9.1 9.9-12.92-6.34-11.94-37.58-13.7-43.51 2.42" class="at" data-name="Path"/><path id="u" d="M307.91 225.7c6.78 0 12.27-.4 12.27 9.02 0 6.77-5.5 12.27-12.27 12.27s-12.28-5.5-12.28-12.27c0-9.42 5.5-9.02 12.28-9.02" data-name="Oval" style="fill:url(#t)"/><path id="v" d="M301.77 234.51c0 8.48 12.27 8.48 12.27 0 0-7.88-12.27-7.88-12.27 0" class="ar" data-name="Path"/><path id="w" d="M299.91 231.05c0 3.57 5.14 3.57 5.14 0 0-3.29-5.14-3.29-5.14 0" class="av" data-name="Path"/><path id="x" d="M285.07 238.64c4.97-16 38.92-13.71 43.56-2.88-1.72-13.78-39.33-17.42-43.56 2.88" class="aw" data-name="Path"/><path d="M334.05 142.78c6.2-8.83-46.23-27.5-95.74-14.9-49.43 11.33-67.47 85.42-67.47 133.86 4.44 3.52 21.67-5.23 26.68-11 2.05-8.47 5.28-17.2 8.3-26.23 37.12-21.5 79.13-26.56 108.3-52.3-3.72 11.21 16.05 25.35 26.15 52.3 3.27 8.73 6.22 17.5 8.29 26.23 8.25 7.6 14.85 11.19 26.68 11 0-40.97-21.36-124.66-41.2-118.96Z" style="fill:url(#y)"/><path d="M179.77 254.37c34.2-45.53 135.14-42.45 154.28-111.58-37.18 58.01-144.95 67.82-154.28 111.58" class="al"/><path d="M398.01 188.99c0 21.75-249.9 21.75-249.9 0s249.9-21.75 249.9 0" style="fill:#4e5e67"/><path d="M362.66 179.76c0 18.71-179.2 18.71-179.2 0 0-103.1 179.2-103.1 179.2 0" class="bb"/></svg>