<svg xmlns="http://www.w3.org/2000/svg" data-name="Layer 1" style="" viewBox="0 0 512 461.06"><g><defs><linearGradient id="1770301554979-9441001_b" x1="282.44" x2="392.53" y1="286.6" y2="286.6" gradientTransform="matrix(1 0 0 -1 0 457.03)" gradientUnits="userSpaceOnUse"><stop offset="0" stop-color="#473834"></stop><stop offset=".27" stop-color="#594640"></stop><stop offset=".72" stop-color="#715950"></stop><stop offset="1" stop-color="#7a6056"></stop></linearGradient><linearGradient id="1770301554979-9441001_h" x1="-608.65" x2="-608.65" y1="327.84" y2="325.63" gradientTransform="matrix(6.57 0 0 6.57 4235.16 -1980.22)" gradientUnits="userSpaceOnUse"><stop offset="0" stop-color="#a6694a"></stop><stop offset="1" stop-color="#4f2a1e"></stop></linearGradient><linearGradient id="1770301554979-9441001_n" x1="-605.36" x2="-605.36" y1="327.84" y2="325.63" gradientTransform="matrix(6.57 0 0 6.57 4252.89 -1980.22)" gradientUnits="userSpaceOnUse"><stop offset="0" stop-color="#a6694a"></stop><stop offset="1" stop-color="#4f2a1e"></stop></linearGradient><linearGradient id="1770301554979-9441001_s" x1="-2470.15" x2="-2470.15" y1="287.41" y2="358.47" gradientTransform="rotate(180 -1106.76 228.515)" gradientUnits="userSpaceOnUse"><stop offset="0" stop-color="#473834"></stop><stop offset=".27" stop-color="#594640"></stop><stop offset=".72" stop-color="#715950"></stop><stop offset="1" stop-color="#7a6056"></stop></linearGradient><linearGradient id="1770301554979-9441001_t" x1="256" x2="256" y1="371.43" y2="388.49" gradientTransform="matrix(1 0 0 -1 0 457.03)" gradientUnits="userSpaceOnUse"><stop offset="0" stop-color="#697378"></stop><stop offset="1" stop-color="#bac7cc"></stop></linearGradient><linearGradient id="1770301554979-9441001_u" x1="64" x2="64" y1="362.89" y2="397.03" gradientTransform="matrix(1 0 0 -1 0 457.03)" gradientUnits="userSpaceOnUse"><stop offset="0" stop-color="#697378"></stop><stop offset="1" stop-color="#dbe6eb"></stop></linearGradient><linearGradient id="1770301554979-9441001_v" x1="51.2" x2="51.2" y1="303.18" y2="456.78" gradientTransform="matrix(1 0 0 -1 0 457.03)" gradientUnits="userSpaceOnUse"><stop offset="0" stop-color="#302c3b"></stop><stop offset=".26" stop-color="#33303f"></stop><stop offset=".53" stop-color="#3c3d4a"></stop><stop offset=".8" stop-color="#4c515c"></stop><stop offset="1" stop-color="#5b666e"></stop></linearGradient><linearGradient id="1770301554979-9441001_w" x1="85.33" x2="85.33" y1="303.18" y2="456.78" gradientTransform="matrix(1 0 0 -1 0 457.03)" gradientUnits="userSpaceOnUse"><stop offset="0" stop-color="#302c3b"></stop><stop offset=".26" stop-color="#33303f"></stop><stop offset=".53" stop-color="#3c3d4a"></stop><stop offset=".8" stop-color="#4c515c"></stop><stop offset="1" stop-color="#5b666e"></stop></linearGradient><linearGradient id="1770301554979-9441001_x" x1="-2858.39" x2="-2858.39" y1="362.74" y2="396.87" gradientTransform="rotate(180 -1205.195 228.515)" gradientUnits="userSpaceOnUse"><stop offset="0" stop-color="#697378"></stop><stop offset="1" stop-color="#dbe6eb"></stop></linearGradient><linearGradient id="1770301554979-9441001_y" x1="-2871.19" x2="-2871.19" y1="303.02" y2="456.62" gradientTransform="rotate(180 -1205.195 228.515)" gradientUnits="userSpaceOnUse"><stop offset="0" stop-color="#302c3b"></stop><stop offset=".26" stop-color="#33303f"></stop><stop offset=".53" stop-color="#3c3d4a"></stop><stop offset=".8" stop-color="#4c515c"></stop><stop offset="1" stop-color="#5b666e"></stop></linearGradient><linearGradient id="1770301554979-9441001_z" x1="-2837.05" x2="-2837.05" y1="303.02" y2="456.62" gradientTransform="rotate(180 -1205.195 228.515)" gradientUnits="userSpaceOnUse"><stop offset="0" stop-color="#302c3b"></stop><stop offset=".26" stop-color="#33303f"></stop><stop offset=".53" stop-color="#3c3d4a"></stop><stop offset=".8" stop-color="#4c515c"></stop><stop offset="1" stop-color="#5b666e"></stop></linearGradient></defs><path d="M373.5 217.8c8.25 1.47 13.7.15 17.68-3.76-55.66-20.78-34.95-139.64-108.75-103.48l10.73 33.75c38.55-13.92 12.05 95.08 99.36 92.77 0 0-15.05-7.08-19.03-19.29Z" fill="url(#1770301554979-9441001_b)"></path><path d="M277.84 107.9c-12.03 5.1 18.53 58.47 30.45 40.62 12.59-18.82-13.2-47.96-30.45-40.62m29.81 160.88-13.75-55.76-37.91 10.78-37.9-10.77-13.75 55.76c4.95 27.65 10.04 18.13 8.9 61.32-.56 21.1-44.87 72.87 42.75 72.87s43.32-51.76 42.75-72.87c-1.18-43.2 3.93-33.68 8.89-61.33Z" class="ar" fill="#8e3ed6"></path><path d="M256 329.32c-25.62 0-42.75-7.45-42.75-7.45v10.97s17.13 16.63 42.75 16.63 42.75-16.63 42.75-16.63v-10.97s-17.17 7.45-42.75 7.45" class="aw" fill="#302c3b"></path><path d="M218.1 213.03s-6.43-16.05-23.62-21.31c0 0-36.28-57.74-36.28-95.11 0-5.73-25.23-7.7-24.62-1.98 6.49 59.02 17.5 90.72 56.32 137.47 5.91 7.12 14.45 36.68 14.45 36.68 7.99-1.03 13.76-55.76 13.76-55.76Zm75.8 0s6.42-16.05 23.6-21.31c0 0 36.28-57.74 36.28-95.11 0-5.73 25.27-7.7 24.64-1.98-6.49 59.02-17.5 90.72-56.32 137.47-5.91 7.12-14.45 36.68-14.45 36.68-7.99-1.03-13.76-55.76-13.76-55.76Z" class="ap" fill="#f5bb51"></path><path d="M188.07 385.05s53.79 39.36 44.82-32.09c-1.03-8.32-31.35-32.2-36.79-32.2l-8.03 64.28Z" class="av" fill="#f0a429"></path><path d="M214.7 428.24s-4.6 12.4-30.2 3.15c-12.12-50.8-28.54-43.75-35.7-80.15 0 0 23.33-26.21 51.5 5.37 17.19 31.25-3.35 47.63 14.4 71.64Z" class="ap" fill="#f5bb51"></path><path d="M217.53 456.03c5.33-15.67-2.83-27.8-2.83-27.8-13.7 7.8-30.2 3.15-30.2 3.15-42.39 8.27-43.8 14.85-42.8 24.65h75.84Z" class="aw" fill="#302c3b"></path><path d="M216.93 461.06c2.75-1.9.6-5.03.6-5.03h-75.84s-2.53 2.22.23 5.03z" class="ar" fill="#8e3ed6"></path><path d="M200.3 356.6s-27.45-22.05-51.5-5.37c0 0-3.5-47.55 47.3-30.46 7.61 2.57 9.81 33.48 4.2 35.83" class="ax" fill="#e6ebef"></path><path d="M184.45 430.27c-4.13-2.82-26.72 5.25-24.43 7.24 8.43 7.27 14.18 8.57 14.75 3.34 5.65 3.58 8.76.54 8.73-2.57 6.07 2.3 8.15-2.67.95-8Z" class="ar" fill="#8e3ed6"></path><path d="M323.93 385.05s-53.79 39.36-44.82-32.09c1.03-8.32 31.35-32.2 36.79-32.2l8.03 64.28Z" class="av" fill="#f0a429"></path><path d="M297.3 428.24s4.62 12.4 30.2 3.15c12.12-50.8 28.54-43.75 35.7-80.15 0 0-23.33-26.21-51.5 5.37-17.19 31.25 3.35 47.63-14.4 71.64Z" class="ap" fill="#f5bb51"></path><path d="M294.49 456.03c-5.33-15.67 2.82-27.8 2.82-27.8 13.71 7.8 30.2 3.15 30.2 3.15 42.39 8.27 43.8 14.85 42.8 24.65z" class="aw" fill="#302c3b"></path><path d="M295.07 461.06c-2.73-1.9-.58-5.03-.58-5.03h75.82s2.53 2.22-.21 5.03z" class="ar" fill="#8e3ed6"></path><path d="M311.7 356.6s27.45-22.05 51.5-5.37c0 0 3.5-47.55-47.3-30.46-7.61 2.57-9.81 33.48-4.2 35.83" class="ax" fill="#e6ebef"></path><path d="M327.55 430.27c4.15-2.82 26.72 5.25 24.45 7.24-8.43 7.27-14.18 8.57-14.75 3.34-5.67 3.58-8.78.54-8.75-2.57-6.05 2.3-8.13-2.67-.95-8Z" class="ar" fill="#8e3ed6"></path><path d="M127.91 83.69c-.26 21.12 29.48 29.18 30.37 0zm256.18 0c.23 21.12-29.48 29.18-30.39 0zM277.88 221.18c0 18.57-43.78 18.57-43.78 0v-20.54h43.78z" class="ap" fill="#f5bb51"></path><path id="1770301554979-9441001_c" d="M208 153.05c7.43.9 12.8 25.78 8.13 32.35-.67.91-4.48 2.38-7.33-3.41-1.57-3.22-6.1-5.88-7.5-12.5-1.82-8.49-.68-17.34 6.7-16.44" class="an" data-name="Path" fill="#ffc940"></path><path id="1770301554979-9441001_d" d="M303.98 153.05c-7.43.9-12.8 25.78-8.12 32.35.65.91 4.48 2.38 7.31-3.41 1.57-3.22 6.1-5.88 7.52-12.5 1.8-8.49.67-17.34-6.72-16.44Z" class="an" data-name="Path" fill="#ffc940"></path><path id="1770301554979-9441001_e" d="M208.2 157.81c1.95.61 4.05 3.57 5.2 8.48-6.77-1.47-5.09 9.81.82 10.04-.05 1.13-.14 2.3-.26 3.53-2.85-4.11-5.73-2.47-8.58-8.6-2.56-5.51-1.96-14.95 2.83-13.45Z" class="av" data-name="Path" fill="#f0a429"></path><path id="1770301554979-9441001_f" d="M298.58 166.27c1.15-4.9 3.25-7.85 5.18-8.47 4.8-1.5 5.42 7.94 2.85 13.45-2.85 6.14-5.73 4.48-8.58 8.6-.14-1.24-.21-2.4-.26-3.53 5.84-.28 7.5-11.43.82-10.05Z" class="av" data-name="Path" fill="#f0a429"></path><path d="M256 105.21c32.18 0 47.68 26.21 45.75 59.93-.4 6.77-2.29 16.55-4.62 24.92C292.32 207.47 266.83 225 256 225s-36.33-17.54-41.15-34.94c-2.33-8.36-4.22-18.15-4.62-24.92-1.94-33.72 13.57-59.93 45.76-59.93Z" class="an" fill="#ffc940"></path><path d="M221.78 153.92c7-4.16 19.55-4.68 24.5-1.83 1.05.56.79 3.58-.14 3.2-7.08-2.95-17.87-3.1-24.52.32-.88.45-.9-1.08.15-1.68Zm68.42 0c-7-4.16-19.53-4.68-24.5-1.83-1.07.56-.79 3.58.14 3.2 7.08-2.95 17.87-3.1 24.52.32.88.45.9-1.08-.15-1.68Z" fill="#966f42"></path><path d="M248.75 186.92c.77-.54 2.57.3 7.25.3s6.47-.84 7.24-.3c.91.65-.55 3.57-7.24 3.57s-8.17-2.92-7.25-3.57" class="av" fill="#f0a429"></path><path id="1770301554979-9441001_g" d="M248.83 166.56c.26 2.13-1.17 4.67-5.18 6.55-2.53 1.22-7.83 2.64-14.78-.3-3.11-1.31-6.15-5.42-5.88-7.66 3.77-7.13 22.31-8.17 25.84 1.41" class="aq" data-name="Path" fill="#fff"></path><circle id="1770301554979-9441001_i" cx="236.25" cy="166.43" r="7.29" data-name="Oval" fill="url(#1770301554979-9441001_h)"></circle><path id="1770301554979-9441001_j" d="M232.62 166.29c0 5.03 7.29 5.03 7.29 0 0-4.68-7.29-4.68-7.29 0" class="ao" data-name="Path" fill="#1a1626"></path><path id="1770301554979-9441001_k" d="M231.5 164.24c0 2.12 3.05 2.12 3.05 0 0-1.95-3.05-1.95-3.05 0" class="as" data-name="Path" fill="#ab968c"></path><path id="1770301554979-9441001_l" d="M248.87 166.84c-2.95-9.5-23.13-8.1-25.88-1.7 1.03-8.2 23.36-10.35 25.88 1.7" class="at" data-name="Path" fill="#45332c"></path><path id="1770301554979-9441001_m" d="M263.15 166.56c-.26 2.13 1.19 4.67 5.18 6.55 2.55 1.22 7.83 2.64 14.78-.3 3.11-1.31 6.15-5.42 5.88-7.66-3.75-7.13-22.31-8.17-25.84 1.41" class="aq" data-name="Path" fill="#fff"></path><circle id="1770301554979-9441001_o" cx="275.58" cy="166.43" r="7.29" data-name="Oval" fill="url(#1770301554979-9441001_n)"></circle><path id="1770301554979-9441001_p" d="M271.93 166.29c0 5.03 7.29 5.03 7.29 0 0-4.68-7.29-4.68-7.29 0" class="ao" data-name="Path" fill="#1a1626"></path><path id="1770301554979-9441001_q" d="M270.83 164.24c0 2.12 3.05 2.12 3.05 0 0-1.95-3.05-1.95-3.05 0" class="as" data-name="Path" fill="#ab968c"></path><path id="1770301554979-9441001_r" d="M263.13 166.84c2.95-9.5 23.1-8.13 25.86-1.7-1.02-8.2-23.35-10.35-25.86 1.7" class="at" data-name="Path" fill="#45332c"></path><path d="M256.1 98.56c19.41 0 29.12 8.87 31.09 13.08 15.86 5.55 25.81 30.83 14.25 57.98-2.59-21.23-6.02-27.5-23.9-44.4-23.36 18.68-59.25 15.02-66.76 44.4-13.12-36.44 7.21-71.07 45.33-71.07Z" fill="url(#1770301554979-9441001_s)"></path><path d="M277.53 125.23c15.79 11.12 25.22 26.55 23.9 44.4-3.06-19.93-9.48-28.77-23.9-44.4" class="al" fill="#473834"></path><path d="M287.18 111.64c-16.61 33.31-70.15 21.56-76.42 57.98 10.63-33.45 63.97-21.67 76.42-57.98" class="al" fill="#473834"></path><path d="M273.57 202.11c-1.92-3.08-6.58-5.14-17.57-5.14s-15.65 2.05-17.59 5.14c-1.03 1.63.45 4.28.45 4.28 1.83 3.34 1.57 4.28 17.13 4.28s15.3-.95 17.13-4.28c0 0 1.48-2.65.44-4.28Z" class="at" fill="#45332c"></path><path d="M269.7 202.09c.09-.47-.17-1.05-.54-1.28 0 0-3.34-2.13-13.17-2.13s-13.17 2.13-13.17 2.13c-.38.23-.61.82-.52 1.28l.17.89c.09.47.5.84.95.84h25.13c.44 0 .87-.37.95-.84zm-13.7 6.89c5.38 0 13.05 0 12.83-1.78-.02-.32-.12-.68-.25-1.08-.1-.45-.21-.56-1.15-.56h-22.89c-.91 0-1.03.12-1.15.56-.1.4-.2.77-.25 1.08-.2 1.78 7.47 1.78 12.85 1.78Z" class="aq" fill="#fff"></path><path d="M0 68.54h512v17.07H0z" fill="url(#1770301554979-9441001_t)"></path><path d="M377.58 73.08s-3.48 3.73-8.29.36c-2.18 4.97-7.88 3.61-9.98.79-.53 2.16-5.21 2.57-5.21 2.57s14.98 3.74 16.03 10.01c2.3 13.77-11.65 13.83-15.9 11.5-11.63-6.37-9.28-16.15-14.83-28.62-1.03-2.33-.5-8.44 9.62-3.58 0 0 .05-8.07 9.63-4.94-.38-5.66 8.81-5.27 10.45-.9 5.77-3.84 10.44-.49 10.67 2.2 11.41-.39 6.89 18.69-2.19 10.6Z" class="ap" fill="#f5bb51"></path><path d="M377.58 73.08c1.35-3.79 2.18-10.61 2.18-10.61s1.15 5.97-2.18 10.61m-8.28.36c1.35-3.79-.2-13.17-.2-13.17s3.53 8.53.2 13.17m-9.99.79c1.35-3.78-.67-13.06-.67-13.06s3.99 8.42.67 13.06m-5.21 2.57c-4.95-3.36-5.09-10.68-5.09-10.68s2.04 6.3 5.09 10.68" class="av" fill="#f0a429"></path><path d="M134.4 73.08s3.48 3.73 8.29.36c2.18 4.97 7.88 3.61 9.98.79.53 2.16 5.21 2.57 5.21 2.57s-14.98 3.74-16.03 10.01c-2.3 13.77 11.65 13.83 15.9 11.5 11.63-6.37 9.28-16.15 14.83-28.62 1.03-2.33.5-8.44-9.62-3.58 0 0-.05-8.07-9.63-4.94.38-5.66-8.81-5.27-10.45-.9-5.77-3.84-10.44-.49-10.67 2.2-11.41-.39-6.89 18.69 2.19 10.6Z" class="ap" fill="#f5bb51"></path><path d="M134.4 73.08c-1.35-3.79-2.18-10.61-2.18-10.61s-1.15 5.97 2.18 10.61m8.29.36c-1.35-3.79.2-13.17.2-13.17s-3.53 8.53-.2 13.17m9.98.79c-1.35-3.78.67-13.06.67-13.06s-3.99 8.42-.67 13.06m5.21 2.57c4.95-3.36 5.09-10.68 5.09-10.68s-2.04 6.3-5.09 10.68" class="av" fill="#f0a429"></path><path d="M17.07 60.01h93.87v34.13H17.07z" fill="url(#1770301554979-9441001_u)"></path><path d="M21.33 55.74h8.53v8.53h-8.53z" class="am" fill="#6e8189"></path><path d="M68.27 150.04c0 2.1-1.72 3.81-3.81 3.81h-26.5c-2.1 0-3.81-1.72-3.81-3.81V4.08c0-2.11 1.72-3.82 3.81-3.82h26.5c2.11 0 3.82 1.72 3.82 3.82 4.65 29.8 4.65 116.19 0 145.96Z" class="aw" fill="#302c3b"></path><path d="M102.4 149.79c0 2.1-1.72 3.81-3.81 3.81h-26.5c-2.11 0-3.82-1.72-3.82-3.81V3.81c0-2.1 1.72-3.81 3.81-3.81h26.5c2.11 0 3.82 1.72 3.82 3.81v145.97Z" class="aw" fill="#302c3b"></path><path d="M37.95.26h26.5v153.6h-26.5z" fill="url(#1770301554979-9441001_v)"></path><path d="M72.08.26h26.5v153.6h-26.5z" fill="url(#1770301554979-9441001_w)"></path><path d="M401.07 60.16h93.87v34.13h-93.87z" fill="url(#1770301554979-9441001_x)"></path><path d="M482.13 55.89h8.53v8.53h-8.53z" class="am" fill="#6e8189"></path><path d="M443.73 150.2c0 2.1 1.72 3.81 3.81 3.81h26.5c2.1 0 3.81-1.72 3.81-3.81V4.22c0-2.1-1.72-3.81-3.81-3.81h-26.5c-2.1 0-3.81 1.72-3.81 3.81-4.67 29.8-4.67 116.18 0 145.97Z" class="aw" fill="#302c3b"></path><path d="M409.6 149.92c0 2.1 1.72 3.81 3.81 3.81h26.5c2.1 0 3.81-1.72 3.81-3.81V3.96c0-2.1-1.72-3.81-3.81-3.81h-26.5c-2.1 0-3.81 1.72-3.81 3.81z" class="aw" fill="#302c3b"></path><path d="M447.55.41h26.5v153.6h-26.5z" fill="url(#1770301554979-9441001_y)"></path><path d="M413.41.41h26.5v153.6h-26.5z" fill="url(#1770301554979-9441001_z)"></path></g></svg>
