<svg xmlns="http://www.w3.org/2000/svg" data-name="Layer 1" style="" viewBox="0 0 512 639.99"><g><defs><linearGradient id="1770301554974-6548937_b" x1="407.1" x2="407.1" y1="114.02" y2="598.11" gradientTransform="matrix(1 0 0 -1 0 641.99)" gradientUnits="userSpaceOnUse"><stop offset=".05" stop-color="#473834"></stop><stop offset=".23" stop-color="#594640"></stop><stop offset=".52" stop-color="#715950"></stop><stop offset=".7" stop-color="#7a6056"></stop></linearGradient><linearGradient id="1770301554974-6548937_c" x1="1165.92" x2="1165.92" y1="114.02" y2="598.11" gradientTransform="rotate(180 635.405 320.995)" gradientUnits="userSpaceOnUse"><stop offset=".05" stop-color="#473834"></stop><stop offset=".23" stop-color="#594640"></stop><stop offset=".52" stop-color="#715950"></stop><stop offset=".7" stop-color="#7a6056"></stop></linearGradient><linearGradient id="1770301554974-6548937_e" x1="-616.61" x2="-616.61" y1="428.01" y2="419.92" gradientTransform="matrix(6.57 0 0 6.57 4235.16 -2495.34)" gradientUnits="userSpaceOnUse"><stop offset="0" stop-color="#a6694a"></stop><stop offset="1" stop-color="#4f2a1e"></stop></linearGradient><linearGradient id="1770301554974-6548937_k" x1="-597.48" x2="-597.48" y1="428.01" y2="419.92" gradientTransform="matrix(6.57 0 0 6.57 4252.89 -2495.34)" gradientUnits="userSpaceOnUse"><stop offset="0" stop-color="#a6694a"></stop><stop offset="1" stop-color="#4f2a1e"></stop></linearGradient><linearGradient id="1770301554974-6548937_p" x1="256.01" x2="256.01" y1="114.01" y2="598.11" gradientTransform="matrix(1 0 0 -1 0 641.99)" gradientUnits="userSpaceOnUse"><stop offset=".05" stop-color="#473834"></stop><stop offset=".23" stop-color="#594640"></stop><stop offset=".52" stop-color="#715950"></stop><stop offset=".7" stop-color="#7a6056"></stop></linearGradient><radialGradient id="1770301554974-6548937_q" cx="281.64" cy="492.17" r="176.14" fx="281.64" fy="492.17" gradientTransform="matrix(1 0 0 -1 -25.65 638.83)" gradientUnits="userSpaceOnUse"><stop offset=".26" stop-color="#a10505"></stop><stop offset=".48" stop-color="#b20b0d"></stop><stop offset=".92" stop-color="#e01923"></stop><stop offset="1" stop-color="#e81c27"></stop></radialGradient><radialGradient id="1770301554974-6548937_r" cx="281.64" cy="435.57" r="159.74" fx="281.64" fy="435.57" gradientTransform="matrix(1 0 0 -1 -25.65 638.83)" gradientUnits="userSpaceOnUse"><stop offset="0" stop-color="#747080"></stop><stop offset="1" stop-color="#302c3b"></stop></radialGradient></defs><path d="M336.87 519.91c161.79-64.7 124.27-218.4 124.27-218.4H50.84s-37.5 153.69 124.25 218.4c0 0 32.37 8.11 80.9 8.11s80.9-8.11 80.9-8.11Z" class="z" fill="#473834"></path><path d="M419.54 317.91c12.5 52.61-16.57 155.73-82.67 202.01 97.09-16.17 140.46-107.83 140.46-178.17z" fill="url(#1770301554974-6548937_b)"></path><path d="M92.44 317.91c-12.5 52.61 16.59 155.73 82.69 202.01C78.04 503.75 34.67 412.08 34.67 341.74z" fill="url(#1770301554974-6548937_c)"></path><path d="M45.38 540.98c25.62-13.74 125.29-50.22 125.29-50.22l170.67-.31s100.41 36.7 125.88 50.5c37.01 19.97 44.79 47.24 44.79 73.01 0 7.53-24.12 13.43-61.87 17.69l-389.33-.12C23.67 627.27.01 621.42.01 613.96c0-25.81 8.26-53.09 45.38-72.98Z" class="ah" fill="#e81c27"></path><path d="M170.67 511.43s27.38 30.21 85.33 30.21 85.33-30.21 85.33-30.21v-85.71H170.66v85.71Z" fill="#f5bb51"></path><path d="M65.89 600.47v31.62c49.12 5.27 119.58 7.9 190.11 7.9s140.07-2.6 189.14-7.8v-31.72z" class="ab" fill="#ffe12c"></path><path d="M185.19 513.24c14.87 29.27 69.83 70.5 69.83 70.5s54.95-41.23 69.81-70.5c-45.26 14.97-94.38 14.97-139.65 0Z" class="am" fill="#302c3b"></path><path d="M255.04 562.22h8.75v77.77h-8.75z" class="am" fill="#302c3b"></path><path d="M255.04 639.99s-35.36-112.09-122.85-89.25c0 0-5.62-57.35 38.46-87.63 0 0 9.77 60.65 84.36 99.13l.02 77.75m.01-39.52s32.06-54.91 122.81-49.73c0 0 7.54-57.35-36.51-87.63 0 0-7.84 65.44-86.3 99.13v77.75m-184.12-7.38-10.08-1.07c0-65.99 10.08-64.94 10.08 1.07m379.21-.96-9.98 1.07c.01-66.01 9.98-67.07 9.98-1.07" fill="#b00505"></path><path d="M256 66.95c-117.4 0-173.94 95.58-166.88 218.5 1.46 24.7 8.33 60.33 16.81 90.88C123.54 439.81 216.44 503.75 256 503.75s132.44-63.94 150.06-127.41c8.48-30.54 15.35-66.17 16.79-90.88C429.92 162.54 373.4 66.95 256 66.95" fill="#ffc940"></path><path d="M255.98 403.95c-27.5-12.11-27.73-.5-70.19 2.36 15.94 18.1 27.67 41.38 70.17 41.38 48.79 0 57.05-26.44 70.25-41.38-42.52-2.86-42.69-14.46-70.23-2.36" fill="#d47706"></path><path d="M198.54 410.83c27.73 28.85 87.52 28.46 114.89.02-42.68 4.58-72.2 4.58-114.89-.02" class="ag" fill="#fff"></path><path d="M380.73 244.56c-25.5-15.21-71.25-17.07-89.35-6.71-3.83 2.1-2.79 13.09.52 11.71 25.81-10.75 65.14-11.3 89.38 1.14 3.25 1.64 3.34-3.94-.54-6.14Zm-249.48 0c25.5-15.21 71.23-17.07 89.38-6.71 3.83 2.1 2.82 13.09-.52 11.71-25.83-10.75-65.12-11.32-89.4 1.14-3.25 1.64-3.32-3.94.54-6.14" fill="#966f42"></path><path d="M282.38 364.95c-2.79-1.96-9.35 1.05-26.4 1.05s-23.58-3-26.38-1.05c-3.35 2.36 1.96 12.98 26.38 12.98s29.77-10.62 26.4-12.98" fill="#f0a429"></path><path id="1770301554974-6548937_d" d="M229.88 290.68c1 7.75-4.27 16.96-18.88 23.85-9.27 4.39-28.57 9.56-53.92-1.12-11.35-4.79-22.44-19.71-21.44-27.96 13.74-25.9 81.39-29.69 94.24 5.23" class="ag" data-name="Path" fill="#fff"></path><circle id="1770301554974-6548937_f" cx="183.98" cy="290.14" r="26.56" data-name="Oval" fill="url(#1770301554974-6548937_e)"></circle><path id="1770301554974-6548937_g" d="M170.71 289.66c0 18.38 26.58 18.38 26.58 0 0-17.06-26.58-17.06-26.58 0" class="ad" data-name="Path" fill="#1a1626"></path><path id="1770301554974-6548937_h" d="M166.67 282.22c0 7.71 11.15 7.71 11.15 0 0-7.15-11.15-7.15-11.15 0" class="ai" data-name="Path" fill="#ab968c"></path><path id="1770301554974-6548937_i" d="M230.01 291.7c-10.79-34.69-84.35-29.56-94.36-6.25 3.7-29.86 85.16-37.73 94.36 6.25" class="aj" data-name="Path" fill="#45332c"></path><path id="1770301554974-6548937_j" d="M282.1 290.68c-.98 7.75 4.29 16.96 18.89 23.85 9.27 4.39 28.57 9.56 53.92-1.12 11.37-4.79 22.44-19.71 21.44-27.96-13.73-25.9-81.38-29.69-94.25 5.23" class="ag" data-name="Path" fill="#fff"></path><circle id="1770301554974-6548937_l" cx="327.41" cy="290.14" r="26.56" data-name="Oval" fill="url(#1770301554974-6548937_k)"></circle><path id="1770301554974-6548937_m" d="M314.14 289.66c0 18.38 26.56 18.38 26.56 0 0-17.06-26.56-17.06-26.56 0" class="ad" data-name="Path" fill="#1a1626"></path><path id="1770301554974-6548937_n" d="M310.08 282.22c0 7.71 11.15 7.71 11.15 0 0-7.15-11.15-7.15-11.15 0" class="ai" data-name="Path" fill="#ab968c"></path><path id="1770301554974-6548937_o" d="M282.01 291.7c10.77-34.67 84.29-29.71 94.36-6.25-3.73-29.86-85.17-37.73-94.36 6.25" class="aj" data-name="Path" fill="#45332c"></path><path d="M388.11 84.1c13.42-19.13-100.13-59.54-207.34-32.25C73.69 76.37 34.67 236.8 34.67 341.74c9.58 7.58 46.89-11.37 57.77-23.83 4.44-18.36 11.43-37.25 17.96-56.83 80.42-46.56 171.41-57.53 234.58-113.25-8.09 24.27 34.73 54.88 56.63 113.25 7.08 18.93 13.44 37.9 17.94 56.83 17.86 16.44 32.15 24.19 57.79 23.83-.01-88.75-46.3-270.02-89.24-257.64Z" fill="url(#1770301554974-6548937_p)"></path><path d="M53.96 325.78c74.06-98.65 292.67-91.96 334.14-241.69C307.56 209.76 74.19 230.97 53.96 325.78" class="z" fill="#473834"></path><path d="M471.09 254.03c0 60.73 4.74-38.01-215.09-38.01-219.85.02-215.11 98.73-215.11 38.01 0-149.77 96.3-230.44 215.11-230.44s215.09 80.67 215.09 230.44" fill="url(#1770301554974-6548937_q)"></path><path d="M320.61 206.29H191.39V34.2c0-45.6 129.21-45.6 129.21 0 .01 34.58.01 172.09.01 172.09" class="ah" fill="#e81c27"></path><path d="M471.09 254.03c0-15.52-1.26-30.12-3.24-44.17-37.77-43.5-118.44-73.55-211.89-73.55s-174.02 29.98-211.78 73.4c-2.02 14.1-3.3 28.75-3.3 44.31 0 60.73-4.74-37.98 215.11-38.01 219.83.02 215.09 98.75 215.09 38.02Z" fill="url(#1770301554974-6548937_r)"></path><path d="M256 178.83c-138.35 0-250.45 57.77-250.45 129.09 0 22.84 11.63 44.22 31.86 62.84 0 0-1.93-14.91-1.93-28.96 0-60.42 98.73-109.38 220.52-109.38s220.52 48.96 220.52 109.38c0 14.02-1.44 28.48-1.44 28.48 19.91-18.47 31.37-39.71 31.37-62.36 0-71.32-112.15-129.09-250.45-129.09" class="ah" fill="#e81c27"></path><path d="M319.46 94.35c-15.89-30.75-50.08-24.27-63.48-50.01-13.38 25.73-47.58 19.25-63.46 50.01-15.96 30.88 13.96 44.11-4.67 61.9 0 0 19.89 14.02 14.21 45.88 0 0 21.73-10.27 53.92 12.15 32.19-22.42 53.92-12.15 53.92-12.15-5.66-31.85 14.23-45.88 14.23-45.88-18.62-17.8 11.29-31.03-4.67-61.9" class="ab" fill="#ffe12c"></path><path d="M291.19 170.51h-12.37v4.96h11.35v4.06h-11.35v6.02h12.94v4.19h-17.71v-23.37h17.14zm-70.97-4.12h16.65v4.09h-11.81v5.4h10.38v4.06h-10.38v9.79h-4.83v-23.34zm26.38 23.35h-4.87v-23.37h4.87zm19.74-22.79c.85.35 1.58.92 2.19 1.64.48.59.9 1.23 1.16 1.96.29.73.46 1.55.46 2.45 0 1.12-.29 2.23-.85 3.3s-1.48 1.81-2.77 2.27c1.07.42 1.83 1.05 2.27 1.86.46.79.7 2.02.7 3.65v1.56c0 1.07.02 1.79.11 2.19.13.63.44 1.05.9 1.35v.57h-5.4c-.13-.5-.25-.94-.31-1.25-.13-.65-.19-1.33-.21-2.01l-.04-2.19c0-1.5-.27-2.47-.77-2.98-.48-.5-1.42-.75-2.77-.75h-4.78v9.16h-4.75v-23.37h11.19c1.57.02 2.83.2 3.68.58Zm-10.13 3.46v6.29h5.27c1.05 0 1.83-.15 2.36-.39.92-.44 1.4-1.31 1.4-2.6 0-1.42-.46-2.38-1.35-2.86-.48-.29-1.25-.44-2.27-.44h-5.4Z" class="am" fill="#302c3b"></path><path d="M292.92 99.18c-8.94-8.96-21.73 4.13-25.44 4.94.79-3.73 13.88-16.52 4.94-25.48-2.58-2.58-30.27-2.58-32.85 0-8.94 8.96 4.13 21.75 4.92 25.48-3.71-.81-16.5-13.9-25.44-4.94-2.58 2.6-2.58 30.25 0 32.85 8.94 8.92 21.73-4.13 25.44-4.94-.79 3.71-13.86 16.5-4.92 25.46 2.58 2.56 30.27 2.56 32.85 0 8.94-8.96-4.15-21.75-4.94-25.46 3.71.81 16.5 13.86 25.44 4.94 2.58-2.6 2.58-30.25 0-32.85" class="ah" fill="#e81c27"></path></g></svg>
