<svg xmlns="http://www.w3.org/2000/svg" data-name="Layer 1" style="" viewBox="0 0 512 477.85"><g><defs><linearGradient id="1770301554989-5871763_b" x1="385.42" x2="385.42" y1="87.62" y2="474.89" gradientTransform="matrix(1 0 0 -1 0 475.85)" gradientUnits="userSpaceOnUse"><stop offset=".05" stop-color="#473834"></stop><stop offset=".23" stop-color="#594640"></stop><stop offset=".52" stop-color="#715950"></stop><stop offset=".7" stop-color="#7a6056"></stop></linearGradient><linearGradient id="1770301554989-5871763_c" x1="1144.23" x2="1144.23" y1="87.62" y2="474.89" gradientTransform="rotate(180 635.405 237.925)" gradientUnits="userSpaceOnUse"><stop offset=".05" stop-color="#473834"></stop><stop offset=".23" stop-color="#594640"></stop><stop offset=".52" stop-color="#715950"></stop><stop offset=".7" stop-color="#7a6056"></stop></linearGradient><linearGradient id="1770301554989-5871763_d" x1="256" x2="256" y1="87.6" y2="474.88" gradientTransform="matrix(1 0 0 -1 0 475.85)" gradientUnits="userSpaceOnUse"><stop offset=".05" stop-color="#473834"></stop><stop offset=".23" stop-color="#594640"></stop><stop offset=".52" stop-color="#715950"></stop><stop offset=".7" stop-color="#7a6056"></stop></linearGradient></defs><path d="M0 477.85h512v-287.5c-210.47 78.85-333.76-70.96-512 0z" class="q" style="isolation:isolate" fill="#a6aeb0" opacity=".15"></path><path d="M512 477.85H0V276.72c210.48 72.87 333.78-65.6 512 0z" class="q" style="isolation:isolate" fill="#a6aeb0" opacity=".15"></path><path d="M320.7 381.78c129.43-51.76 116.49-174.72 116.49-174.72H74.81S61.86 330.01 191.27 381.78c0 0 25.9 6.49 64.71 6.49s64.72-6.49 64.72-6.49" class="h" fill="#473834"></path><path d="M386.84 220.19c13.24 55.75 6.25 110.93-66.14 161.6 77.67-12.94 129.43-86.26 129.43-142.53z" fill="url(#1770301554989-5871763_b)"></path><path d="M125.16 220.19c-13.24 55.75-6.25 110.93 66.14 161.6-77.67-12.94-129.43-86.27-129.43-142.54z" fill="url(#1770301554989-5871763_c)"></path><path d="M87.52 398.95c20.48-11.65 105.5-42.4 105.5-42.4h126.63s84.95 30.69 105.32 42.37c29.62 16.93 35.83 78.93 35.83 78.93H51.2s6.61-62.04 36.32-78.9" class="k" fill="#f5bb51"></path><path d="M192 375.01s20.15 24.17 64 24.17 64-24.17 64-24.17v-68.57H192z" class="k" fill="#f5bb51"></path><path d="M256 19.41c-93.91 0-139.14 76.48-133.5 174.8 1.16 19.76 6.66 48.28 13.44 72.7 14.09 50.78 88.41 101.94 120.06 101.94s105.95-51.15 120.05-101.93c6.78-24.41 12.28-52.93 13.44-72.7C395.14 95.89 349.93 19.41 256 19.41" fill="#ffc940"></path><path d="M255.98 289.02c-22-9.69-22.18-.38-56.15 1.89 12.75 14.48 22.14 33.1 56.14 33.1 39.03 0 45.63-21.15 56.19-33.1-34.01-2.27-34.15-11.57-56.18-1.89" fill="#d47706"></path><path d="M210.03 294.52c22.19 23.08 70.02 22.77 91.92.02-34.14 3.66-57.76 3.66-91.92-.02" class="l" fill="#fff"></path><path d="M355.78 161.5c-20.4-12.15-57-13.65-71.48-5.37-3.06 1.68-2.25 10.47.41 9.37 20.65-8.6 52.12-9.04 71.51.91 2.59 1.31 2.66-3.15-.44-4.92Zm-199.58 0c20.4-12.15 56.99-13.65 71.5-5.37 3.07 1.68 2.25 10.47-.42 9.37-20.67-8.6-52.1-9.05-71.51.91-2.61 1.31-2.66-3.15.43-4.92Z" fill="#966f42"></path><path d="M277.11 257.82c-2.24-1.57-7.48.84-21.13.84s-18.87-2.4-21.1-.84c-2.68 1.89 1.58 10.39 21.1 10.39s23.82-8.5 21.13-10.39" fill="#f0a429"></path><path d="M361.69 33.14c10.73-15.31-80.11-47.63-165.87-25.8C110.16 26.96 61.87 155.3 61.87 239.25c7.66 6.08 54.58-9.09 63.29-19.06 3.55-14.69 9.14-29.8 14.36-45.47 64.33-37.24 137.13-46.01 187.67-90.59-6.48 19.41 27.78 43.9 45.3 90.59 5.68 15.15 10.76 30.34 14.36 45.47 14.28 13.15 42.79 19.35 63.29 19.06 0-71-54.12-216.01-88.45-206.11" fill="url(#1770301554989-5871763_d)"></path><path d="M77.29 226.48c59.26-78.92 251.2-73.57 284.4-193.34-64.44 100.53-268.21 117.49-284.4 193.34" class="h" fill="#473834"></path><path d="M181 477.85h220.07s-2.71-35.32-34.38-34.92C167.82 445.32 181 477.85 181 477.85" fill="#f5f5f5"></path><path d="M272.63 446.37c-102.2-.2-87.71-3.34-127.3-3.43-31.68-.1-34.4 34.91-34.4 34.91h220.08s-7.36-31.37-58.39-31.48Z" class="l" fill="#fff"></path><path d="M512 477.85H0V363.07c205.06-67.74 323.75 73.93 512 0z" style="isolation:isolate" opacity=".2" fill="#a6aeb0"></path><path d="M229.07 195.06c-17.21 10.97-43.91 10.97-61.09 0-2.64-1.68-4.21.14-3.38 1.55 16.7 28.31 51.11 28.31 67.83 0 .84-1.42-.76-3.23-3.36-1.55m114.98 0c-17.19 10.97-43.9 10.97-61.09 0-2.65-1.68-4.17.14-3.36 1.55 16.69 28.31 51.1 28.31 67.79 0 .88-1.42-.7-3.23-3.34-1.55" fill="#45332c"></path></g></svg>
