<svg xmlns="http://www.w3.org/2000/svg" data-name="Layer 1" style="" viewBox="0 0 512 512"><g><defs><linearGradient id="1770301554987-2551179_b" x1="358.09" x2="358.09" y1="94.02" y2="508.96" gradientTransform="matrix(1 0 0 -1 0 510)" gradientUnits="userSpaceOnUse"><stop offset=".05" stop-color="#473834"></stop><stop offset=".23" stop-color="#594640"></stop><stop offset=".52" stop-color="#715950"></stop><stop offset=".7" stop-color="#7a6056"></stop></linearGradient><linearGradient id="1770301554987-2551179_c" x1="1190.05" x2="1190.05" y1="94.02" y2="508.96" gradientTransform="rotate(180 635.405 255)" gradientUnits="userSpaceOnUse"><stop offset=".05" stop-color="#473834"></stop><stop offset=".23" stop-color="#594640"></stop><stop offset=".52" stop-color="#715950"></stop><stop offset=".7" stop-color="#7a6056"></stop></linearGradient><linearGradient id="1770301554987-2551179_e" x1="-620.61" x2="-620.61" y1="359.61" y2="352.67" gradientTransform="matrix(6.57 0 0 6.57 4235.16 -2127.74)" gradientUnits="userSpaceOnUse"><stop offset="0" stop-color="#a6694a"></stop><stop offset="1" stop-color="#4f2a1e"></stop></linearGradient><linearGradient id="1770301554987-2551179_k" x1="-604.6" x2="-604.6" y1="359.61" y2="352.67" gradientTransform="matrix(6.57 0 0 6.57 4252.89 -2127.74)" gradientUnits="userSpaceOnUse"><stop offset="0" stop-color="#a6694a"></stop><stop offset="1" stop-color="#4f2a1e"></stop></linearGradient><linearGradient id="1770301554987-2551179_p" x1="219.43" x2="219.43" y1="94.03" y2="508.97" gradientTransform="matrix(1 0 0 -1 0 510)" gradientUnits="userSpaceOnUse"><stop offset=".05" stop-color="#473834"></stop><stop offset=".23" stop-color="#594640"></stop><stop offset=".52" stop-color="#715950"></stop><stop offset=".7" stop-color="#7a6056"></stop></linearGradient><linearGradient id="1770301554987-2551179_q" x1="219.44" x2="219.44" y1="241.94" y2="349.27" gradientTransform="matrix(1 0 0 -1 0 510)" gradientUnits="userSpaceOnUse"><stop offset="0" stop-color="#fff" stop-opacity=".2"></stop><stop offset="1" stop-color="#fff"></stop></linearGradient><linearGradient id="1770301554987-2551179_r" x1="333.73" x2="507.45" y1="46.84" y2="46.84" gradientTransform="matrix(1 0 0 -1 0 510)" gradientUnits="userSpaceOnUse"><stop offset="0" stop-color="#a3f01f"></stop><stop offset="1" stop-color="#62ad00"></stop></linearGradient><linearGradient id="1770301554987-2551179_s" x1="412.64" x2="412.64" y1="233.5" y2="379.8" gradientTransform="matrix(1 0 0 -1 0 510)" gradientUnits="userSpaceOnUse"><stop offset="0" stop-color="#a9b0b3"></stop><stop offset=".32" stop-color="#bdc4c7"></stop><stop offset=".96" stop-color="#eff6fc"></stop><stop offset="1" stop-color="#f2f9ff"></stop></linearGradient></defs><path d="M38.89 427.13c21.96-11.77 111.96-43.04 111.96-43.04l137.14-.27s90.63 31.46 112.47 43.28c31.73 17.11 38.39 40.48 38.39 62.57 0 29.75-438.86 29.75-438.86 0 0-22.13 7.08-45.5 38.89-62.56Z" fill="#e6ebef"></path><path d="M288.75 409.07c138.68-55.46 124.8-187.22 124.8-187.22H25.29S11.43 353.61 150.07 409.07c0 0 27.75 6.93 69.34 6.93s69.34-6.93 69.34-6.93" class="z" fill="#473834"></path><path d="M359.61 235.92c14.2 59.72 6.71 118.85-70.86 173.15 83.22-13.88 138.68-92.44 138.68-152.73z" fill="url(#1770301554987-2551179_b)"></path><path d="M79.23 235.92c-14.18 59.72-6.69 118.85 70.88 173.15C66.89 395.2 11.43 316.63 11.43 256.34z" fill="url(#1770301554987-2551179_c)"></path><path d="m241.75 512 59.97-122.5s-25.07 49.09-82.29 49.09-82.27-49.09-82.29-49.09L197.13 512z" fill="#018bc9"></path><path d="M137.14 397c0 74.27 164.57 74.27 164.57 0l-14.11-4.89H150.85z" fill="#0175a8"></path><path d="M150.86 393.78c0 58.14 137.14 58.14 137.14 0v-65.44H150.86z" class="ag" fill="#f5bb51"></path><path d="M282.75 511.14s23.44-33.07 41.31-74.57l-22.71-23.02 36.14-6.67s-21.13-30.56-49.48-41.16c0 0-13.7 81.27-46.25 146.27l41-.85Zm-126.63 0s-23.44-33.07-41.31-74.57l22.71-23.02-36.14-6.67s21.13-30.56 49.46-41.16c0 0 13.71 81.27 46.27 146.27l-41-.85Z" class="al" fill="#f5f5f5"></path><path d="M219.43 20.8c-100.63 0-149.09 81.95-143.04 187.3 1.25 21.16 7.14 51.72 14.41 77.9 15.09 54.41 94.72 109.2 128.63 109.2s113.52-54.78 128.62-109.19c7.27-26.18 13.16-56.74 14.39-77.9C368.5 102.75 320.05 20.8 219.43 20.8" fill="#ffc940"></path><path d="M219.41 309.66c-23.57-10.36-23.77-.41-60.16 2.02 13.66 15.53 23.72 35.48 60.14 35.48 41.82 0 48.9-22.67 60.21-35.48-36.44-2.43-36.59-12.38-60.2-2.02Z" fill="#d47706"></path><path d="M170.18 315.56c23.77 24.73 75.02 24.41 98.48.02-36.58 3.92-61.89 3.92-98.48-.02" class="ai" fill="#fff"></path><path d="M326.34 173.05c-21.86-13.04-61.07-14.65-76.59-5.75-3.28 1.78-2.41 11.2.45 10.02 22.13-9.22 55.84-9.66 76.61 1 2.79 1.4 2.86-3.37-.47-5.27m-213.84 0c21.86-13.04 61.06-14.65 76.61-5.75 3.28 1.78 2.41 11.2-.45 10.02-22.14-9.22-55.82-9.68-76.63 1-2.79 1.4-2.84-3.37.47-5.27" fill="#966f42"></path><path d="M242.04 276.23c-2.4-1.68-8.02.91-22.63.91s-20.21-2.59-22.61-.91c-2.87 2.02 1.68 11.13 22.61 11.13s25.52-9.09 22.63-11.13" class="ap" fill="#f0a429"></path><path id="1770301554987-2551179_d" d="M197.04 212.57c.86 6.65-3.66 14.56-16.18 20.46-7.95 3.77-24.48 8.2-46.22-.98-9.75-4.09-19.24-16.88-18.38-23.95 11.78-22.22 69.76-25.47 80.78 4.46Z" class="ai" data-name="Path" fill="#fff"></path><circle id="1770301554987-2551179_f" cx="157.7" cy="212.12" r="22.77" data-name="Oval" fill="url(#1770301554987-2551179_e)"></circle><path id="1770301554987-2551179_g" d="M146.32 211.71c0 15.75 22.78 15.75 22.78 0 0-14.63-22.78-14.63-22.78 0" class="ae" data-name="Path" fill="#1a1626"></path><path id="1770301554987-2551179_h" d="M142.86 205.32c0 6.61 9.55 6.61 9.55 0 0-6.11-9.55-6.11-9.55 0" class="aj" data-name="Path" fill="#ab968c"></path><path id="1770301554987-2551179_i" d="M197.15 213.44c-9.25-29.71-72.3-25.33-80.88-5.34 3.17-25.59 73-32.36 80.88 5.34" class="ak" data-name="Path" fill="#45332c"></path><path id="1770301554987-2551179_j" d="M241.8 212.57c-.84 6.65 3.68 14.56 16.19 20.46 7.95 3.77 24.48 8.2 46.22-.98 9.75-4.09 19.24-16.88 18.38-23.95-11.77-22.22-69.75-25.47-80.79 4.46Z" class="ai" data-name="Path" fill="#fff"></path><circle id="1770301554987-2551179_l" cx="280.62" cy="212.12" r="22.77" data-name="Oval" fill="url(#1770301554987-2551179_k)"></circle><path id="1770301554987-2551179_m" d="M269.25 211.71c0 15.75 22.78 15.75 22.78 0 0-14.63-22.78-14.63-22.78 0" class="ae" data-name="Path" fill="#1a1626"></path><path id="1770301554987-2551179_n" d="M265.78 205.32c0 6.61 9.55 6.61 9.55 0 0-6.11-9.55-6.11-9.55 0" class="aj" data-name="Path" fill="#ab968c"></path><path id="1770301554987-2551179_o" d="M241.72 213.44c9.23-29.7 72.25-25.44 80.88-5.34-3.2-25.59-73.01-32.36-80.88 5.34" class="ak" data-name="Path" fill="#45332c"></path><path d="M332.66 35.51c11.5-16.41-85.82-51.04-177.72-27.64C63.16 28.89 11.43 166.41 11.43 256.34c8.21 6.52 58.48-9.73 67.8-20.42 3.8-15.73 9.8-31.93 15.4-48.71 68.93-39.91 146.93-49.31 201.07-97.07-6.95 20.8 29.77 47.04 48.54 97.07 6.09 16.23 11.52 32.48 15.38 48.71 15.31 14.1 45.84 20.74 67.82 20.42 0-76.08-57.99-231.45-94.77-220.83Z" fill="url(#1770301554987-2551179_p)"></path><path d="M27.95 242.66c63.5-84.54 269.16-78.81 304.71-207.15C263.63 143.23 45.3 161.39 27.95 242.66" class="z" fill="#473834"></path><path d="M80.39 171.91c-11.39 12.29-5.16 56.34 4.96 69.54 14.14 18.43 76.05 35.25 100.03 21.7 13.27-7.52 28.01-51.31 28.01-51.31h12.09s14.75 43.81 28 51.31c23.98 13.55 85.9-3.28 100.03-21.7 10.12-13.24 16.34-57.22 4.96-69.54-13.81-14.89-264.27-14.91-278.1 0Z" style="isolation:isolate" fill="url(#1770301554987-2551179_q)" opacity=".8"></path><path d="M161.23 269.25c-28.76 0-66.08-13.15-76.76-27.05-10.34-13.47-16.84-58.24-4.87-71.13 7.38-7.96 75.56-11.54 139.82-11.54s132.52 3.57 139.91 11.54c11.91 12.91 5.39 57.66-4.89 71.11-10.68 13.92-48 27.07-76.76 27.07-10.45 0-18.75-1.7-24.69-5.07-12.64-7.14-26.14-44.96-28.27-51.15h-10.5c-2.12 6.16-15.61 44-28.27 51.15-5.96 3.38-14.27 5.07-24.71 5.07Zm58.18-107.33c-74.27 0-132.39 4.55-138.19 10.81-11.07 11.95-4.66 55.36 5.02 67.97 10.34 13.45 46.78 26.18 75 26.18 9.93 0 18.09-1.66 23.61-4.78 12.75-7.21 27.36-50.22 27.5-50.65l.27-.8h13.68l.28.8c.15.43 14.75 43.45 27.48 50.65 5.52 3.13 13.68 4.78 23.61 4.78 28.21 0 64.66-12.74 75-26.18 9.65-12.59 16.05-56.02 5.04-67.97-5.82-6.25-63.98-10.81-138.29-10.81Z" class="ai" fill="#fff"></path><path d="M244.8 259.68s-16.71-35.42-19.84-41.95c-1.05-2.18-2.96-3.41-5.36-3.43-2.04.13-4.43.88-5.68 3.43-3.13 6.54-19.82 41.95-19.82 41.95-.84 1.76-8-.91-7.2-2.66 0 0 16.71-35.43 19.89-41.98 2.21-4.61 7.23-7.61 12.78-7.61h.02c5.5.02 10.29 2.93 12.53 7.61 3.15 6.56 19.84 41.98 19.84 41.98.84 1.76-6.53 3.99-7.18 2.66Z" class="al" fill="#f5f5f5"></path><path d="M383.21 322.57c.16 18.34 2.62 29.81-6.65 50.87-4.87 11.07-1.48 27.36 4.55 42.45 61.09-94.88 1.92-115.43 2.09-93.32Z" class="ag" fill="#f5bb51"></path><path d="M443.43 374.86v-68.57c6.27 0 11.43-5.16 11.43-11.45s-5.16-11.41-11.43-11.41h-45.71c-6.3 0-11.43 5.15-11.43 11.41s5.13 11.45 11.43 11.45v68.57c0 28.57-68.57 97.39-68.57 114.29 0 22.86 67.86 22.86 91.43 22.86s91.43 0 91.43-22.86c0-16.9-68.57-85.71-68.57-114.29Z" fill="#cae8f0"></path><path d="M480.75 448c-5.92-7.84-11.84-15.72-17.35-23.44h-6.41c-1.5-6.63-10.32-7.38-13.55-2.27-2.57-1.84-6.75-1.09-7.93 2.27h-15.53c-1.37-6.07-8.91-7.29-12.7-3.5-2.86-1.03-6.46.18-7.5 3.5h-7.96c-1.31-2.27-4.87-2.27-6.18 0h-7.87c-5.5 7.73-11.43 15.61-17.33 23.44-12.52 16.58-26.7 35.34-26.7 41.14 0 6.84 11.28 18.29 86.86 18.29s86.86-11.45 86.86-18.29c-.02-5.81-14.2-24.57-26.7-41.14Z" fill="url(#1770301554987-2551179_r)"></path><path d="M431.23 448.27c-9.59-6.89-21.71 5.23-14.8 14.8-.22-7.89 6.91-15.01 14.8-14.8m25.43 36.41c-4.61-3.28-10.41 2.51-7.1 7.1-.11-3.79 3.32-7.2 7.1-7.1m-42.27-63.7c-4.61-3.3-10.41 2.51-7.1 7.1-.11-3.79 3.32-7.2 7.1-7.1m37.4 0c-4.59-3.3-10.41 2.51-7.1 7.1-.09-3.79 3.32-7.2 7.1-7.1m-72.75 54.52c-7.93-5.7-17.97 4.32-12.25 12.25-.17-6.54 5.71-12.43 12.25-12.25m31.3 3.59c-5.6-4.03-12.7 3.05-8.66 8.66-.13-4.62 4.03-8.78 8.66-8.66m-16.69-36.59c-5.6-4.03-12.7 3.05-8.66 8.66-.13-4.62 4.03-8.78 8.66-8.66m63.01 19.02c-7.38-5.3-16.69 4.01-11.39 11.37-.16-6.07 5.32-11.54 11.39-11.37m14.68-3.63c-5.52-3.97-12.5 3.02-8.52 8.54-.13-4.55 3.99-8.65 8.52-8.54" fill="#a3f01f"></path><path d="M419.04 276.5s17.37-25.78-20.29-63.47c-40.96-40.95 20.29-55.95 20.29-82.83 0 0 9.97 10.7-4.01 36.01-19.84 35.85 63.09 41.51 4.01 110.28Z" style="isolation:isolate" fill="url(#1770301554987-2551179_s)" opacity=".6"></path><path d="M453.07 353.35c9.09 8 4.44 17.11 4.44 17.11 7.14 8.43 2.86 19 2.86 19 8 22.29-44.57 33-34.25 11.86-14.09 1.89-18.18-12.41-3.82-16.58-16.18 2.93-14.14-15.38-4.52-17.52 3.61-.8 7.29-2.53 11.47-3.41-16.48 2.73-14.2-14-6.02-17.75 9.07-4.14 18.94-6.34 22.43-5.75 6.88 1.15 8.23 9.9 7.41 13.04" class="ag" fill="#f5bb51"></path><path d="M416.95 356.18c-.58 16 25 4.72 28.72 1.29-16.72 7.71-28.28 4.85-28.72-1.29m-6.59 20.85c-.58 16 26.1 6.43 38.45-2.29-24.86 13-38 8.43-38.45 2.29m3.02 17.15c-.58 16 26.81 6.86 39.14-1.86-24.86 13-38.69 8-39.14 1.86" class="ap" fill="#f0a429"></path></g></svg>
