<svg xmlns="http://www.w3.org/2000/svg" id="a" data-name="Layer 1" viewBox="0 0 512 511.97"><defs><linearGradient id="b" x1="399.56" x2="399.56" y1="147.34" y2="406.19" gradientTransform="matrix(1 0 0 -1 0 513.97)" gradientUnits="userSpaceOnUse"><stop offset=".05" stop-color="#473834"/><stop offset=".23" stop-color="#594640"/><stop offset=".52" stop-color="#715950"/><stop offset=".7" stop-color="#7a6056"/></linearGradient><linearGradient id="c" x1="1158.39" x2="1158.39" y1="147.34" y2="406.19" gradientTransform="matrix(-1 0 0 -1 1270.81 513.97)" gradientUnits="userSpaceOnUse"><stop offset=".05" stop-color="#473834"/><stop offset=".23" stop-color="#594640"/><stop offset=".52" stop-color="#715950"/><stop offset=".7" stop-color="#7a6056"/></linearGradient><linearGradient id="e" x1="-614.42" x2="-614.42" y1="364.1" y2="357.63" gradientTransform="translate(4235.16 -2138.81)scale(6.57)" gradientUnits="userSpaceOnUse"><stop offset="0" stop-color="#a6694a"/><stop offset="1" stop-color="#4f2a1e"/></linearGradient><linearGradient id="k" x1="-599.65" x2="-599.65" y1="364.1" y2="357.63" gradientTransform="translate(4252.89 -2138.81)scale(6.57)" gradientUnits="userSpaceOnUse"><stop offset="0" stop-color="#a6694a"/><stop offset="1" stop-color="#4f2a1e"/></linearGradient><linearGradient id="p" x1="256" x2="256" y1="91.62" y2="478.89" gradientTransform="matrix(1 0 0 -1 0 513.97)" gradientUnits="userSpaceOnUse"><stop offset=".05" stop-color="#473834"/><stop offset=".23" stop-color="#594640"/><stop offset=".52" stop-color="#715950"/><stop offset=".7" stop-color="#7a6056"/></linearGradient><radialGradient id="q" cx="221.87" cy="494.94" r="147.76" fx="221.87" fy="494.94" gradientTransform="matrix(1 0 0 -1.5 0 888.88)" gradientUnits="userSpaceOnUse"><stop offset="0" stop-color="#e6ebef"/><stop offset=".19" stop-color="#d7dee2"/><stop offset="1" stop-color="#99a8ae"/></radialGradient><radialGradient id="r" cx="189.86" cy="375.58" r="265.26" fx="189.86" fy="375.58" gradientTransform="matrix(1 0 0 -1 0 513.97)" gradientUnits="userSpaceOnUse"><stop offset="0" stop-color="#fff" stop-opacity=".73"/><stop offset=".79" stop-color="#fff" stop-opacity="0"/></radialGradient><style>.y{fill:#cfd8dd}.z{fill:#473834}.ad{fill:#1a1626}.ae{fill:#99a8ae}.ag{fill:#fff}.ah{fill:#ab968c}.ai{fill:#45332c}.ak{fill:#4e5e67}.am{fill:#302c3b}.ao{fill:#7d8d96}</style></defs><path d="m473.91 430.8-9.32-7.01c-6.35-35.17-111.56-55.98-111.56-55.98H158.97s-105.21 20.8-111.56 55.98l-9.32 7.01C23.63 430.35.01 468.37.01 488.84c0 15.43 128 23.13 256 23.13s256-7.71 256-23.13c0-20.47-23.62-58.5-38.08-58.04Z" class="y"/><path d="M441.72 505.36c2.85-42.62 32.19-74.55 32.19-74.55l-9.32-7.01s-33.64 33.64-36.04 82.68c6.88-.56 13.18-1.11 13.18-1.11Zm-371.45 0c-2.85-42.62-32.19-74.55-32.19-74.55l9.32-7.01s33.64 33.64 36.04 82.68c-6.88-.56-13.18-1.11-13.18-1.11Z" class="ae"/><path d="M24.59 438.15s-12.61 10.73-19.98 31.16c5.11 12.09 15.78 23.56 15.78 23.56s7.87-13.34 22-25.07c-7.62-16.94-17.79-29.65-17.79-29.65Z" style="fill:#018bc9"/><path d="M389.71 346.51H122.25c-25.46 0-22.25 18.03-22.25 36.07 0 40.58 88.62 60.13 156 60.13s156-19.55 156-60.13c0-18.03 3.22-36.07-22.28-36.07" class="ae"/><path d="M290.83 469.31s-9.85-7.29-11.91-8.53c-7.13-4.33-54.95-4.18-62.06 0-2.12 1.24-12.59 8.53-12.59 8.53H153.6v40.93c32.39 1.15 67.38 1.73 102.4 1.73s70.01-.58 102.4-1.73v-40.93z" style="fill:#e6ebef"/><path d="M222.44 483.17h52.53v28.8h-52.53zm-27.26 28.22-23.05-.56v-13.25h23.05zm-28.2-46.52h23.05v4.44h-23.05zm146.25 0h12.8v4.44h-12.8zm6.4 24.35c-12.57 0-22.75 10.18-22.75 22.75l45.46-1.22c0-12.56-10.15-21.53-22.72-21.53ZM22.82 230.52h52.53v62.95H22.82z" class="ae"/><path d="M33.98 220.08h30.2v62.93h-30.2z" class="ak"/><path d="M436.66 230.52h52.53v62.95h-52.53z" class="ae"/><path d="M447.82 220.08h30.2v62.93h-30.2z" class="ak"/><path d="M511.99 199.16c0 18.33-14.85 33.17-33.17 33.17H33.17C14.85 232.33 0 217.49 0 199.16v-57.04c0-18.31 14.85-33.17 33.17-33.17h445.66c18.31 0 33.17 14.85 33.17 33.17v57.04Z" class="ae"/><circle cx="256" cy="204.78" r="187.73" class="am"/><path d="M503.48 143.8c0 28.43-42.68 28.43-42.68 0s42.68-28.47 42.68 0m0 53.78c0 25.62-38.42 25.62-38.42 0s38.42-25.58 38.42 0" class="ao"/><path d="M499.21 143.8c0 22.73-34.15 22.73-34.15 0s34.15-22.77 34.15 0m0 53.78c0 19.92-29.88 19.92-29.88 0s29.88-19.9 29.88 0" class="y"/><path d="M51.22 143.8c0 28.43-42.68 28.43-42.68 0s42.68-28.47 42.68 0m-4.27 53.78c0 25.62-38.42 25.62-38.42 0s38.42-25.58 38.42 0" class="ao"/><path d="M46.95 143.8c0 22.75-34.15 22.75-34.15 0s34.15-22.77 34.15 0m-4.27 53.78c0 19.92-29.88 19.92-29.88 0 0-19.9 29.88-19.9 29.88 0" class="y"/><path d="M320.69 390.31c129.43-51.76 99.41-149.13 99.41-149.13H91.87s-30 97.36 99.39 149.13z" class="z"/><path d="M386.83 254.31c6.42 26.95-.82 70.48-20.75 108.01l64.65-62.92s2.33-17.65 2.33-26.05l-46.22-19.05Z" style="fill:url(#b)"/><path d="M125.15 254.31c-6.4 26.95.84 70.47 20.77 108.01l-62.97-54.7s-4.02-23.3-4.02-34.27l46.22-19.05Z" style="fill:url(#c)"/><path d="M256 53.53c-93.92 0-139.15 76.48-133.5 174.81 1.17 19.75 6.66 48.26 13.45 72.7 14.09 50.78 88.4 101.92 120.05 101.92s105.95-51.13 120.04-101.91c6.78-24.43 12.28-52.95 13.43-72.7 5.66-98.34-39.56-174.82-133.48-174.82Z" style="fill:#ffc940"/><path d="M255.98 323.14c-22-9.69-22.19-.4-56.15 1.89 12.75 14.48 22.14 33.1 56.13 33.1 39.03 0 45.64-21.15 56.2-33.1-34.01-2.29-34.15-11.57-56.18-1.89" style="fill:#d47706"/><path d="M210.03 328.63c22.19 23.08 70.01 22.78 91.91.02-34.14 3.66-57.76 3.66-91.91-.02" class="ag"/><path d="M355.77 195.63c-20.4-12.17-57-13.65-71.48-5.37-3.06 1.66-2.24 10.45.42 9.35 20.65-8.58 52.11-9.02 71.5.93 2.6 1.3 2.67-3.15-.44-4.92Zm-199.57 0c20.4-12.17 56.98-13.65 71.5-5.37 3.06 1.66 2.25 10.45-.42 9.35-20.67-8.58-52.1-9.04-71.52.93-2.6 1.3-2.65-3.15.44-4.92Z" style="fill:#966f42"/><path d="M277.1 291.93c-2.24-1.57-7.48.85-21.12.85s-18.87-2.41-21.1-.85c-2.68 1.89 1.57 10.4 21.1 10.4s23.82-8.5 21.12-10.4" style="fill:#f0a429"/><path id="d" d="M235.1 232.51c.8 6.22-3.41 13.58-15.1 19.1-7.42 3.52-22.85 7.65-43.14-.91-9.08-3.81-17.95-15.75-17.15-22.35 10.99-20.74 65.11-23.76 75.39 4.16" class="ag" data-name="Path"/><circle id="f" cx="198.38" cy="232.09" r="21.25" data-name="Oval" style="fill:url(#e)"/><path id="g" d="M187.76 231.71c0 14.7 21.26 14.7 21.26 0 0-13.64-21.26-13.64-21.26 0" class="ad" data-name="Path"/><path id="h" d="M184.53 225.75c0 6.19 8.92 6.19 8.92 0 0-5.7-8.92-5.7-8.92 0" class="ah" data-name="Path"/><path id="i" d="M235.2 233.33c-8.64-27.73-67.48-23.64-75.48-4.98 2.96-23.88 68.13-30.2 75.48 4.98" class="ai" data-name="Path"/><path id="j" d="M276.88 232.51c-.79 6.22 3.43 13.58 15.11 19.1 7.42 3.52 22.85 7.65 43.14-.91 9.1-3.81 17.95-15.75 17.15-22.35-10.98-20.74-65.1-23.76-75.4 4.16" class="ag" data-name="Path"/><circle id="l" cx="313.13" cy="232.09" r="21.25" data-name="Oval" style="fill:url(#k)"/><path id="m" d="M302.51 231.71c0 14.7 21.25 14.7 21.25 0 0-13.64-21.25-13.64-21.25 0" class="ad" data-name="Path"/><path id="n" d="M299.26 225.75c0 6.19 8.92 6.19 8.92 0 0-5.7-8.92-5.7-8.92 0" class="ah" data-name="Path"/><path id="o" d="M276.8 233.33c8.62-27.72 67.43-23.75 75.48-4.98-2.99-23.88-68.14-30.2-75.48 4.98" class="ai" data-name="Path"/><path d="M361.68 67.27c10.73-15.32-80.1-47.63-165.87-25.8C110.15 61.08 78.93 189.43 78.93 273.36c7.66 6.08 37.51-9.08 46.22-19.05 3.55-14.7 9.15-29.81 14.37-45.46 64.33-37.25 137.13-46.02 187.66-90.6-6.47 19.41 27.78 43.9 45.3 90.6 5.67 15.13 10.75 30.32 14.35 45.46 14.28 13.13 25.72 19.35 46.23 19.05 0-70.98-37.04-216.01-71.39-206.09Z" style="fill:url(#p)"/><path d="M94.37 260.6c59.25-78.9 234.13-73.55 267.31-193.33C297.25 167.8 110.55 184.75 94.37 260.6" class="z"/><path d="M441.42 197.01c1.5-8.1 2.3-16.38 2.3-24.83 0-87.66-84.05-158.72-187.73-158.72S68.27 84.51 68.27 172.18c0 8.45.8 16.73 2.3 24.83 29.78-117.95 341.09-117.95 370.85 0" style="fill:url(#q)"/><path d="M256 0C142.9 0 51.2 91.68 51.2 204.78s91.7 204.8 204.8 204.8 204.8-91.7 204.8-204.8S369.09 0 256 0m0 388.24c-101.31 0-183.46-82.15-183.46-183.46S154.68 21.32 256 21.32s183.46 82.13 183.46 183.46S357.33 388.24 256 388.24" class="y"/><path d="m371.35 357.57-6.05-26.24 17.59-17.23h32.8z" class="y"/><path d="M310.5 356.51c-6.8 0-6.8-8.27 0-8.27 50.8 0 63.07-21.33 84.93-28.27 5.68-1.8 10.53 12.54 1.07 18.78-3.2 2.11-35.86 17.76-86 17.76" class="am"/><path d="M72.71 200.2c-.14 2.9-.21 5.8-.21 8.73 0 101.61 82.15 179.32 183.5 179.32s183.5-77.69 183.5-179.32c0-2.94-.09-5.84-.21-8.73-31.15-114.03-335.41-114.03-366.57 0Z" style="fill:url(#r);isolation:isolate;opacity:.8"/></svg>