<svg xmlns="http://www.w3.org/2000/svg" id="a" data-name="Layer 1" viewBox="0 0 512 566.89"><defs><linearGradient id="i" x1="-618.56" x2="-618.56" y1="413.86" y2="406.31" gradientTransform="translate(4252.89 -2299.49)scale(6.57)" gradientUnits="userSpaceOnUse"><stop offset="0" stop-color="#a6694a"/><stop offset="1" stop-color="#4f2a1e"/></linearGradient><linearGradient id="p" x1="-600.54" x2="-600.54" y1="413.86" y2="406.31" gradientTransform="translate(4268.19 -2299.49)scale(6.57)" gradientUnits="userSpaceOnUse"><stop offset="0" stop-color="#a6694a"/><stop offset="1" stop-color="#4f2a1e"/></linearGradient><linearGradient id="w" x1="257.6" x2="257.6" y1="191.49" y2="442.89" gradientTransform="matrix(1 0 0 -1 0 570.89)" gradientUnits="userSpaceOnUse"><stop offset="0" stop-color="#473834"/><stop offset=".27" stop-color="#594640"/><stop offset=".72" stop-color="#715950"/><stop offset="1" stop-color="#7a6056"/></linearGradient><style>.aa{fill:#473834}.ad{fill:#ffc940}.ae{fill:#1a1626}.af{fill:#f5bb51}.ag{fill:#fff}.ah{fill:#8e3ed6}.ai{fill:#ab968c}.aj{fill:#f0a429}</style></defs><path d="M324.59.72c36.54 9.8-19.8 85.36-22.67 84.59-2.9-.77-13.92-94.4 22.67-84.59m129.25 74.11c21.68 30.99-70.05 52.66-71.76 50.21-1.73-2.46 50.02-81.26 71.76-50.21M187.46.72c36.52-9.78 25.52 83.82 22.65 84.59-2.9.79-59.26-74.79-22.65-84.59M58.18 74.79c21.7-30.99 73.45 47.82 71.74 50.25-1.72 2.47-93.47-19.21-71.74-50.25" style="fill:#0fb4d4"/><path d="M337.4 145.93c-42.47 21.02 80.49 240.06 98.48 168.83 76.12-81.09-9.44-212.92-98.48-168.83" class="aa"/><path d="M316.83 137.51c-41.67 22.59 69.08 134.29 87.07 63.05 10.11-40.04-60.64-77.51-87.07-63.05" class="ah"/><path d="M422.46 298.53c-68.36-32.32-264.57-32.32-332.92 0C45.2 319.49 6.8 498.18 96.88 545.86h318.24c90.07-47.68 51.68-226.38 7.33-247.33Z" style="fill:#732eb0"/><path d="M63.8 459.49c-7.53 2.94 9.33-18.23 42.41-16.18 48.43-75.71 30.36-174.71-19.9-142.99-48.34 30.49-98.45 173.56-83.68 205.04 20.22 43.11 128.59 51.15 128.59 51.15s4.18-34.08 39.89-56.41c-64.61-37.38-60.26-59-107.31-40.6Z" class="ah"/><path d="M248.16 534.51c13.81-9.43-40.93-36.33-72.13-36.33-46.09 0-92.31 69.41-14 60.02 34.31 3.71 52.12 16.9 53.51 1.12 0 0 7.02-1.2 14.61 2.77 7.82 4.14 18.04-5.3 11.37-11.05 16.57.63 15.19-13.8 6.64-16.53" class="af"/><path d="M180.42 541.31s49.72 9.61 32.64 24.04c7.75-11.69-32.64-24.04-32.64-24.04m10.28-11.86s67.77 16.32 50.7 30.77c7.74-11.69-50.7-30.77-50.7-30.77m9.33-14.07s68.14 12.36 52.97 31.63c6.64-15.8-52.97-31.63-52.97-31.63" class="aj"/><path d="M448.21 459.49c7.53 2.94-9.33-18.23-42.41-16.18-48.43-75.71-30.36-174.71 19.9-142.99 48.34 30.48 98.45 173.56 83.68 205.04-20.22 43.11-128.59 51.15-128.59 51.15s-4.18-34.08-39.89-56.41c64.61-37.38 60.27-59 107.32-40.6Z" class="ah"/><path d="M263.85 534.51c-13.82-9.43 40.93-36.33 72.13-36.33 46.09 0 92.31 69.41 14 60.02-34.31 3.71-52.12 16.9-53.51 1.12 0 0-7.02-1.2-14.61 2.77-7.84 4.14-18.04-5.3-11.37-11.05-16.57.63-15.21-13.8-6.64-16.53" class="af"/><path d="M331.59 541.31s-49.72 9.61-32.64 24.04c-7.75-11.69 32.64-24.04 32.64-24.04m-10.29-11.86s-67.77 16.32-50.72 30.77c-7.74-11.69 50.72-30.77 50.72-30.77m-9.32-14.07s-68.16 12.36-52.97 31.63c-6.64-15.8 52.97-31.63 52.97-31.63" class="aj"/><path id="b" d="M80.56 330.21c21.49.66 43.07 63.84 31.4 81.88-1.65 2.51-12.22 7.18-21.81-7.2-5.3-7.95-18.94-13.86-24.62-30.67-7.31-21.55-6.31-44.67 15.03-44.02Z" class="ad" data-name="Path"/><path id="c" d="M83.4 353.25c5.68.98 12.39 7.44 16.81 18.7-19.69-1.91-12.29 24.19 4.59 23.38.13 2.66.18 5.43.04 8.34-9.03-9.03-16.9-4.5-26.47-18.25-8.62-12.38-9.03-34.65 5.04-32.17Z" class="aj" data-name="Path"/><path id="d" d="M431.44 330.21c-21.47.66-43.09 63.84-31.38 81.88 1.65 2.51 12.22 7.18 21.81-7.2 5.3-7.93 18.93-13.86 24.6-30.67 7.31-21.55 6.33-44.69-15.03-44.02Z" class="ad" data-name="Path"/><path id="e" d="M411.84 371.91c4.39-11.24 11.09-17.7 16.77-18.68 14.07-2.47 13.66 19.8 5.06 32.18-9.55 13.75-17.43 9.22-26.48 18.25-.13-2.93-.07-5.7.05-8.36 16.7.66 24.03-25.13 4.6-23.4Z" class="aj" data-name="Path"/><path d="M256.03 166.81c-112.95 0-167.38 85.45-160.56 204.28 4.93 86.16 115.86 122.63 160.54 122.63s155.64-36.46 160.54-122.63c6.84-118.83-47.6-204.28-160.53-204.28Z" class="ad"/><path id="f" d="M282.34 453.43c-2.79-1.95-9.34 1.03-26.32 1.03s-23.55-2.98-26.36-1.03c-3.32 2.34 2 12.95 26.36 12.95s29.68-10.61 26.32-12.95" class="aj" data-name="Path"/><path id="g" d="M231.66 395.28c.93 7.25-3.99 15.84-17.61 22.27-8.64 4.11-26.64 8.93-50.29-1.05-10.59-4.46-20.91-18.4-19.99-26.08 12.81-24.16 75.88-27.69 87.88 4.86Z" class="ag" data-name="Path"/><g id="h" data-name="eye"><circle id="j" cx="188.87" cy="394.81" r="24.79" data-name="Oval" style="fill:url(#i)"/><path id="k" d="M176.48 394.34c0 17.14 24.77 17.14 24.77 0 0-15.91-24.77-15.91-24.77 0" class="ae" data-name="Path"/><path id="l" d="M172.73 387.41c0 7.18 10.38 7.18 10.38 0 0-6.67-10.38-6.67-10.38 0" class="ai" data-name="Path"/></g><path id="m" d="M231.78 396.25c-10.08-32.34-78.67-27.58-88-5.82 3.45-27.84 79.43-35.19 88 5.82" class="aj" data-name="Path"/><path id="n" d="M280.37 395.28c-.93 7.25 3.99 15.84 17.61 22.27 8.64 4.11 26.62 8.93 50.29-1.05 10.59-4.46 20.91-18.4 19.99-26.08-12.79-24.16-75.9-27.69-87.88 4.86Z" class="ag" data-name="Path"/><g id="o" data-name="eye-copy"><circle id="q" cx="322.6" cy="394.81" r="24.79" data-name="Oval" style="fill:url(#p)"/><path id="r" d="M310.22 394.34c0 17.14 24.79 17.14 24.79 0 0-15.91-24.79-15.91-24.79 0" class="ae" data-name="Path"/><path id="s" d="M306.46 387.41c0 7.18 10.38 7.18 10.38 0 0-6.67-10.38-6.67-10.38 0" class="ai" data-name="Path"/></g><path id="t" d="M280.24 396.25c10.06-32.34 78.61-27.69 88-5.82-3.47-27.84-79.41-35.19-88 5.82" class="aj" data-name="Path"/><path id="u" d="M369.85 356.68c-21.32-13.47-64.25-17.35-81.05-10.48-3.59 1.33-2.41 12.57.58 11.75 23.18-6.93 59.18-4.32 79.12 6.91 2.68 1.45 4.61-6.31 1.35-8.18" class="aj" data-name="Path"/><path id="v" d="M142.15 356.68c21.32-13.47 64.23-17.35 81.07-10.48 3.57 1.33 2.41 12.57-.58 11.75-23.21-6.93-59.18-4.32-79.16 6.93-2.64 1.44-4.57-6.33-1.33-8.2" class="aj" data-name="Path"/><path d="M256.22 127.99c-196.33 0-198.99 210.68-153.45 251.41 32.73-72.49 165.06-50.42 215.58-122.02 29.09 71.63 92.97 67.82 91.18 121.95 34.79-31.12 50.55-171.47-44.78-202.87-17.36-34.71-62.18-48.47-108.53-48.47" style="fill:url(#w)"/><path d="M102.77 379.39c45.01-85.16 242-32.55 261.97-202.94-39.84 152.51-237.53 93.85-261.97 202.94" class="aa"/><path d="M322.28 256.85c-3.43 1.95-6.86 3.9-10.28 5.87 37.32 70.08 95.7 70.86 97.53 116.6 4.75-50.71-44.2-53.54-87.25-122.47" class="aa"/></svg>