<svg xmlns="http://www.w3.org/2000/svg" data-name="Layer 1" style="" viewBox="0 0 512 661.36"><g><defs><linearGradient id="1770301554980-6567213_b" x1="417.77" x2="417.77" y1="116.05" y2="600.13" gradientTransform="matrix(1 0 0 -1 0 665.36)" gradientUnits="userSpaceOnUse"><stop offset=".05" stop-color="#473834"></stop><stop offset=".23" stop-color="#594640"></stop><stop offset=".52" stop-color="#715950"></stop><stop offset=".7" stop-color="#7a6056"></stop></linearGradient><linearGradient id="1770301554980-6567213_c" x1="1176.59" x2="1176.59" y1="116.05" y2="600.13" gradientTransform="rotate(180 635.405 332.68)" gradientUnits="userSpaceOnUse"><stop offset=".05" stop-color="#473834"></stop><stop offset=".23" stop-color="#594640"></stop><stop offset=".52" stop-color="#715950"></stop><stop offset=".7" stop-color="#7a6056"></stop></linearGradient><linearGradient id="1770301554980-6567213_d" x1="256.01" x2="256.01" y1="116.02" y2="600.14" gradientTransform="matrix(1 0 0 -1 0 665.36)" gradientUnits="userSpaceOnUse"><stop offset=".05" stop-color="#473834"></stop><stop offset=".23" stop-color="#594640"></stop><stop offset=".52" stop-color="#715950"></stop><stop offset=".7" stop-color="#7a6056"></stop></linearGradient></defs><path d="M336.87 541.25c161.79-64.7 145.62-218.4 145.62-218.4H29.53s-16.19 153.69 145.58 218.4c0 0 32.37 8.11 80.87 8.11s80.9-8.11 80.9-8.11Z" class="h" fill="#473834"></path><path d="M419.56 339.25c16.54 69.69 7.81 138.67-82.69 202.01 97.09-16.17 161.79-107.83 161.79-178.17z" fill="url(#1770301554980-6567213_b)"></path><path d="M92.46 339.25c-16.57 69.69-7.83 138.67 82.67 202.01C78.04 525.09 13.34 433.42 13.34 363.08l79.13-23.83Z" fill="url(#1770301554980-6567213_c)"></path><path d="M45.38 562.35C71 548.6 158.72 518.74 158.72 518.74l194.33-.37s88.69 30.14 114.15 43.94c37.02 19.98 44.8 47.25 44.8 73.02 0 34.71-512 34.71-512 0 0-25.81 8.26-53.09 45.38-72.98" fill="#8e3ed6"></path><path d="m92.44 655.84-7.11-.7c0-53.71 7.11-53 7.11.7m334.22-.7-7.09.7c0-53.71 7.09-54.41 7.09-.7m-267.94-136.4c0 81.79 194.33 81.42 194.33-.37l-17.48-6.04h-158.3l-18.54 6.41Z" fill="#732eb0"></path><path d="M174.08 514.61c0 64.02 163.83 64.02 163.83 0v-70.84H174.08z" class="m" fill="#f5bb51"></path><path d="M256 88.29c-117.38 0-173.92 95.58-166.86 218.5 1.44 24.7 8.31 60.35 16.79 90.88C123.54 461.15 216.44 525.09 256 525.09s132.44-63.94 150.06-127.41c8.48-30.52 15.35-66.17 16.81-90.88C429.92 183.88 373.42 88.29 256 88.29" fill="#ffc940"></path><path d="M255.98 425.29c-27.5-12.11-27.71-.48-70.19 2.36 15.94 18.1 27.69 41.38 70.19 41.38 48.79 0 57.02-26.44 70.23-41.38-42.5-2.84-42.69-14.46-70.23-2.36" fill="#d47706"></path><path d="M198.54 432.17c27.73 28.85 87.52 28.46 114.91.02-42.68 4.58-72.2 4.58-114.91-.02" fill="#fff"></path><path d="M380.73 265.9c-25.5-15.19-71.25-17.07-89.33-6.71-3.83 2.1-2.82 13.09.5 11.71 25.81-10.75 65.16-11.3 89.4 1.14 3.23 1.64 3.32-3.94-.57-6.14m-249.48 0c25.5-15.19 71.25-17.07 89.38-6.71 3.85 2.1 2.82 13.09-.52 11.71-25.83-10.75-65.12-11.32-89.38 1.14-3.27 1.64-3.34-3.94.52-6.14" fill="#966f42"></path><path d="M282.4 386.29c-2.82-1.96-9.35 1.05-26.42 1.05s-23.58-3-26.38-1.05c-3.35 2.36 1.98 12.98 26.38 12.98s29.77-10.62 26.42-12.98" fill="#f0a429"></path><path d="M388.13 105.44c13.4-19.13-100.15-59.54-207.34-32.25C73.71 97.71 13.33 258.14 13.33 363.08c9.58 7.61 68.22-11.35 79.13-23.83 4.44-18.36 11.41-37.25 17.94-56.83 80.42-46.56 171.41-57.53 234.58-113.25-8.09 24.27 34.73 54.88 56.63 113.25 7.1 18.93 13.46 37.92 17.96 56.83 17.86 16.44 53.48 24.19 79.1 23.83-.01-88.75-67.64-270.02-110.55-257.64Z" fill="url(#1770301554980-6567213_d)"></path><path d="M32.63 347.13c74.06-98.65 314.01-91.96 355.5-241.69C307.56 231.1 52.85 252.31 32.63 347.13" class="h" fill="#473834"></path><path d="M222.34 307.85c-21.5 13.71-54.88 13.71-76.37 0-3.3-2.1-5.25.17-4.21 1.94 20.87 35.39 63.89 35.39 84.77 0 1.07-1.77-.92-4.04-4.18-1.94Zm143.72 0c-21.5 13.71-54.88 13.71-76.37 0-3.3-2.1-5.23.17-4.21 1.94 20.87 35.39 63.89 35.39 84.77 0 1.08-1.77-.91-4.04-4.18-1.94Z" fill="#45332c"></path><path d="M195.5 129.62c-27.63 2.04-148.19-63.5-148.61 31.52-.13 30.02 36.19 90.52 37.73 108.27 2.67 30.67 35.96 30.27 34.69 8.21-4.22-72.44-20.57-100.98 3.35-122.21 5.29-4.7 50.14 8.94 69.96-.67 13.72-6.66 11.63-25.74 2.88-25.12" class="i" style="isolation:isolate" opacity=".3"></path><path d="M194.38 127.79c-27.63 2.04-44.44-24.25-55.27-41.6-7.52-12.04-34.89-21.86-42.14-39.67C88.83 26.52 86.93 0 86.93 0H21.87s17.44 60.59 17.02 155.58c-.13 30.02 15.65 78.71 38.71 100.33 0 0 2.67 8.57 7.39 21.25 8.83 23.69 34.62 17.66 29.73-3.89-13.07-57.42-23.91-109.69 0-130.91 5.29-4.68 56.65 17.07 76.46 7.43 13.72-6.65 11.95-22.62 3.2-22.01Z" class="m" fill="#f5bb51"></path><path d="M316.48 129.62c27.65 2.04 148.21-63.5 148.61 31.52.15 30.02-36.17 90.52-37.71 108.27-2.67 30.67-35.98 30.27-34.69 8.21 4.21-72.44 20.57-100.98-3.35-122.21-5.29-4.7-50.17 8.94-69.96-.67-13.72-6.66-11.63-25.74-2.9-25.12" class="i" style="isolation:isolate" opacity=".3"></path><path d="M317.6 127.79c27.65 2.04 44.46-24.25 55.3-41.6 7.5-12.04 34.89-21.86 42.14-39.67C423.17 26.52 425.07 0 425.07 0h65.07s-17.44 60.59-17.05 155.58c.15 30.02-15.63 78.71-38.69 100.33 0 0-2.67 8.57-7.39 21.25-8.83 23.69-34.65 17.66-29.73-3.89 13.05-57.42 23.91-109.69 0-130.91-5.29-4.68-56.67 17.07-76.46 7.43-13.72-6.65-11.95-22.62-3.22-22.01Z" class="m" fill="#f5bb51"></path></g></svg>
