<svg xmlns="http://www.w3.org/2000/svg" data-name="Layer 1" style="" viewBox="0 0 512 548.59"><g><defs><linearGradient id="1770301554973-184635_b" x1="376.37" x2="376.37" y1="98.02" y2="512.96" gradientTransform="matrix(1 0 0 -1 0 550.59)" gradientUnits="userSpaceOnUse"><stop offset=".05" stop-color="#473834"></stop><stop offset=".23" stop-color="#594640"></stop><stop offset=".52" stop-color="#715950"></stop><stop offset=".7" stop-color="#7a6056"></stop></linearGradient><linearGradient id="1770301554973-184635_c" x1="1153.48" x2="1153.48" y1="98.02" y2="512.96" gradientTransform="rotate(180 635.405 275.295)" gradientUnits="userSpaceOnUse"><stop offset=".05" stop-color="#473834"></stop><stop offset=".23" stop-color="#594640"></stop><stop offset=".52" stop-color="#715950"></stop><stop offset=".7" stop-color="#7a6056"></stop></linearGradient><linearGradient id="1770301554973-184635_e" x1="-599.06" x2="-599.06" y1="382.83" y2="375" gradientTransform="matrix(6.57 0 0 6.57 4252.89 -2240.79)" gradientUnits="userSpaceOnUse"><stop offset="0" stop-color="#a6694a"></stop><stop offset="1" stop-color="#4f2a1e"></stop></linearGradient><linearGradient id="1770301554973-184635_j" x1="246.86" x2="246.86" y1="98.02" y2="512.98" gradientTransform="matrix(1 0 0 -1 0 550.59)" gradientUnits="userSpaceOnUse"><stop offset=".05" stop-color="#473834"></stop><stop offset=".23" stop-color="#594640"></stop><stop offset=".52" stop-color="#715950"></stop><stop offset=".7" stop-color="#7a6056"></stop></linearGradient><linearGradient id="1770301554973-184635_k" x1="332.17" x2="332.17" y1="224.34" y2="385.07" gradientTransform="matrix(1 0 0 -1 0 550.59)" gradientUnits="userSpaceOnUse"><stop offset="0" stop-color="#fff" stop-opacity="0"></stop><stop offset="1" stop-color="#fff"></stop></linearGradient></defs><path d="M316.18 445.66c138.68-55.46 106.51-187.22 106.51-187.22H71S38.85 390.2 177.5 445.66c0 0 27.75 6.93 69.34 6.93s69.34-6.93 69.34-6.93" class="p" fill="#473834"></path><path d="M387.04 272.51c10.72 45.09-14.2 133.49-70.86 173.15 83.22-13.88 120.39-92.44 120.39-152.73l-49.54-20.42Z" fill="url(#1770301554973-184635_b)"></path><path d="M106.66 272.51C95.94 317.6 120.88 406 177.54 445.66 94.32 431.79 57.15 353.22 57.15 292.93l49.52-20.42Z" fill="url(#1770301554973-184635_c)"></path><path d="M66.32 463.72c21.96-11.78 113.65-41.54 113.65-41.54l133.6-.34s92.49 30.03 114.31 41.85c31.73 17.12 38.4 40.49 38.4 62.58 0 29.75-438.86 29.75-438.86 0 0-22.12 7.08-45.49 38.89-62.56Z" class="ad" fill="#302c3b"></path><path d="M170.53 418.62h152.65l-12.72 129.97h-128z" fill="#e6ebef"></path><path d="m164.57 438.41 82.29 44.18 82.28-44.18v-73.46H164.57z" fill="#f5bb51"></path><path d="M264.45 510.59c-4.74-12.74-30.43-12.74-35.16 0-3.77 10.1-6.93 23.4-9.57 38h54.29c-2.64-14.61-5.81-27.89-9.55-38Z" class="t" fill="#1a1626"></path><path d="M263.09 510.59c-3.66 4.61-29.21 5.11-32.45 0-7.68-12.11-20.29-36.07-20.29-36.07s31.84-16.29 36.51-16.29 36.52 16.28 36.52 16.28-11.47 24.99-20.29 36.08" class="ad" fill="#302c3b"></path><path d="m329.14 410.62 13.64 10.34s-9.22 26.96-22.91 93.17l-73.01-55.91s58.84 1.01 82.29-47.61Zm-164.57 0-13.62 10.34s9.2 26.96 22.89 93.17l73.01-55.91s-58.84 1.01-82.29-47.61Z" class="w" fill="#fff"></path><path d="M335.01 546.9s28.94-39.13 46.79-78.28l-24.19-38.84 28.43-14.54s-23.72-37.52-56.9-50.3c0 0-6.39 114.66-38.78 183.64zm-176.27 0s-28.94-39.13-46.79-78.28l24.19-38.84-28.43-14.54s23.72-37.52 56.9-50.3c0 0 6.39 114.66 38.78 183.64z" fill="#404754"></path><path d="M246.86 57.38c-100.63 0-149.09 81.95-143.04 187.31 1.25 21.16 7.14 51.72 14.41 77.9 15.09 54.41 94.72 109.2 128.63 109.2s113.52-54.78 128.62-109.19c7.27-26.18 13.16-56.74 14.39-77.9 6.06-105.37-42.39-187.32-143.01-187.32" class="s" fill="#ffc940"></path><path d="M246.84 346.27c-23.57-10.38-23.77-.43-60.16 2.02 13.66 15.52 23.72 35.47 60.14 35.47 41.82 0 48.9-22.67 60.21-35.47-36.44-2.45-36.59-12.4-60.2-2.02Z" fill="#d47706"></path><path d="M197.6 352.15c23.77 24.73 75.02 24.41 98.48.02-36.58 3.92-61.89 3.92-98.48-.02" class="w" fill="#fff"></path><path d="M353.76 209.64c-21.86-13.04-61.07-14.63-76.59-5.75-3.28 1.78-2.4 11.2.45 10.02 22.13-9.2 55.84-9.66 76.61 1 2.79 1.4 2.86-3.37-.47-5.27m-213.83 0c21.86-13.04 61.06-14.63 76.61-5.75 3.28 1.78 2.41 11.2-.45 10.02-22.14-9.2-55.82-9.68-76.63 1-2.79 1.4-2.84-3.37.47-5.27" fill="#966f42"></path><path d="M269.47 312.82c-2.4-1.68-8.02.91-22.63.91s-20.21-2.59-22.61-.91c-2.87 2.02 1.68 11.15 22.61 11.15s25.52-9.11 22.63-11.15" class="ac" fill="#f0a429"></path><path id="1770301554973-184635_d" d="M273.14 249.21c-.95 7.5 4.15 16.43 18.29 23.1 8.97 4.25 27.65 9.25 52.21-1.11 11.02-4.63 21.72-19.07 20.76-27.05-13.3-25.09-78.8-28.76-91.26 5.06" class="w" data-name="Path" fill="#fff"></path><circle id="1770301554973-184635_f" cx="317.02" cy="248.69" r="25.72" data-name="Oval" fill="url(#1770301554973-184635_e)"></circle><path id="1770301554973-184635_g" d="M304.17 248.23c0 17.78 25.72 17.78 25.72 0 0-16.52-25.72-16.52-25.72 0" class="t" data-name="Path" fill="#1a1626"></path><path id="1770301554973-184635_h" d="M300.23 241.01c0 7.48 10.8 7.48 10.8 0 0-6.91-10.8-6.91-10.8 0" data-name="Path" fill="#ab968c"></path><path id="1770301554973-184635_i" d="M273.04 250.19c10.43-33.55 81.62-28.75 91.36-6.03-3.61-28.91-82.46-36.55-91.36 6.03" data-name="Path" fill="#45332c"></path><path d="M360.09 72.09c11.5-16.41-85.82-51.04-177.72-27.64C90.58 65.47 57.14 203 57.14 292.93c8.21 6.52 40.19-9.74 49.52-20.42 3.8-15.75 9.8-31.95 15.4-48.71 68.93-39.92 146.93-49.32 201.07-97.08-6.93 20.8 29.77 47.04 48.54 97.08 6.07 16.21 11.52 32.48 15.38 48.71 15.31 14.08 27.56 20.74 49.54 20.42 0-76.06-39.69-231.46-76.49-220.84Z" fill="url(#1770301554973-184635_j)"></path><path d="M73.68 279.25c63.48-84.53 250.86-78.8 286.41-207.15C291.05 179.81 91.02 197.98 73.68 279.25" class="p" fill="#473834"></path><path d="M498 438.57c5.64 16.43 14 55.94 14 73.75 0 21.34-85.36 27.43-85.36 27.43s-9.86-86.52 5.27-93.77c30.59-14.64 64.05-13.33 66.09-7.41" fill="#3a3d4a"></path><path d="M379.32 346.02c-7.98-11.69 23.5-20.32 28.7.21 2.09 8.3 88.05 6.11 94.91 18.38 12.36 22.03-15.98 65.52-11.82 74.47 4.14 8.95-57.82 23-56.6 11.75 3.99-36.87-14.48-22.93-22.39-53.94-5.97-23.33-22.13-35.22-32.8-50.86Z" class="s" fill="#ffc940"></path><circle cx="332.17" cy="245.89" r="80.37" style="isolation:isolate" fill="url(#1770301554973-184635_k)" opacity=".65"></circle><path d="m404.27 338.09 20.07-20.04-21.48-21.47-20.06 20.08z" class="x" fill="#bec3cf"></path><path d="M395.29 309.06c34.89-34.9 34.88-91.42 0-126.34-34.87-34.86-91.43-34.87-126.29 0-34.88 34.88-34.88 91.47 0 126.35 34.86 34.87 91.44 34.87 126.28-.02ZM280.25 297.8c-28.69-28.63-28.68-75.18.02-103.84 28.65-28.69 75.14-28.67 103.79 0 28.71 28.68 28.71 75.2 0 103.86-28.65 28.68-75.15 28.68-103.81-.02" class="x" fill="#bec3cf"></path><path d="m399.01 339.566 26.775-26.766 72.876 72.9-26.776 26.767z" class="ad" fill="#302c3b"></path><path d="M469.34 417.68c4.39 4.39 38.98-30.14 34.55-34.57l-2.69-2.68c-4.42-4.43-38.99 30.13-34.57 34.53z" class="x" fill="#bec3cf"></path><path d="M454.5 319.59c16.03-.58 19.81 12.41 19.81 12.41 14.53 1.61 20.01 15.68 20.01 15.68 27.94 14.2-12.93 72.27-22.2 42.53-11.82 14.65-28.75 4.59-18.72-12.46-12.9 17.52-27.59-1.95-20.28-12.76 2.75-4.03 4.72-9.05 7.94-13.68-13.37 17.59-26.38-.59-21.91-11.62 4.96-12.21 12.47-23.31 16.34-25.91 7.7-5.18 16.93 2.05 19.01 5.81" class="s" fill="#ffc940"></path><path d="M422.29 355.11c13.98 15.91 28.34-18.18 28.8-24.86-9.07 22.63-22.78 30.35-28.8 24.86m12.6 26.05c13.99 15.93 30.97-17.52 34.93-37.13-12.11 35.12-28.91 42.65-34.93 37.13m18.5 13.76c13.98 15.93 32.02-17.75 35.98-37.36-12.11 35.11-29.96 42.88-35.98 37.36" class="ac" fill="#f0a429"></path><path d="M493.71 169.53c0 19.63-110.55 40.38-246.86 40.38S0 189.16 0 169.53s110.51-35.54 246.86-35.54 246.86 15.91 246.86 35.54Z" class="ad" fill="#302c3b"></path><path d="M411.43 137.88c0 37.59-329.14 37.59-329.14 0 0-201.25 73.67-122.84 164.57-122.84s164.57-78.41 164.57 122.84" class="ad" fill="#302c3b"></path><path d="M246.86 27.99c-45.62 0-124.61-30.88-97.93-5.73 35.03 32.98 162.09 31.79 195.84 0 26.71-25.14-52.31 5.73-97.91 5.73M82.29 121.83v35.56c64.3 23.41 264.84 23.41 329.14 0v-35.56c-64.24 23.42-264.92 23.42-329.14 0" class="t" fill="#1a1626"></path><path d="M153.72 255.78c15.22-8.64 42.6-9.22 59.04 0 3.79 2.14 10.1.66 8.69-1.84-14.36-25.33-62.1-25.29-76.43 0-1.42 2.5 4.9 4 8.69 1.84Z" fill="#a6772c"></path></g></svg>
