<svg xmlns="http://www.w3.org/2000/svg" data-name="Layer 1" style="" viewBox="0 0 512 548.55"><g><defs><linearGradient id="1770301554999-1075981_b" x1="366.52" x2="366.52" y1="362.15" y2="495.15" gradientTransform="matrix(1 0 0 -1 0 550.55)" gradientUnits="userSpaceOnUse"><stop offset=".05" stop-color="#473834"></stop><stop offset=".23" stop-color="#594640"></stop><stop offset=".52" stop-color="#715950"></stop><stop offset=".7" stop-color="#7a6056"></stop></linearGradient><linearGradient id="1770301554999-1075981_c" x1="993.22" x2="993.22" y1="362.15" y2="495.15" gradientTransform="rotate(180 635.405 275.275)" gradientUnits="userSpaceOnUse"><stop offset=".05" stop-color="#473834"></stop><stop offset=".23" stop-color="#594640"></stop><stop offset=".52" stop-color="#715950"></stop><stop offset=".7" stop-color="#7a6056"></stop></linearGradient><linearGradient id="1770301554999-1075981_e" x1="-598.6" x2="-598.6" y1="360.88" y2="358.66" gradientTransform="matrix(6.57 0 0 6.57 4235.16 -2240.67)" gradientUnits="userSpaceOnUse"><stop offset="0" stop-color="#a6694a"></stop><stop offset="1" stop-color="#4f2a1e"></stop></linearGradient><linearGradient id="1770301554999-1075981_k" x1="-595.3" x2="-595.3" y1="360.88" y2="358.66" gradientTransform="matrix(6.57 0 0 6.57 4252.89 -2240.67)" gradientUnits="userSpaceOnUse"><stop offset="0" stop-color="#a6694a"></stop><stop offset="1" stop-color="#4f2a1e"></stop></linearGradient><linearGradient id="1770301554999-1075981_p" x1="322.05" x2="322.05" y1="362.14" y2="495.17" gradientTransform="matrix(1 0 0 -1 0 550.55)" gradientUnits="userSpaceOnUse"><stop offset=".05" stop-color="#473834"></stop><stop offset=".23" stop-color="#594640"></stop><stop offset=".52" stop-color="#715950"></stop><stop offset=".7" stop-color="#7a6056"></stop></linearGradient><linearGradient id="1770301554999-1075981_q" x1="130.14" x2="130.14" y1="362.15" y2="495.15" gradientTransform="matrix(1 0 0 -1 0 550.55)" gradientUnits="userSpaceOnUse"><stop offset=".05" stop-color="#473834"></stop><stop offset=".23" stop-color="#594640"></stop><stop offset=".52" stop-color="#715950"></stop><stop offset=".7" stop-color="#7a6056"></stop></linearGradient><linearGradient id="1770301554999-1075981_r" x1="1229.6" x2="1229.6" y1="362.15" y2="495.15" gradientTransform="rotate(180 635.405 275.275)" gradientUnits="userSpaceOnUse"><stop offset=".05" stop-color="#473834"></stop><stop offset=".23" stop-color="#594640"></stop><stop offset=".52" stop-color="#715950"></stop><stop offset=".7" stop-color="#7a6056"></stop></linearGradient><linearGradient id="1770301554999-1075981_t" x1="-634.58" x2="-634.58" y1="360.88" y2="358.66" gradientTransform="matrix(6.57 0 0 6.57 4235.16 -2240.67)" gradientUnits="userSpaceOnUse"><stop offset="0" stop-color="#a6694a"></stop><stop offset="1" stop-color="#4f2a1e"></stop></linearGradient><linearGradient id="1770301554999-1075981_z" x1="-631.28" x2="-631.28" y1="360.88" y2="358.66" gradientTransform="matrix(6.57 0 0 6.57 4252.89 -2240.67)" gradientUnits="userSpaceOnUse"><stop offset="0" stop-color="#a6694a"></stop><stop offset="1" stop-color="#4f2a1e"></stop></linearGradient><linearGradient id="1770301554999-1075981_ae" x1="85.69" x2="85.69" y1="362.14" y2="495.17" gradientTransform="matrix(1 0 0 -1 0 550.55)" gradientUnits="userSpaceOnUse"><stop offset=".05" stop-color="#473834"></stop><stop offset=".23" stop-color="#594640"></stop><stop offset=".52" stop-color="#715950"></stop><stop offset=".7" stop-color="#7a6056"></stop></linearGradient></defs><path d="M344.28 186.19c44.46-17.76 40.02-60 40.02-60H259.82s-4.46 42.23 40 60c0 0 8.9 2.23 22.23 2.23s22.23-2.23 22.23-2.23" class="ap" fill="#473834"></path><path d="M367 130.69c4.55 19.14 2.16 38.09-22.71 55.5 26.68-4.43 44.46-29.62 44.46-48.96z" fill="url(#1770301554999-1075981_b)"></path><path d="M277.11 130.69c-4.55 19.14-2.14 38.09 22.73 55.5-26.68-4.43-44.48-29.62-44.48-48.96z" fill="url(#1770301554999-1075981_c)"></path><path d="M470.51 463.24c-34.53-21.9-10.59-48.23 4.25-39 66.3 41.16 30.73 61.22-4.25 39m-142.87 84.38c-13.88-5.23 2.21-20.34-2.91-40.19-10.04-38.8 24.5-36.42 28.61-18 8.85 39.51-9.54 64.32-25.7 58.19" class="az" fill="#302c3b"></path><path d="M346.12 491.54c-2.51-48.05 9.98-54.87-8.05-86.87 9.43-28.29 4.64-44.36 4.64-44.36l-44.93-40.3s2.77 74.3 11.43 101.8c10.59 33.87 17.14 73.44 17.14 73.44.91 19.89 20.93 17.91 19.77-3.71m-80.38-239.76 11.22-20.72-19.95-18.39c-23.81 39.75-23.3 42.04-16.77 50l54.65 36.2-.15-23.5zm122.83-10.75-9.75-10.84 19.5-21.94c24.48 29.6 29.53 34.92 18.21 47.41l-49.87 35.11-12.52-17.48 34.42-32.26Z" class="at" fill="#f5bb51"></path><path d="M361.74 278.85c-9.33-6.86-10.14-42.06 1.7-56.37l16.19 10.79 22.13-24.3s-14.88-16.52-25.73-25.78c-19.28-16.47-79.77-13.19-97.68 1.8-10.93 9.14-26.66 32.93-26.66 32.93l24.82 16.15 3.57-4.66c17.7 50.14 4.89 69.66 17.89 95.06.18-9.82 15.93 40.07 50.71 40.07 19.37 0 67.32-45.93 13.05-85.68Z" class="az" fill="#302c3b"></path><path d="M475.96 435.58c-32.8-31.79-28.18-47.87-62.67-55.05-10.25-55.34-45.68-84.44-45.68-84.44-24.73 32.54-16.48 60.89-16.48 60.89s28 46.95 52.36 59.07c30 14.84 60.48 37.23 60.48 37.23 13.46 13.28 26.78-3.36 12-17.7Zm-173.2-251.7s6.07 8.3 19.28 8.3 19.3-8.3 19.3-8.3v-23.57h-38.59v23.57Z" class="at" fill="#f5bb51"></path><path d="M322.05 61.71c-32.25 0-47.81 26.27-45.86 60.05.39 6.8 2.29 16.58 4.63 24.98 4.84 17.44 30.35 35.02 41.23 35.02s36.41-17.57 41.25-35.02c2.32-8.39 4.21-18.18 4.63-24.98 1.92-33.78-13.61-60.05-45.88-60.05" class="ar" fill="#ffc940"></path><path d="M322.05 154.32c-7.55-3.3-7.62-.13-19.28.66 4.38 4.98 7.61 11.37 19.28 11.37 13.41 0 15.68-7.27 19.3-11.37-11.69-.79-11.73-3.96-19.3-.66" class="aq" fill="#d47706"></path><path d="M306.26 156.23c7.62 7.93 24.05 7.82 31.57 0-11.73 1.27-19.84 1.27-31.57 0" class="au" fill="#fff"></path><path d="M356.34 110.53c-7.02-4.18-19.59-4.7-24.56-1.86-1.05.59-.77 3.59.15 3.22 7.09-2.94 17.89-3.09 24.58.34.87.44.91-1.1-.16-1.7Zm-68.57 0c7.02-4.18 19.59-4.7 24.58-1.86 1.05.59.77 3.59-.15 3.22-7.1-2.94-17.89-3.09-24.58.34-.9.44-.91-1.1.15-1.7" class="ax" fill="#966f42"></path><path d="M329.32 143.6c-.79-.54-2.57.3-7.27.3s-6.48-.84-7.25-.3c-.91.66.54 3.59 7.25 3.59s8.17-2.93 7.27-3.59" class="ay" fill="#f0a429"></path><path id="1770301554999-1075981_d" d="M314.87 123.21c.28 2.12-1.16 4.66-5.17 6.56-2.55 1.22-7.85 2.62-14.82-.32-3.13-1.31-6.16-5.39-5.9-7.68 3.79-7.11 22.36-8.16 25.89 1.44" class="au" data-name="Path" fill="#fff"></path><circle id="1770301554999-1075981_f" cx="302.27" cy="123.05" r="7.3" data-name="Oval" fill="url(#1770301554999-1075981_e)"></circle><path id="1770301554999-1075981_g" d="M298.62 122.92c0 5.06 7.3 5.06 7.3 0 0-4.69-7.3-4.69-7.3 0" class="as" data-name="Path" fill="#1a1626"></path><path id="1770301554999-1075981_h" d="M297.51 120.87c0 2.12 3.05 2.12 3.05 0 0-1.95-3.05-1.95-3.05 0" class="av" data-name="Path" fill="#ab968c"></path><path id="1770301554999-1075981_i" d="M314.92 123.48c-2.98-9.54-23.19-8.13-25.95-1.72 1.02-8.19 23.41-10.37 25.95 1.72" class="aw" data-name="Path" fill="#45332c"></path><path id="1770301554999-1075981_j" d="M329.23 123.21c-.27 2.12 1.18 4.66 5.19 6.56 2.53 1.22 7.85 2.62 14.82-.32 3.13-1.31 6.16-5.39 5.9-7.68-3.79-7.11-22.38-8.16-25.91 1.44" class="au" data-name="Path" fill="#fff"></path><path id="1770301554999-1075981_l" d="M341.67 115.74c4.03 0 7.32 3.28 7.32 7.3s-3.28 7.3-7.32 7.3-7.3-3.26-7.3-7.3 3.29-7.3 7.3-7.3" data-name="Oval" fill="url(#1770301554999-1075981_k)"></path><path id="1770301554999-1075981_m" d="M338.03 122.92c0 5.06 7.3 5.06 7.3 0 0-4.69-7.3-4.69-7.3 0" class="as" data-name="Path" fill="#1a1626"></path><path id="1770301554999-1075981_n" d="M336.93 120.87c0 2.12 3.05 2.12 3.05 0 0-1.95-3.05-1.95-3.05 0" class="av" data-name="Path" fill="#ab968c"></path><path id="1770301554999-1075981_o" d="M329.19 123.48c2.96-9.52 23.18-8.16 25.95-1.72-1.04-8.19-23.41-10.37-25.95 1.72" class="aw" data-name="Path" fill="#45332c"></path><path d="M358.37 66.43c3.68-5.25-27.52-16.36-56.98-8.86-29.43 6.73-46.03 50.82-46.03 79.66 2.64 2.09 18.77-3.11 21.75-6.54 1.22-5.04 3.15-10.25 4.95-15.62 22.09-12.8 47.1-15.81 64.46-31.12-2.23 6.67 9.54 15.09 15.55 31.12 1.95 5.21 3.69 10.43 4.93 15.62 4.91 4.52 14.69 6.65 21.75 6.54 0-24.39-18.6-74.19-30.38-70.8" fill="url(#1770301554999-1075981_p)"></path><path d="M260.66 132.85c20.36-27.11 86.3-25.27 97.72-66.43-22.15 34.54-92.15 40.36-97.72 66.43" class="ap" fill="#473834"></path><path d="M365.41.04c-2.68-.93-25.25 16.39-25.93 30.8-.79 16.34-1.75 28.1-2.45 35.2-6.86-.95-23.12-.91-29.94.13-.69-7.07-1.66-18.89-2.43-35.32-.71-14.41-23.27-31.73-25.97-30.8-4.33 1.49-12.16 27.38-4.78 38.65 10.64 16.19 15.19 26.28 17.16 32.18-6.09 2.84-11.24 6.69-14.59 11.71 31.18-11.09 61.02-11.09 92.19 0-3.5-5.27-8.98-9.29-15.48-12.14 2.04-5.92 6.59-15.93 17-31.75 7.4-11.26-.43-37.16-4.78-38.65Z" class="az" fill="#302c3b"></path><path d="M107.9 186.19c44.48-17.76 40.02-60 40.02-60H23.44s-4.44 42.23 40 60c0 0 8.91 2.23 22.23 2.23s22.23-2.23 22.23-2.23" class="ap" fill="#473834"></path><path d="M130.63 130.69c4.55 19.14 2.14 38.09-22.73 55.5 26.7-4.43 44.48-29.62 44.48-48.96z" fill="url(#1770301554999-1075981_q)"></path><path d="M40.74 130.69c-4.55 19.14-2.16 38.09 22.71 55.5-26.68-4.43-44.46-29.62-44.46-48.96z" fill="url(#1770301554999-1075981_r)"></path><path d="M234.12 463.24c-34.53-21.9-10.59-48.23 4.25-39 66.3 41.16 30.74 61.22-4.25 39M91.25 547.62c-13.88-5.23 2.21-20.34-2.91-40.19-10.04-38.8 24.5-36.42 28.61-18 8.86 39.51-9.54 64.32-25.7 58.19" class="az" fill="#302c3b"></path><path d="M109.73 491.54c-2.51-48.05 9.98-54.87-8.05-86.87 9.43-28.29 4.64-44.36 4.64-44.36l-44.93-40.3s2.77 74.3 11.43 101.8c10.59 33.87 17.14 73.44 17.14 73.44.91 19.89 20.93 17.91 19.77-3.71M29.36 251.78l11.22-20.72-19.95-18.39c-23.81 39.75-23.3 42.03-16.77 50l54.65 36.2-.15-23.5zm122.82-10.75-9.75-10.84 19.5-21.94c24.48 29.6 29.53 34.92 18.21 47.41l-49.87 35.11-12.52-17.48 34.42-32.26Z" class="at" fill="#f5bb51"></path><path d="M125.36 278.85c-9.33-6.86-10.14-42.06 1.7-56.37l16.19 10.79 22.13-24.3s-14.88-16.52-25.73-25.78c-19.28-16.47-79.77-13.19-97.68 1.8-10.93 9.14-26.66 32.93-26.66 32.93l24.82 16.14 3.57-4.66c17.7 50.14 4.89 69.66 17.89 95.06.18-9.82 15.93 40.07 50.71 40.07 19.36 0 67.31-45.92 13.05-85.68Z" class="az" fill="#302c3b"></path><path d="M239.57 435.58c-32.8-31.79-28.18-47.87-62.67-55.05-10.25-55.34-45.68-84.44-45.68-84.44-24.73 32.54-16.48 60.89-16.48 60.89s28 46.95 52.36 59.07c30 14.84 60.48 37.23 60.48 37.23 13.46 13.28 26.78-3.36 12-17.7ZM66.38 183.88s6.09 8.3 19.3 8.3 19.28-8.3 19.28-8.3v-23.57H66.38z" class="at" fill="#f5bb51"></path><path d="M85.68 61.71c-32.26 0-47.81 26.27-45.88 60.05.41 6.8 2.3 16.58 4.63 24.98 4.84 17.44 30.37 35.02 41.25 35.02s36.39-17.57 41.23-35.02c2.34-8.39 4.23-18.18 4.63-24.98 1.93-33.78-13.6-60.05-45.86-60.05" class="ar" fill="#ffc940"></path><path d="M85.66 154.32c-7.55-3.3-7.61-.13-19.28.66 4.39 4.98 7.61 11.37 19.28 11.37 13.41 0 15.68-7.27 19.3-11.37-11.68-.79-11.73-3.96-19.3-.66" class="aq" fill="#d47706"></path><path d="M69.88 156.23c7.62 7.93 24.07 7.82 31.59 0-11.74 1.27-19.84 1.27-31.59 0" class="au" fill="#fff"></path><path d="M119.95 110.53c-7-4.18-19.57-4.7-24.54-1.86-1.07.59-.79 3.59.13 3.22 7.09-2.94 17.91-3.09 24.58.34.89.44.91-1.1-.16-1.7Zm-68.55 0c7-4.18 19.57-4.7 24.56-1.86 1.05.59.79 3.59-.15 3.22-7.09-2.94-17.89-3.09-24.58.34-.89.44-.91-1.1.16-1.7Z" class="ax" fill="#966f42"></path><path d="M92.93 143.6c-.77-.54-2.57.3-7.27.3s-6.48-.84-7.25-.3c-.91.66.54 3.59 7.25 3.59s8.18-2.93 7.27-3.59" class="ay" fill="#f0a429"></path><path id="1770301554999-1075981_s" d="M78.5 123.21c.27 2.12-1.18 4.66-5.19 6.56-2.53 1.22-7.85 2.62-14.82-.32-3.13-1.31-6.16-5.39-5.9-7.68 3.79-7.11 22.37-8.16 25.91 1.44" class="au" data-name="Path" fill="#fff"></path><circle id="1770301554999-1075981_u" cx="65.88" cy="123.05" r="7.3" data-name="Oval" fill="url(#1770301554999-1075981_t)"></circle><path id="1770301554999-1075981_v" d="M62.24 122.92c0 5.06 7.3 5.06 7.3 0 0-4.69-7.3-4.69-7.3 0" class="as" data-name="Path" fill="#1a1626"></path><path id="1770301554999-1075981_w" d="M61.13 120.87c0 2.12 3.05 2.12 3.05 0 0-1.95-3.05-1.95-3.05 0" class="av" data-name="Path" fill="#ab968c"></path><path id="1770301554999-1075981_x" d="M78.54 123.48c-2.96-9.54-23.19-8.13-25.95-1.72 1.03-8.19 23.41-10.37 25.95 1.72" class="aw" data-name="Path" fill="#45332c"></path><path id="1770301554999-1075981_y" d="M92.86 123.21c-.28 2.12 1.16 4.66 5.17 6.56 2.55 1.22 7.85 2.62 14.82-.32 3.13-1.31 6.16-5.39 5.9-7.68-3.77-7.11-22.35-8.16-25.89 1.44" class="au" data-name="Path" fill="#fff"></path><circle id="1770301554999-1075981_aa" cx="105.31" cy="123.05" r="7.3" data-name="Oval" fill="url(#1770301554999-1075981_z)"></circle><path id="1770301554999-1075981_ab" d="M101.64 122.92c0 5.06 7.3 5.06 7.3 0 0-4.69-7.3-4.69-7.3 0" class="as" data-name="Path" fill="#1a1626"></path><path id="1770301554999-1075981_ac" d="M100.54 120.87c0 2.12 3.05 2.12 3.05 0 0-1.95-3.05-1.95-3.05 0" class="av" data-name="Path" fill="#ab968c"></path><path id="1770301554999-1075981_ad" d="M92.82 123.48c2.96-9.52 23.16-8.16 25.93-1.72-1.03-8.19-23.41-10.37-25.93 1.72" class="aw" data-name="Path" fill="#45332c"></path><path d="M121.99 66.43c3.68-5.25-27.52-16.36-56.98-8.86C35.58 64.3 19 108.39 19 137.23c2.62 2.09 18.75-3.11 21.75-6.54 1.22-5.04 3.13-10.25 4.93-15.62 22.09-12.8 47.1-15.81 64.46-31.12-2.23 6.67 9.54 15.09 15.55 31.12 1.97 5.21 3.69 10.43 4.95 15.62 4.91 4.52 14.69 6.65 21.75 6.54 0-24.39-18.6-74.19-30.4-70.8" fill="url(#1770301554999-1075981_ae)"></path><path d="M24.27 132.85c20.36-27.11 86.3-25.27 97.72-66.43-22.14 34.54-92.14 40.36-97.72 66.43" class="ap" fill="#473834"></path><path d="M129.02.04c-2.68-.93-25.25 16.39-25.93 30.8-.79 16.34-1.75 28.1-2.45 35.2-6.86-.95-23.12-.91-29.94.13-.69-7.07-1.66-18.89-2.43-35.32C67.55 16.44 45-.89 42.3.05c-4.33 1.49-12.15 27.38-4.77 38.65 10.64 16.19 15.2 26.28 17.16 32.18-6.09 2.84-11.24 6.69-14.59 11.71 31.18-11.09 61.02-11.09 92.19 0-3.5-5.27-8.98-9.29-15.48-12.14 2.04-5.92 6.59-15.93 17-31.75 7.39-11.26-.43-37.16-4.79-38.65Z" class="az" fill="#302c3b"></path></g></svg>
