<svg xmlns="http://www.w3.org/2000/svg" data-name="Layer 1" style="" viewBox="0 0 512 447.99"><g><defs><linearGradient id="1770301555002-532279_b" x1="1252.25" x2="1318.63" y1="233.22" y2="233.22" gradientTransform="rotate(195.7 693.253 219.742)" gradientUnits="userSpaceOnUse"><stop offset="0" stop-color="#473834"></stop><stop offset=".34" stop-color="#5e4a43"></stop><stop offset=".74" stop-color="#735a51"></stop><stop offset="1" stop-color="#7a6056"></stop></linearGradient><linearGradient id="1770301555002-532279_c" x1="1158.37" x2="1257.51" y1="214.82" y2="214.82" gradientTransform="rotate(201.3 686.02 225.648)" gradientUnits="userSpaceOnUse"><stop offset="0" stop-color="#7a6056"></stop><stop offset=".31" stop-color="#775d54"></stop><stop offset=".57" stop-color="#6d554d"></stop><stop offset=".8" stop-color="#5b4842"></stop><stop offset="1" stop-color="#473834"></stop></linearGradient><linearGradient id="1770301555002-532279_f" x1="1168.11" x2="1168.11" y1="193.71" y2="205.32" gradientTransform="rotate(201.3 686.02 225.648)" gradientUnits="userSpaceOnUse"><stop offset="0" stop-color="#a6694a"></stop><stop offset="1" stop-color="#4f2a1e"></stop></linearGradient><linearGradient id="1770301555002-532279_j" x1="550.26" x2="616.63" y1="362.37" y2="362.37" gradientTransform="scale(1 -1) rotate(5.85 4789.3 -1515.652)" gradientUnits="userSpaceOnUse"><stop offset="0" stop-color="#473834"></stop><stop offset=".34" stop-color="#5e4a43"></stop><stop offset=".74" stop-color="#735a51"></stop><stop offset="1" stop-color="#7a6056"></stop></linearGradient><linearGradient id="1770301555002-532279_k" x1="472.44" x2="571.59" y1="411.81" y2="411.81" gradientTransform="scale(1 -1) rotate(11.44 2809.381 -703.803)" gradientUnits="userSpaceOnUse"><stop offset="0" stop-color="#7a6056"></stop><stop offset=".31" stop-color="#775d54"></stop><stop offset=".57" stop-color="#6d554d"></stop><stop offset=".8" stop-color="#5b4842"></stop><stop offset="1" stop-color="#473834"></stop></linearGradient><linearGradient id="1770301555002-532279_n" x1="482.54" x2="482.54" y1="390.58" y2="402.19" gradientTransform="scale(1 -1) rotate(11.44 2809.381 -703.803)" gradientUnits="userSpaceOnUse"><stop offset="0" stop-color="#a6694a"></stop><stop offset="1" stop-color="#4f2a1e"></stop></linearGradient></defs><path d="M195.27 119.59c-6.82-7.34-24.4 6.17-26.98 8.18-8.57 6.65-30.55-30.14-18.98-36.19 10.04-5.3 9.17-19.81 9.17-19.81 6.79-.97 40.93-28.85 36.8 47.82Z" class="ab" fill="#f5bb51"></path><path d="M99.35 74.85c-4.26.34-8.8-.38-13.66-2.74 42.08-10.5 35.8-100.54 86.66-63.01l-13.76 18.27c-16.94-1.41-5.04 48.17-38.62 54.53 3.7-1.9 5.29-7.58 6.38-14.51-11.06 17.7-20.86 29.7-42.86 20.7 4.36.26 10.34-5.46 15.84-13.23Z" fill="url(#1770301555002-532279_b)"></path><path d="M179.07 8.34c4.74 7.16-10.59 22.47-24.02 18.14C144 22.9 171.23-3.42 179.07 8.34" class="ae" fill="#8e3ed6"></path><path d="M226.85 16.99c23.51 13.79 25.71 35.25 13.45 54.76-2.75 4.41-2.87 13.75 1.15 21.36 1.47 2.76.69 5.39-1.04 6.66-3.41 2.47-8.06.68-10.5 1.18-5.42 1.07-2.24 5.82-6.81 7.82-2.05.9-5.54-2.74-4.13 6.89-6.38 1.69-3.41 12.42-14.86 10.11-5.47-1.14-22.01-16.58-26.94-34.36-2.76-10.06-.17-19.48-.17-19.48-17.07-13.05-17.3-32.48-6.3-48.42C186.04 1.2 211.64 8.06 226.85 17Z" class="z" fill="#ffc940"></path><path d="M223.1 108.76c-2.9.5-2.74 3.18-2.74 3.18 1.13.44-.06 4.3-1.74 3.64-5.85-2.3-9.28-9.44-9.86-13.17 9.36 3.14 21.07 2.91 14.34 6.35" class="y" fill="#d47706"></path><path d="M223.1 108.76s-2.14 2.86-2.74 3.18c-1.86-.7-7.31-4.37-10.05-8.24z" class="ac" fill="#fff"></path><path d="M170.27 10c10.11-12.7 35.83-13.58 55.5-1.03 19.14 12.18 28.86 32.37 21.86 40.36-9.9 11.34-39.12-.32-58.73 17.79-.77 1.48-8.92-.48-9.77.74-6.82 9.82-18.65 15.54-21.38 13.56C138.8 67.51 143.97 9.89 170.25 10Z" fill="url(#1770301555002-532279_c)"></path><path d="M240.33 99.74c-3.53 3.97-15.01.62-16.38-6.39 4.21 6.52 18.43 4.1 16.38 6.39" class="ai" fill="#f0a429"></path><path d="M186 48.56c8.61 5.58 3.31 27.84-5.49 29.69-1.22.26-6.58-1.18-7.26-7.39-.39-3.45-4.63-8.46-3.18-14.38 1.85-7.58 7.4-13.46 15.94-7.92Z" class="z" fill="#ffc940"></path><path id="1770301555002-532279_d" d="M184 52.28c2.05 1.75 3.22 5.34 2.3 9.8-7.55-5.56-10.84 4.05-3.8 8.09-.62.83-1.26 1.67-2.01 2.47-1.5-4.94-5.78-5.62-6.32-12.1-.5-5.87 4.7-12.54 9.83-8.26" class="ai" data-name="Path" fill="#f0a429"></path><path id="1770301555002-532279_e" d="M219.25 58.54c6.52-1.02 16.78 2.84 19.75 6.46.64.73-1.05 3.44-1.6 2.89-4.41-4.33-12.93-7.74-18.86-7.14-.82.1-.27-2.09.71-2.2Z" class="ah" data-name="Path" fill="#966f42"></path><path d="M217.26 70.21c-.66 1.3 1.73 7.81 6.98 10.39 3 1.5 5.04-.5 6.74-2.81 4.66-9.98-8.84-11.06-13.71-7.58Z" class="ac" fill="#fff"></path><path id="1770301555002-532279_g" d="M231.69 76.61c-2.91 7.46-11.59 4.09-8.67-3.39 2.7-6.97 11.39-3.56 8.67 3.39" data-name="Path" fill="url(#1770301555002-532279_f)"></path><path id="1770301555002-532279_h" d="M230.93 75.9c-1.46 3.74-5.78 2.03-4.33-1.7 1.36-3.46 5.69-1.79 4.33 1.7" class="aa" data-name="Path" fill="#1a1626"></path><path id="1770301555002-532279_i" d="M228.82 73.34c-.61 1.55-3.12.59-2.5-.98.58-1.45 3.1-.47 2.5.98" class="af" data-name="Path" fill="#ab968c"></path><path d="M217.26 70.21c4.14-3.75 17.09-2.62 14.94 3.8.02-4.86-9.5-5.92-14.94-3.8" class="ag" fill="#45332c"></path><path d="M163.64 78.45c1.01 5.79 13.61 12.62 19.25 11.08 10.51-2.85 21.55-29.82 17.63-40-2.13-5.47-15.97-11.62-21.44-9.5-10.16 3.98-18.01 23.98-15.44 38.42m26.77-30.59c3.73-3.19 10.19 4.26 6.47 7.5-3.7 3.23-10.18-4.22-6.47-7.5m-3.14 31.81c2.25 5.25-8.11 9.82-10.4 4.62-2.26-5.23 8.13-9.81 10.4-4.62m-.71-34.29c.83 5.1-9.33 6.8-10.18 1.7-.85-5.09 9.33-6.79 10.18-1.7" class="ae" fill="#8e3ed6"></path><path d="M201.72 128.68c1.88 2.06 5.82-.98 5.5-2.78-1.38-7.82-15.97-36.74-21.58-43.55-2.36-2.83-6.05.62-5.51 2.78 1.99 8.62 16.21 37.72 21.59 43.54Z" class="al" fill="#f2f5f7"></path><path d="M234.17 16.53c2.3-2.31-1.17-5.7-3.16-5-8.8 3.01-41.28 23.81-48.88 30.95-2.38 2.18.34 6.13 3.13 5.02 9.72-3.82 42.41-24.3 48.91-30.97" class="x" fill="#e3e6e8"></path><path d="M238.75 19.62c1.83-2.42-1.9-5.43-3.67-4.63-7.83 3.5-35.41 25.74-41.5 33.14-2.59 3.13 1.52 5.78 3.66 4.66 8.56-4.34 36.34-26.3 41.51-33.17" class="al" fill="#f2f5f7"></path><path d="M76.91 259.99c18.17-3.26 33.69-18.69 54.01 6.38-.05 23.28-7.26 33.18-13.76 39.3-12.4 11.59-31.31 4.06-61.92 36.3l-24.42-16.02c21.06-21.03 25.54-36.47 46.23-44.2 3.08-5.95 2.74-12.28-.15-21.75Z" class="ab" fill="#f5bb51"></path><path d="m26.12 332.06 25.44 14.25 5.13-7.2-23.73-16.47s-6.18 4.54-6.84 9.42" class="ak" fill="#e6ebef"></path><path d="M22 384.1 1.05 370.49c-3.08-2 1.58-5.46 1.58-5.46s22.22-.66 80.73 45.62c0 0-22.77 13.26-61.36-26.56Z" class="ae" fill="#8e3ed6"></path><path d="M15.56 344.37c1.87-6.23 12.3-20.34 13.7-18.06 2.72 4.42 17.67 13.22 22.18 13.3 3.33-14.08 14.04-5.59 11.92-1.97-29.6 50.81 36.86 51.41 20 73.03 0 0-31.72-.83-57.88-30.53l-22.85-15.1c4.98-14.22 12.53-19.39 12.93-20.67" class="aj" fill="#302c3b"></path><path d="M62.75 379.21c-12.6-2.58-13.95-5.9-9.65-9.86-7.3-2.56-6.78-7.34-3.96-9.41-6.42-3.82-3.46-8.94 6.51-6.2 5.5 1.75 10.48 26.14 7.1 25.46Z" class="ae" fill="#8e3ed6"></path><path d="M215.58 194.4c-1.93-.54-6.65 6.81-4.1 6.32 1.55-.28 11.62 3.08 18.17 5.74 4.02 1.64 6.88-2.22 5.58-2.86-11.4-5.61-8.77-6.06-19.65-9.19Z" class="ai" fill="#f0a429"></path><path d="M208.67 193.18c-1.93-.46-6.36 7.86-3.83 7.97 1.54.08 10.78 5.23 16.76 8.99 3.65 2.34 6.82-.5 5.7-1.44-7.69-6.51-16.03-14.94-18.63-15.52" class="ai" fill="#f0a429"></path><path d="M233.89 198.1c-4.46-1.18-10.59-5.33-13.06-5.27-2.09.05-9.48-1.62-14.6-1.5-4.74.11-24.55-5.29-54.45-24.73-10.53 8-20.99 8.71-31.6 16.6 26.13 9.14 58.23 13.67 68.3 24.3 5.4 5.68 13.77 5.01 21.72 14.48 3.66 4.41 8.16-.97-3.05-13.94-2.79-3.22 2.94-5 4.68-5.35 3.42-.67 12.1-1.32 17.38 0 2.1.55 11.66-2.7 4.69-4.59ZM147.97 77.77c-16.83 68.76-6.32 93.25 20.85 78.58 8.61-4.67 19.71-15 14.35-31.75-2.18-12.27-8.43-35.14-35.2-46.83M92.99 304.78c14.82-11.5 22.49-34.95 51.44-22.18 10.02 20.82 6.47 29.34 3.3 37.86-6.08 16.22-24.45 28.97-38.74 67.7l-28.7-2.78c9.74-28.7 7.1-44.61 22.21-61.26.18-6.78-2.83-12.26-9.51-19.33Z" class="ab" fill="#f5bb51"></path><path d="M36.76 186.07c30.86-20.71 34.94-91.84 83.55-113.52 17.84-7.97 35.96 8.84 36.26 20.74.42 17.6 12.14 42.76 25.5 26.04 1.46 1.56 1.1 5.29 1.1 5.29-15.36 26.77-9.55 48.09-37.16 50.75-15.7 1.51-55.59 28.38-44.5 40.81 16.46 18.46 32.32 42.16 42.9 66.42-17.34 4.49-37.03 10.86-51.44 22.18-21.29-15.58-25.07-30.83-45.29-39.56-31.06-13.42-35.99-62.35-10.93-79.15Z" class="ae" fill="#8e3ed6"></path><path d="M100.17 88.93c-28.03 29.58-.94 61.81 28.03 33.45 35.95-35.15 4.52-67.72-28.03-33.45" class="ab" fill="#f5bb51"></path><path d="m78.73 393.07 28.84.7 1.47-8.86-28.28-3.5s-3.54 6.97-2.03 11.66" class="ak" fill="#e6ebef"></path><path d="m97.5 441.45-24.58-2.26c-3.59-.31-.94-5.59-.94-5.59s19.54-11.1 91.73 2.61c0 0-14.62 22.59-66.21 5.25Z" class="ae" fill="#8e3ed6"></path><path d="M74.6 409.04c-.98-6.47 2.22-23.97 4.48-22.59 4.33 2.66 21.46 3.44 25.5 1.38-3.09-14.13 10.13-11.59 9.79-7.36-4.48 59.31 55.07 28.47 49.35 55.73 0 0-28.66 14.22-64.82.05L72 433.59c-1.68-15.04 2.81-23.24 2.6-24.55" class="aj" fill="#302c3b"></path><path d="M131.75 417.85c-12.37 3.66-14.99 1.31-12.85-4.26-7.64 1.18-9.25-3.34-7.62-6.5-7.36-.38-6.94-6.36 3.16-8.61 5.64-1.02 20.61 18.38 17.3 19.38Z" class="ae" fill="#8e3ed6"></path><path d="M159.16 240.96c.8 2.67-4.64 13.39-8.09 22.87-.5 1.34-5.86-.75-5.16-4.98 1.12-6.94 2.01-17.46 1.17-18.94-1.34-2.43 11.5-.95 12.08 1.05" class="ai" fill="#f0a429"></path><path d="M76.78 179.52c-2.54-2.92-3.74-26.86 34.01-95.63 14.18-25.82 46.93-2.46 34.09 24.18-18.7 38.76-37.04 63.86-37.04 63.86 12.36 9.71 39.38 36.06 54.42 56.09 3.39 4.54 7.75 29.17 8.34 31.17.82 2.66-4.64 13.38-8.1 22.86-.48 1.33-5.85-.74-5.15-4.98 1.14-6.9 2.01-17.46 1.19-18.92-1.36-2.46-14.04-11.77-12.44-22.58-17.51-16.88-48.81-32.46-69.32-56.05m256.15-42.04c8.5-5.34 20.18 9.75 22.15 12.35 6.54 8.63 37.39-21.26 27.8-30.1-8.31-7.68-3.68-21.48-3.68-21.48-6.32-2.67-30.22-35.9-46.27 39.22Z" class="ab" fill="#f5bb51"></path><path d="M436.61 108.66c4.14 1.07 8.74 1.14 13.92-.36-39.66-17.53-18.06-105.18-74.6-76.91l10.43 20.36c16.94 1.51-3.28 48.32 28.72 60.33-3.32-2.5-3.91-8.38-3.81-15.39 7.86 19.33 15.47 32.83 38.68 27.72-4.34-.5-9.24-7.15-13.34-15.75" fill="url(#1770301555002-532279_j)"></path><path d="M369.46 29.49c-5.9 6.23 6.59 23.94 20.56 21.98 11.5-1.63-10.82-32.22-20.56-21.98" class="ad" fill="#e81c27"></path><path d="M320.89 29.84c-25.52 9.55-31.36 30.33-22.62 51.65 1.96 4.82.49 14.04-4.78 20.84-1.92 2.47-1.6 5.19-.12 6.74 2.93 3.02 7.82 2.05 10.14 2.97 5.15 1.98 1.21 6.11 5.37 8.86 1.86 1.25 5.92-1.74 2.88 7.5 6 2.75 1.23 12.82 12.92 12.5 5.58-.18 24.52-12.57 32.42-29.24 4.45-9.43 3.5-19.16 3.5-19.16 19.05-9.94 22.61-29.04 14.5-46.63-11.3-24.61-37.69-22.22-54.21-16.02Z" class="z" fill="#ffc940"></path><path d="M308.89 120.89c2.78.99 2.16 3.61 2.16 3.61-1.18.23-.67 4.24 1.1 3.88 6.16-1.26 10.76-7.71 11.97-11.29-9.76 1.5-21.26-.74-15.22 3.8Z" class="y" fill="#d47706"></path><path d="M308.89 120.89s1.62 3.18 2.16 3.61c1.95-.38 7.95-3.06 11.31-6.41z" class="ac" fill="#fff"></path><path d="M377.85 32.63c-7.79-14.23-32.98-19.5-54.5-10.51-20.94 8.73-33.97 26.95-28.46 36.02 7.82 12.87 38.59 6.38 54.82 27.58.5 1.58 8.86 1.06 9.5 2.41 5.04 10.83 15.72 18.5 18.74 17.02 21.05-10.46 25.81-68.12-.1-72.51Z" fill="url(#1770301555002-532279_k)"></path><path d="M293.46 109.06c2.8 4.51 14.68 3.18 17.22-3.5-5.26 5.7-18.86.88-17.22 3.5" class="ai" fill="#f0a429"></path><path d="M355.75 67.93c-9.44 4.02-8.03 26.86.32 30.18 1.16.47 6.7-.05 8.42-6.04.98-3.33 6.02-7.54 5.6-13.62-.53-7.78-4.99-14.53-14.34-10.53Z" class="z" fill="#ffc940"></path><path id="1770301555002-532279_l" d="M357.08 71.94c-2.31 1.38-4.1 4.71-3.94 9.26 8.4-4.18 9.99 5.84 2.36 8.62.48.92.96 1.86 1.55 2.78 2.31-4.61 6.65-4.54 8.3-10.84 1.5-5.7-2.5-13.14-8.27-9.81Z" class="ai" data-name="Path" fill="#f0a429"></path><path id="1770301555002-532279_m" d="M321.28 72.08c-6.26-2.12-17.02-.07-20.56 2.98-.76.6.44 3.56 1.08 3.12 5.09-3.5 14.06-5.41 19.82-3.81.78.24.62-2.02-.34-2.29" class="ah" data-name="Path" fill="#966f42"></path><path d="M321.23 83.92c.43 1.39-3.03 7.4-8.65 9.05-3.21.96-4.88-1.35-6.16-3.92-2.88-10.64 10.61-9.38 14.81-5.13" class="ac" fill="#fff"></path><path id="1770301555002-532279_o" d="M305.93 87.74c1.59 7.85 10.72 6.01 9.12-1.86-1.47-7.33-10.61-5.46-9.12 1.86" data-name="Path" fill="url(#1770301555002-532279_n)"></path><path id="1770301555002-532279_p" d="M306.81 87.18c.79 3.93 5.34 2.99 4.55-.94-.75-3.64-5.3-2.74-4.55.94" class="aa" data-name="Path" fill="#1a1626"></path><path id="1770301555002-532279_q" d="M309.31 85.02c.33 1.63 2.97 1.12 2.62-.54-.32-1.53-2.97-.99-2.62.54" class="af" data-name="Path" fill="#ab968c"></path><path d="M321.23 83.92c-3.44-4.41-16.38-5.5-15.37 1.18.82-4.78 10.37-4.2 15.37-1.18" class="ag" fill="#45332c"></path><path d="M364.02 60.69c-5.03-3.01-19.72.68-22.75 5.7-5.61 9.37.66 37.82 10.52 42.43 5.3 2.48 18.88-2.1 20.86-7.62 5-13.8.7-34.85-8.63-40.51m-20.17 12.08c-3.12-3.83 4.53-10.07 7.66-6.28 3.1 3.86-4.56 10.1-7.66 6.28m14.77 31.93c-3.15 4.73-12.57-1.54-9.46-6.34 3.13-4.71 12.58 1.58 9.46 6.34m6.87-36.59c-1.72 4.88-11.44 1.47-9.75-3.41 1.72-4.88 11.45-1.46 9.75 3.41" class="ad" fill="#e81c27"></path><path d="M326.53 144.18c-2.2 1.71-5.56-1.96-4.95-3.67 2.7-7.46 22.02-33.46 28.73-39.22 2.81-2.39 5.85 1.65 4.95 3.68-3.43 8.14-22.42 34.38-28.73 39.21" class="al" fill="#f2f5f7"></path><path d="M313.77 28.13c-1.86-2.67 2.13-5.42 3.97-4.38 8.15 4.47 36.59 30.51 42.86 38.86 1.98 2.56-1.38 5.98-3.93 4.41-8.93-5.42-37.63-31.19-42.9-38.88Z" class="x" fill="#e3e6e8"></path><path d="M308.72 30.39c-1.39-2.7 2.81-5.02 4.42-3.94 7.12 4.8 30.48 31.42 35.22 39.75 2.02 3.51-2.5 5.42-4.42 3.97-7.7-5.74-31.3-32.13-35.22-39.78" class="al" fill="#f2f5f7"></path><path d="m461.12 266.48-44.15 27.39c4.66 8.33 23.16 27.62 40.6 67.47l28.38-5.84c-15.71-30.44-5.36-45.64-24.14-67.17-4.71-5.44-.68-21.86-.68-21.86Z" class="ab" fill="#f5bb51"></path><path d="m488.22 362.68-28.7 3.87-2.29-8.3 27.86-6.49s4.22 6.27 3.14 10.91Z" class="ak" fill="#e6ebef"></path><path d="m474.05 411.04 24.29-4.87c3.56-.74.42-5.47.42-5.47s-20.52-8.44-91.25 12.64c0 0 16.67 20 66.54-2.3" class="ad" fill="#e81c27"></path><path d="M493.83 377.5c.4-6.26-4.46-22.66-6.57-21.1-4.06 3.02-21.07 5.67-25.32 4.14 1.78-13.86-11.18-9.98-10.46-5.97 10.06 56.25-52.25 33.33-43.98 58.77 0 0 29.91 10.44 64.66-7.11l26.58-5.53c.26-14.58-5.01-21.91-4.92-23.21Z" class="aj" fill="#302c3b"></path><path d="M437.65 392.26c12.66 2.13 15.09-.39 12.43-5.5 7.71.28 8.89-4.22 6.97-7.06 7.33-1.17 6.33-6.84-3.95-7.87-5.74-.37-18.86 19.86-15.45 20.44Z" class="ad" fill="#e81c27"></path><path d="M355.03 248.48c1.61-1.18 10.11 4.98 7.75 6.06-1.42.67-7.64 9.22-11.42 15.14-2.3 3.66-6.81 2.22-6.22.89 4.02-9.22 7.69-20.5 9.88-22.1Z" class="ai" fill="#f0a429"></path><path d="M362.17 247.11c1.3-1.49 9.8 2.74 7.8 4.28-1.21.94-5.7 10.47-8.35 16.97-1.59 4.02-5.84 3.51-5.5 2.11 2.45-9.72 4.29-21.39 6.05-23.36" class="ai" fill="#f0a429"></path><path d="M337.95 265.24c2.98-3.5 5.68-10.26 7.74-11.62 1.74-1.16 6.83-6.66 11.11-9.5 3.94-2.59 17.13-18.16 30.73-50.52 13.1.34 20.41-.62 33.48-.44-16.26 22.1-40.14 36.8-37.58 50.72 1.34 7.46-4.14 13.72-1.26 25.31 1.36 5.39-5.59 5.95-9.35-10.17-.91-4.02-11.98-3.1-13.73-2.87-2.79.36-10.54 6.39-14.11 10.47-1.43 1.61-11.69 4.06-7.02-1.38Zm47.27-163.93c16.83 66.29 6.33 89.92-20.85 75.78-8.62-4.5-21.65-12.51-16.28-28.66 2.16-11.84 10.37-35.86 37.13-47.12m41.47 210.14c-14.81-11.08-14.99-38.7-43.94-26.39-13 16.87-9.46 26.26-5.26 34 3.33 6.14 6.63 29.54 20.09 71.21l28.67-2.69c-9.71-27.69 4.38-44.59-4.75-65.69-1.38-3.22-1.83-5.54 5.19-10.45Z" class="ab" fill="#f5bb51"></path><path d="M496.44 205.74c-30.87-19.97-34.95-88.57-83.55-109.49-17.84-7.68-35.98 8.53-36.27 19.99-.42 16.98-13.92 42.92-27.29 26.8-1.3 1.7-1.23 5.38-1.23 5.38 23.9 64.93 38.74 49.7 55.9 53.68 6.45 1.5 31.39 23.94 22.7 30.77-22.34 17.53-34.76 39.61-43.94 52.18 17.33 4.33 29.52 15.49 43.94 26.39 21.29-15.03 37.46-27.11 57.67-35.53 31.07-12.94 37.13-53.98 12.07-70.17" class="ad" fill="#e81c27"></path><path d="M431.39 118.6c13.89 34.23-11.14 50.57-33.3 29.62-35.96-33.9 15.91-72.48 33.3-29.62" class="ab" fill="#f5bb51"></path><path d="m427.83 395.01-28.85.67-1.47-8.53 28.27-3.38s3.55 6.72 2.05 11.23Z" class="ak" fill="#e6ebef"></path><path d="m409.07 441.68 24.57-2.18c3.59-.31.94-5.41.94-5.41s-19.55-10.7-91.73 2.51c0 0 14.6 21.8 66.22 5.08" class="ad" fill="#e81c27"></path><path d="M431.95 410.4c.98-6.22-2.21-23.11-4.46-21.78-4.32 2.56-21.46 3.33-25.51 1.34 3.1-13.64-10.12-11.2-9.78-7.13 4.48 57.21-55.08 27.49-49.34 53.77 0 0 28.66 13.72 64.81.05l26.91-2.56c1.66-14.5-2.82-22.39-2.62-23.69Z" class="aj" fill="#302c3b"></path><path d="M374.81 418.91c12.35 3.53 14.98 1.28 12.85-4.11 7.62 1.13 9.24-3.23 7.6-6.28 7.36-.36 6.94-6.13-3.14-8.3-5.65-1-20.61 17.72-17.3 18.69Z" class="ad" fill="#e81c27"></path><path d="M283.47 163.24c-2.54-.99-13.37 3.54-22.86 6.22-1.34.39.26 5.86 4.45 5.48 6.81-.55 17.06-.63 18.44.3 2.26 1.54 1.86-11.24-.03-11.99Zm-7.5-15.51c-1.19-2.13-11.38-5.06-19.57-8.5-1.15-.5-3.17 4.22-.02 6.32 5.08 3.44 12.31 9.17 12.74 10.59.7 2.38 7.76-6.82 6.85-8.41" class="ai" fill="#f0a429"></path><path d="M367.98 204.36c3.78.49 19.54-10.77 57.53-77.51 14.17-24.88-24.64-39.63-38.72-14.59-20.5 36.46-29.54 61.94-29.54 61.94-14.8-4.79-56.4-4.85-58.5-6.29-4.55-3.18-21.6-19.8-23.06-21.21-1.93-1.88-13.7-1.86-23.49-3.05-1.38-.16-2.06 5.47 1.91 6.77 6.51 2.06 16.02 5.98 16.94 7.35 1.47 2.3 3.67 17.58 13.77 20.97 14.89 1.9 52.63 21.8 83.17 25.62Z" class="ab" fill="#f5bb51"></path></g></svg>
