<?xml version="1.0" encoding="UTF-8"?>
<svg id="Layer_1" data-name="Layer 1" xmlns="http://www.w3.org/2000/svg" width="512" height="512" xmlns:xlink="http://www.w3.org/1999/xlink" viewBox="0 0 512 512">
  <defs>
    <style>
      .cls-1 {
        fill: url(#linear-gradient-4);
      }

      .cls-2 {
        fill: url(#linear-gradient-3);
      }

      .cls-3 {
        fill: url(#linear-gradient-2);
      }

      .cls-4 {
        fill: url(#linear-gradient);
      }
    </style>
    <linearGradient id="linear-gradient" x1="176.38" y1="860.34" x2="176.38" y2="399.66" gradientTransform="translate(-50 886) scale(1 -1)" gradientUnits="userSpaceOnUse">
      <stop offset="0" stop-color="#ef427b"/>
      <stop offset="1" stop-color="#dd2f69"/>
    </linearGradient>
    <linearGradient id="linear-gradient-2" x1="176.39" y1="860.34" x2="176.39" y2="399.65" gradientTransform="translate(-50 886) scale(1 -1)" gradientUnits="userSpaceOnUse">
      <stop offset="0" stop-color="#ef427b"/>
      <stop offset="1" stop-color="#dd2f69"/>
    </linearGradient>
    <linearGradient id="linear-gradient-3" x1="435.62" y1="860.34" x2="435.62" y2="399.66" gradientTransform="translate(-50 886) scale(1 -1)" gradientUnits="userSpaceOnUse">
      <stop offset="0" stop-color="#ef427b"/>
      <stop offset="1" stop-color="#dd2f69"/>
    </linearGradient>
    <linearGradient id="linear-gradient-4" x1="435.62" y1="860.34" x2="435.62" y2="399.65" gradientTransform="translate(-50 886) scale(1 -1)" gradientUnits="userSpaceOnUse">
      <stop offset="0" stop-color="#ef427b"/>
      <stop offset="1" stop-color="#dd2f69"/>
    </linearGradient>
  </defs>
  <path class="cls-4" d="M180,28.62c-35.35-3.95-71.87-3.95-107.21,0-22.74,2.54-41.13,20.45-43.81,43.38-4.23,36.14-4.23,72.66,0,108.81,2.68,22.93,21.06,40.83,43.8,43.37,35.35,3.95,71.87,3.95,107.21,0,22.74-2.53,41.12-20.44,43.8-43.37,4.23-36.14,4.23-72.66,0-108.81-2.68-22.93-21.06-40.83-43.8-43.37h.01Z"/>
  <path class="cls-3" d="M180,287.84c-35.35-3.95-71.87-3.95-107.21,0-22.74,2.53-41.12,20.44-43.8,43.37-4.23,36.14-4.23,72.66,0,108.81,2.68,22.93,21.06,40.83,43.8,43.37,35.35,3.95,71.87,3.95,107.21,0,22.74-2.53,41.12-20.44,43.8-43.37,4.23-36.14,4.23-72.66,0-108.81-2.68-22.93-21.06-40.83-43.8-43.37h0Z"/>
  <path class="cls-2" d="M439.22,28.62c-35.35-3.95-71.87-3.95-107.21,0-22.74,2.53-41.12,20.44-43.8,43.37-4.23,36.14-4.23,72.66,0,108.81,2.68,22.93,21.06,40.83,43.8,43.37,35.35,3.95,71.87,3.95,107.21,0,22.74-2.53,41.12-20.44,43.81-43.37,4.23-36.14,4.23-72.66,0-108.81-2.68-22.93-21.07-40.83-43.81-43.37Z"/>
  <path class="cls-1" d="M439.22,287.84c-35.35-3.95-71.87-3.95-107.21,0-22.74,2.53-41.12,20.44-43.8,43.37-4.23,36.14-4.23,72.66,0,108.81,2.68,22.93,21.06,40.83,43.8,43.37,35.35,3.95,71.87,3.95,107.21,0,22.74-2.53,41.12-20.44,43.81-43.37,4.23-36.14,4.23-72.66,0-108.81-2.68-22.93-21.07-40.83-43.81-43.37Z"/>
</svg>