<svg xmlns="http://www.w3.org/2000/svg" id="a" data-name="Layer 1" viewBox="0 0 512 512.08"><defs><radialGradient id="b" cx="125.86" cy="120.17" r="107.96" fx="125.86" fy="120.17" gradientTransform="matrix(1 0 0 -1 -5.74 511.81)" gradientUnits="userSpaceOnUse"><stop offset="0" stop-color="#fff"/><stop offset=".51" stop-color="#fdfdfe"/><stop offset=".7" stop-color="#f6f8f9"/><stop offset=".83" stop-color="#ebedf2"/><stop offset=".94" stop-color="#dadfe7"/><stop offset="1" stop-color="#ccd3de"/></radialGradient><style>.e{fill:#abb0ba}.f{fill:#b5bec2}.h{fill:#fff}.i{fill:#c3ccd1}.j{fill:silver}.k{fill:#45332c}</style></defs><path d="M120 272.08c66.24 0 120 53.76 120 120s-53.68 120-120 120C53.68 512 0 458.32 0 392s53.68-119.92 120-119.92" class="k"/><path d="M39.84 472.16c44.24 44.24 116.08 44.24 160.4 0 44.32-44.32 44.32-116.08 0-160.4-44.24-44.24-116.08-44.24-160.4 0-44.32 44.32-44.32 116.16 0 160.4" class="h"/><path d="m305.144 167.494 3.619-3.622 6.507 6.503-3.619 3.622z" class="f"/><path d="M301.6 171.04c-1.84-.16-5.12-3.44-5.36-5.36-.4-3.68 6.8-10.56 10.56-10.56 1.92 0 5.36 3.44 5.36 5.36 0 3.68-6.8 10.96-10.56 10.56" class="i"/><path d="m206.56 340.48 218.8-230.32-23.44-23.44-93.2 88.32c-1.44 1.36-3.36 1.84-5.28 1.44l-2.56-.56c-2.32-.56-4.8.16-6.48 1.76L165.84 299.76z" style="fill:#694d42"/><path d="m227.68 318.64-40-40-3.04 2.88 40.16 40.16zm24.8-26.16-38.64-38.64-3.04 2.88 38.8 38.88zm24.8-26.08-37.36-37.36-3.04 2.96 37.52 37.44zm24.8-26.16-36-35.92-3.04 2.88 36.08 36.16zm99.12-104.48-24.96-24.88-3.12 2.88 25.12 25.12zm-74.4 78.4-34.64-34.64-3.04 2.88 34.8 34.8zm49.6-52.24-26.32-26.32-3.04 2.96 26.48 26.4zm51.44-54.24-23.52-23.44-3.12 2.88 23.68 23.68zM351.6 188 324 160.4l-3.12 2.88 27.84 27.84z" class="j"/><path d="m404.018 53.81 3.62-3.623 6.507 6.504-3.619 3.621z" class="f"/><path d="M400.56 57.36c-1.84-.16-5.12-3.44-5.36-5.36-.4-3.68 6.8-10.56 10.56-10.56 1.92 0 5.36 3.44 5.36 5.36 0 3.76-6.88 10.96-10.56 10.56" class="i"/><path d="m451.614 101.391 3.621-3.619 6.503 6.508-3.621 3.619z" class="f"/><path d="M454.64 111.44c.16 1.84 3.44 5.12 5.36 5.36 3.68.4 10.56-6.8 10.56-10.56 0-1.92-3.44-5.36-5.36-5.36-3.76 0-10.96 6.88-10.56 10.56" class="i"/><path d="m445.51 12.418 3.619-3.623 6.509 6.502-3.619 3.623z" class="f"/><path d="M442 15.92c-1.84-.16-5.12-3.44-5.36-5.36C436.32 6.88 443.52 0 447.28 0c1.92 0 5.36 3.44 5.36 5.36-.08 3.68-6.88 10.96-10.64 10.56" class="i"/><path d="m493.146 59.958 3.623-3.619 6.502 6.51-3.623 3.618z" class="f"/><path d="M496.08 70c.16 1.84 3.44 5.12 5.36 5.36 3.68.32 10.56-6.88 10.56-10.64 0-1.92-3.44-5.36-5.36-5.36-3.68 0-10.96 6.88-10.56 10.64" class="i"/><path d="M459.76 99.2c5.04-6.08-.56-21.12 4-27.52 6.56-9.2 17.92-.56 27.2-6.8 9.84-6.64 15.28-20.24 14.64-23.36-.8-3.76-10.56-6.32-8.8-11.36-7.04-1.44-2.56-12.48-2.56-12.48s-11.04 4.4-12.48-2.56c-5.04 1.76-7.6-8-11.36-8.8-3.12-.64-16.72 4.88-23.36 14.64-6.24 9.28 2.4 20.72-6.8 27.2-6.4 4.56-21.36-1.04-27.52 4-16.96 14-9.44 31.12-9.44 31.12l12.64 12.64 12.64 12.64c.08 0 17.2 7.6 31.2-9.36" class="k"/><path d="M223.92 288.08c1.2 1.2 1.2 3.04 0 4.24s-3.04 1.2-4.24 0-1.2-3.04 0-4.24c1.12-1.12 3.04-1.12 4.24 0m50.88-50.88c1.2 1.2 1.2 3.04 0 4.24s-3.04 1.2-4.24 0-1.2-3.04 0-4.24 3.04-1.2 4.24 0" class="h"/><circle cx="323.6" cy="188.4" r="3.04" class="h"/><path d="M376.56 135.44c1.2 1.2 1.2 3.04 0 4.24s-3.04 1.2-4.24 0-1.2-3.04 0-4.24 3.12-1.2 4.24 0" class="h"/><path d="M426.24 72.48c-7.2 7.2-18-3.6-10.8-10.8s18 3.6 10.8 10.8" class="i"/><path d="M424.16 70.4c-4.4 4.4-10.96-2.16-6.56-6.56s10.96 2.16 6.56 6.56" class="f"/><path d="M449.6 95.84c-7.2 7.2-18-3.6-10.8-10.8s18 3.6 10.8 10.8" class="i"/><path d="M447.52 93.76c-4.4 4.4-10.96-2.16-6.56-6.56s10.88 2.16 6.56 6.56" class="f"/><path d="M467.76 30.96c-7.2 7.2-18-3.6-10.8-10.8 7.2-7.12 18 3.6 10.8 10.8" class="i"/><path d="M465.68 28.88c-4.4 4.4-10.96-2.16-6.56-6.56 4.32-4.4 10.88 2.16 6.56 6.56" class="f"/><path d="M491.12 54.32c-7.2 7.2-18-3.6-10.8-10.8 7.2-7.12 18 3.6 10.8 10.8" class="i"/><path d="M489.04 52.24c-4.4 4.4-10.96-2.16-6.56-6.56 4.32-4.4 10.88 2.16 6.56 6.56" class="f"/><path d="M120.16 283.68c59.6 0 107.92 48.32 107.92 107.92s-48.32 108-108 108S12.16 451.28 12.16 391.68c.08-59.68 48.4-108 108-108" style="fill:url(#b)"/><path d="M230.16 391.68c0 60.64-49.36 110-110 110s-110-49.36-110-110 49.36-110 110-110 110 49.28 110 110m-216.08 0c0 58.48 47.6 106.08 106.16 106.16 58.48 0 106.16-47.6 106.16-106.16s-47.6-106.16-106.16-106.16S14 333.12 14.08 391.68" class="e"/><path d="m69.645 393.455 3.677-3.676 48.754 48.77-3.678 3.677z" class="k"/><path d="m423.84 70-1.36-1.28-18.16 18.08-318.4 313.6-25.84 33.52 2.56 2.56 26-33.36L405.68 88.16z" class="e"/><path d="m312.56 167.68-1.76-1.76L76.96 391.44l-19.44 39.92 2.56 2.56 19.6-39.76zm151.2-139.76-53.2 65.12-316 316-29.36 30 2.56 2.64 29.12-30.32L412.16 94.64l53.2-65.12zm20.32 20.32-1.6-1.6-65.12 53.2-314.4 317.6-32.64 26.8 2.64 2.56 32.32-27.04 313.68-318.32z" class="e"/><path d="M443.36 89.52 442 88.16l-18.08 18.16-311.6 320.48-36.8 22.56 2.56 2.56 36.96-22.4L425.2 107.68z" class="e"/><path d="M66.64 294.08c-.64-1.2-4.96 1.28-4.24 2.48l3.2 5.6c.64 1.2 4.96-1.28 4.24-2.48zM174.72 481.2c-.64-1.2-4.96 1.28-4.24 2.48l3.2 5.6c.64 1.2 4.96-1.28 4.24-2.48zm40.56-147.36-5.6 3.2c-1.2.64 1.28 4.96 2.48 4.24l5.6-3.28c1.2-.56-1.28-4.8-2.48-4.16M28.16 441.92l-5.6 3.28c-1.2.64 1.28 4.88 2.48 4.24l5.6-3.28c1.2-.64-1.28-4.96-2.48-4.24m65.6-158.4c-.32-1.28-5.12 0-4.72 1.28l1.68 6.24c.32 1.28 5.12 0 4.72-1.28zm55.92 208.72c-.32-1.28-5.12 0-4.72 1.28l1.68 6.24c.32 1.28 5.12 0 4.72-1.28zm77.36-131.76-6.24 1.68c-1.28.32 0 5.12 1.28 4.72l6.24-1.68c1.28-.32 0-5.04-1.28-4.72M117.68 280.4v6.48c0 1.36 4.88 1.36 4.88 0v-6.48c.08-1.36-4.8-1.36-4.88 0m0 216v6.48c0 1.36 4.88 1.36 4.88 0v-6.48c.08-1.36-4.88-1.36-4.88 0m113.76-107.2h-6.48c-1.36 0-1.36 4.88 0 4.88h6.48c1.36 0 1.36-4.88 0-4.88m-84.8-105.68-1.68 6.24c-.32 1.28 4.4 2.56 4.72 1.28l1.68-6.24c.32-1.28-4.4-2.56-4.72-1.28M90.72 492.24l-1.68 6.24c-.32 1.28 4.4 2.56 4.72 1.28l1.68-6.24c.32-1.36-4.4-2.56-4.72-1.28m137.6-74.16-6.24-1.68c-1.28-.32-2.56 4.4-1.28 4.72l6.24 1.68c1.28.32 2.56-4.4 1.28-4.72m-54.64-124-3.28 5.6c-.64 1.2 3.6 3.6 4.24 2.48l3.28-5.6c.72-1.2-3.52-3.68-4.24-2.48m-108 187.12-3.28 5.6c-.64 1.2 3.6 3.6 4.24 2.48l3.28-5.6c.64-1.2-3.6-3.68-4.24-2.48m144-35.04 5.6 3.2c1.2.64 3.6-3.6 2.48-4.24l-5.6-3.28c-1.2-.64-3.6 3.68-2.48 4.32m-9.12 22.4L196 464c-.96-.96-4.4 2.48-3.44 3.44l4.56 4.56c.96 1.04 4.4-2.48 3.44-3.44" style="fill:#bdc2ce"/><path d="M44.24 311.6C10.48 345.36 2 394.96 18.88 436.56c7.76-3.68 11.52-12.32 9.6-20.64-7.52-32.56 1.36-68.16 26.64-93.44 5.76-5.76 5.92-14.88.72-20.88-4 3.12-7.92 6.32-11.6 10m6.08 120.72-20.16 28.96c-1.28 1.92-1.36 4.08-.08 5.36l15.2 15.2c1.28 1.28 3.44 1.2 5.36-.08L79.6 461.6c3.52-3.52 4.24-8.56 1.52-11.28L61.6 430.8c-2.72-2.72-7.76-2-11.28 1.52" class="j"/></svg>