<svg xmlns="http://www.w3.org/2000/svg" data-name="Layer 1" style="" viewBox="0 0 512 358.4"><g><defs><linearGradient id="1770301554666-3188139_b" x1="338.93" x2="338.93" y1="94.93" y2="181.44" gradientTransform="matrix(1 0 0 -1 0 342.4)" gradientUnits="userSpaceOnUse"><stop offset="0" stop-color="#cf0000"></stop><stop offset="1" stop-color="#ff000e"></stop></linearGradient></defs><path d="M40.01 179.2h448.97V256H40.01z" fill="#93b2bd"></path><path d="M25.6 247.47h469.33v68.27H25.6z" fill="#45332c"></path><path d="M486.4 247.47H512V358.4h-25.6zM25.6 0H0s22.17 125.87 17.07 247.47C14.81 301.06 0 358.4 0 358.4h25.6s14.81-57.34 17.07-110.93C47.77 125.87 25.6 0 25.6 0" fill="#593f36"></path><path d="M486.14 160.96H174.53v86.5h328.45s4.22-86.5-16.84-86.5" fill="url(#1770301554666-3188139_b)"></path><path d="M242.8 160.96c0-12.18-68.27-14.79-68.27 0v86.5h68.27z" fill="#f46c60"></path><path d="M179.64 169.9c-12.25 36.33-139.34 15.69-144.32-50.06-2.06-27.19 27.55-35.87 67.11 7.41 22.27 24.36 88.41 9.41 77.2 42.65Z" fill="#e6ebef"></path></g></svg>
