<svg xmlns="http://www.w3.org/2000/svg" data-name="Layer 1" style="" viewBox="0 0 512 590.77"><g><defs><linearGradient id="1770301555116-4869177_b" x1="24.68" x2="486.89" y1="248.79" y2="248.79" gradientTransform="matrix(1 0 0 -1 0 592.77)" gradientUnits="userSpaceOnUse"><stop offset="0" stop-color="#0085d4"></stop><stop offset=".19" stop-color="#0082ce"></stop><stop offset=".43" stop-color="#0078be"></stop><stop offset=".69" stop-color="#0067a4"></stop><stop offset=".98" stop-color="#005180"></stop><stop offset="1" stop-color="#004f7d"></stop></linearGradient><linearGradient id="1770301555116-4869177_c" x1="0" x2="512" y1="515.97" y2="515.97" gradientTransform="matrix(1 0 0 -1 0 592.77)" gradientUnits="userSpaceOnUse"><stop offset="0" stop-color="#009cfa"></stop><stop offset=".24" stop-color="#0099f5"></stop><stop offset=".53" stop-color="#008fe5"></stop><stop offset=".86" stop-color="#0080cc"></stop><stop offset="1" stop-color="#0078bf"></stop></linearGradient><linearGradient id="1770301555116-4869177_d" x1="26.9" x2="485.1" y1="526.07" y2="526.07" gradientTransform="matrix(1 0 0 -1 0 592.77)" gradientUnits="userSpaceOnUse"><stop offset="0" stop-color="#00314d"></stop><stop offset=".23" stop-color="#004065"></stop><stop offset=".5" stop-color="#004d7b"></stop><stop offset=".76" stop-color="#058"></stop><stop offset="1" stop-color="#00588c"></stop></linearGradient><linearGradient id="1770301555116-4869177_e" x1="26.9" x2="485.1" y1="554.46" y2="554.46" gradientTransform="matrix(1 0 0 -1 0 592.77)" gradientUnits="userSpaceOnUse"><stop offset="0" stop-color="#004066"></stop><stop offset=".21" stop-color="#004b78"></stop><stop offset=".63" stop-color="#0068a6"></stop><stop offset="1" stop-color="#0085d4"></stop></linearGradient><linearGradient id="1770301555116-4869177_f" x1="337.13" x2="394.5" y1="448.98" y2="448.98" gradientTransform="matrix(1 0 0 -1 0 592.77)" gradientUnits="userSpaceOnUse"><stop offset="0" stop-color="#00314d"></stop><stop offset=".23" stop-color="#004065"></stop><stop offset=".5" stop-color="#004d7b"></stop><stop offset=".76" stop-color="#058"></stop><stop offset="1" stop-color="#00588c"></stop></linearGradient><linearGradient id="1770301555116-4869177_g" x1="341.63" x2="392.34" y1="447.07" y2="447.07" gradientTransform="matrix(1 0 0 -1 0 592.77)" gradientUnits="userSpaceOnUse"><stop offset="0" stop-color="#0085d4"></stop><stop offset=".21" stop-color="#0082cf"></stop><stop offset=".47" stop-color="#0078bf"></stop><stop offset=".76" stop-color="#0068a6"></stop><stop offset="1" stop-color="#00588c"></stop></linearGradient><linearGradient id="1770301555116-4869177_h" x1="34.51" x2="303.82" y1="459.02" y2="276.82" gradientTransform="matrix(1 0 0 -1 0 592.77)" gradientUnits="userSpaceOnUse"><stop offset="0" stop-color="#2f7e96"></stop><stop offset=".03" stop-color="#3589a4"></stop><stop offset=".1" stop-color="#409cbf"></stop><stop offset=".18" stop-color="#49add5"></stop><stop offset=".27" stop-color="#50bae6"></stop><stop offset=".39" stop-color="#54c3f1"></stop><stop offset=".55" stop-color="#57c8f8"></stop><stop offset="1" stop-color="#58c9fa"></stop></linearGradient><linearGradient id="1770301555116-4869177_i" x1="-5.41" x2="112.99" y1="356.36" y2="276.25" gradientTransform="matrix(1 0 0 -1 0 592.77)" gradientUnits="userSpaceOnUse"><stop offset="0" stop-color="#2f7e96"></stop><stop offset=".25" stop-color="#378daa"></stop><stop offset=".76" stop-color="#4db4df"></stop><stop offset="1" stop-color="#58c9fa"></stop></linearGradient><linearGradient id="1770301555116-4869177_j" x1="98.8" x2="306.15" y1="413.16" y2="272.88" gradientTransform="matrix(1 0 0 -1 0 592.77)" gradientUnits="userSpaceOnUse"><stop offset="0" stop-color="#2f7e96"></stop><stop offset=".25" stop-color="#378daa"></stop><stop offset=".76" stop-color="#4db4df"></stop><stop offset="1" stop-color="#58c9fa"></stop></linearGradient></defs><path d="M486.89 97.41c-5.06-.29-457.16-.29-462.21 0 2.5 18.62 8.47 65.31 8.47 65.31-3.91 26.23-4.52 42.64 6.03 48.32C55.9 347 74.94 512.46 75.14 515.24c3.58 49.6 93.89 75.53 180.87 75.53 86.96-.02 177.27-25.94 180.84-75.54.3-4.1 31.88-282.46 50.04-417.82" fill="url(#1770301555116-4869177_b)"></path><path d="M0 76.8c0-102.4 512-102.4 512 0S0 179.19 0 76.8" fill="url(#1770301555116-4869177_c)"></path><path d="M26.9 66.71c0-79.75 458.2-79.75 458.2 0 0 79.74-458.2 79.74-458.2 0" fill="url(#1770301555116-4869177_d)"></path><path d="M484.49 71.62c.41-1.61.61-3.22.61-4.91 0-82.28-458.2-82.28-458.2 0 0 1.69.22 3.3.61 4.91 18.21-73.13 438.77-73.13 456.98 0" fill="url(#1770301555116-4869177_e)"></path><circle cx="365.81" cy="143.79" r="28.68" fill="url(#1770301555116-4869177_f)"></circle><ellipse cx="366.99" cy="145.7" rx="25.35" ry="26.78" fill="url(#1770301555116-4869177_g)"></ellipse><path d="M351.36 137.6C199.65 484.98-35.81 398.83 39.18 211.04c-1.63-21.9-6.03-48.32-6.03-48.32-96.96 229.44 128.58 402.06 349.66-7.87 11.56-21.43-22.4-37.98-31.45-17.25" fill="url(#1770301555116-4869177_h)"></path><path d="M42.2 235.69c-1.63-21.9-5.61-49.47-5.61-49.47-16.95 47.39-32.7 147.79 33.31 178.56 0 0-52.8-36.95-27.7-129.09" fill="url(#1770301555116-4869177_i)"></path><path d="M361.21 143.79c-96.42 239.95-281.32 321.28-344 177.19 28.63 118.55 222.56 160.4 364.72-163.7 9.31-21.25-12.74-33.36-20.73-13.49Z" fill="url(#1770301555116-4869177_j)"></path></g></svg>
