<svg xmlns="http://www.w3.org/2000/svg" id="a" data-name="Layer 1" viewBox="0 0 512 426.7"><defs><linearGradient id="c" x1="331.28" x2="331.28" y1="148.42" y2="285.28" gradientTransform="matrix(1 0 0 -1 0 418.69)" gradientUnits="userSpaceOnUse"><stop offset="0" stop-color="#005687"/><stop offset="0" stop-color="#005688"/><stop offset=".25" stop-color="#0f6da3"/><stop offset=".5" stop-color="#1a7cb7"/><stop offset=".75" stop-color="#2086c3"/><stop offset="1" stop-color="#2289c7"/></linearGradient><linearGradient id="d" x1="318.67" x2="511.99" y1="219.47" y2="219.47" gradientTransform="matrix(1 0 0 -1 0 418.69)" gradientUnits="userSpaceOnUse"><stop offset="0" stop-color="#302c3b"/><stop offset=".27" stop-color="#33303e"/><stop offset=".53" stop-color="#3b3b48"/><stop offset=".78" stop-color="#494e59"/><stop offset="1" stop-color="#5b666e"/></linearGradient><linearGradient id="e" x1="258.38" x2="258.38" y1="60.3" y2="133.62" gradientTransform="matrix(1 0 0 -1 0 418.69)" gradientUnits="userSpaceOnUse"><stop offset="0" stop-color="#e6ebef"/><stop offset=".04" stop-color="#e0e6ea"/><stop offset=".3" stop-color="#c1cbd0"/><stop offset=".55" stop-color="#abb8bd"/><stop offset=".79" stop-color="#9eacb2"/><stop offset="1" stop-color="#99a8ae"/></linearGradient><linearGradient id="f" x1="279.07" x2="279.07" y1="272.64" y2="393.84" gradientTransform="matrix(1 0 0 -1 0 418.69)" gradientUnits="userSpaceOnUse"><stop offset="0" stop-color="#302c3b"/><stop offset=".24" stop-color="#41424f"/><stop offset=".74" stop-color="#616b76"/><stop offset="1" stop-color="#6e7b85"/></linearGradient><radialGradient id="b" cx="43.78" cy="-2338.86" r="764.86" fx="43.78" fy="-2338.86" gradientTransform="matrix(.90646 -.4223 -.09306 -.19935 43.34 -219.83)" gradientUnits="userSpaceOnUse"><stop offset=".32" stop-color="#c6cfd4"/><stop offset=".35" stop-color="#d3dadf"/><stop offset=".39" stop-color="#dee4e9"/><stop offset=".45" stop-color="#e5eaee"/><stop offset=".61" stop-color="#e7ecf0"/></radialGradient><style>.l{fill:#6e8189}.m{fill:#99a8ae}.q{fill:#302c3b}</style></defs><path d="M384.23 24.85s-162.04 97.79-214.94 121.2c0 0-102.6 71.91-159.46 136.85-5.94 6.78-15.75 23.59-5.07 46 231.69-47.49 507.23-69.17 507.23-69.17V0s-74.45 0-127.77 24.85Z" style="fill:url(#b)"/><path d="M236.45 287.29c75.7-6.84 275.54-6.4 275.54-6.4V133.41s-253.61 28.01-275.54 153.88" style="fill:#c6cfd4"/><path d="M150.57 270.27s164.79-134.36 361.42-136.85c-162.03 27.73-236.21 112.81-236.21 112.81-81.54 11-125.21 24.05-125.21 24.05Z" style="fill:url(#c)"/><path d="m511.99 242.72-193.33 1.37s70.18-72.45 193.33-89.73z" style="fill:url(#d)"/><path d="M222.19 358.39h289.8v42.67h-289.8z" class="q"/><ellipse cx="460.74" cy="383.99" class="l" rx="42.71" ry="42.67"/><circle cx="460.74" cy="383.99" r="34.17" class="m"/><circle cx="460.74" cy="383.99" r="17.08" class="l"/><circle cx="306.99" cy="383.99" r="42.71" class="l"/><circle cx="306.99" cy="383.99" r="34.17" class="m"/><circle cx="306.99" cy="383.99" r="17.08" class="l"/><path d="M409.49 409.59h-51.25l-8.55-25.6h68.33z" class="l"/><path d="M460.74 375.46H306.99c-11.38 0-11.38 17.07 0 17.07h153.76c11.37 0 11.37-17.07 0-17.07Z" style="fill:#4e5e67"/><path d="M4.77 328.9s15.74 29.49 43.8 29.49h463.42v-84.44h-162.3c-133.88 0-237.46 30.58-344.92 54.94Z" style="fill:url(#e)"/><path d="M221.58 358.39H93.04l51.25 42.67h77.29c75.93 0 72.69-34.13 290.42-34.13V332.8c-226.29 0-223.04 25.6-290.42 25.6Z" class="q"/><path d="M384.23 24.85c-39.48 11.98-189.94 94.96-214.94 121.2 5.96 0 135.57-46.78 214.57-55.31 7.42-.8 5.73-62.22.37-65.89" style="fill:url(#f)"/><path d="M152.47 158.1c-14.35 5.21-54.19 34.79-65.98 51.63 45.69-10.12 65.98-51.63 65.98-51.63" style="fill:#f9b700"/><path d="M93.03 358.39c13.89-10.45 30.65-28.43 36.49-58.38-31.76-53.84-71.85-65.17-71.85-65.17s43.73 19.25 65.93 66.46c-.3 13.86-12.87 35.58-30.57 57.09" class="m"/></svg>