<svg xmlns="http://www.w3.org/2000/svg" data-name="Layer 1" style="" viewBox="0 0 512 368"><g><defs><linearGradient id="1770301554673-5293759_b" x1="256" x2="256" y1="39.34" y2="347.44" gradientTransform="matrix(1 0 0 -1 0 356)" gradientUnits="userSpaceOnUse"><stop offset="0" stop-color="#f9c802"></stop><stop offset="1" stop-color="#ffe600"></stop></linearGradient><linearGradient id="1770301554673-5293759_c" x1="51.96" x2="51.96" y1="167.72" y2="304.87" gradientTransform="matrix(1 0 0 -1 0 356)" gradientUnits="userSpaceOnUse"><stop offset="0" stop-color="#302c3b"></stop><stop offset=".29" stop-color="#454754"></stop><stop offset=".76" stop-color="#636d78"></stop><stop offset="1" stop-color="#6e7b85"></stop></linearGradient><linearGradient id="1770301554673-5293759_d" x1="176.3" x2="176.3" y1="212.98" y2="304.87" gradientTransform="matrix(1 0 0 -1 0 356)" gradientUnits="userSpaceOnUse"><stop offset="0" stop-color="#302c3b"></stop><stop offset=".29" stop-color="#454754"></stop><stop offset=".76" stop-color="#636d78"></stop><stop offset="1" stop-color="#6e7b85"></stop></linearGradient><linearGradient id="1770301554673-5293759_e" x1="304.6" x2="304.6" y1="212.98" y2="304.87" gradientTransform="matrix(1 0 0 -1 0 356)" gradientUnits="userSpaceOnUse"><stop offset="0" stop-color="#302c3b"></stop><stop offset=".29" stop-color="#454754"></stop><stop offset=".76" stop-color="#636d78"></stop><stop offset="1" stop-color="#6e7b85"></stop></linearGradient><linearGradient id="1770301554673-5293759_f" x1="428.63" x2="428.63" y1="212.98" y2="304.87" gradientTransform="matrix(1 0 0 -1 0 356)" gradientUnits="userSpaceOnUse"><stop offset="0" stop-color="#302c3b"></stop><stop offset=".29" stop-color="#454754"></stop><stop offset=".76" stop-color="#636d78"></stop><stop offset="1" stop-color="#6e7b85"></stop></linearGradient><radialGradient id="1770301554673-5293759_g" cx="12.69" cy="79.42" r="44.42" fx="12.69" fy="79.42" gradientTransform="matrix(1.15 0 0 -1.16 84.35 408.47)" gradientUnits="userSpaceOnUse"><stop offset=".49" stop-color="#5b666e"></stop><stop offset=".64" stop-color="#525a64"></stop><stop offset=".92" stop-color="#3c3b49"></stop><stop offset="1" stop-color="#343040"></stop></radialGradient><radialGradient id="1770301554673-5293759_h" cx="277.37" cy="79.42" r="44.42" fx="277.37" fy="79.42" gradientTransform="matrix(1.15 0 0 -1.16 84.35 408.47)" gradientUnits="userSpaceOnUse"><stop offset=".49" stop-color="#5b666e"></stop><stop offset=".64" stop-color="#525a64"></stop><stop offset=".92" stop-color="#3c3b49"></stop><stop offset="1" stop-color="#343040"></stop></radialGradient></defs><path d="M274.5 0H73.97c-7.82 0-14.23 6.42-14.23 14.26h228.98c0-7.84-6.4-14.26-14.22-14.26" class="p" fill="#cfd8dd"></path><path d="M512 23.22c0-8.54-6.42-14.66-17.43-14.66H45.37c-11.32 0-18.95 8.94-25.61 25.46H512V23.23Z" class="x" fill="#e6ebef"></path><path d="M19.76 34.01c-1.67 3.45-2.69 6.5-2.69 8.56L0 196.84v94.14c0 16.51 9.02 25.67 21.12 25.67h451.2c14.08 0 39.68-35.54 39.68-41.17V34.02H19.76Z" fill="url(#1770301554673-5293759_b)"></path><path d="M2.13 210.03h27.52v25.67H2.13z" class="x" fill="#e6ebef"></path><path d="M173.12 262.1h68.26v42.8h-68.26z" class="v" fill="#f9b700"></path><path d="M173.12 262.1h4.01v42.8h-4.01zm8.03 0h4.01v42.8h-4.01zm8.03 0h4.01v42.8h-4.01zm8.04 0h4.01v42.8h-4.01zm8.02 0h4.02v42.8h-4.02zm8.03 0h4.02v42.8h-4.02zm8.04 0h4.01v42.8h-4.01zm8.03 0h4.01v42.8h-4.01zm8.04 0h4.01v42.8h-4.01z" class="w" fill="#4e5e67"></path><path d="M283.12 290.98h17.07v17.11h-17.07z" class="p" fill="#cfd8dd"></path><path d="M284.18 292.05h14.93v6.42h-14.93z" fill="#fff"></path><path d="M46.72 210.03c4.7 0-3.83 25.67-8.53 25.67h-8.54v-25.67z" fill="#f59e01"></path><path d="M19.75 34.01S1.7 65.1 0 205.38h24.11c35.06 0 89.61-45.25 89.61-45.25h370.33c10.12 0 13-8.77 13-13.1V34.01z" class="r" fill="#1a1626"></path><path d="M8.53 239.62 0 241.77h29.65v74.89h2.13v-74.89h134.4v74.89h2.14v-74.89h77.86v74.89h2.14v-74.89h86.4v74.89h2.13v-74.89h134.4v74.89h2.13v-74.89H512v-2.15z" class="v" fill="#f9b700"></path><path d="M13.98 51.13h89.63v91.89s-52.85 45.26-87.91 45.26H.3C.3 91.93 13.99 51.13 13.99 51.13Z" fill="url(#1770301554673-5293759_c)"></path><path d="M120.69 51.13h111.22v91.89H120.69z" fill="url(#1770301554673-5293759_d)"></path><path d="M248.98 51.13h111.23v91.89H248.98z" fill="url(#1770301554673-5293759_e)"></path><path d="M377.28 51.13v91.89h89.7c10.12 0 13-8.74 13-13.08V51.13z" fill="url(#1770301554673-5293759_f)"></path><path d="M27.78 23.87v46.09l12.54 6.84V23.87c0-8.54-12.54-8.5-12.54 0" fill="#f9c802"></path><path d="M27.78 128.7c0 2.35 1.92 4.27 4.26 4.27h21.37a4.28 4.28 0 0 0 4.27-4.27V74.24c0-2.35-1.92-4.28-4.27-4.28H27.78z" class="v" fill="#f9b700"></path><path d="M98.96 256.75c-32.97-.03-59.69 26.77-59.71 59.84v.06h119.47c0-33.13-26.74-59.9-59.76-59.9" class="r" fill="#1a1626"></path><ellipse cx="98.98" cy="316.66" rx="51.2" ry="51.34" fill="url(#1770301554673-5293759_g)"></ellipse><ellipse cx="98.99" cy="316.66" class="x" rx="35.84" ry="35.94" fill="#e6ebef"></ellipse><path d="M129.61 327.1c1.12-3.28 1.75-6.8 1.75-10.44s-.63-7.17-1.75-10.44l-18 10.44zm-24.33-21.43 18-10.41c-4.59-5.26-10.87-9.05-18-10.46v20.86Zm-36.93.55c-1.13 3.26-1.74 6.78-1.74 10.44s.62 7.16 1.74 10.42l18.01-10.42zm36.93 21.39v20.87c7.14-1.41 13.41-5.18 18.03-10.46l-18.03-10.42Zm-12.62-21.92v-20.87c-7.11 1.41-13.4 5.18-18 10.46l18 10.42Zm0 21.93-18 10.41c4.62 5.26 10.89 9.05 18 10.46v-20.86Z" class="w" fill="#4e5e67"></path><path d="M125.36 316.66c0 14.61-11.8 26.44-26.38 26.44s-26.4-11.83-26.4-26.44 11.82-26.46 26.4-26.46 26.38 11.83 26.38 26.46" class="p" fill="#cfd8dd"></path><path d="M101.15 297.1c0 2.87-4.32 2.87-4.32 0s4.32-2.9 4.32 0m0 39.1c0 2.89-4.32 2.89-4.32 0s4.32-2.87 4.32 0m15.8-27.48c-2.47 1.42-4.6-2.28-2.14-3.7 2.45-1.41 4.6 2.28 2.14 3.7m-33.79 19.56c-2.45 1.44-4.59-2.28-2.11-3.72 2.46-1.42 4.58 2.3 2.11 3.72m31.66 0c-2.46-1.42-.33-5.14 2.11-3.7 2.46 1.42.33 5.11-2.11 3.7m-33.8-19.56c-2.46-1.42-.31-5.11 2.14-3.7 2.46 1.42.33 5.13-2.14 3.7" class="w" fill="#4e5e67"></path><path d="M118.42 316.66c0 10.75-8.74 19.47-19.46 19.47s-19.42-8.72-19.42-19.47 8.7-19.49 19.42-19.49 19.46 8.72 19.46 19.49" class="x" fill="#e6ebef"></path><path d="M404.02 256.75c-32.96-.03-59.68 26.77-59.7 59.84v.06h119.46c0-33.13-26.74-59.9-59.76-59.9" class="r" fill="#1a1626"></path><ellipse cx="404.05" cy="316.66" rx="51.2" ry="51.34" fill="url(#1770301554673-5293759_h)"></ellipse><path d="M439.89 316.66c0 19.84-16.04 35.94-35.86 35.94s-35.81-16.1-35.81-35.94 16.03-35.95 35.81-35.95 35.86 16.1 35.86 35.95" class="x" fill="#e6ebef"></path><path d="M434.67 327.1c1.12-3.28 1.74-6.8 1.74-10.44s-.62-7.17-1.74-10.44l-18.02 10.44zm-24.32-21.43 18-10.41c-4.6-5.26-10.87-9.05-18-10.46v20.86Zm-36.93.55c-1.13 3.26-1.74 6.78-1.74 10.44s.62 7.16 1.74 10.42l18.01-10.42zm36.93 21.39v20.87c7.14-1.41 13.4-5.18 18.02-10.46l-18.02-10.42Zm-12.62-21.92v-20.87c-7.11 1.41-13.4 5.18-18 10.46l18 10.42Zm0 21.93-18 10.41c4.62 5.26 10.89 9.05 18 10.46v-20.86Z" class="w" fill="#4e5e67"></path><path d="M430.42 316.66c0 14.61-11.8 26.44-26.4 26.44s-26.38-11.83-26.38-26.44 11.83-26.46 26.38-26.46 26.4 11.83 26.4 26.46" class="p" fill="#cfd8dd"></path><path d="M406.22 297.1c0 2.87-4.33 2.87-4.33 0s4.33-2.9 4.33 0m0 39.1c0 2.89-4.33 2.89-4.33 0s4.33-2.87 4.33 0m15.77-27.48c-2.47 1.42-4.6-2.28-2.12-3.7 2.46-1.41 4.58 2.28 2.12 3.7m-33.77 19.56c-2.46 1.44-4.6-2.28-2.14-3.72 2.46-1.42 4.61 2.3 2.14 3.72m31.63 0c-2.46-1.42-.33-5.14 2.14-3.7 2.46 1.42.34 5.11-2.14 3.7m-33.75-19.56c-2.47-1.42-.32-5.11 2.14-3.7 2.46 1.42.31 5.13-2.14 3.7" class="w" fill="#4e5e67"></path><path d="M423.48 316.66c0 10.75-8.73 19.47-19.46 19.47s-19.41-8.72-19.41-19.47 8.7-19.49 19.41-19.49 19.46 8.72 19.46 19.49" class="x" fill="#e6ebef"></path><path d="M503.47 213.95v25.67c0 4.7 3.85 8.56 8.53 8.56v-42.8c-4.68 0-8.53 3.86-8.53 8.57" fill="#e81c27"></path></g></svg>
