<svg xmlns="http://www.w3.org/2000/svg" data-name="Layer 1" style="" viewBox="0 0 512 409.6"><g><defs><linearGradient id="1770301554677-1239151_b" x1="36.96" x2="96.81" y1="311.66" y2="311.66" gradientTransform="matrix(1 0 0 -1 0 424.4)" gradientUnits="userSpaceOnUse"><stop offset="0" stop-color="#d6e5ed"></stop><stop offset=".05" stop-color="#d1e0e7"></stop><stop offset=".48" stop-color="#a8b2b8"></stop><stop offset=".81" stop-color="#8f969a"></stop><stop offset="1" stop-color="#858c8f"></stop></linearGradient><linearGradient id="1770301554677-1239151_c" x1="8.56" x2="503.52" y1="142.84" y2="142.84" gradientTransform="matrix(1 0 0 -1 0 424.4)" gradientUnits="userSpaceOnUse"><stop offset=".9" stop-color="#323844"></stop><stop offset="1" stop-color="#1a1626"></stop></linearGradient><linearGradient id="1770301554677-1239151_d" x1="8.56" x2="503.52" y1="23.32" y2="23.32" gradientTransform="matrix(1 0 0 -1 0 424.4)" gradientUnits="userSpaceOnUse"><stop offset="0" stop-color="#7b8589"></stop><stop offset=".01" stop-color="#8d979b"></stop><stop offset=".03" stop-color="#aab3b8"></stop><stop offset=".06" stop-color="#bec8cc"></stop><stop offset=".08" stop-color="#cbd4d9"></stop><stop offset=".1" stop-color="#cfd8dd"></stop><stop offset=".9" stop-color="#cfd8dd"></stop><stop offset=".92" stop-color="#cbd4d9"></stop><stop offset=".94" stop-color="#bec8cc"></stop><stop offset=".97" stop-color="#aab3b8"></stop><stop offset=".99" stop-color="#8d979b"></stop><stop offset="1" stop-color="#7b8589"></stop></linearGradient><linearGradient id="1770301554677-1239151_e" x1="8.48" x2="503.44" y1="287.88" y2="287.88" gradientTransform="matrix(1 0 0 -1 0 424.4)" gradientUnits="userSpaceOnUse"><stop offset="0" stop-color="#7b8589"></stop><stop offset=".01" stop-color="#8d979b"></stop><stop offset=".03" stop-color="#aab3b8"></stop><stop offset=".06" stop-color="#bec8cc"></stop><stop offset=".08" stop-color="#cbd4d9"></stop><stop offset=".1" stop-color="#cfd8dd"></stop><stop offset=".9" stop-color="#cfd8dd"></stop><stop offset=".92" stop-color="#cbd4d9"></stop><stop offset=".94" stop-color="#bec8cc"></stop><stop offset=".97" stop-color="#aab3b8"></stop><stop offset=".99" stop-color="#8d979b"></stop><stop offset="1" stop-color="#7b8589"></stop></linearGradient><linearGradient id="1770301554677-1239151_g" x1="267.63" x2="397.97" y1="221.09" y2="90.75" gradientTransform="matrix(1 0 0 -1 0 424.4)" gradientUnits="userSpaceOnUse"><stop offset="0" stop-color="#302c3b"></stop><stop offset=".47" stop-color="#312e3d"></stop><stop offset=".75" stop-color="#363742"></stop><stop offset=".97" stop-color="#3f454b"></stop><stop offset="1" stop-color="#40474d"></stop></linearGradient><linearGradient id="1770301554677-1239151_i" x1="8.56" x2="156.4" y1="142.84" y2="142.84" gradientTransform="matrix(1 0 0 -1 0 424.4)" gradientUnits="userSpaceOnUse"><stop offset="0" stop-color="#302c3b"></stop><stop offset=".02" stop-color="#33313f"></stop><stop offset=".1" stop-color="#3f4551"></stop><stop offset=".19" stop-color="#47535d"></stop><stop offset=".31" stop-color="#4c5b65"></stop><stop offset=".5" stop-color="#4e5e67"></stop><stop offset=".63" stop-color="#4a5862"></stop><stop offset=".8" stop-color="#414853"></stop><stop offset="1" stop-color="#302c3b"></stop><stop offset="1" stop-color="#302c3b"></stop></linearGradient><linearGradient id="1770301554677-1239151_j" x1="138.92" x2="138.92" y1="146.56" y2="424.4" gradientTransform="matrix(1 0 0 -1 0 424.4)" gradientUnits="userSpaceOnUse"><stop offset="0" stop-color="#ff4d00"></stop><stop offset=".3" stop-color="#ff7400"></stop><stop offset=".58" stop-color="#ff9200"></stop><stop offset=".83" stop-color="#ffa400"></stop><stop offset="1" stop-color="#fa0"></stop></linearGradient><linearGradient id="1770301554677-1239151_k" x1="138.04" x2="138.04" y1="212.88" y2="362.72" gradientTransform="matrix(1 0 0 -1 0 424.4)" gradientUnits="userSpaceOnUse"><stop offset="0" stop-color="#ffb500"></stop><stop offset=".09" stop-color="#ffba00"></stop><stop offset=".67" stop-color="#ffda00"></stop><stop offset="1" stop-color="#ffe600"></stop></linearGradient><linearGradient id="1770301554677-1239151_l" x1="138.04" x2="138.04" y1="256.08" y2="319.52" gradientTransform="matrix(1 0 0 -1 0 424.4)" gradientUnits="userSpaceOnUse"><stop offset="0" stop-color="#fff1a3"></stop><stop offset=".16" stop-color="#fff4b6"></stop><stop offset=".53" stop-color="#fffade"></stop><stop offset=".82" stop-color="#fffef6"></stop><stop offset="1" stop-color="#fff"></stop></linearGradient><radialGradient id="1770301554677-1239151_f" cx="-205.28" cy="563.25" r="132.28" fx="-205.28" fy="563.25" gradientTransform="rotate(45 4467.258 -2205.03) scale(1 -6)" gradientUnits="userSpaceOnUse"><stop offset=".23" stop-color="#effaff"></stop><stop offset=".37" stop-color="#e7f2f7"></stop><stop offset=".59" stop-color="#d1dce1"></stop><stop offset=".85" stop-color="#adb9bd"></stop><stop offset="1" stop-color="#96a2a6"></stop></radialGradient><radialGradient id="1770301554677-1239151_h" cx="1482.84" cy="845.76" r="216.05" fx="1482.84" fy="845.76" gradientTransform="rotate(-52.41 -195.087 -784.49) scale(.59 -.66)" gradientUnits="userSpaceOnUse"><stop offset="0" stop-color="#fff" stop-opacity=".2"></stop><stop offset="1" stop-color="#fff" stop-opacity="0"></stop></radialGradient></defs><path d="M0 170.64h17.04v8.56H0zm494.96 0H512v8.56h-17.04z" class="x" fill="#cfd8dd"></path><path d="M96.72 120.56H36.96s3.44-11.04 7.76-12.8c10.24-4.16 34.08-4.16 44.32 0 4.64 1.92 8.4 15.2 7.68 12.8" fill="url(#1770301554677-1239151_b)"></path><path d="M58.08 103.44H75.6v17.04H58.08z" class="x" fill="#cfd8dd"></path><path d="M8.56 170.64h494.96v221.84H8.56z" fill="url(#1770301554677-1239151_c)"></path><path d="M486.64 409.6H25.36c-16.8 0-16.8-17.04-16.8-17.04h494.96c-.08 0-.08 17.04-16.88 17.04" fill="url(#1770301554677-1239151_d)"></path><path d="m503.44 110.48-12.64-8.08h-244c-43.36 0-48.88 18-90.48 18H17.04c-8.56 0-8.56 7.28-8.56 7.28v42.96h494.96z" fill="url(#1770301554677-1239151_e)"></path><path d="M253.2 365.36c0 12.64-10.24 22.96-22.96 22.96s-22.96-10.24-22.96-22.96 10.24-22.88 22.96-22.88c12.72-.08 22.96 10.24 22.96 22.88" fill="#99a8ae"></path><path d="M247.12 365.36c0 9.28-7.52 16.88-16.88 16.88s-16.88-7.52-16.88-16.88 7.52-16.8 16.88-16.8c9.36-.08 16.88 7.44 16.88 16.8" fill="#302c3b"></path><circle cx="332.8" cy="268.48" r="132.24" fill="url(#1770301554677-1239151_f)"></circle><circle cx="332.85" cy="268.45" r="116.25" class="z" fill="#1a1626"></circle><path d="M436.96 268.48c0 57.52-46.64 104.16-104.16 104.16S228.56 326 228.56 268.48 275.2 164.24 332.8 164.24s104.16 46.64 104.16 104.24" fill="#25222e"></path><circle cx="332.8" cy="268.48" r="92.16" fill="url(#1770301554677-1239151_g)"></circle><path d="M390.32 268.48c0 31.76-25.76 57.52-57.52 57.52s-57.52-25.76-57.52-57.52 25.76-57.52 57.52-57.52 57.52 25.76 57.52 57.52" style="isolation:isolate" opacity=".2" fill="#302c3b"></path><path d="M392.88 268.48c0 33.2-26.88 60.08-60.08 60.08s-60.16-26.88-60.16-60.08 26.88-60.08 60.16-60.08c33.2-.08 60.08 26.88 60.08 60.08" class="y" fill="#35313d"></path><path d="M380.88 268.48c0 26.56-21.52 48.08-48.08 48.08s-48.08-21.52-48.08-48.08 21.52-48.08 48.08-48.08c26.56-.08 48.08 21.52 48.08 48.08" fill="#272430"></path><path d="M368.88 268.48c0 19.92-16.16 36.08-36.08 36.08s-36.08-16.16-36.08-36.08 16.16-36.08 36.08-36.08 36.08 16.08 36.08 36.08" fill="#2d2a36"></path><path d="M356.88 268.48c0 13.28-10.8 24.08-24.08 24.08s-24.08-10.8-24.08-24.08 10.8-24.08 24.08-24.08 24.08 10.8 24.08 24.08" class="y" fill="#35313d"></path><path d="M340.8 268.48c0 4.4-3.6 8-8 8s-8-3.6-8-8 3.6-8 8-8c4.4-.08 8 3.52 8 8" class="z" fill="#1a1626"></path><path d="M361.04 308.72c-32.32 24.88-76.4 21.84-98.48-6.88s-13.84-72.16 18.48-97.04c32.32-24.96 76.48-21.84 98.56 6.88 22.16 28.72 13.84 72.16-18.56 97.04" fill="url(#1770301554677-1239151_h)"></path><path d="M8.56 170.64H156.4v221.84H8.56z" fill="url(#1770301554677-1239151_i)"></path><path d="m194.08 153.76 83.76-46.48-94 4.08 27.92-57.68-50.88 36.24 6.24-79.52-37.04 65.52L74.32 0l23.92 94.64-83.6-27.84 66.64 60.96L0 143.52l77.92 17.76-43.68 78 71.52-43.2 2.96 81.76L138 203.2l39.44 59.04-2.24-70.96 67.92 25.92z" fill="url(#1770301554677-1239151_j)"></path><path d="m169.76 146.72 49.04-22.8-54.4-1.6L178.96 90l-28.8 16.48 1.04-44-19.36 36.72-29.12-37.52 12.72 47.2-48.56-12.24 39.68 34.24-49.28 11.52 45.12 10.4-31.84 48.8 48.8-33.04 1.36 42.96 17.52-39.2L158 201.6l-.32-35.52 35.68 15.6z" fill="url(#1770301554677-1239151_k)"></path><path d="m151.44 140.88 20.8-9.6-23.04-.72 6.16-13.68-12.16 6.96.4-18.64-8.16 15.52-12.32-15.84 5.36 20-20.56-5.2 16.8 14.48-20.88 4.96 19.12 4.4-13.44 20.64 20.64-14 .56 18.16 7.36-16.64 8.4 12.48-.08-15.04 15.04 6.64z" fill="url(#1770301554677-1239151_l)"></path></g></svg>
