<svg xmlns="http://www.w3.org/2000/svg" data-name="Layer 1" style="" viewBox="0 0 512 548.57"><g><defs><linearGradient id="1770301554680-938938_b" x1="30" x2="57.43" y1="1142" y2="1142" gradientTransform="translate(194 -854)" gradientUnits="userSpaceOnUse"><stop offset=".11" stop-color="#ffa900"></stop><stop offset=".33" stop-color="#f9a200"></stop><stop offset=".66" stop-color="#ea8d00"></stop><stop offset="1" stop-color="#d47100"></stop></linearGradient><linearGradient id="1770301554680-938938_d" x1="251.62" x2="251.62" y1="37.36" y2="481.08" gradientTransform="matrix(1 0 0 -1 0 550.57)" gradientUnits="userSpaceOnUse"><stop offset="0" stop-color="#c4ccd1"></stop><stop offset=".08" stop-color="#cdd4d9"></stop><stop offset=".26" stop-color="#dbe1e5"></stop><stop offset=".47" stop-color="#e3e9ed"></stop><stop offset=".84" stop-color="#e6ebef"></stop></linearGradient><linearGradient id="1770301554680-938938_e" x1="225.76" x2="225.76" y1="190.96" y2="259.22" gradientTransform="matrix(1 0 0 -1 0 550.57)" gradientUnits="userSpaceOnUse"><stop offset=".15" stop-color="#bbc2c7"></stop><stop offset=".84" stop-color="#e6ebef" stop-opacity="0"></stop></linearGradient><linearGradient id="1770301554680-938938_f" x1="275.86" x2="275.86" y1="200.15" y2="257.66" gradientTransform="matrix(1 0 0 -1 0 550.57)" gradientUnits="userSpaceOnUse"><stop offset="0" stop-color="#005687"></stop><stop offset="0" stop-color="#005688"></stop><stop offset=".21" stop-color="#0f6da3"></stop><stop offset=".41" stop-color="#1a7cb7"></stop><stop offset=".62" stop-color="#2086c3"></stop><stop offset=".83" stop-color="#2289c7"></stop></linearGradient><linearGradient id="1770301554680-938938_g" x1="200.05" x2="329.57" y1="300.79" y2="300.79" gradientTransform="matrix(1 0 0 -1 0 550.57)" gradientUnits="userSpaceOnUse"><stop offset="0" stop-color="#2289c7"></stop><stop offset=".25" stop-color="#2086c3"></stop><stop offset=".5" stop-color="#1a7cb7"></stop><stop offset=".75" stop-color="#0f6da3"></stop><stop offset="1" stop-color="#005688"></stop><stop offset="1" stop-color="#005687"></stop></linearGradient><linearGradient id="1770301554680-938938_h" x1="79.52" x2="209.6" y1="291.59" y2="291.59" gradientTransform="matrix(1 0 0 -1 0 550.57)" gradientUnits="userSpaceOnUse"><stop offset="0" stop-color="#2289c7"></stop><stop offset=".25" stop-color="#2086c3"></stop><stop offset=".5" stop-color="#1a7cb7"></stop><stop offset=".75" stop-color="#0f6da3"></stop><stop offset="1" stop-color="#005688"></stop><stop offset="1" stop-color="#005687"></stop></linearGradient><radialGradient id="1770301554680-938938_c" cx="35.31" cy="870.76" r="35.7" fx="35.31" fy="870.76" gradientTransform="translate(194 -854)" gradientUnits="userSpaceOnUse"><stop offset=".11" stop-color="#ffa900"></stop><stop offset=".33" stop-color="#f9a200"></stop><stop offset=".66" stop-color="#ea8d00"></stop><stop offset="1" stop-color="#d47100"></stop></radialGradient></defs><path d="M224 27.43h27.43v521.14H224z" fill="url(#1770301554680-938938_b)"></path><path d="M224 512v36.57L251.43 512v-36.57zm0-73.14v36.57l27.43-36.57v-36.57zm0-73.15v36.58l27.43-36.58v-36.57zm0-146.28V256l27.43-36.57v-36.57zm0-73.14v36.57l27.43-36.57v-36.58zm0-73.15v36.57l27.43-36.57V36.57z" style="isolation:isolate" fill="#fbdcad" opacity=".5"></path><path d="M237.71 54.86c-36.57 0-36.57-54.86 0-54.86s36.56 54.86 0 54.86" fill="url(#1770301554680-938938_c)"></path><path d="M253.87 61.7h-32.33c-8.92 0-8.92-13.67 0-13.67h32.33c8.93 0 8.93 13.67 0 13.67" class="ad" fill="#fb9600"></path><path d="M272.9 548.57c0-15.55-70.36-15.55-70.36 0z" class="u" fill="#e68900"></path><path d="M251.89 376.43h-28.36c-10.35 0-10.35-13.67 0-13.67h28.36c10.36 0 10.36 13.67 0 13.67" class="ad" fill="#fb9600"></path><path d="M257.38 363.1h-39.33c-10.35 0-10.35-13.67 0-13.67h39.33c10.35 0 10.35 13.67 0 13.67" class="u" fill="#e68900"></path><path d="M88.92 59.81c20.69 32.73 68.85 57.65 96.75 39.9-4.65-44.93-57.29-60.59-96.75-39.9" class="ab" fill="#784e3b"></path><path d="M105.01 69.28c16.34 36.9 64.11 70.53 98.55 59.63 3.88-45.09-50.71-70.71-98.55-59.63" class="x" fill="#9e6c49"></path><path d="M137.36 88.88c5.98 39.72 34.36 89.11 70.59 87.32 20.2-59.79-21.38-85.92-70.59-87.32" class="ab" fill="#784e3b"></path><path d="M163.81 121.01c-8.81 39.11 6.84 71.82 31.93 96.54 30.13-39.5 11.07-90.65-31.93-96.54m325.65 147.1c13.77-70.61-108.29-91.97-96.93-10.9 87.59-19.77 12.91 91.7 119.46 128-32.67-48.29-31.78-69.59-22.53-117.1" class="x" fill="#9e6c49"></path><path d="M512 385.22c-107.88-30.43-39.61-128-112.91-129.4 84.77-36.5 17.02 88.04 112.91 129.4" class="ab" fill="#784e3b"></path><path d="M455.53 242.69s-30.93-17.47-59.73 11.34c0 0 17.07-54 59.73-11.34" class="ab" fill="#784e3b"></path><path d="M386.23 316.95c54.65 128.13-7.61 100 6.56 163.24 1.8 7.98 34.64-1 31.98-11.77-18.32-31.2 21.19-32.54 21.19-94.9 0-10.99-44.85-29.78-59.73-56.57M22.65 393.76c-9.2 33.3 37.07 36.1 25.22 1.76-7.51-21.74 47.98-55.9 69.45-87.1-53.61-60-75.52 15.98-94.67 85.34" fill="#b3c2c6"></path><path d="M47.86 395.53s-5.23 18.14-13.72 32.36c-1.28 2.16 20.11 15.31 27.04 15.31-.14-15.07 11.34-58.94-13.32-47.66Zm376.89 72.89c-16.43 12.94-26.66 5.33-31.96 11.77-1.25 1.51-5.02 21.75 16.77 29.92 2.7 1.02 26.75-25.2 15.2-41.68Z" class="aa" fill="#302c3b"></path><path d="M494.93 470.56c-3.02-3.02 1.5-13.07 0-17.07-3.73-9.98-28.2-16.73-34.12-25.6-4.89-7.3-.18-31.35-8.54-34.13-25.61-8.54-51.2-34.12-51.2-42.66 0-14.94 17.07-32 17.07-59.73 0-32-20.27-68.27-59.73-68.27-34.14 0-63.48 14.67-85.34 25.6-51.2 8.53-66.49-18.33-76.8-59.74-9.12-36.57-21.33-119.46-85.33-119.46-25.6 0-41.64 20.28-51.67 32.89-10.67 13.41-40.93 40.44-41.81 49.65-2.23 23.29-6.4 33.07 15.64 34.85-.98 6.5 16.53 9.82 18.67-3.25 2.31-14.14 28.8-2.22 43.02-23.23 14.23 55.29-9.45 79.76-9.45 122.43 0 13.56 2.61 24.66 6.92 33.86-21.91-3.2-41.91-8.13-49.59-8.13-9.42 0-14.64 7.83-17.07 16.93C20.64 344.02 0 388.61 0 410.88c0 34.56 25.6 51.15 34.13 51.15 5.33 0 4.52-43.72-2.85-49.25-15.43-11.57 9.19-50.86 19.92-61.58 12.07-12.05 34.13 16.96 68.27 16.96 10.64 0 18.7-5.5 24.84-13.11 17.44 4.34 34.29 4.58 43.43 4.58 44.09 0 89.61-17.07 119.46-17.07 13.51 23.17 41.39 47.96 85.34 59.74 18.43 4.95 35.97 15.11 42.66 25.6 8.18 12.8 25.61 85.33 59.73 85.33 17.07 0 3.02-39.64 0-42.66Z" fill="url(#1770301554680-938938_d)"></path><path d="m302.2 291.36-140.15 2.51s-3.81 42.48-17.74 61.17c17.44 4.34 34.29 4.58 43.43 4.58 44.09 0 89.61-17.07 119.46-17.07-8.43-27.35-5-51.19-5-51.19" fill="url(#1770301554680-938938_e)"></path><path d="M31.28 412.76s-5.69 23.65-14.22 40.71c-1.28 2.59 9.9 20.72 27.58 16.37-.92-25.99 18.94-57.09-13.37-57.09Z" class="z" fill="#4e5e67"></path><path d="M84.85 107.7c-4.37-.19-17.59-.91-17.08 2.78-.9 2.08-.71 6.57 1.32 8.86 7.04-2.43 12.4-5.91 15.76-11.64" fill="#fff"></path><path d="M67.77 110.48c-.9 2.08-.71 6.57 1.32 8.86 13.39-5.23 1.11-20.49-1.32-8.86m-45.33 41.76c1.05 6.81-1.76 14.73-.27 14.66 1.47-.07 13.26-14.86.27-14.66" class="z" fill="#4e5e67"></path><path d="M34.62 190.39q-2.24-2.63-5.33-3.94c23.22-30.34 20.67-27.37 5.33 3.94" fill="#6e8189"></path><path d="M494.93 470.56s-2.86 21.33-22.78 30.91c0 0 5.73 11.75 22.78 11.75s14.57-42.66 0-42.66" class="z" fill="#4e5e67"></path><path d="M177.59 124.56c-44.57-15.95-40.88-68.72-56.75-66.81-9.45 44.25 31.77 66.15 56.75 66.81" class="ab" fill="#784e3b"></path><path d="M33.84 129.68c3.26 22.55 17.58 30.21 17.58 30.21l9-5.11s-16.08-8.5-19.06-33c-1.85-2.49-8.44 6.68-7.52 7.9M73 86.69c9.93 18.8 55.2 37.44 21.79 73.69-1.69 1.83.73 13.92 2.64 12.27 51.09-44.6-7.4-75.89-16.24-94.45-1.84-2.48-9.12 7.29-8.19 8.49" fill="#0182bd"></path><path d="M51.38 167.77c33.55-21.84 64.58-25.72 94.46-87.84.69-2.4-11.44-9.16-12.12-6.78-24.25 56.15-62.91 65.67-84.85 83.55-5.5.09 2.51 11.07 2.51 11.07" fill="#018bc9"></path><path d="M55.92 163.09c0 10.82-16.22 10.82-16.22 0s16.22-10.81 16.22 0m61.57-40.87c0 10.82-16.22 10.82-16.22 0s16.22-10.81 16.22 0" class="r" fill="#f9c802"></path><path d="M294.89 292.91s3.2 32.48-3.02 50.8c0 0-10.84 3.83-35.88 6.71 7.61-22.98 3.34-56.44 3.34-56.44z" fill="url(#1770301554680-938938_f)"></path><path d="M190.08 215.62s9.97 85.36 89.67 85.36c59.79 0 82.02-92.54 59.79-93.87-28.11-1.67-49.82 68.28-149.46 8.51" class="r" fill="#f9c802"></path><path d="M200.05 215.64s19.92 68.27 79.71 68.27c27.41 0 49.82-25.6 49.82-59.73 0-25.61-52.64 40.67-129.53-8.54" fill="url(#1770301554680-938938_g)"></path><path d="M201.72 208.12s-46.93-7.47-112.85 33.84c0 0-21.1 34.16.11 66.49 6.63 10.1 12.39-21.76 15.95-42.69 12.39 13.03 39.88 0 35.89-22.97 13.71 12.97 42.68 5.07 39.85-16 11.46 9.6 43.72 1.33 21.06-18.67Z" fill="url(#1770301554680-938938_h)"></path><path d="M197.74 194.65c-117.07 18.7-123.39 56.48-114.86 61.11 17.12-23.38 91.76-42.82 118.83-47.63 1.01-1.05.8-13.89-3.97-13.48" class="r" fill="#f9c802"></path><path d="M93.87 60.96c-12.8 0-30.32 12.35-17.07 25.6 8.27 8.27 17.76 8.53 25.6 25.6 0 0 7.82-9.24 0-17.07C78.3 71 93.87 60.96 93.87 60.96" class="ab" fill="#784e3b"></path><path d="M85.33 35.36s0 51.2 12.1 51.2c26.49 0 36.29-34.14-12.1-51.2" fill="#e6ebef"></path><path d="M93.87 52.42s0 25.6 8.54 25.6 8.52-17.06-8.54-25.6" fill="#99a8ae"></path><path d="M84.85 107.7c-1.24-1.88-28.93-6.79-17.08 2.78 1.71-4.88 15.14 0 17.08-2.78" class="aa" fill="#302c3b"></path></g></svg>
