<svg xmlns="http://www.w3.org/2000/svg" data-name="Layer 1" style="" viewBox="0 0 512 808.42"><g><defs><radialGradient id="1770301554680-2845638_b" cx="215.58" cy="766.13" r="148.5" fx="215.58" fy="766.13" gradientTransform="matrix(1 0 0 -1 0 810.42)" gradientUnits="userSpaceOnUse"><stop offset="0" stop-color="#5b666e"></stop><stop offset="1" stop-color="#302c3b"></stop></radialGradient><radialGradient id="1770301554680-2845638_c" cx="-945.94" cy="815.62" r="174.45" fx="-945.94" fy="815.62" gradientTransform="matrix(0 -1 -8 0 6700.08 -284.71)" gradientUnits="userSpaceOnUse"><stop offset="0" stop-color="#5b666e"></stop><stop offset=".08" stop-color="#484d58"></stop><stop offset=".17" stop-color="#3b3b48"></stop><stop offset=".26" stop-color="#33303e"></stop><stop offset=".36" stop-color="#302c3b"></stop></radialGradient><radialGradient id="1770301554680-2845638_d" cx="222.32" cy="820.72" r="143.67" fx="222.32" fy="820.72" gradientTransform="matrix(1 0 0 -8 0 6994.26)" gradientUnits="userSpaceOnUse"><stop offset="0" stop-color="#5b666e"></stop><stop offset=".13" stop-color="#484d58"></stop><stop offset=".26" stop-color="#3b3b48"></stop><stop offset=".4" stop-color="#33303e"></stop><stop offset=".55" stop-color="#302c3b"></stop></radialGradient><radialGradient id="1770301554680-2845638_e" cx="-574.66" cy="842.78" r="104.97" fx="-574.66" fy="842.78" gradientTransform="matrix(0 -1 -8 0 6938.77 -312.77)" gradientUnits="userSpaceOnUse"><stop offset="0" stop-color="#5b666e"></stop><stop offset=".06" stop-color="#484d58"></stop><stop offset=".13" stop-color="#3b3b48"></stop><stop offset=".2" stop-color="#33303e"></stop><stop offset=".28" stop-color="#302c3b"></stop></radialGradient><radialGradient id="1770301554680-2845638_f" cx="-1039.24" cy="815.31" r="183.15" fx="-1039.24" fy="815.31" gradientTransform="matrix(0 -1 -8 0 6638.67 -281.96)" gradientUnits="userSpaceOnUse"><stop offset="0" stop-color="#5b666e"></stop><stop offset=".04" stop-color="#484d58"></stop><stop offset=".09" stop-color="#3b3b48"></stop><stop offset=".14" stop-color="#33303e"></stop><stop offset=".19" stop-color="#302c3b"></stop></radialGradient><radialGradient id="1770301554680-2845638_g" cx="915.75" cy="1268.26" r="181.62" fx="915.75" fy="1268.26" gradientTransform="rotate(-52.41 -520.898 -751.827) scale(.59 -.66)" gradientUnits="userSpaceOnUse"><stop offset="0" stop-color="#fff" stop-opacity=".15"></stop><stop offset=".78" stop-color="#fff" stop-opacity="0"></stop></radialGradient></defs><path d="M20.37 796.98c-1.97 2.02 0 11.44 0 11.44h471.27s1.97-9.4 0-11.44c-83.31-84.92-387.97-84.92-471.27 0" fill="#1a1626"></path><circle cx="256" cy="120.08" r="120.08" fill="url(#1770301554680-2845638_b)"></circle><path d="M438.85 620.36c-18.28-21.37-8.04-37.9-46.03-41.63-31.95-12.3-241.7-12.3-273.66 0-37.98 3.73-27.74 20.26-46.03 41.63-11.74 13.73-78.24 31.41-28.75 97.23 31.54 42.67 391.67 42.67 423.21 0 49.5-65.82-17-83.5-28.74-97.23" fill="url(#1770301554680-2845638_c)"></path><path d="M358.8 291.17c-19.23-17.14-186.38-17.14-205.61 0 49.49 179.02-34.02 287.56-34.02 287.56h273.66S309.31 470.2 358.8 291.17" fill="url(#1770301554680-2845638_d)"></path><path d="M396.67 256.04c-55.36-9.98-81.96-34.65-81.96-34.65H197.29s-26.6 24.67-81.96 34.65c-4.82.88-4.82 18.84 0 19.73 24.81 4.58 37.87 15.41 37.87 15.41h205.61s13.07-10.83 37.87-15.41c4.82-.89 4.84-18.85-.01-19.73" fill="url(#1770301554680-2845638_e)"></path><path d="M467.6 717.58H44.4C29.43 732.25 0 736.07 0 752.32c0 12.87 21.38 25.06 21.38 44.67h469.23c0-19.6 21.38-31.8 21.38-44.67 0-16.25-29.43-20.06-44.4-34.74Z" fill="url(#1770301554680-2845638_f)"></path><path d="M264.78 127.45c-27.16 20.95-64.26 18.34-82.8-5.78-18.61-24.14-11.63-60.66 15.54-81.58 27.18-20.97 64.27-18.34 82.85 5.78 18.62 24.16 11.61 60.69-15.59 81.58" fill="url(#1770301554680-2845638_g)"></path></g></svg>
