<svg xmlns="http://www.w3.org/2000/svg" data-name="Layer 1" style="" viewBox="0 0 512 512"><g><defs><linearGradient id="1770301554682-1626247_b" x1="0" x2="512" y1="155.6" y2="155.6" gradientTransform="matrix(1 0 0 -1 0 514)" gradientUnits="userSpaceOnUse"><stop offset="0" stop-color="#6e8189"></stop><stop offset=".36" stop-color="#6c7e86"></stop><stop offset=".61" stop-color="#64767d"></stop><stop offset=".83" stop-color="#58676d"></stop><stop offset="1" stop-color="#4a575c"></stop></linearGradient></defs><path d="M460.8 512H51.2C17.07 512 0 494.93 0 460.8v-256h512v256c0 34.13-17.07 51.2-51.2 51.2" fill="url(#1770301554682-1626247_b)"></path><path d="M17.07 366.93h477.87v8.53H17.07zm0 68.27h477.87v8.53H17.07zm0-128h477.87v8.53H17.07z" class="f" fill="#e6ebef"></path><path d="M0 204.8h512v68.27H0z" class="e" fill="#302c3b"></path><path d="M17.07 273.07 51.2 204.8h51.2l-34.13 68.27zm102.4 0 34.13-68.27h51.2l-34.13 68.27zm102.4 0L256 204.8h51.2l-34.13 68.27zm102.4 0 34.13-68.27h51.2l-34.13 68.27zm102.4 0 34.13-68.27H512l-34.13 68.27zm-256 162.13h8.53v59.73h-8.53zm162.13 0h8.53v59.73h-8.53z" class="f" fill="#e6ebef"></path><path d="M512 65.92 494.34 0l-32.98 8.83-12.05 20.9-37.38-7.65-49.43 13.24-12.07 20.9-37.36-7.66-49.43 13.26-12.07 20.89-37.37-7.64-49.42 13.25-12.07 20.88-37.38-7.65-49.42 13.25-12.06 20.88-37.37-7.65L0 132.45l17.66 65.92 49.44-13.26 12.05-20.88 37.36 7.66 49.45-13.26 12.05-20.89 37.38 7.64 49.42-13.25 12.07-20.88 37.39 7.65 49.41-13.25 12.09-20.88 37.36 7.63 49.44-13.24 12.05-20.89z" class="e" fill="#302c3b"></path><path d="M512 65.92 461.36 8.83l-49.43 13.25 50.64 57.08zM413.13 92.4 362.5 35.32l-49.43 13.24 50.61 57.09zm-98.86 26.5-50.63-57.08-49.44 13.25 50.61 57.06zm-98.88 26.48-50.61-57.06-49.45 13.23 50.63 57.08zm-98.88 26.51-50.6-57.09-49.43 13.23 50.62 57.08z" class="f" fill="#e6ebef"></path><path d="M0 273.07V136.53l102.4 34.14v68.26z" class="e" fill="#302c3b"></path><path d="M76.8 204.8c0 34.13-51.2 34.13-51.2 0s51.2-34.13 51.2 0" fill="#bec3cf"></path></g></svg>
