<svg xmlns="http://www.w3.org/2000/svg" data-name="Layer 1" style="" viewBox="0 0 512 512"><g><defs><linearGradient id="1770301554684-1591435_l" x1="198.65" x2="311.64" y1="2169.52" y2="2169.52" gradientTransform="translate(0 -1751.5)" gradientUnits="userSpaceOnUse"><stop offset="0" stop-color="#53daf2"></stop><stop offset=".21" stop-color="#4ed5f1"></stop><stop offset=".46" stop-color="#40c7ed"></stop><stop offset=".72" stop-color="#28afe7"></stop><stop offset="1" stop-color="#078ede"></stop><stop offset="1" stop-color="#078ede"></stop></linearGradient><linearGradient id="1770301554684-1591435_m" x1="198.48" x2="314.67" y1="50.44" y2="50.44" gradientTransform="matrix(1 0 0 -1 0 514)" gradientUnits="userSpaceOnUse"><stop offset="0" stop-color="#078ede"></stop><stop offset=".08" stop-color="#1199e2"></stop><stop offset=".33" stop-color="#2fbaef"></stop><stop offset=".58" stop-color="#45d2f8"></stop><stop offset=".81" stop-color="#52e0fd"></stop><stop offset="1" stop-color="#57e5ff"></stop></linearGradient><linearGradient id="1770301554684-1591435_n" x1="198.01" x2="311" y1="2072.84" y2="2072.84" gradientTransform="translate(0 -1751.5)" gradientUnits="userSpaceOnUse"><stop offset="0" stop-color="#53daf2"></stop><stop offset=".21" stop-color="#4ed5f1"></stop><stop offset=".46" stop-color="#40c7ed"></stop><stop offset=".72" stop-color="#28afe7"></stop><stop offset="1" stop-color="#078ede"></stop><stop offset="1" stop-color="#078ede"></stop></linearGradient><linearGradient id="1770301554684-1591435_o" x1="198.06" x2="313.78" y1="152.94" y2="152.94" gradientTransform="matrix(1 0 0 -1 0 514)" gradientUnits="userSpaceOnUse"><stop offset="0" stop-color="#078ede"></stop><stop offset=".08" stop-color="#1199e2"></stop><stop offset=".33" stop-color="#2fbaef"></stop><stop offset=".58" stop-color="#45d2f8"></stop><stop offset=".81" stop-color="#52e0fd"></stop><stop offset="1" stop-color="#57e5ff"></stop></linearGradient><linearGradient id="1770301554684-1591435_p" x1="196.26" x2="315.73" y1="318.81" y2="318.81" gradientTransform="matrix(1 0 0 -1 0 514)" gradientUnits="userSpaceOnUse"><stop offset="0" stop-color="#57e5ff"></stop><stop offset=".19" stop-color="#52e0fd"></stop><stop offset=".42" stop-color="#45d2f8"></stop><stop offset=".67" stop-color="#2fbaef"></stop><stop offset=".92" stop-color="#1199e2"></stop><stop offset="1" stop-color="#078ede"></stop></linearGradient><linearGradient id="1770301554684-1591435_q" x1="71.49" x2="161.89" y1="2143.5" y2="2143.5" gradientTransform="translate(0 -1751.5)" gradientUnits="userSpaceOnUse"><stop offset=".23" stop-color="#aa5bef"></stop><stop offset=".49" stop-color="#a858ee"></stop><stop offset=".66" stop-color="#a250e9"></stop><stop offset=".8" stop-color="#9641e1"></stop><stop offset=".93" stop-color="#872cd7"></stop><stop offset="1" stop-color="#7c1dcf"></stop></linearGradient><linearGradient id="1770301554684-1591435_r" x1="71.35" x2="164.31" y1="85.55" y2="85.55" gradientTransform="matrix(1 0 0 -1 0 514)" gradientUnits="userSpaceOnUse"><stop offset="0" stop-color="#7c1dcf"></stop><stop offset=".07" stop-color="#872cd7"></stop><stop offset=".2" stop-color="#9641e1"></stop><stop offset=".34" stop-color="#a250e9"></stop><stop offset=".51" stop-color="#a858ee"></stop><stop offset=".77" stop-color="#aa5bef"></stop></linearGradient><linearGradient id="1770301554684-1591435_s" x1="70.98" x2="161.37" y1="2066.16" y2="2066.16" gradientTransform="translate(0 -1751.5)" gradientUnits="userSpaceOnUse"><stop offset=".23" stop-color="#aa5bef"></stop><stop offset=".49" stop-color="#a858ee"></stop><stop offset=".66" stop-color="#a250e9"></stop><stop offset=".8" stop-color="#9641e1"></stop><stop offset=".93" stop-color="#872cd7"></stop><stop offset="1" stop-color="#7c1dcf"></stop></linearGradient><linearGradient id="1770301554684-1591435_t" x1="71.01" x2="163.6" y1="167.57" y2="167.57" gradientTransform="matrix(1 0 0 -1 0 514)" gradientUnits="userSpaceOnUse"><stop offset="0" stop-color="#7c1dcf"></stop><stop offset=".07" stop-color="#872cd7"></stop><stop offset=".2" stop-color="#9641e1"></stop><stop offset=".34" stop-color="#a250e9"></stop><stop offset=".51" stop-color="#a858ee"></stop><stop offset=".77" stop-color="#aa5bef"></stop></linearGradient><linearGradient id="1770301554684-1591435_u" x1="69.57" x2="165.15" y1="300.27" y2="300.27" gradientTransform="matrix(1 0 0 -1 0 514)" gradientUnits="userSpaceOnUse"><stop offset=".23" stop-color="#aa5bef"></stop><stop offset=".49" stop-color="#a858ee"></stop><stop offset=".66" stop-color="#a250e9"></stop><stop offset=".8" stop-color="#9641e1"></stop><stop offset=".93" stop-color="#872cd7"></stop><stop offset="1" stop-color="#7c1dcf"></stop></linearGradient><linearGradient id="1770301554684-1591435_v" x1="-405.41" x2="-319.54" y1="2123.81" y2="2123.81" gradientTransform="matrix(-1 0 0 1 40.76 -1751.5)" gradientUnits="userSpaceOnUse"><stop offset="0" stop-color="#ff000e"></stop><stop offset="1" stop-color="#b80000"></stop></linearGradient><linearGradient id="1770301554684-1591435_w" x1="-405.54" x2="-317.23" y1="107.08" y2="107.08" gradientTransform="rotate(180 20.38 257)" gradientUnits="userSpaceOnUse"><stop offset="0" stop-color="#cf0000"></stop><stop offset="1" stop-color="#ff000e"></stop></linearGradient><linearGradient id="1770301554684-1591435_x" x1="-405.89" x2="-320.02" y1="2050.32" y2="2050.32" gradientTransform="matrix(-1 0 0 1 40.76 -1751.5)" gradientUnits="userSpaceOnUse"><stop offset="0" stop-color="#ff000e"></stop><stop offset="1" stop-color="#b80000"></stop></linearGradient><linearGradient id="1770301554684-1591435_y" x1="-405.86" x2="-317.89" y1="184.98" y2="184.98" gradientTransform="rotate(180 20.38 257)" gradientUnits="userSpaceOnUse"><stop offset="0" stop-color="#cf0000"></stop><stop offset="1" stop-color="#ff000e"></stop></linearGradient><linearGradient id="1770301554684-1591435_z" x1="-407.21" x2="-316.42" y1="311.04" y2="311.04" gradientTransform="rotate(180 20.38 257)" gradientUnits="userSpaceOnUse"><stop offset="0" stop-color="#cf0000"></stop><stop offset="1" stop-color="#ff000e"></stop></linearGradient><radialGradient id="1770301554684-1591435_b" cx="393.02" cy="403.07" r="115.02" fx="393.02" fy="403.07" gradientTransform="matrix(1 0 0 -1 0 514)" gradientUnits="userSpaceOnUse"><stop offset="0" stop-color="#fdca47"></stop><stop offset=".23" stop-color="#fcc843"></stop><stop offset=".47" stop-color="#f7c136"></stop><stop offset=".73" stop-color="#f0b520"></stop><stop offset=".99" stop-color="#e7a502"></stop><stop offset="1" stop-color="#e6a400"></stop></radialGradient><radialGradient id="1770301554684-1591435_c" cx="470.36" cy="932.09" r="123.09" fx="470.36" fy="820.92" gradientTransform="matrix(.7071 .7071 .6576 -.6576 -553.75 401.06)" gradientUnits="userSpaceOnUse"><stop offset="0" stop-color="#fdf97f" stop-opacity=".3"></stop><stop offset=".35" stop-color="#fdf87d" stop-opacity=".2"></stop><stop offset=".51" stop-color="#fdf475" stop-opacity=".15"></stop><stop offset=".64" stop-color="#fded68" stop-opacity=".11"></stop><stop offset=".75" stop-color="#fee356" stop-opacity=".08"></stop><stop offset=".84" stop-color="#fed73e" stop-opacity=".05"></stop><stop offset=".92" stop-color="#fec821" stop-opacity=".02"></stop><stop offset="1" stop-color="#ffb600" stop-opacity="0"></stop></radialGradient><radialGradient id="1770301554684-1591435_d" cx="497.7" cy="924.63" r="154.89" fx="497.7" fy="924.63" gradientTransform="scale(1 -1) rotate(-45 -821.17 492.38)" gradientUnits="userSpaceOnUse"><stop offset=".6" stop-color="#fff" stop-opacity="0"></stop><stop offset=".81" stop-color="#fff" stop-opacity=".4"></stop><stop offset="1" stop-color="#fff" stop-opacity="0"></stop></radialGradient><radialGradient id="1770301554684-1591435_e" cx="412.17" cy="926.94" r="190.77" fx="412.17" fy="926.94" gradientTransform="scale(1 -1) rotate(-45 -828.86 499.235)" gradientUnits="userSpaceOnUse"><stop offset=".6" stop-color="#fff" stop-opacity="0"></stop><stop offset=".81" stop-color="#fff" stop-opacity=".3"></stop><stop offset="1" stop-color="#fff" stop-opacity="0"></stop></radialGradient><radialGradient id="1770301554684-1591435_f" cx="483.1" cy="741.13" r="115.38" fx="483.1" fy="741.13" gradientTransform="matrix(.81835 .57472 .36479 -.51365 -311.13 271.45)" gradientUnits="userSpaceOnUse"><stop offset="0" stop-color="#94500e"></stop><stop offset=".87" stop-color="#45332c"></stop></radialGradient><radialGradient id="1770301554684-1591435_g" cx="-113.14" cy="403.07" r="115.02" fx="-113.14" fy="403.07" gradientTransform="rotate(180 2.915 257)" gradientUnits="userSpaceOnUse"><stop offset="0" stop-color="#fdca47"></stop><stop offset=".23" stop-color="#fcc843"></stop><stop offset=".47" stop-color="#f7c136"></stop><stop offset=".73" stop-color="#f0b520"></stop><stop offset=".99" stop-color="#e7a502"></stop><stop offset="1" stop-color="#e6a400"></stop></radialGradient><radialGradient id="1770301554684-1591435_h" cx="244.75" cy="200.91" r="123.09" fx="244.75" fy="89.74" gradientTransform="matrix(-.7071 .7071 -.6576 -.6576 427.25 81.56)" gradientUnits="userSpaceOnUse"><stop offset="0" stop-color="#fdf97f" stop-opacity=".3"></stop><stop offset=".35" stop-color="#fdf87d" stop-opacity=".2"></stop><stop offset=".51" stop-color="#fdf475" stop-opacity=".15"></stop><stop offset=".64" stop-color="#fded68" stop-opacity=".11"></stop><stop offset=".75" stop-color="#fee356" stop-opacity=".08"></stop><stop offset=".84" stop-color="#fed73e" stop-opacity=".05"></stop><stop offset=".92" stop-color="#fec821" stop-opacity=".02"></stop><stop offset="1" stop-color="#ffb600" stop-opacity="0"></stop></radialGradient><radialGradient id="1770301554684-1591435_i" cx="272.08" cy="244.43" r="154.89" fx="272.08" fy="244.43" gradientTransform="rotate(135 206.866 154.189)" gradientUnits="userSpaceOnUse"><stop offset=".6" stop-color="#fff" stop-opacity="0"></stop><stop offset=".81" stop-color="#fff" stop-opacity=".4"></stop><stop offset="1" stop-color="#fff" stop-opacity="0"></stop></radialGradient><radialGradient id="1770301554684-1591435_j" cx="186.56" cy="246.74" r="190.77" fx="186.56" fy="246.74" gradientTransform="rotate(135 209.708 157.381)" gradientUnits="userSpaceOnUse"><stop offset=".6" stop-color="#fff" stop-opacity="0"></stop><stop offset=".81" stop-color="#fff" stop-opacity=".3"></stop><stop offset="1" stop-color="#fff" stop-opacity="0"></stop></radialGradient><radialGradient id="1770301554684-1591435_k" cx="152.42" cy="-131.23" r="115.38" fx="152.42" fy="-131.23" gradientTransform="matrix(-.81835 .57472 -.36479 -.51365 234.2 12.26)" gradientUnits="userSpaceOnUse"><stop offset="0" stop-color="#94500e"></stop><stop offset=".87" stop-color="#45332c"></stop></radialGradient></defs><path d="M274.05 71.07C295.22 28.82 337.26 0 385.75 0 455.43 0 512 59.63 512 133.21c0 34.05-12.13 65.12-32.05 88.65 0 0-51.35-133.44-205.9-150.8Z" fill="url(#1770301554684-1591435_b)"></path><path d="M274.05 71.07C295.22 28.82 337.26 0 385.75 0 455.43 0 512 59.63 512 133.21c0 34.05-12.13 65.12-32.05 88.65 0 0-51.35-133.44-205.9-150.8Z" fill="url(#1770301554684-1591435_c)"></path><path d="M274.05 71.07C295.22 28.82 337.26 0 385.75 0 455.43 0 512 59.63 512 133.21c0 34.05-12.13 65.12-32.05 88.65 0 0-51.35-133.44-205.9-150.8Z" fill="url(#1770301554684-1591435_d)"></path><path d="M274.05 71.07C295.22 28.82 337.26 0 385.75 0 455.43 0 512 59.63 512 133.21c0 34.05-12.13 65.12-32.05 88.65 0 0-51.35-133.44-205.9-150.8Z" fill="url(#1770301554684-1591435_e)"></path><path d="M274.05 71.07c154.56 17.37 205.9 150.8 205.9 150.8-95.3-9.1-174.45-69.25-205.9-150.8" fill="url(#1770301554684-1591435_f)"></path><path d="M237.95 71.07C216.78 28.82 174.74 0 126.25 0 56.57 0 0 59.63 0 133.21c0 34.06 12.13 65.12 32.05 88.65 0 0 51.35-133.44 205.9-150.8Z" fill="url(#1770301554684-1591435_g)"></path><path d="M237.95 71.07C216.78 28.82 174.74 0 126.25 0 56.57 0 0 59.63 0 133.21c0 34.06 12.13 65.12 32.05 88.65 0 0 51.35-133.44 205.9-150.8Z" fill="url(#1770301554684-1591435_h)"></path><path d="M237.95 71.07C216.78 28.82 174.74 0 126.25 0 56.57 0 0 59.63 0 133.21c0 34.06 12.13 65.12 32.05 88.65 0 0 51.35-133.44 205.9-150.8Z" fill="url(#1770301554684-1591435_i)"></path><path d="M237.95 71.07C216.78 28.82 174.74 0 126.25 0 56.57 0 0 59.63 0 133.21c0 34.06 12.13 65.12 32.05 88.65 0 0 51.35-133.44 205.9-150.8Z" fill="url(#1770301554684-1591435_j)"></path><path d="M237.95 71.07C83.4 88.43 32.05 221.87 32.05 221.87c95.3-9.1 174.45-69.25 205.9-150.8" fill="url(#1770301554684-1591435_k)"></path><path d="M311.64 431.09c-9.97 18.59-105.02 5.53-102.47-58.07.17-4.51-8.81 18.68-9.86 14.87-10.68 72.43 112.33 87.85 112.33 67.45V431.1Z" fill="url(#1770301554684-1591435_l)"></path><path d="M311.65 455.33c-12.98-29.58-101.56 8.23-112.33 56.67-10.7-72.43 84.3-113.3 112.33-90.6 6.8 5.51 0 11.77 0 33.93" fill="url(#1770301554684-1591435_m)"></path><path d="M311 336.9c-9.95 18.55-105.4 10.73-108.45-63.15-.2-4.57-2.82 23.83-3.88 19.95C187.99 366.13 311 381.55 311 361.15z" fill="url(#1770301554684-1591435_n)"></path><path d="M311 361.15c-14.37-28.13-99.88-4.04-111.85 42.8-12.6-79.48 87.71-100.11 111.85-76.71 6.27 6.07 0 11.75 0 33.91" fill="url(#1770301554684-1591435_o)"></path><path d="M198.07 305.05C179.8 172.68 305.56 164.67 315.74 85.33c0 115.32-103.85 117.1-117.67 219.72" fill="url(#1770301554684-1591435_p)"></path><path d="M161.89 402.45c-7.99 14.87-84.04 4.44-81.98-46.45.14-3.62-7.05 14.95-7.88 11.89-8.57 57.95 89.86 70.28 89.86 53.96z" fill="url(#1770301554684-1591435_q)"></path><path d="M161.89 421.85c-10.39-23.66-81.25 6.58-89.86 45.34-8.55-57.95 67.45-90.63 89.86-72.47 5.44 4.39 0 9.39 0 27.13" fill="url(#1770301554684-1591435_r)"></path><path d="M161.37 327.1c-7.95 14.85-84.32 8.6-86.77-50.52-.15-3.65-2.25 19.06-3.1 15.97-8.55 57.93 89.86 70.29 89.86 53.96V327.1Z" fill="url(#1770301554684-1591435_s)"></path><path d="M161.37 346.51c-11.49-22.52-79.91-3.25-89.48 34.24-10.09-63.6 70.19-80.1 89.48-61.38 5.02 4.85 0 9.41 0 27.14" fill="url(#1770301554684-1591435_t)"></path><path d="M71.01 301.62c-14.6-105.88 85.98-112.3 94.13-175.77 0 92.25-83.08 93.69-94.13 175.77" fill="url(#1770301554684-1591435_u)"></path><path d="M360.3 382.23c7.57 14.13 79.82 4.2 77.88-44.13-.15-3.41 6.68 14.22 7.48 11.3 8.13 55.05-85.37 66.76-85.37 51.27v-18.43Z" fill="url(#1770301554684-1591435_v)"></path><path d="M360.29 400.67c9.85-22.49 77.18 6.25 85.38 43.07 8.12-55.05-64.09-86.12-85.38-68.85-5.17 4.18 0 8.93 0 25.78" fill="url(#1770301554684-1591435_w)"></path><path d="M360.78 310.65c7.55 14.11 80.1 8.17 82.41-47.98.15-3.48 2.15 18.12 2.95 15.15 8.13 55.05-85.37 66.76-85.37 51.27v-18.43Z" fill="url(#1770301554684-1591435_x)"></path><path d="M360.76 329.08c10.93-21.37 75.93-3.06 85.03 32.54 9.55-60.42-66.68-76.08-85.03-58.32-4.74 4.62 0 8.93 0 25.78" fill="url(#1770301554684-1591435_y)"></path><path d="M446.6 286.45c13.88-100.6-81.68-106.68-89.42-166.98 0 87.64 78.92 89 89.42 166.98" fill="url(#1770301554684-1591435_z)"></path><path d="m307.78 215.83 14.05 21.34 25.43-2.29-15.93 19.95 10.02 23.48-23.9-8.97-19.24 16.77 1.17-25.49-21.91-13.12 24.61-6.77z" class="bc" fill="#e635de"></path><path d="m487.68 309.87 8.65 13.12 15.67-1.4-9.81 12.28 6.16 14.46-14.71-5.53-11.84 10.33.72-15.7-13.5-8.08 15.14-4.17z" class="az" fill="#3cc3ec"></path><path d="m159.82 225.66 1.84 18.14 16.84 6.97-16.67 7.35-1.43 18.16-12.13-13.58-17.72 4.27 9.17-15.76-9.54-15.53 17.81 3.85z" class="ba" fill="#a6e639"></path><path d="m386.83 423.31 1.84 18.14 16.83 6.95-16.67 7.37-1.42 18.16-12.14-13.58-17.72 4.26 9.17-15.74-9.54-15.54 17.8 3.85z" class="az" fill="#3cc3ec"></path><path d="m29.64 318.17 1.84 18.13 16.84 6.95-16.67 7.37-1.43 18.17-12.14-13.59-17.71 4.27 9.16-15.76L0 328.18l17.8 3.85z" class="bb" fill="#e81c27"></path><path d="m154.33 500.35-29.71-8.62V460.9L152 473.48z" class="ba" fill="#a6e639"></path><path d="m222.2 166.19-29.71-8.62v-30.83l27.36 12.58z" class="az" fill="#3cc3ec"></path><path d="m230.49 304.02-1.12-26.67 25.21-8.46-2.78 25.83z" class="bb" fill="#e81c27"></path><path d="m499.41 426.86-22.46-14.41 7.56-25.5 19.55 17.14z" class="bc" fill="#e635de"></path><path d="m464.37 266.6-22.47-14.41 7.57-25.51 19.55 17.13z" class="ba" fill="#a6e639"></path></g></svg>
