<svg xmlns="http://www.w3.org/2000/svg" data-name="Layer 1" style="" viewBox="0 0 512 375.46"><g><defs><linearGradient id="1770301555143-1894099_b" x1="0" x2="512" y1="173.73" y2="173.73" gradientTransform="matrix(1 0 0 -1 0 361.46)" gradientUnits="userSpaceOnUse"><stop offset="0" stop-color="#bf0000"></stop><stop offset=".05" stop-color="#ff000e"></stop><stop offset=".95" stop-color="#ff000e"></stop><stop offset="1" stop-color="#bf0000"></stop></linearGradient></defs><path d="m477.87 86.46-21.34-10.79v-8.54l21.34 10.8zm0 34.12-51.2-25.59v-8.53l51.2 25.59zm0 34.14-51.2-25.6v-8.54l51.2 25.6zm0 34.13-51.2-25.6v-8.53l51.2 25.6zm0 34.13-51.2-25.6v-8.53l51.2 25.6zm0 34.14-51.2-25.6v-8.54l51.2 25.6zm0 34.13-51.2-25.6v-8.53l51.2 25.6zm0 34.13-51.2-25.6v-8.53l51.2 25.6z" class="e" fill="#cfd8dd"></path><path d="M452.27 31.7h8.53v307.2h-8.53zM34.13 86.46l21.34-10.79v-8.54l-21.34 10.8zm0 34.12 51.2-25.59v-8.53l-51.2 25.59zm0 34.14 51.2-25.6v-8.54l-51.2 25.6zm0 34.13 51.2-25.6v-8.53l-51.2 25.6zm0 34.13 51.2-25.6v-8.53l-51.2 25.6zm0 34.14 51.2-25.6v-8.54l-51.2 25.6zm0 34.13 51.2-25.6v-8.53l-51.2 25.6zm0 34.13 51.2-25.6v-8.53l-51.2 25.6z" class="e" fill="#cfd8dd"></path><path d="M51.2 31.7h8.53v307.2H51.2z" class="e" fill="#cfd8dd"></path><path d="M51.2 52.33h409.6v8.53H51.2zm34.13 34.13h341.33v8.53H85.33zm0 34.12h341.33v8.53H85.33zm0 34.14h341.33v8.53H85.33zm0 34.13h341.33v8.53H85.33zm0 34.13h341.33v8.53H85.33zm0 34.14h341.33v8.53H85.33zm0 34.13h341.33v8.53H85.33z" class="e" fill="#cfd8dd"></path><path d="M422.4 22.46h8.53v307.19h-8.53zm-34.13 0h8.53v307.19h-8.53zm-34.14 0h8.53v307.19h-8.53zm-34.13 0h8.53v307.19H320zm-34.13 0h8.53v307.19h-8.53zm-34.14 0h8.53v307.19h-8.53zm-34.13 0h8.53v307.19h-8.53zm-34.13 0H192v307.19h-8.53zm-34.14 0h8.53v307.19h-8.53zm-34.13 0h8.53v307.19h-8.53zm-34.13 0h8.53v307.19h-8.53z" class="e" fill="#cfd8dd"></path><path d="M435.2 117.47c0-19.34 51.2-75.52 51.2-75.52L477.87 8.4S409.6 82.21 409.6 109.08v209.75H102.4V109.08C102.4 82.22 34.13 8.4 34.13 8.4L25.6 41.95s51.2 56.18 51.2 75.52v201.36l-51.2 25.16 8.53 25.18 51.2-25.18h341.33l51.2 25.18 8.53-25.18-51.2-25.16V117.47Z" fill="#b3c2c6"></path><path d="M460.8 0H51.2C23.45 0 0 23.07 0 50.35v318.83c0 8.38 34.13 8.38 34.13 0V50.35c0-9.45 9.18-16.79 17.07-16.79h409.6c7.9 0 17.07 7.32 17.07 16.79v318.83c0 8.38 34.13 8.38 34.13 0V50.35C512 23.07 488.55 0 460.8 0" fill="url(#1770301555143-1894099_b)"></path></g></svg>
