<svg xmlns="http://www.w3.org/2000/svg" id="a" data-name="Layer 1" viewBox="0 0 512 512.04"><defs><linearGradient id="b" x1="781.54" x2="562.52" y1="103.85" y2="322.87" gradientTransform="rotate(45 -264.508 -576.61)scale(1 -1)" gradientUnits="userSpaceOnUse"><stop offset="0" stop-color="#ab5c10"/><stop offset="1" stop-color="#ea8800"/></linearGradient><linearGradient id="c" x1="659.02" x2="695.88" y1="429.93" y2="429.93" gradientTransform="rotate(45 -264.508 -576.61)scale(1 -1)" gradientUnits="userSpaceOnUse"><stop offset="0" stop-color="#916958"/><stop offset=".21" stop-color="#8b6454"/><stop offset=".49" stop-color="#7b5748"/><stop offset=".8" stop-color="#5f4034"/><stop offset="1" stop-color="#4a2f24"/></linearGradient><style>.f{fill:#7a420c}.g{fill:#b5bec2}.i{fill:#c3ccd1}.j{fill:#7e8387}.l{fill:#a0a7ab}.n{fill:#302c3b}</style></defs><path d="m410.763 47.583 3.418-1.749 3.133 6.126-3.418 1.748z" class="g"/><path d="M407.47 49.32c-1.28-.56-2.88-3.68-2.56-5.04.56-2.72 7.28-5.92 10-5.12 1.36.4 3.04 3.68 2.56 5.04-.88 2.64-7.44 6.24-10 5.12" class="i"/><path d="m424.925 39.767 3.42-1.748 3.131 6.125-3.419 1.748z" class="g"/><path d="M421.54 41.4c-1.28-.56-2.88-3.68-2.56-5.04.56-2.72 7.28-5.92 10-5.12 1.36.4 3.04 3.68 2.56 5.04-.88 2.72-7.44 6.32-10 5.12" class="i"/><path d="m438.885 31.982 3.419-1.748 3.132 6.126-3.42 1.748z" class="g"/><path d="M435.62 33.72c-1.28-.56-2.88-3.68-2.56-5.04.56-2.72 7.28-5.92 10-5.12 1.28.48 2.96 3.76 2.56 5.04-.88 2.72-7.44 6.24-10 5.12" class="i"/><path d="m452.922 24.357 3.419-1.748 3.132 6.126-3.419 1.748z" class="g"/><path d="M449.62 26.04c-1.28-.56-2.88-3.68-2.56-5.04.56-2.72 7.28-5.92 10-5.12 1.36.4 3.04 3.68 2.56 5.04-.88 2.72-7.44 6.24-10 5.12" class="i"/><path d="m467.172 16.35 3.419-1.748 3.132 6.126-3.42 1.748z" class="g"/><path d="M463.86 18.04c-1.28-.56-2.88-3.68-2.56-5.04.56-2.72 7.28-5.92 10-5.12 1.36.4 3.04 3.68 2.56 5.04-.88 2.72-7.44 6.24-10 5.12" class="i"/><path d="m481.654 8.57 3.418-1.75 3.133 6.126-3.418 1.748z" class="g"/><path d="M478.34 10.28c-1.28-.56-2.88-3.68-2.56-5.04.56-2.72 7.28-5.92 10-5.12 1.36.4 3.04 3.68 2.56 5.04-.88 2.72-7.44 6.24-10 5.12" class="i"/><path d="M213.01 258.9c-18.64 6.88-32.08-15.52-14-35.2 15.12-16.56 10.96-43.12-11.36-32.88-36.08 16.64-46.15 76.95-74.31 105.11-14.96 14.96-85.99 13.84-104.31 46.47-23.84 42.48 3.44 90.07 36.24 123.43 57.83 58.87 93.35 52.79 119.11 29.52 37.6-34 31.68-71.27 46.15-93.03 15.6-23.36 43.44-17.28 60.31-37.6 22.24-26.72 8.08-55.43-4.48-43.28-17.6 17.04-52.71 17.28-50.71-.64l-2.64-61.91Z" class="f"/><path d="M215.81 255.06c-23.76 15.76-40.8-23.92-16.48-45.27 16-14 3.12-29.04-19.12-18.8-36.08 16.64-38.64 59.51-66.79 87.67-14.96 14.96-66.71 23.12-93.11 49.51-41.68 41.76-6.88 86.55 25.12 120.39 55.51 58.71 98.55 58.31 122.23 30.96 34.32-39.68 27.44-74.31 45.19-93.51 13.76-14.88 43.12-12.72 59.67-37.12 19.36-28.56-.88-37.6-13.36-25.76-17.76 16.88-45.51-3.44-43.6-21.36l.24-46.71Z" style="fill:url(#b)"/><path d="M193.81 191.62c3.68 0 6.64 1.2 7.92 3.12 1.92 2.96-.08 7.68-5.04 12.08-16.16 14.16-16.24 35.76-7.12 47.67 4 5.28 9.52 8.16 15.52 8.16 2.24 0 4.48-.4 6.72-1.12l-.16 39.84c-1.2 10.8 6.56 22.88 18.48 28.8 4.48 2.24 9.04 3.28 13.52 3.28 6.88 0 13.2-2.56 18.32-7.44 2.64-2.48 5.84-4 8.72-4 1.52 0 2.88.48 3.84 1.28 3.04 2.64 3.52 10.24-5.36 23.36s-21.76 17.92-34.16 22.64c-9.6 3.6-18.64 7.04-25.12 14-8.16 8.8-11.44 20.24-15.2 33.44-4.88 16.88-10.88 37.92-30.16 60.15-9.04 10.48-20.8 16.16-34.08 16.48h-.96c-23.76 0-51.91-16.4-81.27-47.51-33.68-35.6-62.95-77.03-25.2-114.79 14.48-14.48 37.12-23.36 57.11-31.2 15.6-6.08 29.04-11.36 36.08-18.4 12.08-12.08 19.52-26.56 26.72-40.64 9.76-19.04 19.04-37.04 38.88-46.23 4.32-1.92 8.48-2.96 12-2.96m0-2.01c-3.52 0-7.84.96-12.8 3.2-20.56 9.44-29.92 27.76-39.84 47.19-7.12 13.92-14.48 28.24-26.32 40.08-6.72 6.72-20 11.92-35.36 17.92-20.16 7.92-42.96 16.8-57.75 31.6-38.96 38.96-9.12 81.35 25.2 117.59 29.84 31.6 58.31 48.15 82.71 48.15h1.04c13.84-.32 26.08-6.24 35.52-17.12 19.52-22.56 25.68-43.84 30.56-60.95 3.68-12.96 6.96-24.16 14.72-32.64 6.08-6.64 14.96-9.92 24.32-13.52 12.72-4.8 25.92-9.76 35.12-23.44 9.6-14.16 8.88-22.72 4.96-26-1.36-1.2-3.2-1.76-5.2-1.76-3.28 0-6.96 1.6-10.08 4.56-4.8 4.56-10.64 6.88-16.88 6.88-4.16 0-8.4-1.04-12.64-3.12-11.2-5.52-18.48-16.8-17.36-26.72l.16-43.04c-2.96 1.44-5.92 2.16-8.72 2.16-5.28 0-10.24-2.48-13.92-7.36-8.56-11.2-8.4-31.6 6.88-44.95 5.84-5.12 7.92-10.72 5.36-14.64-1.6-2.4-4.96-4.08-9.68-4.08Z" class="f"/><path d="M164.05 454.63c-3.44 3.44-9.04 3.44-12.56 0-3.44-3.44-3.44-9.04 0-12.56 3.44-3.44 9.04-3.44 12.56 0 3.44 3.44 3.44 9.12 0 12.56" class="n"/><circle cx="157.81" cy="448.31" r="6.48" class="j"/><path d="M162.53 427.2c-3.44 3.44-9.04 3.44-12.56 0-3.44-3.44-3.44-9.04 0-12.56 3.44-3.44 9.04-3.44 12.56 0 3.44 3.44 3.44 9.04 0 12.56" class="n"/><circle cx="156.21" cy="420.88" r="6.48" class="j"/><path d="M154.61 400.8c-3.44 3.44-9.04 3.44-12.56 0-3.44-3.44-3.44-9.04 0-12.56 3.44-3.44 9.04-3.44 12.56 0 3.44 3.44 3.44 9.12 0 12.56" class="n"/><circle cx="148.37" cy="394.48" r="6.48" class="j"/><path d="m187.65 327.21-23.84-23.84c-2.24-2.24-2.24-5.84 0-8 2.24-2.24 5.84-2.24 8 0l23.84 23.84c2.24 2.24 2.24 5.84 0 8-2.16 2.24-5.76 2.24-8 0" class="n"/><path d="M169.17 300.65c-1.68 1.68-4.24-.88-2.56-2.56s4.24.88 2.56 2.56m4.72 4.8c-1.68 1.68-4.24-.88-2.56-2.56s4.24.8 2.56 2.56m4.72 4.72c-1.68 1.68-4.24-.88-2.56-2.56 1.76-1.68 4.32.88 2.56 2.56m4.8 4.72c-1.68 1.68-4.24-.88-2.56-2.56s4.24.88 2.56 2.56m4.72 4.8c-1.68 1.68-4.24-.88-2.56-2.56 1.76-1.68 4.24.88 2.56 2.56m4.8 4.72c-1.68 1.68-4.24-.88-2.56-2.56s4.24.88 2.56 2.56" class="l"/><path d="m160.45 354.4-23.84-23.84c-2.24-2.24-2.24-5.84 0-8 2.24-2.24 5.84-2.24 8 0l23.84 23.84c2.24 2.24 2.24 5.84 0 8-2.24 2.24-5.84 2.24-8 0" class="n"/><path d="M141.9 327.93c-1.68 1.68-4.24-.88-2.56-2.56s4.24.8 2.56 2.56m4.72 4.72c-1.68 1.68-4.24-.88-2.56-2.56 1.76-1.68 4.32.88 2.56 2.56m4.79 4.72c-1.68 1.68-4.24-.88-2.56-2.56s4.24.88 2.56 2.56m4.72 4.8c-1.68 1.68-4.24-.88-2.56-2.56 1.76-1.68 4.24.88 2.56 2.56m4.8 4.72c-1.68 1.68-4.24-.88-2.56-2.56s4.24.88 2.56 2.56m4.72 4.79c-1.68 1.68-4.24-.88-2.56-2.56 1.76-1.68 4.24.8 2.56 2.56" class="l"/><path d="m131.66 381.84-19.36-27.6c-1.76-2.56-1.2-6.08 1.36-7.92 2.56-1.76 6.08-1.2 7.92 1.36l19.36 27.6c1.76 2.56 1.2 6.08-1.36 7.92-2.56 1.76-6.08 1.2-7.92-1.36" class="n"/><path d="M118.06 352.48c-2 1.36-4-1.6-2.08-2.96s4 1.52 2.08 2.96m3.84 5.44c-2 1.36-4-1.6-2.08-2.96 2-1.36 4 1.6 2.08 2.96m3.84 5.52c-2 1.36-4-1.6-2.08-2.96 2-1.36 4.08 1.6 2.08 2.96m3.84 5.52c-2 1.36-4-1.6-2.08-2.96 2-1.36 4.08 1.6 2.08 2.96m3.84 5.52c-2 1.36-4-1.6-2.08-2.96 2-1.36 4.08 1.6 2.08 2.96m3.92 5.52c-2 1.36-4-1.6-2.08-2.96s4 1.52 2.08 2.96" class="l"/><path d="M176.13 411.04c-.16-.16-.32-.4-.24-.72l.96-16.4c0-.48.48-.88.96-.88s.88.48.88.96l-.96 16.4c0 .48-.48.88-.96.88-.24.08-.48-.08-.64-.24" class="i"/><path d="M178.69 404.88c-2.64 2.64-6.56-1.28-3.92-3.92s6.56 1.28 3.92 3.92" class="n"/><path d="m80.3 380.48 35.28 35.28c1.12 1.12 2.88 1.12 3.92 0l7.28-7.28c1.28-1.28 1.28-3.28 0-4.48-1.28-1.28-1.28-3.28 0-4.48l1.92-1.92c1.68-1.68 1.68-4.48 0-6.16l-28.48-28.48c-1.68-1.68-4.48-1.68-6.16 0L80.3 376.72c-1.12.96-1.12 2.72 0 3.76" class="l"/><path d="m88.86 383.6-4.64-4.64 8.16-8.16a3.283 3.283 0 0 1 4.64 0 3.283 3.283 0 0 1 0 4.64z" class="i"/><path d="m88.86 383.6-4.64-4.64.24-.24a3.283 3.283 0 0 1 4.64 0 3.283 3.283 0 0 1 0 4.64z" class="g"/><path d="m81.757 384.304 3.904-3.903 1.81 1.81-3.903 3.903zm11.983 4.256-4.64-4.64 8.16-8.16a3.283 3.283 0 0 1 4.64 0 3.283 3.283 0 0 1 0 4.64z" class="i"/><path d="m93.74 388.56-4.64-4.64.24-.24a3.283 3.283 0 0 1 4.64 0 3.283 3.283 0 0 1 0 4.64z" class="g"/><path d="m86.613 389.226 3.903-3.903 1.81 1.81-3.903 3.904zM98.7 393.44l-4.64-4.64 8.16-8.16a3.283 3.283 0 0 1 4.64 0 3.283 3.283 0 0 1 0 4.64z" class="i"/><path d="m98.7 393.44-4.64-4.64.24-.24a3.283 3.283 0 0 1 4.64 0 3.283 3.283 0 0 1 0 4.64z" class="g"/><path d="m91.593 394.144 3.903-3.903 1.81 1.81-3.903 3.903zm11.987 4.256-4.64-4.64 8.16-8.16a3.283 3.283 0 0 1 4.64 0 3.283 3.283 0 0 1 0 4.64z" class="i"/><path d="m103.58 398.4-4.64-4.64.24-.24a3.283 3.283 0 0 1 4.64 0 3.283 3.283 0 0 1 0 4.64z" class="g"/><path d="m96.406 399.082 3.905-3.902 1.81 1.811-3.905 3.902zm12.134 4.198-4.64-4.64 8.16-8.16a3.283 3.283 0 0 1 4.64 0 3.283 3.283 0 0 1 0 4.64z" class="i"/><path d="m108.54 403.28-4.64-4.64.24-.24a3.283 3.283 0 0 1 4.64 0 3.283 3.283 0 0 1 0 4.64z" class="g"/><path d="m101.422 403.981 3.903-3.903 1.81 1.81-3.903 3.903zm11.998 4.259-4.64-4.64 8.16-8.16a3.283 3.283 0 0 1 4.64 0 3.283 3.283 0 0 1 0 4.64z" class="i"/><path d="m113.42 408.24-4.64-4.64.24-.24a3.283 3.283 0 0 1 4.64 0 3.283 3.283 0 0 1 0 4.64z" class="g"/><path d="m106.38 408.842 3.902-3.905 1.81 1.81-3.901 3.905z" class="i"/><path d="M100.94 368.4c-2.24 2.24-5.52-1.12-3.28-3.28 2.16-2.24 5.52 1.04 3.28 3.28m25.84 25.76c-2.24 2.24-5.52-1.12-3.28-3.28 2.16-2.16 5.44 1.12 3.28 3.28" class="g"/><path d="M113.58 345.69c-2.24 2.24-5.52-1.12-3.28-3.28 2.16-2.24 5.44 1.04 3.28 3.28m29.2 41.43c-2.24 2.24-5.52-1.12-3.28-3.28 2.24-2.24 5.52 1.04 3.28 3.28m29.19-28.4c-2.24 2.24-5.52-1.12-3.28-3.28 2.16-2.24 5.44 1.04 3.28 3.28m-35.75-36.15c-2.24 2.24-5.52-1.12-3.28-3.28 2.16-2.24 5.52 1.04 3.28 3.28m27.35-27.44c-2.24 2.24-5.52-1.12-3.28-3.28 2.24-2.24 5.52 1.04 3.28 3.28m35.76 35.76c-2.24 2.24-5.52-1.12-3.28-3.28 2.16-2.24 5.44 1.04 3.28 3.28m-19.92 59.59c-2.24 2.24-5.52-1.12-3.28-3.28 2.24-2.24 5.52 1.04 3.28 3.28m-.72 27.12c-2.24 2.24-5.52-1.12-3.28-3.28 2.16-2.24 5.44 1.04 3.28 3.28" class="l"/><path d="M121.9 425.6c-17.36.56-6.08 52.87 3.6 52.23 10.72-.72 13.68-52.79-3.6-52.23" class="i"/><path d="M116.54 441.59c-1.76 17.52 4 31.2 9.44 30.4 5.28-.88 6.8-14.08 4.32-30.8-.4-3.04-13.44-2.4-13.76.4m7.2-10.31c-2.24 2.24-5.52-1.12-3.28-3.28 2.16-2.24 5.52 1.12 3.28 3.28m3.68 45.43c-2.24 2.24-5.52-1.12-3.28-3.28 2.16-2.24 5.44 1.04 3.28 3.28" class="l"/><path d="M127.82 446.47c0 3.44-8.88 3.44-8.88 0s8.88-3.44 8.88 0" class="j"/><path d="M398.75 72.68c3.84-3.84-2.56-12.64 1.92-15.2 22.64-12.64 77.91-43.2 89.59-48.31 12.48-5.44 31.12 12.8 16.24 28.08-4.24 4.4-8.96 7.92-24 3.92-4.16-1.12-21.6 36.08-32.64 43.6-18-5.76-31.44 7.52-31.44 7.52s-10.24-5.36-19.68-19.6Z" class="n"/><path d="m418.34 92.27-19.68-19.68-219.5 213.18c-2.88 2.72-2.88 7.28-.08 10.08l16 16c2.8 2.8 7.36 2.8 10.08-.08z" style="fill:url(#c)"/><path d="m398.83 112.43-20.24-20.24-1.12 1.04 20.32 20.32zm17.99-18.56L397.15 74.2l-2.16 2.08 19.75 19.75zm-33.67 34.72-20.72-20.72-1.12 1.12 20.72 20.72zm-14.8 15.28-21.2-21.2-1.12 1.12 21.2 21.2zm-14 14.32-21.52-21.6-1.12 1.12 21.6 21.6zm-13.12 13.52-21.91-21.92-1.12 1.04 21.99 22zm-12.32 12.71-22.31-22.31-1.12 1.04 22.39 22.39zm-11.83 12.16-22.72-22.63-1.04 1.03 22.72 22.72zm-10.72 11.04-22.96-22.96-1.12 1.04 23.04 23.04zm-10.4 10.8-23.36-23.36-1.12 1.12 23.36 23.36zm-9.92 10.16-23.6-23.6-1.12 1.04L285 229.7zm-9.28 9.6-23.92-23.92-1.12 1.12 23.92 23.92zm-8.48 8.72-24.16-24.16-1.12 1.04 24.24 24.24zm-8.48 8.72-24.4-24.48-1.11 1.12 24.47 24.48zm-7.52 7.83-24.71-24.71-1.04 1.12 24.63 24.63zm-7.28 7.44-24.87-24.87-1.12 1.12 24.87 24.87zm-6.96 7.12-25.03-25.11-1.12 1.12L237 279.13zm-6.55 6.8-25.28-25.27-1.12 1.12 25.28 25.27zm-6.24 6.48-25.52-25.52-1.04 1.12 25.44 25.44zm-5.52 5.6-25.6-25.6-1.12 1.04 25.68 25.68zm-5.52 5.76-25.84-25.84-1.12 1.12 25.84 25.76zm-4.96 5.04-25.92-25.92-1.12 1.12 25.92 25.92zm-31.52-19.84 25.44 25.44c.48-.24.96-.48 1.36-.8l-25.92-25.92c-.4.4-.72.88-.88 1.28" style="fill:#e5bc5e"/><path d="M366.27 128.03c-2.24 2.24-5.52-1.12-3.28-3.28 2.24-2.24 5.52 1.04 3.28 3.28m-28.24 28.32c-2.24 2.24-5.52-1.12-3.28-3.28 2.16-2.24 5.44 1.04 3.28 3.28M313 181.3c-2.24 2.24-5.52-1.12-3.28-3.28 2.16-2.24 5.52 1.12 3.28 3.28m-22.4 22.48c-2.24 2.24-5.52-1.12-3.28-3.28 2.16-2.24 5.44 1.04 3.28 3.28m-53.12 53.04c-2.24 2.24-5.52-1.12-3.28-3.28 2.16-2.16 5.44 1.12 3.28 3.28m-14.15 14.15c-2.24 2.24-5.52-1.12-3.28-3.28 2.16-2.24 5.52 1.12 3.28 3.28m-12.48 12.48c-2.24 2.24-5.52-1.12-3.28-3.28 2.24-2.24 5.52 1.04 3.28 3.28m-11.04 11.04c-2.24 2.24-5.52-1.12-3.28-3.28 2.16-2.24 5.52 1.12 3.28 3.28m56.63-66.95c-2.24 2.24-5.52-1.12-3.28-3.28s5.44 1.04 3.28 3.28m10.32 10.32c-2.24 2.24-5.52-1.12-3.28-3.28 2.16-2.24 5.44 1.04 3.28 3.28" style="fill:#e6f1f7"/><path d="M115.1 409.92c-.08-.08-.24-.24-.32-.4-.48-.88-.24-2 .72-2.56l52.79-30.24 11.04-11.36c.72-.72 1.92-.72 2.64 0 .64.72.72 1.92 0 2.64l-11.2 11.6c-.16.16-.24.24-.4.32l-52.95 30.4c-.8.32-1.68.16-2.32-.4" class="i"/><path d="m171.89 371.04 12.96-12.96c1.28-1.28 3.36-1.28 4.56 0 1.28 1.28 1.28 3.36 0 4.56l-12.96 12.96c-1.28 1.28-5.84-3.28-4.56-4.56" class="n"/><path d="M397.15 76.36 88.7 378.24l.88.96L398.19 77.4l17.75-16.72-1.2-1.12zm3.12 3.12L93.58 383.12l.96.96L401.31 80.6l28.71-27.76-.88-.8zm3.28 3.28L98.46 388.08l.96.96L404.67 83.88l39.83-38.8-.96-.96zm54.95-45.2-.88-.88-50.71 49.44-303.49 306.84.96.96L407.95 87.23zm13.44-6.96-.72-.8-60.87 59.83L108.3 397.92l.96.88L411.38 90.59zm-57.52 63.03 72.72-71.99-.4-.48-73.2 71.59L113.18 402.8l1.04.96z" style="fill:#99a8ae"/><path d="M418.58 61.16c-4.64 4.64-11.68-2.32-6.96-6.96s11.6 2.32 6.96 6.96" class="i"/><path d="M417.22 59.8c-2.8 2.8-7.04-1.44-4.24-4.24 2.8-2.88 7.04 1.36 4.24 4.24" class="g"/><path d="M432.98 53.8c-4.64 4.64-11.68-2.32-6.96-6.96 4.56-4.72 11.6 2.24 6.96 6.96" class="i"/><path d="M431.54 52.44c-2.8 2.8-7.04-1.44-4.24-4.24s7.12 1.36 4.24 4.24" class="g"/><path d="M447.38 45.64c-4.64 4.64-11.68-2.32-6.96-6.96s11.6 2.32 6.96 6.96" class="i"/><path d="M446.02 44.28c-2.8 2.88-7.12-1.36-4.24-4.24 2.8-2.8 7.04 1.44 4.24 4.24" class="g"/><path d="M461.38 38.04c-4.64 4.64-11.68-2.32-6.96-6.96 4.64-4.72 11.6 2.32 6.96 6.96" class="i"/><path d="M460.02 36.68c-2.8 2.8-7.04-1.44-4.24-4.24 2.8-2.88 7.04 1.36 4.24 4.24" class="g"/><path d="M476.02 30.36c-4.64 4.64-11.68-2.32-6.96-6.96 4.64-4.64 11.6 2.32 6.96 6.96" class="i"/><path d="M474.66 29c-2.8 2.8-7.04-1.44-4.24-4.24s7.04 1.44 4.24 4.24" class="g"/><path d="M490.02 22.84c-4.64 4.64-11.68-2.32-6.96-6.96 4.64-4.72 11.6 2.32 6.96 6.96" class="i"/><path d="M488.66 21.48c-2.8 2.8-7.04-1.44-4.24-4.24 2.8-2.88 7.04 1.36 4.24 4.24" class="g"/></svg>