<svg xmlns="http://www.w3.org/2000/svg" id="a" data-name="Layer 1" viewBox="0 0 512 320"><defs><linearGradient id="b" x1="283.51" x2="283.51" y1="219.19" y2="255.69" gradientTransform="matrix(1 0 0 -1 0 322)" gradientUnits="userSpaceOnUse"><stop offset="0" stop-color="#99a8ae"/><stop offset=".1" stop-color="#a6b4bb"/><stop offset=".32" stop-color="#bccbd3"/><stop offset=".53" stop-color="#cad8e1"/><stop offset=".7" stop-color="#cfdde6"/></linearGradient><linearGradient id="c" x1="220.65" x2="220.65" y1="62.21" y2="252.13" gradientTransform="matrix(1 0 0 -1 0 322)" gradientUnits="userSpaceOnUse"><stop offset="0" stop-color="#c40000"/><stop offset=".07" stop-color="#ce0002"/><stop offset=".25" stop-color="#e40008"/><stop offset=".44" stop-color="#f3000b"/><stop offset=".67" stop-color="#fc000d"/><stop offset="1" stop-color="#ff000e"/></linearGradient><linearGradient id="d" x1="46.16" x2="46.16" y1="88.22" y2="237.43" gradientTransform="matrix(1 0 0 -1 0 322)" gradientUnits="userSpaceOnUse"><stop offset="0" stop-color="#302c3b"/><stop offset=".29" stop-color="#454754"/><stop offset=".76" stop-color="#636d78"/><stop offset="1" stop-color="#6e7b85"/></linearGradient><linearGradient id="e" x1="454.34" x2="454.34" y1="157.18" y2="322" gradientTransform="matrix(1 0 0 -1 0 322)" gradientUnits="userSpaceOnUse"><stop offset="0" stop-color="#c40000"/><stop offset=".07" stop-color="#ce0002"/><stop offset=".25" stop-color="#e40008"/><stop offset=".44" stop-color="#f3000b"/><stop offset=".67" stop-color="#fc000d"/><stop offset="1" stop-color="#ff000e"/></linearGradient><linearGradient id="f" x1="174.23" x2="170.37" y1="-10.66" y2="18.67" gradientTransform="matrix(1 0 0 -1 0 322)" gradientUnits="userSpaceOnUse"><stop offset="0" stop-color="#343040"/><stop offset=".08" stop-color="#3c3b49"/><stop offset=".36" stop-color="#525a64"/><stop offset=".51" stop-color="#5b666e"/></linearGradient><linearGradient id="g" x1="102.99" x2="102.99" y1="132.74" y2="233.48" gradientTransform="matrix(1 0 0 -1 0 322)" gradientUnits="userSpaceOnUse"><stop offset="0" stop-color="#302c3b"/><stop offset=".29" stop-color="#454754"/><stop offset=".76" stop-color="#636d78"/><stop offset="1" stop-color="#6e7b85"/></linearGradient><style>.q{fill:#4e5e67}.r{fill:#302c3b}</style></defs><path d="M391.25 8.42H10.21c-4.85 0-13.19 8.42-9.14 8.42h381.01c4.04 0 13.97-8.42 9.16-8.42Z" class="r"/><path d="M189.6 36.15h13.34v12.63H189.6z" class="q"/><path d="M185.92 13.62h20.7V39.1h-20.7z" class="r"/><path d="M162.13 0h68.26v25.26h-68.26z" class="q"/><path d="M497.18 114.97c0 1.81-89.43 1.81-89.43 0 0-1.82 89.43-1.82 89.43 0" class="r"/><path d="M452.47 158.04c-1.88 0-1.88-86.15 0-86.15s1.9 86.15 0 86.15" class="r"/><path d="M484.08 145.41c-1.34 1.28-64.56-59.6-63.23-60.91 1.34-1.28 64.58 59.63 63.23 60.91" class="r"/><path d="M420.84 145.41c-1.33-1.28 61.9-62.2 63.23-60.91 1.36 1.3-61.88 62.22-63.23 60.91" class="r"/><ellipse cx="452.48" cy="114.97" rx="11.87" ry="11.45" style="fill:#e81c27"/><path d="M265.84 76.96c.53-6.53 32.31-10.88 34.1-10.64 1.79.25 2.01 28.23-1.11 28.23s-30.99 2.72-31.88 7.66c-.9 4.94-1.34-22.53-1.11-25.26Z" style="fill:url(#b)"/><path d="M409.61 98.38c-65.74 9.78-133.31 4.83-133.31 4.83V83.58c0-8.27-16.94-17.38-16.94-23.46 0-5.43-.59-13.19-2.38-13.19H151.46c-7.82 0-11.87 16.68-52.3 31.52 26.86 87.5 250.94 57.49 310.45 49.66z" style="fill:#b00505"/><path d="M38.22 233.78c60.94 53.03 226.73 17.53 240.03-39.93 2.67-11.54 134.31-46.82 134.31-46.82l-2.95-31.19s-108.32 12.04-132.42 9c-18.5-19.65-57.07-46.14-86.96-51.5-5.86-1.06-65.52-11.96-108.61 11.23-33.99 28.51-70.61 110.04-43.41 149.21Z" style="fill:url(#c)"/><path d="M81.64 84.57C66.59 95.53-37.99 184.09 38.23 233.78c-3.22-43.82 21.7-126.77 43.41-149.21" style="fill:url(#d)"/><path d="M480.55 66.31c-4.67-4.67 1.72-58.69 8.75-58.69 2.25 0 3.51-7.62 1.34-7.62-24.36 0-44.3 7-47.14 13.62-22.67 52.7-49.82 97.1-46.55 130.95 3.9 6.76 22.25 20.25 55.54 20.25 27.33 0 55.18-28.5 58.48-38.08 1.65-4.81 1.09-16.39 0-20.27-1.71-6.14-11.71-21.47-30.42-40.15Zm-28.08 81.1c-18.6 0-33.66-14.51-33.66-32.44s15.06-32.44 33.66-32.44 33.68 14.5 33.68 32.44c0 17.92-15.08 32.44-33.68 32.44" style="fill:url(#e)"/><path d="M146.42 159.19c-.86-2.31-1.56-4.18-8.06-1.25l-6.82 3.07c-6.51 2.93-5.82 4.79-4.95 7.1.51 1.38 20.34-7.55 19.82-8.93Z" style="fill:#cfd8dd"/><path d="M124.66 306.75c-.45 3.66-12.56 5.18-12.05 1.48 2.74-20.06-.91-47.8-8.46-65.07-1.06-2.41 10.5-4.69 11.66-2.25 6.86 14.44 11.15 47.26 8.85 65.84m116.67.72c-.95 4.11-14.39 5.86-13.25 1.75 7.36-26.72-1.96-63.78-10.62-83.68-1.21-2.79 11.46-5.45 12.78-2.64 7.85 16.62 17.74 55.88 11.08 84.57Z" class="r"/><path d="M296.53 305.67H66.87c-9.29 0-12.66-11.49-15.55-26.34-1.38-7.1-16.15-1.67-14.88 5.06 3.72 19.74 9.9 35.61 22.21 35.61h237.5c8.9 0 9.17-14.33.38-14.33" style="fill:url(#f)"/><path d="M63.46 227.49c-6.47 0-10.06-1.1-10.94-3.34-1.21-3.13-3.9-23.5.5-41.82l2.05.46c-4.22 17.61-1.68 37.75-.57 40.64.5 1.3 4.34 2.45 13.49 1.87 26.35-1.63 78.57-16.11 80.99-26.25 3.14-13.06 3.98-43.46 2.78-62.57l2.11-.13c1.2 19.26.33 49.93-2.84 63.17-2.9 12.11-58.07 26.26-82.9 27.82-1.7.1-3.26.15-4.67.15" style="fill:#bf0505"/><path d="M79.93 98.56c-7.39 9.6-28.77 85.12-27.88 90.31.9 5.21 102-43.14 101.92-48.4-.14-9.82-.14-42.94-10.98-50.38-6.99-4.8-58.38 2.4-63.06 8.47" style="fill:url(#g)"/></svg>