<svg xmlns="http://www.w3.org/2000/svg" data-name="Layer 1" style="" viewBox="0 0 512 614.4"><g><defs><radialGradient id="1770301554700-9946780_b" cx="236.27" cy="387.73" r="252.15" fx="236.27" fy="387.73" gradientTransform="matrix(1.02 0 0 -1.55 15.95 1043.9)" gradientUnits="userSpaceOnUse"><stop offset="0" stop-color="#4d5561"></stop><stop offset=".54" stop-color="#4b535f"></stop><stop offset=".73" stop-color="#464c59"></stop><stop offset=".87" stop-color="#3c414e"></stop><stop offset=".98" stop-color="#2d303f"></stop><stop offset="1" stop-color="#2a2c3b"></stop></radialGradient><radialGradient id="1770301554700-9946780_d" cx="96.98" cy="8.62" r="75.02" fx="87.18" fy="77.17" gradientTransform="matrix(1.02 0 0 -.65 15.95 318.37)" gradientUnits="userSpaceOnUse"><stop offset="0" stop-color="#ff5c66"></stop><stop offset=".31" stop-color="#ee3c42"></stop><stop offset=".77" stop-color="#d81113"></stop><stop offset="1" stop-color="#cf0000"></stop></radialGradient><radialGradient id="1770301554700-9946780_e" cx="658.29" cy="-779.32" r="163.82" fx="658.29" fy="-927.72" gradientTransform="matrix(.8 0 0 -.36 -206.9 117.4)" gradientUnits="userSpaceOnUse"><stop offset=".68" stop-color="#1f202b"></stop><stop offset=".75" stop-color="#363a46"></stop><stop offset=".82" stop-color="#474e5a"></stop><stop offset=".87" stop-color="#4d5561"></stop><stop offset=".94" stop-color="#2e313c"></stop><stop offset=".98" stop-color="#1f202b"></stop></radialGradient><radialGradient id="1770301554700-9946780_f" cx="624.39" cy="-664.31" r="135.61" fx="624.39" fy="-787.16" gradientTransform="matrix(.81 0 0 -.38 -190.28 124.62)" gradientUnits="userSpaceOnUse"><stop offset=".68" stop-color="#1f202b"></stop><stop offset=".75" stop-color="#363a46"></stop><stop offset=".82" stop-color="#474e5a"></stop><stop offset=".87" stop-color="#4d5561"></stop><stop offset=".94" stop-color="#2e313c"></stop><stop offset=".98" stop-color="#1f202b"></stop></radialGradient><radialGradient id="1770301554700-9946780_g" cx="824.29" cy="-772.76" r="121.4" fx="824.29" fy="-882.74" gradientTransform="matrix(.72 0 0 -.33 -278.44 100.98)" gradientUnits="userSpaceOnUse"><stop offset=".68" stop-color="#1f202b"></stop><stop offset=".75" stop-color="#363a46"></stop><stop offset=".82" stop-color="#474e5a"></stop><stop offset=".87" stop-color="#4d5561"></stop><stop offset=".94" stop-color="#2e313c"></stop><stop offset=".98" stop-color="#1f202b"></stop></radialGradient><radialGradient id="1770301554700-9946780_h" cx="1104.24" cy="-834.05" r="102.9" fx="1104.24" fy="-927.27" gradientTransform="matrix(.63 0 0 -.3 -373.67 86.99)" gradientUnits="userSpaceOnUse"><stop offset=".68" stop-color="#1f202b"></stop><stop offset=".75" stop-color="#363a46"></stop><stop offset=".82" stop-color="#474e5a"></stop><stop offset=".87" stop-color="#4d5561"></stop><stop offset=".94" stop-color="#2e313c"></stop><stop offset=".98" stop-color="#1f202b"></stop></radialGradient><radialGradient id="1770301554700-9946780_j" cx="235.18" cy="679.31" r="85.93" fx="200.74" fy="631.45" gradientTransform="matrix(1.24 0 0 -1.24 24.86 946.9)" gradientUnits="userSpaceOnUse"><stop offset="0" stop-color="#ff828a"></stop><stop offset=".14" stop-color="#fb787f"></stop><stop offset=".39" stop-color="#f15c61"></stop><stop offset=".71" stop-color="#e02f32"></stop><stop offset="1" stop-color="#cf0000"></stop></radialGradient><linearGradient id="1770301554700-9946780_c" x1="256" x2="256" y1="134.2" y2="297.22" gradientTransform="matrix(1 0 0 -1 0 616.4)" gradientUnits="userSpaceOnUse"><stop offset="0" stop-color="#4d5561"></stop><stop offset=".02" stop-color="#4a515d"></stop><stop offset=".13" stop-color="#3b404e"></stop><stop offset=".27" stop-color="#313543"></stop><stop offset=".46" stop-color="#2c2e3d"></stop><stop offset="1" stop-color="#2a2c3b"></stop></linearGradient><linearGradient id="1770301554700-9946780_i" x1="291.43" x2="342.63" y1="367.54" y2="367.54" gradientTransform="matrix(1 0 0 -1 0 616.4)" gradientUnits="userSpaceOnUse"><stop offset="0" stop-color="#6e787a"></stop><stop offset="0" stop-color="#727c7e"></stop><stop offset=".1" stop-color="#9da5a7"></stop><stop offset=".18" stop-color="#bcc3c5"></stop><stop offset=".24" stop-color="#cfd5d7"></stop><stop offset=".29" stop-color="#d6dbde"></stop><stop offset=".75" stop-color="#6e787a"></stop></linearGradient></defs><path d="M35.02 581.73c3.89 28.06 11.06 32.67 29.49 32.67h382.67c18.43 0 25.6-4.61 29.49-32.67z" class="u" fill="#1a1b24"></path><path d="m0 452.61 8.09 108.85c4.3 23.96 19.87 36.15 39.73 36.15h416.05c19.87 0 35.43-12.29 39.73-36.15l8.4-108.65z" fill="url(#1770301554700-9946780_b)"></path><path d="M481.89 482.2c20.58 0 35.02-19.97 28.26-39.12-11.57-32.77-27.55-77.52-35.23-98.51-5.63-15.26-20.28-25.4-36.86-25.4H73.93c-16.49 0-31.23 10.14-36.86 25.4-7.68 20.99-23.65 65.74-35.23 98.51-6.76 19.15 7.68 39.12 28.26 39.12z" fill="url(#1770301554700-9946780_c)"></path><path d="M113.36 331.57c-31.54 0-57.14 11.98-57.14 26.83s25.6 26.83 57.14 26.83 57.04-11.98 57.04-26.83c.1-14.85-25.5-26.83-57.04-26.83" class="u" fill="#1a1b24"></path><path d="M166.3 335.56H60.52v18.23c0 5.73 2.25 11.37 6.35 14.54 22.02 17 70.96 17 93.08 0 4.2-3.28 6.35-8.91 6.35-14.64v-18.12Z" fill="#cf0000"></path><path d="M113.36 309.15c-29.18 0-52.94 11.78-52.94 26.42s23.65 26.42 52.94 26.42 52.94-11.78 52.94-26.42-23.76-26.42-52.94-26.42" fill="url(#1770301554700-9946780_d)"></path><path d="M317.03 337.41c-69.43 0-125.64 26.21-125.64 58.57s56.22 58.47 125.64 58.47 125.64-26.21 125.64-58.47-56.22-58.57-125.64-58.57" fill="url(#1770301554700-9946780_e)"></path><path d="M317.03 323.17c-58.57 0-106.09 22.73-106.09 50.89s47.51 50.89 106.09 50.89 106.09-22.73 106.09-50.89-47.41-50.89-106.09-50.89" fill="url(#1770301554700-9946780_f)"></path><path d="M317.03 315.8c-46.69 0-84.58 17.92-84.58 40.04s37.89 40.04 84.58 40.04 84.58-17.92 84.58-40.04-37.79-40.04-84.58-40.04" fill="url(#1770301554700-9946780_g)"></path><path d="M317.03 309.15c-34.3 0-62.05 14.03-62.05 31.23s27.75 31.23 62.05 31.23 62.05-14.03 62.05-31.23-27.75-31.23-62.05-31.23" fill="url(#1770301554700-9946780_h)"></path><path d="M342.63 154.93h-51.2V328.5c0 19.05 51.2 19.05 51.2 0z" fill="url(#1770301554700-9946780_i)"></path><circle cx="317.13" cy="107.52" r="107.52" fill="url(#1770301554700-9946780_j)"></circle></g></svg>
