<svg xmlns="http://www.w3.org/2000/svg" data-name="Layer 1" style="" viewBox="0 0 512 512"><g><defs><linearGradient id="1770301555164-9513273_b" x1="213.33" x2="332.8" y1="87.33" y2="87.33" gradientTransform="matrix(1 0 0 -1 0 514)" gradientUnits="userSpaceOnUse"><stop offset=".17" stop-color="#9e6c48"></stop><stop offset=".35" stop-color="#996948"></stop><stop offset=".55" stop-color="#8c6148"></stop><stop offset=".74" stop-color="#785647"></stop></linearGradient><linearGradient id="1770301555164-9513273_d" x1="2.36" x2="259.99" y1="294.81" y2="294.81" gradientTransform="matrix(1 0 0 -1 0 514)" gradientUnits="userSpaceOnUse"><stop offset="0" stop-color="#7b9099"></stop><stop offset="1" stop-color="#302c3b"></stop></linearGradient><linearGradient id="1770301555164-9513273_e" x1="2.36" x2="259.99" y1="154.33" y2="154.33" gradientTransform="matrix(1 0 0 -1 0 514)" gradientUnits="userSpaceOnUse"><stop offset="0" stop-color="#7b9099"></stop><stop offset=".15" stop-color="#697882"></stop><stop offset=".38" stop-color="#505763"></stop><stop offset=".61" stop-color="#3e3f4d"></stop><stop offset=".82" stop-color="#343140"></stop><stop offset="1" stop-color="#302c3b"></stop></linearGradient><linearGradient id="1770301555164-9513273_g" x1="346.67" x2="346.67" y1="234.94" y2="514" gradientTransform="matrix(1 0 0 -1 0 514)" gradientUnits="userSpaceOnUse"><stop offset="0" stop-color="#cf0000"></stop><stop offset="1" stop-color="#ff000e"></stop></linearGradient><linearGradient id="1770301555164-9513273_h" x1="312.36" x2="303.86" y1="226.91" y2="280.56" gradientTransform="matrix(1 0 0 -1 0 514)" gradientUnits="userSpaceOnUse"><stop offset=".83" stop-color="#302c3b"></stop><stop offset=".87" stop-color="#343240"></stop><stop offset=".93" stop-color="#3e434f"></stop><stop offset="1" stop-color="#4e5e67"></stop></linearGradient><linearGradient id="1770301555164-9513273_i" x1="97.61" x2="97.61" y1="126.83" y2="337.94" gradientTransform="matrix(.99546 -.09515 -.19627 -.9858 108.42 514.44)" gradientUnits="userSpaceOnUse"><stop offset="0" stop-color="#e6ebed"></stop><stop offset=".51" stop-color="#dbe2e5"></stop><stop offset="1" stop-color="#ccd5d9"></stop></linearGradient><linearGradient id="1770301555164-9513273_j" x1="97.61" x2="97.61" y1="126.83" y2="289.33" gradientTransform="matrix(.99546 -.09515 -.19627 -.9858 108.42 514.44)" gradientUnits="userSpaceOnUse"><stop offset="0" stop-color="#e6ebed"></stop><stop offset=".26" stop-color="#e3e9eb"></stop><stop offset=".45" stop-color="#dae1e4"></stop><stop offset=".58" stop-color="#cfd8dd"></stop></linearGradient><linearGradient id="1770301555164-9513273_k" x1="106.49" x2="106.49" y1="196.28" y2="337.94" gradientTransform="matrix(.99546 -.09515 -.19627 -.9858 108.42 514.44)" gradientUnits="userSpaceOnUse"><stop offset="0" stop-color="#e6ebed"></stop><stop offset=".58" stop-color="#e3e9ec"></stop><stop offset="1" stop-color="#dae3e8"></stop></linearGradient><radialGradient id="1770301555164-9513273_c" cx="-642.91" cy="668.55" r="97.01" fx="-642.91" fy="668.55" gradientTransform="matrix(-.08797 -.97604 -4.98161 .42888 3517.818 -779.975)" gradientUnits="userSpaceOnUse"><stop offset="0" stop-color="#abbdc5"></stop><stop offset=".26" stop-color="#a7b8c0"></stop><stop offset=".57" stop-color="#9aaab2"></stop><stop offset=".9" stop-color="#86949a"></stop><stop offset="1" stop-color="#7e8b91"></stop></radialGradient><radialGradient id="1770301555164-9513273_f" cx="286.98" cy="202.23" r="13.46" fx="286.98" fy="202.23" gradientTransform="matrix(1 0 0 -1.17 0 609.4)" gradientUnits="userSpaceOnUse"><stop offset=".09" stop-color="#cfd8dd"></stop><stop offset=".59" stop-color="#a0abb0"></stop><stop offset="1" stop-color="#7e8a8f"></stop></radialGradient></defs><path d="M213.33 341.33H332.8V512H213.33z" fill="url(#1770301555164-9513273_b)"></path><path d="M373.9 34.13c-76.26 0-244.79 8.76-244.79 8.76l138.1 358.17L512 349.33V159.78c0-74.24-61.83-125.65-138.1-125.65" fill="url(#1770301555164-9513273_c)"></path><path d="M298.55 395.45c-7.48 3.74-31.33 5.61-31.33 5.61s-4.35-30.57 0-58.67c5.23 20.09 19.22 8.42 31.37 15.03 14 7.59 12 32-.03 38.02Z" fill="#687a82"></path><path d="M129.11 42.9C52.85 42.9 0 103.1 0 177.33v203.3l267.21 20.44V177.33c0-74.23-61.83-134.43-138.1-134.43" fill="#6e8189"></path><path d="M126.68 48.67C53.06 48.67 2.36 107 2.36 178.97v198.78l257.63 11.96V178.96c0-71.97-59.68-130.3-133.32-130.3Z" fill="url(#1770301555164-9513273_d)"></path><path d="m2.36 377.75 257.63 17.55v-71.26z" fill="url(#1770301555164-9513273_e)"></path><path d="M299.33 376.93c0 17.06-21.95 17.06-21.95 0s21.95-17.08 21.95 0" fill="url(#1770301555164-9513273_f)"></path><path d="M406.4 0 286.93 8.53V262c0 22.75 34.13 22.75 34.13 0V91.43l85.33-12.85V0Z" fill="url(#1770301555164-9513273_g)"></path><path d="m333.9 229.58-54.19 62.68-6.64 1.17v-59.28l60.83-8.26z" fill="#1a1626"></path><path d="m333.9 229.58-56.72 8.08 2.48 2.53.05 52.07 57.51-10.04-.2-50.69z" fill="url(#1770301555164-9513273_h)"></path><path d="m39.07 181.59 41.25 208.13 179.67-27.76v-97.02s-131.11-66.99-220.92-83.35" fill="url(#1770301555164-9513273_i)"></path><path d="M202.55 208.31 80.33 389.72c65.97-28.01 129.72-39.46 179.67-43.63V260.2z" class="x" fill="#99a8ae"></path><path d="m80.32 389.72 179.67-27.76v-97.03l-56.24-50.26z" fill="url(#1770301555164-9513273_j)"></path><path d="m39.07 181.59 176.44 128.62c4.21 3.06 9.47 2.44 12.32-1.44L260 264.93v-4.74s-129.45-61.24-220.93-78.6" class="x" fill="#99a8ae"></path><path d="M214.61 304.71c4.11 2.89 9.18 2.3 12.03-1.37l33.35-43.14v-81.24c0-1.58-.18-3.11-.25-4.68l-220.67 7.3L214.61 304.7Z" fill="url(#1770301555164-9513273_k)"></path></g></svg>
