<svg xmlns="http://www.w3.org/2000/svg" data-name="Layer 1" style="" viewBox="0 0 512 512"><g><defs><linearGradient id="1770301554718-3303147_b" x1="390.66" x2="263.65" y1="433.09" y2="348.19" gradientTransform="matrix(1 0 0 -1 0 514)" gradientUnits="userSpaceOnUse"><stop offset="0" stop-color="#4e5e67"></stop><stop offset=".04" stop-color="#5b6a72"></stop><stop offset=".19" stop-color="#859198"></stop><stop offset=".35" stop-color="#a8b1b7"></stop><stop offset=".51" stop-color="#c3cbd0"></stop><stop offset=".67" stop-color="#d7dde1"></stop><stop offset=".83" stop-color="#e2e7ec"></stop><stop offset="1" stop-color="#e6ebef"></stop></linearGradient><linearGradient id="1770301554718-3303147_c" x1="-23.25" x2="-87.59" y1="80.49" y2="144.83" gradientTransform="matrix(0 -1 -1 0 439.07 47.32)" gradientUnits="userSpaceOnUse"><stop offset="0" stop-color="#d3d7db"></stop><stop offset=".02" stop-color="#d6dade"></stop><stop offset=".16" stop-color="#e9ebed"></stop><stop offset=".32" stop-color="#f5f6f7"></stop><stop offset=".54" stop-color="#fdfdfd"></stop><stop offset="1" stop-color="#fff"></stop></linearGradient><linearGradient id="1770301554718-3303147_e" x1="508" x2="473.58" y1="219.62" y2="254.99" gradientTransform="matrix(1 0 0 -1 -28.02 500.38)" gradientUnits="userSpaceOnUse"><stop offset="0" stop-color="#6e787a"></stop><stop offset=".61" stop-color="#d6dbde"></stop><stop offset=".69" stop-color="#d2d8da"></stop><stop offset=".77" stop-color="#c7cdd0"></stop><stop offset=".84" stop-color="#b4bbbe"></stop><stop offset=".91" stop-color="#9aa2a4"></stop><stop offset=".98" stop-color="#788284"></stop><stop offset="1" stop-color="#6e787a"></stop></linearGradient><linearGradient id="1770301554718-3303147_f" x1="423.48" x2="396.27" y1="657.51" y2="685.46" gradientTransform="scale(1 -1) rotate(-45 -678.587 135.109)" gradientUnits="userSpaceOnUse"><stop offset="0" stop-color="#6e787a"></stop><stop offset=".61" stop-color="#d6dbde"></stop><stop offset=".69" stop-color="#d2d8da"></stop><stop offset=".77" stop-color="#c7cdd0"></stop><stop offset=".84" stop-color="#b4bbbe"></stop><stop offset=".91" stop-color="#9aa2a4"></stop><stop offset=".98" stop-color="#788284"></stop><stop offset="1" stop-color="#6e787a"></stop></linearGradient><linearGradient id="1770301554718-3303147_g" x1="423.48" x2="396.28" y1="651.54" y2="679.48" gradientTransform="scale(1 -1) rotate(-45 -678.587 135.109)" gradientUnits="userSpaceOnUse"><stop offset="0" stop-color="#6e787a"></stop><stop offset=".61" stop-color="#d6dbde"></stop><stop offset=".69" stop-color="#d2d8da"></stop><stop offset=".77" stop-color="#c7cdd0"></stop><stop offset=".84" stop-color="#b4bbbe"></stop><stop offset=".91" stop-color="#9aa2a4"></stop><stop offset=".98" stop-color="#788284"></stop><stop offset="1" stop-color="#6e787a"></stop></linearGradient><linearGradient id="1770301554718-3303147_h" x1="423.48" x2="396.28" y1="645.57" y2="673.51" gradientTransform="scale(1 -1) rotate(-45 -678.587 135.109)" gradientUnits="userSpaceOnUse"><stop offset="0" stop-color="#6e787a"></stop><stop offset=".61" stop-color="#d6dbde"></stop><stop offset=".69" stop-color="#d2d8da"></stop><stop offset=".77" stop-color="#c7cdd0"></stop><stop offset=".84" stop-color="#b4bbbe"></stop><stop offset=".91" stop-color="#9aa2a4"></stop><stop offset=".98" stop-color="#788284"></stop><stop offset="1" stop-color="#6e787a"></stop></linearGradient><linearGradient id="1770301554718-3303147_i" x1="300.59" x2="324.06" y1="72.78" y2="46.61" gradientTransform="matrix(1 0 0 -1 -28.02 500.38)" gradientUnits="userSpaceOnUse"><stop offset="0" stop-color="#fed0ac"></stop><stop offset=".25" stop-color="#fccda8"></stop><stop offset=".5" stop-color="#f5c39b"></stop><stop offset=".77" stop-color="#ebb286"></stop><stop offset="1" stop-color="#de9e6d"></stop></linearGradient><linearGradient id="1770301554718-3303147_j" x1="287.82" x2="301.53" y1="48.13" y2="34.73" gradientTransform="matrix(1 0 0 -1 -28.02 500.38)" gradientUnits="userSpaceOnUse"><stop offset="0" stop-color="#4e5e67"></stop><stop offset=".37" stop-color="#3f4450"></stop><stop offset=".74" stop-color="#343241"></stop><stop offset="1" stop-color="#302c3b"></stop></linearGradient><radialGradient id="1770301554718-3303147_d" cx="507.92" cy="247.49" r="29.65" fx="507.92" fy="247.49" gradientTransform="matrix(.97607 -.08763 .08713 -.98172 -35.39 513.43)" gradientUnits="userSpaceOnUse"><stop offset="0" stop-color="#ff709b"></stop><stop offset=".26" stop-color="#f96d97"></stop><stop offset=".61" stop-color="#e8638b"></stop><stop offset="1" stop-color="#cc5478"></stop></radialGradient></defs><path d="M409.59 512V185.19C409.59 130.09 294.76 0 263.39 0H0v512z" fill="#e6ebef"></path><path d="M263.39.13c29.39 0 146.19 116.11 146.19 185.07v186.01S-46.75 312.57 58.5 0l204.9.13Z" fill="url(#1770301554718-3303147_b)"></path><path d="M40 56h96v8H40zm0 72h320v8H40zm0 32h320v8H40zm0 32h320v8H40zm0 32h320v8H40zm0 32h288v8H40zm0 72h176v8H40zm0 32h320v8H40zm0 32h320v8H40zm0 32h112v8H40zm0 32h48v8H40z" fill="#99a8ae"></path><path d="M263.39.13c39.18 0 146.19 110.42 146.19 185.07 0 0-11.74-71.09-121.23-56.16C301.85 43.7 276.79 2.09 263.39.13" fill="url(#1770301554718-3303147_c)"></path><path d="M266.24 323.45h221.8v49.52h-221.8z" transform="rotate(-45 377.144 348.212)" fill="#f9c802"></path><path d="m504.97 224.8-4.45-4.44c-8.46-8.44-20.36-10.22-30.44-.14l-15.14 15.15 35 35.02 15.15-15.15c10.09-10.08 8.3-21.99-.13-30.44Z" fill="url(#1770301554718-3303147_d)"></path><path d="m489.96 270.39-35.02-35.02-19.86 19.86 35.03 35.02z" fill="url(#1770301554718-3303147_e)"></path><path d="M489.96 270.39c-6-6.01-28.4-28.42-35.02-35.02-1.5-1.5-5.72 2.72-4.22 4.22 5.93 5.95 26.74 26.74 35.02 35.02 1.5 1.51 5.72-2.72 4.22-4.22" fill="url(#1770301554718-3303147_f)"></path><path d="M485.74 274.61c-5.99-6-28.42-28.41-35.02-35.02-1.5-1.5-5.73 2.73-4.22 4.22 5.94 5.95 26.75 26.74 35.02 35.02 1.51 1.5 5.72-2.71 4.22-4.22" fill="url(#1770301554718-3303147_g)"></path><path d="m481.51 278.83-35.02-35.02c-1.5-1.5-5.72 2.71-4.22 4.22 5.94 5.95 26.74 26.74 35.02 35.02 1.5 1.5 5.74-2.72 4.22-4.22" fill="url(#1770301554718-3303147_h)"></path><path d="M254.3 330.12h217.59v14.01H254.3z" transform="rotate(-44.98 363.053 337.105)" fill="#ffe463"></path><path d="M279.43 355.21h217.6v14.02h-217.6z" transform="rotate(-45.02 388.283 362.24)" fill="#ea8800"></path><path d="m281.23 409.11-20.51 45.04 10.42 10.51 45.1-20.54c.98-11.01-8.41-5.42-7.8-12.02.53-5.9-9.29-15.73-15.2-15.2-7.53.67-.95-8.79-12.02-7.8Z" fill="url(#1770301554718-3303147_i)"></path><path d="M257.11 462.02c-2.83 6.26-.04 9.04 6.19 6.21l21.87-9.96-18.1-18.11-9.97 21.86Z" fill="url(#1770301554718-3303147_j)"></path></g></svg>
