<svg xmlns="http://www.w3.org/2000/svg" id="a" data-name="Layer 1" viewBox="0 0 512 304"><defs><linearGradient id="b" x1="369.87" x2="369.87" y1="241.49" y2="267.11" gradientTransform="matrix(1 0 0 -1 0 284)" gradientUnits="userSpaceOnUse"><stop offset="0" stop-color="#302c3b"/><stop offset=".29" stop-color="#454754"/><stop offset=".76" stop-color="#636d78"/><stop offset="1" stop-color="#6e7b85"/></linearGradient><linearGradient id="c" x1="326.63" x2="326.63" y1="126.31" y2="203.58" gradientTransform="matrix(1 0 0 -1 0 284)" gradientUnits="userSpaceOnUse"><stop offset="0" stop-color="#302c3b"/><stop offset=".29" stop-color="#454754"/><stop offset=".76" stop-color="#636d78"/><stop offset="1" stop-color="#6e7b85"/></linearGradient><linearGradient id="d" x1="252" x2="252" y1="149.03" y2="203.58" gradientTransform="matrix(1 0 0 -1 0 284)" gradientUnits="userSpaceOnUse"><stop offset="0" stop-color="#302c3b"/><stop offset=".29" stop-color="#454754"/><stop offset=".76" stop-color="#636d78"/><stop offset="1" stop-color="#6e7b85"/></linearGradient><linearGradient id="e" x1="270.43" x2="270.43" y1="8.11" y2="127.46" gradientTransform="matrix(1 0 0 -1 0 284)" gradientUnits="userSpaceOnUse"><stop offset="0" stop-color="#c6cfd4"/><stop offset=".18" stop-color="#cfd7db"/><stop offset=".65" stop-color="#e0e6ea"/><stop offset="1" stop-color="#e6ebef"/></linearGradient><linearGradient id="f" x1="284.01" x2="284.01" y1="-20" y2="57.64" gradientTransform="matrix(1 0 0 -1 0 284)" gradientUnits="userSpaceOnUse"><stop offset="0" stop-color="#c6cfd4"/><stop offset=".18" stop-color="#cfd7db"/><stop offset=".65" stop-color="#e0e6ea"/><stop offset="1" stop-color="#e6ebef"/></linearGradient><linearGradient id="g" x1="377.47" x2="377.47" y1="203.59" y2="241.49" gradientTransform="matrix(1 0 0 -1 0 284)" gradientUnits="userSpaceOnUse"><stop offset="0" stop-color="#c6cfd4"/><stop offset=".18" stop-color="#cfd7db"/><stop offset=".65" stop-color="#e0e6ea"/><stop offset="1" stop-color="#e6ebef"/></linearGradient><style>.n{fill:#cfd8dd}.p{fill:#99a8ae}.q{fill:#4e5e67}</style></defs><path d="M479.58 0 461.9 10.7h3.11l5.73-3.48v8.83l-5.64 12.37-8.99-5.84-3.04.75 11.07 7.18-5.19 11.35h3.11l11.79-25.81V5.34L482.7 0z" class="p"/><path d="M462.74 23.73h-15.29l1.41-7.71h12.47z" class="n"/><path d="M418.94 148.1h68.26l-8.16 27.07-60.1-10.18z" class="p"/><path d="M306.01 42.51s.78-12.82-6.54-25.62c110.26 0 129.86 7.43 140.8 25.62z" style="fill:url(#b)"/><path d="M276.45 69.88h132.41l26.16 94.7-225.93-34.76zm169.81 91.75L420.1 66.94h-4.57l25.78 93.31z" class="q"/><path d="m355.52 55.54-10.31-38.08-5.08-.14 10.44 36.85z" class="n"/><path d="m395.31 157.69-15.62-77.26h-71l-50.74 56.26 137.35 21Z" style="fill:url(#c)"/><path d="M294.91 80.42h-30.3l-55.52 49.39 34.81 5.15 51.02-54.54Z" style="fill:url(#d)"/><path d="M28.87 175.17c195.51-41.92 458.7 0 458.7 0L512 255.65s-266.49 61.22-455.97-29.29c-9.14-12.28-27.16-51.19-27.16-51.19" style="fill:url(#e)"/><path d="M32.52 182.91c176.55-11.56 394.7.46 394.7.46l16.18 20.73s-271.25-5.25-399.61 1.41c-3.89-7.57-11.27-22.6-11.27-22.6" class="q"/><path d="M56.03 226.36C87.66 276.14 183.13 304 265.99 304c131.45 0 214.94-2.19 228.22-16.74 4.84-5.27 17.79-31.61 17.79-31.61s-318.42 21.9-455.97-29.29" style="fill:url(#f)"/><path d="M276.45 69.88s12.08-17.18 29.56-27.37h165.71c14.19 0 2.23 27.37-1.54 27.37h-46.35v10.54h-25.46l-8.89-10.54z" style="fill:url(#g)"/><path d="M383.65 51.33c-9.49 0 8-17.62 21.14-17.62 64.27 0 99.3 17.62 78.16 17.62zM28.87 175.17c10.03-27.66 154.87-51.89 187.54-51.89-2.07 15.38 251.54 37.33 251.54 37.33l19.62 14.56s-340.71-15.32-458.69 0Z" class="n"/><path d="m9.36 133.25 24.42 36.05h7.16L16.5 133.25zm61.76-2.33 19.69 38.38h6.11l-19.7-38.38zm67.17-3.38 17.13 41.76h5.9l-17.14-41.76zm64.6-1.48 17.12 43.24h5.92l-17.13-43.24zm64.6 1.48 17.13 41.76h5.91l-17.13-41.76zm64.6 2.13 17.13 39.63h5.91L338 129.67zm69.66 3.58h-5.06l17.14 36.05h5.91l-17.14-36.06c-.79 0-.82.02-.86.02Z" style="fill:#6e8189"/><path d="M29.48 175.27c-1.98.1-2.22-5.8-.23-5.9 131.19-7.21 263.34-7.44 394.52-.24 1.98.11 1.74 5.98-.23 5.86-131.04-7.18-263.03-6.93-394.06.27ZM1.6 136.73c-1.98.13-2.21-5.76-.24-5.85 140.73-7.77 281.67-7.74 422.41 0 1.97.11 1.74 5.98-.23 5.85-140.57-7.7-281.38-7.7-421.94 0" class="p"/><path d="M104.5 196.92H86.18c-4.61 0-4.61-10.47 0-10.47h18.32c4.61 0 4.61 10.47 0 10.47m135.46-2.37h-18.33c-4.61 0-4.61-10.46 0-10.46h18.33c4.61 0 4.61 10.46 0 10.46m136.94 2.37h-18.32c-4.61 0-4.61-10.47 0-10.47h18.32c4.61 0 4.61 10.47 0 10.47" style="fill:#302c3b"/></svg>