<svg xmlns="http://www.w3.org/2000/svg" data-name="Layer 1" style="" viewBox="0 0 512 511.95"><g><defs><radialGradient id="1770301554723-8741349_c" cx="414.07" cy="34.98" r="58.69" fx="385.33" fy="-3.16" gradientTransform="matrix(1.06 0 0 -.85 -67.45 403.75)" gradientUnits="userSpaceOnUse"><stop offset="0" stop-color="#696f80"></stop><stop offset=".24" stop-color="#666c7d"></stop><stop offset=".44" stop-color="#5d6172"></stop><stop offset=".63" stop-color="#4d5060"></stop><stop offset=".81" stop-color="#373748"></stop><stop offset=".99" stop-color="#1c1828"></stop><stop offset="1" stop-color="#1a1626"></stop></radialGradient><radialGradient id="1770301554723-8741349_e" cx="145.91" cy="-6.79" r="58.73" fx="117.15" fy="-44.95" gradientTransform="rotate(3.96 6724.946 -341.353) scale(1.06 -.85)" gradientUnits="userSpaceOnUse"><stop offset="0" stop-color="#696f80"></stop><stop offset=".24" stop-color="#666c7d"></stop><stop offset=".44" stop-color="#5d6172"></stop><stop offset=".63" stop-color="#4d5060"></stop><stop offset=".81" stop-color="#373748"></stop><stop offset=".99" stop-color="#1c1828"></stop><stop offset="1" stop-color="#1a1626"></stop></radialGradient><radialGradient id="1770301554723-8741349_g" cx="2.73" cy="183.37" r="58.74" fx="-26.04" fy="145.2" gradientTransform="matrix(1.05526 -.10012 -.08029 -.8462 79.47 480.638)" gradientUnits="userSpaceOnUse"><stop offset="0" stop-color="#696f80"></stop><stop offset=".24" stop-color="#666c7d"></stop><stop offset=".44" stop-color="#5d6172"></stop><stop offset=".63" stop-color="#4d5060"></stop><stop offset=".81" stop-color="#373748"></stop><stop offset=".99" stop-color="#1c1828"></stop><stop offset="1" stop-color="#1a1626"></stop></radialGradient><linearGradient id="1770301554723-8741349_b" x1="369.66" x2="369.66" y1="1323.43" y2="1006.84" gradientTransform="translate(94 -954)" gradientUnits="userSpaceOnUse"><stop offset="0" stop-color="#1a1626"></stop><stop offset=".23" stop-color="#1d1929"></stop><stop offset=".44" stop-color="#262434"></stop><stop offset=".63" stop-color="#363646"></stop><stop offset=".82" stop-color="#4c4f5f"></stop><stop offset="1" stop-color="#696f80"></stop></linearGradient><linearGradient id="1770301554723-8741349_d" x1="84.45" x2="84.45" y1="1346.72" y2="1030.08" gradientTransform="rotate(-3.96 -12817.347 -2003.639)" gradientUnits="userSpaceOnUse"><stop offset="0" stop-color="#1a1626"></stop><stop offset=".23" stop-color="#1d1929"></stop><stop offset=".44" stop-color="#262434"></stop><stop offset=".63" stop-color="#363646"></stop><stop offset=".82" stop-color="#4c4f5f"></stop><stop offset="1" stop-color="#696f80"></stop></linearGradient><linearGradient id="1770301554723-8741349_f" x1="-67.7" x2="-67.7" y1="1177.81" y2="861.18" gradientTransform="rotate(-5.42 -9096.45 -1636.635)" gradientUnits="userSpaceOnUse"><stop offset="0" stop-color="#1a1626"></stop><stop offset=".23" stop-color="#1d1929"></stop><stop offset=".44" stop-color="#262434"></stop><stop offset=".63" stop-color="#363646"></stop><stop offset=".82" stop-color="#4c4f5f"></stop><stop offset="1" stop-color="#696f80"></stop></linearGradient></defs><path d="M439.64 365.49c-4.35-104.7.94-224.67.94-224.67 27.65 7.85 46.93 70.31 17.92 126.03-5.46 10.5 12.88 7.25 20.56-1.96 77.91-93.44-3.41-179.53-29.61-204.36-15.7-14.85-34.13-7.51-34.13 16.3 0 38.31 1.88 204.28 3.16 264.69.26 13.4 21.67 37.37 21.16 23.98Z" fill="url(#1770301554723-8741349_b)"></path><ellipse cx="372.83" cy="374.11" rx="67.75" ry="53.25" fill="url(#1770301554723-8741349_c)"></ellipse><path d="M260.88 445.44c-11.6-104.19-14.59-224.25-14.59-224.25 28.16 5.97 51.71 66.9 26.54 124.5-4.78 10.92 13.31 6.31 20.39-3.41 71.34-98.47-15.79-178.77-43.69-201.8-16.72-13.74-34.56-5.12-32.94 18.6 2.65 38.23 16.04 203.68 21.42 263.93 1.28 13.31 24.32 35.75 22.87 22.44Z" fill="url(#1770301554723-8741349_d)"></path><path d="M262.41 453.98c2.05 29.35-26.62 55.21-63.91 57.77-37.37 2.56-69.29-19.11-71.34-48.47-2.05-29.35 26.62-55.21 63.91-57.77s69.37 19.11 71.34 48.47" fill="url(#1770301554723-8741349_e)"></path><path d="M133.39 310.71c-14.16-103.85-20.22-223.73-20.22-223.73 28.24 5.21 53.42 65.53 29.69 123.73-4.44 11.01 13.48 5.97 20.31-3.93 68.78-100.27-20.3-178.34-48.8-200.62C97.3-7.15 79.73 1.89 81.94 25.62c3.58 38.14 21.16 203.17 28.07 263.24 1.54 13.31 25.17 35.16 23.38 21.84Z" fill="url(#1770301554723-8741349_f)"></path><path d="M135.19 319.24c2.82 29.27-25.17 55.89-62.46 59.39S3.01 361.31.2 332.04c-2.82-29.27 25.17-55.89 62.46-59.39s69.71 17.32 72.53 46.59" fill="url(#1770301554723-8741349_g)"></path></g></svg>
