<svg xmlns="http://www.w3.org/2000/svg" data-name="Layer 1" style="" viewBox="0 0 512 529.66"><g><defs><linearGradient id="1770301554723-174118_b" x1="441.38" x2="441.38" y1="28.48" y2="522.83" gradientTransform="matrix(1 0 0 -1 0 531.66)" gradientUnits="userSpaceOnUse"><stop offset="0" stop-color="#fff"></stop><stop offset=".27" stop-color="#f8f9fa"></stop><stop offset=".67" stop-color="#e4e9ec"></stop><stop offset="1" stop-color="#cfd8dd"></stop></linearGradient><linearGradient id="1770301554723-174118_c" x1="317.79" x2="317.79" y1="28.48" y2="522.83" gradientTransform="matrix(1 0 0 -1 0 531.66)" gradientUnits="userSpaceOnUse"><stop offset="0" stop-color="#fff"></stop><stop offset=".27" stop-color="#f8f9fa"></stop><stop offset=".67" stop-color="#e4e9ec"></stop><stop offset="1" stop-color="#cfd8dd"></stop></linearGradient><linearGradient id="1770301554723-174118_d" x1="194.21" x2="194.21" y1="28.48" y2="522.83" gradientTransform="matrix(1 0 0 -1 0 531.66)" gradientUnits="userSpaceOnUse"><stop offset="0" stop-color="#fff"></stop><stop offset=".27" stop-color="#f8f9fa"></stop><stop offset=".67" stop-color="#e4e9ec"></stop><stop offset="1" stop-color="#cfd8dd"></stop></linearGradient><linearGradient id="1770301554723-174118_e" x1="70.62" x2="70.62" y1="28.48" y2="522.83" gradientTransform="matrix(1 0 0 -1 0 531.66)" gradientUnits="userSpaceOnUse"><stop offset="0" stop-color="#fff"></stop><stop offset=".27" stop-color="#f8f9fa"></stop><stop offset=".67" stop-color="#e4e9ec"></stop><stop offset="1" stop-color="#cfd8dd"></stop></linearGradient><linearGradient id="1770301554723-174118_f" x1="344.28" x2="414.9" y1="318.7" y2="318.7" gradientTransform="matrix(1 0 0 -1 0 531.66)" gradientUnits="userSpaceOnUse"><stop offset="0" stop-color="#5b666e"></stop><stop offset=".05" stop-color="#576169"></stop><stop offset=".1" stop-color="#4c525c"></stop><stop offset=".16" stop-color="#3a3a47"></stop><stop offset=".19" stop-color="#302c3b"></stop></linearGradient><linearGradient id="1770301554723-174118_g" x1="379.59" x2="379.59" y1="231.52" y2="443.38" gradientTransform="matrix(1 0 0 -1 0 531.66)" gradientUnits="userSpaceOnUse"><stop offset="0" stop-color="#5b666e"></stop><stop offset=".23" stop-color="#515862"></stop><stop offset="1" stop-color="#302c3b"></stop></linearGradient><linearGradient id="1770301554723-174118_h" x1="220.69" x2="291.31" y1="318.7" y2="318.7" gradientTransform="matrix(1 0 0 -1 0 531.66)" gradientUnits="userSpaceOnUse"><stop offset="0" stop-color="#5b666e"></stop><stop offset=".05" stop-color="#576169"></stop><stop offset=".1" stop-color="#4c525c"></stop><stop offset=".16" stop-color="#3a3a47"></stop><stop offset=".19" stop-color="#302c3b"></stop></linearGradient><linearGradient id="1770301554723-174118_i" x1="256" x2="256" y1="231.52" y2="443.38" gradientTransform="matrix(1 0 0 -1 0 531.66)" gradientUnits="userSpaceOnUse"><stop offset="0" stop-color="#5b666e"></stop><stop offset=".23" stop-color="#515862"></stop><stop offset="1" stop-color="#302c3b"></stop></linearGradient><linearGradient id="1770301554723-174118_j" x1="88.28" x2="158.9" y1="318.7" y2="318.7" gradientTransform="matrix(1 0 0 -1 0 531.66)" gradientUnits="userSpaceOnUse"><stop offset="0" stop-color="#5b666e"></stop><stop offset=".05" stop-color="#576169"></stop><stop offset=".1" stop-color="#4c525c"></stop><stop offset=".16" stop-color="#3a3a47"></stop><stop offset=".19" stop-color="#302c3b"></stop></linearGradient><linearGradient id="1770301554723-174118_k" x1="123.59" x2="123.59" y1="231.52" y2="443.38" gradientTransform="matrix(1 0 0 -1 0 531.66)" gradientUnits="userSpaceOnUse"><stop offset="0" stop-color="#5b666e"></stop><stop offset=".23" stop-color="#515862"></stop><stop offset="1" stop-color="#302c3b"></stop></linearGradient><linearGradient id="1770301554723-174118_l" x1="256" x2="256" y1="443.38" y2="531.66" gradientTransform="matrix(1 0 0 -1 0 531.66)" gradientUnits="userSpaceOnUse"><stop offset=".45" stop-color="#302c3b"></stop><stop offset=".67" stop-color="#322e3d"></stop><stop offset=".78" stop-color="#383644"></stop><stop offset=".87" stop-color="#424450"></stop><stop offset=".96" stop-color="#505861"></stop><stop offset="1" stop-color="#5b666e"></stop></linearGradient></defs><path d="M485.52 0H26.48C16.77 0 8.83 7.94 8.83 17.66V512c0 9.71 7.94 17.66 17.66 17.66h88.28c9.71 0 17.66-7.94 17.66-17.66 0 9.71 7.94 17.66 17.66 17.66h88.28c9.71 0 17.66-7.94 17.66-17.66 0 9.71 7.94 17.66 17.66 17.66h88.28c9.71 0 17.66-7.94 17.66-17.66 0 9.71 7.94 17.66 17.66 17.66h88.28c9.71 0 17.66-7.94 17.66-17.66V17.66c0-9.72-7.94-17.66-17.66-17.66Z" fill="#b3c2c6"></path><path d="M494.34 485.52c0 9.71-7.94 17.66-17.66 17.66h-70.62c-9.71 0-17.66-7.94-17.66-17.66V26.48c0-9.72 7.94-17.66 17.66-17.66h70.62c9.71 0 17.66 7.94 17.66 17.66v459.03Z" fill="url(#1770301554723-174118_b)"></path><path d="M370.76 485.52c0 9.71-7.94 17.66-17.66 17.66h-70.62c-9.71 0-17.66-7.94-17.66-17.66V26.48c0-9.72 7.94-17.66 17.66-17.66h70.62c9.71 0 17.66 7.94 17.66 17.66v459.03Z" fill="url(#1770301554723-174118_c)"></path><path d="M247.17 485.52c0 9.71-7.94 17.66-17.66 17.66h-70.62c-9.71 0-17.66-7.94-17.66-17.66V26.48c0-9.72 7.94-17.66 17.66-17.66h70.62c9.71 0 17.66 7.94 17.66 17.66v459.03Z" fill="url(#1770301554723-174118_d)"></path><path d="M123.59 485.52c0 9.71-7.94 17.66-17.66 17.66H35.31c-9.71 0-17.66-7.94-17.66-17.66V26.48c0-9.72 7.94-17.66 17.66-17.66h70.62c9.71 0 17.66 7.94 17.66 17.66v459.03Z" fill="url(#1770301554723-174118_e)"></path><path d="M414.9 326.62c0 9.71-7.94 17.66-17.66 17.66h-35.31c-9.71 0-17.66-7.94-17.66-17.66V88.28c0-8.85 70.62-8.85 70.62 0v238.34Z" fill="url(#1770301554723-174118_f)"></path><path d="M406.07 282.48c0 9.71-7.94 17.66-17.66 17.66h-17.66c-9.71 0-17.66-7.94-17.66-17.66V88.28h52.97v194.21Z" fill="url(#1770301554723-174118_g)"></path><path d="M291.31 326.62c0 9.71-7.94 17.66-17.66 17.66h-35.31c-9.71 0-17.66-7.94-17.66-17.66V88.28c0-8.85 70.62-8.85 70.62 0v238.34Z" fill="url(#1770301554723-174118_h)"></path><path d="M282.48 282.48c0 9.71-7.94 17.66-17.66 17.66h-17.66c-9.71 0-17.66-7.94-17.66-17.66V88.28h52.97v194.21Z" fill="url(#1770301554723-174118_i)"></path><path d="M158.9 326.62c0 9.71-7.94 17.66-17.66 17.66h-35.31c-9.71 0-17.66-7.94-17.66-17.66V88.28c0-8.85 70.62-8.85 70.62 0v238.34Z" fill="url(#1770301554723-174118_j)"></path><path d="M150.07 282.48c0 9.71-7.94 17.66-17.66 17.66h-17.66c-9.71 0-17.66-7.94-17.66-17.66V88.28h52.97v194.21Z" fill="url(#1770301554723-174118_k)"></path><path d="M17.66 88.28h476.69c9.71 0 17.66-7.94 17.66-17.66V17.66c0-9.71-7.94-17.66-17.66-17.66H17.66C7.94 0 0 7.94 0 17.66v52.97c0 9.71 7.94 17.66 17.66 17.66Z" fill="url(#1770301554723-174118_l)"></path></g></svg>
