<svg xmlns="http://www.w3.org/2000/svg" data-name="Layer 1" style="" viewBox="0 0 512 512"><g><defs><linearGradient id="1770301554729-8481169_b" x1="133.72" x2="63.32" y1="50.39" y2="170.38" gradientTransform="matrix(1 0 0 -1 0 514)" gradientUnits="userSpaceOnUse"><stop offset="0" stop-color="#db7600"></stop><stop offset=".23" stop-color="#e18608"></stop><stop offset=".67" stop-color="#f1af1f"></stop><stop offset="1" stop-color="#ffd231"></stop></linearGradient><linearGradient id="1770301554729-8481169_d" x1="-633.17" x2="-523.7" y1="674.88" y2="674.88" gradientTransform="rotate(213.59 -181.425 238.057)" gradientUnits="userSpaceOnUse"><stop offset="0" stop-color="#53daf2"></stop><stop offset=".21" stop-color="#4ed5f1"></stop><stop offset=".46" stop-color="#40c7ed"></stop><stop offset=".72" stop-color="#28afe7"></stop><stop offset="1" stop-color="#078ede"></stop><stop offset="1" stop-color="#078ede"></stop></linearGradient><linearGradient id="1770301554729-8481169_e" x1="-633.59" x2="-521.04" y1="1547.18" y2="1547.18" gradientTransform="scale(-1 1) rotate(-33.59 -2965.81 531.27)" gradientUnits="userSpaceOnUse"><stop offset="0" stop-color="#078ede"></stop><stop offset=".08" stop-color="#1199e2"></stop><stop offset=".33" stop-color="#2fbaef"></stop><stop offset=".58" stop-color="#45d2f8"></stop><stop offset=".81" stop-color="#52e0fd"></stop><stop offset="1" stop-color="#57e5ff"></stop></linearGradient><linearGradient id="1770301554729-8481169_f" x1="-633.78" x2="-524.32" y1="581.23" y2="581.23" gradientTransform="rotate(213.59 -181.425 238.057)" gradientUnits="userSpaceOnUse"><stop offset="0" stop-color="#53daf2"></stop><stop offset=".21" stop-color="#4ed5f1"></stop><stop offset=".46" stop-color="#40c7ed"></stop><stop offset=".72" stop-color="#28afe7"></stop><stop offset="1" stop-color="#078ede"></stop><stop offset="1" stop-color="#078ede"></stop></linearGradient><linearGradient id="1770301554729-8481169_g" x1="-634.01" x2="-521.91" y1="1646.47" y2="1646.47" gradientTransform="scale(-1 1) rotate(-33.59 -2965.81 531.27)" gradientUnits="userSpaceOnUse"><stop offset="0" stop-color="#078ede"></stop><stop offset=".08" stop-color="#1199e2"></stop><stop offset=".33" stop-color="#2fbaef"></stop><stop offset=".58" stop-color="#45d2f8"></stop><stop offset=".81" stop-color="#52e0fd"></stop><stop offset="1" stop-color="#57e5ff"></stop></linearGradient><linearGradient id="1770301554729-8481169_h" x1="-635.77" x2="-520.07" y1="1807.17" y2="1807.17" gradientTransform="scale(-1 1) rotate(-33.59 -2965.81 531.27)" gradientUnits="userSpaceOnUse"><stop offset="0" stop-color="#57e5ff"></stop><stop offset=".19" stop-color="#52e0fd"></stop><stop offset=".42" stop-color="#45d2f8"></stop><stop offset=".67" stop-color="#2fbaef"></stop><stop offset=".92" stop-color="#1199e2"></stop><stop offset="1" stop-color="#078ede"></stop></linearGradient><linearGradient id="1770301554729-8481169_i" x1="-970.6" x2="-892.62" y1="1057.53" y2="1057.53" gradientTransform="rotate(247.06 -497.61 226.056)" gradientUnits="userSpaceOnUse"><stop offset=".23" stop-color="#aa5bef"></stop><stop offset=".49" stop-color="#a858ee"></stop><stop offset=".66" stop-color="#a250e9"></stop><stop offset=".8" stop-color="#9641e1"></stop><stop offset=".93" stop-color="#872cd7"></stop><stop offset="1" stop-color="#7c1dcf"></stop></linearGradient><linearGradient id="1770301554729-8481169_j" x1="-971.33" x2="-891.16" y1="1176.55" y2="1176.55" gradientTransform="scale(-1 1) rotate(-67.06 -1368.673 381.263)" gradientUnits="userSpaceOnUse"><stop offset="0" stop-color="#7c1dcf"></stop><stop offset=".07" stop-color="#872cd7"></stop><stop offset=".2" stop-color="#9641e1"></stop><stop offset=".34" stop-color="#a250e9"></stop><stop offset=".51" stop-color="#a858ee"></stop><stop offset=".77" stop-color="#aa5bef"></stop></linearGradient><linearGradient id="1770301554729-8481169_k" x1="-971.03" x2="-893.06" y1="990.84" y2="990.84" gradientTransform="rotate(247.06 -497.61 226.056)" gradientUnits="userSpaceOnUse"><stop offset=".23" stop-color="#aa5bef"></stop><stop offset=".49" stop-color="#a858ee"></stop><stop offset=".66" stop-color="#a250e9"></stop><stop offset=".8" stop-color="#9641e1"></stop><stop offset=".93" stop-color="#872cd7"></stop><stop offset="1" stop-color="#7c1dcf"></stop></linearGradient><linearGradient id="1770301554729-8481169_l" x1="-971.62" x2="-891.78" y1="1247.27" y2="1247.27" gradientTransform="scale(-1 1) rotate(-67.06 -1368.673 381.263)" gradientUnits="userSpaceOnUse"><stop offset="0" stop-color="#7c1dcf"></stop><stop offset=".07" stop-color="#872cd7"></stop><stop offset=".2" stop-color="#9641e1"></stop><stop offset=".34" stop-color="#a250e9"></stop><stop offset=".51" stop-color="#a858ee"></stop><stop offset=".77" stop-color="#aa5bef"></stop></linearGradient><linearGradient id="1770301554729-8481169_m" x1="-972.87" x2="-890.45" y1="1361.7" y2="1361.7" gradientTransform="scale(-1 1) rotate(-67.06 -1368.673 381.263)" gradientUnits="userSpaceOnUse"><stop offset=".23" stop-color="#aa5bef"></stop><stop offset=".49" stop-color="#a858ee"></stop><stop offset=".66" stop-color="#a250e9"></stop><stop offset=".8" stop-color="#9641e1"></stop><stop offset=".93" stop-color="#872cd7"></stop><stop offset="1" stop-color="#7c1dcf"></stop></linearGradient><linearGradient id="1770301554729-8481169_n" x1="364.36" x2="438.43" y1="522.39" y2="522.39" gradientTransform="scale(1 -1) rotate(-27.83 -894.145 616.623)" gradientUnits="userSpaceOnUse"><stop offset="0" stop-color="#ff000e"></stop><stop offset="1" stop-color="#b80000"></stop></linearGradient><linearGradient id="1770301554729-8481169_o" x1="364.91" x2="441.07" y1="1713.13" y2="1713.13" gradientTransform="rotate(27.83 3677.922 515.003)" gradientUnits="userSpaceOnUse"><stop offset="0" stop-color="#cf0000"></stop><stop offset="1" stop-color="#ff000e"></stop></linearGradient><linearGradient id="1770301554729-8481169_p" x1="363.95" x2="438" y1="459.02" y2="459.02" gradientTransform="scale(1 -1) rotate(-27.83 -894.145 616.623)" gradientUnits="userSpaceOnUse"><stop offset="0" stop-color="#ff000e"></stop><stop offset="1" stop-color="#b80000"></stop></linearGradient><linearGradient id="1770301554729-8481169_q" x1="364.63" x2="440.5" y1="1780.32" y2="1780.32" gradientTransform="rotate(27.83 3677.922 515.003)" gradientUnits="userSpaceOnUse"><stop offset="0" stop-color="#cf0000"></stop><stop offset="1" stop-color="#ff000e"></stop></linearGradient><linearGradient id="1770301554729-8481169_r" x1="363.46" x2="441.77" y1="1889.05" y2="1889.05" gradientTransform="rotate(27.83 3677.922 515.003)" gradientUnits="userSpaceOnUse"><stop offset="0" stop-color="#cf0000"></stop><stop offset="1" stop-color="#ff000e"></stop></linearGradient><radialGradient id="1770301554729-8481169_c" cx="184.8" cy="193.02" r="94.34" fx="184.8" fy="193.02" gradientTransform="matrix(1 0 0 -1 0 514)" gradientUnits="userSpaceOnUse"><stop offset="0" stop-color="#853b1b"></stop><stop offset=".18" stop-color="#7d391d"></stop><stop offset=".47" stop-color="#673321"></stop><stop offset=".82" stop-color="#432928"></stop><stop offset=".87" stop-color="#3d2729"></stop></radialGradient></defs><path d="M91 234.85.28 505.2c-1.35 4.04 2.36 7.97 6.47 6.49l259.93-94.05z" fill="url(#1770301554729-8481169_b)"></path><path d="M216.85 288.33c49.63 50.55 75.25 106.42 57.23 124.77-18.03 18.36-72.92-7.72-122.56-58.27-49.63-50.54-75.25-106.41-57.22-124.77s72.9 7.73 122.55 58.27" fill="#e88a30"></path><path d="m71.97 398.19-4.55-26.67-20.02-6.75 2.02-5.99 16.33-8.43.3-27.05 19.33 18.91 25.78-8.09-11.98 24.23 15.67 22.05-26.75-3.92zm43.35 53.63-24.07 12.3 23.92 8.35 33.78-12.24 11.95-24.15-25.87 7.82-19.13-19.11zM3.25 496.35l16.5-18.24 23.53 5.93-11.98-21.12 12.92-20.54-24.69 5.44z" style="isolation:isolate" fill="#fff" opacity=".3"></path><path d="M215.95 289.24c48.68 49.54 74.16 103.92 56.99 121.45-17.22 17.51-70.63-8.43-119.31-57.98-48.67-49.51-74.16-103.88-56.95-121.41 17.19-17.54 70.62 8.41 119.28 57.94Z" fill="url(#1770301554729-8481169_c)"></path><path d="M352.4 52.92c18-9.67 87.7 51.82 51.55 101.79-2.55 3.55 17.15-10.37 15.93-6.72 47.45-52.74-43.56-131.12-54.5-114.66-11.88 17.89-1.11 1.69-12.98 19.58Z" fill="url(#1770301554729-8481169_d)"></path><path d="M365.36 33.31c-5.38 30.87 86.37 47.81 121.02 14.5-30.18 64.18-128.73 46.26-139.2 12.89-2.51-8.1 6.32-9.49 18.18-27.39" fill="url(#1770301554729-8481169_e)"></path><path d="M302.45 129.27c17.96-9.64 90.8 47.82 53.67 109.1-2.29 3.79 15.05-17.72 13.82-14.03 47.44-52.74-43.56-131.11-54.5-114.66-11.88 17.9-1.09 1.71-12.98 19.59Z" fill="url(#1770301554729-8481169_f)"></path><path d="M315.42 109.69c-3.46 30.4 78.45 56.8 113.2 25.42-32.44 70.91-124.42 33.78-131.35 1.96-1.82-8.25 6.28-9.49 18.15-27.38" fill="url(#1770301554729-8481169_g)"></path><path d="M376.5 215.52c-56.18 116.63-161.95 55.69-212.67 114.28 61.78-93.08 146.53-38.87 212.67-114.28" fill="url(#1770301554729-8481169_h)"></path><path d="M430.4 262.19c14.46 1.34 31.74 65.25-9.35 80.74-2.92 1.1 14.25.57 12.1 2.26 48.89-12.68 25.6-95.01 12.65-89.52-14.06 5.96-1.33.55-15.39 6.52Z" fill="url(#1770301554729-8481169_i)"></path><path d="M445.8 255.66c-15.32 16.2 32.54 62.33 66.2 56.13-43.14 26.28-94.65-23.09-87.75-47.02 1.66-5.79 7.47-3.16 21.55-9.11" fill="url(#1770301554729-8481169_j)"></path><path d="M370.73 287.92c14.46 1.32 35.15 64.09-10.95 85.9-2.85 1.35 15.88-4.62 13.71-2.9 48.89-12.69 25.6-95.01 12.63-89.52-14.05 5.96-1.31.56-15.39 6.53Z" fill="url(#1770301554729-8481169_k)"></path><path d="M386.13 281.4c-14 16.69 24.3 64.57 57.27 59.56-47.11 29.4-87.19-28.82-78.81-50.44 2.17-5.61 7.47-3.16 21.55-9.12Z" fill="url(#1770301554729-8481169_l)"></path><path d="M380.87 368.25c-79.18 47.21-118.08-30.54-171.23-15.67 73.26-31.01 102.33 34.49 171.23 15.67" fill="url(#1770301554729-8481169_m)"></path><path d="M244.32 81.29c-.09-13.83-59.19-35.36-77.17 2.3-1.28 2.66.61-13.53-1.17-11.65 15.97-45.25 91.97-16.53 85.75-4.71-6.8 12.85-.65 1.21-7.42 14.06Z" fill="url(#1770301554729-8481169_n)"></path><path d="M251.73 67.23C235.17 80.41 195.39 31.37 203.96 0c-28.35 38.72 14.2 91.49 37.38 86.9 5.63-1.12 3.58-6.83 10.39-19.68Z" fill="url(#1770301554729-8481169_o)"></path><path d="M215.12 135.68c-.09-13.8-57.81-38.49-82.18 3.4-1.52 2.6 5.65-14.68 3.87-12.73 15.95-45.27 91.98-16.55 85.73-4.74-6.78 12.86-.65 1.22-7.42 14.06Z" fill="url(#1770301554729-8481169_p)"></path><path d="M222.53 121.63c-16.91 11.91-59.12-28.23-51.74-59.05-31.6 42.23 20.2 84.88 41.35 78.73 5.5-1.61 3.62-6.83 10.39-19.68" fill="url(#1770301554729-8481169_q)"></path><path d="M139.91 119.59c-51.08 71.14 19.34 114.29.95 163.39 35.29-66.85-24.33-99.68-.95-163.39" fill="url(#1770301554729-8481169_r)"></path><path d="m221.5 222.21 4.44-21.58-16.91-14.13 21.89-2.44 8.21-20.44 9.09 20.06 21.96 1.49-16.25 14.84 5.36 21.36-19.14-10.87z" class="an" fill="#e635de"></path><path d="m475.47 204.62 2.73-13.29-10.4-8.68 13.46-1.51 5.05-12.59 5.6 12.35 13.54.93-10.01 9.14 3.31 13.15-11.79-6.69z" class="ak" fill="#3cc3ec"></path><path d="M282.09 56.94 292 44.76l-6.01-14.51 14.64 5.68 11.95-10.21-.88 15.69 13.4 8.19-15.19 4.02-3.64 15.3-8.52-13.21z" class="al" fill="#a6e639"></path><path d="m313.85 337.2 9.93-12.17-6.02-14.51 14.66 5.67 11.93-10.21-.88 15.69 13.41 8.2-15.2 4.02-3.65 15.29-8.5-13.21z" class="am" fill="#e81c27"></path><path d="m280.9 287.62 12.87 23.39-18.82 18.79-9-24.37z" class="al" fill="#a6e639"></path><path d="m179.9 234.34 12.87 23.38-18.8 18.82-9.02-24.38z" class="ak" fill="#3cc3ec"></path><path d="m421.5 229.54-15.59 16.95-20.53-10.22 17.45-14.06z" class="am" fill="#e81c27"></path><path d="m116.15 40.43 19.65 19.94-13.62 24.35-16.04-22.04z" class="an" fill="#e635de"></path><path d="m423.1 395.59-20.42 10.62-15.83-16.6 21.2-7.27z" class="al" fill="#a6e639"></path></g></svg>
