<svg xmlns="http://www.w3.org/2000/svg" data-name="Layer 1" style="" viewBox="0 0 512 512.01"><g><defs><linearGradient id="1770301554730-2536930_c" x1="475.97" x2="407.13" y1="365.55" y2="436.27" gradientTransform="matrix(1 0 0 -1 -28.02 500.39)" gradientUnits="userSpaceOnUse"><stop offset="0" stop-color="#6e787a"></stop><stop offset=".61" stop-color="#d6dbde"></stop><stop offset=".69" stop-color="#d2d8da"></stop><stop offset=".77" stop-color="#c7cdd0"></stop><stop offset=".84" stop-color="#b4bbbe"></stop><stop offset=".91" stop-color="#9aa2a4"></stop><stop offset=".98" stop-color="#788284"></stop><stop offset="1" stop-color="#6e787a"></stop></linearGradient><linearGradient id="1770301554730-2536930_d" x1="286.34" x2="231.93" y1="735.36" y2="791.25" gradientTransform="scale(1 -1) rotate(-45 -678.737 135.06)" gradientUnits="userSpaceOnUse"><stop offset="0" stop-color="#6e787a"></stop><stop offset=".61" stop-color="#d6dbde"></stop><stop offset=".69" stop-color="#d2d8da"></stop><stop offset=".77" stop-color="#c7cdd0"></stop><stop offset=".84" stop-color="#b4bbbe"></stop><stop offset=".91" stop-color="#9aa2a4"></stop><stop offset=".98" stop-color="#788284"></stop><stop offset="1" stop-color="#6e787a"></stop></linearGradient><linearGradient id="1770301554730-2536930_e" x1="286.34" x2="231.94" y1="723.42" y2="779.3" gradientTransform="scale(1 -1) rotate(-45 -678.737 135.06)" gradientUnits="userSpaceOnUse"><stop offset="0" stop-color="#6e787a"></stop><stop offset=".61" stop-color="#d6dbde"></stop><stop offset=".69" stop-color="#d2d8da"></stop><stop offset=".77" stop-color="#c7cdd0"></stop><stop offset=".84" stop-color="#b4bbbe"></stop><stop offset=".91" stop-color="#9aa2a4"></stop><stop offset=".98" stop-color="#788284"></stop><stop offset="1" stop-color="#6e787a"></stop></linearGradient><linearGradient id="1770301554730-2536930_f" x1="286.34" x2="231.93" y1="711.46" y2="767.36" gradientTransform="scale(1 -1) rotate(-45 -678.737 135.06)" gradientUnits="userSpaceOnUse"><stop offset="0" stop-color="#6e787a"></stop><stop offset=".61" stop-color="#d6dbde"></stop><stop offset=".69" stop-color="#d2d8da"></stop><stop offset=".77" stop-color="#c7cdd0"></stop><stop offset=".84" stop-color="#b4bbbe"></stop><stop offset=".91" stop-color="#9aa2a4"></stop><stop offset=".98" stop-color="#788284"></stop><stop offset="1" stop-color="#6e787a"></stop></linearGradient><linearGradient id="1770301554730-2536930_g" x1="61.15" x2="108.1" y1="71.87" y2="19.52" gradientTransform="matrix(1 0 0 -1 -28.02 500.39)" gradientUnits="userSpaceOnUse"><stop offset="0" stop-color="#fed0ac"></stop><stop offset=".25" stop-color="#fccda8"></stop><stop offset=".5" stop-color="#f5c39b"></stop><stop offset=".77" stop-color="#ebb286"></stop><stop offset="1" stop-color="#de9e6d"></stop></linearGradient><linearGradient id="1770301554730-2536930_h" x1="35.61" x2="63.04" y1="22.56" y2="-4.24" gradientTransform="matrix(1 0 0 -1 -28.02 500.39)" gradientUnits="userSpaceOnUse"><stop offset="0" stop-color="#4e5e67"></stop><stop offset=".37" stop-color="#3f4450"></stop><stop offset=".74" stop-color="#343241"></stop><stop offset="1" stop-color="#302c3b"></stop></linearGradient><radialGradient id="1770301554730-2536930_b" cx="524.14" cy="432.77" r="63.24" fx="524.14" fy="432.77" gradientTransform="matrix(.91631 -.08226 .08185 -.921 -61.68 466.72)" gradientUnits="userSpaceOnUse"><stop offset="0" stop-color="#ff709b"></stop><stop offset=".26" stop-color="#f96d97"></stop><stop offset=".61" stop-color="#e8638b"></stop><stop offset="1" stop-color="#cc5478"></stop></radialGradient></defs><path d="M20.49 220.21h443.6v99.04H20.49z" transform="rotate(-45 242.295 269.728)" fill="#f9c802"></path><path d="m497.95 22.95-8.91-8.89c-16.89-16.89-40.68-20.43-60.87-.26L397.9 44.1l70.02 70.03 30.29-30.3c20.16-20.16 16.61-43.98-.26-60.88" fill="url(#1770301554730-2536930_b)"></path><path d="m467.92 114.13-70.04-70.04-39.72 39.72 70.05 70.05z" fill="url(#1770301554730-2536930_c)"></path><path d="m467.92 114.13-70.04-70.04c-3.01-3-11.44 5.45-8.44 8.45l70.03 70.03c3 3.01 11.45-5.43 8.45-8.43Z" fill="url(#1770301554730-2536930_d)"></path><path d="M459.47 122.56c-12-12-56.81-56.82-70.03-70.03-3-3-11.44 5.44-8.44 8.43 11.9 11.9 53.48 53.49 70.03 70.04 3 3.01 11.44-5.44 8.44-8.45Z" fill="url(#1770301554730-2536930_e)"></path><path d="M451.03 131.01c-12.01-12-56.82-56.82-70.03-70.03-3-3.01-11.46 5.44-8.46 8.43 11.9 11.9 53.49 53.48 70.05 70.04 3.01 3 11.45-5.44 8.44-8.45Z" fill="url(#1770301554730-2536930_f)"></path><path d="M-3.38 233.62h435.21v28.02H-3.38z" transform="rotate(-44.99 214.211 247.622)" fill="#ffe463"></path><path d="M46.84 283.79H482v28.04H46.84z" transform="rotate(-44.98 264.387 297.784)" fill="#ea8800"></path><path d="M50.45 391.55 9.42 481.64l20.86 21.02 90.19-41.07c1.96-22.01-16.79-10.85-15.6-24.03 1.06-11.81-18.57-31.46-30.39-30.4-15.07 1.36-1.9-17.6-24.04-15.6Z" fill="url(#1770301554730-2536930_g)"></path><path d="M2.22 497.38c-5.67 12.51-.08 18.09 12.41 12.42l43.74-19.92-36.19-36.22-19.96 43.73Z" fill="url(#1770301554730-2536930_h)"></path></g></svg>
