<svg xmlns="http://www.w3.org/2000/svg" id="a" data-name="Layer 1" viewBox="0 0 512 240.02"><defs><linearGradient id="b" x1="244.68" x2="293.1" y1="43.06" y2="43.06" gradientTransform="matrix(1 0 0 -1 0 212.02)" gradientUnits="userSpaceOnUse"><stop offset="0" stop-color="#5b666e"/><stop offset=".58" stop-color="#424451"/><stop offset="1" stop-color="#343040"/></linearGradient><linearGradient id="c" x1="475.29" x2="475.29" y1="143.58" y2="212.02" gradientTransform="matrix(1 0 0 -1 0 212.02)" gradientUnits="userSpaceOnUse"><stop offset="0" stop-color="#a80000"/><stop offset=".43" stop-color="#d40007"/><stop offset=".8" stop-color="#f3000c"/><stop offset="1" stop-color="#ff000e"/></linearGradient><linearGradient id="e" x1="241.96" x2="241.96" y1="-13.36" y2="116.11" gradientTransform="matrix(1 0 0 -1 0 212.02)" gradientUnits="userSpaceOnUse"><stop offset=".42" stop-color="#a80000"/><stop offset=".48" stop-color="#b90003"/><stop offset=".62" stop-color="#d80008"/><stop offset=".75" stop-color="#ed000b"/><stop offset=".88" stop-color="#fb000d"/><stop offset="1" stop-color="#ff000e"/></linearGradient><linearGradient id="f" x1="34.23" x2="34.23" y1="-18.37" y2="11.87" gradientTransform="matrix(1 0 0 -1 0 212.02)" gradientUnits="userSpaceOnUse"><stop offset="0" stop-color="#a80000"/><stop offset=".43" stop-color="#d40007"/><stop offset=".8" stop-color="#f3000c"/><stop offset="1" stop-color="#ff000e"/></linearGradient><linearGradient id="g" x1="187.93" x2="187.93" y1="107.78" y2="138.25" gradientTransform="matrix(1 0 0 -1 0 212.02)" gradientUnits="userSpaceOnUse"><stop offset="0" stop-color="#a80000"/><stop offset=".43" stop-color="#d40007"/><stop offset=".8" stop-color="#f3000c"/><stop offset="1" stop-color="#ff000e"/></linearGradient><linearGradient id="h" x1="437.93" x2="437.93" y1="-27.99" y2="91.99" gradientTransform="matrix(1 0 0 -1 0 212.02)" gradientUnits="userSpaceOnUse"><stop offset="0" stop-color="#23212b"/><stop offset=".31" stop-color="#32333c"/><stop offset=".94" stop-color="#576169"/><stop offset="1" stop-color="#5b666e"/></linearGradient><linearGradient id="i" x1="437.93" x2="437.93" y1="11.36" y2="52.63" gradientTransform="matrix(1 0 0 -1 0 212.02)" gradientUnits="userSpaceOnUse"><stop offset="0" stop-color="#23212b"/><stop offset=".31" stop-color="#32333c"/><stop offset=".94" stop-color="#576169"/><stop offset="1" stop-color="#5b666e"/></linearGradient><linearGradient id="j" x1="437.93" x2="437.93" y1="-12.08" y2="76.07" gradientTransform="matrix(1 0 0 -1 0 212.02)" gradientUnits="userSpaceOnUse"><stop offset="0" stop-color="#99a8ae"/><stop offset=".61" stop-color="#bdcbd3"/><stop offset="1" stop-color="#cfdde6"/></linearGradient><linearGradient id="k" x1="437.93" x2="437.93" y1="21.82" y2="42.18" gradientTransform="matrix(1 0 0 -1 0 212.02)" gradientUnits="userSpaceOnUse"><stop offset="0" stop-color="#a80000"/><stop offset=".43" stop-color="#d40007"/><stop offset=".8" stop-color="#f3000c"/><stop offset="1" stop-color="#ff000e"/></linearGradient><linearGradient id="l" x1="437.93" x2="437.93" y1="24.36" y2="39.63" gradientTransform="matrix(1 0 0 -1 0 212.02)" gradientUnits="userSpaceOnUse"><stop offset="0" stop-color="#ff000e"/><stop offset=".2" stop-color="#f3000c"/><stop offset=".57" stop-color="#d40007"/><stop offset="1" stop-color="#a80000"/></linearGradient><linearGradient id="m" x1="131.5" x2="131.5" y1="-27.99" y2="91.99" gradientTransform="matrix(1 0 0 -1 0 212.02)" gradientUnits="userSpaceOnUse"><stop offset="0" stop-color="#343040"/><stop offset=".33" stop-color="#363342"/><stop offset=".57" stop-color="#3d3c4a"/><stop offset=".78" stop-color="#484c58"/><stop offset=".97" stop-color="#58626a"/><stop offset="1" stop-color="#5b666e"/></linearGradient><linearGradient id="n" x1="131.5" x2="131.5" y1="11.36" y2="52.63" gradientTransform="matrix(1 0 0 -1 0 212.02)" gradientUnits="userSpaceOnUse"><stop offset="0" stop-color="#23212b"/><stop offset=".31" stop-color="#32333c"/><stop offset=".94" stop-color="#576169"/><stop offset="1" stop-color="#5b666e"/></linearGradient><linearGradient id="o" x1="131.5" x2="131.5" y1="-12.08" y2="76.07" gradientTransform="matrix(1 0 0 -1 0 212.02)" gradientUnits="userSpaceOnUse"><stop offset="0" stop-color="#99a8ae"/><stop offset=".61" stop-color="#bdcbd3"/><stop offset="1" stop-color="#cfdde6"/></linearGradient><linearGradient id="p" x1="131.5" x2="131.5" y1="21.82" y2="42.18" gradientTransform="matrix(1 0 0 -1 0 212.02)" gradientUnits="userSpaceOnUse"><stop offset="0" stop-color="#a80000"/><stop offset=".43" stop-color="#d40007"/><stop offset=".8" stop-color="#f3000c"/><stop offset="1" stop-color="#ff000e"/></linearGradient><linearGradient id="q" x1="131.5" x2="131.5" y1="24.36" y2="39.63" gradientTransform="matrix(1 0 0 -1 0 212.02)" gradientUnits="userSpaceOnUse"><stop offset="0" stop-color="#ff000e"/><stop offset=".2" stop-color="#f3000c"/><stop offset=".57" stop-color="#d40007"/><stop offset="1" stop-color="#a80000"/></linearGradient><radialGradient id="d" cx="313.05" cy="-527.95" r="152.62" fx="313.05" fy="-527.95" gradientTransform="matrix(.97 0 0 -.38 4.56 -119.15)" gradientUnits="userSpaceOnUse"><stop offset="0" stop-color="#a80000"/><stop offset=".05" stop-color="#ae0001"/><stop offset=".38" stop-color="#cf0008"/><stop offset=".66" stop-color="#e4000c"/><stop offset=".84" stop-color="#eb000e"/></radialGradient><style>.aj{fill:#cfd8dd}.al{fill:#1a1626}.am{fill:#99a8ae}.an{fill:#4e5e67}.ao{fill:#302c3b}</style></defs><path d="m183.09 227.78-4.64 4.24 235.72-.08V127.72H298.99L136.86 146.2l38.07 25.92c74.07 1.28 53.19 55.67 8.16 55.67Z" class="ao"/><path d="m244.68 122.91 15.28 95.75s44.95-44.63 30.16-82.23c-10.8-27.76-45.43-13.52-45.43-13.52Z" style="fill:url(#b)"/><path d="M249 122.91c2.48 27.36 14.48 95.75 14.48 95.75s-8.64-101.74-14.48-95.75m6.4 0c2.48 27.36 14.48 95.75 14.48 95.75s-8.64-101.74-14.48-95.75m6.4 0c2.48 27.36 14.48 95.75 14.48 95.75s-8.64-101.74-14.48-95.75m6.4 0c2.48 27.36 14.48 95.75 14.48 95.75s-8.64-101.74-14.48-95.75m6.4 0c2.48 27.36 14.48 95.75 14.48 95.75s-8.64-101.74-14.48-95.75" class="ao"/><path d="M426.41 90.52c12.16-3.44 18.72-17.44 18.72-17.44h60.95l-8.88 71.75c-1.76 14.4-13.6 20.72-21.44 11.44z" class="aj"/><path d="m448.49 59.96-3.36 13.12h60.95l2.88-19.59z" style="fill:#a10000"/><path d="m449.61 18.93-11.04 49.51 70.63-8.32c1.6-.16 2.8-2.08 2.8-4.4V5.89c0-3.52-2.16-6.32-4.56-5.84l-49.35 8.8c-4 .8-7.28 4.72-8.48 10.08" style="fill:url(#c)"/><path d="M289.07 101.88c11.68-10.24 7.52-26.24 14.8-27.68l11.44-2.32v-9.44l-12.8-2.32c-1.92-.32-3.36-2.72-3.36-5.68-.16-7.36-1.28-21.68-7.04-35.43-1.2-2.88.24-6.56 2.4-6.48 13.36.4 48.23 1.92 60.87 8.56 54.07 28.56 101.34 109.9 101.34 109.9l-167.65-29.12Z" style="fill:url(#d)"/><path d="M50.79 211.06c30.24-34.71 115.74-62.47 115.74-62.47 49.83-8.8 75.27-10.96 103.74-10.16 12.64.4 20.48 17.92 13.2 31.68l-10.48 19.84c-2.56 4.8-6.32 8.24-10.56 9.6l-30.88 12.4v13.44c149.5-1.52 146.86-47.67 206.93-52.15l14.4-45.03S370.25 91.9 329.7 96.29C119.34 118.76 81.59 132.67 31.04 211.06H50.8Z" style="fill:url(#e)"/><path d="M72.47 200.18h-5.6L1.52 225.62 0 232.02h72.47z" class="al"/><path d="M66.95 225.62v-25.44H18.16L1.52 225.62z" style="fill:url(#f)"/><path d="M184.05 118.76h-8.96l2.72-18.08h8.96z" class="ao"/><path d="M199.57 100.04v-22c0-9.28-23.28-1.68-23.28 6.16v15.68c0 3.28 23.28 7.84 23.28.16" style="fill:url(#g)"/><path d="M305.87 39.17c-2.48 0-2.48 11.04 0 11.04 8.32 0 35.35-5.52 35.35-5.52s-27.04-5.52-35.35-5.52" class="ao"/><path d="M437.93 240.02c-33.11 0-59.99-26.88-59.99-59.99s26.88-59.99 59.99-59.99 59.99 26.88 59.99 59.99-26.96 59.99-59.99 59.99" style="fill:url(#h)"/><path d="M437.93 134.51c-25.12 0-45.51 20.4-45.51 45.51s20.4 45.51 45.51 45.51 45.51-20.4 45.51-45.51-20.48-45.51-45.51-45.51" class="al"/><circle cx="437.93" cy="180.03" r="20.64" style="fill:url(#i)"/><path d="M396.5 181.63v-3.2c27.52-2.16 55.19-2.16 82.79 0v3.2a530 530 0 0 1-82.79 0" class="am"/><path d="M436.33 138.67h3.2c2.16 27.52 2.16 55.19 0 82.79h-3.2c-2.16-27.6-2.16-55.27 0-82.79" class="am"/><path d="m407.54 151.87 2.24-2.24c21.04 17.92 40.55 37.51 58.55 58.55l-2.24 2.24a519 519 0 0 1-58.55-58.55" class="am"/><path d="m466.01 149.63 2.24 2.24c-17.92 21.04-37.51 40.55-58.55 58.55l-2.24-2.24c18-21.04 37.59-40.63 58.55-58.55" class="am"/><path d="M437.93 224.1c-24.32 0-44.07-19.76-44.07-44.07s19.76-44.07 44.07-44.07S482 155.72 482 180.03c0 24.32-19.76 44.07-44.07 44.07m0-83.11c-21.52 0-39.03 17.52-39.03 39.03s17.52 39.03 39.03 39.03 39.03-17.52 39.03-39.03c-.08-21.52-17.52-39.03-39.03-39.03" style="fill:url(#j)"/><path d="M437.93 169.87c5.6 0 10.16 4.56 10.16 10.16s-4.56 10.16-10.16 10.16-10.16-4.56-10.16-10.16c-.08-5.6 4.48-10.16 10.16-10.16" style="fill:url(#k)"/><path d="M437.93 172.43c4.24 0 7.6 3.44 7.6 7.6s-3.44 7.6-7.6 7.6-7.6-3.44-7.6-7.6c-.08-4.24 3.36-7.6 7.6-7.6" style="fill:url(#l)"/><path d="M437.93 175.31c2.56 0 4.72 2.08 4.72 4.72s-2.08 4.72-4.72 4.72-4.72-2.08-4.72-4.72 2.08-4.72 4.72-4.72" class="an"/><path d="M440.01 176.43h-4.16l-2.08 3.6 2.08 3.6h4.16l2.08-3.6z" class="am"/><path d="M131.5 240.02c-33.11 0-59.99-26.88-59.99-59.99s26.88-59.99 59.99-59.99 59.99 26.88 59.99 59.99-26.96 59.99-59.99 59.99" style="fill:url(#m)"/><path d="M131.5 134.51c-25.12 0-45.51 20.4-45.51 45.51s20.4 45.51 45.51 45.51 45.51-20.4 45.51-45.51c0-25.12-20.48-45.51-45.51-45.51" class="al"/><circle cx="131.5" cy="180.03" r="20.64" style="fill:url(#n)"/><path d="M90.07 181.63v-3.2c27.52-2.16 55.19-2.16 82.79 0v3.2a530 530 0 0 1-82.79 0" class="am"/><path d="M129.9 138.67h3.2c2.16 27.52 2.16 55.19 0 82.79h-3.2c-2.16-27.6-2.16-55.27 0-82.79" class="am"/><path d="m101.1 151.87 2.24-2.24c21.04 17.92 40.55 37.51 58.55 58.55l-2.24 2.24a519 519 0 0 1-58.55-58.55" class="am"/><path d="m159.58 149.63 2.24 2.24c-17.92 21.04-37.51 40.55-58.55 58.55l-2.24-2.24c18-21.04 37.59-40.63 58.55-58.55" class="am"/><path d="M131.5 224.1c-24.32 0-44.07-19.76-44.07-44.07s19.76-44.07 44.07-44.07 44.07 19.76 44.07 44.07-19.76 44.07-44.07 44.07m0-83.11c-21.52 0-39.03 17.52-39.03 39.03s17.52 39.03 39.03 39.03 39.03-17.52 39.03-39.03-17.52-39.03-39.03-39.03" style="fill:url(#o)"/><path d="M131.5 169.87c5.6 0 10.16 4.56 10.16 10.16s-4.56 10.16-10.16 10.16-10.16-4.56-10.16-10.16c-.08-5.6 4.48-10.16 10.16-10.16" style="fill:url(#p)"/><path d="M131.5 172.43c4.24 0 7.6 3.44 7.6 7.6s-3.44 7.6-7.6 7.6-7.6-3.44-7.6-7.6c-.08-4.24 3.36-7.6 7.6-7.6" style="fill:url(#q)"/><path d="M131.5 175.31c2.56 0 4.72 2.08 4.72 4.72s-2.08 4.72-4.72 4.72-4.72-2.08-4.72-4.72 2.08-4.72 4.72-4.72" class="an"/><path d="M133.58 176.43h-4.16l-2.08 3.6 2.08 3.6h4.16l2.08-3.6z" class="am"/><path id="r" d="M39.75 205.38c4.16 0 7.52 3.36 7.52 7.52s-3.36 7.52-7.52 7.52-7.52-3.36-7.52-7.52 3.36-7.52 7.52-7.52m0-2.48c-5.52 0-10 4.48-10 10s4.48 10 10 10 10-4.48 10-10-4.48-10-10-10" class="aj" data-name="Shape"/><path id="s" d="M41.75 213.94q-.48 0-.48-.48v-1.04q0-.48.48-.48h3.28q.48 0 .48.48v.48c0 3.2-2.56 5.76-5.76 5.76-1.52 0-2.96-.64-4.08-1.68q-.36-.36 0-.72l1.04-1.04q.36-.36.72 0c.64.64 1.44.96 2.32.96 1.44 0 2.64-.96 3.12-2.24z" class="aj" data-name="Combined-Shape"/></svg>