<svg xmlns="http://www.w3.org/2000/svg" data-name="Layer 1" style="" viewBox="0 0 512 606.75"><g><defs><linearGradient id="1770301554737-8273212_b" x1="307.66" x2="316.75" y1="226.25" y2="225.31" gradientTransform="scale(1 -1) rotate(3.88 8765.59 476.288)" gradientUnits="userSpaceOnUse"><stop offset="0" stop-color="#d98416"></stop><stop offset=".4" stop-color="#e2981a"></stop><stop offset="1" stop-color="#f2be22"></stop></linearGradient><linearGradient id="1770301554737-8273212_c" x1="442.09" x2="421.06" y1="518.86" y2="568.54" gradientTransform="scale(1 -1) rotate(3.88 8765.59 476.288)" gradientUnits="userSpaceOnUse"><stop offset="0" stop-color="#302c3b"></stop><stop offset=".7" stop-color="#444a53"></stop><stop offset="1" stop-color="#4e585e"></stop></linearGradient><linearGradient id="1770301554737-8273212_d" x1="395.49" x2="416.93" y1="511.45" y2="553.08" gradientTransform="scale(1 -1) rotate(3.88 8765.59 476.288)" gradientUnits="userSpaceOnUse"><stop offset="0" stop-color="#d98416"></stop><stop offset=".28" stop-color="#e09821"></stop><stop offset=".84" stop-color="#f1cd3c"></stop><stop offset="1" stop-color="#f7dd45"></stop></linearGradient><linearGradient id="1770301554737-8273212_e" x1="381.74" x2="402.94" y1="507.07" y2="548.25" gradientTransform="scale(1 -1) rotate(3.88 8765.59 476.288)" gradientUnits="userSpaceOnUse"><stop offset="0" stop-color="#d98416"></stop><stop offset=".28" stop-color="#e09821"></stop><stop offset=".84" stop-color="#f1cd3c"></stop><stop offset="1" stop-color="#f7dd45"></stop></linearGradient><linearGradient id="1770301554737-8273212_f" x1="383.04" x2="368.99" y1="504.56" y2="548.26" gradientTransform="scale(1 -1) rotate(3.88 8765.59 476.288)" gradientUnits="userSpaceOnUse"><stop offset="0" stop-color="#302c3b"></stop><stop offset=".7" stop-color="#444a53"></stop><stop offset="1" stop-color="#4e585e"></stop></linearGradient><linearGradient id="1770301554737-8273212_g" x1="379.09" x2="124.71" y1="90.2" y2="373.3" gradientTransform="scale(1 -1) rotate(3.88 8765.59 476.288)" gradientUnits="userSpaceOnUse"><stop offset="0" stop-color="#d98416"></stop><stop offset=".28" stop-color="#e09821"></stop><stop offset=".84" stop-color="#f1cd3c"></stop><stop offset="1" stop-color="#f7dd45"></stop></linearGradient><linearGradient id="1770301554737-8273212_h" x1="-34.54" x2="198.02" y1="303.87" y2="303.87" gradientTransform="scale(1 -1) rotate(3.88 8765.59 476.288)" gradientUnits="userSpaceOnUse"><stop offset="0" stop-color="#d98416"></stop><stop offset=".18" stop-color="#db8a19"></stop><stop offset=".42" stop-color="#e19b22"></stop><stop offset=".7" stop-color="#eab631"></stop><stop offset="1" stop-color="#f7dc45"></stop><stop offset="1" stop-color="#f7dd45"></stop></linearGradient><linearGradient id="1770301554737-8273212_j" x1="101.2" x2="76.25" y1="266.89" y2="310.86" gradientTransform="scale(1 -1) rotate(3.88 8765.59 476.288)" gradientUnits="userSpaceOnUse"><stop offset="0" stop-color="#914600"></stop><stop offset=".24" stop-color="#9d5004"></stop><stop offset=".66" stop-color="#bc6b0d"></stop><stop offset="1" stop-color="#d98416"></stop></linearGradient><linearGradient id="1770301554737-8273212_k" x1="159.51" x2="149.13" y1="209.64" y2="210.84" gradientTransform="scale(1 -1) rotate(7.53 4613.002 478.07)" gradientUnits="userSpaceOnUse"><stop offset="0" stop-color="#d98416"></stop><stop offset=".4" stop-color="#e2981a"></stop><stop offset="1" stop-color="#f2be22"></stop></linearGradient><linearGradient id="1770301554737-8273212_l" x1="108.39" x2="188.28" y1="210.77" y2="210.77" gradientTransform="scale(1 -1) rotate(3.88 8765.59 476.288)" gradientUnits="userSpaceOnUse"><stop offset="0" stop-color="#f7dd45"></stop><stop offset=".16" stop-color="#f1cd3c"></stop><stop offset=".72" stop-color="#e09821"></stop><stop offset="1" stop-color="#d98416"></stop></linearGradient><linearGradient id="1770301554737-8273212_m" x1="181.33" x2="175.19" y1="216.55" y2="228.05" gradientTransform="scale(1 -1) rotate(3.88 8765.59 476.288)" gradientUnits="userSpaceOnUse"><stop offset="0" stop-color="#d98416"></stop><stop offset=".4" stop-color="#e2981a"></stop><stop offset="1" stop-color="#f2be22"></stop></linearGradient><linearGradient id="1770301554737-8273212_n" x1="125.21" x2="199.98" y1="117.91" y2="117.91" gradientTransform="scale(1 -1) rotate(3.88 8765.59 476.288)" gradientUnits="userSpaceOnUse"><stop offset="0" stop-color="#f7dd45"></stop><stop offset=".16" stop-color="#f1cd3c"></stop><stop offset=".72" stop-color="#e09821"></stop><stop offset="1" stop-color="#d98416"></stop></linearGradient><linearGradient id="1770301554737-8273212_o" x1="193.75" x2="187.46" y1="122.71" y2="133.72" gradientTransform="scale(1 -1) rotate(3.88 8765.59 476.288)" gradientUnits="userSpaceOnUse"><stop offset="0" stop-color="#d98416"></stop><stop offset=".4" stop-color="#e2981a"></stop><stop offset="1" stop-color="#f2be22"></stop></linearGradient><linearGradient id="1770301554737-8273212_p" x1="231.78" x2="297.87" y1="184.88" y2="184.88" gradientTransform="scale(1 -1) rotate(3.88 8765.59 476.288)" gradientUnits="userSpaceOnUse"><stop offset="0" stop-color="#f7dd45"></stop><stop offset=".16" stop-color="#f1cd3c"></stop><stop offset=".72" stop-color="#e09821"></stop><stop offset="1" stop-color="#d98416"></stop></linearGradient><linearGradient id="1770301554737-8273212_q" x1="299.83" x2="296.65" y1="183.17" y2="197.28" gradientTransform="scale(1 -1) rotate(3.88 8765.59 476.288)" gradientUnits="userSpaceOnUse"><stop offset="0" stop-color="#d98416"></stop><stop offset=".4" stop-color="#e2981a"></stop><stop offset="1" stop-color="#f2be22"></stop></linearGradient><linearGradient id="1770301554737-8273212_r" x1="246.03" x2="306.31" y1="268.43" y2="268.43" gradientTransform="scale(1 -1) rotate(3.88 8765.59 476.288)" gradientUnits="userSpaceOnUse"><stop offset="0" stop-color="#f7dd45"></stop><stop offset=".16" stop-color="#f1cd3c"></stop><stop offset=".72" stop-color="#e09821"></stop><stop offset="1" stop-color="#d98416"></stop></linearGradient><linearGradient id="1770301554737-8273212_s" x1="310.2" x2="307.49" y1="269.84" y2="282.71" gradientTransform="scale(1 -1) rotate(3.88 8765.59 476.288)" gradientUnits="userSpaceOnUse"><stop offset="0" stop-color="#d98416"></stop><stop offset=".4" stop-color="#e2981a"></stop><stop offset="1" stop-color="#f2be22"></stop></linearGradient><linearGradient id="1770301554737-8273212_t" x1="259.46" x2="312.54" y1="343.86" y2="343.86" gradientTransform="scale(1 -1) rotate(3.88 8765.59 476.288)" gradientUnits="userSpaceOnUse"><stop offset="0" stop-color="#f7dd45"></stop><stop offset=".16" stop-color="#f1cd3c"></stop><stop offset=".72" stop-color="#e09821"></stop><stop offset="1" stop-color="#d98416"></stop></linearGradient><linearGradient id="1770301554737-8273212_u" x1="319.99" x2="317.41" y1="344.06" y2="354.84" gradientTransform="scale(1 -1) rotate(3.88 8765.59 476.288)" gradientUnits="userSpaceOnUse"><stop offset="0" stop-color="#d98416"></stop><stop offset=".4" stop-color="#e2981a"></stop><stop offset="1" stop-color="#f2be22"></stop></linearGradient><linearGradient id="1770301554737-8273212_v" x1="287.12" x2="328" y1="411.37" y2="411.37" gradientTransform="scale(1 -1) rotate(3.88 8765.59 476.288)" gradientUnits="userSpaceOnUse"><stop offset="0" stop-color="#f7dd45"></stop><stop offset=".16" stop-color="#f1cd3c"></stop><stop offset=".72" stop-color="#e09821"></stop><stop offset="1" stop-color="#d98416"></stop></linearGradient><linearGradient id="1770301554737-8273212_w" x1="331.8" x2="330.18" y1="407.91" y2="418.52" gradientTransform="scale(1 -1) rotate(3.88 8765.59 476.288)" gradientUnits="userSpaceOnUse"><stop offset="0" stop-color="#d98416"></stop><stop offset=".4" stop-color="#e2981a"></stop><stop offset="1" stop-color="#f2be22"></stop></linearGradient><linearGradient id="1770301554737-8273212_x" x1="290.71" x2="289.11" y1="150.59" y2="158.09" gradientTransform="scale(1 -1) rotate(3.88 8765.59 476.288)" gradientUnits="userSpaceOnUse"><stop offset="0" stop-color="#d98416"></stop><stop offset=".4" stop-color="#e2981a"></stop><stop offset="1" stop-color="#f2be22"></stop></linearGradient><linearGradient id="1770301554737-8273212_y" x1="303.13" x2="301.53" y1="226.01" y2="235.17" gradientTransform="scale(1 -1) rotate(3.88 8765.59 476.288)" gradientUnits="userSpaceOnUse"><stop offset="0" stop-color="#d98416"></stop><stop offset=".4" stop-color="#e2981a"></stop><stop offset="1" stop-color="#f2be22"></stop></linearGradient><linearGradient id="1770301554737-8273212_z" x1="333.2" x2="331.81" y1="378.8" y2="385.73" gradientTransform="scale(1 -1) rotate(3.88 8765.59 476.288)" gradientUnits="userSpaceOnUse"><stop offset="0" stop-color="#d98416"></stop><stop offset=".4" stop-color="#e2981a"></stop><stop offset="1" stop-color="#f2be22"></stop></linearGradient><linearGradient id="1770301554737-8273212_aa" x1="293.42" x2="336.88" y1="489.73" y2="489.73" gradientTransform="scale(1 -1) rotate(3.88 8765.59 476.288)" gradientUnits="userSpaceOnUse"><stop offset="0" stop-color="#f2be22"></stop><stop offset=".6" stop-color="#e2981a"></stop><stop offset="1" stop-color="#d98416"></stop></linearGradient><radialGradient id="1770301554737-8273212_i" cx="-63.53" cy="271.95" r="102.72" fx="-63.53" fy="271.95" gradientTransform="matrix(.89174 -.59135 -.64158 -.87043 346.37 461.27)" gradientUnits="userSpaceOnUse"><stop offset=".48" stop-color="#f7dd45"></stop><stop offset=".56" stop-color="#f1cd3c"></stop><stop offset=".86" stop-color="#e09821"></stop><stop offset="1" stop-color="#d98416"></stop></radialGradient></defs><path d="M361.17 139.44s-22.09 331.95-24.18 345.13c-9.58 58.6-60.78 60.02-60.78 60.02l-15.08 12.04s77.37 11.28 87.52-73.58c1.23-10.43 25.7-344.75 25.7-344.75.28-8.72-12.99-8.25-13.18 1.14" fill="url(#1770301554737-8273212_b)"></path><path d="m424.89 1.38-39.63 13.28 18.77 48.64 106.38-41.82z" fill="url(#1770301554737-8273212_c)"></path><path d="M385.26 14.66c-10.05 3.98 5.78 53.19 18.87 48.64 13.56-4.84-2.18-55.18-18.87-48.64" class="be" fill="#302c3b"></path><path d="m428.78 53.53 7.49-2.94c-.66-17.83-3.79-33.38-16.02-47.69l-8.82 2.94c12.42 13.37 16.21 29.01 17.35 47.69" fill="url(#1770301554737-8273212_d)"></path><path d="m416.45 58.37 7.59-2.94c-1.14-18.77-5.21-34.61-17.83-47.79l-9.01 3.03c12.9 11.95 17.54 27.97 19.25 47.69Z" fill="url(#1770301554737-8273212_e)"></path><path d="M424.89 1.38c-5.78 1.99 72.44 24.65 85.52 20.1 13.65-4.84-64.76-27.21-85.52-20.1" class="be" fill="#302c3b"></path><path d="M383.64 18.55c-1.33.57-12.14 4.46-12.14 4.46l16.69 44.09s10.15-3.79 12.14-4.46c13.56-4.65.57-51.01-16.69-44.09" fill="url(#1770301554737-8273212_f)"></path><path d="M371.6 23c-12.9 5.21-.19 49.97 16.69 44.09 13.46-4.65.57-51.01-16.69-44.09" class="be" fill="#302c3b"></path><path d="M371.22 25.94c-127.15 39.35-99.75 188.12-122.88 407.71-2.37 22.85-34.23 32.52-34.23-.09 0-36.22-13.75-144.41 9.77-191.72L10.16 351.83c50.82 22.19 61.54 84.67 65.52 147.72 9.48 149.53 249.84 149.91 258.66-45.04 5.5-121.27-15.36-372.16 51.58-389.51 11.76-3.03-.28-43.52-14.7-39.06" fill="url(#1770301554737-8273212_g)"></path><path d="M214.11 211.88C287.69 256.25 3.62 430.71.01 331.06c-1.8-51.3 160.62-151.33 214.1-119.18" fill="url(#1770301554737-8273212_h)"></path><path d="M200.74 206.66C310.26 233.78-4.73 429.58.11 327.65c2.37-51.2 140.52-135.87 200.63-120.99" fill="url(#1770301554737-8273212_i)"></path><path d="M203.49 255.3c-5.5 30.82-119.56 95.01-155.31 95.39-14.79.19-24.94-31.86 56.42-80.12 69.31-41.15 101.55-30.15 98.89-15.27" fill="url(#1770301554737-8273212_j)"></path><path d="m218.66 289.34 6.16 170.58c.38 4.55 11.57 4.08 11.38-1.99l-4.27-170.39c-.95-10.15-14.51-9.01-13.27 1.8" fill="url(#1770301554737-8273212_k)"></path><path d="m219.04 343.2-27.78 64.38c-96.52 6.35-39.82-119.09 27.78-64.38" class="bb" fill="#f7dd45"></path><path d="M224.07 369.37c-14.32 59.73-93.39 48.83-74.62-6.26 13.56-39.73 85.71-40.2 74.62 6.26" fill="url(#1770301554737-8273212_l)"></path><path d="m206.24 372.97 28.07-20.29c2.47-1.9-4.65-12.8-8.06-10.43l-28.63 19.25c-5.4 4.08 2.84 16.12 8.63 11.47Z" fill="url(#1770301554737-8273212_m)"></path><path d="m237.44 436.02-26.17 61.63c-90.17 6.45-36.79-113.78 26.17-61.63" class="bb" fill="#f7dd45"></path><path d="M242.08 461.06c-13.56 57.17-87.42 47.03-69.69-5.78 12.8-38.02 80.22-38.78 69.69 5.78" fill="url(#1770301554737-8273212_n)"></path><path d="m225.49 464.94 26.17-18.96c2.28-1.8-4.27-11.95-7.49-9.77l-26.74 17.92c-5.12 3.98 2.65 15.17 8.06 10.81" fill="url(#1770301554737-8273212_o)"></path><path d="m329.03 357.99-16.5 66.28c-80.88 17.26-46.56-112.17 16.5-66.28" class="bb" fill="#f7dd45"></path><path d="M336.14 383.02c-5.59 60.21-73.58 58.6-63.62 2.37 7.02-40.39 67.89-49.21 63.62-2.37" fill="url(#1770301554737-8273212_p)"></path><path d="m324.57 394.59 32.9-10.81c3.51-1.33 0-15.74-4.84-14.22l-33.19 9.29c-7.78 2.94-3.22 19.15 5.12 15.74Z" fill="url(#1770301554737-8273212_q)"></path><path d="m332.44 276.64-15.08 60.4c-73.67 15.83-42.38-102.21 15.08-60.4" class="bb" fill="#f7dd45"></path><path d="M338.89 299.49c-5.12 54.9-67.04 53.38-58.03 2.18 6.54-36.88 62.01-44.85 58.03-2.18" fill="url(#1770301554737-8273212_r)"></path><path d="m326.85 307.83 37.45-12.14c3.51-1.33.38-14.03-4.36-12.52l-37.74 10.52c-7.87 3.03-3.7 17.54 4.65 14.13Z" fill="url(#1770301554737-8273212_s)"></path><path d="m334.43 204.2-13.27 53.19c-64.85 13.84-37.36-89.98 13.27-53.19" class="bb" fill="#f7dd45"></path><path d="M340.12 224.3c-4.46 48.26-59.07 47.03-51.11 1.9 5.69-32.43 54.52-39.44 51.11-1.9" fill="url(#1770301554737-8273212_t)"></path><path d="m330.74 233.4 38.31-12.42c3.03-1.14.38-12.04-3.79-10.71l-38.5 11.09c-6.73 2.56-3.13 14.98 3.98 12.04" fill="url(#1770301554737-8273212_u)"></path><path d="m346.76 141.24-10.24 40.96c-49.87 10.71-28.73-69.31 10.24-40.96" class="bb" fill="#f7dd45"></path><path d="M351.12 156.69c-3.41 37.17-45.42 36.22-39.35 1.52 4.46-25.03 42.1-30.44 39.35-1.52" fill="url(#1770301554737-8273212_v)"></path><path d="m339.93 167.88 35.27-11.38c2.75-1.04.28-11.09-3.51-9.86l-35.56 10.24c-6.07 2.18-2.84 13.65 3.79 11Z" fill="url(#1770301554737-8273212_w)"></path><path d="m314.14 427.4 39.73-13.65c3.51-1.33 1.61-8.15-3.22-6.64l-40.01 12.14c-7.87 2.94-4.84 11.47 3.51 8.15Z" fill="url(#1770301554737-8273212_x)"></path><path d="m321.54 351.07 39.73-13.65c3.51-1.33 1.61-8.15-3.22-6.64l-40.01 12.14c-7.77 2.94-4.84 11.57 3.51 8.15Z" fill="url(#1770301554737-8273212_y)"></path><path d="m349.13 195.57 18.96-6.35c3.51-1.33 1.61-8.15-3.22-6.64l-19.25 4.84z" fill="url(#1770301554737-8273212_z)"></path><path d="m353.02 179.35-7.11 28.63c-34.99 7.49-20.1-48.45 7.11-28.63" class="bd" fill="#d98416"></path><path d="M356.05 190.16c-2.37 25.98-31.76 25.32-27.5 1.04 3.13-17.45 29.39-21.24 27.5-1.04" class="bc" fill="#fff4ad"></path><path d="m322.39 335.42-7.11 28.63c-34.89 7.49-20.1-48.45 7.11-28.63" class="bd" fill="#d98416"></path><path d="M325.52 346.23c-2.37 25.98-31.76 25.32-27.5 1.04 3.03-17.45 29.3-21.24 27.5-1.04" class="bc" fill="#fff4ad"></path><path d="m312.34 412.04-7.11 28.63c-34.99 7.49-20.1-48.45 7.11-28.63" class="bd" fill="#d98416"></path><path d="M315.38 422.84c-2.37 25.98-31.76 25.32-27.5 1.04 3.03-17.45 29.39-21.24 27.5-1.04" class="bc" fill="#fff4ad"></path><path d="M351.69 43.58c-12.04 6.16-28.63-1.42-10.81-9.48 16.5-7.4 22.95 3.32 10.81 9.48" class="be" fill="#302c3b"></path><path d="M352.92 115.83c-34.7-.85-41.53-50.25-.95-80.5 1.99-1.52-9.2.19-11.28 1.61-43.71 29.49-33.57 94.82 9.01 90.27.95-.19 5.4-11.38 3.22-11.38" fill="url(#1770301554737-8273212_aa)"></path></g></svg>
