<svg xmlns="http://www.w3.org/2000/svg" data-name="Layer 1" style="" viewBox="0 0 512 640"><g><defs><linearGradient id="1770301555197-7394938_b" x1="-70.35" x2="-272.46" y1="680.61" y2="330.55" gradientTransform="scale(-1 1) rotate(30 -106.953 232.839)" gradientUnits="userSpaceOnUse"><stop offset="0" stop-color="#717b80"></stop><stop offset=".23" stop-color="#889499"></stop><stop offset=".52" stop-color="#a0adb2"></stop><stop offset=".79" stop-color="#aebdc1"></stop><stop offset="1" stop-color="#b3c2c6"></stop></linearGradient><linearGradient id="1770301555197-7394938_c" x1="-239.67" x2="-118.11" y1="282.08" y2="21.39" gradientTransform="scale(-1 1) rotate(30 -106.953 232.839)" gradientUnits="userSpaceOnUse"><stop offset="0" stop-color="#cf0000"></stop><stop offset=".12" stop-color="#d60002"></stop><stop offset=".68" stop-color="#f4000b"></stop><stop offset="1" stop-color="#ff000e"></stop></linearGradient><linearGradient id="1770301555197-7394938_d" x1="-269.99" x2="-472.1" y1="618.59" y2="268.53" gradientTransform="rotate(30 -68.531 1530.323)" gradientUnits="userSpaceOnUse"><stop offset="0" stop-color="#b3c2c6"></stop><stop offset="1" stop-color="#d2dbe0"></stop></linearGradient><linearGradient id="1770301555197-7394938_e" x1="-297.88" x2="-458.67" y1="127.34" y2="52.36" gradientTransform="rotate(30 -68.531 1530.323)" gradientUnits="userSpaceOnUse"><stop offset="0" stop-color="#cf0000"></stop><stop offset=".12" stop-color="#d60002"></stop><stop offset=".68" stop-color="#f4000b"></stop><stop offset="1" stop-color="#ff000e"></stop></linearGradient></defs><path d="m183.06 256.11 23.04 39.14c71.71 92.57 202.25 343.66 202.25 343.66s11.63-15.4 4.58-35.73c-27.66-79.66-133.64-335.84-133.64-335.84-34.98 6.73-58.43-32.63-58.43-32.63l-37.79 21.41Z" fill="url(#1770301555197-7394938_b)"></path><path d="M206.1 295.24 408.35 638.9s4.53-5.42 5.55-12.34L229.3 302.73z" fill="#b3c2c6"></path><path d="M70.95 190.17c32.93 8.68 63.26-4.34 111.47 69.23 3.24 4.94 47.05-18.12 44.38-23.55-56.21-114.34-73.16-171.5-103.91-218.51C103.22-12.8 45.81-.41 21.33 29.71c-54.73 67.34 8.33 149.61 49.62 160.47ZM56.29 35.9c46.5-33.43 108.77 101.59 73.63 123.89C63.8 201.77-9.16 82.95 56.29 35.9" fill="url(#1770301555197-7394938_c)"></path><path d="m328.94 257.19-23.04 39.15C222.69 409.11 103.66 640 103.66 640s-11.64-15.41-4.58-35.73c27.66-79.65 133.62-335.83 133.62-335.83 34.99 6.72 58.44-32.65 58.44-32.65l37.79 21.41Z" fill="url(#1770301555197-7394938_d)"></path><path d="M305.9 296.34 103.66 640s-4.53-5.42-5.56-12.34l184.61-323.82z" fill="#e6ebef"></path><path d="M490.67 30.81C466.21.72 408.79-11.7 389.11 18.43c-30.74 47.04-47.71 104.2-103.9 218.54-2.67 5.42 41.15 28.48 44.38 23.54 48.21-73.58 78.54-60.54 111.47-69.23 41.28-10.87 104.34-93.13 49.61-160.47m-108.6 130.08c-35.11-22.28 27.15-157.31 73.62-123.88 65.48 47.05-7.48 165.88-73.62 123.88" fill="url(#1770301555197-7394938_e)"></path><path d="M243.81 320.15c5.18 5.17 13.3 5.65 19.03 1.43l-20.48-20.49c-4.21 5.75-3.74 13.85 1.45 19.06m20.78-20.8c-5.18-5.19-13.3-5.66-19.06-1.45l20.52 20.5c4.19-5.75 3.71-13.85-1.46-19.05" fill="#99a8ae"></path><path d="m243.84 302.57 17.51 17.53c.62-.44 2.75-2.59 3.18-3.19l-17.5-17.51c-.6.44-2.74 2.59-3.19 3.18Z" fill="#6e8189"></path></g></svg>
