<svg xmlns="http://www.w3.org/2000/svg" data-name="Layer 1" style="" viewBox="0 0 512 504.72"><g><defs><linearGradient id="1770301554741-6162183_b" x1="1531.37" x2="1626.97" y1="535.53" y2="535.53" gradientTransform="rotate(-45.06 33.828 -863.948) scale(.62 -1)" gradientUnits="userSpaceOnUse"><stop offset="0" stop-color="#cdd6db"></stop><stop offset=".18" stop-color="#b6bfc3"></stop><stop offset=".48" stop-color="#939ca0"></stop><stop offset=".73" stop-color="#7e878a"></stop><stop offset=".89" stop-color="#767f82"></stop></linearGradient><linearGradient id="1770301554741-6162183_c" x1="976.76" x2="1072.5" y1="483.64" y2="483.64" gradientTransform="scale(1 -1) rotate(-45.06 54.93 913.544)" gradientUnits="userSpaceOnUse"><stop offset="0" stop-color="#cdd6db"></stop><stop offset="0" stop-color="#ccd5da"></stop><stop offset=".68" stop-color="#8e979b"></stop><stop offset="1" stop-color="#767f82"></stop></linearGradient><linearGradient id="1770301554741-6162183_d" x1="870.62" x2="1168.49" y1="398.77" y2="398.77" gradientTransform="scale(1 -1) rotate(-45.06 54.93 913.544)" gradientUnits="userSpaceOnUse"><stop offset="0" stop-color="#cdd6db"></stop><stop offset="0" stop-color="#ccd5da"></stop><stop offset=".68" stop-color="#8e979b"></stop><stop offset="1" stop-color="#767f82"></stop></linearGradient><linearGradient id="1770301554741-6162183_e" x1="870.68" x2="1168.49" y1="365.75" y2="365.75" gradientTransform="scale(1 -1) rotate(-45.06 54.93 913.544)" gradientUnits="userSpaceOnUse"><stop offset="0" stop-color="#9ea5a8"></stop><stop offset=".14" stop-color="#899093"></stop><stop offset=".34" stop-color="#72797c"></stop><stop offset=".53" stop-color="#646b6e"></stop><stop offset=".69" stop-color="#5f6669"></stop></linearGradient><linearGradient id="1770301554741-6162183_f" x1="1097.46" x2="941.62" y1="264.68" y2="420.52" gradientTransform="scale(1 -1) rotate(-45.06 54.93 913.544)" gradientUnits="userSpaceOnUse"><stop offset="0" stop-color="#cdd6db"></stop><stop offset=".08" stop-color="#c1cacf"></stop><stop offset=".34" stop-color="#a0a9ad"></stop><stop offset=".58" stop-color="#899295"></stop><stop offset=".81" stop-color="#7b8487"></stop><stop offset="1" stop-color="#767f82"></stop></linearGradient><linearGradient id="1770301554741-6162183_g" x1="876.03" x2="876.03" y1="648.51" y2="920.23" gradientTransform="scale(1 -1) rotate(-45 -796.39 889.926)" gradientUnits="userSpaceOnUse"><stop offset=".05" stop-color="#adf1ff" stop-opacity="0"></stop><stop offset="1" stop-color="#00c4ff"></stop></linearGradient><linearGradient id="1770301554741-6162183_h" x1="810.92" x2="810.92" y1="648.57" y2="959.37" gradientTransform="scale(1 -1) rotate(-45 -796.39 889.926)" gradientUnits="userSpaceOnUse"><stop offset=".05" stop-color="#adf1ff" stop-opacity="0"></stop><stop offset="1" stop-color="#00c4ff"></stop></linearGradient><linearGradient id="1770301554741-6162183_i" x1="841.31" x2="841.31" y1="648.62" y2="954.16" gradientTransform="scale(1 -1) rotate(-45 -796.39 889.926)" gradientUnits="userSpaceOnUse"><stop offset=".05" stop-color="#adf1ff" stop-opacity="0"></stop><stop offset="1" stop-color="#00c4ff"></stop></linearGradient><linearGradient id="1770301554741-6162183_j" x1="779.14" x2="779.14" y1="648.62" y2="961.35" gradientTransform="scale(1 -1) rotate(-45 -796.39 889.926)" gradientUnits="userSpaceOnUse"><stop offset=".05" stop-color="#adf1ff" stop-opacity="0"></stop><stop offset="1" stop-color="#00c4ff"></stop></linearGradient><linearGradient id="1770301554741-6162183_k" x1="904.76" x2="904.76" y1="648.57" y2="937.06" gradientTransform="scale(1 -1) rotate(-45 -796.39 889.926)" gradientUnits="userSpaceOnUse"><stop offset=".05" stop-color="#adf1ff" stop-opacity="0"></stop><stop offset="1" stop-color="#00c4ff"></stop></linearGradient><linearGradient id="1770301554741-6162183_l" x1="630.19" x2="630.19" y1="648.57" y2="920.29" gradientTransform="scale(1 -1) rotate(-45 -796.39 889.926)" gradientUnits="userSpaceOnUse"><stop offset=".05" stop-color="#adf1ff" stop-opacity="0"></stop><stop offset="1" stop-color="#00c4ff"></stop></linearGradient><linearGradient id="1770301554741-6162183_m" x1="686.51" x2="686.51" y1="648.51" y2="956.38" gradientTransform="scale(1 -1) rotate(-45 -796.39 889.926)" gradientUnits="userSpaceOnUse"><stop offset=".05" stop-color="#adf1ff" stop-opacity="0"></stop><stop offset="1" stop-color="#00c4ff"></stop></linearGradient><linearGradient id="1770301554741-6162183_n" x1="658.29" x2="658.29" y1="648.62" y2="948.9" gradientTransform="scale(1 -1) rotate(-45 -796.39 889.926)" gradientUnits="userSpaceOnUse"><stop offset=".05" stop-color="#adf1ff" stop-opacity="0"></stop><stop offset="1" stop-color="#00c4ff"></stop></linearGradient><linearGradient id="1770301554741-6162183_o" x1="717.75" x2="717.75" y1="648.57" y2="960.38" gradientTransform="scale(1 -1) rotate(-45 -796.39 889.926)" gradientUnits="userSpaceOnUse"><stop offset=".05" stop-color="#adf1ff" stop-opacity="0"></stop><stop offset="1" stop-color="#00c4ff"></stop></linearGradient><linearGradient id="1770301554741-6162183_p" x1="747.11" x2="747.11" y1="648.57" y2="961.06" gradientTransform="scale(1 -1) rotate(-45 -796.39 889.926)" gradientUnits="userSpaceOnUse"><stop offset=".05" stop-color="#adf1ff" stop-opacity="0"></stop><stop offset="1" stop-color="#00c4ff"></stop></linearGradient><linearGradient id="1770301554741-6162183_q" x1="601" x2="601" y1="648.62" y2="937.12" gradientTransform="scale(1 -1) rotate(-45 -796.39 889.926)" gradientUnits="userSpaceOnUse"><stop offset=".05" stop-color="#adf1ff" stop-opacity="0"></stop><stop offset="1" stop-color="#00c4ff"></stop></linearGradient><linearGradient id="1770301554741-6162183_r" x1="800.81" x2="800.81" y1="648.57" y2="973.54" gradientTransform="scale(1 -1) rotate(-45 -796.39 889.926)" gradientUnits="userSpaceOnUse"><stop offset=".05" stop-color="#adf1ff" stop-opacity="0"></stop><stop offset="1" stop-color="#00c4ff"></stop></linearGradient><linearGradient id="1770301554741-6162183_s" x1="770.32" x2="770.32" y1="648.57" y2="975.13" gradientTransform="scale(1 -1) rotate(-45 -796.39 889.926)" gradientUnits="userSpaceOnUse"><stop offset=".05" stop-color="#adf1ff" stop-opacity="0"></stop><stop offset="1" stop-color="#00c4ff"></stop></linearGradient><linearGradient id="1770301554741-6162183_t" x1="890.28" x2="890.28" y1="648.57" y2="955.96" gradientTransform="scale(1 -1) rotate(-45 -796.39 889.926)" gradientUnits="userSpaceOnUse"><stop offset=".05" stop-color="#adf1ff" stop-opacity="0"></stop><stop offset="1" stop-color="#00c4ff"></stop></linearGradient><linearGradient id="1770301554741-6162183_u" x1="832.56" x2="832.56" y1="648.62" y2="970.19" gradientTransform="scale(1 -1) rotate(-45 -796.39 889.926)" gradientUnits="userSpaceOnUse"><stop offset=".05" stop-color="#adf1ff" stop-opacity="0"></stop><stop offset="1" stop-color="#00c4ff"></stop></linearGradient><linearGradient id="1770301554741-6162183_v" x1="860.22" x2="860.22" y1="648.57" y2="964.15" gradientTransform="scale(1 -1) rotate(-45 -796.39 889.926)" gradientUnits="userSpaceOnUse"><stop offset=".05" stop-color="#adf1ff" stop-opacity="0"></stop><stop offset="1" stop-color="#00c4ff"></stop></linearGradient><linearGradient id="1770301554741-6162183_w" x1="707.15" x2="707.15" y1="648.57" y2="973.6" gradientTransform="scale(1 -1) rotate(-45 -796.39 889.926)" gradientUnits="userSpaceOnUse"><stop offset=".05" stop-color="#adf1ff" stop-opacity="0"></stop><stop offset="1" stop-color="#00c4ff"></stop></linearGradient><linearGradient id="1770301554741-6162183_x" x1="735.85" x2="735.85" y1="648.62" y2="975.24" gradientTransform="scale(1 -1) rotate(-45 -796.39 889.926)" gradientUnits="userSpaceOnUse"><stop offset=".05" stop-color="#adf1ff" stop-opacity="0"></stop><stop offset="1" stop-color="#00c4ff"></stop></linearGradient><linearGradient id="1770301554741-6162183_y" x1="615.96" x2="615.96" y1="648.57" y2="956.07" gradientTransform="scale(1 -1) rotate(-45 -796.39 889.926)" gradientUnits="userSpaceOnUse"><stop offset=".05" stop-color="#adf1ff" stop-opacity="0"></stop><stop offset="1" stop-color="#00c4ff"></stop></linearGradient><linearGradient id="1770301554741-6162183_z" x1="676.34" x2="676.34" y1="648.62" y2="970.19" gradientTransform="scale(1 -1) rotate(-45 -796.39 889.926)" gradientUnits="userSpaceOnUse"><stop offset=".05" stop-color="#adf1ff" stop-opacity="0"></stop><stop offset="1" stop-color="#00c4ff"></stop></linearGradient><linearGradient id="1770301554741-6162183_aa" x1="645.6" x2="645.6" y1="648.57" y2="964.15" gradientTransform="scale(1 -1) rotate(-45 -796.39 889.926)" gradientUnits="userSpaceOnUse"><stop offset=".05" stop-color="#adf1ff" stop-opacity="0"></stop><stop offset="1" stop-color="#00c4ff"></stop></linearGradient></defs><path d="m467.17 86.83-42.08-42.08L467.81 2.1c11.92-11.92 54.01 30.16 42.08 42.08l-42.72 42.64Z" fill="url(#1770301554741-6162183_b)"></path><path d="m449.49 130.12-67.61-67.69 30.88-30.72c11.92-11.92 79.53 55.77 67.61 67.69z" fill="url(#1770301554741-6162183_c)"></path><path d="M437.41 277.89c-17.84 17.84-228.34-192.9-210.5-210.74 36.64-36.56 140.1-45.52 198.26 12.64 58.17 58.17 48.89 161.54 12.24 198.1" fill="url(#1770301554741-6162183_d)"></path><path d="M437.41 277.89c7.52-7.52 13.84-17.84 18.72-29.92-1.44-26.88-31.44-75.29-77.69-121.53-46.25-46.25-94.65-76.41-121.53-77.85-12.16 4.8-22.48 11.12-30 18.64-17.84 17.76 192.66 228.5 210.5 210.66" style="isolation:isolate" fill="url(#1770301554741-6162183_e)" opacity=".2"></path><path d="M437.41 277.89c-17.84 17.84-79.53-14.88-137.61-73.13-58.09-58.17-90.73-119.85-72.89-137.69 17.92-17.84 79.53 14.88 137.61 73.13 58.17 58.25 90.81 119.85 72.89 137.69" fill="url(#1770301554741-6162183_f)"></path><path d="M307.31 198.13c-1.68-1.68-3.36-3.36-4.96-5.04l3.6-3.52c1.6 1.68 3.28 3.28 4.96 5.04 1.44 1.44 2.88 2.88 4.32 4.24l-3.52 3.6c-1.52-1.44-2.96-2.88-4.4-4.32m-14.08-14.73c-3.04-3.28-6-6.64-8.8-9.92l3.76-3.28c2.8 3.28 5.68 6.48 8.72 9.76zm28.08 28.17 3.36-3.68c3.28 3.04 6.56 5.92 9.76 8.72l-3.28 3.76c-3.2-2.8-6.56-5.76-9.84-8.8m-45.44-48.25c-2.88-3.52-5.6-7.04-8.16-10.48l4-3.04c2.56 3.36 5.2 6.8 8.08 10.32zm65.53 65.61 3.12-3.92c3.52 2.8 6.96 5.52 10.32 8.08l-3.04 4c-3.36-2.64-6.88-5.36-10.4-8.16m-81.37-86.81c-2.64-3.84-5.04-7.6-7.2-11.2l4.32-2.56c2.16 3.52 4.48 7.2 7.12 10.96zm102.65 102.73 2.8-4.16c3.76 2.56 7.44 4.96 10.96 7.12l-2.64 4.24c-3.6-2.16-7.36-4.64-11.12-7.2M246.27 119.24c-2.24-4.32-4.08-8.48-5.44-12.32l4.72-1.76c1.36 3.6 3.12 7.6 5.2 11.76zm139.21 139.37 2.24-4.48c4.16 2.16 8.16 3.92 11.76 5.2l-1.76 4.72c-3.76-1.36-7.84-3.2-12.24-5.44M237.39 93.55c-.64-6.24.64-11.12 3.76-14.32l3.6 3.52c-2.08 2.08-2.88 5.6-2.4 10.32zm173.77 173.86.48-4.96c4.72.48 8.16-.4 10.24-2.48l3.92 3.2-.32.4c-3.2 3.04-8 4.4-14.32 3.84M254.99 80.11l.4-4.96c3.92.32 8.4 1.44 13.44 3.28l-1.76 4.72c-4.56-1.68-8.64-2.72-12.08-3.04m169.46 169.22c-.4-3.52-1.44-7.6-3.12-12.16l4.72-1.76c1.84 4.96 2.96 9.44 3.36 13.36zM278.91 88.35l2.24-4.48c3.68 1.92 7.68 4.08 11.68 6.56l-2.64 4.24c-3.84-2.4-7.68-4.48-11.28-6.32m137.14 137.06c-1.84-3.6-4-7.44-6.4-11.36l4.32-2.56c2.4 4 4.64 7.92 6.56 11.68zM301.23 101.8l2.8-4.16c3.52 2.4 7.12 4.96 10.8 7.76l-3.04 4c-3.6-2.72-7.12-5.28-10.56-7.6M402.6 203.17c-2.4-3.44-4.96-7.04-7.6-10.64l4-2.96c2.72 3.68 5.36 7.28 7.76 10.8zm-80.4-85.69 3.12-3.92c3.36 2.72 6.72 5.6 10.16 8.48l-3.28 3.76c-3.36-2.88-6.72-5.68-10-8.32m64.72 64.72q-4.08-5.04-8.4-10.08l3.76-3.28c2.96 3.44 5.76 6.8 8.48 10.16zm-44.96-47.6 3.36-3.68q4.8 4.44 9.6 9.12l-3.52 3.6c-3.04-3.12-6.24-6.16-9.44-9.04m27.84 27.76c-2.88-3.12-5.92-6.32-9.04-9.52l3.6-3.52q4.68 4.8 9.12 9.6zm-51.21 23.84 3.52-3.52c3.28 3.28 6.48 6.4 9.68 9.36l-3.44 3.68c-3.2-3.12-6.48-6.24-9.76-9.52m-9.52-9.84c-3.2-3.44-6.24-6.8-9.12-10.16l3.76-3.28c2.88 3.28 5.84 6.64 9.04 10zm29.53 28.49 3.28-3.76c3.52 3.04 6.96 5.92 10.4 8.64l-3.12 3.92c-3.44-2.8-6.96-5.68-10.56-8.8m-47.37-49.21c-2.96-3.76-5.76-7.44-8.24-10.96l4.08-2.88c2.48 3.44 5.12 7.04 8.08 10.72zm68.89 66.25 2.88-4.08c3.92 2.8 7.68 5.2 11.2 7.28l-2.56 4.32c-3.6-2.16-7.52-4.72-11.52-7.52m-84.73-88.81c-2.72-4.64-4.8-8.88-6.24-12.56l4.72-1.76c1.28 3.44 3.28 7.36 5.84 11.76zM384.2 235.57l1.76-4.72c5.12 1.92 8.8 2.16 10.24.8l3.84 3.2-.32.32c-2.96 3.04-8.16 3.2-15.52.4M269.39 105l.08-.08c2.96-2.96 8.16-3.12 15.36-.4l-1.76 4.72c-5.04-1.84-8.72-2.16-10.08-.72zm125.93 116.17c-1.28-3.44-3.28-7.36-5.84-11.76l4.32-2.56c2.72 4.64 4.88 8.88 6.24 12.48zM294.99 114.92l2.56-4.32c3.6 2.08 7.52 4.64 11.6 7.52l-2.88 4.08c-4.08-2.72-7.84-5.2-11.28-7.28m87.13 83.29c-2.48-3.44-5.12-7.04-8.08-10.72l3.92-3.12c2.96 3.76 5.76 7.44 8.24 10.96zm-65.21-67.85 3.12-3.92c3.44 2.72 6.96 5.6 10.56 8.72l-3.28 3.76c-3.52-3.04-7.04-5.92-10.4-8.56m48.57 46.72c-2.88-3.28-5.84-6.64-9.04-10l3.68-3.44c3.2 3.44 6.24 6.8 9.12 10.16zm-28.16-29.12 3.44-3.68c3.28 3.04 6.56 6.24 9.84 9.52l-3.52 3.52c-3.28-3.2-6.56-6.32-9.76-9.36m24.48 49.29c-3.36 3.36-18.32-6-33.28-21.04s-24.4-29.92-20.96-33.28c3.36-3.36 18.32 6 33.28 21.04 14.96 14.96 24.32 29.92 20.96 33.28" fill="#5d696e"></path><path d="M232.43 480.24S387.89 275.9 397.49 262.78c1.84-2.48-7.68-7.04-10-5.12-12 9.76-174.34 203.38-174.34 203.38z" fill="url(#1770301554741-6162183_g)"></path><path d="M181.62 429.43s193.7-221.86 202.02-233.15c1.84-2.56-5.12-11.36-7.6-9.52-11.36 8.32-210.5 226.58-210.5 226.58l16.08 16.08Z" fill="url(#1770301554741-6162183_h)"></path><path d="M205.46 453.19s183.38-221.7 191.7-232.99c1.84-2.56-2.72-12.88-5.2-11.12C380.6 217.4 189.38 437.1 189.38 437.1l16.08 16.08Z" fill="url(#1770301554741-6162183_i)"></path><path d="M156.1 403.83s202.02-216.98 210.26-228.18c1.84-2.56-5.76-11.04-8.16-9.28-11.44 8.32-218.18 221.38-218.18 221.38z" fill="url(#1770301554741-6162183_j)"></path><path d="M256.91 504.72s156.98-227.38 166.58-240.51c1.84-2.48-8.96-.96-11.28.96-12 9.68-174.58 220.26-174.58 220.26l19.28 19.28Z" fill="url(#1770301554741-6162183_k)"></path><path d="M25.12 272.85s203.7-156.09 216.83-165.69c2.48-1.84 7.04 7.68 5.12 10-9.68 12-202.74 174.98-202.74 174.98l-19.2-19.28Z" fill="url(#1770301554741-6162183_l)"></path><path d="M72.97 320.78s213.54-197.3 224.82-205.54c2.56-1.84 10 2.96 8.24 5.44-8.32 11.36-216.98 216.26-216.98 216.26z" fill="url(#1770301554741-6162183_m)"></path><path d="M51.53 299.26s210.26-186.02 221.54-194.34c2.56-1.84 11.76.08 10 2.48-8.32 11.44-215.46 207.94-215.46 207.94z" fill="url(#1770301554741-6162183_n)"></path><path d="M95.53 343.34s213.06-204.58 224.34-212.82c2.56-1.84 9.36 4.08 7.6 6.56-8.32 11.36-215.78 222.34-215.78 222.34z" fill="url(#1770301554741-6162183_o)"></path><path d="M116.33 364.06s211.06-208.1 222.26-216.34c2.56-1.84 10.08 5.84 8.32 8.32-8.32 11.36-214.5 224.18-214.5 224.18z" fill="url(#1770301554741-6162183_p)"></path><path d="M0 247.73S227.38 90.75 240.51 81.15c2.48-1.84.96 8.96-.96 11.28-9.68 12-220.26 174.58-220.26 174.58z" fill="url(#1770301554741-6162183_q)"></path><path d="M172.82 420.63S379.64 191.89 387.96 180.6c1.84-2.48-4.8-11.12-7.28-9.28-11.36 8.16-223.86 233.23-223.86 233.23z" fill="url(#1770301554741-6162183_r)"></path><path d="M148.98 396.79s213.54-225.06 221.86-236.27c1.84-2.56-5.52-10.64-8-8.8-11.36 8.24-229.86 229.06-229.86 229.06l16 16Z" fill="url(#1770301554741-6162183_s)"></path><path d="M244.91 492.72s173.3-233.87 181.62-245.15c1.84-2.56-1.04-11.84-3.52-10.08-11.44 8.32-194.18 239.07-194.18 239.07z" fill="url(#1770301554741-6162183_t)"></path><path d="M199.06 446.79s196.5-234.11 204.82-245.39c1.84-2.56-4.48-10.96-6.96-9.2-11.44 8.32-213.94 238.51-213.94 238.51z" fill="url(#1770301554741-6162183_u)"></path><path d="M220.18 468s188.98-232.75 197.3-244.11c1.84-2.48-4.4-11.36-6.8-9.6-11.44 8.32-206.58 237.63-206.58 237.63z" fill="url(#1770301554741-6162183_v)"></path><path d="M87.05 334.78S312.83 125 324.12 116.68c2.48-1.84 11.12 4.8 9.28 7.28-8.24 11.36-230.43 226.82-230.43 226.82z" fill="url(#1770301554741-6162183_w)"></path><path d="M108.33 356.06S332.99 142.12 344.28 133.8c2.56-1.84 10.64 5.52 8.8 8-8.24 11.36-228.74 230.27-228.74 230.27l-16-16Z" fill="url(#1770301554741-6162183_x)"></path><path d="M12.64 260.37S245.87 86.43 257.23 78.11c2.56-1.84 11.84 1.04 10.08 3.52-8.4 11.52-238.59 194.9-238.59 194.9z" fill="url(#1770301554741-6162183_y)"></path><path d="M62.25 309.98s229.78-200.82 241.07-209.14c2.56-1.84 10.96 4.48 9.2 6.96-8.32 11.44-234.19 218.26-234.19 218.26z" fill="url(#1770301554741-6162183_z)"></path><path d="M36.72 284.54S269.47 95.56 280.83 87.24c2.48-1.84 11.36 4.4 9.6 6.8C282.11 105.48 52.8 300.62 52.8 300.62z" fill="url(#1770301554741-6162183_aa)"></path></g></svg>
