<svg xmlns="http://www.w3.org/2000/svg" data-name="Layer 1" style="" viewBox="0 0 512 477.87"><g><defs><linearGradient id="1770301555208-5423537_b" x1="538.66" x2="538.66" y1="-114.13" y2="-96.12" gradientTransform="scale(1 -1) rotate(75 529.185 -149.257)" gradientUnits="userSpaceOnUse"><stop offset="0" stop-color="#302c3b"></stop><stop offset=".39" stop-color="#312e3d"></stop><stop offset=".62" stop-color="#363744"></stop><stop offset=".8" stop-color="#3f4551"></stop><stop offset=".96" stop-color="#4b5862"></stop><stop offset="1" stop-color="#4e5e67"></stop></linearGradient><linearGradient id="1770301555208-5423537_c" x1="526.11" x2="526.11" y1="-115.29" y2="-95.04" gradientTransform="scale(1 -1) rotate(75 529.185 -149.257)" gradientUnits="userSpaceOnUse"><stop offset="0" stop-color="#302c3b"></stop><stop offset=".51" stop-color="#3e4350"></stop><stop offset="1" stop-color="#4e5e67"></stop></linearGradient><linearGradient id="1770301555208-5423537_d" x1="389.58" x2="389.58" y1="364.91" y2="397.18" gradientTransform="scale(1 -1) rotate(-15 -1634.09 -170.388)" gradientUnits="userSpaceOnUse"><stop offset="0" stop-color="#302c3b"></stop><stop offset=".51" stop-color="#3e4350"></stop><stop offset="1" stop-color="#4e5e67"></stop></linearGradient><linearGradient id="1770301555208-5423537_e" x1="435.22" x2="435.22" y1="564.47" y2="531.03" gradientTransform="scale(1 -1) rotate(-15 -2231.633 185.412)" gradientUnits="userSpaceOnUse"><stop offset="0" stop-color="#4e5e67"></stop><stop offset=".49" stop-color="#3e4350"></stop><stop offset="1" stop-color="#302c3b"></stop></linearGradient><linearGradient id="1770301555208-5423537_f" x1="433.32" x2="418.66" y1="350.56" y2="298.37" gradientTransform="matrix(1 0 0 -1 1.29 476.78)" gradientUnits="userSpaceOnUse"><stop offset="0" stop-color="#4e5e67"></stop><stop offset=".38" stop-color="#444e59"></stop><stop offset="1" stop-color="#302c3b"></stop></linearGradient><linearGradient id="1770301555208-5423537_g" x1="347.3" x2="335.27" y1="747.53" y2="792.44" gradientTransform="matrix(.95014 .31184 .22764 -.6936 -114.24 512.35)" gradientUnits="userSpaceOnUse"><stop offset="0" stop-color="#cfd8dd"></stop><stop offset="1" stop-color="#e6ebed"></stop></linearGradient><linearGradient id="1770301555208-5423537_h" x1="311.44" x2="302.98" y1="752.85" y2="784.45" gradientTransform="matrix(.95014 .31184 .22764 -.6936 -114.24 512.35)" gradientUnits="userSpaceOnUse"><stop offset="0" stop-color="#302c3b"></stop><stop offset=".26" stop-color="#343241"></stop><stop offset=".63" stop-color="#3f4450"></stop><stop offset="1" stop-color="#4e5e67"></stop></linearGradient><linearGradient id="1770301555208-5423537_i" x1="364.56" x2="357.01" y1="754.65" y2="782.85" gradientTransform="matrix(.95014 .31184 .22764 -.6936 -114.24 512.35)" gradientUnits="userSpaceOnUse"><stop offset="0" stop-color="#302c3b"></stop><stop offset=".26" stop-color="#343241"></stop><stop offset=".63" stop-color="#3f4450"></stop><stop offset="1" stop-color="#4e5e67"></stop></linearGradient><linearGradient id="1770301555208-5423537_j" x1="388.59" x2="380.38" y1="810.81" y2="841.46" gradientTransform="rotate(-18.17 -1613.146 -92.84) scale(1 -.66)" gradientUnits="userSpaceOnUse"><stop offset="0" stop-color="#302c3b"></stop><stop offset=".26" stop-color="#343241"></stop><stop offset=".63" stop-color="#3f4450"></stop><stop offset="1" stop-color="#4e5e67"></stop></linearGradient><linearGradient id="1770301555208-5423537_k" x1="273.05" x2="257.72" y1="402.04" y2="330.94" gradientTransform="matrix(1 0 0 -1 1.28 476.78)" gradientUnits="userSpaceOnUse"><stop offset=".24" stop-color="#e6ebed"></stop><stop offset="1" stop-color="#c6cfd4"></stop></linearGradient><linearGradient id="1770301555208-5423537_l" x1="105.75" x2="105.75" y1="590.27" y2="500.78" gradientTransform="scale(1 -1) rotate(-15 -2231.633 185.412)" gradientUnits="userSpaceOnUse"><stop offset="0" stop-color="#4e5e67"></stop><stop offset=".49" stop-color="#3e4350"></stop><stop offset="1" stop-color="#302c3b"></stop></linearGradient><linearGradient id="1770301555208-5423537_m" x1="42.99" x2="42.99" y1="592.4" y2="498.42" gradientTransform="scale(1 -1) rotate(-15 -2231.633 185.412)" gradientUnits="userSpaceOnUse"><stop offset="0" stop-color="#4e5e67"></stop><stop offset=".49" stop-color="#3e4350"></stop><stop offset="1" stop-color="#302c3b"></stop></linearGradient></defs><path d="m481.97 120.6-3.03 11.55c-1.14 4.33 16.06 9.42 17.31 4.72l3.05-11.55c1.14-4.33-16.07-9.44-17.32-4.72Z" fill="url(#1770301555208-5423537_b)"></path><path d="m477.88 131.72-3.4 12.99c-1.27 4.87 18.07 10.61 19.46 5.32l3.41-12.99c1.3-4.88-18.07-10.6-19.47-5.32" fill="url(#1770301555208-5423537_c)"></path><path d="m476.5 184.34-15.15-4.11 9.78-37.08 17.94 4.89z" class="ab" fill="#464352"></path><path d="m476.5 184.35 9.77-37.07 25.73 7.01z" class="ac" fill="#302c3b"></path><path d="m473.81 147.68-12.77-3.48c-12.61-3.43-21.22 27.6-8.21 31.15l12.76 3.47c12.63 3.43 21.25-27.59 8.22-31.14" fill="url(#1770301555208-5423537_d)"></path><path d="m458.35 145.53-21.2-5.79-7.19 27.3 21.2 5.78c11.06 3.01 18.61-24.18 7.19-27.29" class="aa" fill="#99a8ae"></path><path d="m448.69 140.83-21.21-5.78-8.21 31.14 21.2 5.78c11.05 3.01 19.64-28.03 8.23-31.14Z" fill="url(#1770301555208-5423537_e)"></path><path d="M441.25 188.84c-2.07-1.06-14.7-10.14-15.44-12.04-2.88-7.45 5.08-18.5 13.09-17.58.82.09 13.09 7.59 13.65 7.89 10.25 5.77-.12 27.45-11.31 21.73Z" class="ac" fill="#302c3b"></path><path d="M443.5 188.72c-11.55-3.74 2.43-25.86 10.63-18.53 5.67 5.07-1.74 21.39-10.63 18.53M47.78 477.86h17.79l132.59-249.52-25.98.01zm347.18.01L270.58 228.34l-26 .01 132.6 249.51z" class="aa" fill="#99a8ae"></path><path d="m408.48 210.09-107.7-25.31c-6.31-1.47-9.92 11.36-3.83 13.51l104.47 36.73c13.05 4.6 20.53-21.78 7.06-24.93" class="ac" fill="#302c3b"></path><path d="m351.79 217.58 49.63 17.44c2.92 1.03 5.51.36 7.68-1.11zm56.69-7.49-51.16-12.02 57.06 17.12c-1.06-2.43-2.92-4.39-5.91-5.09Zm5.16 18.36a18.1 18.1 0 0 0 1.75-6.21l-60.82-14.42z" class="z" fill="#1a1626"></path><path d="m296.17 194.12-78.06-22.82c-4.28-1.25-2.53-7.51 1.78-6.23l78.03 22.82c4.3 1.25 2.56 7.49-1.75 6.23" class="ab" fill="#464352"></path><path d="M229.58 477.86h-16.41l-4.1-276.95h24.6z" class="aa" fill="#99a8ae"></path><path d="m188.58 195.43-16.4 32.92 49.2 10.97 49.2-10.98-16.41-32.91-32.79-5.48z" class="ab" fill="#464352"></path><path d="m270.58 228.34-16.41-32.91-32.79-5.48-32.8 5.48 32.8 5.5v38.39z" class="ac" fill="#302c3b"></path><path d="M204.97 140.6v55.25c18.42 3.12 14.5 3.11 32.8 0V140.6z" class="z" fill="#1a1626"></path><path d="M183.04 136.06c-6.63-1.75-3.51-13.89 3.1-12.44l75.63 16.82c7.17 1.48 4.25 14.08-2.82 12.51l-75.66-16.82c-.07-.02-.16-.04-.25-.07" class="ac" fill="#302c3b"></path><path d="m439.17 128.15-17.22-5.37c-5.14 17.65-10.49 35.29-16.17 52.84l19.4 4.31c12.21-2.85 25.15-41.36 13.99-51.78" fill="url(#1770301555208-5423537_f)"></path><path d="m420.44 107.44-78.12-23.12 6.79-20.5 76.65 27.54c5.11 4.02 1.16 15.85-5.32 16.08" fill="url(#1770301555208-5423537_g)"></path><path d="m363.41 68.6-16.46-5.48c-5.92-1.95-12.7 18.55-6.79 20.5l15.93 4.93c8.01 2.49 15.33-17.46 7.32-19.95" fill="url(#1770301555208-5423537_h)"></path><path d="M340 82.31c5.85-2 8.78-14.23 6.03-18.21-5.37 1.83-8.68 14.4-6.03 18.21" class="z" fill="#1a1626"></path><path d="m389.44 98.26 20.44 6.05c5.73-.56 9.45-11.32 6.25-16.42l-19.57-7.03c3.08 5.29-.4 15.02-7.13 17.4Z" fill="url(#1770301555208-5423537_i)"></path><path d="m418.05 106.73 7.23 4.56c6.03-.49 11.83-13.35 6.37-20.64l-7.65.07c2.63 3.96-.84 14.92-5.94 16.02Z" fill="url(#1770301555208-5423537_j)"></path><path d="m409.15 120.53-13.44-4.45-.86-16.57c.96-2.64 14.38 1.84 13.43 4.48l.87 16.55Z" class="z" fill="#1a1626"></path><path d="M427.51 124.08 117.66 26.93l-21.73 82.48 314.9 67.93c17.43-3.63 24.38-46.45 16.68-53.27Z" fill="url(#1770301555208-5423537_k)"></path><path d="m140.79 33.59-35.35-10.91-22.02 83.6 34.5 8.11c20.34 5.19 43.27-75.62 22.88-80.8Z" fill="url(#1770301555208-5423537_l)"></path><path d="M109.45 22.22c-.54.1-23.71 85.96-23.29 86.37 20.75 18.93 52.15-92.07 23.29-86.37" class="z" fill="#1a1626"></path><path d="M110.51 22.53 33.85.3C10.62-5.88-13.85 84.85 9.36 91.03l76.81 17.57c19.94 5.03 44.31-81.03 24.35-86.07Z" fill="url(#1770301555208-5423537_m)"></path><path d="M7.04 85c15.49-9.46 30.57-64.44 21.74-80.65C10.88 15.3-2.97 66.73 7.04 85" class="z" fill="#1a1626"></path></g></svg>
