<svg xmlns="http://www.w3.org/2000/svg" data-name="Layer 1" style="" viewBox="0 0 512 511.94"><g><defs><linearGradient id="1770301555209-9130703_b" x1="119.4" x2="119.4" y1="38.06" y2="120.08" gradientTransform="matrix(1 0 0 -1 0 513.94)" gradientUnits="userSpaceOnUse"><stop offset="0" stop-color="#a9d2e8"></stop><stop offset=".33" stop-color="#c5e2f1"></stop><stop offset=".76" stop-color="#e4f4fb"></stop><stop offset="1" stop-color="#f0fbff"></stop></linearGradient><linearGradient id="1770301555209-9130703_c" x1="41.48" x2="41.48" y1="2.04" y2="50.76" gradientTransform="matrix(1 0 0 -1 0 513.94)" gradientUnits="userSpaceOnUse"><stop offset="0" stop-color="#a9d2e8"></stop><stop offset=".33" stop-color="#c5e2f1"></stop><stop offset=".76" stop-color="#e4f4fb"></stop><stop offset="1" stop-color="#f0fbff"></stop></linearGradient><radialGradient id="1770301555209-9130703_d" cx="234.65" cy="239.02" r="283.45" fx="234.65" fy="239.02" gradientTransform="matrix(1 0 0 -.78 0 349.86)" gradientUnits="userSpaceOnUse"><stop offset="0" stop-color="#f0fbff"></stop><stop offset=".45" stop-color="#eefafe"></stop><stop offset=".63" stop-color="#e7f6fc"></stop><stop offset=".76" stop-color="#dbeff8"></stop><stop offset=".87" stop-color="#c9e5f2"></stop><stop offset=".97" stop-color="#b3d8eb"></stop><stop offset="1" stop-color="#a9d2e8"></stop></radialGradient></defs><path d="M67.41 416.97c-16.55 51.96 87.71 84.56 104.26 32.68 15.1-47.35-89.16-80.03-104.26-32.68" fill="url(#1770301555209-9130703_b)"></path><path d="M26.8 467.14c-24.49 18.6 6.31 58.53 30.8 39.93 21.93-16.55-8.87-56.57-30.8-39.93" fill="url(#1770301555209-9130703_c)"></path><path d="M486.61 120.65c1.45-47.18-40.87-78.41-72.18-69.71-28.58-48.04-83.19-46.42-114.5-24.15C249.92-22.44 169.55-.09 149.32 63.65 72.96 19.54-6.39 111.01 25.95 170.48c-68.43 71.76 10.32 194.45 99.06 162.11 14.93 64.25 126.7 96.16 171.58 23.46 32.68 34.81 105.46 7.17 101.28-36.69 57.59 20.65 105.89-36.94 88.22-86.69 32.68-23.72 36.09-85.75.51-112.03Z" fill="url(#1770301555209-9130703_d)"></path><path d="M106.24 402.38c20.56 0 43.51 10.24 53.33 23.72 4.95 6.74 6.31 13.82 4.01 20.9-5.63 17.66-23.38 20.31-33.53 20.31-19.37 0-40.53-9.64-50.17-22.87-5.72-7.76-7.17-16.21-4.35-24.91 4.78-14.93 21.25-17.15 30.72-17.15m-.01-8.53c-17.83 0-33.62 6.83-38.82 23.12-10.67 33.45 28.84 58.87 62.71 58.87 18.69 0 35.75-7.76 41.64-26.28 9.81-30.97-31.57-55.72-65.53-55.72Zm-68.01 77.9c6.74 0 14.68 6.91 17.49 15.1 1.96 5.8.85 10.41-3.24 13.48-2.73 2.05-5.55 3.07-8.45 3.07-6.83 0-14.16-6.06-16.81-13.74-1.45-4.44-1.88-10.75 4.69-15.7 1.96-1.54 4.1-2.22 6.31-2.22m.01-8.52c-3.84 0-7.76 1.19-11.43 4.01-20.14 15.19-3.07 44.71 17.24 44.71 4.52 0 9.13-1.45 13.57-4.78 18.26-13.91-.09-43.94-19.37-43.94ZM235.93 8.53c21.5 0 42.06 8.62 58.02 24.32l5.12 5.03 5.8-4.18c12.03-8.53 27.64-13.4 42.83-13.4s41.3 4.52 59.38 34.98l3.33 5.63 6.31-1.71c2.73-.77 5.63-1.11 8.7-1.11 12.03 0 25.26 6.14 35.24 16.47 11.77 12.2 18 28.41 17.49 45.82l-.17 4.44 3.58 2.65c13.99 10.32 22.01 28.07 21.93 48.55-.09 20.73-8.7 39.76-22.35 49.66l-5.2 3.75 2.13 6.06c6.23 17.58 3.16 37.71-8.28 53.92-11.52 16.3-29.01 25.68-47.95 25.68-7 0-14.08-1.28-21.07-3.84l-12.63-4.52 1.28 13.4c1.02 10.92-4.27 19.37-8.96 24.49-10.24 11.26-27.73 18.6-44.62 18.6-9.47 0-22.87-2.3-33.02-13.05l-7.59-8.11-5.97 9.47c-20.22 32.76-51.96 37.63-69.11 37.63-41.13 0-79.35-25.68-86.94-58.53l-2.22-9.39-9.04 3.33c-8.79 3.16-17.66 4.78-26.54 4.78-32.59 0-64.42-23.04-79.09-57.34-14.68-34.21-8.79-69.96 15.7-95.65l4.27-4.52-2.82-5.46c-9.9-18.09-8.11-41.81 4.69-63.39 15.27-25.77 42.58-42.41 69.54-42.41 12.71 0 25.26 3.5 37.29 10.49l9.21 5.29 3.24-10.15c10.92-34.47 42.49-57.68 78.5-57.68M235.93 0c-37.63 0-73.97 23.72-86.69 63.65-13.99-8.11-28.07-11.6-41.55-11.6-60.07 0-108.19 69.88-81.74 118.43-60.66 63.65-5.55 167.4 69.62 167.4 9.56 0 19.45-1.71 29.44-5.29 8.87 38.31 52.22 65.1 95.22 65.1 29.18 0 58.19-12.29 76.36-41.64 10.32 11.01 24.57 15.7 39.25 15.7 31.74 0 64.93-22.44 62.03-52.47 8.28 2.99 16.3 4.27 23.98 4.27 46.07 0 79.35-48.38 64.25-90.95 32.68-23.63 36.18-85.66.51-112.03 1.28-41.89-31.83-71.16-61.26-71.16-3.75 0-7.42.51-10.92 1.45-16.64-27.99-42.15-39.08-66.72-39.08-17.58 0-34.73 5.72-47.78 15.02-18.7-18.35-41.65-26.8-64-26.8" fill="#a9d2e8"></path></g></svg>
