<svg xmlns="http://www.w3.org/2000/svg" data-name="Layer 1" style="" viewBox="0 0 512 494.95"><g><defs><linearGradient id="1770301555217-5818429_b" x1="249.18" x2="357.42" y1="147.54" y2="255.78" gradientTransform="matrix(1 0 0 -1 .5 496.56)" gradientUnits="userSpaceOnUse"><stop offset="0" stop-color="#565e61"></stop><stop offset=".38" stop-color="#858d91"></stop><stop offset=".79" stop-color="#b2babf"></stop><stop offset="1" stop-color="#c4ccd1"></stop></linearGradient><linearGradient id="1770301555217-5818429_c" x1="-31.33" x2="159.24" y1="421.53" y2="398.97" gradientTransform="scale(1 -1) rotate(-45 -506.799 156.542)" gradientUnits="userSpaceOnUse"><stop offset="0" stop-color="#565e61"></stop><stop offset=".06" stop-color="#5f676a"></stop><stop offset=".5" stop-color="#9aa3a7"></stop><stop offset=".83" stop-color="#bfc8cd"></stop><stop offset="1" stop-color="#cdd6db"></stop></linearGradient><linearGradient id="1770301555217-5818429_d" x1="337.51" x2="337.51" y1="580.29" y2="634.43" gradientTransform="scale(1 -1) rotate(-45 -744.278 251.3)" gradientUnits="userSpaceOnUse"><stop offset="0" stop-color="#c4ccd1"></stop><stop offset=".15" stop-color="#bdc5ca"></stop><stop offset=".38" stop-color="#a8b0b5"></stop><stop offset=".66" stop-color="#878f93"></stop><stop offset=".98" stop-color="#596164"></stop><stop offset="1" stop-color="#565e61"></stop></linearGradient></defs><path d="M490.74 373.61c-12.27-12.02-27.93-18.08-43.84-20.43-8.95-1.31-32.62-7.55-48.85-22.82-96.16-90.52-109.06-104.15-200.16-193.28-14.05-13.73-24.99-71.07-24.99-71.07L66.59 165.92s63.79 12.1 76.62 24.69c32.03 31.27 105.57 97.37 200.14 193.25 14.74 14.94 22.1 37.56 23.81 47.45 2.67 15.5 8.62 30.83 20.88 42.82 28.32 27.74 74.31 27.77 102.68 0 28.36-27.78 28.36-72.75.02-100.52m-2.5 68.64c-1.55 3.9-8.78 4.91-11.32 8.29-2.53 3.4-1.25 10.47-4.66 13.1-3.28 2.67-10.01-.02-14.04 1.69-3.86 1.72-6.31 8.42-10.69 9.12-4.36.67-8.85-5-13.06-5.45-4.34-.45-9.89 4.15-13.88 2.67-4.07-1.55-5.05-8.64-8.55-11.11-3.45-2.44-10.65-1.19-13.34-4.5-2.71-3.23.03-9.84-1.75-13.75-1.7-3.79-8.59-6.2-9.28-10.46-.67-4.27 5.11-8.68 5.51-12.77.49-4.28-4.22-9.68-2.65-13.59 1.54-3.94 8.77-4.96 11.31-8.33 2.53-3.42 1.26-10.45 4.6-13.11 3.32-2.63 10.09.02 14.06-1.7 3.83-1.7 6.31-8.4 10.69-9.08 4.36-.68 8.84 4.97 13.04 5.38 4.35.48 9.92-4.1 13.91-2.6 4.09 1.54 5.05 8.58 8.52 11.1 3.49 2.43 10.67 1.2 13.35 4.48 2.72 3.25-.02 9.85 1.76 13.76 1.7 3.74 8.58 6.21 9.26 10.48.7 4.28-5.07 8.67-5.51 12.75-.44 4.28 4.24 9.69 2.71 13.64Z" fill="url(#1770301555217-5818429_b)"></path><path d="M173.98 75.29c1.55-44.18-100.17-91.58-119.8-69.84 0 0 45.32 39.55 59.51 55.2 14.75 16.22-33.6 67.2-50.04 52.65-12.2-10.81-56.97-53.32-56.97-53.32C-18.89 78.63 35 161.43 66.59 165.92c64.59 9.22 106.16-55.44 107.38-90.64Z" fill="url(#1770301555217-5818429_c)"></path><path d="m313.14 336.43-117.9-113.47c-26.85-26.29 9.55-61.94 36.44-35.64l117.91 113.42c26.9 26.33-9.55 61.99-36.45 35.69" fill="url(#1770301555217-5818429_d)"></path></g></svg>
