<svg xmlns="http://www.w3.org/2000/svg" data-name="Layer 1" style="" viewBox="0 0 512 400"><g><defs><linearGradient id="1770301554813-9019656_b" x1="0" x2="494.94" y1="129.63" y2="129.63" gradientTransform="matrix(1 0 0 -1 0 392)" gradientUnits="userSpaceOnUse"><stop offset="0" stop-color="#f5000d"></stop><stop offset=".25" stop-color="#f2000c"></stop><stop offset=".46" stop-color="#e7000a"></stop><stop offset=".66" stop-color="#d50106"></stop><stop offset=".86" stop-color="#bc0101"></stop><stop offset=".9" stop-color="#b50100"></stop></linearGradient><linearGradient id="1770301554813-9019656_c" x1="26.79" x2="468.13" y1="246.12" y2="246.12" gradientTransform="matrix(1 0 0 -1 0 392)" gradientUnits="userSpaceOnUse"><stop offset="0" stop-color="#600"></stop><stop offset=".46" stop-color="#980b0a"></stop><stop offset=".82" stop-color="#c21413"></stop></linearGradient><linearGradient id="1770301554813-9019656_d" x1="366.9" x2="366.9" y1="182.76" y2="392" gradientTransform="matrix(1 0 0 -1 0 392)" gradientUnits="userSpaceOnUse"><stop offset="0" stop-color="#b3c2c6"></stop><stop offset=".09" stop-color="#b7c5c9"></stop><stop offset=".18" stop-color="#c2ced3"></stop><stop offset=".24" stop-color="#cfd8dd"></stop></linearGradient></defs><path d="M382.17 331.3H112.74s3.5 27.08 39.5 49.02c13.3 8.06 44.96 19.69 95.22 19.69s81.94-11.62 95.24-19.69c35.97-21.94 39.46-49.02 39.46-49.02Z" fill="#b00505"></path><path d="M494.94 145.84H0s6.44 56.86 72.52 149.55c24.45 34.28 82.62 83.51 174.94 83.51S398 329.67 422.4 295.39c66.1-92.69 72.53-149.55 72.53-149.55Z" fill="url(#1770301554813-9019656_b)"></path><path d="M247.46 69.57c136.66 0 247.45 34.41 247.45 76.82s-110.78 76.84-247.45 76.84C110.8 223.23 0 188.79 0 146.38s110.81-76.81 247.46-76.81" fill="#f44336"></path><path d="M247.46 82.82c121.86 0 220.66 28.21 220.66 63.08s-98.8 63.04-220.66 63.04S26.79 180.69 26.79 145.9c0-34.87 98.81-63.08 220.67-63.08" fill="url(#1770301554813-9019656_c)"></path><path d="M386.43 100.75s-31.63 49.1-47.12 102.48l16.06-2.34c23.23-56.84 50.3-90.79 71.66-107.35-10.85-2.04-40.6 7.22-40.6 7.22Z" style="isolation:isolate" fill="#302c3b" opacity=".2"></path><path d="M323.75 205.07C295.36 155.42 443.73 35.8 479.93 7.27c21.74-17.14 44.2 11.22 24.46 26.06-21 15.78-160.38 121.08-175.56 153.21-2.53 5.36-1.74 18.28-1.74 18.28l-3.34.26Z" fill="#9facb0"></path><path d="M223.09 208.56c39.75-35.39 78.79-17.9 89.58-37.72 13.1-24.01 122.47-136.22 158.67-164.73 21.73-17.14 52.83 5.66 33.08 20.49-21 15.78-163.97 125.21-179.16 157.34-2.54 5.36-1.51 21.13-1.51 21.13s-47.86 6.2-100.66 3.5Z" fill="url(#1770301554813-9019656_d)"></path></g></svg>
