<svg xmlns="http://www.w3.org/2000/svg" data-name="Layer 1" style="" viewBox="0 0 512 460.8"><g><defs><linearGradient id="1770301554818-6720480_b" x1="-234" x2="278" y1="952.69" y2="952.69" gradientTransform="translate(234 -679)" gradientUnits="userSpaceOnUse"><stop offset="0" stop-color="#ffc800"></stop><stop offset=".17" stop-color="#fec200"></stop><stop offset="1" stop-color="#f9a600"></stop></linearGradient><linearGradient id="1770301554818-6720480_c" x1="-234" x2="278" y1="772.67" y2="772.67" gradientTransform="translate(234 -679)" gradientUnits="userSpaceOnUse"><stop offset="0" stop-color="#ffe12c"></stop><stop offset=".46" stop-color="#ffdf2c"></stop><stop offset=".73" stop-color="#ffd62c"></stop><stop offset=".94" stop-color="#ffc82c"></stop><stop offset="1" stop-color="#ffc32c"></stop></linearGradient><linearGradient id="1770301554818-6720480_d" x1="297.7" x2="282.81" y1="392.84" y2="433.75" gradientTransform="matrix(1 0 0 -1 0 456.79)" gradientUnits="userSpaceOnUse"><stop offset="0" stop-color="#d99025"></stop><stop offset=".22" stop-color="#db9425"></stop><stop offset=".44" stop-color="#e1a026"></stop><stop offset=".67" stop-color="#eab528"></stop><stop offset=".9" stop-color="#f8d12b"></stop><stop offset="1" stop-color="#ffe12c"></stop></linearGradient><linearGradient id="1770301554818-6720480_e" x1="215.1" x2="195.96" y1="139.83" y2="192.43" gradientTransform="matrix(1 0 0 -1 0 456.79)" gradientUnits="userSpaceOnUse"><stop offset="0" stop-color="#ffe12c"></stop><stop offset=".02" stop-color="#fddd2b"></stop><stop offset=".22" stop-color="#efb81d"></stop><stop offset=".42" stop-color="#e39c13"></stop><stop offset=".61" stop-color="#db870c"></stop><stop offset=".81" stop-color="#d67b07"></stop><stop offset="1" stop-color="#d47706"></stop></linearGradient><linearGradient id="1770301554818-6720480_f" x1="444.54" x2="424.14" y1="186.98" y2="243.03" gradientTransform="matrix(1 0 0 -1 0 456.79)" gradientUnits="userSpaceOnUse"><stop offset="0" stop-color="#ffe12c"></stop><stop offset=".02" stop-color="#fddd2b"></stop><stop offset=".22" stop-color="#efb81d"></stop><stop offset=".42" stop-color="#e39c13"></stop><stop offset=".61" stop-color="#db870c"></stop><stop offset=".81" stop-color="#d67b07"></stop><stop offset="1" stop-color="#d47706"></stop></linearGradient><linearGradient id="1770301554818-6720480_g" x1="356.2" x2="339.96" y1="71.84" y2="116.46" gradientTransform="matrix(1 0 0 -1 0 456.79)" gradientUnits="userSpaceOnUse"><stop offset="0" stop-color="#ffe12c"></stop><stop offset=".02" stop-color="#fddd2b"></stop><stop offset=".22" stop-color="#efb81d"></stop><stop offset=".42" stop-color="#e39c13"></stop><stop offset=".61" stop-color="#db870c"></stop><stop offset=".81" stop-color="#d67b07"></stop><stop offset="1" stop-color="#d47706"></stop></linearGradient><linearGradient id="1770301554818-6720480_h" x1="132.41" x2="119.5" y1="46.03" y2="81.5" gradientTransform="matrix(1 0 0 -1 0 456.79)" gradientUnits="userSpaceOnUse"><stop offset="0" stop-color="#ffe12c"></stop><stop offset=".02" stop-color="#fddd2b"></stop><stop offset=".22" stop-color="#efb81d"></stop><stop offset=".42" stop-color="#e39c13"></stop><stop offset=".61" stop-color="#db870c"></stop><stop offset=".81" stop-color="#d67b07"></stop><stop offset="1" stop-color="#d47706"></stop></linearGradient><linearGradient id="1770301554818-6720480_i" x1="134.49" x2="125.49" y1="322.01" y2="346.72" gradientTransform="matrix(1 0 0 -1 0 456.79)" gradientUnits="userSpaceOnUse"><stop offset="0" stop-color="#d99025"></stop><stop offset=".22" stop-color="#db9425"></stop><stop offset=".44" stop-color="#e1a026"></stop><stop offset=".67" stop-color="#eab528"></stop><stop offset=".9" stop-color="#f8d12b"></stop><stop offset="1" stop-color="#ffe12c"></stop></linearGradient></defs><path d="M172.66 120.61c65.31-2.54 57.57-78.24 0-83.35z" fill="#f9b700"></path><path d="M0 186.94 512 86.58v287.47L0 460.8v-82.5c53.26 0 57.57-105.45 0-105.45z" fill="url(#1770301554818-6720480_b)"></path><path d="M0 186.94c0-7.65 122.85-103.76 122.85-103.76 46.4 26.36 93.65-12.75 49.82-45.93L216.48 2.4c18.03 0 169.24-24.68 295.52 84.18C512 87.44 0 194.6 0 186.94" fill="url(#1770301554818-6720480_c)"></path><path d="M345.35 46.6C315.3.69 237.98 25.33 244.84 67.02z" fill="url(#1770301554818-6720480_d)"></path><path d="M345.35 46.6c-24.92-17.01-83.32-17.85-100.51 20.42C256 114.65 358.22 89.98 345.35 46.6" class="s" fill="#d99025"></path><path d="M146.05 287.31c36.94 68.88 114.24 22.95 101.36-41.68z" fill="url(#1770301554818-6720480_e)"></path><path d="M146.05 287.31c27.49 24.65 88.47 20.42 101.36-41.68-17.17-74.85-120.26-25.51-101.36 41.68" class="r" fill="#d47706"></path><path d="M374.55 241.38c44.68 67.2 121.15 17.85 102.25-46.78z" fill="url(#1770301554818-6720480_f)"></path><path d="M374.55 241.38c30.93 22.96 93.67 16.18 102.25-46.78-25.78-73.99-128.02-19.55-102.25 46.78" class="r" fill="#d47706"></path><path d="M384.85 328.13c6.9 67.17-67 79.1-88.47 28.07z" fill="url(#1770301554818-6720480_g)"></path><path d="M384.85 328.13c-7.71 32.32-50.67 62.93-88.47 28.07-22.34-60.38 70.43-84.2 88.47-28.07" class="r" fill="#d47706"></path><path d="M148.62 364.7c14.62 43.36-31.79 63.79-53.26 34.86z" fill="url(#1770301554818-6720480_h)"></path><path d="M148.62 364.7c0 22.09-23.19 50.18-53.26 34.86-24.9-35.69 32.65-68.87 53.26-34.86" class="r" fill="#d47706"></path><path d="M164.09 124.01c-19.75-26.36-67.86-11.91-62.71 11.91z" fill="url(#1770301554818-6720480_i)"></path><path d="M164.09 124.01c-15.47-10.2-52.4-10.2-62.71 11.91 7.74 28.07 71.29 13.6 62.71-11.91" class="s" fill="#d99025"></path></g></svg>
