<svg xmlns="http://www.w3.org/2000/svg" data-name="Layer 1" style="" viewBox="0 0 512 512.01"><g><defs><radialGradient id="1770301554849-9047624_b" cx="525.47" cy="714.08" r="22.84" fx="525.47" fy="714.08" gradientTransform="matrix(7.73505 4.44246 4.54999 -7.83474 -6963.88 3576.69)" gradientUnits="userSpaceOnUse"><stop offset="0" stop-color="#c98648"></stop><stop offset=".28" stop-color="#bb8043"></stop><stop offset=".8" stop-color="#957037"></stop><stop offset="1" stop-color="#856932"></stop></radialGradient><radialGradient id="1770301554849-9047624_c" cx="689.03" cy="713.94" r="26.84" fx="689.03" fy="713.94" gradientTransform="matrix(6.56438 3.77012 4.55 -7.83473 -7550.87 3238.25)" gradientUnits="userSpaceOnUse"><stop offset=".24" stop-color="#e5efcd"></stop><stop offset=".28" stop-color="#bccc95"></stop><stop offset=".32" stop-color="#9aae66"></stop><stop offset=".35" stop-color="#7f9642"></stop><stop offset=".38" stop-color="#6c8627"></stop><stop offset=".41" stop-color="#607c18"></stop><stop offset=".44" stop-color="#5c7812"></stop><stop offset=".46" stop-color="#627f14"></stop><stop offset=".56" stop-color="#7ea11e"></stop><stop offset=".66" stop-color="#93bc25"></stop><stop offset=".77" stop-color="#a3cf2b"></stop><stop offset=".88" stop-color="#acda2e"></stop><stop offset="1" stop-color="#afde2f"></stop></radialGradient></defs><path d="M348.13 23.93C688.44 219.35 435.82 654.53 95.5 459.1z" fill="url(#1770301554849-9047624_b)"></path><path d="M348.13 23.93c100.7 57.83 125.75 202.11 55.99 322.28S196.2 516.92 95.5 459.11c-100.69-57.82-125.76-202.12-56-322.28C109.26 16.66 247.44-33.88 348.13 23.93" fill="#594640"></path><path d="M343.91 31.18c97.34 55.89 121.58 195.36 54.14 311.53-67.44 116.16-201 165.03-298.34 109.14C2.36 395.97-21.86 256.48 45.57 140.32 113.01 24.16 246.58-24.71 343.91 31.18" fill="url(#1770301554849-9047624_c)"></path><path d="M354.4 317.64c-4.38 7.59-99.93-55.02-105.4-48.71-5.63 6.51 58.88 104.83 52.38 109.9-6.6 5.15-60.74-101.32-67.94-97.77-7.22 3.57 6.79 129.8-.74 131.64-7.49 1.82-9.73-127.27-17.23-127.25-7.38.02-46.68 129.15-53.75 127.29-6.87-1.78 43.49-128.02 37.14-131.65-6.35-3.65-91.09 102.83-96.08 97.81-5.16-5.17 87.65-103.6 83.99-109.94-3.74-6.47-117.28 56.16-119.44 48.78-2.17-7.41 114.78-58.48 114.25-66.48-.51-7.96-120.29-1.37-119.1-9.63 1.16-8.13 119.02-1.72 121.88-9.81 2.75-7.84-99.51-58.86-95.12-66.42 4.4-7.58 99.95 55.01 105.41 48.71 5.62-6.51-58.88-104.82-52.38-109.89 6.59-5.15 60.74 101.32 67.92 97.77 7.23-3.56-6.76-129.82.76-131.64 7.49-1.83 9.73 127.26 17.23 127.25 7.38 0 46.68-129.15 53.75-127.3 6.87 1.79-43.49 128.02-37.15 131.67 6.35 3.64 91.08-102.84 96.08-97.81 5.16 5.17-87.65 103.57-83.97 109.93 3.75 6.46 117.26-56.16 119.42-48.78 2.17 7.41-114.77 58.47-114.25 66.48.5 7.96 120.29 1.35 119.09 9.63-1.16 8.13-119.02 1.7-121.87 9.8-2.76 7.86 99.51 58.87 95.12 66.42" style="isolation:isolate" fill="#e5efcd" opacity=".3"></path><path d="M261.52 166.06c-6.38-3.68 4-21.55 10.39-17.88 6.38 3.67-4 21.54-10.39 17.88m-22.22-19.42c-6.38-3.67 4-21.54 10.37-17.88s-4 21.55-10.37 17.88m58.15-9.19c-6.39-3.67 4-21.56 10.39-17.89 6.38 3.67-4.01 21.55-10.39 17.89M157.89 344.58c-6.39-3.68 3.99-21.56 10.38-17.87 6.38 3.65-4 21.54-10.38 17.87m44.96-15.27c-6.38-3.66 4-21.55 10.39-17.87 6.38 3.66-4 21.55-10.39 17.87m-23.99-13.79c-6.39-3.66 4-21.53 10.38-17.87 6.37 3.65-4.01 21.54-10.38 17.87m122.3-46.65c4.43-7.62 19.39.98 14.98 8.59-4.42 7.62-19.39-.99-14.98-8.59m18.52-14.71c4.43-7.61 19.41.98 14.99 8.6-4.43 7.62-19.4-.98-14.99-8.6m-16.12 52.46c4.43-7.63 19.41.97 14.99 8.6-4.42 7.62-19.4-.98-14.99-8.6M127.15 161.34c4.43-7.62 19.39.99 14.97 8.6-4.41 7.6-19.39-.99-14.97-8.6m-16.78 39.72c4.42-7.62 19.4.98 14.98 8.6-4.43 7.62-19.4-.99-14.98-8.6m21.24 16.19c4.42-7.62 19.39.97 14.98 8.59-4.43 7.62-19.41-.98-14.98-8.59m148.44-18.41c-1.38-7.97 16.55-14.54 17.92-6.56 1.4 7.96-16.54 14.52-17.92 6.56m22.9 18.14c-1.39-7.97 16.55-14.53 17.93-6.56 1.39 7.98-16.55 14.55-17.93 6.56m34.48-5.56c-1.37-7.97 16.56-14.54 17.94-6.56 1.39 7.96-16.54 14.52-17.94 6.56M93.87 266.18c-1.38-7.97 16.55-14.55 17.92-6.56 1.39 7.98-16.54 14.54-17.92 6.56m37.87 35.77c-1.39-7.98 16.55-14.55 17.92-6.56 1.39 7.99-16.53 14.54-17.92 6.56m-3.06-32.08c-1.38-7.98 16.55-14.54 17.94-6.56 1.38 7.97-16.56 14.53-17.94 6.56m113.63 38.97c7.63-2.81 10.9 15.92 3.25 18.73-7.63 2.78-10.87-15.94-3.25-18.73m11.21 22.89c7.64-2.82 10.89 15.93 3.25 18.73-7.63 2.78-10.88-15.95-3.25-18.73m-40.68 25.8c7.64-2.8 10.91 15.93 3.25 18.72-7.63 2.81-10.89-15.91-3.25-18.72m-10.86-245.89c7.64-2.79 10.9 15.95 3.25 18.73-7.63 2.79-10.9-15.94-3.25-18.73m-2.65 30.84c7.64-2.81 10.89 15.93 3.25 18.73-7.63 2.79-10.89-15.95-3.25-18.73m-17.5-6.72c7.63-2.81 10.89 15.93 3.25 18.73-7.63 2.8-10.89-15.93-3.25-18.73" fill="#302c3b"></path><path d="M139.23 477.59c8 18.75 35.73 22.45 32.34-1.37-1.12 8.32-13.07 19.47-32.34 1.37" class="f" fill="#bd8864"></path><path d="M176.1 474.83c-7.27 19.05 10.13 40.92 24.27 21.39-6.61 5.24-22.96 4.98-24.27-21.39" class="f" fill="#bd8864"></path><path d="M176.48 496.23c19.29 6.69 40.69-11.28 20.74-24.82 5.43 6.46 5.65 22.76-20.74 24.82m95.03-23.62c-8 18.75-35.72 22.46-32.34-1.39 1.12 8.35 13.06 19.48 32.34 1.39" class="f" fill="#bd8864"></path><path d="M231.39 479.4c18.59 8.48 21.57 36.23-2.23 32.22 8.38-.9 19.86-12.51 2.23-32.22" class="f" fill="#bd8864"></path><path d="M238.61 508.27c-20.3 2.36-37.25-19.84-14.82-28.71-6.7 5.09-10.49 20.96 14.82 28.71m5.47-14c8 18.75 35.72 22.46 32.34-1.39-1.12 8.34-13.06 19.47-32.34 1.39" class="f" fill="#bd8864"></path><path d="M196.85 484.94c8 18.75 35.73 22.46 32.34-1.39-1.12 8.35-13.06 19.47-32.34 1.39m73.12-18.22c-18.59 8.48-21.56 36.23 2.23 32.23-8.38-.91-19.85-12.52-2.23-32.23m1.37 8.69c19.28 6.7 40.67-11.27 20.73-24.81 5.42 6.43 5.66 22.74-20.73 24.81m51.6 6.34c-8 18.75-35.72 22.46-32.35-1.39 1.12 8.36 13.07 19.48 32.35 1.39" class="f" fill="#bd8864"></path><path d="M287.73 459.27c18.58 8.48 21.56 36.23-2.23 32.23 8.38-.9 19.84-12.51 2.23-32.23" class="f" fill="#bd8864"></path><path d="M303.24 503.05c-19.3 6.7-40.69-11.27-20.74-24.81-5.42 6.44-5.66 22.75 20.74 24.81m-.49-58.62c8.01 18.76 35.73 22.45 32.34-1.39-1.12 8.35-13.05 19.48-32.34 1.39m49.67-3.68c-18.58 8.48-21.56 36.23 2.23 32.23-8.38-.89-19.86-12.52-2.23-32.23m-41.37 62.3c19.29 6.7 40.69-11.27 20.75-24.81 5.42 6.44 5.64 22.75-20.75 24.81" class="f" fill="#bd8864"></path><path d="M385.69 467.73c-8.01 18.75-35.73 22.46-32.34-1.38 1.11 8.34 13.05 19.47 32.34 1.38m-70.55-27.89c18.58 8.48 21.56 36.23-2.23 32.23 8.38-.9 19.86-12.51 2.23-32.23" class="f" fill="#bd8864"></path><path d="M331.95 480.96c-19.28 6.69-40.68-11.27-20.74-24.81-5.43 6.45-5.66 22.75 20.74 24.81m-2.13-15.07c8.01 18.75 35.73 22.46 32.34-1.38-1.11 8.35-13.05 19.47-32.34 1.38" class="f" fill="#bd8864"></path><path d="M323.47 481.75c8 18.75 35.71 22.46 32.34-1.39-1.12 8.36-13.07 19.48-32.34 1.39m23.26-67.78c-18.58 8.48-21.56 36.22 2.24 32.22-8.39-.89-19.87-12.5-2.24-32.22" class="f" fill="#bd8864"></path><path d="M331.79 435.25c19.28 6.71 40.68-11.27 20.73-24.81 5.43 6.45 5.66 22.76-20.73 24.81m51.32 13.95c-8 18.77-35.72 22.46-32.34-1.37 1.12 8.34 13.06 19.47 32.34 1.37" class="f" fill="#bd8864"></path><path d="M346.78 420.39c18.58 8.48 21.56 36.22-2.24 32.22 8.39-.9 19.86-12.5 2.24-32.22m48.75 57.63c-19.29 6.71-40.68-11.26-20.74-24.8-5.43 6.43-5.66 22.75 20.74 24.8" class="f" fill="#bd8864"></path><path d="M399.44 430.27c-8.01 18.75-35.73 22.45-32.34-1.39 1.1 8.34 13.05 19.47 32.34 1.39m-34.6-43.66c8 18.75 35.73 22.45 32.34-1.39-1.11 8.34-13.05 19.48-32.34 1.39" class="f" fill="#bd8864"></path><path d="M377.24 391.92c-18.58 8.48-21.56 36.22 2.23 32.22-8.38-.89-19.86-12.51-2.23-32.22m.36 78.14c19.29 6.7 40.69-11.27 20.74-24.81 5.42 6.44 5.66 22.75-20.74 24.81" class="f" fill="#bd8864"></path><path d="M424.58 427.75c-8 18.75-35.72 22.46-32.34-1.39 1.12 8.36 13.07 19.48 32.34 1.39m-32.95-39.39c18.57 8.48 21.55 36.23-2.24 32.23 8.38-.91 19.86-12.52 2.24-32.23" class="f" fill="#bd8864"></path><path d="M408.44 429.49c-19.28 6.69-40.68-11.28-20.74-24.82-5.42 6.45-5.66 22.75 20.74 24.82m-7.81 11.37c8 18.76 35.71 22.46 32.34-1.37-1.12 8.33-13.05 19.47-32.34 1.37m-40.12 5.19c8 18.76 35.72 22.46 32.34-1.39-1.12 8.35-13.06 19.48-32.34 1.39m62.71-62.89c-18.59 8.48-21.56 36.23 2.23 32.23-8.39-.91-19.86-12.52-2.23-32.23m-42.06-4.59c19.28 6.71 40.68-11.26 20.74-24.81 5.43 6.44 5.66 22.76-20.74 24.81" class="f" fill="#bd8864"></path><path d="M449.58 423.97c-8.01 18.76-35.73 22.46-32.35-1.38 1.12 8.34 13.07 19.47 32.35 1.38" class="f" fill="#bd8864"></path><path d="M410.67 418.4c18.59 8.48 21.56 36.22-2.23 32.22 8.39-.9 19.86-12.51 2.23-32.22m-.79-26.68c-19.28 6.69-40.68-11.28-20.73-24.82-5.43 6.45-5.66 22.75 20.73 24.82m-11.96-43.49c16.83 11.56 42.22-.15 26.56-18.47 3.54 7.64-.57 23.43-26.56 18.47m53.2 45.11c-18.65-8.33-41.5 7.76-22.78 22.95-4.86-6.88-3.69-23.15 22.78-22.95m16.82-2.89c3.32 20.11-18.09 38.06-28.04 16.13 5.41 6.45 21.49 9.46 28.04-16.13" class="f" fill="#bd8864"></path><path d="M419.8 418.77c16.83 11.56 42.22-.16 26.56-18.47 3.53 7.63-.57 23.43-26.56 18.47m-13.62-52.87c-11.14 17.09 1.26 42.1 19.2 26-7.57 3.73-23.49.06-19.2-26" class="f" fill="#bd8864"></path><path d="M404.99 391.84c19.9-4.65 28.3-31.28 4.18-32.05 8.05 2.54 17 16.19-4.18 32.05m50.83-13.86c3.32 20.12-18.09 38.07-28.04 16.13 5.42 6.45 21.49 9.46 28.04-16.13" class="f" fill="#bd8864"></path><path d="M409.67 371.28c20.25-2.79 37.66 19.05 15.43 28.4 6.58-5.23 10.03-21.18-15.43-28.4m72.1 18.96c-12.68 15.98-40.4 12.25-30.82-9.86-1.12 8.34 7.44 22.23 30.82 9.86m-25.95-41.27c3.31 20.11-18.1 38.06-28.06 16.14 5.43 6.43 21.5 9.44 28.06-16.14m-47.65-18.91c16.84 11.56 42.23-.16 26.57-18.47 3.53 7.64-.58 23.43-26.57 18.47" class="f" fill="#bd8864"></path><path d="M420.09 330.96c-11.15 17.09 1.25 42.1 19.2 26.02-7.57 3.72-23.5.05-19.2-26.02m43.84 61.24c19.9-4.66 28.3-31.29 4.18-32.04 8.04 2.51 17 16.17-4.18 32.04" class="f" fill="#bd8864"></path><path d="M479.31 335.89c3.32 20.11-18.1 38.05-28.05 16.13 5.42 6.45 21.5 9.46 28.05-16.13m-48.99-15.64c20.23-2.78 37.65 19.05 15.42 28.4 6.6-5.24 10.05-21.18-15.42-28.4" class="f" fill="#bd8864"></path><path d="M466.6 345.98c-12.69 15.98-40.4 12.23-30.83-9.86-1.13 8.34 7.44 22.22 30.83 9.86m-.48 13.79c16.83 11.56 42.22-.15 26.56-18.47 3.54 7.63-.56 23.43-26.56 18.47m-31.64 20.75c16.82 11.58 42.21-.15 26.55-18.47 3.54 7.65-.56 23.43-26.55 18.47m19.67-78.23c-11.12 17.09 1.27 42.1 19.21 26-7.57 3.72-23.49.05-19.21-26m-32.47 17.39c19.89-4.66 28.29-31.29 4.18-32.04 8.04 2.52 16.99 16.17-4.18 32.04" class="f" fill="#bd8864"></path><path d="M502.2 317.88c3.31 20.11-18.09 38.06-28.05 16.13 5.43 6.45 21.49 9.45 28.05-16.13" class="f" fill="#bd8864"></path><path d="M463.86 323.35c20.23-2.77 37.66 19.05 15.43 28.41 6.59-5.25 10.04-21.18-15.43-28.41m-16.32-10.04c-12.7 15.98-40.41 12.24-30.83-9.86-1.13 8.34 7.44 22.22 30.83 9.86m-10.12-107.97c17 11.29 42.21-.81 26.27-18.87 3.65 7.58-.21 23.43-26.27 18.87" class="f" fill="#bd8864"></path><path d="M448.61 312.24c20.2-3.11 37.94 18.47 15.85 28.14 6.54-5.33 9.72-21.33-15.85-28.14" class="f" fill="#bd8864"></path><path d="M472.15 290.58c-10.86 17.26 1.93 42.09 19.61 25.72-7.51 3.84-23.49.41-19.61-25.72m-37.67 19.21c19.81-4.96 27.8-31.72 3.68-32.09 8.09 2.4 17.26 15.9-3.68 32.09m67.1-114.6c-12.43 16.18-40.2 12.86-30.99-9.37-1 8.36 7.79 22.12 30.99 9.37m-69.77 80.05c20.42.43 35.21-23.26 12.04-29.99 7.15 4.46 12.41 19.9-12.04 29.99" class="f" fill="#bd8864"></path><path d="M501.08 283.81c-20.16 3.25-30.41 29.22-6.41 31.67-7.84-3.09-15.82-17.34 6.41-31.67" class="f" fill="#bd8864"></path><path d="M507.25 274.66c11.73 16.7.23 42.12-18.26 26.67 7.69 3.46 23.48-.78 18.26-26.67" class="f" fill="#bd8864"></path><path d="M481.85 328.27c20.43.44 35.22-23.26 12.04-29.99 7.16 4.45 12.43 19.9-12.04 29.99m-33.43-42.78c.1 20.38 24.22 34.51 30.35 11.23-4.27 7.25-19.6 12.9-30.35-11.23" class="f" fill="#bd8864"></path><path d="M461.7 307.83c14.06-14.79 6.43-41.64-14.14-29.07 8.13-2.29 23.11 4.21 14.14 29.07m13.96-35.45c19.9-4.61 39.23 15.56 17.95 26.88 6.09-5.81 8.07-22.01-17.95-26.88" class="f" fill="#bd8864"></path><path d="M454.3 288.08c15.4-13.42 41.97-4.71 28.53 15.3 2.63-8-3.27-23.21-28.53-15.3m5.97-122.98c20.17-3.25 38.1 18.17 16.08 28.03 6.47-5.39 9.55-21.41-16.08-28.03m20.32 79.04c13.84 15 5.82 41.74-14.57 28.86 8.08 2.41 23.17-3.86 14.57-28.86m-50.23 10.3c20.42.43 35.21-23.27 12.03-29.99 7.17 4.44 12.43 19.9-12.03 29.99" class="f" fill="#bd8864"></path><path d="M440.83 248.66c.09 20.38 24.21 34.51 30.35 11.23-4.27 7.26-19.6 12.91-30.35-11.23m62.59 20.1c14.05-14.78 6.43-41.64-14.14-29.06 8.11-2.29 23.1 4.21 14.14 29.06" class="f" fill="#bd8864"></path><path d="M493.03 220.34c13.85 14.99 5.82 41.74-14.57 28.85 8.08 2.41 23.17-3.86 14.57-28.85m-49.54 13.78c15.39-13.41 41.96-4.72 28.51 15.29 2.63-8-3.25-23.2-28.51-15.29" class="f" fill="#bd8864"></path><path d="M487.96 235.73c-1.81 20.32-27.05 32.37-31.2 8.66 3.65 7.6 18.46 14.5 31.2-8.66" class="f" fill="#bd8864"></path><path d="M469.95 239.44c20.42.44 35.22-23.25 12.03-29.98 7.16 4.45 12.42 19.89-12.03 29.98m10.17 42.78c20.43.44 35.2-23.26 12.03-29.99 7.16 4.44 12.43 19.9-12.03 29.99" class="f" fill="#bd8864"></path><path d="M451.72 203.24c.11 20.39 24.23 34.51 30.36 11.23-4.26 7.26-19.59 12.92-30.36-11.23m-4.75-.6c14.05-14.78 6.43-41.64-14.14-29.06 8.12-2.3 23.1 4.2 14.14 29.06M411.22 97.26c14.05-14.78 6.43-41.64-14.14-29.07 8.11-2.29 23.1 4.21 14.14 29.07" class="f" fill="#bd8864"></path><path d="M486.69 181.97c13.84 14.99 5.82 41.73-14.57 28.84 8.08 2.41 23.18-3.86 14.57-28.84M418.38 81.11c20.09 3.65 29.82 29.82 5.76 31.78 7.91-2.93 16.17-17.01-5.76-31.78" class="f" fill="#bd8864"></path><path d="M473.79 221.6c15.39-13.4 41.97-4.71 28.52 15.29 2.63-7.99-3.26-23.21-28.52-15.29m-21.61-72.16c13.84 14.99 5.82 41.73-14.57 28.85 8.08 2.41 23.17-3.87 14.57-28.85M475 174.06c14.06-14.79 6.44-41.65-14.14-29.06 8.11-2.29 23.11 4.21 14.14 29.06" class="f" fill="#bd8864"></path><path d="M463.42 131.54c13.84 15 5.81 41.74-14.57 28.85 8.07 2.41 23.16-3.86 14.57-28.85m-48.36 7.87c15.4-13.41 41.97-4.71 28.52 15.3 2.64-8.01-3.25-23.21-28.52-15.3m-34.59-93.92c20.3 2.34 31.72 27.81 7.84 31.33 7.71-3.43 15.02-18.01-7.84-31.33" class="f" fill="#bd8864"></path><path d="M459.55 141.03c-1.81 20.32-27.04 32.37-31.2 8.65 3.64 7.59 18.44 14.5 31.2-8.65" class="f" fill="#bd8864"></path><path d="M441.53 144.74c20.42.43 35.21-23.26 12.03-29.99 7.16 4.45 12.43 19.89-12.03 29.99" class="f" fill="#bd8864"></path><path d="M423.31 108.54c.11 20.39 24.23 34.52 30.35 11.23-4.27 7.26-19.59 12.91-30.35-11.23" class="f" fill="#bd8864"></path><path d="M415.7 106.93c15.39-13.41 41.97-4.71 28.52 15.29 2.62-7.99-3.26-23.21-28.52-15.29m70.3 57.84c-1.81 20.31-27.05 32.37-31.19 8.65 3.64 7.58 18.45 14.49 31.19-8.65" class="f" fill="#bd8864"></path></g></svg>
