<svg xmlns="http://www.w3.org/2000/svg" data-name="Layer 1" style="" viewBox="0 0 512 512"><g><defs><linearGradient id="1770301554875-8720545_b" x1="0" x2="482.44" y1="176.98" y2="176.98" gradientTransform="matrix(1 0 0 -1 0 514)" gradientUnits="userSpaceOnUse"><stop offset="0" stop-color="#ffd675"></stop><stop offset=".38" stop-color="#ffd267"></stop><stop offset="1" stop-color="#ffc847"></stop></linearGradient><linearGradient id="1770301554875-8720545_d" x1="-767.58" x2="-671.11" y1="894.47" y2="989.62" gradientTransform="matrix(-.53567 -.85625 .87136 -.53036 -957.79 -32.25)" gradientUnits="userSpaceOnUse"><stop offset="0" stop-color="#c21413"></stop><stop offset=".14" stop-color="#cf0f11"></stop><stop offset=".44" stop-color="#e4070f"></stop><stop offset=".73" stop-color="#f1020d"></stop><stop offset="1" stop-color="#f5000d"></stop></linearGradient><radialGradient id="1770301554875-8720545_c" cx="181.38" cy="-777.1" r="80.41" fx="181.38" fy="-777.1" gradientTransform="matrix(1.06963 -.028 -.00598 -.24993 51.23 -52.08)" gradientUnits="userSpaceOnUse"><stop offset=".28" stop-color="#696460"></stop><stop offset="1" stop-color="#e6ded3" stop-opacity="0"></stop></radialGradient></defs><path d="M464.16 451.69s-325.4 44.63-433.87 59.48C9.34 514.04 0 510.19 0 488.23V236.72s166.98-58.68 477.68-74.68c16 176.65-13.52 289.66-13.52 289.66Z" fill="url(#1770301554875-8720545_b)"></path><path d="M165.76 255.21c-7.15-3.88-.71-13.66 6.44-9.75 7.16 3.91.72 13.67-6.44 9.75m114.8-10.95c-7.16-3.88-.72-13.65 6.44-9.75 7.16 3.91.73 13.66-6.44 9.75m-43.12 20.3c-7.16-3.89-.72-13.66 6.44-9.75s.73 13.67-6.44 9.75m55.8-48.22c-7.16-3.9-.72-13.66 6.44-9.75 7.15 3.91.73 13.66-6.44 9.75m57.95 69.57c-7.16-3.88-.72-13.65 6.44-9.76 7.16 3.93.74 13.68-6.44 9.76m19.03-78.07c-7.16-3.9-.71-13.66 6.44-9.75 7.16 3.91.74 13.66-6.44 9.75m35.6 61.6c-7.16-3.88-.72-13.65 6.44-9.75 7.16 3.92.73 13.67-6.44 9.75m33.32-61.6c-7.15-3.9-.72-13.66 6.44-9.75s.74 13.66-6.44 9.75m12.69 68.92c-7.16-3.88-.71-13.65 6.44-9.75 7.16 3.9.73 13.66-6.44 9.75m-87.95-17.99c-7.16-3.89-.72-13.65 6.44-9.75 7.18 3.92.73 13.68-6.44 9.75m64.81-5.78c-7.16-3.88-.72-13.65 6.44-9.75 7.18 3.92.74 13.67-6.44 9.75M400.87 227c-7.16-3.89-.71-13.64 6.43-9.75 7.17 3.91.73 13.66-6.43 9.75m-200.22 35.16c3.55-5.58 12.75-.77 9.2 4.85-3.53 5.57-12.75.73-9.2-4.85m123.21-29.36c3.55-5.58 12.75-.76 9.2 4.83-3.54 5.59-12.76.74-9.2-4.83m-27.97 48.8c3.53-5.6 12.73-.77 9.2 4.83-3.56 5.57-12.76.74-9.2-4.83M30.63 257.27c3.55-5.58 12.75-.75 9.2 4.85-3.54 5.57-12.75.72-9.2-4.85m101.15 29.92c4.56-7.19 16.42-.95 11.86 6.21-4.55 7.2-16.42.98-11.86-6.21m-93.6-1.4c4.56-7.19 16.42-.94 11.86 6.21-4.55 7.21-16.42.98-11.86-6.21m34.43 14.91c3.23-5.08 11.63-.68 8.39 4.4-3.23 5.09-11.62.71-8.39-4.4m33.06 14.25c3.23-5.08 11.63-.68 8.39 4.4-3.23 5.08-11.62.69-8.39-4.4m17.36-72.59c3.23-5.08 11.63-.69 8.39 4.4-3.23 5.08-11.62.69-8.39-4.4m98.41-14.47c-7.15-3.89-.72-13.65 6.44-9.75 7.16 3.93.72 13.68-6.44 9.75m29.96 64.9c3.54-5.59 12.75-.78 9.2 4.83-3.53 5.58-12.76.74-9.2-4.83M91.59 267.07c3.55-5.59 12.75-.76 9.2 4.82-3.53 5.59-12.75.75-9.2-4.82m84.15 26.44c4.56-7.19 16.42-.95 11.86 6.21-4.55 7.21-16.42.98-11.86-6.21m-150.1 31.93c3.24-5.08 11.63-.68 8.39 4.4-3.23 5.08-11.62.69-8.39-4.4m260.7 106.12c7.39 3.46 1.56 13.58-5.82 10.11-7.42-3.5-1.59-13.61 5.82-10.11M261.4 461.2c7.39 3.47 1.55 13.59-5.82 10.12-7.41-3.5-1.59-13.6 5.82-10.12m-74.6-8.8c7.37 3.48 1.55 13.59-5.83 10.12s-1.58-13.6 5.83-10.12m11.08-45.48c7.37 3.49 1.55 13.59-5.83 10.13-7.39-3.5-1.57-13.62 5.83-10.13m31.29 36.34c7.37 3.48 1.55 13.59-5.84 10.12-7.39-3.5-1.57-13.62 5.84-10.12m50.84-55.84c7.37 3.48 1.55 13.59-5.83 10.12-7.39-3.49-1.57-13.61 5.83-10.12m45.04 53.43c7.38 3.49 1.55 13.59-5.83 10.12-7.4-3.48-1.58-13.6 5.83-10.12m29.93-16.8c7.38 3.49 1.56 13.59-5.83 10.12-7.4-3.5-1.58-13.61 5.83-10.12m29.45 13.98c7.38 3.47 1.55 13.58-5.83 10.12-7.4-3.5-1.58-13.61 5.83-10.12m43.38-82.75c7.37 3.49 1.55 13.59-5.83 10.12-7.39-3.5-1.58-13.6 5.83-10.12m27.72 26.35c7.38 3.49 1.56 13.59-5.83 10.13-7.41-3.5-1.57-13.62 5.83-10.13m-46.93 3.88c7.38 3.49 1.55 13.59-5.83 10.12-7.4-3.5-1.58-13.62 5.83-10.12m36.69 49.56c7.37 3.49 1.56 13.59-5.83 10.13-7.39-3.5-1.57-13.61 5.83-10.13M91.89 453c7.39 3.48 1.58 13.58-5.82 10.12-7.4-3.5-1.57-13.59 5.82-10.12m-61.51 30.16c7.37 3.48 1.56 13.59-5.83 10.12-7.39-3.49-1.55-13.61 5.83-10.12m217.75-69.04c-3.2 5.78-12.69 1.52-9.48-4.28 3.18-5.76 12.68-1.48 9.48 4.28m-95.3 61.21c-3.2 5.77-12.69 1.5-9.49-4.28 3.2-5.79 12.69-1.5 9.49 4.28m1.97-49.88c-3.21 5.78-12.69 1.51-9.49-4.28 3.18-5.76 12.68-1.48 9.49 4.28m-27.46 15.4c7.37 3.49 1.55 13.59-5.83 10.12-7.4-3.48-1.58-13.6 5.83-10.12m-96.97-6.15c7.39 3.48 1.58 13.59-5.82 10.12-7.4-3.5-1.56-13.59 5.82-10.12m52.4 42.67c7.37 3.49 1.56 13.6-5.83 10.13-7.39-3.5-1.55-13.61 5.83-10.13m-18.99-29.69c-3.2 5.77-12.69 1.5-9.49-4.29s12.69-1.48 9.49 4.29M94.22 419c-3.22 5.78-12.69 1.51-9.49-4.28 3.18-5.77 12.69-1.48 9.49 4.28m324.95 6.46c-3.19 5.78-12.68 1.5-9.48-4.28 3.2-5.77 12.69-1.48 9.48 4.28m-95.87-20.77c-4.11 7.44-16.32 1.92-12.23-5.51 4.12-7.44 16.37-1.93 12.23 5.51m44.35-7.1c-2.93 5.27-11.59 1.36-8.66-3.9 2.92-5.26 11.55-1.36 8.66 3.9" style="isolation:isolate" fill="#d46a06" opacity=".1"></path><path d="M480.69 343.61s-45.65 2.27-60.87 4.29c-14.13 1.9-42.4 9.49-56.51 11.38-15.55 2.07-44.46 3.98-60.01 6.06-12.46 1.66-39.51 7.23-51.96 8.89-6.84.92-29.02 1.94-35.87 2.84-18.21 2.42-46.13 8.09-64.34 10.52-10.8 1.45-31.17 1.56-41.97 3-15.33 2.05-48.3 10.3-63.64 12.35-11.63 1.57-45.51 4.82-45.51 4.82v-24.73l480.96-84.09-.26 44.67Z" fill="#e60f00"></path><path d="M481.06 316.97s-35.2 6.6-46.93 8.17c-10.58 1.41-32.46 2.52-43.03 3.93-14.47 1.93-42.74 7.52-57.22 9.44-18.03 2.4-54.15 5.21-72.19 7.62-17.43 2.33-52.61 10.84-70.04 13.15-17.48 2.33-52.1 5.15-69.59 7.49-16.3 2.18-48.52 8.84-64.81 11.01-14.23 1.9-57.26 5.28-57.26 5.28v-31.45s40.14-3.49 54.89-5.47c16.18-2.17 50.99-9 67.16-11.18 16.35-2.2 51.11-3.68 67.46-5.88 18.05-2.42 50.91-9.78 68.97-12.21 17.84-2.4 56.47-5.31 74.32-7.72 14.31-1.92 42.8-8.06 57.09-9.99 10.51-1.4 31.52-1.29 42.04-2.71 12.35-1.65 49.42-9.58 49.42-9.58l-.27 30.12Z" class="n" fill="#f5eddd"></path><path d="M500.03 164.12c-18.52-53.84-148.71-75.96-181.14-71.47C226.62 105.44 63.72 170.34 0 208.74v27.96c316.91-45.88 441.99-62.97 458.83-46.41 11.65 11.44 13.87 101.27 5.33 261.39l13.77-1.69c14.81-1.82 22.93-8.47 24.9-26.67 6.11-56.35 18.49-197.31-2.8-259.2" class="n" fill="#f5eddd"></path><path d="M449.53 141.28c71.5-6.81-72.07-56.09-126.66-49.02C125.88 117.75 0 208.74 0 208.74s204.01-44.16 449.53-67.46" fill="#e6ded3"></path><path d="M340.11 135.33c.56 29.35-178.29 32.93-178.81 3.55-.53-29.39 178.32-32.96 178.81-3.55" fill="url(#1770301554875-8720545_c)"></path><path d="M307.26 50.55c18.37 28.39 20.5 64.37-9 81.73-40 23.56-110.03 12.61-121.42-4.98-11.24-17.4 11.02-83.53 49.65-105.84 32.13-18.56 59.21-3.6 80.77 29.09" fill="url(#1770301554875-8720545_d)"></path><path d="M258.73 71.48q-2.69 3.88 2.14 2.9c6.69-1.39 1.61-8.25-2.14-2.9m-24.7 1.01q-2.92 3.73 1.95 2.97c6.76-1.04 2.07-8.16-1.95-2.97m-24.2 5.05q-2.91 3.73 1.96 2.97c6.76-1.06 2.07-8.16-1.96-2.97m-24.88 19.19q-1.34 4.44 2.97 2.16c5.96-3.16-1.08-8.31-2.97-2.16m-4.07 19.72q.05 4.6 3.5 1.29c4.78-4.6-3.56-7.66-3.5-1.29m23.54-13.27q-3.43 3.32 1.49 3.2c6.86-.19 3.27-7.8-1.49-3.2m12.6 30.45q-4.14 2.5.67 3.47c6.69 1.29 5.1-6.95-.67-3.47m11.03-16.23q-4.16 2.51.67 3.45c6.67 1.32 5.1-6.91-.67-3.45m-1.21-21.09q-3.07 3.63 1.83 3.04c6.81-.82 2.41-8.07-1.83-3.04m22.17 18.51q-3.05 3.6 1.84 3.04c6.81-.8 2.41-8.07-1.84-3.04m-.56 17.41q-3.58 3.18 1.33 3.28c6.84.12 3.68-7.68-1.33-3.28m27.6-5.71q-3.58 3.14 1.34 3.25c6.84.15 3.68-7.65-1.34-3.25m-26.06-33.63q-2.02 4.19 2.59 2.51c6.38-2.36.21-8.37-2.59-2.51m41.04 1.95q-2.02 4.2 2.58 2.51c6.38-2.34.2-8.37-2.58-2.51m-18.37 13.75q-2.01 4.22 2.58 2.52c6.39-2.35.21-8.38-2.58-2.52m24.85 6.03q-.56 4.57 3.27 1.63c5.35-4.03-2.52-8-3.27-1.63m11.8-23.68q1.1 4.48 3.71.56c3.64-5.45-5.23-6.78-3.71-.56m-18.57-17.12q-2.52 3.93 2.26 2.76c6.61-1.63 1.25-8.3-2.26-2.76m-18.65 11.73q-2.52 3.96 2.26 2.8c6.63-1.64 1.27-8.29-2.26-2.8m-71.7 36.52q-4.16 2.49.66 3.45c6.7 1.32 5.11-6.9-.66-3.45m22.21-66.92q-2.57 3.95 2.22 2.82c6.63-1.54 1.36-8.29-2.22-2.82M221 34.77q-2.91 3.73 1.98 2.99c6.75-1.03 2.11-8.15-1.98-2.99m43.15-12.82q-4.54 1.79 0 3.5c6.34 2.41 6.34-5.96 0-3.5m-14.46 31.09q-4.08 2.6.78 3.43c6.71 1.13 4.89-7.04-.78-3.43m-9.36-29.72q-4.05 2.6.78 3.43c6.7 1.15 4.91-7.05-.78-3.43m36.49 35.31q-4.31 2.25.43 3.49c6.58 1.69 5.55-6.61-.43-3.49m-8.63-18.69q-4.32 2.25.42 3.49c6.58 1.71 5.56-6.59-.42-3.49m-23.24-3.12q-4.31 2.26.41 3.5c6.62 1.7 5.6-6.61-.41-3.5M202.1 54.99q-.47 4.59 3.32 1.62c5.28-4.1-2.65-7.97-3.32-1.62m-9.5 19.62q-1.47 4.38 2.9 2.2c6.05-3.05-.86-8.31-2.9-2.2" fill="#ea8800"></path><path d="M307.25 17.54c-6.19 11.59 11.19 18.02-5.58 35.81-20.11-6.8-9.19-25.45 5.58-35.81m30.88 47.65c-13.66.11-11.91-17.58-36.1-11.26-2.64 20.18 19.75 19.23 36.1 11.26" class="h" fill="#7ab51d"></path><path d="M283.98 0c-3.04 8.05 6.43 14.85 6.58 29.4 0 0 10.76 11.28 16.98 20.89 6.24 9.61 11.97 23.84 11.97 23.84 13.59 6.64 15.71 17.75 24.61 18.78-14.31 11.92-37.61-8.08-32.83-21.68 0 0-10.69-8.09-9.06-17.83-9.82-2.97-12.66-15.7-12.66-15.7-14.91-2.01-23.18-30.83-5.6-37.69Z" fill="#56ab15"></path><path d="M294.19 14.54c-4.03 6.06 2.74 14.13 1.86 19.08-1.33 7.58-3.4 12.72 6.63 19.52 1.88 11.59 7.64 12.14 15.34 14.42 5.03 1.47 9.58 10.87 17.05 10.13-16.7 19.61-41.64-12.87-33.33-24-14.15 2.14-33.43-33.69-7.56-39.13Z" fill="#449c00"></path><path d="M302.39 49.19c.38 2.54 3.02 3.94 3.02 3.94 17.02-2.24 34.73-17.84 30.19-24.73-8.71-13.17-2.84 15.16-33.21 20.79" class="h" fill="#7ab51d"></path></g></svg>
