<svg xmlns="http://www.w3.org/2000/svg" data-name="Layer 1" style="" viewBox="0 0 512 512.01"><g><defs><radialGradient id="1770301554890-5737225_b" cx="201.94" cy="290.72" r="278.02" fx="201.94" fy="290.72" gradientTransform="matrix(1 0 0 -.98 0 490.11)" gradientUnits="userSpaceOnUse"><stop offset=".4" stop-color="#f5000d"></stop><stop offset=".62" stop-color="#f2010d"></stop><stop offset=".76" stop-color="#ea040e"></stop><stop offset=".88" stop-color="#db0a10"></stop><stop offset=".98" stop-color="#c61213"></stop><stop offset="1" stop-color="#c21413"></stop></radialGradient><radialGradient id="1770301554890-5737225_c" cx="302.12" cy="1810.99" r="119.71" fx="302.12" fy="1810.99" gradientTransform="matrix(1.01559 -.09475 .17246 .98825 -486.38 -1507.14)" gradientUnits="userSpaceOnUse"><stop offset="0" stop-color="#ff7a70"></stop><stop offset="1" stop-color="#ff7a70" stop-opacity="0"></stop></radialGradient><radialGradient id="1770301554890-5737225_d" cx="244.13" cy="356.98" r="138.07" fx="244.13" fy="356.98" gradientTransform="matrix(1 0 0 -1 0 510.01)" gradientUnits="userSpaceOnUse"><stop offset="0" stop-color="#77b516"></stop><stop offset="1" stop-color="#297124"></stop></radialGradient></defs><path d="M369.02 113.27c-58.28-21.86-175.25-17.83-227.13 0C71.73 125.58 0 158.46 0 276.09c0 321.23 512 307.8 512 0 0-117.59-72.29-150.49-142.98-162.83Z" fill="url(#1770301554890-5737225_b)"></path><path d="M254.25 235.78c-11.36-65.08-75.09-112.76-142.29-106.49C44.68 135.54-.6 193.38 10.76 258.48c11.39 65.09 75.12 112.75 142.35 106.5 67.24-6.26 112.52-64.12 101.14-129.2" fill="url(#1770301554890-5737225_c)"></path><path d="M251.72 144.01c-68-67.72-155.57-62.55-118.13-53.14 47.75 12.01 62.89 37.68 75.94 53.72-86.24-15.76-144.28 16.9-147.16 37.07-1.7 11.9 46.11-48.53 166.3-16.81 14.17 3.75 24.07 15.13 38.69 55.73 5.81 16.13 16.05-24.51.98-58.11 101.99-65.39 160.5-23.8 157.5-27.41-6.26-7.5-71.28-42.46-142.5 7.15 29.72-60.59 67.81-56.08 61.4-59.04-10.49-4.85-49.14.55-93.02 60.84" fill="url(#1770301554890-5737225_d)"></path><path d="M193.18 5.39c-18.59 14.45 16.09 12.97 32.48 119.71-51.34 39.14 101.18 30.16 33-2.57C226.97 11.26 216.25-12.54 193.18 5.39" fill="#449c00"></path></g></svg>
