<svg xmlns="http://www.w3.org/2000/svg" data-name="Layer 1" style="" viewBox="0 0 512 512"><g><defs><linearGradient id="1770301555100-5713237_b" x1="256" x2="256" y1="479.87" y2="496.93" gradientTransform="matrix(1 0 0 -1 0 514)" gradientUnits="userSpaceOnUse"><stop offset="0" stop-color="#ab8a59"></stop><stop offset="1" stop-color="#d9a480"></stop></linearGradient><linearGradient id="1770301555100-5713237_c" x1="460.8" x2="494.93" y1="275.07" y2="275.07" gradientTransform="matrix(1 0 0 -1 0 514)" gradientUnits="userSpaceOnUse"><stop offset="0" stop-color="#d9a480"></stop><stop offset="1" stop-color="#ab8a59"></stop></linearGradient><linearGradient id="1770301555100-5713237_d" x1="17.07" x2="51.2" y1="275.07" y2="275.07" gradientTransform="matrix(1 0 0 -1 0 514)" gradientUnits="userSpaceOnUse"><stop offset="0" stop-color="#d9a480"></stop><stop offset="1" stop-color="#ab8a59"></stop></linearGradient><linearGradient id="1770301555100-5713237_e" x1="256" x2="256" y1="2" y2="70.27" gradientTransform="matrix(1 0 0 -1 0 514)" gradientUnits="userSpaceOnUse"><stop offset="0" stop-color="#ab8a59"></stop><stop offset="1" stop-color="#d9a480"></stop></linearGradient></defs><path d="M51.2 82.29h409.6v8.53H51.2zm0 304.76h409.6v8.53H51.2zm0-243.8h409.6v8.53H51.2zm0 60.95h409.6v8.53H51.2zm0 60.95h409.6v8.53H51.2zm0 60.95h409.6v8.53H51.2z" fill="#b3c2c6"></path><path d="M42.67 17.07h426.67v17.07H42.67z" fill="url(#1770301555100-5713237_b)"></path><path d="M460.8 0h34.13v477.87H460.8z" fill="url(#1770301555100-5713237_c)"></path><path d="M17.07 0H51.2v477.87H17.07z" fill="url(#1770301555100-5713237_d)"></path><path d="M77.8 65.22c-18.72 0-18.07 11.38-18.07 21.35s-.66 21.32 18.06 21.32 18.04-11.35 18.04-21.32.67-21.35-18.03-21.35" class="l" fill="#f9c802"></path><path d="M145.36 65.22c-18.71 0-18.06 11.38-18.06 21.35s-.65 21.32 18.06 21.32 18.04-11.35 18.04-21.32.67-21.35-18.04-21.35" class="n" fill="#ffe12c"></path><path d="M181.46 65.22c-18.71 0-18.06 11.38-18.06 21.35s-.66 21.32 18.06 21.32 18.04-11.35 18.04-21.32.67-21.35-18.04-21.35" class="l" fill="#f9c802"></path><path d="M217.58 65.22c-18.71 0-18.07 11.38-18.07 21.35s-.65 21.32 18.07 21.32 18.03-11.35 18.03-21.32.67-21.35-18.03-21.35" class="n" fill="#ffe12c"></path><path d="M253.68 65.22c-18.71 0-18.05 11.38-18.05 21.35s-.67 21.32 18.05 21.32 18.06-11.35 18.06-21.32.67-21.35-18.06-21.35" class="l" fill="#f9c802"></path><path d="M289.8 65.22c-18.71 0-18.07 11.38-18.07 21.35s-.65 21.32 18.07 21.32 18.03-11.35 18.03-21.32.67-21.35-18.03-21.35" class="n" fill="#ffe12c"></path><path d="M325.9 65.22c-18.71 0-18.07 11.38-18.07 21.35s-.65 21.32 18.07 21.32 18.05-11.35 18.05-21.32.67-21.35-18.05-21.35" class="l" fill="#f9c802"></path><path d="M362 65.22c-18.7 0-18.05 11.38-18.05 21.35s-.65 21.32 18.05 21.32 18.05-11.35 18.05-21.32.67-21.35-18.05-21.35" class="n" fill="#ffe12c"></path><path d="M398.11 65.22c-18.71 0-18.07 11.38-18.07 21.35s-.65 21.32 18.07 21.32 18.03-11.35 18.03-21.32.67-21.35-18.03-21.35" class="l" fill="#f9c802"></path><path d="M434.24 65.22c-18.73 0-18.08 11.38-18.08 21.35s-.65 21.32 18.08 21.32 18.03-11.35 18.03-21.32.67-21.35-18.03-21.35" class="n" fill="#ffe12c"></path><path d="M77.8 126.18c-18.72 0-18.07 11.37-18.07 21.35s-.66 21.32 18.06 21.32 18.04-11.37 18.04-21.32c0-9.98.67-21.35-18.03-21.35" class="s" fill="#f59e01"></path><path d="M113.9 126.18c-18.71 0-18.06 11.37-18.06 21.35s-.65 21.32 18.06 21.32 18.04-11.37 18.04-21.32.67-21.35-18.04-21.35" class="r" fill="#ea8800"></path><path d="M181.46 126.18c-18.71 0-18.07 11.37-18.07 21.35s-.65 21.32 18.07 21.32 18.03-11.37 18.03-21.32c0-9.98.67-21.35-18.03-21.35" class="s" fill="#f59e01"></path><path d="M217.57 126.18c-18.71 0-18.05 11.37-18.05 21.35s-.66 21.32 18.05 21.32 18.05-11.37 18.05-21.32.67-21.35-18.05-21.35" class="r" fill="#ea8800"></path><path d="M253.68 126.18c-18.71 0-18.07 11.37-18.07 21.35s-.65 21.32 18.07 21.32 18.06-11.37 18.06-21.32.67-21.35-18.06-21.35" class="s" fill="#f59e01"></path><path d="M289.8 126.18c-18.71 0-18.07 11.37-18.07 21.35s-.65 21.32 18.07 21.32 18.03-11.37 18.03-21.32c0-9.98.67-21.35-18.03-21.35" class="r" fill="#ea8800"></path><path d="M325.9 126.18c-18.71 0-18.07 11.37-18.07 21.35s-.65 21.32 18.07 21.32 18.05-11.37 18.05-21.32c0-9.98.67-21.35-18.05-21.35" class="s" fill="#f59e01"></path><path d="M362 126.18c-18.7 0-18.05 11.37-18.05 21.35s-.65 21.32 18.05 21.32 18.05-11.37 18.05-21.32c0-9.98.67-21.35-18.05-21.35" class="r" fill="#ea8800"></path><path d="M398.11 126.18c-18.71 0-18.07 11.37-18.07 21.35s-.65 21.32 18.07 21.32 18.03-11.37 18.03-21.32c0-9.98.67-21.35-18.03-21.35" class="s" fill="#f59e01"></path><path d="M434.24 126.18c-18.73 0-18.08 11.37-18.08 21.35s-.65 21.32 18.08 21.32 18.03-11.37 18.03-21.32.67-21.35-18.03-21.35" class="r" fill="#ea8800"></path><path d="M77.8 187.14c-18.72 0-18.07 11.38-18.07 21.35s-.66 21.32 18.06 21.32 18.04-11.35 18.04-21.32.67-21.35-18.03-21.35" class="q" fill="#ff1c23"></path><path d="M113.9 187.14c-18.71 0-18.06 11.38-18.06 21.35s-.65 21.32 18.06 21.32 18.04-11.35 18.04-21.32.67-21.35-18.04-21.35" class="m" fill="#e30007"></path><path d="M150.02 187.14c-18.71 0-18.06 11.38-18.06 21.35s-.66 21.32 18.06 21.32 18.04-11.35 18.04-21.32.67-21.35-18.04-21.35m67.55 0c-18.71 0-18.05 11.38-18.05 21.35s-.66 21.32 18.05 21.32 18.05-11.35 18.05-21.32.67-21.35-18.05-21.35" class="q" fill="#ff1c23"></path><path d="M253.68 187.14c-18.71 0-18.07 11.38-18.07 21.35s-.65 21.32 18.07 21.32 18.06-11.35 18.06-21.32.67-21.35-18.06-21.35" class="m" fill="#e30007"></path><path d="M289.8 187.14c-18.71 0-18.07 11.38-18.07 21.35s-.65 21.32 18.07 21.32 18.03-11.35 18.03-21.32.67-21.35-18.03-21.35" class="q" fill="#ff1c23"></path><path d="M325.9 187.14c-18.71 0-18.07 11.38-18.07 21.35s-.65 21.32 18.07 21.32 18.05-11.35 18.05-21.32.67-21.35-18.05-21.35" class="m" fill="#e30007"></path><path d="M362 187.14c-18.7 0-18.05 11.38-18.05 21.35s-.65 21.32 18.05 21.32 18.05-11.35 18.05-21.32.67-21.35-18.05-21.35" class="q" fill="#ff1c23"></path><path d="M398.11 187.14c-18.71 0-18.07 11.38-18.07 21.35s-.65 21.32 18.07 21.32 18.03-11.35 18.03-21.32.67-21.35-18.03-21.35" class="m" fill="#e30007"></path><path d="M434.24 187.14c-18.73 0-18.08 11.38-18.08 21.35s-.65 21.32 18.08 21.32 18.03-11.35 18.03-21.32.67-21.35-18.03-21.35" class="q" fill="#ff1c23"></path><path d="M77.8 248.1c-18.72 0-18.07 11.37-18.07 21.35s-.66 21.32 18.06 21.32 18.04-11.37 18.04-21.32c0-9.98.67-21.35-18.03-21.35" class="v" fill="#a71dde"></path><path d="M113.9 248.1c-18.71 0-18.06 11.37-18.06 21.35s-.65 21.32 18.06 21.32 18.04-11.37 18.04-21.32.67-21.35-18.04-21.35" class="w" fill="#bc2af7"></path><path d="M150.02 248.1c-18.71 0-18.06 11.37-18.06 21.35s-.66 21.32 18.06 21.32 18.04-11.37 18.04-21.32.67-21.35-18.04-21.35" class="v" fill="#a71dde"></path><path d="M186.12 248.1c-18.71 0-18.06 11.37-18.06 21.35s-.65 21.32 18.06 21.32 18.04-11.37 18.04-21.32c0-9.98.67-21.35-18.04-21.35m67.56 0c-18.71 0-18.07 11.37-18.07 21.35s-.65 21.32 18.07 21.32 18.06-11.37 18.06-21.32.67-21.35-18.06-21.35" class="w" fill="#bc2af7"></path><path d="M289.8 248.1c-18.71 0-18.07 11.37-18.07 21.35s-.65 21.32 18.07 21.32 18.03-11.37 18.03-21.32c0-9.98.67-21.35-18.03-21.35" class="v" fill="#a71dde"></path><path d="M325.9 248.1c-18.71 0-18.07 11.37-18.07 21.35s-.65 21.32 18.07 21.32 18.05-11.37 18.05-21.32c0-9.98.67-21.35-18.05-21.35" class="w" fill="#bc2af7"></path><path d="M362 248.1c-18.7 0-18.05 11.37-18.05 21.35s-.65 21.32 18.05 21.32 18.05-11.37 18.05-21.32c0-9.98.67-21.35-18.05-21.35" class="v" fill="#a71dde"></path><path d="M398.11 248.1c-18.71 0-18.07 11.37-18.07 21.35s-.65 21.32 18.07 21.32 18.03-11.37 18.03-21.32c0-9.98.67-21.35-18.03-21.35" class="w" fill="#bc2af7"></path><path d="M434.24 248.1c-18.73 0-18.08 11.37-18.08 21.35s-.65 21.32 18.08 21.32 18.03-11.37 18.03-21.32.67-21.35-18.03-21.35" class="v" fill="#a71dde"></path><path d="M77.8 309.05c-18.72 0-18.07 11.38-18.07 21.35s-.66 21.32 18.06 21.32 18.04-11.35 18.04-21.32.67-21.35-18.03-21.35" class="u" fill="#018bc9"></path><path d="M113.9 309.05c-18.71 0-18.06 11.38-18.06 21.35s-.65 21.32 18.06 21.32 18.04-11.35 18.04-21.32.67-21.35-18.04-21.35" class="o" fill="#006dae"></path><path d="M150.02 309.05c-18.71 0-18.06 11.38-18.06 21.35s-.66 21.32 18.06 21.32 18.04-11.35 18.04-21.32.67-21.35-18.04-21.35" class="u" fill="#018bc9"></path><path d="M186.12 309.05c-18.71 0-18.06 11.38-18.06 21.35s-.65 21.32 18.06 21.32 18.04-11.35 18.04-21.32.67-21.35-18.04-21.35" class="o" fill="#006dae"></path><path d="M222.23 309.05c-18.71 0-18.06 11.38-18.06 21.35s-.66 21.32 18.06 21.32 18.05-11.35 18.05-21.32.67-21.35-18.05-21.35m67.57 0c-18.71 0-18.07 11.38-18.07 21.35s-.65 21.32 18.07 21.32 18.03-11.35 18.03-21.32.67-21.35-18.03-21.35" class="u" fill="#018bc9"></path><path d="M325.9 309.05c-18.71 0-18.07 11.38-18.07 21.35s-.65 21.32 18.07 21.32 18.05-11.35 18.05-21.32.67-21.35-18.05-21.35" class="o" fill="#006dae"></path><path d="M362 309.05c-18.7 0-18.05 11.38-18.05 21.35s-.65 21.32 18.05 21.32 18.05-11.35 18.05-21.32.67-21.35-18.05-21.35" class="u" fill="#018bc9"></path><path d="M398.11 309.05c-18.71 0-18.07 11.38-18.07 21.35s-.65 21.32 18.07 21.32 18.03-11.35 18.03-21.32.67-21.35-18.03-21.35" class="o" fill="#006dae"></path><path d="M434.24 309.05c-18.73 0-18.08 11.38-18.08 21.35s-.65 21.32 18.08 21.32 18.03-11.35 18.03-21.32.67-21.35-18.03-21.35" class="u" fill="#018bc9"></path><path d="M77.8 370.01c-18.72 0-18.07 11.37-18.07 21.35s-.66 21.32 18.06 21.32 18.04-11.37 18.04-21.32c0-9.98.67-21.35-18.03-21.35" class="t" fill="#529320"></path><path d="M113.9 370.01c-18.71 0-18.06 11.37-18.06 21.35s-.65 21.32 18.06 21.32 18.04-11.37 18.04-21.32.67-21.35-18.04-21.35" class="k" fill="#7ab51d"></path><path d="M150.02 370.01c-18.71 0-18.06 11.37-18.06 21.35s-.66 21.32 18.06 21.32 18.04-11.37 18.04-21.32.67-21.35-18.04-21.35" class="t" fill="#529320"></path><path d="M186.12 370.01c-18.71 0-18.06 11.37-18.06 21.35s-.65 21.32 18.06 21.32 18.04-11.37 18.04-21.32c0-9.98.67-21.35-18.04-21.35" class="k" fill="#7ab51d"></path><path d="M222.23 370.01c-18.71 0-18.06 11.37-18.06 21.35s-.66 21.32 18.06 21.32 18.05-11.37 18.05-21.32c0-9.98.67-21.35-18.05-21.35" class="t" fill="#529320"></path><path d="M258.35 370.01c-18.71 0-18.07 11.37-18.07 21.35s-.65 21.32 18.07 21.32 18.04-11.37 18.04-21.32.67-21.35-18.04-21.35m67.55 0c-18.71 0-18.07 11.37-18.07 21.35s-.65 21.32 18.07 21.32 18.05-11.37 18.05-21.32c0-9.98.67-21.35-18.05-21.35" class="k" fill="#7ab51d"></path><path d="M362 370.01c-18.7 0-18.05 11.37-18.05 21.35s-.65 21.32 18.05 21.32 18.05-11.37 18.05-21.32c0-9.98.67-21.35-18.05-21.35" class="t" fill="#529320"></path><path d="M398.11 370.01c-18.71 0-18.07 11.37-18.07 21.35s-.65 21.32 18.07 21.32 18.03-11.37 18.03-21.32c0-9.98.67-21.35-18.03-21.35" class="k" fill="#7ab51d"></path><path d="M434.24 370.01c-18.73 0-18.08 11.37-18.08 21.35s-.65 21.32 18.08 21.32 18.03-11.37 18.03-21.32.67-21.35-18.03-21.35" class="t" fill="#529320"></path><path d="M480.03 477.87c-.05-7.1-.1-14.31-.1-21.79 0-76.25 2.65-138.09 5.91-138.07 3.27-.03 5.9 61.81 5.9 138.09.02 7.51-.03 14.69-.1 21.77h3.29L494.91 0h-16.72c1.1 33.95 1.75 73.58 1.73 116.16.02 124.62-5.42 225.62-12.1 225.63-1.72 0-3.34-6.68-4.83-18.67-.05 57.64-.89 110.55-2.2 154.74h19.23ZM31.97 0c.05 7.1.09 14.31.09 21.79 0 76.25-2.64 138.09-5.91 138.07-3.25.03-5.9-61.81-5.9-138.09 0-7.51.03-14.69.1-21.77h-3.29v477.87h16.73c-1.1-33.95-1.76-73.58-1.74-116.16-.02-124.62 5.41-225.62 12.1-225.63 1.71 0 3.34 6.68 4.83 18.67.08-57.64.9-110.55 2.22-154.74H31.97Z" class="p" style="isolation:isolate" fill="#805543" opacity=".15"></path><path d="M0 443.73h512V512H0z" fill="url(#1770301555100-5713237_e)"></path><path d="M0 462.66v28.91c50.11-1.68 110.71-2.71 176.58-2.71 170.63.02 308.95 6.72 308.97 14.98-.02 2.36-11.28 4.6-31.28 6.58 20.58.34 39.85.9 57.74 1.58v-25.34c-38.42 1.38-82.92 2.18-130.59 2.19-144.03 0-260.8-7.18-260.8-16.04s116.76-16.04 260.8-16.03c47.68 0 92.15.8 130.59 2.18v-15.22H246.27c-11.28 11.53-88.77 20.45-182.77 20.45-22.44 0-43.67-.58-63.51-1.53Z" class="p" style="isolation:isolate" fill="#805543" opacity=".15"></path></g></svg>
