<svg xmlns="http://www.w3.org/2000/svg" id="a" data-name="Layer 1" viewBox="0 0 512 511.99"><defs><radialGradient id="b" cx="-166.32" cy="-199.61" r="323.33" fx="-166.32" fy="-199.61" gradientTransform="rotate(135 147.36 46.529)scale(-1 .65)" gradientUnits="userSpaceOnUse"><stop offset="0" stop-color="#c25b2e"/><stop offset=".32" stop-color="#bf592d"/><stop offset=".58" stop-color="#b55328"/><stop offset=".82" stop-color="#a44921"/><stop offset=".93" stop-color="#99431d"/></radialGradient><radialGradient id="c" cx="178.59" cy="233.53" r="209.9" fx="178.59" fy="233.53" gradientTransform="matrix(1 0 0 -1 -10.14 542.81)" gradientUnits="userSpaceOnUse"><stop offset=".27" stop-color="#fafdff"/><stop offset=".49" stop-color="#f7fafc"/><stop offset=".67" stop-color="#edf2f4"/><stop offset=".84" stop-color="#dce3e7"/><stop offset=".93" stop-color="#cfd8dd"/></radialGradient><radialGradient id="d" cx="325.43" cy="427.66" r="184.9" fx="325.43" fy="427.66" gradientTransform="matrix(1 0 0 -1 -10.14 542.81)" gradientUnits="userSpaceOnUse"><stop offset=".27" stop-color="#fafdff"/><stop offset=".49" stop-color="#f7fafc"/><stop offset=".67" stop-color="#edf2f4"/><stop offset=".84" stop-color="#dce3e7"/><stop offset=".93" stop-color="#cfd8dd"/></radialGradient></defs><path d="M488.49 259s-10.9-55.37 18.29-74.74c12.31-79.44 1.14-146.64-15.67-163.4C474.36 4.09 407.19-7.08 327.75 5.23c-36.69 33.94-74.73 18.25-74.73 18.25C201.91 40.82 150.53 69 107.69 112.29c-39.34 39.74-65.66 86.2-82.48 132.76 16.89 43.1-19.39 74.38-19.39 74.38-13.67 81.98-1.28 152.32 16.58 170.18 17.84 17.85 88.18 30.24 170.18 16.56 0 0 38.32-29.2 74.34-19.38 46.55-16.83 93.01-43.14 132.75-82.47 43.29-42.84 71.48-94.2 88.81-145.31Z" style="fill:url(#b)"/><path d="M122.68 389.28c-43.77-43.8-77.13-93.65-97.46-144.24-9.08 25.12-15.38 50.24-19.39 74.38 21.72 37 49.18 72.63 81.65 105.08 32.46 32.49 68.07 59.94 105.1 81.66 24.12-4.03 49.23-10.32 74.34-19.38-50.59-20.33-100.44-53.68-144.25-97.5Z" style="fill:url(#c)"/><path d="M488.49 259c8.62-25.35 14.54-50.59 18.29-74.74-21.28-35.28-47.75-69.21-78.8-100.29-31.04-31.03-64.94-57.49-100.22-78.74-24.14 3.74-49.37 9.66-74.73 18.25 49.05 20.49 97.24 53.21 139.73 95.73 42.53 42.52 75.26 90.74 95.73 139.8Z" style="fill:url(#d)"/><path d="M22.43 489.58c-7.75-151.3 313-478.17 468.66-468.72C345.38 31.84 32.23 357.15 22.43 489.58" style="fill:#1a1626;isolation:isolate;opacity:.2"/><path d="M297.99 118.53c-63.58 54.38-122.49 115.44-176.87 179.03-3.25 3.81-17.83-8.81-14.55-12.67 54.96-64.26 114.5-125.93 178.75-180.9 3.87-3.31 16.49 11.29 12.67 14.55Z" style="fill:#f2f5f7"/><path d="M308.55 129.09c-63.57 54.38-122.49 115.44-176.88 179.03-3.23 3.8-17.83-8.81-14.53-12.68 54.95-64.26 114.49-125.92 178.75-180.9 3.87-3.31 16.48 11.31 12.66 14.55" style="fill:#e6ebef"/><path d="M256.84 104.1c18.76 15.92 36.62 33.71 52.51 52.51 2.36 2.99 12.39-14.69 9.42-18.43-16.89-19.94-23.56-26.63-43.5-43.51-3.73-2.94-21.44 7.08-18.43 9.44Zm-45.93 36.77c17.06 14.88 39.68 37.53 54.58 54.58 2.22 2.63 15.47-12.56 12.78-15.68a564 564 0 0 0-51.65-51.69c-3.13-2.66-18.36 10.56-15.71 12.8Zm-42.33 41.24c15.3 15.29 40.39 40.38 55.65 55.67 2.33 2.31 17.4-12.76 15.09-15.09-15.27-15.28-40.38-40.37-55.65-55.65-2.31-2.31-17.4 12.76-15.08 15.07Zm-38.97 42.95a564 564 0 0 0 51.69 51.69c3.11 2.65 18.32-10.57 15.69-12.79-17.04-14.92-39.7-37.53-54.58-54.59-2.21-2.63-15.46 12.56-12.8 15.69m-33.39 48.69c16.87 19.93 23.55 26.62 43.49 43.49 3.74 2.94 21.43-7.06 18.44-9.41-18.8-15.91-36.59-33.77-52.52-52.54-2.35-2.99-12.35 14.71-9.41 18.46" style="fill:#fff"/></svg>