<svg xmlns="http://www.w3.org/2000/svg" data-name="Layer 1" style="" viewBox="0 0 512 511.99"><g><defs><linearGradient id="1770301555106-6405145_b" x1="67.94" x2="263.15" y1="210.51" y2="210.51" gradientTransform="matrix(1 0 0 -1 0 513.99)" gradientUnits="userSpaceOnUse"><stop offset="0" stop-color="#ffadc6"></stop><stop offset=".23" stop-color="#ff7393"></stop><stop offset=".68" stop-color="#ff7393"></stop><stop offset="1" stop-color="#e36b8f"></stop></linearGradient><linearGradient id="1770301555106-6405145_c" x1="159" x2="159" y1="143.61" y2="369.04" gradientTransform="matrix(1 0 0 -1 0 513.99)" gradientUnits="userSpaceOnUse"><stop offset="0" stop-color="#e3c0b1"></stop><stop offset=".13" stop-color="#e9cabd"></stop><stop offset=".45" stop-color="#f5ddd5"></stop><stop offset=".75" stop-color="#fce8e3"></stop><stop offset="1" stop-color="#ffece8"></stop></linearGradient><linearGradient id="1770301555106-6405145_d" x1="286.19" x2="491.06" y1="204.43" y2="204.43" gradientTransform="matrix(1 0 0 -1 0 513.99)" gradientUnits="userSpaceOnUse"><stop offset="0" stop-color="#ffadc6"></stop><stop offset=".23" stop-color="#ff7393"></stop><stop offset=".68" stop-color="#ff7393"></stop><stop offset="1" stop-color="#e36b8f"></stop></linearGradient><linearGradient id="1770301555106-6405145_e" x1="358.09" x2="358.09" y1="106.25" y2="372.94" gradientTransform="matrix(1 0 0 -1 0 513.99)" gradientUnits="userSpaceOnUse"><stop offset="0" stop-color="#e3c0b1"></stop><stop offset=".13" stop-color="#e9cabd"></stop><stop offset=".45" stop-color="#f5ddd5"></stop><stop offset=".75" stop-color="#fce8e3"></stop><stop offset="1" stop-color="#ffece8"></stop></linearGradient><linearGradient id="1770301555106-6405145_f" x1="286.19" x2="491.06" y1="343.39" y2="343.39" gradientTransform="matrix(1 0 0 -1 0 513.99)" gradientUnits="userSpaceOnUse"><stop offset="0" stop-color="#ffadc6"></stop><stop offset=".23" stop-color="#ff7393"></stop><stop offset=".68" stop-color="#ff7393"></stop><stop offset="1" stop-color="#e36b8f"></stop></linearGradient><linearGradient id="1770301555106-6405145_g" x1="257" x2="422.39" y1="367.26" y2="367.26" gradientTransform="matrix(1 0 0 -1 0 513.99)" gradientUnits="userSpaceOnUse"><stop offset="0" stop-color="#ffadc6"></stop><stop offset=".23" stop-color="#ff7393"></stop><stop offset=".68" stop-color="#ff7393"></stop><stop offset="1" stop-color="#e36b8f"></stop></linearGradient><linearGradient id="1770301555106-6405145_h" x1="84" x2="174.76" y1="352.48" y2="352.48" gradientTransform="matrix(1 0 0 -1 0 513.99)" gradientUnits="userSpaceOnUse"><stop offset="0" stop-color="#ffadc6"></stop><stop offset=".23" stop-color="#ff7393"></stop><stop offset=".68" stop-color="#ff7393"></stop><stop offset="1" stop-color="#e36b8f"></stop></linearGradient><linearGradient id="1770301555106-6405145_i" x1="0" x2="175.04" y1="358.78" y2="358.78" gradientTransform="matrix(1 0 0 -1 0 513.99)" gradientUnits="userSpaceOnUse"><stop offset="0" stop-color="#ffadc6"></stop><stop offset=".23" stop-color="#ff7393"></stop><stop offset=".68" stop-color="#ff7393"></stop><stop offset="1" stop-color="#e36b8f"></stop></linearGradient></defs><path d="M247.29 123.71c25.04 30.33 17.54 76.45-2.48 110.3-19.08 32.23-41.43 76.87-39.08 105.72 4.05 49.55-14.97 85.89-39.33 146.43-10.12 25.16-27.73 25.4-51.43 25.4-29.64 0-35.57-20.55-39.68-40.69-6.19-30.28-13.3-84.21 1-131.14 17.84-58.64 74.3-178.72 91.82-215.49 23.88-46.68 57.47-29.15 79.18-.53" fill="url(#1770301555106-6405145_b)"></path><path d="M176.59 117.7c-.26.33-60.38 127.43-85.33 196.17-12.47 34.36-4.09 48.93 7.43 54.89 12.57 6.49 112.13-197.58 128.15-231.89 10.7-22.95-16.12-60.22-50.25-19.17" class="s" fill="#edbab2"></path><path d="M222.36 145.97c-9.63-4.68-32.43 7.88-38.66 16.31-31.86 42.98-3.9 58.85-85.33 196.17-1.61 2.71-1.95 5.74-2.73 8.42 9.25 6.81 31.27 3.46 39.43-8.07 38.23-49.25 36.36-117.01 87.29-212.83" fill="url(#1770301555106-6405145_c)"></path><path d="M172.6 127.21c-18.3 56.17-92.36 198.19-85.45 223.54 9.2 33.77 40.28 15.49 52.83-3.3 34.6-51.82 34.27-118.19 62.75-173.34 8.95-17.31 39.33-53.49 12.63-70.58-16.43-10.5-39.87 14.76-42.76 23.68m3.66-9.77c26.67-37.43 63.45-15.47 52.02 23.79-9.35 32.11-30.2 61.16-40.06 93.8-10.16 33.59-15.25 68.51-33.35 99.17-11.3 19.16-32.05 51.22-58.26 34.67-27.31-17.25-4.95-63.04 3.18-85.2 21.09-57.49 49.79-111.28 76.47-166.23" class="r" fill="#fdd1c8"></path><path d="M292.34 141.32c-20.48 52.29.93 121.59-5.87 205.73-1.47 18.16-1.1 36.44 1.45 54.49 6.02 42.79 20.3 111.47 49.9 110.43 41.27-1.47 70.28 10.82 86.38-113.96 18.71-144.99-45.9-292.09-84.48-290.73-.02 0-32.25-4.57-47.38 34.03Z" fill="url(#1770301555106-6405145_d)"></path><path d="M328.99 119.73s-59.12-1.47-32.08 150.91c25.39 143.07 57.53 152.51 85.43 126.48 31.07-29.02 34.52-86.38 18.76-168.99-19.13-100.4-40.69-109.5-72.11-108.4" class="s" fill="#edbab2"></path><path d="M410.22 313.81c-18.34-65.94-25.78-119.58-29.28-137.14-10.67-53.6-73.4-42.59-74.93 5.6-1 31.04 14.93 106.93 15.09 183.14 17.55 55.18 78.35 73.3 89.11-51.6Z" fill="url(#1770301555106-6405145_e)"></path><path d="M328.99 120.16c-53.03 5.68-34.81 105.68-30.3 138.07 4.53 32.35 15.95 149.46 64.68 146.96 48.48-2.48 48.96-115.9 39.88-155.51-13.88-60.6-14.7-134.35-74.26-129.51Zm1.21-4.47c57.21-4.68 74.68 100.15 80.85 145.86 4.42 32.75 6.9 69.07-3.98 100.91-6.87 20.13-26.07 52.3-51.97 47.41-40.38-7.68-53.21-97.75-59.82-129.95-7.49-36.54-26.11-157.33 34.92-164.24Z" class="r" fill="#fdd1c8"></path><path d="m512 76.76-23.47-25.58V34.12s-81.08 1.6-83.02 108.55c-.9 49.77-77.51 71.98-116.56 114.28a689 689 0 0 0 6.89 50.11c25.77-52.61 63.78-72.64 89.14-92.27 27.12-21.01 33.98-55.06 37.4-86.84 5.38-49.98 89.61-51.19 89.61-51.19Z" fill="url(#1770301555106-6405145_f)"></path><path d="M411.6 247.37c-49.82-11.4-116.81-52.51-122.36-144.39-2.91-48.27 47.82-94.45 47.82-94.45l-27.73 8.53L300.8-.01S144.53 160.98 422.4 293.43c-.3-6.7-2.33-44.95-10.79-46.07Z" fill="url(#1770301555106-6405145_g)"></path><path d="m162.13 17.07-9.83 25.58-25.6-8.52c11.61 48.49 32.54 110.02 10.18 143.4-18.97 28.3-72.18 31.81-45.57 128.41 6.08-17.01 12.71-33.9 19.63-50.58-5.03-25.06 20.86-45.16 31.96-57.24 11.28-12.28 25.62-23.78 30.15-59.5 5.79-45.37-4.51-76.9-10.93-121.54Z" fill="url(#1770301555106-6405145_h)"></path><path d="M155.66 228.91c-17.15-20-39.85-29.64-59.58-46.09C79 168.54 57.6 162.06 48.9 128.58 41 98.15 47.12 41.18 42.66 0l-19.2 25.6L0 0c5.7 45.73 16.33 103.02 25.6 136.48 13.87 50.1 46.6 55.35 72.11 79.59 25.53 24.28 58.33 57.03 61.03 94.35 6.72-17.37 11.58-35.53 16.3-53.8-5.27-9.22-11.65-18.68-19.38-27.71-5.48-6.41 7.73 9.03 0 0" fill="url(#1770301555106-6405145_i)"></path></g></svg>
