<svg xmlns="http://www.w3.org/2000/svg" data-name="Layer 1" style="" viewBox="0 0 512 460.79"><g><defs><linearGradient id="1770301555107-7133676_b" x1="0" x2="512" y1="322.09" y2="322.09" gradientTransform="matrix(1 0 0 -1 0 456.79)" gradientUnits="userSpaceOnUse"><stop offset=".25" stop-color="#e6ebed"></stop><stop offset=".7" stop-color="#e4e9ec"></stop><stop offset=".87" stop-color="#dde4e7"></stop><stop offset=".98" stop-color="#d2dadf"></stop><stop offset="1" stop-color="#cfd8dd"></stop></linearGradient><linearGradient id="1770301555107-7133676_c" x1="257.22" x2="257.22" y1="252.48" y2="397.54" gradientTransform="matrix(1 0 0 -1 0 456.79)" gradientUnits="userSpaceOnUse"><stop offset="0" stop-color="#4e5e67"></stop><stop offset=".04" stop-color="#5b6a72"></stop><stop offset=".19" stop-color="#859198"></stop><stop offset=".35" stop-color="#a8b1b7"></stop><stop offset=".51" stop-color="#c3cbd0"></stop><stop offset=".67" stop-color="#d7dde1"></stop><stop offset=".83" stop-color="#e2e7ec"></stop><stop offset="1" stop-color="#e6ebef"></stop></linearGradient></defs><path d="M455.26 419.94c-126.93 48.43-269.14 48.43-396.06 0-14.36-86.43-28.71-172.86-43.06-259.3 154.52 58.96 327.65 58.95 482.17 0-14.34 86.44-28.71 172.87-43.05 259.3" class="i" fill="#8c6143"></path><path d="M230.29 392.91c.18 8.36.37 16.73.55 25.1 17.61 2.9 35.18 4.98 52.62 6.28.18-8.37.37-16.75.55-25.11-17.8-1.28-35.74-3.35-53.73-6.26ZM337.83 388c-.55 8.4-1.11 16.81-1.66 25.2 17.31-.29 34.43-1.38 51.3-3.25.91-8.47 1.83-16.93 2.75-25.42a566 566 0 0 1-52.39 3.47m-214.29-9.83c.91 8.47 1.83 16.94 2.75 25.42a629 629 0 0 0 52.41 15.91c-.55-8.4-1.11-16.81-1.66-25.22-17.87-4.52-35.72-9.9-53.5-16.12Z" class="g" fill="#d6a57c"></path><path d="M230.85 418.01c-17.54 1.3-34.94 1.79-52.15 1.5-.55-8.4-1.11-16.81-1.66-25.22 17.59.35 35.35-.12 53.25-1.38.18 8.36.37 16.73.55 25.1Z" class="j" fill="#c4926e"></path><path d="M50.78 383.38c8.44 4.3 16.92 8.35 25.45 12.23-1.27-8.58-2.55-17.15-3.82-25.74-8.7-3.93-17.36-8.04-25.98-12.39 1.45 8.64 2.9 17.28 4.35 25.9" class="g" fill="#d6a57c"></path><path d="M126.29 403.59a533 533 0 0 1-50.06-8c-1.27-8.58-2.55-17.15-3.82-25.74 16.75 3.57 33.82 6.33 51.14 8.3.91 8.48 1.83 16.95 2.75 25.43Z" class="j" fill="#c4926e"></path><path d="M468.03 357.48c-8.25 2.17-16.59 4.17-25.02 5.96-1.27 8.59-2.55 17.14-3.82 25.73a485 485 0 0 0 24.49-5.79c1.45-8.62 2.9-17.26 4.35-25.9" class="g" fill="#d6a57c"></path><path d="M439.19 389.16a640 640 0 0 1-51.72 20.79c.91-8.47 1.83-16.93 2.75-25.42a654 654 0 0 0 52.8-21.09c-1.27 8.6-2.55 17.15-3.82 25.73Zm-103.02 24.03c-17.59 4.51-35.17 8.2-52.7 11.1.18-8.37.37-16.75.55-25.11a628 628 0 0 0 53.81-11.19c-.55 8.4-1.11 16.8-1.66 25.2" class="j" fill="#c4926e"></path><path d="M228.91 330.12c.18 8.37.37 16.73.55 25.11 18.55 2.92 37.03 5.03 55.4 6.27.18-8.36.38-16.75.55-25.11a645 645 0 0 1-56.5-6.27m113.07-5.18c-.55 8.41-1.11 16.82-1.66 25.22 18.23-.43 36.26-1.69 54.03-3.75.91-8.47 1.83-16.94 2.75-25.42a593 593 0 0 1-55.12 3.96Zm-225.32-10.31c.91 8.47 1.83 16.95 2.75 25.41a653 653 0 0 0 55.14 16.44c-.55-8.4-1.11-16.8-1.66-25.21a672 672 0 0 1-56.23-16.64" class="g" fill="#d6a57c"></path><path d="M229.46 355.24a609 609 0 0 1-54.91 1.24c-.55-8.4-1.11-16.8-1.66-25.21 18.5.46 37.19.09 56.01-1.14.19 8.37.38 16.73.55 25.11Z" class="j" fill="#c4926e"></path><path d="M39.89 318.62a677 677 0 0 0 26.77 12.67c-1.27-8.58-2.55-17.15-3.82-25.72-9.14-4.07-18.24-8.35-27.29-12.88 1.44 8.64 2.89 17.28 4.34 25.92Z" class="g" fill="#d6a57c"></path><path d="M119.41 340.04a554 554 0 0 1-52.75-8.74c-1.27-8.58-2.55-17.15-3.82-25.72 17.63 3.84 35.6 6.88 53.83 9.05.91 8.46 1.83 16.94 2.75 25.4Z" class="j" fill="#c4926e"></path><path d="M478.91 292.7c-8.7 2.36-17.48 4.5-26.33 6.44-1.27 8.58-2.55 17.13-3.82 25.72 8.69-1.87 17.29-3.97 25.8-6.24 1.45-8.65 2.9-17.3 4.35-25.92" class="g" fill="#d6a57c"></path><path d="M448.75 324.86a667 667 0 0 1-54.4 21.54c.91-8.47 1.83-16.94 2.75-25.42 18.6-6.4 37.11-13.68 55.47-21.85-1.27 8.6-2.55 17.14-3.82 25.73m-108.43 25.3a649 649 0 0 1-55.47 11.35c.18-8.36.38-16.75.55-25.11 18.82-2.94 37.7-6.75 56.57-11.45-.55 8.41-1.11 16.82-1.66 25.22Z" class="j" fill="#c4926e"></path><path d="M227.52 267.34c.19 8.35.38 16.74.55 25.1 19.46 2.99 38.88 5.07 58.17 6.28.18-8.38.37-16.74.55-25.1-19.64-1.19-39.43-3.29-59.27-6.28m118.61-5.42c-.55 8.41-1.11 16.81-1.66 25.21 19.14-.55 38.09-1.97 56.76-4.27.91-8.46 1.83-16.95 2.75-25.42a617 617 0 0 1-57.86 4.48ZM109.78 251.1q1.365 12.705 2.76 25.41a692 692 0 0 0 57.86 16.94c-.55-8.41-1.11-16.82-1.66-25.22-19.7-4.81-39.37-10.5-58.96-17.13" class="g" fill="#d6a57c"></path><path d="M228.07 292.44a636 636 0 0 1-57.68 1c-.55-8.41-1.11-16.82-1.66-25.22 19.41.59 39.03.3 58.78-.89.19 8.36.38 16.74.55 25.1Z" class="j" fill="#c4926e"></path><path d="M29.02 253.84A734 734 0 0 0 57.09 267c-1.27-8.59-2.55-17.16-3.82-25.74-9.57-4.2-19.11-8.66-28.6-13.34 1.45 8.64 2.9 17.27 4.35 25.92" class="g" fill="#d6a57c"></path><path d="M112.53 276.5c-18.77-2.3-37.27-5.48-55.44-9.5-1.27-8.59-2.55-17.16-3.82-25.74 18.53 4.14 37.38 7.42 56.51 9.82q1.365 12.72 2.76 25.41Z" class="j" fill="#c4926e"></path><path d="M489.78 227.93c-9.12 2.53-18.34 4.83-27.64 6.91-1.28 8.58-2.55 17.16-3.83 25.74a604 604 0 0 0 27.13-6.72c1.45-8.65 2.9-17.29 4.34-25.92Z" class="g" fill="#d6a57c"></path><path d="M458.31 260.57a697 697 0 0 1-57.07 22.29c.91-8.46 1.83-16.95 2.75-25.42a714 714 0 0 0 58.15-22.6c-1.28 8.58-2.55 17.16-3.83 25.74Zm-113.84 26.55a674 674 0 0 1-58.22 11.6c.18-8.38.37-16.74.55-25.1 19.75-3 39.55-6.89 59.33-11.7-.55 8.41-1.1 16.81-1.66 25.21Z" class="j" fill="#c4926e"></path><path d="M226.13 204.56c.18 8.36.37 16.75.55 25.1 20.39 3.03 40.73 5.12 60.94 6.28.18-8.36.37-16.75.55-25.11a700 700 0 0 1-62.04-6.27m124.15-5.67c-.55 8.39-1.11 16.81-1.66 25.22 20.06-.68 39.92-2.29 59.5-4.79.91-8.48 1.83-16.94 2.75-25.42a651 651 0 0 1-60.59 4.99m-247.39-11.34c.91 8.46 1.83 16.94 2.76 25.41a724 724 0 0 0 60.6 17.44c-.55-8.4-1.11-16.82-1.66-25.22a730 730 0 0 1-61.7-17.64Z" class="g" fill="#d6a57c"></path><path d="M226.69 229.66c-20.3 1.16-40.47 1.41-60.44.74-.55-8.4-1.11-16.82-1.66-25.22 20.33.73 40.87.51 61.54-.63.18 8.36.36 16.75.55 25.1Z" class="j" fill="#c4926e"></path><path d="M13.79 163.16c1.45 8.64 2.9 17.26 4.35 25.9 9.75 4.8 19.55 9.33 29.4 13.63-1.27-8.58-2.55-17.13-3.82-25.71-10.03-4.36-20-8.98-29.93-13.82" class="g" fill="#d6a57c"></path><path d="M105.65 212.96c-19.68-2.52-39.07-5.94-58.12-10.27-1.27-8.58-2.55-17.13-3.82-25.71a627 627 0 0 0 59.19 10.57c.92 8.47 1.83 16.95 2.76 25.41Z" class="j" fill="#c4926e"></path><path d="M500.67 163.16c-9.56 2.7-19.22 5.15-28.97 7.38-1.27 8.58-2.55 17.15-3.82 25.73 9.57-2.18 19.05-4.58 28.44-7.21 1.45-8.63 2.9-17.26 4.35-25.9" class="g" fill="#d6a57c"></path><path d="M467.88 196.27a730 730 0 0 1-59.76 23.05c.91-8.48 1.83-16.94 2.75-25.42 20.4-6.81 40.71-14.6 60.83-23.36-1.27 8.58-2.55 17.15-3.82 25.73m-119.26 27.84c-20.34 4.87-40.7 8.82-60.99 11.84.18-8.36.37-16.75.55-25.11 20.68-3.02 41.4-7.01 62.1-11.94-.55 8.38-1.1 16.79-1.66 25.21" class="j" fill="#c4926e"></path><path d="m172.26 451.52-16.62-252.54 17.03-.99 16.62 252.54zm50.88 4.32-5.54-251.52 17.06-.32 5.55 251.52zm-150.58-27-38.32-257.6 16.91-2.2 38.31 257.62zm49.38 13.67L94.36 187.95l16.98-1.6 27.58 254.56zm270.58 0-16.98-1.6 27.57-254.56 16.98 1.6zm49.37-13.67L425 426.66l38.31-257.62 16.9 2.2zm-150.58 27-17.06-.32L279.79 204l17.07.32zm50.89-4.32-17.04-.99 16.63-252.54 17.03.99z" class="h" fill="#b47d56"></path><path d="M227.52 267.34c-19.83-3-39.72-6.89-59.6-11.72-.55-8.41-1.11-16.81-1.66-25.22 20.24 4.87 40.51 8.81 60.71 11.83.18 8.35.36 16.73.55 25.1ZM109.78 251.1a719 719 0 0 1-58.42-22.67c-1.28-8.58-2.55-17.15-3.82-25.74a723 723 0 0 0 59.49 22.99c.91 8.47 1.83 16.94 2.75 25.42" class="g" fill="#d6a57c"></path><path d="M23.58 221.45a593 593 0 0 0 27.78 6.96c-1.28-8.58-2.55-17.15-3.82-25.74-9.52-2.15-18.97-4.53-28.3-7.14 1.44 8.64 2.89 17.28 4.34 25.92m83.44 4.23c.91 8.46 1.83 16.93 2.75 25.42 19.13 2.39 38.54 3.9 58.14 4.52-.55-8.41-1.11-16.81-1.66-25.22-19.97-.67-39.73-2.26-59.23-4.73Z" class="j" fill="#c4926e"></path><path d="M462.14 234.84a599 599 0 0 1-56.78 9.89q1.365-12.69 2.76-25.41a615 615 0 0 0 57.85-10.2c-1.27 8.58-2.55 17.16-3.82 25.72Z" class="g" fill="#d6a57c"></path><path d="M495.23 195.54a741 741 0 0 1-29.26 13.58c-1.27 8.58-2.56 17.16-3.82 25.72 9.62-4.22 19.2-8.69 28.73-13.38z" class="j" fill="#c4926e"></path><path d="M346.13 261.92c-19.51.61-39.22.32-59.06-.86.19-8.36.38-16.75.55-25.11 20.21 1.17 40.29 1.42 60.16.76-.55 8.41-1.11 16.81-1.66 25.22Z" class="g" fill="#d6a57c"></path><path d="M226.97 242.23c.18 8.35.37 16.73.55 25.1 19.74-1.2 39.63-3.28 59.55-6.27.19-8.36.38-16.75.55-25.11a692 692 0 0 1-60.65 6.28m120.82-5.53c-.55 8.41-1.11 16.81-1.66 25.22a702 702 0 0 0 59.23-17.19q1.365-12.69 2.76-25.41a711 711 0 0 1-60.33 17.39Z" class="j" fill="#c4926e"></path><path d="M228.91 330.12c-18.92-2.95-37.88-6.78-56.85-11.46-.55-8.41-1.11-16.82-1.66-25.22 19.33 4.74 38.66 8.6 57.95 11.55.18 8.38.37 16.73.55 25.12Zm-112.25-15.49a696 696 0 0 1-55.74-21.91c-1.27-8.58-2.55-17.14-3.82-25.71 18.81 8.32 37.77 15.69 56.81 22.22.92 8.47 1.83 16.93 2.75 25.4" class="g" fill="#d6a57c"></path><path d="M34.46 286.23a561 561 0 0 0 26.46 6.49c-1.28-8.58-2.56-17.14-3.83-25.71-9.08-2.02-18.08-4.25-26.98-6.69l4.35 25.92Zm79.45 3c.91 8.46 1.83 16.92 2.75 25.4 18.23 2.19 36.72 3.52 55.4 4.04-.55-8.41-1.11-16.82-1.66-25.22-19.05-.56-37.9-1.96-56.49-4.22" class="j" fill="#c4926e"></path><path d="M452.58 299.15a575 575 0 0 1-54.1 9.13l2.76-25.42c18.67-2.29 37.09-5.44 55.17-9.42-1.27 8.57-2.54 17.14-3.82 25.71Z" class="g" fill="#d6a57c"></path><path d="M484.35 260.31c-9.27 4.62-18.59 8.98-27.94 13.12-1.27 8.57-2.55 17.14-3.82 25.71 9.18-4.09 18.32-8.38 27.42-12.92 1.44-8.64 2.89-17.27 4.34-25.92Z" class="j" fill="#c4926e"></path><path d="M341.98 324.94c-18.59.49-37.38.13-56.29-1.11.18-8.36.37-16.74.55-25.1 19.29 1.21 38.43 1.55 57.39 1.02-.55 8.41-1.09 16.8-1.66 25.2Z" class="g" fill="#d6a57c"></path><path d="M228.35 305c.18 8.37.38 16.73.55 25.11a652 652 0 0 0 56.78-6.28c.18-8.36.37-16.74.55-25.1-19.38 2.96-38.7 5.07-57.89 6.27Zm115.29-5.26c-.55 8.41-1.1 16.8-1.66 25.2a667 667 0 0 0 56.5-16.67l2.76-25.42a687 687 0 0 1-57.6 16.89" class="j" fill="#c4926e"></path><path d="M230.29 392.91a638 638 0 0 1-54.08-11.21c-.55-8.41-1.11-16.81-1.66-25.22 18.41 4.62 36.82 8.39 55.19 11.32.18 8.37.36 16.74.55 25.12Zm-106.75-14.74a664 664 0 0 1-53.06-21.15c-1.27-8.58-2.55-17.14-3.82-25.72a677 677 0 0 0 54.13 21.46c.91 8.47 1.83 16.95 2.75 25.41" class="g" fill="#d6a57c"></path><path d="M45.34 351c8.3 2.2 16.68 4.21 25.15 6.01-1.27-8.58-2.55-17.14-3.82-25.72-8.64-1.87-17.2-3.93-25.68-6.21 1.45 8.64 2.9 17.29 4.35 25.92m75.45 1.75c.91 8.47 1.83 16.95 2.75 25.42 17.32 1.98 34.9 3.15 52.67 3.52-.55-8.41-1.11-16.81-1.66-25.22-18.13-.43-36.08-1.66-53.76-3.72" class="j" fill="#c4926e"></path><path d="M443.01 363.44c-16.84 3.59-34 6.39-51.41 8.38.92-8.47 1.84-16.93 2.76-25.42 17.77-2.08 35.29-4.97 52.48-8.68-1.27 8.58-2.55 17.16-3.82 25.72Z" class="g" fill="#d6a57c"></path><path d="M473.47 325.09c-8.83 4.43-17.72 8.65-26.63 12.64-1.27 8.58-2.55 17.15-3.82 25.71a674 674 0 0 0 26.11-12.43c1.45-8.64 2.88-17.29 4.34-25.92" class="j" fill="#c4926e"></path><path d="M337.83 388c-17.67.35-35.53-.1-53.53-1.37.19-8.36.38-16.74.55-25.1 18.36 1.25 36.59 1.66 54.63 1.26-.55 8.41-1.1 16.8-1.66 25.22Z" class="g" fill="#d6a57c"></path><path d="M229.74 367.79c.18 8.37.37 16.75.55 25.12 17.9-1.28 35.92-3.38 54.01-6.29.19-8.36.38-16.74.55-25.1a622 622 0 0 1-55.11 6.27m109.74-5.01c-.55 8.41-1.1 16.81-1.66 25.22 17.95-4.56 35.9-9.95 53.77-16.18.92-8.47 1.84-16.93 2.76-25.42-18.24 6.31-36.54 11.78-54.87 16.38" class="j" fill="#c4926e"></path><path d="M231.68 455.68a600 600 0 0 1-51.32-10.96c-.55-8.4-1.11-16.81-1.66-25.22 17.49 4.48 34.99 8.17 52.43 11.07.18 8.36.36 16.74.55 25.1Zm-101.25-13.96a636 636 0 0 1-50.37-20.4c-1.27-8.58-2.55-17.15-3.82-25.72a645 645 0 0 0 51.45 20.69c.91 8.47 1.83 16.95 2.75 25.43Z" class="g" fill="#d6a57c"></path><path d="M56.22 415.77a503 503 0 0 0 23.83 5.55c-1.27-8.58-2.55-17.15-3.82-25.72-8.2-1.72-16.32-3.64-24.35-5.73 1.45 8.64 2.89 17.28 4.34 25.91Zm71.45.52c.91 8.47 1.83 16.95 2.75 25.42 16.42 1.76 33.08 2.76 49.94 3.01-.55-8.4-1.11-16.81-1.66-25.22-17.22-.28-34.25-1.37-51.03-3.22Z" class="j" fill="#c4926e"></path><path d="M433.44 427.75a514 514 0 0 1-48.72 7.61c.91-8.46 1.83-16.95 2.75-25.42 16.88-1.87 33.49-4.51 49.81-7.93-1.27 8.58-2.55 17.15-3.83 25.74Z" class="g" fill="#d6a57c"></path><path d="M462.59 389.86c-8.4 4.26-16.84 8.32-25.31 12.15-1.27 8.58-2.55 17.15-3.83 25.74 8.3-3.79 16.56-7.78 24.79-11.98 1.45-8.63 2.9-17.27 4.35-25.91" class="j" fill="#c4926e"></path><path d="M333.68 451.02c-16.76.23-33.7-.32-50.76-1.62.18-8.36.38-16.74.55-25.1 17.43 1.28 34.74 1.8 51.87 1.53-.56 8.39-1.11 16.8-1.66 25.2Z" class="g" fill="#d6a57c"></path><path d="M231.12 430.58c.18 8.36.37 16.74.55 25.1 16.97-1.31 34.08-3.4 51.23-6.28.18-8.36.38-16.74.55-25.1a595 595 0 0 1-52.33 6.28m104.23-4.77c-.55 8.39-1.11 16.81-1.66 25.21 17.03-4.44 34.06-9.64 51.04-15.67.91-8.46 1.83-16.95 2.75-25.42a627 627 0 0 1-52.12 15.88Z" class="j" fill="#c4926e"></path><path d="M456.91 423.68c-127.85 49.48-271.51 49.48-399.36 0-.73-4.33-1.45-8.64-2.18-12.96 129.24 50.01 274.47 50.01 403.72 0-.73 4.33-1.45 8.64-2.18 12.96" fill="#e8b387"></path><path d="M257.23 43.99C127.21 42.56-28.8 65.05 4.57 134.7c17.18 35.86-10.21 30.11 16.17 44.68 158.44 87.53 486.93 33.58 486.92-23.43 0-21.77.34-24.41 4.12-45.06 5.38-29.4-87.94-66.24-254.55-66.9" fill="url(#1770301555107-7133676_b)"></path><ellipse cx="257.22" cy="107.05" rx="230.71" ry="56.06" fill="url(#1770301555107-7133676_c)"></ellipse><path d="M382.59 52.56c-2.71-.4-1.25 13.34 0 17.04 3.13 1.29 19.03 4.76 21.03 3.88-.14-4.01 3.72-15.21 8.17-15.91 0 0-16.26-5.77-29.2-5.02Zm-265.23 99.02s-2.59 11.79 2.04 27.82c3.13 1.28 27.43 5.62 29.42 4.74-.14-4 5.74-25.64 10.19-26.35 0 0-21.21-5.44-41.65-6.21m-102-40.27s-6.73 6.81-2.73 22.18c2.13 3.68 11.31 10.27 13.31 9.4.57-8.76 9.69-16.93 14.05-16.93 0 0-10.33-9.63-24.63-14.65m473.37-28.37c-2.71-.41-8.31 10.35-9.64 21.12 1.57 4.93 5.41 10.15 7.41 9.28 4.32-6.97 15.92-16.43 21.72-15.21 0 0-7.15-12.02-19.48-15.19Z" class="i" fill="#8c6143"></path><path d="M476.3 95.41c2.51-81.6-73.08-95.9-71.41-38.84.18 6.08-20.27 10.8-20.06-1.47 1.67-92.3 125.3-61.7 115.69 40.31-.79 8.44-24.43 7.07-24.23 0Z" class="h" fill="#b47d56"></path><path d="M472.81 91.17c13.74-6.99 14.75 26.03 8.25 14.75-4.12-7.19-11.76-12.97-8.25-14.75" class="j" fill="#c4926e"></path><path d="M502.14 92.75c-23.1-6.97-25.81 25.6-14.91 14.29 6.93-7.19 20.8-12.52 14.91-14.29" class="g" fill="#d6a57c"></path><path d="M383.2 54.23c10.52-5.38 12.37 21.66 7.4 13-3.17-5.5-10.08-11.63-7.4-13" class="j" fill="#c4926e"></path><path d="M405.68 55.43c-17.7-5.33-20.8 21.67-12.44 13 5.32-5.5 16.96-11.63 12.44-13" class="g" fill="#d6a57c"></path><path d="M124.05 160.29c3.08-99.61-92.54-122.76-88.11-39.43.32 6.09-23.63 8.45-23.3-3.81 2.87-112.59 153.24-72.33 135.61 44.43-1.27 8.38-24.41 5.88-24.2-1.19" class="h" fill="#b47d56"></path><path d="M115.33 149.84c19.64-8.73 20.23 40.39 12.09 24.24-5.18-10.26-17.11-22.01-12.09-24.24" class="j" fill="#c4926e"></path><path d="M155.96 154.06c-31.55-11.28-39.93 37.41-23.88 22.45 10.2-9.49 31.93-19.57 23.88-22.45" class="g" fill="#d6a57c"></path><path d="M9.3 113.67c15.04-6.7 15.5 30.95 9.27 18.59-3.96-7.86-13.11-16.88-9.27-18.59" class="j" fill="#c4926e"></path><path d="M40.44 116.91c-24.17-8.66-30.6 28.66-18.3 17.22 7.82-7.3 24.47-15.01 18.3-17.22" class="g" fill="#d6a57c"></path><path d="M148.34 213.81s6.78 6.55 12.36 1.15c13.39-12.98-6.69-37.58-29.14-37.58-56.26 0-41.24 52.55-16.9 26.67-5.19 8.52-9.61 15.55-9.69 15.68l3.99 5.44c.62-.98 13.68-21.77 21.36-35.34 9.96 28.31 28.42 50.42 29.26 51.42l3.4-6.25c-.12-.15-7.09-8.52-14.63-21.2Zm8.82-6.39c-5.1 6.2-15.62-12.77-19.57-20.65 6.43 0 25.12 13.9 19.57 20.65m-56.9-5.06c-3.64-5.36 14.17-15.31 22.85-15.31-3.61 3.56-20.13 19.32-22.85 15.31m-67.81-41.21s3.97 4.59 7.23.81c7.84-9.08-3.93-26.29-17.04-26.29-32.92 0-24.14 36.77-9.89 18.66-3.04 5.96-5.63 10.88-5.67 10.97l2.32 3.81c.36-.7 8-15.23 12.5-24.75 5.83 19.81 16.62 35.29 17.12 35.98l1.99-4.36c-.08-.12-4.15-5.97-8.56-14.85Zm5.17-4.47c-2.99 4.34-9.16-8.93-11.46-14.46 3.76 0 14.69 9.73 11.46 14.46m-33.3-3.55c-2.13-3.73 8.29-10.71 13.37-10.71-2.11 2.49-11.78 13.53-13.37 10.71" fill="#cfd8dd"></path></g></svg>
