<svg xmlns="http://www.w3.org/2000/svg" data-name="Layer 1" style="" viewBox="0 0 512 336"><g><defs><linearGradient id="1770301554667-5484432_b" x1="159.68" x2="159.68" y1="300.33" y2="320" gradientTransform="matrix(1 0 0 -1 0 320)" gradientUnits="userSpaceOnUse"><stop offset="0" stop-color="#302c3b"></stop><stop offset=".36" stop-color="#3d3e4b"></stop><stop offset="1" stop-color="#5b666e"></stop></linearGradient><linearGradient id="1770301554667-5484432_c" x1="231.06" x2="231.06" y1="211.51" y2="226.97" gradientTransform="matrix(1 0 0 -1 0 320)" gradientUnits="userSpaceOnUse"><stop offset="0" stop-color="#009af7"></stop><stop offset=".12" stop-color="#0da3f4"></stop><stop offset=".5" stop-color="#30baec"></stop><stop offset=".8" stop-color="#46c9e8"></stop><stop offset="1" stop-color="#4ecee6"></stop></linearGradient><linearGradient id="1770301554667-5484432_d" x1="187.07" x2="200.93" y1="136.3" y2="150.83" gradientTransform="matrix(1 0 0 -1 0 320)" gradientUnits="userSpaceOnUse"><stop offset="0" stop-color="#009af7"></stop><stop offset=".12" stop-color="#0da3f4"></stop><stop offset=".5" stop-color="#30baec"></stop><stop offset=".8" stop-color="#46c9e8"></stop><stop offset="1" stop-color="#4ecee6"></stop></linearGradient><linearGradient id="1770301554667-5484432_e" x1="332.68" x2="332.68" y1="91.59" y2="70.94" gradientTransform="matrix(1 0 0 -1 0 320)" gradientUnits="userSpaceOnUse"><stop offset="0" stop-color="#4ecee6"></stop><stop offset=".2" stop-color="#46c9e8"></stop><stop offset=".5" stop-color="#30baec"></stop><stop offset=".88" stop-color="#0da3f4"></stop><stop offset="1" stop-color="#009af7"></stop></linearGradient><linearGradient id="1770301554667-5484432_f" x1="358.07" x2="375.91" y1="146.09" y2="157.98" gradientTransform="matrix(1 0 0 -1 0 320)" gradientUnits="userSpaceOnUse"><stop offset="0" stop-color="#009af7"></stop><stop offset=".12" stop-color="#0da3f4"></stop><stop offset=".5" stop-color="#30baec"></stop><stop offset=".8" stop-color="#46c9e8"></stop><stop offset="1" stop-color="#4ecee6"></stop></linearGradient><linearGradient id="1770301554667-5484432_g" x1="307.39" x2="288.75" y1="156.22" y2="165.9" gradientTransform="matrix(1 0 0 -1 0 320)" gradientUnits="userSpaceOnUse"><stop offset="0" stop-color="#009af7"></stop><stop offset=".12" stop-color="#0da3f4"></stop><stop offset=".5" stop-color="#30baec"></stop><stop offset=".8" stop-color="#46c9e8"></stop><stop offset="1" stop-color="#4ecee6"></stop></linearGradient><linearGradient id="1770301554667-5484432_h" x1="122.67" x2="106.93" y1="163.63" y2="169.93" gradientTransform="matrix(1 0 0 -1 0 320)" gradientUnits="userSpaceOnUse"><stop offset="0" stop-color="#009af7"></stop><stop offset=".12" stop-color="#0da3f4"></stop><stop offset=".5" stop-color="#30baec"></stop><stop offset=".8" stop-color="#46c9e8"></stop><stop offset="1" stop-color="#4ecee6"></stop></linearGradient><linearGradient id="1770301554667-5484432_i" x1="349.88" x2="349.88" y1="260.63" y2="294.8" gradientTransform="matrix(1 0 0 -1 0 320)" gradientUnits="userSpaceOnUse"><stop offset="0" stop-color="#302c3b"></stop><stop offset=".36" stop-color="#3d3e4b"></stop><stop offset="1" stop-color="#5b666e"></stop></linearGradient></defs><path d="m343.8 85.4-14.96-.5 17.08-34.65 15.77.5zM135.26 44.16c2.66-.19 15.62-1.51 14.74.96-6.34 17.55-9.44 25.33-9.44 25.33h13.53l10.93-29.59c2.7-7.78-4.19-10.34-25.69-8.34-7.21.67-11.39-2.85-11.39-7.8 0-2.5 1.09-5.02 2.99-6.93 1.53-1.54 4.31-3.39 8.83-3.39V1.81c-7 0-13.39 2.54-17.98 7.18-4.22 4.25-6.64 9.98-6.64 15.74 0 9.82 7.6 20.36 20.13 19.44Z" class="t" fill="#99a8ae"></path><path d="M181.45 0h-42.71c-6.84 0-6.52 19.67 0 19.67h8.53c7.9-12.54 25.97-.5 34.18-6.1 6.89-4.69 4.09-13.58 0-13.58Z" fill="url(#1770301554667-5484432_b)"></path><path d="M333.11 238.47c0 2.8 162.14 2.8 162.14 0s-162.14-2.8-162.14 0" class="t" fill="#99a8ae"></path><path d="M414.18 158.66c-2.86 0-2.86 159.6 0 159.6s2.83-159.6 0-159.6" class="t" fill="#99a8ae"></path><path d="M356.84 182.05c-2 1.97 112.64 114.83 114.66 112.86 2.01-1.99-112.64-114.84-114.66-112.86" class="t" fill="#99a8ae"></path><path d="M471.5 182.05c-2.02-1.97-116.66 110.86-114.66 112.86 2.01 1.97 116.66-110.87 114.66-112.86" class="t" fill="#99a8ae"></path><path d="M339.28 269.02c1.08 2.59 150.89-58.5 149.78-61.08-1.08-2.58-150.86 58.5-149.78 61.08" class="t" fill="#99a8ae"></path><path d="M383.14 164.74c-2.61 1.09 59.44 148.52 62.06 147.46 2.62-1.07-59.42-148.53-62.06-147.46" class="t" fill="#99a8ae"></path><path d="M339.28 207.94c-1.08 2.57 148.7 63.66 149.8 61.08 1.09-2.59-148.72-63.67-149.8-61.08" class="t" fill="#99a8ae"></path><path d="M445.2 164.75c-2.62-1.06-64.67 146.38-62.06 147.46 2.65 1.04 64.7-146.39 62.06-147.46" class="t" fill="#99a8ae"></path><path d="M413.86 150.84c-49.67 0-89.94 39.63-89.94 88.56s40.26 88.54 89.94 88.54 89.97-39.64 89.97-88.54c0-48.92-40.28-88.56-89.97-88.56m0 161c-40.64 0-73.59-32.43-73.59-72.44s32.95-72.47 73.59-72.47 73.61 32.45 73.61 72.47-32.94 72.44-73.61 72.44" class="t" fill="#99a8ae"></path><path d="M413.86 142.78c-54.17 0-98.13 43.26-98.13 96.62 0 53.33 43.96 96.59 98.13 96.59S512 292.73 512 239.4s-43.94-96.62-98.14-96.62m0 177.11c-45.14 0-81.77-36.03-81.77-80.49s36.62-80.51 81.77-80.51 81.78 36.05 81.78 80.51-36.61 80.49-81.78 80.49" class="u" fill="#302c3b"></path><path d="M16.75 238.47c0 2.8 162.14 2.8 162.14 0s-162.14-2.8-162.14 0" class="t" fill="#99a8ae"></path><path d="M97.82 158.66c-2.85 0-2.85 159.6 0 159.6s2.83-159.6 0-159.6" class="t" fill="#99a8ae"></path><path d="M40.49 182.05c-2 1.97 112.63 114.83 114.65 112.86 2-1.99-112.63-114.84-114.65-112.86" class="t" fill="#99a8ae"></path><path d="M155.14 182.05c-2.02-1.97-116.65 110.86-114.65 112.86 2.02 1.97 116.66-110.87 114.65-112.86" class="t" fill="#99a8ae"></path><path d="M22.92 269.02c1.08 2.59 150.88-58.5 149.78-61.08-1.09-2.58-150.87 58.5-149.78 61.08" class="t" fill="#99a8ae"></path><path d="M66.78 164.74c-2.62 1.09 59.43 148.52 62.05 147.46 2.63-1.07-59.42-148.53-62.05-147.46" class="t" fill="#99a8ae"></path><path d="M22.92 207.94c-1.09 2.57 148.7 63.66 149.8 61.08 1.08-2.59-148.72-63.67-149.8-61.08" class="t" fill="#99a8ae"></path><path d="M128.83 164.75c-2.62-1.06-64.66 146.38-62.05 147.46 2.63 1.04 64.68-146.39 62.05-147.46" class="t" fill="#99a8ae"></path><path d="M98.14 150.84c-49.68 0-89.95 39.63-89.95 88.56s40.26 88.54 89.95 88.54 89.97-39.64 89.97-88.54-40.29-88.56-89.97-88.56m0 161c-40.65 0-73.6-32.43-73.6-72.44s32.95-72.47 73.6-72.47 73.6 32.45 73.6 72.47-32.94 72.44-73.6 72.44" class="t" fill="#99a8ae"></path><path d="M98.14 142.78C43.95 142.78 0 186.05 0 239.41S43.95 336 98.14 336s98.14-43.26 98.14-96.59c0-53.34-43.94-96.62-98.14-96.62Zm0 177.11c-45.15 0-81.77-36.03-81.77-80.49s36.62-80.51 81.77-80.51 81.78 36.05 81.78 80.51-36.62 80.49-81.78 80.49" class="u" fill="#302c3b"></path><path d="m275.13 170.46-24.75 55h17.08l21.26-56.02z" class="s" fill="#6e8189"></path><path d="M250.88 164.73s-3.54 14.47.02 16.81c4.17 2.72 19.81-5.87 19.89.03h.03c.08-5.9 19.78-5.9 19.87 0h.03c.08-5.9 15.72 2.69 19.87-.03 3.58-2.34.02-16.81.02-16.81z" class="s" fill="#6e8189"></path><path d="M135.78 90.58h190.54v20.45H135.78z" fill="url(#1770301554667-5484432_c)"></path><path d="M257.78 223.8 142.12 111.02l-13.2 16.55 116.73 114.51c4.18-6 8.14-12.15 12.14-18.29Z" fill="url(#1770301554667-5484432_d)"></path><path d="M265.1 228.08c-4.56 6.97-9.07 13.96-13.91 20.75h163v-20.75z" fill="url(#1770301554667-5484432_e)"></path><path d="m401.2 235.2-85.46-123.59 16.95-10.81 85.44 123.59z" fill="url(#1770301554667-5484432_f)"></path><path d="m265.3 243.1-18.62-9.28 78.65-150.04h23.59z" fill="url(#1770301554667-5484432_g)"></path><path d="M410.05 214.34c-11.31-1.02-123.78-11.44-150.01-13.61-23.42-1.86-41.78 15.99-41.78 37.47s16.43 37.62 38.26 37.62c1.17 0 142.23-12.76 153.54-13.81 15.77-1.4 25.26-11.44 25.26-23.82 0-12.4-9.5-22.42-25.27-23.86Zm-.82 40.89c-11.31 1.03-123.75 11.47-149.95 13.62-18.75 1.61-.92-61.41 0-61.32 26.18 2.18 138.64 12.58 149.95 13.62 11.86 1.06 11.86 33.02 0 34.08" fill="#b3c2c6"></path><path d="M397.11 238.46c0 22.42 34.14 22.42 34.14 0 0-22.38-34.14-22.38-34.14 0" class="t" fill="#99a8ae"></path><path d="M405.64 238.49c0 11.2 17.08 11.2 17.08 0s-17.08-11.22-17.08 0m-54.3-180.95c0 11.2 17.06 11.2 17.06 0s-17.06-11.2-17.06 0" class="s" fill="#6e8189"></path><path d="m155.62 75.42-25.96 68.34c7.71 50.84-28.02 98.33-28.02 98.33l-8.91-7.37c25.06-36.35 17.6-94.68 17.6-94.68l24.53-64.62z" fill="url(#1770301554667-5484432_h)"></path><path d="M80.75 238.46c0 22.42 34.14 22.42 34.14 0 0-22.38-34.14-22.38-34.14 0" class="u" fill="#302c3b"></path><path d="M384.42 25.2c-17.16 0-34.31 17.58-83.25 12.01-4.03-.46-2.47 11.65 0 14.38 13.18 14.66 85.89 5.29 95.87-1.19 3.54-2.3 11.12-25.2-12.62-25.2" fill="url(#1770301554667-5484432_i)"></path><path d="M221.86 238.47c0 44.78 68.26 44.78 68.26 0s-68.26-44.82-68.26 0" class="t" fill="#99a8ae"></path><path d="M238.94 238.46c0 22.42 34.13 22.42 34.13 0s-34.13-22.38-34.13 0" class="s" fill="#6e8189"></path><path d="m247.46 238.47-15.8 49.61h17.08l15.79-49.61z" class="s" fill="#6e8189"></path><path d="M209.06 288.08s-3.55 14.47.02 16.8c4.17 2.72 19.8-5.87 19.88.03h.04c.08-5.9 19.78-5.9 19.86 0h.03c.1-5.9 15.71 2.69 19.89-.03 3.56-2.33.02-16.8.02-16.8h-59.73Z" class="t" fill="#99a8ae"></path><path d="M243.2 294.11c0 5.6-8.53 5.6-8.53 0 0-5.61 8.53-5.61 8.53 0m-14.07 0c0 2.8-17.06 2.8-17.06 0s17.06-2.8 17.06 0m36.67 0c0 2.8-17.06 2.8-17.06 0s17.06-2.8 17.06 0" class="u" fill="#302c3b"></path><path d="M247.46 238.47c0 11.2 17.06 11.2 17.06 0s-17.06-11.22-17.06 0" fill="#e6ebef"></path><path d="M158.16 75.42h-25.82l3.02-8.09h25.46z" class="s" fill="#6e8189"></path></g></svg>
