<svg xmlns="http://www.w3.org/2000/svg" data-name="Layer 1" style="" viewBox="0 0 512 546.13"><g><defs><linearGradient id="1770301554670-1869814_b" x1="6.49" x2="506.21" y1="115.37" y2="115.37" gradientTransform="matrix(1 0 0 -1 0 548.13)" gradientUnits="userSpaceOnUse"><stop offset="0" stop-color="#ffd53d"></stop><stop offset=".3" stop-color="#ffcd2f"></stop><stop offset=".88" stop-color="#ffb809"></stop><stop offset="1" stop-color="#ffb300"></stop></linearGradient><linearGradient id="1770301554670-1869814_d" x1="78.16" x2="435.1" y1="299.36" y2="299.36" gradientTransform="matrix(1 0 0 -1 0 548.13)" gradientUnits="userSpaceOnUse"><stop offset="0" stop-color="#ffd53d"></stop><stop offset=".3" stop-color="#ffcd2f"></stop><stop offset=".88" stop-color="#ffb809"></stop><stop offset="1" stop-color="#ffb300"></stop></linearGradient><linearGradient id="1770301554670-1869814_f" x1="241.72" x2="270.67" y1="419.92" y2="419.92" gradientTransform="matrix(1 0 0 -1 0 548.13)" gradientUnits="userSpaceOnUse"><stop offset=".08" stop-color="#30c1ff"></stop><stop offset=".28" stop-color="#2ebefb"></stop><stop offset=".49" stop-color="#26b5ef"></stop><stop offset=".69" stop-color="#1ba6da"></stop><stop offset=".9" stop-color="#0a91be"></stop><stop offset="1" stop-color="#0085ad"></stop></linearGradient><linearGradient id="1770301554670-1869814_h" x1="255.4" x2="255.4" y1="483.79" y2="536.2" gradientTransform="matrix(1 0 0 -1 0 548.13)" gradientUnits="userSpaceOnUse"><stop offset="0" stop-color="#fa0"></stop><stop offset=".17" stop-color="#ffa400"></stop><stop offset=".42" stop-color="#ff9200"></stop><stop offset=".7" stop-color="#ff7400"></stop><stop offset="1" stop-color="#ff4d00"></stop></linearGradient><linearGradient id="1770301554670-1869814_i" x1="-1050.85" x2="-1050.85" y1="483.79" y2="528.18" gradientTransform="rotate(180 -398.12 274.065)" gradientUnits="userSpaceOnUse"><stop offset="0" stop-color="#ffb500"></stop><stop offset=".09" stop-color="#ffba00"></stop><stop offset=".67" stop-color="#ffda00"></stop><stop offset="1" stop-color="#ffe600"></stop></linearGradient><linearGradient id="1770301554670-1869814_j" x1="-1050.98" x2="-1050.98" y1="485.82" y2="520.46" gradientTransform="rotate(180 -398.12 274.065)" gradientUnits="userSpaceOnUse"><stop offset=".24" stop-color="#fff2ab"></stop><stop offset=".36" stop-color="#fff1a5"></stop><stop offset=".52" stop-color="#ffef92"></stop><stop offset=".72" stop-color="#ffec74"></stop><stop offset=".93" stop-color="#ffe74b"></stop><stop offset="1" stop-color="#ffe53b"></stop></linearGradient><linearGradient id="1770301554670-1869814_k" x1="255.39" x2="255.39" y1="472.55" y2="496.33" gradientTransform="matrix(1 0 0 -1 0 548.13)" gradientUnits="userSpaceOnUse"><stop offset=".23" stop-color="#f3f3f3"></stop><stop offset=".25" stop-color="#d5d5d7"></stop><stop offset=".27" stop-color="#afadb3"></stop><stop offset=".3" stop-color="#8c8a92"></stop><stop offset=".32" stop-color="#706d77"></stop><stop offset=".36" stop-color="#585561"></stop><stop offset=".39" stop-color="#464350"></stop><stop offset=".43" stop-color="#393644"></stop><stop offset=".49" stop-color="#322e3d"></stop><stop offset=".61" stop-color="#302c3b"></stop><stop offset=".62" stop-color="#4e473b"></stop><stop offset=".65" stop-color="#776c3b"></stop><stop offset=".68" stop-color="#9c8d3b"></stop><stop offset=".71" stop-color="#bba83b"></stop><stop offset=".75" stop-color="#d4be3b"></stop><stop offset=".79" stop-color="#e7d03b"></stop><stop offset=".83" stop-color="#f5dc3b"></stop><stop offset=".89" stop-color="#fde33b"></stop><stop offset="1" stop-color="#ffe53b"></stop></linearGradient><linearGradient id="1770301554670-1869814_l" x1="329.14" x2="357.42" y1="434.52" y2="434.52" gradientTransform="matrix(1 0 0 -1 0 548.13)" gradientUnits="userSpaceOnUse"><stop offset=".08" stop-color="#30c1ff"></stop><stop offset=".28" stop-color="#2ebefb"></stop><stop offset=".49" stop-color="#26b5ef"></stop><stop offset=".69" stop-color="#1ba6da"></stop><stop offset=".9" stop-color="#0a91be"></stop><stop offset="1" stop-color="#0085ad"></stop></linearGradient><linearGradient id="1770301554670-1869814_n" x1="342.51" x2="342.51" y1="496.92" y2="548.13" gradientTransform="matrix(1 0 0 -1 0 548.13)" gradientUnits="userSpaceOnUse"><stop offset="0" stop-color="#fa0"></stop><stop offset=".17" stop-color="#ffa400"></stop><stop offset=".42" stop-color="#ff9200"></stop><stop offset=".7" stop-color="#ff7400"></stop><stop offset="1" stop-color="#ff4d00"></stop></linearGradient><linearGradient id="1770301554670-1869814_o" x1="-1137.99" x2="-1137.99" y1="496.92" y2="540.3" gradientTransform="rotate(180 -398.12 274.065)" gradientUnits="userSpaceOnUse"><stop offset="0" stop-color="#ffb500"></stop><stop offset=".09" stop-color="#ffba00"></stop><stop offset=".67" stop-color="#ffda00"></stop><stop offset="1" stop-color="#ffe600"></stop></linearGradient><linearGradient id="1770301554670-1869814_p" x1="-1138.1" x2="-1138.1" y1="498.9" y2="532.77" gradientTransform="rotate(180 -398.12 274.065)" gradientUnits="userSpaceOnUse"><stop offset=".24" stop-color="#fff2ab"></stop><stop offset=".36" stop-color="#fff1a5"></stop><stop offset=".52" stop-color="#ffef92"></stop><stop offset=".72" stop-color="#ffec74"></stop><stop offset=".93" stop-color="#ffe74b"></stop><stop offset="1" stop-color="#ffe53b"></stop></linearGradient><linearGradient id="1770301554670-1869814_q" x1="342.52" x2="342.52" y1="485.94" y2="509.19" gradientTransform="matrix(1 0 0 -1 0 548.13)" gradientUnits="userSpaceOnUse"><stop offset=".23" stop-color="#f3f3f3"></stop><stop offset=".25" stop-color="#d5d5d7"></stop><stop offset=".27" stop-color="#afadb3"></stop><stop offset=".3" stop-color="#8c8a92"></stop><stop offset=".32" stop-color="#706d77"></stop><stop offset=".36" stop-color="#585561"></stop><stop offset=".39" stop-color="#464350"></stop><stop offset=".43" stop-color="#393644"></stop><stop offset=".49" stop-color="#322e3d"></stop><stop offset=".61" stop-color="#302c3b"></stop><stop offset=".62" stop-color="#4e473b"></stop><stop offset=".65" stop-color="#776c3b"></stop><stop offset=".68" stop-color="#9c8d3b"></stop><stop offset=".71" stop-color="#bba83b"></stop><stop offset=".75" stop-color="#d4be3b"></stop><stop offset=".79" stop-color="#e7d03b"></stop><stop offset=".83" stop-color="#f5dc3b"></stop><stop offset=".89" stop-color="#fde33b"></stop><stop offset="1" stop-color="#ffe53b"></stop></linearGradient><linearGradient id="1770301554670-1869814_r" x1="154.96" x2="183.26" y1="434.52" y2="434.52" gradientTransform="matrix(1 0 0 -1 0 548.13)" gradientUnits="userSpaceOnUse"><stop offset=".08" stop-color="#30c1ff"></stop><stop offset=".28" stop-color="#2ebefb"></stop><stop offset=".49" stop-color="#26b5ef"></stop><stop offset=".69" stop-color="#1ba6da"></stop><stop offset=".9" stop-color="#0a91be"></stop><stop offset="1" stop-color="#0085ad"></stop></linearGradient><linearGradient id="1770301554670-1869814_t" x1="168.33" x2="168.33" y1="496.92" y2="548.13" gradientTransform="matrix(1 0 0 -1 0 548.13)" gradientUnits="userSpaceOnUse"><stop offset="0" stop-color="#fa0"></stop><stop offset=".17" stop-color="#ffa400"></stop><stop offset=".42" stop-color="#ff9200"></stop><stop offset=".7" stop-color="#ff7400"></stop><stop offset="1" stop-color="#ff4d00"></stop></linearGradient><linearGradient id="1770301554670-1869814_u" x1="-963.81" x2="-963.81" y1="496.92" y2="540.3" gradientTransform="rotate(180 -398.12 274.065)" gradientUnits="userSpaceOnUse"><stop offset="0" stop-color="#ffb500"></stop><stop offset=".09" stop-color="#ffba00"></stop><stop offset=".67" stop-color="#ffda00"></stop><stop offset="1" stop-color="#ffe600"></stop></linearGradient><linearGradient id="1770301554670-1869814_v" x1="-963.92" x2="-963.92" y1="498.9" y2="532.77" gradientTransform="rotate(180 -398.12 274.065)" gradientUnits="userSpaceOnUse"><stop offset=".24" stop-color="#fff2ab"></stop><stop offset=".36" stop-color="#fff1a5"></stop><stop offset=".52" stop-color="#ffef92"></stop><stop offset=".72" stop-color="#ffec74"></stop><stop offset=".93" stop-color="#ffe74b"></stop><stop offset="1" stop-color="#ffe53b"></stop></linearGradient><linearGradient id="1770301554670-1869814_w" x1="168.33" x2="168.33" y1="485.94" y2="509.19" gradientTransform="matrix(1 0 0 -1 0 548.13)" gradientUnits="userSpaceOnUse"><stop offset=".23" stop-color="#f3f3f3"></stop><stop offset=".25" stop-color="#d5d5d7"></stop><stop offset=".27" stop-color="#afadb3"></stop><stop offset=".3" stop-color="#8c8a92"></stop><stop offset=".32" stop-color="#706d77"></stop><stop offset=".36" stop-color="#585561"></stop><stop offset=".39" stop-color="#464350"></stop><stop offset=".43" stop-color="#393644"></stop><stop offset=".49" stop-color="#322e3d"></stop><stop offset=".61" stop-color="#302c3b"></stop><stop offset=".62" stop-color="#4e473b"></stop><stop offset=".65" stop-color="#776c3b"></stop><stop offset=".68" stop-color="#9c8d3b"></stop><stop offset=".71" stop-color="#bba83b"></stop><stop offset=".75" stop-color="#d4be3b"></stop><stop offset=".79" stop-color="#e7d03b"></stop><stop offset=".83" stop-color="#f5dc3b"></stop><stop offset=".89" stop-color="#fde33b"></stop><stop offset="1" stop-color="#ffe53b"></stop></linearGradient><radialGradient id="1770301554670-1869814_c" cx="112.91" cy="-1854.2" r="208.98" fx="112.91" fy="-1854.2" gradientTransform="matrix(1.19 0 0 -.19 122.4 -51.08)" gradientUnits="userSpaceOnUse"><stop offset="0" stop-color="#70584e"></stop><stop offset=".59" stop-color="#6e564c"></stop><stop offset=".81" stop-color="#685045"></stop><stop offset=".96" stop-color="#5d443a"></stop><stop offset="1" stop-color="#594035"></stop></radialGradient><radialGradient id="1770301554670-1869814_e" cx="63.53" cy="-1111.38" r="139.32" fx="63.53" fy="-1111.38" gradientTransform="matrix(1.28 0 0 -.2 175.97 -57.02)" gradientUnits="userSpaceOnUse"><stop offset="0" stop-color="#70584e"></stop><stop offset=".59" stop-color="#6e564c"></stop><stop offset=".81" stop-color="#685045"></stop><stop offset=".96" stop-color="#5d443a"></stop><stop offset="1" stop-color="#594035"></stop></radialGradient><radialGradient id="1770301554670-1869814_g" cx="-2941.99" cy="-1119.88" r="49.18" fx="-2941.99" fy="-1119.88" gradientTransform="matrix(-.42 0 0 -.16 -979.53 -104.88)" gradientUnits="userSpaceOnUse"><stop offset=".38" stop-color="#f7f1ed"></stop><stop offset=".65" stop-color="#b9e3f4"></stop><stop offset="1" stop-color="#61cfff"></stop></radialGradient><radialGradient id="1770301554670-1869814_m" cx="1890.57" cy="-1303.93" r="55.44" fx="1890.57" fy="-1303.93" gradientTransform="matrix(.41 0 0 -.14 -433 -121.69)" gradientUnits="userSpaceOnUse"><stop offset=".38" stop-color="#f7f1ed"></stop><stop offset=".65" stop-color="#b9e3f4"></stop><stop offset="1" stop-color="#61cfff"></stop></radialGradient><radialGradient id="1770301554670-1869814_s" cx="1477.32" cy="-909.41" r="52.48" fx="1477.32" fy="-909.41" gradientTransform="matrix(.41 0 0 -.17 -437.32 -95.98)" gradientUnits="userSpaceOnUse"><stop offset=".38" stop-color="#f7f1ed"></stop><stop offset=".65" stop-color="#b9e3f4"></stop><stop offset="1" stop-color="#61cfff"></stop></radialGradient></defs><path d="M6.49 319.39v160.42c0 88.44 499.72 88.44 499.72 0V319.39z" fill="url(#1770301554670-1869814_b)"></path><path d="M6.49 382.88v18.2c0 88.45 499.72 88.45 499.72 0v-18.2c0 88.44-499.72 88.44-499.72 0" class="ay" style="isolation:isolate" fill="#fff" opacity=".8"></path><path d="M9.07 306c-22.22 19.56-4.69 143.22 64.7 109.68 54.95-26.5 76.06 57.34 129.45 24.11 62.89-39.15 91.4 30.17 134.46-1.72 35.59-26.37 74-38.37 106.65-17.64 59.01 37.44 81.43-94.81 59.31-114.42-44.12-39.12-450.19-39.12-494.57 0Z" class="ba" fill="#594035"></path><path d="M6.31 312.64c0 52.81 500.07 52.81 500.07 0 0-52.75-500.07-52.75-500.07 0" fill="url(#1770301554670-1869814_c)"></path><path d="M78.16 173.75v117.58c0 43.31 356.94 43.31 356.94 0V173.75z" fill="url(#1770301554670-1869814_d)"></path><path d="M78.16 228.28v13.19c0 43.31 356.94 43.31 356.94 0v-13.19c0 43.31-356.94 43.31-356.94 0" class="ay" style="isolation:isolate" fill="#fff" opacity=".8"></path><path d="M80 164.5c-15.87 13.5-3.36 96.07 46.22 72.9 39.24-18.3 54.32 39.59 92.46 16.65 44.93-27.03 65.29 20.84 96.04-1.18 25.42-18.22 52.86-26.5 76.19-12.2 42.15 25.86 58.15-62.63 42.36-76.18-31.51-26.99-321.56-27-353.26 0Z" class="ba" fill="#594035"></path><path d="M78.03 169.08c0 36.46 357.19 36.46 357.19 0 0-36.42-357.19-36.42-357.19 0" fill="url(#1770301554670-1869814_e)"></path><path d="M241.72 75.84v97.45c0 9.73 28.95 9.73 28.95 0V75.84z" fill="url(#1770301554670-1869814_f)"></path><path d="m241.72 156.73 17.74 23.69c5.21-.55 9.83-2.41 10.94-5.63l-28.68-38.27v20.22Zm28.95-22.01-28.95-38.65v20.22l28.95 38.64zm0-40.44-13.82-18.44h-15.13v.02l28.95 38.65z" class="ax" style="isolation:isolate" fill="#2449ff" opacity=".3"></path><path d="M240.98 74.15c-1.06-6.78 29.42-9.1 30.11.52.36 5.07-.58 9.47.23 16.12 2.28 18.24-4.93-12.48-4.39-1.03.73 15.57 1.6 33.02-1.86 31.16-1.82-.98-1.23-13.17-2.64-25.75-1.02-9.13-5.58-.16-6.55 5.93-4.33 27.2-8.48-29.5-9.62-7.81-.66 12.76.35 46.88-3.79 43.08-4.41-4.05 2.58-37.34-.84-46.09-2.89-7.45 1.04-5.49-.65-16.14Z" fill="url(#1770301554670-1869814_g)"></path><path d="M267.82 73.66c-1.89 3-19.88 4.07-22.6.31-1.98-2.76 3.65-3.09 10.98-3.3 7.8-.22 12.73 1.21 11.61 3Z" class="bc" fill="#9dc6dd"></path><path d="M256.74 11.94c-2.23 11.18-29.04 52.4-2.3 52.4 24.74 0 9.91-42.5 2.3-52.4" fill="url(#1770301554670-1869814_h)"></path><path d="M254.44 64.34c-18.43 0-2.8-33.44 4.02-44.39.7 20.74 13.12 44.39-4.02 44.39" fill="url(#1770301554670-1869814_i)"></path><path d="M254.75 62.32c-8.13 0-5.32-20.45 2.65-34.65-.96 16.8 7.06 34.65-2.65 34.65" fill="url(#1770301554670-1869814_j)"></path><path d="M257.61 74.65c-.39 1.57-2.53 1.01-2.24-.6 2.58-14.59-2.26-16.33-2.94-20.4-.2-1.2 3.31-2.21 3.34-1.72.15 2.79 4.26 13.25 1.85 22.72Z" fill="url(#1770301554670-1869814_k)"></path><path d="M277.65 179.22c-10-1.86-35.9 10.09-42.55-7.89 8.27 7.02 33.7-4.99 42.55 7.89" class="ba" fill="#594035"></path><path d="M329.14 62.43v95.26c0 9.49 28.29 9.49 28.29 0V62.43z" fill="url(#1770301554670-1869814_l)"></path><path d="m329.14 141.49 17.34 23.16c5.12-.52 9.62-2.36 10.7-5.5l-28.04-37.41zM357.43 120l-28.29-37.78v19.76l28.29 37.76zm0-39.53-13.5-18.03h-14.79v.02l28.29 37.76z" class="ax" style="isolation:isolate" fill="#2449ff" opacity=".3"></path><path d="M358.08 60.81c1.04-6.62-29.65-6.89-29.67-1.02-.02 4.47-.89 7.12-.91 10.6-.2 17.97 5.75-5.53 5.21 5.63-.71 15.22-2.84 36.34.54 34.51 1.77-.93-.05-16.54 1.33-28.83.99-8.93 5.67-8.68 6.61-2.73 4.22 26.62 11.93-21.36 13.03-.16.64 12.47-2.1 58.02 1.95 54.27 4.3-3.95-2.09-47.99 1.25-56.52 2.87-7.29-.98-5.35.66-15.75" fill="url(#1770301554670-1869814_m)"></path><path d="M354.65 60.33c-2.47 3.46-19.76 3.11-22.1.27-1.93-2.36 4.92-4.23 10.75-2.83 7.36 1.73 12.43 1.05 11.35 2.56" class="bc" fill="#9dc6dd"></path><path d="M343.83 0c-2.18 10.91-28.38 51.22-2.25 51.22 24.17 0 9.68-41.57 2.25-51.22" fill="url(#1770301554670-1869814_n)"></path><path d="M341.58 51.22c-18.01 0-2.73-32.7 3.93-43.38.69 20.27 12.83 43.38-3.93 43.38" fill="url(#1770301554670-1869814_o)"></path><path d="M341.88 49.24c-7.95 0-5.21-19.99 2.59-33.87-.93 16.43 6.9 33.87-2.59 33.87" fill="url(#1770301554670-1869814_p)"></path><path d="M344.68 61.27c-.38 1.55-2.47 1.01-2.18-.58 2.51-14.25-2.22-15.95-2.88-19.93-.19-1.17 3.23-2.16 3.25-1.7.15 2.74 4.17 12.96 1.82 22.21Z" fill="url(#1770301554670-1869814_q)"></path><path d="M364.27 163.47c-9.78-1.83-35.1 9.86-41.59-7.71 8.07 6.86 32.92-4.87 41.59 7.71" class="ba" fill="#594035"></path><path d="M154.96 62.43v95.26c0 9.49 28.3 9.49 28.3 0V62.43z" fill="url(#1770301554670-1869814_r)"></path><path d="m154.96 141.49 17.33 23.16c5.11-.52 9.61-2.36 10.7-5.5l-28.04-37.41v19.75Zm28.3-21.49-28.3-37.78v19.76l28.3 37.76zm0-39.53-13.52-18.03h-14.78v.02l28.3 37.76z" class="ax" style="isolation:isolate" fill="#2449ff" opacity=".3"></path><path d="M183.9 60.81c1.18-6.95-26.39-7.47-28.94-1.13-1.86 4.61.53 4.11-.27 10.6-2.21 17.84 4.37-5.42 3.84 5.75-.71 15.22-2.98 22.66.4 20.85 1.77-.95.1-2.88 1.47-15.16 1-8.93 5.66-8.68 6.61-2.73 4.22 26.62 11.93-21.36 13.03-.16.65 12.47-2.67 32.26 1.38 28.53 4.3-3.96-1.51-22.24 1.83-30.77 2.85-7.3-1.11-5.38.64-15.76Z" fill="url(#1770301554670-1869814_s)"></path><path d="M158.19 60.31c3.65 5.84 20.38 2.67 22.08.3 1.95-2.68-4.91-4.8-10.74-3.22-7.36 1.97-12.43 1.19-11.34 2.92" class="bc" fill="#9dc6dd"></path><path d="M169.64 0c-2.17 10.91-28.37 51.22-2.23 51.22 24.15 0 9.65-41.57 2.23-51.22" fill="url(#1770301554670-1869814_t)"></path><path d="M167.41 51.22c-18.02 0-2.74-32.7 3.92-43.38.68 20.27 12.82 43.38-3.92 43.38" fill="url(#1770301554670-1869814_u)"></path><path d="M167.69 49.24c-7.94 0-5.2-19.99 2.59-33.87-.92 16.43 6.9 33.87-2.59 33.87" fill="url(#1770301554670-1869814_v)"></path><path d="M170.49 61.27c-.38 1.55-2.47 1.01-2.18-.58 2.51-14.25-2.21-15.95-2.88-19.93-.2-1.17 3.23-2.16 3.25-1.7.15 2.74 4.16 12.96 1.81 22.21" fill="url(#1770301554670-1869814_w)"></path><path d="M190.09 163.47c-9.78-1.83-35.1 9.86-41.6-7.71 8.08 6.86 32.94-4.87 41.6 7.71" class="ba" fill="#594035"></path><path d="M115.88 209.58c1.54 5.02-4.73 6.92-6.25 1.9-3.5-11.44-.35-1.14-3.94-12.89-1.54-5.03 4.72-6.94 6.25-1.9 4.01 13.12.44 1.46 3.94 12.89" class="az" fill="#f80"></path><path d="M197.23 232.71c4.58 2.59 1.36 8.25-3.23 5.67-10.45-5.89-1.04-.59-11.78-6.64-4.6-2.6-1.37-8.27 3.22-5.67 12 6.76 1.33.75 11.78 6.65Z" class="at" fill="#48c2f9"></path><path d="M161.29 201.61c-5.25.54-5.91-5.95-.67-6.49 11.93-1.22 1.18-.13 13.47-1.37 5.25-.54 5.91 5.95.67 6.49-13.71 1.39-1.53.15-13.47 1.37" class="au" fill="#ffe12c"></path><path d="M246.41 222.59c-4.26 3.11-8.12-2.14-3.87-5.25 9.67-7.07.96-.69 10.91-7.98 4.25-3.11 8.12 2.14 3.87 5.25-11.1 8.14-1.24.9-10.91 7.98" class="aw" fill="#ff4638"></path><path d="M326.03 220.29c1.54 5.03-4.74 6.92-6.25 1.9-3.51-11.43-.36-1.13-3.95-12.89-1.54-5.04 4.73-6.94 6.25-1.91 4.02 13.13.45 1.47 3.94 12.89Z" class="az" fill="#f80"></path><path d="M373.5 210.4c4.58 2.59 1.36 8.25-3.22 5.66-10.45-5.89-1.05-.58-11.78-6.63-4.6-2.6-1.37-8.27 3.23-5.67 11.99 6.77 1.32.76 11.78 6.65Z" class="bb" fill="#89cc14"></path><path d="M287.2 238.99c-5.25.54-5.91-5.94-.67-6.48 11.93-1.22 1.19-.13 13.47-1.38 5.24-.54 5.91 5.95.66 6.49-13.7 1.4-1.52.15-13.46 1.37" class="av" fill="#fc8da8"></path><path d="M409.68 217.26c-4.24 3.11-8.12-2.14-3.87-5.25 9.68-7.07.96-.69 10.91-7.98 4.24-3.11 8.12 2.14 3.87 5.25-11.12 8.14-1.23.9-10.91 7.98" class="aw" fill="#ff4638"></path><path d="M258.57 401.32c-1.54-5.03 4.73-6.92 6.25-1.9 3.5 11.44.35 1.13 3.95 12.89 1.54 5.04-4.74 6.94-6.26 1.91-4.02-13.12-.45-1.46-3.94-12.89Z" class="az" fill="#f80"></path><path d="M157.17 366.23c-4.58-2.59-1.36-8.25 3.22-5.67 10.45 5.9 1.05.59 11.78 6.64 4.6 2.6 1.37 8.27-3.23 5.67-11.97-6.77-1.31-.76-11.77-6.65Z" class="at" fill="#48c2f9"></path><path d="M178.79 408.93c4.25-3.11 8.12 2.14 3.87 5.25-9.68 7.07-.96.7-10.91 7.98-4.25 3.11-8.12-2.14-3.87-5.24 11.11-8.14 1.24-.91 10.91-7.99" class="aw" fill="#ff4638"></path><path d="M64.85 359.37c-1.54-5.02 4.73-6.92 6.25-1.9 3.5 11.44.35 1.14 3.94 12.89 1.54 5.04-4.73 6.94-6.26 1.9-4-13.12-.44-1.46-3.93-12.89" class="az" fill="#f80"></path><path d="M37.17 391.09c-4.58-2.59-1.36-8.25 3.23-5.66 10.45 5.89 1.05.58 11.78 6.64 4.6 2.59 1.37 8.27-3.22 5.67-11.99-6.77-1.33-.75-11.78-6.65Z" class="bb" fill="#89cc14"></path><path d="M122.95 384.81c5.25-.54 5.91 5.95.67 6.49-11.93 1.22-1.18.13-13.47 1.37-5.26.54-5.91-5.94-.67-6.48 13.71-1.4 1.53-.16 13.47-1.38" class="av" fill="#fc8da8"></path><path d="M22.69 338.07c4.25-3.11 8.13 2.14 3.87 5.25-9.68 7.07-.96.69-10.91 7.98-4.25 3.11-8.12-2.14-3.87-5.25 11.11-8.13 1.25-.9 10.91-7.98" class="aw" fill="#ff4638"></path><path d="M335.65 412.91c-5.09 1.39-6.82-4.88-1.75-6.27 11.58-3.19 1.16-.32 13.05-3.59 5.09-1.41 6.84 4.86 1.75 6.27-13.28 3.65-1.48.4-13.05 3.59" class="at" fill="#48c2f9"></path><path d="M400.19 371.7c.79-5.19 7.27-4.22 6.47.97-1.83 11.82-.18 1.18-2.04 13.33-.8 5.19-7.28 4.21-6.47-.97 2.07-13.59.23-1.54 2.04-13.33" class="au" fill="#ffe12c"></path><path d="M475.13 350.7c-4.67-2.47-1.59-8.22 3.06-5.75 10.6 5.62 1.05.55 11.94 6.34 4.68 2.47 1.6 8.23-3.07 5.75-12.15-6.46-1.35-.73-11.93-6.34" class="az" fill="#f80"></path><path d="M218.72 383.62c-5.08 1.4-6.81-4.87-1.74-6.26 11.58-3.19 1.17-.32 13.05-3.6 5.09-1.4 6.84 4.88 1.74 6.28-13.28 3.66-1.48.39-13.05 3.58" class="bb" fill="#89cc14"></path><path d="M314.97 366.27c3.33-4.07 8.4.03 5.08 4.11-7.59 9.26-.75.91-8.55 10.45-3.34 4.08-8.41-.04-5.07-4.11 8.7-10.64.96-1.18 8.54-10.45" class="av" fill="#fc8da8"></path><path d="M458.77 381.58c.79-5.19 7.27-4.21 6.47.98-1.82 11.81-.18 1.17-2.05 13.32-.79 5.2-7.27 4.21-6.47-.97 2.08-13.58.23-1.51 2.05-13.33" class="aw" fill="#ff4638"></path><path d="M114.99 165.99c-3.62-1.45-1.81-5.93 1.81-4.48 8.26 3.31.83.33 9.31 3.73 3.63 1.46 1.83 5.94-1.81 4.48-9.47-3.8-1.06-.42-9.31-3.73" class="av" fill="#fc8da8"></path><path d="M206.16 156.2c-3.56.74-4.47-3.66-.91-4.39 8.11-1.67.81-.18 9.14-1.89 3.56-.73 4.47 3.67.9 4.39-9.28 1.93-1.02.21-9.13 1.89" class="bb" fill="#89cc14"></path><path d="M212.56 179.23c-3.81-.82-2.78-5.53 1.03-4.71 8.7 1.89.88.18 9.8 2.12 3.81.84 2.79 5.54-1.03 4.72-9.98-2.17-1.11-.24-9.8-2.13" class="at" fill="#48c2f9"></path><path d="M165.7 177.13c-3.82.79-4.8-3.93-.98-4.72 8.71-1.81.87-.18 9.82-2.03 3.83-.79 4.82 3.93.98 4.73-9.99 2.07-1.1.23-9.82 2.02" class="az" fill="#f80"></path><path d="M288.88 158.09c-3.63-1.45-1.81-5.93 1.81-4.48 8.27 3.31.84.32 9.31 3.73 3.63 1.46 1.83 5.93-1.81 4.48-9.46-3.79-1.05-.43-9.31-3.73" class="aw" fill="#ff4638"></path><path d="M371.68 159.43c-3.55.73-4.46-3.67-.91-4.39 8.12-1.67.82-.18 9.15-1.89 3.56-.73 4.47 3.66.9 4.39-9.28 1.93-1.02.21-9.13 1.89Z" class="bb" fill="#89cc14"></path><path d="M391.8 172.19c-3.81-.82-2.78-5.53 1.03-4.71 8.7 1.89.87.18 9.8 2.12 3.81.84 2.79 5.55-1.03 4.72-9.97-2.17-1.1-.24-9.8-2.13" class="at" fill="#48c2f9"></path><path d="M315.24 183.73c-3.82.79-4.8-3.94-.99-4.72 8.71-1.81.88-.19 9.83-2.04 3.82-.79 4.81 3.94.97 4.74-9.98 2.06-1.09.22-9.81 2.02" class="au" fill="#ffe12c"></path><path d="M220.23 331.17c-3.62-1.45-1.81-5.93 1.82-4.48 8.25 3.31.82.33 9.3 3.73 3.64 1.46 1.83 5.94-1.8 4.48-9.48-3.8-1.06-.43-9.32-3.73" class="av" fill="#fc8da8"></path><path d="M45.96 308.76c-3.56.73-4.47-3.67-.91-4.39 8.11-1.67.81-.17 9.14-1.89 3.56-.73 4.48 3.66.9 4.39-9.28 1.92-1.02.2-9.13 1.89" class="bb" fill="#89cc14"></path><path d="M353.1 332.08c-3.81-.82-2.78-5.54 1.03-4.72 8.7 1.89.87.19 9.8 2.12 3.81.84 2.79 5.55-1.03 4.73-9.98-2.18-1.11-.24-9.8-2.13" class="at" fill="#48c2f9"></path><path d="M100.76 325.07c-3.82.79-4.8-3.93-.98-4.72 8.71-1.81.87-.19 9.82-2.04 3.83-.78 4.82 3.94.98 4.74-9.98 2.06-1.1.23-9.82 2.02" class="az" fill="#f80"></path><path d="M294.17 333.28c-3.62-1.45-1.82-5.93 1.8-4.48 8.27 3.31.84.32 9.32 3.73 3.63 1.46 1.82 5.93-1.82 4.48-9.47-3.8-1.06-.44-9.3-3.73" class="aw" fill="#ff4638"></path><path d="M143.31 328.35c-3.24-1.62-1.22-5.64 2.02-4.01 7.4 3.7.73.37 8.35 4.17 3.24 1.63 1.23 5.64-2.03 4-8.48-4.23-.94-.47-8.34-4.16" class="bb" fill="#89cc14"></path><path d="M421.87 322.98c-3.81-.82-2.78-5.53 1.02-4.71 8.71 1.89.88.18 9.8 2.12 3.81.84 2.8 5.55-1.03 4.72-9.97-2.17-1.1-.24-9.8-2.13Z" class="at" fill="#48c2f9"></path><path d="M446.3 300.25c-3.82.79-4.81-3.94-.99-4.72 8.72-1.81.88-.19 9.82-2.04 3.83-.79 4.82 3.94.98 4.74-9.98 2.05-1.1.22-9.81 2.02" class="au" fill="#ffe12c"></path></g></svg>
