<svg xmlns="http://www.w3.org/2000/svg" data-name="Layer 1" style="" viewBox="0 0 512 511.99"><g><defs><radialGradient id="1770301554678-2589434_d" cx="377.78" cy="-3.29" r="195.2" fx="377.78" fy="-3.29" gradientTransform="matrix(.67 0 0 -.72 -92.57 250.84)" gradientUnits="userSpaceOnUse"><stop offset="0" stop-color="#83b52d"></stop><stop offset=".26" stop-color="#72a127"></stop><stop offset=".78" stop-color="#466c17"></stop><stop offset="1" stop-color="#325410"></stop></radialGradient><radialGradient id="1770301554678-2589434_e" cx="377.78" cy="62.78" r="199.63" fx="377.78" fy="62.78" gradientTransform="matrix(.67 0 0 -.72 -92.57 250.84)" gradientUnits="userSpaceOnUse"><stop offset="0" stop-color="#92c932"></stop><stop offset=".23" stop-color="#8ec531"></stop><stop offset=".47" stop-color="#83b92c"></stop><stop offset=".71" stop-color="#6fa425"></stop><stop offset=".94" stop-color="#54881c"></stop><stop offset="1" stop-color="#4d8019"></stop></radialGradient><radialGradient id="1770301554678-2589434_f" cx="377.78" cy="98.55" r="161.33" fx="377.78" fy="98.55" gradientTransform="matrix(.67 0 0 -.72 -92.57 250.84)" gradientUnits="userSpaceOnUse"><stop offset="0" stop-color="#83b52d"></stop><stop offset=".26" stop-color="#72a127"></stop><stop offset=".78" stop-color="#466c17"></stop><stop offset="1" stop-color="#325410"></stop></radialGradient><radialGradient id="1770301554678-2589434_g" cx="377.78" cy="149.84" r="162.04" fx="377.78" fy="149.84" gradientTransform="matrix(.67 0 0 -.72 -92.57 250.84)" gradientUnits="userSpaceOnUse"><stop offset="0" stop-color="#92c932"></stop><stop offset=".23" stop-color="#8ec531"></stop><stop offset=".47" stop-color="#83b92c"></stop><stop offset=".71" stop-color="#6fa425"></stop><stop offset=".94" stop-color="#54881c"></stop><stop offset="1" stop-color="#4d8019"></stop></radialGradient><radialGradient id="1770301554678-2589434_h" cx="381.92" cy="176.8" r="128.43" fx="381.92" fy="176.8" gradientTransform="matrix(.67 0 0 -.72 -92.57 250.84)" gradientUnits="userSpaceOnUse"><stop offset="0" stop-color="#83b52d"></stop><stop offset=".26" stop-color="#72a127"></stop><stop offset=".78" stop-color="#466c17"></stop><stop offset="1" stop-color="#325410"></stop></radialGradient><radialGradient id="1770301554678-2589434_i" cx="381.92" cy="218.4" r="123.69" fx="381.92" fy="218.4" gradientTransform="matrix(.67 0 0 -.72 -92.57 250.84)" gradientUnits="userSpaceOnUse"><stop offset="0" stop-color="#92c932"></stop><stop offset=".23" stop-color="#8ec531"></stop><stop offset=".47" stop-color="#83b92c"></stop><stop offset=".71" stop-color="#6fa425"></stop><stop offset=".94" stop-color="#54881c"></stop><stop offset="1" stop-color="#4d8019"></stop></radialGradient><radialGradient id="1770301554678-2589434_j" cx="377.79" cy="246.81" r="88.78" fx="377.79" fy="246.81" gradientTransform="matrix(.67 0 0 -.72 -92.57 250.84)" gradientUnits="userSpaceOnUse"><stop offset="0" stop-color="#83b52d"></stop><stop offset=".26" stop-color="#72a127"></stop><stop offset=".78" stop-color="#466c17"></stop><stop offset="1" stop-color="#325410"></stop></radialGradient><radialGradient id="1770301554678-2589434_k" cx="377.77" cy="487.96" r="82.15" fx="377.77" fy="487.96" gradientTransform="matrix(.67 0 0 -1.44 -92.57 749.14)" gradientUnits="userSpaceOnUse"><stop offset="0" stop-color="#92c932"></stop><stop offset=".23" stop-color="#8ec531"></stop><stop offset=".47" stop-color="#83b92c"></stop><stop offset=".71" stop-color="#6fa425"></stop><stop offset=".94" stop-color="#54881c"></stop><stop offset="1" stop-color="#4d8019"></stop></radialGradient><radialGradient id="1770301554678-2589434_l" cx="356.43" cy="180.86" r="123.96" fx="356.43" fy="180.86" gradientTransform="matrix(.94 0 0 -.98 -17.7 482.3)" gradientUnits="userSpaceOnUse"><stop offset="0" stop-color="#ffc166"></stop><stop offset=".22" stop-color="#fdbc5c"></stop><stop offset=".59" stop-color="#f6ae43"></stop><stop offset="1" stop-color="#ed9a1f"></stop></radialGradient><radialGradient id="1770301554678-2589434_m" cx="356.43" cy="-344.41" r="135.06" fx="356.43" fy="-344.41" gradientTransform="matrix(.94 0 0 -.56 -17.7 188.76)" gradientUnits="userSpaceOnUse"><stop offset=".27" stop-color="#99a8ae"></stop><stop offset=".47" stop-color="#96a4ab"></stop><stop offset=".65" stop-color="#8c9aa0"></stop><stop offset=".82" stop-color="#7b878f"></stop><stop offset=".99" stop-color="#646e77"></stop><stop offset="1" stop-color="#626c75"></stop></radialGradient><radialGradient id="1770301554678-2589434_n" cx="356.42" cy="111.64" r="149.99" fx="356.42" fy="111.64" gradientTransform="matrix(.94 0 0 -1.05 -17.7 534.17)" gradientUnits="userSpaceOnUse"><stop offset=".29" stop-color="#73868c"></stop><stop offset=".49" stop-color="#6e7f85"></stop><stop offset=".77" stop-color="#5f6d73"></stop><stop offset="1" stop-color="#4f585e"></stop></radialGradient><linearGradient id="1770301554678-2589434_b" x1="256" x2="256" y1="2" y2="172.67" gradientTransform="matrix(1 0 0 -1 0 513.99)" gradientUnits="userSpaceOnUse"><stop offset="0" stop-color="#9be323"></stop><stop offset="1" stop-color="#52a100"></stop></linearGradient><linearGradient id="1770301554678-2589434_c" x1="132.58" x2="186" y1="167.56" y2="167.56" gradientTransform="matrix(1 0 0 -1 0 513.99)" gradientUnits="userSpaceOnUse"><stop offset="0" stop-color="#91632e"></stop><stop offset=".2" stop-color="#8c5f2c"></stop><stop offset=".44" stop-color="#7d5425"></stop><stop offset=".7" stop-color="#65421b"></stop><stop offset=".98" stop-color="#43290c"></stop><stop offset="1" stop-color="#40270b"></stop></linearGradient><linearGradient id="1770301554678-2589434_o" x1="346.86" x2="346.86" y1="63.36" y2="178.13" gradientTransform="matrix(.96 0 0 -.95 -15.55 490.15)" gradientUnits="userSpaceOnUse"><stop offset="0" stop-color="#5b666e"></stop><stop offset=".32" stop-color="#59636b"></stop><stop offset=".55" stop-color="#525963"></stop><stop offset=".76" stop-color="#464955"></stop><stop offset=".95" stop-color="#353341"></stop><stop offset="1" stop-color="#302c3b"></stop></linearGradient><linearGradient id="1770301554678-2589434_p" x1="315.73" x2="315.73" y1="79.19" y2="198.08" gradientTransform="matrix(1 0 0 -1 0 513.99)" gradientUnits="userSpaceOnUse"><stop offset="0" stop-color="#ffc166"></stop><stop offset=".17" stop-color="#faba5c"></stop><stop offset=".45" stop-color="#eda843"></stop><stop offset=".81" stop-color="#d88b19"></stop><stop offset="1" stop-color="#cc7a00"></stop></linearGradient></defs><ellipse cx="256" cy="426.66" rx="256" ry="85.33" fill="url(#1770301554678-2589434_b)"></ellipse><path d="M180.3 310.37h-42.02s-5.7 42.56-5.7 64.23c0 10.5 53.42 10.5 53.42 0 0-12.98-5.7-64.23-5.7-64.23" fill="url(#1770301554678-2589434_c)"></path><path d="M318.58 330.14s-66.88-22.03-158.9-175.09C150.59 139.94 115.96 262.95 0 330.14c0 0 34.38 9 94.25-7.08 6.2-1.65-9.8 21.87-9.8 21.87s43.45-18.85 59.35-17.72c13.52.95 47.15 25.42 47.15 25.42s11.17-30.85 16.52-28.3c19.53 9.34 53.77 17.24 53.77 17.24s-23.31-21.53-17.02-21.53 74.36 10.09 74.36 10.09Z" fill="url(#1770301554678-2589434_d)"></path><path d="M318.58 291.84s-66.88-24.29-158.9-192.89C150.59 82.29 115.96 217.82 0 291.84c0 0 34.38 9.92 94.25-7.8 6.2-1.83-9.8 24.08-9.8 24.08s43.45-20.77 59.35-19.53c13.52 1.08 45.52 25.25 45.52 25.25s5.44-30.53 10.79-27.72c19.53 10.28 61.13 18.29 61.13 18.29s-23.31-23.71-17.02-23.71 74.36 11.14 74.36 11.14" fill="url(#1770301554678-2589434_e)"></path><path d="M34.87 246.69s52.95-20.13 124.82-159.93c7.1-13.82 33.45 98.57 124.03 159.93 0 0-24.48 8.93-71.27-5.75-4.83-1.52 1.26 21.6 1.26 21.6s-29.2-19.57-41.62-18.55c-10.56.89-38.72 30.37-38.72 30.37s-11.87-35.37-16.07-33.03c-15.25 8.52-37.65 15.79-37.65 15.79s18.22-19.67 13.29-19.67-58.08 9.25-58.08 9.25Z" fill="url(#1770301554678-2589434_f)"></path><path d="M34.87 208.57s52.95-20.15 124.82-159.95c7.1-13.82 33.45 98.59 124.03 159.95 0 0-26.85 8.22-73.62-6.45-4.83-1.55 7.65 19.95 7.65 19.95s-26.77-15.95-39.17-14.92c-10.56.89-41.04 31.56-41.04 31.56s-5.95-37.25-10.14-34.9c-15.27 8.53-47.75 15.16-47.75 15.16s18.22-19.67 13.29-19.67c-4.91 0-58.07 9.26-58.07 9.26Z" fill="url(#1770301554678-2589434_g)"></path><path d="M266.39 171.01s-46.43-14.2-106.7-112.79c-5.95-9.74-26 69.51-101.96 112.79 0 0 22.52 5.8 61.73-4.55 4.05-1.08-6.42 14.08-6.42 14.08s30.32-11.05 40.71-10.32c8.87.61 30.8 19.78 30.8 19.78s4.63-22.37 8.15-20.72c12.78 6.02 36.11 9.05 36.11 9.05s-15.27-13.85-11.14-13.85 48.72 6.52 48.72 6.52Z" fill="url(#1770301554678-2589434_h)"></path><path d="M261.85 142.33s-44.52-14.2-102.17-112.79c-5.68-9.75-24.76 69.51-97.43 112.79 0 0 21.53 5.79 59.07-4.58 3.87-1.05-8.06 21.12-8.06 21.12s32.14-17.96 42.09-17.25c8.48.61 23.29 17.25 23.29 17.25s5.65-21.53 9-19.88c12.24 6.02 38.3 10.7 38.3 10.7s-14.6-13.88-10.67-13.88c3.95 0 46.59 6.53 46.59 6.53Z" fill="url(#1770301554678-2589434_i)"></path><path d="M89.81 108.09s29.73-10.63 69.87-84.46c3.97-7.27 18.5 52.07 69.1 84.46 0 0-6.8 3.34-32.91-4.4-2.7-.8-3.92 11.52-3.92 11.52s-12.5-12.07-19.43-11.52c-5.9.44-23.07 20.02-23.07 20.02s-5.61-19.37-7.97-18.13c-8.52 4.51-28.33 14.25-28.33 14.25s11.85-16.61 9.1-16.61-32.44 4.88-32.44 4.88Z" fill="url(#1770301554678-2589434_j)"></path><path d="M95.48 85.06s27.35-10.62 64.2-84.45c3.65-7.29 16.96 52.05 63.42 84.45 0 0-6.42 2.15-30.4-5.6-2.48-.8-3.43 12.73-3.43 12.73s-14.41-10.88-20.79-10.35c-5.4.49-16.18 12.85-16.18 12.85s-7.22-13.36-9.35-12.15c-7.83 4.51-24.48 8.01-24.48 8.01s9.34-10.39 6.82-10.39-29.8 4.89-29.8 4.89Z" fill="url(#1770301554678-2589434_k)"></path><path d="M170.33 379.53c-5.5 13.32-10.25 27.96-13.88 44.28l5.35 1.77c3.8-17.07 8.83-32.33 14.74-46.05h-6.2Zm284.62 0c5.88 13.71 10.91 28.98 14.72 46.05l5.35-1.77c-3.64-16.32-8.38-30.97-13.88-44.28z" fill="#cfd8dd"></path><path d="M462.34 381.98c-46.98-138.21-146.6-154.14-146.6-154.14s-99.62 15.93-146.59 154.14z" fill="url(#1770301554678-2589434_l)"></path><path d="M455.6 381.98c-44.82-89.7-139.87-100.04-139.87-100.04s-95.05 10.33-139.87 100.04z" fill="#d47706"></path><path d="M468.44 423.21c-1.37 13.8-4.83 31.62-3.25 31.62 2.07 0 7.29-13.99 12.55-29.25 1.43-4.15-8.87-6.73-9.3-2.36Zm-305.39 0c1.35 13.8 4.81 31.62 3.25 31.62-2.08 0-7.3-13.99-12.57-29.25-1.41-4.15 8.87-6.73 9.32-2.36Z" fill="#302c3b"></path><path d="M315.73 285.35s-91.54 9.97-134.72 96.61h269.45c-43.18-86.65-134.73-96.61-134.73-96.61" fill="url(#1770301554678-2589434_m)"></path><path d="M450.47 381.98c-89.77-5.35-179.7-5.35-269.45 0-5.67 18.53-11.19 49.94-14.85 72.85 99.22-6.55 199.92-6.55 299.14 0-3.67-22.92-9.17-54.31-14.84-72.85" fill="url(#1770301554678-2589434_n)"></path><path d="M374.66 422.69c-1.55 9.63-116.32 9.63-117.85 0-3.75-23.5 11.32-70.66 19.25-93.34 4-11.38 75.35-11.38 79.35 0 7.94 22.67 23.01 69.84 19.25 93.34" fill="url(#1770301554678-2589434_o)"></path><path d="M314.32 318.34h2.57v78.83h-2.57z" class="ah" fill="#1a1626"></path><path d="M253.67 395.81h123.89v2.57H253.67z" class="ah" fill="#1a1626"></path><path d="M358.98 325.24c-4.37-12.43-82.12-12.43-86.49 0-8.65 24.69-25.05 76.1-20.98 101.7 1.66 10.49 126.76 10.49 128.44 0 4.09-25.6-12.31-77.01-20.97-101.7m15.68 97.45c-1.55 9.63-116.32 9.63-117.85 0-3.75-23.5 11.32-70.66 19.25-93.34 4-11.38 75.35-11.38 79.35 0 7.94 22.67 23.01 69.84 19.25 93.34" fill="url(#1770301554678-2589434_p)"></path></g></svg>
