<svg xmlns="http://www.w3.org/2000/svg" id="a" data-name="Layer 1" viewBox="0 0 512 512.01"><defs><linearGradient id="b" x1="-355.87" x2="-413.86" y1="1053.26" y2="1053.26" gradientTransform="rotate(-75 -212.786 914.156)scale(-1 1)" gradientUnits="userSpaceOnUse"><stop offset="0" stop-color="#db7600"/><stop offset="1" stop-color="#ffb700"/></linearGradient><linearGradient id="c" x1="-355.87" x2="-413.86" y1="1131.27" y2="1131.27" gradientTransform="rotate(-75 -212.786 914.156)scale(-1 1)" gradientUnits="userSpaceOnUse"><stop offset="0" stop-color="#e09500"/><stop offset=".62" stop-color="#ffe173"/><stop offset=".68" stop-color="#fddd6d"/><stop offset=".76" stop-color="#f8d15b"/><stop offset=".85" stop-color="#f0bd3d"/><stop offset=".95" stop-color="#e5a214"/><stop offset="1" stop-color="#e09500"/></linearGradient><linearGradient id="d" x1="-355.86" x2="-413.85" y1="1287.34" y2="1287.34" gradientTransform="rotate(-75 -212.786 914.156)scale(-1 1)" gradientUnits="userSpaceOnUse"><stop offset="0" stop-color="#c2cacf"/><stop offset=".11" stop-color="#ccd4d8"/><stop offset=".36" stop-color="#dde2e5"/><stop offset=".63" stop-color="#e6ebed"/><stop offset="1" stop-color="#e9eef0"/></linearGradient><linearGradient id="e" x1="430.72" x2="522.63" y1="307.5" y2="291.29" gradientTransform="rotate(195 -22.333 322.52)scale(-1 1)" gradientUnits="userSpaceOnUse"><stop offset=".42" stop-color="#d99025" stop-opacity="0"/><stop offset=".67" stop-color="#d99025" stop-opacity=".45"/><stop offset=".7" stop-color="#d99025" stop-opacity=".5"/><stop offset=".78" stop-color="#9e6d25" stop-opacity=".61"/><stop offset=".87" stop-color="#5c4624" stop-opacity=".75"/><stop offset=".93" stop-color="#332d24" stop-opacity=".85"/><stop offset=".96" stop-color="#232424" stop-opacity=".9"/></linearGradient><linearGradient id="f" x1="541.78" x2="541.78" y1="269.45" y2="329.47" gradientTransform="rotate(195 -22.333 322.52)scale(-1 1)" gradientUnits="userSpaceOnUse"><stop offset="0" stop-color="#474d4f"/><stop offset=".67" stop-color="#aaafb2"/><stop offset="1" stop-color="#d6dbde"/></linearGradient><linearGradient id="g" x1="438.73" x2="438.73" y1="121.47" y2="514.01" gradientTransform="matrix(1 0 0 -1 0 514.01)" gradientUnits="userSpaceOnUse"><stop offset="0" stop-color="#a9b0b3"/><stop offset=".32" stop-color="#bdc4c7"/><stop offset=".96" stop-color="#eff6fc"/><stop offset="1" stop-color="#f2f9ff"/></linearGradient><linearGradient id="h" x1="357.58" x2="357.58" y1="6.11" y2="328.15" gradientTransform="rotate(162.96 24.61 272.528)scale(-1 .98)" gradientUnits="userSpaceOnUse"><stop offset="0" stop-color="#a9b0b3"/><stop offset=".32" stop-color="#bdc4c7" stop-opacity=".68"/><stop offset=".96" stop-color="#eff6fc" stop-opacity=".04"/><stop offset="1" stop-color="#f2f9ff" stop-opacity="0"/></linearGradient><style>.s{isolation:isolate;fill:#6e8189;opacity:.05}</style></defs><path d="M5.64 383.97c-14.08-3.77.93-59.79 15.02-56l136.71 36.63-15.02 56S42.49 393.85 5.64 383.97" style="fill:url(#b)"/><path d="M142.34 420.6c-14.08-3.76.91-59.79 15.02-56l14 3.75-15.02 56.01-14-3.75Z" style="fill:url(#c)"/><path d="M156.35 424.36c-14.08-3.78.93-59.79 15.02-56.01 41.28 11.07 287.5 77.04 287.5 77.04l-15.02 56s-250.65-67.17-287.5-77.03" style="fill:url(#d)"/><path d="M458.86 445.38c-.67-.18-1.42-.38-2-.54-14.08-3.76-29.1 52.24-15.02 56.01.56.15 1.35.35 2 .54-14.08-3.78.94-59.79 15.02-56.01" class="s"/><path d="M446.29 442.01c-.65-.18-1.42-.39-2-.54-14.08-3.76-29.1 52.24-15.02 56.01.56.15 1.35.35 2.01.54-14.1-3.78.91-59.79 15-56.01Z" class="s"/><path d="M433.72 438.64c-.65-.17-1.42-.38-2-.54-14.08-3.76-29.1 52.23-15 56.01.56.15 1.33.36 2 .54-14.1-3.76.92-59.78 15-56.01" class="s"/><path d="M421.15 435.27c-.65-.18-1.42-.38-2-.54-14.08-3.77-29.08 52.24-15 56.01.56.15 1.33.36 2 .54-14.08-3.77.92-59.79 15-56.01" class="s"/><path d="M408.59 431.91c-.65-.18-1.42-.38-2-.54-14.08-3.77-29.08 52.24-15 56.01.56.15 1.33.36 2 .54-14.08-3.78.91-59.79 15-56.01" class="s"/><path d="M396.02 428.55c-.65-.18-1.42-.38-2-.54-14.08-3.78-29.08 52.23-15 56 .56.16 1.33.37 2 .54-14.08-3.77.92-59.79 15-56" class="s"/><path d="M383.46 425.18c-.65-.18-1.42-.38-2-.54-14.08-3.76-29.08 52.24-15 56.01.56.15 1.33.35 2 .54-14.09-3.78.91-59.79 15-56.01" class="s"/><path d="M370.89 421.81c-.65-.17-1.42-.38-2-.54-14.08-3.76-29.08 52.23-15 56.01.56.15 1.33.35 2 .54-14.08-3.77.91-59.79 15-56.01" class="s"/><path d="M358.34 418.44c-.67-.17-1.43-.38-2.01-.54-14.08-3.76-29.08 52.23-15 56.01.56.15 1.33.36 2 .54-14.08-3.76.94-59.78 15.02-56.01Z" class="s"/><path d="M345.78 415.07c-.67-.18-1.43-.38-2-.54-14.08-3.77-29.1 52.24-15.02 56.01.56.15 1.33.36 2 .54-14.09-3.77.91-59.79 15.02-56.01" class="s"/><path d="M333.21 411.7c-.67-.18-1.42-.38-2-.54-14.08-3.77-29.1 52.24-15.02 56 .56.16 1.35.37 2 .54-14.08-3.76.93-59.78 15.02-56" class="s"/><path d="M320.64 408.35c-.65-.18-1.43-.38-2-.54-14.08-3.77-29.1 52.24-15.02 56 .56.16 1.33.36 2 .54-14.08-3.77.94-59.79 15.02-56" class="s"/><path d="M308.08 404.98c-.65-.18-1.42-.39-2-.54-14.08-3.77-29.1 52.24-15.02 56.01.56.15 1.35.35 2 .54-14.09-3.78.93-59.79 15.02-56.01" class="s"/><path d="M295.51 401.61c-.65-.17-1.42-.38-2-.54-14.08-3.76-29.1 52.23-15.02 56.01.56.15 1.35.35 2.01.54-14.1-3.77.91-59.79 15-56.01Z" class="s"/><path d="M282.94 398.24c-.65-.18-1.42-.38-2-.54-14.08-3.77-29.1 52.23-15 56.01.56.15 1.33.35 2 .54-14.07-3.78.92-59.78 15-56.01" class="s"/><path d="M270.38 394.87c-.65-.18-1.42-.38-2-.54-14.08-3.77-29.08 52.24-14.99 56.01.56.15 1.33.36 2 .54-14.09-3.76.91-59.79 14.99-56.01" class="s"/><path d="M257.81 391.51c-.65-.18-1.42-.38-2-.54-14.08-3.77-29.08 52.24-15 56 .56.16 1.33.37 2 .54-14.08-3.76.92-59.78 15-56" class="s"/><path d="M245.25 388.14c-.65-.18-1.42-.38-2-.54-14.08-3.77-29.08 52.24-15 56 .56.16 1.33.36 2 .54-14.08-3.77.91-59.79 15-56" class="s"/><path d="M232.68 384.77c-.65-.17-1.42-.38-2-.54-14.08-3.77-29.08 52.23-15 56.01.56.15 1.33.35 2 .54-14.08-3.77.92-59.79 15-56.01" class="s"/><path d="M220.11 381.4c-.65-.17-1.42-.38-1.98-.54-14.1-3.76-29.1 52.23-15.02 56.01.56.15 1.33.35 2 .54-14.08-3.77.92-59.78 15-56.01" class="s"/><path d="M207.56 378.04c-.67-.18-1.43-.38-2.01-.54-14.08-3.77-29.08 52.23-15 56.01.56.15 1.33.35 2 .54-14.08-3.78.93-59.79 15.02-56.01Z" class="s"/><path d="M18.5 372.04c-2.6-2 1.24-11.19 2.59-9.63 4.28 4.88.52 11.99-2.59 9.63m79.14 3.47c3.15.85 3.15 10.79 1.3 9.88-5.81-2.88-5.07-10.88-1.3-9.88m-58.85-1.17c3.13.67 2.94 9.2 1.12 8.46-5.75-2.36-4.85-9.24-1.12-8.46m-14.4-28.82c-3.15.05-3.85-6.84-2-6.57 5.88.83 5.73 6.5 2 6.57m96.55 42.33c-3.15.05-3.85-6.84-2-6.57 5.88.83 5.73 6.51 2 6.57m-34.93-31.49c1.1 3.07-7.07 8.74-7.36 6.71-.97-6.43 6.02-10.38 7.36-6.71m-25.96 23.56c-3.45-.51-7.05-13.55-4.88-12.69 6.79 2.68 8.96 13.31 4.88 12.69m15.59 16.47c-1.8-2.97 5.93-14.05 6.65-11.87 2.3 6.95-4.5 15.4-6.65 11.87m-34.53-42.73c-1.8-2.98 5.93-14.06 6.66-11.87 2.29 6.95-4.51 15.39-6.66 11.87m92.17 16.6c-2.62 2.3-14.9-3.38-12.85-4.48 6.43-3.47 15.95 1.74 12.85 4.48m-21.17 34.83c1.02-3.32 14.45-4.88 13.29-2.88-3.67 6.3-14.52 6.83-13.29 2.88" style="isolation:isolate;fill:#ffe12c;opacity:.3"/><path d="m362.17 479.5 15.02-56 81.67 21.88-15.01 56.01z" style="fill:url(#e)"/><path d="M432.79 498.24s8.3-2.41 8.6-4.86c.14-1.07-3.02-1.9-3.08-2.98-.07-1.02 2.25-2.22 2.6-3.18.9-2.45-.55-7.91.1-10.43.7-2.65 5.03-6.86 5.27-9.58.09-1.04-1.43-2.93-1.37-3.99.15-2.01 3.29-5.21 3.69-7.19.3-1.54-1.6-5.2-.47-6.29.5-.49 2.31.82 2.75.28.7-.89-1.96-2.62-2.38-3.68-.35-.89.56-3.6.56-3.6s14.39 1.37 22.52 6.03c5.68 3.27 16.68 5.05 21.49 6.82 31.82 11.7 7.13 55.45-8.93 56.39-4.1.24-9.35-3.97-15.2-5.5-3.58-.91-12.54-.8-16.12-1.72-5.48-1.38-20.03-6.53-20.03-6.53Z" style="fill:url(#f)"/><path d="M493.06 455.61s11.77 7.69 10.82 9.92c-.4.97-3.55.12-4.15 1-.55.83.87 3 .68 3.98-.44 2.52-4.39 6.43-5.07 8.87-.7 2.59.96 8.29-.17 10.72-.44.93-2.7 1.77-3.15 2.71-.89 1.77.25 6.02-.38 7.9-.49 1.46-3.95 3.61-3.5 5.09.18.66 2.41.45 2.52 1.13.18 1.1-2.99 1.25-3.88 1.94-.75.58-2.65 3.14-2.65 3.14s11.32.06 15.45-2.53c6.54-4.09 14.35-22.92 11.98-28.1-1.82-3.99.35-15.83-2.43-19.25-3.78-4.67-16.07-6.52-16.07-6.52" style="fill:#51585c"/><path d="M463.45 455.17c.26 2.53-2.47 7.37-2.45 9.92.03 2.67 3.22 7.7 2.78 10.35-.17 1.02-2.1 2.44-2.29 3.46-.35 1.95 4.97 8.64-.63 16.88-4.09 6.01 3.74-1.19 7-4.8 5.16-5.73-2.36-18.25 0-23.43 2.62-5.73-4.53-13.39-4.41-12.38m16.42 28.61c.45-1.46 3.13-3.47 3.74-4.88.61-1.48.09-5.03.96-6.37.33-.52 1.73-.84 2.08-1.36.67-.99-.65-5.96 4.42-9.16 3.7-2.33-2.35-.25-5.02.95-4.23 1.94-3.08 10.64-5.65 12.94-2.82 2.53-.73 8.47-.54 7.88Z" style="isolation:isolate;opacity:.3;fill:#2f2e30"/><path d="M505.64 480.24c-.47 1.47-3.13 3.47-3.74 4.88-.63 1.49-.09 5.03-.96 6.38-.33.51-1.75.84-2.1 1.35-.65.99.67 5.96-4.4 9.16-3.7 2.33 2.35.25 5.02-.95 4.23-1.93 3.08-10.64 5.63-12.94 2.83-2.52.73-8.47.55-7.88" style="isolation:isolate;opacity:.3;fill:#fff"/><path d="M455.81 392.54c3.05-47.8 48.38-69.19-52.83-170.22C294.49 113.84 455.81 72.08 455.81 0c0 0 26.04 28.72-10.35 96.7-43.67 81.16 103.08 104.75 57.74 220.86-15.6 39.93-37.19 46.91-47.39 74.97Z" style="fill:url(#g);opacity:.6;isolation:isolate"/><path d="M363.78 118.95s-16.9 63.47 79.16 118.17c104.97 59.79-4.04 126.87 12.89 182.04 0 0-26-16.04-14.9-76.31 15.63-85.25-148.35-47.93-77.15-223.9" style="opacity:.6;isolation:isolate;fill:url(#h)"/></svg>