<svg xmlns="http://www.w3.org/2000/svg" data-name="Layer 1" style="" viewBox="0 0 512 512.01"><g><defs><linearGradient id="1770301554682-6234541_c" x1="256" x2="256" y1="217.47" y2="420.14" gradientTransform="matrix(1 0 0 -1 0 514.01)" gradientUnits="userSpaceOnUse"><stop offset="0" stop-color="#dbe3e6"></stop><stop offset=".88" stop-color="#f2f8fc"></stop><stop offset="1" stop-color="#f6fbff"></stop></linearGradient><linearGradient id="1770301554682-6234541_d" x1="130.26" x2="255.99" y1="101.03" y2="101.03" gradientTransform="matrix(1 0 0 -1 0 514.01)" gradientUnits="userSpaceOnUse"><stop offset="0" stop-color="#cf0000"></stop><stop offset=".14" stop-color="#dd0004"></stop><stop offset=".5" stop-color="#ff000e"></stop></linearGradient><linearGradient id="1770301554682-6234541_e" x1="255.99" x2="381.73" y1="101.03" y2="101.03" gradientTransform="matrix(1 0 0 -1 0 514.01)" gradientUnits="userSpaceOnUse"><stop offset=".5" stop-color="#ff000e"></stop><stop offset=".86" stop-color="#dd0004"></stop><stop offset="1" stop-color="#cf0000"></stop></linearGradient><linearGradient id="1770301554682-6234541_f" x1="300.16" x2="371.49" y1="456.03" y2="456.03" gradientTransform="matrix(1 0 0 -1 0 514.01)" gradientUnits="userSpaceOnUse"><stop offset=".11" stop-color="#cf0000"></stop><stop offset=".2" stop-color="#d70002"></stop><stop offset=".48" stop-color="#ed0009"></stop><stop offset=".75" stop-color="#fa000d"></stop><stop offset="1" stop-color="#ff000e"></stop></linearGradient><linearGradient id="1770301554682-6234541_g" x1="258.34" x2="317.86" y1="460.21" y2="460.21" gradientTransform="matrix(1 0 0 -1 0 514.01)" gradientUnits="userSpaceOnUse"><stop offset="0" stop-color="#cf0000"></stop><stop offset=".27" stop-color="#dd0004"></stop><stop offset="1" stop-color="#ff000e"></stop></linearGradient><linearGradient id="1770301554682-6234541_h" x1="249.47" x2="262.53" y1="449.19" y2="449.19" gradientTransform="matrix(1 0 0 -1 0 514.01)" gradientUnits="userSpaceOnUse"><stop offset="0" stop-color="#9ca4a6"></stop><stop offset=".08" stop-color="#b6bec0"></stop><stop offset=".17" stop-color="#ced6d8"></stop><stop offset=".27" stop-color="#dfe7e9"></stop><stop offset=".37" stop-color="#eaf1f4"></stop><stop offset=".5" stop-color="#edf4f7"></stop><stop offset="1" stop-color="#9ca4a6"></stop></linearGradient><linearGradient id="1770301554682-6234541_j" x1="251.46" x2="260.54" y1="485.63" y2="485.63" gradientTransform="matrix(1 0 0 -1 0 514.01)" gradientUnits="userSpaceOnUse"><stop offset="0" stop-color="#9ca4a6"></stop><stop offset=".02" stop-color="#a2aaac"></stop><stop offset=".13" stop-color="#bac2c4"></stop><stop offset=".24" stop-color="#cbd3d5"></stop><stop offset=".36" stop-color="#d5dde0"></stop><stop offset=".5" stop-color="#d8e0e3"></stop><stop offset="1" stop-color="#9ca4a6"></stop></linearGradient><radialGradient id="1770301554682-6234541_b" cx="256" cy="520.26" r="190.31" fx="256" fy="520.26" gradientTransform="matrix(1 0 0 -3 0 1953.77)" gradientUnits="userSpaceOnUse"><stop offset=".5" stop-color="#e8000e"></stop><stop offset="1" stop-color="#cf0000"></stop></radialGradient><radialGradient id="1770301554682-6234541_i" cx="252.73" cy="505.29" r="16.74" fx="252.73" fy="505.29" gradientTransform="matrix(1 0 0 -1 0 514.01)" gradientUnits="userSpaceOnUse"><stop offset="0" stop-color="#edf4f7"></stop><stop offset=".19" stop-color="#e7eef1"></stop><stop offset=".46" stop-color="#d5dcdf"></stop><stop offset=".77" stop-color="#b7bfc1"></stop><stop offset="1" stop-color="#9ca4a6"></stop></radialGradient></defs><path d="M462.17 290.76H49.83c0 79.7-42.8 182.17-42.8 182.17 0 9.69 27.26 17.13 69.02 22.28h359.87c41.78-5.16 69.05-12.58 69.05-22.28 0 0-42.8-102.46-42.8-182.17" fill="url(#1770301554682-6234541_b)"></path><path d="M435.95 495.21c-30.2 5.74-110.26 8.8-110.26 8.8l-12.92-214.17h99.59s1.17 116.48 23.59 205.37m-359.9 0c30.2 5.74 110.27 8.8 110.27 8.8l12.9-214.17H99.64s-1.18 116.48-23.6 205.37Z" fill="#dde4e8"></path><path d="M7.14 464.62C.49 478.27 0 486.79 0 486.79c0 7.86 28.02 13.9 70.97 18.09h370.05c42.95-4.19 70.98-10.22 70.98-18.09 0 0-.49-8.51-7.13-22.17-13.41 4.47-37.82 8.08-68.97 10.81-16.3 34.81-342.21 28.31-359.68 0C45 472.7 20.54 469.1 7.13 464.61Z" class="u" fill="#ff000e"></path><path d="M76.14 475.43c-2.48 10.11-5.17 29.44-5.17 29.44 31.06 4.65 113.38 7.14 113.38 7.14l1.39-30.98c-40.42-1-78.39-2.86-109.61-5.59Zm250.12 5.59 1.39 30.98s82.33-2.49 113.38-7.14c0 0-2.69-19.32-5.16-29.44-31.23 2.75-69.18 4.6-109.61 5.6" fill="#eff6fa"></path><path d="M256 68.27C245.48 157.41 134.97 289.84 0 289.84h512c-134.98 0-245.49-132.43-256-221.57" fill="#e30000"></path><path d="M256 93.87C218.42 256.3 99.64 289.83 99.64 289.83s47.23 15.1 99.6 0c0 0 49.38-36.5 56.77-163.58 7.41 127.08 56.77 163.58 56.77 163.58 52.38 15.1 99.59 0 99.59 0S293.58 256.31 256 93.87" fill="url(#1770301554682-6234541_c)"></path><path d="m256 313.51-90.77 198.5h181.54z" fill="#1a1626"></path><path d="M165.43 512.01s-20.9 0-35.17-44.72c0 0 35.29-4.97 125.73-153.34 0 .02-44.74 198.06-90.56 198.06" fill="url(#1770301554682-6234541_d)"></path><path d="M346.56 512.01s20.9 0 35.17-44.72c0 0-35.28-4.97-125.74-153.34 0 .02 44.76 198.06 90.57 198.06" fill="url(#1770301554682-6234541_e)"></path><path d="M300.16 33.77v48.42c22.84-.3 48.5-8.38 71.33-24.2-22.83-.31-48.49-8.38-71.33-24.22" fill="url(#1770301554682-6234541_f)"></path><path d="M317.86 80.44c-19.05-6.48-40.47-6.48-59.52 0V32.02c19.05-6.48 40.47-6.48 59.52 0z" fill="url(#1770301554682-6234541_g)"></path><path d="M249.47 30.55v67c0 3.9 13.06 3.9 13.06 0V30.56c0-1.85-13.06-1.86-13.06 0Z" fill="url(#1770301554682-6234541_h)"></path><circle cx="256" cy="13.06" r="13.06" fill="url(#1770301554682-6234541_i)"></circle><path d="M251.46 25.35v5.03c0 1.35 9.08 1.36 9.08 0v-5.03z" fill="url(#1770301554682-6234541_j)"></path><path d="M0 289.84c0 19.66 22.32 35.59 49.83 35.59s49.8-15.94 49.8-35.59zm512 0c0 19.66-22.31 35.59-49.83 35.59s-49.82-15.94-49.82-35.59zm-312.77 0c0 19.66 29.26 35.59 56.77 35.59s56.77-15.94 56.77-35.59z" class="u" fill="#ff000e"></path><path d="M99.63 289.84c0 19.66 22.32 35.59 49.83 35.59s49.77-15.94 49.77-35.59zm312.73 0c0 19.66-22.31 35.59-49.83 35.59s-49.77-15.94-49.77-35.59z" fill="#fff"></path></g></svg>
