<svg xmlns="http://www.w3.org/2000/svg" id="a" data-name="Layer 1" viewBox="0 0 512 392.53"><defs><linearGradient id="b" x1="187.13" x2="187.13" y1="159.03" y2="220.35" gradientTransform="matrix(1 0 0 -1 0 380.53)" gradientUnits="userSpaceOnUse"><stop offset="0" stop-color="#302c3b"/><stop offset=".29" stop-color="#454754"/><stop offset=".76" stop-color="#636d78"/><stop offset="1" stop-color="#6e7b85"/></linearGradient><linearGradient id="c" x1="282.21" x2="282.21" y1="159.03" y2="220.35" gradientTransform="matrix(1 0 0 -1 0 380.53)" gradientUnits="userSpaceOnUse"><stop offset="0" stop-color="#302c3b"/><stop offset=".29" stop-color="#454754"/><stop offset=".76" stop-color="#636d78"/><stop offset="1" stop-color="#6e7b85"/></linearGradient><linearGradient id="d" x1="377.3" x2="377.3" y1="159.03" y2="220.35" gradientTransform="matrix(1 0 0 -1 0 380.53)" gradientUnits="userSpaceOnUse"><stop offset="0" stop-color="#302c3b"/><stop offset=".29" stop-color="#454754"/><stop offset=".76" stop-color="#636d78"/><stop offset="1" stop-color="#6e7b85"/></linearGradient><linearGradient id="e" x1="472.38" x2="472.38" y1="159.03" y2="220.35" gradientTransform="matrix(1 0 0 -1 0 380.53)" gradientUnits="userSpaceOnUse"><stop offset="0" stop-color="#302c3b"/><stop offset=".29" stop-color="#454754"/><stop offset=".76" stop-color="#636d78"/><stop offset="1" stop-color="#6e7b85"/></linearGradient><linearGradient id="f" x1="407.82" x2="407.82" y1="291.02" y2="328.15" gradientTransform="matrix(1 0 0 -1 0 380.53)" gradientUnits="userSpaceOnUse"><stop offset="0" stop-color="#302c3b"/><stop offset=".29" stop-color="#454754"/><stop offset=".76" stop-color="#636d78"/><stop offset="1" stop-color="#6e7b85"/></linearGradient><linearGradient id="g" x1="10.26" x2="512" y1="58.27" y2="58.27" gradientTransform="matrix(1 0 0 -1 0 380.53)" gradientUnits="userSpaceOnUse"><stop offset="0" stop-color="#2289c7"/><stop offset=".25" stop-color="#2086c3"/><stop offset=".5" stop-color="#1a7cb7"/><stop offset=".75" stop-color="#0f6da3"/><stop offset="1" stop-color="#005688"/><stop offset="1" stop-color="#005687"/></linearGradient><style>.n{fill:#b3c2c6}.o{fill:#cfd8dd}.p{fill:#1a1626}.q{fill:#99a8ae}.r{fill:#014d87}</style></defs><path d="M131.66 143.08H512v105.69H131.66z" class="o"/><path d="M152.99 161.77h68.27v68.27h-68.27zm95.08 0h68.27v68.27h-68.27zm95.1 0h68.27v68.27h-68.27z" class="p"/><path d="M161.53 170.31h51.2v51.2h-51.2z" style="fill:url(#b)"/><path d="M256.61 170.31h51.2v51.2h-51.2z" style="fill:url(#c)"/><path d="M351.7 170.31h51.2v51.2h-51.2z" style="fill:url(#d)"/><path d="M438.25 161.77h68.27v68.27h-68.27z" class="p"/><path d="M446.78 170.31h51.2v51.2h-51.2z" style="fill:url(#e)"/><path d="M512 392.53H141.91c-63.05 0-95.09-102.07-95.09-102.07H512z" class="r"/><path d="M407.42 16.19c0 15.08-21.93 15.08-21.93 0s21.93-15.11 21.93 0" class="n"/><path d="m260.47 131.22 43.31-33.17H512v33.17z" class="o"/><path d="m293.5 43.85 10.28 54.2H512v-54.2z" class="p"/><path d="m303.64 52.39 7.05 37.12H512V52.39z" style="fill:url(#f)"/><path d="M287.43 36.68c-2.02.82-6.05 7.18-6.05 7.18H512V20.5s-184-.14-224.57 16.18" class="o"/><path d="M512 380.67S244.1 363 158.26 350.16c-134.6-20.12-148-86.3-148-86.3H512z" style="fill:url(#g)"/><path d="M8.53 206.09h162.13v8.53H8.53z" class="q"/><path d="M123.73 210.36h8.53v42.67h-8.53zm-38.4 0h8.53v42.67h-8.53zm-38.4 0h8.53v42.67h-8.53zm-38.4 0h8.53v42.67H8.53zm153.59 0h8.54v42.67h-8.54z" class="q"/><path d="M12.19 227.42h154.83v8.53H12.19z" class="q"/><path d="M376.47 0h39.97v8.27h-39.97z" class="o"/><path d="M342.37 214.78c-62.96 0-103.44 33.97-159.49 33.97H3.66c-2.02 0-3.66 1.7-3.66 3.77v7.56c0 2.07 1.64 3.77 3.66 3.77H512v-49.08H342.37Z" class="r"/><path d="M124.34 127.97H512v15.1H124.34z" class="n"/></svg>