<svg xmlns="http://www.w3.org/2000/svg" data-name="Layer 1" style="" viewBox="0 0 512 352"><g><defs><linearGradient id="1770301554694-775435_b" x1="256" x2="256" y1="2" y2="274.44" gradientTransform="matrix(1 0 0 -1 0 354)" gradientUnits="userSpaceOnUse"><stop offset="0" stop-color="#5f727d"></stop><stop offset=".48" stop-color="#21282b"></stop></linearGradient><linearGradient id="1770301554694-775435_c" x1="0" x2="512" y1="245.87" y2="245.87" gradientTransform="matrix(1 0 0 -1 0 354)" gradientUnits="userSpaceOnUse"><stop offset="0" stop-color="#5f727d"></stop><stop offset=".48" stop-color="#323d42"></stop></linearGradient><linearGradient id="1770301554694-775435_d" x1="231.62" x2="280.36" y1="259.78" y2="259.78" gradientTransform="matrix(1 0 0 -1 0 354)" gradientUnits="userSpaceOnUse"><stop offset="0" stop-color="#323d42"></stop><stop offset="1" stop-color="#5f727d"></stop></linearGradient><linearGradient id="1770301554694-775435_e" x1="97.27" x2="108.16" y1="160.39" y2="160.39" gradientTransform="matrix(1 0 0 -1 0 354)" gradientUnits="userSpaceOnUse"><stop offset=".22" stop-color="#ffc31f"></stop><stop offset=".42" stop-color="#f7b817"></stop><stop offset=".76" stop-color="#e29903"></stop><stop offset=".81" stop-color="#de9400"></stop></linearGradient><linearGradient id="1770301554694-775435_f" x1="83.64" x2="121.48" y1="139.69" y2="139.69" gradientTransform="matrix(1 0 0 -1 0 354)" gradientUnits="userSpaceOnUse"><stop offset=".22" stop-color="#ffc31f"></stop><stop offset=".42" stop-color="#f7b817"></stop><stop offset=".76" stop-color="#e29903"></stop><stop offset=".81" stop-color="#de9400"></stop></linearGradient><linearGradient id="1770301554694-775435_g" x1="88.89" x2="116.23" y1="113.98" y2="113.98" gradientTransform="matrix(1 0 0 -1 0 354)" gradientUnits="userSpaceOnUse"><stop offset="0" stop-color="#e39f16"></stop><stop offset=".07" stop-color="#eea81c"></stop><stop offset=".18" stop-color="#fbb324"></stop><stop offset=".29" stop-color="#ffb726"></stop><stop offset=".29" stop-color="#ffb726"></stop><stop offset=".57" stop-color="#cf931a"></stop><stop offset=".77" stop-color="#b17c13"></stop><stop offset=".89" stop-color="#a67410"></stop></linearGradient></defs><path d="M404.35 263.73C404.35 299.12 256 352 256 352s-148.35-52.88-148.35-88.27c0-245.56 296.7-245.56 296.7 0" fill="url(#1770301554694-775435_b)"></path><path d="M512 108.13H0v12.1l256 108.15 256-108.15z" class="o" fill="#1a1626"></path><path d="M256 0 0 108.13l256 108.14 256-108.14z" fill="url(#1770301554694-775435_c)"></path><path d="M104.91 198.34h-4.42v-30.09c0-16.84 4.83-21.19 15.56-24.38 25.75-7.62 61.42-16.06 86.74-23.9 0 0 24.06-13.41 33.17-19.58 10.4-7.05 35.54-14.46 35.54-14.46 8.49-1.69 14.43 4.86 13.77 10.67-.67 5.72-7.41 13.52-53.97 23.26-29.78 6.21-82.5 20.46-113.3 28.57-10.1 2.66-13.09 7.43-13.09 19.82v30.08ZM274.34 90.58c-18.53 2.54-36.53 14.91-55.91 26.36 55.85-8.92 72.34-21.38 55.91-26.36" fill="#b0751e"></path><path d="M256.02 94.24h-24.39v7.38c0 15.25 48.74 15.25 48.74 0v-7.38h-24.34Z" class="o" fill="#1a1626"></path><path d="M280.36 94.24c0 15.22-48.74 15.22-48.74 0s48.74-15.26 48.74 0" fill="url(#1770301554694-775435_d)"></path><path d="M108.16 193.61c0 7.4-10.89 7.4-10.89 0 0-7.39 10.89-7.39 10.89 0" fill="url(#1770301554694-775435_e)"></path><path d="M102.56 194.62c-8.08 0-29 14.62-13.12 35.36 6.54 5.36 19.7 5.36 26.23 0 15.9-20.74-5.04-35.36-13.11-35.36" fill="url(#1770301554694-775435_f)"></path><path d="M111.18 244.94c16.1 36.92 10.54 98.86 10.95 99.31.34.38 1.61.38 1.95 0 .4-.45 5.7-61.95-10.25-99.31h-2.66Z" class="p" fill="#ffc31f"></path><path d="M108.74 244.94c15.81 37.03 9.67 100.83 10.09 101.3.34.38 1.6.4 1.94.04.44-.46 6.28-63.84-9.39-101.34z" class="n" fill="#f5b300"></path><path d="M107.03 244.94c16.39 36.8 8.74 101.43 9.14 101.9.34.39 1.59.47 1.94.11.45-.45 7.78-64.69-8.43-102.02h-2.65Z" class="p" fill="#ffc31f"></path><path d="M106.2 244.94c15.36 37.18 7.04 102.63 7.46 103.13.32.41 1.57.48 1.94.15.47-.46 8.46-65.54-6.77-103.27h-2.62Z" class="p" fill="#ffc31f"></path><path d="M104.46 244.94c15 40 6.83 103.83 7.22 104.31.33.4 1.58.5 1.94.16.46-.42 8.32-64.05-6.55-104.47z" class="n" fill="#f5b300"></path><path d="M103.58 244.94c12.11 44.85 6.26 102.06 6.62 102.5.31.4 1.58.48 1.94.1.39-.39 6.08-57.5-6-102.6z" class="p" fill="#ffc31f"></path><path d="M101.83 244.94c11.94 41.42 5.63 101.5 6 101.95.32.4 1.58.5 1.94.14.42-.39 6.48-60.38-5.39-102.1h-2.55Z" class="p" fill="#ffc31f"></path><path d="M100.18 244.94c11.59 45.74 4.69 104.12 5.04 104.56.31.41 1.57.52 1.94.17.42-.37 7.1-58.77-4.44-104.74h-2.54Z" class="n" fill="#f5b300"></path><path d="M98.39 244.94c12.13 44.22 4.06 104.06 4.41 104.53.31.42 1.56.56 1.95.23.43-.38 8.25-60.22-3.81-104.77h-2.55Z" class="p" fill="#ffc31f"></path><path d="M100.18 244.94c4.44 49.7 1.64 106.3 2.02 106.72.32.4 1.58.47 1.94.12.41-.41 3.06-57.03-1.46-106.83h-2.5Z" class="n" fill="#f5b300"></path><path d="M91.38 244.94c-15.73 37.4-10.46 98.3-10.06 98.74.34.38 1.62.38 1.94 0 .42-.45-5.09-61.76 10.76-98.74z" class="p" fill="#ffc31f"></path><path d="M93.32 244.94c-15.68 37.5-9.71 100.89-9.29 101.34.36.36 1.62.34 1.95-.04.42-.47-5.83-64.27 9.98-101.3z" class="n" fill="#f5b300"></path><path d="M97.7 244.94h-2.57c-16.23 37.33-8.82 101.64-8.37 102.08.37.37 1.62.3 1.94-.1.41-.48-7.34-65.17 9.06-101.95l-.07-.03Z" class="p" fill="#ffc31f"></path><path d="M98.98 244.94h-2.64c-15.6 37.59-7.47 103.61-7 104.06.36.34 1.62.26 1.94-.15.42-.5-8.07-66.87 7.7-103.91" class="n" fill="#f5b300"></path><path d="M100.53 244.94h-2.59c-14.7 40.44-6.84 103.63-6.39 104.08.36.34 1.62.23 1.94-.18.39-.48-7.75-63.89 7.05-103.9Z" class="p" fill="#ffc31f"></path><path d="M100.9 244.94h-2.55c-11.07 45.54-5.58 101.14-5.2 101.54.36.36 1.62.29 1.94-.14.34-.42-5.25-56.1 5.81-101.41Z" class="n" fill="#f5b300"></path><path d="M103.7 244.94h-2.55c-11.86 41.71-5.87 101.7-5.46 102.1.36.36 1.62.26 1.94-.14.37-.44-5.87-60.53 6.06-101.95Z" class="p" fill="#ffc31f"></path><path d="M105.42 244.94h-2.53c-11.45 45.94-4.89 104.1-4.48 104.47.38.35 1.62.22 1.94-.18.34-.44-6.42-58.61 5.06-104.3Z" class="p" fill="#ffc31f"></path><path d="M107.62 244.94h-2.55c-11.97 44.51-4.22 104.12-3.78 104.5.37.32 1.62.17 1.93-.23.35-.47-7.62-60.07 4.41-104.27Z" class="n" fill="#f5b300"></path><path d="M106.17 244.94h-2.5c-5.1 46.52-2.34 101.63-1.97 102.01.37.34 1.62.29 1.95-.1.35-.39-2.57-55.5 2.52-101.9Z" class="p" fill="#ffc31f"></path><path d="M88.89 229.43h27.34v21.18H88.89z" fill="url(#1770301554694-775435_g)"></path></g></svg>
