<svg xmlns="http://www.w3.org/2000/svg" data-name="Layer 1" style="" viewBox="0 0 512 435.16"><g><defs><linearGradient id="1770301554702-5357749_b" x1="256" x2="256" y1="193.96" y2="415.83" gradientTransform="matrix(1 0 0 -1 0 437.16)" gradientUnits="userSpaceOnUse"><stop offset="0" stop-color="#4e5e67"></stop><stop offset="1" stop-color="#6e8189"></stop></linearGradient></defs><path d="M469.33 264.53H42.67L0 426.07h512z" fill="#777d80"></path><path d="M0 426.07c0 12.12 512 12.12 512 0z" class="m" fill="#666b6e"></path><path d="M42.67 264.53h426.67V8.11c0-4.44-3.67-8.11-8.11-8.11H50.77c-4.52 0-8.11 3.67-8.11 8.11v256.43Z" fill="#302c3b"></path><path d="M46.93 21.33h418.13V243.2H46.93z" fill="url(#1770301554702-5357749_b)"></path><path d="M259.41 10.67c0 4.52-6.74 4.52-6.74 0s6.74-4.52 6.74 0m-78.93 0c0 4.52-6.74 4.52-6.74 0s6.74-4.52 6.74 0" class="o" fill="#4e5e67"></path><path d="M218.71 10.67c0 2.82-4.27 2.82-4.27 0s4.27-2.82 4.27 0m78.93 0c0 2.82-4.27 2.82-4.27 0s4.27-2.82 4.27 0" fill="#1a1626"></path><path d="M338.35 10.67c0 4.52-6.74 4.52-6.74 0s6.74-4.52 6.74 0" class="o" fill="#4e5e67"></path><path id="1770301554702-5357749_c" d="m247.04 249.6.77.77v.17l-.77.77h-.17l-.77-.77v-.09l.77-.77c.09-.09.17-.09.17-.09Z" class="i" data-name="diamond" fill="#b3c2c6"></path><path id="1770301554702-5357749_d" d="M259.24 251.82c1.19 0 2.13 1.02 2.13 2.3s-1.02 2.3-2.13 2.3c-.68 0-1.19-.26-1.54-.77v2.13q0 .09-.09.17c-.09 0-.09.09-.17.09h-.51q-.09 0-.17-.09s-.09-.09 0-.17v-5.8s.09-.09.17-.09h.51q.09 0 .17.09s.09.09.09.17v.43c.34-.43.85-.77 1.54-.77Zm-.08 3.67c.77 0 1.37-.6 1.37-1.37s-.6-1.37-1.37-1.37-1.37.6-1.37 1.37.51 1.37 1.37 1.37m2.98.77q-.09 0-.17-.09s-.09-.09 0-.17v-4.1s.09-.09.17-.09h.51s.09 0 .17.09c0 0 .09.09.09.17V256q0 .09-.09.17s-.09.09-.17.09zm4.78-.17c.09.09 0 .26-.17.26h-.51c-.09 0-.17-.09-.26-.17l-.85-1.28-.85 1.28c-.09.09-.17.17-.26.17h-.6c-.17 0-.26-.09-.09-.26l1.28-1.96-1.19-1.88c-.09-.17 0-.26.09-.26h.6c.09 0 .17.09.26.17l.77 1.19.77-1.19c0-.09.17-.17.26-.17h.6c.17 0 .17.09.17.26l-1.19 1.88 1.19 1.96Zm2.22-4.27c1.28 0 2.13 1.02 2.13 2.3v.26q0 .09-.09.17c-.09 0-.09.09-.17 0h-3.24c.17.68.68 1.11 1.37 1.11.34 0 .68-.17.94-.43.09-.09.17-.09.26-.09h.51c.17 0 .26.09.17.26-.34.68-1.02 1.11-1.88 1.11-1.37 0-2.3-.94-2.3-2.3.09-1.37 1.02-2.39 2.3-2.39m-1.28 1.96h2.47c-.09-.77-.68-1.02-1.19-1.02-.68-.09-1.11.34-1.28 1.02m4.1 2.48s-.09 0-.17-.09c0 0-.09-.09-.09-.17v-5.8q0-.09.09-.17s.09-.09.17-.09h.51q.09 0 .17.09s.09.09.09.17v5.8q0 .09-.09.17s-.09.09-.17.09zm2.3-3.08c0 .85 2.39.26 2.39 1.88 0 .85-.77 1.37-1.71 1.37-.85 0-1.62-.43-1.71-1.19q0-.09.09-.17s.09-.09.17-.09h.51c.09 0 .17.09.17.17.09.34.34.43.77.43s.77-.17.77-.51c0-.85-2.39-.26-2.39-1.88 0-.85.77-1.37 1.62-1.37s1.54.43 1.62 1.28v.17c-.09 0-.09.09-.17.09h-.51c-.09 0-.17-.09-.17-.17-.09-.34-.34-.43-.68-.43-.43-.09-.77.09-.77.43Z" class="i" data-name="pixels" fill="#b3c2c6"></path><path id="1770301554702-5357749_e" d="M247.21 251.99q.09 0 .17.09c.09 0 .09.09.09.17v4.27c0 1.11-.51 1.71-1.54 1.71q-.09 0-.17-.09s-.09-.09-.09-.17v-.51q0-.09.09-.17s.09-.09.17-.09c.43 0 .68-.26.68-.77v-4.44c.09 0 .09-.09.17-.09h.43zm3.07 4.44c-1.28 0-2.3-1.02-2.22-2.3 0-1.28 1.02-2.3 2.3-2.3s2.3 1.02 2.3 2.3c0 .6-.26 1.19-.68 1.62-.6.43-1.11.68-1.71.68Zm0-.94c.6 0 1.02-.34 1.28-.85.17-.51.09-1.11-.26-1.45-.43-.43-.94-.51-1.45-.34s-.85.68-.85 1.28c0 .34.09.68.34.94.17.26.51.43.94.43Zm5.21-3.33c0-.09.09-.17.26-.17h.6c.17 0 .17.09.17.26l-1.96 5.72c0 .09-.09.17-.26.17h-.6c-.17 0-.26-.09-.17-.26l.51-1.54-1.62-4.01c-.09-.17 0-.26.17-.26h.6c.09 0 .17.09.26.17l1.11 2.82.94-2.9Z" class="i" data-name="joy" fill="#b3c2c6"></path><path id="1770301554702-5357749_f" d="M239.45 250.88c1.71 0 3.07 1.37 3.07 3.07s-1.37 3.07-3.07 3.07-3.07-1.37-3.07-3.07 1.37-3.07 3.07-3.07m0-1.02c-2.3 0-4.1 1.79-4.1 4.1s1.88 4.1 4.1 4.1 4.1-1.88 4.1-4.1c0-1.11-.43-2.13-1.19-2.9-.77-.77-1.88-1.19-2.9-1.19Z" class="i" data-name="Shape" fill="#b3c2c6"></path><path id="1770301554702-5357749_g" d="M240.21 254.38q-.09 0-.17-.09s-.09-.09 0-.17v-.6c.09 0 .09-.09.17-.09h1.37q.09 0 .17.09s.09.09 0 .17v.17c0 .94-.6 1.79-1.45 2.22-.85.34-1.88.17-2.56-.51 0 0-.09-.09-.09-.17s0-.09.09-.17l.43-.43s.09-.09.17-.09c0 0 .09 0 .17.09.34.34.77.43 1.28.34.43-.09.77-.43.94-.85h-.51v.09Z" class="i" data-name="Combined-Shape" fill="#b3c2c6"></path><path d="M357.12 416.43c.17 2.22-1.45 4.1-3.58 4.1H158.47c-2.13 0-3.75-1.88-3.58-4.1l5.8-47.7c.17-2.22 2.05-4.1 4.1-4.1h182.53c2.05 0 3.93 1.88 4.1 4.1l5.72 47.7Z" class="m" fill="#666b6e"></path><path d="M356.1 415.23c.17 2.22-1.45 4.01-3.5 4.01H159.41c-2.13 0-3.67-1.79-3.5-4.01l5.72-46.51c.17-2.22 1.96-4.01 4.1-4.01h180.74c2.05 0 3.93 1.79 4.01 4.01l5.63 46.51Z" fill="#a7aeb3"></path><path d="m22.53 356.61 22.7-88.66c.26-1.02 1.96-1.96 3.84-1.96h9.47c1.88 0 3.16.85 2.9 1.96l-20.91 88.66c-.34 1.28-2.22 2.39-4.27 2.39H25.68c-2.05-.09-3.5-1.11-3.16-2.39Zm448.94 0-20.99-88.66c-.26-1.02 1.02-1.96 2.9-1.96h9.47c1.88 0 3.58.85 3.84 1.96l22.7 88.66c.34 1.28-1.11 2.39-3.16 2.39h-10.58c-1.96-.09-3.93-1.11-4.18-2.39" class="m" fill="#666b6e"></path><path d="M83.03 282.2H64.34c-1.71 0-2.9-.85-2.65-1.88l2.65-11.18c.26-1.02 1.79-1.79 3.41-1.79H86.1c1.71 0 2.9.85 2.65 1.79l-2.3 11.18c-.17 1.02-1.71 1.88-3.41 1.88Zm26.96 0h-18.6c-1.71 0-2.9-.85-2.73-1.88l2.22-11.18c.17-1.02 1.71-1.79 3.41-1.79h18.35c1.71 0 2.9.85 2.73 1.79l-1.88 11.18c-.26 1.02-1.79 1.88-3.5 1.88m26.97 0h-18.6c-1.71 0-2.99-.85-2.73-1.88l1.88-11.18c.17-1.02 1.71-1.79 3.33-1.79h18.35c1.71 0 2.9.85 2.82 1.79l-1.54 11.18c-.26 1.02-1.79 1.88-3.5 1.88Zm26.97 0h-18.6c-1.71 0-2.99-.85-2.82-1.88l1.54-11.18c.17-1.02 1.62-1.79 3.24-1.79h18.35c1.71 0 2.99.85 2.82 1.79l-1.19 11.18c-.09 1.02-1.62 1.88-3.33 1.88Zm27.05 0h-18.6c-1.71 0-2.99-.85-2.9-1.88l1.19-11.18c.09-1.02 1.54-1.79 3.24-1.79h18.35c1.71 0 2.99.85 2.9 1.79l-.85 11.18c-.17 1.02-1.62 1.88-3.33 1.88m26.96 0h-18.6c-1.71 0-2.99-.85-2.99-1.88l.77-11.18c.09-1.02 1.45-1.79 3.16-1.79h18.35c1.71 0 2.99.85 2.99 1.79l-.43 11.18c-.17 1.02-1.54 1.88-3.24 1.88Zm26.97 0h-18.6c-1.71 0-3.07-.85-2.99-1.88l.43-11.18c0-1.02 1.45-1.79 3.07-1.79h18.35c1.71 0 2.99.85 2.99 1.79l-.09 11.18c0 1.02-1.45 1.88-3.16 1.88m26.96 0h-18.6c-1.71 0-3.07-.85-3.07-1.88l.09-11.18c0-1.02 1.37-1.79 3.07-1.79h18.35c1.71 0 3.07.85 3.07 1.79l.26 11.18c-.09 1.02-1.45 1.88-3.16 1.88Zm27.05 0h-18.6c-1.71 0-3.07-.85-3.16-1.88l-.26-11.18c0-1.02 1.28-1.79 2.99-1.79h18.35c1.71 0 3.07.85 3.16 1.79l.6 11.18c-.09 1.02-1.37 1.88-3.07 1.88Zm26.97 0H307.2c-1.71 0-3.16-.85-3.16-1.88l-.68-11.18c-.09-1.02 1.28-1.79 2.9-1.79h18.35c1.71 0 3.07.85 3.16 1.79l.94 11.18c.17 1.02-1.11 1.88-2.82 1.88m27.05 0h-18.6c-1.71 0-3.16-.85-3.24-1.88l-1.02-11.18c-.09-1.02 1.19-1.79 2.9-1.79h18.35c1.71 0 3.16.85 3.24 1.79l1.37 11.18c-.09 1.02-1.37 1.88-2.99 1.88Zm26.88 0h-18.6c-1.71 0-3.16-.85-3.33-1.88l-1.37-11.18c-.09-1.02 1.11-1.79 2.82-1.79h18.35c1.71 0 3.16.85 3.33 1.79l1.71 11.18c.09 1.02-1.19 1.88-2.9 1.88Zm27.05 0h-18.6c-1.71 0-3.24-.85-3.41-1.88l-1.71-11.18c-.17-1.02 1.11-1.79 2.73-1.79h18.35c1.71 0 3.16.85 3.33 1.79l2.05 11.18c.17 1.02-1.02 1.88-2.73 1.88Zm40.79 0h-32.43c-1.71 0-3.24-.85-3.41-1.88l-2.05-11.18c-.17-1.02 1.02-1.79 2.73-1.79h31.83c1.71 0 3.24.85 3.41 1.79l2.65 11.18c.09 1.02-1.11 1.88-2.73 1.88m-18.18 2.13h18.69c1.71 0 3.33.85 3.5 1.88l2.73 11.69c.26 1.02-.94 1.96-2.73 1.96h-19.03c-1.71 0-3.33-.85-3.58-1.96l-2.39-11.69c-.09-1.02 1.11-1.88 2.82-1.88Zm-27.05 0h18.69c1.71 0 3.24.85 3.5 1.88l2.3 11.69c.26 1.02-1.02 1.96-2.73 1.96h-19.03c-1.71 0-3.33-.85-3.5-1.96l-1.96-11.69c-.17-1.02 1.02-1.88 2.73-1.88m-27.05 0h18.69c1.71 0 3.24.85 3.41 1.88l1.96 11.69c.17 1.02-1.11 1.96-2.82 1.96h-19.03c-1.71 0-3.24-.85-3.41-1.96l-1.62-11.69c-.17-1.02 1.11-1.88 2.82-1.88m-27.13 0h18.69c1.71 0 3.24.85 3.33 1.88l1.62 11.69c.17 1.02-1.11 1.96-2.9 1.96h-19.03c-1.71 0-3.24-.85-3.33-1.96l-1.28-11.69c0-1.02 1.28-1.88 2.9-1.88m-26.97 0h18.69c1.71 0 3.16.85 3.33 1.88l1.19 11.69c.09 1.02-1.19 1.96-2.99 1.96h-19.03c-1.71 0-3.24-.85-3.33-1.96l-.85-11.69c-.09-1.02 1.28-1.88 2.99-1.88m-27.14 0h18.69c1.71 0 3.16.85 3.24 1.88l.85 11.69c.09 1.02-1.28 1.96-2.99 1.96H294.9c-1.71 0-3.16-.85-3.24-1.96l-.51-11.69c0-1.02 1.37-1.88 2.99-1.88m-26.96 0h18.69c1.71 0 3.16.85 3.16 1.88l.43 11.69c0 1.02-1.37 1.96-3.07 1.96h-19.03c-1.71 0-3.16-.85-3.16-1.96l-.09-11.69c-.09-1.02 1.37-1.88 3.07-1.88m-27.14 0h18.69c1.71 0 3.07.85 3.07 1.88l.09 11.69c0 1.02-1.37 1.96-3.16 1.96h-18.94c-1.71 0-3.16-.85-3.07-1.96l.26-11.69c0-1.02 1.45-1.88 3.07-1.88Zm-27.05 0h18.69c1.71 0 3.07.85 3.07 1.88l-.26 11.69c0 1.02-1.45 1.96-3.24 1.96h-19.03c-1.71 0-3.07-.85-3.07-1.96l.6-11.69c.17-1.02 1.54-1.88 3.24-1.88m-27.05 0h18.69c1.71 0 3.07.85 2.99 1.88l-.68 11.69c-.09 1.02-1.54 1.96-3.24 1.96h-19.03c-1.71 0-3.07-.85-2.99-1.96l1.02-11.69c.17-1.02 1.62-1.88 3.24-1.88m-27.05 0h18.69c1.71 0 2.99.85 2.9 1.88l-1.02 11.69c-.09 1.02-1.62 1.96-3.33 1.96H157.1c-1.71 0-3.07-.85-2.9-1.96l1.37-11.69c.17-1.02 1.62-1.88 3.33-1.88Zm-27.05 0h18.69c1.71 0 2.99.85 2.9 1.88l-1.45 11.69c-.17 1.02-1.62 1.96-3.41 1.96h-19.03c-1.71 0-2.99-.85-2.82-1.96l1.79-11.69c.17-1.02 1.71-1.88 3.33-1.88m-27.05 0h18.69c1.71 0 2.99.85 2.82 1.88l-1.79 11.69c-.17 1.02-1.71 1.96-3.41 1.96h-19.03c-1.71 0-2.99-.85-2.82-1.96l2.13-11.69c.17-1.02 1.71-1.88 3.41-1.88m-40.88 0h32.51c1.71 0 2.9.85 2.73 1.88l-2.13 11.69c-.17 1.02-1.79 1.96-3.5 1.96H60.33c-1.71 0-2.99-.85-2.73-1.96l2.73-11.69c.34-1.02 1.88-1.88 3.58-1.88m320.26 17.66h19.11c1.71 0 3.33.85 3.5 1.96l2.13 12.12c.17 1.11-1.11 2.05-2.9 2.05h-19.46c-1.79 0-3.33-.94-3.5-2.05l-1.79-12.12c-.09-1.11 1.11-1.96 2.9-1.96Zm-27.65 0h19.11c1.71 0 3.33.85 3.41 1.96l1.71 12.12c.17 1.11-1.19 2.05-2.9 2.05h-19.46c-1.79 0-3.33-.94-3.41-2.05l-1.37-12.12c-.17-1.11 1.19-1.96 2.9-1.96Zm-27.65 0h19.11c1.71 0 3.24.85 3.41 1.96l1.37 12.12c.09 1.11-1.19 2.05-2.99 2.05h-19.54c-1.79 0-3.33-.94-3.41-2.05l-1.02-12.12c.09-1.11 1.37-1.96 3.07-1.96m-27.56 0h19.11c1.71 0 3.24.85 3.33 1.96l.94 12.12c.09 1.11-1.28 2.05-3.07 2.05h-19.46c-1.79 0-3.24-.94-3.33-2.05l-.6-12.12c-.09-1.11 1.28-1.96 3.07-1.96Zm-27.65 0h19.11c1.71 0 3.24.85 3.24 1.96l.6 12.12c.09 1.11-1.37 2.05-3.16 2.05h-19.46c-1.79 0-3.24-.94-3.24-2.05l-.17-12.12c0-1.11 1.28-1.96 3.07-1.96Zm-27.64 0h19.11c1.71 0 3.16.85 3.16 1.96l.17 12.12c0 1.11-1.45 2.05-3.16 2.05h-19.46c-1.79 0-3.24-.94-3.16-2.05l.17-12.12c0-1.11 1.45-1.96 3.16-1.96Zm-27.65 0h19.11c1.71 0 3.16.85 3.16 1.96l-.26 12.12c0 1.11-1.45 2.05-3.24 2.05h-19.46c-1.79 0-3.16-.94-3.16-2.05l.6-12.12c.09-1.11 1.54-1.96 3.24-1.96Zm-27.56 0h19.11c1.71 0 3.16.85 3.07 1.96l-.6 12.12c-.09 1.11-1.54 2.05-3.33 2.05H189.6c-1.79 0-3.16-.94-3.07-2.05l.94-12.12c.09-1.11 1.54-1.96 3.33-1.96Zm-27.65 0h19.11c1.71 0 3.07.85 2.99 1.96l-1.02 12.12c-.09 1.11-1.62 2.05-3.41 2.05h-19.46c-1.79 0-3.16-.94-2.99-2.05l1.37-12.12c.17-1.11 1.62-1.96 3.41-1.96m-27.65 0h19.11c1.71 0 3.07.85 2.9 1.96l-1.37 12.12c-.09 1.11-1.71 2.05-3.41 2.05h-19.46c-1.79 0-3.07-.94-2.9-2.05l1.79-12.12c.09-1.11 1.62-1.96 3.33-1.96Zm-27.65 0h19.11c1.71 0 3.07.85 2.9 1.96l-1.88 12.2c-.17 1.11-1.71 2.05-3.5 2.05h-19.46c-1.79 0-3.07-.94-2.9-2.05l2.13-12.12c.34-1.19 1.88-2.05 3.58-2.05Zm-48.04 0h39.42c1.71 0 2.99.85 2.82 1.96l-2.22 12.12c-.17 1.11-1.79 2.05-3.58 2.05H56.15c-1.79 0-2.99-.94-2.73-2.05l2.82-12.12c.34-1.11 1.88-1.96 3.58-1.96m352.85 0h39.42c1.71 0 3.33.85 3.58 1.96l2.82 12.12c.26 1.11-.94 2.05-2.73 2.05h-40.19c-1.79 0-3.41-.94-3.58-2.05l-2.22-12.12c0-1.11 1.19-1.96 2.9-1.96m-275.03 38.49h26.45c1.79 0 3.24.94 3.07 2.13l-1.28 13.31c-.09 1.19-1.71 2.22-3.58 2.22h-26.97c-1.88 0-3.24-1.02-3.07-2.22l1.79-13.31c.17-1.19 1.79-2.13 3.58-2.13Zm180.14 0h26.45c1.79 0 3.41.94 3.5 2.13l1.37 13.31c.09 1.19-1.28 2.22-3.16 2.22h-26.97c-1.88 0-3.41-1.02-3.5-2.22l-.85-13.31c-.09-1.19 1.28-2.13 3.16-2.13m-143.96 0h134.74c1.79 0 3.33.94 3.41 2.13l.85 13.31c.09 1.19-1.37 2.22-3.24 2.22H172.19c-1.88 0-3.24-1.02-3.16-2.22l1.28-13.31c.17-1.19 1.71-2.13 3.5-2.13Zm-65.02 0h19.97c1.79 0 3.16.94 2.99 2.13l-1.88 13.31c-.17 1.19-1.79 2.22-3.67 2.22H105.9c-1.88 0-3.16-1.02-2.99-2.22l2.22-13.31c.26-1.19 1.79-2.13 3.67-2.13m244.82 0h19.97c1.79 0 3.41.94 3.58 2.13l1.79 13.31c.17 1.19-1.19 2.22-3.07 2.22h-20.31c-1.88 0-3.5-1.02-3.58-2.22l-1.37-13.31c-.17-1.19 1.19-2.13 2.99-2.13m29.78 8.62h20.14c1.88 0 3.5 1.02 3.67 2.22l.77 4.61c.17 1.19-1.11 2.22-2.99 2.22h-20.31c-1.88 0-3.5-1.02-3.67-2.22l-.6-4.61c-.26-1.19 1.11-2.22 2.99-2.22m30.47 0h20.14c1.88 0 3.5 1.02 3.75 2.22l.94 4.61c.26 1.19-1.11 2.22-2.9 2.22h-20.31c-1.88 0-3.5-1.02-3.75-2.22l-.77-4.61c-.26-1.19 1.02-2.22 2.9-2.22m-1.8-10.16h19.88c1.79 0 3.5.94 3.75 2.13l.85 4.52c.26 1.19-1.02 2.13-2.9 2.13h-20.14c-1.88 0-3.5-.94-3.67-2.13l-.77-4.44c-.17-1.19 1.19-2.22 2.99-2.22Zm30.81 10.16h20.14c1.88 0 3.58 1.02 3.84 2.22l1.02 4.61c.26 1.19-1.02 2.22-2.82 2.22h-20.31c-1.88 0-3.58-1.02-3.84-2.22l-.94-4.61c-.26-1.19 1.02-2.22 2.9-2.22Zm-362.92-8.62h19.97c1.79 0 3.16.94 2.9 2.13l-2.3 13.31c-.17 1.19-1.88 2.22-3.75 2.22H76.47c-1.88 0-3.16-1.02-2.9-2.22l2.65-13.31c.26-1.19 1.88-2.13 3.75-2.13Zm-28.93 0H71c1.79 0 3.07.94 2.9 2.13l-2.73 13.31c-.26 1.19-1.96 2.22-3.84 2.22H47.02c-1.88 0-3.16-1.02-2.82-2.22l3.07-13.31c.26-1.19 1.96-2.13 3.75-2.13Zm320.68-20.05h19.46c1.79 0 3.41.94 3.58 2.05l2.05 12.71c.17 1.19-1.11 2.13-2.99 2.13h-19.88c-1.79 0-3.41-.94-3.58-2.13l-1.62-12.71c-.17-1.11 1.19-2.05 2.99-2.05Zm-28.24 0h19.46c1.79 0 3.33.94 3.5 2.05l1.62 12.71c.17 1.19-1.19 2.13-2.99 2.13h-19.88c-1.79 0-3.41-.94-3.5-2.13l-1.19-12.71c-.09-1.11 1.19-2.05 2.99-2.05Zm-28.25 0h19.46c1.79 0 3.33.94 3.41 2.05l1.19 12.71c.09 1.19-1.28 2.13-3.07 2.13h-19.88c-1.79 0-3.33-.94-3.41-2.13l-.85-12.71c0-1.11 1.37-2.05 3.16-2.05Zm-28.24 0h19.46c1.79 0 3.24.94 3.33 2.05l.77 12.71c.09 1.19-1.37 2.13-3.16 2.13h-19.8c-1.79 0-3.33-.94-3.33-2.13l-.43-12.71c0-1.11 1.37-2.05 3.16-2.05m-28.16 0h19.46c1.79 0 3.24.94 3.33 2.05l.34 12.71c0 1.19-1.45 2.13-3.24 2.13h-19.88c-1.79 0-3.33-.94-3.33-2.13v-12.71c.09-1.11 1.54-2.05 3.33-2.05Zm-28.25 0h19.46c1.79 0 3.24.94 3.24 2.05v12.71c0 1.19-1.45 2.13-3.33 2.13h-19.88c-1.79 0-3.24-.94-3.24-2.13l.43-12.71c.09-1.11 1.54-2.05 3.33-2.05Zm-28.24 0h19.54c1.79 0 3.16.94 3.16 2.05l-.43 12.71c0 1.19-1.54 2.13-3.33 2.13h-19.88c-1.79 0-3.24-.94-3.16-2.13l.85-12.71c0-1.11 1.54-2.05 3.24-2.05Zm-28.25 0h19.46c1.79 0 3.16.94 3.07 2.05l-.85 12.71c-.09 1.19-1.62 2.13-3.41 2.13h-19.88c-1.79 0-3.16-.94-3.07-2.13l1.28-12.71c.17-1.11 1.62-2.05 3.41-2.05Zm-28.16 0h19.46c1.79 0 3.16.94 2.99 2.05l-1.28 12.71c-.09 1.19-1.71 2.13-3.5 2.13h-19.88c-1.79 0-3.16-.94-2.99-2.13l1.62-12.71c.26-1.11 1.79-2.05 3.58-2.05m-28.25 0h19.46c1.79 0 3.07.94 2.99 2.05l-1.71 12.71c-.17 1.19-1.79 2.13-3.58 2.13h-19.88c-1.79 0-3.16-.94-2.99-2.13l2.05-12.71c.34-1.11 1.88-2.05 3.67-2.05Zm-62.03 0h52.39c1.79 0 3.07.94 2.9 2.05l-2.13 12.71c-.17 1.19-1.79 2.13-3.67 2.13H51.8c-1.79 0-3.07-.94-2.82-2.13l2.99-12.71c.26-1.11 1.88-2.05 3.67-2.05m346.02 0h54.7c1.79 0 3.41.94 3.67 2.05l2.99 12.71c.26 1.19-1.02 2.13-2.82 2.13h-55.72c-1.79 0-3.41-.94-3.67-2.13l-2.05-12.71c-.09-1.11 1.11-2.05 2.9-2.05" fill="#bac2c7"></path></g></svg>
