<svg xmlns="http://www.w3.org/2000/svg" data-name="Layer 1" style="" viewBox="0 0 512 614.4"><g><defs><radialGradient id="1770301555173-7551268_d" cx="83.42" cy="649.87" r="27.26" fx="83.42" fy="649.87" gradientTransform="matrix(.97 0 0 -1.26 -9.67 852.53)" gradientUnits="userSpaceOnUse"><stop offset="0" stop-color="#e5eaee"></stop><stop offset=".2" stop-color="#ced7dc"></stop><stop offset=".5" stop-color="#b3c2c6"></stop><stop offset="1" stop-color="#717b80"></stop></radialGradient><radialGradient id="1770301555173-7551268_e" cx="179.09" cy="649.87" r="27.26" fx="179.09" fy="649.87" gradientTransform="matrix(.97 0 0 -1.26 -9.67 852.53)" gradientUnits="userSpaceOnUse"><stop offset="0" stop-color="#e5eaee"></stop><stop offset=".2" stop-color="#ced7dc"></stop><stop offset=".5" stop-color="#b3c2c6"></stop><stop offset="1" stop-color="#717b80"></stop></radialGradient><radialGradient id="1770301555173-7551268_f" cx="274.77" cy="649.87" r="27.26" fx="274.77" fy="649.87" gradientTransform="matrix(.97 0 0 -1.26 -9.67 852.53)" gradientUnits="userSpaceOnUse"><stop offset="0" stop-color="#e5eaee"></stop><stop offset=".2" stop-color="#ced7dc"></stop><stop offset=".5" stop-color="#b3c2c6"></stop><stop offset="1" stop-color="#717b80"></stop></radialGradient><radialGradient id="1770301555173-7551268_g" cx="370.42" cy="649.87" r="27.26" fx="370.42" fy="649.87" gradientTransform="matrix(.97 0 0 -1.26 -9.67 852.53)" gradientUnits="userSpaceOnUse"><stop offset="0" stop-color="#e5eaee"></stop><stop offset=".2" stop-color="#ced7dc"></stop><stop offset=".5" stop-color="#b3c2c6"></stop><stop offset="1" stop-color="#717b80"></stop></radialGradient><radialGradient id="1770301555173-7551268_h" cx="466.09" cy="649.87" r="27.26" fx="466.09" fy="649.87" gradientTransform="matrix(.97 0 0 -1.26 -9.67 852.53)" gradientUnits="userSpaceOnUse"><stop offset="0" stop-color="#e5eaee"></stop><stop offset=".2" stop-color="#ced7dc"></stop><stop offset=".5" stop-color="#b3c2c6"></stop><stop offset="1" stop-color="#717b80"></stop></radialGradient><linearGradient id="1770301555173-7551268_b" x1="401.29" x2="476.85" y1="137.06" y2="41.65" gradientTransform="matrix(1 0 0 -1 0 616.4)" gradientUnits="userSpaceOnUse"><stop offset="0" stop-color="#717b80"></stop><stop offset=".11" stop-color="#889499"></stop><stop offset=".26" stop-color="#a0adb2"></stop><stop offset=".39" stop-color="#aebdc1"></stop><stop offset=".5" stop-color="#b3c2c6"></stop><stop offset="1" stop-color="#b3c2c6" stop-opacity="0"></stop></linearGradient><linearGradient id="1770301555173-7551268_c" x1="458.38" x2="401.88" y1="82.93" y2="139.43" gradientTransform="matrix(1 0 0 -1 0 616.4)" gradientUnits="userSpaceOnUse"><stop offset="0" stop-color="#b8bfc4"></stop><stop offset=".07" stop-color="#c1c7cc"></stop><stop offset=".29" stop-color="#dce0e2"></stop><stop offset=".52" stop-color="#f0f1f2"></stop><stop offset=".76" stop-color="#fbfcfc"></stop><stop offset="1" stop-color="#fff"></stop></linearGradient></defs><path d="M0 30.72h512v552.96H0z" fill="#e6ebef"></path><path d="M0 583.68h512v30.72H0z" fill="#cfd8dd"></path><path d="M0 602.84v6.75l512-3.35zm0-14.36v6.8l512-3.38z" fill="#99a8ae"></path><path d="M0 126.36h512v3.08H0zm0 35h512v3.08H0zm0 35.01h512v3.08H0zm0 35h512v3.08H0zm0 35h512v3.08H0zm0 35.01h512v3.08H0zm0 35h512v3.08H0zm0 35h512v3.08H0zm0 35.01h512v3.08H0zm0 34.99h512v3.08H0zm0 35h512v3.08H0zm0 35.01h512v3.08H0zm0 35h512v3.08H0z" fill="#bad6e6"></path><path d="M307.5 583.68s142.08 15.6 204.34-75.93V396.17s-.17 136.61-204.34 187.51" fill="url(#1770301555173-7551268_b)"></path><path d="M511.83 385.83c0 122.08-66.6 197.85-204.34 197.85 0 0 94.4-24.09 94.4-106.73 119.16 0 109.94-91.12 109.94-91.12" fill="url(#1770301555173-7551268_c)"></path><path d="M88.9 62.53c0 23.86-35.84 23.86-35.84 0s35.84-23.91 35.84 0" class="s" fill="#302c3b"></path><path d="M70.97 0c-5.64 0-10.23 4.58-10.23 10.25v51.2c0 5.65 4.58 10.23 10.23 10.23s10.25-4.58 10.25-10.23v-51.2C81.22 4.58 76.63 0 70.97 0" fill="url(#1770301555173-7551268_d)"></path><path d="M181.41 62.53c0 23.86-35.84 23.86-35.84 0s35.84-23.91 35.84 0" class="s" fill="#302c3b"></path><path d="M163.48 0c-5.65 0-10.23 4.58-10.23 10.25v51.2c0 5.65 4.59 10.23 10.23 10.23s10.25-4.58 10.25-10.23v-51.2c0-5.67-4.59-10.25-10.25-10.25" fill="url(#1770301555173-7551268_e)"></path><path d="M273.92 62.53c0 23.86-35.84 23.86-35.84 0s35.84-23.91 35.84 0" class="s" fill="#302c3b"></path><path d="M256 0c-5.65 0-10.24 4.58-10.24 10.25v51.2c0 5.65 4.59 10.23 10.24 10.23s10.24-4.58 10.24-10.23v-51.2C266.24 4.58 261.66 0 256 0" fill="url(#1770301555173-7551268_f)"></path><path d="M366.43 62.53c0 23.86-35.84 23.86-35.84 0s35.84-23.91 35.84 0" class="s" fill="#302c3b"></path><path d="M348.5 0c-5.64 0-10.23 4.58-10.23 10.25v51.2c0 5.65 4.59 10.23 10.23 10.23s10.25-4.58 10.25-10.23v-51.2C358.75 4.58 354.17 0 348.5 0" fill="url(#1770301555173-7551268_g)"></path><path d="M458.93 62.53c0 23.86-35.84 23.86-35.84 0s35.84-23.91 35.84 0" class="s" fill="#302c3b"></path><path d="M441.01 0c-5.65 0-10.24 4.58-10.24 10.25v51.2c0 5.65 4.59 10.23 10.24 10.23s10.24-4.58 10.24-10.23v-51.2c0-5.67-4.58-10.25-10.24-10.25" fill="url(#1770301555173-7551268_h)"></path></g></svg>
