<svg xmlns="http://www.w3.org/2000/svg" data-name="Layer 1" style="" viewBox="0 0 512 392.53"><g><defs><linearGradient id="1770301554726-3671063_b" x1="51.2" x2="256" y1="228.72" y2="228.72" gradientTransform="matrix(1 0 0 -1 0 394.53)" gradientUnits="userSpaceOnUse"><stop offset="0" stop-color="#cfd8dd"></stop><stop offset=".22" stop-color="#e1e7eb"></stop><stop offset=".47" stop-color="#eef2f4"></stop><stop offset=".7" stop-color="#f2f5f7"></stop><stop offset=".76" stop-color="#eef1f4"></stop><stop offset=".83" stop-color="#e1e7e9"></stop><stop offset=".89" stop-color="#cdd5d8"></stop><stop offset=".96" stop-color="#b0bcc1"></stop><stop offset="1" stop-color="#99a8ae"></stop></linearGradient><linearGradient id="1770301554726-3671063_c" x1="256" x2="460.8" y1="228.72" y2="228.72" gradientTransform="matrix(1 0 0 -1 0 394.53)" gradientUnits="userSpaceOnUse"><stop offset="0" stop-color="#99a8ae"></stop><stop offset=".04" stop-color="#b0bcc1"></stop><stop offset=".11" stop-color="#cdd5d8"></stop><stop offset=".17" stop-color="#e1e7e9"></stop><stop offset=".24" stop-color="#eef1f4"></stop><stop offset=".3" stop-color="#f2f5f7"></stop><stop offset=".53" stop-color="#eef2f4"></stop><stop offset=".78" stop-color="#e1e7eb"></stop><stop offset="1" stop-color="#cfd8dd"></stop></linearGradient></defs><path d="M256 25.6C215.64-24.83 78.85 18.14 8.01 21.46 3.5 21.66 0 25.43 0 29.96v347.08c0 4.27 3.15 7.78 7.36 8.47C78 396.97 215.5 341.96 256 392.53c40.47-50.53 177.75 4.45 248.63-7.03 4.22-.68 7.37-4.21 7.37-8.47V29.96c0-4.52-3.5-8.29-8.03-8.5C432.9 18.16 296.34-24.79 256 25.6" class="h" fill="#006dae"></path><path d="M221.87 324.27v44.48c0 31.71 68.27 31.71 68.27 0v-44.48z" class="h" fill="#006dae"></path><path d="M238.93 341.33v27.43c0 3.45 8.3 6.71 17.07 6.71s17.07-3.26 17.07-6.71v-27.43h-34.13Z" fill="#014d87"></path><path d="M51.2 4.31s-11.47 13.8-34.13 27.9v333.47c34.13-18.24 42.67-33.97 42.67-33.97z" class="m" fill="#e6ebef"></path><path d="M40.53 25.13c.91 53.38.68 64.09 1.07 117.45-.38 53.38-.15 106.75-1.07 160.13-.91-53.38-.68-106.75-1.07-160.13.38-53.37.15-64.08 1.07-117.45M21.33 42.2c.91 59.07.68 75.46 1.07 134.52-.38 59.07-.15 118.13-1.07 177.19-.91-59.07-.68-118.13-1.07-177.19.38-59.06.15-75.45 1.07-134.52m12.8-25.6c.91 42 .68 66.93 1.07 108.92-.38 42-.15 83.99-1.07 125.99-.91-42-.7-83.99-1.07-125.99.38-41.99.15-66.92 1.07-108.92" class="g" fill="#cfd8dd"></path><path d="M460.8 4.31s11.47 13.8 34.13 27.9v333.47c-34.13-18.24-42.67-33.97-42.67-33.97z" class="m" fill="#e6ebef"></path><path d="M488.1 336.84c-.91-53.38-.68-106.75-1.07-160.13.38-53.37.15-89.68 1.07-143.05.91 53.38.7 89.69 1.07 143.05-.38 53.38-.15 106.75-1.07 160.13m-23.03-25.6c-.91-54.8-.68-109.59-1.07-164.39.38-54.79.15-66.92 1.07-121.72.91 54.8.68 66.93 1.07 121.72-.38 54.8-.15 109.59-1.07 164.39M480 322.25c-.91-41.99-.68-83.99-1.07-125.99.38-41.99.15-83.99 1.07-125.99.91 41.99.68 83.99 1.07 125.99-.38 41.99-.15 83.99-1.07 125.99" class="g" fill="#cfd8dd"></path><path d="M460.8 323.13c-145.07-49.26-264.53-49.26-409.6 0l-34.13 42.53c74.42 12.27 172.62-30.21 238.93 2.19 66.28-32.4 164.51 10.08 238.93-2.19z" fill="#013366"></path><path d="M460.8 323.13c-145.07-49.26-264.53-49.26-409.6 0l-34.13 42.53c57.75 9.51 159.21-38.96 238.93 0 79.71-38.96 181.18 9.51 238.93 0z" fill="#b3c2c6"></path><path d="M51.2 354.13c17.25-2.17 34.29-5.68 51.4-8.74 17.08-3.16 34.25-6.19 51.6-7.96 17.35-1.54 34.92-1.81 52.23.47 17.31 2.17 34.33 7.29 49.57 15.76-15.62-7.72-32.56-12.28-49.73-14.35-17.22-2.02-34.64-1.5-51.87.25-17.26 1.52-34.43 4.3-51.55 7.23-17.14 2.97-34.31 6-51.66 7.35Z" class="i" fill="#99a8ae"></path><path d="M102.4 341.57c25.55-5.5 51.57-9.46 77.83-9.83 13.13.14 26.28 1.37 39.12 4.22 12.83 2.76 25.28 7.39 36.65 13.9-11.75-5.76-24.22-9.86-36.95-12.52-12.77-2.59-25.8-3.57-38.82-3.47-26.09-.4-51.96 4-77.83 7.7" class="i" fill="#99a8ae"></path><path d="M136.53 328.26c20.11-3.15 40.52-5.98 61.06-4.63 10.23.81 20.42 2.63 30.22 5.68 9.8 3.02 19.21 7.19 28.19 12.02-18.65-8.25-38.26-14.4-58.55-15.58-10.1-.83-20.27-.49-30.41.15-10.17.65-20.33 1.58-30.51 2.36m324.27 28.01c-17.43-1.6-34.62-5.12-51.75-8.52-17.15-3.36-34.33-6.56-51.67-8.31-17.3-1.97-34.83-2.53-52.09-.14-17.2 2.42-34.07 7.79-49.3 16.43 14.8-9.36 31.73-15.31 49.09-17.83 17.38-2.66 35.08-2.35 52.5-.58 17.43 2 34.62 5.45 51.74 9.05 17.14 3.49 34.16 7.48 51.47 9.91Z" class="i" fill="#99a8ae"></path><path d="M409.6 341.91c-25.92-4.36-51.88-9.4-78.13-8.95-13.08-.07-26.2 1.12-38.95 4.14-12.71 3.07-25.05 7.83-36.51 14.28 11.04-7.18 23.35-12.48 36.18-15.67 12.82-3.29 26.05-4.74 39.27-4.88 26.45.32 52.59 4.93 78.14 11.08" class="i" fill="#99a8ae"></path><path d="M375.47 326.7c-10.23-.96-20.45-2.07-30.67-2.84-10.21-.74-20.46-1.11-30.62-.15-20.4 1.43-39.92 8.61-58.18 17.93 8.76-5.35 18-10.04 27.74-13.48 9.74-3.49 19.95-5.62 30.27-6.57 20.73-1.63 41.26 1.62 61.46 5.11" class="i" fill="#99a8ae"></path><path d="M51.2 4.31v318.82c102.17 0 136.95-30.68 204.8 8.5V21.94c-44.51-43.8-140.95-6.55-204.8-17.63" fill="url(#1770301554726-3671063_b)"></path><path d="M256 21.94v309.69c67.85-39.18 102.61-8.5 204.8-8.5V4.31C396.95 15.39 300.5-21.86 256 21.94" fill="url(#1770301554726-3671063_c)"></path><path d="M443.73 23.12c-55.15 3.02-126.45-17.68-170.67 4.04v4.27c44.22-21.73 115.52-1.02 170.67-4.04zm0 21.35c-55.15 3.02-126.45-17.68-170.67 4.04v4.27c44.22-21.73 115.52-1.02 170.67-4.04zm0 21.35c-55.15 3.02-126.45-17.68-170.67 4.04v4.27c44.22-21.73 115.52-1.02 170.67-4.04zm0 21.35c-55.15 3.02-126.45-17.68-170.67 4.04v4.27c44.22-21.73 115.52-1.02 170.67-4.04zm0 21.35c-55.15 3.02-126.45-17.68-170.67 4.04v4.27c44.22-21.73 115.52-1.02 170.67-4.04zm0 21.35c-55.15 3.02-126.45-17.68-170.67 4.04v4.27c44.22-21.73 115.52-1.02 170.67-4.04zm0 21.35c-55.15 3.02-126.45-17.68-170.67 4.04v4.27c44.22-21.73 115.52-1.02 170.67-4.04zm0 21.35c-55.15 3.02-126.45-17.68-170.67 4.04v4.27c44.22-21.73 115.52-1.02 170.67-4.04zm0 21.35c-55.15 3.02-126.45-17.68-170.67 4.04v4.27c44.22-21.73 115.52-1.02 170.67-4.04zm0 21.35c-55.15 3.02-126.45-17.68-170.67 4.04v4.27c44.22-21.73 115.52-1.02 170.67-4.04zm0 21.35c-55.15 3.02-126.45-17.68-170.67 4.04v4.27c44.22-21.73 115.52-1.02 170.67-4.04zm0 21.34c-55.15 3.02-126.45-17.68-170.67 4.04v4.27c44.22-21.73 115.52-1.02 170.67-4.04zm0 21.35c-55.15 3.02-126.45-17.68-170.67 4.04v4.27c44.22-21.73 115.52-1.02 170.67-4.04zm0 21.35c-55.15 3.02-126.45-17.68-170.67 4.04v4.27c44.22-21.73 115.52-1.02 170.67-4.04zM68.27 23.12c55.13 3.02 126.44-17.68 170.67 4.04v4.27C194.7 9.7 123.41 30.41 68.27 27.39zm0 21.35c55.13 3.02 126.44-17.68 170.67 4.04v4.27c-44.24-21.73-115.53-1.02-170.67-4.04zm0 21.35c55.13 3.02 126.44-17.68 170.67 4.04v4.27C194.7 52.4 123.41 73.11 68.27 70.09zm0 21.35c55.13 3.02 126.44-17.68 170.67 4.04v4.27c-44.24-21.73-115.53-1.02-170.67-4.04zm0 21.35c55.13 3.02 126.44-17.68 170.67 4.04v4.27c-44.24-21.73-115.53-1.02-170.67-4.04zm0 21.35c55.13 3.02 126.44-17.68 170.67 4.04v4.27c-44.24-21.73-115.53-1.02-170.67-4.04zm0 21.35c55.13 3.02 126.44-17.68 170.67 4.04v4.27c-44.24-21.73-115.53-1.02-170.67-4.04zm0 21.35c55.13 3.02 126.44-17.68 170.67 4.04v4.27c-44.24-21.73-115.53-1.02-170.67-4.04zm0 21.35c55.13 3.02 126.44-17.68 170.67 4.04v4.27c-44.24-21.73-115.53-1.02-170.67-4.04zm0 21.35c55.13 3.02 126.44-17.68 170.67 4.04v4.27c-44.24-21.73-115.53-1.02-170.67-4.04zm0 21.35c55.13 3.02 126.44-17.68 170.67 4.04v4.27c-44.24-21.73-115.53-1.02-170.67-4.04zm0 21.34c55.13 3.02 126.44-17.68 170.67 4.04v4.27c-44.24-21.73-115.53-1.02-170.67-4.04zm0 21.35c55.13 3.02 126.44-17.68 170.67 4.04v4.27c-44.24-21.73-115.53-1.02-170.67-4.04zm0 21.35c55.13 3.02 126.44-17.68 170.67 4.04v4.27c-44.24-21.73-115.53-1.02-170.67-4.04z" class="i" fill="#99a8ae"></path><path d="M272.72 374.56c-17.84-29.73-24.98-116.11-21.2-340.92.14-7.53.21-12.66.21-14.8 0-2.36 8.53-2.36 8.53 0 0 2.16-.09 7.33-.21 14.95-4.68 277.98 8.28 316.89 19.98 336.38 1.22 2.02-4.9-.48-4.9-.48s-1.61 6.2-2.41 4.86Z" fill="#e81c27"></path></g></svg>
