<svg xmlns="http://www.w3.org/2000/svg" id="a" data-name="Layer 1" viewBox="0 0 512 392.53"><defs><linearGradient id="b" x1="147.21" x2="181.33" y1="1068.16" y2="1049.12" gradientTransform="translate(194 -854)" gradientUnits="userSpaceOnUse"><stop offset=".15" stop-color="#cfd8dd"/><stop offset=".99" stop-color="#9aa9af"/><stop offset="1" stop-color="#99a8ae"/></linearGradient><linearGradient id="c" x1="-43.15" x2="-26.08" y1="1056.33" y2="1064.87" gradientTransform="translate(194 -854)" gradientUnits="userSpaceOnUse"><stop offset=".15" stop-color="#cfd8dd"/><stop offset=".99" stop-color="#9aa9af"/><stop offset="1" stop-color="#99a8ae"/></linearGradient><style>.f{fill:#6e8189}.g{fill:#99a8ae}.h{fill:#471e01}.i{fill:#778b94}.k{fill:#302c3b}.l{fill:#87431a}</style></defs><path d="M285.73 6.55c-12.9-7.46-50.59-7.49-62.47.36-18.88 12.48-26.56 50.56-50.03 67.06-29.49 20.74-26.49 77.24-51.74 93.99-37.47 24.87-42.37 84.45-69.87 102.75C29.23 285.62 0 392.53 0 392.53h512s-22.95-91-53.44-121.81c-18.28-18.48-34.31-81.65-57.36-102.75-38.64-35.42-46.06-74.39-66.91-93.99-13.81-13-29.52-56.42-48.55-67.43Z" style="fill:#56646b"/><path d="M49.69 327.05c10.53 11-45.3 31.79-39.19 4.72 2.78-12.29 22.22-22.45 39.19-4.72m109.81-25.48c7.7 15-33.13 43.3-28.65 6.42 2.02-16.73 16.24-30.57 28.65-6.42m99.2 26.5c7.7 14.98-33.13 43.3-28.65 6.4 2.02-16.73 16.24-30.57 28.65-6.4" class="f"/><path d="M380.87 305.82c7.7 15-33.13 43.3-28.65 6.42 2.02-16.73 16.24-30.57 28.65-6.42m109.47 27.35c7.7 9.27-33.13 26.77-28.65 3.97 2.02-10.35 16.24-18.9 28.65-3.97" class="i"/><path d="M456 247.65c9.57 7.97-41.18 23-35.64 3.41 2.52-8.89 20.19-16.24 35.64-3.41m-183.82 9.78c-5.15 9.58-35.16-1.68-13.92-12.83 9.65-5.07 22.2-2.6 13.92 12.83m4.64-73.68c7.7 14.98-33.13 43.3-28.65 6.4 2.02-16.73 16.24-30.57 28.65-6.4" class="f"/><path d="M123.63 174.32c7.57 10.32-32.52 29.8-28.13 4.42 1.99-11.54 15.96-21.05 28.13-4.42m34.44-56.3c4.22 8.23-18.2 23.77-15.74 3.52 1.11-9.18 8.93-16.79 15.74-3.52" class="i"/><path d="M227.02 122.4c4.22 8.23-18.2 23.78-15.74 3.52 1.11-9.18 8.93-16.78 15.74-3.52" class="f"/><path d="M311.53 246.37c4.22 8.23-18.19 23.78-15.74 3.52 1.11-9.18 8.92-16.77 15.74-3.52" class="i"/><path d="M331.1 331.65c4.22 8.22-18.19 23.77-15.74 3.52 1.11-9.18 8.92-16.78 15.74-3.52" class="f"/><path d="M222.15 311.64c4.22 8.23-18.19 23.78-15.74 3.52 1.11-9.19 8.92-16.77 15.74-3.52" class="i"/><path d="M181.61 244.7c4.22 8.23-18.19 23.78-15.74 3.52 1.11-9.18 8.92-16.79 15.74-3.52" class="f"/><path d="M56.15 280.32c4.22 8.22-18.19 23.77-15.74 3.52 1.11-9.18 8.92-16.79 15.74-3.52" class="i"/><path d="M487.59 302.32c5.68 5.68-24.48 16.4-21.17 2.41 1.48-6.33 11.99-11.57 21.17-2.41M310.4 121.02c4.23 8.23-18.18 23.77-15.74 3.52 1.12-9.18 8.92-16.78 15.74-3.52m-169.14 24.55c4.23 8.23-18.18 23.77-15.74 3.52 1.12-9.19 8.92-16.79 15.74-3.52" class="f"/><path d="M238.14 73.16c5.38 5.93-23.2 17.13-20.07 2.53 1.43-6.62 11.38-12.09 20.07-2.53m20.74 5.14c-4.8 1.44-10.9-12-.33-8.71 4.78 1.5 8.06 6.4.33 8.71m78.09-11.66c4.22 8.23-18.19 23.77-15.74 3.52 1.11-9.18 8.92-16.78 15.74-3.52m-64.18-34.32c2.16 4.19-9.28 12.13-8.01 1.8.55-4.69 4.54-8.57 8.01-1.8M136.28 184.36c2.16 4.2-9.28 12.13-8.01 1.8.55-4.68 4.54-8.55 8.01-1.8M48.07 307.99c2.16 4.18-17.05 12.65-15.79 2.33.55-4.68 12.31-9.1 15.79-2.33m-29.48 45.33C20.74 357.51.04 395.56 0 366.76c-.03-13.18 15.11-20.2 18.59-13.45Zm79.85-141.8c2.16 4.18-15.29 13.1-14.04 2.76.56-4.68 10.56-9.53 14.04-2.76m287.01-68.63c2.16 4.2-18.4 7.31-17.13-3.01.55-4.68 13.66-3.75 17.13 3.01m34 51.88c3.85 7.48-16.55 21.63-14.32 3.22 1.01-8.36 8.12-15.28 14.32-3.22m50.44 82.18c2.15 4.18-16.08 5.23-14.81-5.09.56-4.68 11.33-1.68 14.81 5.09" class="i"/><path d="M351.36 87.64c2.17 4.19-15.04 7.24-13.78-3.09.56-4.68 10.32-3.68 13.78 3.09" class="f"/><path d="M320.58 45.36c2.16 4.19-9.28 12.13-8.01 1.8.55-4.68 4.54-8.56 8.01-1.8" class="i"/><path d="M195.81 50.62c2.17 4.19-9.27 12.13-8.01 1.8.56-4.68 4.55-8.56 8.01-1.8m-31.05 39.53c2.16 4.19-13.52 13.35-12.26 3.03.56-4.68 8.78-9.79 12.26-3.03" class="f"/><path d="M230.11 4.06c2.17 3.11-9.27 9.01-8.01 1.33.56-3.48 4.55-6.37 8.01-1.33m45.22-1.05c2.16 3.46-9.28 10.03-8.01 1.49.55-3.87 4.53-7.08 8.01-1.49" class="i"/><path d="M247.22 3.65c3.03 4.19-13.06 12.12-11.3 1.79.78-4.68 6.39-8.56 11.3-1.79m1.59 28.67c2.87 4.19-12.28 12.13-10.62 1.8.75-4.69 6.02-8.57 10.62-1.8M77.8 264.64c-12.6 11.21-43.46-9.2-13.43-26.07 14.72-8.27 33.72 8 13.43 26.07" class="f"/><path d="M189.67 345.85c-12.6 11.21-50.32-21.1-13.43-26.07 16.73-2.24 33.72 8 13.43 26.07m110.23-17.8c-12.6 11.2-50.32-21.1-13.43-26.09 16.73-2.24 33.72 8 13.43 26.09" class="i"/><path d="M372.57 357.32c-12.6 11.2-50.32-21.1-13.43-26.09 16.73-2.24 33.72 8 13.43 26.09" class="f"/><path d="M355.14 267.68c-12.6 11.21-50.31-21.1-13.43-26.07 16.73-2.26 33.73 7.99 13.43 26.07m-127.02-4.95c-12.6 11.21-50.32-21.1-13.43-26.07 16.73-2.26 33.72 7.99 13.43 26.07m-16.76-62.44c-12.6 11.21-50.33-21.1-13.43-26.09 16.73-2.25 33.72 8 13.43 26.09m117.86 0c-12.6 11.21-50.32-21.1-13.43-26.07 16.73-2.25 33.72 8 13.43 26.07" class="i"/><path d="M407.99 180.5c-10.24 9.11-40.93-17.15-10.92-21.2 13.6-1.83 27.43 6.5 10.92 21.2m-43.45-52.47c-9.12 8.12-36.45-15.29-9.74-18.89 12.13-1.63 24.43 5.79 9.74 18.89" class="f"/><path d="M265.33 135.26c-9.12 8.12-36.45-15.29-9.74-18.89 12.13-1.63 24.43 5.79 9.74 18.89m-78.36-52.11c-9.13 8.12-36.46-15.29-9.74-18.89 12.12-1.64 24.44 5.79 9.74 18.89" class="i"/><path d="M286.12 83.8c-5.63 5.01-22.5-9.44-6.02-11.67 7.48-1.02 15.09 3.58 6.02 11.67" class="f"/><path d="M304.76 23.11c-5.64 5.03-22.56-9.46-6.02-11.7 7.5-1.02 15.11 3.58 6.02 11.7m-95.4 17.44c-5.73 5.09-22.87-9.58-6.12-11.84 7.62-1.02 15.33 3.64 6.12 11.84" class="i"/><path d="M290.59 9.7c-3.38 2.96-13.38-5.47-3.55-6.82 4.45-.61 8.97 2.06 3.55 6.82m18.76 29.87c-4.69 4.17-18.72-7.86-5-9.71 6.23-.82 12.55 2.99 5 9.71" class="f"/><path d="M215.21 20c-2.4 2.14-9.61-4.04-2.57-4.99 3.2-.43 6.45 1.54 2.57 4.99M257.9 5.7c-2.4 2.14-9.61-4.04-2.57-4.99 3.2-.42 6.45 1.54 2.57 4.99m177.96 215.68c4.22 8.22-18.2 23.77-15.74 3.52 1.1-9.18 8.92-16.78 15.74-3.52" class="i"/><path d="M416.84 230.67H95.16l20.04-34.07h281.6zm-38.4-65.32H133.56l16.69-28.39h211.5z" class="l"/><path d="M133.56 165.35h244.86v5.68H133.56zm-38.4 65.32h321.66v5.68H95.16z" class="h"/><path d="M458.57 301.67H53.43l23.37-39.76h358.4z" class="l"/><path d="M53.43 301.67h405.15v5.68H53.43z" class="h"/><path d="M512 392.53H0l30.05-51.11h451.9zM343.37 105.72H168.63l13.35-22.71h148.04z" class="l"/><path d="M168.63 105.72h174.75v5.68H168.63z" class="h"/><path d="M316.65 60.29h-121.3l10-17.03h101.3z" class="l"/><path d="M195.35 60.29h121.32v5.68H195.35z" class="h"/><path d="M293.28 20.53h-74.56l6.67-11.35h61.22z" class="l"/><path d="M218.72 20.53h74.56v5.68h-74.56z" class="h"/><path d="M401.48 392.53h45.87L273.07 0z" class="g"/><path d="M418.55 392.53h28.8L273.07 0z" class="k"/><path d="M435.2 392.53h38.28L273.07 0z" style="fill:url(#b)"/><path d="M110.52 392.53H64.65L238.93 0z" class="g"/><path d="M93.45 392.53h-28.8L238.93 0z" class="k"/><path d="M76.8 392.53H38.52L238.93 0z" style="fill:url(#c)"/></svg>