<svg xmlns="http://www.w3.org/2000/svg" data-name="Layer 1" style="" viewBox="0 0 512 512"><g><defs><linearGradient id="1770301554750-605607_b" x1="-58.15" x2="-58.15" y1="2" y2="514" gradientTransform="rotate(180 98.925 257)" gradientUnits="userSpaceOnUse"><stop offset="0" stop-color="#0047c9"></stop><stop offset="1" stop-color="#00163d"></stop></linearGradient><linearGradient id="1770301554750-605607_c" x1="-613.08" x2="-590.7" y1="125.61" y2="125.61" gradientTransform="rotate(225 -176.784 85.944)" gradientUnits="userSpaceOnUse"><stop offset="0" stop-color="#99a8ae"></stop><stop offset=".28" stop-color="#b1bfc7"></stop><stop offset=".61" stop-color="#c7d5de"></stop><stop offset=".82" stop-color="#cfdde6"></stop></linearGradient></defs><path d="M0 0h512v512H0z" fill="url(#1770301554750-605607_b)"></path><path d="M311.3 212.57 14.17 512H0v-14.51l296.96-299.26z" fill="url(#1770301554750-605607_c)"></path><path d="M385.02 39.59c-.17 3.5 62.63 4.27 62.89.68.17-3.41-62.63-4.18-62.89-.68" class="l" fill="#ffe600"></path><path d="M402.52 12.2c-3.16 1.71 24.83 57.26 27.99 55.47 3.07-1.71-24.92-57.17-27.99-55.47" class="l" fill="#ffe600"></path><path d="M136.45 83.88c3.16 1.02 10.58-53.42 7.42-54.44-3.16-.94-10.58 53.42-7.42 54.44" class="j" fill="#f59e01"></path><path d="M113.58 62.38c1.28 3.16 54.44-8.28 53.16-11.43-1.19-3.07-54.36 8.36-53.16 11.43" class="j" fill="#f59e01"></path><path d="M429.82 373.25c3.07.85 17.83-54.95 14.76-55.72-2.99-.85-17.83 54.87-14.76 55.72" class="k" fill="#fff"></path><path d="M409.69 352.85c.85 3.16 55.98-11.86 55.13-14.93-.77-3.16-55.98 11.86-55.13 14.93M285.01 33.96c1.11 1.88 34.65-17.66 33.54-19.54-1.02-1.88-34.65 17.66-33.54 19.54" class="k" fill="#fff"></path><path d="M285.01 14.34c-1.11 1.88 32.43 21.5 33.54 19.54 1.11-1.79-32.43-21.33-33.54-19.54" class="k" fill="#fff"></path><path d="M281.43 406.53c1.37 2.3 42.84-21.85 41.47-24.23-1.28-2.3-42.75 21.93-41.47 24.23" class="j" fill="#f59e01"></path><path d="M281.43 382.29c-1.37 2.3 40.19 26.54 41.47 24.23 1.37-2.3-40.11-26.54-41.47-24.23" class="j" fill="#f59e01"></path><path d="M132.69 230.91c2.39-1.45-22.87-45.74-25.34-44.29s22.87 45.74 25.34 44.29" class="k" fill="#fff"></path><path d="M107.35 230.91c2.47 1.45 27.73-42.84 25.34-44.29-2.47-1.37-27.73 42.92-25.34 44.29m392.19.26c2.56-1.45-23.98-47.87-26.54-46.34-2.47 1.54 23.98 47.87 26.54 46.34" class="k" fill="#fff"></path><path d="M473.09 231.17c2.56 1.54 29.01-44.89 26.54-46.34-2.65-1.45-29.1 44.89-26.54 46.34" class="k" fill="#fff"></path><path d="M305.24 204.46c4.61-8.19 158.04 87.47 158.04 87.47s-162.65-79.27-158.04-87.47" class="j" fill="#f59e01"></path><path d="M305.41 204.29c-9.47 5.89-95.32-165.63-95.32-165.63s104.87 159.83 95.32 165.63" class="k" fill="#fff"></path><path d="M305.24 204.46c2.3-8.19 144.64 35.24 144.64 35.24s-146.94-27.05-144.64-35.24" class="h" fill="#f9c802"></path><path d="M305.24 204.46c-2.3 9.05-161.96-42.15-161.96-42.15s164.35 33.19 161.96 42.15" class="j" fill="#f59e01"></path><path d="M305.24 204.46c8.53 4.95-107.86 165.29-107.86 165.29s99.41-170.24 107.86-165.29" class="k" fill="#fff"></path><path d="M305.24 204.46c-8.11-1.88 35.07-142.93 35.07-142.93s-26.97 144.9-35.07 142.93" class="g" fill="#fc0"></path><path d="M470.95 116.14c6.31 12.12-165.72 88.32-165.72 88.32s159.4-100.44 165.72-88.32" class="l" fill="#ffe600"></path><path d="M467.46 146.18c-3.24-.17 1.79-58.2 5.03-58.03s-1.79 58.28-5.03 58.03" class="l" fill="#ffe600"></path><path d="M494.08 133.03c-1.88 2.73-50.01-29.01-48.13-31.74 1.79-2.65 50.01 29.1 48.13 31.74" class="l" fill="#ffe600"></path><path d="M447.83 300.97c-1.02-1.71 29.61-19.8 30.63-18.09.94 1.62-29.61 19.71-30.63 18.09" class="j" fill="#f59e01"></path><path d="M463.27 309.5c-1.96 0-2.3-35.24-.34-35.24s2.3 35.24.34 35.24" class="j" fill="#f59e01"></path><path d="M180.31 40.53c.09-3.24 59.82-6.66 59.65-3.33 0 3.24-59.65 6.57-59.65 3.33" class="k" fill="#fff"></path><path d="M194.56 65.28c-2.82-1.54 28.42-54.27 31.23-52.82 2.82 1.45-28.42 54.27-31.23 52.82" class="k" fill="#fff"></path><path d="M437.85 251.22c-1.19-1.19 21.5-23.89 22.78-22.7 1.19 1.19-21.59 23.89-22.78 22.7" class="h" fill="#f9c802"></path><path d="M453.12 254.89c-1.71.51-9.47-29.7-7.77-30.12 1.71-.51 9.47 29.7 7.77 30.12" class="h" fill="#f9c802"></path><path d="M128 177.75c-1.71-1.71 28.84-32.43 30.55-30.72 1.71 1.62-28.76 32.43-30.55 30.72" class="j" fill="#f59e01"></path><path d="M149.16 183.21c-2.39.68-14.08-41.05-11.69-41.73 2.3-.6 13.99 41.13 11.69 41.73" class="j" fill="#f59e01"></path><path d="M187.73 346.62c2.56-1.54 23.72 42.24 21.08 43.78-2.56 1.45-23.64-42.33-21.08-43.78" class="k" fill="#fff"></path><path d="M172.89 369.32c.26-2.9 51.11-4.69 50.86-1.79-.26 2.9-51.11 4.69-50.86 1.79" class="k" fill="#fff"></path><path d="M325.72 46.76c1.62-1.71 32.6 27.39 30.89 29.1-1.62 1.62-32.6-27.39-30.89-29.1" class="g" fill="#fc0"></path><path d="M320.6 67.33c-.68-2.3 40.36-14.42 41.05-12.2.77 2.3-40.36 14.51-41.05 12.2" class="g" fill="#fc0"></path><path d="M302.17 208.9c7.34 7.42 150.53-152.15 150.53-152.15S294.83 201.56 302.17 208.9" class="k" fill="#fff"></path><path d="M302.17 208.9c6.4-7-162.13-152.41-162.13-152.41s155.73 159.4 162.13 152.41" class="j" fill="#f59e01"></path><path d="M302.17 208.9c-7.25 7.34 135.17 136.62 135.17 136.62S309.51 201.56 302.17 208.9" class="k" fill="#fff"></path><path d="M302.17 208.9c10.33 0 0-185.51 0-185.51s-10.33 185.51 0 185.51" class="k" fill="#fff"></path><path d="M302.17 208.9c-10.33 0 0 185.51 0 185.51s10.33-185.51 0-185.51" class="j" fill="#f59e01"></path><path d="M302.17 208.9c0-10.41-183.64-.09-183.64-.09s183.64 10.5 183.64.09m0 0c0 10.41 183.64 0 183.64 0s-183.64-10.41-183.64 0" class="k" fill="#fff"></path><path d="M412.33 120.41c-6.57-8.36-110.17 88.49-110.17 88.49s116.74-80.13 110.17-88.49M192 297.39c6.57 8.36 110.17-88.49 110.17-88.49S185.43 289.03 192 297.39" class="f" fill="#ff9901"></path><path d="M214.53 97.54c-8.28 6.66 87.64 111.36 87.64 111.36S222.81 90.88 214.53 97.54" class="g" fill="#fc0"></path><path d="M389.8 320.26c8.28-6.66-87.64-111.36-87.64-111.36s79.36 117.93 87.64 111.36" class="n" fill="#ff6a00"></path><path d="M318.04 67.58c-10.5-1.19-15.87 141.31-15.87 141.31s26.37-140.12 15.87-141.31" class="f" fill="#ff9901"></path><path d="M286.29 350.21c10.5 1.19 15.87-141.31 15.87-141.31s-26.37 140.12-15.87 141.31" class="n" fill="#ff6a00"></path><path d="M162.3 192.77c-1.19 10.58 139.86 16.13 139.86 16.13s-138.67-26.71-139.86-16.13" class="f" fill="#ff9901"></path><path d="M442.03 225.02c1.19-10.58-139.86-16.13-139.86-16.13s138.67 26.71 139.86 16.13" class="l" fill="#ffe600"></path><path d="M474.97 146.01c-4.69-13.14-172.8 62.89-172.8 62.89s177.41-49.75 172.8-62.89" fill="#f9b700"></path><path d="M133.8 282.79c5.46 12.8 168.36-73.9 168.36-73.9s-173.82 61.18-168.36 73.9" class="n" fill="#ff6a00"></path><path d="M228.95 38.74c-12.46 5.89 77.82 168.11 77.82 168.11S241.4 32.86 228.95 38.74m146.43 340.31c12.63-5.55-73.22-170.15-73.22-170.15s60.59 175.7 73.22 170.15" class="f" fill="#ff9901"></path><path d="M377.34 39.59c-12.54-5.72-75.18 169.3-75.18 169.3s87.72-163.58 75.18-169.3" class="n" fill="#ff6a00"></path><path d="M234.92 381.53c12.8 5.12 67.24-172.63 67.24-172.63s-80.04 167.51-67.24 172.63M138.24 125.7c-6.23 12.46 164.01 83.2 164.01 83.2-.09 0-157.87-95.66-164.01-83.2" class="l" fill="#ffe600"></path><path d="M473 276.91c5.03-12.97-170.84-68.01-170.84-68.01s165.8 80.98 170.84 68.01m-14.25-91.65c-1.79-11.86-156.59 23.64-156.59 23.64s158.29-11.78 156.59-23.64" class="n" fill="#ff6a00"></path><path d="M145.58 232.53c1.79 11.86 156.59-23.64 156.59-23.64s-158.38 11.69-156.59 23.64" class="f" fill="#ff9901"></path><path d="M278.7 50.69c-11.78 1.79 23.47 158.29 23.47 158.21 0 0-11.69-160-23.47-158.21" class="n" fill="#ff6a00"></path><path d="M325.63 367.1c11.78-1.79-23.47-158.21-23.47-158.21s11.69 160 23.47 158.21" class="g" fill="#fc0"></path><path d="M417.71 39c-12.2-8.11-115.54 169.9-115.54 169.9S429.91 47.11 417.71 39" class="l" fill="#ffe600"></path><path d="M207.96 337.49c9.56 7.17 94.21-128.6 94.21-128.6s-103.68 121.43-94.21 128.6m-33.11-223.83c-7.08 9.64 127.32 95.23 127.32 95.23s-120.23-104.87-127.32-95.23" class="n" fill="#ff6a00"></path><path d="M429.48 304.13c7.08-9.64-127.32-95.23-127.32-95.23s120.23 104.87 127.32 95.23" class="f" fill="#ff9901"></path><path d="M181.16 330.92S309.93 214.7 313 211.62c11.18-11.26-2.65-25.17-13.82-13.91-2.99 3.07-118.02 133.21-118.02 133.21" class="l" fill="#ffe600"></path><path d="m274.35 236.71 7.42 49.5 31.15-39.17 46.16 17.92-17.75-46.68 38.74-31.49-48.89-7.42-7.34-49.49-31.23 39.17-46.17-17.92 17.75 46.59-38.74 31.57z" fill="#fffdcd"></path><path d="m282.71 228.27 5.2 34.98 22.02-27.73 32.6 12.71-12.55-32.93 27.4-22.28-34.56-5.29-5.21-34.9-22.02 27.65L263 167.85l12.54 32.94-27.39 22.27z" class="k" fill="#fff"></path></g></svg>
