<svg xmlns="http://www.w3.org/2000/svg" data-name="Layer 1" style="" viewBox="0 0 512 392.54"><g><defs><radialGradient id="1770301555207-4147577_b" cx="137.16" cy="232.31" r="57.53" fx="137.16" fy="232.31" gradientTransform="matrix(.9 0 0 -1 -54.82 377.39)" gradientUnits="userSpaceOnUse"><stop offset=".04" stop-color="#ff000e"></stop><stop offset="1" stop-color="#e30000"></stop></radialGradient><radialGradient id="1770301555207-4147577_c" cx="552.78" cy="232.31" r="57.53" fx="552.78" fy="232.31" gradientTransform="matrix(.9 0 0 -1 -54.82 377.39)" gradientUnits="userSpaceOnUse"><stop offset=".04" stop-color="#ff000e"></stop><stop offset="1" stop-color="#e30000"></stop></radialGradient><radialGradient id="1770301555207-4147577_d" cx="348.11" cy="-639.22" r="276.71" fx="348.11" fy="-639.22" gradientTransform="matrix(.9 0 0 -.3 -54.82 -91.53)" gradientUnits="userSpaceOnUse"><stop offset=".57" stop-color="#e30000"></stop><stop offset=".8" stop-color="#ff000e"></stop></radialGradient><radialGradient id="1770301555207-4147577_h" cx="255.56" cy="188.39" r="63.8" fx="255.56" fy="188.39" gradientTransform="matrix(.99 0 0 -1.03 .98 416.54)" gradientUnits="userSpaceOnUse"><stop offset=".2" stop-color="#e6ebef"></stop><stop offset=".85" stop-color="#a8b5bb"></stop><stop offset="1" stop-color="#99a8ae"></stop></radialGradient><linearGradient id="1770301555207-4147577_e" x1="256.01" x2="256.01" y1="194.09" y2="258.64" gradientTransform="matrix(1 0 0 -1 0 380.54)" gradientUnits="userSpaceOnUse"><stop offset="0" stop-color="#cf0000"></stop><stop offset=".24" stop-color="#de0004"></stop><stop offset=".71" stop-color="#f6000b"></stop><stop offset="1" stop-color="#ff000e"></stop></linearGradient><linearGradient id="1770301555207-4147577_f" x1="256" x2="256" y1="-12" y2="199.62" gradientTransform="matrix(1 0 0 -1 0 380.54)" gradientUnits="userSpaceOnUse"><stop offset="0" stop-color="#cf0000"></stop><stop offset=".24" stop-color="#de0004"></stop><stop offset=".71" stop-color="#f6000b"></stop><stop offset="1" stop-color="#ff000e"></stop></linearGradient><linearGradient id="1770301555207-4147577_g" x1="256" x2="256" y1="48.07" y2="211" gradientTransform="matrix(1 0 0 -1 0 380.54)" gradientUnits="userSpaceOnUse"><stop offset="0" stop-color="#ff543d"></stop><stop offset=".19" stop-color="#ff4c39"></stop><stop offset=".48" stop-color="#ff362c"></stop><stop offset=".83" stop-color="#ff1319"></stop><stop offset="1" stop-color="#ff000e"></stop></linearGradient></defs><path d="M169.78 155.19c-1.28 1.45-3.21 9.09-4.15 14.36 5.86.55 34.36-.54 32.11-37.7-8 13-25.54 20.6-27.96 23.34m172.46 0c-2.43-2.73-19.99-10.33-27.97-23.34-2.25 37.16 26.26 38.25 32.13 37.7-.96-5.27-2.87-12.92-4.16-14.36" class="w" fill="#c21413"></path><path d="M245.8 74.12h20.42s.09-6.84-.23-8.54c-.75-3.78-19.23-3.67-19.93 0-.35 1.7-.26 8.54-.26 8.54" class="u" fill="#800303"></path><path d="M2.34 139.25s.51 17.08 14.17 33.07c16.04 18.76 116.81 2.44 118.48-31.07 1.06-21.39-2.3-29.6-2.3-29.6z" fill="url(#1770301555207-4147577_b)"></path><path d="M379.32 111.65s-3.35 8.21-2.3 29.6c1.66 33.51 102.44 49.83 118.47 31.07 13.66-15.98 14.17-33.07 14.17-33.07l-130.34-27.61Z" fill="url(#1770301555207-4147577_c)"></path><path d="M256.01 0C157.38 0-22.58 21.73 2.34 139.25c6.93 32.65 131.01 5.95 130.34-27.6-.49-25.71 9.75-29.24 15.15-31.94 21.21-10.55 79.66-12.6 108.17-12.6s86.96 2.05 108.16 12.6c5.44 2.7 15.66 6.23 15.16 31.94-.63 33.55 123.42 60.25 130.34 27.6C534.58 21.73 354.63 0 256.01 0" fill="url(#1770301555207-4147577_d)"></path><path d="M237.23 83.15h37.54s.18-6.85-.43-8.55c-1.35-3.78-35.38-3.67-36.7 0-.58 1.7-.41 8.55-.41 8.55" class="t" fill="#b00505"></path><path d="M256 81.38c-56.5 0-77.22-6.64-77.22-6.64 6.5 48.02 147.94 48.02 154.45 0 0 0-20.71 6.64-77.23 6.64" class="u" fill="#800303"></path><path d="M182.65 90.11c25.27 40.86 121.44 40.86 146.71 0z" class="t" fill="#b00505"></path><path d="M331.99 54.06c0 46.09-27.73 50.54-75.99 50.54s-75.98-4.45-75.98-50.54c0-12.99-28-12.99-28 0v39.72c0 8.39 8.04 16.41 17.38 16.41h15.7c6.32 0 10.53 3.14 10.53 11.7 31.77 9.25 88.99 9.25 120.74 0 0-8.56 4.22-11.7 10.53-11.7h15.7c9.35 0 17.38-8.01 17.38-16.41V54.06c0-12.99-28-12.99-28 0Z" class="w" fill="#c21413"></path><path d="M321.11 148.09c-3.65-6.09-4.74-26.19-4.74-26.19H195.63s-1.08 20.1-4.74 26.19c-4.35 7.26-25.28 16.39-25.28 21.46 0 22.53 180.77 22.53 180.77 0 0-5.08-20.92-14.21-25.28-21.46Z" fill="url(#1770301555207-4147577_e)"></path><path d="M480.83 344.87c-2.1-7.39-21.52-51.18-32.38-66-4.79-6.53-65.03-15.72-105.57-97.96H169.14c-40.55 82.24-100.79 91.43-105.58 97.96-10.85 14.82-30.29 58.61-32.38 66-3.44 12.13-4.85 25.57-5.42 35.08-.44 7.53 4.36 12.59 21.21 12.59h418.05c16.85 0 21.67-5.06 21.21-12.59-.56-9.51-1.97-22.95-5.4-35.08" fill="url(#1770301555207-4147577_f)"></path><path d="M346.39 169.54H165.62C145.26 290.37 42.06 332.47 42.06 332.47h427.88s-103.2-42.1-123.55-162.93" fill="url(#1770301555207-4147577_g)"></path><path d="M339.97 254.78c0 95.6-168.83 95.6-168.83 0s168.83-95.57 168.83 0" class="r" fill="#6e8189"></path><path d="M339.97 247.22c0 95.59-168.83 95.59-168.83 0s168.83-95.57 168.83 0" fill="#b3c2c6"></path><path d="M329.53 297.67v-13.09l11.35-13.97v12.77z" fill="#cfd8dd"></path><path d="m308.95 259.63-5.05 6.35 25.63 20.23 11.35-15.6z" fill="#fff"></path><path d="M303.25 240.06c0 58.36-95.39 58.36-95.39 0 0-53.04 95.39-53.04 95.39 0" fill="url(#1770301555207-4147577_h)"></path><path d="M314.75 289.6c0 18.29-28.43 18.29-28.43 0 0-18.27 28.43-18.27 28.43 0" class="r" fill="#6e8189"></path><path d="M314.46 286.86c-2.67-15.42-25.22-15.42-27.9 0 4.63-11.06 23.29-11.06 27.9 0" class="s" fill="#1a1626"></path><path d="M287.47 302.48c0 18.29-28.42 18.29-28.42 0 0-18.26 28.42-18.26 28.42 0" class="r" fill="#6e8189"></path><path d="M287.16 299.75c-2.66-15.42-25.22-15.42-27.89 0 4.63-11.06 23.28-11.06 27.89 0" class="s" fill="#1a1626"></path><path d="M256.25 302.78c0 18.27-28.43 18.27-28.43 0s28.43-18.28 28.43 0" class="r" fill="#6e8189"></path><path d="M255.96 300.05c-2.67-15.42-25.23-15.42-27.9 0 4.64-11.06 23.29-11.06 27.9 0" class="s" fill="#1a1626"></path><path d="M228.06 291.93c0 17.72-28.42 17.72-28.42 0 0-17.7 28.42-17.7 28.42 0" class="r" fill="#6e8189"></path><path d="M227.76 289.28c-2.67-14.93-25.23-14.93-27.9 0 4.64-10.7 23.3-10.7 27.9 0" class="s" fill="#1a1626"></path><path d="M208.28 271.18c0 16.67-28.42 16.67-28.42 0s28.42-16.67 28.42 0" class="r" fill="#6e8189"></path><path d="M207.99 268.68c-2.66-14.05-25.22-14.05-27.89 0 4.63-10.07 23.28-10.07 27.89 0" class="s" fill="#1a1626"></path><path d="M201.44 245.7c0 15.67-27.43 15.67-27.43 0 0-15.66 27.43-15.66 27.43 0" class="r" fill="#6e8189"></path><path d="M201.15 243.36c-2.57-13.21-24.34-13.21-26.91 0 4.46-9.48 22.47-9.48 26.91 0" class="s" fill="#1a1626"></path><path d="M207.23 220.34c0 15.42-26.51 15.42-26.51 0s26.51-15.4 26.51 0" class="r" fill="#6e8189"></path><path d="M206.96 218.05c-2.48-13-23.54-13-26.01 0 4.32-9.34 21.72-9.34 26.01 0" class="s" fill="#1a1626"></path><path d="M225.42 200.68c0 14.46-26.5 14.46-26.5 0s26.5-14.47 26.5 0" class="r" fill="#6e8189"></path><path d="M225.15 198.51c-2.48-12.2-23.53-12.2-26.02 0 4.33-8.75 21.72-8.75 26.02 0" class="s" fill="#1a1626"></path><path d="M252.3 189.76c0 14.02-26.89 14.02-26.89 0s26.89-14.02 26.89 0" class="r" fill="#6e8189"></path><path d="M252.04 187.66c-2.53-11.83-23.88-11.83-26.39 0 4.39-8.48 22.02-8.48 26.39 0" class="s" fill="#1a1626"></path><path d="M281.76 189.59c0 14.01-26.89 14.01-26.89 0 0-14.03 26.89-14.03 26.89 0" class="r" fill="#6e8189"></path><path d="M281.49 187.49c-2.53-11.84-23.89-11.84-26.4 0 4.38-8.48 22.04-8.48 26.4 0" class="s" fill="#1a1626"></path><path d="M309.74 200.68c0 14.48-27.44 14.48-27.44 0s27.44-14.48 27.44 0" class="r" fill="#6e8189"></path><path d="M309.46 198.51c-2.57-12.21-24.35-12.21-26.92 0 4.47-8.76 22.47-8.76 26.92 0" class="s" fill="#1a1626"></path><path d="M329.33 220.83c0 15.32-28.29 15.32-28.29 0 0-15.33 28.29-15.33 28.29 0" class="r" fill="#6e8189"></path><path d="M329.04 218.53c-2.65-12.93-25.1-12.93-27.76 0 4.61-9.27 23.17-9.27 27.76 0" class="s" fill="#1a1626"></path></g></svg>
