<svg xmlns="http://www.w3.org/2000/svg" data-name="Layer 1" viewBox="0 0 512 256"><g><defs></defs><path d="M494.93 0H367.36c0 3.5-2.9 6.4-6.4 6.4s-6.4-2.9-6.4-6.4H17.07C7.68 0 0 7.68 0 17.07v221.87c0 9.39 7.68 17.07 17.07 17.07h337.49c0-3.5 2.9-6.4 6.4-6.4s6.4 2.9 6.4 6.4h127.57c9.39 0 17.07-7.68 17.07-17.07V17.07C512 7.68 504.32 0 494.93 0M360.96 239.1c-3.5 0-6.4-2.9-6.4-6.4s2.9-6.4 6.4-6.4 6.4 2.9 6.4 6.4-2.9 6.4-6.4 6.4m0-23.21c-3.5 0-6.4-2.9-6.4-6.4s2.9-6.4 6.4-6.4 6.4 2.9 6.4 6.4-2.9 6.4-6.4 6.4m0-23.29c-3.5 0-6.4-2.9-6.4-6.4s2.9-6.4 6.4-6.4 6.4 2.9 6.4 6.4-2.9 6.4-6.4 6.4m0-23.3c-3.5 0-6.4-2.9-6.4-6.4s2.9-6.4 6.4-6.4 6.4 2.9 6.4 6.4-2.9 6.4-6.4 6.4m0-23.29c-3.5 0-6.4-2.9-6.4-6.4s2.9-6.4 6.4-6.4 6.4 2.9 6.4 6.4-2.9 6.4-6.4 6.4m0-23.22c-3.5 0-6.4-2.9-6.4-6.4s2.9-6.4 6.4-6.4 6.4 2.9 6.4 6.4-2.9 6.4-6.4 6.4m0-23.29c-3.5 0-6.4-2.9-6.4-6.4s2.9-6.4 6.4-6.4 6.4 2.9 6.4 6.4-2.9 6.4-6.4 6.4m0-23.3c-3.5 0-6.4-2.9-6.4-6.4s2.9-6.4 6.4-6.4 6.4 2.9 6.4 6.4-2.9 6.4-6.4 6.4m0-23.29c-3.5 0-6.4-2.9-6.4-6.4s2.9-6.4 6.4-6.4 6.4 2.9 6.4 6.4-2.9 6.4-6.4 6.4m0-23.21c-3.5 0-6.4-2.9-6.4-6.4s2.9-6.4 6.4-6.4 6.4 2.9 6.4 6.4-2.9 6.4-6.4 6.4" fill="#75d6ff"></path><path d="M486.4 25.6v204.8h-89.26V25.6zm8.53-8.53H388.6v221.87h106.33zM324.78 25.6v204.8H25.6V25.6zm8.53-8.53H17.07v221.87h316.25V17.07Z" class="e" fill="#018bc9"></path><path id="1770301554752-8849685_b" d="M265.05 138.67c17.66 0 32 14.34 32 32s-14.34 32-32 32-32-14.34-32-32 14.34-32 32-32m0-10.67c-23.55 0-42.67 19.11-42.67 42.67s19.11 42.67 42.67 42.67 42.67-19.11 42.67-42.67S288.61 128 265.05 128" class="e" data-name="Shape" fill="#018bc9"></path><path id="1770301554752-8849685_c" d="M273.58 174.93c-1.45 0-2.13-.68-2.13-2.13v-4.27c0-1.45.68-2.13 2.13-2.13h13.82c1.45 0 2.13.68 2.13 2.13v2.13c0 13.57-11.01 24.58-24.58 24.58-6.57 0-12.8-2.65-17.32-7.17-1.02-1.02-1.02-2.05 0-2.99l4.52-4.52c1.02-1.02 1.96-1.02 2.99 0 2.56 2.56 6.06 4.1 9.81 4.1 6.14 0 11.43-4.01 13.23-9.56h-4.61v-.17Z" class="e" data-name="Combined-Shape" fill="#018bc9"></path><path d="M74.15 51.29h12.89v33.7h9.05v-33.7h12.88v-7.26H74.15zm39.6-7.26h8.96v41.05h-8.96zm36.61 6.66c1.88 0 3.75.34 5.46.94s3.58 1.62 5.38 2.99l2.82-6.49c-1.62-1.54-3.67-2.65-6.14-3.5s-5.03-1.28-7.77-1.28c-4.18 0-7.85.85-10.92 2.56s-5.46 4.18-7.08 7.34-2.47 6.83-2.47 11.09.85 7.94 2.47 11.18c1.62 3.16 4.01 5.63 7.08 7.34s6.74 2.56 10.92 2.56c2.73 0 5.29-.43 7.77-1.28 2.47-.85 4.52-1.96 6.14-3.5l-2.82-6.49c-1.88 1.37-3.67 2.39-5.38 2.99s-3.58.94-5.46.94c-3.67 0-6.49-1.19-8.45-3.58s-2.99-5.8-2.99-10.33 1.02-7.94 2.99-10.24c1.96-2.05 4.86-3.24 8.45-3.24m57-6.66h-10.75l-17.24 18.01V44.03h-8.96v40.96h8.96V66.05l17.92 18.94h10.84l-19.88-21.33zm2.47 40.96h28.25v-6.91h-19.46V67.67h18.27v-7h-18.27v-9.73h19.46v-6.91h-28.25zm31.58-40.96v7.26h12.8v33.7h9.13v-33.7h12.8v-7.26zM59.39 164.86c1.62-.6 2.99-1.54 3.93-2.99 1.02-1.54 1.54-3.41 1.54-5.55s-.43-3.84-1.37-5.38-2.3-2.73-4.01-3.5c-1.71-.85-3.75-1.19-6.06-1.19s-4.44.34-6.57 1.11-3.93 1.79-5.29 3.07l2.39 5.89c1.54-1.19 2.99-2.13 4.52-2.73s3.07-.94 4.52-.94c1.54 0 2.73.43 3.58 1.19s1.28 1.96 1.28 3.5-.51 2.73-1.45 3.5-2.39 1.11-4.44 1.11h-3.93v6.31h4.86c2.05 0 3.58.43 4.52 1.19s1.37 1.96 1.37 3.58c0 1.79-.43 2.99-1.37 3.75s-2.47 1.19-4.52 1.19c-1.62 0-3.16-.34-4.69-.85-1.54-.6-3.07-1.54-4.61-2.73l-2.39 5.89c1.37 1.28 3.16 2.3 5.29 3.07s4.35 1.11 6.74 1.11c3.84 0 6.91-.94 9.22-2.82 2.22-1.88 3.41-4.52 3.41-7.77 0-2.39-.6-4.44-1.79-6.06-1.19-1.45-2.73-2.47-4.69-2.99Zm28.59-18.17h-4.35l-9.99 6.4v7.25l6.91-4.52v21.67h-7.33v6.57h22.1v-6.57h-7.34zM50.26 130.9l-5.46-12.63h-2.99v17.07h3.25v-9.13l4.01 9.13h2.39l3.92-9.22v9.22h3.33v-17.07h-2.99zm17.75-12.63-7.85 17.07h3.75l1.62-3.75h7.94l1.62 3.75h3.75l-7.85-17.07H68Zm-1.19 10.5 2.73-6.4 2.73 6.4zm25.85 1.28c-.26-.68-.68-1.28-1.11-1.62-.34-.26-.68-.34-1.11-.43.77-.26 1.45-.6 1.96-1.02 1.02-.94 1.62-2.13 1.62-3.67 0-1.62-.51-2.82-1.54-3.67s-2.56-1.28-4.52-1.28h-7.59v17.07h3.67v-6.91h2.39c.51 0 .94.09 1.28.26s.68.51.85.94l2.22 5.72h3.93l-2.05-5.38Zm-5.29-4.44h-3.41v-4.44h3.41c1.11 0 1.88.17 2.39.51s.77.94.77 1.71-.26 1.28-.77 1.71c-.51.34-1.28.51-2.39.51M50.01 205.4c.94-1.02 1.62-1.88 1.96-2.73.43-.77.6-1.71.6-2.73 0-.94-.26-1.71-.68-2.47-.43-.6-1.11-1.19-1.96-1.54s-1.88-.6-2.99-.6-2.13.17-3.16.51-1.88.77-2.56 1.37l1.19 2.65c.77-.51 1.54-.94 2.22-1.19s1.45-.43 2.13-.43c.77 0 1.28.17 1.71.51s.6.85.6 1.45c0 .51-.17 1.11-.43 1.62s-.68 1.11-1.28 1.79l-5.55 5.89v2.73h11.43v-2.9h-7l3.75-3.93Zm11.26-9.99c-2.05 0-3.58.68-4.61 2.13-1.11 1.45-1.62 3.58-1.62 6.31s.51 4.95 1.62 6.4 2.65 2.22 4.61 2.22 3.58-.77 4.61-2.22c1.11-1.45 1.62-3.58 1.62-6.4s-.51-4.86-1.62-6.31c-1.02-1.45-2.56-2.13-4.61-2.13m2.05 12.89c-.43.94-1.11 1.37-2.05 1.37s-1.62-.43-2.05-1.37-.6-2.39-.6-4.35.17-3.41.6-4.35 1.11-1.37 2.05-1.37 1.62.43 2.05 1.37.6 2.3.6 4.35-.17 3.41-.6 4.35m14.67-12.72h-2.13L71 198.4v3.24l3.33-2.05v9.73h-3.59v2.9h10.84v-2.9h-3.59zm5.38 0v2.91h8.02l-7.34 13.73h3.84l7.43-13.91v-2.73zM447.83 59.14c1.54 1.37 2.82 2.39 4.1 2.99 1.19.6 2.56.85 4.01.85 1.37 0 2.65-.34 3.67-1.02s1.88-1.71 2.39-2.99c.6-1.28.85-2.82.85-4.52s-.26-3.24-.77-4.78-1.19-2.82-2.05-3.84l-3.93 1.79c.77 1.11 1.37 2.22 1.79 3.33s.6 2.22.6 3.24c0 1.11-.26 1.96-.77 2.56s-1.19.85-2.22.85c-.85 0-1.62-.26-2.47-.68-.85-.43-1.71-1.11-2.65-1.96l-8.87-8.36h-4.01v17.15h4.35V53.34l5.97 5.8Zm2.64 20.99c.43 1.19 1.02 2.22 1.96 2.9 1.02.77 2.3 1.11 3.75 1.11 1.37 0 2.56-.34 3.58-1.02s1.79-1.71 2.39-2.9c.51-1.28.85-2.73.85-4.44s-.26-3.24-.77-4.86-1.19-2.9-2.05-3.84l-3.93 1.79c.77 1.02 1.37 2.13 1.79 3.33.43 1.11.6 2.22.6 3.33s-.26 1.96-.77 2.65c-.51.6-1.37.94-2.39.94s-1.79-.34-2.3-1.02-.77-1.79-.77-3.24V71.7h-4.27v3.58c0 1.54-.26 2.65-.77 3.33s-1.28 1.02-2.39 1.02c-1.19 0-2.05-.34-2.56-1.02s-.77-1.79-.77-3.33c0-1.19.17-2.3.6-3.5.43-1.11 1.02-2.3 1.79-3.33l-3.93-1.79c-.85 1.02-1.54 2.3-2.05 3.93-.51 1.62-.77 3.24-.77 4.95 0 2.82.6 5.12 1.88 6.74s2.99 2.47 5.21 2.47c1.62 0 2.99-.43 4.01-1.28 1.02-.77 1.62-1.88 2.05-3.33Zm-24.32-23.55c.26-.34.51-.85.77-1.45s.43-1.28.6-2.05c.17-.68.34-1.19.43-1.54.17-.34.34-.68.51-.85s.43-.26.68-.26c.51 0 .85.17 1.19.6.26.43.43 1.02.43 1.71 0 .6-.09 1.28-.34 1.88s-.51 1.19-.94 1.79l1.96.85c.34-.34.6-.77.77-1.19.17-.51.34-1.02.51-1.54.09-.6.17-1.11.17-1.71 0-1.02-.17-1.88-.51-2.65s-.77-1.28-1.37-1.71-1.28-.6-1.96-.6c-.51 0-.94.09-1.37.26s-.77.43-1.02.77-.51.85-.77 1.37c-.26.6-.43 1.28-.6 2.05-.17.68-.26 1.19-.43 1.54-.17.43-.34.68-.51.85s-.43.26-.68.26c-.43 0-.85-.26-1.11-.68-.26-.43-.43-1.02-.43-1.79s.09-1.45.34-2.13c.17-.68.51-1.28.94-1.96l-1.96-.85c-.34.43-.6.85-.77 1.37s-.34 1.11-.51 1.71c-.09.6-.17 1.19-.17 1.88 0 1.11.17 2.05.43 2.82.34.77.77 1.37 1.28 1.79.6.43 1.28.6 2.05.6.51 0 .94-.09 1.28-.26.51-.26.77-.51 1.11-.85Zm-5.97 3.07v8.62h2.13v-5.98h3.16v5.55h2.14v-5.55h2.9v5.98h2.13v-8.62zm10.5 16.38c0 .6-.09 1.11-.26 1.71-.17.51-.51 1.11-.94 1.62l1.96.85c.43-.51.77-1.11 1.02-1.88s.34-1.54.34-2.39c0-1.28-.26-2.39-.77-3.33s-1.28-1.62-2.22-2.13-2.05-.77-3.33-.77-2.39.26-3.41.77c-.94.51-1.71 1.19-2.22 2.13s-.77 2.05-.77 3.33c0 .85.09 1.62.34 2.39s.6 1.37 1.02 1.88l1.96-.85c-.43-.6-.77-1.11-.94-1.62s-.26-1.11-.26-1.71c0-1.11.34-1.96 1.11-2.56.68-.6 1.79-.94 3.16-.94s2.39.34 3.16.94 1.02 1.45 1.02 2.56Zm-10.5 5.89H423v2.9h-2.82zm30.29 39.51c.43 1.19 1.02 2.22 1.96 2.9 1.02.77 2.3 1.11 3.75 1.11 1.37 0 2.56-.34 3.58-1.02s1.79-1.71 2.39-2.9c.51-1.28.85-2.73.85-4.44s-.26-3.24-.77-4.86-1.19-2.9-2.05-3.84l-3.93 1.79c.77 1.02 1.37 2.13 1.79 3.33.43 1.11.6 2.22.6 3.33s-.26 1.96-.77 2.65c-.51.6-1.37.94-2.39.94s-1.79-.34-2.3-1.02-.77-1.79-.77-3.24v-2.99h-4.27v3.58c0 1.54-.26 2.65-.77 3.33s-1.28 1.02-2.39 1.02c-1.19 0-2.05-.34-2.56-1.02s-.77-1.79-.77-3.33c0-1.19.17-2.3.6-3.5.43-1.11 1.02-2.3 1.79-3.33l-3.93-1.79c-.85 1.02-1.54 2.3-2.05 3.93-.51 1.62-.77 3.24-.77 4.95 0 2.82.6 5.12 1.88 6.74s2.99 2.47 5.21 2.47c1.62 0 2.99-.43 4.01-1.28 1.02-.94 1.62-2.05 2.05-3.5Zm12.12 23.55v-4.35l-16.38-11.43h-4.1v10.41h-4.61v5.38h4.61v3.41h4.27v-3.41h16.21Zm-16.21-5.37v-5.46l7.77 5.46zm-21.16-25.26c.17-.26.26-.51.34-.85.17.6.43 1.02.77 1.45.68.77 1.54 1.19 2.65 1.19 1.19 0 2.05-.34 2.73-1.11.6-.77.94-1.88.94-3.33v-5.55h-12.46v2.73h5.03v1.79c0 .34-.09.68-.17.94s-.34.51-.68.6l-4.18 1.62v2.9l3.84-1.54c.6-.17.94-.51 1.19-.85Zm2.04-2.99v-2.47h3.24v2.47c0 .77-.17 1.37-.43 1.71s-.68.51-1.19.51-.94-.17-1.19-.51c-.26-.43-.43-.94-.43-1.71m4.78 16.13c.51-.94.77-1.96.77-3.24s-.26-2.3-.77-3.24-1.28-1.62-2.22-2.13-2.05-.77-3.41-.77c-1.28 0-2.47.26-3.41.77s-1.71 1.19-2.22 2.13-.77 1.96-.77 3.24.26 2.3.77 3.24 1.28 1.62 2.22 2.13 2.13.77 3.41.77 2.39-.26 3.41-.77c.94-.6 1.71-1.28 2.22-2.13m-8.79-.86c-.77-.6-1.11-1.45-1.11-2.47s.34-1.88 1.11-2.47c.68-.6 1.79-.85 3.24-.85 1.37 0 2.47.26 3.16.85.68.6 1.11 1.45 1.11 2.47s-.34 1.88-1.11 2.47c-.68.6-1.79.94-3.16.94-1.45 0-2.56-.34-3.24-.94m.69 18.01 8.7-2.9v-1.88l-8.62-3.07 8.62-2.82v-2.81l-12.46 4.43v2.22l8.28 2.9-8.28 2.91v2.21l12.46 4.44v-2.64zm23.72 39.77c1.54 1.45 2.9 2.47 4.1 3.07s2.56.94 4.1.94c1.45 0 2.65-.34 3.75-1.02a6.46 6.46 0 0 0 2.39-2.99c.6-1.28.85-2.82.85-4.52s-.26-3.24-.77-4.86-1.19-2.9-2.05-3.93l-4.01 1.79c.77 1.11 1.45 2.3 1.79 3.41.43 1.11.6 2.22.6 3.24 0 1.11-.26 1.96-.77 2.56s-1.28.85-2.22.85c-.85 0-1.71-.26-2.47-.68-.85-.43-1.71-1.11-2.73-1.96l-8.96-8.45h-4.1v17.32h4.44v-10.5l6.06 5.72Zm-5.89 21.16h20.82v-3.24l-4.35-7.43h-4.86l2.98 5.12h-14.59v-5.46h-4.44v16.47h4.44zm-15.62-27.39c.26-.34.51-.85.77-1.45s.43-1.28.6-2.05c.17-.68.34-1.19.43-1.54.17-.34.34-.68.51-.85s.43-.26.68-.26c.51 0 .85.17 1.19.6.26.43.43 1.02.43 1.71 0 .6-.09 1.28-.34 1.88-.17.6-.51 1.19-.94 1.79l1.96.85c.34-.34.6-.77.77-1.19.17-.51.34-1.02.51-1.54.09-.6.17-1.11.17-1.71 0-1.02-.17-1.88-.51-2.65s-.77-1.28-1.37-1.71-1.28-.6-1.96-.6c-.51 0-.94.09-1.37.26s-.77.43-1.02.77-.51.85-.77 1.37c-.26.6-.43 1.28-.6 2.05-.17.68-.26 1.19-.43 1.54-.17.43-.34.68-.51.85s-.43.26-.68.26c-.43 0-.85-.26-1.11-.68-.26-.43-.43-1.02-.43-1.79s.09-1.45.34-2.13c.17-.68.51-1.28.94-1.96l-1.96-.85c-.34.43-.6.85-.77 1.37s-.34 1.11-.51 1.71c-.09.6-.17 1.19-.17 1.88 0 1.11.17 2.05.43 2.82.34.77.77 1.37 1.28 1.79.6.43 1.28.6 2.05.6.51 0 .94-.09 1.28-.26.51-.17.77-.51 1.11-.85Zm-5.97 3.07v8.62h2.13v-5.98h3.16v5.55h2.14v-5.55h2.9v5.98h2.13v-8.62zm12.46 14.59-12.46-5.72v2.73l2.73 1.19v5.8l-2.73 1.19v2.73l12.46-5.72v-2.22Zm-7.59-.85 4.69 2.05-4.69 1.96zm7.59 7.25h-2.22v3.93h-10.24v2.81h10.24v3.84h2.22z" class="e" fill="#018bc9"></path></g></svg>
