<svg xmlns="http://www.w3.org/2000/svg" data-name="Layer 1" style="" viewBox="0 0 512 415.93"><g><defs><linearGradient id="1770301554756-7194626_b" x1="93.87" x2="93.87" y1="45.99" y2="305.95" gradientTransform="matrix(1 0 0 -1 0 409.93)" gradientUnits="userSpaceOnUse"><stop offset="0" stop-color="#c6cfd4"></stop><stop offset=".23" stop-color="#d4dbe0"></stop><stop offset=".56" stop-color="#e1e7eb"></stop><stop offset=".86" stop-color="#e6ebef"></stop></linearGradient><linearGradient id="1770301554756-7194626_c" x1="345.55" x2="345.55" y1="136.94" y2="396.9" gradientTransform="matrix(1 0 0 -1 0 409.93)" gradientUnits="userSpaceOnUse"><stop offset="0" stop-color="#ffc800"></stop><stop offset="1" stop-color="#ffe600"></stop></linearGradient><linearGradient id="1770301554756-7194626_d" x1="31.28" x2="31.28" y1="184.61" y2="288.59" gradientTransform="matrix(1 0 0 -1 0 409.93)" gradientUnits="userSpaceOnUse"><stop offset="0" stop-color="#302c3b"></stop><stop offset=".29" stop-color="#454754"></stop><stop offset=".76" stop-color="#636d78"></stop><stop offset="1" stop-color="#6e7b85"></stop></linearGradient><linearGradient id="1770301554756-7194626_e" x1="105.3" x2="105.3" y1="184.61" y2="288.59" gradientTransform="matrix(1 0 0 -1 0 409.93)" gradientUnits="userSpaceOnUse"><stop offset="0" stop-color="#302c3b"></stop><stop offset=".29" stop-color="#454754"></stop><stop offset=".76" stop-color="#636d78"></stop><stop offset="1" stop-color="#6e7b85"></stop></linearGradient><radialGradient id="1770301554756-7194626_f" cx="135.96" cy="208.84" r="5.61" fx="135.96" fy="208.84" gradientTransform="matrix(9.22 0 0 -9.28 -1116.96 2300.97)" gradientUnits="userSpaceOnUse"><stop offset=".49" stop-color="#5b666e"></stop><stop offset=".64" stop-color="#525a64"></stop><stop offset=".92" stop-color="#3c3b49"></stop><stop offset="1" stop-color="#343040"></stop></radialGradient><radialGradient id="1770301554756-7194626_g" cx="168.35" cy="208.84" r="5.61" fx="168.35" fy="208.84" gradientTransform="matrix(9.22 0 0 -9.28 -1116.96 2300.97)" gradientUnits="userSpaceOnUse"><stop offset=".49" stop-color="#5b666e"></stop><stop offset=".64" stop-color="#525a64"></stop><stop offset=".92" stop-color="#3c3b49"></stop><stop offset="1" stop-color="#343040"></stop></radialGradient></defs><path d="M172.05 68.31h11.04v45.11h-11.04z" class="q" fill="#99a8ae"></path><path d="M58.71 108.78s36.47-27.2 113.34-40.47v40.47z" class="n" fill="#cfd8dd"></path><path d="M179.17 363.94V112.62c0-4.8-3.84-8.64-8.56-8.64H51.19c-4.72 0-9.6 3.76-10.88 8.32 0 0-.96 3.36-2.48 9.04l.56 43.35-25.44 60.63s-4.4 18.8-4.4 34.63v103.98h170.61Z" fill="url(#1770301554756-7194626_b)"></path><path d="M72.63 341.95H45.19c-4.08 0-7.44-3.44-7.44-7.6V231.81c0-3.68.64-9.52 1.36-13.04l21.04-98.06c.88-4 4.8-7.2 8.8-7.2h95.67c4.08 0 7.44 3.36 7.44 7.6v145.42c0 3.92-2.48 8.88-5.6 11.2l-81.59 60.31c-3.04 2.16-8.48 3.92-12.24 3.92Zm-3.68-226.37c-3.04 0-6.08 2.48-6.72 5.52l-21.04 98.06c-.72 3.44-1.36 9.12-1.36 12.64v102.62c0 2.96 2.4 5.44 5.36 5.44h27.52c3.28 0 8.32-1.68 10.96-3.6l81.59-60.31c2.56-1.92 4.72-6.24 4.72-9.44V121.02c0-2.96-2.4-5.44-5.36-5.44z" style="isolation:isolate" fill="#1a1626" opacity=".1"></path><path d="M507.68 0H183.41c-2.32 0-4.24 1.92-4.24 4.32v281.64h332.75V4.32c0-2.4-1.92-4.32-4.24-4.32" class="r" fill="#f59e01"></path><path d="M191.97 13.04h307.15V273H191.97z" fill="url(#1770301554756-7194626_c)"></path><path d="M215.97 261.24h8.56v4.32h-8.56zm250.6 0h8.56v4.32h-8.56z" fill="#e81c27"></path><path d="M102.38 329.31H8.56c-4.72 0-8.56 3.92-8.56 8.64v17.36c0 4.8 3.84 8.64 8.56 8.64h93.83v-34.63Z" class="t" fill="#4e5e67"></path><path d="M42.63 121.34h-4.8L12.95 225.32h8.4c4.72 0 9.28-3.84 10.24-8.48l17.84-87.03c.96-4.72-2.08-8.48-6.8-8.48Z" fill="url(#1770301554756-7194626_d)"></path><path d="M153.58 121.34H76.79c-4.72 0-9.28 3.84-10.32 8.48l-17.84 87.03c-.96 4.64 2.08 8.48 6.8 8.48h98.14c4.72 0 8.56-3.92 8.56-8.64v-86.71c0-4.72-3.84-8.64-8.56-8.64Z" fill="url(#1770301554756-7194626_e)"></path><path d="M10.64 277.32H25.6v34.63H10.64z" class="u" fill="#e6ebef"></path><path d="M25.6 277.32v34.63l8.56-8.64v-26H25.6Z" class="r" fill="#f59e01"></path><path d="M157.58 242.92c0-3.2 0-5.76-10.08-5.76h-10.56c-10.08 0-10.08 2.56-10.08 5.76 0 1.84 30.72 1.84 30.72 0" class="q" fill="#99a8ae"></path><path d="M136.54 285.96c-41.83 0-75.75 35.51-75.75 77.99h442.65c4.72 0 8.56-3.92 8.56-8.64v-69.35z" class="t" fill="#4e5e67"></path><path d="M195.57 363.38c0-32.87-26.4-59.43-59.11-59.43s-59.03 26.64-59.03 59.43z" class="o" fill="#1a1626"></path><path d="M188.21 363.94c0 28.72-23.12 51.99-51.67 51.99s-51.67-23.28-51.67-51.99 23.12-51.99 51.67-51.99 51.67 23.28 51.67 51.99" fill="url(#1770301554756-7194626_f)"></path><path d="M172.29 363.94c0 19.84-16 35.99-35.75 35.99s-35.75-16.08-35.75-35.99 16-35.99 35.75-35.99 35.75 16.16 35.75 35.99" class="u" fill="#e6ebef"></path><path d="M162.53 372.82c.96-2.8 1.52-5.76 1.52-8.88s-.56-6.08-1.52-8.88l-15.36 8.88zm-20.63-18.24 15.28-8.88a28.15 28.15 0 0 0-15.28-8.96zm-31.44.48c-.96 2.8-1.52 5.76-1.52 8.88s.56 6.08 1.52 8.88l15.36-8.88zm31.44 18.24v17.84c6.08-1.2 11.36-4.4 15.36-8.96zm-10.72-18.72v-17.84c-6.08 1.2-11.36 4.4-15.28 8.96zm0 18.72-15.28 8.88c3.92 4.48 9.28 7.68 15.28 8.96z" class="t" fill="#4e5e67"></path><path d="M150.54 363.94c0 7.84-6.24 14.16-14.08 14.16s-14.08-6.32-14.08-14.16 6.32-14.16 14.08-14.16 14.08 6.32 14.08 14.16" class="n" fill="#cfd8dd"></path><path d="M141.18 363.94c0 2.56-2.08 4.72-4.64 4.72s-4.64-2.08-4.64-4.72 2.08-4.72 4.64-4.72 4.64 2.08 4.64 4.72" class="u" fill="#e6ebef"></path><path d="M138.54 355.46c0 2.64-4 2.64-4 0s4-2.72 4 0m0 16.96c0 2.72-4 2.72-4 0s4-2.72 4 0m6.24-10.96c-2.32 1.36-4.32-2.16-2-3.52s4.32 2.16 2 3.52m-14.56 8.48c-2.32 1.36-4.32-2.16-2-3.52s4.32 2.16 2 3.52m12.56 0c-2.32-1.36-.32-4.88 2-3.52s.32 4.8-2 3.52m-14.56-8.48c-2.32-1.36-.32-4.8 2-3.52 2.32 1.36.32 4.88-2 3.52" class="t" fill="#4e5e67"></path><path d="M494.24 363.38c0-32.87-26.4-59.43-59.11-59.43s-59.03 26.64-59.03 59.43z" class="o" fill="#1a1626"></path><path d="M486.8 363.94c0 28.72-23.12 51.99-51.67 51.99s-51.67-23.28-51.67-51.99 23.12-51.99 51.67-51.99 51.67 23.28 51.67 51.99" fill="url(#1770301554756-7194626_g)"></path><path d="M470.89 363.94c0 19.84-16 35.99-35.75 35.99s-35.75-16.08-35.75-35.99 16-35.99 35.75-35.99 35.75 16.16 35.75 35.99" class="u" fill="#e6ebef"></path><path d="M461.21 372.82c.96-2.8 1.52-5.76 1.52-8.88s-.56-6.08-1.52-8.88l-15.36 8.88zm-20.72-18.24 15.28-8.88a28.15 28.15 0 0 0-15.28-8.96zm-31.43.48c-.96 2.8-1.52 5.76-1.52 8.88s.56 6.08 1.52 8.88l15.36-8.88zm31.43 18.24v17.84c6.08-1.2 11.36-4.4 15.36-8.96zm-10.72-18.72v-17.84c-6.08 1.2-11.36 4.4-15.28 8.96zm0 18.72-15.28 8.88c3.92 4.48 9.28 7.68 15.28 8.96z" class="t" fill="#4e5e67"></path><path d="M449.21 363.94c0 7.84-6.24 14.16-14.08 14.16s-14.08-6.32-14.08-14.16 6.32-14.16 14.08-14.16 14.08 6.32 14.08 14.16" class="n" fill="#cfd8dd"></path><path d="M439.77 363.94c0 2.56-2.08 4.72-4.64 4.72s-4.64-2.08-4.64-4.72 2.08-4.72 4.64-4.72 4.64 2.08 4.64 4.72" class="u" fill="#e6ebef"></path><path d="M437.13 355.46c0 2.64-4 2.64-4 0s4-2.72 4 0m0 16.96c0 2.72-4 2.72-4 0s4-2.72 4 0m6.32-10.96c-2.32 1.36-4.32-2.16-2-3.52s4.32 2.16 2 3.52m-14.56 8.48c-2.32 1.36-4.32-2.16-2-3.52s4.32 2.16 2 3.52m12.48 0c-2.32-1.36-.32-4.88 2-3.52 2.4 1.36.4 4.8-2 3.52m-14.48-8.48c-2.32-1.36-.32-4.8 2-3.52 2.32 1.36.32 4.88-2 3.52" class="t" fill="#4e5e67"></path></g></svg>
