<svg xmlns="http://www.w3.org/2000/svg" data-name="Layer 1" style="" viewBox="0 0 512 431.99"><g><defs><linearGradient id="1770301554814-6568711_b" x1="212.61" x2="332.65" y1="462.26" y2="63.45" gradientTransform="matrix(1 0 0 -1 0 428)" gradientUnits="userSpaceOnUse"><stop offset="0" stop-color="#b36a36"></stop><stop offset=".38" stop-color="#cf8d5f"></stop><stop offset=".43" stop-color="#c78557"></stop><stop offset=".51" stop-color="#b37040"></stop><stop offset=".59" stop-color="#995523"></stop><stop offset=".88" stop-color="#c47b47"></stop></linearGradient></defs><path d="M261.06 430.22c62.11-7.87 223.98-76.59 234.9-105.06 11.79-30.75-8.44-141.38-8.44-169.65 0-23.58 24.36-33.36 24.36-63.64C516.22 28.92 394.63 0 335.96 0 260.18 0 17.13 23.22.29 138.86l260.78 291.36Z" fill="url(#1770301554814-6568711_b)"></path><path d="M146.34 424.02c27.39-.14 131.4 24.52 143.49-12.18 17.7-53.69-5.77-177.4-5.77-202.12 0-31.49 24.34-44.82 24.34-71.19 0-61.33-80.34-87.02-154.19-87.02S0 72.26 0 138.53c0 26.38 24.35 46.15 24.35 71.19S1.82 332.06 16.38 398.87c10.95 50.24 96.96 25.28 129.96 25.14Z" fill="#b36f3f"></path><path d="M146.83 416.42c25.68-.14 123.16 23.5 134.5-11.7 16.58-51.44-5.41-170-5.41-193.69 0-30.16 22.83-42.95 22.83-68.21 0-58.78-75.33-83.42-144.54-83.42S9.68 79.33 9.68 142.83c0 25.26 22.82 44.22 22.82 68.21S11.38 328.3 25.04 392.32c10.25 48.15 90.86 24.23 121.78 24.1Z" fill="#ffebc4"></path><path d="M257.05 196.62c0 9.97-14.44 9.97-14.44 0 0-9.99 14.44-9.99 14.44 0m-35.51 135.12c0 9.98-14.46 9.98-14.46 0 0-9.99 14.46-9.99 14.46 0M85.32 308.2c0 9.99-14.44 9.99-14.44 0 0-9.98 14.44-9.98 14.44 0m99.52-131.32c0 10.01-14.45 10.01-14.45 0 0-9.97 14.45-9.97 14.45 0m-59.34-51.92c0 9.98-14.44 9.98-14.44 0s14.44-9.99 14.44 0m-59.68 28.72c0 9.99-14.45 9.99-14.45 0s14.45-9.99 14.45 0m85.7-6c0 9.99-14.45 9.99-14.45 0s14.45-9.99 14.45 0m-18.8-60.34c0 9.99-14.45 9.99-14.45 0s14.45-9.99 14.45 0M60.84 198.3c0 9.98-14.45 9.98-14.45 0s14.45-9.99 14.45 0m-18.39-61.55c0 9.99-14.45 9.99-14.45 0s14.45-9.99 14.45 0m184.31-45.14c0 9.99-14.46 9.99-14.46 0s14.46-9.99 14.46 0m-31.73 37.65c0 9.99-14.45 9.99-14.45 0s14.45-9.99 14.45 0m-88.88 39.58c0 9.99-14.45 9.99-14.45 0s14.45-9.99 14.45 0m38.15 136.99c0 9.98-14.45 9.98-14.45 0s14.45-9.99 14.45 0m7.4-41c0 10.2-14.8 10.2-14.8 0s14.8-10.23 14.8 0M90.23 373.06c0 10.2-14.78 10.2-14.78 0s14.78-10.23 14.78 0m113.84-136.78c0 9.99-14.44 9.99-14.44 0s14.44-9.98 14.44 0m10.27-47.17c0 6.62-9.56 6.62-9.56 0 0-6.6 9.56-6.6 9.56 0m-2.47-37.97c0 6.62-9.57 6.62-9.57 0 0-6.61 9.57-6.61 9.57 0m-55.57-33.68c0 6.62-9.57 6.62-9.57 0 0-6.61 9.57-6.61 9.57 0m-16.87 65.76c0 6.62-9.57 6.62-9.57 0 0-6.6 9.57-6.6 9.57 0m-47.02 31.89c0 6.62-9.57 6.62-9.57 0s9.57-6.61 9.57 0m77.99-8.25c0 6.62-9.57 6.62-9.57 0s9.57-6.6 9.57 0m12-112.03c0 6.62-9.56 6.62-9.56 0s9.56-6.6 9.56 0m57.69 30.75c0 6.62-9.56 6.62-9.56 0s9.56-6.6 9.56 0m41.4 0c0 6.62-9.56 6.62-9.56 0 0-6.6 9.56-6.6 9.56 0m-82.3-49.31c0 6.62-9.56 6.62-9.56 0s9.56-6.6 9.56 0m20.35 49.31c0 6.62-9.57 6.62-9.57 0s9.57-6.6 9.57 0M100.22 87.34c0 6.62-9.57 6.62-9.57 0s9.57-6.6 9.57 0m-12.6 46.87c0 6.62-9.57 6.62-9.57 0s9.57-6.6 9.57 0m-4.75 48.75c0 6.62-9.56 6.62-9.56 0 0-6.6 9.56-6.6 9.56 0M58.4 233.75c0 6.62-9.57 6.62-9.57 0s9.57-6.6 9.57 0m46.6 19.51c0 6.61-9.56 6.61-9.56 0s9.56-6.61 9.56 0m-56.62 54.93c0 6.62-9.57 6.62-9.57 0 0-6.59 9.57-6.59 9.57 0m140.32 4.96c0 6.62-9.57 6.62-9.57 0s9.57-6.6 9.57 0m-13.52-66.45c0 6.61-9.57 6.61-9.57 0s9.57-6.61 9.57 0m55.92 59.13c0 6.62-9.56 6.62-9.56 0s9.56-6.61 9.56 0m-41.28-29.5c0 6.62-9.57 6.62-9.57 0s9.57-6.6 9.57 0m-19.42 13.74c0 6.62-9.57 6.62-9.57 0s9.57-6.6 9.57 0m31.23-85.98c0 6.62-9.56 6.62-9.56 0s9.56-6.6 9.56 0m-76.35-2.19c0 6.62-9.56 6.62-9.56 0s9.56-6.6 9.56 0m96.59 62.92c0 6.62-9.56 6.62-9.56 0s9.56-6.6 9.56 0m25.52 15.33c0 6.62-9.56 6.62-9.56 0s9.56-6.6 9.56 0m-145.42 0c0 6.62-9.56 6.62-9.56 0 0-6.6 9.56-6.6 9.56 0m47.11 57.09c0 6.61-9.57 6.61-9.57 0s9.57-6.61 9.57 0m-31.86 55.39c0 6.61-9.56 6.61-9.56 0s9.56-6.61 9.56 0m126.7-17.34c0 6.62-9.57 6.62-9.57 0 0-6.59 9.57-6.59 9.57 0m-17.59-18.03c0 6.62-9.57 6.62-9.57 0 0-6.59 9.57-6.59 9.57 0m38.57-99.05c0 6.62-9.57 6.62-9.57 0 0-6.6 9.57-6.6 9.57 0m10.98 42.65c0 6.62-9.56 6.62-9.56 0s9.56-6.59 9.56 0m2.17-134.73c0 6.62-9.56 6.62-9.56 0s9.56-6.61 9.56 0m-20.13-64.15c0 6.62-9.56 6.62-9.56 0 0-6.61 9.56-6.61 9.56 0m-98.93-30.66c0 6.62-9.56 6.62-9.56 0s9.56-6.61 9.56 0m-40.71 283.23c0 6.62-9.57 6.62-9.57 0s9.57-6.6 9.57 0m-62.5-22.82c0 6.62-9.56 6.62-9.56 0 0-6.59 9.56-6.59 9.56 0m39.24 74.51c0 6.62-9.56 6.62-9.56 0s9.56-6.59 9.56 0m56.49-33.2c0 6.62-9.57 6.62-9.57 0 0-6.59 9.57-6.59 9.57 0m-2.43 24.54c0 6.62-9.57 6.62-9.57 0 0-6.59 9.57-6.59 9.57 0m50.42 8.66c0 6.62-9.57 6.62-9.57 0 0-6.6 9.57-6.6 9.57 0m7.59-35.03c0 6.62-9.56 6.62-9.56 0s9.56-6.59 9.56 0m55.53 31.33c0 6.62-9.56 6.62-9.56 0 0-6.6 9.56-6.6 9.56 0m10.64-32.2c0 6.62-9.58 6.62-9.58 0 0-6.6 9.58-6.6 9.58 0m-22.74-28.15c0 6.62-9.57 6.62-9.57 0 0-6.59 9.57-6.59 9.57 0m-134.8-26.49c0 6.61-9.57 6.61-9.57 0s9.57-6.61 9.57 0m-47.57-30.59c0 6.62-9.56 6.62-9.56 0s9.56-6.61 9.56 0m5.51-178.16c0 10.21-14.79 10.21-14.79 0s14.79-10.21 14.79 0m111.37 277.24c0 10.23-14.81 10.23-14.81 0s14.81-10.21 14.81 0m45.5 19.33c0 10.24-14.81 10.24-14.81 0s14.81-10.2 14.81 0m45.35-69c0 10.24-14.81 10.24-14.81 0s14.81-10.2 14.81 0m-93.65 12.36c0 10.23-14.8 10.23-14.8 0 0-10.21 14.8-10.21 14.8 0m-89.52-12.36c0 10.24-14.8 10.24-14.8 0 0-10.2 14.8-10.2 14.8 0m-46.49 20.02c0 10.24-14.81 10.24-14.81 0 0-10.21 14.81-10.21 14.81 0m14.8 35.37c0 10.24-14.8 10.24-14.8 0s14.8-10.2 14.8 0m7.4-129c0 10.24-14.8 10.24-14.8 0s14.8-10.2 14.8 0m66.24-32.12c0 10.24-14.81 10.24-14.81 0 0-10.21 14.81-10.21 14.81 0m110.67-67.63c0 10.24-14.8 10.24-14.8 0s14.8-10.21 14.8 0m0 70.34c0 10.23-14.8 10.23-14.8 0s14.8-10.22 14.8 0" fill="#ffe4b3"></path></g></svg>
