<svg xmlns="http://www.w3.org/2000/svg" data-name="Layer 1" style="" viewBox="0 0 512 512"><g><defs><linearGradient id="1770301554824-2978379_b" x1="298.9" x2="343.7" y1="29.41" y2="363.32" gradientTransform="matrix(1 0 0 -1 -45.76 524.01)" gradientUnits="userSpaceOnUse"><stop offset="0" stop-color="#5e3c2c"></stop><stop offset=".12" stop-color="#6a4632"></stop><stop offset=".35" stop-color="#7d543a"></stop><stop offset=".59" stop-color="#885d3f"></stop><stop offset=".85" stop-color="#8c6041"></stop></linearGradient><linearGradient id="1770301554824-2978379_c" x1="48.08" x2="-50.57" y1="86.37" y2="227.81" gradientTransform="scale(1 -1) rotate(21.62 1107.776 557.486)" gradientUnits="userSpaceOnUse"><stop offset="0" stop-color="#a7aeb3"></stop><stop offset=".02" stop-color="#aab1b6"></stop><stop offset=".22" stop-color="#c4cacf"></stop><stop offset=".42" stop-color="#d7dce1"></stop><stop offset=".63" stop-color="#e2e7eb"></stop><stop offset=".85" stop-color="#e6ebef"></stop></linearGradient></defs><path d="M222.26.84c65-8.05 151.54 43.16 196.61 91.35C367.7 48.38 286.37 9.13 222.26.84c9.32-1.15 18.6 2.4 0 0" class="f" fill="#a87854"></path><path d="M133.35 46.1c22.57 59.97 112.89 94.34 118.43 161.48-20.15-62.43-109.41-93.56-118.43-161.48 2.99 7.91 1.13 8.48 0 0" class="g" fill="#a8714a"></path><path d="M54.61 406.62c-13.46-58.9-56.19-123.76-54.56-187 11.76 65.23 52.77 119.49 54.55 187.01-7.31-31.95-.44-16.37 0 0Z" class="k" fill="#8a5d3d"></path><path d="M100.13 319.73c-20.57-51.54-73.33-90.89-83.02-145.92 23.23 53.59 73.94 84.75 83.02 145.92-5.27-13.22-2.08-14.05 0 0M71.41 76.47c12.79 73.52 78.31 115.93 123.95 167.96C139.87 212.37 69.25 145.3 71.41 76.47c3.08 17.67-.28 8.99 0 0m90.78-58.04c89.71 15.16 117.27 73.55 161.27 143.04C267.7 102.88 244.8 49.13 162.19 18.43c18.45 3.12 17.54 6.51 0 0" class="j" fill="#785136"></path><path d="M153.99 227.63c-33.03-21.21-96.87-76.39-101.55-124.06 16.9 47.33 68.42 88.19 101.55 124.06-22.96-14.75 0 0 0 0" class="k" fill="#8a5d3d"></path><path d="M396.16 37.2c305.8 295.67-56.58 661.07-362.35 365.38z" fill="url(#1770301554824-2978379_b)"></path><path d="M396.72 37.82c-47.87-53.67-143.26-58.92-266.7 41.74-4.52 3.69-11.08 28.76-13.52 31.4-1.75 1.49-28.67 10.03-31.04 12.74C3.8 216.76-26.95 323.85 26.94 394.86c34.59 46.66 147.07 46.34 232.84-5.71 9.56-5.79 12.39-37.96 12.39-37.96s31.41-3.89 35.2-6.03c35.24-19.82 13.04-74.12 76.63-127.36 11.15-9.36.38-50.07.38-50.07s20.59 2.86 23.39-2.45c20.25-38.54 21.12-91.42-11.05-127.45Z" fill="#45332c"></path><path d="M392.33 160.4c19.24-37.14 20.66-87.63-8.77-121.45-43.77-50.44-132.12-53.79-247.7 44.42-4.27 3.6-10.58 27.64-12.93 30.22-1.64 1.44-26.65 10.05-28.92 12.66-76.76 90.23-106.48 193.02-57.36 259.87 31.54 43.95 135.82 41.68 215.92-9.44 8.95-5.71 11.92-36.48 11.92-36.48s29.19-4.23 32.72-6.34c32.86-19.54 12.9-71 72.47-122.91 10.45-9.12.96-47.79.96-47.79s19.04 2.37 21.68-2.75Z" fill="#fff"></path><path d="M352.22 159.7c16.5-32.41 18.81-75.84-4.35-104.19-34.48-42.26-106.3-42.92-202.67 44.41-3.53 3.21-9.27 24.03-11.18 26.3-1.38 1.26-21.95 9.32-23.84 11.62-64.57 79.51-91.1 168.61-52.66 224.87 24.63 36.96 109.56 32.41 175.94-13.6 7.42-5.09 10.55-31.61 10.55-31.61s23.84-4.39 26.77-6.3c27.18-17.61 12.15-61.36 61.8-107.47 8.72-8.11 1.92-41.15 1.92-41.15s15.44 1.61 17.72-2.87Z" fill="url(#1770301554824-2978379_c)"></path><path d="M511.93 288.53c-12.29-105.25-60.76-187.91-134.76-262.08 82.49 61.56 137.1 158.03 134.76 262.08-2.93-25.2.28-12.68 0 0" class="g" fill="#a8714a"></path><path d="M412.72 103.58c55.6 34.61 90.68 128.83 95.43 194.66-12.26-66.25-50.82-147.9-95.43-194.66 7.96 4.96 12.95 13.56 0 0" class="f" fill="#a87854"></path><path d="M507.37 323.73c-29.8-64.93-65.78-126.2-103.82-186.56 47.78 49.42 88.38 119.31 103.82 186.56-3.75-8.17-4.03-17.52 0 0M385.96 149.9c40.6 19.57 94.63 141.76 113.95 177.31-38.31-44.9-70.66-141.77-113.95-177.31 8.07 3.89 13.92 11.42 0 0" class="f" fill="#a87854"></path><path d="M499.67 352.01c-35.48-54.82-76.46-105.2-122.91-151.11 55.27 38.74 96.25 89.11 122.91 151.11-18.98-26.79-13.15-30.11 0 0" class="g" fill="#a8714a"></path><path d="M370.54 205.71c22.56 59.97 112.89 94.34 118.43 161.49-20.14-62.44-109.4-93.56-118.43-161.49 2.98 7.9 1.13 8.48 0 0" class="g" fill="#a8714a"></path><path d="M484.76 386.47c-41.95-37.3-61.63-142.58-126.46-142.54 65.79-15.44 96.98 103.55 126.46 142.54-12.55-11.15-10.14-13.38 0 0" class="f" fill="#a87854"></path><path d="M339.2 235.87c23.81 62.47 132.73 83.6 128.71 157.89-10.95-74.37-115.77-83.32-128.71-157.89 6.25 16.47 3.01 17.43 0 0" class="g" fill="#a8714a"></path><path d="M460.77 422.83c-60.48-67.82-52.42-68.75-143.77-134.3 89.12 43.12 99.24 54.28 143.77 134.3-5.74-6.45-8.44-15.18 0 0" class="g" fill="#a8714a"></path><path d="M448.31 436.51c-36.25-66.81-80.75-83.57-149.49-106.6 71.3 8.59 127.13 32.91 149.49 106.6-7.76-14.3-4.73-15.57 0 0m-131.3 70.84C222.44 493.1 112.3 475.48 50.05 394.28c74.57 71.96 172.24 84.57 266.96 113.07-24.42-3.68-23.65-7.1 0 0" class="g" fill="#a8714a"></path><path d="M279.11 511.15c-77.62 7.16-155.32-32.18-220.5-70.11 73.67 25.07 141.52 62.44 220.5 70.11-9.71.9-19.41-1.89 0 0" class="g" fill="#a8714a"></path><path d="M345.49 500.49c-69-52.63-195.15 9.31-235.22-81.07 54.18 84.27 169.85 12.29 235.22 81.07-17.36-13.23-7.52-7.89 0 0" class="j" fill="#785136"></path><path d="M373.05 490.22c-68.65-9.63-112.33-42.57-153.97-99.98 41.82 47.99 93.13 81.31 153.97 99.98-15.55-2.18-29.5-10.75 0 0M237.1 375.17c56.09 23.3 102.77 58.91 140.06 106.86A1255 1255 0 0 0 237.1 375.17c26.67 13 23.13 18.7 0 0m162.37 93.25c-34.02-50.82-77.69-91.22-131.02-121.18 61.05 21.61 104.73 62.01 131.02 121.18-17.12-25.18-11.19-28.41 0 0" class="g" fill="#a8714a"></path><path d="M433.91 450.9c-35.87-33.12-76.72-84.66-124.05-101.55 47.66 4.68 102.86 68.53 124.05 101.55 0 0-14.75-22.98 0 0" class="f" fill="#a87854"></path><path d="M282.08 510.28c-104.14 2.55-199.79-45.17-262.09-128.84 75.2 74.94 156.31 117.02 262.09 128.84-12.58.3-25.05-2.81 0 0" class="k" fill="#8a5d3d"></path><path d="M120.94 410.86c45.04 44.52 109.9 83.18 172.01 98.04-62.87-5.53-137.97-44.12-172.01-98.04 12.02 11.88 9.01 14.27 0 0" class="k" fill="#8a5d3d"></path><path d="M317.01 505.17c-52.35-30.16-128.97-42.93-174.23-87.1 55.83 35.71 123.5 42.5 174.23 87.1-28.41-16.36-12.31-10.81 0 0" class="k" fill="#8a5d3d"></path><path d="M190.81 412.32c49.42 16.3 91.44 58.86 129.95 91.88-47.96-23.77-85.17-63.45-129.95-91.88 12.76 4.21 11.26 7.16 0 0" class="f" fill="#a87854"></path><path d="M332.14 500.49c-37.15-41.18-100.29-59.82-128.46-108.07 40.38 42.21 98.76 53.86 128.46 108.07-9.52-10.53-6.82-12.44 0 0" class="j" fill="#785136"></path><path d="M213.74 377.33c65.23 11.15 87.61 96.62 146.99 115.93-63.19-4.39-91.1-94.57-146.99-115.93 15.95 2.72 7.42 2.83 0 0" class="k" fill="#8a5d3d"></path><path d="M376.76 483.85c-65.62-18.38-112.05-58.81-139.29-121.27 34.72 53.9 81.14 94.31 139.29 121.27-31.41-5.73-29.27-12.18 0 0" class="k" fill="#8a5d3d"></path><path d="M229.42 343.47c75.45 12.55 85.91 123.18 161.95 134.76-76.38 3.83-97.69-109.26-161.95-134.76 8.97 1.5 8.41 3.35 0 0" class="j" fill="#785136"></path><path d="M405.86 473.03c-69.54-21.96-85.73-82.38-123.78-136.37 48.58 44.89 63.17 102.09 123.78 136.37-15.03-4.73-13.73-7.76 0 0" class="k" fill="#8a5d3d"></path><path d="M416.37 465.06c-77.98-43.18-72.65-72.07-102.36-141.34 40.91 51.39 44.32 91.91 102.36 141.34-13.37-7.41-11.63-9.91 0 0" class="j" fill="#785136"></path><path d="M430.06 452.6c-77.42-23.07-97.84-102.5-106.6-173.98 23.86 70.15 34.55 135.31 106.6 173.98-8.63-2.57-15.82-8.48 0 0" class="k" fill="#8a5d3d"></path><path d="M336.03 250.96c12.79 73.52 78.31 115.93 123.95 167.94-55.49-32.05-126.11-99.1-123.95-167.94 3.08 17.66-.28 8.99 0 0m164.86 70.34c-63.9-79.23-43.77-196.26-113.06-266.94 74.98 57.49 66.33 187.06 113.06 266.94-7.73-9.59-12.42-21.26 0 0m3.8-37.91c-7.65-78.97-45.02-146.83-70.12-220.5 37.95 65.15 77.31 142.91 70.12 220.5-1.88-19.41.9-9.71 0 0" class="j" fill="#785136"></path><path d="M394.36 160.45c75.87 50.19 77.42 114.76 89.5 196.1-27.25-76.14-26.41-134.58-89.5-196.1 15.61 10.33 13.38 13.06 0 0" class="j" fill="#785136"></path><path d="M483.76 377.33c-25.78-75.07-61.17-144.39-115.05-203.1 63.22 46.35 103.3 126.99 115.05 203.1-6.43-18.72-3.02-19.6 0 0M368.7 241.4c32.34 49.2 67.96 95.86 106.86 140.04C427.62 344.16 392 297.47 368.7 241.4c18.72 23.15 13 26.66 0 0m104.6 156.68c-59.19-26.3-99.57-69.98-121.17-131.03 29.94 53.32 70.34 97.01 121.17 131.03-28.42-11.2-25.17-17.11 0 0" class="j" fill="#785136"></path><path d="M444.44 438.21c-33.03-21.21-96.88-76.39-101.55-124.05 16.9 47.31 68.42 88.17 101.55 124.05-22.97-14.76 0 0 0 0" class="k" fill="#8a5d3d"></path></g></svg>
