<svg xmlns="http://www.w3.org/2000/svg" data-name="Layer 1" style="" viewBox="0 0 512 477.86"><g><defs><linearGradient id="1770301554831-521050_b" x1="334.14" x2="370.01" y1="425.26" y2="457.14" gradientTransform="matrix(1 0 0 -1 0 479.86)" gradientUnits="userSpaceOnUse"><stop offset="0" stop-color="#b00000"></stop><stop offset=".17" stop-color="#ca290a"></stop><stop offset=".34" stop-color="#e14c13"></stop><stop offset=".51" stop-color="#f2651a"></stop><stop offset=".66" stop-color="#fc751e"></stop><stop offset=".78" stop-color="#ff7a1f"></stop></linearGradient><linearGradient id="1770301554831-521050_d" x1="458.8" x2="522.05" y1="1265.25" y2="1265.25" gradientTransform="translate(-56 -1104)" gradientUnits="userSpaceOnUse"><stop offset="0" stop-color="#b00000"></stop><stop offset=".09" stop-color="#bd1000"></stop><stop offset=".31" stop-color="#d93600"></stop><stop offset=".52" stop-color="#ee5200"></stop><stop offset=".7" stop-color="#fb6200"></stop><stop offset=".84" stop-color="#ff6800"></stop></linearGradient><linearGradient id="1770301554831-521050_e" x1="426.23" x2="502.02" y1="1364.37" y2="1288.58" gradientTransform="translate(-56 -1104)" gradientUnits="userSpaceOnUse"><stop offset="0" stop-color="#b00000"></stop><stop offset="1" stop-color="#ff6800"></stop></linearGradient><linearGradient id="1770301554831-521050_h" x1="-97.07" x2="-61.49" y1="391.03" y2="422.65" gradientTransform="rotate(158.64 54.821 241.286)" gradientUnits="userSpaceOnUse"><stop offset="0" stop-color="#b00000"></stop><stop offset=".17" stop-color="#ca290a"></stop><stop offset=".34" stop-color="#e14c13"></stop><stop offset=".51" stop-color="#f2651a"></stop><stop offset=".66" stop-color="#fc751e"></stop><stop offset=".78" stop-color="#ff7a1f"></stop></linearGradient><linearGradient id="1770301554831-521050_j" x1="29.65" x2="93.89" y1="1300.95" y2="1300.95" gradientTransform="scale(-1 1) rotate(21.36 2946.533 354.297)" gradientUnits="userSpaceOnUse"><stop offset="0" stop-color="#b00000"></stop><stop offset=".09" stop-color="#bd1000"></stop><stop offset=".31" stop-color="#d93600"></stop><stop offset=".52" stop-color="#ee5200"></stop><stop offset=".7" stop-color="#fb6200"></stop><stop offset=".84" stop-color="#ff6800"></stop></linearGradient><linearGradient id="1770301554831-521050_k" x1="-.28" x2="73.91" y1="1397.67" y2="1323.49" gradientTransform="scale(-1 1) rotate(21.36 2946.533 354.297)" gradientUnits="userSpaceOnUse"><stop offset="0" stop-color="#b00000"></stop><stop offset="1" stop-color="#ff6800"></stop></linearGradient><linearGradient id="1770301554831-521050_n" x1="-164.4" x2="-164.4" y1="1487.71" y2="1456.45" gradientTransform="scale(-1 1) rotate(11.33 5665.44 1639.98)" gradientUnits="userSpaceOnUse"><stop offset="0" stop-color="#b00000"></stop><stop offset="1" stop-color="#ff6800"></stop></linearGradient><linearGradient id="1770301554831-521050_o" x1="-38.7" x2="-38.7" y1="1500.09" y2="1459.54" gradientTransform="scale(-1 1) rotate(35.51 1622.836 966.069)" gradientUnits="userSpaceOnUse"><stop offset="0" stop-color="#b00000"></stop><stop offset="1" stop-color="#ff6800"></stop></linearGradient><linearGradient id="1770301554831-521050_p" x1="74.93" x2="74.93" y1="1158.14" y2="1123.95" gradientTransform="matrix(.3259 .9454 .9454 -.3259 -983 767.4)" gradientUnits="userSpaceOnUse"><stop offset="0" stop-color="#b00000"></stop><stop offset="1" stop-color="#ff6800"></stop></linearGradient><linearGradient id="1770301554831-521050_q" x1="-437.38" x2="-437.38" y1="1259.34" y2="1219.21" gradientTransform="scale(1 -1) rotate(69.45 841.567 848.977)" gradientUnits="userSpaceOnUse"><stop offset="0" stop-color="#b00000"></stop><stop offset="1" stop-color="#ff6800"></stop></linearGradient><linearGradient id="1770301554831-521050_r" x1="-201.45" x2="-201.45" y1="1490.91" y2="1455.62" gradientTransform="scale(-1 1) rotate(11.33 5665.44 1639.98)" gradientUnits="userSpaceOnUse"><stop offset="0" stop-color="#b00000"></stop><stop offset="1" stop-color="#ff6800"></stop></linearGradient><linearGradient id="1770301554831-521050_s" x1="-90.32" x2="-90.32" y1="1477.42" y2="1450.91" gradientTransform="scale(-1 1) rotate(35.51 1622.836 966.069)" gradientUnits="userSpaceOnUse"><stop offset="0" stop-color="#b00000"></stop><stop offset="1" stop-color="#ff6800"></stop></linearGradient><linearGradient id="1770301554831-521050_t" x1="-94.68" x2="-94.68" y1="1557.88" y2="1499.23" gradientTransform="scale(-1 1) rotate(35.51 1622.836 966.069)" gradientUnits="userSpaceOnUse"><stop offset="0" stop-color="#b00000"></stop><stop offset="1" stop-color="#ff6800"></stop></linearGradient><linearGradient id="1770301554831-521050_u" x1="-217.83" x2="-217.83" y1="1460.14" y2="1380.39" gradientTransform="scale(-1 1) rotate(11.33 5665.44 1639.98)" gradientUnits="userSpaceOnUse"><stop offset="0" stop-color="#b00000"></stop><stop offset="1" stop-color="#ff6800"></stop></linearGradient><linearGradient id="1770301554831-521050_v" x1="-251.16" x2="-251.16" y1="1516.8" y2="1474.7" gradientTransform="scale(-1 1) rotate(11.33 5665.44 1639.98)" gradientUnits="userSpaceOnUse"><stop offset="0" stop-color="#b00000"></stop><stop offset="1" stop-color="#ff6800"></stop></linearGradient><linearGradient id="1770301554831-521050_w" x1="-144.86" x2="-144.86" y1="1527.78" y2="1459.22" gradientTransform="scale(-1 1) rotate(35.51 1622.836 966.069)" gradientUnits="userSpaceOnUse"><stop offset="0" stop-color="#b00000"></stop><stop offset="1" stop-color="#ff6800"></stop></linearGradient><linearGradient id="1770301554831-521050_x" x1="-148.38" x2="-148.38" y1="1560.14" y2="1500.47" gradientTransform="scale(-1 1) rotate(35.51 1622.836 966.069)" gradientUnits="userSpaceOnUse"><stop offset="0" stop-color="#b00000"></stop><stop offset="1" stop-color="#ff6800"></stop></linearGradient><linearGradient id="1770301554831-521050_y" x1="-258.09" x2="-258.09" y1="1482.98" y2="1440.34" gradientTransform="scale(-1 1) rotate(11.33 5665.44 1639.98)" gradientUnits="userSpaceOnUse"><stop offset="0" stop-color="#b00000"></stop><stop offset="1" stop-color="#ff6800"></stop></linearGradient><linearGradient id="1770301554831-521050_z" x1="237.73" x2="237.73" y1="1407.12" y2="1375.86" gradientTransform="rotate(11.33 5716.377 2153.465)" gradientUnits="userSpaceOnUse"><stop offset="0" stop-color="#b00000"></stop><stop offset="1" stop-color="#ff6800"></stop></linearGradient><linearGradient id="1770301554831-521050_aa" x1="295.13" x2="295.13" y1="1261.85" y2="1221.3" gradientTransform="rotate(35.51 1673.774 1125.157)" gradientUnits="userSpaceOnUse"><stop offset="0" stop-color="#b00000"></stop><stop offset="1" stop-color="#ff6800"></stop></linearGradient><linearGradient id="1770301554831-521050_ab" x1="-58.73" x2="-58.73" y1="770.4" y2="736.21" gradientTransform="rotate(109.02 268.85 770.476)" gradientUnits="userSpaceOnUse"><stop offset="0" stop-color="#b00000"></stop><stop offset="1" stop-color="#ff6800"></stop></linearGradient><linearGradient id="1770301554831-521050_ac" x1="-581.33" x2="-581.33" y1="1643.37" y2="1603.23" gradientTransform="rotate(249.45 -537.473 547.97)" gradientUnits="userSpaceOnUse"><stop offset="0" stop-color="#b00000"></stop><stop offset="1" stop-color="#ff6800"></stop></linearGradient><linearGradient id="1770301554831-521050_ad" x1="200.69" x2="200.69" y1="1410.32" y2="1375.03" gradientTransform="rotate(11.33 5716.377 2153.465)" gradientUnits="userSpaceOnUse"><stop offset="0" stop-color="#b00000"></stop><stop offset="1" stop-color="#ff6800"></stop></linearGradient><linearGradient id="1770301554831-521050_ae" x1="243.5" x2="243.5" y1="1239.18" y2="1212.68" gradientTransform="rotate(35.51 1673.774 1125.157)" gradientUnits="userSpaceOnUse"><stop offset="0" stop-color="#b00000"></stop><stop offset="1" stop-color="#ff6800"></stop></linearGradient><linearGradient id="1770301554831-521050_af" x1="239.15" x2="239.15" y1="1319.64" y2="1261" gradientTransform="rotate(35.51 1673.774 1125.157)" gradientUnits="userSpaceOnUse"><stop offset="0" stop-color="#b00000"></stop><stop offset="1" stop-color="#ff6800"></stop></linearGradient><linearGradient id="1770301554831-521050_ag" x1="184.3" x2="184.3" y1="1379.54" y2="1299.8" gradientTransform="rotate(11.33 5716.377 2153.465)" gradientUnits="userSpaceOnUse"><stop offset="0" stop-color="#b00000"></stop><stop offset="1" stop-color="#ff6800"></stop></linearGradient><linearGradient id="1770301554831-521050_ah" x1="150.98" x2="150.98" y1="1436.21" y2="1394.1" gradientTransform="rotate(11.33 5716.377 2153.465)" gradientUnits="userSpaceOnUse"><stop offset="0" stop-color="#b00000"></stop><stop offset="1" stop-color="#ff6800"></stop></linearGradient><linearGradient id="1770301554831-521050_ai" x1="188.96" x2="188.96" y1="1289.55" y2="1220.99" gradientTransform="rotate(35.51 1673.774 1125.157)" gradientUnits="userSpaceOnUse"><stop offset="0" stop-color="#b00000"></stop><stop offset="1" stop-color="#ff6800"></stop></linearGradient><linearGradient id="1770301554831-521050_aj" x1="185.46" x2="185.46" y1="1321.89" y2="1262.23" gradientTransform="rotate(35.51 1673.774 1125.157)" gradientUnits="userSpaceOnUse"><stop offset="0" stop-color="#b00000"></stop><stop offset="1" stop-color="#ff6800"></stop></linearGradient><linearGradient id="1770301554831-521050_ak" x1="144.05" x2="144.05" y1="1402.39" y2="1359.75" gradientTransform="rotate(11.33 5716.377 2153.465)" gradientUnits="userSpaceOnUse"><stop offset="0" stop-color="#b00000"></stop><stop offset="1" stop-color="#ff6800"></stop></linearGradient><radialGradient id="1770301554831-521050_c" cx="42.1" cy="387.79" r="6.47" fx="42.1" fy="387.79" gradientTransform="matrix(9.82562 1.36516 .33318 -2.75032 -225.03 1052.8)" gradientUnits="userSpaceOnUse"><stop offset=".57" stop-color="#252a40"></stop><stop offset=".83" stop-color="#535d6d"></stop><stop offset="1" stop-color="#6c7985"></stop></radialGradient><radialGradient id="1770301554831-521050_f" cx="115.01" cy="1111.99" r="6.23" fx="115.01" fy="1111.99" gradientTransform="matrix(8.51446 5.43267 -2.4562 4.42321 2171.83 -5409.39)" gradientUnits="userSpaceOnUse"><stop offset="0" stop-color="#7a0000"></stop><stop offset="1" stop-color="#ff6800"></stop></radialGradient><radialGradient id="1770301554831-521050_g" cx="45.95" cy="361.42" r="9.93" fx="45.95" fy="361.42" gradientTransform="matrix(9.58626 2.66571 .41196 -1.70185 -265.01 580.32)" gradientUnits="userSpaceOnUse"><stop offset="0" stop-color="#6c7985"></stop><stop offset=".27" stop-color="#535d6d"></stop><stop offset=".7" stop-color="#252a40"></stop></radialGradient><radialGradient id="1770301554831-521050_i" cx="16.08" cy="318.82" r="6.48" fx="16.08" fy="318.82" gradientTransform="matrix(-8.6888 5.10992 -1.24593 -2.43438 689.48 722.88)" gradientUnits="userSpaceOnUse"><stop offset=".57" stop-color="#252a40"></stop><stop offset=".83" stop-color="#535d6d"></stop><stop offset="1" stop-color="#6c7985"></stop></radialGradient><radialGradient id="1770301554831-521050_l" cx="103.28" cy="1203.23" r="6.23" fx="103.28" fy="1203.23" gradientTransform="matrix(-6.08507 8.3846 3.7864 3.15918 -3842.77 -4514.64)" gradientUnits="userSpaceOnUse"><stop offset="0" stop-color="#7a0000"></stop><stop offset="1" stop-color="#ff6800"></stop></radialGradient><radialGradient id="1770301554831-521050_m" cx="23.21" cy="187.02" r="9.93" fx="23.21" fy="187.02" gradientTransform="matrix(-8.02689 6.22854 -.95864 -1.42056 528.01 195.49)" gradientUnits="userSpaceOnUse"><stop offset="0" stop-color="#6c7985"></stop><stop offset=".27" stop-color="#535d6d"></stop><stop offset=".7" stop-color="#252a40"></stop></radialGradient><radialGradient id="1770301554831-521050_al" cx="32.62" cy="414.32" r="15.43" fx="32.62" fy="414.32" gradientTransform="matrix(9.91 0 0 -10.62 -67.18 4733.94)" gradientUnits="userSpaceOnUse"><stop offset="0" stop-color="#ff6800"></stop><stop offset=".27" stop-color="#fd6500"></stop><stop offset=".46" stop-color="#f65c00"></stop><stop offset=".62" stop-color="#ea4d00"></stop><stop offset=".76" stop-color="#da3700"></stop><stop offset=".9" stop-color="#c41b00"></stop><stop offset="1" stop-color="#b00000"></stop></radialGradient></defs><path d="M408.52 65.58S358.38-.64 279.08 27.92c-9.05 3.26-11.45 13.39-3.29 10.81 17.82-5.58 67.7-2.28 77.41 39.12 0 0 28.03 11.12 55.32-12.26Z" fill="url(#1770301554831-521050_b)"></path><path d="M369.9 34.03c-22.25-11.9-53.26-19.64-90.82-6.12-9.05 3.26-11.45 13.39-3.29 10.81 13.85-4.36 47.07-3.31 65.74 16.83-7.15-30.24 53.09-8.33 28.36-21.52Z" fill="url(#1770301554831-521050_c)"></path><path d="M454.26 198.91c-73.1-.55-41.15-25.86-49.66-42.73-11.31-30.37 33.79-29.52 46.48-32.57 8.04 16.87 27.43 35.27 3.18 75.31Z" fill="url(#1770301554831-521050_d)"></path><path d="M458.54 197.69c2.69 7.55-36.34 62.44-75.08 71.28 0 0-32.07-20.74-25.08-26.52 24.46-20.33 29.71-52.2 57.39-57.97 6.54-1.83 40.1 5.67 42.77 13.22Z" fill="url(#1770301554831-521050_e)"></path><path d="M353.21 77.85s31.66-3.6 55.31-12.27c24.52 1.74 41.78 30.13 45.68 59.84 1.92 14.63-40.28-11.35-49.6 30.75-28.8 1.81-47.5-29.63-59.91-40.59-42.09-28.9 8.52-37.73 8.52-37.73" fill="url(#1770301554831-521050_f)"></path><path d="M305.01 75.64c.9-8.28 19.98 1.95 19.98 1.95 3.34-8.44 28.21.26 28.21.26 3.79 16.16-24.46 16.16-8.52 37.73-6.02-5.32-38.76-22.6-55.05-29.81-6.23-2.77-3.57-7.36-3.13-8.48 3.06-7.89 18.51-1.65 18.51-1.65" fill="url(#1770301554831-521050_g)"></path><path d="M76.17 85.64S100.38 4.36 183.94.02c9.53-.49 15.21 8 6.72 8.76-18.49 1.75-63.81 24.35-58.79 66.67 0 0-22.33 21.28-55.7 10.19" fill="url(#1770301554831-521050_h)"></path><path d="M101.42 41.17C118.11 21.4 144.37 2.09 183.94.02c9.53-.49 15.21 8 6.72 8.76-14.38 1.37-44.97 15.31-55.51 41.34-3.61-30.92-52.27 12.99-33.73-8.96Z" fill="url(#1770301554831-521050_i)"></path><path d="M78.86 227.65c67.88-29.06 29.53-40.17 31.74-59.2.21-32.71-41.51-14.3-54.37-12.19-1.73 18.84-13.57 43.55 22.62 71.38Z" fill="url(#1770301554831-521050_j)"></path><path d="M74.47 228.21c.05 8.07 55.06 43.93 94.13 37.07 0 0 22.8-31.82 14.36-34.5-29.71-9.38-45.42-37.03-73.14-31.61-6.72.84-35.43 20.94-35.35 29.04" fill="url(#1770301554831-521050_k)"></path><path d="M131.87 75.45s-30.72 8.99-55.7 10.19C53.92 96.83 47.5 130 53.97 159.19c3.18 14.38 33.64-26.3 56.64 9.27 27.43-9.56 34.14-46.15 42.01-61.19 29.37-43.36-20.74-31.81-20.74-31.81Z" fill="url(#1770301554831-521050_l)"></path><path d="M175.98 54.6c-3.64-7.38-17.94 9.6-17.94 9.6-5.96-6.56-26.17 11.25-26.17 11.25 1.93 16.52 28.25 5.49 20.74 31.81 3.79-7.3 28.42-36.18 41.13-49.26 4.86-4.99.83-8.23.04-9.12-5.56-6.14-17.81 5.73-17.81 5.73Z" fill="url(#1770301554831-521050_m)"></path><path d="M36.79 322.66C11.03 336.49.04 349.51.04 349.51s-2.45-26.07 33.08-38.5c2.36-.83 5.93 10.44 3.67 11.66Z" fill="url(#1770301554831-521050_n)"></path><path d="M42.45 397.85c-15.34 21.78-23.44 52.74-23.44 52.74s-5.97-30.22 16.4-61.46c1.66-2.3 8.69 6.4 7.04 8.72" fill="url(#1770301554831-521050_o)"></path><path d="M108.08 452.87c7.85 9.7 34.02 24.71 34.02 24.71s-30.77 3.99-42.51-18.47c-1.37-2.61 6.72-8.41 8.49-6.24" fill="url(#1770301554831-521050_p)"></path><path d="M29.99 244.4c-22.59-31.12-11.15-67.78-11.15-67.78s2.58 28.97 20.02 58.86c1.7 2.9-6.95 11.58-8.87 8.92" fill="url(#1770301554831-521050_q)"></path><path d="M84.48 335.51c-11.61 5.79-38.65-13.02-58.36-3.52-3.19 1.55-7.99-14.22-4.99-16.37 18.21-13.23 55.21-5.96 65.85 5.44 2.19 2.35.17 13.11-2.5 14.44Z" fill="url(#1770301554831-521050_r)"></path><path d="M88.72 372.91c-18.16 5.23-34.94 12.13-46.37 27.7-2.35 3.21-11.55-8.57-9.77-12.28 10.1-21.18 42.59-38.3 54.39-31.3 2.83 1.7 4.79 15.02 1.75 15.88" fill="url(#1770301554831-521050_s)"></path><path d="M110.11 408.76c-9.45 12.78 2.08 34.08 0 45.01-.81 4.27-8.71 10-11.94 8.58-13-5.77-23.52-69.4 8.65-71.78 3.13-.21 5.43 15.3 3.29 18.18Z" fill="url(#1770301554831-521050_t)"></path><path d="M88.72 303.61c-19.04 2.25-49.65-29.67-60.85-58.45-1.61-4.18 8.88-15.52 11.18-11.9 17.19 27.1 39.01 43.48 52.17 55.92 2.32 2.21.37 14.12-2.5 14.44Z" fill="url(#1770301554831-521050_u)"></path><path d="M136.51 351.83s-46.69 1.19-54.34-13.66c-2.08-4.05-.67-18.57 3.07-19 12.36-1.38 46.46 7.37 46.46 7.37z" fill="url(#1770301554831-521050_v)"></path><path d="M169.66 377.11s-48.9 9.4-82.68 0c-4.54-1.24-6.29-21.61-1.95-23.81 12-6.06 40.03 9.57 63.82.25 6.64-2.59 20.81 23.56 20.81 23.56" fill="url(#1770301554831-521050_w)"></path><path d="M197.61 396.9s-47.6 32.83-89.25 16.06c-4.43-1.78-6.55-24.6-1.95-23.83 22.1 3.74 65.94-8.3 65.94-8.3l25.26 16.08Z" fill="url(#1770301554831-521050_x)"></path><path d="M136.51 317.34s-33.85-2.85-52.02-8.93c-4.72-1.59-1.56-25.42 3.26-24.7 16.2 2.53 43.95 8.33 43.95 8.33z" fill="url(#1770301554831-521050_y)"></path><path d="M475.21 322.66c25.77 13.82 36.75 26.85 36.75 26.85s2.47-26.03-33.08-38.5c-2.35-.83-5.91 10.44-3.67 11.66Z" fill="url(#1770301554831-521050_z)"></path><path d="M469.55 397.85c15.34 21.78 23.44 52.74 23.44 52.74s5.96-30.22-16.4-61.46c-1.66-2.3-8.7 6.4-7.04 8.72" fill="url(#1770301554831-521050_aa)"></path><path d="M403.93 452.87c-7.87 9.7-34.03 24.71-34.03 24.71s30.78 3.99 42.51-18.47c1.37-2.61-6.72-8.41-8.48-6.24" fill="url(#1770301554831-521050_ab)"></path><path d="M482.01 244.4c22.6-31.12 11.16-67.78 11.16-67.78s-2.59 28.97-20.02 58.86c-1.71 2.9 6.96 11.58 8.86 8.92" fill="url(#1770301554831-521050_ac)"></path><path d="M427.53 335.51c11.61 5.79 38.65-13.02 58.36-3.52 3.2 1.55 7.99-14.22 5-16.37-18.22-13.23-55.22-5.96-65.86 5.44-2.19 2.35-.18 13.11 2.5 14.44Z" fill="url(#1770301554831-521050_ad)"></path><path d="M423.29 372.91c18.14 5.23 34.93 12.13 46.36 27.7 2.33 3.21 11.56-8.57 9.77-12.28-10.1-21.18-42.58-38.3-54.39-31.3-2.82 1.7-4.78 15.02-1.74 15.88" fill="url(#1770301554831-521050_ae)"></path><path d="M401.9 408.76c9.43 12.78-2.08 34.08 0 45.01.82 4.27 8.7 10 11.93 8.58 12.98-5.77 23.52-69.4-8.65-71.78-3.13-.21-5.43 15.3-3.28 18.18Z" fill="url(#1770301554831-521050_af)"></path><path d="M423.29 303.61c19.03 2.25 49.64-29.67 60.84-58.45 1.63-4.18-8.87-15.52-11.19-11.9-17.19 27.1-39.01 43.48-52.16 55.92-2.31 2.21-.36 14.12 2.51 14.44Z" fill="url(#1770301554831-521050_ag)"></path><path d="M375.5 351.83s46.7 1.19 54.35-13.66c2.07-4.05.67-18.57-3.08-19-12.35-1.38-46.45 7.37-46.45 7.37z" fill="url(#1770301554831-521050_ah)"></path><path d="M342.35 377.11s48.9 9.4 82.67 0c4.54-1.24 6.28-21.61 1.95-23.81-12-6.06-40.01 9.57-63.83.25-6.63-2.59-20.8 23.56-20.8 23.56Z" fill="url(#1770301554831-521050_ai)"></path><path d="M314.41 396.9s47.59 32.83 89.22 16.06c4.45-1.78 6.57-24.6 1.95-23.83-22.1 3.74-65.94-8.3-65.94-8.3l-25.24 16.08Z" fill="url(#1770301554831-521050_aj)"></path><path d="M375.5 317.34s33.85-2.85 52.03-8.93c4.71-1.59 1.56-25.42-3.28-24.7-16.18 2.53-43.93 8.33-43.93 8.33z" fill="url(#1770301554831-521050_ak)"></path><path d="m207.26 172.42-11.74 10.14c9.4 9.92 10.07 21.65 10.07 21.65l14.11-4.04s-2.63-12.25-12.43-27.74Z" class="cu" fill="#1a1626"></path><path d="M203 188.18c8.06-2.15 9.33-10.12 7.13-15.43-1.6-4-21.59 1.39-21 5.65.86 6.17 6.49 11.78 13.87 9.78" class="cu" fill="#1a1626"></path><path d="M202.48 186.21c5.8-1.56 9.28-7.3 7.82-12.83-1.3-4.8-7.37-8.81-13.16-7.24-5.82 1.56-8.89 8.94-7.83 12.87 1.46 5.54 7.35 8.77 13.17 7.19Z" class="cv" fill="#667980"></path><path d="M202.98 183.98c-4.35 1.19-8.81-1.46-9.99-5.88-1.17-4.38 1.37-8.9 5.73-10.09 4.32-1.17 8.8 1.48 9.96 5.87 1.18 4.41-1.37 8.92-5.69 10.09Z" class="cu" fill="#1a1626"></path><path d="M202.5 179.8c-.77-2.85 3.55-4.03 4.31-1.18.79 2.95-3.52 4.14-4.31 1.18" class="cw" fill="#fff"></path><path d="m304.72 172.42 11.75 10.14c-9.39 9.92-10.07 21.65-10.07 21.65l-14.11-4.04s2.63-12.25 12.42-27.74Z" class="cu" fill="#1a1626"></path><path d="M308.98 188.18c-8.06-2.15-9.34-10.12-7.13-15.43 1.6-4 21.59 1.39 21 5.65-.87 6.17-6.5 11.78-13.87 9.78" class="cu" fill="#1a1626"></path><path d="M309.5 186.21c-5.79-1.56-9.28-7.3-7.82-12.83 1.28-4.8 7.37-8.81 13.17-7.24 5.81 1.56 8.88 8.94 7.82 12.87-1.46 5.54-7.36 8.77-13.18 7.19Z" class="cv" fill="#667980"></path><path d="M309 183.98c4.35 1.19 8.81-1.46 10-5.88 1.17-4.38-1.38-8.9-5.73-10.09-4.33-1.17-8.8 1.48-9.96 5.87-1.18 4.41 1.37 8.92 5.69 10.09Z" class="cu" fill="#1a1626"></path><path d="M309.47 179.8c.79-2.85-3.53-4.03-4.3-1.18-.79 2.95 3.52 4.14 4.3 1.18" class="cw" fill="#fff"></path><path d="M403.78 311.95s4.04-12.65 2.01-24.97c-1.25-7.42-5.46-13.06-5.46-13.06s2.57-17.77-4.02-26.35c-7.17-9.31-19.1-8.18-19.1-8.18s-1.2-10.59-7.3-16c-8.1-7.22-18.88-3.66-18.88-3.66s-4.66-10.25-10.78-14.05c-5.44-3.35-16.31-.5-16.31-.5s-4.63-8.76-9.36-11.34c-6.69-3.68-17.83 1.07-17.83 1.07s-3.07-7.82-10.02-8.4c-6.7-.53-13.15 4.65-13.15 4.65s-3.2-7.96-17.59-7.96-17.6 7.95-17.6 7.95-6.46-5.17-13.17-4.65c-6.94.57-10.02 8.4-10.02 8.4s-11.11-4.74-17.82-1.07c-4.73 2.58-9.36 11.34-9.36 11.34s-10.87-2.84-16.3.5c-6.14 3.81-10.78 14.05-10.78 14.05s-10.77-3.56-18.88 3.66c-6.09 5.41-7.3 16-7.3 16s-11.92-1.12-19.1 8.18c-6.58 8.58-4.02 26.35-4.02 26.35s-4.22 5.64-5.46 13.06c-2.03 12.31 2.01 24.97 2.01 24.97s-7.6 11.69-6.18 17.37c2.67 10.84 19.34 6.89 50.75 47.61 5.44 7.05 24.07 15.94 31.14 21.04 7.18 5.17 11.57 3.76 17.16 20.11 2.71 7.97 33.25 7.03 33.25 7.03s8.64 5.09 21.66 5.09 21.65-5.09 21.65-5.09 30.54.93 33.25-7.03c5.57-16.35 9.98-14.94 17.16-20.11 7.07-5.1 25.71-13.99 31.14-21.04 31.41-40.72 48.08-36.78 50.76-47.61 1.45-5.67-6.15-17.36-6.15-17.36" fill="url(#1770301554831-521050_al)"></path><path id="1770301554831-521050_am" d="M221.38 230.33c4.19 0 4.19-5.9 0-5.9-4.18.03-4.18 5.9 0 5.9" class="ct" data-name="Shape" fill="#af1f23"></path><path id="1770301554831-521050_an" d="M205.45 243.7c6.68 0 6.68-9.42 0-9.42-6.69 0-6.69 9.42 0 9.42" class="ct" data-name="Shape" fill="#af1f23"></path><path id="1770301554831-521050_ao" d="M201.27 227.38c4.19 0 4.19-5.9 0-5.9-4.16.02-4.16 5.9 0 5.9" class="ct" data-name="Shape" fill="#af1f23"></path><path id="1770301554831-521050_ap" d="M176.07 255.54c4.19 0 4.19-5.88 0-5.88-4.16.03-4.16 5.88 0 5.88" class="ct" data-name="Shape" fill="#af1f23"></path><path id="1770301554831-521050_aq" d="M174.22 276.29c6.68 0 6.68-9.42 0-9.42s-6.68 9.42 0 9.42" class="ct" data-name="Shape" fill="#af1f23"></path><path id="1770301554831-521050_ar" d="M183.71 304.11c4.19 0 4.19-5.9 0-5.9s-4.16 5.9 0 5.9" class="ct" data-name="Shape" fill="#af1f23"></path><path id="1770301554831-521050_as" d="M205.48 305.49c-6.55 0-6.55-9.22 0-9.22 6.55.02 6.55 9.22 0 9.22" class="ct" data-name="Shape" fill="#af1f23"></path><path id="1770301554831-521050_at" d="M207.14 330.24c-5.01 0-5.01-7.07 0-7.07s5.01 7.07 0 7.07" class="ct" data-name="Shape" fill="#af1f23"></path><path id="1770301554831-521050_au" d="M179.78 374.74c-5.02 0-5.02-7.07 0-7.07 5.01.02 5.01 7.07 0 7.07" class="ct" data-name="Shape" fill="#af1f23"></path><path id="1770301554831-521050_av" d="M191.95 353.66c-6.55 0-6.55-9.24 0-9.24s6.55 9.24 0 9.24" class="ct" data-name="Shape" fill="#af1f23"></path><path id="1770301554831-521050_aw" d="M179.78 328.65c-6.55 0-6.55-9.24 0-9.24s6.54 9.24 0 9.24" class="ct" data-name="Shape" fill="#af1f23"></path><path id="1770301554831-521050_ax" d="M290.62 230.33c-4.2 0-4.2-5.9 0-5.9 4.16.03 4.16 5.9 0 5.9" class="ct" data-name="Shape" fill="#af1f23"></path><path id="1770301554831-521050_ay" d="M306.55 243.7c-6.68 0-6.68-9.42 0-9.42s6.68 9.42 0 9.42" class="ct" data-name="Shape" fill="#af1f23"></path><path id="1770301554831-521050_az" d="M310.71 227.38c-4.17 0-4.17-5.9 0-5.9 4.16.02 4.16 5.9 0 5.9" class="ct" data-name="Shape" fill="#af1f23"></path><path id="1770301554831-521050_ba" d="M335.93 255.54c-4.18 0-4.18-5.88 0-5.88 4.16.03 4.16 5.88 0 5.88" class="ct" data-name="Shape" fill="#af1f23"></path><path id="1770301554831-521050_bb" d="M337.78 276.29c-6.68 0-6.68-9.42 0-9.42s6.67 9.42 0 9.42" class="ct" data-name="Shape" fill="#af1f23"></path><path id="1770301554831-521050_bc" d="M328.28 304.11c-4.18 0-4.18-5.9 0-5.9s4.17 5.9 0 5.9" class="ct" data-name="Shape" fill="#af1f23"></path><path id="1770301554831-521050_bd" d="M306.52 305.49c6.55 0 6.55-9.22 0-9.22-6.55.02-6.55 9.22 0 9.22" class="ct" data-name="Shape" fill="#af1f23"></path><path id="1770301554831-521050_be" d="M304.87 330.24c5 0 5-7.07 0-7.07s-5.02 7.07 0 7.07" class="ct" data-name="Shape" fill="#af1f23"></path><path id="1770301554831-521050_bf" d="M332.22 374.74c5.02 0 5.02-7.07 0-7.07-5.01.02-5.01 7.07 0 7.07" class="ct" data-name="Shape" fill="#af1f23"></path><path id="1770301554831-521050_bg" d="M320.05 353.66c6.55 0 6.55-9.24 0-9.24-6.57 0-6.57 9.24 0 9.24" class="ct" data-name="Shape" fill="#af1f23"></path><path id="1770301554831-521050_bh" d="M332.22 328.65c6.55 0 6.55-9.24 0-9.24s-6.54 9.24 0 9.24" class="ct" data-name="Shape" fill="#af1f23"></path></g></svg>
