<svg xmlns="http://www.w3.org/2000/svg" data-name="Layer 1" style="" viewBox="0 0 512 462.3"><g><defs><linearGradient id="1770301554831-2244925_b" x1="-799.25" x2="-799.25" y1="196.23" y2="320.96" gradientTransform="rotate(180 -174.545 229.24)" gradientUnits="userSpaceOnUse"><stop offset="0" stop-color="#ed7016"></stop><stop offset=".1" stop-color="#ef7a1e"></stop><stop offset=".47" stop-color="#f69a37"></stop><stop offset=".79" stop-color="#faae46"></stop><stop offset="1" stop-color="#fcb54c"></stop></linearGradient><linearGradient id="1770301554831-2244925_c" x1="-755.25" x2="-755.25" y1="204.03" y2="396.52" gradientTransform="rotate(180 -174.545 229.24)" gradientUnits="userSpaceOnUse"><stop offset="0" stop-color="#ed7016"></stop><stop offset=".1" stop-color="#ef7a1e"></stop><stop offset=".47" stop-color="#f69a37"></stop><stop offset=".79" stop-color="#faae46"></stop><stop offset="1" stop-color="#fcb54c"></stop></linearGradient><linearGradient id="1770301554831-2244925_d" x1="-551.26" x2="-551.26" y1="76.91" y2="422.03" gradientTransform="rotate(180 -174.545 229.24)" gradientUnits="userSpaceOnUse"><stop offset="0" stop-color="#ed7016"></stop><stop offset=".31" stop-color="#f18224"></stop><stop offset=".94" stop-color="#fbb048"></stop><stop offset="1" stop-color="#fcb54c"></stop></linearGradient><linearGradient id="1770301554831-2244925_e" x1="-574.32" x2="-361.85" y1="179.34" y2="179.34" gradientTransform="rotate(180 -174.545 229.24)" gradientUnits="userSpaceOnUse"><stop offset="0" stop-color="#e67a00"></stop><stop offset=".55" stop-color="#e47801"></stop><stop offset=".75" stop-color="#dd7304"></stop><stop offset=".89" stop-color="#d2680a"></stop><stop offset="1" stop-color="#c25b12"></stop></linearGradient><linearGradient id="1770301554831-2244925_f" x1="-597.46" x2="-597.46" y1="264.05" y2="509.41" gradientTransform="rotate(180 -174.545 229.24)" gradientUnits="userSpaceOnUse"><stop offset="0" stop-color="#ed7016"></stop><stop offset=".19" stop-color="#f18325"></stop><stop offset=".5" stop-color="#f79f3a"></stop><stop offset=".79" stop-color="#fbaf47"></stop><stop offset="1" stop-color="#fcb54c"></stop></linearGradient><linearGradient id="1770301554831-2244925_g" x1="-508.7" x2="-508.7" y1="198.06" y2="429.8" gradientTransform="rotate(180 -174.545 229.24)" gradientUnits="userSpaceOnUse"><stop offset="0" stop-color="#ed7016"></stop><stop offset="1" stop-color="#fcb54c"></stop></linearGradient><linearGradient id="1770301554831-2244925_h" x1="-521.48" x2="-521.48" y1="-3.82" y2="246.09" gradientTransform="rotate(180 -174.545 229.24)" gradientUnits="userSpaceOnUse"><stop offset="0" stop-color="#ed7016"></stop><stop offset=".1" stop-color="#ef7a1e"></stop><stop offset=".47" stop-color="#f69a37"></stop><stop offset=".79" stop-color="#faae46"></stop><stop offset="1" stop-color="#fcb54c"></stop></linearGradient><linearGradient id="1770301554831-2244925_i" x1="-672.13" x2="-349.11" y1="305.82" y2="305.82" gradientTransform="rotate(180 -174.545 229.24)" gradientUnits="userSpaceOnUse"><stop offset="0" stop-color="#c25b12"></stop><stop offset=".11" stop-color="#cc640d"></stop><stop offset=".32" stop-color="#db7006"></stop><stop offset=".58" stop-color="#e37801"></stop><stop offset="1" stop-color="#e67a00"></stop></linearGradient><linearGradient id="1770301554831-2244925_j" x1="-757.92" x2="-757.92" y1="204.74" y2="368.22" gradientTransform="rotate(180 -174.545 229.24)" gradientUnits="userSpaceOnUse"><stop offset="0" stop-color="#c25b12"></stop><stop offset=".11" stop-color="#cc640d"></stop><stop offset=".32" stop-color="#db7006"></stop><stop offset=".58" stop-color="#e37801"></stop><stop offset="1" stop-color="#e67a00"></stop></linearGradient></defs><path d="M476.92 137.51s45.83 71.62 24.12 107.24c-8.66 14.21-59.13 28.76-99.16 4.45-40.04-24.31 75.04-111.69 75.04-111.69" fill="url(#1770301554831-2244925_b)"></path><path d="M380.77 61.95c47.32 26.86 52.92 15.53 64.06 27.2 10.89 11.43 19.83 25 32.09 48.35 8.98 44.13-21.87 96.71-56.42 114.82-16.69 8.76-28.48-13.41-67.57 1.19-39.08 14.6-12.44-168.21 27.84-191.56" fill="url(#1770301554831-2244925_c)"></path><path d="M275.55 299.59s-9.69-17.73 77.38-46.07c49.38-16.05 84.93-206.62-12.48-216.77-53.82-5.6-316.04 67.52-332.19 135.71-16.15 68.21-.32 163.67 55.43 209.1z" fill="url(#1770301554831-2244925_d)"></path><path d="M12.75 299.58c0-101.51 70.96-121.38 70.96-121.38C35 212.09 38.4 265.84 38.4 265.84c30.96-92.97 133.31-104.71 186.83-73.89C74.63 160.08 33.69 294.14 63.7 381.55c-24.4-19.9-41.16-49.38-50.94-81.98Z" fill="url(#1770301554831-2244925_e)"></path><path d="M132.6 36.45s37.77-56.36 154.44-25.92c35.12 9.17 97.75 67.49 70.35 172.04-6.13 23.36-40.65 35.33-60.7-12.57S190.84 63.06 132.6 36.45" fill="url(#1770301554831-2244925_f)"></path><path d="M225.79 41.53c131.38 64.22 90.95 218.88 74.24 218.88-13.36 0-24.39-116.11-167.6-116.11-60.51 0-117.22 38.71-130.17 95.57 0 0-34.1-211.2 162.28-211.2 27.47 0 49.57 7.14 61.25 12.86" fill="url(#1770301554831-2244925_g)"></path><path d="M273.58 370.33h-.02c14.84 11.52 31.48 29.95 31.48 54.9 0 27.82-35.16 39.3-72.25 36.71-25.19 1.6-136.16-12.84-171.68-75.22-114.28-200.71 269.58-255.84 212.47-16.39" fill="url(#1770301554831-2244925_h)"></path><path d="M201.94 385.11c19.94-38.58 55.61-37.29 75.27-33.03-.93 5.87-2.13 11.95-3.64 18.25 0 0-40.78 11.54-40.78 91.61-14.74-90.91 29.18-96.54 24.34-101.65-3.4-3.55-64.54 5.69-52.87 99.88-12.49-18.74-17.41-45.89-2.31-75.07ZM61.11 307.6c19.58-107.37 214.42-130.17 218.51 10.33-45.58-89.15-166.13-58.13-188.52 4.51 0 0 18.37-86.53 140.4-76.58 0 0-102.61-53.15-170.39 61.74M177.08 8.01c143.5-36.62 204.3 59.37 185.94 144.64-12.3-109.8-93.17-141.41-174.97-134.33 0 0 104.27-32.26 162.13 62.67 0 0-22.66-95.47-173.1-72.98" class="t" fill="#e67a00"></path><path d="M2.27 239.88S-22.45 86.48 91.8 41.16C9.04 93.79 10.82 180.71 10.82 180.71c72.9-84.34 181.76-41.47 181.76-41.47-33.25-31.53-101.25-22.1-101.25-22.1 112.46-38.75 184.32 65.82 184.32 65.82s-18.25-37.11-50.41-59.59c-90.08-62.99-188.5-4.5-188.5-4.5 27.11-31.49 66.29-48.35 110.23-41.61 124.87 19.15 160.96 161.13 160.96 161.13 15.85-24.63 5.55-73.92 2-103.99 28.67 74.2 2.88 129.74-7.82 129.74-13.36 0-26.48-119.84-169.68-119.84-60.51 0-117.23 38.7-130.17 95.56Z" fill="url(#1770301554831-2244925_i)"></path><path d="M407.45 251.51c-14.89 7.82-19.01-8.05-47.19-.4 16.03-5.15 74.16-33.72 49.84-143.93 20.59 29.35 24.86 89.15 3.43 121 44.7-36.84 33.13-103.17 25.67-137.92 41.96 78.13 2.8 143.14-31.75 161.25" fill="url(#1770301554831-2244925_j)"></path><path d="M501.05 244.76c-6.11 9.21-30.05 19.05-57.45 17.25 74.22-15.21 53.43-75.37 53.43-75.37-3.87 50.19-49.3 55.91-49.3 55.91 46.82-30.16 39.06-87.52 39.06-87.52s45.48 42.69 14.25 89.74ZM127.34 409.3s-33.88-52.68-8.35-92.12c30.85-47.67 115.91-44.03 138.59 4.56 0 0-32.35-35.89-87.98-19.16-73.77 22.2-42.26 106.72-42.26 106.72" class="t" fill="#e67a00"></path><path d="M138.28 30.03c30.12-12.29 125.78-1.37 160.93 79.79 0 0-56.49-81.15-160.93-79.79" class="u" fill="#d67100"></path><path d="M376.51 53.06c21.16 16.76 50.2 87.13-12.38 161.04 0 0 55.89-82.13 12.38-161.04" class="t" fill="#e67a00"></path><path d="M102.72 46.86c145.64-2.4 198.05 120.04 198.05 120.04C272.11 50.05 139.65 33.65 102.72 46.86" class="u" fill="#d67100"></path></g></svg>
