<svg xmlns="http://www.w3.org/2000/svg" data-name="Layer 1" style="" viewBox="0 0 512 480"><g><defs><linearGradient id="1770301554837-9667045_b" x1="140" x2="229.86" y1="39.67" y2="39.67" gradientTransform="matrix(1 0 0 -1 0 482)" gradientUnits="userSpaceOnUse"><stop offset=".14" stop-color="#373345"></stop><stop offset=".54" stop-color="#2c2839"></stop><stop offset="1" stop-color="#1a1626"></stop></linearGradient><linearGradient id="1770301554837-9667045_c" x1="141.79" x2="228.06" y1="63.39" y2="63.39" gradientTransform="matrix(1 0 0 -1 0 482)" gradientUnits="userSpaceOnUse"><stop offset="0" stop-color="#1a1626"></stop><stop offset=".46" stop-color="#2c2839"></stop><stop offset=".86" stop-color="#373345"></stop></linearGradient><linearGradient id="1770301554837-9667045_d" x1="141.8" x2="228.06" y1="60.35" y2="60.35" gradientTransform="matrix(1 0 0 -1 0 482)" gradientUnits="userSpaceOnUse"><stop offset="0" stop-color="#e8c087"></stop><stop offset=".29" stop-color="#f1cd99"></stop><stop offset=".72" stop-color="#fbdcae"></stop><stop offset="1" stop-color="#ffe1b5"></stop></linearGradient><linearGradient id="1770301554837-9667045_e" x1="184.94" x2="184.94" y1="58.86" y2="111.51" gradientTransform="matrix(1 0 0 -1 0 482)" gradientUnits="userSpaceOnUse"><stop offset="0" stop-color="#ff7b00"></stop><stop offset=".24" stop-color="#fb6b00"></stop><stop offset=".71" stop-color="#f04200"></stop><stop offset="1" stop-color="#e82500"></stop></linearGradient><linearGradient id="1770301554837-9667045_f" x1="184.75" x2="184.75" y1="58.86" y2="104.32" gradientTransform="matrix(1 0 0 -1 0 482)" gradientUnits="userSpaceOnUse"><stop offset="0" stop-color="#fa0"></stop><stop offset=".17" stop-color="#ffa400"></stop><stop offset=".42" stop-color="#ff9200"></stop><stop offset=".7" stop-color="#ff7400"></stop><stop offset="1" stop-color="#ff4d00"></stop></linearGradient><linearGradient id="1770301554837-9667045_g" x1="-980" x2="-980" y1="58.86" y2="97.37" gradientTransform="rotate(180 -398.12 241)" gradientUnits="userSpaceOnUse"><stop offset="0" stop-color="#ffb500"></stop><stop offset=".09" stop-color="#ffba00"></stop><stop offset=".67" stop-color="#ffda00"></stop><stop offset="1" stop-color="#ffe600"></stop></linearGradient><linearGradient id="1770301554837-9667045_h" x1="-980.14" x2="-980.14" y1="60.62" y2="90.67" gradientTransform="rotate(180 -398.12 241)" gradientUnits="userSpaceOnUse"><stop offset=".24" stop-color="#fff2ab"></stop><stop offset=".36" stop-color="#fff1a5"></stop><stop offset=".52" stop-color="#ffef92"></stop><stop offset=".72" stop-color="#ffec74"></stop><stop offset=".93" stop-color="#ffe74b"></stop><stop offset="1" stop-color="#ffe53b"></stop></linearGradient><linearGradient id="1770301554837-9667045_i" x1="31.33" x2="338.53" y1="142.08" y2="142.08" gradientTransform="matrix(1 0 0 -1 0 482)" gradientUnits="userSpaceOnUse"><stop offset=".14" stop-color="#373345"></stop><stop offset=".54" stop-color="#2c2839"></stop><stop offset="1" stop-color="#1a1626"></stop></linearGradient><linearGradient id="1770301554837-9667045_j" x1="0" x2="369.86" y1="203.87" y2="203.87" gradientTransform="matrix(1 0 0 -1 0 482)" gradientUnits="userSpaceOnUse"><stop offset="0" stop-color="red"></stop><stop offset=".16" stop-color="#fa0000"></stop><stop offset=".33" stop-color="#ec0000"></stop><stop offset=".52" stop-color="#d50000"></stop><stop offset=".72" stop-color="#b50000"></stop><stop offset=".85" stop-color="#9c0000"></stop></linearGradient><linearGradient id="1770301554837-9667045_k" x1="338.19" x2="512" y1="220.63" y2="220.63" gradientTransform="matrix(1 0 0 -1 0 482)" gradientUnits="userSpaceOnUse"><stop offset=".12" stop-color="#9c0000"></stop><stop offset="1" stop-color="red"></stop></linearGradient><linearGradient id="1770301554837-9667045_l" x1="7.46" x2="362.43" y1="281.83" y2="281.83" gradientTransform="matrix(1 0 0 -1 0 482)" gradientUnits="userSpaceOnUse"><stop offset="0" stop-color="#e8c087"></stop><stop offset=".29" stop-color="#f1cd99"></stop><stop offset=".72" stop-color="#fbdcae"></stop><stop offset="1" stop-color="#ffe1b5"></stop></linearGradient><linearGradient id="1770301554837-9667045_m" x1="621.8" x2="649.44" y1="2015.66" y2="2015.66" gradientTransform="scale(1 -1) rotate(-44.54 -1982.658 1198.725)" gradientUnits="userSpaceOnUse"><stop offset="0" stop-color="#b06538"></stop><stop offset=".18" stop-color="#90522d"></stop><stop offset=".38" stop-color="#764323"></stop><stop offset=".58" stop-color="#63381c"></stop><stop offset=".78" stop-color="#583118"></stop><stop offset="1" stop-color="#542f17"></stop></linearGradient><linearGradient id="1770301554837-9667045_n" x1="620.07" x2="651.35" y1="1938.49" y2="1938.49" gradientTransform="scale(1 -1) rotate(-44.54 -1982.658 1198.725)" gradientUnits="userSpaceOnUse"><stop offset="0" stop-color="#b06538"></stop><stop offset=".18" stop-color="#aa6136"></stop><stop offset=".42" stop-color="#98572f"></stop><stop offset=".71" stop-color="#7a4525"></stop><stop offset="1" stop-color="#542f17"></stop></linearGradient><linearGradient id="1770301554837-9667045_o" x1="631.83" x2="639.86" y1="1826.05" y2="1826.05" gradientTransform="scale(1 -1) rotate(-44.54 -1982.658 1198.725)" gradientUnits="userSpaceOnUse"><stop offset="0" stop-color="#dfe5e8"></stop><stop offset=".16" stop-color="#d9dfe2"></stop><stop offset=".36" stop-color="#c9cfd2"></stop><stop offset=".59" stop-color="#aeb4b6"></stop><stop offset=".84" stop-color="#888f90"></stop><stop offset="1" stop-color="#6d7475"></stop></linearGradient><linearGradient id="1770301554837-9667045_p" x1="670.94" x2="698.44" y1="1548.88" y2="1548.88" gradientTransform="scale(1 -1) rotate(-28.33 -2553.875 1374.462)" gradientUnits="userSpaceOnUse"><stop offset="0" stop-color="#b06538"></stop><stop offset=".18" stop-color="#90522d"></stop><stop offset=".38" stop-color="#764323"></stop><stop offset=".58" stop-color="#63381c"></stop><stop offset=".78" stop-color="#583118"></stop><stop offset="1" stop-color="#542f17"></stop></linearGradient><linearGradient id="1770301554837-9667045_q" x1="669.21" x2="700.18" y1="1471.32" y2="1471.32" gradientTransform="scale(1 -1) rotate(-28.33 -2553.875 1374.462)" gradientUnits="userSpaceOnUse"><stop offset="0" stop-color="#b06538"></stop><stop offset=".18" stop-color="#aa6136"></stop><stop offset=".42" stop-color="#98572f"></stop><stop offset=".71" stop-color="#7a4525"></stop><stop offset="1" stop-color="#542f17"></stop></linearGradient><linearGradient id="1770301554837-9667045_r" x1="680.71" x2="688.62" y1="1353.41" y2="1353.41" gradientTransform="scale(1 -1) rotate(-28.33 -2553.875 1374.462)" gradientUnits="userSpaceOnUse"><stop offset="0" stop-color="#dfe5e8"></stop><stop offset=".16" stop-color="#d9dfe2"></stop><stop offset=".36" stop-color="#c9cfd2"></stop><stop offset=".59" stop-color="#aeb4b6"></stop><stop offset=".84" stop-color="#888f90"></stop><stop offset="1" stop-color="#6d7475"></stop></linearGradient></defs><path d="M176.58 355.55h33.78v66.82h-33.78z" class="ak" fill="#1a1626"></path><path d="M95.33 319.99 39.86 458.77 59.34 480l125.6-34.67v-20.32l-112.28 23.9 44.26-119.8z" class="ak" fill="#1a1626"></path><path d="m59.34 463.55 50.24-137.53-14.25-6.03-55.47 126.32v12.46L59.34 480zm125.6-29.72v-8.68L72.66 448.91l-4.29 14.32zm89.6-113.84L330 458.77 310.51 480l-125.57-34.67v-20.32l112.27 23.9-44.26-119.8z" fill="#373345"></path><path d="m310.51 463.55-50.22-137.53 14.25-6.03L330 446.31v12.46L310.51 480zm-125.57-29.72v-8.68l112.27 23.76 4.3 14.32z" class="ak" fill="#1a1626"></path><path d="M229.86 418.77H140s.97 25.38 6.7 36.2c7.7 14.56 68.77 14.56 76.47 0 5.74-10.81 6.7-36.2 6.7-36.2Z" fill="url(#1770301554837-9667045_b)"></path><path d="M184.94 412.28c24.82 0 44.93 2.9 44.93 6.49s-15.23 7.11-44.93 7.11-44.94-3.52-44.94-7.11 20.12-6.49 44.94-6.49" class="ak" fill="#1a1626"></path><path d="M228.06 418.59c0 3.37-19.32 6.1-43.14 6.1s-43.14-2.74-43.14-6.1 19.31-6.07 43.14-6.07c23.82 0 43.14 2.73 43.14 6.07" fill="url(#1770301554837-9667045_c)"></path><path d="M222.08 421.65c-7.46-1.82-21.22-3.04-37.15-3.04s-29.68 1.22-37.15 3.04c7.46 1.82 21.22 3.05 37.15 3.05s29.69-1.22 37.15-3.05" fill="url(#1770301554837-9667045_d)"></path><path d="M183.9 370.49c-4.17 18.83-42.21 52.65-.34 52.65 37.42 0 20.66-40.44.34-52.65" fill="url(#1770301554837-9667045_e)"></path><path d="M186.45 377.68c-2.82 9.69-36.9 45.46-2.9 45.46 31.42 0 12.57-36.9 2.9-45.46" fill="url(#1770301554837-9667045_f)"></path><path d="M183.55 423.14c-23.43 0-3.57-29.01 5.08-38.5.91 17.98 16.69 38.5-5.08 38.5" fill="url(#1770301554837-9667045_g)"></path><path d="M183.92 421.39c-10.34 0-6.77-17.74 3.37-30.06-1.21 14.58 8.98 30.06-3.37 30.06" fill="url(#1770301554837-9667045_h)"></path><path d="M338.53 325.2c0 27.78-68.77 50.27-153.6 50.27s-153.6-22.5-153.6-50.27 307.2-27.78 307.2 0" fill="url(#1770301554837-9667045_i)"></path><path d="M369.86 200.7H0s4 83.39 27.63 119.01c31.66 47.8 282.93 47.8 314.6 0 23.64-35.58 27.62-119.01 27.62-119.01Z" fill="url(#1770301554837-9667045_j)"></path><path d="M494.58 212.92c-56.92-1.47-88.01 32.77-135.86 18.75 0 0-5.23 39.83-20.54 78.2 55.48-41.78 104.75-3.05 167.88-32.58 11.12-5.21 6.23-63.9-11.49-64.38Z" fill="url(#1770301554837-9667045_k)"></path><path d="M184.94 179.42c102.14 0 184.93 9.52 184.93 21.28s-62.7 23.38-184.93 23.38S0 212.49 0 200.7s82.79-21.28 184.94-21.28" fill="red"></path><ellipse cx="184.94" cy="200.18" rx="177.49" ry="20" fill="url(#1770301554837-9667045_l)"></ellipse><path d="M460.59 71.13c14.97-15.5-4.38-35.22-19.37-19.73z" fill="url(#1770301554837-9667045_m)"></path><path d="M463 71.16c3.1-3.21-18.86-25.23-21.97-22.03L339.78 152.27l21.8 22.19z" fill="url(#1770301554837-9667045_n)"></path><path d="M361.58 174.46c-1.3 1.32-7.22-2.58-13.25-8.7-6.02-6.14-9.83-12.18-8.54-13.5 1.3-1.32 7.23 2.57 13.25 8.7 6.02 6.14 9.84 12.18 8.54 13.5" class="am" fill="#4a3324"></path><path d="M353.68 165.98c.75-.78-4.98-6.26-5.74-5.5l-54.82 55.83 12.24-1.12 48.32-49.22Z" fill="url(#1770301554837-9667045_o)"></path><path d="M387.83 22.72c10.13-19.16-13.86-32.57-24-13.44z" fill="url(#1770301554837-9667045_p)"></path><path d="M390.16 22.06c2.1-3.95-25.03-18.85-27.13-14.9l-68.95 127.82 27 15.12z" fill="url(#1770301554837-9667045_q)"></path><path d="M321.08 150.11c-.87 1.64-7.64-.42-15.1-4.6-7.47-4.17-12.79-8.88-11.9-10.51s7.63.42 15.1 4.6c7.45 4.17 12.78 8.89 11.9 10.51" class="am" fill="#4a3324"></path><path d="M311.17 144.2c.5-.95-6.5-4.59-7.01-3.62l-42 77.84 9.25-.53 39.76-73.7Z" fill="url(#1770301554837-9667045_r)"></path></g></svg>
