<svg xmlns="http://www.w3.org/2000/svg" data-name="Layer 1" style="" viewBox="0 0 512 590.78"><g><defs><radialGradient id="1770301554841-9068496_b" cx="344.09" cy="529.99" r="116.13" fx="344.09" fy="529.99" gradientTransform="matrix(.98 0 0 -2.29 .67 1482.36)" gradientUnits="userSpaceOnUse"><stop offset="0" stop-color="#ffd86b"></stop><stop offset=".6" stop-color="#f5a240"></stop><stop offset=".68" stop-color="#e58e37"></stop><stop offset=".84" stop-color="#be591e"></stop><stop offset=".95" stop-color="#a1340d"></stop></radialGradient><radialGradient id="1770301554841-9068496_c" cx="103.21" cy="-113.41" r="116.08" fx="103.21" fy="-113.41" gradientTransform="matrix(-.98 0 0 2.29 290.92 483.61)" gradientUnits="userSpaceOnUse"><stop offset=".44" stop-color="#ffd86b"></stop><stop offset=".75" stop-color="#f5a240"></stop><stop offset=".8" stop-color="#e58e37"></stop><stop offset=".89" stop-color="#be591e"></stop><stop offset=".95" stop-color="#a1340d"></stop></radialGradient><radialGradient id="1770301554841-9068496_d" cx="381.7" cy="561.07" r="114.31" fx="381.7" fy="561.07" gradientTransform="matrix(.92479 .09834 .1774 -2.76675 -86.2 1760.21)" gradientUnits="userSpaceOnUse"><stop offset=".44" stop-color="#ffd86b"></stop><stop offset=".75" stop-color="#f5a240"></stop><stop offset=".8" stop-color="#e58e37"></stop><stop offset=".89" stop-color="#be591e"></stop><stop offset=".95" stop-color="#a1340d"></stop></radialGradient><radialGradient id="1770301554841-9068496_e" cx="71.92" cy="607.95" r="78.23" fx="71.92" fy="607.95" gradientTransform="matrix(1.02796 -.06485 -.10505 -2.76888 55.2 1886.35)" gradientUnits="userSpaceOnUse"><stop offset="0" stop-color="#ffd86b"></stop><stop offset=".75" stop-color="#f5a240"></stop><stop offset=".8" stop-color="#e58e37"></stop><stop offset=".89" stop-color="#be591e"></stop><stop offset=".95" stop-color="#a1340d"></stop></radialGradient><radialGradient id="1770301554841-9068496_f" cx="143.88" cy="-203.38" r="128.44" fx="143.88" fy="-203.38" gradientTransform="matrix(-.70973 .12119 .26703 2.2674 237.06 703.5)" gradientUnits="userSpaceOnUse"><stop offset=".44" stop-color="#ffd86b"></stop><stop offset=".75" stop-color="#f5a240"></stop><stop offset=".8" stop-color="#e58e37"></stop><stop offset=".89" stop-color="#be591e"></stop><stop offset=".95" stop-color="#a1340d"></stop></radialGradient><radialGradient id="1770301554841-9068496_g" cx="57.87" cy="581.16" r="114.53" fx="57.87" fy="581.16" gradientTransform="matrix(-.93 0 0 -2.78 353.19 1846.9)" gradientUnits="userSpaceOnUse"><stop offset="0" stop-color="#ffd86b"></stop><stop offset=".75" stop-color="#f5a240"></stop><stop offset=".8" stop-color="#e58e37"></stop><stop offset=".89" stop-color="#be591e"></stop><stop offset=".95" stop-color="#a1340d"></stop></radialGradient><radialGradient id="1770301554841-9068496_h" cx="424.04" cy="641.39" r="104.15" fx="424.04" fy="641.39" gradientTransform="matrix(1.00515 .09891 .16902 -2.43515 -109.85 1743.54)" gradientUnits="userSpaceOnUse"><stop offset=".44" stop-color="#ffd86b"></stop><stop offset=".75" stop-color="#f5a240"></stop><stop offset=".8" stop-color="#e58e37"></stop><stop offset=".89" stop-color="#be591e"></stop><stop offset=".95" stop-color="#a1340d"></stop></radialGradient><radialGradient id="1770301554841-9068496_i" cx="168.88" cy="-188.89" r="80.63" fx="168.88" fy="-188.89" gradientTransform="matrix(-1.43781 .07938 .0949 3.01936 373.74 770.73)" gradientUnits="userSpaceOnUse"><stop offset=".44" stop-color="#ffd86b"></stop><stop offset=".75" stop-color="#f5a240"></stop><stop offset=".8" stop-color="#e58e37"></stop><stop offset=".89" stop-color="#be591e"></stop><stop offset=".95" stop-color="#a1340d"></stop></radialGradient><radialGradient id="1770301554841-9068496_j" cx="239.2" cy="638.89" r="82.63" fx="239.2" fy="638.89" gradientTransform="matrix(1.12 0 0 -3.33 -21.78 2326.74)" gradientUnits="userSpaceOnUse"><stop offset=".44" stop-color="#ffd86b"></stop><stop offset=".75" stop-color="#f5a240"></stop><stop offset=".8" stop-color="#e58e37"></stop><stop offset=".89" stop-color="#be591e"></stop><stop offset=".95" stop-color="#a1340d"></stop></radialGradient><radialGradient id="1770301554841-9068496_k" cx="43.09" cy="-124.88" r="82.63" fx="43.09" fy="-124.88" gradientTransform="matrix(-.93 0 0 3.45 172.24 733.04)" gradientUnits="userSpaceOnUse"><stop offset=".04" stop-color="#ffd86b"></stop><stop offset=".68" stop-color="#f5a240"></stop><stop offset=".76" stop-color="#e58e37"></stop><stop offset=".9" stop-color="#be591e"></stop><stop offset="1" stop-color="#a1340d"></stop></radialGradient><radialGradient id="1770301554841-9068496_l" cx="498.03" cy="-98.84" r="82.63" fx="498.03" fy="-98.84" gradientTransform="matrix(.9151 .1658 -.44288 3.41577 -27.51 546.56)" gradientUnits="userSpaceOnUse"><stop offset=".44" stop-color="#ffd86b"></stop><stop offset=".75" stop-color="#f5a240"></stop><stop offset=".8" stop-color="#e58e37"></stop><stop offset=".89" stop-color="#be591e"></stop><stop offset=".95" stop-color="#a1340d"></stop></radialGradient><radialGradient id="1770301554841-9068496_m" cx="-20.11" cy="626.7" r="116.13" fx="-20.11" fy="626.7" gradientTransform="matrix(-.9791 .04206 -.07823 -1.96846 274.28 1424.78)" gradientUnits="userSpaceOnUse"><stop offset="0" stop-color="#ffd86b"></stop><stop offset=".6" stop-color="#f5a240"></stop><stop offset=".68" stop-color="#e58e37"></stop><stop offset=".84" stop-color="#be591e"></stop><stop offset=".95" stop-color="#a1340d"></stop></radialGradient><radialGradient id="1770301554841-9068496_n" cx="-29.77" cy="-94.3" r="87.92" fx="-29.77" fy="-94.3" gradientTransform="matrix(-.92217 -.12042 -.27366 2.26362 266.68 449.79)" gradientUnits="userSpaceOnUse"><stop offset=".24" stop-color="#ffd86b"></stop><stop offset=".36" stop-color="#fed468"></stop><stop offset=".49" stop-color="#fcc75e"></stop><stop offset=".63" stop-color="#f8b34d"></stop><stop offset=".71" stop-color="#f5a240"></stop><stop offset=".78" stop-color="#e58e37"></stop><stop offset=".91" stop-color="#be591e"></stop><stop offset="1" stop-color="#a1340d"></stop></radialGradient><radialGradient id="1770301554841-9068496_o" cx="146.41" cy="-124.76" r="105.03" fx="146.41" fy="-124.76" gradientTransform="matrix(-.92217 -.12042 -.27366 2.26362 265.88 456.42)" gradientUnits="userSpaceOnUse"><stop offset=".44" stop-color="#ffd86b"></stop><stop offset=".75" stop-color="#f5a240"></stop><stop offset=".8" stop-color="#e58e37"></stop><stop offset=".89" stop-color="#be591e"></stop><stop offset=".95" stop-color="#a1340d"></stop></radialGradient><radialGradient id="1770301554841-9068496_p" cx="453.59" cy="-183.34" r="130.21" fx="453.59" fy="-183.34" gradientTransform="matrix(.92217 -.12042 .27366 2.26362 10.55 558.63)" gradientUnits="userSpaceOnUse"><stop offset=".44" stop-color="#ffd86b"></stop><stop offset=".75" stop-color="#f5a240"></stop><stop offset=".8" stop-color="#e58e37"></stop><stop offset=".89" stop-color="#be591e"></stop><stop offset=".95" stop-color="#a1340d"></stop></radialGradient><radialGradient id="1770301554841-9068496_q" cx="166.13" cy="643.23" r="91.73" fx="166.13" fy="643.23" gradientTransform="matrix(1.00952 -.03102 -.12255 -2.43739 63.34 1826.07)" gradientUnits="userSpaceOnUse"><stop offset=".44" stop-color="#ffd86b"></stop><stop offset=".75" stop-color="#f5a240"></stop><stop offset=".8" stop-color="#e58e37"></stop><stop offset=".89" stop-color="#be591e"></stop><stop offset=".95" stop-color="#a1340d"></stop></radialGradient><linearGradient id="1770301554841-9068496_r" x1="256.01" x2="256.01" y1="2" y2="367.75" gradientTransform="matrix(1 0 0 -1 0 592.78)" gradientUnits="userSpaceOnUse"><stop offset="0" stop-color="#cf0000"></stop><stop offset=".16" stop-color="#df0005"></stop><stop offset=".42" stop-color="#f1000a"></stop><stop offset=".69" stop-color="#fc000d"></stop><stop offset="1" stop-color="#ff000e"></stop></linearGradient><linearGradient id="1770301554841-9068496_s" x1="49.6" x2="49.6" y1="2" y2="395.32" gradientTransform="matrix(1 0 0 -1 0 592.78)" gradientUnits="userSpaceOnUse"><stop offset="0" stop-color="#cf0000"></stop><stop offset=".35" stop-color="#d20001"></stop><stop offset=".6" stop-color="#db0003"></stop><stop offset=".81" stop-color="#ea0008"></stop><stop offset="1" stop-color="#ff000e"></stop></linearGradient><linearGradient id="1770301554841-9068496_t" x1="-714.34" x2="-714.34" y1="2" y2="395.32" gradientTransform="rotate(180 -125.965 296.39)" gradientUnits="userSpaceOnUse"><stop offset="0" stop-color="#cf0000"></stop><stop offset=".35" stop-color="#d20001"></stop><stop offset=".6" stop-color="#db0003"></stop><stop offset=".81" stop-color="#ea0008"></stop><stop offset="1" stop-color="#ff000e"></stop></linearGradient></defs><path d="M465.35 159.71H46.65L0 197.46l46.8 207h418.42l46.78-207z" fill="#b00505"></path><path d="M367.08 63.68c-9.28-10.43-24.37-22.57-44.03-13.82-30.12 204.79-10.16 402.52-9.95 405.41 2.07 29.77 46.36 43.97 53.13 39.83-20.99-246.68 2.78-313.61.86-431.41Z" fill-rule="evenodd" fill="url(#1770301554841-9068496_b)"></path><path d="M159.4 432.15c9.32 10.41 24.45 22.53 44.2 13.8 30.18-204.79 10.18-402.54 9.97-405.43C211.5 10.77 167.09-3.41 160.28.7c21.07 246.69-2.78 313.63-.88 431.46Z" fill-rule="evenodd" fill="url(#1770301554841-9068496_c)"></path><path d="M414.01 32.42c-8.12-11.29-29.17-25.96-48.34-19.23-25.15 201.07 5.78 202.38-37.7 487.14-4.34 29.2 45.42 3.28 52.25-.23 39.07-241.42 35.24-361.71 33.79-467.68" fill-rule="evenodd" fill="url(#1770301554841-9068496_d)"></path><path d="M414.01 32.42c-8.87-2.56-20.17 12.24-20.18 15.02-.07 172.61 5.31 225.81-13.62 452.66 35.61-196.77 36.34-360.85 33.8-467.67Z" class="z" style="isolation:isolate" fill="#820000" opacity=".1" fill-rule="evenodd"></path><path d="M84.71 45.81c-6.93-6.7-23.81-14.11-37.64-7.27-3.95 139.33 19.31 136.51 7.83 334.86-1.18 20.41 34.39-3.29 39.15-6.42 11.41-168.37-.4-249.48-9.33-321.17Z" fill-rule="evenodd" fill="url(#1770301554841-9068496_e)"></path><path d="M84.71 45.81c-6.83-.68-14.22 10.68-14.02 12.56 12.76 117.1 20.73 152.5 23.35 308.6 12.11-137.67.49-249.04-9.32-321.16Z" class="z" style="isolation:isolate" fill="#820000" opacity=".1" fill-rule="evenodd"></path><path d="M55.38 525.61c8.65 8.28 28.79 16.42 43.83 5.68-11.54-188.22-37.8-181.88-47.49-450.35-1.02-27.65-38.9 8.17-43.98 12.93 6.37 228.09 29.15 336.15 47.65 431.74Z" fill-rule="evenodd" fill="url(#1770301554841-9068496_f)"></path><path d="M55.38 525.61c7.88.16 15-15.97 14.54-18.5C41.9 350.77 28.71 303.9 7.75 93.86c2 186.85 28.11 335.68 47.64 431.75Z" class="z" style="isolation:isolate" fill="#820000" opacity=".1" fill-rule="evenodd"></path><path d="M268.73 17c8.82-10.4 30.74-22.77 49.41-14.03 12.21 203.07-18.68 201.07 6.42 489.49 2.6 29.7-59.56-12.37-66-16.47C235.04 231.25 260.5 122.45 268.73 17" fill-rule="evenodd" fill="url(#1770301554841-9068496_g)"></path><path d="M462.4 92.26c-9.02-9.49-11.02-119.49-42.07-85.91-11.07 234.87-42.32 354-29.32 429.84 4.22 24.52 31.63-49.47 38.84-52.19 7.81-107.54 29.51-213.19 32.55-291.74" fill-rule="evenodd" fill="url(#1770301554841-9068496_h)"></path><path d="M86.13 341.85c10.92 7.56 24.79 111.67 55.21 74.98-12.77-224.62 8.81-342.56-13.48-412.55-7.23-22.63-29.37 51.88-37 55.55 2.83 103.31-9.73 206.95-4.73 282.02" fill-rule="evenodd" fill="url(#1770301554841-9068496_i)"></path><path d="M268.03 24.3c-10.64-10.05-52.14-9.82-52.74 1.64-5.33 101-20.16 247.85-14.72 379.77 1.18 28.83 51.2 36.98 59 33-5.53-182.52 8.45-327.99 8.46-414.41" fill-rule="evenodd" fill="url(#1770301554841-9068496_j)"></path><path d="M215.29 25.94c-5.33 101-20.16 247.85-14.72 379.77 10.89-104.58 28.52-284.81 29.19-370.1.04-4.66-13.86-12.32-14.47-9.67" class="aa" style="isolation:isolate" fill="#820000" opacity=".1"></path><path d="M114.71 482.69c8.8 10.42 43.06 10.16 43.57-1.7 4.38-104.63 16.63-256.75 12.14-393.37-.96-29.84-42.29-38.32-48.73-34.2 4.58 189.08-6.97 339.75-6.98 429.27" fill-rule="evenodd" fill="url(#1770301554841-9068496_k)"></path><path d="M158.28 481c4.38-104.63 16.63-256.75 12.14-393.37-9 108.33-21.23 286.26-31.22 384.17 9.01 1.57 18.57 11.95 19.08 9.21Z" class="aa" style="isolation:isolate" fill="#820000" opacity=".1"></path><path d="M463.89 510.42c-10.01 8.71-43.84 2.32-42.8-9.5 9.05-104.25 16.44-256.89 38.38-391.22 4.78-29.33 46.68-30.31 52.52-25.1-28.75 186.16-36.61 337.28-48.1 425.82" fill-rule="evenodd" fill="url(#1770301554841-9068496_l)"></path><path d="M248.14 155.13c8.92-9.37 23.57-20.51 43.51-13.82 37.15 175.4 24.01 346.87 23.93 349.38-1.04 25.79-44.81 39.93-51.72 36.66 12.48-213.73-13.56-270.48-15.71-372.21Z" fill-rule="evenodd" fill="url(#1770301554841-9068496_m)"></path><path d="M299.62 524.33c6.77 10.39 18.31 22.95 36.03 17.31 47.88-180.47 52.38-360.2 52.51-362.8 1.46-26.96-34.72-44.59-40.94-41.65-8.91 223.74-36.42 281.19-47.6 387.14" fill-rule="evenodd" fill="url(#1770301554841-9068496_n)"></path><path d="M127.17 353.23c9.13-78.81 10.52-133.52 10.59-134.93 1.46-26.95-34.72-44.58-40.94-41.66-2.97 74.79-8.03 130.94-13.87 176.6h44.22Z" fill-rule="evenodd" fill="url(#1770301554841-9068496_o)"></path><path d="M426.49 345.38c-11.97-103.48-.39-212.16-.5-214.04-1.91-35.38 32.2 11.35 40.37 15.19 3.9 98.2-2.24 131.92 5.43 191.86l-45.29 6.98Z" fill-rule="evenodd" fill="url(#1770301554841-9068496_p)"></path><path d="M225.16 199.08c-8.88-7.27-22.18-103.19-45.79-70.31 14.98 206.52.17 314.19 19.49 378.99 6.26 20.94 22.43-46.82 28.47-50.02-4.45-94.87 3.44-189.66-2.16-258.66Z" fill-rule="evenodd" fill="url(#1770301554841-9068496_q)"></path><path d="M448.5 225.03c-51.34 169.82-333.65 169.82-384.98 0 0 0-2.44 212.16 35.69 365.75 0 0 156.8-20.16 313.61 0 38.13-153.59 35.68-365.75 35.68-365.75" fill="url(#1770301554841-9068496_r)"></path><path d="M63.52 225.03 0 197.46l46.8 329.9 52.41 63.42S81.63 388.51 63.52 225.03" fill="url(#1770301554841-9068496_s)"></path><path d="m448.5 225.03 63.5-27.57-46.78 329.9-52.4 63.42s17.57-202.27 35.68-365.75" fill="url(#1770301554841-9068496_t)"></path><path id="1770301554841-9068496_u" d="M256 415.39c28.5 0 51.69 23.19 51.69 51.69S284.5 518.77 256 518.77s-51.69-23.19-51.69-51.69 23.19-51.69 51.69-51.69m0-17.23c-38.06 0-68.92 30.87-68.92 68.92S217.95 536 256 536s68.92-30.85 68.92-68.92-30.87-68.92-68.92-68.92" class="as" data-name="Shape" fill="#faa19b"></path><path id="1770301554841-9068496_v" d="M269.78 473.98c-2.32 0-3.47-1.13-3.47-3.45v-6.9c0-2.3 1.13-3.45 3.47-3.45h22.38c2.32 0 3.47 1.13 3.47 3.45v3.45c0 21.91-17.75 39.63-39.63 39.63-10.65 0-20.64-4.23-28.02-11.6-1.63-1.65-1.63-3.25-.02-4.88l7.33-7.31c1.63-1.63 3.23-1.63 4.86 0 4.19 4.17 9.83 6.56 15.84 6.56 9.96 0 18.4-6.5 21.33-15.5h-7.53Z" class="as" data-name="Combined-Shape" fill="#faa19b"></path></g></svg>
