<svg xmlns="http://www.w3.org/2000/svg" data-name="Layer 1" style="" viewBox="0 0 512 512.02"><g><defs><radialGradient id="1770301554843-6348257_b" cx="418.13" cy="1531.1" r="80.18" fx="418.13" fy="1531.1" gradientTransform="matrix(.97 0 0 .97 -258.29 -1295.68)" gradientUnits="userSpaceOnUse"><stop offset=".28" stop-color="#a6007c"></stop><stop offset=".47" stop-color="#a00078"></stop><stop offset=".7" stop-color="#91006c"></stop><stop offset=".97" stop-color="#770058"></stop><stop offset="1" stop-color="#730055"></stop></radialGradient><radialGradient id="1770301554843-6348257_c" cx="461.23" cy="1729.12" r="71.89" fx="461.23" fy="1729.12" gradientTransform="matrix(.97 0 0 .97 -258.29 -1295.68)" gradientUnits="userSpaceOnUse"><stop offset=".28" stop-color="#a6007c"></stop><stop offset=".47" stop-color="#a00078"></stop><stop offset=".7" stop-color="#91006c"></stop><stop offset=".97" stop-color="#770058"></stop><stop offset="1" stop-color="#730055"></stop></radialGradient><radialGradient id="1770301554843-6348257_d" cx="583.29" cy="1769.21" r="79.21" fx="583.29" fy="1769.21" gradientTransform="matrix(.97 0 0 .97 -258.29 -1295.68)" gradientUnits="userSpaceOnUse"><stop offset=".28" stop-color="#a6007c"></stop><stop offset=".47" stop-color="#a00078"></stop><stop offset=".7" stop-color="#91006c"></stop><stop offset=".97" stop-color="#770058"></stop><stop offset="1" stop-color="#730055"></stop></radialGradient><radialGradient id="1770301554843-6348257_e" cx="406.78" cy="1657.34" r="71.31" fx="406.78" fy="1657.34" gradientTransform="matrix(.97 0 0 .97 -258.29 -1295.68)" gradientUnits="userSpaceOnUse"><stop offset=".28" stop-color="#a6007c"></stop><stop offset=".47" stop-color="#a00078"></stop><stop offset=".7" stop-color="#91006c"></stop><stop offset=".97" stop-color="#770058"></stop><stop offset="1" stop-color="#730055"></stop></radialGradient><radialGradient id="1770301554843-6348257_f" cx="613.51" cy="1533.97" r="70.6" fx="613.51" fy="1533.97" gradientTransform="matrix(.97 0 0 .97 -258.29 -1295.68)" gradientUnits="userSpaceOnUse"><stop offset=".28" stop-color="#a6007c"></stop><stop offset=".47" stop-color="#a00078"></stop><stop offset=".7" stop-color="#91006c"></stop><stop offset=".97" stop-color="#770058"></stop><stop offset="1" stop-color="#730055"></stop></radialGradient><radialGradient id="1770301554843-6348257_g" cx="532.99" cy="1708.92" r="71.3" fx="532.99" fy="1708.92" gradientTransform="matrix(.97 0 0 .97 -258.29 -1295.68)" gradientUnits="userSpaceOnUse"><stop offset=".28" stop-color="#a6007c"></stop><stop offset=".47" stop-color="#a00078"></stop><stop offset=".7" stop-color="#91006c"></stop><stop offset=".97" stop-color="#770058"></stop><stop offset="1" stop-color="#730055"></stop></radialGradient><radialGradient id="1770301554843-6348257_h" cx="602.9" cy="1447.64" r="75.64" fx="602.9" fy="1447.64" gradientTransform="matrix(.97 0 0 .97 -258.29 -1295.68)" gradientUnits="userSpaceOnUse"><stop offset=".28" stop-color="#c09"></stop><stop offset=".43" stop-color="#c60095"></stop><stop offset=".61" stop-color="#b70089"></stop><stop offset=".82" stop-color="#9d0075"></stop><stop offset="1" stop-color="#800060"></stop></radialGradient><radialGradient id="1770301554843-6348257_i" cx="493.19" cy="1481.91" r="73.5" fx="493.19" fy="1481.91" gradientTransform="matrix(.97 0 0 .97 -258.29 -1295.68)" gradientUnits="userSpaceOnUse"><stop offset=".28" stop-color="#c09"></stop><stop offset=".43" stop-color="#c60095"></stop><stop offset=".61" stop-color="#b70089"></stop><stop offset=".82" stop-color="#9d0075"></stop><stop offset="1" stop-color="#800060"></stop></radialGradient><radialGradient id="1770301554843-6348257_j" cx="701.32" cy="1769.55" r="77.65" fx="701.32" fy="1769.55" gradientTransform="matrix(.97 0 0 .97 -258.29 -1295.68)" gradientUnits="userSpaceOnUse"><stop offset=".28" stop-color="#c09"></stop><stop offset=".43" stop-color="#c60095"></stop><stop offset=".61" stop-color="#b70089"></stop><stop offset=".82" stop-color="#9d0075"></stop><stop offset="1" stop-color="#800060"></stop></radialGradient><radialGradient id="1770301554843-6348257_k" cx="332.38" cy="1586.75" r="84.72" fx="332.38" fy="1586.75" gradientTransform="matrix(.97 0 0 .97 -258.29 -1295.68)" gradientUnits="userSpaceOnUse"><stop offset=".28" stop-color="#c09"></stop><stop offset=".43" stop-color="#c60095"></stop><stop offset=".61" stop-color="#b70089"></stop><stop offset=".82" stop-color="#9d0075"></stop><stop offset="1" stop-color="#800060"></stop></radialGradient><radialGradient id="1770301554843-6348257_l" cx="658.73" cy="1645.68" r="74.29" fx="658.73" fy="1645.68" gradientTransform="matrix(.97 0 0 .97 -258.29 -1295.68)" gradientUnits="userSpaceOnUse"><stop offset=".28" stop-color="#c09"></stop><stop offset=".43" stop-color="#c60095"></stop><stop offset=".61" stop-color="#b70089"></stop><stop offset=".82" stop-color="#9d0075"></stop><stop offset="1" stop-color="#800060"></stop></radialGradient><radialGradient id="1770301554843-6348257_m" cx="527.18" cy="1612.21" r="76.02" fx="527.18" fy="1612.21" gradientTransform="matrix(.97 0 0 .97 -258.29 -1295.68)" gradientUnits="userSpaceOnUse"><stop offset=".28" stop-color="#c09"></stop><stop offset=".43" stop-color="#c60095"></stop><stop offset=".61" stop-color="#b70089"></stop><stop offset=".82" stop-color="#9d0075"></stop><stop offset="1" stop-color="#800060"></stop></radialGradient></defs><path d="M241.27 204.76c0 103.59-155.02 103.59-155.02 0s155.02-103.59 155.02 0" fill="url(#1770301554843-6348257_b)"></path><path d="M273.07 394.86c0 92.89-139 92.89-139 0 0-92.88 139-92.87 139 0" fill="url(#1770301554843-6348257_c)"></path><path d="M399.77 435.27c0 102.33-153.12 102.33-153.12 0 0-102.31 153.12-102.31 153.12 0" fill="url(#1770301554843-6348257_d)"></path><path d="M219.74 325.19c0 92.12-137.85 92.12-137.85 0s137.85-92.12 137.85 0" fill="url(#1770301554843-6348257_e)"></path><path d="M418.72 205.52c0 91.22-136.48 91.22-136.48 0s136.48-91.22 136.48 0" fill="url(#1770301554843-6348257_f)"></path><path d="M341.72 375.16c0 92.12-137.84 92.12-137.84 0s137.84-92.12 137.84 0" fill="url(#1770301554843-6348257_g)"></path><path d="M113.79 92.95c17.7 60.53-20.22 98.82-17 111.24 1.73 6.71 11.7 5.62 14.38-.58 4.18-9.58 33.94-53.11 18.54-115.35l-15.92 4.7Zm5.35-40.3c43.29 45.78 95.38 32.18 104.47 41.2 4.88 4.86-1.05 12.97-7.75 12.18-10.34-1.22-62.83 2.66-108.8-41.96z" fill="#449c00"></path><path d="M182.82 145.7C126.2 88.24 116.2 50.14 111.09 7.31c-1.1-9.31-22.37-9.83-24.32-.97-3.5 15.99 9.87 84.36 80.18 155.87z" fill="#56ab15"></path><path d="M105.52 10.54c-3.25 4-16.78 3.32-14.95-2.59 2.57-8.15 19.9-3.51 14.95 2.59" fill="#297024"></path><path d="M414.46 122.92c0 97.71-146.23 97.71-146.23 0s146.23-97.71 146.23 0" fill="url(#1770301554843-6348257_h)"></path><path d="M305.87 155.69c0 94.94-142.11 94.94-142.11 0 0-94.96 142.11-94.96 142.11 0" fill="url(#1770301554843-6348257_i)"></path><path d="M512 435.27c0 100.33-150.13 100.33-150.13 0S512 334.94 512 435.27" fill="url(#1770301554843-6348257_j)"></path><path d="M163.77 259.64c0 109.44-163.77 109.44-163.77 0s163.77-109.44 163.77 0" fill="url(#1770301554843-6348257_k)"></path><path d="M466.84 314.53c0 95.98-143.63 95.98-143.63 0 0-95.99 143.63-95.99 143.63 0" fill="url(#1770301554843-6348257_l)"></path><path d="M341.72 282.46c0 98.22-146.96 98.22-146.96 0s146.96-98.22 146.96 0" fill="url(#1770301554843-6348257_m)"></path></g></svg>
