<svg xmlns="http://www.w3.org/2000/svg" data-name="Layer 1" style="" viewBox="0 0 512 512.01"><g><defs><radialGradient id="1770301554857-3018523_b" cx="-96.48" cy="850.89" r="70.08" fx="-96.48" fy="850.89" gradientTransform="matrix(.62558 -.63305 .78178 .78806 -494.62 -678.35)" gradientUnits="userSpaceOnUse"><stop offset="0" stop-color="#e0dad8"></stop><stop offset=".46" stop-color="#ded8d5"></stop><stop offset=".75" stop-color="#d7d0cd"></stop><stop offset="1" stop-color="#ccc2be"></stop><stop offset="1" stop-color="#ccc2be"></stop></radialGradient><radialGradient id="1770301554857-3018523_c" cx="-148.4" cy="873.67" r="82.93" fx="-148.4" fy="873.67" gradientTransform="matrix(.62558 -.63305 .78178 .78806 -494.62 -678.35)" gradientUnits="userSpaceOnUse"><stop offset="0" stop-color="#e0dad8"></stop><stop offset=".46" stop-color="#ded8d5"></stop><stop offset=".75" stop-color="#d7d0cd"></stop><stop offset="1" stop-color="#ccc2be"></stop><stop offset="1" stop-color="#ccc2be"></stop></radialGradient><radialGradient id="1770301554857-3018523_e" cx="349.61" cy="677.84" r="24.58" fx="349.61" fy="677.84" gradientTransform="rotate(-45 -4133.882 -1554.609) scale(1.1 -4.98)" gradientUnits="userSpaceOnUse"><stop offset="0" stop-color="#380404"></stop><stop offset=".2" stop-color="#680404"></stop><stop offset=".4" stop-color="#900505"></stop><stop offset=".59" stop-color="#ac0505"></stop><stop offset=".74" stop-color="#be0505"></stop><stop offset=".86" stop-color="#c40505"></stop></radialGradient><radialGradient id="1770301554857-3018523_f" cx="-101.22" cy="-136.09" r="75.88" fx="-101.22" fy="-136.09" gradientTransform="matrix(.63305 -.62558 -.78806 -.78178 412.44 228.85)" gradientUnits="userSpaceOnUse"><stop offset="0" stop-color="#e0dad8"></stop><stop offset=".46" stop-color="#ded8d5"></stop><stop offset=".75" stop-color="#d7d0cd"></stop><stop offset="1" stop-color="#ccc2be"></stop><stop offset="1" stop-color="#ccc2be"></stop></radialGradient><radialGradient id="1770301554857-3018523_g" cx="-153.11" cy="-120.07" r="82.95" fx="-153.11" fy="-120.07" gradientTransform="matrix(.63305 -.62558 -.78806 -.78178 412.44 228.85)" gradientUnits="userSpaceOnUse"><stop offset="0" stop-color="#e0dad8"></stop><stop offset=".46" stop-color="#ded8d5"></stop><stop offset=".75" stop-color="#d7d0cd"></stop><stop offset="1" stop-color="#ccc2be"></stop><stop offset="1" stop-color="#ccc2be"></stop></radialGradient><linearGradient id="1770301554857-3018523_d" x1="303.02" x2="303.02" y1="559.83" y2="855.41" gradientTransform="scale(1 -1) rotate(-45 -891.146 290.535)" gradientUnits="userSpaceOnUse"><stop offset="0" stop-color="#6b0b00"></stop><stop offset=".08" stop-color="#7e1c01"></stop><stop offset=".24" stop-color="#9e3802"></stop><stop offset=".41" stop-color="#b74d03"></stop><stop offset=".59" stop-color="#c85d03"></stop><stop offset=".78" stop-color="#d36604"></stop><stop offset="1" stop-color="#d66904"></stop></linearGradient></defs><path d="M138.75 87.19c-1.59 6.83 66.18 83.42 139.95 160.19l-32.85 33.22c-72.92-76-146.94-148.82-152.33-147.15C-2.45 163.05-29.34 49.9 35.28 38.7c15.26-77.55 121.18-26.71 103.47 48.49" fill-rule="evenodd" fill="url(#1770301554857-3018523_b)"></path><path d="M93.52 133.47C-2.45 163.05-29.34 49.9 35.28 38.7c64.71-11.2 91.14 84.66 58.24 94.77" fill-rule="evenodd" fill="url(#1770301554857-3018523_c)"></path><path d="M445.47 259.02c-8.6-35.64-99.17-96.31-156.17-166.94C229.44 17.92 60.88 174.54 79.46 259c18.33 83.27 141.91 179.9 177.52 188.52 42.82 10.36 198.91-145.68 188.49-188.51Z" fill="url(#1770301554857-3018523_d)"></path><path d="M306.96 125c-59.62-51.75-192.39 70.36-201.03 154.15 34.5-73.16 138.25-160.32 201.03-154.15m53.56 50.04c-59.48-51.9-192.59 69.82-201.48 153.59 34.71-73.04 138.71-159.9 201.48-153.59m56.4 53.55c-60.58-50.62-191.06 73.91-198.15 157.87 33.13-73.79 135.27-162.85 198.15-157.87" style="isolation:isolate" fill="#8f2b00" opacity=".3"></path><path d="M442.32 259.04c-12.92-53.51-238.88 172.39-185.33 185.35 42.1 10.18 195.58-143.25 185.33-185.35" fill="#d6a57c"></path><path d="M438.34 265.8c-8.93-47.17-221.78 165.63-174.58 174.58 37.11 7.06 181.67-137.47 174.58-174.58" fill="url(#1770301554857-3018523_e)"></path><path d="M473.29 476.73c-11.18 64.62-124.35 37.71-94.78-58.25.77-2.38-20.55-25.68-44.22-50.3-1.55-10.96 28.28-38.74 36.38-38.02 26.36 22.98 51.06 43.83 54.14 43.1 75.2-17.72 126.03 88.21 48.48 103.47" fill-rule="evenodd" fill="url(#1770301554857-3018523_f)"></path><path d="M378.52 418.49c-29.57 95.96 83.59 122.87 94.78 58.25 11.22-64.73-84.64-91.14-94.78-58.25" fill="url(#1770301554857-3018523_g)" fill-rule="evenodd"></path></g></svg>
