<svg xmlns="http://www.w3.org/2000/svg" data-name="Layer 1" style="" viewBox="0 0 512 530.29"><g><defs><linearGradient id="1770301554859-8201213_f" x1="-358.06" x2="-358.06" y1="1452.57" y2="837.81" gradientTransform="rotate(-20 -2479.172 -1007.228)" gradientUnits="userSpaceOnUse"><stop offset="0" stop-color="#a34b2f"></stop><stop offset="1" stop-color="#a34b2f" stop-opacity="0"></stop></linearGradient><linearGradient id="1770301554859-8201213_g" x1="-232.02" x2="-232.02" y1="1452.42" y2="837.62" gradientTransform="rotate(-20 -2479.172 -1007.228)" gradientUnits="userSpaceOnUse"><stop offset="0" stop-color="#a34b2f"></stop><stop offset="1" stop-color="#a34b2f" stop-opacity="0"></stop></linearGradient><linearGradient id="1770301554859-8201213_h" x1="-291.91" x2="-291.91" y1="1452.51" y2="837.72" gradientTransform="rotate(-20 -2479.172 -1007.228)" gradientUnits="userSpaceOnUse"><stop offset="0" stop-color="#a34b2f"></stop><stop offset="1" stop-color="#a34b2f" stop-opacity="0"></stop></linearGradient><linearGradient id="1770301554859-8201213_i" x1="-163.5" x2="-163.5" y1="1452.29" y2="837.53" gradientTransform="rotate(-20 -2479.172 -1007.228)" gradientUnits="userSpaceOnUse"><stop offset="0" stop-color="#a34b2f"></stop><stop offset="1" stop-color="#a34b2f" stop-opacity="0"></stop></linearGradient><linearGradient id="1770301554859-8201213_j" x1="-484.17" x2="-484.17" y1="1452.71" y2="837.94" gradientTransform="rotate(-20 -2479.172 -1007.228)" gradientUnits="userSpaceOnUse"><stop offset="0" stop-color="#a34b2f"></stop><stop offset="1" stop-color="#a34b2f" stop-opacity="0"></stop></linearGradient><linearGradient id="1770301554859-8201213_k" x1="-424.26" x2="-424.26" y1="1452.64" y2="837.89" gradientTransform="rotate(-20 -2479.172 -1007.228)" gradientUnits="userSpaceOnUse"><stop offset="0" stop-color="#a34b2f"></stop><stop offset="1" stop-color="#a34b2f" stop-opacity="0"></stop></linearGradient><linearGradient id="1770301554859-8201213_l" x1="-552.67" x2="-552.67" y1="1452.84" y2="838.08" gradientTransform="rotate(-20 -2479.172 -1007.228)" gradientUnits="userSpaceOnUse"><stop offset="0" stop-color="#a34b2f"></stop><stop offset="1" stop-color="#a34b2f" stop-opacity="0"></stop></linearGradient><radialGradient id="1770301554859-8201213_b" cx="242.31" cy="517.38" r="65.44" fx="242.31" fy="517.38" gradientTransform="matrix(.91098 -.3332 -.63318 -1.74892 269.64 1036.44)" gradientUnits="userSpaceOnUse"><stop offset="0" stop-color="#ffc042"></stop><stop offset=".27" stop-color="#f5ae3d"></stop><stop offset=".81" stop-color="#d9802e"></stop><stop offset="1" stop-color="#cf6e29"></stop></radialGradient><radialGradient id="1770301554859-8201213_c" cx="224.69" cy="98.22" r="300.76" fx="224.69" fy="98.22" gradientTransform="matrix(.91098 -.3332 -.31987 -.88391 36.39 393.25)" gradientUnits="userSpaceOnUse"><stop offset="0" stop-color="#ffd073"></stop><stop offset=".18" stop-color="#fccb6f"></stop><stop offset=".39" stop-color="#f5bc64"></stop><stop offset=".63" stop-color="#e9a451"></stop><stop offset=".88" stop-color="#d98238"></stop><stop offset="1" stop-color="#cf6e29"></stop></radialGradient><radialGradient id="1770301554859-8201213_d" cx="-42.12" cy="-221.63" r="178.8" fx="-42.12" fy="-221.63" gradientTransform="matrix(.74033 -.61115 -.4283 -.50226 105.05 109.89)" gradientUnits="userSpaceOnUse"><stop offset="0" stop-color="#fdeb99" stop-opacity=".9"></stop><stop offset="1" stop-color="#fdeb99" stop-opacity="0"></stop></radialGradient><radialGradient id="1770301554859-8201213_e" cx="-83.23" cy="2140.67" r="129.12" fx="-83.23" fy="2140.67" gradientTransform="matrix(-.72934 .62423 .3714 .41924 -488.96 -471.65)" gradientUnits="userSpaceOnUse"><stop offset="0" stop-color="#fdeb99" stop-opacity=".9"></stop><stop offset="1" stop-color="#fdeb99" stop-opacity="0"></stop></radialGradient></defs><path d="M379.92 463.02c-7.94 22.59-7.56 42.48-7.56 42.48-15.36-.45-28.54-3.95-38.31-7.52-.54 12.05-6.61 21.43-6.61 21.43-6.18-2.84-9.72-5.55-11.59-8.05-5.58 9.93-13.41 15.82-13.41 15.82-2.93-9.57-12.88-21.71-27.99-31.44l105.47-32.71Z" fill="#7a3b0f"></path><path d="M130.16 15.05c6.25 3.24 14.28 29.79 22.19 27.68-13.68-15.41-9.26-41.33-9.26-41.33 3.19 3.9 20.45 19.24 21.81 21.98-.23-8.59-.68-23.37-.68-23.37 7.05 19.47 36.25 57.79 54.95 66.69l-83.38 30.5c-8.57-32.05-5.63-82.14-5.63-82.14Z" class="y" fill="#a6561c"></path><path d="M176.04.49c-7.93 18.6 4.14 34.98.62 49.23-11.94-7.08-25.92-44.34-25.92-44.34-.8 5.36-10.79 33.05.54 57.87-20.65.38-28.25-34.78-28.25-34.78-9.71 39.52 8.48 55.63-24.67 97.54l159.2-60.72c-71.27 5.38-59.25-35.19-81.52-64.8" fill="url(#1770301554859-8201213_b)"></path><path d="M248.3 506.32c23.95 10.19 36.21 23.96 36.21 23.96 18.18-10.21 31.81-21.09 41.26-29.82 8.35 7.84 21.63 10.32 21.63 10.32 5.62-5.94 8.13-10.08 8.79-12.96 13.06 3.15 26.22 2.1 26.22 2.1-2.58-8.41 1.65-23.07 13.58-39.43l-147.68 45.83Z" class="y" fill="#a6561c"></path><path d="M506.78 244.6c28.76 121.65-65.42 208.38-182.14 251.07-116.71 42.7-244.32 37.13-300.1-74.66C-47.1 277.39 48.8 127.06 174.5 81.08S469.81 88.3 506.78 244.6" fill="url(#1770301554859-8201213_c)"></path><path d="M72.68 159.54c-135.9 130.33-39.6 370.73 203.9 158.32 191.97-167.52-36.1-319.25-203.9-158.32" fill="url(#1770301554859-8201213_d)"></path><path d="M297.85 333.29c-174.99 142.67 8.3 256.96 170.8 50.53 44.21-56.21 31.86-215.74-170.8-50.53" style="isolation:isolate" fill="url(#1770301554859-8201213_e)" opacity=".7"></path><path d="M179.66 97.22c36.12 132.19 82.66 256.64 140.52 391.26C283.52 345.17 214.6 159.31 179.66 97.22" style="isolation:isolate" opacity=".6" fill="url(#1770301554859-8201213_f)"></path><path d="M273.05 71.89c104.06 89.97 163.17 237.18 132.34 376.56 45.76-125.18-.4-281.29-132.34-376.56" style="isolation:isolate" fill="url(#1770301554859-8201213_g)" opacity=".6"></path><path d="M225.86 89.14c81.62 106.07 126.26 242.74 135.33 375.46 7.78-133.3-32.61-269.25-135.33-375.46" style="isolation:isolate" opacity=".6" fill="url(#1770301554859-8201213_h)"></path><path d="M359.51 93.39c78.4 73.26 109.91 176.47 101.24 281.68 28.12-108.12 1.32-211.37-101.24-281.68" style="isolation:isolate" opacity=".6" fill="url(#1770301554859-8201213_i)"></path><path d="M229.01 512.95C124.95 422.97 65.86 275.77 96.69 136.4c-45.78 125.18.37 281.28 132.32 376.55" style="isolation:isolate" opacity=".6" fill="url(#1770301554859-8201213_j)"></path><path d="M276.22 495.7C194.58 389.61 149.95 252.94 140.9 120.25c-7.83 133.28 32.6 269.22 135.32 375.45" style="isolation:isolate" opacity=".6" fill="url(#1770301554859-8201213_k)"></path><path d="M142.55 491.47C64.17 418.16 32.62 314.95 41.34 209.77 13.2 317.9 40.01 421.13 142.55 491.47" style="isolation:isolate" opacity=".6" fill="url(#1770301554859-8201213_l)"></path></g></svg>
