<svg xmlns="http://www.w3.org/2000/svg" data-name="Layer 1" style="" viewBox="0 0 512 512"><g><defs><linearGradient id="1770301554871-657341_b" x1="0" x2="512" y1="160.37" y2="160.37" gradientTransform="matrix(1 0 0 -1 0 514)" gradientUnits="userSpaceOnUse"><stop offset="0" stop-color="#4e5e67"></stop><stop offset=".29" stop-color="#4c5a64"></stop><stop offset=".57" stop-color="#454f59"></stop><stop offset=".84" stop-color="#393b48"></stop><stop offset="1" stop-color="#302c3b"></stop></linearGradient></defs><path d="M396.89 477.43S360.32 512 255.99 512s-140.87-34.57-140.9-34.57c0 0-10.37-105.6 140.9-105.6s140.9 105.6 140.9 105.6" class="g" fill="#302c3b"></path><path d="M512 234.52c0 317.65-512 317.65-512 0z" fill="url(#1770301554871-657341_b)"></path><path d="M255.98 152.92c141.41 0 256.02 37.73 256.02 81.6s-114.6 81.61-256.02 81.61C114.63 316.13 0 278.39 0 234.52s114.6-81.6 255.98-81.6" fill="#4e5e67"></path><path d="M255.98 161.28c131.3 0 237.71 33.02 237.71 71.4s-106.42 71.4-237.71 71.4-237.69-33.02-237.69-71.4 106.41-71.4 237.7-71.4Z" class="g" fill="#302c3b"></path><path d="M255.95 304.09c108.38 0 199.77-22.52 228.37-51.95.07-27.55 2.47-56.73-10.55-77.55-10.77-17.25-8.64-41.02-21.79-53.98-20.07-19.76-26.9-52.22-50.27-63.82-26.4-13.06-47.9-42.62-77.92-44.92-22.84-1.73-44.78-16-67.93-10.68-22.63 5.16-47.6-1.77-66.57 10.23-15.83 10-39.17 11.4-53.49 25.53-13.62 13.45-41.93 26.58-53.16 48.89-10.9 21.67-32.23 39.3-36.8 64.89-3.32 18.5-16.84 35.29-14.69 54.7 1.73 15.5-3.4 30.53-3.7 46.55 28.43 29.52 119.94 52.12 228.5 52.12Z" fill="#cfd8dd"></path><path d="M205.66 18.54c-14.65-1.45-42.42 52.15-29.79 63.65 18.13 1.21 40.16-53.74 29.79-63.65m78.77 178.34c-9.07-11.6-67 5.33-66.6 22.42 11.64 13.95 66.6-8.06 66.6-22.42" class="h" fill="#f2f5f7"></path><path d="M205.76 144.74c12.06-8.46-1.83-67.18-18.9-67.69-14.55 10.91 4.57 66.93 18.9 67.69m71.37-1.07c12.06-8.46-1.83-67.18-18.9-67.69-14.55 10.91 4.57 66.93 18.9 67.69m-171.89 41.85c-5.16-13.78-65.52-15.05-70.26 1.35 6.91 16.82 65.96 12.34 70.26-1.35" class="h" fill="#f2f5f7"></path><path d="M217.24 218.45c-5.16-13.8-65.52-15.05-70.26 1.35 6.89 16.8 65.95 12.33 70.26-1.35M132.62 72.83c-14.75-.22-37.99 55.47-24.47 65.89 18.18-.27 35.64-56.85 24.47-65.89" class="e" fill="#e6e9eb"></path><path d="M279.39 302.37c12.75-7.36 4.05-67.1-12.9-69.09-15.45 9.58-1.31 67.08 12.9 69.09m42-155.23c-5.16-13.78-65.5-15.05-70.25 1.35 6.89 16.82 65.95 12.36 70.25-1.35m72.3-5.42c-2.28-14.54-61.15-27.92-69.09-12.81 3.37 17.88 62.11 25.37 69.09 12.81" class="h" fill="#f2f5f7"></path><path d="M316.54 279.32c8.12-12.27-26.33-61.85-42.4-56.03-9.53 15.47 28.78 60.6 42.4 56.03" class="e" fill="#e6e9eb"></path><path d="M352.9 111.78c8.1-12.3-26.35-61.85-42.4-56.06-9.54 15.46 28.79 60.6 42.4 56.06m-214.69 147.8c8.12-12.27-26.33-61.85-42.4-56.03-9.53 15.46 28.81 60.6 42.4 56.03m88.62 30.77c14.54-2.35 27.61-61.29 12.47-69.15-17.83 3.48-25.05 62.26-12.47 69.15M95.48 189.38c8.12-12.28-26.35-61.85-42.4-56.05-9.54 15.47 28.79 60.6 42.4 56.05m356.97 57.31c8.12-12.28-26.33-61.85-42.4-56.05-9.52 15.46 28.79 60.6 42.4 56.05m-94.6-11.23c-1.72-14.63-60.01-30.26-68.54-15.48 2.69 17.99 61.09 27.73 68.54 15.48" class="h" fill="#f2f5f7"></path><path d="M453.97 210.86c8.12-12.27-26.33-61.83-42.4-56.03-9.55 15.46 28.78 60.6 42.4 56.03" class="h" fill="#f2f5f7"></path><path d="M420.62 177.28c14.7-.65 34.57-57.65 20.42-67.23-18.12 1.37-32.1 58.91-20.42 67.23m-30.04 102.01c8.49 12.03 67.2-2.04 67.64-19.11-10.94-14.52-66.92 4.79-67.64 19.11m-167.79-97.74c14.7-.65 34.57-57.65 20.42-67.23-18.12 1.37-32.1 58.92-20.42 67.23m-79.81 27.78c-12.62 7.6-2.83 67.17 14.15 68.83 15.27-9.85.1-67.08-14.15-68.83" class="h" fill="#f2f5f7"></path><path d="M100.9 193.56c14.72-.67 34.55-57.67 20.44-67.25-18.13 1.37-32.12 58.9-20.44 67.25" class="e" fill="#e6e9eb"></path><path d="M92.19 97.25c13.65 5.49 55.31-38.19 46.41-52.77-17.07-6.25-53.61 40.33-46.41 52.77m214.75 177.74c7.26 12.81 67.07 4.61 69.18-12.34-9.45-15.52-67.06-1.86-69.18 12.34" class="h" fill="#f2f5f7"></path><path d="M355.17 251.92c9.16 11.52 66.97-5.93 66.4-23-11.77-13.86-66.53 8.64-66.4 23m-85.75-85.37c.57 14.72 57.45 34.9 67.13 20.82-1.27-18.13-58.72-32.45-67.13-20.82" class="h" fill="#f2f5f7"></path><path d="M249.8 79.96c9.18 11.52 66.97-5.95 66.41-23-11.76-13.87-66.53 8.64-66.41 23" class="e" fill="#e6e9eb"></path><path d="M115.54 124.49c9.16 11.5 66.97-5.93 66.4-23.01-11.75-13.85-66.52 8.64-66.4 23.01m44.26 126.6c9.18 11.52 66.97-5.93 66.41-23-11.77-13.86-66.53 8.64-66.41 23m-109.34-8.95c9.16 11.52 66.95-5.93 66.4-23-11.77-13.85-66.53 8.64-66.4 23" class="h" fill="#f2f5f7"></path><path d="M81.41 245.21c-3.92 14.18 44.17 50.68 57.65 40.2 4.28-17.66-46.1-48.75-57.65-40.2m100.24 35.06c1.48 14.65 59.5 31.27 68.28 16.61-2.38-18.01-60.61-28.75-68.28-16.61m86.74-192.14c-3.92 14.18 44.17 50.68 57.65 40.2 4.3-17.65-46.1-48.73-57.65-40.2m60.37 62.59c.32 14.73 56.85 35.88 66.75 21.99-.95-18.16-58.15-33.48-66.75-21.99M272.17 15.51c-3.93 14.18 44.15 50.68 57.63 40.2 4.29-17.65-46.11-48.73-57.63-40.2" class="h" fill="#f2f5f7"></path><path d="M166.02 123.25c-3.92 14.2 44.15 50.68 57.63 40.22 4.3-17.66-46.1-48.75-57.63-40.22" class="e" fill="#e6e9eb"></path><path d="M114.52 175.77c9.85 10.93 66.48-9.96 64.9-26.97-12.59-13.12-65.89 12.62-64.9 26.97m-13.02-69.99c-14.58 2.05-28.92 60.69-13.94 68.88 17.91-3.08 26.36-61.7 13.94-68.88m374.9 90.25c-14.52 2.45-27.23 61.47-12.03 69.25 17.82-3.58 24.65-62.4 12.03-69.25M358.33 29.73c-13.78 5.16-15.05 65.52 1.35 70.26 16.82-6.91 12.34-65.95-1.35-70.26m50.69 54.33c-13.78 5.16-15.05 65.52 1.35 70.26 16.82-6.92 12.33-65.95-1.35-70.26m-95.4 51.63c-8.03 12.33 26.73 61.69 42.76 55.77 9.44-15.53-29.18-60.41-42.76-55.77m-37.9-81.58c-3.43-14.32-63.18-22.97-69.91-7.29 4.8 17.54 63.93 20.33 69.91 7.29m-82.12 86.12c-13.78 5.16-15.05 65.52 1.35 70.26 16.81-6.9 12.33-65.95-1.35-70.26" class="h" fill="#f2f5f7"></path><path d="M374.42 42.69c14.72.2 36.32 56.57 22.49 66.59-18.17-.82-33.91-57.9-22.49-66.59" class="h" fill="#f2f5f7"></path><path d="M234.86 174.78c9.07-11.6 67 5.33 66.6 22.42-11.63 13.95-66.6-8.06-66.6-22.42m50.41-59.76c-6.98-12.97 31.77-59.23 47.25-52.02 8.12 16.27-34.1 57.77-47.25 52.02m105.31 131.6c5.16-13.78 65.52-15.05 70.26 1.35-6.91 16.82-65.96 12.34-70.26-1.35" class="e" fill="#e6e9eb"></path><path d="M291.87 209.71c5.16-13.8 65.52-15.05 70.26 1.35-6.89 16.8-65.95 12.34-70.26-1.35M257.94 20.78C263.1 7 323.46 5.73 328.19 22.15c-6.9 16.81-65.94 12.33-70.25-1.37m-1.84 282.34c-14.52-2.41-27.35-61.41-12.18-69.21 17.83 3.55 24.79 62.35 12.18 69.21" class="e" fill="#e6e9eb"></path><path d="M193.02 174.37c9.71-11.07 66.59 9.09 65.24 26.12-12.41 13.28-66.07-11.79-65.24-26.12m1.85-92.22c9.71-11.07 66.59 9.09 65.24 26.12-12.42 13.28-66.07-11.78-65.24-26.12m-83.4 71.8c-2.28-14.53 49.7-45.26 61.88-33.29 2.24 18.06-51.41 43.12-61.88 33.29" class="h" fill="#f2f5f7"></path><path d="M197.52 278.45c-11.05-9.71 9.21-66.59 26.23-65.19 13.25 12.42-11.9 66.02-26.23 65.19m-45.46-169.82c-8.1-12.3 26.35-61.85 42.4-56.06 9.55 15.47-28.78 60.6-42.4 56.06m231.33 140.83c-11.61-9.02 5.09-67.03 22.18-66.68 13.99 11.59-7.83 66.65-22.18 66.68M266.33 288.5c4.99-13.86 65.33-15.82 70.26.52-6.71 16.88-65.81 13.11-70.26-.52m165.99-49.91c-8.12-12.28 26.35-61.85 42.4-56.05 9.55 15.46-28.78 60.6-42.4 56.05m-327.49 14.08c-8.12-12.28 26.33-61.85 42.4-56.05 9.53 15.46-28.78 60.6-42.4 56.05" class="e" fill="#e6e9eb"></path><path d="M114.48 222.48c-8.12-12.28 26.33-61.83 42.39-56.05 9.55 15.48-28.78 60.61-42.39 56.05" class="h" fill="#f2f5f7"></path><path d="M62.32 136.52c-8.12-12.27 26.33-61.83 42.4-56.03 9.55 15.46-28.79 60.6-42.4 56.03m7.53 87.34c-14.7-.65-34.57-57.65-20.42-67.23 18.12 1.37 32.1 58.91 20.42 67.23m38.16 57.76c-10.64 10.17-65.57-14.88-62.73-31.72 13.53-12.14 64.77 17.52 62.73 31.72M260.3 181.57c-14.7-.65-34.57-57.65-20.42-67.23 18.12 1.37 32.1 58.92 20.42 67.23m113.5 17.42c12.62 7.6 2.83 67.17-14.15 68.83-15.27-9.85-.1-67.08 14.15-68.83m33.95-8.75c-14.72-.67-34.55-57.67-20.44-67.25 18.14 1.37 32.12 58.9 20.44 67.25m28.46-74.89c-13.65 5.49-55.31-38.19-46.41-52.77 17.07-6.25 53.61 40.34 46.41 52.77m-84.64-33.09c-14.72-.65-34.57-57.67-20.44-67.25 18.14 1.38 32.12 58.91 20.44 67.25M217.41 274.75c-9.16 11.52-66.97-5.93-66.4-23 11.76-13.85 66.53 8.65 66.4 23" class="e" fill="#e6e9eb"></path><path d="M236.22 217.53c-9.18 11.52-66.97-5.93-66.41-23 11.76-13.85 66.53 8.65 66.41 23" class="h" fill="#f2f5f7"></path><path d="M253.93 78.46c-7.69 12.56-67.18 2.35-68.74-14.63 9.97-15.21 67.09.38 68.74 14.63m138.4 44.26c-9.16 11.5-66.97-5.93-66.4-23.01 11.74-13.85 66.51 8.64 66.4 23.01" class="e" fill="#e6e9eb"></path><path d="M357.85 261.81c-9.18 11.52-66.97-5.93-66.41-23 11.76-13.86 66.53 8.64 66.41 23" class="h" fill="#f2f5f7"></path><path d="M404.96 252.68c3.92 14.18-44.17 50.68-57.65 40.2-4.28-17.66 46.11-48.75 57.65-40.2m-6.01-131.64c-14.29 3.5-49.31-45.69-38.41-58.84 17.78-3.76 47.31 47.56 38.41 58.84M248.4 104.69c3.92 14.18-44.17 50.68-57.65 40.2-4.29-17.66 46.11-48.73 57.65-40.2" class="e" fill="#e6e9eb"></path><path d="M129.55 178.75c3.92 14.2-44.17 50.68-57.63 40.22-4.3-17.66 46.1-48.75 57.63-40.22M251.16 11.49c-1.41 14.65-59.37 31.52-68.21 16.9 2.3-18.02 60.48-29 68.21-16.9" class="h" fill="#f2f5f7"></path><path d="M336.33 101.49c3.92 14.2-44.15 50.68-57.63 40.22-4.3-17.67 46.11-48.75 57.63-40.22" class="e" fill="#e6e9eb"></path><path d="M296.18 204.26c3.92 14.2-44.15 50.68-57.63 40.22-4.3-17.67 46.1-48.75 57.63-40.22m103.63-20.14c-2.62 14.48-61.77 26.5-69.38 11.21 3.81-17.77 62.68-23.92 69.38-11.21" class="h" fill="#f2f5f7"></path><path d="M446.29 127.58c14.59 1.98 29.23 60.54 14.29 68.81-17.94-2.99-26.68-61.56-14.29-68.81M45.95 191.96c13.35 6.2 10.08 66.47-6.64 69.97-16.24-8.15-7.33-66.68 6.64-69.97" class="e" fill="#e6e9eb"></path><path d="M179.25 21.14c10.25 10.58-14.46 65.65-31.33 62.92-12.22-13.46 17.12-64.89 31.33-62.92" class="h" fill="#f2f5f7"></path><path d="M147.76 33.01c13.78 5.16 15.05 65.52-1.35 70.26-16.81-6.91-12.33-65.95 1.35-70.26m-23.03 248.26c5.81-13.53 66.15-11.96 70.13 4.65-7.7 16.48-66.47 9.22-70.13-4.65m56.98-127.23c10.8 10-10.89 66.33-27.87 64.52-12.94-12.77 13.57-65.72 27.87-64.52M275.87 5.37c1.87 14.6-50.91 43.9-62.76 31.62-1.73-18.1 52.56-41.7 62.76-31.62m32.41 127.44c13.78 5.16 15.05 65.52-1.35 70.26-16.82-6.9-12.34-65.95 1.35-70.26" class="e" fill="#e6e9eb"></path><path d="M299.78 76.73c8.1-12.3-26.35-61.85-42.4-56.06-9.55 15.46 28.78 60.6 42.4 56.06" class="h" fill="#f2f5f7"></path></g></svg>
