<svg xmlns="http://www.w3.org/2000/svg" data-name="Layer 1" style="" viewBox="0 0 512 443.74"><g><defs><linearGradient id="1770301554882-1614472_b" x1="301.66" x2="301.66" y1="227.72" y2="445.74" gradientTransform="matrix(1 0 0 -1 0 445.74)" gradientUnits="userSpaceOnUse"><stop offset="0" stop-color="#ff8226"></stop><stop offset=".64" stop-color="#ffa828"></stop><stop offset="1" stop-color="#ffb829"></stop></linearGradient><linearGradient id="1770301554882-1614472_c" x1="216.33" x2="216.33" y1="36.87" y2="254.89" gradientTransform="matrix(1 0 0 -1 0 445.74)" gradientUnits="userSpaceOnUse"><stop offset="0" stop-color="#de1212"></stop><stop offset=".14" stop-color="#e11e18"></stop><stop offset=".71" stop-color="#ea472c"></stop><stop offset="1" stop-color="#ed5734"></stop></linearGradient></defs><path d="M446.8 247c-33.66 29-342.08-57-349.55-83.76C35.08-85.12 592.37 107.7 446.8 247" class="f" fill="#cfd8dd"></path><path d="M210.19 137.17c-6.85-9.02-50.59 4.15-50.27 17.43 8.77 10.86 50.27-6.27 50.27-17.43" class="j" fill="#f2f5f7"></path><path d="M177.67 172.49c-.1-11.45-42.67-27.97-50.27-17.19.57 14.12 43.69 26.1 50.27 17.19" class="i" fill="#e6e9eb"></path><path d="M219.96 205.2c.09-11.37-40.23-27.08-47.66-16.23.32 14.01 41.23 25.21 47.66 16.23" class="j" fill="#f2f5f7"></path><path d="M174.29 188.68c-.1-11.44-42.67-27.96-50.27-17.19.57 14.11 43.68 26.1 50.27 17.19m-21.32-86.72c-9.27-6.29-46.63 20.57-42.23 33.06 11.67 7.41 45.7-22.47 42.23-33.06" class="j" fill="#f2f5f7"></path><path d="M235.79 217.3c6.14-9.55-19.88-48.14-32-43.61-7.2 12.05 21.73 47.17 32 43.61" class="i" fill="#e6e9eb"></path><path d="M267.44 224.22c3.35-10.88-31.97-40.83-42.43-33.15-3.71 13.57 33.49 39.41 42.43 33.15" class="j" fill="#f2f5f7"></path><path d="M316.93 230.14c-1.25-11.32-45.42-24.31-51.96-13 1.96 13.93 46.25 22.37 51.96 13" class="i" fill="#e6e9eb"></path><path d="M336.42 241.17c4.41-10.48-27.72-43.92-38.89-37.36-5.05 13.11 29.38 42.65 38.89 37.36" class="j" fill="#f2f5f7"></path><path d="M312.53 205.7c-4.84-10.28-50.76-7.77-53.27 5.09 6.37 12.53 50.92 5.67 53.27-5.09" class="j" fill="#f2f5f7"></path><path d="M336.72 216.72c2.45-11.13-35.17-38-44.98-29.47-2.59 13.84 36.59 36.46 44.98 29.47" class="i" fill="#e6e9eb"></path><path d="M340.84 242.74c10.57-3.8 13-50.48.68-54.38-12.91 5.11-10.96 50.86-.68 54.38" class="i" fill="#e6e9eb"></path><path d="M340.22 231.29c7.65 8.35 50.71-8.03 49.32-21.08-9.76-9.99-50.24 10.09-49.32 21.08" class="j" fill="#f2f5f7"></path><path d="M343.42 237.25c2.25 9.85 42.48 16.64 47.1 6.01-3.15-12.08-43.02-14.86-47.1-6.01m48 2.39c2.25 9.85 42.48 16.64 47.1 6-3.15-12.07-43.02-14.86-47.1-6" class="j" fill="#f2f5f7"></path><path d="M369.01 223.41c-2.49 9.78 30.05 34.76 39 27.5 2.72-12.19-31.34-33.44-39-27.5m94.52-.71c-8.17-5.79-42.5 16.56-38.93 27.61 10.3 6.83 41.74-18.26 38.93-27.61m-162.51-45.82c-8.79-7.07-48.96 15.69-45.66 28.36 11.14 8.4 48.2-17.66 45.66-28.36" class="i" fill="#e6e9eb"></path><path d="M288.66 175.53c-7.32-8.64-50.99 6.04-50.08 19.12 9.38 10.38 50.59-8.12 50.08-19.12m-158.87-26.27c12.54 4.42 45.01-30.35 35.81-41.99-15.6-5-43.33 32.05-35.81 41.99m-22.16 20.16c9.8-5.46 4.75-52.09-8-53.98-11.91 7.09-2.67 52.1 8 53.98" class="j" fill="#f2f5f7"></path><path d="M149.24 140.04c6.92 8.95 50.53-4.63 50.1-17.91-8.87-10.78-50.19 6.76-50.1 17.91" class="i" fill="#e6e9eb"></path><path d="M170.06 184.75c6.94 8.95 50.53-4.63 50.13-17.91-8.88-10.77-50.22 6.73-50.13 17.91" class="j" fill="#f2f5f7"></path><path d="M203.03 147.5c-5.63 9.86 22.28 46.98 34.15 41.83 6.58-12.42-24.06-45.92-34.15-41.83" class="j" fill="#f2f5f7"></path><path d="M207.56 122.04c-7.24 8.71 17.2 49.73 26.42 47.27 8.62-11.04-15.79-49.49-26.42-47.27" class="i" fill="#e6e9eb"></path><path d="M239.48 134.57c-10.05 5.15-6.51 51.57 6.25 53.79 12.2-6.76 4.43-51.68-6.25-53.79m-99.32 3.66c-2.95 11.04 33.33 39.44 43.52 31.28 3.23-13.75-34.81-37.92-43.52-31.28" class="j" fill="#f2f5f7"></path><path d="M119.89 130.84c-11.13 3.4-12.14 43.25 1.08 46.4 13.56-4.57 9.94-43.55-1.08-46.4m86.97-7.62c-11.13-.18-29.11 43.08-18.95 51.17 13.76-.21 27.32-44.17 18.95-51.17m76.73 22.74c-9.62-5.67-46.09 23.13-41.12 35.25 12.11 6.64 45.06-24.99 41.12-35.25" class="i" fill="#e6e9eb"></path><path d="M91.32 131.52c-10.84 4.97-4.51-37.56 0-42.82C252.8-15.17 467.52 168.57 512 208.27 327.59 313.59 251.54 57.95 91.32 131.52" fill="#f76f00"></path><path d="M91.32 88.72c68-108.04 212.8-108.04 290.65-50.02 71.7 53.43 85.55 129.87 130.03 169.57C336.65 269.54 252.8 19.39 91.32 88.72" fill="url(#1770301554882-1614472_b)"></path><path d="M446.8 111.46c-92.71 55.65-38.57 100.75-67.34 115.88 48.79-17.2-10.86-43.23 67.34-115.88M403.83 57.3c-117.6 47.8-65.96 110.95-91.3 137.52 37.72-30.4.96-70.89 91.3-137.52m-61.34-40.78c-117.58 72.11-63.95 112.54-89.28 139.12 37.72-30.4.58-55.32 89.28-139.12M269.4.29c-106.84 87.14-46.92 99.84-72.23 126.44C234.9 96.33 193.77 93.6 269.4.29m-70.5 7.94c-87.48 78.56-45.75 54.55-61.48 110.38 37.93-68.38-6.01-31.82 61.48-110.38" class="k" style="isolation:isolate" fill="#fff" opacity=".2"></path><path d="M361.46 437.85c-33.66 28.99-342.08-57.01-349.55-83.77-62.17-248.36 495.12-55.54 349.55 83.77" class="f" fill="#cfd8dd"></path><path d="M124.86 328.01c-6.85-9.01-50.59 4.15-50.27 17.43 8.77 10.85 50.27-6.27 50.27-17.43" class="j" fill="#f2f5f7"></path><path d="M92.33 363.32c-.1-11.44-42.67-27.96-50.27-17.19.57 14.11 43.69 26.1 50.27 17.19" class="i" fill="#e6e9eb"></path><path d="M134.62 396.04c.09-11.37-40.23-27.09-47.66-16.24.32 14.02 41.23 25.22 47.66 16.24" class="j" fill="#f2f5f7"></path><path d="M88.96 379.53c-.1-11.45-42.67-27.97-50.27-17.19.57 14.11 43.68 26.1 50.27 17.19m-21.32-86.72c-9.27-6.3-46.63 20.57-42.23 33.06 11.67 7.41 45.7-22.48 42.23-33.06" class="j" fill="#f2f5f7"></path><path d="M150.46 408.13c6.14-9.55-19.88-48.14-32-43.61-7.2 12.05 21.73 47.17 32 43.61" class="i" fill="#e6e9eb"></path><path d="M182.11 415.06c3.35-10.87-31.97-40.83-42.43-33.15-3.71 13.58 33.49 39.4 42.43 33.15" class="j" fill="#f2f5f7"></path><path d="M231.6 420.98c-1.25-11.32-45.42-24.32-51.96-13 1.96 13.94 46.25 22.38 51.96 13" class="i" fill="#e6e9eb"></path><path d="M251.09 432c4.41-10.47-27.72-43.91-38.89-37.36-5.05 13.12 29.38 42.66 38.89 37.36" class="j" fill="#f2f5f7"></path><path d="M227.2 396.55c-4.84-10.28-50.76-7.77-53.27 5.09 6.37 12.51 50.92 5.67 53.27-5.09" class="j" fill="#f2f5f7"></path><path d="M251.38 407.55c2.45-11.12-35.17-38-44.98-29.47-2.59 13.84 36.59 36.45 44.98 29.47" class="i" fill="#e6e9eb"></path><path d="M255.51 433.58c10.57-3.79 13-50.47.68-54.38-12.91 5.1-10.96 50.85-.68 54.38" class="i" fill="#e6e9eb"></path><path d="M254.89 422.13c7.65 8.34 50.71-8.04 49.32-21.08-9.76-10-50.24 10.1-49.32 21.08" class="j" fill="#f2f5f7"></path><path d="M258.09 428.09c2.25 9.85 42.48 16.64 47.1 6-3.15-12.07-43.02-14.86-47.1-6m48 2.39c2.25 9.86 42.48 16.65 47.1 6.01-3.15-12.08-43.02-14.86-47.1-6.01" class="j" fill="#f2f5f7"></path><path d="M283.67 414.24c-2.49 9.78 30.05 34.75 39 27.49 2.72-12.19-31.34-33.42-39-27.49m94.53-.71c-8.17-5.78-42.5 16.57-38.93 27.61 10.3 6.82 41.74-18.26 38.93-27.61m-162.51-45.81c-8.79-7.07-48.96 15.68-45.66 28.36 11.14 8.41 48.2-17.64 45.66-28.36" class="i" fill="#e6e9eb"></path><path d="M203.32 366.36c-7.32-8.64-50.99 6.05-50.08 19.12 9.38 10.39 50.59-8.12 50.08-19.12M44.46 340.1c12.54 4.41 45.01-30.35 35.81-41.99-15.6-5-43.33 32.04-35.81 41.99M22.3 360.25c9.8-5.45 4.75-52.09-8-53.97-11.91 7.1-2.67 52.1 8 53.97" class="j" fill="#f2f5f7"></path><path d="M63.91 330.88c6.92 8.94 50.53-4.63 50.1-17.91-8.87-10.78-50.19 6.75-50.1 17.91" class="i" fill="#e6e9eb"></path><path d="M84.73 375.59c6.94 8.96 50.53-4.63 50.13-17.91-8.88-10.78-50.22 6.72-50.13 17.91" class="j" fill="#f2f5f7"></path><path d="M117.7 338.33c-5.63 9.87 22.28 46.98 34.15 41.83 6.58-12.4-24.06-45.92-34.15-41.83" class="j" fill="#f2f5f7"></path><path d="M122.22 312.88c-7.24 8.71 17.2 49.73 26.42 47.27 8.62-11.05-15.79-49.5-26.42-47.27" class="i" fill="#e6e9eb"></path><path d="M154.15 325.4c-10.05 5.15-6.51 51.58 6.25 53.79 12.2-6.75 4.43-51.68-6.25-53.79m-99.32 3.67c-2.95 11.05 33.33 39.44 43.52 31.28 3.23-13.76-34.81-37.93-43.52-31.28" class="j" fill="#f2f5f7"></path><path d="M34.55 321.68c-11.13 3.4-12.14 43.24 1.08 46.39 13.56-4.56 9.94-43.55-1.08-46.39m86.97-7.61c-11.13-.18-29.11 43.08-18.95 51.17 13.76-.23 27.32-44.18 18.95-51.17m76.74 22.73c-9.62-5.67-46.09 23.14-41.12 35.25 12.11 6.63 45.06-24.99 41.12-35.25" class="i" fill="#e6e9eb"></path><path d="M5.98 322.35c-10.84 4.98-4.51-37.56 0-42.81 161.48-103.87 376.2 79.86 420.68 119.58C242.25 504.42 166.2 248.79 5.98 322.35" fill="#c21413"></path><path d="M5.98 279.56c68-108.04 212.8-108.04 290.65-50.02 71.7 53.42 85.55 129.86 130.03 169.57C251.32 460.38 167.47 210.23 5.98 279.56" fill="url(#1770301554882-1614472_c)"></path><path d="M361.46 302.3c-92.71 55.65-38.57 100.75-67.34 115.87 48.79-17.19-10.86-43.22 67.34-115.87m-42.96-54.17c-117.6 47.8-65.96 110.96-91.3 137.53 37.72-30.4.96-70.89 91.3-137.53m-61.35-40.78c-117.58 72.1-63.95 112.53-89.28 139.11 37.72-30.4.58-55.32 89.28-139.11m-73.08-16.22c-106.84 87.13-46.92 99.84-72.23 126.44 37.73-30.4-3.4-33.13 72.23-126.44m-70.5 7.94c-87.48 78.56-45.75 54.55-61.48 110.38 37.93-68.38-6.01-31.82 61.48-110.38" class="k" style="isolation:isolate" fill="#fff" opacity=".2"></path></g></svg>
