<svg xmlns="http://www.w3.org/2000/svg" data-name="Layer 1" style="" viewBox="0 0 512 512"><g><defs><linearGradient id="1770301554884-2687555_b" x1="191.41" x2="35.68" y1="259.24" y2="433.11" gradientTransform="matrix(1 0 0 -1 0 514)" gradientUnits="userSpaceOnUse"><stop offset="0" stop-color="#dba742"></stop><stop offset=".1" stop-color="#e1af49"></stop><stop offset=".4" stop-color="#efc35b"></stop><stop offset=".7" stop-color="#f7cf65"></stop><stop offset="1" stop-color="#fad369"></stop></linearGradient><linearGradient id="1770301554884-2687555_c" x1="180.64" x2="257.05" y1="581.5" y2="581.5" gradientTransform="matrix(.63144 .97308 .94273 -.6231 -571.8 290.07)" gradientUnits="userSpaceOnUse"><stop offset="0" stop-color="#ff75e1"></stop><stop offset=".17" stop-color="#fb71de"></stop><stop offset=".36" stop-color="#f164d3"></stop><stop offset=".56" stop-color="#df4ec2"></stop><stop offset=".76" stop-color="#c630aa"></stop><stop offset=".96" stop-color="#a6098b"></stop><stop offset="1" stop-color="#9e0084"></stop></linearGradient><linearGradient id="1770301554884-2687555_d" x1="112.64" x2="165.02" y1="794.11" y2="794.11" gradientTransform="matrix(.02146 1.1598 1.12963 -.03042 -693.68 -74)" gradientUnits="userSpaceOnUse"><stop offset="0" stop-color="#ff75e1"></stop><stop offset=".17" stop-color="#fb71de"></stop><stop offset=".36" stop-color="#f164d3"></stop><stop offset=".56" stop-color="#df4ec2"></stop><stop offset=".76" stop-color="#c630aa"></stop><stop offset=".96" stop-color="#a6098b"></stop><stop offset="1" stop-color="#9e0084"></stop></linearGradient><linearGradient id="1770301554884-2687555_e" x1="326.08" x2="379.18" y1="577.4" y2="577.4" gradientTransform="matrix(.35834 .83648 .9351 -.35668 -552.08 138.39)" gradientUnits="userSpaceOnUse"><stop offset="0" stop-color="#ff75e1"></stop><stop offset=".17" stop-color="#fb71de"></stop><stop offset=".36" stop-color="#f164d3"></stop><stop offset=".56" stop-color="#df4ec2"></stop><stop offset=".76" stop-color="#c630aa"></stop><stop offset=".96" stop-color="#a6098b"></stop><stop offset="1" stop-color="#9e0084"></stop></linearGradient><linearGradient id="1770301554884-2687555_f" x1="352.3" x2="205.82" y1="159.77" y2="330.43" gradientTransform="matrix(1 0 0 -1 0 514)" gradientUnits="userSpaceOnUse"><stop offset="0" stop-color="#ebb447"></stop><stop offset=".32" stop-color="#f3c559"></stop><stop offset=".66" stop-color="#f8cf65"></stop><stop offset="1" stop-color="#fad369"></stop></linearGradient><linearGradient id="1770301554884-2687555_g" x1="381.21" x2="429.46" y1="611.57" y2="611.57" gradientTransform="matrix(.35834 .83648 .9351 -.35668 -552.08 138.39)" gradientUnits="userSpaceOnUse"><stop offset="0" stop-color="#ffa8ec"></stop><stop offset=".14" stop-color="#fea4ea"></stop><stop offset=".3" stop-color="#fa97e5"></stop><stop offset=".46" stop-color="#f481dd"></stop><stop offset=".62" stop-color="#eb63d2"></stop><stop offset=".79" stop-color="#e03cc3"></stop><stop offset=".96" stop-color="#d30db1"></stop><stop offset="1" stop-color="#cf00ac"></stop></linearGradient><linearGradient id="1770301554884-2687555_h" x1="-111.84" x2="-50.33" y1="885.86" y2="885.86" gradientTransform="matrix(-1.00975 .20323 .25003 .72492 -167.14 -484.84)" gradientUnits="userSpaceOnUse"><stop offset="0" stop-color="#ffa8ec"></stop><stop offset=".14" stop-color="#fea4ea"></stop><stop offset=".3" stop-color="#fa97e5"></stop><stop offset=".46" stop-color="#f481dd"></stop><stop offset=".62" stop-color="#eb63d2"></stop><stop offset=".79" stop-color="#e03cc3"></stop><stop offset=".96" stop-color="#d30db1"></stop><stop offset="1" stop-color="#cf00ac"></stop></linearGradient><linearGradient id="1770301554884-2687555_i" x1="138.16" x2="214.56" y1="267.29" y2="267.29" gradientTransform="matrix(1 0 0 -1 0 514)" gradientUnits="userSpaceOnUse"><stop offset="0" stop-color="#ffa8ec"></stop><stop offset=".14" stop-color="#fea4ea"></stop><stop offset=".3" stop-color="#fa97e5"></stop><stop offset=".46" stop-color="#f481dd"></stop><stop offset=".62" stop-color="#eb63d2"></stop><stop offset=".79" stop-color="#e03cc3"></stop><stop offset=".96" stop-color="#d30db1"></stop><stop offset="1" stop-color="#cf00ac"></stop></linearGradient><linearGradient id="1770301554884-2687555_j" x1="259.48" x2="309.15" y1="649.9" y2="649.9" gradientTransform="matrix(.43228 1.02236 1.11084 -.42845 -657.43 186.22)" gradientUnits="userSpaceOnUse"><stop offset="0" stop-color="#ffa8ec"></stop><stop offset=".14" stop-color="#fea4ea"></stop><stop offset=".3" stop-color="#fa97e5"></stop><stop offset=".46" stop-color="#f481dd"></stop><stop offset=".62" stop-color="#eb63d2"></stop><stop offset=".79" stop-color="#e03cc3"></stop><stop offset=".96" stop-color="#d30db1"></stop><stop offset="1" stop-color="#cf00ac"></stop></linearGradient><linearGradient id="1770301554884-2687555_k" x1="184.66" x2="234.34" y1="738.39" y2="738.39" gradientTransform="matrix(.43228 1.02236 1.11084 -.42845 -657.43 186.22)" gradientUnits="userSpaceOnUse"><stop offset="0" stop-color="#ffa8ec"></stop><stop offset=".14" stop-color="#fea4ea"></stop><stop offset=".3" stop-color="#fa97e5"></stop><stop offset=".46" stop-color="#f481dd"></stop><stop offset=".62" stop-color="#eb63d2"></stop><stop offset=".79" stop-color="#e03cc3"></stop><stop offset=".96" stop-color="#d30db1"></stop><stop offset="1" stop-color="#cf00ac"></stop></linearGradient><linearGradient id="1770301554884-2687555_l" x1="189.74" x2="237.99" y1="514.46" y2="514.46" gradientTransform="matrix(.24277 1.07288 -1.16455 .33605 714.71 -271.1)" gradientUnits="userSpaceOnUse"><stop offset="0" stop-color="#ff75e1"></stop><stop offset=".17" stop-color="#fb71de"></stop><stop offset=".36" stop-color="#f164d3"></stop><stop offset=".56" stop-color="#df4ec2"></stop><stop offset=".76" stop-color="#c630aa"></stop><stop offset=".96" stop-color="#a6098b"></stop><stop offset="1" stop-color="#9e0084"></stop></linearGradient><linearGradient id="1770301554884-2687555_m" x1="198.11" x2="253.59" y1="781.79" y2="781.79" gradientTransform="matrix(.35834 .83648 .9351 -.35668 -552.08 138.39)" gradientUnits="userSpaceOnUse"><stop offset="0" stop-color="#ffa8ec"></stop><stop offset=".14" stop-color="#fea4ea"></stop><stop offset=".3" stop-color="#fa97e5"></stop><stop offset=".46" stop-color="#f481dd"></stop><stop offset=".62" stop-color="#eb63d2"></stop><stop offset=".79" stop-color="#e03cc3"></stop><stop offset=".96" stop-color="#d30db1"></stop><stop offset="1" stop-color="#cf00ac"></stop></linearGradient><linearGradient id="1770301554884-2687555_n" x1="-179.94" x2="-118.42" y1="881.27" y2="881.27" gradientTransform="matrix(-1.00975 .20323 .25003 .72492 -167.14 -484.84)" gradientUnits="userSpaceOnUse"><stop offset="0" stop-color="#ffa8ec"></stop><stop offset=".14" stop-color="#fea4ea"></stop><stop offset=".3" stop-color="#fa97e5"></stop><stop offset=".46" stop-color="#f481dd"></stop><stop offset=".62" stop-color="#eb63d2"></stop><stop offset=".79" stop-color="#e03cc3"></stop><stop offset=".96" stop-color="#d30db1"></stop><stop offset="1" stop-color="#cf00ac"></stop></linearGradient><linearGradient id="1770301554884-2687555_o" x1="-282.8" x2="-221.29" y1="258.49" y2="258.49" gradientTransform="matrix(.35864 -1.0293 -.8506 -.2029 474.75 -9.08)" gradientUnits="userSpaceOnUse"><stop offset="0" stop-color="#ffa8ec"></stop><stop offset=".14" stop-color="#fea4ea"></stop><stop offset=".3" stop-color="#fa97e5"></stop><stop offset=".46" stop-color="#f481dd"></stop><stop offset=".62" stop-color="#eb63d2"></stop><stop offset=".79" stop-color="#e03cc3"></stop><stop offset=".96" stop-color="#d30db1"></stop><stop offset="1" stop-color="#cf00ac"></stop></linearGradient><linearGradient id="1770301554884-2687555_p" x1="-148.19" x2="-86.68" y1="244.17" y2="244.17" gradientTransform="matrix(.35864 -1.0293 -.8506 -.2029 474.75 -9.08)" gradientUnits="userSpaceOnUse"><stop offset="0" stop-color="#ffa8ec"></stop><stop offset=".14" stop-color="#fea4ea"></stop><stop offset=".3" stop-color="#fa97e5"></stop><stop offset=".46" stop-color="#f481dd"></stop><stop offset=".62" stop-color="#eb63d2"></stop><stop offset=".79" stop-color="#e03cc3"></stop><stop offset=".96" stop-color="#d30db1"></stop><stop offset="1" stop-color="#cf00ac"></stop></linearGradient><linearGradient id="1770301554884-2687555_q" x1="-230.28" x2="-168.76" y1="835.53" y2="835.53" gradientTransform="matrix(-1.00975 .20323 .25003 .72492 -167.14 -484.84)" gradientUnits="userSpaceOnUse"><stop offset="0" stop-color="#ff75e1"></stop><stop offset=".17" stop-color="#fb71de"></stop><stop offset=".36" stop-color="#f164d3"></stop><stop offset=".56" stop-color="#df4ec2"></stop><stop offset=".76" stop-color="#c630aa"></stop><stop offset=".96" stop-color="#a6098b"></stop><stop offset="1" stop-color="#9e0084"></stop></linearGradient><linearGradient id="1770301554884-2687555_r" x1="170.52" x2="246.92" y1="373.35" y2="373.35" gradientTransform="matrix(1 0 0 -1 0 514)" gradientUnits="userSpaceOnUse"><stop offset="0" stop-color="#ffa8ec"></stop><stop offset=".14" stop-color="#fea4ea"></stop><stop offset=".3" stop-color="#fa97e5"></stop><stop offset=".46" stop-color="#f481dd"></stop><stop offset=".62" stop-color="#eb63d2"></stop><stop offset=".79" stop-color="#e03cc3"></stop><stop offset=".96" stop-color="#d30db1"></stop><stop offset="1" stop-color="#cf00ac"></stop></linearGradient></defs><path d="M344.78 47.54C-66.1-182.18-52.46 494.53 100.55 507.76c121.58 10.5 244.23-460.22 244.23-460.22" fill="url(#1770301554884-2687555_b)"></path><path d="M29.86 305.16c-9 26.8 15.7 38.84 33.83 38.98 18.48.18-27.57-57.65-33.83-38.98m-2.53-40.33c11.1 21.08 25.7 10.5 31.83-2.05 6.2-12.79-39.58-12.67-31.83 2.05m36.97-94.04c-19.55-8.45-21.37 12.48-17.05 28.03 4.45 15.89 30.72-22.1 17.05-28.03M243.13 19.51c-19.55-8.45-21.37 12.48-17.05 28.03 4.45 15.9 30.72-22.1 17.05-28.03m-93.3-.36c-9.02 26.72 15.7 38.81 33.82 38.94 18.48.15-27.54-57.66-33.82-38.94m-37.48 75.2c11.08 21.05 25.67 10.48 31.8-2.08 6.21-12.79-39.55-12.65-31.8 2.08m11.85 51.14c-19.55-8.44-21.35 12.47-17.05 28.04 4.39 15.9 30.69-22.13 17.05-28.04M64.07 99.67C58.22 117.02 74.25 124.8 86 124.91c11.98.12-17.87-37.39-21.93-25.24" class="ao" style="isolation:isolate" fill="#cf8a54" opacity=".3"></path><path d="M179.39 231.64c113.82 0 34.4 78.22 34.4 78.22z" class="am" fill="#c76e2f"></path><path d="M122.72 282.78c8.3 22.95 91.08 27.08 91.08 27.08s-12.66-78.22-34.4-78.22c-17.89 0-62.94 33.81-56.69 51.14Zm72.16-113.9c113.8 0 34.4 78.25 34.4 78.25z" class="ap" fill="#ab4f16"></path><path d="M138.19 220.03c8.32 22.99 91.08 27.1 91.08 27.1s-12.63-78.25-34.4-78.25c-17.87 0-62.9 33.83-56.69 51.15Z" class="am" fill="#c76e2f"></path><path d="M192.63 73.9c126.06 0 38.12 86.7 38.12 86.7z" class="ap" fill="#ab4f16"></path><path d="M129.83 130.58c9.2 25.46 100.92 30.03 100.92 30.03s-14.02-86.7-38.12-86.7c-19.8 0-69.68 37.48-62.8 56.67" class="am" fill="#c76e2f"></path><path d="M224.21 145.57c79.3-100.68 93.15 24.05 93.15 24.05z" class="am" fill="#c76e2f"></path><path d="M229.98 231.31c26.09 8.66 87.38-61.7 87.38-61.7s-78.02-43.27-93.15-24.05c-12.45 15.81-13.9 79.19 5.77 85.74Zm-70.49 39.44c-109.03 0-32.96 74.95-32.96 74.95z" class="ap" fill="#ab4f16"></path><path d="M222.48 319.75c-7.97 22-87.25 25.95-87.25 25.95s12.13-74.95 32.96-74.95c17.09 0 60.27 32.43 54.29 49" class="am" fill="#c76e2f"></path><path d="M235.07 57.13s2.38 23.84 5.77 35.4C212.25 83.15 211.34 36 211.34 36s-19.2 10.6-17.43 28.57c-31.53-23.41-58.35-12.44-58.35-12.44s39.95 20.74 45.47 34.72c-22.43 1.62-35.52 8.77-43.15 25.42 0 .17 44.36-19.46 77.18-5.32-12.97 9.75-6.5 34.16-6.5 34.16 52.45-51.29 86.85-5.09 109.38-17.79-18.87-24.17-48.28-27.57-48.28-27.57-8.64-22.88-34.58-38.61-34.58-38.61Z" class="ak" fill="#77b516"></path><path d="M264.06 112.99c-40.93-134.89 91.7-67.6 91.7-67.6z" class="ap" fill="#ab4f16"></path><path d="M135.55 358.56c113.85 0 34.43 74.76 34.43 74.76z" class="am" fill="#c76e2f"></path><path d="M78.9 407.43c8.32 21.95 91.08 25.88 91.08 25.88s-12.66-74.76-34.43-74.76c-17.85 0-62.88 32.32-56.65 48.88m85.3-91.27c88.88 0 26.85 61.06 26.85 61.06z" class="ap" fill="#ab4f16"></path><path d="M119.95 356.09c6.5 17.95 71.1 21.14 71.1 21.14s-9.86-61.06-26.85-61.06c-13.96 0-49.14 26.41-44.25 39.92" class="am" fill="#c76e2f"></path><path d="M117.02 405.17c-128.03 0-38.7 88-38.7 88z" class="ap" fill="#ab4f16"></path><path d="M180.78 462.7c-9.39 25.85-102.47 30.46-102.47 30.46s14.27-88 38.7-88c20.05 0 70.78 38.07 63.77 57.53Z" class="am" fill="#c76e2f"></path><path d="M90.58 197.63c-5.17 1.1-17.76-7.44-12.59-8.52 51.29-10.78 90.21-43.51 56.22-106.04-2.76-5.1 8.52-18.67 11.2-13.53 46.05 88.41-12.73 119.13-54.84 128.09Z" fill="url(#1770301554884-2687555_c)"></path><path d="M173.64 87.52c-3.4-1.25-7.64-10.78-4.23-9.52 33.75 12.31 68.27 7.39 71.16-41.33.25-3.97 11.72-7.76 11.42-3.8-5.27 68.12-50.59 64.69-78.34 54.65Z" fill="url(#1770301554884-2687555_d)"></path><path d="M45.69 228.36c18.82 11.7 36.4 11.08 59.25-.44 4.28 16.79-20.25 60.18-20.25 60.18s33.52-4.97 48.02-46.06c10.62 18.46 36.5 17.64 36.5 17.64s-31.48-46.35-10.16-72.07c4.65 13.28 18.68 37.78 18.68 37.78s14.25-30.34 7.12-57.65c0 0 26.16-20.37 27.82-54.72-30.46.68-32.26 65.54-118.23 46.26 0 0 10.47 27.43 29.71 29.35-22.11 32.83-78.51 39.56-78.45 39.76Z" class="ak" fill="#77b516"></path><path d="m213.42 292.4-6.28 10.07-24.79 1.15-5.99-21.05 10.92-10.07 18.95 9.06z" class="aj" fill="#ffe8bb"></path><path d="M88.56 258.02c-3.24.09-9.64-5.69-6.42-5.79 32.03-.9 59.52-14.81 47.39-51.7-.98-3 7.53-9.22 8.44-6.2 15.96 51.93-23.13 62.87-49.41 63.7Z" fill="url(#1770301554884-2687555_e)"></path><path d="m146.51 282.56-6.95 11.23-27.6 1.26-6.7-23.42 12.21-11.21 21.04 10.09zm-10.08 110.86 25.45 12.92-5.47 26.55-18.01 4.88-15.89-20.73-4.15-19.58z" class="aj" fill="#ffe8bb"></path><path d="M170.03 130.13c-16.84-21.87-41.92-9.4-53.1 4.63-11.4 14.24 64.82 10.63 53.1-4.63M328 25.13c-38.07-4.86-38.23 22.11-27.7 40.51 10.74 18.69 54.31-37.1 27.7-40.51M192.17 394.57c29.7-16.44 4.13-36.86-20.28-45.15-24.95-8.43-.49 56.6 20.28 45.15m-68.19 17.4c-26.25-34.23-65.59-14.69-83.06 7.25-17.83 22.35 101.47 16.71 83.06-7.25" fill="#529320"></path><path d="M135.01 443.97c-38.02-4.85-38.17 22.1-27.63 40.48 10.73 18.71 54.26-37.09 27.63-40.48" class="ak" fill="#77b516"></path><path d="M479.63 239.27c62.7-55.29 27.96-191.23-49.9-215C220.4-39.61 284.08 418.51 107.4 511.08c58.04 1.81 104.99-36.08 372.23-271.81" fill="url(#1770301554884-2687555_f)"></path><path d="M429.73 24.27C217.21-1.49 279.76 512 100.3 512 44.85 512-25.48 377.22 9.25 196.96c-25.16 170.93 43.67 295.07 85.82 295.07 149.11 0 113.51-542.53 334.66-467.75Z" fill="#ffe091"></path><path d="m93.65 445.02-6.4 19.52-22.42.5L58 453.49l14.25-14.2 15.23-5.99z" class="aj" fill="#ffe8bb"></path><path d="M141.38 287.34c-2.94.09-8.76-5.17-5.83-5.27 29.1-.83 54.08-13.46 43.06-46.98-.89-2.72 6.84-8.38 7.67-5.63 14.51 47.18-21.01 57.12-44.9 57.88" fill="url(#1770301554884-2687555_g)"></path><path d="M102.65 121.41c.48-2.82 9.31-7.87 8.82-5.03-4.86 28.01 8.23 53.27 59.07 46.1 4.14-.59 10.72 7.4 6.58 7.94-71.37 9.11-78.36-26-74.47-49.01" fill="url(#1770301554884-2687555_h)"></path><path d="M268.08 254.86c-8.99 26.8 15.7 38.84 33.85 38.98 18.47.18-27.57-57.64-33.85-38.98m54.19 79.3c11.08 21.08 25.69 10.5 31.83-2.05 6.2-12.79-39.59-12.67-31.83 2.05m36.96-94.05c-19.55-8.45-21.37 12.48-17.05 28.03 4.43 15.89 30.71-22.1 17.05-28.03m22.79-167.98c-9 26.72 15.7 38.81 33.83 38.94 18.46.15-27.54-57.66-33.83-38.94m25.26 91.55c11.08 21.05 25.67 10.48 31.79-2.08 6.23-12.79-39.56-12.65-31.79 2.08M250.43 371.05c11.08 21.05 25.67 10.48 31.8-2.08 6.21-12.78-39.56-12.65-31.8 2.08m168.7-156.23c-19.55-8.44-21.37 12.47-17.07 28.04 4.42 15.9 30.72-22.13 17.07-28.04m-81.42-71.08c-5.84 17.35 10.18 25.13 21.93 25.24 12.01.12-17.86-37.39-21.93-25.24m111.53-53.13c7.19 13.63 16.65 6.78 20.63-1.37 4.04-8.34-25.66-8.19-20.63 1.37m36.18 77.93c-12.66-5.48-13.85 8.1-11.05 18.22 2.88 10.28 19.92-14.37 11.05-18.22" class="ao" style="isolation:isolate" fill="#cf8a54" opacity=".3"></path><path d="M207.7 339.43c-13.4-14.93-29.2-18.61-52.81-13.87.96-15.95 35.15-48.64 35.15-48.64s-31.21-3.65-55.82 29.41c-4.2-18.97-27.43-24.47-27.43-24.47s14.78 48.79-11.5 66.55c-.35-12.92-5.87-38.09-5.87-38.09s-21.3 23.56-22.73 49.55c0 0-29.06 11.83-40.35 41.98 27.32 6.72 47.37-50.53 118.33-12.69 0 0-1.47-26.91-18.07-33.25 29.02-23.88 81.11-16.29 81.11-16.49Z" class="ak" fill="#77b516"></path><path d="M206.63 294.27c-1.67 4.35-13.83 9.56-12.15 5.21 16.68-43.08 11.61-87.54-49.72-92.41-4.99-.4-9.4-15.25-4.42-14.76 85.75 8.37 79.89 66.55 66.29 101.96" fill="url(#1770301554884-2687555_i)"></path><path d="M160.33 231.56c-3.62.09-10.79-6.53-7.18-6.62 35.75-.9 66.39-16.64 52.7-58.7-1.11-3.42 8.37-10.48 9.4-7.02 18.03 59.19-25.57 71.49-54.93 72.35Z" fill="url(#1770301554884-2687555_j)"></path><path d="M226.19 117.36c-3.62.09-10.79-6.53-7.18-6.62 35.75-.9 66.39-16.64 52.7-58.7-1.11-3.42 8.37-10.48 9.4-7.02 18.03 59.19-25.57 71.49-54.93 72.35Z" fill="url(#1770301554884-2687555_k)"></path><path d="M205.03 142.95c2.95-2.08 4.94-11.45 1.98-9.4-29.24 20.52-62.84 26.56-75.88-14.06-1.06-3.3-12.71-3.13-11.57.15 19.35 56.45 61.41 40.07 85.47 23.3Z" fill="url(#1770301554884-2687555_l)"></path><path d="M232.27 80.72c-3.38.09-10.07-5.95-6.69-6.06 33.46-.95 62.19-15.47 49.52-54.03-1.02-3.13 7.87-9.64 8.82-6.48 16.67 54.26-24.18 65.69-51.65 66.57" fill="url(#1770301554884-2687555_m)"></path><path d="M170.23 104.24c.48-2.82 9.31-7.87 8.82-5.03-4.86 28.01 8.23 53.27 59.07 46.1 4.14-.59 10.72 7.4 6.58 7.94-71.37 9.11-78.36-26-74.47-49.01" fill="url(#1770301554884-2687555_n)"></path><path d="M205.09 181.47c2.5 2.1 2.54 13.07.03 10.97-24.73-20.93-56.71-24-77.84 26.25-1.71 4.09-13.18 5.32-11.41 1.25 30.6-69.96 68.84-55.56 89.22-38.46Z" fill="url(#1770301554884-2687555_o)"></path><path d="M265.77 45.26c2.5 2.1 2.54 13.07.03 10.97-24.73-20.93-56.71-24-77.84 26.25-1.71 4.09-13.18 5.32-11.41 1.25 30.59-69.96 68.84-55.56 89.22-38.46Z" fill="url(#1770301554884-2687555_p)"></path><path d="M209.57 60.66c.48-2.82 9.31-7.87 8.82-5.03-4.86 28.01 8.23 53.27 59.07 46.1 4.14-.59 10.72 7.4 6.58 7.94-71.38 9.12-78.36-25.99-74.47-49.01" fill="url(#1770301554884-2687555_q)"></path><path d="M238.99 188.21c-1.67 4.35-13.83 9.56-12.15 5.21 16.68-43.08 11.61-87.54-49.72-92.41-4.99-.4-9.4-15.25-4.42-14.76 85.75 8.36 79.89 66.54 66.29 101.96" fill="url(#1770301554884-2687555_r)"></path><path d="m227.9 212.27-6.4 19.51-22.42.51-6.84-11.57 14.27-14.19 15.22-5.99zm48.94-118.89-6.96 11.23-27.6 1.26-6.69-23.41 12.16-11.21 21.1 10.07zm-63.53 66.7-7.09 11.48-28.2 1.25-6.83-23.89 12.44-11.45 21.51 10.29z" class="aj" fill="#ffe8bb"></path></g></svg>
