<svg xmlns="http://www.w3.org/2000/svg" data-name="Layer 1" style="" viewBox="0 0 512 399.99"><g><defs><linearGradient id="1770301554889-4056751_b" x1="1898.04" x2="1871.25" y1="-181.63" y2="-103.51" gradientTransform="rotate(16.29 632.55 1225.295) scale(.41 -1)" gradientUnits="userSpaceOnUse"><stop offset="0" stop-color="#ffa959"></stop><stop offset=".58" stop-color="#d07725"></stop><stop offset=".87" stop-color="#bd6411"></stop></linearGradient><linearGradient id="1770301554889-4056751_c" x1="-9.64" x2="-84.43" y1="-210.57" y2="7.49" gradientTransform="scale(1 -1) rotate(16.29 325.008 922.008)" gradientUnits="userSpaceOnUse"><stop offset="0" stop-color="#ffa959"></stop><stop offset=".52" stop-color="#ffce6e"></stop><stop offset=".87" stop-color="#ffe27a"></stop></linearGradient><linearGradient id="1770301554889-4056751_d" x1="-113.81" x2="-263.21" y1="-317.07" y2="-119.07" gradientTransform="scale(1 -1) rotate(16.29 325.008 922.008)" gradientUnits="userSpaceOnUse"><stop offset="0" stop-color="#f09641"></stop><stop offset=".14" stop-color="#f3a34a"></stop><stop offset=".48" stop-color="#fabf5b"></stop><stop offset=".77" stop-color="#fecf65"></stop><stop offset="1" stop-color="#ffd569"></stop></linearGradient><linearGradient id="1770301554889-4056751_f" x1="488.87" x2="459.28" y1="995.58" y2="1034.8" gradientTransform="scale(1 -1) rotate(-28.22 -1875.854 949.297)" gradientUnits="userSpaceOnUse"><stop offset="0" stop-color="#db893c"></stop><stop offset=".22" stop-color="#dd8d3f"></stop><stop offset=".46" stop-color="#e39a46"></stop><stop offset=".7" stop-color="#edb053"></stop><stop offset=".95" stop-color="#fcce65"></stop><stop offset="1" stop-color="#ffd569"></stop></linearGradient><linearGradient id="1770301554889-4056751_g" x1="-2635.84" x2="-2685.79" y1="1555.75" y2="1621.94" gradientTransform="rotate(229.6 -1499.672 204.443)" gradientUnits="userSpaceOnUse"><stop offset="0" stop-color="#db893c"></stop><stop offset=".22" stop-color="#dd8d3f"></stop><stop offset=".46" stop-color="#e39a46"></stop><stop offset=".7" stop-color="#edb053"></stop><stop offset=".95" stop-color="#fcce65"></stop><stop offset="1" stop-color="#ffd569"></stop></linearGradient><linearGradient id="1770301554889-4056751_h" x1="82.73" x2="45.49" y1="1522.65" y2="1572.01" gradientTransform="rotate(-47.5 -1697.6 -576.746) scale(1.3 -1)" gradientUnits="userSpaceOnUse"><stop offset="0" stop-color="#db893c"></stop><stop offset=".22" stop-color="#dd8d3f"></stop><stop offset=".46" stop-color="#e39a46"></stop><stop offset=".7" stop-color="#edb053"></stop><stop offset=".95" stop-color="#fcce65"></stop><stop offset="1" stop-color="#ffd569"></stop></linearGradient><linearGradient id="1770301554889-4056751_i" x1="-2308.05" x2="-2342.54" y1="778.77" y2="824.48" gradientTransform="rotate(-159.4 -1404.621 175.534) scale(1.3 1)" gradientUnits="userSpaceOnUse"><stop offset="0" stop-color="#db893c"></stop><stop offset=".22" stop-color="#dd8d3f"></stop><stop offset=".46" stop-color="#e39a46"></stop><stop offset=".7" stop-color="#edb053"></stop><stop offset=".95" stop-color="#fcce65"></stop><stop offset="1" stop-color="#ffd569"></stop></linearGradient><linearGradient id="1770301554889-4056751_j" x1="162.76" x2="198.07" y1="116.19" y2="160.69" gradientTransform="scale(1 -1) rotate(6.1 2671.684 869.754)" gradientUnits="userSpaceOnUse"><stop offset="0" stop-color="#f09641"></stop><stop offset=".15" stop-color="#f3a148"></stop><stop offset=".71" stop-color="#fcc760"></stop><stop offset="1" stop-color="#ffd569"></stop></linearGradient><radialGradient id="1770301554889-4056751_e" cx="-333.94" cy="-38.02" r="90.32" fx="-333.94" fy="-38.02" gradientTransform="matrix(.87079 -.49166 -.59924 -1.17753 367.01 76.7)" gradientUnits="userSpaceOnUse"><stop offset=".47" stop-color="#ffefb0"></stop><stop offset=".55" stop-color="#feecaa"></stop><stop offset=".66" stop-color="#fbe39a"></stop><stop offset=".78" stop-color="#f5d480"></stop><stop offset=".91" stop-color="#eec05b"></stop><stop offset="1" stop-color="#e8b13f"></stop></radialGradient></defs><path d="M511.61 126.83c-2.85 28.61-51.78 76.88-80.5 81.19-31.48 4.72-27.62-46.63-8.05-71.6 26.87-34.29 90.16-25.86 88.54-9.59Z" fill="url(#1770301554889-4056751_b)"></path><path d="M509.81 129.65c-38.95 34.78-185.7 166.23-338.94 255.58C109.67 420.9-9.61 202.97 45.81 167.04c76.05-49.3 273.9-156.42 319.2-166.86C388.17-5.17 531.3 110.45 509.8 129.65Z" fill="url(#1770301554889-4056751_c)"></path><path d="M64.76 164.21c25.01-16 50.46-31.17 76.13-45.98 25.64-14.83 51.7-28.86 77.82-42.82 26.34-13.46 52.74-26.81 79.66-38.98 26.96-12 54.12-23.88 82.42-32.09-13.75 5.3-27.2 11.3-40.54 17.59-13.38 6.14-26.66 12.54-39.86 19.11-26.45 13.1-52.78 26.35-78.86 40.24-26.28 13.43-52.26 27.52-78.37 41.38-26.11 13.87-52.13 27.91-78.38 41.54Zm34.58 0c22.75-16.16 46.5-30.69 70.61-44.51 24.1-13.83 48.78-26.53 73.5-39.1 24.94-12.08 49.96-23.96 75.33-35.01 25.38-11.02 50.92-21.63 76.9-31l-74.95 35.63c-24.94 11.98-49.92 23.8-74.58 36.31-24.88 12.05-49.43 24.78-73.94 37.62a2208 2208 0 0 0-72.86 40.05Zm19.35 8.67c23.22-14.95 47.03-28.91 71.08-42.38 24.06-13.47 48.55-26.05 73.09-38.53 24.75-11.99 49.56-23.86 74.76-34.83 25.19-10.92 50.57-21.46 76.48-30.46-24.94 11.54-49.8 23.22-74.54 35.09-24.73 11.9-49.51 23.7-74 36.14-24.7 11.95-49.09 24.59-73.58 37.08l-73.29 37.88Zm17.58 13.65c22.73-16.05 46.38-30.62 70.41-44.47 24.02-13.86 48.63-26.54 73.34-39.02 24.91-11.97 49.95-23.7 75.37-34.48 25.42-10.73 51.03-20.98 77.14-29.79-25.17 11.37-50.26 22.78-75.23 34.46-24.97 11.7-49.94 23.35-74.59 35.78-24.83 11.93-49.34 24.66-73.75 37.5-24.44 12.89-48.61 26.31-72.67 40.02Zm17.07 16.8c22.43-16.06 45.74-30.76 69.37-44.83 23.63-14.08 47.81-27.09 72.06-39.97 24.47-12.38 49.02-24.59 73.96-35.91 24.94-11.29 50.06-22.18 75.67-31.74l-73.66 36.35c-24.47 12.25-48.98 24.38-73.18 37.2-24.42 12.35-48.47 25.41-72.54 38.5-24.04 13.12-47.88 26.66-71.67 40.4Zm16.08 18.93c22.25-16.37 45.23-31.61 68.55-46.26 23.31-14.69 47.18-28.36 71.11-41.87 24.17-13.07 48.43-25.93 73.14-37.86 24.7-11.89 49.62-23.35 75.11-33.3-24.44 12.46-48.79 25.06-73 37.86-24.21 12.85-48.44 25.63-72.32 39.11-24.12 13.02-47.86 26.73-71.63 40.44-23.76 13.7-47.34 27.81-70.97 41.88Zm13.74 28.67c22.18-17.54 45.04-34.14 68.2-50.23 23.15-16.11 46.88-31.32 70.69-46.35 24.08-14.58 48.26-28.96 73.01-42.29 24.74-13.29 49.76-26.11 75.58-36.98-24.7 13.34-49.07 27.26-73.28 41.45-24.18 14.22-48.34 28.5-72.11 43.48-24.02 14.53-47.62 29.79-71.3 44.95l-70.78 45.98Zm8.76 24.86c23.06-17.93 46.6-35.1 70.34-51.98 23.73-16.89 47.91-33.1 72.1-49.28 24.46-15.74 48.94-31.45 73.96-46.21 25.06-14.66 50.3-29.15 76.66-41.17-12.6 7.2-25.04 14.66-37.32 22.4-12.38 7.55-24.66 15.28-36.88 23.14-24.46 15.63-48.91 31.26-73.08 47.41-24.42 15.7-48.52 31.96-72.81 47.93-24.26 15.98-48.47 32.08-72.97 47.75Zm-1.77 32.79c24.63-18.5 49.62-36.45 74.66-54.3l75.46-53.03 76.09-52.05c25.45-17.18 50.94-34.3 76.67-51.12-24.24 19.07-49.1 37.24-73.99 55.33-24.91 18.06-50.17 35.6-75.29 53.31-25.41 17.27-50.68 34.78-76.27 51.77-25.59 16.98-51.26 33.87-77.32 50.1Zm-5.6 28.95c26.46-19.05 53.18-37.61 79.82-56.27l79.96-55.94c26.78-18.46 53.22-37.39 79.72-56.27 13.26-9.41 26.46-18.94 39.57-28.6 13.21-9.5 26.25-19.25 39.18-29.19-24.28 22.02-50.06 42.1-75.96 61.93-25.95 19.78-52.49 38.7-79.01 57.61-26.82 18.46-53.62 36.92-80.84 54.7-27.22 17.79-54.6 35.3-82.44 52.03m-16.91 32.96 87.15-58.65c28.92-19.74 57.83-39.45 86.2-60.01 28.66-20.11 56.8-41.02 84.7-62.25 13.98-10.58 27.82-21.38 41.47-32.41 13.78-10.9 27.3-22.11 40.55-33.73-24.83 25.22-51.82 47.98-79.1 70.18-27.38 22.13-55.62 43.05-84.07 63.63-28.74 20.15-57.66 39.97-87.16 58.83-29.51 18.86-59.34 37.15-89.74 54.39Z" style="isolation:isolate" fill="#fc4e00" opacity=".2"></path><path d="M199.98 258.57c18.26 65.8 5.26 126.95-63.74 139.51-61.98 11.27-99.84-28.34-125.63-91.28-22.95-56.01-11.09-136.66 59.51-147.01 54.83-8.03 111.59 32.98 129.87 98.78Z" fill="url(#1770301554889-4056751_d)"></path><path d="M189.12 264.5c16.78 60.42 4.84 116.59-58.5 128.11-56.92 10.35-91.67-26.02-115.37-83.82C-5.81 257.37 5.08 183.3 69.88 173.8c50.35-7.37 102.47 30.3 119.24 90.7" fill="url(#1770301554889-4056751_e)"></path><path d="M142.58 373.32c-54.06 28.05-37.38-40.18-37.38-40.18z" class="x" fill="#594640"></path><path d="M160.34 329c-10.12-12.23-50.54 5.61-50.54 5.61s27.04 45.54 37.37 40.18c8.5-4.42 20.79-36.55 13.17-45.79M24.76 309.62c-33.53-61.78 27.9-44.55 27.9-44.55z" class="u" fill="#785647"></path><path d="M62.76 327.94c8.72-12.12-13.7-58.41-13.7-58.41s-34.3 32.75-27.88 44.56c5.26 9.72 34.98 22.96 41.58 13.85" class="x" fill="#594640"></path><path d="M72.37 347.54C38.84 285.76 100.28 303 100.28 303z" class="u" fill="#785647"></path><path d="M108.04 372.83c8.74-12.09-13.66-58.4-13.66-58.4s-34.31 32.8-27.91 44.58c5.28 9.7 35 22.94 41.58 13.82Zm-74.15-82.36c-37.73-69.49 31.4-50.09 31.4-50.09z" class="x" fill="#594640"></path><path d="M82.6 308.56c9.83-13.62-15.35-65.65-15.35-65.65s-38.62 36.82-31.42 50.08c5.93 10.9 39.38 25.84 46.77 15.57" class="u" fill="#785647"></path><path d="M47.93 247.44c-33.51-61.74 27.94-44.55 27.94-44.55z" class="x" fill="#594640"></path><path d="M89.53 261.3c8.74-12.11-13.66-58.42-13.66-58.42s-34.35 32.77-27.94 44.55c5.28 9.74 35.02 22.98 41.6 13.87" class="u" fill="#785647"></path><path d="M83.24 302.42c-37.74-69.51 31.42-50.12 31.42-50.12z" class="x" fill="#594640"></path><path d="M136.48 314.54c9.84-13.64-15.35-65.66-15.35-65.66s-38.63 36.82-31.42 50.1c5.91 10.9 39.37 25.83 46.77 15.56" class="u" fill="#785647"></path><path d="M125.16 319.02c-12.62-70.22 40.56-29.42 40.56-29.42z" class="x" fill="#594640"></path><path d="M160.45 348.64c12.09-7.53 5.26-59.05 5.26-59.05s-42.98 16-40.56 29.42c1.98 11.05 26.18 35.28 35.3 29.62ZM73.4 245.65c-33.54-61.8 27.92-44.55 27.92-44.55z" class="u" fill="#785647"></path><path d="M115 259.49c8.73-12.1-13.66-58.39-13.66-58.39s-34.33 32.77-27.92 44.55c5.26 9.71 34.99 22.96 41.58 13.84" class="x" fill="#594640"></path><path d="M106.49 255.96c32.15 59.18 46.2-6.91 46.2-6.91z" class="x" fill="#594640"></path><path d="M116.05 198.17c13.07-2.97 38.35 38.77 38.35 38.77s-40.04 18.23-46.19 6.92c-5.03-9.26-1.97-43.47 7.84-45.69" class="u" fill="#785647"></path><path d="M177.52 279.88c-13.8 76.86-52.1 8.03-52.1 8.03z" class="x" fill="#594640"></path><path d="M147.39 227.91c-15.06 1.13-27.65 56.19-27.65 56.19s49.48 6.64 52.12-8.03c2.18-12.03-13.1-49.04-24.47-48.16" class="u" fill="#785647"></path><path d="M92.36 333.23c-26.19-48.25 21.78-34.78 21.78-34.78z" class="x" fill="#594640"></path><path d="M124.8 344.04c6.84-9.47-10.66-45.58-10.66-45.58S87.34 324 92.36 333.24c4.12 7.57 27.31 17.9 32.45 10.8Z" class="u" fill="#785647"></path><path d="M94.86 295.66c-7.39-6.85-39.01 13.58-35.85 25.55 9.26 8.1 38.26-15.46 35.85-25.55m47.58-86.26c-7.37-6.84-38.97 13.56-35.85 25.51 9.3 8.14 38.29-15.41 35.85-25.51m-53.23 9.73c.02-10.55-34.69-29.58-41-20.26.33 13.06 35.53 27.89 41 20.26m62.27 139.52c.02-10.58-34.7-29.57-41.01-20.27.36 13.06 35.54 27.9 41.01 20.27m27.29-75c.02-10.52-34.66-29.54-41-20.26.35 13.06 35.52 27.91 41 20.26m-16.05 78.56c7.38-5.59-1.78-48.33-12.35-49.36-8.9 7.2 3.48 48.22 12.35 49.36" class="w" fill="#ab6647"></path><path d="M85.16 232.47c8.65 3.97 32.57-27.27 26.47-37.82-10.8-4.52-31.42 28.84-26.47 37.82m45.67 38.14c8.66 4 32.58-27.26 26.48-37.78-10.82-4.56-31.43 28.81-26.48 37.78M19.54 306.38c8.66 4.01 32.58-27.26 26.47-37.77-10.78-4.56-31.42 28.81-26.47 37.77m.43-47.63c8.67 4.02 32.58-27.26 26.48-37.75-10.8-4.58-31.46 28.81-26.48 37.75m91.82 70.41c8.69 4 32.59-27.28 26.48-37.78-10.78-4.58-31.42 28.79-26.48 37.78m-19.83 51.98c5.75 8.66 41.4-1.27 40.95-13.58-7.37-10.46-41.13 3.27-40.95 13.58M65.83 247.77c2.8 10.28 40.06 16.27 43.47 4.98-3.81-12.61-40.43-14.39-43.47-4.98M49 353.14c2.82 10.28 40.09 16.28 43.5 4.95-3.81-12.58-40.45-14.4-43.5-4.95m.33-99.21c-5.35 8.11 14.53 46.42 24.63 43.65 6.33-10.25-16.1-45.75-24.63-43.65" class="w" fill="#ab6647"></path><path d="M137.23 311.49c-28.94 6.45-8.5 57.8 14.51 8.97 22.74-48.14-20.69-41.66-14.51-8.97m-30.37 22.43c26.23-14.43-3.86-59.46-15.7-4.79-11.73 53.94 28.34 35.38 15.7 4.79m-51.03-3.74c-17.13 25.94 27.59 52.57 15.7-3.21-11.72-55.06-39.28-18.65-15.7 3.21" class="t" fill="#593a30"></path><path d="M74.36 276.29c3.2 30.22 29.3 32.56 44.9 25.58 15.94-7.09-47.06-46.64-44.9-25.58m-43.08 50.73c9.67 24.36 24.07 14.64 30.46 1.79 6.45-13.17-37.24-18.83-30.46-1.79m-5.2-103.09c10.12 25.49 25.19 15.38 31.89 1.86 6.74-13.74-38.97-19.69-31.89-1.86m112.79 4.39c-19.66-12.54-22.5 11.69-18.78 30.45 3.82 19.18 32.49-21.65 18.78-30.45m-17.31 113.54c-19.38-12.39-22.17 11.5-18.5 30.02 3.74 18.92 32.02-21.37 18.5-30.02m53.99-52.15c-19.66 6.3-15.24 29.82-6.94 42.86 8.46 13.34 20.72-47.29 6.94-42.86" fill="#8f563b"></path><path d="M106.92 251.46c-21.3 22.55 17.68 57.16 15.93-.29-1.72-56.69-35.06-25.7-15.93.29" class="t" fill="#593a30"></path><path d="M245.28 123.91c-16.26-21.39-49.66-33.1-68.23-33.22.88-7.48 17.51-9.26 26.82-17.1 11.01-9.3 52.37 3.29 66.15 25.12 13.82 21.82-20.22 31.14-24.74 25.21Z" fill="url(#1770301554889-4056751_f)"></path><path d="M262.2 144.65c59.13 32.62 75.46 106.51 79.5 125.83 7.22 4.69 13.82-11.5 24.54-16.89 11.85-5.96-12.46-95.08-75.14-139.26-20.6-14.5-35.28 26.82-28.9 30.32" fill="url(#1770301554889-4056751_g)"></path><path d="M250.23 124.82c-13.54-31.55-49.46-69.3-70.22-79.83-15.58-7.91 13.73-6.05 21.98-16.38 9.14-11.46 51.62 30.83 62.3 61.46 10.7 30.67-10.3 43.51-14.06 34.74Z" fill="url(#1770301554889-4056751_h)"></path><path d="M281.01 147.17c32.5 1.62 78.74 23.07 95.66 39.7 12.69 12.46.14-15.83 6.06-27.86 6.54-13.31-46.1-39.56-76.74-38.72-30.66.86-34.02 26.42-24.98 26.88" fill="url(#1770301554889-4056751_i)"></path><path d="M248.02 103.69c19.31-26.35 27.49-9.94 47.72 3.3 29.48 19.29 10.64 4.71-3.29 35.86-12.17 27.22-11.28 21.56-34.45-.88-23.2-22.46-34-5.52-9.98-38.28" fill="url(#1770301554889-4056751_j)"></path></g></svg>
