<svg xmlns="http://www.w3.org/2000/svg" data-name="Layer 1" style="" viewBox="0 0 512 367.99"><g><defs><radialGradient id="1770301554889-4839871_b" cx="286.88" cy="611.13" r="165.71" fx="286.88" fy="611.13" gradientTransform="matrix(.59412 .80438 .42736 -.31348 -380.48 104.49)" gradientUnits="userSpaceOnUse"><stop offset="0" stop-color="#29d8ff"></stop><stop offset=".2" stop-color="#23cafa"></stop><stop offset=".58" stop-color="#14a4ee"></stop><stop offset="1" stop-color="#0073de"></stop></radialGradient><radialGradient id="1770301554889-4839871_c" cx="238.93" cy="197.65" r="192.92" fx="238.93" fy="197.65" gradientTransform="matrix(1 0 0 -1.01 0 355.23)" gradientUnits="userSpaceOnUse"><stop offset="0" stop-color="#29d8ff"></stop><stop offset=".2" stop-color="#23cafa"></stop><stop offset=".58" stop-color="#14a4ee"></stop><stop offset="1" stop-color="#0073de"></stop></radialGradient><radialGradient id="1770301554889-4839871_d" cx="250.54" cy="-161.56" r="119.83" fx="250.54" fy="-161.56" gradientTransform="matrix(1 0 0 -.44 0 -18.12)" gradientUnits="userSpaceOnUse"><stop offset="0" stop-color="#29d8ff"></stop><stop offset=".2" stop-color="#23cafa"></stop><stop offset=".58" stop-color="#14a4ee"></stop><stop offset="1" stop-color="#0073de"></stop></radialGradient><radialGradient id="1770301554889-4839871_e" cx="262.2" cy="334.96" r="35.3" fx="262.2" fy="334.96" gradientTransform="matrix(1 0 0 -1.01 0 355.23)" gradientUnits="userSpaceOnUse"><stop offset="0" stop-color="#29d8ff"></stop><stop offset=".2" stop-color="#23cafa"></stop><stop offset=".58" stop-color="#14a4ee"></stop><stop offset="1" stop-color="#0073de"></stop></radialGradient><radialGradient id="1770301554889-4839871_f" cx="456.63" cy="339.92" r="62.91" fx="456.63" fy="339.92" gradientTransform="matrix(1 0 0 -1.75 0 770.8)" gradientUnits="userSpaceOnUse"><stop offset="0" stop-color="#29d8ff"></stop><stop offset=".16" stop-color="#26d1fd"></stop><stop offset=".41" stop-color="#1ebcf6"></stop><stop offset=".71" stop-color="#109aeb"></stop><stop offset="1" stop-color="#0073de"></stop></radialGradient></defs><path d="M48.51 84.35C38.04 74.49-5.65 87.39.61 93.17c48.33 44.6 44.54 120.19 56.69 155.11 8.79 25.27 45.49 65.4 81.16 60.35 13.02-1.83-20.66-172.79-25.77-162.53-24.29 48.86-21.18-21.21-64.18-61.74Z" fill="url(#1770301554889-4839871_b)"></path><path d="M42.68 84.04c.23 1.77-7.98 4.49-18.55 6.29-10.56 1.81-19.47 2.01-19.71.24-.18-1.45 8.13-4.81 18.7-6.61 10.56-1.79 19.37-1.39 19.56.08m225.7 254.01c-47.66 0-88.17 5.78-88.17 12.31s40.51 17.63 88.17 17.63 88.17-11.4 88.17-17.63c0-6.54-40.51-12.31-88.17-12.31" class="l" fill="#005aae"></path><path d="M268.38 47.35c-101.78 0-165.01 60.52-165.01 155.33 0 59.98 25.34 103.96 69.69 142.57 23.25 20.24 167.37 20.24 190.62 0 44.36-38.61 69.69-82.59 69.69-142.57 0-94.81-63.23-155.33-165.01-155.33Z" fill="url(#1770301554889-4839871_c)"></path><path d="M268.38 49.06c-55.79 0-103.25 18.54-103.25 28.5s47.45 17.13 103.25 17.13 103.25-7.62 103.25-17.13c0-9.96-47.46-28.5-103.25-28.5" class="l" fill="#005aae"></path><path d="M268.38 42.7c-55.27 0-102.26 22.07-102.26 32.55s47 15.55 102.26 15.55 102.26-5.53 102.26-15.55S323.63 42.7 268.38 42.7" fill="url(#1770301554889-4839871_d)"></path><path d="M293.93 25.81C293.93 11.57 282.49 0 268.39 0s-25.54 11.56-25.54 25.81c0 8.57 4.69 15.51 10.55 20.84 1.93 1.77 3.12 3.74 3.14 5.02.11 5.72 23.59 5.72 23.7 0 .02-1.26 1.18-3.24 3.1-4.98 5.87-5.34 10.59-12.27 10.59-20.87Z" fill="url(#1770301554889-4839871_e)"></path><path d="M429.82 165.96c-2.02-63.35 46.83-70.05 60.82-13.42 10.88 44.06-31.25 102.17-57.76 60.83-3.58-5.57-36.66 84.46-28.08 76.3 19.99-18.98 26.1-17.89 45.64-26.82 50.29-22.93 67.77-70.22 59.66-113.96-7.1-38.26-51.34-94.2-98.29-26.05-6.14 10.59 18.4 55.66 18.01 43.12" fill="url(#1770301554889-4839871_f)"></path></g></svg>
