<svg xmlns="http://www.w3.org/2000/svg" data-name="Layer 1" style="" viewBox="0 0 512 512.17"><g><defs><radialGradient id="1770301554902-544479_b" cx="119.45" cy="207.27" r="408.25" fx="119.45" fy="207.27" gradientTransform="matrix(.96229 -.12208 -.09833 -.8141 97.06 339.51)" gradientUnits="userSpaceOnUse"><stop offset=".44" stop-color="#ffc940"></stop><stop offset=".69" stop-color="#ffc73e"></stop><stop offset=".8" stop-color="#ffc039"></stop><stop offset=".88" stop-color="#ffb330"></stop><stop offset=".9" stop-color="#ffae2c"></stop></radialGradient></defs><path d="M130.75 512.17c-5.38 0-10.42-.94-15.03-3.07-4.27-1.96-7.85-4.95-10.59-8.62-4.27.6-8.88.34-13.32-.68-6.23-1.45-11.78-4.52-16.05-8.62-7.26 1.02-14.77-.43-21.51-4.35-6.4-3.67-11.44-9.22-14.43-15.54-11.7-3.07-18.35-9.39-22.03-14.6-5.55-7.85-7.77-18.35-6.49-29.37-7.68-12.72-15.28-29.45-8.96-43.37 6.57-14.34 22.88-16.14 32.7-17.24 2.05-.26 4.7-.51 5.55-.77 49.94-14.26 70.52-29.54 94.25-47.3 13.49-10.07 27.49-20.49 47.81-31.76 46.19-25.7 82.81-56.86 90.15-70.94 13.49-25.7 16.65-86.99 21.94-155.38 0 0 17.24 136.08.6 167.84-12.46 23.82-60.02 59.08-100.57 81.61-18.87 10.5-32.1 20.4-44.99 29.97-24.67 18.35-48.06 35.77-102.45 51.31-2.99.85-6.23 1.2-9.73 1.62s-10.67 1.2-12.55 2.73c.26.09-.09 5.81 10.16 21.68l3.07 4.7-1.2 5.46c-1.02 4.35-1.11 10.33 1.37 13.92 2.05 2.9 6.23 4.7 12.38 5.29l10.59 1.02.94 10.84c.09 1.2 1.54 3.76 4.35 5.38 2.73 1.54 5.46 1.62 8.2.26l11.78-5.89 5.46 12.29c.94 2.05 3.33 3.07 4.7 3.41 3.24.94 6.06.34 6.83-.17l16.99-14.34 3.67 22.28c.43 2.65 1.28 3.07 1.79 3.33 4.44 2.05 19.21 1.02 46.53-16.14 10.59-6.66 22.71-6.15 35.6-5.63 12.81.51 27.32 1.11 43.88-5.04 11.87-4.44 25.95-12.46 40.89-20.92 26.89-15.37 57.37-32.7 90.66-38.76 3.16-.6 7.26-.94 12.38-1.37 22.71-1.88 64.88-5.29 82.21-33.81 12.63-20.83 10.76-53.02-5.72-95.53-20.06-51.99-6.57-135.57 8.37-196.61 1.79-7.43 12.21-24.67 10.84-30.65 0 0 11.35 14.43 8.62 37.22-5.89 50.03-22.54 132.5-4.1 180.39 19.64 50.71 20.83 90.83 3.67 119.09-24.16 39.78-76.66 44.05-101.93 46.1-4.27.34-7.68.6-9.99 1.02-29.03 5.29-57.54 21.51-82.72 35.86-15.54 9.13-30.56 17.67-44.39 22.79-21.26 7.85-39.19 7.17-53.61 6.57-9.31-.34-17.24-.68-21.26 1.79-16.14 10.16-37.31 20.66-55.32 20.66Z" class="e" fill="#db942d"></path><path d="M484.61 263.22c-19.81-51.31-3.24-138.98 8.88-188.58 25.27-103.56-202.5-92.63-198.74-8.54 3.24 73.33 4.52 127.29-10.59 156.14-10.24 19.55-53.27 52.84-95.36 76.24-56.09 31.25-64.63 57.2-144.79 80.16-11.78 3.33-50.71-2.65-19.29 45.93-2.65 11.7-1.88 32.61 25.01 35.26 1.02 11.7 16.05 23.73 30.9 16.31 5.55 12.46 23.56 14.51 31.25 8.02 3.5 21.09 29.62 19.98 67.61-3.84 15.88-9.9 42.09 3.5 77.18-9.48 34.49-12.81 79.74-50.11 129.42-59.08 23.48-4.35 157.51 3.84 98.52-148.55Z" fill="url(#1770301554902-544479_b)"></path><path d="M38.03 408.61c-16.65 6.06-17.42 19.64-13.83 30.56-.17-10.84 6.57-24.16 20.75-26.64 9.56-21.77 38.33-33.04 60.19-37.9-19.12-3.76-57.88 16.73-67.1 33.98Zm16.4 61.72c-2.65-9.39-3.59-26.04 11.78-32.01.85-30.22 35.86-42.6 56.52-52.08-24.33 5.55-60.19 16.31-62.24 47.81-14.51 6.32-16.31 27.92-6.06 36.28m71.02-8.36c-.51-33.98 46.19-35.26 44.14-52.33-7.09 13.74-49.34 16.14-49.94 51.48-22.2 20.32-1.28 34.32-1.28 34.32s-12.38-18.78 7.09-33.47Z" class="e" fill="#db942d"></path><path d="M91.56 448.31c-.51-33.98 54.72-39.95 52.67-57.03-7.09 13.74-56.09 19.21-56.77 54.55-22.03 8.28-13.57 33.98.6 38.42-8.45-8.71-12.04-28.09 3.5-35.94m356.43-171.94c64.46-67.87 12.46-77.52 6.32-154.95-12.29 65.14 30.65 84.52-6.32 154.95" class="e" fill="#db942d"></path><path d="M44.01 378.65c-28.51-.17-30.65 10.42-30.65 10.42s-1.88 29.79 24.07 11.61c15.88-11.1 6.57-22.03 6.57-22.03Zm.94 33.89c-18.53 3.33-17.67 12.12-17.67 12.12s4.95 24.33 17.93 6.49c8.02-10.93-.26-18.61-.26-18.61m21.26 25.78c-15.71 5.46-14.43 12.55-14.43 12.55s6.06 19.21 16.05 2.65c6.06-10.07-1.62-15.2-1.62-15.2m25.35 9.99c-15.28 6.83-13.32 13.83-13.32 13.83s7.6 18.61 16.14 1.28c5.29-10.67-2.82-15.11-2.82-15.11m33.89 13.66c-14.09 9.31-11.18 15.88-11.18 15.88s10.24 17.16 16.14-1.45c3.67-11.35-4.95-14.43-4.95-14.43Z" fill="#ffd17c"></path></g></svg>
