<svg xmlns="http://www.w3.org/2000/svg" data-name="Layer 1" style="" viewBox="0 0 512 606.79"><g><defs><radialGradient id="1770301554914-8743228_b" cx="94.66" cy="1330.31" r="406.71" fx="94.66" fy="1330.31" gradientTransform="matrix(0 1.04 .9 0 -954.29 42.65)" gradientUnits="userSpaceOnUse"><stop offset=".67" stop-color="#ffc940"></stop><stop offset=".79" stop-color="#ffc53d"></stop><stop offset=".93" stop-color="#ffb834"></stop><stop offset="1" stop-color="#ffae2c"></stop></radialGradient></defs><path d="M73.78 512.18c16.12 35.45 17.35 50.43 17.82 71.29.66 31.09 198.12 31.09 198.12 0 0-19.24 5.59-42.18 24.65-71.29z" fill="#ffae2c"></path><path d="M306.41 512.18c-14.12 24.93-16.59 47.87-16.59 71.29 4.55-23.7 13.56-45.6 31.38-71.29zm-225.52 0H69.04C86.86 549.91 88 562.23 91.7 583.47c-.57-21.33 2.56-37.35-10.81-71.29" class="e" fill="#db942d"></path><path d="M474.3 312.26c-68.82-24.65-94.7 39.34-139.26 18.86-5.21-2.37-5.88-14.88-1.14-34.03 14.98-60.39 35.93-168.17 40.38-200.02 6.92-48.91-52.71-62.94-63.42-13.37-6.92 32.14-34.22 160.59-34.22 160.59s26.54-143.14 31.09-193.57c4.74-52.71-61.62-59.82-71-7.96-8.06 44.93-29.67 168.93-40.19 239.36-.85 5.78-19.15 7.39-20.86 1.71-18.77-63.7-58.87-195.19-65.98-217.37-15.55-48.25-75.84-27.02-63.42 21.99q14.03 55.08 43.99 177.27s-14.31-50.91-24.36-87.31C53.4 133.1-2.63 150.82 8.75 196.61 40.98 326.2 34.06 328.85 38.99 395.78c6.83 93 44.36 166.56 145.23 166.56 200.97 0 109.02-132.62 309.61-199.93 18.01-6.07 14.88-37.82-19.53-50.15" fill="url(#1770301554914-8743228_b)"></path><path d="M511.93 349.13c1.04-14.6-9.95-34.6-35.17-43.8-43.89-15.74-73.94 3.89-93.94 16.49-17.92 11.38-49.77 15.45-41.99-23.04 15.26-75.17 35.93-168.07 40.48-200.78 4.17-29.58-12.99-48.54-32.04-52.04-11.85-2.18-25.69 1.71-35.26 13.65.38-3.03.57-5.78.85-8.34 2.84-31.19-16.4-48.25-35.45-50.91-20.57-2.84-44.18 10.33-49.77 40.95-6.73 37.16-39.62 239.46-39.62 239.46l-10.05.57S121.75 80.2 116.54 63.99c-9.2-28.44-32.14-35.74-49.58-30.62-19.43 5.78-35.17 27.11-27.59 56.69 2.18 8.44 10.9 42.47 15.17 59.72a33.63 33.63 0 0 0-26.83-3.89C9.6 150.72-5.18 170.35 1.74 198.22c28.15 113.47 25.03 124.66 28.44 175.56.47 7.01.95 14.41 1.52 22.47 6.92 94.61 35.74 145.32 110.34 160.96-57.73-23.13-89.68-74.42-96.12-162.1-.57-7.96-1.04-15.36-1.52-22.37-3.41-51.66-.38-63.42-28.82-178.12-4.93-19.72 4.74-31.85 15.74-34.79 9.48-2.56 22.37 1.23 27.59 20.38 7.96 28.91 43.89 134.61 43.89 134.61l3.41-1.33S60.61 116.41 53.12 86.55C47.62 64.84 58.43 51 70.85 47.3c10.52-3.13 25.31.57 31.95 21.23 3.79 11.66 53.65 180.11 65.13 218.89 1.42 4.65 5.78 7.68 10.62 7.39l14.03-.95c4.83-.28 8.72-3.79 9.57-8.53 6.73-39.62 36.5-213.86 41.43-241.35 4.08-22.75 20.38-31.09 33.75-29.29 12.89 1.8 25.12 13.37 23.13 35.17-3.79 41.9-38.39 248.46-38.39 248.46h5.02s44.84-186.28 50.62-213.29c4.55-21.42 18.49-26.83 28.82-24.93 11.94 2.18 23.51 14.31 20.48 35.74-4.55 32.42-22.18 119.25-40.19 199.36-10.24 45.5 20.95 65.13 63.51 38.77 18.86-11.66 44.18-28.44 81.43-15.07 19.91 7.01 26.35 21.33 25.78 29.2-.28 3.98-2.18 6.07-5.4 7.11-162.86 54.7-138.12 156.79-235.1 199.07 101.24-18.01 83.99-134.9 237.94-184.95 9.57-2.84 16.3-9.67 16.97-20.19Z" class="e" fill="#db942d"></path><path d="M101.84 303.73c.85 9.57-6.35 15.93-6.35 15.93s6.73-3.7 19.53-8.91c0-.09-8.63-.47-13.18-7.01Zm164.85-14.32c-4.65 8.44-14.12 9.48-14.12 9.48s7.58.76 21.14 3.79c0 0-7.01-5.31-7.01-13.27Z" class="e" fill="#db942d"></path><path d="M294 345.15c-108.07 36.12-110.44 131.1-104.18 169.4 1.33 8.25 4.08 5.21 4.55-.19 3.7-40.38 15.93-121.62 101.62-165.33 8.25-4.27 6.83-6.83-1.99-3.89Z" style="isolation:isolate" fill="#db942d" opacity=".3"></path></g></svg>
