<svg xmlns="http://www.w3.org/2000/svg" data-name="Layer 1" style="" viewBox="0 0 512 819.89"><g><defs><radialGradient id="1770301554913-5250505_b" cx="272.04" cy="425.86" r="293.63" fx="272.04" fy="425.86" gradientTransform="matrix(1 0 0 -1.08 .57 894.98)" gradientUnits="userSpaceOnUse"><stop offset=".53" stop-color="#ffc940"></stop><stop offset=".77" stop-color="#ffc73e"></stop><stop offset=".89" stop-color="#ffbf39"></stop><stop offset=".98" stop-color="#ffb22f"></stop><stop offset="1" stop-color="#ffae2c"></stop></radialGradient><radialGradient id="1770301554913-5250505_c" cx="-881.86" cy="484.38" r="88.35" fx="-881.86" fy="484.38" gradientTransform="matrix(0 -1.46 -2.16 0 1291.99 -796.49)" gradientUnits="userSpaceOnUse"><stop offset=".28" stop-color="#faa00f"></stop><stop offset=".48" stop-color="#fbaa1b" stop-opacity=".67"></stop><stop offset=".85" stop-color="#ffc53c" stop-opacity=".07"></stop><stop offset=".89" stop-color="#ffc940" stop-opacity="0"></stop></radialGradient></defs><path d="M76.75 694.4c22.93 46.89 24.73 66.88 25.37 94.55 1.02 41.25 281.73 41.25 281.73 0 0-25.62 7.94-55.86 35.1-94.55z" fill="#ffae2c"></path><path d="M407.42 694.4c-20.11 33.05-23.57 63.42-23.57 94.55 6.41-31.52 19.22-60.47 44.59-94.55h-21.01Zm-320.55 0H69.96c25.37 49.97 27.03 66.37 32.16 94.55-.77-28.31 3.72-49.45-15.25-94.55" class="h" fill="#db942d"></path><path d="M411.91 71.88c-24.98 113.77-56.88 271.48-82.64 271.35-12.17-.13-20.24-36.39-53.81-286.73-9.48-70.98-105.31-57.53-95.58 13.32 21.14 152.2 27.55 326.83 27.55 326.83l245.86 32.8s23.96-157.33 48.56-338.49c9.35-68.93-75.08-86.86-89.94-19.09Z" class="f" fill="#ffc940"></path><path d="M466.36 20.5c-24.47-4.48-54.96 8.97-63.8 49.33l-6.66 30.24c-16.78 77.13-47.66 219.21-65.72 232.92-9.1-14.99-23.19-110.31-45.61-277.76-3.2-24.34-16.4-42.92-36-50.99-18.83-7.82-41.38-4.61-57.4 8.07-16.66 13.2-24.21 34.72-20.88 58.93 19.47 141.06 26.52 303.51 27.42 323.75 6.28.64 12.43 1.15 18.71 1.54-2.18-48.17-10.12-203.45-27.42-327.98-2.43-17.55 2.43-32.16 13.84-41.13 10.76-8.58 26.01-10.63 38.69-5.38 13.32 5.51 22.04 18.32 24.34 35.87 38.31 285.83 43.18 294.93 63.16 295.06h.13c26.39 0 45.35-65.21 85.2-248.55l6.66-30.24c6.15-28.06 25.5-37.54 42.02-34.59 17.04 3.07 33.44 20.24 29.34 50.22-20.63 151.95-41 288.27-46.76 327.09 5.51 4.61 11.27 8.84 17.17 12.94 2.18-14.22 25.11-166.04 48.43-337.46 5.51-40.87-18.32-67.13-44.84-71.87Z" class="h" fill="#db942d"></path><path d="M426 459.69H15.77c-.13 57.53 2.18 137.86 46.51 211.39 75.21 124.79 433.04 167.45 433.04-179.62 0-7.3-27.55-19.09-69.31-31.77Z" fill="url(#1770301554913-5250505_b)"></path><path d="M70.35 666.09c-42.92-71.11-45.23-150.41-45.1-206.27H6.42c-.13 58.17 2.18 140.67 47.92 216.39 17.68 29.34 49.97 51.38 95.58 63.67-33.95-20.37-63.93-47.92-79.56-73.8Zm415.48-172.45c-.77 178.08-109.28 237.02-152.84 258.54 62.65-14.86 171.68-68.42 171.68-260.72 0-4.74-27.03-5.77-18.83 2.18Z" class="h" fill="#db942d"></path><path d="M52.28 472.24C43.31 672.49 431 676.33 440.09 480.95c4.36-94.94-383.71-103.26-387.81-8.71" fill="url(#1770301554913-5250505_c)"></path><path d="M386.93 482.75c-145.67 49.07-148.87 177.83-140.29 229.84 1.79 11.15 5.51 7.05 6.15-.26 4.87-54.71 21.52-165.02 136.96-224.33 10.89-5.77 9.1-9.22-2.82-5.25" style="isolation:isolate" fill="#db942d" opacity=".3"></path><path d="M3.47 477.75c-24.98-80.84 92.37-114.54 116.2-33.7l25.75 94.94c24.73 80.07-92.5 113.38-116.46 33.31z" class="h" fill="#db942d"></path><path d="M20.51 472.24c-17.81-58.17 64.32-82 82.25-23.83l25.62 95.83c17.81 57.91-64.44 81.48-82.25 23.45z" class="f" fill="#ffc940"></path><path d="M115.06 535.02c3.2 7.43 8.33 23.06 8.97 28.95 2.69 26.01-54.19 40.23-63.67 16.27-2.43-6.02-5.64-23.06-5.89-31.39-.77-25.11 50.61-37.15 60.6-13.84Z" class="j" style="isolation:isolate" opacity=".3" fill="#fff"></path><path d="M94.56 413.82c-11.02-84.69 111.21-98.52 121.2-13.96l22.04 147.72c10.89 83.79-111.21 97.24-121.33 13.58z" class="h" fill="#db942d"></path><path d="M112.37 411.26c-7.82-60.86 77.9-70.85 85.71-9.87l21.91 148.62c7.82 60.6-77.9 70.21-85.71 9.61z" class="f" fill="#ffc940"></path><path d="M208.07 538.23c2.31 7.82 5.64 24.09 5.51 29.98-.38 26.39-58.93 33.7-65.72 8.58-1.67-6.28-2.82-23.7-2.18-32.16 2.31-25.11 55.09-30.88 62.39-6.41Z" class="j" style="isolation:isolate" opacity=".3" fill="#fff"></path><path d="M357.07 368.08c-18.19-3.97-91.99 24.21-150.8 34.08-32.41 5.38-50.22 66.75 17.42 90.07 58.29 20.11 116.33-1.92 116.33-1.92s11.15 36.51 31 61.11c12.94 16.01 124.27-38.05 124.27-59.96 0-47.66-117.87-118.89-138.24-123.38Z" class="f" fill="#ffc940"></path><path d="M269.06 424.33c-7.05 5.77-56.24 15.12-63.03 9.87-16.91-13.07-13.32-25.88-5.64-27.8 11.79-2.82 48.3-7.43 67.39-11.27 8.2-1.54 5.89 25.5 1.28 29.21Z" class="j" style="isolation:isolate" opacity=".3" fill="#fff"></path><path d="M359.12 358.73c-11.53-2.56-33.7 3.33-71.75 13.96-26.26 7.3-56.12 15.63-82.64 20.11-19.35 3.2-34.72 21.65-36.51 43.69-.9 10.76.38 47.02 52.53 64.96 47.53 16.4 94.17 6.41 113.51.9 4.74 12.94 15.5 33.05 36.9 49.07-18.45-22.81-24.98-73.54-24.98-73.54l-9.35 3.46c-.51.26-55.73 20.5-110.05 1.79-26.39-9.1-41.25-26.01-39.72-45.23 1.02-13.2 9.99-24.47 20.76-26.26 27.42-4.61 57.78-13.07 84.56-20.5 25.88-7.17 55.22-15.37 62.78-13.71 18.83 4.23 130.55 71.11 130.55 128.37l19.09-14.35c-.13-55.09-123.76-127.86-145.67-132.73Z" class="h" fill="#db942d"></path></g></svg>
