<svg xmlns="http://www.w3.org/2000/svg" data-name="Layer 1" style="" viewBox="0 0 512 819.16"><g><defs><radialGradient id="1770301554904-9325242_b" cx="-1567.63" cy="1534.27" r="363" fx="-1567.63" fy="1534.27" gradientTransform="matrix(-1.03 0 0 1.08 -1319.77 -1370.83)" gradientUnits="userSpaceOnUse"><stop offset=".71" stop-color="#ffc940"></stop><stop offset="1" stop-color="#ffc940"></stop></radialGradient></defs><path d="M11.25 511.47c10.24 28.8 65.28 80.89 126.46 155.52 10.75 13.18 8.58 80.89 8.58 110.33 0 55.94 292.09 55.42 288.64.64-7.42-117.37 7.04-148.22 51.58-240.51 14.21-29.31 18.82-110.85 14.21-145.53-4.99-36.86-48.13-57.47-83.58-44.03 0 0-27.26-46.59-81.02-20.48-1.15-30.34-83.58-55.04-111.74-6.53 0 0 .26-210.56 1.15-264.96 1.02-61.06-106.49-62.34-107.39 0-1.15 80-5.5 274.17-18.56 326.14-42.64 35.08-101.13 93.19-88.33 129.41" fill="url(#1770301554904-9325242_b)"></path><path d="M510.18 390.64c-2.56-18.82-13.44-35.07-30.72-45.57-17.54-10.62-38.91-13.7-58.37-8.45-12.93-16.64-40.58-35.71-78.85-22.14-6.4-12.16-21.38-22.4-41.47-27.65-20.22-5.25-46.85-4.61-66.81 9.6.13-57.09.38-197.76 1.15-240.38.38-19.58-8.7-35.97-25.47-46.08-21.25-12.93-51.46-13.31-73.34-1.02-17.54 9.98-27.39 26.5-27.65 46.72-.9 61.44-4.74 263.16-17.54 320.89-40.82 34.05-103.93 95.1-88.82 137.98 7.17 20.1 31.62 47.74 65.66 86.01 18.82 21.25 40.19 45.31 62.46 72.45 7.17 8.7 11.65 68.99 15.87 104.19 3.84-46.46 8.45-104.57-1.28-116.48-22.53-27.39-44.03-51.71-62.98-73.09-31.23-35.2-56.06-63.1-61.82-79.61-8.19-23.04 24.58-68.48 85.37-118.53l2.43-2.05.77-3.07c13.95-55.42 17.92-265.34 18.82-328.44.26-16.77 9.86-25.6 17.92-30.21 16-9.09 38.78-8.7 54.4.64 7.55 4.61 16.38 13.44 16.13 29.18-.9 53.89-1.15 263.04-1.15 265.08v35.33l17.66-30.34c13.57-23.42 42.75-25.47 63.49-20.22 18.82 4.86 30.34 15.1 30.59 22.14l.51 14.59 13.06-6.27c44.29-21.5 66.43 12.8 68.73 16.77l4.1 6.91 7.42-2.82c16-6.02 34.43-4.35 49.15 4.74 12.29 7.42 19.97 18.69 21.76 31.62 4.48 33.02-.26 113.02-13.31 139.9-45.06 93.18-55.81 135.29-43.14 244.73.38-100.09 15.62-144.13 60.16-236.28 15.1-30.98 19.97-114.69 15.1-150.78Z" class="d" fill="#db942d"></path><path d="M110.7 375.67c-5.63 27.39 7.94 51.33-19.97 84.48 16.26-39.3-6.14-46.59-.64-81.53.77-4.61 21.5-7.42 20.61-2.94Zm213.63-12.55s16.38-20.74 17.79-41.6c.13-2.18-18.05-2.56-17.66-.38 2.69 16.64-.13 41.98-.13 41.98m81.02 13.19s12.16-7.81 16.26-21.5c.64-2.05-14.34-12.03-14.08-9.86 1.28 17.02-2.18 31.36-2.18 31.36" class="d" fill="#db942d"></path><path d="M136.94 85.49c-1.41-8.7-1.92-26.62-1.92-33.02 0-30.46 72.7-30.34 72.7 0 0 7.17-.13 25.98-2.05 34.82-5.89 26.88-64.13 25.6-68.73-1.79Z" style="isolation:isolate" fill="#fff" opacity=".3"></path></g></svg>
