<svg xmlns="http://www.w3.org/2000/svg" data-name="Layer 1" style="" viewBox="0 0 512 744.76"><g><defs><radialGradient id="1770301554906-5452498_b" cx="310.32" cy="576.48" r="276.69" fx="310.32" fy="576.48" gradientTransform="matrix(1.17968 -.02739 -.04874 -1.46926 -47.64 1175.51)" gradientUnits="userSpaceOnUse"><stop offset=".45" stop-color="#ffc940"></stop><stop offset=".73" stop-color="#ffc73e"></stop><stop offset=".87" stop-color="#ffbf39"></stop><stop offset=".98" stop-color="#ffb22f"></stop><stop offset="1" stop-color="#ffae2c"></stop></radialGradient></defs><path d="M492.24 390.99c-11.17-45.96-62.02-52.13-83.43-39.56-2.79-48.06-82.5-58.3-98.79-33.16V57.6c0-66.33-106.94-63.65-106.94 0v251.23c-41.66-14.31-89.14 7.1-92.28 41.43-1.28 14.2-5.47 53.64-5.82 66.56-43.87 17.69-109.85 32-93.56 74.82 21.64 57.02 35.49 123.46 77.96 141.38 47.36 20.01 68.77 44.57 68.77 73.54 0 53.41 266.94 48.64 266.94-.81-.12-142.31 118.11-105.08 67.14-314.77Z" fill="url(#1770301554906-5452498_b)"></path><path d="M500.85 388.89c-5.24-21.41-18.97-37.82-38.75-46.2-15.13-6.4-32.47-7.56-46.55-3.61-5.7-18.85-22.57-33.28-46.9-39.8-16.29-4.42-35.49-4.54-49.8 1.4V57.6c0-39.56-31.88-57.6-61.44-57.6-31.42 0-63.19 19.78-63.19 57.6v239.71c-22.92-4.54-47.24-.47-65.75 11.52-15.59 10.12-25.02 24.55-26.41 40.61-.35 3.61-.81 8.96-1.51 15.13-1.51 14.89-3.37 34.33-4.07 46.08-5.47 2.09-11.29 4.19-17.11 6.28-32.12 11.64-65.28 23.62-75.99 46.78-4.42 9.54-4.54 20.01-.23 31.19 5.24 13.85 9.77 28.39 14.08 42.47 14.08 45.61 32.93 88.79 68.66 103.91 42.94 18.15 72.15 38.4 72.15 65.4 0-27.35-10.36-58.42-65.4-81.69-28.16-11.87-45.73-51.2-58.65-92.74-4.42-14.43-9.08-29.21-14.43-43.52-2.56-6.63-2.56-12.33-.23-17.45 7.56-16.41 38.52-27.58 65.98-37.47 7.91-2.91 15.71-5.7 22.92-8.61l5.35-2.21.12-5.82c.23-9.19 2.56-33.28 4.31-50.85l1.51-15.01c.93-10.59 7.56-20.25 18.5-27.35 17.11-11.05 41.43-13.61 62.14-6.52l11.64 4.07V57.6c0-27.46 23.62-39.91 45.5-39.91s43.87 12.33 43.87 39.91v290.33l16.17-24.9c5.12-7.91 25.13-12.45 46.66-6.63 8.03 2.09 34.56 11.05 35.96 35.49l.81 14.43 12.45-7.33c8.73-5.12 25.83-6.87 41.89 0 10.24 4.31 23.62 13.85 28.51 34.09 29.79 122.65-10.36 157.09-29.09 196.89-12.45 26.65-29.56 56.79-29.56 115.78 0-55.04 33.28-82.15 45.61-108.22 19.32-41.08 61.44-79.94 30.25-208.64Z" class="d" fill="#db942d"></path><path d="M114.4 412.16c0 31.65 6.4 72.03-32.23 123.11 26.65-67.84 11.75-87.97 14.08-118.34.35-4.42 18.15-9.08 18.15-4.77m86.46-38.28c6.98-37-6.98-31.53-6.87-68.89 0-4.42 18.39.58 18.39 4.89.23 31.77 2.79 36.31-11.52 64m111.25-2.68c-7.56-32.58 7.21-33.86 7.21-62.26 0-4.42-18.39-3.61-18.85.81-1.4 12.68-6.52 28.86 11.64 61.44Zm96.58 39.57c-7.56-35.37 8.96-30.6 10.71-67.03.23-4.42-19.55-9.31-18.85-5 4.31 25.37-13.96 40.38 8.15 72.03Z" class="d" fill="#db942d"></path><path d="M224.13 76.68c-1.4-8.15-2.68-24.67-1.75-30.49 3.72-26.07 64.35-25.83 67.96 0 .93 6.52-.12 23.97-1.98 32.23-5.47 24.67-60.04 23.62-64.23-1.75Z" style="isolation:isolate" fill="#fff" opacity=".3"></path></g></svg>
