<svg xmlns="http://www.w3.org/2000/svg" data-name="Layer 1" style="" viewBox="0 0 512 566.89"><g><defs><linearGradient id="1770301554927-8271355_h" x1="-615.87" x2="-615.87" y1="413.52" y2="405.98" gradientTransform="matrix(6.57 0 0 6.57 4235.15 -2297.3)" gradientUnits="userSpaceOnUse"><stop offset="0" stop-color="#a6694a"></stop><stop offset="1" stop-color="#4f2a1e"></stop></linearGradient><linearGradient id="1770301554927-8271355_n" x1="-598.21" x2="-598.21" y1="413.52" y2="405.98" gradientTransform="matrix(6.57 0 0 6.57 4252.88 -2297.3)" gradientUnits="userSpaceOnUse"><stop offset="0" stop-color="#a6694a"></stop><stop offset="1" stop-color="#4f2a1e"></stop></linearGradient><linearGradient id="1770301554927-8271355_u" x1="256.17" x2="256.17" y1="191.47" y2="442.89" gradientTransform="matrix(1 0 0 -1 0 570.88)" gradientUnits="userSpaceOnUse"><stop offset="0" stop-color="#473834"></stop><stop offset=".27" stop-color="#594640"></stop><stop offset=".72" stop-color="#715950"></stop><stop offset="1" stop-color="#7a6056"></stop></linearGradient></defs><path d="M324.59.72c36.54 9.8-19.8 85.36-22.67 84.59-2.92-.77-13.93-94.4 22.67-84.59m129.23 74.1c21.7 30.99-70.04 52.66-71.75 50.21-1.71-2.46 50.02-81.26 71.75-50.21M187.45.72c36.53-9.78 25.52 83.82 22.65 84.59-2.9.79-59.26-74.79-22.65-84.59M58.18 74.79c21.7-30.99 73.45 47.82 71.74 50.25-1.72 2.47-93.47-19.21-71.74-50.25" fill="#0fb4d4"></path><path d="M422.46 298.53c-68.36-32.33-264.56-32.33-332.93 0C45.2 319.48 6.8 498.18 96.88 545.86h318.24c90.07-47.68 51.68-226.38 7.33-247.33Z" fill="#2b998d"></path><path d="M63.79 459.48c-7.52 2.94 9.34-18.23 42.42-16.18 48.42-75.71 30.35-174.71-19.9-142.99C37.96 330.8-12.14 473.87 2.63 505.35c20.22 43.11 128.58 51.15 128.58 51.15s4.18-34.08 39.89-56.41c-64.6-37.38-60.26-59-107.31-40.6Z" class="ah" fill="#3ab0a2"></path><path d="M248.16 534.5c13.81-9.43-40.94-36.33-72.14-36.33-46.09 0-92.31 69.41-13.99 60.02 34.3 3.71 52.12 16.9 53.51 1.12 0 0 7.02-1.2 14.61 2.77 7.82 4.14 18.04-5.3 11.37-11.05 16.57.63 15.19-13.8 6.64-16.53" class="ac" fill="#f5bb51"></path><path d="M180.41 541.3s49.72 9.61 32.65 24.04c7.74-11.69-32.65-24.04-32.65-24.04m10.29-11.85s67.78 16.32 50.71 30.77c7.74-11.69-50.71-30.77-50.71-30.77m9.33-14.08S268.17 527.73 253 547c6.64-15.8-52.97-31.63-52.97-31.63" class="ag" fill="#f0a429"></path><path d="M448.21 459.48c7.53 2.94-9.33-18.23-42.41-16.18-48.43-75.71-30.36-174.71 19.9-142.99 48.34 30.48 98.45 173.55 83.68 205.04-20.22 43.11-128.59 51.15-128.59 51.15s-4.18-34.08-39.89-56.41c64.61-37.38 60.27-59 107.32-40.6Z" class="ah" fill="#3ab0a2"></path><path d="M263.85 534.5c-13.82-9.43 40.93-36.33 72.13-36.33 46.09 0 92.31 69.41 14 60.02-34.3 3.71-52.12 16.9-53.51 1.12 0 0-7.02-1.2-14.61 2.77-7.84 4.14-18.04-5.3-11.37-11.05-16.57.63-15.2-13.8-6.64-16.53" class="ac" fill="#f5bb51"></path><path d="M331.59 541.3s-49.72 9.61-32.64 24.04c-7.75-11.69 32.64-24.04 32.64-24.04m-10.29-11.85s-67.77 16.32-50.72 30.77c-7.74-11.69 50.72-30.77 50.72-30.77m-9.32-14.08s-68.16 12.36-52.97 31.63c-6.64-15.8 52.97-31.63 52.97-31.63" class="ag" fill="#f0a429"></path><path id="1770301554927-8271355_b" d="M80.56 330.21c21.49.66 43.08 63.84 31.41 81.89-1.65 2.51-12.22 7.18-21.81-7.2-5.3-7.95-18.94-13.86-24.62-30.68-7.31-21.54-6.32-44.68 15.02-44.02Z" class="aa" data-name="Path" fill="#ffc940"></path><path id="1770301554927-8271355_c" d="M83.39 353.25c5.69.98 12.4 7.44 16.8 18.7-19.69-1.89-12.28 24.19 4.6 23.38.12 2.68.17 5.43.04 8.34-9.04-9.02-16.91-4.5-26.48-18.25-8.62-12.38-9.02-34.63 5.04-32.17" class="ag" data-name="Path" fill="#f0a429"></path><path id="1770301554927-8271355_d" d="M431.44 330.21c-21.47.66-43.08 63.84-31.37 81.89 1.64 2.51 12.21 7.18 21.8-7.2 5.3-7.95 18.94-13.86 24.61-30.68 7.31-21.54 6.31-44.68-15.04-44.02Z" class="aa" data-name="Path" fill="#ffc940"></path><path id="1770301554927-8271355_e" d="M411.84 371.91c4.39-11.24 11.09-17.68 16.76-18.66 14.08-2.47 13.67 19.79 5.06 32.17-9.55 13.77-17.43 9.23-26.48 18.25-.14-2.91-.08-5.68.05-8.36 16.71.66 24.04-25.12 4.62-23.4Z" class="ag" data-name="Path" fill="#f0a429"></path><path d="M256.02 166.83c-112.95 0-167.37 85.45-160.55 204.26C100.4 457.27 211.33 493.72 256 493.72s155.65-36.44 160.54-122.63c6.84-118.81-47.59-204.26-160.53-204.26Z" class="aa" fill="#ffc940"></path><path id="1770301554927-8271355_f" d="M282.34 453.43c-2.79-1.95-9.34 1.05-26.33 1.05s-23.54-3-26.35-1.05c-3.32 2.36 2 12.96 26.35 12.96s29.69-10.61 26.33-12.96" class="ag" data-name="Path" fill="#f0a429"></path><path id="1770301554927-8271355_g" d="M231.66 395.3c.92 7.25-3.99 15.82-17.61 22.27-8.65 4.09-26.64 8.91-50.29-1.05-10.6-4.46-20.92-18.4-20-26.09 12.82-24.16 75.89-27.69 87.89 4.87Z" class="ad" data-name="Path" fill="#fff"></path><circle id="1770301554927-8271355_i" cx="188.86" cy="394.81" r="24.78" data-name="Oval" fill="url(#1770301554927-8271355_h)"></circle><path id="1770301554927-8271355_j" d="M176.47 394.36c0 17.14 24.78 17.14 24.78 0 0-15.91-24.78-15.91-24.78 0" class="ab" data-name="Path" fill="#1a1626"></path><path id="1770301554927-8271355_k" d="M172.72 387.43c0 7.18 10.39 7.18 10.39 0 0-6.67-10.39-6.67-10.39 0" class="af" data-name="Path" fill="#ab968c"></path><path id="1770301554927-8271355_l" d="M231.78 396.27c-10.07-32.36-78.67-27.59-88-5.84 3.46-27.84 79.43-35.19 88 5.84" class="ag" data-name="Path" fill="#f0a429"></path><path id="1770301554927-8271355_m" d="M280.37 395.3c-.94 7.25 3.99 15.82 17.61 22.27 8.63 4.09 26.62 8.91 50.29-1.05 10.59-4.46 20.91-18.4 19.99-26.09-12.8-24.16-75.9-27.69-87.88 4.87Z" class="ad" data-name="Path" fill="#fff"></path><circle id="1770301554927-8271355_o" cx="322.6" cy="394.81" r="24.78" data-name="Oval" fill="url(#1770301554927-8271355_n)"></circle><path id="1770301554927-8271355_p" d="M310.23 394.36c0 17.14 24.78 17.14 24.78 0 0-15.91-24.78-15.91-24.78 0" class="ab" data-name="Path" fill="#1a1626"></path><path id="1770301554927-8271355_q" d="M306.47 387.43c0 7.18 10.38 7.18 10.38 0 0-6.67-10.38-6.67-10.38 0" class="af" data-name="Path" fill="#ab968c"></path><path id="1770301554927-8271355_r" d="M280.24 396.27c10.06-32.34 78.61-27.69 88-5.84-3.47-27.84-79.42-35.19-88 5.84" class="ag" data-name="Path" fill="#f0a429"></path><path id="1770301554927-8271355_s" d="M369.85 356.68c-21.31-13.45-64.24-17.35-81.04-10.47-3.6 1.31-2.42 12.57.58 11.75 23.17-6.93 59.18-4.34 79.12 6.91 2.67 1.46 4.6-6.3 1.34-8.19" class="ag" data-name="Path" fill="#f0a429"></path><path id="1770301554927-8271355_t" d="M142.16 356.68c21.32-13.45 64.23-17.35 81.07-10.47 3.57 1.31 2.4 12.57-.58 11.75-23.21-6.93-59.17-4.34-79.16 6.91-2.65 1.46-4.58-6.3-1.33-8.19" class="ag" data-name="Path" fill="#f0a429"></path><path d="M256.22 127.99c-196.34 0-198.99 210.68-153.46 251.43 0 0 4.82-67.58 49.8-99.37-3.86 15.11-3.79 30.67-3.28 44.27 34.64-10.73 60.26-24.56 78.48-41.76-3.65 18.11-2.65 36.45-2.04 49.93 31.78-10.04 60.81-23.59 77.86-43.47 15.42 17.53 37.61 33.2 62.16 41.63 4.37-13.39 6.04-29.49 1.15-44.4 38.15 37.54 42.63 93.06 42.63 93.06 45.52-40.73 43.03-251.32-153.31-251.32Z" fill="url(#1770301554927-8271355_u)"></path><path d="m363.3 272.02 4.95 19.01s26.58 21.76 41.29 88.29c-3.85-72.81-46.24-107.29-46.24-107.29Z" class="y" fill="#473834"></path><path d="M354.64 256.98s29.91 31.63 11.12 73.67c1.82-30.26-11.12-73.67-11.12-73.67m-114.47 6.48c-11.43 52.76-90.87 60.86-90.87 60.86s58.3-28.1 90.87-60.86m74.84 1.71c-9.52 53.52-89.28 67.32-89.28 67.32s58.24-29.76 89.28-67.32m-156.75 9.12c-53.43 62.59-55.48 105.13-55.48 105.13s-11.57-66.62 55.48-105.13" class="y" fill="#473834"></path></g></svg>
