<svg xmlns="http://www.w3.org/2000/svg" data-name="Layer 1" style="" viewBox="0 0 512 480.01"><g><defs><linearGradient id="1770301554932-5739456_b" x1="239.22" x2="239.22" y1="179.94" y2="393.62" gradientTransform="matrix(1 0 0 -1 0 482.01)" gradientUnits="userSpaceOnUse"><stop offset="0" stop-color="#6e4900"></stop><stop offset=".21" stop-color="#825805"></stop><stop offset=".64" stop-color="#b77f11"></stop><stop offset="1" stop-color="#e8a31c"></stop></linearGradient><linearGradient id="1770301554932-5739456_n" x1="-616.32" x2="-616.32" y1="347.95" y2="341.88" gradientTransform="matrix(6.57 0 0 6.57 4235.15 -2049.78)" gradientUnits="userSpaceOnUse"><stop offset="0" stop-color="#a6694a"></stop><stop offset="1" stop-color="#4f2a1e"></stop></linearGradient><linearGradient id="1770301554932-5739456_t" x1="-602.61" x2="-602.61" y1="347.95" y2="341.88" gradientTransform="matrix(6.57 0 0 6.57 4252.88 -2049.78)" gradientUnits="userSpaceOnUse"><stop offset="0" stop-color="#a6694a"></stop><stop offset="1" stop-color="#4f2a1e"></stop></linearGradient><linearGradient id="1770301554932-5739456_y" x1="240.01" x2="240.01" y1="243.66" y2="414.71" gradientTransform="matrix(1 0 0 -1 0 482.01)" gradientUnits="userSpaceOnUse"><stop offset=".5" stop-color="#473834"></stop><stop offset=".64" stop-color="#503f3a"></stop><stop offset=".86" stop-color="#68524a"></stop><stop offset="1" stop-color="#7a6056"></stop></linearGradient><linearGradient id="1770301554932-5739456_aa" x1="240" x2="240" y1="179.93" y2="393.62" gradientTransform="matrix(1 0 0 -1 0 482.01)" gradientUnits="userSpaceOnUse"><stop offset="0" stop-color="#6e4900"></stop><stop offset=".21" stop-color="#825805"></stop><stop offset=".64" stop-color="#b77f11"></stop><stop offset="1" stop-color="#e8a31c"></stop></linearGradient><linearGradient id="1770301554932-5739456_ab" x1="467.28" x2="467.28" y1="120.33" y2="-59.67" gradientTransform="scale(1 -1) rotate(-5 -3851.52 211.035)" gradientUnits="userSpaceOnUse"><stop offset="0" stop-color="#9eabb0"></stop><stop offset=".47" stop-color="#8a999f"></stop><stop offset="1" stop-color="#6e8189"></stop></linearGradient><linearGradient id="1770301554932-5739456_ac" x1="467.29" x2="467.29" y1="120.39" y2="-49.98" gradientTransform="scale(1 -1) rotate(-5 -3851.52 211.035)" gradientUnits="userSpaceOnUse"><stop offset="0" stop-color="#9eabb0"></stop><stop offset=".47" stop-color="#8a999f"></stop><stop offset="1" stop-color="#6e8189"></stop></linearGradient><radialGradient id="1770301554932-5739456_z" cx="218.25" cy="415.94" r="106.91" fx="218.25" fy="415.94" gradientTransform="matrix(.97 0 0 -1 29.57 482.01)" gradientUnits="userSpaceOnUse"><stop offset="0" stop-color="#fabd49"></stop><stop offset=".3" stop-color="#f9bb45"></stop><stop offset=".6" stop-color="#f5b53a"></stop><stop offset=".88" stop-color="#eeaa26"></stop><stop offset="1" stop-color="#eba51c"></stop></radialGradient></defs><path d="M62.28 405.75c21.62-10.31 95.63-32.7 95.63-32.7l163.96-.28s74.83 22.61 96.31 32.95c31.24 14.98 37.81 35.44 37.81 54.77 0 26.03-432 26.03-432 0 0-19.36 6.97-39.82 38.29-54.74" fill="#e6ebef"></path><path d="M117.92 385.61v91.29c8.68.5 17.75.93 27.14 1.3V376.99a2394 2394 0 0 0-27.14 8.62m108.52-12.7v107.04c9.04.05 18.1.05 27.13 0V372.86zM23.99 460.48c0 2.64 4.51 5.01 12.51 7.12v-43.19c-9.76 11.36-12.51 23.93-12.51 36.07m39.65-55.35v67.21c8.09 1 17.2 1.9 27.14 2.72v-80.33c-11.04 3.85-20.86 7.52-27.14 10.4m108.53-32.12v106.1c8.9.23 17.95.43 27.12.57V372.96zM456 460.48c0-12.22-2.66-24.9-12.5-36.36v43.47c8-2.1 12.5-4.47 12.5-7.11m-66.76-65.98v80.55c9.93-.81 19.05-1.71 27.14-2.71v-67.46c-6.36-2.89-16.14-6.54-27.14-10.38M280.7 372.83v106.86c9.17-.14 18.23-.34 27.14-.57V372.78zm54.27 3.95v101.43c9.37-.38 18.45-.82 27.14-1.3V385.4c-10.27-3.34-19.86-6.35-27.14-8.62" class="aq" style="isolation:isolate" fill="#e81c27" opacity=".4"></path><path d="M450.79 435.18H29.36c-3.86 7.89-5.22 16.09-5.34 24.12h431.95c-.12-8.02-1.41-16.22-5.18-24.12m-32.6-29.47c-9.93-4.79-31.26-12.18-51.35-18.77H113.86c-20.05 6.57-41.5 13.99-51.58 18.8-3.58 1.7-6.8 3.49-9.76 5.32h375.41a98 98 0 0 0-9.74-5.35" class="aq" style="isolation:isolate" fill="#e81c27" opacity=".4"></path><path d="M157.92 373.04c0 61.34 163.96 61.06 163.96-.28l-14.75-4.53H173.56z" fill="#ef7e8c"></path><path d="M170.88 369.95c0 48.02 138.23 48.02 138.23 0v-53.13H170.88z" fill="#f5bb51"></path><path d="M382.03 468.92c.72-19.05 11.15-57.47 11.41-73 .07-4.14-37.58-16.14-37.97-12.57-2.07 18.58 1.66 64.17-.76 85.57zm-256.75 0c-2.43-21.41 1.31-66.99-.76-85.57-.41-3.56-38.04 8.43-37.97 12.57.26 15.53 10.69 53.95 11.41 73z" fill="#006099"></path><path d="M92.84 454.86c-3.17 3.13-5.02 13.47-5.9 19.87C127.9 478.24 183.93 480 240 480s112.1-1.76 153.06-5.26c-.88-6.41-2.74-16.77-5.9-19.89-6.7-6.6-287.6-6.58-294.31 0Z" fill="#006dae"></path><path d="M473.61 186.43c-8.64 17.41-17.84 32.26-29.18 44.78l-14.05-3.1 4.25 12.83c-34.7 30.9-88.87 60.46-195.33 60.46-162.58 0-212.47-62.5-234.33-114.97-19.78-47.45 486.18-35.3 468.64 0" fill="url(#1770301554932-5739456_b)"></path><path id="1770301554932-5739456_c" d="M371.53 187.16c-20.36 2.46-35.06 70.51-22.25 88.49 1.8 2.5 12.28 6.51 20.06-9.34 4.31-8.78 16.74-16.11 20.59-34.22 4.94-23.22 1.86-47.38-18.41-44.93Z" class="am" data-name="Path" fill="#ffc940"></path><path id="1770301554932-5739456_d" d="M108.48 187.16c20.36 2.46 35.06 70.51 22.25 88.49-1.8 2.5-12.28 6.51-20.08-9.34-4.3-8.78-16.74-16.11-20.58-34.22-4.95-23.22-1.86-47.38 18.41-44.93" class="am" data-name="Path" fill="#ffc940"></path><path id="1770301554932-5739456_e" d="M370.98 200.19c-5.31 1.67-11.11 9.77-14.25 23.18 18.56-3.98 13.92 26.89-2.22 27.47.16 3.11.36 6.3.75 9.66 7.77-11.26 15.67-6.75 23.5-23.51 7.04-15.11 5.37-40.9-7.79-36.8Z" class="aw" data-name="Path" fill="#f0a429"></path><path id="1770301554932-5739456_f" d="M123.28 223.35c-3.16-13.41-8.94-21.49-14.25-23.16-13.14-4.11-14.84 21.69-7.78 36.8 7.83 16.77 15.74 12.25 23.51 23.51.38-3.36.59-6.56.72-9.67-15.97-.74-20.54-31.25-2.2-27.48" class="aw" data-name="Path" fill="#f0a429"></path><path id="1770301554932-5739456_g" d="M240 56.28c-88.22 0-130.72 66.62-125.41 159.27 1.06 18.64 12.66 79.44 23.58 101.25 11.18 22.31 48.59 56.72 71.5 63.84 14.49 4.49 46.18 4.49 60.66 0 22.92-7.13 60.34-41.53 71.51-63.84 10.95-21.82 22.51-82.59 23.56-101.25 5.35-92.64-37.15-159.27-125.4-159.27" class="am" data-name="Path" fill="#ffc940"></path><path id="1770301554932-5739456_h" d="M335.85 180.36c-20.17-10.69-58.78-11.2-73.17-3.75-3.1 1.42-1.05 11.53 1.54 10.58 20.03-7.92 52.38-8.1 71.14.67 2.5 1.14 3.54-6.02.48-7.5Z" class="av" data-name="Path" fill="#966f42"></path><path id="1770301554932-5739456_i" d="M144.16 180.36c20.17-10.69 58.77-11.2 73.17-3.75 3.08 1.42 1.05 11.53-1.54 10.58-20.08-7.92-52.38-8.1-71.16.67-2.48 1.14-3.51-6.02-.46-7.5Z" class="av" data-name="Path" fill="#966f42"></path><path id="1770301554932-5739456_j" d="M263.81 272.87c-2.51-1.75-8.42.95-23.82.95s-21.28-2.7-23.8-.95c-3.02 2.13 1.78 11.69 23.8 11.69s26.84-9.56 23.82-11.69" class="aw" data-name="Path" fill="#f0a429"></path><path id="1770301554932-5739456_k" d="M240 309.17c-19.83-5.83-49.23 2.77-49.23 2.77 11.18 12.17 19.39 27.95 49.23 27.95 34.2 0 40.02-17.92 49.25-27.95 0 0-29.41-8.64-49.25-2.77" class="aw" data-name="Path" fill="#f0a429"></path><path id="1770301554932-5739456_l" d="M198.14 314c20.82 17.41 62.82 17.53 83.74 0-22.18.94-61.41.95-83.74 0" class="ar" data-name="Path" fill="#fff"></path><path id="1770301554932-5739456_m" d="M220.37 216.69c.75 5.84-3.22 12.75-14.18 17.94-6.97 3.3-21.49 7.17-40.53-.86-8.53-3.59-16.86-14.78-16.11-20.98 10.32-19.44 61.15-22.28 70.82 3.9" class="ar" data-name="Path" fill="#fff"></path><circle id="1770301554932-5739456_o" cx="185.88" cy="216.31" r="19.94" data-name="Oval" fill="url(#1770301554932-5739456_n)"></circle><path id="1770301554932-5739456_p" d="M175.9 215.94c0 13.8 19.97 13.8 19.97 0 0-12.79-19.97-12.79-19.97 0" class="an" data-name="Path" fill="#1a1626"></path><path id="1770301554932-5739456_q" d="M172.87 210.35c0 5.78 8.36 5.78 8.36 0 0-5.34-8.36-5.34-8.36 0" class="au" data-name="Path" fill="#ab968c"></path><path id="1770301554932-5739456_r" d="M220.47 217.46c-8.11-26-63.41-22.16-70.92-4.67 2.78-22.39 64.01-28.31 70.92 4.67" class="aw" data-name="Path" fill="#f0a429"></path><path id="1770301554932-5739456_s" d="M259.64 216.69c-.75 5.84 3.2 12.75 14.18 17.94 6.97 3.3 21.47 7.17 40.51-.86 8.56-3.59 16.87-14.78 16.13-20.98-10.32-19.44-61.17-22.28-70.82 3.9" class="ar" data-name="Path" fill="#fff"></path><circle id="1770301554932-5739456_u" cx="293.67" cy="216.31" r="19.94" data-name="Oval" fill="url(#1770301554932-5739456_t)"></circle><path id="1770301554932-5739456_v" d="M283.7 215.94c0 13.8 19.97 13.8 19.97 0 0-12.79-19.97-12.79-19.97 0" class="an" data-name="Path" fill="#1a1626"></path><path id="1770301554932-5739456_w" d="M280.65 210.35c0 5.78 8.38 5.78 8.38 0 0-5.34-8.38-5.34-8.38 0" class="au" data-name="Path" fill="#ab968c"></path><path id="1770301554932-5739456_x" d="M259.54 217.46c8.1-25.98 63.36-22.26 70.92-4.67-2.81-22.39-64.01-28.31-70.92 4.67" class="aw" data-name="Path" fill="#f0a429"></path><path d="M352.69 78.34C333.38 52.26 298.03 32 240 32s-93.34 20.26-112.66 46.34c-27.34 36.94 252.67 36.94 225.35 0" fill="#7a6056"></path><path d="M352.69 78.34c-19.31-26.08-54.66 2.2-112.69 2.2s-93.34-28.28-112.66-2.2c-27.34 36.94-18.06 160-5.89 160 1.92 0 2.2-43.05 5.89-72.83 2.98-24.23 8.75-47.75 15.39-51.59 20.25-11.74 59.3 5.05 97.26 5.05s77.03-16.78 97.3-5.05c6.62 3.84 12.38 27.36 15.39 51.59 3.67 29.78 3.95 72.83 5.87 72.83 12.18 0 21.46-123.06-5.87-160Z" fill="url(#1770301554932-5739456_y)"></path><path d="M304.09 26.33C291.34 14.87 278.93 0 241.4 0s-49.94 14.87-62.69 26.33c-23.36 20.98-69.31 31.92-69.31 105.8h264c0-73.88-45.94-84.82-69.31-105.8" fill="url(#1770301554932-5739456_z)"></path><path d="M473.61 186.43c-34.72 69.94-78.51-38.18-234.31-38.18-132.84 0-212.47 90.66-234.33 38.18-14.61-35.03 4.75-50.05 35.64-58.31l16.53 11.36 2.14-15.44c1.97-.36 3.95-.7 5.95-1.02l8.23 8.16 3.25-9.9c93.11-13.3 99.39-33.8 162.58-33.8 66.72 0 82.97 25.78 169.61 30.69l5.72 14.62 18.7-11.64c44.51 9 55.37 34.92 40.29 65.28" fill="url(#1770301554932-5739456_aa)"></path><path d="M428.34 422.51c-35.51-3.1-69.36-30.38-65.31-76.51l6.02-68.78c.62-7.19 15.54-27.83 15.54-27.83s11.14 22.91 10.5 30.1l-6.02 68.79c-2.67 30.54 18.95 46.2 41.54 48.18s46.59-9.7 49.26-40.23l6.02-68.79c.62-7.18 15.56-27.83 15.56-27.83s11.14 22.92 10.51 30.11l-6.02 68.79c-4.04 46.14-42.1 67.12-77.62 64.01Z" fill="url(#1770301554932-5739456_ab)"></path><path d="M436.72 469.17c-11.05 2.73-25.53 3.8-25.53 3.8l6.08-66.7 24.82 2.17-5.37 60.74Z" fill="#774212"></path><path d="M453.54 284.61c.62-7.19-10.51-30.11-10.51-30.11s-14.92 20.63-15.54 27.83l-12.54 143.38 26.05 2.28 12.55-143.38Z" fill="url(#1770301554932-5739456_ac)"></path></g></svg>
