<svg xmlns="http://www.w3.org/2000/svg" id="a" data-name="Layer 1" viewBox="0 0 512 530.98"><defs><linearGradient id="j" x1="256.01" x2="256.01" y1="284.43" y2="487.15" gradientTransform="matrix(1 0 0 -1 0 528.98)" gradientUnits="userSpaceOnUse"><stop offset=".5" stop-color="#473834"/><stop offset=".64" stop-color="#503f3a"/><stop offset=".86" stop-color="#68524a"/><stop offset="1" stop-color="#7a6056"/></linearGradient><style>.n{fill:#ffc940}.p{fill:#f5bb51}.s{fill:#966f42}.t{fill:#f0a429}.u{fill:#3ab0a2}</style></defs><path d="M45.38 442.97c25.62-12.22 113.34-38.76 113.34-38.76l194.31-.33s88.7 26.79 114.17 39.05c37.03 17.76 44.8 42 44.8 64.91 0 30.85-512 30.85-512 0 0-22.95 8.26-47.19 45.38-64.87" class="u"/><path d="m92.44 526.07-7.12-.63c0-47.74 7.12-47.11 7.12.63m66.28-121.86c0 72.7 194.31 72.37 194.31-.33l-17.48-5.37H177.26z" style="fill:#2b998d"/><path d="M174.08 400.54c0 56.91 163.83 56.91 163.83 0v-62.97H174.08z" class="p"/><path id="b" d="M411.89 183.88c-24.13 2.91-41.56 83.58-26.37 104.88 2.13 2.97 14.55 7.72 23.78-11.07 5.11-10.41 19.84-19.11 24.41-40.57 5.85-27.51 2.21-56.15-21.82-53.24" class="n" data-name="Path"/><path id="c" d="M100.13 183.88c24.13 2.91 41.56 83.58 26.37 104.88-2.13 2.97-14.55 7.72-23.8-11.07-5.09-10.41-19.84-19.11-24.39-40.57-5.87-27.51-2.21-56.15 21.82-53.24" class="n" data-name="Path"/><path id="d" d="M411.24 199.32c-6.3 1.98-13.17 11.58-16.89 27.48 22-4.72 16.5 31.86-2.63 32.55.19 3.69.43 7.48.89 11.46 9.21-13.37 18.57-8.02 27.86-27.89 8.34-17.9 6.36-48.47-9.23-43.61Z" class="t" data-name="Path"/><path id="e" d="M117.67 226.77c-3.75-15.89-10.59-25.47-16.89-27.45-15.58-4.87-17.59 25.7-9.23 43.61 9.28 19.86 18.65 14.52 27.87 27.89.45-3.98.7-7.79.85-11.48-18.93-.88-24.35-37.03-2.61-32.56Z" class="t" data-name="Path"/><path id="f" d="M256 28.77c-104.55 0-154.93 78.96-148.63 188.76 1.26 22.09 15 94.16 27.94 120.01 13.26 26.44 57.59 67.22 84.75 75.66 17.17 5.32 54.74 5.32 71.89 0 27.16-8.45 71.52-49.22 84.75-75.66 12.98-25.86 26.68-97.91 27.92-120.01C410.96 107.73 360.59 28.77 256 28.77" class="n" data-name="Path"/><path id="g" d="M369.61 175.82c-23.9-12.67-69.67-13.27-86.72-4.45-3.67 1.69-1.24 13.66 1.83 12.53 23.74-9.39 62.08-9.6 84.32.8 2.96 1.36 4.2-7.13.57-8.88" class="s" data-name="Path"/><path id="h" d="M142.41 175.82c23.9-12.67 69.65-13.27 86.72-4.45 3.65 1.69 1.24 13.66-1.83 12.53-23.8-9.39-62.08-9.6-84.34.8-2.94 1.36-4.16-7.13-.55-8.88" class="s" data-name="Path"/><path id="i" d="M284.23 285.48c-2.98-2.08-9.98 1.13-28.23 1.13s-25.22-3.2-28.21-1.13c-3.57 2.52 2.11 13.85 28.21 13.85s31.81-11.33 28.23-13.85" class="t" data-name="Path"/><path d="M389.56 54.93C366.67 24.01 324.78 0 256 0S145.37 24.01 122.48 54.93c-32.41 43.77 299.46 43.77 267.07 0Z" style="fill:#7a6056"/><path d="M389.56 54.93c-22.89-30.92-64.78 2.61-133.56 2.61s-110.63-33.53-133.52-2.61c-32.41 43.77-21.41 189.62-6.98 189.62 2.28 0 2.61-51.01 6.98-86.31 3.54-28.72 10.37-56.59 18.24-61.15 24-13.92 70.28 5.97 115.28 5.97s91.3-19.89 115.31-5.98c7.85 4.55 14.67 32.43 18.24 61.15 4.35 35.3 4.68 86.31 6.96 86.31 14.43 0 25.43-145.84-6.96-189.61Z" style="fill:url(#j)"/><path d="M225.8 216.75c-19.11 12.18-48.78 12.18-67.89 0-2.93-1.87-4.66.15-3.75 1.73 18.56 31.46 56.79 31.46 75.35 0 .96-1.58-.81-3.59-3.72-1.73Zm127.77 0c-19.11 12.18-48.78 12.18-67.89 0-2.93-1.87-4.65.15-3.75 1.73 18.56 31.46 56.79 31.46 75.35 0 .95-1.58-.81-3.59-3.72-1.73Z" style="fill:#45332c"/><path d="M212.25 350.62c26.67-16.28 60.89-16.28 87.53 0 3.77 2.29 4.24-.17 3.07-2.15-19.72-33.17-73.97-33.17-93.69 0-1.17 1.98-.72 4.45 3.08 2.15Z" style="fill:#c1873c"/><path d="M392.87 415.03s-125.65-123.15-40.69-255.02c-34.65 1.91-39.48 47.56-40.67 29.78-1.61-24.5-10.69-71.26-11.91-83.87-2.17-22.83-31.36-22.35-33.92.45 1.26 16.18 7.08 64.13 5.75 64.27-1.26.11-27.24-62.25-30.78-70.35-9.77-22.48-35.58-15.5-31.84 9.04 7.24 26.24 26.09 68 24.1 68.73-1.7.61-32.77-44.88-37.14-52.42-11.32-19.54-39.95-2.29-26.52 18.22.5.78 36.6 54.29 34.77 54.96-1.53.56-27.43-25.92-27.43-25.92-12.97-11.27-31.56 1.96-21.12 16.89 23.28 33.31 31.1 29.68 43.51 69.9 6.1 19.8 20.46 45.15 36.74 51.13.64 3.42.95 6.22 2.08 9.93-2.06 2.37-2.35 7.93-1.87 9.91 27.65 105.39 78.7 199.79 78.7 199.79 85.13-1.55 150.25-8.51 150.25-8.51s-51.34-82.05-72.01-106.89Z" style="isolation:isolate;opacity:.3"/><path d="M241.24 323.81c-4.06-16.26 90.18-50.32 94.7-30.35 15.38 67.61 123.15 229.13 123.15 229.13-57.36 7.46-134.79 7.46-134.79 7.46s-53.81-89.24-83.07-206.24Z" class="u"/><path d="M329.26 291.85c4.31 11.83-79.51 42.33-83.8 30.5-28.36-77.84 56.45-105.62 83.8-30.5" class="p"/><path d="M344.65 161.67c-28.22 10.96-20.39 40.08-31.13 36.3-2.2-.78-5.35-7.41-5.59-10.82-1.57-24.48-6.53-68.96-7.76-81.58-2.17-22.81-33.44-20.34-31.26 2.5.11 1.13 10.63 84.09 9.28 84.24-1.26.11-33.77-86.5-37.31-94.62-9.76-22.48-38.74-9.09-28.46 13.15.41.91 37.25 91.84 35.26 92.56-1.71.61-45.63-70.55-50.23-77.97-12.94-20.83-39.7-3.37-26.27 17.13.52.78 48.36 71.07 46.51 71.74-1.53.56-39.46-40.67-39.46-40.67-12.88-15.76-33.15.52-20.25 16.3 27.38 33.5 36.43 36.48 48.83 76.71 10.8 35 39.8 52.3 79.06 38.08 85.81-31.09 39.07-83.93 78.06-133.38 4.89-6.13-5.21-15.12-19.27-9.68Z" class="p"/></svg>