<svg xmlns="http://www.w3.org/2000/svg" id="a" data-name="Layer 1" viewBox="0 0 512 477.85"><defs><linearGradient id="m" x1="-614.43" x2="-614.43" y1="342.54" y2="336.07" gradientTransform="translate(4235.16 -2032.63)scale(6.57)" gradientUnits="userSpaceOnUse"><stop offset="0" stop-color="#c20606"/><stop offset="1" stop-color="#5e0000"/></linearGradient><linearGradient id="s" x1="-599.63" x2="-599.63" y1="342.54" y2="336.07" gradientTransform="translate(4252.89 -2032.63)scale(6.57)" gradientUnits="userSpaceOnUse"><stop offset="0" stop-color="#c20606"/><stop offset="1" stop-color="#5e0000"/></linearGradient><linearGradient id="x" x1="256.01" x2="256.01" y1="255.76" y2="436.48" gradientTransform="matrix(1 0 0 -1 0 475.85)" gradientUnits="userSpaceOnUse"><stop offset=".5" stop-color="#1a1626"/><stop offset=".76" stop-color="#231f2f"/><stop offset="1" stop-color="#302c3b"/></linearGradient><linearGradient id="aa" x1="236.73" x2="236.73" y1="45.7" y2="85.4" gradientTransform="matrix(1.14 -.0002 .00022 -1 -13.04 475.66)" gradientUnits="userSpaceOnUse"><stop offset=".1" stop-color="#b51c27"/><stop offset=".55" stop-color="#e81c27"/></linearGradient><radialGradient id="y" cx="64.34" cy="2260.69" r="249.22" fx="-135.07" fy="2351.12" gradientTransform="rotate(-179.99 89.621 -329.013)scale(.96 -.5)" gradientUnits="userSpaceOnUse"><stop offset=".26" stop-color="#e81c27"/><stop offset=".36" stop-color="#b51c27"/><stop offset=".5" stop-color="#e81c27"/></radialGradient><radialGradient id="z" cx="388.37" cy="2260.76" r="249.2" fx="188.98" fy="2351.17" gradientTransform="matrix(.96 -.00034 -.00016 .5 21.18 -657.98)" gradientUnits="userSpaceOnUse"><stop offset=".26" stop-color="#e81c27"/><stop offset=".36" stop-color="#b51c27"/><stop offset=".5" stop-color="#e81c27"/></radialGradient><style>.ah{fill:#ffc940}.ai{fill:#1a1626}.ak{fill:#fff}.am{fill:#ab968c}.an{fill:#f0a429}.ao{fill:#302c3b}</style></defs><path d="M66.44 398.65c23.06-11 115.13-38.78 115.13-38.78l148.67-.31s92.93 28.01 115.84 39.05c33.32 15.98 40.32 37.8 40.32 58.42 0 10.35-64.16 16.85-144.59 19.48-47.39-22.36-123.47-21.83-171.81 0-80.35-2.64-144.4-9.13-144.4-19.47 0-20.65 7.43-42.47 40.84-58.39" class="ai"/><path d="M512 162.12c-68.9 76.13-177.35 76.6-256 76.54-78.65.05-187.08-.42-256-76.54 0 140.04 164.51 179.24 106.55 264.23-18.31 26.85 317.24 26.85 298.91 0C347.5 341.37 512 302.16 512 162.12" class="ai"/><path d="M256 238.67c-78.65.05-170.53-4.39-238.93-59.88 0 83 224.25 179.77 166.28 264.74-18.31 26.86 163.62 26.86 145.3 0-57.97-84.97 166.3-181.75 166.3-264.74-68.39 55.48-160.29 59.93-238.94 59.88Z" style="fill:#e81c27"/><path d="M179.2 375s24.65 24.17 76.8 24.17S332.8 375 332.8 375v-68.57H179.2z" style="fill:#f5bb51"/><path id="b" d="M396.3 165.5c-21.72 2.62-37.4 75.2-23.73 94.38 1.92 2.67 13.1 6.95 21.4-9.97 4.6-9.37 17.85-17.18 21.96-36.49 5.27-24.76 1.99-50.54-19.64-47.92Z" class="ah" data-name="Path"/><path id="c" d="M115.72 165.5c21.72 2.62 37.4 75.2 23.73 94.38-1.92 2.67-13.1 6.95-21.42-9.97-4.58-9.37-17.85-17.18-21.95-36.49-5.28-24.76-1.99-50.54 19.64-47.92" class="ah" data-name="Path"/><path id="d" d="M395.72 179.39c-5.67 1.78-11.85 10.42-15.2 24.73 19.8-4.25 14.85 28.68-2.36 29.3.17 3.32.38 6.71.8 10.29 8.29-12.01 16.72-7.19 25.07-25.07 7.51-16.12 5.73-43.63-8.31-39.25" class="an" data-name="Path"/><path id="e" d="M131.5 204.09c-3.37-14.3-9.53-22.92-15.2-24.7-14.02-4.39-15.83 23.13-8.3 39.25 8.35 17.89 16.79 13.06 25.08 25.07.4-3.58.63-6.99.77-10.31-17.03-.79-21.91-33.33-2.35-29.31" class="an" data-name="Path"/><path id="f" d="M256 25.89c-94.1 0-139.43 71.07-133.77 169.88 1.13 19.88 13.5 84.73 25.15 107.99 11.93 23.8 51.83 60.5 76.27 68.1 15.45 4.79 49.26 4.79 64.7 0 24.45-7.6 64.37-44.3 76.28-68.1 11.68-23.27 24.01-88.09 25.13-107.99C395.47 96.95 350.13 25.89 256 25.89" class="ah" data-name="Path"/><path id="g" d="M358.25 158.24c-21.51-11.4-62.7-11.95-78.05-4-3.3 1.52-1.12 12.3 1.65 11.28 21.37-8.45 55.87-8.64 75.89.72 2.66 1.22 3.78-6.42.51-8" class="ai" data-name="Path"/><path id="h" d="M153.77 158.24c21.51-11.4 62.69-11.95 78.05-4 3.29 1.52 1.12 12.3-1.65 11.28-21.42-8.45-55.87-8.64-75.9.72-2.65 1.22-3.75-6.42-.49-8Z" class="ai" data-name="Path"/><path id="i" d="M281.4 256.91c-2.68-1.87-8.99 1.02-25.4 1.02s-22.7-2.88-25.39-1.02c-3.22 2.27 1.9 12.47 25.39 12.47s28.63-10.2 25.4-12.47" class="an" data-name="Path"/><path id="j" d="M256 295.64c-21.15-6.22-52.51 2.95-52.51 2.95 11.93 12.98 20.68 29.82 52.51 29.82 36.48 0 42.68-19.11 52.53-29.82 0 0-31.37-9.22-52.53-2.95" class="ai" data-name="Path"/><path id="k" d="M211.35 300.78c22.2 18.57 67 18.7 89.32 0-23.65 1-65.5 1.02-89.32 0" class="ak" data-name="Path"/><path id="l" d="M235.07 196.99c.8 6.23-3.43 13.6-15.13 19.13-7.43 3.52-22.92 7.65-43.23-.91-9.1-3.83-17.98-15.77-17.19-22.38 11.01-20.74 65.23-23.77 75.55 4.16" class="ak" data-name="Path"/><circle id="n" cx="198.28" cy="196.59" r="21.27" data-name="Oval" style="fill:url(#m)"/><path id="o" d="M187.63 196.19c0 14.72 21.3 14.72 21.3 0 0-13.64-21.3-13.64-21.3 0" class="ai" data-name="Path"/><path id="p" d="M184.4 190.23c0 6.17 8.92 6.17 8.92 0 0-5.7-8.92-5.7-8.92 0" class="am" data-name="Path"/><path id="q" d="M235.17 197.81c-8.65-27.73-67.64-23.64-75.65-4.98 2.96-23.88 68.28-30.2 75.65 4.98" class="ai" data-name="Path"/><path id="r" d="M276.95 196.99c-.8 6.23 3.41 13.6 15.13 19.13 7.43 3.52 22.9 7.65 43.21-.91 9.13-3.83 18-15.77 17.2-22.38-11.01-20.74-65.25-23.77-75.55 4.16Z" class="ak" data-name="Path"/><circle id="t" cx="313.25" cy="196.59" r="21.27" data-name="Oval" style="fill:url(#s)"/><path id="u" d="M302.62 196.19c0 14.72 21.3 14.72 21.3 0 0-13.64-21.3-13.64-21.3 0" class="ai" data-name="Path"/><path id="v" d="M299.37 190.23c0 6.17 8.93 6.17 8.93 0 0-5.7-8.93-5.7-8.93 0" class="am" data-name="Path"/><path id="w" d="M276.85 197.81c8.64-27.72 67.58-23.75 75.65-4.98-3-23.88-68.28-30.2-75.65 4.98" class="ai" data-name="Path"/><path d="M376.2 49.43C355.6 21.61 317.9 0 256 0s-99.57 21.61-120.17 49.43c-29.17 39.39 269.52 39.39 240.37 0" class="ao"/><path d="M376.2 49.43C355.6 21.6 256 60.31 256 60.31S156.43 21.6 135.83 49.43c-29.17 39.39-19.27 170.66-6.28 170.66 2.05 0 2.35-45.92 6.28-77.69 3.18-25.85 9.34-50.94 16.42-55.03C173.85 74.85 256 101.29 256 101.29s82.17-26.44 103.78-13.92c7.07 4.1 13.2 29.18 16.42 55.03 3.92 31.77 4.22 77.69 6.26 77.69 12.99 0 22.89-131.27-6.26-170.66" style="fill:url(#x)"/><path d="m181.56 412.54 26.24 65.31h96.39l26.24-65.31z" style="fill:#e6ebef"/><path d="M341.81 476.52s19.69-22.19 35.41-76.89l-60.78 7.83s9.4 11.82-12.25 70.38l37.62-1.33ZM170 476.51s-19.51-22.18-35.23-76.88l60.77 7.83s-9.41 11.82 12.26 70.38L170 476.5Z" class="ao"/><path d="M250.12 410.15c-11.98 33.85-73.77 43.03-77.41 38.05-7.42-10.16-14.28-51.2-.14-73.86 2.18-3.5 68.39-2.7 77.55 35.81" style="fill:url(#y)"/><path d="M261.61 410.15c11.98 33.85 73.78 43.02 77.42 38.02 7.42-10.16 14.29-51.18.15-73.85-2.18-3.5-68.4-2.68-77.58 35.83Z" style="fill:url(#z)"/><path d="M255.91 428.89c-16.56.02-20.66 7.62-20.71-18.8-.03-26.44 4.09-18.82 20.67-18.85 16.56 0 20.66-7.65 20.7 18.8.03 26.41-4.07 18.83-20.66 18.85" style="fill:url(#aa)"/><path d="m215.88 301.05 7.44 28.92 7.92-27.97zm80.24 0-7.44 28.92-7.92-27.97z" class="ak"/></svg>