<svg xmlns="http://www.w3.org/2000/svg" id="a" data-name="Layer 1" viewBox="0 0 512 529.06"><defs><linearGradient id="m" x1="-610.54" x2="-610.54" y1="374.58" y2="368.11" gradientTransform="translate(4235.16 -2191.96)scale(6.57)" gradientUnits="userSpaceOnUse"><stop offset="0" stop-color="#a6694a"/><stop offset="1" stop-color="#4f2a1e"/></linearGradient><linearGradient id="s" x1="-595.74" x2="-595.74" y1="374.58" y2="368.11" gradientTransform="translate(4252.89 -2191.96)scale(6.57)" gradientUnits="userSpaceOnUse"><stop offset="0" stop-color="#a6694a"/><stop offset="1" stop-color="#4f2a1e"/></linearGradient><linearGradient id="x" x1="281.6" x2="281.6" y1="261.79" y2="444.23" gradientTransform="matrix(1 0 0 -1 0 533.06)" gradientUnits="userSpaceOnUse"><stop offset=".5" stop-color="#473834"/><stop offset=".64" stop-color="#503f3a"/><stop offset=".86" stop-color="#68524a"/><stop offset="1" stop-color="#7a6056"/></linearGradient><style>.ab{fill:#ffc940}.ac{fill:#1a1626}.ae{fill:#f5bb51}.af{fill:#fff}.ah{fill:#ab968c}.ai{fill:#966f42}.aj{fill:#f0a429}.ak{fill:#3ab0a2}</style></defs><path d="M471.68 449.82c-22.92-11.03-100.49-36.22-100.49-36.22l-179.2.26-47.91 110.28c130.81 10.02 367.91 4.71 367.91-15.91s-7-42.44-40.32-58.41Z" class="ak"/><path d="m435.18 524.08-6.38.56c0-42.97 6.38-43.53 6.38-.56M191.99 413.87c0 69.32 179.2 69.05 179.2-.26l-18-5.86H210.72l-18.73 6.13Z" style="fill:#2b998d"/><path d="M204.79 409.68c0 54.25 153.6 54.25 153.6 0v-60.03h-153.6z" class="ae"/><path id="b" d="M421.89 216.68c-21.72 2.62-37.4 75.22-23.73 94.39 1.92 2.67 13.1 6.95 21.4-9.97 4.6-9.37 17.85-17.19 21.96-36.51 5.27-24.75 1.99-50.53-19.64-47.91Z" class="ab" data-name="Path"/><path id="c" d="M141.31 216.68c21.72 2.62 37.4 75.22 23.73 94.39-1.92 2.67-13.1 6.95-21.42-9.97-4.58-9.37-17.85-17.19-21.95-36.51-5.28-24.75-1.99-50.53 19.64-47.91" class="ab" data-name="Path"/><path id="d" d="M421.31 230.58c-5.67 1.78-11.85 10.42-15.2 24.73 19.8-4.25 14.85 28.69-2.36 29.3.17 3.32.38 6.72.8 10.3 8.29-12.01 16.72-7.2 25.07-25.09 7.51-16.11 5.73-43.63-8.31-39.24" class="aj" data-name="Path"/><path id="e" d="M157.09 255.28c-3.37-14.3-9.53-22.92-15.2-24.7-14.02-4.39-15.83 23.13-8.3 39.25 8.35 17.89 16.79 13.07 25.08 25.09.4-3.58.63-7 .77-10.32-17.03-.8-21.91-33.34-2.35-29.32" class="aj" data-name="Path"/><path id="f" d="M281.59 77.08c-94.1 0-139.43 71.07-133.77 169.88 1.13 19.88 13.5 84.74 25.15 108.01 11.93 23.8 51.83 60.5 76.27 68.1 15.45 4.79 49.26 4.79 64.7 0 24.45-7.6 64.37-44.3 76.28-68.1 11.68-23.27 24.01-88.11 25.13-108.01 5.71-98.82-39.63-169.88-133.76-169.88" class="ab" data-name="Path"/><path id="g" d="M383.84 209.42c-21.51-11.4-62.7-11.95-78.05-4-3.3 1.52-1.12 12.3 1.65 11.28 21.37-8.45 55.87-8.64 75.89.72 2.66 1.23 3.78-6.41.51-8" class="ai" data-name="Path"/><path id="h" d="M179.36 209.42c21.51-11.4 62.69-11.95 78.05-4 3.29 1.52 1.12 12.3-1.65 11.28-21.42-8.45-55.87-8.64-75.9.72-2.65 1.23-3.75-6.41-.49-8Z" class="ai" data-name="Path"/><path id="i" d="M307 308.11c-2.68-1.87-8.99 1.02-25.4 1.02s-22.7-2.88-25.39-1.02c-3.22 2.27 1.9 12.47 25.39 12.47s28.63-10.2 25.4-12.47" class="aj" data-name="Path"/><path id="j" d="M281.59 346.84c-21.15-6.22-52.51 2.95-52.51 2.95 11.93 12.98 20.68 29.82 52.51 29.82 36.48 0 42.68-19.11 52.53-29.82 0 0-31.37-9.22-52.53-2.95" class="aj" data-name="Path"/><path id="k" d="M236.95 351.98c22.2 18.57 67 18.7 89.32 0-23.65 1-65.5 1.02-89.32 0" class="af" data-name="Path"/><path id="l" d="M260.66 248.17c.8 6.23-3.43 13.6-15.13 19.13-7.43 3.52-22.92 7.65-43.23-.91-9.1-3.83-17.98-15.77-17.19-22.38 11.01-20.73 65.23-23.77 75.55 4.16" class="af" data-name="Path"/><circle id="n" cx="223.87" cy="247.78" r="21.27" data-name="Oval" style="fill:url(#m)"/><path id="o" d="M213.22 247.38c0 14.72 21.3 14.72 21.3 0 0-13.65-21.3-13.65-21.3 0" class="ac" data-name="Path"/><path id="p" d="M209.99 241.42c0 6.17 8.92 6.17 8.92 0 0-5.7-8.92-5.7-8.92 0" class="ah" data-name="Path"/><path id="q" d="M260.76 248.99c-8.65-27.73-67.64-23.64-75.65-4.98 2.96-23.88 68.28-30.2 75.65 4.98" class="aj" data-name="Path"/><path id="r" d="M302.54 248.17c-.8 6.23 3.41 13.6 15.13 19.13 7.43 3.52 22.9 7.65 43.21-.91 9.13-3.83 18-15.77 17.2-22.38-11.01-20.73-65.25-23.77-75.55 4.16Z" class="af" data-name="Path"/><circle id="t" cx="338.84" cy="247.78" r="21.27" data-name="Oval" style="fill:url(#s)"/><path id="u" d="M328.21 247.38c0 14.72 21.3 14.72 21.3 0 0-13.65-21.3-13.65-21.3 0" class="ac" data-name="Path"/><path id="v" d="M324.96 241.42c0 6.17 8.93 6.17 8.93 0 0-5.7-8.93-5.7-8.93 0" class="ah" data-name="Path"/><path id="w" d="M302.44 248.99c8.64-27.72 67.58-23.75 75.65-4.98-3-23.88-68.28-30.2-75.65 4.98" class="aj" data-name="Path"/><path d="M401.79 100.62c-20.6-27.82-58.3-49.42-120.2-49.42s-99.57 21.61-120.17 49.43c-29.17 39.39 269.52 39.39 240.37 0Z" style="fill:#7a6056"/><path d="M401.79 100.62c-20.6-27.83-58.3 2.35-120.2 2.35s-99.57-30.17-120.17-2.35c-29.17 39.39-19.27 170.66-6.28 170.66 2.05 0 2.35-45.92 6.28-77.69 3.18-25.85 9.34-50.94 16.42-55.03 21.6-12.52 63.25 5.38 103.75 5.38s82.17-17.9 103.78-5.38c7.07 4.1 13.2 29.18 16.42 55.03 3.92 31.77 4.22 77.69 6.26 77.69 12.99 0 22.89-131.26-6.26-170.66" style="fill:url(#x)"/><path d="M152.39 382.27c-13.83-6.3-34.78-61.27-38.12-74.79-1.9-7.65-11.73-58.11-4.81-112.92 2.07-16.18-76.12-16.08-79.16-3.07-13.6 57.69-8.69 138.91-4.11 164.07 2.44 13.56 37.87 86.59 58.23 124.7 13.68 25.59 39.53 42.34 59.67 43.9 0 0 50.2-29.35 47.91-110.28 0 0-19.72-22.56-39.6-31.6Z" class="ak"/><path d="M104.89 191.54c0 10.04-71.05 10.04-71.05 0 0-66.01 71.05-63.68 71.05 0" class="ae"/><path d="M157.49 95.28c-25.6.55-27.8 25.95-35.23 19.84-1.55-1.25-2.12-7.44-1.31-10.21 5.84-19.92 14.75-56.71 17.42-67.06 4.86-18.77-20.7-25.84-25.55-7.07-.25.92-15.86 69.92-16.98 69.65-1.03-.26-1.8-78.5-2.29-85.98C92.3-6.24 65.38-4 67.11 16.67c.07.84 3.03 83.76 1.25 83.76-1.54 0-15.85-69.28-17.38-76.53-4.27-20.28-30.55-14.14-25.83 6.03.2.78 17.89 70.49 16.23 70.49-1.38 0-19.62-43.76-19.62-43.76C16.1 40.42-4.7 47.49.98 63.74c12.07 34.55 18.4 39.55 16.61 75.11-1.57 30.96 16.52 53.08 51.83 53.13 77.18.12 55.31-55.4 100.63-83.4 5.62-3.48.22-13.56-12.56-13.3" class="ae"/></svg>