<svg xmlns="http://www.w3.org/2000/svg" id="a" data-name="Layer 1" viewBox="0 0 512 511.95"><defs><linearGradient id="m" x1="-618.33" x2="-618.33" y1="363.89" y2="357.41" gradientTransform="translate(4235.17 -2138.74)scale(6.57)" gradientUnits="userSpaceOnUse"><stop offset="0" stop-color="#a6694a"/><stop offset="1" stop-color="#4f2a1e"/></linearGradient><linearGradient id="s" x1="-603.53" x2="-603.53" y1="363.89" y2="357.41" gradientTransform="translate(4252.9 -2138.74)scale(6.57)" gradientUnits="userSpaceOnUse"><stop offset="0" stop-color="#a6694a"/><stop offset="1" stop-color="#4f2a1e"/></linearGradient><linearGradient id="x" x1="77.64" x2="252.79" y1="372.46" y2="372.46" gradientTransform="matrix(1 0 0 -1 0 513.95)" gradientUnits="userSpaceOnUse"><stop offset="0" stop-color="#00d6b3"/><stop offset=".28" stop-color="#1bc4ab"/><stop offset=".56" stop-color="#32b5a4"/><stop offset=".74" stop-color="#3ab0a2"/></linearGradient><linearGradient id="y" x1="102.64" x2="360.41" y1="410.86" y2="410.86" gradientTransform="matrix(1 0 0 -1 0 513.95)" gradientUnits="userSpaceOnUse"><stop offset="0" stop-color="#00d6b3"/><stop offset=".26" stop-color="#16c8ad"/><stop offset=".62" stop-color="#30b6a5"/><stop offset=".84" stop-color="#3ab0a2"/></linearGradient><linearGradient id="z" x1="-603.63" x2="-373.27" y1="-1262.33" y2="-1262.33" gradientTransform="rotate(135 103.974 -18.604)scale(-.37 .37)" gradientUnits="userSpaceOnUse"><stop offset="0" stop-color="#a0a8ab"/><stop offset=".02" stop-color="#a2aaad"/><stop offset=".43" stop-color="#c2cacd"/><stop offset=".77" stop-color="#d6dde1"/><stop offset="1" stop-color="#dde4e8"/></linearGradient><linearGradient id="aa" x1="-202.46" x2="-138.73" y1="-79.51" y2="-79.51" gradientTransform="rotate(135 202.404 232.447)scale(-1 1)" gradientUnits="userSpaceOnUse"><stop offset="0" stop-color="#282930"/><stop offset=".65" stop-color="#494855"/><stop offset="1" stop-color="#565463"/></linearGradient><style>.ah{fill:#9ea7ad}.ai{fill:#ffc940}.aj{fill:#1a1626}.ak{fill:#f5bb51}.am{fill:#302c3b}.an{fill:#fff}.ao{fill:#ab968c}.ap{fill:#966f42}.aq{fill:#4e5e67}.ar{fill:#f0a429}.as{fill:#3ab0a2}</style></defs><path d="M40.84 432.75c23.05-10.99 112.75-40.17 112.75-40.17l153.58-.25s90.36 29.36 113.27 40.39c33.32 15.97 40.32 37.79 40.32 58.4 0 27.76-460.75 27.76-460.75 0 0-20.65 7.43-42.47 40.84-58.38Z" class="am"/><path d="M153.58 409.11c0 28.43 76.79 92.47 76.79 92.47s76.79-64.04 76.79-92.47v-68.56H153.58z" class="ak"/><path d="M303.3 348.94c24.08 51.93-10.35 77.28-72.91 152.64v10.37s87.06-109.28 203.88-91.67c-77.56-82.72-130.97-71.33-130.97-71.33Zm-145.83 0s-53.41-11.4-130.97 71.32c116.83-17.59 203.88 91.68 203.88 91.68v-10.37c-62.56-75.36-96.99-100.71-72.91-152.64Z" class="aq"/><path d="M309.28 350.83c-2.12 77.41-43.38 91.01-78.89 150.75 0 0 79.66-100.71 187.13-88.77-58.9-59.97-108.24-61.98-108.24-61.98M43.24 412.81c107.47-11.94 187.13 88.77 187.13 88.77-35.51-59.74-76.79-73.35-78.89-150.75 0 0-49.34 2.01-108.24 61.98" class="as"/><path id="b" d="M370.66 199.62c-21.72 2.62-37.4 75.21-23.73 94.38 1.92 2.67 13.1 6.95 21.4-9.97 4.6-9.37 17.85-17.18 21.96-36.49 5.26-24.76 1.99-50.54-19.63-47.92" class="ai" data-name="Path"/><path id="c" d="M90.11 199.62c21.72 2.62 37.4 75.21 23.73 94.38-1.92 2.67-13.1 6.95-21.42-9.97-4.58-9.37-17.85-17.18-21.95-36.49-5.28-24.76-1.99-50.54 19.63-47.92Z" class="ai" data-name="Path"/><path id="d" d="M370.08 213.51c-5.67 1.78-11.85 10.42-15.2 24.73 19.8-4.25 14.85 28.68-2.36 29.3.17 3.32.38 6.72.8 10.3 8.29-12.01 16.72-7.2 25.07-25.08 7.51-16.12 5.73-43.63-8.31-39.25" class="ar" data-name="Path"/><path id="e" d="M105.89 238.21c-3.37-14.3-9.53-22.92-15.2-24.7-14.02-4.39-15.83 23.13-8.3 39.25 8.35 17.88 16.78 13.06 25.08 25.08.4-3.58.63-7 .77-10.32-17.03-.79-21.91-33.33-2.35-29.31" class="ar" data-name="Path"/><path id="f" d="M230.38 60.03c-94.09 0-139.42 71.06-133.75 169.86 1.13 19.88 13.5 84.73 25.15 107.99 11.93 23.8 51.83 60.5 76.26 68.09 15.45 4.79 49.26 4.79 64.69 0 24.45-7.6 64.36-44.29 76.27-68.09 11.68-23.27 24.01-88.09 25.13-107.99 5.71-98.81-39.62-169.86-133.75-169.86" class="ai" data-name="Path"/><path id="g" d="M332.61 192.36c-21.51-11.4-62.7-11.95-78.04-4-3.3 1.52-1.12 12.3 1.65 11.28 21.37-8.45 55.86-8.63 75.88.72 2.66 1.22 3.78-6.42.51-7.99Z" class="ap" data-name="Path"/><path id="h" d="M128.16 192.36c21.51-11.4 62.68-11.95 78.04-4 3.29 1.52 1.12 12.3-1.65 11.28-21.42-8.45-55.86-8.63-75.9.72-2.65 1.22-3.75-6.42-.49-7.99Z" class="ap" data-name="Path"/><path id="i" d="M255.78 291.03c-2.68-1.87-8.98 1.02-25.4 1.02s-22.7-2.88-25.38-1.02c-3.22 2.27 1.9 12.47 25.38 12.47s28.63-10.2 25.4-12.47" class="ar" data-name="Path"/><path id="j" d="M230.38 329.75c-21.15-6.22-52.51 2.95-52.51 2.95 11.93 12.98 20.68 29.81 52.51 29.81 36.48 0 42.68-19.11 52.53-29.81 0 0-31.37-9.22-52.53-2.95" class="ar" data-name="Path"/><path id="k" d="M185.73 334.9c22.2 18.57 67 18.69 89.31 0-23.65 1-65.5 1.02-89.31 0" class="an" data-name="Path"/><path id="l" d="M209.45 231.11c.8 6.23-3.43 13.6-15.13 19.13-7.43 3.52-22.92 7.65-43.23-.91-9.1-3.83-17.98-15.77-17.18-22.38 11.01-20.73 65.22-23.76 75.54 4.16" class="an" data-name="Path"/><circle id="n" cx="172.66" cy="230.71" r="21.26" data-name="Oval" style="fill:url(#m)"/><path id="o" d="M162.01 230.31c0 14.72 21.3 14.72 21.3 0 0-13.64-21.3-13.64-21.3 0" class="aj" data-name="Path"/><path id="p" d="M158.78 224.34c0 6.17 8.92 6.17 8.92 0 0-5.7-8.92-5.7-8.92 0" class="ao" data-name="Path"/><path id="q" d="M209.55 231.93c-8.65-27.73-67.63-23.63-75.64-4.98 2.96-23.88 68.27-30.2 75.64 4.98" class="ar" data-name="Path"/><path id="r" d="M251.32 231.11c-.8 6.23 3.41 13.6 15.13 19.13 7.43 3.52 22.9 7.65 43.21-.91 9.13-3.83 17.99-15.77 17.2-22.38-11.01-20.73-65.24-23.76-75.54 4.16" class="an" data-name="Path"/><circle id="t" cx="287.62" cy="230.71" r="21.26" data-name="Oval" style="fill:url(#s)"/><path id="u" d="M276.99 230.31c0 14.72 21.3 14.72 21.3 0 0-13.64-21.3-13.64-21.3 0" class="aj" data-name="Path"/><path id="v" d="M273.74 224.34c0 6.17 8.93 6.17 8.93 0 0-5.7-8.93-5.7-8.93 0" class="ao" data-name="Path"/><path id="w" d="M251.22 231.93c8.63-27.71 67.58-23.75 75.64-4.98-2.99-23.88-68.27-30.2-75.64 4.98" class="ar" data-name="Path"/><path d="M350.56 83.56c-20.6-27.82-58.29-48.85-120.19-48.85s-99.56 21.03-120.15 48.85c-29.16 39.39-19.27 170.65-6.28 170.65 2.05 0 2.35-45.91 6.28-77.68 3.18-25.84 9.33-50.93 16.42-55.03 21.6-12.52 63.24-3.15 103.74-3.15s82.16-9.37 103.77 3.15c7.06 4.1 13.2 29.18 16.42 55.03 3.92 31.77 4.22 77.68 6.26 77.68 12.99 0 22.88-131.25-6.26-170.65Z" class="as"/><path d="M133.9 286.92c-35.55-56.53-58.03-154.55 139.84-170.77C122.06-28.29-13.98 170.23 133.9 286.92" class="as"/><path d="M151.35 257.86C69.21 122.41 181.7 48.71 252.79 48.01 120.62-43.71-7.59 163.65 151.35 257.86" style="fill:url(#x)"/><path d="M228.05 188.98c-63.03 15.28-103.81-63.63-56.35-98.12 92.91-67.54 195.79 38.85 188.33 12.24C341.82 38.24 293.77 0 233.44 0c-210.17 0-133.13 276.76-5.39 188.98" style="fill:url(#y)"/><path d="M472.95 494.18c-25.6 9.04-75.08 11.78-75.08 11.78s16.95-45.84 30.03-45.33c67.42 2.54 46.83 20.87 45.04 33.55Z" class="am"/><path d="M385.88 426.93c-7.17-5.49 9.9-21.95 20.15-8.99 4.13 5.24 74.14 63.76 74.14 63.76s-31.25-2.61-45.36-18.67c-24.86-28.26-37.21-27.09-48.93-36.1" class="ak"/><circle cx="366.09" cy="351.15" r="42.47" style="fill:url(#z)"/><path d="M394.75 317.37a564.6 564.6 0 0 1-62.44 62.44c.78.91 4.23 4.37 5.16 5.15a563.6 563.6 0 0 0 62.42-62.44c-.77-.92-4.22-4.39-5.15-5.15Z" class="ah"/><path d="M396.76 319.39a563 563 0 0 1-62.44 62.44c.12.25.85 1 1.12 1.12a563 563 0 0 0 62.44-62.44c-.1-.27-.85-1.02-1.12-1.12" class="aq"/><path d="M408.49 348.48a404.5 404.5 0 0 1-45.06 45.06c4.09 2.08 8.17 4.13 12.25 6.2l.02-.02 116.79 94.45h8.4l8.25-8.25-.02-8.38-94.45-116.79.03-.03c-2.08-4.08-4.15-8.15-6.21-12.24" style="fill:url(#aa)"/><path d="M428.44 377.79a323 323 0 0 1-35.7 35.72c.82.67 1.65 1.33 2.47 2a321 321 0 0 0 35.25-35.23c-.67-.83-1.33-1.66-2.01-2.48Z" class="aj"/><path d="m492.49 494.126 16.629-16.646 2.872 2.869-16.63 16.647z" class="ah"/><path d="M363.58 385.64c2.95 1.92-1.48 6.55-4.55 4.02-3.17-2.59 1.45-6.1 4.55-4.02m8.95-8.27c2.97 1.98-2.18 7.38-5.6 5.21-3.69-2.45 2.3-7.59 5.6-5.21m8.56-8.32c2.36 2.3-2.75 7.52-5.63 5.5-3.22-2.42 2.85-8.2 5.63-5.5m8.4-8.52c2.01 2.87-3.2 8-5.5 5.61-2.7-2.76 3.07-8.85 5.5-5.61m8.04-8.55c2.17 3.43-3.23 8.57-5.23 5.61-2.37-3.3 2.78-9.28 5.23-5.61m7.08-7.9c2.53 3.08-2.1 7.5-4.04 4.55-2.08-3.1 1.45-7.7 4.04-4.55m-53.68 37.87c3.23 2.87-1.12 5.95-4.05 2.78-3.1-2.95.65-5.55 4.05-2.78m48.75-50.02c3.18 2.95.09 7.29-2.8 4.05-2.76-3.4-.17-7.15 2.8-4.05m-39.85 42.88c3.95 3.3-1.82 8.08-5.73 4.72-4.13-3.32 1.54-8.07 5.73-4.72m9.23-8.33c3.75 3.45-2.2 8.93-6.15 5.63-4.16-3.41 2.15-9.28 6.15-5.63m9.3-9.18c3.48 3.74-2.38 9.6-6.13 6.13-3.93-3.7 2.43-10.09 6.13-6.13m8.7-9.34c3.28 3.95-2.18 9.91-5.65 6.15-3.63-4 2.24-10.32 5.65-6.15m7.41-8.81c3.37 3.92-1.43 9.7-4.74 5.75-3.34-4.2 1.41-9.86 4.74-5.75m-58.32 28.88c3 3.28-.15 6.1-2.88 3.1-2.99-2.75-.32-6.15 2.88-3.1m49.91-49.69c3 2.73.2 5.87-3.08 2.87-3.05-3.22.35-5.9 3.08-2.87m-42.24 41.74c3.95 4.2-1.42 9.23-5.1 5.26-3.88-3.76.99-9.28 5.1-5.26m9.01-9.18c4.16 4.3-2.1 10.4-6.1 6.2-4.1-4.09 1.88-10.38 6.1-6.2m9.73-9.75c4.25 4.23-2.25 10.73-6.47 6.48-4.2-4.23 2.24-10.68 6.47-6.48m9.49-9.37c4.18 4.02-1.9 10.28-6.2 6.1-4.18-4.22 2.12-10.19 6.2-6.1m8.24-8.02c3.97 3.69-1.05 9.05-5.26 5.1-4.04-4.1 1.5-8.98 5.26-5.1m-48.51 32.8c2.87 3.41-.58 7.43-3.37 4.23-2.96-3.01.42-7.47 3.37-4.23m8.27-9.35c3.69 4.18-1.89 10.1-5.38 5.98-3.53-3.92 1.7-9.96 5.38-5.98m9.2-9.61c3.97 4.02-2.38 10.49-6.15 6.35-3.67-3.98 2.29-10.2 6.15-6.35m9.65-9.45c4.13 3.76-2.35 10.12-6.37 6.17-3.86-3.87 2.36-9.84 6.37-6.17m9.24-8.43c4.13 3.5-1.82 9.08-6 5.38-3.96-3.67 2.06-8.92 6-5.38m7.6-6.25c3.18 2.8-.82 6.25-4.23 3.38-3.25-2.96 1.2-6.32 4.23-3.38m-46.47 29.94c2.13 2.85-1.48 7.2-3.65 4.32-2.15-2.75 1.6-7.01 3.65-4.32m7.81-8.58c2.55 2.94-2.24 8.13-4.65 5.02-2.27-2.95 2.25-7.75 4.65-5.02m8.87-9.03c2.87 2.64-2.31 7.82-4.95 4.97-2.45-2.67 2.28-7.41 4.95-4.97m9.08-8.53c3.13 2.41-2.06 7.17-5 4.63-2.75-2.39 2.06-6.89 5-4.63m7.65-6.6c2.88 2.18-1.48 5.79-4.33 3.67-2.68-2.05 1.57-5.8 4.33-3.67m-26.17 15.59c1.55 1.68-2.22 5.58-3.63 3.69-1.23-1.73 2.27-5.18 3.63-3.69m8.39-8.32c1.9 1.42-2 5.18-3.7 3.63-1.49-1.37 1.95-4.87 3.7-3.63" style="isolation:isolate;opacity:.2;fill:#302c3b"/><path d="M453.97 389.72c14.22.32 16.89 12.02 16.89 12.02 12.81 2.18 16.93 14.92 16.93 14.92 24.04 14-15.15 63.35-21.85 36.54-11.23 12.35-25.7 2.58-15.94-12.01-12.33 14.86-24.33-3.15-17.3-12.35 2.65-3.45 4.64-7.78 7.72-11.72-12.75 14.9-23.34-1.87-18.82-11.42 5.04-10.56 12.27-20.02 15.84-22.13 7.07-4.18 14.89 2.7 16.54 6.13Z" class="ak"/><path d="M423.6 419.53c11.57 14.83 26.03-14.63 26.8-20.51-9.22 19.56-21.77 25.71-26.8 20.51m44.81 39.03c11.57 14.83 25.14-14.39 25.89-20.28-9.19 19.57-20.85 25.49-25.89 20.28m-34.98-15.28c11.57 14.83 28.32-13.95 32.85-31.1-12.54 30.47-27.82 36.31-32.85 31.1m15.68 13.15c11.56 14.81 29.27-14.09 33.8-31.25-12.55 30.46-28.76 36.44-33.8 31.25" class="ar"/></svg>