<svg xmlns="http://www.w3.org/2000/svg" data-name="Layer 1" style="" viewBox="0 0 512 511.99"><g><defs><linearGradient id="1770301554928-6095573_b" x1="-456.23" x2="-368.21" y1="1974.53" y2="1974.53" gradientTransform="scale(1 -1) rotate(-55.51 -1989.002 94.446)" gradientUnits="userSpaceOnUse"><stop offset="0" stop-color="#473834"></stop><stop offset=".06" stop-color="#4b3b36"></stop><stop offset=".67" stop-color="#6d564d"></stop><stop offset="1" stop-color="#7a6056"></stop></linearGradient><linearGradient id="1770301554928-6095573_c" x1="-455.7" x2="-347.08" y1="1964.3" y2="1964.3" gradientTransform="scale(1 -1) rotate(-55.51 -1989.002 94.446)" gradientUnits="userSpaceOnUse"><stop offset="0" stop-color="#7a6056"></stop><stop offset=".31" stop-color="#775d54"></stop><stop offset=".57" stop-color="#6d554d"></stop><stop offset=".8" stop-color="#5b4842"></stop><stop offset="1" stop-color="#473834"></stop></linearGradient><linearGradient id="1770301554928-6095573_e" x1="-442.4" x2="-442.4" y1="1938.33" y2="1951.91" gradientTransform="scale(1 -1) rotate(-55.51 -1989.002 94.446)" gradientUnits="userSpaceOnUse"><stop offset="0" stop-color="#a6694a"></stop><stop offset="1" stop-color="#4f2a1e"></stop></linearGradient></defs><path d="M371.73 180.47c9.93 5.73 9 21.03 6.26 23.73-8.99 8.95 24.32 31.62 33.14 19.18 7.66-10.82 23.38-14.2 23.38-14.2-.67-7.91 21.77-53.91-62.78-28.72Z" fill="#f5bb51"></path><path d="M478.22 117.57c-21.93-23.07-46.97-19.85-65.9-.72-4.3 4.35-14.9 6.96-24.62 4.42-3.55-.91-6.31.65-7.29 2.99-1.92 4.51 1.35 9.35 1.45 12.24.21 6.43-6.03 4.13-7.08 9.81-.49 2.6 4.57 5.58-6.75 6.54-.23 7.77-15.25 5.4-7.52 19.65 4.07 7.5 40.99 25.57 49.28 25.32 8.69-.28 19.18-8.85 19.18-8.85 19.4 15.95 41.58 11.05 56.8-5.72 21.3-23.46 6.65-50.73-7.55-65.68" class="m" fill="#ffc940"></path><path d="M374.79 146.31c.18 3.46-2.9 4.02-2.9 4.02-.8-1.17-4.86 1.2-3.67 2.92 4.16 6.07 13.2 8.05 17.6 7.73-6.05-9.84-8.93-23.22-11.03-14.67" class="v" fill="#f0a429"></path><path d="M374.79 146.31s-2.68 3.22-2.9 4.02c1.3 1.9 6.94 7.15 12.07 9.23l-9.16-13.25Z" class="r" fill="#fff"></path><path d="M493.07 164.85c15.07-37.44-35.3-74.8-44.45-73.58-3.29.45-8.27 6.14-10.77 10.82 5.33 7.77 22.42 18.71 24.65 32.4 3.32 20.3-39.82 24.3-31.79 39.62 1.27 2.4 53.97 8.1 62.35-9.26Z" fill="url(#1770301554928-6095573_b)"></path><path d="M502.06 176.87c5.28-11.38 8.41-29.24-8.25-53.37-15.05-21.82-36.04-33.45-45.18-32.23 5.51 8.01 32.49 25.35 31.7 44.62-1.17 29.99-33.17 26.55-42.58 39.89-14.78 20.9-12.08 36.48-12.08 36.48 21.44 7.65 62.71-5.91 76.4-35.39Z" fill="url(#1770301554928-6095573_c)"></path><path d="M380.44 124.32c-3.55 5.07 3.3 17.24 11.61 16.93-8.53-3.05-9.57-19.87-11.61-16.93" class="v" fill="#f0a429"></path><path d="M453.2 172.47c-8.67-8.3-32.56 3.7-32.33 14.2.03 1.47 3.08 7.17 10.33 6.28 4.05-.49 10.88 3 17.22-.2 8.12-4.14 13.36-12.05 4.78-20.28" class="m" fill="#ffc940"></path><path id="1770301554928-6095573_d" d="M449.49 175.76c-2.53-1.87-6.95-2.24-11.75.02 8.34 7.1-1.73 13.43-8.2 6.49-.79.9-1.55 1.85-2.3 2.95 6.08.35 7.95 5.07 15.48 3.95 6.81-1.01 13.04-8.74 6.78-13.41Z" class="v" data-name="Path" fill="#f0a429"></path><path d="M420.36 142.59c-1.3 1.08-9.37.14-13.7-5.16-2.45-3-.77-5.87 1.4-8.43 10.15-7.97 14.96 7.13 12.3 13.59" class="r" fill="#fff"></path><path id="1770301554928-6095573_f" d="M409.26 127.83c-7.73 5.35-1.57 14.29 6.17 8.99 7.16-4.95 1.03-13.9-6.17-8.99" data-name="Path" fill="url(#1770301554928-6095573_e)"></path><path id="1770301554928-6095573_g" d="M410.24 128.55c-3.87 2.67-.79 7.13 3.06 4.46 3.62-2.46.55-6.93-3.06-4.46" data-name="Path" fill="#1a1626"></path><path id="1770301554928-6095573_h" d="M413.7 130.25c-1.61 1.1.18 3.7 1.8 2.59 1.5-1.04-.28-3.64-1.8-2.59" data-name="Path" fill="#ab968c"></path><path d="M420.36 142.59c3.18-5.72-1.55-20.15-8.3-15.98 5.56-1.31 9.27 9.23 8.3 15.98" class="v" fill="#f0a429"></path><path id="1770301554928-6095573_i" d="M432.94 137.34c-.35-7.88-7.43-18.55-12.5-20.81-1.07-.54-3.93 2.25-3.13 2.76 6.3 3.72 12.43 12.5 13.12 19.57.12.93 2.62-.38 2.52-1.52Z" data-name="Path" fill="#966f42"></path><path d="M471.18 193.95s-.28-9.63-2.41-8.82c-8.9 3.43-32.44 3.69-32.44 3.69s5.32-27.45 26.35-44.54c1.8-1.45-4.81-6.25-7.08-5.9-13.82 2.13-30.27 49.9-30.27 49.9s-38.94-.1-52.62-6.17c2.83 25.58 98.47 11.83 98.47 11.83Z" class="y" fill="#302c3b"></path><path d="M261.82 89.67 276.72 0h-161.4l44.89 308.83 18.45-86.11 106.26-113.97z" fill="#916858"></path><path d="m186.82 0-26.61 138.58 23.2 10.39-28.31 102.1 31.71 8.54-32.25 116.55-25.04 43.8-6.25 44.98 34.4 29.93 3.6 17.12H0V0z" class="ab" fill="#6b4d40"></path><path d="m3.62 424.4 35.34 22.56 43.89 18.48 41.07-1.83 33.75 31.26-78.04-16.33-43.35-23.45zm103.85-164.53L3.62 235.07l153.44 9.01 29.75 15.53z" class="q" fill="#9e7666"></path><path d="M79.12 253.1 34.65 382.62 5.4 235.09zm55.45 6.77-23.08 84.04-4.02-84.04zM36.28 455.09 17.9 501.38 3.62 424.4zm43.35 23.45-5.09 25.98-17.02-37.93zM16.47 126.47l66.9 73.95 25.7-45.8zM13.97 0l31.15 33.22 4.55 58.67 48.15-30.94L123.26 0z" class="z" fill="#543d32"></path><path d="m16.47 126.47 95.28 16.36 48.89-6.41 33.9 17.7-37.83-4.26-47.64 4.76z" class="q" fill="#9e7666"></path><path d="m194.55 79.57 84.92 8.16 5.45 21.02z" class="ab" fill="#6b4d40"></path><path d="m165.4 177.6-8.69-27.74 37.07 3.08-26.89 55.55z" class="z" fill="#543d32"></path><path d="M272.34 0h60.22l-43.12 23.35-23.78 43.27-8.67-47.72z" class="ab" fill="#6b4d40"></path><path d="M277.69 231.26c-10.68-5.88-46.63 32.55-83.13 57.78-2.2 1.52 8.13 21.53 10.42 20.18 29.43-17 43.42-11.17 59.21-28.68 2.41 5.07 8.83 10.75 12.08 18.2 2.24 5.14 40.36-29 36-33.25-23.32-22.69-25.2-29.07-34.59-34.24Zm73.04-74.44c-6.72-15.82-24.62-40.29-32.9-55.75-4.48-8.43-31.4-21.8-38.61-21.49-5.79.26-32.09 13.52-28.46 19.02 17.38-8.36 20.15-6.49 22.98-5.4 7.29 2.78 12.71 9.88-7.27 14.11-3.46.75-4.27 5.18 3.53 3.93 12.45-2 11.91-4.75 20.74-6 5.96-.85 9.75 3.37 11.91 7.82 9.85 20.34 9.45 42.63 20.92 59.93 18.07 27.25 14.37 42.4 33.78 53.82 4.1 2.4 30.11-10.25 29.06-14.37-4.59-18.35-28.97-39.98-35.69-55.63Z" fill="#f7c259"></path><path d="M197.46 287.02c-6.98-5.6-15.32-35.05-23.36-32.18-10.75 28.25 0 28.59 9.93 58.84 1.47 4.48 19.15 6.38 20.95-4.45z" class="y" fill="#302c3b"></path><path d="M324.41 274.38c-1.95-6.57-15.1-16.14-15.1-16.14s-21.93 24.93-36.07 37.6c0 0 7.45 9.62 7.57 20.53.26 18.61 48.98-23.76 43.61-41.99Z" fill="#25a898"></path><path d="M317.92 301.07 204.08 0h13.13L331.7 303.22c-.35 1.07-19.06 14.22-13.78-2.15" class="y" fill="#302c3b"></path><path d="M321.98 194.78c-33.03-6.03-42.95-4.04-56.55-5.85-9.26-10.35-41.88-13.2-52.5-29.57-6.58-17.78-28.5-20.35-30.83-20.65-5.23-.68-21.67 1.4-22.1 5.47-.6 5.27 17.77 5.37 22.45 9.25 4.2 3.52 5.75 11 13.05 15.82 8.01 5.27 55.38 51.69 61.55 54.94 6.84 3.62 20.8 3.58 52.1 8.2 6.08.9 18.87-36.51 12.83-37.61" class="m" fill="#ffc940"></path><path d="M184.72 146.24c-15.33-7.65-22.78-4.23-22.78-4.23s7.71-1.1 22.78 4.23m4.8-3.67c-10.93-5.53-16.79-3.46-16.79-3.46s5.05-.2 16.79 3.46" class="v" fill="#f0a429"></path><path d="M134.5 454.56c20.75-37.63 25.48-66.54 40.62-81.38 10.86-10.65 34.36-25.53 50-37.97 5.09-4.04 37.93 34.43 32.79 38.42-11.82 9.11-39.89 18.03-53.84 24.73-9.88 25.6-28.57 28.25-42.1 50.36-1.51 2.45-28.91 8.47-27.46 5.84Z" class="m" fill="#ffc940"></path><path d="M134.5 454.56c-8.35 7.24-38.87 19.03-34.9 27 30.62 7.75 30.87-.56 63.79-11.32 4.67-1.52 5.65-12.8-1.42-21.51z" class="y" fill="#302c3b"></path><path d="m319.48 192.87-15.11 40.01c12.12.56 24.7 8.29 24.7 8.29s-12.54 34.9-18.92 43.61c-13.88 18.94-61.68 27.07-88.07 50.01-.91 8.05 31.53 43.35 31.53 43.35 16.76-9.05 49.11-12.45 70.11-13.88 54.45-3.74 34.07-58.28 88.17-140.14 5.65-8.58-28.98-27.73-38.92-28.5-14.31-1.11-53.5-2.76-53.5-2.76Z" fill="#3ab0a2"></path><path d="M505.33 121.7c-15.44-32-52.75-45.42-83.34-29.99-8.41 4.25 19.08 33.38 30.27 56.59 10.2 21.12 15.3 64.47 25.69 59.23 30.55-15.41 42.83-53.83 27.38-85.83" fill="#e81c27"></path><path d="M316.79 272.12s18.87 30.65 49.7 55.47c-1.5 7.31-5.75 13.38-5.75 13.38l-10.39-7.33-47.5 25.13s.72 3.69 1.98 7.17c-6.65 1.7-13.25 1.7-13.25 1.7s-12.47-31.4-13.25-62.6c4.51-3.74 12.08-5.65 12.08-5.65 2.17 24.71 8.6 47.25 8.6 47.25l40.38-23.47s-12.95-12.8-28.24-39.92c2.17-7.58 5.63-11.13 5.63-11.13Z" class="y" fill="#302c3b"></path></g></svg>
