<svg xmlns="http://www.w3.org/2000/svg" id="a" data-name="Layer 1" viewBox="0 0 512 530.97"><defs><linearGradient id="i" x1="-615.41" x2="-615.41" y1="368.73" y2="361.55" gradientTransform="translate(4235.16 -2180.56)scale(6.57)" gradientUnits="userSpaceOnUse"><stop offset="0" stop-color="#a6694a"/><stop offset="1" stop-color="#4f2a1e"/></linearGradient><linearGradient id="o" x1="-598.66" x2="-598.66" y1="368.73" y2="361.55" gradientTransform="translate(4252.89 -2180.56)scale(6.57)" gradientUnits="userSpaceOnUse"><stop offset="0" stop-color="#a6694a"/><stop offset="1" stop-color="#4f2a1e"/></linearGradient><linearGradient id="t" x1="256.01" x2="256.01" y1="284.42" y2="487.14" gradientTransform="matrix(1 0 0 -1 0 528.97)" gradientUnits="userSpaceOnUse"><stop offset=".5" stop-color="#473834"/><stop offset=".64" stop-color="#503f3a"/><stop offset=".86" stop-color="#68524a"/><stop offset="1" stop-color="#7a6056"/></linearGradient><style>.y{fill:#ffc940}.z{fill:#1a1626}.ac{fill:#fff}.ae{fill:#ab968c}.ag{fill:#f0a429}</style></defs><path d="M45.38 442.96C71 430.75 158.72 404.2 158.72 404.2l194.31-.33s88.7 26.8 114.17 39.06c37.03 17.75 44.8 41.99 44.8 64.9 0 30.85-512 30.85-512 0 0-22.95 8.26-47.19 45.38-64.87" style="fill:#3ab0a2"/><path d="m92.44 526.06-7.12-.63c0-47.74 7.12-47.11 7.12.63m334.22-.62-7.1.63c0-47.74 7.1-48.37 7.1-.63M158.72 404.2c0 72.7 194.31 72.37 194.31-.33l-17.48-5.37H177.26z" style="fill:#2b998d"/><path d="M174.08 400.53c0 56.91 163.83 56.91 163.83 0v-62.97H174.08z" style="fill:#f5bb51"/><path id="b" d="M411.89 183.88c-24.13 2.91-41.56 83.57-26.37 104.87 2.13 2.97 14.55 7.72 23.78-11.07 5.11-10.41 19.84-19.1 24.41-40.55 5.85-27.52 2.21-56.16-21.82-53.25" class="y" data-name="Path"/><path id="c" d="M100.13 183.88c24.13 2.91 41.56 83.57 26.37 104.87-2.13 2.97-14.55 7.72-23.8-11.07-5.09-10.41-19.84-19.1-24.39-40.55-5.87-27.52-2.21-56.16 21.82-53.25" class="y" data-name="Path"/><path id="d" d="M411.24 199.32c-6.3 1.98-13.17 11.58-16.89 27.48 22-4.72 16.5 31.87-2.63 32.56.19 3.69.43 7.46.89 11.44 9.21-13.35 18.57-8 27.86-27.87 8.34-17.91 6.36-48.48-9.23-43.61" class="ag" data-name="Path"/><path id="e" d="M117.67 226.77c-3.75-15.89-10.59-25.47-16.89-27.45-15.58-4.87-17.59 25.7-9.23 43.61 9.28 19.87 18.65 14.52 27.87 27.87.45-3.98.7-7.77.85-11.46-18.93-.88-24.35-37.03-2.61-32.57Z" class="ag" data-name="Path"/><path id="f" d="M256 28.77c-104.55 0-154.93 78.96-148.63 188.76 1.26 22.09 15 94.15 27.94 120 13.26 26.44 57.59 67.22 84.75 75.66 17.17 5.32 54.74 5.32 71.89 0 27.16-8.45 71.52-49.22 84.75-75.66 12.98-25.86 26.68-97.89 27.92-120C410.96 107.73 360.59 28.77 256 28.77" class="y" data-name="Path"/><path id="g" d="M284.23 285.47c-2.98-2.08-9.98 1.13-28.23 1.13s-25.22-3.2-28.21-1.13c-3.57 2.52 2.11 13.85 28.21 13.85s31.81-11.33 28.23-13.85" class="ag" data-name="Path"/><path id="h" d="M232.74 218.88c.89 6.92-3.81 15.11-16.81 21.26-8.26 3.91-25.47 8.5-48.03-1.01-10.11-4.26-19.98-17.52-19.1-24.87 12.23-23.04 72.48-26.41 83.94 4.63Z" class="ac" data-name="Path"/><circle id="j" cx="191.87" cy="218.43" r="23.63" data-name="Oval" style="fill:url(#i)"/><path id="k" d="M180.03 217.99c0 16.36 23.67 16.36 23.67 0 0-15.16-23.67-15.16-23.67 0" class="z" data-name="Path"/><path id="l" d="M176.44 211.36c0 6.86 9.91 6.86 9.91 0 0-6.33-9.91-6.33-9.91 0" class="ae" data-name="Path"/><path id="m" d="M232.86 219.79c-9.61-30.81-75.15-26.26-84.05-5.54 3.29-26.54 75.86-33.55 84.05 5.54" class="ag" data-name="Path"/><path id="n" d="M279.28 218.88c-.89 6.92 3.79 15.11 16.81 21.26 8.26 3.91 25.45 8.5 48.01-1.01 10.15-4.26 20-17.52 19.11-24.87-12.23-23.04-72.5-26.41-83.94 4.63Z" class="ac" data-name="Path"/><circle id="p" cx="319.61" cy="218.43" r="23.63" data-name="Oval" style="fill:url(#o)"/><path id="q" d="M307.8 217.99c0 16.36 23.67 16.36 23.67 0 0-15.16-23.67-15.16-23.67 0" class="z" data-name="Path"/><path id="r" d="M304.18 211.36c0 6.86 9.93 6.86 9.93 0 0-6.33-9.93-6.33-9.93 0" class="ae" data-name="Path"/><path id="s" d="M279.16 219.79c9.6-30.8 75.09-26.39 84.05-5.54-3.33-26.54-75.86-33.55-84.05 5.54" class="ag" data-name="Path"/><path d="M389.56 54.93C366.67 24.01 324.78 0 256 0S145.37 24.01 122.48 54.93c-32.41 43.77 299.46 43.77 267.07 0Z" style="fill:#7a6056"/><path d="M389.56 54.93c-22.89-30.92-64.78 2.61-133.56 2.61s-110.63-33.53-133.52-2.61c-32.41 43.77-21.41 189.62-6.98 189.62 2.28 0 2.61-51.02 6.98-86.32 3.54-28.72 10.37-56.59 18.24-61.15 24-13.91 70.28 5.98 115.28 5.98s91.3-19.89 115.31-5.98c7.85 4.55 14.67 32.43 18.24 61.15 4.35 35.3 4.68 86.32 6.96 86.32 14.43 0 25.43-145.85-6.96-189.62Z" style="fill:url(#t)"/><path d="M212.26 350.62c26.67-16.27 60.89-16.27 87.53 0 3.77 2.29 4.24-.18 3.07-2.15-19.72-33.18-73.97-33.18-93.69 0-1.17 1.97-.72 4.44 3.08 2.15Z" style="fill:#c1873c"/><path d="M362.57 175.47c-25-20.53-66.82 8.17-83.57 5.03-3.54.23-.15 12.07 2.8 11.89 23-.33 57.7-27.66 80.89-9.04 3.03 2.13 3.63-5-.11-7.89Zm-213.08 0c24.98-20.53 66.78 8.17 83.54 5.03 3.54.23.19 12.07-2.78 11.89-22.98-.33-57.7-27.66-80.89-9.04-3.06 2.13-3.64-5 .12-7.89Z" style="fill:#966f42"/><path d="M233.58 358.99c13.66-7.79 31.24-7.79 44.92 0 1.92 1.1 2.17-.08 1.57-1.01-10.13-15.89-37.96-15.89-48.09 0-.6.94-.37 2.12 1.59 1.01Z" class="ag"/></svg>