<svg xmlns="http://www.w3.org/2000/svg" data-name="Layer 1" style="" viewBox="0 0 512 512.06"><g><defs><radialGradient id="1770301554937-3639736_b" cx="453.64" cy="72.46" r="38.4" fx="453.64" fy="72.46" gradientTransform="matrix(1 0 0 -1 0 514.06)" gradientUnits="userSpaceOnUse"><stop offset=".21" stop-color="#ff3b3b"></stop><stop offset=".42" stop-color="#f63131"></stop><stop offset=".77" stop-color="#de1615"></stop><stop offset="1" stop-color="#cc0100"></stop></radialGradient><radialGradient id="1770301554937-3639736_c" cx="1914.47" cy="915.52" r="27.33" fx="1914.47" fy="915.52" gradientTransform="rotate(-52.41 -586.937 -925.444) scale(.59 -1)" gradientUnits="userSpaceOnUse"><stop offset="0" stop-color="#fff"></stop><stop offset="1" stop-color="#fff" stop-opacity="0"></stop></radialGradient><radialGradient id="1770301554937-3639736_d" cx="-174.47" cy="2025.12" r="127.15" fx="-276.21" fy="2071.25" gradientTransform="matrix(-.87 -.00015 -.0001 .52 57.97 -664.41)" gradientUnits="userSpaceOnUse"><stop offset=".26" stop-color="#3ab0a2"></stop><stop offset=".36" stop-color="#2b998d"></stop><stop offset=".5" stop-color="#3ab0a2"></stop></radialGradient><radialGradient id="1770301554937-3639736_e" cx="486.87" cy="2025.24" r="127.19" fx="385.09" fy="2071.39" gradientTransform="matrix(.87 -.0003 -.00012 .52 -85.16 -664.31)" gradientUnits="userSpaceOnUse"><stop offset=".26" stop-color="#3ab0a2"></stop><stop offset=".36" stop-color="#2b998d"></stop><stop offset=".5" stop-color="#3ab0a2"></stop></radialGradient><radialGradient id="1770301554937-3639736_g" cx="347.79" cy="486.33" r="38.4" fx="347.79" fy="486.33" gradientTransform="matrix(1 0 0 -1 0 514.06)" gradientUnits="userSpaceOnUse"><stop offset="0" stop-color="#ffe02e"></stop><stop offset=".25" stop-color="#ffda29"></stop><stop offset=".59" stop-color="#ffc91a"></stop><stop offset=".97" stop-color="#ffac02"></stop><stop offset="1" stop-color="#fa0"></stop></radialGradient><radialGradient id="1770301554937-3639736_h" cx="1248.36" cy="1085.25" r="27.33" fx="1248.36" fy="1085.25" gradientTransform="rotate(-52.41 -586.937 -925.444) scale(.59 -1)" gradientUnits="userSpaceOnUse"><stop offset="0" stop-color="#fff"></stop><stop offset="1" stop-color="#fff" stop-opacity="0"></stop></radialGradient><radialGradient id="1770301554937-3639736_i" cx="67.21" cy="396.57" r="38.4" fx="67.21" fy="396.57" gradientTransform="matrix(1 0 0 -1 0 514.06)" gradientUnits="userSpaceOnUse"><stop offset="0" stop-color="#9be022"></stop><stop offset=".27" stop-color="#91d422"></stop><stop offset=".75" stop-color="#78b423"></stop><stop offset="1" stop-color="#69a123"></stop></radialGradient><radialGradient id="1770301554937-3639736_j" cx="1072.12" cy="806.05" r="27.32" fx="1072.12" fy="806.05" gradientTransform="rotate(-52.41 -586.937 -925.444) scale(.59 -1)" gradientUnits="userSpaceOnUse"><stop offset="0" stop-color="#fff"></stop><stop offset="1" stop-color="#fff" stop-opacity="0"></stop></radialGradient><linearGradient id="1770301554937-3639736_f" x1="251.85" x2="251.85" y1="143.17" y2="164.24" gradientTransform="matrix(1.14 -.0002 .00022 -1 -13.04 513.88)" gradientUnits="userSpaceOnUse"><stop offset=".1" stop-color="#2b998d"></stop><stop offset=".55" stop-color="#3ab0a2"></stop></linearGradient><linearGradient id="1770301554937-3639736_u" x1="273.07" x2="273.07" y1="263.43" y2="368.74" gradientTransform="matrix(1 0 0 -1 0 514.06)" gradientUnits="userSpaceOnUse"><stop offset=".5" stop-color="#473834"></stop><stop offset=".64" stop-color="#503f3a"></stop><stop offset=".86" stop-color="#68524a"></stop><stop offset="1" stop-color="#7a6056"></stop></linearGradient><linearGradient id="1770301554937-3639736_w" x1="-607.82" x2="-607.82" y1="363.04" y2="359.8" gradientTransform="matrix(6.57 0 0 6.57 4235.15 -2139.06)" gradientUnits="userSpaceOnUse"><stop offset="0" stop-color="#a6694a"></stop><stop offset="1" stop-color="#4f2a1e"></stop></linearGradient><linearGradient id="1770301554937-3639736_ac" x1="-600.44" x2="-600.44" y1="363.04" y2="359.8" gradientTransform="matrix(6.57 0 0 6.57 4252.89 -2139.06)" gradientUnits="userSpaceOnUse"><stop offset="0" stop-color="#a6694a"></stop><stop offset="1" stop-color="#4f2a1e"></stop></linearGradient></defs><path d="M176.16 355.88c-22.81 9.25-28.59 44.87-57.42 68-12-14.53-30.61-38.58-37.86-57.52 0 0-28.89-5.73-41.95 4.86 12.4 41.08 39.07 81.8 60.4 107.16 13.5 16.05 74.14-16.56 87.62-49.67 0 0 2.23-14.82-10.79-72.84Z" class="bg" fill="#e6ebef"></path><path d="M28.82 356.13c3.83 1.8 13.75-18.42 9.9-20.22 0 0-19.62-6.3-25.8-6.1-14.62.47-14.45 12.68-10.98 13.55 10.1 2.45 26.88 12.77 26.88 12.77" class="ax" fill="#f5bb51"></path><path d="M30.57 295.68c-.42 21.72 4.51 36.57 4.51 36.57 0-10.67 1.2-30.92 2.67-39.77 2.03-12.25 18.59-13.69 17.47-1.35-1.78 19.72.91 40.99.91 40.99s2.24-18.77 3.58-34.55c1.05-11.93 16.84-10.7 16.6 1.26-.18 9.65-3.23 39.2-3.23 39.2s5.47-7.12 6.8-24.34c.7-8.99 11.3-6.31 11.6 2.57.52 15.82-1.73 19.85-3.74 27.28-1.07 3.97-1.5 15.05-8.17 26.4-4.13 7.03-30.72 9.05-38.4 3.45-4.34-3.18-18.75-23.43-21.97-30.37-3.5-7.52-6.38-27.91-5.2-45.13.85-12.42 16.79-14.67 16.56-2.21Z" class="ax" fill="#f5bb51"></path><path d="M369.98 355.88c36.39 22.77 46.15 125.73 107.34 132.13-10.04 21.62-33.08 21.58-47.47 21.58-22.22 0-53.27-50-71.29-70.94.02 0-1.59-24.76 11.43-82.78Z" class="bg" fill="#e6ebef"></path><path d="M176.16 355.88c13.64-9.15 62.4-24.7 62.4-24.7h69.46s48.42 15.5 61.97 24.7l-5.49 139.05c-.8 22.85-181.91 22.82-182.73 0l-5.62-139.05Z" class="bg" fill="#e6ebef"></path><path d="M280.42 331.19h2.13v180.82h-2.13zm-16.83 0h2.13v180.82h-2.13z" fill="#cfd8dd"></path><path d="M197.08 345.98c10.05-5.05 20.18-7.6 20.18-7.6v170.41c-10.98-.87-20.18-3.9-20.18-3.9v-158.9Zm152.21 0c-10.05-5.05-20.18-7.6-20.18-7.6v170.41c13.03-1.26 20.18-3.92 20.18-3.92z" fill="#3ab0a2"></path><path d="M492.88 488.64c-2.67 3.2-20.74-10.9-18.1-14.11 0 0 14.85-13.82 20.51-16.18 13.38-5.62 18.75 5.45 16.02 7.65-7.99 6.41-18.43 22.65-18.43 22.65Z" class="ax" fill="#f5bb51"></path><path d="M461.11 413.87c-21.18 0-38.4 17.22-38.4 38.44s17.22 38.37 38.4 38.37 38.4-17.17 38.4-38.37-17.2-38.44-38.4-38.44" fill="url(#1770301554937-3639736_b)"></path><path d="M458.97 449.42c-11.96 9.2-26.04 10.97-31.44 3.95-5.42-7.03-.12-20.18 11.85-29.38 11.96-9.22 26.04-10.98 31.45-3.97 5.42 7.03.09 20.18-11.87 29.4Z" style="isolation:isolate" opacity=".5" fill="url(#1770301554937-3639736_c)"></path><path d="M484.47 474.32c-.85 5-3.02 9.11-3.02 9.11s1.02-10.25 0-15.97c-2.01-11.3-17.28-10.33-16.52.56.63 8.9-2.65 17.05-2.65 17.05s-2.08-8.15-3.02-16.67c-1.28-11.73-18.48-10.4-17.94 1.38.32 6.5 1.37 15.15 1.37 15.15s-2.24-4.4-3.3-9.5c-2.3-11.07-16.79-11.03-15.05.18 3.38 21.8 17.84 21.91 20.23 16.33 2.88 6.61 12.6 6.05 16.58 2.07 3.29 3.85 15.27 4.55 18.4-1.1 5.9 5.77 16.42-.68 18.29-13.1 1.7-11.02-11.49-16.5-13.35-5.5Zm-248.3-163.95h73.8v40.01h-73.8z" class="ax" fill="#f5bb51"></path><path d="m309.95 325.91 10.72 9.69-9.22 36.85-38.38-22.06 36.88-24.47Zm-73.78 0-10.72 9.69 9.22 36.85 38.4-22.07z" fill="#f5f5f5"></path><path d="M270.42 360.17c-5.51 17.96-33.96 22.84-35.64 20.18-3.41-5.38-6.58-27.17-.07-39.2 1.01-1.84 31.5-1.43 35.71 19.02" fill="url(#1770301554937-3639736_d)"></path><path d="M275.72 360.17c5.5 17.96 33.96 22.84 35.65 20.18 3.4-5.38 6.57-27.19.07-39.22-1.02-1.84-31.51-1.41-35.72 19.04" fill="url(#1770301554937-3639736_e)"></path><path d="M273.09 370.1c-7.64.02-9.5 4.07-9.55-9.97 0-14.05 1.89-9.98 9.53-10 7.62 0 9.5-4.07 9.51 9.98.02 14-1.87 9.98-9.5 9.98Z" fill="url(#1770301554937-3639736_f)"></path><path d="M269.87 402.17c0-4.27 6.38-4.27 6.4 0 0 4.25-6.38 4.27-6.4 0m0 41.34c0-4.27 6.38-4.27 6.4 0 0 4.25-6.38 4.27-6.4 0m0 41.33c0-4.27 6.38-4.27 6.4 0 0 4.25-6.38 4.27-6.4 0" class="bf" fill="#302c3b"></path><path d="M355.26 0c-21.18 0-38.4 17.22-38.4 38.44s17.22 38.37 38.4 38.37 38.4-17.17 38.4-38.37S376.45 0 355.26 0" fill="url(#1770301554937-3639736_g)"></path><path d="M354.82 35.87c-11.96 9.2-26.05 10.98-31.45 3.95s-.1-20.16 11.85-29.38c11.96-9.22 26.05-10.97 31.45-3.95 5.42 7.01.09 20.18-11.85 29.38" style="isolation:isolate" fill="url(#1770301554937-3639736_h)" opacity=".5"></path><path d="M72.54 87.63c-21.2 0-38.4 17.2-38.4 38.42s17.2 38.38 38.4 38.38 38.4-17.17 38.4-38.38-17.22-38.42-38.4-38.42" fill="url(#1770301554937-3639736_i)"></path><path d="M70.42 124.16c-11.96 9.22-26.04 10.98-31.44 3.95-5.42-7.01-.12-20.16 11.85-29.38 11.96-9.2 26.04-10.97 31.44-3.95 5.41 7.03.09 20.2-11.85 29.38" style="isolation:isolate" opacity=".5" fill="url(#1770301554937-3639736_j)"></path><path id="1770301554937-3639736_k" d="M354.04 219.12c-12.54 1.52-21.58 43.42-13.7 54.46 1.12 1.55 7.57 4.02 12.37-5.75 2.65-5.39 10.28-9.92 12.66-21.06 3.04-14.28 1.15-29.14-11.33-27.65" class="au" data-name="Path" fill="#ffc940"></path><path id="1770301554937-3639736_l" d="M192.09 219.12c12.54 1.52 21.6 43.42 13.7 54.46-1.1 1.55-7.55 4.02-12.36-5.75-2.65-5.39-10.29-9.92-12.66-21.06-3.06-14.28-1.15-29.14 11.32-27.65" class="au" data-name="Path" fill="#ffc940"></path><path id="1770301554937-3639736_m" d="M353.7 227.14c-3.27 1.03-6.84 6.02-8.76 14.29 11.42-2.47 8.57 16.55-1.37 16.91.09 1.92.21 3.87.47 5.93 4.77-6.94 9.63-4.15 14.45-14.46 4.35-9.32 3.31-25.18-4.79-22.67" class="bd" data-name="Path" fill="#f0a429"></path><path id="1770301554937-3639736_n" d="M201.21 241.41c-1.95-8.25-5.5-13.24-8.77-14.27-8.09-2.52-9.14 13.35-4.8 22.67 4.82 10.32 9.69 7.54 14.48 14.46.23-2.07.37-4.04.44-5.95-9.82-.47-12.64-19.25-1.35-16.91" class="bd" data-name="Path" fill="#f0a429"></path><path id="1770301554937-3639736_o" d="M273.07 138.55c-54.32 0-80.48 41.02-77.21 98.03.66 11.49 7.79 48.91 14.52 62.33 6.88 13.75 29.91 34.94 44.02 39.31 8.92 2.76 28.44 2.76 37.34 0 14.1-4.39 37.16-25.57 44.02-39.31 6.75-13.41 13.87-50.83 14.52-62.33 3.29-57.01-22.86-98.03-77.19-98.03Z" class="au" data-name="Path" fill="#ffc940"></path><path id="1770301554937-3639736_p" d="M332.07 214.93c-12.42-6.58-36.18-6.9-45.03-2.31-1.92.89-.65 7.1.95 6.52 12.33-4.86 32.23-4.98 43.8.42 1.54.69 2.18-3.7.28-4.63" class="bb" data-name="Path" fill="#966f42"></path><path id="1770301554937-3639736_q" d="M214.05 214.93c12.42-6.58 36.18-6.9 45.05-2.31 1.9.89.65 7.1-.95 6.52-12.35-4.86-32.25-4.98-43.8.42-1.53.69-2.16-3.7-.3-4.63" class="bb" data-name="Path" fill="#966f42"></path><path id="1770301554937-3639736_r" d="M287.72 271.88c-1.55-1.07-5.18.58-14.65.58s-13.12-1.65-14.64-.58c-1.87 1.31 1.08 7.2 14.64 7.2s16.52-5.88 14.65-7.2" class="bd" data-name="Path" fill="#f0a429"></path><path id="1770301554937-3639736_s" d="M273.07 294.24c-12.21-3.58-30.31 1.7-30.31 1.7 6.89 7.5 11.93 17.22 30.31 17.22 21.05 0 24.64-11.03 30.32-17.22 0 0-18.1-5.32-30.32-1.7" class="bd" data-name="Path" fill="#f0a429"></path><path id="1770301554937-3639736_t" d="M247.29 297.2c12.82 10.72 38.68 10.8 51.55 0-13.64.59-37.8.59-51.55 0" class="ay" data-name="Path" fill="#fff"></path><path d="M342.44 152.14c-11.89-16.07-33.65-28.54-69.37-28.54s-57.48 12.47-69.36 28.54c-16.84 22.73 155.57 22.73 138.73 0" fill="#7a6056"></path><path d="M342.44 152.14c-11.89-16.07-33.65 1.35-69.37 1.35s-57.48-17.42-69.36-1.35c-16.84 22.73-11.12 98.5-3.64 98.5 1.19 0 1.37-26.5 3.64-44.84 1.84-14.93 5.38-29.4 9.48-31.77 12.47-7.24 36.5 3.1 59.88 3.1s47.42-10.33 59.89-3.1c4.1 2.36 7.64 16.84 9.48 31.77 2.27 18.33 2.43 44.84 3.62 44.84 7.5 0 13.22-75.77-3.62-98.5" fill="url(#1770301554937-3639736_u)"></path><path id="1770301554937-3639736_v" d="M261 237.32c.47 3.58-1.96 7.83-8.71 11.02-4.27 2.01-13.18 4.42-24.88-.54-5.25-2.2-10.37-9.08-9.9-12.9 6.33-11.96 37.56-13.7 43.5 2.42Z" class="ay" data-name="Path" fill="#fff"></path><path id="1770301554937-3639736_x" d="M241.69 224.85c6.78 0 12.27 1.87 12.27 9.02 0 6.77-5.49 12.27-12.27 12.27s-12.27-5.5-12.27-12.27c0-9.42 5.49-9.02 12.27-9.02" data-name="Oval" fill="url(#1770301554937-3639736_w)"></path><path id="1770301554937-3639736_y" d="M235.56 233.65c0 8.48 12.28 8.48 12.28 0 0-7.88-12.28-7.88-12.28 0" class="av" data-name="Path" fill="#1a1626"></path><path id="1770301554937-3639736_z" d="M233.69 230.2c0 3.57 5.15 3.57 5.15 0 0-3.29-5.15-3.29-5.15 0" class="az" data-name="Path" fill="#ab968c"></path><path id="1770301554937-3639736_aa" d="M261.07 237.79c-4.98-16.02-38.95-13.65-43.56-2.88 1.72-13.78 39.31-17.43 43.56 2.88" class="bd" data-name="Path" fill="#f0a429"></path><path id="1770301554937-3639736_ab" d="M285.12 237.32c-.45 3.58 1.98 7.83 8.73 11.02 4.28 2.01 13.18 4.42 24.9-.54 5.25-2.2 10.35-9.08 9.88-12.9-6.32-11.96-37.56-13.7-43.51 2.42" class="ay" data-name="Path" fill="#fff"></path><path id="1770301554937-3639736_ad" d="M307.92 224.85c6.77 0 12.27-.4 12.27 9.02 0 6.77-5.5 12.27-12.27 12.27s-12.28-5.5-12.28-12.27c0-9.42 5.5-9.02 12.28-9.02" data-name="Oval" fill="url(#1770301554937-3639736_ac)"></path><path id="1770301554937-3639736_ae" d="M301.78 233.65c0 8.48 12.27 8.48 12.27 0 0-7.88-12.27-7.88-12.27 0" class="av" data-name="Path" fill="#1a1626"></path><path id="1770301554937-3639736_af" d="M299.91 230.2c0 3.57 5.15 3.57 5.15 0 0-3.29-5.15-3.29-5.15 0" class="az" data-name="Path" fill="#ab968c"></path><path id="1770301554937-3639736_ag" d="M285.07 237.79c4.98-16 38.94-13.71 43.56-2.88-1.71-13.78-39.31-17.43-43.56 2.88" class="bd" data-name="Path" fill="#f0a429"></path><path d="M398.03 188.93c0 21.75-249.9 21.75-249.9 0s249.9-21.75 249.9 0" fill="#4e5e67"></path><path d="M354.14 179.72c0 18.71-162.13 18.71-162.13 0 0-103.1 162.13-103.1 162.13 0" class="bf" fill="#302c3b"></path></g></svg>
