<svg xmlns="http://www.w3.org/2000/svg" data-name="Layer 1" style="" viewBox="0 0 512 1335.54"><g><defs><linearGradient id="1770301554941-9140120_m" x1="-614.19" x2="-614.19" y1="706.95" y2="700.65" gradientTransform="matrix(6.57 0 0 6.57 4235.16 -4432.47)" gradientUnits="userSpaceOnUse"><stop offset="0" stop-color="#a6694a"></stop><stop offset="1" stop-color="#4f2a1e"></stop></linearGradient><linearGradient id="1770301554941-9140120_s" x1="-599.87" x2="-599.87" y1="706.95" y2="700.65" gradientTransform="matrix(6.57 0 0 6.57 4252.89 -4432.47)" gradientUnits="userSpaceOnUse"><stop offset="0" stop-color="#a6694a"></stop><stop offset="1" stop-color="#4f2a1e"></stop></linearGradient><linearGradient id="1770301554941-9140120_x" x1="256.01" x2="256.01" y1="1123.1" y2="1300.85" gradientTransform="matrix(1 0 0 -1 0 1337.54)" gradientUnits="userSpaceOnUse"><stop offset=".5" stop-color="#473834"></stop><stop offset=".64" stop-color="#503f3a"></stop><stop offset=".86" stop-color="#68524a"></stop><stop offset="1" stop-color="#7a6056"></stop></linearGradient></defs><path d="M108.18 579.48c-16.34-32.01-62.26-32.01-62.26-32.01-21.9 67.13-34.3 187.13-34.52 203.58-.2 15.98-15.18 60.74-10.48 71.74 19.94 46.61 18.05 52.44 42.49 69.78 18.52 13.11 12.71-3.72 4.32-12.58-13-13.73-21.26-45.32-4.21-48.26 2.18 35.24 25.46 41.89 23.73 28.83-4.47-33.7.02-54.13-15.18-72.23-6.12-7.32-6.57-53.35 21.7-115.48 17.18-37.8 27.11-62.77 34.41-93.38Zm295.68 0c16.34-32.01 62.26-32.01 62.26-32.01 21.9 67.13 34.26 187.13 34.48 203.58.22 15.98 15.2 60.74 10.48 71.74-19.94 46.61-18.05 52.44-42.47 69.78-18.52 13.11-12.73-3.72-4.32-12.58 12.98-13.73 21.26-45.32 4.21-48.26-2.2 35.24-25.46 41.89-23.73 28.83 4.47-33.7-.02-54.13 15.18-72.23 6.12-7.32 6.57-53.35-21.68-115.48-17.21-37.8-27.11-62.77-34.41-93.38Z" class="ag" fill="#f5bb51"></path><path d="M380.85 711.32H131.2c-21.79 114.99-5.7 273.83-33.12 554.15-3.47 35.3 125.85 35.52 124.74 0-5.39-163.53 9.91-287.98 20.88-387.66.82-7.43 23.86-7.43 24.68 0 10.95 99.67 26.31 224.12 20.9 387.66-1.18 35.52 128.21 35.3 124.74 0-27.47-280.33-11.37-439.16-33.17-554.15" fill="#302c3b"></path><path d="M412.63 397.25c-20.17-25.26-103.17-50.55-103.17-50.55H202.57s-83.03 25.31-103.17 50.55c-17.65 22.08-51.64 129.46-59.16 155.41 1 1.22 27.31 2.49 73.16 37.88 0 0 14.27-43.07 19.83-54.47 13.09 84.87-6.61 165.78-2.05 175.24 13 27 236.5 27.31 249.68 0 4.56-9.46-15.14-90.37-2.09-175.24 5.61 11.42 19.88 54.47 19.88 54.47 45.88-35.39 72.16-36.66 73.16-37.88-7.55-25.95-41.53-133.33-59.19-155.41Z" fill="#3ab0a2"></path><path d="M92.31 1326.66c4.1 10.06 128.25 14.18 132.91-1.87 18.01-62.17-153.16-47.77-132.91 1.87" class="ab" fill="#6e8189"></path><path d="M94.11 1314.44c.91 8.73 129.86 13.29 131.24 0 11.04-105.8-141.34-96.98-131.24 0" class="ae" fill="#99a8ae"></path><path d="M208.87 1251.52c-14.36-24.53-82.42-24.4-96.69 0-2.6 4.27-7.03 15.94 10.17 6.37-17.09 13.4-17.09 25.09 0 15.09-17.21 12.87-12.78 20.99-10.17 19.94 26.18-12.95 70.47-12.95 96.69 0 2.65 1.05 7.03-7.08-10.17-19.94 17.09 9.99 17.09-1.69 0-15.09 17.21 9.55 12.82-2.09 10.17-6.37" class="ad" fill="#1a1626"></path><path d="M419.71 1326.66c-4.1 10.06-128.25 14.18-132.91-1.87-17.99-62.17 153.18-47.77 132.91 1.87" class="ab" fill="#6e8189"></path><path d="M417.93 1314.44c-.91 8.73-129.86 13.29-131.24 0-11.04-105.8 141.3-96.98 131.24 0" class="ae" fill="#99a8ae"></path><path d="M303.16 1251.52c14.36-24.53 82.38-24.4 96.69 0 2.6 4.27 7.03 15.94-10.17 6.37 17.09 13.4 17.09 25.09 0 15.09 17.21 12.87 12.78 20.99 10.17 19.94-26.22-12.95-70.47-12.95-96.69 0-2.65 1.05-7.03-7.08 10.17-19.94-17.09 9.99-17.09-1.69 0-15.09-17.21 9.55-12.82-2.09-10.17-6.37" class="ad" fill="#1a1626"></path><path d="M182.97 353.33c0 65.13 146.08 65 146.08-.11l-13.13-4.72h-119l-13.96 4.83Z" fill="#2b998d"></path><path d="M194.78 354.05c0 48.41 122.42 48.41 122.42 0V300.5H194.78z" class="ag" fill="#f5bb51"></path><path id="1770301554941-9140120_b" d="M392.46 161.22c-21.12 2.54-36.39 73.3-23.08 91.95 1.85 2.63 12.73 6.79 20.79-9.7 4.5-9.1 17.38-16.74 21.39-35.57 5.12-24.08 1.89-49.21-19.1-46.68" class="ac" data-name="Path" fill="#ffc940"></path><path id="1770301554941-9140120_c" d="M119.57 161.22c21.12 2.54 36.37 73.3 23.08 91.95-1.87 2.63-12.75 6.79-20.83-9.7-4.47-9.1-17.34-16.74-21.35-35.57-5.12-24.08-1.89-49.21 19.1-46.68" class="ac" data-name="Path" fill="#ffc940"></path><path id="1770301554941-9140120_d" d="M391.89 174.8c-5.52 1.74-11.55 10.13-14.78 24.06 19.25-4.14 14.42 27.98-2.31 28.58.13 3.21.36 6.52.73 10.02 8.08-11.71 16.25-6.99 24.4-24.44 7.35-15.71 5.59-42.51-8.04-38.22" class="al" data-name="Path" fill="#f0a429"></path><path id="1770301554941-9140120_e" d="M134.93 198.81c-3.25-13.89-9.26-22.3-14.76-24.02-13.64-4.27-15.4 22.53-8.08 38.24 8.1 17.43 16.29 12.71 24.4 24.44.4-3.49.6-6.83.76-10.04-16.61-.8-21.32-32.52-2.31-28.62Z" class="al" data-name="Path" fill="#f0a429"></path><path id="1770301554941-9140120_f" d="M256 25.22c-91.48 0-135.6 69.25-130.08 165.54 1.11 19.37 13.13 82.56 24.44 105.22 11.62 23.19 50.44 58.94 74.21 66.35 15 4.65 47.88 4.65 62.9 0 23.77-7.41 62.59-43.16 74.17-66.35 11.35-22.66 23.35-85.81 24.46-105.22C391.64 94.47 347.55 25.22 256 25.22" class="ac" data-name="Path" fill="#ffc940"></path><path id="1770301554941-9140120_g" d="M355.43 154.16c-20.9-11.08-60.97-11.62-75.9-3.9-3.18 1.47-1.05 11.98 1.6 11 20.83-8.24 54.33-8.41 73.81.69 2.63 1.18 3.69-6.25.49-7.79" class="ak" data-name="Path" fill="#966f42"></path><path id="1770301554941-9140120_h" d="M156.57 154.16c20.92-11.08 60.97-11.62 75.9-3.9 3.21 1.47 1.09 11.98-1.6 11-20.83-8.24-54.29-8.41-73.81.69-2.58 1.18-3.63-6.25-.49-7.79" class="ak" data-name="Path" fill="#966f42"></path><path id="1770301554941-9140120_i" d="M280.7 250.32c-2.6-1.83-8.77.96-24.71.96s-22.08-2.78-24.68-.96c-3.14 2.2 1.87 12.15 24.68 12.15s27.87-9.95 24.71-12.15" class="al" data-name="Path" fill="#f0a429"></path><path id="1770301554941-9140120_j" d="M256 288.03c-20.57-6.05-51.08 2.87-51.08 2.87 11.6 12.64 20.12 29.07 51.08 29.07 35.48 0 41.51-18.63 51.13-29.07 0 0-30.56-8.97-51.13-2.87" class="al" data-name="Path" fill="#f0a429"></path><path id="1770301554941-9140120_k" d="M212.59 293.04c21.59 18.1 65.15 18.23 86.83 0-22.97.98-63.68 1-86.83 0" class="ah" data-name="Path" fill="#fff"></path><path id="1770301554941-9140120_l" d="M235.65 191.94c.78 6.03-3.34 13.22-14.74 18.61-7.21 3.43-22.26 7.46-42.02-.87-8.88-3.74-17.5-15.38-16.72-21.79 10.71-20.23 63.44-23.19 73.48 4.05" class="ah" data-name="Path" fill="#fff"></path><circle id="1770301554941-9140120_n" cx="199.88" cy="191.51" r="20.72" data-name="Oval" fill="url(#1770301554941-9140120_m)"></circle><path id="1770301554941-9140120_o" d="M189.53 191.16c0 14.31 20.7 14.31 20.7 0-.02-13.31-20.7-13.31-20.7 0" class="ad" data-name="Path" fill="#1a1626"></path><path id="1770301554941-9140120_p" d="M186.35 185.35c0 6.01 8.7 6.01 8.7 0 0-5.59-8.7-5.59-8.7 0" class="aj" data-name="Path" fill="#ab968c"></path><path id="1770301554941-9140120_q" d="M235.74 192.74c-8.39-27.04-65.77-23.06-73.57-4.87 2.89-23.26 66.4-29.43 73.57 4.87" class="al" data-name="Path" fill="#f0a429"></path><path id="1770301554941-9140120_r" d="M276.36 191.94c-.76 6.03 3.32 13.22 14.71 18.61 7.23 3.43 22.26 7.46 42.05-.87 8.88-3.74 17.5-15.38 16.74-21.79-10.73-20.23-63.46-23.19-73.5 4.05" class="ah" data-name="Path" fill="#fff"></path><circle id="1770301554941-9140120_t" cx="311.69" cy="191.51" r="20.72" data-name="Oval" fill="url(#1770301554941-9140120_s)"></circle><path id="1770301554941-9140120_u" d="M301.34 191.16c0 14.31 20.75 14.31 20.75 0 0-13.31-20.75-13.31-20.75 0" class="ad" data-name="Path" fill="#1a1626"></path><path id="1770301554941-9140120_v" d="M298.18 185.35c0 6.01 8.7 6.01 8.7 0-.02-5.59-8.7-5.59-8.7 0" class="aj" data-name="Path" fill="#ab968c"></path><path id="1770301554941-9140120_w" d="M276.3 192.74c8.39-27.04 65.71-23.17 73.57-4.87-2.92-23.26-66.42-29.43-73.57 4.87" class="al" data-name="Path" fill="#f0a429"></path><path d="M372.9 48.17C352.87 21.06 316.21 0 256 0s-96.83 21.06-116.86 48.17c-28.34 38.37 262.1 38.37 233.76 0" fill="#7a6056"></path><path d="M372.9 48.17c-20.03-27.11-56.69 2.31-116.9 2.31s-96.83-29.4-116.86-2.31c-28.34 38.37-18.74 166.27-6.12 166.27 2.03 0 2.31-44.76 6.12-75.68 3.09-25.2 9.08-49.61 15.96-53.6 20.99-12.22 61.52 5.23 100.9 5.23s79.93-17.43 100.92-5.23c6.9 3.98 12.84 28.4 15.98 53.6 3.81 30.94 4.1 75.68 6.1 75.68 12.62 0 22.24-127.9-6.1-166.27" fill="url(#1770301554941-9140120_x)"></path></g></svg>
