<svg xmlns="http://www.w3.org/2000/svg" id="a" data-name="Layer 1" viewBox="0 0 512 512"><defs><linearGradient id="b" x1="64.48" x2="476.3" y1="181.73" y2="181.73" gradientTransform="matrix(1 0 0 -1 0 514)" gradientUnits="userSpaceOnUse"><stop offset="0" stop-color="#00a7c7"/><stop offset=".2" stop-color="#00a0c5"/><stop offset=".49" stop-color="#008ec1"/><stop offset=".83" stop-color="#0070ba"/><stop offset="1" stop-color="#005eb5"/></linearGradient><linearGradient id="n" x1="-627.49" x2="-627.49" y1="337.88" y2="335.14" gradientTransform="translate(4235.16 -2138.87)scale(6.57)" gradientUnits="userSpaceOnUse"><stop offset="0" stop-color="#74717d"/><stop offset="1" stop-color="#28272e"/></linearGradient><linearGradient id="t" x1="-622.82" x2="-622.82" y1="337.88" y2="335.14" gradientTransform="translate(4252.89 -2138.87)scale(6.57)" gradientUnits="userSpaceOnUse"><stop offset="0" stop-color="#74717d"/><stop offset="1" stop-color="#28272e"/></linearGradient><style>.ab{fill:#0fb4d4}.ac{fill:#d47706}.af{fill:#1a1626}.ag{fill:#014d87}.ah{fill:#00859e}.ai{fill:#f59e01}.aj{fill:#fff}.ak{fill:#f9b700}.al{fill:#00a7c7}.an{fill:#9f9aab}</style></defs><path d="M405.9 440.6c0 4.94 26.04 4.94 26.04 0 0-19.93-26.04-19.93-26.04 0" class="ak"/><path d="M382.09 455.7c0 6.1 73.66 6.1 73.66 0 0-24.7-73.66-24.7-73.66 0m0 51.72c0 6.1 73.66 6.1 73.66 0 0-24.69-73.66-24.69-73.66 0" class="ai"/><path d="M478.02 484.27c63.92 32.15 26.1-67.82-19.03-24.55-38.3 18.34 7.2 58.63 19.03 24.55m-14.6-18.97c26.14-25.02 55.63 20.97 23.14 16.43 10.5-15.82-18.9-20.19-15.14-5.86-8.14-4.98-17.96 5.62-8.66 12.34-10.97-1.75-13.74-16.01.66-22.9Z" class="ai"/><path d="M469.08 458.1c-45.62-23.43-68.37 3.94-143.1-20.91-6.55 3.68-19 4.31-10.07 14.91 69.98-9.14 86.97 94.54 153.17 6" class="ak"/><path d="M327.22 439.65c-.83-1.63-12.94 4.53-12.1 6.18 3.38 6.62 15.49.46 12.1-6.18" style="fill:#ab5c10"/><path d="M291.94 286.66c-18.34 75.58-70.98 93.62-90.97 44.27-24.4-7-103.85-7-128.32 0-49.14 116.75 135.92 205.13 218.21 9.51 68.8-163.47 195.4-69.88 50.3 17.97-84.86 51.37-51.88 76.42-15.51 87.94-34.88-29.71-11.03-45.5 32.23-64.86 283.32-126.88-25.5-261.6-65.94-94.83" style="fill:url(#b)"/><path d="M195.84 312.73c0 22.77-118.07 22.77-118.07 0 0 0-1-39.57-17.06-65.88H212.9c-16.06 26.31-17.06 65.88-17.06 65.88" style="fill:#00a9c9"/><path d="M200.98 330.93c0 22.77-64.17 37.62-64.17 37.62s-64.15-14.85-64.15-37.62c6.26-18.38 5.12-18.2 5.12-18.2 34.4 15.88 83.69 15.86 118.07 0 0 0-.93 4.62 5.13 18.2" class="ak"/><path d="M210.5 260.78c14.12-32.38 36.91-69.12 24.5-91.12-34.22-60.54-162.18-60.54-196.4 0-12.42 22 10.38 58.74 24.5 91.12h147.39Z" class="al"/><path d="M83.24 150.45c-22.72-25.94-70.72-.5-64.66 26.1-40.7 54.17-2.06 74.2-.54 90.65 60.42-1.94 75.49-48.86 56.62-76.9 13.81-9.43 21.1-25.53 8.58-39.85" class="al"/><path d="M46.36 191.25c-14.9-4.1-28.6-18.18-21.1-36.62-5.58 6.35-8.47 14.09-6.68 21.91-40.7 54.18-2.06 74.21-.54 90.66 22.9-21.41-26.18-47.41 7.49-82.79 8.83 7.24 20.83 6.84 20.83 6.84m41.31-15.87c-9.28 12.83-18.21 16.3-25.83 17.15 0 0 3.03.49 5.17.14 16.91 14.15 11.72 37.57 6.88 49.32 11.25-16.09 10.91-36.6.77-51.69 5.84-4.01 10.51-9.18 13.02-14.92Z" class="ah"/><path d="M190.36 150.45c22.72-25.94 70.72-.5 64.66 26.1 40.7 54.17 2.06 74.2.53 90.66-60.42-1.94-75.48-48.86-56.61-76.9-13.8-9.44-21.1-25.54-8.58-39.86" class="al"/><path d="M227.22 191.25c14.91-4.1 28.62-18.18 21.1-36.62 5.56 6.35 8.48 14.09 6.7 21.91 40.7 54.17 2.06 74.2.53 90.66-22.9-21.41 26.17-47.41-7.48-82.79-8.85 7.24-20.85 6.84-20.85 6.84" class="ah"/><path d="M185.9 175.38c9.29 12.83 18.22 16.3 25.83 17.15 0 0-3.03.49-5.15.14-7.25 6.09-10.46 13.83-11.34 21.67 21.25 3.31 83.18 45.9-2.35 11.05-65.28 15.35-36.31-10.54-1.56-11.51.28-8.37 2.88-16.55 7.6-23.57-5.84-4.02-10.51-9.19-13.03-14.93" class="ah"/><path d="M163.64 261.89c-9.43 7.77-83.19 34.22-127.72 11.2-51.09-.36 17.56-87.96 127.72-11.2" class="al"/><path d="M163.64 261.89c-9.43 7.77-82.83 43.88-131.13 12.82-25.78-.18-20.2-22.98 5.8-35.69-50.11 43.32 225.42 48.86 37.92-8.3 24.03-.15 53.97 7.85 87.42 31.16Z" class="ah"/><path d="M69.41 231.28c60.46 2.25 108.83 78.66 170.81 45.79 45.65-6.5-18.67-76.23-79.79-55.64-56.22 4.02-55.26-7.94-91.02 9.85" class="al"/><path d="M69.41 231.28c69.88 13.55 108.51 80.46 172.72 47.69 18.26-2.17 24.78-22.35-3.58-41.42 30.62 45.86-51.43 44.52-74.9 23-9.93-9.08 44.83-5.43 58.7-12.06-75.71 8.14-100.89-20.18-152.94-17.2Z" class="ah"/><path d="M96.84 221.41c-6 1.94-8.88 13.27-3.44 17.34 5.46 4.03 37.38 21.78 41.22 20.34-5.68-7.86 4.37-34.85 18.25-36.22-2.77-4.98-35.7-8.04-56.02-1.46Z" class="ac"/><path d="M136.34 238.75c2.17-4.86 5.23-9.46 8.91-12.44-23.54-6.78-52.93-.26-53.22-.26-1.3 2.55-1.82 5.63-1.28 8.3 14.3.15 30.98.51 45.58 4.4Z" class="ak"/><path d="M92.43 318.23c-5.1-1.56-10.03-3.37-14.65-5.5 0 0 1.15-.18-5.12 18.2 0 7.46 6.94 14.05 16.2 19.56 2.22-10.75 3.35-21.57 3.57-32.26m103.41-5.5c-4.63 2.14-9.55 3.94-14.63 5.49.19 10.7 1.34 21.5 3.54 32.28 9.28-5.51 16.22-12.1 16.22-19.56-6.05-13.59-5.13-18.21-5.13-18.21" class="ac"/><path id="c" d="M195.86 58.88c-9.14 1.1-15.75 31.71-10 39.8.82 1.14 5.53 2.94 9.02-4.19 1.93-3.95 7.53-7.23 9.25-15.41 2.22-10.43.84-21.31-8.26-20.2Z" class="ab" data-name="Path"/><path id="d" d="M77.73 58.88c9.15 1.1 15.75 31.71 9.98 39.8-.81 1.14-5.51 2.94-9-4.19-1.95-3.95-7.54-7.23-9.26-15.41-2.21-10.43-.82-21.31 8.28-20.2" class="ab" data-name="Path"/><path id="e" d="M195.62 64.75c-2.4.75-5 4.38-6.4 10.42 8.33-1.78 6.23 12.12-1 12.37.06 1.4.17 2.83.33 4.35 3.49-5.07 7.04-3.04 10.55-10.58 3.17-6.8 2.42-18.41-3.48-16.55Z" class="ah" data-name="Path"/><path id="f" d="M84.36 75.15c-1.42-6.03-4-9.66-6.4-10.4-5.9-1.87-6.67 9.75-3.5 16.54 3.53 7.54 7.08 5.51 10.56 10.58.18-1.51.26-2.97.34-4.37-7.19-.34-9.23-14.05-1-12.36Z" class="ah" data-name="Path"/><path id="g" d="M136.79 0C97.16 0 78.08 29.96 80.48 71.66c.49 8.38 5.66 35.74 10.58 45.55 5.04 10.03 21.82 25.5 32.12 28.71 6.5 2.02 20.74 2.02 27.23 0 10.3-3.21 27.1-18.68 32.12-28.71 4.92-9.82 10.12-37.17 10.58-45.55C195.5 29.96 176.41 0 136.79 0" class="ab" data-name="Path"/><path id="h" d="M179.84 55.82c-9.07-4.8-26.42-5.03-32.86-1.68-1.38.63-.47 5.18.7 4.75 9-3.55 23.52-3.63 31.95.31 1.12.5 1.58-2.71.22-3.38Z" class="ag" data-name="Path"/><path id="i" d="M93.75 55.82c9.06-4.8 26.38-5.03 32.86-1.68 1.38.63.47 5.18-.7 4.75-9.02-3.55-23.51-3.63-31.94.31-1.13.5-1.6-2.71-.22-3.38" class="ag" data-name="Path"/><path id="j" d="M147.48 97.45c-1.14-.8-3.78.42-10.69.42s-9.54-1.22-10.7-.42c-1.35.95.82 5.26 10.7 5.26s12.05-4.31 10.69-5.26" class="ah" data-name="Path"/><path id="k" d="M136.79 113.77c-8.91-2.62-22.14 1.25-22.14 1.25 5.06 5.49 8.72 12.58 22.14 12.58 15.37 0 17.97-8.07 22.12-12.58 0 0-13.2-3.88-22.12-1.25" class="ah" data-name="Path"/><path id="l" d="M117.99 115.94c9.34 7.83 28.2 7.88 37.6 0-9.95.42-27.58.42-37.6 0" class="aj" data-name="Path"/><path id="m" d="M127.98 72.17c.33 2.62-1.46 5.74-6.38 8.07-3.14 1.48-9.63 3.21-18.2-.39-3.84-1.62-7.56-6.66-7.23-9.45 4.65-8.74 27.46-10.02 31.82 1.77Z" class="aj" data-name="Path"/><path id="o" d="M112.5 63.02c4.93 0 8.97 4.02 8.97 8.98s-4.04 8.96-8.97 8.96-8.98-4.02-8.98-8.96c0-4.97 4.01-8.98 8.98-8.98" data-name="Oval" style="fill:url(#n)"/><path id="p" d="M107.99 71.83c0 6.2 8.98 6.2 8.98 0 0-5.77-8.98-5.77-8.98 0" class="af" data-name="Path"/><path id="q" d="M106.62 69.31c0 2.6 3.77 2.6 3.77 0 0-2.42-3.77-2.42-3.77 0" class="an" data-name="Path"/><path id="r" d="M128.01 72.51c-3.63-11.71-28.47-9.98-31.85-2.11 1.26-10.07 28.74-12.74 31.85 2.11" class="ah" data-name="Path"/><path id="s" d="M145.61 72.17c-.34 2.62 1.43 5.74 6.37 8.07 3.14 1.48 9.65 3.21 18.19-.39 3.85-1.61 7.57-6.65 7.25-9.45-4.64-8.74-27.47-10.02-31.81 1.77" class="aj" data-name="Path"/><circle id="u" cx="160.89" cy="71.99" r="8.98" data-name="Oval" style="fill:url(#t)"/><path id="v" d="M156.42 71.83c0 6.2 8.95 6.2 8.95 0 0-5.77-8.95-5.77-8.95 0" class="af" data-name="Path"/><path id="w" d="M155.04 69.31c0 2.6 3.79 2.6 3.79 0 0-2.42-3.79-2.42-3.79 0" class="an" data-name="Path"/><path id="x" d="M145.58 72.51c3.63-11.7 28.45-10.03 31.84-2.12-1.26-10.06-28.76-12.73-31.84 2.12" class="ah" data-name="Path"/><path d="M143.86 137.91c-4.1-1.43-7.06-6.51-7.06-6.51s-2.94 5.09-7.06 6.51c-19.94 6.9-36.97-17.8-36.97-17.8 11.94 27.51 44.03 48.22 44.03 48.22s31.92-20.3 44-48.18c0 0-16.99 24.67-36.94 17.77Z" style="fill:#302c3b"/></svg>