<svg xmlns="http://www.w3.org/2000/svg" id="a" data-name="Layer 1" viewBox="0 0 512 448"><defs><linearGradient id="b" x1="1220.98" x2="1297.43" y1="195.18" y2="195.18" gradientTransform="rotate(201.39 721.231 217.66)" gradientUnits="userSpaceOnUse"><stop offset="0" stop-color="#473834"/><stop offset=".06" stop-color="#4b3b36"/><stop offset=".67" stop-color="#6d564d"/><stop offset="1" stop-color="#7a6056"/></linearGradient><linearGradient id="c" x1="1221.49" x2="1315.64" y1="186.43" y2="186.43" gradientTransform="rotate(201.39 721.231 217.66)" gradientUnits="userSpaceOnUse"><stop offset="0" stop-color="#7a6056"/><stop offset=".31" stop-color="#775d54"/><stop offset=".57" stop-color="#6d554d"/><stop offset=".8" stop-color="#5b4842"/><stop offset="1" stop-color="#473834"/></linearGradient><linearGradient id="e" x1="1232.66" x2="1232.66" y1="163.57" y2="175.34" gradientTransform="rotate(201.39 721.231 217.66)" gradientUnits="userSpaceOnUse"><stop offset="0" stop-color="#a6694a"/><stop offset="1" stop-color="#4f2a1e"/></linearGradient><linearGradient id="j" x1="535.99" x2="612.5" y1="367.21" y2="367.21" gradientTransform="rotate(-6.39 4246.499 1986.89)scale(1 -1)" gradientUnits="userSpaceOnUse"><stop offset="0" stop-color="#473834"/><stop offset=".06" stop-color="#4b3b36"/><stop offset=".67" stop-color="#6d564d"/><stop offset="1" stop-color="#7a6056"/></linearGradient><linearGradient id="k" x1="536.48" x2="630.69" y1="358.51" y2="358.51" gradientTransform="rotate(-6.39 4246.499 1986.89)scale(1 -1)" gradientUnits="userSpaceOnUse"><stop offset="0" stop-color="#7a6056"/><stop offset=".31" stop-color="#775d54"/><stop offset=".57" stop-color="#6d554d"/><stop offset=".8" stop-color="#5b4842"/><stop offset="1" stop-color="#473834"/></linearGradient><linearGradient id="m" x1="547.58" x2="547.58" y1="335.58" y2="347.33" gradientTransform="rotate(-6.39 4246.499 1986.89)scale(1 -1)" gradientUnits="userSpaceOnUse"><stop offset="0" stop-color="#a6694a"/><stop offset="1" stop-color="#4f2a1e"/></linearGradient><style>.x{fill:#e3e6e8}.y{fill:#ffc940}.z{fill:#1a1626}.aa{fill:#f5bb51}.ab{fill:#fff}.ac{fill:#e81c27}.ad{fill:#ab968c}.ae{fill:#966f42}.af{fill:#f0a429}.ag{fill:#3ab0a2}.ah{fill:#302c3b}.ai{fill:#e6ebef}.aj{fill:#f2f5f7}</style></defs><path d="M195.27 119.59c-6.82-7.34-24.4 6.17-26.98 8.18-8.57 6.65-30.55-30.14-18.98-36.19 10.04-5.3 9.17-19.81 9.17-19.81 6.79-.97 40.93-28.85 36.8 47.82Z" class="aa"/><path d="M226.66 17.02c23.82 14.19 26.17 36.1 13.9 55.87-2.78 4.48-2.86 13.97 1.26 21.75 1.47 2.82.73 5.5-1.02 6.76-3.43 2.49-8.15.64-10.6 1.14-5.45 1.03-2.26 5.9-6.83 7.89-2.06.87-5.6-2.83-4.1 6.98-6.48 1.68-1.47 13.98-15.02 10.17-7.1-2-29.76-29.91-31.2-37.01-1.52-7.44 3.54-18 3.54-18-17.3-13.42-17.67-33.21-6.64-49.37 15.41-22.58 41.33-15.38 56.73-6.18Z" class="y"/><path d="M223.35 110.43c-2.91.5-2.8 3.22-2.8 3.22 1.18.45.02 4.37-1.69 3.69-5.95-2.38-9.45-9.7-10.05-13.47 9.48 3.26 21.31 3.13 14.54 6.56" class="af"/><path d="M223.35 110.43s-2.14 2.9-2.8 3.22c-1.83-.77-7.4-4.53-10.16-8.49l12.96 5.26Z" class="ab"/><path d="M183.91 13.48c28.47-19.98 69.99 15.61 70.81 23.64.3 2.88-3.49 8.2-6.91 11.21-7.59-3.04-20.24-15.45-32.18-14.71-17.75 1.08-12.4 38.49-26.87 34.62-2.34-.61-17.73-44.27-4.86-54.75Z" style="fill:url(#b)"/><path d="M172 8.14c8.51-6.66 22.86-12.74 46.53-3.23 21.38 8.6 35.37 24.18 36.18 32.21-7.83-3.16-27.85-22.7-43.9-18.38-24.94 6.78-15.59 33.26-24.9 43.84-14.6 16.56-28.25 17.28-28.25 17.28-10.74-16.74-7.68-54.43 14.34-71.72" style="fill:url(#c)"/><path d="M240.71 101.37c-3.55 4-15.17.52-16.58-6.62 4.28 6.66 18.64 4.32 16.58 6.62" class="af"/><path d="M185.57 48.85c8.72 5.71 3.48 28.34-5.41 30.17-1.27.27-6.67-1.24-7.38-7.6-.4-3.49-4.7-8.62-3.3-14.64 1.83-7.7 7.42-13.66 16.09-7.93" class="y"/><path id="d" d="M183.53 52.62c2.09 1.78 3.32 5.47 2.39 9.98-7.66-5.7-10.97 4.04-3.8 8.23-.6.83-1.25 1.68-2.02 2.48-1.53-5.08-5.86-5.77-6.46-12.35-.51-6.01 4.74-12.74 9.89-8.34" class="af" data-name="Path"/><path d="M217.3 70.98c-.64 1.33 1.78 7.98 7.1 10.68 3.04 1.46 5.11-.5 6.82-2.82 4.66-10.18-9-11.36-13.92-7.86" class="ab"/><path id="f" d="M231.94 77.59c-2.91 7.58-11.68 4.09-8.77-3.51 2.7-7.06 11.45-3.56 8.77 3.51" data-name="Path" style="fill:url(#e)"/><path id="g" d="M231.14 76.85c-1.46 3.83-5.83 2.06-4.35-1.71 1.33-3.52 5.72-1.8 4.35 1.71" class="z" data-name="Path"/><path id="h" d="M229 74.27c-.58 1.58-3.15.57-2.53-1.02.57-1.47 3.11-.5 2.53 1.02" class="ad" data-name="Path"/><path d="M217.3 70.98c4.17-3.78 17.25-2.53 15.13 3.98-.03-4.97-9.63-6.1-15.13-3.98" class="af"/><path id="i" d="M219.17 59.29c6.7-1.21 17.09 2.75 20.05 6.62.66.78-1.11 3.78-1.69 3.22-4.42-4.68-13.06-8.19-19.11-7.39-.82.06-.24-2.31.75-2.45" class="ae" data-name="Path"/><path d="M168.32 80c1.03 5.88 13.6 12.93 19.21 11.38 10.46-2.83 21.31-30.14 17.39-40.54-2.14-5.58-15.94-11.92-21.38-9.8C173.46 45 165.71 65.29 168.32 80m26.52-30.91c3.72-3.24 10.17 4.38 6.46 7.64-3.68 3.29-10.14-4.36-6.46-7.64m-2.99 32.29c2.25 5.34-8.02 9.92-10.31 4.64-2.28-5.34 8.02-9.93 10.31-4.64M191 46.53c.85 5.18-9.24 6.85-10.14 1.7-.85-5.23 9.26-6.87 10.14-1.7" class="ag"/><path d="M206.4 131.3c1.9 2.1 5.8-.99 5.47-2.79-1.41-7.96-16.01-37.46-21.62-44.43-2.38-2.88-6.02.62-5.5 2.82 2.03 8.76 16.28 38.43 21.65 44.4" class="aj"/><path d="M238.26 17.51c2.3-2.34-1.17-5.8-3.16-5.11-8.7 3.01-40.98 23.94-48.51 31.17-2.36 2.21.37 6.21 3.15 5.12 9.63-3.82 42.09-24.42 48.52-31.18" class="x"/><path d="M242.86 20.7c1.78-2.45-1.93-5.54-3.7-4.77-7.78 3.55-35.12 25.98-41.18 33.46-2.54 3.14 1.55 5.84 3.66 4.73 8.52-4.35 36.09-26.46 41.22-33.42" class="aj"/><path d="M76.91 260c18.17-3.26 33.69-18.69 54.01 6.38-.05 23.28-7.26 33.18-13.76 39.3-12.4 11.59-31.31 4.06-61.92 36.3l-24.42-16.02c21.06-21.03 25.54-36.47 46.23-44.2 3.08-5.95 2.74-12.28-.15-21.75Z" class="aa"/><path d="m26.12 332.06 25.44 14.25 5.13-7.2-23.73-16.47s-6.18 4.54-6.84 9.42" class="ai"/><path d="M22 384.1 1.05 370.49c-3.08-2 1.58-5.46 1.58-5.46s22.22-.66 80.73 45.62c0 0-22.77 13.26-61.36-26.56Z" class="ag"/><path d="M15.56 344.37c1.87-6.23 12.3-20.34 13.7-18.06 2.72 4.42 17.67 13.22 22.18 13.3 3.33-14.08 14.04-5.59 11.92-1.97-29.6 50.81 36.86 51.41 20 73.03 0 0-31.72-.83-57.88-30.53l-22.85-15.1c4.98-14.22 12.53-19.39 12.93-20.67" class="ah"/><path d="M62.75 379.21c-12.6-2.58-13.95-5.9-9.65-9.86-7.3-2.56-6.78-7.34-3.96-9.41-6.42-3.82-3.46-8.94 6.51-6.2 5.5 1.75 10.48 26.14 7.1 25.46Z" class="ag"/><path d="M215.58 194.4c-1.93-.54-6.65 6.81-4.1 6.32 1.55-.28 11.62 3.08 18.17 5.74 4.02 1.64 6.88-2.22 5.58-2.86-11.4-5.61-8.77-6.06-19.65-9.19Z" class="af"/><path d="M208.67 193.18c-1.93-.46-6.36 7.86-3.83 7.97 1.54.08 10.78 5.23 16.76 8.99 3.65 2.34 6.82-.5 5.7-1.44-7.69-6.51-16.03-14.94-18.63-15.52" class="af"/><path d="M233.89 198.1c-4.46-1.18-10.59-5.33-13.06-5.27-2.09.05-9.48-1.62-14.6-1.5-4.74.11-24.55-5.29-54.45-24.73-10.53 8-21.03 16.07-31.64 23.96 26.13 9.14 58.27 6.31 68.34 16.94 5.4 5.68 13.77 5.01 21.72 14.48 3.66 4.41 8.16-.97-3.05-13.94-2.79-3.22 2.94-5 4.68-5.35 3.42-.67 12.1-1.32 17.38 0 2.1.55 11.66-2.7 4.69-4.59ZM147.97 77.78c-16.83 68.76-6.32 93.25 20.85 78.58 8.61-4.67 19.71-15 14.35-31.75-2.18-12.27-8.43-35.14-35.2-46.83m-54.98 227c14.82-11.5 22.49-34.95 51.44-22.18 10.02 20.82 6.47 29.34 3.3 37.86-6.08 16.22-24.45 28.97-38.74 67.7l-28.7-2.78c9.74-28.7 7.1-44.61 22.21-61.26.18-6.78-2.83-12.26-9.51-19.33Z" class="aa"/><path d="M36.76 186.07c30.86-20.71 34.94-91.84 83.55-113.52 17.84-7.97 35.96 8.84 36.26 20.74.42 17.6 12.14 42.76 25.5 26.04 1.46 1.56 1.1 5.29 1.1 5.29-29.91 82.39-97.73 73.55-81.65 91.56 16.46 18.46 32.32 42.16 42.9 66.42-17.34 4.49-37.03 10.86-51.44 22.18-21.29-15.58-25.07-30.83-45.29-39.56-31.06-13.42-36-62.35-10.94-79.15Z" class="ag"/><path d="M100.17 88.93c-28.03 29.58-.94 61.81 28.03 33.45 35.95-35.15 4.52-67.72-28.03-33.45" class="aa"/><path d="m78.73 393.07 28.84.7 1.47-8.86-28.28-3.5s-3.54 6.97-2.03 11.66" class="ai"/><path d="m97.5 441.45-24.58-2.26c-3.59-.31-.94-5.59-.94-5.59s19.54-11.1 91.73 2.61c0 0-14.62 22.59-66.21 5.25Z" class="ag"/><path d="M74.6 409.04c-.98-6.47 2.22-23.97 4.48-22.59 4.33 2.66 21.46 3.44 25.5 1.38-3.09-14.13 10.13-11.59 9.79-7.36-4.48 59.31 55.07 28.47 49.35 55.73 0 0-28.66 14.22-64.82.05L72 433.59c-1.68-15.04 2.81-23.24 2.6-24.55" class="ah"/><path d="M131.75 417.85c-12.37 3.66-14.99 1.31-12.85-4.26-7.64 1.18-9.25-3.34-7.62-6.5-7.36-.38-6.94-6.36 3.16-8.61 5.64-1.02 20.61 18.38 17.3 19.38Z" class="ag"/><path d="M159.16 240.96c.8 2.67-4.64 13.39-8.09 22.87-.5 1.34-5.86-.75-5.16-4.98 1.12-6.94 2.01-17.46 1.17-18.94-1.34-2.43 11.5-.95 12.08 1.05" class="af"/><path d="M70.2 182.8c-2.54-2.92 2.85-30.15 40.59-98.91 14.18-25.82 46.93-2.46 34.09 24.18-18.7 38.76-34.77 61.42-34.77 61.42 12.36 9.71 37.1 38.51 52.15 58.54 3.39 4.54 7.75 29.17 8.34 31.17.82 2.66-4.64 13.38-8.1 22.86-.48 1.33-5.85-.74-5.15-4.98 1.14-6.9 2.01-17.46 1.19-18.92-1.36-2.46-14.04-11.77-12.44-22.58-21.62-9.54-55.41-29.18-75.9-52.78m390.92 83.68-44.15 27.39c4.66 8.33 23.16 27.62 40.6 67.47l28.38-5.84c-15.71-30.44-5.36-45.64-24.14-67.17-4.71-5.44-.68-21.86-.68-21.86Z" class="aa"/><path d="m488.22 362.68-28.7 3.87-2.29-8.3 27.86-6.49s4.22 6.27 3.14 10.91Z" class="ai"/><path d="m474.05 411.04 24.29-4.87c3.56-.74.42-5.47.42-5.47s-20.52-8.44-91.25 12.64c0 0 16.67 20 66.54-2.3" class="ac"/><path d="M493.83 377.5c.4-6.26-4.46-22.66-6.57-21.1-4.06 3.02-21.07 5.67-25.32 4.14 1.78-13.86-11.18-9.98-10.46-5.97 10.06 56.25-52.25 33.33-43.98 58.77 0 0 29.91 10.44 64.66-7.11l26.58-5.53c.26-14.58-5.01-21.91-4.92-23.21Z" class="ah"/><path d="M437.65 392.26c12.66 2.13 15.09-.39 12.43-5.5 7.71.28 8.89-4.22 6.97-7.06 7.33-1.17 6.33-6.84-3.95-7.87-5.74-.37-18.86 19.86-15.45 20.44Z" class="ac"/><path d="M355.03 248.48c1.61-1.18 10.11 4.98 7.75 6.06-1.42.67-7.64 9.22-11.42 15.14-2.3 3.66-6.81 2.22-6.22.89 4.02-9.22 7.69-20.5 9.88-22.1Z" class="af"/><path d="M362.17 247.11c1.3-1.49 9.8 2.74 7.8 4.28-1.21.94-5.7 10.47-8.35 16.97-1.59 4.02-5.84 3.51-5.5 2.11 2.45-9.72 4.29-21.39 6.05-23.36" class="af"/><path d="M337.95 265.24c2.98-3.5 5.68-10.26 7.74-11.62 1.74-1.16 6.83-6.66 11.11-9.5 3.94-2.59 17.13-18.16 30.73-50.52 13.1.34 26.22.72 39.29.9-16.26 22.1-45.94 35.46-43.4 49.37 1.34 7.46-4.14 13.72-1.26 25.31 1.36 5.39-5.59 5.95-9.35-10.17-.91-4.02-11.98-3.1-13.73-2.87-2.79.36-10.54 6.39-14.11 10.47-1.42 1.61-11.68 4.06-7.02-1.38Zm-6.79-130.23c8.5-5.34 21.96 12.21 23.93 14.82 6.54 8.63 37.39-21.26 27.8-30.1-8.31-7.68-3.68-21.48-3.68-21.48-6.32-2.67-32.01-38.36-48.05 36.76" class="aa"/><path d="M327.64 27.9c-26.72 7.59-34.71 28.15-28.02 50.4 1.51 5.05-.88 14.23-6.89 20.7-2.16 2.34-2.14 5.13-.78 6.78 2.66 3.28 7.7 2.71 9.94 3.82 4.99 2.4.65 6.3 4.53 9.38 1.77 1.38 6.16-1.29 2.15 7.81 5.82 3.28-2.24 13.87 11.85 13.66 7.38-.12 36.55-21.26 39.82-27.75 3.41-6.79 1.27-18.3 1.27-18.3 20.22-8.5 25.74-27.53 19.3-45.98-8.98-25.78-35.9-25.46-53.17-20.51Z" class="y"/><path d="M306.42 118.97c2.68 1.24 1.86 3.83 1.86 3.83-1.25.13-1.16 4.22.66 4 6.37-.78 11.66-6.95 13.22-10.45-9.99.73-21.39-2.43-15.74 2.62" class="af"/><path d="M306.42 118.97s1.32 3.37 1.86 3.83c1.97-.26 8.33-2.47 12.03-5.58z" class="ab"/><path d="M369.85 35.43c-22.28-26.59-71.69-2.86-74.58 4.68-1.03 2.71 1.22 8.82 3.75 12.59 8.14-.97 23.58-9.71 34.93-5.96 16.86 5.59 1.93 40.37 16.92 40.34 2.39 0 28.67-38.22 18.98-51.65" style="fill:url(#j)"/><path d="M382.75 33.34c-6.5-8.62-18.76-18.17-44.1-15.06-22.9 2.82-40.48 14.28-43.38 21.83 8.4-1.04 32.83-14.79 47.2-6.5 22.32 12.94 6.38 36.14 12.61 48.74 9.78 19.74 22.78 23.92 22.78 23.92 14.74-13.4 21.65-50.6 4.9-72.94Z" style="fill:url(#k)"/><path d="M292.02 105.77c2.39 4.78 14.52 4.39 17.74-2.14-5.87 5.35-19.14-.6-17.74 2.14" class="af"/><path d="M359.01 69.18c-9.92 3.28-10.77 26.5-2.66 30.53 1.17.58 6.78.5 9.12-5.46 1.3-3.27 6.8-7.12 7.01-13.3.25-7.89-3.59-15.08-13.46-11.77Z" class="y"/><path id="l" d="M360 73.34c-2.49 1.18-4.63 4.45-4.91 9.03 8.88-3.55 9.53 6.71 1.5 8.92.37.96.78 1.94 1.31 2.9 2.82-4.5 7.17-4.06 9.46-10.27 2.06-5.66-1.24-13.53-7.37-10.58Z" class="af" data-name="Path"/><path d="M322.58 82.4c.27 1.46-3.81 7.26-9.65 8.5-3.32.64-4.81-1.78-5.84-4.46-1.85-11.03 11.66-8.66 15.49-4.04" class="ab"/><path id="n" d="M306.72 85.03c.83 8.09 10.21 6.94 9.38-1.14-.77-7.5-10.14-6.35-9.38 1.14" data-name="Path" style="fill:url(#m)"/><path id="o" d="M307.68 84.54c.41 4.06 5.1 3.47 4.65-.54-.36-3.75-5.06-3.22-4.65.54" class="z" data-name="Path"/><path id="p" d="M310.41 82.58c.16 1.69 2.89 1.38 2.71-.34-.17-1.55-2.88-1.26-2.71.34" class="ad" data-name="Path"/><path d="M322.58 82.4c-3.04-4.72-16-6.86-15.65-.02 1.32-4.78 10.9-3.42 15.65.02" class="af"/><path id="q" d="M323.83 70.64c-6.16-2.89-17.22-1.73-21.09 1.27-.85.57.08 3.9.79 3.52 5.49-3.38 14.74-4.56 20.38-2.24.77.27.83-2.17-.09-2.55Z" class="ae" data-name="Path"/><path d="M363.01 62.14c-4.7-3.45-19.7-.85-23.21 3.98-6.5 9.03-3.16 38.22 6.21 43.63 5.02 2.93 18.99-.64 21.52-6.07 6.37-13.53 4.18-35.12-4.52-41.54m-21.26 10.61c-2.72-4.1 5.5-9.82 8.24-5.73 2.69 4.12-5.54 9.84-8.24 5.73m11.45 33.35c-3.6 4.51-12.33-2.54-8.76-7.11 3.61-4.54 12.36 2.54 8.76 7.11m10.53-36.33c-2.21 4.76-11.52.57-9.35-4.23 2.19-4.77 11.53-.59 9.35 4.23" class="ac"/><path d="M317.35 143.46c-2.39 1.53-5.34-2.44-4.55-4.1 3.44-7.33 25.25-32.07 32.5-37.35 3.05-2.18 5.66 2.13 4.57 4.14-4.26 7.94-25.78 32.94-32.51 37.31Z" class="aj"/><path d="M316.29 25.4c-1.6-2.86 2.65-5.31 4.39-4.13 7.62 5.14 33.33 33.62 38.73 42.54 1.7 2.74-1.98 5.9-4.38 4.14-8.31-6.18-34.29-34.38-38.74-42.55" class="x"/><path d="M311.02 27.29c-1.08-2.82 3.31-4.86 4.82-3.64 6.58 5.42 27.14 34.1 31.04 42.86 1.64 3.66-3.03 5.24-4.78 3.62-7.1-6.39-27.94-34.82-31.08-42.85Z" class="aj"/><path d="M385.22 101.31c16.83 66.29 6.33 89.92-20.85 75.78-8.62-4.5-21.65-12.51-16.28-28.66 2.16-11.84 10.37-35.86 37.13-47.12m41.47 210.14c-14.81-11.08-14.99-38.7-43.94-26.39-13 16.87-9.46 26.26-5.26 34 3.33 6.14 6.63 29.54 20.09 71.21l28.67-2.69c-9.71-27.69 4.38-44.59-4.75-65.69-1.38-3.22-1.83-5.54 5.19-10.45Z" class="aa"/><path d="M496.44 205.74c-30.87-19.97-34.95-88.57-83.55-109.49-17.84-7.68-35.98 8.53-36.27 19.99-.42 16.98-13.92 42.92-27.29 26.8-1.3 1.7-1.23 5.38-1.23 5.38 29.9 79.46 102.8 71.45 81.94 82.82-24.93 13.61-38.1 41.23-47.28 53.81 17.33 4.33 29.52 15.49 43.94 26.39 21.29-15.03 37.46-27.11 57.67-35.53 31.07-12.94 37.13-53.99 12.07-70.18Z" class="ac"/><path d="M431.39 118.6c13.89 34.23-11.14 50.57-33.3 29.62-35.96-33.9 15.91-72.48 33.3-29.62" class="aa"/><path d="m427.83 395.01-28.85.67-1.47-8.53 28.27-3.38s3.55 6.72 2.05 11.23Z" class="ai"/><path d="m409.07 441.68 24.57-2.18c3.59-.31.94-5.41.94-5.41s-19.55-10.7-91.73 2.51c0 0 14.6 21.8 66.22 5.08" class="ac"/><path d="M431.95 410.4c.98-6.22-2.21-23.11-4.46-21.78-4.32 2.56-21.46 3.33-25.51 1.34 3.1-13.64-10.12-11.2-9.78-7.13 4.48 57.21-55.08 27.49-49.34 53.77 0 0 28.66 13.72 64.81.05l26.91-2.56c1.66-14.5-2.82-22.39-2.62-23.69Z" class="ah"/><path d="M374.81 418.91c12.35 3.53 14.98 1.28 12.85-4.11 7.62 1.13 9.24-3.23 7.6-6.28 7.36-.36 6.94-6.13-3.14-8.3-5.65-1-20.61 17.72-17.3 18.69Z" class="ac"/><path d="M283.47 163.24c-2.54-.99-13.37 3.54-22.86 6.22-1.34.39.26 5.86 4.45 5.48 6.81-.55 17.06-.63 18.44.3 2.26 1.54 1.86-11.24-.03-11.99Zm-7.5-15.51c-1.19-2.13-11.38-5.06-19.57-8.5-1.15-.5-3.17 4.22-.02 6.32 5.08 3.44 12.31 9.17 12.74 10.59.7 2.38 7.76-6.82 6.85-8.41" class="af"/><path d="M369.25 209.2c3.78.49 22.5-13.94 56.26-82.34 12.66-25.68-24.64-39.63-38.72-14.59-20.5 36.46-29.54 61.94-29.54 61.94-14.8-4.79-56.4-4.85-58.5-6.29-4.55-3.18-21.6-19.8-23.06-21.21-1.93-1.88-13.7-1.86-23.49-3.05-1.38-.16-2.06 5.47 1.91 6.77 6.51 2.06 16.02 5.98 16.94 7.35 1.47 2.3 3.67 17.58 13.77 20.97 14.89 1.9 53.89 26.63 84.43 30.45" class="aa"/></svg>