<svg xmlns="http://www.w3.org/2000/svg" data-name="Layer 1" style="" viewBox="0 0 512 304"><g><defs><radialGradient id="1770301554961-2392541_b" cx="218.94" cy="127.99" r="188.76" fx="218.94" fy="127.99" gradientTransform="matrix(1.07 0 0 -1 22.46 315.08)" gradientUnits="userSpaceOnUse"><stop offset=".48" stop-color="#ff3030"></stop><stop offset="1" stop-color="#d40000"></stop></radialGradient><radialGradient id="1770301554961-2392541_c" cx="218.94" cy="234.98" r="178.9" fx="218.94" fy="234.98" gradientTransform="matrix(1.07 0 0 -1 22.46 315.08)" gradientUnits="userSpaceOnUse"><stop offset=".48" stop-color="#ff3030"></stop><stop offset="1" stop-color="#bd0000"></stop></radialGradient></defs><path d="M256 70.19c-53.85 0-256 88.23-256 88.23C48.06 218.12 76.63 304 256 304s207.94-85.89 256-145.58c0 0-202.15-88.23-256-88.23" fill="url(#1770301554961-2392541_b)"></path><path d="M256 35.74 34.14 155.58c129.28-8.78 131.02 35.73 221.86 35.73s92.58-44.51 221.86-35.73z" fill="#1a1626"></path><path d="M256 53.06s-105.84-15.69-137.13 60.77c9.13 21.34 22.14 34.78 70.64 20.46 24.81 9.27 45.43 13.86 66.49 7.44 21.06 6.42 41.68 1.83 66.49-7.44 48.5 14.33 61.51.89 70.64-20.46C361.84 37.37 256 53.06 256 53.06" fill="#fff"></path><path d="M361.65 3.93C312.6-11.17 256 22.15 256 22.15S199.4-11.18 150.35 3.93C87.05 23.04 0 158.42 0 158.42c129.82 11.6 117.7-36.65 178.25-57.59 20.14-6.98 49.75 6.67 77.75 6.67s57.61-13.65 77.75-6.67c60.55 20.94 48.43 69.19 178.25 57.59 0 0-87.06-135.38-150.35-154.5Z" fill="url(#1770301554961-2392541_c)"></path></g></svg>
