<svg xmlns="http://www.w3.org/2000/svg" data-name="Layer 1" style="" viewBox="0 0 512 426.67"><g><defs><radialGradient id="1770301555181-1140769_b" cx="310.36" cy="381.11" r="34.6" fx="310.36" fy="381.11" gradientTransform="matrix(1 0 0 -1.01 0 428.49)" gradientUnits="userSpaceOnUse"><stop offset="0" stop-color="#e0e0e0"></stop><stop offset=".33" stop-color="#c6c8c9"></stop><stop offset=".87" stop-color="#92989c"></stop></radialGradient><radialGradient id="1770301555181-1140769_c" cx="264.46" cy="411.6" r="30.68" fx="264.46" fy="411.6" gradientTransform="matrix(1 0 0 -1.02 -.31 432.46)" gradientUnits="userSpaceOnUse"><stop offset="0" stop-color="#e0e0e0"></stop><stop offset=".33" stop-color="#c6c8c9"></stop><stop offset=".87" stop-color="#92989c"></stop></radialGradient><radialGradient id="1770301555181-1140769_d" cx="201.52" cy="381.11" r="34.59" fx="201.52" fy="381.11" gradientTransform="matrix(1 0 0 -1.01 0 428.49)" gradientUnits="userSpaceOnUse"><stop offset="0" stop-color="#e0e0e0"></stop><stop offset=".33" stop-color="#c6c8c9"></stop><stop offset=".87" stop-color="#92989c"></stop></radialGradient><radialGradient id="1770301555181-1140769_e" cx="213.79" cy="411.6" r="30.69" fx="213.79" fy="411.6" gradientTransform="matrix(1 0 0 -1.02 12.12 432.46)" gradientUnits="userSpaceOnUse"><stop offset="0" stop-color="#e0e0e0"></stop><stop offset=".33" stop-color="#c6c8c9"></stop><stop offset=".87" stop-color="#92989c"></stop></radialGradient><radialGradient id="1770301555181-1140769_g" cx="254.85" cy="-522.61" r="527.4" fx="254.85" fy="-522.61" gradientTransform="matrix(1 0 0 -.38 -.31 -7.27)" gradientUnits="userSpaceOnUse"><stop offset="0" stop-color="#ff66a4"></stop><stop offset=".21" stop-color="#fe63a2"></stop><stop offset=".38" stop-color="#fb599a"></stop><stop offset=".54" stop-color="#f6488e"></stop><stop offset=".68" stop-color="#ef307d"></stop><stop offset=".71" stop-color="#ed2b79"></stop></radialGradient><linearGradient id="1770301555181-1140769_f" x1="255.87" x2="255.87" y1="228.57" y2="361.83" gradientTransform="matrix(1 0 0 -1 -.31 423.04)" gradientUnits="userSpaceOnUse"><stop offset=".54" stop-color="#92989c"></stop><stop offset=".83" stop-color="#c6c8c9"></stop><stop offset="1" stop-color="#e0e0e0"></stop></linearGradient></defs><path d="m283.37 19.66 25.6 25.67h30.14c18.73 0 18.75 21.57 0 21.57h-34.4c-2.76 0-5.49-1.02-7.58-3.12l-28.85-28.96c-4.16-4.17 10.91-19.34 15.09-15.16" fill="url(#1770301555181-1140769_b)"></path><path d="M297.58 22.83c0 30.4-44.97 30.4-44.97 0 0-30.44 44.97-30.44 44.97 0" fill="url(#1770301555181-1140769_c)"></path><path d="m228.52 19.66-25.6 25.67h-30.14c-18.73 0-18.75 21.57 0 21.57h34.39c2.76 0 5.49-1.02 7.57-3.12l28.86-28.96c4.16-4.17-10.91-19.34-15.08-15.16" fill="url(#1770301555181-1140769_d)"></path><path d="M259.27 22.83c0 30.4-44.97 30.4-44.97 0 0-30.44 44.97-30.44 44.97 0" fill="url(#1770301555181-1140769_e)"></path><path d="M439.17 69.29c-26.18-12.88-340.36-12.83-366.45 0-30.22 14.86-56.67 124.19 5.7 124.19h355.06c62.36 0 35.91-109.33 5.69-124.19" fill="url(#1770301555181-1140769_f)"></path><path d="M428.18 91.4c-15.94-11.35-333.93-9.2-344.68 0-16.43 14.09-94.14 199.8-82.27 233.22 8.99 25.2 30.09 83.87 55.43 92.25 42.19 13.92 355.05 12.19 398.38 0 25.67-7.24 46.46-67.05 55.42-92.25 13.32-37.58-63.5-219.83-82.28-233.21Z" fill="url(#1770301555181-1140769_g)"></path></g></svg>
