<svg xmlns="http://www.w3.org/2000/svg" id="a" data-name="Layer 1" viewBox="0 0 512 496"><defs><linearGradient id="c" x1="198.09" x2="198.09" y1="315.39" y2="347.38" gradientTransform="matrix(1 0 0 -1 0 496)" gradientUnits="userSpaceOnUse"><stop offset="0" stop-color="#a6694a"/><stop offset="1" stop-color="#4f2a1e"/></linearGradient><linearGradient id="d" x1="-2606.48" x2="-2606.48" y1="315.39" y2="347.38" gradientTransform="matrix(-1 0 0 -1 -2296.97 496)" gradientUnits="userSpaceOnUse"><stop offset="0" stop-color="#a6694a"/><stop offset="1" stop-color="#4f2a1e"/></linearGradient><style>.g{fill:#732eb0}.h{fill:#6e8189}.j{fill:#fcc7c3}.k{fill:#1a1626}.l{fill:#fc5a4e}.m{fill:#631ba1}.o{fill:#8e3ed6}.p{fill:#3e4a52}.q{fill:#4e5e67}.r{fill:#302c3b}</style></defs><path d="M312.45 326.67c117.34-43.2 94.5-153.83 94.5-153.83H100.54s-22.75 110.62 94.58 153.83c0 0 23.47 5.41 58.66 5.41s58.68-5.41 58.68-5.41Z" class="k"/><path d="M372.41 183.8c12 46.53 5.67 100.59-59.97 142.87 70.42-10.8 105.45-80 105.45-126.97l-45.49-15.9Zm-237.24 0c-12 46.53-5.67 100.59 59.97 142.87-70.41-10.8-105.53-80-105.53-126.97z" class="r"/><path d="M113.97 325.94c11.17-24.16 67.51-31.78 67.51-31.78l148.67-.22s56.77 7.68 67.95 31.96c36.05 78.24-22.38 75.78-22.38 135.5 0 46.12-239.84 46.12-239.84 0 0-59.45-58-57.58-21.92-135.47Z" class="o"/><path d="M181.5 294.17c0 58.49 148.67 58.25 148.67-.22L315.25 289h-118.2z" class="g"/><path d="M192.14 290.64c0 45.78 127.44 45.78 127.44 0V240H192.14z" class="q"/><path d="M181.5 294.17c-23.84 2.23-48.23 6.02-48.23 6.02-48.78-9.94-70.28 12.39-100.95 42.06-18.95 18.33 22.78 83.36 45.66 70.86 18.78-10.25 103.53-118.93 103.53-118.93Z" class="o"/><path d="M95.34 387.2c75.05-7.26 83.83-24.62 51.16-64.46 45 80.11-55.38 26.24-51.16 64.46" class="m"/><path d="M143.31 376.41c-21.62 18.61-89.16 7.64-109.05-17.82-14.54-18.61 31.58-29.67 31.42-34.38-.44-14.02 79.42-3.92 76.83 8.16-1.99 9.25 22.94 24.98.79 44.03Z" class="p"/><path d="M140.52 341.62c-45.1-35.36-101.73-2.25-105.31 8.06-14.49 41.7-40.78 57.62-34.16 66.18 9.66 12.5 12.95 28 16.83 36.97 2.13 4.95 12.13 5 12.14-4.28.02-7.58-1.56-16.03-.54-16.72 14.58 21.23 11.02 33.86 14.67 37.98 4.23 4.83 20.33 5.36 15.74-18.97 0 0 6.83 11.8 8.94 22.14 2.23 10.98 19.53 8.64 20.75-4.18 1.03-11.02-6.92-31.08-6.92-31.08s6.53 9.94 12.61 22.89c3.39 7.23 12.82 1.86 14.77-10 2.47-15.03-11.58-44.72-11.02-48.58 1.31-9.23 9.58-6.46 18.39-17.14 0 0-9.97 19.13-.67 37.05 6.16 11.84 19.17 8.06 17.62.18-4.64-23.77 8.98-24.84 8.98-37.23 0-11.33 6.81-35.74-2.82-43.28Z" class="h"/><path d="M29.09 452.8c1.25-17.77-10.34-36.31-9.31-39.14 1.54-4.22 4.34-10.86 8.66-18.16 1.25 4.16-5.87 14.95-3.86 21.66 1.34 4.5 11.34 24.18 4.51 35.65Zm29.43 15.26c4.58-17.49-16.2-46.77-15.17-49.59 1.54-4.22 6.61-17.59 9.61-31.26-.44 17.64-4.13 24.38-4.69 32.02-.53 7.23 19.64 33.99 10.25 48.84Zm29.41 5.99c4.56-17.47-11.64-47-12.47-49.89-2.74-9.38-2.78-25.56.23-39.25-.46 17.66.64 29.22 4.02 39.51 2.24 6.81 17.6 34.79 8.22 49.62Z" class="p"/><path d="M330.5 294.17c23.84 2.23 48.22 6.02 48.22 6.02 48.8-9.94 70.3 12.39 100.95 42.06 18.97 18.33-22.77 83.36-45.64 70.86-18.8-10.25-103.53-118.93-103.53-118.93Z" class="o"/><path d="M416.66 387.2c-75.05-7.26-83.83-24.62-51.16-64.46-45 80.11 55.38 26.24 51.16 64.46" class="m"/><path d="M368.68 376.41c21.64 18.61 89.16 7.64 109.06-17.82 14.54-18.61-31.58-29.67-31.44-34.38.46-14.02-79.41-3.92-76.82 8.16 1.99 9.25-22.95 24.98-.81 44.03Z" class="p"/><path d="M371.48 341.62c45.1-35.36 101.72-2.25 105.31 8.06 14.49 41.7 40.78 57.62 34.16 66.18-9.67 12.5-12.95 28-16.83 36.97-2.14 4.95-12.13 5-12.14-4.28-.02-7.58 1.56-16.03.54-16.72-14.59 21.23-11.03 33.86-14.67 37.98-4.25 4.83-20.33 5.36-15.74-18.97 0 0-6.83 11.8-8.94 22.14-2.23 10.98-19.54 8.64-20.75-4.18-1.03-11.02 6.92-31.08 6.92-31.08s-6.54 9.94-12.61 22.89c-3.39 7.23-12.82 1.86-14.77-10-2.49-15.03 11.56-44.72 11.02-48.58-1.31-9.23-9.58-6.46-18.39-17.14 0 0 9.97 19.13.66 37.05-6.14 11.84-19.16 8.06-17.62.18 4.66-23.77-8.97-24.84-8.97-37.23 0-11.33-6.81-35.74 2.82-43.28Z" class="h"/><path d="M482.89 452.8c-1.25-17.77 10.34-36.31 9.31-39.14-1.53-4.22-4.34-10.86-8.66-18.16-1.23 4.16 5.87 14.95 3.87 21.66-1.34 4.5-11.34 24.18-4.53 35.65Zm-29.43 15.26c-4.58-17.49 16.2-46.77 15.17-49.59-1.53-4.22-6.59-17.59-9.61-31.26.46 17.64 4.14 24.38 4.7 32.02.53 7.23-19.64 33.99-10.26 48.84Zm-29.39 5.99c-4.58-17.47 11.64-47 12.47-49.89 2.72-9.38 2.78-25.56-.23-39.25.44 17.66-.64 29.22-4.02 39.51-2.24 6.81-17.6 34.79-8.22 49.62Z" class="p"/><path d="M88.42 303.59c9.14-.82 22.46.53 26.31-3.8-2.2-6.62 1.72-10.75 1.72-10.75s-28.44 2.12-28.03 14.55" class="o"/><path d="M90.83 304.46c-8.3 3.59-18.97 10.98-24.72 9.1-1.83-6.72-7.51-8.41-7.51-8.41s25.58-11.57 32.23-.69" class="o"/><path d="M99.71 301.74c-8.31 3.59-12.25 6.67-18 4.78-1.83-6.72-.02-14.78-.02-14.78s11.36-.88 18.02 10" class="g"/><path d="M117.07 299.8c-10.44 1.59-13.47 14.14-38.77 19.17-9.42 1.33-13.06-5.47-13.06-5.47s25.58-17.86 51.83-13.7" class="q"/><path d="M118.81 299.8c-10.44 1.59-12.28 8.94-25.02 14.17-3.8-5.8-16.92-4.82-16.92-4.82s15.68-13.51 41.94-9.35" class="h"/><path d="M98.03 317.5c-8.3 3.59-25.13 9.08-32.3 4.69-1.83-6.7-11.53-9.06-11.53-9.06s37.18-6.5 43.82 4.38Zm233.19 97.66c-7.61 8.56-4.74 25.26.54 27.78 7.59-6.89 25.59-1.47 25.59-1.47s-12.37-28.63-26.14-26.31Zm-7.21 4.13c-4.98-9.06-19.74-16.7-18.3-25.83 17.8-1.64 17.72-20.54 17.72-20.54s18.38 24.55.58 46.38Z" class="g"/><path d="M312.42 401.49c-2.89 5.11-20.22 4.51-26.41-6.84 1.82-9.74-2.39-22.92-2.39-22.92s21.1-.07 28.8 29.76" class="m"/><path d="M299.12 433.47c-8-11.17-23.69-1.77-33.86-16.46 8.7-6.1 20.75-22.38 20.75-22.38s20.6 22.46 13.1 38.83Z" class="g"/><path d="M331.78 442.93c-12.13-.97-15.16 11.23-28.66 16.56 2.61-11.82-4-26.03-4-26.03s32.7-19.4 32.66 9.47m-12.04-35.64c1.98 12.03 5.47 17.8 10.75 20.3 7.13-7.31 24.13-15.44 24.13-15.44s-21.06-13.48-34.88-4.86" class="m"/><path d="M330.94 436.05c-15.92-10.84-31.1-3.42-31.1-3.42s1.23-13.86-12.03-36.02c10.3 4.42 24.59 4.87 24.59 4.87s21.5 9.57 18.54 34.57" class="q"/><path d="M330.94 436.05c-15.92-10.84-31.83-2.58-31.83-2.58s-.92-15.17-8.89-32.66c16.27 12.9 32.14.66 40.72 35.23Z" class="h"/><path d="M208.68 417.14c-16.54 17.34-15.51 28.78.47 30.14 16 1.34 10.61-41.78-.47-30.14" class="g"/><path d="M216.96 435.45c-10.41 3.74-10.7 19.86.34 20.8 11.03.91 20.41-28.26-.34-20.8m-43.44-8.08c-5.89-4.78-7.34 13.59.23 14.23s19.19 1.49-.23-14.23" class="g"/><path d="M192.55 449.5c-7.95 4.86-5 9.28.16 9.72 5.17.43 4.28-12.42-.16-9.72m-34.8-48.69c6.34-.62 24.78-9.22 5.82-23.61-5.1-3.86-12.16 24.23-5.82 23.61" class="m"/><path d="M320.62 358.56c5.11-2.42 13.62-6.98-2.1-10.41-5.53-1.2-20.53 21.19 2.1 10.41" class="g"/><path d="M414.35 348.09c5.62-.56 28.58-2.16 23.5-4.67-16.75-8.28-29.14 5.22-23.5 4.67m13.74 8.78c-6.74 4.38 25.03 13.3 28.5 6.03 1.35-2.84-13.76-15.62-28.5-6.03" class="q"/><path d="M225.24 369.34c8.49 0-4.33-15.98-25.75-15.98-8.48 0-2.58 16.02 25.75 15.98" class="g"/><path d="M79.95 353.62c-3.98 10.56 23.86 11.03 27.86.47 3.99-10.58-23.87-11.03-27.86-.47m4.72 18.39c-1.87 5 11.28 5.2 13.17.22 1.9-5-11.28-5.22-13.17-.22m22.32-6.87c-1.28 3.41 7.7 3.56 8.98.16 1.3-3.43-7.69-3.57-8.98-.16" class="q"/><path d="M253.79 1.66c-85.39 0-126.51 69.54-121.37 158.95 1.05 17.97 6.05 43.89 12.22 66.11 12.8 46.17 80.38 92.67 109.16 92.67s96.34-46.5 109.16-92.67c6.17-22.22 11.17-48.14 12.23-66.11 5.11-89.41-36-158.95-121.4-158.95" class="h"/><path d="M349.66 125.58c-19.49-9.66-56.74-10.14-70.61-3.41-2.97 1.31-1.02 10.49 1.49 9.59 19.36-7.16 50.54-7.33 68.66.62 2.4 1.02 3.42-5.45.46-6.81Zm-191.73 0c19.47-9.66 56.72-10.14 70.61-3.41 2.97 1.31 1.02 10.49-1.49 9.59-19.38-7.16-50.54-7.33-68.67.62-2.4 1.02-3.4-5.45-.45-6.81Z" class="r"/><path d="M289.06 276.05c0 12.47-15.78 17.05-35.25 17.05s-35.23-4.58-35.23-17.05c0-47.83 70.48-47.83 70.48 0" class="k"/><path d="M299.29 139.62c-41.7 12.83-16.41 71.54 25.3 58.72 41.7-12.82 16.41-71.53-25.3-58.72m-90.97 0c-41.72-12.82-67.02 45.89-25.33 58.72 41.72 12.82 67.02-45.89 25.33-58.72m-17.15 84.41c-8.59-.72-8.33 15.46.25 16.17 8.59.72 8.33-15.45-.25-16.17m-14.69 5.48c-4.06-.34-3.94 7.3.13 7.66 4.06.34 3.93-7.31-.13-7.66m6.02 11.88c-2.77-.23-2.69 4.98.08 5.22 2.78.23 2.69-4.98-.08-5.22m122.48 28.92c5.56 6.58 16.82-5.03 11.26-11.61-5.56-6.59-16.81 5.03-11.26 11.61m14.26 6.51c2.62 3.11 7.95-2.38 5.33-5.5-2.64-3.11-7.95 2.39-5.33 5.5m4.14-12.66c1.78 2.13 5.42-1.62 3.62-3.75s-5.42 1.62-3.62 3.75" class="q"/><path id="b" d="M277.57 213.87c-2.51-1.75-8.42.95-23.82.95s-21.28-2.7-23.8-.95c-3.02 2.13 1.78 11.69 23.8 11.69s26.85-9.56 23.82-11.69" class="q" data-name="Path"/><path d="M283.3 283.1c0 12.47-13.23 17.05-29.53 17.05s-29.51-4.58-29.51-17.05c0-19.62 59.04-19.62 59.04 0" style="fill:#f46c60"/><path d="m253.81 286.05 4.69-17.49c-3.11-.22-6.26-.22-9.36 0z" style="fill:#e03636"/><path d="M168.58 164.61c0-24 55.78-24 55.78 0 0 32-55.78 32-55.78 0" class="j"/><path d="M197.02 183.66c-.31 1.16-3.05 3.16-3.17 2.39-.23-1.36-1.34-4.1 1.22-5.44-3.49 1.47-1.58 5.78-1.5 6.17.05.26-.02 1.13-.06 1.7.16.02.33.03.5.05l-.03-1.92s2.7-.67 3.05-2.95Zm6.2 3.48c.75-.25.8-4.86-2.95-5.94 2.75 1 2.92 4.3 2.66 5.38-.14.59-3.08-.9-3.39-1.82.34 1.78 3.25 2.25 3.25 2.25l-.03 1.05c.13-.03.25-.05.38-.08-.06-.39-.07-.8.1-.84Zm6.41-6.11c.28 1.17-1.18 4.22-1.66 3.61-.86-1.1-3.13-2.98-1.5-5.38-2.38 2.94 1.34 5.84 1.59 6.14.11.16.33.61.53 1.06.14-.06.28-.11.42-.17l-.67-1.22s2.07-1.89 1.29-4.06Zm5.99-.17c.54-.56-1.67-4.7-5.49-3.95 2.9-.38 4.66 2.5 4.97 3.58.16.61-3.14.61-3.86-.05 1.17 1.42 3.94.51 3.94.51l.74 1.44c.13-.1.26-.2.39-.31-.34-.37-.86-1.02-.69-1.22m2.11-9.33c1.06.98 1.59 5.05.72 4.74-1.58-.53-5.11-.92-5.06-4.41-.46 4.53 5.22 4.98 5.67 5.13.23.08.8.42 1.31.75.11-.16.22-.3.33-.46l-1.58-.83s.82-3.25-1.39-4.92m4.84-4.07c.18-.98-4.49-3.7-7.72-.16 2.59-2.49 6.05-.75 6.98.16.53.5-2.69 2.9-3.78 2.74 2 .64 4.16-2.33 4.16-2.33l1.78 1.1c.05-.22.08-.46.11-.69-.55-.14-1.6-.47-1.54-.82Zm-3.95-7.72c1.3.34 3.53 3.44 2.67 3.58-1.53.25-4.61 1.49-6.1-1.41 1.62 3.92 6.49 1.8 6.9 1.72.34-.06 1.66.06 2.23.11-.02-.2-.03-.39-.05-.59l-2.38.03s-.73-3.05-3.29-3.44Zm-27.63 24.36c-.31.89-3.17 2.41-3.31 1.82-.23-1.05-.03-4.31 2.64-5.33-3.62 1.1-3.64 5.66-2.92 5.89.18.06.14.54.06 1 .13.03.25.05.38.1l-.02-1.22s2.81-.51 3.17-2.26m-6.21-7.79c2.1 3.08-.8 5.49-1.86 6.87-.61.78-2.51-3.14-2.16-4.62-1 2.77 1.67 5.17 1.67 5.17l-.84 1.53c.17.1.34.17.53.25.25-.56.51-1.16.67-1.34.31-.36 5.06-4.06 1.98-7.85Zm-5.23 1.49c-.78.72-3.94 1.2-3.69.61.44-1.05 2.54-4.02 5.25-4.08-3.51-.16-6.23 4.05-5.82 4.5.14.16-.44.84-.83 1.25.1.1.2.18.3.3l.94-1.51s2.54.45 3.86-1.06Zm1.16-9.63c.28 3.89-4.47 4.13-6.56 4.62-1.17.3-.67-4.2.7-5.23-2.9 1.72-1.59 5.41-1.59 5.41l-2.77 1.11c.1.22.2.44.31.67.74-.39 2.11-1.1 2.56-1.2.59-.13 8.22-.3 7.34-5.38Zm-5.09-2.81c-1.42.56-4.98-1.44-4.22-2.25 1.39-1.46 6.14-4.77 8.9-2.46-3.36-3.46-9.86 1.5-9.84 2.69.02.39-1.13 1.05-1.87 1.42 0 .25.02.5.02.75l2.25-1.77s2.09 3.08 4.76 1.61Z" class="l"/><path d="M182.09 164.02c0 22.13 32 22.13 32 0 0-20.53-32-20.53-32 0" style="fill:url(#c)"/><path d="M191.43 164.36c0 9.18 13.3 9.18 13.3 0 0-8.52-13.3-8.52-13.3 0" class="k"/><path d="M224.37 164.64v-.03c0-32-55.78-32-55.78 0v.03c11.21-8.46 45.77-7.54 55.78 0" class="p"/><path d="M339.01 164.61c0-24-55.78-24-55.78 0 0 32 55.78 32 55.78 0" class="j"/><path d="M310.57 183.66c.3 1.16 3.05 3.16 3.16 2.39.23-1.36 1.34-4.1-1.22-5.44 3.5 1.47 1.58 5.78 1.5 6.17-.05.26.02 1.13.06 1.7-.16.02-.33.03-.49.05l.02-1.92s-2.71-.67-3.04-2.95Zm-6.2 3.48c-.75-.25-.8-4.86 2.94-5.94-2.75 1-2.9 4.3-2.66 5.38.14.59 3.08-.9 3.39-1.82-.34 1.78-3.25 2.25-3.25 2.25l.03 1.05c-.13-.03-.23-.05-.36-.08.06-.39.07-.8-.1-.84Zm-6.43-6.11c-.28 1.17 1.2 4.22 1.67 3.61.84-1.1 3.11-2.98 1.49-5.38 2.39 2.94-1.34 5.84-1.59 6.14-.11.16-.33.61-.53 1.06-.14-.06-.28-.11-.42-.17l.67-1.22s-2.06-1.89-1.29-4.06Zm-5.98-.17c-.53-.56 1.69-4.7 5.49-3.95-2.89-.38-4.66 2.5-4.95 3.58-.17.61 3.13.61 3.84-.05-1.16 1.42-3.94.51-3.94.51l-.74 1.44c-.13-.1-.25-.2-.38-.31.33-.37.86-1.02.67-1.22Zm-2.11-9.33c-1.05.98-1.59 5.05-.72 4.74 1.58-.53 5.13-.92 5.06-4.41.46 4.53-5.22 4.98-5.67 5.13-.23.08-.8.42-1.31.75-.11-.16-.22-.3-.31-.46l1.56-.83s-.82-3.25 1.39-4.92m-4.84-4.07c-.18-.98 4.49-3.7 7.74-.16-2.59-2.49-6.06-.75-7 .16-.53.5 2.69 2.9 3.78 2.74-2 .64-4.16-2.33-4.16-2.33l-1.78 1.1c-.03-.22-.06-.46-.1-.69.54-.14 1.58-.47 1.52-.82m3.95-7.72c-1.3.34-3.51 3.44-2.67 3.58 1.53.25 4.61 1.49 6.11-1.41-1.62 3.92-6.49 1.8-6.92 1.72-.34-.06-1.64.06-2.22.11 0-.2.02-.39.05-.59l2.36.03s.74-3.05 3.29-3.44m27.64 24.36c.31.89 3.16 2.41 3.3 1.82.23-1.05.03-4.31-2.64-5.33 3.64 1.1 3.64 5.66 2.92 5.89-.18.06-.14.54-.05 1-.14.03-.26.05-.39.1l.02-1.22s-2.81-.51-3.15-2.26Zm6.21-7.79c-2.1 3.08.8 5.49 1.87 6.87.59.78 2.5-3.14 2.16-4.62.98 2.77-1.67 5.17-1.67 5.17l.83 1.53c-.17.1-.34.17-.51.25-.25-.56-.53-1.16-.67-1.34-.34-.36-5.07-4.06-2.01-7.85Zm5.21 1.49c.78.72 3.94 1.2 3.7.61-.46-1.05-2.54-4.02-5.26-4.08 3.53-.16 6.25 4.05 5.82 4.5-.14.16.44.84.83 1.25-.1.1-.18.18-.28.3l-.95-1.51s-2.53.45-3.86-1.06Zm-1.16-9.63c-.26 3.89 4.47 4.13 6.56 4.62 1.17.3.67-4.2-.69-5.23 2.9 1.72 1.58 5.41 1.58 5.41l2.78 1.11c-.11.22-.22.44-.33.67-.72-.39-2.11-1.1-2.56-1.2-.59-.13-8.22-.3-7.34-5.38m5.1-2.81c1.42.56 4.98-1.44 4.22-2.25-1.39-1.46-6.14-4.77-8.9-2.46 3.36-3.46 9.86 1.5 9.84 2.69 0 .39 1.13 1.05 1.87 1.42 0 .25 0 .5-.02.75l-2.23-1.77s-2.09 3.08-4.78 1.61Z" class="l"/><path d="M325.5 164.02c0 22.13-32 22.13-32 0 0-20.53 32-20.53 32 0" style="fill:url(#d)"/><path d="M316.17 164.36c0 9.18-13.3 9.18-13.3 0 0-8.52 13.3-8.52 13.3 0" class="k"/><path d="M283.22 164.64v-.03c0-32 55.78-32 55.78 0v.03c-10.82-12.03-40.14-18.9-55.78 0" class="p"/><path d="M114.83 106.97c-31.66 26.47-42.17 111.2-18.02 158.44-6.17-47.49 21.44-72.82 21.44-72.82z" class="r"/><path d="M185.81 9.99c-55.3 17.69-108.16 83.2-106.42 150.18 21.54-56.42 58.97-53.95 58.97-53.95zM349.6 66.13V27.67c23.56-7.31 74.84 50.75 80.22 118.41-24.59-57.58-80.22-79.95-80.22-79.95" class="r"/><path d="m390.21 81.31-30.36 35.82s51.75 74.13 47.89 158.29c33.19-85.42 19.02-159.37-17.53-194.11" class="r"/><path d="M349.6 27.67c9.74-12.78-72.62-39.78-150.36-21.53C121.57 22.5 89.6 129.63 89.6 199.7c6.49 5.08 37.67-7.58 45.56-15.9 3.22-12.26 8.3-24.87 13.03-37.95 58.31-31.1 124.31-38.41 170.13-75.62-5.86 16.22 25.18 36.64 41.08 75.62 5.14 12.64 9.75 25.31 13.02 37.95 12.94 10.97 28.14 16.16 45.49 15.9 0-59.25-37.16-180.29-68.3-172.03Z" class="r"/><path d="M102.65 189.05c50.11-65.86 216.87-61.41 246.95-161.37-58.41 83.9-233.26 98.06-246.95 161.37" class="k"/></svg>