<svg xmlns="http://www.w3.org/2000/svg" data-name="Layer 1" style="" viewBox="0 0 512 640.01"><g><defs><linearGradient id="1770301554985-6030624_b" x1="407.1" x2="407.1" y1="114.03" y2="598.11" gradientTransform="matrix(1 0 0 -1 0 642)" gradientUnits="userSpaceOnUse"><stop offset=".05" stop-color="#473834"></stop><stop offset=".23" stop-color="#594640"></stop><stop offset=".52" stop-color="#715950"></stop><stop offset=".7" stop-color="#7a6056"></stop></linearGradient><linearGradient id="1770301554985-6030624_c" x1="1165.92" x2="1165.92" y1="114.03" y2="598.11" gradientTransform="rotate(180 635.405 321)" gradientUnits="userSpaceOnUse"><stop offset=".05" stop-color="#473834"></stop><stop offset=".23" stop-color="#594640"></stop><stop offset=".52" stop-color="#715950"></stop><stop offset=".7" stop-color="#7a6056"></stop></linearGradient><linearGradient id="1770301554985-6030624_d" x1="362.98" x2="412.85" y1="49.74" y2="49.74" gradientTransform="matrix(1 0 0 -1 0 642)" gradientUnits="userSpaceOnUse"><stop offset="0" stop-color="#ffe12c"></stop><stop offset=".29" stop-color="#ffda25"></stop><stop offset=".69" stop-color="#ffc813"></stop><stop offset="1" stop-color="#ffb600"></stop></linearGradient><linearGradient id="1770301554985-6030624_f" x1="-616.6" x2="-616.6" y1="428.02" y2="419.93" gradientTransform="matrix(6.57 0 0 6.57 4235.16 -2495.38)" gradientUnits="userSpaceOnUse"><stop offset="0" stop-color="#a6694a"></stop><stop offset="1" stop-color="#4f2a1e"></stop></linearGradient><linearGradient id="1770301554985-6030624_l" x1="-597.48" x2="-597.48" y1="428.02" y2="419.93" gradientTransform="matrix(6.57 0 0 6.57 4252.89 -2495.38)" gradientUnits="userSpaceOnUse"><stop offset="0" stop-color="#a6694a"></stop><stop offset="1" stop-color="#4f2a1e"></stop></linearGradient><linearGradient id="1770301554985-6030624_q" x1="256.01" x2="256.01" y1="114.04" y2="598.12" gradientTransform="matrix(1 0 0 -1 0 642)" gradientUnits="userSpaceOnUse"><stop offset=".05" stop-color="#473834"></stop><stop offset=".23" stop-color="#594640"></stop><stop offset=".52" stop-color="#715950"></stop><stop offset=".7" stop-color="#7a6056"></stop></linearGradient><linearGradient id="1770301554985-6030624_r" x1="208.53" x2="303.46" y1="554.84" y2="554.84" gradientTransform="matrix(1 0 0 -1 0 642)" gradientUnits="userSpaceOnUse"><stop offset="0" stop-color="#ffe12c"></stop><stop offset=".29" stop-color="#ffda25"></stop><stop offset=".69" stop-color="#ffc813"></stop><stop offset="1" stop-color="#ffb600"></stop></linearGradient></defs><path d="M336.87 519.91c161.79-64.7 124.29-218.42 124.29-218.42H50.86S13.33 455.2 175.11 519.91c0 0 32.37 8.09 80.87 8.09s80.9-8.09 80.9-8.09Z" class="z" fill="#473834"></path><path d="M419.56 317.92c12.5 52.61-16.59 155.73-82.69 202.01 97.09-16.19 140.46-107.85 140.46-178.19z" fill="url(#1770301554985-6030624_b)"></path><path d="M92.46 317.92c-12.5 52.61 16.57 155.73 82.67 202.01-97.09-16.19-140.46-107.86-140.46-178.2z" fill="url(#1770301554985-6030624_c)"></path><path d="M45.38 540.99c25.62-13.74 120.48-48.46 120.48-48.46l180.09-.39s95.8 35.03 121.26 48.82c37.02 19.98 44.8 47.24 44.8 73.01 0 34.71-512 34.71-512 0 0-25.8 8.26-53.08 45.38-72.98Z" class="ac" fill="#006dae"></path><path d="M174.08 511.43 256 562.98l81.92-51.55v-85.7H174.08z" fill="#f5bb51"></path><path d="M102.68 589.62h93.09v9.75h-93.09z" fill="#ffe12c"></path><path d="M195.77 620.52h-93.09v14.71s37.62 3.26 93.09 4.12zm93.69-59.19H256V640l33.46-.2z" class="af" fill="#014d87"></path><path d="M195.77 608.77h-93.09v12.81h10.41l36.13 13.65 36.15-13.65h10.4z" class="ah" fill="#018bc9"></path><path d="m363.89 567.85 7.1-9c9.24 6.77 16.9-1.56 16.9-1.56s7.71 8.32 16.93 1.56l7.07 9c-11.85 7.89 4.15 20.71.36 34.6-5.28 19.25-17.92 17.14-24.36 24.79-6.44-7.65-19.03-5.55-24.31-24.79-3.81-13.88 12.23-26.7.31-34.6" fill="url(#1770301554985-6030624_d)"></path><path d="M174.42 566.62s-30.36-39.63-5.55-79.5c4.25-6.73 5.21-5.86 5.21-5.86 0 26.93 81.92 77.48 81.92 77.48v11.39s-9.94-11.71-40.23-5.96c0 0-3.16-11.83 1.09-22.44-.01.01-22.43 4.3-42.43 24.89Zm163.14 0s30.38-39.63 5.55-79.5c-4.22-6.73-5.18-5.86-5.18-5.86 0 26.93-81.92 77.48-81.92 77.48v21.14s9.92-21.46 40.22-15.71c0 0 3.16-11.83-1.07-22.44 0 .01 22.4 4.3 42.4 24.89" class="ah" fill="#018bc9"></path><path d="M282.95 610.79c0 12.98-20.48 12.98-20.48 0 0-13 20.48-13 20.48 0" class="ac" fill="#006dae"></path><path d="m365.6 497.11 9.54 29.77s81.23 32.96 100.36 41.62c19 8.61 11.31-19.13-3.63-29.14-5.57-3.78-73.22-32.96-106.27-42.25" class="af" fill="#014d87"></path><path d="M400.13 518.67c6.27 11.85-11.65 11.27-18.43-.42-7.52-12.98 11.88-11.98 18.43.42" class="ac" fill="#006dae"></path><path d="m146.4 497.11-9.56 29.77S55.63 559.84 36.48 568.5c-18.98 8.61-11.31-19.13 3.65-29.14 5.57-3.78 73.19-32.96 106.27-42.25" class="af" fill="#014d87"></path><path d="M111.87 518.67c-6.27 11.85 11.65 11.27 18.43-.42 7.52-12.98-11.88-11.98-18.43.42" class="ac" fill="#006dae"></path><path d="M256 66.93c-117.38 0-173.92 95.61-166.86 218.52 1.44 24.68 8.31 60.33 16.79 90.88 17.61 63.48 110.51 127.4 150.07 127.4s132.44-63.91 150.06-127.39c8.48-30.54 15.35-66.19 16.81-90.88C429.92 162.54 373.42 66.93 256 66.93" fill="#ffc940"></path><path d="M255.98 403.96c-27.5-12.11-27.71-.5-70.19 2.36 15.94 18.1 27.69 41.38 70.19 41.38 48.77 0 57.02-26.44 70.23-41.38-42.5-2.86-42.69-14.46-70.23-2.36" fill="#d47706"></path><path d="M198.54 410.82c27.73 28.85 87.52 28.48 114.91.02-42.68 4.58-72.2 4.58-114.91-.02" class="ai" fill="#fff"></path><path d="M380.73 244.57c-25.5-15.21-71.25-17.07-89.33-6.71-3.83 2.08-2.82 13.07.5 11.69 25.81-10.73 65.16-11.27 89.4 1.16 3.23 1.62 3.32-3.94-.57-6.14m-249.48 0c25.5-15.21 71.25-17.07 89.38-6.71 3.85 2.08 2.82 13.07-.52 11.69-25.83-10.73-65.12-11.3-89.38 1.16-3.27 1.62-3.34-3.94.52-6.14" fill="#966f42"></path><path d="M282.4 364.94c-2.82-1.96-9.35 1.07-26.42 1.07s-23.58-3.02-26.38-1.07c-3.35 2.36 1.98 13 26.38 13 24.42 0 29.77-10.62 26.42-13" fill="#f0a429"></path><path id="1770301554985-6030624_e" d="M229.9 290.67c.98 7.78-4.29 16.98-18.89 23.87-9.27 4.39-28.57 9.56-53.92-1.14-11.35-4.77-22.44-19.69-21.44-27.94 13.75-25.92 81.38-29.71 94.25 5.21" class="ai" data-name="Path" fill="#fff"></path><circle id="1770301554985-6030624_g" cx="184" cy="290.14" r="26.56" data-name="Oval" fill="url(#1770301554985-6030624_f)"></circle><path id="1770301554985-6030624_h" d="M170.73 289.66c0 18.38 26.56 18.38 26.56 0 0-17.06-26.56-17.06-26.56 0" class="ae" data-name="Path" fill="#1a1626"></path><path id="1770301554985-6030624_i" d="M166.69 282.21c0 7.73 11.13 7.73 11.13 0 0-7.13-11.13-7.13-11.13 0" class="aj" data-name="Path" fill="#ab968c"></path><path id="1770301554985-6030624_j" d="M230.02 291.69c-10.79-34.67-84.35-29.55-94.38-6.23 3.71-29.86 85.17-37.75 94.38 6.23" class="ak" data-name="Path" fill="#45332c"></path><path id="1770301554985-6030624_k" d="M282.12 290.67c-1 7.78 4.27 16.98 18.88 23.87 9.27 4.39 28.57 9.56 53.92-1.14 11.37-4.77 22.44-19.69 21.44-27.94-13.74-25.92-81.39-29.71-94.24 5.21" class="ai" data-name="Path" fill="#fff"></path><circle id="1770301554985-6030624_m" cx="327.41" cy="290.14" r="26.56" data-name="Oval" fill="url(#1770301554985-6030624_l)"></circle><path id="1770301554985-6030624_n" d="M314.14 289.66c0 18.38 26.56 18.38 26.56 0 0-17.06-26.56-17.06-26.56 0" class="ae" data-name="Path" fill="#1a1626"></path><path id="1770301554985-6030624_o" d="M310.1 282.21c0 7.73 11.13 7.73 11.13 0 0-7.13-11.13-7.13-11.13 0" class="aj" data-name="Path" fill="#ab968c"></path><path id="1770301554985-6030624_p" d="M282.01 291.69c10.79-34.65 84.29-29.69 94.36-6.23-3.73-29.86-85.17-37.75-94.36 6.23" class="ak" data-name="Path" fill="#45332c"></path><path d="M388.13 84.11c13.4-19.15-100.15-59.54-207.34-32.25C73.71 76.37 34.67 236.81 34.67 341.73c9.58 7.61 46.89-11.35 57.79-23.81 4.42-18.38 11.41-37.27 17.94-56.83 80.42-46.56 171.41-57.53 234.58-113.25-8.09 24.27 34.73 54.88 56.63 113.25 7.1 18.91 13.46 37.9 17.96 56.83 17.86 16.42 32.15 24.19 57.77 23.81-.01-88.73-46.3-270.02-89.22-257.62Z" fill="url(#1770301554985-6030624_q)"></path><path d="M53.96 325.77c74.06-98.62 292.67-91.94 334.17-241.66C307.56 209.77 74.19 230.95 53.96 325.77" class="z" fill="#473834"></path><path d="M469.16 78.21C429.5 45.38 312.02 0 256.02 0S82.5 45.38 42.86 78.21c-14.69 12.15-17.98 43.81 12.67 54.29 26.08 8.92 374.89 8.92 400.96 0 30.63-10.49 27.34-42.14 12.67-54.29" class="af" fill="#014d87"></path><path d="M256 117.09s-156.75 0-202.42 14.6l2.77 5.71h399.3l2.79-5.71c-45.67-14.6-202.44-14.6-202.44-14.6" class="ac" fill="#006dae"></path><path d="m58.58 137.4-3.54 31.59L256 176.37l200.96-7.38-3.52-31.59c-72.74-17.26-321.5-17.4-394.86 0" class="af" fill="#014d87"></path><path d="M256 135.85c-119.06 0-201.33 10.02-201.33 10.02l-.75 13.7s83.87-11.86 202.08-11.86 202.1 11.86 202.1 11.86l-.75-13.7S375.08 135.85 256 135.85m0 114.69c62.06 0 190.27-18.4 214.82-49.27 9.29-11.69-13.86-32.27-13.86-32.27s-82.6-7.38-200.96-7.38-200.96 7.37-200.96 7.37-23.15 20.59-13.86 32.27C65.7 232.14 193.94 250.54 256 250.54" class="an" fill="#302c3b"></path><path d="M50.38 151.85c1.21-16.05 15.1-14.79 13.9 1.26-1.22 16.04-15.11 14.79-13.9-1.26m410.93 0c-1.21-16.05-15.1-14.79-13.92 1.26 1.22 16.04 15.1 14.79 13.92-1.26" class="an" fill="#302c3b"></path><path d="m301.73 46.21-13.51-15.1c-17.63 11.36-32.21-2.6-32.21-2.6s-14.6 13.97-32.19 2.6l-13.5 15.1c22.62 13.28-7.83 34.77-.65 58.02 10.04 32.31 34.08 28.79 46.34 41.6 12.25-12.81 36.31-9.29 46.34-41.6 7.23-23.24-23.26-44.74-.6-58.02Z" fill="url(#1770301554985-6030624_r)"></path></g></svg>
