<svg xmlns="http://www.w3.org/2000/svg" id="a" data-name="Layer 1" viewBox="0 0 512 480.01"><defs><linearGradient id="b" x1="239.22" x2="239.22" y1="179.94" y2="393.62" gradientTransform="matrix(1 0 0 -1 0 482.01)" gradientUnits="userSpaceOnUse"><stop offset="0" stop-color="#6e4900"/><stop offset=".21" stop-color="#825805"/><stop offset=".64" stop-color="#b77f11"/><stop offset="1" stop-color="#e8a31c"/></linearGradient><linearGradient id="c" x1="353.33" x2="353.33" y1="86.04" y2="449.1" gradientTransform="matrix(1 0 0 -1 0 482.01)" gradientUnits="userSpaceOnUse"><stop offset=".05" stop-color="#473834"/><stop offset=".23" stop-color="#594640"/><stop offset=".52" stop-color="#715950"/><stop offset=".7" stop-color="#7a6056"/></linearGradient><linearGradient id="d" x1="1144.15" x2="1144.15" y1="86.04" y2="449.1" gradientTransform="matrix(-1 0 0 -1 1270.82 482.01)" gradientUnits="userSpaceOnUse"><stop offset=".05" stop-color="#473834"/><stop offset=".23" stop-color="#594640"/><stop offset=".52" stop-color="#715950"/><stop offset=".7" stop-color="#7a6056"/></linearGradient><linearGradient id="f" x1="-616.3" x2="-616.3" y1="348.14" y2="342.07" gradientTransform="translate(4235.15 -2049.78)scale(6.57)" gradientUnits="userSpaceOnUse"><stop offset="0" stop-color="#a6694a"/><stop offset="1" stop-color="#4f2a1e"/></linearGradient><linearGradient id="l" x1="-602.63" x2="-602.63" y1="348.14" y2="342.07" gradientTransform="translate(4252.88 -2049.78)scale(6.57)" gradientUnits="userSpaceOnUse"><stop offset="0" stop-color="#a6694a"/><stop offset="1" stop-color="#4f2a1e"/></linearGradient><linearGradient id="q" x1="240" x2="240" y1="86.03" y2="449.11" gradientTransform="matrix(1 0 0 -1 0 482.01)" gradientUnits="userSpaceOnUse"><stop offset=".05" stop-color="#473834"/><stop offset=".23" stop-color="#594640"/><stop offset=".52" stop-color="#715950"/><stop offset=".7" stop-color="#7a6056"/></linearGradient><linearGradient id="s" x1="240" x2="240" y1="179.93" y2="393.62" gradientTransform="matrix(1 0 0 -1 0 482.01)" gradientUnits="userSpaceOnUse"><stop offset="0" stop-color="#6e4900"/><stop offset=".21" stop-color="#825805"/><stop offset=".64" stop-color="#b77f11"/><stop offset="1" stop-color="#e8a31c"/></linearGradient><linearGradient id="t" x1="473.03" x2="473.03" y1="127.41" y2="-52.6" gradientTransform="rotate(185 -12.246 171.58)scale(-1 1)" gradientUnits="userSpaceOnUse"><stop offset="0" stop-color="#9eabb0"/><stop offset=".47" stop-color="#8a999f"/><stop offset="1" stop-color="#6e8189"/></linearGradient><linearGradient id="u" x1="473.03" x2="473.03" y1="127.47" y2="-42.89" gradientTransform="rotate(185 -12.246 171.58)scale(-1 1)" gradientUnits="userSpaceOnUse"><stop offset="0" stop-color="#9eabb0"/><stop offset=".47" stop-color="#8a999f"/><stop offset="1" stop-color="#6e8189"/></linearGradient><radialGradient id="r" cx="297.2" cy="415.94" r="106.91" fx="297.2" fy="415.94" gradientTransform="matrix(1.06 0 0 -1 -73.27 482.01)" gradientUnits="userSpaceOnUse"><stop offset="0" stop-color="#fabd49"/><stop offset=".3" stop-color="#f9bb45"/><stop offset=".6" stop-color="#f5b53a"/><stop offset=".88" stop-color="#eeaa26"/><stop offset="1" stop-color="#eba51c"/></radialGradient><style>.af{fill:#473834}.aj{fill:#1a1626}.al{fill:#e81c27;isolation:isolate;opacity:.4}.am{fill:#fff}.ap{fill:#ab968c}.aq{fill:#45332c}</style></defs><path d="M473.61 186.43c-8.64 17.41-17.84 32.26-29.18 44.78l-14.05-3.1 4.25 12.83c-34.7 30.9-88.87 60.46-195.33 60.46-162.58 0-212.47-62.5-234.33-114.97-19.78-47.45 486.18-35.3 468.64 0" style="fill:url(#b)"/><path d="M300.65 389.92c121.34-48.53 93.2-163.8 93.2-163.8H86.12s-28.13 115.26 93.18 163.8c0 0 24.28 6.08 60.67 6.08s60.67-6.08 60.67-6.08Z" class="af"/><path d="M362.65 238.43c9.38 39.46-12.42 116.8-62 151.51 72.82-12.13 105.34-80.87 105.34-133.62l-43.34-17.88Z" style="fill:url(#c)"/><path d="M117.32 238.43c-9.38 39.46 12.44 116.8 62.02 151.51C106.52 377.81 74 309.06 74 256.31l43.33-17.87Z" style="fill:url(#d)"/><path d="M82.03 405.75c19.22-10.31 85.01-32.7 85.01-32.7l145.74-.28s66.52 22.61 85.62 32.95c27.77 14.98 33.6 35.44 33.6 54.77 0 26.03-384 26.03-384 0 0-19.36 6.19-39.82 34.03-54.74" style="fill:#e6ebef"/><path d="M131.48 385.61v91.29c7.72.5 15.78.93 24.12 1.3V376.99c-6.45 2.26-14.98 5.28-24.12 8.62m96.47-12.7v107.04c8.03.05 16.08.05 24.11 0V372.86zM47.99 460.48c0 2.64 4.02 5.01 11.13 7.12v-43.19c-8.68 11.36-11.13 23.93-11.13 36.07m35.25-55.35v67.21c7.18 1 15.29 1.9 24.12 2.72v-80.33c-9.82 3.85-18.53 7.52-24.12 10.4m96.48-32.12v106.1c7.9.23 15.95.43 24.1.57V372.96zM432 460.48c0-12.22-2.36-24.9-11.1-36.36v43.47c7.1-2.1 11.1-4.47 11.1-7.11m-59.35-65.98v80.55c8.83-.81 16.94-1.71 24.13-2.71v-67.46c-5.65-2.89-14.34-6.54-24.13-10.38m-96.48-21.67v106.86c8.15-.14 16.21-.34 24.12-.57V372.78zm48.25 3.95v101.43c8.33-.38 16.4-.82 24.12-1.3V385.4c-9.13-3.34-17.66-6.35-24.12-8.62" class="al"/><path d="M427.37 435.18H52.77c-3.43 7.89-4.64 16.09-4.75 24.12h383.95c-.1-8.02-1.25-16.22-4.61-24.12Zm-28.97-29.47c-8.83-4.79-27.8-12.18-45.65-18.77H127.88c-17.82 6.57-36.89 13.99-45.85 18.8a87 87 0 0 0-8.67 5.32h333.7a85 85 0 0 0-8.66-5.35" class="al"/><path d="M167.04 373.04c0 61.34 145.75 61.06 145.75-.28l-13.11-4.53H180.95l-13.9 4.81Z" style="fill:#ef7e8c"/><path d="M178.56 369.95c0 48.02 122.87 48.02 122.87 0v-53.13H178.56z" style="fill:#f5bb51"/><path d="M366.25 468.92c.64-19.05 9.9-57.47 10.14-73 .06-4.14-33.41-16.14-33.75-12.57-1.84 18.58 1.47 64.17-.67 85.57zm-228.22 0c-2.16-21.41 1.17-66.99-.67-85.57-.36-3.56-33.82 8.43-33.75 12.57.23 15.53 9.5 53.95 10.14 73z" style="fill:#006099"/><path d="M109.2 454.86c-2.82 3.13-4.47 13.47-5.25 19.87C140.36 478.24 190.17 480 240 480s99.64-1.76 136.05-5.26c-.78-6.41-2.44-16.77-5.25-19.89-5.96-6.6-255.64-6.58-261.6 0Z" style="fill:#006dae"/><path d="M240 50.2c-88.05 0-130.46 71.69-125.16 163.87 1.1 18.53 6.25 45.25 12.61 68.16 13.2 47.61 82.87 95.56 112.54 95.56s99.33-47.95 112.54-95.56c6.36-22.9 11.51-49.62 12.59-68.16 5.31-92.18-37.08-163.87-125.13-163.87Z" style="fill:#ffc940"/><path d="M239.98 302.95c-20.62-9.08-20.8-.38-52.64 1.77 11.95 13.58 20.75 31.03 52.62 31.03 36.59 0 42.78-19.83 52.69-31.03-31.89-2.14-32.02-10.85-52.67-1.77" style="fill:#d47706"/><path d="M196.9 308.11c20.8 21.64 65.64 21.34 86.17.02-32.01 3.43-54.15 3.43-86.17-.02" class="am"/><path d="M333.54 183.41c-19.13-11.41-53.44-12.8-67.02-5.03-2.87 1.58-2.1 9.82.39 8.78 19.36-8.06 48.86-8.47 67.03.86 2.44 1.23 2.5-2.95-.41-4.61Zm-187.1 0c19.13-11.41 53.42-12.8 67.03-5.03 2.87 1.58 2.11 9.82-.39 8.78-19.38-8.06-48.84-8.49-67.05.86-2.44 1.23-2.49-2.95.41-4.61" style="fill:#966f42"/><path d="M259.78 273.71c-2.1-1.47-7.02.78-19.8.78s-17.69-2.25-19.78-.78c-2.51 1.77 1.47 9.74 19.78 9.74s22.33-7.97 19.8-9.74" style="fill:#f0a429"/><path id="e" d="M220.4 218c.75 5.82-3.2 12.72-14.16 17.89-6.95 3.3-21.42 7.17-40.44-.84-8.51-3.59-16.83-14.78-16.08-20.97 10.3-19.42 61.04-22.26 70.68 3.92" class="am" data-name="Path"/><circle id="g" cx="185.98" cy="217.59" r="19.92" data-name="Oval" style="fill:url(#f)"/><path id="h" d="M176.03 217.23c0 13.78 19.94 13.78 19.94 0 0-12.79-19.94-12.79-19.94 0" class="aj" data-name="Path"/><path id="i" d="M173 211.66c0 5.78 8.36 5.78 8.36 0 0-5.36-8.36-5.36-8.36 0" class="ap" data-name="Path"/><path id="j" d="M220.5 218.77c-8.1-26.02-63.26-22.17-70.77-4.69 2.78-22.39 63.87-28.3 70.77 4.69" class="aq" data-name="Path"/><path id="k" d="M259.57 218c-.74 5.82 3.22 12.72 14.17 17.89 6.95 3.3 21.42 7.17 40.44-.84 8.53-3.59 16.83-14.78 16.08-20.97-10.3-19.42-61.03-22.26-70.69 3.92" class="am" data-name="Path"/><circle id="m" cx="293.56" cy="217.59" r="19.92" data-name="Oval" style="fill:url(#l)"/><path id="n" d="M283.6 217.23c0 13.78 19.92 13.78 19.92 0 0-12.79-19.92-12.79-19.92 0" class="aj" data-name="Path"/><path id="o" d="M280.56 211.66c0 5.78 8.36 5.78 8.36 0 0-5.36-8.36-5.36-8.36 0" class="ap" data-name="Path"/><path id="p" d="M259.5 218.77c8.08-26 63.22-22.28 70.77-4.69-2.8-22.39-63.88-28.3-70.77 4.69" class="aq" data-name="Path"/><path d="M339.08 63.06c10.06-14.34-75.1-44.66-155.51-24.18C103.26 57.26 73.99 177.59 73.99 256.3c7.18 5.69 35.17-8.53 43.33-17.87 3.33-13.77 8.58-27.94 13.47-42.62 60.31-34.92 128.56-43.14 175.94-84.94-6.06 18.2 26.05 41.16 42.47 84.94 5.31 14.2 10.08 28.42 13.46 42.62 13.39 12.33 24.11 18.14 43.34 17.87 0-66.56-34.73-202.51-66.93-193.23Z" style="fill:url(#q)"/><path d="M88.47 244.33c55.54-73.98 219.51-68.97 250.61-181.27-60.41 94.25-235.44 110.15-250.61 181.27" class="af"/><path d="M309.8 26.33C295.89 14.86 282.36 0 241.41 0s-54.49 14.86-68.38 26.33c-25.5 20.98-75.62 31.9-75.62 105.8h288c0-73.9-50.11-84.82-75.61-105.8" style="fill:url(#r)"/><path d="M473.61 186.43c-34.72 69.94-78.51-38.18-234.31-38.18-132.84 0-212.47 90.66-234.33 38.18-14.61-35.03 4.75-50.05 35.64-58.31l16.53 11.36 2.14-15.44c1.97-.36 3.95-.7 5.95-1.02l8.23 8.16 3.25-9.9c93.11-13.3 99.39-33.8 162.58-33.8 66.72 0 82.97 25.78 169.61 30.69l5.72 14.62 18.7-11.64c44.51 9 55.37 34.92 40.29 65.28" style="fill:url(#s)"/><path d="M428.34 422.51c-35.51-3.11-69.36-30.38-65.33-76.52l6.03-68.78c.62-7.18 15.54-27.83 15.54-27.83s11.13 22.91 10.5 30.11l-6.02 68.79c-2.67 30.53 18.95 46.2 41.53 48.18 22.61 1.97 46.59-9.7 49.28-40.24l6.02-68.78c.62-7.19 15.56-27.83 15.56-27.83s11.14 22.91 10.51 30.11l-6.03 68.79c-4.02 46.14-42.1 67.11-77.6 64.01Z" style="fill:url(#t)"/><path d="M437.34 462.48c-10.47 4.67-25.64 7.38-25.64 7.38l5.56-63.59 24.8 2.17-4.72 54.05Z" style="fill:#774212"/><path d="M453.54 284.6c.62-7.18-10.51-30.1-10.51-30.1s-14.94 20.63-15.56 27.82L414.94 425.7l26.05 2.27 12.55-143.38Z" style="fill:url(#u)"/></svg>