<svg xmlns="http://www.w3.org/2000/svg" data-name="Layer 1" style="" viewBox="0 0 512 597.34"><g><defs><linearGradient id="1770301554982-9602852_b" x1="417.77" x2="417.77" y1="110.03" y2="594.13" gradientTransform="matrix(1 0 0 -1 0 595.34)" gradientUnits="userSpaceOnUse"><stop offset=".05" stop-color="#473834"></stop><stop offset=".23" stop-color="#594640"></stop><stop offset=".52" stop-color="#715950"></stop><stop offset=".7" stop-color="#7a6056"></stop></linearGradient><linearGradient id="1770301554982-9602852_c" x1="1176.59" x2="1176.59" y1="110.03" y2="594.13" gradientTransform="rotate(180 635.405 297.67)" gradientUnits="userSpaceOnUse"><stop offset=".05" stop-color="#473834"></stop><stop offset=".23" stop-color="#594640"></stop><stop offset=".52" stop-color="#715950"></stop><stop offset=".7" stop-color="#7a6056"></stop></linearGradient><linearGradient id="1770301554982-9602852_e" x1="-616.6" x2="-616.6" y1="401.75" y2="393.65" gradientTransform="matrix(6.57 0 0 6.57 4235.16 -2365.42)" gradientUnits="userSpaceOnUse"><stop offset="0" stop-color="#a6694a"></stop><stop offset="1" stop-color="#4f2a1e"></stop></linearGradient><linearGradient id="1770301554982-9602852_k" x1="-597.48" x2="-597.48" y1="401.75" y2="393.65" gradientTransform="matrix(6.57 0 0 6.57 4252.89 -2365.42)" gradientUnits="userSpaceOnUse"><stop offset="0" stop-color="#a6694a"></stop><stop offset="1" stop-color="#4f2a1e"></stop></linearGradient><linearGradient id="1770301554982-9602852_p" x1="256.01" x2="256.01" y1="110" y2="594.13" gradientTransform="matrix(1 0 0 -1 0 595.34)" gradientUnits="userSpaceOnUse"><stop offset=".05" stop-color="#473834"></stop><stop offset=".23" stop-color="#594640"></stop><stop offset=".52" stop-color="#715950"></stop><stop offset=".7" stop-color="#7a6056"></stop></linearGradient></defs><path d="M45.38 498.31C71 484.58 176 448.1 176 448.1l160-.31s105.74 36.7 131.21 50.5c37.01 19.96 44.79 47.23 44.79 73 0 14.29-86.83 22.71-188.97 25.23 0 0-62.9-35.5-133.75 0C87 594.01 0 585.6 0 571.29c0-25.81 8.26-53.09 45.38-72.98" fill="#302c3b"></path><path d="M336.87 477.25c161.79-64.7 145.62-218.4 145.62-218.4H29.53s-16.19 153.7 145.58 218.4c0 0 32.37 8.09 80.87 8.09s80.9-8.09 80.9-8.09Z" class="w" fill="#473834"></path><path d="M419.56 275.24c16.54 69.7 7.81 138.67-82.69 202.01 97.09-16.19 161.79-107.83 161.79-178.17z" fill="url(#1770301554982-9602852_b)"></path><path d="M92.46 275.24c-16.57 69.7-7.83 138.67 82.67 202.01-97.09-16.18-161.8-107.83-161.8-178.17z" fill="url(#1770301554982-9602852_c)"></path><path d="M160.39 499.02h191.19l-69.54 98.31h-52.06z" fill="#e6ebef"></path><path d="M175.78 437.37c0 54.14 60.65 64.02 60.65 64.02s5.5 33.71 19.59 56.5c18.36-23.46 23.74-56.67 23.74-56.67s56.26-9.71 56.26-63.85c0-12.48.05-54.29.05-54.29H175.92s-.15 39.96-.15 54.29Z" fill="#f5bb51"></path><path d="M336.01 437.37s9.29 53.23-40.93 105.02c-3.45-22.12-15.34-41.16-15.34-41.16s38.85-17.9 56.27-63.86" class="ab" fill="#fff"></path><path d="m236.42 501.4-13.82 4.61s22.67 54.23 25.11 91.34h16.22s-1.78-37.57-27.51-95.95" fill="#f1f6fa"></path><path d="M175.78 437.37s-10.07 54.06 40.15 105.86c7-25.88 20.5-41.83 20.5-41.83s-43.24-18.06-60.65-64.02Z" class="ab" fill="#fff"></path><path d="M322.74 596.52s34.49-38.75 55.33-87.17l-26.5-26.88 42.17-7.78s-24.65-24.98-57.72-37.33c0 0-15.99 84.15-53.97 159.96zm-133.46 0s-34.49-38.75-55.33-87.17l26.5-26.88-42.17-7.78s24.65-24.98 57.72-37.33c0 0 15.99 84.15 53.97 159.96z" fill="#4e5e67"></path><path d="M256 24.29c-117.38 0-173.92 95.58-166.86 218.5 1.44 24.7 8.31 60.36 16.79 90.88 17.61 63.48 110.51 127.4 150.07 127.4s132.44-63.91 150.06-127.39c8.48-30.52 15.35-66.18 16.81-90.88C429.92 119.88 373.42 24.29 256 24.29" fill="#ffc940"></path><path d="M255.98 361.29c-27.5-12.11-27.71-.48-70.19 2.36 15.94 18.1 27.69 41.38 70.19 41.38 48.79 0 57.02-26.44 70.23-41.38-42.5-2.84-42.69-14.46-70.23-2.36" fill="#d47706"></path><path d="M198.54 368.17c27.73 28.85 87.52 28.46 114.91.02-42.68 4.58-72.2 4.58-114.91-.02" class="ab" fill="#fff"></path><path d="M380.73 201.89c-25.5-15.19-71.25-17.07-89.33-6.71-3.83 2.1-2.82 13.09.5 11.71 25.81-10.75 65.16-11.3 89.4 1.14 3.23 1.65 3.32-3.94-.57-6.14m-249.48 0c25.5-15.19 71.25-17.07 89.38-6.71 3.85 2.1 2.82 13.09-.52 11.71-25.83-10.75-65.12-11.32-89.38 1.14-3.27 1.65-3.34-3.94.52-6.14" fill="#966f42"></path><path d="M282.4 322.29c-2.82-1.96-9.35 1.05-26.42 1.05s-23.58-3-26.38-1.05c-3.35 2.36 1.98 12.98 26.38 12.98s29.77-10.62 26.42-12.98" fill="#f0a429"></path><path id="1770301554982-9602852_d" d="M229.9 248.01c.98 7.75-4.29 16.96-18.89 23.87-9.27 4.37-28.57 9.55-53.92-1.14-11.35-4.79-22.44-19.71-21.44-27.96 13.75-25.9 81.38-29.69 94.25 5.23" class="ab" data-name="Path" fill="#fff"></path><circle id="1770301554982-9602852_f" cx="184" cy="247.48" r="26.56" data-name="Oval" fill="url(#1770301554982-9602852_e)"></circle><path id="1770301554982-9602852_g" d="M170.73 247c0 18.38 26.56 18.38 26.56 0 0-17.07-26.56-17.07-26.56 0" class="z" data-name="Path" fill="#1a1626"></path><path id="1770301554982-9602852_h" d="M166.69 239.55c0 7.71 11.13 7.71 11.13 0 0-7.14-11.13-7.14-11.13 0" class="ac" data-name="Path" fill="#ab968c"></path><path id="1770301554982-9602852_i" d="M230.02 249.03c-10.79-34.69-84.35-29.56-94.38-6.25 3.71-29.86 85.17-37.73 94.38 6.25" class="ad" data-name="Path" fill="#45332c"></path><path id="1770301554982-9602852_j" d="M282.12 248.01c-1 7.75 4.27 16.96 18.88 23.87 9.27 4.37 28.57 9.55 53.92-1.14 11.37-4.79 22.44-19.71 21.44-27.96-13.74-25.9-81.39-29.69-94.24 5.23" class="ab" data-name="Path" fill="#fff"></path><circle id="1770301554982-9602852_l" cx="327.41" cy="247.48" r="26.56" data-name="Oval" fill="url(#1770301554982-9602852_k)"></circle><path id="1770301554982-9602852_m" d="M314.14 247c0 18.38 26.58 18.38 26.58 0 0-17.07-26.58-17.07-26.58 0" class="z" data-name="Path" fill="#1a1626"></path><path id="1770301554982-9602852_n" d="M310.1 239.55c0 7.71 11.13 7.71 11.13 0 0-7.14-11.13-7.14-11.13 0" class="ac" data-name="Path" fill="#ab968c"></path><path id="1770301554982-9602852_o" d="M282.01 249.03c10.79-34.67 84.29-29.71 94.36-6.25-3.73-29.86-85.17-37.73-94.36 6.25" class="ad" data-name="Path" fill="#45332c"></path><path d="M388.13 41.43c13.4-19.13-100.15-59.54-207.34-32.25C73.71 33.71 13.33 194.14 13.33 299.08c9.58 7.61 68.22-11.35 79.13-23.84 4.44-18.36 11.41-37.25 17.94-56.83 80.42-46.56 171.41-57.53 234.58-113.25-8.09 24.27 34.73 54.88 56.63 113.25 7.1 18.93 13.46 37.92 17.96 56.83 17.86 16.45 53.48 24.19 79.1 23.84-.01-88.76-67.64-270.03-110.55-257.65Z" fill="url(#1770301554982-9602852_p)"></path><path d="M32.63 283.12c74.06-98.66 314.01-91.97 355.5-241.7-80.57 125.68-335.28 146.89-355.5 241.7" class="w" fill="#473834"></path><path id="1770301554982-9602852_q" d="M247.57 580.21c0 7.71 11.13 7.71 11.13 0 0-7.13-11.13-7.13-11.13 0" class="ab" data-name="Path" fill="#fff"></path></g></svg>
