<svg xmlns="http://www.w3.org/2000/svg" id="a" data-name="Layer 1" viewBox="0 0 512 719.54"><defs><linearGradient id="b" x1="355.3" x2="512" y1="574.33" y2="574.33" gradientTransform="matrix(1 0 0 -1 0 713.54)" gradientUnits="userSpaceOnUse"><stop offset="0" stop-color="#473834"/><stop offset=".34" stop-color="#5e4a43"/><stop offset=".74" stop-color="#735a51"/><stop offset="1" stop-color="#7a6056"/></linearGradient><linearGradient id="c" x1="165.22" x2="386.23" y1="609.55" y2="609.55" gradientTransform="matrix(1 0 0 -1 0 713.54)" gradientUnits="userSpaceOnUse"><stop offset="0" stop-color="#7a6056"/><stop offset=".31" stop-color="#775d54"/><stop offset=".57" stop-color="#6d554d"/><stop offset=".8" stop-color="#5b4842"/><stop offset="1" stop-color="#473834"/></linearGradient><linearGradient id="f" x1="187.71" x2="187.71" y1="562.13" y2="588" gradientTransform="matrix(1 0 0 -1 0 713.54)" gradientUnits="userSpaceOnUse"><stop offset="0" stop-color="#a6694a"/><stop offset="1" stop-color="#4f2a1e"/></linearGradient><style>.p{fill:#ffc940}.q{fill:#1a1626}.s{fill:#f5bb51}.t{fill:#fff}.u{fill:#8e3ed6}.y{fill:#f0a429}</style></defs><path d="M479.19 221.1c9.49 3.46 20.3 4.75 32.81 2.48-88.92-50.69-17.16-251.14-156.7-198.45l19.59 50.3c39.44 7.64-19.3 112.64 52.92 148.49-7.11-6.64-7.11-20.55-5.22-37.02 13.82 47.24 28.41 80.74 84.17 74.34-10.03-2.17-19.95-18.96-27.58-40.14Z" style="fill:url(#b)"/><path d="M343.22 25.78c-16.56 11.62 4.03 58.45 37.26 60.43 27.3 1.7-9.96-79.54-37.26-60.43" class="u"/><path d="M221.46 253.12c19.73-9.41 29 8.65 30.32 15.86 4.35 23.75 87.74-3.94 77.73-31.2-8.7-23.7 2.92-52.06 2.92-52.06-13.13-7.49-59.36-92.59-110.96 67.4Z" class="s"/><path d="M235.62 18.23C175.7 27.78 153.73 70.56 163.39 121c2.17 11.37-5.18 30.89-19.66 43.41-5.27 4.57-5.81 10.6-3.21 14.63 5.08 7.92 16.19 8 20.84 10.97 10.38 6.6-.03 13.91 7.79 21.7 3.56 3.54 13.73-1.15 3 17.64 11.91 8.73-3 28.55 22.76 33 12.22 2.1 59.07-16.61 83.68-49.51 13.89-18.63 16.16-40.25 16.16-40.25 45.97-13.26 62.23-53.39 52.31-95.38-13.89-58.75-72.55-65.18-111.43-58.98Z" class="p"/><path d="M169.14 211.69c5.65 3.45 3.17 8.87 3.17 8.87-2.7 0-3.35 8.94.65 8.94 14.03 0 26.91-12.05 31.13-19.35-22-1.08-46.11-11-34.95 1.54" style="fill:#d47706"/><path d="M169.14 211.69s2.13 7.68 3.17 8.87c4.43 0 18.74-3.17 27.56-8.97z" class="t"/><path d="M358.9 49.54c-10.75-34.59-63.49-57.25-114.48-47.1-49.58 9.84-86.14 43.85-78.09 66.1 11.43 31.55 81.52 31 107.59 84.44.37 3.67 18.86 6.2 19.65 9.44 6.25 25.89 26.14 47.38 33.39 45.43 50.65-13.53 86.54-137.31 31.94-158.3Z" style="fill:url(#c)"/><path d="M140.68 179.1c4.17 11.01 30.71 13.41 39.16 0-13.98 10.1-41.58-6.43-39.16 0" class="y"/><path d="M294.93 116.78c-22.36 4.62-29.35 55.12-12.59 66.07 2.34 1.54 14.61 2.89 21.07-9.48 3.6-6.84 16.44-13.81 18.21-27.23 2.3-17.19-4.46-33.96-26.69-29.36" class="p"/><path id="d" d="M296.08 126.16c-5.67 1.92-11.01 8.48-12.68 18.46 20.16-5.45 19.25 17.19 1.33 19.87.62 2.2 1.3 4.43 2.17 6.77 7.1-9.09 16.54-7.02 22.94-20.02 5.78-11.78.35-29.88-13.77-25.07Z" class="y" data-name="Path"/><path id="e" d="M217.81 110.65c-12.74-7.38-37.13-7.74-46.23-2.6-1.94 1-.64 7.97.98 7.29 12.66-5.47 33.09-5.59 44.94.46 1.58.8 2.27-4.14.3-5.15Z" data-name="Path" style="fill:#966f42"/><path d="M212.51 136.45c.28 3.21-9.92 14.85-22.92 15.94-7.43.62-10.09-5.11-11.73-11.26-1.62-24.58 27.33-15.84 34.65-4.68" class="t"/><path id="g" d="M177.35 137.99c0 17.89 20.73 17.89 20.73 0 0-16.61-20.73-16.61-20.73 0" data-name="Path" style="fill:url(#f)"/><path id="h" d="M179.52 137.19c0 8.94 10.35 8.94 10.35 0 0-8.32-10.35-8.32-10.35 0" class="q" data-name="Path"/><path id="i" d="M185.93 133.59c0 3.74 6.03 3.74 6.03 0-.01-3.51-6.03-3.51-6.03 0" data-name="Path" style="fill:#ab968c"/><path d="M212.51 136.45c-5.6-11.17-33.38-19.29-34.14-4.22 3.93-10.13 24.52-4.58 34.14 4.22" style="fill:#45332c"/><path d="M421.49 717.05s6.41 3.35 7.68-3.38c-19.75-77.56-160.09-123.16-160.09-123.16-5.04 1.08-7.2 6.78-7.2 6.78l159.6 119.75Z" style="fill:#6e8189"/><path d="M311.06 691.39c33.13 16.38 92.85 34.91 110.41 25.67-20.99-74.09-159.6-119.75-159.6-119.75-51.16 50.36 33.49 86.32 49.19 94.08" style="fill:#99a8ae"/><path d="M364.57 711.84c-4.76-24.33-12.65-34.05-20.19-24.78-4.9-13.95-13.88-12.05-17.7-6.07-7.21-11.94-16.87-5.08-11.71 13.98 3.28 10.59 50.94 23.48 49.59 16.88Z" class="q"/><path d="M347.57 531.23s-67.21-64.76-135.54-9.89c-62.71 34.46-155.22 78-199.76 115.38-30.22 25.35-.11 77.86 41.61 81.92 33.5 3.27 123.53-1.67 260.65-25.57 0 0-35.33-22.65-46.61-53.76 75.25-5.16 121.3-20.76 79.65-108.07Z" style="fill:#302c3b"/><path d="M359.04 605.76c-54.17 50.24-170.26 20.08-233.21 46.3 75.01-7.54 209.45 7.65 233.21-46.3" class="q"/><path d="M360.55 560.69s-72.99-76.16-148.51-39.35c7.21-51.89 12.12-107.32 8.25-110.76-56.01-49.57 13.52-76.38 24.15-123.67 1.31-5.78 3.11-15.91 6.82-20.02 8.65 26.43 44.45-22.38 78.27-29.1 58.99 64.47-2.38 215.19 31.02 322.9" class="u"/><path d="M298.62 445.46c2.92-8.16 25.38-41.57 31.11-74.6-20.3-4.84-40.63-9.13-60.91-12.65-1.56 27.4-10.67 40-22.36 72.99-23.08 32.86-48.82 71.37-81.84 104.94-2.17 2.19-31.26 9.05-36.37 11.89-6.32 3.49-20.2 10.72-20.98 18.63-8.73 16.87 23.54 5.65 47.3 5.13 24.81-.54 35.2-7.57 37.08-12 11.07-25.88 101.91-99.99 106.97-114.34Z" class="s"/><path d="M135.21 550.35c-24.3 3.6-27.95 16.33-27.95 16.33s5.69-9.92 27.95-16.33m6 8.96c-38.61 6.43-33.93 15.08-33.93 15.08s0-7.71 33.93-15.08" class="y"/><path d="M328.82 399.23c5.47-27.36 15.76-62.64 20.59-103.42 5.19-43.92-59.46-53.05-69.84-9.84-5.66 23.45-15.39 55.21-19.37 102.03 22.85 1.63 45.89 5.42 68.62 11.24Z" style="fill:#732eb0"/></svg>