<svg xmlns="http://www.w3.org/2000/svg" id="a" data-name="Layer 1" viewBox="0 0 512 506.58"><defs><linearGradient id="b" x1="358.49" x2="439.79" y1="1057.59" y2="1057.59" gradientTransform="rotate(193.86 -17.627 600.747)scale(-1 1)" gradientUnits="userSpaceOnUse"><stop offset="0" stop-color="#473834"/><stop offset=".34" stop-color="#5e4a43"/><stop offset=".74" stop-color="#735a51"/><stop offset="1" stop-color="#7a6056"/></linearGradient><linearGradient id="c" x1="-454.39" x2="-339.7" y1="1956.84" y2="1956.84" gradientTransform="rotate(235.51 -49.91 1042.116)scale(-1 1)" gradientUnits="userSpaceOnUse"><stop offset="0" stop-color="#7a6056"/><stop offset=".31" stop-color="#775d54"/><stop offset=".57" stop-color="#6d554d"/><stop offset=".8" stop-color="#5b4842"/><stop offset="1" stop-color="#473834"/></linearGradient><linearGradient id="f" x1="-442.71" x2="-442.71" y1="1932.22" y2="1945.65" gradientTransform="rotate(235.51 -49.91 1042.116)scale(-1 1)" gradientUnits="userSpaceOnUse"><stop offset="0" stop-color="#a6694a"/><stop offset="1" stop-color="#4f2a1e"/></linearGradient><style>.o{fill:#ffc940}.q{fill:#f5bb51}.r{fill:#9e7666}.s{fill:#fff}.u{fill:#8e3ed6}.y{fill:#f0a429}.aa{fill:#302c3b}.ab{fill:#543d32}.ac{fill:#6b4d40}</style></defs><path d="M474.93 295.49c4.36 2.94 9.63 4.93 16.21 5.34-38.49-36.59 22.59-128.73-54.25-119.51l3.61 27.79c18.91 8.75-23.75 54.37 8.2 81.44-2.77-4.24-1.04-11.25 1.94-19.29 1.11 25.52 4.31 44.21 33.18 47.92-4.79-2.36-7.71-12.05-8.89-23.69" style="fill:url(#b)"/><path d="M477.69 198.81c-3.77-9.79-29.95-5.29-35.12 11.2-4.27 13.53 41.34 4.95 35.12-11.2" class="u"/><path d="M371.13 176.54c9.83 5.66 9.63 22.57 6.91 25.27-8.87 8.85 22.69 28.72 31.42 16.42 7.56-10.68 23.13-14.07 23.13-14.07-.66-7.81 22.18-52.6-61.46-27.63Z" class="q"/><path d="M475.82 113.54c-21.7-22.82-46.45-19.65-65.2-.68-4.24 4.28-14.72 6.86-24.36 4.35-3.5-.91-6.21.63-7.19 2.93-1.92 4.51 1.33 9.26 1.42 12.14.23 6.38-5.95 4.07-6.99 9.71-.5 2.58 4.53 5.52-6.68 6.48-.23 7.65-13.1 7.1-7.44 19.42 2.68 5.86 24.47 20.39 45.78 21.23 12.04.49 21.99-4.92 21.99-4.92 19.17 15.77 41.13 10.93 56.2-5.66 21.05-23.2 6.57-50.21-7.51-64.99Z" class="o"/><path d="M373.5 141.98c.17 3.42-2.87 3.96-2.87 3.96-.79-1.16-4.81 1.18-3.63 2.9 4.1 6 13.04 7.98 17.43 7.62-6.01-9.71-8.83-22.95-10.93-14.48" style="fill:#d47706"/><path d="M373.5 141.98s-2.65 3.17-2.87 3.96c1.28 1.89 6.86 7.08 11.92 9.14z" class="s"/><path d="M498.66 175.44c11.64-14.78 5.81-43.96-13.49-62.81-18.79-18.32-44.06-23.94-51.23-13.96-10.14 14.17 10.69 44-4.52 70.84-1.45 1.24 2.89 9.9 1.75 11.18-9.25 10.29-12.61 25.12-9.65 27.63 20.67 17.69 84.2-3.35 77.14-32.89Z" style="fill:url(#c)"/><path d="M379.09 120.23c-3.5 5.01 3.27 17.06 11.49 16.73-8.41-3.01-9.46-19.66-11.49-16.73" class="y"/><path d="M451.06 167.86c-8.56-8.2-32.22 3.65-31.97 14.03.02 1.49 3.05 7.12 10.24 6.24 3.98-.49 10.75 2.99 17-.21 8.05-4.07 13.24-11.9 4.73-20.06" class="o"/><path id="d" d="M447.41 171.12c-2.51-1.87-6.89-2.22-11.64.02 8.25 7.01-1.7 13.26-8.11 6.41-.74.89-1.5 1.85-2.26 2.91 6 .36 7.87 5.02 15.32 3.94 6.75-1.01 12.9-8.66 6.7-13.28Z" class="y" data-name="Path"/><path id="e" d="M431.03 133.09c-.59-7.62-7.6-18.14-12.45-20.56-1-.53-3.61 2.08-2.84 2.58 6.04 3.82 12.09 12.5 12.99 19.36.14.9 2.43-.26 2.3-1.38" data-name="Path" style="fill:#966f42"/><path d="M418.43 138.4c-1.3 1.09-9.27.14-13.57-5.11-2.44-2.98-.76-5.81 1.4-8.32 10.02-7.91 14.81 7.04 12.17 13.43" class="s"/><path id="g" d="M407.45 123.82c-7.67 5.29-1.55 14.13 6.09 8.87 7.11-4.88 1.02-13.75-6.09-8.87" data-name="Path" style="fill:url(#f)"/><path id="h" d="M408.43 124.52c-3.82 2.63-.78 7.04 3.03 4.41 3.58-2.43.53-6.86-3.03-4.41" data-name="Path" style="fill:#1a1626"/><path id="i" d="M411.84 126.19c-1.59 1.09.18 3.67 1.76 2.57 1.52-1.02-.24-3.6-1.76-2.57" data-name="Path" style="fill:#ab968c"/><path d="M418.43 138.4c3.13-5.67-1.55-19.93-8.23-15.82 5.51-1.32 9.18 9.14 8.23 15.82" style="fill:#45332c"/><path d="M468.93 189.06s-.26-9.52-2.39-8.71c-8.81 3.39-32.11 3.65-32.11 3.65s5.28-27.19 26.09-44.06c1.78-1.44-4.76-6.18-7.01-5.85-13.67 2.12-29.93 49.39-29.93 49.39s-38.49.8-52.03-5.2c2.82 25.3 97.37 10.79 97.37 10.79Z" class="aa"/><path d="M505.27 121.89c-15.6-32.51-53.28-46.14-84.13-30.46-8.51 4.31 19.24 33.92 30.56 57.48 10.29 21.48 15.43 65.52 25.9 60.18 30.86-15.64 43.26-54.69 27.68-87.2Z" style="fill:#e81c27"/><path d="M259.06 88.72 273.78 0H114.09l44.43 305.58 18.25-85.22L281.91 107.6z" style="fill:#916858"/><path d="M184.82 0 158.5 137.11l22.96 10.26-28.01 101.04 31.38 8.44-31.9 115.32-24.77 43.33-6.22 44.51 34.05 29.63 3.56 16.94H0V0z" class="ac"/><path d="m3.58 419.9 34.95 22.33 43.44 18.29 40.65-1.83 33.37 30.95-77.2-16.18-42.91-23.2zm102.74-162.79L3.59 232.58l151.79 8.92 29.45 15.35z" class="r"/><path d="M78.27 250.42 34.3 378.57 5.35 232.58zm54.88 6.69-22.85 83.17-3.98-83.17zM35.88 450.26 17.7 496.07 3.58 419.9zm42.91 23.2-5.03 25.7-16.84-37.52zm-62.5-348.34 66.21 73.17 25.41-45.31zM13.81 0l30.83 32.85 4.5 58.05L96.8 60.29 121.94 0z" class="ab"/><path d="m16.29 125.12 94.27 16.2 48.37-6.35 33.56 17.5-37.44-4.19-47.14 4.7z" class="r"/><path d="m192.47 78.72 84.04 8.08 5.4 20.8z" class="ac"/><path d="m163.66 175.72-8.61-27.44 36.68 3.03-26.6 54.97z" class="ab"/><path d="M269.45 0h59.57l-42.63 23.08-23.55 42.83-8.58-47.21z" class="ac"/><path d="M275.38 228.8c-10.6-5.82-46.3 32.2-82.53 57.17-2.21 1.52 6.16 19.24 8.46 17.92 29.19-16.85 47.75-16.85 63.46-34.17 2.41 5 8.79 10.62 12.01 17.99 2.23 5.1 37.3-20.83 32.93-25.05-23.13-22.44-25.01-28.76-34.32-33.86Zm72.55-73.66c-6.7-15.65-24.9-39.28-32.42-52.82-4.47-8.01-31.47-23.91-38.62-23.57-5.74.25-31.87 13.35-28.27 18.79 17.27-8.27 19.98-6.42 22.82-5.34 7.25 2.77 12.63 9.78-7.21 13.98-3.44.73-4.24 5.11 3.5 3.89 12.37-1.99 11.82-4.7 20.58-5.94 5.95-.84 9.67 3.34 11.84 7.73 9.96 20.14 10.71 40.22 22.08 57.32 17.92 26.96 17.63 40.93 36.9 52.25 4.05 2.37 25.24-7.16 24.21-11.25-4.54-18.16-28.77-39.56-35.41-55.05Z" class="q"/><path d="M195.72 283.98c-6.92-5.54-15.24-34.68-23.18-31.84-10.71 27.95-.02 28.3 9.86 58.21 1.45 4.43 17.11 4.27 18.91-6.45l-5.59-19.93Z" class="aa"/><path d="M321.75 271.49c-1.92-6.51-14.99-15.98-14.99-15.98s-18.95 16.84-32.98 29.36c0 0 4.55 17.38 4.72 28.18.22 18.41 48.59-23.51 43.24-41.56Z" style="fill:#5d1e96"/><path d="M315.32 297.88 202.28 0h13.03l113.72 300c-.37 1.06-18.94 14.08-13.71-2.13Z" class="aa"/><path d="M319.4 192.7c-32.82-5.97-42.68-3.99-56.16-5.79-9.24-10.24-42.61-19.6-52.14-29.25-6.53-17.6-28.3-20.14-30.61-20.43-5.19-.68-21.5 1.38-21.95 5.41-.61 5.21 17.65 5.31 22.26 9.15 4.19 3.48 7.3 13.39 12.99 15.65 13.82 5.49 56.4 46.66 62.51 49.9 6.78 3.58 20.63 3.55 51.73 8.11 6.04.89 17.33-31.66 11.36-32.75ZM133.22 449.74c20.59-37.22 27.7-60.52 42.73-75.21 10.76-10.54 34.12-25.28 49.64-37.56 5.05-4.01 35.29 26.78 30.14 30.72-11.71 9.03-39.59 17.82-53.44 24.48-9.79 25.31-31.48 28.17-44.92 50.07-1.5 2.4-25.6 10.11-24.15 7.5" class="q"/><path d="M133.22 449.74c-8.32 7.18-38.58 18.83-34.68 26.73 30.41 7.65 28.99-5.05 61.68-15.68 4.65-1.52 4.17-9.93-2.85-18.55z" class="aa"/><path d="m316.89 190.81-13.6 35.14c12.04.56 14.55 3.46 14.55 3.46s-7.73 11.44 3.28 19.1c-4.31 11.99-7.14 24.64-13.49 33.26-13.79 18.75-58.84 32.09-85.04 54.78-.94 7.98 28.93 35.62 28.93 35.62 16.62-8.94 48.74-10.34 69.59-11.76 54.09-3.68 33.86-57.67 87.55-138.65 5.66-8.51-32.14-25.32-41.99-26.09-14.23-1.1-49.77-4.85-49.77-4.85Z" class="u"/><path d="M182.76 144.7c-15.17-7.56-22.53-4.18-22.53-4.18s7.62-1.1 22.53 4.18m4.75-3.64c-10.82-5.47-16.59-3.43-16.59-3.43s4.98-.2 16.59 3.43" class="y"/><path d="M313.9 269.68s18.75 30.95 49.26 55.5c-1.49 7.25-5.82 13.13-5.82 13.13l-10.69-7.08-47.01 24.85s.23 2.26 1.49 5.71c-6.58 1.68-13.31 1.28-13.31 1.28s-11.59-27.54-12.39-58.39c4.48-3.71 12.44-6.96 12.44-6.96 2.13 24.45 8 46.35 8 46.35l39.95-23.22s-12.83-12.66-27.95-39.5c2.14-7.49 6.04-11.69 6.04-11.69Z" class="aa"/></svg>