<svg xmlns="http://www.w3.org/2000/svg" id="a" data-name="Layer 1" viewBox="0 0 512 443.74"><defs><style>.k{fill:#ffc940}.q{fill:#966f42}.r{fill:#f0a429}.s{fill:#302c3b}.u{fill:#44618b}</style></defs><path d="M512 248.34S167.15 304.72 0 282.61v161.13h512z" style="fill:#18b5f8"/><path d="M72.15 53.88c-2.29 3.58-.95 12.55 8.38 11.02 20.28-3.37 14.95-15.27 40.36-20.48-8.74-28.65-45.53 4.41-48.74 9.46" class="r"/><path d="M385.78 181.52c-16.02-84.35-42.65-170.88-61.24-174.3-40.81-8.94-191.21-8.64-204.81-4.17-7 2.3-42.75 13.18-69.42 18.5-4.8.95-20.42 16.72-30.22 23.52-13.9 9.65-3.2 21.14 7.5 14.93 9.6-5.56 20.97-14.6 28.05-16.89 23.82-7.68 45.69 16.05 74.12-3.72 57.02-4.02 151.17 22.08 155.32 32.14 25.6 62.1 10.85 88.27 22.9 135.87-7.9 17.42-43.03 116.16-12.82 116.16 89.62 0 142.41-27.7 216.83-27.72v-78.83c-28.78 0-79.13-28.66-126.22-35.5Z" style="fill:#f5bb51"/><path d="M405.09 185.39c39.53 5.65 66.17 22.96 106.91 28.83v84.95c-29.29-.79-133.32 27.42-185.85 24.4 24.8-5 46.83-23.03 46.83-38.08 0-30.85-74.82-51.88-74.82-51.88s3.72-16.58 9.81-26.2c57.54 14.45 108.2-8.55 97.11-22.02Z" style="fill:#8e3ed6;fill-rule:evenodd"/><path id="b" d="M175.91 215.02c1.75 10.9 49.95 2.13 62.67-6.94 1.78-1.26 4.62-8.7-6.61-14.22-6.22-3.05-11.4-5.7-24.23-8.27-16.42-3.28-33.57 18.56-31.82 29.42Z" class="k" data-name="Path"/><path id="c" d="M175.91 355.94c1.75-10.91 49.95-2.13 62.67 6.94 1.78 1.26 4.62 8.71-6.61 14.22-6.22 3.05-11.4 5.7-24.23 8.27-16.42 3.28-33.57-18.58-31.82-29.42Z" class="k" data-name="Path"/><path id="d" d="M185.15 200.14c1.19 3.46 6.92 1.85 16.42 4.04-2.82-12.94 19.05-9.7 19.46 1.54 2.2-.1 4.46-1.59 6.84-1.85-7.99-5.51-4.77-5.58-16.65-10.8-10.72-4.7-28.99-1.48-26.07 7.08Z" class="r" data-name="Path"/><path id="e" d="M201.53 366.78c-9.48 2.2-15.2.56-16.38 4.02-2.92 8.57 15.35 11.8 26.07 7.12 11.89-5.23 8.67-5.3 16.65-10.82-2.38-.26-4.65-1.75-6.85-1.85-.53 11.14-22.13 14.32-19.48 1.54Z" class="r" data-name="Path"/><path d="M83.23 285.49c0 62.48 50.8 92.59 116.11 88.81 13.12-.77 32.07-4.44 48.3-8.95 33.72-9.37 67.69-58.82 67.69-79.86s-33.96-70.52-67.69-79.88c-16.23-4.51-35.18-8.18-48.3-8.95-65.31-3.76-116.11 26.33-116.11 88.83" class="k"/><path id="f" d="M171.1 217.59c-7.55 14.3-7.94 41.65-2.67 51.83 1.03 2.18 8.18.73 7.5-1.1-5.6-14.18-5.73-37.1.49-50.38.8-1.78-4.27-2.52-5.32-.35" class="q" data-name="Path"/><path id="g" d="M171.1 353.37c-7.55-14.28-7.94-41.62-2.67-51.83 1.03-2.17 8.18-.73 7.5 1.1-5.6 14.22-5.73 37.09.49 50.4.8 1.77-4.27 2.5-5.32.33" class="q" data-name="Path"/><path id="h" d="M236.63 268.63c-1.25 1.78.67 5.96.67 16.87s-1.92 15.07-.67 16.87c1.5 2.12 8.29-1.28 8.29-16.87s-6.78-19.02-8.29-16.87" class="r" data-name="Path"/><path d="M189.75 190.76c-150.54-20.81-150.54 210.25 0 189.45-25.93-26-25.93-163.47 0-189.45" style="fill:#8e3ed6"/><path d="M206 208.36c33.85 0 33.85 69.4 0 69.4s-33.87-69.4 0-69.4" class="s"/><path d="M206 217.02c20.32 0 20.32 52.07 0 52.07-20.33 0-20.33-52.07 0-52.07" class="u"/><path d="M206 293.22c33.85 0 33.85 69.4 0 69.4s-33.87-69.4 0-69.4" class="s"/><path d="M206 301.89c20.32 0 20.32 52.05 0 52.05-20.33 0-20.33-52.05 0-52.05" class="u"/><path d="M198.38 272.47h15.25v26.02h-15.25zm-5.82-83.6c11.73 6.08 20.5 23.83 20.5 23.83s-8.36-2.29-15.44 1.98c0 0-10.3-18.75-17.96-24.97-1.14-.93 11.61-1.51 12.9-.84m21.07 168.33v14.92l-15.25 2.11V357.2z" style="fill:#006dae"/><path d="M285.4 271.81c12.1 0 12.1 27.35 0 27.35-23.48 0-23.48-27.35 0-27.35" style="fill:#45332c"/><path d="M0 443.74h512v-109.4c-266.47-48.87-247.36 33.78-512 8.57z" style="fill:#48c2f9"/><path d="M512 382.59c-185.85-11.4-277.96 25.58-512 12.78v48.37h512z" style="fill:#7ed2fc"/></svg>