<svg xmlns="http://www.w3.org/2000/svg" id="a" data-name="Layer 1" viewBox="0 0 512 511.99"><defs><linearGradient id="b" x1="325.68" x2="325.68" y1="97.47" y2="484.74" gradientTransform="matrix(1 0 0 -1 0 513.99)" gradientUnits="userSpaceOnUse"><stop offset=".05" stop-color="#473834"/><stop offset=".23" stop-color="#594640"/><stop offset=".52" stop-color="#715950"/><stop offset=".7" stop-color="#7a6056"/></linearGradient><linearGradient id="c" x1="1186.9" x2="1186.9" y1="97.47" y2="484.74" gradientTransform="matrix(-1 0 0 -1 1270.81 513.99)" gradientUnits="userSpaceOnUse"><stop offset=".05" stop-color="#473834"/><stop offset=".23" stop-color="#594640"/><stop offset=".52" stop-color="#715950"/><stop offset=".7" stop-color="#7a6056"/></linearGradient><linearGradient id="e" x1="-622.21" x2="-622.21" y1="363.22" y2="356.74" gradientTransform="translate(4235.16 -2138.84)scale(6.57)" gradientUnits="userSpaceOnUse"><stop offset="0" stop-color="#a6694a"/><stop offset="1" stop-color="#4f2a1e"/></linearGradient><linearGradient id="k" x1="-607.44" x2="-607.44" y1="363.22" y2="356.74" gradientTransform="rotate(80.78 -607.657 3795.096)scale(6.57)" gradientUnits="userSpaceOnUse"><stop offset="0" stop-color="#a6694a"/><stop offset="1" stop-color="#4f2a1e"/></linearGradient><linearGradient id="p" x1="204.8" x2="204.8" y1="97.48" y2="484.75" gradientTransform="matrix(1 0 0 -1 0 513.99)" gradientUnits="userSpaceOnUse"><stop offset=".05" stop-color="#473834"/><stop offset=".23" stop-color="#594640"/><stop offset=".52" stop-color="#715950"/><stop offset=".7" stop-color="#7a6056"/></linearGradient><linearGradient id="q" x1="414.59" x2="512" y1="182.1" y2="182.1" gradientTransform="matrix(1 0 0 -1 0 513.99)" gradientUnits="userSpaceOnUse"><stop offset="0" stop-color="#01b3ff"/><stop offset="1" stop-color="#baffff"/></linearGradient><linearGradient id="r" x1="415.66" x2="495.2" y1="181.45" y2="181.45" gradientTransform="matrix(1 0 0 -1 0 513.99)" gradientUnits="userSpaceOnUse"><stop offset="0" stop-color="#fff" stop-opacity=".69"/><stop offset="1" stop-color="#fff" stop-opacity="0"/></linearGradient><style>.z{fill:#473834}.aa{fill:#6e8189}.ae{fill:#1a1626}.af{fill:#99a8ae}.ah{fill:#0198db}.ai{fill:#fff}.aj{fill:#ab968c}.ak{fill:#45332c}.am{fill:#4e5e67}.ao{fill:#302c3b}</style></defs><path d="M36.3 432.78c20.5-10.99 104.5-40.17 104.5-40.17l128-.25s84.59 29.36 104.97 40.4c29.61 15.97 35.83 37.79 35.83 58.41 0 27.77-409.6 27.77-409.6 0 0-20.65 6.6-42.47 36.3-58.39" style="fill:#006dae"/><path d="M269.5 410.07c129.43-51.76 99.41-174.74 99.41-174.74H40.67s-30 122.97 99.4 174.74c0 0 25.9 6.47 64.72 6.47 38.84 0 64.72-6.47 64.72-6.47Z" class="z"/><path d="M335.63 248.47c10 42.09-13.25 124.59-66.13 161.6 77.67-12.95 112.37-86.28 112.37-142.55l-46.23-19.05Z" style="fill:url(#b)"/><path d="M73.95 248.47c-10 42.09 13.27 124.59 66.15 161.6-77.67-12.95-112.37-86.29-112.37-142.55z" style="fill:url(#c)"/><path d="M192 447.85h25.6v64.14H192z" class="ah"/><path d="M258.04 421.82c-16.34 5.14-34.41 8.06-53.24 8.06s-36.92-2.94-53.24-8.06l53.24 75.3z" class="ai"/><path d="M140.82 392.06c0 54.26 128 54.26 128 0v-60.03h-128z" style="fill:#f5bb51"/><path d="M268.75 385c0 18.12-41.09 44.83-63.95 109.82-22.88-64.98-63.95-91.7-63.95-109.82 0 0-36.01 19.78-22.57 54.52 15.72-4.7 38.6.89 38.6.89-3.68 7.13-6.6 31.33-6.6 31.33 29.35 6.84 54.52 28.59 54.52 28.59s25.16-21.75 54.5-28.59c0 0-2.94-24.2-6.6-31.33 0 0 22.9-5.58 38.6-.89 13.46-34.73-22.55-54.52-22.55-54.52" class="ah"/><path d="M204.8 47.7c-93.92 0-139.15 76.47-133.5 174.8 1.17 19.75 6.66 48.26 13.45 72.7 14.09 50.78 88.41 101.91 120.06 101.91s105.95-51.13 120.05-101.91c6.78-24.43 12.28-52.95 13.43-72.7 5.66-98.33-39.56-174.8-133.48-174.8Z" style="fill:#ffc940"/><path d="M204.78 317.3c-22-9.69-22.19-.4-56.15 1.89 12.75 14.48 22.14 33.1 56.13 33.1 39.03 0 45.64-21.15 56.2-33.1-34.01-2.29-34.15-11.57-56.18-1.89" style="fill:#d47706"/><path d="M158.83 322.78c22.19 23.08 70.02 22.78 91.91.02-34.14 3.67-57.76 3.67-91.91-.02" class="ai"/><path d="M304.58 189.78c-20.4-12.17-57-13.65-71.48-5.37-3.06 1.66-2.24 10.45.42 9.35 20.65-8.58 52.11-9.02 71.5.93 2.6 1.31 2.67-3.15-.44-4.92Zm-199.58 0c20.4-12.17 56.99-13.65 71.5-5.37 3.06 1.66 2.25 10.45-.42 9.35-20.67-8.58-52.1-9.04-71.52.93-2.6 1.31-2.65-3.15.44-4.92Z" style="fill:#966f42"/><path d="M225.9 286.08c-2.24-1.57-7.48.85-21.12.85s-18.87-2.41-21.1-.85c-2.68 1.89 1.57 10.4 21.1 10.4s23.82-8.5 21.12-10.4" style="fill:#f0a429"/><path id="d" d="M183.9 226.66c.8 6.22-3.41 13.59-15.1 19.1-7.42 3.52-22.85 7.65-43.14-.91-9.08-3.81-17.95-15.75-17.15-22.35 10.99-20.73 65.11-23.77 75.39 4.16" class="ai" data-name="Path"/><circle id="f" cx="147.18" cy="226.25" r="21.25" data-name="Oval" style="fill:url(#e)"/><path id="g" d="M136.57 225.87c0 14.7 21.27 14.7 21.27 0 0-13.65-21.27-13.65-21.27 0" class="ae" data-name="Path"/><path id="h" d="M133.33 219.9c0 6.19 8.92 6.19 8.92 0 0-5.7-8.92-5.7-8.92 0" class="aj" data-name="Path"/><path id="i" d="M184 227.48c-8.64-27.73-67.48-23.64-75.49-4.98 2.96-23.88 68.13-30.2 75.49 4.98" class="ak" data-name="Path"/><path id="j" d="M225.68 226.66c-.79 6.22 3.43 13.59 15.11 19.1 7.42 3.52 22.85 7.65 43.14-.91 9.1-3.81 17.95-15.75 17.15-22.35-10.98-20.73-65.1-23.77-75.4 4.16" class="ai" data-name="Path"/><circle id="l" cx="261.93" cy="226.25" r="21.25" data-name="Oval" style="fill:url(#k)" transform="rotate(-80.78 261.941 226.255)"/><path id="m" d="M251.32 225.87c0 14.7 21.25 14.7 21.25 0 0-13.65-21.25-13.65-21.25 0" class="ae" data-name="Path"/><path id="n" d="M248.06 219.9c0 6.19 8.92 6.19 8.92 0 0-5.7-8.92-5.7-8.92 0" class="aj" data-name="Path"/><path id="o" d="M225.6 227.48c8.62-27.72 67.43-23.75 75.49-4.98-2.99-23.88-68.14-30.2-75.49 4.98" class="ak" data-name="Path"/><path d="M310.49 61.41c10.73-15.3-80.1-47.63-165.87-25.8C58.95 55.24 27.73 183.59 27.73 267.52c7.66 6.08 37.51-9.08 46.22-19.05 3.55-14.7 9.15-29.82 14.37-45.47 64.33-37.25 137.13-46.02 187.67-90.6-6.47 19.41 27.78 43.9 45.3 90.6 5.67 15.13 10.75 30.32 14.35 45.47 14.28 13.13 25.72 19.35 46.23 19.05 0-70.99-37.04-216-71.39-206.11Z" style="fill:url(#p)"/><path d="M43.17 254.75c59.25-78.9 234.14-73.55 267.32-193.33C246.05 161.95 59.35 178.9 43.17 254.75" class="z"/><path d="M355.3 199.65c-98.86-34.45-205.35-34.45-304.19 0-4.14-13.65-8.26-27.28-12.38-40.93 106.88-37.27 222.05-37.27 328.96 0-4.14 13.65-8.27 27.29-12.39 40.93" class="af"/><path d="M17.07 195.78v29.83l18.62 5.84v-41.5zm375.46 0v29.83l-18.62 5.84v-41.5z" class="aa"/><path d="M384.61 273.05c0-130.82-25.8-267.25-179.8-267.25S25.03 142.23 25.03 273.05c0 0 25.78-159.25 179.79-159.25s179.8 159.25 179.8 159.25Z" class="ao"/><path d="M204.8 52.18c53.4 0 91.85 10.9 119.48 32.32l-16.97-60.42c-102.49-24.08-205 0-205 0l-16.96 60.4c27.59-21.39 66.06-32.3 119.44-32.3Z" class="aa"/><path d="M307.31 24.08 292.76 0H116.98l-14.55 24.06z" class="am"/><path d="m296.33 24.08-7.29-12.05H120.69l-7.28 12.05z" class="ao"/><path d="M384.61 273.05c0-116.8-95.05-159.82-179.8-159.82S25.03 156.25 25.03 273.05c0 0 25.78-139.93 179.79-139.93s179.8 139.93 179.8 139.93Z" class="am"/><path d="m343.95 472.32-16-4.18 21.63-77.59c3.57-12.94 11.08-39.87 48.12-50.07l4.55 15.47c-28.05 7.7-33.24 26.4-36.7 38.77l-21.6 77.59Z" class="af"/><path d="M512 310.02s-27.5-10.44-82.82 8.73c-26.8 9.35-13.35 45.64 13.47 36.33 53.17-18.47 69.35-45.06 69.35-45.06" style="fill:url(#q)"/><path d="M434.68 347.6c-20.32 7.13-27.07-11.12-6.72-18.15 23.75-8.27 67.23-13.6 67.23-13.6s-36.74 23.49-60.52 31.75" style="fill:url(#r)"/><path d="m401.35 363.87-9.23-30.89 18.2 3.25 4.65 15.42z" class="aa"/><path d="m342.89 507.02 11.56-41.59-32-8.38-14.54 52.38z" class="ao"/></svg>