<svg xmlns="http://www.w3.org/2000/svg" id="a" data-name="Layer 1" viewBox="0 0 512 512.01"><defs><linearGradient id="b" x1="394.65" x2="394.65" y1="94.02" y2="508.97" gradientTransform="matrix(1 0 0 -1 0 510.01)" gradientUnits="userSpaceOnUse"><stop offset=".05" stop-color="#473834"/><stop offset=".23" stop-color="#594640"/><stop offset=".52" stop-color="#715950"/><stop offset=".7" stop-color="#7a6056"/></linearGradient><linearGradient id="c" x1="1153.49" x2="1153.49" y1="94.02" y2="508.97" gradientTransform="matrix(-1 0 0 -1 1270.81 510.01)" gradientUnits="userSpaceOnUse"><stop offset=".05" stop-color="#473834"/><stop offset=".23" stop-color="#594640"/><stop offset=".52" stop-color="#715950"/><stop offset=".7" stop-color="#7a6056"/></linearGradient><linearGradient id="e" x1="-615.04" x2="-615.04" y1="359.62" y2="352.68" gradientTransform="translate(4235.16 -2127.76)scale(6.57)" gradientUnits="userSpaceOnUse"><stop offset="0" stop-color="#a6694a"/><stop offset="1" stop-color="#4f2a1e"/></linearGradient><linearGradient id="k" x1="-599.03" x2="-599.03" y1="359.62" y2="352.68" gradientTransform="translate(4252.89 -2127.76)scale(6.57)" gradientUnits="userSpaceOnUse"><stop offset="0" stop-color="#a6694a"/><stop offset="1" stop-color="#4f2a1e"/></linearGradient><linearGradient id="p" x1="255.99" x2="255.99" y1="94.03" y2="508.97" gradientTransform="matrix(1 0 0 -1 0 510.01)" gradientUnits="userSpaceOnUse"><stop offset=".05" stop-color="#473834"/><stop offset=".23" stop-color="#594640"/><stop offset=".52" stop-color="#715950"/><stop offset=".7" stop-color="#7a6056"/></linearGradient><linearGradient id="q" x1="210.54" x2="177.77" y1="164.2" y2="213.73" gradientTransform="matrix(1 0 0 -1 0 510.01)" gradientUnits="userSpaceOnUse"><stop offset="0" stop-color="#5d1e96"/><stop offset=".19" stop-color="#6c28aa"/><stop offset=".49" stop-color="#7f34c2"/><stop offset=".77" stop-color="#8a3bd1"/><stop offset="1" stop-color="#8e3ed6"/></linearGradient><linearGradient id="r" x1="294" x2="352.28" y1="143.25" y2="89.54" gradientTransform="matrix(1 0 0 -1 0 510.01)" gradientUnits="userSpaceOnUse"><stop offset="0" stop-color="#5d1e96"/><stop offset=".19" stop-color="#6c28aa"/><stop offset=".49" stop-color="#7f34c2"/><stop offset=".77" stop-color="#8a3bd1"/><stop offset="1" stop-color="#8e3ed6"/></linearGradient><style>.aa{fill:#473834}.ad{fill:#1a1626}.af{fill:#fff}.ah{fill:#ab968c}.ai{fill:#45332c}</style></defs><path d="M325.31 409.07c138.68-55.46 124.8-187.21 124.8-187.21H61.85S47.99 353.61 186.63 409.07c0 0 27.75 6.93 69.34 6.93s69.34-6.93 69.34-6.93" class="aa"/><path d="M396.17 235.92c14.2 59.72 6.71 118.85-70.86 173.15 83.22-13.88 138.68-92.44 138.68-152.73z" style="fill:url(#b)"/><path d="M115.79 235.92c-14.18 59.72-6.69 118.85 70.88 173.15-83.22-13.87-138.68-92.44-138.68-152.73z" style="fill:url(#c)"/><path d="M255.99 20.81c-100.63 0-149.09 81.94-143.04 187.29 1.25 21.17 7.14 51.72 14.41 77.9 15.09 54.41 94.71 109.19 128.62 109.19S369.5 340.41 384.6 286c7.27-26.18 13.16-56.73 14.39-77.9 6.07-105.35-42.38-187.29-143-187.29" style="fill:#ffc940"/><path d="M255.97 309.66c-23.57-10.36-23.77-.41-60.16 2.02 13.66 15.53 23.72 35.48 60.14 35.48 41.82 0 48.9-22.67 60.22-35.48-36.44-2.43-36.59-12.38-60.2-2.02" style="fill:#d47706"/><path d="M206.74 315.56c23.77 24.73 75.02 24.41 98.48.02-36.58 3.92-61.89 3.92-98.48-.02" class="af"/><path d="M362.9 173.05c-21.86-13.03-61.07-14.64-76.59-5.75-3.28 1.79-2.41 11.21.45 10.03 22.13-9.22 55.84-9.67 76.61.99 2.79 1.41 2.86-3.37-.47-5.27m-213.84 0c21.86-13.03 61.06-14.64 76.61-5.75 3.28 1.79 2.41 11.21-.45 10.03-22.14-9.22-55.82-9.69-76.63.99-2.79 1.41-2.84-3.37.47-5.27" style="fill:#966f42"/><path d="M278.6 276.24c-2.4-1.68-8.02.91-22.63.91s-20.21-2.59-22.61-.91c-2.87 2.02 1.68 11.13 22.61 11.13s25.52-9.09 22.63-11.13" style="fill:#f0a429"/><path id="d" d="M233.6 212.57c.86 6.65-3.66 14.55-16.18 20.46-7.95 3.76-24.48 8.19-46.22-.98-9.75-4.1-19.24-16.89-18.38-23.95 11.78-22.2 69.76-25.45 80.78 4.47" class="af" data-name="Path"/><circle id="f" cx="194.26" cy="212.13" r="22.77" data-name="Oval" style="fill:url(#e)"/><path id="g" d="M182.88 211.71c0 15.75 22.78 15.75 22.78 0 0-14.63-22.78-14.63-22.78 0" class="ad" data-name="Path"/><path id="h" d="M179.42 205.33c0 6.61 9.55 6.61 9.55 0 0-6.12-9.55-6.12-9.55 0" class="ah" data-name="Path"/><path id="i" d="M233.71 213.45c-9.25-29.72-72.3-25.34-80.88-5.35 3.17-25.59 73-32.35 80.88 5.35" class="ai" data-name="Path"/><path id="j" d="M278.36 212.57c-.84 6.65 3.68 14.55 16.19 20.46 7.95 3.76 24.48 8.19 46.22-.98 9.75-4.1 19.24-16.89 18.38-23.95-11.77-22.2-69.75-25.45-80.79 4.47" class="af" data-name="Path"/><circle id="l" cx="317.18" cy="212.13" r="22.77" data-name="Oval" style="fill:url(#k)"/><path id="m" d="M305.81 211.71c0 15.75 22.78 15.75 22.78 0 0-14.63-22.78-14.63-22.78 0" class="ad" data-name="Path"/><path id="n" d="M302.34 205.33c0 6.61 9.55 6.61 9.55 0 0-6.12-9.55-6.12-9.55 0" class="ah" data-name="Path"/><path id="o" d="M278.28 213.45c9.23-29.71 72.25-25.45 80.88-5.35-3.2-25.59-73.01-32.35-80.88 5.35" class="ai" data-name="Path"/><path d="M369.22 35.51c11.5-16.4-85.82-51.04-177.72-27.64C99.72 28.89 47.99 166.41 47.99 256.34c8.21 6.52 58.48-9.73 67.8-20.42 3.8-15.73 9.8-31.93 15.4-48.71 68.93-39.91 146.93-49.31 201.07-97.07-6.95 20.8 29.77 47.04 48.54 97.07 6.09 16.23 11.52 32.49 15.38 48.71 15.31 14.1 45.84 20.74 67.82 20.42 0-76.07-57.99-231.44-94.78-220.83" style="fill:url(#p)"/><path d="M64.51 242.67c63.5-84.54 269.16-78.81 304.72-207.15C300.19 143.23 81.87 161.4 64.51 242.67" class="aa"/><path d="M443.67 397.15c-60.57-55.81-323.45-61.39-377.41.11C20.9 448.94 81.85 512 81.85 512h346.27s65.66-68.68 15.55-114.85" style="fill:#5d1e96"/><path d="M16.02 176.51c7.91 5.88 133.43 83.19 133.43 83.19l-14.56 49.33C93.45 285.8 65.36 261.8 5.09 197.17c-11.16-11.98-2.4-30.52 10.93-20.65Zm479.69.95c-8.02 5.86-135.63 83.18-135.63 83.18l14.82 49.31c42.1-23.23 70.65-47.25 131.93-111.86 11.32-11.96 2.42-30.5-11.13-20.63Z" style="fill:#f5bb51"/><path d="M340.76 352.52c19.8-16.86 54.46-48.54 54.46-48.54l-25.65-57.12s-47.7 26.87-115.71 57.98c-68.02-31.11-115.74-57.98-115.74-57.98l-25.66 57.12s34.68 31.68 54.48 48.54C66.27 401.56-.52 453.64 58.85 503.56c36.38 30.59 105.07-27.58 195-85.45 89.91 57.87 158.65 116.03 195 85.45 59.37-49.91-7.41-102-108.09-151.03Z" style="fill:#8e3ed6"/><path d="M253.87 304.86c-68.02-31.11-115.74-58-115.74-58L112.47 304s34.68 31.68 54.48 48.54z" style="fill:url(#q)"/><path d="m340.76 352.54-86.91 65.59c89.91 57.87 158.65 116.01 195 85.45 59.37-49.92-7.41-102.01-108.09-151.04" style="fill:url(#r)"/></svg>